<svg xmlns="http://www.w3.org/2000/svg" viewBox="0.0 0.0 24.0 24.0" height="200px" width="200px"><path fill="none" stroke="black" stroke-width=".3" stroke-opacity="1.0"  filling="0" d="M29.72730255126953 -5.2909088134765625 L29.72730255126953 -5.2909088134765625 C31.172748565673828 -5.2909088134765625 32.61819076538086 -5.2909088134765625 34.063636779785156 -5.2909088134765625 L34.063636779785156 -5.2909088134765625 C34.16324996948242 -3.789194107055664 31.647016525268555 -4.528652191162109 30.53670310974121 -4.527246475219727 L30.53670310974121 -4.527246475219727 C30.50514030456543 -4.682590961456299 30.47357749938965 -4.837935924530029 30.442014694213867 -4.993280410766602 L30.442014694213867 -4.993280410766602 C28.845394134521484 -4.724637508392334 27.396793365478516 -4.422427654266357 25.769268035888672 -4.3631744384765625 C25.39447021484375 -4.349529266357422 24.74275779724121 -4.210907459259033 24.585002899169922 -4.726417541503906 L24.585002899169922 -4.726417541503906 C22.522062301635742 -4.421306133270264 20.501976013183594 -4.074408531188965 18.410240173339844 -4.065164566040039 L18.410240173339844 -4.065164566040039 C18.853769302368164 -4.4229350090026855 20.1524600982666 -4.424123287200928 20.718494415283203 -4.528255462646484 C22.262969970703125 -4.812390327453613 23.797122955322266 -4.775906562805176 25.304180145263672 -4.7819623947143555 C26.81123924255371 -4.788018703460693 28.291202545166016 -4.836614608764648 29.72730255126953 -5.2909088134765625 L29.72730255126953 -5.2909088134765625"></path></svg>