<svg xmlns="http://www.w3.org/2000/svg" viewBox="0.0 0.0 24.0 24.0" height="200px" width="200px"><path fill="none" stroke="black" stroke-width=".3" stroke-opacity="1.0"  filling="0" d="M13.554545402526855 11.645454406738281 L13.554545402526855 11.645454406738281 C13.531563758850098 11.694690704345703 13.508581161499023 11.743927001953125 13.485599517822266 11.793163299560547 L13.485599517822266 11.793163299560547 C13.489239692687988 11.937298774719238 13.483362197875977 12.08154582977295 13.478754043579102 12.225653648376465 L13.478754043579102 12.225653648376465 C13.454172134399414 12.232372283935547 13.429590225219727 12.239089965820312 13.405008316040039 12.245808601379395 L13.405008316040039 12.245808601379395 C13.390471458435059 12.113218307495117 13.375935554504395 11.980627059936523 13.361398696899414 11.848036766052246 L13.361398696899414 11.848036766052246 C13.355653762817383 11.849428176879883 13.349908828735352 11.850818634033203 13.34416389465332 11.85221004486084 L13.34416389465332 11.85221004486084 C13.371467590332031 11.78049087524414 13.40323257446289 11.709554672241211 13.445426940917969 11.645455360412598 L13.445426940917969 11.645455360412598 C13.481800079345703 11.645455360412598 13.518172264099121 11.645454406738281 13.554545402526855 11.645454406738281 L13.554545402526855 11.645454406738281"></path></svg>