<svg xmlns="http://www.w3.org/2000/svg" viewBox="0.0 0.0 24.0 24.0" height="200px" width="200px"><path fill="none" stroke="black" stroke-width=".3" stroke-opacity="1.0"  filling="0" d="M9.245454788208008 11.590909957885742 L9.245454788208008 11.590909957885742 C10.696816444396973 11.885549545288086 12.09935188293457 12.410414695739746 13.551790237426758 12.695862770080566 L13.551790237426758 12.695862770080566 C13.229710578918457 13.79904842376709 11.319945335388184 12.942938804626465 10.367207527160645 13.073617935180664 L10.367207527160645 13.073617935180664 C10.38081169128418 13.07742691040039 13.187455177307129 13.863329887390137 13.199616432189941 13.866735458374023 L13.199616432189941 13.866735458374023 C13.169998168945312 13.966190338134766 13.140379905700684 14.065644264221191 13.110761642456055 14.165099143981934 L13.110761642456055 14.165099143981934 C11.83707046508789 13.942605018615723 10.484216690063477 13.458061218261719 9.245452880859375 13.090880393981934 L9.245452880859375 13.090880393981934 C9.245452880859375 12.872698783874512 9.245452880859375 12.65451717376709 9.245452880859375 12.436335563659668 L9.245452880859375 12.436335563659668 C9.5380220413208 12.439332962036133 10.124563217163086 12.601998329162598 10.324797630310059 12.478498458862305 L10.324797630310059 12.478498458862305 C9.965935707092285 12.38795280456543 9.606229782104492 12.300620079040527 9.2454252243042 12.21815299987793 L9.2454252243042 12.21815299987793 C9.245434761047363 12.009072303771973 9.245445251464844 11.7999906539917 9.245454788208008 11.590909957885742 L9.245454788208008 11.590909957885742"></path></svg>