<svg xmlns="http://www.w3.org/2000/svg" viewBox="0.0 0.0 24.0 24.0" height="200px" width="200px"><path fill="none" stroke="black" stroke-width=".3" stroke-opacity="1.0"  filling="0" d="M9.178009986877441 8.096616744995117 L9.178009986877441 8.096616744995117 C10.974945068359375 8.807151794433594 12.778812408447266 9.486239433288574 14.598054885864258 10.137545585632324 L14.598054885864258 10.137545585632324 C14.583563804626465 10.324736595153809 14.569073677062988 10.511927604675293 14.554582595825195 10.699118614196777 L14.554582595825195 10.699118614196777 C12.978055000305176 10.564990997314453 11.405217170715332 10.401577949523926 9.829391479492188 10.255962371826172 C9.589971542358398 10.233838081359863 8.449684143066406 10.319499015808105 9.035018920898438 9.63368034362793 L9.035018920898438 9.63368034362793 C9.368473052978516 9.669307708740234 9.70192813873291 9.704935073852539 10.035382270812988 9.740562438964844 L10.035382270812988 9.740562438964844 C10.085625648498535 9.258382797241211 9.532902717590332 8.860390663146973 9.115228652954102 8.614280700683594 L9.115228652954102 8.614280700683594 C9.13615608215332 8.441725730895996 9.157082557678223 8.269171714782715 9.178009986877441 8.096616744995117 L9.178009986877441 8.096616744995117"></path>
<path fill="none" stroke="black" stroke-width=".3" stroke-opacity="1.0"  filling="0" d="M11.294672012329102 9.471162796020508 L11.294672012329102 9.471162796020508 C11.820599555969238 9.644498825073242 12.346526145935059 9.817834854125977 12.872453689575195 9.991170883178711 L12.872453689575195 9.991170883178711 C12.332210540771484 10.07254409790039 11.781436920166016 9.921168327331543 11.240208625793457 9.86798095703125 L11.240208625793457 9.86798095703125 C11.258362770080566 9.735708236694336 11.276517868041992 9.603435516357422 11.294672012329102 9.471162796020508 L11.294672012329102 9.471162796020508"></path></svg>