<svg xmlns="http://www.w3.org/2000/svg" viewBox="0.0 0.0 24.0 24.0" height="200px" width="200px"><path fill="none" stroke="black" stroke-width=".3" stroke-opacity="1.0"  filling="0" d="M11.37272834777832 10.963607788085938 L11.37272834777832 10.963607788085938 C11.348535537719727 10.984557151794434 10.345178604125977 11.242928504943848 10.153582572937012 11.311498641967773 L10.153582572937012 11.311498641967773 C10.275927543640137 11.814316749572754 10.398273468017578 12.317134857177734 10.520618438720703 12.819952964782715 L10.520618438720703 12.819952964782715 C11.574056625366211 12.590660095214844 12.717257499694824 12.628567695617676 13.75314712524414 12.927298545837402 L13.75314712524414 12.927298545837402 C13.807955741882324 12.7631254196167 13.862765312194824 12.598953247070312 13.917573928833008 12.43478012084961 L13.917573928833008 12.43478012084961 C13.844365119934082 12.563562393188477 13.77115535736084 12.692343711853027 13.697946548461914 12.821125984191895 L13.697946548461914 12.821125984191895 C12.686396598815918 12.549847602844238 11.580862998962402 12.522892951965332 10.557027816772461 12.743316650390625 L10.557027816772461 12.743316650390625 C10.437800407409668 12.28133487701416 10.318573951721191 11.819353103637695 10.199346542358398 11.35737133026123 L10.199346542358398 11.35737133026123 C11.512616157531738 10.935628890991211 12.532610893249512 10.954520225524902 13.85822868347168 11.3135986328125 L13.85822868347168 11.3135986328125 C13.201152801513672 10.852470397949219 12.067521095275879 10.963622093200684 11.37272834777832 10.963607788085938 L11.37272834777832 10.963607788085938"></path></svg>