<svg xmlns="http://www.w3.org/2000/svg" viewBox="0.0 0.0 24.0 24.0" height="200px" width="200px"><path fill="none" stroke="black" stroke-width=".3" stroke-opacity="1.0"  filling="0" d="M-3.6793079376220703 3.1133460998535156 L-3.6793079376220703 3.1133460998535156 C-1.6336243152618408 3.271375894546509 2.0001566410064697 3.795628309249878 -0.24040794372558594 6.540982246398926 C-0.5545311570167542 6.925876140594482 -0.9605237245559692 7.229108810424805 -1.358480453491211 7.5265092849731445 C-2.5362865924835205 8.406705856323242 -3.9010438919067383 9.116695404052734 -5.339680194854736 9.599374771118164 C-6.778316020965576 10.082054138183594 -8.290830612182617 10.337425231933594 -9.764152526855469 10.308382987976074 C-11.13168716430664 10.281426429748535 -13.259902954101562 10.26358413696289 -14.22218132019043 9.078764915466309 C-15.291337013244629 7.762351989746094 -13.345503807067871 6.136628150939941 -12.389972686767578 5.451600074768066 C-11.092170715332031 4.521194934844971 -9.687719345092773 3.9573967456817627 -8.221111297607422 3.615817070007324 C-6.7545037269592285 3.274237632751465 -5.225738525390625 3.154876708984375 -3.6793079376220703 3.1133460998535156 L-3.6793079376220703 3.1133460998535156"></path>
<path fill="none" stroke="black" stroke-width=".3" stroke-opacity="1.0"  filling="0" d="M-5.3786468505859375 4.487645149230957 L-5.3786468505859375 4.487645149230957 C-5.378391742706299 4.491754055023193 -5.378137111663818 4.495863437652588 -5.37788200378418 4.499972343444824 L-5.37788200378418 4.499972343444824 C-3.157982587814331 4.499332427978516 -2.5813474655151367 5.738943576812744 -4.381034851074219 7.116054534912109 C-5.293359756469727 7.814160346984863 -6.808714389801025 8.288553237915039 -7.9574432373046875 8.342535018920898 C-9.890359878540039 8.433368682861328 -12.122100830078125 7.526071548461914 -9.750545501708984 5.860117435455322 C-8.440309524536133 4.939712047576904 -6.959171295166016 4.592096328735352 -5.3786468505859375 4.487645149230957 L-5.3786468505859375 4.487645149230957"></path></svg>