<svg xmlns="http://www.w3.org/2000/svg" viewBox="0.0 0.0 24.0 24.0" height="200px" width="200px"><path fill="none" stroke="black" stroke-width=".3" stroke-opacity="1.0"  filling="0" d="M6.4752278327941895 2.715651512145996 L6.4752278327941895 2.715651512145996 C6.484682083129883 2.7292070388793945 6.494136810302734 2.742762565612793 6.503591060638428 2.7563180923461914 L6.503591060638428 2.7563180923461914 C5.431535720825195 4.349943161010742 4.520806312561035 5.920716285705566 3.684872627258301 7.650299549102783 L3.684872627258301 7.650299549102783 C5.062803268432617 7.7967305183410645 6.648549556732178 7.599513530731201 8.032063484191895 7.517099380493164 L8.032063484191895 7.517099380493164 C7.824896812438965 8.23925495147705 7.644218921661377 9.05858039855957 7.221927165985107 9.655471801757812 C7.0492167472839355 9.899590492248535 5.2726521492004395 9.756126403808594 5.043082237243652 9.763880729675293 C2.9980525970458984 9.832958221435547 0.9443738460540771 9.890854835510254 -1.0972366333007812 10.021934509277344 L-1.0972366333007812 10.021934509277344 C-0.6936682462692261 8.168810844421387 0.6378461122512817 6.179755210876465 1.643890380859375 4.62578010559082 C1.9117472171783447 4.212038040161133 2.5742709636688232 2.9726598262786865 3.128373146057129 2.885560989379883 C4.209662437438965 2.7155940532684326 5.381108283996582 2.7849526405334473 6.4752278327941895 2.715651512145996 L6.4752278327941895 2.715651512145996"></path></svg>