<svg xmlns="http://www.w3.org/2000/svg" viewBox="0.0 0.0 24.0 24.0" height="200px" width="200px"><path fill="none" stroke="black" stroke-width=".3" stroke-opacity="1.0"  filling="0" d="M17.110063552856445 -4.607017517089844 L17.110063552856445 -4.607017517089844 C17.12449073791504 -4.602636337280273 17.138917922973633 -4.598255157470703 17.153345108032227 -4.593873977661133 L17.153345108032227 -4.593873977661133 C17.15433692932129 -4.583728313446045 17.15532684326172 -4.573582172393799 17.15631866455078 -4.563436508178711 L17.15631866455078 -4.563436508178711 C16.726327896118164 -4.416510581970215 16.291183471679688 -4.283881664276123 15.852328300476074 -4.166044235229492 L15.852328300476074 -4.166044235229492 C15.852328300476074 -4.135225772857666 15.852328300476074 -4.104407787322998 15.852328300476074 -4.073589324951172 L15.852328300476074 -4.073589324951172 C16.672454833984375 -4.160438060760498 17.49517822265625 -4.19547700881958 18.317428588867188 -4.264335632324219 L18.317428588867188 -4.264335632324219 C18.32132911682129 -4.24882698059082 18.325227737426758 -4.233318328857422 18.32912826538086 -4.217809677124023 L18.32912826538086 -4.217809677124023 C17.862749099731445 -3.895815134048462 17.21857261657715 -3.9593751430511475 16.679645538330078 -3.927790641784668 C15.406837463378906 -3.8531956672668457 12.659175872802734 -3.1778910160064697 11.459237098693848 -3.566183090209961 L11.459237098693848 -3.566183090209961 C13.134285926818848 -4.741940975189209 15.207082748413086 -4.379432678222656 17.110063552856445 -4.607017517089844 L17.110063552856445 -4.607017517089844"></path></svg>