<svg xmlns="http://www.w3.org/2000/svg" viewBox="0.0 0.0 24.0 24.0" height="200px" width="200px"><path fill="none" stroke="black" stroke-width=".3" stroke-opacity="1.0"  filling="0" d="M13.826672554016113 11.895326614379883 L13.826672554016113 11.895326614379883 C13.901681900024414 11.895326614379883 13.976691246032715 11.895326614379883 14.051700592041016 11.895326614379883 L14.051700592041016 11.895326614379883 C14.090100288391113 12.042926788330078 14.128500938415527 12.190526008605957 14.166900634765625 12.338126182556152 L14.166900634765625 12.338126182556152 C14.038246154785156 12.320435523986816 13.909590721130371 12.30274486541748 13.780936241149902 12.285054206848145 L13.780936241149902 12.285054206848145 C13.85787296295166 12.203700065612793 13.934808731079102 12.122344970703125 14.01174545288086 12.040990829467773 L14.01174545288086 12.040990829467773 C13.94003677368164 12.044827461242676 13.868327140808105 12.048663139343262 13.796618461608887 12.052499771118164 L13.796618461608887 12.052499771118164 C13.806636810302734 12.00010871887207 13.816654205322266 11.947717666625977 13.826672554016113 11.895326614379883 L13.826672554016113 11.895326614379883"></path>
<path fill="none" stroke="black" stroke-width=".3" stroke-opacity="1.0"  filling="0" d="M14.044445037841797 12.153081893920898 L14.044445037841797 12.153081893920898 C13.98069953918457 12.181645393371582 13.916954040527344 12.210209846496582 13.853208541870117 12.238773345947266 L13.853208541870117 12.238773345947266 C13.916954040527344 12.210209846496582 13.98069953918457 12.181645393371582 14.044445037841797 12.153081893920898 L14.044445037841797 12.153081893920898"></path></svg>