<svg xmlns="http://www.w3.org/2000/svg" viewBox="0.0 0.0 24.0 24.0" height="200px" width="200px"><path fill="none" stroke="black" stroke-width=".3" stroke-opacity="1.0"  filling="0" d="M1.0632247924804688 -0.7907733917236328 L1.0632247924804688 -0.7907733917236328 C1.5094339847564697 -0.788773238658905 1.9564117193222046 -0.8110250234603882 2.401852607727051 -0.7847728729248047 C4.8550262451171875 -0.6401947140693665 4.852510452270508 0.3245992660522461 2.81857967376709 1.2626733779907227 C0.9452730417251587 2.1266655921936035 -1.0682258605957031 2.5667479038238525 -3.1220741271972656 2.7059736251831055 L-3.1220741271972656 2.7059736251831055 C-3.1229467391967773 2.6984732151031494 -3.123819351196289 2.6909730434417725 -3.124691963195801 2.6834726333618164 L-3.124691963195801 2.6834726333618164 C-4.786477088928223 2.8988587856292725 -6.513838291168213 2.9110491275787354 -8.167226791381836 2.616708755493164 C-8.714426040649414 2.5192949771881104 -10.107599258422852 1.9543863534927368 -9.461318969726562 1.1867733001708984 C-8.831418991088867 0.4386165142059326 -7.385709285736084 0.19131924211978912 -6.480518341064453 -0.043636322021484375 C-5.244653701782227 -0.36442312598228455 -3.9930367469787598 -0.5351766347885132 -2.733226776123047 -0.6337487697601318 C-1.4734166860580444 -0.7323209643363953 -0.2054133415222168 -0.7587118148803711 1.0632247924804688 -0.7907733917236328 L1.0632247924804688 -0.7907733917236328"></path>
<path fill="none" stroke="black" stroke-width=".3" stroke-opacity="1.0"  filling="0" d="M-0.6722450256347656 -0.21616268157958984 L-0.6722450256347656 -0.21616268157958984 C1.6291611194610596 -0.1299506574869156 1.3172247409820557 0.8038009405136108 -0.7269001007080078 1.2828540802001953 C-2.430715560913086 1.682153582572937 -4.342859745025635 1.7248066663742065 -6.043745040893555 1.3005552291870117 L-6.043745040893555 1.3005552291870117 C-5.783629894256592 -0.34075605869293213 -1.9850322008132935 -0.16915282607078552 -0.6722450256347656 -0.21616268157958984 L-0.6722450256347656 -0.21616268157958984"></path></svg>