<svg xmlns="http://www.w3.org/2000/svg" viewBox="0.0 0.0 24.0 24.0" height="200px" width="200px"><path fill="none" stroke="black" stroke-width=".3" stroke-opacity="1.0"  filling="0" d="M40.46490478515625 14.974089622497559 L40.46490478515625 14.974089622497559 C40.52228546142578 15.066752433776855 40.519256591796875 15.203371047973633 40.470821380615234 15.301008224487305 L40.470821380615234 15.301008224487305 C40.582054138183594 15.45186996459961 40.6588020324707 15.559371948242188 40.75423812866211 15.733907699584961 L40.75423812866211 15.733907699584961 C40.72604751586914 15.766680717468262 40.69785690307617 15.799453735351562 40.6696662902832 15.832226753234863 L40.6696662902832 15.832226753234863 C40.678321838378906 15.918536186218262 40.686973571777344 16.004844665527344 40.69562911987305 16.091154098510742 L40.69562911987305 16.091154098510742 C40.64990997314453 16.088272094726562 40.604190826416016 16.085390090942383 40.5584716796875 16.082508087158203 L40.5584716796875 16.082508087158203 C40.55731964111328 16.075489044189453 40.5561637878418 16.068471908569336 40.55501174926758 16.061452865600586 L40.55501174926758 16.061452865600586 C40.598976135253906 16.0346622467041 40.64293670654297 16.007871627807617 40.6869010925293 15.981081008911133 L40.6869010925293 15.981081008911133 C40.545738220214844 15.615007400512695 40.3793830871582 15.345117568969727 40.46490478515625 14.974089622497559 L40.46490478515625 14.974089622497559"></path></svg>