<svg xmlns="http://www.w3.org/2000/svg" viewBox="0.0 0.0 24.0 24.0" height="200px" width="200px"><path fill="none" stroke="black" stroke-width=".3" stroke-opacity="1.0"  filling="0" d="M11.228343963623047 11.214845657348633 L11.228343963623047 11.214845657348633 C11.498372077941895 11.492632865905762 10.88037109375 11.988954544067383 11.005690574645996 12.355527877807617 L11.005690574645996 12.355527877807617 C11.047527313232422 12.346055030822754 11.089363098144531 12.33658218383789 11.131199836730957 12.327109336853027 L11.131199836730957 12.327109336853027 C11.06640625 12.482931137084961 10.835091590881348 12.493168830871582 10.675089836120605 12.546818733215332 L10.675089836120605 12.546818733215332 C10.612181663513184 12.18090534210205 10.699385643005371 11.893548011779785 10.516717910766602 11.460545539855957 L10.516717910766602 11.460545539855957 C10.47098159790039 11.468554496765137 10.425244331359863 11.476564407348633 10.379508018493652 11.484573364257812 L10.379508018493652 11.484573364257812 C10.52005386352539 11.275529861450195 11.028103828430176 11.252665519714355 11.228343963623047 11.214845657348633 L11.228343963623047 11.214845657348633"></path>
<path fill="none" stroke="black" stroke-width=".3" stroke-opacity="1.0"  filling="0" d="M10.977327346801758 11.324292182922363 L10.977327346801758 11.324292182922363 C11.436047554016113 11.591116905212402 11.307148933410645 11.75860595703125 10.851818084716797 11.860145568847656 L10.851818084716797 11.860145568847656 C10.807090759277344 11.708090782165527 10.76236343383789 11.556036949157715 10.717636108398438 11.403982162475586 L10.717636108398438 11.403982162475586 C10.804200172424316 11.377418518066406 10.890763282775879 11.350855827331543 10.977327346801758 11.324292182922363 L10.977327346801758 11.324292182922363"></path></svg>