<svg xmlns="http://www.w3.org/2000/svg" viewBox="0.0 0.0 24.0 24.0" height="200px" width="200px"><path fill="none" stroke="black" stroke-width=".3" stroke-opacity="1.0"  filling="0" d="M13.056108474731445 11.855753898620605 L13.056108474731445 11.855753898620605 C13.123190879821777 11.873153686523438 13.190272331237793 11.89055347442627 13.257354736328125 11.907953262329102 L13.257354736328125 11.907953262329102 C13.202309608459473 11.974080085754395 13.147263526916504 12.040207862854004 13.092218399047852 12.106334686279297 L13.092218399047852 12.106334686279297 C13.068390846252441 12.047125816345215 13.044564247131348 11.987916946411133 13.020736694335938 11.92870807647705 L13.020736694335938 11.92870807647705 C13.0346097946167 11.98788070678711 13.048481941223145 12.047053337097168 13.062355041503906 12.106225967407227 L13.062355041503906 12.106225967407227 C13.04069995880127 12.124162673950195 13.01904582977295 12.142098426818848 12.997390747070312 12.160035133361816 L12.997390747070312 12.160035133361816 C13.090692520141602 12.175954818725586 13.197869300842285 12.235740661621094 13.228227615356445 12.325389862060547 L13.228227615356445 12.325389862060547 C13.168920516967773 12.262319564819336 13.06750202178955 12.24771499633789 12.980945587158203 12.245970726013184 L12.980945587158203 12.245970726013184 C12.985081672668457 12.287071228027344 12.989218711853027 12.328170776367188 12.993354797363281 12.369271278381348 L12.993354797363281 12.369271278381348 C13.072955131530762 12.353180885314941 13.152554512023926 12.337090492248535 13.232154846191406 12.321000099182129 L13.232154846191406 12.321000099182129 C12.783188819885254 12.390543937683105 12.81175422668457 12.206930160522461 13.056108474731445 11.855753898620605 L13.056108474731445 11.855753898620605"></path></svg>