<svg xmlns="http://www.w3.org/2000/svg" viewBox="0.0 0.0 24.0 24.0" height="200px" width="200px"><path fill="none" stroke="black" stroke-width=".3" stroke-opacity="1.0"  filling="0" d="M15.414217948913574 11.187926292419434 L15.414217948913574 11.187926292419434 C15.472609519958496 11.187926292419434 15.531000137329102 11.187926292419434 15.589391708374023 11.187926292419434 L15.589391708374023 11.187926292419434 C15.631850242614746 11.564582824707031 15.863515853881836 12.563520431518555 15.54245376586914 12.652771949768066 C15.002747535705566 12.802803039550781 15.033092498779297 11.643909454345703 14.639045715332031 11.538899421691895 L14.639045715332031 11.538899421691895 C14.6429443359375 11.964895248413086 14.786432266235352 12.370308876037598 14.461828231811523 12.644235610961914 L14.461828231811523 12.644235610961914 C14.461828231811523 12.158863067626953 14.461828231811523 11.673490524291992 14.461828231811523 11.188117980957031 L14.461828231811523 11.188117980957031 C14.526864051818848 11.188117980957031 14.591900825500488 11.188117980957031 14.656936645507812 11.188117980957031 L14.656936645507812 11.188117980957031 C14.895955085754395 11.558817863464355 15.13497257232666 11.92951774597168 15.373991012573242 12.300217628479004 L15.373991012573242 12.300217628479004 C15.383927345275879 12.298944473266602 15.3938627243042 12.297672271728516 15.403799057006836 12.296399116516113 L15.403799057006836 12.296399116516113 C15.407272338867188 11.926908493041992 15.410744667053223 11.557416915893555 15.414217948913574 11.187926292419434 L15.414217948913574 11.187926292419434"></path></svg>