<svg xmlns="http://www.w3.org/2000/svg" viewBox="0.0 0.0 24.0 24.0" height="200px" width="200px"><path fill="none" stroke="black" stroke-width=".3" stroke-opacity="1.0"  filling="0" d="M11.933809280395508 11.828182220458984 L11.933809280395508 11.828182220458984 C11.94608211517334 11.832564353942871 11.958353996276855 11.836945533752441 11.970626831054688 11.841327667236328 L11.970626831054688 11.841327667236328 C11.963626861572266 11.962909698486328 11.95662784576416 12.084490776062012 11.949627876281738 12.206072807312012 L11.949627876281738 12.206072807312012 C11.862116813659668 12.172524452209473 11.809856414794922 12.012465476989746 11.86620044708252 11.937572479248047 L11.86620044708252 11.937572479248047 C11.888736724853516 11.901108741760254 11.911273002624512 11.864645957946777 11.933809280395508 11.828182220458984 L11.933809280395508 11.828182220458984"></path>
<path fill="none" stroke="black" stroke-width=".3" stroke-opacity="1.0"  filling="0" d="M11.853464126586914 11.987945556640625 L11.853464126586914 11.987945556640625 C11.862746238708496 11.993145942687988 11.872027397155762 11.998345375061035 11.881309509277344 12.003545761108398 L11.881309509277344 12.003545761108398 C11.881309509277344 12.056591033935547 11.881309509277344 12.109636306762695 11.881309509277344 12.162681579589844 L11.881309509277344 12.162681579589844 C11.837512969970703 12.123177528381348 11.817386627197266 12.034605026245117 11.853464126586914 11.987945556640625 L11.853464126586914 11.987945556640625"></path></svg>