<svg xmlns="http://www.w3.org/2000/svg" viewBox="0.0 0.0 24.0 24.0" height="200px" width="200px"><path fill="none" stroke="black" stroke-width=".3" stroke-opacity="1.0"  filling="0" d="M10.50872802734375 11.196000099182129 L10.50872802734375 11.196000099182129 C10.803372383117676 11.454507827758789 11.017024993896484 12.354488372802734 11.105753898620605 12.641590118408203 L11.105753898620605 12.641590118408203 C10.943766593933105 12.54771900177002 10.793730735778809 12.399495124816895 10.731245994567871 12.22300910949707 L10.731245994567871 12.22300910949707 C10.551200866699219 12.22300910949707 10.37115478515625 12.22300910949707 10.191109657287598 12.22300910949707 L10.191109657287598 12.22300910949707 C10.142327308654785 12.365618705749512 10.093545913696289 12.508227348327637 10.044763565063477 12.650836944580078 L10.044763565063477 12.650836944580078 C9.97728157043457 12.655336380004883 9.90980052947998 12.659836769104004 9.842318534851074 12.664336204528809 L9.842318534851074 12.664336204528809 C10.01065444946289 12.181127548217773 10.178991317749023 11.697917938232422 10.34732723236084 11.214709281921387 L10.34732723236084 11.214709281921387 C10.401127815246582 11.208473205566406 10.454927444458008 11.20223617553711 10.50872802734375 11.196000099182129 L10.50872802734375 11.196000099182129"></path>
<path fill="none" stroke="black" stroke-width=".3" stroke-opacity="1.0"  filling="0" d="M10.451154708862305 11.450754165649414 L10.451154708862305 11.450754165649414 C10.46121883392334 11.4529447555542 10.471282005310059 11.4551362991333 10.481346130371094 11.457326889038086 L10.481346130371094 11.457326889038086 C10.545218467712402 11.654326438903809 10.609091758728027 11.851326942443848 10.672964096069336 12.04832649230957 L10.672964096069336 12.04832649230957 C10.531100273132324 12.04832649230957 10.389237403869629 12.04832649230957 10.247373580932617 12.04832649230957 L10.247373580932617 12.04832649230957 C10.315300941467285 11.849135398864746 10.383227348327637 11.649945259094238 10.451154708862305 11.450754165649414 L10.451154708862305 11.450754165649414"></path></svg>