<svg xmlns="http://www.w3.org/2000/svg" viewBox="0.0 0.0 24.0 24.0" height="200px" width="200px"><path fill="none" stroke="black" stroke-width=".3" stroke-opacity="1.0"  filling="0" d="M13.03636360168457 11.645455360412598 L13.03636360168457 11.645455360412598 C13.090909004211426 11.645455360412598 13.145454406738281 11.645455360412598 13.199999809265137 11.645455360412598 L13.199999809265137 11.645455360412598 C13.199999809265137 11.781818389892578 13.199999809265137 11.918182373046875 13.199999809265137 12.054545402526855 L13.199999809265137 12.054545402526855 C13.174300193786621 11.994508743286133 13.148600578308105 11.934473037719727 13.12290096282959 11.874436378479004 L13.12290096282959 11.874436378479004 C13.112900733947754 11.876663208007812 13.102900505065918 11.878890991210938 13.092900276184082 11.881117820739746 L13.092900276184082 11.881117820739746 C13.092900276184082 11.999117851257324 13.092900276184082 12.117118835449219 13.092900276184082 12.235118865966797 L13.092900276184082 12.235118865966797 C13.082791328430176 12.2396821975708 13.072681427001953 12.244246482849121 13.062572479248047 12.248809814453125 L13.062572479248047 12.248809814453125 C12.945158958435059 12.085289001464844 13.027424812316895 11.846564292907715 13.03636360168457 11.645455360412598 L13.03636360168457 11.645455360412598"></path></svg>