<svg xmlns="http://www.w3.org/2000/svg" viewBox="0.0 0.0 24.0 24.0" height="200px" width="200px"><path fill="none" stroke="black" stroke-width=".3" stroke-opacity="1.0"  filling="0" d="M11.700000762939453 11.945236206054688 L11.700000762939453 11.945236206054688 C11.772727966308594 11.945236206054688 11.845455169677734 11.945236206054688 11.918182373046875 11.945236206054688 L11.918182373046875 11.945236206054688 C11.918182373046875 12.00894546508789 11.918182373046875 12.072654724121094 11.918182373046875 12.136363983154297 L11.918182373046875 12.136363983154297 C11.90000057220459 12.136363983154297 11.881817817687988 12.136363983154297 11.863636016845703 12.136363983154297 L11.863636016845703 12.136363983154297 C11.861472129821777 12.090591430664062 11.859309196472168 12.044817924499512 11.857145309448242 11.999045372009277 L11.857145309448242 11.999045372009277 C11.821435928344727 12.003973007202148 11.785727500915527 12.008899688720703 11.750018119812012 12.013827323913574 L11.750018119812012 12.013827323913574 C11.760608673095703 12.05466365814209 11.771200180053711 12.095499992370605 11.781790733337402 12.136336326599121 L11.781790733337402 12.136336326599121 C11.75452709197998 12.136345863342285 11.727264404296875 12.136354446411133 11.700000762939453 12.136363983154297 L11.700000762939453 12.136363983154297 C11.700000762939453 12.072654724121094 11.700000762939453 12.00894546508789 11.700000762939453 11.945236206054688 L11.700000762939453 11.945236206054688"></path></svg>