<svg xmlns="http://www.w3.org/2000/svg" viewBox="0.0 0.0 24.0 24.0" height="200px" width="200px"><path fill="none" stroke="black" stroke-width=".3" stroke-opacity="1.0"  filling="0" d="M12.542781829833984 12.013608932495117 L12.542781829833984 12.013608932495117 C12.607309341430664 12.090890884399414 12.671835899353027 12.168172836303711 12.736363410949707 12.245454788208008 L12.736363410949707 12.245454788208008 C12.718181610107422 12.245454788208008 12.699999809265137 12.245454788208008 12.681818008422852 12.245454788208008 L12.681818008422852 12.245454788208008 C12.67760944366455 12.180509567260742 12.673399925231934 12.11556339263916 12.669191360473633 12.050618171691895 L12.669191360473633 12.050618171691895 C12.64073657989502 12.064472198486328 12.612281799316406 12.078327178955078 12.583827018737793 12.092181205749512 L12.583827018737793 12.092181205749512 C12.589218139648438 12.143272399902344 12.594608306884766 12.19436264038086 12.59999942779541 12.245453834533691 L12.59999942779541 12.245453834533691 C12.57272720336914 12.245453834533691 12.545454025268555 12.245454788208008 12.518181800842285 12.245454788208008 L12.518181800842285 12.245454788208008 C12.526381492614746 12.168172836303711 12.534582138061523 12.090890884399414 12.542781829833984 12.013608932495117 L12.542781829833984 12.013608932495117"></path></svg>