<svg xmlns="http://www.w3.org/2000/svg" viewBox="0.0 0.0 24.0 24.0" height="200px" width="200px"><path fill="none" stroke="black" stroke-width=".3" stroke-opacity="1.0"  filling="0" d="M14.270509719848633 11.838953971862793 L14.270509719848633 11.838953971862793 C14.277300834655762 11.974453926086426 14.28409194946289 12.109954833984375 14.29088306427002 12.245454788208008 L14.29088306427002 12.245454788208008 C14.209073066711426 12.245454788208008 14.127264022827148 12.245454788208008 14.045454025268555 12.245454788208008 L14.045454025268555 12.245454788208008 C14.063287734985352 12.138677597045898 14.071532249450684 11.975066184997559 14.17641830444336 11.948264122009277 L14.17641830444336 11.948264122009277 C14.169636726379395 11.925146102905273 14.162854194641113 11.902027130126953 14.156072616577148 11.87890911102295 L14.156072616577148 11.87890911102295 C14.194218635559082 11.865591049194336 14.2323637008667 11.852272033691406 14.270509719848633 11.838953971862793 L14.270509719848633 11.838953971862793"></path>
<path fill="none" stroke="black" stroke-width=".3" stroke-opacity="1.0"  filling="0" d="M14.100135803222656 12.027654647827148 L14.100135803222656 12.027654647827148 C14.1404447555542 12.035709381103516 14.180753707885742 12.043763160705566 14.221062660217285 12.051817893981934 L14.221062660217285 12.051817893981934 C14.182971954345703 12.086645126342773 14.144881248474121 12.121472358703613 14.106790542602539 12.156299591064453 L14.106790542602539 12.156299591064453 C14.104572296142578 12.113417625427246 14.102354049682617 12.070536613464355 14.100135803222656 12.027654647827148 L14.100135803222656 12.027654647827148"></path></svg>