<svg xmlns="http://www.w3.org/2000/svg" viewBox="0.0 0.0 24.0 24.0" height="200px" width="200px"><path fill="none" stroke="black" stroke-width=".3" stroke-opacity="1.0"  filling="0" d="M12.524618148803711 11.97463607788086 L12.524618148803711 11.97463607788086 C12.601509094238281 11.975372314453125 13.16895866394043 12.021477699279785 12.852682113647461 12.256909370422363 L12.852682113647461 12.256909370422363 C12.848682403564453 12.182964324951172 12.844681739807129 12.109018325805664 12.840682029724121 12.035073280334473 L12.840682029724121 12.035073280334473 C12.776653289794922 12.077657699584961 12.737360954284668 12.160901069641113 12.729927062988281 12.23743724822998 L12.729927062988281 12.23743724822998 C12.720354080200195 12.237882614135742 12.710782051086426 12.23832893371582 12.70120906829834 12.238774299621582 L12.70120906829834 12.238774299621582 C12.690736770629883 12.171019554138184 12.68026351928711 12.103264808654785 12.669791221618652 12.035510063171387 L12.669791221618652 12.035510063171387 C12.615133285522461 12.094367027282715 12.568058967590332 12.16027545928955 12.524618148803711 12.227836608886719 L12.524618148803711 12.227836608886719 C12.524618148803711 12.143436431884766 12.524618148803711 12.059036254882812 12.524618148803711 11.97463607788086 L12.524618148803711 11.97463607788086"></path></svg>