<svg xmlns="http://www.w3.org/2000/svg" viewBox="0.0 0.0 24.0 24.0" height="200px" width="200px"><path fill="none" stroke="black" stroke-width=".3" stroke-opacity="1.0"  filling="0" d="M12.186299324035645 11.925545692443848 L12.186299324035645 11.925545692443848 C12.302708625793457 11.92556381225586 12.41911792755127 11.925581932067871 12.535527229309082 11.925600051879883 L12.535527229309082 11.925600051879883 C12.531700134277344 12.013045310974121 12.527872085571289 12.10049057006836 12.52404499053955 12.187935829162598 L12.52404499053955 12.187935829162598 C12.491372108459473 12.122663497924805 12.458700180053711 12.057390213012695 12.426027297973633 11.992117881774902 L12.426027297973633 11.992117881774902 C12.41452693939209 12.056772232055664 12.403027534484863 12.121427536010742 12.39152717590332 12.186081886291504 L12.39152717590332 12.186081886291504 C12.36345386505127 12.164863586425781 12.335381507873535 12.143645286560059 12.307308197021484 12.122426986694336 L12.307308197021484 12.122426986694336 C12.311817169189453 12.083971977233887 12.316327095031738 12.045517921447754 12.320836067199707 12.007062911987305 L12.320836067199707 12.007062911987305 C12.308826446533203 12.005271911621094 12.2968168258667 12.003480911254883 12.284807205200195 12.001689910888672 L12.284807205200195 12.001689910888672 C12.277752876281738 12.061817169189453 12.270698547363281 12.12194538116455 12.263644218444824 12.182072639465332 L12.263644218444824 12.182072639465332 C12.2290620803833 12.182072639465332 12.194480895996094 12.182072639465332 12.15989875793457 12.182072639465332 L12.15989875793457 12.182072639465332 C12.168699264526367 12.096563339233398 12.177498817443848 12.011054992675781 12.186299324035645 11.925545692443848 L12.186299324035645 11.925545692443848"></path></svg>