<svg xmlns="http://www.w3.org/2000/svg" viewBox="0.0 0.0 24.0 24.0" height="200px" width="200px"><path fill="none" stroke="black" stroke-width=".3" stroke-opacity="1.0"  filling="0" d="M12.50353717803955 11.863009452819824 L12.50353717803955 11.863009452819824 C12.511455535888672 11.895564079284668 12.519372940063477 11.928117752075195 12.527291297912598 11.960672378540039 L12.527291297912598 11.960672378540039 C12.598361015319824 12.04199504852295 12.681736946105957 12.137453079223633 12.681818008422852 12.245454788208008 L12.681818008422852 12.245454788208008 C12.654545783996582 12.245454788208008 12.627272605895996 12.245454788208008 12.600000381469727 12.245454788208008 L12.600000381469727 12.245454788208008 C12.600000381469727 12.174336433410645 12.600000381469727 12.103218078613281 12.600000381469727 12.032099723815918 L12.600000381469727 12.032099723815918 C12.586318016052246 12.029372215270996 12.572636604309082 12.02664566040039 12.558954238891602 12.023918151855469 L12.558954238891602 12.023918151855469 C12.534164428710938 12.09361457824707 12.52995491027832 12.173096656799316 12.545454978942871 12.245428085327148 L12.545454978942871 12.245428085327148 C12.5090913772583 12.245436668395996 12.472726821899414 12.24544620513916 12.436363220214844 12.245454788208008 L12.436363220214844 12.245454788208008 C12.440933227539062 12.119503021240234 12.444978713989258 11.993488311767578 12.445173263549805 11.867454528808594 L12.445173263549805 11.867454528808594 C12.464628219604492 11.865972518920898 12.484082221984863 11.86449146270752 12.50353717803955 11.863009452819824 L12.50353717803955 11.863009452819824"></path></svg>