<svg xmlns="http://www.w3.org/2000/svg" viewBox="0.0 0.0 24.0 24.0" height="200px" width="200px"><path fill="none" stroke="black" stroke-width=".3" stroke-opacity="1.0"  filling="0" d="M12.474382400512695 11.961763381958008 L12.474382400512695 11.961763381958008 C12.499309539794922 12.044190406799316 12.524237632751465 12.126618385314941 12.549164772033691 12.20904541015625 L12.549164772033691 12.20904541015625 C12.514137268066406 12.211445808410645 12.479109764099121 12.213845252990723 12.444082260131836 12.216245651245117 L12.444082260131836 12.216245651245117 C12.4392728805542 12.147927284240723 12.434464454650879 12.079609870910645 12.429655075073242 12.01129150390625 L12.429655075073242 12.01129150390625 C12.408509254455566 12.078100204467773 12.387364387512207 12.144909858703613 12.366218566894531 12.211718559265137 L12.366218566894531 12.211718559265137 C12.339991569519043 12.211718559265137 12.313763618469238 12.211718559265137 12.28753662109375 12.211718559265137 L12.28753662109375 12.211718559265137 C12.282918930053711 12.134636878967285 12.278300285339355 12.057554244995117 12.273682594299316 11.980472564697266 L12.273682594299316 11.980472564697266 C12.340582847595215 11.974236488342285 12.407482147216797 11.967999458312988 12.474382400512695 11.961763381958008 L12.474382400512695 11.961763381958008"></path></svg>