<svg xmlns="http://www.w3.org/2000/svg" viewBox="0.0 0.0 24.0 24.0" height="200px" width="200px"><path fill="none" stroke="black" stroke-width=".3" stroke-opacity="1.0"  filling="0" d="M11.66822624206543 11.998991012573242 L11.66822624206543 11.998991012573242 C11.745129585266113 12.062045097351074 11.83634090423584 12.145977973937988 11.83639144897461 12.245426177978516 L11.83639144897461 12.245426177978516 C11.809118270874023 12.245426177978516 11.781846046447754 12.245426177978516 11.754572868347168 12.245426177978516 L11.754572868347168 12.245426177978516 C11.74042797088623 12.173290252685547 11.726282119750977 12.101153373718262 11.712137222290039 12.029017448425293 L11.712137222290039 12.029017448425293 C11.699009895324707 12.101153373718262 11.685882568359375 12.173290252685547 11.672755241394043 12.245426177978516 L11.672755241394043 12.245426177978516 C11.64547348022461 12.24543571472168 11.618191719055176 12.245445251464844 11.590909957885742 12.245454788208008 L11.590909957885742 12.245454788208008 C11.586482048034668 12.166672706604004 11.58205509185791 12.087890625 11.577627182006836 12.009108543395996 L11.577627182006836 12.009108543395996 C11.607827186584473 12.005736351013184 11.638026237487793 12.002363204956055 11.66822624206543 11.998991012573242 L11.66822624206543 11.998991012573242"></path></svg>