<svg xmlns="http://www.w3.org/2000/svg" viewBox="0.0 0.0 24.0 24.0" height="200px" width="200px"><path fill="none" stroke="black" stroke-width=".3" stroke-opacity="1.0"  filling="0" d="M10.89760971069336 11.761691093444824 L10.89760971069336 11.761691093444824 C11.003073692321777 11.78226375579834 11.108536720275879 11.802835464477539 11.214000701904297 11.823408126831055 L11.214000701904297 11.823408126831055 C11.189310073852539 11.879644393920898 11.164618492126465 11.935881614685059 11.139927864074707 11.992117881774902 L11.139927864074707 11.992117881774902 C11.169000625610352 12.036526679992676 11.198073387145996 12.080936431884766 11.22714614868164 12.125345230102539 L11.22714614868164 12.125345230102539 C11.157364845275879 12.092144966125488 11.0875825881958 12.058945655822754 11.017801284790039 12.025745391845703 L11.017801284790039 12.025745391845703 C11.009746551513672 12.062127113342285 11.001691818237305 12.098509788513184 10.993637084960938 12.134891510009766 L10.993637084960938 12.134891510009766 C10.967655181884766 12.133600234985352 10.941672325134277 12.132308959960938 10.915690422058105 12.131017684936523 L10.915690422058105 12.131017684936523 C10.909663200378418 12.007908821105957 10.903636932373047 11.88479995727539 10.89760971069336 11.761691093444824 L10.89760971069336 11.761691093444824"></path></svg>