<svg xmlns="http://www.w3.org/2000/svg" viewBox="0.0 0.0 24.0 24.0" height="200px" width="200px"><path fill="none" stroke="black" stroke-width=".3" stroke-opacity="1.0"  filling="0" d="M13.124536514282227 11.752744674682617 L13.124536514282227 11.752744674682617 C13.134881973266602 11.806099891662598 13.145227432250977 11.859454154968262 13.155572891235352 11.912809371948242 L13.155572891235352 11.912809371948242 C13.245392799377441 11.931748390197754 13.287678718566895 12.056523323059082 13.299572944641113 12.147544860839844 L13.299572944641113 12.147544860839844 C13.282608985900879 12.091663360595703 13.265645980834961 12.035780906677246 13.248682022094727 11.979899406433105 L13.248682022094727 11.979899406433105 C13.21623706817627 11.979899406433105 13.183791160583496 11.979899406433105 13.151346206665039 11.979899406433105 L13.151346206665039 11.979899406433105 C13.148073196411133 12.037735939025879 13.144800186157227 12.095572471618652 13.14152717590332 12.153409004211426 L13.14152717590332 12.153409004211426 C13.117109298706055 12.155790328979492 13.092690467834473 12.158172607421875 13.068272590637207 12.160553932189941 L13.068272590637207 12.160553932189941 C13.087027549743652 12.024617195129395 13.105781555175781 11.888681411743164 13.124536514282227 11.752744674682617 L13.124536514282227 11.752744674682617"></path></svg>