<svg xmlns="http://www.w3.org/2000/svg" viewBox="0.0 0.0 24.0 24.0" height="200px" width="200px"><path fill="none" stroke="black" stroke-width=".3" stroke-opacity="1.0"  filling="0" d="M10.508182525634766 11.947636604309082 L10.508182525634766 11.947636604309082 C10.528936386108398 12.037773132324219 10.549691200256348 12.127909660339355 10.57044506072998 12.218046188354492 L10.57044506072998 12.218046188354492 C10.544290542602539 12.21190071105957 10.518136978149414 12.205755233764648 10.491982460021973 12.199609756469727 L10.491982460021973 12.199609756469727 C10.491982460021973 12.135491371154785 10.491981506347656 12.071372985839844 10.491981506347656 12.007254600524902 L10.491981506347656 12.007254600524902 C10.465554237365723 12.07407283782959 10.439126968383789 12.140891075134277 10.412699699401855 12.207709312438965 L10.412699699401855 12.207709312438965 C10.389581680297852 12.21100902557373 10.366462707519531 12.214309692382812 10.343344688415527 12.217609405517578 L10.343344688415527 12.217609405517578 C10.343344688415527 12.135136604309082 10.343344688415527 12.052663803100586 10.343344688415527 11.97019100189209 L10.343344688415527 11.97019100189209 C10.398290634155273 11.96267318725586 10.45323657989502 11.955154418945312 10.508182525634766 11.947636604309082 L10.508182525634766 11.947636604309082"></path></svg>