<svg xmlns="http://www.w3.org/2000/svg" viewBox="0.0 0.0 24.0 24.0" height="200px" width="200px"><path fill="none" stroke="black" stroke-width=".3" stroke-opacity="1.0"  filling="0" d="M11.821009635925293 11.884417533874512 L11.821009635925293 11.884417533874512 C11.825284957885742 12.293296813964844 11.61386489868164 12.274054527282715 11.572827339172363 11.927427291870117 L11.572827339172363 11.927427291870117 C11.523609161376953 11.99686336517334 11.474390983581543 12.066300392150879 11.425172805786133 12.135736465454102 L11.425172805786133 12.135736465454102 C11.469091415405273 12.149864196777344 11.513009071350098 12.16399097442627 11.556927680969238 12.178118705749512 L11.556927680969238 12.178118705749512 C11.48099136352539 12.191754341125488 11.405054092407227 12.205390930175781 11.329117774963379 12.219026565551758 L11.329117774963379 12.219026565551758 C11.378018379211426 12.131681442260742 11.426918029785156 12.044336318969727 11.475818634033203 11.956991195678711 L11.475818634033203 11.956991195678711 C11.442209243774414 11.947763442993164 11.408600807189941 11.938536643981934 11.374991416931152 11.929308891296387 L11.374991416931152 11.929308891296387 C11.375436782836914 11.918481826782227 11.375882148742676 11.90765380859375 11.376327514648438 11.89682674407959 L11.376327514648438 11.89682674407959 C11.511369705200195 11.897130012512207 11.6701078414917 12.038994789123535 11.671772956848145 12.174026489257812 L11.671772956848145 12.174026489257812 C11.721518516540527 12.077489852905273 11.77126407623291 11.98095417022705 11.821009635925293 11.884417533874512 L11.821009635925293 11.884417533874512"></path></svg>