<svg xmlns="http://www.w3.org/2000/svg" viewBox="0.0 0.0 24.0 24.0" height="200px" width="200px"><path fill="none" stroke="black" stroke-width=".3" stroke-opacity="1.0"  filling="0" d="M12.833754539489746 11.924700736999512 L12.833754539489746 11.924700736999512 C12.899227142333984 11.924700736999512 12.964699745178223 11.924700736999512 13.030172348022461 11.924700736999512 L13.030172348022461 11.924700736999512 C13.050836563110352 12.00260066986084 13.071499824523926 12.080500602722168 13.092164039611816 12.158400535583496 L13.092164039611816 12.158400535583496 C13.065291404724121 12.15997314453125 13.03841781616211 12.161545753479004 13.011545181274414 12.163118362426758 L13.011545181274414 12.163118362426758 C12.992127418518066 12.090391159057617 12.972708702087402 12.017663955688477 12.953290939331055 11.944936752319336 L12.953290939331055 11.944936752319336 C12.937127113342285 12.017809867858887 12.920963287353516 12.090682029724121 12.904799461364746 12.163555145263672 L12.904799461364746 12.163555145263672 C12.881117820739746 12.161664009094238 12.857436180114746 12.159772872924805 12.833754539489746 12.157881736755371 L12.833754539489746 12.157881736755371 C12.833754539489746 12.080154418945312 12.833754539489746 12.00242805480957 12.833754539489746 11.924700736999512 L12.833754539489746 11.924700736999512"></path></svg>