<svg xmlns="http://www.w3.org/2000/svg" viewBox="0.0 0.0 24.0 24.0" height="200px" width="200px"><path fill="none" stroke="black" stroke-width=".3" stroke-opacity="1.0"  filling="0" d="M10.893736839294434 11.941144943237305 L10.893736839294434 11.941144943237305 C11.055468559265137 11.941144943237305 11.27813720703125 12.031136512756348 11.310490608215332 12.18959903717041 L11.310490608215332 12.18959903717041 C11.237776756286621 12.153792381286621 11.200376510620117 12.058247566223145 11.191198348999023 11.977716445922852 L11.191198348999023 11.977716445922852 C11.175853729248047 11.977625846862793 11.160508155822754 11.977534294128418 11.145163536071777 11.97744369506836 L11.145163536071777 11.97744369506836 C11.135562896728516 12.054862022399902 11.12596321105957 12.132279396057129 11.116362571716309 12.209697723388672 L11.116362571716309 12.209697723388672 C11.062236785888672 12.141815185546875 11.03515911102295 12.054051399230957 11.015890121459961 11.96939754486084 L11.015890121459961 11.96939754486084 C11.003917694091797 12.046743392944336 10.991945266723633 12.124090194702148 10.979972839355469 12.201436042785645 L10.979972839355469 12.201436042785645 C10.951227188110352 12.207381248474121 10.92248249053955 12.213327407836914 10.893736839294434 12.21927261352539 L10.893736839294434 12.21927261352539 C10.893736839294434 12.12656307220459 10.893736839294434 12.033854484558105 10.893736839294434 11.941144943237305 L10.893736839294434 11.941144943237305"></path></svg>