<svg xmlns="http://www.w3.org/2000/svg" viewBox="0.0 0.0 24.0 24.0" height="200px" width="200px"><path fill="none" stroke="black" stroke-width=".3" stroke-opacity="1.0"  filling="0" d="M11.869009017944336 11.980337142944336 L11.869009017944336 11.980337142944336 C11.937854766845703 11.980337142944336 12.006699562072754 11.980337142944336 12.075545310974121 11.980337142944336 L12.075545310974121 11.980337142944336 C12.080336570739746 12.059563636779785 12.085126876831055 12.13879108428955 12.08991813659668 12.218017578125 L12.08991813659668 12.218017578125 C12.065009117126465 12.216854095458984 12.04010009765625 12.215690612792969 12.015191078186035 12.214527130126953 L12.015191078186035 12.214527130126953 C11.98789119720459 12.146236419677734 11.960591316223145 12.0779447555542 11.9332914352417 12.00965404510498 L11.9332914352417 12.00965404510498 C11.9332914352417 12.077653884887695 11.9332914352417 12.145654678344727 11.9332914352417 12.213654518127441 L11.9332914352417 12.213654518127441 C11.9077730178833 12.213654518127441 11.882254600524902 12.213654518127441 11.856736183166504 12.213654518127441 L11.856736183166504 12.213654518127441 C11.860827445983887 12.135882377624512 11.864917755126953 12.058109283447266 11.869009017944336 11.980337142944336 L11.869009017944336 11.980337142944336"></path></svg>