<svg xmlns="http://www.w3.org/2000/svg" viewBox="0.0 0.0 24.0 24.0" height="200px" width="200px"><path fill="none" stroke="black" stroke-width=".3" stroke-opacity="1.0"  filling="0" d="M12.253199577331543 11.950908660888672 L12.253199577331543 11.950908660888672 C12.383472442626953 11.95608139038086 12.513745307922363 11.961254119873047 12.644018173217773 11.966426849365234 L12.644018173217773 11.966426849365234 C12.62685489654541 12.039827346801758 12.60969066619873 12.113226890563965 12.592527389526367 12.186627388000488 L12.592527389526367 12.186627388000488 C12.566808700561523 12.113964080810547 12.541090965270996 12.041299819946289 12.515372276306152 11.968636512756348 L12.515372276306152 11.968636512756348 C12.4830904006958 12.044390678405762 12.45080852508545 12.120145797729492 12.418526649475098 12.195899963378906 L12.418526649475098 12.195899963378906 C12.412826538085938 12.124781608581543 12.407126426696777 12.053664207458496 12.401426315307617 11.982545852661133 L12.401426315307617 11.982545852661133 C12.333819389343262 12.03762435913086 12.29065227508545 12.119359016418457 12.253199577331543 12.19810962677002 L12.253199577331543 12.19810962677002 C12.253199577331543 12.11570930480957 12.253199577331543 12.033308982849121 12.253199577331543 11.950908660888672 L12.253199577331543 11.950908660888672"></path></svg>