<svg xmlns="http://www.w3.org/2000/svg" viewBox="0.0 0.0 24.0 24.0" height="200px" width="200px"><path fill="none" stroke="black" stroke-width=".3" stroke-opacity="1.0"  filling="0" d="M11.416364669799805 11.977962493896484 L11.416364669799805 11.977962493896484 C11.475746154785156 11.99229907989502 11.535128593444824 12.006635665893555 11.594510078430176 12.02097225189209 L11.594510078430176 12.02097225189209 C11.573873519897461 12.045372009277344 11.553237915039062 12.069771766662598 11.532601356506348 12.094171524047852 L11.532601356506348 12.094171524047852 C11.517383575439453 12.058235168457031 11.502164840698242 12.022299766540527 11.486947059631348 11.986363410949707 L11.486947059631348 11.986363410949707 C11.444472312927246 12.042675018310547 11.524762153625488 12.133216857910156 11.58084774017334 12.175990104675293 L11.58084774017334 12.175990104675293 C11.579283714294434 12.186644554138184 11.577718734741211 12.19729995727539 11.576154708862305 12.207954406738281 L11.576154708862305 12.207954406738281 C11.52699089050293 12.212409019470215 11.477828025817871 12.216863632202148 11.428664207458496 12.221318244934082 L11.428664207458496 12.221318244934082 C11.424564361572266 12.140199661254883 11.420464515686035 12.059081077575684 11.416364669799805 11.977962493896484 L11.416364669799805 11.977962493896484"></path></svg>