<svg xmlns="http://www.w3.org/2000/svg" viewBox="0.0 0.0 24.0 24.0" height="200px" width="200px"><path fill="none" stroke="black" stroke-width=".3" stroke-opacity="1.0"  filling="0" d="M12.662564277648926 11.957427024841309 L12.662564277648926 11.957427024841309 C12.617782592773438 12.023045539855957 12.572999954223633 12.088663101196289 12.528218269348145 12.154281616210938 L12.528218269348145 12.154281616210938 C12.541372299194336 12.173354148864746 12.554527282714844 12.192427635192871 12.567681312561035 12.21150016784668 L12.567681312561035 12.21150016784668 C12.518827438354492 12.21150016784668 12.469972610473633 12.21150016784668 12.42111873626709 12.21150016784668 L12.42111873626709 12.21150016784668 C12.464837074279785 12.143854141235352 12.508554458618164 12.07620906829834 12.55227279663086 12.008563041687012 L12.55227279663086 12.008563041687012 C12.514163970947266 12.008563041687012 12.476055145263672 12.008563041687012 12.437946319580078 12.008563041687012 L12.437946319580078 12.008563041687012 C12.437973022460938 12.000381469726562 12.438000679016113 11.992199897766113 12.438027381896973 11.984018325805664 L12.438027381896973 11.984018325805664 C12.512872695922852 11.975154876708984 12.587718963623047 11.966290473937988 12.662564277648926 11.957427024841309 L12.662564277648926 11.957427024841309"></path></svg>