<svg xmlns="http://www.w3.org/2000/svg" viewBox="0.0 0.0 24.0 24.0" height="200px" width="200px"><path fill="none" stroke="black" stroke-width=".3" stroke-opacity="1.0"  filling="0" d="M12.570245742797852 11.780645370483398 L12.570245742797852 11.780645370483398 C12.590412139892578 11.904518127441406 12.613354682922363 12.028371810913086 12.647455215454102 12.149153709411621 L12.647455215454102 12.149153709411621 C12.600872993469238 12.091090202331543 12.554291725158691 12.033027648925781 12.507709503173828 11.974964141845703 L12.507709503173828 11.974964141845703 C12.479891777038574 11.984545707702637 12.452073097229004 11.99412727355957 12.42425537109375 12.003708839416504 L12.42425537109375 12.003708839416504 C12.409409523010254 12.059563636779785 12.394564628601074 12.11541748046875 12.379718780517578 12.171272277832031 L12.379718780517578 12.171272277832031 C12.354537010192871 12.102272987365723 12.329354286193848 12.033272743225098 12.30417251586914 11.964273452758789 L12.30417251586914 11.964273452758789 C12.368945121765137 11.938873291015625 12.43371868133545 11.913473129272461 12.498491287231445 11.888072967529297 L12.498491287231445 11.888072967529297 C12.522409439086914 11.852263450622559 12.546327590942383 11.816454887390137 12.570245742797852 11.780645370483398 L12.570245742797852 11.780645370483398"></path></svg>