<svg xmlns="http://www.w3.org/2000/svg" viewBox="0.0 0.0 24.0 24.0" height="200px" width="200px"><path fill="none" stroke="black" stroke-width=".3" stroke-opacity="1.0"  filling="0" d="M12.562172889709473 11.96841812133789 L12.562172889709473 11.96841812133789 C12.569318771362305 11.972317695617676 12.57646369934082 11.976218223571777 12.583609580993652 11.980117797851562 L12.583609580993652 11.980117797851562 C12.552709579467773 12.068563461303711 12.521810531616211 12.15700912475586 12.490910530090332 12.245454788208008 L12.490910530090332 12.245454788208008 C12.481819152832031 12.245454788208008 12.47272777557373 12.245454788208008 12.46363639831543 12.245454788208008 L12.46363639831543 12.245454788208008 C12.435955047607422 12.199455261230469 12.408272743225098 12.153454780578613 12.38059139251709 12.107455253601074 L12.38443660736084 12.11135482788086 C12.38443660736084 12.06717300415039 12.38443660736084 12.022992134094238 12.38443660736084 11.97881031036377 L12.38443660736084 11.97881031036377 C12.391063690185547 11.976419448852539 12.397690773010254 11.974028587341309 12.404317855834961 11.971637725830078 L12.404317855834961 11.971637725830078 C12.431963920593262 12.011082649230957 12.459609031677246 12.050527572631836 12.487255096435547 12.089972496032715 L12.487255096435547 12.089972496032715 C12.512228012084961 12.049454689025879 12.537199974060059 12.008935928344727 12.562172889709473 11.96841812133789 L12.562172889709473 11.96841812133789"></path></svg>