<svg xmlns="http://www.w3.org/2000/svg" viewBox="0.0 0.0 24.0 24.0" height="200px" width="200px"><path fill="none" stroke="black" stroke-width=".3" stroke-opacity="1.0"  filling="0" d="M12.2313814163208 11.949109077453613 L12.2313814163208 11.949109077453613 C12.285118103027344 11.949109077453613 12.33885383605957 11.949109077453613 12.392590522766113 11.949109077453613 L12.392590522766113 11.949109077453613 C12.419772148132324 11.989763259887695 12.446953773498535 12.030418395996094 12.474135398864746 12.071072578430176 L12.474135398864746 12.071072578430176 C12.444917678833008 12.112945556640625 12.41569995880127 12.154818534851074 12.386482238769531 12.196691513061523 L12.386482238769531 12.196691513061523 C12.375473022460938 12.193663597106934 12.364463806152344 12.19063663482666 12.35345458984375 12.18760871887207 L12.35345458984375 12.18760871887207 C12.335172653198242 12.117108345031738 12.316890716552734 12.046608924865723 12.298608779907227 11.97610855102539 L12.298608779907227 11.97610855102539 C12.30910873413086 12.053590774536133 12.319608688354492 12.131072998046875 12.330108642578125 12.208555221557617 L12.330108642578125 12.208555221557617 C12.278290748596191 12.158882141113281 12.226471900939941 12.109209060668945 12.174654006958008 12.05953598022461 L12.174654006958008 12.05953598022461 C12.193563461303711 12.022727012634277 12.212471961975098 11.985918045043945 12.2313814163208 11.949109077453613 L12.2313814163208 11.949109077453613"></path></svg>