<svg xmlns="http://www.w3.org/2000/svg" viewBox="0.0 0.0 24.0 24.0" height="200px" width="200px"><path fill="none" stroke="black" stroke-width=".3" stroke-opacity="1.0"  filling="0" d="M13.12000846862793 11.962554931640625 L13.12000846862793 11.962554931640625 C13.126800537109375 12.05579662322998 13.139777183532715 12.149965286254883 13.169398307800293 12.23863697052002 L13.169398307800293 12.23863697052002 C13.140417098999023 12.231372833251953 13.111434936523438 12.224109649658203 13.082453727722168 12.216845512390137 L13.082453727722168 12.216845512390137 C13.069026947021484 12.144618034362793 13.0556001663208 12.072391510009766 13.042173385620117 12.000164031982422 L13.042173385620117 12.000164031982422 C13.027091026306152 12.070618629455566 13.012009620666504 12.141073226928711 12.996927261352539 12.211527824401855 L12.996927261352539 12.211527824401855 C12.972309112548828 12.211527824401855 12.947690963745117 12.211527824401855 12.923072814941406 12.211527824401855 L12.923072814941406 12.211527824401855 C12.923054695129395 12.140954971313477 12.923036575317383 12.070382118225098 12.923018455505371 11.999809265136719 L12.923018455505371 11.999809265136719 C12.976309776306152 11.959486961364746 13.053415298461914 11.9681396484375 13.12000846862793 11.962554931640625 L13.12000846862793 11.962554931640625"></path></svg>