<svg xmlns="http://www.w3.org/2000/svg" viewBox="0.0 0.0 24.0 24.0" height="200px" width="200px"><path fill="none" stroke="black" stroke-width=".3" stroke-opacity="1.0"  filling="0" d="M12.549081802368164 12.001309394836426 L12.549081802368164 12.001309394836426 C12.575154304504395 12.082691192626953 12.601227760314941 12.16407299041748 12.627300262451172 12.245454788208008 L12.627300262451172 12.245454788208008 C12.609118461608887 12.245454788208008 12.590936660766602 12.245454788208008 12.572754859924316 12.245454788208008 L12.572754859924316 12.245454788208008 C12.536391258239746 12.18269157409668 12.500027656555176 12.119928359985352 12.463664054870605 12.057165145874023 L12.463664054870605 12.057165145874023 C12.463664054870605 12.119928359985352 12.463664054870605 12.18269157409668 12.463664054870605 12.245454788208008 L12.463664054870605 12.245454788208008 C12.445472717285156 12.245454788208008 12.427281379699707 12.245454788208008 12.409090042114258 12.245454788208008 L12.409090042114258 12.245454788208008 C12.409090042114258 12.174627304077148 12.409090042114258 12.103799819946289 12.409090042114258 12.03297233581543 L12.409090042114258 12.03297233581543 C12.456730842590332 12.028580665588379 12.504950523376465 12.019783973693848 12.549081802368164 12.001309394836426 L12.549081802368164 12.001309394836426"></path></svg>