<svg xmlns="http://www.w3.org/2000/svg" viewBox="0.0 0.0 24.0 24.0" height="200px" width="200px"><path fill="none" stroke="black" stroke-width=".3" stroke-opacity="1.0"  filling="0" d="M12.874390602111816 12.003409385681152 L12.874390602111816 12.003409385681152 C12.94006633758545 12.00481128692627 13.012596130371094 12.01295280456543 13.065354347229004 12.052090644836426 L13.065354347229004 12.052090644836426 C13.015636444091797 12.039236068725586 12.965917587280273 12.026381492614746 12.916199684143066 12.013526916503906 L12.916199684143066 12.013526916503906 C12.90882682800293 12.061418533325195 12.901453971862793 12.109309196472168 12.894081115722656 12.157200813293457 L12.894081115722656 12.157200813293457 C12.940217971801758 12.16450023651123 12.986353874206543 12.17180061340332 13.032490730285645 12.179100036621094 L13.032490730285645 12.179100036621094 C13.043627738952637 12.190427780151367 13.054763793945312 12.201754570007324 13.065900802612305 12.213082313537598 L13.065900802612305 12.213082313537598 C13.02161693572998 12.230132102966309 12.974725723266602 12.245454788208008 12.92727279663086 12.245454788208008 L12.92727279663086 12.245454788208008 C12.875452041625977 12.18115234375 12.847955703735352 12.081649780273438 12.874390602111816 12.003409385681152 L12.874390602111816 12.003409385681152"></path></svg>