<svg xmlns="http://www.w3.org/2000/svg" viewBox="0.0 0.0 24.0 24.0" height="200px" width="200px"><path fill="none" stroke="black" stroke-width=".3" stroke-opacity="1.0"  filling="0" d="M12.618217468261719 11.917936325073242 L12.618217468261719 11.917936325073242 C12.676786422729492 11.918149948120117 12.735422134399414 11.92107105255127 12.79369068145752 11.926990509033203 L12.79369068145752 11.926990509033203 C12.77250862121582 11.982763290405273 12.751327514648438 12.038536071777344 12.730145454406738 12.094308853149414 L12.730145454406738 12.094308853149414 C12.71534538269043 12.047281265258789 12.700546264648438 12.00025463104248 12.685746192932129 11.953227043151855 L12.685746192932129 11.953227043151855 C12.676237106323242 11.952727317810059 12.666728019714355 11.952227592468262 12.657218933105469 11.951727867126465 L12.657218933105469 11.951727867126465 C12.644719123840332 12.006409645080566 12.632218360900879 12.061091423034668 12.619718551635742 12.11577320098877 L12.619718551635742 12.11577320098877 C12.62104606628418 12.114645957946777 12.6223726272583 12.113517761230469 12.623700141906738 12.112390518188477 L12.623700141906738 12.112390518188477 C12.621872901916504 12.047572135925293 12.620044708251953 11.982754707336426 12.618217468261719 11.917936325073242 L12.618217468261719 11.917936325073242"></path></svg>