<svg xmlns="http://www.w3.org/2000/svg" viewBox="0.0 0.0 24.0 24.0" height="200px" width="200px"><path fill="none" stroke="black" stroke-width=".3" stroke-opacity="1.0"  filling="0" d="M11.076627731323242 11.987372398376465 L11.076627731323242 11.987372398376465 C11.150546073913574 11.987372398376465 11.22446346282959 11.987372398376465 11.298381805419922 11.987372398376465 L11.298381805419922 11.987372398376465 C11.246399879455566 12.054718017578125 11.194418907165527 12.122062683105469 11.142436981201172 12.189408302307129 L11.142436981201172 12.189408302307129 C11.191927909851074 12.186371803283691 11.241418838500977 12.18333625793457 11.290909767150879 12.180299758911133 L11.290909767150879 12.180299758911133 C11.290909767150879 12.202017784118652 11.290909767150879 12.223735809326172 11.290909767150879 12.245453834533691 L11.290909767150879 12.245453834533691 C11.220413208007812 12.245454788208008 11.148401260375977 12.230856895446777 11.083800315856934 12.202635765075684 L11.083800315856934 12.202635765075684 C11.11865520477295 12.139426231384277 11.153509140014648 12.076217651367188 11.188364028930664 12.013008117675781 L11.188364028930664 12.013008117675781 C11.151318550109863 12.013008117675781 11.114273071289062 12.013008117675781 11.077227592468262 12.013008117675781 L11.077227592468262 12.013008117675781 C11.077027320861816 12.004463195800781 11.076828002929688 11.995917320251465 11.076627731323242 11.987372398376465 L11.076627731323242 11.987372398376465"></path></svg>