<svg xmlns="http://www.w3.org/2000/svg" viewBox="0.0 0.0 24.0 24.0" height="200px" width="200px"><path fill="none" stroke="black" stroke-width=".3" stroke-opacity="1.0"  filling="0" d="M11.598052978515625 11.897153854370117 L11.598052978515625 11.897153854370117 C11.639944076538086 11.961362838745117 11.681836128234863 12.025572776794434 11.723727226257324 12.089781761169434 L11.723727226257324 12.089781761169434 C11.707581520080566 12.118045806884766 11.691435813903809 12.146308898925781 11.67529010772705 12.174572944641113 L11.67529010772705 12.174572944641113 C11.650035858154297 12.135900497436523 11.624781608581543 12.097227096557617 11.599527359008789 12.058554649353027 L11.599527359008789 12.058554649353027 C11.574045181274414 12.094200134277344 11.548563003540039 12.12984561920166 11.523080825805664 12.165491104125977 L11.523080825805664 12.165491104125977 C11.488299369812012 12.091791152954102 11.453516960144043 12.018091201782227 11.41873550415039 11.944391250610352 L11.41873550415039 11.944391250610352 C11.462135314941406 11.985464096069336 11.505536079406738 12.026535987854004 11.548935890197754 12.067608833312988 L11.548935890197754 12.067608833312988 C11.565308570861816 12.010790824890137 11.581680297851562 11.953971862792969 11.598052978515625 11.897153854370117 L11.598052978515625 11.897153854370117"></path></svg>