<svg xmlns="http://www.w3.org/2000/svg" viewBox="0.0 0.0 24.0 24.0" height="200px" width="200px"><path fill="none" stroke="black" stroke-width=".3" stroke-opacity="1.0"  filling="0" d="M10.949536323547363 11.97788143157959 L10.949536323547363 11.97788143157959 C11.008241653442383 12.048823356628418 11.016559600830078 12.153388023376465 11.018209457397461 12.245454788208008 L11.018209457397461 12.245454788208008 C10.990936279296875 12.245454788208008 10.963664054870605 12.245454788208008 10.93639087677002 12.245454788208008 L10.93639087677002 12.245454788208008 C10.927281379699707 12.170918464660645 10.918172836303711 12.096382141113281 10.909063339233398 12.021845817565918 L10.909063339233398 12.021845817565918 C10.890899658203125 12.096382141113281 10.872736930847168 12.170918464660645 10.854573249816895 12.245454788208008 L10.854573249816895 12.245454788208008 C10.836381912231445 12.245454788208008 10.818191528320312 12.245454788208008 10.800000190734863 12.245454788208008 L10.800000190734863 12.245454788208008 C10.800000190734863 12.160318374633789 10.800000190734863 12.07518196105957 10.800000190734863 11.990045547485352 L10.800000190734863 11.990045547485352 C10.849845886230469 11.985990524291992 10.899690628051758 11.98193645477295 10.949536323547363 11.97788143157959 L10.949536323547363 11.97788143157959"></path></svg>