<svg xmlns="http://www.w3.org/2000/svg" viewBox="0.0 0.0 24.0 24.0" height="200px" width="200px"><path fill="none" stroke="black" stroke-width=".3" stroke-opacity="1.0"  filling="0" d="M15.845455169677734 11.809063911437988 L15.845455169677734 11.809063911437988 C15.872727394104004 11.809073448181152 15.90000057220459 11.80908203125 15.92727279663086 11.809091567993164 L15.92727279663086 11.809091567993164 C15.919290542602539 11.840309143066406 15.911309242248535 11.871527671813965 15.903326988220215 11.902745246887207 L15.903326988220215 11.902745246887207 C15.971933364868164 11.957958221435547 15.972821235656738 12.083847999572754 15.937853813171387 12.164671897888184 L15.937853813171387 12.164671897888184 C15.943799018859863 12.101826667785645 15.949745178222656 12.038981437683105 15.955690383911133 11.976136207580566 L15.955690383911133 11.976136207580566 C15.933117866516113 12.050199508666992 15.910544395446777 12.124263763427734 15.887971878051758 12.19832706451416 L15.887971878051758 12.19832706451416 C15.849345207214355 12.18884563446045 15.810717582702637 12.179363250732422 15.772090911865234 12.169881820678711 L15.772090911865234 12.169881820678711 C15.79654598236084 12.049609184265137 15.821000099182129 11.929336547851562 15.845455169677734 11.809063911437988 L15.845455169677734 11.809063911437988"></path></svg>