<svg xmlns="http://www.w3.org/2000/svg" viewBox="0.0 0.0 24.0 24.0" height="200px" width="200px"><path fill="none" stroke="black" stroke-width=".3" stroke-opacity="1.0"  filling="0" d="M11.727272987365723 11.809091567993164 L11.727272987365723 11.809091567993164 C11.736363410949707 11.809091567993164 11.745454788208008 11.809091567993164 11.754545211791992 11.809091567993164 L11.754545211791992 11.809091567993164 C11.80933666229248 11.885272979736328 11.864127159118652 11.961455345153809 11.91891860961914 12.037636756896973 L11.91891860961914 12.037636756896973 C11.937691688537598 11.973763465881348 11.956463813781738 11.909891128540039 11.975236892700195 11.846017837524414 L11.975236892700195 11.846017837524414 C12.007518768310547 11.842690467834473 12.039800643920898 11.839364051818848 12.07208251953125 11.836036682128906 L12.07208251953125 11.836036682128906 C12.029882431030273 11.967145919799805 11.987682342529297 12.098254203796387 11.94548225402832 12.229363441467285 L11.94548225402832 12.229363441467285 C11.885391235351562 12.140645027160645 11.825300216674805 12.05192756652832 11.765209197998047 11.96320915222168 L11.765209197998047 11.96320915222168 C11.743473052978516 12.057291030883789 11.721736907958984 12.151372909545898 11.700000762939453 12.245454788208008 L11.700000762939453 12.245454788208008 C11.690909385681152 12.245454788208008 11.681818962097168 12.245454788208008 11.672727584838867 12.245454788208008 L11.672727584838867 12.245454788208008 C11.614352226257324 12.090758323669434 11.73200798034668 11.972373008728027 11.727272987365723 11.809091567993164 L11.727272987365723 11.809091567993164"></path></svg>