<svg xmlns="http://www.w3.org/2000/svg" viewBox="0.0 0.0 24.0 24.0" height="200px" width="200px"><path fill="none" stroke="black" stroke-width=".3" stroke-opacity="1.0"  filling="0" d="M9.478936195373535 11.886163711547852 L9.478936195373535 11.886163711547852 C9.516845703125 11.969218254089355 9.554754257202148 12.052271842956543 9.592663764953613 12.135326385498047 L9.592663764953613 12.135326385498047 C9.604654312133789 12.135444641113281 9.616645812988281 12.135562896728516 9.628636360168457 12.13568115234375 L9.628636360168457 12.13568115234375 C9.663517951965332 12.05530834197998 9.698400497436523 11.974935531616211 9.733282089233398 11.894562721252441 L9.733282089233398 11.894562721252441 C9.697955131530762 12.011517524719238 9.662627220153809 12.128471374511719 9.627300262451172 12.245426177978516 L9.627300262451172 12.245426177978516 C9.600018501281738 12.24543571472168 9.572735786437988 12.245445251464844 9.545454025268555 12.245454788208008 L9.545454025268555 12.245454788208008 C9.500199317932129 12.137463569641113 9.45494556427002 12.029473304748535 9.409690856933594 11.92148208618164 L9.409690856933594 11.92148208618164 C9.432772636413574 11.909708976745605 9.455854415893555 11.897936820983887 9.478936195373535 11.886163711547852 L9.478936195373535 11.886163711547852"></path></svg>