<svg xmlns="http://www.w3.org/2000/svg" viewBox="0.0 0.0 24.0 24.0" height="200px" width="200px"><path fill="none" stroke="black" stroke-width=".3" stroke-opacity="1.0"  filling="0" d="M12.166309356689453 11.967436790466309 L12.166309356689453 11.967436790466309 C12.174500465393066 12.060100555419922 12.18269157409668 12.152763366699219 12.190882682800293 12.245427131652832 L12.190882682800293 12.245427131652832 C12.172700881958008 12.245427131652832 12.154519081115723 12.245427131652832 12.136337280273438 12.245427131652832 L12.136337280273438 12.245427131652832 C12.149843215942383 12.174464225769043 12.109530448913574 12.091572761535645 12.054518699645996 12.044754981994629 L12.054518699645996 12.044754981994629 C12.054518699645996 12.111645698547363 12.054518699645996 12.178536415100098 12.054518699645996 12.245427131652832 L12.054518699645996 12.245427131652832 C12.036345481872559 12.245436668395996 12.018173217773438 12.245445251464844 12.0 12.245454788208008 L12.0 12.245454788208008 C12.000699043273926 12.165719032287598 11.99991512298584 12.085859298706055 11.994573593139648 12.00629997253418 L11.994573593139648 12.00629997253418 C12.05181884765625 11.993345260620117 12.109064102172852 11.980391502380371 12.166309356689453 11.967436790466309 L12.166309356689453 11.967436790466309"></path></svg>