<svg xmlns="http://www.w3.org/2000/svg" viewBox="0.0 0.0 24.0 24.0" height="200px" width="200px"><path fill="none" stroke="black" stroke-width=".3" stroke-opacity="1.0"  filling="0" d="M12.383563995361328 11.974226951599121 L12.383563995361328 11.974226951599121 C12.427027702331543 11.984245300292969 12.470490455627441 11.9942626953125 12.513954162597656 12.004281044006348 L12.513954162597656 12.004281044006348 C12.494654655456543 12.04311752319336 12.47535514831543 12.081954002380371 12.456055641174316 12.120790481567383 L12.456055641174316 12.120790481567383 C12.436037063598633 12.079236030578613 12.416019439697266 12.037680625915527 12.396000862121582 11.996126174926758 L12.396000862121582 11.996126174926758 C12.383100509643555 11.999862670898438 12.370200157165527 12.003599166870117 12.3572998046875 12.007335662841797 L12.3572998046875 12.007335662841797 C12.36488151550293 12.056999206542969 12.372464179992676 12.106663703918457 12.380045890808105 12.156327247619629 L12.380045890808105 12.156327247619629 C12.42607307434082 12.186036109924316 12.472101211547852 12.21574592590332 12.518128395080566 12.245454788208008 L12.518128395080566 12.245454788208008 C12.445418357849121 12.245454788208008 12.372709274291992 12.245454788208008 12.299999237060547 12.245454788208008 L12.299999237060547 12.245454788208008 C12.300145149230957 12.15085220336914 12.3208589553833 12.045063018798828 12.383563995361328 11.974226951599121 L12.383563995361328 11.974226951599121"></path></svg>