<svg xmlns="http://www.w3.org/2000/svg" viewBox="0.0 0.0 24.0 24.0" height="200px" width="200px"><path fill="none" stroke="black" stroke-width=".3" stroke-opacity="1.0"  filling="0" d="M11.522562980651855 12.005071640014648 L11.522562980651855 12.005071640014648 C11.582254409790039 12.052572250366211 11.641944885253906 12.100071907043457 11.70163631439209 12.14757251739502 L11.70163631439209 12.14757251739502 C11.720927238464355 12.108963012695312 11.740218162536621 12.070353507995605 11.759509086608887 12.031744003295898 L11.759509086608887 12.031744003295898 C11.768600463867188 12.032098770141602 11.777690887451172 12.032453536987305 11.786782264709473 12.032808303833008 L11.786782264709473 12.032808303833008 C11.790409088134766 12.075599670410156 11.794036865234375 12.118390083312988 11.797663688659668 12.161181449890137 L11.797663688659668 12.161181449890137 C11.845682144165039 12.171881675720215 11.893699645996094 12.182580947875977 11.941718101501465 12.193281173706055 L11.941718101501465 12.193281173706055 C11.933873176574707 12.210672378540039 11.926027297973633 12.228062629699707 11.918182373046875 12.245453834533691 L11.918182373046875 12.245453834533691 C11.790909767150879 12.245453834533691 11.663636207580566 12.245454788208008 11.53636360168457 12.245454788208008 L11.53636360168457 12.245454788208008 C11.526708602905273 12.224200248718262 11.517054557800293 12.2029447555542 11.507399559020996 12.181690216064453 L11.507399559020996 12.181690216064453 C11.554181098937988 12.193526268005371 11.600963592529297 12.205363273620605 11.647745132446289 12.217199325561523 L11.647745132446289 12.217199325561523 C11.60601806640625 12.146490097045898 11.564290046691895 12.075780868530273 11.522562980651855 12.005071640014648 L11.522562980651855 12.005071640014648"></path></svg>