<svg xmlns="http://www.w3.org/2000/svg" viewBox="0.0 0.0 24.0 24.0" height="200px" width="200px"><path fill="none" stroke="black" stroke-width=".3" stroke-opacity="1.0"  filling="0" d="M11.469818115234375 11.863773345947266 L11.469818115234375 11.863773345947266 C11.717130661010742 11.864058494567871 11.836386680603027 12.143257141113281 11.562790870666504 12.061500549316406 L11.562790870666504 12.061500549316406 C11.566499710083008 12.116600036621094 11.570208549499512 12.171700477600098 11.573917388916016 12.226799964904785 L11.573917388916016 12.226799964904785 C11.539217948913574 12.23116397857666 11.504517555236816 12.235527992248535 11.469818115234375 12.23989200592041 L11.469818115234375 12.23989200592041 C11.469818115234375 12.114519119262695 11.469818115234375 11.98914623260498 11.469818115234375 11.863773345947266 L11.469818115234375 11.863773345947266"></path>
<path fill="none" stroke="black" stroke-width=".3" stroke-opacity="1.0"  filling="0" d="M11.56993579864502 11.89227294921875 L11.56993579864502 11.89227294921875 C11.613499641418457 11.905000686645508 11.657062530517578 11.91772747039795 11.700626373291016 11.930455207824707 L11.700626373291016 11.930455207824707 C11.6649808883667 11.966155052185059 11.6293363571167 12.001855850219727 11.593690872192383 12.037555694580078 L11.593690872192383 12.037555694580078 C11.585772514343262 12.03161907196045 11.57785415649414 12.025681495666504 11.56993579864502 12.019744873046875 L11.56993579864502 12.019744873046875 C11.56993579864502 11.977253913879395 11.56993579864502 11.93476390838623 11.56993579864502 11.89227294921875 L11.56993579864502 11.89227294921875"></path></svg>