<svg xmlns="http://www.w3.org/2000/svg" viewBox="0.0 0.0 24.0 24.0" height="200px" width="200px"><path fill="none" stroke="black" stroke-width=".3" stroke-opacity="1.0"  filling="0" d="M13.117173194885254 11.949707984924316 L13.117173194885254 11.949707984924316 C13.194629669189453 12.013457298278809 13.169642448425293 12.145212173461914 13.172754287719727 12.24548053741455 L13.172754287719727 12.24548053741455 C13.154572486877441 12.24548053741455 13.136390686035156 12.24548053741455 13.118208885192871 12.24548053741455 L13.118208885192871 12.24548053741455 C13.116368293762207 12.159213066101074 13.079423904418945 12.074681282043457 13.036391258239746 11.999890327453613 L13.036391258239746 11.999890327453613 C13.036391258239746 12.081753730773926 13.036391258239746 12.163617134094238 13.036391258239746 12.24548053741455 L13.036391258239746 12.24548053741455 C13.018199920654297 12.245471954345703 13.000009536743164 12.245463371276855 12.981818199157715 12.245454788208008 L12.981818199157715 12.245454788208008 C12.966143608093262 12.164349555969238 12.950088500976562 12.083311080932617 12.932917594909668 12.002509117126465 L12.932917594909668 12.002509117126465 C12.913026809692383 12.071890830993652 12.893136024475098 12.141271591186523 12.873245239257812 12.210653305053711 L12.873245239257812 12.210653305053711 C12.843518257141113 12.212162971496582 12.813791275024414 12.213671684265137 12.784064292907715 12.215181350708008 L12.784064292907715 12.215181350708008 C12.787628173828125 12.136235237121582 12.791191101074219 12.057290077209473 12.794754981994629 11.978343963623047 L12.794754981994629 11.978343963623047 C12.902227401733398 11.968798637390137 13.009700775146484 11.959253311157227 13.117173194885254 11.949707984924316 L13.117173194885254 11.949707984924316"></path></svg>