<svg xmlns="http://www.w3.org/2000/svg" viewBox="0.0 0.0 24.0 24.0" height="200px" width="200px"><path fill="none" stroke="black" stroke-width=".3" stroke-opacity="1.0"  filling="0" d="M12.872727394104004 12.009626388549805 L12.872727394104004 12.009626388549805 C12.938645362854004 12.009626388549805 13.00456428527832 12.009626388549805 13.07048225402832 12.009626388549805 L13.07048225402832 12.009626388549805 C13.077291488647461 12.088235855102539 13.084099769592285 12.166845321655273 13.090909004211426 12.245454788208008 L13.090909004211426 12.245454788208008 C13.06363582611084 12.245454788208008 13.03636360168457 12.245454788208008 13.009090423583984 12.245454788208008 L13.009090423583984 12.245454788208008 C12.995317459106445 12.174318313598633 12.981544494628906 12.103181838989258 12.967771530151367 12.032045364379883 L12.967771530151367 12.032045364379883 C12.954272270202637 12.103181838989258 12.94077205657959 12.174318313598633 12.92727279663086 12.245454788208008 L12.92727279663086 12.245454788208008 C12.909090995788574 12.245454788208008 12.890909194946289 12.245454788208008 12.872727394104004 12.245454788208008 L12.872727394104004 12.245454788208008 C12.872727394104004 12.166845321655273 12.872727394104004 12.088235855102539 12.872727394104004 12.009626388549805 L12.872727394104004 12.009626388549805"></path></svg>