<svg xmlns="http://www.w3.org/2000/svg" viewBox="0.0 0.0 24.0 24.0" height="200px" width="200px"><path fill="none" stroke="black" stroke-width=".3" stroke-opacity="1.0"  filling="0" d="M12.74045467376709 12.014127731323242 L12.74045467376709 12.014127731323242 C12.799881935119629 12.014127731323242 12.859308242797852 12.014127731323242 12.91873550415039 12.014127731323242 L12.91873550415039 12.014127731323242 C12.930671691894531 12.09123706817627 12.942607879638672 12.16834545135498 12.954544067382812 12.245454788208008 L12.954544067382812 12.245454788208008 C12.927271842956543 12.245454788208008 12.899998664855957 12.245454788208008 12.872726440429688 12.245454788208008 L12.872726440429688 12.245454788208008 C12.845454216003418 12.186836242675781 12.818181037902832 12.128218650817871 12.790908813476562 12.069600105285645 L12.790908813476562 12.069600105285645 C12.790908813476562 12.128218650817871 12.790908813476562 12.186836242675781 12.790908813476562 12.245454788208008 L12.790908813476562 12.245454788208008 C12.763636589050293 12.245454788208008 12.736363410949707 12.245454788208008 12.709091186523438 12.245454788208008 L12.709091186523438 12.245454788208008 C12.719545364379883 12.16834545135498 12.730000495910645 12.09123706817627 12.74045467376709 12.014127731323242 L12.74045467376709 12.014127731323242"></path></svg>