<svg xmlns="http://www.w3.org/2000/svg" viewBox="0.0 0.0 24.0 24.0" height="200px" width="200px"><path fill="none" stroke="black" stroke-width=".3" stroke-opacity="1.0"  filling="0" d="M14.240618705749512 11.849263191223145 L14.240618705749512 11.849263191223145 C14.313164710998535 11.849263191223145 14.385709762573242 11.849263191223145 14.458255767822266 11.849263191223145 L14.458255767822266 11.849263191223145 C14.4061918258667 11.92667293548584 14.35412883758545 12.004081726074219 14.302064895629883 12.081491470336914 L14.302064895629883 12.081491470336914 C14.352983474731445 12.075082778930664 14.403901100158691 12.068673133850098 14.454819679260254 12.062264442443848 L14.454819679260254 12.062264442443848 C14.383492469787598 12.068219184875488 14.312164306640625 12.074172973632812 14.240837097167969 12.080127716064453 L14.240837097167969 12.080127716064453 C14.278409957885742 12.0116548538208 14.315982818603516 11.943181991577148 14.353555679321289 11.874709129333496 L14.353555679321289 11.874709129333496 C14.317164421081543 11.876672744750977 14.280774116516113 11.878636360168457 14.244382858276367 11.880599975585938 L14.244382858276367 11.880599975585938 C14.243127822875977 11.87015438079834 14.241873741149902 11.859708786010742 14.240618705749512 11.849263191223145 L14.240618705749512 11.849263191223145"></path></svg>