<svg xmlns="http://www.w3.org/2000/svg" viewBox="0.0 0.0 24.0 24.0" height="200px" width="200px"><path fill="none" stroke="black" stroke-width=".3" stroke-opacity="1.0"  filling="0" d="M11.110091209411621 11.965964317321777 L11.110091209411621 11.965964317321777 C11.123236656188965 11.995219230651855 11.136382102966309 12.024473190307617 11.149527549743652 12.053728103637695 L11.149527549743652 12.053728103637695 C11.115446090698242 12.044227600097656 11.081363677978516 12.034728050231934 11.047282218933105 12.025227546691895 L11.047282218933105 12.025227546691895 C11.073936462402344 12.098628044128418 11.100591659545898 12.172027587890625 11.127245903015137 12.245428085327148 L11.127245903015137 12.245428085327148 C11.08180046081543 12.245436668395996 11.036355018615723 12.24544620513916 10.990909576416016 12.245454788208008 L10.990909576416016 12.245454788208008 C10.990909576416016 12.219918251037598 10.990909576416016 12.194382667541504 10.990909576416016 12.168846130371094 L10.990909576416016 12.168846130371094 C11.02169132232666 12.184809684753418 11.052473068237305 12.200773239135742 11.08325481414795 12.216736793518066 L11.08325481414795 12.216736793518066 C11.046027183532715 12.150646209716797 11.008800506591797 12.084555625915527 10.971572875976562 12.018465042114258 L10.971572875976562 12.018465042114258 C11.017745971679688 12.000965118408203 11.063918113708496 11.983464241027832 11.110091209411621 11.965964317321777 L11.110091209411621 11.965964317321777"></path></svg>