<svg xmlns="http://www.w3.org/2000/svg" viewBox="0.0 0.0 24.0 24.0" height="200px" width="200px"><path fill="none" stroke="black" stroke-width=".3" stroke-opacity="1.0"  filling="0" d="M10.670536041259766 11.88100814819336 L10.670536041259766 11.88100814819336 C10.69804573059082 11.915926933288574 10.725554466247559 11.950844764709473 10.753064155578613 11.985763549804688 L10.753064155578613 11.985763549804688 C10.800790786743164 11.991600036621094 10.848518371582031 11.9974365234375 10.896245002746582 12.003273010253906 L10.896245002746582 12.003273010253906 C10.909618377685547 12.084009170532227 10.922990798950195 12.164745330810547 10.93636417388916 12.245481491088867 L10.93636417388916 12.245481491088867 C10.90000057220459 12.245481491088867 10.86363697052002 12.245481491088867 10.82727336883545 12.245481491088867 L10.82727336883545 12.245481491088867 C10.817636489868164 12.17190933227539 10.808000564575195 12.098336219787598 10.79836368560791 12.024764060974121 L10.79836368560791 12.024764060974121 C10.78981876373291 12.098336219787598 10.781272888183594 12.17190933227539 10.772727966308594 12.245481491088867 L10.772727966308594 12.245481491088867 C10.736364364624023 12.24547290802002 10.700000762939453 12.245463371276855 10.663637161254883 12.245454788208008 L10.663637161254883 12.245454788208008 C10.665936470031738 12.12397289276123 10.66823673248291 12.002490043640137 10.670536041259766 11.88100814819336 L10.670536041259766 11.88100814819336"></path></svg>