<svg xmlns="http://www.w3.org/2000/svg" viewBox="0.0 0.0 24.0 24.0" height="200px" width="200px"><path fill="none" stroke="black" stroke-width=".3" stroke-opacity="1.0"  filling="0" d="M10.397263526916504 11.837072372436523 L10.397263526916504 11.837072372436523 C10.513272285461426 11.847335815429688 10.629281997680664 11.857599258422852 10.745290756225586 11.867862701416016 L10.745290756225586 11.867862701416016 C10.742881774902344 11.882735252380371 10.740471839904785 11.897607803344727 10.738062858581543 11.912480354309082 L10.738062858581543 11.912480354309082 C10.6986722946167 11.904361724853516 10.659280776977539 11.896244049072266 10.619890213012695 11.8881254196167 L10.619890213012695 11.8881254196167 C10.625381469726562 12.00722599029541 10.630871772766113 12.126325607299805 10.63636302947998 12.245426177978516 L10.63636302947998 12.245426177978516 C10.590909004211426 12.24543571472168 10.545454025268555 12.245445251464844 10.5 12.245454788208008 L10.5 12.245454788208008 C10.518362045288086 12.126333236694336 10.526392936706543 12.005407333374023 10.527027130126953 11.884881019592285 L10.527027130126953 11.884881019592285 C10.483772277832031 11.895172119140625 10.440518379211426 11.905462265014648 10.397263526916504 11.915753364562988 L10.397263526916504 11.915753364562988 C10.397263526916504 11.8895263671875 10.397263526916504 11.863299369812012 10.397263526916504 11.837072372436523 L10.397263526916504 11.837072372436523"></path></svg>