<svg xmlns="http://www.w3.org/2000/svg" viewBox="0.0 0.0 24.0 24.0" height="200px" width="200px"><path fill="none" stroke="black" stroke-width=".3" stroke-opacity="1.0"  filling="0" d="M9.592281341552734 11.999836921691895 L9.592281341552734 11.999836921691895 C9.661494255065918 12.058392524719238 9.694912910461426 12.15591049194336 9.709090232849121 12.245454788208008 L9.709090232849121 12.245454788208008 C9.63636302947998 12.245454788208008 9.56363582611084 12.245454788208008 9.4909086227417 12.245454788208008 L9.4909086227417 12.245454788208008 C9.493817329406738 12.203409194946289 9.496726989746094 12.16136360168457 9.499635696411133 12.119318008422852 L9.499635696411133 12.119318008422852 C9.528572082519531 12.151336669921875 9.55750846862793 12.183354377746582 9.586444854736328 12.215373039245605 L9.586444854736328 12.215373039245605 C9.61684799194336 12.165633201599121 9.60983657836914 12.097771644592285 9.597354888916016 12.040827751159668 L9.597354888916016 12.040827751159668 C9.564146041870117 12.053046226501465 9.530936241149902 12.065263748168945 9.497727394104004 12.077482223510742 L9.497727394104004 12.077482223510742 C9.529245376586914 12.051600456237793 9.560763359069824 12.025718688964844 9.592281341552734 11.999836921691895 L9.592281341552734 11.999836921691895"></path></svg>