<svg xmlns="http://www.w3.org/2000/svg" viewBox="0.0 0.0 24.0 24.0" height="200px" width="200px"><path fill="none" stroke="black" stroke-width=".3" stroke-opacity="1.0"  filling="0" d="M13.141036033630371 11.811108589172363 L13.141036033630371 11.811108589172363 C13.147295951843262 11.932178497314453 13.15856647491455 12.102405548095703 13.054336547851562 12.164318084716797 L13.054336547851562 12.164318084716797 C13.059972763061523 12.076600074768066 13.065608978271484 11.988882064819336 13.071245193481445 11.901164054870605 L13.071245193481445 11.901164054870605 C13.049445152282715 11.886727333068848 13.027645111083984 11.87229061126709 13.005845069885254 11.857853889465332 L13.005845069885254 11.857853889465332 C12.992362976074219 11.966435432434082 12.9788818359375 12.075017929077148 12.965399742126465 12.183599472045898 L12.965399742126465 12.183599472045898 C12.92735481262207 12.183599472045898 12.88930892944336 12.183599472045898 12.851263999938965 12.183599472045898 L12.851263999938965 12.183599472045898 C12.845708847045898 12.065699577331543 12.840154647827148 11.947799682617188 12.834599494934082 11.829899787902832 L12.834599494934082 11.829899787902832 C12.936744689941406 11.823636054992676 13.038890838623047 11.81737232208252 13.141036033630371 11.811108589172363 L13.141036033630371 11.811108589172363"></path></svg>