<svg xmlns="http://www.w3.org/2000/svg" viewBox="0.0 0.0 24.0 24.0" height="200px" width="200px"><path fill="none" stroke="black" stroke-width=".3" stroke-opacity="1.0"  filling="0" d="M13.45565414428711 11.798399925231934 L13.45565414428711 11.798399925231934 C13.503899574279785 11.804282188415527 13.552145957946777 11.810163497924805 13.600391387939453 11.816045761108398 L13.600391387939453 11.816045761108398 C13.522582054138184 11.904818534851074 13.444772720336914 11.99359130859375 13.366963386535645 12.082364082336426 L13.366963386535645 12.082364082336426 C13.462724685668945 12.107154846191406 13.536030769348145 12.190837860107422 13.599544525146484 12.26667308807373 L13.599544525146484 12.26667308807373 C13.479690551757812 12.277491569519043 13.35983657836914 12.288309097290039 13.239982604980469 12.299127578735352 L13.239982604980469 12.299127578735352 C13.263809204101562 12.262073516845703 13.287636756896973 12.225018501281738 13.311463356018066 12.18796443939209 L13.311463356018066 12.18796443939209 C13.368931770324707 12.224947929382324 13.470142364501953 12.242209434509277 13.516446113586426 12.191946029663086 L13.516446113586426 12.191946029663086 C13.446818351745605 12.191954612731934 13.377191543579102 12.191964149475098 13.307563781738281 12.191972732543945 L13.307563781738281 12.191972732543945 C13.308255195617676 12.051803588867188 13.32835865020752 11.85708236694336 13.45565414428711 11.798399925231934 L13.45565414428711 11.798399925231934"></path>
<path fill="none" stroke="black" stroke-width=".3" stroke-opacity="1.0"  filling="0" d="M13.421099662780762 11.859354019165039 L13.421099662780762 11.859354019165039 C13.417763710021973 11.917308807373047 13.414426803588867 11.975263595581055 13.411090850830078 12.033218383789062 L13.411090850830078 12.033218383789062 C13.414426803588867 11.975263595581055 13.417763710021973 11.917308807373047 13.421099662780762 11.859354019165039 L13.421099662780762 11.859354019165039"></path></svg>