<svg xmlns="http://www.w3.org/2000/svg" viewBox="0.0 0.0 24.0 24.0" height="200px" width="200px"><path fill="none" stroke="black" stroke-width=".3" stroke-opacity="1.0"  filling="0" d="M11.62450885772705 11.98183536529541 L11.62450885772705 11.98183536529541 C11.674163818359375 12.021480560302734 11.723817825317383 12.061126708984375 11.773472785949707 12.1007719039917 L11.773472785949707 12.1007719039917 C11.733454704284668 12.062390327453613 11.693436622619629 12.024007797241211 11.65341854095459 11.985626220703125 L11.65341854095459 11.985626220703125 C11.650618553161621 12.04290771484375 11.647817611694336 12.100190162658691 11.645017623901367 12.157471656799316 L11.645017623901367 12.157471656799316 C11.69166374206543 12.161480903625488 11.738308906555176 12.16549015045166 11.784955024719238 12.169499397277832 L11.784955024719238 12.169499397277832 C11.75661849975586 12.194817543029785 11.72828197479248 12.220135688781738 11.699945449829102 12.245453834533691 L11.699945449829102 12.245453834533691 C11.681781768798828 12.245453834533691 11.663618087768555 12.245454788208008 11.645454406738281 12.245454788208008 L11.645454406738281 12.245454788208008 C11.638472557067871 12.157581329345703 11.631490707397461 12.069708824157715 11.62450885772705 11.98183536529541 L11.62450885772705 11.98183536529541"></path></svg>