<svg xmlns="http://www.w3.org/2000/svg" viewBox="0.0 0.0 24.0 24.0" height="200px" width="200px"><path fill="none" stroke="black" stroke-width=".3" stroke-opacity="1.0"  filling="0" d="M10.460700988769531 11.896307945251465 L10.460700988769531 11.896307945251465 C10.485136985778809 11.896307945251465 10.509572982788086 11.896307945251465 10.534008979797363 11.896307945251465 L10.534008979797363 11.896307945251465 C10.54084587097168 12.012689590454102 10.54768180847168 12.129072189331055 10.554518699645996 12.245453834533691 L10.554518699645996 12.245453834533691 C10.481800079345703 12.245453834533691 10.409082412719727 12.245454788208008 10.336363792419434 12.245454788208008 L10.336363792419434 12.245454788208008 C10.336918830871582 12.166718482971191 10.337472915649414 12.087981224060059 10.338027954101562 12.009244918823242 L10.338027954101562 12.009244918823242 C10.382295608520508 12.002806663513184 10.426787376403809 11.9978609085083 10.471336364746094 11.993807792663574 L10.471336364746094 11.993807792663574 C10.467791557312012 11.961307525634766 10.464245796203613 11.928808212280273 10.460700988769531 11.896307945251465 L10.460700988769531 11.896307945251465"></path>
<path fill="none" stroke="black" stroke-width=".3" stroke-opacity="1.0"  filling="0" d="M10.394563674926758 12.00826358795166 L10.394563674926758 12.00826358795166 C10.418400764465332 12.079273223876953 10.44223690032959 12.15028190612793 10.466073989868164 12.221291542053223 L10.466073989868164 12.221291542053223 C10.429800987243652 12.206746101379395 10.39352798461914 12.192200660705566 10.357254981994629 12.177655220031738 L10.357254981994629 12.177655220031738 C10.369690895080566 12.121191024780273 10.38212776184082 12.064727783203125 10.394563674926758 12.00826358795166 L10.394563674926758 12.00826358795166"></path></svg>