<svg xmlns="http://www.w3.org/2000/svg" viewBox="0.0 0.0 24.0 24.0" height="200px" width="200px"><path fill="none" stroke="black" stroke-width=".3" stroke-opacity="1.0"  filling="0" d="M10.56659984588623 10.97852897644043 L10.56659984588623 10.97852897644043 C10.679574966430664 11.445012092590332 10.702735900878906 11.922517776489258 10.762391090393066 12.398429870605469 L10.762391090393066 12.398429870605469 C10.77297306060791 12.397674560546875 10.783554077148438 12.396920204162598 10.794136047363281 12.396164894104004 L10.794136047363281 12.396164894104004 C10.848835945129395 11.938774108886719 10.903535842895508 11.481383323669434 10.958235740661621 11.023992538452148 L10.958235740661621 11.023992538452148 C10.971336364746094 11.02132797241211 10.98443603515625 11.018664360046387 10.997536659240723 11.015999794006348 L10.997536659240723 11.015999794006348 C11.205862045288086 11.290135383605957 10.905071258544922 13.028141975402832 10.765527725219727 13.345746040344238 L10.765527725219727 13.345746040344238 C10.346463203430176 12.964418411254883 10.355237007141113 11.506043434143066 10.403018951416016 10.992791175842285 L10.403018951416016 10.992791175842285 C10.436901092529297 11.010354995727539 10.470782279968262 11.027918815612793 10.504664421081543 11.045482635498047 L10.504664421081543 11.045482635498047 C10.525309562683105 11.023164749145508 10.545954704284668 11.000846862792969 10.56659984588623 10.97852897644043 L10.56659984588623 10.97852897644043"></path></svg>