<svg xmlns="http://www.w3.org/2000/svg" viewBox="0.0 0.0 24.0 24.0" height="200px" width="200px"><path fill="none" stroke="black" stroke-width=".3" stroke-opacity="1.0"  filling="0" d="M11.68729019165039 11.973081588745117 L11.68729019165039 11.973081588745117 C11.764254570007324 11.98119068145752 11.841217994689941 11.989299774169922 11.918182373046875 11.997408866882324 L11.918182373046875 11.997408866882324 C11.918182373046875 12.080090522766113 11.918182373046875 12.162773132324219 11.918182373046875 12.245454788208008 L11.918182373046875 12.245454788208008 C11.90000057220459 12.245454788208008 11.881817817687988 12.245454788208008 11.863636016845703 12.245454788208008 L11.863636016845703 12.245454788208008 C11.849942207336426 12.167387962341309 11.836136817932129 12.08157730102539 11.784927368164062 12.021081924438477 L11.784927368164062 12.021081924438477 C11.774800300598145 12.026063919067383 11.76467227935791 12.031045913696289 11.754545211791992 12.036027908325195 L11.754545211791992 12.036027908325195 C11.754545211791992 12.105836868286133 11.754545211791992 12.17564582824707 11.754545211791992 12.245454788208008 L11.754545211791992 12.245454788208008 C11.736363410949707 12.245454788208008 11.718182563781738 12.245454788208008 11.700000762939453 12.245454788208008 L11.700000762939453 12.245454788208008 C11.665338516235352 12.161434173583984 11.68213939666748 12.063825607299805 11.68729019165039 11.973081588745117 L11.68729019165039 11.973081588745117"></path></svg>