<svg xmlns="http://www.w3.org/2000/svg" viewBox="0.0 0.0 24.0 24.0" height="200px" width="200px"><path fill="none" stroke="black" stroke-width=".3" stroke-opacity="1.0"  filling="0" d="M11.043408393859863 11.809091567993164 L11.043408393859863 11.809091567993164 C11.154714584350586 11.886931419372559 11.223966598510742 12.019452095031738 11.27168083190918 12.146618843078613 L11.27168083190918 12.146618843078613 C11.26420783996582 12.155418395996094 11.256735801696777 12.16421890258789 11.249262809753418 12.173018455505371 L11.249262809753418 12.173018455505371 C11.173972129821777 12.180709838867188 11.09868049621582 12.188400268554688 11.02338981628418 12.196091651916504 L11.02338981628418 12.196091651916504 C11.01869010925293 12.20705509185791 11.01399040222168 12.218018531799316 11.00929069519043 12.228981971740723 L11.00929069519043 12.228981971740723 C10.863662719726562 12.060215950012207 10.986184120178223 12.031432151794434 11.08543586730957 11.85548210144043 L11.08543586730957 11.85548210144043 C11.04319953918457 11.884709358215332 11.00096321105957 11.913936614990234 10.95872688293457 11.943163871765137 L10.95872688293457 11.943163871765137 C10.986953735351562 11.898472785949707 11.015181541442871 11.853782653808594 11.043408393859863 11.809091567993164 L11.043408393859863 11.809091567993164"></path>
<path fill="none" stroke="black" stroke-width=".3" stroke-opacity="1.0"  filling="0" d="M11.124245643615723 12.034281730651855 L11.124245643615723 12.034281730651855 C11.101591110229492 12.072272300720215 11.078936576843262 12.110262870788574 11.056282043457031 12.148253440856934 L11.056282043457031 12.148253440856934 C11.03130054473877 12.126898765563965 11.006318092346191 12.105545043945312 10.98133659362793 12.084190368652344 L10.98133659362793 12.084190368652344 C11.028972625732422 12.067554473876953 11.07660961151123 12.050917625427246 11.124245643615723 12.034281730651855 L11.124245643615723 12.034281730651855"></path></svg>