<svg xmlns="http://www.w3.org/2000/svg" viewBox="0.0 0.0 24.0 24.0" height="200px" width="200px"><path fill="none" stroke="black" stroke-width=".3" stroke-opacity="1.0"  filling="0" d="M12.569892883300781 11.784135818481445 L12.569892883300781 11.784135818481445 C12.680129051208496 11.869039535522461 12.723437309265137 12.027620315551758 12.738655090332031 12.16592788696289 L12.738655090332031 12.16592788696289 C12.639528274536133 12.161118507385254 12.540401458740234 12.156310081481934 12.441274642944336 12.151500701904297 L12.441274642944336 12.151500701904297 C12.47792911529541 12.099482536315918 12.514583587646484 12.047464370727539 12.551238059997559 11.99544620513916 L12.551238059997559 11.99544620513916 C12.563055992126465 12.044391632080078 12.574873924255371 12.093337059020996 12.586691856384277 12.142282485961914 L12.586691856384277 12.142282485961914 C12.61324691772461 12.098118782043457 12.639801025390625 12.053955078125 12.666356086730957 12.009791374206543 L12.666356086730957 12.009791374206543 C12.626501083374023 12.006363868713379 12.58664608001709 12.002936363220215 12.546791076660156 11.99950885772705 L12.546791076660156 11.99950885772705 C12.582781791687012 11.95760726928711 12.590312957763672 11.895334243774414 12.592146873474121 11.840127944946289 L12.592146873474121 11.840127944946289 C12.558310508728027 11.867782592773438 12.524474143981934 11.89543628692627 12.49063777923584 11.923090934753418 L12.49063777923584 11.923090934753418 C12.517056465148926 11.8767728805542 12.543474197387695 11.830453872680664 12.569892883300781 11.784135818481445 L12.569892883300781 11.784135818481445"></path></svg>