<svg xmlns="http://www.w3.org/2000/svg" viewBox="0.0 0.0 24.0 24.0" height="200px" width="200px"><path fill="none" stroke="black" stroke-width=".3" stroke-opacity="1.0"  filling="0" d="M12.108109474182129 12.00059986114502 L12.108109474182129 12.00059986114502 C12.174302101135254 12.066740036010742 12.245265007019043 12.151853561401367 12.245454788208008 12.245427131652832 L12.245454788208008 12.245427131652832 C12.218181610107422 12.245427131652832 12.190909385681152 12.245427131652832 12.163636207580566 12.245427131652832 L12.163636207580566 12.245427131652832 C12.161828994750977 12.171077728271484 12.140636444091797 12.083368301391602 12.081817626953125 12.03785514831543 L12.081817626953125 12.03785514831543 C12.081817626953125 12.107046127319336 12.081817626953125 12.176236152648926 12.081817626953125 12.245427131652832 L12.081817626953125 12.245427131652832 C12.054545402526855 12.245436668395996 12.02727222442627 12.245445251464844 12.0 12.245454788208008 L12.0 12.245454788208008 C12.003700256347656 12.16610050201416 12.007400512695312 12.086745262145996 12.011100769042969 12.007390975952148 L12.011100769042969 12.007390975952148 C12.043437004089355 12.005126953125 12.075773239135742 12.002863883972168 12.108109474182129 12.00059986114502 L12.108109474182129 12.00059986114502"></path></svg>