<svg xmlns="http://www.w3.org/2000/svg" viewBox="0.0 0.0 24.0 24.0" height="200px" width="200px"><path fill="none" stroke="black" stroke-width=".3" stroke-opacity="1.0"  filling="0" d="M11.6663179397583 11.895354270935059 L11.6663179397583 11.895354270935059 C11.670172691345215 11.950872421264648 11.674026489257812 12.006390571594238 11.677881240844727 12.061908721923828 L11.677881240844727 12.061908721923828 C11.722390174865723 12.037436485290527 11.766900062561035 12.01296329498291 11.811408996582031 11.98849105834961 L11.811408996582031 11.98849105834961 C11.817354202270508 11.997309684753418 11.823299407958984 12.00612735748291 11.829244613647461 12.014945983886719 L11.829244613647461 12.014945983886719 C11.793035507202148 12.043573379516602 11.756826400756836 12.072199821472168 11.720617294311523 12.10082721710205 L11.720617294311523 12.10082721710205 C11.759190559387207 12.149036407470703 11.797762870788574 12.197245597839355 11.836336135864258 12.245454788208008 L11.836336135864258 12.245454788208008 C11.75452709197998 12.245454788208008 11.67271900177002 12.245454788208008 11.590909957885742 12.245454788208008 L11.590909957885742 12.245454788208008 C11.59344482421875 12.126105308532715 11.599350929260254 11.994178771972656 11.6663179397583 11.895354270935059 L11.6663179397583 11.895354270935059"></path></svg>