<svg xmlns="http://www.w3.org/2000/svg" viewBox="0.0 0.0 24.0 24.0" height="200px" width="200px"><path fill="none" stroke="black" stroke-width=".3" stroke-opacity="1.0"  filling="0" d="M12.954571723937988 11.835981369018555 L12.954571723937988 11.835981369018555 C12.954571723937988 11.951135635375977 12.954571723937988 12.066290855407715 12.954571723937988 12.181445121765137 L12.954571723937988 12.181445121765137 C12.867438316345215 12.174394607543945 12.750666618347168 12.089567184448242 12.762436866760254 12.002944946289062 L12.762436866760254 12.002944946289062 C12.796018600463867 12.057263374328613 12.82960033416748 12.111580848693848 12.863182067871094 12.165899276733398 L12.863182067871094 12.165899276733398 C12.878018379211426 12.114472389221191 12.892853736877441 12.063044548034668 12.907690048217773 12.011617660522461 L12.907690048217773 12.011617660522461 C12.86975383758545 11.998245239257812 12.831818580627441 11.984872817993164 12.793882369995117 11.971500396728516 L12.793882369995117 11.971500396728516 C12.827327728271484 11.957173347473145 12.860773086547852 11.942845344543457 12.894218444824219 11.928518295288086 L12.894218444824219 11.928518295288086 C12.888136863708496 11.900891304016113 12.882054328918457 11.873263359069824 12.875972747802734 11.845636367797852 L12.875972747802734 11.845636367797852 C12.902172088623047 11.84241771697998 12.928372383117676 11.839200019836426 12.954571723937988 11.835981369018555 L12.954571723937988 11.835981369018555"></path></svg>