<svg xmlns="http://www.w3.org/2000/svg" viewBox="0.0 0.0 24.0 24.0" height="200px" width="200px"><path fill="none" stroke="black" stroke-width=".3" stroke-opacity="1.0"  filling="0" d="M12.222163200378418 11.94853687286377 L12.222163200378418 11.94853687286377 C12.346290588378906 11.94853687286377 12.470417976379395 11.94853687286377 12.594545364379883 11.94853687286377 L12.594545364379883 11.94853687286377 C12.592453956604004 12.044336318969727 12.590363502502441 12.14013671875 12.588272094726562 12.235936164855957 L12.588272094726562 12.235936164855957 C12.56805419921875 12.158954620361328 12.547835350036621 12.0819730758667 12.527617454528809 12.00499153137207 L12.527617454528809 12.00499153137207 C12.473221778869629 12.068321228027344 12.446175575256348 12.155041694641113 12.43532657623291 12.237817764282227 L12.43532657623291 12.237817764282227 C12.422626495361328 12.23768138885498 12.409926414489746 12.237545013427734 12.397226333618164 12.237408638000488 L12.397226333618164 12.237408638000488 C12.388545036315918 12.158881187438965 12.379862785339355 12.080353736877441 12.37118148803711 12.001826286315918 L12.37118148803711 12.001826286315918 C12.342044830322266 12.072781562805176 12.312909126281738 12.143735885620117 12.283772468566895 12.214691162109375 L12.283772468566895 12.214691162109375 C12.257999420166016 12.214691162109375 12.232227325439453 12.214691162109375 12.206454277038574 12.214691162109375 L12.206454277038574 12.214691162109375 C12.211690902709961 12.125972747802734 12.216926574707031 12.03725528717041 12.222163200378418 11.94853687286377 L12.222163200378418 11.94853687286377"></path></svg>