<svg xmlns="http://www.w3.org/2000/svg" viewBox="0.0 0.0 24.0 24.0" height="200px" width="200px"><path fill="none" stroke="black" stroke-width=".3" stroke-opacity="1.0"  filling="0" d="M12.0584716796875 11.929908752441406 L12.0584716796875 11.929908752441406 C12.125380516052246 11.929908752441406 12.192290306091309 11.929908752441406 12.259199142456055 11.929908752441406 L12.259199142456055 11.929908752441406 C12.212327003479004 12.003608703613281 12.165453910827637 12.077308654785156 12.118581771850586 12.151008605957031 L12.118581771850586 12.151008605957031 C12.159173011779785 12.151008605957031 12.199763298034668 12.151008605957031 12.240354537963867 12.151008605957031 L12.240354537963867 12.151008605957031 C12.24030876159668 12.159945487976074 12.240263938903809 12.1688814163208 12.240218162536621 12.177818298339844 L12.240218162536621 12.177818298339844 C12.169063568115234 12.177818298339844 12.097908973693848 12.177818298339844 12.026754379272461 12.177818298339844 L12.026754379272461 12.177818298339844 C12.06745433807373 12.108499526977539 12.108153343200684 12.03918170928955 12.148853302001953 11.969862937927246 L12.148853302001953 11.969862937927246 C12.118526458740234 11.964717864990234 12.0881986618042 11.959571838378906 12.05787181854248 11.954426765441895 L12.05787181854248 11.954426765441895 C12.058072090148926 11.946253776550293 12.058271408081055 11.938081741333008 12.0584716796875 11.929908752441406 L12.0584716796875 11.929908752441406"></path></svg>