<svg xmlns="http://www.w3.org/2000/svg" viewBox="0.0 0.0 24.0 24.0" height="200px" width="200px"><path fill="none" stroke="black" stroke-width=".3" stroke-opacity="1.0"  filling="0" d="M12.279655456542969 11.982245445251465 L12.279655456542969 11.982245445251465 C12.360086441040039 12.038740158081055 12.420948028564453 12.12027645111084 12.478636741638184 12.199854850769043 L12.478636741638184 12.199854850769043 C12.464536666870117 12.215045928955078 12.45043659210205 12.230236053466797 12.436336517333984 12.245427131652832 L12.436336517333984 12.245427131652832 C12.381799697875977 12.245436668395996 12.327263832092285 12.245445251464844 12.272727012634277 12.245454788208008 L12.272727012634277 12.245454788208008 C12.294354438781738 12.192718505859375 12.3159818649292 12.139981269836426 12.33760929107666 12.087244987487793 L12.33760929107666 12.087244987487793 C12.331046104431152 12.116291046142578 12.324481964111328 12.145336151123047 12.31791877746582 12.174382209777832 L12.31791877746582 12.174382209777832 C12.337045669555664 12.113755226135254 12.356173515319824 12.05312728881836 12.375300407409668 11.992500305175781 L12.375300407409668 11.992500305175781 C12.343419075012207 12.009963989257812 12.31153678894043 12.027427673339844 12.279655456542969 12.044891357421875 L12.279655456542969 12.044891357421875 C12.279655456542969 12.024009704589844 12.279655456542969 12.003127098083496 12.279655456542969 11.982245445251465 L12.279655456542969 11.982245445251465"></path></svg>