<svg xmlns="http://www.w3.org/2000/svg" viewBox="0.0 0.0 24.0 24.0" height="200px" width="200px"><path fill="none" stroke="black" stroke-width=".3" stroke-opacity="1.0"  filling="0" d="M13.757563591003418 11.94316291809082 L13.757563591003418 11.94316291809082 C13.757563591003418 12.030545234680176 13.757563591003418 12.117926597595215 13.757563591003418 12.20530891418457 L13.757563591003418 12.20530891418457 C13.748164176940918 12.212054252624512 13.738763809204102 12.218799591064453 13.729364395141602 12.225544929504395 L13.729364395141602 12.225544929504395 C13.610264778137207 12.187591552734375 13.490673065185547 12.07399845123291 13.475018501281738 11.949981689453125 L13.475018501281738 11.949981689453125 C13.507882118225098 11.949981689453125 13.540745735168457 11.949981689453125 13.573609352111816 11.949981689453125 L13.573609352111816 11.949981689453125 C13.579490661621094 12.024381637573242 13.585372924804688 12.09878158569336 13.591254234313965 12.173181533813477 L13.591254234313965 12.173181533813477 C13.626399993896484 12.100117683410645 13.661544799804688 12.027054786682129 13.696690559387207 11.953990936279297 L13.696690559387207 11.953990936279297 C13.716981887817383 11.9503812789917 13.737272262573242 11.946772575378418 13.757563591003418 11.94316291809082 L13.757563591003418 11.94316291809082"></path></svg>