<svg xmlns="http://www.w3.org/2000/svg" viewBox="0.0 0.0 24.0 24.0" height="200px" width="200px"><path fill="none" stroke="black" stroke-width=".3" stroke-opacity="1.0"  filling="0" d="M15.163609504699707 9.000000953674316 L15.163609504699707 9.000000953674316 C15.218154907226562 9.000000953674316 15.272700309753418 9.000000953674316 15.327245712280273 9.000000953674316 L15.327245712280273 9.000000953674316 C15.327245712280273 9.063637733459473 15.327245712280273 9.127273559570312 15.327245712280273 9.190910339355469 L15.327245712280273 9.190910339355469 C15.263427734375 9.213610649108887 15.199609756469727 9.236310005187988 15.135791778564453 9.259010314941406 L15.135791778564453 9.259010314941406 C15.137188911437988 9.459463119506836 15.088757514953613 9.609143257141113 15.327247619628906 9.490882873535156 L15.327247619628906 9.490882873535156 C15.327247619628906 9.572701454162598 15.327247619628906 9.654519081115723 15.327247619628906 9.736337661743164 L15.327247619628906 9.736337661743164 C15.287829399108887 9.736337661743164 15.24841022491455 9.736337661743164 15.208992004394531 9.736337661743164 L15.208992004394531 9.736337661743164 C15.203592300415039 9.888419151306152 15.198192596435547 10.040501594543457 15.192792892456055 10.192583084106445 L15.192792892456055 10.192583084106445 C15.237610816955566 10.167774200439453 15.282429695129395 10.142964363098145 15.327247619628906 10.118155479431152 L15.327247619628906 10.118155479431152 C15.327256202697754 10.19089126586914 15.327263832092285 10.263628005981445 15.327272415161133 10.336363792419434 L15.327272415161133 10.336363792419434 C15.22757625579834 10.397106170654297 15.114082336425781 10.431602478027344 15.006763458251953 10.477554321289062 L15.006763458251953 10.477554321289062 C14.934300422668457 9.90162467956543 14.887761116027832 9.498295783996582 15.163609504699707 9.000000953674316 L15.163609504699707 9.000000953674316"></path></svg>