<svg xmlns="http://www.w3.org/2000/svg" viewBox="0.0 0.0 24.0 24.0" height="200px" width="200px"><path fill="none" stroke="black" stroke-width=".3" stroke-opacity="1.0"  filling="0" d="M11.56360912322998 11.809063911437988 L11.56360912322998 11.809063911437988 C11.627254486083984 11.809073448181152 11.690899848937988 11.80908203125 11.754545211791992 11.809091567993164 L11.754545211791992 11.809091567993164 C11.754545211791992 11.842591285705566 11.754545211791992 11.876091003417969 11.754545211791992 11.909590721130371 L11.754545211791992 11.909590721130371 C11.70020866394043 11.881135940551758 11.645873069763184 11.852682113647461 11.591536521911621 11.824227333068848 L11.591536521911621 11.824227333068848 C11.652257919311523 11.931431770324707 11.636277198791504 12.16211986541748 11.51539134979248 12.185918807983398 L11.51539134979248 12.185918807983398 C11.51539134979248 12.161491394042969 11.51539134979248 12.137063980102539 11.51539134979248 12.11263656616211 L11.51539134979248 12.11263656616211 C11.578218460083008 12.10890007019043 11.641046524047852 12.10516357421875 11.703873634338379 12.10142707824707 L11.703873634338379 12.10142707824707 C11.637737274169922 12.044672012329102 11.571600914001465 11.98791790008545 11.505464553833008 11.93116283416748 L11.505464553833008 11.93116283416748 C11.524846076965332 11.890462875366211 11.544227600097656 11.849763870239258 11.56360912322998 11.809063911437988 L11.56360912322998 11.809063911437988"></path></svg>