<svg xmlns="http://www.w3.org/2000/svg" viewBox="0.0 0.0 24.0 24.0" height="200px" width="200px"><path fill="none" stroke="black" stroke-width=".3" stroke-opacity="1.0"  filling="0" d="M11.158827781677246 11.91891860961914 L11.158827781677246 11.91891860961914 C11.18881893157959 11.972445487976074 11.218809127807617 12.025973320007324 11.248800277709961 12.079500198364258 L11.248800277709961 12.079500198364258 C11.26919174194336 12.036181449890137 11.289582252502441 11.992863655090332 11.30997371673584 11.949544906616211 L11.30997371673584 11.949544906616211 C11.329818725585938 12.025272369384766 11.349664688110352 12.10099983215332 11.36950969696045 12.176727294921875 L11.36950969696045 12.176727294921875 C11.35412883758545 12.142218589782715 11.338747024536133 12.107708930969238 11.323366165161133 12.073200225830078 L11.323366165161133 12.073200225830078 C11.288920402526855 12.110918045043945 11.254474639892578 12.148635864257812 11.2200288772583 12.18635368347168 L11.2200288772583 12.18635368347168 C11.187265396118164 12.106135368347168 11.154500961303711 12.025918006896973 11.121737480163574 11.945699691772461 L11.121737480163574 11.945699691772461 C11.134100914001465 11.936772346496582 11.146464347839355 11.92784595489502 11.158827781677246 11.91891860961914 L11.158827781677246 11.91891860961914"></path></svg>