<svg xmlns="http://www.w3.org/2000/svg" viewBox="0.0 0.0 24.0 24.0" height="200px" width="200px"><path fill="none" stroke="black" stroke-width=".3" stroke-opacity="1.0"  filling="0" d="M14.446418762207031 10.985017776489258 L14.446418762207031 10.985017776489258 C14.493775367736816 11.694236755371094 14.945556640625 12.468470573425293 14.828235626220703 13.075554847717285 L14.828235626220703 13.075554847717285 C14.81007194519043 12.895299911499023 14.791909217834473 12.715045928955078 14.7737455368042 12.534790992736816 L14.7737455368042 12.534790992736816 C14.393242835998535 12.699349403381348 14.644245147705078 12.84442138671875 14.577354431152344 13.217155456542969 L14.577354431152344 13.217155456542969 C14.511938095092773 13.06820297241211 14.527931213378906 12.911892890930176 14.478899955749512 12.751582145690918 L14.478899955749512 12.751582145690918 C14.462630271911621 12.902022361755371 14.442951202392578 13.053292274475098 14.402099609375 13.198990821838379 L14.402099609375 13.198990821838379 C14.328511238098145 12.972431182861328 14.434886932373047 12.845412254333496 14.290307998657227 12.63504695892334 L14.290307998657227 12.63504695892334 C14.289491653442383 12.104090690612793 14.041651725769043 11.356717109680176 14.446418762207031 10.985017776489258 L14.446418762207031 10.985017776489258"></path></svg>