<svg xmlns="http://www.w3.org/2000/svg" viewBox="0.0 0.0 24.0 24.0" height="200px" width="200px"><path fill="none" stroke="black" stroke-width=".3" stroke-opacity="1.0"  filling="0" d="M12.649200439453125 10.127537727355957 L12.649200439453125 10.127537727355957 C12.991865158081055 10.242201805114746 12.838324546813965 10.974708557128906 12.91142749786377 11.318236351013184 L12.91142749786377 11.318236351013184 C12.865527153015137 11.349272727966309 12.81962776184082 11.380309104919434 12.773727416992188 11.411345481872559 L12.773727416992188 11.411345481872559 C12.71880054473877 11.271491050720215 12.663872718811035 11.131636619567871 12.608945846557617 10.991782188415527 L12.608945846557617 10.991782188415527 C12.600127220153809 10.993364334106445 12.591309547424316 10.994945526123047 12.582490921020508 10.996527671813965 L12.582490921020508 10.996527671813965 C12.582490921020508 11.133309364318848 12.582490921020508 11.27009105682373 12.582490921020508 11.406872749328613 L12.582490921020508 11.406872749328613 C12.566990852355957 11.396309852600098 12.551491737365723 11.385746002197266 12.535991668701172 11.37518310546875 L12.535991668701172 11.37518310546875 C12.50670051574707 11.415201187133789 12.477409362792969 11.455219268798828 12.448118209838867 11.495237350463867 L12.448118209838867 11.495237350463867 C12.351361274719238 11.04864501953125 12.122254371643066 10.326671600341797 12.649200439453125 10.127537727355957 L12.649200439453125 10.127537727355957"></path>
<path fill="none" stroke="black" stroke-width=".3" stroke-opacity="1.0"  filling="0" d="M12.585163116455078 10.236872673034668 L12.585163116455078 10.236872673034668 C12.592899322509766 10.442008972167969 12.60063648223877 10.64714527130127 12.608372688293457 10.85228157043457 L12.608372688293457 10.85228157043457 C12.60063648223877 10.64714527130127 12.592899322509766 10.442008972167969 12.585163116455078 10.236872673034668 L12.585163116455078 10.236872673034668"></path></svg>