<svg xmlns="http://www.w3.org/2000/svg" viewBox="0.0 0.0 24.0 24.0" height="200px" width="200px"><path fill="none" stroke="black" stroke-width=".3" stroke-opacity="1.0"  filling="0" d="M9.98454475402832 11.986800193786621 L9.98454475402832 11.986800193786621 C10.048881530761719 11.986800193786621 10.1132173538208 11.986800193786621 10.1775541305542 11.986800193786621 L10.1775541305542 11.986800193786621 C10.134324073791504 12.057631492614746 10.088367462158203 12.126808166503906 10.041163444519043 12.19505500793457 L10.041163444519043 12.19505500793457 C10.089035987854004 12.18681812286377 10.136909484863281 12.178582191467285 10.184782028198242 12.170345306396484 L10.184782028198242 12.170345306396484 C10.118309020996094 12.179218292236328 10.051836013793945 12.188091278076172 9.985363006591797 12.196964263916016 L9.985363006591797 12.196964263916016 C10.01655387878418 12.13554573059082 10.047745704650879 12.074127197265625 10.078936576843262 12.01270866394043 L10.078936576843262 12.01270866394043 C10.04785442352295 12.01270866394043 10.016773223876953 12.01270866394043 9.98569107055664 12.01270866394043 L9.98569107055664 12.01270866394043 C9.985308647155762 12.004072189331055 9.9849271774292 11.995436668395996 9.98454475402832 11.986800193786621 L9.98454475402832 11.986800193786621"></path></svg>