<svg xmlns="http://www.w3.org/2000/svg" viewBox="0.0 0.0 24.0 24.0" height="200px" width="200px"><path fill="none" stroke="black" stroke-width=".3" stroke-opacity="1.0"  filling="0" d="M11.83148193359375 11.948591232299805 L11.83148193359375 11.948591232299805 C11.904533386230469 12.005126953125 11.927481651306152 12.112066268920898 11.939972877502441 12.203590393066406 L11.939972877502441 12.203590393066406 C11.875636100769043 12.203580856323242 11.811300277709961 12.203572273254395 11.746963500976562 12.20356273651123 L11.746963500976562 12.20356273651123 C11.73868179321289 12.171499252319336 11.730399131774902 12.139435768127441 11.72211742401123 12.107372283935547 L11.72211742401123 12.107372283935547 C11.770553588867188 12.074827194213867 11.818990707397461 12.042282104492188 11.867426872253418 12.009737014770508 L11.867426872253418 12.009737014770508 C11.862017631530762 11.998527526855469 11.856609344482422 11.98731803894043 11.851200103759766 11.97610855102539 L11.851200103759766 11.97610855102539 C11.811517715454102 11.991127014160156 11.771836280822754 12.006144523620605 11.73215389251709 12.021162986755371 L11.73215389251709 12.021162986755371 C11.765263557434082 11.99697208404541 11.798372268676758 11.972782135009766 11.83148193359375 11.948591232299805 L11.83148193359375 11.948591232299805"></path></svg>