<svg xmlns="http://www.w3.org/2000/svg" viewBox="0.0 0.0 24.0 24.0" height="200px" width="200px"><path fill="none" stroke="black" stroke-width=".3" stroke-opacity="1.0"  filling="0" d="M12.013636589050293 11.797772407531738 L12.013636589050293 11.797772407531738 C12.021581649780273 11.843518257141113 12.02952766418457 11.889263153076172 12.03747272491455 11.935009002685547 L12.03747272491455 11.935009002685547 C12.086472511291504 11.952245712280273 12.135473251342773 11.969481468200684 12.184473037719727 11.98671817779541 L12.184473037719727 11.98671817779541 C12.172264099121094 12.059536933898926 12.160055160522461 12.132354736328125 12.147846221923828 12.20517349243164 L12.147846221923828 12.20517349243164 C12.128600120544434 12.146055221557617 12.109354972839355 12.086936950683594 12.090108871459961 12.02781867980957 L12.090108871459961 12.02781867980957 C12.074336051940918 12.078882217407227 12.058564186096191 12.1299467086792 12.042791366577148 12.181010246276855 L12.042791366577148 12.181010246276855 C12.019346237182617 12.191219329833984 11.99590015411377 12.201428413391113 11.972455024719238 12.211637496948242 L11.972455024719238 12.211637496948242 C11.964101791381836 12.07325267791748 11.912508010864258 11.892603874206543 12.013636589050293 11.797772407531738 L12.013636589050293 11.797772407531738"></path></svg>