<svg xmlns="http://www.w3.org/2000/svg" viewBox="0.0 0.0 24.0 24.0" height="200px" width="200px"><path fill="none" stroke="black" stroke-width=".3" stroke-opacity="1.0"  filling="0" d="M12.429573059082031 11.972918510437012 L12.429573059082031 11.972918510437012 C12.519082069396973 11.977190971374512 12.608591079711914 11.981464385986328 12.698100090026855 11.985736846923828 L12.698100090026855 11.985736846923828 C12.710854530334473 12.072300910949707 12.723609924316406 12.15886402130127 12.736364364624023 12.245428085327148 L12.736364364624023 12.245428085327148 C12.709092140197754 12.245428085327148 12.681818962097168 12.245428085327148 12.654546737670898 12.245428085327148 L12.654546737670898 12.245428085327148 C12.654546737670898 12.175318717956543 12.654546737670898 12.105210304260254 12.654546737670898 12.035100936889648 L12.654546737670898 12.035100936889648 C12.644110679626465 12.030291557312012 12.633673667907715 12.025482177734375 12.623237609863281 12.020672798156738 L12.623237609863281 12.020672798156738 C12.575777053833008 12.081025123596191 12.574091911315918 12.168634414672852 12.572728157043457 12.245400428771973 L12.572728157043457 12.245400428771973 C12.545455932617188 12.245400428771973 12.518182754516602 12.245400428771973 12.490910530090332 12.245400428771973 L12.490910530090332 12.245400428771973 C12.501110076904297 12.146318435668945 12.531109809875488 12.04310131072998 12.409064292907715 12.02980899810791 L12.409064292907715 12.02980899810791 C12.409064292907715 12.10168170928955 12.409064292907715 12.173554420471191 12.409064292907715 12.245427131652832 L12.409064292907715 12.245427131652832 C12.372709274291992 12.245436668395996 12.33635425567627 12.245445251464844 12.299999237060547 12.245454788208008 L12.299999237060547 12.245454788208008 C12.316436767578125 12.14621639251709 12.349907875061035 12.034334182739258 12.429573059082031 11.972918510437012 L12.429573059082031 11.972918510437012"></path></svg>