<svg xmlns="http://www.w3.org/2000/svg" viewBox="0.0 0.0 24.0 24.0" height="200px" width="200px"><path fill="none" stroke="black" stroke-width=".3" stroke-opacity="1.0"  filling="0" d="M11.592326164245605 11.93350887298584 L11.592326164245605 11.93350887298584 C11.629244804382324 11.948772430419922 11.666162490844727 11.964035987854004 11.703081130981445 11.979299545288086 L11.703081130981445 11.979299545288086 C11.70394515991211 11.991426467895508 11.704808235168457 12.003554344177246 11.705672264099121 12.015681266784668 L11.705672264099121 12.015681266784668 C11.657299041748047 12.033363342285156 11.608926773071289 12.051045417785645 11.560553550720215 12.068727493286133 L11.560553550720215 12.068727493286133 C11.603708267211914 12.095582008361816 11.646862983703613 12.122435569763184 11.690017700195312 12.149290084838867 L11.690017700195312 12.149290084838867 C11.617294311523438 12.178681373596191 11.541202545166016 12.054234504699707 11.530200004577637 11.976572036743164 L11.530200004577637 11.976572036743164 C11.568154335021973 12.000890731811523 11.606108665466309 12.025208473205566 11.644062995910645 12.049527168273926 L11.644062995910645 12.049527168273926 C11.62681770324707 12.010854721069336 11.60957145690918 11.97218132019043 11.592326164245605 11.93350887298584 L11.592326164245605 11.93350887298584"></path></svg>