<svg xmlns="http://www.w3.org/2000/svg" viewBox="0.0 0.0 24.0 24.0" height="200px" width="200px"><path fill="none" stroke="black" stroke-width=".3" stroke-opacity="1.0"  filling="0" d="M12.161153793334961 12.005345344543457 L12.161153793334961 12.005345344543457 C12.18016242980957 12.0853910446167 12.199172019958496 12.165435791015625 12.218180656433105 12.245481491088867 L12.218180656433105 12.245481491088867 C12.190908432006836 12.24547290802002 12.163636207580566 12.245463371276855 12.136363983154297 12.245454788208008 L12.136363983154297 12.245454788208008 C12.118609428405762 12.219063758850098 12.10085391998291 12.192672729492188 12.083099365234375 12.166281700134277 L12.083099365234375 12.166281700134277 C12.1218900680542 12.178035736083984 12.16068172454834 12.189790725708008 12.199472427368164 12.201544761657715 L12.199472427368164 12.201544761657715 C12.204671859741211 12.193527221679688 12.209872245788574 12.185508728027344 12.215071678161621 12.177491188049316 L12.215071678161621 12.177491188049316 C12.120438575744629 12.073975563049316 12.053680419921875 12.01589298248291 12.24095344543457 12.005345344543457 L12.24095344543457 12.005345344543457 C12.214353561401367 12.005345344543457 12.187753677368164 12.005345344543457 12.161153793334961 12.005345344543457 L12.161153793334961 12.005345344543457"></path></svg>