<svg xmlns="http://www.w3.org/2000/svg" viewBox="0.0 0.0 24.0 24.0" height="200px" width="200px"><path fill="none" stroke="black" stroke-width=".3" stroke-opacity="1.0"  filling="0" d="M13.39693546295166 11.925082206726074 L13.39693546295166 11.925082206726074 C13.465398788452148 11.925082206726074 13.533863067626953 11.925082206726074 13.602326393127441 11.925082206726074 L13.602326393127441 11.925082206726074 C13.619844436645508 12.011209487915039 13.63736343383789 12.097335815429688 13.654881477355957 12.183463096618652 L13.654881477355957 12.183463096618652 C13.626599311828613 12.184863090515137 13.598318099975586 12.186264038085938 13.570035934448242 12.187664031982422 L13.570035934448242 12.187664031982422 C13.540535926818848 12.110945701599121 13.51103687286377 12.034228324890137 13.481536865234375 11.957509994506836 L13.481536865234375 11.957509994506836 C13.476863861083984 12.023146629333496 13.472190856933594 12.08878231048584 13.467517852783203 12.1544189453125 L13.467517852783203 12.1544189453125 C13.443990707397461 12.16270923614502 13.420462608337402 12.171000480651855 13.39693546295166 12.179290771484375 L13.39693546295166 12.179290771484375 C13.39693546295166 12.094554901123047 13.39693546295166 12.009818077087402 13.39693546295166 11.925082206726074 L13.39693546295166 11.925082206726074"></path></svg>