<svg xmlns="http://www.w3.org/2000/svg" viewBox="0.0 0.0 24.0 24.0" height="200px" width="200px"><path fill="none" stroke="black" stroke-width=".3" stroke-opacity="1.0"  filling="0" d="M10.254981994628906 11.970544815063477 L10.254981994628906 11.970544815063477 C10.330729484558105 12.027018547058105 10.403491973876953 12.117563247680664 10.403373718261719 12.212045669555664 L10.403373718261719 12.212045669555664 C10.374146461486816 12.212045669555664 10.344919204711914 12.212045669555664 10.315691947937012 12.212045669555664 L10.315691947937012 12.212045669555664 C10.326951026916504 12.140707015991211 10.322623252868652 12.063919067382812 10.29771900177002 11.996127128601074 L10.29771900177002 11.996127128601074 C10.286918640136719 12.000163078308105 10.276118278503418 12.004199981689453 10.265317916870117 12.008235931396484 L10.265317916870117 12.008235931396484 C10.251180648803711 12.072857856750488 10.247099876403809 12.140972137451172 10.256291389465332 12.206480979919434 L10.256291389465332 12.206480979919434 C10.22714614868164 12.209944725036621 10.19800090789795 12.213409423828125 10.168855667114258 12.216873168945312 L10.168855667114258 12.216873168945312 C10.168855667114258 12.137900352478027 10.168855667114258 12.058926582336426 10.168855667114258 11.97995376586914 L10.168855667114258 11.97995376586914 C10.197564125061035 11.97681713104248 10.226273536682129 11.973681449890137 10.254981994628906 11.970544815063477 L10.254981994628906 11.970544815063477"></path></svg>