<svg xmlns="http://www.w3.org/2000/svg" viewBox="0.0 0.0 24.0 24.0" height="200px" width="200px"><path fill="none" stroke="black" stroke-width=".3" stroke-opacity="1.0"  filling="0" d="M12.459736824035645 11.839363098144531 L12.459736824035645 11.839363098144531 C12.486052513122559 11.872293472290039 12.495855331420898 11.921032905578613 12.48842716217041 11.96252727508545 L12.48842716217041 11.96252727508545 C12.53100872039795 11.968199729919434 12.573591232299805 11.973873138427734 12.616172790527344 11.979545593261719 L12.616172790527344 11.979545593261719 C12.628963470458984 12.068190574645996 12.641755104064941 12.15683650970459 12.654545783996582 12.245481491088867 L12.654545783996582 12.245481491088867 C12.636363983154297 12.24547290802002 12.618182182312012 12.245463371276855 12.600000381469727 12.245454788208008 L12.600000381469727 12.245454788208008 C12.600000381469727 12.177918434143066 12.600000381469727 12.110382080078125 12.600000381469727 12.042845726013184 L12.600000381469727 12.042845726013184 C12.564090728759766 12.102863311767578 12.528182029724121 12.162881851196289 12.49227237701416 12.222899436950684 L12.49227237701416 12.222899436950684 C12.390340805053711 12.119661331176758 12.368671417236328 11.959053993225098 12.459736824035645 11.839363098144531 L12.459736824035645 11.839363098144531"></path></svg>