<svg xmlns="http://www.w3.org/2000/svg" viewBox="0.0 0.0 24.0 24.0" height="200px" width="200px"><path fill="none" stroke="black" stroke-width=".3" stroke-opacity="1.0"  filling="0" d="M10.797053337097168 11.865626335144043 L10.797053337097168 11.865626335144043 C10.913131713867188 11.916837692260742 11.0116605758667 12.003569602966309 11.104389190673828 12.09016227722168 L11.104389190673828 12.09016227722168 C11.112980842590332 12.084099769592285 11.12157154083252 12.078036308288574 11.130163192749023 12.07197380065918 L11.130163192749023 12.07197380065918 C11.123608589172363 12.004800796508789 11.117053985595703 11.937627792358398 11.110499382019043 11.870454788208008 L11.110499382019043 11.870454788208008 C11.128990173339844 11.869436264038086 11.147480964660645 11.86841869354248 11.165971755981445 11.867400169372559 L11.165971755981445 11.867400169372559 C11.165971755981445 12.00057315826416 11.165971755981445 12.133745193481445 11.165971755981445 12.266918182373047 L11.165971755981445 12.266918182373047 C11.080653190612793 12.184144973754883 10.995335578918457 12.101372718811035 10.910017013549805 12.018599510192871 L10.910017013549805 12.018599510192871 C10.900571823120117 12.024145126342773 10.89112663269043 12.02968978881836 10.881681442260742 12.035235404968262 L10.881681442260742 12.035235404968262 C10.886617660522461 12.101999282836914 10.89155387878418 12.16876220703125 10.896490097045898 12.235526084899902 L10.896490097045898 12.235526084899902 C10.869354248046875 12.239089965820312 10.842217445373535 12.242653846740723 10.815081596374512 12.246217727661133 L10.815081596374512 12.246217727661133 C10.809072494506836 12.119354248046875 10.803062438964844 11.9924898147583 10.797053337097168 11.865626335144043 L10.797053337097168 11.865626335144043"></path></svg>