<svg xmlns="http://www.w3.org/2000/svg" viewBox="0.0 0.0 24.0 24.0" height="200px" width="200px"><path fill="none" stroke="black" stroke-width=".3" stroke-opacity="1.0"  filling="0" d="M11.551908493041992 11.892682075500488 L11.551908493041992 11.892682075500488 C11.590808868408203 11.894673347473145 11.629708290100098 11.896663665771484 11.668608665466309 11.89865493774414 L11.668608665466309 11.89865493774414 C11.668554306030273 11.906846046447754 11.668498992919922 11.915037155151367 11.668444633483887 11.92322826385498 L11.668444633483887 11.92322826385498 C11.643072128295898 11.92322826385498 11.617698669433594 11.92322826385498 11.592326164245605 11.92322826385498 L11.592326164245605 11.92322826385498 C11.634862899780273 11.982028007507324 11.677399635314941 12.040828704833984 11.71993637084961 12.099628448486328 L11.71993637084961 12.099628448486328 C11.65099048614502 12.094409942626953 11.582045555114746 12.089191436767578 11.513099670410156 12.083972930908203 L11.513099670410156 12.083972930908203 C11.562081336975098 12.091155052185059 11.611063003540039 12.098336219787598 11.66004467010498 12.105518341064453 L11.66004467010498 12.105518341064453 C11.62399959564209 12.03457260131836 11.587953567504883 11.963627815246582 11.551908493041992 11.892682075500488 L11.551908493041992 11.892682075500488"></path></svg>