<svg xmlns="http://www.w3.org/2000/svg" viewBox="0.0 0.0 24.0 24.0" height="200px" width="200px"><path fill="none" stroke="black" stroke-width=".3" stroke-opacity="1.0"  filling="0" d="M10.936365127563477 11.809091567993164 L10.936365127563477 11.809091567993164 C10.963637351989746 11.809091567993164 10.990909576416016 11.809091567993164 11.018181800842285 11.809091567993164 L11.018181800842285 11.809091567993164 C11.018181800842285 11.843818664550781 11.018181800842285 11.878545761108398 11.018181800842285 11.913272857666016 L11.018181800842285 11.913272857666016 C11.100046157836914 11.960288047790527 11.142967224121094 12.093035697937012 11.109572410583496 12.181336402893066 L11.109572410583496 12.181336402893066 C11.097908973693848 12.102381706237793 11.0862455368042 12.02342700958252 11.07458209991455 11.944472312927246 L11.07458209991455 11.944472312927246 C11.050182342529297 12.017090797424316 11.025781631469727 12.08970832824707 11.001381874084473 12.16232681274414 L11.001381874084473 12.16232681274414 C10.98996353149414 12.1607084274292 10.978546142578125 12.159090995788574 10.967127799987793 12.157472610473633 L10.967127799987793 12.157472610473633 C10.956873893737793 12.041345596313477 10.946619033813477 11.92521858215332 10.936365127563477 11.809091567993164 L10.936365127563477 11.809091567993164"></path></svg>