<svg xmlns="http://www.w3.org/2000/svg" viewBox="0.0 0.0 24.0 24.0" height="200px" width="200px"><path fill="none" stroke="black" stroke-width=".3" stroke-opacity="1.0"  filling="0" d="M12.718199729919434 11.896690368652344 L12.718199729919434 11.896690368652344 C12.775442123413086 11.972000122070312 12.815394401550293 12.06212329864502 12.837872505187988 12.154008865356445 L12.837872505187988 12.154008865356445 C12.765117645263672 12.164772987365723 12.692363739013672 12.175536155700684 12.619608879089355 12.186300277709961 L12.619608879089355 12.186300277709961 C12.612199783325195 12.151627540588379 12.604790687561035 12.11695384979248 12.597381591796875 12.082281112670898 L12.597381591796875 12.082281112670898 C12.645254135131836 12.046117782592773 12.693126678466797 12.009954452514648 12.740999221801758 11.973791122436523 L12.740999221801758 11.973791122436523 C12.734135627746582 11.964445114135742 12.727272033691406 11.955100059509277 12.72040843963623 11.945754051208496 L12.72040843963623 11.945754051208496 C12.677654266357422 11.96773624420166 12.634899139404297 11.989717483520508 12.592144966125488 12.011699676513672 L12.592144966125488 12.011699676513672 C12.634162902832031 11.973362922668457 12.67618179321289 11.935027122497559 12.718199729919434 11.896690368652344 L12.718199729919434 11.896690368652344"></path></svg>