<svg xmlns="http://www.w3.org/2000/svg" viewBox="0.0 0.0 24.0 24.0" height="200px" width="200px"><path fill="none" stroke="black" stroke-width=".3" stroke-opacity="1.0"  filling="0" d="M13.235262870788574 11.927236557006836 L13.235262870788574 11.927236557006836 C13.265554428100586 11.968317985534668 13.295845031738281 12.009400367736816 13.326136589050293 12.050481796264648 L13.326136589050293 12.050481796264648 C13.30024528503418 12.051736831665039 13.274354934692383 12.052990913391113 13.24846363067627 12.054245948791504 L13.24846363067627 12.054245948791504 C13.246427536010742 12.028836250305176 13.244390487670898 12.003427505493164 13.242354393005371 11.978017807006836 L13.242354393005371 11.978017807006836 C13.232682228088379 11.977436065673828 13.22300910949707 11.97685432434082 13.213336944580078 11.976272583007812 L13.213336944580078 11.976272583007812 C13.200818061828613 12.012245178222656 13.188300132751465 12.048218727111816 13.17578125 12.08419132232666 L13.17578125 12.08419132232666 C13.2314453125 12.100554466247559 13.287108421325684 12.116918563842773 13.342772483825684 12.133281707763672 L13.342772483825684 12.133281707763672 C13.104125022888184 12.231257438659668 13.048961639404297 12.049201011657715 13.235262870788574 11.927236557006836 L13.235262870788574 11.927236557006836"></path></svg>