<svg xmlns="http://www.w3.org/2000/svg" viewBox="0.0 0.0 24.0 24.0" height="200px" width="200px"><path fill="none" stroke="black" stroke-width=".3" stroke-opacity="1.0"  filling="0" d="M11.575800895690918 11.910354614257812 L11.575800895690918 11.910354614257812 C11.586055755615234 11.915136337280273 11.596309661865234 11.919918060302734 11.60656452178955 11.924699783325195 L11.60656452178955 11.924699783325195 C11.574755668640137 12.012190818786621 11.542945861816406 12.09968090057373 11.511137008666992 12.187171936035156 L11.511137008666992 12.187171936035156 C11.484764099121094 12.154953956604004 11.458392143249512 12.122735023498535 11.432019233703613 12.090517044067383 L11.432019233703613 12.090517044067383 C11.394064903259277 12.114890098571777 11.356109619140625 12.139262199401855 11.318155288696289 12.16363525390625 L11.318155288696289 12.16363525390625 C11.318163871765137 12.109089851379395 11.3181734085083 12.054545402526855 11.318181991577148 12.0 L11.318181991577148 12.0 C11.338472366333008 12.020618438720703 11.358763694763184 12.04123592376709 11.379054069519043 12.061854362487793 L11.379054069519043 12.061854362487793 C11.384944915771484 12.015054702758789 11.390835762023926 11.968254089355469 11.396726608276367 11.921454429626465 L11.396726608276367 11.921454429626465 C11.436744689941406 11.957345008850098 11.476763725280762 11.993236541748047 11.5167818069458 12.02912712097168 L11.5167818069458 12.02912712097168 C11.536455154418945 11.98953628540039 11.556127548217773 11.949945449829102 11.575800895690918 11.910354614257812 L11.575800895690918 11.910354614257812"></path></svg>