<svg xmlns="http://www.w3.org/2000/svg" viewBox="0.0 0.0 24.0 24.0" height="200px" width="200px"><path fill="none" stroke="black" stroke-width=".3" stroke-opacity="1.0"  filling="0" d="M12.734562873840332 11.841408729553223 L12.734562873840332 11.841408729553223 C12.741171836853027 11.842381477355957 12.747780799865723 11.843354225158691 12.754389762878418 11.844326972961426 L12.754389762878418 11.844326972961426 C12.766562461853027 11.968954086303711 12.778736114501953 12.093581199645996 12.790908813476562 12.218208312988281 L12.790908813476562 12.218208312988281 C12.709091186523438 12.218199729919434 12.627272605895996 12.21819019317627 12.545454978942871 12.218181610107422 L12.545454978942871 12.218181610107422 C12.539555549621582 12.122533798217773 12.614394187927246 12.025978088378906 12.693326950073242 11.971636772155762 L12.693326950073242 11.971636772155762 C12.707072257995605 11.928227424621582 12.720817565917969 11.884818077087402 12.734562873840332 11.841408729553223 L12.734562873840332 11.841408729553223"></path>
<path fill="none" stroke="black" stroke-width=".3" stroke-opacity="1.0"  filling="0" d="M12.648245811462402 11.99929141998291 L12.648245811462402 11.99929141998291 C12.647582054138184 12.065337181091309 12.646919250488281 12.13138198852539 12.646255493164062 12.197427749633789 L12.646255493164062 12.197427749633789 C12.646919250488281 12.13138198852539 12.647582054138184 12.065337181091309 12.648245811462402 11.99929141998291 L12.648245811462402 11.99929141998291"></path></svg>