<svg xmlns="http://www.w3.org/2000/svg" viewBox="0.0 0.0 24.0 24.0" height="200px" width="200px"><path fill="none" stroke="black" stroke-width=".3" stroke-opacity="1.0"  filling="0" d="M10.928618431091309 11.839691162109375 L10.928618431091309 11.839691162109375 C11.022743225097656 11.932293891906738 11.063275337219238 12.087346076965332 11.04548168182373 12.218181610107422 L11.04548168182373 12.218181610107422 C11.000018119812012 12.218181610107422 10.954554557800293 12.218181610107422 10.909090995788574 12.218181610107422 L10.909090995788574 12.218181610107422 C10.896463394165039 12.0947904586792 10.88383674621582 11.971400260925293 10.871209144592285 11.84800910949707 L10.871209144592285 11.84800910949707 C10.890345573425293 11.845236778259277 10.9094820022583 11.842463493347168 10.928618431091309 11.839691162109375 L10.928618431091309 11.839691162109375"></path>
<path fill="none" stroke="black" stroke-width=".3" stroke-opacity="1.0"  filling="0" d="M11.003645896911621 11.99056339263916 L11.003645896911621 11.99056339263916 C11.042230606079102 12.04766845703125 11.036587715148926 12.136634826660156 11.003918647766113 12.197318077087402 L11.003918647766113 12.197318077087402 C10.994263648986816 12.193609237670898 10.984609603881836 12.189899444580078 10.974954605102539 12.186190605163574 L10.974954605102539 12.186190605163574 C10.974954605102539 12.127727508544922 10.974954605102539 12.069263458251953 10.974954605102539 12.0108003616333 L10.974954605102539 12.0108003616333 C10.984518051147461 12.00405502319336 10.9940824508667 11.997308731079102 11.003645896911621 11.99056339263916 L11.003645896911621 11.99056339263916"></path></svg>