<svg xmlns="http://www.w3.org/2000/svg" viewBox="0.0 0.0 24.0 24.0" height="200px" width="200px"><path fill="none" stroke="black" stroke-width=".3" stroke-opacity="1.0"  filling="0" d="M12.739201545715332 11.869909286499023 L12.739201545715332 11.869909286499023 C12.848910331726074 11.869909286499023 12.958619117736816 11.869909286499023 13.068327903747559 11.869909286499023 L13.068327903747559 11.869909286499023 C12.99267292022705 11.974555015563965 12.91701889038086 12.07919979095459 12.841363906860352 12.183845520019531 L12.841363906860352 12.183845520019531 C12.918127059936523 12.183845520019531 12.994891166687012 12.183845520019531 13.071654319763184 12.183845520019531 L13.071654319763184 12.183845520019531 C12.99578857421875 12.276535987854004 12.837185859680176 12.243186950683594 12.71741008758545 12.244145393371582 L12.71741008758545 12.244145393371582 C12.786101341247559 12.137245178222656 12.854791641235352 12.03034496307373 12.923482894897461 11.923444747924805 L12.923482894897461 11.923444747924805 C12.917055130004883 11.916444778442383 12.910628318786621 11.909445762634277 12.904200553894043 11.902445793151855 L12.904200553894043 11.902445793151855 C12.851927757263184 11.915536880493164 12.79965591430664 11.928627014160156 12.747383117675781 11.941718101501465 L12.747383117675781 11.941718101501465 C12.74465560913086 11.917781829833984 12.741929054260254 11.893845558166504 12.739201545715332 11.869909286499023 L12.739201545715332 11.869909286499023"></path></svg>