<svg xmlns="http://www.w3.org/2000/svg" viewBox="0.0 0.0 24.0 24.0" height="200px" width="200px"><path fill="none" stroke="black" stroke-width=".3" stroke-opacity="1.0"  filling="0" d="M9.86923599243164 12.000572204589844 L9.86923599243164 12.000572204589844 C9.918299674987793 12.023126602172852 9.967363357543945 12.045681953430176 10.016427040100098 12.068236351013184 L10.016427040100098 12.068236351013184 C9.975518226623535 12.052863121032715 9.934608459472656 12.037490844726562 9.893699645996094 12.022117614746094 L9.893699645996094 12.022117614746094 C9.876945495605469 12.052217483520508 9.860190391540527 12.082317352294922 9.843436241149902 12.112417221069336 L9.843436241149902 12.112417221069336 C9.892036437988281 12.132826805114746 9.940635681152344 12.15323543548584 9.989235877990723 12.17364501953125 L9.989235877990723 12.17364501953125 C9.995854377746582 12.188499450683594 10.002471923828125 12.203353881835938 10.009090423583984 12.218208312988281 L10.009090423583984 12.218208312988281 C9.945454597473145 12.218199729919434 9.881817817687988 12.21819019317627 9.818181991577148 12.218181610107422 L9.818181991577148 12.218181610107422 C9.835200309753418 12.145645141601562 9.852217674255371 12.073108673095703 9.86923599243164 12.000572204589844 L9.86923599243164 12.000572204589844"></path></svg>