<svg xmlns="http://www.w3.org/2000/svg" viewBox="0.0 0.0 24.0 24.0" height="200px" width="200px"><path fill="none" stroke="black" stroke-width=".3" stroke-opacity="1.0"  filling="0" d="M13.036418914794922 11.949135780334473 L13.036418914794922 11.949135780334473 C13.09773063659668 12.018789291381836 13.1371488571167 12.119124412536621 13.129254341125488 12.21158218383789 L13.129254341125488 12.21158218383789 C13.09220027923584 12.21158218383789 13.055145263671875 12.21158218383789 13.018091201782227 12.21158218383789 L13.018091201782227 12.21158218383789 C13.011454582214355 12.1435546875 13.004817962646484 12.07552719116211 12.998181343078613 12.007499694824219 L12.998181343078613 12.007499694824219 C12.982390403747559 12.075281143188477 12.96660041809082 12.14306354522705 12.950809478759766 12.210844993591309 L12.950809478759766 12.210844993591309 C12.911872863769531 12.210844993591309 12.872937202453613 12.210844993591309 12.834000587463379 12.210844993591309 L12.834000587463379 12.210844993591309 C12.834000587463379 12.128145217895508 12.834000587463379 12.04544448852539 12.834000587463379 11.96274471282959 L12.834000587463379 11.96274471282959 C12.901473045349121 11.958208084106445 12.96894645690918 11.953672409057617 13.036418914794922 11.949135780334473 L13.036418914794922 11.949135780334473"></path></svg>