<svg xmlns="http://www.w3.org/2000/svg" viewBox="0.0 0.0 24.0 24.0" height="200px" width="200px"><path fill="none" stroke="black" stroke-width=".3" stroke-opacity="1.0"  filling="0" d="M12.46363639831543 11.877681732177734 L12.46363639831543 11.877681732177734 C12.489263534545898 11.898618698120117 12.514890670776367 11.919554710388184 12.540517807006836 11.940491676330566 L12.540517807006836 11.940491676330566 C12.591117858886719 11.970100402832031 12.641718864440918 11.999710083007812 12.6923189163208 12.029318809509277 L12.6923189163208 12.029318809509277 C12.707000732421875 12.101364135742188 12.721681594848633 12.173409461975098 12.736363410949707 12.245454788208008 L12.736363410949707 12.245454788208008 C12.699999809265137 12.245454788208008 12.663636207580566 12.245454788208008 12.627272605895996 12.245454788208008 L12.627272605895996 12.245454788208008 C12.639751434326172 12.169361114501953 12.595560073852539 12.083303451538086 12.537927627563477 12.032073020935059 L12.537927627563477 12.032073020935059 C12.549527168273926 12.103209495544434 12.561127662658691 12.174345970153809 12.57272720336914 12.245482444763184 L12.57272720336914 12.245482444763184 C12.53636360168457 12.24547290802002 12.5 12.245464324951172 12.46363639831543 12.245454788208008 L12.46363639831543 12.245454788208008 C12.46363639831543 12.12286376953125 12.46363639831543 12.000272750854492 12.46363639831543 11.877681732177734 L12.46363639831543 11.877681732177734"></path></svg>