<svg xmlns="http://www.w3.org/2000/svg" viewBox="0.0 0.0 24.0 24.0" height="200px" width="200px"><path fill="none" stroke="black" stroke-width=".3" stroke-opacity="1.0"  filling="0" d="M12.824481964111328 11.982572555541992 L12.824481964111328 11.982572555541992 C12.88945484161377 11.982572555541992 12.954426765441895 11.982572555541992 13.019399642944336 11.982572555541992 L13.019399642944336 11.982572555541992 C12.998335838317871 12.029109001159668 12.977272987365723 12.075645446777344 12.956209182739258 12.12218189239502 L12.956209182739258 12.12218189239502 C12.980209350585938 12.131181716918945 13.004209518432617 12.140180587768555 13.028209686279297 12.14918041229248 L13.028209686279297 12.14918041229248 C12.954973220825195 12.168525695800781 12.881735801696777 12.187871932983398 12.808499336242676 12.2072172164917 L12.808499336242676 12.2072172164917 C12.827581405639648 12.151308059692383 12.846662521362305 12.095399856567383 12.865744590759277 12.039490699768066 L12.865744590759277 12.039490699768066 C12.8463716506958 12.029417991638184 12.82699966430664 12.0193452835083 12.807626724243164 12.009272575378418 L12.807626724243164 12.009272575378418 C12.813244819641113 12.000372886657715 12.818863868713379 11.991472244262695 12.824481964111328 11.982572555541992 L12.824481964111328 11.982572555541992"></path></svg>