<svg xmlns="http://www.w3.org/2000/svg" viewBox="0.0 0.0 24.0 24.0" height="200px" width="200px"><path fill="none" stroke="black" stroke-width=".3" stroke-opacity="1.0"  filling="0" d="M11.911717414855957 11.97040843963623 L11.911717414855957 11.97040843963623 C11.919999122619629 11.973772048950195 11.928281784057617 11.97713565826416 11.936563491821289 11.980499267578125 L11.936563491821289 11.980499267578125 C11.912262916564941 12.068817138671875 11.88796329498291 12.157135963439941 11.863662719726562 12.245453834533691 L11.863662719726562 12.245453834533691 C11.800017356872559 12.245453834533691 11.736372947692871 12.245454788208008 11.672727584838867 12.245454788208008 L11.672727584838867 12.245454788208008 C11.6358003616333 12.170463562011719 11.598872184753418 12.095473289489746 11.561944961547852 12.020482063293457 L11.561944961547852 12.020482063293457 C11.613190650939941 12.044891357421875 11.664435386657715 12.069299697875977 11.715681076049805 12.093708992004395 L11.715681076049805 12.093708992004395 C11.717435836791992 12.064900398254395 11.719189643859863 12.036090850830078 11.72094440460205 12.007282257080078 L11.72094440460205 12.007282257080078 C11.76298999786377 12.036545753479004 11.805035591125488 12.06580924987793 11.847081184387207 12.095072746276855 L11.847081184387207 12.095072746276855 C11.868626594543457 12.053518295288086 11.890172004699707 12.011962890625 11.911717414855957 11.97040843963623 L11.911717414855957 11.97040843963623"></path></svg>