<svg xmlns="http://www.w3.org/2000/svg" viewBox="0.0 0.0 24.0 24.0" height="200px" width="200px"><path fill="none" stroke="black" stroke-width=".3" stroke-opacity="1.0"  filling="0" d="M12.85641860961914 11.934164047241211 L12.85641860961914 11.934164047241211 C12.89822769165039 11.9561185836792 12.94003677368164 11.978073120117188 12.98184585571289 12.000027656555176 L12.98184585571289 12.000027656555176 C12.98184585571289 12.0818452835083 12.98184585571289 12.163663864135742 12.98184585571289 12.245481491088867 L12.98184585571289 12.245481491088867 C12.900018692016602 12.24547290802002 12.818190574645996 12.245463371276855 12.736363410949707 12.245454788208008 L12.736363410949707 12.245454788208008 C12.745427131652832 12.158087730407715 12.741374015808105 12.069387435913086 12.732791900634766 11.981971740722656 L12.732791900634766 11.981971740722656 C12.766554832458496 11.981971740722656 12.800318717956543 11.981971740722656 12.834081649780273 11.981971740722656 L12.834081649780273 11.981971740722656 C12.828336715698242 12.048908233642578 12.822591781616211 12.1158447265625 12.81684684753418 12.182781219482422 L12.81684684753418 12.182781219482422 C12.878316879272461 12.125656127929688 12.89137077331543 12.010454177856445 12.85641860961914 11.934164047241211 L12.85641860961914 11.934164047241211"></path></svg>