<svg xmlns="http://www.w3.org/2000/svg" viewBox="0.0 0.0 24.0 24.0" height="200px" width="200px"><path fill="none" stroke="black" stroke-width=".3" stroke-opacity="1.0"  filling="0" d="M12.528300285339355 11.970136642456055 L12.528300285339355 11.970136642456055 C12.560239791870117 12.080401420593262 12.59217357635498 12.19070053100586 12.627272605895996 12.300000190734863 L12.627272605895996 12.300000190734863 C12.56363582611084 12.300000190734863 12.5 12.299999237060547 12.436363220214844 12.299999237060547 L12.436363220214844 12.299999237060547 C12.43508243560791 12.216643333435059 12.44063949584961 12.129185676574707 12.411273002624512 12.051163673400879 L12.411273002624512 12.051163673400879 C12.485472679138184 12.028545379638672 12.559673309326172 12.005928039550781 12.633872985839844 11.983309745788574 L12.633872985839844 11.983309745788574 C12.618036270141602 12.03258228302002 12.602200508117676 12.081855773925781 12.586363792419434 12.131128311157227 L12.586363792419434 12.131128311157227 C12.578800201416016 12.129728317260742 12.571235656738281 12.128328323364258 12.563672065734863 12.126928329467773 L12.563672065734863 12.126928329467773 C12.551881790161133 12.074664115905762 12.540090560913086 12.022400856018066 12.528300285339355 11.970136642456055 L12.528300285339355 11.970136642456055"></path></svg>