<svg xmlns="http://www.w3.org/2000/svg" viewBox="0.0 0.0 24.0 24.0" height="200px" width="200px"><path fill="none" stroke="black" stroke-width=".3" stroke-opacity="1.0"  filling="0" d="M11.871000289916992 11.81061840057373 L11.871000289916992 11.81061840057373 C12.006118774414062 11.83696460723877 11.944984436035156 12.090157508850098 11.945154190063477 12.183218002319336 L11.945154190063477 12.183218002319336 C11.885199546813965 12.19219970703125 11.82524585723877 12.20118236541748 11.765291213989258 12.210164070129395 L11.765291213989258 12.210164070129395 C11.72507095336914 12.122129440307617 11.776917457580566 11.98763656616211 11.85818099975586 11.935063362121582 L11.85818099975586 11.935063362121582 C11.862454414367676 11.89358139038086 11.866726875305176 11.852100372314453 11.871000289916992 11.81061840057373 L11.871000289916992 11.81061840057373"></path>
<path fill="none" stroke="black" stroke-width=".3" stroke-opacity="1.0"  filling="0" d="M11.830090522766113 11.963235855102539 L11.830090522766113 11.963235855102539 C11.838644981384277 11.967935562133789 11.847200393676758 11.972636222839355 11.855754852294922 11.977335929870605 L11.855754852294922 11.977335929870605 C11.855754852294922 12.028608322143555 11.855754852294922 12.07988166809082 11.855754852294922 12.13115406036377 L11.855754852294922 12.13115406036377 C11.84288215637207 12.136009216308594 11.830009460449219 12.140863418579102 11.817136764526367 12.145718574523926 L11.817136764526367 12.145718574523926 C11.78688907623291 12.092768669128418 11.792264938354492 12.011067390441895 11.830090522766113 11.963235855102539 L11.830090522766113 11.963235855102539"></path></svg>