<svg xmlns="http://www.w3.org/2000/svg" viewBox="0.0 0.0 24.0 24.0" height="200px" width="200px"><path fill="none" stroke="black" stroke-width=".3" stroke-opacity="1.0"  filling="0" d="M11.054482460021973 12.022281646728516 L11.054482460021973 12.022281646728516 C11.04041862487793 12.071672439575195 11.026354789733887 12.121064186096191 11.012290954589844 12.170454978942871 L11.012290954589844 12.170454978942871 C11.063536643981934 12.180045127868652 11.114782333374023 12.18963623046875 11.166028022766113 12.199226379394531 L11.166028022766113 12.199226379394531 C11.162209510803223 12.214635848999023 11.158390998840332 12.230045318603516 11.154572486877441 12.245454788208008 L11.154572486877441 12.245454788208008 C11.100027084350586 12.245454788208008 11.04548168182373 12.245454788208008 10.990936279296875 12.245454788208008 L10.990936279296875 12.245454788208008 C10.990927696228027 12.172727584838867 10.990918159484863 12.100000381469727 10.990909576416016 12.027273178100586 L10.990909576416016 12.027273178100586 C11.05346393585205 12.048227310180664 11.116018295288086 12.069181442260742 11.178572654724121 12.09013557434082 L11.178572654724121 12.09013557434082 C11.137208938598633 12.067517280578613 11.095846176147461 12.044899940490723 11.054482460021973 12.022281646728516 L11.054482460021973 12.022281646728516"></path></svg>