<svg xmlns="http://www.w3.org/2000/svg" viewBox="0.0 0.0 24.0 24.0" height="200px" width="200px"><path fill="none" stroke="black" stroke-width=".3" stroke-opacity="1.0"  filling="0" d="M12.665428161621094 11.87214469909668 L12.665428161621094 11.87214469909668 C12.70406436920166 11.964471817016602 12.742701530456543 12.056798934936523 12.78133773803711 12.149126052856445 L12.78133773803711 12.149126052856445 C12.690110206604004 12.14913558959961 12.598882675170898 12.149144172668457 12.507655143737793 12.149153709411621 L12.507655143737793 12.149153709411621 C12.500591278076172 12.068917274475098 12.49352741241455 11.98868179321289 12.48646354675293 11.908445358276367 L12.48646354675293 11.908445358276367 C12.495218276977539 11.901226997375488 12.503973007202148 11.894009590148926 12.512727737426758 11.886791229248047 L12.512727737426758 11.886791229248047 C12.59576416015625 11.963032722473145 12.552263259887695 12.031336784362793 12.621027946472168 12.11719036102295 L12.621027946472168 12.11719036102295 C12.629273414611816 12.113226890563965 12.637518882751465 12.10926342010498 12.645764350891113 12.105299949645996 L12.645764350891113 12.105299949645996 C12.652318954467773 12.027581214904785 12.658873558044434 11.94986343383789 12.665428161621094 11.87214469909668 L12.665428161621094 11.87214469909668"></path></svg>