<svg xmlns="http://www.w3.org/2000/svg" viewBox="0.0 0.0 24.0 24.0" height="200px" width="200px"><path fill="none" stroke="black" stroke-width=".3" stroke-opacity="1.0"  filling="0" d="M-7.955045700073242 12.553500175476074 L-7.955045700073242 12.553500175476074 C-7.912400722503662 12.553500175476074 -7.869755268096924 12.553500175476074 -7.827110290527344 12.553500175476074 L-7.827110290527344 12.553500175476074 C-7.827110290527344 12.642790794372559 -7.827110290527344 12.732081413269043 -7.827110290527344 12.821372032165527 L-7.827110290527344 12.821372032165527 C-7.766801357269287 12.794463157653809 -7.706491947174072 12.76755428314209 -7.646183013916016 12.740645408630371 L-7.646183013916016 12.740645408630371 C-7.523736476898193 12.917472839355469 -7.444394588470459 13.13881778717041 -7.44550895690918 13.353899002075195 L-7.44550895690918 13.353899002075195 C-7.498382091522217 13.353899002075195 -7.551254749298096 13.353899002075195 -7.604127883911133 13.353899002075195 L-7.604127883911133 13.353899002075195 C-7.604127883911133 13.214136123657227 -7.604127883911133 13.074372291564941 -7.604127883911133 12.934609413146973 L-7.604127883911133 12.934609413146973 C-7.642673015594482 12.913208961486816 -7.681217670440674 12.891809463500977 -7.719762802124023 12.87040901184082 L-7.719762802124023 12.87040901184082 C-7.759307861328125 13.031718254089355 -7.798852920532227 13.193026542663574 -7.838397979736328 13.35433578491211 L-7.838397979736328 13.35433578491211 C-7.8772807121276855 13.358099937438965 -7.916162967681885 13.361863136291504 -7.955045700073242 13.36562728881836 L-7.955045700073242 13.36562728881836 C-7.955045700073242 13.094918251037598 -7.955045700073242 12.824209213256836 -7.955045700073242 12.553500175476074 L-7.955045700073242 12.553500175476074"></path></svg>