<svg xmlns="http://www.w3.org/2000/svg" viewBox="0.0 0.0 24.0 24.0" height="200px" width="200px"><path fill="none" stroke="black" stroke-width=".3" stroke-opacity="1.0"  filling="0" d="M-2.7628097534179688 12.737317085266113 L-2.7628097534179688 12.737317085266113 C-2.6999731063842773 12.85441780090332 -2.637136459350586 12.971517562866211 -2.5742998123168945 13.088618278503418 L-2.5742998123168945 13.088618278503418 C-2.714900016784668 13.088618278503418 -2.8555002212524414 13.088618278503418 -2.996100425720215 13.088618278503418 L-2.996100425720215 13.088618278503418 C-2.8590269088745117 13.132059097290039 -2.712414503097534 13.168927192687988 -2.5695276260375977 13.152816772460938 L-2.5695276260375977 13.152816772460938 C-3.1805713176727295 13.398836135864258 -3.3060176372528076 13.077091217041016 -2.7628097534179688 12.737317085266113 L-2.7628097534179688 12.737317085266113"></path>
<path fill="none" stroke="black" stroke-width=".3" stroke-opacity="1.0"  filling="0" d="M-2.8862991333007812 12.848345756530762 L-2.8862991333007812 12.848345756530762 C-2.83646297454834 12.876927375793457 -2.7866268157958984 12.905509948730469 -2.736790657043457 12.934091567993164 L-2.736790657043457 12.934091567993164 C-2.7383813858032227 12.944900512695312 -2.7399721145629883 12.955709457397461 -2.741562843322754 12.96651840209961 L-2.741562843322754 12.96651840209961 C-2.8171632289886475 12.96651840209961 -2.892763376235962 12.96651840209961 -2.9683637619018555 12.96651840209961 L-2.9683637619018555 12.96651840209961 C-2.9410088062286377 12.927127838134766 -2.913654088973999 12.887736320495605 -2.8862991333007812 12.848345756530762 L-2.8862991333007812 12.848345756530762"></path></svg>