<svg xmlns="http://www.w3.org/2000/svg" viewBox="0.0 0.0 24.0 24.0" height="200px" width="200px"><path fill="none" stroke="black" stroke-width=".3" stroke-opacity="1.0"  filling="0" d="M12.053427696228027 11.949954986572266 L12.053427696228027 11.949954986572266 C12.077255249023438 11.975945472717285 12.101081848144531 12.001936912536621 12.124909400939941 12.02792739868164 L12.124909400939941 12.02792739868164 C12.092264175415039 12.04996395111084 12.05961799621582 12.072000503540039 12.026972770690918 12.094037055969238 L12.026972770690918 12.094037055969238 C12.016572952270508 12.065591812133789 12.006173133850098 12.037145614624023 11.995773315429688 12.008700370788574 L11.995773315429688 12.008700370788574 C11.986082077026367 12.008427619934082 11.976390838623047 12.008155822753906 11.966699600219727 12.007883071899414 L11.966699600219727 12.007883071899414 C11.956518173217773 12.05772876739502 11.94633674621582 12.107573509216309 11.936155319213867 12.157419204711914 L11.936155319213867 12.157419204711914 C11.989872932434082 12.163310050964355 12.043591499328613 12.169200897216797 12.097309112548828 12.175091743469238 L12.097309112548828 12.175091743469238 C12.08304500579834 12.198546409606934 12.068781852722168 12.222000122070312 12.05451774597168 12.245454788208008 L12.05451774597168 12.245454788208008 C12.018163681030273 12.245454788208008 11.98180866241455 12.245454788208008 11.945454597473145 12.245454788208008 L11.945454597473145 12.245454788208008 C11.895552635192871 12.153219223022461 11.987709999084473 12.031679153442383 12.053427696228027 11.949954986572266 L12.053427696228027 11.949954986572266"></path></svg>