<svg xmlns="http://www.w3.org/2000/svg" viewBox="0.0 0.0 24.0 24.0" height="200px" width="200px"><path fill="none" stroke="black" stroke-width=".3" stroke-opacity="1.0"  filling="0" d="M12.427908897399902 11.837645530700684 L12.427908897399902 11.837645530700684 C12.433472633361816 11.88070011138916 12.43903636932373 11.92375373840332 12.444600105285645 11.966808319091797 L12.444600105285645 11.966808319091797 C12.492382049560547 11.97047233581543 12.54016399383545 11.974136352539062 12.587945938110352 11.977800369262695 L12.587945938110352 11.977800369262695 C12.601055145263672 12.067018508911133 12.614163398742676 12.15623664855957 12.627272605895996 12.245454788208008 L12.627272605895996 12.245454788208008 C12.600000381469727 12.245454788208008 12.57272720336914 12.245454788208008 12.545454978942871 12.245454788208008 L12.545454978942871 12.245454788208008 C12.532572746276855 12.163636207580566 12.519691467285156 12.081818580627441 12.50680923461914 12.0 L12.50680923461914 12.0 C12.457239151000977 12.066662788391113 12.452322959899902 12.16316032409668 12.463664054870605 12.245454788208008 L12.463664054870605 12.245454788208008 C12.427290916442871 12.245454788208008 12.390918731689453 12.245454788208008 12.354545593261719 12.245454788208008 L12.354545593261719 12.245454788208008 C12.364263534545898 12.111126899719238 12.373982429504395 11.976799964904785 12.383700370788574 11.842472076416016 L12.383700370788574 11.842472076416016 C12.398436546325684 11.840863227844238 12.413172721862793 11.839254379272461 12.427908897399902 11.837645530700684 L12.427908897399902 11.837645530700684"></path></svg>