<svg xmlns="http://www.w3.org/2000/svg" viewBox="0.0 0.0 24.0 24.0" height="200px" width="200px"><path fill="none" stroke="black" stroke-width=".3" stroke-opacity="1.0"  filling="0" d="M10.122272491455078 12.001254081726074 L10.122272491455078 12.001254081726074 C10.189836502075195 12.001254081726074 10.257399559020996 12.001254081726074 10.324963569641113 12.001254081726074 L10.324963569641113 12.001254081726074 C10.302309036254883 12.050063133239746 10.279654502868652 12.098872184753418 10.256999969482422 12.14768123626709 L10.256999969482422 12.14768123626709 C10.285172462463379 12.159954071044922 10.313344955444336 12.172226905822754 10.341517448425293 12.184499740600586 L10.341517448425293 12.184499740600586 C10.273162841796875 12.206317901611328 10.204809188842773 12.228135108947754 10.136454582214355 12.249953269958496 L10.136454582214355 12.249953269958496 C10.12867259979248 12.242399215698242 10.120890617370605 12.234845161437988 10.11310863494873 12.227291107177734 L10.11310863494873 12.227291107177734 C10.138190269470215 12.18034553527832 10.163272857666016 12.133399963378906 10.1883544921875 12.086454391479492 L10.1883544921875 12.086454391479492 C10.164881706237793 12.067117691040039 10.141408920288086 12.047781944274902 10.117936134338379 12.02844524383545 L10.117936134338379 12.02844524383545 C10.11938190460205 12.019381523132324 10.120826721191406 12.0103178024292 10.122272491455078 12.001254081726074 L10.122272491455078 12.001254081726074"></path></svg>