<svg xmlns="http://www.w3.org/2000/svg" viewBox="0.0 0.0 24.0 24.0" height="200px" width="200px"><path fill="none" stroke="black" stroke-width=".3" stroke-opacity="1.0"  filling="0" d="M12.701019287109375 11.977581024169922 L12.701019287109375 11.977581024169922 C12.758264541625977 11.989998817443848 12.815510749816895 12.00241756439209 12.872756004333496 12.014835357666016 L12.872756004333496 12.014835357666016 C12.872756004333496 12.091708183288574 12.872756004333496 12.168581008911133 12.872756004333496 12.245453834533691 L12.872756004333496 12.245453834533691 C12.818201065063477 12.245453834533691 12.763646125793457 12.245454788208008 12.709091186523438 12.245454788208008 L12.709091186523438 12.245454788208008 C12.689200401306152 12.21634578704834 12.66930866241455 12.187236785888672 12.649417877197266 12.158127784729004 L12.649417877197266 12.158127784729004 C12.697981834411621 12.114072799682617 12.746545791625977 12.070018768310547 12.795109748840332 12.02596378326416 L12.795109748840332 12.02596378326416 C12.789209365844727 12.018508911132812 12.783309936523438 12.011054992675781 12.777409553527832 12.003600120544434 L12.777409553527832 12.003600120544434 C12.747973442077637 12.023272514343262 12.718537330627441 12.042945861816406 12.689101219177246 12.062618255615234 L12.689101219177246 12.062618255615234 C12.693074226379395 12.034272193908691 12.697046279907227 12.005927085876465 12.701019287109375 11.977581024169922 L12.701019287109375 11.977581024169922"></path></svg>