<svg xmlns="http://www.w3.org/2000/svg" viewBox="0.0 0.0 24.0 24.0" height="200px" width="200px"><path fill="none" stroke="black" stroke-width=".3" stroke-opacity="1.0"  filling="0" d="M13.097290992736816 12.014183044433594 L13.097290992736816 12.014183044433594 C13.142082214355469 12.026691436767578 13.186872482299805 12.039200782775879 13.231663703918457 12.051709175109863 L13.231663703918457 12.051709175109863 C13.232254981994629 12.064200401306152 13.232845306396484 12.076690673828125 13.233436584472656 12.089181900024414 L13.233436584472656 12.089181900024414 C13.202799797058105 12.109336853027344 13.172163963317871 12.129491806030273 13.14152717590332 12.149646759033203 L13.14152717590332 12.149646759033203 C13.127445220947266 12.118474006652832 13.113363265991211 12.087301254272461 13.099281311035156 12.05612850189209 L13.099281311035156 12.05612850189209 C13.035890579223633 12.089156150817871 13.157816886901855 12.18773078918457 13.199973106384277 12.245454788208008 L13.199973106384277 12.245454788208008 C13.14543628692627 12.245454788208008 13.090900421142578 12.245454788208008 13.03636360168457 12.245454788208008 L13.03636360168457 12.245454788208008 C13.013444900512695 12.169099807739258 13.055980682373047 12.082365989685059 13.097290992736816 12.014183044433594 L13.097290992736816 12.014183044433594"></path></svg>