<svg xmlns="http://www.w3.org/2000/svg" viewBox="0.0 0.0 24.0 24.0" height="200px" width="200px"><path fill="none" stroke="black" stroke-width=".3" stroke-opacity="1.0"  filling="0" d="M11.855700492858887 11.915481567382812 L11.855700492858887 11.915481567382812 C11.873172760009766 12.004481315612793 11.890645980834961 12.09348201751709 11.90811824798584 12.18248176574707 L11.90811824798584 12.18248176574707 C11.887810707092285 12.18567180633545 11.865951538085938 12.186429023742676 11.846508979797363 12.179754257202148 L11.846508979797363 12.179754257202148 C11.817099571228027 12.111527442932129 11.787691116333008 12.043299674987793 11.758281707763672 11.975072860717773 L11.758281707763672 11.975072860717773 C11.758281707763672 12.043627738952637 11.758281707763672 12.112181663513184 11.758281707763672 12.180736541748047 L11.758281707763672 12.180736541748047 C11.695837020874023 12.132447242736816 11.668522834777832 12.0477294921875 11.646655082702637 11.971880912780762 L11.646655082702637 11.971880912780762 C11.633991241455078 12.043490409851074 11.62132740020752 12.11509895324707 11.608663558959961 12.186708450317383 L11.608663558959961 12.186708450317383 C11.556848526000977 12.123258590698242 11.528282165527344 12.039548873901367 11.518036842346191 11.958272933959961 L11.518036842346191 11.958272933959961 C11.63059139251709 11.944008827209473 11.743145942687988 11.9297456741333 11.855700492858887 11.915481567382812 L11.855700492858887 11.915481567382812"></path></svg>