<svg xmlns="http://www.w3.org/2000/svg" viewBox="0.0 0.0 24.0 24.0" height="200px" width="200px"><path fill="none" stroke="black" stroke-width=".3" stroke-opacity="1.0"  filling="0" d="M12.194181442260742 11.975946426391602 L12.194181442260742 11.975946426391602 C12.303112030029297 11.986748695373535 12.378320693969727 12.136046409606934 12.381817817687988 12.245454788208008 L12.381817817687988 12.245454788208008 C12.372727394104004 12.245454788208008 12.363636016845703 12.245454788208008 12.354545593261719 12.245454788208008 L12.354545593261719 12.245454788208008 C12.337599754333496 12.163555145263672 12.320653915405273 12.081655502319336 12.30370807647705 11.999755859375 L12.30370807647705 11.999755859375 C12.254813194274902 12.068257331848145 12.246634483337402 12.161274909973145 12.245454788208008 12.245428085327148 L12.245454788208008 12.245428085327148 C12.218181610107422 12.245436668395996 12.190909385681152 12.24544620513916 12.163636207580566 12.245454788208008 L12.163636207580566 12.245454788208008 C12.163636207580566 12.161491394042969 12.163636207580566 12.077527046203613 12.163636207580566 11.993563652038574 L12.163636207580566 11.993563652038574 C12.17381763458252 11.987690925598145 12.184000015258789 11.981819152832031 12.194181442260742 11.975946426391602 L12.194181442260742 11.975946426391602"></path></svg>