<svg xmlns="http://www.w3.org/2000/svg" viewBox="0.0 0.0 24.0 24.0" height="200px" width="200px"><path fill="none" stroke="black" stroke-width=".3" stroke-opacity="1.0"  filling="0" d="M11.336454391479492 11.946054458618164 L11.336454391479492 11.946054458618164 C11.431686401367188 12.037918090820312 11.525469779968262 12.097952842712402 11.420645713806152 12.215400695800781 L11.420645713806152 12.215400695800781 C11.381372451782227 12.157464981079102 11.396309852600098 12.075838088989258 11.402999877929688 12.006165504455566 L11.402999877929688 12.006165504455566 C11.366872787475586 12.006165504455566 11.330744743347168 12.006165504455566 11.294617652893066 12.006165504455566 L11.294617652893066 12.006165504455566 C11.294617652893066 12.074583053588867 11.294617652893066 12.143000602722168 11.294617652893066 12.211418151855469 L11.294617652893066 12.211418151855469 C11.274189949035645 12.209354400634766 11.253763198852539 12.207291603088379 11.233335494995117 12.205227851867676 L11.233335494995117 12.205227851867676 C11.233335494995117 12.12061882019043 11.233335494995117 12.036008834838867 11.233335494995117 11.951399803161621 L11.233335494995117 11.951399803161621 C11.267708778381348 11.949618339538574 11.302081108093262 11.947835922241211 11.336454391479492 11.946054458618164 L11.336454391479492 11.946054458618164"></path></svg>