<svg xmlns="http://www.w3.org/2000/svg" viewBox="0.0 0.0 24.0 24.0" height="200px" width="200px"><path fill="none" stroke="black" stroke-width=".3" stroke-opacity="1.0"  filling="0" d="M14.147563934326172 11.886735916137695 L14.147563934326172 11.886735916137695 C14.151555061340332 11.936762809753418 14.155546188354492 11.986790657043457 14.159537315368652 12.03681755065918 L14.159537315368652 12.03681755065918 C14.235491752624512 11.99429988861084 14.311447143554688 11.951781272888184 14.387401580810547 11.909263610839844 L14.387401580810547 11.909263610839844 C14.334383010864258 11.955936431884766 14.281365394592285 12.002608299255371 14.228346824645996 12.049281120300293 L14.228346824645996 12.049281120300293 C14.285555839538574 12.114663124084473 14.342764854431152 12.180044174194336 14.39997386932373 12.245426177978516 L14.39997386932373 12.245426177978516 C14.281800270080566 12.24543571472168 14.163627624511719 12.245445251464844 14.045454025268555 12.245454788208008 L14.045454025268555 12.245454788208008 C14.058091163635254 12.135882377624512 14.070727348327637 12.0263090133667 14.083364486694336 11.916736602783203 L14.083364486694336 11.916736602783203 C14.104763984680176 11.906736373901367 14.126164436340332 11.896736145019531 14.147563934326172 11.886735916137695 L14.147563934326172 11.886735916137695"></path></svg>