<svg xmlns="http://www.w3.org/2000/svg" viewBox="0.0 0.0 24.0 24.0" height="200px" width="200px"><path fill="none" stroke="black" stroke-width=".3" stroke-opacity="1.0"  filling="0" d="M10.063091278076172 11.857799530029297 L10.063091278076172 11.857799530029297 C10.090555191040039 11.869635581970215 10.11801815032959 11.88147258758545 10.145482063293457 11.893308639526367 L10.145482063293457 11.893308639526367 C10.145482063293457 12.001599311828613 10.145482063293457 12.109890937805176 10.145482063293457 12.218181610107422 L10.145482063293457 12.218181610107422 C10.118208885192871 12.218181610107422 10.090936660766602 12.218181610107422 10.063663482666016 12.218181610107422 L10.063663482666016 12.218181610107422 C10.04377269744873 12.15491771697998 10.023881912231445 12.091653823852539 10.00399112701416 12.028389930725098 L10.00399112701416 12.028389930725098 C9.996609687805176 12.091653823852539 9.989227294921875 12.15491771697998 9.98184585571289 12.218181610107422 L9.98184585571289 12.218181610107422 C9.963654518127441 12.218181610107422 9.945464134216309 12.218181610107422 9.92727279663086 12.218181610107422 L9.92727279663086 12.218181610107422 C9.907546043395996 12.177545547485352 9.887818336486816 12.136908531188965 9.868091583251953 12.096272468566895 L9.868091583251953 12.096272468566895 C9.936655044555664 12.050600051879883 10.005219459533691 12.004926681518555 10.073782920837402 11.959254264831543 L10.073782920837402 11.959254264831543 C10.070219039916992 11.925436019897461 10.066655158996582 11.891617774963379 10.063091278076172 11.857799530029297 L10.063091278076172 11.857799530029297"></path></svg>