<svg xmlns="http://www.w3.org/2000/svg" viewBox="0.0 0.0 24.0 24.0" height="200px" width="200px"><path fill="none" stroke="black" stroke-width=".3" stroke-opacity="1.0"  filling="0" d="M11.242936134338379 11.829818725585938 L11.242936134338379 11.829818725585938 C11.27820873260498 11.887972831726074 11.313482284545898 11.946127891540527 11.3487548828125 12.004281997680664 L11.3487548828125 12.004281997680664 C11.387327194213867 11.947955131530762 11.42590045928955 11.891627311706543 11.464472770690918 11.83530044555664 L11.464472770690918 11.83530044555664 C11.487255096435547 11.909672737121582 11.51003646850586 11.98404598236084 11.532818794250488 12.058418273925781 L11.532818794250488 12.058418273925781 C11.557727813720703 11.982991218566895 11.582636833190918 11.907563209533691 11.607545852661133 11.832136154174805 L11.607545852661133 11.832136154174805 C11.723886489868164 11.884075164794922 11.610791206359863 12.089630126953125 11.58060073852539 12.213409423828125 L11.58060073852539 12.213409423828125 C11.565536499023438 12.215782165527344 11.5504732131958 12.218154907226562 11.535408973693848 12.220527648925781 L11.535408973693848 12.220527648925781 C11.500126838684082 12.164763450622559 11.464845657348633 12.109000205993652 11.429563522338867 12.05323600769043 L11.429563522338867 12.05323600769043 C11.413963317871094 12.099554061889648 11.39836311340332 12.145873069763184 11.382762908935547 12.192191123962402 L11.382762908935547 12.192191123962402 C11.257307052612305 12.163265228271484 11.243571281433105 11.970154762268066 11.213672637939453 11.844926834106445 L11.213672637939453 11.844926834106445 C11.223426818847656 11.839890480041504 11.233181953430176 11.834855079650879 11.242936134338379 11.829818725585938 L11.242936134338379 11.829818725585938"></path></svg>