<svg xmlns="http://www.w3.org/2000/svg" viewBox="0.0 0.0 24.0 24.0" height="200px" width="200px"><path fill="none" stroke="black" stroke-width=".3" stroke-opacity="1.0"  filling="0" d="M11.170636177062988 11.993318557739258 L11.170636177062988 11.993318557739258 C11.250018119812012 12.049727439880371 11.317902565002441 12.148072242736816 11.318208694458008 12.245454788208008 L11.318208694458008 12.245454788208008 C11.281845092773438 12.245454788208008 11.245481491088867 12.245454788208008 11.209117889404297 12.245454788208008 L11.209117889404297 12.245454788208008 C11.228599548339844 12.216490745544434 11.248082160949707 12.187527656555176 11.267563819885254 12.158563613891602 L11.267563819885254 12.158563613891602 C11.22674560546875 12.117318153381348 11.185928344726562 12.076072692871094 11.145110130310059 12.03482723236084 L11.145110130310059 12.03482723236084 C11.157355308532715 12.105036735534668 11.169600486755371 12.17524528503418 11.181845664978027 12.245454788208008 L11.181845664978027 12.245454788208008 C11.136382102966309 12.245454788208008 11.09091854095459 12.245454788208008 11.045454978942871 12.245454788208008 L11.045454978942871 12.245454788208008 C11.059354782104492 12.16766357421875 11.073254585266113 12.089872360229492 11.087154388427734 12.012081146240234 L11.087154388427734 12.012081146240234 C11.114981651306152 12.005826950073242 11.14280891418457 11.99957275390625 11.170636177062988 11.993318557739258 L11.170636177062988 11.993318557739258"></path></svg>