<svg xmlns="http://www.w3.org/2000/svg" viewBox="0.0 0.0 24.0 24.0" height="200px" width="200px"><path fill="none" stroke="black" stroke-width=".3" stroke-opacity="1.0"  filling="0" d="M10.649890899658203 11.949054718017578 L10.649890899658203 11.949054718017578 C10.671454429626465 12.035272598266602 10.693018913269043 12.121491432189941 10.714582443237305 12.207709312438965 L10.714582443237305 12.207709312438965 C10.681082725524902 12.207709312438965 10.647582054138184 12.207709312438965 10.614082336425781 12.207709312438965 L10.614082336425781 12.207709312438965 C10.595364570617676 12.13910961151123 10.576645851135254 12.07050895690918 10.557928085327148 12.001909255981445 L10.557928085327148 12.001909255981445 C10.557928085327148 12.071609497070312 10.557928085327148 12.141308784484863 10.557928085327148 12.21100902557373 L10.557928085327148 12.21100902557373 C10.526609420776367 12.21100902557373 10.495290756225586 12.21100902557373 10.463972091674805 12.21100902557373 L10.463972091674805 12.21100902557373 C10.46961784362793 12.129927635192871 10.475263595581055 12.048845291137695 10.48090934753418 11.967763900756836 L10.48090934753418 11.967763900756836 C10.537236213684082 11.961527824401855 10.5935640335083 11.955290794372559 10.649890899658203 11.949054718017578 L10.649890899658203 11.949054718017578"></path></svg>