<svg xmlns="http://www.w3.org/2000/svg" viewBox="0.0 0.0 24.0 24.0" height="200px" width="200px"><path fill="none" stroke="black" stroke-width=".3" stroke-opacity="1.0"  filling="0" d="M12.381682395935059 11.856819152832031 L12.381682395935059 11.856819152832031 C12.39240550994873 11.974766731262207 12.396361351013184 12.098689079284668 12.360218048095703 12.21147346496582 L12.360218048095703 12.21147346496582 C12.290200233459473 12.216382026672363 12.220182418823242 12.221291542053223 12.150164604187012 12.226200103759766 L12.150164604187012 12.226200103759766 C12.15711784362793 12.081053733825684 12.241683006286621 11.895756721496582 12.381682395935059 11.856819152832031 L12.381682395935059 11.856819152832031"></path>
<path fill="none" stroke="black" stroke-width=".3" stroke-opacity="1.0"  filling="0" d="M12.261190414428711 11.860855102539062 L12.261190414428711 11.860855102539062 C12.268527030944824 11.897427558898926 12.275864601135254 11.934000015258789 12.283201217651367 11.970572471618652 L12.283201217651367 11.970572471618652 C12.303009986877441 12.039454460144043 12.322818756103516 12.108336448669434 12.34262752532959 12.177218437194824 L12.34262752532959 12.177218437194824 C12.300527572631836 12.159245491027832 12.258427619934082 12.141273498535156 12.216327667236328 12.123300552368164 L12.216327667236328 12.123300552368164 C12.231282234191895 12.035819053649902 12.246235847473145 11.948336601257324 12.261190414428711 11.860855102539062 L12.261190414428711 11.860855102539062"></path></svg>