<svg xmlns="http://www.w3.org/2000/svg" viewBox="0.0 0.0 24.0 24.0" height="200px" width="200px"><path fill="none" stroke="black" stroke-width=".3" stroke-opacity="1.0"  filling="0" d="M10.707873344421387 11.963836669921875 L10.707873344421387 11.963836669921875 C10.729491233825684 12.057709693908691 10.751110076904297 12.151581764221191 10.772727966308594 12.245454788208008 L10.772727966308594 12.245454788208008 C10.754546165466309 12.245454788208008 10.736364364624023 12.245454788208008 10.718182563781738 12.245454788208008 L10.718182563781738 12.245454788208008 C10.699238777160645 12.171483039855957 10.682144165039062 12.097046852111816 10.664999961853027 12.022637367248535 L10.664999961853027 12.022637367248535 C10.639934539794922 12.093199729919434 10.621221542358398 12.172124862670898 10.636390686035156 12.245454788208008 L10.636390686035156 12.245454788208008 C10.627290725708008 12.245454788208008 10.61819076538086 12.245454788208008 10.609090805053711 12.245454788208008 L10.609090805053711 12.245454788208008 C10.588790893554688 12.23165512084961 10.568490982055664 12.217854499816895 10.54819107055664 12.204054832458496 L10.54819107055664 12.204054832458496 C10.552072525024414 12.129464149475098 10.555954933166504 12.054872512817383 10.559836387634277 11.980281829833984 L10.559836387634277 11.980281829833984 C10.609182357788086 11.974800109863281 10.658527374267578 11.969318389892578 10.707873344421387 11.963836669921875 L10.707873344421387 11.963836669921875"></path></svg>