<svg xmlns="http://www.w3.org/2000/svg" viewBox="0.0 0.0 24.0 24.0" height="200px" width="200px"><path fill="none" stroke="black" stroke-width=".3" stroke-opacity="1.0"  filling="0" d="M12.897327423095703 11.977336883544922 L12.897327423095703 11.977336883544922 C12.968363761901855 11.977336883544922 13.039400100708008 11.977336883544922 13.11043643951416 11.977336883544922 L13.11043643951416 11.977336883544922 C13.122109413146973 12.066718101501465 13.133781433105469 12.156100273132324 13.145454406738281 12.245481491088867 L13.145454406738281 12.245481491088867 C13.118181228637695 12.245481491088867 13.090909004211426 12.245481491088867 13.06363582611084 12.245481491088867 L13.06363582611084 12.245481491088867 C13.044692993164062 12.171533584594727 13.027750968933105 12.09708309173584 13.010754585266113 12.022663116455078 L13.010754585266113 12.022663116455078 C12.995452880859375 12.095979690551758 12.978241920471191 12.170669555664062 12.981817245483398 12.24548053741455 L12.981817245483398 12.24548053741455 C12.963635444641113 12.245471954345703 12.945454597473145 12.245463371276855 12.92727279663086 12.245454788208008 L12.92727279663086 12.245454788208008 C12.892600059509277 12.162479400634766 12.897941589355469 12.067262649536133 12.897327423095703 11.977336883544922 L12.897327423095703 11.977336883544922"></path></svg>