<svg xmlns="http://www.w3.org/2000/svg" viewBox="0.0 0.0 24.0 24.0" height="200px" width="200px"><path fill="none" stroke="black" stroke-width=".3" stroke-opacity="1.0"  filling="0" d="M13.573336601257324 11.939562797546387 L13.573336601257324 11.939562797546387 C13.584745407104492 11.945162773132324 13.596155166625977 11.950763702392578 13.607563972473145 11.956363677978516 L13.607563972473145 11.956363677978516 C13.571463584899902 12.04733657836914 13.53536319732666 12.13830852508545 13.499262809753418 12.229281425476074 L13.499262809753418 12.229281425476074 C13.47089958190918 12.193591117858887 13.442536354064941 12.157899856567383 13.414173126220703 12.122209548950195 L13.414173126220703 12.122209548950195 C13.383818626403809 12.1569185256958 13.353464126586914 12.19162654876709 13.32310962677002 12.226335525512695 L13.32310962677002 12.226335525512695 C13.292145729064941 12.138627052307129 13.261181831359863 12.050917625427246 13.230217933654785 11.96320915222168 L13.230217933654785 11.96320915222168 C13.278326988220215 11.990772247314453 13.326436042785645 12.018336296081543 13.374545097351074 12.045899391174316 L13.374545097351074 12.045899391174316 C13.384663581848145 12.015117645263672 13.394781112670898 11.984335899353027 13.404899597167969 11.953554153442383 L13.404899597167969 11.953554153442383 C13.43681812286377 11.987500190734863 13.468735694885254 12.021445274353027 13.500654220581055 12.055391311645508 L13.500654220581055 12.055391311645508 C13.524881362915039 12.0167818069458 13.54910945892334 11.978172302246094 13.573336601257324 11.939562797546387 L13.573336601257324 11.939562797546387"></path></svg>