<svg xmlns="http://www.w3.org/2000/svg" viewBox="0.0 0.0 24.0 24.0" height="200px" width="200px"><path fill="none" stroke="black" stroke-width=".3" stroke-opacity="1.0"  filling="0" d="M10.233572006225586 11.841300010681152 L10.233572006225586 11.841300010681152 C10.289172172546387 11.841300010681152 10.344771385192871 11.841300010681152 10.400371551513672 11.841300010681152 L10.400371551513672 11.841300010681152 C10.433917045593262 11.888190269470215 10.467463493347168 11.935081481933594 10.501008987426758 11.981971740722656 L10.501008987426758 11.981971740722656 C10.532999992370605 11.935298919677734 10.564990043640137 11.888627052307129 10.596981048583984 11.841954231262207 L10.596981048583984 11.841954231262207 C10.646026611328125 11.841954231262207 10.695072174072266 11.841954231262207 10.744117736816406 11.841954231262207 L10.744117736816406 11.841954231262207 C10.691299438476562 11.932090759277344 10.638481140136719 12.02222728729248 10.585662841796875 12.112363815307617 L10.585662841796875 12.112363815307617 C10.648544311523438 12.209309577941895 10.711426734924316 12.306254386901855 10.774308204650879 12.403200149536133 L10.774308204650879 12.403200149536133 C10.715171813964844 12.403200149536133 10.656035423278809 12.403200149536133 10.596899032592773 12.403200149536133 L10.596899032592773 12.403200149536133 C10.560689926147461 12.349517822265625 10.524480819702148 12.295836448669434 10.488271713256836 12.242154121398926 L10.488271713256836 12.242154121398926 C10.423297882080078 12.335551261901855 10.309535026550293 12.403631210327148 10.196944236755371 12.420000076293945 L10.196944236755371 12.420000076293945 C10.394242286682129 12.13244342803955 10.419654846191406 12.12652587890625 10.233572006225586 11.841300010681152 L10.233572006225586 11.841300010681152"></path></svg>