<svg xmlns="http://www.w3.org/2000/svg" viewBox="0.0 0.0 24.0 24.0" height="200px" width="200px"><path fill="none" stroke="black" stroke-width=".3" stroke-opacity="1.0"  filling="0" d="M11.418081283569336 10.930363655090332 L11.418081283569336 10.930363655090332 C11.529011726379395 11.131882667541504 12.092453002929688 11.835372924804688 11.925626754760742 12.033926963806152 C11.66335391998291 12.34607982635498 10.862067222595215 12.606929779052734 10.798253059387207 13.047954559326172 C10.72266674041748 13.57033920288086 10.84906005859375 14.5096435546875 11.516561508178711 13.893299102783203 L11.516561508178711 13.893299102783203 C11.524435043334961 13.89451789855957 11.532308578491211 13.895735740661621 11.540182113647461 13.896954536437988 L11.540182113647461 13.896954536437988 C11.39784049987793 14.211690902709961 10.948922157287598 14.572376251220703 10.745290756225586 14.833471298217773 L10.745290756225586 14.833471298217773 C9.375700950622559 13.719220161437988 9.954768180847168 11.652603149414062 11.418081283569336 10.930363655090332 L11.418081283569336 10.930363655090332"></path>
<path fill="none" stroke="black" stroke-width=".3" stroke-opacity="1.0"  filling="0" d="M10.899872779846191 11.365089416503906 L10.899872779846191 11.365089416503906 C11.06136417388916 11.702371597290039 11.222854614257812 12.039653778076172 11.384346008300781 12.376935958862305 L11.384346008300781 12.376935958862305 C11.20141887664795 12.522690773010254 11.018491744995117 12.668444633483887 10.835564613342285 12.814199447631836 L10.835564613342285 12.814199447631836 C10.709044456481934 12.365219116210938 10.800800323486328 11.88171100616455 10.800272941589355 11.415245056152344 L10.800272941589355 11.415245056152344 C10.833473205566406 11.398526191711426 10.86667251586914 11.381808280944824 10.899872779846191 11.365089416503906 L10.899872779846191 11.365089416503906"></path></svg>