<svg xmlns="http://www.w3.org/2000/svg" viewBox="0.0 0.0 24.0 24.0" height="200px" width="200px"><path fill="none" stroke="black" stroke-width=".3" stroke-opacity="1.0"  filling="0" d="M12.540844917297363 11.78604507446289 L12.540844917297363 11.78604507446289 C12.54416561126709 11.87287425994873 12.546263694763184 11.959771156311035 12.546381950378418 12.046663284301758 L12.546381950378418 12.046663284301758 C12.556673049926758 12.050863265991211 12.566963195800781 12.055063247680664 12.577254295349121 12.059263229370117 L12.577254295349121 12.059263229370117 C12.605385780334473 12.008145332336426 12.639378547668457 11.958934783935547 12.681791305541992 11.918864250183105 L12.681791305541992 11.918864250183105 C12.700145721435547 11.97680950164795 12.718500137329102 12.03475570678711 12.736854553222656 12.092700958251953 L12.736854553222656 12.092700958251953 C12.759571075439453 12.037339210510254 12.737003326416016 11.932284355163574 12.677864074707031 11.923145294189453 L12.677864074707031 11.923145294189453 C12.85973072052002 11.824596405029297 13.031286239624023 11.994377136230469 12.628036499023438 12.080890655517578 L12.628036499023438 12.080890655517578 C12.573382377624512 12.092645645141602 12.51872730255127 12.104399681091309 12.464073181152344 12.116154670715332 L12.464073181152344 12.116154670715332 C12.489664077758789 12.006117820739746 12.515254020690918 11.896081924438477 12.540844917297363 11.78604507446289 L12.540844917297363 11.78604507446289"></path></svg>