<svg xmlns="http://www.w3.org/2000/svg" viewBox="0.0 0.0 24.0 24.0" height="200px" width="200px"><path fill="none" stroke="black" stroke-width=".3" stroke-opacity="1.0"  filling="0" d="M12.171682357788086 11.872963905334473 L12.171682357788086 11.872963905334473 C12.27750015258789 11.895535469055176 12.380921363830566 12.025078773498535 12.366819381713867 12.132354736328125 L12.366819381713867 12.132354736328125 C12.32553768157959 12.135845184326172 12.284255027770996 12.139336585998535 12.242973327636719 12.142827033996582 L12.242973327636719 12.142827033996582 C12.261046409606934 12.180526733398438 12.279119491577148 12.21822738647461 12.297192573547363 12.255927085876465 L12.297192573547363 12.255927085876465 C12.232901573181152 12.255927085876465 12.168610572814941 12.255927085876465 12.10431957244873 12.255927085876465 L12.10431957244873 12.255927085876465 C12.126773834228516 12.128273010253906 12.1492280960083 12.000617980957031 12.171682357788086 11.872963905334473 L12.171682357788086 11.872963905334473"></path>
<path fill="none" stroke="black" stroke-width=".3" stroke-opacity="1.0"  filling="0" d="M12.286036491394043 11.935799598693848 L12.286036491394043 11.935799598693848 C12.29782772064209 11.942181587219238 12.30961799621582 11.948562622070312 12.321409225463867 11.954944610595703 L12.321409225463867 11.954944610595703 C12.321409225463867 12.003853797912598 12.321409225463867 12.052762985229492 12.321409225463867 12.101672172546387 L12.321409225463867 12.101672172546387 C12.27616024017334 12.067781448364258 12.256169319152832 11.983800888061523 12.286036491394043 11.935799598693848 L12.286036491394043 11.935799598693848"></path></svg>