<svg xmlns="http://www.w3.org/2000/svg" viewBox="0.0 0.0 24.0 24.0" height="200px" width="200px"><path fill="none" stroke="black" stroke-width=".3" stroke-opacity="1.0"  filling="0" d="M9.886472702026367 11.836963653564453 L9.886472702026367 11.836963653564453 C9.896982192993164 11.83829116821289 9.907491683959961 11.839617729187012 9.918001174926758 11.84094524383545 L9.918001174926758 11.84094524383545 C9.923019409179688 11.879681587219238 9.9280366897583 11.918417930603027 9.93305492401123 11.957154273986816 L9.93305492401123 11.957154273986816 C10.021263122558594 12.00537109375 10.089801788330078 12.114028930664062 10.090200424194336 12.214553833007812 L10.090200424194336 12.214553833007812 C10.0733003616333 12.216163635253906 10.056400299072266 12.217772483825684 10.03950023651123 12.219382286071777 L10.03950023651123 12.219382286071777 C10.022163391113281 12.160218238830566 10.004827499389648 12.101055145263672 9.9874906539917 12.041891098022461 L9.9874906539917 12.041891098022461 C9.97848129272461 12.041463851928711 9.969472885131836 12.041036605834961 9.960463523864746 12.040609359741211 L9.960463523864746 12.040609359741211 C9.949345588684082 12.109946250915527 9.938226699829102 12.179282188415527 9.927108764648438 12.248619079589844 L9.927108764648438 12.248619079589844 C9.860678672790527 12.127790451049805 9.86623477935791 11.973356246948242 9.886472702026367 11.836963653564453 L9.886472702026367 11.836963653564453"></path></svg>