<svg xmlns="http://www.w3.org/2000/svg" viewBox="0.0 0.0 24.0 24.0" height="200px" width="200px"><path fill="none" stroke="black" stroke-width=".3" stroke-opacity="1.0"  filling="0" d="M11.942399024963379 11.71104621887207 L11.942399024963379 11.71104621887207 C12.042835235595703 11.77090072631836 12.143272399902344 11.830755233764648 12.243708610534668 11.890609741210938 L12.243708610534668 11.890609741210938 C12.122346878051758 11.933152198791504 11.984029769897461 11.920174598693848 11.866827011108398 11.973109245300293 L11.866827011108398 11.973109245300293 C11.943208694458008 12.024537086486816 12.019590377807617 12.075963973999023 12.095972061157227 12.127391815185547 L12.095972061157227 12.127391815185547 C11.998863220214844 12.10342788696289 11.901754379272461 12.07946491241455 11.804645538330078 12.055500984191895 L11.804645538330078 12.055500984191895 C11.765599250793457 12.10498332977295 11.726553916931152 12.154464721679688 11.687507629394531 12.203947067260742 L11.687507629394531 12.203947067260742 C11.768425941467285 12.254992485046387 11.849344253540039 12.306036949157715 11.930262565612793 12.35708236694336 L11.930262565612793 12.35708236694336 C11.906444549560547 12.381573677062988 11.8826265335083 12.4060640335083 11.858808517456055 12.43055534362793 L11.862627983093262 12.434264183044434 C11.755127906799316 12.461727142333984 11.647626876831055 12.489191055297852 11.54012680053711 12.516654014587402 L11.54012680053711 12.516654014587402 C11.505054473876953 12.514148712158203 11.472978591918945 12.49219799041748 11.445218086242676 12.47061824798584 L11.445218086242676 12.47061824798584 C11.489399909973145 12.408454895019531 11.533580780029297 12.346290588378906 11.577762603759766 12.284127235412598 L11.577762603759766 12.284127235412598 C11.45736312866211 11.946039199829102 11.634543418884277 11.751056671142578 11.942399024963379 11.71104621887207 L11.942399024963379 11.71104621887207"></path></svg>