<svg xmlns="http://www.w3.org/2000/svg" viewBox="0.0 0.0 24.0 24.0" height="200px" width="200px"><path fill="none" stroke="black" stroke-width=".3" stroke-opacity="1.0"  filling="0" d="M12.524972915649414 11.840563774108887 L12.524972915649414 11.840563774108887 C12.540791511535645 11.963863372802734 12.556609153747559 12.087162971496582 12.572427749633789 12.21046257019043 L12.572427749633789 12.21046257019043 C12.514400482177734 12.21046257019043 12.45637321472168 12.21046257019043 12.398345947265625 12.21046257019043 L12.398345947265625 12.21046257019043 C12.372018814086914 12.173871994018555 12.345690727233887 12.13728141784668 12.319363594055176 12.100690841674805 L12.319363594055176 12.100690841674805 C12.345345497131348 12.046945571899414 12.37132740020752 11.993199348449707 12.397309303283691 11.939454078674316 L12.397309303283691 11.939454078674316 C12.407818794250488 11.941699981689453 12.418328285217285 11.943944931030273 12.428837776184082 11.94619083404541 L12.428837776184082 11.94619083404541 C12.449155807495117 12.019654273986816 12.469472885131836 12.093118667602539 12.489790916442871 12.166582107543945 L12.489790916442871 12.166582107543945 C12.489790916442871 12.058490753173828 12.489790916442871 11.950399398803711 12.489790916442871 11.842308044433594 L12.489790916442871 11.842308044433594 C12.501518249511719 11.841726303100586 12.513245582580566 11.841145515441895 12.524972915649414 11.840563774108887 L12.524972915649414 11.840563774108887"></path></svg>