<svg xmlns="http://www.w3.org/2000/svg" viewBox="0.0 0.0 24.0 24.0" height="200px" width="200px"><path fill="none" stroke="black" stroke-width=".3" stroke-opacity="1.0"  filling="0" d="M12.085500717163086 11.952436447143555 L12.085500717163086 11.952436447143555 C12.101536750793457 11.958754539489746 12.117572784423828 11.965073585510254 12.1336088180542 11.971391677856445 L12.1336088180542 11.971391677856445 C12.14398193359375 12.018282890319824 12.154354095458984 12.065173149108887 12.164727210998535 12.112064361572266 L12.164727210998535 12.112064361572266 C12.191372871398926 12.136628150939941 12.218018531799316 12.1611909866333 12.244664192199707 12.185754776000977 L12.244664192199707 12.185754776000977 C12.252327919006348 12.180609703063965 12.259990692138672 12.175463676452637 12.267654418945312 12.170318603515625 L12.267654418945312 12.170318603515625 C12.2693452835083 12.195363998413086 12.271036148071289 12.220409393310547 12.272727012634277 12.245454788208008 L12.272727012634277 12.245454788208008 C12.199999809265137 12.245454788208008 12.127272605895996 12.245454788208008 12.054545402526855 12.245454788208008 L12.054545402526855 12.245454788208008 C12.064864158630371 12.147782325744629 12.07518196105957 12.050108909606934 12.085500717163086 11.952436447143555 L12.085500717163086 11.952436447143555"></path></svg>