<svg xmlns="http://www.w3.org/2000/svg" viewBox="0.0 0.0 24.0 24.0" height="200px" width="200px"><path fill="none" stroke="black" stroke-width=".3" stroke-opacity="1.0"  filling="0" d="M10.70530891418457 11.999590873718262 L10.70530891418457 11.999590873718262 C10.766548156738281 12.062551498413086 10.800210952758789 12.1576509475708 10.800000190734863 12.245481491088867 L10.800000190734863 12.245481491088867 C10.772727966308594 12.245481491088867 10.745454788208008 12.245481491088867 10.718182563781738 12.245481491088867 L10.718182563781738 12.245481491088867 C10.718182563781738 12.177417755126953 10.718182563781738 12.109354972839355 10.718182563781738 12.041291236877441 L10.718182563781738 12.041291236877441 C10.690909385681152 12.109354972839355 10.663636207580566 12.177417755126953 10.63636302947998 12.245481491088867 L10.63636302947998 12.245481491088867 C10.618181228637695 12.245481491088867 10.59999942779541 12.245481491088867 10.581817626953125 12.245481491088867 L10.581817626953125 12.245481491088867 C10.568281173706055 12.172591209411621 10.554744720458984 12.099699974060059 10.541208267211914 12.026809692382812 L10.541208267211914 12.026809692382812 C10.532735824584961 12.028191566467285 10.524263381958008 12.029572486877441 10.515790939331055 12.030954360961914 L10.515790939331055 12.030954360961914 C10.492345809936523 12.075190544128418 10.468899726867676 12.119427680969238 10.445454597473145 12.163663864135742 L10.445454597473145 12.163663864135742 C10.445454597473145 12.109108924865723 10.445454597473145 12.05455493927002 10.445454597473145 12.0 L10.445454597473145 12.0 C10.532073020935059 11.999863624572754 10.618690490722656 11.999727249145508 10.70530891418457 11.999590873718262 L10.70530891418457 11.999590873718262"></path></svg>