<svg xmlns="http://www.w3.org/2000/svg" viewBox="0.0 0.0 24.0 24.0" height="200px" width="200px"><path fill="none" stroke="black" stroke-width=".3" stroke-opacity="1.0"  filling="0" d="M11.821473121643066 11.92592716217041 L11.821473121643066 11.92592716217041 C11.832718849182129 11.926508903503418 11.843963623046875 11.927090644836426 11.855209350585938 11.927672386169434 L11.855209350585938 11.927672386169434 C11.87728214263916 12.015109062194824 11.899354934692383 12.102544784545898 11.921427726745605 12.189981460571289 L11.921427726745605 12.189981460571289 C11.839454650878906 12.183245658874512 11.757482528686523 12.176508903503418 11.675509452819824 12.16977310180664 L11.675509452819824 12.16977310180664 C11.70730972290039 12.127699851989746 11.73910903930664 12.085627555847168 11.770909309387207 12.043554306030273 L11.770909309387207 12.043554306030273 C11.770909309387207 12.073254585266113 11.770909309387207 12.102954864501953 11.770909309387207 12.132655143737793 L11.770909309387207 12.132655143737793 C11.788090705871582 12.13347339630127 11.805273056030273 12.134291648864746 11.822454452514648 12.135109901428223 L11.822454452514648 12.135109901428223 C11.822454452514648 12.079582214355469 11.822454452514648 12.024055480957031 11.822454452514648 11.968527793884277 L11.822454452514648 11.968527793884277 C11.794663429260254 11.984772682189941 11.766873359680176 12.001018524169922 11.739082336425781 12.017263412475586 L11.739082336425781 12.017263412475586 C11.766546249389648 11.986818313598633 11.7940092086792 11.956372261047363 11.821473121643066 11.92592716217041 L11.821473121643066 11.92592716217041"></path></svg>