<svg xmlns="http://www.w3.org/2000/svg" viewBox="0.0 0.0 24.0 24.0" height="200px" width="200px"><path fill="none" stroke="black" stroke-width=".3" stroke-opacity="1.0"  filling="0" d="M24.73336410522461 11.726153373718262 L24.73336410522461 11.726153373718262 C26.47966194152832 11.734416961669922 26.158945083618164 13.601974487304688 25.300827026367188 14.461853981018066 C24.135744094848633 15.629326820373535 23.354589462280273 13.278692245483398 22.506328582763672 13.946725845336914 C21.85110855102539 14.462732315063477 22.594985961914062 14.888903617858887 22.92967987060547 14.8906888961792 L22.92967987060547 14.8906888961792 C22.546560287475586 15.345560073852539 21.798269271850586 13.560883522033691 22.9853458404541 13.485107421875 C23.93827247619629 13.424278259277344 24.4580135345459 15.02983283996582 25.15044593811035 14.374225616455078 C25.765064239501953 13.792295455932617 25.307641983032227 10.881573677062988 24.06084442138672 12.255953788757324 L24.06084442138672 12.255953788757324 C24.05019760131836 12.249781608581543 24.039552688598633 12.243608474731445 24.028905868530273 12.237436294555664 L24.028905868530273 12.237436294555664 C24.076147079467773 11.886085510253906 24.439254760742188 11.774479866027832 24.73336410522461 11.726153373718262 L24.73336410522461 11.726153373718262"></path></svg>