<svg xmlns="http://www.w3.org/2000/svg" viewBox="0.0 0.0 24.0 24.0" height="200px" width="200px"><path fill="none" stroke="black" stroke-width=".3" stroke-opacity="1.0"  filling="0" d="M14.819671630859375 11.86759090423584 L14.819671630859375 11.86759090423584 C14.872749328613281 11.928153991699219 14.89400577545166 12.014847755432129 14.901026725769043 12.095071792602539 L14.901026725769043 12.095071792602539 C14.826654434204102 12.088663101196289 14.752281188964844 12.082253456115723 14.677908897399902 12.075844764709473 L14.677908897399902 12.075844764709473 C14.695781707763672 12.040935516357422 14.713653564453125 12.006027221679688 14.731526374816895 11.971117973327637 L14.731526374816895 11.971117973327637 C14.74611759185791 11.999490737915039 14.76070785522461 12.027863502502441 14.775299072265625 12.056236267089844 L14.775299072265625 12.056236267089844 C14.78197193145752 12.054654121398926 14.78864574432373 12.053071975708008 14.795318603515625 12.05148983001709 L14.795318603515625 12.05148983001709 C14.795309066772461 12.002144813537598 14.795300483703613 11.952798843383789 14.79529094696045 11.903453826904297 L14.79529094696045 11.903453826904297 C14.7637357711792 11.919108390808105 14.732181549072266 11.934762954711914 14.700626373291016 11.950417518615723 L14.700626373291016 11.950417518615723 C14.740307807922363 11.922808647155762 14.779990196228027 11.8951997756958 14.819671630859375 11.86759090423584 L14.819671630859375 11.86759090423584"></path></svg>