<svg xmlns="http://www.w3.org/2000/svg" viewBox="0.0 0.0 24.0 24.0" height="200px" width="200px"><path fill="none" stroke="black" stroke-width=".3" stroke-opacity="1.0"  filling="0" d="M27.436389923095703 11.12724494934082 L27.436389923095703 11.12724494934082 C27.436389923095703 11.16360855102539 27.436389923095703 11.199972152709961 27.436389923095703 11.236335754394531 L27.436389923095703 11.236335754394531 C27.070449829101562 11.627379417419434 27.272754669189453 12.120619773864746 27.272754669189453 12.637008666992188 L27.272754669189453 12.637008666992188 C27.329591751098633 12.610995292663574 27.384187698364258 12.579806327819824 27.436389923095703 12.545427322387695 L27.436389923095703 12.545427322387695 C27.436389923095703 12.572700500488281 27.436389923095703 12.59997272491455 27.436389923095703 12.627245903015137 L27.436389923095703 12.627245903015137 C27.112667083740234 13.057476043701172 27.194162368774414 13.541146278381348 27.436363220214844 13.990880966186523 L27.436363220214844 13.990880966186523 C27.436363220214844 14.190890312194824 27.436363220214844 14.390899658203125 27.436363220214844 14.590909004211426 L27.436363220214844 14.590909004211426 C27.39115333557129 14.627336502075195 27.345945358276367 14.663763046264648 27.300735473632812 14.700190544128418 L27.300735473632812 14.700190544128418 C26.53862953186035 14.123224258422852 25.974029541015625 11.49422550201416 27.436389923095703 11.12724494934082 L27.436389923095703 11.12724494934082"></path></svg>