<svg xmlns="http://www.w3.org/2000/svg" viewBox="0.0 0.0 24.0 24.0" height="200px" width="200px"><path fill="none" stroke="black" stroke-width=".3" stroke-opacity="1.0"  filling="0" d="M10.70926284790039 10.775972366333008 L10.70926284790039 10.775972366333008 C10.850727081298828 11.0270357131958 10.992191314697266 11.27810001373291 11.133655548095703 11.529163360595703 L11.133655548095703 11.529163360595703 C10.957496643066406 11.937744140625 10.85405158996582 14.609206199645996 11.584936141967773 13.686790466308594 L11.584936141967773 13.686790466308594 C11.5939359664917 13.690363883972168 11.602935791015625 13.693936347961426 11.61193561553955 13.697509765625 L11.61193561553955 13.697509765625 C11.569445610046387 13.962069511413574 11.005602836608887 14.417139053344727 10.800326347351074 14.643791198730469 L10.800326347351074 14.643791198730469 C10.622835159301758 14.445300102233887 10.445344924926758 14.246809005737305 10.267853736877441 14.048317909240723 L10.267853736877441 14.048317909240723 C10.613120079040527 13.29390811920166 10.499704360961914 12.364712715148926 10.431571960449219 11.547545433044434 L10.431571960449219 11.547545433044434 C10.355663299560547 11.49216365814209 10.279753684997559 11.43678092956543 10.203845024108887 11.381399154663086 L10.203845024108887 11.381399154663086 C10.16495418548584 11.407318115234375 10.126063346862793 11.433236122131348 10.087172508239746 11.459155082702637 L10.087172508239746 11.459155082702637 C10.082254409790039 11.452600479125977 10.077336311340332 11.446045875549316 10.072418212890625 11.439491271972656 L10.072418212890625 11.439491271972656 C10.284699440002441 11.218317985534668 10.496981620788574 10.997145652770996 10.70926284790039 10.775972366333008 L10.70926284790039 10.775972366333008"></path></svg>