<svg xmlns="http://www.w3.org/2000/svg" viewBox="0.0 0.0 24.0 24.0" height="200px" width="200px"><path fill="none" stroke="black" stroke-width=".3" stroke-opacity="1.0"  filling="0" d="M13.045527458190918 10.671052932739258 L13.045527458190918 10.671052932739258 C13.201563835144043 10.899044036865234 13.357599258422852 11.127036094665527 13.513635635375977 11.355027198791504 L13.513635635375977 11.355027198791504 C12.964723587036133 11.916448593139648 13.127278327941895 14.352645874023438 13.718536376953125 13.692544937133789 L13.718536376953125 13.692544937133789 C13.727145195007324 13.696390151977539 13.73575496673584 13.700236320495605 13.744363784790039 13.704081535339355 L13.744363784790039 13.704081535339355 C13.59325885772705 14.040325164794922 13.151668548583984 14.306844711303711 12.906846046447754 14.589900970458984 L12.906846046447754 14.589900970458984 C12.729473114013672 14.386846542358398 12.552101135253906 14.183791160583496 12.374728202819824 13.98073673248291 L12.374728202819824 13.98073673248291 C12.846848487854004 13.345717430114746 13.140048027038574 11.13919734954834 12.193500518798828 11.493163108825684 L12.193500518798828 11.493163108825684 C12.474462509155273 11.21600341796875 12.758511543273926 10.941938400268555 13.045527458190918 10.671052932739258 L13.045527458190918 10.671052932739258"></path></svg>