<svg xmlns="http://www.w3.org/2000/svg" viewBox="0.0 0.0 24.0 24.0" height="200px" width="200px"><path fill="none" stroke="black" stroke-width=".3" stroke-opacity="1.0"  filling="0" d="M12.345736503601074 11.974964141845703 L12.345736503601074 11.974964141845703 C12.375718116760254 11.987682342529297 12.405699729919434 12.000399589538574 12.435681343078613 12.013117790222168 L12.435681343078613 12.013117790222168 C12.419609069824219 12.059662818908691 12.403535842895508 12.106208801269531 12.387463569641113 12.152753829956055 L12.387463569641113 12.152753829956055 C12.36485481262207 12.11168098449707 12.342245101928711 12.070609092712402 12.319636344909668 12.029536247253418 L12.319636344909668 12.029536247253418 C12.358545303344727 12.09829044342041 12.397454261779785 12.167044639587402 12.436363220214844 12.235798835754395 L12.436363220214844 12.235798835754395 C12.436363220214844 12.257207870483398 12.436363220214844 12.278616905212402 12.436363220214844 12.300025939941406 L12.436363220214844 12.300025939941406 C12.354544639587402 12.300017356872559 12.272727012634277 12.300007820129395 12.190908432006836 12.299999237060547 L12.190908432006836 12.299999237060547 C12.199885368347168 12.180326461791992 12.255091667175293 12.053613662719727 12.345736503601074 11.974964141845703 L12.345736503601074 11.974964141845703"></path></svg>