<svg xmlns="http://www.w3.org/2000/svg" viewBox="0.0 0.0 24.0 24.0" height="200px" width="200px"><path fill="none" stroke="black" stroke-width=".3" stroke-opacity="1.0"  filling="0" d="M18.099109649658203 12.923508644104004 L18.099109649658203 12.923508644104004 C18.17201805114746 13.74857234954834 17.9821834564209 13.914983749389648 18.64350128173828 13.64312744140625 L18.64350128173828 13.64312744140625 C18.40574073791504 13.94680404663086 18.17451286315918 14.255716323852539 17.950336456298828 14.569554328918457 L17.950336456298828 14.569554328918457 C17.77311897277832 14.240081787109375 17.59589958190918 13.910609245300293 17.418682098388672 13.581136703491211 L17.418682098388672 13.581136703491211 C17.092836380004883 13.913482666015625 16.766992568969727 14.245827674865723 16.441146850585938 14.578173637390137 L16.441146850585938 14.578173637390137 C16.3504638671875 14.429064750671387 16.259782791137695 14.27995491027832 16.169099807739258 14.13084602355957 L16.169099807739258 14.13084602355957 C16.380781173706055 13.991545677185059 16.592464447021484 13.852246284484863 16.80414581298828 13.712945938110352 L16.80414581298828 13.712945938110352 C16.843372344970703 13.749746322631836 16.882600784301758 13.786545753479004 16.92182731628418 13.823346138000488 L16.92182731628418 13.823346138000488 C17.380945205688477 13.509108543395996 17.61267852783203 13.228960037231445 18.099109649658203 12.923508644104004 L18.099109649658203 12.923508644104004"></path></svg>