<svg xmlns="http://www.w3.org/2000/svg" viewBox="0.0 0.0 24.0 24.0" height="200px" width="200px"><path fill="none" stroke="black" stroke-width=".3" stroke-opacity="1.0"  filling="0" d="M11.674118041992188 11.85930061340332 L11.674118041992188 11.85930061340332 C11.811027526855469 11.919536590576172 11.947936058044434 11.97977352142334 12.084845542907715 12.040009498596191 L12.084845542907715 12.040009498596191 C12.161758422851562 12.008118629455566 12.265645027160645 12.00048828125 12.334527015686035 12.047263145446777 L12.334527015686035 12.047263145446777 C12.327681541442871 12.059090614318848 12.320836067199707 12.070917129516602 12.313990592956543 12.082744598388672 L12.313990592956543 12.082744598388672 C12.281700134277344 12.068281173706055 12.249408721923828 12.053817749023438 12.217118263244629 12.03935432434082 L12.217118263244629 12.03935432434082 C12.211564064025879 12.088235855102539 12.206008911132812 12.137118339538574 12.200454711914062 12.185999870300293 L12.200454711914062 12.185999870300293 C12.237909317016602 12.178145408630371 12.27536392211914 12.17029094696045 12.31281852722168 12.162436485290527 L12.31281852722168 12.162436485290527 C12.2789306640625 12.424903869628906 12.116767883300781 12.097675323486328 12.109854698181152 12.07922649383545 L12.109854698181152 12.07922649383545 C11.991707801818848 12.179367065429688 11.828948974609375 12.2367582321167 11.674118041992188 12.240518569946289 L11.674118041992188 12.240518569946289 C11.674118041992188 12.113446235656738 11.674118041992188 11.986372947692871 11.674118041992188 11.85930061340332 L11.674118041992188 11.85930061340332"></path>
<path fill="none" stroke="black" stroke-width=".3" stroke-opacity="1.0"  filling="0" d="M11.784354209899902 11.896008491516113 L11.784354209899902 11.896008491516113 C11.969310760498047 12.024650573730469 12.06082534790039 12.16025161743164 11.770145416259766 12.16666316986084 L11.770145416259766 12.16666316986084 C11.774881362915039 12.076444625854492 11.779618263244629 11.986227035522461 11.784354209899902 11.896008491516113 L11.784354209899902 11.896008491516113"></path></svg>