<svg xmlns="http://www.w3.org/2000/svg" viewBox="0.0 0.0 24.0 24.0" height="200px" width="200px"><path fill="none" stroke="black" stroke-width=".3" stroke-opacity="1.0"  filling="0" d="M12.218181610107422 11.97659969329834 L12.218181610107422 11.97659969329834 C12.345454216003418 11.998954772949219 12.47272777557373 12.021308898925781 12.600000381469727 12.04366397857666 L12.600000381469727 12.04366397857666 C12.600000381469727 12.11092758178711 12.600000381469727 12.178191184997559 12.600000381469727 12.245454788208008 L12.600000381469727 12.245454788208008 C12.581818580627441 12.245454788208008 12.563636779785156 12.245454788208008 12.545454978942871 12.245454788208008 L12.545454978942871 12.245454788208008 C12.530200004577637 12.172900199890137 12.514945983886719 12.100345611572266 12.499691009521484 12.027791023254395 L12.499691009521484 12.027791023254395 C12.487600326538086 12.027981758117676 12.475509643554688 12.028172492980957 12.463418960571289 12.028363227844238 L12.463418960571289 12.028363227844238 C12.454400062561035 12.100735664367676 12.445382118225098 12.17310905456543 12.436363220214844 12.245481491088867 L12.436363220214844 12.245481491088867 C12.418181419372559 12.245481491088867 12.399999618530273 12.245481491088867 12.381817817687988 12.245481491088867 L12.381817817687988 12.245481491088867 C12.360072135925293 12.172282218933105 12.338327407836914 12.099081993103027 12.316581726074219 12.025882720947266 L12.316581726074219 12.025882720947266 C12.301963806152344 12.099081993103027 12.287344932556152 12.172282218933105 12.272727012634277 12.245481491088867 L12.272727012634277 12.245481491088867 C12.254545211791992 12.24547290802002 12.236363410949707 12.245463371276855 12.218181610107422 12.245454788208008 L12.218181610107422 12.245454788208008 C12.218181610107422 12.15583610534668 12.218181610107422 12.066218376159668 12.218181610107422 11.97659969329834 L12.218181610107422 11.97659969329834"></path></svg>