<svg xmlns="http://www.w3.org/2000/svg" viewBox="0.0 0.0 24.0 24.0" height="200px" width="200px"><path fill="none" stroke="black" stroke-width=".3" stroke-opacity="1.0"  filling="0" d="M12.555736541748047 11.883954048156738 L12.555736541748047 11.883954048156738 C12.566045761108398 11.886872291564941 12.57635498046875 11.889790534973145 12.586664199829102 11.892708778381348 L12.586664199829102 11.892708778381348 C12.594209671020508 11.934590339660645 12.601754188537598 11.976472854614258 12.609299659729004 12.018354415893555 L12.609299659729004 12.018354415893555 C12.67171573638916 12.085297584533691 12.73946762084961 12.157176971435547 12.763636589050293 12.245454788208008 L12.763636589050293 12.245454788208008 C12.736363410949707 12.245454788208008 12.709091186523438 12.245454788208008 12.681818008422852 12.245454788208008 L12.681818008422852 12.245454788208008 C12.654545783996582 12.180036544799805 12.627272605895996 12.114619255065918 12.600000381469727 12.049201011657715 L12.600000381469727 12.049201011657715 C12.600000381469727 12.114619255065918 12.600000381469727 12.180036544799805 12.600000381469727 12.245454788208008 L12.600000381469727 12.245454788208008 C12.57272720336914 12.245454788208008 12.545454978942871 12.245454788208008 12.518181800842285 12.245454788208008 L12.518181800842285 12.245454788208008 C12.51898193359375 12.124308586120605 12.502197265625 11.992630958557129 12.555736541748047 11.883954048156738 L12.555736541748047 11.883954048156738"></path></svg>