<svg xmlns="http://www.w3.org/2000/svg" viewBox="0.0 0.0 24.0 24.0" height="200px" width="200px"><path fill="none" stroke="black" stroke-width=".3" stroke-opacity="1.0"  filling="0" d="M21.272727966308594 10.772726058959961 L21.272727966308594 10.772726058959961 C21.272727966308594 10.79999828338623 21.272727966308594 10.827271461486816 21.272727966308594 10.854543685913086 L21.272727966308594 10.854543685913086 C20.186187744140625 11.562236785888672 19.075664520263672 12.329832077026367 17.947792053222656 13.064667701721191 C16.819917678833008 13.799504280090332 15.674694061279297 14.501582145690918 14.518746376037598 15.078243255615234 C14.139164924621582 15.267602920532227 13.917226791381836 14.471603393554688 13.68594741821289 14.116005897521973 L13.68594741821289 14.116005897521973 C14.151036262512207 13.747323036193848 15.644723892211914 12.560064315795898 16.257190704345703 12.516599655151367 L16.257190704345703 12.516599655151367 C15.527189254760742 13.161757469177246 14.516946792602539 13.463348388671875 13.800108909606934 14.122062683105469 L13.800108909606934 14.122062683105469 C14.004863739013672 14.428244590759277 14.209617614746094 14.73442554473877 14.414372444152832 15.040607452392578 L14.414372444152832 15.040607452392578 C15.94576644897461 14.073277473449707 17.4892578125 13.12562084197998 19.02613639831543 12.16690731048584 C19.126569747924805 12.104256629943848 21.211538314819336 10.776753425598145 21.272727966308594 10.772726058959961 L21.272727966308594 10.772726058959961"></path></svg>