<svg xmlns="http://www.w3.org/2000/svg" viewBox="0.0 0.0 24.0 24.0" height="200px" width="200px"><path fill="none" stroke="black" stroke-width=".3" stroke-opacity="1.0"  filling="0" d="M12.76200008392334 9.099136352539062 L12.76200008392334 9.099136352539062 C12.76200008392334 9.163954734802246 12.76200008392334 9.228772163391113 12.76200008392334 9.293590545654297 L12.76200008392334 9.293590545654297 C13.17519760131836 9.605010986328125 12.990765571594238 9.527454376220703 12.630982398986816 9.510600090026855 L12.630982398986816 9.510600090026855 C12.691427230834961 9.587236404418945 12.751873016357422 9.663872718811035 12.812317848205566 9.740509033203125 L12.812317848205566 9.740509033203125 C12.760690689086914 9.805000305175781 12.709064483642578 9.869490623474121 12.657437324523926 9.933981895446777 L12.657437324523926 9.933981895446777 C12.64783763885498 9.928864479064941 12.638236999511719 9.923746109008789 12.628637313842773 9.918628692626953 L12.628637313842773 9.918628692626953 C12.635891914367676 9.879864692687988 12.643146514892578 9.841099739074707 12.65040111541748 9.802335739135742 L12.65040111541748 9.802335739135742 C12.505082130432129 9.66709041595459 12.359764099121094 9.531845092773438 12.214445114135742 9.396599769592285 L12.214445114135742 9.396599769592285 C12.362683296203613 9.251100540161133 12.5543851852417 9.105507850646973 12.76200008392334 9.099136352539062 L12.76200008392334 9.099136352539062"></path>
<path fill="none" stroke="black" stroke-width=".3" stroke-opacity="1.0"  filling="0" d="M12.49846363067627 9.25469970703125 L12.49846363067627 9.25469970703125 C12.563638687133789 9.283149719238281 12.627043724060059 9.374556541442871 12.602127075195312 9.441163063049316 L12.602127075195312 9.441163063049316 C12.567572593688965 9.379008293151855 12.533018112182617 9.316854476928711 12.49846363067627 9.25469970703125 L12.49846363067627 9.25469970703125"></path></svg>