<svg xmlns="http://www.w3.org/2000/svg" viewBox="0.0 0.0 24.0 24.0" height="200px" width="200px"><path fill="none" stroke="black" stroke-width=".3" stroke-opacity="1.0"  filling="0" d="M12.172308921813965 11.921917915344238 L12.172308921813965 11.921917915344238 C12.196126937866211 12.01456356048584 12.219944953918457 12.107209205627441 12.243762969970703 12.199854850769043 L12.243762969970703 12.199854850769043 C12.233926773071289 12.202218055725098 12.224090576171875 12.204582214355469 12.214254379272461 12.206945419311523 L12.214254379272461 12.206945419311523 C12.19950008392334 12.129755020141602 12.184745788574219 12.052563667297363 12.169991493225098 11.975373268127441 L12.169991493225098 11.975373268127441 C12.14722728729248 11.985018730163574 12.12446403503418 11.994664192199707 12.101699829101562 12.00430965423584 L12.101699829101562 12.00430965423584 C12.09299087524414 12.065791130065918 12.084280967712402 12.127273559570312 12.07557201385498 12.18875503540039 L12.07557201385498 12.18875503540039 C12.064135551452637 12.188028335571289 12.05270004272461 12.187300682067871 12.041263580322266 12.18657398223877 L12.041263580322266 12.18657398223877 C12.04127311706543 12.109882354736328 12.041281700134277 12.033191680908203 12.041291236877441 11.956500053405762 L12.041291236877441 11.956500053405762 C12.08496379852295 11.94497299194336 12.128636360168457 11.93344497680664 12.172308921813965 11.921917915344238 L12.172308921813965 11.921917915344238"></path></svg>