<svg xmlns="http://www.w3.org/2000/svg" viewBox="0.0 0.0 24.0 24.0" height="200px" width="200px"><path fill="none" stroke="black" stroke-width=".3" stroke-opacity="1.0"  filling="0" d="M12.786218643188477 12.000572204589844 L12.786218643188477 12.000572204589844 C12.854043960571289 12.065943717956543 12.927202224731445 12.151254653930664 12.92727279663086 12.245454788208008 L12.92727279663086 12.245454788208008 C12.899999618530273 12.245454788208008 12.872727394104004 12.245454788208008 12.845454216003418 12.245454788208008 L12.845454216003418 12.245454788208008 C12.829309463500977 12.172018051147461 12.813163757324219 12.098581314086914 12.797019004821777 12.025144577026367 L12.797019004821777 12.025144577026367 C12.78589153289795 12.098581314086914 12.774764060974121 12.172018051147461 12.763636589050293 12.245454788208008 L12.763636589050293 12.245454788208008 C12.745454788208008 12.245454788208008 12.727272987365723 12.245454788208008 12.709091186523438 12.245454788208008 L12.709091186523438 12.245454788208008 C12.700936317443848 12.166836738586426 12.692781448364258 12.088217735290527 12.684626579284668 12.009599685668945 L12.684626579284668 12.009599685668945 C12.718490600585938 12.006590843200684 12.752354621887207 12.003581047058105 12.786218643188477 12.000572204589844 L12.786218643188477 12.000572204589844"></path></svg>