<svg xmlns="http://www.w3.org/2000/svg" viewBox="0.0 0.0 24.0 24.0" height="200px" width="200px"><path fill="none" stroke="black" stroke-width=".3" stroke-opacity="1.0"  filling="0" d="M10.118563652038574 12.045299530029297 L10.118563652038574 12.045299530029297 C10.180452346801758 12.192241668701172 10.233306884765625 12.387554168701172 10.148673057556152 12.52268123626709 L10.148673057556152 12.52268123626709 C10.212655067443848 12.559235572814941 10.276636123657227 12.59579086303711 10.340618133544922 12.632345199584961 L10.340618133544922 12.632345199584961 C10.277508735656738 12.698281288146973 10.214400291442871 12.7642183303833 10.151290893554688 12.830154418945312 L10.151290893554688 12.830154418945312 C10.012872695922852 12.659618377685547 9.874454498291016 12.489081382751465 9.73603630065918 12.3185453414917 L9.73603630065918 12.3185453414917 C9.842805862426758 12.203851699829102 9.963228225708008 12.065926551818848 10.118563652038574 12.045299530029297 L10.118563652038574 12.045299530029297"></path>
<path fill="none" stroke="black" stroke-width=".3" stroke-opacity="1.0"  filling="0" d="M10.058127403259277 12.178445816040039 L10.058127403259277 12.178445816040039 C10.09280014038086 12.25473690032959 10.127472877502441 12.331027030944824 10.162145614624023 12.407318115234375 L10.162145614624023 12.407318115234375 C10.092581748962402 12.346190452575684 10.023018836975098 12.285063743591309 9.953454971313477 12.223936080932617 L9.953454971313477 12.223936080932617 C9.954373359680176 12.211518287658691 9.955290794372559 12.19909954071045 9.956209182739258 12.186681747436523 L9.956209182739258 12.186681747436523 C9.990181922912598 12.18393611907959 10.024154663085938 12.181191444396973 10.058127403259277 12.178445816040039 L10.058127403259277 12.178445816040039"></path></svg>