<svg xmlns="http://www.w3.org/2000/svg" viewBox="0.0 0.0 24.0 24.0" height="200px" width="200px"><path fill="none" stroke="black" stroke-width=".3" stroke-opacity="1.0"  filling="0" d="M12.855463981628418 11.810890197753906 L12.855463981628418 11.810890197753906 C12.862091064453125 11.850607872009277 12.868719100952148 11.890326499938965 12.875346183776855 11.930044174194336 L12.875346183776855 11.930044174194336 C12.92602825164795 12.020525932312012 12.976709365844727 12.111008644104004 13.02739143371582 12.20149040222168 L13.02739143371582 12.20149040222168 C12.975461959838867 12.135931968688965 12.94693660736084 12.05034351348877 12.9375 11.967244148254395 L12.9375 11.967244148254395 C12.927581787109375 12.039162635803223 12.91766357421875 12.111080169677734 12.907745361328125 12.182998657226562 L12.907745361328125 12.182998657226562 C12.868917465209961 12.189986228942871 12.829078674316406 12.190306663513184 12.789628028869629 12.190471649169922 L12.789628028869629 12.190471649169922 C12.789628028869629 12.065217018127441 12.789628028869629 11.939963340759277 12.789628028869629 11.814708709716797 L12.789628028869629 11.814708709716797 C12.811573028564453 11.813435554504395 12.833518981933594 11.812163352966309 12.855463981628418 11.810890197753906 L12.855463981628418 11.810890197753906"></path></svg>