<svg xmlns="http://www.w3.org/2000/svg" viewBox="0.0 0.0 24.0 24.0" height="200px" width="200px"><path fill="none" stroke="black" stroke-width=".3" stroke-opacity="1.0"  filling="0" d="M12.771872520446777 11.894454956054688 L12.771872520446777 11.894454956054688 C12.794190406799316 11.981200218200684 12.816509246826172 12.06794548034668 12.838827133178711 12.154690742492676 L12.838827133178711 12.154690742492676 C12.828963279724121 12.158090591430664 12.819100379943848 12.161491394042969 12.809236526489258 12.164891242980957 L12.809236526489258 12.164891242980957 C12.788463592529297 12.094390869140625 12.767691612243652 12.023890495300293 12.746918678283691 11.953390121459961 L12.746918678283691 11.953390121459961 C12.735482215881348 11.95398998260498 12.724045753479004 11.954590797424316 12.71260929107666 11.955190658569336 L12.71260929107666 11.955190658569336 C12.694618225097656 12.029454231262207 12.676627159118652 12.103718757629395 12.658636093139648 12.177982330322266 L12.658636093139648 12.177982330322266 C12.649572372436523 12.176855087280273 12.640509605407715 12.175727844238281 12.63144588470459 12.174600601196289 L12.63144588470459 12.174600601196289 C12.63144588470459 12.093609809875488 12.63144588470459 12.012618064880371 12.63144588470459 11.93162727355957 L12.63144588470459 11.93162727355957 C12.678255081176758 11.919236183166504 12.72506332397461 11.906846046447754 12.771872520446777 11.894454956054688 L12.771872520446777 11.894454956054688"></path></svg>