<svg xmlns="http://www.w3.org/2000/svg" viewBox="0.0 0.0 24.0 24.0" height="200px" width="200px"><path fill="none" stroke="black" stroke-width=".3" stroke-opacity="1.0"  filling="0" d="M12.821455001831055 11.949735641479492 L12.821455001831055 11.949735641479492 C12.844809532165527 12.024189949035645 12.868165016174316 12.098645210266113 12.891519546508789 12.173099517822266 L12.891519546508789 12.173099517822266 C12.831371307373047 12.190587043762207 12.771729469299316 12.218242645263672 12.709091186523438 12.218181610107422 L12.709091186523438 12.218181610107422 C12.711337089538574 12.16780948638916 12.713582038879395 12.117436408996582 12.715827941894531 12.06706428527832 L12.715827941894531 12.06706428527832 C12.727227210998535 12.10024642944336 12.738627433776855 12.133427619934082 12.75002670288086 12.166609764099121 L12.75002670288086 12.166609764099121 C12.75837230682373 12.164318084716797 12.766718864440918 12.162027359008789 12.775064468383789 12.159735679626465 L12.775064468383789 12.159735679626465 C12.780837059020996 12.09116268157959 12.786609649658203 12.022590637207031 12.79238224029541 11.954017639160156 L12.79238224029541 11.954017639160156 C12.80207347869873 11.952589988708496 12.811763763427734 11.951163291931152 12.821455001831055 11.949735641479492 L12.821455001831055 11.949735641479492"></path></svg>