<svg xmlns="http://www.w3.org/2000/svg" viewBox="0.0 0.0 24.0 24.0" height="200px" width="200px"><path fill="none" stroke="black" stroke-width=".3" stroke-opacity="1.0"  filling="0" d="M14.08799934387207 12.01189136505127 L14.08799934387207 12.01189136505127 C14.139937400817871 12.077787399291992 14.173463821411133 12.161970138549805 14.181844711303711 12.245454788208008 L14.181844711303711 12.245454788208008 C14.154572486877441 12.245454788208008 14.127300262451172 12.245454788208008 14.100028038024902 12.245454788208008 L14.100028038024902 12.245454788208008 C14.100028038024902 12.180500030517578 14.100028038024902 12.115546226501465 14.100028038024902 12.050591468811035 L14.100028038024902 12.050591468811035 C14.072754859924316 12.115546226501465 14.045482635498047 12.180500030517578 14.018209457397461 12.245454788208008 L14.018209457397461 12.245454788208008 C13.990936279296875 12.245454788208008 13.963664054870605 12.245454788208008 13.93639087677002 12.245454788208008 L13.93639087677002 12.245454788208008 C13.909117698669434 12.18211841583252 13.881845474243164 12.118781089782715 13.854572296142578 12.055444717407227 L13.854572296142578 12.055444717407227 C13.854572296142578 12.118781089782715 13.854572296142578 12.18211841583252 13.854572296142578 12.245454788208008 L13.854572296142578 12.245454788208008 C13.827290534973145 12.245454788208008 13.800008773803711 12.245454788208008 13.772727012634277 12.245454788208008 L13.772727012634277 12.245454788208008 C13.794456481933594 12.116484642028809 13.957283973693848 12.016225814819336 14.08799934387207 12.01189136505127 L14.08799934387207 12.01189136505127"></path></svg>