<svg xmlns="http://www.w3.org/2000/svg" viewBox="0.0 0.0 24.0 24.0" height="200px" width="200px"><path fill="none" stroke="black" stroke-width=".3" stroke-opacity="1.0"  filling="0" d="M18.546602249145508 11.879863739013672 L18.546602249145508 11.879863739013672 C18.61188507080078 12.088765144348145 18.49694061279297 12.229958534240723 18.50372886657715 12.44151782989502 L18.50372886657715 12.44151782989502 C18.457111358642578 12.445226669311523 18.410491943359375 12.448936462402344 18.363874435424805 12.452645301818848 L18.363874435424805 12.452645301818848 C18.402938842773438 12.297572135925293 18.44200325012207 12.142499923706055 18.481067657470703 11.9874267578125 L18.481067657470703 11.9874267578125 C18.473756790161133 11.979008674621582 18.466447830200195 11.970590591430664 18.459136962890625 11.962172508239746 L18.459136962890625 11.962172508239746 C18.41424560546875 11.99290943145752 18.369356155395508 12.023645401000977 18.324464797973633 12.05438232421875 L18.324464797973633 12.05438232421875 C18.318601608276367 12.048218727111816 18.31273651123047 12.042054176330566 18.306873321533203 12.035890579223633 L18.306873321533203 12.035890579223633 C18.373842239379883 11.968026161193848 18.45431137084961 11.903799057006836 18.546602249145508 11.879863739013672 L18.546602249145508 11.879863739013672"></path></svg>