<svg xmlns="http://www.w3.org/2000/svg" viewBox="0.0 0.0 24.0 24.0" height="200px" width="200px"><path fill="none" stroke="black" stroke-width=".3" stroke-opacity="1.0"  filling="0" d="M11.216400146484375 11.984291076660156 L11.216400146484375 11.984291076660156 C11.280055046081543 12.01129150390625 11.343708992004395 12.038290977478027 11.407363891601562 12.065291404724121 L11.407363891601562 12.065291404724121 C11.364582061767578 12.043818473815918 11.321800231933594 12.022345542907715 11.27901840209961 12.000872611999512 L11.27901840209961 12.000872611999512 C11.273345947265625 12.007591247558594 11.26767349243164 12.01430892944336 11.262001037597656 12.021027565002441 L11.262001037597656 12.021027565002441 C11.316610336303711 12.059864044189453 11.37121868133545 12.098700523376465 11.425827980041504 12.137537002563477 L11.425827980041504 12.137537002563477 C11.389945983886719 12.173519134521484 11.354063987731934 12.209500312805176 11.318181991577148 12.245482444763184 L11.318181991577148 12.245482444763184 C11.309090614318848 12.24547290802002 11.300000190734863 12.245464324951172 11.290908813476562 12.245454788208008 L11.290908813476562 12.245454788208008 C11.298881530761719 12.215373039245605 11.306854248046875 12.185291290283203 11.314826965332031 12.1552095413208 L11.314826965332031 12.1552095413208 C11.282017707824707 12.098237037658691 11.2492094039917 12.041263580322266 11.216400146484375 11.984291076660156 L11.216400146484375 11.984291076660156"></path></svg>