<svg xmlns="http://www.w3.org/2000/svg" viewBox="0.0 0.0 24.0 24.0" height="200px" width="200px"><path fill="none" stroke="black" stroke-width=".3" stroke-opacity="1.0"  filling="0" d="M13.131109237670898 12.009108543395996 L13.131109237670898 12.009108543395996 C13.199454307556152 12.009108543395996 13.267800331115723 12.009108543395996 13.336145401000977 12.009108543395996 L13.336145401000977 12.009108543395996 C13.345309257507324 12.087890625 13.354473114013672 12.166672706604004 13.36363697052002 12.245454788208008 L13.36363697052002 12.245454788208008 C13.336363792419434 12.245454788208008 13.309090614318848 12.245454788208008 13.281817436218262 12.245454788208008 L13.281817436218262 12.245454788208008 C13.2798490524292 12.171354293823242 13.25874137878418 12.083885192871094 13.199999809265137 12.03867244720459 L13.199999809265137 12.03867244720459 C13.199999809265137 12.107600212097168 13.199999809265137 12.17652702331543 13.199999809265137 12.245454788208008 L13.199999809265137 12.245454788208008 C13.181818008422852 12.245454788208008 13.163636207580566 12.245454788208008 13.145454406738281 12.245454788208008 L13.145454406738281 12.245454788208008 C13.14067268371582 12.166672706604004 13.13589096069336 12.087890625 13.131109237670898 12.009108543395996 L13.131109237670898 12.009108543395996"></path></svg>