<svg xmlns="http://www.w3.org/2000/svg" viewBox="0.0 0.0 24.0 24.0" height="200px" width="200px"><path fill="none" stroke="black" stroke-width=".3" stroke-opacity="1.0"  filling="0" d="M9.92029094696045 11.854172706604004 L9.92029094696045 11.854172706604004 C9.948118209838867 11.989044189453125 9.968111991882324 12.125840187072754 9.978927612304688 12.263127326965332 L9.978927612304688 12.263127326965332 C9.888972282409668 12.239054679870605 9.799017906188965 12.214981079101562 9.709062576293945 12.190908432006836 L9.709062576293945 12.190908432006836 C9.70907211303711 12.145454406738281 9.709081649780273 12.09999942779541 9.709091186523438 12.054545402526855 L9.709091186523438 12.054545402526855 C9.76830005645752 12.040918350219727 9.827508926391602 12.027291297912598 9.886717796325684 12.013664245605469 L9.886717796325684 12.013664245605469 C9.897909164428711 11.960500717163086 9.909099578857422 11.907336235046387 9.92029094696045 11.854172706604004 L9.92029094696045 11.854172706604004"></path>
<path fill="none" stroke="black" stroke-width=".3" stroke-opacity="1.0"  filling="0" d="M9.86762809753418 12.052854537963867 L9.86762809753418 12.052854537963867 C9.881067276000977 12.111867904663086 9.862944602966309 12.189064025878906 9.815646171569824 12.226826667785645 L9.815646171569824 12.226826667785645 C9.806173324584961 12.220281600952148 9.796700477600098 12.213735580444336 9.787227630615234 12.20719051361084 L9.787227630615234 12.20719051361084 C9.796154975891113 12.156363487243652 9.805081367492676 12.105535507202148 9.814008712768555 12.054708480834961 L9.814008712768555 12.054708480834961 C9.831881523132324 12.05409049987793 9.84975528717041 12.053472518920898 9.86762809753418 12.052854537963867 L9.86762809753418 12.052854537963867"></path></svg>