<svg xmlns="http://www.w3.org/2000/svg" viewBox="0.0 0.0 24.0 24.0" height="200px" width="200px"><path fill="none" stroke="black" stroke-width=".3" stroke-opacity="1.0"  filling="0" d="M12.535745620727539 11.972427368164062 L12.535745620727539 11.972427368164062 C12.54850959777832 11.995108604431152 12.561272621154785 12.017790794372559 12.574036598205566 12.040472030639648 L12.574036598205566 12.040472030639648 C12.560863494873047 12.049271583557129 12.547691345214844 12.058072090148926 12.534518241882324 12.066871643066406 L12.534518241882324 12.066871643066406 C12.521345138549805 12.038935661315918 12.508172988891602 12.010998725891113 12.494999885559082 11.983062744140625 L12.494999885559082 11.983062744140625 C12.456483840942383 12.047913551330566 12.524815559387207 12.14311408996582 12.582463264465332 12.191753387451172 L12.582463264465332 12.191753387451172 C12.516772270202637 12.184572219848633 12.451082229614258 12.177390098571777 12.385391235351562 12.170208930969238 L12.385391235351562 12.170208930969238 C12.385391235351562 12.116327285766602 12.385391235351562 12.062444686889648 12.385391235351562 12.008563041687012 L12.385391235351562 12.008563041687012 C12.43550968170166 11.9965181350708 12.485627174377441 11.984472274780273 12.535745620727539 11.972427368164062 L12.535745620727539 11.972427368164062"></path></svg>