<svg xmlns="http://www.w3.org/2000/svg" viewBox="0.0 0.0 24.0 24.0" height="200px" width="200px"><path fill="none" stroke="black" stroke-width=".3" stroke-opacity="1.0"  filling="0" d="M7.0825090408325195 11.598819732666016 L7.0825090408325195 11.598819732666016 C7.0412726402282715 11.764628410339355 7.000036716461182 11.930438041687012 6.958800315856934 12.096246719360352 L6.958800315856934 12.096246719360352 C6.975318431854248 12.091583251953125 6.991836071014404 12.086919784545898 7.008354187011719 12.082256317138672 L7.008354187011719 12.082256317138672 C7.00713586807251 12.080973625183105 7.005918025970459 12.079691886901855 7.00469970703125 12.078409194946289 L7.00469970703125 12.078409194946289 C6.977728366851807 12.283975601196289 6.859217643737793 12.423664093017578 6.7183637619018555 12.55551815032959 L6.7183637619018555 12.55551815032959 C6.797581672668457 12.273200988769531 6.872372627258301 11.989593505859375 6.942054271697998 11.70477294921875 L6.942054271697998 11.70477294921875 C6.916763782501221 11.682409286499023 6.891472816467285 11.660046577453613 6.866182327270508 11.637682914733887 L6.866182327270508 11.637682914733887 C6.938291072845459 11.624728202819824 7.010400295257568 11.611774444580078 7.0825090408325195 11.598819732666016 L7.0825090408325195 11.598819732666016"></path></svg>