<svg xmlns="http://www.w3.org/2000/svg" viewBox="0.0 0.0 24.0 24.0" height="200px" width="200px"><path fill="none" stroke="black" stroke-width=".3" stroke-opacity="1.0"  filling="0" d="M11.594182014465332 11.625763893127441 L11.594182014465332 11.625763893127441 C11.638718605041504 11.625763893127441 11.683255195617676 11.625763893127441 11.727791786193848 11.625763893127441 L11.727791786193848 11.625763893127441 C11.657712936401367 11.907222747802734 11.505223274230957 12.182568550109863 11.53254508972168 12.473044395446777 L11.53254508972168 12.473044395446777 C11.491263389587402 12.493462562561035 11.449981689453125 12.51388168334961 11.408699989318848 12.534299850463867 L11.408699989318848 12.534299850463867 C11.404172897338867 12.48799991607666 11.399646759033203 12.441699981689453 11.395119667053223 12.395400047302246 L11.395119667053223 12.395400047302246 C10.84141731262207 12.59975814819336 11.164901733398438 12.068506240844727 11.548173904418945 11.94166374206543 L11.548173904418945 11.94166374206543 C11.563509941101074 11.836363792419434 11.578845977783203 11.731063842773438 11.594182014465332 11.625763893127441 L11.594182014465332 11.625763893127441"></path>
<path fill="none" stroke="black" stroke-width=".3" stroke-opacity="1.0"  filling="0" d="M11.442708969116211 11.95377254486084 L11.442708969116211 11.95377254486084 C11.487525939941406 12.124566078186035 11.339007377624512 12.301762580871582 11.225236892700195 12.436800003051758 L11.225236892700195 12.436800003051758 C11.297727584838867 12.27579116821289 11.370218276977539 12.114781379699707 11.442708969116211 11.95377254486084 L11.442708969116211 11.95377254486084"></path></svg>