<svg xmlns="http://www.w3.org/2000/svg" viewBox="0.0 0.0 24.0 24.0" height="200px" width="200px"><path fill="none" stroke="black" stroke-width=".3" stroke-opacity="1.0"  filling="0" d="M13.34288215637207 11.94046401977539 L13.34288215637207 11.94046401977539 C13.374600410461426 11.99077320098877 13.406319618225098 12.041082382202148 13.438037872314453 12.091391563415527 L13.438037872314453 12.091391563415527 C13.445273399353027 12.044745445251465 13.452509880065918 11.998100280761719 13.459745407104492 11.951454162597656 L13.459745407104492 11.951454162597656 C13.482245445251465 11.949444770812988 13.504746437072754 11.947436332702637 13.527246475219727 11.945426940917969 L13.527246475219727 11.945426940917969 C13.527246475219727 12.009063720703125 13.527246475219727 12.072699546813965 13.527246475219727 12.136336326599121 L13.527246475219727 12.136336326599121 C13.5109281539917 12.120172500610352 13.494608879089355 12.104008674621582 13.478290557861328 12.087844848632812 L13.478290557861328 12.087844848632812 C13.4491548538208 12.140372276306152 13.420018196105957 12.192898750305176 13.39088249206543 12.245426177978516 L13.39088249206543 12.245426177978516 C13.381800651550293 12.24543571472168 13.372718811035156 12.245445251464844 13.36363697052002 12.245454788208008 L13.36363697052002 12.245454788208008 C13.345096588134766 12.148720741271973 13.326545715332031 12.051989555358887 13.307918548583984 11.955272674560547 L13.307918548583984 11.955272674560547 C13.319573402404785 11.950336456298828 13.33122730255127 11.94540023803711 13.34288215637207 11.94046401977539 L13.34288215637207 11.94046401977539"></path></svg>