<svg xmlns="http://www.w3.org/2000/svg" viewBox="0.0 0.0 24.0 24.0" height="200px" width="200px"><path fill="none" stroke="black" stroke-width=".3" stroke-opacity="1.0"  filling="0" d="M12.427364349365234 11.330370903015137 L12.427364349365234 11.330370903015137 C12.637460708618164 11.438295364379883 12.842790603637695 11.555534362792969 13.04566478729248 11.676490783691406 L13.04566478729248 11.676490783691406 C13.009601593017578 11.772817611694336 12.97353744506836 11.869145393371582 12.937474250793457 11.965472221374512 L12.937474250793457 11.965472221374512 C12.698624610900879 11.806221961975098 12.607377052307129 11.64918327331543 12.434046745300293 11.892598152160645 L12.434046745300293 11.892598152160645 C12.529374122619629 11.960526466369629 12.624700546264648 12.028453826904297 12.720027923583984 12.096382141113281 L12.720027923583984 12.096382141113281 C12.68234634399414 12.157754898071289 12.64466381072998 12.21912670135498 12.606982231140137 12.280499458312988 L12.606982231140137 12.280499458312988 C12.460640907287598 12.240181922912598 12.298803329467773 12.289956092834473 12.155508995056152 12.340036392211914 L12.155508995056152 12.340036392211914 C12.279184341430664 12.42194938659668 12.384061813354492 12.529653549194336 12.490717887878418 12.6327543258667 L12.490717887878418 12.6327543258667 C12.448954582214355 12.688863754272461 12.407191276550293 12.744972229003906 12.36542797088623 12.801081657409668 L12.36542797088623 12.801081657409668 C11.604613304138184 12.307197570800781 11.905043601989746 12.02567195892334 12.427364349365234 11.330370903015137 L12.427364349365234 11.330370903015137"></path></svg>