<svg xmlns="http://www.w3.org/2000/svg" viewBox="0.0 0.0 24.0 24.0" height="200px" width="200px"><path fill="none" stroke="black" stroke-width=".3" stroke-opacity="1.0"  filling="0" d="M11.706518173217773 11.711455345153809 L11.706518173217773 11.711455345153809 C11.659462928771973 11.885541915893555 11.440603256225586 12.144811630249023 11.642946243286133 12.245128631591797 L11.642946243286133 12.245128631591797 C11.59260082244873 12.26083755493164 11.542255401611328 12.276546478271484 11.491909980773926 12.292255401611328 L11.491909980773926 12.292255401611328 C11.478882789611816 12.237936973571777 11.46585464477539 12.183618545532227 11.452827453613281 12.129300117492676 L11.452827453613281 12.129300117492676 C11.091548919677734 12.462076187133789 11.196147918701172 12.032679557800293 11.240235328674316 11.780726432800293 L11.240235328674316 11.780726432800293 C11.206908226013184 11.789216995239258 11.17358112335205 11.797708511352539 11.140254020690918 11.806199073791504 L11.140254020690918 11.806199073791504 C11.212681770324707 11.779471397399902 11.28510856628418 11.752744674682617 11.357536315917969 11.726016998291016 L11.357536315917969 11.726016998291016 C11.330663681030273 11.883071899414062 11.303791046142578 12.04012680053711 11.276918411254883 12.197181701660156 L11.276918411254883 12.197181701660156 C11.405134201049805 12.023165702819824 11.527305603027344 11.832300186157227 11.706518173217773 11.711455345153809 L11.706518173217773 11.711455345153809"></path></svg>