<svg xmlns="http://www.w3.org/2000/svg" viewBox="0.0 0.0 24.0 24.0" height="200px" width="200px"><path fill="none" stroke="black" stroke-width=".3" stroke-opacity="1.0"  filling="0" d="M12.927328109741211 11.427271842956543 L12.927328109741211 11.427271842956543 C12.981855392456055 11.427271842956543 13.036381721496582 11.42727279663086 13.090909004211426 11.42727279663086 L13.090909004211426 11.42727279663086 C13.00911808013916 11.691864013671875 12.927327156066895 11.956454277038574 12.845536231994629 12.22104549407959 L12.845536231994629 12.22104549407959 C12.8766450881958 12.211718559265137 12.907754898071289 12.202390670776367 12.938863754272461 12.193063735961914 L12.938863754272461 12.193063735961914 C12.885963439941406 12.228490829467773 12.833063125610352 12.26391887664795 12.780162811279297 12.299345970153809 L12.780162811279297 12.299345970153809 C12.770380973815918 12.264582633972168 12.760600090026855 12.229818344116211 12.750818252563477 12.19505500793457 L12.750818252563477 12.19505500793457 C12.726054191589355 12.19505500793457 12.70129108428955 12.19505500793457 12.67652702331543 12.19505500793457 L12.67652702331543 12.19505500793457 C12.730963706970215 12.052563667297363 12.785399436950684 11.910073280334473 12.839836120605469 11.767581939697266 L12.839836120605469 11.767581939697266 C12.695321083068848 11.868278503417969 12.574091911315918 12.043792724609375 12.566427230834961 12.21976375579834 L12.566427230834961 12.21976375579834 C12.60462760925293 12.210144996643066 12.642827987670898 12.20052719116211 12.681028366088867 12.190908432006836 L12.681028366088867 12.190908432006836 C12.21976375579834 12.476271629333496 12.506235122680664 11.761231422424316 12.8926362991333 11.686935424804688 L12.8926362991333 11.686935424804688 C12.904200553894043 11.600380897521973 12.915763854980469 11.513826370239258 12.927328109741211 11.427271842956543 L12.927328109741211 11.427271842956543"></path></svg>