<svg xmlns="http://www.w3.org/2000/svg" viewBox="0.0 0.0 24.0 24.0" height="200px" width="200px"><path fill="none" stroke="black" stroke-width=".3" stroke-opacity="1.0"  filling="0" d="M11.078672409057617 11.868463516235352 L11.078672409057617 11.868463516235352 C11.103972434997559 11.868463516235352 11.1292724609375 11.868463516235352 11.154572486877441 11.868463516235352 L11.154572486877441 11.868463516235352 C11.154572486877441 11.99412727355957 11.154572486877441 12.119791030883789 11.154572486877441 12.245454788208008 L11.154572486877441 12.245454788208008 C11.118208885192871 12.245454788208008 11.0818452835083 12.245454788208008 11.04548168182373 12.245454788208008 L11.04548168182373 12.245454788208008 C11.057245254516602 12.19505500793457 11.069009780883789 12.144654273986816 11.08077335357666 12.094254493713379 L11.08077335357666 12.094254493713379 C11.027545928955078 12.08404541015625 10.974318504333496 12.073836326599121 10.921091079711914 12.063627243041992 L10.921091079711914 12.063627243041992 C10.917099952697754 12.124236106872559 10.91310977935791 12.184845924377441 10.90911865234375 12.245454788208008 L10.90911865234375 12.245454788208008 C10.863655090332031 12.245454788208008 10.818191528320312 12.245454788208008 10.772727966308594 12.245454788208008 L10.772727966308594 12.245454788208008 C10.78547191619873 12.120857238769531 10.808516502380371 11.995855331420898 10.80141830444336 11.870809555053711 L10.80141830444336 11.870809555053711 C10.840645790100098 11.870809555053711 10.87987232208252 11.870809555053711 10.919099807739258 11.870809555053711 L10.919099807739258 11.870809555053711 C10.915318489074707 11.920609474182129 10.91153621673584 11.97040843963623 10.907754898071289 12.020208358764648 L10.907754898071289 12.020208358764648 C10.961036682128906 12.020208358764648 11.014318466186523 12.020208358764648 11.06760025024414 12.020208358764648 L11.06760025024414 12.020208358764648 C11.071290969848633 11.969626426696777 11.074981689453125 11.919045448303223 11.078672409057617 11.868463516235352 L11.078672409057617 11.868463516235352"></path></svg>