<svg xmlns="http://www.w3.org/2000/svg" viewBox="0.0 0.0 24.0 24.0" height="200px" width="200px"><path fill="none" stroke="black" stroke-width=".3" stroke-opacity="1.0"  filling="0" d="M12.069954872131348 11.931408882141113 L12.069954872131348 11.931408882141113 C12.1173734664917 11.938508987426758 12.164791107177734 11.945610046386719 12.212209701538086 11.952710151672363 L12.212209701538086 11.952710151672363 C12.226472854614258 12.026546478271484 12.240736961364746 12.100382804870605 12.255000114440918 12.174219131469727 L12.255000114440918 12.174219131469727 C12.174145698547363 12.161846160888672 12.093290328979492 12.149473190307617 12.012435913085938 12.137100219726562 L12.012435913085938 12.137100219726562 C12.063735961914062 12.090864181518555 12.115036010742188 12.04462718963623 12.166336059570312 11.998391151428223 L12.166336059570312 11.998391151428223 C12.162545204162598 11.991581916809082 12.158754348754883 11.984772682189941 12.154963493347168 11.9779634475708 L12.154963493347168 11.9779634475708 C12.121245384216309 11.990463256835938 12.08752727508545 12.00296401977539 12.05380916595459 12.015463829040527 L12.05380916595459 12.015463829040527 C12.05919075012207 11.987445831298828 12.064573287963867 11.959426879882812 12.069954872131348 11.931408882141113 L12.069954872131348 11.931408882141113"></path></svg>