<svg xmlns="http://www.w3.org/2000/svg" viewBox="0.0 0.0 24.0 24.0" height="200px" width="200px"><path fill="none" stroke="black" stroke-width=".3" stroke-opacity="1.0"  filling="0" d="M13.264445304870605 11.030889511108398 L13.264445304870605 11.030889511108398 C13.780707359313965 11.073079109191895 13.666439056396484 11.664031982421875 13.827164649963379 12.048845291137695 L13.827164649963379 12.048845291137695 C13.835700988769531 12.04582691192627 13.844237327575684 12.042808532714844 13.852773666381836 12.039790153503418 L13.852773666381836 12.039790153503418 C13.828930854797363 11.726301193237305 13.707795143127441 11.361430168151855 13.793182373046875 11.060235977172852 L13.793182373046875 11.060235977172852 C13.855964660644531 11.060235977172852 13.918745994567871 11.060235977172852 13.981528282165527 11.060235977172852 L13.981528282165527 11.060235977172852 C14.179388046264648 11.718819618225098 14.46947193145752 13.078603744506836 14.160327911376953 13.711745262145996 L14.160327911376953 13.711745262145996 C13.828493118286133 13.415318489074707 13.814718246459961 13.06252384185791 13.686328887939453 12.634910583496094 L13.686328887939453 12.634910583496094 C13.706437110900879 12.93183708190918 13.726546287536621 13.228763580322266 13.746654510498047 13.525690078735352 L13.746654510498047 13.525690078735352 C13.708590507507324 13.543781280517578 13.670527458190918 13.561871528625488 13.632463455200195 13.579962730407715 L13.632463455200195 13.579962730407715 C13.111909866333008 13.386635780334473 13.16469955444336 11.499223709106445 13.264445304870605 11.030889511108398 L13.264445304870605 11.030889511108398"></path></svg>