<svg xmlns="http://www.w3.org/2000/svg" viewBox="0.0 0.0 24.0 24.0" height="200px" width="200px"><path fill="none" stroke="black" stroke-width=".3" stroke-opacity="1.0"  filling="0" d="M11.399999618530273 11.809091567993164 L11.399999618530273 11.809091567993164 C11.418181419372559 11.809091567993164 11.436363220214844 11.809091567993164 11.454545021057129 11.809091567993164 L11.454545021057129 11.809091567993164 C11.460636138916016 11.850854873657227 11.466727256774902 11.892618179321289 11.472818374633789 11.934381484985352 L11.472818374633789 11.934381484985352 C11.661164283752441 11.990548133850098 11.71770191192627 12.172059059143066 11.455554962158203 12.214881896972656 C11.320816040039062 12.236891746520996 11.403005599975586 11.94558334350586 11.399999618530273 11.809091567993164 L11.399999618530273 11.809091567993164"></path>
<path fill="none" stroke="black" stroke-width=".3" stroke-opacity="1.0"  filling="0" d="M11.504018783569336 12.003437042236328 L11.504018783569336 12.003437042236328 C11.539671897888184 12.01303768157959 11.566549301147461 12.043285369873047 11.594208717346191 12.067745208740234 L11.594208717346191 12.067745208740234 C11.575318336486816 12.107227325439453 11.556427001953125 12.146708488464355 11.53753662109375 12.186190605163574 L11.53753662109375 12.186190605163574 C11.52636432647705 12.125272750854492 11.515191078186035 12.06435489654541 11.504018783569336 12.003437042236328 L11.504018783569336 12.003437042236328"></path></svg>