<svg xmlns="http://www.w3.org/2000/svg" viewBox="0.0 0.0 24.0 24.0" height="200px" width="200px"><path fill="none" stroke="black" stroke-width=".3" stroke-opacity="1.0"  filling="0" d="M12.184637069702148 11.947608947753906 L12.184637069702148 11.947608947753906 C12.430081367492676 11.951242446899414 12.427403450012207 11.967605590820312 12.452346801757812 12.211280822753906 L12.452346801757812 12.211280822753906 C12.422991752624512 12.211280822753906 12.393637657165527 12.211280822753906 12.364282608032227 12.211280822753906 L12.364282608032227 12.211280822753906 C12.367291450500488 12.142971992492676 12.37030029296875 12.074663162231445 12.373309135437012 12.006354331970215 L12.373309135437012 12.006354331970215 C12.341917991638184 12.006354331970215 12.310527801513672 12.006354331970215 12.279136657714844 12.006354331970215 L12.279136657714844 12.006354331970215 C12.279136657714844 12.072681427001953 12.279136657714844 12.139008522033691 12.279136657714844 12.20533561706543 L12.279136657714844 12.20533561706543 C12.257027626037598 12.140617370605469 12.234918594360352 12.075899124145508 12.212809562683105 12.011180877685547 L12.212809562683105 12.011180877685547 C12.18918228149414 12.000690460205078 12.165555000305176 11.990199089050293 12.141927719116211 11.979708671569824 L12.141927719116211 11.979708671569824 C12.143027305603027 11.98101806640625 12.14412784576416 11.982327461242676 12.145227432250977 11.983636856079102 L12.145227432250977 11.983636856079102 C12.158364295959473 11.971627235412598 12.171500205993652 11.95961856842041 12.184637069702148 11.947608947753906 L12.184637069702148 11.947608947753906"></path></svg>