<svg xmlns="http://www.w3.org/2000/svg" viewBox="0.0 0.0 24.0 24.0" height="200px" width="200px"><path fill="none" stroke="black" stroke-width=".3" stroke-opacity="1.0"  filling="0" d="M12.156654357910156 11.952300071716309 L12.156654357910156 11.952300071716309 C12.175209045410156 11.955354690551758 12.19376277923584 11.958409309387207 12.21231746673584 11.961463928222656 L12.21231746673584 11.961463928222656 C12.221453666687012 12.004809379577637 12.2305908203125 12.048154830932617 12.239727020263672 12.091500282287598 L12.239727020263672 12.091500282287598 C12.188108444213867 12.055618286132812 12.136490821838379 12.019737243652344 12.084872245788574 11.983855247497559 L12.084872245788574 11.983855247497559 C12.084872245788574 12.043391227722168 12.084872245788574 12.102928161621094 12.084872245788574 12.162464141845703 L12.084872245788574 12.162464141845703 C12.128063201904297 12.1603364944458 12.171253204345703 12.158209800720215 12.214444160461426 12.156082153320312 L12.214444160461426 12.156082153320312 C12.215689659118652 12.176791191101074 12.216935157775879 12.197501182556152 12.218180656433105 12.218210220336914 L12.218180656433105 12.218210220336914 C12.17272663116455 12.21820068359375 12.12727165222168 12.218191146850586 12.081817626953125 12.218181610107422 L12.081817626953125 12.218181610107422 C12.048694610595703 12.132274627685547 12.079629898071289 12.002740859985352 12.156654357910156 11.952300071716309 L12.156654357910156 11.952300071716309"></path></svg>