<svg xmlns="http://www.w3.org/2000/svg" viewBox="0.0 0.0 24.0 24.0" height="200px" width="200px"><path fill="none" stroke="black" stroke-width=".3" stroke-opacity="1.0"  filling="0" d="M12.371865272521973 11.831891059875488 L12.371865272521973 11.831891059875488 C12.381428718566895 11.835036277770996 12.390992164611816 11.83818244934082 12.400555610656738 11.841327667236328 L12.400555610656738 11.841327667236328 C12.405074119567871 11.877436637878418 12.409592628479004 11.913545608520508 12.414111137390137 11.949654579162598 L12.414111137390137 11.949654579162598 C12.516958236694336 11.979157447814941 12.54926872253418 12.130718231201172 12.556173324584961 12.237489700317383 L12.556173324584961 12.237489700317383 C12.540573120117188 12.167753219604492 12.524972915649414 12.098017692565918 12.50937271118164 12.028281211853027 L12.50937271118164 12.028281211853027 C12.484845161437988 12.086380958557129 12.460318565368652 12.144481658935547 12.435791015625 12.202581405639648 L12.435791015625 12.202581405639648 C12.400052070617676 12.214330673217773 12.365556716918945 12.233059883117676 12.337610244750977 12.258245468139648 L12.337610244750977 12.258245468139648 C12.301918983459473 12.11385440826416 12.32673454284668 11.968994140625 12.371865272521973 11.831891059875488 L12.371865272521973 11.831891059875488"></path></svg>