<svg xmlns="http://www.w3.org/2000/svg" viewBox="0.0 0.0 24.0 24.0" height="200px" width="200px"><path fill="none" stroke="black" stroke-width=".3" stroke-opacity="1.0"  filling="0" d="M11.86644458770752 11.851747512817383 L11.86644458770752 11.851747512817383 C11.895453453063965 11.866910934448242 11.924463272094727 11.882074356079102 11.953472137451172 11.897237777709961 L11.953472137451172 11.897237777709961 C11.950335502624512 11.905573844909668 11.947199821472168 11.913910865783691 11.944063186645508 11.922246932983398 L11.944063186645508 11.922246932983398 C11.892927169799805 11.911574363708496 11.841790199279785 11.900900840759277 11.790654182434082 11.890228271484375 L11.790654182434082 11.890228271484375 C11.785390853881836 11.901246070861816 11.780126571655273 11.912263870239258 11.774863243103027 11.9232816696167 L11.774863243103027 11.9232816696167 C11.930119514465332 12.04716682434082 11.999312400817871 12.10457706451416 11.826081275939941 12.2437105178833 L11.826081275939941 12.2437105178833 C11.816580772399902 12.233774185180664 11.80708122253418 12.223837852478027 11.79758071899414 12.21390151977539 L11.79758071899414 12.21390151977539 C11.835107803344727 12.191983222961426 11.872635841369629 12.170064926147461 11.910162925720215 12.148146629333496 L11.910162925720215 12.148146629333496 C11.737305641174316 12.028112411499023 11.608067512512207 11.944415092468262 11.86644458770752 11.851747512817383 L11.86644458770752 11.851747512817383"></path></svg>