<svg xmlns="http://www.w3.org/2000/svg" viewBox="0.0 0.0 24.0 24.0" height="200px" width="200px"><path fill="none" stroke="black" stroke-width=".3" stroke-opacity="1.0"  filling="0" d="M12.615681648254395 11.894890785217285 L12.615681648254395 11.894890785217285 C12.652971267700195 11.913212776184082 12.699127197265625 11.955914497375488 12.688471794128418 11.996072769165039 L12.688471794128418 11.996072769165039 C12.655826568603516 11.981491088867188 12.623181343078613 11.966909408569336 12.590536117553711 11.952327728271484 L12.590536117553711 11.952327728271484 C12.572099685668945 11.98033618927002 12.55366325378418 12.008345603942871 12.535226821899414 12.036354064941406 L12.535226821899414 12.036354064941406 C12.582944869995117 12.074036598205566 12.630663871765137 12.11171817779541 12.67838191986084 12.14940071105957 L12.67838191986084 12.14940071105957 C12.628363609313965 12.14940071105957 12.578344345092773 12.14940071105957 12.528326034545898 12.14940071105957 L12.528326034545898 12.14940071105957 C12.51249885559082 12.082773208618164 12.496671676635742 12.016145706176758 12.480844497680664 11.949518203735352 L12.480844497680664 11.949518203735352 C12.525790214538574 11.93130874633789 12.570735931396484 11.913100242614746 12.615681648254395 11.894890785217285 L12.615681648254395 11.894890785217285"></path></svg>