<svg xmlns="http://www.w3.org/2000/svg" viewBox="0.0 0.0 24.0 24.0" height="200px" width="200px"><path fill="none" stroke="black" stroke-width=".3" stroke-opacity="1.0"  filling="0" d="M11.516399383544922 11.85490894317627 L11.516399383544922 11.85490894317627 C11.54365348815918 11.87047290802002 11.570907592773438 11.886035919189453 11.598161697387695 11.901599884033203 L11.598161697387695 11.901599884033203 C11.594571113586426 11.909608840942383 11.590981483459473 11.917618751525879 11.587390899658203 11.925627708435059 L11.587390899658203 11.925627708435059 C11.537808418273926 11.912809371948242 11.488226890563965 11.899991035461426 11.438644409179688 11.88717269897461 L11.438644409179688 11.88717269897461 C11.432380676269531 11.897263526916504 11.426116943359375 11.907354354858398 11.419853210449219 11.917445182800293 L11.419853210449219 11.917445182800293 C11.483989715576172 11.9749174118042 11.548126220703125 12.032390594482422 11.612262725830078 12.089862823486328 L11.612262725830078 12.089862823486328 C11.577890396118164 12.14172649383545 11.543517112731934 12.19359016418457 11.50914478302002 12.245453834533691 L11.50914478302002 12.245453834533691 C11.463672637939453 12.245453834533691 11.41819953918457 12.245454788208008 11.372727394104004 12.245454788208008 L11.372727394104004 12.245454788208008 C11.361000061035156 12.200427055358887 11.349272727966309 12.155400276184082 11.337545394897461 12.110372543334961 L11.337545394897461 12.110372543334961 C11.406036376953125 12.11434555053711 11.474526405334473 12.118318557739258 11.543017387390137 12.122291564941406 L11.543017387390137 12.122291564941406 C11.366601943969727 12.022055625915527 11.280938148498535 11.939579010009766 11.516399383544922 11.85490894317627 L11.516399383544922 11.85490894317627"></path></svg>