<svg xmlns="http://www.w3.org/2000/svg" viewBox="0.0 0.0 24.0 24.0" height="200px" width="200px"><path fill="none" stroke="black" stroke-width=".3" stroke-opacity="1.0"  filling="0" d="M11.990400314331055 11.835027694702148 L11.990400314331055 11.835027694702148 C12.003463745117188 11.879837036132812 12.016528129577637 11.92464542388916 12.02959156036377 11.969454765319824 L12.02959156036377 11.969454765319824 C12.074273109436035 11.972145080566406 12.118955612182617 11.974836349487305 12.163637161254883 11.977526664733887 L12.163637161254883 11.977526664733887 C12.163637161254883 12.066826820373535 12.163637161254883 12.156126976013184 12.163637161254883 12.245427131652832 L12.163637161254883 12.245427131652832 C12.145455360412598 12.245427131652832 12.127273559570312 12.245427131652832 12.109091758728027 12.245427131652832 L12.109091758728027 12.245427131652832 C12.109091758728027 12.174509048461914 12.109091758728027 12.10359001159668 12.109091758728027 12.032671928405762 L12.109091758728027 12.032671928405762 C12.052070617675781 12.088340759277344 12.000750541687012 12.1657133102417 12.000000953674316 12.245399475097656 L12.000000953674316 12.245399475097656 C11.981819152832031 12.245417594909668 11.96363639831543 12.245436668395996 11.945454597473145 12.245454788208008 L11.945454597473145 12.245454788208008 C11.94362735748291 12.109536170959473 11.941801071166992 11.973618507385254 11.939973831176758 11.837699890136719 L11.939973831176758 11.837699890136719 C11.956782341003418 11.836809158325195 11.973591804504395 11.835918426513672 11.990400314331055 11.835027694702148 L11.990400314331055 11.835027694702148"></path></svg>