<svg xmlns="http://www.w3.org/2000/svg" viewBox="0.0 0.0 24.0 24.0" height="200px" width="200px"><path fill="none" stroke="black" stroke-width=".3" stroke-opacity="1.0"  filling="0" d="M12.206536293029785 11.849835395812988 L12.206536293029785 11.849835395812988 C12.242045402526855 11.88849925994873 12.277554512023926 11.927162170410156 12.313063621520996 11.965826034545898 L12.313063621520996 11.965826034545898 C12.414308547973633 11.977075576782227 12.4285249710083 12.143887519836426 12.436363220214844 12.245453834533691 L12.436363220214844 12.245453834533691 C12.427271842956543 12.245453834533691 12.418181419372559 12.245453834533691 12.409090042114258 12.245453834533691 L12.409090042114258 12.245453834533691 C12.393210411071777 12.157692909240723 12.374053955078125 12.070069313049316 12.345681190490723 11.985516548156738 L12.345681190490723 11.985516548156738 C12.320671081542969 12.071965217590332 12.29561710357666 12.15842056274414 12.272726058959961 12.245453834533691 L12.272726058959961 12.245453834533691 C12.263635635375977 12.245453834533691 12.254545211791992 12.245454788208008 12.245454788208008 12.245454788208008 L12.245454788208008 12.245454788208008 C12.232481956481934 12.113581657409668 12.21950912475586 11.981708526611328 12.206536293029785 11.849835395812988 L12.206536293029785 11.849835395812988"></path></svg>