<svg xmlns="http://www.w3.org/2000/svg" viewBox="0.0 0.0 24.0 24.0" height="200px" width="200px"><path fill="none" stroke="black" stroke-width=".3" stroke-opacity="1.0"  filling="0" d="M11.706708908081055 11.978508949279785 L11.706708908081055 11.978508949279785 C11.768436431884766 11.993972778320312 11.830163955688477 12.009435653686523 11.891891479492188 12.02489948272705 L11.891891479492188 12.02489948272705 C11.847282409667969 12.0180082321167 11.80267333984375 12.011117935180664 11.758064270019531 12.004226684570312 L11.758064270019531 12.004226684570312 C11.740127563476562 12.025126457214355 11.72219181060791 12.046027183532715 11.704255104064941 12.066926956176758 L11.704255104064941 12.066926956176758 C11.768082618713379 12.095945358276367 11.8319091796875 12.124963760375977 11.895736694335938 12.153982162475586 L11.895736694335938 12.153982162475586 C11.875936508178711 12.184473037719727 11.856136322021484 12.214963912963867 11.836336135864258 12.245454788208008 L11.836336135864258 12.245454788208008 C11.799982070922852 12.245454788208008 11.763627052307129 12.245454788208008 11.727272987365723 12.245454788208008 L11.727272987365723 12.245454788208008 C11.720417976379395 12.156473159790039 11.713563919067383 12.067490577697754 11.706708908081055 11.978508949279785 L11.706708908081055 11.978508949279785"></path></svg>