<svg xmlns="http://www.w3.org/2000/svg" viewBox="0.0 0.0 24.0 24.0" height="200px" width="200px"><path fill="none" stroke="black" stroke-width=".3" stroke-opacity="1.0"  filling="0" d="M11.764744758605957 11.802353858947754 L11.764744758605957 11.802353858947754 C11.774945259094238 11.805490493774414 11.785144805908203 11.808626174926758 11.795345306396484 11.811762809753418 L11.795345306396484 11.811762809753418 C11.80355453491211 11.85495376586914 11.81176471710205 11.89814567565918 11.819973945617676 11.941336631774902 L11.819973945617676 11.941336631774902 C11.864683151245117 11.943727493286133 11.909391403198242 11.946118354797363 11.954100608825684 11.948509216308594 L11.954100608825684 11.948509216308594 C11.941600799560547 12.02090072631836 11.929100036621094 12.093291282653809 11.916600227355957 12.165682792663574 L11.916600227355957 12.165682792663574 C11.916600227355957 12.114055633544922 11.916600227355957 12.06242847442627 11.916600227355957 12.010801315307617 L11.916600227355957 12.010801315307617 C11.883672714233398 11.997464179992676 11.850746154785156 11.98412799835205 11.817818641662598 11.97079086303711 L11.817818641662598 11.97079086303711 C11.817818641662598 12.034463882446289 11.817818641662598 12.098136901855469 11.817818641662598 12.161809921264648 L11.817818641662598 12.161809921264648 C11.852036476135254 12.161818504333496 11.886255264282227 12.16182804107666 11.920473098754883 12.161836624145508 L11.920473098754883 12.161836624145508 C11.694355964660645 12.193893432617188 11.676151275634766 11.989269256591797 11.764744758605957 11.802353858947754 L11.764744758605957 11.802353858947754"></path></svg>