<svg xmlns="http://www.w3.org/2000/svg" viewBox="0.0 0.0 24.0 24.0" height="200px" width="200px"><path fill="none" stroke="black" stroke-width=".3" stroke-opacity="1.0"  filling="0" d="M11.754573822021484 11.900482177734375 L11.754573822021484 11.900482177734375 C11.815682411193848 11.900482177734375 11.876791954040527 11.900482177734375 11.93790054321289 11.900482177734375 L11.93790054321289 11.900482177734375 C11.959383010864258 11.985118865966797 11.980864524841309 12.069754600524902 12.002346992492676 12.154391288757324 L12.002346992492676 12.154391288757324 C11.975937843322754 12.157064437866211 11.949527740478516 12.159736633300781 11.923118591308594 12.162409782409668 L11.923118591308594 12.162409782409668 C11.920127868652344 12.094819068908691 11.917137145996094 12.027228355407715 11.914146423339844 11.959637641906738 L11.914146423339844 11.959637641906738 C11.904146194458008 11.952146530151367 11.894145965576172 11.944655418395996 11.884145736694336 11.937164306640625 L11.884145736694336 11.937164306640625 C11.818933486938477 12.019327163696289 11.85412883758545 12.090360641479492 11.787410736083984 12.171463966369629 L11.787410736083984 12.171463966369629 C11.77646541595459 12.167263984680176 11.765519142150879 12.163064002990723 11.754573822021484 12.15886402130127 L11.754573822021484 12.15886402130127 C11.754573822021484 12.072736740112305 11.754573822021484 11.98660945892334 11.754573822021484 11.900482177734375 L11.754573822021484 11.900482177734375"></path></svg>