<svg xmlns="http://www.w3.org/2000/svg" viewBox="0.0 0.0 24.0 24.0" height="200px" width="200px"><path fill="none" stroke="black" stroke-width=".3" stroke-opacity="1.0"  filling="0" d="M12.436363220214844 11.829955101013184 L12.436363220214844 11.829955101013184 C12.457282066345215 11.87668228149414 12.47819995880127 11.923409461975098 12.49911880493164 11.970136642456055 L12.49911880493164 11.970136642456055 C12.677112579345703 12.013615608215332 12.678378105163574 12.070016860961914 12.681818008422852 12.245454788208008 L12.681818008422852 12.245454788208008 C12.654545783996582 12.245454788208008 12.627272605895996 12.245454788208008 12.600000381469727 12.245454788208008 L12.600000381469727 12.245454788208008 C12.600000381469727 12.163164138793945 12.600000381469727 12.080873489379883 12.600000381469727 11.99858283996582 L12.600000381469727 11.99858283996582 C12.533502578735352 12.054203033447266 12.519838333129883 12.158778190612793 12.518181800842285 12.245454788208008 L12.518181800842285 12.245454788208008 C12.4909086227417 12.245454788208008 12.46363639831543 12.245454788208008 12.436363220214844 12.245454788208008 L12.436363220214844 12.245454788208008 C12.436363220214844 12.106954574584961 12.436363220214844 11.96845531463623 12.436363220214844 11.829955101013184 L12.436363220214844 11.829955101013184"></path></svg>