<svg xmlns="http://www.w3.org/2000/svg" viewBox="0.0 0.0 24.0 24.0" height="200px" width="200px"><path fill="none" stroke="black" stroke-width=".3" stroke-opacity="1.0"  filling="0" d="M10.71158218383789 11.834209442138672 L10.71158218383789 11.834209442138672 C10.726818084716797 11.879809379577637 10.74205493927002 11.925410270690918 10.757290840148926 11.971010208129883 L10.757290840148926 11.971010208129883 C10.92524242401123 12.041328430175781 10.907573699951172 12.0713472366333 10.909090042114258 12.245428085327148 L10.909090042114258 12.245428085327148 C10.881817817687988 12.245428085327148 10.854544639587402 12.245428085327148 10.827272415161133 12.245428085327148 L10.827272415161133 12.245428085327148 C10.826050758361816 12.168625831604004 10.824600219726562 12.080769538879395 10.776899337768555 12.020564079284668 L10.776899337768555 12.020564079284668 C10.76640796661377 12.02542781829834 10.7559175491333 12.030291557312012 10.745426177978516 12.035155296325684 L10.745426177978516 12.035155296325684 C10.745426177978516 12.105255126953125 10.745426177978516 12.175354957580566 10.745426177978516 12.245454788208008 L10.745426177978516 12.245454788208008 C10.70907211303711 12.245454788208008 10.672717094421387 12.245454788208008 10.63636302947998 12.245454788208008 L10.63636302947998 12.245454788208008 C10.645347595214844 12.108829498291016 10.651159286499023 11.971698760986328 10.669881820678711 11.836064338684082 L10.669881820678711 11.836064338684082 C10.683781623840332 11.83544635772705 10.69768238067627 11.834827423095703 10.71158218383789 11.834209442138672 L10.71158218383789 11.834209442138672"></path></svg>