<svg xmlns="http://www.w3.org/2000/svg" viewBox="0.0 0.0 24.0 24.0" height="200px" width="200px"><path fill="none" stroke="black" stroke-width=".3" stroke-opacity="1.0"  filling="0" d="M11.402345657348633 11.917936325073242 L11.402345657348633 11.917936325073242 C11.4232816696167 11.990482330322266 11.444218635559082 12.063027381896973 11.465154647827148 12.135573387145996 L11.465154647827148 12.135573387145996 C11.4754638671875 12.136199951171875 11.485773086547852 12.13682746887207 11.496082305908203 12.13745403289795 L11.496082305908203 12.13745403289795 C11.514636039733887 12.06666374206543 11.533190727233887 11.99587345123291 11.55174446105957 11.92508316040039 L11.55174446105957 11.92508316040039 C11.583480834960938 11.92508316040039 11.615218162536621 11.92508316040039 11.646954536437988 11.92508316040039 L11.646954536437988 11.92508316040039 C11.589791297912598 12.055218696594238 11.53262710571289 12.185355186462402 11.4754638671875 12.31549072265625 L11.4754638671875 12.31549072265625 C11.405527114868164 12.186463356018066 11.335591316223145 12.0574369430542 11.265654563903809 11.928409576416016 L11.265654563903809 11.928409576416016 C11.31121826171875 11.924918174743652 11.356781959533691 11.921427726745605 11.402345657348633 11.917936325073242 L11.402345657348633 11.917936325073242"></path></svg>