<svg xmlns="http://www.w3.org/2000/svg" viewBox="0.0 0.0 24.0 24.0" height="200px" width="200px"><path fill="none" stroke="black" stroke-width=".3" stroke-opacity="1.0"  filling="0" d="M12.732136726379395 11.96713638305664 L12.732136726379395 11.96713638305664 C12.724464416503906 12.059908866882324 12.716791152954102 12.152681350708008 12.709118843078613 12.245453834533691 L12.709118843078613 12.245453834533691 C12.700027465820312 12.245453834533691 12.690937042236328 12.245453834533691 12.681845664978027 12.245453834533691 L12.681845664978027 12.245453834533691 C12.680405616760254 12.167881965637207 12.678030014038086 12.067352294921875 12.614645957946777 12.022608757019043 L12.614645957946777 12.022608757019043 C12.600682258605957 12.096890449523926 12.586718559265137 12.171172142028809 12.572754859924316 12.245453834533691 L12.572754859924316 12.245453834533691 C12.545473098754883 12.245453834533691 12.51819133758545 12.245454788208008 12.490909576416016 12.245454788208008 L12.490909576416016 12.245454788208008 C12.50655460357666 12.16589069366455 12.522200584411621 12.08632755279541 12.537845611572266 12.006763458251953 L12.537845611572266 12.006763458251953 C12.602609634399414 11.99355411529541 12.667372703552246 11.980345726013184 12.732136726379395 11.96713638305664 L12.732136726379395 11.96713638305664"></path></svg>