<svg xmlns="http://www.w3.org/2000/svg" viewBox="0.0 0.0 24.0 24.0" height="200px" width="200px"><path fill="none" stroke="black" stroke-width=".3" stroke-opacity="1.0"  filling="0" d="M11.640218734741211 11.841817855834961 L11.640218734741211 11.841817855834961 C11.746764183044434 11.85619068145752 11.853309631347656 11.870563507080078 11.959855079650879 11.884936332702637 L11.959855079650879 11.884936332702637 C11.895381927490234 11.888854026794434 11.830909729003906 11.892772674560547 11.766436576843262 11.896690368652344 L11.766436576843262 11.896690368652344 C11.816673278808594 11.945545196533203 11.86690902709961 11.994400024414062 11.917145729064941 12.043254852294922 L11.917145729064941 12.043254852294922 C11.866618156433105 12.049482345581055 11.816091537475586 12.055708885192871 11.76556396484375 12.061936378479004 L11.76556396484375 12.061936378479004 C11.75644588470459 12.11989974975586 11.74732780456543 12.177864074707031 11.73820972442627 12.235827445983887 L11.73820972442627 12.235827445983887 C11.726755142211914 12.235763549804688 11.715300559997559 12.235700607299805 11.703845977783203 12.235636711120605 L11.703845977783203 12.235636711120605 C11.682637214660645 12.104363441467285 11.66142749786377 11.973091125488281 11.640218734741211 11.841817855834961 L11.640218734741211 11.841817855834961"></path></svg>