<svg xmlns="http://www.w3.org/2000/svg" viewBox="0.0 0.0 24.0 24.0" height="200px" width="200px"><path fill="none" stroke="black" stroke-width=".3" stroke-opacity="1.0"  filling="0" d="M22.36306381225586 14.701227188110352 L22.36306381225586 14.701227188110352 C22.83315086364746 14.701366424560547 23.3245849609375 14.571892738342285 23.77328109741211 14.712081909179688 L23.77328109741211 14.712081909179688 C23.77328109741211 14.906936645507812 23.77328109741211 15.101791381835938 23.77328109741211 15.296646118164062 L23.77328109741211 15.296646118164062 C23.30340003967285 15.296646118164062 22.83351707458496 15.296646118164062 22.363636016845703 15.296646118164062 L22.363636016845703 15.296646118164062 C22.363636016845703 15.42504596710205 22.363636016845703 15.553446769714355 22.363636016845703 15.681846618652344 L22.363636016845703 15.681846618652344 C22.16363525390625 15.68183708190918 21.96363639831543 15.6818265914917 21.763635635375977 15.681817054748535 L21.763635635375977 15.681817054748535 C21.763635635375977 15.363235473632812 21.763635635375977 15.04465389251709 21.763635635375977 14.726072311401367 L21.763635635375977 14.726072311401367 C21.96361541748047 14.725528717041016 22.16529655456543 14.730901718139648 22.36306381225586 14.701227188110352 L22.36306381225586 14.701227188110352"></path></svg>