<svg xmlns="http://www.w3.org/2000/svg" viewBox="0.0 0.0 24.0 24.0" height="200px" width="200px"><path fill="none" stroke="black" stroke-width=".3" stroke-opacity="1.0"  filling="0" d="M10.480554580688477 11.835627555847168 L10.480554580688477 11.835627555847168 C10.509991645812988 11.84655475616455 10.539427757263184 11.857481002807617 10.568864822387695 11.868408203125 L10.568864822387695 11.868408203125 C10.545137405395508 11.929490089416504 10.52140998840332 11.990571975708008 10.497682571411133 12.051653861999512 L10.497682571411133 12.051653861999512 C10.547000885009766 12.098835945129395 10.596318244934082 12.146018028259277 10.645636558532715 12.19320011138916 L10.645636558532715 12.19320011138916 C10.56446361541748 12.144990921020508 10.483290672302246 12.096782684326172 10.402117729187012 12.04857349395752 L10.402117729187012 12.04857349395752 C10.406245231628418 12.101546287536621 10.410371780395508 12.154518127441406 10.414499282836914 12.207490921020508 L10.414499282836914 12.207490921020508 C10.382562637329102 12.210164070129395 10.350626945495605 12.212836265563965 10.318690299987793 12.215509414672852 L10.318690299987793 12.215509414672852 C10.309144973754883 12.09134578704834 10.299599647521973 11.967183113098145 10.290054321289062 11.843019485473633 L10.290054321289062 11.843019485473633 C10.330281257629395 11.843019485473633 10.370509147644043 11.843019485473633 10.410736083984375 11.843019485473633 L10.410736083984375 11.843019485473633 C10.403471946716309 11.892964363098145 10.396208763122559 11.942910194396973 10.388944625854492 11.992855072021484 L10.388944625854492 11.992855072021484 C10.426745414733887 11.992855072021484 10.464545249938965 11.992855072021484 10.50234603881836 11.992855072021484 L10.50234603881836 11.992855072021484 C10.495081901550293 11.940445899963379 10.487818717956543 11.888036727905273 10.480554580688477 11.835627555847168 L10.480554580688477 11.835627555847168"></path></svg>