<svg xmlns="http://www.w3.org/2000/svg" viewBox="0.0 0.0 24.0 24.0" height="200px" width="200px"><path fill="none" stroke="black" stroke-width=".3" stroke-opacity="1.0"  filling="0" d="M16.80504608154297 10.784317970275879 L16.80504608154297 10.784317970275879 C16.823745727539062 10.785805702209473 21.550615310668945 10.796316146850586 19.12118148803711 12.301990509033203 L19.12118148803711 12.301990509033203 C19.608081817626953 12.736363410949707 21.109594345092773 14.605170249938965 19.51415252685547 14.809036254882812 C19.25040054321289 14.842738151550293 19.44571304321289 14.274421691894531 19.487316131591797 14.011800765991211 C19.53910255432129 13.684901237487793 19.194507598876953 13.011637687683105 19.112096786499023 12.914700508117676 C18.25605010986328 11.907760620117188 17.56424331665039 12.313030242919922 17.563581466674805 13.348663330078125 L17.563581466674805 13.348663330078125 C18.356014251708984 13.752614974975586 15.979677200317383 13.875296592712402 16.889183044433594 13.316018104553223 L16.889183044433594 13.316018104553223 C16.904096603393555 13.037492752075195 16.627445220947266 10.943095207214355 16.80504608154297 10.784317970275879 L16.80504608154297 10.784317970275879"></path>
<path fill="none" stroke="black" stroke-width=".3" stroke-opacity="1.0"  filling="0" d="M17.595462799072266 11.209063529968262 L17.595462799072266 11.209063529968262 C17.91699981689453 11.209636688232422 18.248764038085938 11.130327224731445 18.56007194519043 11.210782051086426 C19.711923599243164 11.508467674255371 17.24925994873047 12.976644515991211 17.595462799072266 11.209063529968262 L17.595462799072266 11.209063529968262"></path></svg>