<svg xmlns="http://www.w3.org/2000/svg" viewBox="0.0 0.0 24.0 24.0" height="200px" width="200px"><path fill="none" stroke="black" stroke-width=".3" stroke-opacity="1.0"  filling="0" d="M12.194644927978516 11.869718551635742 L12.194644927978516 11.869718551635742 C12.233508110046387 11.869718551635742 12.272372245788574 11.869718551635742 12.311235427856445 11.869718551635742 L12.311235427856445 11.869718551635742 C12.298380851745605 11.994973182678223 12.285526275634766 12.120227813720703 12.272671699523926 12.245482444763184 L12.272671699523926 12.245482444763184 C12.218144416809082 12.24547290802002 12.163618087768555 12.245464324951172 12.109090805053711 12.245454788208008 L12.109090805053711 12.245454788208008 C12.084936141967773 12.213900566101074 12.060781478881836 12.182345390319824 12.036626815795898 12.15079116821289 L12.036626815795898 12.15079116821289 C12.05359935760498 12.099790573120117 12.070572853088379 12.04879093170166 12.087545394897461 11.997790336608887 L12.087545394897461 11.997790336608887 C12.097172737121582 11.999972343444824 12.106799125671387 12.002154350280762 12.116426467895508 12.0043363571167 L12.116426467895508 12.0043363571167 C12.118096351623535 12.070409774780273 12.140624046325684 12.144298553466797 12.189682006835938 12.188591003417969 L12.189682006835938 12.188591003417969 C12.21539306640625 12.130708694458008 12.217026710510254 12.055854797363281 12.189981460571289 11.99858283996582 L12.189981460571289 11.99858283996582 C12.191535949707031 11.955628395080566 12.193090438842773 11.912672996520996 12.194644927978516 11.869718551635742 L12.194644927978516 11.869718551635742"></path></svg>