<svg xmlns="http://www.w3.org/2000/svg" viewBox="0.0 0.0 24.0 24.0" height="200px" width="200px"><path fill="none" stroke="black" stroke-width=".3" stroke-opacity="1.0"  filling="0" d="M11.108154296875 11.91520881652832 L11.108154296875 11.91520881652832 C11.190281867980957 11.91520881652832 11.272409439086914 11.91520881652832 11.354537010192871 11.91520881652832 L11.354537010192871 11.91520881652832 C11.352509498596191 11.998117446899414 11.350482940673828 12.081027030944824 11.348455429077148 12.163935661315918 L11.348455429077148 12.163935661315918 C11.332963943481445 12.16281795501709 11.317473411560059 12.161699295043945 11.301981925964355 12.160581588745117 L11.301981925964355 12.160581588745117 C11.293254852294922 12.088373184204102 11.284526824951172 12.01616382598877 11.275799751281738 11.943955421447754 L11.275799751281738 11.943955421447754 C11.254773139953613 12.014863967895508 11.233745574951172 12.085772514343262 11.212718963623047 12.156681060791016 L11.212718963623047 12.156681060791016 C11.187427520751953 12.156681060791016 11.162137031555176 12.156681060791016 11.136845588684082 12.156681060791016 L11.136845588684082 12.156681060791016 C11.12728214263916 12.076189994812012 11.117717742919922 11.995699882507324 11.108154296875 11.91520881652832 L11.108154296875 11.91520881652832"></path></svg>