<svg xmlns="http://www.w3.org/2000/svg" viewBox="0.0 0.0 24.0 24.0" height="200px" width="200px"><path fill="none" stroke="black" stroke-width=".3" stroke-opacity="1.0"  filling="0" d="M11.354235649108887 11.89565372467041 L11.354235649108887 11.89565372467041 C11.376617431640625 11.91591739654541 11.39900016784668 11.936182022094727 11.421381950378418 11.956445693969727 L11.421381950378418 11.956445693969727 C11.40352725982666 11.955127716064453 11.385673522949219 11.953808784484863 11.367818832397461 11.95249080657959 L11.367818832397461 11.95249080657959 C11.436100006103516 12.111797332763672 11.431912422180176 12.270657539367676 11.25638198852539 12.112200736999512 L11.25638198852539 12.112200736999512 C11.265263557434082 12.103718757629395 11.274145126342773 12.095235824584961 11.283026695251465 12.086753845214844 L11.283026695251465 12.086753845214844 C11.315436363220215 12.105208396911621 11.347845077514648 12.123663902282715 11.380254745483398 12.142118453979492 L11.380254745483398 12.142118453979492 C11.385927200317383 12.133381843566895 11.391600608825684 12.124646186828613 11.397273063659668 12.115909576416016 L11.397273063659668 12.115909576416016 C11.274042129516602 12.026841163635254 11.230489730834961 12.005104064941406 11.354235649108887 11.89565372467041 L11.354235649108887 11.89565372467041"></path></svg>