<svg xmlns="http://www.w3.org/2000/svg" viewBox="0.0 0.0 24.0 24.0" height="200px" width="200px"><path fill="none" stroke="black" stroke-width=".3" stroke-opacity="1.0"  filling="0" d="M12.359101295471191 11.859055519104004 L12.359101295471191 11.859055519104004 C12.38148307800293 11.901436805725098 12.403864860534668 11.943819046020508 12.426246643066406 11.986200332641602 L12.426246643066406 11.986200332641602 C12.498589515686035 12.023221015930176 12.523136138916016 12.151162147521973 12.484854698181152 12.222846031188965 L12.484854698181152 12.222846031188965 C12.465036392211914 12.159828186035156 12.445219039916992 12.096809387207031 12.425400733947754 12.033791542053223 L12.425400733947754 12.033791542053223 C12.446700096130371 12.095473289489746 12.468000411987305 12.15715503692627 12.489299774169922 12.218836784362793 L12.489299774169922 12.218836784362793 C12.489836692810059 12.227709770202637 12.490372657775879 12.236581802368164 12.490909576416016 12.245454788208008 L12.490909576416016 12.245454788208008 C12.454545974731445 12.245454788208008 12.418181419372559 12.245454788208008 12.381817817687988 12.245454788208008 L12.381817817687988 12.245454788208008 C12.350415229797363 12.123725891113281 12.333314895629883 11.998003959655762 12.325582504272461 11.872528076171875 L12.325582504272461 11.872528076171875 C12.336755752563477 11.868037223815918 12.347928047180176 11.863546371459961 12.359101295471191 11.859055519104004 L12.359101295471191 11.859055519104004"></path></svg>