<svg xmlns="http://www.w3.org/2000/svg" viewBox="0.0 0.0 24.0 24.0" height="200px" width="200px"><path fill="none" stroke="black" stroke-width=".3" stroke-opacity="1.0"  filling="0" d="M12.570082664489746 12.02086353302002 L12.570082664489746 12.02086353302002 C12.609109878540039 12.05141830444336 12.648137092590332 12.0819730758667 12.687164306640625 12.112527847290039 L12.687164306640625 12.112527847290039 C12.640854835510254 12.124846458435059 12.5945463180542 12.137164115905762 12.548236846923828 12.149482727050781 L12.548236846923828 12.149482727050781 C12.547582626342773 12.156573295593262 12.546928405761719 12.163664817810059 12.546274185180664 12.170755386352539 L12.546274185180664 12.170755386352539 C12.578347206115723 12.181882858276367 12.610419273376465 12.193009376525879 12.642492294311523 12.204136848449707 L12.642492294311523 12.204136848449707 C12.637419700622559 12.217900276184082 12.632346153259277 12.231664657592773 12.627273559570312 12.245428085327148 L12.627273559570312 12.245428085327148 C12.590909957885742 12.245436668395996 12.554545402526855 12.24544620513916 12.518181800842285 12.245454788208008 L12.518181800842285 12.245454788208008 C12.535482406616211 12.170591354370117 12.55278205871582 12.09572696685791 12.570082664489746 12.02086353302002 L12.570082664489746 12.02086353302002"></path></svg>