<svg xmlns="http://www.w3.org/2000/svg" viewBox="0.0 0.0 24.0 24.0" height="200px" width="200px"><path fill="none" stroke="black" stroke-width=".3" stroke-opacity="1.0"  filling="0" d="M9.016119003295898 10.374654769897461 L9.016119003295898 10.374654769897461 C9.01917552947998 10.374654769897461 11.042707443237305 10.374654769897461 11.044528007507324 10.374654769897461 L11.044528007507324 10.374654769897461 C11.04229736328125 11.350650787353516 10.714691162109375 10.9645414352417 9.60171890258789 10.96363639831543 L9.60171890258789 10.96363639831543 C9.612654685974121 11.125036239624023 9.623591423034668 11.286437034606934 9.634527206420898 11.447836875915527 L9.634527206420898 11.447836875915527 C10.079445838928223 11.447836875915527 10.52436351776123 11.447836875915527 10.969282150268555 11.447836875915527 L10.969282150268555 11.447836875915527 C10.965436935424805 11.663082122802734 10.961590766906738 11.878327369689941 10.957745552062988 12.093572616577148 L10.957745552062988 12.093572616577148 C10.504227638244629 12.093572616577148 10.050708770751953 12.093572616577148 9.597190856933594 12.093572616577148 L9.597190856933594 12.093572616577148 C9.597190856933594 12.505572319030762 9.597190856933594 12.917572975158691 9.597190856933594 13.329572677612305 L9.597190856933594 13.329572677612305 C9.4035005569458 13.329572677612305 9.209809303283691 13.329572677612305 9.016119003295898 13.329572677612305 L9.016119003295898 13.329572677612305 C9.016119003295898 12.344599723815918 9.016119003295898 11.359627723693848 9.016119003295898 10.374654769897461 L9.016119003295898 10.374654769897461"></path></svg>