<svg xmlns="http://www.w3.org/2000/svg" viewBox="0.0 0.0 24.0 24.0" height="200px" width="200px"><path fill="none" stroke="black" stroke-width=".3" stroke-opacity="1.0"  filling="0" d="M13.376236915588379 11.98404598236084 L13.376236915588379 11.98404598236084 C13.402409553527832 12.017755508422852 13.428582191467285 12.051464080810547 13.454754829406738 12.085173606872559 L13.454754829406738 12.085173606872559 C13.443427085876465 12.094609260559082 13.432100296020508 12.104045867919922 13.420772552490234 12.113481521606445 L13.420772552490234 12.113481521606445 C13.393672943115234 12.086444854736328 13.366572380065918 12.059409141540527 13.339472770690918 12.03237247467041 L13.339472770690918 12.03237247467041 C13.370245933532715 12.0870361328125 13.401018142700195 12.141700744628906 13.431791305541992 12.196364402770996 L13.431791305541992 12.196364402770996 C13.427255630493164 12.212737083435059 13.42271900177002 12.229108810424805 13.418183326721191 12.245481491088867 L13.418183326721191 12.245481491088867 C13.37272834777832 12.24547290802002 13.327272415161133 12.245463371276855 13.281817436218262 12.245454788208008 L13.281817436218262 12.245454788208008 C13.279393196105957 12.152840614318848 13.289451599121094 12.016475677490234 13.376236915588379 11.98404598236084 L13.376236915588379 11.98404598236084"></path></svg>