<svg xmlns="http://www.w3.org/2000/svg" viewBox="0.0 0.0 24.0 24.0" height="200px" width="200px"><path fill="none" stroke="black" stroke-width=".3" stroke-opacity="1.0"  filling="0" d="M12.054545402526855 11.87260913848877 L12.054545402526855 11.87260913848877 C12.054545402526855 11.996891021728516 12.054545402526855 12.121172904968262 12.054545402526855 12.245454788208008 L12.054545402526855 12.245454788208008 C11.981818199157715 12.245454788208008 11.909090995788574 12.245454788208008 11.836363792419434 12.245454788208008 L11.836363792419434 12.245454788208008 C11.880154609680176 12.159109115600586 11.923945426940918 12.072763442993164 11.96773624420166 11.986417770385742 L11.96773624420166 11.986417770385742 C11.996672630310059 11.948481559753418 12.025609016418457 11.910545349121094 12.054545402526855 11.87260913848877 L12.054545402526855 11.87260913848877"></path>
<path fill="none" stroke="black" stroke-width=".3" stroke-opacity="1.0"  filling="0" d="M11.929445266723633 12.016282081604004 L11.929445266723633 12.016282081604004 C11.942290306091309 12.023327827453613 11.9551362991333 12.030372619628906 11.967981338500977 12.037418365478516 L11.967981338500977 12.037418365478516 C11.962872505187988 12.097436904907227 11.957763671875 12.157455444335938 11.952654838562012 12.217473983764648 L11.952654838562012 12.217473983764648 C11.911211967468262 12.164182662963867 11.891105651855469 12.071847915649414 11.929445266723633 12.016282081604004 L11.929445266723633 12.016282081604004"></path></svg>