<svg xmlns="http://www.w3.org/2000/svg" viewBox="0.0 0.0 24.0 24.0" height="200px" width="200px"><path fill="none" stroke="black" stroke-width=".3" stroke-opacity="1.0"  filling="0" d="M13.017217636108398 11.978072166442871 L13.017217636108398 11.978072166442871 C13.055581092834473 12.0633544921875 13.093945503234863 12.148635864257812 13.132308959960938 12.233918190002441 L13.132308959960938 12.233918190002441 C13.097872734069824 12.237408638000488 13.063436508178711 12.240900039672852 13.029000282287598 12.244390487670898 L13.029000282287598 12.244390487670898 C13.020981788635254 12.166354179382324 13.012964248657227 12.088318824768066 13.004945755004883 12.010282516479492 L13.004945755004883 12.010282516479492 C12.987881660461426 12.086854934692383 12.970818519592285 12.163427352905273 12.953754425048828 12.239999771118164 L12.953754425048828 12.239999771118164 C12.924245834350586 12.239999771118164 12.894736289978027 12.239999771118164 12.865227699279785 12.239999771118164 L12.865227699279785 12.239999771118164 C12.86944580078125 12.164254188537598 12.873662948608398 12.088508605957031 12.877881050109863 12.012763023376465 L12.877881050109863 12.012763023376465 C12.92432689666748 12.001199722290039 12.970771789550781 11.989635467529297 13.017217636108398 11.978072166442871 L13.017217636108398 11.978072166442871"></path></svg>