<svg xmlns="http://www.w3.org/2000/svg" viewBox="0.0 0.0 24.0 24.0" height="200px" width="200px"><path fill="none" stroke="black" stroke-width=".3" stroke-opacity="1.0"  filling="0" d="M12.290617942810059 11.867208480834961 L12.290617942810059 11.867208480834961 C12.290627479553223 11.99936294555664 12.29063606262207 12.131518363952637 12.290645599365234 12.263672828674316 L12.290645599365234 12.263672828674316 C12.225627899169922 12.177936553955078 12.160609245300293 12.09220027923584 12.09559154510498 12.006464004516602 L12.09559154510498 12.006464004516602 C12.136919021606445 12.001063346862793 12.178245544433594 11.9956636428833 12.219573020935059 11.990262985229492 L12.219573020935059 11.990262985229492 C12.228309631347656 11.94371223449707 12.243255615234375 11.867612838745117 12.290617942810059 11.867208480834961 L12.290617942810059 11.867208480834961"></path>
<path fill="none" stroke="black" stroke-width=".3" stroke-opacity="1.0"  filling="0" d="M12.129109382629395 12.018927574157715 L12.129109382629395 12.018927574157715 C12.192639350891113 12.04958724975586 12.198169708251953 12.160530090332031 12.172200202941895 12.226117134094238 L12.172200202941895 12.226117134094238 C12.14643669128418 12.169144630432129 12.120672225952148 12.11217212677002 12.094908714294434 12.05519962310791 L12.094908714294434 12.05519962310791 C12.106308937072754 12.043108940124512 12.117709159851074 12.031018257141113 12.129109382629395 12.018927574157715 L12.129109382629395 12.018927574157715"></path></svg>