<svg xmlns="http://www.w3.org/2000/svg" viewBox="0.0 0.0 24.0 24.0" height="200px" width="200px"><path fill="none" stroke="black" stroke-width=".3" stroke-opacity="1.0"  filling="0" d="M12.381817817687988 12.00818157196045 L12.381817817687988 12.00818157196045 C12.449654579162598 12.00818157196045 12.51749038696289 12.00818157196045 12.5853271484375 12.00818157196045 L12.5853271484375 12.00818157196045 C12.599308967590332 12.087272644042969 12.613290786743164 12.166363716125488 12.627272605895996 12.245454788208008 L12.627272605895996 12.245454788208008 C12.590909004211426 12.245454788208008 12.554545402526855 12.245454788208008 12.518181800842285 12.245454788208008 L12.518181800842285 12.245454788208008 C12.492263793945312 12.185118675231934 12.46634578704834 12.124781608581543 12.440427780151367 12.064445495605469 L12.440427780151367 12.064445495605469 C12.448163986206055 12.124781608581543 12.455900192260742 12.185118675231934 12.46363639831543 12.245454788208008 L12.46363639831543 12.245454788208008 C12.436363220214844 12.245454788208008 12.409090995788574 12.245454788208008 12.381817817687988 12.245454788208008 L12.381817817687988 12.245454788208008 C12.381817817687988 12.166363716125488 12.381817817687988 12.087272644042969 12.381817817687988 12.00818157196045 L12.381817817687988 12.00818157196045"></path></svg>