<svg xmlns="http://www.w3.org/2000/svg" viewBox="0.0 0.0 24.0 24.0" height="200px" width="200px"><path fill="none" stroke="black" stroke-width=".3" stroke-opacity="1.0"  filling="0" d="M-2.8091163635253906 6.245373249053955 L-2.8091163635253906 6.245373249053955 C-2.771080493927002 6.245375633239746 -0.3380483090877533 6.24545431137085 -0.3000001907348633 6.245454788208008 L-0.3000001907348633 6.245454788208008 C-0.41907280683517456 6.3180999755859375 -0.5381453633308411 6.390745639801025 -0.6572179794311523 6.463390827178955 L-0.6572179794311523 6.463390827178955 C-0.10772860050201416 6.8818135261535645 1.4061164855957031 8.744132041931152 -0.22115516662597656 8.969645500183105 C-0.4887343943119049 9.00672721862793 -0.292819082736969 8.426642417907715 -0.2508811950683594 8.159781455993652 C-0.2086200714111328 7.890863418579102 -0.5583925247192383 7.173014163970947 -0.5719089508056641 7.158627033233643 C-1.027156949043274 6.674047946929932 -1.5719470977783203 6.4833807945251465 -2.176608085632324 6.613254070281982 L-2.176608085632324 6.613254070281982 C-2.176608085632324 6.9127631187438965 -2.176608085632324 7.212272644042969 -2.176608085632324 7.511781692504883 L-2.176608085632324 7.511781692504883 C-2.118281364440918 7.543900012969971 -2.0599546432495117 7.5760178565979 -2.0016279220581055 7.608136177062988 L-2.0016279220581055 7.608136177062988 C-3.3116793632507324 9.311918258666992 -2.815619468688965 6.422827243804932 -2.8091163635253906 6.245373249053955 L-2.8091163635253906 6.245373249053955"></path></svg>