<svg xmlns="http://www.w3.org/2000/svg" viewBox="0.0 0.0 24.0 24.0" height="200px" width="200px"><path fill="none" stroke="black" stroke-width=".3" stroke-opacity="1.0"  filling="0" d="M27.08608055114746 12.709691047668457 L27.08608055114746 12.709691047668457 C27.211591720581055 12.710225105285645 27.33893394470215 12.719923973083496 27.460201263427734 12.752291679382324 L27.460201263427734 12.752291679382324 C26.274328231811523 13.871251106262207 30.56941795349121 12.937591552734375 29.51435661315918 14.298872947692871 C28.91699981689453 15.069605827331543 27.846044540405273 15.11697006225586 26.970901489257812 15.218019485473633 C25.668575286865234 15.36839485168457 24.384906768798828 15.458345413208008 23.108919143676758 15.601578712463379 C21.832929611206055 15.74481201171875 20.564619064331055 15.941329002380371 19.29300308227539 16.304838180541992 C18.977943420410156 16.3949031829834 16.85102081298828 17.35708999633789 16.68540382385254 17.274110794067383 C15.609132766723633 16.734859466552734 14.581575393676758 16.63709259033203 13.519830703735352 16.23226547241211 L13.519830703735352 16.23226547241211 C15.324663162231445 15.803695678710938 17.143396377563477 15.558784484863281 18.971582412719727 15.389172554016113 C20.79977035522461 15.219560623168945 22.63741111755371 15.12524700164795 24.480060577392578 14.997873306274414 C25.529701232910156 14.92531681060791 27.919025421142578 15.060480117797852 28.66214370727539 14.251800537109375 C28.803281784057617 14.098210334777832 28.396543502807617 13.855182647705078 28.18830680847168 13.843063354492188 C27.350208282470703 13.79428768157959 25.355470657348633 13.670465469360352 27.08608055114746 12.709691047668457 L27.08608055114746 12.709691047668457"></path></svg>