<svg xmlns="http://www.w3.org/2000/svg" viewBox="0.0 0.0 24.0 24.0" height="200px" width="200px"><path fill="none" stroke="black" stroke-width=".3" stroke-opacity="1.0"  filling="0" d="M9.818209648132324 11.809062957763672 L9.818209648132324 11.809062957763672 C9.854573249816895 11.809062957763672 9.890936851501465 11.809062957763672 9.927300453186035 11.809062957763672 L9.927300453186035 11.809062957763672 C9.941563606262207 11.8817720413208 9.955827713012695 11.954480171203613 9.970090866088867 12.027189254760742 L9.970090866088867 12.027189254760742 C9.991800308227539 12.019089698791504 10.013508796691895 12.010990142822266 10.035218238830566 12.002890586853027 L10.035218238830566 12.002890586853027 C10.007226943969727 12.068790435791016 9.979236602783203 12.134690284729004 9.951245307922363 12.200590133666992 L9.951245307922363 12.200590133666992 C9.924036026000977 12.13365364074707 9.89682674407959 12.066717147827148 9.869617462158203 11.999780654907227 L9.869617462158203 11.999780654907227 C9.852481842041016 12.027116775512695 9.835345268249512 12.05445384979248 9.818209648132324 12.08178997039795 L9.818209648132324 12.08178997039795 C9.818209648132324 11.990880966186523 9.818209648132324 11.899971961975098 9.818209648132324 11.809062957763672 L9.818209648132324 11.809062957763672"></path></svg>