<svg xmlns="http://www.w3.org/2000/svg" viewBox="0.0 0.0 24.0 24.0" height="200px" width="200px"><path fill="none" stroke="black" stroke-width=".3" stroke-opacity="1.0"  filling="0" d="M14.061599731445312 11.231917381286621 L14.061599731445312 11.231917381286621 C14.53676986694336 11.680659294128418 14.488755226135254 11.767830848693848 14.569472312927246 12.36998176574707 L14.569472312927246 12.36998176574707 C14.276963233947754 12.402018547058105 13.984454154968262 12.434054374694824 13.69194507598877 12.46609115600586 L13.69194507598877 12.46609115600586 C13.6946439743042 12.83629035949707 14.052048683166504 13.064538955688477 14.1612548828125 12.586799621582031 L14.1612548828125 12.586799621582031 C14.286954879760742 12.570136070251465 14.412654876708984 12.553471565246582 14.538354873657227 12.536808013916016 L14.538354873657227 12.536808013916016 C13.798500061035156 14.788647651672363 12.2764892578125 11.380556106567383 14.061599731445312 11.231917381286621 L14.061599731445312 11.231917381286621"></path>
<path fill="none" stroke="black" stroke-width=".3" stroke-opacity="1.0"  filling="0" d="M13.79127311706543 11.638718605041504 L13.79127311706543 11.638718605041504 C13.938101768493652 11.73705005645752 14.107535362243652 11.873678207397461 14.12656307220459 12.04936408996582 L14.12656307220459 12.04936408996582 C13.976527214050293 12.06435489654541 13.82649040222168 12.079345703125 13.676454544067383 12.09433650970459 L13.676454544067383 12.09433650970459 C13.653194427490234 11.939452171325684 13.696845054626465 11.763672828674316 13.79127311706543 11.638718605041504 L13.79127311706543 11.638718605041504"></path></svg>