<svg xmlns="http://www.w3.org/2000/svg" viewBox="0.0 0.0 24.0 24.0" height="200px" width="200px"><path fill="none" stroke="black" stroke-width=".3" stroke-opacity="1.0"  filling="0" d="M11.955354690551758 11.837918281555176 L11.955354690551758 11.837918281555176 C11.973973274230957 11.951909065246582 11.99259090423584 12.065899848937988 12.011209487915039 12.179890632629395 L12.011209487915039 12.179890632629395 C11.938291549682617 12.195645332336426 11.865372657775879 12.211400985717773 11.792454719543457 12.227155685424805 L11.792454719543457 12.227155685424805 C11.776808738708496 12.15715503692627 11.761163711547852 12.087154388427734 11.74551773071289 12.0171537399292 L11.74551773071289 12.0171537399292 C11.78329086303711 12.000417709350586 11.821063995361328 11.983680725097656 11.858837127685547 11.966944694519043 L11.858837127685547 11.966944694519043 C11.877163887023926 12.031999588012695 11.895491600036621 12.097054481506348 11.913818359375 12.162109375 L11.913818359375 12.162109375 C11.913818359375 12.055427551269531 11.913818359375 11.948745727539062 11.913818359375 11.842063903808594 L11.913818359375 11.842063903808594 C11.927663803100586 11.840682029724121 11.941509246826172 11.839300155639648 11.955354690551758 11.837918281555176 L11.955354690551758 11.837918281555176"></path></svg>