<svg xmlns="http://www.w3.org/2000/svg" viewBox="0.0 0.0 24.0 24.0" height="200px" width="200px"><path fill="none" stroke="black" stroke-width=".3" stroke-opacity="1.0"  filling="0" d="M12.190363883972168 12.018381118774414 L12.190363883972168 12.018381118774414 C12.231727600097656 12.033035278320312 12.273090362548828 12.047690391540527 12.314454078674316 12.062344551086426 L12.314454078674316 12.062344551086426 C12.285981178283691 12.107272148132324 12.257509231567383 12.152198791503906 12.229036331176758 12.197126388549805 L12.229036331176758 12.197126388549805 C12.19796371459961 12.150035858154297 12.166891098022461 12.102944374084473 12.135818481445312 12.055853843688965 L12.135818481445312 12.055853843688965 C12.14799976348877 12.109745025634766 12.160181999206543 12.16363525390625 12.17236328125 12.21752643585205 L12.17236328125 12.21752643585205 C12.21491813659668 12.245017051696777 12.257472038269043 12.27250862121582 12.300026893615723 12.299999237060547 L12.300026893615723 12.299999237060547 C12.236381530761719 12.299999237060547 12.172736167907715 12.299999237060547 12.109090805053711 12.299999237060547 L12.109090805053711 12.299999237060547 C12.099318504333496 12.20278549194336 12.110206604003906 12.074246406555176 12.190363883972168 12.018381118774414 L12.190363883972168 12.018381118774414"></path></svg>