<svg xmlns="http://www.w3.org/2000/svg" viewBox="0.0 0.0 24.0 24.0" height="200px" width="200px"><path fill="none" stroke="black" stroke-width=".3" stroke-opacity="1.0"  filling="0" d="M11.55349063873291 11.950554847717285 L11.55349063873291 11.950554847717285 C11.603581428527832 12.006082534790039 11.65367317199707 12.061609268188477 11.703763961791992 12.11713695526123 L11.703763961791992 12.11713695526123 C11.684327125549316 12.159918785095215 11.664891242980957 12.202699661254883 11.645454406738281 12.245481491088867 L11.645454406738281 12.245481491088867 C11.59999942779541 12.24547290802002 11.554545402526855 12.245463371276855 11.509090423583984 12.245454788208008 L11.509090423583984 12.245454788208008 C11.481881141662598 12.225409507751465 11.454671859741211 12.205364227294922 11.427462577819824 12.185318946838379 L11.427462577819824 12.185318946838379 C11.410981178283691 12.118382453918457 11.394499778747559 12.051445960998535 11.378018379211426 11.984509468078613 L11.378018379211426 11.984509468078613 C11.407217979431152 11.979745864868164 11.436418533325195 11.974982261657715 11.465618133544922 11.970218658447266 L11.465618133544922 11.970218658447266 C11.477945327758789 12.011919021606445 11.490272521972656 12.053619384765625 11.502599716186523 12.095319747924805 L11.502599716186523 12.095319747924805 C11.512136459350586 12.095855712890625 11.521672248840332 12.096391677856445 11.531208992004395 12.096927642822266 L11.531208992004395 12.096927642822266 C11.538636207580566 12.048136711120605 11.546063423156738 11.999345779418945 11.55349063873291 11.950554847717285 L11.55349063873291 11.950554847717285"></path></svg>