<svg xmlns="http://www.w3.org/2000/svg" viewBox="0.0 0.0 24.0 24.0" height="200px" width="200px"><path fill="none" stroke="black" stroke-width=".3" stroke-opacity="1.0"  filling="0" d="M13.707927703857422 12.011317253112793 L13.707927703857422 12.011317253112793 C13.750261306762695 12.050395011901855 13.790038108825684 12.09237289428711 13.82727336883545 12.136336326599121 L13.82727336883545 12.136336326599121 C13.82727336883545 12.18179988861084 13.827272415161133 12.227263450622559 13.827272415161133 12.272727012634277 L13.827272415161133 12.272727012634277 C13.79283618927002 12.244190216064453 13.758400917053223 12.215654373168945 13.72396469116211 12.187117576599121 L13.72396469116211 12.187117576599121 C13.704700469970703 12.218917846679688 13.685437202453613 12.250717163085938 13.666172981262207 12.282517433166504 L13.666172981262207 12.282517433166504 C13.617209434509277 12.193390846252441 13.568246841430664 12.104263305664062 13.519283294677734 12.01513671875 L13.519283294677734 12.01513671875 C13.574646949768066 12.060736656188965 13.630009651184082 12.106335639953613 13.685373306274414 12.151935577392578 L13.685373306274414 12.151935577392578 C13.692891120910645 12.105062484741211 13.700409889221191 12.05819034576416 13.707927703857422 12.011317253112793 L13.707927703857422 12.011317253112793"></path></svg>