<svg xmlns="http://www.w3.org/2000/svg" viewBox="0.0 0.0 24.0 24.0" height="200px" width="200px"><path fill="none" stroke="black" stroke-width=".3" stroke-opacity="1.0"  filling="0" d="M12.098017692565918 11.945209503173828 L12.098017692565918 11.945209503173828 C12.087327003479004 11.968018531799316 12.07663631439209 11.990827560424805 12.065945625305176 12.013636589050293 L12.065945625305176 12.013636589050293 C12.112309455871582 12.062164306640625 12.158672332763672 12.11069107055664 12.205036163330078 12.159218788146973 L12.205036163330078 12.159218788146973 C12.173054695129395 12.187954902648926 12.141072273254395 12.216691970825195 12.109090805053711 12.245428085327148 L12.109090805053711 12.245428085327148 C12.09999942779541 12.245436668395996 12.090909004211426 12.24544620513916 12.081817626953125 12.245454788208008 L12.081817626953125 12.245454788208008 C12.051445007324219 12.218827247619629 12.021072387695312 12.192200660705566 11.990699768066406 12.165573120117188 L11.990699768066406 12.165573120117188 C12.04454517364502 12.1763916015625 12.098390579223633 12.187209129333496 12.152235984802246 12.198027610778809 L12.152235984802246 12.198027610778809 C12.096035957336426 12.138727188110352 12.039836883544922 12.079427719116211 11.983636856079102 12.020127296447754 L11.983636856079102 12.020127296447754 C12.021763801574707 11.99515438079834 12.059890747070312 11.970182418823242 12.098017692565918 11.945209503173828 L12.098017692565918 11.945209503173828"></path></svg>