<svg xmlns="http://www.w3.org/2000/svg" viewBox="0.0 0.0 24.0 24.0" height="200px" width="200px"><path fill="none" stroke="black" stroke-width=".3" stroke-opacity="1.0"  filling="0" d="M13.670591354370117 11.902308464050293 L13.670591354370117 11.902308464050293 C13.695536613464355 11.92578125 13.720481872558594 11.949254035949707 13.745427131652832 11.972726821899414 L13.745427131652832 11.972726821899414 C13.745436668395996 12.03636360168457 13.745445251464844 12.09999942779541 13.745454788208008 12.163636207580566 L13.745454788208008 12.163636207580566 C13.68504524230957 12.175190925598145 13.62463665008545 12.186744689941406 13.564227104187012 12.198299407958984 L13.564227104187012 12.198299407958984 C13.542326927185059 12.10986328125 13.520427703857422 12.021427154541016 13.498527526855469 11.932991027832031 L13.498527526855469 11.932991027832031 C13.508164405822754 11.927290916442871 13.517800331115723 11.921589851379395 13.527437210083008 11.915889739990234 L13.527437210083008 11.915889739990234 C13.569636344909668 11.992581367492676 13.613249778747559 12.068487167358398 13.656627655029297 12.14451789855957 L13.656627655029297 12.14451789855957 C13.661282539367676 12.06378173828125 13.665936470031738 11.983044624328613 13.670591354370117 11.902308464050293 L13.670591354370117 11.902308464050293"></path></svg>