<svg xmlns="http://www.w3.org/2000/svg" viewBox="0.0 0.0 24.0 24.0" height="200px" width="200px"><path fill="none" stroke="black" stroke-width=".3" stroke-opacity="1.0"  filling="0" d="M13.060091018676758 11.868491172790527 L13.060091018676758 11.868491172790527 C13.340140342712402 11.961762428283691 13.21721363067627 12.055294036865234 13.30911922454834 12.299999237060547 L13.30911922454834 12.299999237060547 C13.300028800964355 12.299999237060547 13.290937423706055 12.299999237060547 13.28184700012207 12.299999237060547 L13.28184700012207 12.299999237060547 C13.227538108825684 12.258071899414062 13.17322826385498 12.216145515441895 13.118919372558594 12.17421817779541 L13.118919372558594 12.17421817779541 C13.10959243774414 12.216145515441895 13.100264549255371 12.258071899414062 13.090937614440918 12.299999237060547 L13.090937614440918 12.299999237060547 C13.072746276855469 12.299999237060547 13.05455493927002 12.299999237060547 13.03636360168457 12.299999237060547 L13.03636360168457 12.299999237060547 C13.027399063110352 12.156225204467773 12.968466758728027 11.979650497436523 13.060091018676758 11.868491172790527 L13.060091018676758 11.868491172790527"></path>
<path fill="none" stroke="black" stroke-width=".3" stroke-opacity="1.0"  filling="0" d="M13.136236190795898 11.944990158081055 L13.136236190795898 11.944990158081055 C13.141145706176758 11.993363380432129 13.1460542678833 12.041735649108887 13.15096378326416 12.090108871459961 L13.15096378326416 12.090108871459961 C13.1460542678833 12.041735649108887 13.141145706176758 11.993363380432129 13.136236190795898 11.944990158081055 L13.136236190795898 11.944990158081055"></path></svg>