<svg xmlns="http://www.w3.org/2000/svg" viewBox="0.0 0.0 24.0 24.0" height="200px" width="200px"><path fill="none" stroke="black" stroke-width=".3" stroke-opacity="1.0"  filling="0" d="M12.699053764343262 11.904735565185547 L12.699053764343262 11.904735565185547 C12.77336311340332 11.904735565185547 12.847672462463379 11.904735565185547 12.921981811523438 11.904735565185547 L12.921981811523438 11.904735565185547 C12.922609329223633 11.913235664367676 12.923235893249512 11.921735763549805 12.923863410949707 11.930235862731934 L12.923863410949707 11.930235862731934 C12.87440013885498 11.940781593322754 12.824935913085938 11.951326370239258 12.775472640991211 11.961872100830078 L12.775472640991211 11.961872100830078 C12.814679145812988 12.000316619873047 12.85820198059082 12.035599708557129 12.90651798248291 12.061691284179688 L12.90651798248291 12.061691284179688 C12.904508590698242 12.071409225463867 12.902499198913574 12.081127166748047 12.900489807128906 12.090845108032227 L12.900489807128906 12.090845108032227 C12.866662979125977 12.100663185119629 12.83283519744873 12.110481262207031 12.7990083694458 12.120299339294434 L12.7990083694458 12.120299339294434 C12.7990083694458 12.150745391845703 12.7990083694458 12.181190490722656 12.7990083694458 12.211636543273926 L12.7990083694458 12.211636543273926 C12.84173583984375 12.21591854095459 12.8844633102417 12.220199584960938 12.927190780639648 12.224481582641602 L12.927190780639648 12.224481582641602 C12.918127059936523 12.249671936035156 12.909063339233398 12.274863243103027 12.899999618530273 12.300053596496582 L12.899999618530273 12.300053596496582 C12.845454216003418 12.30003547668457 12.790908813476562 12.300017356872559 12.736363410949707 12.299999237060547 L12.736363410949707 12.299999237060547 C12.723926544189453 12.168244361877441 12.711490631103516 12.036490440368652 12.699053764343262 11.904735565185547 L12.699053764343262 11.904735565185547"></path></svg>