<svg xmlns="http://www.w3.org/2000/svg" viewBox="0.0 0.0 24.0 24.0" height="200px" width="200px"><path fill="none" stroke="black" stroke-width=".3" stroke-opacity="1.0"  filling="0" d="M12.316144943237305 11.89726448059082 L12.316144943237305 11.89726448059082 C12.395790100097656 11.89726448059082 12.475436210632324 11.89726448059082 12.555081367492676 11.89726448059082 L12.555081367492676 11.89726448059082 C12.573187828063965 12.030850410461426 12.593313217163086 12.188069343566895 12.518181800842285 12.299999237060547 L12.518181800842285 12.299999237060547 C12.46363639831543 12.299999237060547 12.409090995788574 12.299999237060547 12.354545593261719 12.299999237060547 L12.354545593261719 12.299999237060547 C12.341745376586914 12.165754318237305 12.32894515991211 12.031509399414062 12.316144943237305 11.89726448059082 L12.316144943237305 11.89726448059082"></path>
<path fill="none" stroke="black" stroke-width=".3" stroke-opacity="1.0"  filling="0" d="M12.44151782989502 12.09749984741211 L12.44151782989502 12.09749984741211 C12.47777271270752 12.13426399230957 12.514026641845703 12.171028137207031 12.550281524658203 12.207792282104492 L12.550281524658203 12.207792282104492 C12.50595474243164 12.210837364196777 12.461627006530762 12.213882446289062 12.4173002243042 12.216927528381348 L12.4173002243042 12.216927528381348 C12.4173002243042 12.182618141174316 12.4173002243042 12.148309707641602 12.4173002243042 12.11400032043457 L12.4173002243042 12.11400032043457 C12.425373077392578 12.108500480651855 12.43344497680664 12.102999687194824 12.44151782989502 12.09749984741211 L12.44151782989502 12.09749984741211"></path></svg>