<svg xmlns="http://www.w3.org/2000/svg" viewBox="0.0 0.0 24.0 24.0" height="200px" width="200px"><path fill="none" stroke="black" stroke-width=".3" stroke-opacity="1.0"  filling="0" d="M11.933318138122559 11.809964179992676 L11.933318138122559 11.809964179992676 C11.945672988891602 11.934282302856445 11.958026885986328 12.058600425720215 11.970381736755371 12.182918548583984 L11.970381736755371 12.182918548583984 C11.899690628051758 12.182918548583984 11.829000473022461 12.182918548583984 11.758309364318848 12.182918548583984 L11.758309364318848 12.182918548583984 C11.737772941589355 12.094958305358887 11.791865348815918 11.971488952636719 11.876099586486816 11.938881874084473 L11.876099586486816 11.938881874084473 C11.880790710449219 11.895981788635254 11.885481834411621 11.853081703186035 11.890172958374023 11.810181617736816 L11.890172958374023 11.810181617736816 C11.90455436706543 11.81010913848877 11.918936729431152 11.810036659240723 11.933318138122559 11.809964179992676 L11.933318138122559 11.809964179992676"></path>
<path fill="none" stroke="black" stroke-width=".3" stroke-opacity="1.0"  filling="0" d="M11.814409255981445 11.970982551574707 L11.814409255981445 11.970982551574707 C11.83216381072998 11.971709251403809 11.849918365478516 11.972436904907227 11.86767292022705 11.973163604736328 L11.86767292022705 11.973163604736328 C11.876718521118164 12.023818016052246 11.885764122009277 12.07447338104248 11.89480972290039 12.125127792358398 L11.89480972290039 12.125127792358398 C11.8850736618042 12.131628036499023 11.875336647033691 12.138127326965332 11.8656005859375 12.144627571105957 L11.8656005859375 12.144627571105957 C11.818482398986816 12.106926918029785 11.8007230758667 12.029754638671875 11.814409255981445 11.970982551574707 L11.814409255981445 11.970982551574707"></path></svg>