<svg xmlns="http://www.w3.org/2000/svg" viewBox="0.0 0.0 24.0 24.0" height="200px" width="200px"><path fill="none" stroke="black" stroke-width=".3" stroke-opacity="1.0"  filling="0" d="M11.469982147216797 11.777809143066406 L11.469982147216797 11.777809143066406 C11.568561553955078 11.86009407043457 11.514493942260742 12.031440734863281 11.520490646362305 12.159708976745605 L11.520490646362305 12.159708976745605 C11.434327125549316 12.121317863464355 11.348163604736328 12.082926750183105 11.26200008392334 12.044535636901855 L11.26200008392334 12.044535636901855 C11.32210922241211 11.99201774597168 11.382218360900879 11.939499855041504 11.442327499389648 11.886981964111328 L11.442327499389648 11.886981964111328 C11.451545715332031 11.850590705871582 11.460763931274414 11.814200401306152 11.469982147216797 11.777809143066406 L11.469982147216797 11.777809143066406"></path>
<path fill="none" stroke="black" stroke-width=".3" stroke-opacity="1.0"  filling="0" d="M11.387998580932617 11.902746200561523 L11.387998580932617 11.902746200561523 C11.396271705627441 11.973664283752441 11.404544830322266 12.04458236694336 11.41281795501709 12.115500450134277 L11.41281795501709 12.115500450134277 C11.381763458251953 12.09330940246582 11.350708961486816 12.071118354797363 11.31965446472168 12.048927307128906 L11.31965446472168 12.048927307128906 C11.342435836791992 12.000200271606445 11.365217208862305 11.951473236083984 11.387998580932617 11.902746200561523 L11.387998580932617 11.902746200561523"></path></svg>