<svg xmlns="http://www.w3.org/2000/svg" viewBox="0.0 0.0 24.0 24.0" height="200px" width="200px"><path fill="none" stroke="black" stroke-width=".3" stroke-opacity="1.0"  filling="0" d="M10.860190391540527 11.868518829345703 L10.860190391540527 11.868518829345703 C10.961563110351562 11.868518829345703 11.062936782836914 11.868518829345703 11.16430950164795 11.868518829345703 L11.16430950164795 11.868518829345703 C11.09456729888916 11.976243019104004 11.02248477935791 12.082468032836914 10.948827743530273 12.187554359436035 L10.948827743530273 12.187554359436035 C11.024236679077148 12.182445526123047 11.09964656829834 12.177335739135742 11.175055503845215 12.172226905822754 L11.175055503845215 12.172226905822754 C11.07009220123291 12.193108558654785 10.965127944946289 12.213991165161133 10.860164642333984 12.234872817993164 L10.860164642333984 12.234872817993164 C10.916756629943848 12.111729621887207 10.988067626953125 11.995013236999512 11.066972732543945 11.884827613830566 L11.066972732543945 11.884827613830566 C10.997017860412598 11.898927688598633 10.927063941955566 11.913026809692383 10.857109069824219 11.92712688446045 L10.857109069824219 11.92712688446045 C10.858136177062988 11.907590866088867 10.859163284301758 11.888054847717285 10.860190391540527 11.868518829345703 L10.860190391540527 11.868518829345703"></path></svg>