<svg xmlns="http://www.w3.org/2000/svg" viewBox="0.0 0.0 24.0 24.0" height="200px" width="200px"><path fill="none" stroke="black" stroke-width=".3" stroke-opacity="1.0"  filling="0" d="M12.175390243530273 11.978236198425293 L12.175390243530273 11.978236198425293 C12.230481147766113 11.983418464660645 12.28557300567627 11.98859977722168 12.34066390991211 11.993782043457031 L12.34066390991211 11.993782043457031 C12.315309524536133 12.04543685913086 12.28995418548584 12.097090721130371 12.264599800109863 12.1487455368042 L12.264599800109863 12.1487455368042 C12.24558162689209 12.097718238830566 12.226563453674316 12.046690940856934 12.207545280456543 11.9956636428833 L12.207545280456543 11.9956636428833 C12.196700096130371 11.998409271240234 12.185853958129883 12.001154899597168 12.175008773803711 12.003900527954102 L12.175008773803711 12.003900527954102 C12.179372787475586 12.056418418884277 12.183735847473145 12.10893726348877 12.18809986114502 12.161455154418945 L12.18809986114502 12.161455154418945 C12.23529052734375 12.177055358886719 12.282482147216797 12.192655563354492 12.329672813415527 12.208255767822266 L12.329672813415527 12.208255767822266 C12.319772720336914 12.238828659057617 12.309873580932617 12.269400596618652 12.299973487854004 12.299973487854004 L12.299973487854004 12.299973487854004 C12.227254867553711 12.299982070922852 12.154536247253418 12.2999906539917 12.081817626953125 12.299999237060547 L12.081817626953125 12.299999237060547 C12.096406936645508 12.189258575439453 12.107240676879883 12.066734313964844 12.175390243530273 11.978236198425293 L12.175390243530273 11.978236198425293"></path></svg>