<svg xmlns="http://www.w3.org/2000/svg" viewBox="0.0 0.0 24.0 24.0" height="200px" width="200px"><path fill="none" stroke="black" stroke-width=".3" stroke-opacity="1.0"  filling="0" d="M10.628946304321289 11.967491149902344 L10.628946304321289 11.967491149902344 C10.637937545776367 11.971017837524414 10.646927833557129 11.9745454788208 10.655919075012207 11.978072166442871 L10.655919075012207 11.978072166442871 C10.660609245300293 12.036781311035156 10.665300369262695 12.095490455627441 10.669990539550781 12.154199600219727 L10.669990539550781 12.154199600219727 C10.71160888671875 12.160399436950684 10.753227233886719 12.166600227355957 10.794845581054688 12.172800064086914 L10.794845581054688 12.172800064086914 C10.794845581054688 12.193563461303711 10.794845581054688 12.214327812194824 10.794845581054688 12.235091209411621 L10.794845581054688 12.235091209411621 C10.743982315063477 12.230963706970215 10.69311809539795 12.226836204528809 10.642254829406738 12.222708702087402 L10.642254829406738 12.222708702087402 C10.64084529876709 12.232063293457031 10.639436721801758 12.24141788482666 10.63802719116211 12.250772476196289 L10.63802719116211 12.250772476196289 C10.673835754394531 12.267181396484375 10.70964527130127 12.283590316772461 10.745453834533691 12.299999237060547 L10.745453834533691 12.299999237060547 C10.681818008422852 12.299999237060547 10.618181228637695 12.299999237060547 10.554545402526855 12.299999237060547 L10.554545402526855 12.299999237060547 C10.568345069885254 12.187263488769531 10.57380199432373 12.06678295135498 10.628946304321289 11.967491149902344 L10.628946304321289 11.967491149902344"></path></svg>