<svg xmlns="http://www.w3.org/2000/svg" viewBox="0.0 0.0 24.0 24.0" height="200px" width="200px"><path fill="none" stroke="black" stroke-width=".3" stroke-opacity="1.0"  filling="0" d="M11.272881507873535 11.902636528015137 L11.272881507873535 11.902636528015137 C11.390008926391602 11.927891731262207 11.49286937713623 12.016186714172363 11.56538200378418 12.111573219299316 L11.56538200378418 12.111573219299316 C11.564136505126953 12.110255241394043 11.562891006469727 12.108936309814453 11.5616455078125 12.10761833190918 L11.5616455078125 12.10761833190918 C11.546209335327148 12.152527809143066 11.53077220916748 12.197436332702637 11.515336036682129 12.242345809936523 L11.515336036682129 12.242345809936523 C11.478572845458984 12.17920970916748 11.441808700561523 12.116072654724121 11.405045509338379 12.052936553955078 L11.405045509338379 12.052936553955078 C11.393518447875977 12.056427001953125 11.381990432739258 12.059918403625488 11.370463371276855 12.063408851623535 L11.370463371276855 12.063408851623535 C11.380309104919434 12.124091148376465 11.390153884887695 12.184772491455078 11.399999618530273 12.245454788208008 L11.399999618530273 12.245454788208008 C11.363636016845703 12.245454788208008 11.327272415161133 12.245454788208008 11.290908813476562 12.245454788208008 L11.290908813476562 12.245454788208008 C11.284899711608887 12.131181716918945 11.278890609741211 12.0169095993042 11.272881507873535 11.902636528015137 L11.272881507873535 11.902636528015137"></path></svg>