<svg xmlns="http://www.w3.org/2000/svg" viewBox="0.0 0.0 24.0 24.0" height="200px" width="200px"><path fill="none" stroke="black" stroke-width=".3" stroke-opacity="1.0"  filling="0" d="M11.66189956665039 11.986445426940918 L11.66189956665039 11.986445426940918 C11.719463348388672 11.986445426940918 11.777027130126953 11.986445426940918 11.834590911865234 11.986445426940918 L11.834590911865234 11.986445426940918 C11.84427261352539 12.072781562805176 11.853954315185547 12.15911865234375 11.863636016845703 12.245454788208008 L11.863636016845703 12.245454788208008 C11.845454216003418 12.245454788208008 11.82727336883545 12.245454788208008 11.809091567993164 12.245454788208008 L11.809091567993164 12.245454788208008 C11.781818389892578 12.169300079345703 11.754546165466309 12.093145370483398 11.727272987365723 12.016990661621094 L11.727272987365723 12.016990661621094 C11.727272987365723 12.093145370483398 11.727272987365723 12.169300079345703 11.727272987365723 12.245454788208008 L11.727272987365723 12.245454788208008 C11.699999809265137 12.245454788208008 11.672727584838867 12.245454788208008 11.645454406738281 12.245454788208008 L11.645454406738281 12.245454788208008 C11.650936126708984 12.15911865234375 11.656417846679688 12.072781562805176 11.66189956665039 11.986445426940918 L11.66189956665039 11.986445426940918"></path></svg>