<svg xmlns="http://www.w3.org/2000/svg" viewBox="0.0 0.0 24.0 24.0" height="200px" width="200px"><path fill="none" stroke="black" stroke-width=".3" stroke-opacity="1.0"  filling="0" d="M13.530464172363281 11.81004524230957 L13.530464172363281 11.81004524230957 C13.629409790039062 11.818827629089355 13.728354454040527 11.827609062194824 13.827300071716309 11.83639144897461 L13.827300071716309 11.83639144897461 C13.827280044555664 11.955842018127441 13.791518211364746 12.076025009155273 13.740682601928711 12.184118270874023 L13.740682601928711 12.184118270874023 C13.706282615661621 12.074872970581055 13.671881675720215 11.965627670288086 13.637481689453125 11.856382369995117 L13.637481689453125 11.856382369995117 C13.590954780578613 11.941536903381348 13.544426918029785 12.026691436767578 13.497900009155273 12.111845970153809 L13.497900009155273 12.111845970153809 C13.531999588012695 12.085837364196777 13.566100120544434 12.05982780456543 13.600199699401855 12.033819198608398 L13.600199699401855 12.033819198608398 C13.600199699401855 12.065046310424805 13.600199699401855 12.096273422241211 13.600199699401855 12.127500534057617 L13.600199699401855 12.127500534057617 C13.504499435424805 12.141200065612793 13.40880012512207 12.154900550842285 13.31309986114502 12.168600082397461 L13.31309986114502 12.168600082397461 C13.366708755493164 12.06546401977539 13.420318603515625 11.962327003479004 13.47392749786377 11.859190940856934 L13.47392749786377 11.859190940856934 C13.432345390319824 11.879464149475098 13.390764236450195 11.899736404418945 13.34918212890625 11.92000961303711 L13.34918212890625 11.92000961303711 C13.38271427154541 11.857794761657715 13.459789276123047 11.81031322479248 13.530464172363281 11.81004524230957 L13.530464172363281 11.81004524230957"></path></svg>