<svg xmlns="http://www.w3.org/2000/svg" viewBox="0.0 0.0 24.0 24.0" height="200px" width="200px"><path fill="none" stroke="black" stroke-width=".3" stroke-opacity="1.0"  filling="0" d="M13.522007942199707 11.934844970703125 L13.522007942199707 11.934844970703125 C13.53318977355957 12.035499572753906 13.54437255859375 12.136154174804688 13.555554389953613 12.236808776855469 L13.555554389953613 12.236808776855469 C13.543035507202148 12.240808486938477 13.530517578125 12.2448091506958 13.517998695373535 12.248808860778809 L13.517998695373535 12.248808860778809 C13.48877239227295 12.180163383483887 13.459545135498047 12.111517906188965 13.430318832397461 12.042872428894043 L13.430318832397461 12.042872428894043 C13.389745712280273 12.0499267578125 13.349172592163086 12.056982040405273 13.308599472045898 12.06403636932373 L13.308599472045898 12.06403636932373 C13.314826965332031 12.121644973754883 13.321054458618164 12.179254531860352 13.327281951904297 12.236863136291504 L13.327281951904297 12.236863136291504 C13.296117782592773 12.239245414733887 13.264954566955566 12.241626739501953 13.233790397644043 12.244009017944336 L13.233790397644043 12.244009017944336 C13.233790397644043 12.158936500549316 13.233790397644043 12.07386302947998 13.233790397644043 11.988790512084961 L13.233790397644043 11.988790512084961 C13.329862594604492 11.970808982849121 13.425935745239258 11.952826499938965 13.522007942199707 11.934844970703125 L13.522007942199707 11.934844970703125"></path></svg>