<svg xmlns="http://www.w3.org/2000/svg" viewBox="0.0 0.0 24.0 24.0" height="200px" width="200px"><path fill="none" stroke="black" stroke-width=".3" stroke-opacity="1.0"  filling="0" d="M13.891335487365723 11.959009170532227 L13.891335487365723 11.959009170532227 C13.879080772399902 12.054509162902832 13.866827011108398 12.150009155273438 13.854572296142578 12.245509147644043 L13.854572296142578 12.245509147644043 C13.845481872558594 12.245509147644043 13.836390495300293 12.245509147644043 13.827300071716309 12.245509147644043 L13.827300071716309 12.245509147644043 C13.737690925598145 12.19729995727539 13.648082733154297 12.149090766906738 13.558473587036133 12.100881576538086 L13.558473587036133 12.100881576538086 C13.598600387573242 12.129326820373535 13.638728141784668 12.1577730178833 13.678854942321777 12.18621826171875 L13.678854942321777 12.18621826171875 C13.655600547790527 12.205982208251953 13.632345199584961 12.22574520111084 13.609090805053711 12.245509147644043 L13.609090805053711 12.245509147644043 C13.590909004211426 12.245491027832031 13.57272720336914 12.24547290802002 13.554545402526855 12.245454788208008 L13.554545402526855 12.245454788208008 C13.397494316101074 12.117870330810547 13.473061561584473 11.91348648071289 13.685891151428223 12.009626388549805 L13.685891151428223 12.009626388549805 C13.754372596740723 11.992753982543945 13.822854042053223 11.975881576538086 13.891335487365723 11.959009170532227 L13.891335487365723 11.959009170532227"></path></svg>