<svg xmlns="http://www.w3.org/2000/svg" viewBox="0.0 0.0 24.0 24.0" height="200px" width="200px"><path fill="none" stroke="black" stroke-width=".3" stroke-opacity="1.0"  filling="0" d="M14.984535217285156 9.982473373413086 L14.984535217285156 9.982473373413086 C15.10804557800293 10.104975700378418 15.060937881469727 10.327293395996094 15.046525955200195 10.500654220581055 L15.046525955200195 10.500654220581055 C14.880553245544434 10.521200180053711 14.714581489562988 10.54174518585205 14.548608779907227 10.562291145324707 L14.548608779907227 10.562291145324707 C14.52353572845459 10.836064338684082 14.49846363067627 11.10983657836914 14.473390579223633 11.383609771728516 L14.473390579223633 11.383609771728516 C14.64138126373291 11.352182388305664 14.809372901916504 11.320755004882812 14.977363586425781 11.289327621459961 L14.977363586425781 11.289327621459961 C14.957140922546387 11.559454917907715 14.703611373901367 11.860304832458496 14.434882164001465 11.894400596618652 L14.434882164001465 11.894400596618652 C14.395973205566406 12.330586433410645 14.296768188476562 12.7841157913208 14.349681854248047 13.218300819396973 L14.349681854248047 13.218300819396973 C14.531299591064453 13.19480037689209 14.712918281555176 13.171300888061523 14.894536018371582 13.14780044555664 L14.894536018371582 13.14780044555664 C14.881881713867188 13.342581748962402 14.869226455688477 13.53736400604248 14.856572151184082 13.732145309448242 L14.856572151184082 13.732145309448242 C14.626262664794922 13.732145309448242 14.395954132080078 13.732145309448242 14.165644645690918 13.732145309448242 L14.165644645690918 13.732145309448242 C14.001852989196777 12.581013679504395 14.337104797363281 11.215629577636719 14.427982330322266 10.050954818725586 L14.427982330322266 10.050954818725586 C14.591178894042969 9.959824562072754 14.798689842224121 10.002458572387695 14.984535217285156 9.982473373413086 L14.984535217285156 9.982473373413086"></path></svg>