<svg xmlns="http://www.w3.org/2000/svg" viewBox="0.0 0.0 24.0 24.0" height="200px" width="200px"><path fill="none" stroke="black" stroke-width=".3" stroke-opacity="1.0"  filling="0" d="M12.592527389526367 11.73343563079834 L12.592527389526367 11.73343563079834 C12.5969820022583 11.782180786132812 12.601435661315918 11.830926895141602 12.605890274047852 11.879672050476074 L12.605890274047852 11.879672050476074 C12.662545204162598 11.906327247619629 12.719199180603027 11.932981491088867 12.775854110717773 11.959636688232422 L12.775854110717773 11.959636688232422 C12.863443374633789 11.911311149597168 12.998003959655762 11.924835205078125 13.074491500854492 11.98930835723877 L13.074491500854492 11.98930835723877 C13.06954574584961 11.998662948608398 13.064599990844727 12.008017539978027 13.059654235839844 12.017372131347656 L13.059654235839844 12.017372131347656 C13.007963180541992 12.023226737976074 12.956273078918457 12.029081344604492 12.904582023620605 12.03493595123291 L12.904582023620605 12.03493595123291 C12.947263717651367 12.062499046325684 12.989945411682129 12.090063095092773 13.03262710571289 12.117626190185547 L13.03262710571289 12.117626190185547 C12.94672679901123 12.10085391998291 12.860827445983887 12.084080696105957 12.774927139282227 12.06730842590332 L12.774927139282227 12.06730842590332 C12.684826850891113 12.105817794799805 12.594727516174316 12.144326210021973 12.504627227783203 12.182835578918457 L12.504627227783203 12.182835578918457 C12.489792823791504 12.030920028686523 12.456659317016602 11.802993774414062 12.592527389526367 11.73343563079834 L12.592527389526367 11.73343563079834"></path>
<path fill="none" stroke="black" stroke-width=".3" stroke-opacity="1.0"  filling="0" d="M12.65121841430664 11.929200172424316 L12.65121841430664 11.929200172424316 C12.65121841430664 12.006091117858887 12.65121841430664 12.08298110961914 12.65121841430664 12.159872055053711 L12.65121841430664 12.159872055053711 C12.65121841430664 12.08298110961914 12.65121841430664 12.006091117858887 12.65121841430664 11.929200172424316 L12.65121841430664 11.929200172424316"></path></svg>