<svg xmlns="http://www.w3.org/2000/svg" viewBox="0.0 0.0 24.0 24.0" height="200px" width="200px"><path fill="none" stroke="black" stroke-width=".3" stroke-opacity="1.0"  filling="0" d="M11.942753791809082 11.917608261108398 L11.942753791809082 11.917608261108398 C12.060044288635254 11.9749116897583 12.104172706604004 12.194514274597168 12.02727222442627 12.299999237060547 L12.02727222442627 12.299999237060547 C11.936363220214844 12.299999237060547 11.845454216003418 12.299999237060547 11.754545211791992 12.299999237060547 L11.754545211791992 12.299999237060547 C11.741917610168457 12.286344528198242 11.729290962219238 12.272690773010254 11.716663360595703 12.25903606414795 L11.716663360595703 12.25903606414795 C11.721663475036621 12.145380973815918 11.726662635803223 12.031726837158203 11.73166275024414 11.918071746826172 L11.73166275024414 11.918071746826172 C11.802026748657227 11.917917251586914 11.872389793395996 11.917762756347656 11.942753791809082 11.917608261108398 L11.942753791809082 11.917608261108398"></path>
<path fill="none" stroke="black" stroke-width=".3" stroke-opacity="1.0"  filling="0" d="M11.937463760375977 11.975318908691406 L11.937463760375977 11.975318908691406 C11.982309341430664 12.027800559997559 12.027154922485352 12.080282211303711 12.072000503540039 12.132763862609863 L12.072000503540039 12.132763862609863 C11.816539764404297 12.28862190246582 11.77967357635498 12.084089279174805 11.937463760375977 11.975318908691406 L11.937463760375977 11.975318908691406"></path></svg>