<svg xmlns="http://www.w3.org/2000/svg" viewBox="0.0 0.0 24.0 24.0" height="200px" width="200px"><path fill="none" stroke="black" stroke-width=".3" stroke-opacity="1.0"  filling="0" d="M10.556836128234863 11.975235939025879 L10.556836128234863 11.975235939025879 C10.646982192993164 12.056208610534668 10.737127304077148 12.137181282043457 10.82727336883545 12.218153953552246 L10.82727336883545 12.218153953552246 C10.790909767150879 12.218153953552246 10.754546165466309 12.218153953552246 10.718182563781738 12.218153953552246 L10.718182563781738 12.218153953552246 C10.730724334716797 12.152217864990234 10.684788703918457 12.080646514892578 10.63636302947998 12.034173011779785 L10.63636302947998 12.034173011779785 C10.63636302947998 12.095499992370605 10.63636302947998 12.156826972961426 10.63636302947998 12.218153953552246 L10.63636302947998 12.218153953552246 C10.618181228637695 12.21816349029541 10.59999942779541 12.218172073364258 10.581817626953125 12.218181610107422 L10.581817626953125 12.218181610107422 C10.566226959228516 12.14238166809082 10.550636291503906 12.066581726074219 10.535045623779297 11.990781784057617 L10.535045623779297 11.990781784057617 C10.542308807373047 11.985599517822266 10.549572944641113 11.98041820526123 10.556836128234863 11.975235939025879 L10.556836128234863 11.975235939025879"></path></svg>