<svg xmlns="http://www.w3.org/2000/svg" viewBox="0.0 0.0 24.0 24.0" height="200px" width="200px"><path fill="none" stroke="black" stroke-width=".3" stroke-opacity="1.0"  filling="0" d="M18.279571533203125 10.092899322509766 L18.279571533203125 10.092899322509766 C18.715717315673828 10.118227005004883 19.15186309814453 10.1435546875 19.588008880615234 10.168882369995117 L19.588008880615234 10.168882369995117 C19.619029998779297 10.461944580078125 19.582427978515625 10.751206398010254 19.581844329833984 11.04526424407959 L19.581844329833984 11.04526424407959 C19.431852340698242 11.04526424407959 19.281862258911133 11.04526424407959 19.13187026977539 11.04526424407959 L19.13187026977539 11.04526424407959 C18.93986701965332 12.241321563720703 19.08722496032715 13.578970909118652 19.022506713867188 14.798481941223145 L19.022506713867188 14.798481941223145 C18.909116744995117 14.798481941223145 18.795724868774414 14.798481941223145 18.682334899902344 14.798481941223145 L18.682334899902344 14.798481941223145 C18.68364715576172 13.543313026428223 18.85269546508789 12.249425888061523 18.75853729248047 10.998927116394043 L18.75853729248047 10.998927116394043 C18.5858097076416 10.982508659362793 18.413082122802734 10.96609115600586 18.240354537963867 10.94967269897461 L18.240354537963867 10.94967269897461 C18.253427505493164 10.664081573486328 18.266498565673828 10.378490447998047 18.279571533203125 10.092899322509766 L18.279571533203125 10.092899322509766"></path></svg>