<svg xmlns="http://www.w3.org/2000/svg" viewBox="0.0 0.0 24.0 24.0" height="200px" width="200px"><path fill="none" stroke="black" stroke-width=".3" stroke-opacity="1.0"  filling="0" d="M12.584700584411621 11.926554679870605 L12.584700584411621 11.926554679870605 C12.620109558105469 11.938973426818848 12.655518531799316 11.951391220092773 12.690927505493164 11.963809967041016 L12.690927505493164 11.963809967041016 C12.645299911499023 11.9966459274292 12.5996732711792 12.029481887817383 12.554045677185059 12.062317848205566 L12.554045677185059 12.062317848205566 C12.592827796936035 12.088945388793945 12.631608963012695 12.115572929382324 12.670391082763672 12.142200469970703 L12.670391082763672 12.142200469970703 C12.656018257141113 12.17660903930664 12.641645431518555 12.211018562316895 12.627272605895996 12.245427131652832 L12.627272605895996 12.245427131652832 C12.600000381469727 12.245436668395996 12.57272720336914 12.245445251464844 12.545454978942871 12.245454788208008 L12.545454978942871 12.245454788208008 C12.510330200195312 12.195801734924316 12.472244262695312 12.148099899291992 12.431427001953125 12.103009223937988 L12.431427001953125 12.103009223937988 C12.448229789733887 12.063899993896484 12.46245002746582 12.023492813110352 12.472854614257812 11.982217788696289 L12.472854614257812 11.982217788696289 C12.510136604309082 11.963663101196289 12.547418594360352 11.945109367370605 12.584700584411621 11.926554679870605 L12.584700584411621 11.926554679870605"></path></svg>