<svg xmlns="http://www.w3.org/2000/svg" viewBox="0.0 0.0 24.0 24.0" height="200px" width="200px"><path fill="none" stroke="black" stroke-width=".3" stroke-opacity="1.0"  filling="0" d="M12.651272773742676 12.002592086791992 L12.651272773742676 12.002592086791992 C12.72369384765625 12.035909652709961 12.797335624694824 12.099162101745605 12.815017700195312 12.17689323425293 L12.815017700195312 12.17689323425293 C12.794681549072266 12.18252944946289 12.774345397949219 12.188165664672852 12.754009246826172 12.193801879882812 L12.754009246826172 12.193801879882812 C12.745600700378418 12.147610664367676 12.737191200256348 12.101419448852539 12.728782653808594 12.055228233337402 L12.728782653808594 12.055228233337402 C12.715537071228027 12.054901123046875 12.702291488647461 12.054574012756348 12.689045906066895 12.05424690246582 L12.689045906066895 12.05424690246582 C12.681137084960938 12.099164962768555 12.673227310180664 12.144083976745605 12.665318489074707 12.18900203704834 L12.665318489074707 12.18900203704834 C12.65800952911377 12.189574241638184 12.650699615478516 12.190146446228027 12.643390655517578 12.190718650817871 L12.643390655517578 12.190718650817871 C12.62171459197998 12.131816864013672 12.630987167358398 12.06198787689209 12.651272773742676 12.002592086791992 L12.651272773742676 12.002592086791992"></path></svg>