<svg xmlns="http://www.w3.org/2000/svg" viewBox="0.0 0.0 24.0 24.0" height="200px" width="200px"><path fill="none" stroke="black" stroke-width=".3" stroke-opacity="1.0"  filling="0" d="M13.18191909790039 11.945454597473145 L13.18191909790039 11.945454597473145 C13.251591682434082 11.945454597473145 13.321264266967773 11.945454597473145 13.390936851501465 11.945454597473145 L13.390936851501465 11.945454597473145 C13.3909273147583 11.96363639831543 13.390918731689453 11.981818199157715 13.390909194946289 12.0 L13.390909194946289 12.0 C13.363154411315918 12.061699867248535 13.335399627685547 12.12339973449707 13.307644844055176 12.185099601745605 L13.307644844055176 12.185099601745605 C13.268635749816895 12.185099601745605 13.22962760925293 12.185099601745605 13.190618515014648 12.185099601745605 L13.190618515014648 12.185099601745605 C13.226791381835938 12.115090370178223 13.262964248657227 12.045082092285156 13.299137115478516 11.975072860717773 L13.299137115478516 11.975072860717773 C13.260336875915527 11.975072860717773 13.221536636352539 11.975072860717773 13.18273639678955 11.975072860717773 L13.18273639678955 11.975072860717773 C13.182463645935059 11.965200424194336 13.182191848754883 11.955327033996582 13.18191909790039 11.945454597473145 L13.18191909790039 11.945454597473145"></path></svg>