<svg xmlns="http://www.w3.org/2000/svg" viewBox="0.0 0.0 24.0 24.0" height="200px" width="200px"><path fill="none" stroke="black" stroke-width=".3" stroke-opacity="1.0"  filling="0" d="M11.06124496459961 11.989418983459473 L11.06124496459961 11.989418983459473 C11.070826530456543 12.065155029296875 11.080408096313477 12.140892028808594 11.08998966217041 12.216628074645996 L11.08998966217041 12.216628074645996 C11.08018970489502 12.173591613769531 11.070389747619629 12.130555152893066 11.060589790344238 12.087518692016602 L11.060589790344238 12.087518692016602 C11.052081108093262 12.084654808044434 11.043571472167969 12.081790924072266 11.035062789916992 12.078927040100098 L11.035062789916992 12.078927040100098 C11.014208793640137 12.125454902648926 10.993353843688965 12.171981811523438 10.97249984741211 12.218509674072266 L10.97249984741211 12.218509674072266 C10.964400291442871 12.21745491027832 10.956299781799316 12.216400146484375 10.948200225830078 12.21534538269043 L10.948200225830078 12.21534538269043 C10.941200256347656 12.165563583374023 10.934199333190918 12.115781784057617 10.927199363708496 12.065999984741211 L10.927199363708496 12.065999984741211 C10.919990539550781 12.06452751159668 10.912781715393066 12.063055038452148 10.905572891235352 12.061582565307617 L10.905572891235352 12.061582565307617 C10.892590522766113 12.112700462341309 10.879609107971191 12.163818359375 10.866626739501953 12.214936256408691 L10.866626739501953 12.214936256408691 C10.856481552124023 12.21517276763916 10.846336364746094 12.215409278869629 10.836191177368164 12.215645790100098 L10.836191177368164 12.215645790100098 C10.832218170166016 12.153045654296875 10.828245162963867 12.090446472167969 10.824272155761719 12.027846336364746 L10.824272155761719 12.027846336364746 C10.887153625488281 12.033219337463379 10.95003604888916 12.038591384887695 11.012917518615723 12.043964385986328 L11.012917518615723 12.043964385986328 C11.029026985168457 12.025782585144043 11.045135498046875 12.007600784301758 11.06124496459961 11.989418983459473 L11.06124496459961 11.989418983459473"></path></svg>