<svg xmlns="http://www.w3.org/2000/svg" viewBox="0.0 0.0 24.0 24.0" height="200px" width="200px"><path fill="none" stroke="black" stroke-width=".3" stroke-opacity="1.0"  filling="0" d="M13.525171279907227 11.947854995727539 L13.525171279907227 11.947854995727539 C13.484517097473145 12.006818771362305 13.443862915039062 12.065781593322754 13.40320873260498 12.12474536895752 L13.40320873260498 12.12474536895752 C13.442581176757812 12.13668155670166 13.481953620910645 12.1486177444458 13.521326065063477 12.160553932189941 L13.521326065063477 12.160553932189941 C13.519671440124512 12.170517921447754 13.518017768859863 12.18048095703125 13.516363143920898 12.190444946289062 L13.516363143920898 12.190444946289062 C13.42962646484375 12.190444946289062 13.342889785766602 12.190444946289062 13.256153106689453 12.190444946289062 L13.256153106689453 12.190444946289062 C13.315089225769043 12.122318267822266 13.37402629852295 12.054190635681152 13.432962417602539 11.986063957214355 L13.432962417602539 11.986063957214355 C13.380426406860352 11.978191375732422 13.327890396118164 11.970317840576172 13.275354385375977 11.962445259094238 L13.275354385375977 11.962445259094238 C13.358626365661621 11.957581520080566 13.441899299621582 11.952718734741211 13.525171279907227 11.947854995727539 L13.525171279907227 11.947854995727539"></path></svg>