<svg xmlns="http://www.w3.org/2000/svg" viewBox="0.0 0.0 24.0 24.0" height="200px" width="200px"><path fill="none" stroke="black" stroke-width=".3" stroke-opacity="1.0"  filling="0" d="M11.7055082321167 11.953417778015137 L11.7055082321167 11.953417778015137 C11.784514427185059 12.019940376281738 11.823348999023438 12.1431303024292 11.809117317199707 12.245427131652832 L11.809117317199707 12.245427131652832 C11.790926933288574 12.245436668395996 11.772735595703125 12.245445251464844 11.754545211791992 12.245454788208008 L11.754545211791992 12.245454788208008 C11.753533363342285 12.159857749938965 11.754414558410645 12.06692886352539 11.712953567504883 11.992036819458008 L11.712953567504883 11.992036819458008 C11.70270824432373 11.995964050292969 11.692461967468262 11.99989128112793 11.68221664428711 12.00381851196289 L11.68221664428711 12.00381851196289 C11.68221664428711 12.074427604675293 11.68221664428711 12.145036697387695 11.68221664428711 12.215645790100098 L11.68221664428711 12.215645790100098 C11.64339828491211 12.208581924438477 11.604580879211426 12.201518058776855 11.565762519836426 12.194454193115234 L11.565762519836426 12.194454193115234 C11.583908081054688 12.11567211151123 11.60205364227295 12.036890983581543 11.620199203491211 11.958108901977539 L11.620199203491211 11.958108901977539 C11.648635864257812 11.956544876098633 11.677071571350098 11.954981803894043 11.7055082321167 11.953417778015137 L11.7055082321167 11.953417778015137"></path></svg>