<svg xmlns="http://www.w3.org/2000/svg" viewBox="0.0 0.0 24.0 24.0" height="200px" width="200px"><path fill="none" stroke="black" stroke-width=".3" stroke-opacity="1.0"  filling="0" d="M10.763072967529297 11.83799934387207 L10.763072967529297 11.83799934387207 C10.797654151916504 11.841063499450684 10.832236289978027 11.84412670135498 10.866817474365234 11.847190856933594 L10.866817474365234 11.847190856933594 C10.863117218017578 11.896190643310547 10.859417915344238 11.945191383361816 10.855717658996582 11.99419116973877 L10.855717658996582 11.99419116973877 C10.895817756652832 11.997618675231934 10.935917854309082 12.001046180725098 10.976017951965332 12.004473686218262 L10.976017951965332 12.004473686218262 C10.976808547973633 12.01118278503418 10.97760009765625 12.017891883850098 10.97839069366455 12.024600982666016 L10.97839069366455 12.024600982666016 C10.904006004333496 12.04250431060791 10.847471237182617 12.13471508026123 10.844698905944824 12.211174011230469 L10.844698905944824 12.211174011230469 C10.802899360656738 12.211164474487305 10.761098861694336 12.21115493774414 10.71929931640625 12.211145401000977 L10.71929931640625 12.211145401000977 C10.733890533447266 12.086763381958008 10.748481750488281 11.962381362915039 10.763072967529297 11.83799934387207 L10.763072967529297 11.83799934387207"></path></svg>