<svg xmlns="http://www.w3.org/2000/svg" viewBox="0.0 0.0 24.0 24.0" height="200px" width="200px"><path fill="none" stroke="black" stroke-width=".3" stroke-opacity="1.0"  filling="0" d="M12.913089752197266 11.957862854003906 L12.913089752197266 11.957862854003906 C12.886880874633789 12.033217430114746 12.860671997070312 12.108572006225586 12.834463119506836 12.183926582336426 L12.834463119506836 12.183926582336426 C12.874690055847168 12.183926582336426 12.914917945861816 12.183926582336426 12.955144882202148 12.183926582336426 L12.955144882202148 12.183926582336426 C12.945854187011719 12.204436302185059 12.936562538146973 12.224945068359375 12.927271842956543 12.245454788208008 L12.927271842956543 12.245454788208008 C12.854544639587402 12.245454788208008 12.781818389892578 12.245454788208008 12.709091186523438 12.245454788208008 L12.709091186523438 12.245454788208008 C12.728672981262207 12.183309555053711 12.748254776000977 12.121163368225098 12.767836570739746 12.0590181350708 L12.767836570739746 12.0590181350708 C12.741409301757812 12.039372444152832 12.714982032775879 12.01972770690918 12.688554763793945 12.000082015991211 L12.688554763793945 12.000082015991211 C12.763400077819824 11.986008644104004 12.838244438171387 11.971936225891113 12.913089752197266 11.957862854003906 L12.913089752197266 11.957862854003906"></path></svg>