<svg xmlns="http://www.w3.org/2000/svg" viewBox="0.0 0.0 24.0 24.0" height="200px" width="200px"><path fill="none" stroke="black" stroke-width=".3" stroke-opacity="1.0"  filling="0" d="M13.283044815063477 11.937764167785645 L13.283044815063477 11.937764167785645 C13.309399604797363 11.950546264648438 13.335753440856934 11.963327407836914 13.36210823059082 11.976109504699707 L13.36210823059082 11.976109504699707 C13.334054946899414 12.016107559204102 13.296224594116211 12.051738739013672 13.252363204956055 12.073254585266113 L13.252363204956055 12.073254585266113 C13.254609107971191 12.081172943115234 13.256854057312012 12.089091300964355 13.259099960327148 12.097009658813477 L13.259099960327148 12.097009658813477 C13.293845176696777 12.105791091918945 13.328591346740723 12.11457347869873 13.363336563110352 12.1233549118042 L13.363336563110352 12.1233549118042 C13.363226890563965 12.130636215209961 13.363118171691895 12.137918472290039 13.363008499145508 12.1451997756958 L13.363008499145508 12.1451997756958 C13.332345008850098 12.157464027404785 13.301682472229004 12.169727325439453 13.271018981933594 12.181991577148438 L13.271018981933594 12.181991577148438 C13.23832893371582 12.10732650756836 13.228652954101562 11.998468399047852 13.283044815063477 11.937764167785645 L13.283044815063477 11.937764167785645"></path></svg>