<svg xmlns="http://www.w3.org/2000/svg" viewBox="0.0 0.0 24.0 24.0" height="200px" width="200px"><path fill="none" stroke="black" stroke-width=".3" stroke-opacity="1.0"  filling="0" d="M12.612899780273438 11.940082550048828 L12.612899780273438 11.940082550048828 C12.659845352172852 11.947672843933105 12.70678997039795 11.9552640914917 12.753735542297363 11.962854385375977 L12.753735542297363 11.962854385375977 C12.752054214477539 11.972763061523438 12.750371932983398 11.982672691345215 12.748690605163574 11.992581367492676 L12.748690605163574 11.992581367492676 C12.714008331298828 11.986199378967285 12.679327011108398 11.979818344116211 12.644644737243652 11.97343635559082 L12.644644737243652 11.97343635559082 C12.682326316833496 12.04020881652832 12.720008850097656 12.106982231140137 12.7576904296875 12.173754692077637 L12.7576904296875 12.173754692077637 C12.698736190795898 12.164855003356934 12.639781951904297 12.155954360961914 12.580827713012695 12.147054672241211 L12.580827713012695 12.147054672241211 C12.623218536376953 12.1495361328125 12.665609359741211 12.152018547058105 12.708000183105469 12.154500007629395 L12.708000183105469 12.154500007629395 C12.679431915283203 12.081718444824219 12.64525032043457 12.011262893676758 12.612899780273438 11.940082550048828 L12.612899780273438 11.940082550048828"></path></svg>