<svg xmlns="http://www.w3.org/2000/svg" viewBox="0.0 0.0 24.0 24.0" height="200px" width="200px"><path fill="none" stroke="black" stroke-width=".3" stroke-opacity="1.0"  filling="0" d="M-9.654626846313477 4.772697448730469 L-9.654626846313477 4.772697448730469 C-9.649009704589844 4.772697448730469 -7.314748764038086 4.7727274894714355 -7.309091567993164 4.7727274894714355 L-7.309091567993164 4.7727274894714355 C-7.203391075134277 5.144679546356201 -7.308475017547607 5.543140888214111 -7.395053863525391 5.914608478546143 L-7.395053863525391 5.914608478546143 C-6.925717830657959 5.933590412139893 -6.456381320953369 5.952572345733643 -5.9870452880859375 5.971554279327393 L-5.9870452880859375 5.971554279327393 C-5.967456340789795 6.304089546203613 -5.80385160446167 8.89194107055664 -6.055280685424805 8.918890953063965 C-6.578094482421875 8.974928855895996 -7.1070709228515625 8.930593490600586 -7.632272720336914 8.95584487915039 L-7.632272720336914 8.95584487915039 C-7.863498210906982 10.538783073425293 -7.905416965484619 12.16558837890625 -8.019081115722656 13.761053085327148 C-8.055512428283691 14.272427558898926 -8.532318115234375 15.213705062866211 -8.026800155639648 15.299044609069824 C-7.462402820587158 15.394323348999023 -6.536362648010254 15.307061195373535 -5.977392196655273 15.23898696899414 L-5.977392196655273 15.23898696899414 C-5.977391242980957 15.239079475402832 -5.949509143829346 18.174531936645508 -5.949462890625 18.179397583007812 L-5.949462890625 18.179397583007812 C-6.746826648712158 18.24667739868164 -7.60119104385376 18.109718322753906 -8.38044548034668 18.283740997314453 L-8.38044548034668 18.283740997314453 C-8.405172348022461 18.607332229614258 -8.429899215698242 18.930925369262695 -8.454626083374023 19.2545166015625 L-8.454626083374023 19.2545166015625 C-8.854626655578613 19.2545166015625 -9.254626274108887 19.2545166015625 -9.654626846313477 19.2545166015625 L-9.654626846313477 19.2545166015625 C-9.654626846313477 16.84088134765625 -9.654626846313477 14.427244186401367 -9.654626846313477 12.013607025146484 C-9.654626846313477 9.599969863891602 -9.654626846313477 7.186333656311035 -9.654626846313477 4.772697448730469 L-9.654626846313477 4.772697448730469"></path></svg>