<svg xmlns="http://www.w3.org/2000/svg" viewBox="0.0 0.0 24.0 24.0" height="200px" width="200px"><path fill="none" stroke="black" stroke-width=".3" stroke-opacity="1.0"  filling="0" d="M11.318754196166992 11.945590019226074 L11.318754196166992 11.945590019226074 C11.384190559387207 11.972480773925781 11.449626922607422 11.999372482299805 11.515063285827637 12.026263236999512 L11.515063285827637 12.026263236999512 C11.469090461730957 12.040972709655762 11.423117637634277 12.055681228637695 11.377144813537598 12.070390701293945 L11.377144813537598 12.070390701293945 C11.410445213317871 12.08686351776123 11.443744659423828 12.103336334228516 11.477045059204102 12.1198091506958 L11.477045059204102 12.1198091506958 C11.481844902038574 12.130581855773926 11.486645698547363 12.14135456085205 11.491445541381836 12.152127265930176 L11.491445541381836 12.152127265930176 C11.463817596435547 12.174881935119629 11.436190605163574 12.197636604309082 11.408562660217285 12.220391273498535 L11.408562660217285 12.220391273498535 C11.366835594177246 12.200400352478027 11.325108528137207 12.180408477783203 11.283381462097168 12.160417556762695 L11.283381462097168 12.160417556762695 C11.295172691345215 12.088808059692383 11.306962966918945 12.017199516296387 11.318754196166992 11.945590019226074 L11.318754196166992 11.945590019226074"></path></svg>