<svg xmlns="http://www.w3.org/2000/svg" viewBox="0.0 0.0 24.0 24.0" height="200px" width="200px"><path fill="none" stroke="black" stroke-width=".3" stroke-opacity="1.0"  filling="0" d="M12.26108169555664 11.950634956359863 L12.26108169555664 11.950634956359863 C12.298181533813477 11.950634956359863 12.335281372070312 11.950634956359863 12.372381210327148 11.950634956359863 L12.372381210327148 11.950634956359863 C12.374490737915039 11.95647144317627 12.376599311828613 11.962307929992676 12.378708839416504 11.968144416809082 L12.378708839416504 11.968144416809082 C12.35986328125 11.977807998657227 12.341017723083496 11.987471580505371 12.322172164916992 11.997135162353516 L12.322172164916992 11.997135162353516 C12.369418144226074 12.052799224853516 12.416664123535156 12.108463287353516 12.463910102844238 12.164127349853516 L12.463910102844238 12.164127349853516 C12.400437355041504 12.175200462341309 12.336963653564453 12.186272621154785 12.273490905761719 12.197345733642578 L12.273490905761719 12.197345733642578 C12.271754264831543 12.190363883972168 12.270018577575684 12.183381080627441 12.268281936645508 12.176399230957031 L12.268281936645508 12.176399230957031 C12.296845436096191 12.167135238647461 12.325408935546875 12.157872200012207 12.353972434997559 12.148608207702637 L12.353972434997559 12.148608207702637 C12.32300853729248 12.082616806030273 12.292045593261719 12.016626358032227 12.26108169555664 11.950634956359863 L12.26108169555664 11.950634956359863"></path></svg>