<svg xmlns="http://www.w3.org/2000/svg" viewBox="0.0 0.0 24.0 24.0" height="200px" width="200px"><path fill="none" stroke="black" stroke-width=".3" stroke-opacity="1.0"  filling="0" d="M11.233471870422363 11.914800643920898 L11.233471870422363 11.914800643920898 C11.2554349899292 12.003900527954102 11.277399063110352 12.093000411987305 11.299362182617188 12.182100296020508 L11.299362182617188 12.182100296020508 C11.329544067382812 12.195109367370605 11.359726905822754 12.208118438720703 11.389908790588379 12.2211275100708 L11.389908790588379 12.2211275100708 C11.389908790588379 12.142254829406738 11.389908790588379 12.063382148742676 11.389908790588379 11.984509468078613 L11.389908790588379 11.984509468078613 C11.40139102935791 11.980999946594238 11.412872314453125 11.97749137878418 11.424354553222656 11.973981857299805 L11.424354553222656 11.973981857299805 C11.465744972229004 12.0592622756958 11.491931915283203 12.1522216796875 11.509061813354492 12.245454788208008 L11.509061813354492 12.245454788208008 C11.399971008300781 12.245454788208008 11.29088020324707 12.245454788208008 11.18178939819336 12.245454788208008 L11.18178939819336 12.245454788208008 C11.182426452636719 12.235636711120605 11.183062553405762 12.22581958770752 11.183699607849121 12.216001510620117 L11.180018424987793 12.220008850097656 C11.19501781463623 12.117818832397461 11.21084976196289 12.01557731628418 11.233471870422363 11.914800643920898 L11.233471870422363 11.914800643920898"></path></svg>