<svg xmlns="http://www.w3.org/2000/svg" viewBox="0.0 0.0 24.0 24.0" height="200px" width="200px"><path fill="none" stroke="black" stroke-width=".3" stroke-opacity="1.0"  filling="0" d="M12.3972806930542 11.977090835571289 L12.3972806930542 11.977090835571289 C12.43586254119873 12.013199806213379 12.474444389343262 12.049308776855469 12.513026237487793 12.085417747497559 L12.513026237487793 12.085417747497559 C12.455426216125488 12.099818229675293 12.3978271484375 12.114217758178711 12.340227127075195 12.128618240356445 L12.340227127075195 12.128618240356445 C12.389445304870605 12.14579963684082 12.438663482666016 12.162981986999512 12.487881660461426 12.180163383483887 L12.487881660461426 12.180163383483887 C12.488900184631348 12.201927185058594 12.489917755126953 12.2236909866333 12.490936279296875 12.245454788208008 L12.490936279296875 12.245454788208008 C12.445472717285156 12.245454788208008 12.400009155273438 12.245454788208008 12.354545593261719 12.245454788208008 L12.354545593261719 12.245454788208008 C12.330599784851074 12.213054656982422 12.306654930114746 12.180654525756836 12.282709121704102 12.14825439453125 L12.282709121704102 12.14825439453125 C12.320899963378906 12.09119987487793 12.359089851379395 12.03414535522461 12.3972806930542 11.977090835571289 L12.3972806930542 11.977090835571289"></path></svg>