<svg xmlns="http://www.w3.org/2000/svg" viewBox="0.0 0.0 24.0 24.0" height="200px" width="200px"><path fill="none" stroke="black" stroke-width=".3" stroke-opacity="1.0"  filling="0" d="M11.764527320861816 11.758145332336426 L11.764527320861816 11.758145332336426 C11.678045272827148 11.85328197479248 11.59156322479248 11.948417663574219 11.505081176757812 12.043554306030273 L11.505081176757812 12.043554306030273 C11.576408386230469 12.057417869567871 11.647736549377441 12.071281433105469 11.719063758850098 12.085144996643066 L11.719063758850098 12.085144996643066 C11.612733840942383 12.646258354187012 10.993627548217773 11.775179862976074 11.764527320861816 11.758145332336426 L11.764527320861816 11.758145332336426"></path>
<path fill="none" stroke="black" stroke-width=".3" stroke-opacity="1.0"  filling="0" d="M11.521554946899414 11.812146186828613 L11.521554946899414 11.812146186828613 C11.531246185302734 11.87343692779541 11.540936470031738 11.934727668762207 11.550627708435059 11.996018409729004 L11.550627708435059 11.996018409729004 C11.540936470031738 11.934727668762207 11.531246185302734 11.87343692779541 11.521554946899414 11.812146186828613 L11.521554946899414 11.812146186828613"></path>
<path fill="none" stroke="black" stroke-width=".3" stroke-opacity="1.0"  filling="0" d="M11.67588996887207 12.176536560058594 L11.67588996887207 12.176536560058594 C11.601680755615234 12.180500030517578 11.527472496032715 12.184464454650879 11.453263282775879 12.188427925109863 L11.453263282775879 12.188427925109863 C11.527472496032715 12.184464454650879 11.601680755615234 12.180500030517578 11.67588996887207 12.176536560058594 L11.67588996887207 12.176536560058594"></path></svg>