<svg xmlns="http://www.w3.org/2000/svg" viewBox="0.0 0.0 24.0 24.0" height="200px" width="200px"><path fill="none" stroke="black" stroke-width=".3" stroke-opacity="1.0"  filling="0" d="M13.289344787597656 11.779145240783691 L13.289344787597656 11.779145240783691 C13.262367248535156 11.859611511230469 13.216401100158691 11.935528755187988 13.158435821533203 11.997518539428711 L13.158435821533203 11.997518539428711 C13.137726783752441 11.925500869750977 13.11701774597168 11.853482246398926 13.096308708190918 11.781464576721191 L13.096308708190918 11.781464576721191 C13.076135635375977 11.871336936950684 13.055963516235352 11.961210250854492 13.03579044342041 12.051082611083984 L13.03579044342041 12.051082611083984 C13.105772018432617 12.051082611083984 13.175753593444824 12.051082611083984 13.245735168457031 12.051082611083984 L13.245735168457031 12.051082611083984 C13.268499374389648 12.089837074279785 13.29126262664795 12.128591537475586 13.314026832580566 12.167346000671387 L13.314026832580566 12.167346000671387 C13.210667610168457 12.250033378601074 13.052419662475586 12.27299976348877 12.923891067504883 12.241363525390625 L12.923891067504883 12.241363525390625 C12.935054779052734 12.127763748168945 12.946218490600586 12.01416301727295 12.957382202148438 11.90056324005127 L12.957382202148438 11.90056324005127 C13.068036079406738 11.860090255737305 13.178690910339355 11.819618225097656 13.289344787597656 11.779145240783691 L13.289344787597656 11.779145240783691"></path>
<path fill="none" stroke="black" stroke-width=".3" stroke-opacity="1.0"  filling="0" d="M13.01669979095459 12.144381523132324 L13.01669979095459 12.144381523132324 C13.0972900390625 12.144381523132324 13.177881240844727 12.144381523132324 13.258471488952637 12.144381523132324 L13.258471488952637 12.144381523132324 C13.191384315490723 12.189037322998047 13.079895973205566 12.194392204284668 13.01669979095459 12.144381523132324 L13.01669979095459 12.144381523132324"></path></svg>