<svg xmlns="http://www.w3.org/2000/svg" viewBox="0.0 0.0 24.0 24.0" height="200px" width="200px"><path fill="none" stroke="black" stroke-width=".3" stroke-opacity="1.0"  filling="0" d="M10.554545402526855 11.650991439819336 L10.554545402526855 11.650991439819336 C10.587218284606934 11.6983642578125 10.619891166687012 11.745737075805664 10.65256404876709 11.793109893798828 L10.65256404876709 11.793109893798828 C10.630363464355469 11.803627967834473 10.608163833618164 11.814146041870117 10.585963249206543 11.824664115905762 L10.585963249206543 11.824664115905762 C10.585963249206543 11.908464431762695 10.585963249206543 11.992263793945312 10.585963249206543 12.076064109802246 L10.585963249206543 12.076064109802246 C10.617653846740723 12.070672988891602 10.649345397949219 12.065281867980957 10.681035995483398 12.059890747070312 L10.681035995483398 12.059890747070312 C10.686381340026855 12.068745613098145 10.691727638244629 12.07759952545166 10.697072982788086 12.086454391479492 L10.697072982788086 12.086454391479492 C10.654718399047852 12.116854667663574 10.612363815307617 12.147254943847656 10.570009231567383 12.177655220031738 L10.570009231567383 12.177655220031738 C10.484659194946289 12.024157524108887 10.532940864562988 11.825287818908691 10.554545402526855 11.650991439819336 L10.554545402526855 11.650991439819336"></path></svg>