<svg xmlns="http://www.w3.org/2000/svg" viewBox="0.0 0.0 24.0 24.0" height="200px" width="200px"><path fill="none" stroke="black" stroke-width=".3" stroke-opacity="1.0"  filling="0" d="M11.772218704223633 11.998417854309082 L11.772218704223633 11.998417854309082 C11.778400421142578 12.060944557189941 11.784582138061523 12.123472213745117 11.790763854980469 12.185998916625977 L11.790763854980469 12.185998916625977 C11.799554824829102 12.190253257751465 11.808345794677734 12.19450855255127 11.817136764526367 12.198762893676758 L11.817136764526367 12.198762893676758 C11.853915214538574 12.14261531829834 11.871844291687012 12.073394775390625 11.876863479614258 12.006462097167969 L11.876863479614258 12.006462097167969 C11.903109550476074 12.006462097167969 11.929354667663574 12.006462097167969 11.95560073852539 12.006462097167969 L11.95560073852539 12.006462097167969 C11.943137168884277 12.086125373840332 11.930672645568848 12.165789604187012 11.918209075927734 12.245452880859375 L11.918209075927734 12.245452880859375 C11.85456371307373 12.245453834533691 11.790918350219727 12.245453834533691 11.727272987365723 12.245454788208008 L11.727272987365723 12.245454788208008 C11.722701072692871 12.161882400512695 11.690476417541504 12.016403198242188 11.772218704223633 11.998417854309082 L11.772218704223633 11.998417854309082"></path></svg>