<svg xmlns="http://www.w3.org/2000/svg" viewBox="0.0 0.0 24.0 24.0" height="200px" width="200px"><path fill="none" stroke="black" stroke-width=".3" stroke-opacity="1.0"  filling="0" d="M11.784708976745605 11.981236457824707 L11.784708976745605 11.981236457824707 C11.776854515075684 12.013527870178223 11.768999099731445 12.045818328857422 11.761144638061523 12.078109741210938 L11.761144638061523 12.078109741210938 C11.721880912780762 12.059518814086914 11.6826171875 12.04092788696289 11.643353462219238 12.022336959838867 L11.643353462219238 12.022336959838867 C11.6454439163208 12.097567558288574 11.704707145690918 12.167415618896484 11.764880180358887 12.212617874145508 L11.764880180358887 12.212617874145508 C11.761435508728027 12.223563194274902 11.757989883422852 12.234509468078613 11.754545211791992 12.245454788208008 L11.754545211791992 12.245454788208008 C11.699999809265137 12.245454788208008 11.645455360412598 12.245454788208008 11.590909957885742 12.245454788208008 L11.590909957885742 12.245454788208008 C11.576055526733398 12.185036659240723 11.561200141906738 12.124618530273438 11.546345710754395 12.064200401306152 L11.546345710754395 12.064200401306152 C11.625800132751465 12.036545753479004 11.705254554748535 12.008891105651855 11.784708976745605 11.981236457824707 L11.784708976745605 11.981236457824707"></path></svg>