<svg xmlns="http://www.w3.org/2000/svg" viewBox="0.0 0.0 24.0 24.0" height="200px" width="200px"><path fill="none" stroke="black" stroke-width=".3" stroke-opacity="1.0"  filling="0" d="M11.465700149536133 11.774100303649902 L11.465700149536133 11.774100303649902 C11.548128128051758 11.914270401000977 11.673420906066895 12.406893730163574 11.672371864318848 11.857746124267578 L11.672371864318848 11.857746124267578 C11.627371788024902 11.85195541381836 11.582371711730957 11.84616470336914 11.537371635437012 11.840373992919922 L11.537371635437012 11.840373992919922 C11.537117004394531 11.835128784179688 11.53686237335205 11.829882621765137 11.53660774230957 11.824637413024902 L11.53660774230957 11.824637413024902 C11.594225883483887 11.811846733093262 11.651844024658203 11.799055099487305 11.70946216583252 11.786264419555664 L11.70946216583252 11.786264419555664 C11.70398998260498 11.91806411743164 11.698516845703125 12.049864768981934 11.693044662475586 12.18166446685791 L11.693044662475586 12.18166446685791 C11.576704025268555 12.077776908874512 11.427056312561035 11.95271110534668 11.426998138427734 11.796737670898438 L11.426998138427734 11.796737670898438 C11.439898490905762 11.789192199707031 11.452799797058105 11.781645774841309 11.465700149536133 11.774100303649902 L11.465700149536133 11.774100303649902"></path></svg>