<svg xmlns="http://www.w3.org/2000/svg" viewBox="0.0 0.0 24.0 24.0" height="200px" width="200px"><path fill="none" stroke="black" stroke-width=".3" stroke-opacity="1.0"  filling="0" d="M13.222199440002441 11.93211841583252 L13.222199440002441 11.93211841583252 C13.241881370544434 12.013463973999023 13.261563301086426 12.094808578491211 13.281245231628418 12.176154136657715 L13.281245231628418 12.176154136657715 C13.228944778442383 12.137889862060547 13.196005821228027 12.068702697753906 13.19070053100586 12.004117012023926 L13.19070053100586 12.004117012023926 C13.179737091064453 12.003044128417969 13.16877269744873 12.001971244812012 13.157809257507324 12.000898361206055 L13.157809257507324 12.000898361206055 C13.142509460449219 12.062289237976074 13.127209663391113 12.12368106842041 13.111909866333008 12.18507194519043 L13.111909866333008 12.18507194519043 C13.089855194091797 12.186199188232422 13.067801475524902 12.187326431274414 13.045746803283691 12.188453674316406 L13.045746803283691 12.188453674316406 C13.054510116577148 12.110480308532715 13.063273429870605 12.03250789642334 13.072036743164062 11.954534530639648 L13.072036743164062 11.954534530639648 C13.122091293334961 11.947062492370605 13.172144889831543 11.939590454101562 13.222199440002441 11.93211841583252 L13.222199440002441 11.93211841583252"></path></svg>