<svg xmlns="http://www.w3.org/2000/svg" viewBox="0.0 0.0 24.0 24.0" height="200px" width="200px"><path fill="none" stroke="black" stroke-width=".3" stroke-opacity="1.0"  filling="0" d="M12.490909576416016 11.899581909179688 L12.490909576416016 11.899581909179688 C12.577909469604492 11.899581909179688 12.664909362792969 11.899581909179688 12.751909255981445 11.899581909179688 L12.751909255981445 11.899581909179688 C12.764573097229004 11.93468189239502 12.777236938476562 11.969780921936035 12.789900779724121 12.004880905151367 L12.789900779724121 12.004880905151367 C12.763509750366211 12.03699016571045 12.737117767333984 12.069099426269531 12.710726737976074 12.101208686828613 L12.710726737976074 12.101208686828613 C12.71927261352539 12.149291038513184 12.72781753540039 12.197372436523438 12.736363410949707 12.245454788208008 L12.736363410949707 12.245454788208008 C12.718181610107422 12.245454788208008 12.699999809265137 12.245454788208008 12.681818008422852 12.245454788208008 L12.681818008422852 12.245454788208008 C12.647700309753418 12.192136764526367 12.613581657409668 12.138818740844727 12.579463958740234 12.085500717163086 L12.579463958740234 12.085500717163086 C12.573288917541504 12.138507843017578 12.554570198059082 12.195273399353027 12.57272720336914 12.245454788208008 L12.57272720336914 12.245454788208008 C12.545454978942871 12.245454788208008 12.518181800842285 12.245454788208008 12.490909576416016 12.245454788208008 L12.490909576416016 12.245454788208008 C12.490909576416016 12.13016414642334 12.490909576416016 12.014872550964355 12.490909576416016 11.899581909179688 L12.490909576416016 11.899581909179688"></path>
<path fill="none" stroke="black" stroke-width=".3" stroke-opacity="1.0"  filling="0" d="M12.713972091674805 11.938663482666016 L12.713972091674805 11.938663482666016 C12.65440845489502 11.948563575744629 12.594844818115234 11.958463668823242 12.53528118133545 11.968363761901855 L12.53528118133545 11.968363761901855 C12.594844818115234 11.958463668823242 12.65440845489502 11.948563575744629 12.713972091674805 11.938663482666016 L12.713972091674805 11.938663482666016"></path></svg>