<svg xmlns="http://www.w3.org/2000/svg" viewBox="0.0 0.0 24.0 24.0" height="200px" width="200px"><path fill="none" stroke="black" stroke-width=".3" stroke-opacity="1.0"  filling="0" d="M11.254799842834473 11.87190055847168 L11.254799842834473 11.87190055847168 C11.347882270812988 11.883227348327637 11.440963745117188 11.89455509185791 11.534046173095703 11.905881881713867 L11.534046173095703 11.905881881713867 C11.532618522644043 11.915363311767578 11.5311918258667 11.924845695495605 11.529764175415039 11.934327125549316 L11.529764175415039 11.934327125549316 C11.495518684387207 11.930291175842285 11.461272239685059 11.926254272460938 11.427026748657227 11.922218322753906 L11.427026748657227 11.922218322753906 C11.421709060668945 12.027700424194336 11.416390419006348 12.133182525634766 11.411072731018066 12.238664627075195 L11.411072731018066 12.238664627075195 C11.385172843933105 12.238664627075195 11.359272956848145 12.238664627075195 11.333373069763184 12.238664627075195 L11.333373069763184 12.238664627075195 C11.333373069763184 12.133746147155762 11.333373069763184 12.028827667236328 11.333373069763184 11.923909187316895 L11.333373069763184 11.923909187316895 C11.294218063354492 11.936081886291504 11.255064010620117 11.94825553894043 11.215909004211426 11.960428237915039 L11.215909004211426 11.960428237915039 C11.21047306060791 11.954682350158691 11.205036163330078 11.94893741607666 11.199600219726562 11.943191528320312 L11.199600219726562 11.943191528320312 C11.218000411987305 11.919427871704102 11.23639965057373 11.89566421508789 11.254799842834473 11.87190055847168 L11.254799842834473 11.87190055847168"></path></svg>