<svg xmlns="http://www.w3.org/2000/svg" viewBox="0.0 0.0 24.0 24.0" height="200px" width="200px"><path fill="none" stroke="black" stroke-width=".3" stroke-opacity="1.0"  filling="0" d="M12.299999237060547 11.809091567993164 L12.299999237060547 11.809091567993164 C12.327272415161133 11.809091567993164 12.354544639587402 11.809091567993164 12.381817817687988 11.809091567993164 L12.381817817687988 11.809091567993164 C12.384699821472168 11.847481727600098 12.387581825256348 11.885872840881348 12.390463829040527 11.924263000488281 L12.390463829040527 11.924263000488281 C12.44779109954834 12.011154174804688 12.505117416381836 12.098045349121094 12.562444686889648 12.1849365234375 L12.562444686889648 12.1849365234375 C12.532463073730469 12.186491012573242 12.502481460571289 12.188045501708984 12.47249984741211 12.189599990844727 L12.47249984741211 12.189599990844727 C12.471832275390625 12.126459121704102 12.470340728759766 12.059159278869629 12.442281723022461 12.002591133117676 L12.442281723022461 12.002591133117676 C12.392205238342285 12.037612915039062 12.394009590148926 12.118836402893066 12.395781517028809 12.17991828918457 L12.395781517028809 12.17991828918457 C12.369935989379883 12.182782173156738 12.344091415405273 12.185646057128906 12.318245887756348 12.188509941101074 L12.318245887756348 12.188509941101074 C12.312163352966309 12.062037467956543 12.306081771850586 11.935564041137695 12.299999237060547 11.809091567993164 L12.299999237060547 11.809091567993164"></path></svg>