<svg xmlns="http://www.w3.org/2000/svg" viewBox="0.0 0.0 24.0 24.0" height="200px" width="200px"><path fill="none" stroke="black" stroke-width=".3" stroke-opacity="1.0"  filling="0" d="M13.104517936706543 11.866691589355469 L13.104517936706543 11.866691589355469 C13.128890991210938 11.89840030670166 13.153263092041016 11.930109977722168 13.17763614654541 11.96181869506836 L13.17763614654541 11.96181869506836 C13.562329292297363 11.642333984375 13.374983787536621 12.48468017578125 13.189391136169434 12.071645736694336 L13.189391136169434 12.071645736694336 C13.149154663085938 12.113409042358398 13.108918190002441 12.155173301696777 13.068681716918945 12.19693660736084 L13.068681716918945 12.19693660736084 C13.06982707977295 12.198236465454102 13.070972442626953 12.19953727722168 13.072117805480957 12.200837135314941 L13.072117805480957 12.200837135314941 C13.082918167114258 12.089455604553223 13.093717575073242 11.978073120117188 13.104517936706543 11.866691589355469 L13.104517936706543 11.866691589355469"></path>
<path fill="none" stroke="black" stroke-width=".3" stroke-opacity="1.0"  filling="0" d="M13.304126739501953 11.883545875549316 L13.304126739501953 11.883545875549316 C13.322099685668945 11.974164009094238 13.340071678161621 12.06478214263916 13.358044624328613 12.155400276184082 L13.358044624328613 12.155400276184082 C13.340071678161621 12.06478214263916 13.322099685668945 11.974164009094238 13.304126739501953 11.883545875549316 L13.304126739501953 11.883545875549316"></path></svg>