<svg xmlns="http://www.w3.org/2000/svg" viewBox="0.0 0.0 24.0 24.0" height="200px" width="200px"><path fill="none" stroke="black" stroke-width=".3" stroke-opacity="1.0"  filling="0" d="M4.8818182945251465 12.054545402526855 L4.8818182945251465 12.054545402526855 C5.132318019866943 12.30708122253418 5.382818222045898 12.55961799621582 5.633317947387695 12.812153816223145 L5.633317947387695 12.812153816223145 C5.523299694061279 12.633599281311035 5.4132819175720215 12.455045700073242 5.3032636642456055 12.276491165161133 L5.3032636642456055 12.276491165161133 C5.579483509063721 12.539186477661133 5.824118614196777 12.835628509521484 6.049309253692627 13.14319133758545 L6.049309253692627 13.14319133758545 C6.057536602020264 13.139182090759277 6.065763473510742 13.135172843933105 6.073990821838379 13.131163597106934 L6.073990821838379 13.131163597106934 C5.982354640960693 12.938836097717285 5.89071798324585 12.746508598327637 5.799081802368164 12.554181098937988 L5.799081802368164 12.554181098937988 C5.80282735824585 12.549844741821289 5.806572437286377 12.545509338378906 5.8103179931640625 12.541172981262207 L5.8103179931640625 12.541172981262207 C6.152834892272949 12.95389175415039 6.452850818634033 13.400246620178223 6.627300262451172 13.909090995788574 L6.627300262451172 13.909090995788574 C6.045482158660889 13.909090995788574 5.4636640548706055 13.909090995788574 4.881845951080322 13.909090995788574 L4.881845951080322 13.909090995788574 C4.881836891174316 13.290908813476562 4.881827354431152 12.672727584838867 4.8818182945251465 12.054545402526855 L4.8818182945251465 12.054545402526855"></path></svg>