<svg xmlns="http://www.w3.org/2000/svg" viewBox="0.0 0.0 24.0 24.0" height="200px" width="200px"><path fill="none" stroke="black" stroke-width=".3" stroke-opacity="1.0"  filling="0" d="M11.96004581451416 11.951318740844727 L11.96004581451416 11.951318740844727 C12.013100624084473 11.951318740844727 12.066154479980469 11.951318740844727 12.119209289550781 11.951318740844727 L12.119209289550781 11.951318740844727 C12.100727081298828 11.974883079528809 12.082245826721191 11.998446464538574 12.063763618469238 12.022010803222656 L12.063763618469238 12.022010803222656 C12.089454650878906 12.043791770935059 12.115144729614258 12.065573692321777 12.140835762023926 12.08735466003418 L12.140835762023926 12.08735466003418 C12.13949966430664 12.085908889770508 12.138163566589355 12.084464073181152 12.13682746887207 12.08301830291748 L12.13682746887207 12.08301830291748 C12.091459274291992 12.139177322387695 12.007548332214355 12.202336311340332 11.940736770629883 12.174982070922852 L11.940736770629883 12.174982070922852 C11.943327903747559 12.16578197479248 11.945918083190918 12.156582832336426 11.948509216308594 12.147382736206055 L11.948509216308594 12.147382736206055 C11.983518600463867 12.139673233032227 12.01852798461914 12.131964683532715 12.053537368774414 12.124255180358887 L12.053537368774414 12.124255180358887 C12.02237319946289 12.066609382629395 11.991209983825684 12.008964538574219 11.96004581451416 11.951318740844727 L11.96004581451416 11.951318740844727"></path></svg>