<svg xmlns="http://www.w3.org/2000/svg" viewBox="0.0 0.0 24.0 24.0" height="200px" width="200px"><path fill="none" stroke="black" stroke-width=".3" stroke-opacity="1.0"  filling="0" d="M12.43636417388916 11.809064865112305 L12.43636417388916 11.809064865112305 C12.46363639831543 11.809073448181152 12.490909576416016 11.809082984924316 12.518181800842285 11.809091567993164 L12.518181800842285 11.809091567993164 C12.523009300231934 11.848400115966797 12.527835845947266 11.887709617614746 12.532663345336914 11.927018165588379 L12.532663345336914 11.927018165588379 C12.595113754272461 11.989429473876953 12.65868854522705 12.134431838989258 12.587181091308594 12.18621826171875 L12.587181091308594 12.18621826171875 C12.599254608154297 12.123454093933105 12.611327171325684 12.060690879821777 12.623400688171387 11.997926712036133 L12.623400688171387 11.997926712036133 C12.590909957885742 12.006254196166992 12.558418273925781 12.014581680297852 12.525927543640137 12.022909164428711 L12.525927543640137 12.022909164428711 C12.53322696685791 12.082645416259766 12.54052734375 12.14238166809082 12.547826766967773 12.202117919921875 L12.547826766967773 12.202117919921875 C12.421058654785156 12.152358055114746 12.438257217407227 11.945235252380371 12.43636417388916 11.809064865112305 L12.43636417388916 11.809064865112305"></path></svg>