<svg xmlns="http://www.w3.org/2000/svg" viewBox="0.0 0.0 24.0 24.0" height="200px" width="200px"><path fill="none" stroke="black" stroke-width=".3" stroke-opacity="1.0"  filling="0" d="M11.072700500488281 11.809090614318848 L11.072700500488281 11.809090614318848 C11.08180046081543 11.809090614318848 11.090900421142578 11.809091567993164 11.100000381469727 11.809091567993164 L11.100000381469727 11.809091567993164 C11.168802261352539 12.387347221374512 10.861296653747559 12.258285522460938 11.008718490600586 11.854307174682617 L11.008718490600586 11.854307174682617 C11.030045509338379 11.839235305786133 11.051373481750488 11.824162483215332 11.072700500488281 11.809090614318848 L11.072700500488281 11.809090614318848"></path>
<path fill="none" stroke="black" stroke-width=".3" stroke-opacity="1.0"  filling="0" d="M10.991291046142578 11.999863624572754 L10.991291046142578 11.999863624572754 C11.00373649597168 11.999945640563965 11.016181945800781 12.00002670288086 11.028627395629883 12.00010871887207 L11.028627395629883 12.00010871887207 C11.04597282409668 12.033672332763672 11.063318252563477 12.067235946655273 11.080663681030273 12.100799560546875 L11.080663681030273 12.100799560546875 C11.038872718811035 12.11823558807373 10.997081756591797 12.135672569274902 10.955290794372559 12.153108596801758 L10.955290794372559 12.153108596801758 C10.967290878295898 12.10202693939209 10.979290962219238 12.050945281982422 10.991291046142578 11.999863624572754 L10.991291046142578 11.999863624572754"></path></svg>