<svg xmlns="http://www.w3.org/2000/svg" viewBox="0.0 0.0 24.0 24.0" height="200px" width="200px"><path fill="none" stroke="black" stroke-width=".3" stroke-opacity="1.0"  filling="0" d="M12.812345504760742 11.807153701782227 L12.812345504760742 11.807153701782227 C12.828672409057617 11.85153579711914 12.845000267028809 11.895917892456055 12.861327171325684 11.940299987792969 L12.861327171325684 11.940299987792969 C12.903536796569824 11.943963050842285 12.945745468139648 11.947627067565918 12.987955093383789 11.951290130615234 L12.987955093383789 11.951290130615234 C12.997082710266113 12.03803539276123 13.006209373474121 12.124781608581543 13.015336990356445 12.211526870727539 L13.015336990356445 12.211526870727539 C12.976099967956543 12.211526870727539 12.936863899230957 12.211526870727539 12.897626876831055 12.211526870727539 L12.897626876831055 12.211526870727539 C12.897626876831055 12.14486312866211 12.897626876831055 12.07819938659668 12.897626876831055 12.01153564453125 L12.897626876831055 12.01153564453125 C12.886072158813477 12.010917663574219 12.874518394470215 12.010299682617188 12.862963676452637 12.009681701660156 L12.862963676452637 12.009681701660156 C12.852094650268555 12.0747709274292 12.846292495727539 12.1409273147583 12.845890998840332 12.206916809082031 L12.845890998840332 12.206916809082031 C12.812000274658203 12.206916809082031 12.778108596801758 12.206916809082031 12.744217872619629 12.206916809082031 L12.744217872619629 12.206916809082031 C12.74195671081543 12.07392406463623 12.733659744262695 11.937543869018555 12.765762329101562 11.808464050292969 L12.765762329101562 11.808464050292969 C12.781290054321289 11.808027267456055 12.796817779541016 11.80759048461914 12.812345504760742 11.807153701782227 L12.812345504760742 11.807153701782227"></path></svg>