<svg xmlns="http://www.w3.org/2000/svg" viewBox="0.0 0.0 24.0 24.0" height="200px" width="200px"><path fill="none" stroke="black" stroke-width=".3" stroke-opacity="1.0"  filling="0" d="M13.531145095825195 12.000300407409668 L13.531145095825195 12.000300407409668 C13.58675479888916 12.00858211517334 13.642363548278809 12.016863822937012 13.697973251342773 12.025145530700684 L13.697973251342773 12.025145530700684 C13.680191040039062 12.070845603942871 13.662409782409668 12.116546630859375 13.644627571105957 12.162246704101562 L13.644627571105957 12.162246704101562 C13.627408981323242 12.116983413696289 13.610191345214844 12.0717191696167 13.592972755432129 12.026455879211426 L13.592972755432129 12.026455879211426 C13.581608772277832 12.028319358825684 13.570245742797852 12.030181884765625 13.558881759643555 12.032045364379883 L13.558881759643555 12.032045364379883 C13.561272621154785 12.075791358947754 13.563663482666016 12.119536399841309 13.566054344177246 12.16328239440918 L13.566054344177246 12.16328239440918 C13.607672691345215 12.190672874450684 13.649291038513184 12.218064308166504 13.690909385681152 12.245454788208008 L13.690909385681152 12.245454788208008 C13.618182182312012 12.245454788208008 13.545454978942871 12.245454788208008 13.47272777557373 12.245454788208008 L13.47272777557373 12.245454788208008 C13.48755168914795 12.162766456604004 13.508692741394043 12.081250190734863 13.531145095825195 12.000300407409668 L13.531145095825195 12.000300407409668"></path></svg>