<svg xmlns="http://www.w3.org/2000/svg" viewBox="0.0 0.0 24.0 24.0" height="200px" width="200px"><path fill="none" stroke="black" stroke-width=".3" stroke-opacity="1.0"  filling="0" d="M14.23156452178955 11.896145820617676 L14.23156452178955 11.896145820617676 C14.295527458190918 11.914563179016113 14.3637113571167 11.9248685836792 14.421409606933594 11.95805549621582 L14.421409606933594 11.95805549621582 C14.421409606933594 12.027691841125488 14.421408653259277 12.09732723236084 14.421408653259277 12.166963577270508 L14.421408653259277 12.166963577270508 C14.395771980285645 12.159708976745605 14.370136260986328 12.152454376220703 14.344499588012695 12.1451997756958 L14.344499588012695 12.1451997756958 C14.338054656982422 12.073763847351074 14.331608772277832 12.002326965332031 14.325163841247559 11.930891036987305 L14.325163841247559 11.930891036987305 C14.312954902648926 11.930182456970215 14.300745010375977 11.929472923278809 14.288536071777344 11.928764343261719 L14.288536071777344 11.928764343261719 C14.273390769958496 12.00510025024414 14.258245468139648 12.081437110900879 14.2431001663208 12.1577730178833 L14.2431001663208 12.1577730178833 C14.222663879394531 12.158818244934082 14.202228546142578 12.159863471984863 14.181792259216309 12.160908699035645 L14.181792259216309 12.160908699035645 C14.182065963745117 12.0711088180542 14.201634407043457 11.98081111907959 14.23156452178955 11.896145820617676 L14.23156452178955 11.896145820617676"></path></svg>