<svg xmlns="http://www.w3.org/2000/svg" viewBox="0.0 0.0 24.0 24.0" height="200px" width="200px"><path fill="none" stroke="black" stroke-width=".3" stroke-opacity="1.0"  filling="0" d="M12.416126251220703 11.913246154785156 L12.416126251220703 11.913246154785156 C12.421280860900879 11.920736312866211 12.426434516906738 11.928227424621582 12.431589126586914 11.935717582702637 L12.431589126586914 11.935717582702637 C12.420226097106934 11.939945220947266 12.408862113952637 11.944172859191895 12.397499084472656 11.948400497436523 L12.397499084472656 11.948400497436523 C12.460653305053711 11.970900535583496 12.523807525634766 11.993399620056152 12.58696174621582 12.015899658203125 L12.58696174621582 12.015899658203125 C12.511116981506348 12.052363395690918 12.435272216796875 12.088827133178711 12.359427452087402 12.125290870666504 L12.359427452087402 12.125290870666504 C12.389972686767578 12.128317832946777 12.420516967773438 12.131345748901367 12.451062202453613 12.13437271118164 L12.451062202453613 12.13437271118164 C12.407295227050781 12.074745178222656 12.365545272827148 12.0135498046875 12.326562881469727 11.950690269470215 L12.326562881469727 11.950690269470215 C12.356417655944824 11.93820858001709 12.386271476745605 11.925727844238281 12.416126251220703 11.913246154785156 L12.416126251220703 11.913246154785156"></path></svg>