<svg xmlns="http://www.w3.org/2000/svg" viewBox="0.0 0.0 24.0 24.0" height="200px" width="200px"><path fill="none" stroke="black" stroke-width=".3" stroke-opacity="1.0"  filling="0" d="M12.654492378234863 11.809091567993164 L12.654492378234863 11.809091567993164 C12.681782722473145 11.809091567993164 12.709073066711426 11.809091567993164 12.736363410949707 11.809091567993164 L12.736363410949707 11.809091567993164 C12.736363410949707 11.846700668334961 12.736363410949707 11.884308815002441 12.736363410949707 11.921917915344238 L12.736363410949707 11.921917915344238 C12.792763710021973 12.018681526184082 12.849163055419922 12.115446090698242 12.905563354492188 12.212209701538086 L12.905563354492188 12.212209701538086 C12.868999481201172 12.212209701538086 12.832436561584473 12.212209701538086 12.795872688293457 12.212209701538086 L12.795872688293457 12.212209701538086 C12.792282104492188 12.142727851867676 12.788690567016602 12.07324504852295 12.785099983215332 12.003763198852539 L12.785099983215332 12.003763198852539 C12.771472930908203 12.002872467041016 12.757845878601074 12.001981735229492 12.744218826293945 12.001091003417969 L12.744218826293945 12.001091003417969 C12.7330961227417 12.074671745300293 12.716669082641602 12.150568008422852 12.678491592407227 12.214445114135742 L12.678491592407227 12.214445114135742 C12.60328483581543 12.08889102935791 12.605812072753906 11.947096824645996 12.654492378234863 11.809091567993164 L12.654492378234863 11.809091567993164"></path></svg>