<svg xmlns="http://www.w3.org/2000/svg" viewBox="0.0 0.0 24.0 24.0" height="200px" width="200px"><path fill="none" stroke="black" stroke-width=".3" stroke-opacity="1.0"  filling="0" d="M11.953908920288086 11.877299308776855 L11.953908920288086 11.877299308776855 C12.033273696899414 11.930436134338379 12.032411575317383 12.06079387664795 12.021681785583496 12.155699729919434 L12.021681785583496 12.155699729919434 C11.980181694030762 12.084890365600586 11.938681602478027 12.014081001281738 11.897181510925293 11.94327163696289 L11.897181510925293 11.94327163696289 C11.893272399902344 12.015853881835938 11.889363288879395 12.088436126708984 11.885454177856445 12.161018371582031 L11.885454177856445 12.161018371582031 C11.835744857788086 12.088981628417969 11.786036491394043 12.016945838928223 11.736327171325684 11.94490909576416 L11.736327171325684 11.94490909576416 C11.736327171325684 12.00544548034668 11.736327171325684 12.0659818649292 11.736327171325684 12.126518249511719 L11.736327171325684 12.126518249511719 C11.70787239074707 12.134736061096191 11.679418563842773 12.142953872680664 11.65096378326416 12.151171684265137 L11.65096378326416 12.151171684265137 C11.65096378326416 12.067972183227539 11.65096378326416 11.984772682189941 11.65096378326416 11.901573181152344 L11.65096378326416 11.901573181152344 C11.751945495605469 11.893482208251953 11.852927207946777 11.885390281677246 11.953908920288086 11.877299308776855 L11.953908920288086 11.877299308776855"></path></svg>