<svg xmlns="http://www.w3.org/2000/svg" viewBox="0.0 0.0 24.0 24.0" height="200px" width="200px"><path fill="none" stroke="black" stroke-width=".3" stroke-opacity="1.0"  filling="0" d="M12.572754859924316 11.809091567993164 L12.572754859924316 11.809091567993164 C12.609108924865723 11.809091567993164 12.645463943481445 11.809091567993164 12.681818008422852 11.809091567993164 L12.681818008422852 11.809091567993164 C12.677936553955078 11.934354782104492 12.674054145812988 12.059618949890137 12.670172691345215 12.184882164001465 L12.670172691345215 12.184882164001465 C12.608918190002441 12.184882164001465 12.547662734985352 12.184882164001465 12.486408233642578 12.184882164001465 L12.486408233642578 12.184882164001465 C12.520071983337402 12.087055206298828 12.553735733032227 11.989227294921875 12.58739948272705 11.891400337219238 L12.58739948272705 11.891400337219238 C12.582517623901367 11.863964080810547 12.57763671875 11.836527824401855 12.572754859924316 11.809091567993164 L12.572754859924316 11.809091567993164"></path>
<path fill="none" stroke="black" stroke-width=".3" stroke-opacity="1.0"  filling="0" d="M12.583198547363281 11.9535551071167 L12.583198547363281 11.9535551071167 C12.590544700622559 12.016427993774414 12.59788990020752 12.079300880432129 12.605236053466797 12.142173767089844 L12.605236053466797 12.142173767089844 C12.569436073303223 12.128173828125 12.533636093139648 12.11417293548584 12.497836112976074 12.100172996520996 L12.497836112976074 12.100172996520996 C12.526289939880371 12.051300048828125 12.554744720458984 12.00242805480957 12.583198547363281 11.9535551071167 L12.583198547363281 11.9535551071167"></path></svg>