<svg xmlns="http://www.w3.org/2000/svg" viewBox="0.0 0.0 24.0 24.0" height="200px" width="200px"><path fill="none" stroke="black" stroke-width=".3" stroke-opacity="1.0"  filling="0" d="M11.885128021240234 11.90121841430664 L11.885128021240234 11.90121841430664 C11.962173461914062 11.910527229309082 12.03921890258789 11.919836044311523 12.116264343261719 11.929144859313965 L12.116264343261719 11.929144859313965 C12.092791557312012 11.989117622375488 12.069319725036621 12.049089431762695 12.045846939086914 12.109062194824219 L12.045846939086914 12.109062194824219 C12.057610511779785 12.153035163879395 12.069374084472656 12.19700813293457 12.081137657165527 12.240981101989746 L12.081137657165527 12.240981101989746 C12.043083190917969 12.221098899841309 12.005027770996094 12.201217651367188 11.966973304748535 12.18133544921875 L11.966973304748535 12.18133544921875 C11.964546203613281 12.18699836730957 11.962119102478027 12.192662239074707 11.959692001342773 12.198325157165527 L11.959692001342773 12.198325157165527 C11.98222827911377 12.232215881347656 12.004764556884766 12.266107559204102 12.027300834655762 12.29999828338623 L12.027300834655762 12.29999828338623 C11.795586585998535 12.300000190734863 11.871392250061035 12.080876350402832 11.885128021240234 11.90121841430664 L11.885128021240234 11.90121841430664"></path></svg>