<svg xmlns="http://www.w3.org/2000/svg" viewBox="0.0 0.0 24.0 24.0" height="200px" width="200px"><path fill="none" stroke="black" stroke-width=".3" stroke-opacity="1.0"  filling="0" d="M12.076064109802246 11.454407691955566 L12.076064109802246 11.454407691955566 C12.277884483337402 11.45458698272705 12.460153579711914 11.620100021362305 12.58985424041748 11.774725914001465 L12.58985424041748 11.774725914001465 C12.515963554382324 11.774725914001465 12.442072868347168 11.774725914001465 12.368182182312012 11.774725914001465 L12.368182182312012 11.774725914001465 C12.350500106811523 11.743781089782715 12.332818031311035 11.712835311889648 12.315135955810547 11.681890487670898 L12.315135955810547 11.681890487670898 C12.132640838623047 11.600800514221191 11.925451278686523 12.245122909545898 12.31663703918457 12.24539852142334 L12.31663703918457 12.24539852142334 C12.32069206237793 12.206216812133789 12.324746131896973 12.167035102844238 12.328801155090332 12.127853393554688 L12.328801155090332 12.127853393554688 C12.293964385986328 12.112035751342773 12.25912857055664 12.096217155456543 12.224291801452637 12.080399513244629 L12.224291801452637 12.080399513244629 C12.224291801452637 12.010272026062012 12.224291801452637 11.940145492553711 12.224291801452637 11.870018005371094 L12.224291801452637 11.870018005371094 C12.349536895751953 11.881444931030273 12.474782943725586 11.89287281036377 12.600028038024902 11.90429973602295 L12.600028038024902 11.90429973602295 C12.597323417663574 13.098508834838867 11.331327438354492 12.162405967712402 12.076064109802246 11.454407691955566 L12.076064109802246 11.454407691955566"></path></svg>