<svg xmlns="http://www.w3.org/2000/svg" viewBox="0.0 0.0 24.0 24.0" height="200px" width="200px"><path fill="none" stroke="black" stroke-width=".3" stroke-opacity="1.0"  filling="0" d="M12.56623649597168 12.014045715332031 L12.56623649597168 12.014045715332031 C12.58838939666748 12.059439659118652 12.612117767333984 12.106467247009277 12.617318153381348 12.156709671020508 L12.617318153381348 12.156709671020508 C12.63247299194336 12.109673500061035 12.647626876831055 12.062636375427246 12.662781715393066 12.015600204467773 L12.662781715393066 12.015600204467773 C12.719008445739746 12.08145523071289 12.775236129760742 12.147309303283691 12.831462860107422 12.213164329528809 L12.831462860107422 12.213164329528809 C12.705327033996582 12.2112455368042 12.579190254211426 12.209327697753906 12.453054428100586 12.207408905029297 L12.453054428100586 12.207408905029297 C12.450926780700684 12.195809364318848 12.448800086975098 12.184208869934082 12.446672439575195 12.172609329223633 L12.446672439575195 12.172609329223633 C12.47799015045166 12.155354499816895 12.509308815002441 12.138100624084473 12.540626525878906 12.120845794677734 L12.540626525878906 12.120845794677734 C12.540626525878906 12.10351848602295 12.540626525878906 12.086191177368164 12.540626525878906 12.068863868713379 L12.540626525878906 12.068863868713379 C12.51919937133789 12.071581840515137 12.497773170471191 12.074300765991211 12.476346015930176 12.077018737792969 L12.476346015930176 12.077018737792969 C12.506309509277344 12.05602741241455 12.536273002624512 12.03503704071045 12.56623649597168 12.014045715332031 L12.56623649597168 12.014045715332031"></path></svg>