<svg xmlns="http://www.w3.org/2000/svg" viewBox="0.0 0.0 24.0 24.0" height="200px" width="200px"><path fill="none" stroke="black" stroke-width=".3" stroke-opacity="1.0"  filling="0" d="M11.219264030456543 11.782527923583984 L11.219264030456543 11.782527923583984 C11.453248023986816 11.801950454711914 11.573870658874512 11.779167175292969 11.468127250671387 12.016281127929688 L11.468127250671387 12.016281127929688 C11.509318351745605 12.060617446899414 11.550508499145508 12.10495376586914 11.591699600219727 12.149290084838867 L11.591699600219727 12.149290084838867 C11.605508804321289 12.081363677978516 11.619318008422852 12.013436317443848 11.633127212524414 11.945509910583496 L11.633127212524414 11.945509910583496 C11.685054779052734 11.920609474182129 11.736982345581055 11.895709991455078 11.788909912109375 11.870809555053711 L11.788909912109375 11.870809555053711 C11.808036804199219 11.91906452178955 11.827163696289062 11.967318534851074 11.846290588378906 12.015573501586914 L11.846290588378906 12.015573501586914 C11.798235893249512 12.022555351257324 11.750182151794434 12.029536247253418 11.702127456665039 12.036518096923828 L11.702127456665039 12.036518096923828 C11.746373176574707 12.052718162536621 11.790617942810059 12.06891918182373 11.834863662719727 12.085119247436523 L11.834863662719727 12.085119247436523 C11.824336051940918 12.117691993713379 11.813809394836426 12.150264739990234 11.803281784057617 12.18283748626709 L11.803281784057617 12.18283748626709 C11.663743019104004 12.182999610900879 11.516730308532715 12.168611526489258 11.39162826538086 12.10680103302002 L11.39162826538086 12.10680103302002 C11.34420108795166 12.133337020874023 11.296772956848145 12.159873962402344 11.249345779418945 12.186409950256348 L11.249345779418945 12.186409950256348 C11.23931884765625 12.051782608032227 11.229290962219238 11.917155265808105 11.219264030456543 11.782527923583984 L11.219264030456543 11.782527923583984"></path></svg>