<svg xmlns="http://www.w3.org/2000/svg" viewBox="0.0 0.0 24.0 24.0" height="200px" width="200px"><path fill="none" stroke="black" stroke-width=".3" stroke-opacity="1.0"  filling="0" d="M11.836336135864258 11.809091567993164 L11.836336135864258 11.809091567993164 C11.863617897033691 11.809091567993164 11.890900611877441 11.809091567993164 11.918182373046875 11.809091567993164 L11.918182373046875 11.809091567993164 C11.918182373046875 11.849663734436035 11.918182373046875 11.890236854553223 11.918182373046875 11.930809020996094 L11.918182373046875 11.930809020996094 C11.969636917114258 12.01513671875 12.02109146118164 12.09946346282959 12.072546005249023 12.183791160583496 L12.072546005249023 12.183791160583496 C12.047645568847656 12.183791160583496 12.022745132446289 12.183791160583496 11.997844696044922 12.183791160583496 L11.997844696044922 12.183791160583496 C11.997844696044922 12.111655235290527 11.997844696044922 12.039518356323242 11.997844696044922 11.967382431030273 L11.997844696044922 11.967382431030273 C11.957684516906738 12.050765991210938 11.907220840454102 12.133721351623535 11.836336135864258 12.193227767944336 L11.836336135864258 12.193227767944336 C11.836336135864258 12.06518268585205 11.836336135864258 11.93713665008545 11.836336135864258 11.809091567993164 L11.836336135864258 11.809091567993164"></path></svg>