<svg xmlns="http://www.w3.org/2000/svg" viewBox="0.0 0.0 24.0 24.0" height="200px" width="200px"><path fill="none" stroke="black" stroke-width=".3" stroke-opacity="1.0"  filling="0" d="M13.921772956848145 12.084762573242188 L13.921772956848145 12.084762573242188 C13.953900337219238 12.120153427124023 13.986026763916016 12.15554428100586 14.01815414428711 12.190935134887695 L14.01815414428711 12.190935134887695 C14.01815414428711 12.227298736572266 14.01815414428711 12.263662338256836 14.01815414428711 12.300025939941406 L14.01815414428711 12.300025939941406 C13.945436477661133 12.300017356872559 13.87271785736084 12.300007820129395 13.800000190734863 12.299999237060547 L13.800000190734863 12.299999237060547 C13.781336784362793 12.231335639953613 13.762672424316406 12.16267204284668 13.744009017944336 12.094008445739746 L13.744009017944336 12.094008445739746 C13.798227310180664 12.131881713867188 13.852445602416992 12.169754028320312 13.90666389465332 12.207627296447754 L13.90666389465332 12.207627296447754 C13.903936386108398 12.170981407165527 13.901209831237793 12.1343355178833 13.898482322692871 12.097689628601074 L13.898482322692871 12.097689628601074 C13.906246185302734 12.09338092803955 13.914009094238281 12.089071273803711 13.921772956848145 12.084762573242188 L13.921772956848145 12.084762573242188"></path></svg>