<svg xmlns="http://www.w3.org/2000/svg" viewBox="0.0 0.0 24.0 24.0" height="200px" width="200px"><path fill="none" stroke="black" stroke-width=".3" stroke-opacity="1.0"  filling="0" d="M11.919981956481934 11.869909286499023 L11.919981956481934 11.869909286499023 C12.021188735961914 11.951799392700195 12.025734901428223 12.115275382995605 12.02724552154541 12.245454788208008 L12.02724552154541 12.245454788208008 C11.936345100402832 12.245454788208008 11.84544563293457 12.245454788208008 11.754545211791992 12.245454788208008 L11.754545211791992 12.245454788208008 C11.813063621520996 12.150945663452148 11.87158203125 12.056436538696289 11.930100440979004 11.96192741394043 L11.930100440979004 11.96192741394043 C11.926727294921875 11.931254386901855 11.923355102539062 11.900582313537598 11.919981956481934 11.869909286499023 L11.919981956481934 11.869909286499023"></path>
<path fill="none" stroke="black" stroke-width=".3" stroke-opacity="1.0"  filling="0" d="M11.857336044311523 12.020727157592773 L11.857336044311523 12.020727157592773 C11.909374237060547 12.051745414733887 11.926669120788574 12.130927085876465 11.920390129089355 12.191182136535645 L11.920390129089355 12.191182136535645 C11.900854110717773 12.191445350646973 11.881318092346191 12.191709518432617 11.86178207397461 12.191972732543945 L11.86178207397461 12.191972732543945 C11.851563453674316 12.14159107208252 11.841344833374023 12.091209411621094 11.83112621307373 12.040827751159668 L11.83112621307373 12.040827751159668 C11.839862823486328 12.034127235412598 11.848599433898926 12.027427673339844 11.857336044311523 12.020727157592773 L11.857336044311523 12.020727157592773"></path></svg>