<svg xmlns="http://www.w3.org/2000/svg" viewBox="0.0 0.0 24.0 24.0" height="200px" width="200px"><path fill="none" stroke="black" stroke-width=".3" stroke-opacity="1.0"  filling="0" d="M12.772199630737305 11.890800476074219 L12.772199630737305 11.890800476074219 C12.854690551757812 11.890809059143066 12.93718147277832 11.89081859588623 13.019672393798828 11.890827178955078 L13.019672393798828 11.890827178955078 C13.013981819152832 11.974390983581543 13.008291244506836 12.057953834533691 13.00260066986084 12.141517639160156 L13.00260066986084 12.141517639160156 C12.966654777526855 12.144999504089355 12.930709838867188 12.148481369018555 12.894763946533203 12.151963233947754 L12.894763946533203 12.151963233947754 C12.912110328674316 12.089789390563965 12.9207181930542 12.022226333618164 12.908644676208496 11.958817481994629 L12.908644676208496 11.958817481994629 C12.897990226745605 11.957972526550293 12.887335777282715 11.95712661743164 12.876681327819824 11.956281661987305 L12.876681327819824 11.956281661987305 C12.861090660095215 12.02442741394043 12.845499992370605 12.092572212219238 12.829909324645996 12.160717964172363 L12.829909324645996 12.160717964172363 C12.810672760009766 12.159564018249512 12.791436195373535 12.158409118652344 12.772199630737305 12.157255172729492 L12.772199630737305 12.157255172729492 C12.772199630737305 12.068436622619629 12.772199630737305 11.979619026184082 12.772199630737305 11.890800476074219 L12.772199630737305 11.890800476074219"></path></svg>