<svg xmlns="http://www.w3.org/2000/svg" viewBox="0.0 0.0 24.0 24.0" height="200px" width="200px"><path fill="none" stroke="black" stroke-width=".3" stroke-opacity="1.0"  filling="0" d="M11.219536781311035 11.5472993850708 L11.219536781311035 11.5472993850708 C11.44223690032959 11.547308921813965 11.664936065673828 11.547317504882812 11.887636184692383 11.547327041625977 L11.887636184692383 11.547327041625977 C11.887636184692383 11.623700141906738 11.887636184692383 11.700072288513184 11.887636184692383 11.776445388793945 L11.887636184692383 11.776445388793945 C11.755064010620117 11.776445388793945 11.622490882873535 11.776445388793945 11.48991870880127 11.776445388793945 L11.48991870880127 11.776445388793945 C11.48991870880127 11.832799911499023 11.48991870880127 11.889155387878418 11.48991870880127 11.945509910583496 L11.48991870880127 11.945509910583496 C12.202205657958984 11.943697929382324 11.67914867401123 12.12096118927002 11.49455451965332 12.350781440734863 L11.49455451965332 12.350781440734863 C11.623254776000977 12.350781440734863 11.751954078674316 12.350781440734863 11.880654335021973 12.350781440734863 L11.880654335021973 12.350781440734863 C11.880654335021973 12.425090789794922 11.880654335021973 12.49940013885498 11.880654335021973 12.573709487915039 L11.880654335021973 12.573709487915039 C11.660282135009766 12.573709487915039 11.439908981323242 12.573709487915039 11.219536781311035 12.573709487915039 L11.219536781311035 12.573709487915039 C11.219536781311035 12.231573104858398 11.219536781311035 11.889435768127441 11.219536781311035 11.5472993850708 L11.219536781311035 11.5472993850708"></path></svg>