<svg xmlns="http://www.w3.org/2000/svg" viewBox="0.0 0.0 24.0 24.0" height="200px" width="200px"><path fill="none" stroke="black" stroke-width=".3" stroke-opacity="1.0"  filling="0" d="M12.277336120605469 11.99754524230957 L12.277336120605469 11.99754524230957 C12.284890174865723 12.080190658569336 12.292445182800293 12.162836074829102 12.299999237060547 12.245481491088867 L12.299999237060547 12.245481491088867 C12.272726058959961 12.245481491088867 12.245453834533691 12.245481491088867 12.218180656433105 12.245481491088867 L12.218180656433105 12.245481491088867 C12.204553604125977 12.173827171325684 12.190926551818848 12.1021728515625 12.177299499511719 12.030518531799316 L12.177299499511719 12.030518531799316 C12.163654327392578 12.1021728515625 12.150008201599121 12.173827171325684 12.13636302947998 12.245481491088867 L12.13636302947998 12.245481491088867 C12.109090805053711 12.24547290802002 12.081817626953125 12.245463371276855 12.054545402526855 12.245454788208008 L12.054545402526855 12.245454788208008 C12.060954093933105 12.170609474182129 12.067363739013672 12.095763206481934 12.073772430419922 12.020917892456055 L12.073772430419922 12.020917892456055 C12.141627311706543 12.013127326965332 12.209481239318848 12.005335807800293 12.277336120605469 11.99754524230957 L12.277336120605469 11.99754524230957"></path></svg>