<svg xmlns="http://www.w3.org/2000/svg" viewBox="0.0 0.0 24.0 24.0" height="200px" width="200px"><path fill="none" stroke="black" stroke-width=".3" stroke-opacity="1.0"  filling="0" d="M12.76050090789795 12.004117965698242 L12.76050090789795 12.004117965698242 C12.830528259277344 12.082663536071777 12.900555610656738 12.161210060119629 12.970582962036133 12.239755630493164 L12.970582962036133 12.239755630493164 C12.9449462890625 12.239755630493164 12.919309616088867 12.239755630493164 12.893672943115234 12.239755630493164 L12.893672943115234 12.239755630493164 C12.871082305908203 12.17660140991211 12.848491668701172 12.113446235656738 12.82590103149414 12.050292015075684 L12.82590103149414 12.050292015075684 C12.821610450744629 12.111618995666504 12.817319869995117 12.172945976257324 12.813029289245605 12.234272956848145 L12.813029289245605 12.234272956848145 C12.779692649841309 12.243435859680176 12.746355056762695 12.252599716186523 12.713018417358398 12.261762619018555 L12.713018417358398 12.261762619018555 C12.723773002624512 12.180217742919922 12.734527587890625 12.098671913146973 12.745282173156738 12.01712703704834 L12.745282173156738 12.01712703704834 C12.750354766845703 12.01279067993164 12.755428314208984 12.008454322814941 12.76050090789795 12.004117965698242 L12.76050090789795 12.004117965698242"></path></svg>