<svg xmlns="http://www.w3.org/2000/svg" viewBox="0.0 0.0 24.0 24.0" height="200px" width="200px"><path fill="none" stroke="black" stroke-width=".3" stroke-opacity="1.0"  filling="0" d="M12.460773468017578 11.837509155273438 L12.460773468017578 11.837509155273438 C12.49850082397461 11.910663604736328 12.536227226257324 11.983818054199219 12.573954582214355 12.05697250366211 L12.571473121643066 12.052090644836426 C12.569798469543457 12.107537269592285 12.573896408081055 12.168598175048828 12.546000480651855 12.216546058654785 L12.546000480651855 12.216546058654785 C12.523100852966309 12.203691482543945 12.500200271606445 12.190836906433105 12.477300643920898 12.177982330322266 L12.477300643920898 12.177982330322266 C12.469191551208496 12.118182182312012 12.461082458496094 12.058382034301758 12.452973365783691 11.998581886291504 L12.452973365783691 11.998581886291504 C12.440672874450684 11.999018669128418 12.428373336791992 11.999454498291016 12.416072845458984 11.99989128112793 L12.416072845458984 11.99989128112793 C12.404806137084961 12.08619213104248 12.366222381591797 12.167595863342285 12.327272415161133 12.245427131652832 L12.327272415161133 12.245427131652832 C12.318181037902832 12.245436668395996 12.309090614318848 12.245445251464844 12.299999237060547 12.245454788208008 L12.299999237060547 12.245454788208008 C12.299999237060547 12.139909744262695 12.299999237060547 12.034363746643066 12.299999237060547 11.928818702697754 L12.299999237060547 11.928818702697754 C12.335708618164062 11.923909187316895 12.371417999267578 11.919000625610352 12.407127380371094 11.914091110229492 L12.407127380371094 11.914091110229492 C12.425009727478027 11.888564109802246 12.442891120910645 11.863036155700684 12.460773468017578 11.837509155273438 L12.460773468017578 11.837509155273438"></path></svg>