<svg xmlns="http://www.w3.org/2000/svg" viewBox="0.0 0.0 24.0 24.0" height="200px" width="200px"><path fill="none" stroke="black" stroke-width=".3" stroke-opacity="1.0"  filling="0" d="M11.37799072265625 11.969646453857422 L11.37799072265625 11.969646453857422 C11.379091262817383 11.974664688110352 11.3801908493042 11.979682922363281 11.381291389465332 11.984701156616211 L11.381291389465332 11.984701156616211 C11.359200477600098 11.996783256530762 11.337108612060547 12.008864402770996 11.315017700195312 12.020946502685547 L11.315017700195312 12.020946502685547 C11.347341537475586 12.076658248901367 11.287278175354004 12.189051628112793 11.222891807556152 12.190800666809082 L11.222891807556152 12.190800666809082 C11.273309707641602 12.184645652770996 11.32372760772705 12.178491592407227 11.3741455078125 12.17233657836914 L11.3741455078125 12.17233657836914 C11.326272964477539 12.126664161682129 11.278400421142578 12.080991744995117 11.230527877807617 12.035319328308105 L11.230527877807617 12.035319328308105 C11.23261833190918 12.022464752197266 11.234708786010742 12.00960922241211 11.236799240112305 11.99675464630127 L11.236799240112305 11.99675464630127 C11.283863067626953 11.98771858215332 11.330926895141602 11.978682518005371 11.37799072265625 11.969646453857422 L11.37799072265625 11.969646453857422"></path></svg>