<svg xmlns="http://www.w3.org/2000/svg" viewBox="0.0 0.0 24.0 24.0" height="200px" width="200px"><path fill="none" stroke="black" stroke-width=".3" stroke-opacity="1.0"  filling="0" d="M10.254545211791992 11.972726821899414 L10.254545211791992 11.972726821899414 C10.307772636413574 11.972726821899414 10.361000061035156 11.972726821899414 10.414227485656738 11.972726821899414 L10.414227485656738 11.972726821899414 C10.433727264404297 12.06363582611084 10.453227043151855 12.154545783996582 10.472726821899414 12.245454788208008 L10.472726821899414 12.245454788208008 C10.436363220214844 12.245454788208008 10.399999618530273 12.245454788208008 10.363636016845703 12.245454788208008 L10.363636016845703 12.245454788208008 C10.363636016845703 12.173954963684082 10.363636016845703 12.10245418548584 10.363636016845703 12.030954360961914 L10.363636016845703 12.030954360961914 C10.348727226257324 12.029191017150879 10.333817481994629 12.027427673339844 10.31890869140625 12.025664329528809 L10.31890869140625 12.025664329528809 C10.295659065246582 12.096232414245605 10.282780647277832 12.171161651611328 10.281818389892578 12.245454788208008 L10.281818389892578 12.245454788208008 C10.232773780822754 12.16837215423584 10.25502872467041 12.064087867736816 10.254545211791992 11.972726821899414 L10.254545211791992 11.972726821899414"></path></svg>