<svg xmlns="http://www.w3.org/2000/svg" viewBox="0.0 0.0 24.0 24.0" height="200px" width="200px"><path fill="none" stroke="black" stroke-width=".3" stroke-opacity="1.0"  filling="0" d="M11.744454383850098 11.927181243896484 L11.744454383850098 11.927181243896484 C12.020174026489258 11.967920303344727 12.135866165161133 11.926541328430176 12.136363983154297 12.245508193969727 L12.136363983154297 12.245508193969727 C12.100000381469727 12.245508193969727 12.063636779785156 12.245508193969727 12.027273178100586 12.245508193969727 L12.027273178100586 12.245508193969727 C12.045928001403809 12.163586616516113 12.02021312713623 12.073715209960938 11.986445426940918 11.996781349182129 L11.986445426940918 11.996781349182129 C11.980722427368164 12.08061408996582 11.977763175964355 12.167941093444824 11.945453643798828 12.245509147644043 L11.945453643798828 12.245509147644043 C11.927271842956543 12.245509147644043 11.909090042114258 12.245509147644043 11.890908241271973 12.245509147644043 L11.890908241271973 12.245509147644043 C11.890908241271973 12.173500061035156 11.890908241271973 12.101491928100586 11.890908241271973 12.0294828414917 L11.890908241271973 12.0294828414917 C11.821053504943848 12.053664207458496 11.751199722290039 12.07784652709961 11.681344985961914 12.102027893066406 L11.681344985961914 12.102027893066406 C11.703472137451172 12.122945785522461 11.72559928894043 12.143863677978516 11.747726440429688 12.16478157043457 L11.747726440429688 12.16478157043457 C11.790907859802246 12.141454696655273 11.834090232849121 12.11812686920166 11.87727165222168 12.094799995422363 L11.87727165222168 12.094799995422363 C11.845444679260254 12.145036697387695 11.813616752624512 12.195272445678711 11.781789779663086 12.245509147644043 L11.781789779663086 12.245509147644043 C11.718153953552246 12.245509147644043 11.65451717376709 12.245509147644043 11.59088134765625 12.245509147644043 L11.59088134765625 12.245509147644043 C11.589677810668945 12.127702713012695 11.673748970031738 12.021417617797852 11.744454383850098 11.927181243896484 L11.744454383850098 11.927181243896484"></path></svg>