<svg xmlns="http://www.w3.org/2000/svg" viewBox="0.0 0.0 24.0 24.0" height="200px" width="200px"><path fill="none" stroke="black" stroke-width=".3" stroke-opacity="1.0"  filling="0" d="M11.22856330871582 11.868572235107422 L11.22856330871582 11.868572235107422 C11.233118057250977 11.906908988952637 11.237672805786133 11.945245742797852 11.242227554321289 11.983582496643066 L11.242227554321289 11.983582496643066 C11.415180206298828 12.015522956848145 11.397788047790527 12.07977294921875 11.40002727508545 12.245481491088867 L11.40002727508545 12.245481491088867 C11.363663673400879 12.245481491088867 11.327300071716309 12.245481491088867 11.290936470031738 12.245481491088867 L11.290936470031738 12.245481491088867 C11.272754669189453 12.18239974975586 11.254572868347168 12.119318008422852 11.236391067504883 12.056236267089844 L11.236391067504883 12.056236267089844 C11.236391067504883 12.119318008422852 11.236391067504883 12.18239974975586 11.236391067504883 12.245481491088867 L11.236391067504883 12.245481491088867 C11.200017929077148 12.24547290802002 11.16364574432373 12.245463371276855 11.127272605895996 12.245454788208008 L11.127272605895996 12.245454788208008 C11.132238388061523 12.115464210510254 11.142407417297363 11.966036796569824 11.22856330871582 11.868572235107422 L11.22856330871582 11.868572235107422"></path></svg>