<svg xmlns="http://www.w3.org/2000/svg" viewBox="0.0 0.0 24.0 24.0" height="200px" width="200px"><path fill="none" stroke="black" stroke-width=".3" stroke-opacity="1.0"  filling="0" d="M11.990208625793457 11.863473892211914 L11.990208625793457 11.863473892211914 C11.990208625793457 11.902382850646973 11.990208625793457 11.941291809082031 11.990208625793457 11.98020076751709 L11.990208625793457 11.98020076751709 C11.943026542663574 11.95940113067627 11.895845413208008 11.938600540161133 11.848663330078125 11.917800903320312 L11.848663330078125 11.917800903320312 C11.843308448791504 11.928282737731934 11.8379545211792 11.938764572143555 11.832599639892578 11.949246406555176 L11.832599639892578 11.949246406555176 C12.031341552734375 12.103644371032715 12.046419143676758 12.259480476379395 11.759673118591309 12.254510879516602 L11.759673118591309 12.254510879516602 C11.759673118591309 12.211974143981934 11.759672164916992 12.169437408447266 11.759672164916992 12.126900672912598 L11.759672164916992 12.126900672912598 C11.818427085876465 12.140182495117188 11.877181053161621 12.153464317321777 11.935935974121094 12.166746139526367 L11.935935974121094 12.166746139526367 C11.739850997924805 12.01166820526123 11.695590019226074 11.86436939239502 11.990208625793457 11.863473892211914 L11.990208625793457 11.863473892211914"></path></svg>