<svg xmlns="http://www.w3.org/2000/svg" viewBox="0.0 0.0 24.0 24.0" height="200px" width="200px"><path fill="none" stroke="black" stroke-width=".3" stroke-opacity="1.0"  filling="0" d="M25.627063751220703 12.92934513092041 L25.627063751220703 12.92934513092041 C26.00700569152832 12.997719764709473 26.405845642089844 13.086396217346191 26.72116470336914 13.30911922454834 L26.72116470336914 13.30911922454834 C25.993213653564453 13.30762767791748 25.038345336914062 14.152056694030762 26.21465301513672 14.31973648071289 C26.796123504638672 14.402624130249023 30.143924713134766 13.995000839233398 28.498661041259766 15.585845947265625 C27.24373435974121 16.799264907836914 24.214330673217773 16.3571834564209 22.70803451538086 16.418237686157227 C20.796072006225586 16.49573516845703 19.057327270507812 16.66837501525879 17.360597610473633 17.025192260742188 C15.663867950439453 17.382009506225586 14.009154319763184 17.923004150390625 12.265253067016602 18.73720932006836 L12.265253067016602 18.73720932006836 C11.19140338897705 17.071285247802734 9.433857917785645 17.10797691345215 7.670971393585205 17.10041046142578 L7.670971393585205 17.10041046142578 C9.81473159790039 16.325794219970703 12.086511611938477 15.981696128845215 14.381516456604004 15.843084335327148 C16.67652130126953 15.704471588134766 18.9947509765625 15.771345138549805 21.23141098022461 15.818670272827148 C22.958410263061523 15.855212211608887 26.11305809020996 16.590057373046875 27.552818298339844 15.335044860839844 C27.91946792602539 15.01544189453125 27.211692810058594 14.690112113952637 26.978891372680664 14.701744079589844 C26.704116821289062 14.715473175048828 24.570819854736328 15.165346145629883 24.336246490478516 14.563226699829102 C23.895841598510742 13.432764053344727 24.662675857543945 12.999542236328125 25.627063751220703 12.92934513092041 L25.627063751220703 12.92934513092041"></path></svg>