<svg xmlns="http://www.w3.org/2000/svg" viewBox="0.0 0.0 24.0 24.0" height="200px" width="200px"><path fill="none" stroke="black" stroke-width=".3" stroke-opacity="1.0"  filling="0" d="M11.475544929504395 11.826708793640137 L11.475544929504395 11.826708793640137 C11.482444763183594 11.87528133392334 11.48934555053711 11.92385482788086 11.496245384216309 11.972427368164062 L11.496245384216309 11.972427368164062 C11.537381172180176 11.963526725769043 11.57851791381836 11.95462703704834 11.619653701782227 11.94572639465332 L11.619653701782227 11.94572639465332 C11.62824535369873 12.045635223388672 11.636836051940918 12.14554500579834 11.645427703857422 12.245453834533691 L11.645427703857422 12.245453834533691 C11.618154525756836 12.245453834533691 11.590882301330566 12.245453834533691 11.56360912322998 12.245453834533691 L11.56360912322998 12.245453834533691 C11.560291290283203 12.173944473266602 11.55697250366211 12.102436065673828 11.553654670715332 12.030926704406738 L11.553654670715332 12.030926704406738 C11.543190956115723 12.028399467468262 11.532727241516113 12.025871276855469 11.522263526916504 12.023344039916992 L11.522263526916504 12.023344039916992 C11.496950149536133 12.09421443939209 11.482980728149414 12.170207977294922 11.481790542602539 12.245453834533691 L11.481790542602539 12.245453834533691 C11.454526901245117 12.245453834533691 11.427263259887695 12.245454788208008 11.399999618530273 12.245454788208008 L11.399999618530273 12.245454788208008 C11.399999618530273 12.118645668029785 11.399999618530273 11.991835594177246 11.399999618530273 11.865026473999023 L11.399999618530273 11.865026473999023 C11.42518138885498 11.852253913879395 11.450363159179688 11.839481353759766 11.475544929504395 11.826708793640137 L11.475544929504395 11.826708793640137"></path></svg>