<svg xmlns="http://www.w3.org/2000/svg" viewBox="0.0 0.0 24.0 24.0" height="200px" width="200px"><path fill="none" stroke="black" stroke-width=".3" stroke-opacity="1.0"  filling="0" d="M11.812009811401367 11.955299377441406 L11.812009811401367 11.955299377441406 C11.782163619995117 12.02906322479248 11.752318382263184 12.102828025817871 11.722472190856934 12.176591873168945 L11.722472190856934 12.176591873168945 C11.761518478393555 12.172127723693848 11.80056381225586 12.167664527893066 11.83961009979248 12.163200378417969 L11.83961009979248 12.163200378417969 C11.829437255859375 12.1906099319458 11.81926441192627 12.218018531799316 11.809091567993164 12.245428085327148 L11.809091567993164 12.245428085327148 C11.745455741882324 12.245428085327148 11.681818962097168 12.245428085327148 11.618183135986328 12.245428085327148 L11.618183135986328 12.245428085327148 C11.625682830810547 12.178182601928711 11.633182525634766 12.110937118530273 11.640682220458984 12.043691635131836 L11.640682220458984 12.043691635131836 C11.578218460083008 12.076555252075195 11.515755653381348 12.109418869018555 11.453291893005371 12.142282485961914 L11.453291893005371 12.142282485961914 C11.498746871948242 12.153718948364258 11.544200897216797 12.165155410766602 11.589655876159668 12.176591873168945 L11.589655876159668 12.176591873168945 C11.562800407409668 12.199545860290527 11.535945892333984 12.222500801086426 11.509090423583984 12.245454788208008 L11.509090423583984 12.245454788208008 C11.5 12.245454788208008 11.4909086227417 12.245454788208008 11.481818199157715 12.245454788208008 L11.481818199157715 12.245454788208008 C11.369132995605469 12.05168628692627 11.441020965576172 11.885605812072754 11.653172492980957 12.038918495178223 L11.653172492980957 12.038918495178223 C11.7061185836792 12.011045455932617 11.759063720703125 11.983172416687012 11.812009811401367 11.955299377441406 L11.812009811401367 11.955299377441406"></path></svg>