<svg xmlns="http://www.w3.org/2000/svg" viewBox="0.0 0.0 24.0 24.0" height="200px" width="200px"><path fill="none" stroke="black" stroke-width=".3" stroke-opacity="1.0"  filling="0" d="M10.268781661987305 11.92930793762207 L10.268781661987305 11.92930793762207 C10.283127784729004 11.9571533203125 10.297472953796387 11.98499870300293 10.311819076538086 12.01284408569336 L10.311819076538086 12.01284408569336 C10.302145957946777 12.018381118774414 10.292472839355469 12.023917198181152 10.28279972076416 12.029454231262207 L10.28279972076416 12.029454231262207 C10.255563735961914 11.997499465942383 10.228326797485352 11.965544700622559 10.201090812683105 11.933589935302734 L10.201090812683105 11.933589935302734 C10.18989086151123 11.989453315734863 10.178690910339355 12.045317649841309 10.16749095916748 12.101181030273438 L10.16749095916748 12.101181030273438 C10.22021770477295 12.110462188720703 10.272945404052734 12.119744300842285 10.325672149658203 12.12902545928955 L10.325672149658203 12.12902545928955 C10.274935722351074 12.153853416442871 10.224200248718262 12.178680419921875 10.173463821411133 12.203508377075195 L10.173463821411133 12.203508377075195 C10.154046058654785 12.108711242675781 10.174945831298828 11.952935218811035 10.268781661987305 11.92930793762207 L10.268781661987305 11.92930793762207"></path></svg>