<svg xmlns="http://www.w3.org/2000/svg" viewBox="0.0 0.0 24.0 24.0" height="200px" width="200px"><path fill="none" stroke="black" stroke-width=".3" stroke-opacity="1.0"  filling="0" d="M12.03809928894043 11.934026718139648 L12.03809928894043 11.934026718139648 C12.113181114196777 11.951208114624023 12.188262939453125 11.968390464782715 12.263344764709473 11.98557186126709 L12.263344764709473 11.98557186126709 C12.272590637207031 12.060535430908203 12.281835556030273 12.135499000549316 12.291081428527832 12.21046257019043 L12.291081428527832 12.21046257019043 C12.259427070617676 12.21046257019043 12.22777271270752 12.21046257019043 12.196118354797363 12.21046257019043 L12.196118354797363 12.21046257019043 C12.192917823791504 12.144608497619629 12.189718246459961 12.078753471374512 12.186517715454102 12.012899398803711 L12.186517715454102 12.012899398803711 C12.141963005065918 12.021662712097168 12.09740924835205 12.030426979064941 12.052854537963867 12.039190292358398 L12.052854537963867 12.039190292358398 C12.058926582336426 12.09626293182373 12.0649995803833 12.153335571289062 12.07107162475586 12.210408210754395 L12.07107162475586 12.210408210754395 C12.03564453125 12.20729923248291 12.00021743774414 12.20418930053711 11.964790344238281 12.201080322265625 L11.964790344238281 12.201080322265625 C11.989226341247559 12.112062454223633 12.013663291931152 12.02304458618164 12.03809928894043 11.934026718139648 L12.03809928894043 11.934026718139648"></path></svg>