<svg xmlns="http://www.w3.org/2000/svg" viewBox="0.0 0.0 24.0 24.0" height="200px" width="200px"><path fill="none" stroke="black" stroke-width=".3" stroke-opacity="1.0"  filling="0" d="M12.67524528503418 11.839200973510742 L12.67524528503418 11.839200973510742 C12.681063652038574 11.966700553894043 12.686882972717285 12.094200134277344 12.69270133972168 12.221699714660645 L12.69270133972168 12.221699714660645 C12.612137794494629 12.213273048400879 12.531573295593262 12.204845428466797 12.451009750366211 12.196418762207031 L12.451009750366211 12.196418762207031 C12.47696590423584 12.114874839782715 12.489978790283203 11.937165260314941 12.569536209106445 11.968690872192383 L12.569536209106445 11.968690872192383 C12.562217712402344 12.036227226257324 12.554900169372559 12.10376262664795 12.547581672668457 12.17129898071289 L12.547581672668457 12.17129898071289 C12.574372291564941 12.155208587646484 12.601163864135742 12.139117240905762 12.627954483032227 12.123026847839355 L12.627954483032227 12.123026847839355 C12.607181549072266 12.070318222045898 12.586409568786621 12.017608642578125 12.56563663482666 11.964900016784668 L12.56563663482666 11.964900016784668 C12.579426765441895 11.92442798614502 12.593217849731445 11.883955001831055 12.60700798034668 11.843482971191406 L12.60700798034668 11.843482971191406 C12.629754066467285 11.842055320739746 12.652499198913574 11.840628623962402 12.67524528503418 11.839200973510742 L12.67524528503418 11.839200973510742"></path></svg>