<svg xmlns="http://www.w3.org/2000/svg" viewBox="0.0 0.0 24.0 24.0" height="200px" width="200px"><path fill="none" stroke="black" stroke-width=".3" stroke-opacity="1.0"  filling="0" d="M11.618183135986328 11.809117317199707 L11.618183135986328 11.809117317199707 C11.636364936828613 11.809117317199707 11.654546737670898 11.809117317199707 11.672728538513184 11.809117317199707 L11.672728538513184 11.809117317199707 C11.682809829711914 11.841317176818848 11.692892074584961 11.873517990112305 11.702973365783691 11.905717849731445 L11.702973365783691 11.905717849731445 C11.801152229309082 11.977582931518555 11.847168922424316 12.12429141998291 11.83636474609375 12.24548053741455 L11.83636474609375 12.24548053741455 C11.690910339355469 12.24548053741455 11.545454978942871 12.24548053741455 11.40000057220459 12.24548053741455 L11.40000057220459 12.24548053741455 C11.372237205505371 12.217516899108887 11.344473838806152 12.189554214477539 11.316710472106934 12.161590576171875 L11.320691108703613 12.166391372680664 C11.354660034179688 12.070881843566895 11.462629318237305 11.80171012878418 11.557854652404785 12.029455184936523 L11.557854652404785 12.029455184936523 C11.549518585205078 12.034363746643066 11.541181564331055 12.039273262023926 11.532845497131348 12.044181823730469 L11.532845497131348 12.044181823730469 C11.488308906555176 12.02214527130127 11.44377326965332 12.000109672546387 11.399236679077148 11.978073120117188 L11.399236679077148 11.978073120117188 C11.533174514770508 12.326987266540527 11.615792274475098 11.995340347290039 11.618183135986328 11.809117317199707 L11.618183135986328 11.809117317199707"></path>
<path fill="none" stroke="black" stroke-width=".3" stroke-opacity="1.0"  filling="0" d="M11.76070785522461 11.985218048095703 L11.76070785522461 11.985218048095703 C11.769689559936523 12.051344871520996 11.778672218322754 12.117472648620605 11.787653923034668 12.183599472045898 L11.787653923034668 12.183599472045898 C11.778672218322754 12.117472648620605 11.769689559936523 12.051344871520996 11.76070785522461 11.985218048095703 L11.76070785522461 11.985218048095703"></path></svg>