<svg xmlns="http://www.w3.org/2000/svg" viewBox="0.0 0.0 24.0 24.0" height="200px" width="200px"><path fill="none" stroke="black" stroke-width=".3" stroke-opacity="1.0"  filling="0" d="M12.545454978942871 11.809091567993164 L12.545454978942871 11.809091567993164 C12.540990829467773 11.948837280273438 12.536527633666992 12.088582038879395 12.532063484191895 12.228327751159668 L12.532063484191895 12.228327751159668 C12.483954429626465 12.209291458129883 12.435845375061035 12.190255165100098 12.387736320495605 12.171218872070312 L12.387736320495605 12.171218872070312 C12.376672744750977 12.19597339630127 12.365609169006348 12.22072696685791 12.354545593261719 12.245481491088867 L12.354545593261719 12.245481491088867 C12.300000190734863 12.245481491088867 12.245453834533691 12.245481491088867 12.190908432006836 12.245481491088867 L12.190908432006836 12.245481491088867 C12.102375984191895 11.970041275024414 12.19507122039795 11.86513614654541 12.450599670410156 12.016636848449707 L12.450599670410156 12.016636848449707 C12.445844650268555 11.947473526000977 12.44109058380127 11.87830924987793 12.436335563659668 11.8091459274292 L12.436335563659668 11.8091459274292 C12.472708702087402 11.809127807617188 12.509081840515137 11.809109687805176 12.545454978942871 11.809091567993164 L12.545454978942871 11.809091567993164"></path></svg>