<svg xmlns="http://www.w3.org/2000/svg" viewBox="0.0 0.0 24.0 24.0" height="200px" width="200px"><path fill="none" stroke="black" stroke-width=".3" stroke-opacity="1.0"  filling="0" d="M13.145455360412598 11.809118270874023 L13.145455360412598 11.809118270874023 C13.19052791595459 11.809118270874023 13.235601425170898 11.809118270874023 13.28067398071289 11.809118270874023 L13.28067398071289 11.809118270874023 C13.28067398071289 11.954572677612305 13.28067398071289 12.100027084350586 13.28067398071289 12.245481491088867 L13.28067398071289 12.245481491088867 C13.208328247070312 12.24547290802002 13.135981559753418 12.245463371276855 13.06363582611084 12.245454788208008 L13.06363582611084 12.245454788208008 C13.001484870910645 12.1588773727417 12.941085815429688 12.071056365966797 12.879927635192871 11.983774185180664 L12.879927635192871 11.983774185180664 C12.918227195739746 11.964373588562012 12.956527709960938 11.944973945617676 12.994827270507812 11.925573348999023 L12.994827270507812 11.925573348999023 C13.031045913696289 11.94340991973877 13.06726360321045 11.961246490478516 13.103482246398926 11.979083061218262 L13.103482246398926 11.979083061218262 C13.054109573364258 12.024091720581055 13.00473690032959 12.069100379943848 12.955364227294922 12.11410903930664 L12.955364227294922 12.11410903930664 C13.022136688232422 12.11410903930664 13.088910102844238 12.11410903930664 13.155682563781738 12.11410903930664 L13.155682563781738 12.11410903930664 C13.152273178100586 12.012445449829102 13.14886474609375 11.910781860351562 13.145455360412598 11.809118270874023 L13.145455360412598 11.809118270874023"></path></svg>