<svg xmlns="http://www.w3.org/2000/svg" viewBox="0.0 0.0 24.0 24.0" height="200px" width="200px"><path fill="none" stroke="black" stroke-width=".3" stroke-opacity="1.0"  filling="0" d="M11.70090103149414 11.863527297973633 L11.70090103149414 11.863527297973633 C11.748319625854492 11.868754386901855 11.795737266540527 11.873982429504395 11.843155860900879 11.879209518432617 L11.843155860900879 11.879209518432617 C11.775712966918945 11.980299949645996 11.71286678314209 12.085195541381836 11.66179084777832 12.195463180541992 L11.66179084777832 12.195463180541992 C11.670417785644531 12.204208374023438 11.679045677185059 12.2129545211792 11.68767261505127 12.221699714660645 L11.68767261505127 12.221699714660645 C11.743491172790527 12.207627296447754 11.799309730529785 12.193553924560547 11.855128288269043 12.179481506347656 L11.855128288269043 12.179481506347656 C11.857955932617188 12.20146369934082 11.860782623291016 12.223444938659668 11.86361026763916 12.245427131652832 L11.86361026763916 12.245427131652832 C11.754528045654297 12.245436668395996 11.645445823669434 12.245445251464844 11.53636360168457 12.245454788208008 L11.53636360168457 12.245454788208008 C11.595449447631836 12.120057106018066 11.648247718811035 11.991759300231934 11.70090103149414 11.863527297973633 L11.70090103149414 11.863527297973633"></path></svg>