<svg xmlns="http://www.w3.org/2000/svg" viewBox="0.0 0.0 24.0 24.0" height="200px" width="200px"><path fill="none" stroke="black" stroke-width=".3" stroke-opacity="1.0"  filling="0" d="M11.715682029724121 11.899662971496582 L11.715682029724121 11.899662971496582 C11.771282196044922 11.919499397277832 11.826882362365723 11.939335823059082 11.882482528686523 11.959172248840332 L11.882482528686523 11.959172248840332 C11.832193374633789 11.963719367980957 11.770214080810547 11.989501953125 11.752364158630371 12.036735534667969 L11.752364158630371 12.036735534667969 C11.794736862182617 12.050317764282227 11.837109565734863 12.063899040222168 11.87948226928711 12.077481269836426 L11.87948226928711 12.077481269836426 C11.879127502441406 12.085390090942383 11.87877368927002 12.09329891204834 11.878418922424316 12.101207733154297 L11.878418922424316 12.101207733154297 C11.837127685546875 12.10623550415039 11.79583740234375 12.111262321472168 11.754546165466309 12.116290092468262 L11.754546165466309 12.116290092468262 C11.754546165466309 12.177526473999023 11.754546165466309 12.238762855529785 11.754546165466309 12.299999237060547 L11.754546165466309 12.299999237060547 C11.736364364624023 12.299999237060547 11.718182563781738 12.299999237060547 11.700000762939453 12.299999237060547 L11.700000762939453 12.299999237060547 C11.683028221130371 12.167534828186035 11.691776275634766 12.03105354309082 11.715682029724121 11.899662971496582 L11.715682029724121 11.899662971496582"></path></svg>