<svg xmlns="http://www.w3.org/2000/svg" viewBox="0.0 0.0 24.0 24.0" height="200px" width="200px"><path fill="none" stroke="black" stroke-width=".3" stroke-opacity="1.0"  filling="0" d="M12.572973251342773 11.841054916381836 L12.572973251342773 11.841054916381836 C12.596636772155762 11.841054916381836 12.62030029296875 11.841054916381836 12.643963813781738 11.841054916381836 L12.643963813781738 11.841054916381836 C12.650699615478516 11.873754501342773 12.65743637084961 11.906454086303711 12.664172172546387 11.939153671264648 L12.664172172546387 11.939153671264648 C12.720345497131348 12.027517318725586 12.776517868041992 12.11588191986084 12.832691192626953 12.204245567321777 L12.832691192626953 12.204245567321777 C12.746118545532227 12.204245567321777 12.659544944763184 12.204245567321777 12.572972297668457 12.204245567321777 L12.572972297668457 12.204245567321777 C12.572972297668457 12.083182334899902 12.572973251342773 11.962118148803711 12.572973251342773 11.841054916381836 L12.572973251342773 11.841054916381836"></path>
<path fill="none" stroke="black" stroke-width=".3" stroke-opacity="1.0"  filling="0" d="M12.707508087158203 11.985163688659668 L12.707508087158203 11.985163688659668 C12.719181060791016 12.04010009765625 12.730853080749512 12.095036506652832 12.742526054382324 12.149972915649414 L12.742526054382324 12.149972915649414 C12.730853080749512 12.095036506652832 12.719181060791016 12.04010009765625 12.707508087158203 11.985163688659668 L12.707508087158203 11.985163688659668"></path></svg>