<svg xmlns="http://www.w3.org/2000/svg" viewBox="0.0 0.0 24.0 24.0" height="200px" width="200px"><path fill="none" stroke="black" stroke-width=".3" stroke-opacity="1.0"  filling="0" d="M12.084272384643555 11.891754150390625 L12.084272384643555 11.891754150390625 C12.119845390319824 11.929327011108398 12.155417442321777 11.966899871826172 12.190990447998047 12.004472732543945 L12.190990447998047 12.004472732543945 C12.135235786437988 11.978408813476562 12.079482078552246 11.952345848083496 12.023727416992188 11.926281929016113 L12.023727416992188 11.926281929016113 C12.054509162902832 12.052693367004395 12.135540008544922 12.169897079467773 12.136337280273438 12.300000190734863 L12.136337280273438 12.300000190734863 C12.099982261657715 12.300000190734863 12.063628196716309 12.299999237060547 12.027273178100586 12.299999237060547 L12.027273178100586 12.299999237060547 C12.008909225463867 12.268681526184082 11.990546226501465 12.2373628616333 11.972182273864746 12.206045150756836 L11.972182273864746 12.206045150756836 C11.978009223937988 12.20089054107666 11.98383617401123 12.1957368850708 11.989663124084473 12.190582275390625 L11.989663124084473 12.190582275390625 C12.02350902557373 12.209490776062012 12.057353973388672 12.228400230407715 12.09119987487793 12.247308731079102 L12.09119987487793 12.247308731079102 C12.110344886779785 12.223963737487793 12.129490852355957 12.200617790222168 12.148635864257812 12.17727279663086 L12.148635864257812 12.17727279663086 C11.970301628112793 12.077558517456055 11.890351295471191 12.028199195861816 12.084272384643555 11.891754150390625 L12.084272384643555 11.891754150390625"></path></svg>