<svg xmlns="http://www.w3.org/2000/svg" viewBox="0.0 0.0 24.0 24.0" height="200px" width="200px"><path fill="none" stroke="black" stroke-width=".3" stroke-opacity="1.0"  filling="0" d="M14.645454406738281 11.904272079467773 L14.645454406738281 11.904272079467773 C14.727272987365723 11.917999267578125 14.809090614318848 11.931727409362793 14.890909194946289 11.945454597473145 L14.890909194946289 11.945454597473145 C14.890909194946289 12.06363582611084 14.890909194946289 12.181818008422852 14.890909194946289 12.299999237060547 L14.890909194946289 12.299999237060547 C14.809090614318848 12.299999237060547 14.727272987365723 12.299999237060547 14.645454406738281 12.299999237060547 L14.645454406738281 12.299999237060547 C14.645454406738281 12.168089866638184 14.645454406738281 12.036181449890137 14.645454406738281 11.904272079467773 L14.645454406738281 11.904272079467773"></path>
<path fill="none" stroke="black" stroke-width=".3" stroke-opacity="1.0"  filling="0" d="M14.687236785888672 11.979464530944824 L14.687236785888672 11.979464530944824 C14.729890823364258 11.979464530944824 14.77254581451416 11.97946548461914 14.815199851989746 11.97946548461914 L14.815199851989746 11.97946548461914 C14.802908897399902 12.023064613342285 14.790617942810059 12.066664695739746 14.778326988220215 12.11026382446289 L14.778326988220215 12.11026382446289 C14.765754699707031 12.111499786376953 14.753182411193848 12.112736701965332 14.740610122680664 12.113972663879395 L14.740610122680664 12.113972663879395 C14.722819328308105 12.069136619567871 14.70502758026123 12.024300575256348 14.687236785888672 11.979464530944824 L14.687236785888672 11.979464530944824"></path></svg>