<svg xmlns="http://www.w3.org/2000/svg" viewBox="0.0 0.0 24.0 24.0" height="200px" width="200px"><path fill="none" stroke="black" stroke-width=".3" stroke-opacity="1.0"  filling="0" d="M11.181818008422852 12.051081657409668 L11.181818008422852 12.051081657409668 C11.263636589050293 12.051081657409668 11.345454216003418 12.051081657409668 11.42727279663086 12.051081657409668 L11.42727279663086 12.051081657409668 C11.42727279663086 12.115872383117676 11.42727279663086 12.1806640625 11.42727279663086 12.245454788208008 L11.42727279663086 12.245454788208008 C11.409090995788574 12.245454788208008 11.390909194946289 12.245454788208008 11.372727394104004 12.245454788208008 L11.372727394104004 12.245454788208008 C11.372727394104004 12.192818641662598 11.372727394104004 12.140181541442871 11.372727394104004 12.087545394897461 L11.372727394104004 12.087545394897461 C11.336363792419434 12.140181541442871 11.300000190734863 12.192818641662598 11.263636589050293 12.245454788208008 L11.263636589050293 12.245454788208008 C11.236363410949707 12.245454788208008 11.209091186523438 12.245454788208008 11.181818008422852 12.245454788208008 L11.181818008422852 12.245454788208008 C11.181818008422852 12.1806640625 11.181818008422852 12.115872383117676 11.181818008422852 12.051081657409668 L11.181818008422852 12.051081657409668"></path></svg>