<svg xmlns="http://www.w3.org/2000/svg" viewBox="0.0 0.0 24.0 24.0" height="200px" width="200px"><path fill="none" stroke="black" stroke-width=".3" stroke-opacity="1.0"  filling="0" d="M12.218181610107422 11.809091567993164 L12.218181610107422 11.809091567993164 C12.211600303649902 11.847718238830566 12.205018043518066 11.886345863342285 12.198436737060547 11.924972534179688 L12.198436737060547 11.924972534179688 C12.314558029174805 11.95278549194336 12.372179985046387 12.105642318725586 12.39850902557373 12.222108840942383 L12.39850902557373 12.222108840942383 C12.358799934387207 12.209336280822754 12.319090843200684 12.196563720703125 12.27938175201416 12.183791160583496 L12.27938175201416 12.183791160583496 C12.262391090393066 12.1104097366333 12.245399475097656 12.037027359008789 12.228408813476562 11.963645935058594 L12.228408813476562 11.963645935058594 C12.228408813476562 12.03511905670166 12.228408813476562 12.10659122467041 12.228408813476562 12.178064346313477 L12.228408813476562 12.178064346313477 C12.19772720336914 12.198500633239746 12.167045593261719 12.218936920166016 12.136363983154297 12.239373207092285 L12.136363983154297 12.239373207092285 C12.136363983154297 12.095954895019531 12.136363983154297 11.952536582946777 12.136363983154297 11.809118270874023 L12.136363983154297 11.809118270874023 C12.163636207580566 11.809109687805176 12.190909385681152 11.809100151062012 12.218181610107422 11.809091567993164 L12.218181610107422 11.809091567993164"></path></svg>