<svg xmlns="http://www.w3.org/2000/svg" viewBox="0.0 0.0 24.0 24.0" height="200px" width="200px"><path fill="none" stroke="black" stroke-width=".3" stroke-opacity="1.0"  filling="0" d="M13.866354942321777 11.895463943481445 L13.866354942321777 11.895463943481445 C13.871500015258789 12.012127876281738 13.876646041870117 12.128790855407715 13.881791114807129 12.245454788208008 L13.881791114807129 12.245454788208008 C13.809072494506836 12.245454788208008 13.73635482788086 12.245454788208008 13.663636207580566 12.245454788208008 L13.663636207580566 12.245454788208008 C13.651681900024414 12.185672760009766 13.639727592468262 12.12589168548584 13.62777328491211 12.066109657287598 L13.62777328491211 12.066109657287598 C13.670109748840332 12.041264533996582 13.712445259094238 12.01641845703125 13.754781723022461 11.991573333740234 L13.754781723022461 11.991573333740234 C13.791973114013672 11.9595365524292 13.829163551330566 11.92750072479248 13.866354942321777 11.895463943481445 L13.866354942321777 11.895463943481445"></path>
<path fill="none" stroke="black" stroke-width=".3" stroke-opacity="1.0"  filling="0" d="M13.726554870605469 12.055145263671875 L13.726554870605469 12.055145263671875 C13.726554870605469 12.112508773803711 13.726554870605469 12.169873237609863 13.726554870605469 12.2272367477417 L13.726554870605469 12.2272367477417 C13.726554870605469 12.169873237609863 13.726554870605469 12.112508773803711 13.726554870605469 12.055145263671875 L13.726554870605469 12.055145263671875"></path></svg>