<svg xmlns="http://www.w3.org/2000/svg" viewBox="0.0 0.0 24.0 24.0" height="200px" width="200px"><path fill="none" stroke="black" stroke-width=".3" stroke-opacity="1.0"  filling="0" d="M12.962154388427734 11.844244956970215 L12.962154388427734 11.844244956970215 C12.968981742858887 11.977608680725098 12.975809097290039 12.11097240447998 12.982636451721191 12.244336128234863 L12.982636451721191 12.244336128234863 C12.947490692138672 12.179254531860352 12.912345886230469 12.11417293548584 12.87720012664795 12.049091339111328 L12.87720012664795 12.049091339111328 C12.78922176361084 12.134001731872559 12.843886375427246 12.189153671264648 12.738926887512207 12.264354705810547 L12.738926887512207 12.264354705810547 C12.742781639099121 12.125164031982422 12.746636390686035 11.98597240447998 12.75049114227295 11.846781730651855 L12.75049114227295 11.846781730651855 C12.76300048828125 11.846735954284668 12.775508880615234 11.84669017791748 12.788018226623535 11.846644401550293 L12.788018226623535 11.846644401550293 C12.799245834350586 11.895380973815918 12.81047248840332 11.944117546081543 12.821700096130371 11.992854118347168 L12.821700096130371 11.992854118347168 C12.868517875671387 11.943317413330078 12.915336608886719 11.893781661987305 12.962154388427734 11.844244956970215 L12.962154388427734 11.844244956970215"></path></svg>