<svg xmlns="http://www.w3.org/2000/svg" viewBox="0.0 0.0 24.0 24.0" height="200px" width="200px"><path fill="none" stroke="black" stroke-width=".3" stroke-opacity="1.0"  filling="0" d="M12.317782402038574 11.983854293823242 L12.317782402038574 11.983854293823242 C12.370245933532715 12.02062702178955 12.422708511352539 12.05739974975586 12.47517204284668 12.094172477722168 L12.47517204284668 12.094172477722168 C12.438172340393066 12.071126937866211 12.401172637939453 12.048081398010254 12.36417293548584 12.025035858154297 L12.36417293548584 12.025035858154297 C12.360918045043945 12.069581031799316 12.35766315460205 12.114127159118652 12.354408264160156 12.158672332763672 L12.354408264160156 12.158672332763672 C12.397372245788574 12.162035942077637 12.440336227416992 12.165400505065918 12.48330020904541 12.168764114379883 L12.48330020904541 12.168764114379883 C12.46765422821045 12.194318771362305 12.452009201049805 12.21987247467041 12.436363220214844 12.245427131652832 L12.436363220214844 12.245427131652832 C12.399999618530273 12.245436668395996 12.363636016845703 12.245445251464844 12.327272415161133 12.245454788208008 L12.327272415161133 12.245454788208008 C12.324109077453613 12.158254623413086 12.320945739746094 12.071054458618164 12.317782402038574 11.983854293823242 L12.317782402038574 11.983854293823242"></path></svg>