<svg xmlns="http://www.w3.org/2000/svg" viewBox="0.0 0.0 24.0 24.0" height="200px" width="200px"><path fill="none" stroke="black" stroke-width=".3" stroke-opacity="1.0"  filling="0" d="M11.004162788391113 11.685791015625 L11.004162788391113 11.685791015625 C11.02037239074707 11.737727165222168 11.036581039428711 11.789664268493652 11.052790641784668 11.84160041809082 L11.052790641784668 11.84160041809082 C11.014399528503418 11.863845825195312 10.976009368896484 11.886091232299805 10.937618255615234 11.908336639404297 L10.937618255615234 11.908336639404297 C10.952127456665039 11.950554847717285 10.966635704040527 11.992773056030273 10.981144905090332 12.034991264343262 L10.981144905090332 12.034991264343262 C11.012090682983398 12.006491661071777 11.043035507202148 11.977991104125977 11.073981285095215 11.949491500854492 L11.073981285095215 11.949491500854492 C11.063918113708496 12.021492004394531 11.053853988647461 12.093491554260254 11.043790817260742 12.165492057800293 L11.043790817260742 12.165492057800293 C11.05979061126709 12.215310096740723 11.075791358947754 12.265128135681152 11.091791152954102 12.314946174621582 L11.091791152954102 12.314946174621582 C11.11844539642334 12.271255493164062 11.145100593566895 12.227563858032227 11.171754837036133 12.183873176574707 L11.171754837036133 12.183873176574707 C11.13546371459961 12.289209365844727 11.099172592163086 12.394546508789062 11.062881469726562 12.499882698059082 L11.062881469726562 12.499882698059082 C10.967854499816895 12.293254852294922 10.872827529907227 12.086627960205078 10.777800559997559 11.880000114440918 L10.777800559997559 11.880000114440918 C10.853254318237305 11.815263748168945 10.928709030151367 11.750527381896973 11.004162788391113 11.685791015625 L11.004162788391113 11.685791015625"></path></svg>