<svg xmlns="http://www.w3.org/2000/svg" viewBox="0.0 0.0 24.0 24.0" height="200px" width="200px"><path fill="none" stroke="black" stroke-width=".3" stroke-opacity="1.0"  filling="0" d="M10.730836868286133 11.952792167663574 L10.730836868286133 11.952792167663574 C10.817408561706543 12.196160316467285 10.99416732788086 12.480901718139648 10.880891799926758 12.71304702758789 L10.880891799926758 12.71304702758789 C10.846009254455566 12.684247016906738 10.811127662658691 12.65544605255127 10.7762451171875 12.626646041870117 L10.7762451171875 12.626646041870117 C10.779290199279785 12.714091300964355 10.782336235046387 12.80153751373291 10.785381317138672 12.888982772827148 L10.785381317138672 12.888982772827148 C10.645563125610352 12.747583389282227 10.505744934082031 12.606183052062988 10.365926742553711 12.464783668518066 L10.365926742553711 12.464783668518066 C10.380799293518066 12.434592247009277 10.395672798156738 12.404399871826172 10.410545349121094 12.374208450317383 L10.410545349121094 12.374208450317383 C10.462244987487793 12.415372848510742 10.513945579528809 12.456536293029785 10.565645217895508 12.497700691223145 L10.565645217895508 12.497700691223145 C10.560881614685059 12.384237289428711 10.556118965148926 12.270773887634277 10.551355361938477 12.157310485839844 L10.551355361938477 12.157310485839844 C10.604037284851074 12.20617389678955 10.656718254089355 12.255037307739258 10.709400177001953 12.303900718688965 L10.709400177001953 12.303900718688965 C10.716546058654785 12.186864852905273 10.7236909866333 12.069828033447266 10.730836868286133 11.952792167663574 L10.730836868286133 11.952792167663574"></path></svg>