<svg xmlns="http://www.w3.org/2000/svg" viewBox="0.0 0.0 24.0 24.0" height="200px" width="200px"><path fill="none" stroke="black" stroke-width=".3" stroke-opacity="1.0"  filling="0" d="M13.534528732299805 11.935554504394531 L13.534528732299805 11.935554504394531 C13.596628189086914 11.966209411621094 13.65872859954834 11.99686336517334 13.72082805633545 12.027518272399902 L13.72082805633545 12.027518272399902 C13.666910171508789 12.041945457458496 13.612991333007812 12.05637264251709 13.559073448181152 12.070799827575684 L13.559073448181152 12.070799827575684 C13.558363914489746 12.079554557800293 13.557655334472656 12.088309288024902 13.55694580078125 12.097064018249512 L13.55694580078125 12.097064018249512 C13.609736442565918 12.100927352905273 13.662528038024902 12.104791641235352 13.71531867980957 12.108654975891113 L13.71531867980957 12.108654975891113 C13.589814186096191 12.305826187133789 13.54055118560791 12.144769668579102 13.510281562805176 11.986663818359375 L13.510281562805176 11.986663818359375 C13.544572830200195 12.002145767211914 13.578864097595215 12.017627716064453 13.613155364990234 12.033109664916992 L13.613155364990234 12.033109664916992 C13.617691040039062 12.026145935058594 13.622227668762207 12.019182205200195 13.626763343811035 12.012218475341797 L13.626763343811035 12.012218475341797 C13.59601879119873 11.986663818359375 13.56527328491211 11.961109161376953 13.534528732299805 11.935554504394531 L13.534528732299805 11.935554504394531"></path></svg>