<svg xmlns="http://www.w3.org/2000/svg" viewBox="0.0 0.0 24.0 24.0" height="200px" width="200px"><path fill="none" stroke="black" stroke-width=".3" stroke-opacity="1.0"  filling="0" d="M14.388300895690918 11.948782920837402 L14.388300895690918 11.948782920837402 C14.350918769836426 11.962319374084473 14.31353759765625 11.975855827331543 14.276155471801758 11.989392280578613 L14.276155471801758 11.989392280578613 C14.355491638183594 11.981810569763184 14.43482780456543 11.974227905273438 14.514163970947266 11.966646194458008 L14.517572402954102 11.96263599395752 C14.46609115600586 12.003718376159668 14.4146089553833 12.0447998046875 14.363127708435059 12.085882186889648 L14.363127708435059 12.085882186889648 C14.3832368850708 12.115464210510254 14.403346061706543 12.145045280456543 14.423455238342285 12.174627304077148 L14.423455238342285 12.174627304077148 C14.44953727722168 12.140682220458984 14.475618362426758 12.106736183166504 14.501700401306152 12.07279109954834 L14.501700401306152 12.07279109954834 C14.503828048706055 12.112191200256348 14.50595474243164 12.151591300964355 14.508082389831543 12.190991401672363 L14.508082389831543 12.190991401672363 C14.422382354736328 12.1841459274292 14.336682319641113 12.177301406860352 14.250982284545898 12.170455932617188 L14.250982284545898 12.170455932617188 C14.296754837036133 12.096565246582031 14.342528343200684 12.022673606872559 14.388300895690918 11.948782920837402 L14.388300895690918 11.948782920837402"></path></svg>