<svg xmlns="http://www.w3.org/2000/svg" viewBox="0.0 0.0 24.0 24.0" height="200px" width="200px"><path fill="none" stroke="black" stroke-width=".3" stroke-opacity="1.0"  filling="0" d="M12.30905532836914 11.985681533813477 L12.30905532836914 11.985681533813477 C12.359400749206543 12.02325439453125 12.409745216369629 12.060827255249023 12.460090637207031 12.098400115966797 L12.460090637207031 12.098400115966797 C12.42855453491211 12.102218627929688 12.397017478942871 12.106036186218262 12.36548137664795 12.109854698181152 L12.36548137664795 12.109854698181152 C12.346336364746094 12.08493709564209 12.327190399169922 12.060018539428711 12.308045387268066 12.035100936889648 L12.308045387268066 12.035100936889648 C12.308045387268066 12.078282356262207 12.308045387268066 12.121463775634766 12.308045387268066 12.164645195007324 L12.308045387268066 12.164645195007324 C12.341727256774902 12.191563606262207 12.375408172607422 12.21848201751709 12.409090042114258 12.245400428771973 L12.409090042114258 12.245400428771973 C12.363636016845703 12.245418548583984 12.318181037902832 12.245436668395996 12.272727012634277 12.245454788208008 L12.272727012634277 12.245454788208008 C12.284836769104004 12.15886402130127 12.296945571899414 12.072272300720215 12.30905532836914 11.985681533813477 L12.30905532836914 11.985681533813477"></path></svg>