<svg xmlns="http://www.w3.org/2000/svg" viewBox="0.0 0.0 24.0 24.0" height="200px" width="200px"><path fill="none" stroke="black" stroke-width=".3" stroke-opacity="1.0"  filling="0" d="M11.56489086151123 11.342646598815918 L11.56489086151123 11.342646598815918 C11.56811809539795 11.558873176574707 11.571345329284668 11.775100708007812 11.574572563171387 11.991327285766602 L11.574572563171387 11.991327285766602 C11.604808807373047 11.954736709594727 11.635045051574707 11.918145179748535 11.665281295776367 11.88155460357666 L11.665281295776367 11.88155460357666 C11.672199249267578 11.940781593322754 11.679117202758789 12.000009536743164 11.68603515625 12.059236526489258 L11.68603515625 12.059236526489258 C11.615544319152832 12.100018501281738 11.54505443572998 12.140800476074219 11.474563598632812 12.1815824508667 L11.474563598632812 12.1815824508667 C11.473681449890137 11.973264694213867 11.472800254821777 11.764945983886719 11.471918106079102 11.556628227233887 L11.471918106079102 11.556628227233887 C11.431863784790039 11.58316421508789 11.39180850982666 11.609700202941895 11.351754188537598 11.636236190795898 L11.351754188537598 11.636236190795898 C11.339027404785156 11.575936317443848 11.326299667358398 11.515637397766113 11.313572883605957 11.455337524414062 L11.313572883605957 11.455337524414062 C11.397345542907715 11.417774200439453 11.481118202209473 11.380209922790527 11.56489086151123 11.342646598815918 L11.56489086151123 11.342646598815918"></path></svg>