<svg xmlns="http://www.w3.org/2000/svg" viewBox="0.0 0.0 24.0 24.0" height="200px" width="200px"><path fill="none" stroke="black" stroke-width=".3" stroke-opacity="1.0"  filling="0" d="M12.643881797790527 11.345373153686523 L12.643881797790527 11.345373153686523 C12.701345443725586 11.369109153747559 12.758809089660645 11.39284610748291 12.816272735595703 11.416582107543945 L12.816272735595703 11.416582107543945 C12.804482460021973 11.474536895751953 12.792691230773926 11.532490730285645 12.780900955200195 11.590445518493652 L12.780900955200195 11.590445518493652 C12.747782707214355 11.574554443359375 12.714664459228516 11.558664321899414 12.681546211242676 11.542773246765137 L12.681546211242676 11.542773246765137 C12.690744400024414 11.730467796325684 12.683229446411133 11.922538757324219 12.637499809265137 12.104809761047363 L12.637499809265137 12.104809761047363 C12.59162712097168 12.093009948730469 12.545754432678223 12.081209182739258 12.499881744384766 12.069409370422363 L12.499881744384766 12.069409370422363 C12.535418510437012 12.006963729858398 12.570954322814941 11.94451904296875 12.606491088867188 11.882073402404785 L12.606491088867188 11.882073402404785 C12.573227882385254 11.705851554870605 12.600245475769043 11.519316673278809 12.643881797790527 11.345373153686523 L12.643881797790527 11.345373153686523"></path></svg>