<svg xmlns="http://www.w3.org/2000/svg" viewBox="0.0 0.0 24.0 24.0" height="200px" width="200px"><path fill="none" stroke="black" stroke-width=".3" stroke-opacity="1.0"  filling="0" d="M11.249319076538086 11.805709838867188 L11.249319076538086 11.805709838867188 C11.259864807128906 11.807964324951172 11.270410537719727 11.810218811035156 11.280956268310547 11.81247329711914 L11.280956268310547 11.81247329711914 C11.285828590393066 11.855618476867676 11.290701866149902 11.898763656616211 11.295574188232422 11.941908836364746 L11.295574188232422 11.941908836364746 C11.396833419799805 11.972731590270996 11.442981719970703 12.104972839355469 11.469846725463867 12.207353591918945 L11.469846725463867 12.207353591918945 C11.406559944152832 12.141529083251953 11.349081039428711 12.069992065429688 11.29554557800293 11.996018409729004 L11.29554557800293 11.996018409729004 C11.29073715209961 12.068472862243652 11.285927772521973 12.1409273147583 11.281119346618652 12.21338176727295 L11.281119346618652 12.21338176727295 C11.255891799926758 12.217354774475098 11.230664253234863 12.221327781677246 11.205436706542969 12.225300788879395 L11.205436706542969 12.225300788879395 C11.210373878479004 12.082452774047852 11.200922966003418 11.941675186157227 11.249319076538086 11.805709838867188 L11.249319076538086 11.805709838867188"></path></svg>