<svg xmlns="http://www.w3.org/2000/svg" viewBox="0.0 0.0 24.0 24.0" height="200px" width="200px"><path fill="none" stroke="black" stroke-width=".3" stroke-opacity="1.0"  filling="0" d="M11.789700508117676 11.966236114501953 L11.789700508117676 11.966236114501953 C11.820937156677246 12.008845329284668 11.8521728515625 12.051454544067383 11.88340950012207 12.094063758850098 L11.88340950012207 12.094063758850098 C11.842500686645508 12.102327346801758 11.801590919494629 12.110590934753418 11.760682106018066 12.118854522705078 L11.760682106018066 12.118854522705078 C11.758054733276367 12.128172874450684 11.755427360534668 12.137490272521973 11.752799987792969 12.146808624267578 L11.752799987792969 12.146808624267578 C11.784727096557617 12.158281326293945 11.816654205322266 12.169754028320312 11.848581314086914 12.18122673034668 L11.848581314086914 12.18122673034668 C11.835417747497559 12.202635765075684 11.82225513458252 12.224045753479004 11.809091567993164 12.245454788208008 L11.809091567993164 12.245454788208008 C11.763636589050293 12.245454788208008 11.718182563781738 12.245454788208008 11.672727584838867 12.245454788208008 L11.672727584838867 12.245454788208008 C11.671554565429688 12.144551277160645 11.73741340637207 12.052542686462402 11.789700508117676 11.966236114501953 L11.789700508117676 11.966236114501953"></path></svg>