<svg xmlns="http://www.w3.org/2000/svg" viewBox="0.0 0.0 24.0 24.0" height="200px" width="200px"><path fill="none" stroke="black" stroke-width=".3" stroke-opacity="1.0"  filling="0" d="M12.818181037902832 10.745453834533691 L12.818181037902832 10.745453834533691 C12.881817817687988 10.745453834533691 12.945453643798828 10.745453834533691 13.009090423583984 10.745453834533691 L13.009090423583984 10.745453834533691 C13.014154434204102 10.844226837158203 13.019217491149902 10.942999839782715 13.02428150177002 11.041772842407227 L13.02428150177002 11.041772842407227 C13.064672470092773 10.942999839782715 13.105062484741211 10.844226837158203 13.145453453063965 10.745453834533691 L13.145453453063965 10.745453834533691 C13.190908432006836 10.745453834533691 13.23636245727539 10.745453834533691 13.281817436218262 10.745453834533691 L13.281817436218262 10.745453834533691 C13.231844902038574 10.857827186584473 13.181872367858887 10.970199584960938 13.1318998336792 11.082572937011719 L13.1318998336792 11.082572937011719 C13.018445014953613 11.043745040893555 12.904990196228027 11.004918098449707 12.791535377502441 10.966090202331543 L12.791535377502441 10.966090202331543 C12.800416946411133 10.892544746398926 12.80929946899414 10.818999290466309 12.818181037902832 10.745453834533691 L12.818181037902832 10.745453834533691"></path></svg>