<svg xmlns="http://www.w3.org/2000/svg" viewBox="0.0 0.0 24.0 24.0" height="200px" width="200px"><path fill="none" stroke="black" stroke-width=".3" stroke-opacity="1.0"  filling="0" d="M10.195690155029297 11.88853645324707 L10.195690155029297 11.88853645324707 C10.207453727722168 11.888781547546387 10.219218254089355 11.88902759552002 10.230981826782227 11.889272689819336 L10.230981826782227 11.889272689819336 C10.28429126739502 12.008000373840332 10.337599754333496 12.126727104187012 10.390909194946289 12.245454788208008 L10.390909194946289 12.245454788208008 C10.345454216003418 12.245454788208008 10.300000190734863 12.245454788208008 10.254545211791992 12.245454788208008 L10.254545211791992 12.245454788208008 C10.259045600891113 12.217318534851074 10.263545036315918 12.18918228149414 10.268045425415039 12.161046028137207 L10.268045425415039 12.161046028137207 C10.218091011047363 12.18918228149414 10.168136596679688 12.217318534851074 10.118182182312012 12.245454788208008 L10.118182182312012 12.245454788208008 C10.090909004211426 12.245454788208008 10.063636779785156 12.245454788208008 10.03636360168457 12.245454788208008 L10.03636360168457 12.245454788208008 C10.089472770690918 12.126482009887695 10.14258098602295 12.007509231567383 10.195690155029297 11.88853645324707 L10.195690155029297 11.88853645324707"></path></svg>