<svg xmlns="http://www.w3.org/2000/svg" viewBox="0.0 0.0 24.0 24.0" height="200px" width="200px"><path fill="none" stroke="black" stroke-width=".3" stroke-opacity="1.0"  filling="0" d="M13.091837882995605 11.35469913482666 L13.091837882995605 11.35469913482666 C13.215838432312012 11.35469913482666 13.339838027954102 11.35469913482666 13.463838577270508 11.35469913482666 L13.463838577270508 11.35469913482666 C13.463838577270508 11.405508041381836 13.463838577270508 11.456316947937012 13.463838577270508 11.507125854492188 L13.463838577270508 11.507125854492188 C13.421329498291016 11.492171287536621 13.378820419311523 11.477216720581055 13.336311340332031 11.462262153625488 L13.336311340332031 11.462262153625488 C13.322901725769043 11.49708080291748 13.309491157531738 11.531899452209473 13.29608154296875 11.566718101501465 L13.29608154296875 11.566718101501465 C13.336109161376953 11.561136245727539 13.376136779785156 11.555554389953613 13.41616439819336 11.549972534179688 L13.41616439819336 11.549972534179688 C13.41464614868164 11.582136154174805 13.413127899169922 11.614299774169922 13.411609649658203 11.646463394165039 L13.411609649658203 11.646463394165039 C13.380346298217773 11.637063026428223 13.349082946777344 11.627663612365723 13.317819595336914 11.618263244628906 L13.317819595336914 11.618263244628906 C13.316219329833984 11.65235424041748 13.314619064331055 11.686445236206055 13.313018798828125 11.720536231994629 L13.313018798828125 11.720536231994629 C13.370201110839844 11.7121000289917 13.427383422851562 11.703662872314453 13.484565734863281 11.695226669311523 L13.484565734863281 11.695226669311523 C13.468692779541016 11.741053581237793 13.45281982421875 11.786881446838379 13.436946868896484 11.832708358764648 L13.436946868896484 11.832708358764648 C13.335301399230957 11.832708358764648 13.23365592956543 11.832708358764648 13.132010459899902 11.832708358764648 L13.132010459899902 11.832708358764648 C13.118619918823242 11.673372268676758 13.105228424072266 11.51403522491455 13.091837882995605 11.35469913482666 L13.091837882995605 11.35469913482666"></path></svg>