<svg xmlns="http://www.w3.org/2000/svg" viewBox="0.0 0.0 24.0 24.0" height="200px" width="200px"><path fill="none" stroke="black" stroke-width=".3" stroke-opacity="1.0"  filling="0" d="M12.105436325073242 12.004500389099121 L12.105436325073242 12.004500389099121 C12.152054786682129 12.033382415771484 12.1986722946167 12.062263488769531 12.245290756225586 12.091145515441895 L12.245290756225586 12.091145515441895 C12.205745697021484 12.068927764892578 12.166199684143066 12.046709060668945 12.126654624938965 12.024491310119629 L12.126654624938965 12.024491310119629 C12.109172821044922 12.072118759155273 12.091690063476562 12.119746208190918 12.07420825958252 12.167373657226562 L12.07420825958252 12.167373657226562 C12.12991714477539 12.17613697052002 12.185626029968262 12.184901237487793 12.241334915161133 12.19366455078125 L12.241334915161133 12.19366455078125 C12.233626365661621 12.210919380187988 12.225916862487793 12.22817325592041 12.218208312988281 12.245428085327148 L12.218208312988281 12.245428085327148 C12.163654327392578 12.245436668395996 12.109099388122559 12.24544620513916 12.054545402526855 12.245454788208008 L12.054545402526855 12.245454788208008 C12.033785820007324 12.166032791137695 12.065649032592773 12.07630443572998 12.105436325073242 12.004500389099121 L12.105436325073242 12.004500389099121"></path></svg>