<svg xmlns="http://www.w3.org/2000/svg" viewBox="0.0 0.0 24.0 24.0" height="200px" width="200px"><path fill="none" stroke="black" stroke-width=".3" stroke-opacity="1.0"  filling="0" d="M11.618182182312012 10.745453834533691 L11.618182182312012 10.745453834533691 C11.639554977416992 10.864117622375488 11.660927772521973 10.982781410217285 11.682300567626953 11.101445198059082 L11.682300567626953 11.101445198059082 C11.628473281860352 11.095026969909668 11.57464599609375 11.08860969543457 11.520818710327148 11.082191467285156 L11.520818710327148 11.082191467285156 C11.531455039978027 11.112327575683594 11.542092323303223 11.142464637756348 11.552728652954102 11.172600746154785 L11.552728652954102 11.172600746154785 C11.529637336730957 11.184073448181152 11.506546974182129 11.19554615020752 11.483455657958984 11.207018852233887 L11.483455657958984 11.207018852233887 C11.374128341674805 11.0944185256958 11.264801025390625 10.981819152832031 11.155473709106445 10.869218826293945 L11.155473709106445 10.869218826293945 C11.185328483581543 10.84768295288086 11.215182304382324 10.826146125793457 11.245037078857422 10.804610252380371 L11.245037078857422 10.804610252380371 C11.28052806854248 10.854883193969727 11.316019058227539 10.905155181884766 11.351510047912598 10.955428123474121 L11.351510047912598 10.955428123474121 C11.357573509216309 10.953182220458984 11.36363697052002 10.950937271118164 11.36970043182373 10.948691368103027 L11.36970043182373 10.948691368103027 C11.352527618408203 10.880955696105957 11.335354804992676 10.81321907043457 11.318181991577148 10.7454833984375 L11.318181991577148 10.7454833984375 C11.418182373046875 10.745473861694336 11.518181800842285 10.745463371276855 11.618182182312012 10.745453834533691 L11.618182182312012 10.745453834533691"></path></svg>