<svg xmlns="http://www.w3.org/2000/svg" viewBox="0.0 0.0 24.0 24.0" height="200px" width="200px"><path fill="none" stroke="black" stroke-width=".3" stroke-opacity="1.0"  filling="0" d="M11.124300003051758 11.97403621673584 L11.124300003051758 11.97403621673584 C11.201042175292969 12.040767669677734 11.263858795166016 12.143756866455078 11.263636589050293 12.245454788208008 L11.263636589050293 12.245454788208008 C11.245454788208008 12.245454788208008 11.227272987365723 12.245454788208008 11.209091186523438 12.245454788208008 L11.209091186523438 12.245454788208008 C11.185891151428223 12.167073249816895 11.162691116333008 12.088690757751465 11.139491081237793 12.010309219360352 L11.139491081237793 12.010309219360352 C11.117467880249023 12.085643768310547 11.114252090454102 12.168054580688477 11.127272605895996 12.245454788208008 L11.127272605895996 12.245454788208008 C11.100000381469727 12.245454788208008 11.07272720336914 12.245454788208008 11.045454978942871 12.245454788208008 L11.045454978942871 12.245454788208008 C11.045454978942871 12.164009094238281 11.045454978942871 12.082564353942871 11.045454978942871 12.001118659973145 L11.045454978942871 12.001118659973145 C11.071736335754395 11.992091178894043 11.098018646240234 11.983063697814941 11.124300003051758 11.97403621673584 L11.124300003051758 11.97403621673584"></path></svg>