<svg xmlns="http://www.w3.org/2000/svg" viewBox="0.0 0.0 24.0 24.0" height="200px" width="200px"><path fill="none" stroke="black" stroke-width=".3" stroke-opacity="1.0"  filling="0" d="M13.60887336730957 11.78978157043457 L13.60887336730957 11.78978157043457 C13.643200874328613 11.815572738647461 13.67752742767334 11.841363906860352 13.711854934692383 11.867155075073242 L13.711854934692383 11.867155075073242 C13.697590827941895 11.903182029724121 13.683327674865723 11.939209938049316 13.669063568115234 11.975236892700195 L13.669063568115234 11.975236892700195 C13.730201721191406 11.963166236877441 13.731023788452148 11.850263595581055 13.707955360412598 11.792372703552246 L13.707955360412598 11.792372703552246 C13.784473419189453 11.812000274658203 13.860991477966309 11.83162784576416 13.937509536743164 11.851255416870117 L13.937509536743164 11.851255416870117 C13.944210052490234 11.957219123840332 13.950909614562988 12.063182830810547 13.957610130310059 12.169146537780762 L13.957610130310059 12.169146537780762 C13.909807205200195 12.169235229492188 13.861907005310059 12.169991493225098 13.814291954040527 12.174219131469727 L13.814291954040527 12.174219131469727 C13.787537574768066 12.118073463439941 13.760782241821289 12.061927795410156 13.734027862548828 12.005782127380371 L13.734027862548828 12.005782127380371 C13.72578239440918 12.00590991973877 13.717536926269531 12.006037712097168 13.709291458129883 12.006165504455566 L13.709291458129883 12.006165504455566 C13.704046249389648 12.061756134033203 13.698801040649414 12.11734676361084 13.69355583190918 12.172937393188477 L13.69355583190918 12.172937393188477 C13.58721923828125 12.096770286560059 13.609414100646973 11.920580863952637 13.60887336730957 11.78978157043457 L13.60887336730957 11.78978157043457"></path></svg>