<svg xmlns="http://www.w3.org/2000/svg" viewBox="0.0 0.0 24.0 24.0" height="200px" width="200px"><path fill="none" stroke="black" stroke-width=".3" stroke-opacity="1.0"  filling="0" d="M12.839673042297363 11.902800559997559 L12.839673042297363 11.902800559997559 C12.894164085388184 11.932191848754883 12.948655128479004 11.96158218383789 13.003146171569824 11.990973472595215 L13.003146171569824 11.990973472595215 C12.975627899169922 12.011164665222168 12.948108673095703 12.031354904174805 12.9205904006958 12.051546096801758 L12.9205904006958 12.051546096801758 C12.898990631103516 12.01895523071289 12.87739086151123 11.986364364624023 12.855791091918945 11.953773498535156 L12.855791091918945 11.953773498535156 C12.847945213317871 12.011981964111328 12.840100288391113 12.070191383361816 12.832254409790039 12.128399848937988 L12.832254409790039 12.128399848937988 C12.88059139251709 12.128399848937988 12.928927421569824 12.128399848937988 12.977264404296875 12.128399848937988 L12.977264404296875 12.128399848937988 C12.94391918182373 12.161782264709473 12.91057300567627 12.19516372680664 12.877227783203125 12.228546142578125 L12.877227783203125 12.228546142578125 C12.830209732055664 12.186727523803711 12.783191680908203 12.144909858703613 12.736173629760742 12.1030912399292 L12.736173629760742 12.1030912399292 C12.770673751831055 12.036327362060547 12.80517292022705 11.969564437866211 12.839673042297363 11.902800559997559 L12.839673042297363 11.902800559997559"></path></svg>