<svg xmlns="http://www.w3.org/2000/svg" viewBox="0.0 0.0 24.0 24.0" height="200px" width="200px"><path fill="none" stroke="black" stroke-width=".3" stroke-opacity="1.0"  filling="0" d="M14.595081329345703 11.986719131469727 L14.595081329345703 11.986719131469727 C14.612117767333984 11.991009712219238 14.629154205322266 11.995301246643066 14.646190643310547 11.999591827392578 L14.646190643310547 11.999591827392578 C14.615081787109375 12.064809799194336 14.583971977233887 12.130027770996094 14.552863121032715 12.195245742797852 L14.552863121032715 12.195245742797852 C14.58272647857666 12.128872871398926 14.612590789794922 12.062500953674316 14.642454147338867 11.99612808227539 L14.642454147338867 11.99612808227539 C14.665581703186035 11.999110221862793 14.688708305358887 12.002091407775879 14.711835861206055 12.005073547363281 L14.711835861206055 12.005073547363281 C14.698800086975098 12.085200309753418 14.685763359069824 12.165328025817871 14.672727584838867 12.245454788208008 L14.672727584838867 12.245454788208008 C14.609380722045898 12.245454788208008 14.549012184143066 12.217803955078125 14.488118171691895 12.200345993041992 L14.488118171691895 12.200345993041992 C14.485445022583008 12.160900115966797 14.482772827148438 12.121455192565918 14.48009967803955 12.082009315490723 L14.48009967803955 12.082009315490723 C14.518426895141602 12.050246238708496 14.556754112243652 12.018482208251953 14.595081329345703 11.986719131469727 L14.595081329345703 11.986719131469727"></path></svg>