<svg xmlns="http://www.w3.org/2000/svg" viewBox="0.0 0.0 24.0 24.0" height="200px" width="200px"><path fill="none" stroke="black" stroke-width=".3" stroke-opacity="1.0"  filling="0" d="M12.924598693847656 11.921372413635254 L12.924598693847656 11.921372413635254 C12.921944618225098 11.955217361450195 12.919289588928223 11.989063262939453 12.916635513305664 12.022908210754395 L12.916635513305664 12.022908210754395 C12.909126281738281 12.02441692352295 12.901618003845215 12.02592658996582 12.894108772277832 12.027435302734375 L12.894108772277832 12.027435302734375 C12.880435943603516 12.000207901000977 12.866764068603516 11.972980499267578 12.8530912399292 11.94575309753418 L12.8530912399292 11.94575309753418 C12.842691421508789 11.948789596557617 12.832290649414062 11.951827049255371 12.821890830993652 11.954863548278809 L12.821890830993652 11.954863548278809 C12.828636169433594 11.9823637008667 12.835381507873535 12.00986385345459 12.842126846313477 12.03736400604248 L12.842126846313477 12.03736400604248 C12.825563430786133 12.040754318237305 12.809000015258789 12.044145584106445 12.792436599731445 12.04753589630127 L12.792436599731445 12.04753589630127 C12.790518760681152 12.055790901184082 12.788599967956543 12.064044952392578 12.78668212890625 12.07229995727539 L12.78668212890625 12.07229995727539 C12.839181900024414 12.088027000427246 12.892362594604492 12.101724624633789 12.946063995361328 12.112663269042969 L12.946063995361328 12.112663269042969 C12.660828590393066 12.203239440917969 12.685056686401367 12.007345199584961 12.924598693847656 11.921372413635254 L12.924598693847656 11.921372413635254"></path></svg>