<svg xmlns="http://www.w3.org/2000/svg" viewBox="0.0 0.0 24.0 24.0" height="200px" width="200px"><path fill="none" stroke="black" stroke-width=".3" stroke-opacity="1.0"  filling="0" d="M11.987945556640625 11.773063659667969 L11.987945556640625 11.773063659667969 C11.994291305541992 11.817373275756836 12.000636100769043 11.861681938171387 12.00698184967041 11.905991554260254 L12.00698184967041 11.905991554260254 C12.081840515136719 11.98814868927002 12.163930892944336 12.076584815979004 12.190199851989746 12.184582710266113 L12.190199851989746 12.184582710266113 C12.157990455627441 12.184582710266113 12.125782012939453 12.184582710266113 12.093572616577148 12.184582710266113 L12.093572616577148 12.184582710266113 C12.092230796813965 12.105459213256836 12.081859588623047 11.996947288513184 12.01082706451416 11.962063789367676 L12.01082706451416 11.962063789367676 C12.01082706451416 12.032527923583984 12.01082706451416 12.102991104125977 12.01082706451416 12.173455238342285 L12.01082706451416 12.173455238342285 C11.98896312713623 12.17756462097168 11.967100143432617 12.181673049926758 11.945236206054688 12.185782432556152 L11.945236206054688 12.185782432556152 C11.93771743774414 12.060782432556152 11.93019962310791 11.935781478881836 11.922680854797363 11.810781478881836 L11.922680854797363 11.810781478881836 C11.944436073303223 11.798209190368652 11.966190338134766 11.785635948181152 11.987945556640625 11.773063659667969 L11.987945556640625 11.773063659667969"></path></svg>