<svg xmlns="http://www.w3.org/2000/svg" viewBox="0.0 0.0 24.0 24.0" height="200px" width="200px"><path fill="none" stroke="black" stroke-width=".3" stroke-opacity="1.0"  filling="0" d="M12.695426940917969 11.996973037719727 L12.695426940917969 11.996973037719727 C12.705799102783203 12.00134563446045 12.716172218322754 12.005718231201172 12.726544380187988 12.010090827941895 L12.726544380187988 12.010090827941895 C12.71069049835205 12.063982009887695 12.694835662841797 12.11787223815918 12.67898178100586 12.17176342010498 L12.67898178100586 12.17176342010498 C12.698108673095703 12.196327209472656 12.717236518859863 12.220890998840332 12.736363410949707 12.245454788208008 L12.736363410949707 12.245454788208008 C12.663636207580566 12.245454788208008 12.590909004211426 12.245454788208008 12.518181800842285 12.245454788208008 L12.518181800842285 12.245454788208008 C12.529181480407715 12.167118072509766 12.540182113647461 12.08878231048584 12.55118179321289 12.010445594787598 L12.55118179321289 12.010445594787598 C12.575990676879883 12.055899620056152 12.600799560546875 12.101354598999023 12.625608444213867 12.146808624267578 L12.625608444213867 12.146808624267578 C12.648880958557129 12.096863746643066 12.672154426574707 12.046917915344238 12.695426940917969 11.996973037719727 L12.695426940917969 11.996973037719727"></path></svg>