<svg xmlns="http://www.w3.org/2000/svg" viewBox="0.0 0.0 24.0 24.0" height="200px" width="200px"><path fill="none" stroke="black" stroke-width=".3" stroke-opacity="1.0"  filling="0" d="M10.81115436553955 11.996018409729004 L10.81115436553955 11.996018409729004 C10.844144821166992 12.017473220825195 10.87713623046875 12.03892707824707 10.910126686096191 12.060381889343262 L10.910126686096191 12.060381889343262 C10.905117988586426 12.06916332244873 10.900108337402344 12.077945709228516 10.895099639892578 12.086727142333984 L10.895099639892578 12.086727142333984 C10.857500076293945 12.068072319030762 10.819899559020996 12.049418449401855 10.782299995422363 12.030763626098633 L10.782299995422363 12.030763626098633 C10.764909744262695 12.084654808044434 10.747518539428711 12.138545036315918 10.730128288269043 12.192436218261719 L10.730128288269043 12.192436218261719 C10.791555404663086 12.185935974121094 10.852982521057129 12.179436683654785 10.914409637451172 12.17293643951416 L10.914409637451172 12.17293643951416 C10.88537311553955 12.197127342224121 10.85633659362793 12.221318244934082 10.827300071716309 12.245509147644043 L10.827300071716309 12.245509147644043 C10.800018310546875 12.245491027832031 10.772735595703125 12.24547290802002 10.745453834533691 12.245454788208008 L10.745453834533691 12.245454788208008 C10.726663589477539 12.161551475524902 10.73282527923584 12.031476974487305 10.81115436553955 11.996018409729004 L10.81115436553955 11.996018409729004"></path></svg>