<svg xmlns="http://www.w3.org/2000/svg" viewBox="0.0 0.0 24.0 24.0" height="200px" width="200px"><path fill="none" stroke="black" stroke-width=".3" stroke-opacity="1.0"  filling="0" d="M14.154545783996582 11.890909194946289 L14.154545783996582 11.890909194946289 C14.154545783996582 11.92727279663086 14.154545783996582 11.96363639831543 14.154545783996582 12.0 L14.154545783996582 12.0 C14.129899978637695 11.976717948913574 14.105255126953125 11.953436851501465 14.080609321594238 11.930154800415039 L14.080609321594238 11.930154800415039 C14.067609786987305 11.989800453186035 14.054609298706055 12.049445152282715 14.041609764099121 12.109090805053711 L14.041609764099121 12.109090805053711 C14.079255104064941 12.109090805053711 14.116900444030762 12.109090805053711 14.154545783996582 12.109090805053711 L14.154545783996582 12.109090805053711 C14.154545783996582 12.118182182312012 14.154545783996582 12.127272605895996 14.154545783996582 12.136363983154297 L14.154545783996582 12.136363983154297 C14.127900123596191 12.15395450592041 14.101255416870117 12.17154598236084 14.074609756469727 12.189136505126953 L14.074609756469727 12.189136505126953 C13.976125717163086 12.053388595581055 13.977668762207031 11.95468807220459 14.154545783996582 11.890909194946289 L14.154545783996582 11.890909194946289"></path></svg>