<svg xmlns="http://www.w3.org/2000/svg" viewBox="0.0 0.0 24.0 24.0" height="200px" width="200px"><path fill="none" stroke="black" stroke-width=".3" stroke-opacity="1.0"  filling="0" d="M11.974226951599121 11.921754837036133 L11.974226951599121 11.921754837036133 C12.240939140319824 11.924983024597168 12.270868301391602 12.002152442932129 12.27229118347168 12.260645866394043 L12.27229118347168 12.260645866394043 C12.156218528747559 12.260645866394043 12.040144920349121 12.260645866394043 11.924072265625 12.260645866394043 L11.924072265625 12.260645866394043 C11.918536186218262 12.148408889770508 11.912999153137207 12.036172866821289 11.907463073730469 11.923935890197754 L11.907463073730469 11.923935890197754 C11.929718017578125 11.923209190368652 11.951972007751465 11.922481536865234 11.974226951599121 11.921754837036133 L11.974226951599121 11.921754837036133"></path>
<path fill="none" stroke="black" stroke-width=".3" stroke-opacity="1.0"  filling="0" d="M12.097036361694336 11.990755081176758 L12.097036361694336 11.990755081176758 C12.108436584472656 11.997173309326172 12.119836807250977 12.003591537475586 12.131237030029297 12.010009765625 L12.131237030029297 12.010009765625 C12.131237030029297 12.077536582946777 12.131237030029297 12.145064353942871 12.131237030029297 12.212591171264648 L12.131237030029297 12.212591171264648 C12.087742805480957 12.151713371276855 12.05441951751709 12.052249908447266 12.097036361694336 11.990755081176758 L12.097036361694336 11.990755081176758"></path></svg>