<svg xmlns="http://www.w3.org/2000/svg" viewBox="0.0 0.0 24.0 24.0" height="200px" width="200px"><path fill="none" stroke="black" stroke-width=".3" stroke-opacity="1.0"  filling="0" d="M10.720663070678711 8.454957962036133 L10.720663070678711 8.454957962036133 C11.784140586853027 8.50547981262207 12.253899574279785 8.786604881286621 12.625800132751465 9.891357421875 C12.66070556640625 9.995046615600586 12.837902069091797 11.417478561401367 12.554237365722656 11.454684257507324 C12.046402931213379 11.521292686462402 11.438045501708984 11.427685737609863 10.924581527709961 11.42738151550293 L10.924581527709961 11.42738151550293 C10.899066925048828 11.082650184631348 10.95950698852539 10.656754493713379 10.823644638061523 10.34048080444336 L10.823644638061523 10.34048080444336 C10.764453887939453 10.34048080444336 10.705263137817383 10.34048080444336 10.646072387695312 10.34048080444336 L10.646072387695312 10.34048080444336 C10.481828689575195 11.477829933166504 11.40318775177002 11.936782836914062 12.02413558959961 12.75897216796875 C12.710128784179688 13.66728687286377 12.777291297912598 14.938994407653809 12.32828140258789 15.973501205444336 C11.844026565551758 17.08921241760254 10.324353218078613 17.276962280273438 9.440618515014648 16.605300903320312 C8.587860107421875 15.957182884216309 8.65504264831543 14.765753746032715 8.727518081665039 13.841018676757812 L8.727518081665039 13.841018676757812 C9.310245513916016 13.856545448303223 9.892972946166992 13.87207317352295 10.475700378417969 13.88759994506836 L10.475700378417969 13.88759994506836 C10.47496223449707 14.249821662902832 10.74106216430664 15.269662857055664 10.823781967163086 14.917011260986328 C11.056599617004395 13.924460411071777 9.91841983795166 13.295947074890137 9.399271965026855 12.670856475830078 C8.081056594848633 11.083633422851562 8.726480484008789 8.821328163146973 10.720663070678711 8.454957962036133 L10.720663070678711 8.454957962036133"></path></svg>