<svg xmlns="http://www.w3.org/2000/svg" viewBox="0.0 0.0 24.0 24.0" height="200px" width="200px"><path fill="none" stroke="black" stroke-width=".3" stroke-opacity="1.0"  filling="0" d="M33.23674774169922 8.918184280395508 L33.23674774169922 8.918184280395508 C33.80748748779297 8.93936824798584 34.34877395629883 8.928058624267578 34.92051696777344 8.951292991638184 L34.92051696777344 8.951292991638184 C34.78321838378906 11.341734886169434 34.807533264160156 13.746337890625 34.74425506591797 16.140029907226562 C34.74070358276367 16.274335861206055 34.95138931274414 17.55390739440918 34.465118408203125 17.563339233398438 L34.465118408203125 17.563339233398438 C34.47674560546875 17.763412475585938 34.488372802734375 17.963483810424805 34.5 18.163557052612305 L34.5 18.163557052612305 C33.163639068603516 18.163612365722656 31.827272415161133 18.163631439208984 30.490909576416016 18.16363525390625 L30.490909576416016 18.16363525390625 C30.425960540771484 17.578487396240234 30.20474624633789 16.56704330444336 30.2519474029541 16.016971588134766 L30.2519474029541 16.016971588134766 C30.77308464050293 15.979077339172363 30.83304214477539 15.088638305664062 30.845809936523438 14.566282272338867 C30.89168357849121 12.68935489654541 30.83146095275879 10.795101165771484 30.98550033569336 8.923309326171875 L30.98550033569336 8.923309326171875 C31.565937042236328 8.923309326171875 32.1463737487793 8.923309326171875 32.726810455322266 8.923309326171875 L32.726810455322266 8.923309326171875 C32.7234992980957 10.407952308654785 32.67438507080078 11.895971298217773 32.645729064941406 13.381036758422852 C32.631874084472656 14.099064826965332 32.27814865112305 15.883240699768066 32.89807891845703 15.520692825317383 C33.233154296875 15.32473373413086 32.99519348144531 14.398118019104004 33.00019073486328 13.991728782653809 C33.007808685302734 13.372578620910645 32.63861083984375 9.426578521728516 33.23674774169922 8.918184280395508 L33.23674774169922 8.918184280395508"></path></svg>