<svg xmlns="http://www.w3.org/2000/svg" viewBox="0.0 0.0 24.0 24.0" height="200px" width="200px"><path fill="none" stroke="black" stroke-width=".3" stroke-opacity="1.0"  filling="0" d="M16.690391540527344 6.180108547210693 L16.690391540527344 6.180108547210693 C16.689327239990234 6.79172420501709 16.27653694152832 8.573991775512695 17.044309616088867 8.625627517700195 L17.044309616088867 8.625627517700195 C17.03008270263672 9.251736640930176 17.015853881835938 9.877845764160156 17.00162696838379 10.503954887390137 L17.00162696838379 10.503954887390137 C16.173686981201172 10.43198299407959 16.216047286987305 15.270003318786621 16.840253829956055 15.272782325744629 L16.840253829956055 15.272782325744629 C16.81271743774414 15.918218612670898 16.785181045532227 16.563655853271484 16.757644653320312 17.209091186523438 L16.757644653320312 17.209091186523438 C16.105318069458008 17.208234786987305 15.313072204589844 17.38703727722168 14.823953628540039 16.80526351928711 C14.277975082397461 16.155858993530273 14.667842864990234 15.112828254699707 14.673871994018555 14.26442813873291 C14.68274974822998 13.01511287689209 14.625075340270996 11.694395065307617 14.776826858520508 10.457181930541992 L14.776826858520508 10.457181930541992 C14.613044738769531 10.45118236541748 14.449263572692871 10.445181846618652 14.285481452941895 10.43918228149414 L14.285481452941895 10.43918228149414 C14.298681259155273 9.814836502075195 14.311881065368652 9.19049072265625 14.325080871582031 8.566144943237305 L14.325080871582031 8.566144943237305 C14.48642635345459 8.566144943237305 14.647771835327148 8.566144943237305 14.809117317199707 8.566144943237305 L14.809117317199707 8.566144943237305 C14.809700965881348 8.0249662399292 14.71746826171875 7.389247417449951 14.863226890563965 6.8609724044799805 C14.903399467468262 6.715373992919922 16.4456787109375 6.298691749572754 16.690391540527344 6.180108547210693 L16.690391540527344 6.180108547210693"></path></svg>