<svg xmlns="http://www.w3.org/2000/svg" viewBox="0.0 0.0 24.0 24.0" height="200px" width="200px"><path fill="none" stroke="black" stroke-width=".3" stroke-opacity="1.0"  filling="0" d="M11.53636360168457 11.809064865112305 L11.53636360168457 11.809064865112305 C11.554545402526855 11.809073448181152 11.572728157043457 11.809082984924316 11.590909957885742 11.809091567993164 L11.590909957885742 11.809091567993164 C11.602190971374512 11.844564437866211 11.613472938537598 11.880036354064941 11.624753952026367 11.915509223937988 L11.624753952026367 11.915509223937988 C11.724678039550781 11.95750617980957 11.75515079498291 12.106341361999512 11.752144813537598 12.214691162109375 L11.752144813537598 12.214691162109375 C11.718599319458008 12.13774585723877 11.685053825378418 12.060800552368164 11.651508331298828 11.983855247497559 L11.651508331298828 11.983855247497559 C11.648908615112305 12.048182487487793 11.646307945251465 12.112509727478027 11.643708229064941 12.176836967468262 L11.643708229064941 12.176836967468262 C11.613971710205078 12.190791130065918 11.584236145019531 12.20474624633789 11.554499626159668 12.218700408935547 L11.554499626159668 12.218700408935547 C11.548454284667969 12.082155227661133 11.54240894317627 11.945610046386719 11.53636360168457 11.809064865112305 L11.53636360168457 11.809064865112305"></path></svg>