<svg xmlns="http://www.w3.org/2000/svg" viewBox="0.0 0.0 24.0 24.0" height="200px" width="200px"><path fill="none" stroke="black" stroke-width=".3" stroke-opacity="1.0"  filling="0" d="M13.5 11.809091567993164 L13.5 11.809091567993164 C13.609090805053711 11.809091567993164 13.718181610107422 11.809091567993164 13.827272415161133 11.809091567993164 L13.827272415161133 11.809091567993164 C13.827272415161133 11.854545593261719 13.827272415161133 11.90000057220459 13.827272415161133 11.945454597473145 L13.827272415161133 11.945454597473145 C13.593430519104004 11.793912887573242 13.585103034973145 11.91483211517334 13.646891593933105 12.128973007202148 L13.646891593933105 12.128973007202148 C13.71153450012207 12.104747772216797 13.784319877624512 12.081294059753418 13.827300071716309 12.027273178100586 L13.827300071716309 12.027273178100586 C13.827290534973145 12.063636779785156 13.827281951904297 12.100000381469727 13.827272415161133 12.136363983154297 L13.827272415161133 12.136363983154297 C13.726944923400879 12.150618553161621 13.626618385314941 12.164872169494629 13.526290893554688 12.179126739501953 L13.526290893554688 12.179126739501953 C13.51752758026123 12.055781364440918 13.508763313293457 11.9324369430542 13.5 11.809091567993164 L13.5 11.809091567993164"></path></svg>