<svg xmlns="http://www.w3.org/2000/svg" viewBox="0.0 0.0 24.0 24.0" height="200px" width="200px"><path fill="none" stroke="black" stroke-width=".3" stroke-opacity="1.0"  filling="0" d="M12.13033676147461 11.841245651245117 L12.13033676147461 11.841245651245117 C12.133881568908691 11.880118370056152 12.13742733001709 11.918991088867188 12.140972137451172 11.957863807678223 L12.140972137451172 11.957863807678223 C12.196381568908691 11.975409507751465 12.251791000366211 11.992955207824707 12.30720043182373 12.01050090789795 L12.30720043182373 12.01050090789795 C12.297346115112305 12.087845802307129 12.287490844726562 12.165191650390625 12.277636528015137 12.242536544799805 L12.277636528015137 12.242536544799805 C12.204054832458496 12.242536544799805 12.130473136901855 12.242536544799805 12.056891441345215 12.242536544799805 L12.056891441345215 12.242536544799805 C12.056891441345215 12.121973037719727 12.056891441345215 12.001409530639648 12.056891441345215 11.88084602355957 L12.056891441345215 11.88084602355957 C12.08137321472168 11.867646217346191 12.105854988098145 11.854445457458496 12.13033676147461 11.841245651245117 L12.13033676147461 11.841245651245117"></path>
<path fill="none" stroke="black" stroke-width=".3" stroke-opacity="1.0"  filling="0" d="M12.174272537231445 12.050427436828613 L12.174272537231445 12.050427436828613 C12.183772087097168 12.052263259887695 12.193272590637207 12.054100036621094 12.20277214050293 12.055935859680176 L12.20277214050293 12.055935859680176 C12.21530818939209 12.091590881347656 12.227845191955566 12.12724494934082 12.240381240844727 12.1628999710083 L12.240381240844727 12.1628999710083 C12.200008392333984 12.177754402160645 12.159636497497559 12.192608833312988 12.119263648986816 12.207463264465332 L12.119263648986816 12.207463264465332 C12.13759994506836 12.155117988586426 12.155936241149902 12.10277271270752 12.174272537231445 12.050427436828613 L12.174272537231445 12.050427436828613"></path></svg>