<svg xmlns="http://www.w3.org/2000/svg" viewBox="0.0 0.0 24.0 24.0" height="200px" width="200px"><path fill="none" stroke="black" stroke-width=".3" stroke-opacity="1.0"  filling="0" d="M11.879645347595215 11.84162712097168 L11.879645347595215 11.84162712097168 C11.892463684082031 11.842463493347168 11.905282020568848 11.843299865722656 11.918100357055664 11.844136238098145 L11.918100357055664 11.844136238098145 C11.926970481872559 11.977922439575195 11.982882499694824 12.147892951965332 11.890910148620605 12.245454788208008 L11.890910148620605 12.245454788208008 C11.845455169677734 12.245454788208008 11.800000190734863 12.245454788208008 11.754545211791992 12.245454788208008 L11.754545211791992 12.245454788208008 C11.727190971374512 12.210145950317383 11.699836730957031 12.174836158752441 11.67248249053955 12.139527320861816 L11.67248249053955 12.139527320861816 C11.731745719909668 12.083309173583984 11.791009902954102 12.027091026306152 11.850273132324219 11.97087287902832 L11.850273132324219 11.97087287902832 C11.860063552856445 11.927790641784668 11.869854927062988 11.884709358215332 11.879645347595215 11.84162712097168 L11.879645347595215 11.84162712097168"></path>
<path fill="none" stroke="black" stroke-width=".3" stroke-opacity="1.0"  filling="0" d="M11.821609497070312 12.002781867980957 L11.821609497070312 12.002781867980957 C11.8259916305542 12.06200885772705 11.83037281036377 12.121236801147461 11.834754943847656 12.180463790893555 L11.834754943847656 12.180463790893555 C11.83037281036377 12.121236801147461 11.8259916305542 12.06200885772705 11.821609497070312 12.002781867980957 L11.821609497070312 12.002781867980957"></path></svg>