<svg xmlns="http://www.w3.org/2000/svg" viewBox="0.0 0.0 24.0 24.0" height="200px" width="200px"><path fill="none" stroke="black" stroke-width=".3" stroke-opacity="1.0"  filling="0" d="M12.966899871826172 11.931517601013184 L12.966899871826172 11.931517601013184 C13.010554313659668 11.946372032165527 13.05420970916748 11.961227416992188 13.097864151000977 11.976081848144531 L13.097864151000977 11.976081848144531 C13.097136497497559 11.988436698913574 13.096409797668457 12.0007905960083 13.095682144165039 12.013145446777344 L13.095682144165039 12.013145446777344 C13.059282302856445 12.03300952911377 13.022882461547852 12.052872657775879 12.986482620239258 12.072736740112305 L12.986482620239258 12.072736740112305 C12.988945960998535 12.041991233825684 12.991409301757812 12.011245727539062 12.99387264251709 11.980500221252441 L12.99387264251709 11.980500221252441 C12.941845893859863 11.978261947631836 12.973258018493652 12.083792686462402 12.976555824279785 12.135763168334961 L12.976555824279785 12.135763168334961 C13.01410961151123 12.12827205657959 13.051664352416992 12.120781898498535 13.089218139648438 12.113290786743164 L13.089218139648438 12.113290786743164 C12.874778747558594 12.247138977050781 12.85543441772461 12.10326862335205 12.966899871826172 11.931517601013184 L12.966899871826172 11.931517601013184"></path></svg>