<svg xmlns="http://www.w3.org/2000/svg" viewBox="0.0 0.0 24.0 24.0" height="200px" width="200px"><path fill="none" stroke="black" stroke-width=".3" stroke-opacity="1.0"  filling="0" d="M12.495654106140137 11.875391006469727 L12.495654106140137 11.875391006469727 C12.524017333984375 11.901700019836426 12.55238151550293 11.928009033203125 12.580744743347168 11.954318046569824 L12.580744743347168 11.954318046569824 C12.579554557800293 11.952981948852539 12.578363418579102 11.951644897460938 12.577173233032227 11.950308799743652 L12.577173233032227 11.950308799743652 C12.5625 11.972744941711426 12.54782772064209 11.995182037353516 12.533154487609863 12.017618179321289 L12.533154487609863 12.017618179321289 C12.47531795501709 12.010409355163574 12.417481422424316 12.003199577331543 12.359644889831543 11.995990753173828 L12.359644889831543 11.995990753173828 C12.386399269104004 12.03158187866211 12.413153648376465 12.067172050476074 12.439908027648926 12.102763175964355 L12.439908027648926 12.102763175964355 C12.476317405700684 12.087300300598145 12.512726783752441 12.071836471557617 12.5491361618042 12.056373596191406 L12.5491361618042 12.056373596191406 C12.50195598602295 12.097577095031738 12.450701713562012 12.153231620788574 12.388062477111816 12.153162956237793 L12.388062477111816 12.153162956237793 C12.42392635345459 12.060572624206543 12.459790229797363 11.967981338500977 12.495654106140137 11.875391006469727 L12.495654106140137 11.875391006469727"></path></svg>