<svg xmlns="http://www.w3.org/2000/svg" viewBox="0.0 0.0 24.0 24.0" height="200px" width="200px"><path fill="none" stroke="black" stroke-width=".3" stroke-opacity="1.0"  filling="0" d="M13.954691886901855 11.809908866882324 L13.954691886901855 11.809908866882324 C13.954691886901855 11.936182022094727 13.954691886901855 12.062455177307129 13.954691886901855 12.188728332519531 L13.954691886901855 12.188728332519531 C13.882073402404785 12.19274616241455 13.809455871582031 12.19676399230957 13.736837387084961 12.20078182220459 L13.736837387084961 12.20078182220459 C13.712610244750977 12.15241813659668 13.688382148742676 12.10405445098877 13.664155006408691 12.05569076538086 L13.664155006408691 12.05569076538086 C13.730682373046875 11.99669075012207 13.797208786010742 11.937690734863281 13.863736152648926 11.878690719604492 L13.863736152648926 11.878690719604492 C13.86050033569336 11.858354568481445 13.857263565063477 11.838018417358398 13.85402774810791 11.817682266235352 L13.85402774810791 11.817682266235352 C13.887582778930664 11.815091133117676 13.921136856079102 11.8125 13.954691886901855 11.809908866882324 L13.954691886901855 11.809908866882324"></path>
<path fill="none" stroke="black" stroke-width=".3" stroke-opacity="1.0"  filling="0" d="M13.819145202636719 11.972564697265625 L13.819145202636719 11.972564697265625 C13.836344718933105 12.029064178466797 13.853545188903809 12.085564613342285 13.870744705200195 12.142064094543457 L13.870744705200195 12.142064094543457 C13.853545188903809 12.085564613342285 13.836344718933105 12.029064178466797 13.819145202636719 11.972564697265625 L13.819145202636719 11.972564697265625"></path></svg>