<svg xmlns="http://www.w3.org/2000/svg" viewBox="0.0 0.0 24.0 24.0" height="200px" width="200px"><path fill="none" stroke="black" stroke-width=".3" stroke-opacity="1.0"  filling="0" d="M12.121417999267578 11.864945411682129 L12.121417999267578 11.864945411682129 C12.135499954223633 11.991790771484375 12.149581909179688 12.118636131286621 12.163663864135742 12.245481491088867 L12.163663864135742 12.245481491088867 C12.090936660766602 12.245481491088867 12.018209457397461 12.245481491088867 11.94548225402832 12.245481491088867 L11.94548225402832 12.245481491088867 C11.955737113952637 12.171481132507324 11.965991020202637 12.097481727600098 11.976245880126953 12.023481369018555 L11.976245880126953 12.023481369018555 C12.00153636932373 12.083563804626465 12.026827812194824 12.143645286560059 12.052118301391602 12.203727722167969 L12.052118301391602 12.203727722167969 C12.025518417358398 12.144946098327637 11.998917579650879 12.086163520812988 11.972317695617676 12.027381896972656 L11.972317695617676 12.027381896972656 C12.008654594421387 12.012154579162598 12.044990539550781 11.996927261352539 12.081327438354492 11.98169994354248 L12.081327438354492 11.98169994354248 C12.074399948120117 11.944245338439941 12.067473411560059 11.906790733337402 12.060545921325684 11.869336128234863 L12.060545921325684 11.869336128234863 C12.080836296081543 11.86787223815918 12.101127624511719 11.866409301757812 12.121417999267578 11.864945411682129 L12.121417999267578 11.864945411682129"></path></svg>