<svg xmlns="http://www.w3.org/2000/svg" viewBox="0.0 0.0 24.0 24.0" height="200px" width="200px"><path fill="none" stroke="black" stroke-width=".3" stroke-opacity="1.0"  filling="0" d="M11.892000198364258 11.869853973388672 L11.892000198364258 11.869853973388672 C11.928009033203125 11.869853973388672 11.964018821716309 11.869853973388672 12.000027656555176 11.869853973388672 L12.000027656555176 11.869853973388672 C12.000027656555176 11.995054244995117 12.000027656555176 12.120254516601562 12.000027656555176 12.245454788208008 L12.000027656555176 12.245454788208008 C11.918200492858887 12.245454788208008 11.836372375488281 12.245454788208008 11.754545211791992 12.245454788208008 L11.754545211791992 12.245454788208008 C11.740045547485352 12.202963829040527 11.725545883178711 12.16047191619873 11.71104621887207 12.11798095703125 L11.71104621887207 12.11798095703125 C11.77528190612793 12.069135665893555 11.839518547058105 12.020291328430176 11.903754234313965 11.97144603729248 L11.903754234313965 11.97144603729248 C11.899836540222168 11.937582015991211 11.895917892456055 11.903717994689941 11.892000198364258 11.869853973388672 L11.892000198364258 11.869853973388672"></path>
<path fill="none" stroke="black" stroke-width=".3" stroke-opacity="1.0"  filling="0" d="M11.880544662475586 12.02029037475586 L11.880544662475586 12.02029037475586 C11.894762992858887 12.071245193481445 11.908981323242188 12.122200012207031 11.923199653625488 12.173154830932617 L11.923199653625488 12.173154830932617 C11.915708541870117 12.18051815032959 11.908217430114746 12.187881469726562 11.900726318359375 12.195244789123535 L11.900726318359375 12.195244789123535 C11.848658561706543 12.168130874633789 11.856693267822266 12.073931694030762 11.880544662475586 12.02029037475586 L11.880544662475586 12.02029037475586"></path></svg>