<svg xmlns="http://www.w3.org/2000/svg" viewBox="0.0 0.0 24.0 24.0" height="200px" width="200px"><path fill="none" stroke="black" stroke-width=".3" stroke-opacity="1.0"  filling="0" d="M12.064555168151855 11.955163955688477 L12.064555168151855 11.955163955688477 C12.076581954956055 12.040308952331543 12.08860969543457 12.125454902648926 12.10063648223877 12.210599899291992 L12.10063648223877 12.210599899291992 C12.059609413146973 12.215690612792969 12.01858139038086 12.220782279968262 11.977554321289062 12.225872993469238 L11.977554321289062 12.225872993469238 C11.975954055786133 12.250591278076172 11.97435474395752 12.275308609008789 11.97275447845459 12.300026893615723 L11.97275447845459 12.300026893615723 C11.954564094543457 12.300017356872559 11.936372756958008 12.300008773803711 11.918182373046875 12.299999237060547 L11.918182373046875 12.299999237060547 C11.918182373046875 12.18974494934082 11.918182373046875 12.079490661621094 11.918182373046875 11.969236373901367 L11.918182373046875 11.969236373901367 C11.966973304748535 11.964545249938965 12.015764236450195 11.959855079650879 12.064555168151855 11.955163955688477 L12.064555168151855 11.955163955688477"></path>
<path fill="none" stroke="black" stroke-width=".3" stroke-opacity="1.0"  filling="0" d="M11.993208885192871 12.015082359313965 L11.993208885192871 12.015082359313965 C12.010090827941895 12.071782112121582 12.026972770690918 12.128482818603516 12.043854713439941 12.185182571411133 L12.043854713439941 12.185182571411133 C12.026972770690918 12.128482818603516 12.010090827941895 12.071782112121582 11.993208885192871 12.015082359313965 L11.993208885192871 12.015082359313965"></path></svg>