<svg xmlns="http://www.w3.org/2000/svg" viewBox="0.0 0.0 24.0 24.0" height="200px" width="200px"><path fill="none" stroke="black" stroke-width=".3" stroke-opacity="1.0"  filling="0" d="M12.533427238464355 11.864483833312988 L12.533427238464355 11.864483833312988 C12.543736457824707 11.865438461303711 12.554046630859375 11.866393089294434 12.564355850219727 11.867347717285156 L12.564355850219727 11.867347717285156 C12.572237968444824 11.916738510131836 12.580119132995605 11.966130256652832 12.588001251220703 12.015521049499512 L12.588001251220703 12.015521049499512 C12.764533042907715 12.022233963012695 12.731021881103516 12.096883773803711 12.756300926208496 12.256884574890137 L12.756300926208496 12.256884574890137 C12.731473922729492 12.271257400512695 12.706645965576172 12.285629272460938 12.681818962097168 12.300002098083496 L12.681818962097168 12.300002098083496 C12.672727584838867 12.30000114440918 12.663637161254883 12.300000190734863 12.654545783996582 12.299999237060547 L12.654545783996582 12.299999237060547 C12.657591819763184 12.2215576171875 12.62243366241455 12.143159866333008 12.581727981567383 12.076037406921387 L12.581727981567383 12.076037406921387 C12.576473236083984 12.139837265014648 12.571218490600586 12.20363712310791 12.565963745117188 12.267436981201172 L12.565963745117188 12.267436981201172 C12.54765510559082 12.268427848815918 12.529345512390137 12.26941967010498 12.51103687286377 12.270410537719727 L12.51103687286377 12.270410537719727 C12.433684349060059 12.159141540527344 12.520013809204102 11.999332427978516 12.533427238464355 11.864483833312988 L12.533427238464355 11.864483833312988"></path></svg>