<svg xmlns="http://www.w3.org/2000/svg" viewBox="0.0 0.0 24.0 24.0" height="200px" width="200px"><path fill="none" stroke="black" stroke-width=".3" stroke-opacity="1.0"  filling="0" d="M12.779509544372559 11.982354164123535 L12.779509544372559 11.982354164123535 C12.7888822555542 12.011281967163086 12.79825496673584 12.04020881652832 12.80762767791748 12.069136619567871 L12.80762767791748 12.069136619567871 C12.756128311157227 12.086020469665527 12.704334259033203 12.102421760559082 12.6543550491333 12.123381614685059 L12.6543550491333 12.123381614685059 C12.65487289428711 12.135072708129883 12.655391693115234 12.146763801574707 12.655909538269043 12.158454895019531 L12.655909538269043 12.158454895019531 C12.70494556427002 12.16236400604248 12.753982543945312 12.166272163391113 12.803018569946289 12.170181274414062 L12.803018569946289 12.170181274414062 C12.798991203308105 12.195272445678711 12.794964790344238 12.22036361694336 12.790937423706055 12.245454788208008 L12.790937423706055 12.245454788208008 C12.745473861694336 12.245454788208008 12.7000093460083 12.245454788208008 12.654545783996582 12.245454788208008 L12.654545783996582 12.245454788208008 C12.614469528198242 12.157022476196289 12.69895076751709 12.036545753479004 12.779509544372559 11.982354164123535 L12.779509544372559 11.982354164123535"></path></svg>