<svg xmlns="http://www.w3.org/2000/svg" viewBox="0.0 0.0 24.0 24.0" height="200px" width="200px"><path fill="none" stroke="black" stroke-width=".3" stroke-opacity="1.0"  filling="0" d="M11.888508796691895 11.964327812194824 L11.888508796691895 11.964327812194824 C11.925408363342285 11.986818313598633 11.962308883666992 12.009309768676758 11.999208450317383 12.031800270080566 L11.999208450317383 12.031800270080566 C12.00829029083252 12.102437973022461 12.017725944519043 12.176477432250977 11.999999046325684 12.245454788208008 L11.999999046325684 12.245454788208008 C11.909090042114258 12.245454788208008 11.818181991577148 12.245454788208008 11.727272987365723 12.245454788208008 L11.727272987365723 12.245454788208008 C11.7660551071167 12.201545715332031 11.80483627319336 12.157636642456055 11.843618392944336 12.113727569580078 L11.843618392944336 12.113727569580078 C11.843618392944336 12.137309074401855 11.843618392944336 12.16089153289795 11.843618392944336 12.184473037719727 L11.843618392944336 12.184473037719727 C11.864054679870605 12.186145782470703 11.884490966796875 12.18781852722168 11.904927253723145 12.189491271972656 L11.904927253723145 12.189491271972656 C11.91213607788086 12.134918212890625 11.919344902038574 12.08034610748291 11.926553726196289 12.025773048400879 L11.926553726196289 12.025773048400879 C11.910226821899414 12.010900497436523 11.893898963928223 11.996027946472168 11.877572059631348 11.981155395507812 L11.877572059631348 11.981155395507812 C11.881217956542969 11.975545883178711 11.884862899780273 11.969937324523926 11.888508796691895 11.964327812194824 L11.888508796691895 11.964327812194824"></path></svg>