<svg xmlns="http://www.w3.org/2000/svg" viewBox="0.0 0.0 24.0 24.0" height="200px" width="200px"><path fill="none" stroke="black" stroke-width=".3" stroke-opacity="1.0"  filling="0" d="M10.788846015930176 11.863800048828125 L10.788846015930176 11.863800048828125 C10.97720718383789 11.864211082458496 11.214524269104004 11.946314811706543 10.898045539855957 12.064499855041504 L10.898045539855957 12.064499855041504 C10.898045539855957 12.121508598327637 10.898045539855957 12.178518295288086 10.898045539855957 12.235527038574219 L10.898045539855957 12.235527038574219 C10.861645698547363 12.235527038574219 10.82524585723877 12.235527038574219 10.788846015930176 12.235527038574219 L10.788846015930176 12.235527038574219 C10.788846015930176 12.111618041992188 10.788846015930176 11.987709045410156 10.788846015930176 11.863800048828125 L10.788846015930176 11.863800048828125"></path>
<path fill="none" stroke="black" stroke-width=".3" stroke-opacity="1.0"  filling="0" d="M10.92379093170166 11.89540958404541 L10.92379093170166 11.89540958404541 C10.950300216674805 11.923846244812012 10.97680950164795 11.952281951904297 11.003318786621094 11.980718612670898 L11.003318786621094 11.980718612670898 C10.96737289428711 12.001782417297363 10.931427955627441 12.022845268249512 10.895482063293457 12.043909072875977 L10.895482063293457 12.043909072875977 C10.895482063293457 11.998618125915527 10.895482063293457 11.953328132629395 10.895482063293457 11.908037185668945 L10.895482063293457 11.908037185668945 C10.904918670654297 11.903827667236328 10.91435432434082 11.899619102478027 10.92379093170166 11.89540958404541 L10.92379093170166 11.89540958404541"></path></svg>