<svg xmlns="http://www.w3.org/2000/svg" viewBox="0.0 0.0 24.0 24.0" height="200px" width="200px"><path fill="none" stroke="black" stroke-width=".3" stroke-opacity="1.0"  filling="0" d="M13.095409393310547 11.972126960754395 L13.095409393310547 11.972126960754395 C13.125290870666504 12.000208854675293 13.155172348022461 12.028290748596191 13.185053825378418 12.05637264251709 L13.185053825378418 12.05637264251709 C13.149544715881348 12.076508522033691 13.114036560058594 12.09664535522461 13.078527450561523 12.116781234741211 L13.078527450561523 12.116781234741211 C13.078527450561523 12.088208198547363 13.078527450561523 12.059636116027832 13.078527450561523 12.031063079833984 L13.078527450561523 12.031063079833984 C13.071745872497559 12.029208183288574 13.064963340759277 12.02735424041748 13.058181762695312 12.02549934387207 L13.058181762695312 12.02549934387207 C13.042108535766602 12.062553405761719 13.026036262512207 12.099608421325684 13.009963035583496 12.136662483215332 L13.009963035583496 12.136662483215332 C13.064690589904785 12.152481079101562 13.119417190551758 12.168298721313477 13.174144744873047 12.184117317199707 L13.174144744873047 12.184117317199707 C13.164581298828125 12.204562187194824 13.155016899108887 12.225008010864258 13.145453453063965 12.245452880859375 L13.145453453063965 12.245452880859375 C13.09999942779541 12.245453834533691 13.054544448852539 12.245453834533691 13.009090423583984 12.245454788208008 L13.009090423583984 12.245454788208008 C12.985554695129395 12.182854652404785 12.962018013000488 12.120255470275879 12.938482284545898 12.057655334472656 L12.938482284545898 12.057655334472656 C12.988707542419434 12.025617599487305 13.040719985961914 11.99575138092041 13.095409393310547 11.972126960754395 L13.095409393310547 11.972126960754395"></path></svg>