<svg xmlns="http://www.w3.org/2000/svg" viewBox="0.0 0.0 24.0 24.0" height="200px" width="200px"><path fill="none" stroke="black" stroke-width=".3" stroke-opacity="1.0"  filling="0" d="M12.272154808044434 11.919683456420898 L12.272154808044434 11.919683456420898 C12.408600807189941 11.919683456420898 12.545045852661133 11.919683456420898 12.68149185180664 11.919683456420898 L12.68149185180664 11.919683456420898 C12.645255088806152 12.015382766723633 12.60901927947998 12.111082077026367 12.572782516479492 12.206781387329102 L12.572782516479492 12.206781387329102 C12.576054573059082 12.244999885559082 12.579327583312988 12.283218383789062 12.582599639892578 12.321436882019043 L12.582599639892578 12.321436882019043 C12.527313232421875 12.216696739196777 12.476641654968262 12.094223976135254 12.49470043182373 11.9771728515625 L12.49470043182373 11.9771728515625 C12.411112785339355 12.03297233581543 12.36206340789795 12.128952980041504 12.306300163269043 12.212564468383789 L12.306300163269043 12.212564468383789 C12.294918060302734 12.210301399230957 12.283536911010742 12.208037376403809 12.272154808044434 12.205774307250977 L12.272154808044434 12.205774307250977 C12.272154808044434 12.110410690307617 12.272154808044434 12.015047073364258 12.272154808044434 11.919683456420898 L12.272154808044434 11.919683456420898"></path>
<path fill="none" stroke="black" stroke-width=".3" stroke-opacity="1.0"  filling="0" d="M12.624954223632812 11.975181579589844 L12.624954223632812 11.975181579589844 C12.6426362991333 12.0171537399292 12.660317420959473 12.059126853942871 12.677999496459961 12.101099014282227 L12.677999496459961 12.101099014282227 C12.647245407104492 12.119917869567871 12.616490364074707 12.1387357711792 12.585736274719238 12.157554626464844 L12.585736274719238 12.157554626464844 C12.572772979736328 12.109563827514648 12.559808731079102 12.061573028564453 12.546845436096191 12.013582229614258 L12.546845436096191 12.013582229614258 C12.572881698608398 12.000782012939453 12.598917961120605 11.987981796264648 12.624954223632812 11.975181579589844 L12.624954223632812 11.975181579589844"></path></svg>