<svg xmlns="http://www.w3.org/2000/svg" viewBox="0.0 0.0 24.0 24.0" height="200px" width="200px"><path fill="none" stroke="black" stroke-width=".3" stroke-opacity="1.0"  filling="0" d="M13.19999885559082 11.9181547164917 L13.19999885559082 11.9181547164917 C13.19999885559082 11.999981880187988 13.199999809265137 12.081809043884277 13.199999809265137 12.163636207580566 L13.199999809265137 12.163636207580566 C13.18529987335205 12.12688159942627 13.170599937438965 12.090127944946289 13.155900001525879 12.053373336791992 L13.155900001525879 12.053373336791992 C13.128554344177246 12.06185531616211 13.10120964050293 12.07033634185791 13.073863983154297 12.078818321228027 L13.073863983154297 12.078818321228027 C13.070363998413086 12.086255073547363 13.066863059997559 12.093690872192383 13.063363075256348 12.101127624511719 L13.063363075256348 12.101127624511719 C13.086944580078125 12.108282089233398 13.110527038574219 12.115436553955078 13.134108543395996 12.122591018676758 L13.134108543395996 12.122591018676758 C13.125081062316895 12.136518478393555 13.116053581237793 12.150444984436035 13.107026100158691 12.164372444152832 L13.107026100158691 12.164372444152832 C13.063672065734863 12.14981746673584 13.020317077636719 12.135263442993164 12.97696304321289 12.120708465576172 L12.97696304321289 12.120708465576172 C13.05734634399414 12.060504913330078 13.134580612182617 11.994354248046875 13.19999885559082 11.9181547164917 L13.19999885559082 11.9181547164917"></path></svg>