<svg xmlns="http://www.w3.org/2000/svg" viewBox="0.0 0.0 24.0 24.0" height="200px" width="200px"><path fill="none" stroke="black" stroke-width=".3" stroke-opacity="1.0"  filling="0" d="M13.16798210144043 11.923254013061523 L13.16798210144043 11.923254013061523 C13.205918312072754 11.930663108825684 13.243855476379395 11.938072204589844 13.281791687011719 11.945481300354004 L13.281791687011719 11.945481300354004 C13.281800270080566 12.027290344238281 13.281808853149414 12.109099388122559 13.281817436218262 12.190908432006836 L13.281817436218262 12.190908432006836 C13.215971946716309 12.172835350036621 13.150127410888672 12.154763221740723 13.084281921386719 12.136690139770508 L13.084281921386719 12.136690139770508 C13.107645988464355 12.110081672668457 13.131009101867676 12.08347225189209 13.154373168945312 12.056863784790039 L13.154373168945312 12.056863784790039 C13.185700416564941 12.08863639831543 13.21702766418457 12.12040901184082 13.2483549118042 12.152181625366211 L13.2483549118042 12.152181625366211 C13.243182182312012 12.081663131713867 13.238009452819824 12.01114559173584 13.232836723327637 11.940627098083496 L13.232836723327637 11.940627098083496 C13.208555221557617 11.9680814743042 13.184272766113281 11.995535850524902 13.159991264343262 12.022990226745605 L13.159991264343262 12.022990226745605 C13.162654876708984 11.989745140075684 13.165318489074707 11.956499099731445 13.16798210144043 11.923254013061523 L13.16798210144043 11.923254013061523"></path></svg>