<svg xmlns="http://www.w3.org/2000/svg" viewBox="0.0 0.0 24.0 24.0" height="200px" width="200px"><path fill="none" stroke="black" stroke-width=".3" stroke-opacity="1.0"  filling="0" d="M12.136717796325684 11.905255317687988 L12.136717796325684 11.905255317687988 C12.194600105285645 11.931309700012207 12.252481460571289 11.957364082336426 12.31036376953125 11.983418464660645 L12.31036376953125 11.983418464660645 C12.2560453414917 11.964673042297363 12.201727867126465 11.945926666259766 12.147409439086914 11.927181243896484 L12.147409439086914 11.927181243896484 C12.143199920654297 11.976908683776855 12.138991355895996 12.026636123657227 12.134781837463379 12.076363563537598 L12.134781837463379 12.076363563537598 C12.183436393737793 12.082118034362793 12.23208999633789 12.087872505187988 12.280744552612305 12.093626976013184 L12.280744552612305 12.093626976013184 C12.286480903625488 12.102082252502441 12.292218208312988 12.110536575317383 12.297954559326172 12.11899185180664 L12.297954559326172 12.11899185180664 C12.245018005371094 12.137336730957031 12.192081451416016 12.155682563781738 12.139144897460938 12.174027442932129 L12.139144897460938 12.174027442932129 C12.138336181640625 12.084436416625977 12.137526512145996 11.99484634399414 12.136717796325684 11.905255317687988 L12.136717796325684 11.905255317687988"></path></svg>