<svg xmlns="http://www.w3.org/2000/svg" viewBox="0.0 0.0 24.0 24.0" height="200px" width="200px"><path fill="none" stroke="black" stroke-width=".3" stroke-opacity="1.0"  filling="0" d="M12.481855392456055 11.80750846862793 L12.481855392456055 11.80750846862793 C12.471210479736328 11.84878158569336 12.460564613342285 11.890053749084473 12.449919700622559 11.931326866149902 L12.449919700622559 11.931326866149902 C12.554078102111816 11.998539924621582 12.619852066040039 12.137749671936035 12.620646476745605 12.261709213256836 L12.620646476745605 12.261709213256836 C12.58992862701416 12.237445831298828 12.559209823608398 12.213181495666504 12.528491973876953 12.188918113708496 L12.528491973876953 12.188918113708496 C12.54609203338623 12.137282371520996 12.563693046569824 12.08564567565918 12.581293106079102 12.03400993347168 L12.581293106079102 12.03400993347168 C12.5377836227417 12.03400993347168 12.494274139404297 12.03400993347168 12.450764656066895 12.03400993347168 L12.450764656066895 12.03400993347168 C12.459518432617188 12.093582153320312 12.468273162841797 12.153154373168945 12.47702693939209 12.212726593017578 L12.47702693939209 12.212726593017578 C12.448872566223145 12.212726593017578 12.4207181930542 12.212726593017578 12.392563819885254 12.212726593017578 L12.392563819885254 12.212726593017578 C12.3858003616333 12.090599060058594 12.379036903381348 11.968472480773926 12.372273445129395 11.846344947814941 L12.372273445129395 11.846344947814941 C12.408801078796387 11.833399772644043 12.445327758789062 11.820453643798828 12.481855392456055 11.80750846862793 L12.481855392456055 11.80750846862793"></path></svg>