<svg xmlns="http://www.w3.org/2000/svg" viewBox="0.0 0.0 24.0 24.0" height="200px" width="200px"><path fill="none" stroke="black" stroke-width=".3" stroke-opacity="1.0"  filling="0" d="M11.835709571838379 11.984782218933105 L11.835709571838379 11.984782218933105 C11.848800659179688 12.033209800720215 11.861891746520996 12.081636428833008 11.874982833862305 12.130064010620117 L11.874982833862305 12.130064010620117 C11.837482452392578 12.091255187988281 11.799983024597168 12.052445411682129 11.762482643127441 12.013636589050293 L11.762482643127441 12.013636589050293 C11.75972843170166 12.070408821105957 11.756973266601562 12.127182006835938 11.754219055175781 12.183954238891602 L11.754219055175781 12.183954238891602 C11.799846649169922 12.183954238891602 11.845473289489746 12.183954238891602 11.891100883483887 12.183954238891602 L11.891100883483887 12.183954238891602 C11.881937026977539 12.20445442199707 11.872774124145508 12.224954605102539 11.86361026763916 12.245454788208008 L11.86361026763916 12.245454788208008 C11.818164825439453 12.245454788208008 11.77271842956543 12.245454788208008 11.727272987365723 12.245454788208008 L11.727272987365723 12.245454788208008 C11.724764823913574 12.151379585266113 11.746088027954102 12.013495445251465 11.835709571838379 11.984782218933105 L11.835709571838379 11.984782218933105"></path></svg>