<svg xmlns="http://www.w3.org/2000/svg" viewBox="0.0 0.0 24.0 24.0" height="200px" width="200px"><path fill="none" stroke="black" stroke-width=".3" stroke-opacity="1.0"  filling="0" d="M11.698172569274902 11.92385482788086 L11.698172569274902 11.92385482788086 C11.726354598999023 11.969218254089355 11.754536628723145 12.014582633972168 11.782718658447266 12.059946060180664 L11.782718658447266 12.059946060180664 C11.804536819458008 12.02753734588623 11.82635498046875 11.99512767791748 11.848173141479492 11.962718963623047 L11.848173141479492 11.962718963623047 C11.85588264465332 11.966582298278809 11.863591194152832 11.97044563293457 11.87130069732666 11.974308967590332 L11.87130069732666 11.974308967590332 C11.837236404418945 12.048508644104004 11.803173065185547 12.122709274291992 11.769108772277832 12.196908950805664 L11.769108772277832 12.196908950805664 C11.75900936126709 12.193890571594238 11.748908996582031 12.190872192382812 11.738809585571289 12.187853813171387 L11.738809585571289 12.187853813171387 C11.729891777038574 12.146018028259277 11.720973014831543 12.104181289672852 11.712055206298828 12.062345504760742 L11.712055206298828 12.062345504760742 C11.678982734680176 12.109537124633789 11.645909309387207 12.15672779083252 11.612836837768555 12.203919410705566 L11.612836837768555 12.203919410705566 C11.572636604309082 12.122573852539062 11.532437324523926 12.041228294372559 11.492237091064453 11.959882736206055 L11.492237091064453 11.959882736206055 C11.543564796447754 11.997237205505371 11.594891548156738 12.034592628479004 11.646219253540039 12.07194709777832 L11.646219253540039 12.07194709777832 C11.66353702545166 12.0225830078125 11.680854797363281 11.97321891784668 11.698172569274902 11.92385482788086 L11.698172569274902 11.92385482788086"></path></svg>