<svg xmlns="http://www.w3.org/2000/svg" viewBox="0.0 0.0 24.0 24.0" height="200px" width="200px"><path fill="none" stroke="black" stroke-width=".3" stroke-opacity="1.0"  filling="0" d="M11.938445091247559 11.948836326599121 L11.938445091247559 11.948836326599121 C11.936036109924316 12.02510929107666 11.933626174926758 12.1013822555542 11.931217193603516 12.177655220031738 L11.931217193603516 12.177655220031738 C11.897029876708984 11.898456573486328 11.713776588439941 11.994131088256836 11.881553649902344 12.169227600097656 L11.881553649902344 12.169227600097656 C11.827489852905273 12.144800186157227 11.77342700958252 12.120372772216797 11.71936321258545 12.095945358276367 L11.71936321258545 12.095945358276367 C11.663163185119629 12.130526542663574 11.606962203979492 12.165108680725098 11.550762176513672 12.199689865112305 L11.550762176513672 12.199689865112305 C11.56306266784668 12.128190040588379 11.575362205505371 12.056690216064453 11.587662696838379 11.985190391540527 L11.587662696838379 11.985190391540527 C11.56146240234375 11.993881225585938 11.535262107849121 12.002573013305664 11.509061813354492 12.011263847351074 L11.509061813354492 12.011263847351074 C11.509061813354492 12.089327812194824 11.509061813354492 12.167390823364258 11.509061813354492 12.245454788208008 L11.509061813354492 12.245454788208008 C11.490889549255371 12.245454788208008 11.47271728515625 12.245454788208008 11.454545021057129 12.245454788208008 L11.454545021057129 12.245454788208008 C11.434123039245605 12.151586532592773 11.429018020629883 12.054616928100586 11.427108764648438 11.958572387695312 L11.427108764648438 11.958572387695312 C11.514327049255371 11.988245010375977 11.601545333862305 12.01791763305664 11.688763618469238 12.047590255737305 L11.688763618469238 12.047590255737305 C11.771990776062012 12.01467227935791 11.855217933654785 11.981754302978516 11.938445091247559 11.948836326599121 L11.938445091247559 11.948836326599121"></path></svg>