<svg xmlns="http://www.w3.org/2000/svg" viewBox="0.0 0.0 24.0 24.0" height="200px" width="200px"><path fill="none" stroke="black" stroke-width=".3" stroke-opacity="1.0"  filling="0" d="M14.736299514770508 11.886817932128906 L14.736299514770508 11.886817932128906 C14.81380844116211 11.89571762084961 14.891317367553711 11.904618263244629 14.968826293945312 11.913517951965332 L14.968826293945312 11.913517951965332 C14.967644691467285 11.912109375 14.966464042663574 11.910699844360352 14.965282440185547 11.90929126739502 L14.965282440185547 11.90929126739502 C14.95462703704834 11.994227409362793 14.94397258758545 12.079163551330566 14.933317184448242 12.16409969329834 L14.933317184448242 12.16409969329834 C14.91010856628418 12.154608726501465 14.8868989944458 12.14511775970459 14.863690376281738 12.135626792907715 L14.863690376281738 12.135626792907715 C14.863690376281738 12.064581871032715 14.863690376281738 11.993535995483398 14.863690376281738 11.922491073608398 L14.863690376281738 11.922491073608398 C14.802999496459961 11.997420310974121 14.747664451599121 12.07674789428711 14.695472717285156 12.157827377319336 L14.695472717285156 12.157827377319336 C14.709081649780273 12.067490577697754 14.72269058227539 11.977154731750488 14.736299514770508 11.886817932128906 L14.736299514770508 11.886817932128906"></path></svg>