<svg xmlns="http://www.w3.org/2000/svg" viewBox="0.0 0.0 24.0 24.0" height="200px" width="200px"><path fill="none" stroke="black" stroke-width=".3" stroke-opacity="1.0"  filling="0" d="M12.592554092407227 11.975046157836914 L12.592554092407227 11.975046157836914 C12.604135513305664 12.065173149108887 12.615717887878418 12.155301094055176 12.627299308776855 12.245428085327148 L12.627299308776855 12.245428085327148 C12.545480728149414 12.245428085327148 12.463663101196289 12.245428085327148 12.381844520568848 12.245428085327148 L12.381844520568848 12.245428085327148 C12.38158130645752 12.22652816772461 12.381317138671875 12.20762825012207 12.381053924560547 12.188728332519531 L12.381053924560547 12.188728332519531 C12.404618263244629 12.150437355041504 12.428181648254395 12.11214542388916 12.451745986938477 12.073854446411133 L12.451745986938477 12.073854446411133 C12.46058177947998 12.077681541442871 12.469417572021484 12.081509590148926 12.478253364562988 12.085336685180664 L12.478253364562988 12.085336685180664 C12.478253364562988 12.109455108642578 12.478253364562988 12.133573532104492 12.478253364562988 12.157691955566406 L12.478253364562988 12.157691955566406 C12.498881340026855 12.157691955566406 12.519508361816406 12.157691955566406 12.540136337280273 12.157691955566406 L12.540136337280273 12.157691955566406 C12.540136337280273 12.100854873657227 12.540136337280273 12.044018745422363 12.540136337280273 11.987181663513184 L12.540136337280273 11.987181663513184 C12.494717597961426 12.008235931396484 12.449299812316895 12.029291152954102 12.403881072998047 12.050345420837402 L12.403881072998047 12.050345420837402 C12.466772079467773 12.025245666503906 12.5296630859375 12.00014591217041 12.592554092407227 11.975046157836914 L12.592554092407227 11.975046157836914"></path></svg>