<svg xmlns="http://www.w3.org/2000/svg" viewBox="0.0 0.0 24.0 24.0" height="200px" width="200px"><path fill="none" stroke="black" stroke-width=".3" stroke-opacity="1.0"  filling="0" d="M13.223727226257324 11.903209686279297 L13.223727226257324 11.903209686279297 C13.254127502441406 11.913763999938965 13.284526824951172 11.92431926727295 13.314927101135254 11.934873580932617 L13.314927101135254 11.934873580932617 C13.29633617401123 11.976409912109375 13.277745246887207 12.017946243286133 13.259154319763184 12.05948257446289 L13.259154319763184 12.05948257446289 C13.242627143859863 12.020136833190918 13.226099967956543 11.980792045593262 13.209572792053223 11.941446304321289 L13.209572792053223 11.941446304321289 C13.182518005371094 11.962455749511719 13.155463218688965 11.983464241027832 13.128408432006836 12.004473686218262 L13.128408432006836 12.004473686218262 C13.163490295410156 12.025837898254395 13.198572158813477 12.047201156616211 13.233654022216797 12.068565368652344 L13.233654022216797 12.068565368652344 C13.224335670471191 12.076656341552734 13.215018272399902 12.084747314453125 13.205699920654297 12.092838287353516 L13.205699920654297 12.092838287353516 C13.252226829528809 12.121383666992188 13.298754692077637 12.14992904663086 13.345281600952148 12.178474426269531 L13.345281600952148 12.178474426269531 C13.31503677368164 12.21898365020752 13.284790992736816 12.259491920471191 13.254546165466309 12.30000114440918 L13.254546165466309 12.30000114440918 C13.198957443237305 12.300000190734863 13.142248153686523 12.282854080200195 13.093799591064453 12.255599975585938 L13.093799591064453 12.255599975585938 C13.094039916992188 12.130407333374023 13.123517036437988 11.978250503540039 13.223727226257324 11.903209686279297 L13.223727226257324 11.903209686279297"></path></svg>