<svg xmlns="http://www.w3.org/2000/svg" viewBox="0.0 0.0 24.0 24.0" height="200px" width="200px"><path fill="none" stroke="black" stroke-width=".3" stroke-opacity="1.0"  filling="0" d="M12.102954864501953 11.982572555541992 L12.102954864501953 11.982572555541992 C12.132272720336914 12.070199966430664 12.161590576171875 12.157827377319336 12.190908432006836 12.245454788208008 L12.190908432006836 12.245454788208008 C12.163636207580566 12.245454788208008 12.13636302947998 12.245454788208008 12.109090805053711 12.245454788208008 L12.109090805053711 12.245454788208008 C12.089054107666016 12.17265510559082 12.069018363952637 12.099855422973633 12.048981666564941 12.027055740356445 L12.048981666564941 12.027055740356445 C12.04174518585205 12.099855422973633 12.034509658813477 12.17265510559082 12.027273178100586 12.245454788208008 L12.027273178100586 12.245454788208008 C11.990909576416016 12.245454788208008 11.954545974731445 12.245454788208008 11.918182373046875 12.245454788208008 L11.918182373046875 12.245454788208008 C11.929464340209961 12.175772666931152 11.94074535369873 12.106091499328613 11.952027320861816 12.036409378051758 L11.952027320861816 12.036409378051758 C11.942317962646484 12.032818794250488 11.932609558105469 12.029228210449219 11.922900199890137 12.02563762664795 L11.922900199890137 12.02563762664795 C11.889036178588867 12.04840087890625 11.855173110961914 12.071165084838867 11.821309089660645 12.093928337097168 L11.821309089660645 12.093928337097168 C11.835409164428711 12.144436836242676 11.849509239196777 12.1949462890625 11.863609313964844 12.245454788208008 L11.863609313964844 12.245454788208008 C11.836345672607422 12.245454788208008 11.80908203125 12.245454788208008 11.781818389892578 12.245454788208008 L11.781818389892578 12.245454788208008 C11.781818389892578 12.165645599365234 11.781818389892578 12.085837364196777 11.781818389892578 12.006028175354004 L11.781818389892578 12.006028175354004 C11.888863563537598 11.998209953308105 11.995909690856934 11.99039077758789 12.102954864501953 11.982572555541992 L12.102954864501953 11.982572555541992"></path></svg>