<svg xmlns="http://www.w3.org/2000/svg" viewBox="0.0 0.0 24.0 24.0" height="200px" width="200px"><path fill="none" stroke="black" stroke-width=".3" stroke-opacity="1.0"  filling="0" d="M11.895027160644531 11.961108207702637 L11.895027160644531 11.961108207702637 C11.911836624145508 12.055890083312988 11.928645133972168 12.15067195892334 11.945454597473145 12.245453834533691 L11.945454597473145 12.245453834533691 C11.918181419372559 12.245453834533691 11.890909194946289 12.245453834533691 11.863636016845703 12.245453834533691 L11.863636016845703 12.245453834533691 C11.863636016845703 12.173135757446289 11.863636016845703 12.100817680358887 11.863636016845703 12.028499603271484 L11.863636016845703 12.028499603271484 C11.844427108764648 12.088281631469727 11.825218200683594 12.148062705993652 11.806009292602539 12.207844734191895 L11.806009292602539 12.207844734191895 C11.759224891662598 12.217647552490234 11.71934986114502 12.245453834533691 11.67272663116455 12.245453834533691 L11.67272663116455 12.245453834533691 C11.689677238464355 12.175080299377441 11.655269622802734 12.100932121276855 11.633727073669434 12.03182601928711 L11.633727073669434 12.03182601928711 C11.619454383850098 12.103034973144531 11.605181694030762 12.17424488067627 11.590909004211426 12.245453834533691 L11.590909004211426 12.245453834533691 C11.581818580627441 12.245453834533691 11.57272720336914 12.245454788208008 11.563636779785156 12.245454788208008 L11.563636779785156 12.245454788208008 C11.553091049194336 12.162327766418457 11.542545318603516 12.07919979095459 11.531999588012695 11.996072769165039 L11.531999588012695 11.996072769165039 C11.653008460998535 11.984417915344238 11.774018287658691 11.972763061523438 11.895027160644531 11.961108207702637 L11.895027160644531 11.961108207702637"></path></svg>