<svg xmlns="http://www.w3.org/2000/svg" viewBox="0.0 0.0 24.0 24.0" height="200px" width="200px"><path fill="none" stroke="black" stroke-width=".3" stroke-opacity="1.0"  filling="0" d="M12.597626686096191 11.978346824645996 L12.597626686096191 11.978346824645996 C12.637519836425781 12.033305168151855 12.66473388671875 12.0980224609375 12.682445526123047 12.163582801818848 L12.678709030151367 12.159436225891113 C12.620064735412598 12.248553276062012 12.591508865356445 12.217668533325195 12.472580909729004 12.217719078063965 L12.472580909729004 12.217719078063965 C12.467269897460938 12.167963981628418 12.46287727355957 12.118077278137207 12.4603910446167 12.06810188293457 L12.4603910446167 12.06810188293457 C12.44109058380127 12.115674018859863 12.421791076660156 12.163247108459473 12.402490615844727 12.210819244384766 L12.402490615844727 12.210819244384766 C12.377345085144043 12.210819244384766 12.35219955444336 12.210819244384766 12.327054023742676 12.210819244384766 L12.327054023742676 12.210819244384766 C12.3218355178833 12.140837669372559 12.316617965698242 12.070855140686035 12.311399459838867 12.000873565673828 L12.311399459838867 12.000873565673828 C12.406808853149414 11.993364334106445 12.502217292785645 11.985856056213379 12.597626686096191 11.978346824645996 L12.597626686096191 11.978346824645996"></path></svg>