<svg xmlns="http://www.w3.org/2000/svg" viewBox="0.0 0.0 24.0 24.0" height="200px" width="200px"><path fill="none" stroke="black" stroke-width=".3" stroke-opacity="1.0"  filling="0" d="M11.30729866027832 11.931218147277832 L11.30729866027832 11.931218147277832 C11.329344749450684 12.018318176269531 11.35138988494873 12.10541820526123 11.373435974121094 12.19251823425293 L11.373435974121094 12.19251823425293 C11.28707218170166 12.132563591003418 11.200708389282227 12.072608947753906 11.114344596862793 12.012654304504395 L11.114344596862793 12.012654304504395 C11.07260799407959 12.021854400634766 11.030871391296387 12.03105354309082 10.989134788513184 12.040253639221191 L10.989134788513184 12.040253639221191 C10.995498657226562 12.096463203430176 11.001862525939941 12.152671813964844 11.00822639465332 12.208881378173828 L11.00822639465332 12.208881378173828 C10.984454154968262 12.219535827636719 10.960680961608887 12.23019027709961 10.936908721923828 12.2408447265625 L10.936908721923828 12.2408447265625 C10.932772636413574 12.15434455871582 10.92863655090332 12.067845344543457 10.924500465393066 11.981345176696777 L10.924500465393066 11.981345176696777 C11.100591659545898 11.943093299865723 11.199328422546387 11.958900451660156 11.21776294708252 12.16025447845459 L11.21776294708252 12.16025447845459 C11.247608184814453 12.083909034729004 11.277453422546387 12.007563591003418 11.30729866027832 11.931218147277832 L11.30729866027832 11.931218147277832"></path></svg>