<svg xmlns="http://www.w3.org/2000/svg" viewBox="0.0 0.0 24.0 24.0" height="200px" width="200px"><path fill="none" stroke="black" stroke-width=".3" stroke-opacity="1.0"  filling="0" d="M12.129026412963867 11.99370002746582 L12.129026412963867 11.99370002746582 C12.177472114562988 12.005182266235352 12.22591781616211 12.016663551330566 12.27436351776123 12.028145790100098 L12.27436351776123 12.028145790100098 C12.275227546691895 12.041764259338379 12.276090621948242 12.055381774902344 12.276954650878906 12.069000244140625 L12.276954650878906 12.069000244140625 C12.227263450622559 12.09102725982666 12.177573204040527 12.113055229187012 12.12788200378418 12.135082244873047 L12.12788200378418 12.135082244873047 C12.174382209777832 12.14908218383789 12.220881462097168 12.163082122802734 12.26738166809082 12.177082061767578 L12.26738166809082 12.177082061767578 C12.241899490356445 12.199881553649902 12.21641731262207 12.222681999206543 12.190935134887695 12.245481491088867 L12.190935134887695 12.245481491088867 C12.181835174560547 12.24547290802002 12.172736167907715 12.245463371276855 12.163636207580566 12.245454788208008 L12.163636207580566 12.245454788208008 C12.152099609375 12.16153621673584 12.140563011169434 12.077618598937988 12.129026412963867 11.99370002746582 L12.129026412963867 11.99370002746582"></path></svg>