<svg xmlns="http://www.w3.org/2000/svg" viewBox="0.0 0.0 24.0 24.0" height="200px" width="200px"><path fill="none" stroke="black" stroke-width=".3" stroke-opacity="1.0"  filling="0" d="M11.888617515563965 11.947500228881836 L11.888617515563965 11.947500228881836 C11.907499313354492 11.951872825622559 11.92638111114502 11.956245422363281 11.945262908935547 11.960618019104004 L11.945262908935547 11.960618019104004 C11.942645072937012 11.969008445739746 11.94002628326416 11.977399826049805 11.937408447265625 11.985790252685547 L11.937408447265625 11.985790252685547 C11.911808013916016 11.98198127746582 11.886208534240723 11.978172302246094 11.860608100891113 11.974363327026367 L11.860608100891113 11.974363327026367 C11.891332626342773 12.03060245513916 11.832304954528809 12.155104637145996 11.769272804260254 12.143537521362305 L11.769272804260254 12.143537521362305 C11.813908576965332 12.149555206298828 11.858545303344727 12.155573844909668 11.903181076049805 12.161591529846191 L11.903181076049805 12.161591529846191 C11.910563468933105 12.15230941772461 11.91794490814209 12.143027305603027 11.92532730102539 12.133745193481445 L11.92532730102539 12.133745193481445 C11.87024974822998 12.095849990844727 11.819894790649414 12.047677993774414 11.784435272216797 11.99100112915039 L11.784435272216797 11.99100112915039 C11.819162368774414 11.976500511169434 11.853890419006348 11.962000846862793 11.888617515563965 11.947500228881836 L11.888617515563965 11.947500228881836"></path></svg>