<svg xmlns="http://www.w3.org/2000/svg" viewBox="0.0 0.0 24.0 24.0" height="200px" width="200px"><path fill="none" stroke="black" stroke-width=".3" stroke-opacity="1.0"  filling="0" d="M11.294618606567383 11.920610427856445 L11.294618606567383 11.920610427856445 C11.306193351745605 12.027459144592285 11.241456985473633 12.152585983276367 11.149774551391602 12.208664894104004 L11.149774551391602 12.208664894104004 C11.1695556640625 12.23910140991211 11.189337730407715 12.269536972045898 11.209118843078613 12.299973487854004 L11.209118843078613 12.299973487854004 C11.172745704650879 12.299982070922852 11.136373519897461 12.2999906539917 11.100000381469727 12.299999237060547 L11.100000381469727 12.299999237060547 C11.106091499328613 12.24409008026123 11.1121826171875 12.18818187713623 11.118273735046387 12.132272720336914 L11.118273735046387 12.132272720336914 C11.190391540527344 12.116806030273438 11.261706352233887 12.039177894592285 11.26363754272461 11.965445518493652 L11.26363754272461 11.965445518493652 C11.214919090270996 11.974663734436035 11.166200637817383 11.983881950378418 11.11748218536377 11.9931001663208 L11.11748218536377 11.9931001663208 C11.176527976989746 11.968936920166016 11.235572814941406 11.94477367401123 11.294618606567383 11.920610427856445 L11.294618606567383 11.920610427856445"></path></svg>