<svg xmlns="http://www.w3.org/2000/svg" viewBox="0.0 0.0 24.0 24.0" height="200px" width="200px"><path fill="none" stroke="black" stroke-width=".3" stroke-opacity="1.0"  filling="0" d="M10.717391967773438 11.951127052307129 L10.717391967773438 11.951127052307129 C10.713937759399414 11.972481727600098 10.710482597351074 11.993836402893066 10.70702838897705 12.015191078186035 L10.70702838897705 12.015191078186035 C10.683337211608887 12.031818389892578 10.659646034240723 12.048445701599121 10.635954856872559 12.065073013305664 L10.635954856872559 12.065073013305664 C10.68006420135498 12.097399711608887 10.724172592163086 12.129727363586426 10.768281936645508 12.162054061889648 L10.768281936645508 12.162054061889648 C10.710945129394531 12.115653991699219 10.653609275817871 12.069253921508789 10.596272468566895 12.02285385131836 L10.596272468566895 12.02285385131836 C10.67368221282959 12.016990661621094 10.751091003417969 12.011126518249512 10.828500747680664 12.005263328552246 L10.828500747680664 12.005263328552246 C10.81213665008545 12.022582054138184 10.79577350616455 12.039899826049805 10.779409408569336 12.057218551635742 L10.779409408569336 12.057218551635742 C10.748446464538574 12.030400276184082 10.734284400939941 11.988444328308105 10.717391967773438 11.951127052307129 L10.717391967773438 11.951127052307129"></path></svg>