<svg xmlns="http://www.w3.org/2000/svg" viewBox="0.0 0.0 24.0 24.0" height="200px" width="200px"><path fill="none" stroke="black" stroke-width=".3" stroke-opacity="1.0"  filling="0" d="M11.466517448425293 11.835436820983887 L11.466517448425293 11.835436820983887 C11.493008613586426 11.892346382141113 11.519499778747559 11.949254989624023 11.545990943908691 12.00616455078125 L11.545990943908691 12.00616455078125 C11.589127540588379 11.982046127319336 11.63226318359375 11.957927703857422 11.675399780273438 11.933809280395508 L11.675399780273438 11.933809280395508 C11.634441375732422 12.018345832824707 11.644574165344238 12.141910552978516 11.704690933227539 12.214091300964355 L11.704690933227539 12.214091300964355 C11.6646728515625 12.214091300964355 11.624653816223145 12.214091300964355 11.584635734558105 12.214091300964355 L11.584635734558105 12.214091300964355 C11.578590393066406 12.19255542755127 11.572545051574707 12.171018600463867 11.566499710083008 12.149482727050781 L11.566499710083008 12.149482727050781 C11.533172607421875 12.176900863647461 11.499844551086426 12.20431900024414 11.466517448425293 12.23173713684082 L11.466517448425293 12.23173713684082 C11.466517448425293 12.099637031555176 11.466517448425293 11.967536926269531 11.466517448425293 11.835436820983887 L11.466517448425293 11.835436820983887"></path></svg>