<svg xmlns="http://www.w3.org/2000/svg" viewBox="0.0 0.0 24.0 24.0" height="200px" width="200px"><path fill="none" stroke="black" stroke-width=".3" stroke-opacity="1.0"  filling="0" d="M12.209508895874023 11.883408546447754 L12.209508895874023 11.883408546447754 C12.205127716064453 11.988981246948242 12.200745582580566 12.09455394744873 12.196364402770996 12.200126647949219 L12.196364402770996 12.200126647949219 C12.103628158569336 12.215235710144043 12.010891914367676 12.230344772338867 11.918155670166016 12.245453834533691 L11.918155670166016 12.245453834533691 C11.909073829650879 12.245453834533691 11.899991035461426 12.245454788208008 11.890909194946289 12.245454788208008 L11.890909194946289 12.245454788208008 C11.892268180847168 12.122974395751953 11.873281478881836 11.918275833129883 11.99301815032959 11.892462730407715 L11.99301815032959 11.892462730407715 C11.995563507080078 11.90344524383545 11.998109817504883 11.914426803588867 12.000655174255371 11.925409317016602 L12.000655174255371 11.925409317016602 C11.970664024353027 11.939900398254395 11.940672874450684 11.954390525817871 11.91068172454834 11.968881607055664 L11.91068172454834 11.968881607055664 C11.953335762023926 12.003227233886719 11.995990753173828 12.037572860717773 12.038644790649414 12.071918487548828 L12.038644790649414 12.071918487548828 C12.089462280273438 12.004022598266602 12.135470390319824 11.924768447875977 12.209508895874023 11.883408546447754 L12.209508895874023 11.883408546447754"></path></svg>