<svg xmlns="http://www.w3.org/2000/svg" viewBox="0.0 0.0 24.0 24.0" height="200px" width="200px"><path fill="none" stroke="black" stroke-width=".3" stroke-opacity="1.0"  filling="0" d="M13.432417869567871 11.92418098449707 L13.432417869567871 11.92418098449707 C13.460491180419922 11.957526206970215 13.488563537597656 11.990872383117676 13.516636848449707 12.02421760559082 L13.516636848449707 12.02421760559082 C13.466082572937012 12.016844749450684 13.41552734375 12.009472846984863 13.364973068237305 12.002099990844727 L13.364973068237305 12.002099990844727 C13.368346214294434 12.057682037353516 13.371718406677246 12.113264083862305 13.375091552734375 12.168846130371094 L13.375091552734375 12.168846130371094 C13.419590950012207 12.15709114074707 13.464091300964355 12.145337104797363 13.508590698242188 12.13358211517334 L13.508590698242188 12.13358211517334 C13.493037223815918 12.188971519470215 13.408843040466309 12.19247055053711 13.354473114013672 12.211281776428223 L13.354473114013672 12.211281776428223 C13.3285551071167 12.162382125854492 13.30263614654541 12.113482475280762 13.276718139648438 12.064582824707031 L13.276718139648438 12.064582824707031 C13.328618049621582 12.017782211303711 13.380517959594727 11.97098159790039 13.432417869567871 11.92418098449707 L13.432417869567871 11.92418098449707"></path></svg>