<svg xmlns="http://www.w3.org/2000/svg" viewBox="0.0 0.0 24.0 24.0" height="200px" width="200px"><path fill="none" stroke="black" stroke-width=".3" stroke-opacity="1.0"  filling="0" d="M12.84177303314209 11.937381744384766 L12.84177303314209 11.937381744384766 C12.868154525756836 11.972881317138672 12.894536972045898 12.008381843566895 12.920918464660645 12.0438814163208 L12.920918464660645 12.0438814163208 C12.87471866607666 12.07022762298584 12.828518867492676 12.096572875976562 12.782319068908691 12.122919082641602 L12.782319068908691 12.122919082641602 C12.785901069641113 12.132773399353027 12.789482116699219 12.14262866973877 12.79306411743164 12.152482986450195 L12.79306411743164 12.152482986450195 C12.834527969360352 12.158637046813965 12.875992774963379 12.16479206085205 12.91745662689209 12.17094612121582 L12.91745662689209 12.17094612121582 C12.902556419372559 12.195782661437988 12.887656211853027 12.22061824798584 12.872756004333496 12.245454788208008 L12.872756004333496 12.245454788208008 C12.854564666748047 12.245454788208008 12.836373329162598 12.245454788208008 12.818181991577148 12.245454788208008 L12.818181991577148 12.245454788208008 C12.751864433288574 12.166655540466309 12.782919883728027 12.02190113067627 12.84177303314209 11.937381744384766 L12.84177303314209 11.937381744384766"></path></svg>