<svg xmlns="http://www.w3.org/2000/svg" viewBox="0.0 0.0 24.0 24.0" height="200px" width="200px"><path fill="none" stroke="black" stroke-width=".3" stroke-opacity="1.0"  filling="0" d="M12.82268238067627 12.00362777709961 L12.82268238067627 12.00362777709961 C12.812090873718262 12.084245681762695 12.80150032043457 12.164864540100098 12.790908813476562 12.245482444763184 L12.790908813476562 12.245482444763184 C12.772727012634277 12.245482444763184 12.754545211791992 12.245482444763184 12.736363410949707 12.245482444763184 L12.736363410949707 12.245482444763184 C12.736363410949707 12.192082405090332 12.736363410949707 12.138683319091797 12.736363410949707 12.085283279418945 L12.736363410949707 12.085283279418945 C12.720545768737793 12.08386516571045 12.704727172851562 12.082446098327637 12.688909530639648 12.08102798461914 L12.688909530639648 12.08102798461914 C12.677454948425293 12.135855674743652 12.666000366210938 12.190682411193848 12.654545783996582 12.24551010131836 L12.654545783996582 12.24551010131836 C12.627272605895996 12.24551010131836 12.600000381469727 12.24551010131836 12.57272720336914 12.24551010131836 L12.57272720336914 12.24551010131836 C12.589081764221191 12.184255599975586 12.605436325073242 12.123001098632812 12.621790885925293 12.061746597290039 L12.621790885925293 12.061746597290039 C12.578164100646973 12.123001098632812 12.534536361694336 12.184255599975586 12.490909576416016 12.24551010131836 L12.490909576416016 12.24551010131836 C12.47272777557373 12.245491981506348 12.454545021057129 12.24547290802002 12.436363220214844 12.245454788208008 L12.436363220214844 12.245454788208008 C12.461403846740723 12.095610618591309 12.670766830444336 12.004989624023438 12.82268238067627 12.00362777709961 L12.82268238067627 12.00362777709961"></path></svg>