<svg xmlns="http://www.w3.org/2000/svg" viewBox="0.0 0.0 24.0 24.0" height="200px" width="200px"><path fill="none" stroke="black" stroke-width=".3" stroke-opacity="1.0"  filling="0" d="M11.148162841796875 11.97719955444336 L11.148162841796875 11.97719955444336 C11.193514823913574 12.059680938720703 11.220720291137695 12.15263557434082 11.236363410949707 12.245453834533691 L11.236363410949707 12.245453834533691 C11.172727584838867 12.245453834533691 11.109090805053711 12.245454788208008 11.045454978942871 12.245454788208008 L11.045454978942871 12.245454788208008 C11.048627853393555 12.203327178955078 11.051799774169922 12.161200523376465 11.054972648620605 12.119072914123535 L11.054972648620605 12.119072914123535 C11.104018211364746 12.12873649597168 11.15306282043457 12.138399124145508 11.202108383178711 12.148062705993652 L11.202108383178711 12.148062705993652 C11.175963401794434 12.133008003234863 11.14981746673584 12.11795425415039 11.123672485351562 12.102899551391602 L11.123672485351562 12.102899551391602 C11.13429069519043 12.071917533874512 11.14490795135498 12.040936470031738 11.155526161193848 12.009954452514648 L11.155526161193848 12.009954452514648 C11.148180961608887 12.005744934082031 11.140835762023926 12.001535415649414 11.133490562438965 11.997325897216797 L11.133490562438965 11.997325897216797 C11.102544784545898 12.016716957092285 11.071599960327148 12.036108016967773 11.040654182434082 12.055499076843262 L11.040654182434082 12.055499076843262 C11.035799980163574 12.044999122619629 11.03094482421875 12.034499168395996 11.026090621948242 12.023999214172363 L11.026090621948242 12.023999214172363 C11.066781044006348 12.00839900970459 11.10747241973877 11.992799758911133 11.148162841796875 11.97719955444336 L11.148162841796875 11.97719955444336"></path></svg>