<svg xmlns="http://www.w3.org/2000/svg" viewBox="0.0 0.0 24.0 24.0" height="200px" width="200px"><path fill="none" stroke="black" stroke-width=".3" stroke-opacity="1.0"  filling="0" d="M11.50914478302002 11.836799621582031 L11.50914478302002 11.836799621582031 C11.728012084960938 11.837934494018555 11.893150329589844 12.037095069885254 11.589762687683105 12.060790061950684 L11.589762687683105 12.060790061950684 C11.596489906311035 12.11057186126709 11.603217124938965 12.160353660583496 11.609944343566895 12.210135459899902 L11.609944343566895 12.210135459899902 C11.56722640991211 12.210135459899902 11.524508476257324 12.210135459899902 11.481790542602539 12.210135459899902 L11.481790542602539 12.210135459899902 C11.4909086227417 12.08569049835205 11.50002670288086 11.961244583129883 11.50914478302002 11.836799621582031 L11.50914478302002 11.836799621582031"></path>
<path fill="none" stroke="black" stroke-width=".3" stroke-opacity="1.0"  filling="0" d="M11.597835540771484 11.854691505432129 L11.597835540771484 11.854691505432129 C11.633193016052246 11.89360237121582 11.658906936645508 11.95769214630127 11.639891624450684 12.006709098815918 L11.639891624450684 12.006709098815918 C11.626864433288574 12.002363204956055 11.613836288452148 11.998018264770508 11.600809097290039 11.993672370910645 L11.600809097290039 11.993672370910645 C11.59305477142334 11.95359992980957 11.585299491882324 11.91352653503418 11.577545166015625 11.873454093933105 L11.577545166015625 11.873454093933105 C11.584308624267578 11.867199897766113 11.591072082519531 11.860945701599121 11.597835540771484 11.854691505432129 L11.597835540771484 11.854691505432129"></path></svg>