<svg xmlns="http://www.w3.org/2000/svg" viewBox="0.0 0.0 24.0 24.0" height="200px" width="200px"><path fill="none" stroke="black" stroke-width=".3" stroke-opacity="1.0"  filling="0" d="M12.231245994567871 11.923308372497559 L12.231245994567871 11.923308372497559 C12.279640197753906 11.995881080627441 12.305877685546875 12.084451675415039 12.315108299255371 12.17119026184082 L12.315108299255371 12.17119026184082 C12.225081443786621 12.109480857849121 12.135054588317871 12.047772407531738 12.045027732849121 11.986063003540039 L12.045027732849121 11.986063003540039 C12.018263816833496 12.05231761932373 11.991500854492188 12.118572235107422 11.964736938476562 12.184826850891113 L11.964736938476562 12.184826850891113 C11.928545951843262 12.186872482299805 11.892354965209961 12.18891716003418 11.85616397857666 12.190962791442871 L11.85616397857666 12.190962791442871 C11.85616397857666 12.109990119934082 11.85616397857666 12.029017448425293 11.85616397857666 11.948044776916504 L11.85616397857666 11.948044776916504 C11.94682788848877 11.941326141357422 12.037490844726562 11.93460750579834 12.128154754638672 11.927888870239258 L12.128154754638672 11.927888870239258 C12.132491111755371 11.993589401245117 12.136826515197754 12.05928897857666 12.141162872314453 12.12498950958252 L12.141162872314453 12.12498950958252 C12.175654411315918 12.129435539245605 12.210144996643066 12.133880615234375 12.244636535644531 12.138326644897461 L12.244636535644531 12.138326644897461 C12.24017333984375 12.066654205322266 12.235709190368652 11.994980812072754 12.231245994567871 11.923308372497559 L12.231245994567871 11.923308372497559"></path></svg>