<svg xmlns="http://www.w3.org/2000/svg" viewBox="0.0 0.0 24.0 24.0" height="200px" width="200px"><path fill="none" stroke="black" stroke-width=".3" stroke-opacity="1.0"  filling="0" d="M11.590909957885742 11.809091567993164 L11.590909957885742 11.809091567993164 C11.618182182312012 11.809091567993164 11.645455360412598 11.809091567993164 11.672727584838867 11.809091567993164 L11.672727584838867 11.809091567993164 C11.673845291137695 11.833773612976074 11.67496395111084 11.858454704284668 11.676081657409668 11.883136749267578 L11.676081657409668 11.883136749267578 C11.748191833496094 11.93551254272461 11.806865692138672 12.072148323059082 11.7493896484375 12.140263557434082 L11.7493896484375 12.140263557434082 C11.721771240234375 12.075772285461426 11.694153785705566 12.011281967163086 11.666535377502441 11.94679069519043 L11.666535377502441 11.94679069519043 C11.695571899414062 12.010026931762695 11.724608421325684 12.073264122009277 11.753644943237305 12.136500358581543 L11.753644943237305 12.136500358581543 C11.715953826904297 12.14786434173584 11.678263664245605 12.15922737121582 11.640572547912598 12.170591354370117 L11.640572547912598 12.170591354370117 C11.624018669128418 12.050091743469238 11.607463836669922 11.929591178894043 11.590909957885742 11.809091567993164 L11.590909957885742 11.809091567993164"></path></svg>