<svg xmlns="http://www.w3.org/2000/svg" viewBox="0.0 0.0 24.0 24.0" height="200px" width="200px"><path fill="none" stroke="black" stroke-width=".3" stroke-opacity="1.0"  filling="0" d="M12.125781059265137 11.888699531555176 L12.125781059265137 11.888699531555176 C12.131308555603027 11.929182052612305 12.136836051940918 11.969663619995117 12.142363548278809 12.010146141052246 L12.142363548278809 12.010146141052246 C12.20299243927002 12.082526206970215 12.272000312805176 12.155311584472656 12.299999237060547 12.245481491088867 L12.299999237060547 12.245481491088867 C12.263635635375977 12.245481491088867 12.227272033691406 12.245481491088867 12.190908432006836 12.245481491088867 L12.190908432006836 12.245481491088867 C12.17272663116455 12.192981719970703 12.154545783996582 12.140481948852539 12.136363983154297 12.087982177734375 L12.136363983154297 12.087982177734375 C12.136363983154297 12.140481948852539 12.136363983154297 12.192981719970703 12.136363983154297 12.245481491088867 L12.136363983154297 12.245481491088867 C12.109090805053711 12.24547290802002 12.081818580627441 12.245463371276855 12.054545402526855 12.245454788208008 L12.054545402526855 12.245454788208008 C12.050154685974121 12.13087272644043 12.045763969421387 12.016291618347168 12.041373252868652 11.90170955657959 L12.041373252868652 11.90170955657959 C12.069509506225586 11.89737319946289 12.097644805908203 11.893035888671875 12.125781059265137 11.888699531555176 L12.125781059265137 11.888699531555176"></path></svg>