<svg xmlns="http://www.w3.org/2000/svg" viewBox="0.0 0.0 24.0 24.0" height="200px" width="200px"><path fill="none" stroke="black" stroke-width=".3" stroke-opacity="1.0"  filling="0" d="M12.533536911010742 11.856109619140625 L12.533536911010742 11.856109619140625 C12.546082496643066 11.860136985778809 12.558627128601074 11.864163398742676 12.571172714233398 11.86819076538086 L12.571172714233398 11.86819076538086 C12.571172714233398 11.986163139343262 12.571172714233398 12.10413646697998 12.571172714233398 12.222108840942383 L12.571172714233398 12.222108840942383 C12.504899978637695 12.23298168182373 12.438627243041992 12.243854522705078 12.372354507446289 12.254727363586426 L12.372354507446289 12.254727363586426 C12.40380859375 12.158136367797852 12.435263633728027 12.061545372009277 12.466717720031738 11.964954376220703 L12.466717720031738 11.964954376220703 C12.488990783691406 11.928672790527344 12.511263847351074 11.892391204833984 12.533536911010742 11.856109619140625 L12.533536911010742 11.856109619140625"></path>
<path fill="none" stroke="black" stroke-width=".3" stroke-opacity="1.0"  filling="0" d="M12.472637176513672 11.997982025146484 L12.472637176513672 11.997982025146484 C12.481127738952637 12.066618919372559 12.489618301391602 12.135254859924316 12.498108863830566 12.20389175415039 L12.498108863830566 12.20389175415039 C12.489618301391602 12.135254859924316 12.481127738952637 12.066618919372559 12.472637176513672 11.997982025146484 L12.472637176513672 11.997982025146484"></path></svg>