<svg xmlns="http://www.w3.org/2000/svg" viewBox="0.0 0.0 24.0 24.0" height="200px" width="200px"><path fill="none" stroke="black" stroke-width=".3" stroke-opacity="1.0"  filling="0" d="M11.616083145141602 11.916600227355957 L11.616083145141602 11.916600227355957 C11.599455833435059 11.992145538330078 11.5828275680542 12.0676908493042 11.566200256347656 12.14323616027832 L11.566200256347656 12.14323616027832 C11.584391593933105 12.09839916229248 11.602581977844238 12.053563117980957 11.620773315429688 12.008726119995117 L11.620773315429688 12.008726119995117 C11.585837364196777 11.993171691894531 11.55090045928955 11.977617263793945 11.51596450805664 11.96206283569336 L11.51596450805664 11.96206283569336 C11.515954971313477 12.055253982543945 11.515945434570312 12.148444175720215 11.515935897827148 12.2416353225708 L11.515935897827148 12.2416353225708 C11.494873046875 12.242653846740723 11.473809242248535 12.243671417236328 11.452746391296387 12.24468994140625 L11.452746391296387 12.24468994140625 C11.452746391296387 12.138053894042969 11.452746391296387 12.031417846679688 11.452746391296387 11.924781799316406 L11.452746391296387 11.924781799316406 C11.50719165802002 11.922054290771484 11.561637878417969 11.919327735900879 11.616083145141602 11.916600227355957 L11.616083145141602 11.916600227355957"></path></svg>