<svg xmlns="http://www.w3.org/2000/svg" viewBox="0.0 0.0 24.0 24.0" height="200px" width="200px"><path fill="none" stroke="black" stroke-width=".3" stroke-opacity="1.0"  filling="0" d="M10.730045318603516 11.871000289916992 L10.730045318603516 11.871000289916992 C10.807036399841309 11.953527450561523 10.884026527404785 12.036054611206055 10.961017608642578 12.118581771850586 L10.961017608642578 12.118581771850586 C10.970145225524902 12.111608505249023 10.97927188873291 12.104636192321777 10.988399505615234 12.097662925720215 L10.988399505615234 12.097662925720215 C10.971635818481445 12.041181564331055 10.954872131347656 11.984699249267578 10.938108444213867 11.928217887878418 L10.938108444213867 11.928217887878418 C10.978172302246094 11.928217887878418 11.01823616027832 11.928217887878418 11.058300018310547 11.928217887878418 L11.058300018310547 11.928217887878418 C11.040236473083496 12.049863815307617 11.022172927856445 12.1715087890625 11.004109382629395 12.2931547164917 L11.004109382629395 12.2931547164917 C10.92741870880127 12.219027519226074 10.850727081298828 12.144899368286133 10.774036407470703 12.070772171020508 L10.774036407470703 12.070772171020508 C10.764382362365723 12.076626777648926 10.754727363586426 12.08248233795166 10.745073318481445 12.088336944580078 L10.745073318481445 12.088336944580078 C10.754291534423828 12.158882141113281 10.763509750366211 12.2294282913208 10.772727966308594 12.299973487854004 L10.772727966308594 12.299973487854004 C10.736364364624023 12.299982070922852 10.700000762939453 12.2999906539917 10.663637161254883 12.299999237060547 L10.663637161254883 12.299999237060547 C10.675994873046875 12.170610427856445 10.689702033996582 12.036642074584961 10.660090446472168 11.91008186340332 L10.660090446472168 11.91008186340332 C10.683408737182617 11.897054672241211 10.706727027893066 11.884027481079102 10.730045318603516 11.871000289916992 L10.730045318603516 11.871000289916992"></path></svg>