<svg xmlns="http://www.w3.org/2000/svg" viewBox="0.0 0.0 24.0 24.0" height="200px" width="200px"><path fill="none" stroke="black" stroke-width=".3" stroke-opacity="1.0"  filling="0" d="M11.918182373046875 11.809036254882812 L11.918182373046875 11.809036254882812 C11.93636417388916 11.809054374694824 11.954545021057129 11.809073448181152 11.972726821899414 11.809091567993164 L11.972726821899414 11.809091567993164 C11.972726821899414 11.851409912109375 11.972726821899414 11.89372730255127 11.972726821899414 11.93604564666748 L11.972726821899414 11.93604564666748 C12.193333625793457 11.965465545654297 12.225408554077148 12.124763488769531 11.971610069274902 12.214744567871094 C11.843047142028809 12.26032543182373 11.920923233032227 11.945412635803223 11.918182373046875 11.809036254882812 L11.918182373046875 11.809036254882812"></path>
<path fill="none" stroke="black" stroke-width=".3" stroke-opacity="1.0"  filling="0" d="M12.031744956970215 11.992010116577148 L12.031744956970215 11.992010116577148 C12.05904483795166 12.02978229522705 12.086344718933105 12.06755542755127 12.11364459991455 12.105327606201172 L12.11364459991455 12.105327606201172 C12.086808204650879 12.137518882751465 12.059972763061523 12.169709205627441 12.033136367797852 12.201900482177734 L12.033136367797852 12.201900482177734 C12.032672882080078 12.131937026977539 12.032208442687988 12.061973571777344 12.031744956970215 11.992010116577148 L12.031744956970215 11.992010116577148"></path></svg>