<svg xmlns="http://www.w3.org/2000/svg" viewBox="0.0 0.0 24.0 24.0" height="200px" width="200px"><path fill="none" stroke="black" stroke-width=".3" stroke-opacity="1.0"  filling="0" d="M12.224372863769531 11.91880989074707 L12.224372863769531 11.91880989074707 C12.235291481018066 11.926491737365723 12.246209144592285 11.934172630310059 12.25712776184082 11.941854476928711 L12.25712776184082 11.941854476928711 C12.222136497497559 12.013873100280762 12.187146186828613 12.085890769958496 12.152154922485352 12.157909393310547 L12.152154922485352 12.157909393310547 C12.196300506591797 12.151637077331543 12.240445137023926 12.145363807678223 12.284590721130371 12.139091491699219 L12.284590721130371 12.139091491699219 C12.28647232055664 12.150391578674316 12.288354873657227 12.161691665649414 12.290236473083496 12.172991752624512 L12.290236473083496 12.172991752624512 C12.209426879882812 12.186718940734863 12.128618240356445 12.200446128845215 12.047808647155762 12.214173316955566 L12.047808647155762 12.214173316955566 C12.043381690979004 12.203991889953613 12.03895378112793 12.193809509277344 12.034526824951172 12.18362808227539 L12.034526824951172 12.18362808227539 C12.077045440673828 12.11609172821045 12.119563102722168 12.048555374145508 12.162081718444824 11.981019020080566 L12.162081718444824 11.981019020080566 C12.125727653503418 11.981019020080566 12.089372634887695 11.981019020080566 12.053018569946289 11.981019020080566 L12.053018569946289 11.981019020080566 C12.110136985778809 11.960282325744629 12.167254447937012 11.939546585083008 12.224372863769531 11.91880989074707 L12.224372863769531 11.91880989074707"></path></svg>