<svg xmlns="http://www.w3.org/2000/svg" viewBox="0.0 0.0 24.0 24.0" height="200px" width="200px"><path fill="none" stroke="black" stroke-width=".3" stroke-opacity="1.0"  filling="0" d="M11.860527038574219 11.838273048400879 L11.860527038574219 11.838273048400879 C11.901200294494629 11.897636413574219 11.941872596740723 11.956999778747559 11.982545852661133 12.016363143920898 L11.982545852661133 12.016363143920898 C11.996700286865234 11.983954429626465 12.01085376739502 11.951544761657715 12.025008201599121 11.919136047363281 L12.025008201599121 11.919136047363281 C12.045150756835938 12.018608093261719 12.099678039550781 12.112068176269531 12.165682792663574 12.189164161682129 L12.165682792663574 12.189164161682129 C12.098337173461914 12.224852561950684 12.014395713806152 12.133681297302246 11.969099998474121 12.072382926940918 L11.969099998474121 12.072382926940918 C11.864343643188477 12.341130256652832 11.604928016662598 12.111480712890625 11.780535697937012 11.863091468811035 L11.780535697937012 11.863091468811035 C11.801408767700195 11.975245475769043 11.822281837463379 12.087400436401367 11.843154907226562 12.199554443359375 L11.843154907226562 12.199554443359375 C11.848945617675781 12.079127311706543 11.854736328125 11.958700180053711 11.860527038574219 11.838273048400879 L11.860527038574219 11.838273048400879"></path></svg>