<svg xmlns="http://www.w3.org/2000/svg" viewBox="0.0 0.0 24.0 24.0" height="200px" width="200px"><path fill="none" stroke="black" stroke-width=".3" stroke-opacity="1.0"  filling="0" d="M12.654600143432617 11.809091567993164 L12.654600143432617 11.809091567993164 C12.66367244720459 11.809091567993164 12.672745704650879 11.809091567993164 12.681818008422852 11.809091567993164 L12.681818008422852 11.809091567993164 C12.704830169677734 11.874366760253906 12.77734088897705 11.91433048248291 12.840136528015137 11.943435668945312 L12.840136528015137 11.943435668945312 C12.851009368896484 12.044108390808105 12.861882209777832 12.144782066345215 12.87275505065918 12.245454788208008 L12.87275505065918 12.245454788208008 C12.845481872558594 12.245454788208008 12.818209648132324 12.245454788208008 12.790936470031738 12.245454788208008 L12.790936470031738 12.245454788208008 C12.773545265197754 12.172900199890137 12.756155014038086 12.100345611572266 12.738763809204102 12.027791023254395 L12.738763809204102 12.027791023254395 C12.712891578674316 12.096291542053223 12.694229125976562 12.17376708984375 12.709146499633789 12.245454788208008 L12.709146499633789 12.245454788208008 C12.672782897949219 12.245454788208008 12.636419296264648 12.245454788208008 12.600055694580078 12.245454788208008 L12.600055694580078 12.245454788208008 C12.601875305175781 12.09887981414795 12.575615882873535 11.932578086853027 12.654600143432617 11.809091567993164 L12.654600143432617 11.809091567993164"></path></svg>