<svg xmlns="http://www.w3.org/2000/svg" viewBox="0.0 0.0 24.0 24.0" height="200px" width="200px"><path fill="none" stroke="black" stroke-width=".3" stroke-opacity="1.0"  filling="0" d="M13.282309532165527 11.950090408325195 L13.282309532165527 11.950090408325195 C13.290655136108398 11.967253684997559 13.298999786376953 11.984417915344238 13.307345390319824 12.001581192016602 L13.307345390319824 12.001581192016602 C13.308536529541016 12.000271797180176 13.309727668762207 11.99896240234375 13.310918807983398 11.997653007507324 L13.310918807983398 11.997653007507324 C13.273945808410645 12.013134956359863 13.236973762512207 12.028616905212402 13.200000762939453 12.044098854064941 L13.200000762939453 12.044098854064941 C13.200000762939453 12.111217498779297 13.200000762939453 12.178335189819336 13.200000762939453 12.245453834533691 L13.200000762939453 12.245453834533691 C13.163637161254883 12.245453834533691 13.127272605895996 12.245454788208008 13.090909004211426 12.245454788208008 L13.090909004211426 12.245454788208008 C13.102472305297852 12.151954650878906 13.114036560058594 12.058454513549805 13.12559986114502 11.964954376220703 L13.12559986114502 11.964954376220703 C13.177836418151855 11.960000038146973 13.230072975158691 11.955044746398926 13.282309532165527 11.950090408325195 L13.282309532165527 11.950090408325195"></path></svg>