<svg xmlns="http://www.w3.org/2000/svg" viewBox="0.0 0.0 24.0 24.0" height="200px" width="200px"><path fill="none" stroke="black" stroke-width=".3" stroke-opacity="1.0"  filling="0" d="M12.991744995117188 11.949790954589844 L12.991744995117188 11.949790954589844 C12.97933578491211 12.048345565795898 12.966927528381348 12.146900177001953 12.95451831817627 12.245454788208008 L12.95451831817627 12.245454788208008 C12.899981498718262 12.245454788208008 12.84544563293457 12.245454788208008 12.790908813476562 12.245454788208008 L12.790908813476562 12.245454788208008 C12.792855262756348 12.151381492614746 12.802562713623047 12.055753707885742 12.830862998962402 11.966017723083496 L12.830862998962402 11.966017723083496 C12.884490013122559 11.96060848236084 12.938117980957031 11.9552001953125 12.991744995117188 11.949790954589844 L12.991744995117188 11.949790954589844"></path>
<path fill="none" stroke="black" stroke-width=".3" stroke-opacity="1.0"  filling="0" d="M12.957109451293945 12.030654907226562 L12.957109451293945 12.030654907226562 C12.957109451293945 12.082727432250977 12.957109451293945 12.13479995727539 12.957109451293945 12.186872482299805 L12.957109451293945 12.186872482299805 C12.946172714233398 12.187235832214355 12.935235977172852 12.187600135803223 12.924299240112305 12.187963485717773 L12.924299240112305 12.187963485717773 C12.935235977172852 12.135527610778809 12.946172714233398 12.083090782165527 12.957109451293945 12.030654907226562 L12.957109451293945 12.030654907226562"></path></svg>