<svg xmlns="http://www.w3.org/2000/svg" viewBox="0.0 0.0 24.0 24.0" height="200px" width="200px"><path fill="none" stroke="black" stroke-width=".3" stroke-opacity="1.0"  filling="0" d="M11.772408485412598 11.891536712646484 L11.772408485412598 11.891536712646484 C11.849652290344238 11.966465950012207 11.923614501953125 12.060161590576172 11.942127227783203 12.16617202758789 L11.942127227783203 12.16617202758789 C11.900372505187988 12.15848159790039 11.85861873626709 12.150790214538574 11.816864013671875 12.143099784851074 L11.816864013671875 12.143099784851074 C11.824727058410645 12.077808380126953 11.83259105682373 12.012517929077148 11.8404541015625 11.947226524353027 L11.8404541015625 11.947226524353027 C11.798123359680176 11.998703002929688 11.788145065307617 12.087824821472168 11.820382118225098 12.14615535736084 L11.820382118225098 12.14615535736084 C11.776272773742676 12.152700424194336 11.73216438293457 12.159246444702148 11.688055038452148 12.165791511535645 L11.688055038452148 12.165791511535645 C11.682709693908691 12.077173233032227 11.677363395690918 11.988554954528809 11.672018051147461 11.89993667602539 L11.672018051147461 11.89993667602539 C11.70548152923584 11.897136688232422 11.738945007324219 11.894336700439453 11.772408485412598 11.891536712646484 L11.772408485412598 11.891536712646484"></path></svg>