<svg xmlns="http://www.w3.org/2000/svg" viewBox="0.0 0.0 24.0 24.0" height="200px" width="200px"><path fill="none" stroke="black" stroke-width=".3" stroke-opacity="1.0"  filling="0" d="M12.985391616821289 11.866827964782715 L12.985391616821289 11.866827964782715 C13.000273704528809 11.868500709533691 13.015154838562012 11.870172500610352 13.030036926269531 11.871845245361328 L13.030036926269531 11.871845245361328 C13.034491539001465 11.915318489074707 13.038945198059082 11.95879077911377 13.043399810791016 12.002264022827148 L13.043399810791016 12.002264022827148 C13.081290245056152 11.983763694763184 13.119181632995605 11.965264320373535 13.157072067260742 11.94676399230957 L13.157072067260742 11.94676399230957 C13.164735794067383 11.95556354522705 13.172399520874023 11.964364051818848 13.180063247680664 11.973163604736328 L13.180063247680664 11.973163604736328 C13.146381378173828 11.995635986328125 13.112699508666992 12.018108367919922 13.079017639160156 12.040580749511719 L13.079017639160156 12.040580749511719 C13.111044883728027 12.086771965026855 13.143073081970215 12.132962226867676 13.175100326538086 12.179153442382812 L13.175100326538086 12.179153442382812 C13.106836318969727 12.179153442382812 13.038573265075684 12.179153442382812 12.970309257507324 12.179153442382812 L12.970309257507324 12.179153442382812 C12.970318794250488 12.077645301818848 12.970327377319336 11.976136207580566 12.9703369140625 11.874628067016602 L12.9703369140625 11.874628067016602 C12.97535514831543 11.872028350830078 12.98037338256836 11.869427680969238 12.985391616821289 11.866827964782715 L12.985391616821289 11.866827964782715"></path></svg>