<svg xmlns="http://www.w3.org/2000/svg" viewBox="0.0 0.0 24.0 24.0" height="200px" width="200px"><path fill="none" stroke="black" stroke-width=".3" stroke-opacity="1.0"  filling="0" d="M11.908254623413086 11.952191352844238 L11.908254623413086 11.952191352844238 C11.974982261657715 11.959400177001953 12.041708946228027 11.966609001159668 12.108436584472656 11.973817825317383 L12.108436584472656 11.973817825317383 C12.108975410461426 12.052141189575195 12.117090225219727 12.130804061889648 12.13290023803711 12.207517623901367 L12.13290023803711 12.207517623901367 C12.100436210632324 12.20992660522461 12.067973136901855 12.212336540222168 12.03550910949707 12.21474552154541 L12.03550910949707 12.21474552154541 C12.042536735534668 12.155827522277832 12.049564361572266 12.09691047668457 12.056591987609863 12.037992477416992 L12.056591987609863 12.037992477416992 C12.034473419189453 12.097173690795898 12.012354850769043 12.156355857849121 11.990236282348633 12.215537071228027 L11.990236282348633 12.215537071228027 C11.957599639892578 12.215537071228027 11.92496395111084 12.215537071228027 11.892327308654785 12.215537071228027 L11.892327308654785 12.215537071228027 C11.88494873046875 12.127904891967773 11.871973037719727 12.03230094909668 11.908254623413086 11.952191352844238 L11.908254623413086 11.952191352844238"></path></svg>