<svg xmlns="http://www.w3.org/2000/svg" viewBox="0.0 0.0 24.0 24.0" height="200px" width="200px"><path fill="none" stroke="black" stroke-width=".3" stroke-opacity="1.0"  filling="0" d="M11.43820858001709 11.838600158691406 L11.43820858001709 11.838600158691406 C11.554211616516113 11.951895713806152 11.494543075561523 12.081093788146973 11.481818199157715 12.245454788208008 L11.481818199157715 12.245454788208008 C11.42727279663086 12.245454788208008 11.372727394104004 12.245454788208008 11.318181991577148 12.245454788208008 L11.318181991577148 12.245454788208008 C11.283727645874023 12.176881790161133 11.249272346496582 12.108308792114258 11.214818000793457 12.039735794067383 L11.214818000793457 12.039735794067383 C11.283872604370117 12.008072853088379 11.352927207946777 11.976408958435059 11.421981811523438 11.944746017456055 L11.421981811523438 11.944746017456055 C11.416427612304688 11.913318634033203 11.410872459411621 11.881890296936035 11.405318260192871 11.850462913513184 L11.405318260192871 11.850462913513184 C11.416281700134277 11.846508979797363 11.427245140075684 11.842554092407227 11.43820858001709 11.838600158691406 L11.43820858001709 11.838600158691406"></path>
<path fill="none" stroke="black" stroke-width=".3" stroke-opacity="1.0"  filling="0" d="M11.394627571105957 11.989035606384277 L11.394627571105957 11.989035606384277 C11.403446197509766 11.998008728027344 11.412263870239258 12.006980895996094 11.421082496643066 12.01595401763916 L11.421082496643066 12.01595401763916 C11.421072959899902 12.074380874633789 11.421064376831055 12.132808685302734 11.42105484008789 12.191235542297363 L11.42105484008789 12.191235542297363 C11.378085136413574 12.138566970825195 11.349164962768555 12.039566993713379 11.394627571105957 11.989035606384277 L11.394627571105957 11.989035606384277"></path></svg>