<svg xmlns="http://www.w3.org/2000/svg" viewBox="0.0 0.0 24.0 24.0" height="200px" width="200px"><path fill="none" stroke="black" stroke-width=".3" stroke-opacity="1.0"  filling="0" d="M12.327272415161133 11.809091567993164 L12.327272415161133 11.809091567993164 C12.320499420166016 11.922882080078125 12.313727378845215 12.036673545837402 12.306954383850098 12.150464057922363 L12.306954383850098 12.150464057922363 C12.224709510803223 12.085763931274414 12.142463684082031 12.021063804626465 12.060218811035156 11.956363677978516 L12.060218811035156 11.956363677978516 C12.112664222717285 11.926881790161133 12.165109634399414 11.89739990234375 12.217555046081543 11.867918014526367 L12.217555046081543 11.867918014526367 C12.208673477172852 11.848318099975586 12.199790954589844 11.828717231750488 12.190909385681152 11.809117317199707 L12.190909385681152 11.809117317199707 C12.236363410949707 11.80910873413086 12.281818389892578 11.809100151062012 12.327272415161133 11.809091567993164 L12.327272415161133 11.809091567993164"></path>
<path fill="none" stroke="black" stroke-width=".3" stroke-opacity="1.0"  filling="0" d="M12.177055358886719 11.937463760375977 L12.177055358886719 11.937463760375977 C12.18790054321289 11.941290855407715 12.198745727539062 11.945117950439453 12.209590911865234 11.948945045471191 L12.209590911865234 11.948945045471191 C12.200345039367676 12.004663467407227 12.191100120544434 12.060381889343262 12.181854248046875 12.116100311279297 L12.181854248046875 12.116100311279297 C12.155437469482422 12.062711715698242 12.149191856384277 11.9901123046875 12.177055358886719 11.937463760375977 L12.177055358886719 11.937463760375977"></path></svg>