<svg xmlns="http://www.w3.org/2000/svg" viewBox="0.0 0.0 24.0 24.0" height="200px" width="200px"><path fill="none" stroke="black" stroke-width=".3" stroke-opacity="1.0"  filling="0" d="M9.482836723327637 11.879344940185547 L9.482836723327637 11.879344940185547 C9.52325439453125 11.899681091308594 9.56367301940918 11.920018196105957 9.604090690612793 11.940354347229004 L9.604090690612793 11.940354347229004 C9.589754104614258 11.974935531616211 9.575418472290039 12.009517669677734 9.561081886291504 12.044098854064941 L9.561081886291504 12.044098854064941 C9.53482723236084 12.013935089111328 9.508572578430176 11.983772277832031 9.482317924499512 11.953608512878418 L9.482317924499512 11.953608512878418 C9.460708618164062 11.963517189025879 9.43910026550293 11.973426818847656 9.41749095916748 11.983335494995117 L9.41749095916748 11.983335494995117 C9.435781478881836 12.022972106933594 9.454072952270508 12.062607765197754 9.472363471984863 12.10224437713623 L9.472363471984863 12.10224437713623 C9.51381778717041 12.10224437713623 9.555273056030273 12.10224437713623 9.59672737121582 12.10224437713623 L9.59672737121582 12.10224437713623 C9.529852867126465 12.329217910766602 9.225567817687988 12.063928604125977 9.482836723327637 11.879344940185547 L9.482836723327637 11.879344940185547"></path></svg>