<svg xmlns="http://www.w3.org/2000/svg" viewBox="0.0 0.0 24.0 24.0" height="200px" width="200px"><path fill="none" stroke="black" stroke-width=".3" stroke-opacity="1.0"  filling="0" d="M11.314826965332031 11.923771858215332 L11.314826965332031 11.923771858215332 C11.371360778808594 11.936641693115234 11.4356107711792 11.993803024291992 11.432672500610352 12.051708221435547 L11.432672500610352 12.051708221435547 C11.418317794799805 12.059090614318848 11.403963088989258 12.066472053527832 11.389608383178711 12.073854446411133 L11.389608383178711 12.073854446411133 C11.373472213745117 12.03297233581543 11.357335090637207 11.992091178894043 11.341198921203613 11.95120906829834 L11.341198921203613 11.95120906829834 C11.378226280212402 12.007963180541992 11.415253639221191 12.064718246459961 11.45228099822998 12.121472358703613 L11.45228099822998 12.121472358703613 C11.397735595703125 12.155081748962402 11.34319019317627 12.188690185546875 11.288644790649414 12.222299575805664 L11.288644790649414 12.222299575805664 C11.263635635375977 12.13721752166748 11.238625526428223 12.052136421203613 11.213616371154785 11.96705436706543 L11.209663391113281 11.971390724182129 C11.244717597961426 11.955517768859863 11.279772758483887 11.939644813537598 11.314826965332031 11.923771858215332 L11.314826965332031 11.923771858215332"></path></svg>