<svg xmlns="http://www.w3.org/2000/svg" viewBox="0.0 0.0 24.0 24.0" height="200px" width="200px"><path fill="none" stroke="black" stroke-width=".3" stroke-opacity="1.0"  filling="0" d="M11.93225383758545 11.844136238098145 L11.93225383758545 11.844136238098145 C11.981781005859375 11.878427505493164 12.0313081741333 11.912717819213867 12.080835342407227 11.947009086608887 L12.080835342407227 11.947009086608887 C12.043807983398438 12.003327369689941 12.006781578063965 12.059645652770996 11.969754219055176 12.11596393585205 L11.969754219055176 12.11596393585205 C12.003518104553223 12.115937232971191 12.037281036376953 12.115909576416016 12.071044921875 12.115882873535156 L12.071044921875 12.115882873535156 C12.007054328918457 12.136537551879883 11.943062782287598 12.157191276550293 11.879072189331055 12.17784595489502 L11.879072189331055 12.17784595489502 C11.928045272827148 12.096291542053223 11.977017402648926 12.014737129211426 12.02599048614502 11.933182716369629 L12.02599048614502 11.933182716369629 C11.973908424377441 11.925455093383789 11.921826362609863 11.917728424072266 11.869744300842285 11.910000801086426 L11.869744300842285 11.910000801086426 C11.890581130981445 11.888046264648438 11.911417007446289 11.866090774536133 11.93225383758545 11.844136238098145 L11.93225383758545 11.844136238098145"></path></svg>