<svg xmlns="http://www.w3.org/2000/svg" viewBox="0.0 0.0 24.0 24.0" height="200px" width="200px"><path fill="none" stroke="black" stroke-width=".3" stroke-opacity="1.0"  filling="0" d="M14.507564544677734 12.02099895477295 L14.507564544677734 12.02099895477295 C14.573919296264648 12.029781341552734 14.640274047851562 12.038562774658203 14.706628799438477 12.047345161437988 L14.706628799438477 12.047345161437988 C14.67232894897461 12.100845336914062 14.638028144836426 12.154345512390137 14.603728294372559 12.207845687866211 L14.603728294372559 12.207845687866211 C14.595873832702637 12.155545234680176 14.588018417358398 12.103245735168457 14.580163955688477 12.050945281982422 L14.580163955688477 12.050945281982422 C14.617745399475098 12.128636360168457 14.655327796936035 12.206326484680176 14.692909240722656 12.284017562866211 L14.692909240722656 12.284017562866211 C14.637118339538574 12.294581413269043 14.581328392028809 12.305144309997559 14.525537490844727 12.31570816040039 L14.525537490844727 12.31570816040039 C14.551973342895508 12.327262878417969 14.578410148620605 12.338817596435547 14.604846000671387 12.350372314453125 L14.604846000671387 12.350372314453125 C14.606045722961426 12.36111831665039 14.607246398925781 12.37186336517334 14.60844612121582 12.382609367370605 L14.60844612121582 12.382609367370605 C14.556937217712402 12.382609367370605 14.505428314208984 12.382609367370605 14.453919410705566 12.382609367370605 L14.453919410705566 12.382609367370605 C14.469084739685059 12.260963439941406 14.485767364501953 12.1417818069458 14.507564544677734 12.02099895477295 L14.507564544677734 12.02099895477295"></path></svg>