<svg xmlns="http://www.w3.org/2000/svg" viewBox="0.0 0.0 24.0 24.0" height="200px" width="200px"><path fill="none" stroke="black" stroke-width=".3" stroke-opacity="1.0"  filling="0" d="M13.23343563079834 11.959500312805176 L13.23343563079834 11.959500312805176 C13.387489318847656 11.998443603515625 13.597281455993652 12.10859203338623 13.597281455993652 12.267491340637207 L13.597281455993652 12.267491340637207 C13.586236000061035 12.268036842346191 13.575190544128418 12.26858139038086 13.5641450881958 12.269126892089844 L13.5641450881958 12.269126892089844 C13.558772087097168 12.189690589904785 13.553400039672852 12.110254287719727 13.548027038574219 12.030817985534668 L13.548027038574219 12.030817985534668 C13.516300201416016 12.041045188903809 13.484572410583496 12.051273345947266 13.452845573425293 12.061500549316406 L13.452845573425293 12.061500549316406 C13.44668197631836 12.121718406677246 13.440518379211426 12.181936264038086 13.434354782104492 12.242154121398926 L13.434354782104492 12.242154121398926 C13.423345565795898 12.242136001586914 13.412336349487305 12.242116928100586 13.401327133178711 12.242098808288574 L13.401327133178711 12.242098808288574 C13.39529037475586 12.180935859680176 13.389254570007324 12.119771957397461 13.383217811584473 12.058609008789062 L13.383217811584473 12.058609008789062 C13.331819534301758 12.117298126220703 13.281661033630371 12.177122116088867 13.23343563079834 12.238444328308105 L13.23343563079834 12.238444328308105 C13.23343563079834 12.145462989807129 13.23343563079834 12.052481651306152 13.23343563079834 11.959500312805176 L13.23343563079834 11.959500312805176"></path></svg>