<svg xmlns="http://www.w3.org/2000/svg" viewBox="0.0 0.0 24.0 24.0" height="200px" width="200px"><path fill="none" stroke="black" stroke-width=".3" stroke-opacity="1.0"  filling="0" d="M11.328327178955078 11.946982383728027 L11.328327178955078 11.946982383728027 C11.50139331817627 11.958959579467773 11.865476608276367 11.982934951782227 11.613545417785645 12.21147346496582 L11.613545417785645 12.21147346496582 C11.620621681213379 12.137796401977539 11.624881744384766 12.049800872802734 11.578364372253418 11.992228507995605 L11.578364372253418 11.992228507995605 C11.567300796508789 11.99452018737793 11.55623722076416 11.996810913085938 11.545173645019531 11.999102592468262 L11.545173645019531 11.999102592468262 C11.539782524108887 12.075092315673828 11.534391403198242 12.151082992553711 11.529000282287598 12.227072715759277 L11.529000282287598 12.227072715759277 C11.500072479248047 12.153581619262695 11.471145629882812 12.08009147644043 11.442217826843262 12.006600379943848 L11.442217826843262 12.006600379943848 C11.426518440246582 12.070409774780273 11.410818099975586 12.134218215942383 11.395118713378906 12.198027610778809 L11.395118713378906 12.198027610778809 C11.372855186462402 12.11434555053711 11.350590705871582 12.030664443969727 11.328327178955078 11.946982383728027 L11.328327178955078 11.946982383728027"></path></svg>