<svg xmlns="http://www.w3.org/2000/svg" viewBox="0.0 0.0 24.0 24.0" height="200px" width="200px"><path fill="none" stroke="black" stroke-width=".3" stroke-opacity="1.0"  filling="0" d="M15.358610153198242 11.892217636108398 L15.358610153198242 11.892217636108398 C15.44252872467041 11.961705207824707 15.518856048583984 12.040487289428711 15.590509414672852 12.122564315795898 L15.590509414672852 12.122564315795898 C15.563345909118652 12.177436828613281 15.536181449890137 12.23231029510498 15.509017944335938 12.287182807922363 L15.509017944335938 12.287182807922363 C15.473681449890137 12.217137336730957 15.438345909118652 12.147090911865234 15.403009414672852 12.077045440673828 L15.403009414672852 12.077045440673828 C15.375964164733887 12.137808799743652 15.348917961120605 12.198573112487793 15.32187271118164 12.259336471557617 L15.32187271118164 12.259336471557617 C15.266545295715332 12.137354850769043 15.21121883392334 12.015373229980469 15.155891418457031 11.893391609191895 L15.155891418457031 11.893391609191895 C15.214436531066895 11.96300983428955 15.272982597351074 12.03262710571289 15.331527709960938 12.102245330810547 L15.331527709960938 12.102245330810547 C15.340555191040039 12.032236099243164 15.34958267211914 11.962226867675781 15.358610153198242 11.892217636108398 L15.358610153198242 11.892217636108398"></path></svg>