<svg xmlns="http://www.w3.org/2000/svg" viewBox="0.0 0.0 24.0 24.0" height="200px" width="200px"><path fill="none" stroke="black" stroke-width=".3" stroke-opacity="1.0"  filling="0" d="M13.849936485290527 11.993672370910645 L13.849936485290527 11.993672370910645 C13.878499984741211 12.06628131866455 13.907063484191895 12.138891220092773 13.935626983642578 12.21150016784668 L13.935626983642578 12.21150016784668 C13.960844993591309 12.213000297546387 13.986063003540039 12.214500427246094 14.01128101348877 12.2160005569458 L14.01128101348877 12.2160005569458 C14.016226768493652 12.145373344421387 14.021171569824219 12.074745178222656 14.026117324829102 12.004117965698242 L14.026117324829102 12.004117965698242 C14.036398887634277 12.004926681518555 14.04668140411377 12.005736351013184 14.056962966918945 12.006545066833496 L14.056962966918945 12.006545066833496 C14.056962966918945 12.092544555664062 14.056962966918945 12.178544998168945 14.056962966918945 12.264544486999512 L14.056962966918945 12.264544486999512 C13.99489974975586 12.264535903930664 13.932835578918457 12.2645263671875 13.870772361755371 12.264517784118652 L13.870772361755371 12.264517784118652 C13.863826751708984 12.174236297607422 13.856882095336914 12.083953857421875 13.849936485290527 11.993672370910645 L13.849936485290527 11.993672370910645"></path></svg>