<svg xmlns="http://www.w3.org/2000/svg" viewBox="0.0 0.0 24.0 24.0" height="200px" width="200px"><path fill="none" stroke="black" stroke-width=".3" stroke-opacity="1.0"  filling="0" d="M11.186535835266113 11.897345542907715 L11.186535835266113 11.897345542907715 C11.254619598388672 11.9650297164917 11.295586585998535 12.062165260314941 11.31147289276123 12.156845092773438 L11.31147289276123 12.156845092773438 C11.246536254882812 12.156845092773438 11.181599617004395 12.156845092773438 11.116662979125977 12.156845092773438 L11.116662979125977 12.156845092773438 C11.138459205627441 12.090173721313477 11.165532112121582 12.02037525177002 11.215336799621582 11.970982551574707 L11.215336799621582 11.970982551574707 C11.209327697753906 11.964345932006836 11.203317642211914 11.957709312438965 11.197308540344238 11.951072692871094 L11.197308540344238 11.951072692871094 C11.166726112365723 11.955699920654297 11.136144638061523 11.9603271484375 11.105562210083008 11.964954376220703 L11.105562210083008 11.964954376220703 C11.101935386657715 11.954500198364258 11.098308563232422 11.944045066833496 11.094681739807129 11.93359088897705 L11.094681739807129 11.93359088897705 C11.125299453735352 11.9215087890625 11.15591812133789 11.909427642822266 11.186535835266113 11.897345542907715 L11.186535835266113 11.897345542907715"></path></svg>