<svg xmlns="http://www.w3.org/2000/svg" viewBox="0.0 0.0 24.0 24.0" height="200px" width="200px"><path fill="none" stroke="black" stroke-width=".3" stroke-opacity="1.0"  filling="0" d="M10.77417278289795 11.915426254272461 L10.77417278289795 11.915426254272461 C10.810054779052734 12.025435447692871 10.84593677520752 12.135445594787598 10.881818771362305 12.245454788208008 L10.881818771362305 12.245454788208008 C10.854545593261719 12.245454788208008 10.82727336883545 12.245454788208008 10.800000190734863 12.245454788208008 L10.800000190734863 12.245454788208008 C10.778796195983887 12.16692066192627 10.760967254638672 12.087398529052734 10.746572494506836 12.007336616516113 L10.746572494506836 12.007336616516113 C10.732163429260254 12.008872985839844 10.717754364013672 12.010409355163574 10.70334529876709 12.011945724487305 L10.70334529876709 12.011945724487305 C10.698126792907715 12.09072494506836 10.694111824035645 12.17261028289795 10.663663864135742 12.245454788208008 L10.663663864135742 12.245454788208008 C10.654572486877441 12.245454788208008 10.645482063293457 12.245454788208008 10.636390686035156 12.245454788208008 L10.636390686035156 12.245454788208008 C10.619772911071777 12.166836738586426 10.603154182434082 12.088217735290527 10.586536407470703 12.009599685668945 L10.586536407470703 12.009599685668945 C10.547447204589844 12.080612182617188 10.529118537902832 12.16441535949707 10.527299880981445 12.245454788208008 L10.527299880981445 12.245454788208008 C10.437311172485352 12.198201179504395 10.473631858825684 12.047091484069824 10.472726821899414 11.945454597473145 L10.472726821899414 11.945454597473145 C10.5472993850708 11.945454597473145 10.621872901916504 11.945454597473145 10.69644546508789 11.945454597473145 L10.69644546508789 11.945454597473145 C10.697036743164062 11.953672409057617 10.697627067565918 11.961891174316406 10.69821834564209 11.970108985900879 L10.69821834564209 11.970108985900879 C10.723536491394043 11.951881408691406 10.748854637145996 11.933653831481934 10.77417278289795 11.915426254272461 L10.77417278289795 11.915426254272461"></path></svg>