<svg xmlns="http://www.w3.org/2000/svg" viewBox="0.0 0.0 24.0 24.0" height="200px" width="200px"><path fill="none" stroke="black" stroke-width=".3" stroke-opacity="1.0"  filling="0" d="M11.863636016845703 11.986936569213867 L11.863636016845703 11.986936569213867 C11.937036514282227 11.998882293701172 12.010436058044434 12.01082706451416 12.083836555480957 12.022772789001465 L12.083836555480957 12.022772789001465 C12.068291664123535 12.092154502868652 12.052745819091797 12.16153621673584 12.037200927734375 12.230917930603027 L12.037200927734375 12.230917930603027 C12.03152847290039 12.165008544921875 12.02585506439209 12.099100112915039 12.020182609558105 12.033190727233887 L12.020182609558105 12.033190727233887 C11.993536949157715 12.033190727233887 11.96689224243164 12.033190727233887 11.94024658203125 12.033190727233887 L11.94024658203125 12.033190727233887 C11.932891845703125 12.103944778442383 11.925537109375 12.174699783325195 11.918182373046875 12.245453834533691 L11.918182373046875 12.245453834533691 C11.90000057220459 12.245453834533691 11.881817817687988 12.245454788208008 11.863636016845703 12.245454788208008 L11.863636016845703 12.245454788208008 C11.863636016845703 12.159281730651855 11.863636016845703 12.07310962677002 11.863636016845703 11.986936569213867 L11.863636016845703 11.986936569213867"></path></svg>