<svg xmlns="http://www.w3.org/2000/svg" viewBox="0.0 0.0 24.0 24.0" height="200px" width="200px"><path fill="none" stroke="black" stroke-width=".3" stroke-opacity="1.0"  filling="0" d="M10.7298002243042 11.977554321289062 L10.7298002243042 11.977554321289062 C10.800646781921387 12.04599666595459 10.831003189086914 12.149802207946777 10.854545593261719 12.245454788208008 L10.854545593261719 12.245454788208008 C10.809091567993164 12.245454788208008 10.763636589050293 12.245454788208008 10.718182563781738 12.245454788208008 L10.718182563781738 12.245454788208008 C10.69616413116455 12.171627044677734 10.674145698547363 12.097800254821777 10.652127265930176 12.023972511291504 L10.652127265930176 12.023972511291504 C10.655963897705078 12.097800254821777 10.65980052947998 12.171627044677734 10.663637161254883 12.245454788208008 L10.663637161254883 12.245454788208008 C10.627273559570312 12.245454788208008 10.590909004211426 12.245454788208008 10.554545402526855 12.245454788208008 L10.554545402526855 12.245454788208008 C10.545517921447754 12.180609703063965 10.536491394042969 12.115763664245605 10.527463912963867 12.050918579101562 L10.527463912963867 12.050918579101562 C10.518309593200684 12.115763664245605 10.509154319763184 12.180609703063965 10.5 12.245454788208008 L10.5 12.245454788208008 C10.472726821899414 12.245454788208008 10.445454597473145 12.245454788208008 10.418181419372559 12.245454788208008 L10.418181419372559 12.245454788208008 C10.411981582641602 12.16567325592041 10.405780792236328 12.085890769958496 10.399580955505371 12.006109237670898 L10.399580955505371 12.006109237670898 C10.50965404510498 11.996590614318848 10.61972713470459 11.987072944641113 10.7298002243042 11.977554321289062 L10.7298002243042 11.977554321289062"></path></svg>