<svg xmlns="http://www.w3.org/2000/svg" viewBox="0.0 0.0 24.0 24.0" height="200px" width="200px"><path fill="none" stroke="black" stroke-width=".3" stroke-opacity="1.0"  filling="0" d="M12.094199180603027 11.908690452575684 L12.094199180603027 11.908690452575684 C12.130026817321777 11.931990623474121 12.165853500366211 11.955289840698242 12.201681137084961 11.97859001159668 L12.201681137084961 11.97859001159668 C12.198217391967773 11.987799644470215 12.194753646850586 11.997008323669434 12.191289901733398 12.006217956542969 L12.191289901733398 12.006217956542969 C12.157453536987305 12.01236343383789 12.123618125915527 12.018508911132812 12.089781761169434 12.024654388427734 L12.089781761169434 12.024654388427734 C12.09561824798584 12.003772735595703 12.101454734802246 11.982890129089355 12.107291221618652 11.962008476257324 L12.107291221618652 11.962008476257324 C12.09636402130127 11.959027290344238 12.08543586730957 11.956045150756836 12.074508666992188 11.95306396484375 L12.074508666992188 11.95306396484375 C12.061263084411621 12.01310920715332 12.048018455505371 12.07315444946289 12.034772872924805 12.133199691772461 L12.034772872924805 12.133199691772461 C12.015172958374023 12.085872650146484 11.995572090148926 12.038545608520508 11.975972175598145 11.991218566894531 L11.975972175598145 11.991218566894531 C12.015380859375 11.963708877563477 12.054790496826172 11.936200141906738 12.094199180603027 11.908690452575684 L12.094199180603027 11.908690452575684"></path></svg>