<svg xmlns="http://www.w3.org/2000/svg" viewBox="0.0 0.0 24.0 24.0" height="200px" width="200px"><path fill="none" stroke="black" stroke-width=".3" stroke-opacity="1.0"  filling="0" d="M12.785646438598633 11.613871574401855 L12.785646438598633 11.613871574401855 C12.853137016296387 11.618498802185059 12.920628547668457 11.623126983642578 12.988119125366211 11.627754211425781 L12.988119125366211 11.627754211425781 C12.958700180053711 11.744344711303711 12.929282188415527 11.860936164855957 12.899863243103027 11.977526664733887 L12.899863243103027 11.977526664733887 C12.943663597106934 11.977526664733887 12.987462997436523 11.977526664733887 13.03126335144043 11.977526664733887 L13.03126335144043 11.977526664733887 C13.04608154296875 12.079508781433105 13.06089973449707 12.181489944458008 13.07571792602539 12.283472061157227 L13.07571792602539 12.283472061157227 C13.09587287902832 12.274681091308594 13.116026878356934 12.265890121459961 13.136181831359863 12.257099151611328 L13.136181831359863 12.257099151611328 C13.140754699707031 12.263872146606445 13.145326614379883 12.270645141601562 13.14989948272705 12.27741813659668 L13.14989948272705 12.27741813659668 C12.912742614746094 12.407024383544922 12.878456115722656 12.125330924987793 12.829608917236328 11.95366382598877 L12.829608917236328 11.95366382598877 C12.868181228637695 11.846166610717773 12.86632251739502 11.694710731506348 12.785646438598633 11.613871574401855 L12.785646438598633 11.613871574401855"></path></svg>