<svg xmlns="http://www.w3.org/2000/svg" viewBox="0.0 0.0 24.0 24.0" height="200px" width="200px"><path fill="none" stroke="black" stroke-width=".3" stroke-opacity="1.0"  filling="0" d="M12.32479190826416 12.004664421081543 L12.32479190826416 12.004664421081543 C12.361982345581055 12.08493709564209 12.399173736572266 12.16520881652832 12.43636417388916 12.245481491088867 L12.43636417388916 12.245481491088867 C12.418182373046875 12.24547290802002 12.399999618530273 12.245463371276855 12.381817817687988 12.245454788208008 L12.381817817687988 12.245454788208008 C12.344326972961426 12.221409797668457 12.306836128234863 12.19736385345459 12.2693452835083 12.173318862915039 L12.2693452835083 12.173318862915039 C12.272845268249512 12.165373802185059 12.276346206665039 12.157427787780762 12.27984619140625 12.149482727050781 L12.27984619140625 12.149482727050781 C12.318809509277344 12.162491798400879 12.357773780822754 12.175500869750977 12.396737098693848 12.188509941101074 L12.396737098693848 12.188509941101074 C12.400164604187012 12.183401107788086 12.403592109680176 12.178291320800781 12.40701961517334 12.173182487487793 L12.40701961517334 12.173182487487793 C12.358100891113281 12.12503719329834 12.309183120727539 12.07689094543457 12.26026439666748 12.028745651245117 L12.26026439666748 12.028745651245117 C12.326300621032715 12.024282455444336 12.392337799072266 12.019818305969238 12.4583740234375 12.015355110168457 L12.4583740234375 12.015355110168457 C12.413846969604492 12.011791229248047 12.369318962097168 12.008228302001953 12.32479190826416 12.004664421081543 L12.32479190826416 12.004664421081543"></path></svg>