<svg xmlns="http://www.w3.org/2000/svg" viewBox="0.0 0.0 24.0 24.0" height="200px" width="200px"><path fill="none" stroke="black" stroke-width=".3" stroke-opacity="1.0"  filling="0" d="M12.736336708068848 11.809091567993164 L12.736336708068848 11.809091567993164 C12.763618469238281 11.809091567993164 12.790900230407715 11.809091567993164 12.818181991577148 11.809091567993164 L12.818181991577148 11.809091567993164 C12.810564041137695 11.932473182678223 12.802945137023926 12.055853843688965 12.795327186584473 12.179235458374023 L12.795327186584473 12.179235458374023 C12.738445281982422 12.182372093200684 12.681563377380371 12.185508728027344 12.62468147277832 12.188645362854004 L12.62468147277832 12.188645362854004 C12.66189956665039 12.09265422821045 12.699118614196777 11.996664047241211 12.736336708068848 11.900672912597656 L12.736336708068848 11.900672912597656 C12.736336708068848 11.870145797729492 12.736336708068848 11.839618682861328 12.736336708068848 11.809091567993164 L12.736336708068848 11.809091567993164"></path>
<path fill="none" stroke="black" stroke-width=".3" stroke-opacity="1.0"  filling="0" d="M12.637580871582031 11.981344223022461 L12.637580871582031 11.981344223022461 C12.668045043945312 11.981344223022461 12.698509216308594 11.981344223022461 12.728973388671875 11.981344223022461 L12.728973388671875 11.981344223022461 C12.728973388671875 12.031789779663086 12.728973388671875 12.082235336303711 12.728973388671875 12.132680892944336 L12.728973388671875 12.132680892944336 C12.698509216308594 12.082235336303711 12.668045043945312 12.031789779663086 12.637580871582031 11.981344223022461 L12.637580871582031 11.981344223022461"></path></svg>