<svg xmlns="http://www.w3.org/2000/svg" viewBox="0.0 0.0 24.0 24.0" height="200px" width="200px"><path fill="none" stroke="black" stroke-width=".3" stroke-opacity="1.0"  filling="0" d="M11.767609596252441 11.589218139648438 L11.767609596252441 11.589218139648438 C11.830700874328613 11.599145889282227 11.893791198730469 11.609073638916016 11.95688247680664 11.619001388549805 L11.95688247680664 11.619001388549805 C11.956891059875488 11.830965042114258 11.956900596618652 12.042927742004395 11.9569091796875 12.254891395568848 L11.9569091796875 12.254891395568848 C12.025918006896973 12.254891395568848 12.094927787780762 12.254891395568848 12.163936614990234 12.254891395568848 L12.163936614990234 12.254891395568848 C12.154936790466309 12.040282249450684 12.145936965942383 11.82567310333252 12.136937141418457 11.611063957214355 L12.136937141418457 11.611063957214355 C12.480066299438477 11.789067268371582 12.41457748413086 12.068093299865723 12.21905517578125 12.315164566040039 L12.21905517578125 12.315164566040039 C12.02568244934082 12.315164566040039 11.832310676574707 12.315164566040039 11.638937950134277 12.315164566040039 L11.638937950134277 12.315164566040039 C11.681828498840332 12.288119316101074 11.724719047546387 12.261073112487793 11.767609596252441 12.234027862548828 L11.767609596252441 12.234027862548828 C11.767609596252441 12.019091606140137 11.767609596252441 11.804154396057129 11.767609596252441 11.589218139648438 L11.767609596252441 11.589218139648438"></path></svg>