<svg xmlns="http://www.w3.org/2000/svg" viewBox="0.0 0.0 24.0 24.0" height="200px" width="200px"><path fill="none" stroke="black" stroke-width=".3" stroke-opacity="1.0"  filling="0" d="M11.876617431640625 11.842363357543945 L11.876617431640625 11.842363357543945 C11.909771919250488 11.842363357543945 11.942927360534668 11.842363357543945 11.976081848144531 11.842363357543945 L11.976081848144531 11.842363357543945 C11.976081848144531 11.958754539489746 11.976081848144531 12.07514476776123 11.976081848144531 12.191535949707031 L11.976081848144531 12.191535949707031 C11.88464641571045 12.172321319580078 11.830825805664062 11.996108055114746 11.890853881835938 11.924509048461914 L11.890853881835938 11.924509048461914 C11.8861083984375 11.897127151489258 11.881362915039062 11.869745254516602 11.876617431640625 11.842363357543945 L11.876617431640625 11.842363357543945"></path>
<path fill="none" stroke="black" stroke-width=".3" stroke-opacity="1.0"  filling="0" d="M11.846590042114258 11.989171981811523 L11.846590042114258 11.989171981811523 C11.858244895935059 11.992627143859863 11.86989974975586 11.996081352233887 11.88155460357666 11.999536514282227 L11.88155460357666 11.999536514282227 C11.884836196899414 12.051227569580078 11.888118743896484 12.10291862487793 11.891400337219238 12.154609680175781 L11.891400337219238 12.154609680175781 C11.878118515014648 12.159854888916016 11.864836692810059 12.16510009765625 11.851554870605469 12.170345306396484 L11.851554870605469 12.170345306396484 C11.821781158447266 12.117777824401855 11.806821823120117 12.034650802612305 11.846590042114258 11.989171981811523 L11.846590042114258 11.989171981811523"></path></svg>