<svg xmlns="http://www.w3.org/2000/svg" viewBox="0.0 0.0 24.0 24.0" height="200px" width="200px"><path fill="none" stroke="black" stroke-width=".3" stroke-opacity="1.0"  filling="0" d="M11.754545211791992 11.886791229248047 L11.754545211791992 11.886791229248047 C11.784727096557617 11.929464340209961 11.814908981323242 11.972136497497559 11.845090866088867 12.014809608459473 L11.845090866088867 12.014809608459473 C11.926886558532715 12.06873607635498 12.007169723510742 12.149566650390625 12.027273178100586 12.245454788208008 L12.027273178100586 12.245454788208008 C11.990909576416016 12.245454788208008 11.954545974731445 12.245454788208008 11.918182373046875 12.245454788208008 L11.918182373046875 12.245454788208008 C11.918182373046875 12.19251823425293 11.918182373046875 12.139581680297852 11.918182373046875 12.086645126342773 L11.918182373046875 12.086645126342773 C11.90000057220459 12.139581680297852 11.881817817687988 12.19251823425293 11.863636016845703 12.245454788208008 L11.863636016845703 12.245454788208008 C11.827272415161133 12.245454788208008 11.790908813476562 12.245454788208008 11.754545211791992 12.245454788208008 L11.754545211791992 12.245454788208008 C11.754545211791992 12.125900268554688 11.754545211791992 12.006345748901367 11.754545211791992 11.886791229248047 L11.754545211791992 11.886791229248047"></path></svg>