<svg xmlns="http://www.w3.org/2000/svg" viewBox="0.0 0.0 24.0 24.0" height="200px" width="200px"><path fill="none" stroke="black" stroke-width=".3" stroke-opacity="1.0"  filling="0" d="M13.138608932495117 11.652763366699219 L13.138608932495117 11.652763366699219 C13.142581939697266 11.709426879882812 13.14655590057373 11.766091346740723 13.150528907775879 11.822754859924316 L13.150528907775879 11.822754859924316 C13.183637619018555 11.83519172668457 13.21674633026123 11.847627639770508 13.249855041503906 11.860064506530762 L13.249855041503906 11.860064506530762 C13.206637382507324 11.905537605285645 13.163418769836426 11.951009750366211 13.120201110839844 11.996482849121094 L13.120201110839844 11.996482849121094 C13.131319046020508 12.055937767028809 13.142436981201172 12.115391731262207 13.153554916381836 12.174846649169922 L13.153554916381836 12.174846649169922 C13.185900688171387 12.19099235534668 13.218245506286621 12.207138061523438 13.250591278076172 12.223283767700195 L13.250591278076172 12.223283767700195 C12.968753814697266 12.396125793457031 12.96643352508545 12.103962898254395 12.889690399169922 11.858781814575195 L12.889690399169922 11.858781814575195 C12.972662925720215 11.790108680725098 13.055636405944824 11.721436500549316 13.138608932495117 11.652763366699219 L13.138608932495117 11.652763366699219"></path></svg>