<svg xmlns="http://www.w3.org/2000/svg" viewBox="0.0 0.0 24.0 24.0" height="200px" width="200px"><path fill="none" stroke="black" stroke-width=".3" stroke-opacity="1.0"  filling="0" d="M11.401063919067383 11.572117805480957 L11.401063919067383 11.572117805480957 C11.58096694946289 11.741092681884766 11.646478652954102 12.00211238861084 11.739164352416992 12.230863571166992 L11.739164352416992 12.230863571166992 C11.670209884643555 12.199390411376953 11.6012544631958 12.16791820526123 11.532299995422363 12.136445045471191 L11.532299995422363 12.136445045471191 C11.450182914733887 12.136381149291992 11.049704551696777 12.338282585144043 11.08017349243164 12.20380973815918 C11.132363319396973 11.97347354888916 11.221434593200684 11.725452423095703 11.401063919067383 11.572117805480957 L11.401063919067383 11.572117805480957"></path>
<path fill="none" stroke="black" stroke-width=".3" stroke-opacity="1.0"  filling="0" d="M11.414400100708008 11.785527229309082 L11.414400100708008 11.785527229309082 C11.44123649597168 11.861445426940918 11.468072891235352 11.937363624572754 11.494909286499023 12.01328182220459 L11.494909286499023 12.01328182220459 C11.455599784851074 12.019200325012207 11.416291236877441 12.025117874145508 11.376981735229492 12.031036376953125 L11.376981735229492 12.031036376953125 C11.38945484161377 11.949199676513672 11.40192699432373 11.867363929748535 11.414400100708008 11.785527229309082 L11.414400100708008 11.785527229309082"></path></svg>