<svg xmlns="http://www.w3.org/2000/svg" viewBox="0.0 0.0 24.0 24.0" height="200px" width="200px"><path fill="none" stroke="black" stroke-width=".3" stroke-opacity="1.0"  filling="0" d="M11.89936351776123 11.836746215820312 L11.89936351776123 11.836746215820312 C11.958454132080078 11.927428245544434 12.017545700073242 12.018109321594238 12.07663631439209 12.10879135131836 L12.07663631439209 12.10879135131836 C11.983681678771973 12.10879135131836 11.890727043151855 12.10879135131836 11.797772407531738 12.10879135131836 L11.797772407531738 12.10879135131836 C11.876129150390625 12.1654052734375 11.975008964538574 12.199688911437988 12.071562767028809 12.204410552978516 L12.071562767028809 12.204410552978516 C11.57746410369873 12.336223602294922 11.486964225769043 12.08810043334961 11.89936351776123 11.836746215820312 L11.89936351776123 11.836746215820312"></path>
<path fill="none" stroke="black" stroke-width=".3" stroke-opacity="1.0"  filling="0" d="M11.856709480285645 11.909018516540527 L11.856709480285645 11.909018516540527 C11.893290519714355 11.94191837310791 11.929872512817383 11.974818229675293 11.966453552246094 12.007718086242676 L11.966453552246094 12.007718086242676 C11.892181396484375 12.016926765441895 11.817909240722656 12.02613639831543 11.743637084960938 12.035345077514648 L11.743637084960938 12.035345077514648 C11.781328201293945 11.993236541748047 11.819018363952637 11.951127052307129 11.856709480285645 11.909018516540527 L11.856709480285645 11.909018516540527"></path></svg>