<svg xmlns="http://www.w3.org/2000/svg" viewBox="0.0 0.0 24.0 24.0" height="200px" width="200px"><path fill="none" stroke="black" stroke-width=".3" stroke-opacity="1.0"  filling="0" d="M11.207809448242188 11.963835716247559 L11.207809448242188 11.963835716247559 C11.266018867492676 11.98198127746582 11.324227333068848 12.000126838684082 11.382436752319336 12.018272399902344 L11.382436752319336 12.018272399902344 C11.333818435668945 12.013908386230469 11.285201072692871 12.009544372558594 11.23658275604248 12.005180358886719 L11.23658275604248 12.005180358886719 C11.221055030822754 12.045389175415039 11.205528259277344 12.085598945617676 11.190000534057617 12.125807762145996 L11.190000534057617 12.125807762145996 C11.248208999633789 12.127690315246582 11.306418418884277 12.129571914672852 11.36462688446045 12.131454467773438 L11.36462688446045 12.131454467773438 C11.340054512023926 12.169445037841797 11.315481185913086 12.207435607910156 11.290908813476562 12.245426177978516 L11.290908813476562 12.245426177978516 C11.263636589050293 12.24543571472168 11.236363410949707 12.245445251464844 11.209091186523438 12.245454788208008 L11.209091186523438 12.245454788208008 C11.158775329589844 12.166204452514648 11.150636672973633 12.038290977478027 11.207809448242188 11.963835716247559 L11.207809448242188 11.963835716247559"></path></svg>