<svg xmlns="http://www.w3.org/2000/svg" viewBox="0.0 0.0 24.0 24.0" height="200px" width="200px"><path fill="none" stroke="black" stroke-width=".3" stroke-opacity="1.0"  filling="0" d="M12.233943939208984 11.8410005569458 L12.233943939208984 11.8410005569458 C12.596908569335938 11.860644340515137 12.685103416442871 12.39833927154541 12.418609619140625 12.2831449508667 L12.418609619140625 12.2831449508667 C11.922792434692383 12.394525527954102 12.245153427124023 12.08369255065918 12.373990058898926 11.92524528503418 L12.373990058898926 11.92524528503418 C12.294644355773926 11.920818328857422 12.215299606323242 11.916390419006348 12.135953903198242 11.91196346282959 L12.135953903198242 11.91196346282959 C12.168617248535156 11.888309478759766 12.20128059387207 11.864654541015625 12.233943939208984 11.8410005569458 L12.233943939208984 11.8410005569458"></path>
<path fill="none" stroke="black" stroke-width=".3" stroke-opacity="1.0"  filling="0" d="M12.40273666381836 12.098154067993164 L12.40273666381836 12.098154067993164 C12.406208992004395 12.10851764678955 12.409682273864746 12.118882179260254 12.413154602050781 12.12924575805664 L12.413154602050781 12.12924575805664 C12.386791229248047 12.163673400878906 12.360426902770996 12.198100090026855 12.334063529968262 12.232527732849121 L12.334063529968262 12.232527732849121 C12.305381774902344 12.20577335357666 12.276700019836426 12.179018020629883 12.248018264770508 12.152263641357422 L12.248018264770508 12.152263641357422 C12.286120414733887 12.113105773925781 12.348264694213867 12.10237979888916 12.40273666381836 12.098154067993164 L12.40273666381836 12.098154067993164"></path></svg>