<svg xmlns="http://www.w3.org/2000/svg" viewBox="0.0 0.0 24.0 24.0" height="200px" width="200px"><path fill="none" stroke="black" stroke-width=".3" stroke-opacity="1.0"  filling="0" d="M12.80440902709961 11.979464530944824 L12.80440902709961 11.979464530944824 C12.843782424926758 12.008455276489258 12.88315486907959 12.037446022033691 12.922528266906738 12.066436767578125 L12.922528266906738 12.066436767578125 C12.875019073486328 12.097427368164062 12.827508926391602 12.12841796875 12.779999732971191 12.159408569335938 L12.779999732971191 12.159408569335938 C12.815500259399414 12.162335395812988 12.85099983215332 12.165263175964355 12.886500358581543 12.168190002441406 L12.886500358581543 12.168190002441406 C12.889127731323242 12.174826622009277 12.891755104064941 12.181463241577148 12.89438247680664 12.18809986114502 L12.89438247680664 12.18809986114502 C12.816192626953125 12.223237991333008 12.7461576461792 12.081539154052734 12.718636512756348 12.000354766845703 L12.718636512756348 12.000354766845703 C12.75587272644043 12.017836570739746 12.793109893798828 12.035318374633789 12.83034610748291 12.052800178527832 L12.83034610748291 12.052800178527832 C12.834710121154785 12.048218727111816 12.839073181152344 12.043636322021484 12.843437194824219 12.039054870605469 L12.843437194824219 12.039054870605469 C12.830428123474121 12.01919174194336 12.817418098449707 11.999327659606934 12.80440902709961 11.979464530944824 L12.80440902709961 11.979464530944824"></path></svg>