<svg xmlns="http://www.w3.org/2000/svg" viewBox="0.0 0.0 24.0 24.0" height="200px" width="200px"><path fill="none" stroke="black" stroke-width=".3" stroke-opacity="1.0"  filling="0" d="M11.446118354797363 11.862081527709961 L11.446118354797363 11.862081527709961 C11.451300621032715 11.896336555480957 11.45648193359375 11.930590629577637 11.461664199829102 11.964845657348633 L11.461664199829102 11.964845657348633 C11.512154579162598 12.055609703063965 11.56264591217041 12.14637279510498 11.613136291503906 12.237136840820312 L11.613136291503906 12.237136840820312 C11.529345512390137 12.237136840820312 11.44555377960205 12.237136840820312 11.361763000488281 12.237136840820312 L11.361763000488281 12.237136840820312 C11.361763000488281 12.116318702697754 11.361763000488281 11.995500564575195 11.361763000488281 11.874682426452637 L11.361763000488281 11.874682426452637 C11.389881134033203 11.870482444763184 11.418000221252441 11.866281509399414 11.446118354797363 11.862081527709961 L11.446118354797363 11.862081527709961"></path>
<path fill="none" stroke="black" stroke-width=".3" stroke-opacity="1.0"  filling="0" d="M11.525863647460938 12.030327796936035 L11.525863647460938 12.030327796936035 C11.525863647460938 12.089982032775879 11.525863647460938 12.149637222290039 11.525863647460938 12.209291458129883 L11.525863647460938 12.209291458129883 C11.481484413146973 12.169427871704102 11.495217323303223 12.08150863647461 11.525863647460938 12.030327796936035 L11.525863647460938 12.030327796936035"></path></svg>