<svg xmlns="http://www.w3.org/2000/svg" viewBox="0.0 0.0 24.0 24.0" height="200px" width="200px"><path fill="none" stroke="black" stroke-width=".3" stroke-opacity="1.0"  filling="0" d="M11.945483207702637 11.809063911437988 L11.945483207702637 11.809063911437988 C11.963655471801758 11.809073448181152 11.981827735900879 11.80908203125 12.0 11.809091567993164 L12.0 11.809091567993164 C12.001227378845215 11.835209846496582 12.00245475769043 11.861327171325684 12.003682136535645 11.887445449829102 L12.003682136535645 11.887445449829102 C12.045027732849121 11.877772331237793 12.086373329162598 11.8681001663208 12.127718925476074 11.858427047729492 L12.127718925476074 11.858427047729492 C12.148818969726562 11.947809219360352 12.16991901397705 12.037190437316895 12.191019058227539 12.126572608947754 L12.191019058227539 12.126572608947754 C12.156855583190918 12.126572608947754 12.122692108154297 12.126572608947754 12.088528633117676 12.126572608947754 L12.088528633117676 12.126572608947754 C12.076664924621582 12.057172775268555 12.064801216125488 11.987771987915039 12.052937507629395 11.91837215423584 L12.052937507629395 11.91837215423584 C12.042437553405762 11.988762855529785 12.031936645507812 12.059154510498047 12.02143669128418 12.129545211791992 L12.02143669128418 12.129545211791992 C11.996118545532227 12.129545211791992 11.97080135345459 12.129545211791992 11.945483207702637 12.129545211791992 L11.945483207702637 12.129545211791992 C11.945483207702637 12.02271842956543 11.945483207702637 11.91589069366455 11.945483207702637 11.809063911437988 L11.945483207702637 11.809063911437988"></path></svg>