<svg xmlns="http://www.w3.org/2000/svg" viewBox="0.0 0.0 24.0 24.0" height="200px" width="200px"><path fill="none" stroke="black" stroke-width=".3" stroke-opacity="1.0"  filling="0" d="M12.370582580566406 11.661600112915039 L12.370582580566406 11.661600112915039 C12.370582580566406 11.752972602844238 12.370582580566406 11.844344139099121 12.370582580566406 11.93571662902832 L12.370582580566406 11.93571662902832 C12.485640525817871 12.013941764831543 12.599933624267578 12.145295143127441 12.599973678588867 12.28442668914795 L12.599973678588867 12.28442668914795 C12.558573722839355 12.28442668914795 12.517173767089844 12.28442668914795 12.475773811340332 12.28442668914795 L12.475773811340332 12.28442668914795 C12.5439453125 11.921701431274414 12.335161209106445 11.904054641723633 12.397936820983887 12.286227226257324 L12.397936820983887 12.286227226257324 C12.352245330810547 12.286227226257324 12.306554794311523 12.286227226257324 12.260863304138184 12.286227226257324 L12.260863304138184 12.286227226257324 C12.260863304138184 12.090526580810547 12.260863304138184 11.894826889038086 12.260863304138184 11.699126243591309 L12.260863304138184 11.699126243591309 C12.297436714172363 11.686617851257324 12.334009170532227 11.674108505249023 12.370582580566406 11.661600112915039 L12.370582580566406 11.661600112915039"></path></svg>