<svg xmlns="http://www.w3.org/2000/svg" viewBox="0.0 0.0 24.0 24.0" height="200px" width="200px"><path fill="none" stroke="black" stroke-width=".3" stroke-opacity="1.0"  filling="0" d="M12.354545593261719 11.809091567993164 L12.354545593261719 11.809091567993164 C12.390909194946289 11.809091567993164 12.42727279663086 11.809091567993164 12.46363639831543 11.809091567993164 L12.46363639831543 11.809091567993164 C12.46363639831543 11.935736656188965 12.46363639831543 12.062382698059082 12.46363639831543 12.189027786254883 L12.46363639831543 12.189027786254883 C12.397727012634277 12.199573516845703 12.331818580627441 12.210118293762207 12.265909194946289 12.220664024353027 L12.265909194946289 12.220664024353027 C12.270645141601562 12.129764556884766 12.275382041931152 12.038864135742188 12.280117988586426 11.947964668273926 L12.280117988586426 11.947964668273926 C12.314199447631836 11.945137023925781 12.348281860351562 11.942309379577637 12.382363319396973 11.939481735229492 L12.382363319396973 11.939481735229492 C12.373090744018555 11.896018028259277 12.363818168640137 11.852555274963379 12.354545593261719 11.809091567993164 L12.354545593261719 11.809091567993164"></path>
<path fill="none" stroke="black" stroke-width=".3" stroke-opacity="1.0"  filling="0" d="M12.318326950073242 11.976272583007812 L12.318326950073242 11.976272583007812 C12.327117919921875 12.035881996154785 12.335908889770508 12.095490455627441 12.34469985961914 12.155099868774414 L12.34469985961914 12.155099868774414 C12.335908889770508 12.095490455627441 12.327117919921875 12.035881996154785 12.318326950073242 11.976272583007812 L12.318326950073242 11.976272583007812"></path></svg>