<svg xmlns="http://www.w3.org/2000/svg" viewBox="0.0 0.0 24.0 24.0" height="200px" width="200px"><path fill="none" stroke="black" stroke-width=".3" stroke-opacity="1.0"  filling="0" d="M11.32870864868164 11.936509132385254 L11.32870864868164 11.936509132385254 C11.358072280883789 12.028390884399414 11.387436866760254 12.120272636413574 11.416800498962402 12.212154388427734 L11.416800498962402 12.212154388427734 C11.39067268371582 12.212154388427734 11.364545822143555 12.212154388427734 11.338418006896973 12.212154388427734 L11.338418006896973 12.212154388427734 C11.338418006896973 12.152735710144043 11.338418006896973 12.093317985534668 11.338418006896973 12.033899307250977 L11.338418006896973 12.033899307250977 C11.277149200439453 12.07677936553955 11.250557899475098 12.171801567077637 11.263663291931152 12.245427131652832 L11.263663291931152 12.245427131652832 C11.245481491088867 12.245427131652832 11.227299690246582 12.245427131652832 11.209117889404297 12.245427131652832 L11.209117889404297 12.245427131652832 C11.19544506072998 12.175372123718262 11.181772232055664 12.105318069458008 11.168099403381348 12.035263061523438 L11.168099403381348 12.035263061523438 C11.142708778381348 12.091390609741211 11.117318153381348 12.147518157958984 11.091927528381348 12.203645706176758 L11.091927528381348 12.203645706176758 C11.076445579528809 12.217573165893555 11.06096363067627 12.231500625610352 11.04548168182373 12.245428085327148 L11.04548168182373 12.245428085327148 C11.027291297912598 12.245436668395996 11.009099960327148 12.24544620513916 10.990909576416016 12.245454788208008 L10.990909576416016 12.245454788208008 C11.0048189163208 12.155136108398438 11.01872730255127 12.064818382263184 11.032636642456055 11.974499702453613 L11.032636642456055 11.974499702453613 C11.132107734680176 11.976874351501465 11.232598304748535 11.962259292602539 11.32870864868164 11.936509132385254 L11.32870864868164 11.936509132385254"></path></svg>