<svg xmlns="http://www.w3.org/2000/svg" viewBox="0.0 0.0 24.0 24.0" height="200px" width="200px"><path fill="none" stroke="black" stroke-width=".3" stroke-opacity="1.0"  filling="0" d="M12.034772872924805 11.981971740722656 L12.034772872924805 11.981971740722656 C12.075799942016602 11.981971740722656 12.116827964782715 11.981971740722656 12.157855033874512 11.981971740722656 L12.157855033874512 11.981971740722656 C12.158909797668457 11.990117073059082 12.159963607788086 11.998263359069824 12.161018371582031 12.00640869140625 L12.161018371582031 12.00640869140625 C12.136099815368652 12.01221752166748 12.11118221282959 12.018027305603027 12.086263656616211 12.023836135864258 L12.086263656616211 12.023836135864258 C12.102954864501953 12.097718238830566 12.119645118713379 12.171599388122559 12.136336326599121 12.245481491088867 L12.136336326599121 12.245481491088867 C12.1090726852417 12.24547290802002 12.081809043884277 12.245463371276855 12.054545402526855 12.245454788208008 L12.054545402526855 12.245454788208008 C12.033681869506836 12.218609809875488 12.0128173828125 12.191763877868652 11.99195384979248 12.164918899536133 L11.99195384979248 12.164918899536133 C11.997735977172852 12.159355163574219 12.003517150878906 12.153790473937988 12.009299278259277 12.148226737976074 L12.009299278259277 12.148226737976074 C12.03963565826416 12.164090156555176 12.069972038269043 12.179954528808594 12.100308418273926 12.195817947387695 L12.100308418273926 12.195817947387695 C12.099328994750977 12.141176223754883 12.040430068969727 12.10195541381836 11.99757194519043 12.068045616149902 L11.99757194519043 12.068045616149902 C12.00997257232666 12.03935432434082 12.022372245788574 12.010663032531738 12.034772872924805 11.981971740722656 L12.034772872924805 11.981971740722656"></path></svg>