<svg xmlns="http://www.w3.org/2000/svg" viewBox="0.0 0.0 24.0 24.0" height="200px" width="200px"><path fill="none" stroke="black" stroke-width=".3" stroke-opacity="1.0"  filling="0" d="M11.100653648376465 11.80925464630127 L11.100653648376465 11.80925464630127 C11.154372215270996 11.9011812210083 11.268654823303223 12.02879810333252 11.202300071716309 12.112064361572266 L11.202300071716309 12.112064361572266 C11.25424575805664 12.168954849243164 11.306190490722656 12.225846290588379 11.358136177062988 12.282736778259277 L11.358136177062988 12.282736778259277 C11.262582778930664 12.27883529663086 11.17021369934082 12.221871376037598 11.10059928894043 12.15630054473877 L11.10059928894043 12.15630054473877 C11.075399398803711 12.222445487976074 11.050199508666992 12.288591384887695 11.024999618530273 12.354736328125 L11.024999618530273 12.354736328125 C10.964362144470215 12.180269241333008 10.780990600585938 11.8100004196167 11.100653648376465 11.80925464630127 L11.100653648376465 11.80925464630127"></path>
<path fill="none" stroke="black" stroke-width=".3" stroke-opacity="1.0"  filling="0" d="M11.080581665039062 11.873808860778809 L11.080581665039062 11.873808860778809 C11.072091102600098 11.939200401306152 11.063599586486816 12.00459098815918 11.055109024047852 12.069982528686523 L11.055109024047852 12.069982528686523 C11.044918060302734 12.014436721801758 11.034727096557617 11.958891868591309 11.0245361328125 11.903346061706543 L11.0245361328125 11.903346061706543 C11.043217658996582 11.893500328063965 11.06190013885498 11.883654594421387 11.080581665039062 11.873808860778809 L11.080581665039062 11.873808860778809"></path></svg>