<svg xmlns="http://www.w3.org/2000/svg" viewBox="0.0 0.0 24.0 24.0" height="200px" width="200px"><path fill="none" stroke="black" stroke-width=".3" stroke-opacity="1.0"  filling="0" d="M14.367055892944336 11.778463363647461 L14.367055892944336 11.778463363647461 C14.39024829864502 11.863527297973633 14.42012882232666 11.946985244750977 14.45552921295166 12.027735710144043 L14.45552921295166 12.027735710144043 C14.459665298461914 11.955889701843262 14.463801383972168 11.884044647216797 14.467937469482422 11.812198638916016 L14.467937469482422 11.812198638916016 C14.536173820495605 11.812198638916016 14.604411125183105 11.812198638916016 14.672647476196289 11.812198638916016 L14.672647476196289 11.812198638916016 C14.64627456665039 11.837198257446289 14.619901657104492 11.862198829650879 14.593528747558594 11.887198448181152 L14.593528747558594 11.887198448181152 C14.621774673461914 11.939798355102539 14.650019645690918 11.992399215698242 14.678265571594238 12.044999122619629 L14.678265571594238 12.044999122619629 C14.698965072631836 11.9672269821167 14.719664573669434 11.889453887939453 14.740364074707031 11.811681747436523 L14.740364074707031 11.811681747436523 C14.769109725952148 11.811681747436523 14.79785442352295 11.811681747436523 14.826600074768066 11.811681747436523 L14.826600074768066 11.811681747436523 C14.76844596862793 11.948808670043945 14.710290908813477 12.085936546325684 14.65213680267334 12.223063468933105 L14.65213680267334 12.223063468933105 C14.61919116973877 12.14312744140625 14.5862455368042 12.063191413879395 14.553299903869629 11.983255386352539 L14.553299903869629 11.983255386352539 C14.52325439453125 12.04491901397705 14.493208885192871 12.106581687927246 14.463163375854492 12.168245315551758 L14.463163375854492 12.168245315551758 C14.373418807983398 12.042280197143555 14.304954528808594 11.940130233764648 14.318455696105957 11.782036781311035 L14.318455696105957 11.782036781311035 C14.33465576171875 11.780845642089844 14.350855827331543 11.779654502868652 14.367055892944336 11.778463363647461 L14.367055892944336 11.778463363647461"></path></svg>