<svg xmlns="http://www.w3.org/2000/svg" viewBox="0.0 0.0 24.0 24.0" height="200px" width="200px"><path fill="none" stroke="black" stroke-width=".3" stroke-opacity="1.0"  filling="0" d="M12.315463066101074 11.891481399536133 L12.315463066101074 11.891481399536133 C12.414651870727539 11.935249328613281 12.55141830444336 11.988181114196777 12.569045066833496 12.095154762268066 L12.569045066833496 12.095154762268066 C12.496817588806152 12.08814525604248 12.424591064453125 12.081136703491211 12.352363586425781 12.074127197265625 L12.352363586425781 12.074127197265625 C12.387499809265137 12.063817977905273 12.422636032104492 12.053508758544922 12.457772254943848 12.04319953918457 L12.457772254943848 12.04319953918457 C12.438054084777832 12.009754180908203 12.418335914611816 11.976308822631836 12.3986177444458 11.942863464355469 L12.3986177444458 11.942863464355469 C12.383917808532715 12.061918258666992 12.369216918945312 12.1809720993042 12.354516983032227 12.300026893615723 L12.354516983032227 12.300026893615723 C12.30907154083252 12.300017356872559 12.263627052307129 12.300008773803711 12.218181610107422 12.299999237060547 L12.218181610107422 12.299999237060547 C12.17591667175293 12.16655158996582 12.251816749572754 12.016155242919922 12.315463066101074 11.891481399536133 L12.315463066101074 11.891481399536133"></path></svg>