<svg xmlns="http://www.w3.org/2000/svg" viewBox="0.0 0.0 24.0 24.0" height="200px" width="200px"><path fill="none" stroke="black" stroke-width=".3" stroke-opacity="1.0"  filling="0" d="M12.616281509399414 11.948372840881348 L12.616281509399414 11.948372840881348 C12.619272232055664 11.974827766418457 12.62226390838623 12.00128173828125 12.62525463104248 12.02773666381836 L12.62525463104248 12.02773666381836 C12.601017951965332 12.023045539855957 12.5767822265625 12.018355369567871 12.552545547485352 12.013664245605469 L12.552545547485352 12.013664245605469 C12.552536010742188 12.076790809631348 12.55252742767334 12.139918327331543 12.552517890930176 12.203044891357422 L12.552517890930176 12.203044891357422 C12.531981468200684 12.217181205749512 12.511445999145508 12.231318473815918 12.490909576416016 12.245454788208008 L12.490909576416016 12.245454788208008 C12.481818199157715 12.245454788208008 12.47272777557373 12.245454788208008 12.46363639831543 12.245454788208008 L12.46363639831543 12.245454788208008 C12.46363639831543 12.149636268615723 12.46363639831543 12.053817749023438 12.46363639831543 11.957999229431152 L12.46363639831543 11.957999229431152 C12.514517784118652 11.954790115356445 12.565400123596191 11.951581954956055 12.616281509399414 11.948372840881348 L12.616281509399414 11.948372840881348"></path></svg>