<svg xmlns="http://www.w3.org/2000/svg" viewBox="0.0 0.0 24.0 24.0" height="200px" width="200px"><path fill="none" stroke="black" stroke-width=".3" stroke-opacity="1.0"  filling="0" d="M11.665582656860352 11.837754249572754 L11.665582656860352 11.837754249572754 C11.66915512084961 11.891300201416016 11.672728538513184 11.944845199584961 11.676301002502441 11.998391151428223 L11.676301002502441 11.998391151428223 C11.721355438232422 11.976973533630371 11.766408920288086 11.955554962158203 11.811463356018066 11.934137344360352 L11.811463356018066 11.934137344360352 C11.817490577697754 11.943401336669922 11.823517799377441 11.952664375305176 11.829545021057129 11.961928367614746 L11.829545021057129 11.961928367614746 C11.792045593261719 11.995573997497559 11.754545211791992 12.029218673706055 11.717045783996582 12.062864303588867 L11.717045783996582 12.062864303588867 C11.752799987792969 12.110818862915039 11.788555145263672 12.158773422241211 11.824309349060059 12.206727981567383 L11.824309349060059 12.206727981567383 C11.781045913696289 12.189827919006348 11.737781524658203 12.172926902770996 11.694518089294434 12.156026840209961 L11.694518089294434 12.156026840209961 C11.66253662109375 12.185281753540039 11.630555152893066 12.2145357131958 11.598573684692383 12.243790626525879 L11.598573684692383 12.243790626525879 C11.592201232910156 12.110709190368652 11.585827827453613 11.97762680053711 11.579455375671387 11.844545364379883 L11.579455375671387 11.844545364379883 C11.60816478729248 11.842281341552734 11.636873245239258 11.840018272399902 11.665582656860352 11.837754249572754 L11.665582656860352 11.837754249572754"></path></svg>