<svg xmlns="http://www.w3.org/2000/svg" viewBox="0.0 0.0 24.0 24.0" height="200px" width="200px"><path fill="none" stroke="black" stroke-width=".3" stroke-opacity="1.0"  filling="0" d="M12.049418449401855 11.874218940734863 L12.049418449401855 11.874218940734863 C12.053436279296875 11.932218551635742 12.057455062866211 11.990218162536621 12.06147289276123 12.0482177734375 L12.06147289276123 12.0482177734375 C12.111299514770508 12.034172058105469 12.161127090454102 12.020127296447754 12.210953712463379 12.006081581115723 L12.210953712463379 12.006081581115723 C12.177207946777344 12.035054206848145 12.143463134765625 12.064027786254883 12.10971736907959 12.093000411987305 L12.10971736907959 12.093000411987305 C12.145880699157715 12.143827438354492 12.182044982910156 12.19465446472168 12.218208312988281 12.245481491088867 L12.218208312988281 12.245481491088867 C12.136381149291992 12.24547290802002 12.054553985595703 12.245463371276855 11.972726821899414 12.245454788208008 L11.972726821899414 12.245454788208008 C11.980490684509277 12.12862777709961 11.98825454711914 12.011799812316895 11.996018409729004 11.894972801208496 L11.996018409729004 11.894972801208496 C12.013818740844727 11.888054847717285 12.031618118286133 11.881136894226074 12.049418449401855 11.874218940734863 L12.049418449401855 11.874218940734863"></path></svg>