<svg xmlns="http://www.w3.org/2000/svg" viewBox="0.0 0.0 24.0 24.0" height="200px" width="200px"><path fill="none" stroke="black" stroke-width=".3" stroke-opacity="1.0"  filling="0" d="M12.801600456237793 11.980117797851562 L12.801600456237793 11.980117797851562 C12.855018615722656 12.001354217529297 12.90843677520752 12.022590637207031 12.961854934692383 12.043827056884766 L12.961854934692383 12.043827056884766 C12.934454917907715 12.071391105651855 12.907054901123047 12.098954200744629 12.879654884338379 12.126518249511719 L12.879654884338379 12.126518249511719 C12.848464012145996 12.091472625732422 12.817273139953613 12.056427955627441 12.78608226776123 12.021382331848145 L12.78608226776123 12.021382331848145 C12.776727676391602 12.066591262817383 12.767373085021973 12.111799240112305 12.758018493652344 12.157008171081543 L12.758018493652344 12.157008171081543 C12.815628051757812 12.166071891784668 12.873236656188965 12.175135612487793 12.930846214294434 12.184199333190918 L12.930846214294434 12.184199333190918 C12.911473274230957 12.20462703704834 12.89210033416748 12.225053787231445 12.872727394104004 12.245481491088867 L12.872727394104004 12.245481491088867 C12.827272415161133 12.24547290802002 12.781818389892578 12.245463371276855 12.736363410949707 12.245454788208008 L12.736363410949707 12.245454788208008 C12.709781646728516 12.158340454101562 12.739917755126953 12.047131538391113 12.801600456237793 11.980117797851562 L12.801600456237793 11.980117797851562"></path></svg>