<svg xmlns="http://www.w3.org/2000/svg" viewBox="0.0 0.0 24.0 24.0" height="200px" width="200px"><path fill="none" stroke="black" stroke-width=".3" stroke-opacity="1.0"  filling="0" d="M13.021500587463379 12.037145614624023 L13.021500587463379 12.037145614624023 C13.075799942016602 12.064618110656738 13.13010025024414 12.09209156036377 13.184399604797363 12.119564056396484 L13.184399604797363 12.119564056396484 C13.152917861938477 12.126018524169922 13.12143611907959 12.13247299194336 13.089954376220703 12.138927459716797 L13.089954376220703 12.138927459716797 C13.079699516296387 12.11229133605957 13.069445610046387 12.085654258728027 13.05919075012207 12.0590181350708 L13.05919075012207 12.0590181350708 C13.051681518554688 12.058745384216309 13.044173240661621 12.058472633361816 13.036664009094238 12.058199882507324 L13.036664009094238 12.058199882507324 C13.026637077331543 12.10339069366455 13.016610145568848 12.148582458496094 13.006583213806152 12.19377326965332 L13.006583213806152 12.19377326965332 C13.052319526672363 12.206400871276855 13.098055839538574 12.219027519226074 13.143792152404785 12.23165512084961 L13.143792152404785 12.23165512084961 C13.135246276855469 12.254427909851074 13.126700401306152 12.277200698852539 13.118154525756836 12.299973487854004 L13.118154525756836 12.299973487854004 C13.081799507141113 12.299982070922852 13.045445442199707 12.2999906539917 13.009090423583984 12.299999237060547 L13.009090423583984 12.299999237060547 C12.965361595153809 12.22396183013916 12.991026878356934 12.119397163391113 13.021500587463379 12.037145614624023 L13.021500587463379 12.037145614624023"></path></svg>