<svg xmlns="http://www.w3.org/2000/svg" viewBox="0.0 0.0 24.0 24.0" height="200px" width="200px"><path fill="none" stroke="black" stroke-width=".3" stroke-opacity="1.0"  filling="0" d="M11.83497142791748 11.51274585723877 L11.83497142791748 11.51274585723877 C12.55623722076416 11.598882675170898 12.711499214172363 11.733892440795898 12.709091186523438 12.54152774810791 L12.709091186523438 12.54152774810791 C12.61186408996582 12.54152774810791 12.514636039733887 12.54152774810791 12.41740894317627 12.54152774810791 L12.41740894317627 12.54152774810791 C12.41740894317627 12.315091133117676 12.41740894317627 12.088654518127441 12.41740894317627 11.862217903137207 L12.41740894317627 11.862217903137207 C12.379817962646484 11.835972785949707 12.3422269821167 11.80972671508789 12.304636001586914 11.78348159790039 L12.304636001586914 11.78348159790039 C12.071295738220215 12.030743598937988 12.109590530395508 12.201416969299316 12.109062194824219 12.532609939575195 L12.109062194824219 12.532609939575195 C12.006670951843262 12.532609939575195 11.904280662536621 12.532609939575195 11.801889419555664 12.532609939575195 L11.801889419555664 12.532609939575195 C11.81291675567627 12.192655563354492 11.823944091796875 11.852700233459473 11.83497142791748 11.51274585723877 L11.83497142791748 11.51274585723877"></path></svg>