<svg xmlns="http://www.w3.org/2000/svg" viewBox="0.0 0.0 24.0 24.0" height="200px" width="200px"><path fill="none" stroke="black" stroke-width=".3" stroke-opacity="1.0"  filling="0" d="M15.43589973449707 11.593881607055664 L15.43589973449707 11.593881607055664 C15.435091972351074 12.105393409729004 15.19340991973877 13.659891128540039 14.51806354522705 12.615845680236816 L14.51806354522705 12.615845680236816 C14.607090950012207 12.615845680236816 14.696118354797363 12.615845680236816 14.78514575958252 12.615845680236816 L14.78514575958252 12.615845680236816 C14.81441879272461 12.654363632202148 14.843690872192383 12.692882537841797 14.872963905334473 12.731400489807129 L14.872963905334473 12.731400489807129 C14.941227912902832 12.731400489807129 15.009490966796875 12.731400489807129 15.077754974365234 12.731400489807129 L15.077754974365234 12.731400489807129 C15.104928016662598 12.64819049835205 15.132100105285645 12.564981460571289 15.159273147583008 12.481771469116211 L15.159273147583008 12.481771469116211 C14.348971366882324 12.70108699798584 14.21432876586914 11.605748176574707 15.118826866149902 11.626991271972656 L15.118826866149902 11.626991271972656 C15.224517822265625 11.615954399108887 15.330208778381348 11.604918479919434 15.43589973449707 11.593881607055664 L15.43589973449707 11.593881607055664"></path>
<path fill="none" stroke="black" stroke-width=".3" stroke-opacity="1.0"  filling="0" d="M14.97311019897461 11.800474166870117 L14.97311019897461 11.800474166870117 C15.78628158569336 12.40701675415039 14.094032287597656 12.273667335510254 14.97311019897461 11.800474166870117 L14.97311019897461 11.800474166870117"></path></svg>