<svg xmlns="http://www.w3.org/2000/svg" viewBox="0.0 0.0 24.0 24.0" height="200px" width="200px"><path fill="none" stroke="black" stroke-width=".3" stroke-opacity="1.0"  filling="0" d="M11.403572082519531 12.030137062072754 L11.403572082519531 12.030137062072754 C11.41085433959961 12.071109771728516 11.418135643005371 12.112081527709961 11.42541790008545 12.153054237365723 L11.42541790008545 12.153054237365723 C11.384599685668945 12.153054237365723 11.343781471252441 12.153054237365723 11.302963256835938 12.153054237365723 L11.302963256835938 12.153054237365723 C11.300227165222168 12.165854454040527 11.297490119934082 12.178653717041016 11.294754028320312 12.19145393371582 L11.294754028320312 12.19145393371582 C11.34675407409668 12.208089828491211 11.398754119873047 12.224726676940918 11.450754165649414 12.241362571716309 L11.450754165649414 12.241362571716309 C11.442917823791504 12.260908126831055 11.435081481933594 12.2804536819458 11.427245140075684 12.299999237060547 L11.427245140075684 12.299999237060547 C11.381799697875977 12.299999237060547 11.33635425567627 12.299999237060547 11.290908813476562 12.299999237060547 L11.290908813476562 12.299999237060547 C11.29539966583252 12.211426734924316 11.299890518188477 12.122854232788086 11.304381370544434 12.034281730651855 L11.304381370544434 12.034281730651855 C11.313472747802734 12.058145523071289 11.322563171386719 12.082008361816406 11.33165454864502 12.10587215423584 L11.33165454864502 12.10587215423584 C11.338309288024902 12.106654167175293 11.344963073730469 12.107436180114746 11.351617813110352 12.1082181930542 L11.351617813110352 12.1082181930542 C11.356636047363281 12.083072662353516 11.361654281616211 12.057927131652832 11.36667251586914 12.032781600952148 L11.36667251586914 12.032781600952148 C11.378972053527832 12.031900405883789 11.39127254486084 12.031018257141113 11.403572082519531 12.030137062072754 L11.403572082519531 12.030137062072754"></path></svg>