<svg xmlns="http://www.w3.org/2000/svg" viewBox="0.0 0.0 24.0 24.0" height="200px" width="200px"><path fill="none" stroke="black" stroke-width=".3" stroke-opacity="1.0"  filling="0" d="M12.58996295928955 11.948863983154297 L12.58996295928955 11.948863983154297 C12.631063461303711 11.988554954528809 12.672163009643555 12.02824592590332 12.713263511657715 12.067936897277832 L12.713263511657715 12.067936897277832 C12.672945022583008 12.047364234924316 12.632627487182617 12.026790618896484 12.59230899810791 12.006217956542969 L12.59230899810791 12.006217956542969 C12.582282066345215 12.01749038696289 12.572254180908203 12.028762817382812 12.562227249145508 12.040035247802734 L12.562227249145508 12.040035247802734 C12.564380645751953 12.103957176208496 12.630520820617676 12.169882774353027 12.693709373474121 12.179780960083008 L12.693709373474121 12.179780960083008 C12.689745903015137 12.201671600341797 12.685781478881836 12.223563194274902 12.681818008422852 12.245453834533691 L12.681818008422852 12.245453834533691 C12.618182182312012 12.245453834533691 12.554545402526855 12.245454788208008 12.490909576416016 12.245454788208008 L12.490909576416016 12.245454788208008 C12.478473663330078 12.1419677734375 12.531867980957031 12.035404205322266 12.58996295928955 11.948863983154297 L12.58996295928955 11.948863983154297"></path></svg>