<svg xmlns="http://www.w3.org/2000/svg" viewBox="0.0 0.0 24.0 24.0" height="200px" width="200px"><path fill="none" stroke="black" stroke-width=".3" stroke-opacity="1.0"  filling="0" d="M12.351354598999023 12.016036987304688 L12.351354598999023 12.016036987304688 C12.372581481933594 12.038491249084473 12.39380931854248 12.060945510864258 12.41503620147705 12.083399772644043 L12.41503620147705 12.083399772644043 C12.407572746276855 12.09173583984375 12.400108337402344 12.100072860717773 12.392644882202148 12.10840892791748 L12.392644882202148 12.10840892791748 C12.356163024902344 12.088872909545898 12.319681167602539 12.069336891174316 12.283199310302734 12.049800872802734 L12.283199310302734 12.049800872802734 C12.267398834228516 12.102155685424805 12.251599311828613 12.154509544372559 12.235798835754395 12.206864356994629 L12.235798835754395 12.206864356994629 C12.29775333404541 12.21435546875 12.359708786010742 12.221845626831055 12.421663284301758 12.229336738586426 L12.421663284301758 12.229336738586426 C12.399290084838867 12.252891540527344 12.376917839050293 12.276445388793945 12.354544639587402 12.300000190734863 L12.354544639587402 12.300000190734863 C12.327272415161133 12.300000190734863 12.299999237060547 12.299999237060547 12.272727012634277 12.299999237060547 L12.272727012634277 12.299999237060547 C12.228182792663574 12.212465286254883 12.275796890258789 12.078784942626953 12.351354598999023 12.016036987304688 L12.351354598999023 12.016036987304688"></path></svg>