<svg xmlns="http://www.w3.org/2000/svg" viewBox="0.0 0.0 24.0 24.0" height="200px" width="200px"><path fill="none" stroke="black" stroke-width=".3" stroke-opacity="1.0"  filling="0" d="M12.692399978637695 11.953336715698242 L12.692399978637695 11.953336715698242 C12.692436218261719 12.003609657287598 12.692473411560059 12.053881645202637 12.692509651184082 12.104154586791992 L12.692509651184082 12.104154586791992 C12.669763565063477 12.075827598571777 12.647018432617188 12.047499656677246 12.624272346496582 12.019172668457031 L12.624272346496582 12.019172668457031 C12.610099792480469 12.043291091918945 12.595927238464355 12.06740951538086 12.581754684448242 12.091527938842773 L12.581754684448242 12.091527938842773 C12.649154663085938 12.108309745788574 12.716554641723633 12.125092506408691 12.783954620361328 12.141874313354492 L12.783954620361328 12.141874313354492 C12.740809440612793 12.176410675048828 12.697663307189941 12.210946083068848 12.654518127441406 12.245482444763184 L12.654518127441406 12.245482444763184 C12.636345863342285 12.24547290802002 12.618172645568848 12.245464324951172 12.600000381469727 12.245454788208008 L12.600000381469727 12.245454788208008 C12.589402198791504 12.143877983093262 12.594626426696777 11.98283863067627 12.692399978637695 11.953336715698242 L12.692399978637695 11.953336715698242"></path></svg>