<svg xmlns="http://www.w3.org/2000/svg" viewBox="0.0 0.0 24.0 24.0" height="200px" width="200px"><path fill="none" stroke="black" stroke-width=".3" stroke-opacity="1.0"  filling="0" d="M11.963236808776855 11.918481826782227 L11.963236808776855 11.918481826782227 C12.038690567016602 11.920926094055176 12.114204406738281 11.932417869567871 12.187363624572754 11.951045036315918 L12.187363624572754 11.951045036315918 C12.187363624572754 12.028463363647461 12.187363624572754 12.105880737304688 12.187363624572754 12.18329906463623 L12.187363624572754 12.18329906463623 C12.124675750732422 12.136659622192383 12.10407543182373 12.04207706451416 12.104726791381836 11.963945388793945 L12.104726791381836 11.963945388793945 C12.083309173583984 12.03753662109375 12.061890602111816 12.111126899719238 12.040472984313965 12.184718132019043 L12.040472984313965 12.184718132019043 C12.011691093444824 12.186681747436523 11.98291015625 12.188645362854004 11.95412826538086 12.190608978271484 L11.95412826538086 12.190608978271484 C11.948554992675781 12.1198091506958 11.94298267364502 12.0490083694458 11.937409400939941 11.978208541870117 L11.937409400939941 11.978208541870117 C11.920882225036621 12.045799255371094 11.9043550491333 12.113390922546387 11.88782787322998 12.180981636047363 L11.88782787322998 12.180981636047363 C11.85513687133789 12.184309005737305 11.8224458694458 12.18763542175293 11.789754867553711 12.190962791442871 L11.789754867553711 12.190962791442871 C11.782317161560059 12.08354663848877 11.88283920288086 11.990104675292969 11.963236808776855 11.918481826782227 L11.963236808776855 11.918481826782227"></path></svg>