<svg xmlns="http://www.w3.org/2000/svg" viewBox="0.0 0.0 24.0 24.0" height="200px" width="200px"><path fill="none" stroke="black" stroke-width=".3" stroke-opacity="1.0"  filling="0" d="M12.899999618530273 11.98279094696045 L12.899999618530273 11.98279094696045 C12.968436241149902 11.98279094696045 13.036872863769531 11.98279094696045 13.10530948638916 11.98279094696045 L13.10530948638916 11.98279094696045 C13.118691444396973 12.070345878601074 13.132072448730469 12.157899856567383 13.145454406738281 12.245454788208008 L13.145454406738281 12.245454788208008 C13.109090805053711 12.245454788208008 13.07272720336914 12.245454788208008 13.03636360168457 12.245454788208008 L13.03636360168457 12.245454788208008 C13.047356605529785 12.163724899291992 13.042791366577148 12.05966854095459 12.981818199157715 12.004144668579102 L12.981818199157715 12.004144668579102 C12.981818199157715 12.084571838378906 12.981818199157715 12.164999008178711 12.981818199157715 12.245426177978516 L12.981818199157715 12.245426177978516 C12.954545021057129 12.24543571472168 12.92727279663086 12.245445251464844 12.899999618530273 12.245454788208008 L12.899999618530273 12.245454788208008 C12.899999618530273 12.157899856567383 12.899999618530273 12.070345878601074 12.899999618530273 11.98279094696045 L12.899999618530273 11.98279094696045"></path></svg>