<svg xmlns="http://www.w3.org/2000/svg" viewBox="0.0 0.0 24.0 24.0" height="200px" width="200px"><path fill="none" stroke="black" stroke-width=".3" stroke-opacity="1.0"  filling="0" d="M12.16573715209961 11.918399810791016 L12.16573715209961 11.918399810791016 C12.406821250915527 11.920969009399414 12.664960861206055 11.881452560424805 12.547746658325195 12.187746047973633 L12.547746658325195 12.187746047973633 C12.49158000946045 12.090580940246582 12.526368141174316 12.000844955444336 12.411465644836426 11.970109939575195 L12.411465644836426 11.970109939575195 C12.411465644836426 12.04306411743164 12.411465644836426 12.116019248962402 12.411465644836426 12.188973426818848 L12.411465644836426 12.188973426818848 C12.355040550231934 12.12185001373291 12.302491188049316 12.051475524902344 12.251373291015625 11.98022747039795 L12.251373291015625 11.98022747039795 C12.247383117675781 12.038978576660156 12.249665260314941 12.09821891784668 12.255191802978516 12.156845092773438 L12.255191802978516 12.156845092773438 C12.22988224029541 12.16862678527832 12.204573631286621 12.18040943145752 12.179264068603516 12.192191123962402 L12.179264068603516 12.192191123962402 C12.174755096435547 12.100927352905273 12.170246124267578 12.009663581848145 12.16573715209961 11.918399810791016 L12.16573715209961 11.918399810791016"></path></svg>