<svg xmlns="http://www.w3.org/2000/svg" viewBox="0.0 0.0 24.0 24.0" height="200px" width="200px"><path fill="none" stroke="black" stroke-width=".3" stroke-opacity="1.0"  filling="0" d="M12.63147258758545 11.957318305969238 L12.63147258758545 11.957318305969238 C12.693609237670898 11.988045692443848 12.755744934082031 12.018773078918457 12.81788158416748 12.049500465393066 L12.81788158416748 12.049500465393066 C12.758145332336426 12.06181812286377 12.698408126831055 12.074136734008789 12.638671875 12.086454391479492 L12.638671875 12.086454391479492 C12.659954071044922 12.113200187683105 12.681235313415527 12.139945030212402 12.70251750946045 12.166690826416016 L12.70251750946045 12.166690826416016 C12.732771873474121 12.148717880249023 12.76302719116211 12.130745887756348 12.793281555175781 12.112772941589355 L12.793281555175781 12.112772941589355 C12.805442810058594 12.163725852966309 12.747751235961914 12.210137367248535 12.709062576293945 12.245454788208008 L12.709062576293945 12.245454788208008 C12.690890312194824 12.245454788208008 12.672718048095703 12.245454788208008 12.654545783996582 12.245454788208008 L12.654545783996582 12.245454788208008 C12.59387493133545 12.170601844787598 12.605353355407715 12.050063133239746 12.63147258758545 11.957318305969238 L12.63147258758545 11.957318305969238"></path></svg>