<svg xmlns="http://www.w3.org/2000/svg" viewBox="0.0 0.0 24.0 24.0" height="200px" width="200px"><path fill="none" stroke="black" stroke-width=".3" stroke-opacity="1.0"  filling="0" d="M12.361964225769043 11.796491622924805 L12.361964225769043 11.796491622924805 C12.391600608825684 11.835246086120605 12.421236991882324 11.874000549316406 12.450873374938965 11.912755012512207 L12.450873374938965 11.912755012512207 C12.493609428405762 11.916936874389648 12.536346435546875 11.921117782592773 12.579082489013672 11.925299644470215 L12.579082489013672 11.925299644470215 C12.58903694152832 12.019381523132324 12.598991394042969 12.113463401794434 12.608945846557617 12.207545280456543 L12.608945846557617 12.207545280456543 C12.565973281860352 12.190791130065918 12.523000717163086 12.174036026000977 12.48002815246582 12.157281875610352 L12.48002815246582 12.157281875610352 C12.472318649291992 12.097100257873535 12.46461009979248 12.036917686462402 12.456900596618652 11.976736068725586 L12.456900596618652 11.976736068725586 C12.425254821777344 12.0516996383667 12.393610000610352 12.126664161682129 12.361964225769043 12.201627731323242 L12.361964225769043 12.201627731323242 C12.361964225769043 12.066582679748535 12.361964225769043 11.931536674499512 12.361964225769043 11.796491622924805 L12.361964225769043 11.796491622924805"></path></svg>