<svg xmlns="http://www.w3.org/2000/svg" viewBox="0.0 0.0 24.0 24.0" height="200px" width="200px"><path fill="none" stroke="black" stroke-width=".3" stroke-opacity="1.0"  filling="0" d="M12.30398178100586 11.999944686889648 L12.30398178100586 11.999944686889648 C12.371089935302734 12.064294815063477 12.420001983642578 12.153929710388184 12.436363220214844 12.245454788208008 L12.436363220214844 12.245454788208008 C12.409090042114258 12.245454788208008 12.381817817687988 12.245454788208008 12.354544639587402 12.245454788208008 L12.354544639587402 12.245454788208008 C12.340899467468262 12.173736572265625 12.327253341674805 12.102018356323242 12.313608169555664 12.03030014038086 L12.313608169555664 12.03030014038086 C12.299981117248535 12.102018356323242 12.28635311126709 12.173736572265625 12.272726058959961 12.245454788208008 L12.272726058959961 12.245454788208008 C12.245453834533691 12.245454788208008 12.218180656433105 12.245454788208008 12.190908432006836 12.245454788208008 L12.190908432006836 12.245454788208008 C12.190908432006836 12.165982246398926 12.190908432006836 12.086508750915527 12.190908432006836 12.007036209106445 L12.190908432006836 12.007036209106445 C12.228599548339844 12.004672050476074 12.266290664672852 12.00230884552002 12.30398178100586 11.999944686889648 L12.30398178100586 11.999944686889648"></path></svg>