<svg xmlns="http://www.w3.org/2000/svg" viewBox="0.0 0.0 24.0 24.0" height="200px" width="200px"><path fill="none" stroke="black" stroke-width=".3" stroke-opacity="1.0"  filling="0" d="M14.005118370056152 11.313599586486816 L14.005118370056152 11.313599586486816 C14.176713943481445 11.371418952941895 14.848465919494629 11.648324966430664 14.254936218261719 11.96751880645752 L14.254936218261719 11.96751880645752 C15.305585861206055 12.782331466674805 12.505870819091797 12.918397903442383 13.644136428833008 11.942455291748047 L13.644136428833008 11.942455291748047 C13.174556732177734 11.587002754211426 13.747910499572754 11.387084007263184 14.005118370056152 11.313599586486816 L14.005118370056152 11.313599586486816"></path>
<path fill="none" stroke="black" stroke-width=".3" stroke-opacity="1.0"  filling="0" d="M14.072128295898438 11.553436279296875 L14.072128295898438 11.553436279296875 C14.102423667907715 11.640509605407715 14.136646270751953 11.736031532287598 14.117645263671875 11.826245307922363 L14.117645263671875 11.826245307922363 C13.786788940429688 11.900038719177246 13.587469100952148 11.574352264404297 14.072128295898438 11.553436279296875 L14.072128295898438 11.553436279296875"></path>
<path fill="none" stroke="black" stroke-width=".3" stroke-opacity="1.0"  filling="0" d="M13.86812686920166 12.08790111541748 L13.86812686920166 12.08790111541748 C13.998586654663086 12.159342765808105 14.146190643310547 12.322348594665527 14.105863571166992 12.4655179977417 L14.105863571166992 12.4655179977417 C13.771955490112305 12.4627046585083 13.61471939086914 12.383893966674805 13.86812686920166 12.08790111541748 L13.86812686920166 12.08790111541748"></path></svg>