<svg xmlns="http://www.w3.org/2000/svg" viewBox="0.0 0.0 24.0 24.0" height="200px" width="200px"><path fill="none" stroke="black" stroke-width=".3" stroke-opacity="1.0"  filling="0" d="M11.071554183959961 11.852127075195312 L11.071554183959961 11.852127075195312 C11.109172821044922 11.86011791229248 11.146790504455566 11.868108749389648 11.184409141540527 11.876099586486816 L11.184409141540527 11.876099586486816 C11.181045532226562 11.894882202148438 11.177681922912598 11.913663864135742 11.174318313598633 11.932446479797363 L11.174318313598633 11.932446479797363 C11.124646186828613 11.925727844238281 11.074973106384277 11.9190092086792 11.025300979614258 11.912290573120117 L11.025300979614258 11.912290573120117 C11.02403736114502 11.920254707336426 11.022772789001465 11.928217887878418 11.021509170532227 11.936182022094727 L11.021509170532227 11.936182022094727 C11.085864067077637 12.003363609313965 11.150218963623047 12.07054615020752 11.214573860168457 12.137727737426758 L11.214573860168457 12.137727737426758 C11.12603759765625 12.172218322753906 11.037500381469727 12.206709861755371 10.94896411895752 12.24120044708252 L10.94896411895752 12.24120044708252 C10.93568229675293 12.19847297668457 10.92240047454834 12.155745506286621 10.90911865234375 12.113018035888672 L10.90911865234375 12.113018035888672 C10.981045722961426 12.124309539794922 11.052972793579102 12.135600090026855 11.124899864196777 12.146891593933105 L11.124899864196777 12.146891593933105 C10.961820602416992 12.032270431518555 10.87275218963623 11.976499557495117 11.071554183959961 11.852127075195312 L11.071554183959961 11.852127075195312"></path></svg>