<svg xmlns="http://www.w3.org/2000/svg" viewBox="0.0 0.0 24.0 24.0" height="200px" width="200px"><path fill="none" stroke="black" stroke-width=".3" stroke-opacity="1.0"  filling="0" d="M13.73877239227295 11.98080062866211 L13.73877239227295 11.98080062866211 C13.739363670349121 11.992863655090332 13.739954948425293 12.004927635192871 13.740546226501465 12.016990661621094 L13.740546226501465 12.016990661621094 C13.703827857971191 12.013191223144531 13.667109489440918 12.009390830993652 13.630391120910645 12.00559139251709 L13.630391120910645 12.00559139251709 C13.689127922058105 12.071555137634277 13.74786376953125 12.137517929077148 13.806600570678711 12.203481674194336 L13.806600570678711 12.203481674194336 C13.755818367004395 12.216508865356445 13.705036163330078 12.229537010192871 13.654253959655762 12.24256420135498 L13.654253959655762 12.24256420135498 C13.62425422668457 12.21880054473877 13.594254493713379 12.195035934448242 13.564254760742188 12.171272277832031 L13.564254760742188 12.171272277832031 C13.56794548034668 12.164308547973633 13.571637153625488 12.15734577178955 13.57532787322998 12.150382041931152 L13.57532787322998 12.150382041931152 C13.609109878540039 12.163290977478027 13.642890930175781 12.176200866699219 13.67667293548584 12.189109802246094 L13.67667293548584 12.189109802246094 C13.681081771850586 12.183937072753906 13.685491561889648 12.178764343261719 13.689900398254395 12.173591613769531 L13.689900398254395 12.173591613769531 C13.64244556427002 12.125900268554688 13.594991683959961 12.07820987701416 13.547536849975586 12.030518531799316 L13.547536849975586 12.030518531799316 C13.611282348632812 12.013945579528809 13.675026893615723 11.997373580932617 13.73877239227295 11.98080062866211 L13.73877239227295 11.98080062866211"></path></svg>