<svg xmlns="http://www.w3.org/2000/svg" viewBox="0.0 0.0 24.0 24.0" height="200px" width="200px"><path fill="none" stroke="black" stroke-width=".3" stroke-opacity="1.0"  filling="0" d="M11.933917999267578 11.869608879089355 L11.933917999267578 11.869608879089355 C12.040367126464844 11.93924331665039 12.009577751159668 12.118616104125977 11.999972343444824 12.245454788208008 L11.999972343444824 12.245454788208008 C11.936345100402832 12.245454788208008 11.872718811035156 12.245454788208008 11.809091567993164 12.245454788208008 L11.809091567993164 12.245454788208008 C11.811636924743652 12.16738510131836 11.758448600769043 12.013594627380371 11.836555480957031 12.012736320495605 L11.836555480957031 12.012736320495605 C11.827391624450684 12.051799774169922 11.818228721618652 12.090863227844238 11.809064865112305 12.129926681518555 L11.809064865112305 12.129926681518555 C11.840627670288086 12.158581733703613 11.872191429138184 12.187236785888672 11.903754234313965 12.21589183807373 L11.903754234313965 12.21589183807373 C11.90555477142334 12.152318954467773 11.907354354858398 12.0887451171875 11.909154891967773 12.025172233581543 L11.909154891967773 12.025172233581543 C11.91740894317627 11.973318099975586 11.925663948059082 11.921463012695312 11.933917999267578 11.869608879089355 L11.933917999267578 11.869608879089355"></path></svg>