<svg xmlns="http://www.w3.org/2000/svg" viewBox="0.0 0.0 24.0 24.0" height="200px" width="200px"><path fill="none" stroke="black" stroke-width=".3" stroke-opacity="1.0"  filling="0" d="M15.981027603149414 11.349900245666504 L15.981027603149414 11.349900245666504 C16.056673049926758 11.363037109375 16.1323184967041 11.37617301940918 16.207963943481445 11.389309883117676 L16.207963943481445 11.389309883117676 C16.207963943481445 11.518555641174316 16.207963943481445 11.64780044555664 16.207963943481445 11.777046203613281 L16.207963943481445 11.777046203613281 C16.259864807128906 11.760455131530762 16.311763763427734 11.743865013122559 16.363664627075195 11.727273941040039 L16.363664627075195 11.727273941040039 C16.363664627075195 11.80000114440918 16.363664627075195 11.87272834777832 16.363664627075195 11.945455551147461 L16.363664627075195 11.945455551147461 C16.15115737915039 12.191412925720215 16.124469757080078 12.287137031555176 16.363664627075195 12.518155097961426 L16.363664627075195 12.518155097961426 C16.36365509033203 12.590890884399414 16.363645553588867 12.663627624511719 16.363636016845703 12.736363410949707 L16.363636016845703 12.736363410949707 C16.22329330444336 12.695390701293945 16.045698165893555 12.720172882080078 15.90000057220459 12.710509300231934 L15.90000057220459 12.710509300231934 C15.90000057220459 12.382246971130371 15.704771995544434 11.513819694519043 15.981027603149414 11.349900245666504 L15.981027603149414 11.349900245666504"></path></svg>