<svg xmlns="http://www.w3.org/2000/svg" viewBox="0.0 0.0 24.0 24.0" height="200px" width="200px"><path fill="none" stroke="black" stroke-width=".3" stroke-opacity="1.0"  filling="0" d="M8.820108413696289 11.536252975463867 L8.820108413696289 11.536252975463867 C8.799805641174316 11.820076942443848 8.508752822875977 13.907946586608887 7.894472599029541 12.560044288635254 L7.894472599029541 12.560044288635254 C7.987172603607178 12.560044288635254 8.079872131347656 12.560044288635254 8.172572135925293 12.560044288635254 L8.172572135925293 12.560044288635254 C8.190717697143555 12.599289894104004 8.208863258361816 12.638535499572754 8.227008819580078 12.677781105041504 L8.227008819580078 12.677781105041504 C8.294781684875488 12.677781105041504 8.362554550170898 12.677781105041504 8.430327415466309 12.677781105041504 L8.430327415466309 12.677781105041504 C8.452536582946777 12.599472045898438 8.47474479675293 12.521162033081055 8.496953964233398 12.442852973937988 L8.496953964233398 12.442852973937988 C7.666317939758301 12.589679718017578 7.741791725158691 11.837890625 8.483808517456055 11.584390640258789 L8.483808517456055 11.584390640258789 C8.595908164978027 11.568345069885254 8.708008766174316 11.552298545837402 8.820108413696289 11.536252975463867 L8.820108413696289 11.536252975463867"></path>
<path fill="none" stroke="black" stroke-width=".3" stroke-opacity="1.0"  filling="0" d="M8.38418197631836 11.755199432373047 L8.38418197631836 11.755199432373047 C8.438919067382812 11.835972785949707 8.508562088012695 11.92249870300293 8.508790969848633 12.020071983337402 L8.508790969848633 12.020071983337402 C8.513518333435059 12.021453857421875 8.518245697021484 12.022835731506348 8.52297306060791 12.02421760559082 L8.52297306060791 12.02421760559082 C8.374464988708496 12.50537109375 7.923415660858154 12.026728630065918 8.38418197631836 11.755199432373047 L8.38418197631836 11.755199432373047"></path></svg>