<svg xmlns="http://www.w3.org/2000/svg" viewBox="0.0 0.0 24.0 24.0" height="200px" width="200px"><path fill="none" stroke="black" stroke-width=".3" stroke-opacity="1.0"  filling="0" d="M11.018181800842285 11.93337345123291 L11.018181800842285 11.93337345123291 C11.049263954162598 11.970645904541016 11.080345153808594 12.007919311523438 11.111427307128906 12.045191764831543 L11.111427307128906 12.045191764831543 C11.184160232543945 12.105664253234863 11.255026817321777 12.207243919372559 11.236363410949707 12.299972534179688 L11.236363410949707 12.299972534179688 C11.218181610107422 12.299972534179688 11.199999809265137 12.299972534179688 11.181818008422852 12.299972534179688 L11.181818008422852 12.299972534179688 C11.174072265625 12.238300323486328 11.166327476501465 12.176627159118652 11.158581733703613 12.114954948425293 L11.158581733703613 12.114954948425293 C11.142727851867676 12.116945266723633 11.126873016357422 12.118936538696289 11.111019134521484 12.120926856994629 L11.111019134521484 12.120926856994629 C11.11642837524414 12.180617332458496 11.12183666229248 12.24030876159668 11.127245903015137 12.299999237060547 L11.127245903015137 12.299999237060547 C11.090890884399414 12.299999237060547 11.054536819458008 12.299999237060547 11.018181800842285 12.299999237060547 L11.018181800842285 12.299999237060547 C11.018181800842285 12.177790641784668 11.018181800842285 12.055582046508789 11.018181800842285 11.93337345123291 L11.018181800842285 11.93337345123291"></path></svg>