<svg xmlns="http://www.w3.org/2000/svg" viewBox="0.0 0.0 24.0 24.0" height="200px" width="200px"><path fill="none" stroke="black" stroke-width=".3" stroke-opacity="1.0"  filling="0" d="M11.35399055480957 11.88212776184082 L11.35399055480957 11.88212776184082 C11.387882232666016 11.921154975891113 11.421772956848145 11.960182189941406 11.45566463470459 11.9992094039917 L11.45566463470459 11.9992094039917 C11.480391502380371 11.961718559265137 11.505119323730469 11.924227714538574 11.52984619140625 11.886736869812012 L11.52984619140625 11.886736869812012 C11.537692070007324 11.89201831817627 11.545536994934082 11.897300720214844 11.553382873535156 11.902582168579102 L11.553382873535156 11.902582168579102 C11.518864631652832 11.981573104858398 11.484346389770508 12.060564041137695 11.449828147888184 12.139554977416992 L11.449828147888184 12.139554977416992 C11.420473098754883 12.10420036315918 11.391119003295898 12.068845748901367 11.361763954162598 12.033491134643555 L11.361763954162598 12.033491134643555 C11.337709426879883 12.073081970214844 11.313654899597168 12.112672805786133 11.289600372314453 12.152263641357422 L11.289600372314453 12.152263641357422 C11.253754615783691 12.069781303405762 11.217909812927246 11.987299919128418 11.182064056396484 11.904817581176758 L11.182064056396484 11.904817581176758 C11.194563865661621 11.898772239685059 11.207064628601074 11.892727851867676 11.219564437866211 11.886682510375977 L11.219564437866211 11.886682510375977 C11.246236801147461 11.93226432800293 11.272910118103027 11.977846145629883 11.299582481384277 12.023427963256836 L11.299582481384277 12.023427963256836 C11.309673309326172 12.019964218139648 11.319764137268066 12.016499519348145 11.329854965209961 12.013035774230957 L11.329854965209961 12.013035774230957 C11.329854965209961 11.97429084777832 11.329854965209961 11.935544967651367 11.329854965209961 11.89680004119873 L11.329854965209961 11.89680004119873 C11.337900161743164 11.8919095993042 11.345945358276367 11.887018203735352 11.35399055480957 11.88212776184082 L11.35399055480957 11.88212776184082"></path></svg>