<svg xmlns="http://www.w3.org/2000/svg" viewBox="0.0 0.0 24.0 24.0" height="200px" width="200px"><path fill="none" stroke="black" stroke-width=".3" stroke-opacity="1.0"  filling="0" d="M12.543545722961426 11.852999687194824 L12.543545722961426 11.852999687194824 C12.558491706848145 11.866344451904297 12.573436737060547 11.879690170288086 12.588382720947266 11.893034934997559 L12.588382720947266 11.893034934997559 C12.591010093688965 11.967880249023438 12.593637466430664 12.042726516723633 12.596264839172363 12.117571830749512 L12.596264839172363 12.117571830749512 C12.537238121032715 12.09056282043457 12.491302490234375 12.018601417541504 12.491073608398438 11.953689575195312 L12.491073608398438 11.953689575195312 C12.447637557983398 11.950899124145508 12.404200553894043 11.948107719421387 12.360764503479004 11.945317268371582 L12.360764503479004 11.945317268371582 C12.354436874389648 12.006726264953613 12.348109245300293 12.068136215209961 12.341781616210938 12.129545211791992 L12.341781616210938 12.129545211791992 C12.314800262451172 12.129545211791992 12.28781795501709 12.129545211791992 12.260836601257324 12.129545211791992 L12.260836601257324 12.129545211791992 C12.260836601257324 12.051753997802734 12.260836601257324 11.973963737487793 12.260836601257324 11.896172523498535 L12.260836601257324 11.896172523498535 C12.355072975158691 11.881781578063965 12.449309349060059 11.867390632629395 12.543545722961426 11.852999687194824 L12.543545722961426 11.852999687194824"></path></svg>