<svg xmlns="http://www.w3.org/2000/svg" viewBox="0.0 0.0 24.0 24.0" height="200px" width="200px"><path fill="none" stroke="black" stroke-width=".3" stroke-opacity="1.0"  filling="0" d="M9.498682022094727 11.91834545135498 L9.498682022094727 11.91834545135498 C9.52229118347168 11.940564155578613 9.545900344848633 11.96278190612793 9.569509506225586 11.985000610351562 L9.569509506225586 11.985000610351562 C9.52985954284668 11.990142822265625 9.474222183227539 11.991240501403809 9.452754974365234 11.957509994506836 L9.452754974365234 11.957509994506836 C9.441972732543945 12.006619453430176 9.431190490722656 12.0557279586792 9.420408248901367 12.104837417602539 L9.420408248901367 12.104837417602539 C9.465853691101074 12.119519233703613 9.511300086975098 12.134200096130371 9.556745529174805 12.148881912231445 L9.556745529174805 12.148881912231445 C9.558536529541016 12.156172752380371 9.560327529907227 12.163464546203613 9.562118530273438 12.170755386352539 L9.562118530273438 12.170755386352539 C9.510018348693848 12.179191589355469 9.457918167114258 12.187628746032715 9.405817985534668 12.196064949035645 L9.405817985534668 12.196064949035645 C9.436772346496582 12.10349178314209 9.467727661132812 12.010918617248535 9.498682022094727 11.91834545135498 L9.498682022094727 11.91834545135498"></path></svg>