<svg xmlns="http://www.w3.org/2000/svg" viewBox="0.0 0.0 24.0 24.0" height="200px" width="200px"><path fill="none" stroke="black" stroke-width=".3" stroke-opacity="1.0"  filling="0" d="M13.457618713378906 11.972182273864746 L13.457618713378906 11.972182273864746 C13.570671081542969 12.076260566711426 13.650046348571777 12.171895980834961 13.747390747070312 12.287918090820312 L13.747390747070312 12.287918090820312 C13.747390747070312 12.216117858886719 13.747390747070312 12.144318580627441 13.747390747070312 12.072518348693848 L13.747390747070312 12.072518348693848 C13.828808784484863 12.066545486450195 13.91022777557373 12.060572624206543 13.991645812988281 12.05459976196289 L13.991645812988281 12.05459976196289 C13.959527015686035 12.11345386505127 13.927409172058105 12.172308921813965 13.89529037475586 12.231163024902344 L13.89529037475586 12.231163024902344 C13.932172775268555 12.249526977539062 13.969054222106934 12.267889976501465 14.005936622619629 12.286253929138184 L14.005936622619629 12.286253929138184 C13.973654747009277 12.32719898223877 13.941372871398926 12.368144989013672 13.909090995788574 12.409090042114258 L13.909090995788574 12.409090042114258 C13.845454216003418 12.409090042114258 13.781818389892578 12.409090042114258 13.718181610107422 12.409090042114258 L13.718181610107422 12.409090042114258 C13.658363342285156 12.341599464416504 13.598546028137207 12.274107933044434 13.538727760314941 12.20661735534668 L13.538727760314941 12.20661735534668 C13.532172203063965 12.1334228515625 13.519145011901855 12.05202579498291 13.470437049865723 11.996999740600586 L13.470437049865723 11.996999740600586 C13.43932819366455 12.072681427001953 13.408218383789062 12.148364067077637 13.37710952758789 12.224045753479004 L13.37710952758789 12.224045753479004 C13.37710952758789 12.142945289611816 13.37710952758789 12.061845779418945 13.37710952758789 11.980745315551758 L13.37710952758789 11.980745315551758 C13.403945922851562 11.977890968322754 13.430782318115234 11.97503662109375 13.457618713378906 11.972182273864746 L13.457618713378906 11.972182273864746"></path></svg>