<svg xmlns="http://www.w3.org/2000/svg" viewBox="0.0 0.0 24.0 24.0" height="200px" width="200px"><path fill="none" stroke="black" stroke-width=".3" stroke-opacity="1.0"  filling="0" d="M14.966236114501953 11.844654083251953 L14.966236114501953 11.844654083251953 C14.986217498779297 11.938408851623535 15.006199836730957 12.0321626663208 15.0261812210083 12.125917434692383 L15.0261812210083 12.125917434692383 C14.993335723876953 12.129399299621582 14.960490226745605 12.132881164550781 14.927644729614258 12.13636302947998 L14.927644729614258 12.13636302947998 C14.921463012695312 12.074653625488281 14.915281295776367 12.012944221496582 14.909099578857422 11.951234817504883 L14.909099578857422 11.951234817504883 C14.89857292175293 11.949934959411621 14.888045310974121 11.94863510131836 14.877518653869629 11.947335243225098 L14.877518653869629 11.947335243225098 C14.866055488586426 12.007380485534668 14.854591369628906 12.067426681518555 14.843128204345703 12.127471923828125 L14.843128204345703 12.127471923828125 C14.813155174255371 12.127471923828125 14.783183097839355 12.127471923828125 14.753210067749023 12.127471923828125 L14.753210067749023 12.127471923828125 C14.788759231567383 12.01492977142334 14.853007316589355 11.87795352935791 14.966236114501953 11.844654083251953 L14.966236114501953 11.844654083251953"></path></svg>