<svg xmlns="http://www.w3.org/2000/svg" viewBox="0.0 0.0 24.0 24.0" height="200px" width="200px"><path fill="none" stroke="black" stroke-width=".3" stroke-opacity="1.0"  filling="0" d="M14.256489753723145 11.544844627380371 L14.256489753723145 11.544844627380371 C14.403960227966309 11.556673049926758 14.551979064941406 11.564994812011719 14.699918746948242 11.563773155212402 L14.699918746948242 11.563773155212402 C14.698052406311035 12.023551940917969 14.554701805114746 13.698904037475586 13.781399726867676 12.57719898223877 L13.781399726867676 12.57719898223877 C13.882172584533691 12.587417602539062 13.98294448852539 12.597635269165039 14.083717346191406 12.607853889465332 L14.083717346191406 12.607853889465332 C14.184572219848633 12.653529167175293 14.34760856628418 12.575777053833008 14.38693618774414 12.472281455993652 L14.38693618774414 12.472281455993652 C13.646157264709473 12.595795631408691 13.552030563354492 11.705659866333008 14.256489753723145 11.544844627380371 L14.256489753723145 11.544844627380371"></path>
<path fill="none" stroke="black" stroke-width=".3" stroke-opacity="1.0"  filling="0" d="M14.245773315429688 11.74600887298584 L14.245773315429688 11.74600887298584 C14.283272743225098 11.924745559692383 14.320773124694824 12.10348129272461 14.358272552490234 12.282217979431152 L14.358272552490234 12.282217979431152 C14.001545906066895 12.253719329833984 13.940882682800293 11.940070152282715 14.245773315429688 11.74600887298584 L14.245773315429688 11.74600887298584"></path></svg>