<svg xmlns="http://www.w3.org/2000/svg" viewBox="0.0 0.0 24.0 24.0" height="200px" width="200px"><path fill="none" stroke="black" stroke-width=".3" stroke-opacity="1.0"  filling="0" d="M8.968554496765137 11.907626152038574 L8.968554496765137 11.907626152038574 C9.038331985473633 11.966879844665527 9.072933197021484 12.059483528137207 9.1090087890625 12.143616676330566 L9.1090087890625 12.143616676330566 C9.03049087524414 12.153580665588379 8.951972007751465 12.163544654846191 8.873454093933105 12.173508644104004 L8.873454093933105 12.173508644104004 C8.873444557189941 12.091280937194824 8.873435974121094 12.009054183959961 8.87342643737793 11.926826477050781 L8.87342643737793 11.926826477050781 C8.905136108398438 11.920426368713379 8.936844825744629 11.914026260375977 8.968554496765137 11.907626152038574 L8.968554496765137 11.907626152038574"></path>
<path fill="none" stroke="black" stroke-width=".3" stroke-opacity="1.0"  filling="0" d="M8.973627090454102 11.949845314025879 L8.973627090454102 11.949845314025879 C8.985426902770996 11.950654983520508 8.997227668762207 11.95146369934082 9.009027481079102 11.95227336883545 L9.009027481079102 11.95227336883545 C9.017509460449219 12.014927864074707 9.02599048614502 12.077581405639648 9.034472465515137 12.140235900878906 L9.034472465515137 12.140235900878906 C8.992490768432617 12.134563446044922 8.950510025024414 12.128890991210938 8.908528327941895 12.123218536376953 L8.908528327941895 12.123218536376953 C8.930228233337402 12.065427780151367 8.951927185058594 12.007636070251465 8.973627090454102 11.949845314025879 L8.973627090454102 11.949845314025879"></path></svg>