<svg xmlns="http://www.w3.org/2000/svg" viewBox="0.0 0.0 24.0 24.0" height="200px" width="200px"><path fill="none" stroke="black" stroke-width=".3" stroke-opacity="1.0"  filling="0" d="M12.068564414978027 11.947199821472168 L12.068564414978027 11.947199821472168 C12.036073684692383 11.95003604888916 12.003582000732422 11.952873229980469 11.971091270446777 11.955709457397461 L11.971091270446777 11.955709457397461 C12.072607040405273 11.951705932617188 12.151885032653809 12.084284782409668 12.17353630065918 12.183545112609863 L12.17353630065918 12.183545112609863 C12.099527359008789 12.163808822631836 12.025518417358398 12.144073486328125 11.951509475708008 12.124337196350098 L11.951509475708008 12.124337196350098 C11.960954666137695 12.091355323791504 11.9704008102417 12.058374404907227 11.979846000671387 12.025392532348633 L11.979846000671387 12.025392532348633 C11.989437103271484 12.02589225769043 11.999027252197266 12.026391983032227 12.008618354797363 12.026891708374023 L12.008618354797363 12.026891708374023 C12.02109146118164 12.054482460021973 12.033563613891602 12.082073211669922 12.046036720275879 12.109663963317871 L12.046036720275879 12.109663963317871 C12.053545951843262 12.108272552490234 12.061055183410645 12.106882095336914 12.068564414978027 12.105490684509277 L12.068564414978027 12.105490684509277 C12.068564414978027 12.052726745605469 12.068564414978027 11.999963760375977 12.068564414978027 11.947199821472168 L12.068564414978027 11.947199821472168"></path></svg>