<svg xmlns="http://www.w3.org/2000/svg" viewBox="0.0 0.0 24.0 24.0" height="200px" width="200px"><path fill="none" stroke="black" stroke-width=".3" stroke-opacity="1.0"  filling="0" d="M12.476454734802246 11.949899673461914 L12.476454734802246 11.949899673461914 C12.499454498291016 12.039326667785645 12.522455215454102 12.128754615783691 12.545454978942871 12.218181610107422 L12.545454978942871 12.218181610107422 C12.518181800842285 12.218181610107422 12.490909576416016 12.218181610107422 12.46363639831543 12.218181610107422 L12.46363639831543 12.218181610107422 C12.436363220214844 12.143208503723145 12.409090995788574 12.068236351013184 12.381817817687988 11.993263244628906 L12.381817817687988 11.993263244628906 C12.381817817687988 12.068236351013184 12.381817817687988 12.143208503723145 12.381817817687988 12.218181610107422 L12.381817817687988 12.218181610107422 C12.354544639587402 12.218181610107422 12.327272415161133 12.218181610107422 12.299999237060547 12.218181610107422 L12.299999237060547 12.218181610107422 C12.299999237060547 12.147627830505371 12.299999237060547 12.077073097229004 12.299999237060547 12.006519317626953 L12.299999237060547 12.006519317626953 C12.288899421691895 12.002592086791992 12.277799606323242 11.998663902282715 12.26669979095459 11.994736671447754 L12.26669979095459 11.994736671447754 C12.231682777404785 12.062434196472168 12.219513893127441 12.141976356506348 12.218181610107422 12.218182563781738 L12.218181610107422 12.218182563781738 C12.190909385681152 12.218182563781738 12.163636207580566 12.218181610107422 12.136363983154297 12.218181610107422 L12.136363983154297 12.218181610107422 C12.136363983154297 12.138190269470215 12.136363983154297 12.058199882507324 12.136363983154297 11.978208541870117 L12.136363983154297 11.978208541870117 C12.249727249145508 11.968771934509277 12.363091468811035 11.959336280822754 12.476454734802246 11.949899673461914 L12.476454734802246 11.949899673461914"></path></svg>