<svg xmlns="http://www.w3.org/2000/svg" viewBox="0.0 0.0 24.0 24.0" height="200px" width="200px"><path fill="none" stroke="black" stroke-width=".3" stroke-opacity="1.0"  filling="0" d="M5.332690715789795 11.411344528198242 L5.332690715789795 11.411344528198242 C6.128414154052734 11.476033210754395 5.97058629989624 11.586071968078613 5.972481727600098 12.425591468811035 L5.972481727600098 12.425591468811035 C5.74423360824585 12.394575119018555 4.534571647644043 11.95666790008545 5.340735912322998 11.896690368652344 L5.340735912322998 11.896690368652344 C5.333708763122559 11.871927261352539 5.326681613922119 11.847163200378418 5.31965446472168 11.822400093078613 L5.31965446472168 11.822400093078613 C5.446545600891113 11.79836368560791 5.573436260223389 11.774327278137207 5.700327396392822 11.750290870666504 L5.700327396392822 11.750290870666504 C5.62525749206543 11.681129455566406 5.472978591918945 11.655983924865723 5.39539098739624 11.722308158874512 L5.39539098739624 11.722308158874512 C5.3122453689575195 11.722308158874512 5.229100227355957 11.722308158874512 5.145954608917236 11.722308158874512 L5.145954608917236 11.722308158874512 C5.208199977874756 11.618653297424316 5.270445346832275 11.514999389648438 5.332690715789795 11.411344528198242 L5.332690715789795 11.411344528198242"></path>
<path fill="none" stroke="black" stroke-width=".3" stroke-opacity="1.0"  filling="0" d="M5.6504998207092285 11.951072692871094 L5.6504998207092285 11.951072692871094 C5.768554210662842 12.091717720031738 5.591258525848389 12.218108177185059 5.447236061096191 12.218481063842773 L5.447236061096191 12.218481063842773 C5.432596683502197 12.107478141784668 5.547996997833252 11.996118545532227 5.6504998207092285 11.951072692871094 L5.6504998207092285 11.951072692871094"></path></svg>