<svg xmlns="http://www.w3.org/2000/svg" viewBox="0.0 0.0 24.0 24.0" height="200px" width="200px"><path fill="none" stroke="black" stroke-width=".3" stroke-opacity="1.0"  filling="0" d="M12.11740779876709 11.161499977111816 L12.11740779876709 11.161499977111816 C12.212698936462402 11.161499977111816 12.307989120483398 11.161499977111816 12.403280258178711 11.161499977111816 L12.403280258178711 11.161499977111816 C12.403280258178711 11.297218322753906 12.403280258178711 11.43293571472168 12.403280258178711 11.56865406036377 L12.403280258178711 11.56865406036377 C13.15402889251709 11.358378410339355 12.979741096496582 12.03388500213623 12.981681823730469 12.540409088134766 L12.981681823730469 12.540409088134766 C12.883544921875 12.540409088134766 12.785408973693848 12.540409088134766 12.687272071838379 12.540409088134766 L12.687272071838379 12.540409088134766 C12.687272071838379 12.296699523925781 12.687272071838379 12.052990913391113 12.687272071838379 11.809281349182129 L12.687272071838379 11.809281349182129 C12.601726531982422 11.796408653259277 12.516180992126465 11.783536911010742 12.430635452270508 11.77066421508789 L12.430635452270508 11.77066421508789 C12.387351036071777 12.021138191223145 12.382837295532227 12.277470588684082 12.381762504577637 12.531654357910156 L12.381762504577637 12.531654357910156 C12.283899307250977 12.531654357910156 12.18603515625 12.531654357910156 12.08817195892334 12.531654357910156 L12.08817195892334 12.531654357910156 C12.097917556762695 12.074935913085938 12.107662200927734 11.618218421936035 12.11740779876709 11.161499977111816 L12.11740779876709 11.161499977111816"></path></svg>