<svg xmlns="http://www.w3.org/2000/svg" viewBox="0.0 0.0 24.0 24.0" height="200px" width="200px"><path fill="none" stroke="black" stroke-width=".3" stroke-opacity="1.0"  filling="0" d="M10.14212703704834 11.6129732131958 L10.14212703704834 11.6129732131958 C10.398144721984863 11.626582145690918 10.654163360595703 11.640192031860352 10.910181045532227 11.653800964355469 L10.910181045532227 11.653800964355469 C10.778605461120605 11.759965896606445 10.57056713104248 11.739185333251953 10.405389785766602 11.703137397766113 L10.405389785766602 11.703137397766113 C10.433420181274414 11.755022048950195 11.515741348266602 12.268464088439941 10.81175422668457 12.458237648010254 C10.557086944580078 12.526887893676758 10.295700073242188 12.348873138427734 10.037672996520996 12.294190406799316 L10.037672996520996 12.294190406799316 C10.100439071655273 12.246122360229492 10.16308307647705 12.195564270019531 10.234827041625977 12.162354469299316 L10.234827041625977 12.162354469299316 C10.372336387634277 12.19687271118164 10.509844779968262 12.231390953063965 10.647354125976562 12.265909194946289 L10.647354125976562 12.265909194946289 C10.481050491333008 12.046650886535645 10.1544771194458 11.88788890838623 10.14212703704834 11.6129732131958 L10.14212703704834 11.6129732131958"></path></svg>