<svg xmlns="http://www.w3.org/2000/svg" viewBox="0.0 0.0 24.0 24.0" height="200px" width="200px"><path fill="none" stroke="black" stroke-width=".3" stroke-opacity="1.0"  filling="0" d="M4.550754070281982 11.083172798156738 L4.550754070281982 11.083172798156738 C4.650899887084961 11.083172798156738 4.7510457038879395 11.083172798156738 4.851191520690918 11.083172798156738 L4.851191520690918 11.083172798156738 C4.851191520690918 11.186717987060547 4.851191520690918 11.290264129638672 4.851191520690918 11.39380931854248 L4.851191520690918 11.39380931854248 C4.903318405151367 11.397309303283691 4.955445766448975 11.400809288024902 5.007572650909424 11.404309272766113 L5.007572650909424 11.404309272766113 C5.007572650909424 11.46500015258789 5.007572650909424 11.525691032409668 5.007572650909424 11.586381912231445 L5.007572650909424 11.586381912231445 C4.72409725189209 11.604289054870605 4.827373504638672 11.951130867004395 4.827136516571045 12.127172470092773 L4.827136516571045 12.127172470092773 C4.891081809997559 12.145645141601562 4.955027103424072 12.164118766784668 5.018972396850586 12.182591438293457 L5.018972396850586 12.182591438293457 C5.0126633644104 12.2565279006958 5.006354331970215 12.330463409423828 5.000045299530029 12.404399871826172 L5.000045299530029 12.404399871826172 C4.202223777770996 12.332515716552734 4.8197245597839355 11.915217399597168 4.423308849334717 11.518363952636719 L4.423308849334717 11.518363952636719 C4.465790748596191 11.465818405151367 4.508272171020508 11.413272857666016 4.550754070281982 11.360727310180664 L4.550754070281982 11.360727310180664 C4.550754070281982 11.268209457397461 4.550754070281982 11.175690650939941 4.550754070281982 11.083172798156738 L4.550754070281982 11.083172798156738"></path></svg>