<svg xmlns="http://www.w3.org/2000/svg" viewBox="0.0 0.0 24.0 24.0" height="200px" width="200px"><path fill="none" stroke="black" stroke-width=".3" stroke-opacity="1.0"  filling="0" d="M12.469745635986328 11.973899841308594 L12.469745635986328 11.973899841308594 C12.494991302490234 12.055317878723145 12.52023696899414 12.136735916137695 12.545482635498047 12.218153953552246 L12.545482635498047 12.218153953552246 C12.527300834655762 12.218153953552246 12.509119033813477 12.218153953552246 12.490937232971191 12.218153953552246 L12.490937232971191 12.218153953552246 C12.463664054870605 12.16299057006836 12.43639087677002 12.107827186584473 12.409117698669434 12.052663803100586 L12.409117698669434 12.052663803100586 C12.409117698669434 12.107827186584473 12.409117698669434 12.16299057006836 12.409117698669434 12.218153953552246 L12.409117698669434 12.218153953552246 C12.3818359375 12.21816349029541 12.354554176330566 12.218172073364258 12.327272415161133 12.218181610107422 L12.327272415161133 12.218181610107422 C12.291033744812012 12.146586418151855 12.270293235778809 12.066070556640625 12.263154029846191 11.98614501953125 L12.263154029846191 11.98614501953125 C12.218208312988281 12.05637264251709 12.173263549804688 12.12660026550293 12.128317832946777 12.19682788848877 L12.128317832946777 12.19682788848877 C12.114790916442871 12.128718376159668 12.101263046264648 12.060609817504883 12.087736129760742 11.992500305175781 L12.087736129760742 11.992500305175781 C12.180500030517578 12.000563621520996 12.273262977600098 12.008626937866211 12.366026878356934 12.016690254211426 L12.366026878356934 12.016690254211426 C12.400599479675293 12.002427101135254 12.435173034667969 11.988162994384766 12.469745635986328 11.973899841308594 L12.469745635986328 11.973899841308594"></path></svg>