<svg xmlns="http://www.w3.org/2000/svg" viewBox="0.0 0.0 24.0 24.0" height="200px" width="200px"><path fill="none" stroke="black" stroke-width=".3" stroke-opacity="1.0"  filling="0" d="M10.185163497924805 11.915290832519531 L10.185163497924805 11.915290832519531 C10.257938385009766 11.962916374206543 10.238123893737793 12.156244277954102 10.254545211791992 12.245454788208008 L10.254545211791992 12.245454788208008 C10.218181610107422 12.245454788208008 10.181818008422852 12.245454788208008 10.145454406738281 12.245454788208008 L10.145454406738281 12.245454788208008 C10.136954307556152 12.180981636047363 10.128454208374023 12.116509437561035 10.119954109191895 12.05203628540039 L10.119954109191895 12.05203628540039 C10.119363784790039 12.116509437561035 10.118772506713867 12.180981636047363 10.118182182312012 12.245454788208008 L10.118182182312012 12.245454788208008 C10.081818580627441 12.245454788208008 10.045454978942871 12.245454788208008 10.0090913772583 12.245454788208008 L10.0090913772583 12.245454788208008 C10.060463905334473 12.169754981994629 10.111837387084961 12.094054222106934 10.163209915161133 12.018354415893555 L10.163209915161133 12.018354415893555 C10.170527458190918 11.984000205993652 10.17784595489502 11.949645042419434 10.185163497924805 11.915290832519531 L10.185163497924805 11.915290832519531"></path></svg>