<svg xmlns="http://www.w3.org/2000/svg" viewBox="0.0 0.0 24.0 24.0" height="200px" width="200px"><path fill="none" stroke="black" stroke-width=".3" stroke-opacity="1.0"  filling="0" d="M11.369563102722168 11.308609008789062 L11.369563102722168 11.308609008789062 C11.468962669372559 11.322362899780273 11.568363189697266 11.3361177444458 11.667762756347656 11.349871635437012 L11.667762756347656 11.349871635437012 C11.667762756347656 11.445526123046875 11.667762756347656 11.541181564331055 11.667762756347656 11.636836051940918 L11.667762756347656 11.636836051940918 C11.721726417541504 11.642071723937988 11.775691032409668 11.647308349609375 11.829654693603516 11.652544021606445 L11.829654693603516 11.652544021606445 C11.829654693603516 11.712471961975098 11.829654693603516 11.772398948669434 11.829654693603516 11.832326889038086 L11.829654693603516 11.832326889038086 C11.527769088745117 11.84533405303955 11.645310401916504 12.170086860656738 11.645591735839844 12.400144577026367 L11.645591735839844 12.400144577026367 C11.698227882385254 12.417126655578613 11.750864028930664 12.434107780456543 11.803500175476074 12.451089859008789 L11.803500175476074 12.451089859008789 C11.803500175476074 12.524017333984375 11.803500175476074 12.596944808959961 11.803500175476074 12.669872283935547 L11.803500175476074 12.669872283935547 C11.229473114013672 12.641057968139648 11.345921516418457 12.423747062683105 11.34548282623291 11.85059928894043 L11.34548282623291 11.85059928894043 C11.310791969299316 11.841854095458984 11.276100158691406 11.833108901977539 11.241409301757812 11.824363708496094 L11.241409301757812 11.824363708496094 C11.241409301757812 11.766836166381836 11.241409301757812 11.709308624267578 11.241409301757812 11.65178108215332 L11.241409301757812 11.65178108215332 C11.284136772155762 11.647717475891113 11.326864242553711 11.643654823303223 11.36959171295166 11.639591217041016 L11.36959171295166 11.639591217041016 C11.369582176208496 11.529263496398926 11.369572639465332 11.418936729431152 11.369563102722168 11.308609008789062 L11.369563102722168 11.308609008789062"></path></svg>