<svg xmlns="http://www.w3.org/2000/svg" viewBox="0.0 0.0 24.0 24.0" height="200px" width="200px"><path fill="none" stroke="black" stroke-width=".3" stroke-opacity="1.0"  filling="0" d="M13.83062744140625 11.403188705444336 L13.83062744140625 11.403188705444336 C13.93177318572998 11.413089752197266 14.032917976379395 11.422989845275879 14.134063720703125 11.432890892028809 L14.134063720703125 11.432890892028809 C14.134063720703125 11.527990341186523 14.134063720703125 11.623090744018555 14.134063720703125 11.71819019317627 L14.134063720703125 11.71819019317627 C14.192427635192871 11.723627090454102 14.2507905960083 11.729063034057617 14.309154510498047 11.73449993133545 L14.309154510498047 11.73449993133545 C14.309154510498047 11.793845176696777 14.309154510498047 11.853189468383789 14.309154510498047 11.912534713745117 L14.309154510498047 11.912534713745117 C14.248536109924316 11.91626262664795 14.187918663024902 11.919989585876465 14.127300262451172 11.923717498779297 L14.127300262451172 11.923717498779297 C14.126565933227539 12.113235473632812 14.08719539642334 12.302907943725586 14.133163452148438 12.486735343933105 L14.133163452148438 12.486735343933105 C14.183218002319336 12.489471435546875 14.23327350616455 12.492208480834961 14.28332805633545 12.49494457244873 L14.28332805633545 12.49494457244873 C14.28332805633545 12.57542610168457 14.28332805633545 12.65590763092041 14.28332805633545 12.73638916015625 L14.28332805633545 12.73638916015625 C13.936037063598633 12.692336082458496 13.947221755981445 12.1173095703125 13.7246732711792 11.84708023071289 L13.7246732711792 11.84708023071289 C13.759991645812988 11.790007591247559 13.795309066772461 11.732934951782227 13.83062744140625 11.675862312316895 L13.83062744140625 11.675862312316895 C13.83062744140625 11.58497142791748 13.83062744140625 11.49407958984375 13.83062744140625 11.403188705444336 L13.83062744140625 11.403188705444336"></path></svg>