<svg xmlns="http://www.w3.org/2000/svg" viewBox="0.0 0.0 24.0 24.0" height="200px" width="200px"><path fill="none" stroke="black" stroke-width=".3" stroke-opacity="1.0"  filling="0" d="M12.618654251098633 11.837591171264648 L12.618654251098633 11.837591171264648 C12.637227058410645 11.839391708374023 12.655799865722656 11.841191291809082 12.674372673034668 11.842991828918457 L12.674372673034668 11.842991828918457 C12.678690910339355 11.8823823928833 12.683009147644043 11.921773910522461 12.68732738494873 11.961164474487305 L12.68732738494873 11.961164474487305 C12.72591781616211 11.967373847961426 12.764509201049805 11.97358226776123 12.803099632263184 11.979791641235352 L12.803099632263184 11.979791641235352 C12.803690910339355 12.057819366455078 12.804281234741211 12.135846138000488 12.804872512817383 12.213873863220215 L12.804872512817383 12.213873863220215 C12.739636421203613 12.213873863220215 12.674399375915527 12.213873863220215 12.609163284301758 12.213873863220215 L12.609163284301758 12.213873863220215 C12.598663330078125 12.091682434082031 12.588163375854492 11.969491958618164 12.57766342163086 11.84730052947998 L12.57766342163086 11.84730052947998 C12.591326713562012 11.844063758850098 12.60499095916748 11.840827941894531 12.618654251098633 11.837591171264648 L12.618654251098633 11.837591171264648"></path></svg>