<svg xmlns="http://www.w3.org/2000/svg" viewBox="0.0 0.0 24.0 24.0" height="200px" width="200px"><path fill="none" stroke="black" stroke-width=".3" stroke-opacity="1.0"  filling="0" d="M11.713473320007324 11.856271743774414 L11.713473320007324 11.856271743774414 C11.722000122070312 11.859990119934082 11.730527877807617 11.86370849609375 11.739054679870605 11.867426872253418 L11.739054679870605 11.867426872253418 C11.75330924987793 11.984344482421875 11.767563819885254 12.101263046264648 11.781818389892578 12.218180656433105 L11.781818389892578 12.218180656433105 C11.699999809265137 12.218180656433105 11.618182182312012 12.218181610107422 11.53636360168457 12.218181610107422 L11.53636360168457 12.218181610107422 C11.5305814743042 12.14069938659668 11.524800300598145 12.063218116760254 11.519018173217773 11.985735893249512 L11.519018173217773 11.985735893249512 C11.562945365905762 11.979299545288086 11.606873512268066 11.97286319732666 11.650800704956055 11.966426849365234 L11.650800704956055 11.966426849365234 C11.67169189453125 11.929708480834961 11.692582130432129 11.892990112304688 11.713473320007324 11.856271743774414 L11.713473320007324 11.856271743774414"></path>
<path fill="none" stroke="black" stroke-width=".3" stroke-opacity="1.0"  filling="0" d="M11.622546195983887 12.002618789672852 L11.622546195983887 12.002618789672852 C11.632600784301758 12.067327499389648 11.642654418945312 12.132037162780762 11.652709007263184 12.196745872497559 L11.652709007263184 12.196745872497559 C11.621227264404297 12.171618461608887 11.58974552154541 12.146491050720215 11.558263778686523 12.121363639831543 L11.558263778686523 12.121363639831543 C11.579690933227539 12.081782341003418 11.601119041442871 12.042200088500977 11.622546195983887 12.002618789672852 L11.622546195983887 12.002618789672852"></path></svg>