<svg xmlns="http://www.w3.org/2000/svg" viewBox="0.0 0.0 24.0 24.0" height="200px" width="200px"><path fill="none" stroke="black" stroke-width=".3" stroke-opacity="1.0"  filling="0" d="M10.968954086303711 11.95587158203125 L10.968954086303711 11.95587158203125 C11.179732322692871 11.95634651184082 11.371858596801758 11.93899917602539 11.372672080993652 12.204217910766602 L11.372672080993652 12.204217910766602 C11.360790252685547 12.21146297454834 11.348909378051758 12.218708992004395 11.337027549743652 12.225954055786133 L11.337027549743652 12.225954055786133 C11.274426460266113 12.142210960388184 11.309649467468262 12.070967674255371 11.239853858947754 11.992090225219727 L11.239853858947754 11.992090225219727 C11.230899810791016 11.996490478515625 11.221944808959961 12.000890731811523 11.212990760803223 12.005290985107422 L11.212990760803223 12.005290985107422 C11.212990760803223 12.071436882019043 11.212990760803223 12.137581825256348 11.212990760803223 12.203727722167969 L11.212990760803223 12.203727722167969 C11.148656845092773 12.142959594726562 11.097087860107422 12.069474220275879 11.047090530395508 11.996454238891602 L11.047090530395508 11.996454238891602 C11.050209045410156 12.066654205322266 11.053326606750488 12.13685417175293 11.056445121765137 12.207054138183594 L11.056445121765137 12.207054138183594 C11.027281761169434 12.210371971130371 10.998117446899414 12.213690757751465 10.968954086303711 12.217008590698242 L10.968954086303711 12.217008590698242 C10.968954086303711 12.129962921142578 10.968954086303711 12.042917251586914 10.968954086303711 11.95587158203125 L10.968954086303711 11.95587158203125"></path></svg>