<svg xmlns="http://www.w3.org/2000/svg" viewBox="0.0 0.0 24.0 24.0" height="200px" width="200px"><path fill="none" stroke="black" stroke-width=".3" stroke-opacity="1.0"  filling="0" d="M13.72813606262207 11.955545425415039 L13.72813606262207 11.955545425415039 C13.794635772705078 11.956454277038574 13.861136436462402 11.957364082336426 13.92763614654541 11.958272933959961 L13.92763614654541 11.958272933959961 C13.936681747436523 12.033336639404297 13.945727348327637 12.108399391174316 13.95477294921875 12.183463096618652 L13.95477294921875 12.183463096618652 C13.92436408996582 12.183463096618652 13.893954277038574 12.183463096618652 13.863545417785645 12.183463096618652 L13.863545417785645 12.183463096618652 C13.845099449157715 12.1089448928833 13.826654434204102 12.034427642822266 13.808208465576172 11.959909439086914 L13.808208465576172 11.959909439086914 C13.800026893615723 12.034981727600098 13.791845321655273 12.110054969787598 13.783663749694824 12.185127258300781 L13.783663749694824 12.185127258300781 C13.765154838562012 12.187000274658203 13.746644973754883 12.188872337341309 13.72813606262207 12.19074535369873 L13.72813606262207 12.19074535369873 C13.72813606262207 12.112345695495605 13.72813606262207 12.033945083618164 13.72813606262207 11.955545425415039 L13.72813606262207 11.955545425415039"></path></svg>