<svg xmlns="http://www.w3.org/2000/svg" viewBox="0.0 0.0 24.0 24.0" height="200px" width="200px"><path fill="none" stroke="black" stroke-width=".3" stroke-opacity="1.0"  filling="0" d="M11.278226852416992 11.881362915039062 L11.278226852416992 11.881362915039062 C11.287226676940918 11.8853178024292 11.296226501464844 11.88927173614502 11.30522632598877 11.893226623535156 L11.30522632598877 11.893226623535156 C11.312661170959473 11.982510566711426 11.31938648223877 12.07186222076416 11.324808120727539 12.161291122436523 L11.324808120727539 12.161291122436523 C11.33368968963623 12.160836219787598 11.342572212219238 12.160382270812988 11.35145378112793 12.159927368164062 L11.35145378112793 12.159927368164062 C11.373372077941895 12.103155136108398 11.39529037475586 12.046381950378418 11.417208671569824 11.989609718322754 L11.417208671569824 11.989609718322754 C11.491462707519531 12.01648235321045 11.565717697143555 12.043354988098145 11.639971733093262 12.07022762298584 L11.639971733093262 12.07022762298584 C11.61840534210205 12.27859878540039 11.313724517822266 12.202146530151367 11.199163436889648 12.185590744018555 L11.199163436889648 12.185590744018555 C11.195972442626953 12.128117561340332 11.192781448364258 12.070645332336426 11.189590454101562 12.013172149658203 L11.189590454101562 12.013172149658203 C11.219136238098145 11.96923542022705 11.24868106842041 11.925299644470215 11.278226852416992 11.881362915039062 L11.278226852416992 11.881362915039062"></path></svg>