<svg xmlns="http://www.w3.org/2000/svg" viewBox="0.0 0.0 24.0 24.0" height="200px" width="200px"><path fill="none" stroke="black" stroke-width=".3" stroke-opacity="1.0"  filling="0" d="M13.009063720703125 11.809064865112305 L13.009063720703125 11.809064865112305 C13.036345481872559 11.809073448181152 13.063627243041992 11.809082984924316 13.090909004211426 11.809091567993164 L13.090909004211426 11.809091567993164 C13.155181884765625 11.936516761779785 13.28606128692627 12.037776947021484 13.277535438537598 12.182891845703125 L13.277535438537598 12.182891845703125 C13.248784065246582 12.186464309692383 13.219315528869629 12.18922233581543 13.190645217895508 12.185047149658203 L13.190645217895508 12.185047149658203 C13.19448184967041 12.125555992126465 13.198317527770996 12.066064834594727 13.202154159545898 12.006573677062988 L13.202154159545898 12.006573677062988 C13.173127174377441 12.065155029296875 13.144100189208984 12.123737335205078 13.115073204040527 12.182318687438965 L13.115073204040527 12.182318687438965 C13.081527709960938 12.182318687438965 13.047982215881348 12.182318687438965 13.014436721801758 12.182318687438965 L13.014436721801758 12.182318687438965 C13.012645721435547 12.057900428771973 13.010854721069336 11.933483123779297 13.009063720703125 11.809064865112305 L13.009063720703125 11.809064865112305"></path></svg>