<svg xmlns="http://www.w3.org/2000/svg" viewBox="0.0 0.0 24.0 24.0" height="200px" width="200px"><path fill="none" stroke="black" stroke-width=".3" stroke-opacity="1.0"  filling="0" d="M11.173991203308105 11.84675407409668 L11.173991203308105 11.84675407409668 C11.212300300598145 11.850763320922852 11.250609397888184 11.854772567749023 11.288918495178223 11.858781814575195 L11.288918495178223 11.858781814575195 C11.27788257598877 11.921717643737793 11.266845703125 11.984654426574707 11.255809783935547 12.047590255737305 L11.255809783935547 12.047590255737305 C11.295964241027832 12.012971878051758 11.3361177444458 11.978354454040527 11.376272201538086 11.94373607635498 L11.376272201538086 11.94373607635498 C11.385063171386719 11.950154304504395 11.393855094909668 11.956571578979492 11.4026460647583 11.962989807128906 L11.4026460647583 11.962989807128906 C11.378782272338867 11.995889663696289 11.354918479919434 12.028790473937988 11.3310546875 12.061690330505371 L11.3310546875 12.061690330505371 C11.372218132019043 12.122944831848145 11.413381576538086 12.184199333190918 11.454545021057129 12.245453834533691 L11.454545021057129 12.245453834533691 C11.363636016845703 12.245453834533691 11.272727012634277 12.245454788208008 11.181818008422852 12.245454788208008 L11.181818008422852 12.245454788208008 C11.198659896850586 12.11359977722168 11.195111274719238 11.977991104125977 11.173991203308105 11.84675407409668 L11.173991203308105 11.84675407409668"></path></svg>