<svg xmlns="http://www.w3.org/2000/svg" viewBox="0.0 0.0 24.0 24.0" height="200px" width="200px"><path fill="none" stroke="black" stroke-width=".3" stroke-opacity="1.0"  filling="0" d="M12.010964393615723 11.969482421875 L12.010964393615723 11.969482421875 C12.010964393615723 12.005346298217773 12.010964393615723 12.04120922088623 12.010964393615723 12.077073097229004 L12.010964393615723 12.077073097229004 C12.017473220825195 12.078946113586426 12.023982048034668 12.080818176269531 12.03049087524414 12.082691192626953 L12.03049087524414 12.082691192626953 C12.045563697814941 12.053118705749512 12.060636520385742 12.023545265197754 12.075709342956543 11.993972778320312 L12.075709342956543 11.993972778320312 C12.112336158752441 12.024726867675781 12.148963928222656 12.055481910705566 12.185590744018555 12.086236000061035 L12.185590744018555 12.086236000061035 C12.124707221984863 12.111194610595703 12.050849914550781 12.208101272583008 12.09155559539795 12.25979995727539 L12.09155559539795 12.25979995727539 C12.050410270690918 12.26470947265625 12.00926399230957 12.269618034362793 11.968118667602539 12.274527549743652 L11.968118667602539 12.274527549743652 C11.932336807250977 12.227782249450684 11.896554946899414 12.181036949157715 11.860773086547852 12.134291648864746 L11.860773086547852 12.134291648864746 C11.910837173461914 12.079355239868164 11.96090030670166 12.024418830871582 12.010964393615723 11.969482421875 L12.010964393615723 11.969482421875"></path></svg>