<svg xmlns="http://www.w3.org/2000/svg" viewBox="0.0 0.0 24.0 24.0" height="200px" width="200px"><path fill="none" stroke="black" stroke-width=".3" stroke-opacity="1.0"  filling="0" d="M9.9849271774292 11.329608917236328 L9.9849271774292 11.329608917236328 C10.38537883758545 11.373644828796387 10.63614559173584 11.944890022277832 10.63614559173584 12.347755432128906 L10.63614559173584 12.347755432128906 C10.530791282653809 12.334710121154785 10.425436019897461 12.321663856506348 10.32008171081543 12.308618545532227 L10.32008171081543 12.308618545532227 C9.336736679077148 12.413118362426758 9.933463096618652 11.855219841003418 10.386354446411133 11.635799407958984 L10.386354446411133 11.635799407958984 C10.270299911499023 11.642036437988281 10.154245376586914 11.648272514343262 10.038190841674805 11.654509544372559 L10.038190841674805 11.654509544372559 C9.960118293762207 11.649581909179688 9.882044792175293 11.644655227661133 9.803972244262695 11.639727592468262 L9.803972244262695 11.639727592468262 C9.864290237426758 11.536355018615723 9.924609184265137 11.432981491088867 9.9849271774292 11.329608917236328 L9.9849271774292 11.329608917236328"></path>
<path fill="none" stroke="black" stroke-width=".3" stroke-opacity="1.0"  filling="0" d="M10.310181617736816 11.862027168273926 L10.310181617736816 11.862027168273926 C10.265972137451172 11.963327407836914 10.221763610839844 12.064627647399902 10.1775541305542 12.16592788696289 L10.1775541305542 12.16592788696289 C10.140714645385742 12.139487266540527 10.103303909301758 12.11379623413086 10.065027236938477 12.089482307434082 L10.065027236938477 12.089482307434082 C10.146745681762695 12.013664245605469 10.228463172912598 11.937845230102539 10.310181617736816 11.862027168273926 L10.310181617736816 11.862027168273926"></path></svg>