<svg xmlns="http://www.w3.org/2000/svg" viewBox="0.0 0.0 24.0 24.0" height="200px" width="200px"><path fill="none" stroke="black" stroke-width=".3" stroke-opacity="1.0"  filling="0" d="M11.945454597473145 11.896172523498535 L11.945454597473145 11.896172523498535 C11.97001838684082 11.937018394470215 11.99458122253418 11.977863311767578 12.019145011901855 12.018709182739258 L12.019145011901855 12.018709182739258 C12.094160079956055 12.076704025268555 12.190552711486816 12.150635719299316 12.190908432006836 12.245454788208008 L12.190908432006836 12.245454788208008 C12.163636207580566 12.245454788208008 12.13636302947998 12.245454788208008 12.109090805053711 12.245454788208008 L12.109090805053711 12.245454788208008 C12.100618362426758 12.180909156799316 12.092144966125488 12.116363525390625 12.083672523498535 12.051817893981934 L12.083672523498535 12.051817893981934 C12.064872741699219 12.116363525390625 12.046072959899902 12.180909156799316 12.027273178100586 12.245454788208008 L12.027273178100586 12.245454788208008 C12.0 12.245454788208008 11.97272777557373 12.245454788208008 11.945454597473145 12.245454788208008 L11.945454597473145 12.245454788208008 C11.945454597473145 12.129027366638184 11.945454597473145 12.01259994506836 11.945454597473145 11.896172523498535 L11.945454597473145 11.896172523498535"></path></svg>