<svg xmlns="http://www.w3.org/2000/svg" viewBox="0.0 0.0 24.0 24.0" height="200px" width="200px"><path fill="none" stroke="black" stroke-width=".3" stroke-opacity="1.0"  filling="0" d="M13.5 11.890909194946289 L13.5 11.890909194946289 C13.5 11.9909086227417 13.5 12.090909004211426 13.5 12.190908432006836 L13.5 12.190908432006836 C13.481226921081543 12.138108253479004 13.462454795837402 12.085309028625488 13.443681716918945 12.032508850097656 L13.443681716918945 12.032508850097656 C13.431354522705078 12.031890869140625 13.419027328491211 12.031272888183594 13.406700134277344 12.030654907226562 L13.406700134277344 12.030654907226562 C13.389766693115234 12.098387718200684 13.43764877319336 12.186766624450684 13.5 12.218180656433105 L13.5 12.218180656433105 C13.445728302001953 12.252630233764648 13.373371124267578 12.244916915893555 13.309091567993164 12.245454788208008 L13.309091567993164 12.245454788208008 C13.358254432678223 12.161200523376465 13.407418251037598 12.076945304870605 13.456581115722656 11.992691040039062 L13.456581115722656 11.992691040039062 C13.471054077148438 11.95876407623291 13.485527038574219 11.924836158752441 13.5 11.890909194946289 L13.5 11.890909194946289"></path></svg>