<svg xmlns="http://www.w3.org/2000/svg" viewBox="0.0 0.0 24.0 24.0" height="200px" width="200px"><path fill="none" stroke="black" stroke-width=".3" stroke-opacity="1.0"  filling="0" d="M11.26898193359375 11.906509399414062 L11.26898193359375 11.906509399414062 C11.374472618103027 11.919600486755371 11.479964256286621 11.932690620422363 11.585454940795898 11.945781707763672 L11.585454940795898 11.945781707763672 C11.503355979919434 11.947007179260254 11.417777061462402 11.96098518371582 11.34490966796875 11.998827934265137 L11.34490966796875 11.998827934265137 C11.34775447845459 12.011327743530273 11.350600242614746 12.02382755279541 11.353445053100586 12.036327362060547 L11.353445053100586 12.036327362060547 C11.412799835205078 12.046117782592773 11.472153663635254 12.055909156799316 11.531508445739746 12.065699577331543 L11.531508445739746 12.065699577331543 C11.531508445739746 12.087090492248535 11.531508445739746 12.108481407165527 11.531508445739746 12.12987232208252 L11.531508445739746 12.12987232208252 C11.478581428527832 12.121253967285156 11.425654411315918 12.11263656616211 11.372727394104004 12.104018211364746 L11.372727394104004 12.104018211364746 C11.372727394104004 12.151172637939453 11.372727394104004 12.19832706451416 11.372727394104004 12.245481491088867 L11.372727394104004 12.245481491088867 C11.336363792419434 12.24547290802002 11.300000190734863 12.245463371276855 11.263636589050293 12.245454788208008 L11.263636589050293 12.245454788208008 C11.26541805267334 12.13247299194336 11.267200469970703 12.019491195678711 11.26898193359375 11.906509399414062 L11.26898193359375 11.906509399414062"></path></svg>