<svg xmlns="http://www.w3.org/2000/svg" viewBox="0.0 0.0 24.0 24.0" height="200px" width="200px"><path fill="none" stroke="black" stroke-width=".3" stroke-opacity="1.0"  filling="0" d="M14.511627197265625 11.93094539642334 L14.511627197265625 11.93094539642334 C14.544454574584961 11.963309288024902 14.57728099822998 11.995672225952148 14.610108375549316 12.028036117553711 L14.610108375549316 12.028036117553711 C14.538290023803711 12.05103588104248 14.466471672058105 12.074036598205566 14.3946533203125 12.097036361694336 L14.3946533203125 12.097036361694336 C14.436389923095703 12.12602710723877 14.478126525878906 12.155017852783203 14.51986312866211 12.184008598327637 L14.51986312866211 12.184008598327637 C14.473472595214844 12.184000015258789 14.427081108093262 12.183990478515625 14.380690574645996 12.183981895446777 L14.380690574645996 12.183981895446777 C14.400181770324707 12.10370922088623 14.419672966003418 12.023436546325684 14.439164161682129 11.943163871765137 L14.439164161682129 11.943163871765137 C14.437363624572754 11.968873023986816 14.435564041137695 11.994582176208496 14.43376350402832 12.020291328430176 L14.43376350402832 12.020291328430176 C14.440881729125977 12.022754669189453 14.447999954223633 12.025218963623047 14.455118179321289 12.027682304382324 L14.455118179321289 12.027682304382324 C14.473954200744629 11.995436668395996 14.492791175842285 11.963191032409668 14.511627197265625 11.93094539642334 L14.511627197265625 11.93094539642334"></path></svg>