<svg xmlns="http://www.w3.org/2000/svg" viewBox="0.0 0.0 24.0 24.0" height="200px" width="200px"><path fill="none" stroke="black" stroke-width=".3" stroke-opacity="1.0"  filling="0" d="M13.36363697052002 11.890909194946289 L13.36363697052002 11.890909194946289 C13.381818771362305 11.97272777557373 13.40000057220459 12.054545402526855 13.418182373046875 12.136363983154297 L13.418182373046875 12.136363983154297 C13.390909194946289 12.136363983154297 13.363636016845703 12.136363983154297 13.336362838745117 12.136363983154297 L13.336362838745117 12.136363983154297 C13.334516525268555 12.070250511169434 13.306864738464355 11.996061325073242 13.254546165466309 11.955599784851074 L13.254546165466309 11.955599784851074 C13.254546165466309 12.015863418579102 13.254546165466309 12.076126098632812 13.254546165466309 12.13638973236084 L13.254546165466309 12.13638973236084 C13.227272987365723 12.13638973236084 13.199999809265137 12.13638973236084 13.17272663116455 12.13638973236084 L13.17272663116455 12.13638973236084 C13.168590545654297 12.068225860595703 13.164454460144043 12.000062942504883 13.160318374633789 11.931899070739746 L13.160318374633789 11.931899070739746 C13.226974487304688 11.913545608520508 13.294500350952148 11.890942573547363 13.36363697052002 11.890909194946289 L13.36363697052002 11.890909194946289"></path></svg>