<svg xmlns="http://www.w3.org/2000/svg" viewBox="0.0 0.0 24.0 24.0" height="200px" width="200px"><path fill="none" stroke="black" stroke-width=".3" stroke-opacity="1.0"  filling="0" d="M14.97987174987793 11.922844886779785 L14.97987174987793 11.922844886779785 C15.036508560180664 11.924090385437012 15.093145370483398 11.925335884094238 15.149782180786133 11.926581382751465 L15.149782180786133 11.926581382751465 C15.114700317382812 11.986126899719238 15.079618453979492 12.045671463012695 15.044536590576172 12.105216979980469 L15.044536590576172 12.105216979980469 C15.082572937011719 12.1387357711792 15.12060832977295 12.172253608703613 15.158644676208496 12.205772399902344 L15.158644676208496 12.205772399902344 C15.089571952819824 12.201772689819336 15.020500183105469 12.197772026062012 14.951427459716797 12.193772315979004 L14.951427459716797 12.193772315979004 C14.949909210205078 12.205754280090332 14.94839096069336 12.217735290527344 14.94687271118164 12.229717254638672 L14.94687271118164 12.229717254638672 C14.996615409851074 12.2395658493042 15.04969310760498 12.260709762573242 15.081817626953125 12.299943923950195 L15.081817626953125 12.299943923950195 C15.03636360168457 12.299962043762207 14.990909576416016 12.299981117248535 14.945455551147461 12.299999237060547 L14.945455551147461 12.299999237060547 C14.874432563781738 12.145783424377441 14.862624168395996 12.051769256591797 14.97987174987793 11.922844886779785 L14.97987174987793 11.922844886779785"></path></svg>