<svg xmlns="http://www.w3.org/2000/svg" viewBox="0.0 0.0 24.0 24.0" height="200px" width="200px"><path fill="none" stroke="black" stroke-width=".3" stroke-opacity="1.0"  filling="0" d="M11.513455390930176 11.912073135375977 L11.513455390930176 11.912073135375977 C11.546028137207031 11.957045555114746 11.578600883483887 12.002018928527832 11.611173629760742 12.046991348266602 L11.611173629760742 12.046991348266602 C11.635364532470703 12.009018898010254 11.659554481506348 11.97104549407959 11.683745384216309 11.933073043823242 L11.683745384216309 11.933073043823242 C11.663152694702148 12.023239135742188 11.624690055847168 12.109931945800781 11.577027320861816 12.189191818237305 L11.577027320861816 12.189191818237305 C11.567010879516602 12.154173851013184 11.551925659179688 12.119670867919922 11.530091285705566 12.090518951416016 L11.530091285705566 12.090518951416016 C11.495927810668945 12.128091812133789 11.461763381958008 12.165663719177246 11.427599906921387 12.20323657989502 L11.427599906921387 12.20323657989502 C11.39857292175293 12.112709045410156 11.369545936584473 12.02218246459961 11.340518951416016 11.931654930114746 L11.340518951416016 11.931654930114746 C11.352373123168945 11.925500869750977 11.364228248596191 11.91934585571289 11.376082420349121 11.913191795349121 L11.376082420349121 11.913191795349121 C11.410391807556152 11.9617280960083 11.444700241088867 12.010263442993164 11.479009628295898 12.058799743652344 L11.479009628295898 12.058799743652344 C11.486246109008789 12.054736137390137 11.493481636047363 12.050673484802246 11.500718116760254 12.046609878540039 L11.500718116760254 12.046609878540039 C11.49590015411377 12.006891250610352 11.491082191467285 11.96717357635498 11.4862642288208 11.927454948425293 L11.4862642288208 11.927454948425293 C11.495327949523926 11.922327995300293 11.50439167022705 11.917200088500977 11.513455390930176 11.912073135375977 L11.513455390930176 11.912073135375977"></path></svg>