<svg xmlns="http://www.w3.org/2000/svg" viewBox="0.0 0.0 24.0 24.0" height="200px" width="200px"><path fill="none" stroke="black" stroke-width=".3" stroke-opacity="1.0"  filling="0" d="M12.642655372619629 11.839035987854004 L12.642655372619629 11.839035987854004 C12.64914608001709 11.870135307312012 12.655637741088867 11.901235580444336 12.662128448486328 11.932334899902344 L12.662128448486328 11.932334899902344 C12.717041969299316 12.015850067138672 12.833511352539062 12.146105766296387 12.761373519897461 12.215290069580078 L12.761373519897461 12.215290069580078 C12.73134708404541 12.139365196228027 12.693256378173828 12.066823959350586 12.655963897705078 11.99419116973877 L12.655963897705078 11.99419116973877 C12.651427268981934 12.066591262817383 12.646891593933105 12.13899040222168 12.642354965209961 12.211390495300293 L12.642354965209961 12.211390495300293 C12.617173194885254 12.211390495300293 12.591991424560547 12.211390495300293 12.56680965423584 12.211390495300293 L12.56680965423584 12.211390495300293 C12.56680965423584 12.088926315307617 12.56680965423584 11.966463088989258 12.56680965423584 11.843998908996582 L12.56680965423584 11.843998908996582 C12.59209156036377 11.842344284057617 12.6173734664917 11.840690612792969 12.642655372619629 11.839035987854004 L12.642655372619629 11.839035987854004"></path></svg>