<svg xmlns="http://www.w3.org/2000/svg" viewBox="0.0 0.0 24.0 24.0" height="200px" width="200px"><path fill="none" stroke="black" stroke-width=".3" stroke-opacity="1.0"  filling="0" d="M10.89373779296875 11.592655181884766 L10.89373779296875 11.592655181884766 C11.002010345458984 11.604509353637695 11.110281944274902 11.616364479064941 11.218554496765137 11.628218650817871 L11.218554496765137 11.628218650817871 C11.112763404846191 11.789518356323242 11.006973266601562 11.95081901550293 10.901182174682617 12.1121187210083 L10.901182174682617 12.1121187210083 C11.213234901428223 11.960618019104004 11.331308364868164 11.731131553649902 11.560962677001953 11.964354515075684 L11.560962677001953 11.964354515075684 C11.522462844848633 11.968000411987305 11.483963012695312 11.97164535522461 11.445463180541992 11.97529125213623 L11.445463180541992 11.97529125213623 C11.444695472717285 11.93533992767334 11.417064666748047 11.89983081817627 11.394818305969238 11.866637229919434 L11.394818305969238 11.866637229919434 C11.29937744140625 12.035353660583496 11.371344566345215 12.13940715789795 11.559927940368652 12.079774856567383 L11.559927940368652 12.079774856567383 C11.489337921142578 12.15664005279541 11.327157020568848 12.126709938049316 11.247518539428711 12.059264183044434 L11.247518539428711 12.059264183044434 C11.143494606018066 12.309823036193848 11.02739143371582 12.215806007385254 10.714391708374023 12.21780014038086 L10.714391708374023 12.21780014038086 C10.826273918151855 12.039999961853027 10.938155174255371 11.862200736999512 11.050037384033203 11.68440055847168 L11.050037384033203 11.68440055847168 C10.965446472167969 11.71019172668457 10.880855560302734 11.735981941223145 10.7962646484375 11.761773109436035 L10.7962646484375 11.761773109436035 C10.828755378723145 11.705400466918945 10.861247062683105 11.649027824401855 10.89373779296875 11.592655181884766 L10.89373779296875 11.592655181884766"></path></svg>