<svg xmlns="http://www.w3.org/2000/svg" viewBox="0.0 0.0 24.0 24.0" height="200px" width="200px"><path fill="none" stroke="black" stroke-width=".3" stroke-opacity="1.0"  filling="0" d="M11.819945335388184 11.328001022338867 L11.819945335388184 11.328001022338867 C13.18307113647461 11.587594032287598 12.27898120880127 11.831148147583008 11.960018157958984 12.401263236999512 L11.960018157958984 12.401263236999512 C12.160818099975586 12.401263236999512 12.361618041992188 12.401263236999512 12.562417984008789 12.401263236999512 L12.562417984008789 12.401263236999512 C12.562417984008789 12.496745109558105 12.562417984008789 12.5922269821167 12.562417984008789 12.687708854675293 L12.562417984008789 12.687708854675293 C12.472603797912598 12.681731224060059 11.578343391418457 12.695018768310547 11.546590805053711 12.609326362609863 C11.39096736907959 12.189340591430664 12.236143112182617 12.157530784606934 12.24256420135498 11.814735412597656 C12.252497673034668 11.284448623657227 11.87408447265625 11.617936134338379 11.821390151977539 11.86189079284668 L11.821390151977539 11.86189079284668 C11.733572006225586 11.850736618041992 11.645753860473633 11.839582443237305 11.55793571472168 11.828428268432617 L11.55793571472168 11.828428268432617 C11.645272254943848 11.661619186401367 11.732608795166016 11.494810104370117 11.819945335388184 11.328001022338867 L11.819945335388184 11.328001022338867"></path></svg>