<svg xmlns="http://www.w3.org/2000/svg" viewBox="0.0 0.0 24.0 24.0" height="200px" width="200px"><path fill="none" stroke="black" stroke-width=".3" stroke-opacity="1.0"  filling="0" d="M14.018508911132812 11.970762252807617 L14.018508911132812 11.970762252807617 C14.063854217529297 11.989581108093262 14.109200477600098 12.00839900970459 14.154545783996582 12.027217864990234 L14.154545783996582 12.027217864990234 C14.154545783996582 12.045417785644531 14.154545783996582 12.063617706298828 14.154545783996582 12.081817626953125 L14.154545783996582 12.081817626953125 C14.11431884765625 12.055863380432129 14.074090957641602 12.029908180236816 14.03386402130127 12.00395393371582 L14.03386402130127 12.00395393371582 C14.018046379089355 12.046344757080078 14.002227783203125 12.088736534118652 13.986410140991211 12.13112735748291 L13.986410140991211 12.13112735748291 C14.037409782409668 12.148663520812988 14.088409423828125 12.16619873046875 14.139409065246582 12.183734893798828 L14.139409065246582 12.183734893798828 C14.10832691192627 12.20508098602295 14.077245712280273 12.226426124572754 14.046163558959961 12.247772216796875 L14.046163558959961 12.247772216796875 C14.011354446411133 12.223408699035645 13.976544380187988 12.199044227600098 13.94173526763916 12.174680709838867 L13.94173526763916 12.174680709838867 C13.967326164245605 12.106707572937012 13.992918014526367 12.038735389709473 14.018508911132812 11.970762252807617 L14.018508911132812 11.970762252807617"></path></svg>