<svg xmlns="http://www.w3.org/2000/svg" viewBox="0.0 0.0 24.0 24.0" height="200px" width="200px"><path fill="none" stroke="black" stroke-width=".3" stroke-opacity="1.0"  filling="0" d="M12.193690299987793 11.919190406799316 L12.193690299987793 11.919190406799316 C12.253960609436035 12.031365394592285 12.2413969039917 12.199207305908203 12.16360855102539 12.300026893615723 L12.16360855102539 12.300026893615723 C12.14543628692627 12.300017356872559 12.127263069152832 12.300008773803711 12.109090805053711 12.299999237060547 L12.109090805053711 12.299999237060547 C12.144026756286621 12.257681846618652 12.178963661193848 12.215363502502441 12.213899612426758 12.173046112060547 L12.213899612426758 12.173046112060547 C12.159454345703125 12.146673202514648 12.105008125305176 12.12030029296875 12.050562858581543 12.093927383422852 L12.050562858581543 12.093927383422852 C12.069726943969727 12.054372787475586 12.088890075683594 12.01481819152832 12.108054161071777 11.975263595581055 L12.108054161071777 11.975263595581055 C12.131426811218262 12.024263381958008 12.154799461364746 12.073264122009277 12.17817211151123 12.12226390838623 L12.17817211151123 12.12226390838623 C12.183344841003418 12.054573059082031 12.188517570495605 11.986881256103516 12.193690299987793 11.919190406799316 L12.193690299987793 11.919190406799316"></path></svg>