<svg xmlns="http://www.w3.org/2000/svg" viewBox="0.0 0.0 24.0 24.0" height="200px" width="200px"><path fill="none" stroke="black" stroke-width=".3" stroke-opacity="1.0"  filling="0" d="M13.828253746032715 11.85163688659668 L13.828253746032715 11.85163688659668 C13.828253746032715 11.99245548248291 13.828253746032715 12.133273124694824 13.828253746032715 12.274091720581055 L13.828253746032715 12.274091720581055 C13.81884479522705 12.282736778259277 13.809435844421387 12.2913818359375 13.800026893615723 12.300026893615723 L13.800026893615723 12.300026893615723 C13.763654708862305 12.300017356872559 13.72728157043457 12.300008773803711 13.690909385681152 12.299999237060547 L13.690909385681152 12.299999237060547 C13.528691291809082 12.193938255310059 13.58199405670166 12.049971580505371 13.744363784790039 11.983936309814453 L13.744363784790039 11.983936309814453 C13.73597240447998 11.957891464233398 13.727581977844238 11.931845664978027 13.71919059753418 11.905800819396973 L13.71919059753418 11.905800819396973 C13.755544662475586 11.88774585723877 13.791899681091309 11.869691848754883 13.828253746032715 11.85163688659668 L13.828253746032715 11.85163688659668"></path>
<path fill="none" stroke="black" stroke-width=".3" stroke-opacity="1.0"  filling="0" d="M13.683899879455566 12.047890663146973 L13.683899879455566 12.047890663146973 C13.70750904083252 12.09986400604248 13.731117248535156 12.151836395263672 13.75472640991211 12.20380973815918 L13.75472640991211 12.20380973815918 C13.731117248535156 12.151836395263672 13.70750904083252 12.09986400604248 13.683899879455566 12.047890663146973 L13.683899879455566 12.047890663146973"></path></svg>