<svg xmlns="http://www.w3.org/2000/svg" viewBox="0.0 0.0 24.0 24.0" height="200px" width="200px"><path fill="none" stroke="black" stroke-width=".3" stroke-opacity="1.0"  filling="0" d="M13.278464317321777 11.948836326599121 L13.278464317321777 11.948836326599121 C13.325845718383789 11.978536605834961 13.373228073120117 12.008235931396484 13.420609474182129 12.037936210632324 L13.420609474182129 12.037936210632324 C13.379227638244629 12.013518333435059 13.337845802307129 11.989099502563477 13.296463966369629 11.964681625366211 L13.296463966369629 11.964681625366211 C13.287882804870605 11.970718383789062 13.279300689697266 11.976754188537598 13.270719528198242 11.98279094696045 L13.270719528198242 11.98279094696045 C13.263773918151855 12.030600547790527 13.256827354431152 12.078409194946289 13.249881744384766 12.126218795776367 L13.249881744384766 12.126218795776367 C13.301091194152832 12.133218765258789 13.352299690246582 12.140217781066895 13.403509140014648 12.147217750549316 L13.403509140014648 12.147217750549316 C13.381117820739746 12.170863151550293 13.35872745513916 12.19450855255127 13.336336135864258 12.218153953552246 L13.336336135864258 12.218153953552246 C13.29089069366455 12.21816349029541 13.245445251464844 12.218172073364258 13.199999809265137 12.218181610107422 L13.199999809265137 12.218181610107422 C13.181105613708496 12.126596450805664 13.215396881103516 12.017882347106934 13.278464317321777 11.948836326599121 L13.278464317321777 11.948836326599121"></path></svg>