<svg xmlns="http://www.w3.org/2000/svg" viewBox="0.0 0.0 24.0 24.0" height="200px" width="200px"><path fill="none" stroke="black" stroke-width=".3" stroke-opacity="1.0"  filling="0" d="M11.271108627319336 11.98939037322998 L11.271108627319336 11.98939037322998 C11.341353416442871 11.990336418151855 11.411599159240723 11.991281509399414 11.481843948364258 11.992227554321289 L11.481843948364258 11.992227554321289 C11.481843948364258 12.067545890808105 11.481843948364258 12.142863273620605 11.481843948364258 12.218181610107422 L11.481843948364258 12.218181610107422 C11.463662147521973 12.218181610107422 11.445481300354004 12.218181610107422 11.427299499511719 12.218181610107422 L11.427299499511719 12.218181610107422 C11.400026321411133 12.142790794372559 11.372754096984863 12.067399978637695 11.345480918884277 11.992009162902832 L11.345480918884277 11.992009162902832 C11.345480918884277 12.067399978637695 11.345480918884277 12.142790794372559 11.345480918884277 12.218181610107422 L11.345480918884277 12.218181610107422 C11.318199157714844 12.218181610107422 11.290918350219727 12.218181610107422 11.263636589050293 12.218181610107422 L11.263636589050293 12.218181610107422 C11.264147758483887 12.141879081726074 11.253331184387207 12.063594818115234 11.271108627319336 11.98939037322998 L11.271108627319336 11.98939037322998"></path></svg>