<svg xmlns="http://www.w3.org/2000/svg" viewBox="0.0 0.0 24.0 24.0" height="200px" width="200px"><path fill="none" stroke="black" stroke-width=".3" stroke-opacity="1.0"  filling="0" d="M10.983490943908691 11.892708778381348 L10.983490943908691 11.892708778381348 C10.993182182312012 11.895444869995117 11.002872467041016 11.898181915283203 11.012563705444336 11.900918006896973 L11.012563705444336 11.900918006896973 C11.014500617980957 11.921990394592285 11.016436576843262 11.943063735961914 11.018373489379883 11.964136123657227 L11.018373489379883 11.964136123657227 C10.986418724060059 11.947436332702637 10.954463958740234 11.93073558807373 10.92250919342041 11.91403579711914 L10.92250919342041 11.91403579711914 C10.932456970214844 11.99763011932373 11.149435043334961 12.315606117248535 10.853236198425293 12.067553520202637 L10.853236198425293 12.067553520202637 C10.887063026428223 12.087162971496582 10.920890808105469 12.106772422790527 10.954717636108398 12.126381874084473 L10.954717636108398 12.126381874084473 C10.958399772644043 12.121254920959473 10.962080955505371 12.116127014160156 10.965763092041016 12.111000061035156 L10.965763092041016 12.111000061035156 C10.922544479370117 12.056018829345703 10.88990592956543 11.992798805236816 10.861854553222656 11.92873764038086 L10.861854553222656 11.92873764038086 C10.902400016784668 11.916728019714355 10.94294548034668 11.904718399047852 10.983490943908691 11.892708778381348 L10.983490943908691 11.892708778381348"></path></svg>