<svg xmlns="http://www.w3.org/2000/svg" viewBox="0.0 0.0 24.0 24.0" height="200px" width="200px"><path fill="none" stroke="black" stroke-width=".3" stroke-opacity="1.0"  filling="0" d="M12.451690673828125 11.950746536254883 L12.451690673828125 11.950746536254883 C12.45422649383545 11.960037231445312 12.45676326751709 11.969327926635742 12.459299087524414 11.978618621826172 L12.459299087524414 11.978618621826172 C12.426326751708984 11.978618621826172 12.393353462219238 11.978618621826172 12.360381126403809 11.978618621826172 L12.360381126403809 11.978618621826172 C12.420438766479492 12.037013053894043 12.467742919921875 12.140488624572754 12.436363220214844 12.218154907226562 L12.436363220214844 12.218154907226562 C12.409090995788574 12.21816349029541 12.381817817687988 12.218173027038574 12.354545593261719 12.218181610107422 L12.354545593261719 12.218181610107422 C12.344663619995117 12.196490287780762 12.334781646728516 12.174799919128418 12.324899673461914 12.153108596801758 L12.324899673461914 12.153108596801758 C12.364127159118652 12.156599998474121 12.403353691101074 12.160090446472168 12.442581176757812 12.163581848144531 L12.442581176757812 12.163581848144531 C12.398717880249023 12.11602783203125 12.354853630065918 12.068472862243652 12.310990333557129 12.020918846130371 L12.310990333557129 12.020918846130371 C12.357890129089355 11.997528076171875 12.404790878295898 11.974137306213379 12.451690673828125 11.950746536254883 L12.451690673828125 11.950746536254883"></path></svg>