<svg xmlns="http://www.w3.org/2000/svg" viewBox="0.0 0.0 24.0 24.0" height="200px" width="200px"><path fill="none" stroke="black" stroke-width=".3" stroke-opacity="1.0"  filling="0" d="M12.027273178100586 11.809090614318848 L12.027273178100586 11.809090614318848 C12.054545402526855 11.809090614318848 12.081818580627441 11.809091567993164 12.109090805053711 11.809091567993164 L12.109090805053711 11.809091567993164 C12.11011791229248 11.8310546875 12.111145973205566 11.853018760681152 12.112173080444336 11.874981880187988 L12.112173080444336 11.874981880187988 C12.161409378051758 11.890408515930176 12.21064567565918 11.90583610534668 12.259881973266602 11.921262741088867 L12.259881973266602 11.921262741088867 C12.229341506958008 12.023987770080566 12.134415626525879 12.140839576721191 12.027273178100586 12.143208503723145 L12.027273178100586 12.143208503723145 C12.027273178100586 12.031835556030273 12.027273178100586 11.920463562011719 12.027273178100586 11.809090614318848 L12.027273178100586 11.809090614318848"></path>
<path fill="none" stroke="black" stroke-width=".3" stroke-opacity="1.0"  filling="0" d="M12.084110260009766 11.967954635620117 L12.084110260009766 11.967954635620117 C12.13797378540039 11.9703369140625 12.1918363571167 11.972718238830566 12.245699882507324 11.97510051727295 L12.245699882507324 11.97510051727295 C12.213263511657715 12.030472755432129 12.180827140808105 12.085845947265625 12.148390769958496 12.141218185424805 L12.148390769958496 12.141218185424805 C12.139827728271484 12.138999938964844 12.131263732910156 12.1367826461792 12.122700691223145 12.134564399719238 L12.122700691223145 12.134564399719238 C12.109837532043457 12.079028129577637 12.096973419189453 12.023490905761719 12.084110260009766 11.967954635620117 L12.084110260009766 11.967954635620117"></path></svg>