<svg xmlns="http://www.w3.org/2000/svg" viewBox="0.0 0.0 24.0 24.0" height="200px" width="200px"><path fill="none" stroke="black" stroke-width=".3" stroke-opacity="1.0"  filling="0" d="M13.10683536529541 11.854390144348145 L13.10683536529541 11.854390144348145 C13.149617195129395 11.892708778381348 13.192399024963379 11.931026458740234 13.235180854797363 11.969345092773438 L13.235180854797363 11.969345092773438 C13.227763175964355 11.978471755981445 13.220344543457031 11.98759937286377 13.212926864624023 11.996726036071777 L13.212926864624023 11.996726036071777 C13.190435409545898 11.980798721313477 13.16794490814209 11.964871406555176 13.145453453063965 11.948944091796875 L13.145453453063965 11.948944091796875 C13.102362632751465 11.984339714050293 13.157434463500977 12.060372352600098 13.172725677490234 12.113998413085938 L13.172725677490234 12.113998413085938 C13.15454387664795 12.175989151000977 13.13636302947998 12.237980842590332 13.118181228637695 12.299971580505371 L13.118181228637695 12.299971580505371 C13.09999942779541 12.299981117248535 13.081817626953125 12.299989700317383 13.06363582611084 12.299999237060547 L13.06363582611084 12.299999237060547 C13.03680419921875 12.139874458312988 13.013278007507324 11.99459457397461 13.10683536529541 11.854390144348145 L13.10683536529541 11.854390144348145"></path></svg>