<svg xmlns="http://www.w3.org/2000/svg" viewBox="0.0 0.0 24.0 24.0" height="200px" width="200px"><path fill="none" stroke="black" stroke-width=".3" stroke-opacity="1.0"  filling="0" d="M10.947681427001953 11.837181091308594 L10.947681427001953 11.837181091308594 C10.956135749816895 11.878081321716309 10.964590072631836 11.918980598449707 10.973044395446777 11.959880828857422 L10.973044395446777 11.959880828857422 C11.003098487854004 11.94920825958252 11.033153533935547 11.9385347366333 11.063207626342773 11.927862167358398 L11.063207626342773 11.927862167358398 C11.055371284484863 12.017080307006836 11.047534942626953 12.106298446655273 11.039698600769043 12.195516586303711 L11.039698600769043 12.195516586303711 C11.061380386352539 12.15445327758789 11.083063125610352 12.113389015197754 11.104744911193848 12.072325706481934 L11.104744911193848 12.072325706481934 C11.074808120727539 12.046716690063477 11.044872283935547 12.02110767364502 11.014935493469238 11.995498657226562 L11.014935493469238 11.995498657226562 C11.024636268615723 12.06086254119873 11.03433609008789 12.126226425170898 11.044036865234375 12.191590309143066 L11.044036865234375 12.191590309143066 C11.001700401306152 12.195180892944336 10.959362983703613 12.198772430419922 10.91702651977539 12.202363014221191 L10.91702651977539 12.202363014221191 C10.91702651977539 12.082762718200684 10.91702651977539 11.963163375854492 10.91702651977539 11.843563079833984 L10.91702651977539 11.843563079833984 C10.927245140075684 11.841435432434082 10.93746280670166 11.839308738708496 10.947681427001953 11.837181091308594 L10.947681427001953 11.837181091308594"></path></svg>