<svg xmlns="http://www.w3.org/2000/svg" viewBox="0.0 0.0 24.0 24.0" height="200px" width="200px"><path fill="none" stroke="black" stroke-width=".3" stroke-opacity="1.0"  filling="0" d="M14.114727020263672 12.050836563110352 L14.114727020263672 12.050836563110352 C14.120981216430664 12.058199882507324 14.127235412597656 12.065564155578613 14.133489608764648 12.072927474975586 L14.133489608764648 12.072927474975586 C14.114871978759766 12.1129732131958 14.096253395080566 12.1530179977417 14.077635765075684 12.193063735961914 L14.077635765075684 12.193063735961914 C14.060662269592285 12.156018257141113 14.043689727783203 12.118972778320312 14.026716232299805 12.081927299499512 L14.026716232299805 12.081927299499512 C14.020179748535156 12.082572937011719 14.013644218444824 12.083218574523926 14.007107734680176 12.083864212036133 L14.007107734680176 12.083864212036133 C14.001708030700684 12.13522720336914 13.996308326721191 12.186591148376465 13.9909086227417 12.237954139709473 L13.9909086227417 12.237954139709473 C14.034581184387207 12.242772102355957 14.078254699707031 12.247591018676758 14.121927261352539 12.252408981323242 L14.121927261352539 12.252408981323242 C13.8479642868042 12.303936004638672 13.905424118041992 12.128113746643066 14.114727020263672 12.050836563110352 L14.114727020263672 12.050836563110352"></path></svg>