<svg xmlns="http://www.w3.org/2000/svg" viewBox="0.0 0.0 24.0 24.0" height="200px" width="200px"><path fill="none" stroke="black" stroke-width=".3" stroke-opacity="1.0"  filling="0" d="M13.139999389648438 11.975236892700195 L13.139999389648438 11.975236892700195 C13.150908470153809 12.065309524536133 13.16181755065918 12.15538215637207 13.17272663116455 12.245454788208008 L13.17272663116455 12.245454788208008 C13.145454406738281 12.245454788208008 13.118181228637695 12.245454788208008 13.090909004211426 12.245454788208008 L13.090909004211426 12.245454788208008 C13.077363967895508 12.173782348632812 13.063817977905273 12.1021089553833 13.050272941589355 12.030436515808105 L13.050272941589355 12.030436515808105 C13.036545753479004 12.1021089553833 13.022817611694336 12.173782348632812 13.009090423583984 12.245454788208008 L13.009090423583984 12.245454788208008 C12.981818199157715 12.245454788208008 12.954545021057129 12.245454788208008 12.92727279663086 12.245454788208008 L12.92727279663086 12.245454788208008 C12.92727279663086 12.162736892700195 12.92727279663086 12.080018043518066 12.92727279663086 11.997300148010254 L12.92727279663086 11.997300148010254 C12.998181343078613 11.989945411682129 13.069090843200684 11.98259162902832 13.139999389648438 11.975236892700195 L13.139999389648438 11.975236892700195"></path></svg>