<svg xmlns="http://www.w3.org/2000/svg" viewBox="0.0 0.0 24.0 24.0" height="200px" width="200px"><path fill="none" stroke="black" stroke-width=".3" stroke-opacity="1.0"  filling="0" d="M12.052555084228516 12.00196361541748 L12.052555084228516 12.00196361541748 C12.113018035888672 12.010335922241211 12.173481941223145 12.018709182739258 12.2339448928833 12.027081489562988 L12.2339448928833 12.027081489562988 C12.219590187072754 12.099872589111328 12.205236434936523 12.172662734985352 12.190881729125977 12.245453834533691 L12.190881729125977 12.245453834533691 C12.136345863342285 12.245453834533691 12.081809043884277 12.245454788208008 12.027273178100586 12.245454788208008 L12.027273178100586 12.245454788208008 C12.035700798034668 12.164291381835938 12.044127464294434 12.08312702178955 12.052555084228516 12.00196361541748 L12.052555084228516 12.00196361541748"></path>
<path fill="none" stroke="black" stroke-width=".3" stroke-opacity="1.0"  filling="0" d="M12.082254409790039 12.023017883300781 L12.082254409790039 12.023017883300781 C12.10855484008789 12.076763153076172 12.134854316711426 12.130509376525879 12.161154747009277 12.18425464630127 L12.161154747009277 12.18425464630127 C12.121527671813965 12.18607234954834 12.081899642944336 12.187891006469727 12.042272567749023 12.189708709716797 L12.042272567749023 12.189708709716797 C12.0556001663208 12.13414478302002 12.068926811218262 12.078581809997559 12.082254409790039 12.023017883300781 L12.082254409790039 12.023017883300781"></path></svg>