<svg xmlns="http://www.w3.org/2000/svg" viewBox="0.0 0.0 24.0 24.0" height="200px" width="200px"><path fill="none" stroke="black" stroke-width=".3" stroke-opacity="1.0"  filling="0" d="M12.103554725646973 12.045763969421387 L12.103554725646973 12.045763969421387 C12.178545951843262 12.04725456237793 12.253536224365234 12.048746109008789 12.328527450561523 12.050236701965332 L12.328527450561523 12.050236701965332 C12.28670883178711 12.055927276611328 12.244890213012695 12.06161880493164 12.203071594238281 12.067309379577637 L12.203071594238281 12.067309379577637 C12.18603515625 12.0961275100708 12.168999671936035 12.124946594238281 12.151963233947754 12.153764724731445 L12.151963233947754 12.153764724731445 C12.204545021057129 12.163610458374023 12.257126808166504 12.173455238342285 12.309708595275879 12.183300971984863 L12.309708595275879 12.183300971984863 C12.297371864318848 12.204010009765625 12.285036087036133 12.224719047546387 12.272699356079102 12.245428085327148 L12.272699356079102 12.245428085327148 C12.227253913879395 12.245436668395996 12.181809425354004 12.24544620513916 12.136363983154297 12.245454788208008 L12.136363983154297 12.245454788208008 C12.12542724609375 12.1788911819458 12.11449146270752 12.112327575683594 12.103554725646973 12.045763969421387 L12.103554725646973 12.045763969421387"></path></svg>