<svg xmlns="http://www.w3.org/2000/svg" viewBox="0.0 0.0 24.0 24.0" height="200px" width="200px"><path fill="none" stroke="black" stroke-width=".3" stroke-opacity="1.0"  filling="0" d="M12.038508415222168 11.928601264953613 L12.038508415222168 11.928601264953613 C12.105899810791016 11.934219360351562 12.173290252685547 11.939837455749512 12.240681648254395 11.945455551147461 L12.240681648254395 11.945455551147461 C12.240681648254395 12.025128364562988 12.240681648254395 12.104801177978516 12.240681648254395 12.184473991394043 L12.240681648254395 12.184473991394043 C12.215953826904297 12.184473991394043 12.191226959228516 12.184473991394043 12.166499137878418 12.184473991394043 L12.166499137878418 12.184473991394043 C12.15609073638916 12.110618591308594 12.145681381225586 12.036764144897461 12.135272979736328 11.962908744812012 L12.135272979736328 11.962908744812012 C12.124899864196777 12.030091285705566 12.114527702331543 12.097272872924805 12.104154586791992 12.16445541381836 L12.104154586791992 12.16445541381836 C12.07620906829834 12.174010276794434 12.048263549804688 12.183564186096191 12.020318031311035 12.193119049072266 L12.020318031311035 12.193119049072266 C11.971382141113281 12.106027603149414 11.999232292175293 12.011584281921387 12.038508415222168 11.928601264953613 L12.038508415222168 11.928601264953613"></path></svg>