<svg xmlns="http://www.w3.org/2000/svg" viewBox="0.0 0.0 24.0 24.0" height="200px" width="200px"><path fill="none" stroke="black" stroke-width=".3" stroke-opacity="1.0"  filling="0" d="M13.838836669921875 11.972726821899414 L13.838836669921875 11.972726821899414 C13.880427360534668 11.972726821899414 13.922019004821777 11.972726821899414 13.96360969543457 11.972726821899414 L13.96360969543457 11.972726821899414 C13.96360969543457 12.009090423583984 13.96360969543457 12.045454025268555 13.96360969543457 12.081817626953125 L13.96360969543457 12.081817626953125 C13.933427810668945 12.056635856628418 13.90324592590332 12.031455039978027 13.873064041137695 12.00627326965332 L13.873064041137695 12.00627326965332 C13.867237091064453 12.056509017944336 13.861409187316895 12.106745719909668 13.855582237243652 12.156981468200684 L13.855582237243652 12.156981468200684 C13.89159107208252 12.159191131591797 13.927600860595703 12.161399841308594 13.96360969543457 12.163609504699707 L13.96360969543457 12.163609504699707 C13.963618278503418 12.18179988861084 13.963627815246582 12.199991226196289 13.96363639831543 12.218181610107422 L13.96363639831543 12.218181610107422 C13.93468189239502 12.22614574432373 13.90572738647461 12.234108924865723 13.8767728805542 12.242073059082031 L13.8767728805542 12.242073059082031 C13.864127159118652 12.152291297912598 13.851482391357422 12.062508583068848 13.838836669921875 11.972726821899414 L13.838836669921875 11.972726821899414"></path></svg>