<svg xmlns="http://www.w3.org/2000/svg" viewBox="0.0 0.0 24.0 24.0" height="200px" width="200px"><path fill="none" stroke="black" stroke-width=".3" stroke-opacity="1.0"  filling="0" d="M12.418991088867188 11.969045639038086 L12.418991088867188 11.969045639038086 C12.432745933532715 11.997236251831055 12.446499824523926 12.02542781829834 12.460254669189453 12.053618431091309 L12.460254669189453 12.053618431091309 C12.42656421661377 12.050318717956543 12.39287281036377 12.047018051147461 12.359182357788086 12.043718338012695 L12.359182357788086 12.043718338012695 C12.394000053405762 12.110963821411133 12.428818702697754 12.17820930480957 12.46363639831543 12.245454788208008 L12.46363639831543 12.245454788208008 C12.409090995788574 12.245454788208008 12.354544639587402 12.245454788208008 12.299999237060547 12.245454788208008 L12.299999237060547 12.245454788208008 C12.29377269744873 12.227190971374512 12.287545204162598 12.208927154541016 12.281318664550781 12.19066333770752 L12.281318664550781 12.19066333770752 C12.317609786987305 12.200690269470215 12.353899955749512 12.210718154907227 12.390191078186035 12.220745086669922 L12.390191078186035 12.220745086669922 C12.345427513122559 12.161626815795898 12.300662994384766 12.102509498596191 12.255899429321289 12.043391227722168 L12.255899429321289 12.043391227722168 C12.310263633728027 12.018609046936035 12.36462688446045 11.993827819824219 12.418991088867188 11.969045639038086 L12.418991088867188 11.969045639038086"></path></svg>