<svg xmlns="http://www.w3.org/2000/svg" viewBox="0.0 0.0 24.0 24.0" height="200px" width="200px"><path fill="none" stroke="black" stroke-width=".3" stroke-opacity="1.0"  filling="0" d="M13.53040885925293 11.989991188049316 L13.53040885925293 11.989991188049316 C13.508381843566895 12.033555030822754 13.48635482788086 12.077117919921875 13.464327812194824 12.120681762695312 L13.464327812194824 12.120681762695312 C13.44326400756836 12.078036308288574 13.422200202941895 12.035390853881836 13.40113639831543 11.992745399475098 L13.40113639831543 11.992745399475098 C13.39398193359375 12.045272827148438 13.38682746887207 12.097800254821777 13.37967300415039 12.150327682495117 L13.37967300415039 12.150327682495117 C13.428572654724121 12.170391082763672 13.477473258972168 12.190455436706543 13.526372909545898 12.210518836975098 L13.526372909545898 12.210518836975098 C13.52417278289795 12.221036911010742 13.521973609924316 12.231554985046387 13.519773483276367 12.242073059082031 L13.519773483276367 12.242073059082031 C13.45406436920166 12.232555389404297 13.388355255126953 12.223036766052246 13.322646141052246 12.213519096374512 L13.322646141052246 12.213519096374512 C13.318819046020508 12.140546798706055 13.314990997314453 12.067573547363281 13.311163902282715 11.994601249694824 L13.311163902282715 11.994601249694824 C13.384245872497559 11.993064880371094 13.457326889038086 11.991527557373047 13.53040885925293 11.989991188049316 L13.53040885925293 11.989991188049316"></path></svg>