<svg xmlns="http://www.w3.org/2000/svg" viewBox="0.0 0.0 24.0 24.0" height="200px" width="200px"><path fill="none" stroke="black" stroke-width=".3" stroke-opacity="1.0"  filling="0" d="M10.363636016845703 11.590909957885742 L10.363636016845703 11.590909957885742 C10.319235801696777 11.608709335327148 10.274836540222168 11.626509666442871 10.230436325073242 11.644309043884277 L10.230436325073242 11.644309043884277 C10.242172241210938 11.67029094696045 10.25390911102295 11.696272850036621 10.265645027160645 11.722254753112793 L10.265645027160645 11.722254753112793 C10.295572280883789 11.717127799987793 10.32550048828125 11.711999893188477 10.355427742004395 11.706872940063477 L10.355427742004395 11.706872940063477 C10.35855484008789 11.718255043029785 10.361681938171387 11.729636192321777 10.364809036254883 11.741018295288086 L10.364809036254883 11.741018295288086 C10.30095386505127 11.760700225830078 10.237099647521973 11.78038215637207 10.17324447631836 11.800064086914062 L10.17324447631836 11.800064086914062 C10.163981437683105 11.730355262756348 10.154717445373535 11.660646438598633 10.145454406738281 11.590937614440918 L10.145454406738281 11.590937614440918 C10.218181610107422 11.590928077697754 10.290908813476562 11.590919494628906 10.363636016845703 11.590909957885742 L10.363636016845703 11.590909957885742"></path></svg>