<svg xmlns="http://www.w3.org/2000/svg" viewBox="0.0 0.0 24.0 24.0" height="200px" width="200px"><path fill="none" stroke="black" stroke-width=".3" stroke-opacity="1.0"  filling="0" d="M10.523045539855957 11.86652660369873 L10.523045539855957 11.86652660369873 C10.538690567016602 11.991026878356934 10.554336547851562 12.115527153015137 10.569981575012207 12.24002742767334 L10.569981575012207 12.24002742767334 C10.513690948486328 12.24002742767334 10.457399368286133 12.24002742767334 10.401108741760254 12.24002742767334 L10.401108741760254 12.24002742767334 C10.407926559448242 12.173809051513672 10.414745330810547 12.10759162902832 10.421563148498535 12.041373252868652 L10.421563148498535 12.041373252868652 C10.4146089553833 12.039054870605469 10.40765380859375 12.036736488342285 10.400699615478516 12.034418106079102 L10.400699615478516 12.034418106079102 C10.363908767700195 12.102426528930664 10.327117919921875 12.170435905456543 10.290327072143555 12.238444328308105 L10.290327072143555 12.238444328308105 C10.248754501342773 12.175262451171875 10.207181930541992 12.112081527709961 10.165609359741211 12.04889965057373 L10.165609359741211 12.04889965057373 C10.159154891967773 12.049836158752441 10.15269947052002 12.050771713256836 10.146245002746582 12.051708221435547 L10.146245002746582 12.051708221435547 C10.150126457214355 12.11256217956543 10.154008865356445 12.173417091369629 10.157890319824219 12.234271049499512 L10.157890319824219 12.234271049499512 C10.131808280944824 12.237016677856445 10.105727195739746 12.239763259887695 10.079645156860352 12.242508888244629 L10.079645156860352 12.242508888244629 C10.079645156860352 12.118163108825684 10.079645156860352 11.993817329406738 10.079645156860352 11.869471549987793 L10.079645156860352 11.869471549987793 C10.157963752746582 11.941398620605469 10.236281394958496 12.013325691223145 10.314599990844727 12.08525276184082 L10.314599990844727 12.08525276184082 C10.36170768737793 11.996233940124512 10.437190055847168 11.91917896270752 10.523045539855957 11.86652660369873 L10.523045539855957 11.86652660369873"></path></svg>