<svg xmlns="http://www.w3.org/2000/svg" viewBox="0.0 0.0 24.0 24.0" height="200px" width="200px"><path fill="none" stroke="black" stroke-width=".3" stroke-opacity="1.0"  filling="0" d="M12.200837135314941 11.918427467346191 L12.200837135314941 11.918427467346191 C12.280509948730469 11.931755065917969 12.36018180847168 11.94508171081543 12.439854621887207 11.958409309387207 L12.439854621887207 11.958409309387207 C12.425299644470215 12.036473274230957 12.410745620727539 12.11453628540039 12.396190643310547 12.19260025024414 L12.396190643310547 12.19260025024414 C12.382308959960938 12.187064170837402 12.368427276611328 12.181527137756348 12.354545593261719 12.17599105834961 L12.354545593261719 12.17599105834961 C12.354323387145996 12.10921859741211 12.351588249206543 12.042354583740234 12.345163345336914 11.97589111328125 L12.345163345336914 11.97589111328125 C12.32851791381836 12.044981956481934 12.311872482299805 12.114072799682617 12.29522705078125 12.1831636428833 L12.29522705078125 12.1831636428833 C12.263763427734375 12.18504524230957 12.232300758361816 12.186927795410156 12.200837135314941 12.188809394836426 L12.200837135314941 12.188809394836426 C12.200837135314941 12.098682403564453 12.200837135314941 12.008554458618164 12.200837135314941 11.918427467346191 L12.200837135314941 11.918427467346191"></path></svg>