<svg xmlns="http://www.w3.org/2000/svg" viewBox="0.0 0.0 24.0 24.0" height="200px" width="200px"><path fill="none" stroke="black" stroke-width=".3" stroke-opacity="1.0"  filling="0" d="M12.494126319885254 11.9309720993042 L12.494126319885254 11.9309720993042 C12.557917594909668 11.9309720993042 12.621708869934082 11.9309720993042 12.685500144958496 11.9309720993042 L12.685500144958496 11.9309720993042 C12.646763801574707 12.001999855041504 12.608028411865234 12.073026657104492 12.569292068481445 12.144054412841797 L12.569292068481445 12.144054412841797 C12.613301277160645 12.144054412841797 12.657309532165527 12.144054412841797 12.701318740844727 12.144054412841797 L12.701318740844727 12.144054412841797 C12.657726287841797 12.2083740234375 12.551308631896973 12.188182830810547 12.473945617675781 12.19540786743164 L12.473945617675781 12.19540786743164 C12.510018348693848 12.118817329406738 12.546091079711914 12.042226791381836 12.58216381072998 11.965636253356934 L12.58216381072998 11.965636253356934 C12.552718162536621 11.962672233581543 12.523272514343262 11.959709167480469 12.493826866149902 11.956745147705078 L12.493826866149902 11.956745147705078 C12.493927001953125 11.94815444946289 12.494026184082031 11.939562797546387 12.494126319885254 11.9309720993042 L12.494126319885254 11.9309720993042"></path></svg>