<svg xmlns="http://www.w3.org/2000/svg" viewBox="0.0 0.0 24.0 24.0" height="200px" width="200px"><path fill="none" stroke="black" stroke-width=".3" stroke-opacity="1.0"  filling="0" d="M11.437281608581543 11.940082550048828 L11.437281608581543 11.940082550048828 C11.425018310546875 11.94437313079834 11.41275405883789 11.948663711547852 11.400490760803223 11.952954292297363 L11.400490760803223 11.952954292297363 C11.408126831054688 12.002663612365723 11.415763854980469 12.052371978759766 11.423399925231934 12.102081298828125 L11.423399925231934 12.102081298828125 C11.470318794250488 12.119572639465332 11.517236709594727 12.137063026428223 11.564155578613281 12.15455436706543 L11.564155578613281 12.15455436706543 C11.562064170837402 12.16270923614502 11.55997371673584 12.170863151550293 11.557882308959961 12.179018020629883 L11.557882308959961 12.179018020629883 C11.490663528442383 12.171554565429688 11.423445701599121 12.164090156555176 11.356226921081543 12.15662670135498 L11.356226921081543 12.15662670135498 C11.352327346801758 12.08546257019043 11.348426818847656 12.014299392700195 11.344527244567871 11.943135261535645 L11.344527244567871 11.943135261535645 C11.410209655761719 11.94429874420166 11.47589111328125 11.945463180541992 11.541573524475098 11.946626663208008 L11.541573524475098 11.946626663208008 C11.529619216918945 11.987109184265137 11.517663955688477 12.02759075164795 11.505709648132324 12.068073272705078 L11.505709648132324 12.068073272705078 C11.482900619506836 12.025409698486328 11.460090637207031 11.982746124267578 11.437281608581543 11.940082550048828 L11.437281608581543 11.940082550048828"></path></svg>