<svg xmlns="http://www.w3.org/2000/svg" viewBox="0.0 0.0 24.0 24.0" height="200px" width="200px"><path fill="none" stroke="black" stroke-width=".3" stroke-opacity="1.0"  filling="0" d="M11.514381408691406 11.837727546691895 L11.514381408691406 11.837727546691895 C11.537581443786621 11.901418685913086 11.560781478881836 11.965109825134277 11.58398151397705 12.028800964355469 L11.58398151397705 12.028800964355469 C11.616181373596191 12.009437561035156 11.648381233215332 11.990073204040527 11.680581092834473 11.970709800720215 L11.680581092834473 11.970709800720215 C11.689681053161621 11.975518226623535 11.698781967163086 11.980327606201172 11.707881927490234 11.985136032104492 L11.707881927490234 11.985136032104492 C11.725927352905273 12.071826934814453 11.743972778320312 12.158517837524414 11.762018203735352 12.245208740234375 L11.762018203735352 12.245208740234375 C11.70930004119873 12.229935646057129 11.656580924987793 12.2146635055542 11.603862762451172 12.199390411376953 L11.603862762451172 12.199390411376953 C11.574908256530762 12.217427253723145 11.545954704284668 12.23546314239502 11.517000198364258 12.253499984741211 L11.517000198364258 12.253499984741211 C11.516127586364746 12.114909172058105 11.515254020690918 11.976318359375 11.514381408691406 11.837727546691895 L11.514381408691406 11.837727546691895"></path></svg>