<svg xmlns="http://www.w3.org/2000/svg" viewBox="0.0 0.0 24.0 24.0" height="200px" width="200px"><path fill="none" stroke="black" stroke-width=".3" stroke-opacity="1.0"  filling="0" d="M10.445454597473145 12.0 L10.445454597473145 12.0 C10.54443645477295 12.0 10.643418312072754 12.0 10.742400169372559 12.0 L10.742400169372559 12.0 C10.756099700927734 12.07780933380127 10.769800186157227 12.155617713928223 10.783499717712402 12.233427047729492 L10.783499717712402 12.233427047729492 C10.746999740600586 12.237117767333984 10.710498809814453 12.240809440612793 10.673998832702637 12.244500160217285 L10.673998832702637 12.244500160217285 C10.667435646057129 12.191900253295898 10.660871505737305 12.139299392700195 10.654308319091797 12.086699485778809 L10.654308319091797 12.086699485778809 C10.645254135131836 12.085844993591309 10.636198997497559 12.084990501403809 10.627144813537598 12.084136009216309 L10.627144813537598 12.084136009216309 C10.622844696044922 12.148008346557617 10.618544578552246 12.211881637573242 10.61424446105957 12.27575397491455 L10.61424446105957 12.27575397491455 C10.574453353881836 12.208763122558594 10.534663200378418 12.141772270202637 10.494872093200684 12.07478141784668 L10.494872093200684 12.07478141784668 C10.478408813476562 12.13166332244873 10.461944580078125 12.188545227050781 10.445481300354004 12.245427131652832 L10.445481300354004 12.245427131652832 C10.445472717285156 12.163618087768555 10.445463180541992 12.081809043884277 10.445454597473145 12.0 L10.445454597473145 12.0"></path></svg>