<svg xmlns="http://www.w3.org/2000/svg" viewBox="0.0 0.0 24.0 24.0" height="200px" width="200px"><path fill="none" stroke="black" stroke-width=".3" stroke-opacity="1.0"  filling="0" d="M12.547118186950684 11.97343635559082 L12.547118186950684 11.97343635559082 C12.579663276672363 12.015008926391602 12.61220932006836 12.056581497192383 12.644754409790039 12.098154067993164 L12.644754409790039 12.098154067993164 C12.60747241973877 12.070717811584473 12.5701904296875 12.043281555175781 12.53290843963623 12.01584529876709 L12.53290843963623 12.01584529876709 C12.53290843963623 12.062973022460938 12.53290843963623 12.110099792480469 12.53290843963623 12.157227516174316 L12.53290843963623 12.157227516174316 C12.56873607635498 12.162890434265137 12.604562759399414 12.168554306030273 12.640390396118164 12.174217224121094 L12.640390396118164 12.174217224121094 C12.617835998535156 12.197953224182129 12.595281600952148 12.22169017791748 12.57272720336914 12.245426177978516 L12.57272720336914 12.245426177978516 C12.554545402526855 12.24543571472168 12.53636360168457 12.245445251464844 12.518181800842285 12.245454788208008 L12.518181800842285 12.245454788208008 C12.50142765045166 12.214326858520508 12.484672546386719 12.183199882507324 12.467918395996094 12.152071952819824 L12.467918395996094 12.152071952819824 C12.459572792053223 12.160299301147461 12.451228141784668 12.168527603149414 12.442882537841797 12.17675495147705 L12.442882537841797 12.17675495147705 C12.477627754211426 12.10898208618164 12.512372970581055 12.04120922088623 12.547118186950684 11.97343635559082 L12.547118186950684 11.97343635559082"></path></svg>