<svg xmlns="http://www.w3.org/2000/svg" viewBox="0.0 0.0 24.0 24.0" height="200px" width="200px"><path fill="none" stroke="black" stroke-width=".3" stroke-opacity="1.0"  filling="0" d="M11.848554611206055 11.931163787841797 L11.848554611206055 11.931163787841797 C11.936382293701172 11.963743209838867 11.994932174682617 12.129325866699219 11.932662963867188 12.199309349060059 L11.932662963867188 12.199309349060059 C11.93692684173584 12.23287296295166 11.941189765930176 12.266435623168945 11.945453643798828 12.299999237060547 L11.945453643798828 12.299999237060547 C11.899999618530273 12.299999237060547 11.854545593261719 12.299999237060547 11.809091567993164 12.299999237060547 L11.809091567993164 12.299999237060547 C11.822245597839355 12.177054405212402 11.835400581359863 12.054108619689941 11.848554611206055 11.931163787841797 L11.848554611206055 11.931163787841797"></path>
<path fill="none" stroke="black" stroke-width=".3" stroke-opacity="1.0"  filling="0" d="M11.962799072265625 11.975072860717773 L11.962799072265625 11.975072860717773 C11.996893882751465 12.01718807220459 11.995381355285645 12.091772079467773 11.966453552246094 12.137590408325195 L11.966453552246094 12.137590408325195 C11.95573616027832 12.132491111755371 11.94501781463623 12.12739086151123 11.934300422668457 12.122291564941406 L11.934300422668457 12.122291564941406 C11.934300422668457 12.077263832092285 11.93429946899414 12.03223705291748 11.93429946899414 11.98720932006836 L11.93429946899414 11.98720932006836 C11.943799018859863 11.983163833618164 11.953299522399902 11.979118347167969 11.962799072265625 11.975072860717773 L11.962799072265625 11.975072860717773"></path></svg>