<svg xmlns="http://www.w3.org/2000/svg" viewBox="0.0 0.0 24.0 24.0" height="200px" width="200px"><path fill="none" stroke="black" stroke-width=".3" stroke-opacity="1.0"  filling="0" d="M12.463662147521973 11.809091567993164 L12.463662147521973 11.809091567993164 C12.500017166137695 11.809091567993164 12.536372184753418 11.809091567993164 12.57272720336914 11.809091567993164 L12.57272720336914 11.809091567993164 C12.57272720336914 11.864036560058594 12.57272720336914 11.91898250579834 12.57272720336914 11.97392749786377 L12.57272720336914 11.97392749786377 C12.61026382446289 11.94462776184082 12.64780044555664 11.915328025817871 12.68533706665039 11.886028289794922 L12.68533706665039 11.886028289794922 C12.694172859191895 11.982437133789062 12.703009605407715 12.078845977783203 12.711845397949219 12.175254821777344 L12.711845397949219 12.175254821777344 C12.670645713806152 12.152400016784668 12.62944507598877 12.129546165466309 12.588245391845703 12.106691360473633 L12.588245391845703 12.106691360473633 C12.561663627624512 12.130382537841797 12.535080909729004 12.154072761535645 12.508499145507812 12.177763938903809 L12.508499145507812 12.177763938903809 C12.493553161621094 12.0548734664917 12.478608131408691 11.931982040405273 12.463662147521973 11.809091567993164 L12.463662147521973 11.809091567993164"></path></svg>