<svg xmlns="http://www.w3.org/2000/svg" viewBox="0.0 0.0 24.0 24.0" height="200px" width="200px"><path fill="none" stroke="black" stroke-width=".3" stroke-opacity="1.0"  filling="0" d="M11.834127426147461 11.913383483886719 L11.834127426147461 11.913383483886719 C11.873936653137207 11.9550199508667 11.913744926452637 11.996655464172363 11.953554153442383 12.038291931152344 L11.953554153442383 12.038291931152344 C11.9375638961792 12.081364631652832 11.9215726852417 12.124436378479004 11.905582427978516 12.167509078979492 L11.905582427978516 12.167509078979492 C11.878036499023438 12.136054992675781 11.85049057006836 12.104599952697754 11.822944641113281 12.073145866394043 L11.822944641113281 12.073145866394043 C11.791717529296875 12.106400489807129 11.760490417480469 12.139655113220215 11.729263305664062 12.1729097366333 L11.729263305664062 12.1729097366333 C11.699645042419434 12.093146324157715 11.670026779174805 12.013381958007812 11.640408515930176 11.933618545532227 L11.640408515930176 11.933618545532227 C11.652536392211914 11.927209854125977 11.664664268493652 11.92080020904541 11.67679214477539 11.91439151763916 L11.67679214477539 11.91439151763916 C11.706328392028809 11.960528373718262 11.735864639282227 12.006664276123047 11.765400886535645 12.052801132202148 L11.765400886535645 12.052801132202148 C11.788310050964355 12.006328582763672 11.81121826171875 11.959856033325195 11.834127426147461 11.913383483886719 L11.834127426147461 11.913383483886719"></path></svg>