<svg xmlns="http://www.w3.org/2000/svg" viewBox="0.0 0.0 24.0 24.0" height="200px" width="200px"><path fill="none" stroke="black" stroke-width=".3" stroke-opacity="1.0"  filling="0" d="M12.141982078552246 11.221146583557129 L12.141982078552246 11.221146583557129 C12.185582160949707 11.228792190551758 12.229181289672852 11.236437797546387 12.272781372070312 11.244083404541016 L12.272781372070312 11.244083404541016 C12.272802352905273 11.36563777923584 12.348487854003906 11.482783317565918 12.429627418518066 11.57329273223877 L12.429627418518066 11.57329273223877 C12.434098243713379 11.627506256103516 12.435981750488281 11.681958198547363 12.436118125915527 11.73635482788086 L12.436118125915527 11.73635482788086 C12.3827543258667 11.732355117797852 12.329391479492188 11.728354454040527 12.27602767944336 11.72435474395752 L12.27602767944336 11.72435474395752 C12.27194595336914 11.923554420471191 12.267863273620605 12.12275505065918 12.263781547546387 12.321954727172852 L12.263781547546387 12.321954727172852 C12.318445205688477 12.325218200683594 12.373108863830566 12.328482627868652 12.427772521972656 12.331746101379395 L12.427772521972656 12.331746101379395 C12.427772521972656 12.414754867553711 12.427772521972656 12.497764587402344 12.427772521972656 12.58077335357666 L12.427772521972656 12.58077335357666 C11.702744483947754 12.499526023864746 12.21613883972168 12.0524320602417 11.854308128356934 11.682109832763672 L11.854308128356934 11.682109832763672 C11.85068130493164 11.641510009765625 11.847054481506348 11.600910186767578 11.843427658081055 11.560310363769531 L11.843427658081055 11.560310363769531 C11.884591102600098 11.54794692993164 11.925753593444824 11.535582542419434 11.966917037963867 11.523219108581543 L11.966917037963867 11.523219108581543 C11.971826553344727 11.427101135253906 11.976736068725586 11.33098316192627 11.981645584106445 11.234865188598633 L11.981645584106445 11.234865188598633 C12.035091400146484 11.230292320251465 12.088536262512207 11.225719451904297 12.141982078552246 11.221146583557129 L12.141982078552246 11.221146583557129"></path></svg>