<svg xmlns="http://www.w3.org/2000/svg" viewBox="0.0 0.0 24.0 24.0" height="200px" width="200px"><path fill="none" stroke="black" stroke-width=".3" stroke-opacity="1.0"  filling="0" d="M16.499481201171875 11.655517578125 L16.499481201171875 11.655517578125 C16.798442840576172 11.690192222595215 17.127655029296875 11.897854804992676 17.235164642333984 12.178963661193848 L17.235164642333984 12.178963661193848 C17.008527755737305 12.178963661193848 16.781890869140625 12.178963661193848 16.555253982543945 12.178963661193848 L16.555253982543945 12.178963661193848 C16.630008697509766 12.4999418258667 16.663318634033203 12.395140647888184 17.024263381958008 12.256173133850098 L17.024263381958008 12.256173133850098 C17.09539031982422 12.301881790161133 17.166519165039062 12.347591400146484 17.237646102905273 12.39330005645752 L17.237646102905273 12.39330005645752 C16.521345138549805 12.995038032531738 16.15705108642578 12.36694622039795 16.499481201171875 11.655517578125 L16.499481201171875 11.655517578125"></path>
<path fill="none" stroke="black" stroke-width=".3" stroke-opacity="1.0"  filling="0" d="M16.748863220214844 11.80982780456543 L16.748863220214844 11.80982780456543 C16.800491333007812 11.870882034301758 16.85211753845215 11.931937217712402 16.903745651245117 11.99299144744873 L16.903745651245117 11.99299144744873 C16.788545608520508 11.99299144744873 16.6733455657959 11.99299144744873 16.55814552307129 11.99299144744873 L16.55814552307129 11.99299144744873 C16.62171745300293 11.931937217712402 16.685291290283203 11.870882034301758 16.748863220214844 11.80982780456543 L16.748863220214844 11.80982780456543"></path></svg>