<svg xmlns="http://www.w3.org/2000/svg" viewBox="0.0 0.0 24.0 24.0" height="200px" width="200px"><path fill="none" stroke="black" stroke-width=".3" stroke-opacity="1.0"  filling="0" d="M13.49754524230957 11.569907188415527 L13.49754524230957 11.569907188415527 C14.195475578308105 11.597228050231934 14.092235565185547 12.070228576660156 14.121927261352539 12.596673011779785 L14.121927261352539 12.596673011779785 C14.025090217590332 12.581181526184082 13.928254127502441 12.565690994262695 13.831417083740234 12.550199508666992 L13.831417083740234 12.550199508666992 C13.023543357849121 12.671198844909668 13.175628662109375 12.078951835632324 13.823182106018066 11.940463066101074 L13.823182106018066 11.940463066101074 C13.823182106018066 11.62911319732666 13.427201271057129 11.922489166259766 13.272927284240723 11.914416313171387 L13.272927284240723 11.914416313171387 C13.347800254821777 11.799579620361328 13.422672271728516 11.684743881225586 13.49754524230957 11.569907188415527 L13.49754524230957 11.569907188415527"></path>
<path fill="none" stroke="black" stroke-width=".3" stroke-opacity="1.0"  filling="0" d="M13.832592010498047 12.14148998260498 L13.832592010498047 12.14148998260498 C13.821819305419922 12.219117164611816 13.811046600341797 12.296745300292969 13.800273895263672 12.374372482299805 L13.800273895263672 12.374372482299805 C13.733919143676758 12.387417793273926 13.667564392089844 12.400464057922363 13.60120964050293 12.413509368896484 L13.60120964050293 12.413509368896484 C13.57240104675293 12.298008918762207 13.719948768615723 12.179985046386719 13.832592010498047 12.14148998260498 L13.832592010498047 12.14148998260498"></path></svg>