<svg xmlns="http://www.w3.org/2000/svg" viewBox="0.0 0.0 24.0 24.0" height="200px" width="200px"><path fill="none" stroke="black" stroke-width=".3" stroke-opacity="1.0"  filling="0" d="M18.801193237304688 11.648945808410645 L18.801193237304688 11.648945808410645 C19.205448150634766 11.656009674072266 19.04461669921875 11.917814254760742 19.20551300048828 12.247308731079102 L19.20551300048828 12.247308731079102 C19.26056671142578 12.057181358337402 19.31561851501465 11.86705493927002 19.37067222595215 11.67692756652832 L19.37067222595215 11.67692756652832 C19.470291137695312 11.67692756652832 19.569910049438477 11.67692756652832 19.66952896118164 11.67692756652832 L19.66952896118164 11.67692756652832 C19.564546585083008 12.010190963745117 19.459566116333008 12.34345531463623 19.354583740234375 12.676718711853027 L19.354583740234375 12.676718711853027 C19.25282859802246 12.676718711853027 19.151073455810547 12.676718711853027 19.049318313598633 12.676718711853027 L19.049318313598633 12.676718711853027 C19.00680923461914 12.51481819152832 18.96430015563965 12.35291862487793 18.921791076660156 12.191018104553223 L18.921791076660156 12.191018104553223 C18.910926818847656 12.190990447998047 18.90006446838379 12.190963745117188 18.88920021057129 12.190936088562012 L18.88920021057129 12.190936088562012 C18.630403518676758 13.189974784851074 18.373140335083008 12.380382537841797 18.168001174926758 11.655054092407227 L18.168001174926758 11.655054092407227 C18.26512908935547 11.655054092407227 18.36225700378418 11.655054092407227 18.45938491821289 11.655054092407227 L18.45938491821289 11.655054092407227 C18.510265350341797 11.833081245422363 18.561147689819336 12.011109352111816 18.612028121948242 12.189136505126953 L18.612028121948242 12.189136505126953 C18.622011184692383 12.190109252929688 18.63199234008789 12.191082000732422 18.64197540283203 12.192054748535156 L18.64197540283203 12.192054748535156 C18.69504737854004 12.011018753051758 18.74812126159668 11.829981803894043 18.801193237304688 11.648945808410645 L18.801193237304688 11.648945808410645"></path></svg>