<svg xmlns="http://www.w3.org/2000/svg" viewBox="0.0 0.0 24.0 24.0" height="200px" width="200px"><path fill="none" stroke="black" stroke-width=".3" stroke-opacity="1.0"  filling="0" d="M11.811708450317383 11.93337345123291 L11.811708450317383 11.93337345123291 C11.833654403686523 11.940337181091309 11.855599403381348 11.94729995727539 11.877545356750488 11.954263687133789 L11.877545356750488 11.954263687133789 C11.867377281188965 11.995833396911621 11.852476119995117 12.036388397216797 11.834427833557129 12.075191497802734 L11.834427833557129 12.075191497802734 C11.809500694274902 12.03896427154541 11.78457260131836 12.002737045288086 11.759645462036133 11.966509819030762 L11.759645462036133 11.966509819030762 C11.748900413513184 11.971537590026855 11.738154411315918 11.976564407348633 11.727409362792969 11.981592178344727 L11.727409362792969 11.981592178344727 C11.737473487854004 12.025282859802246 11.747536659240723 12.068974494934082 11.757600784301758 12.112665176391602 L11.757600784301758 12.112665176391602 C11.803509712219238 12.13544750213623 11.849417686462402 12.158228874206543 11.895326614379883 12.181011199951172 L11.895326614379883 12.181011199951172 C11.89127254486084 12.191519737243652 11.88721752166748 12.20202922821045 11.883163452148438 12.21253776550293 L11.883163452148438 12.21253776550293 C11.82364559173584 12.200210571289062 11.764126777648926 12.187883377075195 11.704608917236328 12.175556182861328 L11.704608917236328 12.175556182861328 C11.752754211425781 12.210592269897461 11.800899505615234 12.24562931060791 11.849044799804688 12.280665397644043 L11.849044799804688 12.280665397644043 C11.84152889251709 12.249489784240723 11.822683334350586 12.284930229187012 11.80911636352539 12.300028800964355 L11.80911636352539 12.300028800964355 C11.763653755187988 12.300019264221191 11.71819019317627 12.300008773803711 11.672727584838867 12.299999237060547 L11.672727584838867 12.299999237060547 C11.63572883605957 12.102334976196289 11.65473461151123 12.067502975463867 11.811708450317383 11.93337345123291 L11.811708450317383 11.93337345123291"></path></svg>