<svg xmlns="http://www.w3.org/2000/svg" viewBox="0.0 0.0 24.0 24.0" height="200px" width="200px"><path fill="none" stroke="black" stroke-width=".3" stroke-opacity="1.0"  filling="0" d="M10.896599769592285 12.003927230834961 L10.896599769592285 12.003927230834961 C10.967988014221191 12.058953285217285 11.017767906188965 12.15532112121582 11.018181800842285 12.245453834533691 L11.018181800842285 12.245453834533691 C10.990909576416016 12.245453834533691 10.96363639831543 12.245453834533691 10.93636417388916 12.245453834533691 L10.93636417388916 12.245453834533691 C10.93636417388916 12.18475341796875 10.93636417388916 12.124053955078125 10.93636417388916 12.063353538513184 L10.93636417388916 12.063353538513184 C10.909090995788574 12.063353538513184 10.881818771362305 12.063353538513184 10.854545593261719 12.063353538513184 L10.854545593261719 12.063353538513184 C10.854545593261719 12.124053955078125 10.854545593261719 12.18475341796875 10.854545593261719 12.245453834533691 L10.854545593261719 12.245453834533691 C10.82727336883545 12.245453834533691 10.800000190734863 12.245453834533691 10.772727966308594 12.245453834533691 L10.772727966308594 12.245453834533691 C10.757418632507324 12.175580978393555 10.742110252380371 12.105708122253418 10.726800918579102 12.035835266113281 L10.726800918579102 12.035835266113281 C10.714837074279785 12.105708122253418 10.702872276306152 12.175580978393555 10.690908432006836 12.245453834533691 L10.690908432006836 12.245453834533691 C10.663636207580566 12.245453834533691 10.63636302947998 12.245454788208008 10.609090805053711 12.245454788208008 L10.609090805053711 12.245454788208008 C10.614991188049316 12.165718078613281 10.620890617370605 12.085982322692871 10.626791000366211 12.006245613098145 L10.626791000366211 12.006245613098145 C10.716730117797852 12.00621509552002 10.806678771972656 12.005763053894043 10.896599769592285 12.003927230834961 L10.896599769592285 12.003927230834961"></path></svg>