<svg xmlns="http://www.w3.org/2000/svg" viewBox="0.0 0.0 24.0 24.0" height="200px" width="200px"><path fill="none" stroke="black" stroke-width=".3" stroke-opacity="1.0"  filling="0" d="M6.52314567565918 11.565924644470215 L6.52314567565918 11.565924644470215 C6.816234111785889 11.639863014221191 7.190048694610596 11.819479942321777 7.243281841278076 12.117026329040527 L7.243281841278076 12.117026329040527 C7.022489070892334 12.10476303100586 6.384757995605469 12.089885711669922 6.583554744720459 12.186735153198242 C6.720730304718018 12.25356388092041 6.954416275024414 12.297567367553711 7.04108190536499 12.171979904174805 L7.04108190536499 12.171979904174805 C7.38802433013916 12.392285346984863 5.955050468444824 12.954391479492188 6.52314567565918 11.565924644470215 L6.52314567565918 11.565924644470215"></path>
<path fill="none" stroke="black" stroke-width=".3" stroke-opacity="1.0"  filling="0" d="M6.78512716293335 11.72746467590332 L6.78512716293335 11.72746467590332 C6.8305816650390625 11.789637565612793 6.876036167144775 11.85180950164795 6.921490669250488 11.913982391357422 L6.921490669250488 11.913982391357422 C6.809027194976807 11.913982391357422 6.696563243865967 11.913982391357422 6.584099769592285 11.913982391357422 L6.584099769592285 11.913982391357422 C6.651108741760254 11.85180950164795 6.718118190765381 11.789637565612793 6.78512716293335 11.72746467590332 L6.78512716293335 11.72746467590332"></path></svg>