<svg xmlns="http://www.w3.org/2000/svg" viewBox="0.0 0.0 24.0 24.0" height="200px" width="200px"><path fill="none" stroke="black" stroke-width=".3" stroke-opacity="1.0"  filling="0" d="M16.554271697998047 11.675427436828613 L16.554271697998047 11.675427436828613 C16.68570899963379 11.87429141998291 16.8171443939209 12.07315444946289 16.94858169555664 12.272018432617188 L16.94858169555664 12.272018432617188 C16.7283992767334 12.272018432617188 16.50821876525879 12.272018432617188 16.288036346435547 12.272018432617188 L16.288036346435547 12.272018432617188 C16.38673210144043 12.395167350769043 16.61878776550293 12.425142288208008 16.755599975585938 12.34647274017334 L16.755599975585938 12.34647274017334 C16.82625389099121 12.392136573791504 16.896909713745117 12.437800407409668 16.96756362915039 12.483464241027832 L16.96756362915039 12.483464241027832 C16.135770797729492 13.100992202758789 15.545550346374512 12.042973518371582 16.554271697998047 11.675427436828613 L16.554271697998047 11.675427436828613"></path>
<path fill="none" stroke="black" stroke-width=".3" stroke-opacity="1.0"  filling="0" d="M16.460865020751953 11.891427993774414 L16.460865020751953 11.891427993774414 C16.516773223876953 11.953100204467773 16.572683334350586 12.01477336883545 16.628591537475586 12.076445579528809 L16.628591537475586 12.076445579528809 C16.515636444091797 12.076445579528809 16.40268325805664 12.076445579528809 16.28972816467285 12.076445579528809 L16.28972816467285 12.076445579528809 C16.346773147583008 12.01477336883545 16.403820037841797 11.953100204467773 16.460865020751953 11.891427993774414 L16.460865020751953 11.891427993774414"></path></svg>