<svg xmlns="http://www.w3.org/2000/svg" viewBox="0.0 0.0 24.0 24.0" height="200px" width="200px"><path fill="none" stroke="black" stroke-width=".3" stroke-opacity="1.0"  filling="0" d="M13.232345581054688 11.930455207824707 L13.232345581054688 11.930455207824707 C13.283336639404297 11.940718650817871 13.334327697753906 11.950982093811035 13.385318756103516 11.9612455368042 L13.385318756103516 11.9612455368042 C13.35078239440918 11.956172943115234 13.316246032714844 11.951099395751953 13.281709671020508 11.946026802062988 L13.281709671020508 11.946026802062988 C13.277772903442383 11.950162887573242 13.273836135864258 11.954299926757812 13.269899368286133 11.958436012268066 L13.269899368286133 11.958436012268066 C13.310235977172852 11.972271919250488 13.35057258605957 11.986108779907227 13.390909194946289 11.999944686889648 L13.390909194946289 11.999944686889648 C13.390909194946289 12.045417785644531 13.390909194946289 12.090890884399414 13.390909194946289 12.136363983154297 L13.390909194946289 12.136363983154297 C13.329018592834473 12.148345947265625 13.26712703704834 12.160326957702637 13.205236434936523 12.172308921813965 L13.205236434936523 12.172308921813965 C13.205236434936523 12.140891075134277 13.205236434936523 12.109472274780273 13.205236434936523 12.078054428100586 L13.205236434936523 12.078054428100586 C13.236481666564941 12.093408584594727 13.267727851867676 12.108763694763184 13.298973083496094 12.124117851257324 L13.298973083496094 12.124117851257324 C13.303009033203125 12.119872093200684 13.307045936584473 12.11562728881836 13.311081886291504 12.111381530761719 L13.311081886291504 12.111381530761719 C13.264517784118652 12.064929008483887 13.243901252746582 11.995203971862793 13.232345581054688 11.930455207824707 L13.232345581054688 11.930455207824707"></path></svg>