<svg xmlns="http://www.w3.org/2000/svg" viewBox="0.0 0.0 24.0 24.0" height="200px" width="200px"><path fill="none" stroke="black" stroke-width=".3" stroke-opacity="1.0"  filling="0" d="M15.737346649169922 11.318127632141113 L15.737346649169922 11.318127632141113 C15.796274185180664 11.39811897277832 15.85520076751709 11.478109359741211 15.914128303527832 11.558100700378418 L15.914128303527832 11.558100700378418 C15.866982460021973 11.561546325683594 15.81983757019043 11.56499195098877 15.77269172668457 11.568437576293945 L15.77269172668457 11.568437576293945 C15.769318580627441 11.6088285446167 15.765946388244629 11.649218559265137 15.7625732421875 11.68960952758789 L15.7625732421875 11.68960952758789 C15.815110206604004 11.695873260498047 15.867646217346191 11.702136993408203 15.920183181762695 11.70840072631836 L15.920183181762695 11.70840072631836 C15.920183181762695 11.767582893371582 15.920183181762695 11.826764106750488 15.920183181762695 11.885946273803711 L15.920183181762695 11.885946273803711 C15.5618896484375 11.907176971435547 15.736237525939941 12.576401710510254 15.73647403717041 12.69725513458252 L15.73647403717041 12.69725513458252 C15.632119178771973 12.69725513458252 15.527763366699219 12.69725513458252 15.423408508300781 12.69725513458252 L15.423408508300781 12.69725513458252 C15.442734718322754 12.395176887512207 15.590107917785645 12.029092788696289 15.323973655700684 11.840700149536133 L15.323973655700684 11.840700149536133 C15.334391593933105 11.785809516906738 15.344810485839844 11.730917930603027 15.355228424072266 11.676027297973633 L15.355228424072266 11.676027297973633 C15.385555267333984 11.679863929748535 15.41588306427002 11.683699607849121 15.446209907531738 11.687536239624023 L15.446209907531738 11.687536239624023 C15.477068901062012 11.533822059631348 15.62918472290039 11.431623458862305 15.737346649169922 11.318127632141113 L15.737346649169922 11.318127632141113"></path></svg>