<svg xmlns="http://www.w3.org/2000/svg" viewBox="0.0 0.0 24.0 24.0" height="200px" width="200px"><path fill="none" stroke="black" stroke-width=".3" stroke-opacity="1.0"  filling="0" d="M13.609090805053711 11.809091567993164 L13.609090805053711 11.809091567993164 C13.61018180847168 11.83350944519043 13.611272811889648 11.857928276062012 13.612363815307617 11.882346153259277 L13.612363815307617 11.882346153259277 C13.65192699432373 11.887190818786621 13.69149112701416 11.892036437988281 13.731054306030273 11.896881103515625 L13.731054306030273 11.896881103515625 C13.719908714294434 11.98981761932373 13.708763122558594 12.082754135131836 13.697617530822754 12.175690650939941 L13.697617530822754 12.175690650939941 C13.694053649902344 12.102899551391602 13.69049072265625 12.030109405517578 13.68692684173584 11.957318305969238 L13.68692684173584 11.957318305969238 C13.663744926452637 12.021918296813965 13.640563011169434 12.086517333984375 13.61738109588623 12.151117324829102 L13.61738109588623 12.151117324829102 C13.587345123291016 12.151117324829102 13.5573091506958 12.151117324829102 13.527273178100586 12.151117324829102 L13.527273178100586 12.151117324829102 C13.527273178100586 12.037117004394531 13.527273178100586 11.923117637634277 13.527273178100586 11.809117317199707 L13.527273178100586 11.809117317199707 C13.554545402526855 11.80910873413086 13.581818580627441 11.809100151062012 13.609090805053711 11.809091567993164 L13.609090805053711 11.809091567993164"></path></svg>