<svg xmlns="http://www.w3.org/2000/svg" viewBox="0.0 0.0 24.0 24.0" height="200px" width="200px"><path fill="none" stroke="black" stroke-width=".3" stroke-opacity="1.0"  filling="0" d="M11.999509811401367 11.910654067993164 L11.999509811401367 11.910654067993164 C12.050398826599121 11.914678573608398 12.120464324951172 11.953043937683105 12.120845794677734 12.004090309143066 L12.120845794677734 12.004090309143066 C12.084373474121094 11.981144905090332 12.047901153564453 11.958199501037598 12.011428833007812 11.935254096984863 L12.011428833007812 11.935254096984863 C11.993635177612305 11.996466636657715 12.074102401733398 12.063992500305176 12.135627746582031 12.080673217773438 L12.135627746582031 12.080673217773438 C12.136027336120605 12.096700668334961 12.136427879333496 12.112727165222168 12.13682746887207 12.128754615783691 L12.13682746887207 12.128754615783691 C12.082609176635742 12.14306354522705 12.028390884399414 12.157373428344727 11.974172592163086 12.171682357788086 L11.974172592163086 12.171682357788086 C11.942955017089844 12.129427909851074 11.911736488342285 12.087173461914062 11.880518913269043 12.04491901397705 L11.880518913269043 12.04491901397705 C11.920182228088379 12.000164031982422 11.959846496582031 11.955409049987793 11.999509811401367 11.910654067993164 L11.999509811401367 11.910654067993164"></path></svg>