<svg xmlns="http://www.w3.org/2000/svg" viewBox="0.0 0.0 24.0 24.0" height="200px" width="200px"><path fill="none" stroke="black" stroke-width=".3" stroke-opacity="1.0"  filling="0" d="M12.09572696685791 12.010281562805176 L12.09572696685791 12.010281562805176 C12.127445220947266 12.088672637939453 12.159163475036621 12.167062759399414 12.190881729125977 12.245453834533691 L12.190881729125977 12.245453834533691 C12.127254486083984 12.245453834533691 12.063627243041992 12.245454788208008 12.0 12.245454788208008 L12.0 12.245454788208008 C11.99062728881836 12.212327003479004 11.981254577636719 12.179200172424316 11.971881866455078 12.146072387695312 L11.971881866455078 12.146072387695312 C11.98261833190918 12.14238166809082 11.993353843688965 12.138689994812012 12.004090309143066 12.13499927520752 L12.004090309143066 12.13499927520752 C12.015990257263184 12.159753799438477 12.0278902053833 12.184508323669434 12.039790153503418 12.20926284790039 L12.039790153503418 12.20926284790039 C12.058435440063477 12.2003812789917 12.077081680297852 12.191498756408691 12.09572696685791 12.1826171875 L12.09572696685791 12.1826171875 C12.09572696685791 12.125171661376953 12.09572696685791 12.067727088928223 12.09572696685791 12.010281562805176 L12.09572696685791 12.010281562805176"></path></svg>