<svg xmlns="http://www.w3.org/2000/svg" viewBox="0.0 0.0 24.0 24.0" height="200px" width="200px"><path fill="none" stroke="black" stroke-width=".3" stroke-opacity="1.0"  filling="0" d="M5.541191101074219 11.523463249206543 L5.541191101074219 11.523463249206543 C5.739799976348877 11.57894515991211 5.938408851623535 11.63442611694336 6.137017726898193 11.689908027648926 L6.137017726898193 11.689908027648926 C6.081772327423096 11.733244895935059 6.026526927947998 11.776580810546875 5.9712815284729 11.819917678833008 L5.9712815284729 11.819917678833008 C5.840797424316406 11.779109954833984 5.679632186889648 11.737298965454102 5.56137228012085 11.805898666381836 L5.56137228012085 11.805898666381836 C6.367244243621826 12.111135482788086 6.363703727722168 12.591035842895508 5.23328161239624 12.354982376098633 L5.23328161239624 12.354982376098633 C5.298999786376953 12.30124568939209 5.364718437194824 12.247509002685547 5.430436611175537 12.193772315979004 L5.430436611175537 12.193772315979004 C5.574163913726807 12.221363067626953 5.717890739440918 12.248953819274902 5.8616180419921875 12.276544570922852 L5.8616180419921875 12.276544570922852 C5.51592493057251 11.970015525817871 5.102932929992676 12.071272850036621 5.541191101074219 11.523463249206543 L5.541191101074219 11.523463249206543"></path></svg>