<svg xmlns="http://www.w3.org/2000/svg" viewBox="0.0 0.0 24.0 24.0" height="200px" width="200px"><path fill="none" stroke="black" stroke-width=".3" stroke-opacity="1.0"  filling="0" d="M12.587454795837402 11.976055145263672 L12.587454795837402 11.976055145263672 C12.596091270446777 12.047727584838867 12.604726791381836 12.119400024414062 12.613363265991211 12.191072463989258 L12.613363265991211 12.191072463989258 C12.511844635009766 12.194756507873535 12.403517723083496 12.08028507232666 12.394391059875488 11.979110717773438 L12.394391059875488 11.979110717773438 C12.40580940246582 11.978692054748535 12.417226791381836 11.978272438049316 12.428645133972168 11.977853775024414 L12.428645133972168 11.977853775024414 C12.433218002319336 12.03696346282959 12.437790870666504 12.09607219696045 12.442363739013672 12.155181884765625 L12.442363739013672 12.155181884765625 C12.47420883178711 12.155181884765625 12.506054878234863 12.155181884765625 12.5378999710083 12.155181884765625 L12.5378999710083 12.155181884765625 C12.543563842773438 12.095827102661133 12.549226760864258 12.036473274230957 12.554890632629395 11.977118492126465 L12.554890632629395 11.977118492126465 C12.56574535369873 11.976763725280762 12.576600074768066 11.976409912109375 12.587454795837402 11.976055145263672 L12.587454795837402 11.976055145263672"></path></svg>