<svg xmlns="http://www.w3.org/2000/svg" viewBox="0.0 0.0 24.0 24.0" height="200px" width="200px"><path fill="none" stroke="black" stroke-width=".3" stroke-opacity="1.0"  filling="0" d="M11.109408378601074 11.963017463684082 L11.109408378601074 11.963017463684082 C11.14458179473877 12.009881019592285 11.179754257202148 12.056745529174805 11.214927673339844 12.103609085083008 L11.214927673339844 12.103609085083008 C11.185708999633789 12.150890350341797 11.15649127960205 12.198172569274902 11.127272605895996 12.245453834533691 L11.127272605895996 12.245453834533691 C11.07272720336914 12.245453834533691 11.018181800842285 12.245453834533691 10.96363639831543 12.245453834533691 L10.96363639831543 12.245453834533691 C10.983808517456055 12.171144485473633 11.003981590270996 12.096835136413574 11.024153709411621 12.022525787353516 L11.024153709411621 12.022525787353516 C11.036590576171875 12.08916187286377 11.049026489257812 12.15579891204834 11.061463356018066 12.222434997558594 L11.061463356018066 12.222434997558594 C11.101173400878906 12.168757438659668 11.065463066101074 12.075213432312012 11.019790649414062 12.026508331298828 L11.019790649414062 12.026508331298828 C11.049663543701172 12.00534439086914 11.079535484313965 11.98418140411377 11.109408378601074 11.963017463684082 L11.109408378601074 11.963017463684082"></path></svg>