<svg xmlns="http://www.w3.org/2000/svg" viewBox="0.0 0.0 24.0 24.0" height="200px" width="200px"><path fill="none" stroke="black" stroke-width=".3" stroke-opacity="1.0"  filling="0" d="M10.681063652038574 11.97960090637207 L10.681063652038574 11.97960090637207 C10.750308990478516 11.97960090637207 10.819554328918457 11.97960090637207 10.888799667358398 11.97960090637207 L10.888799667358398 11.97960090637207 C10.886472702026367 12.068219184875488 10.884145736694336 12.15683650970459 10.881818771362305 12.245454788208008 L10.881818771362305 12.245454788208008 C10.872727394104004 12.245454788208008 10.86363697052002 12.245454788208008 10.854545593261719 12.245454788208008 L10.854545593261719 12.245454788208008 C10.854545593261719 12.174245834350586 10.854545593261719 12.103035926818848 10.854545593261719 12.031826972961426 L10.854545593261719 12.031826972961426 C10.841809272766113 12.02784538269043 10.829072952270508 12.023863792419434 10.816336631774902 12.019882202148438 L10.816336631774902 12.019882202148438 C10.775398254394531 12.087231636047363 10.759669303894043 12.16793155670166 10.745453834533691 12.245454788208008 L10.745453834533691 12.245454788208008 C10.736363410949707 12.245454788208008 10.727272987365723 12.245454788208008 10.718182563781738 12.245454788208008 L10.718182563781738 12.245454788208008 C10.705809593200684 12.15683650970459 10.693436622619629 12.068219184875488 10.681063652038574 11.97960090637207 L10.681063652038574 11.97960090637207"></path></svg>