<svg xmlns="http://www.w3.org/2000/svg" viewBox="0.0 0.0 24.0 24.0" height="200px" width="200px"><path fill="none" stroke="black" stroke-width=".3" stroke-opacity="1.0"  filling="0" d="M12.262391090393066 11.980117797851562 L12.262391090393066 11.980117797851562 C12.333491325378418 11.980117797851562 12.40459156036377 11.980117797851562 12.475691795349121 11.980117797851562 L12.475691795349121 11.980117797851562 C12.480764389038086 12.068563461303711 12.485837936401367 12.15700912475586 12.490910530090332 12.245454788208008 L12.490910530090332 12.245454788208008 C12.472728729248047 12.245454788208008 12.454545974731445 12.245454788208008 12.43636417388916 12.245454788208008 L12.43636417388916 12.245454788208008 C12.434807777404785 12.166778564453125 12.430461883544922 12.070907592773438 12.371891021728516 12.018354415893555 L12.371891021728516 12.018354415893555 C12.35701847076416 12.094063758850098 12.342145919799805 12.169772148132324 12.32727336883545 12.245481491088867 L12.32727336883545 12.245481491088867 C12.318181991577148 12.24547290802002 12.309090614318848 12.245463371276855 12.299999237060547 12.245454788208008 L12.299999237060547 12.245454788208008 C12.287463188171387 12.15700912475586 12.274927139282227 12.068563461303711 12.262391090393066 11.980117797851562 L12.262391090393066 11.980117797851562"></path></svg>