<svg xmlns="http://www.w3.org/2000/svg" viewBox="0.0 0.0 24.0 24.0" height="200px" width="200px"><path fill="none" stroke="black" stroke-width=".3" stroke-opacity="1.0"  filling="0" d="M11.727380752563477 11.973981857299805 L11.727380752563477 11.973981857299805 C12.039036750793457 11.979463577270508 12.128215789794922 11.938197135925293 12.13636302947998 12.245454788208008 L12.13636302947998 12.245454788208008 C12.045454025268555 12.245454788208008 11.954545021057129 12.245454788208008 11.863636016845703 12.245454788208008 L11.863636016845703 12.245454788208008 C11.879684448242188 12.172569274902344 11.848591804504395 12.086441993713379 11.798290252685547 12.031310081481934 L11.798290252685547 12.031310081481934 C11.810980796813965 12.102691650390625 11.8236722946167 12.174073219299316 11.836362838745117 12.245454788208008 L11.836362838745117 12.245454788208008 C11.781817436218262 12.245454788208008 11.727272033691406 12.245454788208008 11.67272663116455 12.245454788208008 L11.67272663116455 12.245454788208008 C11.673099517822266 12.235363960266113 11.67347240447998 12.225272178649902 11.673845291137695 12.215181350708008 L11.673845291137695 12.215181350708008 C11.717513084411621 12.145355224609375 11.72618293762207 12.056329727172852 11.727380752563477 11.973981857299805 L11.727380752563477 11.973981857299805"></path>
<path fill="none" stroke="black" stroke-width=".3" stroke-opacity="1.0"  filling="0" d="M11.997408866882324 12.03226375579834 L11.997408866882324 12.03226375579834 C12.04268741607666 12.057863235473633 11.984118461608887 12.139300346374512 11.95508098602295 12.182455062866211 L11.95508098602295 12.182455062866211 C11.955970764160156 12.130448341369629 11.961219787597656 12.069623947143555 11.997408866882324 12.03226375579834 L11.997408866882324 12.03226375579834"></path></svg>