<svg xmlns="http://www.w3.org/2000/svg" viewBox="0.0 0.0 24.0 24.0" height="200px" width="200px"><path fill="none" stroke="black" stroke-width=".3" stroke-opacity="1.0"  filling="0" d="M14.318181991577148 11.809090614318848 L14.318181991577148 11.809090614318848 C14.336363792419434 11.809090614318848 14.354545593261719 11.809091567993164 14.372727394104004 11.809091567993164 L14.372727394104004 11.809091567993164 C14.37140941619873 11.89989185333252 14.339300155639648 11.989213943481445 14.302963256835938 12.072437286376953 L14.302963256835938 12.072437286376953 C14.24850845336914 11.995355606079102 14.194053649902344 11.918272972106934 14.139598846435547 11.841191291809082 L14.139598846435547 11.841191291809082 C14.164753913879395 11.841191291809082 14.189908027648926 11.841191291809082 14.215063095092773 11.841191291809082 L14.215063095092773 11.841191291809082 C14.238626480102539 11.877972602844238 14.262190818786621 11.914754867553711 14.285754203796387 11.951536178588867 L14.285754203796387 11.951536178588867 C14.296563148498535 11.94764518737793 14.307373046875 11.943754196166992 14.318181991577148 11.939863204956055 L14.318181991577148 11.939863204956055 C14.318181991577148 11.896272659301758 14.318181991577148 11.852681159973145 14.318181991577148 11.809090614318848 L14.318181991577148 11.809090614318848"></path></svg>