<svg xmlns="http://www.w3.org/2000/svg" viewBox="0.0 0.0 24.0 24.0" height="200px" width="200px"><path fill="none" stroke="black" stroke-width=".3" stroke-opacity="1.0"  filling="0" d="M12.364009857177734 11.9315185546875 L12.364009857177734 11.9315185546875 C12.380364418029785 11.951727867126465 12.39671802520752 11.971936225891113 12.41307258605957 11.992145538330078 L12.41307258605957 11.992145538330078 C12.408663749694824 12.058009147644043 12.404255867004395 12.123872756958008 12.399847030639648 12.189736366271973 L12.399847030639648 12.189736366271973 C12.464900970458984 12.138800621032715 12.529955863952637 12.08786392211914 12.595009803771973 12.036928176879883 L12.595009803771973 12.036928176879883 C12.56165599822998 12.038591384887695 12.528301239013672 12.040255546569824 12.49494743347168 12.041918754577637 L12.49494743347168 12.041918754577637 C12.568792343139648 12.035091400146484 12.642638206481934 12.028264045715332 12.716483116149902 12.02143669128418 L12.716483116149902 12.02143669128418 C12.66873836517334 12.077274322509766 12.63094425201416 12.14450740814209 12.611973762512207 12.215482711791992 L12.611973762512207 12.215482711791992 C12.649219512939453 12.199655532836914 12.686464309692383 12.18382740020752 12.723710060119629 12.168000221252441 L12.723710060119629 12.168000221252441 C12.718828201293945 12.193818092346191 12.713946342468262 12.219636917114258 12.709064483642578 12.245454788208008 L12.709064483642578 12.245454788208008 C12.59089183807373 12.245454788208008 12.472718238830566 12.245454788208008 12.354545593261719 12.245454788208008 L12.354545593261719 12.245454788208008 C12.332527160644531 12.14310359954834 12.302172660827637 12.015997886657715 12.364009857177734 11.9315185546875 L12.364009857177734 11.9315185546875"></path></svg>