<svg xmlns="http://www.w3.org/2000/svg" viewBox="0.0 0.0 24.0 24.0" height="200px" width="200px"><path fill="none" stroke="black" stroke-width=".3" stroke-opacity="1.0"  filling="0" d="M12.215564727783203 11.94537353515625 L12.215564727783203 11.94537353515625 C12.25046443939209 11.975545883178711 12.285365104675293 12.005718231201172 12.32026481628418 12.035890579223633 L12.32026481628418 12.035890579223633 C12.258955955505371 12.105745315551758 12.197646141052246 12.175600051879883 12.136337280273438 12.245454788208008 L12.136337280273438 12.245454788208008 C12.1181640625 12.245454788208008 12.099990844726562 12.245454788208008 12.081817626953125 12.245454788208008 L12.081817626953125 12.245454788208008 C12.077400207519531 12.158145904541016 12.072981834411621 12.070836067199707 12.068564414978027 11.983527183532715 L12.068564414978027 11.983527183532715 C12.11756420135498 11.970808982849121 12.16656494140625 11.958091735839844 12.215564727783203 11.94537353515625 L12.215564727783203 11.94537353515625"></path>
<path fill="none" stroke="black" stroke-width=".3" stroke-opacity="1.0"  filling="0" d="M12.132680892944336 11.979464530944824 L12.132680892944336 11.979464530944824 C12.192874908447266 12.018771171569824 12.186466217041016 12.133852005004883 12.148009300231934 12.194591522216797 L12.148009300231934 12.194591522216797 C12.142899513244629 12.122882843017578 12.13779067993164 12.051173210144043 12.132680892944336 11.979464530944824 L12.132680892944336 11.979464530944824"></path></svg>