<svg xmlns="http://www.w3.org/2000/svg" viewBox="0.0 0.0 24.0 24.0" height="200px" width="200px"><path fill="none" stroke="black" stroke-width=".3" stroke-opacity="1.0"  filling="0" d="M11.847954750061035 11.948781967163086 L11.847954750061035 11.948781967163086 C11.872763633728027 12.035863876342773 11.89757251739502 12.122945785522461 11.922381401062012 12.210027694702148 L11.922381401062012 12.210027694702148 C11.892999649047852 12.215609550476074 11.863617897033691 12.22119140625 11.834236145019531 12.226773262023926 L11.834236145019531 12.226773262023926 C11.832290649414062 12.164643287658691 11.831655502319336 12.102470397949219 11.831591606140137 12.04030990600586 L11.831591606140137 12.04030990600586 C11.801572799682617 12.098482131958008 11.771554946899414 12.156655311584473 11.741536140441895 12.214827537536621 L11.741536140441895 12.214827537536621 C11.71628189086914 12.216073036193848 11.69102668762207 12.217317581176758 11.665772438049316 12.218563079833984 L11.665772438049316 12.218563079833984 C11.670209884643555 12.140302658081055 11.664368629455566 12.061179161071777 11.65167236328125 11.983827590942383 L11.65167236328125 11.983827590942383 C11.717100143432617 11.972146034240723 11.782526969909668 11.960463523864746 11.847954750061035 11.948781967163086 L11.847954750061035 11.948781967163086"></path></svg>