<svg xmlns="http://www.w3.org/2000/svg" viewBox="0.0 0.0 24.0 24.0" height="200px" width="200px"><path fill="none" stroke="black" stroke-width=".3" stroke-opacity="1.0"  filling="0" d="M13.302790641784668 11.944526672363281 L13.302790641784668 11.944526672363281 C13.344625473022461 11.994425773620605 13.395498275756836 12.036116600036621 13.444635391235352 12.07884407043457 L13.444635391235352 12.07884407043457 C13.47031307220459 12.043874740600586 13.469991683959961 11.99026870727539 13.456035614013672 11.949190139770508 L13.456035614013672 11.949190139770508 C13.491835594177246 11.949190139770508 13.527636528015137 11.949190139770508 13.563436508178711 11.949190139770508 L13.563436508178711 11.949190139770508 C13.60318660736084 12.040864944458008 13.60911750793457 12.145532608032227 13.60911750793457 12.245453834533691 L13.60911750793457 12.245453834533691 C13.554563522338867 12.245453834533691 13.500008583068848 12.245454788208008 13.445454597473145 12.245454788208008 L13.445454597473145 12.245454788208008 C13.372196197509766 12.161356925964355 13.310790061950684 12.0637845993042 13.272490501403809 11.959035873413086 L13.272490501403809 11.959035873413086 C13.282590866088867 11.95419979095459 13.29269027709961 11.949362754821777 13.302790641784668 11.944526672363281 L13.302790641784668 11.944526672363281"></path></svg>