<svg xmlns="http://www.w3.org/2000/svg" viewBox="0.0 0.0 24.0 24.0" height="200px" width="200px"><path fill="none" stroke="black" stroke-width=".3" stroke-opacity="1.0"  filling="0" d="M12.205445289611816 11.812718391418457 L12.205445289611816 11.812718391418457 C12.21235466003418 11.852245330810547 12.219263076782227 11.891772270202637 12.22617244720459 11.931299209594727 L12.22617244720459 11.931299209594727 C12.272772789001465 11.936544418334961 12.319372177124023 11.941790580749512 12.365972518920898 11.947035789489746 L12.365972518920898 11.947035789489746 C12.301791191101074 12.024435997009277 12.237608909606934 12.101835250854492 12.17342758178711 12.179235458374023 L12.17342758178711 12.179235458374023 C12.17342758178711 12.05804443359375 12.17342758178711 11.936854362487793 12.17342758178711 11.81566333770752 L12.17342758178711 11.81566333770752 C12.184100151062012 11.814682006835938 12.194772720336914 11.813699722290039 12.205445289611816 11.812718391418457 L12.205445289611816 11.812718391418457"></path>
<path fill="none" stroke="black" stroke-width=".3" stroke-opacity="1.0"  filling="0" d="M12.28674602508545 11.974090576171875 L12.28674602508545 11.974090576171875 C12.284391403198242 12.037481307983398 12.282036781311035 12.100872039794922 12.279682159423828 12.164262771606445 L12.279682159423828 12.164262771606445 C12.282036781311035 12.100872039794922 12.284391403198242 12.037481307983398 12.28674602508545 11.974090576171875 L12.28674602508545 11.974090576171875"></path></svg>