<svg xmlns="http://www.w3.org/2000/svg" viewBox="0.0 0.0 24.0 24.0" height="200px" width="200px"><path fill="none" stroke="black" stroke-width=".3" stroke-opacity="1.0"  filling="0" d="M12.483027458190918 11.811382293701172 L12.483027458190918 11.811382293701172 C12.489727020263672 11.925182342529297 12.496427536010742 12.038982391357422 12.503127098083496 12.152782440185547 L12.503127098083496 12.152782440185547 C12.432518005371094 12.163464546203613 12.361908912658691 12.174145698547363 12.291299819946289 12.18482780456543 L12.291299819946289 12.18482780456543 C12.334534645080566 12.07715129852295 12.36906909942627 11.958995819091797 12.448118209838867 11.874055862426758 L12.448118209838867 11.874055862426758 C12.459754943847656 11.853164672851562 12.471390724182129 11.832273483276367 12.483027458190918 11.811382293701172 L12.483027458190918 11.811382293701172"></path>
<path fill="none" stroke="black" stroke-width=".3" stroke-opacity="1.0"  filling="0" d="M12.394227027893066 11.970927238464355 L12.394227027893066 11.970927238464355 C12.40822696685791 12.012772560119629 12.422226905822754 12.054617881774902 12.436226844787598 12.096463203430176 L12.436226844787598 12.096463203430176 C12.412508964538574 12.111390113830566 12.388790130615234 12.126317977905273 12.365072250366211 12.141244888305664 L12.365072250366211 12.141244888305664 C12.37479019165039 12.08447265625 12.384509086608887 12.02769947052002 12.394227027893066 11.970927238464355 L12.394227027893066 11.970927238464355"></path></svg>