<svg xmlns="http://www.w3.org/2000/svg" viewBox="0.0 0.0 24.0 24.0" height="200px" width="200px"><path fill="none" stroke="black" stroke-width=".3" stroke-opacity="1.0"  filling="0" d="M12.64554500579834 11.893610000610352 L12.64554500579834 11.893610000610352 C12.704791069030762 11.968254089355469 12.744056701660156 12.062647819519043 12.75638198852539 12.157145500183105 L12.75638198852539 12.157145500183105 C12.676336288452148 12.162672996520996 12.596291542053223 12.168200492858887 12.51624584197998 12.173727989196777 L12.51624584197998 12.173727989196777 C12.52830982208252 12.124155044555664 12.540372848510742 12.07458209991455 12.552436828613281 12.025009155273438 L12.552436828613281 12.025009155273438 C12.564109802246094 12.027563095092773 12.57578182220459 12.030117988586426 12.587454795837402 12.032671928405762 L12.587454795837402 12.032671928405762 C12.597790718078613 12.058318138122559 12.60812759399414 12.083963394165039 12.618463516235352 12.109609603881836 L12.618463516235352 12.109609603881836 C12.625872611999512 12.108327865600586 12.633281707763672 12.107046127319336 12.640690803527832 12.105764389038086 L12.640690803527832 12.105764389038086 C12.640690803527832 12.052936553955078 12.640690803527832 12.000109672546387 12.640690803527832 11.947281837463379 L12.640690803527832 11.947281837463379 C12.599381446838379 11.962890625 12.558073043823242 11.978500366210938 12.516763687133789 11.994109153747559 L12.516763687133789 11.994109153747559 C12.559690475463867 11.960609436035156 12.602618217468262 11.927109718322754 12.64554500579834 11.893610000610352 L12.64554500579834 11.893610000610352"></path></svg>