<svg xmlns="http://www.w3.org/2000/svg" viewBox="0.0 0.0 24.0 24.0" height="200px" width="200px"><path fill="none" stroke="black" stroke-width=".3" stroke-opacity="1.0"  filling="0" d="M11.33942699432373 11.811845779418945 L11.33942699432373 11.811845779418945 C11.345245361328125 11.930000305175781 11.35106372833252 12.048154830932617 11.356882095336914 12.166309356689453 L11.356882095336914 12.166309356689453 C11.307618141174316 12.174509048461914 11.258355140686035 12.182709693908691 11.209091186523438 12.190909385681152 L11.209091186523438 12.190909385681152 C11.209091186523438 12.172727584838867 11.209091186523438 12.154545783996582 11.209091186523438 12.136363983154297 L11.209091186523438 12.136363983154297 C11.250334739685059 12.100668907165527 11.242838859558105 12.015579223632812 11.209091186523438 11.97272777557373 L11.209091186523438 11.97272777557373 C11.209091186523438 11.954545974731445 11.209091186523438 11.93636417388916 11.209091186523438 11.918182373046875 L11.209091186523438 11.918182373046875 C11.23108196258545 11.883736610412598 11.253072738647461 11.84929084777832 11.275063514709473 11.814845085144043 L11.275063514709473 11.814845085144043 C11.296518325805664 11.81384563446045 11.317972183227539 11.812845230102539 11.33942699432373 11.811845779418945 L11.33942699432373 11.811845779418945"></path></svg>