<svg xmlns="http://www.w3.org/2000/svg" viewBox="0.0 0.0 24.0 24.0" height="200px" width="200px"><path fill="none" stroke="black" stroke-width=".3" stroke-opacity="1.0"  filling="0" d="M13.155735969543457 11.956636428833008 L13.155735969543457 11.956636428833008 C13.137054443359375 12.006936073303223 13.118371963500977 12.057236671447754 13.099690437316895 12.107536315917969 L13.099690437316895 12.107536315917969 C13.090153694152832 12.104808807373047 13.080617904663086 12.102082252502441 13.071081161499023 12.09935474395752 L13.071081161499023 12.09935474395752 C13.074969291687012 12.06335735321045 13.11838436126709 12.154831886291504 13.146926879882812 12.177109718322754 L13.146926879882812 12.177109718322754 C13.08569049835205 12.195363998413086 13.024454116821289 12.213619232177734 12.963217735290527 12.231873512268066 L12.963217735290527 12.231873512268066 C13.005790710449219 12.254573822021484 13.04836368560791 12.277273178100586 13.090936660766602 12.299973487854004 L13.090936660766602 12.299973487854004 C13.036381721496582 12.299982070922852 12.981827735900879 12.2999906539917 12.92727279663086 12.299999237060547 L12.92727279663086 12.299999237060547 C12.936799049377441 12.16285514831543 13.021963119506836 11.988326072692871 13.155735969543457 11.956636428833008 L13.155735969543457 11.956636428833008"></path></svg>