<svg xmlns="http://www.w3.org/2000/svg" viewBox="0.0 0.0 24.0 24.0" height="200px" width="200px"><path fill="none" stroke="black" stroke-width=".3" stroke-opacity="1.0"  filling="0" d="M4.727781295776367 11.212499618530273 L4.727781295776367 11.212499618530273 C5.536381721496582 11.396716117858887 5.192562580108643 14.543062210083008 5.041472911834717 15.332944869995117 C4.977080345153809 15.66958236694336 5.056751251220703 16.22032356262207 4.726418495178223 16.311710357666016 C4.401642322540283 16.401559829711914 4.3815178871154785 16.01156234741211 4.365354537963867 15.799254417419434 C4.3155927658081055 15.145624160766602 4.312839031219482 14.488929748535156 4.312145233154297 13.83340835571289 C4.311883449554443 13.586237907409668 4.349400520324707 13.340431213378906 4.362491130828857 13.093607902526855 C4.398623943328857 12.412328720092773 4.47931432723999 11.84850788116455 4.727781295776367 11.212499618530273 L4.727781295776367 11.212499618530273"></path>
<path fill="none" stroke="black" stroke-width=".3" stroke-opacity="1.0"  filling="0" d="M4.771417617797852 12.005617141723633 L4.771417617797852 12.005617141723633 C5.034860610961914 12.993935585021973 5.150574684143066 14.761690139770508 4.673072814941406 15.667498588562012 L4.673072814941406 15.667498588562012 C4.294329643249512 14.602272033691406 4.555627822875977 13.112950325012207 4.727182388305664 12.00957202911377 L4.727182388305664 12.00957202911377 C4.741927623748779 12.008254051208496 4.756672382354736 12.006935119628906 4.771417617797852 12.005617141723633 L4.771417617797852 12.005617141723633"></path></svg>