<svg xmlns="http://www.w3.org/2000/svg" viewBox="0.0 0.0 24.0 24.0" height="200px" width="200px"><path fill="none" stroke="black" stroke-width=".3" stroke-opacity="1.0"  filling="0" d="M7.103454113006592 9.175008773803711 L7.103454113006592 9.175008773803711 C8.056502342224121 9.472901344299316 7.865169525146484 10.095183372497559 7.959845542907715 11.04308032989502 L7.959845542907715 11.04308032989502 C7.953409194946289 11.04393482208252 7.946972846984863 11.044790267944336 7.9405364990234375 11.045644760131836 L7.9405364990234375 11.045644760131836 C7.929281711578369 11.320918083190918 7.938499450683594 11.597793579101562 7.906772136688232 11.871463775634766 C7.810861110687256 12.698763847351074 7.17485237121582 14.69811725616455 6.665017604827881 14.03956413269043 C5.860115051269531 12.999872207641602 6.385172367095947 10.110198974609375 7.103454113006592 9.175008773803711 L7.103454113006592 9.175008773803711"></path>
<path fill="none" stroke="black" stroke-width=".3" stroke-opacity="1.0"  filling="0" d="M7.288418292999268 9.629073143005371 L7.288418292999268 9.629073143005371 C7.648909091949463 10.354353904724121 7.690202713012695 13.097580909729004 7.003500461578369 13.67609977722168 L7.003500461578369 13.67609977722168 C6.5064263343811035 12.997712135314941 6.73422384262085 10.267415046691895 7.288418292999268 9.629073143005371 L7.288418292999268 9.629073143005371"></path></svg>