<svg xmlns="http://www.w3.org/2000/svg" viewBox="0.0 0.0 24.0 24.0" height="200px" width="200px"><path fill="none" stroke="black" stroke-width=".3" stroke-opacity="1.0"  filling="0" d="M7.935708999633789 10.519524574279785 L7.935708999633789 10.519524574279785 C7.8195977210998535 11.589327812194824 8.007645606994629 14.216798782348633 7.273826599121094 15.00291633605957 L7.273826599121094 15.00291633605957 C6.888280868530273 14.385656356811523 7.04316520690918 12.766059875488281 6.941590785980225 12.025718688964844 L6.941590785980225 12.025718688964844 C6.909873008728027 12.030500411987305 6.878154754638672 12.03528118133545 6.846436977386475 12.04006290435791 L6.846436977386475 12.04006290435791 C6.890653610229492 11.70302963256836 6.89853572845459 11.405086517333984 7.281464099884033 11.24462604522705 L7.281464099884033 11.24462604522705 C7.278441429138184 12.101120948791504 7.2331414222717285 12.90800666809082 7.3567094802856445 13.778945922851562 L7.3567094802856445 13.778945922851562 C7.368282318115234 13.77901840209961 7.379854679107666 13.779090881347656 7.391427516937256 13.779163360595703 L7.391427516937256 13.779163360595703 C7.472850322723389 12.954212188720703 7.600078105926514 12.114477157592773 7.554927825927734 11.285889625549316 L7.554927825927734 11.285889625549316 C7.518691539764404 11.32741641998291 7.482454776763916 11.36894416809082 7.446218490600586 11.410470962524414 L7.446218490600586 11.410470962524414 C7.424815654754639 11.017342567443848 7.6907148361206055 10.79081916809082 7.935708999633789 10.519524574279785 L7.935708999633789 10.519524574279785"></path></svg>