<svg xmlns="http://www.w3.org/2000/svg" viewBox="0.0 0.0 24.0 24.0" height="200px" width="200px"><path fill="none" stroke="black" stroke-width=".3" stroke-opacity="1.0"  filling="0" d="M10.40694808959961 11.027154922485352 L10.40694808959961 11.027154922485352 C12.382463455200195 11.037622451782227 11.198066711425781 12.268513679504395 11.790739059448242 13.42791748046875 L11.790739059448242 13.42791748046875 C11.845911979675293 13.263326644897461 11.901083946228027 13.098735809326172 11.956256866455078 12.934144973754883 L11.956256866455078 12.934144973754883 C11.967565536499023 12.931290626525879 11.978873252868652 12.928436279296875 11.990181922912598 12.925581932067871 L11.990181922912598 12.925581932067871 C12.19734001159668 13.516085624694824 11.287311553955078 14.000545501708984 11.02546501159668 13.329327583312988 L11.02546501159668 13.329327583312988 C10.68480396270752 13.773575782775879 9.919405937194824 13.907309532165527 9.801629066467285 13.178019523620605 C9.636481285095215 12.155404090881348 11.183992385864258 12.247830390930176 10.93020248413086 11.251173973083496 C10.719541549682617 10.42388916015625 10.443574905395508 12.688011169433594 10.105557441711426 11.974581718444824 C9.782793998718262 11.29334831237793 10.051684379577637 11.237530708312988 10.40694808959961 11.027154922485352 L10.40694808959961 11.027154922485352"></path>
<path fill="none" stroke="black" stroke-width=".3" stroke-opacity="1.0"  filling="0" d="M10.963855743408203 11.87457275390625 L10.963855743408203 11.87457275390625 C10.972891807556152 11.878472328186035 10.981927871704102 11.882372856140137 10.99096393585205 11.886272430419922 L10.99096393585205 11.886272430419922 C10.995079040527344 13.986194610595703 10.201079368591309 13.120272636413574 10.963855743408203 11.87457275390625 L10.963855743408203 11.87457275390625"></path></svg>