<svg xmlns="http://www.w3.org/2000/svg" viewBox="0.0 0.0 24.0 24.0" height="200px" width="200px"><path fill="none" stroke="black" stroke-width=".3" stroke-opacity="1.0"  filling="0" d="M10.449054718017578 11.888507843017578 L10.449054718017578 11.888507843017578 C10.407254219055176 11.999016761779785 10.36545467376709 12.109526634216309 10.323654174804688 12.220035552978516 L10.323654174804688 12.220035552978516 C10.303817749023438 12.15519905090332 10.283981323242188 12.090363502502441 10.264144897460938 12.025527000427246 L10.264144897460938 12.025527000427246 C10.231762886047363 12.090235710144043 10.199381828308105 12.154945373535156 10.166999816894531 12.219654083251953 L10.166999816894531 12.219654083251953 C10.153108596801758 12.219599723815918 10.1392183303833 12.219545364379883 10.125327110290527 12.219491004943848 L10.125327110290527 12.219491004943848 C10.09550952911377 12.122891426086426 10.065690994262695 12.026290893554688 10.035873413085938 11.929691314697266 L10.035873413085938 11.929691314697266 C10.049027442932129 11.924890518188477 10.062182426452637 11.920090675354004 10.075336456298828 11.915289878845215 L10.075336456298828 11.915289878845215 C10.096636772155762 11.971071243286133 10.117936134338379 12.026853561401367 10.139236450195312 12.082634925842285 L10.139236450195312 12.082634925842285 C10.190272331237793 12.029108047485352 10.24130916595459 11.975580215454102 10.29234504699707 11.922053337097168 L10.29234504699707 11.922053337097168 C10.311200141906738 11.979226112365723 10.33005428314209 12.036398887634277 10.348909378051758 12.093571662902832 L10.348909378051758 12.093571662902832 C10.382290840148926 12.025217056274414 10.41567325592041 11.956862449645996 10.449054718017578 11.888507843017578 L10.449054718017578 11.888507843017578"></path></svg>