<svg xmlns="http://www.w3.org/2000/svg" viewBox="0.0 0.0 24.0 24.0" height="200px" width="200px"><path fill="none" stroke="black" stroke-width=".3" stroke-opacity="1.0"  filling="0" d="M12.42671012878418 11.041853904724121 L12.42671012878418 11.041853904724121 C13.512372970581055 11.042732238769531 13.098532676696777 11.82978343963623 13.482873916625977 12.616689682006836 L13.482873916625977 12.616689682006836 C13.602038383483887 12.521514892578125 13.660698890686035 12.347064018249512 13.65932846069336 12.194562911987305 L13.65932846069336 12.194562911987305 C13.799619674682617 12.87081527709961 13.422536849975586 12.854628562927246 12.856228828430176 12.741026878356934 L12.856228828430176 12.741026878356934 C12.408514022827148 13.097001075744629 11.563457489013672 13.237136840820312 11.701038360595703 12.320181846618652 C11.730676651000977 12.122650146484375 13.33383846282959 10.988537788391113 12.139801025390625 11.206171989440918 L12.139801025390625 11.206171989440918 C12.241281509399414 11.430926322937012 12.362517356872559 11.625750541687012 12.187909126281738 11.8615083694458 L12.187909126281738 11.8615083694458 C11.201953887939453 11.943933486938477 11.994855880737305 11.206358909606934 12.42671012878418 11.041853904724121 L12.42671012878418 11.041853904724121"></path>
<path fill="none" stroke="black" stroke-width=".3" stroke-opacity="1.0"  filling="0" d="M12.637473106384277 11.680854797363281 L12.637473106384277 11.680854797363281 C12.72163200378418 12.066840171813965 13.02633285522461 12.672450065612793 12.511500358581543 12.776372909545898 L12.511500358581543 12.776372909545898 C12.42833137512207 12.202800750732422 12.29642391204834 12.061996459960938 12.637473106384277 11.680854797363281 L12.637473106384277 11.680854797363281"></path></svg>