<svg xmlns="http://www.w3.org/2000/svg" viewBox="0.0 0.0 24.0 24.0" height="200px" width="200px"><path fill="none" stroke="black" stroke-width=".3" stroke-opacity="1.0"  filling="0" d="M1.2469091415405273 8.89172649383545 L1.2469091415405273 8.89172649383545 C1.2767366170883179 8.893299102783203 1.3065639734268188 8.894871711730957 1.3363914489746094 8.896444320678711 L1.3363914489746094 8.896444320678711 C1.3363914489746094 10.633474349975586 1.1832643747329712 12.472089767456055 1.352808952331543 14.200225830078125 L1.352808952331543 14.200225830078125 C1.4270540475845337 14.193171501159668 1.501299262046814 14.186117172241211 1.5755443572998047 14.179062843322754 L1.5755443572998047 14.179062843322754 C1.5755443572998047 14.241299629211426 1.5755443572998047 14.303535461425781 1.5755443572998047 14.365772247314453 L1.5755443572998047 14.365772247314453 C1.198571801185608 14.37692642211914 0.8215993642807007 14.388081550598145 0.4446268081665039 14.399235725402832 L0.4446268081665039 14.399235725402832 C0.4446268081665039 14.338308334350586 0.4446268081665039 14.27738094329834 0.4446268081665039 14.216453552246094 L0.4446268081665039 14.216453552246094 C0.5042632222175598 14.212207794189453 0.5638996958732605 14.207962036132812 0.6235361099243164 14.203716278076172 L0.6235361099243164 14.203716278076172 C0.8889985084533691 12.690601348876953 0.7165431976318359 10.584105491638184 0.6042814254760742 9.12976360321045 L0.6042814254760742 9.12976360321045 C0.0254056453704834 9.077471733093262 1.1619523763656616 8.897479057312012 1.2469091415405273 8.89172649383545 L1.2469091415405273 8.89172649383545"></path></svg>