<svg xmlns="http://www.w3.org/2000/svg" viewBox="0.0 0.0 24.0 24.0" height="200px" width="200px"><path fill="none" stroke="black" stroke-width=".3" stroke-opacity="1.0"  filling="0" d="M12.895800590515137 10.362381935119629 L12.895800590515137 10.362381935119629 C12.947991371154785 10.621527671813965 13.000182151794434 10.880672454833984 13.052372932434082 11.13981819152832 L13.052372932434082 11.13981819152832 C13.172518730163574 11.124809265136719 13.29266357421875 11.109800338745117 13.412809371948242 11.094791412353516 L13.412809371948242 11.094791412353516 C13.403200149536133 11.119536399841309 13.393590927124023 11.144282341003418 13.383981704711914 11.169027328491211 L13.383981704711914 11.169027328491211 C13.276727676391602 11.188809394836426 13.169472694396973 11.208590507507324 13.06221866607666 11.228372573852539 L13.06221866607666 11.228372573852539 C13.152963638305664 11.719208717346191 13.243709564208984 12.21004581451416 13.334454536437988 12.700881958007812 L13.334454536437988 12.700881958007812 C13.445833206176758 12.610721588134766 13.515583038330078 12.44710636138916 13.500981330871582 12.30455493927002 L13.500981330871582 12.30455493927002 C13.372861862182617 14.328527450561523 12.571840286254883 11.779603958129883 12.397308349609375 11.346489906311035 L12.397308349609375 11.346489906311035 C12.313445091247559 11.357053756713867 12.229581832885742 11.367616653442383 12.145718574523926 11.378180503845215 L12.145718574523926 11.378180503845215 C12.383590698242188 11.040889739990234 12.621463775634766 10.703598976135254 12.859335899353027 10.366308212280273 L12.859335899353027 10.366308212280273 C12.871490478515625 10.364999771118164 12.883646011352539 10.363690376281738 12.895800590515137 10.362381935119629 L12.895800590515137 10.362381935119629"></path></svg>