<svg xmlns="http://www.w3.org/2000/svg" viewBox="0.0 0.0 24.0 24.0" height="200px" width="200px"><path fill="none" stroke="black" stroke-width=".3" stroke-opacity="1.0"  filling="0" d="M7.608491897583008 10.28209114074707 L7.608491897583008 10.28209114074707 C7.608491897583008 10.416008949279785 7.608491897583008 10.549927711486816 7.608491897583008 10.683845520019531 L7.608491897583008 10.683845520019531 C7.618128299713135 10.686245918273926 7.6277642250061035 10.688645362854004 7.6374006271362305 10.691045761108398 L7.6374006271362305 10.691045761108398 C8.110626220703125 9.94093132019043 8.32059383392334 10.678574562072754 8.29167366027832 11.343462944030762 L8.295736312866211 11.338991165161133 C8.046582221984863 11.799769401550293 7.832097053527832 11.748380661010742 7.636173248291016 11.28038215637207 L7.636173248291016 11.28038215637207 C7.500533103942871 11.955467224121094 7.5290608406066895 13.437675476074219 7.632573127746582 14.118517875671387 L7.632573127746582 14.118517875671387 C7.677036762237549 14.123700141906738 7.721500396728516 14.128881454467773 7.765964031219482 14.134063720703125 L7.765964031219482 14.134063720703125 C7.765964031219482 14.186573028564453 7.765964031219482 14.239081382751465 7.765964031219482 14.291590690612793 L7.765964031219482 14.291590690612793 C7.454209327697754 14.303727149963379 7.142455101013184 14.315862655639648 6.830700397491455 14.327999114990234 L6.830700397491455 14.327999114990234 C6.814082145690918 14.273435592651367 6.797463893890381 14.2188720703125 6.780845642089844 14.164308547973633 L6.780845642089844 14.164308547973633 C7.630193710327148 12.771211624145508 5.7231855392456055 10.293519020080566 7.608491897583008 10.28209114074707 L7.608491897583008 10.28209114074707"></path></svg>