<svg xmlns="http://www.w3.org/2000/svg" viewBox="0.0 0.0 24.0 24.0" height="200px" width="200px"><path fill="none" stroke="black" stroke-width=".3" stroke-opacity="1.0"  filling="0" d="M20.897510528564453 10.324417114257812 L20.897510528564453 10.324417114257812 C21.507307052612305 11.425568580627441 20.701091766357422 13.257792472839355 21.405357360839844 14.116117477416992 L21.405357360839844 14.116117477416992 C21.42031478881836 14.441512107849121 20.563823699951172 14.373111724853516 20.563613891601562 14.069700241088867 C20.563438415527344 13.813855171203613 20.767444610595703 10.802050590515137 20.44824981689453 10.751673698425293 C20.10414695739746 10.697365760803223 20.204376220703125 13.977157592773438 20.432781219482422 14.094463348388672 L20.432781219482422 14.094463348388672 C20.432781219482422 14.171627044677734 20.432781219482422 14.248790740966797 20.432781219482422 14.32595443725586 L20.432781219482422 14.32595443725586 C18.531627655029297 14.143528938293457 19.527217864990234 12.457427024841309 19.527217864990234 10.541210174560547 L19.527217864990234 10.541210174560547 C19.484853744506836 10.533400535583496 19.44249153137207 10.525591850280762 19.400127410888672 10.517782211303711 L19.400127410888672 10.517782211303711 C19.400127410888672 10.456209182739258 19.400127410888672 10.394636154174805 19.400127410888672 10.333063125610352 L19.400127410888672 10.333063125610352 C19.678863525390625 10.333063125610352 19.957599639892578 10.333063125610352 20.23633575439453 10.333063125610352 L20.23633575439453 10.333063125610352 C20.245800018310547 10.425053596496582 20.255264282226562 10.517045021057129 20.264728546142578 10.60903549194336 L20.264728546142578 10.60903549194336 C20.412906646728516 10.431455612182617 20.667457580566406 10.34822940826416 20.897510528564453 10.324417114257812 L20.897510528564453 10.324417114257812"></path></svg>