<svg xmlns="http://www.w3.org/2000/svg" viewBox="0.0 0.0 24.0 24.0" height="200px" width="200px"><path fill="none" stroke="black" stroke-width=".3" stroke-opacity="1.0"  filling="0" d="M22.308053970336914 8.498918533325195 L22.308053970336914 8.498918533325195 C22.308053970336914 9.103109359741211 22.308053970336914 9.707300186157227 22.308053970336914 10.311491012573242 L22.308053970336914 10.311491012573242 C22.435171127319336 10.30039119720459 22.56229019165039 10.289290428161621 22.689407348632812 10.278190612792969 L22.689407348632812 10.278190612792969 C22.70173454284668 10.352263450622559 22.71406364440918 10.426336288452148 22.726390838623047 10.500409126281738 L22.726390838623047 10.500409126281738 C21.831768035888672 10.500508308410645 22.269245147705078 13.224663734436035 22.336254119873047 13.6923828125 L22.336254119873047 13.6923828125 C22.549671173095703 13.385740280151367 22.483976364135742 13.191448211669922 22.508426666259766 12.821756362915039 L22.508426666259766 12.821756362915039 C22.5174617767334 12.821056365966797 22.526498794555664 12.820355415344238 22.535533905029297 12.819655418395996 L22.535533905029297 12.819655418395996 C22.550004959106445 12.858662605285645 22.605178833007812 14.884859085083008 21.894107818603516 14.245774269104004 C21.15671157836914 13.583029747009277 21.693735122680664 11.330925941467285 21.60602569580078 10.47810173034668 L21.60602569580078 10.47810173034668 C21.212692260742188 10.453703880310059 22.063905715942383 8.601761817932129 22.308053970336914 8.498918533325195 L22.308053970336914 8.498918533325195"></path></svg>