<svg xmlns="http://www.w3.org/2000/svg" viewBox="0.0 0.0 24.0 24.0" height="200px" width="200px"><path fill="none" stroke="black" stroke-width=".3" stroke-opacity="1.0"  filling="0" d="M15.190910339355469 10.609064102172852 L15.190910339355469 10.609064102172852 C15.190909385681152 11.54543685913086 15.190909385681152 12.481809616088867 15.190909385681152 13.418182373046875 L15.190909385681152 13.418182373046875 C15.075077056884766 13.439560890197754 14.956952095031738 13.458438873291016 14.83928108215332 13.453173637390137 L14.83928108215332 13.453173637390137 C14.836400032043457 13.438355445861816 14.833518028259277 13.42353630065918 14.830636978149414 13.40871810913086 L14.830636978149414 13.40871810913086 C14.878918647766113 13.384954452514648 14.927200317382812 13.361190795898438 14.975481986999512 13.337427139282227 L14.975481986999512 13.337427139282227 C14.836071968078613 12.502795219421387 14.692014694213867 11.668926239013672 14.543209075927734 10.835918426513672 L14.543209075927734 10.835918426513672 C14.46720027923584 10.843518257141113 14.391191482543945 10.851119041442871 14.31518268585205 10.858718872070312 L14.31518268585205 10.858718872070312 C14.595176696777344 10.704564094543457 14.919305801391602 10.757669448852539 15.190910339355469 10.609064102172852 L15.190910339355469 10.609064102172852"></path></svg>