<svg xmlns="http://www.w3.org/2000/svg" viewBox="0.0 0.0 24.0 24.0" height="200px" width="200px"><path fill="none" stroke="black" stroke-width=".3" stroke-opacity="1.0"  filling="0" d="M12.709336280822754 11.761146545410156 L12.709336280822754 11.761146545410156 C12.772518157958984 11.88521957397461 12.835700988769531 12.009291648864746 12.898882865905762 12.1333646774292 L12.898882865905762 12.1333646774292 C12.710391998291016 12.1333646774292 12.521900177001953 12.133363723754883 12.333409309387207 12.133363723754883 L12.333409309387207 12.133363723754883 C12.498727798461914 12.229409217834473 12.664045333862305 12.325455665588379 12.829363822937012 12.421501159667969 L12.829363822937012 12.421501159667969 C12.633861541748047 12.779497146606445 11.517200469970703 12.07461166381836 12.709336280822754 11.761146545410156 L12.709336280822754 11.761146545410156"></path>
<path fill="none" stroke="black" stroke-width=".3" stroke-opacity="1.0"  filling="0" d="M12.439717292785645 11.828973770141602 L12.439717292785645 11.828973770141602 C12.559577941894531 11.831483840942383 12.667283058166504 11.96013355255127 12.702245712280273 12.074809074401855 L12.702245712280273 12.074809074401855 C12.580818176269531 12.074809074401855 12.459390640258789 12.074809074401855 12.337963104248047 12.074809074401855 L12.337963104248047 12.074809074401855 C12.371881484985352 11.992863655090332 12.40579891204834 11.910919189453125 12.439717292785645 11.828973770141602 L12.439717292785645 11.828973770141602"></path></svg>