<svg xmlns="http://www.w3.org/2000/svg" viewBox="0.0 0.0 24.0 24.0" height="200px" width="200px"><path fill="none" stroke="black" stroke-width=".3" stroke-opacity="1.0"  filling="0" d="M11.192536354064941 11.736734390258789 L11.192536354064941 11.736734390258789 C11.350876808166504 12.073046684265137 11.232197761535645 12.3258638381958 11.503854751586914 12.587345123291016 L11.503854751586914 12.587345123291016 C11.38084602355957 12.61966323852539 11.25783634185791 12.651981353759766 11.134827613830566 12.68429946899414 L11.134827613830566 12.68429946899414 C11.130890846252441 12.645408630371094 11.126955032348633 12.606517791748047 11.123018264770508 12.567626953125 L11.123018264770508 12.567626953125 C10.495261192321777 12.882461547851562 10.448220252990723 12.265238761901855 11.134364128112793 12.06613540649414 L11.134364128112793 12.06613540649414 C11.12290096282959 11.985435485839844 11.11143684387207 11.90473461151123 11.099973678588867 11.824034690856934 L11.099973678588867 11.824034690856934 C10.985309600830078 11.863089561462402 10.870646476745605 11.902143478393555 10.755982398986816 11.941198348999023 L10.755982398986816 11.941198348999023 C10.718708992004395 11.941198348999023 10.681436538696289 11.941198348999023 10.644163131713867 11.941198348999023 L10.644163131713867 11.941198348999023 C10.644163131713867 11.8820161819458 10.644163131713867 11.822834968566895 10.644163131713867 11.763652801513672 L10.644163131713867 11.763652801513672 C10.826953887939453 11.754679679870605 11.009745597839355 11.745707511901855 11.192536354064941 11.736734390258789 L11.192536354064941 11.736734390258789"></path>
<path fill="none" stroke="black" stroke-width=".3" stroke-opacity="1.0"  filling="0" d="M11.121108055114746 12.20078182220459 L11.121108055114746 12.20078182220459 C10.927275657653809 12.848098754882812 10.541141510009766 12.317458152770996 11.121108055114746 12.20078182220459 L11.121108055114746 12.20078182220459"></path></svg>