<svg xmlns="http://www.w3.org/2000/svg" viewBox="0.0 0.0 24.0 24.0" height="200px" width="200px"><path fill="none" stroke="black" stroke-width=".3" stroke-opacity="1.0"  filling="0" d="M9.82467269897461 11.42667293548584 L9.82467269897461 11.42667293548584 C10.012072563171387 11.438482284545898 10.19947338104248 11.45029067993164 10.386873245239258 11.4621000289917 L10.386873245239258 11.4621000289917 C10.386873245239258 11.547773361206055 10.386873245239258 11.633445739746094 10.386873245239258 11.71911907196045 L10.386873245239258 11.71911907196045 C10.354290962219238 11.721382141113281 10.321709632873535 11.72364616394043 10.289127349853516 11.725909233093262 L10.289127349853516 11.725909233093262 C10.266128540039062 11.501548767089844 10.156091690063477 11.301522254943848 9.796309471130371 11.577763557434082 C9.534266471862793 11.778961181640625 11.435871124267578 12.511075973510742 9.60441780090332 12.544419288635254 L9.60441780090332 12.544419288635254 C9.60441780090332 12.438383102416992 9.60441780090332 12.332345962524414 9.60441780090332 12.226309776306152 L9.60441780090332 12.226309776306152 C9.635953903198242 12.22458267211914 9.66749095916748 12.222855567932129 9.699027061462402 12.221128463745117 L9.699027061462402 12.221128463745117 C9.756386756896973 12.57536792755127 10.320494651794434 12.628385543823242 10.25296401977539 12.266373634338379 C10.15981674194336 11.767035484313965 9.263158798217773 12.143942832946777 9.82467269897461 11.42667293548584 L9.82467269897461 11.42667293548584"></path></svg>