<svg xmlns="http://www.w3.org/2000/svg" viewBox="0.0 0.0 24.0 24.0" height="200px" width="200px"><path fill="none" stroke="black" stroke-width=".3" stroke-opacity="1.0"  filling="0" d="M13.3065824508667 11.756426811218262 L13.3065824508667 11.756426811218262 C13.549540519714355 12.013046264648438 13.403355598449707 12.229940414428711 13.605981826782227 12.509563446044922 L13.605981826782227 12.509563446044922 C13.52568244934082 12.55375862121582 13.434530258178711 12.57984733581543 13.343700408935547 12.592145919799805 L13.343700408935547 12.592145919799805 C13.338445663452148 12.54729175567627 13.33319091796875 12.502436637878418 13.327936172485352 12.457582473754883 L13.327936172485352 12.457582473754883 C12.612587928771973 13.017294883728027 13.53921127319336 11.866451263427734 13.0280179977417 11.81689167022705 L13.0280179977417 11.81689167022705 C13.01806354522705 11.858036994934082 13.008109092712402 11.899182319641113 12.998154640197754 11.940327644348145 L12.998154640197754 11.940327644348145 C12.968463897705078 11.940327644348145 12.938772201538086 11.940327644348145 12.90908145904541 11.940327644348145 L12.90908145904541 11.940327644348145 C12.909090995788574 11.882536888122559 12.909099578857422 11.824745178222656 12.909109115600586 11.76695442199707 L12.909109115600586 11.76695442199707 C13.041600227355957 11.763444900512695 13.174091339111328 11.759936332702637 13.3065824508667 11.756426811218262 L13.3065824508667 11.756426811218262"></path>
<path fill="none" stroke="black" stroke-width=".3" stroke-opacity="1.0"  filling="0" d="M13.322699546813965 12.1589994430542 L13.322699546813965 12.1589994430542 C13.128514289855957 12.688992500305176 12.823864936828613 12.33992862701416 13.322699546813965 12.1589994430542 L13.322699546813965 12.1589994430542"></path></svg>