<svg xmlns="http://www.w3.org/2000/svg" viewBox="0.0 0.0 24.0 24.0" height="200px" width="200px"><path fill="none" stroke="black" stroke-width=".3" stroke-opacity="1.0"  filling="0" d="M17.503662109375 11.423480987548828 L17.503662109375 11.423480987548828 C17.503662109375 11.849881172180176 17.503662109375 12.276281356811523 17.503662109375 12.702681541442871 L17.503662109375 12.702681541442871 C17.58493423461914 12.706490516662598 17.666208267211914 12.710299491882324 17.747480392456055 12.71410846710205 L17.747480392456055 12.71410846710205 C17.747480392456055 12.763581275939941 17.747480392456055 12.813053131103516 17.747480392456055 12.862525939941406 L17.747480392456055 12.862525939941406 C17.574689865112305 12.862525939941406 17.401897430419922 12.862525939941406 17.229106903076172 12.862525939941406 L17.229106903076172 12.862525939941406 C17.229106903076172 12.779972076416016 17.229106903076172 12.697417259216309 17.229106903076172 12.614863395690918 L17.229106903076172 12.614863395690918 C16.284133911132812 13.463197708129883 16.375017166137695 12.243600845336914 16.28118896484375 11.612372398376465 L16.28118896484375 11.612372398376465 C16.203052520751953 11.618818283081055 16.12491798400879 11.625263214111328 16.046781539916992 11.631709098815918 L16.046781539916992 11.631709098815918 C16.046781539916992 11.576090812683105 16.046781539916992 11.520472526550293 16.046781539916992 11.46485424041748 L16.046781539916992 11.46485424041748 C16.230844497680664 11.452590942382812 16.41490936279297 11.440326690673828 16.59897232055664 11.42806339263916 L16.59897232055664 11.42806339263916 C16.635135650634766 11.857087135314941 16.577899932861328 12.874557495117188 16.95635414123535 12.669272422790527 C17.169736862182617 12.553525924682617 17.456268310546875 11.51020336151123 16.990581512451172 11.63457202911377 L16.990581512451172 11.63457202911377 C17.08652114868164 11.476469039916992 17.319242477416992 11.437286376953125 17.503662109375 11.423480987548828 L17.503662109375 11.423480987548828"></path></svg>