<svg xmlns="http://www.w3.org/2000/svg" viewBox="0.0 0.0 24.0 24.0" height="200px" width="200px"><path fill="none" stroke="black" stroke-width=".3" stroke-opacity="1.0"  filling="0" d="M12.587945938110352 11.345073699951172 L12.587945938110352 11.345073699951172 C12.895065307617188 11.673243522644043 12.681873321533203 12.528632164001465 12.681873321533203 12.927492141723633 L12.681873321533203 12.927492141723633 C12.556227684020996 12.927492141723633 12.430582046508789 12.927492141723633 12.304936408996582 12.927492141723633 L12.304936408996582 12.927492141723633 C12.30067253112793 12.880692481994629 12.296409606933594 12.833891868591309 12.292145729064941 12.787092208862305 L12.292145729064941 12.787092208862305 C11.141557693481445 13.41567611694336 11.239883422851562 12.076425552368164 11.237454414367676 11.348318099975586 L11.237454414367676 11.348318099975586 C11.36989974975586 11.348318099975586 11.50234603881836 11.348318099975586 11.634791374206543 11.348318099975586 L11.634791374206543 11.348318099975586 C11.6661958694458 11.672337532043457 11.559494972229004 12.010889053344727 11.645455360412598 12.324872970581055 C11.886605262756348 13.205711364746094 12.389122009277344 11.742644309997559 12.270273208618164 11.345645904541016 L12.270273208618164 11.345645904541016 C12.376164436340332 11.345455169677734 12.482054710388184 11.345264434814453 12.587945938110352 11.345073699951172 L12.587945938110352 11.345073699951172"></path></svg>