<svg xmlns="http://www.w3.org/2000/svg" viewBox="0.0 0.0 24.0 24.0" height="200px" width="200px"><path fill="none" stroke="black" stroke-width=".3" stroke-opacity="1.0"  filling="0" d="M24.787010192871094 11.240891456604004 L24.787010192871094 11.240891456604004 C24.91365623474121 11.277327537536621 25.040300369262695 11.313763618469238 25.166946411132812 11.350199699401855 L25.166946411132812 11.350199699401855 C25.171010971069336 11.324235916137695 25.175073623657227 11.298273086547852 25.17913818359375 11.272309303283691 L25.17913818359375 11.272309303283691 C25.302547454833984 11.263445854187012 25.42595672607422 11.254581451416016 25.549365997314453 11.245718002319336 L25.549365997314453 11.245718002319336 C25.62053680419922 11.6653470993042 25.944005966186523 13.065984725952148 25.303062438964844 13.314300537109375 C25.250314712524414 13.334735870361328 23.9075870513916 13.59874439239502 24.117218017578125 12.931499481201172 L24.117218017578125 12.931499481201172 C24.24407196044922 12.931499481201172 24.370927810668945 12.931499481201172 24.49778175354004 12.931499481201172 L24.49778175354004 12.931499481201172 C24.71856689453125 13.017341613769531 25.05729866027832 12.902392387390137 25.167028427124023 12.69245433807373 L25.167028427124023 12.69245433807373 C23.882638931274414 13.044498443603516 23.863277435302734 11.896085739135742 24.787010192871094 11.240891456604004 L24.787010192871094 11.240891456604004"></path>
<path fill="none" stroke="black" stroke-width=".3" stroke-opacity="1.0"  filling="0" d="M24.909027099609375 11.596718788146973 L24.909027099609375 11.596718788146973 C25.915706634521484 12.832423210144043 23.45327377319336 12.132288932800293 24.909027099609375 11.596718788146973 L24.909027099609375 11.596718788146973"></path></svg>