<svg xmlns="http://www.w3.org/2000/svg" viewBox="0.0 0.0 24.0 24.0" height="200px" width="200px"><path fill="none" stroke="black" stroke-width=".3" stroke-opacity="1.0"  filling="0" d="M20.89090919494629 11.2879638671875 L20.89090919494629 11.2879638671875 C20.89090919494629 12.659534454345703 21.54143714904785 12.900513648986816 21.545429229736328 11.29614543914795 L21.545429229736328 11.29614543914795 C21.670074462890625 11.29614543914795 21.79471778869629 11.29614543914795 21.919363021850586 11.29614543914795 L21.919363021850586 11.29614543914795 C21.919363021850586 11.828527450561523 21.919363021850586 12.360908508300781 21.919363021850586 12.893290519714355 L21.919363021850586 12.893290519714355 C21.79615592956543 12.893290519714355 21.67294692993164 12.893290519714355 21.549739837646484 12.893290519714355 L21.549739837646484 12.893290519714355 C21.54719352722168 12.850881576538086 21.544645309448242 12.8084716796875 21.542098999023438 12.76606273651123 L21.542098999023438 12.76606273651123 C20.491758346557617 13.272979736328125 20.267717361450195 12.234630584716797 20.524065017700195 11.314037322998047 L20.524065017700195 11.314037322998047 C20.646347045898438 11.305346488952637 20.768627166748047 11.29665470123291 20.89090919494629 11.2879638671875 L20.89090919494629 11.2879638671875"></path></svg>