<svg xmlns="http://www.w3.org/2000/svg" viewBox="0.0 0.0 24.0 24.0" height="200px" width="200px"><path fill="none" stroke="black" stroke-width=".3" stroke-opacity="1.0"  filling="0" d="M10.587627410888672 11.351806640625 L10.587627410888672 11.351806640625 C10.981853485107422 11.881621360778809 10.868671417236328 12.297472953796387 10.905927658081055 12.93250846862793 L10.905927658081055 12.93250846862793 C10.777291297912598 12.93250846862793 10.648653984069824 12.93250846862793 10.520017623901367 12.93250846862793 L10.520017623901367 12.93250846862793 C10.510526657104492 12.909844398498535 10.501036643981934 12.887181282043457 10.491545677185059 12.864517211914062 L10.491545677185059 12.864517211914062 C9.19326400756836 13.204610824584961 9.291631698608398 12.18162727355957 10.500844955444336 11.869089126586914 L10.500844955444336 11.869089126586914 C10.492400169372559 11.799971580505371 10.483954429626465 11.730853080749512 10.475509643554688 11.661735534667969 L10.475509643554688 11.661735534667969 C10.005925178527832 11.645106315612793 9.950265884399414 11.83674144744873 9.531137466430664 11.836143493652344 L9.531137466430664 11.836143493652344 C9.729063034057617 11.50311279296875 10.200260162353516 11.357298851013184 10.587627410888672 11.351806640625 L10.587627410888672 11.351806640625"></path>
<path fill="none" stroke="black" stroke-width=".3" stroke-opacity="1.0"  filling="0" d="M10.490290641784668 12.156463623046875 L10.490290641784668 12.156463623046875 C10.350378036499023 12.957688331604004 9.302983283996582 12.456870079040527 10.490290641784668 12.156463623046875 L10.490290641784668 12.156463623046875"></path></svg>