<svg xmlns="http://www.w3.org/2000/svg" viewBox="0.0 0.0 24.0 24.0" height="200px" width="200px"><path fill="none" stroke="black" stroke-width=".3" stroke-opacity="1.0"  filling="0" d="M6.689672470092773 11.79662799835205 L6.689672470092773 11.79662799835205 C6.699681758880615 11.832682609558105 6.709690570831299 11.868736267089844 6.719699859619141 11.904790878295898 L6.719699859619141 11.904790878295898 C7.193647384643555 11.67579460144043 7.227051258087158 12.099246978759766 7.2271904945373535 12.483436584472656 L7.2271904945373535 12.483436584472656 C7.27227258682251 12.509581565856934 7.317354202270508 12.535727500915527 7.362436294555664 12.561872482299805 L7.362436294555664 12.561872482299805 C7.2112274169921875 12.561872482299805 7.060018062591553 12.561872482299805 6.908809185028076 12.561872482299805 L6.908809185028076 12.561872482299805 C7.6462249755859375 11.729912757873535 6.168211936950684 11.953766822814941 6.838554859161377 12.572700500488281 L6.838554859161377 12.572700500488281 C6.740854740142822 12.572700500488281 6.643155097961426 12.572700500488281 6.545454978942871 12.572700500488281 L6.545454978942871 12.572700500488281 C6.545454978942871 12.318163871765137 6.545454978942871 12.063628196716309 6.545454978942871 11.809091567993164 L6.545454978942871 11.809091567993164 C6.593527317047119 11.804937362670898 6.641600131988525 11.800782203674316 6.689672470092773 11.79662799835205 L6.689672470092773 11.79662799835205"></path></svg>