<svg xmlns="http://www.w3.org/2000/svg" viewBox="0.0 0.0 24.0 24.0" height="200px" width="200px"><path fill="none" stroke="black" stroke-width=".3" stroke-opacity="1.0"  filling="0" d="M14.624155044555664 11.791172981262207 L14.624155044555664 11.791172981262207 C14.85214614868164 11.791172981262207 15.0801362991333 11.791172981262207 15.308127403259277 11.791172981262207 L15.308127403259277 11.791172981262207 C15.149690628051758 12.020400047302246 14.991254806518555 12.249627113342285 14.832818031311035 12.478854179382324 L14.832818031311035 12.478854179382324 C14.941044807434082 12.471099853515625 15.049272537231445 12.463345527648926 15.157499313354492 12.455591201782227 L15.157499313354492 12.455591201782227 C15.161763191223145 12.41520881652832 15.16602611541748 12.37482738494873 15.170289993286133 12.334444999694824 L15.170289993286133 12.334444999694824 C15.211581230163574 12.334444999694824 15.2528715133667 12.334444999694824 15.29416275024414 12.334444999694824 L15.29416275024414 12.334444999694824 C15.29416275024414 12.410690307617188 15.29416275024414 12.486936569213867 15.29416275024414 12.56318187713623 L15.29416275024414 12.56318187713623 C15.054499626159668 12.56318187713623 14.814835548400879 12.56318187713623 14.575172424316406 12.56318187713623 L14.575172424316406 12.56318187713623 C14.731372833251953 12.340900421142578 14.887572288513184 12.11861801147461 15.04377269744873 11.896336555480957 L15.04377269744873 11.896336555480957 C14.949999809265137 11.896336555480957 14.856226921081543 11.896336555480957 14.76245403289795 11.896336555480957 L14.76245403289795 11.896336555480957 C14.757718086242676 11.937518119812012 14.752981185913086 11.978700637817383 14.748245239257812 12.019882202148438 L14.748245239257812 12.019882202148438 C14.706881523132324 12.019882202148438 14.665518760681152 12.019882202148438 14.624155044555664 12.019882202148438 L14.624155044555664 12.019882202148438 C14.624155044555664 11.943645477294922 14.624155044555664 11.867409706115723 14.624155044555664 11.791172981262207 L14.624155044555664 11.791172981262207"></path></svg>