<svg xmlns="http://www.w3.org/2000/svg" viewBox="0.0 0.0 24.0 24.0" height="200px" width="200px"><path fill="none" stroke="black" stroke-width=".3" stroke-opacity="1.0"  filling="0" d="M13.246526718139648 11.72956371307373 L13.246526718139648 11.72956371307373 C13.37859058380127 11.763618469238281 13.51065444946289 11.797673225402832 13.642718315124512 11.831727981567383 L13.642718315124512 11.831727981567383 C13.642727851867676 12.003473281860352 13.642736434936523 12.175217628479004 13.642745971679688 12.346962928771973 L13.642745971679688 12.346962928771973 C13.186129570007324 12.565791130065918 12.819583892822266 12.062772750854492 13.469809532165527 11.944418907165527 L13.469809532165527 11.944418907165527 C13.36769962310791 11.904016494750977 13.237241744995117 11.884838104248047 13.140462875366211 11.936728477478027 L13.140462875366211 11.936728477478027 C13.175817489624023 11.867673873901367 13.211172103881836 11.79861831665039 13.246526718139648 11.72956371307373 L13.246526718139648 11.72956371307373"></path>
<path fill="none" stroke="black" stroke-width=".3" stroke-opacity="1.0"  filling="0" d="M13.513336181640625 12.109363555908203 L13.513336181640625 12.109363555908203 C13.458782196044922 12.157881736755371 13.404227256774902 12.206400871276855 13.3496732711792 12.254919052124023 L13.3496732711792 12.254919052124023 C13.309000968933105 12.230782508850098 13.268327713012695 12.206645965576172 13.227655410766602 12.182509422302246 L13.227655410766602 12.182509422302246 C13.322882652282715 12.158127784729004 13.418108940124512 12.133745193481445 13.513336181640625 12.109363555908203 L13.513336181640625 12.109363555908203"></path></svg>