<svg xmlns="http://www.w3.org/2000/svg" viewBox="0.0 0.0 24.0 24.0" height="200px" width="200px"><path fill="none" stroke="black" stroke-width=".3" stroke-opacity="1.0"  filling="0" d="M12.141517639160156 11.789590835571289 L12.141517639160156 11.789590835571289 C12.24370002746582 11.789590835571289 12.345881462097168 11.789590835571289 12.448063850402832 11.789590835571289 L12.448063850402832 11.789590835571289 C12.500345230102539 11.820945739746094 12.552627563476562 11.852299690246582 12.60490894317627 11.883654594421387 L12.60490894317627 11.883654594421387 C12.549036026000977 11.888482093811035 12.4931640625 11.893309593200684 12.437291145324707 11.898137092590332 L12.437291145324707 11.898137092590332 C12.439371109008789 12.098995208740234 12.406817436218262 12.35738468170166 12.559172630310059 12.488290786743164 L12.559172630310059 12.488290786743164 C12.403998374938965 12.62287425994873 12.294414520263672 12.5956392288208 12.141982078552246 12.47179126739502 L12.141982078552246 12.47179126739502 C12.183135986328125 12.466682434082031 12.22429084777832 12.461572647094727 12.2654447555542 12.456463813781738 L12.2654447555542 12.456463813781738 C12.2654447555542 12.272618293762207 12.2654447555542 12.088772773742676 12.2654447555542 11.904927253723145 L12.2654447555542 11.904927253723145 C12.224710464477539 11.89505672454834 12.1831636428833 11.888381958007812 12.141517639160156 11.883654594421387 L12.141517639160156 11.883654594421387 C12.141517639160156 11.852299690246582 12.141517639160156 11.820945739746094 12.141517639160156 11.789590835571289 L12.141517639160156 11.789590835571289"></path></svg>