<svg xmlns="http://www.w3.org/2000/svg" viewBox="0.0 0.0 24.0 24.0" height="200px" width="200px"><path fill="none" stroke="black" stroke-width=".3" stroke-opacity="1.0"  filling="0" d="M13.546663284301758 11.946381568908691 L13.546663284301758 11.946381568908691 C13.619277000427246 12.007487297058105 13.644097328186035 12.116302490234375 13.652045249938965 12.210872650146484 L13.652045249938965 12.210872650146484 C13.615553855895996 12.210872650146484 13.579063415527344 12.210872650146484 13.542572021484375 12.210872650146484 L13.542572021484375 12.210872650146484 C13.55500602722168 12.13762378692627 13.558100700378418 12.048173904418945 13.511726379394531 11.990126609802246 L13.511726379394531 11.990126609802246 C13.500672340393066 11.996781349182129 13.489617347717285 12.003436088562012 13.47856330871582 12.010090827941895 L13.47856330871582 12.010090827941895 C13.47856330871582 12.076436042785645 13.47856330871582 12.142782211303711 13.47856330871582 12.209127426147461 L13.47856330871582 12.209127426147461 C13.445472717285156 12.209127426147461 13.412381172180176 12.209127426147461 13.379290580749512 12.209127426147461 L13.379290580749512 12.209127426147461 C13.379290580749512 12.1258544921875 13.379290580749512 12.042582511901855 13.379290580749512 11.959309577941895 L13.379290580749512 11.959309577941895 C13.435081481933594 11.954999923706055 13.490872383117676 11.950691223144531 13.546663284301758 11.946381568908691 L13.546663284301758 11.946381568908691"></path></svg>