<svg xmlns="http://www.w3.org/2000/svg" viewBox="0.0 0.0 24.0 24.0" height="200px" width="200px"><path fill="none" stroke="black" stroke-width=".3" stroke-opacity="1.0"  filling="0" d="M5.898163318634033 11.645783424377441 L5.898163318634033 11.645783424377441 C5.882961750030518 13.052162170410156 6.511558532714844 11.9964017868042 6.166363716125488 11.770445823669434 L6.166363716125488 11.770445823669434 C6.166363716125488 11.731600761413574 6.166363716125488 11.692754745483398 6.166363716125488 11.653909683227539 L6.166363716125488 11.653909683227539 C6.278354644775391 11.653918266296387 6.390345573425293 11.65392780303955 6.502336502075195 11.653936386108398 L6.502336502075195 11.653936386108398 C6.5075273513793945 11.934463500976562 6.5127177238464355 12.214991569519043 6.517908573150635 12.495518684387207 L6.517908573150635 12.495518684387207 C6.561272144317627 12.486527442932129 6.604636192321777 12.477537155151367 6.6479997634887695 12.468545913696289 L6.6479997634887695 12.468545913696289 C6.649817943572998 12.510018348693848 6.651636123657227 12.551491737365723 6.653454303741455 12.592964172363281 L6.653454303741455 12.592964172363281 C6.546281337738037 12.592964172363281 6.439108848571777 12.592964172363281 6.331935882568359 12.592964172363281 L6.331935882568359 12.592964172363281 C6.328927040100098 12.532173156738281 6.325917720794678 12.471382141113281 6.322908878326416 12.410591125488281 L6.322908878326416 12.410591125488281 C5.697140216827393 12.843640327453613 5.737706661224365 12.275260925292969 5.684508800506592 11.754491806030273 L5.684508800506592 11.754491806030273 C5.638545036315918 11.764227867126465 5.592581272125244 11.773964881896973 5.54661750793457 11.783700942993164 L5.54661750793457 11.783700942993164 C5.53212308883667 11.582948684692383 5.741587162017822 11.647212982177734 5.898163318634033 11.645783424377441 L5.898163318634033 11.645783424377441"></path></svg>