<svg xmlns="http://www.w3.org/2000/svg" viewBox="0.0 0.0 24.0 24.0" height="200px" width="200px"><path fill="none" stroke="black" stroke-width=".3" stroke-opacity="1.0"  filling="0" d="M13.336336135864258 11.867237091064453 L13.336336135864258 11.867237091064453 C13.36819076538086 11.867237091064453 13.400044441223145 11.867237091064453 13.431899070739746 11.867237091064453 L13.431899070739746 11.867237091064453 C13.461589813232422 11.9534273147583 13.491280555725098 12.039618492126465 13.520971298217773 12.125808715820312 L13.520971298217773 12.125808715820312 C13.550353050231934 12.065699577331543 13.579734802246094 12.00559139251709 13.609116554260254 11.94548225402832 L13.609116554260254 11.94548225402832 C13.609094619750977 12.037973403930664 13.574433326721191 12.12912368774414 13.535453796386719 12.213000297546387 L13.535453796386719 12.213000297546387 C13.463071823120117 12.213000297546387 13.390690803527832 12.213000297546387 13.31830883026123 12.213000297546387 L13.31830883026123 12.213000297546387 C13.330399513244629 12.098224639892578 13.335901260375977 11.982646942138672 13.336336135864258 11.867237091064453 L13.336336135864258 11.867237091064453"></path>
<path fill="none" stroke="black" stroke-width=".3" stroke-opacity="1.0"  filling="0" d="M13.396500587463379 11.966180801391602 L13.396500587463379 11.966180801391602 C13.422699928283691 12.038562774658203 13.44890022277832 12.110944747924805 13.475099563598633 12.183326721191406 L13.475099563598633 12.183326721191406 C13.44890022277832 12.185117721557617 13.422699928283691 12.186908721923828 13.396500587463379 12.188699722290039 L13.396500587463379 12.188699722290039 C13.396500587463379 12.114526748657227 13.396500587463379 12.040353775024414 13.396500587463379 11.966180801391602 L13.396500587463379 11.966180801391602"></path></svg>