<svg xmlns="http://www.w3.org/2000/svg" viewBox="0.0 0.0 24.0 24.0" height="200px" width="200px"><path fill="none" stroke="black" stroke-width=".3" stroke-opacity="1.0"  filling="0" d="M13.565047264099121 11.900453567504883 L13.565047264099121 11.900453567504883 C13.605874061584473 11.900453567504883 13.64670181274414 11.900453567504883 13.687528610229492 11.900453567504883 L13.687528610229492 11.900453567504883 C13.699173927307129 11.974235534667969 13.710819244384766 12.048016548156738 13.722464561462402 12.121798515319824 L13.722464561462402 12.121798515319824 C13.74337387084961 12.118725776672363 13.7642822265625 12.115653038024902 13.785191535949707 12.112580299377441 L13.785191535949707 12.112580299377441 C13.757819175720215 12.156189918518066 13.730445861816406 12.199799537658691 13.703073501586914 12.243409156799316 L13.703073501586914 12.243409156799316 C13.681654930114746 12.17190933227539 13.660237312316895 12.100408554077148 13.638818740844727 12.028908729553223 L13.638818740844727 12.028908729553223 C13.612728118896484 12.107081413269043 13.586636543273926 12.18525505065918 13.560545921325684 12.263427734375 L13.560545921325684 12.263427734375 C13.498019218444824 12.142727851867676 13.435491561889648 12.022027015686035 13.372964859008789 11.901327133178711 L13.372964859008789 11.901327133178711 C13.454371452331543 11.94332504272461 13.515921592712402 12.032919883728027 13.536492347717285 12.12218189239502 L13.536492347717285 12.12218189239502 C13.546010971069336 12.048272132873535 13.55552864074707 11.974363327026367 13.565047264099121 11.900453567504883 L13.565047264099121 11.900453567504883"></path></svg>