<svg xmlns="http://www.w3.org/2000/svg" viewBox="0.0 0.0 24.0 24.0" height="200px" width="200px"><path fill="none" stroke="black" stroke-width=".3" stroke-opacity="1.0"  filling="0" d="M12.5971097946167 11.95052719116211 L12.5971097946167 11.95052719116211 C12.642754554748535 11.972200393676758 12.688400268554688 11.99387264251709 12.734045028686523 12.015545845031738 L12.734045028686523 12.015545845031738 C12.693572998046875 12.001200675964355 12.65310001373291 11.986854553222656 12.612627983093262 11.972509384155273 L12.612627983093262 11.972509384155273 C12.606500625610352 11.982954978942871 12.600372314453125 11.993399620056152 12.594244956970215 12.00384521484375 L12.594244956970215 12.00384521484375 C12.755849838256836 12.125529289245605 12.74943733215332 12.273181915283203 12.52071762084961 12.132245063781738 L12.52071762084961 12.132245063781738 C12.572735786437988 12.135181427001953 12.624754905700684 12.138117790222168 12.676773071289062 12.141054153442383 L12.676773071289062 12.141054153442383 C12.635281562805176 12.116572380065918 12.593791007995605 12.092090606689453 12.552299499511719 12.067608833312988 L12.552299499511719 12.067608833312988 C12.567235946655273 12.028581619262695 12.582173347473145 11.989554405212402 12.5971097946167 11.95052719116211 L12.5971097946167 11.95052719116211"></path></svg>