<svg xmlns="http://www.w3.org/2000/svg" viewBox="0.0 0.0 24.0 24.0" height="200px" width="200px"><path fill="none" stroke="black" stroke-width=".3" stroke-opacity="1.0"  filling="0" d="M11.380691528320312 11.754491806030273 L11.380691528320312 11.754491806030273 C11.676732063293457 11.869563102722168 11.512560844421387 11.982942581176758 11.331246376037598 12.153518676757812 L11.331246376037598 12.153518676757812 C11.382655143737793 12.157818794250488 11.434064865112305 12.162117958068848 11.4854736328125 12.166418075561523 L11.4854736328125 12.166418075561523 C11.50117301940918 12.137845039367676 11.516873359680176 12.109272956848145 11.532572746276855 12.080699920654297 L11.532572746276855 12.080699920654297 C11.539554595947266 12.082490921020508 11.546537399291992 12.084280967712402 11.553519248962402 12.086071968078613 L11.553519248962402 12.086071968078613 C11.557701110839844 12.125590324401855 11.561882019042969 12.165108680725098 11.56606388092041 12.20462703704834 L11.56606388092041 12.20462703704834 C11.46314525604248 12.202326774597168 11.360227584838867 12.200027465820312 11.257308959960938 12.19772720336914 L11.257308959960938 12.19772720336914 C11.343528747558594 12.078937530517578 11.422812461853027 11.922903060913086 11.39370059967041 11.779036521911621 L11.39370059967041 11.779036521911621 C11.36374568939209 11.814836502075195 11.33379077911377 11.85063648223877 11.30383586883545 11.886436462402344 L11.30383586883545 11.886436462402344 C11.317383766174316 11.837373733520508 11.32979965209961 11.755345344543457 11.380691528320312 11.754491806030273 L11.380691528320312 11.754491806030273"></path></svg>