<svg xmlns="http://www.w3.org/2000/svg" viewBox="0.0 0.0 24.0 24.0" height="200px" width="200px"><path fill="none" stroke="black" stroke-width=".3" stroke-opacity="1.0"  filling="0" d="M10.66824722290039 11.898681640625 L10.66824722290039 11.898681640625 C10.71510124206543 11.972963333129883 10.761956214904785 12.047245025634766 10.808810234069824 12.121526718139648 L10.808810234069824 12.121526718139648 C10.818255424499512 12.047908782958984 10.8277006149292 11.97429084777832 10.837145805358887 11.900672912597656 L10.837145805358887 11.900672912597656 C10.878281593322754 11.900672912597656 10.919418334960938 11.900672912597656 10.960554122924805 11.900672912597656 L10.960554122924805 11.900672912597656 C10.971972465515137 11.973309516906738 10.983390808105469 12.045945167541504 10.9948091506958 12.118581771850586 L10.9948091506958 12.118581771850586 C11.0185546875 12.118581771850586 11.0423002243042 12.118581771850586 11.066045761108398 12.118581771850586 L11.066045761108398 12.118581771850586 C11.035845756530762 12.159354209899902 11.005645751953125 12.200126647949219 10.975445747375488 12.240899085998535 L10.975445747375488 12.240899085998535 C10.954018592834473 12.170125961303711 10.932591438293457 12.099353790283203 10.911164283752441 12.028580665588379 L10.911164283752441 12.028580665588379 C10.88674545288086 12.102699279785156 10.862327575683594 12.176817893981934 10.837908744812012 12.250936508178711 L10.837908744812012 12.250936508178711 C10.773344039916992 12.137725830078125 10.716702461242676 12.019667625427246 10.66824722290039 11.898681640625 L10.66824722290039 11.898681640625"></path></svg>