<svg xmlns="http://www.w3.org/2000/svg" viewBox="0.0 0.0 24.0 24.0" height="200px" width="200px"><path fill="none" stroke="black" stroke-width=".3" stroke-opacity="1.0"  filling="0" d="M12.44089126586914 11.863035202026367 L12.44089126586914 11.863035202026367 C12.558018684387207 11.898844718933105 12.675145149230957 11.934653282165527 12.792272567749023 11.970462799072266 L12.792272567749023 11.970462799072266 C12.758781433105469 11.999372482299805 12.725290298461914 12.028281211853027 12.69179916381836 12.057190895080566 L12.69179916381836 12.057190895080566 C12.613622665405273 12.013873100280762 12.495966911315918 12.016555786132812 12.423954010009766 12.069490432739258 L12.423954010009766 12.069490432739258 C12.952686309814453 12.181901931762695 12.794167518615723 12.556392669677734 12.220199584960938 12.365862846374512 L12.220199584960938 12.365862846374512 C12.2516450881958 12.336817741394043 12.283090591430664 12.307771682739258 12.314536094665527 12.278726577758789 L12.314536094665527 12.278726577758789 C12.410192489624023 12.32234001159668 12.525100708007812 12.379817962646484 12.623400688171387 12.342544555664062 L12.623400688171387 12.342544555664062 C12.428487777709961 12.120933532714844 12.073328018188477 12.196306228637695 12.44089126586914 11.863035202026367 L12.44089126586914 11.863035202026367"></path></svg>