<svg xmlns="http://www.w3.org/2000/svg" viewBox="0.0 0.0 24.0 24.0" height="200px" width="200px"><path fill="none" stroke="black" stroke-width=".3" stroke-opacity="1.0"  filling="0" d="M12.913008689880371 11.947690963745117 L12.913008689880371 11.947690963745117 C12.906818389892578 11.9568452835083 12.900627136230469 11.965999603271484 12.894436836242676 11.975153923034668 L12.894436836242676 11.975153923034668 C12.940564155578613 12.00976276397705 12.986690521240234 12.04437255859375 13.032817840576172 12.078981399536133 L13.032817840576172 12.078981399536133 C12.995158195495605 12.139615058898926 12.894572257995605 12.163579940795898 12.827399253845215 12.139444351196289 L12.827399253845215 12.139444351196289 C12.876408576965332 12.131635665893555 12.925416946411133 12.123826026916504 12.97442626953125 12.11601734161377 L12.97442626953125 12.11601734161377 C12.921308517456055 12.081671714782715 12.868189811706543 12.04732608795166 12.815072059631348 12.012980461120605 L12.815072059631348 12.012980461120605 C12.887935638427734 12.006407737731934 12.960800170898438 11.999835014343262 13.033663749694824 11.99326229095459 L13.033663749694824 11.99326229095459 C12.99344539642334 11.978072166442871 12.953227043151855 11.962881088256836 12.913008689880371 11.947690963745117 L12.913008689880371 11.947690963745117"></path></svg>