<svg xmlns="http://www.w3.org/2000/svg" viewBox="0.0 0.0 24.0 24.0" height="200px" width="200px"><path fill="none" stroke="black" stroke-width=".3" stroke-opacity="1.0"  filling="0" d="M10.686055183410645 11.946381568908691 L10.686055183410645 11.946381568908691 C10.755309104919434 12.008768081665039 10.780451774597168 12.113788604736328 10.788246154785156 12.206672668457031 L10.788246154785156 12.206672668457031 C10.751473426818848 12.206672668457031 10.714700698852539 12.206672668457031 10.67792797088623 12.206672668457031 L10.67792797088623 12.206672668457031 C10.6947660446167 12.13563060760498 10.69212818145752 12.047645568847656 10.64765453338623 11.989745140075684 L10.64765453338623 11.989745140075684 C10.636363983154297 11.994318008422852 10.625072479248047 11.99889087677002 10.613781929016113 12.003463745117188 L10.613781929016113 12.003463745117188 C10.613781929016113 12.07304573059082 10.613781929016113 12.142626762390137 10.613781929016113 12.21220874786377 L10.613781929016113 12.21220874786377 C10.58116340637207 12.21385383605957 10.548545837402344 12.215499877929688 10.5159273147583 12.217144966125488 L10.5159273147583 12.217144966125488 C10.515936851501465 12.130899429321289 10.515945434570312 12.044654846191406 10.515954971313477 11.958409309387207 L10.515954971313477 11.958409309387207 C10.572654724121094 11.954400062561035 10.629355430603027 11.950390815734863 10.686055183410645 11.946381568908691 L10.686055183410645 11.946381568908691"></path></svg>