<svg xmlns="http://www.w3.org/2000/svg" viewBox="0.0 0.0 24.0 24.0" height="200px" width="200px"><path fill="none" stroke="black" stroke-width=".3" stroke-opacity="1.0"  filling="0" d="M14.265982627868652 11.83464527130127 L14.265982627868652 11.83464527130127 C14.253128051757812 11.874799728393555 14.240273475646973 11.91495418548584 14.227418899536133 11.955108642578125 L14.227418899536133 11.955108642578125 C14.263874053955078 11.916281700134277 14.300328254699707 11.877453804016113 14.336783409118652 11.838626861572266 L14.336783409118652 11.838626861572266 C14.387128829956055 11.838626861572266 14.43747329711914 11.838626861572266 14.487818717956543 11.838626861572266 L14.487818717956543 11.838626861572266 C14.431500434875488 11.885281562805176 14.37518310546875 11.93193531036377 14.318864822387695 11.97859001159668 L14.318864822387695 11.97859001159668 C14.376791954040527 12.046835899353027 14.434720039367676 12.115080833435059 14.492647171020508 12.183326721191406 L14.492647171020508 12.183326721191406 C14.405537605285645 12.12610912322998 14.318427085876465 12.068890571594238 14.231317520141602 12.011672973632812 L14.231317520141602 12.011672973632812 C14.243790626525879 12.070318222045898 14.256263732910156 12.128963470458984 14.268736839294434 12.18760871887207 L14.268736839294434 12.18760871887207 C14.21235466003418 12.18760871887207 14.155973434448242 12.18760871887207 14.099591255187988 12.18760871887207 L14.099591255187988 12.18760871887207 C14.15199089050293 12.082160949707031 14.176685333251953 11.958744049072266 14.169000625610352 11.841245651245117 L14.169000625610352 11.841245651245117 C14.20132827758789 11.839045524597168 14.233654975891113 11.836845397949219 14.265982627868652 11.83464527130127 L14.265982627868652 11.83464527130127"></path></svg>