<svg xmlns="http://www.w3.org/2000/svg" viewBox="0.0 0.0 24.0 24.0" height="200px" width="200px"><path fill="none" stroke="black" stroke-width=".3" stroke-opacity="1.0"  filling="0" d="M12.379446029663086 11.951398849487305 L12.379446029663086 11.951398849487305 C12.333100318908691 12.023771286010742 12.286755561828613 12.096144676208496 12.240409851074219 12.168517112731934 L12.240409851074219 12.168517112731934 C12.281891822814941 12.158844947814941 12.323372840881348 12.149171829223633 12.36485481262207 12.13949966430664 L12.36485481262207 12.13949966430664 C12.36485481262207 12.163718223571777 12.36485481262207 12.187935829162598 12.36485481262207 12.212154388427734 L12.36485481262207 12.212154388427734 C12.291600227355957 12.212154388427734 12.218345642089844 12.212154388427734 12.14509105682373 12.212154388427734 L12.14509105682373 12.212154388427734 C12.189064025878906 12.139108657836914 12.233036041259766 12.066062927246094 12.277009010314941 11.993017196655273 L12.277009010314941 11.993017196655273 C12.271254539489746 11.985880851745605 12.26550006866455 11.978745460510254 12.259745597839355 11.971609115600586 L12.259745597839355 11.971609115600586 C12.229427337646484 11.981645584106445 12.199109077453613 11.991681098937988 12.168790817260742 12.001717567443848 L12.168790817260742 12.001717567443848 C12.239008903503418 11.984944343566895 12.30922794342041 11.968172073364258 12.379446029663086 11.951398849487305 L12.379446029663086 11.951398849487305"></path></svg>