<svg xmlns="http://www.w3.org/2000/svg" viewBox="0.0 0.0 24.0 24.0" height="200px" width="200px"><path fill="none" stroke="black" stroke-width=".3" stroke-opacity="1.0"  filling="0" d="M11.775136947631836 11.810291290283203 L11.775136947631836 11.810291290283203 C11.779003143310547 11.851491928100586 11.783245086669922 11.892666816711426 11.788390159606934 11.933727264404297 L11.788390159606934 11.933727264404297 C11.875136375427246 11.996308326721191 11.956260681152344 12.086102485656738 11.981427192687988 12.1900634765625 L11.981427192687988 12.1900634765625 C11.945809364318848 12.188191413879395 11.91019058227539 12.186318397521973 11.87457275390625 12.184446334838867 L11.87457275390625 12.184446334838867 C11.880200386047363 12.115691184997559 11.88582706451416 12.046936988830566 11.891454696655273 11.978181838989258 L11.891454696655273 11.978181838989258 C11.862936019897461 12.04537296295166 11.834418296813965 12.112563133239746 11.805899620056152 12.179754257202148 L11.805899620056152 12.179754257202148 C11.772217750549316 12.18376350402832 11.738536834716797 12.187772750854492 11.704854965209961 12.191781997680664 L11.704854965209961 12.191781997680664 C11.69422721862793 12.067436218261719 11.683600425720215 11.94309139251709 11.672972679138184 11.818745613098145 L11.672972679138184 11.818745613098145 C11.707027435302734 11.815927505493164 11.741082191467285 11.813109397888184 11.775136947631836 11.810291290283203 L11.775136947631836 11.810291290283203"></path></svg>