<svg xmlns="http://www.w3.org/2000/svg" viewBox="0.0 0.0 24.0 24.0" height="200px" width="200px"><path fill="none" stroke="black" stroke-width=".3" stroke-opacity="1.0"  filling="0" d="M13.205973625183105 11.650909423828125 L13.205973625183105 11.650909423828125 C13.274946212768555 11.79349136352539 13.343917846679688 11.93607234954834 13.412890434265137 12.078654289245605 L13.412890434265137 12.078654289245605 C13.202326774597168 12.078654289245605 12.991764068603516 12.078654289245605 12.781200408935547 12.078654289245605 L12.781200408935547 12.078654289245605 C12.82747745513916 12.290812492370605 13.129289627075195 12.398602485656738 13.346400260925293 12.402573585510254 L13.346400260925293 12.402573585510254 C13.144330024719238 13.053977012634277 11.684733390808105 11.690216064453125 13.205973625183105 11.650909423828125 L13.205973625183105 11.650909423828125"></path>
<path fill="none" stroke="black" stroke-width=".3" stroke-opacity="1.0"  filling="0" d="M12.939190864562988 11.7001371383667 L12.939190864562988 11.7001371383667 C13.024636268615723 11.797155380249023 13.110081672668457 11.894172668457031 13.195527076721191 11.991190910339355 L13.195527076721191 11.991190910339355 C13.054390907287598 11.991190910339355 12.913254737854004 11.991190910339355 12.77211856842041 11.991190910339355 L12.77211856842041 11.991190910339355 C12.82780933380127 11.894172668457031 12.883500099182129 11.797155380249023 12.939190864562988 11.7001371383667 L12.939190864562988 11.7001371383667"></path></svg>