<svg xmlns="http://www.w3.org/2000/svg" viewBox="0.0 0.0 24.0 24.0" height="200px" width="200px"><path fill="none" stroke="black" stroke-width=".3" stroke-opacity="1.0"  filling="0" d="M9.894981384277344 11.94643783569336 L9.894981384277344 11.94643783569336 C9.963855743408203 12.008752822875977 9.988385200500488 12.113776206970215 9.995290756225586 12.206399917602539 L9.995290756225586 12.206399917602539 C9.957663536071777 12.206399917602539 9.920036315917969 12.206399917602539 9.88240909576416 12.206399917602539 L9.88240909576416 12.206399917602539 C9.86043643951416 12.13140869140625 9.83846378326416 12.056418418884277 9.81649112701416 11.981427192687988 L9.81649112701416 11.981427192687988 C9.822181701660156 12.0573091506958 9.827873229980469 12.133191108703613 9.833563804626465 12.209073066711426 L9.833563804626465 12.209073066711426 C9.797290802001953 12.209073066711426 9.761017799377441 12.209073066711426 9.72474479675293 12.209073066711426 L9.72474479675293 12.209073066711426 C9.72474479675293 12.125509262084961 9.72474479675293 12.041946411132812 9.72474479675293 11.958382606506348 L9.72474479675293 11.958382606506348 C9.781490325927734 11.954401016235352 9.838235855102539 11.950419425964355 9.894981384277344 11.94643783569336 L9.894981384277344 11.94643783569336"></path></svg>