<svg xmlns="http://www.w3.org/2000/svg" viewBox="0.0 0.0 24.0 24.0" height="200px" width="200px"><path fill="none" stroke="black" stroke-width=".3" stroke-opacity="1.0"  filling="0" d="M10.326545715332031 11.913082122802734 L10.326545715332031 11.913082122802734 C10.332364082336426 11.922327041625977 10.338181495666504 11.931572914123535 10.343999862670898 11.940817832946777 L10.343999862670898 11.940817832946777 C10.297533988952637 12.013187408447266 10.223690032958984 12.069526672363281 10.145809173583984 12.106008529663086 L10.145809173583984 12.106008529663086 C10.217700004577637 12.138917922973633 10.289590835571289 12.17182731628418 10.361481666564941 12.204736709594727 L10.361481666564941 12.204736709594727 C10.325836181640625 12.236481666564941 10.290190696716309 12.268227577209473 10.254545211791992 12.299972534179688 L10.254545211791992 12.299972534179688 C10.209091186523438 12.299981117248535 10.163636207580566 12.2999906539917 10.118182182312012 12.299999237060547 L10.118182182312012 12.299999237060547 C10.078948020935059 12.187031745910645 10.090213775634766 12.060441970825195 10.103127479553223 11.941554069519043 L10.103127479553223 11.941554069519043 C10.177599906921387 11.932063102722168 10.252073287963867 11.92257308959961 10.326545715332031 11.913082122802734 L10.326545715332031 11.913082122802734"></path></svg>