<svg xmlns="http://www.w3.org/2000/svg" viewBox="0.0 0.0 24.0 24.0" height="200px" width="200px"><path fill="none" stroke="black" stroke-width=".3" stroke-opacity="1.0"  filling="0" d="M13.604972839355469 11.924236297607422 L13.604972839355469 11.924236297607422 C13.654579162597656 12.001609802246094 13.679768562316895 12.093474388122559 13.69960880279541 12.183218002319336 L13.69960880279541 12.183218002319336 C13.664036750793457 12.185809135437012 13.628463745117188 12.188400268554688 13.592891693115234 12.190991401672363 L13.592891693115234 12.190991401672363 C13.599173545837402 12.122809410095215 13.60545539855957 12.054627418518066 13.611737251281738 11.986445426940918 L13.611737251281738 11.986445426940918 C13.581982612609863 12.053999900817871 13.552227973937988 12.121554374694824 13.522473335266113 12.189108848571777 L13.522473335266113 12.189108848571777 C13.483536720275879 12.18621826171875 13.444600105285645 12.183327674865723 13.40566349029541 12.180437088012695 L13.40566349029541 12.180437088012695 C13.42965030670166 12.100176811218262 13.42812442779541 12.009130477905273 13.403236389160156 11.929145812988281 L13.403236389160156 11.929145812988281 C13.470481872558594 11.927509307861328 13.537727355957031 11.925872802734375 13.604972839355469 11.924236297607422 L13.604972839355469 11.924236297607422"></path></svg>