<svg xmlns="http://www.w3.org/2000/svg" viewBox="0.0 0.0 24.0 24.0" height="200px" width="200px"><path fill="none" stroke="black" stroke-width=".3" stroke-opacity="1.0"  filling="0" d="M12.234190940856934 11.619000434875488 L12.234190940856934 11.619000434875488 C12.220535278320312 11.964520454406738 12.129711151123047 12.217894554138184 12.373363494873047 12.473099708557129 L12.373363494873047 12.473099708557129 C12.373363494873047 12.504090309143066 12.373363494873047 12.53508186340332 12.373363494873047 12.566072463989258 L12.373363494873047 12.566072463989258 C12.214691162109375 12.566072463989258 12.056017875671387 12.566072463989258 11.897345542907715 12.566072463989258 L11.897345542907715 12.566072463989258 C11.897345542907715 12.535754203796387 11.897345542907715 12.505435943603516 11.897345542907715 12.475117683410645 L11.897345542907715 12.475117683410645 C11.937836647033691 12.468481063842773 11.978326797485352 12.461844444274902 12.018817901611328 12.455207824707031 L12.018817901611328 12.455207824707031 C12.01880931854248 12.223135948181152 12.018799781799316 11.991063117980957 12.018791198730469 11.758991241455078 L12.018791198730469 11.758991241455078 C11.96965503692627 11.75580883026123 11.920517921447754 11.7526273727417 11.871381759643555 11.749444961547852 L11.871381759643555 11.749444961547852 C11.871381759643555 11.717981338500977 11.871381759643555 11.686517715454102 11.871381759643555 11.655054092407227 L11.871381759643555 11.655054092407227 C11.992318153381348 11.643035888671875 12.11325454711914 11.63101863861084 12.234190940856934 11.619000434875488 L12.234190940856934 11.619000434875488"></path></svg>