<svg xmlns="http://www.w3.org/2000/svg" viewBox="0.0 0.0 24.0 24.0" height="200px" width="200px"><path fill="none" stroke="black" stroke-width=".3" stroke-opacity="1.0"  filling="0" d="M13.103537559509277 11.930399894714355 L13.103537559509277 11.930399894714355 C13.1702299118042 11.997903823852539 13.226831436157227 12.092007637023926 13.227027893066406 12.18690013885498 L13.227027893066406 12.18690013885498 C13.197564125061035 12.18824577331543 13.168100357055664 12.189590454101562 13.138636589050293 12.190936088562012 L13.138636589050293 12.190936088562012 C13.138636589050293 12.120709419250488 13.138636589050293 12.050481796264648 13.138636589050293 11.980255126953125 L13.138636589050293 11.980255126953125 C13.120136260986328 12.048209190368652 13.10163688659668 12.116164207458496 13.083136558532715 12.184118270874023 L13.083136558532715 12.184118270874023 C13.049446105957031 12.186264038085938 13.015754699707031 12.188408851623535 12.982064247131348 12.19055461883545 L12.982064247131348 12.19055461883545 C12.97823715209961 12.108190536499023 12.974409103393555 12.025827407836914 12.970582008361816 11.943463325500488 L12.970582008361816 11.943463325500488 C13.014900207519531 11.939108848571777 13.059219360351562 11.934754371643066 13.103537559509277 11.930399894714355 L13.103537559509277 11.930399894714355"></path></svg>