<svg xmlns="http://www.w3.org/2000/svg" viewBox="0.0 0.0 24.0 24.0" height="200px" width="200px"><path fill="none" stroke="black" stroke-width=".3" stroke-opacity="1.0"  filling="0" d="M4.284245491027832 11.699563980102539 L4.284245491027832 11.699563980102539 C4.530948638916016 11.848163604736328 4.536172389984131 12.243579864501953 4.766536712646484 12.416427612304688 L4.766536712646484 12.416427612304688 C4.768500328063965 12.442018508911133 4.7704644203186035 12.467609405517578 4.772428035736084 12.493200302124023 L4.772428035736084 12.493200302124023 C4.619424819946289 12.573625564575195 4.465366363525391 12.551522254943848 4.339254379272461 12.464510917663574 L4.339254379272461 12.464510917663574 C4.6016621589660645 12.33559513092041 4.575421333312988 11.797597885131836 4.248490810394287 11.797446250915527 L4.248490810394287 11.797446250915527 C4.205045223236084 11.837682723999023 4.161600112915039 11.87791919708252 4.118154525756836 11.918155670166016 L4.118154525756836 11.918155670166016 C4.118163585662842 11.881800651550293 4.118172645568848 11.845446586608887 4.1181817054748535 11.809091567993164 L4.1181817054748535 11.809091567993164 C4.17353630065918 11.772582054138184 4.228890895843506 11.73607349395752 4.284245491027832 11.699563980102539 L4.284245491027832 11.699563980102539"></path></svg>