<svg xmlns="http://www.w3.org/2000/svg" viewBox="0.0 0.0 24.0 24.0" height="200px" width="200px"><path fill="none" stroke="black" stroke-width=".3" stroke-opacity="1.0"  filling="0" d="M9.93681812286377 11.735971450805664 L9.93681812286377 11.735971450805664 C10.066000938415527 11.943558692932129 10.090696334838867 12.208606719970703 10.090909004211426 12.453107833862305 L10.090909004211426 12.453107833862305 C10.140809059143066 12.460844039916992 10.190709114074707 12.468581199645996 10.240609169006348 12.476317405700684 L10.240609169006348 12.476317405700684 C10.141249656677246 12.515738487243652 9.991854667663574 12.54898738861084 9.919991493225098 12.469854354858398 L9.919991493225098 12.469854354858398 C9.308024406433105 12.689651489257812 9.342830657958984 12.270520210266113 9.909408569335938 12.049036979675293 L9.909408569335938 12.049036979675293 C9.863201141357422 11.945873260498047 9.675220489501953 11.874682426452637 9.586663246154785 11.94493579864502 L9.586663246154785 11.94493579864502 C9.366483688354492 11.690930366516113 9.744271278381348 11.743366241455078 9.93681812286377 11.735971450805664 L9.93681812286377 11.735971450805664"></path>
<path fill="none" stroke="black" stroke-width=".3" stroke-opacity="1.0"  filling="0" d="M9.910499572753906 12.14231014251709 L9.910499572753906 12.14231014251709 C9.821435928344727 12.247855186462402 9.732372283935547 12.353400230407715 9.643308639526367 12.458945274353027 L9.643308639526367 12.458945274353027 C9.638859748840332 12.320915222167969 9.779376983642578 12.185656547546387 9.910499572753906 12.14231014251709 L9.910499572753906 12.14231014251709"></path></svg>