<svg xmlns="http://www.w3.org/2000/svg" viewBox="0.0 0.0 24.0 24.0" height="200px" width="200px"><path fill="none" stroke="black" stroke-width=".3" stroke-opacity="1.0"  filling="0" d="M13.994154930114746 11.489699363708496 L13.994154930114746 11.489699363708496 C14.02816390991211 11.489699363708496 14.062173843383789 11.489699363708496 14.096182823181152 11.489699363708496 L14.096182823181152 11.489699363708496 C14.096173286437988 11.569945335388184 14.09616470336914 11.650190353393555 14.096155166625977 11.730436325073242 L14.096155166625977 11.730436325073242 C14.174227714538574 11.763209342956543 14.252301216125488 11.795981407165527 14.330373764038086 11.828754425048828 L14.330373764038086 11.828754425048828 C14.253791809082031 11.833417892456055 14.17720890045166 11.838081359863281 14.100626945495605 11.842744827270508 L14.100626945495605 11.842744827270508 C14.100820541381836 12.164312362670898 13.957404136657715 12.502042770385742 14.31719970703125 12.441354751586914 L14.31719970703125 12.441354751586914 C14.185168266296387 13.054215431213379 13.93639087677002 11.954022407531738 13.93639087677002 11.843372344970703 L13.93639087677002 11.843372344970703 C13.873808860778809 11.8378267288208 13.811227798461914 11.832282066345215 13.748645782470703 11.826736450195312 L13.748645782470703 11.826736450195312 C13.843192100524902 11.724855422973633 13.917110443115234 11.60538387298584 13.994154930114746 11.489699363708496 L13.994154930114746 11.489699363708496"></path></svg>