<svg xmlns="http://www.w3.org/2000/svg" viewBox="0.0 0.0 24.0 24.0" height="200px" width="200px"><path fill="none" stroke="black" stroke-width=".3" stroke-opacity="1.0"  filling="0" d="M8.264781951904297 11.407145500183105 L8.264781951904297 11.407145500183105 C8.453045845031738 11.407145500183105 8.641308784484863 11.407145500183105 8.829572677612305 11.407145500183105 L8.829572677612305 11.407145500183105 C8.829572677612305 11.437227249145508 8.829572677612305 11.467308044433594 8.829572677612305 11.497389793395996 L8.829572677612305 11.497389793395996 C8.420132637023926 11.628215789794922 8.64576244354248 12.12252426147461 8.645673751831055 12.463417053222656 L8.645673751831055 12.463417053222656 C8.89714241027832 12.463289260864258 9.102914810180664 12.507164001464844 9.107945442199707 12.204872131347656 L9.107945442199707 12.204872131347656 C9.141490936279297 12.199336051940918 9.175036430358887 12.193799018859863 9.208581924438477 12.188262939453125 L9.208581924438477 12.188262939453125 C9.208581924438477 12.309598922729492 9.208581924438477 12.43093490600586 9.208581924438477 12.552270889282227 L9.208581924438477 12.552270889282227 C8.895363807678223 12.55228042602539 8.582144737243652 12.552289962768555 8.268926620483398 12.552299499511719 L8.268926620483398 12.552299499511719 C8.268926620483398 12.5253267288208 8.268926620483398 12.4983549118042 8.268926620483398 12.471382141113281 L8.268926620483398 12.471382141113281 C8.328753471374512 12.466482162475586 8.388581275939941 12.46158218383789 8.448408126831055 12.456682205200195 L8.448408126831055 12.456682205200195 C8.448408126831055 12.140345573425293 8.448408126831055 11.82400894165039 8.448408126831055 11.507672309875488 L8.448408126831055 11.507672309875488 C8.389899253845215 11.504817962646484 8.331390380859375 11.50196361541748 8.272881507873535 11.499109268188477 L8.272881507873535 11.499109268188477 C8.270181655883789 11.468454360961914 8.267481803894043 11.437800407409668 8.264781951904297 11.407145500183105 L8.264781951904297 11.407145500183105"></path></svg>