<svg xmlns="http://www.w3.org/2000/svg" viewBox="0.0 0.0 24.0 24.0" height="200px" width="200px"><path fill="none" stroke="black" stroke-width=".3" stroke-opacity="1.0"  filling="0" d="M12.81253719329834 11.717945098876953 L12.81253719329834 11.717945098876953 C13.025390625 11.794538497924805 13.348479270935059 11.8496732711792 13.39167308807373 12.07172679901123 L13.39167308807373 12.07172679901123 C13.193582534790039 12.081424713134766 12.9337797164917 11.974250793457031 12.798601150512695 12.119373321533203 L12.798601150512695 12.119373321533203 C12.975318908691406 12.203336715698242 13.152037620544434 12.287301063537598 13.328755378723145 12.371264457702637 L13.328755378723145 12.371264457702637 C12.73794937133789 13.061721801757812 12.718708992004395 12.018819808959961 12.81253719329834 11.717945098876953 L12.81253719329834 11.717945098876953"></path>
<path fill="none" stroke="black" stroke-width=".3" stroke-opacity="1.0"  filling="0" d="M12.872781753540039 11.764363288879395 L12.872781753540039 11.764363288879395 C12.979818344116211 11.848344802856445 13.086854934692383 11.932327270507812 13.193891525268555 12.016308784484863 L13.193891525268555 12.016308784484863 C13.059428215026855 12.016308784484863 12.92496395111084 12.016308784484863 12.79050064086914 12.016308784484863 L12.79050064086914 12.016308784484863 C12.817927360534668 11.932327270507812 12.845355033874512 11.848344802856445 12.872781753540039 11.764363288879395 L12.872781753540039 11.764363288879395"></path></svg>