<svg xmlns="http://www.w3.org/2000/svg" viewBox="0.0 0.0 24.0 24.0" height="200px" width="200px"><path fill="none" stroke="black" stroke-width=".3" stroke-opacity="1.0"  filling="0" d="M7.743954181671143 11.740118026733398 L7.743954181671143 11.740118026733398 C7.757718086242676 11.76966381072998 7.771481513977051 11.799208641052246 7.785245418548584 11.828754425048828 L7.785245418548584 11.828754425048828 C7.562117099761963 11.993965148925781 7.464491367340088 12.287860870361328 7.360854625701904 12.545427322387695 L7.360854625701904 12.545427322387695 C7.307254791259766 12.545427322387695 7.253654479980469 12.545427322387695 7.20005464553833 12.545427322387695 L7.20005464553833 12.545427322387695 C7.200036525726318 12.390891075134277 7.200017929077148 12.236353874206543 7.199999809265137 12.081817626953125 L7.199999809265137 12.081817626953125 C7.242042064666748 12.187920570373535 7.284825801849365 12.293730735778809 7.327990531921387 12.399381637573242 L7.327990531921387 12.399381637573242 C7.4010725021362305 12.217181205749512 7.474153995513916 12.034981727600098 7.54723596572876 11.852781295776367 L7.54723596572876 11.852781295776367 C7.506054401397705 11.822808265686035 7.464872360229492 11.79283618927002 7.4236907958984375 11.762863159179688 L7.4236907958984375 11.762863159179688 C7.530445098876953 11.755281448364258 7.637199878692627 11.747699737548828 7.743954181671143 11.740118026733398 L7.743954181671143 11.740118026733398"></path></svg>