<svg xmlns="http://www.w3.org/2000/svg" viewBox="0.0 0.0 24.0 24.0" height="200px" width="200px"><path fill="none" stroke="black" stroke-width=".3" stroke-opacity="1.0"  filling="0" d="M10.793207168579102 11.727763175964355 L10.793207168579102 11.727763175964355 C10.946480751037598 11.864990234375 11.099753379821777 12.002218246459961 11.253026962280273 12.139445304870605 L11.253026962280273 12.139445304870605 C11.067817687988281 12.139445304870605 10.882609367370605 12.139445304870605 10.697400093078613 12.139445304870605 L10.697400093078613 12.139445304870605 C10.778432846069336 12.30855941772461 11.005487442016602 12.438300132751465 11.190817832946777 12.409690856933594 L11.190817832946777 12.409690856933594 C11.069755554199219 12.74841594696045 10.211042404174805 12.395586967468262 10.793207168579102 11.727763175964355 L10.793207168579102 11.727763175964355"></path>
<path fill="none" stroke="black" stroke-width=".3" stroke-opacity="1.0"  filling="0" d="M10.853918075561523 11.76752758026123 L10.853918075561523 11.76752758026123 C10.925054550170898 11.86169147491455 10.996191024780273 11.955854415893555 11.067327499389648 12.050018310546875 L11.067327499389648 12.050018310546875 C10.940291404724121 12.050018310546875 10.813254356384277 12.050018310546875 10.68621826171875 12.050018310546875 L10.68621826171875 12.050018310546875 C10.697490692138672 11.985418319702148 10.70876407623291 11.920819282531738 10.720036506652832 11.856219291687012 L10.720036506652832 11.856219291687012 C10.764663696289062 11.826655387878418 10.809290885925293 11.797091484069824 10.853918075561523 11.76752758026123 L10.853918075561523 11.76752758026123"></path></svg>