<svg xmlns="http://www.w3.org/2000/svg" viewBox="0.0 0.0 24.0 24.0" height="200px" width="200px"><path fill="none" stroke="black" stroke-width=".3" stroke-opacity="1.0"  filling="0" d="M16.337646484375 11.678646087646484 L16.337646484375 11.678646087646484 C16.468599319458008 11.886266708374023 16.472261428833008 12.15713119506836 16.472509384155273 12.402600288391113 L16.472509384155273 12.402600288391113 C16.51479148864746 12.406527519226074 16.557071685791016 12.410454750061035 16.599353790283203 12.414381980895996 L16.599353790283203 12.414381980895996 C16.61565399169922 12.517971992492676 16.408817291259766 12.505276679992676 16.30712890625 12.530891418457031 L16.30712890625 12.530891418457031 C16.314809799194336 12.484254837036133 16.322492599487305 12.437618255615234 16.33017349243164 12.390981674194336 L16.33017349243164 12.390981674194336 C15.764321327209473 12.68865966796875 15.733882904052734 12.157578468322754 16.29821014404297 11.97278118133545 L16.29821014404297 11.97278118133545 C16.250011444091797 11.874190330505371 16.07004165649414 11.812983512878418 15.982555389404297 11.879236221313477 L15.982555389404297 11.879236221313477 C15.949691772460938 11.87175464630127 15.916829109191895 11.864272117614746 15.883965492248535 11.856790542602539 L15.883965492248535 11.856790542602539 C15.935949325561523 11.702863693237305 16.17548942565918 11.688681602478027 16.337646484375 11.678646087646484 L16.337646484375 11.678646087646484"></path>
<path fill="none" stroke="black" stroke-width=".3" stroke-opacity="1.0"  filling="0" d="M16.302654266357422 12.09373664855957 L16.302654266357422 12.09373664855957 C16.302654266357422 12.165172576904297 16.302654266357422 12.23660945892334 16.302654266357422 12.308045387268066 L16.302654266357422 12.308045387268066 C16.007749557495117 12.546029090881348 15.881669998168945 12.168951034545898 16.302654266357422 12.09373664855957 L16.302654266357422 12.09373664855957"></path></svg>