<svg xmlns="http://www.w3.org/2000/svg" viewBox="0.0 0.0 24.0 24.0" height="200px" width="200px"><path fill="none" stroke="black" stroke-width=".3" stroke-opacity="1.0"  filling="0" d="M11.728145599365234 11.736927032470703 L11.728145599365234 11.736927032470703 C11.728145599365234 11.969573020935059 11.728145599365234 12.202218055725098 11.728145599365234 12.434864044189453 L11.728145599365234 12.434864044189453 C11.771627426147461 12.468582153320312 11.815109252929688 12.502300262451172 11.858591079711914 12.536018371582031 L11.858591079711914 12.536018371582031 C11.716691017150879 12.536018371582031 11.574790954589844 12.536018371582031 11.432890892028809 12.536018371582031 L11.432890892028809 12.536018371582031 C11.428254127502441 12.527682304382324 11.42361831665039 12.519346237182617 11.418981552124023 12.51101016998291 L11.418981552124023 12.51101016998291 C11.603450775146484 12.378140449523926 11.56148910522461 12.071690559387207 11.562926292419434 11.844355583190918 L11.562926292419434 11.844355583190918 C11.51010799407959 11.83892822265625 11.457290649414062 11.833501815795898 11.404472351074219 11.82807445526123 L11.404472351074219 11.82807445526123 C11.51236343383789 11.79769229888916 11.620254516601562 11.767309188842773 11.728145599365234 11.736927032470703 L11.728145599365234 11.736927032470703"></path></svg>