<svg xmlns="http://www.w3.org/2000/svg" viewBox="0.0 0.0 24.0 24.0" height="200px" width="200px"><path fill="none" stroke="black" stroke-width=".3" stroke-opacity="1.0"  filling="0" d="M15.655282020568848 11.730545043945312 L15.655282020568848 11.730545043945312 C15.758764266967773 11.85045337677002 15.871625900268555 11.980134010314941 15.904582023620605 12.135054588317871 L15.904582023620605 12.135054588317871 C15.706099510192871 12.135054588317871 15.507617950439453 12.135054588317871 15.309135437011719 12.135054588317871 L15.309135437011719 12.135054588317871 C15.481971740722656 12.22685432434082 15.65480899810791 12.318655014038086 15.827645301818848 12.410454750061035 L15.827645301818848 12.410454750061035 C15.747093200683594 12.68938159942627 14.457680702209473 11.971644401550293 15.655282020568848 11.730545043945312 L15.655282020568848 11.730545043945312"></path>
<path fill="none" stroke="black" stroke-width=".3" stroke-opacity="1.0"  filling="0" d="M15.52649974822998 11.782036781311035 L15.52649974822998 11.782036781311035 C15.585663795471191 11.871437072753906 15.644826889038086 11.960836410522461 15.703990936279297 12.050236701965332 L15.703990936279297 12.050236701965332 C15.574299812316895 12.050236701965332 15.444609642028809 12.050235748291016 15.314918518066406 12.050235748291016 L15.314918518066406 12.050235748291016 C15.385445594787598 11.960836410522461 15.455972671508789 11.87143611907959 15.52649974822998 11.782036781311035 L15.52649974822998 11.782036781311035"></path></svg>