<svg xmlns="http://www.w3.org/2000/svg" viewBox="0.0 0.0 24.0 24.0" height="200px" width="200px"><path fill="none" stroke="black" stroke-width=".3" stroke-opacity="1.0"  filling="0" d="M12.242018699645996 11.465782165527344 L12.242018699645996 11.465782165527344 C12.242018699645996 11.552709579467773 12.242018699645996 11.639636993408203 12.242018699645996 11.726564407348633 L12.242018699645996 11.726564407348633 C12.320855140686035 11.761164665222168 12.399690628051758 11.795763969421387 12.478527069091797 11.830364227294922 L12.478527069091797 11.830364227294922 C12.40088176727295 11.833836555480957 12.323236465454102 11.837308883666992 12.245591163635254 11.840781211853027 L12.245591163635254 11.840781211853027 C12.246109962463379 12.053194999694824 12.26466178894043 12.351421356201172 12.456791877746582 12.442008972167969 L12.456791877746582 12.442008972167969 C12.459092140197754 12.470372200012207 12.46139144897461 12.498736381530762 12.463691711425781 12.527099609375 L12.463691711425781 12.527099609375 C11.99437141418457 12.675251960754395 12.082755088806152 12.130317687988281 12.081954956054688 11.846345901489258 L12.081954956054688 11.846345901489258 C12.04163646697998 11.814000129699707 12.00131893157959 11.781655311584473 11.961000442504883 11.749309539794922 L11.961000442504883 11.749309539794922 C12.049070358276367 11.649558067321777 12.131093978881836 11.539281845092773 12.242018699645996 11.465782165527344 L12.242018699645996 11.465782165527344"></path></svg>