<svg xmlns="http://www.w3.org/2000/svg" viewBox="0.0 0.0 24.0 24.0" height="200px" width="200px"><path fill="none" stroke="black" stroke-width=".3" stroke-opacity="1.0"  filling="0" d="M23.801620483398438 10.155217170715332 L23.801620483398438 10.155217170715332 C23.947715759277344 10.640515327453613 23.836227416992188 11.163427352905273 23.836227416992188 11.666753768920898 L23.836227416992188 11.666753768920898 C25.311321258544922 10.8309907913208 24.71471405029297 12.66769790649414 25.269134521484375 13.304317474365234 L25.269134521484375 13.304317474365234 C24.98473358154297 13.304317474365234 24.700334548950195 13.304317474365234 24.41593360900879 13.304317474365234 L24.41593360900879 13.304317474365234 C24.41444206237793 13.275090217590332 24.412952423095703 13.245863914489746 24.411460876464844 13.216636657714844 L24.411460876464844 13.216636657714844 C24.501352310180664 13.190390586853027 24.59124183654785 13.164145469665527 24.681133270263672 13.137899398803711 L24.681133270263672 13.137899398803711 C24.677644729614258 12.246023178100586 24.852651596069336 11.306367874145508 23.826295852661133 11.837944984436035 L23.826295852661133 11.837944984436035 C23.853410720825195 12.293825149536133 23.621658325195312 13.124075889587402 24.185455322265625 13.2017183303833 L24.185455322265625 13.2017183303833 C24.185455322265625 13.233691215515137 24.185455322265625 13.265663146972656 24.185455322265625 13.297636032104492 L24.185455322265625 13.297636032104492 C23.82350730895996 13.372908592224121 23.490175247192383 13.435638427734375 23.212038040161133 13.216226577758789 L23.212038040161133 13.216226577758789 C23.88191032409668 13.095587730407715 23.625051498413086 11.081571578979492 23.473447799682617 10.510472297668457 L23.473447799682617 10.510472297668457 C23.387283325195312 10.494099617004395 23.301118850708008 10.477725982666016 23.214954376220703 10.461353302001953 L23.214954376220703 10.461353302001953 C23.35590362548828 10.253244400024414 23.57022476196289 10.23102855682373 23.801620483398438 10.155217170715332 L23.801620483398438 10.155217170715332"></path></svg>