<svg xmlns="http://www.w3.org/2000/svg" viewBox="0.0 0.0 24.0 24.0" height="200px" width="200px"><path fill="none" stroke="black" stroke-width=".3" stroke-opacity="1.0"  filling="0" d="M23.225290298461914 11.626145362854004 L23.225290298461914 11.626145362854004 C23.928354263305664 12.093876838684082 23.559144973754883 12.025875091552734 22.81827163696289 12.026918411254883 L22.81827163696289 12.026918411254883 C22.95394515991211 11.893327713012695 23.089616775512695 11.759736061096191 23.225290298461914 11.626145362854004 L23.225290298461914 11.626145362854004"></path>
<path fill="none" stroke="black" stroke-width=".3" stroke-opacity="1.0"  filling="0" d="M23.662635803222656 11.632390975952148 L23.662635803222656 11.632390975952148 C23.77584457397461 11.80041790008545 23.889055252075195 11.968445777893066 24.00226402282715 12.136472702026367 L24.00226402282715 12.136472702026367 C23.763547897338867 12.136472702026367 22.893884658813477 12.136422157287598 22.890029907226562 12.136908531188965 C22.450998306274414 12.192273139953613 23.090347290039062 13.50204849243164 23.902610778808594 13.015064239501953 L23.902610778808594 13.015064239501953 C23.926847457885742 13.03779125213623 23.951082229614258 13.060519218444824 23.975318908691406 13.083246231079102 L23.975318908691406 13.083246231079102 C22.54557228088379 14.156846046447754 21.70435333251953 11.788604736328125 23.662635803222656 11.632390975952148 L23.662635803222656 11.632390975952148"></path></svg>