<svg xmlns="http://www.w3.org/2000/svg" viewBox="0.0 0.0 24.0 24.0" height="200px" width="200px"><path fill="none" stroke="black" stroke-width=".3" stroke-opacity="1.0"  filling="0" d="M24.804515838623047 11.54757308959961 L24.804515838623047 11.54757308959961 C24.804515838623047 11.64159107208252 24.804515838623047 11.735610008239746 24.804515838623047 11.829627990722656 L24.804515838623047 11.829627990722656 C26.123170852661133 10.976713180541992 25.808725357055664 12.424010276794434 25.937427520751953 13.145973205566406 C25.949203491210938 13.2120361328125 26.262903213500977 13.349023818969727 26.260089874267578 13.388672828674316 C26.25418472290039 13.471906661987305 25.431421279907227 13.444764137268066 25.324310302734375 13.445100784301758 L25.324310302734375 13.445100784301758 C25.339637756347656 13.40352725982666 25.354965209960938 13.361954689025879 25.37029266357422 13.320381164550781 L25.37029266357422 13.320381164550781 C25.45890998840332 13.309154510498047 25.547529220581055 13.297927856445312 25.636146545410156 13.286701202392578 L25.636146545410156 13.286701202392578 C25.634000778198242 12.87631893157959 25.748384475708008 12.448408126831055 25.62970733642578 12.055554389953613 C25.364553451538086 11.177818298339844 24.271984100341797 12.574467658996582 25.112863540649414 13.440299987792969 L25.112863540649414 13.440299987792969 C24.79853630065918 13.440299987792969 24.484209060668945 13.440299987792969 24.16988182067871 13.440299987792969 L24.16988182067871 13.440299987792969 C24.167917251586914 13.407981872558594 24.16595458984375 13.375663757324219 24.163990020751953 13.343345642089844 L24.163990020751953 13.343345642089844 C24.821332931518555 13.236385345458984 24.549623489379883 12.474892616271973 24.47808837890625 11.952436447143555 L24.47808837890625 11.952436447143555 C24.383962631225586 11.925782203674316 24.28983497619629 11.899127006530762 24.195709228515625 11.872472763061523 L24.195709228515625 11.872472763061523 C24.19422721862793 11.847636222839355 24.1927433013916 11.822800636291504 24.191261291503906 11.797964096069336 L24.191261291503906 11.797964096069336 C24.403696060180664 11.727717399597168 24.588848114013672 11.586145401000977 24.804515838623047 11.54757308959961 L24.804515838623047 11.54757308959961"></path></svg>