<svg xmlns="http://www.w3.org/2000/svg" viewBox="0.0 0.0 24.0 24.0" height="200px" width="200px"><path fill="none" stroke="black" stroke-width=".3" stroke-opacity="1.0"  filling="0" d="M-1.0436468124389648 11.41270923614502 L-1.0436468124389648 11.41270923614502 C-1.017364501953125 11.526673316955566 -0.9910821914672852 11.640636444091797 -0.9647998809814453 11.754600524902344 L-0.9647998809814453 11.754600524902344 C-0.724517822265625 11.606175422668457 -0.60938560962677 11.295143127441406 -0.2732734680175781 11.549182891845703 C-0.038940027356147766 11.726296424865723 -0.43821632862091064 11.941237449645996 -0.6779184341430664 11.756537437438965 L-0.6779184341430664 11.756537437438965 C-1.0537689924240112 12.222479820251465 -1.3704590797424316 13.192195892333984 -0.552490234375 13.278793334960938 L-0.552490234375 13.278793334960938 C-0.552490234375 13.32546615600586 -0.552490234375 13.372138977050781 -0.552490234375 13.418811798095703 L-0.552490234375 13.418811798095703 C-0.9110969305038452 13.383578300476074 -1.3571465015411377 13.587400436401367 -1.6006364822387695 13.293384552001953 L-1.6006364822387695 13.293384552001953 C-1.4943819046020508 13.268556594848633 -1.388127326965332 13.243727684020996 -1.2818727493286133 13.218899726867676 L-1.2818727493286133 13.218899726867676 C-1.2821005582809448 13.032981872558594 -1.013868808746338 11.87673568725586 -1.5749187469482422 11.8319730758667 L-1.5749187469482422 11.8319730758667 C-1.5749187469482422 11.791772842407227 -1.5749187469482422 11.751572608947754 -1.5749187469482422 11.711372375488281 L-1.5749187469482422 11.711372375488281 C-1.3978281021118164 11.611818313598633 -1.2207374572753906 11.512263298034668 -1.0436468124389648 11.41270923614502 L-1.0436468124389648 11.41270923614502"></path></svg>