<svg xmlns="http://www.w3.org/2000/svg" viewBox="0.0 0.0 24.0 24.0" height="200px" width="200px"><path fill="none" stroke="black" stroke-width=".3" stroke-opacity="1.0"  filling="0" d="M20.70073890686035 10.645417213439941 L20.70073890686035 10.645417213439941 C20.70073890686035 10.816880226135254 20.70073890686035 10.988344192504883 20.70073890686035 11.159807205200195 L20.70073890686035 11.159807205200195 C20.89402961730957 11.148298263549805 21.087322235107422 11.136789321899414 21.28061294555664 11.125280380249023 L21.28061294555664 11.125280380249023 C21.443832397460938 11.416651725769043 20.86370849609375 11.318262100219727 20.708511352539062 11.318262100219727 L20.708511352539062 11.318262100219727 C20.67240333557129 11.866235733032227 20.65916633605957 12.290839195251465 20.83426284790039 12.789627075195312 L20.83426284790039 12.789627075195312 C20.987741470336914 12.761642456054688 21.158329010009766 12.709790229797363 21.301910400390625 12.770809173583984 L21.301910400390625 12.770809173583984 C19.62185287475586 13.423885345458984 21.02405548095703 11.31842041015625 20.116884231567383 11.318208694458008 L20.116884231567383 11.318208694458008 C20.185218811035156 11.151564598083496 20.543630599975586 10.746231079101562 20.70073890686035 10.645417213439941 L20.70073890686035 10.645417213439941"></path></svg>