<svg xmlns="http://www.w3.org/2000/svg" viewBox="0.0 0.0 24.0 24.0" height="200px" width="200px"><path fill="none" stroke="black" stroke-width=".3" stroke-opacity="1.0"  filling="0" d="M0.709172248840332 11.481491088867188 L0.709172248840332 11.481491088867188 C1.2738990783691406 12.052801132202148 1.133026361465454 12.381803512573242 1.1667823791503906 13.1444730758667 L1.1667823791503906 13.1444730758667 C1.2566003799438477 13.120354652404785 1.3464183807373047 13.096236228942871 1.4362363815307617 13.072117805480957 L1.4362363815307617 13.072117805480957 C1.3648064136505127 13.57838249206543 1.101260781288147 13.441566467285156 0.8600730895996094 13.115891456604004 L0.8600730895996094 13.115891456604004 C-1.1270859241485596 14.496796607971191 2.110715389251709 10.436405181884766 -0.04006385803222656 12.15848159790039 L-0.04006385803222656 12.15848159790039 C-0.059309326112270355 12.129681587219238 -0.07855478674173355 12.100882530212402 -0.09780025482177734 12.07208251953125 L-0.09780025482177734 12.07208251953125 C0.17119058966636658 11.875218391418457 0.4401814043521881 11.67835521697998 0.709172248840332 11.481491088867188 L0.709172248840332 11.481491088867188"></path>
<path fill="none" stroke="black" stroke-width=".3" stroke-opacity="1.0"  filling="0" d="M0.85772705078125 12.455208778381348 L0.85772705078125 12.455208778381348 C0.7415565252304077 13.779090881347656 -0.19864284992218018 12.692784309387207 0.85772705078125 12.455208778381348 L0.85772705078125 12.455208778381348"></path></svg>