<svg xmlns="http://www.w3.org/2000/svg" viewBox="0.0 0.0 24.0 24.0" height="200px" width="200px"><path fill="none" stroke="black" stroke-width=".3" stroke-opacity="1.0"  filling="0" d="M14.906508445739746 11.512228012084961 L14.906508445739746 11.512228012084961 C14.97453784942627 11.57620620727539 15.053418159484863 11.662704467773438 15.045082092285156 11.755719184875488 L15.045082092285156 11.755719184875488 C15.1713285446167 11.64497184753418 15.348428726196289 11.591697692871094 15.515591621398926 11.575582504272461 L15.515591621398926 11.575582504272461 C15.380507469177246 11.955724716186523 14.986433029174805 12.21385383605957 14.872446060180664 12.600846290588379 L14.872446060180664 12.600846290588379 C14.7371826171875 12.600846290588379 14.601919174194336 12.600846290588379 14.466655731201172 12.600846290588379 L14.466655731201172 12.600846290588379 C14.507309913635254 12.35289192199707 14.54796314239502 12.104936599731445 14.588617324829102 11.856982231140137 L14.588617324829102 11.856982231140137 C14.518908500671387 11.834073066711426 14.449199676513672 11.811163902282715 14.379490852355957 11.788254737854004 L14.379490852355957 11.788254737854004 C14.456328392028809 11.605436325073242 14.719786643981934 11.579023361206055 14.906508445739746 11.512228012084961 L14.906508445739746 11.512228012084961"></path></svg>