<svg xmlns="http://www.w3.org/2000/svg" viewBox="0.0 0.0 24.0 24.0" height="200px" width="200px"><path fill="none" stroke="black" stroke-width=".3" stroke-opacity="1.0"  filling="0" d="M15.295445442199707 11.46728229522705 L15.295445442199707 11.46728229522705 C15.295445442199707 12.093536376953125 15.295445442199707 12.719791412353516 15.295445442199707 13.34604549407959 L15.295445442199707 13.34604549407959 C15.397436141967773 13.368154525756836 15.49942684173584 13.390263557434082 15.601417541503906 13.412372589111328 L15.601417541503906 13.412372589111328 C15.60313606262207 13.425654411315918 15.604854583740234 13.438936233520508 15.606573104858398 13.452218055725098 L15.606573104858398 13.452218055725098 C15.379383087158203 13.578341484069824 14.884013175964355 13.499441146850586 14.602282524108887 13.500054359436035 L14.602282524108887 13.500054359436035 C14.598491668701172 13.467999458312988 14.594700813293457 13.435945510864258 14.590909957885742 13.403890609741211 L14.590909957885742 13.403890609741211 C14.70609188079834 13.388690948486328 14.821273803710938 13.373490333557129 14.936455726623535 13.358290672302246 L14.936455726623535 13.358290672302246 C15.108930587768555 12.81885814666748 15.091615676879883 12.298371315002441 14.71363639831543 11.913463592529297 L14.71363639831543 11.913463592529297 C14.813285827636719 11.66290283203125 15.071695327758789 11.599716186523438 15.295445442199707 11.46728229522705 L15.295445442199707 11.46728229522705"></path></svg>