<svg xmlns="http://www.w3.org/2000/svg" viewBox="0.0 0.0 24.0 24.0" height="200px" width="200px"><path fill="none" stroke="black" stroke-width=".3" stroke-opacity="1.0"  filling="0" d="M12.63725471496582 11.890445709228516 L12.63725471496582 11.890445709228516 C13.13947582244873 11.939168930053711 13.037052154541016 12.039327621459961 13.07877254486084 12.475227355957031 L13.07877254486084 12.475227355957031 C12.859427452087402 12.708378791809082 12.067705154418945 12.235431671142578 12.896944999694824 12.094118118286133 L12.896944999694824 12.094118118286133 C12.896944999694824 12.067917823791504 12.896944999694824 12.041718482971191 12.896944999694824 12.015518188476562 L12.896944999694824 12.015518188476562 C12.783852577209473 12.016081809997559 12.66842269897461 12.02911376953125 12.561382293701172 12.065618515014648 L12.561382293701172 12.065618515014648 C12.58667278289795 12.007227897644043 12.611964225769043 11.948836326599121 12.63725471496582 11.890445709228516 L12.63725471496582 11.890445709228516"></path>
<path fill="none" stroke="black" stroke-width=".3" stroke-opacity="1.0"  filling="0" d="M12.895772933959961 12.219245910644531 L12.895772933959961 12.219245910644531 C12.895772933959961 12.26050090789795 12.895772933959961 12.30175495147705 12.895772933959961 12.343009948730469 L12.895772933959961 12.343009948730469 C12.626653671264648 12.422015190124512 12.620186805725098 12.22606372833252 12.895772933959961 12.219245910644531 L12.895772933959961 12.219245910644531"></path></svg>