<svg xmlns="http://www.w3.org/2000/svg" viewBox="0.0 0.0 24.0 24.0" height="200px" width="200px"><path fill="none" stroke="black" stroke-width=".3" stroke-opacity="1.0"  filling="0" d="M11.371391296386719 10.950597763061523 L11.371391296386719 10.950597763061523 C11.405694007873535 11.035670280456543 11.42292594909668 11.128534317016602 11.426591873168945 11.220189094543457 L11.426591873168945 11.220189094543457 C13.005094528198242 10.761890411376953 13.098210334777832 12.990389823913574 11.416854858398438 12.902318000793457 L11.416854858398438 12.902318000793457 C11.323308944702148 13.543045997619629 11.214712142944336 13.943609237670898 11.827665328979492 14.086989402770996 L11.827665328979492 14.086989402770996 C11.827665328979492 14.116344451904297 11.827665328979492 14.145698547363281 11.827665328979492 14.175053596496582 L11.827665328979492 14.175053596496582 C11.443028450012207 14.175053596496582 11.058392524719238 14.175053596496582 10.673755645751953 14.175053596496582 L10.673755645751953 14.175053596496582 C10.776758193969727 14.060912132263184 10.947892189025879 14.021327018737793 11.099973678588867 13.998761177062988 L11.099973678588867 13.998761177062988 C11.099973678588867 13.735045433044434 11.486021995544434 11.421899795532227 10.75377368927002 11.368471145629883 L10.75377368927002 11.368471145629883 C10.863790512084961 11.19836139678955 11.184319496154785 11.078059196472168 11.371391296386719 10.950597763061523 L11.371391296386719 10.950597763061523"></path>
<path fill="none" stroke="black" stroke-width=".3" stroke-opacity="1.0"  filling="0" d="M11.568872451782227 11.345316886901855 L11.568872451782227 11.345316886901855 C11.843199729919434 11.44808578491211 12.848482131958008 11.621977806091309 12.370990753173828 12.343499183654785 C12.187073707580566 12.621410369873047 11.415132522583008 12.909565925598145 11.398799896240234 12.576709747314453 C11.379332542419434 12.179977416992188 11.399672508239746 11.7822904586792 11.400108337402344 11.38508129119873 L11.400108337402344 11.38508129119873 C11.4563627243042 11.371826171875 11.512618064880371 11.358572006225586 11.568872451782227 11.345316886901855 L11.568872451782227 11.345316886901855"></path></svg>