<svg xmlns="http://www.w3.org/2000/svg" viewBox="0.0 0.0 24.0 24.0" height="200px" width="200px"><path fill="none" stroke="black" stroke-width=".3" stroke-opacity="1.0"  filling="0" d="M16.73476219177246 11.466408729553223 L16.73476219177246 11.466408729553223 C16.69916343688965 11.718690872192383 16.663562774658203 11.970973014831543 16.62796401977539 12.223255157470703 L16.62796401977539 12.223255157470703 C16.69484519958496 12.212163925170898 16.76172637939453 12.201072692871094 16.8286075592041 12.189981460571289 L16.8286075592041 12.189981460571289 C16.63915252685547 12.503660202026367 16.494346618652344 12.766417503356934 16.162389755249023 12.46827220916748 L16.162389755249023 12.46827220916748 C15.589157104492188 12.797733306884766 15.206713676452637 12.43008804321289 15.66954517364502 11.782173156738281 C15.940157890319824 11.403343200683594 16.36304473876953 11.56015396118164 16.73476219177246 11.466408729553223 L16.73476219177246 11.466408729553223"></path>
<path fill="none" stroke="black" stroke-width=".3" stroke-opacity="1.0"  filling="0" d="M16.238399505615234 11.726317405700684 L16.238399505615234 11.726317405700684 C16.180007934570312 11.898944854736328 16.121618270874023 12.071573257446289 16.0632266998291 12.244200706481934 L16.0632266998291 12.244200706481934 C16.000995635986328 12.072919845581055 16.12604522705078 11.869796752929688 16.238399505615234 11.726317405700684 L16.238399505615234 11.726317405700684"></path></svg>