<svg xmlns="http://www.w3.org/2000/svg" viewBox="0.0 0.0 24.0 24.0" height="200px" width="200px"><path fill="none" stroke="black" stroke-width=".3" stroke-opacity="1.0"  filling="0" d="M16.19102668762207 11.704910278320312 L16.19102668762207 11.704910278320312 C16.196025848388672 11.76192855834961 16.201026916503906 11.81894588470459 16.206026077270508 11.875964164733887 L16.206026077270508 11.875964164733887 C16.28421401977539 11.822142601013184 16.473011016845703 11.618461608886719 16.61127281188965 11.750210762023926 C16.827388763427734 11.956146240234375 16.4383487701416 11.935087203979492 16.35411834716797 11.883845329284668 L16.35411834716797 11.883845329284668 C16.15216827392578 12.216292381286621 15.98235034942627 12.693107604980469 16.451644897460938 12.805200576782227 L16.451644897460938 12.805200576782227 C16.35345458984375 12.99545669555664 15.926044464111328 12.865209579467773 15.814172744750977 12.863401412963867 L15.814172744750977 12.863401412963867 C15.879162788391113 12.831755638122559 15.944153785705566 12.80010986328125 16.009143829345703 12.768464088439941 L16.009143829345703 12.768464088439941 C16.00950050354004 12.342188835144043 16.179943084716797 12.064153671264648 15.825244903564453 11.898301124572754 L15.825244903564453 11.898301124572754 C15.947172164916992 11.833837509155273 16.06909942626953 11.769373893737793 16.19102668762207 11.704910278320312 L16.19102668762207 11.704910278320312"></path></svg>