<svg xmlns="http://www.w3.org/2000/svg" viewBox="0.0 0.0 24.0 24.0" height="200px" width="200px"><path fill="none" stroke="black" stroke-width=".3" stroke-opacity="1.0"  filling="0" d="M19.191625595092773 10.978035926818848 L19.191625595092773 10.978035926818848 C19.195980072021484 11.269927024841309 19.200334548950195 11.56181812286377 19.204689025878906 11.85370922088623 L19.204689025878906 11.85370922088623 C19.916959762573242 11.49841594696045 19.882787704467773 12.366056442260742 19.88159942626953 12.749563217163086 L19.88159942626953 12.749563217163086 C19.936107635498047 12.778691291809082 19.990615844726562 12.807818412780762 20.045124053955078 12.836946487426758 L20.045124053955078 12.836946487426758 C19.867042541503906 12.836946487426758 19.688961029052734 12.836946487426758 19.510879516601562 12.836946487426758 L19.510879516601562 12.836946487426758 C19.792177200317383 12.531049728393555 19.73629379272461 11.59229850769043 19.200408935546875 11.96566390991211 L19.200408935546875 11.96566390991211 C19.200443267822266 12.105680465698242 19.043737411499023 12.714216232299805 19.389705657958984 12.772418022155762 L19.389705657958984 12.772418022155762 C19.38013458251953 12.798172950744629 19.370561599731445 12.82392692565918 19.360990524291992 12.849681854248047 L19.360990524291992 12.849681854248047 C19.184953689575195 12.849681854248047 19.0089168548584 12.849681854248047 18.8328800201416 12.849681854248047 L18.8328800201416 12.849681854248047 C19.22190284729004 12.248347282409668 18.839725494384766 11.595176696777344 18.82150650024414 11.095854759216309 L18.82150650024414 11.095854759216309 C18.94487953186035 11.056581497192383 19.068252563476562 11.017309188842773 19.191625595092773 10.978035926818848 L19.191625595092773 10.978035926818848"></path></svg>