<svg xmlns="http://www.w3.org/2000/svg" viewBox="0.0 0.0 24.0 24.0" height="200px" width="200px"><path fill="none" stroke="black" stroke-width=".3" stroke-opacity="1.0"  filling="0" d="M12.486435890197754 11.866745948791504 L12.486435890197754 11.866745948791504 C12.591656684875488 11.969359397888184 12.708290100097656 12.081711769104004 12.744709014892578 12.224100112915039 L12.744709014892578 12.224100112915039 C12.59151840209961 12.215481758117676 12.438326835632324 12.206864356994629 12.285136222839355 12.198246002197266 L12.285136222839355 12.198246002197266 C12.409628868103027 12.266554832458496 12.740108489990234 12.502327919006348 12.599017143249512 12.486271858215332 C11.959779739379883 12.413525581359863 12.04565715789795 12.048909187316895 12.486435890197754 11.866745948791504 L12.486435890197754 11.866745948791504"></path>
<path fill="none" stroke="black" stroke-width=".3" stroke-opacity="1.0"  filling="0" d="M12.387818336486816 11.98674488067627 L12.387818336486816 11.98674488067627 C12.440863609313965 12.015045166015625 12.493908882141113 12.043344497680664 12.546954154968262 12.07164478302002 L12.546954154968262 12.07164478302002 C12.46756362915039 12.080636024475098 12.388172149658203 12.08962631225586 12.308781623840332 12.098617553710938 L12.308781623840332 12.098617553710938 C12.335126876831055 12.06132698059082 12.361473083496094 12.024035453796387 12.387818336486816 11.98674488067627 L12.387818336486816 11.98674488067627"></path></svg>