<svg xmlns="http://www.w3.org/2000/svg" viewBox="0.0 0.0 24.0 24.0" height="200px" width="200px"><path fill="none" stroke="black" stroke-width=".3" stroke-opacity="1.0"  filling="0" d="M8.602964401245117 11.721517562866211 L8.602964401245117 11.721517562866211 C8.614609718322754 11.765753746032715 8.62625503540039 11.809990882873535 8.637900352478027 11.854227066040039 L8.637900352478027 11.854227066040039 C9.380623817443848 11.528387069702148 9.250408172607422 12.297664642333984 9.305045127868652 12.756927490234375 L9.305045127868652 12.756927490234375 C9.371699333190918 12.77404499053955 9.4383544921875 12.791163444519043 9.505008697509766 12.808280944824219 L9.505008697509766 12.808280944824219 C9.36971664428711 12.94849967956543 9.118264198303223 12.866209030151367 8.923418045043945 12.866945266723633 L8.923418045043945 12.866945266723633 C8.918890953063965 12.8573637008667 8.914362907409668 12.847782135009766 8.909835815429688 12.838200569152832 L8.909835815429688 12.838200569152832 C9.279163360595703 12.582880973815918 9.188610076904297 11.523223876953125 8.622381210327148 11.995583534240723 L8.622381210327148 11.995583534240723 C8.622381210327148 12.291729927062988 8.570741653442383 12.693514823913574 8.813427925109863 12.863237380981445 L8.813427925109863 12.863237380981445 C8.605782508850098 12.862639427185059 8.33697509765625 12.957282066345215 8.192972183227539 12.807682991027832 L8.192972183227539 12.807682991027832 C8.578702926635742 12.659814834594727 8.427030563354492 12.431623458862305 8.42727279663086 11.984481811523438 L8.42727279663086 11.984481811523438 C8.35761833190918 11.957609176635742 8.2879638671875 11.930736541748047 8.21830940246582 11.903863906860352 L8.21830940246582 11.903863906860352 C8.346528053283691 11.8430814743042 8.474745750427246 11.782299995422363 8.602964401245117 11.721517562866211 L8.602964401245117 11.721517562866211"></path></svg>