<svg xmlns="http://www.w3.org/2000/svg" viewBox="0.0 0.0 24.0 24.0" height="200px" width="200px"><path fill="none" stroke="black" stroke-width=".3" stroke-opacity="1.0"  filling="0" d="M12.545454978942871 11.809091567993164 L12.545454978942871 11.809091567993164 C12.573385238647461 11.951839447021484 12.553956031799316 12.100249290466309 12.545454978942871 12.245454788208008 L12.545454978942871 12.245454788208008 C12.518181800842285 12.245454788208008 12.490909576416016 12.245454788208008 12.46363639831543 12.245454788208008 L12.46363639831543 12.245454788208008 C12.475881576538086 12.170045852661133 12.488126754760742 12.094635963439941 12.500371932983398 12.019227027893066 L12.500371932983398 12.019227027893066 C12.468917846679688 12.003827095031738 12.437463760375977 11.98842716217041 12.406009674072266 11.973027229309082 L12.406009674072266 11.973027229309082 C12.38885498046875 12.063836097717285 12.371700286865234 12.154645919799805 12.354545593261719 12.245454788208008 L12.354545593261719 12.245454788208008 C12.336363792419434 12.245454788208008 12.318181037902832 12.245454788208008 12.299999237060547 12.245454788208008 L12.299999237060547 12.245454788208008 C12.277852058410645 12.135652542114258 12.388797760009766 12.028746604919434 12.477163314819336 11.959909439086914 L12.477163314819336 11.959909439086914 C12.490836143493652 11.909646034240723 12.504508972167969 11.859381675720215 12.518181800842285 11.809118270874023 L12.518181800842285 11.809118270874023 C12.527273178100586 11.809109687805176 12.53636360168457 11.809100151062012 12.545454978942871 11.809091567993164 L12.545454978942871 11.809091567993164"></path></svg>