<svg xmlns="http://www.w3.org/2000/svg" viewBox="0.0 0.0 24.0 24.0" height="200px" width="200px"><path fill="none" stroke="black" stroke-width=".3" stroke-opacity="1.0"  filling="0" d="M17.439136505126953 11.751298904418945 L17.439136505126953 11.751298904418945 C17.516300201416016 11.860836029052734 17.593463897705078 11.970372200012207 17.67062759399414 12.079909324645996 L17.67062759399414 12.079909324645996 C17.433700561523438 12.079909324645996 17.1967716217041 12.079909324645996 16.9598445892334 12.079909324645996 L16.9598445892334 12.079909324645996 C17.027585983276367 12.348394393920898 17.348392486572266 12.610687255859375 17.62352752685547 12.579490661621094 L17.62352752685547 12.579490661621094 C17.692394256591797 13.154837608337402 15.60412311553955 12.10349178314209 17.439136505126953 11.751298904418945 L17.439136505126953 11.751298904418945"></path>
<path fill="none" stroke="black" stroke-width=".3" stroke-opacity="1.0"  filling="0" d="M17.248281478881836 11.782118797302246 L17.248281478881836 11.782118797302246 C17.3145809173584 11.85249137878418 17.380882263183594 11.922863960266113 17.447181701660156 11.993236541748047 L17.447181701660156 11.993236541748047 C17.289491653442383 11.993236541748047 17.131799697875977 11.993236541748047 16.974109649658203 11.993236541748047 L16.974109649658203 11.993236541748047 C17.065500259399414 11.922863960266113 17.156890869140625 11.85249137878418 17.248281478881836 11.782118797302246 L17.248281478881836 11.782118797302246"></path></svg>