<svg xmlns="http://www.w3.org/2000/svg" viewBox="0.0 0.0 24.0 24.0" height="200px" width="200px"><path fill="none" stroke="black" stroke-width=".3" stroke-opacity="1.0"  filling="0" d="M16.33797264099121 10.925427436828613 L16.33797264099121 10.925427436828613 C16.33797264099121 11.517572402954102 16.33797264099121 12.109718322753906 16.33797264099121 12.701863288879395 L16.33797264099121 12.701863288879395 C16.410581588745117 12.7076997756958 16.483190536499023 12.713536262512207 16.55579948425293 12.719372749328613 L16.55579948425293 12.719372749328613 C16.426708221435547 12.775763511657715 16.297618865966797 12.832154273986816 16.168527603149414 12.888545036315918 L16.168527603149414 12.888545036315918 C16.15593719482422 12.848217964172363 16.14334487915039 12.807890892028809 16.130754470825195 12.767563819885254 L16.130754470825195 12.767563819885254 C15.140080451965332 12.57228946685791 15.200660705566406 11.62105941772461 16.135854721069336 11.787027359008789 L16.135854721069336 11.787027359008789 C16.125701904296875 11.536848068237305 16.119659423828125 11.200855255126953 15.904800415039062 11.072291374206543 L15.904800415039062 11.072291374206543 C16.049190521240234 11.023336410522461 16.19358253479004 10.974382400512695 16.33797264099121 10.925427436828613 L16.33797264099121 10.925427436828613"></path>
<path fill="none" stroke="black" stroke-width=".3" stroke-opacity="1.0"  filling="0" d="M15.978381156921387 11.810482025146484 L15.978381156921387 11.810482025146484 C16.873226165771484 13.154788970947266 14.721131324768066 12.296497344970703 15.978381156921387 11.810482025146484 L15.978381156921387 11.810482025146484"></path></svg>