<svg xmlns="http://www.w3.org/2000/svg" viewBox="0.0 0.0 24.0 24.0" height="200px" width="200px"><path fill="none" stroke="black" stroke-width=".3" stroke-opacity="1.0"  filling="0" d="M12.055717468261719 11.9461088180542 L12.055717468261719 11.9461088180542 C12.136040687561035 12.020508766174316 12.190567016601562 12.135969161987305 12.190908432006836 12.245454788208008 L12.190908432006836 12.245454788208008 C12.17272663116455 12.245454788208008 12.154545783996582 12.245454788208008 12.136363983154297 12.245454788208008 L12.136363983154297 12.245454788208008 C12.136363983154297 12.169063568115234 12.136363983154297 12.092672348022461 12.136363983154297 12.016281127929688 L12.136363983154297 12.016281127929688 C12.103363990783691 11.998808860778809 12.070363998413086 11.981335639953613 12.03736400604248 11.963863372802734 L12.03736400604248 11.963863372802734 C11.993638038635254 12.04965877532959 11.97435188293457 12.149145126342773 11.972726821899414 12.245427131652832 L11.972726821899414 12.245427131652832 C11.954545021057129 12.245427131652832 11.93636417388916 12.245427131652832 11.918182373046875 12.245427131652832 L11.918182373046875 12.245427131652832 C11.918182373046875 12.150545120239258 11.918182373046875 12.055663108825684 11.918182373046875 11.96078109741211 L11.918182373046875 11.96078109741211 C11.964027404785156 11.955890655517578 12.009872436523438 11.95099925994873 12.055717468261719 11.9461088180542 L12.055717468261719 11.9461088180542"></path></svg>