<svg xmlns="http://www.w3.org/2000/svg" viewBox="0.0 0.0 24.0 24.0" height="200px" width="200px"><path fill="none" stroke="black" stroke-width=".3" stroke-opacity="1.0"  filling="0" d="M14.19679069519043 11.792454719543457 L14.19679069519043 11.792454719543457 C14.19679069519043 11.906208992004395 14.19679069519043 12.019964218139648 14.19679069519043 12.133718490600586 L14.19679069519043 12.133718490600586 C14.236690521240234 12.16057300567627 14.276591300964355 12.187427520751953 14.31649112701416 12.214282035827637 L14.31649112701416 12.214282035827637 C14.229228019714355 12.214282035827637 14.141963958740234 12.214282035827637 14.05470085144043 12.214282035827637 L14.05470085144043 12.214282035827637 C14.090264320373535 12.110173225402832 14.12582778930664 12.006063461303711 14.161391258239746 11.901954650878906 L14.161391258239746 11.901954650878906 C14.126118659973145 11.915226936340332 14.090845108032227 11.928500175476074 14.055572509765625 11.9417724609375 L14.055572509765625 11.9417724609375 C14.051827430725098 11.935009002685547 14.048081398010254 11.928245544433594 14.044336318969727 11.92148208618164 L14.044336318969727 11.92148208618164 C14.095154762268066 11.878473281860352 14.14597225189209 11.835463523864746 14.19679069519043 11.792454719543457 L14.19679069519043 11.792454719543457"></path></svg>