<svg xmlns="http://www.w3.org/2000/svg" viewBox="0.0 0.0 24.0 24.0" height="200px" width="200px"><path fill="none" stroke="black" stroke-width=".3" stroke-opacity="1.0"  filling="0" d="M11.518036842346191 11.750946044921875 L11.518036842346191 11.750946044921875 C11.518691062927246 11.812409400939941 11.5193452835083 11.873872756958008 11.519999504089355 11.935336112976074 L11.519999504089355 11.935336112976074 C11.523627281188965 12.037922859191895 11.35421085357666 12.115754127502441 11.254500389099121 12.091363906860352 L11.254500389099121 12.091363906860352 C11.346705436706543 12.107423782348633 11.462843894958496 12.130108833312988 11.534454345703125 12.069845199584961 L11.534454345703125 12.069845199584961 C11.464017868041992 12.027181625366211 11.393582344055176 11.984518051147461 11.323145866394043 11.941854476928711 L11.323145866394043 11.941854476928711 C11.389893531799316 11.925334930419922 11.4541654586792 11.893057823181152 11.507972717285156 11.850245475769043 L11.507972717285156 11.850245475769043 C11.456172943115234 11.802427291870117 11.376114845275879 11.765987396240234 11.307600021362305 11.78258228302002 L11.307600021362305 11.78258228302002 C11.377745628356934 11.7720365524292 11.447891235351562 11.761491775512695 11.518036842346191 11.750946044921875 L11.518036842346191 11.750946044921875"></path></svg>