<svg xmlns="http://www.w3.org/2000/svg" viewBox="0.0 0.0 24.0 24.0" height="200px" width="200px"><path fill="none" stroke="black" stroke-width=".3" stroke-opacity="1.0"  filling="0" d="M12.38187313079834 11.789426803588867 L12.38187313079834 11.789426803588867 C12.381348609924316 11.934757232666016 12.405902862548828 12.094857215881348 12.493363380432129 12.210926055908203 L12.493363380432129 12.210926055908203 C12.408699989318848 12.210926055908203 12.324036598205566 12.210926055908203 12.239373207092285 12.210926055908203 L12.239373207092285 12.210926055908203 C12.238900184631348 12.207481384277344 12.23842716217041 12.204035758972168 12.237954139709473 12.200591087341309 L12.237954139709473 12.200591087341309 C12.265481948852539 12.194890975952148 12.293009757995605 12.189190864562988 12.320537567138672 12.183490753173828 L12.320537567138672 12.183490753173828 C12.320537567138672 12.089181900024414 12.320537567138672 11.994872093200684 12.320537567138672 11.90056324005127 L12.320537567138672 11.90056324005127 C12.29483699798584 11.91538143157959 12.269137382507324 11.930200576782227 12.243436813354492 11.945018768310547 L12.243436813354492 11.945018768310547 C12.237664222717285 11.940900802612305 12.231890678405762 11.936781883239746 12.226118087768555 11.932663917541504 L12.226118087768555 11.932663917541504 C12.278036117553711 11.884918212890625 12.329955101013184 11.837172508239746 12.38187313079834 11.789426803588867 L12.38187313079834 11.789426803588867"></path></svg>