<svg xmlns="http://www.w3.org/2000/svg" viewBox="0.0 0.0 24.0 24.0" height="200px" width="200px"><path fill="none" stroke="black" stroke-width=".3" stroke-opacity="1.0"  filling="0" d="M12.252572059631348 11.51601791381836 L12.252572059631348 11.51601791381836 C12.313545227050781 11.51601791381836 12.374517440795898 11.51601791381836 12.435490608215332 11.51601791381836 L12.435490608215332 11.51601791381836 C12.400727272033691 11.538117408752441 12.365962982177734 11.56021785736084 12.331199645996094 11.582317352294922 L12.331199645996094 11.582317352294922 C12.331199645996094 11.635199546813965 12.331199645996094 11.688080787658691 12.331199645996094 11.740962982177734 L12.331199645996094 11.740962982177734 C12.361427307128906 11.752299308776855 12.391654014587402 11.763636589050293 12.421881675720215 11.774972915649414 L12.421881675720215 11.774972915649414 C12.392190933227539 11.792372703552246 12.362500190734863 11.809772491455078 12.332809448242188 11.82717227935791 L12.332809448242188 11.82717227935791 C12.332809448242188 11.879826545715332 12.332809448242188 11.93248176574707 12.332809448242188 11.985136032104492 L12.332809448242188 11.985136032104492 C12.357427597045898 11.996562957763672 12.38204574584961 12.007990837097168 12.40666389465332 12.019417762756348 L12.40666389465332 12.019417762756348 C12.406182289123535 12.028508186340332 12.405699729919434 12.037599563598633 12.405218124389648 12.046689987182617 L12.405218124389648 12.046689987182617 C12.35433578491211 12.049517631530762 12.303454399108887 12.052345275878906 12.252572059631348 12.05517292022705 L12.252572059631348 12.05517292022705 C12.252572059631348 11.875454902648926 12.252572059631348 11.695735931396484 12.252572059631348 11.51601791381836 L12.252572059631348 11.51601791381836"></path></svg>