<svg xmlns="http://www.w3.org/2000/svg" viewBox="0.0 0.0 24.0 24.0" height="200px" width="200px"><path fill="none" stroke="black" stroke-width=".3" stroke-opacity="1.0"  filling="0" d="M11.903182029724121 11.837019920349121 L11.903182029724121 11.837019920349121 C11.959827423095703 11.896483421325684 12.016472816467285 11.95594596862793 12.073118209838867 12.015409469604492 L12.073118209838867 12.015409469604492 C11.986327171325684 12.021727561950684 11.899537086486816 12.028045654296875 11.812746047973633 12.034363746643066 L11.812746047973633 12.034363746643066 C11.842172622680664 12.080655097961426 11.871600151062012 12.126945495605469 11.901026725769043 12.173236846923828 L11.901026725769043 12.173236846923828 C11.948554039001465 12.146718978881836 11.996081352233887 12.120200157165527 12.043608665466309 12.093682289123535 L12.043608665466309 12.093682289123535 C11.746514320373535 12.264891624450684 11.719618797302246 12.040746688842773 11.903182029724121 11.837019920349121 L11.903182029724121 11.837019920349121"></path>
<path fill="none" stroke="black" stroke-width=".3" stroke-opacity="1.0"  filling="0" d="M11.939126014709473 11.895817756652832 L11.939126014709473 11.895817756652832 C11.95849895477295 11.914709091186523 11.977871894836426 11.933599472045898 11.997244834899902 11.95249080657959 L11.997244834899902 11.95249080657959 C11.946688652038574 11.967931747436523 11.891056060791016 11.969107627868652 11.838871955871582 11.960672378540039 L11.838871955871582 11.960672378540039 C11.836763381958008 11.950799942016602 11.834653854370117 11.940926551818848 11.832545280456543 11.93105411529541 L11.832545280456543 11.93105411529541 C11.868072509765625 11.91930866241455 11.90359878540039 11.907563209533691 11.939126014709473 11.895817756652832 L11.939126014709473 11.895817756652832"></path></svg>