<svg xmlns="http://www.w3.org/2000/svg" viewBox="0.0 0.0 24.0 24.0" height="200px" width="200px"><path fill="none" stroke="black" stroke-width=".3" stroke-opacity="1.0"  filling="0" d="M11.027617454528809 11.864945411682129 L11.027617454528809 11.864945411682129 C11.086217880249023 11.920726776123047 11.144818305969238 11.976509094238281 11.203418731689453 12.0322904586792 L11.203418731689453 12.0322904586792 C11.109245300292969 12.044672012329102 11.0150728225708 12.05705451965332 10.920899391174316 12.069436073303223 L10.920899391174316 12.069436073303223 C10.958090782165527 12.110745429992676 10.995281219482422 12.152053833007812 11.032472610473633 12.193363189697266 L11.032472610473633 12.193363189697266 C11.085199356079102 12.170644760131836 11.137927055358887 12.147927284240723 11.190653800964355 12.125208854675293 L11.190653800964355 12.125208854675293 C10.887350082397461 12.23430347442627 10.814126968383789 12.087933540344238 11.027617454528809 11.864945411682129 L11.027617454528809 11.864945411682129"></path>
<path fill="none" stroke="black" stroke-width=".3" stroke-opacity="1.0"  filling="0" d="M10.953573226928711 11.992090225219727 L10.953573226928711 11.992090225219727 C11.011045455932617 11.992090225219727 11.06851863861084 11.992090225219727 11.125990867614746 11.992090225219727 L11.125990867614746 11.992090225219727 C11.06851863861084 11.992090225219727 11.011045455932617 11.992090225219727 10.953573226928711 11.992090225219727 L10.953573226928711 11.992090225219727"></path></svg>