<svg xmlns="http://www.w3.org/2000/svg" viewBox="0.0 0.0 24.0 24.0" height="200px" width="200px"><path fill="none" stroke="black" stroke-width=".3" stroke-opacity="1.0"  filling="0" d="M11.6632080078125 11.801563262939453 L11.6632080078125 11.801563262939453 C11.6632080078125 11.91313648223877 11.6632080078125 12.02470874786377 11.6632080078125 12.136281967163086 L11.6632080078125 12.136281967163086 C11.69991683959961 12.160954475402832 11.736626625061035 12.185626983642578 11.773335456848145 12.210299491882324 L11.773335456848145 12.210299491882324 C11.683798789978027 12.210299491882324 11.594263076782227 12.210299491882324 11.50472640991211 12.210299491882324 L11.50472640991211 12.210299491882324 C11.504144668579102 12.207218170166016 11.503562927246094 12.20413589477539 11.502981185913086 12.201054573059082 L11.502981185913086 12.201054573059082 C11.53995418548584 12.194409370422363 11.576926231384277 12.187764167785645 11.613899230957031 12.181118965148926 L11.613899230957031 12.181118965148926 C11.613899230957031 12.08914566040039 11.613899230957031 11.997173309326172 11.613899230957031 11.905200004577637 L11.613899230957031 11.905200004577637 C11.583199501037598 11.917926788330078 11.552498817443848 11.930654525756836 11.521799087524414 11.943381309509277 L11.521799087524414 11.943381309509277 C11.517244338989258 11.935872077941895 11.512689590454102 11.928363800048828 11.508134841918945 11.920854568481445 L11.508134841918945 11.920854568481445 C11.559825897216797 11.881091117858887 11.611516952514648 11.841326713562012 11.6632080078125 11.801563262939453 L11.6632080078125 11.801563262939453"></path></svg>