<svg xmlns="http://www.w3.org/2000/svg" viewBox="0.0 0.0 24.0 24.0" height="200px" width="200px"><path fill="none" stroke="black" stroke-width=".3" stroke-opacity="1.0"  filling="0" d="M13.46345329284668 11.874981880187988 L13.46345329284668 11.874981880187988 C13.529775619506836 11.890607833862305 13.613974571228027 11.896810531616211 13.652344703674316 11.953117370605469 L13.652344703674316 11.953117370605469 C13.594644546508789 11.953117370605469 13.536944389343262 11.953117370605469 13.479244232177734 11.953117370605469 L13.479244232177734 11.953117370605469 C13.568489074707031 12.034197807312012 13.572729110717773 12.179765701293945 13.581817626953125 12.299999237060547 L13.581817626953125 12.299999237060547 C13.53636360168457 12.299999237060547 13.4909086227417 12.299999237060547 13.445454597473145 12.299999237060547 L13.445454597473145 12.299999237060547 C13.416254997253418 12.261545181274414 13.387054443359375 12.223090171813965 13.357854843139648 12.184636116027832 L13.357854843139648 12.184636116027832 C13.43128776550293 12.182416915893555 13.504698753356934 12.178471565246582 13.57791805267334 12.172444343566895 L13.57791805267334 12.172444343566895 C13.434946060180664 12.072893142700195 13.362874984741211 12.037477493286133 13.46345329284668 11.874981880187988 L13.46345329284668 11.874981880187988"></path></svg>