<svg xmlns="http://www.w3.org/2000/svg" viewBox="0.0 0.0 24.0 24.0" height="200px" width="200px"><path fill="none" stroke="black" stroke-width=".3" stroke-opacity="1.0"  filling="0" d="M11.399999618530273 12.054545402526855 L11.399999618530273 12.054545402526855 C11.47344970703125 12.12843132019043 11.500972747802734 12.240911483764648 11.519126892089844 12.343500137329102 L11.519126892089844 12.343500137329102 C11.540427207946777 12.319463729858398 11.561726570129395 12.295427322387695 11.583026885986328 12.271390914916992 L11.583026885986328 12.271390914916992 C11.564163208007812 12.203490257263184 11.54529857635498 12.135590553283691 11.526434898376465 12.067689895629883 L11.526434898376465 12.067689895629883 C11.590845108032227 12.133784294128418 11.660294532775879 12.19540786743164 11.734171867370605 12.250718116760254 L11.734171867370605 12.250718116760254 C11.714262962341309 12.285709381103516 11.694353103637695 12.320699691772461 11.674444198608398 12.355690956115723 L11.674444198608398 12.355690956115723 C11.689416885375977 12.37899112701416 11.704390525817871 12.402290344238281 11.71936321258545 12.425590515136719 L11.71936321258545 12.425590515136719 C11.678526878356934 12.408708572387695 11.637689590454102 12.391827583312988 11.596853256225586 12.374945640563965 L11.596853256225586 12.374945640563965 C11.556925773620605 12.402772903442383 11.516999244689941 12.430599212646484 11.477071762084961 12.458426475524902 L11.477071762084961 12.458426475524902 C11.445173263549805 12.32513427734375 11.39999771118164 12.191601753234863 11.399999618530273 12.054545402526855 L11.399999618530273 12.054545402526855"></path></svg>