<svg xmlns="http://www.w3.org/2000/svg" viewBox="0.0 0.0 24.0 24.0" height="200px" width="200px"><path fill="none" stroke="black" stroke-width=".3" stroke-opacity="1.0"  filling="0" d="M12.403172492980957 11.890936851501465 L12.403172492980957 11.890936851501465 C12.407190322875977 11.971245765686035 12.411209106445312 12.051555633544922 12.415226936340332 12.131864547729492 L12.415226936340332 12.131864547729492 C12.427781105041504 12.132237434387207 12.440336227416992 12.132609367370605 12.452890396118164 12.13298225402832 L12.452890396118164 12.13298225402832 C12.458508491516113 12.05773639678955 12.464127540588379 11.982491493225098 12.469745635986328 11.907245635986328 L12.469745635986328 11.907245635986328 C12.501781463623047 11.998918533325195 12.533818244934082 12.090591430664062 12.5658540725708 12.18226432800293 L12.5658540725708 12.18226432800293 C12.48189926147461 12.18226432800293 12.397945404052734 12.18226432800293 12.313990592956543 12.18226432800293 L12.313990592956543 12.18226432800293 C12.313990592956543 12.08914566040039 12.313990592956543 11.996027946472168 12.313990592956543 11.902909278869629 L12.313990592956543 11.902909278869629 C12.343717575073242 11.898918151855469 12.373445510864258 11.894927978515625 12.403172492980957 11.890936851501465 L12.403172492980957 11.890936851501465"></path></svg>