<svg xmlns="http://www.w3.org/2000/svg" viewBox="0.0 0.0 24.0 24.0" height="200px" width="200px"><path fill="none" stroke="black" stroke-width=".3" stroke-opacity="1.0"  filling="0" d="M14.774236679077148 11.894399642944336 L14.774236679077148 11.894399642944336 C14.830745697021484 11.942554473876953 14.88725471496582 11.990708351135254 14.943763732910156 12.038863182067871 L14.943763732910156 12.038863182067871 C14.893481254577637 12.057317733764648 14.843199729919434 12.075772285461426 14.792917251586914 12.094226837158203 L14.792917251586914 12.094226837158203 C14.793863296508789 12.101635932922363 14.794808387756348 12.109045028686523 14.795754432678223 12.116454124450684 L14.795754432678223 12.116454124450684 C14.845454216003418 12.116454124450684 14.89515495300293 12.116454124450684 14.944854736328125 12.116454124450684 L14.944854736328125 12.116454124450684 C14.906963348388672 12.149209022521973 14.869072914123535 12.181962966918945 14.831181526184082 12.214717864990234 L14.831181526184082 12.214717864990234 C14.791699409484863 12.195199966430664 14.752218246459961 12.175681114196777 14.712736129760742 12.156163215637207 L14.712736129760742 12.156163215637207 C14.733236312866211 12.06890869140625 14.75373649597168 11.981654167175293 14.774236679077148 11.894399642944336 L14.774236679077148 11.894399642944336"></path></svg>