<svg xmlns="http://www.w3.org/2000/svg" viewBox="0.0 0.0 24.0 24.0" height="200px" width="200px"><path fill="none" stroke="black" stroke-width=".3" stroke-opacity="1.0"  filling="0" d="M13.316644668579102 11.79850959777832 L13.316644668579102 11.79850959777832 C13.403944969177246 11.828434944152832 13.47844409942627 11.913407325744629 13.504417419433594 12.001964569091797 L13.504417419433594 12.001964569091797 C13.53293514251709 11.939791679382324 13.561453819274902 11.877619743347168 13.589971542358398 11.815446853637695 L13.589971542358398 11.815446853637695 C13.623617172241211 11.813302040100098 13.657261848449707 11.811156272888184 13.69090747833252 11.809011459350586 L13.69090747833252 11.809011459350586 C13.690908432006836 11.954492568969727 13.690908432006836 12.099973678588867 13.690909385681152 12.245454788208008 L13.690909385681152 12.245454788208008 C13.66538143157959 12.244209289550781 13.639854431152344 12.242963790893555 13.614326477050781 12.241718292236328 L13.614326477050781 12.241718292236328 C13.614326477050781 12.170254707336426 13.614326477050781 12.098791122436523 13.614326477050781 12.027327537536621 L13.614326477050781 12.027327537536621 C13.605499267578125 12.025136947631836 13.596672058105469 12.022945404052734 13.587844848632812 12.02075481414795 L13.587844848632812 12.02075481414795 C13.564026832580566 12.095627784729004 13.54020881652832 12.170499801635742 13.516390800476074 12.245372772216797 L13.516390800476074 12.245372772216797 C13.505036354064941 12.246281623840332 13.493680953979492 12.247191429138184 13.48232650756836 12.248100280761719 L13.48232650756836 12.248100280761719 C13.456697463989258 12.17143726348877 13.4323148727417 12.094350814819336 13.408963203430176 12.016963958740234 L13.408963203430176 12.016963958740234 C13.378190040588379 12.097464561462402 13.347417831420898 12.177964210510254 13.316644668579102 12.258464813232422 L13.316644668579102 12.258464813232422 C13.316644668579102 12.105146408081055 13.316644668579102 11.951828002929688 13.316644668579102 11.79850959777832 L13.316644668579102 11.79850959777832"></path></svg>