<svg xmlns="http://www.w3.org/2000/svg" viewBox="0.0 0.0 24.0 24.0" height="200px" width="200px"><path fill="none" stroke="black" stroke-width=".3" stroke-opacity="1.0"  filling="0" d="M13.219717979431152 11.752199172973633 L13.219717979431152 11.752199172973633 C13.233736038208008 11.801308631896973 13.247753143310547 11.850417137145996 13.261771202087402 11.899526596069336 L13.261771202087402 11.899526596069336 C13.329808235168457 11.854881286621094 13.397844314575195 11.810236930847168 13.46588134765625 11.765591621398926 L13.46588134765625 11.765591621398926 C13.476099967956543 11.895800590515137 13.48631763458252 12.026008605957031 13.496536254882812 12.156217575073242 L13.496536254882812 12.156217575073242 C13.483481407165527 12.157944679260254 13.470427513122559 12.159672737121582 13.457372665405273 12.161399841308594 L13.457372665405273 12.161399841308594 C13.450481414794922 12.101509094238281 13.44359016418457 12.041617393493652 13.436698913574219 11.98172664642334 L13.436698913574219 11.98172664642334 C13.380380630493164 11.98172664642334 13.324063301086426 11.98172664642334 13.267745018005371 11.98172664642334 L13.267745018005371 11.98172664642334 C13.261299133300781 12.0413179397583 13.254854202270508 12.100908279418945 13.248408317565918 12.160499572753906 L13.248408317565918 12.160499572753906 C13.238844871520996 12.024399757385254 13.229281425476074 11.888298988342285 13.219717979431152 11.752199172973633 L13.219717979431152 11.752199172973633"></path></svg>