<svg xmlns="http://www.w3.org/2000/svg" viewBox="0.0 0.0 24.0 24.0" height="200px" width="200px"><path fill="none" stroke="black" stroke-width=".3" stroke-opacity="1.0"  filling="0" d="M12.259390830993652 11.917145729064941 L12.259390830993652 11.917145729064941 C12.196486473083496 12.013381004333496 12.15285587310791 12.145031929016113 12.046390533447266 12.188427925109863 L12.046390533447266 12.188427925109863 C12.128571510314941 12.206395149230957 12.209060668945312 12.245047569274902 12.272753715515137 12.299999237060547 L12.272753715515137 12.299999237060547 C12.181836128234863 12.299999237060547 12.090917587280273 12.299999237060547 12.0 12.299999237060547 L12.0 12.299999237060547 C12.008633613586426 12.025392532348633 11.995957374572754 11.977215766906738 12.259390830993652 11.917145729064941 L12.259390830993652 11.917145729064941"></path>
<path fill="none" stroke="black" stroke-width=".3" stroke-opacity="1.0"  filling="0" d="M12.177654266357422 11.996809959411621 L12.177654266357422 11.996809959411621 C12.184517860412598 12.005809783935547 12.191381454467773 12.014809608459473 12.19824504852295 12.023809432983398 L12.19824504852295 12.023809432983398 C12.167082786560059 12.06509780883789 12.100967407226562 12.090682029724121 12.051708221435547 12.074891090393066 L12.051708221435547 12.074891090393066 C12.052453994750977 12.059599876403809 12.053199768066406 12.04430866241455 12.053945541381836 12.029017448425293 L12.053945541381836 12.029017448425293 C12.095181465148926 12.018281936645508 12.136418342590332 12.007545471191406 12.177654266357422 11.996809959411621 L12.177654266357422 11.996809959411621"></path></svg>