<svg xmlns="http://www.w3.org/2000/svg" viewBox="0.0 0.0 24.0 24.0" height="200px" width="200px"><path fill="none" stroke="black" stroke-width=".3" stroke-opacity="1.0"  filling="0" d="M7.631945610046387 11.572473526000977 L7.631945610046387 11.572473526000977 C7.686245441436768 11.572473526000977 7.740545749664307 11.572473526000977 7.7948455810546875 11.572473526000977 L7.7948455810546875 11.572473526000977 C7.7948455810546875 11.689891815185547 7.7948455810546875 11.8073091506958 7.7948455810546875 11.924727439880371 L7.7948455810546875 11.924727439880371 C7.80308198928833 11.929499626159668 7.811318397521973 11.934272766113281 7.819554805755615 11.939044952392578 L7.819554805755615 11.939044952392578 C7.957845211029053 11.777860641479492 8.144928932189941 11.653541564941406 8.341991424560547 11.574353218078613 L8.341991424560547 11.574353218078613 C8.248345375061035 11.671844482421875 8.15470027923584 11.769335746765137 8.061054229736328 11.866827011108398 L8.061054229736328 11.866827011108398 C8.158936500549316 12.044417381286621 8.256817817687988 12.22200870513916 8.354700088500977 12.399599075317383 L8.354700088500977 12.399599075317383 C8.289909362792969 12.399599075317383 8.225118637084961 12.399599075317383 8.160327911376953 12.399599075317383 L8.160327911376953 12.399599075317383 C8.090864181518555 12.272708892822266 8.021400451660156 12.145817756652832 7.9519362449646 12.018927574157715 L7.9519362449646 12.018927574157715 C7.899799823760986 12.145591735839844 7.847663402557373 12.272254943847656 7.79552698135376 12.398919105529785 L7.79552698135376 12.398919105529785 C7.740999698638916 12.398919105529785 7.6864728927612305 12.398919105529785 7.631945610046387 12.398919105529785 L7.631945610046387 12.398919105529785 C7.631945610046387 12.12343692779541 7.631945610046387 11.847955703735352 7.631945610046387 11.572473526000977 L7.631945610046387 11.572473526000977"></path></svg>