<svg xmlns="http://www.w3.org/2000/svg" viewBox="0.0 0.0 24.0 24.0" height="200px" width="200px"><path fill="none" stroke="black" stroke-width=".3" stroke-opacity="1.0"  filling="0" d="M13.26741886138916 11.840536117553711 L13.26741886138916 11.840536117553711 C13.308582305908203 11.848236083984375 13.349745750427246 11.855936050415039 13.390909194946289 11.863636016845703 L13.390909194946289 11.863636016845703 C13.390909194946289 11.881817817687988 13.390909194946289 11.899999618530273 13.390909194946289 11.918181419372559 L13.390909194946289 11.918181419372559 C13.161663055419922 11.87707805633545 13.174635887145996 12.038000106811523 13.390909194946289 11.999999046325684 L13.390909194946289 11.999999046325684 C13.390909194946289 12.02727222442627 13.390909194946289 12.054544448852539 13.390909194946289 12.081817626953125 L13.390909194946289 12.081817626953125 C13.325554847717285 12.076562881469727 13.260199546813965 12.071308135986328 13.194845199584961 12.06605339050293 L13.194845199584961 12.06605339050293 C13.213652610778809 12.141217231750488 13.313468933105469 12.193414688110352 13.390909194946289 12.190908432006836 L13.390909194946289 12.190908432006836 C13.390909194946289 12.209090232849121 13.390909194946289 12.227272987365723 13.390909194946289 12.245454788208008 L13.390909194946289 12.245454788208008 C13.309063911437988 12.23991870880127 13.227217674255371 12.234381675720215 13.14537239074707 12.228845596313477 L13.14537239074707 12.228845596313477 C13.145584106445312 12.09316635131836 13.16588020324707 11.93052864074707 13.26741886138916 11.840536117553711 L13.26741886138916 11.840536117553711"></path></svg>