<svg xmlns="http://www.w3.org/2000/svg" viewBox="0.0 0.0 24.0 24.0" height="200px" width="200px"><path fill="none" stroke="black" stroke-width=".3" stroke-opacity="1.0"  filling="0" d="M12.17664623260498 11.729509353637695 L12.17664623260498 11.729509353637695 C12.18659782409668 11.7998628616333 12.194131851196289 11.870576858520508 12.19996452331543 11.941390991210938 L12.19996452331543 11.941390991210938 C12.209946632385254 11.946645736694336 12.219927787780762 11.951899528503418 12.229909896850586 11.957154273986816 L12.229909896850586 11.957154273986816 C12.25704574584961 11.910553932189941 12.28418254852295 11.863954544067383 12.311318397521973 11.817354202270508 L12.311318397521973 11.817354202270508 C12.322436332702637 11.827218055725098 12.333555221557617 11.837080955505371 12.344673156738281 11.846944808959961 L12.344673156738281 11.846944808959961 C12.330763816833496 11.880480766296387 12.316854476928711 11.914017677307129 12.302945137023926 11.947553634643555 L12.302945137023926 11.947553634643555 C12.330336570739746 12.005789756774902 12.35772705078125 12.064026832580566 12.38511848449707 12.122262954711914 L12.38511848449707 12.122262954711914 C12.376936912536621 12.126418113708496 12.368754386901855 12.130572319030762 12.360572814941406 12.134727478027344 L12.360572814941406 12.134727478027344 C12.31948184967041 12.075509071350098 12.27839183807373 12.016290664672852 12.237300872802734 11.957072257995605 L12.237300872802734 11.957072257995605 C12.214736938476562 12.016290664672852 12.192173957824707 12.075509071350098 12.169610023498535 12.134727478027344 L12.169610023498535 12.134727478027344 C12.171955108642578 11.999654769897461 12.174301147460938 11.864582061767578 12.17664623260498 11.729509353637695 L12.17664623260498 11.729509353637695"></path></svg>