<svg xmlns="http://www.w3.org/2000/svg" viewBox="0.0 0.0 24.0 24.0" height="200px" width="200px"><path fill="none" stroke="black" stroke-width=".3" stroke-opacity="1.0"  filling="0" d="M12.449045181274414 11.945618629455566 L12.449045181274414 11.945618629455566 C12.487835884094238 12.00031852722168 12.526627540588379 12.055018424987793 12.565418243408203 12.109718322753906 L12.565418243408203 12.109718322753906 C12.498517990112305 12.109718322753906 12.431617736816406 12.109718322753906 12.364717483520508 12.109718322753906 L12.364717483520508 12.109718322753906 C12.428298950195312 12.122763633728027 12.491881370544434 12.135808944702148 12.555462837219238 12.14885425567627 L12.555462837219238 12.14885425567627 C12.365939140319824 12.3858642578125 12.270086288452148 12.153329849243164 12.449045181274414 11.945618629455566 L12.449045181274414 11.945618629455566"></path>
<path fill="none" stroke="black" stroke-width=".3" stroke-opacity="1.0"  filling="0" d="M12.4275541305542 11.997817993164062 L12.4275541305542 11.997817993164062 C12.45996379852295 12.012927055358887 12.492372512817383 12.028036117553711 12.524782180786133 12.043145179748535 L12.524782180786133 12.043145179748535 C12.519218444824219 12.054226875305176 12.513654708862305 12.065309524536133 12.50809097290039 12.076391220092773 L12.50809097290039 12.076391220092773 C12.45825481414795 12.076400756835938 12.408417701721191 12.076409339904785 12.35858154296875 12.07641887664795 L12.35858154296875 12.07641887664795 C12.381572723388672 12.05021858215332 12.404562950134277 12.024018287658691 12.4275541305542 11.997817993164062 L12.4275541305542 11.997817993164062"></path></svg>