<svg xmlns="http://www.w3.org/2000/svg" viewBox="0.0 0.0 24.0 24.0" height="200px" width="200px"><path fill="none" stroke="black" stroke-width=".3" stroke-opacity="1.0"  filling="0" d="M11.879373550415039 11.898818969726562 L11.879373550415039 11.898818969726562 C11.945419311523438 11.947628021240234 12.01146411895752 11.996437072753906 12.077509880065918 12.045246124267578 L12.077509880065918 12.045246124267578 C11.995182037353516 12.054891586303711 11.91285514831543 12.064536094665527 11.830527305603027 12.07418155670166 L11.830527305603027 12.07418155670166 C11.870018005371094 12.113699913024902 11.909509658813477 12.153219223022461 11.949000358581543 12.192737579345703 L11.949000358581543 12.192737579345703 C11.980582237243652 12.166264533996582 12.012163162231445 12.139791488647461 12.043745040893555 12.11331844329834 L12.043745040893555 12.11331844329834 C12.059211730957031 12.244088172912598 11.670478820800781 12.18298053741455 11.879373550415039 11.898818969726562 L11.879373550415039 11.898818969726562"></path>
<path fill="none" stroke="black" stroke-width=".3" stroke-opacity="1.0"  filling="0" d="M11.863309860229492 12.018109321594238 L11.863309860229492 12.018109321594238 C11.914409637451172 12.018109321594238 11.965509414672852 12.018109321594238 12.016609191894531 12.018109321594238 L12.016609191894531 12.018109321594238 C11.965509414672852 12.018109321594238 11.914409637451172 12.018109321594238 11.863309860229492 12.018109321594238 L11.863309860229492 12.018109321594238"></path></svg>