<svg xmlns="http://www.w3.org/2000/svg" viewBox="0.0 0.0 24.0 24.0" height="200px" width="200px"><path fill="none" stroke="black" stroke-width=".3" stroke-opacity="1.0"  filling="0" d="M11.022872924804688 11.866363525390625 L11.022872924804688 11.866363525390625 C11.04601001739502 11.887208938598633 11.069146156311035 11.90805435180664 11.092283248901367 11.928899765014648 L11.092283248901367 11.928899765014648 C11.066473960876465 12.001072883605957 11.040665626525879 12.07324504852295 11.014856338500977 12.145418167114258 L11.014856338500977 12.145418167114258 C11.042473793029785 12.157035827636719 11.070091247558594 12.168654441833496 11.097708702087402 12.180272102355957 L11.097708702087402 12.180272102355957 C11.02613639831543 12.140515327453613 10.991045951843262 12.040881156921387 10.991073608398438 11.95900821685791 L10.991073608398438 11.95900821685791 C10.893770217895508 12.006193161010742 10.82966136932373 12.131512641906738 10.828310012817383 12.239645004272461 L10.828310012817383 12.239645004272461 C10.811546325683594 12.139790534973145 10.794782638549805 12.039936065673828 10.778018951416016 11.940081596374512 L10.778018951416016 11.940081596374512 C10.859637260437012 11.915509223937988 10.941254615783691 11.890935897827148 11.022872924804688 11.866363525390625 L11.022872924804688 11.866363525390625"></path></svg>