<svg xmlns="http://www.w3.org/2000/svg" viewBox="0.0 0.0 24.0 24.0" height="200px" width="200px"><path fill="none" stroke="black" stroke-width=".3" stroke-opacity="1.0"  filling="0" d="M11.4939546585083 11.815064430236816 L11.4939546585083 11.815064430236816 C11.635363578796387 11.836918830871582 11.776773452758789 11.858773231506348 11.918182373046875 11.880627632141113 L11.918182373046875 11.880627632141113 C11.918652534484863 12.054244995117188 11.925039291381836 12.227952003479004 11.9374361038208 12.401126861572266 L11.9374361038208 12.401126861572266 C11.465298652648926 12.445160865783691 11.107465744018555 12.127058982849121 11.753727912902832 12.016799926757812 L11.753727912902832 12.016799926757812 C11.651611328125 11.975582122802734 11.526249885559082 11.95593547821045 11.423973083496094 11.99675464630127 L11.423973083496094 11.99675464630127 C11.44729995727539 11.93619155883789 11.470627784729004 11.875627517700195 11.4939546585083 11.815064430236816 L11.4939546585083 11.815064430236816"></path>
<path fill="none" stroke="black" stroke-width=".3" stroke-opacity="1.0"  filling="0" d="M11.771754264831543 12.12869930267334 L11.771754264831543 12.12869930267334 C11.721395492553711 12.185799598693848 11.581336975097656 12.227126121520996 11.545499801635742 12.159954071044922 L11.545499801635742 12.159954071044922 C11.620918273925781 12.1495361328125 11.696335792541504 12.139117240905762 11.771754264831543 12.12869930267334 L11.771754264831543 12.12869930267334"></path></svg>