<svg xmlns="http://www.w3.org/2000/svg" viewBox="0.0 0.0 24.0 24.0" height="200px" width="200px"><path fill="none" stroke="black" stroke-width=".3" stroke-opacity="1.0"  filling="0" d="M10.991890907287598 11.835737228393555 L10.991890907287598 11.835737228393555 C11.04539966583252 11.889763832092285 11.098909378051758 11.943791389465332 11.15241813659668 11.997817993164062 L11.15241813659668 11.997817993164062 C11.08404541015625 12.001336097717285 11.01567268371582 12.004855155944824 10.94729995727539 12.008373260498047 L10.94729995727539 12.008373260498047 C10.975700378417969 12.0487642288208 11.00409984588623 12.089154243469238 11.032500267028809 12.129545211791992 L11.032500267028809 12.129545211791992 C11.059417724609375 12.106836318969727 11.086336135864258 12.084127426147461 11.113253593444824 12.061418533325195 L11.113253593444824 12.061418533325195 C11.11804485321045 12.064854621887207 11.122836112976074 12.068290710449219 11.1276273727417 12.07172679901123 L11.1276273727417 12.07172679901123 C10.937292098999023 12.348733901977539 10.948161125183105 11.980942726135254 10.991890907287598 11.835737228393555 L10.991890907287598 11.835737228393555"></path>
<path fill="none" stroke="black" stroke-width=".3" stroke-opacity="1.0"  filling="0" d="M10.936446189880371 11.964136123657227 L10.936446189880371 11.964136123657227 C10.997800827026367 11.964136123657227 11.059154510498047 11.964136123657227 11.120509147644043 11.964136123657227 L11.120509147644043 11.964136123657227 C11.059154510498047 11.964136123657227 10.997800827026367 11.964136123657227 10.936446189880371 11.964136123657227 L10.936446189880371 11.964136123657227"></path></svg>