<svg xmlns="http://www.w3.org/2000/svg" viewBox="0.0 0.0 24.0 24.0" height="200px" width="200px"><path fill="none" stroke="black" stroke-width=".3" stroke-opacity="1.0"  filling="0" d="M13.048935890197754 11.840072631835938 L13.048935890197754 11.840072631835938 C13.057190895080566 11.890853881835938 13.065444946289062 11.941636085510254 13.073699951171875 11.992417335510254 L13.073699951171875 11.992417335510254 C13.130718231201172 11.992417335510254 13.187736511230469 11.992417335510254 13.244754791259766 11.992417335510254 L13.244754791259766 11.992417335510254 C13.252091407775879 11.941726684570312 13.259427070617676 11.891036033630371 13.266763687133789 11.84034538269043 L13.266763687133789 11.84034538269043 C13.279436111450195 11.840581893920898 13.292109489440918 11.840818405151367 13.304781913757324 11.841054916381836 L13.304781913757324 11.841054916381836 C13.306227684020996 11.975854873657227 13.307673454284668 12.110654830932617 13.30911922454834 12.245454788208008 L13.30911922454834 12.245454788208008 C13.290937423706055 12.245454788208008 13.27275562286377 12.245454788208008 13.254573822021484 12.245454788208008 L13.254573822021484 12.245454788208008 C13.254573822021484 12.18479061126709 13.254573822021484 12.124127388000488 13.254573822021484 12.06346321105957 L13.254573822021484 12.06346321105957 C13.190937042236328 12.06346321105957 13.127300262451172 12.06346321105957 13.063663482666016 12.06346321105957 L13.063663482666016 12.06346321105957 C13.063663482666016 12.124127388000488 13.063663482666016 12.18479061126709 13.063663482666016 12.245454788208008 L13.063663482666016 12.245454788208008 C13.054563522338867 12.245454788208008 13.045463562011719 12.245454788208008 13.03636360168457 12.245454788208008 L13.03636360168457 12.245454788208008 C13.029909133911133 12.111627578735352 13.023454666137695 11.977800369262695 13.017000198364258 11.843973159790039 L13.017000198364258 11.843973159790039 C13.027645111083984 11.842673301696777 13.038290977478027 11.8413724899292 13.048935890197754 11.840072631835938 L13.048935890197754 11.840072631835938"></path></svg>