<svg xmlns="http://www.w3.org/2000/svg" viewBox="0.0 0.0 24.0 24.0" height="200px" width="200px"><path fill="none" stroke="black" stroke-width=".3" stroke-opacity="1.0"  filling="0" d="M11.734281539916992 11.8207368850708 L11.734281539916992 11.8207368850708 C11.78397274017334 11.867191314697266 11.833663940429688 11.91364574432373 11.883355140686035 11.960100173950195 L11.883355140686035 11.960100173950195 C11.812346458435059 11.982409477233887 11.741336822509766 12.004717826843262 11.670328140258789 12.027027130126953 L11.670328140258789 12.027027130126953 C11.696864128112793 12.057463645935059 11.723401069641113 12.087900161743164 11.749937057495117 12.11833667755127 L11.749937057495117 12.11833667755127 C11.785137176513672 12.089081764221191 11.82033634185791 12.05982780456543 11.855536460876465 12.030572891235352 L11.855536460876465 12.030572891235352 C11.666609764099121 12.266133308410645 11.623608589172363 12.010594367980957 11.734281539916992 11.8207368850708 L11.734281539916992 11.8207368850708"></path>
<path fill="none" stroke="black" stroke-width=".3" stroke-opacity="1.0"  filling="0" d="M11.8347806930542 11.935881614685059 L11.8347806930542 11.935881614685059 C11.777627944946289 11.94382381439209 11.719254493713379 11.9414701461792 11.66168212890625 11.937600135803223 L11.66168212890625 11.937600135803223 C11.719381332397461 11.937026977539062 11.777081489562988 11.936454772949219 11.8347806930542 11.935881614685059 L11.8347806930542 11.935881614685059"></path></svg>