<svg xmlns="http://www.w3.org/2000/svg" viewBox="0.0 0.0 24.0 24.0" height="200px" width="200px"><path fill="none" stroke="black" stroke-width=".3" stroke-opacity="1.0"  filling="0" d="M12.576026916503906 11.789917945861816 L12.576026916503906 11.789917945861816 C12.611536026000977 11.821772575378418 12.647046089172363 11.853626251220703 12.682555198669434 11.885480880737305 L12.682555198669434 11.885480880737305 C12.657299995422363 11.889963150024414 12.63204574584961 11.894445419311523 12.606790542602539 11.898927688598633 L12.606790542602539 11.898927688598633 C12.62453556060791 11.98740005493164 12.642281532287598 12.075872421264648 12.660026550292969 12.164344787597656 L12.660026550292969 12.164344787597656 C12.582170486450195 12.131847381591797 12.576472282409668 12.012710571289062 12.567299842834473 11.928845405578613 L12.567299842834473 11.928845405578613 C12.474719047546387 11.969621658325195 12.468470573425293 12.156903266906738 12.367308616638184 12.15711784362793 L12.367308616638184 12.15711784362793 C12.367300033569336 12.062736511230469 12.367291450500488 11.968354225158691 12.36728286743164 11.87397289276123 L12.36728286743164 11.87397289276123 C12.436863899230957 11.845954895019531 12.50644588470459 11.817935943603516 12.576026916503906 11.789917945861816 L12.576026916503906 11.789917945861816"></path></svg>