<svg xmlns="http://www.w3.org/2000/svg" viewBox="0.0 0.0 24.0 24.0" height="200px" width="200px"><path fill="none" stroke="black" stroke-width=".3" stroke-opacity="1.0"  filling="0" d="M11.760708808898926 11.832353591918945 L11.760708808898926 11.832353591918945 C11.827091217041016 11.886798858642578 11.893472671508789 11.941245079040527 11.959855079650879 11.99569034576416 L11.959855079650879 11.99569034576416 C11.968836784362793 11.943572044372559 11.977819442749023 11.891454696655273 11.986801147460938 11.839336395263672 L11.986801147460938 11.839336395263672 C11.996773719787598 11.840563774108887 12.006745338439941 11.841791152954102 12.016717910766602 11.843018531799316 L12.016717910766602 11.843018531799316 C12.016717910766602 11.975082397460938 12.016717910766602 12.107145309448242 12.016717910766602 12.239209175109863 L12.016717910766602 12.239209175109863 C12.005918502807617 12.240490913391113 11.995118141174316 12.241772651672363 11.984318733215332 12.243054389953613 L11.984318733215332 12.243054389953613 C11.97766399383545 12.183109283447266 11.971010208129883 12.123163223266602 11.96435546875 12.063218116760254 L11.96435546875 12.063218116760254 C11.908927917480469 12.063218116760254 11.853500366210938 12.063218116760254 11.798072814941406 12.063218116760254 L11.798072814941406 12.063218116760254 C11.798072814941406 12.122136116027832 11.798072814941406 12.18105411529541 11.798072814941406 12.239972114562988 L11.798072814941406 12.239972114562988 C11.786954879760742 12.240190505981445 11.775835990905762 12.240407943725586 11.764718055725098 12.240626335144043 L11.764718055725098 12.240626335144043 C11.763381958007812 12.104535102844238 11.762044906616211 11.96844482421875 11.760708808898926 11.832353591918945 L11.760708808898926 11.832353591918945"></path></svg>