<svg xmlns="http://www.w3.org/2000/svg" viewBox="0.0 0.0 24.0 24.0" height="200px" width="200px"><path fill="none" stroke="black" stroke-width=".3" stroke-opacity="1.0"  filling="0" d="M10.183418273925781 11.873345375061035 L10.183418273925781 11.873345375061035 C10.232672691345215 11.932700157165527 10.281928062438965 11.992053985595703 10.331182479858398 12.051408767700195 L10.331182479858398 12.051408767700195 C10.26485538482666 12.051408767700195 10.198527336120605 12.051408767700195 10.132200241088867 12.051408767700195 L10.132200241088867 12.051408767700195 C10.18718147277832 12.075591087341309 10.24216365814209 12.099772453308105 10.297144889831543 12.123954772949219 L10.297144889831543 12.123954772949219 C10.303508758544922 12.134836196899414 10.3098726272583 12.145718574523926 10.31623649597168 12.156599998474121 L10.31623649597168 12.156599998474121 C10.026748657226562 12.278547286987305 10.082233428955078 12.072203636169434 10.183418273925781 11.873345375061035 L10.183418273925781 11.873345375061035"></path>
<path fill="none" stroke="black" stroke-width=".3" stroke-opacity="1.0"  filling="0" d="M10.211700439453125 11.914226531982422 L10.211700439453125 11.914226531982422 C10.242145538330078 11.950172424316406 10.272591590881348 11.986117362976074 10.3030366897583 12.022063255310059 L10.3030366897583 12.022063255310059 C10.232245445251465 12.022063255310059 10.161455154418945 12.022063255310059 10.09066390991211 12.022063255310059 L10.09066390991211 12.022063255310059 C10.131009101867676 11.986117362976074 10.171355247497559 11.950172424316406 10.211700439453125 11.914226531982422 L10.211700439453125 11.914226531982422"></path></svg>