<svg xmlns="http://www.w3.org/2000/svg" viewBox="0.0 0.0 24.0 24.0" height="200px" width="200px"><path fill="none" stroke="black" stroke-width=".3" stroke-opacity="1.0"  filling="0" d="M13.582282066345215 11.797445297241211 L13.582282066345215 11.797445297241211 C13.668054580688477 11.797445297241211 13.753827095031738 11.797445297241211 13.839599609375 11.797445297241211 L13.839599609375 11.797445297241211 C13.840754508972168 11.806072235107422 13.84190845489502 11.81470012664795 13.843063354492188 11.82332706451416 L13.843063354492188 11.82332706451416 C13.770697593688965 11.839276313781738 13.694965362548828 11.861164093017578 13.637481689453125 11.907927513122559 L13.637481689453125 11.907927513122559 C13.68339729309082 11.95567798614502 13.756743431091309 11.974185943603516 13.822746276855469 11.979846954345703 L13.822746276855469 11.979846954345703 C13.82376480102539 11.991901397705078 13.824783325195312 12.003955841064453 13.825801849365234 12.016010284423828 L13.825801849365234 12.016010284423828 C13.774465560913086 12.022282600402832 13.723128318786621 12.028555870056152 13.671792030334473 12.034828186035156 L13.671792030334473 12.034828186035156 C13.66901969909668 12.074810028076172 13.66624641418457 12.114791870117188 13.663474082946777 12.154773712158203 L13.663474082946777 12.154773712158203 C13.725637435913086 12.160710334777832 13.787801742553711 12.166646957397461 13.84996509552002 12.17258358001709 L13.84996509552002 12.17258358001709 C13.69775390625 12.193318367004395 13.58296012878418 11.95106029510498 13.582282066345215 11.797445297241211 L13.582282066345215 11.797445297241211"></path></svg>