<svg xmlns="http://www.w3.org/2000/svg" viewBox="0.0 0.0 24.0 24.0" height="200px" width="200px"><path fill="none" stroke="black" stroke-width=".3" stroke-opacity="1.0"  filling="0" d="M13.346890449523926 11.846181869506836 L13.346890449523926 11.846181869506836 C13.432153701782227 11.846181869506836 13.517417907714844 11.846181869506836 13.602681159973145 11.846181869506836 L13.602681159973145 11.846181869506836 C13.603936195373535 11.857254981994629 13.60519027709961 11.868327140808105 13.6064453125 11.879400253295898 L13.6064453125 11.879400253295898 C13.54069995880127 11.885427474975586 13.474953651428223 11.891454696655273 13.409208297729492 11.897481918334961 L13.409208297729492 11.897481918334961 C13.448817253112793 11.94710922241211 13.48842716217041 11.996736526489258 13.528036117553711 12.046363830566406 L13.528036117553711 12.046363830566406 C13.489317893981934 12.050455093383789 13.450599670410156 12.054545402526855 13.411881446838379 12.058636665344238 L13.411881446838379 12.058636665344238 C13.468400001525879 12.119345664978027 13.524917602539062 12.180054664611816 13.581436157226562 12.240763664245605 L13.581436157226562 12.240763664245605 C13.503253936767578 12.240763664245605 13.42507266998291 12.240763664245605 13.346890449523926 12.240763664245605 L13.346890449523926 12.240763664245605 C13.346890449523926 12.109236717224121 13.346890449523926 11.97770881652832 13.346890449523926 11.846181869506836 L13.346890449523926 11.846181869506836"></path></svg>