<svg xmlns="http://www.w3.org/2000/svg" viewBox="0.0 0.0 24.0 24.0" height="200px" width="200px"><path fill="none" stroke="black" stroke-width=".3" stroke-opacity="1.0"  filling="0" d="M12.523691177368164 11.94106388092041 L12.523691177368164 11.94106388092041 C12.533390998840332 12.035118103027344 12.5430908203125 12.129173278808594 12.552790641784668 12.223227500915527 L12.552790641784668 12.223227500915527 C12.459599494934082 12.20203685760498 12.366409301757812 12.180845260620117 12.273218154907227 12.15965461730957 L12.273218154907227 12.15965461730957 C12.347345352172852 12.125872611999512 12.421472549438477 12.09209156036377 12.495599746704102 12.058309555053711 L12.495599746704102 12.058309555053711 C12.429136276245117 12.040663719177246 12.362671852111816 12.023017883300781 12.296208381652832 12.005372047424316 L12.296208381652832 12.005372047424316 C12.37203598022461 11.983936309814453 12.447863578796387 11.962499618530273 12.523691177368164 11.94106388092041 L12.523691177368164 11.94106388092041"></path>
<path fill="none" stroke="black" stroke-width=".3" stroke-opacity="1.0"  filling="0" d="M12.476699829101562 12.117218017578125 L12.476699829101562 12.117218017578125 C12.429736137390137 12.140754699707031 12.382772445678711 12.164290428161621 12.335808753967285 12.187827110290527 L12.335808753967285 12.187827110290527 C12.382772445678711 12.164290428161621 12.429736137390137 12.140754699707031 12.476699829101562 12.117218017578125 L12.476699829101562 12.117218017578125"></path></svg>