<svg xmlns="http://www.w3.org/2000/svg" viewBox="0.0 0.0 24.0 24.0" height="200px" width="200px"><path fill="none" stroke="black" stroke-width=".3" stroke-opacity="1.0"  filling="0" d="M11.022409439086914 11.869117736816406 L11.022409439086914 11.869117736816406 C11.07221794128418 11.949478149414062 11.100428581237793 12.047411918640137 11.099918365478516 12.14195442199707 L11.099918365478516 12.14195442199707 C11.015227317810059 12.130818367004395 10.930536270141602 12.119681358337402 10.845845222473145 12.108545303344727 L10.845845222473145 12.108545303344727 C10.91299057006836 12.05887222290039 10.980135917663574 12.009200096130371 11.047281265258789 11.959527015686035 L11.047281265258789 11.959527015686035 C10.980753898620605 11.952281951904297 10.914227485656738 11.945035934448242 10.847700119018555 11.937790870666504 L10.847700119018555 11.937790870666504 C10.905936241149902 11.914899826049805 10.964173316955566 11.892008781433105 11.022409439086914 11.869117736816406 L11.022409439086914 11.869117736816406"></path>
<path fill="none" stroke="black" stroke-width=".3" stroke-opacity="1.0"  filling="0" d="M11.044500350952148 12.038019180297852 L11.044500350952148 12.038019180297852 C10.995681762695312 12.061237335205078 10.946864128112793 12.084454536437988 10.898045539855957 12.107672691345215 L10.898045539855957 12.107672691345215 C10.946864128112793 12.084454536437988 10.995681762695312 12.061237335205078 11.044500350952148 12.038019180297852 L11.044500350952148 12.038019180297852"></path></svg>