<svg xmlns="http://www.w3.org/2000/svg" viewBox="0.0 0.0 24.0 24.0" height="200px" width="200px"><path fill="none" stroke="black" stroke-width=".3" stroke-opacity="1.0"  filling="0" d="M11.71049976348877 11.84626293182373 L11.71049976348877 11.84626293182373 C11.795808792114258 11.84626293182373 11.881117820739746 11.84626293182373 11.966426849365234 11.84626293182373 L11.966426849365234 11.84626293182373 C11.967581748962402 11.857508659362793 11.96873664855957 11.868753433227539 11.969891548156738 11.879999160766602 L11.969891548156738 11.879999160766602 C11.904064178466797 11.885653495788574 11.838236808776855 11.891308784484863 11.772409439086914 11.896963119506836 L11.772409439086914 11.896963119506836 C11.81441879272461 11.948054313659668 11.856428146362305 11.999144554138184 11.8984375 12.050235748291016 L11.8984375 12.050235748291016 C11.858272552490234 12.053276062011719 11.817953109741211 12.054391860961914 11.777673721313477 12.054490089416504 L11.777673721313477 12.054490089416504 C11.843291282653809 12.116480827331543 11.908909797668457 12.178472518920898 11.974527359008789 12.240463256835938 L11.974527359008789 12.240463256835938 C11.886518478393555 12.240463256835938 11.798508644104004 12.240463256835938 11.71049976348877 12.240463256835938 L11.71049976348877 12.240463256835938 C11.71049976348877 12.109063148498535 11.71049976348877 11.977663040161133 11.71049976348877 11.84626293182373 L11.71049976348877 11.84626293182373"></path></svg>