<svg xmlns="http://www.w3.org/2000/svg" viewBox="0.0 0.0 24.0 24.0" height="200px" width="200px"><path fill="none" stroke="black" stroke-width=".3" stroke-opacity="1.0"  filling="0" d="M10.651717185974121 11.891399383544922 L10.651717185974121 11.891399383544922 C10.764426231384277 11.9956636428833 10.87713623046875 12.099926948547363 10.989845275878906 12.204191207885742 L10.989845275878906 12.204191207885742 C10.849272727966309 12.231101036071777 10.70560359954834 12.244925498962402 10.562480926513672 12.245699882507324 L10.562480926513672 12.245699882507324 C10.675436019897461 12.270536422729492 10.788390159606934 12.29537296295166 10.901345252990723 12.320209503173828 L10.901345252990723 12.320209503173828 C10.920190811157227 12.349072456359863 10.939035415649414 12.377936363220215 10.957880973815918 12.40679931640625 L10.957880973815918 12.40679931640625 C10.378422737121582 12.5618257522583 10.246475219726562 12.333964347839355 10.651717185974121 11.891399383544922 L10.651717185974121 11.891399383544922"></path>
<path fill="none" stroke="black" stroke-width=".3" stroke-opacity="1.0"  filling="0" d="M10.685263633728027 12.029072761535645 L10.685263633728027 12.029072761535645 C10.723309516906738 12.06147289276123 10.761354446411133 12.093873023986816 10.799400329589844 12.126273155212402 L10.799400329589844 12.126273155212402 C10.719600677490234 12.1395263671875 10.637810707092285 12.135858535766602 10.556918144226074 12.13603687286377 L10.556918144226074 12.13603687286377 C10.599699974060059 12.100381851196289 10.642481803894043 12.064727783203125 10.685263633728027 12.029072761535645 L10.685263633728027 12.029072761535645"></path></svg>