<svg xmlns="http://www.w3.org/2000/svg" viewBox="0.0 0.0 24.0 24.0" height="200px" width="200px"><path fill="none" stroke="black" stroke-width=".3" stroke-opacity="1.0"  filling="0" d="M11.891536712646484 11.681536674499512 L11.891536712646484 11.681536674499512 C11.934954643249512 11.681536674499512 11.978373527526855 11.681536674499512 12.021791458129883 11.681536674499512 L12.021791458129883 11.681536674499512 C12.024918556213379 11.736581802368164 12.028045654296875 11.791626930236816 12.031172752380371 11.846672058105469 L12.031172752380371 11.846672058105469 C12.271475791931152 11.819272994995117 12.218320846557617 12.02660083770752 12.217963218688965 12.21043586730957 L12.217963218688965 12.21043586730957 C12.178181648254395 12.212427139282227 12.138399124145508 12.214418411254883 12.098617553710938 12.216409683227539 L12.098617553710938 12.216409683227539 C12.075090408325195 12.112363815307617 12.051563262939453 12.008317947387695 12.028036117553711 11.904272079467773 L12.028036117553711 11.904272079467773 C12.028036117553711 12.005135536193848 12.028036117553711 12.105999946594238 12.028036117553711 12.206863403320312 L12.028036117553711 12.206863403320312 C11.87328052520752 12.113140106201172 11.89139175415039 11.862460136413574 11.891536712646484 11.681536674499512 L11.891536712646484 11.681536674499512"></path></svg>