<svg xmlns="http://www.w3.org/2000/svg" viewBox="0.0 0.0 24.0 24.0" height="200px" width="200px"><path fill="none" stroke="black" stroke-width=".3" stroke-opacity="1.0"  filling="0" d="M11.188390731811523 11.67940902709961 L11.188390731811523 11.67940902709961 C11.291618347167969 11.67940902709961 11.394845962524414 11.67940902709961 11.49807357788086 11.67940902709961 L11.49807357788086 11.67940902709961 C11.510109901428223 11.709081649780273 11.522146224975586 11.738754272460938 11.53418254852295 11.768426895141602 L11.53418254852295 11.768426895141602 C11.463645935058594 11.768417358398438 11.393109321594238 11.76840877532959 11.322572708129883 11.768399238586426 L11.322572708129883 11.768399238586426 C11.322572708129883 11.805727005004883 11.322572708129883 11.843053817749023 11.322572708129883 11.88038158416748 L11.322572708129883 11.88038158416748 C11.36488151550293 11.887372970581055 11.407191276550293 11.894363403320312 11.44950008392334 11.901354789733887 L11.44950008392334 11.901354789733887 C11.40811824798584 11.931609153747559 11.36673641204834 11.96186351776123 11.32535457611084 11.992117881774902 L11.32535457611084 11.992117881774902 C11.32535457611084 12.030545234680176 11.32535457611084 12.06897258758545 11.32535457611084 12.107399940490723 L11.32535457611084 12.107399940490723 C11.383618354797363 12.107399940490723 11.44188117980957 12.107399940490723 11.500144958496094 12.107399940490723 L11.500144958496094 12.107399940490723 C11.502535820007324 12.144417762756348 11.504927635192871 12.181435585021973 11.507318496704102 12.218453407287598 L11.507318496704102 12.218453407287598 C11.401009559631348 12.218453407287598 11.294699668884277 12.218453407287598 11.188390731811523 12.218453407287598 L11.188390731811523 12.218453407287598 C11.188390731811523 12.038771629333496 11.188390731811523 11.859090805053711 11.188390731811523 11.67940902709961 L11.188390731811523 11.67940902709961"></path></svg>