<svg xmlns="http://www.w3.org/2000/svg" viewBox="0.0 0.0 24.0 24.0" height="200px" width="200px"><path fill="none" stroke="black" stroke-width=".3" stroke-opacity="1.0"  filling="0" d="M12.594627380371094 11.837590217590332 L12.594627380371094 11.837590217590332 C12.689311981201172 11.926054954528809 12.708406448364258 12.079602241516113 12.708819389343262 12.209181785583496 L12.708819389343262 12.209181785583496 C12.662910461425781 12.212499618530273 12.617000579833984 12.215818405151367 12.571091651916504 12.219136238098145 L12.571091651916504 12.219136238098145 C12.571091651916504 12.112154006958008 12.571091651916504 12.005172729492188 12.571091651916504 11.89819049835205 L12.571091651916504 11.89819049835205 C12.550827980041504 12.003117561340332 12.530564308166504 12.10804557800293 12.510300636291504 12.212972640991211 L12.510300636291504 12.212972640991211 C12.469482421875 12.212972640991211 12.428664207458496 12.212972640991211 12.387845993041992 12.212972640991211 L12.387845993041992 12.212972640991211 C12.387845993041992 12.092936515808105 12.387845993041992 11.972899436950684 12.387845993041992 11.852863311767578 L12.387845993041992 11.852863311767578 C12.456772804260254 11.847772598266602 12.525700569152832 11.842680931091309 12.594627380371094 11.837590217590332 L12.594627380371094 11.837590217590332"></path></svg>