<svg xmlns="http://www.w3.org/2000/svg" viewBox="0.0 0.0 24.0 24.0" height="200px" width="200px"><path fill="none" stroke="black" stroke-width=".3" stroke-opacity="1.0"  filling="0" d="M10.76669979095459 11.792646408081055 L10.76669979095459 11.792646408081055 C10.76669979095459 11.921464920043945 10.76669979095459 12.05028247833252 10.76669979095459 12.17910099029541 L10.76669979095459 12.17910099029541 C10.664017677307129 12.179091453552246 10.561336517333984 12.179082870483398 10.458654403686523 12.179073333740234 L10.458654403686523 12.179073333740234 C10.452635765075684 12.058237075805664 10.44661808013916 11.937400817871094 10.44059944152832 11.816564559936523 L10.44059944152832 11.816564559936523 C10.488627433776855 11.814455032348633 10.536654472351074 11.812346458435059 10.58468246459961 11.810236930847168 L10.58468246459961 11.810236930847168 C10.58468246459961 11.908209800720215 10.58468246459961 12.006182670593262 10.58468246459961 12.104155540466309 L10.58468246459961 12.104155540466309 C10.598318099975586 12.105874061584473 10.611954689025879 12.10759162902832 10.625590324401855 12.109310150146484 L10.625590324401855 12.109310150146484 C10.65419864654541 11.940313339233398 10.598345756530762 11.877119064331055 10.76669979095459 11.792646408081055 L10.76669979095459 11.792646408081055"></path></svg>