<svg xmlns="http://www.w3.org/2000/svg" viewBox="0.0 0.0 24.0 24.0" height="200px" width="200px"><path fill="none" stroke="black" stroke-width=".3" stroke-opacity="1.0"  filling="0" d="M11.936400413513184 11.735618591308594 L11.936400413513184 11.735618591308594 C11.936400413513184 11.872391700744629 11.936400413513184 12.009163856506348 11.936400413513184 12.145936965942383 L11.936400413513184 12.145936965942383 C11.974818229675293 12.157319068908691 12.013236999511719 12.168700218200684 12.051654815673828 12.180082321166992 L12.051654815673828 12.180082321166992 C11.945981979370117 12.189855575561523 11.840310096740723 12.199627876281738 11.734637260437012 12.20940113067627 L11.734637260437012 12.20940113067627 C11.733654975891113 12.197346687316895 11.732672691345215 12.185291290283203 11.731690406799316 12.173236846923828 L11.731690406799316 12.173236846923828 C11.781426429748535 12.167991638183594 11.83116340637207 12.162745475769043 11.880899429321289 12.157500267028809 L11.880899429321289 12.157500267028809 C11.880899429321289 12.050954818725586 11.880899429321289 11.944408416748047 11.880899429321289 11.837862968444824 L11.880899429321289 11.837862968444824 C11.844780921936035 11.85533618927002 11.808663368225098 11.872808456420898 11.772544860839844 11.890281677246094 L11.772544860839844 11.890281677246094 C11.766427040100098 11.8818998336792 11.760309219360352 11.873517990112305 11.754191398620605 11.86513614654541 L11.754191398620605 11.86513614654541 C11.81492805480957 11.8219633102417 11.875663757324219 11.778791427612305 11.936400413513184 11.735618591308594 L11.936400413513184 11.735618591308594"></path></svg>