<svg xmlns="http://www.w3.org/2000/svg" viewBox="0.0 0.0 24.0 24.0" height="200px" width="200px"><path fill="none" stroke="black" stroke-width=".3" stroke-opacity="1.0"  filling="0" d="M13.496973037719727 11.81007194519043 L13.496973037719727 11.81007194519043 C13.530390739440918 11.851208686828613 13.563809394836426 11.89234447479248 13.597227096557617 11.933481216430664 L13.597227096557617 11.933481216430664 C13.575091361999512 11.942299842834473 13.55295467376709 11.951117515563965 13.530818939208984 11.959936141967773 L13.530818939208984 11.959936141967773 C13.530818939208984 12.04326343536377 13.530818939208984 12.12658977508545 13.530818939208984 12.209917068481445 L13.530818939208984 12.209917068481445 C13.565409660339355 12.215517044067383 13.59999942779541 12.22111701965332 13.634590148925781 12.226716995239258 L13.634590148925781 12.226716995239258 C13.594772338867188 12.257157325744629 13.529623985290527 12.242319107055664 13.484345436096191 12.220827102661133 L13.484345436096191 12.220827102661133 C13.464645385742188 12.12051773071289 13.4449462890625 12.020208358764648 13.425246238708496 11.919898986816406 L13.425246238708496 11.919898986816406 C13.4491548538208 11.88329029083252 13.473064422607422 11.846680641174316 13.496973037719727 11.81007194519043 L13.496973037719727 11.81007194519043"></path></svg>