<svg xmlns="http://www.w3.org/2000/svg" viewBox="0.0 0.0 24.0 24.0" height="200px" width="200px"><path fill="none" stroke="black" stroke-width=".3" stroke-opacity="1.0"  filling="0" d="M12.736091613769531 11.748353958129883 L12.736091613769531 11.748353958129883 C12.765673637390137 11.85490894317627 12.795254707336426 11.96146297454834 12.824836730957031 12.068017959594727 L12.824836730957031 12.068017959594727 C12.792418479919434 12.121299743652344 12.760001182556152 12.174581527709961 12.727582931518555 12.227863311767578 L12.727582931518555 12.227863311767578 C12.718146324157715 12.190135955810547 12.708709716796875 12.152409553527832 12.699273109436035 12.1146821975708 L12.699273109436035 12.1146821975708 C12.613845825195312 12.110773086547852 12.52841854095459 12.106863975524902 12.442991256713867 12.102954864501953 L12.442991256713867 12.102954864501953 C12.540691375732422 11.98475456237793 12.638391494750977 11.866554260253906 12.736091613769531 11.748353958129883 L12.736091613769531 11.748353958129883"></path>
<path fill="none" stroke="black" stroke-width=".3" stroke-opacity="1.0"  filling="0" d="M12.691636085510254 11.815991401672363 L12.691636085510254 11.815991401672363 C12.641663551330566 11.890118598937988 12.591690063476562 11.964244842529297 12.541717529296875 12.038372039794922 L12.541717529296875 12.038372039794922 C12.591690063476562 11.964244842529297 12.641663551330566 11.890118598937988 12.691636085510254 11.815991401672363 L12.691636085510254 11.815991401672363"></path></svg>