<svg xmlns="http://www.w3.org/2000/svg" viewBox="0.0 0.0 24.0 24.0" height="200px" width="200px"><path fill="none" stroke="black" stroke-width=".3" stroke-opacity="1.0"  filling="0" d="M13.35512638092041 11.891180992126465 L13.35512638092041 11.891180992126465 C13.369490623474121 12.003308296203613 13.383853912353516 12.115436553955078 13.398218154907227 12.227563858032227 L13.398218154907227 12.227563858032227 C13.084478378295898 12.255473136901855 13.000507354736328 12.094298362731934 13.332490921020508 12.011372566223145 L13.332490921020508 12.011372566223145 C13.282845497131348 11.98535442352295 13.233200073242188 11.959336280822754 13.183554649353027 11.933318138122559 L13.183554649353027 11.933318138122559 C13.240745544433594 11.919272422790527 13.297935485839844 11.905226707458496 13.35512638092041 11.891180992126465 L13.35512638092041 11.891180992126465"></path>
<path fill="none" stroke="black" stroke-width=".3" stroke-opacity="1.0"  filling="0" d="M13.350191116333008 12.078681945800781 L13.350191116333008 12.078681945800781 C13.292123794555664 12.133097648620605 13.17624282836914 12.184101104736328 13.11720085144043 12.130745887756348 L13.11720085144043 12.130745887756348 C13.124319076538086 12.119363784790039 13.131436347961426 12.10798168182373 13.138554573059082 12.096599578857422 L13.138554573059082 12.096599578857422 C13.209099769592285 12.09062671661377 13.279645919799805 12.084654808044434 13.350191116333008 12.078681945800781 L13.350191116333008 12.078681945800781"></path></svg>