<svg xmlns="http://www.w3.org/2000/svg" viewBox="0.0 0.0 24.0 24.0" height="200px" width="200px"><path fill="none" stroke="black" stroke-width=".3" stroke-opacity="1.0"  filling="0" d="M12.397608757019043 12.003381729125977 L12.397608757019043 12.003381729125977 C12.43297290802002 12.067054748535156 12.468337059020996 12.13072681427002 12.503701210021973 12.1943998336792 L12.503701210021973 12.1943998336792 C12.495855331420898 12.20095443725586 12.48801040649414 12.20750904083252 12.480164527893066 12.21406364440918 L12.480164527893066 12.21406364440918 C12.450373649597168 12.207581520080566 12.420581817626953 12.201099395751953 12.390790939331055 12.19461727142334 L12.390790939331055 12.19461727142334 C12.385881423950195 12.204399108886719 12.380972862243652 12.214180946350098 12.376063346862793 12.223962783813477 L12.376063346862793 12.223962783813477 C12.414345741271973 12.249308586120605 12.452627182006836 12.274653434753418 12.490909576416016 12.299999237060547 L12.490909576416016 12.299999237060547 C12.43636417388916 12.299999237060547 12.381817817687988 12.299999237060547 12.327272415161133 12.299999237060547 L12.327272415161133 12.299999237060547 C12.314400672912598 12.199203491210938 12.322339057922363 12.071645736694336 12.397608757019043 12.003381729125977 L12.397608757019043 12.003381729125977"></path></svg>