<svg xmlns="http://www.w3.org/2000/svg" viewBox="0.0 0.0 24.0 24.0" height="200px" width="200px"><path fill="none" stroke="black" stroke-width=".3" stroke-opacity="1.0"  filling="0" d="M12.296072006225586 11.76128101348877 L12.296072006225586 11.76128101348877 C12.296072006225586 11.889726638793945 12.296072006225586 12.018172264099121 12.296072006225586 12.146617889404297 L12.296072006225586 12.146617889404297 C12.33255386352539 12.157262802124023 12.369036674499512 12.167908668518066 12.405518531799316 12.178553581237793 L12.405518531799316 12.178553581237793 C12.405081748962402 12.188653945922852 12.404644966125488 12.198753356933594 12.404208183288574 12.208853721618652 L12.404208183288574 12.208853721618652 C12.299072265625 12.209299087524414 12.19393539428711 12.209744453430176 12.088799476623535 12.210189819335938 L12.088799476623535 12.210189819335938 C12.08646297454834 12.2002534866333 12.084127426147461 12.19031810760498 12.081790924072266 12.180381774902344 L12.081790924072266 12.180381774902344 C12.125045776367188 12.170945167541504 12.168299674987793 12.161508560180664 12.211554527282715 12.152071952819824 L12.211554527282715 12.152071952819824 C12.211554527282715 12.04738998413086 12.211554527282715 11.942708969116211 12.211554527282715 11.838027000427246 L12.211554527282715 11.838027000427246 C12.181781768798828 11.862771987915039 12.152009010314941 11.887517929077148 12.122236251831055 11.912262916564941 L12.122236251831055 11.912262916564941 C12.180181503295898 11.86193561553955 12.238126754760742 11.81160831451416 12.296072006225586 11.76128101348877 L12.296072006225586 11.76128101348877"></path></svg>