<svg xmlns="http://www.w3.org/2000/svg" viewBox="0.0 0.0 24.0 24.0" height="200px" width="200px"><path fill="none" stroke="black" stroke-width=".3" stroke-opacity="1.0"  filling="0" d="M15.068563461303711 11.951563835144043 L15.068563461303711 11.951563835144043 C15.10798168182373 11.994827270507812 15.14739990234375 12.038090705871582 15.18681812286377 12.081354141235352 L15.18681812286377 12.081354141235352 C15.180872917175293 12.092554092407227 15.174927711486816 12.103754997253418 15.16898250579834 12.114954948425293 L15.16898250579834 12.114954948425293 C15.090737342834473 12.114954948425293 15.012491226196289 12.114954948425293 14.934246063232422 12.114954948425293 L14.934246063232422 12.114954948425293 C15.011590957641602 12.147500038146973 15.088936805725098 12.180045127868652 15.166281700134277 12.212590217590332 L15.166281700134277 12.212590217590332 C15.138127326965332 12.241726875305176 15.109973907470703 12.270862579345703 15.081819534301758 12.299999237060547 L15.081819534301758 12.299999237060547 C15.045454978942871 12.299999237060547 15.0090913772583 12.299999237060547 14.972726821899414 12.299999237060547 L14.972726821899414 12.299999237060547 C14.793651580810547 12.121278762817383 14.878679275512695 12.032759666442871 15.068563461303711 11.951563835144043 L15.068563461303711 11.951563835144043"></path>
<path fill="none" stroke="black" stroke-width=".3" stroke-opacity="1.0"  filling="0" d="M15.024490356445312 11.980908393859863 L15.024490356445312 11.980908393859863 C15.049617767333984 12.012662887573242 15.074745178222656 12.044418334960938 15.099872589111328 12.076172828674316 L15.099872589111328 12.076172828674316 C15.052327156066895 12.076172828674316 15.004781723022461 12.076172828674316 14.957236289978027 12.076172828674316 L14.957236289978027 12.076172828674316 C14.979654312133789 12.044418334960938 15.00207233428955 12.012662887573242 15.024490356445312 11.980908393859863 L15.024490356445312 11.980908393859863"></path></svg>