<svg xmlns="http://www.w3.org/2000/svg" viewBox="0.0 0.0 24.0 24.0" height="200px" width="200px"><path fill="none" stroke="black" stroke-width=".3" stroke-opacity="1.0"  filling="0" d="M10.498254776000977 11.802082061767578 L10.498254776000977 11.802082061767578 C10.506709098815918 11.807954788208008 10.51516342163086 11.813827514648438 10.5236177444458 11.819700241088867 L10.5236177444458 11.819700241088867 C10.428625106811523 12.021255493164062 10.480252265930176 12.096173286437988 10.578818321228027 12.285465240478516 L10.578818321228027 12.285465240478516 C10.50900936126709 12.204256057739258 10.439200401306152 12.123046875 10.369391441345215 12.041837692260742 L10.369391441345215 12.041837692260742 C10.327340126037598 12.123100280761719 10.28689193725586 12.206280708312988 10.23193645477295 12.279437065124512 L10.23193645477295 12.279437065124512 C10.225255012512207 12.274436950683594 10.218572616577148 12.269436836242676 10.211891174316406 12.264436721801758 L10.211891174316406 12.264436721801758 C10.21261215209961 12.109907150268555 10.127143859863281 11.840930938720703 10.277563095092773 11.805519104003906 L10.277563095092773 11.805519104003906 C10.277563095092773 11.888628005981445 10.277563095092773 11.971736907958984 10.277563095092773 12.054845809936523 L10.277563095092773 12.054845809936523 C10.351126670837402 11.97059154510498 10.424691200256348 11.886336326599121 10.498254776000977 11.802082061767578 L10.498254776000977 11.802082061767578"></path></svg>