<svg xmlns="http://www.w3.org/2000/svg" viewBox="0.0 0.0 24.0 24.0" height="200px" width="200px"><path fill="none" stroke="black" stroke-width=".3" stroke-opacity="1.0"  filling="0" d="M11.56745433807373 11.67207145690918 L11.56745433807373 11.67207145690918 C11.684126853942871 11.684844017028809 11.800800323486328 11.697617530822754 11.917472839355469 11.710390090942383 L11.917472839355469 11.710390090942383 C11.838836669921875 11.914471626281738 11.760200500488281 12.11855411529541 11.681564331054688 12.322635650634766 L11.681564331054688 12.322635650634766 C11.689409255981445 12.32933521270752 11.69725513458252 12.33603572845459 11.705100059509277 12.342735290527344 L11.705100059509277 12.342735290527344 C11.800318717956543 12.342735290527344 11.895536422729492 12.342735290527344 11.990755081176758 12.342735290527344 L11.990755081176758 12.342735290527344 C11.903280258178711 12.523033142089844 11.608442306518555 12.489969253540039 11.408045768737793 12.490663528442383 L11.408045768737793 12.490663528442383 C11.405091285705566 12.448836326599121 11.402135848999023 12.407008171081543 11.399181365966797 12.365180969238281 L11.399181365966797 12.365180969238281 C11.578834533691406 12.226492881774902 11.768052101135254 12.029009819030762 11.78258228302002 11.802517890930176 L11.78258228302002 11.802517890930176 C11.71292781829834 11.812335968017578 11.64327335357666 11.822154998779297 11.57361888885498 11.8319730758667 L11.57361888885498 11.8319730758667 C11.518836975097656 11.874909400939941 11.464056015014648 11.917844772338867 11.409274101257324 11.96078109741211 L11.409274101257324 11.96078109741211 C11.462000846862793 11.864544868469238 11.514727592468262 11.76830768585205 11.56745433807373 11.67207145690918 L11.56745433807373 11.67207145690918"></path></svg>