<svg xmlns="http://www.w3.org/2000/svg" viewBox="0.0 0.0 24.0 24.0" height="200px" width="200px"><path fill="none" stroke="black" stroke-width=".3" stroke-opacity="1.0"  filling="0" d="M9.841391563415527 11.824719429016113 L9.841391563415527 11.824719429016113 C9.849709510803223 11.883928298950195 9.858027458190918 11.943137168884277 9.866345405578613 12.00234603881836 L9.866345405578613 12.00234603881836 C9.928267478942871 12.258963584899902 9.851456642150879 12.27310848236084 9.60665512084961 12.272727012634277 L9.60665512084961 12.272727012634277 C9.598337173461914 12.127799987792969 9.590018272399902 11.98287296295166 9.581700325012207 11.837945938110352 L9.581700325012207 11.837945938110352 C9.668264389038086 11.833537101745605 9.754827499389648 11.82912826538086 9.841391563415527 11.824719429016113 L9.841391563415527 11.824719429016113"></path>
<path fill="none" stroke="black" stroke-width=".3" stroke-opacity="1.0"  filling="0" d="M9.658662796020508 11.855945587158203 L9.658662796020508 11.855945587158203 C9.896726608276367 11.913886070251465 9.891071319580078 11.948827743530273 9.658636093139648 12.014236450195312 L9.658636093139648 12.014236450195312 C9.658644676208496 11.961472511291504 9.65865421295166 11.908709526062012 9.658662796020508 11.855945587158203 L9.658662796020508 11.855945587158203"></path>
<path fill="none" stroke="black" stroke-width=".3" stroke-opacity="1.0"  filling="0" d="M9.661308288574219 12.067581176757812 L9.661308288574219 12.067581176757812 C9.731263160705566 12.088617324829102 9.801217079162598 12.109654426574707 9.871171951293945 12.130690574645996 L9.871171951293945 12.130690574645996 C9.859417915344238 12.157735824584961 9.847662925720215 12.184782028198242 9.835908889770508 12.211827278137207 L9.835908889770508 12.211827278137207 C9.777709007263184 12.211827278137207 9.719508171081543 12.211827278137207 9.661308288574219 12.211827278137207 L9.661308288574219 12.211827278137207 C9.661308288574219 12.163744926452637 9.661308288574219 12.115663528442383 9.661308288574219 12.067581176757812 L9.661308288574219 12.067581176757812"></path></svg>