<svg xmlns="http://www.w3.org/2000/svg" viewBox="0.0 0.0 24.0 24.0" height="200px" width="200px"><path fill="none" stroke="black" stroke-width=".3" stroke-opacity="1.0"  filling="0" d="M9.081818580627441 11.781818389892578 L9.081818580627441 11.781818389892578 C9.16976547241211 11.782347679138184 9.219141006469727 11.896768569946289 9.26470947265625 11.971991539001465 L9.26470947265625 11.971991539001465 C9.27592945098877 12.081077575683594 9.186065673828125 12.211421012878418 9.081818580627441 12.245454788208008 L9.081818580627441 12.245454788208008 C9.081818580627441 12.227272987365723 9.081818580627441 12.209091186523438 9.081818580627441 12.190909385681152 L9.081818580627441 12.190909385681152 C9.133627891540527 12.190909385681152 9.185436248779297 12.190909385681152 9.237245559692383 12.190909385681152 L9.237245559692383 12.190909385681152 C9.185436248779297 12.136363983154297 9.133627891540527 12.081818580627441 9.081818580627441 12.027273178100586 L9.081818580627441 12.027273178100586 C9.081818580627441 12.0090913772583 9.081818580627441 11.990909576416016 9.081818580627441 11.97272777557373 L9.081818580627441 11.97272777557373 C9.27241325378418 11.964876174926758 9.272355079650879 11.843993186950684 9.081818580627441 11.836336135864258 L9.081818580627441 11.836336135864258 C9.081818580627441 11.818163871765137 9.081818580627441 11.7999906539917 9.081818580627441 11.781818389892578 L9.081818580627441 11.781818389892578"></path></svg>