<svg xmlns="http://www.w3.org/2000/svg" viewBox="0.0 0.0 24.0 24.0" height="200px" width="200px"><path fill="none" stroke="black" stroke-width=".3" stroke-opacity="1.0"  filling="0" d="M11.912782669067383 11.749226570129395 L11.912782669067383 11.749226570129395 C11.912782669067383 11.843890190124512 11.912782669067383 11.938554763793945 11.912782669067383 12.033218383789062 L11.912782669067383 12.033218383789062 C11.939136505126953 12.045082092285156 11.96549129486084 12.056944847106934 11.99184513092041 12.068808555603027 L11.99184513092041 12.068808555603027 C11.954717636108398 12.120772361755371 11.917590141296387 12.172736167907715 11.880462646484375 12.224699974060059 L11.880462646484375 12.224699974060059 C11.871562957763672 12.190362930297852 11.862662315368652 12.156026840209961 11.85376262664795 12.121689796447754 L11.85376262664795 12.121689796447754 C11.77678108215332 12.095908164978027 11.699799537658691 12.070125579833984 11.622817993164062 12.044343948364258 L11.622817993164062 12.044343948364258 C11.719472885131836 11.945971488952637 11.81612777709961 11.847599029541016 11.912782669067383 11.749226570129395 L11.912782669067383 11.749226570129395"></path>
<path fill="none" stroke="black" stroke-width=".3" stroke-opacity="1.0"  filling="0" d="M11.855372428894043 11.823982238769531 L11.855372428894043 11.823982238769531 C11.855372428894043 11.899027824401855 11.855372428894043 11.974072456359863 11.855372428894043 12.049118041992188 L11.855372428894043 12.049118041992188 C11.803572654724121 12.051681518554688 11.7517728805542 12.054245948791504 11.699973106384277 12.056809425354004 L11.699973106384277 12.056809425354004 C11.7517728805542 11.97920036315918 11.803572654724121 11.901591300964355 11.855372428894043 11.823982238769531 L11.855372428894043 11.823982238769531"></path></svg>