<svg xmlns="http://www.w3.org/2000/svg" viewBox="0.0 0.0 24.0 24.0" height="200px" width="200px"><path fill="none" stroke="black" stroke-width=".3" stroke-opacity="1.0"  filling="0" d="M12.449481964111328 11.73340892791748 L12.449481964111328 11.73340892791748 C12.465036392211914 11.774954795837402 12.480591773986816 11.816499710083008 12.496146202087402 11.85804557800293 L12.496146202087402 11.85804557800293 C12.474872589111328 11.885455131530762 12.45359992980957 11.912863731384277 12.432326316833496 11.94027328491211 L12.432326316833496 11.94027328491211 C12.456262588500977 12.01496410369873 12.480199813842773 12.089653968811035 12.504136085510254 12.164344787597656 L12.504136085510254 12.164344787597656 C12.371081352233887 12.163263320922852 12.238027572631836 12.162181854248047 12.104972839355469 12.161100387573242 L12.104972839355469 12.161100387573242 C12.131564140319824 12.143818855285645 12.158154487609863 12.12653636932373 12.184745788574219 12.109254837036133 L12.184745788574219 12.109254837036133 C12.230605125427246 12.115975379943848 12.247227668762207 12.011393547058105 12.219136238098145 11.974527359008789 L12.219136238098145 11.974527359008789 C12.264388084411621 11.928169250488281 12.341521263122559 11.84843921661377 12.30070972442627 11.798127174377441 L12.30070972442627 11.798127174377441 C12.248846054077148 11.813145637512207 12.196982383728027 11.828164100646973 12.145118713378906 11.843182563781738 L12.145118713378906 11.843182563781738 C12.246573448181152 11.806591033935547 12.348027229309082 11.770000457763672 12.449481964111328 11.73340892791748 L12.449481964111328 11.73340892791748"></path></svg>