<svg xmlns="http://www.w3.org/2000/svg" viewBox="0.0 0.0 24.0 24.0" height="200px" width="200px"><path fill="none" stroke="black" stroke-width=".3" stroke-opacity="1.0"  filling="0" d="M11.835000038146973 11.934164047241211 L11.835000038146973 11.934164047241211 C11.888754844665527 11.990263938903809 11.942508697509766 12.04636287689209 11.99626350402832 12.102462768554688 L11.99626350402832 12.102462768554688 C11.917045593261719 12.106817245483398 11.837827682495117 12.111172676086426 11.758609771728516 12.115527153015137 L11.758609771728516 12.115527153015137 C11.837827682495117 12.147835731506348 11.917045593261719 12.180145263671875 11.99626350402832 12.212453842163086 L11.99626350402832 12.212453842163086 C11.952054023742676 12.241644859313965 11.907845497131348 12.270834922790527 11.863636016845703 12.300025939941406 L11.863636016845703 12.300025939941406 C11.518768310546875 12.299688339233398 11.790231704711914 11.99372386932373 11.835000038146973 11.934164047241211 L11.835000038146973 11.934164047241211"></path>
<path fill="none" stroke="black" stroke-width=".3" stroke-opacity="1.0"  filling="0" d="M11.73900032043457 12.069681167602539 L11.73900032043457 12.069681167602539 C11.807927131652832 12.073363304138184 11.87685489654541 12.077045440673828 11.945781707763672 12.080727577209473 L11.945781707763672 12.080727577209473 C11.87685489654541 12.077045440673828 11.807927131652832 12.073363304138184 11.73900032043457 12.069681167602539 L11.73900032043457 12.069681167602539"></path></svg>