<svg xmlns="http://www.w3.org/2000/svg" viewBox="0.0 0.0 24.0 24.0" height="200px" width="200px"><path fill="none" stroke="black" stroke-width=".3" stroke-opacity="1.0"  filling="0" d="M11.609317779541016 11.891399383544922 L11.609317779541016 11.891399383544922 C11.706733703613281 11.964534759521484 11.753799438476562 12.105013847351074 11.754354476928711 12.226826667785645 L11.754354476928711 12.226826667785645 C11.693472862243652 12.239263534545898 11.632590293884277 12.251699447631836 11.571708679199219 12.26413631439209 L11.571708679199219 12.26413631439209 C11.353755950927734 12.120474815368652 11.551885604858398 12.060306549072266 11.699999809265137 12.010717391967773 L11.699999809265137 12.010717391967773 C11.633872032165527 12.005807876586914 11.567745208740234 12.000899314880371 11.501617431640625 11.995989799499512 L11.501617431640625 11.995989799499512 C11.537517547607422 11.961126327514648 11.573417663574219 11.926262855529785 11.609317779541016 11.891399383544922 L11.609317779541016 11.891399383544922"></path>
<path fill="none" stroke="black" stroke-width=".3" stroke-opacity="1.0"  filling="0" d="M11.700409889221191 12.066054344177246 L11.700409889221191 12.066054344177246 C11.659255027770996 12.124579429626465 11.570230484008789 12.199326515197754 11.508764266967773 12.16270923614502 L11.508764266967773 12.16270923614502 C11.509337425231934 12.150718688964844 11.509909629821777 12.138727188110352 11.510482788085938 12.126736640930176 L11.510482788085938 12.126736640930176 C11.57379150390625 12.1065092086792 11.637101173400879 12.086281776428223 11.700409889221191 12.066054344177246 L11.700409889221191 12.066054344177246"></path></svg>