<svg xmlns="http://www.w3.org/2000/svg" viewBox="0.0 0.0 24.0 24.0" height="200px" width="200px"><path fill="none" stroke="black" stroke-width=".3" stroke-opacity="1.0"  filling="0" d="M12.293782234191895 11.872145652770996 L12.293782234191895 11.872145652770996 C12.264272689819336 11.911727905273438 12.234764099121094 11.951309204101562 12.205254554748535 11.990891456604004 L12.205254554748535 11.990891456604004 C12.27222728729248 11.990900039672852 12.339200019836426 11.990909576416016 12.406172752380371 11.990918159484863 L12.406172752380371 11.990918159484863 C12.399572372436523 11.961309432983398 12.392972946166992 11.931699752807617 12.386372566223145 11.902091026306152 L12.386372566223145 11.902091026306152 C12.392754554748535 11.899291038513184 12.399136543273926 11.896491050720215 12.405518531799316 11.893691062927246 L12.405518531799316 11.893691062927246 C12.43130874633789 11.938263893127441 12.457099914550781 11.982836723327637 12.482890129089355 12.027409553527832 L12.482890129089355 12.027409553527832 C12.391372680664062 12.027409553527832 12.299854278564453 12.027409553527832 12.20833683013916 12.027409553527832 L12.20833683013916 12.027409553527832 C12.225255012512207 12.077027320861816 12.242173194885254 12.126646041870117 12.2590913772583 12.176263809204102 L12.2590913772583 12.176263809204102 C12.320527076721191 12.157209396362305 12.381963729858398 12.138154983520508 12.443399429321289 12.119100570678711 L12.443399429321289 12.119100570678711 C12.145447731018066 12.271319389343262 12.102441787719727 12.082539558410645 12.293782234191895 11.872145652770996 L12.293782234191895 11.872145652770996"></path></svg>