<svg xmlns="http://www.w3.org/2000/svg" viewBox="0.0 0.0 24.0 24.0" height="200px" width="200px"><path fill="none" stroke="black" stroke-width=".3" stroke-opacity="1.0"  filling="0" d="M11.834617614746094 11.863609313964844 L11.834617614746094 11.863609313964844 C11.928004264831543 11.946623802185059 11.971028327941895 12.087400436401367 11.972073554992676 12.212345123291016 L11.972073554992676 12.212345123291016 C11.93405532836914 12.206708908081055 11.896036148071289 12.201071739196777 11.858017921447754 12.195435523986816 L11.858017921447754 12.195435523986816 C11.880373001098633 12.149835586547852 11.902728080749512 12.104235649108887 11.92508316040039 12.058635711669922 L11.92508316040039 12.058635711669922 C11.859855651855469 12.091172218322754 11.794628143310547 12.123708724975586 11.729400634765625 12.156245231628418 L11.729400634765625 12.156245231628418 C11.773773193359375 12.167936325073242 11.818146705627441 12.179627418518066 11.862519264221191 12.19131851196289 L11.862519264221191 12.19131851196289 C11.572233200073242 12.214107513427734 11.750252723693848 12.041936874389648 11.90762710571289 11.977663040161133 L11.90762710571289 11.977663040161133 C11.842972755432129 11.971717834472656 11.778318405151367 11.96577262878418 11.713664054870605 11.959827423095703 L11.713664054870605 11.959827423095703 C11.753981590270996 11.927754402160645 11.794300079345703 11.895682334899902 11.834617614746094 11.863609313964844 L11.834617614746094 11.863609313964844"></path></svg>