<svg xmlns="http://www.w3.org/2000/svg" viewBox="0.0 0.0 24.0 24.0" height="200px" width="200px"><path fill="none" stroke="black" stroke-width=".3" stroke-opacity="1.0"  filling="0" d="M13.200408935546875 11.94804573059082 L13.200408935546875 11.94804573059082 C13.209463119506836 11.956554412841797 13.218518257141113 11.96506404876709 13.227572441101074 11.973572731018066 L13.227572441101074 11.973572731018066 C13.193136215209961 12.005509376525879 13.158699989318848 12.037445068359375 13.124263763427734 12.069381713867188 L13.124263763427734 12.069381713867188 C13.18034553527832 12.069381713867188 13.236427307128906 12.069381713867188 13.292509078979492 12.069381713867188 L13.292509078979492 12.069381713867188 C13.269481658935547 12.03621768951416 13.246454238891602 12.00305461883545 13.223426818847656 11.969890594482422 L13.223426818847656 11.969890594482422 C13.25954532623291 12.01392650604248 13.295662879943848 12.057963371276855 13.331781387329102 12.101999282836914 L13.331781387329102 12.101999282836914 C13.254836082458496 12.108199119567871 13.177891731262207 12.114399909973145 13.100946426391602 12.120599746704102 L13.100946426391602 12.120599746704102 C13.174291610717773 12.146772384643555 13.247636795043945 12.172945022583008 13.320981979370117 12.199117660522461 L13.320981979370117 12.199117660522461 C13.023584365844727 12.332958221435547 12.958731651306152 12.106501579284668 13.200408935546875 11.94804573059082 L13.200408935546875 11.94804573059082"></path></svg>