<svg xmlns="http://www.w3.org/2000/svg" viewBox="0.0 0.0 24.0 24.0" height="200px" width="200px"><path fill="none" stroke="black" stroke-width=".3" stroke-opacity="1.0"  filling="0" d="M11.23592758178711 11.741782188415527 L11.23592758178711 11.741782188415527 C11.23587417602539 11.835859298706055 11.156289100646973 11.928492546081543 11.072999954223633 11.972236633300781 L11.072999954223633 11.972236633300781 C11.115857124328613 11.939231872558594 11.129602432250977 11.84511947631836 11.087918281555176 11.810644149780273 L11.087918281555176 11.810644149780273 C11.084345817565918 11.865762710571289 11.080772399902344 11.920881271362305 11.077199935913086 11.97599983215332 L11.077199935913086 11.97599983215332 C11.05933666229248 11.996335983276367 11.041472434997559 12.01667308807373 11.023609161376953 12.037009239196777 L11.023609161376953 12.037009239196777 C11.115272521972656 12.093791007995605 11.206936836242676 12.150571823120117 11.298600196838379 12.207353591918945 L11.298600196838379 12.207353591918945 C11.201772689819336 12.181726455688477 11.10494613647461 12.156100273132324 11.008118629455566 12.130473136901855 L11.008118629455566 12.130473136901855 C11.027536392211914 12.160418510437012 11.046954154968262 12.190363883972168 11.06637191772461 12.220309257507324 L11.06637191772461 12.220309257507324 C10.769015312194824 12.036197662353516 11.011860847473145 11.80318832397461 11.23592758178711 11.741782188415527 L11.23592758178711 11.741782188415527"></path></svg>