<svg xmlns="http://www.w3.org/2000/svg" viewBox="0.0 0.0 24.0 24.0" height="200px" width="200px"><path fill="none" stroke="black" stroke-width=".3" stroke-opacity="1.0"  filling="0" d="M10.997699737548828 11.70616340637207 L10.997699737548828 11.70616340637207 C11.029335975646973 11.70616340637207 11.060973167419434 11.70616340637207 11.092609405517578 11.70616340637207 L11.092609405517578 11.70616340637207 C11.097345352172852 11.786236763000488 11.102082252502441 11.86630916595459 11.106818199157715 11.946382522583008 L11.106818199157715 11.946382522583008 C11.163008689880371 11.917191505432129 11.219200134277344 11.888001441955566 11.275390625 11.858810424804688 L11.275390625 11.858810424804688 C11.284608840942383 11.865583419799805 11.293827056884766 11.872355461120605 11.303045272827148 11.879128456115723 L11.303045272827148 11.879128456115723 C11.306300163269043 11.998064994812012 11.309554100036621 12.117000579833984 11.312808990478516 12.235937118530273 L11.312808990478516 12.235937118530273 C11.274863243103027 12.239737510681152 11.236918449401855 12.243536949157715 11.198972702026367 12.247337341308594 L11.198972702026367 12.247337341308594 C11.178682327270508 12.193182945251465 11.158390998840332 12.13902759552002 11.138100624084473 12.08487319946289 L11.138100624084473 12.08487319946289 C11.129582405090332 12.084318161010742 11.121063232421875 12.08376407623291 11.112545013427734 12.083209037780762 L11.112545013427734 12.083209037780762 C11.105345726013184 12.134818077087402 11.098145484924316 12.18642807006836 11.090946197509766 12.238037109375 L11.090946197509766 12.238037109375 C11.059873580932617 12.239473342895508 11.028800010681152 12.240909576416016 10.997727394104004 12.242345809936523 L10.997727394104004 12.242345809936523 C10.99771785736084 12.063618659973145 10.997709274291992 11.88489055633545 10.997699737548828 11.70616340637207 L10.997699737548828 11.70616340637207"></path></svg>