<svg xmlns="http://www.w3.org/2000/svg" viewBox="0.0 0.0 24.0 24.0" height="200px" width="200px"><path fill="none" stroke="black" stroke-width=".3" stroke-opacity="1.0"  filling="0" d="M20.263660430908203 9.979473114013672 L20.263660430908203 9.979473114013672 C20.88181495666504 9.979473114013672 21.499971389770508 9.979473114013672 22.118125915527344 9.979473114013672 L22.118125915527344 9.979473114013672 C22.11673355102539 10.239307403564453 22.10713768005371 10.499342918395996 22.086109161376953 10.758328437805176 L22.086109161376953 10.758328437805176 C21.763290405273438 10.758328437805176 21.440471649169922 10.758328437805176 21.117652893066406 10.758328437805176 L21.117652893066406 10.758328437805176 C21.117652893066406 11.042800903320312 21.117652893066406 11.327274322509766 21.117652893066406 11.611746788024902 L21.117652893066406 11.611746788024902 C21.43817138671875 11.625146865844727 21.758689880371094 11.638545989990234 22.079208374023438 11.651946067810059 L22.079208374023438 11.651946067810059 C22.079208374023438 11.90572738647461 22.079208374023438 12.159509658813477 22.079208374023438 12.413290977478027 L22.079208374023438 12.413290977478027 C21.758745193481445 12.402454376220703 21.43828010559082 12.391618728637695 21.117816925048828 12.380782127380371 L21.117816925048828 12.380782127380371 C21.110109329223633 12.643836975097656 21.102399826049805 12.906890869140625 21.09469223022461 13.16994571685791 L21.09469223022461 13.16994571685791 C21.42021942138672 13.180800437927246 21.745746612548828 13.191654205322266 22.071273803710938 13.202508926391602 L22.071273803710938 13.202508926391602 C22.071273803710938 13.453381538391113 22.071273803710938 13.704255104064941 22.071273803710938 13.955127716064453 L22.071273803710938 13.955127716064453 C21.462072372436523 13.948464393615723 20.852872848510742 13.941800117492676 20.243671417236328 13.935136795043945 L20.243671417236328 13.935136795043945 C20.24584197998047 12.617544174194336 20.26485252380371 11.298327445983887 20.263660430908203 9.979473114013672 L20.263660430908203 9.979473114013672"></path></svg>