<svg xmlns="http://www.w3.org/2000/svg" viewBox="0.0 0.0 24.0 24.0" height="200px" width="200px"><path fill="none" stroke="black" stroke-width=".3" stroke-opacity="1.0"  filling="0" d="M13.948772430419922 9.355500221252441 L13.948772430419922 9.355500221252441 C14.008254051208496 9.363691329956055 14.06773567199707 9.371882438659668 14.127217292785645 9.380073547363281 L14.127217292785645 9.380073547363281 C14.128152847290039 9.761136054992676 13.771919250488281 10.254501342773438 13.39085578918457 10.254518508911133 L13.39085578918457 10.254518508911133 C13.39085578918457 11.672215461730957 13.639284133911133 13.4459867477417 13.357172966003418 14.87339973449707 L13.357172966003418 14.87339973449707 C13.05024528503418 14.860390663146973 12.743318557739258 14.847382545471191 12.43639087677002 14.834373474121094 L12.43639087677002 14.834373474121094 C12.43639087677002 13.34166431427002 12.318915367126465 11.793678283691406 12.422727584838867 10.29919147491455 L12.422727584838867 10.29919147491455 C12.192100524902344 10.274773597717285 11.96147346496582 10.250354766845703 11.730846405029297 10.225936889648438 L11.730846405029297 10.225936889648438 C11.730846405029297 9.951272964477539 11.730846405029297 9.67660903930664 11.730846405029297 9.401945114135742 L11.730846405029297 9.401945114135742 C12.426582336425781 9.277266502380371 13.26899528503418 9.355628967285156 13.948772430419922 9.355500221252441 L13.948772430419922 9.355500221252441"></path></svg>