<svg xmlns="http://www.w3.org/2000/svg" viewBox="0.0 0.0 24.0 24.0" height="200px" width="200px"><path fill="none" stroke="black" stroke-width=".3" stroke-opacity="1.0"  filling="0" d="M9.797972679138184 12.059863090515137 L9.797972679138184 12.059863090515137 C9.928582191467285 12.059863090515137 10.05919075012207 12.059863090515137 10.189800262451172 12.059863090515137 L10.189800262451172 12.059863090515137 C10.375547409057617 12.564830780029297 11.2929048538208 13.832579612731934 10.354336738586426 13.826945304870605 L10.354336738586426 13.826945304870605 C10.162864685058594 13.709285736083984 9.924864768981934 13.666431427001953 9.700145721435547 13.663909912109375 L9.700145721435547 13.663909912109375 C9.613648414611816 13.872322082519531 9.392293930053711 13.988642692565918 9.166690826416016 13.815927505493164 L9.166690826416016 13.815927505493164 C9.377118110656738 13.230572700500488 9.587545394897461 12.645217895507812 9.797972679138184 12.059863090515137 L9.797972679138184 12.059863090515137"></path>
<path fill="none" stroke="black" stroke-width=".3" stroke-opacity="1.0"  filling="0" d="M9.978708267211914 12.857181549072266 L9.978708267211914 12.857181549072266 C10.036789894104004 13.004926681518555 10.09487247467041 13.15267276763916 10.1529541015625 13.30041790008545 L10.1529541015625 13.30041790008545 C10.04772663116455 13.30041790008545 9.942500114440918 13.30041790008545 9.837272644042969 13.30041790008545 L9.837272644042969 13.30041790008545 C9.884417533874512 13.15267276763916 9.931563377380371 13.004926681518555 9.978708267211914 12.857181549072266 L9.978708267211914 12.857181549072266"></path></svg>