<svg xmlns="http://www.w3.org/2000/svg" viewBox="0.0 0.0 24.0 24.0" height="200px" width="200px"><path fill="none" stroke="black" stroke-width=".3" stroke-opacity="1.0"  filling="0" d="M13.159690856933594 11.758500099182129 L13.159690856933594 11.758500099182129 C13.1664457321167 11.795391082763672 13.173199653625488 11.832282066345215 13.179954528808594 11.869173049926758 L13.179954528808594 11.869173049926758 C13.24769115447998 11.874327659606934 13.315427780151367 11.879481315612793 13.383164405822754 11.884635925292969 L13.383164405822754 11.884635925292969 C13.383164405822754 11.984708786010742 13.383164405822754 12.084781646728516 13.383164405822754 12.184854507446289 L13.383164405822754 12.184854507446289 C13.372400283813477 12.186226844787598 13.361637115478516 12.187600135803223 13.350872993469238 12.188972473144531 L13.350872993469238 12.188972473144531 C13.340618133544922 12.088781356811523 13.330364227294922 11.988590240478516 13.320109367370605 11.888399124145508 L13.320109367370605 11.888399124145508 C13.267264366149902 11.994362831115723 13.214418411254883 12.100326538085938 13.16157341003418 12.206290245056152 L13.16157341003418 12.206290245056152 C13.160945892333984 12.057026863098145 13.160318374633789 11.907763481140137 13.159690856933594 11.758500099182129 L13.159690856933594 11.758500099182129"></path></svg>