<svg xmlns="http://www.w3.org/2000/svg" viewBox="0.0 0.0 24.0 24.0" height="200px" width="200px"><path fill="none" stroke="black" stroke-width=".3" stroke-opacity="1.0"  filling="0" d="M8.01812744140625 9.859498977661133 L8.01812744140625 9.859498977661133 C8.350729942321777 9.980215072631836 8.612048149108887 10.420480728149414 8.5624361038208 10.770817756652832 L8.5624361038208 10.770817756652832 C9.151046752929688 11.543279647827148 8.113927841186523 12.127168655395508 7.697673320770264 11.209691047668457 L7.697673320770264 11.209691047668457 C7.907108783721924 11.211160659790039 8.104438781738281 11.47851276397705 8.29740047454834 11.39708137512207 C8.542754173278809 11.293540954589844 7.909298896789551 10.851877212524414 7.909337520599365 10.669281005859375 L7.909337520599365 10.669281005859375 C8.044455528259277 10.62009048461914 8.179573059082031 10.570899963378906 8.314690589904785 10.521709442138672 L8.314690589904785 10.521709442138672 C8.260190963745117 10.412464141845703 8.205690383911133 10.303218841552734 8.151190757751465 10.193973541259766 L8.151190757751465 10.193973541259766 C8.05683422088623 10.49361515045166 8.028094291687012 10.445352554321289 7.680163860321045 10.445154190063477 L7.680163860321045 10.445154190063477 C7.792818546295166 10.2499361038208 7.905472755432129 10.054717063903809 8.01812744140625 9.859498977661133 L8.01812744140625 9.859498977661133"></path></svg>