<svg xmlns="http://www.w3.org/2000/svg" viewBox="0.0 0.0 24.0 24.0" height="200px" width="200px"><path fill="none" stroke="black" stroke-width=".3" stroke-opacity="1.0"  filling="0" d="M32.37725830078125 9.489899635314941 L32.37725830078125 9.489899635314941 C32.649803161621094 9.49143123626709 34.15000915527344 9.365277290344238 34.45036315917969 9.698344230651855 C35.41131591796875 10.76396369934082 35.600215911865234 12.661336898803711 34.27775192260742 13.532779693603516 L34.27775192260742 13.532779693603516 C34.55281448364258 14.036825180053711 34.827880859375 14.540870666503906 35.102943420410156 15.044916152954102 L35.102943420410156 15.044916152954102 C34.931034088134766 15.057608604431152 34.194576263427734 15.171781539916992 34.0571403503418 14.970134735107422 C33.94853591918945 14.810790061950684 33.42170333862305 13.69127082824707 33.21708679199219 13.568316459655762 L33.21708679199219 13.568316459655762 C33.215396881103516 14.062838554382324 33.24525451660156 14.59257984161377 33.16150665283203 15.0741548538208 L33.16150665283203 15.0741548538208 C31.398500442504883 14.847658157348633 32.29899215698242 13.072898864746094 32.286651611328125 11.48759937286377 C32.281463623046875 10.821035385131836 31.895999908447266 9.95112133026123 32.37725830078125 9.489899635314941 L32.37725830078125 9.489899635314941"></path>
<path fill="none" stroke="black" stroke-width=".3" stroke-opacity="1.0"  filling="0" d="M33.22172546386719 10.323081970214844 L33.22172546386719 10.323081970214844 C34.60246658325195 10.564136505126953 34.64239501953125 13.035639762878418 33.20050811767578 12.704345703125 L33.20050811767578 12.704345703125 C33.21303176879883 11.910658836364746 33.22005081176758 11.116866111755371 33.22172546386719 10.323081970214844 L33.22172546386719 10.323081970214844"></path></svg>