<svg xmlns="http://www.w3.org/2000/svg" viewBox="0.0 0.0 24.0 24.0" height="200px" width="200px"><path fill="none" stroke="black" stroke-width=".3" stroke-opacity="1.0"  filling="0" d="M9.224481582641602 10.881736755371094 L9.224481582641602 10.881736755371094 C9.88296890258789 11.538579940795898 9.886710166931152 12.060303688049316 9.002754211425781 12.451146125793457 L9.002754211425781 12.451146125793457 C9.002763748168945 12.781464576721191 9.002772331237793 13.11178207397461 9.002781867980957 13.442100524902344 L9.002781867980957 13.442100524902344 C8.832691192626953 13.442100524902344 8.66260051727295 13.442100524902344 8.492509841918945 13.442100524902344 L8.492509841918945 13.442100524902344 C8.492509841918945 13.437718391418457 8.492509841918945 10.890807151794434 8.492509841918945 10.889755249023438 L8.492509841918945 10.889755249023438 C8.736008644104004 10.874037742614746 8.980476379394531 10.88193130493164 9.224481582641602 10.881736755371094 L9.224481582641602 10.881736755371094"></path>
<path fill="none" stroke="black" stroke-width=".3" stroke-opacity="1.0"  filling="0" d="M9.006518363952637 11.247654914855957 L9.006518363952637 11.247654914855957 C9.287315368652344 11.444496154785156 9.224108695983887 11.727811813354492 9.13044548034668 12.049336433410645 L9.13044548034668 12.049336433410645 C9.089136123657227 12.049336433410645 9.04782772064209 12.049336433410645 9.006518363952637 12.049336433410645 L9.006518363952637 12.049336433410645 C9.006518363952637 11.782109260559082 9.006518363952637 11.51488208770752 9.006518363952637 11.247654914855957 L9.006518363952637 11.247654914855957"></path></svg>