<svg xmlns="http://www.w3.org/2000/svg" viewBox="0.0 0.0 24.0 24.0" height="200px" width="200px"><path fill="none" stroke="black" stroke-width=".3" stroke-opacity="1.0"  filling="0" d="M12.96649169921875 10.662490844726562 L12.96649169921875 10.662490844726562 C13.171372413635254 10.863676071166992 13.08708381652832 11.378427505493164 13.101709365844727 11.637818336486816 L13.101709365844727 11.637818336486816 C13.151763916015625 11.637818336486816 13.20181941986084 11.637818336486816 13.251873970031738 11.637818336486816 L13.251873970031738 11.637818336486816 C13.251873970031738 11.315091133117676 13.251873970031738 10.992363929748535 13.251873970031738 10.669636726379395 L13.251873970031738 10.669636726379395 C14.329795837402344 10.671174049377441 13.853635787963867 12.537172317504883 13.765036582946777 13.24799919128418 L13.765036582946777 13.24799919128418 C13.596418380737305 13.24799919128418 13.427801132202148 13.24799919128418 13.259182929992676 13.24799919128418 L13.259182929992676 13.24799919128418 C13.259173393249512 12.843145370483398 13.259164810180664 12.4382905960083 13.2591552734375 12.03343677520752 L13.2591552734375 12.03343677520752 C13.203073501586914 12.03343677520752 13.146990776062012 12.03343677520752 13.090909004211426 12.03343677520752 L13.090909004211426 12.03343677520752 C13.089797973632812 12.657361030578613 13.332136154174805 13.254398345947266 12.580718040466309 13.254518508911133 L12.580718040466309 13.254518508911133 C12.45533561706543 12.707911491394043 12.082450866699219 10.663260459899902 12.96649169921875 10.662490844726562 L12.96649169921875 10.662490844726562"></path></svg>