<svg xmlns="http://www.w3.org/2000/svg" viewBox="0.0 0.0 24.0 24.0" height="200px" width="200px"><path fill="none" stroke="black" stroke-width=".3" stroke-opacity="1.0"  filling="0" d="M12.444082260131836 10.875463485717773 L12.444082260131836 10.875463485717773 C12.892928123474121 11.179555892944336 12.814092636108398 12.840141296386719 12.878562927246094 13.437954902648926 L12.878562927246094 13.437954902648926 C12.694499015808105 13.437954902648926 12.510436058044434 13.437954902648926 12.326372146606445 13.437954902648926 L12.326372146606445 13.437954902648926 C12.30673599243164 13.224800109863281 12.28709888458252 13.011646270751953 12.267462730407715 12.798491477966309 L12.267462730407715 12.798491477966309 C11.938583374023438 12.770356178283691 11.985374450683594 13.258684158325195 11.962389945983887 13.43615436553955 L11.962389945983887 13.43615436553955 C11.807753562927246 13.43615436553955 11.653117179870605 13.43615436553955 11.498480796813965 13.43615436553955 L11.498480796813965 13.43615436553955 C11.630661010742188 12.58349895477295 11.761916160583496 11.73069953918457 11.892217636108398 10.877755165100098 L11.892217636108398 10.877755165100098 C12.076172828674316 10.876991271972656 12.260127067565918 10.876227378845215 12.444082260131836 10.875463485717773 L12.444082260131836 10.875463485717773"></path>
<path fill="none" stroke="black" stroke-width=".3" stroke-opacity="1.0"  filling="0" d="M12.161100387573242 11.531317710876465 L12.161100387573242 11.531317710876465 C12.1694917678833 11.531672477722168 12.177882194519043 11.532026290893555 12.186273574829102 11.532381057739258 L12.186273574829102 11.532381057739258 C12.2044095993042 11.810890197753906 12.222546577453613 12.089399337768555 12.240682601928711 12.367908477783203 L12.240682601928711 12.367908477783203 C12.19063663482666 12.360262870788574 12.140591621398926 12.352618217468262 12.090545654296875 12.344972610473633 L12.090545654296875 12.344972610473633 C12.11406421661377 12.07375431060791 12.137581825256348 11.802536010742188 12.161100387573242 11.531317710876465 L12.161100387573242 11.531317710876465"></path></svg>