<svg xmlns="http://www.w3.org/2000/svg" viewBox="0.0 0.0 24.0 24.0" height="200px" width="200px"><path fill="none" stroke="black" stroke-width=".3" stroke-opacity="1.0"  filling="0" d="M7.912581920623779 12.03272533416748 L7.912581920623779 12.03272533416748 C8.099609375 12.03272533416748 8.286636352539062 12.03272533416748 8.473663330078125 12.03272533416748 L8.473663330078125 12.03272533416748 C8.465853691101074 12.629753112792969 8.45804500579834 13.226780891418457 8.450235366821289 13.823808670043945 L8.450235366821289 13.823808670043945 C8.316726684570312 13.823808670043945 8.183218002319336 13.823808670043945 8.04970932006836 13.823808670043945 L8.04970932006836 13.823808670043945 C8.04970932006836 13.400472640991211 8.04970932006836 12.97713565826416 8.04970932006836 12.553799629211426 L8.04970932006836 12.553799629211426 C8.038190841674805 12.55018138885498 8.02667236328125 12.546562194824219 8.015153884887695 12.542943954467773 L8.015153884887695 12.542943954467773 C7.959926605224609 12.632216453552246 7.904699802398682 12.721489906311035 7.849472522735596 12.810762405395508 L7.849472522735596 12.810762405395508 C7.68308162689209 12.810762405395508 7.516690731048584 12.810762405395508 7.350299835205078 12.810762405395508 L7.350299835205078 12.810762405395508 C7.537727355957031 12.551416397094727 7.725154399871826 12.292071342468262 7.912581920623779 12.03272533416748 L7.912581920623779 12.03272533416748"></path></svg>