<svg xmlns="http://www.w3.org/2000/svg" viewBox="0.0 0.0 24.0 24.0" height="200px" width="200px"><path fill="none" stroke="black" stroke-width=".3" stroke-opacity="1.0"  filling="0" d="M11.801700592041016 11.783100128173828 L11.801700592041016 11.783100128173828 C12.080634117126465 11.913846015930176 11.994839668273926 11.995560646057129 11.788908958435059 12.170700073242188 L11.788908958435059 12.170700073242188 C11.792481422424316 12.179245948791504 11.796053886413574 12.187790870666504 11.799626350402832 12.19633674621582 L11.799626350402832 12.19633674621582 C11.864517211914062 12.19633674621582 11.92940902709961 12.19633674621582 11.99429988861084 12.19633674621582 L11.99429988861084 12.19633674621582 C11.994717597961426 12.208772659301758 11.995136260986328 12.221209526062012 11.995553970336914 12.23364543914795 L11.995553970336914 12.23364543914795 C11.881162643432617 12.237991333007812 11.766772270202637 12.24233627319336 11.65238094329834 12.246682167053223 L11.65238094329834 12.246682167053223 C11.78439712524414 12.083622932434082 11.879539489746094 12.063068389892578 11.907135963439941 11.842281341552734 L11.907135963439941 11.842281341552734 C11.83379077911377 11.868481636047363 11.760444641113281 11.894681930541992 11.68709945678711 11.920882225036621 L11.68709945678711 11.920882225036621 C11.725299835205078 11.874955177307129 11.763500213623047 11.82902717590332 11.801700592041016 11.783100128173828 L11.801700592041016 11.783100128173828"></path></svg>