<svg xmlns="http://www.w3.org/2000/svg" viewBox="0.0 0.0 24.0 24.0" height="200px" width="200px"><path fill="none" stroke="black" stroke-width=".3" stroke-opacity="1.0"  filling="0" d="M9.213055610656738 9.354762077331543 L9.213055610656738 9.354762077331543 C9.907245635986328 9.355194091796875 10.709582328796387 9.267005920410156 11.38101863861084 9.418472290039062 L11.38101863861084 9.418472290039062 C11.411050796508789 10.517760276794434 11.062129020690918 10.292637825012207 10.072145462036133 10.217889785766602 L10.072145462036133 10.217889785766602 C10.072145462036133 10.663789749145508 10.072145462036133 11.109689712524414 10.072145462036133 11.55558967590332 L10.072145462036133 11.55558967590332 C10.493509292602539 11.569780349731445 10.914873123168945 11.58397102355957 11.336236953735352 11.598161697387695 L11.336236953735352 11.598161697387695 C11.74687671661377 12.792747497558594 10.985204696655273 12.4646577835083 10.102554321289062 12.463581085205078 L10.102554321289062 12.463581085205078 C10.049880981445312 12.914386749267578 10.022902488708496 13.113452911376953 10.09088134765625 13.772480964660645 C10.121706008911133 14.071313858032227 11.25219440460205 13.935544967651367 11.380772590637207 13.942363739013672 L11.380772590637207 13.942363739013672 C11.380772590637207 14.2332181930542 11.380772590637207 14.524072647094727 11.380772590637207 14.814927101135254 L11.380772590637207 14.814927101135254 C8.38125228881836 15.390230178833008 9.05280590057373 14.166561126708984 9.080755233764648 11.75814437866211 C9.082161903381348 11.636955261230469 8.87839126586914 9.693480491638184 9.213055610656738 9.354762077331543 L9.213055610656738 9.354762077331543"></path></svg>