<svg xmlns="http://www.w3.org/2000/svg" viewBox="0.0 0.0 24.0 24.0" height="200px" width="200px"><path fill="none" stroke="black" stroke-width=".3" stroke-opacity="1.0"  filling="0" d="M21.586936950683594 9.369736671447754 L21.586936950683594 9.369736671447754 C21.905736923217773 9.373455047607422 22.224538803100586 9.377172470092773 22.543338775634766 9.380890846252441 L22.543338775634766 9.380890846252441 C22.6108455657959 10.085515975952148 22.571863174438477 10.89251708984375 22.594146728515625 11.588700294494629 L22.594146728515625 11.588700294494629 C22.715702056884766 11.590312957763672 23.591196060180664 11.747401237487793 23.617883682250977 11.463136672973633 C23.651935577392578 11.100418090820312 23.120603561401367 8.89940071105957 24.347320556640625 9.409063339233398 C24.866626739501953 9.624818801879883 24.606163024902344 10.32856559753418 24.601119995117188 10.740681648254395 C24.583873748779297 12.150053024291992 24.5352725982666 13.583206176757812 24.635101318359375 14.989008903503418 L24.635101318359375 14.989008903503418 C23.018287658691406 15.129505157470703 23.703266143798828 13.937542915344238 23.620281219482422 12.550745010375977 L23.620281219482422 12.550745010375977 C23.277008056640625 12.53909969329834 22.933734893798828 12.527454376220703 22.59046173095703 12.515809059143066 L22.59046173095703 12.515809059143066 C22.59046173095703 12.52960205078125 22.59046173095703 14.95064926147461 22.59046173095703 14.955354690551758 L22.59046173095703 14.955354690551758 C22.272035598754883 14.942863464355469 21.953609466552734 14.930373191833496 21.635183334350586 14.917881965637207 L21.635183334350586 14.917881965637207 C21.52482032775879 13.083550453186035 21.631610870361328 11.208330154418945 21.586936950683594 9.369736671447754 L21.586936950683594 9.369736671447754"></path></svg>