<svg xmlns="http://www.w3.org/2000/svg" viewBox="0.0 0.0 24.0 24.0" height="200px" width="200px"><path fill="none" stroke="black" stroke-width=".3" stroke-opacity="1.0"  filling="0" d="M26.98638916015625 12.22093677520752 L26.98638916015625 12.22093677520752 C27.147262573242188 12.22093677520752 27.308135986328125 12.22093677520752 27.469009399414062 12.22093677520752 L27.469009399414062 12.22093677520752 C27.57957649230957 12.803130149841309 27.490907669067383 13.417564392089844 27.490907669067383 14.01103687286377 L27.490907669067383 14.01103687286377 C27.355562210083008 14.01103687286377 27.220218658447266 14.01103687286377 27.08487319946289 14.01103687286377 L27.08487319946289 14.01103687286377 C27.08487319946289 13.582891464233398 27.08487319946289 13.154745101928711 27.08487319946289 12.72659969329834 L27.08487319946289 12.72659969329834 C27.078046798706055 12.72386360168457 27.071218490600586 12.721126556396484 27.06439208984375 12.718390464782715 L27.06439208984375 12.718390464782715 C26.944896697998047 12.911113739013672 26.676015853881836 13.009248733520508 26.44925308227539 13.00890064239502 L26.44925308227539 13.00890064239502 C26.530925750732422 12.701696395874023 26.78764533996582 12.46902084350586 26.98638916015625 12.22093677520752 L26.98638916015625 12.22093677520752"></path></svg>