<svg xmlns="http://www.w3.org/2000/svg" viewBox="0.0 0.0 24.0 24.0" height="200px" width="200px"><path fill="none" stroke="black" stroke-width=".3" stroke-opacity="1.0"  filling="0" d="M2.79665470123291 9.12867259979248 L2.79665470123291 9.12867259979248 C3.905302047729492 9.3781099319458 4.964283466339111 11.114867210388184 3.1636362075805664 10.737245559692383 L3.1636362075805664 10.737245559692383 C3.166557788848877 9.993927001953125 2.2082738876342773 9.493762016296387 2.076108932495117 10.48625373840332 C1.9657343626022339 11.315110206604004 2.005373239517212 12.158148765563965 2.021182060241699 12.994172096252441 C2.0340774059295654 13.67612075805664 2.4602231979370117 14.246028900146484 3.110590934753418 13.594498634338379 C3.3964507579803467 13.308128356933594 3.1624066829681396 12.786389350891113 3.16339111328125 12.381762504577637 L3.16339111328125 12.381762504577637 C2.543661594390869 12.382816314697266 2.754274606704712 12.245856285095215 2.754762649536133 11.491445541381836 L2.754762649536133 11.491445541381836 C3.351426601409912 11.491445541381836 3.9480905532836914 11.491445541381836 4.544754505157471 11.491445541381836 L4.544754505157471 11.491445541381836 C4.757319450378418 11.983677864074707 4.66217565536499 12.408917427062988 4.172481536865234 12.409036636352539 L4.172481536865234 12.409036636352539 C4.168829917907715 13.606046676635742 3.178521156311035 16.03770637512207 1.573500633239746 14.481545448303223 C0.24481987953186035 13.193312644958496 0.6660373210906982 9.254094123840332 2.79665470123291 9.12867259979248 L2.79665470123291 9.12867259979248"></path></svg>