<svg xmlns="http://www.w3.org/2000/svg" viewBox="0.0 0.0 24.0 24.0" height="200px" width="200px"><path fill="none" stroke="black" stroke-width=".3" stroke-opacity="1.0"  filling="0" d="M12.035836219787598 11.891401290893555 L12.035836219787598 11.891401290893555 C12.076499938964844 11.954991340637207 12.11716365814209 12.018582344055176 12.157827377319336 12.082172393798828 L12.157827377319336 12.082172393798828 C12.08141803741455 12.082172393798828 12.005009651184082 12.082172393798828 11.928600311279297 12.082172393798828 L11.928600311279297 12.082172393798828 C12.003218650817871 12.103899955749512 12.077836036682129 12.125627517700195 12.152454376220703 12.147355079650879 L12.152454376220703 12.147355079650879 C11.829244613647461 12.29764175415039 11.804946899414062 12.063490867614746 12.035836219787598 11.891401290893555 L12.035836219787598 11.891401290893555"></path>
<path fill="none" stroke="black" stroke-width=".3" stroke-opacity="1.0"  filling="0" d="M12.03177261352539 11.895490646362305 L12.03177261352539 11.895490646362305 C12.060927391052246 11.935227394104004 12.090082168579102 11.974963188171387 12.119236946105957 12.014699935913086 L12.119236946105957 12.014699935913086 C12.05160903930664 12.014699935913086 11.98398208618164 12.014699935913086 11.916354179382324 12.014699935913086 L11.916354179382324 12.014699935913086 C11.954827308654785 11.974963188171387 11.99329948425293 11.935227394104004 12.03177261352539 11.895490646362305 L12.03177261352539 11.895490646362305"></path></svg>