<svg xmlns="http://www.w3.org/2000/svg" viewBox="0.0 0.0 24.0 24.0" height="200px" width="200px"><path fill="none" stroke="black" stroke-width=".3" stroke-opacity="1.0"  filling="0" d="M11.972726821899414 11.754518508911133 L11.972726821899414 11.754518508911133 C11.981818199157715 11.75452709197998 11.9909086227417 11.754536628723145 12.0 11.754545211791992 L12.0 11.754545211791992 C12.012545585632324 11.901199340820312 12.025091171264648 12.04785442352295 12.037636756896973 12.19450855255127 L12.037636756896973 12.19450855255127 C11.974154472351074 12.207481384277344 11.910673141479492 12.220454216003418 11.847190856933594 12.233427047729492 L11.847190856933594 12.233427047729492 C11.798554420471191 12.121037483215332 11.856114387512207 11.925549507141113 11.972726821899414 11.888154029846191 L11.972726821899414 11.888154029846191 C11.972726821899414 11.843608856201172 11.972726821899414 11.799063682556152 11.972726821899414 11.754518508911133 L11.972726821899414 11.754518508911133"></path>
<path fill="none" stroke="black" stroke-width=".3" stroke-opacity="1.0"  filling="0" d="M11.874845504760742 11.923635482788086 L11.874845504760742 11.923635482788086 C11.942173957824707 11.980666160583496 11.894956588745117 12.106474876403809 11.861181259155273 12.187990188598633 L11.861181259155273 12.187990188598633 C11.827126502990723 12.10659122467041 11.811609268188477 11.985172271728516 11.874845504760742 11.923635482788086 L11.874845504760742 11.923635482788086"></path></svg>