<svg xmlns="http://www.w3.org/2000/svg" viewBox="0.0 0.0 24.0 24.0" height="200px" width="200px"><path fill="none" stroke="black" stroke-width=".3" stroke-opacity="1.0"  filling="0" d="M-1.5436630249023438 9.268935203552246 L-1.5436630249023438 9.268935203552246 C-0.6723012328147888 9.351188659667969 0.24828504025936127 9.837835311889648 0.02697277069091797 10.891362190246582 C-0.034653738141059875 11.18472671508789 -0.5698226690292358 11.032478332519531 -0.8667545318603516 10.991344451904297 C-0.9925199747085571 10.973921775817871 -1.798567295074463 9.006975173950195 -2.17977237701416 10.632654190063477 C-2.3010942935943604 11.150040626525879 -2.41963791847229 13.063468933105469 -2.153264045715332 13.394371032714844 C-1.0307737588882446 14.788782119750977 -0.8737127184867859 13.175880432128906 -0.8727273941040039 12.381599426269531 L-0.8727273941040039 12.381599426269531 C-1.4702905416488647 12.380982398986816 -1.3376586437225342 12.125588417053223 -1.3020267486572266 11.579263687133789 L-1.3020267486572266 11.579263687133789 C-0.7605088353157043 11.588973045349121 -0.2189909815788269 11.598681449890137 0.3225269317626953 11.608390808105469 L0.3225269317626953 11.608390808105469 C0.3225269317626953 11.862500190734863 0.3225269317626953 12.116608619689941 0.3225269317626953 12.370718002319336 L0.3225269317626953 12.370718002319336 C0.24230894446372986 12.384154319763184 0.16209092736244202 12.397590637207031 0.08187294006347656 12.411026954650879 L0.08187294006347656 12.411026954650879 C0.07999899983406067 13.91319465637207 -0.830926775932312 15.852707862854004 -2.6676816940307617 14.4243803024292 C-4.140927791595459 13.278730392456055 -3.300067901611328 9.416986465454102 -1.5436630249023438 9.268935203552246 L-1.5436630249023438 9.268935203552246"></path></svg>