<svg xmlns="http://www.w3.org/2000/svg" viewBox="0.0 0.0 24.0 24.0" height="200px" width="200px"><path fill="none" stroke="black" stroke-width=".3" stroke-opacity="1.0"  filling="0" d="M26.81746482849121 10.205320358276367 L26.81746482849121 10.205320358276367 C27.108383178710938 10.23021125793457 27.403047561645508 10.227222442626953 27.69021987915039 10.279993057250977 C27.914804458618164 10.32126235961914 27.642940521240234 10.734743118286133 27.600791931152344 10.959163665771484 L27.600791931152344 10.959163665771484 C27.787200927734375 11.879033088684082 27.1622314453125 12.324956893920898 26.731365203857422 11.408209800720215 L26.731365203857422 11.408209800720215 C26.86109161376953 11.408209800720215 26.990819931030273 11.408209800720215 27.120546340942383 11.408209800720215 L27.120546340942383 11.408209800720215 C27.37824821472168 12.02409839630127 26.94742774963379 10.972028732299805 26.945972442626953 10.857464790344238 L26.945972442626953 10.857464790344238 C27.082046508789062 10.810519218444824 27.21811866760254 10.763574600219727 27.35419273376465 10.716629028320312 L27.35419273376465 10.716629028320312 C27.353246688842773 10.444792747497559 27.14655876159668 10.268101692199707 27.131864547729492 10.629383087158203 L27.131864547729492 10.629383087158203 C27.00365447998047 10.629383087158203 26.875446319580078 10.629383087158203 26.747236251831055 10.629383087158203 L26.747236251831055 10.629383087158203 C26.770645141601562 10.488028526306152 26.794055938720703 10.346674919128418 26.81746482849121 10.205320358276367 L26.81746482849121 10.205320358276367"></path></svg>