<svg xmlns="http://www.w3.org/2000/svg" viewBox="0.0 0.0 24.0 24.0" height="200px" width="200px"><path fill="none" stroke="black" stroke-width=".3" stroke-opacity="1.0"  filling="0" d="M8.367109298706055 11.672645568847656 L8.367109298706055 11.672645568847656 C8.610006332397461 11.672895431518555 8.952879905700684 11.824759483337402 8.594862937927246 12.033763885498047 L8.594862937927246 12.033763885498047 C8.667935371398926 12.122200012207031 8.741008758544922 12.210636138916016 8.814081192016602 12.299072265625 L8.814081192016602 12.299072265625 C8.677921295166016 12.322689056396484 8.5602445602417 12.170555114746094 8.47303581237793 12.0633544921875 L8.47303581237793 12.0633544921875 C8.438026428222656 12.161136627197266 8.4030179977417 12.258917808532715 8.368008613586426 12.35669994354248 L8.368008613586426 12.35669994354248 C8.367709159851074 12.128682136535645 8.367408752441406 11.900663375854492 8.367109298706055 11.672645568847656 L8.367109298706055 11.672645568847656"></path>
<path fill="none" stroke="black" stroke-width=".3" stroke-opacity="1.0"  filling="0" d="M8.458500862121582 11.746037483215332 L8.458500862121582 11.746037483215332 C8.526662826538086 11.776264190673828 8.517609596252441 11.924275398254395 8.458500862121582 11.969727516174316 L8.458500862121582 11.969727516174316 C8.458500862121582 11.895164489746094 8.458500862121582 11.820600509643555 8.458500862121582 11.746037483215332 L8.458500862121582 11.746037483215332"></path></svg>