<svg xmlns="http://www.w3.org/2000/svg" viewBox="0.0 0.0 24.0 24.0" height="200px" width="200px"><path fill="none" stroke="black" stroke-width=".3" stroke-opacity="1.0"  filling="0" d="M11.38974666595459 11.682409286499023 L11.38974666595459 11.682409286499023 C11.47510051727295 11.69650936126709 11.560455322265625 11.710609436035156 11.645809173583984 11.724709510803223 L11.645809173583984 11.724709510803223 C11.63070011138916 11.75524616241455 11.615591049194336 11.785781860351562 11.600481986999512 11.81631851196289 L11.600481986999512 11.81631851196289 C11.561681747436523 11.785991668701172 11.522882461547852 11.755663871765137 11.484082221984863 11.725337028503418 L11.484082221984863 11.725337028503418 C11.448054313659668 11.746118545532227 11.412027359008789 11.766901016235352 11.375999450683594 11.78768253326416 L11.375999450683594 11.78768253326416 C11.752427101135254 12.234193801879883 11.3707914352417 12.538846969604492 11.259708404541016 12.229336738586426 L11.259708404541016 12.229336738586426 C11.269135475158691 12.222382545471191 11.278562545776367 12.21542739868164 11.287989616394043 12.208473205566406 L11.287989616394043 12.208473205566406 C11.336734771728516 12.239609718322754 11.385480880737305 12.270745277404785 11.434226036071777 12.301881790161133 L11.434226036071777 12.301881790161133 C11.6845703125 12.1953706741333 11.16252613067627 11.951395988464355 11.38974666595459 11.682409286499023 L11.38974666595459 11.682409286499023"></path></svg>