<svg xmlns="http://www.w3.org/2000/svg" viewBox="0.0 0.0 24.0 24.0" height="200px" width="200px"><path fill="none" stroke="black" stroke-width=".3" stroke-opacity="1.0"  filling="0" d="M9.650426864624023 11.670327186584473 L9.650426864624023 11.670327186584473 C9.650426864624023 11.759954452514648 9.650426864624023 11.849581718444824 9.650426864624023 11.939208984375 L9.650426864624023 11.939208984375 C9.764744758605957 11.849863052368164 9.879063606262207 11.760518074035645 9.99338150024414 11.671172142028809 L9.99338150024414 11.671172142028809 C10.001608848571777 11.68045425415039 10.009835243225098 11.689735412597656 10.018062591552734 11.699017524719238 L10.018062591552734 11.699017524719238 C9.930071830749512 11.790390968322754 9.842082023620605 11.881763458251953 9.754091262817383 11.973136901855469 L9.754091262817383 11.973136901855469 C9.847972869873047 12.081364631652832 9.941854476928711 12.189591407775879 10.035736083984375 12.297819137573242 L10.035736083984375 12.297819137573242 C9.88894271850586 12.322982788085938 9.764564514160156 12.158650398254395 9.665945053100586 12.047045707702637 L9.665945053100586 12.047045707702637 C9.641972541809082 12.156754493713379 9.618000030517578 12.266464233398438 9.594027519226074 12.37617301940918 L9.594027519226074 12.37617301940918 C9.513532638549805 12.160074234008789 9.546304702758789 11.916665077209473 9.545536994934082 11.686062812805176 L9.545536994934082 11.686062812805176 C9.580500602722168 11.680817604064941 9.615463256835938 11.675572395324707 9.650426864624023 11.670327186584473 L9.650426864624023 11.670327186584473"></path></svg>