<svg xmlns="http://www.w3.org/2000/svg" viewBox="0.0 0.0 24.0 24.0" height="200px" width="200px"><path fill="none" stroke="black" stroke-width=".3" stroke-opacity="1.0"  filling="0" d="M11.146500587463379 11.700163841247559 L11.146500587463379 11.700163841247559 C11.146500587463379 11.784381866455078 11.146500587463379 11.868600845336914 11.146500587463379 11.952818870544434 L11.146500587463379 11.952818870544434 C11.154709815979004 11.957382202148438 11.162919044494629 11.961946487426758 11.171128273010254 11.966509819030762 L11.171128273010254 11.966509819030762 C11.275639533996582 11.865666389465332 11.394338607788086 11.778493881225586 11.519564628601074 11.704936981201172 L11.519564628601074 11.704936981201172 C11.432991981506348 11.801582336425781 11.346418380737305 11.898228645324707 11.259845733642578 11.994874000549316 L11.259845733642578 11.994874000549316 C11.358536720275879 12.114901542663574 11.45722770690918 12.234928131103516 11.55591869354248 12.354955673217773 L11.55591869354248 12.354955673217773 C11.400733947753906 12.30204963684082 11.269806861877441 12.179975509643555 11.17020034790039 12.049745559692383 L11.17020034790039 12.049745559692383 C11.150827407836914 12.160436630249023 11.131454467773438 12.271126747131348 11.112081527709961 12.381817817687988 L11.112081527709961 12.381817817687988 C11.09939956665039 12.381490707397461 11.086718559265137 12.381162643432617 11.074036598205566 12.38083553314209 L11.074036598205566 12.38083553314209 C11.0525541305542 12.062777519226074 10.98974895477295 11.947371482849121 11.146500587463379 11.700163841247559 L11.146500587463379 11.700163841247559"></path></svg>