<svg xmlns="http://www.w3.org/2000/svg" viewBox="0.0 0.0 24.0 24.0" height="200px" width="200px"><path fill="none" stroke="black" stroke-width=".3" stroke-opacity="1.0"  filling="0" d="M11.731446266174316 11.716063499450684 L11.731446266174316 11.716063499450684 C11.82539176940918 11.948254585266113 11.919336318969727 12.180444717407227 12.01328182220459 12.412635803222656 L12.01328182220459 12.412635803222656 C11.934309005737305 12.323999404907227 11.85533618927002 12.235363960266113 11.776363372802734 12.146727561950684 L11.776363372802734 12.146727561950684 C11.651280403137207 12.220154762268066 11.520268440246582 12.302050590515137 11.440173149108887 12.422972679138184 L11.440173149108887 12.422972679138184 C11.319972038269043 12.169417381286621 11.50145435333252 11.856966972351074 11.731446266174316 11.716063499450684 L11.731446266174316 11.716063499450684"></path>
<path fill="none" stroke="black" stroke-width=".3" stroke-opacity="1.0"  filling="0" d="M11.684209823608398 11.891890525817871 L11.684209823608398 11.891890525817871 C11.710328102111816 11.94290828704834 11.736445426940918 11.993927001953125 11.762563705444336 12.044944763183594 L11.762563705444336 12.044944763183594 C11.715709686279297 12.048563003540039 11.668854713439941 12.052181243896484 11.622000694274902 12.05579948425293 L11.622000694274902 12.05579948425293 C11.64273738861084 12.001163482666016 11.663473129272461 11.946526527404785 11.684209823608398 11.891890525817871 L11.684209823608398 11.891890525817871"></path></svg>