<svg xmlns="http://www.w3.org/2000/svg" viewBox="0.0 0.0 24.0 24.0" height="200px" width="200px"><path fill="none" stroke="black" stroke-width=".3" stroke-opacity="1.0"  filling="0" d="M9.651954650878906 11.704582214355469 L9.651954650878906 11.704582214355469 C9.794918060302734 11.724672317504883 10.069927215576172 12.005197525024414 9.929182052612305 12.037336349487305 L9.929182052612305 12.037336349487305 C9.991291046142578 12.150009155273438 10.053400039672852 12.26268196105957 10.115509033203125 12.375354766845703 L10.115509033203125 12.375354766845703 C9.978981018066406 12.292222023010254 9.862835884094238 12.172873497009277 9.770208358764648 12.042600631713867 L9.770208358764648 12.042600631713867 C9.770208358764648 12.142309188842773 9.770208358764648 12.242018699645996 9.770208358764648 12.341727256774902 L9.770208358764648 12.341727256774902 C9.730790138244629 12.345072746276855 9.691372871398926 12.348419189453125 9.651954650878906 12.351764678955078 L9.651954650878906 12.351764678955078 C9.651954650878906 12.13603687286377 9.651954650878906 11.920310020446777 9.651954650878906 11.704582214355469 L9.651954650878906 11.704582214355469"></path>
<path fill="none" stroke="black" stroke-width=".3" stroke-opacity="1.0"  filling="0" d="M9.773972511291504 11.764253616333008 L9.773972511291504 11.764253616333008 C9.843989372253418 11.797627449035645 9.8340425491333 11.9478759765625 9.773972511291504 11.99694538116455 L9.773972511291504 11.99694538116455 C9.773972511291504 11.919381141662598 9.773972511291504 11.841817855834961 9.773972511291504 11.764253616333008 L9.773972511291504 11.764253616333008"></path></svg>