<svg xmlns="http://www.w3.org/2000/svg" viewBox="0.0 0.0 24.0 24.0" height="200px" width="200px"><path fill="none" stroke="black" stroke-width=".3" stroke-opacity="1.0"  filling="0" d="M12.919609069824219 11.716718673706055 L12.919609069824219 11.716718673706055 C12.93760871887207 11.8023099899292 12.955609321594238 11.887900352478027 12.97360897064209 11.973491668701172 L12.97360897064209 11.973491668701172 C13.080072402954102 11.891610145568848 13.18653678894043 11.809727668762207 13.293000221252441 11.727846145629883 L13.293000221252441 11.727846145629883 C13.301118850708008 11.737537384033203 13.309236526489258 11.747227668762207 13.317355155944824 11.756918907165527 L13.317355155944824 11.756918907165527 C13.2236909866333 11.831236839294434 13.130027770996094 11.905555725097656 13.03636360168457 11.979873657226562 L13.03636360168457 11.979873657226562 C13.14120864868164 12.109864234924316 13.246054649353027 12.239855766296387 13.350899696350098 12.36984634399414 L13.350899696350098 12.36984634399414 C13.309508323669434 12.374464988708496 13.268117904663086 12.379082679748535 13.226726531982422 12.38370132446289 L13.226726531982422 12.38370132446289 C13.141180992126465 12.282773971557617 13.055635452270508 12.181846618652344 12.97008991241455 12.08091926574707 L12.97008991241455 12.08091926574707 C12.963045120239258 12.177600860595703 12.955999374389648 12.274283409118652 12.948954582214355 12.370965003967285 L12.948954582214355 12.370965003967285 C12.920317649841309 12.374528884887695 12.891681671142578 12.378091812133789 12.863044738769531 12.3816556930542 L12.863044738769531 12.3816556930542 C12.8818998336792 12.16001033782959 12.90075397491455 11.938364028930664 12.919609069824219 11.716718673706055 L12.919609069824219 11.716718673706055"></path></svg>