<svg xmlns="http://www.w3.org/2000/svg" viewBox="0.0 0.0 24.0 24.0" height="200px" width="200px"><path fill="none" stroke="black" stroke-width=".3" stroke-opacity="1.0"  filling="0" d="M17.370981216430664 11.704936981201172 L17.370981216430664 11.704936981201172 C17.515926361083984 11.854928016662598 17.660871505737305 12.004918098449707 17.805816650390625 12.154909133911133 L17.805816650390625 12.154909133911133 C17.805816650390625 12.016918182373047 17.805816650390625 11.878927230834961 17.805816650390625 11.740936279296875 L17.805816650390625 11.740936279296875 C17.839271545410156 11.735899925231934 17.872726440429688 11.730863571166992 17.90618133544922 11.72582721710205 L17.90618133544922 11.72582721710205 C17.90618133544922 11.941645622253418 17.90618133544922 12.157463073730469 17.90618133544922 12.373281478881836 L17.90618133544922 12.373281478881836 C17.694854736328125 12.311907768249512 17.56968879699707 12.086668014526367 17.42716407775879 11.919000625610352 L17.42716407775879 11.919000625610352 C17.42716407775879 12.071200370788574 17.42716407775879 12.223401069641113 17.42716407775879 12.375600814819336 L17.42716407775879 12.375600814819336 C17.24771499633789 12.19097900390625 17.347583770751953 11.95881462097168 17.370981216430664 11.704936981201172 L17.370981216430664 11.704936981201172"></path></svg>