<svg xmlns="http://www.w3.org/2000/svg" viewBox="0.0 0.0 24.0 24.0" height="200px" width="200px"><path fill="none" stroke="black" stroke-width=".3" stroke-opacity="1.0"  filling="0" d="M15.093708992004395 11.734145164489746 L15.093708992004395 11.734145164489746 C15.219754219055176 11.734145164489746 15.345800399780273 11.734145164489746 15.471845626831055 11.734145164489746 L15.471845626831055 11.734145164489746 C15.389691352844238 11.762517929077148 15.307536125183105 11.79089069366455 15.225381851196289 11.819263458251953 L15.225381851196289 11.819263458251953 C15.225381851196289 11.873808860778809 15.225381851196289 11.92835521697998 15.225381851196289 11.982900619506836 L15.225381851196289 11.982900619506836 C15.300227165222168 12.013545989990234 15.375072479248047 12.044191360473633 15.449917793273926 12.074836730957031 L15.449917793273926 12.074836730957031 C15.373353958129883 12.078972816467285 15.296791076660156 12.083108901977539 15.220227241516113 12.087244987487793 L15.220227241516113 12.087244987487793 C15.220227241516113 12.181190490722656 15.220227241516113 12.275136947631836 15.220227241516113 12.3690824508667 L15.220227241516113 12.3690824508667 C14.9971342086792 12.195813179016113 15.086525917053223 12.0314359664917 15.093708992004395 11.734145164489746 L15.093708992004395 11.734145164489746"></path></svg>