<svg xmlns="http://www.w3.org/2000/svg" viewBox="0.0 0.0 24.0 24.0" height="200px" width="200px"><path fill="none" stroke="black" stroke-width=".3" stroke-opacity="1.0"  filling="0" d="M12.650100708007812 11.6647367477417 L12.650100708007812 11.6647367477417 C12.676153182983398 11.694297790527344 12.677266120910645 11.740289688110352 12.67764663696289 11.779690742492676 L12.67764663696289 11.779690742492676 C12.606965065002441 11.775745391845703 12.536282539367676 11.77180004119873 12.465600967407227 11.767854690551758 L12.465600967407227 11.767854690551758 C12.457082748413086 11.822572708129883 12.448563575744629 11.877290725708008 12.440045356750488 11.932008743286133 L12.440045356750488 11.932008743286133 C12.515481948852539 11.969799995422363 12.59091854095459 12.00759220123291 12.66635513305664 12.04538345336914 L12.66635513305664 12.04538345336914 C12.593381881713867 12.04538345336914 12.52040958404541 12.04538345336914 12.447436332702637 12.04538345336914 L12.447436332702637 12.04538345336914 C12.442854881286621 12.119047164916992 12.438272476196289 12.192709922790527 12.433691024780273 12.266373634338379 L12.433691024780273 12.266373634338379 C12.512772560119629 12.270064353942871 12.5918550491333 12.273755073547363 12.670936584472656 12.277445793151855 L12.670936584472656 12.277445793151855 C12.567109107971191 12.298355102539062 12.463282585144043 12.319263458251953 12.359455108642578 12.34017276763916 L12.359455108642578 12.34017276763916 C12.281415939331055 12.143892288208008 12.329015731811523 11.918478965759277 12.328500747680664 11.707254409790039 L12.328500747680664 11.707254409790039 C12.435700416564941 11.693081855773926 12.542901039123535 11.678909301757812 12.650100708007812 11.6647367477417 L12.650100708007812 11.6647367477417"></path></svg>