<svg xmlns="http://www.w3.org/2000/svg" viewBox="0.0 0.0 24.0 24.0" height="200px" width="200px"><path fill="none" stroke="black" stroke-width=".3" stroke-opacity="1.0"  filling="0" d="M16.090036392211914 11.700545310974121 L16.090036392211914 11.700545310974121 C16.18631935119629 11.700563430786133 16.28260040283203 11.700582504272461 16.378883361816406 11.700600624084473 L16.378883361816406 11.700600624084473 C16.305519104003906 11.731100082397461 16.23215675354004 11.761600494384766 16.15879249572754 11.792099952697754 L16.15879249572754 11.792099952697754 C16.145200729370117 11.843036651611328 16.131610870361328 11.893973350524902 16.118019104003906 11.944910049438477 L16.118019104003906 11.944910049438477 C16.203418731689453 11.977418899536133 16.288818359375 12.009927749633789 16.374217987060547 12.042436599731445 L16.374217987060547 12.042436599731445 C16.296199798583984 12.050618171691895 16.218183517456055 12.058799743652344 16.140165328979492 12.066981315612793 L16.140165328979492 12.066981315612793 C16.13663673400879 12.134045600891113 16.13311004638672 12.201108932495117 16.129581451416016 12.268173217773438 L16.129581451416016 12.268173217773438 C16.218236923217773 12.295409202575684 16.30689239501953 12.322646141052246 16.39554786682129 12.349882125854492 L16.39554786682129 12.349882125854492 C16.266782760620117 12.349882125854492 16.138019561767578 12.349882125854492 16.009254455566406 12.349882125854492 L16.009254455566406 12.349882125854492 C16.00922393798828 12.131768226623535 15.939937591552734 11.858798027038574 16.090036392211914 11.700545310974121 L16.090036392211914 11.700545310974121"></path></svg>