<svg xmlns="http://www.w3.org/2000/svg" viewBox="0.0 0.0 24.0 24.0" height="200px" width="200px"><path fill="none" stroke="black" stroke-width=".3" stroke-opacity="1.0"  filling="0" d="M10.75679874420166 11.68123722076416 L10.75679874420166 11.68123722076416 C10.859771728515625 11.714364051818848 10.96274471282959 11.747491836547852 11.065717697143555 11.780618667602539 L11.065717697143555 11.780618667602539 C10.988101959228516 11.779935836791992 10.909860610961914 11.770293235778809 10.834827423095703 11.750428199768066 L10.834827423095703 11.750428199768066 C10.834827423095703 11.809082984924316 10.834827423095703 11.86773681640625 10.834827423095703 11.9263916015625 L10.834827423095703 11.9263916015625 C10.909354209899902 11.95780086517334 10.983880996704102 11.989209175109863 11.0584077835083 12.020618438720703 L11.0584077835083 12.020618438720703 C10.98414421081543 12.024354934692383 10.909880638122559 12.028091430664062 10.835617065429688 12.031827926635742 L10.835617065429688 12.031827926635742 C10.835617065429688 12.110182762145996 10.835617065429688 12.188536643981934 10.835617065429688 12.266891479492188 L10.835617065429688 12.266891479492188 C10.9222993850708 12.271390914916992 11.008980751037598 12.275891304016113 11.095663070678711 12.280390739440918 L11.095663070678711 12.280390739440918 C10.726181983947754 12.67331600189209 10.631983757019043 11.921446800231934 10.75679874420166 11.68123722076416 L10.75679874420166 11.68123722076416"></path></svg>