<svg xmlns="http://www.w3.org/2000/svg" viewBox="0.0 0.0 24.0 24.0" height="200px" width="200px"><path fill="none" stroke="black" stroke-width=".3" stroke-opacity="1.0"  filling="0" d="M6.474627494812012 11.699892044067383 L6.474627494812012 11.699892044067383 C6.485936641693115 11.699974060058594 6.4972453117370605 11.700055122375488 6.508554458618164 11.7001371383667 L6.508554458618164 11.7001371383667 C6.6057634353637695 11.920673370361328 6.702972888946533 12.141209602355957 6.800181865692139 12.361745834350586 L6.800181865692139 12.361745834350586 C6.644579887390137 12.316521644592285 6.5550007820129395 12.134788513183594 6.388990879058838 12.136391639709473 L6.388990879058838 12.136391639709473 C6.318582057952881 12.220128059387207 6.248172760009766 12.303864479064941 6.177763938903809 12.387600898742676 L6.177763938903809 12.387600898742676 C6.276718616485596 12.158364295959473 6.375672817230225 11.929128646850586 6.474627494812012 11.699892044067383 L6.474627494812012 11.699892044067383"></path>
<path fill="none" stroke="black" stroke-width=".3" stroke-opacity="1.0"  filling="0" d="M6.474272727966309 11.896336555480957 L6.474272727966309 11.896336555480957 C6.501791000366211 11.94719123840332 6.529308795928955 11.998045921325684 6.556827068328857 12.048900604248047 L6.556827068328857 12.048900604248047 C6.505890846252441 12.048900604248047 6.454954624176025 12.048900604248047 6.404018402099609 12.048900604248047 L6.404018402099609 12.048900604248047 C6.427436351776123 11.998045921325684 6.450854778289795 11.94719123840332 6.474272727966309 11.896336555480957 L6.474272727966309 11.896336555480957"></path></svg>