<svg xmlns="http://www.w3.org/2000/svg" viewBox="0.0 0.0 24.0 24.0" height="200px" width="200px"><path fill="none" stroke="black" stroke-width=".3" stroke-opacity="1.0"  filling="0" d="M11.568000793457031 11.659500122070312 L11.568000793457031 11.659500122070312 C11.734784126281738 11.812101364135742 11.894464492797852 11.972744941711426 12.047126770019531 12.139472961425781 L12.047126770019531 12.139472961425781 C12.047126770019531 11.981781959533691 12.047126770019531 11.824090957641602 12.047126770019531 11.666399955749512 L12.047126770019531 11.666399955749512 C12.172261238098145 11.853949546813965 12.099169731140137 12.118382453918457 12.072818756103516 12.342299461364746 L12.072818756103516 12.342299461364746 C11.931209564208984 12.18639087677002 11.789600372314453 12.030481338500977 11.647991180419922 11.87457275390625 L11.647991180419922 11.87457275390625 C11.647991180419922 12.031790733337402 11.647991180419922 12.189009666442871 11.647991180419922 12.346227645874023 L11.647991180419922 12.346227645874023 C11.62132740020752 12.336437225341797 11.594664573669434 12.326645851135254 11.568000793457031 12.316855430603027 L11.568000793457031 12.316855430603027 C11.568000793457031 12.097737312316895 11.568000793457031 11.878618240356445 11.568000793457031 11.659500122070312 L11.568000793457031 11.659500122070312"></path></svg>