<svg xmlns="http://www.w3.org/2000/svg" viewBox="0.0 0.0 24.0 24.0" height="200px" width="200px"><path fill="none" stroke="black" stroke-width=".3" stroke-opacity="1.0"  filling="0" d="M10.157672882080078 11.689554214477539 L10.157672882080078 11.689554214477539 C10.168927192687988 11.694135665893555 10.180182456970215 11.698718070983887 10.191436767578125 11.703299522399902 L10.191436767578125 11.703299522399902 C10.191436767578125 11.787445068359375 10.191436767578125 11.871590614318848 10.191436767578125 11.95573616027832 L10.191436767578125 11.95573616027832 C10.319463729858398 11.957954406738281 10.447491645812988 11.960171699523926 10.575518608093262 11.962389945983887 L10.575518608093262 11.962389945983887 C10.568297386169434 11.870012283325195 10.565899848937988 11.756308555603027 10.63052749633789 11.689908027648926 L10.63052749633789 11.689908027648926 C10.638545989990234 11.694808006286621 10.646563529968262 11.699708938598633 10.654582023620605 11.704608917236328 L10.654582023620605 11.704608917236328 C10.654582023620605 11.92774486541748 10.654582023620605 12.15088176727295 10.654582023620605 12.374017715454102 L10.654582023620605 12.374017715454102 C10.622663497924805 12.376190185546875 10.59074592590332 12.378363609313965 10.55882740020752 12.380536079406738 L10.55882740020752 12.380536079406738 C10.568254470825195 12.27667236328125 10.577682495117188 12.172809600830078 10.587109565734863 12.06894588470459 L10.587109565734863 12.06894588470459 C10.423136711120605 12.06207275390625 10.199993133544922 12.209300994873047 10.200190544128418 12.373417854309082 L10.200190544128418 12.373417854309082 C9.971477508544922 12.213117599487305 10.004093170166016 11.909001350402832 10.157672882080078 11.689554214477539 L10.157672882080078 11.689554214477539"></path></svg>