<svg xmlns="http://www.w3.org/2000/svg" viewBox="0.0 0.0 24.0 24.0" height="200px" width="200px"><path fill="none" stroke="black" stroke-width=".3" stroke-opacity="1.0"  filling="0" d="M8.27023696899414 11.693645477294922 L8.27023696899414 11.693645477294922 C8.388728141784668 11.704835891723633 8.507218360900879 11.71602725982666 8.625709533691406 11.727217674255371 L8.625709533691406 11.727217674255371 C8.594982147216797 11.845945358276367 8.564254760742188 11.964672088623047 8.533527374267578 12.083399772644043 L8.533527374267578 12.083399772644043 C8.609217643737793 12.176972389221191 8.684908866882324 12.270545959472656 8.760599136352539 12.364118576049805 L8.760599136352539 12.364118576049805 C8.611823081970215 12.323541641235352 8.485174179077148 12.208510398864746 8.390046119689941 12.087136268615723 L8.390046119689941 12.087136268615723 C8.384600639343262 12.182700157165527 8.379154205322266 12.278263092041016 8.373708724975586 12.37382698059082 L8.373708724975586 12.37382698059082 C8.339218139648438 12.37382698059082 8.304727554321289 12.37382698059082 8.27023696899414 12.37382698059082 L8.27023696899414 12.37382698059082 C8.27023696899414 12.147099494934082 8.27023696899414 11.92037296295166 8.27023696899414 11.693645477294922 L8.27023696899414 11.693645477294922"></path>
<path fill="none" stroke="black" stroke-width=".3" stroke-opacity="1.0"  filling="0" d="M8.454899787902832 11.783452987670898 L8.454899787902832 11.783452987670898 C8.516980171203613 11.824738502502441 8.447901725769043 11.957079887390137 8.384073257446289 11.995609283447266 L8.384073257446289 11.995609283447266 C8.407682418823242 11.924890518188477 8.431290626525879 11.854171752929688 8.454899787902832 11.783452987670898 L8.454899787902832 11.783452987670898"></path></svg>