<svg xmlns="http://www.w3.org/2000/svg" viewBox="0.0 0.0 24.0 24.0" height="200px" width="200px"><path fill="none" stroke="black" stroke-width=".3" stroke-opacity="1.0"  filling="0" d="M17.804536819458008 10.636581420898438 L17.804536819458008 10.636581420898438 C17.9058780670166 10.730693817138672 17.890602111816406 10.904151916503906 17.890636444091797 11.04245376586914 L17.890636444091797 11.04245376586914 C17.747716903686523 11.04245376586914 17.604799270629883 11.04245376586914 17.46187973022461 11.04245376586914 L17.46187973022461 11.04245376586914 C17.46187973022461 11.223099708557129 17.46187973022461 11.4037446975708 17.46187973022461 11.584390640258789 L17.46187973022461 11.584390640258789 C17.6036434173584 11.584390640258789 17.745407104492188 11.584390640258789 17.887170791625977 11.584390640258789 L17.887170791625977 11.584390640258789 C17.879270553588867 11.719226837158203 17.87137222290039 11.854063034057617 17.86347198486328 11.988899230957031 L17.86347198486328 11.988899230957031 C17.727916717529297 11.988899230957031 17.592363357543945 11.988899230957031 17.45680809020996 11.988899230957031 L17.45680809020996 11.988899230957031 C17.45680809020996 12.401690483093262 17.456809997558594 12.814480781555176 17.456809997558594 13.227272033691406 L17.456809997558594 13.227272033691406 C16.301795959472656 13.226515769958496 16.9931697845459 11.473634719848633 16.899709701538086 10.657500267028809 L16.899709701538086 10.657500267028809 C17.201730728149414 10.657998085021973 17.502408981323242 10.63869857788086 17.804536819458008 10.636581420898438 L17.804536819458008 10.636581420898438"></path></svg>