<svg xmlns="http://www.w3.org/2000/svg" viewBox="0.0 0.0 24.0 24.0" height="200px" width="200px"><path fill="none" stroke="black" stroke-width=".3" stroke-opacity="1.0"  filling="0" d="M11.253190994262695 10.640153884887695 L11.253190994262695 10.640153884887695 C11.925314903259277 10.703873634338379 12.35790729522705 11.620211601257324 11.438697814941406 11.618400573730469 L11.438697814941406 11.618400573730469 C11.412388801574707 11.416836738586426 11.386079788208008 11.215272903442383 11.359770774841309 11.01370906829834 L11.359770774841309 11.01370906829834 C10.946521759033203 11.625666618347168 12.708362579345703 12.543024063110352 11.766952514648438 13.204500198364258 C10.977113723754883 13.759475708007812 10.722899436950684 12.881921768188477 10.718289375305176 12.31036376953125 L10.718289375305176 12.31036376953125 C10.901543617248535 12.305100440979004 11.084797859191895 12.299836158752441 11.268052101135254 12.294572830200195 L11.268052101135254 12.294572830200195 C11.267069816589355 12.511923789978027 11.248806953430176 12.736467361450195 11.308878898620605 12.945354461669922 L11.308878898620605 12.945354461669922 C11.322924613952637 12.94550895690918 11.336970329284668 12.945663452148438 11.3510160446167 12.945817947387695 L11.3510160446167 12.945817947387695 C11.646513938903809 11.936121940612793 9.954916954040527 11.502214431762695 11.253190994262695 10.640153884887695 L11.253190994262695 10.640153884887695"></path></svg>