<svg xmlns="http://www.w3.org/2000/svg" viewBox="0.0 0.0 24.0 24.0" height="200px" width="200px"><path fill="none" stroke="black" stroke-width=".3" stroke-opacity="1.0"  filling="0" d="M13.296273231506348 11.70103645324707 L13.296273231506348 11.70103645324707 C13.445379257202148 11.850539207458496 13.588768005371094 12.005882263183594 13.727128028869629 12.165382385253906 L13.727128028869629 12.165382385253906 C13.757428169250488 12.012964248657227 13.787728309631348 11.860546112060547 13.818028450012207 11.708127975463867 L13.818028450012207 11.708127975463867 C13.818028450012207 11.930318832397461 13.818028450012207 12.152509689331055 13.818028450012207 12.374700546264648 L13.818028450012207 12.374700546264648 C13.809019088745117 12.380318641662598 13.800010681152344 12.385937690734863 13.791001319885254 12.391555786132812 L13.791001319885254 12.391555786132812 C13.640228271484375 12.227828025817871 13.48945426940918 12.064099311828613 13.3386812210083 11.900371551513672 L13.3386812210083 11.900371551513672 C13.3386812210083 12.066335678100586 13.3386812210083 12.2322998046875 13.3386812210083 12.398263931274414 L13.3386812210083 12.398263931274414 C13.143699645996094 12.279279708862305 13.257250785827637 11.946440696716309 13.25590991973877 11.718026161193848 L13.25590991973877 11.718026161193848 C13.269364356994629 11.712363243103027 13.282818794250488 11.70669937133789 13.296273231506348 11.70103645324707 L13.296273231506348 11.70103645324707"></path></svg>