<svg xmlns="http://www.w3.org/2000/svg" viewBox="0.0 0.0 24.0 24.0" height="200px" width="200px"><path fill="none" stroke="black" stroke-width=".3" stroke-opacity="1.0"  filling="0" d="M11.194663047790527 11.700328826904297 L11.194663047790527 11.700328826904297 C11.289090156555176 11.714455604553223 11.383517265319824 11.728583335876465 11.477944374084473 11.74271011352539 L11.477944374084473 11.74271011352539 C11.478708267211914 11.756609916687012 11.479472160339355 11.770508766174316 11.480236053466797 11.784408569335938 L11.480236053466797 11.784408569335938 C11.267563819885254 11.800443649291992 11.227262496948242 11.751835823059082 11.225508689880371 11.995527267456055 L11.225508689880371 11.995527267456055 C11.305490493774414 12.011691093444824 11.385472297668457 12.027853965759277 11.4654541015625 12.044017791748047 L11.4654541015625 12.044017791748047 C11.38309097290039 12.054354667663574 11.300726890563965 12.064690589904785 11.218363761901855 12.075027465820312 L11.218363761901855 12.075027465820312 C11.218363761901855 12.150672912597656 11.218363761901855 12.226319313049316 11.218363761901855 12.30196475982666 L11.218363761901855 12.30196475982666 C11.30502700805664 12.30196475982666 11.391690254211426 12.30196475982666 11.478353500366211 12.30196475982666 L11.478353500366211 12.30196475982666 C11.48112678527832 12.314282417297363 11.483899116516113 12.326601028442383 11.486672401428223 12.338918685913086 L11.486672401428223 12.338918685913086 C11.119733810424805 12.519816398620605 10.993745803833008 11.909146308898926 11.194663047790527 11.700328826904297 L11.194663047790527 11.700328826904297"></path></svg>