<svg xmlns="http://www.w3.org/2000/svg" viewBox="0.0 0.0 24.0 24.0" height="200px" width="200px"><path fill="none" stroke="black" stroke-width=".3" stroke-opacity="1.0"  filling="0" d="M12.840954780578613 10.583864212036133 L12.840954780578613 10.583864212036133 C13.480754852294922 10.649100303649902 13.467329978942871 10.968113899230957 13.511754989624023 11.557064056396484 L13.511754989624023 11.557064056396484 C13.337900161743164 11.557064056396484 13.164045333862305 11.557064056396484 12.990190505981445 11.557064056396484 L12.990190505981445 11.557064056396484 C12.990190505981445 11.380182266235352 12.990190505981445 11.203300476074219 12.990190505981445 11.026418685913086 L12.990190505981445 11.026418685913086 C12.41364860534668 10.942360877990723 12.687435150146484 12.34397029876709 12.88028335571289 12.876791000366211 L12.88028335571289 12.876791000366211 C12.999672889709473 12.689946174621582 12.982733726501465 12.441139221191406 12.981927871704102 12.219408988952637 L12.981927871704102 12.219408988952637 C14.02230167388916 12.22662353515625 13.487330436706543 13.530040740966797 12.496745109558105 13.192827224731445 C11.818989753723145 12.962106704711914 12.085847854614258 10.852129936218262 12.840954780578613 10.583864212036133 L12.840954780578613 10.583864212036133"></path></svg>