<svg xmlns="http://www.w3.org/2000/svg" viewBox="0.0 0.0 24.0 24.0" height="200px" width="200px"><path fill="none" stroke="black" stroke-width=".3" stroke-opacity="1.0"  filling="0" d="M9.458100318908691 11.71630859375 L9.458100318908691 11.71630859375 C9.381721496582031 11.802035331726074 9.312211990356445 11.893736839294434 9.24319076538086 11.985490798950195 L9.24319076538086 11.985490798950195 C9.30875015258789 11.977952003479004 9.376925468444824 11.984378814697266 9.440454483032227 12.002236366271973 L9.440454483032227 12.002236366271973 C9.337340354919434 12.057573318481445 9.223554611206055 12.161267280578613 9.223554611206055 12.278291702270508 L9.223554611206055 12.278291702270508 C9.310572624206543 12.30897331237793 9.397589683532715 12.339654922485352 9.484607696533203 12.370336532592773 L9.484607696533203 12.370336532592773 C9.362935066223145 12.370336532592773 9.241263389587402 12.370336532592773 9.119590759277344 12.370336532592773 L9.119590759277344 12.370336532592773 C9.119590759277344 12.152327537536621 9.119590759277344 11.934318542480469 9.119590759277344 11.716309547424316 L9.119590759277344 11.716309547424316 C9.232427597045898 11.716309547424316 9.345263481140137 11.71630859375 9.458100318908691 11.71630859375 L9.458100318908691 11.71630859375"></path></svg>