<svg xmlns="http://www.w3.org/2000/svg" viewBox="0.0 0.0 24.0 24.0" height="200px" width="200px"><path fill="none" stroke="black" stroke-width=".3" stroke-opacity="1.0"  filling="0" d="M10.296926498413086 10.691264152526855 L10.296926498413086 10.691264152526855 C11.548409461975098 10.692390441894531 11.117138862609863 12.250856399536133 11.018482208251953 13.264090538024902 L11.018482208251953 13.264090538024902 C10.096460342407227 13.485861778259277 10.594082832336426 12.304540634155273 10.507691383361816 11.696534156799316 L10.507691383361816 11.696534156799316 C10.196693420410156 13.752497673034668 10.033079147338867 13.607158660888672 9.522163391113281 11.767251014709473 L9.522163391113281 11.767251014709473 C9.511763572692871 11.768378257751465 9.501362800598145 11.769505500793457 9.490962982177734 11.77063274383545 L9.490962982177734 11.77063274383545 C9.489485740661621 12.274221420288086 9.490056037902832 12.77782154083252 9.492790222167969 13.281405448913574 L9.492790222167969 13.281405448913574 C8.487654685974121 13.2825927734375 8.998143196105957 11.333484649658203 9.059999465942383 10.70148754119873 L9.059999465942383 10.70148754119873 C9.314681053161621 10.70148754119873 9.56936264038086 10.70148754119873 9.824044227600098 10.70148754119873 L9.824044227600098 10.70148754119873 C9.89063549041748 11.23834228515625 9.957225799560547 11.77519702911377 10.02381706237793 12.312051773071289 L10.02381706237793 12.312051773071289 C10.113855361938477 11.771621704101562 10.204914093017578 11.231361389160156 10.296926498413086 10.691264152526855 L10.296926498413086 10.691264152526855"></path></svg>