<svg xmlns="http://www.w3.org/2000/svg" viewBox="0.0 0.0 24.0 24.0" height="200px" width="200px"><path fill="none" stroke="black" stroke-width=".3" stroke-opacity="1.0"  filling="0" d="M6.06051778793335 10.833845138549805 L6.06051778793335 10.833845138549805 C6.355679512023926 10.846508026123047 6.651148796081543 10.853716850280762 6.9465813636779785 10.854300498962402 L6.9465813636779785 10.854300498962402 C6.9465813636779785 10.980772972106934 6.9465813636779785 11.107244491577148 6.9465813636779785 11.23371696472168 L6.9465813636779785 11.23371696472168 C6.843008995056152 11.23371696472168 6.739436149597168 11.23371696472168 6.635863780975342 11.23371696472168 L6.635863780975342 11.23371696472168 C6.588620185852051 11.956768989562988 6.627654552459717 12.700440406799316 6.627272605895996 13.424345970153809 L6.627272605895996 13.424345970153809 C6.445745468139648 13.424345970153809 6.264217853546143 13.424345970153809 6.082690715789795 13.424345970153809 L6.082690715789795 13.424345970153809 C6.082690715789795 12.696227073669434 6.082690715789795 11.968109130859375 6.082690715789795 11.239990234375 L6.082690715789795 11.239990234375 C5.975754261016846 11.239990234375 5.8688178062438965 11.239990234375 5.761881351470947 11.239990234375 L5.761881351470947 11.239990234375 C5.761881351470947 11.117545127868652 5.761881351470947 10.995099067687988 5.761881351470947 10.87265396118164 L5.761881351470947 10.87265396118164 C5.861426830291748 10.85971736907959 5.960972309112549 10.846781730651855 6.06051778793335 10.833845138549805 L6.06051778793335 10.833845138549805"></path></svg>