<svg xmlns="http://www.w3.org/2000/svg" viewBox="0.0 0.0 24.0 24.0" height="200px" width="200px"><path fill="none" stroke="black" stroke-width=".3" stroke-opacity="1.0"  filling="0" d="M12.75627326965332 11.705917358398438 L12.75627326965332 11.705917358398438 C12.877955436706543 11.723699569702148 12.99963665008545 11.741480827331543 13.121318817138672 11.759263038635254 L13.121318817138672 11.759263038635254 C13.015530586242676 11.798079490661621 12.86739444732666 11.871065139770508 12.868555068969727 11.983744621276855 L12.868555068969727 11.983744621276855 C12.933143615722656 11.979628562927246 13.008061408996582 11.996366500854492 13.053682327270508 12.042271614074707 L13.053682327270508 12.042271614074707 C12.98784351348877 12.062291145324707 12.918805122375488 12.071016311645508 12.850337028503418 12.077917098999023 L12.850337028503418 12.077917098999023 C12.850337028503418 12.149298667907715 12.850337028503418 12.220680236816406 12.850337028503418 12.292061805725098 L12.850337028503418 12.292061805725098 C12.93034553527832 12.29724407196045 13.010354995727539 12.302425384521484 13.090363502502441 12.307607650756836 L13.090363502502441 12.307607650756836 C13.0741548538208 12.427644729614258 12.856036186218262 12.37744426727295 12.735081672668457 12.383890151977539 L12.735081672668457 12.383890151977539 C12.742145538330078 12.157898902893066 12.7492094039917 11.93190860748291 12.75627326965332 11.705917358398438 L12.75627326965332 11.705917358398438"></path></svg>