<svg xmlns="http://www.w3.org/2000/svg" viewBox="0.0 0.0 24.0 24.0" height="200px" width="200px"><path fill="none" stroke="black" stroke-width=".3" stroke-opacity="1.0"  filling="0" d="M18.468381881713867 10.639008522033691 L18.468381881713867 10.639008522033691 C18.77311897277832 10.646833419799805 19.077945709228516 10.652887344360352 19.382781982421875 10.653218269348145 L19.382781982421875 10.653218269348145 C19.382781982421875 10.782917976379395 19.382781982421875 10.912618637084961 19.382781982421875 11.042318344116211 L19.382781982421875 11.042318344116211 C19.275609970092773 11.042318344116211 19.16843605041504 11.042318344116211 19.061264038085938 11.042318344116211 L19.061264038085938 11.042318344116211 C19.061279296875 11.777000427246094 19.061288833618164 12.51168155670166 19.061290740966797 13.246363639831543 L19.061290740966797 13.246363639831543 C17.91899299621582 13.245327949523926 18.51810073852539 12.14670467376709 18.51810073852539 11.050199508666992 L18.51810073852539 11.050199508666992 C18.411701202392578 11.050199508666992 18.305301666259766 11.050199508666992 18.198902130126953 11.050199508666992 L18.198902130126953 11.050199508666992 C18.198902130126953 10.924581527709961 18.198902130126953 10.79896354675293 18.198902130126953 10.673345565795898 L18.198902130126953 10.673345565795898 C18.288728713989258 10.66189956665039 18.378555297851562 10.6504545211792 18.468381881713867 10.639008522033691 L18.468381881713867 10.639008522033691"></path></svg>