<svg xmlns="http://www.w3.org/2000/svg" viewBox="0.0 0.0 24.0 24.0" height="200px" width="200px"><path fill="none" stroke="black" stroke-width=".3" stroke-opacity="1.0"  filling="0" d="M10.145618438720703 11.084782600402832 L10.145618438720703 11.084782600402832 C10.713407516479492 11.544864654541016 11.183833122253418 12.29582405090332 11.60926342010498 12.891791343688965 L11.60926342010498 12.891791343688965 C10.736448287963867 12.994707107543945 10.733771324157715 12.413355827331543 9.768518447875977 12.568063735961914 C9.405394554138184 12.626264572143555 9.072550773620605 12.939348220825195 8.709845542907715 12.878592491149902 L8.709845542907715 12.878592491149902 C9.188434600830078 12.280653953552246 9.667025566101074 11.682717323303223 10.145618438720703 11.084782600402832 L10.145618438720703 11.084782600402832"></path>
<path fill="none" stroke="black" stroke-width=".3" stroke-opacity="1.0"  filling="0" d="M10.148235321044922 11.78219985961914 L10.148235321044922 11.78219985961914 C10.27509880065918 11.935072898864746 10.401963233947754 12.087944984436035 10.528826713562012 12.24081802368164 L10.528826713562012 12.24081802368164 C10.284745216369629 12.24081802368164 10.040663719177246 12.24081802368164 9.796582221984863 12.24081802368164 L9.796582221984863 12.24081802368164 C9.913800239562988 12.087944984436035 10.031017303466797 11.935072898864746 10.148235321044922 11.78219985961914 L10.148235321044922 11.78219985961914"></path></svg>