<svg xmlns="http://www.w3.org/2000/svg" viewBox="0.0 0.0 24.0 24.0" height="200px" width="200px"><path fill="none" stroke="black" stroke-width=".3" stroke-opacity="1.0"  filling="0" d="M2.5987091064453125 11.154600143432617 L2.5987091064453125 11.154600143432617 C3.109511375427246 11.154600143432617 5.485925674438477 11.490522384643555 4.025809288024902 12.182374000549316 L4.025809288024902 12.182374000549316 C4.267736434936523 12.410146713256836 4.5096635818481445 12.637918472290039 4.751590728759766 12.865691184997559 L4.751590728759766 12.865691184997559 C3.8578734397888184 13.070279121398926 3.8996875286102295 12.78662395477295 3.272672653198242 12.148418426513672 L3.272672653198242 12.148418426513672 C3.272672653198242 12.512531280517578 2.960329055786133 12.965521812438965 2.5987091064453125 13.008054733276367 L2.5987091064453125 13.008054733276367 C2.5987091064453125 12.390236854553223 2.5987091064453125 11.772418022155762 2.5987091064453125 11.154600143432617 L2.5987091064453125 11.154600143432617"></path>
<path fill="none" stroke="black" stroke-width=".3" stroke-opacity="1.0"  filling="0" d="M3.365372657775879 11.513235092163086 L3.365372657775879 11.513235092163086 C3.973717451095581 11.623019218444824 3.817950963973999 11.981790542602539 3.2728633880615234 12.049581527709961 L3.2728633880615234 12.049581527709961 C3.272939443588257 11.868159294128418 3.2288215160369873 11.632682800292969 3.365372657775879 11.513235092163086 L3.365372657775879 11.513235092163086"></path></svg>