<svg xmlns="http://www.w3.org/2000/svg" viewBox="0.0 0.0 24.0 24.0" height="200px" width="200px"><path fill="none" stroke="black" stroke-width=".3" stroke-opacity="1.0"  filling="0" d="M16.681690216064453 11.060999870300293 L16.681690216064453 11.060999870300293 C16.681690216064453 11.681290626525879 16.681690216064453 12.301582336425781 16.681690216064453 12.921873092651367 L16.681690216064453 12.921873092651367 C16.462635040283203 12.935236930847168 16.243581771850586 12.948599815368652 16.024526596069336 12.961963653564453 L16.024526596069336 12.961963653564453 C16.02077293395996 12.707218170166016 16.017017364501953 12.452472686767578 16.013263702392578 12.19772720336914 L16.013263702392578 12.19772720336914 C15.72164535522461 12.19772720336914 15.43002700805664 12.19772720336914 15.138408660888672 12.19772720336914 L15.138408660888672 12.19772720336914 C15.138408660888672 12.439845085144043 15.138408660888672 12.681963920593262 15.138408660888672 12.924081802368164 L15.138408660888672 12.924081802368164 C14.914590835571289 12.93918228149414 14.69077205657959 12.9542818069458 14.466954231262207 12.969382286071777 L14.466954231262207 12.969382286071777 C14.466954231262207 12.354718208312988 14.466954231262207 11.7400541305542 14.466954231262207 11.12539005279541 L14.466954231262207 11.12539005279541 C14.775273323059082 11.100905418395996 15.13638973236084 11.458592414855957 15.13638973236084 11.767882347106934 L15.13638973236084 11.767882347106934 C15.436089515686035 11.756000518798828 15.735790252685547 11.744118690490723 16.035490036010742 11.732236862182617 L16.035490036010742 11.732236862182617 C16.035490036010742 11.53471851348877 16.035490036010742 11.337200164794922 16.035490036010742 11.139681816101074 L16.035490036010742 11.139681816101074 C16.250890731811523 11.113454818725586 16.466289520263672 11.087226867675781 16.681690216064453 11.060999870300293 L16.681690216064453 11.060999870300293"></path></svg>