<svg xmlns="http://www.w3.org/2000/svg" viewBox="0.0 0.0 24.0 24.0" height="200px" width="200px"><path fill="none" stroke="black" stroke-width=".3" stroke-opacity="1.0"  filling="0" d="M13.087418556213379 13.363882064819336 L13.087418556213379 13.363882064819336 C13.138456344604492 14.043249130249023 12.876924514770508 14.901947975158691 13.193727493286133 15.50369930267334 L13.193727493286133 15.50369930267334 C13.699163436889648 15.50956916809082 14.285101890563965 15.762474060058594 14.710063934326172 15.488781929016113 C15.984928131103516 14.667718887329102 14.536133766174316 13.792015075683594 13.702554702758789 13.651308059692383 L13.702554702758789 13.651308059692383 C13.642781257629395 12.873479843139648 15.374504089355469 14.1498384475708 15.474218368530273 14.612863540649414 C15.977180480957031 16.94837188720703 12.749719619750977 17.377450942993164 11.253026962280273 16.48382568359375 C9.039721488952637 15.162334442138672 11.49646282196045 13.367643356323242 13.087418556213379 13.363882064819336 L13.087418556213379 13.363882064819336"></path>
<path fill="none" stroke="black" stroke-width=".3" stroke-opacity="1.0"  filling="0" d="M12.657981872558594 14.8091459274292 L12.657981872558594 14.8091459274292 C13.149251937866211 16.504547119140625 9.820746421813965 14.956114768981934 11.353636741638184 14.813482284545898 C11.786550521850586 14.773200988769531 12.223199844360352 14.810591697692871 12.657981872558594 14.8091459274292 L12.657981872558594 14.8091459274292"></path></svg>