<svg xmlns="http://www.w3.org/2000/svg" viewBox="0.0 0.0 24.0 24.0" height="200px" width="200px"><path fill="none" stroke="black" stroke-width=".3" stroke-opacity="1.0"  filling="0" d="M8.170964241027832 11.088109970092773 L8.170964241027832 11.088109970092773 C8.65249252319336 11.696822166442871 9.135538101196289 12.304337501525879 9.620100021362305 12.910636901855469 L9.620100021362305 12.910636901855469 C9.402045249938965 12.939727783203125 9.183991432189941 12.968818664550781 8.965936660766602 12.997909545898438 L8.965936660766602 12.997909545898438 C8.299810409545898 12.069611549377441 7.551783561706543 13.049549102783203 6.719918251037598 12.914155960083008 L6.719918251037598 12.914155960083008 C7.2035980224609375 12.305472373962402 7.68727970123291 11.696789741516113 8.170964241027832 11.088109970092773 L8.170964241027832 11.088109970092773"></path>
<path fill="none" stroke="black" stroke-width=".3" stroke-opacity="1.0"  filling="0" d="M8.18547248840332 11.838736534118652 L8.18547248840332 11.838736534118652 C8.299717903137207 11.979609489440918 8.413963317871094 12.120481491088867 8.52820873260498 12.261354446411133 L8.52820873260498 12.261354446411133 C8.297499656677246 12.273799896240234 8.066790580749512 12.286245346069336 7.8360819816589355 12.298690795898438 L7.8360819816589355 12.298690795898438 C7.952545642852783 12.14537239074707 8.069008827209473 11.99205493927002 8.18547248840332 11.838736534118652 L8.18547248840332 11.838736534118652"></path></svg>