<svg xmlns="http://www.w3.org/2000/svg" viewBox="0.0 0.0 24.0 24.0" height="200px" width="200px"><path fill="none" stroke="black" stroke-width=".3" stroke-opacity="1.0"  filling="0" d="M14.280218124389648 11.12716293334961 L14.280218124389648 11.12716293334961 C14.86228084564209 11.242471694946289 15.667202949523926 11.716286659240723 14.798291206359863 12.157527923583984 L14.798291206359863 12.157527923583984 C15.041754722595215 12.38315486907959 15.285219192504883 12.608781814575195 15.528682708740234 12.8344087600708 L15.528682708740234 12.8344087600708 C14.622584342956543 13.044662475585938 14.712342262268066 12.7703857421875 14.047691345214844 12.158890724182129 L14.047691345214844 12.158890724182129 C14.046196937561035 12.41316032409668 14.045454025268555 12.667434692382812 14.045400619506836 12.921709060668945 L14.045400619506836 12.921709060668945 C13.821091651916504 12.939181327819824 13.596781730651855 12.95665454864502 13.372472763061523 12.974126815795898 L13.372472763061523 12.974126815795898 C13.372472763061523 12.361308097839355 13.372472763061523 11.748490333557129 13.372472763061523 11.135671615600586 L13.372472763061523 11.135671615600586 C13.674168586730957 11.112356185913086 13.977622985839844 11.127347946166992 14.280218124389648 11.12716293334961 L14.280218124389648 11.12716293334961"></path>
<path fill="none" stroke="black" stroke-width=".3" stroke-opacity="1.0"  filling="0" d="M14.2305269241333 11.49212646484375 L14.2305269241333 11.49212646484375 C14.777429580688477 11.620475769042969 14.482037544250488 12.025588989257812 14.045454025268555 12.02724552154541 L14.045454025268555 12.02724552154541 C14.045547485351562 11.838505744934082 14.083748817443848 11.610780715942383 14.2305269241333 11.49212646484375 L14.2305269241333 11.49212646484375"></path></svg>