<svg xmlns="http://www.w3.org/2000/svg" viewBox="0.0 0.0 24.0 24.0" height="200px" width="200px"><path fill="none" stroke="black" stroke-width=".3" stroke-opacity="1.0"  filling="0" d="M6.616418838500977 11.097082138061523 L6.616418838500977 11.097082138061523 C6.9053730964660645 11.473554611206055 7.1943278312683105 11.850027084350586 7.483282089233398 12.226499557495117 L7.483282089233398 12.226499557495117 C7.7811455726623535 11.852245330810547 8.079009056091309 11.47799015045166 8.376873016357422 11.10373592376709 L8.376873016357422 11.10373592376709 C8.622254371643066 11.717572212219238 8.867636680603027 12.331409454345703 9.113018035888672 12.945245742797852 L9.113018035888672 12.945245742797852 C8.890999794006348 12.963309288024902 8.668981552124023 12.981372833251953 8.4469633102417 12.999436378479004 L8.4469633102417 12.999436378479004 C8.360154151916504 12.707908630371094 8.273345947265625 12.4163818359375 8.18653678894043 12.12485408782959 L8.18653678894043 12.12485408782959 C7.943382263183594 12.417190551757812 7.700227737426758 12.709527015686035 7.457073211669922 13.001863479614258 L7.457073211669922 13.001863479614258 C7.231655120849609 12.710981369018555 7.006236553192139 12.420100212097168 6.780818462371826 12.129218101501465 L6.780818462371826 12.129218101501465 C6.604091644287109 12.812383651733398 6.682234764099121 13.246256828308105 5.873509407043457 12.929072380065918 L5.873509407043457 12.929072380065918 C6.121145725250244 12.318408966064453 6.3687825202941895 11.707745552062988 6.616418838500977 11.097082138061523 L6.616418838500977 11.097082138061523"></path></svg>