<svg xmlns="http://www.w3.org/2000/svg" viewBox="0.0 0.0 24.0 24.0" height="200px" width="200px"><path fill="none" stroke="black" stroke-width=".3" stroke-opacity="1.0"  filling="0" d="M14.67324447631836 11.67122745513916 L14.67324447631836 11.67122745513916 C14.765344619750977 11.688017845153809 14.85744571685791 11.704809188842773 14.949545860290527 11.721599578857422 L14.949545860290527 11.721599578857422 C14.85949993133545 11.748544692993164 14.769454956054688 11.775490760803223 14.67940902709961 11.802435874938965 L14.67940902709961 11.802435874938965 C14.67940902709961 11.844990730285645 14.67940902709961 11.887544631958008 14.67940902709961 11.930099487304688 L14.67940902709961 11.930099487304688 C14.76826286315918 11.949444770812988 14.857117652893066 11.968790054321289 14.945971488952637 11.98813533782959 L14.945971488952637 11.98813533782959 C14.943672180175781 12.00070858001709 14.94137191772461 12.013280868530273 14.939072608947754 12.025854110717773 L14.939072608947754 12.025854110717773 C14.852672576904297 12.025854110717773 14.76627254486084 12.025854110717773 14.679872512817383 12.025854110717773 L14.679872512817383 12.025854110717773 C14.679872512817383 12.092835426330566 14.679872512817383 12.159817695617676 14.679872512817383 12.226799011230469 L14.679872512817383 12.226799011230469 C14.772562980651855 12.269207954406738 14.865254402160645 12.311617851257324 14.957944869995117 12.354026794433594 L14.957944869995117 12.354026794433594 C14.55062484741211 12.35318374633789 14.283357620239258 12.069969177246094 14.67324447631836 11.67122745513916 L14.67324447631836 11.67122745513916"></path></svg>