<svg xmlns="http://www.w3.org/2000/svg" viewBox="0.0 0.0 24.0 24.0" height="200px" width="200px"><path fill="none" stroke="black" stroke-width=".3" stroke-opacity="1.0"  filling="0" d="M14.400001525878906 11.590909957885742 L14.400001525878906 11.590909957885742 C14.6636381149292 11.590909957885742 14.927273750305176 11.590909957885742 15.190910339355469 11.590909957885742 L15.190910339355469 11.590909957885742 C15.156410217285156 11.725409507751465 15.047462463378906 11.757080078125 15.05307388305664 11.90552806854248 L15.05307388305664 11.90552806854248 C15.130645751953125 11.810173034667969 15.199115753173828 11.704778671264648 15.2454833984375 11.590936660766602 L15.2454833984375 11.590936660766602 C15.31821060180664 11.590936660766602 15.390937805175781 11.590936660766602 15.463665008544922 11.590936660766602 L15.463665008544922 11.590936660766602 C15.398837089538574 11.730436325073242 15.334010124206543 11.8699369430542 15.269182205200195 12.00943660736084 L15.269182205200195 12.00943660736084 C15.330291748046875 12.046463966369629 15.391400337219238 12.083491325378418 15.452509880065918 12.120518684387207 L15.452509880065918 12.120518684387207 C15.529747009277344 11.975621223449707 15.620271682739258 11.838128089904785 15.709091186523438 11.700027465820312 L15.709091186523438 11.700027465820312 C15.70972728729248 11.955211639404297 15.861044883728027 12.313713073730469 15.654544830322266 12.46363639831543 L15.654544830322266 12.46363639831543 C15.189375877380371 12.229302406311035 14.779733657836914 11.949051856994629 14.400001525878906 11.590909957885742 L14.400001525878906 11.590909957885742"></path></svg>