<svg xmlns="http://www.w3.org/2000/svg" viewBox="0.0 0.0 24.0 24.0" height="200px" width="200px"><path fill="none" stroke="black" stroke-width=".3" stroke-opacity="1.0"  filling="0" d="M11.359500885009766 11.928135871887207 L11.359500885009766 11.928135871887207 C11.416655540466309 11.928135871887207 11.473809242248535 11.928135871887207 11.530963897705078 11.928135871887207 L11.530963897705078 11.928135871887207 C11.532281875610352 11.93660831451416 11.533599853515625 11.94508171081543 11.534917831420898 11.953554153442383 L11.534917831420898 11.953554153442383 C11.492609024047852 11.964372634887695 11.450299263000488 11.975190162658691 11.407990455627441 11.986008644104004 L11.407990455627441 11.986008644104004 C11.44265365600586 12.019818305969238 11.477317810058594 12.053627014160156 11.511981010437012 12.08743667602539 L11.511981010437012 12.08743667602539 C11.47830867767334 12.098891258239746 11.444635391235352 12.110344886779785 11.41096305847168 12.12179946899414 L11.41096305847168 12.12179946899414 C11.40167236328125 12.152935981750488 11.392380714416504 12.18407154083252 11.383090019226074 12.215208053588867 L11.383090019226074 12.215208053588867 C11.375235557556152 12.214444160461426 11.36738109588623 12.2136812210083 11.359526634216309 12.21291732788086 L11.359526634216309 12.21291732788086 C11.359518051147461 12.117990493774414 11.359509468078613 12.023062705993652 11.359500885009766 11.928135871887207 L11.359500885009766 11.928135871887207"></path></svg>