<svg xmlns="http://www.w3.org/2000/svg" viewBox="0.0 0.0 24.0 24.0" height="200px" width="200px"><path fill="none" stroke="black" stroke-width=".3" stroke-opacity="1.0"  filling="0" d="M3.5106544494628906 10.721972465515137 L3.5106544494628906 10.721972465515137 C5.768009185791016 11.058941841125488 3.4758195877075195 12.010852813720703 3.236536979675293 12.754499435424805 L3.236536979675293 12.754499435424805 C3.629718542098999 12.754499435424805 4.022900104522705 12.754499435424805 4.41608190536499 12.754499435424805 L4.41608190536499 12.754499435424805 C4.420300006866455 12.848444938659668 4.42451810836792 12.942389488220215 4.428736209869385 13.036334991455078 L4.428736209869385 13.036334991455078 C3.911616802215576 13.036334991455078 3.3729872703552246 13.093290328979492 2.8636913299560547 13.006390571594238 L2.8636913299560547 13.006390571594238 C3.1471099853515625 12.430527687072754 4.264045238494873 12.205041885375977 4.149845600128174 11.573453903198242 C4.0029683113098145 10.761141777038574 3.2226924896240234 10.763787269592285 3.2187814712524414 11.54454517364502 L3.2187814712524414 11.54454517364502 C3.1238725185394287 11.54454517364502 3.028963327407837 11.54454517364502 2.934054374694824 11.54454517364502 L2.934054374694824 11.54454517364502 C3.0351834297180176 11.225336074829102 3.201887607574463 10.85152816772461 3.5106544494628906 10.721972465515137 L3.5106544494628906 10.721972465515137"></path></svg>