<svg xmlns="http://www.w3.org/2000/svg" viewBox="0.0 0.0 24.0 24.0" height="200px" width="200px"><path fill="none" stroke="black" stroke-width=".3" stroke-opacity="1.0"  filling="0" d="M0.6331357955932617 9.844772338867188 L0.6331357955932617 9.844772338867188 C1.5721678733825684 10.449934005737305 2.2043769359588623 13.00366497039795 2.710036277770996 14.092663764953613 L2.710036277770996 14.092663764953613 C1.8494787216186523 14.268865585327148 1.1740819215774536 14.329160690307617 0.80181884765625 13.537062644958496 L0.80181884765625 13.537062644958496 C0.26041555404663086 13.505877494812012 -0.2842710018157959 13.50088119506836 -0.8265819549560547 13.50002670288086 L-0.8265819549560547 13.50002670288086 C-1.0574560165405273 14.016227722167969 -1.0228054523468018 14.122247695922852 -1.5567264556884766 14.057318687438965 L-1.5567264556884766 14.057318687438965 C-1.241084337234497 12.6703462600708 -0.33211952447891235 11.097884178161621 0.3334369659423828 9.845508575439453 L0.3334369659423828 9.845508575439453 C0.4333365857601166 9.845263481140137 0.5332362055778503 9.845017433166504 0.6331357955932617 9.844772338867188 L0.6331357955932617 9.844772338867188"></path>
<path fill="none" stroke="black" stroke-width=".3" stroke-opacity="1.0"  filling="0" d="M-0.03788280487060547 11.738809585571289 L-0.03788280487060547 11.738809585571289 C0.16781774163246155 12.18179988861084 0.37351831793785095 12.624791145324707 0.579218864440918 13.067781448364258 L0.579218864440918 13.067781448364258 C0.17517313361167908 13.06139087677002 -0.2288726270198822 13.054999351501465 -0.6329183578491211 13.048608779907227 L-0.6329183578491211 13.048608779907227 C-0.4345731735229492 12.612009048461914 -0.23622798919677734 12.175409317016602 -0.03788280487060547 11.738809585571289 L-0.03788280487060547 11.738809585571289"></path></svg>