<svg xmlns="http://www.w3.org/2000/svg" viewBox="0.0 0.0 24.0 24.0" height="200px" width="200px"><path fill="none" stroke="black" stroke-width=".3" stroke-opacity="1.0"  filling="0" d="M-0.3152189254760742 9.85737133026123 L-0.3152189254760742 9.85737133026123 C-0.07126346230506897 9.872121810913086 2.2143263816833496 10.317923545837402 0.9508352279663086 10.680599212646484 C0.5299559235572815 10.801409721374512 0.027215540409088135 10.266332626342773 -0.3489551544189453 10.490453720092773 C-1.198853611946106 10.996818542480469 -0.8392592668533325 13.692729949951172 -0.03875541687011719 13.845463752746582 L-0.03875541687011719 13.845463752746582 C-0.03875541687011719 12.941545486450195 -0.03875541687011719 12.037627220153809 -0.03875541687011719 11.133708953857422 L-0.03875541687011719 11.133708953857422 C0.4612811207771301 11.133708953857422 0.9613177180290222 11.133708953857422 1.4613542556762695 11.133708953857422 L1.4613542556762695 11.133708953857422 C1.5289946794509888 11.699491500854492 1.520640254020691 13.249567985534668 1.4737911224365234 13.829235076904297 C1.3942570686340332 14.813315391540527 -1.2884652614593506 13.95625114440918 -1.3675365447998047 13.920434951782227 C-3.5754945278167725 12.920315742492676 -1.944252371788025 10.192983627319336 -0.3152189254760742 9.85737133026123 L-0.3152189254760742 9.85737133026123"></path></svg>