<svg xmlns="http://www.w3.org/2000/svg" viewBox="0.0 0.0 24.0 24.0" height="200px" width="200px"><path fill="none" stroke="black" stroke-width=".3" stroke-opacity="1.0"  filling="0" d="M-10.336362838745117 9.819409370422363 L-10.336362838745117 9.819409370422363 C-10.163017272949219 9.819409370422363 -9.98967170715332 9.819409370422363 -9.816326141357422 9.819409370422363 L-9.816326141357422 9.819409370422363 C-8.946199417114258 10.586809158325195 -8.076072692871094 11.354208946228027 -7.20594596862793 12.12160873413086 L-7.20594596862793 12.12160873413086 C-7.197791576385498 12.115545272827148 -7.189636707305908 12.109482765197754 -7.181482315063477 12.103419303894043 L-7.181482315063477 12.103419303894043 C-7.181482315063477 11.343936920166016 -7.181482315063477 10.584454536437988 -7.181482315063477 9.824972152709961 L-7.181482315063477 9.824972152709961 C-7.033109188079834 9.824972152709961 -6.884735584259033 9.824972152709961 -6.736362457275391 9.824972152709961 L-6.736362457275391 9.824972152709961 C-6.736362457275391 10.00292682647705 -6.589704513549805 14.009182929992676 -6.817008972167969 14.044936180114746 C-7.865941524505615 14.20992660522461 -9.111079216003418 12.362024307250977 -9.900163650512695 11.77009105682373 L-9.900163650512695 11.77009105682373 C-9.900163650512695 17.16377830505371 -10.336362838745117 11.228311538696289 -10.336362838745117 9.819409370422363 L-10.336362838745117 9.819409370422363"></path></svg>