<svg xmlns="http://www.w3.org/2000/svg" viewBox="0.0 0.0 24.0 24.0" height="200px" width="200px"><path fill="none" stroke="black" stroke-width=".3" stroke-opacity="1.0"  filling="0" d="M6.2061004638671875 9.900327682495117 L6.2061004638671875 9.900327682495117 C7.219769477844238 9.897212028503418 8.578866004943848 9.639640808105469 9.4668550491333 10.299055099487305 C11.332837104797363 11.68471908569336 8.828150749206543 13.154535293579102 7.559563636779785 13.22959041595459 L7.559563636779785 13.22959041595459 C7.559563636779785 13.537908554077148 7.559563636779785 13.846227645874023 7.559563636779785 14.154545783996582 L7.559563636779785 14.154545783996582 C7.0558390617370605 14.154492378234863 6.5519843101501465 14.144739151000977 6.048709392547607 14.123455047607422 L6.048709392547607 14.123455047607422 C6.060020923614502 12.718436241149902 6.07133674621582 11.313419342041016 6.0826640129089355 9.908400535583496 L6.0826640129089355 9.908400535583496 C6.123809337615967 9.905709266662598 6.164955139160156 9.903018951416016 6.2061004638671875 9.900327682495117 L6.2061004638671875 9.900327682495117"></path>
<path fill="none" stroke="black" stroke-width=".3" stroke-opacity="1.0"  filling="0" d="M7.5794453620910645 10.364399909973145 L7.5794453620910645 10.364399909973145 C8.889697074890137 10.373087882995605 8.591179847717285 12.511455535888672 7.5580363273620605 12.796009063720703 L7.5580363273620605 12.796009063720703 C7.557870388031006 11.985441207885742 7.564991474151611 11.17483901977539 7.5794453620910645 10.364399909973145 L7.5794453620910645 10.364399909973145"></path></svg>