<svg xmlns="http://www.w3.org/2000/svg" viewBox="0.0 0.0 24.0 24.0" height="200px" width="200px"><path fill="none" stroke="black" stroke-width=".3" stroke-opacity="1.0"  filling="0" d="M12.095508575439453 11.737418174743652 L12.095508575439453 11.737418174743652 C12.036636352539062 11.78482723236084 11.977763175964355 11.832236289978027 11.918890953063965 11.879645347595215 L11.918890953063965 11.879645347595215 C11.98033618927002 11.9207181930542 12.04178237915039 11.961791038513184 12.103227615356445 12.002863883972168 L12.103227615356445 12.002863883972168 C12.05160903930664 12.052818298339844 11.999991416931152 12.10277271270752 11.948372840881348 12.152727127075195 L11.948372840881348 12.152727127075195 C11.990099906921387 12.1589994430542 12.031826972961426 12.16527271270752 12.073554039001465 12.171545028686523 L12.073554039001465 12.171545028686523 C12.088990211486816 12.211109161376953 12.104427337646484 12.250672340393066 12.119863510131836 12.290236473083496 L12.119863510131836 12.290236473083496 C12.000308990478516 12.280645370483398 11.880753517150879 12.2710542678833 11.761198997497559 12.261463165283203 L11.761198997497559 12.261463165283203 C11.769789695739746 12.089435577392578 11.77838134765625 11.91740894317627 11.786972045898438 11.745381355285645 L11.786972045898438 11.745381355285645 C11.889817237854004 11.742727279663086 11.992663383483887 11.740072250366211 12.095508575439453 11.737418174743652 L12.095508575439453 11.737418174743652"></path></svg>