<svg xmlns="http://www.w3.org/2000/svg" viewBox="0.0 0.0 24.0 24.0" height="200px" width="200px"><path fill="none" stroke="black" stroke-width=".3" stroke-opacity="1.0"  filling="0" d="M8.914172172546387 9.820962905883789 L8.914172172546387 9.820962905883789 C9.048286437988281 9.834070205688477 10.066290855407715 9.819844245910645 10.37190055847168 10.086490631103516 C11.117851257324219 10.737337112426758 10.309536933898926 11.162609100341797 9.659263610839844 10.809244155883789 L9.659263610839844 10.809244155883789 C9.867579460144043 10.408899307250977 9.510231971740723 10.005914688110352 8.98472785949707 10.330471992492676 C8.33193302154541 10.733646392822266 8.348564147949219 11.407567024230957 8.359964370727539 12.053290367126465 C8.37442398071289 12.872320175170898 8.38586139678955 13.369776725769043 9.27332878112793 13.80430793762207 C9.672341346740723 13.999676704406738 10.060123443603516 13.6644868850708 10.063309669494629 13.295836448669434 L10.063309669494629 13.295836448669434 C10.253700256347656 13.463936805725098 10.444090843200684 13.632036209106445 10.634481430053711 13.80013656616211 L10.634481430053711 13.80013656616211 C9.043904304504395 14.907079696655273 7.606009006500244 14.084875106811523 7.069666862487793 12.899641036987305 C6.5333251953125 11.714406967163086 6.898536205291748 10.166141510009766 8.914172172546387 9.820962905883789 L8.914172172546387 9.820962905883789"></path></svg>