<svg xmlns="http://www.w3.org/2000/svg" viewBox="0.0 0.0 24.0 24.0" height="200px" width="200px"><path fill="none" stroke="black" stroke-width=".3" stroke-opacity="1.0"  filling="0" d="M16.574098587036133 9.846762657165527 L16.574098587036133 9.846762657165527 C16.7891845703125 10.061985969543457 16.827289581298828 10.419469833374023 16.827381134033203 10.723745346069336 L16.827381134033203 10.723745346069336 C17.34886360168457 10.47077751159668 17.684202194213867 10.583131790161133 18.0643367767334 10.855554580688477 L18.0643367767334 10.855554580688477 C18.23468780517578 10.563407897949219 18.24643898010254 10.195474624633789 18.24542808532715 9.857290267944336 L18.24542808532715 9.857290267944336 C18.742937088012695 9.857290267944336 19.240446090698242 9.857290267944336 19.73795509338379 9.857290267944336 L19.73795509338379 9.857290267944336 C19.823827743530273 11.233175277709961 19.785871505737305 12.706711769104004 19.717226028442383 14.095935821533203 L19.717226028442383 14.095935821533203 C17.538433074951172 14.18984317779541 18.159912109375 12.870994567871094 18.25213623046875 11.231918334960938 L18.25213623046875 11.231918334960938 C17.90999984741211 11.405522346496582 17.008594512939453 10.79524040222168 16.85430145263672 11.280818939208984 C16.70622444152832 11.746833801269531 16.827392578125 13.752680778503418 16.827354431152344 14.079408645629883 L16.827354431152344 14.079408645629883 C16.334054946899414 14.133891105651855 15.82943058013916 14.125530242919922 15.334009170532227 14.126290321350098 L15.334009170532227 14.126290321350098 C15.301648139953613 13.41637897491455 15.327362060546875 12.705002784729004 15.327313423156738 11.994354248046875 C15.327266693115234 11.308053970336914 14.950117111206055 10.508813858032227 15.327299118041992 9.935454368591309 C15.483928680419922 9.697360038757324 16.291641235351562 9.869794845581055 16.574098587036133 9.846762657165527 L16.574098587036133 9.846762657165527"></path></svg>