<svg xmlns="http://www.w3.org/2000/svg" viewBox="0.0 0.0 24.0 24.0" height="200px" width="200px"><path fill="none" stroke="black" stroke-width=".3" stroke-opacity="1.0"  filling="0" d="M-6.25865364074707 9.873135566711426 L-6.25865364074707 9.873135566711426 C-5.991967678070068 9.873772621154785 -4.1979522705078125 9.729073524475098 -3.574172019958496 10.048689842224121 C-2.159291982650757 10.77365493774414 -2.0314888954162598 13.134997367858887 -3.422863006591797 13.945854187011719 C-3.914255142211914 14.23222541809082 -4.628297328948975 14.14851188659668 -5.126344680786133 14.16763687133789 L-5.126344680786133 14.16763687133789 C-5.126480579376221 14.16328239440918 -5.126616954803467 14.158927917480469 -5.126752853393555 14.154573440551758 L-5.126752853393555 14.154573440551758 C-5.5179877281188965 14.154505729675293 -5.92706298828125 14.264400482177734 -6.300436019897461 14.147536277770996 C-6.673960208892822 14.030624389648438 -6.3488969802856445 13.365983963012695 -6.355445861816406 12.974645614624023 C-6.364722728729248 12.420310020446777 -6.639750003814697 10.263612747192383 -6.25865364074707 9.873135566711426 L-6.25865364074707 9.873135566711426"></path>
<path fill="none" stroke="black" stroke-width=".3" stroke-opacity="1.0"  filling="0" d="M-4.854709625244141 10.335954666137695 L-4.854709625244141 10.335954666137695 C-3.0731801986694336 11.320351600646973 -4.853940963745117 15.283913612365723 -4.85460090637207 12.530017852783203 C-4.854681491851807 12.1936674118042 -4.854636192321777 11.857317924499512 -4.854654312133789 11.520967483520508 C-4.854675769805908 11.12596321105957 -4.854709625244141 10.730958938598633 -4.854709625244141 10.335954666137695 L-4.854709625244141 10.335954666137695"></path></svg>