<svg xmlns="http://www.w3.org/2000/svg" viewBox="0.0 0.0 24.0 24.0" height="200px" width="200px"><path fill="none" stroke="black" stroke-width=".3" stroke-opacity="1.0"  filling="0" d="M18.508769989013672 9.92342758178711 L18.508769989013672 9.92342758178711 C18.72133445739746 10.523664474487305 18.93389892578125 11.123900413513184 19.14646339416504 11.724137306213379 L19.14646339416504 11.724137306213379 C19.363935470581055 11.135791778564453 19.581409454345703 10.547447204589844 19.79888153076172 9.959101676940918 L19.79888153076172 9.959101676940918 C19.953081130981445 9.959101676940918 20.107282638549805 9.959101676940918 20.26148223876953 9.959101676940918 L20.26148223876953 9.959101676940918 C20.161191940307617 11.260828018188477 19.16944122314453 13.00029182434082 18.67415428161621 14.2041015625 L18.67415428161621 14.2041015625 C18.58268165588379 14.2041015625 18.491207122802734 14.2041015625 18.399734497070312 14.2041015625 L18.399734497070312 14.2041015625 C18.19007110595703 13.598701477050781 17.98040771484375 12.993301391601562 17.77074432373047 12.387901306152344 L17.77074432373047 12.387901306152344 C17.760135650634766 12.385282516479492 17.749526977539062 12.38266372680664 17.73891830444336 12.380044937133789 L17.73891830444336 12.380044937133789 C17.600940704345703 12.773760795593262 17.33490562438965 14.264625549316406 16.745399475097656 14.169900894165039 L16.745399475097656 14.169900894165039 C16.262401580810547 12.766855239868164 15.79495906829834 11.359058380126953 15.325334548950195 9.951491355895996 L15.325334548950195 9.951491355895996 C17.29482650756836 9.623942375183105 16.918676376342773 10.22022533416748 17.512527465820312 11.651400566101074 L17.512527465820312 11.651400566101074 C17.722000122070312 11.081463813781738 17.931472778320312 10.511528015136719 18.140945434570312 9.941591262817383 L18.140945434570312 9.941591262817383 C18.263553619384766 9.93553638458252 18.38616180419922 9.929482460021973 18.508769989013672 9.92342758178711 L18.508769989013672 9.92342758178711"></path></svg>