<svg xmlns="http://www.w3.org/2000/svg" viewBox="0.0 0.0 24.0 24.0" height="200px" width="200px"><path fill="none" stroke="black" stroke-width=".3" stroke-opacity="1.0"  filling="0" d="M10.286945343017578 9.817035675048828 L10.286945343017578 9.817035675048828 C11.265609741210938 10.44076919555664 12.092466354370117 11.381094932556152 12.972382545471191 12.134726524353027 L12.972382545471191 12.134726524353027 C12.972382545471191 12.115510940551758 12.972382545471191 9.856659889221191 12.972382545471191 9.827262878417969 L12.972382545471191 9.827262878417969 C13.120973587036133 9.827262878417969 13.269564628601074 9.827262878417969 13.418155670166016 9.827262878417969 L13.418155670166016 9.827262878417969 C13.418155670166016 9.998709678649902 13.552762031555176 14.012520790100098 13.33917236328125 14.04166316986084 C12.372954368591309 14.173494338989258 10.984389305114746 12.382448196411133 10.254572868347168 11.758036613464355 L10.254572868347168 11.758036613464355 C10.254572868347168 12.547508239746094 10.863397598266602 14.045254707336426 9.85120964050293 14.045482635498047 L9.85120964050293 14.045482635498047 C9.839546203613281 13.973363876342773 9.827881813049316 13.901246070861816 9.816218376159668 13.829127311706543 L9.816218376159668 13.829127311706543 C9.829233169555664 12.492498397827148 9.818591117858887 11.155064582824707 9.818591117858887 9.81837272644043 L9.818591117858887 9.81837272644043 C9.974709510803223 9.817927360534668 10.130826950073242 9.81748104095459 10.286945343017578 9.817035675048828 L10.286945343017578 9.817035675048828"></path></svg>