<svg xmlns="http://www.w3.org/2000/svg" viewBox="0.0 0.0 24.0 24.0" height="200px" width="200px"><path fill="none" stroke="black" stroke-width=".3" stroke-opacity="1.0"  filling="0" d="M20.47805404663086 9.845919609069824 L20.47805404663086 9.845919609069824 C21.709440231323242 9.853497505187988 22.363658905029297 13.141409873962402 22.363636016845703 14.127272605895996 L22.363636016845703 14.127272605895996 C21.599599838256836 14.07038688659668 21.323781967163086 14.321195602416992 20.962064743041992 13.542844772338867 L20.962064743041992 13.542844772338867 C20.417800903320312 13.503693580627441 19.873720169067383 13.500423431396484 19.32763671875 13.500055313110352 L19.32763671875 13.500055313110352 C19.09434700012207 14.026888847351074 19.121736526489258 14.115118980407715 18.568389892578125 14.055246353149414 L18.568389892578125 14.055246353149414 C19.20494270324707 12.652135848999023 19.841495513916016 11.249025344848633 20.47805404663086 9.845919609069824 L20.47805404663086 9.845919609069824"></path>
<path fill="none" stroke="black" stroke-width=".3" stroke-opacity="1.0"  filling="0" d="M20.11963653564453 11.737444877624512 L20.11963653564453 11.737444877624512 C20.32283592224121 12.182044982910156 20.526037216186523 12.6266450881958 20.729236602783203 13.071245193481445 L20.729236602783203 13.071245193481445 C20.327245712280273 13.058745384216309 19.925256729125977 13.046244621276855 19.523265838623047 13.033744812011719 L19.523265838623047 13.033744812011719 C19.722055435180664 12.601644515991211 19.920846939086914 12.16954517364502 20.11963653564453 11.737444877624512 L20.11963653564453 11.737444877624512"></path></svg>