<svg xmlns="http://www.w3.org/2000/svg" viewBox="0.0 0.0 24.0 24.0" height="200px" width="200px"><path fill="none" stroke="black" stroke-width=".3" stroke-opacity="1.0"  filling="0" d="M10.943672180175781 11.247599601745605 L10.943672180175781 11.247599601745605 C11.874588012695312 11.503294944763184 11.498706817626953 12.096134185791016 10.920517921447754 12.512018203735352 L10.920517921447754 12.512018203735352 C11.150863647460938 12.512018203735352 11.381208419799805 12.512018203735352 11.611554145812988 12.512018203735352 L11.611554145812988 12.512018203735352 C11.611554145812988 12.593681335449219 11.611554145812988 12.675345420837402 11.611554145812988 12.75700855255127 L11.611554145812988 12.75700855255127 C11.25327205657959 12.75700855255127 10.894990921020508 12.75700855255127 10.53670883178711 12.75700855255127 L10.53670883178711 12.75700855255127 C10.473069190979004 12.229761123657227 11.287296295166016 12.247393608093262 11.291507720947266 11.689663887023926 C11.29543399810791 11.16968822479248 10.823873519897461 11.702949523925781 10.777799606323242 11.857717514038086 L10.777799606323242 11.857717514038086 C10.242505073547363 11.791462898254395 10.733245849609375 11.40720272064209 10.943672180175781 11.247599601745605 L10.943672180175781 11.247599601745605"></path></svg>