<svg xmlns="http://www.w3.org/2000/svg" viewBox="0.0 0.0 24.0 24.0" height="200px" width="200px"><path fill="none" stroke="black" stroke-width=".3" stroke-opacity="1.0"  filling="0" d="M15.692182540893555 11.486808776855469 L15.692182540893555 11.486808776855469 C15.728296279907227 11.579890251159668 15.796737670898438 11.689461708068848 15.754280090332031 11.779826164245605 L15.754280090332031 11.779826164245605 C15.789953231811523 11.817826271057129 15.825626373291016 11.855826377868652 15.861299514770508 11.893826484680176 L15.861299514770508 11.893826484680176 C16.266143798828125 11.843098640441895 16.118797302246094 12.102632522583008 15.855463027954102 12.011180877685547 L15.855463027954102 12.011180877685547 C15.811190605163574 12.03923511505127 15.76691722869873 12.067290306091309 15.722644805908203 12.095344543457031 L15.722644805908203 12.095344543457031 C15.722644805908203 12.324898719787598 15.722644805908203 12.55445384979248 15.722644805908203 12.784008026123047 L15.722644805908203 12.784008026123047 C15.941411018371582 12.707070350646973 16.036148071289062 12.645437240600586 16.2344970703125 12.77678108215332 L16.2344970703125 12.77678108215332 C15.381790161132812 13.387528419494629 15.513325691223145 12.331962585449219 15.255163192749023 11.83600902557373 L15.255163192749023 11.83600902557373 C15.447752952575684 11.835786819458008 15.540189743041992 11.591008186340332 15.692182540893555 11.486808776855469 L15.692182540893555 11.486808776855469"></path></svg>