<svg xmlns="http://www.w3.org/2000/svg" viewBox="0.0 0.0 24.0 24.0" height="200px" width="200px"><path fill="none" stroke="black" stroke-width=".3" stroke-opacity="1.0"  filling="0" d="M-2.6364822387695312 12.323070526123047 L-2.6364822387695312 12.323070526123047 C-2.1452724933624268 12.823012351989746 -1.758077621459961 13.992316246032715 -2.972726821899414 13.363635063171387 L-2.972726821899414 13.363635063171387 C-2.972726821899414 13.19999885559082 -2.972726821899414 13.03636360168457 -2.972726821899414 12.872727394104004 L-2.972726821899414 12.872727394104004 C-2.8502540588378906 12.793893814086914 -2.702434539794922 12.746278762817383 -2.557009696960449 12.738162994384766 L-2.557009696960449 12.738162994384766 C-2.4462926387786865 12.44461727142334 -2.7437567710876465 12.535141944885254 -2.9397544860839844 12.56912612915039 L-2.9397544860839844 12.56912612915039 C-2.9419095516204834 12.523598670959473 -2.9440643787384033 12.478072166442871 -2.9462194442749023 12.432544708251953 L-2.9462194442749023 12.432544708251953 C-2.8429737091064453 12.396053314208984 -2.7397279739379883 12.359561920166016 -2.6364822387695312 12.323070526123047 L-2.6364822387695312 12.323070526123047"></path>
<path fill="none" stroke="black" stroke-width=".3" stroke-opacity="1.0"  filling="0" d="M-2.6169004440307617 12.8892822265625 L-2.6169004440307617 12.8892822265625 C-2.1605451107025146 13.1659574508667 -2.9904158115386963 13.522443771362305 -2.6169004440307617 12.8892822265625 L-2.6169004440307617 12.8892822265625"></path></svg>