<svg xmlns="http://www.w3.org/2000/svg" viewBox="0.0 0.0 24.0 24.0" height="200px" width="200px"><path fill="none" stroke="black" stroke-width=".3" stroke-opacity="1.0"  filling="0" d="M4.894117832183838 10.31247329711914 L4.894117832183838 10.31247329711914 C4.952527046203613 10.324836730957031 5.0109357833862305 10.337200164794922 5.069344997406006 10.349563598632812 L5.069344997406006 10.349563598632812 C5.325827121734619 10.586162567138672 5.3288774490356445 11.00040054321289 5.406627178192139 11.340572357177734 L5.406627178192139 11.340572357177734 C5.175003528594971 11.366324424743652 4.970659255981445 11.353045463562012 4.741091251373291 11.369399070739746 L4.741091251373291 11.369399070739746 C4.730391025543213 11.363871574401855 4.719690799713135 11.358345031738281 4.708990573883057 11.35281753540039 L4.708990573883057 11.35281753540039 C4.678188800811768 11.625300407409668 4.802582740783691 11.89401626586914 4.874263286590576 12.158699989318848 L4.874263286590576 12.158699989318848 C5.579122543334961 11.981892585754395 5.3758955001831055 12.686113357543945 4.8186540603637695 12.682636260986328 L4.8186540603637695 12.682636260986328 C4.516739845275879 12.108480453491211 4.003153324127197 10.689031600952148 4.894117832183838 10.31247329711914 L4.894117832183838 10.31247329711914"></path>
<path fill="none" stroke="black" stroke-width=".3" stroke-opacity="1.0"  filling="0" d="M4.939990997314453 10.5995454788208 L4.939990997314453 10.5995454788208 C4.999899864196777 10.756954193115234 5.059808731079102 10.914363861083984 5.119717597961426 11.071772575378418 L5.119717597961426 11.071772575378418 C4.719043254852295 11.068835258483887 4.612342357635498 10.844206809997559 4.939990997314453 10.5995454788208 L4.939990997314453 10.5995454788208"></path></svg>