<svg xmlns="http://www.w3.org/2000/svg" viewBox="0.0 0.0 24.0 24.0" height="200px" width="200px"><path fill="none" stroke="black" stroke-width=".3" stroke-opacity="1.0"  filling="0" d="M4.1317901611328125 11.492452621459961 L4.1317901611328125 11.492452621459961 C4.568657398223877 11.503491401672363 4.8041534423828125 12.099604606628418 4.961999893188477 12.507108688354492 L4.961999893188477 12.507108688354492 C4.140061855316162 12.571738243103027 3.6301536560058594 12.007254600524902 4.617191314697266 11.729945182800293 L4.617191314697266 11.729945182800293 C4.579991340637207 11.678908348083496 4.542791366577148 11.627872467041016 4.50559139251709 11.576835632324219 L4.50559139251709 11.576835632324219 C4.393963813781738 11.595181465148926 4.282336711883545 11.613526344299316 4.170709133148193 11.631872177124023 L4.170709133148193 11.631872177124023 C4.152390956878662 11.596390724182129 4.134072780609131 11.560908317565918 4.1157546043396 11.525426864624023 L4.1157546043396 11.525426864624023 C4.121099948883057 11.514435768127441 4.1264448165893555 11.503443717956543 4.1317901611328125 11.492452621459961 L4.1317901611328125 11.492452621459961"></path>
<path fill="none" stroke="black" stroke-width=".3" stroke-opacity="1.0"  filling="0" d="M4.419654369354248 11.962389945983887 L4.419654369354248 11.962389945983887 C4.520867824554443 12.026721000671387 4.600975036621094 12.171951293945312 4.572000503540039 12.288326263427734 L4.572000503540039 12.288326263427734 C4.243976593017578 12.47632122039795 4.265768051147461 12.148588180541992 4.419654369354248 11.962389945983887 L4.419654369354248 11.962389945983887"></path></svg>