<svg xmlns="http://www.w3.org/2000/svg" viewBox="0.0 0.0 24.0 24.0" height="200px" width="200px"><path fill="none" stroke="black" stroke-width=".3" stroke-opacity="1.0"  filling="0" d="M1.8067903518676758 11.354700088500977 L1.8067903518676758 11.354700088500977 C2.309986114501953 11.573326110839844 2.237328052520752 11.98760986328125 2.2448177337646484 12.498190879821777 L2.2448177337646484 12.498190879821777 C2.1665542125701904 12.472136497497559 2.0882904529571533 12.446081161499023 2.0100269317626953 12.420026779174805 L2.0100269317626953 12.420026779174805 C1.9309269189834595 12.443663597106934 1.8518270254135132 12.467300415039062 1.7727270126342773 12.490937232971191 L1.7727270126342773 12.490937232971191 C1.7727270126342773 12.427300453186035 1.7727270126342773 12.363663673400879 1.7727270126342773 12.300026893615723 L1.7727270126342773 12.300026893615723 C1.8287886381149292 12.165810585021973 1.8897470235824585 11.950054168701172 1.7727270126342773 11.863663673400879 L1.7727270126342773 11.863663673400879 C1.7727270126342773 11.818209648132324 1.7727270126342773 11.772754669189453 1.7727270126342773 11.727300643920898 L1.7727270126342773 11.727300643920898 C1.8151363134384155 11.725300788879395 1.8575454950332642 11.723299980163574 1.8999547958374023 11.72130012512207 L1.8999547958374023 11.72130012512207 C1.8575454950332642 11.659663200378418 1.8151363134384155 11.598027229309082 1.7727270126342773 11.53639030456543 L1.7727270126342773 11.53639030456543 C1.7727270126342773 11.481836318969727 1.7727270126342773 11.427281379699707 1.7727270126342773 11.372727394104004 L1.7727270126342773 11.372727394104004 C1.7840814590454102 11.366718292236328 1.795435905456543 11.360709190368652 1.8067903518676758 11.354700088500977 L1.8067903518676758 11.354700088500977"></path></svg>