<svg xmlns="http://www.w3.org/2000/svg" viewBox="0.0 0.0 24.0 24.0" height="200px" width="200px"><path fill="none" stroke="black" stroke-width=".3" stroke-opacity="1.0"  filling="0" d="M15.339326858520508 12.337528228759766 L15.339326858520508 12.337528228759766 C16.23628044128418 12.484227180480957 15.784921646118164 12.808701515197754 16.064453125 13.483799934387207 L16.064453125 13.483799934387207 C15.783425331115723 13.532620429992676 15.573988914489746 13.500463485717773 15.267217636108398 13.49593734741211 L15.267217636108398 13.49593734741211 C14.965986251831055 13.021791458129883 15.313031196594238 12.859037399291992 15.717327117919922 12.783845901489258 L15.717327117919922 12.783845901489258 C15.652830123901367 12.58137321472168 15.430217742919922 12.62259292602539 15.256525993347168 12.61802864074707 L15.256525993347168 12.61802864074707 C15.284126281738281 12.524528503417969 15.311726570129395 12.431028366088867 15.339326858520508 12.337528228759766 L15.339326858520508 12.337528228759766"></path>
<path fill="none" stroke="black" stroke-width=".3" stroke-opacity="1.0"  filling="0" d="M15.685144424438477 12.98511791229248 L15.685144424438477 12.98511791229248 C15.631044387817383 13.119963645935059 15.576945304870605 13.25480842590332 15.522845268249512 13.389654159545898 L15.522845268249512 13.389654159545898 C15.470293998718262 13.25419807434082 15.552780151367188 13.045032501220703 15.685144424438477 12.98511791229248 L15.685144424438477 12.98511791229248"></path></svg>