<svg xmlns="http://www.w3.org/2000/svg" viewBox="0.0 0.0 24.0 24.0" height="200px" width="200px"><path fill="none" stroke="black" stroke-width=".3" stroke-opacity="1.0"  filling="0" d="M14.77265453338623 11.153125762939453 L14.77265453338623 11.153125762939453 C14.784090995788574 11.156189918518066 14.795527458190918 11.15925407409668 14.806963920593262 11.162318229675293 L14.806963920593262 11.162318229675293 C14.806963920593262 11.318581581115723 14.806963920593262 11.474845886230469 14.806963920593262 11.631109237670898 L14.806963920593262 11.631109237670898 C14.876873016357422 11.642481803894043 14.946782112121582 11.653855323791504 15.016691207885742 11.665227890014648 L15.016691207885742 11.665227890014648 C15.015636444091797 11.675164222717285 15.014581680297852 11.685099601745605 15.013526916503906 11.695035934448242 L15.013526916503906 11.695035934448242 C14.948044776916504 11.698044776916504 14.882563591003418 11.701054573059082 14.817081451416016 11.704063415527344 L14.817081451416016 11.704063415527344 C14.79335880279541 12.054670333862305 14.771585464477539 12.387011528015137 14.835082054138184 12.73112678527832 L14.835082054138184 12.73112678527832 C14.878545761108398 12.733154296875 14.922008514404297 12.735180854797363 14.965472221374512 12.737208366394043 L14.965472221374512 12.737208366394043 C14.985481262207031 12.656390190124512 15.00549030303955 12.57557201385498 15.02549934387207 12.49475383758545 L15.02549934387207 12.49475383758545 C15.231531143188477 12.618633270263672 14.80887508392334 12.994032859802246 14.585864067077637 12.83457088470459 C14.224674224853516 12.57630443572998 14.5712308883667 12.001585006713867 14.283055305480957 11.681316375732422 L14.283055305480957 11.681316375732422 C14.44625473022461 11.505252838134766 14.609455108642578 11.32918930053711 14.77265453338623 11.153125762939453 L14.77265453338623 11.153125762939453"></path></svg>