<svg xmlns="http://www.w3.org/2000/svg" viewBox="0.0 0.0 24.0 24.0" height="200px" width="200px"><path fill="none" stroke="black" stroke-width=".3" stroke-opacity="1.0"  filling="0" d="M11.24779224395752 11.143635749816895 L11.24779224395752 11.143635749816895 C11.632237434387207 11.150144577026367 12.016682624816895 11.156654357910156 12.401127815246582 11.163163185119629 L12.401127815246582 11.163163185119629 C12.193002700805664 11.723424911499023 11.821538925170898 12.203537940979004 11.60831069946289 12.758454322814941 L11.60831069946289 12.758454322814941 C11.895437240600586 12.72829818725586 12.258650779724121 12.64221477508545 12.389782905578613 12.385007858276367 L12.389782905578613 12.385007858276367 C12.384919166564941 12.533998489379883 12.380056381225586 12.682990074157715 12.375192642211914 12.83198070526123 L12.375192642211914 12.83198070526123 C11.977301597595215 12.83198070526123 11.579410552978516 12.83198070526123 11.181519508361816 12.83198070526123 L11.181519508361816 12.83198070526123 C11.1749267578125 12.249202728271484 11.745638847351074 11.734003067016602 11.96517276763916 11.19537353515625 L11.96517276763916 11.19537353515625 C11.704998016357422 11.221561431884766 11.428168296813965 11.361165046691895 11.279317855834961 11.576154708862305 L11.279317855834961 11.576154708862305 C11.173856735229492 11.477289199829102 11.235573768615723 11.287673950195312 11.24779224395752 11.143635749816895 L11.24779224395752 11.143635749816895"></path></svg>