<svg xmlns="http://www.w3.org/2000/svg" viewBox="0.0 0.0 24.0 24.0" height="200px" width="200px"><path fill="none" stroke="black" stroke-width=".3" stroke-opacity="1.0"  filling="0" d="M18.430694580078125 11.32292652130127 L18.430694580078125 11.32292652130127 C18.725889205932617 11.705418586730957 18.63058853149414 11.963077545166016 18.800399780273438 12.390708923339844 L18.800399780273438 12.390708923339844 C18.56415557861328 12.46898365020752 18.256786346435547 12.463345527648926 18.00899887084961 12.475062370300293 L18.00899887084961 12.475062370300293 C18.0109806060791 12.465544700622559 18.012964248657227 12.456026077270508 18.01494598388672 12.446508407592773 L18.01494598388672 12.446508407592773 C17.612899780273438 11.977981567382812 18.04109764099121 11.772958755493164 18.39872932434082 11.672944068908691 L18.39872932434082 11.672944068908691 C18.362247467041016 11.617280960083008 18.32576560974121 11.561616897583008 18.289283752441406 11.505953788757324 L18.289283752441406 11.505953788757324 C17.71612548828125 11.641841888427734 17.932239532470703 11.352926254272461 18.430694580078125 11.32292652130127 L18.430694580078125 11.32292652130127"></path>
<path fill="none" stroke="black" stroke-width=".3" stroke-opacity="1.0"  filling="0" d="M18.170618057250977 11.903318405151367 L18.170618057250977 11.903318405151367 C18.249326705932617 11.907546043395996 18.32803726196289 11.911772727966309 18.40674591064453 11.916000366210938 L18.40674591064453 11.916000366210938 C18.35110855102539 12.042872428894043 18.295473098754883 12.169745445251465 18.239835739135742 12.29661750793457 L18.239835739135742 12.29661750793457 C18.21676254272461 12.165517807006836 18.19369125366211 12.034418106079102 18.170618057250977 11.903318405151367 L18.170618057250977 11.903318405151367"></path></svg>