<svg xmlns="http://www.w3.org/2000/svg" viewBox="0.0 0.0 24.0 24.0" height="200px" width="200px"><path fill="none" stroke="black" stroke-width=".3" stroke-opacity="1.0"  filling="0" d="M14.11849308013916 11.643136978149414 L14.11849308013916 11.643136978149414 C14.146626472473145 12.047407150268555 14.015609741210938 12.446371078491211 14.21552848815918 12.809918403625488 L14.21552848815918 12.809918403625488 C14.21061897277832 12.818954467773438 14.205709457397461 12.827991485595703 14.200799942016602 12.837027549743652 L14.200799942016602 12.837027549743652 C14.005636215209961 12.837027549743652 13.810473442077637 12.837027549743652 13.615309715270996 12.837027549743652 L13.615309715270996 12.837027549743652 C13.680315017700195 12.48176097869873 13.839690208435059 12.189932823181152 13.737710952758789 11.744236946105957 L13.737710952758789 11.744236946105957 C13.69609260559082 11.728827476501465 13.654474258422852 11.713418960571289 13.612855911254883 11.698009490966797 L13.612855911254883 11.698009490966797 C13.61392879486084 11.688163757324219 13.615002632141113 11.678318977355957 13.61607551574707 11.668473243713379 L13.61607551574707 11.668473243713379 C13.783548355102539 11.660027503967285 13.951020240783691 11.651582717895508 14.11849308013916 11.643136978149414 L14.11849308013916 11.643136978149414"></path></svg>