<svg xmlns="http://www.w3.org/2000/svg" viewBox="0.0 0.0 24.0 24.0" height="200px" width="200px"><path fill="none" stroke="black" stroke-width=".3" stroke-opacity="1.0"  filling="0" d="M13.041954040527344 11.614690780639648 L13.041954040527344 11.614690780639648 C13.171430587768555 11.787242889404297 13.420669555664062 12.00410270690918 13.324226379394531 12.19707202911377 L13.324226379394531 12.19707202911377 C12.570137977600098 12.268072128295898 12.619084358215332 12.531810760498047 13.369363784790039 12.564573287963867 L13.369363784790039 12.564573287963867 C13.356527328491211 12.599645614624023 13.343690872192383 12.634718894958496 13.330854415893555 12.669791221618652 L13.330854415893555 12.669791221618652 C12.288580894470215 12.92042350769043 12.001708984375 11.7495698928833 13.041954040527344 11.614690780639648 L13.041954040527344 11.614690780639648"></path>
<path fill="none" stroke="black" stroke-width=".3" stroke-opacity="1.0"  filling="0" d="M12.887890815734863 11.796109199523926 L12.887890815734863 11.796109199523926 C12.94345474243164 11.887246131896973 12.999017715454102 11.978382110595703 13.054581642150879 12.06951904296875 L13.054581642150879 12.06951904296875 C12.923962593078613 12.084296226501465 12.781085968017578 12.103313446044922 12.66068172454834 12.05056381225586 L12.66068172454834 12.05056381225586 C12.705731391906738 11.946157455444336 12.784025192260742 11.842391014099121 12.887890815734863 11.796109199523926 L12.887890815734863 11.796109199523926"></path></svg>