<svg xmlns="http://www.w3.org/2000/svg" viewBox="0.0 0.0 24.0 24.0" height="200px" width="200px"><path fill="none" stroke="black" stroke-width=".3" stroke-opacity="1.0"  filling="0" d="M9.864272117614746 11.619436264038086 L9.864272117614746 11.619436264038086 C10.13930606842041 11.651771545410156 10.274016380310059 12.005379676818848 10.407490730285645 12.248018264770508 L10.407490730285645 12.248018264770508 C10.18019962310791 12.248018264770508 9.952909469604492 12.248018264770508 9.725618362426758 12.248018264770508 L9.725618362426758 12.248018264770508 C9.793217658996582 12.94036865234375 10.022711753845215 12.848453521728516 10.368572235107422 12.421582221984863 L10.368572235107422 12.421582221984863 C10.19865608215332 13.33790397644043 8.711847305297852 12.460203170776367 9.864272117614746 11.619436264038086 L9.864272117614746 11.619436264038086"></path>
<path fill="none" stroke="black" stroke-width=".3" stroke-opacity="1.0"  filling="0" d="M9.852272033691406 11.685354232788086 L9.852272033691406 11.685354232788086 C10.08147144317627 11.745450019836426 10.034499168395996 11.951268196105957 10.03636360168457 12.15523624420166 L10.03636360168457 12.15523624420166 C9.932373046875 12.15523624420166 9.828381538391113 12.15523624420166 9.724390983581543 12.15523624420166 L9.724390983581543 12.15523624420166 C9.743979454040527 11.994097709655762 9.755133628845215 11.81540584564209 9.852272033691406 11.685354232788086 L9.852272033691406 11.685354232788086"></path></svg>