<svg xmlns="http://www.w3.org/2000/svg" viewBox="0.0 0.0 24.0 24.0" height="200px" width="200px"><path fill="none" stroke="black" stroke-width=".3" stroke-opacity="1.0"  filling="0" d="M6.266918182373047 11.621918678283691 L6.266918182373047 11.621918678283691 C6.270145416259766 11.670136451721191 6.273372650146484 11.718354225158691 6.276599884033203 11.766571998596191 L6.276599884033203 11.766571998596191 C7.022573471069336 11.235955238342285 6.92772102355957 12.45630931854248 7.074409008026123 12.818181037902832 L7.074409008026123 12.818181037902832 C6.878902435302734 12.818037986755371 6.681443214416504 12.831475257873535 6.488100051879883 12.802472114562988 L6.488100051879883 12.802472114562988 C6.644540309906006 12.427077293395996 6.69985294342041 12.08422565460205 6.4662275314331055 11.730518341064453 L6.4662275314331055 11.730518341064453 C6.231941223144531 12.0837984085083 6.164957523345947 12.399567604064941 6.360627174377441 12.806317329406738 L6.360627174377441 12.806317329406738 C6.169963359832764 12.806317329406738 5.979300022125244 12.806317329406738 5.788636207580566 12.806317329406738 L5.788636207580566 12.806317329406738 C5.962427139282227 12.481447219848633 5.918179988861084 12.077025413513184 5.917827129364014 11.70859146118164 L5.917827129364014 11.70859146118164 C5.8691725730896 11.702281951904297 5.820518493652344 11.69597339630127 5.77186393737793 11.689663887023926 L5.77186393737793 11.689663887023926 C5.880191326141357 11.563148498535156 6.100364685058594 11.622859954833984 6.266918182373047 11.621918678283691 L6.266918182373047 11.621918678283691"></path></svg>