<svg xmlns="http://www.w3.org/2000/svg" viewBox="0.0 0.0 24.0 24.0" height="200px" width="200px"><path fill="none" stroke="black" stroke-width=".3" stroke-opacity="1.0"  filling="0" d="M5.088490962982178 11.614473342895508 L5.088490962982178 11.614473342895508 C5.52234411239624 11.67424488067627 5.64377498626709 11.812054634094238 5.708590984344482 12.245454788208008 L5.708590984344482 12.245454788208008 C4.719028949737549 12.245779991149902 4.967975616455078 12.959787368774414 5.6533637046813965 12.433855056762695 L5.6533637046813965 12.433855056762695 C5.664554595947266 12.443781852722168 5.675745487213135 12.453709602355957 5.686936378479004 12.46363639831543 L5.686936378479004 12.46363639831543 C5.216265678405762 13.398890495300293 4.080235958099365 12.310059547424316 5.088490962982178 11.614473342895508 L5.088490962982178 11.614473342895508"></path>
<path fill="none" stroke="black" stroke-width=".3" stroke-opacity="1.0"  filling="0" d="M5.177509307861328 11.674254417419434 L5.177509307861328 11.674254417419434 C5.305543422698975 11.783309936523438 5.310831069946289 11.987221717834473 5.334654331207275 12.153709411621094 L5.334654331207275 12.153709411621094 C5.223508834838867 12.153717994689941 5.112363338470459 12.153727531433105 5.001217842102051 12.153736114501953 L5.001217842102051 12.153736114501953 C5.021042346954346 11.98460578918457 5.044341564178467 11.780387878417969 5.177509307861328 11.674254417419434 L5.177509307861328 11.674254417419434"></path></svg>