<svg xmlns="http://www.w3.org/2000/svg" viewBox="0.0 0.0 24.0 24.0" height="200px" width="200px"><path fill="none" stroke="black" stroke-width=".3" stroke-opacity="1.0"  filling="0" d="M11.830389976501465 11.965717315673828 L11.830389976501465 11.965717315673828 C11.865008354187012 12.035990715026855 11.899626731872559 12.106263160705566 11.934245109558105 12.176536560058594 L11.934245109558105 12.176536560058594 C11.95277214050293 12.110390663146973 11.971299171447754 12.044245719909668 11.989826202392578 11.978099822998047 L11.989826202392578 11.978099822998047 C11.964062690734863 12.07909107208252 11.938298225402832 12.180081367492676 11.912534713745117 12.281072616577148 L11.912534713745117 12.281072616577148 C11.88169002532959 12.21438217163086 11.850844383239746 12.147690773010254 11.819999694824219 12.081000328063965 L11.819999694824219 12.081000328063965 C11.789090156555176 12.153990745544434 11.75818157196045 12.226982116699219 11.727272033691406 12.299972534179688 L11.727272033691406 12.299972534179688 C11.718181610107422 12.299981117248535 11.709091186523438 12.2999906539917 11.700000762939453 12.299999237060547 L11.700000762939453 12.299999237060547 C11.672709465026855 12.197490692138672 11.645418167114258 12.09498119354248 11.61812686920166 11.992472648620605 L11.61812686920166 11.992472648620605 C11.680154800415039 12.027052879333496 11.717312812805176 12.101750373840332 11.73518180847168 12.170480728149414 L11.73518180847168 12.170480728149414 C11.766918182373047 12.102226257324219 11.798653602600098 12.033971786499023 11.830389976501465 11.965717315673828 L11.830389976501465 11.965717315673828"></path></svg>