<svg xmlns="http://www.w3.org/2000/svg" viewBox="0.0 0.0 24.0 24.0" height="200px" width="200px"><path fill="none" stroke="black" stroke-width=".3" stroke-opacity="1.0"  filling="0" d="M8.309700012207031 10.854436874389648 L8.309700012207031 10.854436874389648 C8.677214622497559 11.155397415161133 8.655691146850586 12.231815338134766 8.804972648620605 12.609463691711426 L8.804972648620605 12.609463691711426 C8.85202693939209 12.440718650817871 8.89822769165039 12.271732330322266 8.946136474609375 12.103227615356445 C9.652652740478516 9.618268966674805 9.894811630249023 11.478649139404297 10.3548002243042 12.612409591674805 L10.3548002243042 12.612409591674805 C10.489500045776367 12.037981986999512 10.624199867248535 11.463555335998535 10.758899688720703 10.889127731323242 L10.758899688720703 10.889127731323242 C10.921408653259277 10.889127731323242 11.083918571472168 10.889127731323242 11.246427536010742 10.889127731323242 L11.246427536010742 10.889127731323242 C11.041624069213867 11.641484260559082 10.835623741149902 12.393515586853027 10.628399848937988 13.145208358764648 L10.628399848937988 13.145208358764648 C9.418997764587402 13.14570426940918 10.173189163208008 12.147699356079102 9.546027183532715 11.434444427490234 L9.546027183532715 11.434444427490234 C9.38856315612793 12.002790451049805 9.231100082397461 12.571135520935059 9.073636054992676 13.139481544494629 L9.073636054992676 13.139481544494629 C8.872490882873535 13.139481544494629 8.671344757080078 13.139482498168945 8.470199584960938 13.139482498168945 L8.470199584960938 13.139482498168945 C8.263614654541016 12.377889633178711 8.057024002075195 11.61629867553711 7.850427150726318 10.85470962524414 L7.850427150726318 10.85470962524414 C8.003518104553223 10.854619026184082 8.156608581542969 10.854527473449707 8.309700012207031 10.854436874389648 L8.309700012207031 10.854436874389648"></path></svg>