<svg xmlns="http://www.w3.org/2000/svg" viewBox="0.0 0.0 24.0 24.0" height="200px" width="200px"><path fill="none" stroke="black" stroke-width=".3" stroke-opacity="1.0"  filling="0" d="M14.5457181930542 11.537590980529785 L14.5457181930542 11.537590980529785 C15.24500846862793 11.874706268310547 15.61439037322998 13.072782516479492 14.61600112915039 13.16367244720459 L14.61600112915039 13.16367244720459 C14.615761756896973 11.608015060424805 13.96686840057373 11.566948890686035 13.963663101196289 13.135390281677246 L13.963663101196289 13.135390281677246 C13.789408683776855 13.135390281677246 13.615154266357422 13.135390281677246 13.440899848937988 13.135390281677246 L13.440899848937988 13.135390281677246 C13.45231819152832 12.615381240844727 13.463736534118652 12.095373153686523 13.475154876708984 11.575364112854004 L13.475154876708984 11.575364112854004 C13.635128021240234 11.575364112854004 13.795100212097168 11.575364112854004 13.955073356628418 11.575364112854004 L13.955073356628418 11.575364112854004 C13.961445808410645 11.639617919921875 13.967819213867188 11.703872680664062 13.974191665649414 11.768126487731934 L13.974191665649414 11.768126487731934 C14.164700508117676 11.69128131866455 14.355209350585938 11.614436149597168 14.5457181930542 11.537590980529785 L14.5457181930542 11.537590980529785"></path></svg>