<svg xmlns="http://www.w3.org/2000/svg" viewBox="0.0 0.0 24.0 24.0" height="200px" width="200px"><path fill="none" stroke="black" stroke-width=".3" stroke-opacity="1.0"  filling="0" d="M10.85855484008789 11.345780372619629 L10.85855484008789 11.345780372619629 C11.278428077697754 11.752054214477539 10.298839569091797 12.323978424072266 10.013481140136719 12.626208305358887 L10.013481140136719 12.626208305358887 C10.34626293182373 12.626208305358887 10.679044723510742 12.626208305358887 11.011826515197754 12.626208305358887 L11.011826515197754 12.626208305358887 C11.011826515197754 12.723371505737305 11.011826515197754 12.820535659790039 11.011826515197754 12.917698860168457 L11.011826515197754 12.917698860168457 C10.518208503723145 12.917698860168457 10.024590492248535 12.917699813842773 9.530972480773926 12.917699813842773 L9.530972480773926 12.917699813842773 C9.722530364990234 12.341065406799316 10.1106538772583 12.137213706970215 10.472917556762695 11.650117874145508 L10.472917556762695 11.650117874145508 C10.170153617858887 11.650117874145508 9.867390632629395 11.650117874145508 9.564626693725586 11.650117874145508 L9.564626693725586 11.650117874145508 C9.412176132202148 11.234091758728027 10.415475845336914 11.345951080322266 10.85855484008789 11.345780372619629 L10.85855484008789 11.345780372619629"></path></svg>