<svg xmlns="http://www.w3.org/2000/svg" viewBox="0.0 0.0 24.0 24.0" height="200px" width="200px"><path fill="none" stroke="black" stroke-width=".3" stroke-opacity="1.0"  filling="0" d="M5.0894999504089355 11.587118148803711 L5.0894999504089355 11.587118148803711 C5.2995452880859375 11.795654296875 5.509591102600098 12.004190444946289 5.7196364402771 12.212726593017578 L5.7196364402771 12.212726593017578 C5.498145580291748 12.212726593017578 5.2766547203063965 12.212726593017578 5.055163860321045 12.212726593017578 L5.055163860321045 12.212726593017578 C5.090208530426025 12.844345092773438 5.339804649353027 12.824370384216309 5.666808605194092 12.402626991271973 L5.666808605194092 12.402626991271973 C5.682581424713135 12.413972854614258 5.698354721069336 12.425317764282227 5.714127540588379 12.436663627624512 L5.714127540588379 12.436663627624512 C5.266245365142822 13.324044227600098 4.235944747924805 12.402478218078613 5.0894999504089355 11.587118148803711 L5.0894999504089355 11.587118148803711"></path>
<path fill="none" stroke="black" stroke-width=".3" stroke-opacity="1.0"  filling="0" d="M5.2067179679870605 11.64586353302002 L5.2067179679870605 11.64586353302002 C5.328035831451416 11.762359619140625 5.338299751281738 11.960074424743652 5.3586273193359375 12.127036094665527 L5.3586273193359375 12.127036094665527 C5.25012731552124 12.127036094665527 5.141627311706543 12.127036094665527 5.033127307891846 12.127036094665527 L5.033127307891846 12.127036094665527 C5.052226543426514 11.957599639892578 5.081784248352051 11.761902809143066 5.2067179679870605 11.64586353302002 L5.2067179679870605 11.64586353302002"></path></svg>