<svg xmlns="http://www.w3.org/2000/svg" viewBox="0.0 0.0 24.0 24.0" height="200px" width="200px"><path fill="none" stroke="black" stroke-width=".3" stroke-opacity="1.0"  filling="0" d="M13.307644844055176 11.556873321533203 L13.307644844055176 11.556873321533203 C13.906045913696289 11.560331344604492 14.570566177368164 11.69491958618164 14.423972129821777 12.463691711425781 L14.423972129821777 12.463691711425781 C14.057229995727539 12.463691711425781 13.689861297607422 12.451345443725586 13.323516845703125 12.464373588562012 L13.323516845703125 12.464373588562012 C13.640825271606445 13.354204177856445 13.869324684143066 12.282953262329102 14.396781921386719 12.69302749633789 L14.396781921386719 12.69302749633789 C13.261885643005371 13.626239776611328 12.216094017028809 12.543615341186523 13.307644844055176 11.556873321533203 L13.307644844055176 11.556873321533203"></path>
<path fill="none" stroke="black" stroke-width=".3" stroke-opacity="1.0"  filling="0" d="M13.514973640441895 11.813236236572266 L13.514973640441895 11.813236236572266 C13.65399169921875 11.922154426574707 13.793009757995605 12.031072616577148 13.932027816772461 12.13999080657959 L13.932027816772461 12.13999080657959 C13.729127883911133 12.148063659667969 13.526226997375488 12.156135559082031 13.32332706451416 12.16420841217041 L13.32332706451416 12.16420841217041 C13.387208938598633 12.04721736907959 13.451091766357422 11.930227279663086 13.514973640441895 11.813236236572266 L13.514973640441895 11.813236236572266"></path></svg>