<svg xmlns="http://www.w3.org/2000/svg" viewBox="0.0 0.0 24.0 24.0" height="200px" width="200px"><path fill="none" stroke="black" stroke-width=".3" stroke-opacity="1.0"  filling="0" d="M25.0854549407959 11.238518714904785 L25.0854549407959 11.238518714904785 C25.23272705078125 11.24690055847168 25.380001068115234 11.255281448364258 25.527273178100586 11.263663291931152 L25.527273178100586 11.263663291931152 C25.527273178100586 11.57275390625 25.527273178100586 11.881845474243164 25.527273178100586 12.190936088562012 L25.527273178100586 12.190936088562012 C25.31215476989746 12.190045356750488 25.097034454345703 12.189155578613281 24.881916046142578 12.188264846801758 L24.881916046142578 12.188264846801758 C24.97008514404297 12.54568099975586 25.173900604248047 12.8151216506958 25.527273178100586 12.38184642791748 L25.527273178100586 12.38184642791748 C25.527273178100586 12.545473098754883 25.527273178100586 12.709100723266602 25.527273178100586 12.872727394104004 L25.527273178100586 12.872727394104004 C24.170820236206055 13.020880699157715 23.98853302001953 11.752779006958008 25.0854549407959 11.238518714904785 L25.0854549407959 11.238518714904785"></path>
<path fill="none" stroke="black" stroke-width=".3" stroke-opacity="1.0"  filling="0" d="M25.401926040649414 11.604135513305664 L25.401926040649414 11.604135513305664 C25.441089630126953 11.694535255432129 25.480253219604492 11.78493595123291 25.51941680908203 11.875335693359375 L25.51941680908203 11.875335693359375 C25.074003219604492 11.907352447509766 24.428030014038086 11.915472984313965 25.401926040649414 11.604135513305664 L25.401926040649414 11.604135513305664"></path></svg>