<svg xmlns="http://www.w3.org/2000/svg" viewBox="0.0 0.0 24.0 24.0" height="200px" width="200px"><path fill="none" stroke="black" stroke-width=".3" stroke-opacity="1.0"  filling="0" d="M15.803153991699219 10.854546546936035 L15.803153991699219 10.854546546936035 C16.053627014160156 10.854546546936035 16.304100036621094 10.854546546936035 16.55457305908203 10.854546546936035 L16.55457305908203 10.854546546936035 C16.55457305908203 10.97272777557373 16.55457305908203 11.090909957885742 16.55457305908203 11.209091186523438 L16.55457305908203 11.209091186523438 C16.479015350341797 11.236254692077637 16.396892547607422 11.24073600769043 16.317028045654297 11.249018669128418 L16.317028045654297 11.249018669128418 C16.317028045654297 11.426618576049805 16.317028045654297 11.604219436645508 16.317028045654297 11.781819343566895 L16.317028045654297 11.781819343566895 C16.396209716796875 11.781819343566895 16.475391387939453 11.781819343566895 16.55457305908203 11.781819343566895 L16.55457305908203 11.781819343566895 C16.55457305908203 11.90000057220459 16.55457305908203 12.018182754516602 16.55457305908203 12.136363983154297 L16.55457305908203 12.136363983154297 C16.46753692626953 12.136363983154297 16.38050079345703 12.136363983154297 16.29346466064453 12.136363983154297 L16.29346466064453 12.136363983154297 C16.29346466064453 12.345455169677734 16.29346466064453 12.554546356201172 16.29346466064453 12.76363754272461 L16.29346466064453 12.76363754272461 C16.38050079345703 12.76363754272461 16.46753692626953 12.76363754272461 16.55457305908203 12.76363754272461 L16.55457305908203 12.76363754272461 C16.554563522338867 12.890910148620605 16.554555892944336 13.018181800842285 16.554546356201172 13.145454406738281 L16.554546356201172 13.145454406738281 C15.169546127319336 13.144660949707031 15.719810485839844 11.924861907958984 15.803153991699219 10.854546546936035 L15.803153991699219 10.854546546936035"></path></svg>