<svg xmlns="http://www.w3.org/2000/svg" viewBox="0.0 0.0 24.0 24.0" height="200px" width="200px"><path fill="none" stroke="black" stroke-width=".3" stroke-opacity="1.0"  filling="0" d="M16.297744750976562 11.484708786010742 L16.297744750976562 11.484708786010742 C16.964862823486328 11.531946182250977 17.163137435913086 11.795437812805176 17.23088264465332 12.439390182495117 L17.23088264465332 12.439390182495117 C16.846914291381836 12.440156936645508 16.381446838378906 12.250134468078613 16.079999923706055 12.48796272277832 L16.079999923706055 12.48796272277832 C16.128421783447266 13.087449073791504 16.78219223022461 12.683820724487305 17.164581298828125 12.681981086730957 L17.164581298828125 12.681981086730957 C16.098339080810547 13.78448486328125 14.921582221984863 12.463249206542969 16.297744750976562 11.484708786010742 L16.297744750976562 11.484708786010742"></path>
<path fill="none" stroke="black" stroke-width=".3" stroke-opacity="1.0"  filling="0" d="M16.559043884277344 11.813154220581055 L16.559043884277344 11.813154220581055 C16.6105899810791 11.918526649475098 16.66213607788086 12.023900032043457 16.713682174682617 12.1292724609375 L16.713682174682617 12.1292724609375 C16.509918212890625 12.1292724609375 16.306154251098633 12.1292724609375 16.10239028930664 12.1292724609375 L16.10239028930664 12.1292724609375 C16.164350509643555 11.954817771911621 16.37394905090332 11.816793441772461 16.559043884277344 11.813154220581055 L16.559043884277344 11.813154220581055"></path></svg>