<svg xmlns="http://www.w3.org/2000/svg" viewBox="0.0 0.0 24.0 24.0" height="200px" width="200px"><path fill="none" stroke="black" stroke-width=".3" stroke-opacity="1.0"  filling="0" d="M11.234618186950684 11.310380935668945 L11.234618186950684 11.310380935668945 C11.456245422363281 11.396371841430664 11.677872657775879 11.482362747192383 11.899499893188477 11.568353652954102 L11.899499893188477 11.568353652954102 C11.848379135131836 11.982157707214355 11.863663673400879 12.393872261047363 11.863663673400879 12.810925483703613 L11.863663673400879 12.810925483703613 C11.901300430297852 12.81584358215332 11.938936233520508 12.820761680603027 11.97657299041748 12.825679779052734 L11.97657299041748 12.825679779052734 C11.883936882019043 12.926898002624512 11.791299819946289 13.028116226196289 11.698663711547852 13.129334449768066 L11.698663711547852 13.129334449768066 C11.595718383789062 13.050907135009766 11.492773056030273 12.972479820251465 11.389827728271484 12.894052505493164 L11.389827728271484 12.894052505493164 C11.292282104492188 12.996552467346191 11.19473648071289 13.099052429199219 11.097190856933594 13.201552391052246 L11.097190856933594 13.201552391052246 C10.930810928344727 12.791202545166016 10.933802604675293 12.618141174316406 10.8934907913208 12.204351425170898 L10.8934907913208 12.204351425170898 C10.994547843933105 12.121429443359375 11.109574317932129 12.042771339416504 11.23756217956543 12.016169548034668 L11.23756217956543 12.016169548034668 C11.227316856384277 12.25849723815918 11.217071533203125 12.500824928283691 11.206826210021973 12.743152618408203 L11.206826210021973 12.743152618408203 C11.73443603515625 13.083874702453613 11.788503646850586 11.662522315979004 11.126973152160645 11.567344665527344 L11.126973152160645 11.567344665527344 C11.16285514831543 11.481690406799316 11.198736190795898 11.396035194396973 11.234618186950684 11.310380935668945 L11.234618186950684 11.310380935668945"></path></svg>