<svg xmlns="http://www.w3.org/2000/svg" viewBox="0.0 0.0 24.0 24.0" height="200px" width="200px"><path fill="none" stroke="black" stroke-width=".3" stroke-opacity="1.0"  filling="0" d="M6.925390720367432 11.211081504821777 L6.925390720367432 11.211081504821777 C7.010254383087158 11.30152702331543 7.095118522644043 11.391972541809082 7.1799821853637695 11.482418060302734 L7.1799821853637695 11.482418060302734 C7.095472812652588 11.579354286193848 7.0109639167785645 11.676290512084961 6.926454544067383 11.773226737976074 L6.926454544067383 11.773226737976074 C6.844118118286133 11.704035758972168 6.761782169342041 11.634844779968262 6.679445743560791 11.565653800964355 L6.679445743560791 11.565653800964355 C6.564929485321045 11.891929626464844 6.330695629119873 12.704961776733398 6.808854103088379 12.7720365524292 L6.808854103088379 12.7720365524292 C6.699063301086426 12.903645515441895 6.5892720222473145 13.035255432128906 6.479481220245361 13.166864395141602 L6.479481220245361 13.166864395141602 C6.469753742218018 13.157136917114258 6.460026741027832 13.147409439086914 6.450299263000488 13.13768196105957 L6.450299263000488 13.13768196105957 C6.345581531524658 13.04454517364502 6.24086332321167 12.951409339904785 6.13614559173584 12.858272552490234 L6.13614559173584 12.858272552490234 C6.405420303344727 12.430695533752441 6.42844820022583 11.905094146728516 6.1419267654418945 11.474535942077637 L6.1419267654418945 11.474535942077637 C6.130645275115967 11.460736274719238 6.119363307952881 11.446935653686523 6.108081817626953 11.433135986328125 L6.108081817626953 11.433135986328125 C6.210245132446289 11.370736122131348 6.312408924102783 11.30833625793457 6.414572238922119 11.245936393737793 L6.414572238922119 11.245936393737793 C6.479563236236572 11.348753929138184 6.544554710388184 11.45157241821289 6.609545707702637 11.554389953613281 L6.609545707702637 11.554389953613281 C6.714827537536621 11.439953804016113 6.820108890533447 11.325517654418945 6.925390720367432 11.211081504821777 L6.925390720367432 11.211081504821777"></path></svg>