<svg xmlns="http://www.w3.org/2000/svg" viewBox="0.0 0.0 24.0 24.0" height="200px" width="200px"><path fill="none" stroke="black" stroke-width=".3" stroke-opacity="1.0"  filling="0" d="M9.73279094696045 10.8301362991333 L9.73279094696045 10.8301362991333 C10.771469116210938 10.896838188171387 10.237041473388672 11.880841255187988 10.719109535217285 12.593755722045898 L10.719109535217285 12.593755722045898 C10.855063438415527 12.008153915405273 10.785926818847656 11.322543144226074 11.14669132232666 10.841646194458008 L11.14669132232666 10.841646194458008 C11.305978775024414 10.849752426147461 11.465507507324219 10.854142189025879 11.625 10.854437828063965 L11.625 10.854437828063965 C11.409574508666992 11.627156257629395 11.194148063659668 12.399873733520508 10.978718757629395 13.172591209411621 L10.978718757629395 13.172591209411621 C9.954195022583008 13.17197036743164 10.128604888916016 12.282461166381836 9.928500175476074 11.3992919921875 L9.928500175476074 11.3992919921875 C9.914127349853516 11.399364471435547 9.899755477905273 11.399436950683594 9.885382652282715 11.39950942993164 L9.885382652282715 11.39950942993164 C9.719791412353516 11.990545272827148 9.554200172424316 12.581582069396973 9.388608932495117 13.17261791229248 L9.388608932495117 13.17261791229248 C8.319159507751465 13.169631004333496 8.301338195800781 11.721595764160156 8.17988109588623 10.833354949951172 L8.17988109588623 10.833354949951172 C9.141663551330566 10.835466384887695 8.902520179748535 11.770513534545898 9.097744941711426 12.582000732421875 L9.097744941711426 12.582000732421875 C9.635193824768066 12.212813377380371 9.201321601867676 11.24131965637207 9.73279094696045 10.8301362991333 L9.73279094696045 10.8301362991333"></path></svg>