<svg xmlns="http://www.w3.org/2000/svg" viewBox="0.0 0.0 24.0 24.0" height="200px" width="200px"><path fill="none" stroke="black" stroke-width=".3" stroke-opacity="1.0"  filling="0" d="M7.9064459800720215 10.884490013122559 L7.9064459800720215 10.884490013122559 C7.914473056793213 10.887681007385254 7.9225006103515625 10.890872955322266 7.930527687072754 10.894063949584961 L7.930527687072754 10.894063949584961 C7.936176776885986 11.03411865234375 7.93756628036499 11.17436408996582 7.936391353607178 11.31452751159668 L7.936391353607178 11.31452751159668 C8.05380916595459 11.31452751159668 8.17122745513916 11.31452751159668 8.28864574432373 11.31452751159668 L8.28864574432373 11.31452751159668 C8.171627044677734 11.389527320861816 8.054609298706055 11.46452808380127 7.937591075897217 11.539527893066406 L7.937591075897217 11.539527893066406 C7.936177730560303 11.632326126098633 7.698701858520508 12.978386878967285 8.164773941040039 12.803237915039062 L8.164773941040039 12.803237915039062 C8.033846855163574 12.938583374023438 7.902919292449951 13.073928833007812 7.771991729736328 13.209274291992188 L7.771991729736328 13.209274291992188 C7.791000843048096 13.176283836364746 7.810009479522705 13.143292427062988 7.829018592834473 13.110301971435547 L7.829018592834473 13.110301971435547 C7.697418689727783 13.049701690673828 7.565818786621094 12.989102363586426 7.434218883514404 12.928502082824707 L7.434218883514404 12.928502082824707 C7.729211330413818 12.51911449432373 7.972598552703857 11.573938369750977 7.32163667678833 11.509062767028809 L7.32163667678833 11.509062767028809 C7.368327617645264 11.446825981140137 7.415018558502197 11.384590148925781 7.461709499359131 11.32235336303711 L7.461709499359131 11.32235336303711 C7.506809234619141 11.319626808166504 7.551909446716309 11.316899299621582 7.597009181976318 11.314172744750977 L7.597009181976318 11.314172744750977 C7.623960971832275 11.139739990234375 7.754622936248779 10.974506378173828 7.9064459800720215 10.884490013122559 L7.9064459800720215 10.884490013122559"></path></svg>