<svg xmlns="http://www.w3.org/2000/svg" viewBox="0.0 0.0 24.0 24.0" height="200px" width="200px"><path fill="none" stroke="black" stroke-width=".3" stroke-opacity="1.0"  filling="0" d="M5.901081085205078 11.253135681152344 L5.901081085205078 11.253135681152344 C5.9936089515686035 11.504478454589844 6.032303333282471 11.901673316955566 5.810290813446045 12.05148983001709 L5.810290813446045 12.05148983001709 C5.768486976623535 11.8698148727417 5.696083068847656 11.692985534667969 5.599827289581299 11.53333568572998 L5.599827289581299 11.53333568572998 C5.599827289581299 11.742098808288574 5.599827289581299 11.950862884521484 5.599827289581299 12.159626007080078 L5.599827289581299 12.159626007080078 C5.632336139678955 12.15223503112793 5.6648454666137695 12.144845008850098 5.697354316711426 12.13745403289795 L5.697354316711426 12.13745403289795 C5.661881446838379 12.176599502563477 5.62640905380249 12.21574592590332 5.590936183929443 12.254891395568848 L5.590936183929443 12.254891395568848 C5.589502334594727 12.632673263549805 5.7574357986450195 12.698221206665039 6.0965728759765625 12.785699844360352 L6.0965728759765625 12.785699844360352 C5.977190971374512 12.908181190490723 5.857809066772461 13.03066349029541 5.73842716217041 13.153144836425781 L5.73842716217041 13.153144836425781 C5.6134796142578125 13.002257347106934 5.424651622772217 12.89238452911377 5.232545375823975 12.85399055480957 L5.232545375823975 12.85399055480957 C5.362086296081543 12.437925338745117 5.332249641418457 12.026994705200195 5.304162979125977 11.59412670135498 L5.304162979125977 11.59412670135498 C5.503135681152344 11.480463027954102 5.702108383178711 11.366799354553223 5.901081085205078 11.253135681152344 L5.901081085205078 11.253135681152344"></path></svg>