<svg xmlns="http://www.w3.org/2000/svg" viewBox="0.0 0.0 24.0 24.0" height="200px" width="200px"><path fill="none" stroke="black" stroke-width=".3" stroke-opacity="1.0"  filling="0" d="M9.473373413085938 11.353663444519043 L9.473373413085938 11.353663444519043 C9.958918571472168 11.353663444519043 10.444463729858398 11.353663444519043 10.930008888244629 11.353663444519043 L10.930008888244629 11.353663444519043 C10.92421817779541 11.455390930175781 10.918427467346191 11.557117462158203 10.912636756896973 11.658844947814941 L10.912636756896973 11.658844947814941 C10.58632755279541 11.987826347351074 10.260018348693848 12.316808700561523 9.933709144592285 12.645790100097656 L9.933709144592285 12.645790100097656 C10.274567604064941 12.65131664276123 10.615478515625 12.654279708862305 10.956381797790527 12.654572486877441 L10.956381797790527 12.654572486877441 C10.956381797790527 12.751108169555664 10.956381797790527 12.847644805908203 10.956381797790527 12.944180488586426 L10.956381797790527 12.944180488586426 C10.449745178222656 12.944180488586426 9.943109512329102 12.944181442260742 9.43647289276123 12.944181442260742 L9.43647289276123 12.944181442260742 C9.443734169006348 12.346467018127441 10.079288482666016 12.094677925109863 10.411991119384766 11.651971817016602 L10.411991119384766 11.651971817016602 C10.09911823272705 11.651971817016602 9.786246299743652 11.651971817016602 9.473373413085938 11.651971817016602 L9.473373413085938 11.651971817016602 C9.473373413085938 11.552536010742188 9.473373413085938 11.453099250793457 9.473373413085938 11.353663444519043 L9.473373413085938 11.353663444519043"></path></svg>