<svg xmlns="http://www.w3.org/2000/svg" viewBox="0.0 0.0 24.0 24.0" height="200px" width="200px"><path fill="none" stroke="black" stroke-width=".3" stroke-opacity="1.0"  filling="0" d="M9.565635681152344 11.232190132141113 L9.565635681152344 11.232190132141113 C9.785654067993164 11.318272590637207 10.005672454833984 11.404354095458984 10.225690841674805 11.490436553955078 L10.225690841674805 11.490436553955078 C10.206177711486816 11.91858196258545 10.047758102416992 12.41153621673584 10.27442741394043 12.775280952453613 L10.27442741394043 12.775280952453613 C10.186017990112305 12.875008583068848 10.09760856628418 12.974735260009766 10.009199142456055 13.074462890625 L10.009199142456055 13.074462890625 C9.711821556091309 12.791361808776855 9.713648796081543 12.848971366882324 9.400336265563965 13.135936737060547 L9.400336265563965 13.135936737060547 C9.331899642944336 13.057900428771973 9.263463973999023 12.979864120483398 9.195027351379395 12.901827812194824 L9.195027351379395 12.901827812194824 C9.194618225097656 12.643199920654297 9.194209098815918 12.384572982788086 9.19379997253418 12.125945091247559 L9.19379997253418 12.125945091247559 C9.267509460449219 12.073144912719727 9.341217994689941 12.020345687866211 9.41492748260498 11.967545509338379 L9.41492748260498 11.967545509338379 C9.454582214355469 11.962836265563965 9.494236946105957 11.95812702178955 9.533891677856445 11.953417778015137 L9.533891677856445 11.953417778015137 C10.0550537109375 13.709107398986816 9.900333404541016 11.620686531066895 9.444981575012207 11.482391357421875 L9.444981575012207 11.482391357421875 C9.485199928283691 11.398990631103516 9.52541732788086 11.315590858459473 9.565635681152344 11.232190132141113 L9.565635681152344 11.232190132141113"></path></svg>