<svg xmlns="http://www.w3.org/2000/svg" viewBox="0.0 0.0 24.0 24.0" height="200px" width="200px"><path fill="none" stroke="black" stroke-width=".3" stroke-opacity="1.0"  filling="0" d="M4.952862739562988 11.561781883239746 L4.952862739562988 11.561781883239746 C5.142819881439209 11.824952125549316 5.344695091247559 12.116098403930664 5.374908924102783 12.439253807067871 L5.374908924102783 12.439253807067871 C4.981654167175293 12.439253807067871 4.588399887084961 12.439253807067871 4.195145130157471 12.439253807067871 L4.195145130157471 12.439253807067871 C4.263058662414551 13.122957229614258 4.888453006744385 12.655657768249512 5.304600238800049 12.654600143432617 L5.304600238800049 12.654600143432617 C4.725955963134766 14.315086364746094 2.7483973503112793 12.030075073242188 4.019863605499268 11.60228157043457 C4.31490421295166 11.503013610839844 4.641862869262695 11.575282096862793 4.952862739562988 11.561781883239746 L4.952862739562988 11.561781883239746"></path>
<path fill="none" stroke="black" stroke-width=".3" stroke-opacity="1.0"  filling="0" d="M4.3001179695129395 11.823709487915039 L4.3001179695129395 11.823709487915039 C4.501387119293213 11.829776763916016 4.76499080657959 11.935921669006348 4.821218490600586 12.1292724609375 L4.821218490600586 12.1292724609375 C4.616591453552246 12.1292724609375 4.411963939666748 12.129273414611816 4.207336902618408 12.129273414611816 L4.207336902618408 12.129273414611816 C4.238264083862305 12.027419090270996 4.269190788269043 11.92556381225586 4.3001179695129395 11.823709487915039 L4.3001179695129395 11.823709487915039"></path></svg>