<svg xmlns="http://www.w3.org/2000/svg" viewBox="0.0 0.0 24.0 24.0" height="200px" width="200px"><path fill="none" stroke="black" stroke-width=".3" stroke-opacity="1.0"  filling="0" d="M12.441437721252441 12.456846237182617 L12.441437721252441 12.456846237182617 C12.337420463562012 13.670681953430176 11.502952575683594 12.955737113952637 11.995254516601562 12.466609001159668 L11.995254516601562 12.466609001159668 C11.995254516601562 12.525472640991211 11.995254516601562 12.58433723449707 11.995254516601562 12.643200874328613 L11.995254516601562 12.643200874328613 C11.789133071899414 13.027616500854492 12.261096954345703 13.066104888916016 12.380427360534668 12.664281845092773 L12.380427360534668 12.664281845092773 C12.337891578674316 12.660445213317871 12.295354843139648 12.656609535217285 12.252819061279297 12.652772903442383 L12.252819061279297 12.652772903442383 C12.206992149353027 12.695073127746582 12.161164283752441 12.737372398376465 12.115337371826172 12.779672622680664 L12.115337371826172 12.779672622680664 C12.115337371826172 12.68239974975586 12.115337371826172 12.585127830505371 12.115337371826172 12.487854957580566 L12.115337371826172 12.487854957580566 C12.224037170410156 12.477519035339355 12.332737922668457 12.467182159423828 12.441437721252441 12.456846237182617 L12.441437721252441 12.456846237182617"></path></svg>