<svg xmlns="http://www.w3.org/2000/svg" viewBox="0.0 0.0 24.0 24.0" height="200px" width="200px"><path fill="none" stroke="black" stroke-width=".3" stroke-opacity="1.0"  filling="0" d="M11.971610069274902 10.474882125854492 L11.971610069274902 10.474882125854492 C11.971610069274902 10.799345970153809 11.971610069274902 11.123809814453125 11.971610069274902 11.448273658752441 L11.971610069274902 11.448273658752441 C12.063000679016113 11.376300811767578 12.154391288757324 11.304327964782715 12.245781898498535 11.232355117797852 L12.245781898498535 11.232355117797852 C12.365900039672852 11.303264617919922 12.486019134521484 11.374173164367676 12.6061372756958 11.445082664489746 L12.6061372756958 11.445082664489746 C12.552977561950684 11.847421646118164 12.454166412353516 12.331358909606934 12.609220504760742 12.71318244934082 L12.609220504760742 12.71318244934082 C12.392539024353027 12.846919059753418 12.175856590270996 12.9806547164917 11.959175109863281 13.114391326904297 L11.959175109863281 13.114391326904297 C11.84221076965332 12.988118171691895 11.72524642944336 12.861845970153809 11.608282089233398 12.735572814941406 L11.608282089233398 12.735572814941406 C11.721254348754883 12.084163665771484 11.646320343017578 11.354002952575684 11.645809173583984 10.699091911315918 L11.645809173583984 10.699091911315918 C11.754409790039062 10.62435531616211 11.863009452819824 10.5496187210083 11.971610069274902 10.474882125854492 L11.971610069274902 10.474882125854492"></path>
<path fill="none" stroke="black" stroke-width=".3" stroke-opacity="1.0"  filling="0" d="M12.039355278015137 11.547789573669434 L12.039355278015137 11.547789573669434 C12.110482215881348 11.572966575622559 12.178165435791016 11.609288215637207 12.240081787109375 11.6524076461792 L12.240081787109375 11.6524076461792 C12.240081787109375 12.064962387084961 12.240081787109375 12.477518081665039 12.240081787109375 12.8900728225708 L12.240081787109375 12.8900728225708 C11.833917617797852 12.54102611541748 11.736884117126465 12.082598686218262 12.039355278015137 11.547789573669434 L12.039355278015137 11.547789573669434"></path></svg>