<svg xmlns="http://www.w3.org/2000/svg" viewBox="0.0 0.0 24.0 24.0" height="200px" width="200px"><path fill="none" stroke="black" stroke-width=".3" stroke-opacity="1.0"  filling="0" d="M13.518518447875977 11.482362747192383 L13.518518447875977 11.482362747192383 C14.14476490020752 11.526114463806152 14.416691780090332 11.815768241882324 14.521172523498535 12.4326810836792 L14.521172523498535 12.4326810836792 C14.13394546508789 12.4326810836792 13.746718406677246 12.4326810836792 13.359491348266602 12.4326810836792 L13.359491348266602 12.4326810836792 C13.50436019897461 12.917036056518555 13.619799613952637 13.006003379821777 14.00359058380127 12.653562545776367 L14.00359058380127 12.653562545776367 C14.144572257995605 12.66252613067627 14.285554885864258 12.671489715576172 14.426536560058594 12.680453300476074 L14.426536560058594 12.680453300476074 C13.324434280395508 13.8048734664917 12.132664680480957 12.45613956451416 13.518518447875977 11.482362747192383 L13.518518447875977 11.482362747192383"></path>
<path fill="none" stroke="black" stroke-width=".3" stroke-opacity="1.0"  filling="0" d="M13.46086311340332 11.819999694824219 L13.46086311340332 11.819999694824219 C13.655821800231934 11.824702262878418 13.895895957946777 11.944387435913086 13.95736312866211 12.129463195800781 L13.95736312866211 12.129463195800781 C13.75216293334961 12.129471778869629 13.54696273803711 12.129481315612793 13.34176254272461 12.12948989868164 L13.34176254272461 12.12948989868164 C13.381463050842285 12.026326179504395 13.421162605285645 11.923163414001465 13.46086311340332 11.819999694824219 L13.46086311340332 11.819999694824219"></path></svg>