<svg xmlns="http://www.w3.org/2000/svg" viewBox="0.0 0.0 24.0 24.0" height="200px" width="200px"><path fill="none" stroke="black" stroke-width=".3" stroke-opacity="1.0"  filling="0" d="M12.818318367004395 10.858362197875977 L12.818318367004395 10.858362197875977 C12.818318367004395 11.011153221130371 12.818318367004395 11.163944244384766 12.818318367004395 11.31673526763916 L12.818318367004395 11.31673526763916 C12.943446159362793 11.31673526763916 13.068572998046875 11.31673526763916 13.193700790405273 11.31673526763916 L13.193700790405273 11.31673526763916 C13.145918846130371 11.384953498840332 13.098136901855469 11.453171730041504 13.050354957580566 11.521389961242676 L13.050354957580566 11.521389961242676 C12.970999717712402 11.527862548828125 12.891645431518555 11.53433609008789 12.81229019165039 11.54080867767334 L12.81229019165039 11.54080867767334 C12.812261581420898 11.565088272094727 12.592527389526367 13.05379581451416 13.043018341064453 12.783734321594238 L13.043018341064453 12.783734321594238 C12.9163818359375 12.92819881439209 12.789745330810547 13.072662353515625 12.663108825683594 13.217126846313477 L12.663108825683594 13.217126846313477 C12.657751083374023 13.068000793457031 12.467201232910156 12.974961280822754 12.328636169433594 12.919581413269043 L12.328636169433594 12.919581413269043 C12.49382209777832 12.441064834594727 12.571855545043945 12.063823699951172 12.456818580627441 11.519180297851562 L12.456818580627441 11.519180297851562 C12.381118774414062 11.528035163879395 12.305418014526367 11.536890029907227 12.229718208312988 11.545744895935059 L12.229718208312988 11.545744895935059 C12.31531810760498 11.46667194366455 12.400918006896973 11.38759994506836 12.486517906188965 11.308526992797852 L12.486517906188965 11.308526992797852 C12.486517906188965 11.2239990234375 12.486517906188965 11.139472007751465 12.486517906188965 11.054944038391113 L12.486517906188965 11.054944038391113 C12.597118377685547 10.98941707611084 12.707717895507812 10.92388916015625 12.818318367004395 10.858362197875977 L12.818318367004395 10.858362197875977"></path></svg>