<svg xmlns="http://www.w3.org/2000/svg" viewBox="0.0 0.0 24.0 24.0" height="200px" width="200px"><path fill="none" stroke="black" stroke-width=".3" stroke-opacity="1.0"  filling="0" d="M6.125100135803223 8.295219421386719 L6.125100135803223 8.295219421386719 C8.580265045166016 8.309185981750488 7.846731185913086 10.806536674499512 7.745345115661621 12.617782592773438 C7.682802200317383 13.73510456085205 8.145500183105469 15.281718254089355 6.860809326171875 15.275264739990234 L6.860809326171875 15.275264739990234 C6.814163684844971 15.136882781982422 6.767518520355225 14.99850082397461 6.72087287902832 14.860118865966797 L6.72087287902832 14.860118865966797 C5.407299041748047 16.221067428588867 4.986505031585693 14.053452491760254 5.021727561950684 13.114418983459473 C5.041759014129639 12.580387115478516 5.130855560302734 11.94308090209961 5.550300121307373 11.546046257019043 C5.898787498474121 11.216177940368652 6.766952991485596 11.411907196044922 6.850882053375244 10.792909622192383 C6.898646831512451 10.440630912780762 7.174739360809326 8.995676040649414 6.377345561981201 9.000028610229492 L6.377345561981201 9.000028610229492 C6.178381443023682 9.576712608337402 6.14268159866333 9.903846740722656 6.243082046508789 10.507773399353027 L6.243082046508789 10.507773399353027 C5.948654651641846 10.484928131103516 5.654227256774902 10.462082862854004 5.359799861907959 10.439237594604492 L5.359799861907959 10.439237594604492 C5.157899379730225 9.395794868469238 5.31794548034668 8.942826271057129 6.125100135803223 8.295219421386719 L6.125100135803223 8.295219421386719"></path>
<path fill="none" stroke="black" stroke-width=".3" stroke-opacity="1.0"  filling="0" d="M6.788754463195801 11.787081718444824 L6.788754463195801 11.787081718444824 C6.787343978881836 12.251510620117188 6.760001182556152 12.728068351745605 6.735000133514404 13.189827919006348 C6.5793538093566895 16.064577102661133 5.142200946807861 12.775842666625977 6.788754463195801 11.787081718444824 L6.788754463195801 11.787081718444824"></path></svg>