<svg xmlns="http://www.w3.org/2000/svg" viewBox="0.0 0.0 24.0 24.0" height="200px" width="200px"><path fill="none" stroke="black" stroke-width=".3" stroke-opacity="1.0"  filling="0" d="M14.481627464294434 11.707418441772461 L14.481627464294434 11.707418441772461 C14.632854461669922 11.898837089538574 14.78408145904541 12.090254783630371 14.935308456420898 12.281673431396484 L14.935308456420898 12.281673431396484 C14.706562995910645 12.281673431396484 14.477818489074707 12.281673431396484 14.249073028564453 12.281673431396484 L14.249073028564453 12.281673431396484 C14.334920883178711 12.403071403503418 14.544757843017578 12.454813003540039 14.680636405944824 12.39444637298584 L14.680636405944824 12.39444637298584 C14.763527870178223 12.39444637298584 14.846418380737305 12.39444637298584 14.929309844970703 12.39444637298584 L14.929309844970703 12.39444637298584 C14.116143226623535 12.948984146118164 13.730687141418457 12.331594467163086 14.481627464294434 11.707418441772461 L14.481627464294434 11.707418441772461"></path>
<path fill="none" stroke="black" stroke-width=".3" stroke-opacity="1.0"  filling="0" d="M14.593963623046875 11.92770004272461 L14.593963623046875 11.92770004272461 C14.624799728393555 11.989445686340332 14.65563678741455 12.051190376281738 14.68647289276123 12.112936019897461 L14.68647289276123 12.112936019897461 C14.552364349365234 12.112936019897461 14.418254852294922 12.112936019897461 14.284146308898926 12.112936019897461 L14.284146308898926 12.112936019897461 C14.387418746948242 12.051190376281738 14.490691184997559 11.989445686340332 14.593963623046875 11.92770004272461 L14.593963623046875 11.92770004272461"></path></svg>