<svg xmlns="http://www.w3.org/2000/svg" viewBox="0.0 0.0 24.0 24.0" height="200px" width="200px"><path fill="none" stroke="black" stroke-width=".3" stroke-opacity="1.0"  filling="0" d="M16.160808563232422 11.81566333770752 L16.160808563232422 11.81566333770752 C16.168737411499023 11.8487548828125 16.176664352416992 11.881845474243164 16.184593200683594 11.914937019348145 L16.184593200683594 11.914937019348145 C16.62042808532715 11.709495544433594 16.581592559814453 12.067525863647461 16.58182144165039 12.429272651672363 L16.58182144165039 12.429272651672363 C16.537429809570312 12.429272651672363 16.493038177490234 12.429272651672363 16.448646545410156 12.429272651672363 L16.448646545410156 12.429272651672363 C16.448646545410156 12.25772762298584 16.448646545410156 12.086181640625 16.448646545410156 11.914636611938477 L16.448646545410156 11.914636611938477 C16.273653030395508 11.990682601928711 16.197248458862305 12.237869262695312 16.19681167602539 12.428672790527344 L16.19681167602539 12.428672790527344 C16.146020889282227 12.428672790527344 16.09522819519043 12.428672790527344 16.044437408447266 12.428672790527344 L16.044437408447266 12.428672790527344 C16.031147003173828 12.233827590942383 16.017854690551758 12.038981437683105 16.00456428527832 11.844136238098145 L16.00456428527832 11.844136238098145 C16.0566463470459 11.83464527130127 16.108726501464844 11.825154304504395 16.160808563232422 11.81566333770752 L16.160808563232422 11.81566333770752"></path></svg>