<svg xmlns="http://www.w3.org/2000/svg" viewBox="0.0 0.0 24.0 24.0" height="200px" width="200px"><path fill="none" stroke="black" stroke-width=".3" stroke-opacity="1.0"  filling="0" d="M-12.76887321472168 6.252490043640137 L-12.76887321472168 6.252490043640137 C-12.486167907714844 6.41109037399292 -12.446737289428711 6.476490497589111 -12.696327209472656 6.705026626586914 L-12.696327209472656 6.705026626586914 C-12.754146575927734 6.637653827667236 -12.813389778137207 6.57146692276001 -12.874229431152344 6.506808280944824 L-12.874229431152344 6.506808280944824 C-12.987065315246582 6.497135639190674 -13.099900245666504 6.487463474273682 -13.212736129760742 6.477790832519531 L-13.212736129760742 6.477790832519531 C-13.255963325500488 6.54640007019043 -13.29919147491455 6.61500883102417 -13.342418670654297 6.683618068695068 L-13.342418670654297 6.683618068695068 C-13.396208763122559 6.639645099639893 -13.449999809265137 6.595672607421875 -13.503789901733398 6.551699638366699 L-13.503789901733398 6.551699638366699 C-13.581454277038574 6.582090377807617 -13.659117698669434 6.612481594085693 -13.73678207397461 6.642872333526611 L-13.73678207397461 6.642872333526611 C-13.825959205627441 6.632437705993652 -13.92866325378418 6.62684440612793 -14.00416374206543 6.675436496734619 L-14.00416374206543 6.675436496734619 C-14.023409843444824 6.597508907318115 -14.042654991149902 6.5195817947387695 -14.061901092529297 6.441654205322266 L-14.061901092529297 6.441654205322266 C-13.831500053405762 6.3947930335998535 -13.761717796325684 6.380558013916016 -13.552608489990234 6.442717552185059 L-13.552608489990234 6.442717552185059 C-13.295906066894531 6.295844554901123 -13.057591438293457 6.3474507331848145 -12.76887321472168 6.252490043640137 L-12.76887321472168 6.252490043640137"></path></svg>