<svg xmlns="http://www.w3.org/2000/svg" viewBox="0.0 0.0 24.0 24.0" height="200px" width="200px"><path fill="none" stroke="black" stroke-width=".3" stroke-opacity="1.0"  filling="0" d="M10.809626579284668 11.893171310424805 L10.809626579284668 11.893171310424805 C10.963553428649902 11.893171310424805 11.117481231689453 11.893171310424805 11.271408081054688 11.893171310424805 L11.271408081054688 11.893171310424805 C11.339517593383789 12.049562454223633 11.407626152038574 12.205953598022461 11.475735664367676 12.362344741821289 L11.475735664367676 12.362344741821289 C11.45548152923584 12.414336204528809 11.435226440429688 12.466326713562012 11.414972305297852 12.518318176269531 L11.414972305297852 12.518318176269531 C11.296340942382812 12.300384521484375 11.251256942749023 12.021347045898438 11.01602554321289 11.93116283416748 L11.01602554321289 11.93116283416748 C11.0697021484375 12.064642906188965 11.111459732055664 12.229545593261719 11.235163688659668 12.302999496459961 L11.235163688659668 12.302999496459961 C11.203509330749512 12.380345344543457 11.171854019165039 12.457690238952637 11.140199661254883 12.535036087036133 L11.140199661254883 12.535036087036133 C11.036510467529297 12.313907623291016 10.95306396484375 12.090478897094727 10.809626579284668 11.893171310424805 L10.809626579284668 11.893171310424805"></path></svg>