<svg xmlns="http://www.w3.org/2000/svg" viewBox="0.0 0.0 24.0 24.0" height="200px" width="200px"><path fill="none" stroke="black" stroke-width=".3" stroke-opacity="1.0"  filling="0" d="M-10.774282455444336 6.632591724395752 L-10.774282455444336 6.632591724395752 C-10.206502914428711 7.03648567199707 -10.617897987365723 7.954294681549072 -10.284381866455078 8.49062728881836 L-10.284381866455078 8.49062728881836 C-10.344868659973145 9.062115669250488 -10.359861373901367 9.843843460083008 -10.040534973144531 10.308273315429688 L-10.040534973144531 10.308273315429688 C-10.159221649169922 10.480193138122559 -10.08132553100586 11.205718994140625 -9.942161560058594 11.382926940917969 L-9.942161560058594 11.382926940917969 C-9.981879234313965 11.434499740600586 -10.021597862243652 11.486072540283203 -10.061315536499023 11.53764533996582 L-10.061315536499023 11.53764533996582 C-9.905200958251953 11.740245819091797 -9.894079208374023 11.959955215454102 -9.940418243408203 12.197127342224121 L-9.940418243408203 12.197127342224121 C-10.416332244873047 11.738058090209961 -10.619319915771484 9.17297077178955 -10.70915412902832 8.561128616333008 C-10.756644248962402 8.237682342529297 -10.923778533935547 7.621153831481934 -10.704874038696289 7.3822922706604 L-10.704874038696289 7.3822922706604 C-11.000800132751465 7.01010799407959 -11.136262893676758 6.941996097564697 -10.774282455444336 6.632591724395752 L-10.774282455444336 6.632591724395752"></path></svg>