<svg xmlns="http://www.w3.org/2000/svg" viewBox="0.0 0.0 24.0 24.0" height="200px" width="200px"><path fill="none" stroke="black" stroke-width=".3" stroke-opacity="1.0"  filling="0" d="M13.623517990112305 11.857390403747559 L13.623517990112305 11.857390403747559 C13.629408836364746 11.878299713134766 13.635299682617188 11.899208068847656 13.641190528869629 11.920117378234863 L13.641190528869629 11.920117378234863 C13.769207954406738 11.89326286315918 13.917501449584961 11.907244682312012 14.029853820800781 11.974225997924805 L14.029853820800781 11.974225997924805 C14.029853820800781 12.143453598022461 14.029854774475098 12.312681198120117 14.029854774475098 12.481908798217773 L14.029854774475098 12.481908798217773 C13.989572525024414 12.481908798217773 13.949291229248047 12.481908798217773 13.909008979797363 12.481908798217773 L13.909008979797363 12.481908798217773 C13.908045768737793 11.80871868133545 13.63727855682373 11.829151153564453 13.636472702026367 12.48076343536377 L13.636472702026367 12.48076343536377 C13.592045783996582 12.477518081665039 13.54761791229248 12.474271774291992 13.503190994262695 12.471026420593262 L13.503190994262695 12.471026420593262 C13.503190994262695 12.287553787231445 13.503190994262695 12.104082107543945 13.503190994262695 11.920609474182129 L13.503190994262695 11.920609474182129 C13.543299674987793 11.8995361328125 13.583409309387207 11.878463745117188 13.623517990112305 11.857390403747559 L13.623517990112305 11.857390403747559"></path></svg>