<svg xmlns="http://www.w3.org/2000/svg" viewBox="0.0 0.0 24.0 24.0" height="200px" width="200px"><path fill="none" stroke="black" stroke-width=".3" stroke-opacity="1.0"  filling="0" d="M12.077372550964355 11.866499900817871 L12.077372550964355 11.866499900817871 C12.229020118713379 11.941862106323242 12.396086692810059 11.961151123046875 12.375410079956055 12.1566801071167 L12.375410079956055 12.1566801071167 C12.295355796813965 12.1566801071167 12.215300559997559 12.1566801071167 12.135246276855469 12.1566801071167 L12.135246276855469 12.1566801071167 C12.134572982788086 12.153416633605957 12.13390064239502 12.150153160095215 12.133227348327637 12.146889686584473 L12.133227348327637 12.146889686584473 C12.167427062988281 12.141026496887207 12.201627731323242 12.135162353515625 12.235827445983887 12.12929916381836 L12.235827445983887 12.12929916381836 C12.266935348510742 11.837661743164062 12.038594245910645 11.8843994140625 11.969099044799805 12.117162704467773 L11.969099044799805 12.117162704467773 C11.993863105773926 12.12966251373291 12.01862621307373 12.142163276672363 12.043390274047852 12.1546630859375 L12.043390274047852 12.1546630859375 C11.988798141479492 12.250533103942871 12.114052772521973 12.378594398498535 12.20206356048584 12.44511890411377 L12.20206356048584 12.44511890411377 C11.69367790222168 12.529130935668945 11.90208911895752 12.083399772644043 12.077372550964355 11.866499900817871 L12.077372550964355 11.866499900817871"></path></svg>