<svg xmlns="http://www.w3.org/2000/svg" viewBox="0.0 0.0 24.0 24.0" height="200px" width="200px"><path fill="none" stroke="black" stroke-width=".3" stroke-opacity="1.0"  filling="0" d="M14.566144943237305 11.854826927185059 L14.566144943237305 11.854826927185059 C14.633927345275879 11.957917213439941 14.701708793640137 12.06100845336914 14.769491195678711 12.164098739624023 L14.769491195678711 12.164098739624023 C14.641318321228027 12.164090156555176 14.51314640045166 12.164080619812012 14.384973526000977 12.164072036743164 L14.384973526000977 12.164072036743164 C14.495163917541504 12.240826606750488 14.605355262756348 12.317582130432129 14.715545654296875 12.394336700439453 L14.715545654296875 12.394336700439453 C14.1561918258667 12.412360191345215 14.086396217346191 12.120343208312988 14.566144943237305 11.854826927185059 L14.566144943237305 11.854826927185059"></path>
<path fill="none" stroke="black" stroke-width=".3" stroke-opacity="1.0"  filling="0" d="M14.51159954071045 11.892736434936523 L14.51159954071045 11.892736434936523 C14.565190315246582 11.97207260131836 14.618782043457031 12.051409721374512 14.672372817993164 12.130745887756348 L14.672372817993164 12.130745887756348 C14.577199935913086 12.130745887756348 14.482027053833008 12.130745887756348 14.38685417175293 12.130745887756348 L14.38685417175293 12.130745887756348 C14.428436279296875 12.051409721374512 14.470017433166504 11.97207260131836 14.51159954071045 11.892736434936523 L14.51159954071045 11.892736434936523"></path></svg>