<svg xmlns="http://www.w3.org/2000/svg" viewBox="0.0 0.0 24.0 24.0" height="200px" width="200px"><path fill="none" stroke="black" stroke-width=".3" stroke-opacity="1.0"  filling="0" d="M-1.1019287109375 8.044636726379395 L-1.1019287109375 8.044636726379395 C0.43797433376312256 8.173157691955566 2.0099267959594727 8.438968658447266 3.5496273040771484 8.448899269104004 L3.5496273040771484 8.448899269104004 C3.66935396194458 8.941064834594727 3.6691343784332275 9.492535591125488 3.567626953125 9.985991477966309 L3.567626953125 9.985991477966309 C2.6906166076660156 9.93478012084961 1.4124946594238281 9.612174987792969 0.5496816635131836 9.762845993041992 C0.047844529151916504 9.850481033325195 0.06872972846031189 11.16189193725586 0.5446910858154297 11.236608505249023 C1.7158585786819458 11.42045783996582 3.7181854248046875 10.675905227661133 3.1366090774536133 12.633546829223633 C2.917524576187134 13.37100601196289 0.469570130109787 12.267044067382812 0.38198184967041016 12.957165718078613 C0.3349681496620178 13.327593803405762 0.3358715772628784 13.706836700439453 0.38209056854248047 14.077364921569824 C0.4292554557323456 14.455475807189941 1.1368553638458252 14.221537590026855 1.5176725387573242 14.208464622497559 C2.906444549560547 14.160788536071777 4.06536340713501 13.52220344543457 3.5399169921875 15.543683052062988 L3.5399169921875 15.543683052062988 C1.9760855436325073 15.714086532592773 0.40342843532562256 15.787256240844727 -1.1649284362792969 15.90812873840332 L-1.1649284362792969 15.90812873840332 C-1.5390033721923828 14.141212463378906 -1.1999731063842773 11.893254280090332 -1.1999731063842773 10.084237098693848 C-1.1999731063842773 9.403585433959961 -1.5866427421569824 8.522485733032227 -1.1019287109375 8.044636726379395 L-1.1019287109375 8.044636726379395"></path></svg>