<svg xmlns="http://www.w3.org/2000/svg" viewBox="0.0 0.0 24.0 24.0" height="200px" width="200px"><path fill="none" stroke="black" stroke-width=".3" stroke-opacity="1.0"  filling="0" d="M14.49703598022461 11.764063835144043 L14.49703598022461 11.764063835144043 C14.6769380569458 11.874983787536621 14.835938453674316 12.08835220336914 14.836308479309082 12.299699783325195 L14.836308479309082 12.299699783325195 C14.418695449829102 12.29921817779541 14.1442289352417 12.068479537963867 14.681808471679688 11.955900192260742 L14.681808471679688 11.955900192260742 C14.654999732971191 11.92005443572998 14.628190040588379 11.884209632873535 14.601381301879883 11.848363876342773 L14.601381301879883 11.848363876342773 C14.52669906616211 11.876927375793457 14.452017784118652 11.90549087524414 14.377335548400879 11.934054374694824 L14.377335548400879 11.934054374694824 C14.417235374450684 11.87739086151123 14.457136154174805 11.820727348327637 14.49703598022461 11.764063835144043 L14.49703598022461 11.764063835144043"></path>
<path fill="none" stroke="black" stroke-width=".3" stroke-opacity="1.0"  filling="0" d="M14.673272132873535 12.096327781677246 L14.673272132873535 12.096327781677246 C14.621299743652344 12.126028060913086 14.569326400756836 12.15572738647461 14.517354011535645 12.18542766571045 L14.517354011535645 12.18542766571045 C14.569326400756836 12.15572738647461 14.621299743652344 12.126028060913086 14.673272132873535 12.096327781677246 L14.673272132873535 12.096327781677246"></path></svg>