<svg xmlns="http://www.w3.org/2000/svg" viewBox="0.0 0.0 24.0 24.0" height="200px" width="200px"><path fill="none" stroke="black" stroke-width=".3" stroke-opacity="1.0"  filling="0" d="M13.194055557250977 11.759236335754395 L13.194055557250977 11.759236335754395 C13.39739990234375 11.877184867858887 13.6328706741333 12.112417221069336 13.335709571838379 12.32061767578125 L13.335709571838379 12.32061767578125 C13.335662841796875 12.085068702697754 13.405837059020996 11.812438011169434 13.105690956115723 11.899580955505371 L13.105690956115723 11.899580955505371 C13.090858459472656 12.034156799316406 13.144064903259277 12.299644470214844 13.008790016174316 12.294026374816895 L13.008790016174316 12.294026374816895 C13.008403778076172 12.168255805969238 13.044255256652832 11.744954109191895 12.764644622802734 11.907353401184082 L12.764644622802734 11.907353401184082 C12.764644622802734 12.04450798034668 12.764644622802734 12.181662559509277 12.764644622802734 12.318817138671875 L12.764644622802734 12.318817138671875 C12.595158576965332 12.197697639465332 12.558966636657715 11.940783500671387 12.71585464477539 11.761798858642578 L12.71585464477539 11.761798858642578 C12.832380294799805 11.765739440917969 12.947610855102539 11.798149108886719 13.057310104370117 11.837645530700684 L13.057310104370117 11.837645530700684 C13.10289192199707 11.811509132385254 13.148473739624023 11.785372734069824 13.194055557250977 11.759236335754395 L13.194055557250977 11.759236335754395"></path></svg>