<svg xmlns="http://www.w3.org/2000/svg" viewBox="0.0 0.0 24.0 24.0" height="200px" width="200px"><path fill="none" stroke="black" stroke-width=".3" stroke-opacity="1.0"  filling="0" d="M17.564289093017578 11.542745590209961 L17.564289093017578 11.542745590209961 C17.606298446655273 11.542745590209961 17.64830780029297 11.542745590209961 17.690317153930664 11.542745590209961 L17.690317153930664 11.542745590209961 C17.690317153930664 11.792536735534668 17.690317153930664 12.042326927185059 17.690317153930664 12.292118072509766 L17.690317153930664 12.292118072509766 C17.643299102783203 12.27820873260498 17.596281051635742 12.264300346374512 17.54926300048828 12.250391006469727 L17.54926300048828 12.250391006469727 C17.028371810913086 12.211726188659668 17.033742904663086 11.821598052978516 17.564289093017578 11.817899703979492 L17.564289093017578 11.817899703979492 C17.564289093017578 11.726181983947754 17.564289093017578 11.6344633102417 17.564289093017578 11.542745590209961 L17.564289093017578 11.542745590209961"></path>
<path fill="none" stroke="black" stroke-width=".3" stroke-opacity="1.0"  filling="0" d="M17.468345642089844 11.895163536071777 L17.468345642089844 11.895163536071777 C17.52971649169922 11.972874641418457 17.479995727539062 12.110514640808105 17.41832733154297 12.187990188598633 L17.41832733154297 12.187990188598633 C17.3817138671875 12.09598445892334 17.37869644165039 11.937217712402344 17.468345642089844 11.895163536071777 L17.468345642089844 11.895163536071777"></path></svg>