<svg xmlns="http://www.w3.org/2000/svg" viewBox="0.0 0.0 24.0 24.0" height="200px" width="200px"><path fill="none" stroke="black" stroke-width=".3" stroke-opacity="1.0"  filling="0" d="M10.889482498168945 11.80470085144043 L10.889482498168945 11.80470085144043 C10.98169994354248 11.937137603759766 10.961409568786621 12.121880531311035 10.962818145751953 12.283254623413086 L10.962818145751953 12.283254623413086 C10.535507202148438 12.327820777893066 10.442970275878906 12.00355052947998 10.88770866394043 12.000682830810547 L10.88770866394043 12.000682830810547 C10.874499320983887 11.9552640914917 10.86129093170166 11.909846305847168 10.848081588745117 11.86442756652832 L10.848081588745117 11.86442756652832 C10.747979164123535 11.896574974060059 10.646143913269043 11.927190780639648 10.541727066040039 11.939481735229492 L10.541727066040039 11.939481735229492 C10.657645225524902 11.89455509185791 10.773564338684082 11.849627494812012 10.889482498168945 11.80470085144043 L10.889482498168945 11.80470085144043"></path>
<path fill="none" stroke="black" stroke-width=".3" stroke-opacity="1.0"  filling="0" d="M10.777445793151855 12.024517059326172 L10.777445793151855 12.024517059326172 C10.947447776794434 12.183913230895996 10.780927658081055 12.288559913635254 10.637701034545898 12.14719009399414 L10.637701034545898 12.14719009399414 C10.684282302856445 12.10629940032959 10.730864524841309 12.065407752990723 10.777445793151855 12.024517059326172 L10.777445793151855 12.024517059326172"></path></svg>