<svg xmlns="http://www.w3.org/2000/svg" viewBox="0.0 0.0 24.0 24.0" height="200px" width="200px"><path fill="none" stroke="black" stroke-width=".3" stroke-opacity="1.0"  filling="0" d="M7.528226375579834 11.596199035644531 L7.528226375579834 11.596199035644531 C7.573081016540527 11.596199035644531 7.617935657501221 11.596199035644531 7.662790298461914 11.596199035644531 L7.662790298461914 11.596199035644531 C7.734835624694824 11.769253730773926 7.806881427764893 11.94230842590332 7.878926753997803 12.115363121032715 L7.878926753997803 12.115363121032715 C7.952390193939209 11.925578117370605 8.031845092773438 11.701814651489258 8.209090232849121 11.601818084716797 L8.209090232849121 11.601818084716797 C8.209090232849121 11.828181266784668 8.209090232849121 12.054545402526855 8.209090232849121 12.280908584594727 L8.209090232849121 12.280908584594727 C8.060927391052246 12.176859855651855 8.119099617004395 11.927123069763184 8.114044189453125 11.746145248413086 L8.114044189453125 11.746145248413086 C8.040771484375 11.929353713989258 7.967499256134033 12.112563133239746 7.894226551055908 12.295771598815918 L7.894226551055908 12.295771598815918 C7.884326934814453 12.29781723022461 7.87442684173584 12.299863815307617 7.864527225494385 12.301909446716309 L7.864527225494385 12.301909446716309 C7.793672561645508 12.136627197265625 7.722817897796631 11.971345901489258 7.651963233947754 11.806063652038574 L7.651963233947754 11.806063652038574 C7.647235870361328 11.805891036987305 7.6425089836120605 11.805718421936035 7.637781620025635 11.805545806884766 L7.637781620025635 11.805545806884766 C7.637781620025635 11.967063903808594 7.637781620025635 12.128582000732422 7.637781620025635 12.29010009765625 L7.637781620025635 12.29010009765625 C7.461060523986816 12.136466979980469 7.52926778793335 11.830362319946289 7.528226375579834 11.596199035644531 L7.528226375579834 11.596199035644531"></path></svg>