<svg xmlns="http://www.w3.org/2000/svg" viewBox="0.0 0.0 24.0 24.0" height="200px" width="200px"><path fill="none" stroke="black" stroke-width=".3" stroke-opacity="1.0"  filling="0" d="M18.381818771362305 11.563636779785156 L18.381818771362305 11.563636779785156 C18.381818771362305 11.618182182312012 18.381818771362305 11.672728538513184 18.381818771362305 11.727273941040039 L18.381818771362305 11.727273941040039 C18.345436096191406 11.729564666748047 18.309053421020508 11.731855392456055 18.27267074584961 11.734146118164062 L18.27267074584961 11.734146118164062 C18.275243759155273 11.77730941772461 18.27781867980957 11.820473670959473 18.280391693115234 11.86363697052002 L18.280391693115234 11.86363697052002 C18.31420135498047 11.86363697052002 18.34800910949707 11.86363697052002 18.381818771362305 11.86363697052002 L18.381818771362305 11.86363697052002 C18.381818771362305 11.90909194946289 18.381818771362305 11.954545974731445 18.381818771362305 12.000000953674316 L18.381818771362305 12.000000953674316 C18.348173141479492 12.001936912536621 18.31452751159668 12.003873825073242 18.280881881713867 12.005809783935547 L18.280881881713867 12.005809783935547 C18.280881881713867 12.058419227600098 18.280881881713867 12.111027717590332 18.280881881713867 12.163637161254883 L18.280881881713867 12.163637161254883 C18.31452751159668 12.163637161254883 18.348173141479492 12.163637161254883 18.381818771362305 12.163637161254883 L18.381818771362305 12.163637161254883 C18.381818771362305 12.209091186523438 18.381818771362305 12.254545211791992 18.381818771362305 12.299999237060547 L18.381818771362305 12.299999237060547 C18.290910720825195 12.299999237060547 18.200000762939453 12.299999237060547 18.109092712402344 12.299999237060547 L18.109092712402344 12.299999237060547 C18.109092712402344 12.064644813537598 18.109092712402344 11.829291343688965 18.109092712402344 11.593936920166016 L18.109092712402344 11.593936920166016 C18.200000762939453 11.583836555480957 18.290910720825195 11.573737144470215 18.381818771362305 11.563636779785156 L18.381818771362305 11.563636779785156"></path></svg>