<svg xmlns="http://www.w3.org/2000/svg" viewBox="0.0 0.0 24.0 24.0" height="200px" width="200px"><path fill="none" stroke="black" stroke-width=".3" stroke-opacity="1.0"  filling="0" d="M12.94936466217041 11.75811767578125 L12.94936466217041 11.75811767578125 C12.945235252380371 12.18106746673584 12.776616096496582 12.524662017822266 12.614891052246094 11.963071823120117 L12.614891052246094 11.963071823120117 C12.542482376098633 12.080153465270996 12.470072746276855 12.197236061096191 12.397664070129395 12.31431770324707 L12.397664070129395 12.31431770324707 C12.345209121704102 12.14358139038086 12.292755126953125 11.972845077514648 12.240300178527832 11.802108764648438 L12.240300178527832 11.802108764648438 C12.36233901977539 11.850412368774414 12.405342102050781 12.013802528381348 12.443482398986816 12.139389991760254 L12.443482398986816 12.139389991760254 C12.508036613464355 12.012308120727539 12.572591781616211 11.885226249694824 12.63714599609375 11.75814437866211 L12.63714599609375 11.75814437866211 C12.677909851074219 11.88809871673584 12.718673706054688 12.018054008483887 12.759437561035156 12.148008346557617 L12.759437561035156 12.148008346557617 C12.822746276855469 12.018044471740723 12.886055946350098 11.888081550598145 12.94936466217041 11.75811767578125 L12.94936466217041 11.75811767578125"></path></svg>