<svg xmlns="http://www.w3.org/2000/svg" viewBox="0.0 0.0 24.0 24.0" height="200px" width="200px"><path fill="none" stroke="black" stroke-width=".3" stroke-opacity="1.0"  filling="0" d="M11.87459945678711 11.64736270904541 L11.87459945678711 11.64736270904541 C12.120498657226562 11.649321556091309 12.39114761352539 11.679874420166016 12.241445541381836 11.995609283447266 L12.241445541381836 11.995609283447266 C12.366986274719238 12.362748146057129 12.2140474319458 12.354166984558105 11.87459945678711 12.354434967041016 L11.87459945678711 12.354434967041016 C11.87459945678711 12.118743896484375 11.87459945678711 11.88305377960205 11.87459945678711 11.64736270904541 L11.87459945678711 11.64736270904541"></path>
<path fill="none" stroke="black" stroke-width=".3" stroke-opacity="1.0"  filling="0" d="M11.951754570007324 11.736818313598633 L11.951754570007324 11.736818313598633 C12.016263008117676 11.736818313598633 12.080772399902344 11.736818313598633 12.145280838012695 11.736818313598633 L12.145280838012695 11.736818313598633 C12.148653984069824 11.804136276245117 12.152027130126953 11.871454238891602 12.155400276184082 11.938772201538086 L12.155400276184082 11.938772201538086 C12.087518692016602 11.938772201538086 12.019636154174805 11.938772201538086 11.951754570007324 11.938772201538086 L11.951754570007324 11.938772201538086 C11.951754570007324 11.871454238891602 11.951754570007324 11.804136276245117 11.951754570007324 11.736818313598633 L11.951754570007324 11.736818313598633"></path>
<path fill="none" stroke="black" stroke-width=".3" stroke-opacity="1.0"  filling="0" d="M11.952000617980957 12.029072761535645 L11.952000617980957 12.029072761535645 C12.294061660766602 12.033374786376953 12.308076858520508 12.263071060180664 11.951972961425781 12.268799781799316 L11.951972961425781 12.268799781799316 C11.951982498168945 12.18889045715332 11.951991081237793 12.10898208618164 11.952000617980957 12.029072761535645 L11.952000617980957 12.029072761535645"></path></svg>