<svg xmlns="http://www.w3.org/2000/svg" viewBox="0.0 0.0 24.0 24.0" height="200px" width="200px"><path fill="none" stroke="black" stroke-width=".3" stroke-opacity="1.0"  filling="0" d="M12.156272888183594 11.748136520385742 L12.156272888183594 11.748136520385742 C12.156272888183594 11.79964542388916 12.156272888183594 11.851155281066895 12.156272888183594 11.902664184570312 L12.156272888183594 11.902664184570312 C12.06971263885498 12.013389587402344 11.99996566772461 12.153701782226562 11.999945640563965 12.294245719909668 L11.999945640563965 12.294245719909668 C11.947027206420898 12.294255256652832 11.894109725952148 12.29426383972168 11.841191291809082 12.294273376464844 L11.841191291809082 12.294273376464844 C11.841191291809082 12.122955322265625 11.841191291809082 11.95163631439209 11.841191291809082 11.780318260192871 L11.841191291809082 11.780318260192871 C11.897455215454102 11.7862548828125 11.953718185424805 11.792191505432129 12.009982109069824 11.798128128051758 L12.009982109069824 11.798128128051758 C12.008927345275879 11.806182861328125 12.00787353515625 11.814236640930176 12.006818771362305 11.822291374206543 L12.006818771362305 11.822291374206543 C12.056636810302734 11.79757308959961 12.106454849243164 11.772854804992676 12.156272888183594 11.748136520385742 L12.156272888183594 11.748136520385742"></path></svg>