<svg xmlns="http://www.w3.org/2000/svg" viewBox="0.0 0.0 24.0 24.0" height="200px" width="200px"><path fill="none" stroke="black" stroke-width=".3" stroke-opacity="1.0"  filling="0" d="M13.075445175170898 11.710636138916016 L13.075445175170898 11.710636138916016 C13.287338256835938 11.856822967529297 13.35452938079834 12.147997856140137 13.443572998046875 12.389535903930664 L13.443572998046875 12.389535903930664 C13.384827613830566 12.333763122558594 13.326083183288574 12.277990341186523 13.267337799072266 12.222217559814453 L13.267337799072266 12.222217559814453 C13.179265022277832 12.222217559814453 13.091192245483398 12.222217559814453 13.003119468688965 12.222217559814453 L13.003119468688965 12.222217559814453 C12.94762897491455 12.283072471618652 12.89213752746582 12.343926429748535 12.836647033691406 12.404781341552734 L12.836647033691406 12.404781341552734 C12.91624641418457 12.173399925231934 12.995845794677734 11.942017555236816 13.075445175170898 11.710636138916016 L13.075445175170898 11.710636138916016"></path>
<path fill="none" stroke="black" stroke-width=".3" stroke-opacity="1.0"  filling="0" d="M13.131982803344727 11.806282043457031 L13.131982803344727 11.806282043457031 C13.173200607299805 11.913727760314941 13.2144193649292 12.021172523498535 13.255637168884277 12.128618240356445 L13.255637168884277 12.128618240356445 C13.179646492004395 12.128618240356445 13.103654861450195 12.128618240356445 13.027664184570312 12.128618240356445 L13.027664184570312 12.128618240356445 C13.062437057495117 12.021172523498535 13.097209930419922 11.913727760314941 13.131982803344727 11.806282043457031 L13.131982803344727 11.806282043457031"></path></svg>