<svg xmlns="http://www.w3.org/2000/svg" viewBox="0.0 0.0 24.0 24.0" height="200px" width="200px"><path fill="none" stroke="black" stroke-width=".3" stroke-opacity="1.0"  filling="0" d="M14.79038143157959 11.596827507019043 L14.79038143157959 11.596827507019043 C14.846117973327637 11.683181762695312 14.90185546875 11.769536972045898 14.957592010498047 11.855891227722168 L14.957592010498047 11.855891227722168 C15.004791259765625 11.864863395690918 15.051004409790039 11.833074569702148 15.096818923950195 11.818609237670898 L15.096818923950195 11.818609237670898 C15.340018272399902 11.936617851257324 15.269902229309082 12.059711456298828 15.272318840026855 12.34753704071045 L15.272318840026855 12.34753704071045 C15.220282554626465 12.34753704071045 15.168246269226074 12.34753704071045 15.116209983825684 12.34753704071045 L15.116209983825684 12.34753704071045 C15.116209983825684 12.22920036315918 15.116209983825684 12.110864639282227 15.116209983825684 11.992527961730957 L15.116209983825684 11.992527961730957 C15.084264755249023 11.976109504699707 15.052319526672363 11.959691047668457 15.020374298095703 11.943272590637207 L15.020374298095703 11.943272590637207 C14.989009857177734 12.078400611877441 14.957646369934082 12.21352767944336 14.926281929016113 12.348655700683594 L14.926281929016113 12.348655700683594 C14.880972862243652 12.350865364074707 14.835663795471191 12.353074073791504 14.79035472869873 12.355283737182617 L14.79035472869873 12.355283737182617 C14.790363311767578 12.10246467590332 14.790372848510742 11.84964656829834 14.79038143157959 11.596827507019043 L14.79038143157959 11.596827507019043"></path></svg>