<svg xmlns="http://www.w3.org/2000/svg" viewBox="0.0 0.0 24.0 24.0" height="200px" width="200px"><path fill="none" stroke="black" stroke-width=".3" stroke-opacity="1.0"  filling="0" d="M10.950271606445312 11.314717292785645 L10.950271606445312 11.314717292785645 C11.804397583007812 11.416208267211914 11.457951545715332 11.92719841003418 11.080172538757324 12.409172058105469 L11.080172538757324 12.409172058105469 C11.240439414978027 12.409521102905273 11.400755882263184 12.414538383483887 11.560746192932129 12.423954963684082 L11.560746192932129 12.423954963684082 C11.560746192932129 12.488527297973633 11.560746192932129 12.5531005859375 11.560746192932129 12.61767292022705 L11.560746192932129 12.61767292022705 C11.234310150146484 12.721234321594238 10.876450538635254 12.653481483459473 10.533981323242188 12.654082298278809 L10.533981323242188 12.654082298278809 C10.857358932495117 12.205887794494629 11.141210556030273 12.106807708740234 11.198698997497559 11.579045295715332 L11.198698997497559 11.579045295715332 C11.080498695373535 11.644472122192383 10.962299346923828 11.70989990234375 10.844099044799805 11.7753267288208 L10.844099044799805 11.7753267288208 C10.75989055633545 11.7753267288208 10.675681114196777 11.7753267288208 10.591472625732422 11.7753267288208 L10.591472625732422 11.7753267288208 C10.711071968078613 11.621789932250977 10.830672264099121 11.468254089355469 10.950271606445312 11.314717292785645 L10.950271606445312 11.314717292785645"></path></svg>