<svg xmlns="http://www.w3.org/2000/svg" viewBox="0.0 0.0 24.0 24.0" height="200px" width="200px"><path fill="none" stroke="black" stroke-width=".3" stroke-opacity="1.0"  filling="0" d="M13.500027656555176 11.56363582611084 L13.500027656555176 11.56363582611084 C13.500027656555176 11.59999942779541 13.500027656555176 11.63636302947998 13.500027656555176 11.67272663116455 L13.500027656555176 11.67272663116455 C13.439216613769531 11.675933837890625 13.374573707580566 11.763031005859375 13.393281936645508 11.8209810256958 L13.393281936645508 11.8209810256958 C13.428863525390625 11.798826217651367 13.464446067810059 11.77667236328125 13.500027656555176 11.754517555236816 L13.500027656555176 11.754517555236816 C13.500027656555176 11.872698783874512 13.500027656555176 11.990880966186523 13.500027656555176 12.109062194824219 L13.500027656555176 12.109062194824219 C13.447800636291504 12.053790092468262 13.395572662353516 11.998517036437988 13.343345642089844 11.943244934082031 L13.343345642089844 11.943244934082031 C13.274418830871582 12.121270179748535 13.235509872436523 12.294538497924805 13.500055313110352 12.163636207580566 L13.500055313110352 12.163636207580566 C13.50003719329834 12.199999809265137 13.500018119812012 12.236363410949707 13.5 12.272727012634277 L13.5 12.272727012634277 C13.326233863830566 12.293670654296875 13.134894371032715 12.217451095581055 13.148590087890625 11.992908477783203 L13.148590087890625 11.992908477783203 C13.194608688354492 11.956727027893066 13.24062728881836 11.920544624328613 13.286645889282227 11.884363174438477 L13.286645889282227 11.884363174438477 C13.2664794921875 11.757548332214355 13.384763717651367 11.620229721069336 13.500027656555176 11.56363582611084 L13.500027656555176 11.56363582611084"></path></svg>