<svg xmlns="http://www.w3.org/2000/svg" viewBox="0.0 0.0 24.0 24.0" height="200px" width="200px"><path fill="none" stroke="black" stroke-width=".3" stroke-opacity="1.0"  filling="0" d="M8.817873001098633 11.626036643981934 L8.817873001098633 11.626036643981934 C8.904009819030762 11.626036643981934 8.990145683288574 11.626036643981934 9.076282501220703 11.626036643981934 L9.076282501220703 11.626036643981934 C9.079654693603516 11.665027618408203 9.083027839660645 11.704018592834473 9.086400032043457 11.743009567260742 L9.086400032043457 11.743009567260742 C9.18297290802002 11.7069091796875 9.279544830322266 11.670808792114258 9.376117706298828 11.634708404541016 L9.376117706298828 11.634708404541016 C9.376117706298828 11.704508781433105 9.376117706298828 11.774309158325195 9.376117706298828 11.844109535217285 L9.376117706298828 11.844109535217285 C8.9940767288208 12.12088394165039 9.081656455993652 12.159034729003906 9.082009315490723 12.594491004943848 L9.082009315490723 12.594491004943848 C8.993964195251465 12.594491004943848 8.90591812133789 12.594491004943848 8.817873001098633 12.594491004943848 L8.817873001098633 12.594491004943848 C8.817873001098633 12.271673202514648 8.817873001098633 11.948854446411133 8.817873001098633 11.626036643981934 L8.817873001098633 11.626036643981934"></path></svg>