<svg xmlns="http://www.w3.org/2000/svg" viewBox="0.0 0.0 24.0 24.0" height="200px" width="200px"><path fill="none" stroke="black" stroke-width=".3" stroke-opacity="1.0"  filling="0" d="M11.409900665283203 11.563308715820312 L11.409900665283203 11.563308715820312 C11.523194313049316 11.614142417907715 11.594923973083496 11.775616645812988 11.573590278625488 11.897945404052734 L11.573590278625488 11.897945404052734 C11.71285629272461 12.28179931640625 11.543981552124023 12.272242546081543 11.189126968383789 12.272427558898926 L11.189126968383789 12.272427558898926 C11.189126968383789 12.036064147949219 11.189126968383789 11.799699783325195 11.189126968383789 11.563336372375488 L11.189126968383789 11.563336372375488 C11.262718200683594 11.563326835632324 11.336309432983398 11.563318252563477 11.409900665283203 11.563308715820312 L11.409900665283203 11.563308715820312"></path>
<path fill="none" stroke="black" stroke-width=".3" stroke-opacity="1.0"  filling="0" d="M11.296582221984863 11.645700454711914 L11.296582221984863 11.645700454711914 C11.57552719116211 11.64742660522461 11.587122917175293 11.86417007446289 11.296582221984863 11.863446235656738 L11.296582221984863 11.863446235656738 C11.296582221984863 11.790863990783691 11.296582221984863 11.718282699584961 11.296582221984863 11.645700454711914 L11.296582221984863 11.645700454711914"></path>
<path fill="none" stroke="black" stroke-width=".3" stroke-opacity="1.0"  filling="0" d="M11.300918579101562 11.963154792785645 L11.300918579101562 11.963154792785645 C11.385245323181152 12.032500267028809 11.469573020935059 12.101845741271973 11.553899765014648 12.171191215515137 L11.553899765014648 12.171191215515137 C11.469573020935059 12.180218696594238 11.385245323181152 12.189245223999023 11.300918579101562 12.198272705078125 L11.300918579101562 12.198272705078125 C11.300918579101562 12.11989974975586 11.300918579101562 12.04152774810791 11.300918579101562 11.963154792785645 L11.300918579101562 11.963154792785645"></path></svg>