<svg xmlns="http://www.w3.org/2000/svg" viewBox="0.0 0.0 24.0 24.0" height="200px" width="200px"><path fill="none" stroke="black" stroke-width=".3" stroke-opacity="1.0"  filling="0" d="M10.831608772277832 11.564345359802246 L10.831608772277832 11.564345359802246 C11.115714073181152 11.566438674926758 11.34702205657959 11.552183151245117 11.208000183105469 11.881172180175781 L11.208000183105469 11.881172180175781 C11.471024513244629 12.210474014282227 11.074515342712402 12.270435333251953 10.831608772277832 12.27250862121582 L10.831608772277832 12.27250862121582 C10.831608772277832 12.036454200744629 10.831608772277832 11.800399780273438 10.831608772277832 11.564345359802246 L10.831608772277832 11.564345359802246"></path>
<path fill="none" stroke="black" stroke-width=".3" stroke-opacity="1.0"  filling="0" d="M10.947110176086426 11.650036811828613 L10.947110176086426 11.650036811828613 C11.00821304321289 11.679917335510254 11.0106782913208 11.829891204833984 10.947110176086426 11.854090690612793 L10.947110176086426 11.854090690612793 C10.947110176086426 11.786072731018066 10.947110176086426 11.71805477142334 10.947110176086426 11.650036811828613 L10.947110176086426 11.650036811828613"></path>
<path fill="none" stroke="black" stroke-width=".3" stroke-opacity="1.0"  filling="0" d="M10.946235656738281 11.95385456085205 L10.946235656738281 11.95385456085205 C11.051222801208496 11.978011131286621 11.188772201538086 12.081209182739258 11.169790267944336 12.187253952026367 L11.169790267944336 12.187253952026367 C11.095272064208984 12.187253952026367 11.020753860473633 12.187254905700684 10.946235656738281 12.187254905700684 L10.946235656738281 12.187254905700684 C10.946235656738281 12.109455108642578 10.946235656738281 12.031654357910156 10.946235656738281 11.95385456085205 L10.946235656738281 11.95385456085205"></path></svg>