<svg xmlns="http://www.w3.org/2000/svg" viewBox="0.0 0.0 24.0 24.0" height="200px" width="200px"><path fill="none" stroke="black" stroke-width=".3" stroke-opacity="1.0"  filling="0" d="M11.877516746520996 11.91883659362793 L11.877516746520996 11.91883659362793 C11.905380249023438 12.023972511291504 11.933244705200195 12.129109382629395 11.961108207702637 12.234245300292969 L11.961108207702637 12.234245300292969 C11.998177528381348 12.11325454711914 12.077774047851562 11.993523597717285 12.186490058898926 11.928764343261719 L12.186490058898926 11.928764343261719 C12.163305282592773 12.20262336730957 12.129714012145996 12.326519966125488 11.898627281188965 12.458891868591309 L11.898627281188965 12.458891868591309 C11.867927551269531 12.37051010131836 11.837226867675781 12.282127380371094 11.806527137756348 12.193745613098145 L11.806527137756348 12.193745613098145 C11.726900100708008 12.281790733337402 11.647273063659668 12.369836807250977 11.567646026611328 12.457881927490234 L11.567646026611328 12.457881927490234 C11.513636589050293 12.290727615356445 11.459628105163574 12.123573303222656 11.405618667602539 11.956418991088867 L11.405618667602539 11.956418991088867 C11.523415565490723 11.996733665466309 11.620051383972168 12.114953994750977 11.655054092407227 12.23443603515625 L11.655054092407227 12.23443603515625 C11.689181327819824 12.131181716918945 11.723308563232422 12.02792739868164 11.75743579864502 11.924673080444336 L11.75743579864502 11.924673080444336 C11.797462463378906 11.922727584838867 11.83749008178711 11.920782089233398 11.877516746520996 11.91883659362793 L11.877516746520996 11.91883659362793"></path></svg>