<svg xmlns="http://www.w3.org/2000/svg" viewBox="0.0 0.0 24.0 24.0" height="200px" width="200px"><path fill="none" stroke="black" stroke-width=".3" stroke-opacity="1.0"  filling="0" d="M12.039572715759277 11.31659984588623 L12.039572715759277 11.31659984588623 C12.848346710205078 11.47065544128418 12.734728813171387 11.84591007232666 12.195791244506836 12.389044761657715 L12.195791244506836 12.389044761657715 C12.200727462768555 12.397109031677246 12.205662727355957 12.405172348022461 12.210598945617676 12.413236618041992 L12.210598945617676 12.413236618041992 C12.360481262207031 12.413236618041992 12.51036262512207 12.413236618041992 12.660244941711426 12.413236618041992 L12.660244941711426 12.413236618041992 C12.664508819580078 12.482027053833008 12.66877269744873 12.55081844329834 12.673036575317383 12.619608879089355 L12.673036575317383 12.619608879089355 C12.33575439453125 12.627208709716797 11.998472213745117 12.634809494018555 11.661190032958984 12.642409324645996 L11.661190032958984 12.642409324645996 C11.932795524597168 12.171396255493164 12.279280662536621 12.116912841796875 12.320290565490723 11.579999923706055 L12.320290565490723 11.579999923706055 C12.109981536865234 11.606046676635742 11.924001693725586 11.809707641601562 11.715028762817383 11.77450942993164 L11.715028762817383 11.77450942993164 C11.823209762573242 11.621872901916504 11.931391716003418 11.469236373901367 12.039572715759277 11.31659984588623 L12.039572715759277 11.31659984588623"></path></svg>