<svg xmlns="http://www.w3.org/2000/svg" viewBox="0.0 0.0 24.0 24.0" height="200px" width="200px"><path fill="none" stroke="black" stroke-width=".3" stroke-opacity="1.0"  filling="0" d="M14.645455360412598 11.781764030456543 L14.645455360412598 11.781764030456543 C14.645455360412598 11.963600158691406 14.645454406738281 12.14543628692627 14.645454406738281 12.327272415161133 L14.645454406738281 12.327272415161133 C14.533614158630371 12.323872566223145 14.421627044677734 12.323187828063965 14.309781074523926 12.326373100280762 L14.309781074523926 12.326373100280762 C14.284472465515137 12.147936820983887 14.259162902832031 11.969500541687012 14.233854293823242 11.791064262390137 L14.233854293823242 11.791064262390137 C14.287318229675293 11.791064262390137 14.340781211853027 11.791064262390137 14.394245147705078 11.791064262390137 L14.394245147705078 11.791064262390137 C14.394245147705078 11.91513729095459 14.394245147705078 12.039209365844727 14.394245147705078 12.16328239440918 L14.394245147705078 12.16328239440918 C14.518187522888184 12.105016708374023 14.56334114074707 11.925891876220703 14.563582420349121 11.78893756866455 L14.563582420349121 11.78893756866455 C14.590873718261719 11.78654670715332 14.6181640625 11.784154891967773 14.645455360412598 11.781764030456543 L14.645455360412598 11.781764030456543"></path></svg>