<svg xmlns="http://www.w3.org/2000/svg" viewBox="0.0 0.0 24.0 24.0" height="200px" width="200px"><path fill="none" stroke="black" stroke-width=".3" stroke-opacity="1.0"  filling="0" d="M18.247499465942383 11.352815628051758 L18.247499465942383 11.352815628051758 C18.30830955505371 11.389724731445312 18.369117736816406 11.426634788513184 18.429927825927734 11.463543891906738 L18.429927825927734 11.463543891906738 C18.35152816772461 11.60013484954834 18.27312660217285 11.736724853515625 18.194726943969727 11.873315811157227 L18.194726943969727 11.873315811157227 C18.29781723022461 11.898152351379395 18.400907516479492 11.922988891601562 18.503997802734375 11.94782543182373 L18.503997802734375 11.94782543182373 C18.582563400268555 11.947352409362793 18.6611270904541 11.946879386901855 18.73969268798828 11.946406364440918 L18.73969268798828 11.946406364440918 C18.828954696655273 11.77916431427002 19.122880935668945 11.124534606933594 19.360170364379883 11.535052299499512 L19.360170364379883 11.535052299499512 C19.119495391845703 12.007829666137695 18.91209602355957 12.895617485046387 18.461647033691406 13.191981315612793 L18.461647033691406 13.191981315612793 C18.109325408935547 12.87385082244873 18.645727157592773 12.656326293945312 18.38579750061035 12.354681015014648 L18.38579750061035 12.354681015014648 C17.697956085205078 12.3545503616333 17.974645614624023 13.092220306396484 17.347471237182617 13.233871459960938 L17.347471237182617 13.233871459960938 C17.32793426513672 12.626172065734863 17.75531768798828 11.6919527053833 18.247499465942383 11.352815628051758 L18.247499465942383 11.352815628051758"></path></svg>