<svg xmlns="http://www.w3.org/2000/svg" viewBox="0.0 0.0 24.0 24.0" height="200px" width="200px"><path fill="none" stroke="black" stroke-width=".3" stroke-opacity="1.0"  filling="0" d="M13.625591278076172 11.89423656463623 L13.625591278076172 11.89423656463623 C13.631612777709961 12.019883155822754 13.62604808807373 12.239717483520508 13.455464363098145 12.242509841918945 L13.455464363098145 12.242509841918945 C13.449073791503906 12.19526481628418 13.442682266235352 12.148018836975098 13.436291694641113 12.100773811340332 L13.436291694641113 12.100773811340332 C13.399809837341309 12.156346321105957 13.363327980041504 12.211919784545898 13.3268461227417 12.267492294311523 L13.3268461227417 12.267492294311523 C13.317218780517578 12.262428283691406 13.307592391967773 12.257365226745605 13.297965049743652 12.252301216125488 L13.297965049743652 12.252301216125488 C13.356837272644043 12.133746147155762 13.41571044921875 12.015192031860352 13.47458267211914 11.896636962890625 L13.47458267211914 11.896636962890625 C13.487728118896484 11.937882423400879 13.500874519348145 11.979126930236816 13.514019966125488 12.02037239074707 L13.514019966125488 12.02037239074707 C13.551210403442383 11.978326797485352 13.588400840759277 11.93628215789795 13.625591278076172 11.89423656463623 L13.625591278076172 11.89423656463623"></path></svg>