<svg xmlns="http://www.w3.org/2000/svg" viewBox="0.0 0.0 24.0 24.0" height="200px" width="200px"><path fill="none" stroke="black" stroke-width=".3" stroke-opacity="1.0"  filling="0" d="M32.031654357910156 14.30162525177002 L32.031654357910156 14.30162525177002 C32.00299835205078 14.347162246704102 31.97434425354004 14.392698287963867 31.945688247680664 14.43823528289795 L31.945688247680664 14.43823528289795 C32.01670837402344 14.481853485107422 32.08772659301758 14.525470733642578 32.15874481201172 14.56908893585205 L32.15473175048828 14.56470012664795 C32.16669845581055 14.645973205566406 32.17866134643555 14.727245330810547 32.19062805175781 14.808518409729004 L32.19062805175781 14.808518409729004 C32.15079879760742 14.836718559265137 32.1109733581543 14.864917755126953 32.071144104003906 14.893117904663086 L32.071144104003906 14.893117904663086 C32.03757095336914 14.85239028930664 32.00400161743164 14.811662673950195 31.970428466796875 14.77093505859375 L31.970428466796875 14.77093505859375 C32.02131652832031 14.72800064086914 31.970090866088867 14.616533279418945 31.915088653564453 14.579017639160156 L31.915088653564453 14.579017639160156 C31.884033203125 14.517990112304688 31.85297966003418 14.456962585449219 31.821924209594727 14.39593505859375 L31.821924209594727 14.39593505859375 C31.891834259033203 14.364498138427734 31.96174430847168 14.333062171936035 32.031654357910156 14.30162525177002 L32.031654357910156 14.30162525177002"></path></svg>