<svg xmlns="http://www.w3.org/2000/svg" viewBox="0.0 0.0 24.0 24.0" height="200px" width="200px"><path fill="none" stroke="black" stroke-width=".3" stroke-opacity="1.0"  filling="0" d="M12.499881744384766 11.877081871032715 L12.499881744384766 11.877081871032715 C12.558135986328125 11.987081527709961 12.6163911819458 12.097082138061523 12.67464542388916 12.20708179473877 L12.67464542388916 12.20708179473877 C12.584945678710938 12.18809986114502 12.495245933532715 12.169118881225586 12.405546188354492 12.150136947631836 L12.405546188354492 12.150136947631836 C12.388545989990234 12.181909561157227 12.371545791625977 12.213682174682617 12.354545593261719 12.245454788208008 L12.354545593261719 12.245454788208008 C12.336363792419434 12.245454788208008 12.318181037902832 12.245454788208008 12.299999237060547 12.245454788208008 L12.299999237060547 12.245454788208008 C12.366626739501953 12.122663497924805 12.43325424194336 11.999873161315918 12.499881744384766 11.877081871032715 L12.499881744384766 11.877081871032715"></path>
<path fill="none" stroke="black" stroke-width=".3" stroke-opacity="1.0"  filling="0" d="M12.477327346801758 11.973518371582031 L12.477327346801758 11.973518371582031 C12.486445426940918 11.974364280700684 12.495563507080078 11.97520923614502 12.504681587219238 11.976055145263672 L12.504681587219238 11.976055145263672 C12.518781661987305 12.019200325012207 12.532882690429688 12.062345504760742 12.546982765197754 12.105490684509277 L12.546982765197754 12.105490684509277 C12.505664825439453 12.103654861450195 12.464345932006836 12.101818084716797 12.423027992248535 12.099982261657715 L12.423027992248535 12.099982261657715 C12.44112777709961 12.057827949523926 12.459227561950684 12.01567268371582 12.477327346801758 11.973518371582031 L12.477327346801758 11.973518371582031"></path></svg>