<svg xmlns="http://www.w3.org/2000/svg" viewBox="0.0 0.0 24.0 24.0" height="200px" width="200px"><path fill="none" stroke="black" stroke-width=".3" stroke-opacity="1.0"  filling="0" d="M18.516515731811523 10.68889045715332 L18.516515731811523 10.68889045715332 C18.49018096923828 10.720508575439453 18.463844299316406 10.752126693725586 18.437509536743164 10.783744812011719 L18.437509536743164 10.783744812011719 C18.482582092285156 10.800026893615723 18.52765464782715 10.816308975219727 18.57272720336914 10.83259105682373 L18.57272720336914 10.83259105682373 C18.572664260864258 10.839909553527832 18.572599411010742 10.847227096557617 18.57253646850586 10.854545593261719 L18.57253646850586 10.854545593261719 C18.544572830200195 10.863964080810547 18.51660919189453 10.873381614685059 18.488645553588867 10.882800102233887 L18.488645553588867 10.882800102233887 C18.447546005249023 10.849990844726562 18.406444549560547 10.817182540893555 18.365345001220703 10.78437328338623 L18.365345001220703 10.78437328338623 C18.417081832885742 10.754191398620605 18.46881675720215 10.724008560180664 18.520553588867188 10.693826675415039 L18.520553588867188 10.693826675415039 C18.519207000732422 10.692181587219238 18.51786231994629 10.690535545349121 18.516515731811523 10.68889045715332 L18.516515731811523 10.68889045715332"></path></svg>