<svg xmlns="http://www.w3.org/2000/svg" viewBox="0.0 0.0 24.0 24.0" height="200px" width="200px"><path fill="none" stroke="black" stroke-width=".3" stroke-opacity="1.0"  filling="0" d="M33.46186828613281 15.26157283782959 L33.46186828613281 15.26157283782959 C33.41195297241211 15.615667343139648 32.90180587768555 15.714550018310547 32.583438873291016 15.87739086151123 C31.611740112304688 16.37440299987793 30.606515884399414 16.859275817871094 29.672704696655273 17.427248001098633 L29.672704696655273 17.427248001098633 C29.490894317626953 17.427255630493164 29.309083938598633 17.427265167236328 29.127273559570312 17.42727279663086 L29.127273559570312 17.42727279663086 C29.058019638061523 17.364381790161133 28.9887638092041 17.301488876342773 28.919509887695312 17.238597869873047 L28.919509887695312 17.238597869873047 C28.963336944580078 17.21588897705078 29.007164001464844 17.193180084228516 29.05099105834961 17.17047119140625 L29.05099105834961 17.17047119140625 C29.051372528076172 17.15872573852539 29.051755905151367 17.146982192993164 29.05213737487793 17.135236740112305 L29.05213737487793 17.135236740112305 C28.97239112854004 17.101255416870117 28.89264678955078 17.067272186279297 28.81290054321289 17.03329086303711 L28.81290054321289 17.03329086303711 C28.99840545654297 16.877599716186523 29.292781829833984 16.573169708251953 29.381183624267578 16.923789978027344 L29.381183624267578 16.923789978027344 C29.400611877441406 16.931081771850586 29.4200382232666 16.938371658325195 29.43946647644043 16.945663452148438 L29.43946647644043 16.945663452148438 C29.434783935546875 16.98921775817871 29.430103302001953 17.032773971557617 29.4254207611084 17.07632827758789 L29.4254207611084 17.07632827758789 C29.456674575805664 17.06661033630371 29.487930297851562 17.05689239501953 29.519184112548828 17.04717445373535 L29.519184112548828 17.04717445373535 C29.804733276367188 17.41638946533203 30.516881942749023 16.756816864013672 30.75423240661621 16.63843536376953 C31.658153533935547 16.18759536743164 32.58687973022461 15.765339851379395 33.46186828613281 15.26157283782959 L33.46186828613281 15.26157283782959"></path></svg>