<svg xmlns="http://www.w3.org/2000/svg" viewBox="0.0 0.0 24.0 24.0" height="200px" width="200px"><path fill="none" stroke="black" stroke-width=".3" stroke-opacity="1.0"  filling="0" d="M-3.4624099731445312 13.227381706237793 L-3.4624099731445312 13.227381706237793 C-3.47589111328125 13.298408508300781 -3.4893722534179688 13.369436264038086 -3.5028533935546875 13.440463066101074 L-3.5028533935546875 13.440463066101074 C-3.5103721618652344 13.43019962310791 -3.5178909301757812 13.419936180114746 -3.525409698486328 13.409672737121582 L-3.525409698486328 13.409672737121582 C-3.5829546451568604 13.463309288024902 -3.6404998302459717 13.516944885253906 -3.698044776916504 13.570581436157227 L-3.698044776916504 13.570581436157227 C-3.6610631942749023 13.529817581176758 -3.624081611633301 13.489053726196289 -3.587100028991699 13.44828987121582 L-3.587100028991699 13.44828987121582 C-3.610591173171997 13.429671287536621 -3.634082555770874 13.411053657531738 -3.657573699951172 13.392435073852539 L-3.657573699951172 13.392435073852539 C-3.6346311569213867 13.344331741333008 -3.5573322772979736 13.342018127441406 -3.5042734146118164 13.347026824951172 L-3.5042734146118164 13.347026824951172 C-3.490319013595581 13.307145118713379 -3.4763643741607666 13.267263412475586 -3.4624099731445312 13.227381706237793 L-3.4624099731445312 13.227381706237793"></path></svg>