<svg xmlns="http://www.w3.org/2000/svg" viewBox="0.0 0.0 24.0 24.0" height="200px" width="200px"><path fill="none" stroke="black" stroke-width=".3" stroke-opacity="1.0"  filling="0" d="M18.432573318481445 11.750591278076172 L18.432573318481445 11.750591278076172 C18.45067024230957 11.880664825439453 18.465137481689453 12.011966705322266 18.464319229125977 12.143290519714355 L18.464319229125977 12.143290519714355 C18.560508728027344 12.161420822143555 18.657258987426758 12.205774307250977 18.727092742919922 12.27436351776123 L18.727092742919922 12.27436351776123 C18.67964744567871 12.249344825744629 18.632200241088867 12.224327087402344 18.584754943847656 12.199308395385742 L18.584754943847656 12.199308395385742 C18.57857322692871 12.227035522460938 18.5723934173584 12.254762649536133 18.566211700439453 12.282489776611328 L18.566211700439453 12.282489776611328 C18.527347564697266 12.277362823486328 18.488483428955078 12.272235870361328 18.44961929321289 12.267108917236328 L18.44961929321289 12.267108917236328 C18.39530372619629 12.098739624023438 18.260103225708008 11.842426300048828 18.436553955078125 11.75438117980957 L18.436553955078125 11.75438117980957 C18.435226440429688 11.753117561340332 18.433900833129883 11.75185489654541 18.432573318481445 11.750591278076172 L18.432573318481445 11.750591278076172"></path></svg>