<svg xmlns="http://www.w3.org/2000/svg" viewBox="0.0 0.0 24.0 24.0" height="200px" width="200px"><path fill="none" stroke="black" stroke-width=".3" stroke-opacity="1.0"  filling="0" d="M13.067455291748047 10.695137023925781 L13.067455291748047 10.695137023925781 C13.31706428527832 10.695137023925781 13.566673278808594 10.695137023925781 13.816282272338867 10.695137023925781 L13.816282272338867 10.695137023925781 C13.816282272338867 11.545027732849121 13.816282272338867 12.394918441772461 13.816282272338867 13.2448091506958 L13.816282272338867 13.2448091506958 C13.627700805664062 13.2448091506958 13.439118385314941 13.2448091506958 13.250536918640137 13.2448091506958 L13.250536918640137 13.2448091506958 C13.248237609863281 12.783208847045898 13.24593734741211 12.321609497070312 13.243638038635254 11.86000919342041 L13.243638038635254 11.86000919342041 C13.10509204864502 12.097563743591309 12.966547012329102 12.335119247436523 12.828001022338867 12.572673797607422 L12.828001022338867 12.572673797607422 C12.679400444030762 12.322591781616211 12.530800819396973 12.072509765625 12.382200241088867 11.822427749633789 L12.382200241088867 11.822427749633789 C12.3742094039917 11.823954582214355 12.366218566894531 11.825482368469238 12.358227729797363 11.827009201049805 L12.358227729797363 11.827009201049805 C12.358227729797363 12.302618026733398 12.358227729797363 12.778226852416992 12.358227729797363 13.253835678100586 L12.358227729797363 13.253835678100586 C11.289875030517578 13.254403114318848 11.781745910644531 11.558690071105957 11.78187370300293 10.701299667358398 L11.78187370300293 10.701299667358398 C11.9846830368042 10.701299667358398 12.187491416931152 10.701299667358398 12.390300750732422 10.701299667358398 L12.390300750732422 10.701299667358398 C12.519691467285156 10.920626640319824 12.64908218383789 11.139954566955566 12.778472900390625 11.359281539916992 L12.778472900390625 11.359281539916992 C12.874800682067871 11.137900352478027 12.9711275100708 10.916518211364746 13.067455291748047 10.695137023925781 L13.067455291748047 10.695137023925781"></path></svg>