<svg xmlns="http://www.w3.org/2000/svg" viewBox="0.0 0.0 24.0 24.0" height="200px" width="200px"><path fill="none" stroke="black" stroke-width=".3" stroke-opacity="1.0"  filling="0" d="M-4.418180465698242 11.209091186523438 L-4.418180465698242 11.209091186523438 C-3.957390069961548 11.209091186523438 -3.4965999126434326 11.209091186523438 -3.0358095169067383 11.209091186523438 L-3.0358095169067383 11.209091186523438 C-3.0358095169067383 11.326918601989746 -3.0358095169067383 11.444745063781738 -3.0358095169067383 11.562572479248047 L-3.0358095169067383 11.562572479248047 C-4.25108003616333 11.555119514465332 -4.065320014953613 13.801968574523926 -3.0271921157836914 14.159072875976562 L-3.0271921157836914 14.159072875976562 C-3.0271921157836914 14.27575397491455 -3.0271921157836914 14.392436027526855 -3.0271921157836914 14.509117126464844 L-3.0271921157836914 14.509117126464844 C-3.490846633911133 14.509117126464844 -3.954501152038574 14.509117126464844 -4.418155670166016 14.509117126464844 L-4.418155670166016 14.509117126464844 C-4.418155670166016 14.381844520568848 -4.418155670166016 14.254572868347168 -4.418155670166016 14.127300262451172 L-4.418155670166016 14.127300262451172 C-4.1432695388793945 14.028302192687988 -4.063779830932617 12.142779350280762 -4.226428985595703 11.829381942749023 L-4.226428985595703 11.829381942749023 C-4.290338039398193 11.9771728515625 -4.354246616363525 12.12496280670166 -4.418155670166016 12.272753715515137 L-4.418155670166016 12.272753715515137 C-4.418163776397705 11.91819953918457 -4.418172359466553 11.563645362854004 -4.418180465698242 11.209091186523438 L-4.418180465698242 11.209091186523438"></path></svg>