<svg xmlns="http://www.w3.org/2000/svg" viewBox="0.0 0.0 24.0 24.0" height="200px" width="200px"><path fill="none" stroke="black" stroke-width=".3" stroke-opacity="1.0"  filling="0" d="M12.527263641357422 11.606891632080078 L12.527263641357422 11.606891632080078 C12.571881294250488 11.649918556213379 12.616499900817871 11.69294548034668 12.661117553710938 11.73597240447998 L12.661117553710938 11.73597240447998 C12.593499183654785 11.753999710083008 12.52588176727295 11.772027015686035 12.458263397216797 11.790054321289062 L12.458263397216797 11.790054321289062 C12.474617958068848 11.772327423095703 12.490973472595215 11.754599571228027 12.507328033447266 11.736872673034668 L12.507328033447266 11.736872673034668 C12.483064651489258 11.730481147766113 12.458800315856934 11.724090576171875 12.434536933898926 11.71769905090332 L12.434536933898926 11.71769905090332 C12.434536933898926 11.764472007751465 12.434536933898926 11.811244010925293 12.434536933898926 11.858016967773438 L12.434536933898926 11.858016967773438 C12.417291641235352 11.860417366027832 12.400046348571777 11.86281681060791 12.382801055908203 11.865217208862305 L12.386699676513672 11.869499206542969 C12.347514152526855 11.792326927185059 12.309412002563477 11.714592933654785 12.272536277770996 11.636290550231934 L12.272536277770996 11.636290550231934 C12.35744571685791 11.626490592956543 12.442354202270508 11.616691589355469 12.527263641357422 11.606891632080078 L12.527263641357422 11.606891632080078"></path></svg>