<svg xmlns="http://www.w3.org/2000/svg" viewBox="0.0 0.0 24.0 24.0" height="200px" width="200px"><path fill="none" stroke="black" stroke-width=".3" stroke-opacity="1.0"  filling="0" d="M-6.640771865844727 10.668354034423828 L-6.640771865844727 10.668354034423828 C-4.842460632324219 12.288640975952148 -6.7597761154174805 12.061921119689941 -7.686191558837891 13.091207504272461 L-7.686191558837891 13.091207504272461 C-6.995440483093262 12.827542304992676 -6.1594438552856445 13.548860549926758 -5.996181488037109 12.557672500610352 L-5.996181488037109 12.557672500610352 C-5.906527042388916 12.557672500610352 -5.816873073577881 12.557672500610352 -5.7272186279296875 12.557672500610352 L-5.7272186279296875 12.557672500610352 C-5.724857807159424 14.577129364013672 -7.257334232330322 12.759517669677734 -7.817893981933594 13.632025718688965 L-7.817893981933594 13.632025718688965 C-7.920948028564453 13.632025718688965 -8.024002075195312 13.632025718688965 -8.127056121826172 13.632025718688965 L-8.127056121826172 13.632025718688965 C-8.120105743408203 12.345688819885254 -6.573112487792969 12.510669708251953 -6.543630599975586 11.54920768737793 C-6.518312931060791 10.723552703857422 -7.425817966461182 10.971602439880371 -7.701627731323242 11.287226676940918 L-7.701627731323242 11.287226676940918 C-6.987903594970703 11.631185531616211 -7.652585983276367 12.631553649902344 -8.142436981201172 11.778190612792969 C-8.70646858215332 10.795599937438965 -7.021231651306152 10.680476188659668 -6.640771865844727 10.668354034423828 L-6.640771865844727 10.668354034423828"></path></svg>