<svg xmlns="http://www.w3.org/2000/svg" viewBox="0.0 0.0 24.0 24.0" height="200px" width="200px"><path fill="none" stroke="black" stroke-width=".3" stroke-opacity="1.0"  filling="0" d="M13.384855270385742 10.718372344970703 L13.384855270385742 10.718372344970703 C13.366745948791504 10.913199424743652 13.348636627197266 11.108026504516602 13.330527305603027 11.30285358428955 L13.330527305603027 11.30285358428955 C13.10776424407959 11.30285358428955 12.885000228881836 11.30285358428955 12.662237167358398 11.30285358428955 L12.662237167358398 11.30285358428955 C12.662237167358398 11.414663314819336 12.662237167358398 11.526472091674805 12.662237167358398 11.63828182220459 L12.662237167358398 11.63828182220459 C12.829218864440918 11.63828182220459 12.996200561523438 11.63828182220459 13.163182258605957 11.63828182220459 L13.163182258605957 11.63828182220459 C13.163182258605957 11.821782112121582 13.163182258605957 12.005281448364258 13.163182258605957 12.18878173828125 L13.163182258605957 12.18878173828125 C12.99726390838623 12.199853897094727 12.83134651184082 12.21092700958252 12.665428161621094 12.221999168395996 L12.665428161621094 12.221999168395996 C12.665428161621094 12.38895320892334 12.665428161621094 12.555908203125 12.665428161621094 12.722862243652344 L12.665428161621094 12.722862243652344 C12.917336463928223 12.722862243652344 13.169245719909668 12.722862243652344 13.421154022216797 12.722862243652344 L13.421154022216797 12.722862243652344 C13.421154022216797 12.91024398803711 13.421154022216797 13.097626686096191 13.421154022216797 13.285008430480957 L13.421154022216797 13.285008430480957 C12.970145225524902 13.294617652893066 12.519137382507324 13.304226875305176 12.06812858581543 13.313836097717285 L12.06812858581543 13.313836097717285 C12.06812858581543 12.457517623901367 12.06812858581543 11.60119915008545 12.06812858581543 10.744880676269531 L12.06812858581543 10.744880676269531 C12.480384826660156 10.59400463104248 12.945858001708984 10.718842506408691 13.384855270385742 10.718372344970703 L13.384855270385742 10.718372344970703"></path></svg>