<svg xmlns="http://www.w3.org/2000/svg" viewBox="0.0 0.0 24.0 24.0" height="200px" width="200px"><path fill="none" stroke="black" stroke-width=".3" stroke-opacity="1.0"  filling="0" d="M11.515936851501465 11.898681640625 L11.515936851501465 11.898681640625 C11.59135913848877 12.042608261108398 11.619009971618652 12.212865829467773 11.61799144744873 12.375353813171387 L11.61799144744873 12.375353813171387 C11.630373001098633 12.378517150878906 11.642755508422852 12.381680488586426 11.655137062072754 12.384843826293945 L11.655137062072754 12.384843826293945 C11.678082466125488 12.34024429321289 11.701027870178223 12.29564380645752 11.723973274230957 12.251044273376465 L11.723973274230957 12.251044273376465 C11.71148681640625 12.347076416015625 11.564112663269043 12.409651756286621 11.469164848327637 12.390599250793457 L11.469164848327637 12.390599250793457 C10.546727180480957 12.557448387145996 11.799673080444336 11.842470169067383 11.269636154174805 11.95527172088623 L11.269636154174805 11.95527172088623 C11.278390884399414 12.006162643432617 11.287145614624023 12.057053565979004 11.295900344848633 12.10794448852539 L11.295900344848633 12.10794448852539 C10.891059875488281 11.99243450164795 11.383485794067383 11.909662246704102 11.515936851501465 11.898681640625 L11.515936851501465 11.898681640625"></path>
<path fill="none" stroke="black" stroke-width=".3" stroke-opacity="1.0"  filling="0" d="M11.473063468933105 12.14310073852539 L11.473063468933105 12.14310073852539 C11.446611404418945 12.228196144104004 11.327141761779785 12.327596664428711 11.247790336608887 12.287046432495117 L11.247790336608887 12.287046432495117 C11.322881698608398 12.23906421661377 11.397972106933594 12.191082954406738 11.473063468933105 12.14310073852539 L11.473063468933105 12.14310073852539"></path></svg>