<svg xmlns="http://www.w3.org/2000/svg" viewBox="0.0 0.0 24.0 24.0" height="200px" width="200px"><path fill="none" stroke="black" stroke-width=".3" stroke-opacity="1.0"  filling="0" d="M20.317909240722656 10.663581848144531 L20.317909240722656 10.663581848144531 C20.318044662475586 10.985048294067383 19.88441276550293 11.263662338256836 19.562946319580078 11.263662338256836 L19.562946319580078 11.263662338256836 C19.562946319580078 11.371589660644531 19.562946319580078 11.479517936706543 19.562946319580078 11.587445259094238 L19.562946319580078 11.587445259094238 C19.75682830810547 11.587445259094238 19.950708389282227 11.587445259094238 20.144590377807617 11.587445259094238 L20.144590377807617 11.587445259094238 C20.144590377807617 11.768045425415039 20.144590377807617 11.948644638061523 20.144590377807617 12.129244804382324 L20.144590377807617 12.129244804382324 C19.951309204101562 12.144036293029785 19.758028030395508 12.15882682800293 19.564746856689453 12.17361831665039 L19.564746856689453 12.17361831665039 C19.564746856689453 12.33393669128418 19.564746856689453 12.494255065917969 19.564746856689453 12.654573440551758 L19.564746856689453 12.654573440551758 C19.89775848388672 12.654052734375 20.390291213989258 12.88742446899414 20.388080596923828 13.220428466796875 L20.388080596923828 13.220428466796875 C19.94659996032715 13.236705780029297 19.469818115234375 13.295022010803223 19.030879974365234 13.247699737548828 C18.789236068725586 13.221648216247559 18.94470977783203 11.075740814208984 18.981653213500977 10.797000885009766 C19.02881622314453 10.441146850585938 20.002838134765625 10.663933753967285 20.317909240722656 10.663581848144531 L20.317909240722656 10.663581848144531"></path></svg>