<svg xmlns="http://www.w3.org/2000/svg" viewBox="0.0 0.0 24.0 24.0" height="200px" width="200px"><path fill="none" stroke="black" stroke-width=".3" stroke-opacity="1.0"  filling="0" d="M13.887845993041992 11.881799697875977 L13.887845993041992 11.881799697875977 C13.910909652709961 11.925163269042969 13.933972358703613 11.968526840209961 13.957036018371582 12.011890411376953 L13.957036018371582 12.011890411376953 C13.895590782165527 12.02037239074707 13.834144592285156 12.028854370117188 13.772699356079102 12.037336349487305 L13.772699356079102 12.037336349487305 C13.78704833984375 12.006915092468262 13.804203987121582 11.977752685546875 13.823018074035645 11.949872016906738 L13.823018074035645 11.949872016906738 C13.608905792236328 12.183722496032715 13.633026123046875 12.228347778320312 13.819199562072754 12.457990646362305 L13.819199562072754 12.457990646362305 C13.684435844421387 12.457990646362305 13.54967212677002 12.457990646362305 13.414908409118652 12.457990646362305 L13.414908409118652 12.457990646362305 C13.473379135131836 12.310707092285156 13.52734375 12.1544828414917 13.527081489562988 11.996017456054688 L13.527081489562988 11.996017456054688 C13.488490104675293 11.975553512573242 13.449899673461914 11.955090522766113 13.411308288574219 11.934626579284668 L13.411308288574219 11.934626579284668 C13.415481567382812 11.924162864685059 13.41965389251709 11.91369915008545 13.423827171325684 11.90323543548584 L13.423827171325684 11.90323543548584 C13.509881973266602 11.913690567016602 13.59593677520752 11.924144744873047 13.681991577148438 11.934599876403809 L13.681991577148438 11.934599876403809 C13.750609397888184 11.916999816894531 13.819228172302246 11.899399757385254 13.887845993041992 11.881799697875977 L13.887845993041992 11.881799697875977"></path></svg>