<svg xmlns="http://www.w3.org/2000/svg" viewBox="0.0 0.0 24.0 24.0" height="200px" width="200px"><path fill="none" stroke="black" stroke-width=".3" stroke-opacity="1.0"  filling="0" d="M12.065045356750488 11.874382019042969 L12.065045356750488 11.874382019042969 C12.132190704345703 11.87781810760498 12.199337005615234 11.881255149841309 12.26648235321045 11.88469123840332 L12.26648235321045 11.88469123840332 C12.26648235321045 11.95637321472168 12.26648235321045 12.028055191040039 12.26648235321045 12.099737167358398 L12.26648235321045 12.099737167358398 C12.258772850036621 12.10428237915039 12.25106430053711 12.108827590942383 12.243354797363281 12.113372802734375 L12.243354797363281 12.113372802734375 C12.177851676940918 12.031554222106934 12.044992446899414 12.025348663330078 11.94027328491211 12.02967357635498 L11.94027328491211 12.02967357635498 C12.397821426391602 12.242270469665527 12.351715087890625 12.501441955566406 11.814189910888672 12.440017700195312 L11.814189910888672 12.440017700195312 C11.814189910888672 12.355835914611816 11.814189910888672 12.27165412902832 11.814189910888672 12.187472343444824 L11.814189910888672 12.187472343444824 C11.89856243133545 12.26595401763916 11.982935905456543 12.344436645507812 12.06730842590332 12.422918319702148 L12.06730842590332 12.422918319702148 C12.122517585754395 12.385490417480469 12.177726745605469 12.348063468933105 12.232935905456543 12.310635566711426 L12.232935905456543 12.310635566711426 C11.953374862670898 12.20079517364502 11.63003921508789 12.092485427856445 12.065045356750488 11.874382019042969 L12.065045356750488 11.874382019042969"></path></svg>