<svg xmlns="http://www.w3.org/2000/svg" viewBox="0.0 0.0 24.0 24.0" height="200px" width="200px"><path fill="none" stroke="black" stroke-width=".3" stroke-opacity="1.0"  filling="0" d="M2.512690544128418 10.635462760925293 L2.512690544128418 10.635462760925293 C2.611499547958374 10.63568115234375 2.710308313369751 10.63589859008789 2.809117317199707 10.636116981506348 L2.809117317199707 10.636116981506348 C2.809117317199707 11.229265213012695 2.3954591751098633 13.281229972839355 3.318136215209961 13.281707763671875 L3.318136215209961 13.281707763671875 C3.318136215209961 13.381708145141602 3.318136215209961 13.481707572937012 3.318136215209961 13.581707954406738 L3.318136215209961 13.581707954406738 C2.758392572402954 13.582290649414062 2.199185609817505 13.60824203491211 1.6394996643066406 13.609090805053711 L1.6394996643066406 13.609090805053711 C1.6394996643066406 13.509445190429688 1.6394996643066406 13.40980052947998 1.6394996643066406 13.310154914855957 L1.6394996643066406 13.310154914855957 C2.4487221240997314 13.190973281860352 2.179694175720215 11.986283302307129 2.1494998931884766 11.454545021057129 L2.1494998931884766 11.454545021057129 C1.7598410844802856 11.454140663146973 1.6369163990020752 11.516234397888184 1.6363630294799805 11.12727165222168 L1.6363630294799805 11.12727165222168 C2.028339147567749 11.128755569458008 2.21551251411438 10.87549114227295 2.512690544128418 10.635462760925293 L2.512690544128418 10.635462760925293"></path></svg>