<svg xmlns="http://www.w3.org/2000/svg" viewBox="0.0 0.0 24.0 24.0" height="200px" width="200px"><path fill="none" stroke="black" stroke-width=".3" stroke-opacity="1.0"  filling="0" d="M11.809091567993164 11.981182098388672 L11.809091567993164 11.981182098388672 C11.865609169006348 11.981182098388672 11.922127723693848 11.981182098388672 11.978645324707031 11.981182098388672 L11.978645324707031 11.981182098388672 C11.942327499389648 12.010100364685059 11.90600872039795 12.039018630981445 11.869690895080566 12.067936897277832 L11.869690895080566 12.067936897277832 C11.905909538269043 12.0784912109375 11.942127227783203 12.089046478271484 11.97834587097168 12.099600791931152 L11.97834587097168 12.099600791931152 C11.941763877868652 12.133382797241211 11.905182838439941 12.167163848876953 11.868600845336914 12.200945854187012 L11.868600845336914 12.200945854187012 C11.921501159667969 12.215790748596191 11.974400520324707 12.230636596679688 12.027300834655762 12.245481491088867 L12.027300834655762 12.245481491088867 C11.954564094543457 12.24547290802002 11.881828308105469 12.245463371276855 11.809091567993164 12.245454788208008 L11.809091567993164 12.245454788208008 C11.809091567993164 12.157363891601562 11.809091567993164 12.069272994995117 11.809091567993164 11.981182098388672 L11.809091567993164 11.981182098388672"></path></svg>