<svg xmlns="http://www.w3.org/2000/svg" viewBox="0.0 0.0 24.0 24.0" height="200px" width="200px"><path fill="none" stroke="black" stroke-width=".3" stroke-opacity="1.0"  filling="0" d="M8.286654472351074 11.83903694152832 L8.286654472351074 11.83903694152832 C8.433865547180176 11.909214973449707 8.24234390258789 12.23259449005127 8.252481460571289 11.901435852050781 L8.252481460571289 11.901435852050781 C8.139924049377441 11.996024131774902 8.101265907287598 12.168549537658691 8.1007080078125 12.315571784973145 L8.1007080078125 12.315571784973145 C8.14497184753418 12.325626373291016 8.18923568725586 12.335680961608887 8.233499526977539 12.345735549926758 L8.233499526977539 12.345735549926758 C8.101726531982422 12.369216918945312 7.969954013824463 12.392699241638184 7.838181495666504 12.416180610656738 L7.838181495666504 12.416180610656738 C7.8322272300720215 12.403690338134766 7.826272487640381 12.391199111938477 7.820318222045898 12.378708839416504 L7.820318222045898 12.378708839416504 C8.052165985107422 12.18582534790039 7.942387104034424 12.070737838745117 7.819363594055176 11.843509674072266 L7.819363594055176 11.843509674072266 C7.917945384979248 11.851109504699707 8.01652717590332 11.858709335327148 8.11510944366455 11.86630916595459 L8.11510944366455 11.86630916595459 C8.172290802001953 11.857218742370605 8.229473114013672 11.848127365112305 8.286654472351074 11.83903694152832 L8.286654472351074 11.83903694152832"></path></svg>