<svg xmlns="http://www.w3.org/2000/svg" viewBox="0.0 0.0 24.0 24.0" height="200px" width="200px"><path fill="none" stroke="black" stroke-width=".3" stroke-opacity="1.0"  filling="0" d="M3.8282995223999023 11.053717613220215 L3.8282995223999023 11.053717613220215 C4.424845218658447 11.053717613220215 5.021390438079834 11.053717613220215 5.617936134338379 11.053717613220215 L5.617936134338379 11.053717613220215 C5.618264198303223 11.363619804382324 5.05190372467041 11.437888145446777 4.993117809295654 11.74216365814209 C4.860290050506592 12.429678916931152 4.607629776000977 13.99109172821045 5.611963748931885 13.990936279296875 L5.611963748931885 13.990936279296875 C5.611963748931885 14.114273071289062 5.611963748931885 14.237608909606934 5.611963748931885 14.360945701599121 L5.611963748931885 14.360945701599121 C4.982000350952148 14.360945701599121 4.352036952972412 14.360945701599121 3.722073554992676 14.360945701599121 L3.722073554992676 14.360945701599121 C3.716364622116089 14.115394592285156 4.0826735496521 14.019135475158691 4.298590183258057 13.902053833007812 C4.764495849609375 13.6494140625 4.775125503540039 11.395613670349121 3.8282995223999023 11.400053977966309 L3.8282995223999023 11.400053977966309 C3.8282995223999023 11.284608840942383 3.8282995223999023 11.16916275024414 3.8282995223999023 11.053717613220215 L3.8282995223999023 11.053717613220215"></path></svg>