<svg xmlns="http://www.w3.org/2000/svg" viewBox="0.0 0.0 24.0 24.0" height="200px" width="200px"><path fill="none" stroke="black" stroke-width=".3" stroke-opacity="1.0"  filling="0" d="M12.462517738342285 11.971363067626953 L12.462517738342285 11.971363067626953 C12.515244483947754 11.977226257324219 12.567972183227539 11.9830904006958 12.620698928833008 11.988953590393066 L12.620698928833008 11.988953590393066 C12.582444190979004 11.984408378601074 12.544190406799316 11.979863166809082 12.505935668945312 11.97531795501709 L12.505935668945312 11.97531795501709 C12.53632640838623 12.007608413696289 12.566717147827148 12.039899826049805 12.597107887268066 12.072190284729004 L12.597107887268066 12.072190284729004 C12.565253257751465 12.109454154968262 12.533398628234863 12.146717071533203 12.501543998718262 12.183980941772461 L12.501543998718262 12.183980941772461 C12.543734550476074 12.187944412231445 12.585926055908203 12.191908836364746 12.628116607666016 12.19587230682373 L12.628116607666016 12.19587230682373 C12.627044677734375 12.207745552062988 12.625971794128418 12.21961784362793 12.624899864196777 12.231491088867188 L12.624899864196777 12.231491088867188 C12.527780532836914 12.199613571166992 12.457317352294922 12.073447227478027 12.462517738342285 11.971363067626953 L12.462517738342285 11.971363067626953"></path></svg>