<svg xmlns="http://www.w3.org/2000/svg" viewBox="0.0 0.0 24.0 24.0" height="200px" width="200px"><path fill="none" stroke="black" stroke-width=".3" stroke-opacity="1.0"  filling="0" d="M10.864689826965332 11.988762855529785 L10.864689826965332 11.988762855529785 C10.873416900634766 11.991071701049805 10.882144927978516 11.99338150024414 10.89087200164795 11.99569034576416 L10.89087200164795 11.99569034576416 C10.869671821594238 12.078953742980957 10.848472595214844 12.162217140197754 10.827272415161133 12.24548053741455 L10.827272415161133 12.24548053741455 C10.754545211791992 12.245471954345703 10.681818008422852 12.245463371276855 10.609090805053711 12.245454788208008 L10.609090805053711 12.245454788208008 C10.599272727966309 12.171427726745605 10.58945369720459 12.097399711608887 10.579635620117188 12.023372650146484 L10.579635620117188 12.023372650146484 C10.58511734008789 12.021882057189941 10.590599060058594 12.020390510559082 10.596080780029297 12.018899917602539 L10.596080780029297 12.018899917602539 C10.615371704101562 12.066781997680664 10.634663581848145 12.114663124084473 10.65395450592041 12.162545204162598 L10.65395450592041 12.162545204162598 C10.67114543914795 12.110336303710938 10.688335418701172 12.058127403259277 10.705526351928711 12.005918502807617 L10.705526351928711 12.005918502807617 C10.741308212280273 12.054381370544434 10.777090072631836 12.102845191955566 10.812871932983398 12.151308059692383 L10.812871932983398 12.151308059692383 C10.830144882202148 12.097126007080078 10.847416877746582 12.04294490814209 10.864689826965332 11.988762855529785 L10.864689826965332 11.988762855529785"></path></svg>