<svg xmlns="http://www.w3.org/2000/svg" viewBox="0.0 0.0 24.0 24.0" height="200px" width="200px"><path fill="none" stroke="black" stroke-width=".3" stroke-opacity="1.0"  filling="0" d="M15.872672080993652 10.9060640335083 L15.872672080993652 10.9060640335083 C16.882137298583984 10.956552505493164 18.29312515258789 11.842897415161133 16.953189849853516 12.878836631774902 C16.348411560058594 13.346405982971191 15.439427375793457 13.304452896118164 14.736327171325684 13.141390800476074 L14.736327171325684 13.141390800476074 C14.789249420166016 12.875682830810547 14.863569259643555 12.621626853942871 14.959418296813965 12.368019104003906 L14.959418296813965 12.368019104003906 C14.994681358337402 12.288019180297852 15.029945373535156 12.208019256591797 15.065208435058594 12.128019332885742 L15.065208435058594 12.128019332885742 C15.264995574951172 11.707077980041504 15.377729415893555 10.984604835510254 15.872672080993652 10.9060640335083 L15.872672080993652 10.9060640335083"></path>
<path fill="none" stroke="black" stroke-width=".3" stroke-opacity="1.0"  filling="0" d="M16.07427215576172 11.524690628051758 L16.07427215576172 11.524690628051758 C16.260299682617188 11.558245658874512 16.446327209472656 11.59179973602295 16.632354736328125 11.625354766845703 L16.632354736328125 11.625354766845703 C16.966638565063477 12.223143577575684 16.198299407958984 12.703015327453613 15.659099578857422 12.547690391540527 L15.659099578857422 12.547690391540527 C15.771663665771484 12.195850372314453 15.958423614501953 11.877484321594238 16.07427215576172 11.524690628051758 L16.07427215576172 11.524690628051758"></path></svg>