<svg xmlns="http://www.w3.org/2000/svg" viewBox="0.0 0.0 24.0 24.0" height="200px" width="200px"><path fill="none" stroke="black" stroke-width=".3" stroke-opacity="1.0"  filling="0" d="M14.106735229492188 10.859319686889648 L14.106735229492188 10.859319686889648 C14.631217956542969 11.441619873046875 14.240161895751953 11.475374221801758 13.67618179321289 11.874654769897461 L13.67618179321289 11.874654769897461 C13.761252403259277 12.582650184631348 14.148256301879883 13.363219261169434 13.094072341918945 13.073454856872559 L13.094072341918945 13.073454856872559 C13.069799423217773 12.809727668762207 13.045526504516602 12.546000480651855 13.02125358581543 12.282273292541504 L13.02125358581543 12.282273292541504 C12.488391876220703 12.508061408996582 12.059442520141602 13.086255073547363 11.480727195739746 13.082945823669434 L11.480727195739746 13.082945823669434 C11.769454956054688 12.37228012084961 12.1150541305542 11.512093544006348 12.538581848144531 10.881736755371094 L12.538581848144531 10.881736755371094 C12.789544105529785 10.883302688598633 13.057840347290039 10.861448287963867 13.286999702453613 10.963773727416992 L13.286999702453613 10.963773727416992 C13.221435546875 11.122028350830078 13.155872344970703 11.280282020568848 13.09030818939209 11.438536643981934 L13.09030818939209 11.438536643981934 C13.097707748413086 11.44622802734375 13.105108261108398 11.45391845703125 13.112507820129395 11.461609840393066 L13.112507820129395 11.461609840393066 C13.43696117401123 11.249789237976074 13.768606185913086 11.04854679107666 14.106735229492188 10.859319686889648 L14.106735229492188 10.859319686889648"></path></svg>