<svg xmlns="http://www.w3.org/2000/svg" viewBox="0.0 0.0 24.0 24.0" height="200px" width="200px"><path fill="none" stroke="black" stroke-width=".3" stroke-opacity="1.0"  filling="0" d="M11.125282287597656 12.546163558959961 L11.125282287597656 12.546163558959961 C11.116854667663574 12.609563827514648 11.108428001403809 12.67296314239502 11.100000381469727 12.736363410949707 L11.100000381469727 12.736363410949707 C11.090909004211426 12.736363410949707 11.081818580627441 12.736363410949707 11.07272720336914 12.736363410949707 L11.07272720336914 12.736363410949707 C11.07050895690918 12.70029067993164 11.068290710449219 12.66421890258789 11.066072463989258 12.628146171569824 L11.066072463989258 12.628146171569824 C11.031927108764648 12.63090991973877 10.997781753540039 12.633672714233398 10.96363639831543 12.636436462402344 L10.96363639831543 12.636436462402344 C10.96363639831543 12.669745445251465 10.96363639831543 12.703054428100586 10.96363639831543 12.736363410949707 L10.96363639831543 12.736363410949707 C10.954545974731445 12.736363410949707 10.945454597473145 12.736363410949707 10.93636417388916 12.736363410949707 L10.93636417388916 12.736363410949707 C10.93636417388916 12.686599731445312 10.93636417388916 12.636836051940918 10.93636417388916 12.587072372436523 L10.93636417388916 12.587072372436523 C10.999337196350098 12.57343578338623 11.062309265136719 12.559800148010254 11.125282287597656 12.546163558959961 L11.125282287597656 12.546163558959961"></path></svg>