<svg xmlns="http://www.w3.org/2000/svg" viewBox="0.0 0.0 24.0 24.0" height="200px" width="200px"><path fill="none" stroke="black" stroke-width=".3" stroke-opacity="1.0"  filling="0" d="M18.946826934814453 10.918281555175781 L18.946826934814453 10.918281555175781 C19.159862518310547 10.95860481262207 19.364444732666016 10.969285011291504 19.581218719482422 10.953790664672852 L19.581218719482422 10.953790664672852 C19.876697540283203 11.240594863891602 18.84895896911621 11.351181983947754 18.550800323486328 11.635199546813965 L18.550800323486328 11.635199546813965 C18.766353607177734 11.65850830078125 18.981908798217773 11.681818008422852 19.19746208190918 11.705126762390137 L19.19746208190918 11.705126762390137 C19.009286880493164 12.299100875854492 18.84954833984375 12.241809844970703 18.282052993774414 12.305317878723145 L18.282052993774414 12.305317878723145 C18.262269973754883 12.359618186950684 18.242488861083984 12.413917541503906 18.222705841064453 12.468217849731445 L18.222705841064453 12.468217849731445 C18.487470626831055 12.478653907775879 18.752233505249023 12.489090919494629 19.016998291015625 12.499526977539062 L19.016998291015625 12.499526977539062 C19.017642974853516 12.693209648132324 18.93097496032715 12.885879516601562 18.82480812072754 13.047872543334961 L18.82480812072754 13.047872543334961 C18.306591033935547 13.075255393981934 17.775650024414062 13.05817985534668 17.26148223876953 13.118645668029785 L17.26148223876953 13.118645668029785 C17.31083869934082 11.974387168884277 17.93804168701172 11.070009231567383 18.946826934814453 10.918281555175781 L18.946826934814453 10.918281555175781"></path></svg>