<svg xmlns="http://www.w3.org/2000/svg" viewBox="0.0 0.0 24.0 24.0" height="200px" width="200px"><path fill="none" stroke="black" stroke-width=".3" stroke-opacity="1.0"  filling="0" d="M20.560800552368164 10.942909240722656 L20.560800552368164 10.942909240722656 C20.615528106689453 11.008127212524414 20.67025375366211 11.073346138000488 20.7249813079834 11.138564109802246 L20.7249813079834 11.138564109802246 C20.527772903442383 11.604656219482422 19.952146530151367 11.50222396850586 19.51789093017578 11.492753982543945 L19.51789093017578 11.492753982543945 C19.490673065185547 11.566136360168457 19.463455200195312 11.639517784118652 19.436237335205078 11.712900161743164 L19.436237335205078 11.712900161743164 C20.59195899963379 11.699421882629395 20.132593154907227 12.208381652832031 19.22858428955078 12.235471725463867 L19.22858428955078 12.235471725463867 C19.19243812561035 12.305253982543945 19.156291961669922 12.375035285949707 19.120145797729492 12.444817543029785 L19.120145797729492 12.444817543029785 C19.379867553710938 12.633137702941895 19.608234405517578 12.557199478149414 19.916318893432617 12.54828929901123 L19.916318893432617 12.54828929901123 C20.58118438720703 13.310295104980469 18.06963539123535 13.464027404785156 18.093656539916992 12.991253852844238 C18.180274963378906 11.286499977111816 19.329208374023438 11.160696983337402 20.560800552368164 10.942909240722656 L20.560800552368164 10.942909240722656"></path></svg>