<svg xmlns="http://www.w3.org/2000/svg" viewBox="0.0 0.0 24.0 24.0" height="200px" width="200px"><path fill="none" stroke="black" stroke-width=".3" stroke-opacity="1.0"  filling="0" d="M13.019318580627441 11.636944770812988 L13.019318580627441 11.636944770812988 C13.166363716125488 11.636944770812988 13.313408851623535 11.636944770812988 13.460453987121582 11.636944770812988 L13.460453987121582 11.636944770812988 C13.465580940246582 11.6840181350708 13.470708847045898 11.731090545654297 13.475835800170898 11.77816390991211 L13.475835800170898 11.77816390991211 C13.377326965332031 11.77816390991211 13.278817176818848 11.77816390991211 13.18030834197998 11.77816390991211 L13.18030834197998 11.77816390991211 C13.18030834197998 11.841700553894043 13.18030834197998 11.90523624420166 13.18030834197998 11.968772888183594 L13.18030834197998 11.968772888183594 C13.273990631103516 11.968772888183594 13.367671966552734 11.968772888183594 13.46135425567627 11.968772888183594 L13.46135425567627 11.968772888183594 C13.46135425567627 12.021172523498535 13.46135425567627 12.073573112487793 13.46135425567627 12.125972747802734 L13.46135425567627 12.125972747802734 C13.365981101989746 12.131799697875977 13.270608901977539 12.137627601623535 13.175235748291016 12.143454551696777 L13.175235748291016 12.143454551696777 C13.183499336242676 12.217745780944824 13.191762924194336 12.292036056518555 13.200026512145996 12.366327285766602 L13.200026512145996 12.366327285766602 C13.288790702819824 12.361727714538574 13.377553939819336 12.35712718963623 13.466318130493164 12.352527618408203 L13.466318130493164 12.352527618408203 C13.466318130493164 12.403617858886719 13.466318130493164 12.45470905303955 13.466318130493164 12.505799293518066 L13.466318130493164 12.505799293518066 C13.317317962646484 12.505799293518066 13.168318748474121 12.505799293518066 13.019318580627441 12.505799293518066 L13.019318580627441 12.505799293518066 C13.019318580627441 12.216180801391602 13.019318580627441 11.926563262939453 13.019318580627441 11.636944770812988 L13.019318580627441 11.636944770812988"></path></svg>