<svg xmlns="http://www.w3.org/2000/svg" viewBox="0.0 0.0 24.0 24.0" height="200px" width="200px"><path fill="none" stroke="black" stroke-width=".3" stroke-opacity="1.0"  filling="0" d="M14.56363582611084 11.918153762817383 L14.56363582611084 11.918153762817383 C14.56363582611084 11.963617324829102 14.563636779785156 12.009081840515137 14.563636779785156 12.054545402526855 L14.563636779785156 12.054545402526855 C14.475491523742676 12.094947814941406 14.455169677734375 12.227364540100098 14.454845428466797 12.32432746887207 L14.454845428466797 12.32432746887207 C14.419254302978516 12.332418441772461 14.383663177490234 12.340509414672852 14.348072052001953 12.348600387573242 L14.348072052001953 12.348600387573242 C14.348072052001953 12.243882179260254 14.348072052001953 12.139163970947266 14.348072052001953 12.034445762634277 L14.348072052001953 12.034445762634277 C14.26091194152832 12.10438060760498 14.20956802368164 12.227852821350098 14.209254264831543 12.339600563049316 L14.209254264831543 12.339600563049316 C14.175227165222168 12.333318710327148 14.141199111938477 12.327035903930664 14.107172012329102 12.320754051208496 L14.107172012329102 12.320754051208496 C14.107172012329102 12.187981605529785 14.107172012329102 12.055208206176758 14.107172012329102 11.922435760498047 L14.107172012329102 11.922435760498047 C14.214317321777344 11.930163383483887 14.321462631225586 11.93789005279541 14.428607940673828 11.94561767578125 L14.428607940673828 11.94561767578125 C14.427899360656738 11.952463150024414 14.427189826965332 11.959307670593262 14.426481246948242 11.966153144836426 L14.426481246948242 11.966153144836426 C14.472199440002441 11.950153350830078 14.51791763305664 11.93415355682373 14.56363582611084 11.918153762817383 L14.56363582611084 11.918153762817383"></path></svg>