<svg xmlns="http://www.w3.org/2000/svg" viewBox="0.0 0.0 24.0 24.0" height="200px" width="200px"><path fill="none" stroke="black" stroke-width=".3" stroke-opacity="1.0"  filling="0" d="M11.268190383911133 11.852153778076172 L11.268190383911133 11.852153778076172 C11.350099563598633 11.852153778076172 11.43200969696045 11.852153778076172 11.51391887664795 11.852153778076172 L11.51391887664795 11.852153778076172 C11.46660041809082 11.94401741027832 11.419281959533691 12.035881996154785 11.371963500976562 12.127745628356934 L11.371963500976562 12.127745628356934 C11.429999351501465 12.1336088180542 11.488036155700684 12.139472007751465 11.546072006225586 12.14533519744873 L11.546072006225586 12.14533519744873 C11.445162773132324 12.158472061157227 11.344254493713379 12.171608924865723 11.243345260620117 12.184745788574219 L11.243345260620117 12.184745788574219 C11.298336029052734 12.092127799987793 11.353326797485352 11.99950885772705 11.408317565917969 11.906890869140625 L11.408317565917969 11.906890869140625 C11.361309051513672 11.896844863891602 11.314299583435059 11.886799812316895 11.267291069030762 11.876753807067871 L11.267291069030762 11.876753807067871 C11.267590522766113 11.86855411529541 11.267890930175781 11.860353469848633 11.268190383911133 11.852153778076172 L11.268190383911133 11.852153778076172"></path></svg>