<svg xmlns="http://www.w3.org/2000/svg" viewBox="0.0 0.0 24.0 24.0" height="200px" width="200px"><path fill="none" stroke="black" stroke-width=".3" stroke-opacity="1.0"  filling="0" d="M11.917200088500977 11.897727966308594 L11.917200088500977 11.897727966308594 C11.968836784362793 11.897727966308594 12.020472526550293 11.897727966308594 12.07210922241211 11.897727966308594 L12.07210922241211 11.897727966308594 C12.036417961120605 11.934118270874023 12.000727653503418 11.97050952911377 11.965036392211914 12.0068998336792 L11.965036392211914 12.0068998336792 C12.008135795593262 12.028790473937988 12.051236152648926 12.050682067871094 12.094335556030273 12.072572708129883 L12.094335556030273 12.072572708129883 C12.094563484191895 12.079972267150879 12.0947904586792 12.087372779846191 12.09501838684082 12.094772338867188 L12.09501838684082 12.094772338867188 C12.055973052978516 12.098936080932617 12.016926765441895 12.103100776672363 11.97788143157959 12.107264518737793 L11.97788143157959 12.107264518737793 C11.975927352905273 12.131082534790039 11.97397232055664 12.154900550842285 11.972018241882324 12.178718566894531 L11.972018241882324 12.178718566894531 C12.017473220825195 12.186100959777832 12.06292724609375 12.193482398986816 12.108382225036621 12.200864791870117 L12.108382225036621 12.200864791870117 C12.044654846191406 12.22475528717041 11.980927467346191 12.248645782470703 11.917200088500977 12.272536277770996 L11.917200088500977 12.272536277770996 C11.917200088500977 12.147600173950195 11.917200088500977 12.022664070129395 11.917200088500977 11.897727966308594 L11.917200088500977 11.897727966308594"></path></svg>