<svg xmlns="http://www.w3.org/2000/svg" viewBox="0.0 0.0 24.0 24.0" height="200px" width="200px"><path fill="none" stroke="black" stroke-width=".3" stroke-opacity="1.0"  filling="0" d="M13.686273574829102 11.689009666442871 L13.686273574829102 11.689009666442871 C13.794764518737793 11.694537162780762 13.903254508972168 11.700063705444336 14.01174545288086 11.705591201782227 L14.01174545288086 11.705591201782227 C14.01174545288086 11.738037109375 14.01174545288086 11.770482063293457 14.01174545288086 11.80292797088623 L14.01174545288086 11.80292797088623 C13.947400093078613 11.799436569213867 13.883054733276367 11.79594612121582 13.818709373474121 11.792454719543457 L13.818709373474121 11.792454719543457 C13.812845230102539 11.839254379272461 13.806981086730957 11.886054992675781 13.801116943359375 11.932854652404785 L13.801116943359375 11.932854652404785 C13.862399101257324 11.939645767211914 13.923681259155273 11.946435928344727 13.984963417053223 11.953227043151855 L13.984963417053223 11.953227043151855 C13.92667293548584 11.980672836303711 13.86838150024414 12.008118629455566 13.810091018676758 12.035564422607422 L13.810091018676758 12.035564422607422 C13.815081596374512 12.092246055603027 13.820073127746582 12.148927688598633 13.825063705444336 12.205609321594238 L13.825063705444336 12.205609321594238 C13.890281677246094 12.241591453552246 13.955500602722168 12.277572631835938 14.020718574523926 12.313554763793945 L14.020718574523926 12.313554763793945 C13.92342758178711 12.327718734741211 13.82613754272461 12.341882705688477 13.728846549987793 12.356046676635742 L13.728846549987793 12.356046676635742 C13.714655876159668 12.13370132446289 13.700464248657227 11.911355018615723 13.686273574829102 11.689009666442871 L13.686273574829102 11.689009666442871"></path></svg>