<svg xmlns="http://www.w3.org/2000/svg" viewBox="0.0 0.0 24.0 24.0" height="200px" width="200px"><path fill="none" stroke="black" stroke-width=".3" stroke-opacity="1.0"  filling="0" d="M14.109764099121094 11.658844947814941 L14.109764099121094 11.658844947814941 C14.2590913772583 11.658844947814941 14.408418655395508 11.658844947814941 14.557745933532715 11.658844947814941 L14.557745933532715 11.658844947814941 C14.557745933532715 11.706735610961914 14.557745933532715 11.754627227783203 14.557745933532715 11.802517890930176 L14.557745933532715 11.802517890930176 C14.462627410888672 11.802517890930176 14.367508888244629 11.802517890930176 14.272390365600586 11.802517890930176 L14.272390365600586 11.802517890930176 C14.257499694824219 12.018118858337402 14.350030899047852 12.000190734863281 14.55013656616211 12.000082015991211 L14.55013656616211 12.000082015991211 C14.43537712097168 12.129535675048828 14.26369571685791 12.20126724243164 14.263607025146484 12.375953674316406 L14.263607025146484 12.375953674316406 C14.361807823181152 12.375953674316406 14.46000862121582 12.375954627990723 14.558209419250488 12.375954627990723 L14.558209419250488 12.375954627990723 C14.558209419250488 12.428000450134277 14.558209419250488 12.480045318603516 14.558209419250488 12.53209114074707 L14.558209419250488 12.53209114074707 C14.408727645874023 12.53209114074707 14.259245872497559 12.53209114074707 14.109764099121094 12.53209114074707 L14.109764099121094 12.53209114074707 C14.109764099121094 12.241008758544922 14.109764099121094 11.94992733001709 14.109764099121094 11.658844947814941 L14.109764099121094 11.658844947814941"></path></svg>