<svg xmlns="http://www.w3.org/2000/svg" viewBox="0.0 0.0 24.0 24.0" height="200px" width="200px"><path fill="none" stroke="black" stroke-width=".3" stroke-opacity="1.0"  filling="0" d="M12.635589599609375 11.652654647827148 L12.635589599609375 11.652654647827148 C12.68567180633545 11.652654647827148 12.735753059387207 11.652654647827148 12.785835266113281 11.652654647827148 L12.785835266113281 11.652654647827148 C12.893698692321777 11.8294095993042 13.00156307220459 12.006163597106934 13.109426498413086 12.182918548583984 L13.109426498413086 12.182918548583984 C13.228217124938965 11.984180450439453 13.37820053100586 11.769186019897461 13.593982696533203 11.685245513916016 L13.593982696533203 11.685245513916016 C13.593982696533203 11.963654518127441 13.593982696533203 12.242064476013184 13.593982696533203 12.52047348022461 L13.593982696533203 12.52047348022461 C13.455703735351562 12.432709693908691 13.418246269226074 12.225442886352539 13.418182373046875 12.061664581298828 L13.418182373046875 12.061664581298828 C13.40743637084961 12.058564186096191 13.39669132232666 12.055463790893555 13.385945320129395 12.052363395690918 L13.385945320129395 12.052363395690918 C13.295026779174805 12.211518287658691 13.204109191894531 12.370673179626465 13.113190650939941 12.529828071594238 L13.113190650939941 12.529828071594238 C13.006672859191895 12.373527526855469 12.900154113769531 12.217227935791016 12.793636322021484 12.060927391052246 L12.793636322021484 12.060927391052246 C12.793636322021484 12.072738647460938 12.793636322021484 12.515238761901855 12.793636322021484 12.540763854980469 L12.793636322021484 12.540763854980469 C12.740954399108887 12.540763854980469 12.688271522521973 12.540763854980469 12.635589599609375 12.540763854980469 L12.635589599609375 12.540763854980469 C12.635589599609375 12.24472713470459 12.635589599609375 11.948691368103027 12.635589599609375 11.652654647827148 L12.635589599609375 11.652654647827148"></path></svg>