<svg xmlns="http://www.w3.org/2000/svg" viewBox="0.0 0.0 24.0 24.0" height="200px" width="200px"><path fill="none" stroke="black" stroke-width=".3" stroke-opacity="1.0"  filling="0" d="M11.943926811218262 12.040144920349121 L11.943926811218262 12.040144920349121 C12.014817237854004 12.067554473876953 12.085708618164062 12.094964027404785 12.156599044799805 12.122373580932617 L12.156599044799805 12.122373580932617 C12.156599044799805 12.154291152954102 12.156599044799805 12.186208724975586 12.156599044799805 12.21812629699707 L12.156599044799805 12.21812629699707 C12.033632278442383 12.19776725769043 11.966156005859375 12.112364768981934 11.841108322143555 12.154281616210938 L11.841108322143555 12.154281616210938 C11.87700080871582 12.244186401367188 11.99120044708252 12.281673431396484 12.080863952636719 12.31816291809082 L12.080863952636719 12.31816291809082 C12.079472541809082 12.34615421295166 12.078082084655762 12.3741455078125 12.076690673828125 12.40213680267334 L12.076690673828125 12.40213680267334 C11.96841812133789 12.39045524597168 11.86014461517334 12.378772735595703 11.751872062683105 12.367091178894043 L11.751872062683105 12.367091178894043 C11.838980674743652 12.441927909851074 11.926090240478516 12.516763687133789 12.013198852539062 12.59160041809082 L12.013198852539062 12.59160041809082 C11.876744270324707 12.546727180480957 11.740290641784668 12.50185489654541 11.603836059570312 12.456981658935547 L11.603836059570312 12.456981658935547 C11.689963340759277 12.299695014953613 11.79012393951416 12.13235092163086 11.943926811218262 12.040144920349121 L11.943926811218262 12.040144920349121"></path></svg>