<svg xmlns="http://www.w3.org/2000/svg" viewBox="0.0 0.0 24.0 24.0" height="200px" width="200px"><path fill="none" stroke="black" stroke-width=".3" stroke-opacity="1.0"  filling="0" d="M11.632636070251465 11.931517601013184 L11.632636070251465 11.931517601013184 C11.582845687866211 11.93795394897461 11.53305435180664 11.944390296936035 11.483263969421387 11.950826644897461 L11.483263969421387 11.950826644897461 C11.482355117797852 11.960999488830566 11.4814453125 11.971171379089355 11.480536460876465 11.981344223022461 L11.480536460876465 11.981344223022461 C11.569413185119629 12.025567054748535 11.596928596496582 12.148478507995605 11.618154525756836 12.245453834533691 L11.618154525756836 12.245453834533691 C11.563617706298828 12.245453834533691 11.509081840515137 12.245454788208008 11.454545021057129 12.245454788208008 L11.454545021057129 12.245454788208008 C11.434199333190918 12.209400177001953 11.413854598999023 12.173345565795898 11.393508911132812 12.137290954589844 L11.393508911132812 12.137290954589844 C11.480854034423828 12.135199546813965 11.56820011138916 12.133109092712402 11.655545234680176 12.131017684936523 L11.655545234680176 12.131017684936523 C11.579599380493164 12.085481643676758 11.503654479980469 12.039944648742676 11.427708625793457 11.99440860748291 L11.427708625793457 11.99440860748291 C11.496017456054688 11.973444938659668 11.564327239990234 11.952481269836426 11.632636070251465 11.931517601013184 L11.632636070251465 11.931517601013184"></path></svg>