<svg xmlns="http://www.w3.org/2000/svg" viewBox="0.0 0.0 24.0 24.0" height="200px" width="200px"><path fill="none" stroke="black" stroke-width=".3" stroke-opacity="1.0"  filling="0" d="M12.176262855529785 10.971955299377441 L12.176262855529785 10.971955299377441 C12.25323486328125 11.008856773376465 12.313363075256348 11.092194557189941 12.331525802612305 11.175600051879883 L12.331525802612305 11.175600051879883 C12.259244918823242 11.17966365814209 12.186963081359863 11.183728218078613 12.1146821975708 11.18779182434082 L12.1146821975708 11.18779182434082 C12.73564624786377 11.615854263305664 11.941203117370605 12.264671325683594 11.60964584350586 11.887227058410645 C11.4243803024292 11.676321029663086 12.175070762634277 11.696337699890137 12.274664878845215 11.657782554626465 L12.274664878845215 11.657782554626465 C12.271428108215332 11.647500991821289 12.26819133758545 11.637218475341797 12.264954566955566 11.626936912536621 L12.264954566955566 11.626936912536621 C12.035926818847656 11.641582489013672 11.806900024414062 11.656227111816406 11.577872276306152 11.670872688293457 L11.577872276306152 11.670872688293457 C11.56218147277832 11.625027656555176 11.546490669250488 11.579181671142578 11.530799865722656 11.533336639404297 L11.530799865722656 11.533336639404297 C11.783052444458008 11.467657089233398 12.045873641967773 11.476839065551758 12.304527282714844 11.434718132019043 L12.304527282714844 11.434718132019043 C11.886055946350098 11.318554878234863 11.521453857421875 11.526284217834473 11.413662910461426 11.045101165771484 L11.413662910461426 11.045101165771484 C11.72768783569336 11.034554481506348 11.849565505981445 11.120067596435547 12.176262855529785 10.971955299377441 L12.176262855529785 10.971955299377441"></path></svg>