<svg xmlns="http://www.w3.org/2000/svg" viewBox="0.0 0.0 24.0 24.0" height="200px" width="200px"><path fill="none" stroke="black" stroke-width=".3" stroke-opacity="1.0"  filling="0" d="M12.872727394104004 11.899718284606934 L12.872727394104004 11.899718284606934 C12.948418617248535 11.899718284606934 13.02410888671875 11.899718284606934 13.099800109863281 11.899718284606934 L13.099800109863281 11.899718284606934 C13.101290702819824 11.905218124389648 13.102782249450684 11.910717964172363 13.104272842407227 11.916217803955078 L13.104272842407227 11.916217803955078 C13.037518501281738 11.928899765014648 12.970763206481934 11.941581726074219 12.904008865356445 11.954263687133789 L12.904008865356445 11.954263687133789 C12.95488166809082 11.974709510803223 13.005754470825195 11.99515438079834 13.05662727355957 12.015600204467773 L13.05662727355957 12.015600204467773 C13.00740909576416 12.029682159423828 12.95819091796875 12.043764114379883 12.90897274017334 12.057846069335938 L12.90897274017334 12.057846069335938 C12.905091285705566 12.102417945861816 12.901208877563477 12.146990776062012 12.897327423095703 12.19156265258789 L12.897327423095703 12.19156265258789 C12.973114967346191 12.192689895629883 13.062468528747559 12.194122314453125 13.118236541748047 12.245453834533691 L13.118236541748047 12.245453834533691 C13.036399841308594 12.245453834533691 12.954564094543457 12.245454788208008 12.872727394104004 12.245454788208008 L12.872727394104004 12.245454788208008 C12.872727394104004 12.130208969116211 12.872727394104004 12.01496410369873 12.872727394104004 11.899718284606934 L12.872727394104004 11.899718284606934"></path></svg>