<svg xmlns="http://www.w3.org/2000/svg" viewBox="0.0 0.0 24.0 24.0" height="200px" width="200px"><path fill="none" stroke="black" stroke-width=".3" stroke-opacity="1.0"  filling="0" d="M12.20661735534668 11.843862533569336 L12.20661735534668 11.843862533569336 C12.218217849731445 11.848735809326172 12.229817390441895 11.853609085083008 12.24141788482666 11.858482360839844 L12.24141788482666 11.858482360839844 C12.23112678527832 11.903773307800293 12.220836639404297 11.949064254760742 12.210545539855957 11.994355201721191 L12.210545539855957 11.994355201721191 C12.203845024108887 11.993681907653809 12.197145462036133 11.993009567260742 12.190444946289062 11.99233627319336 L12.190444946289062 11.99233627319336 C12.204745292663574 12.025145530700684 12.21904468536377 12.057953834533691 12.233345031738281 12.090763092041016 L12.233345031738281 12.090763092041016 C11.97530460357666 12.239873886108398 11.953238487243652 12.257037162780762 11.660426139831543 12.240599632263184 L11.660426139831543 12.240599632263184 C11.760499000549316 12.13138198852539 11.946370124816895 12.130635261535645 12.09398078918457 12.143044471740723 L12.09398078918457 12.143044471740723 C11.965253829956055 12.09679889678955 11.836526870727539 12.050553321838379 11.707799911499023 12.004307746887207 L11.707799911499023 12.004307746887207 C11.637565612792969 11.781262397766113 12.066279411315918 11.859004020690918 12.20661735534668 11.843862533569336 L12.20661735534668 11.843862533569336"></path></svg>