<svg xmlns="http://www.w3.org/2000/svg" viewBox="0.0 0.0 24.0 24.0" height="200px" width="200px"><path fill="none" stroke="black" stroke-width=".3" stroke-opacity="1.0"  filling="0" d="M12.329427719116211 11.517627716064453 L12.329427719116211 11.517627716064453 C12.32011890411377 11.571718215942383 12.310810089111328 11.625808715820312 12.301501274108887 11.679899215698242 L12.301501274108887 11.679899215698242 C12.328582763671875 11.712154388427734 12.35566520690918 11.74440860748291 12.382746696472168 11.776663780212402 L12.382746696472168 11.776663780212402 C12.221625328063965 11.885563850402832 11.714799880981445 12.090789794921875 11.638691902160645 11.850325584411621 L11.638691902160645 11.850325584411621 C11.833073616027832 11.831398963928223 12.02745532989502 11.812471389770508 12.221837043762207 11.79354476928711 L12.221837043762207 11.79354476928711 C11.985553741455078 11.61916446685791 11.822360038757324 11.787564277648926 11.586763381958008 11.649845123291016 L11.586763381958008 11.649845123291016 C11.592545509338379 11.637327194213867 11.59832763671875 11.624808311462402 11.604109764099121 11.612290382385254 L11.604109764099121 11.612290382385254 C11.845882415771484 11.58073616027832 12.087655067443848 11.549181938171387 12.329427719116211 11.517627716064453 L12.329427719116211 11.517627716064453"></path></svg>