<svg xmlns="http://www.w3.org/2000/svg" viewBox="0.0 0.0 24.0 24.0" height="200px" width="200px"><path fill="none" stroke="black" stroke-width=".3" stroke-opacity="1.0"  filling="0" d="M11.86737060546875 12.270817756652832 L11.86737060546875 12.270817756652832 C12.027203559875488 12.271332740783691 12.197901725769043 12.281082153320312 12.339325904846191 12.355554580688477 L12.339325904846191 12.355554580688477 C12.148260116577148 12.390925407409668 11.96419906616211 12.370369911193848 11.776524543762207 12.424881935119629 L11.776524543762207 12.424881935119629 C11.778325080871582 12.44131851196289 11.780126571655273 12.457754135131836 11.781927108764648 12.474190711975098 L11.781927108764648 12.474190711975098 C11.977136611938477 12.50036334991455 12.172345161437988 12.526535987854004 12.367554664611816 12.552708625793457 L12.367554664611816 12.552708625793457 C12.176263809204102 12.583327293395996 11.984972953796387 12.613945007324219 11.793682098388672 12.644563674926758 L11.793682098388672 12.644563674926758 C11.94077205657959 12.806008338928223 12.149106979370117 12.733402252197266 12.352090835571289 12.781909942626953 L12.352090835571289 12.781909942626953 C12.1234712600708 12.92446231842041 11.893261909484863 12.889389991760254 11.63399887084961 12.848345756530762 L11.63399887084961 12.848345756530762 C11.625520706176758 12.695366859436035 11.646928787231445 12.521591186523438 11.61640739440918 12.373799324035645 L11.61640739440918 12.373799324035645 C11.700061798095703 12.339471817016602 11.783716201782227 12.305145263671875 11.86737060546875 12.270817756652832 L11.86737060546875 12.270817756652832"></path></svg>