<svg xmlns="http://www.w3.org/2000/svg" viewBox="0.0 0.0 24.0 24.0" height="200px" width="200px"><path fill="none" stroke="black" stroke-width=".3" stroke-opacity="1.0"  filling="0" d="M12.592718124389648 13.24390983581543 L12.592718124389648 13.24390983581543 C12.595118522644043 13.25761890411377 12.597517967224121 13.271327018737793 12.599918365478516 13.285036087036133 L12.599918365478516 13.285036087036133 C12.58037281036377 13.311481475830078 12.56082820892334 13.33792781829834 12.541282653808594 13.364373207092285 L12.541282653808594 13.364373207092285 C12.566346168518066 13.394463539123535 12.591409683227539 13.424554824829102 12.616473197937012 13.454645156860352 L12.616473197937012 13.454645156860352 C12.444581031799316 13.515568733215332 12.203239440917969 13.507131576538086 12.074809074401855 13.377655029296875 L12.074809074401855 13.377655029296875 C11.98458194732666 13.403191566467285 11.894354820251465 13.428727149963379 11.80412769317627 13.454263687133789 L11.80412769317627 13.454263687133789 C11.876381874084473 13.472182273864746 11.948637008666992 13.490099906921387 12.020891189575195 13.508018493652344 L12.020891189575195 13.508018493652344 C11.139657020568848 13.489391326904297 12.325982093811035 13.260554313659668 12.592718124389648 13.24390983581543 L12.592718124389648 13.24390983581543"></path>
<path fill="none" stroke="black" stroke-width=".3" stroke-opacity="1.0"  filling="0" d="M12.204191207885742 13.378608703613281 L12.204191207885742 13.378608703613281 C12.28130054473877 13.396308898925781 12.35840892791748 13.414009094238281 12.435518264770508 13.431709289550781 L12.435518264770508 13.431709289550781 C12.36619758605957 13.469837188720703 12.260205268859863 13.434478759765625 12.204191207885742 13.378608703613281 L12.204191207885742 13.378608703613281"></path></svg>