<svg xmlns="http://www.w3.org/2000/svg" viewBox="0.0 0.0 24.0 24.0" height="200px" width="200px"><path fill="none" stroke="black" stroke-width=".3" stroke-opacity="1.0"  filling="0" d="M12.3108549118042 11.721108436584473 L12.3108549118042 11.721108436584473 C12.279154777526855 11.790726661682129 12.247455596923828 11.860344886779785 12.215755462646484 11.929963111877441 L12.215755462646484 11.929963111877441 C12.298648834228516 11.90824031829834 12.367593765258789 11.820512771606445 12.38522720336914 11.736654281616211 L12.38522720336914 11.736654281616211 C12.387276649475098 12.275506973266602 11.781929016113281 11.814043045043945 12.3108549118042 11.721108436584473 L12.3108549118042 11.721108436584473"></path>
<path fill="none" stroke="black" stroke-width=".3" stroke-opacity="1.0"  filling="0" d="M12.175036430358887 11.75776481628418 L12.175036430358887 11.75776481628418 C12.187063217163086 11.763192176818848 12.199090957641602 11.7686185836792 12.2111177444458 11.774045944213867 L12.2111177444458 11.774045944213867 C12.199462890625 11.830591201782227 12.187808990478516 11.887136459350586 12.176154136657715 11.943681716918945 L12.176154136657715 11.943681716918945 C12.152263641357422 11.90758228302002 12.128372192382812 11.871481895446777 12.10448169708252 11.835382461547852 L12.10448169708252 11.835382461547852 C12.128000259399414 11.809510231018066 12.151517868041992 11.783637046813965 12.175036430358887 11.75776481628418 L12.175036430358887 11.75776481628418"></path></svg>