<svg xmlns="http://www.w3.org/2000/svg" viewBox="0.0 0.0 24.0 24.0" height="200px" width="200px"><path fill="none" stroke="black" stroke-width=".3" stroke-opacity="1.0"  filling="0" d="M11.913463592529297 10.418100357055664 L11.913463592529297 10.418100357055664 C11.913736343383789 10.428991317749023 11.914009094238281 10.439882278442383 11.914281845092773 10.450773239135742 L11.914281845092773 10.450773239135742 C11.859772682189941 10.478590965270996 11.80526351928711 10.506409645080566 11.750754356384277 10.53422737121582 L11.750754356384277 10.53422737121582 C12.024022102355957 10.539113998413086 12.297101974487305 10.513187408447266 12.569618225097656 10.492363929748535 L12.569618225097656 10.492363929748535 C12.561226844787598 10.547727584838867 12.552836418151855 10.6030912399292 12.544445037841797 10.658454895019531 L12.544445037841797 10.658454895019531 C12.431772232055664 10.658454895019531 12.319099426269531 10.658454895019531 12.206426620483398 10.658454895019531 L12.206426620483398 10.658454895019531 C12.265881538391113 10.618473052978516 12.325335502624512 10.5784912109375 12.384790420532227 10.538509368896484 L12.384790420532227 10.538509368896484 C12.159131050109863 10.503259658813477 11.13538646697998 10.422171592712402 11.913463592529297 10.418100357055664 L11.913463592529297 10.418100357055664"></path></svg>