<svg xmlns="http://www.w3.org/2000/svg" viewBox="0.0 0.0 24.0 24.0" height="200px" width="200px"><path fill="none" stroke="black" stroke-width=".3" stroke-opacity="1.0"  filling="0" d="M11.745271682739258 11.884337425231934 L11.745271682739258 11.884337425231934 C11.80198860168457 12.08605670928955 11.501803398132324 12.035289764404297 11.357209205627441 12.084927558898926 L11.357209205627441 12.084927558898926 C11.384572982788086 12.126263618469238 11.411935806274414 12.167600631713867 11.439299583435059 12.20893669128418 L11.439299583435059 12.20893669128418 C11.56278133392334 12.234609603881836 11.686264038085938 12.260282516479492 11.809745788574219 12.285955429077148 L11.809745788574219 12.285955429077148 C11.635343551635742 12.312082290649414 11.458636283874512 12.326048851013184 11.2822904586792 12.326945304870605 L11.2822904586792 12.326945304870605 C11.2822904586792 12.246790885925293 11.2822904586792 12.16663646697998 11.2822904586792 12.086482048034668 L11.2822904586792 12.086482048034668 C11.227380752563477 12.05199146270752 11.17247200012207 12.017499923706055 11.117562294006348 11.983009338378906 L11.117562294006348 11.983009338378906 C11.1903715133667 11.954999923706055 11.263181686401367 11.92699146270752 11.335990905761719 11.898982048034668 L11.335990905761719 11.898982048034668 C11.472417831420898 11.894100189208984 11.608844757080078 11.889219284057617 11.745271682739258 11.884337425231934 L11.745271682739258 11.884337425231934"></path></svg>