<svg xmlns="http://www.w3.org/2000/svg" viewBox="0.0 0.0 24.0 24.0" height="200px" width="200px"><path fill="none" stroke="black" stroke-width=".3" stroke-opacity="1.0"  filling="0" d="M11.318181991577148 11.727272987365723 L11.318181991577148 11.727272987365723 C11.386390686035156 11.74028205871582 11.45460033416748 11.753291130065918 11.522809028625488 11.766300201416016 L11.522809028625488 11.766300201416016 C11.492901802062988 11.872727394104004 11.409395217895508 11.964853286743164 11.318154335021973 12.027273178100586 L11.318154335021973 12.027273178100586 C11.318154335021973 12.0 11.318154335021973 11.97272777557373 11.318154335021973 11.945454597473145 L11.318154335021973 11.945454597473145 C11.352481842041016 11.921772956848145 11.386809349060059 11.898090362548828 11.421136856079102 11.874408721923828 L11.421136856079102 11.874408721923828 C11.4189453125 11.864799499511719 11.416754722595215 11.85519027709961 11.414563179016113 11.8455810546875 L11.414563179016113 11.8455810546875 C11.382427215576172 11.842508316040039 11.350290298461914 11.839435577392578 11.318154335021973 11.836362838745117 L11.318154335021973 11.836362838745117 C11.318163871765137 11.799999237060547 11.318172454833984 11.763636589050293 11.318181991577148 11.727272987365723 L11.318181991577148 11.727272987365723"></path></svg>