<svg xmlns="http://www.w3.org/2000/svg" viewBox="0.0 0.0 24.0 24.0" height="200px" width="200px"><path fill="none" stroke="black" stroke-width=".3" stroke-opacity="1.0"  filling="0" d="M11.657127380371094 12.77400016784668 L11.657127380371094 12.77400016784668 C11.700418472290039 12.83658218383789 11.743708610534668 12.899164199829102 11.786999702453613 12.961746215820312 L11.786999702453613 12.961746215820312 C11.83144474029541 12.98080062866211 11.875890731811523 12.999855041503906 11.92033576965332 13.018909454345703 L11.92033576965332 13.018909454345703 C11.918536186218262 13.030245780944824 11.916736602783203 13.041582107543945 11.914937019348145 13.052918434143066 L11.914937019348145 13.052918434143066 C11.72001838684082 13.067609786987305 11.525099754333496 13.082300186157227 11.330181121826172 13.096991539001465 L11.330181121826172 13.096991539001465 C11.232749938964844 12.76858901977539 11.322064399719238 12.798521995544434 11.657127380371094 12.77400016784668 L11.657127380371094 12.77400016784668"></path>
<path fill="none" stroke="black" stroke-width=".3" stroke-opacity="1.0"  filling="0" d="M11.438236236572266 12.831927299499512 L11.438236236572266 12.831927299499512 C11.51492691040039 12.862563133239746 11.591618537902832 12.893199920654297 11.668309211730957 12.923835754394531 L11.668309211730957 12.923835754394531 C11.579545974731445 12.927371978759766 11.490781784057617 12.930909156799316 11.402018547058105 12.93444538116455 L11.402018547058105 12.93444538116455 C11.414091110229492 12.900272369384766 11.426163673400879 12.866100311279297 11.438236236572266 12.831927299499512 L11.438236236572266 12.831927299499512"></path></svg>