<svg xmlns="http://www.w3.org/2000/svg" viewBox="0.0 0.0 24.0 24.0" height="200px" width="200px"><path fill="none" stroke="black" stroke-width=".3" stroke-opacity="1.0"  filling="0" d="M11.6737642288208 11.964301109313965 L11.6737642288208 11.964301109313965 C11.832741737365723 11.983626365661621 12.045289993286133 11.976007461547852 12.157309532165527 12.093709945678711 L12.157309532165527 12.093709945678711 C12.047414779663086 12.40988826751709 11.658793449401855 12.47810173034668 11.803117752075195 12.074128150939941 L11.803117752075195 12.074128150939941 C11.798500061035156 12.064364433288574 11.793882369995117 12.054600715637207 11.789264678955078 12.04483699798584 L11.789264678955078 12.04483699798584 C11.74177360534668 12.055355072021484 11.694282531738281 12.065874099731445 11.646791458129883 12.07639217376709 L11.646791458129883 12.07639217376709 C11.655782699584961 12.03902816772461 11.664772987365723 12.001665115356445 11.6737642288208 11.964301109313965 L11.6737642288208 11.964301109313965"></path>
<path fill="none" stroke="black" stroke-width=".3" stroke-opacity="1.0"  filling="0" d="M11.937437057495117 12.119481086730957 L11.937437057495117 12.119481086730957 C11.978837013244629 12.147272109985352 12.02023696899414 12.175063133239746 12.061636924743652 12.20285415649414 L12.061636924743652 12.20285415649414 C11.86433219909668 12.27061939239502 11.705086708068848 12.229897499084473 11.937437057495117 12.119481086730957 L11.937437057495117 12.119481086730957"></path></svg>