<svg xmlns="http://www.w3.org/2000/svg" viewBox="0.0 0.0 24.0 24.0" height="200px" width="200px"><path fill="none" stroke="black" stroke-width=".3" stroke-opacity="1.0"  filling="0" d="M12.40854549407959 10.848462104797363 L12.40854549407959 10.848462104797363 C12.407390594482422 10.903697967529297 12.40623664855957 10.958934783935547 12.405081748962402 11.01417064666748 L12.405081748962402 11.01417064666748 C12.200699806213379 11.01662540435791 11.996317863464355 11.019081115722656 11.791935920715332 11.021535873413086 L11.791935920715332 11.021535873413086 C12.004499435424805 11.036526679992676 12.217063903808594 11.051517486572266 12.429627418518066 11.066508293151855 L12.429627418518066 11.066508293151855 C12.4323091506958 11.121426582336426 12.434990882873535 11.17634391784668 12.43767261505127 11.23126220703125 L12.43767261505127 11.23126220703125 C12.200884819030762 11.264144897460938 11.69339370727539 11.407678604125977 11.695036888122559 11.120426177978516 L11.695036888122559 11.120426177978516 C11.703864097595215 11.119271278381348 11.712691307067871 11.11811637878418 11.721518516540527 11.116961479187012 L11.721518516540527 11.116961479187012 C11.697182655334473 11.08724308013916 11.672845840454102 11.057525634765625 11.648509979248047 11.027807235717773 L11.648509979248047 11.027807235717773 C11.891853332519531 10.858996391296387 12.118956565856934 10.86184310913086 12.40854549407959 10.848462104797363 L12.40854549407959 10.848462104797363"></path></svg>