<svg xmlns="http://www.w3.org/2000/svg" viewBox="0.0 0.0 24.0 24.0" height="200px" width="200px"><path fill="none" stroke="black" stroke-width=".3" stroke-opacity="1.0"  filling="0" d="M12.333736419677734 10.893110275268555 L12.333736419677734 10.893110275268555 C12.408300399780273 10.89498233795166 12.482863426208496 10.896855354309082 12.557427406311035 10.898727416992188 L12.557427406311035 10.898727416992188 C12.529772758483887 10.932381629943848 12.502118110656738 10.966036796569824 12.47446346282959 10.999691009521484 L12.47446346282959 10.999691009521484 C12.510008811950684 11.043309211730957 12.545555114746094 11.086928367614746 12.581100463867188 11.130546569824219 L12.581100463867188 11.130546569824219 C12.366387367248535 11.131607055664062 11.833486557006836 11.013824462890625 11.620336532592773 11.082927703857422 L11.620336532592773 11.082927703857422 C11.704472541809082 11.108454704284668 11.788609504699707 11.133981704711914 11.872745513916016 11.15950870513916 L11.872745513916016 11.15950870513916 C10.856868743896484 11.022307395935059 12.083914756774902 10.92458438873291 12.333736419677734 10.893110275268555 L12.333736419677734 10.893110275268555"></path>
<path fill="none" stroke="black" stroke-width=".3" stroke-opacity="1.0"  filling="0" d="M12.06580924987793 11.0322265625 L12.06580924987793 11.0322265625 C12.160009384155273 11.067808151245117 12.2542085647583 11.10339069366455 12.348408699035645 11.138972282409668 L12.348408699035645 11.138972282409668 C12.2542085647583 11.10339069366455 12.160009384155273 11.067808151245117 12.06580924987793 11.0322265625 L12.06580924987793 11.0322265625"></path></svg>