<svg xmlns="http://www.w3.org/2000/svg" viewBox="0.0 0.0 24.0 24.0" height="200px" width="200px"><path fill="none" stroke="black" stroke-width=".3" stroke-opacity="1.0"  filling="0" d="M12.503427505493164 11.964109420776367 L12.503427505493164 11.964109420776367 C12.581064224243164 11.994255065917969 12.658699989318848 12.024399757385254 12.736336708068848 12.054545402526855 L12.736336708068848 12.054545402526855 C12.736336708068848 12.090909004211426 12.736336708068848 12.127272605895996 12.736336708068848 12.163636207580566 L12.736336708068848 12.163636207580566 C12.687910079956055 12.188736915588379 12.698555946350098 12.287930488586426 12.736336708068848 12.327272415161133 L12.736336708068848 12.327272415161133 C12.736345291137695 12.363636016845703 12.73635482788086 12.399999618530273 12.736363410949707 12.436363220214844 L12.736363410949707 12.436363220214844 C12.636018753051758 12.367523193359375 12.629525184631348 12.204323768615723 12.643145561218262 12.083399772644043 L12.643145561218262 12.083399772644043 C12.58173656463623 12.089717864990234 12.520326614379883 12.096035957336426 12.458917617797852 12.102354049682617 L12.458917617797852 12.102354049682617 C12.473753929138184 12.056272506713867 12.488591194152832 12.010190963745117 12.503427505493164 11.964109420776367 L12.503427505493164 11.964109420776367"></path></svg>