<svg xmlns="http://www.w3.org/2000/svg" viewBox="0.0 0.0 24.0 24.0" height="200px" width="200px"><path fill="none" stroke="black" stroke-width=".3" stroke-opacity="1.0"  filling="0" d="M12.063817977905273 11.978617668151855 L12.063817977905273 11.978617668151855 C12.059118270874023 12.0692720413208 12.054417610168457 12.159927368164062 12.049717903137207 12.250581741333008 L12.049717903137207 12.250581741333008 C12.084663391113281 12.185708999633789 12.119608879089355 12.12083625793457 12.15455436706543 12.055963516235352 L12.15455436706543 12.055963516235352 C12.346135139465332 12.42791748046875 11.487464904785156 12.28724193572998 12.063817977905273 11.978617668151855 L12.063817977905273 11.978617668151855"></path>
<path fill="none" stroke="black" stroke-width=".3" stroke-opacity="1.0"  filling="0" d="M11.98671817779541 12.051899909973145 L11.98671817779541 12.051899909973145 C11.992881774902344 12.064545631408691 11.999045372009277 12.077190399169922 12.005208969116211 12.089836120605469 L12.005208969116211 12.089836120605469 C11.98845386505127 12.123600006103516 11.971699714660645 12.157363891601562 11.954944610595703 12.19112777709961 L11.954944610595703 12.19112777709961 C11.945590019226074 12.19191837310791 11.936236381530762 12.192709922790527 11.926881790161133 12.193500518798828 L11.926881790161133 12.193500518798828 C11.91358470916748 12.144014358520508 11.941408157348633 12.075831413269043 11.98671817779541 12.051899909973145 L11.98671817779541 12.051899909973145"></path></svg>