<svg xmlns="http://www.w3.org/2000/svg" viewBox="0.0 0.0 24.0 24.0" height="200px" width="200px"><path fill="none" stroke="black" stroke-width=".3" stroke-opacity="1.0"  filling="0" d="M13.281817436218262 12.354544639587402 L13.281817436218262 12.354544639587402 C13.281817436218262 12.409090042114258 13.281817436218262 12.46363639831543 13.281817436218262 12.518181800842285 L13.281817436218262 12.518181800842285 C13.26313591003418 12.538018226623535 13.244454383850098 12.557854652404785 13.225772857666016 12.577691078186035 L13.225772857666016 12.577691078186035 C13.19091796875 12.543972969055176 13.1560640335083 12.51025390625 13.121209144592285 12.47653579711914 L13.121209144592285 12.47653579711914 C13.083416938781738 12.537254333496094 13.0623197555542 12.608243942260742 13.04860782623291 12.678436279296875 L13.04860782623291 12.678436279296875 C13.092107772827148 12.685981750488281 13.135608673095703 12.693526268005371 13.179108619689941 12.701071739196777 L13.179108619689941 12.701071739196777 C13.15530014038086 12.76369857788086 13.131490707397461 12.826326370239258 13.107682228088379 12.88895320892334 L13.107682228088379 12.88895320892334 C12.984373092651367 12.728999137878418 12.861063003540039 12.56904411315918 12.737753868103027 12.409090042114258 L12.737753868103027 12.409090042114258 C12.920016288757324 12.409825325012207 13.108484268188477 12.410896301269531 13.281817436218262 12.354544639587402 L13.281817436218262 12.354544639587402"></path></svg>