<svg xmlns="http://www.w3.org/2000/svg" viewBox="0.0 0.0 24.0 24.0" height="200px" width="200px"><path fill="none" stroke="black" stroke-width=".3" stroke-opacity="1.0"  filling="0" d="M11.399999618530273 11.926336288452148 L11.399999618530273 11.926336288452148 C11.464463233947754 11.926336288452148 11.528926849365234 11.926336288452148 11.593390464782715 11.926336288452148 L11.593390464782715 11.926336288452148 C11.548835754394531 11.956672668457031 11.504281997680664 11.987009048461914 11.45972728729248 12.017345428466797 L11.45972728729248 12.017345428466797 C11.511063575744629 12.024518013000488 11.562399864196777 12.031691551208496 11.613736152648926 12.038864135742188 L11.613736152648926 12.038864135742188 C11.614836692810059 12.04942798614502 11.615936279296875 12.059990882873535 11.617036819458008 12.070554733276367 L11.617036819458008 12.070554733276367 C11.562872886657715 12.077227592468262 11.508708953857422 12.08389949798584 11.454545021057129 12.090572357177734 L11.454545021057129 12.090572357177734 C11.454545021057129 12.14220905303955 11.454545021057129 12.19384479522705 11.454545021057129 12.245481491088867 L11.454545021057129 12.245481491088867 C11.436363220214844 12.24547290802002 11.418181419372559 12.245463371276855 11.399999618530273 12.245454788208008 L11.399999618530273 12.245454788208008 C11.399999618530273 12.139081954956055 11.399999618530273 12.032709121704102 11.399999618530273 11.926336288452148 L11.399999618530273 11.926336288452148"></path></svg>