<svg xmlns="http://www.w3.org/2000/svg" viewBox="0.0 0.0 24.0 24.0" height="200px" width="200px"><path fill="none" stroke="black" stroke-width=".3" stroke-opacity="1.0"  filling="0" d="M12.1241455078125 11.529873847961426 L12.1241455078125 11.529873847961426 C12.15957260131836 11.585582733154297 12.194999694824219 11.641291618347168 12.230426788330078 11.697000503540039 L12.230426788330078 11.697000503540039 C12.292527198791504 11.679037094116211 12.354626655578613 11.661072731018066 12.416727066040039 11.643109321594238 L12.416727066040039 11.643109321594238 C12.379382133483887 11.69896411895752 12.342036247253418 11.754817962646484 12.304691314697266 11.810672760009766 L12.304691314697266 11.810672760009766 C12.294073104858398 11.880918502807617 12.283453941345215 11.951164245605469 12.272835731506348 12.02140998840332 L12.272835731506348 12.02140998840332 C12.235090255737305 11.961073875427246 12.197344779968262 11.900736808776855 12.159599304199219 11.840400695800781 L12.159599304199219 11.840400695800781 C12.093817710876465 11.858382225036621 12.028036117553711 11.876364707946777 11.962254524230957 11.894346237182617 L11.962254524230957 11.894346237182617 C11.997518539428711 11.844664573669434 12.032781600952148 11.794981956481934 12.068045616149902 11.74530029296875 L12.068045616149902 11.74530029296875 C12.086745262145996 11.673491477966309 12.105445861816406 11.601682662963867 12.1241455078125 11.529873847961426 L12.1241455078125 11.529873847961426"></path></svg>