<svg xmlns="http://www.w3.org/2000/svg" viewBox="0.0 0.0 24.0 24.0" height="200px" width="200px"><path fill="none" stroke="black" stroke-width=".3" stroke-opacity="1.0"  filling="0" d="M12.512182235717773 11.558236122131348 L12.512182235717773 11.558236122131348 C12.512182235717773 11.626181602478027 12.512182235717773 11.694128036499023 12.512182235717773 11.762073516845703 L12.512182235717773 11.762073516845703 C12.418672561645508 11.74946403503418 12.325163841247559 11.736855506896973 12.231654167175293 11.72424602508545 L12.231654167175293 11.72424602508545 C12.248435974121094 11.774054527282715 12.265218734741211 11.823863983154297 12.282000541687012 11.873672485351562 L12.282000541687012 11.873672485351562 C11.86030101776123 11.948959350585938 11.558228492736816 12.160740852355957 11.453917503356934 11.728118896484375 L11.453917503356934 11.728118896484375 C11.43603515625 11.708091735839844 11.418153762817383 11.688063621520996 11.40027141571045 11.668036460876465 L11.40027141571045 11.668036460876465 C11.528975486755371 11.576910972595215 12.213241577148438 11.616357803344727 12.512182235717773 11.558236122131348 L12.512182235717773 11.558236122131348"></path>
<path fill="none" stroke="black" stroke-width=".3" stroke-opacity="1.0"  filling="0" d="M11.668828010559082 11.734718322753906 L11.668828010559082 11.734718322753906 C11.815300941467285 11.75356388092041 11.961772918701172 11.772409439086914 12.108245849609375 11.791254997253418 L12.108245849609375 11.791254997253418 C11.916418075561523 11.803664207458496 11.724591255187988 11.816072463989258 11.532763481140137 11.828481674194336 L11.532763481140137 11.828481674194336 C11.578118324279785 11.797226905822754 11.623473167419434 11.765973091125488 11.668828010559082 11.734718322753906 L11.668828010559082 11.734718322753906"></path></svg>