<svg xmlns="http://www.w3.org/2000/svg" viewBox="0.0 0.0 24.0 24.0" height="200px" width="200px"><path fill="none" stroke="black" stroke-width=".3" stroke-opacity="1.0"  filling="0" d="M12.092672348022461 12.417054176330566 L12.092672348022461 12.417054176330566 C12.14579963684082 12.420672416687012 12.19892692565918 12.424290657043457 12.252054214477539 12.427908897399902 L12.252054214477539 12.427908897399902 C12.245302200317383 12.520432472229004 12.253022193908691 12.616384506225586 12.281591415405273 12.704645156860352 L12.281591415405273 12.704645156860352 C12.080309867858887 12.764978408813477 11.847674369812012 12.68371295928955 11.662936210632324 12.583581924438477 L11.662936210632324 12.583581924438477 C11.685400009155273 12.632572174072266 11.707862854003906 12.681563377380371 11.730326652526855 12.73055362701416 L11.730326652526855 12.73055362701416 C11.324033737182617 12.836014747619629 11.748785018920898 12.466514587402344 12.092672348022461 12.417054176330566 L12.092672348022461 12.417054176330566"></path>
<path fill="none" stroke="black" stroke-width=".3" stroke-opacity="1.0"  filling="0" d="M11.931272506713867 12.533673286437988 L11.931272506713867 12.533673286437988 C11.995208740234375 12.551554679870605 12.0591459274292 12.569436073303223 12.123082160949707 12.58731746673584 L12.123082160949707 12.58731746673584 C12.066550254821777 12.622127532958984 11.950132369995117 12.597328186035156 11.931272506713867 12.533673286437988 L11.931272506713867 12.533673286437988"></path></svg>