<svg xmlns="http://www.w3.org/2000/svg" viewBox="0.0 0.0 24.0 24.0" height="200px" width="200px"><path fill="none" stroke="black" stroke-width=".3" stroke-opacity="1.0"  filling="0" d="M12.529609680175781 12.576708793640137 L12.529609680175781 12.576708793640137 C12.61670970916748 12.593563079833984 12.703808784484863 12.610417366027832 12.790908813476562 12.62727165222168 L12.790908813476562 12.62727165222168 C12.790908813476562 12.645453453063965 12.790908813476562 12.663636207580566 12.790908813476562 12.681818008422852 L12.790908813476562 12.681818008422852 C12.764108657836914 12.715554237365723 12.737309455871582 12.749290466308594 12.710509300231934 12.783026695251465 L12.710509300231934 12.783026695251465 C12.365928649902344 12.546858787536621 12.420370101928711 12.860065460205078 12.687817573547363 12.825163841247559 L12.687817573547363 12.825163841247559 C12.676735877990723 12.859190940856934 12.665655136108398 12.893218994140625 12.654573440551758 12.92724609375 L12.654573440551758 12.92724609375 C12.53548812866211 12.927268981933594 12.417863845825195 12.88841438293457 12.306818008422852 12.845399856567383 L12.306818008422852 12.845399856567383 C12.345356941223145 12.735620498657227 12.417572975158691 12.608084678649902 12.529609680175781 12.576708793640137 L12.529609680175781 12.576708793640137"></path></svg>