<svg xmlns="http://www.w3.org/2000/svg" viewBox="0.0 0.0 24.0 24.0" height="200px" width="200px"><path fill="none" stroke="black" stroke-width=".3" stroke-opacity="1.0"  filling="0" d="M12.113753318786621 11.183480262756348 L12.113753318786621 11.183480262756348 C12.255873680114746 11.196413040161133 12.36678695678711 11.345907211303711 12.42703628540039 11.475273132324219 L12.42703628540039 11.475273132324219 C11.991386413574219 11.57156753540039 11.53954792022705 11.67001724243164 11.28158187866211 11.247872352600098 L11.28158187866211 11.247872352600098 C11.363936424255371 11.251771926879883 11.446290969848633 11.255672454833984 11.528645515441895 11.25957202911377 L11.528645515441895 11.25957202911377 C11.665581703186035 11.331045150756836 11.80251693725586 11.402517318725586 11.939453125 11.473990440368652 L11.939453125 11.473990440368652 C11.957418441772461 11.362499237060547 12.04067611694336 11.269577980041504 12.113753318786621 11.183480262756348 L12.113753318786621 11.183480262756348"></path>
<path fill="none" stroke="black" stroke-width=".3" stroke-opacity="1.0"  filling="0" d="M12.224427223205566 11.297154426574707 L12.224427223205566 11.297154426574707 C12.247653007507324 11.35374927520752 12.225189208984375 11.435038566589355 12.178799629211426 11.474918365478516 L12.178799629211426 11.474918365478516 C12.168145179748535 11.420954704284668 12.157490730285645 11.36699104309082 12.146836280822754 11.313027381896973 L12.146836280822754 11.313027381896973 C12.172699928283691 11.30773639678955 12.198563575744629 11.302445411682129 12.224427223205566 11.297154426574707 L12.224427223205566 11.297154426574707"></path>
<path fill="none" stroke="black" stroke-width=".3" stroke-opacity="1.0"  filling="0" d="M11.774182319641113 11.385218620300293 L11.774182319641113 11.385218620300293 C11.687036514282227 11.390127182006836 11.59989070892334 11.395036697387695 11.512744903564453 11.399945259094238 L11.512744903564453 11.399945259094238 C11.59989070892334 11.395036697387695 11.687036514282227 11.390127182006836 11.774182319641113 11.385218620300293 L11.774182319641113 11.385218620300293"></path></svg>