<svg xmlns="http://www.w3.org/2000/svg" viewBox="0.0 0.0 24.0 24.0" height="200px" width="200px"><path fill="none" stroke="black" stroke-width=".3" stroke-opacity="1.0"  filling="0" d="M12.124390602111816 9.926319122314453 L12.124390602111816 9.926319122314453 C12.360831260681152 9.944580078125 12.566655158996582 9.90678596496582 12.508963584899902 10.19394588470459 L12.508963584899902 10.19394588470459 C12.396954536437988 10.19394588470459 12.284945487976074 10.19394588470459 12.17293643951416 10.19394588470459 L12.17293643951416 10.19394588470459 C12.168800354003906 10.186327934265137 12.164663314819336 10.178709030151367 12.160527229309082 10.171091079711914 L12.160527229309082 10.171091079711914 C12.225299835205078 10.13394546508789 12.290072441101074 10.096799850463867 12.35484504699707 10.059654235839844 L12.35484504699707 10.059654235839844 C12.068399429321289 10.065814018249512 11.334599494934082 10.407915115356445 11.435864448547363 9.939626693725586 L11.435864448547363 9.939626693725586 C11.56760025024414 9.939626693725586 11.699336051940918 9.939626693725586 11.831071853637695 9.939626693725586 L11.831071853637695 9.939626693725586 C11.832080841064453 9.94572639465332 11.833090782165527 9.951827049255371 11.834099769592285 9.957926750183105 L11.834099769592285 9.957926750183105 C11.758827209472656 9.993971824645996 11.683554649353027 10.030017852783203 11.608282089233398 10.066062927246094 L11.608282089233398 10.066062927246094 C11.785664558410645 10.04869270324707 11.9615478515625 9.99876594543457 12.124390602111816 9.926319122314453 L12.124390602111816 9.926319122314453"></path></svg>