<svg xmlns="http://www.w3.org/2000/svg" viewBox="0.0 0.0 24.0 24.0" height="200px" width="200px"><path fill="none" stroke="black" stroke-width=".3" stroke-opacity="1.0"  filling="0" d="M11.950390815734863 11.97354507446289 L11.950390815734863 11.97354507446289 C12.029690742492676 12.06879997253418 12.108991622924805 12.164053916931152 12.188291549682617 12.259308815002441 L12.188291549682617 12.259308815002441 C12.19725513458252 12.200190544128418 12.206217765808105 12.141073226928711 12.215181350708008 12.081954956054688 L12.215181350708008 12.081954956054688 C12.256890296936035 12.09570026397705 12.298600196838379 12.109445571899414 12.340309143066406 12.123190879821777 L12.340309143066406 12.123190879821777 C12.283454895019531 12.211681365966797 12.22659969329834 12.300172805786133 12.169745445251465 12.388663291931152 L12.169745445251465 12.388663291931152 C12.06478214263916 12.297990798950195 11.959818840026855 12.207318305969238 11.85485553741455 12.116645812988281 L11.85485553741455 12.116645812988281 C11.900519371032715 12.152718544006348 11.946182250976562 12.188790321350098 11.991846084594727 12.224863052368164 L11.991846084594727 12.224863052368164 C11.723222732543945 12.32833480834961 11.860081672668457 12.097611427307129 11.950390815734863 11.97354507446289 L11.950390815734863 11.97354507446289"></path></svg>