<svg xmlns="http://www.w3.org/2000/svg" viewBox="0.0 0.0 24.0 24.0" height="200px" width="200px"><path fill="none" stroke="black" stroke-width=".3" stroke-opacity="1.0"  filling="0" d="M11.68884563446045 12.820610046386719 L11.68884563446045 12.820610046386719 C11.92656421661377 12.880009651184082 12.164281845092773 12.939410209655762 12.402000427246094 12.998809814453125 L12.402000427246094 12.998809814453125 C12.400773048400879 13.007973670959473 12.399545669555664 13.017136573791504 12.39831829071045 13.026300430297852 L12.39831829071045 13.026300430297852 C12.13129997253418 13.097126960754395 11.86428165435791 13.167954444885254 11.59726333618164 13.238780975341797 L11.59726333618164 13.238780975341797 C11.59726333618164 13.180171966552734 11.59726333618164 13.121563911437988 11.59726333618164 13.062954902648926 L11.59726333618164 13.062954902648926 C11.77513599395752 13.041054725646973 11.953009605407715 13.01915454864502 12.130882263183594 12.997254371643066 L12.130882263183594 12.997254371643066 C11.931706428527832 12.91749095916748 11.772161483764648 12.949901580810547 11.567590713500977 12.961064338684082 L11.567590713500977 12.961064338684082 C11.567590713500977 12.91919994354248 11.567590713500977 12.877336502075195 11.567590713500977 12.835472106933594 L11.567590713500977 12.835472106933594 C11.603426933288574 12.816134452819824 11.648125648498535 12.820856094360352 11.68884563446045 12.820610046386719 L11.68884563446045 12.820610046386719"></path></svg>