<svg xmlns="http://www.w3.org/2000/svg" viewBox="0.0 0.0 24.0 24.0" height="200px" width="200px"><path fill="none" stroke="black" stroke-width=".3" stroke-opacity="1.0"  filling="0" d="M11.727272987365723 11.345454216003418 L11.727272987365723 11.345454216003418 C11.701072692871094 11.395181655883789 11.674873352050781 11.44490909576416 11.648673057556152 11.494636535644531 L11.648673057556152 11.494636535644531 C11.61545467376709 11.458854675292969 11.582237243652344 11.423072814941406 11.549018859863281 11.387290954589844 L11.549018859863281 11.387290954589844 C11.515597343444824 11.46208667755127 11.516624450683594 11.597064018249512 11.591946601867676 11.629281997680664 L11.591946601867676 11.629281997680664 C11.569801330566406 11.684264183044434 11.54765510559082 11.739245414733887 11.52550983428955 11.794227600097656 L11.52550983428955 11.794227600097656 C11.447300910949707 11.699182510375977 11.369091033935547 11.60413646697998 11.290882110595703 11.5090913772583 L11.290882110595703 11.5090913772583 C11.290882110595703 11.454545974731445 11.290882110595703 11.40000057220459 11.290882110595703 11.345455169677734 L11.290882110595703 11.345455169677734 C11.436346054077148 11.345455169677734 11.581809043884277 11.345454216003418 11.727272987365723 11.345454216003418 L11.727272987365723 11.345454216003418"></path></svg>