<svg xmlns="http://www.w3.org/2000/svg" viewBox="0.0 0.0 24.0 24.0" height="200px" width="200px"><path fill="none" stroke="black" stroke-width=".3" stroke-opacity="1.0"  filling="0" d="M12.131290435791016 11.408289909362793 L12.131290435791016 11.408289909362793 C12.239617347717285 11.431844711303711 12.347945213317871 11.455399513244629 12.45627212524414 11.478954315185547 L12.45627212524414 11.478954315185547 C12.502861976623535 11.69447135925293 12.358288764953613 11.755766868591309 12.2188081741333 11.8219633102417 L12.2188081741333 11.8219633102417 C12.195808410644531 11.788427352905273 12.172808647155762 11.754890441894531 12.149808883666992 11.721354484558105 L12.149808883666992 11.721354484558105 C12.153844833374023 11.661991119384766 12.157881736755371 11.60262680053711 12.161917686462402 11.54326343536377 L12.161917686462402 11.54326343536377 C12.151481628417969 11.541099548339844 12.141044616699219 11.538936614990234 12.130608558654785 11.536772727966309 L12.130608558654785 11.536772727966309 C12.112763404846191 11.596617698669434 12.094917297363281 11.656463623046875 12.077072143554688 11.71630859375 L12.077072143554688 11.71630859375 C12.095145225524902 11.613636016845703 12.1132173538208 11.51096248626709 12.131290435791016 11.408289909362793 L12.131290435791016 11.408289909362793"></path></svg>