<svg xmlns="http://www.w3.org/2000/svg" viewBox="0.0 0.0 24.0 24.0" height="200px" width="200px"><path fill="none" stroke="black" stroke-width=".3" stroke-opacity="1.0"  filling="0" d="M12.576764106750488 11.772927284240723 L12.576764106750488 11.772927284240723 C12.59066390991211 11.890645027160645 12.60456371307373 12.008363723754883 12.618463516235352 12.126081466674805 L12.618463516235352 12.126081466674805 C12.563436508178711 12.119935989379883 12.508408546447754 12.113790512084961 12.453381538391113 12.107645034790039 L12.453381538391113 12.107645034790039 C12.47382640838623 12.172532081604004 12.537690162658691 12.25604248046875 12.604745864868164 12.24455451965332 L12.604745864868164 12.24455451965332 C12.619854927062988 12.267200469970703 12.634963989257812 12.28984546661377 12.650073051452637 12.312491416931152 L12.650073051452637 12.312491416931152 C12.378070831298828 12.61333179473877 12.132762908935547 11.86622142791748 12.576764106750488 11.772927284240723 L12.576764106750488 11.772927284240723"></path>
<path fill="none" stroke="black" stroke-width=".3" stroke-opacity="1.0"  filling="0" d="M12.500125885009766 11.852399826049805 L12.500125885009766 11.852399826049805 C12.511698722839355 11.854645729064941 12.523271560668945 11.856890678405762 12.534844398498535 11.859136581420898 L12.534844398498535 11.859136581420898 C12.543444633483887 11.896100044250488 12.552044868469238 11.933063507080078 12.56064510345459 11.970026969909668 L12.56064510345459 11.970026969909668 C12.521553993225098 11.970026969909668 12.482462882995605 11.970026969909668 12.443371772766113 11.970026969909668 L12.443371772766113 11.970026969909668 C12.437472343444824 11.958499908447266 12.431571960449219 11.946971893310547 12.42567253112793 11.935444831848145 L12.42567253112793 11.935444831848145 C12.45048999786377 11.907763481140137 12.475308418273926 11.880081176757812 12.500125885009766 11.852399826049805 L12.500125885009766 11.852399826049805"></path></svg>