<svg xmlns="http://www.w3.org/2000/svg" viewBox="0.0 0.0 24.0 24.0" height="200px" width="200px"><path fill="none" stroke="black" stroke-width=".3" stroke-opacity="1.0"  filling="0" d="M12.347101211547852 12.900108337402344 L12.347101211547852 12.900108337402344 C12.349946975708008 12.912680625915527 12.352791786193848 12.925253868103027 12.355637550354004 12.937826156616211 L12.355637550354004 12.937826156616211 C12.181418418884277 12.991676330566406 12.012558937072754 12.960159301757812 11.841792106628418 13.020899772644043 L11.841792106628418 13.020899772644043 C12.029519081115723 13.053472518920898 12.217246055603027 13.086045265197754 12.404973030090332 13.11861801147461 L12.404973030090332 13.11861801147461 C12.210872650146484 13.145990371704102 12.016773223876953 13.17336368560791 11.822672843933105 13.200736045837402 L11.822672843933105 13.200736045837402 C12.02271842956543 13.22802734375 12.222764015197754 13.255317687988281 12.422809600830078 13.282608985900879 L12.422809600830078 13.282608985900879 C12.227731704711914 13.438300132751465 11.925289154052734 13.33191967010498 11.675700187683105 13.332435607910156 L11.675700187683105 13.332435607910156 C11.679591178894043 13.251699447631836 11.68348217010498 13.1709623336792 11.687373161315918 13.090226173400879 L11.687373161315918 13.090226173400879 C11.591889381408691 12.787362098693848 12.22439193725586 12.900357246398926 12.347101211547852 12.900108337402344 L12.347101211547852 12.900108337402344"></path></svg>