<svg xmlns="http://www.w3.org/2000/svg" viewBox="0.0 0.0 24.0 24.0" height="200px" width="200px"><path fill="none" stroke="black" stroke-width=".3" stroke-opacity="1.0"  filling="0" d="M12.235093116760254 12.876326560974121 L12.235093116760254 12.876326560974121 C12.27013874053955 12.932490348815918 12.305183410644531 12.988653182983398 12.340229034423828 13.044816970825195 L12.340229034423828 13.044816970825195 C12.10128402709961 13.043680191040039 11.862338066101074 13.0425443649292 11.623393058776855 13.041407585144043 L11.623393058776855 13.041407585144043 C11.89383316040039 13.153583526611328 12.062397003173828 13.10797119140625 12.348193168640137 13.119053840637207 L12.348193168640137 13.119053840637207 C12.348193168640137 13.163135528564453 12.348193168640137 13.207218170166016 12.348193168640137 13.251299858093262 L12.348193168640137 13.251299858093262 C12.108929634094238 13.263763427734375 11.869665145874023 13.276226997375488 11.630401611328125 13.288690567016602 L11.630401611328125 13.288690567016602 C11.87543773651123 13.30266284942627 12.120474815368652 13.316636085510254 12.365510940551758 13.330608367919922 L12.365510940551758 13.330608367919922 C12.117923736572266 13.617603302001953 11.815550804138184 13.486310958862305 11.465399742126465 13.500926971435547 L11.465399742126465 13.500926971435547 C11.485508918762207 13.457900047302246 11.505619049072266 13.414872169494629 11.525728225708008 13.371845245361328 L11.525728225708008 13.371845245361328 C11.497945785522461 13.339699745178223 11.47016429901123 13.307554244995117 11.442381858825684 13.275408744812012 L11.442381858825684 13.275408744812012 C11.484991073608398 13.2451810836792 11.527600288391113 13.214953422546387 11.570209503173828 13.184725761413574 L11.570209503173828 13.184725761413574 C11.533900260925293 13.14909839630127 11.497591972351074 13.113471984863281 11.461282730102539 13.077844619750977 L11.461282730102539 13.077844619750977 C11.674079895019531 12.917343139648438 11.969644546508789 12.900422096252441 12.235093116760254 12.876326560974121 L12.235093116760254 12.876326560974121"></path></svg>