<svg xmlns="http://www.w3.org/2000/svg" viewBox="0.0 0.0 24.0 24.0" height="200px" width="200px"><path fill="none" stroke="black" stroke-width=".3" stroke-opacity="1.0"  filling="0" d="M11.435836791992188 12.710890769958496 L11.435836791992188 12.710890769958496 C11.728439331054688 12.734283447265625 12.013556480407715 12.746513366699219 12.321954727172852 12.72646427154541 L12.321954727172852 12.72646427154541 C12.311300277709961 12.772464752197266 12.30064582824707 12.818464279174805 12.28999137878418 12.86446475982666 L12.28999137878418 12.86446475982666 C12.2042818069458 12.872100830078125 12.118573188781738 12.87973690032959 12.03286361694336 12.887372970581055 L12.03286361694336 12.887372970581055 C12.032472610473633 12.901436805725098 12.032082557678223 12.91550064086914 12.031691551208496 12.929564476013184 L12.031691551208496 12.929564476013184 C12.776707649230957 13.096089363098145 11.644256591796875 13.055533409118652 11.440608978271484 13.135064125061035 L11.440608978271484 13.135064125061035 C11.431363105773926 13.073055267333984 11.422118186950684 13.011045455932617 11.412872314453125 12.949036598205566 L11.412872314453125 12.949036598205566 C11.50587272644043 12.938000679016113 11.598872184753418 12.926963806152344 11.691872596740723 12.91592788696289 L11.691872596740723 12.91592788696289 C11.694327354431152 12.903236389160156 11.696781158447266 12.890545845031738 11.699235916137695 12.877854347229004 L11.699235916137695 12.877854347229004 C11.60448169708252 12.863722801208496 11.50861930847168 12.854592323303223 11.412818908691406 12.854018211364746 L11.412818908691406 12.854018211364746 C11.420491218566895 12.80630874633789 11.4281644821167 12.758600234985352 11.435836791992188 12.710890769958496 L11.435836791992188 12.710890769958496"></path></svg>