<svg xmlns="http://www.w3.org/2000/svg" viewBox="0.0 0.0 24.0 24.0" height="200px" width="200px"><path fill="none" stroke="black" stroke-width=".3" stroke-opacity="1.0"  filling="0" d="M12.158782958984375 13.501063346862793 L12.158782958984375 13.501063346862793 C12.222173690795898 13.57052993774414 12.241509437561035 13.676969528198242 12.240791320800781 13.77100944519043 L12.240791320800781 13.77100944519043 C12.429891586303711 13.761100769042969 12.618990898132324 13.751191139221191 12.808091163635254 13.74128246307373 L12.808091163635254 13.74128246307373 C12.703473091125488 13.67735481262207 12.598854064941406 13.61342716217041 12.49423599243164 13.54949951171875 L12.49423599243164 13.54949951171875 C13.157995223999023 13.378984451293945 12.926042556762695 14.181021690368652 12.257863998413086 14.098255157470703 C11.233545303344727 13.971373558044434 11.341496467590332 13.594137191772461 12.158782958984375 13.501063346862793 L12.158782958984375 13.501063346862793"></path>
<path fill="none" stroke="black" stroke-width=".3" stroke-opacity="1.0"  filling="0" d="M11.699235916137695 13.723226547241211 L11.699235916137695 13.723226547241211 C11.842572212219238 13.736035346984863 11.985909461975098 13.748845100402832 12.12924575805664 13.761653900146484 L12.12924575805664 13.761653900146484 C11.959654808044434 13.7753267288208 11.790063858032227 13.788999557495117 11.62047290802002 13.802672386169434 L11.62047290802002 13.802672386169434 C11.646727561950684 13.776190757751465 11.672981262207031 13.74970817565918 11.699235916137695 13.723226547241211 L11.699235916137695 13.723226547241211"></path></svg>