<svg xmlns="http://www.w3.org/2000/svg" viewBox="0.0 0.0 24.0 24.0" height="200px" width="200px"><path fill="none" stroke="black" stroke-width=".3" stroke-opacity="1.0"  filling="0" d="M12.194045066833496 12.163172721862793 L12.194045066833496 12.163172721862793 C12.288678169250488 12.52029800415039 12.06643295288086 12.505014419555664 11.846343994140625 12.305182456970215 L11.846343994140625 12.305182456970215 C11.823925971984863 12.305182456970215 11.801507949829102 12.305182456970215 11.77908992767334 12.305182456970215 L11.77908992767334 12.305182456970215 C11.795753479003906 12.338882446289062 11.812417984008789 12.37258243560791 11.829081535339355 12.406282424926758 L11.829081535339355 12.406282424926758 C11.761363983154297 12.404500007629395 11.693645477294922 12.402718544006348 11.625927925109863 12.400936126708984 L11.625927925109863 12.400936126708984 C11.760862350463867 12.246223449707031 11.995521545410156 12.215438842773438 12.194045066833496 12.163172721862793 L12.194045066833496 12.163172721862793"></path>
<path fill="none" stroke="black" stroke-width=".3" stroke-opacity="1.0"  filling="0" d="M11.948236465454102 12.31491756439209 L11.948236465454102 12.31491756439209 C12.000473022460938 12.323081016540527 12.052708625793457 12.331245422363281 12.104945182800293 12.339408874511719 L12.104945182800293 12.339408874511719 C12.052708625793457 12.331245422363281 12.000473022460938 12.323081016540527 11.948236465454102 12.31491756439209 L11.948236465454102 12.31491756439209"></path></svg>