<svg xmlns="http://www.w3.org/2000/svg" viewBox="0.0 0.0 24.0 24.0" height="200px" width="200px"><path fill="none" stroke="black" stroke-width=".3" stroke-opacity="1.0"  filling="0" d="M12.230098724365234 10.819746017456055 L12.230098724365234 10.819746017456055 C12.293606758117676 10.899903297424316 12.357495307922363 10.990629196166992 12.371726989746094 11.091900825500488 L12.371726989746094 11.091900825500488 C12.270326614379883 11.099791526794434 12.168927192687988 11.107683181762695 12.067526817321777 11.11557388305664 L12.067526817321777 11.11557388305664 C12.10623550415039 11.050982475280762 12.14494514465332 10.9863920211792 12.183653831481934 10.92180061340332 L12.183653831481934 10.92180061340332 C11.967370986938477 10.991373062133789 11.736964225769043 11.088728904724121 11.51364517211914 11.046927452087402 L11.51364517211914 11.046927452087402 C11.51364517211914 10.994791030883789 11.51364517211914 10.942655563354492 11.51364517211914 10.890519142150879 L11.51364517211914 10.890519142150879 C11.614582061767578 10.879155158996582 11.7155179977417 10.867791175842285 11.816454887390137 10.856427192687988 L11.816454887390137 10.856427192687988 C11.765045166015625 10.899627685546875 11.71363639831543 10.942827224731445 11.662226676940918 10.986027717590332 L11.662226676940918 10.986027717590332 C11.856263160705566 10.950628280639648 12.043230056762695 10.88286018371582 12.230098724365234 10.819746017456055 L12.230098724365234 10.819746017456055"></path></svg>