<svg xmlns="http://www.w3.org/2000/svg" viewBox="0.0 0.0 24.0 24.0" height="200px" width="200px"><path fill="none" stroke="black" stroke-width=".3" stroke-opacity="1.0"  filling="0" d="M12.270164489746094 12.138654708862305 L12.270164489746094 12.138654708862305 C12.309264183044434 12.224614143371582 12.364233016967773 12.31515121459961 12.354572296142578 12.409090042114258 L12.354572296142578 12.409090042114258 C12.409109115600586 12.409090042114258 12.463644981384277 12.409090042114258 12.518181800842285 12.409090042114258 L12.518181800842285 12.409090042114258 C12.518181800842285 12.454545021057129 12.518181800842285 12.5 12.518181800842285 12.545454978942871 L12.518181800842285 12.545454978942871 C12.266550064086914 12.542926788330078 11.985213279724121 12.625502586364746 11.764336585998535 12.504927635192871 L11.764336585998535 12.504927635192871 C11.74496841430664 12.094522476196289 11.857771873474121 12.140315055847168 12.270164489746094 12.138654708862305 L12.270164489746094 12.138654708862305"></path>
<path fill="none" stroke="black" stroke-width=".3" stroke-opacity="1.0"  filling="0" d="M11.886191368103027 12.289390563964844 L11.886191368103027 12.289390563964844 C12.002354621887207 12.292862892150879 12.118518829345703 12.29633617401123 12.234682083129883 12.299808502197266 L12.234682083129883 12.299808502197266 C12.149873733520508 12.379266738891602 11.988966941833496 12.343642234802246 11.886191368103027 12.289390563964844 L11.886191368103027 12.289390563964844"></path></svg>