<svg xmlns="http://www.w3.org/2000/svg" viewBox="0.0 0.0 24.0 24.0" height="200px" width="200px"><path fill="none" stroke="black" stroke-width=".3" stroke-opacity="1.0"  filling="0" d="M12.20378303527832 11.163844108581543 L12.20378303527832 11.163844108581543 C12.241791725158691 11.25782585144043 12.279801368713379 11.351808547973633 12.31781005859375 11.44579029083252 L12.31781005859375 11.44579029083252 C12.230637550354004 11.44579029083252 12.143464088439941 11.44579029083252 12.056291580200195 11.44579029083252 L12.056291580200195 11.44579029083252 C12.462424278259277 11.111355781555176 11.566238403320312 11.664999008178711 11.583600044250488 11.189291000366211 L11.583600044250488 11.189291000366211 C11.66578197479248 11.189291000366211 11.747962951660156 11.189291000366211 11.830144882202148 11.189291000366211 L11.830144882202148 11.189291000366211 C11.785615921020508 11.242464065551758 11.746121406555176 11.300536155700684 11.714536666870117 11.362281799316406 L11.714536666870117 11.362281799316406 C11.746463775634766 11.365208625793457 11.778390884399414 11.368136405944824 11.810317993164062 11.371063232421875 L11.810317993164062 11.371063232421875 C11.899807929992676 11.25289249420166 12.055566787719727 11.166007995605469 12.20378303527832 11.163844108581543 L12.20378303527832 11.163844108581543"></path></svg>