<svg xmlns="http://www.w3.org/2000/svg" viewBox="0.0 0.0 24.0 24.0" height="200px" width="200px"><path fill="none" stroke="black" stroke-width=".3" stroke-opacity="1.0"  filling="0" d="M12.345600128173828 10.856454849243164 L12.345600128173828 10.856454849243164 C12.423772811889648 10.865163803100586 12.501945495605469 10.873873710632324 12.580118179321289 10.882582664489746 L12.580118179321289 10.882582664489746 C12.559663772583008 10.91082763671875 12.539209365844727 10.93907356262207 12.518754959106445 10.967318534851074 L12.518754959106445 10.967318534851074 C12.814423561096191 11.332470893859863 11.798151969909668 11.046891212463379 11.695390701293945 11.05352783203125 L11.695390701293945 11.05352783203125 C11.761972427368164 11.083054542541504 11.828554153442383 11.112582206726074 11.895135879516602 11.142108917236328 L11.895135879516602 11.142108917236328 C11.89069938659668 11.153326988220215 11.886263847351074 11.164546012878418 11.881827354431152 11.175764083862305 L11.881827354431152 11.175764083862305 C10.987866401672363 10.984715461730957 12.09281063079834 10.904411315917969 12.345600128173828 10.856454849243164 L12.345600128173828 10.856454849243164"></path>
<path fill="none" stroke="black" stroke-width=".3" stroke-opacity="1.0"  filling="0" d="M12.11899185180664 11.036153793334961 L12.11899185180664 11.036153793334961 C12.206172943115234 11.054054260253906 12.293354988098145 11.071953773498535 12.380536079406738 11.08985424041748 L12.380536079406738 11.08985424041748 C12.293354988098145 11.071953773498535 12.206172943115234 11.054054260253906 12.11899185180664 11.036153793334961 L12.11899185180664 11.036153793334961"></path></svg>