<svg xmlns="http://www.w3.org/2000/svg" viewBox="0.0 0.0 24.0 24.0" height="200px" width="200px"><path fill="none" stroke="black" stroke-width=".3" stroke-opacity="1.0"  filling="0" d="M11.7034912109375 11.804536819458008 L11.7034912109375 11.804536819458008 C11.70223617553711 11.899809837341309 11.700982093811035 11.995081901550293 11.699727058410645 12.090354919433594 L11.699727058410645 12.090354919433594 C11.730244636535645 12.107281684875488 11.760763168334961 12.1242094039917 11.791280746459961 12.141136169433594 L11.791280746459961 12.141136169433594 C11.817998886108398 12.08447265625 11.844717979431152 12.027810096740723 11.87143611907959 11.971146583557129 L11.87143611907959 11.971146583557129 C11.882363319396973 11.970210075378418 11.893289566040039 11.969273567199707 11.904216766357422 11.968337059020996 L11.904216766357422 11.968337059020996 C11.936179161071777 12.089028358459473 11.966445922851562 12.197578430175781 12.078926086425781 12.263101577758789 L12.078926086425781 12.263101577758789 C11.870676040649414 12.422502517700195 11.766461372375488 12.292852401733398 11.531644821166992 12.171327590942383 L11.531644821166992 12.171327590942383 C11.588927268981934 12.049063682556152 11.646208763122559 11.926800727844238 11.7034912109375 11.804536819458008 L11.7034912109375 11.804536819458008"></path></svg>