<svg xmlns="http://www.w3.org/2000/svg" viewBox="0.0 0.0 24.0 24.0" height="200px" width="200px"><path fill="none" stroke="black" stroke-width=".3" stroke-opacity="1.0"  filling="0" d="M12.112526893615723 12.987217903137207 L12.112526893615723 12.987217903137207 C12.16948127746582 13.025063514709473 12.226436614990234 13.062909126281738 12.283390998840332 13.100754737854004 L12.283390998840332 13.100754737854004 C12.261454582214355 13.133745193481445 12.239518165588379 13.166736602783203 12.217581748962402 13.199727058410645 L12.217581748962402 13.199727058410645 C12.356356620788574 13.229791641235352 12.58366870880127 13.11263370513916 12.50661849975586 13.364400863647461 L12.50661849975586 13.364400863647461 C12.123671531677246 13.356715202331543 11.816285133361816 13.310315132141113 11.424163818359375 13.35793685913086 L11.424163818359375 13.35793685913086 C11.390478134155273 12.854884147644043 11.502989768981934 13.022214889526367 12.112526893615723 12.987217903137207 L12.112526893615723 12.987217903137207"></path>
<path fill="none" stroke="black" stroke-width=".3" stroke-opacity="1.0"  filling="0" d="M12.130090713500977 13.105145454406738 L12.130090713500977 13.105145454406738 C11.991816520690918 13.230504035949707 11.753379821777344 13.17133617401123 11.570836067199707 13.1324462890625 L11.570836067199707 13.1324462890625 C11.757254600524902 13.123346328735352 11.943672180175781 13.114245414733887 12.130090713500977 13.105145454406738 L12.130090713500977 13.105145454406738"></path></svg>