<svg xmlns="http://www.w3.org/2000/svg" viewBox="0.0 0.0 24.0 24.0" height="200px" width="200px"><path fill="none" stroke="black" stroke-width=".3" stroke-opacity="1.0"  filling="0" d="M12.046854972839355 11.803255081176758 L12.046854972839355 11.803255081176758 C12.122727394104004 11.821290969848633 12.198600769042969 11.839327812194824 12.274473190307617 11.8573637008667 L12.274473190307617 11.8573637008667 C12.251900672912598 11.901054382324219 12.229327201843262 11.944746017456055 12.206754684448242 11.988436698913574 L12.206754684448242 11.988436698913574 C12.12597942352295 11.93964958190918 11.990281105041504 11.935023307800293 11.923992156982422 12.00218391418457 L11.923992156982422 12.00218391418457 C12.006509780883789 12.028547286987305 12.089027404785156 12.054909706115723 12.171545028686523 12.081273078918457 L12.171545028686523 12.081273078918457 C12.148481369018555 12.132318496704102 12.125418663024902 12.18336296081543 12.102355003356934 12.234408378601074 L12.102355003356934 12.234408378601074 C12.001718521118164 12.178444862365723 11.901082992553711 12.122481346130371 11.800446510314941 12.06651782989502 L11.800446510314941 12.06651782989502 C11.830782890319824 11.980672836303711 11.86111831665039 11.894826889038086 11.891454696655273 11.808981895446777 L11.891454696655273 11.808981895446777 C11.943254470825195 11.807072639465332 11.995055198669434 11.805164337158203 12.046854972839355 11.803255081176758 L12.046854972839355 11.803255081176758"></path></svg>