<svg xmlns="http://www.w3.org/2000/svg" viewBox="0.0 0.0 24.0 24.0" height="200px" width="200px"><path fill="none" stroke="black" stroke-width=".3" stroke-opacity="1.0"  filling="0" d="M12.136009216308594 11.941473007202148 L12.136009216308594 11.941473007202148 C12.136009216308594 11.98910903930664 12.136009216308594 12.03674602508545 12.136009216308594 12.084382057189941 L12.136009216308594 12.084382057189941 C12.191797256469727 12.083688735961914 12.613386154174805 12.065866470336914 12.341155052185059 11.946026802062988 L12.341155052185059 11.946026802062988 C12.445290565490723 11.986353874206543 12.549427032470703 12.026681900024414 12.653562545776367 12.067008972167969 L12.653562545776367 12.067008972167969 C12.253085136413574 12.235660552978516 11.916158676147461 12.322426795959473 11.545963287353516 12.037554740905762 L11.545963287353516 12.037554740905762 C11.742645263671875 12.00552749633789 11.939327239990234 11.97350025177002 12.136009216308594 11.941473007202148 L12.136009216308594 11.941473007202148"></path>
<path fill="none" stroke="black" stroke-width=".3" stroke-opacity="1.0"  filling="0" d="M11.986309051513672 12.000572204589844 L11.986309051513672 12.000572204589844 C11.961156845092773 12.07773494720459 11.82487964630127 12.078744888305664 11.748299598693848 12.051872253417969 L11.748299598693848 12.051872253417969 C11.827635765075684 12.034771919250488 11.906972885131836 12.017672538757324 11.986309051513672 12.000572204589844 L11.986309051513672 12.000572204589844"></path></svg>