<svg xmlns="http://www.w3.org/2000/svg" viewBox="0.0 0.0 24.0 24.0" height="200px" width="200px"><path fill="none" stroke="black" stroke-width=".3" stroke-opacity="1.0"  filling="0" d="M12.226228713989258 11.688737869262695 L12.226228713989258 11.688737869262695 C12.801247596740723 11.705100059509277 11.727363586425781 11.829379081726074 11.668282508850098 11.847382545471191 L11.668282508850098 11.847382545471191 C11.852107048034668 11.94066333770752 12.504175186157227 11.839147567749023 12.4186372756958 12.166718482971191 C12.341300010681152 12.462886810302734 11.891799926757812 12.196195602416992 11.682165145874023 12.31167221069336 L11.682165145874023 12.31167221069336 C11.943782806396484 12.443685531616211 12.406145095825195 12.191190719604492 12.4078369140625 12.543572425842285 L12.4078369140625 12.543572425842285 C12.258471488952637 12.534086227416992 11.429243087768555 12.632567405700684 11.516263008117676 12.43006420135498 L11.516263008117676 12.43006420135498 C11.414140701293945 12.030837059020996 12.025938034057617 12.198738098144531 12.300027847290039 12.087465286254883 L12.300027847290039 12.087465286254883 C12.017281532287598 12.019265174865723 11.738588333129883 12.094728469848633 11.459674835205078 12.043991088867188 L11.459674835205078 12.043991088867188 C11.48337459564209 12.015281677246094 11.507074356079102 11.986573219299316 11.530774116516113 11.957863807678223 L11.530774116516113 11.957863807678223 C11.293046951293945 11.693655967712402 12.115864753723145 11.712102890014648 12.226228713989258 11.688737869262695 L12.226228713989258 11.688737869262695"></path></svg>