<svg xmlns="http://www.w3.org/2000/svg" viewBox="0.0 0.0 24.0 24.0" height="200px" width="200px"><path fill="none" stroke="black" stroke-width=".3" stroke-opacity="1.0"  filling="0" d="M12.704099655151367 13.261199951171875 L12.704099655151367 13.261199951171875 C12.704099655151367 13.307373046875 12.704099655151367 13.353545188903809 12.704099655151367 13.399718284606934 L12.704099655151367 13.399718284606934 C12.41680908203125 13.418878555297852 12.089706420898438 13.311845779418945 11.837044715881348 13.452354431152344 L11.837044715881348 13.452354431152344 C12.176188468933105 13.55777645111084 12.465170860290527 13.41075611114502 12.73194408416748 13.629437446594238 L12.73194408416748 13.629437446594238 C12.388407707214355 13.649524688720703 11.966925621032715 13.704093933105469 11.633180618286133 13.636528015136719 L11.633180618286133 13.636528015136719 C11.656052589416504 13.598846435546875 11.678925514221191 13.561164855957031 11.701797485351562 13.523483276367188 L11.701797485351562 13.523483276367188 C11.675251960754395 13.498482704162598 11.648706436157227 13.473483085632324 11.622160911560059 13.448482513427734 L11.622160911560059 13.448482513427734 C11.68913459777832 13.226563453674316 12.527815818786621 13.264617919921875 12.704099655151367 13.261199951171875 L12.704099655151367 13.261199951171875"></path></svg>