<svg xmlns="http://www.w3.org/2000/svg" viewBox="0.0 0.0 24.0 24.0" height="200px" width="200px"><path fill="none" stroke="black" stroke-width=".3" stroke-opacity="1.0"  filling="0" d="M12.313309669494629 12.52884578704834 L12.313309669494629 12.52884578704834 C12.357882499694824 12.537163734436035 12.402454376220703 12.545482635498047 12.447027206420898 12.553800582885742 L12.447027206420898 12.553800582885742 C12.425654411315918 12.586709976196289 12.404281616210938 12.61961841583252 12.382908821105957 12.652527809143066 L12.382908821105957 12.652527809143066 C12.40999984741211 12.69753646850586 12.437090873718262 12.742546081542969 12.464181900024414 12.787554740905762 L12.464181900024414 12.787554740905762 C12.243593215942383 12.826777458190918 11.916111946105957 12.673129081726074 11.814054489135742 12.774709701538086 L11.814054489135742 12.774709701538086 C11.863091468811035 12.791728019714355 11.912127494812012 12.808745384216309 11.961164474487305 12.825763702392578 L11.961164474487305 12.825763702392578 C11.858749389648438 12.857641220092773 11.722908020019531 12.770106315612793 11.678154945373535 12.672626495361328 L11.678154945373535 12.672626495361328 C11.886377334594727 12.611266136169434 12.098671913146973 12.561284065246582 12.313309669494629 12.52884578704834 L12.313309669494629 12.52884578704834"></path>
<path fill="none" stroke="black" stroke-width=".3" stroke-opacity="1.0"  filling="0" d="M12.16783618927002 12.658119201660156 L12.16783618927002 12.658119201660156 C12.209527015686035 12.700082778930664 12.251218795776367 12.742045402526855 12.292909622192383 12.784008979797363 L12.292909622192383 12.784008979797363 C12.233382225036621 12.784008979797363 12.173853874206543 12.784008979797363 12.114326477050781 12.784008979797363 L12.114326477050781 12.784008979797363 C12.114316940307617 12.742963790893555 12.11430835723877 12.701918601989746 12.114298820495605 12.660873413085938 L12.114298820495605 12.660873413085938 C12.132144927978516 12.659955024719238 12.14999008178711 12.659037590026855 12.16783618927002 12.658119201660156 L12.16783618927002 12.658119201660156"></path></svg>