<svg xmlns="http://www.w3.org/2000/svg" viewBox="0.0 0.0 24.0 24.0" height="200px" width="200px"><path fill="none" stroke="black" stroke-width=".3" stroke-opacity="1.0"  filling="0" d="M11.496191024780273 10.67119026184082 L11.496191024780273 10.67119026184082 C11.560273170471191 10.71414566040039 11.62435531616211 10.757100105285645 11.688437461853027 10.800055503845215 L11.688437461853027 10.800055503845215 C11.938504219055176 10.800614356994629 12.194427490234375 10.77436351776123 12.438000679016113 10.830982208251953 L12.438000679016113 10.830982208251953 C12.43796443939209 10.846709251403809 12.437928199768066 10.86243724822998 12.437891960144043 10.878164291381836 L12.437891960144043 10.878164291381836 C12.131287574768066 10.94911003112793 11.887981414794922 10.831783294677734 11.631300926208496 11.039700508117676 L11.631300926208496 11.039700508117676 C11.575963973999023 11.039700508117676 11.520627975463867 11.039700508117676 11.465291023254395 11.039700508117676 L11.465291023254395 11.039700508117676 C11.454973220825195 10.946418762207031 11.44465446472168 10.85313606262207 11.43433666229248 10.759854316711426 L11.43433666229248 10.759854316711426 C11.454955101013184 10.730299949645996 11.47557258605957 10.70074462890625 11.496191024780273 10.67119026184082 L11.496191024780273 10.67119026184082"></path></svg>