<svg xmlns="http://www.w3.org/2000/svg" viewBox="0.0 0.0 24.0 24.0" height="200px" width="200px"><path fill="none" stroke="black" stroke-width=".3" stroke-opacity="1.0"  filling="0" d="M12.03398323059082 11.346982955932617 L12.03398323059082 11.346982955932617 C12.176536560058594 11.53456974029541 12.199165344238281 11.618634223937988 12.40854549407959 11.503473281860352 L12.40854549407959 11.503473281860352 C12.381454467773438 11.471809387207031 12.354363441467285 11.440146446228027 12.327272415161133 11.408482551574707 L12.327272415161133 11.408482551574707 C12.414745330810547 11.426018714904785 12.502218246459961 11.443553924560547 12.589691162109375 11.461090087890625 L12.589691162109375 11.461090087890625 C12.120503425598145 11.766486167907715 11.683157920837402 11.616629600524902 11.165645599365234 11.512772560119629 L11.165645599365234 11.512772560119629 C11.300518035888672 11.484417915344238 11.435391426086426 11.456064224243164 11.570263862609863 11.427709579467773 L11.570263862609863 11.427709579467773 C11.535837173461914 11.459182739257812 11.501409530639648 11.490654945373535 11.4669828414917 11.522128105163574 L11.4669828414917 11.522128105163574 C11.51126480102539 11.53853702545166 11.555545806884766 11.554945945739746 11.599827766418457 11.571354866027832 L11.599827766418457 11.571354866027832 C11.717843055725098 11.459062576293945 11.872138977050781 11.365519523620605 12.03398323059082 11.346982955932617 L12.03398323059082 11.346982955932617"></path>
<path fill="none" stroke="black" stroke-width=".3" stroke-opacity="1.0"  filling="0" d="M11.880626678466797 11.434800148010254 L11.880626678466797 11.434800148010254 C11.921426773071289 11.469573020935059 11.962226867675781 11.504345893859863 12.003026962280273 11.539118766784668 L12.003026962280273 11.539118766784668 C11.924272537231445 11.547382354736328 11.845518112182617 11.555645942687988 11.766763687133789 11.563909530639648 L11.766763687133789 11.563909530639648 C11.804718017578125 11.520873069763184 11.842672348022461 11.477836608886719 11.880626678466797 11.434800148010254 L11.880626678466797 11.434800148010254"></path></svg>