<svg xmlns="http://www.w3.org/2000/svg" viewBox="0.0 0.0 24.0 24.0" height="200px" width="200px"><path fill="none" stroke="black" stroke-width=".3" stroke-opacity="1.0"  filling="0" d="M12.556227684020996 12.453736305236816 L12.556227684020996 12.453736305236816 C12.63401985168457 12.476775169372559 12.711532592773438 12.501524925231934 12.790936470031738 12.518180847167969 L12.790936470031738 12.518180847167969 C12.790511131286621 12.582462310791016 12.820613861083984 12.679275512695312 12.763664245605469 12.709090232849121 L12.763664245605469 12.709090232849121 C12.727655410766602 12.671744346618652 12.691645622253418 12.6343994140625 12.65563678741455 12.597053527832031 L12.65563678741455 12.597053527832031 C12.637900352478027 12.5619535446167 12.620163917541504 12.526854515075684 12.60242748260498 12.491754531860352 L12.60242748260498 12.491754531860352 C12.577791213989258 12.519363403320312 12.553154945373535 12.546972274780273 12.528518676757812 12.574581146240234 L12.528518676757812 12.574581146240234 C12.534173965454102 12.619417190551758 12.539828300476074 12.664254188537598 12.545483589172363 12.709090232849121 L12.545483589172363 12.709090232849121 C12.518200874328613 12.709090232849121 12.49091911315918 12.709091186523438 12.46363639831543 12.709091186523438 L12.46363639831543 12.709091186523438 C12.46363639831543 12.656881332397461 12.46363639831543 12.6046724319458 12.46363639831543 12.552462577819824 L12.46363639831543 12.552462577819824 C12.40192699432373 12.560745239257812 12.340218544006348 12.569026947021484 12.278509140014648 12.577309608459473 L12.278509140014648 12.577309608459473 C12.31307315826416 12.538090705871582 12.347636222839355 12.498872756958008 12.382200241088867 12.459653854370117 L12.382200241088867 12.459653854370117 C12.44020938873291 12.457681655883789 12.498218536376953 12.455708503723145 12.556227684020996 12.453736305236816 L12.556227684020996 12.453736305236816"></path></svg>