<svg xmlns="http://www.w3.org/2000/svg" viewBox="0.0 0.0 24.0 24.0" height="200px" width="200px"><path fill="none" stroke="black" stroke-width=".3" stroke-opacity="1.0"  filling="0" d="M12.470178604125977 10.665191650390625 L12.470178604125977 10.665191650390625 C12.902078628540039 10.811430931091309 11.935211181640625 10.819512367248535 11.855315208435059 10.844672203063965 L11.855315208435059 10.844672203063965 C12.086847305297852 10.989744186401367 12.296319007873535 10.910200119018555 12.562090873718262 10.909500122070312 L12.562090873718262 10.909500122070312 C12.322728157043457 11.16049861907959 12.064493179321289 10.924337387084961 11.807535171508789 11.111318588256836 L11.807535171508789 11.111318588256836 C12.108610153198242 11.188047409057617 12.335790634155273 11.06260871887207 12.559062004089355 11.298245429992676 L12.559062004089355 11.298245429992676 C12.236884117126465 11.25210189819336 11.925629615783691 11.340243339538574 11.613243103027344 11.24419116973877 L11.613243103027344 11.24419116973877 C11.610997200012207 11.1874361038208 11.608752250671387 11.130681991577148 11.60650634765625 11.07392692565918 L11.60650634765625 11.07392692565918 C11.647806167602539 11.034781455993652 11.689106941223145 10.995636940002441 11.730406761169434 10.956491470336914 L11.730406761169434 10.956491470336914 C11.694643020629883 10.935846328735352 11.658879280090332 10.915200233459473 11.623115539550781 10.89455509185791 L11.623115539550781 10.89455509185791 C11.81663990020752 10.619123458862305 12.160782814025879 10.730412483215332 12.470178604125977 10.665191650390625 L12.470178604125977 10.665191650390625"></path></svg>