<svg xmlns="http://www.w3.org/2000/svg" viewBox="0.0 0.0 24.0 24.0" height="200px" width="200px"><path fill="none" stroke="black" stroke-width=".3" stroke-opacity="1.0"  filling="0" d="M12.131753921508789 11.393671989440918 L12.131753921508789 11.393671989440918 C12.171854019165039 11.412407875061035 12.211954116821289 11.431144714355469 12.252054214477539 11.449880599975586 L12.252054214477539 11.449880599975586 C12.196808815002441 11.481817245483398 12.141562461853027 11.513753890991211 12.08631706237793 11.545690536499023 L12.08631706237793 11.545690536499023 C12.150308609008789 11.519990921020508 12.214299201965332 11.494290351867676 12.278290748596191 11.46859073638916 L12.278290748596191 11.46859073638916 C12.491942405700684 11.558548927307129 12.478475570678711 11.726944923400879 12.238036155700684 11.72749137878418 L12.238036155700684 11.72749137878418 C12.28852653503418 11.682690620422363 12.339017868041992 11.637890815734863 12.389508247375488 11.593090057373047 L12.389508247375488 11.593090057373047 C12.382062911987305 11.581880569458008 12.374617576599121 11.570672035217285 12.367172241210938 11.559462547302246 L12.367172241210938 11.559462547302246 C12.165027618408203 11.668353080749512 11.968114852905273 11.666535377502441 12.131753921508789 11.393671989440918 L12.131753921508789 11.393671989440918"></path></svg>