<svg xmlns="http://www.w3.org/2000/svg" viewBox="0.0 0.0 24.0 24.0" height="200px" width="200px"><path fill="none" stroke="black" stroke-width=".3" stroke-opacity="1.0"  filling="0" d="M12.42504596710205 12.983372688293457 L12.42504596710205 12.983372688293457 C12.464263916015625 12.998000144958496 12.5034818649292 13.012627601623535 12.542699813842773 13.027255058288574 L12.542699813842773 13.027255058288574 C12.523691177368164 13.068418502807617 12.504681587219238 13.10958194732666 12.485672950744629 13.150745391845703 L12.485672950744629 13.150745391845703 C12.505136489868164 13.173163414001465 12.5246000289917 13.195582389831543 12.544063568115234 13.218000411987305 L12.544063568115234 13.218000411987305 C12.251220703125 13.391035079956055 11.867621421813965 13.465314865112305 11.561972618103027 13.308436393737793 L11.561972618103027 13.308436393737793 C11.80178451538086 13.269968032836914 12.185064315795898 13.337300300598145 12.365400314331055 13.203627586364746 L12.365400314331055 13.203627586364746 C12.124723434448242 13.058810234069824 11.829828262329102 13.174993515014648 11.557772636413574 13.088891983032227 L11.557772636413574 13.088891983032227 C11.852987289428711 12.980240821838379 12.11165714263916 13.06027603149414 12.42504596710205 12.983372688293457 L12.42504596710205 12.983372688293457"></path></svg>