<svg xmlns="http://www.w3.org/2000/svg" viewBox="0.0 0.0 24.0 24.0" height="200px" width="200px"><path fill="none" stroke="black" stroke-width=".3" stroke-opacity="1.0"  filling="0" d="M12.419262886047363 12.559090614318848 L12.419262886047363 12.559090614318848 C12.52496337890625 12.581817626953125 12.63066291809082 12.604545593261719 12.736363410949707 12.627272605895996 L12.736363410949707 12.627272605895996 C12.73685359954834 12.676226615905762 12.721169471740723 12.734513282775879 12.681818008422852 12.763636589050293 L12.681818008422852 12.763636589050293 C12.681818008422852 12.733745574951172 12.681818008422852 12.70385456085205 12.681818008422852 12.67396354675293 L12.681818008422852 12.67396354675293 C12.597908973693848 12.667363166809082 12.513999938964844 12.66076374053955 12.43009090423584 12.654163360595703 L12.43009090423584 12.654163360595703 C12.441272735595703 12.69066333770752 12.452454566955566 12.727164268493652 12.46363639831543 12.763664245605469 L12.46363639831543 12.763664245605469 C12.42727279663086 12.763654708862305 12.390909194946289 12.763646125793457 12.354545593261719 12.763636589050293 L12.354545593261719 12.763636589050293 C12.376117706298828 12.695454597473145 12.397690773010254 12.627272605895996 12.419262886047363 12.559090614318848 L12.419262886047363 12.559090614318848"></path></svg>