<svg xmlns="http://www.w3.org/2000/svg" viewBox="0.0 0.0 24.0 24.0" height="200px" width="200px"><path fill="none" stroke="black" stroke-width=".3" stroke-opacity="1.0"  filling="0" d="M12.35020923614502 10.876853942871094 L12.35020923614502 10.876853942871094 C12.35020923614502 10.931754112243652 12.35020923614502 10.986654281616211 12.35020923614502 11.04155445098877 L12.35020923614502 11.04155445098877 C12.270700454711914 11.057863235473633 12.191190719604492 11.074172973632812 12.111681938171387 11.090481758117676 L12.111681938171387 11.090481758117676 C12.111936569213867 11.098172187805176 12.112191200256348 11.105863571166992 12.112445831298828 11.113554000854492 L12.112445831298828 11.113554000854492 C12.20067310333252 11.125972747802734 12.288899421691895 11.13839054107666 12.377126693725586 11.150809288024902 L12.377126693725586 11.150809288024902 C12.377126693725586 11.193109512329102 12.377126693725586 11.235408782958984 12.377126693725586 11.277709007263184 L12.377126693725586 11.277709007263184 C12.220623016357422 11.325602531433105 11.564406394958496 11.351295471191406 11.516753196716309 11.142461776733398 L11.516753196716309 11.142461776733398 C11.602890014648438 11.132489204406738 11.68902587890625 11.122516632080078 11.775162696838379 11.112544059753418 L11.775162696838379 11.112544059753418 C11.700740814208984 11.082992553710938 11.61853313446045 11.070748329162598 11.53846263885498 11.071554183959961 L11.53846263885498 11.071554183959961 C11.51638126373291 11.02410888671875 11.494298934936523 10.976662635803223 11.472217559814453 10.929217338562012 L11.472217559814453 10.929217338562012 C11.824621200561523 10.983320236206055 12.023721694946289 10.927045822143555 12.35020923614502 10.876853942871094 L12.35020923614502 10.876853942871094"></path></svg>