<svg xmlns="http://www.w3.org/2000/svg" viewBox="0.0 0.0 24.0 24.0" height="200px" width="200px"><path fill="none" stroke="black" stroke-width=".3" stroke-opacity="1.0"  filling="0" d="M12.126355171203613 11.75626277923584 L12.126355171203613 11.75626277923584 C12.169167518615723 11.831401824951172 12.140093803405762 11.937236785888672 12.101208686828613 12.014482498168945 L12.101208686828613 12.014482498168945 C12.17949390411377 12.012978553771973 12.246200561523438 11.929234504699707 12.27496337890625 11.856409072875977 L12.27496337890625 11.856409072875977 C12.457834243774414 12.148416519165039 11.633827209472656 12.140570640563965 12.126355171203613 11.75626277923584 L12.126355171203613 11.75626277923584"></path>
<path fill="none" stroke="black" stroke-width=".3" stroke-opacity="1.0"  filling="0" d="M12.086753845214844 11.82949161529541 L12.086753845214844 11.82949161529541 C12.093326568603516 11.835946083068848 12.099899291992188 11.842400550842285 12.10647201538086 11.848855018615723 L12.10647201538086 11.848855018615723 C12.094490051269531 11.88853645324707 12.08250904083252 11.928218841552734 12.070527076721191 11.967900276184082 L12.070527076721191 11.967900276184082 C12.058581352233887 11.970090866088867 12.046636581420898 11.972281455993652 12.034690856933594 11.974472045898438 L12.034690856933594 11.974472045898438 C12.022408485412598 11.924613952636719 12.043313980102539 11.856871604919434 12.086753845214844 11.82949161529541 L12.086753845214844 11.82949161529541"></path></svg>