<svg xmlns="http://www.w3.org/2000/svg" viewBox="0.0 0.0 24.0 24.0" height="200px" width="200px"><path fill="none" stroke="black" stroke-width=".3" stroke-opacity="1.0"  filling="0" d="M12.048681259155273 11.814136505126953 L12.048681259155273 11.814136505126953 C12.136072158813477 11.826570510864258 12.237693786621094 11.824868202209473 12.304499626159668 11.882563591003418 L12.304499626159668 11.882563591003418 C12.27806282043457 11.92168140411377 12.251626968383789 11.960800170898438 12.225190162658691 11.999917984008789 L12.225190162658691 11.999917984008789 C12.146078109741211 11.950576782226562 12.046299934387207 11.903111457824707 11.955681800842285 11.925055503845215 L11.955681800842285 11.925055503845215 C11.98622989654541 12.012392044067383 12.111806869506836 12.03966236114502 12.20380973815918 12.04947280883789 L12.20380973815918 12.04947280883789 C12.18596363067627 12.110836029052734 12.168118476867676 12.172200202941895 12.150272369384766 12.233563423156738 L12.150272369384766 12.233563423156738 C12.041418075561523 12.193418502807617 11.932562828063965 12.15327262878418 11.823708534240723 12.113127708435059 L11.823708534240723 12.113127708435059 C11.767498016357422 11.910995483398438 11.900245666503906 11.856144905090332 12.048681259155273 11.814136505126953 L12.048681259155273 11.814136505126953"></path></svg>