<svg xmlns="http://www.w3.org/2000/svg" viewBox="0.0 0.0 24.0 24.0" height="200px" width="200px"><path fill="none" stroke="black" stroke-width=".3" stroke-opacity="1.0"  filling="0" d="M12.188453674316406 12.427743911743164 L12.188453674316406 12.427743911743164 C12.246663093566895 12.47445297241211 12.304872512817383 12.521162033081055 12.363081932067871 12.56787109375 L12.363081932067871 12.56787109375 C12.07337760925293 12.76762580871582 11.651960372924805 12.952543258666992 11.48056411743164 12.51321792602539 L11.48056411743164 12.51321792602539 C11.632719039916992 12.49024486541748 11.784873008728027 12.467272758483887 11.937027931213379 12.444299697875977 L11.937027931213379 12.444299697875977 C11.937027931213379 12.516090393066406 11.937027931213379 12.587882041931152 11.937027931213379 12.659672737121582 L11.937027931213379 12.659672737121582 C12.022355079650879 12.644890785217285 12.107682228088379 12.630108833312988 12.193009376525879 12.615326881408691 L12.193009376525879 12.615326881408691 C12.184290885925293 12.557990074157715 12.175572395324707 12.500654220581055 12.166853904724121 12.443317413330078 L12.166853904724121 12.443317413330078 C12.174054145812988 12.438126564025879 12.181253433227539 12.432934761047363 12.188453674316406 12.427743911743164 L12.188453674316406 12.427743911743164"></path>
<path fill="none" stroke="black" stroke-width=".3" stroke-opacity="1.0"  filling="0" d="M11.81631851196289 12.540708541870117 L11.81631851196289 12.540708541870117 C11.801009178161621 12.58464527130127 11.785699844360352 12.628581047058105 11.770390510559082 12.672517776489258 L11.770390510559082 12.672517776489258 C11.71410846710205 12.654181480407715 11.65782642364502 12.635845184326172 11.601544380187988 12.617508888244629 L11.601544380187988 12.617508888244629 C11.673135757446289 12.59190845489502 11.74472713470459 12.566308975219727 11.81631851196289 12.540708541870117 L11.81631851196289 12.540708541870117"></path></svg>