<svg xmlns="http://www.w3.org/2000/svg" viewBox="0.0 0.0 24.0 24.0" height="200px" width="200px"><path fill="none" stroke="black" stroke-width=".3" stroke-opacity="1.0"  filling="0" d="M12.380589485168457 11.879181861877441 L12.380589485168457 11.879181861877441 C12.367335319519043 11.96150016784668 12.354080200195312 12.043818473815918 12.340826034545898 12.126136779785156 L12.340826034545898 12.126136779785156 C12.342262268066406 12.207673072814941 12.343698501586914 12.289209365844727 12.345134735107422 12.370745658874512 L12.345134735107422 12.370745658874512 C12.08137321472168 12.32487964630127 11.793396949768066 12.26902961730957 11.542034149169922 12.36117172241211 L11.542034149169922 12.36117172241211 C11.53076171875 12.359045028686523 11.519490242004395 12.356917381286621 11.508217811584473 12.354790687561035 L11.508217811584473 12.354790687561035 C11.49543571472168 12.298727035522461 11.482653617858887 12.242663383483887 11.469871520996094 12.186599731445312 L11.469871520996094 12.186599731445312 C11.721871376037598 12.186599731445312 11.973872184753418 12.186599731445312 12.225872039794922 12.186599731445312 L12.225872039794922 12.186599731445312 C12.250044822692871 12.153918266296387 12.27421760559082 12.121236801147461 12.29839038848877 12.088555335998535 L12.29839038848877 12.088555335998535 C12.12777042388916 11.9851713180542 11.413812637329102 12.139759063720703 11.525262832641602 11.918209075927734 L11.525262832641602 11.918209075927734 C11.844274520874023 11.917261123657227 12.087271690368652 11.882133483886719 12.380589485168457 11.879181861877441 L12.380589485168457 11.879181861877441"></path></svg>