<svg xmlns="http://www.w3.org/2000/svg" viewBox="0.0 0.0 24.0 24.0" height="200px" width="200px"><path fill="none" stroke="black" stroke-width=".3" stroke-opacity="1.0"  filling="0" d="M11.22005558013916 11.556899070739746 L11.22005558013916 11.556899070739746 C11.387640953063965 11.600647926330566 11.571969985961914 11.570277214050293 11.573837280273438 11.769845008850098 L11.573837280273438 11.769845008850098 C11.35350227355957 11.728174209594727 11.375262260437012 11.790389060974121 11.372836112976074 11.989090919494629 L11.372836112976074 11.989090919494629 C11.399518013000488 12.018163681030273 11.426199913024902 12.047236442565918 11.452881813049316 12.076309204101562 L11.452881813049316 12.076309204101562 C11.370265007019043 12.136679649353027 11.247657775878906 12.112528800964355 11.146581649780273 12.096599578857422 L11.146581649780273 12.096599578857422 C11.193218231201172 12.051009178161621 11.23985481262207 12.005417823791504 11.286491394042969 11.959827423095703 L11.286491394042969 11.959827423095703 C11.249791145324707 11.835409164428711 11.213091850280762 11.710989952087402 11.1763916015625 11.58657169342041 L11.1763916015625 11.58657169342041 C11.190946578979492 11.576681137084961 11.205500602722168 11.566789627075195 11.22005558013916 11.556899070739746 L11.22005558013916 11.556899070739746"></path></svg>