<svg xmlns="http://www.w3.org/2000/svg" viewBox="0.0 0.0 24.0 24.0" height="200px" width="200px"><path fill="none" stroke="black" stroke-width=".3" stroke-opacity="1.0"  filling="0" d="M11.972808837890625 11.742218971252441 L11.972808837890625 11.742218971252441 C12.06093692779541 11.760436058044434 12.16597843170166 11.754339218139648 12.23293685913086 11.814464569091797 L12.23293685913086 11.814464569091797 C12.125492095947266 12.093944549560547 12.042448043823242 12.101369857788086 11.757655143737793 12.03087329864502 L11.757655143737793 12.03087329864502 C11.76445484161377 11.99194622039795 11.771255493164062 11.953018188476562 11.778055191040039 11.914091110229492 L11.778055191040039 11.914091110229492 C11.862709999084473 11.953045845031738 11.94736385345459 11.991999626159668 12.032018661499023 12.030954360961914 L12.032018661499023 12.030954360961914 C12.0556640625 12.008381843566895 12.079310417175293 11.985809326171875 12.10295581817627 11.963236808776855 L12.10295581817627 11.963236808776855 C12.01741886138916 11.916672706604004 11.93188190460205 11.870109558105469 11.846344947814941 11.823545455932617 L11.846344947814941 11.823545455932617 C11.88849925994873 11.796436309814453 11.930654525756836 11.769328117370605 11.972808837890625 11.742218971252441 L11.972808837890625 11.742218971252441"></path></svg>