<svg xmlns="http://www.w3.org/2000/svg" viewBox="0.0 0.0 24.0 24.0" height="200px" width="200px"><path fill="none" stroke="black" stroke-width=".3" stroke-opacity="1.0"  filling="0" d="M10.376945495605469 13.033447265625 L10.376945495605469 13.033447265625 C10.529590606689453 13.04416561126709 10.682236671447754 13.054883003234863 10.834881782531738 13.065601348876953 L10.834881782531738 13.065601348876953 C10.700272560119629 13.106992721557617 10.565664291381836 13.148383140563965 10.431055068969727 13.189774513244629 L10.431055068969727 13.189774513244629 C10.821504592895508 13.368721961975098 11.260544776916504 13.275362014770508 11.66388988494873 13.367345809936523 L11.66388988494873 13.367345809936523 C12.398102760314941 13.404528617858887 13.70235824584961 13.307119369506836 14.289681434631348 13.813063621520996 L14.289681434631348 13.813063621520996 C14.107181549072266 13.817099571228027 13.924680709838867 13.821136474609375 13.742180824279785 13.825172424316406 L13.742180824279785 13.825172424316406 C13.843153953552246 13.80109977722168 13.94412612915039 13.777027130126953 14.045099258422852 13.752954483032227 L14.045099258422852 13.752954483032227 C13.387681007385254 13.426334381103516 12.400017738342285 13.58609390258789 11.671525955200195 13.515519142150879 L11.671525955200195 13.515519142150879 C11.43846607208252 13.65069580078125 9.967301368713379 13.37755298614502 10.376945495605469 13.033447265625 L10.376945495605469 13.033447265625"></path></svg>