<svg xmlns="http://www.w3.org/2000/svg" viewBox="0.0 0.0 24.0 24.0" height="200px" width="200px"><path fill="none" stroke="black" stroke-width=".3" stroke-opacity="1.0"  filling="0" d="M12.185235977172852 11.840591430664062 L12.185235977172852 11.840591430664062 C12.155905723571777 11.905084609985352 12.131611824035645 11.972002983093262 12.11146354675293 12.03992748260498 L12.11146354675293 12.03992748260498 C12.172658920288086 11.99386215209961 12.232011795043945 11.945276260375977 12.2896089553833 11.894783020019531 L12.2896089553833 11.894783020019531 C12.258917808532715 11.983119010925293 12.228227615356445 12.071455001831055 12.19753646850586 12.159790992736816 L12.19753646850586 12.159790992736816 C12.09094524383545 12.080336570739746 11.984354972839355 12.000882148742676 11.877763748168945 11.921427726745605 L11.877763748168945 11.921427726745605 C11.841736793518066 11.930481910705566 11.805708885192871 11.939537048339844 11.769681930541992 11.948591232299805 L11.769681930541992 11.948591232299805 C11.758585929870605 11.90101146697998 11.852972030639648 11.888949394226074 11.901654243469238 11.884828567504883 L11.901654243469238 11.884828567504883 C11.99618148803711 11.87008285522461 12.09070873260498 11.855337142944336 12.185235977172852 11.840591430664062 L12.185235977172852 11.840591430664062"></path>
<path fill="none" stroke="black" stroke-width=".3" stroke-opacity="1.0"  filling="0" d="M12.000191688537598 11.90566349029541 L12.000191688537598 11.90566349029541 C12.034146308898926 11.912172317504883 12.068099975585938 11.918682098388672 12.102054595947266 11.925190925598145 L12.102054595947266 11.925190925598145 C12.072927474975586 11.96231746673584 12.043800354003906 11.999444961547852 12.014673233032227 12.036571502685547 L12.014673233032227 12.036571502685547 C12.007037162780762 12.036272048950195 11.99940013885498 12.035971641540527 11.991764068603516 12.035672187805176 L11.991764068603516 12.035672187805176 C11.994573593139648 11.99233627319336 11.997382164001465 11.948999404907227 12.000191688537598 11.90566349029541 L12.000191688537598 11.90566349029541"></path></svg>