<svg xmlns="http://www.w3.org/2000/svg" viewBox="0.0 0.0 24.0 24.0" height="200px" width="200px"><path fill="none" stroke="black" stroke-width=".3" stroke-opacity="1.0"  filling="0" d="M10.547863006591797 15.356724739074707 L10.547863006591797 15.356724739074707 C11.0730619430542 15.408281326293945 12.435026168823242 15.729040145874023 12.885981559753418 15.51736068725586 L12.885981559753418 15.51736068725586 C12.755317687988281 15.486851692199707 12.624654769897461 15.456341743469238 12.493990898132324 15.425832748413086 L12.493990898132324 15.425832748413086 C12.772554397583008 15.272257804870605 13.486098289489746 15.506661415100098 13.031835556030273 15.701830863952637 L13.031835556030273 15.701830863952637 C13.114599227905273 15.754931449890137 13.197362899780273 15.80803108215332 13.280126571655273 15.86113166809082 L13.280126571655273 15.86113166809082 C12.896062850952148 16.2166690826416 11.114782333374023 16.24312973022461 11.554062843322754 15.599372863769531 L11.554062843322754 15.599372863769531 C11.39858627319336 15.589679718017578 10.341767311096191 15.772941589355469 10.324908256530762 15.410478591918945 L10.324908256530762 15.410478591918945 C10.399226188659668 15.392560958862305 10.47354507446289 15.374642372131348 10.547863006591797 15.356724739074707 L10.547863006591797 15.356724739074707"></path>
<path fill="none" stroke="black" stroke-width=".3" stroke-opacity="1.0"  filling="0" d="M11.813400268554688 15.65380859375 L11.813400268554688 15.65380859375 C12.21424674987793 15.681899070739746 12.627920150756836 15.69753360748291 13.004972457885742 15.836453437805176 L13.004972457885742 15.836453437805176 C13.005636215209961 15.849926948547363 13.00629997253418 15.863399505615234 13.006963729858398 15.876873016357422 L13.006963729858398 15.876873016357422 C12.610270500183105 16.01973533630371 12.029675483703613 15.92370891571045 11.633481979370117 15.752889633178711 L11.633481979370117 15.752889633178711 C11.69345474243164 15.719862937927246 11.753427505493164 15.686835289001465 11.813400268554688 15.65380859375 L11.813400268554688 15.65380859375"></path></svg>