<svg xmlns="http://www.w3.org/2000/svg" viewBox="0.0 0.0 24.0 24.0" height="200px" width="200px"><path fill="none" stroke="black" stroke-width=".3" stroke-opacity="1.0"  filling="0" d="M12.470154762268066 11.92385482788086 L12.470154762268066 11.92385482788086 C12.522772789001465 11.92385482788086 12.57539176940918 11.92385482788086 12.628009796142578 11.92385482788086 L12.628009796142578 11.92385482788086 C12.429394721984863 12.499923706054688 12.116618156433105 13.187057495117188 13.00969123840332 12.900845527648926 L13.00969123840332 12.900845527648926 C13.082986831665039 12.54604721069336 13.182373046875 11.925080299377441 13.688454627990723 12.21649169921875 L13.688454627990723 12.21649169921875 C13.511175155639648 12.670599937438965 12.72727108001709 13.311762809753418 13.72240924835205 13.109427452087402 L13.72240924835205 13.109427452087402 C13.486518859863281 13.072854995727539 13.250627517700195 13.03628158569336 13.014737129211426 12.999709129333496 L13.014737129211426 12.999709129333496 C12.06438159942627 13.261929512023926 12.237443923950195 12.673675537109375 12.470154762268066 11.92385482788086 L12.470154762268066 11.92385482788086"></path>
<path fill="none" stroke="black" stroke-width=".3" stroke-opacity="1.0"  filling="0" d="M13.562536239624023 12.15580940246582 L13.562536239624023 12.15580940246582 C13.591459274291992 12.433853149414062 13.428460121154785 12.708447456359863 13.122953414916992 12.804545402526855 L13.122953414916992 12.804545402526855 C13.26948070526123 12.588299751281738 13.416008949279785 12.372055053710938 13.562536239624023 12.15580940246582 L13.562536239624023 12.15580940246582"></path></svg>