<svg xmlns="http://www.w3.org/2000/svg" viewBox="0.0 0.0 24.0 24.0" height="200px" width="200px"><path fill="none" stroke="black" stroke-width=".3" stroke-opacity="1.0"  filling="0" d="M11.824227333068848 11.99869155883789 L11.824227333068848 11.99869155883789 C11.983290672302246 12.045246124267578 12.142354965209961 12.091800689697266 12.30141830444336 12.138355255126953 L12.30141830444336 12.138355255126953 C12.256109237670898 12.2422456741333 12.210800170898438 12.346137046813965 12.165491104125977 12.450027465820312 L12.165491104125977 12.450027465820312 C12.062736511230469 12.406445503234863 11.959980964660645 12.362863540649414 11.857226371765137 12.319281578063965 L11.857226371765137 12.319281578063965 C11.887372016906738 12.24874496459961 11.917518615722656 12.17820930480957 11.947664260864258 12.107672691345215 L11.947664260864258 12.107672691345215 C11.892581939697266 12.114317893981934 11.83750057220459 12.120964050292969 11.782418251037598 12.127609252929688 L11.782418251037598 12.127609252929688 C11.796354293823242 12.084636688232422 11.810291290283203 12.041664123535156 11.824227333068848 11.99869155883789 L11.824227333068848 11.99869155883789"></path>
<path fill="none" stroke="black" stroke-width=".3" stroke-opacity="1.0"  filling="0" d="M12.026890754699707 12.17410945892334 L12.026890754699707 12.17410945892334 C12.402627944946289 12.454874992370605 11.835235595703125 12.37801742553711 12.026890754699707 12.17410945892334 L12.026890754699707 12.17410945892334"></path></svg>