<svg xmlns="http://www.w3.org/2000/svg" viewBox="0.0 0.0 24.0 24.0" height="200px" width="200px"><path fill="none" stroke="black" stroke-width=".3" stroke-opacity="1.0"  filling="0" d="M12.348165512084961 11.508655548095703 L12.348165512084961 11.508655548095703 C12.351110458374023 11.521655082702637 12.354055404663086 11.53465461730957 12.357000350952148 11.547654151916504 L12.357000350952148 11.547654151916504 C12.246936798095703 11.60915470123291 12.136873245239258 11.670654296875 12.026809692382812 11.732154846191406 L12.026809692382812 11.732154846191406 C12.141221046447754 11.753561019897461 12.255095481872559 11.78231430053711 12.363546371459961 11.824583053588867 L12.363546371459961 11.824583053588867 C12.091492652893066 11.92031192779541 11.799592971801758 11.918343544006348 11.538382530212402 11.800528526306152 L11.538382530212402 11.800528526306152 C11.632144927978516 11.432106018066406 12.074886322021484 11.548971176147461 12.348165512084961 11.508655548095703 L12.348165512084961 11.508655548095703"></path>
<path fill="none" stroke="black" stroke-width=".3" stroke-opacity="1.0"  filling="0" d="M11.814190864562988 11.578036308288574 L11.814190864562988 11.578036308288574 C11.964527130126953 11.828951835632324 11.679572105407715 11.805965423583984 11.773582458496094 11.58250904083252 L11.773582458496094 11.58250904083252 C11.787118911743164 11.581018447875977 11.800654411315918 11.579526901245117 11.814190864562988 11.578036308288574 L11.814190864562988 11.578036308288574"></path></svg>