<svg xmlns="http://www.w3.org/2000/svg" viewBox="0.0 0.0 24.0 24.0" height="200px" width="200px"><path fill="none" stroke="black" stroke-width=".3" stroke-opacity="1.0"  filling="0" d="M11.658926963806152 11.73332691192627 L11.658926963806152 11.73332691192627 C11.713663101196289 11.758563041687012 11.768399238586426 11.78380012512207 11.823135375976562 11.809036254882812 L11.823135375976562 11.809036254882812 C11.979803085327148 11.809917449951172 12.136869430541992 11.822378158569336 12.291626930236816 11.846781730651855 L12.291626930236816 11.846781730651855 C12.455820083618164 11.67337703704834 12.542109489440918 11.718488693237305 12.545100212097168 11.944199562072754 L12.545100212097168 11.944199562072754 C12.10930347442627 11.973892211914062 11.633668899536133 11.950592994689941 11.21833610534668 11.817708969116211 L11.21833610534668 11.817708969116211 C11.32902717590332 11.79277229309082 11.439717292785645 11.767836570739746 11.550408363342285 11.742899894714355 L11.550408363342285 11.742899894714355 C11.539535522460938 11.76370906829834 11.52866268157959 11.784518241882324 11.517789840698242 11.805327415466309 L11.517789840698242 11.805327415466309 C11.55541706085205 11.805327415466309 11.593045234680176 11.805327415466309 11.630672454833984 11.805327415466309 L11.630672454833984 11.805327415466309 C11.640090942382812 11.781327247619629 11.649508476257324 11.75732707977295 11.658926963806152 11.73332691192627 L11.658926963806152 11.73332691192627"></path></svg>