<svg xmlns="http://www.w3.org/2000/svg" viewBox="0.0 0.0 24.0 24.0" height="200px" width="200px"><path fill="none" stroke="black" stroke-width=".3" stroke-opacity="1.0"  filling="0" d="M12.334989547729492 11.447126388549805 L12.334989547729492 11.447126388549805 C12.395617485046387 11.455254554748535 12.456244468688965 11.46338176727295 12.51687240600586 11.47150993347168 L12.51687240600586 11.47150993347168 C12.410871505737305 11.809585571289062 11.946802139282227 11.502010345458984 11.66612720489502 11.613245010375977 L11.66612720489502 11.613245010375977 C11.829353332519531 11.7088623046875 12.511171340942383 11.594621658325195 12.513134956359863 11.7485990524292 C12.515722274780273 11.951502799987793 11.671806335449219 11.826591491699219 11.494607925415039 11.81787109375 L11.494607925415039 11.81787109375 C11.515362739562988 11.782262802124023 11.536116600036621 11.74665355682373 11.55687141418457 11.711045265197754 L11.55687141418457 11.711045265197754 C11.535371780395508 11.652117729187012 11.513871192932129 11.59319019317627 11.492371559143066 11.534262657165527 L11.492371559143066 11.534262657165527 C11.77554702758789 11.48305606842041 12.051414489746094 11.489457130432129 12.334989547729492 11.447126388549805 L12.334989547729492 11.447126388549805"></path></svg>