<svg xmlns="http://www.w3.org/2000/svg" viewBox="0.0 0.0 24.0 24.0" height="200px" width="200px"><path fill="none" stroke="black" stroke-width=".3" stroke-opacity="1.0"  filling="0" d="M12.34600830078125 11.008036613464355 L12.34600830078125 11.008036613464355 C12.40246295928955 11.054454803466797 12.458917617797852 11.100872993469238 12.515372276306152 11.14729118347168 L12.515372276306152 11.14729118347168 C12.271989822387695 11.197084426879883 12.01831340789795 11.140789031982422 11.770472526550293 11.12378215789795 L11.770472526550293 11.12378215789795 C11.757164001464844 11.15273666381836 11.743854522705078 11.18169116973877 11.730545997619629 11.21064567565918 L11.730545997619629 11.21064567565918 C11.987373352050781 11.219627380371094 12.244199752807617 11.228609085083008 12.50102710723877 11.237590789794922 L12.50102710723877 11.237590789794922 C12.234135627746582 11.48873233795166 11.839072227478027 11.467584609985352 11.513127326965332 11.35712718963623 L11.513127326965332 11.35712718963623 C11.526908874511719 11.320563316345215 11.540691375732422 11.284000396728516 11.554472923278809 11.2474365234375 L11.554472923278809 11.2474365234375 C11.53935432434082 11.215018272399902 11.524236679077148 11.182600021362305 11.50911808013916 11.150181770324707 L11.50911808013916 11.150181770324707 C11.792967796325684 11.02374267578125 12.046427726745605 11.06300163269043 12.34600830078125 11.008036613464355 L12.34600830078125 11.008036613464355"></path></svg>