<svg xmlns="http://www.w3.org/2000/svg" viewBox="0.0 0.0 24.0 24.0" height="200px" width="200px"><path fill="none" stroke="black" stroke-width=".3" stroke-opacity="1.0"  filling="0" d="M12.578863143920898 9.904417037963867 L12.578863143920898 9.904417037963867 C12.328845977783203 10.187952041625977 12.042485237121582 9.869667053222656 11.753127098083496 10.074872016906738 L11.753127098083496 10.074872016906738 C12.019547462463379 10.277647018432617 12.34261417388916 10.067906379699707 12.647154808044434 10.270172119140625 L12.647154808044434 10.270172119140625 C12.341726303100586 10.281745910644531 11.99673843383789 10.127283096313477 11.754627227783203 10.342308044433594 L11.754627227783203 10.342308044433594 C12.043072700500488 10.346517562866211 12.331518173217773 10.350727081298828 12.619963645935059 10.354936599731445 L12.619963645935059 10.354936599731445 C12.388178825378418 10.584308624267578 11.86743450164795 10.556947708129883 11.561590194702148 10.447635650634766 L11.561590194702148 10.447635650634766 C11.579181671142578 10.431617736816406 11.596772193908691 10.41559886932373 11.614363670349121 10.399580955505371 L11.614363670349121 10.399580955505371 C11.633135795593262 10.328207969665527 11.651908874511719 10.2568359375 11.67068099975586 10.185462951660156 L11.67068099975586 10.185462951660156 C11.623578071594238 10.153995513916016 11.576425552368164 10.122600555419922 11.529217720031738 10.091290473937988 L11.529217720031738 10.091290473937988 C11.838337898254395 9.859246253967285 12.195695877075195 9.920528411865234 12.578863143920898 9.904417037963867 L12.578863143920898 9.904417037963867"></path></svg>