<svg xmlns="http://www.w3.org/2000/svg" viewBox="0.0 0.0 24.0 24.0" height="200px" width="200px"><path fill="none" stroke="black" stroke-width=".3" stroke-opacity="1.0"  filling="0" d="M11.976845741271973 12.402682304382324 L11.976845741271973 12.402682304382324 C12.017455101013184 12.49444580078125 12.058063507080078 12.586209297180176 12.098672866821289 12.677972793579102 L12.098672866821289 12.677972793579102 C12.163736343383789 12.677972793579102 12.228800773620605 12.677972793579102 12.293864250183105 12.677972793579102 L12.293864250183105 12.677972793579102 C12.51522159576416 12.532502174377441 12.469970703125 12.628814697265625 12.513435363769531 12.83048152923584 L12.513435363769531 12.83048152923584 C12.4520902633667 12.817327499389648 12.390745162963867 12.80417251586914 12.329400062561035 12.79101848602295 L12.329400062561035 12.79101848602295 C12.128409385681152 12.79101848602295 11.927417755126953 12.79101848602295 11.72642707824707 12.79101848602295 L11.72642707824707 12.79101848602295 C11.691327095031738 12.831708908081055 11.656227111816406 12.872400283813477 11.621127128601074 12.913090705871582 L11.621127128601074 12.913090705871582 C11.592072486877441 12.707757949829102 11.770208358764648 12.420197486877441 11.976845741271973 12.402682304382324 L11.976845741271973 12.402682304382324"></path>
<path fill="none" stroke="black" stroke-width=".3" stroke-opacity="1.0"  filling="0" d="M11.683799743652344 12.485208511352539 L11.683799743652344 12.485208511352539 C11.777263641357422 12.492426872253418 11.8707275390625 12.49964427947998 11.964191436767578 12.50686264038086 L11.964191436767578 12.50686264038086 C11.970064163208008 12.561762809753418 11.975935935974121 12.61666202545166 11.98180866241455 12.671562194824219 L11.98180866241455 12.671562194824219 C11.865137100219727 12.682238578796387 11.709491729736328 12.599515914916992 11.683799743652344 12.485208511352539 L11.683799743652344 12.485208511352539"></path></svg>