<svg xmlns="http://www.w3.org/2000/svg" viewBox="0.0 0.0 24.0 24.0" height="200px" width="200px"><path fill="none" stroke="black" stroke-width=".3" stroke-opacity="1.0"  filling="0" d="M12.31434440612793 10.928374290466309 L12.31434440612793 10.928374290466309 C12.381880760192871 10.93550968170166 12.449418067932129 10.942646026611328 12.51695442199707 10.94978141784668 L12.51695442199707 10.94978141784668 C12.411958694458008 11.271185874938965 11.999022483825684 10.914793014526367 11.777481079101562 11.128718376159668 L11.777481079101562 11.128718376159668 C12.018332481384277 11.138909339904785 12.259160995483398 11.149765014648438 12.50007152557373 11.158445358276367 L12.50007152557373 11.158445358276367 C12.48659896850586 11.211345672607422 12.473126411437988 11.26424503326416 12.459653854370117 11.317145347595215 L12.459653854370117 11.317145347595215 C12.166275978088379 11.279617309570312 11.867635726928711 11.271849632263184 11.572663307189941 11.293527603149414 L11.572663307189941 11.293527603149414 C11.577008247375488 11.220572471618652 11.581354141235352 11.147618293762207 11.585699081420898 11.074663162231445 L11.585699081420898 11.074663162231445 C11.839800834655762 10.939274787902832 12.036808967590332 10.944177627563477 12.31434440612793 10.928374290466309 L12.31434440612793 10.928374290466309"></path></svg>