<svg xmlns="http://www.w3.org/2000/svg" viewBox="0.0 0.0 24.0 24.0" height="200px" width="200px"><path fill="none" stroke="black" stroke-width=".3" stroke-opacity="1.0"  filling="0" d="M11.683144569396973 11.136953353881836 L11.683144569396973 11.136953353881836 C11.685408592224121 11.14593505859375 11.687671661376953 11.15491771697998 11.689935684204102 11.163899421691895 L11.689935684204102 11.163899421691895 C11.652408599853516 11.189781188964844 11.61488151550293 11.215662956237793 11.577354431152344 11.241544723510742 L11.577354431152344 11.241544723510742 C11.640283584594727 11.246445655822754 12.292814254760742 11.194573402404785 12.428645133972168 11.217025756835938 L12.428645133972168 11.217025756835938 C12.428645133972168 11.28039836883545 12.428645133972168 11.343771934509277 12.428645133972168 11.407144546508789 L12.428645133972168 11.407144546508789 C12.0634183883667 11.359569549560547 11.699010848999023 11.427444458007812 11.345317840576172 11.357999801635742 L11.345317840576172 11.357999801635742 C11.334609031677246 11.30519962310791 11.323899269104004 11.252399444580078 11.313190460205078 11.199599266052246 L11.313190460205078 11.199599266052246 C11.436508178710938 11.178717613220215 11.559826850891113 11.157835006713867 11.683144569396973 11.136953353881836 L11.683144569396973 11.136953353881836"></path></svg>