<svg xmlns="http://www.w3.org/2000/svg" viewBox="0.0 0.0 24.0 24.0" height="200px" width="200px"><path fill="none" stroke="black" stroke-width=".3" stroke-opacity="1.0"  filling="0" d="M12.507736206054688 12.5650634765625 L12.507736206054688 12.5650634765625 C12.512036323547363 12.61481761932373 12.516335487365723 12.664572715759277 12.520635604858398 12.714326858520508 L12.520635604858398 12.714326858520508 C12.237451553344727 12.68801498413086 11.95109748840332 12.732192039489746 11.66926383972168 12.770344734191895 L11.66926383972168 12.770344734191895 C12.008695602416992 12.872990608215332 12.316397666931152 12.674493789672852 12.534110069274902 12.949909210205078 L12.534110069274902 12.949909210205078 C12.262696266174316 12.936436653137207 11.989723205566406 12.942549705505371 11.719037055969238 12.966545104980469 L11.719037055969238 12.966545104980469 C12.04707145690918 13.09627628326416 12.314352035522461 12.909637451171875 12.558218002319336 13.179081916809082 L12.558218002319336 13.179081916809082 C12.314687728881836 13.148489952087402 11.414834022521973 13.36665153503418 11.559353828430176 13.051854133605957 L11.559353828430176 13.051854133605957 C11.572890281677246 12.992690086364746 11.586427688598633 12.933526992797852 11.599964141845703 12.87436294555664 L11.599964141845703 12.87436294555664 C11.55420970916748 12.836153984069824 11.508454322814941 12.797945022583008 11.462699890136719 12.759736061096191 L11.462699890136719 12.759736061096191 C11.791983604431152 12.563762664794922 12.135801315307617 12.611041069030762 12.507736206054688 12.5650634765625 L12.507736206054688 12.5650634765625"></path></svg>