<svg xmlns="http://www.w3.org/2000/svg" viewBox="0.0 0.0 24.0 24.0" height="200px" width="200px"><path fill="none" stroke="black" stroke-width=".3" stroke-opacity="1.0"  filling="0" d="M11.318181991577148 11.890909194946289 L11.318181991577148 11.890909194946289 C11.417365074157715 11.95097827911377 11.416913986206055 12.11836051940918 11.390291213989258 12.231218338012695 L11.390291213989258 12.231218338012695 C11.445818901062012 12.2103271484375 11.50134563446045 12.189435958862305 11.556873321533203 12.16854476928711 L11.556873321533203 12.16854476928711 C11.532618522644043 12.234227180480957 11.5083646774292 12.299908638000488 11.484109878540039 12.365591049194336 L11.484109878540039 12.365591049194336 C11.428800582885742 12.334627151489258 11.373491287231445 12.30366325378418 11.318181991577148 12.272699356079102 L11.318181991577148 12.272699356079102 C11.318181991577148 12.236335754394531 11.318181991577148 12.199972152709961 11.318181991577148 12.16360855102539 L11.318181991577148 12.16360855102539 C11.361800193786621 12.136608123779297 11.405418395996094 12.10960865020752 11.449036598205566 12.082608222961426 L11.449036598205566 12.082608222961426 C11.405418395996094 12.045971870422363 11.361800193786621 12.009336471557617 11.318181991577148 11.972700119018555 L11.318181991577148 11.972700119018555 C11.318181991577148 11.945436477661133 11.318181991577148 11.918172836303711 11.318181991577148 11.890909194946289 L11.318181991577148 11.890909194946289"></path></svg>