<svg xmlns="http://www.w3.org/2000/svg" viewBox="0.0 0.0 24.0 24.0" height="200px" width="200px"><path fill="none" stroke="black" stroke-width=".3" stroke-opacity="1.0"  filling="0" d="M12.582709312438965 13.272927284240723 L12.582709312438965 13.272927284240723 C12.74148178100586 13.308526992797852 12.90025520324707 13.344127655029297 13.059027671813965 13.379727363586426 L13.059027671813965 13.379727363586426 C13.059027671813965 13.426173210144043 13.059027671813965 13.472618103027344 13.059027671813965 13.519063949584961 L13.059027671813965 13.519063949584961 C13.01046371459961 13.550336837768555 12.96190071105957 13.581609725952148 12.913336753845215 13.612882614135742 L12.913336753845215 13.612882614135742 C13.653681755065918 14.402679443359375 10.14021110534668 13.439291954040527 12.394638061523438 13.746682167053223 C12.543322563171387 13.766955375671387 12.694160461425781 13.784329414367676 12.843928337097168 13.774965286254883 L12.843928337097168 13.774965286254883 C12.846519470214844 13.762401580810547 12.849109649658203 13.749836921691895 12.851700782775879 13.737273216247559 L12.851700782775879 13.737273216247559 C12.699009895324707 13.62308406829834 11.708246231079102 13.475950241088867 11.705808639526367 13.392900466918945 C11.699188232421875 13.167312622070312 12.71969985961914 13.414606094360352 12.855027198791504 13.415400505065918 L12.855027198791504 13.415400505065918 C12.764254570007324 13.36790943145752 12.673481941223145 13.320418357849121 12.582709312438965 13.272927284240723 L12.582709312438965 13.272927284240723"></path></svg>