<svg xmlns="http://www.w3.org/2000/svg" viewBox="0.0 0.0 24.0 24.0" height="200px" width="200px"><path fill="none" stroke="black" stroke-width=".3" stroke-opacity="1.0"  filling="0" d="M12.013799667358398 12.083891868591309 L12.013799667358398 12.083891868591309 C12.02139949798584 12.11751937866211 12.028999328613281 12.151145935058594 12.036599159240723 12.184773445129395 L12.036599159240723 12.184773445129395 C12.35775375366211 12.223264694213867 12.678908348083496 12.261754989624023 13.000062942504883 12.300246238708496 L13.000062942504883 12.300246238708496 C13.003599166870117 12.287046432495117 13.007136344909668 12.273846626281738 13.010672569274902 12.26064682006836 L13.010672569274902 12.26064682006836 C12.90526294708252 12.218246459960938 12.799854278564453 12.175846099853516 12.69444465637207 12.133445739746094 L12.69444465637207 12.133445739746094 C12.901224136352539 12.004210472106934 13.39563274383545 12.297079086303711 13.133617401123047 12.436064720153809 C12.754581451416016 12.637124061584473 12.268665313720703 12.295097351074219 11.840618133544922 12.455018043518066 L11.840618133544922 12.455018043518066 C11.591340065002441 12.186656951904297 11.441658020019531 12.09745979309082 12.013799667358398 12.083891868591309 L12.013799667358398 12.083891868591309"></path></svg>