<svg xmlns="http://www.w3.org/2000/svg" viewBox="0.0 0.0 24.0 24.0" height="200px" width="200px"><path fill="none" stroke="black" stroke-width=".3" stroke-opacity="1.0"  filling="0" d="M12.06766414642334 13.236546516418457 L12.06766414642334 13.236546516418457 C12.106481552124023 13.338265419006348 12.273162841796875 13.391802787780762 12.373827934265137 13.350327491760254 L12.373827934265137 13.350327491760254 C12.346355438232422 13.316246032714844 12.31888198852539 13.282164573669434 12.291409492492676 13.248083114624023 L12.291409492492676 13.248083114624023 C13.0654935836792 13.38576602935791 11.934030532836914 13.619210243225098 11.483918190002441 13.419054985046387 L11.483918190002441 13.419054985046387 C11.641886711120605 13.290178298950195 11.863870620727539 13.24213981628418 12.06766414642334 13.236546516418457 L12.06766414642334 13.236546516418457"></path>
<path fill="none" stroke="black" stroke-width=".3" stroke-opacity="1.0"  filling="0" d="M11.880599975585938 13.322617530822754 L11.880599975585938 13.322617530822754 C11.895273208618164 13.358126640319824 11.90994644165039 13.393634796142578 11.924619674682617 13.429143905639648 L11.924619674682617 13.429143905639648 C11.916728019714355 13.437544822692871 11.90883731842041 13.445944786071777 11.900945663452148 13.454345703125 L11.900945663452148 13.454345703125 C11.82108211517334 13.434609413146973 11.741218566894531 13.414872169494629 11.661355018615723 13.395135879516602 L11.661355018615723 13.395135879516602 C11.734436988830566 13.370963096618652 11.807518005371094 13.346790313720703 11.880599975585938 13.322617530822754 L11.880599975585938 13.322617530822754"></path></svg>