<svg xmlns="http://www.w3.org/2000/svg" viewBox="0.0 0.0 24.0 24.0" height="200px" width="200px"><path fill="none" stroke="black" stroke-width=".3" stroke-opacity="1.0"  filling="0" d="M12.434072494506836 11.677118301391602 L12.434072494506836 11.677118301391602 C12.434072494506836 11.725590705871582 12.434072494506836 11.774064064025879 12.434072494506836 11.82253646850586 L12.434072494506836 11.82253646850586 C12.19194507598877 11.82253646850586 11.94981861114502 11.82253646850586 11.707691192626953 11.82253646850586 L11.707691192626953 11.82253646850586 C11.897799491882324 12.02988338470459 12.197271347045898 11.903875350952148 12.460199356079102 11.957862854003906 L12.460199356079102 11.957862854003906 C12.238539695739746 12.074213027954102 11.970434188842773 12.071751594543457 11.720671653747559 12.0887451171875 L11.720671653747559 12.0887451171875 C11.850520133972168 12.192703247070312 12.505777359008789 12.041645050048828 12.457008361816406 12.246135711669922 C12.419049263000488 12.40530014038086 11.678877830505371 12.289974212646484 11.525099754333496 12.225653648376465 L11.525099754333496 12.225653648376465 C11.548890113830566 12.2037992477417 11.572681427001953 12.181944847106934 11.596471786499023 12.160090446472168 L11.596471786499023 12.160090446472168 C11.573753356933594 12.132854461669922 11.55103588104248 12.10561752319336 11.52831745147705 12.078381538391113 L11.52831745147705 12.078381538391113 C11.567490577697754 12.04240894317627 11.60666275024414 12.00643539428711 11.645835876464844 11.970462799072266 L11.645835876464844 11.970462799072266 C11.602272033691406 11.94059944152832 11.558709144592285 11.910735130310059 11.515145301818848 11.880871772766113 L11.515145301818848 11.880871772766113 C11.80402660369873 11.69791316986084 12.083843231201172 11.683428764343262 12.434072494506836 11.677118301391602 L12.434072494506836 11.677118301391602"></path></svg>