<svg xmlns="http://www.w3.org/2000/svg" viewBox="0.0 0.0 24.0 24.0" height="200px" width="200px"><path fill="none" stroke="black" stroke-width=".3" stroke-opacity="1.0"  filling="0" d="M12.150245666503906 11.764636039733887 L12.150245666503906 11.764636039733887 C12.205499649047852 11.797136306762695 12.260754585266113 11.829635620117188 12.316008567810059 11.862135887145996 L12.316008567810059 11.862135887145996 C12.245258331298828 11.948139190673828 11.666751861572266 12.443602561950684 11.651644706726074 11.972427368164062 C11.64271068572998 11.693793296813965 12.027594566345215 11.817757606506348 12.027654647827148 12.053973197937012 L12.027654647827148 12.053973197937012 C12.089009284973145 12.021218299865723 12.15036392211914 11.98846435546875 12.211718559265137 11.955709457397461 L12.211718559265137 11.955709457397461 C12.191227912902832 11.89201831817627 12.170736312866211 11.828327178955078 12.150245666503906 11.764636039733887 L12.150245666503906 11.764636039733887"></path>
<path fill="none" stroke="black" stroke-width=".3" stroke-opacity="1.0"  filling="0" d="M11.910654067993164 11.882072448730469 L11.910654067993164 11.882072448730469 C11.910654067993164 11.926363945007324 11.910654067993164 11.970654487609863 11.910654067993164 12.014945983886719 L11.910654067993164 12.014945983886719 C11.854981422424316 11.986391067504883 11.799309730529785 11.957837104797363 11.743637084960938 11.929282188415527 L11.743637084960938 11.929282188415527 C11.799309730529785 11.913545608520508 11.854981422424316 11.897809028625488 11.910654067993164 11.882072448730469 L11.910654067993164 11.882072448730469"></path></svg>