<svg xmlns="http://www.w3.org/2000/svg" viewBox="0.0 0.0 24.0 24.0" height="200px" width="200px"><path fill="none" stroke="black" stroke-width=".3" stroke-opacity="1.0"  filling="0" d="M11.454571723937988 11.290908813476562 L11.454571723937988 11.290908813476562 C11.490935325622559 11.290908813476562 11.527299880981445 11.290908813476562 11.563663482666016 11.290908813476562 L11.563663482666016 11.290908813476562 C11.55160903930664 11.336109161376953 11.53955364227295 11.381308555603027 11.527499198913574 11.426508903503418 L11.527499198913574 11.426508903503418 C11.566826820373535 11.381308555603027 11.60615348815918 11.336109161376953 11.64548110961914 11.290908813476562 L11.64548110961914 11.290908813476562 C11.690926551818848 11.290908813476562 11.736372947692871 11.290908813476562 11.781818389892578 11.290908813476562 L11.781818389892578 11.290908813476562 C11.758454322814941 11.392099380493164 11.735091209411621 11.493290901184082 11.711727142333984 11.594481468200684 L11.711727142333984 11.594481468200684 C11.676326751708984 11.576863288879395 11.640926361083984 11.559246063232422 11.605525970458984 11.541627883911133 L11.605525970458984 11.541627883911133 C11.665181159973145 11.492327690124512 11.724835395812988 11.443028450012207 11.784490585327148 11.393728256225586 L11.784490585327148 11.393728256225586 C11.671319961547852 11.415204048156738 11.45533275604248 11.406096458435059 11.454571723937988 11.290908813476562 L11.454571723937988 11.290908813476562"></path></svg>