<svg xmlns="http://www.w3.org/2000/svg" viewBox="0.0 0.0 24.0 24.0" height="200px" width="200px"><path fill="none" stroke="black" stroke-width=".3" stroke-opacity="1.0"  filling="0" d="M11.87959098815918 10.761735916137695 L11.87959098815918 10.761735916137695 C11.896409034729004 10.834372520446777 11.913227081298828 10.907008171081543 11.930045127868652 10.979644775390625 L11.930045127868652 10.979644775390625 C12.02588176727295 10.959144592285156 12.12171745300293 10.938644409179688 12.217554092407227 10.918144226074219 L12.217554092407227 10.918144226074219 C12.199845314025879 10.875298500061035 12.182135581970215 10.832453727722168 12.164426803588867 10.789608001708984 L12.164426803588867 10.789608001708984 C12.429095268249512 10.651688575744629 11.586329460144043 10.997082710266113 11.28864574432373 10.97574520111084 L11.28864574432373 10.97574520111084 C11.442154884338379 10.833176612854004 11.671154022216797 10.782825469970703 11.87959098815918 10.761735916137695 L11.87959098815918 10.761735916137695"></path>
<path fill="none" stroke="black" stroke-width=".3" stroke-opacity="1.0"  filling="0" d="M11.74707317352295 10.858936309814453 L11.74707317352295 10.858936309814453 C11.74707317352295 10.900773048400879 11.74707317352295 10.942608833312988 11.74707317352295 10.984445571899414 L11.74707317352295 10.984445571899414 C11.660682678222656 10.964927673339844 11.574291229248047 10.945408821105957 11.487900733947754 10.925890922546387 L11.487900733947754 10.925890922546387 C11.574291229248047 10.903573036193848 11.660682678222656 10.881254196166992 11.74707317352295 10.858936309814453 L11.74707317352295 10.858936309814453"></path></svg>