<svg xmlns="http://www.w3.org/2000/svg" viewBox="0.0 0.0 24.0 24.0" height="200px" width="200px"><path fill="none" stroke="black" stroke-width=".3" stroke-opacity="1.0"  filling="0" d="M12.239019393920898 12.87076473236084 L12.239019393920898 12.87076473236084 C12.309946060180664 12.961273193359375 12.380873680114746 13.051782608032227 12.451800346374512 13.142291069030762 L12.451800346374512 13.142291069030762 C12.352437019348145 13.142291069030762 12.253072738647461 13.142291069030762 12.153709411621094 13.142291069030762 L12.153709411621094 13.142291069030762 C12.199963569641113 13.083318710327148 12.24621868133545 13.024345397949219 12.292472839355469 12.965373039245605 L12.292472839355469 12.965373039245605 C12.043432235717773 13.043399810791016 11.774482727050781 13.040275573730469 11.513537406921387 13.044382095336914 L11.513537406921387 13.044382095336914 C11.52446460723877 12.999427795410156 11.535391807556152 12.954472541809082 11.546319007873535 12.909518241882324 L11.546319007873535 12.909518241882324 C11.63344669342041 12.915472984313965 11.720573425292969 12.921426773071289 11.807701110839844 12.92738151550293 L11.807701110839844 12.92738151550293 C11.763164520263672 12.956072807312012 11.718628883361816 12.984763145446777 11.674092292785645 13.01345443725586 L11.674092292785645 13.01345443725586 C11.868310928344727 13.012223243713379 12.057781219482422 12.940587997436523 12.239019393920898 12.87076473236084 L12.239019393920898 12.87076473236084"></path></svg>