<svg xmlns="http://www.w3.org/2000/svg" viewBox="0.0 0.0 24.0 24.0" height="200px" width="200px"><path fill="none" stroke="black" stroke-width=".3" stroke-opacity="1.0"  filling="0" d="M12.135163307189941 11.672781944274902 L12.135163307189941 11.672781944274902 C12.17809009552002 11.732945442199707 12.221017837524414 11.793108940124512 12.263944625854492 11.853272438049316 L12.263944625854492 11.853272438049316 C12.344826698303223 11.969672203063965 12.42570972442627 12.08607292175293 12.506591796875 12.202472686767578 L12.506591796875 12.202472686767578 C12.454736709594727 12.106926918029785 12.402881622314453 12.011382102966309 12.35102653503418 11.915836334228516 L12.35102653503418 11.915836334228516 C12.329245567321777 11.935426712036133 12.307463645935059 11.955018043518066 12.285682678222656 11.974608421325684 L12.285682678222656 11.974608421325684 C12.291345596313477 12.05289077758789 12.297009468078613 12.131172180175781 12.302672386169434 12.209454536437988 L12.302672386169434 12.209454536437988 C12.290672302246094 12.211772918701172 12.278672218322754 12.214091300964355 12.266672134399414 12.216409683227539 L12.266672134399414 12.216409683227539 C12.222835540771484 12.035200119018555 12.178999900817871 11.853991508483887 12.135163307189941 11.672781944274902 L12.135163307189941 11.672781944274902"></path></svg>