<svg xmlns="http://www.w3.org/2000/svg" viewBox="0.0 0.0 24.0 24.0" height="200px" width="200px"><path fill="none" stroke="black" stroke-width=".3" stroke-opacity="1.0"  filling="0" d="M15.947999954223633 13.34042739868164 L15.947999954223633 13.34042739868164 C16.01033592224121 13.351027488708496 16.072673797607422 13.361626625061035 16.135009765625 13.37222671508789 L16.135009765625 13.37222671508789 C16.148881912231445 13.41420841217041 16.162755966186523 13.45619010925293 16.17662811279297 13.49817180633545 L16.17662811279297 13.49817180633545 C16.527524948120117 13.411741256713867 16.25442886352539 13.989690780639648 16.23275375366211 14.060699462890625 L16.23275375366211 14.060699462890625 C16.205909729003906 13.993562698364258 16.17906379699707 13.926426887512207 16.152219772338867 13.85929012298584 L16.152219772338867 13.85929012298584 C15.838495254516602 14.070466995239258 15.845830917358398 14.636922836303711 15.666654586791992 14.962800025939941 L15.666654586791992 14.962800025939941 C15.648191452026367 14.921209335327148 15.629727363586426 14.879617691040039 15.6112642288208 14.838027000427246 L15.6112642288208 14.838027000427246 C15.579054832458496 14.841727256774902 15.546845436096191 14.845426559448242 15.514636039733887 14.849126815795898 L15.514636039733887 14.849126815795898 C15.621118545532227 14.338897705078125 15.84289836883545 13.860804557800293 15.947999954223633 13.34042739868164 L15.947999954223633 13.34042739868164"></path></svg>