<svg xmlns="http://www.w3.org/2000/svg" viewBox="0.0 0.0 24.0 24.0" height="200px" width="200px"><path fill="none" stroke="black" stroke-width=".3" stroke-opacity="1.0"  filling="0" d="M12.77015495300293 9.965044021606445 L12.77015495300293 9.965044021606445 C13.498709678649902 10.145233154296875 12.694016456604004 11.248967170715332 12.30430793762207 11.50308895111084 L12.30430793762207 11.50308895111084 C12.30430793762207 11.546616554260254 12.30430793762207 11.590143203735352 12.30430793762207 11.633670806884766 L12.30430793762207 11.633670806884766 C12.428230285644531 11.622639656066895 12.555599212646484 11.631731986999512 12.676553726196289 11.66086196899414 L12.676553726196289 11.66086196899414 C12.6194486618042 11.917491912841797 12.283491134643555 12.02039623260498 12.048026084899902 12.13734245300293 L12.048026084899902 12.13734245300293 C11.993462562561035 12.092297554016113 11.938898086547852 12.047252655029297 11.884334564208984 12.00220775604248 L11.884334564208984 12.00220775604248 C11.866589546203613 12.02560806274414 11.848843574523926 12.049007415771484 11.831098556518555 12.072407722473145 L11.831098556518555 12.072407722473145 C11.527697563171387 11.821474075317383 12.549856185913086 10.784747123718262 12.560290336608887 10.440027236938477 L12.560290336608887 10.440027236938477 C12.476890563964844 10.475790977478027 12.3934907913208 10.511553764343262 12.310091018676758 10.547317504882812 L12.310091018676758 10.547317504882812 C12.369345664978027 10.36125373840332 12.428600311279297 10.175189971923828 12.487854957580566 9.989126205444336 L12.487854957580566 9.989126205444336 C12.562609672546387 9.998398780822754 12.63736343383789 10.007672309875488 12.712118148803711 10.016944885253906 L12.712118148803711 10.016944885253906 C12.731463432312012 9.99964427947998 12.750809669494629 9.982344627380371 12.77015495300293 9.965044021606445 L12.77015495300293 9.965044021606445"></path></svg>