<svg xmlns="http://www.w3.org/2000/svg" viewBox="0.0 0.0 24.0 24.0" height="200px" width="200px"><path fill="none" stroke="black" stroke-width=".3" stroke-opacity="1.0"  filling="0" d="M8.106954574584961 12.510380744934082 L8.106954574584961 12.510380744934082 C8.293819427490234 12.521883964538574 8.481085777282715 12.526649475097656 8.668281555175781 12.529580116271973 L8.668281555175781 12.529580116271973 C8.735245704650879 12.544534683227539 8.80220890045166 12.559489250183105 8.869173049926758 12.574443817138672 L8.869173049926758 12.574443817138672 C8.875527381896973 12.781469345092773 8.80587100982666 12.987630844116211 8.728036880493164 13.179573059082031 L8.728036880493164 13.179573059082031 C8.674482345581055 13.132890701293945 8.620926856994629 13.086209297180176 8.56737232208252 13.03952693939209 L8.56737232208252 13.03952693939209 C8.367923736572266 13.689916610717773 8.168478965759277 14.34030818939209 7.96903657913208 14.990699768066406 L7.96903657913208 14.990699768066406 C7.944372653961182 14.95020866394043 7.919709205627441 14.90971851348877 7.895045280456543 14.869227409362793 L7.895045280456543 14.869227409362793 C7.834572792053223 14.85608196258545 7.774099826812744 14.842935562133789 7.713627338409424 14.829790115356445 L7.713627338409424 14.829790115356445 C7.881011962890625 14.27738094329834 8.257208824157715 13.492341041564941 8.140199661254883 12.93763542175293 L8.140199661254883 12.93763542175293 C8.100727081298828 12.956398963928223 8.061254501342773 12.975162506103516 8.021781921386719 12.993926048278809 L8.021781921386719 12.993926048278809 C8.050172805786133 12.832744598388672 8.078563690185547 12.671562194824219 8.106954574584961 12.510380744934082 L8.106954574584961 12.510380744934082"></path></svg>