<svg xmlns="http://www.w3.org/2000/svg" viewBox="0.0 0.0 24.0 24.0" height="200px" width="200px"><path fill="none" stroke="black" stroke-width=".3" stroke-opacity="1.0"  filling="0" d="M12.257699966430664 12.17247200012207 L12.257699966430664 12.17247200012207 C12.307045936584473 12.174971580505371 12.356390953063965 12.177472114562988 12.405736923217773 12.179971694946289 L12.405736923217773 12.179971694946289 C12.407445907592773 12.193754196166992 12.409154891967773 12.207535743713379 12.410863876342773 12.221318244934082 L12.410863876342773 12.221318244934082 C12.385127067565918 12.252108573913574 12.359391212463379 12.282899856567383 12.333654403686523 12.313690185546875 L12.333654403686523 12.313690185546875 C12.563246726989746 12.607670783996582 11.66788101196289 12.570056915283203 11.554308891296387 12.571772575378418 L11.554308891296387 12.571772575378418 C11.683737754821777 12.335506439208984 11.965940475463867 12.44356918334961 12.213491439819336 12.421554565429688 L12.213491439819336 12.421554565429688 C12.01492977142334 12.2119779586792 11.787919044494629 12.359336853027344 11.533990859985352 12.244744300842285 L11.533990859985352 12.244744300842285 C11.77384090423584 12.209425926208496 12.0157470703125 12.187776565551758 12.257699966430664 12.17247200012207 L12.257699966430664 12.17247200012207"></path></svg>