<svg xmlns="http://www.w3.org/2000/svg" viewBox="0.0 0.0 24.0 24.0" height="200px" width="200px"><path fill="none" stroke="black" stroke-width=".3" stroke-opacity="1.0"  filling="0" d="M11.966645240783691 10.720172882080078 L11.966645240783691 10.720172882080078 C12.007190704345703 10.789227485656738 12.047736167907715 10.858281135559082 12.088281631469727 10.927335739135742 L12.088281631469727 10.927335739135742 C12.162109375 10.922999382019043 12.235936164855957 10.91866397857666 12.30976390838623 10.914327621459961 L12.30976390838623 10.914327621459961 C12.292845726013184 10.862072944641113 12.275927543640137 10.809819221496582 12.25900936126709 10.757564544677734 L12.25900936126709 10.757564544677734 C12.32614517211914 10.77696418762207 12.393281936645508 10.796363830566406 12.460417747497559 10.815763473510742 L12.460417747497559 10.815763473510742 C12.460417747497559 10.857654571533203 12.460417747497559 10.899545669555664 12.460417747497559 10.941436767578125 L12.460417747497559 10.941436767578125 C12.118790626525879 11.008685111999512 11.198640823364258 10.901366233825684 11.966645240783691 10.720172882080078 L11.966645240783691 10.720172882080078"></path>
<path fill="none" stroke="black" stroke-width=".3" stroke-opacity="1.0"  filling="0" d="M11.951099395751953 10.85168170928955 L11.951099395751953 10.85168170928955 C11.955194473266602 10.913809776306152 11.83421802520752 10.915924072265625 11.772626876831055 10.90679931640625 L11.772626876831055 10.90679931640625 C11.832118034362793 10.888426780700684 11.891608238220215 10.870054244995117 11.951099395751953 10.85168170928955 L11.951099395751953 10.85168170928955"></path></svg>