<svg xmlns="http://www.w3.org/2000/svg" viewBox="0.0 0.0 24.0 24.0" height="200px" width="200px"><path fill="none" stroke="black" stroke-width=".3" stroke-opacity="1.0"  filling="0" d="M13.390909194946289 7.8545451164245605 L13.390909194946289 7.8545451164245605 C13.288045883178711 8.137873649597168 13.185015678405762 8.422011375427246 13.05711841583252 8.694954872131348 L13.05711841583252 8.694954872131348 C12.87697982788086 8.557313919067383 12.904669761657715 8.462878227233887 12.930790901184082 8.244518280029297 L12.930790901184082 8.244518280029297 C12.918708801269531 8.241545677185059 12.906627655029297 8.23857307434082 12.894545555114746 8.235600471496582 L12.894545555114746 8.235600471496582 C12.837772369384766 8.385581970214844 12.781000137329102 8.535563468933105 12.724226951599121 8.685544967651367 L12.724226951599121 8.685544967651367 C12.640788078308105 8.375127792358398 12.666487693786621 8.168133735656738 12.709091186523438 7.854599952697754 L12.709091186523438 7.854599952697754 C12.854545593261719 7.854599952697754 13.0 7.854599952697754 13.145454406738281 7.854599952697754 L13.145454406738281 7.854599952697754 C13.134663581848145 7.9358086585998535 13.123872756958008 8.017017364501953 13.113081932067871 8.098226547241211 L13.113081932067871 8.098226547241211 C13.120609283447266 8.098681449890137 13.12813663482666 8.099135398864746 13.135663986206055 8.099590301513672 L13.135663986206055 8.099590301513672 C13.184381484985352 8.017927169799805 13.233099937438965 7.936263561248779 13.281817436218262 7.854599952697754 L13.281817436218262 7.854599952697754 C13.318181037902832 7.854581832885742 13.354545593261719 7.854563236236572 13.390909194946289 7.8545451164245605 L13.390909194946289 7.8545451164245605"></path></svg>