<svg xmlns="http://www.w3.org/2000/svg" viewBox="0.0 0.0 24.0 24.0" height="200px" width="200px"><path fill="none" stroke="black" stroke-width=".3" stroke-opacity="1.0"  filling="0" d="M11.98287296295166 10.029682159423828 L11.98287296295166 10.029682159423828 C11.975909233093262 10.141063690185547 11.968945503234863 10.252446174621582 11.961981773376465 10.3638277053833 L11.961981773376465 10.3638277053833 C12.056209564208984 10.265809059143066 12.150436401367188 10.167791366577148 12.244664192199707 10.069772720336914 L12.244664192199707 10.069772720336914 C12.22126293182373 10.296347618103027 12.171804428100586 10.521300315856934 12.101400375366211 10.737927436828613 L12.101400375366211 10.737927436828613 C12.066428184509277 10.704545974731445 12.031455039978027 10.671163558959961 11.996482849121094 10.637782096862793 L11.996482849121094 10.637782096862793 C11.639607429504395 11.087387084960938 11.738377571105957 11.886075019836426 11.17009162902832 12.059072494506836 L11.17009162902832 12.059072494506836 C11.162782669067383 12.053653717041016 11.155473709106445 12.048235893249512 11.148164749145508 12.042817115783691 L11.148164749145508 12.042817115783691 C11.276900291442871 11.404882431030273 11.484439849853516 10.608519554138184 11.789755821228027 10.034181594848633 L11.789755821228027 10.034181594848633 C11.798446655273438 10.03935432434082 11.807137489318848 10.044527053833008 11.815828323364258 10.049699783325195 L11.815828323364258 10.049699783325195 C11.871509552001953 10.0430269241333 11.927191734313965 10.036355018615723 11.98287296295166 10.029682159423828 L11.98287296295166 10.029682159423828"></path></svg>