<svg xmlns="http://www.w3.org/2000/svg" viewBox="0.0 0.0 24.0 24.0" height="200px" width="200px"><path fill="none" stroke="black" stroke-width=".3" stroke-opacity="1.0"  filling="0" d="M13.289755821228027 11.761799812316895 L13.289755821228027 11.761799812316895 C13.331428527832031 11.761799812316895 13.373101234436035 11.761799812316895 13.414773941040039 11.761799812316895 L13.414773941040039 11.761799812316895 C13.407354354858398 11.817018508911133 13.3402738571167 11.850093841552734 13.288991928100586 11.871872901916504 L13.288991928100586 11.871872901916504 C13.30256462097168 11.899209022521973 13.316137313842773 11.926545143127441 13.329710006713867 11.95388126373291 L13.329710006713867 11.95388126373291 C13.386473655700684 11.905617713928223 13.4432373046875 11.857355117797852 13.500000953674316 11.809091567993164 L13.500000953674316 11.809091567993164 C13.500000953674316 11.845455169677734 13.5 11.881818771362305 13.5 11.918182373046875 L13.5 11.918182373046875 C13.44522762298584 11.956136703491211 13.390454292297363 11.994091033935547 13.335681915283203 12.032045364379883 L13.335681915283203 12.032045364379883 C13.297882080078125 11.991772651672363 13.260082244873047 11.951499938964844 13.222282409667969 11.911227226257324 L13.222282409667969 11.911227226257324 C13.244773864746094 11.861417770385742 13.267264366149902 11.811609268188477 13.289755821228027 11.761799812316895 L13.289755821228027 11.761799812316895"></path></svg>