<svg xmlns="http://www.w3.org/2000/svg" viewBox="0.0 0.0 24.0 24.0" height="200px" width="200px"><path fill="none" stroke="black" stroke-width=".3" stroke-opacity="1.0"  filling="0" d="M12.1410551071167 12.747191429138184 L12.1410551071167 12.747191429138184 C12.258044242858887 12.871431350708008 12.322769165039062 13.073232650756836 12.282791137695312 13.2391357421875 L12.282791137695312 13.2391357421875 C12.317764282226562 13.22275447845459 12.352736473083496 13.206372261047363 12.387709617614746 13.189990997314453 L12.387709617614746 13.189990997314453 C12.416327476501465 13.20573616027832 12.4449462890625 13.221482276916504 12.473564147949219 13.237227439880371 L12.473564147949219 13.237227439880371 C12.656200408935547 13.77443790435791 12.53319263458252 14.103485107421875 12.379145622253418 14.647991180419922 L12.379145622253418 14.647991180419922 C12.255735397338867 14.814912796020508 12.135602951049805 14.998223304748535 11.959501266479492 15.108137130737305 L11.959501266479492 15.108137130737305 C11.891654968261719 14.988327980041504 11.823809623718262 14.86851978302002 11.755963325500488 14.748710632324219 L11.755963325500488 14.748710632324219 C11.691499710083008 14.825037956237793 11.627036094665527 14.90136432647705 11.562572479248047 14.977691650390625 L11.562572479248047 14.977691650390625 C11.463573455810547 14.331490516662598 11.9625244140625 13.356639862060547 12.1410551071167 12.747191429138184 L12.1410551071167 12.747191429138184"></path>
<path fill="none" stroke="black" stroke-width=".3" stroke-opacity="1.0"  filling="0" d="M12.210299491882324 13.75341796875 L12.210299491882324 13.75341796875 C12.198978424072266 14.023380279541016 12.114739418029785 14.305784225463867 11.952681541442871 14.521990776062012 L11.952681541442871 14.521990776062012 C12.038554191589355 14.265799522399902 12.12442684173584 14.00960922241211 12.210299491882324 13.75341796875 L12.210299491882324 13.75341796875"></path></svg>