<svg xmlns="http://www.w3.org/2000/svg" viewBox="0.0 0.0 24.0 24.0" height="200px" width="200px"><path fill="none" stroke="black" stroke-width=".3" stroke-opacity="1.0"  filling="0" d="M12.075464248657227 11.764471054077148 L12.075464248657227 11.764471054077148 C12.142127990722656 11.786798477172852 12.208791732788086 11.809125900268555 12.275455474853516 11.831453323364258 L12.275455474853516 11.831453323364258 C12.237764358520508 11.924944877624512 12.2000732421875 12.01843547821045 12.162382125854492 12.111927032470703 L12.162382125854492 12.111927032470703 C12.12610912322998 12.023609161376953 12.089837074279785 11.935291290283203 12.053564071655273 11.846973419189453 L12.053564071655273 11.846973419189453 C12.015409469604492 11.843827247619629 11.977254867553711 11.840682029724121 11.93910026550293 11.837535858154297 L11.93910026550293 11.837535858154297 C11.957262992858887 11.897734642028809 11.962301254272461 11.96430492401123 11.949573516845703 12.02588176727295 L11.949573516845703 12.02588176727295 C11.922264099121094 11.93310260772705 11.984624862670898 11.79766845703125 12.075464248657227 11.764471054077148 L12.075464248657227 11.764471054077148"></path>
<path fill="none" stroke="black" stroke-width=".3" stroke-opacity="1.0"  filling="0" d="M12.138899803161621 11.84593677520752 L12.138899803161621 11.84593677520752 C12.148799896240234 11.90747356414795 12.158699035644531 11.969009399414062 12.168599128723145 12.030546188354492 L12.168599128723145 12.030546188354492 C12.158699035644531 11.969009399414062 12.148799896240234 11.90747356414795 12.138899803161621 11.84593677520752 L12.138899803161621 11.84593677520752"></path></svg>