<svg xmlns="http://www.w3.org/2000/svg" viewBox="0.0 0.0 24.0 24.0" height="200px" width="200px"><path fill="none" stroke="black" stroke-width=".3" stroke-opacity="1.0"  filling="0" d="M14.809090614318848 7.8545451164245605 L14.809090614318848 7.8545451164245605 C14.726512908935547 8.084321022033691 14.572494506835938 8.25139045715332 14.459318161010742 8.46406364440918 L14.459318161010742 8.46406364440918 C14.495318412780762 8.453136444091797 14.531318664550781 8.442209243774414 14.5673189163208 8.431282043457031 L14.5673189163208 8.431282043457031 C14.577291488647461 8.538736343383789 14.587264060974121 8.646191596984863 14.597236633300781 8.753645896911621 L14.597236633300781 8.753645896911621 C14.56709098815918 8.693855285644531 14.536945343017578 8.634063720703125 14.506799697875977 8.574273109436035 L14.506799697875977 8.574273109436035 C14.373517990112305 8.608636856079102 14.240235328674316 8.642999649047852 14.106953620910645 8.677363395690918 L14.106953620910645 8.677363395690918 C14.295544624328613 8.403090476989746 14.484135627746582 8.12881851196289 14.67272663116455 7.854545593261719 L14.67272663116455 7.854545593261719 C14.718181610107422 7.854545593261719 14.763635635375977 7.8545451164245605 14.809090614318848 7.8545451164245605 L14.809090614318848 7.8545451164245605"></path></svg>