<svg xmlns="http://www.w3.org/2000/svg" viewBox="0.0 0.0 24.0 24.0" height="200px" width="200px"><path fill="none" stroke="black" stroke-width=".3" stroke-opacity="1.0"  filling="0" d="M12.188017845153809 11.578472137451172 L12.188017845153809 11.578472137451172 C12.159418106079102 11.657336235046387 12.130818367004395 11.736199378967285 12.102218627929688 11.8150634765625 L12.102218627929688 11.8150634765625 C12.146909713745117 11.80349063873291 12.19159984588623 11.79191780090332 12.23629093170166 11.78034496307373 L12.23629093170166 11.78034496307373 C12.242809295654297 11.731945037841797 12.249327659606934 11.683545112609863 12.25584602355957 11.63514518737793 L12.25584602355957 11.63514518737793 C12.280364036560059 11.652945518493652 12.304882049560547 11.670744895935059 12.329400062561035 11.688545227050781 L12.329400062561035 11.688545227050781 C12.211554527282715 11.94963550567627 11.927563667297363 11.934932708740234 11.951918601989746 11.61245346069336 L11.94815444946289 11.616436004638672 C12.028108596801758 11.603781700134277 12.108063697814941 11.591126441955566 12.188017845153809 11.578472137451172 L12.188017845153809 11.578472137451172"></path>
<path fill="none" stroke="black" stroke-width=".3" stroke-opacity="1.0"  filling="0" d="M11.998936653137207 11.627699851989746 L11.998936653137207 11.627699851989746 C12.035264015197754 11.627699851989746 12.0715913772583 11.627699851989746 12.107918739318848 11.627699851989746 L12.107918739318848 11.627699851989746 C12.074708938598633 11.66922664642334 12.041500091552734 11.71075439453125 12.00829029083252 11.752281188964844 L12.00829029083252 11.752281188964844 C12.005172729492188 11.71075439453125 12.002054214477539 11.66922664642334 11.998936653137207 11.627699851989746 L11.998936653137207 11.627699851989746"></path></svg>