<svg xmlns="http://www.w3.org/2000/svg" viewBox="0.0 0.0 24.0 24.0" height="200px" width="200px"><path fill="none" stroke="black" stroke-width=".3" stroke-opacity="1.0"  filling="0" d="M11.42983627319336 10.539709091186523 L11.42983627319336 10.539709091186523 C11.451263427734375 10.57917308807373 11.47269058227539 10.618636131286621 11.494117736816406 10.658100128173828 L11.494117736816406 10.658100128173828 C11.594244956970215 10.658100128173828 11.69437313079834 10.658100128173828 11.794500350952148 10.658100128173828 L11.794500350952148 10.658100128173828 C11.77912712097168 10.624245643615723 11.763754844665527 10.590391159057617 11.748381614685059 10.556536674499512 L11.748381614685059 10.556536674499512 C12.28359317779541 10.570918083190918 11.50317668914795 10.804339408874512 11.413662910461426 10.82948112487793 L11.413662910461426 10.82948112487793 C11.317781448364258 10.776835441589355 11.221899032592773 10.724190711975098 11.126017570495605 10.671545028686523 L11.126017570495605 10.671545028686523 C11.128008842468262 10.659645080566406 11.129999160766602 10.647745132446289 11.131990432739258 10.635845184326172 L11.131990432739258 10.635845184326172 C11.23629379272461 10.633700370788574 11.344446182250977 10.599644660949707 11.42983627319336 10.539709091186523 L11.42983627319336 10.539709091186523"></path></svg>