<svg xmlns="http://www.w3.org/2000/svg" viewBox="0.0 0.0 24.0 24.0" height="200px" width="200px"><path fill="none" stroke="black" stroke-width=".3" stroke-opacity="1.0"  filling="0" d="M12.171490669250488 11.31766414642334 L12.171490669250488 11.31766414642334 C12.193944931030273 11.338682174682617 12.216400146484375 11.359700202941895 12.23885440826416 11.380718231201172 L12.23885440826416 11.380718231201172 C12.225699424743652 11.409873008728027 12.212545394897461 11.439027786254883 12.199390411376953 11.468182563781738 L12.199390411376953 11.468182563781738 C12.293136596679688 11.493382453918457 12.386881828308105 11.518582344055176 12.48062801361084 11.543782234191895 L12.48062801361084 11.543782234191895 C12.396354675292969 11.714451789855957 12.27425765991211 12.281651496887207 12.059290885925293 11.970382690429688 L12.059290885925293 11.970382690429688 C11.558429718017578 11.887989044189453 12.12916088104248 11.749122619628906 12.323234558105469 11.752391815185547 L12.323234558105469 11.752391815185547 C12.324353218078613 11.740628242492676 12.325471878051758 11.728863716125488 12.326590538024902 11.717100143432617 L12.326590538024902 11.717100143432617 C12.215999603271484 11.672990798950195 12.105409622192383 11.62888240814209 11.994818687438965 11.584773063659668 L11.994818687438965 11.584773063659668 C12.031790733337402 11.505409240722656 12.068763732910156 11.426046371459961 12.105735778808594 11.34668254852295 L12.105735778808594 11.34668254852295 C12.127654075622559 11.33700942993164 12.149572372436523 11.327337265014648 12.171490669250488 11.31766414642334 L12.171490669250488 11.31766414642334"></path>
<path fill="none" stroke="black" stroke-width=".3" stroke-opacity="1.0"  filling="0" d="M11.92197322845459 11.832901000976562 L11.92197322845459 11.832901000976562 C11.972309112548828 11.867718696594238 12.022645950317383 11.90253734588623 12.072981834411621 11.937355041503906 L12.072981834411621 11.937355041503906 C12.022645950317383 11.90253734588623 11.972309112548828 11.867718696594238 11.92197322845459 11.832901000976562 L11.92197322845459 11.832901000976562"></path></svg>