<svg xmlns="http://www.w3.org/2000/svg" viewBox="0.0 0.0 24.0 24.0" height="200px" width="200px"><path fill="none" stroke="black" stroke-width=".3" stroke-opacity="1.0"  filling="0" d="M11.718981742858887 11.889190673828125 L11.718981742858887 11.889190673828125 C11.860936164855957 11.95757007598877 12.016849517822266 12.006098747253418 12.174026489257812 12.0171537399292 L12.174026489257812 12.0171537399292 C11.972827911376953 12.344870567321777 11.672562599182129 12.45005989074707 11.848554611206055 12.028390884399414 L11.848554611206055 12.028390884399414 C11.786127090454102 12.035264015197754 11.723700523376465 12.042136192321777 11.661273002624512 12.049009323120117 L11.661273002624512 12.049009323120117 C11.680509567260742 11.995736122131348 11.699745178222656 11.942463874816895 11.718981742858887 11.889190673828125 L11.718981742858887 11.889190673828125"></path>
<path fill="none" stroke="black" stroke-width=".3" stroke-opacity="1.0"  filling="0" d="M11.970709800720215 12.09433650970459 L11.970709800720215 12.09433650970459 C12.00940990447998 12.120863914489746 12.04810905456543 12.147391319274902 12.086809158325195 12.173918724060059 L12.086809158325195 12.173918724060059 C12.071146011352539 12.208645820617676 12.055481910705566 12.24337387084961 12.03981876373291 12.278100967407227 L12.03981876373291 12.278100967407227 C11.882709503173828 12.24248218536377 11.75551700592041 12.178875923156738 11.970709800720215 12.09433650970459 L11.970709800720215 12.09433650970459"></path></svg>