<svg xmlns="http://www.w3.org/2000/svg" viewBox="0.0 0.0 24.0 24.0" height="200px" width="200px"><path fill="none" stroke="black" stroke-width=".3" stroke-opacity="1.0"  filling="0" d="M11.696590423583984 12.685445785522461 L11.696590423583984 12.685445785522461 C11.728281021118164 12.694673538208008 11.759971618652344 12.703900337219238 11.791662216186523 12.713128089904785 L11.791662216186523 12.713128089904785 C11.77061653137207 12.748019218444824 11.749571800231934 12.782909393310547 11.72852611541748 12.817800521850586 L11.72852611541748 12.817800521850586 C11.745244026184082 12.852828025817871 11.761962890625 12.88785457611084 11.778680801391602 12.922882080078125 L11.778680801391602 12.922882080078125 C11.676929473876953 12.979833602905273 11.489595413208008 12.938642501831055 11.440662384033203 12.83280086517334 L11.440662384033203 12.83280086517334 C11.382862091064453 12.857355117797852 11.32506275177002 12.881909370422363 11.26726245880127 12.906463623046875 L11.26726245880127 12.906463623046875 C11.3076171875 12.930963516235352 11.34797191619873 12.955464363098145 11.388326644897461 12.979964256286621 L11.388326644897461 12.979964256286621 C10.829428672790527 12.967761039733887 11.509505271911621 12.70189380645752 11.696590423583984 12.685445785522461 L11.696590423583984 12.685445785522461"></path>
<path fill="none" stroke="black" stroke-width=".3" stroke-opacity="1.0"  filling="0" d="M11.53320026397705 12.80563735961914 L11.53320026397705 12.80563735961914 C11.581345558166504 12.829673767089844 11.629490852355957 12.85370922088623 11.67763614654541 12.877745628356934 L11.67763614654541 12.877745628356934 C11.624780654907227 12.908232688903809 11.528085708618164 12.898813247680664 11.497336387634277 12.846109390258789 L11.497336387634277 12.846109390258789 C11.50929069519043 12.832618713378906 11.521245956420898 12.819128036499023 11.53320026397705 12.80563735961914 L11.53320026397705 12.80563735961914"></path></svg>