<svg xmlns="http://www.w3.org/2000/svg" viewBox="0.0 0.0 24.0 24.0" height="200px" width="200px"><path fill="none" stroke="black" stroke-width=".3" stroke-opacity="1.0"  filling="0" d="M12.235227584838867 10.945199966430664 L12.235227584838867 10.945199966430664 C12.300726890563965 10.976091384887695 12.366227149963379 11.00698184967041 12.431726455688477 11.037873268127441 L12.431726455688477 11.037873268127441 C11.991122245788574 11.434416770935059 11.322747230529785 11.033957481384277 12.099000930786133 10.962163925170898 L12.099000930786133 10.962163925170898 C12.091473579406738 11.037508964538574 12.083946228027344 11.112854957580566 12.07641887664795 11.188199996948242 L12.07641887664795 11.188199996948242 C12.145500183105469 11.175999641418457 12.214582443237305 11.163800239562988 12.283663749694824 11.151599884033203 L12.283663749694824 11.151599884033203 C12.267518043518066 11.082799911499023 12.251373291015625 11.013999938964844 12.235227584838867 10.945199966430664 L12.235227584838867 10.945199966430664"></path>
<path fill="none" stroke="black" stroke-width=".3" stroke-opacity="1.0"  filling="0" d="M11.938308715820312 11.000945091247559 L11.938308715820312 11.000945091247559 C11.953008651733398 11.053135871887207 11.967708587646484 11.105327606201172 11.98240852355957 11.15751838684082 L11.98240852355957 11.15751838684082 C11.97378158569336 11.167009353637695 11.965154647827148 11.17650032043457 11.956527709960938 11.185991287231445 L11.956527709960938 11.185991287231445 C11.909664154052734 11.173627853393555 11.862800598144531 11.161263465881348 11.815937042236328 11.148900032043457 L11.815937042236328 11.148900032043457 C11.856727600097656 11.099581718444824 11.897518157958984 11.050263404846191 11.938308715820312 11.000945091247559 L11.938308715820312 11.000945091247559"></path></svg>