<svg xmlns="http://www.w3.org/2000/svg" viewBox="0.0 0.0 24.0 24.0" height="200px" width="200px"><path fill="none" stroke="black" stroke-width=".3" stroke-opacity="1.0"  filling="0" d="M11.379054069519043 10.878764152526855 L11.379054069519043 10.878764152526855 C11.422372817993164 10.88746452331543 11.465690612792969 10.896164894104004 11.50900936126709 10.904865264892578 L11.50900936126709 10.904865264892578 C11.487564086914062 10.939173698425293 11.466117858886719 10.973483085632324 11.444672584533691 11.007791519165039 L11.444672584533691 11.007791519165039 C11.595195770263672 11.0425443649292 11.762160301208496 11.034734725952148 11.90740966796875 10.982128143310547 L11.90740966796875 10.982128143310547 C11.89903736114502 11.05709171295166 11.890664100646973 11.132055282592773 11.882291793823242 11.207018852233887 L11.882291793823242 11.207018852233887 C11.676173210144043 11.202503204345703 11.471124649047852 11.177151679992676 11.266145706176758 11.156209945678711 L11.266145706176758 11.156209945678711 C11.29842758178711 11.115409851074219 11.330709457397461 11.074609756469727 11.362991333007812 11.033809661865234 L11.362991333007812 11.033809661865234 C11.368345260620117 10.982128143310547 11.373700141906738 10.930445671081543 11.379054069519043 10.878764152526855 L11.379054069519043 10.878764152526855"></path></svg>