<svg xmlns="http://www.w3.org/2000/svg" viewBox="0.0 0.0 24.0 24.0" height="200px" width="200px"><path fill="none" stroke="black" stroke-width=".3" stroke-opacity="1.0"  filling="0" d="M12.511992454528809 12.36989974975586 L12.511992454528809 12.36989974975586 C12.723889350891113 12.519859313964844 12.626809120178223 12.662567138671875 12.64483642578125 12.90968132019043 L12.64483642578125 12.90968132019043 C12.321619987487793 13.040369987487793 11.946192741394043 13.200634956359863 11.72361946105957 12.837900161743164 L11.72361946105957 12.837900161743164 C11.591146469116211 12.837854385375977 11.458673477172852 12.837809562683105 11.326200485229492 12.837763786315918 L11.326200485229492 12.837763786315918 C11.326200485229492 12.776663780212402 11.326200485229492 12.715563774108887 11.326200485229492 12.654463768005371 L11.326200485229492 12.654463768005371 C11.722122192382812 12.654463768005371 12.1497220993042 12.762361526489258 12.507110595703125 12.57062816619873 L12.507110595703125 12.57062816619873 C12.253419876098633 12.5716552734375 11.999728202819824 12.572683334350586 11.746037483215332 12.573710441589355 L11.746037483215332 12.573710441589355 C11.951517105102539 12.298213958740234 12.20064926147461 12.42992115020752 12.511992454528809 12.36989974975586 L12.511992454528809 12.36989974975586"></path>
<path fill="none" stroke="black" stroke-width=".3" stroke-opacity="1.0"  filling="0" d="M12.458481788635254 12.85260009765625 L12.458481788635254 12.85260009765625 C12.265727043151855 12.858081817626953 12.072973251342773 12.863563537597656 11.880218505859375 12.86904525756836 L11.880218505859375 12.86904525756836 C12.072973251342773 12.863563537597656 12.265727043151855 12.858081817626953 12.458481788635254 12.85260009765625 L12.458481788635254 12.85260009765625"></path></svg>