<svg xmlns="http://www.w3.org/2000/svg" viewBox="0.0 0.0 24.0 24.0" height="200px" width="200px"><path fill="none" stroke="black" stroke-width=".3" stroke-opacity="1.0"  filling="0" d="M10.881817817687988 11.427217483520508 L10.881817817687988 11.427217483520508 C11.003881454467773 11.427267074584961 11.12416934967041 11.46800422668457 11.238109588623047 11.511791229248047 L11.238109588623047 11.511791229248047 C11.122519493103027 11.758023262023926 10.871807098388672 11.833375930786133 11.009672164916992 11.550000190734863 L11.009672164916992 11.550000190734863 C10.96705436706543 11.545435905456543 10.92443561553955 11.540872573852539 10.881817817687988 11.536308288574219 L10.881817817687988 11.536308288574219 C10.881817817687988 11.499944686889648 10.881817817687988 11.463581085205078 10.881817817687988 11.427217483520508 L10.881817817687988 11.427217483520508"></path>
<path fill="none" stroke="black" stroke-width=".3" stroke-opacity="1.0"  filling="0" d="M11.082136154174805 11.533882141113281 L11.082136154174805 11.533882141113281 C11.099381446838379 11.58290958404541 11.11662769317627 11.631936073303223 11.133872985839844 11.680963516235352 L11.133872985839844 11.680963516235352 C11.12668228149414 11.688400268554688 11.119491577148438 11.695836067199707 11.112300872802734 11.703272819519043 L11.112300872802734 11.703272819519043 C11.077146530151367 11.69017219543457 11.041991233825684 11.677072525024414 11.006836891174316 11.663971900939941 L11.006836891174316 11.663971900939941 C11.031936645507812 11.62060832977295 11.057036399841309 11.577245712280273 11.082136154174805 11.533882141113281 L11.082136154174805 11.533882141113281"></path></svg>