<svg xmlns="http://www.w3.org/2000/svg" viewBox="0.0 0.0 24.0 24.0" height="200px" width="200px"><path fill="none" stroke="black" stroke-width=".3" stroke-opacity="1.0"  filling="0" d="M11.758963584899902 12.16655445098877 L11.758963584899902 12.16655445098877 C11.8413724899292 12.272626876831055 11.923782348632812 12.378700256347656 12.00619125366211 12.484772682189941 L12.00619125366211 12.484772682189941 C12.051036834716797 12.476581573486328 12.095881462097168 12.468391418457031 12.140727043151855 12.460200309753418 L12.140727043151855 12.460200309753418 C12.116409301757812 12.528982162475586 12.092090606689453 12.597764015197754 12.06777286529541 12.666545867919922 L12.06777286529541 12.666545867919922 C11.910418510437012 12.602654457092285 11.753063201904297 12.538763046264648 11.595708847045898 12.474871635437012 L11.595708847045898 12.474871635437012 C11.650127410888672 12.372098922729492 11.704545021057129 12.269327163696289 11.758963584899902 12.16655445098877 L11.758963584899902 12.16655445098877"></path>
<path fill="none" stroke="black" stroke-width=".3" stroke-opacity="1.0"  filling="0" d="M11.829654693603516 12.247745513916016 L11.829654693603516 12.247745513916016 C11.88700008392334 12.289118766784668 11.944345474243164 12.330491065979004 12.001690864562988 12.371864318847656 L12.001690864562988 12.371864318847656 C11.964300155639648 12.394737243652344 11.926908493041992 12.417609214782715 11.889517784118652 12.440482139587402 L11.889517784118652 12.440482139587402 C11.785282135009766 12.366787910461426 11.706869125366211 12.33363151550293 11.829654693603516 12.247745513916016 L11.829654693603516 12.247745513916016"></path></svg>