<svg xmlns="http://www.w3.org/2000/svg" viewBox="0.0 0.0 24.0 24.0" height="200px" width="200px"><path fill="none" stroke="black" stroke-width=".3" stroke-opacity="1.0"  filling="0" d="M12.180543899536133 12.997064590454102 L12.180543899536133 12.997064590454102 C12.39488410949707 13.062381744384766 11.760122299194336 13.232327461242676 11.538818359375 13.197218894958496 L11.538818359375 13.197218894958496 C11.437945365905762 13.182318687438965 11.337072372436523 13.167418479919434 11.236199378967285 13.152518272399902 L11.236199378967285 13.152518272399902 C11.320209503173828 13.092845916748047 11.452129364013672 13.130905151367188 11.544381141662598 13.17681884765625 L11.544381141662598 13.17681884765625 C11.89892864227295 13.014420509338379 12.076748847961426 13.28801441192627 12.24725341796875 13.162174224853516 L12.24725341796875 13.162174224853516 C12.225016593933105 13.107137680053711 12.202780723571777 13.052101135253906 12.180543899536133 12.997064590454102 L12.180543899536133 12.997064590454102"></path>
<path fill="none" stroke="black" stroke-width=".3" stroke-opacity="1.0"  filling="0" d="M11.912399291992188 13.156990051269531 L11.912399291992188 13.156990051269531 C11.893062591552734 13.190308570861816 11.873726844787598 13.223626136779785 11.854390144348145 13.25694465637207 L11.854390144348145 13.25694465637207 C11.804208755493164 13.239290237426758 11.754027366638184 13.221635818481445 11.703845977783203 13.203981399536133 L11.703845977783203 13.203981399536133 C11.773364067077637 13.18831729888916 11.842881202697754 13.172654151916504 11.912399291992188 13.156990051269531 L11.912399291992188 13.156990051269531"></path></svg>