<svg xmlns="http://www.w3.org/2000/svg" viewBox="0.0 0.0 24.0 24.0" height="200px" width="200px"><path fill="none" stroke="black" stroke-width=".3" stroke-opacity="1.0"  filling="0" d="M11.849346160888672 12.01898193359375 L11.849346160888672 12.01898193359375 C11.917889595031738 12.0392484664917 12.010955810546875 12.045920372009277 12.04377269744873 12.109417915344238 L12.04377269744873 12.109417915344238 C12.298927307128906 12.179931640625 12.288115501403809 12.224421501159668 12.1384916305542 12.422918319702148 L12.1384916305542 12.422918319702148 C11.928254127502441 12.299099922180176 11.7421293258667 12.294809341430664 11.849346160888672 12.01898193359375 L11.849346160888672 12.01898193359375"></path>
<path fill="none" stroke="black" stroke-width=".3" stroke-opacity="1.0"  filling="0" d="M11.962444305419922 12.105653762817383 L11.962444305419922 12.105653762817383 C11.96599006652832 12.152217864990234 11.969535827636719 12.19878101348877 11.973081588745117 12.245345115661621 L11.973081588745117 12.245345115661621 C11.925572395324707 12.2119722366333 11.878063201904297 12.178600311279297 11.830554008483887 12.145227432250977 L11.830554008483887 12.145227432250977 C11.834081649780273 12.136354446411133 11.837608337402344 12.127482414245605 11.84113597869873 12.118609428405762 L11.84113597869873 12.118609428405762 C11.881571769714355 12.114291191101074 11.922008514404297 12.10997200012207 11.962444305419922 12.105653762817383 L11.962444305419922 12.105653762817383"></path>
<path fill="none" stroke="black" stroke-width=".3" stroke-opacity="1.0"  filling="0" d="M12.097199440002441 12.16399097442627 L12.097199440002441 12.16399097442627 C12.122172355651855 12.212691307067871 12.14714527130127 12.261390686035156 12.172118186950684 12.310091018676758 L12.172118186950684 12.310091018676758 C12.116772651672363 12.295300483703613 12.061427116394043 12.280508995056152 12.006081581115723 12.265718460083008 L12.006081581115723 12.265718460083008 C12.036454200744629 12.231809616088867 12.066826820373535 12.19789981842041 12.097199440002441 12.16399097442627 L12.097199440002441 12.16399097442627"></path></svg>