<svg xmlns="http://www.w3.org/2000/svg" viewBox="0.0 0.0 24.0 24.0" height="200px" width="200px"><path fill="none" stroke="black" stroke-width=".3" stroke-opacity="1.0"  filling="0" d="M11.582673072814941 12.026917457580566 L11.582673072814941 12.026917457580566 C11.627554893493652 12.02692699432373 11.67243766784668 12.026935577392578 11.71731948852539 12.026945114135742 L11.71731948852539 12.026945114135742 C11.721473693847656 12.036672592163086 11.725628852844238 12.046399116516113 11.729783058166504 12.056126594543457 L11.729783058166504 12.056126594543457 C11.669673919677734 12.09019947052002 11.609563827514648 12.124272346496582 11.549454689025879 12.158345222473145 L11.549454689025879 12.158345222473145 C11.870002746582031 12.17866039276123 12.133233070373535 11.990351676940918 12.43628215789795 12.105000495910645 L12.43628215789795 12.105000495910645 C12.424337387084961 12.1569185256958 12.412391662597656 12.208836555480957 12.400446891784668 12.260754585266113 L12.400446891784668 12.260754585266113 C12.299428939819336 12.261527061462402 12.198410034179688 12.262300491333008 12.097392082214355 12.263072967529297 L12.097392082214355 12.263072967529297 C12.162364959716797 12.225172996520996 12.227336883544922 12.187273025512695 12.292309761047363 12.149373054504395 L12.292309761047363 12.149373054504395 C11.943947792053223 12.148575782775879 11.715123176574707 12.322300910949707 11.385273933410645 12.183762550354004 L11.385273933410645 12.183762550354004 C11.45107364654541 12.131481170654297 11.516873359680176 12.079198837280273 11.582673072814941 12.026917457580566 L11.582673072814941 12.026917457580566"></path></svg>