<svg xmlns="http://www.w3.org/2000/svg" viewBox="0.0 0.0 24.0 24.0" height="200px" width="200px"><path fill="none" stroke="black" stroke-width=".3" stroke-opacity="1.0"  filling="0" d="M11.845771789550781 12.22055435180664 L11.845771789550781 12.22055435180664 C12.107564926147461 12.220856666564941 12.507904052734375 12.107211112976074 12.50961685180664 12.44522762298584 L12.50961685180664 12.44522762298584 C12.592062950134277 12.432100296020508 12.674508094787598 12.418972969055176 12.756954193115234 12.405845642089844 L12.756954193115234 12.405845642089844 C12.794126510620117 12.430291175842285 12.831299781799316 12.454736709594727 12.8684720993042 12.479182243347168 L12.8684720993042 12.479182243347168 C12.8684720993042 12.517972946166992 12.8684720993042 12.556764602661133 12.8684720993042 12.595555305480957 L12.8684720993042 12.595555305480957 C12.70237922668457 12.611346244812012 11.51882553100586 12.727974891662598 11.572418212890625 12.428181648254395 L11.572418212890625 12.428181648254395 C11.56021785736084 12.40164566040039 11.548017501831055 12.37510871887207 11.53581714630127 12.348572731018066 L11.53581714630127 12.348572731018066 C11.639135360717773 12.305899620056152 11.742453575134277 12.263227462768555 11.845771789550781 12.22055435180664 L11.845771789550781 12.22055435180664"></path>
<path fill="none" stroke="black" stroke-width=".3" stroke-opacity="1.0"  filling="0" d="M12.370664596557617 12.331008911132812 L12.370664596557617 12.331008911132812 C12.246092796325684 12.504801750183105 11.94235897064209 12.405688285827637 11.73071002960205 12.375246047973633 L11.73071002960205 12.375246047973633 C11.9440279006958 12.36050033569336 12.157346725463867 12.345754623413086 12.370664596557617 12.331008911132812 L12.370664596557617 12.331008911132812"></path></svg>