<svg xmlns="http://www.w3.org/2000/svg" viewBox="0.0 0.0 24.0 24.0" height="200px" width="200px"><path fill="none" stroke="black" stroke-width=".3" stroke-opacity="1.0"  filling="0" d="M11.974936485290527 11.334245681762695 L11.974936485290527 11.334245681762695 C12.097700119018555 11.345172882080078 12.220462799072266 11.356101036071777 12.343226432800293 11.36702823638916 L12.343226432800293 11.36702823638916 C12.349926948547363 11.404855728149414 12.356626510620117 11.442682266235352 12.363327026367188 11.480509757995605 L12.363327026367188 11.480509757995605 C12.400035858154297 11.46503734588623 12.436745643615723 11.449563980102539 12.473454475402832 11.434091567993164 L12.473454475402832 11.434091567993164 C12.440817832946777 11.496382713317871 12.408182144165039 11.558672904968262 12.375545501708984 11.620964050292969 L12.375545501708984 11.620964050292969 C12.362299919128418 11.590545654296875 12.349054336547852 11.560128211975098 12.335808753967285 11.529709815979004 L12.335808753967285 11.529709815979004 C12.29529094696045 11.569218635559082 12.254772186279297 11.60872745513916 12.214254379272461 11.648236274719238 L12.214254379272461 11.648236274719238 C12.2069091796875 11.643363952636719 12.199563026428223 11.6384916305542 12.192217826843262 11.63361930847168 L12.192217826843262 11.63361930847168 C12.212218284606934 11.5828275680542 12.232217788696289 11.532036781311035 12.252218246459961 11.481245040893555 L12.252218246459961 11.481245040893555 C12.205327033996582 11.468235969543457 12.15843677520752 11.45522689819336 12.11154556274414 11.442217826843262 L12.11154556274414 11.442217826843262 C12.128664016723633 11.48614501953125 12.145781517028809 11.530073165893555 12.1628999710083 11.574000358581543 L12.1628999710083 11.574000358581543 C12.15401840209961 11.57863712310791 12.145135879516602 11.583272933959961 12.13625431060791 11.587909698486328 L12.13625431060791 11.587909698486328 C12.082481384277344 11.503355026245117 12.028709411621094 11.418800354003906 11.974936485290527 11.334245681762695 L11.974936485290527 11.334245681762695"></path></svg>