<svg xmlns="http://www.w3.org/2000/svg" viewBox="0.0 0.0 24.0 24.0" height="200px" width="200px"><path fill="none" stroke="black" stroke-width=".3" stroke-opacity="1.0"  filling="0" d="M11.776908874511719 11.976136207580566 L11.776908874511719 11.976136207580566 C11.929298400878906 12.016819953918457 12.045953750610352 12.204182624816895 12.051027297973633 12.361827850341797 L12.051027297973633 12.361827850341797 C12.029973030090332 12.333146095275879 12.008917808532715 12.304464340209961 11.987863540649414 12.275782585144043 L11.987863540649414 12.275782585144043 C12.03525447845459 12.263036727905273 12.082646369934082 12.25029182434082 12.130037307739258 12.23754596710205 L12.130037307739258 12.23754596710205 C12.098146438598633 12.202327728271484 12.066254615783691 12.167109489440918 12.034363746643066 12.131891250610352 L12.034363746643066 12.131891250610352 C11.91142749786377 12.125236511230469 11.788491249084473 12.118581771850586 11.665555000305176 12.111927032470703 L11.665555000305176 12.111927032470703 C11.702672958374023 12.06666374206543 11.739790916442871 12.02139949798584 11.776908874511719 11.976136207580566 L11.776908874511719 11.976136207580566"></path>
<path fill="none" stroke="black" stroke-width=".3" stroke-opacity="1.0"  filling="0" d="M11.762563705444336 12.0474271774292 L11.762563705444336 12.0474271774292 C11.830699920654297 12.063645362854004 11.898836135864258 12.079864501953125 11.966972351074219 12.09608268737793 L11.966972351074219 12.09608268737793 C11.968400001525879 12.110491752624512 11.969827651977539 12.124899864196777 11.9712553024292 12.13930892944336 L11.9712553024292 12.13930892944336 C11.899554252624512 12.164531707763672 11.800017356872559 12.113566398620605 11.762563705444336 12.0474271774292 L11.762563705444336 12.0474271774292"></path></svg>