<svg xmlns="http://www.w3.org/2000/svg" viewBox="0.0 0.0 24.0 24.0" height="200px" width="200px"><path fill="none" stroke="black" stroke-width=".3" stroke-opacity="1.0"  filling="0" d="M9.181963920593262 11.350909233093262 L9.181963920593262 11.350909233093262 C9.265654563903809 11.386663436889648 9.349345207214355 11.422417640686035 9.433035850524902 11.458171844482422 L9.433035850524902 11.458171844482422 C9.249141693115234 11.93310832977295 8.474915504455566 12.551669120788574 9.47132682800293 12.343772888183594 L9.47132682800293 12.343772888183594 C9.457826614379883 12.37969970703125 9.444326400756836 12.415627479553223 9.430826187133789 12.451554298400879 L9.430826187133789 12.451554298400879 C9.208617210388184 12.378527641296387 8.986408233642578 12.305500030517578 8.764199256896973 12.232473373413086 L8.764199256896973 12.232473373413086 C8.660981178283691 12.264063835144043 8.557762145996094 12.295655250549316 8.454544067382812 12.327245712280273 L8.454544067382812 12.327245712280273 C8.454545021057129 12.29089069366455 8.454545021057129 12.254536628723145 8.454545974731445 12.218181610107422 L8.454545974731445 12.218181610107422 C8.945870399475098 12.133401870727539 8.746788024902344 11.588149070739746 9.181963920593262 11.350909233093262 L9.181963920593262 11.350909233093262"></path>
<path fill="none" stroke="black" stroke-width=".3" stroke-opacity="1.0"  filling="0" d="M9.29629135131836 11.397000312805176 L9.29629135131836 11.397000312805176 C9.370945930480957 11.66592025756836 9.156572341918945 11.961370468139648 8.869064331054688 12.039546012878418 L8.869064331054688 12.039546012878418 C9.011473655700684 11.825364112854004 9.153882026672363 11.61118221282959 9.29629135131836 11.397000312805176 L9.29629135131836 11.397000312805176"></path></svg>