<svg xmlns="http://www.w3.org/2000/svg" viewBox="0.0 0.0 24.0 24.0" height="200px" width="200px"><path fill="none" stroke="black" stroke-width=".3" stroke-opacity="1.0"  filling="0" d="M12.066681861877441 11.552427291870117 L12.066681861877441 11.552427291870117 C12.19031810760498 11.581018447875977 12.313955307006836 11.60960865020752 12.437591552734375 11.638199806213379 L12.437591552734375 11.638199806213379 C12.41535472869873 11.682435989379883 12.393118858337402 11.726673126220703 12.370882034301758 11.770909309387207 L12.370882034301758 11.770909309387207 C12.073017120361328 11.592182159423828 11.995652198791504 11.739394187927246 12.337309837341309 11.825236320495605 L12.337309837341309 11.825236320495605 C12.317118644714355 11.883255004882812 12.296927452087402 11.941272735595703 12.27673625946045 11.99929141998291 L12.27673625946045 11.99929141998291 C12.26744556427002 11.998300552368164 12.258153915405273 11.997308731079102 12.248863220214844 11.996317863464355 L12.248863220214844 11.996317863464355 C12.234808921813965 11.965153694152832 12.220754623413086 11.933990478515625 12.206700325012207 11.902826309204102 L12.206700325012207 11.902826309204102 C12.118666648864746 11.877625465393066 12.026110649108887 11.866283416748047 11.934545516967773 11.865463256835938 L11.934545516967773 11.865463256835938 C11.978590965270996 11.761117935180664 12.022636413574219 11.65677261352539 12.066681861877441 11.552427291870117 L12.066681861877441 11.552427291870117"></path></svg>