<svg xmlns="http://www.w3.org/2000/svg" viewBox="0.0 0.0 24.0 24.0" height="200px" width="200px"><path fill="none" stroke="black" stroke-width=".3" stroke-opacity="1.0"  filling="0" d="M11.893799781799316 11.63503646850586 L11.893799781799316 11.63503646850586 C11.920217514038086 11.637164115905762 11.946636199951172 11.639290809631348 11.973053932189941 11.64141845703125 L11.973053932189941 11.64141845703125 C11.952254295349121 11.70138168334961 11.931453704833984 11.761345863342285 11.910654067993164 11.821309089660645 L11.910654067993164 11.821309089660645 C11.921972274780273 11.827281951904297 11.933290481567383 11.83325481414795 11.944608688354492 11.839227676391602 L11.944608688354492 11.839227676391602 C11.973090171813965 11.797155380249023 12.001572608947754 11.755082130432129 12.030054092407227 11.71300983428955 L12.030054092407227 11.71300983428955 C12.10402774810791 11.7410306930542 12.12128734588623 12.014490127563477 12.111108779907227 11.93604564666748 L12.111108779907227 11.93604564666748 C12.351827621459961 11.797113418579102 12.058331489562988 11.726272583007812 12.013254165649414 11.934027671813965 L12.013254165649414 11.934027671813965 C11.923369407653809 11.875384330749512 11.851181030273438 11.733534812927246 11.893799781799316 11.63503646850586 L11.893799781799316 11.63503646850586"></path></svg>