<svg xmlns="http://www.w3.org/2000/svg" viewBox="0.0 0.0 24.0 24.0" height="200px" width="200px"><path fill="none" stroke="black" stroke-width=".3" stroke-opacity="1.0"  filling="0" d="M11.98488998413086 12.020755767822266 L11.98488998413086 12.020755767822266 C12.088394165039062 12.072530746459961 12.178872108459473 12.147171974182129 12.272945404052734 12.214581489562988 L12.272945404052734 12.214581489562988 C12.185500144958496 12.248527526855469 12.098054885864258 12.28247356414795 12.01060962677002 12.31641960144043 L12.01060962677002 12.31641960144043 C12.073763847351074 12.280682563781738 12.136919021606445 12.244946479797363 12.2000732421875 12.209209442138672 L12.2000732421875 12.209209442138672 C12.12015438079834 12.202509880065918 12.040236473083496 12.195809364318848 11.960317611694336 12.189109802246094 L11.960317611694336 12.189109802246094 C11.919363021850586 12.146845817565918 11.878408432006836 12.104582786560059 11.837453842163086 12.062318801879883 L11.837453842163086 12.062318801879883 C11.837453842163086 12.128954887390137 11.837453842163086 12.195591926574707 11.837453842163086 12.262228012084961 L11.837453842163086 12.262228012084961 C11.814327239990234 12.170799255371094 11.890649795532227 12.024327278137207 11.98488998413086 12.020755767822266 L11.98488998413086 12.020755767822266"></path></svg>