<svg xmlns="http://www.w3.org/2000/svg" viewBox="0.0 0.0 24.0 24.0" height="200px" width="200px"><path fill="none" stroke="black" stroke-width=".3" stroke-opacity="1.0"  filling="0" d="M12.269673347473145 11.116063117980957 L12.269673347473145 11.116063117980957 C12.307543754577637 11.195771217346191 12.318418502807617 11.28965950012207 12.310853958129883 11.377581596374512 L12.310853958129883 11.377581596374512 C12.227127075195312 11.376518249511719 12.143399238586426 11.375454902648926 12.059672355651855 11.374391555786133 L12.059672355651855 11.374391555786133 C12.107817649841309 11.318318367004395 12.155963897705078 11.262246131896973 12.204109191894531 11.206172943115234 L12.204109191894531 11.206172943115234 C12.159445762634277 11.195799827575684 12.114782333374023 11.18542766571045 12.07011890411377 11.175054550170898 L12.07011890411377 11.175054550170898 C11.92611026763916 11.24036979675293 11.64444637298584 11.324457168579102 11.595736503601074 11.174018859863281 L11.595736503601074 11.174018859863281 C11.679527282714844 11.155945777893066 11.76331901550293 11.137873649597168 11.8471097946167 11.119800567626953 L11.8471097946167 11.119800567626953 C11.801301002502441 11.1698637008667 11.755491256713867 11.219927787780762 11.70968246459961 11.269990921020508 L11.70968246459961 11.269990921020508 C11.895122528076172 11.214420318603516 12.08253288269043 11.165605545043945 12.269673347473145 11.116063117980957 L12.269673347473145 11.116063117980957"></path></svg>