<svg xmlns="http://www.w3.org/2000/svg" viewBox="0.0 0.0 24.0 24.0" height="200px" width="200px"><path fill="none" stroke="black" stroke-width=".3" stroke-opacity="1.0"  filling="0" d="M12.415308952331543 12.352309226989746 L12.415308952331543 12.352309226989746 C12.476171493530273 12.392552375793457 12.545186042785645 12.455445289611816 12.545318603515625 12.528409004211426 L12.545318603515625 12.528409004211426 C12.515936851501465 12.543953895568848 12.486554145812988 12.559499740600586 12.457172393798828 12.575044631958008 L12.457172393798828 12.575044631958008 C12.406881332397461 12.551880836486816 12.356590270996094 12.528717994689941 12.306299209594727 12.50555419921875 L12.306299209594727 12.50555419921875 C12.156251907348633 12.830282211303711 11.872097969055176 12.884902954101562 11.609699249267578 12.610008239746094 L11.609699249267578 12.610008239746094 C11.618526458740234 12.60324478149414 11.627354621887207 12.596481323242188 11.636181831359863 12.589717864990234 L11.636181831359863 12.589717864990234 C11.648554801940918 12.528363227844238 11.660926818847656 12.467009544372559 11.673299789428711 12.405654907226562 L11.673299789428711 12.405654907226562 C11.921274185180664 12.406049728393555 12.16819953918457 12.373003959655762 12.415308952331543 12.352309226989746 L12.415308952331543 12.352309226989746"></path>
<path fill="none" stroke="black" stroke-width=".3" stroke-opacity="1.0"  filling="0" d="M11.981100082397461 12.479400634765625 L11.981100082397461 12.479400634765625 C12.664731979370117 12.673505783081055 11.254862785339355 12.654681205749512 11.981100082397461 12.479400634765625 L11.981100082397461 12.479400634765625"></path></svg>