<svg xmlns="http://www.w3.org/2000/svg" viewBox="0.0 0.0 24.0 24.0" height="200px" width="200px"><path fill="none" stroke="black" stroke-width=".3" stroke-opacity="1.0"  filling="0" d="M11.959254264831543 12.59918212890625 L11.959254264831543 12.59918212890625 C12.047419548034668 12.690362930297852 12.141816139221191 12.83457088470459 12.281454086303711 12.807026863098145 L12.281454086303711 12.807026863098145 C12.265390396118164 12.752317428588867 12.249326705932617 12.697608947753906 12.23326301574707 12.642899513244629 L12.23326301574707 12.642899513244629 C12.3051176071167 12.66595458984375 12.376972198486328 12.689008712768555 12.448826789855957 12.712063789367676 L12.448826789855957 12.712063789367676 C12.067684173583984 13.071869850158691 11.66491985321045 12.917549133300781 11.20317268371582 12.747818946838379 L11.20317268371582 12.747818946838379 C11.305182456970215 12.706806182861328 11.435223579406738 12.722880363464355 11.53186321258545 12.775309562683105 L11.53186321258545 12.775309562683105 C11.67432689666748 12.71660041809082 11.816790580749512 12.657891273498535 11.959254264831543 12.59918212890625 L11.959254264831543 12.59918212890625"></path>
<path fill="none" stroke="black" stroke-width=".3" stroke-opacity="1.0"  filling="0" d="M11.80224609375 12.704536437988281 L11.80224609375 12.704536437988281 C12.034651756286621 12.7399263381958 11.846935272216797 12.84506607055664 11.682981491088867 12.781227111816406 L11.682981491088867 12.781227111816406 C11.722736358642578 12.755663871765137 11.762491226196289 12.73009967803955 11.80224609375 12.704536437988281 L11.80224609375 12.704536437988281"></path></svg>