<svg xmlns="http://www.w3.org/2000/svg" viewBox="0.0 0.0 24.0 24.0" height="200px" width="200px"><path fill="none" stroke="black" stroke-width=".3" stroke-opacity="1.0"  filling="0" d="M12.280773162841797 10.408036231994629 L12.280773162841797 10.408036231994629 C12.340119361877441 10.408409118652344 12.39946460723877 10.408781051635742 12.458810806274414 10.409153938293457 L12.458810806274414 10.409153938293457 C12.45880126953125 10.469263076782227 12.45879077911377 10.529372215270996 12.458781242370605 10.589481353759766 L12.458781242370605 10.589481353759766 C12.21042251586914 10.554635047912598 11.921271324157715 10.480815887451172 11.686091423034668 10.60399055480957 L11.686091423034668 10.60399055480957 C11.693055152893066 10.61827278137207 11.700017929077148 10.632554054260254 11.706981658935547 10.646836280822754 L11.706981658935547 10.646836280822754 C11.841686248779297 10.676204681396484 12.548500061035156 10.54076099395752 12.483246803283691 10.778127670288086 C12.430160522460938 10.971235275268555 11.719229698181152 10.824825286865234 11.512282371520996 10.812054634094238 L11.512282371520996 10.812054634094238 C11.509373664855957 10.800763130187988 11.506464004516602 10.789472579956055 11.503555297851562 10.778181076049805 L11.503555297851562 10.778181076049805 C11.528464317321777 10.75207233428955 11.553373336791992 10.72596263885498 11.578282356262207 10.699853897094727 L11.578282356262207 10.699853897094727 C11.552045822143555 10.664872169494629 11.525810241699219 10.629890441894531 11.499573707580566 10.594908714294434 L11.499573707580566 10.594908714294434 C11.799043655395508 10.453587532043457 11.973169326782227 10.471028327941895 12.280773162841797 10.408036231994629 L12.280773162841797 10.408036231994629"></path></svg>