<svg xmlns="http://www.w3.org/2000/svg" viewBox="0.0 0.0 24.0 24.0" height="200px" width="200px"><path fill="none" stroke="black" stroke-width=".3" stroke-opacity="1.0"  filling="0" d="M10.334454536437988 11.187353134155273 L10.334454536437988 11.187353134155273 C10.385199546813965 11.187353134155273 10.435945510864258 11.187353134155273 10.486690521240234 11.187353134155273 L10.486690521240234 11.187353134155273 C10.408445358276367 11.335053443908691 10.3302001953125 11.48275375366211 10.251955032348633 11.630454063415527 L10.251955032348633 11.630454063415527 C10.3233003616333 11.576299667358398 10.394645690917969 11.52214527130127 10.465991020202637 11.46799087524414 L10.465991020202637 11.46799087524414 C10.721212387084961 11.510443687438965 10.408493041992188 12.123055458068848 10.231119155883789 11.960563659667969 L10.231119155883789 11.960563659667969 C10.258527755737305 11.886336326599121 10.28593635559082 11.812108039855957 10.313344955444336 11.73788070678711 L10.313344955444336 11.73788070678711 C10.230917930603027 11.844708442687988 10.148490905761719 11.95153522491455 10.06606388092041 12.05836296081543 L10.06606388092041 12.05836296081543 C10.028327941894531 12.043581008911133 9.990591049194336 12.028800010681152 9.952855110168457 12.014018058776855 L9.952855110168457 12.014018058776855 C9.999064445495605 11.93615436553955 10.045272827148438 11.85828971862793 10.091482162475586 11.780426025390625 L10.091482162475586 11.780426025390625 C10.069363594055176 11.727462768554688 10.047245979309082 11.674498558044434 10.025127410888672 11.621535301208496 L10.025127410888672 11.621535301208496 C10.168753623962402 11.516898155212402 10.263288497924805 11.350180625915527 10.334454536437988 11.187353134155273 L10.334454536437988 11.187353134155273"></path></svg>