<svg xmlns="http://www.w3.org/2000/svg" viewBox="0.0 0.0 24.0 24.0" height="200px" width="200px"><path fill="none" stroke="black" stroke-width=".3" stroke-opacity="1.0"  filling="0" d="M12.07339096069336 10.832127571105957 L12.07339096069336 10.832127571105957 C12.11625862121582 10.883747100830078 12.134617805480957 10.956335067749023 12.136063575744629 11.023417472839355 L12.136063575744629 11.023417472839355 C12.23447322845459 10.99857234954834 12.332881927490234 10.973726272583008 12.431291580200195 10.948881149291992 L12.431291580200195 10.948881149291992 C12.404582023620605 10.925436019897461 12.377873420715332 10.901989936828613 12.351163864135742 10.878544807434082 L12.351163864135742 10.878544807434082 C12.560041427612305 10.731708526611328 12.342772483825684 11.489187240600586 11.604190826416016 11.00424575805664 L11.604190826416016 11.00424575805664 C11.760590553283691 10.94687271118164 11.916991233825684 10.889500617980957 12.07339096069336 10.832127571105957 L12.07339096069336 10.832127571105957"></path>
<path fill="none" stroke="black" stroke-width=".3" stroke-opacity="1.0"  filling="0" d="M12.039162635803223 10.950709342956543 L12.039162635803223 10.950709342956543 C11.998543739318848 11.02098274230957 11.877777099609375 11.018828392028809 11.799899101257324 10.995954513549805 L11.799899101257324 10.995954513549805 C11.879653930664062 10.980873107910156 11.959407806396484 10.965790748596191 12.039162635803223 10.950709342956543 L12.039162635803223 10.950709342956543"></path></svg>