<svg xmlns="http://www.w3.org/2000/svg" viewBox="0.0 0.0 24.0 24.0" height="200px" width="200px"><path fill="none" stroke="black" stroke-width=".3" stroke-opacity="1.0"  filling="0" d="M13.155081748962402 11.86257266998291 L13.155081748962402 11.86257266998291 C13.22788143157959 11.88614559173584 13.300682067871094 11.909717559814453 13.373481750488281 11.933290481567383 L13.373481750488281 11.933290481567383 C13.32153606414795 11.939208984375 13.269591331481934 11.9451265335083 13.217645645141602 11.951045036315918 L13.217645645141602 11.951045036315918 C13.198081970214844 11.978599548339844 13.178518295288086 12.006155014038086 13.158954620361328 12.033709526062012 L13.158954620361328 12.033709526062012 C13.234536170959473 12.076654434204102 13.310117721557617 12.119600296020508 13.385699272155762 12.162545204162598 L13.385699272155762 12.162545204162598 C13.287317276000977 12.15380859375 13.188936233520508 12.145072937011719 13.090554237365723 12.136336326599121 L13.090554237365723 12.136336326599121 C13.014276504516602 12.18530559539795 12.891471862792969 12.195579528808594 12.818673133850098 12.141572952270508 L12.818673133850098 12.141572952270508 C12.8776273727417 12.141572952270508 12.936582565307617 12.141572952270508 12.995536804199219 12.141572952270508 L12.995536804199219 12.141572952270508 C12.945427894592285 12.088582038879395 12.895318031311035 12.035591125488281 12.845209121704102 11.982600212097168 L12.845209121704102 11.982600212097168 C12.9043550491333 11.946054458618164 12.963500022888184 11.909509658813477 13.022645950317383 11.872963905334473 L13.022645950317383 11.872963905334473 C12.987337112426758 11.903182029724121 12.952027320861816 11.933401107788086 12.916718482971191 11.963619232177734 L12.916718482971191 11.963619232177734 C12.96542739868164 11.997509956359863 13.01413631439209 12.031400680541992 13.062845230102539 12.065291404724121 L13.062845230102539 12.065291404724121 C13.09359073638916 11.997718811035156 13.124336242675781 11.930145263671875 13.155081748962402 11.86257266998291 L13.155081748962402 11.86257266998291"></path></svg>