<svg xmlns="http://www.w3.org/2000/svg" viewBox="0.0 0.0 24.0 24.0" height="200px" width="200px"><path fill="none" stroke="black" stroke-width=".3" stroke-opacity="1.0"  filling="0" d="M12.57272720336914 11.850600242614746 L12.57272720336914 11.850600242614746 C12.612017631530762 11.852727890014648 12.6513090133667 11.85485553741455 12.69059944152832 11.856983184814453 L12.69059944152832 11.856983184814453 C12.652144432067871 11.953165054321289 12.613690376281738 12.049345970153809 12.575235366821289 12.145527839660645 L12.575235366821289 12.145527839660645 C12.627635955810547 12.15185546875 12.680035591125488 12.158182144165039 12.732436180114746 12.164509773254395 L12.732436180114746 12.164509773254395 C12.743736267089844 12.180791854858398 12.755036354064941 12.197072982788086 12.766336441040039 12.21335506439209 L12.766336441040039 12.21335506439209 C12.64487361907959 12.259525299072266 12.577457427978516 12.2205810546875 12.447408676147461 12.207490921020508 L12.447408676147461 12.207490921020508 C12.495990753173828 12.12090015411377 12.544572830200195 12.034309387207031 12.593154907226562 11.947718620300293 L12.593154907226562 11.947718620300293 C12.548927307128906 11.9358549118042 12.504700660705566 11.923991203308105 12.46047306060791 11.912127494812012 L12.46047306060791 11.912127494812012 C12.461199760437012 11.896472930908203 12.46192741394043 11.880818367004395 12.462654113769531 11.865163803100586 L12.462654113769531 11.865163803100586 C12.499344825744629 11.860309600830078 12.536036491394043 11.855454444885254 12.57272720336914 11.850600242614746 L12.57272720336914 11.850600242614746"></path></svg>