<svg xmlns="http://www.w3.org/2000/svg" viewBox="0.0 0.0 24.0 24.0" height="200px" width="200px"><path fill="none" stroke="black" stroke-width=".3" stroke-opacity="1.0"  filling="0" d="M11.54277229309082 11.83592700958252 L11.54277229309082 11.83592700958252 C11.610044479370117 11.83592700958252 11.67731761932373 11.83592700958252 11.744589805603027 11.83592700958252 L11.744589805603027 11.83592700958252 C11.747516632080078 11.843490600585938 11.750444412231445 11.851054191589355 11.753371238708496 11.858617782592773 L11.753371238708496 11.858617782592773 C11.718353271484375 11.88796329498291 11.683335304260254 11.91730785369873 11.648317337036133 11.946653366088867 L11.648317337036133 11.946653366088867 C11.683235168457031 11.97339916229248 11.718153953552246 12.000144004821777 11.753071784973145 12.02688980102539 L11.753071784973145 12.02688980102539 C11.703153610229492 12.043144226074219 11.653236389160156 12.059399604797363 11.603318214416504 12.075654029846191 L11.603318214416504 12.075654029846191 C11.651264190673828 12.100181579589844 11.699209213256836 12.12470817565918 11.74715518951416 12.149235725402832 L11.74715518951416 12.149235725402832 C11.734363555908203 12.173126220703125 11.721572875976562 12.197017669677734 11.708781242370605 12.220908164978027 L11.708781242370605 12.220908164978027 C11.65344524383545 12.207289695739746 11.598108291625977 12.193672180175781 11.54277229309082 12.1800537109375 L11.54277229309082 12.1800537109375 C11.54277229309082 12.06534481048584 11.54277229309082 11.95063591003418 11.54277229309082 11.83592700958252 L11.54277229309082 11.83592700958252"></path></svg>