<svg xmlns="http://www.w3.org/2000/svg" viewBox="0.0 0.0 24.0 24.0" height="200px" width="200px"><path fill="none" stroke="black" stroke-width=".3" stroke-opacity="1.0"  filling="0" d="M11.996726989746094 11.870427131652832 L11.996726989746094 11.870427131652832 C12.0457181930542 11.874672889709473 12.094709396362305 11.878917694091797 12.14370059967041 11.883163452148438 L12.14370059967041 11.883163452148438 C12.088964462280273 11.908390998840332 12.03422737121582 11.93361759185791 11.979491233825684 11.958845138549805 L11.979491233825684 11.958845138549805 C12.03038215637207 11.97799015045166 12.081273078918457 11.997136116027832 12.132164001464844 12.016281127929688 L12.132164001464844 12.016281127929688 C12.08667278289795 12.043763160705566 12.041182518005371 12.071244239807129 11.995691299438477 12.098726272583008 L11.995691299438477 12.098726272583008 C11.998027801513672 12.107372283935547 12.00036334991455 12.11601734161377 12.002699851989746 12.124663352966309 L12.002699851989746 12.124663352966309 C12.044717788696289 12.131599426269531 12.086736679077148 12.13853645324707 12.128754615783691 12.145472526550293 L12.128754615783691 12.145472526550293 C12.062182426452637 12.15769100189209 11.995609283447266 12.16990852355957 11.929037094116211 12.182126998901367 L11.929037094116211 12.182126998901367 C11.951600074768066 12.078227043151855 11.974164009094238 11.974327087402344 11.996726989746094 11.870427131652832 L11.996726989746094 11.870427131652832"></path></svg>