<svg xmlns="http://www.w3.org/2000/svg" viewBox="0.0 0.0 24.0 24.0" height="200px" width="200px"><path fill="none" stroke="black" stroke-width=".3" stroke-opacity="1.0"  filling="0" d="M12.353318214416504 11.513426780700684 L12.353318214416504 11.513426780700684 C12.391745567321777 11.599035263061523 12.43017292022705 11.68464469909668 12.468600273132324 11.77025318145752 L12.468600273132324 11.77025318145752 C12.37653636932373 11.77025318145752 12.284473419189453 11.77025318145752 12.19240951538086 11.77025318145752 L12.19240951538086 11.77025318145752 C12.23515510559082 11.714780807495117 12.277899742126465 11.659308433532715 12.320645332336426 11.603836059570312 L12.320645332336426 11.603836059570312 C11.86881160736084 11.766199111938477 11.187273979187012 11.496111869812012 11.851582527160645 11.52389907836914 L11.851582527160645 11.52389907836914 C11.851855278015137 11.53271770477295 11.852128028869629 11.541535377502441 11.852400779724121 11.55035400390625 L11.852400779724121 11.55035400390625 C11.802509307861328 11.578408241271973 11.752618789672852 11.606463432312012 11.702727317810059 11.634517669677734 L11.702727317810059 11.634517669677734 C11.953959465026855 11.708903312683105 12.03503131866455 11.60171127319336 12.353318214416504 11.513426780700684 L12.353318214416504 11.513426780700684"></path></svg>