<svg xmlns="http://www.w3.org/2000/svg" viewBox="0.0 0.0 24.0 24.0" height="200px" width="200px"><path fill="none" stroke="black" stroke-width=".3" stroke-opacity="1.0"  filling="0" d="M10.957663536071777 11.55720043182373 L10.957663536071777 11.55720043182373 C10.897273063659668 11.62036418914795 10.836881637573242 11.683527946472168 10.776491165161133 11.746691703796387 L10.776491165161133 11.746691703796387 C10.826745986938477 11.73938274383545 10.876999855041504 11.732072830200195 10.927254676818848 11.724763870239258 L10.927254676818848 11.724763870239258 C10.865516662597656 11.834365844726562 10.767865180969238 11.921175956726074 10.672391891479492 12.003083229064941 L10.672391891479492 12.003083229064941 C10.726631164550781 11.995616912841797 10.780179977416992 11.982467651367188 10.832427978515625 11.966100692749023 L10.832427978515625 11.966100692749023 C10.838482856750488 11.997018814086914 10.844536781311035 12.027937889099121 10.850591659545898 12.058856010437012 L10.850591659545898 12.058856010437012 C10.806973457336426 12.094937324523926 10.763354301452637 12.131019592285156 10.719736099243164 12.16710090637207 L10.719736099243164 12.16710090637207 C10.66652774810791 12.135237693786621 10.61331844329834 12.103373527526855 10.560110092163086 12.071510314941406 L10.560110092163086 12.071510314941406 C10.557019233703613 12.02791976928711 10.553927421569824 11.984328269958496 10.550836563110352 11.9407377243042 L10.550836563110352 11.9407377243042 C10.546299934387207 11.943010330200195 10.541764259338379 11.945281982421875 10.537227630615234 11.947554588317871 L10.537227630615234 11.947554588317871 C10.432469367980957 11.729451179504395 10.76185417175293 11.59407901763916 10.957663536071777 11.55720043182373 L10.957663536071777 11.55720043182373"></path></svg>