<svg xmlns="http://www.w3.org/2000/svg" viewBox="0.0 0.0 24.0 24.0" height="200px" width="200px"><path fill="none" stroke="black" stroke-width=".3" stroke-opacity="1.0"  filling="0" d="M12.285819053649902 11.863855361938477 L12.285819053649902 11.863855361938477 C12.30410099029541 11.864982604980469 12.322381973266602 11.866109848022461 12.34066390991211 11.867237091064453 L12.34066390991211 11.867237091064453 C12.35168170928955 11.889845848083496 12.362700462341309 11.912455558776855 12.37371826171875 11.935064315795898 L12.37371826171875 11.935064315795898 C12.336345672607422 11.94309139251709 12.298972129821777 11.951118469238281 12.26159954071045 11.959145545959473 L12.26159954071045 11.959145545959473 C12.298799514770508 11.993463516235352 12.336000442504883 12.027782440185547 12.373200416564941 12.062100410461426 L12.373200416564941 12.062100410461426 C12.332863807678223 12.074172973632812 12.29252815246582 12.0862455368042 12.252191543579102 12.098318099975586 L12.252191543579102 12.098318099975586 C12.282554626464844 12.144754409790039 12.312918663024902 12.191190719604492 12.343281745910645 12.237627029418945 L12.343281745910645 12.237627029418945 C12.283435821533203 12.227890968322754 12.223590850830078 12.218153953552246 12.163744926452637 12.208417892456055 L12.163744926452637 12.208417892456055 C12.163880348205566 12.086568832397461 12.200368881225586 11.95072078704834 12.285819053649902 11.863855361938477 L12.285819053649902 11.863855361938477"></path></svg>