<svg xmlns="http://www.w3.org/2000/svg" viewBox="0.0 0.0 24.0 24.0" height="200px" width="200px"><path fill="none" stroke="black" stroke-width=".3" stroke-opacity="1.0"  filling="0" d="M12.169963836669922 12.5253267288208 L12.169963836669922 12.5253267288208 C12.204453468322754 12.579000473022461 12.216697692871094 12.646855354309082 12.217826843261719 12.710644721984863 L12.217826843261719 12.710644721984863 C12.295463562011719 12.70804500579834 12.373099327087402 12.7054443359375 12.450736045837402 12.702844619750977 L12.450736045837402 12.702844619750977 C12.429290771484375 12.65406322479248 12.407845497131348 12.605281829833984 12.38640022277832 12.556500434875488 L12.38640022277832 12.556500434875488 C13.166434288024902 12.782881736755371 11.637293815612793 12.890327453613281 11.291454315185547 12.612054824829102 L11.291454315185547 12.612054824829102 C11.611493110656738 12.645594596862793 11.846756935119629 12.584961891174316 12.169963836669922 12.5253267288208 L12.169963836669922 12.5253267288208"></path>
<path fill="none" stroke="black" stroke-width=".3" stroke-opacity="1.0"  filling="0" d="M12.100581169128418 12.639382362365723 L12.100581169128418 12.639382362365723 C12.022799491882324 12.655963897705078 11.94501781463623 12.67254638671875 11.867236137390137 12.689127922058105 L11.867236137390137 12.689127922058105 C11.94501781463623 12.67254638671875 12.022799491882324 12.655963897705078 12.100581169128418 12.639382362365723 L12.100581169128418 12.639382362365723"></path></svg>