<svg xmlns="http://www.w3.org/2000/svg" viewBox="0.0 0.0 24.0 24.0" height="200px" width="200px"><path fill="none" stroke="black" stroke-width=".3" stroke-opacity="1.0"  filling="0" d="M12.302644729614258 12.185563087463379 L12.302644729614258 12.185563087463379 C12.409208297729492 12.191144943237305 12.515772819519043 12.19672679901123 12.622336387634277 12.202308654785156 L12.622336387634277 12.202308654785156 C12.622336387634277 12.285208702087402 12.622336387634277 12.368108749389648 12.622336387634277 12.451008796691895 L12.622336387634277 12.451008796691895 C12.372842788696289 12.424760818481445 12.116456985473633 12.306715965270996 11.873945236206055 12.31470012664795 L11.873945236206055 12.31470012664795 C11.871853828430176 12.324363708496094 11.869762420654297 12.334027290344238 11.867671012878418 12.343690872192383 L11.867671012878418 12.343690872192383 C11.913561820983887 12.374208450317383 11.959452629089355 12.4047269821167 12.005343437194824 12.4352445602417 L12.005343437194824 12.4352445602417 C11.914652824401855 12.357880592346191 11.82396125793457 12.280517578125 11.733270645141602 12.203153610229492 L11.733270645141602 12.203153610229492 C11.995380401611328 12.214341163635254 12.230111122131348 12.331042289733887 12.487908363342285 12.322582244873047 L12.487908363342285 12.322582244873047 C12.487262725830078 12.310809135437012 12.486618041992188 12.299036026000977 12.48597240447998 12.287262916564941 L12.48597240447998 12.287262916564941 C12.4248628616333 12.253362655639648 12.363754272460938 12.219463348388672 12.302644729614258 12.185563087463379 L12.302644729614258 12.185563087463379"></path></svg>