<svg xmlns="http://www.w3.org/2000/svg" viewBox="0.0 0.0 24.0 24.0" height="200px" width="200px"><path fill="none" stroke="black" stroke-width=".3" stroke-opacity="1.0"  filling="0" d="M0.35454559326171875 10.430100440979004 L0.35454559326171875 10.430100440979004 C1.5604909658432007 10.430100440979004 2.7664361000061035 10.430100440979004 3.972381591796875 10.430100440979004 L3.972381591796875 10.430100440979004 C3.972381591796875 10.65181827545166 3.972381591796875 10.873537063598633 3.972381591796875 11.095254898071289 L3.972381591796875 11.095254898071289 C3.491272211074829 11.095254898071289 3.0101630687713623 11.095254898071289 2.5290536880493164 11.095254898071289 L2.5290536880493164 11.095254898071289 C2.53666090965271 11.570688247680664 2.7819504737854004 13.234094619750977 2.483591079711914 13.593681335449219 L2.483591079711914 13.593681335449219 C2.2454001903533936 13.593681335449219 2.007209062576294 13.593681335449219 1.7690181732177734 13.593681335449219 L1.7690181732177734 13.593681335449219 C1.5783497095108032 12.896687507629395 1.7765322923660278 11.844208717346191 1.731954574584961 11.099918365478516 L1.731954574584961 11.099918365478516 C0.6470322608947754 11.099918365478516 0.35495615005493164 11.4323091506958 0.35454559326171875 10.430100440979004 L0.35454559326171875 10.430100440979004"></path></svg>