<svg xmlns="http://www.w3.org/2000/svg" viewBox="0.0 0.0 24.0 24.0" height="200px" width="200px"><path fill="none" stroke="black" stroke-width=".3" stroke-opacity="1.0"  filling="0" d="M12.219819068908691 10.49940013885498 L12.219819068908691 10.49940013885498 C12.35922908782959 10.500208854675293 12.459909439086914 10.651752471923828 12.545509338378906 10.761791229248047 L12.545509338378906 10.761791229248047 C12.443073272705078 10.761791229248047 12.340636253356934 10.761791229248047 12.238200187683105 10.761791229248047 L12.238200187683105 10.761791229248047 C12.297372817993164 10.714345932006836 12.356545448303223 10.666899681091309 12.415718078613281 10.619454383850098 L12.415718078613281 10.619454383850098 C12.41207218170166 10.6107816696167 12.408427238464355 10.6021089553833 12.404781341552734 10.593436241149902 L12.404781341552734 10.593436241149902 C12.347908973693848 10.593436241149902 12.291035652160645 10.593436241149902 12.234163284301758 10.593436241149902 L12.234163284301758 10.593436241149902 C11.7855863571167 10.725587844848633 11.718321800231934 10.909466743469238 11.5921630859375 10.542190551757812 L11.5921630859375 10.542190551757812 C11.70819091796875 10.541799545288086 11.824217796325684 10.541409492492676 11.940245628356934 10.54101848602295 L11.940245628356934 10.54101848602295 C11.88571834564209 10.57759952545166 11.831191062927246 10.614181518554688 11.776663780212402 10.650762557983398 L11.776663780212402 10.650762557983398 C11.779136657714844 10.660926818847656 11.781608581542969 10.671090126037598 11.78408145904541 10.681254386901855 L11.78408145904541 10.681254386901855 C11.832245826721191 10.685608863830566 11.880409240722656 10.689963340759277 11.928573608398438 10.694317817687988 L11.928573608398438 10.694317817687988 C11.995224952697754 10.598381042480469 12.115531921386719 10.552035331726074 12.219819068908691 10.49940013885498 L12.219819068908691 10.49940013885498"></path></svg>