<svg xmlns="http://www.w3.org/2000/svg" viewBox="0.0 0.0 24.0 24.0" height="200px" width="200px"><path fill="none" stroke="black" stroke-width=".3" stroke-opacity="1.0"  filling="0" d="M31.85116195678711 10.5 L31.85116195678711 10.5 C33.498077392578125 10.502695083618164 34.96723175048828 12.419124603271484 33.1395263671875 13.497599601745605 C32.33315658569336 13.973414421081543 31.006925582885742 13.592517852783203 30.1105899810791 13.680708885192871 L30.1105899810791 13.680708885192871 C29.9377498626709 12.676750183105469 30.081819534301758 11.533526420593262 30.081819534301758 10.510854721069336 L30.081819534301758 10.510854721069336 C30.66876983642578 10.453019142150879 31.261369705200195 10.500144958496094 31.85116195678711 10.5 L31.85116195678711 10.5"></path>
<path fill="none" stroke="black" stroke-width=".3" stroke-opacity="1.0"  filling="0" d="M30.878480911254883 11.21590805053711 L30.878480911254883 11.21590805053711 C31.318769454956055 11.215948104858398 32.28677749633789 11.128235816955566 32.66620635986328 11.327099800109863 C33.16290283203125 11.587425231933594 33.374942779541016 12.495471000671387 32.811187744140625 12.800808906555176 C32.208595275878906 13.127181053161621 31.52865219116211 12.942173957824707 30.878480911254883 12.991063117980957 L30.878480911254883 12.991063117980957 C30.878480911254883 12.399344444274902 30.878480911254883 11.807626724243164 30.878480911254883 11.21590805053711 L30.878480911254883 11.21590805053711"></path></svg>