<svg xmlns="http://www.w3.org/2000/svg" viewBox="0.0 0.0 24.0 24.0" height="200px" width="200px"><path fill="none" stroke="black" stroke-width=".3" stroke-opacity="1.0"  filling="0" d="M12.3488187789917 11.484463691711426 L12.3488187789917 11.484463691711426 C12.36961841583252 11.520736694335938 12.390419006347656 11.557008743286133 12.411218643188477 11.593281745910645 L12.411218643188477 11.593281745910645 C12.364200592041016 11.6284818649292 12.317182540893555 11.663681983947754 12.270164489746094 11.698882102966309 L12.270164489746094 11.698882102966309 C12.344773292541504 11.708809852600098 12.419382095336914 11.71873664855957 12.493990898132324 11.72866439819336 L12.493990898132324 11.72866439819336 C12.380971908569336 11.799103736877441 12.273724555969238 11.880203247070312 12.176618576049805 11.97133731842041 L12.176618576049805 11.97133731842041 C12.247700691223145 11.973464965820312 12.318781852722168 11.975591659545898 12.389863967895508 11.9777193069458 L12.389863967895508 11.9777193069458 C12.1655855178833 12.284910202026367 12.02752685546875 12.063984870910645 12.079473495483398 11.786673545837402 L12.079473495483398 11.786673545837402 C12.073518753051758 11.780200958251953 12.067564010620117 11.773727416992188 12.061609268188477 11.767254829406738 L12.061609268188477 11.767254829406738 C12.15734577178955 11.672990798950195 12.253082275390625 11.578727722167969 12.3488187789917 11.484463691711426 L12.3488187789917 11.484463691711426"></path></svg>