<svg xmlns="http://www.w3.org/2000/svg" viewBox="0.0 0.0 24.0 24.0" height="200px" width="200px"><path fill="none" stroke="black" stroke-width=".3" stroke-opacity="1.0"  filling="0" d="M-8.502328872680664 10.36797046661377 L-8.502328872680664 10.36797046661377 C-7.310976505279541 10.394099235534668 -7.1008758544921875 10.060523986816406 -6.958444595336914 11.05562686920166 L-6.958444595336914 11.05562686920166 C-7.651966094970703 11.142118453979492 -9.791950225830078 10.65110969543457 -10.175973892211914 11.155444145202637 C-10.596330642700195 11.707493782043457 -9.65115737915039 11.640087127685547 -9.52301025390625 11.640190124511719 C-8.507261276245117 11.641007423400879 -6.182727813720703 11.332619667053223 -6.932727813720703 13.14469051361084 C-7.352984428405762 14.160069465637207 -10.319452285766602 13.58178997039795 -11.097572326660156 13.58178997039795 L-11.097572326660156 13.58178997039795 C-11.093873023986816 13.348581314086914 -11.09017276763916 13.115371704101562 -11.08647346496582 12.882163047790527 L-11.08647346496582 12.882163047790527 C-10.527082443237305 12.882956504821777 -7.6553521156311035 13.109434127807617 -7.610403060913086 12.647371292114258 C-7.539913654327393 11.922762870788574 -10.655723571777344 12.757319450378418 -11.04324722290039 11.617415428161621 C-11.558675765991211 10.101278305053711 -9.272851943969727 10.383959770202637 -8.502328872680664 10.36797046661377 L-8.502328872680664 10.36797046661377"></path></svg>