<svg xmlns="http://www.w3.org/2000/svg" viewBox="0.0 0.0 24.0 24.0" height="200px" width="200px"><path fill="none" stroke="black" stroke-width=".3" stroke-opacity="1.0"  filling="0" d="M12.481719970703125 11.400053977966309 L12.481719970703125 11.400053977966309 C12.957672119140625 11.401178359985352 13.431899070739746 11.424339294433594 13.908164978027344 11.42419147491455 L13.908164978027344 11.42419147491455 C13.479340553283691 11.958735466003418 13.054400444030762 12.496418952941895 12.63340950012207 13.037154197692871 L12.63340950012207 13.037154197692871 C12.938722610473633 13.03713607788086 13.433858871459961 12.9524507522583 13.70997428894043 13.087226867675781 L13.70997428894043 13.087226867675781 C13.648590087890625 13.636011123657227 12.359074592590332 13.382329940795898 11.923937797546387 13.364645957946777 L11.923937797546387 13.364645957946777 C12.34217643737793 12.827455520629883 12.763398170471191 12.292572021484375 13.187810897827148 11.760245323181152 L13.187810897827148 11.760245323181152 C13.18091106414795 11.749099731445312 13.17401123046875 11.737955093383789 13.16711139678955 11.72680950164795 L13.16711139678955 11.72680950164795 C12.861639022827148 11.72680950164795 12.55616569519043 11.72680950164795 12.250693321228027 11.72680950164795 L12.250693321228027 11.72680950164795 C12.243093490600586 11.593633651733398 12.387744903564453 11.494723320007324 12.481719970703125 11.400053977966309 L12.481719970703125 11.400053977966309"></path></svg>