<svg xmlns="http://www.w3.org/2000/svg" viewBox="0.0 0.0 24.0 24.0" height="200px" width="200px"><path fill="none" stroke="black" stroke-width=".3" stroke-opacity="1.0"  filling="0" d="M10.888145446777344 10.419845581054688 L10.888145446777344 10.419845581054688 C10.99637222290039 10.436236381530762 11.104599952697754 10.452627182006836 11.2128267288208 10.46901798248291 L11.2128267288208 10.46901798248291 C11.06644058227539 11.361761093139648 11.109130859375 12.442560195922852 10.801582336425781 13.287464141845703 C10.47853946685791 14.174935340881348 9.340093612670898 12.920909881591797 9.362181663513184 12.338019371032715 C9.386143684387207 11.705662727355957 10.21051025390625 11.579205513000488 10.639172554016113 11.43728256225586 C10.84706974029541 11.368451118469238 10.858945846557617 10.577335357666016 10.888145446777344 10.419845581054688 L10.888145446777344 10.419845581054688"></path>
<path fill="none" stroke="black" stroke-width=".3" stroke-opacity="1.0"  filling="0" d="M10.661100387573242 11.767281532287598 L10.661100387573242 11.767281532287598 C10.59401798248291 12.230390548706055 10.526936531066895 12.693499565124512 10.459854125976562 13.156608581542969 L10.459854125976562 13.156608581542969 C9.30418872833252 13.03478717803955 9.724595069885254 11.872441291809082 10.661100387573242 11.767281532287598 L10.661100387573242 11.767281532287598"></path></svg>