<svg xmlns="http://www.w3.org/2000/svg" viewBox="0.0 0.0 24.0 24.0" height="200px" width="200px"><path fill="none" stroke="black" stroke-width=".3" stroke-opacity="1.0"  filling="0" d="M2.1495275497436523 10.303363800048828 L2.1495275497436523 10.303363800048828 C2.2584095001220703 10.344282150268555 2.3672914505004883 10.385199546813965 2.4761734008789062 10.426117897033691 L2.4761734008789062 10.426117897033691 C2.458082437515259 10.549118041992188 2.4399917125701904 10.672117233276367 2.421900749206543 10.795117378234863 L2.421900749206543 10.795117378234863 C2.025303363800049 10.600342750549316 1.2991364002227783 10.4815092086792 1.4334278106689453 11.263198852539062 C1.5225080251693726 11.781721115112305 3.4517006874084473 12.987060546875 1.6585359573364258 13.363554000854492 C1.4280678033828735 13.411943435668945 1.103251338005066 13.28162956237793 0.8570728302001953 13.188218116760254 L0.8570728302001953 13.188218116760254 C0.8614457249641418 13.047245025634766 0.8658186793327332 12.906272888183594 0.8701915740966797 12.765299797058105 L0.8701915740966797 12.765299797058105 C3.1338274478912354 13.864569664001465 0.7696589231491089 11.155478477478027 1.1736822128295898 10.67121696472168 C1.3963799476623535 10.404292106628418 1.824245810508728 10.425981521606445 2.1495275497436523 10.303363800048828 L2.1495275497436523 10.303363800048828"></path></svg>