<svg xmlns="http://www.w3.org/2000/svg" viewBox="0.0 0.0 24.0 24.0" height="200px" width="200px"><path fill="none" stroke="black" stroke-width=".3" stroke-opacity="1.0"  filling="0" d="M14.719472885131836 11.899091720581055 L14.719472885131836 11.899091720581055 C14.740245819091797 11.905455589294434 14.761017799377441 11.911818504333496 14.781790733337402 11.918182373046875 L14.781790733337402 11.918182373046875 C14.781790733337402 11.93636417388916 14.781790733337402 11.954545974731445 14.781790733337402 11.97272777557373 L14.781790733337402 11.97272777557373 C14.710772514343262 11.98045539855957 14.639753341674805 11.98818302154541 14.568735122680664 11.99591064453125 L14.568735122680664 11.99591064453125 C14.568735122680664 12.05042839050293 14.568735122680664 12.104947090148926 14.568735122680664 12.159464836120605 L14.568735122680664 12.159464836120605 C14.613626480102539 12.171919822692871 14.658516883850098 12.18437385559082 14.703408241271973 12.196828842163086 L14.703408241271973 12.196828842163086 C14.694408416748047 12.14747428894043 14.685408592224121 12.098119735717773 14.676408767700195 12.048765182495117 L14.676408767700195 12.048765182495117 C14.711536407470703 12.059774398803711 14.746663093566895 12.070783615112305 14.781790733337402 12.081792831420898 L14.781790733337402 12.081792831420898 C14.781800270080566 12.136346817016602 14.781808853149414 12.190900802612305 14.781818389892578 12.245454788208008 L14.781818389892578 12.245454788208008 C14.67810344696045 12.19063949584961 14.627493858337402 11.971902847290039 14.719472885131836 11.899091720581055 L14.719472885131836 11.899091720581055"></path></svg>