<svg xmlns="http://www.w3.org/2000/svg" viewBox="0.0 0.0 24.0 24.0" height="200px" width="200px"><path fill="none" stroke="black" stroke-width=".3" stroke-opacity="1.0"  filling="0" d="M12.785755157470703 11.89169979095459 L12.785755157470703 11.89169979095459 C12.785755157470703 12.019527435302734 12.785755157470703 12.147354125976562 12.785755157470703 12.275181770324707 L12.785755157470703 12.275181770324707 C12.759418487548828 12.210309028625488 12.733081817626953 12.145437240600586 12.706745147705078 12.080564498901367 L12.706745147705078 12.080564498901367 C12.64842700958252 12.088846206665039 12.590108871459961 12.097127914428711 12.531790733337402 12.105409622192383 L12.531790733337402 12.105409622192383 C12.51114559173584 12.151591300964355 12.490499496459961 12.197772979736328 12.469854354858398 12.2439546585083 L12.469854354858398 12.2439546585083 C12.469854354858398 12.129109382629395 12.469854354858398 12.014264106750488 12.469854354858398 11.899418830871582 L12.469854354858398 11.899418830871582 C12.518599510192871 11.933263778686523 12.56734561920166 11.967109680175781 12.616090774536133 12.000954627990723 L12.616090774536133 12.000954627990723 C12.672645568847656 11.964536666870117 12.72920036315918 11.928117752075195 12.785755157470703 11.89169979095459 L12.785755157470703 11.89169979095459"></path></svg>