<svg xmlns="http://www.w3.org/2000/svg" viewBox="0.0 0.0 24.0 24.0" height="200px" width="200px"><path fill="none" stroke="black" stroke-width=".3" stroke-opacity="1.0"  filling="0" d="M23.780452728271484 11.449363708496094 L23.780452728271484 11.449363708496094 C25.223251342773438 11.934224128723145 24.35642433166504 12.381132125854492 23.353008270263672 12.381653785705566 L23.353008270263672 12.381653785705566 C23.481689453125 13.295516014099121 23.786169052124023 12.977985382080078 24.438871383666992 12.928854942321777 L24.438871383666992 12.928854942321777 C24.23072052001953 14.21005630493164 21.888269424438477 12.61756420135498 23.780452728271484 11.449363708496094 L23.780452728271484 11.449363708496094"></path>
<path fill="none" stroke="black" stroke-width=".3" stroke-opacity="1.0"  filling="0" d="M23.98418426513672 11.749226570129395 L23.98418426513672 11.749226570129395 C24.057674407958984 11.882535934448242 24.13116455078125 12.015844345092773 24.204654693603516 12.149153709411621 L24.204654693603516 12.149153709411621 C23.96363639831543 12.149153709411621 23.722618103027344 12.149153709411621 23.481599807739258 12.149153709411621 L23.481599807739258 12.149153709411621 C23.46352767944336 12.130081176757812 23.44545555114746 12.11100959777832 23.427383422851562 12.091937065124512 L23.427383422851562 12.091937065124512 C23.539794921875 11.814705848693848 23.655683517456055 11.867772102355957 23.98418426513672 11.749226570129395 L23.98418426513672 11.749226570129395"></path></svg>