<svg xmlns="http://www.w3.org/2000/svg" viewBox="0.0 0.0 24.0 24.0" height="200px" width="200px"><path fill="none" stroke="black" stroke-width=".3" stroke-opacity="1.0"  filling="0" d="M13.796945571899414 10.861063957214355 L13.796945571899414 10.861063957214355 C13.918182373046875 10.861063957214355 14.03941822052002 10.861063957214355 14.16065502166748 10.861063957214355 L14.16065502166748 10.861063957214355 C14.129255294799805 10.994463920593262 14.097855567932129 11.127863883972168 14.066455841064453 11.261263847351074 L14.066455841064453 11.261263847351074 C14.204974174499512 11.261263847351074 14.343491554260254 11.261263847351074 14.482009887695312 11.261263847351074 L14.482009887695312 11.261263847351074 C14.469682693481445 11.352900505065918 14.457355499267578 11.444536209106445 14.445028305053711 11.536172866821289 L14.445028305053711 11.536172866821289 C14.297309875488281 11.536172866821289 14.149592399597168 11.536172866821289 14.001873970031738 11.536172866821289 L14.001873970031738 11.536172866821289 C13.954504013061523 11.811931610107422 13.547236442565918 13.451894760131836 14.338963508605957 12.80438232421875 L14.338963508605957 12.80438232421875 C14.657421112060547 13.256974220275879 13.912599563598633 13.331493377685547 13.665899276733398 13.191054344177246 C13.155065536499023 12.900252342224121 13.631023406982422 11.96571159362793 13.635217666625977 11.551063537597656 L13.635217666625977 11.551063537597656 C13.5262451171875 11.533963203430176 13.417271614074707 11.516863822937012 13.30829906463623 11.499763488769531 L13.30829906463623 11.499763488769531 C13.329663276672363 11.42090892791748 13.351027488708496 11.34205436706543 13.372391700744629 11.263199806213379 L13.372391700744629 11.263199806213379 C13.567316055297852 11.263447761535645 13.766416549682617 11.053582191467285 13.796945571899414 10.861063957214355 L13.796945571899414 10.861063957214355"></path></svg>