<svg xmlns="http://www.w3.org/2000/svg" viewBox="0.0 0.0 24.0 24.0" height="200px" width="200px"><path fill="none" stroke="black" stroke-width=".3" stroke-opacity="1.0"  filling="0" d="M13.436971664428711 11.896881103515625 L13.436971664428711 11.896881103515625 C13.452653884887695 12.025254249572754 13.46833610534668 12.153627395629883 13.484018325805664 12.282000541687012 L13.484018325805664 12.282000541687012 C13.409454345703125 12.212727546691895 13.334891319274902 12.143454551696777 13.260327339172363 12.07418155670166 L13.260327339172363 12.07418155670166 C13.256881713867188 12.129300117492676 13.253436088562012 12.184417724609375 13.249990463256836 12.23953628540039 L13.249990463256836 12.23953628540039 C13.213016510009766 12.139403343200684 13.189714431762695 12.005249977111816 13.253046035766602 11.919326782226562 L13.253046035766602 11.919326782226562 C13.300954818725586 11.97164535522461 13.34886360168457 12.023963928222656 13.396772384643555 12.076282501220703 L13.396772384643555 12.076282501220703 C13.406618118286133 12.075082778930664 13.416463851928711 12.073882102966309 13.426309585571289 12.07268238067627 L13.426309585571289 12.07268238067627 C13.429863929748535 12.014081954956055 13.433417320251465 11.95548152923584 13.436971664428711 11.896881103515625 L13.436971664428711 11.896881103515625"></path></svg>