<svg xmlns="http://www.w3.org/2000/svg" viewBox="0.0 0.0 24.0 24.0" height="200px" width="200px"><path fill="none" stroke="black" stroke-width=".3" stroke-opacity="1.0"  filling="0" d="M6.1276092529296875 11.260771751403809 L6.1276092529296875 11.260771751403809 C6.146663665771484 11.264135360717773 6.1657185554504395 11.267499923706055 6.184772968292236 11.27086353302002 L6.184772968292236 11.27086353302002 C6.184772968292236 11.405190467834473 6.184772968292236 11.539518356323242 6.184772968292236 11.673845291137695 L6.184772968292236 11.673845291137695 C5.310352802276611 11.348326683044434 5.279037952423096 12.819292068481445 5.261563777923584 13.175971031188965 L5.261563777923584 13.175971031188965 C5.148591041564941 13.197453498840332 5.035618305206299 13.218935012817383 4.922645568847656 13.24041748046875 L4.922645568847656 13.24041748046875 C5.021327495574951 12.583845138549805 5.120008945465088 11.92727279663086 5.218690872192383 11.270700454711914 L5.218690872192383 11.270700454711914 C5.323918342590332 11.270700454711914 5.429145336151123 11.270700454711914 5.534372806549072 11.270700454711914 L5.534372806549072 11.270700454711914 C5.5252275466918945 11.36035442352295 5.516081809997559 11.4500093460083 5.506936550140381 11.539663314819336 L5.506936550140381 11.539663314819336 C5.5145182609558105 11.54482650756836 5.522100448608398 11.5499906539917 5.529682159423828 11.555153846740723 L5.529682159423828 11.555153846740723 C5.669164657592773 11.382244110107422 5.916481018066406 11.329894065856934 6.1276092529296875 11.260771751403809 L6.1276092529296875 11.260771751403809"></path></svg>