<svg xmlns="http://www.w3.org/2000/svg" viewBox="0.0 0.0 24.0 24.0" height="200px" width="200px"><path fill="none" stroke="black" stroke-width=".3" stroke-opacity="1.0"  filling="0" d="M13.458409309387207 11.834864616394043 L13.458409309387207 11.834864616394043 C13.522027015686035 11.908219337463379 13.58564567565918 11.981573104858398 13.649263381958008 12.054927825927734 L13.649263381958008 12.054927825927734 C13.656881332397461 11.991364479064941 13.66450023651123 11.927800178527832 13.672118186950684 11.864236831665039 L13.672118186950684 11.864236831665039 C13.696554183959961 11.873137474060059 13.720991134643555 11.882037162780762 13.745427131652832 11.890937805175781 L13.745427131652832 11.890937805175781 C13.745436668395996 11.990927696228027 13.745445251464844 12.09091854095459 13.745454788208008 12.190908432006836 L13.745454788208008 12.190908432006836 C13.719209671020508 12.20029067993164 13.692963600158691 12.209671974182129 13.666718482971191 12.219054222106934 L13.666718482971191 12.219054222106934 C13.614227294921875 12.153581619262695 13.561737060546875 12.088109970092773 13.509245872497559 12.022637367248535 L13.509245872497559 12.022637367248535 C13.498954772949219 12.026209831237793 13.488664627075195 12.029783248901367 13.478373527526855 12.033355712890625 L13.478373527526855 12.033355712890625 C13.484391212463379 12.082409858703613 13.490409851074219 12.131464958190918 13.496427536010742 12.180519104003906 L13.496427536010742 12.180519104003906 C13.472436904907227 12.184019088745117 13.448445320129395 12.187519073486328 13.424454689025879 12.191019058227539 L13.424454689025879 12.191019058227539 C13.435772895812988 12.072300910949707 13.447091102600098 11.953582763671875 13.458409309387207 11.834864616394043 L13.458409309387207 11.834864616394043"></path></svg>