<svg xmlns="http://www.w3.org/2000/svg" viewBox="0.0 0.0 24.0 24.0" height="200px" width="200px"><path fill="none" stroke="black" stroke-width=".3" stroke-opacity="1.0"  filling="0" d="M17.901081085205078 10.406807899475098 L17.901081085205078 10.406807899475098 C18.019235610961914 10.412880897521973 18.137392044067383 10.418953895568848 18.25554656982422 10.425026893615723 L18.25554656982422 10.425026893615723 C18.167871475219727 11.02968692779541 18.07364845275879 11.633440017700195 17.972318649291992 12.235962867736816 L17.972318649291992 12.235962867736816 C17.981809616088867 12.242253303527832 17.99129867553711 12.248544692993164 18.000789642333984 12.25483512878418 L18.000789642333984 12.25483512878418 C18.460412979125977 11.764748573303223 18.567567825317383 11.457074165344238 19.22108268737793 11.45497989654541 L19.22108268737793 11.45497989654541 C19.020835876464844 11.782989501953125 18.21376609802246 12.063045501708984 18.417545318603516 12.426408767700195 C18.619884490966797 12.78720474243164 19.00786781311035 13.0744047164917 19.244834899902344 13.418018341064453 L19.244834899902344 13.418018341064453 C18.440975189208984 13.410152435302734 18.545467376708984 12.684660911560059 17.94452667236328 12.399818420410156 L17.94452667236328 12.399818420410156 C17.900436401367188 12.728667259216309 17.851268768310547 13.056831359863281 17.800691604614258 13.384744644165039 L17.800691604614258 13.384744644165039 C17.693828582763672 13.384744644165039 17.586963653564453 13.384744644165039 17.480100631713867 13.384744644165039 L17.480100631713867 13.384744644165039 C17.617938995361328 12.39175033569336 17.75824737548828 11.39909553527832 17.901081085205078 10.406807899475098 L17.901081085205078 10.406807899475098"></path></svg>