<svg xmlns="http://www.w3.org/2000/svg" viewBox="0.0 0.0 24.0 24.0" height="200px" width="200px"><path fill="none" stroke="black" stroke-width=".3" stroke-opacity="1.0"  filling="0" d="M8.801891326904297 11.586874008178711 L8.801891326904297 11.586874008178711 C9.92920970916748 11.783734321594238 8.951872825622559 13.876829147338867 9.906217575073242 13.5156831741333 L9.906217575073242 13.5156831741333 C9.913654327392578 13.527737617492676 9.921091079711914 13.539791107177734 9.92852783203125 13.55184555053711 L9.92852783203125 13.55184555053711 C9.247591018676758 14.058443069458008 6.934965133666992 13.854948043823242 9.110590934753418 12.663191795349121 L9.110590934753418 12.663191795349121 C9.090882301330566 12.357564926147461 9.071172714233398 12.051937103271484 9.051464080810547 11.746310234069824 L9.051464080810547 11.746310234069824 C8.42611026763916 11.768272399902344 8.497655868530273 12.31601333618164 8.018754959106445 12.264273643493652 L8.018754959106445 12.264273643493652 C8.179671287536621 11.958927154541016 8.520146369934082 11.786248207092285 8.801891326904297 11.586874008178711 L8.801891326904297 11.586874008178711"></path>
<path fill="none" stroke="black" stroke-width=".3" stroke-opacity="1.0"  filling="0" d="M8.969673156738281 12.818318367004395 L8.969673156738281 12.818318367004395 C9.736804008483887 13.867648124694824 7.431195259094238 13.631219863891602 8.969673156738281 12.818318367004395 L8.969673156738281 12.818318367004395"></path></svg>