<svg xmlns="http://www.w3.org/2000/svg" viewBox="0.0 0.0 24.0 24.0" height="200px" width="200px"><path fill="none" stroke="black" stroke-width=".3" stroke-opacity="1.0"  filling="0" d="M14.533963203430176 10.135883331298828 L14.533963203430176 10.135883331298828 C14.533963203430176 10.741701126098633 14.533963203430176 11.347518920898438 14.533963203430176 11.953336715698242 L14.533963203430176 11.953336715698242 C16.711816787719727 10.699827194213867 15.324686050415039 13.348665237426758 16.312936782836914 13.87360954284668 L16.312936782836914 13.87360954284668 C16.308917999267578 13.88631820678711 16.304901123046875 13.899026870727539 16.30088233947754 13.911735534667969 L16.30088233947754 13.911735534667969 C15.981225967407227 13.89319133758545 15.66035270690918 13.889239311218262 15.340363502502441 13.900690078735352 L15.340363502502441 13.900690078735352 C15.336854934692383 13.88884449005127 15.333346366882324 13.876999855041504 15.329837799072266 13.865154266357422 L15.329837799072266 13.865154266357422 C15.71888542175293 13.589472770690918 15.687413215637207 13.38980770111084 15.678900718688965 12.897407531738281 C15.63427734375 10.316189765930176 13.32204532623291 13.22323226928711 14.918127059936523 13.839435577392578 L14.918127059936523 13.839435577392578 C14.91840934753418 13.849853515625 14.91869068145752 13.860272407531738 14.918972969055176 13.87069034576416 L14.918972969055176 13.87069034576416 C14.653553009033203 13.911665916442871 14.08629322052002 13.986597061157227 13.856645584106445 13.851545333862305 L13.856645584106445 13.851545333862305 C13.937556266784668 13.766963005065918 14.064913749694824 13.739990234375 14.178135871887207 13.71030044555664 L14.178135871887207 13.71030044555664 C14.286704063415527 12.666876792907715 14.21042537689209 11.603456497192383 14.209199905395508 10.553836822509766 L14.209199905395508 10.553836822509766 C14.10427188873291 10.535500526428223 13.999344825744629 10.51716423034668 13.894416809082031 10.498827934265137 L13.894416809082031 10.498827934265137 C14.107599258422852 10.377846717834473 14.320780754089355 10.256864547729492 14.533963203430176 10.135883331298828 L14.533963203430176 10.135883331298828"></path></svg>