<svg xmlns="http://www.w3.org/2000/svg" viewBox="0.0 0.0 24.0 24.0" height="200px" width="200px"><path fill="none" stroke="black" stroke-width=".3" stroke-opacity="1.0"  filling="0" d="M8.53262710571289 10.119352340698242 L8.53262710571289 10.119352340698242 C9.51257038116455 10.120034217834473 10.805756568908691 10.560924530029297 9.776508331298828 11.684864044189453 L9.776508331298828 11.684864044189453 C11.753385543823242 13.106496810913086 8.690458297729492 14.641253471374512 7.5834550857543945 13.764817237854004 L7.5834550857543945 13.764817237854004 C8.224724769592285 13.180100440979004 8.794841766357422 10.709964752197266 7.565835952758789 10.269951820373535 L7.565835952758789 10.269951820373535 C7.73701286315918 9.932875633239746 8.059074401855469 10.133962631225586 8.53262710571289 10.119352340698242 L8.53262710571289 10.119352340698242"></path>
<path fill="none" stroke="black" stroke-width=".3" stroke-opacity="1.0"  filling="0" d="M8.69279956817627 10.226863861083984 L8.69279956817627 10.226863861083984 C11.08252239227295 10.651066780090332 8.538681983947754 12.739424705505371 8.45312786102295 11.042644500732422 L8.45312786102295 11.042644500732422 C8.454646110534668 11.0425443649292 8.45616340637207 11.042445182800293 8.457681655883789 11.04234504699707 L8.457681655883789 11.04234504699707 C8.440089225769043 10.759992599487305 8.491727828979492 10.425867080688477 8.69279956817627 10.226863861083984 L8.69279956817627 10.226863861083984"></path>
<path fill="none" stroke="black" stroke-width=".3" stroke-opacity="1.0"  filling="0" d="M8.492645263671875 11.866473197937012 L8.492645263671875 11.866473197937012 C8.786355018615723 11.884209632873535 9.098259925842285 11.816375732421875 9.373773574829102 11.919682502746582 C11.456321716308594 12.700552940368652 8.647977828979492 14.459470748901367 8.511736869812012 13.245627403259277 C8.460455894470215 12.788734436035156 8.405315399169922 12.317865371704102 8.492645263671875 11.866473197937012 L8.492645263671875 11.866473197937012"></path></svg>