<svg xmlns="http://www.w3.org/2000/svg" viewBox="0.0 0.0 24.0 24.0" height="200px" width="200px"><path fill="none" stroke="black" stroke-width=".3" stroke-opacity="1.0"  filling="0" d="M10.091727256774902 10.424100875854492 L10.091727256774902 10.424100875854492 C10.473779678344727 10.6350736618042 10.54260540008545 10.671798706054688 10.968217849731445 10.626572608947754 L10.968217849731445 10.626572608947754 C10.991490364074707 10.69351863861084 11.014763832092285 10.76046371459961 11.038036346435547 10.827409744262695 L11.038036346435547 10.827409744262695 C10.474215507507324 10.827409744262695 10.218401908874512 11.769918441772461 9.728645324707031 12.083263397216797 C9.531808853149414 12.209198951721191 9.046290397644043 12.123766899108887 9.082282066345215 12.354654312133789 C9.140571594238281 12.728588104248047 11.440126419067383 12.445947647094727 10.728545188903809 13.499427795410156 C9.790433883666992 14.888280868530273 7.339786529541016 13.800861358642578 9.079118728637695 12.882164001464844 L9.079118728637695 12.882164001464844 C8.409317016601562 12.388115882873535 8.671452522277832 12.278754234313965 9.224044799804688 12.04936408996582 L9.224044799804688 12.04936408996582 C8.2278470993042 11.028509140014648 9.132919311523438 10.506879806518555 10.091727256774902 10.424100875854492 L10.091727256774902 10.424100875854492"></path>
<path fill="none" stroke="black" stroke-width=".3" stroke-opacity="1.0"  filling="0" d="M9.693218231201172 10.44935417175293 L9.693218231201172 10.44935417175293 C11.189627647399902 11.464369773864746 8.758203506469727 12.863932609558105 9.2728910446167 10.815927505493164 C9.31820297241211 10.635627746582031 9.553109169006348 10.571545600891113 9.693218231201172 10.44935417175293 L9.693218231201172 10.44935417175293"></path>
<path fill="none" stroke="black" stroke-width=".3" stroke-opacity="1.0"  filling="0" d="M9.439936637878418 12.901745796203613 L9.439936637878418 12.901745796203613 C10.884005546569824 12.96747875213623 10.73218059539795 14.065006256103516 9.34088134765625 14.098008155822754 C8.391947746276855 14.12051773071289 8.856481552124023 13.089322090148926 9.439936637878418 12.901745796203613 L9.439936637878418 12.901745796203613"></path></svg>