<svg xmlns="http://www.w3.org/2000/svg" viewBox="0.0 0.0 24.0 24.0" height="200px" width="200px"><path fill="none" stroke="black" stroke-width=".3" stroke-opacity="1.0"  filling="0" d="M10.339226722717285 10.229182243347168 L10.339226722717285 10.229182243347168 C10.74586296081543 10.315973281860352 11.194647789001465 10.289468765258789 11.559135437011719 10.489555358886719 C14.274555206298828 11.980192184448242 10.659804344177246 14.905616760253906 8.807455062866211 13.674245834350586 L8.807455062866211 13.674245834350586 C9.792160987854004 13.005280494689941 9.807244300842285 10.967436790466309 8.825699806213379 10.356328010559082 L8.825699806213379 10.356328010559082 C8.828744888305664 10.342864036560059 8.83178997039795 10.329401016235352 8.834835052490234 10.315937042236328 L8.834835052490234 10.315937042236328 C9.325697898864746 10.215494155883789 9.838789939880371 10.26196002960205 10.339226722717285 10.229182243347168 L10.339226722717285 10.229182243347168"></path>
<path fill="none" stroke="black" stroke-width=".3" stroke-opacity="1.0"  filling="0" d="M10.413299560546875 10.418315887451172 L10.413299560546875 10.418315887451172 C10.777518272399902 10.543088912963867 11.191143989562988 10.571009635925293 11.50595474243164 10.792634963989258 C13.496735572814941 12.194136619567871 9.794157981872559 15.026301383972168 9.790936470031738 12.609681129455566 L9.790936470031738 12.609681129455566 C9.795136451721191 12.609345436096191 9.799336433410645 12.6090087890625 9.803536415100098 12.608673095703125 L9.803536415100098 12.608673095703125 C9.737944602966309 11.814672470092773 9.318845748901367 10.420913696289062 10.413299560546875 10.418315887451172 L10.413299560546875 10.418315887451172"></path></svg>