<svg xmlns="http://www.w3.org/2000/svg" viewBox="0.0 0.0 24.0 24.0" height="200px" width="200px"><path fill="none" stroke="black" stroke-width=".3" stroke-opacity="1.0"  filling="0" d="M15.613991737365723 11.547189712524414 L15.613991737365723 11.547189712524414 C15.934417724609375 11.985855102539062 15.681809425354004 13.875187873840332 16.44261932373047 13.481645584106445 L16.44261932373047 13.481645584106445 C16.234195709228516 13.663830757141113 15.860361099243164 13.677467346191406 15.614917755126953 13.549446105957031 L15.614917755126953 13.549446105957031 C14.263195991516113 14.299300193786621 14.608573913574219 13.043050765991211 15.59915542602539 12.671181678771973 L15.59915542602539 12.671181678771973 C15.593640327453613 11.16921615600586 15.284919738769531 11.861113548278809 14.61406421661377 12.354462623596191 L14.61406421661377 12.354462623596191 C14.553522109985352 11.687808990478516 15.07211685180664 11.59518814086914 15.613991737365723 11.547189712524414 L15.613991737365723 11.547189712524414"></path>
<path fill="none" stroke="black" stroke-width=".3" stroke-opacity="1.0"  filling="0" d="M15.348791122436523 12.837518692016602 L15.348791122436523 12.837518692016602 C15.506680488586426 12.941171646118164 15.59080696105957 13.165593147277832 15.581317901611328 13.354227066040039 L15.581317901611328 13.354227066040039 C15.410126686096191 13.437309265136719 15.238936424255371 13.520391464233398 15.067745208740234 13.603473663330078 L15.067745208740234 13.603473663330078 C14.83686637878418 13.235188484191895 15.064621925354004 13.112456321716309 15.348791122436523 12.837518692016602 L15.348791122436523 12.837518692016602"></path></svg>