<svg xmlns="http://www.w3.org/2000/svg" viewBox="0.0 0.0 24.0 24.0" height="200px" width="200px"><path fill="none" stroke="black" stroke-width=".3" stroke-opacity="1.0"  filling="0" d="M13.528118133544922 11.545527458190918 L13.528118133544922 11.545527458190918 C13.528118133544922 11.657891273498535 13.528118133544922 11.770254135131836 13.528118133544922 11.882617950439453 L13.528118133544922 11.882617950439453 C13.536417961120605 11.88736343383789 13.544717788696289 11.892107963562012 13.553017616271973 11.89685344696045 L13.553017616271973 11.89685344696045 C13.779744148254395 11.68458366394043 14.49959659576416 11.3073148727417 14.510671615600586 11.869935989379883 C14.516921043395996 12.187422752380371 13.847614288330078 11.814558982849121 13.727726936340332 11.893281936645508 C13.088481903076172 12.313035011291504 13.470590591430664 13.50610065460205 13.969090461730957 13.808398246765137 L13.969090461730957 13.808398246765137 C13.741337776184082 13.939870834350586 13.106369018554688 13.862421035766602 12.798054695129395 13.806217193603516 L12.798054695129395 13.806217193603516 C12.796327590942383 13.793980598449707 12.794599533081055 13.781744003295898 12.792872428894043 13.76950740814209 L12.792872428894043 13.76950740814209 C13.402562141418457 13.528358459472656 13.273612976074219 12.541608810424805 13.114500999450684 11.98625373840332 L13.114500999450684 11.98625373840332 C13.0302734375 11.961872100830078 12.946046829223633 11.937490463256836 12.86181926727295 11.913108825683594 L12.86181926727295 11.913108825683594 C13.081416130065918 11.781476974487305 13.288626670837402 11.638486862182617 13.528118133544922 11.545527458190918 L13.528118133544922 11.545527458190918"></path></svg>