<svg xmlns="http://www.w3.org/2000/svg" viewBox="0.0 0.0 24.0 24.0" height="200px" width="200px"><path fill="none" stroke="black" stroke-width=".3" stroke-opacity="1.0"  filling="0" d="M10.580645561218262 10.16132640838623 L10.580645561218262 10.16132640838623 C10.85412311553955 10.321209907531738 10.688287734985352 11.68443775177002 10.703454971313477 11.954561233520508 L10.703454971313477 11.954561233520508 C12.791245460510254 10.897880554199219 11.48647689819336 12.933664321899414 12.459409713745117 13.817726135253906 L12.459409713745117 13.817726135253906 C12.145264625549316 13.817726135253906 11.8311185836792 13.817726135253906 11.516973495483398 13.817726135253906 L11.516973495483398 13.817726135253906 C11.893319129943848 13.36308479309082 12.1978178024292 12.008646011352539 11.292192459106445 11.811460494995117 C10.34953498840332 11.60621166229248 10.503290176391602 13.411699295043945 11.053909301757812 13.803135871887207 L11.053909301757812 13.803135871887207 C10.725163459777832 13.803135871887207 10.396418571472168 13.803135871887207 10.067672729492188 13.803135871887207 L10.067672729492188 13.803135871887207 C10.471322059631348 12.786142349243164 10.390758514404297 11.694981575012207 10.324199676513672 10.540363311767578 L10.324199676513672 10.540363311767578 C10.225048065185547 10.536470413208008 10.121659278869629 10.524792671203613 10.032408714294434 10.481427192687988 L10.032408714294434 10.481427192687988 C10.21427059173584 10.3732271194458 10.39618968963623 10.26504135131836 10.580645561218262 10.16132640838623 L10.580645561218262 10.16132640838623"></path></svg>