<svg xmlns="http://www.w3.org/2000/svg" viewBox="0.0 0.0 24.0 24.0" height="200px" width="200px"><path fill="none" stroke="black" stroke-width=".3" stroke-opacity="1.0"  filling="0" d="M11.263663291931152 11.717345237731934 L11.263663291931152 11.717345237731934 C11.341190338134766 11.730608940124512 11.418718338012695 11.74387264251709 11.496245384216309 11.757136344909668 L11.496245384216309 11.757136344909668 C11.6134672164917 12.250436782836914 11.266383171081543 12.417729377746582 11.263663291931152 11.717345237731934 L11.263663291931152 11.717345237731934"></path>
<path fill="none" stroke="black" stroke-width=".3" stroke-opacity="1.0"  filling="0" d="M11.415900230407715 11.783836364746094 L11.415900230407715 11.783836364746094 C11.386518478393555 11.832563400268555 11.357136726379395 11.881290435791016 11.327754974365234 11.930017471313477 L11.327754974365234 11.930017471313477 C11.327754974365234 11.882744789123535 11.327754974365234 11.83547306060791 11.327754974365234 11.788200378417969 L11.327754974365234 11.788200378417969 C11.357136726379395 11.78674602508545 11.386518478393555 11.785290718078613 11.415900230407715 11.783836364746094 L11.415900230407715 11.783836364746094"></path>
<path fill="none" stroke="black" stroke-width=".3" stroke-opacity="1.0"  filling="0" d="M11.329636573791504 11.989554405212402 L11.329636573791504 11.989554405212402 C11.387168884277344 12.011923789978027 11.378875732421875 12.137511253356934 11.329636573791504 12.174736976623535 L11.329636573791504 12.174736976623535 C11.329636573791504 12.113009452819824 11.329636573791504 12.051281929016113 11.329636573791504 11.989554405212402 L11.329636573791504 11.989554405212402"></path></svg>