<svg xmlns="http://www.w3.org/2000/svg" viewBox="0.0 0.0 24.0 24.0" height="200px" width="200px"><path fill="none" stroke="black" stroke-width=".3" stroke-opacity="1.0"  filling="0" d="M12.674453735351562 11.871273040771484 L12.674453735351562 11.871273040771484 C12.732132911682129 12.002533912658691 12.708481788635254 12.156625747680664 12.709091186523438 12.299999237060547 L12.709091186523438 12.299999237060547 C12.681818008422852 12.299999237060547 12.654545783996582 12.299999237060547 12.627272605895996 12.299999237060547 L12.627272605895996 12.299999237060547 C12.569718360900879 12.212708473205566 12.512163162231445 12.125418663024902 12.454608917236328 12.038127899169922 L12.454608917236328 12.038127899169922 C12.447554588317871 12.040019035339355 12.440500259399414 12.041909217834473 12.433445930480957 12.043800354003906 L12.433445930480957 12.043800354003906 C12.443509101867676 12.129199981689453 12.453573226928711 12.214600563049316 12.46363639831543 12.300000190734863 L12.46363639831543 12.300000190734863 C12.445454597473145 12.300000190734863 12.427271842956543 12.299999237060547 12.409090042114258 12.299999237060547 L12.409090042114258 12.299999237060547 C12.385902404785156 12.156460762023926 12.408380508422852 12.038313865661621 12.402681350708008 11.89404582977295 L12.402681350708008 11.89404582977295 C12.483226776123047 11.990754127502441 12.563772201538086 12.08746337890625 12.644317626953125 12.184171676635742 L12.644317626953125 12.184171676635742 C12.644317626953125 12.08347225189209 12.644317626953125 11.982771873474121 12.644317626953125 11.882072448730469 L12.644317626953125 11.882072448730469 C12.654362678527832 11.878472328186035 12.664408683776855 11.874873161315918 12.674453735351562 11.871273040771484 L12.674453735351562 11.871273040771484"></path></svg>