<svg xmlns="http://www.w3.org/2000/svg" viewBox="0.0 0.0 24.0 24.0" height="200px" width="200px"><path fill="none" stroke="black" stroke-width=".3" stroke-opacity="1.0"  filling="0" d="M3.1150903701782227 9.624436378479004 L3.1150903701782227 9.624436378479004 C3.5877411365509033 9.733016967773438 3.6808078289031982 9.826419830322266 4.062872409820557 9.73868179321289 L4.062872409820557 9.73868179321289 C4.145526885986328 10.014754295349121 4.228181838989258 10.290827751159668 4.310836315155029 10.566900253295898 L4.310836315155029 10.566900253295898 C4.302590847015381 10.572454452514648 4.294345378875732 10.578009605407715 4.286099910736084 10.583563804626465 L4.286099910736084 10.583563804626465 C4.160027503967285 10.44155216217041 4.037288665771484 10.296611785888672 3.9138545989990234 10.152300834655762 L3.9138545989990234 10.152300834655762 C3.835435628890991 10.173565864562988 3.7303617000579834 10.141646385192871 3.682309150695801 10.076128005981445 L3.682309150695801 10.076128005981445 C2.09382700920105 9.680094718933105 1.5230183601379395 10.960006713867188 1.7006187438964844 12.448719024658203 L1.7006187438964844 12.448719024658203 C2.058323621749878 13.182509422302246 2.448005199432373 13.336432456970215 3.1403732299804688 13.627447128295898 L3.1403732299804688 13.627447128295898 C3.5031089782714844 13.500205993652344 3.875847816467285 13.369552612304688 4.187781810760498 13.144909858703613 L4.187781810760498 13.144909858703613 C4.227563858032227 13.200000762939453 4.267345905303955 13.25509262084961 4.307127952575684 13.31018352508545 L4.307127952575684 13.31018352508545 C2.3369507789611816 15.291450500488281 -0.056719422340393066 12.129253387451172 1.4580812454223633 10.181045532226562 C1.8468692302703857 9.68101978302002 2.5631513595581055 9.701501846313477 3.1150903701782227 9.624436378479004 L3.1150903701782227 9.624436378479004"></path></svg>