<svg xmlns="http://www.w3.org/2000/svg" viewBox="0.0 0.0 24.0 24.0" height="200px" width="200px"><path fill="none" stroke="black" stroke-width=".3" stroke-opacity="1.0"  filling="0" d="M15.016336441040039 11.866500854492188 L15.016336441040039 11.866500854492188 C15.016045570373535 12.016935348510742 14.943622589111328 12.15912914276123 14.890909194946289 12.300026893615723 L14.890909194946289 12.300026893615723 C14.881817817687988 12.300026893615723 14.872727394104004 12.300026893615723 14.863636016845703 12.300026893615723 L14.863636016845703 12.300026893615723 C14.831801414489746 12.202715873718262 14.82453441619873 12.05932903289795 14.728336334228516 12.024272918701172 L14.728336334228516 12.024272918701172 C14.73960018157959 11.9798002243042 14.750864028930664 11.935327529907227 14.762127876281738 11.890854835510254 L14.762127876281738 11.890854835510254 C14.773446083068848 11.889927864074707 14.784764289855957 11.888999938964844 14.796082496643066 11.888072967529297 L14.796082496643066 11.888072967529297 C14.828291893005371 11.98141860961914 14.86050033569336 12.074764251708984 14.892709732055664 12.168109893798828 L14.892709732055664 12.168109893798828 C14.923864364624023 12.067700386047363 14.955018997192383 11.967291831970215 14.986173629760742 11.86688232421875 L14.986173629760742 11.86688232421875 C14.996228218078613 11.866755485534668 15.006281852722168 11.86662769317627 15.016336441040039 11.866500854492188 L15.016336441040039 11.866500854492188"></path></svg>