<svg xmlns="http://www.w3.org/2000/svg" viewBox="0.0 0.0 24.0 24.0" height="200px" width="200px"><path fill="none" stroke="black" stroke-width=".3" stroke-opacity="1.0"  filling="0" d="M13.32147216796875 11.762045860290527 L13.32147216796875 11.762045860290527 C13.853875160217285 11.777952194213867 13.414299964904785 12.193232536315918 13.593027114868164 12.609708786010742 L13.593027114868164 12.609708786010742 C13.502281188964844 12.479572296142578 13.41153621673584 12.34943675994873 13.32079029083252 12.219300270080566 L13.32079029083252 12.219300270080566 C13.281366348266602 12.354637145996094 13.199217796325684 12.486371040344238 13.087008476257324 12.571690559387207 L13.087008476257324 12.571690559387207 C13.178178787231445 12.276360511779785 13.227010726928711 12.217957496643066 13.193509101867676 11.881553649902344 L13.193509101867676 11.881553649902344 C13.236163139343262 11.841717720031738 13.278818130493164 11.801881790161133 13.32147216796875 11.762045860290527 L13.32147216796875 11.762045860290527"></path>
<path fill="none" stroke="black" stroke-width=".3" stroke-opacity="1.0"  filling="0" d="M13.418018341064453 11.856573104858398 L13.418018341064453 11.856573104858398 C13.461681365966797 11.858591079711914 13.505345344543457 11.860610008239746 13.5490083694458 11.862627983093262 L13.5490083694458 11.862627983093262 C13.50395393371582 11.9254732131958 13.458898544311523 11.988319396972656 13.413844108581543 12.051164627075195 L13.413844108581543 12.051164627075195 C13.41523551940918 11.986300468444824 13.416626930236816 11.92143726348877 13.418018341064453 11.856573104858398 L13.418018341064453 11.856573104858398"></path></svg>