<svg xmlns="http://www.w3.org/2000/svg" viewBox="0.0 0.0 24.0 24.0" height="200px" width="200px"><path fill="none" stroke="black" stroke-width=".3" stroke-opacity="1.0"  filling="0" d="M15.434562683105469 11.85921859741211 L15.434562683105469 11.85921859741211 C15.478972434997559 11.943964004516602 15.523381233215332 12.028709411621094 15.567790985107422 12.113454818725586 L15.567790985107422 12.113454818725586 C15.59601879119873 12.032554626464844 15.624245643615723 11.951655387878418 15.652473449707031 11.870755195617676 L15.652473449707031 11.870755195617676 C15.664419174194336 11.874363899230957 15.676363945007324 11.877973556518555 15.688309669494629 11.881582260131836 L15.688309669494629 11.881582260131836 C15.649782180786133 12.021063804626465 15.611254692077637 12.160545349121094 15.57272720336914 12.300026893615723 L15.57272720336914 12.300026893615723 C15.554545402526855 12.300026893615723 15.53636360168457 12.300026893615723 15.518181800842285 12.300026893615723 L15.518181800842285 12.300026893615723 C15.490127563476562 12.195117950439453 15.462072372436523 12.090209007263184 15.4340181350708 11.985300064086914 L15.4340181350708 11.985300064086914 C15.406899452209473 12.05498218536377 15.379781723022461 12.124663352966309 15.352663040161133 12.194345474243164 L15.352663040161133 12.194345474243164 C15.379962921142578 12.082636833190918 15.407262802124023 11.970927238464355 15.434562683105469 11.85921859741211 L15.434562683105469 11.85921859741211"></path></svg>