<svg xmlns="http://www.w3.org/2000/svg" viewBox="0.0 0.0 24.0 24.0" height="200px" width="200px"><path fill="none" stroke="black" stroke-width=".3" stroke-opacity="1.0"  filling="0" d="M13.056190490722656 11.54792594909668 L13.056190490722656 11.54792594909668 C13.056190490722656 11.593753814697266 13.056190490722656 11.639580726623535 13.056190490722656 11.685408592224121 L13.056190490722656 11.685408592224121 C12.912527084350586 11.822336196899414 12.7688627243042 11.95926284790039 12.625199317932129 12.096190452575684 L12.625199317932129 12.096190452575684 C12.798426628112793 12.10561752319336 12.971654891967773 12.115045547485352 13.144882202148438 12.124472618103027 L13.144882202148438 12.124472618103027 C12.95836353302002 12.150981903076172 12.771845817565918 12.177490234375 12.5853271484375 12.203999519348145 L12.5853271484375 12.203999519348145 C12.5853271484375 12.294699668884277 12.5853271484375 12.385398864746094 12.5853271484375 12.476099014282227 L12.5853271484375 12.476099014282227 C12.690444946289062 12.486526489257812 12.795563697814941 12.496953964233398 12.900681495666504 12.507381439208984 L12.900681495666504 12.507381439208984 C12.065873146057129 12.883063316345215 12.555432319641113 11.771018028259277 13.056190490722656 11.54792594909668 L13.056190490722656 11.54792594909668"></path></svg>