<svg xmlns="http://www.w3.org/2000/svg" viewBox="0.0 0.0 24.0 24.0" height="200px" width="200px"><path fill="none" stroke="black" stroke-width=".3" stroke-opacity="1.0"  filling="0" d="M29.696941375732422 9.524809837341309 L29.696941375732422 9.524809837341309 C29.933969497680664 9.578293800354004 30.167158126831055 9.65818977355957 30.409143447875977 9.68023681640625 L30.409143447875977 9.68023681640625 C30.467742919921875 9.646563529968262 30.526342391967773 9.61289119720459 30.584941864013672 9.579217910766602 L30.584941864013672 9.579217910766602 C30.606170654296875 9.614372253417969 30.627397537231445 9.649527549743652 30.64862632751465 9.68468189239502 L30.64862632751465 9.68468189239502 C30.67477035522461 9.6612548828125 30.700916290283203 9.63782787322998 30.727060317993164 9.614400863647461 L30.727060317993164 9.614400863647461 C30.78664207458496 9.915518760681152 30.925796508789062 10.26363754272461 30.84212303161621 10.566736221313477 L30.84212303161621 10.566736221313477 C30.0368595123291 9.666540145874023 28.145994186401367 9.728192329406738 29.249753952026367 11.143989562988281 L29.249753952026367 11.143989562988281 C31.40303611755371 12.130475044250488 31.183700561523438 14.022769927978516 28.593982696533203 13.497325897216797 L28.593982696533203 13.497325897216797 C28.586610794067383 13.551325798034668 28.579238891601562 13.605326652526855 28.571866989135742 13.659326553344727 L28.571866989135742 13.659326553344727 C28.43325424194336 13.508038520812988 28.071847915649414 12.528644561767578 28.459636688232422 12.518918991088867 L28.459636688232422 12.518918991088867 C28.58378028869629 12.926984786987305 28.852386474609375 13.46585750579834 29.379409790039062 13.48543643951416 C29.764806747436523 13.499753952026367 30.555965423583984 13.200380325317383 30.358552932739258 12.869072914123535 C29.928003311157227 12.146506309509277 26.9418888092041 10.335792541503906 29.232242584228516 9.569400787353516 L29.232242584228516 9.569400787353516 C29.387142181396484 9.554536819458008 29.542041778564453 9.539673805236816 29.696941375732422 9.524809837341309 L29.696941375732422 9.524809837341309"></path></svg>