<svg xmlns="http://www.w3.org/2000/svg" viewBox="0.0 0.0 24.0 24.0" height="200px" width="200px"><path fill="none" stroke="black" stroke-width=".3" stroke-opacity="1.0"  filling="0" d="M5.181054592132568 11.381810188293457 L5.181054592132568 11.381810188293457 C5.521564483642578 11.820932388305664 5.609488010406494 11.889158248901367 5.417863368988037 12.449265480041504 L5.417863368988037 12.449265480041504 C5.503626823425293 12.462565422058105 5.589390754699707 12.475865364074707 5.675154209136963 12.489165306091309 L5.675154209136963 12.489165306091309 C4.924861907958984 12.880993843078613 5.549933433532715 11.91212272644043 5.396427154541016 11.8089017868042 C5.20109748840332 11.677557945251465 5.061285495758057 12.139569282531738 4.889863967895508 12.300874710083008 C4.642989158630371 12.533180236816406 4.280146598815918 12.403494834899902 3.9818458557128906 12.409037590026855 L3.9818458557128906 12.409037590026855 C3.9818365573883057 12.218146324157715 3.9818274974823 12.027255058288574 3.981818199157715 11.836363792419434 L3.981818199157715 11.836363792419434 C4.685116767883301 10.826946258544922 4.434174060821533 11.898674964904785 4.292891025543213 12.293864250183105 L4.292891025543213 12.293864250183105 C4.626084804534912 12.272367477416992 4.93100643157959 12.012800216674805 5.131145477294922 11.745546340942383 L5.131145477294922 11.745546340942383 C4.959684371948242 11.596521377563477 4.952593803405762 11.441925048828125 5.181054592132568 11.381810188293457 L5.181054592132568 11.381810188293457"></path>
<path fill="none" stroke="black" stroke-width=".3" stroke-opacity="1.0"  filling="0" d="M4.48772668838501 11.540755271911621 L4.48772668838501 11.540755271911621 C4.392208576202393 11.734200477600098 4.296690464019775 11.927645683288574 4.201172351837158 12.12109088897705 L4.201172351837158 12.12109088897705 C4.296690464019775 11.927645683288574 4.392208576202393 11.734200477600098 4.48772668838501 11.540755271911621 L4.48772668838501 11.540755271911621"></path></svg>