<svg xmlns="http://www.w3.org/2000/svg" viewBox="0.0 0.0 24.0 24.0" height="200px" width="200px"><path fill="none" stroke="black" stroke-width=".3" stroke-opacity="1.0"  filling="0" d="M1.0117645263671875 9.627899169921875 L1.0117645263671875 9.627899169921875 C1.4796068668365479 9.654378890991211 1.7762601375579834 9.58397102355957 1.409346580505371 9.943881034851074 L1.409346580505371 9.943881034851074 C1.5002412796020508 11.231597900390625 1.1489007472991943 12.826788902282715 1.6217460632324219 13.99295425415039 L1.6217460632324219 13.99295425415039 C1.4666621685028076 14.044279098510742 -0.25819075107574463 14.250127792358398 0.3503456115722656 13.81167221069336 L0.3503456115722656 13.81167221069336 C0.3503456115722656 13.185235977172852 0.3503456115722656 12.558799743652344 0.3503456115722656 11.932363510131836 L0.3503456115722656 11.932363510131836 C0.024344712495803833 11.777501106262207 -0.37072527408599854 11.817623138427734 -0.7089815139770508 11.927780151367188 L-0.7089815139770508 11.927780151367188 C-0.7089815139770508 12.62088680267334 -0.8893857598304749 13.379416465759277 -0.562199592590332 14.017362594604492 L-0.562199592590332 14.017362594604492 C-1.0495798587799072 14.114265441894531 -1.5633660554885864 14.14051628112793 -2.037843704223633 13.98924446105957 L-2.037843704223633 13.98924446105957 C-1.4295194149017334 13.190974235534668 -1.8262325525283813 10.837334632873535 -1.8272457122802734 9.877119064331055 L-1.8272457122802734 9.877119064331055 C-2.441014528274536 9.546120643615723 -0.8079038858413696 9.607573509216309 -0.5610265731811523 9.689481735229492 L-0.5610265731811523 9.689481735229492 C-0.7861522436141968 10.148734092712402 -0.7862423062324524 10.700249671936035 -0.703608512878418 11.203363418579102 L-0.703608512878418 11.203363418579102 C-0.36247220635414124 11.203363418579102 -0.02133592963218689 11.203363418579102 0.31980037689208984 11.203363418579102 L0.31980037689208984 11.203363418579102 C0.39762309193611145 9.968475341796875 -0.21834921836853027 9.655693054199219 1.0117645263671875 9.627899169921875 L1.0117645263671875 9.627899169921875"></path></svg>