<svg xmlns="http://www.w3.org/2000/svg" viewBox="0.0 0.0 24.0 24.0" height="200px" width="200px"><path fill="none" stroke="black" stroke-width=".3" stroke-opacity="1.0"  filling="0" d="M2.4019088745117188 9.834436416625977 L2.4019088745117188 9.834436416625977 C2.932399272918701 9.854656219482422 3.810795545578003 9.430939674377441 3.9916629791259766 9.930054664611816 C4.029733657836914 10.035113334655762 3.666025400161743 10.312203407287598 3.6583900451660156 10.503436088562012 C3.639615535736084 10.973660469055176 3.6631979942321777 11.444622993469238 3.666682243347168 11.91520881652832 C3.6713826656341553 12.550061225891113 3.195509672164917 13.695889472961426 3.819355010986328 13.813690185546875 C4.333046913146973 13.910691261291504 4.635374546051025 13.372011184692383 5.104799747467041 13.329545974731445 L5.104799747467041 13.329545974731445 C5.120981216430664 14.691585540771484 3.2515504360198975 14.262885093688965 2.455036163330078 14.263608932495117 L2.455036163330078 14.263608932495117 C2.458897829055786 13.503007888793945 2.5865638256073 12.760293960571289 2.5445995330810547 11.959418296813965 L2.5445995330810547 11.959418296813965 C2.5690813064575195 11.962845802307129 2.5935630798339844 11.966272354125977 2.618044853210449 11.96969985961914 L2.618044853210449 11.96969985961914 C2.597090482711792 11.827345848083496 2.5761358737945557 11.684990882873535 2.5551815032958984 11.54263687133789 L2.5551815032958984 11.54263687133789 C2.5728816986083984 11.537273406982422 2.5905818939208984 11.531908988952637 2.6082820892333984 11.526545524597168 L2.6082820892333984 11.526545524597168 C2.5807363986968994 11.052982330322266 2.5531909465789795 10.579418182373047 2.5256452560424805 10.105854988098145 L2.5256452560424805 10.105854988098145 C2.5037996768951416 10.115482330322266 2.481954336166382 10.12510871887207 2.460108757019043 10.134736061096191 L2.460108757019043 10.134736061096191 C2.440708875656128 10.034636497497559 2.421308755874634 9.93453598022461 2.4019088745117188 9.834436416625977 L2.4019088745117188 9.834436416625977"></path></svg>