<svg xmlns="http://www.w3.org/2000/svg" viewBox="0.0 0.0 24.0 24.0" height="200px" width="200px"><path fill="none" stroke="black" stroke-width=".3" stroke-opacity="1.0"  filling="0" d="M24.54581069946289 11.300481796264648 L24.54581069946289 11.300481796264648 C24.544870376586914 11.632108688354492 24.54188346862793 11.665607452392578 24.868690490722656 11.69094467163086 L24.868690490722656 11.69094467163086 C24.874208450317383 11.779390335083008 24.879728317260742 11.867835998535156 24.88524627685547 11.956281661987305 L24.88524627685547 11.956281661987305 C24.781400680541992 11.93515396118164 24.677555084228516 11.914026260375977 24.57370948791504 11.892898559570312 L24.57370948791504 11.892898559570312 C24.54543113708496 12.364954948425293 24.718791961669922 12.61601734161377 24.1914005279541 12.578452110290527 L24.1914005279541 12.578452110290527 C24.222063064575195 12.35799789428711 24.252727508544922 12.137543678283691 24.283390045166016 11.917089462280273 L24.283390045166016 11.917089462280273 C24.246782302856445 11.848198890686035 24.210172653198242 11.779308319091797 24.173564910888672 11.710417747497559 L24.173564910888672 11.710417747497559 C24.205745697021484 11.693272590637207 24.237926483154297 11.676126480102539 24.27010726928711 11.658981323242188 L24.27010726928711 11.658981323242188 C24.27010726928711 11.575627326965332 24.27010726928711 11.49227237701416 24.27010726928711 11.408918380737305 L24.27010726928711 11.408918380737305 C24.362009048461914 11.372773170471191 24.453908920288086 11.336627006530762 24.54581069946289 11.300481796264648 L24.54581069946289 11.300481796264648"></path></svg>