<svg xmlns="http://www.w3.org/2000/svg" viewBox="0.0 0.0 24.0 24.0" height="200px" width="200px"><path fill="none" stroke="black" stroke-width=".3" stroke-opacity="1.0"  filling="0" d="M4.033963680267334 10.41051959991455 L4.033963680267334 10.41051959991455 C4.872109413146973 10.423152923583984 5.710254669189453 10.43578815460205 6.548399925231934 10.448427200317383 L6.548399925231934 10.448427200317383 C6.641200065612793 10.708209037780762 6.734000205993652 10.96799087524414 6.826800346374512 11.22777271270752 L6.826800346374512 11.22777271270752 C6.446881294250488 11.227021217346191 6.046937465667725 10.894521713256836 5.754464149475098 10.915690422058105 L5.754464149475098 10.915690422058105 C5.75181245803833 11.807695388793945 5.697818279266357 12.701175689697266 5.927754878997803 13.57080078125 L5.927754878997803 13.57080078125 C3.9954609870910645 13.823758125305176 4.797311782836914 12.66644287109375 4.761545658111572 10.906365394592285 L4.761545658111572 10.906365394592285 C4.4117560386657715 10.96783447265625 4.102128505706787 11.160934448242188 3.7488279342651367 11.185392379760742 L3.7488279342651367 11.185392379760742 C3.8438732624053955 10.927101135253906 3.938918352127075 10.668810844421387 4.033963680267334 10.41051959991455 L4.033963680267334 10.41051959991455"></path></svg>