<svg xmlns="http://www.w3.org/2000/svg" viewBox="0.0 0.0 24.0 24.0" height="200px" width="200px"><path fill="none" stroke="black" stroke-width=".3" stroke-opacity="1.0"  filling="0" d="M8.707009315490723 11.45181941986084 L8.707009315490723 11.45181941986084 C8.728009223937988 11.487046241760254 8.749009132385254 11.522274017333984 8.77000904083252 11.557500839233398 L8.77000904083252 11.557500839233398 C8.937317848205566 11.532736778259277 9.10462760925293 11.507973670959473 9.271936416625977 11.483209609985352 L9.271936416625977 11.483209609985352 C9.297872543334961 11.587973594665527 9.323809623718262 11.692736625671387 9.349745750427246 11.797500610351562 L9.349745750427246 11.797500610351562 C8.700358390808105 11.710290908813477 8.831507682800293 12.020813941955566 8.74892807006836 12.553718566894531 L8.74892807006836 12.553718566894531 C8.641963958740234 12.544855117797852 8.53499984741211 12.535990715026855 8.428035736083984 12.527127265930176 L8.428035736083984 12.527127265930176 C8.46982479095459 11.959559440612793 8.550727844238281 11.913455963134766 8.361872673034668 11.497527122497559 L8.361872673034668 11.497527122497559 C8.47691822052002 11.482291221618652 8.591963768005371 11.467055320739746 8.707009315490723 11.45181941986084 L8.707009315490723 11.45181941986084"></path></svg>