<svg xmlns="http://www.w3.org/2000/svg" viewBox="0.0 0.0 24.0 24.0" height="200px" width="200px"><path fill="none" stroke="black" stroke-width=".3" stroke-opacity="1.0"  filling="0" d="M15.536046028137207 10.416818618774414 L15.536046028137207 10.416818618774414 C15.992241859436035 10.65111255645752 16.2166805267334 11.185325622558594 16.53008270263672 11.583928108215332 L16.53008270263672 11.583928108215332 C17.028038024902344 10.791790008544922 17.163728713989258 10.198473930358887 18.158401489257812 10.495119094848633 L18.158401489257812 10.495119094848633 C17.760400772094727 10.99706745147705 18.44231605529785 13.153329849243164 19.012256622314453 13.568944931030273 L19.012256622314453 13.568944931030273 C18.584636688232422 13.823738098144531 18.05963134765625 13.656903266906738 17.579238891601562 13.627309799194336 L17.579238891601562 13.627309799194336 C17.50423812866211 12.823305130004883 17.68654441833496 12.568058013916016 17.214357376098633 11.605881690979004 L17.214357376098633 11.605881690979004 C16.91779136657715 12.0640869140625 16.672605514526367 12.567657470703125 16.293954849243164 12.962699890136719 L16.293954849243164 12.962699890136719 C15.955364227294922 12.524118423461914 15.616772651672363 12.085536003112793 15.278182029724121 11.646954536437988 L15.278182029724121 11.646954536437988 C15.118154525756836 12.21457290649414 14.68545150756836 13.042781829833984 14.957919120788574 13.652482986450195 L14.957919120788574 13.652482986450195 C14.66636848449707 13.641030311584473 14.37498950958252 13.620577812194824 14.084837913513184 13.589838027954102 L14.084837913513184 13.589838027954102 C14.913496971130371 12.393190383911133 14.157750129699707 10.423008918762207 15.536046028137207 10.416818618774414 L15.536046028137207 10.416818618774414"></path></svg>