<svg xmlns="http://www.w3.org/2000/svg" viewBox="0.0 0.0 24.0 24.0" height="200px" width="200px"><path fill="none" stroke="black" stroke-width=".3" stroke-opacity="1.0"  filling="0" d="M1.2943096160888672 9.789654731750488 L1.2943096160888672 9.789654731750488 C1.9754074811935425 9.791001319885254 3.1806185245513916 9.602439880371094 3.8327999114990234 9.843681335449219 C4.1094231605529785 9.946003913879395 4.194350719451904 10.68468189239502 4.032981872558594 10.902409553527832 C3.8790204524993896 11.110142707824707 3.2679731845855713 10.43032169342041 2.9727277755737305 10.33148193359375 L2.9727277755737305 10.33148193359375 C2.9727277755737305 11.514309883117676 2.6665196418762207 13.092622756958008 3.1489639282226562 14.210563659667969 L3.1489639282226562 14.210563659667969 C2.6741456985473633 14.254063606262207 2.1516261100769043 14.354501724243164 1.7062091827392578 14.161063194274902 L1.7062091827392578 14.161063194274902 C1.9280790090560913 12.933661460876465 1.9842803478240967 11.565696716308594 1.8338727951049805 10.334098815917969 L1.8338727951049805 10.334098815917969 C1.6205089092254639 10.553637504577637 1.3235901594161987 10.668517112731934 1.0636358261108398 10.827244758605957 L1.0636358261108398 10.827244758605957 C1.0636358261108398 10.499980926513672 1.0636358261108398 10.172718048095703 1.0636358261108398 9.845454216003418 L1.0636358261108398 9.845454216003418 C1.1405271291732788 9.826854705810547 1.2174183130264282 9.80825424194336 1.2943096160888672 9.789654731750488 L1.2943096160888672 9.789654731750488"></path></svg>