<svg xmlns="http://www.w3.org/2000/svg" viewBox="0.0 0.0 24.0 24.0" height="200px" width="200px"><path fill="none" stroke="black" stroke-width=".3" stroke-opacity="1.0"  filling="0" d="M6.748635768890381 9.790335655212402 L6.748635768890381 9.790335655212402 C7.19813871383667 10.076947212219238 7.264178276062012 10.545660972595215 7.470245361328125 11.037189483642578 L7.470245361328125 11.037189483642578 C7.641275405883789 10.727275848388672 7.817131996154785 10.23794937133789 8.018017768859863 9.961825370788574 C8.163851737976074 9.761371612548828 9.205066680908203 9.634968757629395 9.29255485534668 9.86298942565918 C9.711812973022461 10.955700874328613 9.344147682189941 12.959437370300293 10.059189796447754 14.194745063781738 L10.059189796447754 14.194745063781738 C9.590344429016113 14.202290534973145 9.121498107910156 14.209835052490234 8.652652740478516 14.21738052368164 L8.652652740478516 14.21738052368164 C8.716485977172852 13.286538124084473 8.399343490600586 12.338410377502441 8.183098793029785 11.433053970336914 L8.183098793029785 11.433053970336914 C7.999009609222412 11.928984642028809 7.8467183113098145 12.710746765136719 7.491053581237793 13.136236190795898 C7.259254455566406 13.413542747497559 6.474298477172852 11.686439514160156 6.378353118896484 11.513044357299805 L6.378353118896484 11.513044357299805 C6.212621212005615 12.195302963256836 5.78873872756958 13.473767280578613 6.139063835144043 14.193190574645996 L6.139063835144043 14.193190574645996 C5.87649393081665 14.270310401916504 5.5928778648376465 14.235654830932617 5.319217681884766 14.236391067504883 L5.319217681884766 14.236391067504883 C5.326050281524658 13.301203727722168 6.691585540771484 10.488924980163574 5.7513813972473145 9.881752967834473 L5.7513813972473145 9.881752967834473 C6.068991661071777 9.77566146850586 6.40937614440918 9.792067527770996 6.748635768890381 9.790335655212402 L6.748635768890381 9.790335655212402"></path></svg>