<svg xmlns="http://www.w3.org/2000/svg" viewBox="0.0 0.0 24.0 24.0" height="200px" width="200px"><path fill="none" stroke="black" stroke-width=".3" stroke-opacity="1.0"  filling="0" d="M14.361927032470703 11.48443603515625 L14.361927032470703 11.48443603515625 C14.919825553894043 12.302978515625 14.346214294433594 11.925235748291016 13.642500877380371 12.025527000427246 L13.642500877380371 12.025527000427246 C13.636209487915039 12.038317680358887 13.629919052124023 12.051108360290527 13.623627662658691 12.063899040222168 L13.623627662658691 12.063899040222168 C13.80501937866211 12.307805061340332 14.640774726867676 12.238219261169434 14.640654563903809 12.268854141235352 C14.637225151062012 13.140707969665527 12.344115257263184 12.181402206420898 13.65771770477295 11.505572319030762 C13.86654281616211 11.398134231567383 14.127190589904785 11.49148178100586 14.361927032470703 11.48443603515625 L14.361927032470703 11.48443603515625"></path>
<path fill="none" stroke="black" stroke-width=".3" stroke-opacity="1.0"  filling="0" d="M14.08464527130127 11.647172927856445 L14.08464527130127 11.647172927856445 C14.170435905456543 11.70029067993164 14.256227493286133 11.753409385681152 14.342018127441406 11.806527137756348 L14.342018127441406 11.806527137756348 C14.14879035949707 11.795445442199707 13.95556354522705 11.784364700317383 13.762335777282715 11.773283004760742 L13.762335777282715 11.773283004760742 C13.856673240661621 11.70687484741211 13.970610618591309 11.664657592773438 14.08464527130127 11.647172927856445 L14.08464527130127 11.647172927856445"></path></svg>