<svg xmlns="http://www.w3.org/2000/svg" viewBox="0.0 0.0 24.0 24.0" height="200px" width="200px"><path fill="none" stroke="black" stroke-width=".3" stroke-opacity="1.0"  filling="0" d="M10.554573059082031 11.148681640625 L10.554573059082031 11.148681640625 C10.554573059082031 11.183150291442871 10.554573059082031 11.78731918334961 10.554573059082031 11.815144538879395 L10.554573059082031 11.815144538879395 C10.960930824279785 11.519720077514648 11.8794584274292 11.29435920715332 10.955754280090332 11.85049057006836 L10.955754280090332 11.85049057006836 C11.164290428161621 12.078644752502441 11.372827529907227 12.30679988861084 11.581363677978516 12.534954071044922 L11.581363677978516 12.534954071044922 C11.461163520812988 12.534954071044922 11.340963363647461 12.534954071044922 11.220763206481934 12.534954071044922 L11.220763206481934 12.534954071044922 C11.053980827331543 12.334823608398438 10.844724655151367 12.131001472473145 10.590927124023438 12.072218894958496 L10.590927124023438 12.072218894958496 C10.57714557647705 12.223918914794922 10.563363075256348 12.375618934631348 10.549581527709961 12.527318954467773 L10.549581527709961 12.527318954467773 C10.447627067565918 12.54195499420166 10.345672607421875 12.556591033935547 10.243718147277832 12.571227073669434 L10.243718147277832 12.571227073669434 C10.267440795898438 12.133414268493652 10.267746925354004 11.693744659423828 10.24532699584961 11.255863189697266 L10.24532699584961 11.255863189697266 C10.210636138916016 11.224817276000977 10.175945281982422 11.193772315979004 10.141254425048828 11.162726402282715 L10.141254425048828 11.162726402282715 C10.279026985168457 11.158044815063477 10.416800498962402 11.153363227844238 10.554573059082031 11.148681640625 L10.554573059082031 11.148681640625"></path></svg>