<svg xmlns="http://www.w3.org/2000/svg" viewBox="0.0 0.0 24.0 24.0" height="200px" width="200px"><path fill="none" stroke="black" stroke-width=".3" stroke-opacity="1.0"  filling="0" d="M10.471117973327637 9.640226364135742 L10.471117973327637 9.640226364135742 C11.192635536193848 9.683333396911621 13.821516990661621 9.519658088684082 13.159882545471191 11.071634292602539 C13.06173324584961 11.301859855651855 12.720726013183594 11.405533790588379 12.685064315795898 11.653253555297852 L12.685064315795898 11.653253555297852 C14.880996704101562 13.23823356628418 11.996533393859863 14.597345352172852 10.400564193725586 13.99475383758545 L10.400564193725586 13.99475383758545 C11.189020156860352 13.094175338745117 10.538484573364258 11.107745170593262 10.619454383850098 9.941672325134277 L10.619454383850098 9.941672325134277 C10.550463676452637 9.876199722290039 10.48147201538086 9.8107271194458 10.412481307983398 9.745254516601562 L10.412481307983398 9.745254516601562 C10.432026863098145 9.710245132446289 10.45157241821289 9.675235748291016 10.471117973327637 9.640226364135742 L10.471117973327637 9.640226364135742"></path>
<path fill="none" stroke="black" stroke-width=".3" stroke-opacity="1.0"  filling="0" d="M11.679218292236328 10.047245025634766 L11.679218292236328 10.047245025634766 C12.567105293273926 10.488612174987793 12.624809265136719 11.161911010742188 11.649600982666016 11.524145126342773 L11.649600982666016 11.524145126342773 C11.659473419189453 11.031845092773438 11.66934585571289 10.539545059204102 11.679218292236328 10.047245025634766 L11.679218292236328 10.047245025634766"></path>
<path fill="none" stroke="black" stroke-width=".3" stroke-opacity="1.0"  filling="0" d="M11.747045516967773 11.920581817626953 L11.747045516967773 11.920581817626953 C12.87745189666748 12.283605575561523 12.658672332763672 13.294236183166504 11.660371780395508 13.671735763549805 L11.660371780395508 13.671735763549805 C11.65992259979248 13.643455505371094 11.494040489196777 12.055425643920898 11.747045516967773 11.920581817626953 L11.747045516967773 11.920581817626953"></path></svg>