<svg xmlns="http://www.w3.org/2000/svg" viewBox="0.0 0.0 24.0 24.0" height="200px" width="200px"><path fill="none" stroke="black" stroke-width=".3" stroke-opacity="1.0"  filling="0" d="M25.52760124206543 9.658527374267578 L25.52760124206543 9.658527374267578 C25.773012161254883 9.686841011047363 26.00933837890625 9.708503723144531 26.25640869140625 9.696464538574219 L26.25640869140625 9.696464538574219 C26.13359832763672 11.000663757324219 25.634824752807617 12.811928749084473 26.267480850219727 14.05483627319336 L26.267480850219727 14.05483627319336 C25.440629959106445 14.668745994567871 24.533334732055664 12.461973190307617 24.23876953125 12.00269889831543 L24.23876953125 12.00269889831543 C24.116548538208008 12.679902076721191 24.039472579956055 13.435052871704102 24.407970428466797 14.030044555664062 L24.407970428466797 14.030044555664062 C22.735811233520508 14.964054107666016 23.91489601135254 10.638016700744629 23.28610610961914 9.714410781860352 L23.28610610961914 9.714410781860352 C23.65949249267578 9.709918975830078 24.032920837402344 9.708181381225586 24.406333923339844 9.70865535736084 L24.406333923339844 9.70865535736084 C24.76350212097168 10.311290740966797 25.116901397705078 10.91617488861084 25.466617584228516 11.523164749145508 L25.466617584228516 11.523164749145508 C25.515138626098633 11.02129077911377 25.447254180908203 10.503023147583008 25.432472229003906 9.997909545898438 L25.432472229003906 9.997909545898438 C25.354053497314453 9.927873611450195 25.275636672973633 9.857836723327637 25.19721794128418 9.787800788879395 L25.19721794128418 9.787800788879395 C25.209672927856445 9.754446029663086 25.222126007080078 9.721091270446777 25.234580993652344 9.687736511230469 L25.234580993652344 9.687736511230469 C25.33225440979004 9.678000450134277 25.429927825927734 9.66826343536377 25.52760124206543 9.658527374267578 L25.52760124206543 9.658527374267578"></path></svg>