<svg xmlns="http://www.w3.org/2000/svg" viewBox="0.0 0.0 24.0 24.0" height="200px" width="200px"><path fill="none" stroke="black" stroke-width=".3" stroke-opacity="1.0"  filling="0" d="M18.289121627807617 9.672873497009277 L18.289121627807617 9.672873497009277 C18.874561309814453 9.706323623657227 19.805471420288086 9.510129928588867 20.27882957458496 9.673582077026367 C20.7000732421875 9.819038391113281 21.112751007080078 11.059576034545898 19.86943817138672 10.256589889526367 L19.86943817138672 10.256589889526367 C19.770038604736328 11.513484001159668 19.62417221069336 12.964130401611328 20.08399200439453 14.133817672729492 L20.08399200439453 14.133817672729492 C20.073347091674805 14.139372825622559 20.062700271606445 14.144927024841309 20.05205535888672 14.150482177734375 L20.05205535888672 14.150482177734375 C19.65129852294922 14.034473419189453 18.930194854736328 14.293363571166992 18.5953369140625 14.071309089660645 C18.39344596862793 13.93742847442627 18.694738388061523 13.597089767456055 18.739856719970703 13.359081268310547 C18.919921875 12.4091796875 18.83155059814453 11.330002784729004 18.78226661682129 10.371818542480469 L18.78226661682129 10.371818542480469 C18.717912673950195 10.375454902648926 18.65355682373047 10.379091262817383 18.589202880859375 10.38272762298584 L18.589202880859375 10.38272762298584 C18.422576904296875 10.490918159484863 18.255949020385742 10.599109649658203 18.089323043823242 10.707300186157227 L18.089323043823242 10.707300186157227 C18.058259963989258 10.673800468444824 18.02719497680664 10.640299797058105 17.996131896972656 10.606800079345703 L17.996131896972656 10.606800079345703 C18.093795776367188 10.295491218566895 18.191457748413086 9.984182357788086 18.289121627807617 9.672873497009277 L18.289121627807617 9.672873497009277"></path></svg>