<svg xmlns="http://www.w3.org/2000/svg" viewBox="0.0 0.0 24.0 24.0" height="200px" width="200px"><path fill="none" stroke="black" stroke-width=".3" stroke-opacity="1.0"  filling="0" d="M10.827791213989258 10.60560131072998 L10.827791213989258 10.60560131072998 C11.081747055053711 10.607279777526855 11.363312721252441 10.580061912536621 11.582781791687012 10.707847595214844 L11.582781791687012 10.707847595214844 C11.051722526550293 11.366598129272461 11.250805854797363 12.545848846435547 11.560582160949707 13.28582763671875 L11.560582160949707 13.28582763671875 C11.544336318969727 13.326427459716797 11.528091430664062 13.367027282714844 11.511845588684082 13.40762710571289 L11.511845588684082 13.40762710571289 C11.160985946655273 13.389134407043457 10.809225082397461 13.359660148620605 10.458272933959961 13.376291275024414 L10.458272933959961 13.376291275024414 C10.450763702392578 13.364864349365234 10.443254470825195 13.353437423706055 10.435745239257812 13.342010498046875 L10.435745239257812 13.342010498046875 C10.764554023742676 12.646164894104004 10.608406066894531 11.841078758239746 10.568154335021973 11.098228454589844 L10.568154335021973 11.098228454589844 C9.397785186767578 11.864821434020996 10.119447708129883 10.883234977722168 10.827791213989258 10.60560131072998 L10.827791213989258 10.60560131072998"></path></svg>