<svg xmlns="http://www.w3.org/2000/svg" viewBox="0.0 0.0 24.0 24.0" height="200px" width="200px"><path fill="none" stroke="black" stroke-width=".3" stroke-opacity="1.0"  filling="0" d="M12.249272346496582 12.13764476776123 L12.249272346496582 12.13764476776123 C12.240545272827148 12.237926483154297 12.231818199157715 12.33820915222168 12.223091125488281 12.438490867614746 L12.223091125488281 12.438490867614746 C12.254745483398438 12.459545135498047 12.286399841308594 12.480600357055664 12.31805419921875 12.501654624938965 L12.31805419921875 12.501654624938965 C12.3107271194458 12.51140022277832 12.303399085998535 12.521145820617676 12.296072006225586 12.530891418457031 L12.296072006225586 12.530891418457031 C12.226862907409668 12.550436973571777 12.15765380859375 12.569981575012207 12.088444709777832 12.589527130126953 L12.088444709777832 12.589527130126953 C12.11929988861084 12.456990242004395 12.150154113769531 12.324454307556152 12.181009292602539 12.191917419433594 L12.181009292602539 12.191917419433594 C12.043169021606445 12.364082336425781 11.755008697509766 12.625048637390137 11.844844818115234 12.20132827758789 L11.844844818115234 12.20132827758789 C11.880754470825195 12.190046310424805 11.91666316986084 12.178764343261719 11.9525728225708 12.167482376098633 L11.9525728225708 12.167482376098633 C11.966995239257812 12.238450050354004 11.901790618896484 12.314420700073242 11.925082206726074 12.382990837097168 L11.925082206726074 12.382990837097168 C12.033145904541016 12.30120849609375 12.14120864868164 12.219427108764648 12.249272346496582 12.13764476776123 L12.249272346496582 12.13764476776123"></path></svg>