<svg xmlns="http://www.w3.org/2000/svg" viewBox="0.0 0.0 24.0 24.0" height="200px" width="200px"><path fill="none" stroke="black" stroke-width=".3" stroke-opacity="1.0"  filling="0" d="M12.105518341064453 10.472753524780273 L12.105518341064453 10.472753524780273 C12.641037940979004 10.473043441772461 13.180432319641113 10.426529884338379 13.711963653564453 10.491762161254883 L13.711963653564453 10.491762161254883 C13.559179306030273 11.261090278625488 13.292277336120605 10.963693618774414 12.381736755371094 10.96371841430664 L12.381736755371094 10.96371841430664 C12.347609519958496 11.13266372680664 12.313482284545898 11.301608085632324 12.2793550491333 11.470553398132324 L12.2793550491333 11.470553398132324 C15.696582794189453 10.297014236450195 12.353230476379395 15.990365982055664 11.591483116149902 12.57529067993164 L11.591483116149902 12.57529067993164 C11.779546737670898 12.548409461975098 11.967610359191895 12.521527290344238 12.15567398071289 12.494646072387695 L12.15567398071289 12.494646072387695 C12.440300941467285 13.070521354675293 13.432188034057617 13.39651107788086 13.324200630187988 12.28123664855957 C13.254321098327637 11.559532165527344 12.179797172546387 12.161867141723633 11.694381713867188 12.082008361816406 L11.694381713867188 12.082008361816406 C11.727081298828125 11.890697479248047 11.780830383300781 10.484464645385742 12.105518341064453 10.472753524780273 L12.105518341064453 10.472753524780273"></path></svg>