<svg xmlns="http://www.w3.org/2000/svg" viewBox="0.0 0.0 24.0 24.0" height="200px" width="200px"><path fill="none" stroke="black" stroke-width=".3" stroke-opacity="1.0"  filling="0" d="M11.706600189208984 11.83862590789795 L11.706600189208984 11.83862590789795 C11.875082015991211 11.896981239318848 12.043563842773438 11.95533561706543 12.212045669555664 12.013690948486328 L12.212045669555664 12.013690948486328 C12.075055122375488 12.116700172424316 11.938063621520996 12.219708442687988 11.80107307434082 12.322717666625977 L11.80107307434082 12.322717666625977 C11.951618194580078 12.37403392791748 12.131081581115723 12.438454627990723 12.202581405639648 12.580528259277344 L12.202581405639648 12.580528259277344 C12.031317710876465 12.516182899475098 11.860054969787598 12.451836585998535 11.688791275024414 12.387491226196289 L11.688791275024414 12.387491226196289 C11.751712799072266 12.242443084716797 11.864143371582031 12.112512588500977 11.997218132019043 12.027135848999023 L11.997218132019043 12.027135848999023 C11.995908737182617 12.014872550964355 11.994600296020508 12.002609252929688 11.993290901184082 11.99034595489502 L11.993290901184082 11.99034595489502 C11.897727012634277 11.974345207214355 11.802164077758789 11.958345413208008 11.706600189208984 11.942344665527344 L11.706600189208984 11.942344665527344 C11.706600189208984 11.907772064208984 11.706600189208984 11.873198509216309 11.706600189208984 11.83862590789795 L11.706600189208984 11.83862590789795"></path></svg>