<svg xmlns="http://www.w3.org/2000/svg" viewBox="0.0 0.0 24.0 24.0" height="200px" width="200px"><path fill="none" stroke="black" stroke-width=".3" stroke-opacity="1.0"  filling="0" d="M12.061445236206055 13.022836685180664 L12.061445236206055 13.022836685180664 C12.535846710205078 13.49326229095459 11.857804298400879 13.645424842834473 11.797608375549316 13.113900184631348 L11.797608375549316 13.113900184631348 C11.837553977966309 13.09109115600586 11.8774995803833 13.068282127380371 11.917445182800293 13.045473098754883 L11.917445182800293 13.045473098754883 C11.922718048095703 13.051427841186523 11.927989959716797 13.057381629943848 11.933262825012207 13.063336372375488 L11.933262825012207 13.063336372375488 C11.889511108398438 13.158014297485352 11.877057075500488 13.270413398742676 11.89249038696289 13.373563766479492 L11.89249038696289 13.373563766479492 C12.227400779724121 13.422524452209473 12.299159049987793 13.425969123840332 12.120926856994629 13.119573593139648 L12.120926856994629 13.119573593139648 C12.113693237304688 13.164113998413086 12.104844093322754 13.208534240722656 12.09237289428711 13.251900672912598 L12.09237289428711 13.251900672912598 C12.082063674926758 13.250682830810547 12.071754455566406 13.24946403503418 12.061445236206055 13.248246192932129 L12.061445236206055 13.248246192932129 C12.061445236206055 13.173110008239746 12.061445236206055 13.097972869873047 12.061445236206055 13.022836685180664 L12.061445236206055 13.022836685180664"></path></svg>