<svg xmlns="http://www.w3.org/2000/svg" viewBox="0.0 0.0 24.0 24.0" height="200px" width="200px"><path fill="none" stroke="black" stroke-width=".3" stroke-opacity="1.0"  filling="0" d="M10.980000495910645 11.613517761230469 L10.980000495910645 11.613517761230469 C11.061336517333984 11.856627464294434 11.142672538757324 12.099736213684082 11.224008560180664 12.342845916748047 L11.224008560180664 12.342845916748047 C11.181790351867676 12.347563743591309 11.139572143554688 12.352282524108887 11.0973539352417 12.357000350952148 L11.0973539352417 12.357000350952148 C11.0770902633667 12.318655014038086 11.056827545166016 12.280309677124023 11.036563873291016 12.241964340209961 L11.036563873291016 12.241964340209961 C10.934654235839844 12.277128219604492 10.832745552062988 12.312292098999023 10.730835914611816 12.347455978393555 L10.730835914611816 12.347455978393555 C10.683463096618652 12.347455978393555 10.636090278625488 12.347455978393555 10.588717460632324 12.347455978393555 L10.588717460632324 12.347455978393555 C10.67251205444336 12.08318042755127 10.717453956604004 11.702581405639648 10.980000495910645 11.613517761230469 L10.980000495910645 11.613517761230469"></path>
<path fill="none" stroke="black" stroke-width=".3" stroke-opacity="1.0"  filling="0" d="M10.891609191894531 11.835927963256836 L10.891609191894531 11.835927963256836 C10.900472640991211 11.836518287658691 10.909337043762207 11.837109565734863 10.918200492858887 11.837699890136719 L10.918200492858887 11.837699890136719 C10.952400207519531 11.938445091247559 10.986600875854492 12.039191246032715 11.020800590515137 12.139936447143555 L11.020800590515137 12.139936447143555 C10.947863578796387 12.134227752685547 10.874927520751953 12.128519058227539 10.801990509033203 12.122810363769531 L10.801990509033203 12.122810363769531 C10.831863403320312 12.027182579040527 10.861736297607422 11.93155574798584 10.891609191894531 11.835927963256836 L10.891609191894531 11.835927963256836"></path></svg>