<svg xmlns="http://www.w3.org/2000/svg" viewBox="0.0 0.0 24.0 24.0" height="200px" width="200px"><path fill="none" stroke="black" stroke-width=".3" stroke-opacity="1.0"  filling="0" d="M11.460654258728027 11.705972671508789 L11.460654258728027 11.705972671508789 C11.503390312194824 11.705972671508789 11.546127319335938 11.705972671508789 11.588863372802734 11.705972671508789 L11.588863372802734 11.705972671508789 C11.58496379852295 11.780426979064941 11.581063270568848 11.85488224029541 11.577163696289062 11.929336547851562 L11.577163696289062 11.929336547851562 C12.13333511352539 11.849431991577148 11.946863174438477 12.38266658782959 11.460654258728027 12.436827659606934 L11.460654258728027 12.436827659606934 C11.460654258728027 12.193209648132324 11.460654258728027 11.949590682983398 11.460654258728027 11.705972671508789 L11.460654258728027 11.705972671508789"></path>
<path fill="none" stroke="black" stroke-width=".3" stroke-opacity="1.0"  filling="0" d="M11.768181800842285 12.041182518005371 L11.768181800842285 12.041182518005371 C11.788744926452637 12.120755195617676 11.809309005737305 12.200326919555664 11.829872131347656 12.279899597167969 L11.829872131347656 12.279899597167969 C11.719595909118652 12.299775123596191 11.613959312438965 12.157586097717285 11.585318565368652 12.049254417419434 L11.585318565368652 12.049254417419434 C11.646272659301758 12.046564102172852 11.70722770690918 12.043872833251953 11.768181800842285 12.041182518005371 L11.768181800842285 12.041182518005371"></path></svg>