<svg xmlns="http://www.w3.org/2000/svg" viewBox="0.0 0.0 24.0 24.0" height="200px" width="200px"><path fill="none" stroke="black" stroke-width=".3" stroke-opacity="1.0"  filling="0" d="M12.095128059387207 11.708209991455078 L12.095128059387207 11.708209991455078 C12.233709335327148 11.708209991455078 12.372291564941406 11.708209991455078 12.510872840881348 11.708209991455078 L12.510872840881348 11.708209991455078 C12.510872840881348 11.741209983825684 12.510872840881348 11.774209976196289 12.510872840881348 11.807209968566895 L12.510872840881348 11.807209968566895 C12.397991180419922 11.807209968566895 12.28510856628418 11.807209968566895 12.172226905822754 11.807209968566895 L12.172226905822754 11.807209968566895 C12.17022705078125 11.841836929321289 12.168227195739746 11.87646484375 12.166227340698242 11.911091804504395 L12.166227340698242 11.911091804504395 C12.628643989562988 11.935436248779297 12.569926261901855 12.714643478393555 12.002155303955078 12.227264404296875 L12.002155303955078 12.227264404296875 C12.45146369934082 12.369089126586914 12.509417533874512 12.02087688446045 12.014699935913086 12.083182334899902 L12.014699935913086 12.083182334899902 C12.041509628295898 11.958191871643066 12.068318367004395 11.833200454711914 12.095128059387207 11.708209991455078 L12.095128059387207 11.708209991455078"></path></svg>