<svg xmlns="http://www.w3.org/2000/svg" viewBox="0.0 0.0 24.0 24.0" height="200px" width="200px"><path fill="none" stroke="black" stroke-width=".3" stroke-opacity="1.0"  filling="0" d="M16.915908813476562 10.385564804077148 L16.915908813476562 10.385564804077148 C17.07122802734375 10.385564804077148 17.226545333862305 10.385564804077148 17.381864547729492 10.385564804077148 L17.381864547729492 10.385564804077148 C17.3935604095459 10.735103607177734 17.399145126342773 11.084877014160156 17.399999618530273 11.434610366821289 L17.399999618530273 11.434610366821289 C18.782817840576172 10.602653503417969 18.96826934814453 12.493429183959961 18.749507904052734 13.423527717590332 L18.749507904052734 13.423527717590332 C18.58372688293457 13.423527717590332 18.417943954467773 13.423527717590332 18.25216293334961 13.423527717590332 L18.25216293334961 13.423527717590332 C18.231599807739258 12.98289966583252 18.308956146240234 12.536576271057129 18.244333267211914 12.100227355957031 C18.195947647094727 11.773509979248047 17.898014068603516 11.516958236694336 17.576833724975586 11.806145668029785 C16.985265731811523 12.338787078857422 17.958721160888672 13.445199966430664 16.915908813476562 13.445454597473145 L16.915908813476562 13.445454597473145 C16.915908813476562 12.425491333007812 16.915908813476562 11.40552806854248 16.915908813476562 10.385564804077148 L16.915908813476562 10.385564804077148"></path></svg>