<svg xmlns="http://www.w3.org/2000/svg" viewBox="0.0 0.0 24.0 24.0" height="200px" width="200px"><path fill="none" stroke="black" stroke-width=".3" stroke-opacity="1.0"  filling="0" d="M5.502927303314209 11.67147159576416 L5.502927303314209 11.67147159576416 C5.506945610046387 11.75594425201416 5.510963439941406 11.840417861938477 5.514981746673584 11.924890518188477 L5.514981746673584 11.924890518188477 C5.619518280029297 11.933699607849121 5.724054336547852 11.94250774383545 5.8285908699035645 11.951316833496094 L5.8285908699035645 11.951316833496094 C5.8285908699035645 12.120408058166504 5.8285908699035645 12.289498329162598 5.8285908699035645 12.458589553833008 L5.8285908699035645 12.458589553833008 C5.776645660400391 12.458589553833008 5.724699974060059 12.458589553833008 5.672754764556885 12.458589553833008 L5.672754764556885 12.458589553833008 C5.6729841232299805 12.30268669128418 5.646474838256836 12.1442289352417 5.593282222747803 11.9976806640625 L5.593282222747803 11.9976806640625 C5.469300270080566 12.22629451751709 5.559867858886719 12.289278984069824 5.340981483459473 12.461181640625 L5.340981483459473 12.461181640625 C5.340981483459473 12.201608657836914 5.340981483459473 11.942036628723145 5.340981483459473 11.682463645935059 L5.340981483459473 11.682463645935059 C5.394963264465332 11.678799629211426 5.44894552230835 11.675135612487793 5.502927303314209 11.67147159576416 L5.502927303314209 11.67147159576416"></path></svg>