<svg xmlns="http://www.w3.org/2000/svg" viewBox="0.0 0.0 24.0 24.0" height="200px" width="200px"><path fill="none" stroke="black" stroke-width=".3" stroke-opacity="1.0"  filling="0" d="M9.827535629272461 11.66915512084961 L9.827535629272461 11.66915512084961 C9.96560001373291 11.69970989227295 10.103663444519043 11.730263710021973 10.241727828979492 11.760818481445312 L10.241727828979492 11.760818481445312 C10.171514511108398 11.782618522644043 9.846029281616211 11.735572814941406 9.833754539489746 11.84162712097168 C9.81169605255127 12.032210350036621 10.265974998474121 11.903746604919434 10.254655838012695 12.192899703979492 C10.239509582519531 12.579822540283203 9.779004096984863 12.328900337219238 9.64039134979248 12.269782066345215 L9.64039134979248 12.269782066345215 C9.681509971618652 12.241682052612305 9.722627639770508 12.213582038879395 9.76374626159668 12.185482025146484 L9.76374626159668 12.185482025146484 C9.887277603149414 12.213335990905762 10.068865776062012 12.24915599822998 10.141528129577637 12.145444869995117 L10.141528129577637 12.145444869995117 C10.002737045288086 12.104572296142578 9.863945960998535 12.063699722290039 9.725154876708984 12.0228271484375 L9.725154876708984 12.0228271484375 C9.67976188659668 11.908799171447754 9.766798973083496 11.775803565979004 9.827535629272461 11.66915512084961 L9.827535629272461 11.66915512084961"></path></svg>