<svg xmlns="http://www.w3.org/2000/svg" viewBox="0.0 0.0 24.0 24.0" height="200px" width="200px"><path fill="none" stroke="black" stroke-width=".3" stroke-opacity="1.0"  filling="0" d="M10.755107879638672 11.890501022338867 L10.755107879638672 11.890501022338867 C10.822453498840332 12.001718521118164 10.889799118041992 12.112936973571777 10.957144737243652 12.224154472351074 L10.957144737243652 12.224154472351074 C10.83663558959961 12.224154472351074 10.716126441955566 12.224154472351074 10.595617294311523 12.224154472351074 L10.595617294311523 12.224154472351074 C10.636000633239746 12.292854309082031 10.752824783325195 12.337137222290039 10.82271671295166 12.29885482788086 L10.82271671295166 12.29885482788086 C10.867399215698242 12.301155090332031 10.912080764770508 12.303454399108887 10.95676326751709 12.305754661560059 L10.95676326751709 12.305754661560059 C10.424360275268555 12.604769706726074 10.277791023254395 12.200881958007812 10.755107879638672 11.890501022338867 L10.755107879638672 11.890501022338867"></path>
<path fill="none" stroke="black" stroke-width=".3" stroke-opacity="1.0"  filling="0" d="M10.657800674438477 12.008262634277344 L10.657800674438477 12.008262634277344 C10.710273742675781 12.024417877197266 10.76274585723877 12.040572166442871 10.815218925476074 12.056727409362793 L10.815218925476074 12.056727409362793 C10.742582321166992 12.074600219726562 10.66994571685791 12.092472076416016 10.597309112548828 12.110344886779785 L10.597309112548828 12.110344886779785 C10.617472648620605 12.07631778717041 10.6376371383667 12.042289733886719 10.657800674438477 12.008262634277344 L10.657800674438477 12.008262634277344"></path></svg>