<svg xmlns="http://www.w3.org/2000/svg" viewBox="0.0 0.0 24.0 24.0" height="200px" width="200px"><path fill="none" stroke="black" stroke-width=".3" stroke-opacity="1.0"  filling="0" d="M18.849571228027344 11.708563804626465 L18.849571228027344 11.708563804626465 C18.90092658996582 11.708563804626465 18.952280044555664 11.708563804626465 19.00363540649414 11.708563804626465 L19.00363540649414 11.708563804626465 C19.00694465637207 11.755863189697266 19.010251998901367 11.803163528442383 19.013561248779297 11.850462913513184 L19.013561248779297 11.850462913513184 C19.05612564086914 11.895517349243164 19.098690032958984 11.940572738647461 19.141254425048828 11.985627174377441 L19.141254425048828 11.985627174377441 C19.061445236206055 12.071904182434082 19.074806213378906 12.238118171691895 19.13645362854004 12.338181495666504 L19.13645362854004 12.338181495666504 C19.1442813873291 12.379944801330566 19.152109146118164 12.421709060668945 19.159936904907227 12.463472366333008 L19.159936904907227 12.463472366333008 C18.84245491027832 12.462973594665527 18.84651756286621 12.34355640411377 18.846027374267578 12.04494571685791 L18.846027374267578 12.04494571685791 C18.788488388061523 12.012557029724121 18.805681228637695 11.901788711547852 18.842370986938477 11.846891403198242 L18.842370986938477 11.846891403198242 C18.844606399536133 11.800773620605469 18.84703254699707 11.75466537475586 18.849571228027344 11.708563804626465 L18.849571228027344 11.708563804626465"></path></svg>