<svg xmlns="http://www.w3.org/2000/svg" viewBox="0.0 0.0 24.0 24.0" height="200px" width="200px"><path fill="none" stroke="black" stroke-width=".3" stroke-opacity="1.0"  filling="0" d="M15.10947322845459 11.652872085571289 L15.10947322845459 11.652872085571289 C15.170246124267578 11.652872085571289 15.231019020080566 11.652872085571289 15.291791915893555 11.652872085571289 L15.291791915893555 11.652872085571289 C15.297037124633789 11.732890129089355 15.302282333374023 11.812908172607422 15.307527542114258 11.892926216125488 L15.307527542114258 11.892926216125488 C15.6832857131958 11.854066848754883 15.81351375579834 12.317304611206055 15.46235466003418 12.470999717712402 L15.46235466003418 12.470999717712402 C15.454572677612305 12.319808959960938 15.44679069519043 12.168618202209473 15.439008712768555 12.017427444458008 L15.439008712768555 12.017427444458008 C15.32461929321289 12.102120399475098 15.30093002319336 12.279006004333496 15.300518035888672 12.42133617401123 L15.300518035888672 12.42133617401123 C15.251399993896484 12.438745498657227 15.202281951904297 12.456153869628906 15.15316390991211 12.473563194274902 L15.15316390991211 12.473563194274902 C15.082018852233887 12.220641136169434 15.110743522644043 11.919482231140137 15.10947322845459 11.652872085571289 L15.10947322845459 11.652872085571289"></path></svg>