<svg xmlns="http://www.w3.org/2000/svg" viewBox="0.0 0.0 24.0 24.0" height="200px" width="200px"><path fill="none" stroke="black" stroke-width=".3" stroke-opacity="1.0"  filling="0" d="M-9.419071197509766 6.105984687805176 L-9.419071197509766 6.105984687805176 C-8.860623359680176 6.4734721183776855 -8.55219841003418 8.295549392700195 -8.308963775634766 8.965476989746094 C-7.781991958618164 10.416887283325195 -7.126651763916016 11.928384780883789 -6.564493179321289 13.462702751159668 C-6.002334117889404 14.997020721435547 -5.533356189727783 16.554157257080078 -5.379108428955078 18.096845626831055 L-5.379108428955078 18.096845626831055 C-6.383918762207031 18.21295738220215 -7.389617919921875 18.32159996032715 -8.396018981933594 18.42300033569336 L-8.396018981933594 18.42300033569336 C-8.59876823425293 18.119844436645508 -8.452269554138184 17.46747589111328 -8.574546813964844 17.127683639526367 L-8.574546813964844 17.127683639526367 C-10.277825355529785 17.29932403564453 -11.615276336669922 16.817241668701172 -11.512825012207031 18.733173370361328 L-11.512825012207031 18.733173370361328 C-11.51568603515625 18.733488082885742 -14.396369934082031 19.051048278808594 -14.396509170532227 19.051063537597656 L-14.396509170532227 19.051063537597656 C-14.587617874145508 16.97941780090332 -13.976801872253418 14.882261276245117 -13.665653228759766 12.833075523376465 C-13.345108985900879 10.72200870513916 -13.18437385559082 8.5779390335083 -12.806482315063477 6.476893901824951 L-12.806482315063477 6.476893901824951 C-11.677305221557617 6.348692893981934 -10.549491882324219 6.222804069519043 -9.419071197509766 6.105984687805176 L-9.419071197509766 6.105984687805176"></path>
<path fill="none" stroke="black" stroke-width=".3" stroke-opacity="1.0"  filling="0" d="M-10.629817962646484 11.259490966796875 L-10.629817962646484 11.259490966796875 C-10.163439750671387 12.109970092773438 -10.00186824798584 13.167373657226562 -9.625226974487305 14.058218002319336 L-9.625226974487305 14.058218002319336 C-11.718474388122559 15.45765209197998 -10.820965766906738 12.202309608459473 -10.629817962646484 11.259490966796875 L-10.629817962646484 11.259490966796875"></path></svg>