<svg xmlns="http://www.w3.org/2000/svg" viewBox="0.0 0.0 24.0 24.0" height="200px" width="200px"><path fill="none" stroke="black" stroke-width=".3" stroke-opacity="1.0"  filling="0" d="M11.057345390319824 11.837509155273438 L11.057345390319824 11.837509155273438 C11.417304992675781 12.086563110351562 11.278749465942383 12.238945960998535 10.900392532348633 12.3208646774292 L10.900392532348633 12.3208646774292 C10.895565032958984 12.38247299194336 10.89073657989502 12.444082260131836 10.885909080505371 12.505690574645996 L10.885909080505371 12.505690574645996 C10.850227355957031 12.51039981842041 10.814545631408691 12.515109062194824 10.778863906860352 12.519818305969238 L10.778863906860352 12.519818305969238 C10.778863906860352 12.296309471130371 10.778863906860352 12.072799682617188 10.778863906860352 11.84929084777832 L10.778863906860352 11.84929084777832 C10.87169075012207 11.84536361694336 10.964518547058105 11.841436386108398 11.057345390319824 11.837509155273438 L11.057345390319824 11.837509155273438"></path>
<path fill="none" stroke="black" stroke-width=".3" stroke-opacity="1.0"  filling="0" d="M11.075645446777344 11.961299896240234 L11.075645446777344 11.961299896240234 C11.187593460083008 12.227940559387207 11.079054832458496 12.31350326538086 10.87570858001709 12.05007266998291 L10.87570858001709 12.05007266998291 C10.942354202270508 12.020482063293457 11.008999824523926 11.990890502929688 11.075645446777344 11.961299896240234 L11.075645446777344 11.961299896240234"></path></svg>