<svg xmlns="http://www.w3.org/2000/svg" viewBox="0.0 0.0 24.0 24.0" height="200px" width="200px"><path fill="none" stroke="black" stroke-width=".3" stroke-opacity="1.0"  filling="0" d="M11.320036888122559 11.839255332946777 L11.320036888122559 11.839255332946777 C11.407280921936035 11.853363037109375 11.51889705657959 11.876420974731445 11.558319091796875 11.95551872253418 L11.558319091796875 11.95551872253418 C11.47586727142334 11.973733901977539 11.387842178344727 11.956844329833984 11.30563735961914 11.937545776367188 L11.30563735961914 11.937545776367188 C11.299554824829102 11.948909759521484 11.293473243713379 11.960272789001465 11.28739070892334 11.971636772155762 L11.28739070892334 11.971636772155762 C11.412020683288574 12.188693046569824 11.775420188903809 12.525151252746582 11.1340913772583 12.284890174865723 L11.1340913772583 12.284890174865723 C11.15000057220459 12.267807960510254 11.165908813476562 12.250726699829102 11.181818008422852 12.233644485473633 L11.181818008422852 12.233644485473633 C11.283500671386719 12.245855331420898 11.423896789550781 12.248461723327637 11.480917930603027 12.16339111328125 L11.480917930603027 12.16339111328125 C11.194642066955566 12.162345886230469 11.086618423461914 12.05958080291748 11.320036888122559 11.839255332946777 L11.320036888122559 11.839255332946777"></path></svg>