<svg xmlns="http://www.w3.org/2000/svg" viewBox="0.0 0.0 24.0 24.0" height="200px" width="200px"><path fill="none" stroke="black" stroke-width=".3" stroke-opacity="1.0"  filling="0" d="M13.755081176757812 11.91616439819336 L13.755081176757812 11.91616439819336 C13.871363639831543 11.946063995361328 13.987645149230957 11.975964546203613 14.103927612304688 12.005864143371582 L14.103927612304688 12.005864143371582 C14.022618293762207 11.995909690856934 13.941309928894043 11.985954284667969 13.860000610351562 11.97599983215332 L13.860000610351562 11.97599983215332 C13.830791473388672 12.00213623046875 13.801582336425781 12.02827262878418 13.77237319946289 12.05440902709961 L13.77237319946289 12.05440902709961 C14.28867244720459 12.186006546020508 14.167427062988281 12.557522773742676 13.642690658569336 12.397527694702148 L13.642690658569336 12.397527694702148 C13.642690658569336 12.360945701599121 13.642690658569336 12.32436466217041 13.642690658569336 12.287782669067383 L13.642690658569336 12.287782669067383 C13.763745307922363 12.327452659606934 13.898316383361816 12.322299003601074 14.024481773376465 12.304692268371582 L14.024481773376465 12.304692268371582 C13.91909122467041 12.274209976196289 13.813699722290039 12.243728637695312 13.708309173583984 12.21324634552002 L13.708309173583984 12.21324634552002 C13.723899841308594 12.114218711853027 13.739490509033203 12.015192031860352 13.755081176757812 11.91616439819336 L13.755081176757812 11.91616439819336"></path></svg>