<svg xmlns="http://www.w3.org/2000/svg" viewBox="0.0 0.0 24.0 24.0" height="200px" width="200px"><path fill="none" stroke="black" stroke-width=".3" stroke-opacity="1.0"  filling="0" d="M6.216763496398926 11.87784481048584 L6.216763496398926 11.87784481048584 C6.362249374389648 11.922048568725586 6.5112409591674805 12.04867935180664 6.5421271324157715 12.197562217712402 L6.5421271324157715 12.197562217712402 C6.423099994659424 12.20348072052002 6.304072856903076 12.209399223327637 6.1850457191467285 12.215317726135254 L6.1850457191467285 12.215317726135254 C6.203309535980225 12.266453742980957 6.2215728759765625 12.317590713500977 6.239836692810059 12.36872673034668 L6.239836692810059 12.36872673034668 C6.342118263244629 12.330426216125488 6.444400310516357 12.292126655578613 6.546681880950928 12.253826141357422 L6.546681880950928 12.253826141357422 C6.117221832275391 12.677213668823242 5.990565299987793 12.298680305480957 6.216763496398926 11.87784481048584 L6.216763496398926 11.87784481048584"></path>
<path fill="none" stroke="black" stroke-width=".3" stroke-opacity="1.0"  filling="0" d="M6.30379056930542 11.980445861816406 L6.30379056930542 11.980445861816406 C6.326708793640137 12.020173072814941 6.3496270179748535 12.059901237487793 6.37254524230957 12.099628448486328 L6.37254524230957 12.099628448486328 C6.3140363693237305 12.099628448486328 6.255527019500732 12.099628448486328 6.197018146514893 12.099628448486328 L6.197018146514893 12.099628448486328 C6.232608795166016 12.059901237487793 6.268199920654297 12.020173072814941 6.30379056930542 11.980445861816406 L6.30379056930542 11.980445861816406"></path></svg>