<svg xmlns="http://www.w3.org/2000/svg" viewBox="0.0 0.0 24.0 24.0" height="200px" width="200px"><path fill="none" stroke="black" stroke-width=".3" stroke-opacity="1.0"  filling="0" d="M14.622190475463867 11.86947250366211 L14.622190475463867 11.86947250366211 C14.713690757751465 11.927064895629883 14.807373046875 12.00297737121582 14.846481323242188 12.10377311706543 L14.846481323242188 12.10377311706543 C14.794035911560059 12.10377311706543 14.741589546203613 12.10377311706543 14.689144134521484 12.10377311706543 L14.689144134521484 12.10377311706543 C14.664763450622559 12.065564155578613 14.640381813049316 12.02735424041748 14.61600112915039 11.989145278930664 L14.61600112915039 11.989145278930664 C14.61457347869873 12.114981651306152 14.61314582824707 12.240818977355957 14.61171817779541 12.366655349731445 L14.61171817779541 12.366655349731445 C14.644499778747559 12.328173637390137 14.677282333374023 12.289690971374512 14.710063934326172 12.251209259033203 L14.710063934326172 12.251209259033203 C14.759408950805664 12.251209259033203 14.808754920959473 12.251209259033203 14.858099937438965 12.251209259033203 L14.858099937438965 12.251209259033203 C14.315390586853027 12.633366584777832 14.184263229370117 12.186238288879395 14.622190475463867 11.86947250366211 L14.622190475463867 11.86947250366211"></path></svg>