<svg xmlns="http://www.w3.org/2000/svg" viewBox="0.0 0.0 24.0 24.0" height="200px" width="200px"><path fill="none" stroke="black" stroke-width=".3" stroke-opacity="1.0"  filling="0" d="M19.682153701782227 11.290854454040527 L19.682153701782227 11.290854454040527 C20.897214889526367 11.294013023376465 20.446998596191406 11.604720115661621 19.83133316040039 12.401700973510742 L19.83133316040039 12.401700973510742 C20.065515518188477 12.401700973510742 20.299699783325195 12.401700973510742 20.53388214111328 12.401700973510742 L20.53388214111328 12.401700973510742 C20.53388214111328 12.484546661376953 20.53388214111328 12.567391395568848 20.53388214111328 12.650237083435059 L20.53388214111328 12.650237083435059 C20.163372039794922 12.666128158569336 19.791616439819336 12.665094375610352 19.421342849731445 12.644400596618652 L19.421342849731445 12.644400596618652 C19.475536346435547 12.159775733947754 19.959070205688477 11.951991081237793 20.118270874023438 11.537128448486328 L20.118270874023438 11.537128448486328 C19.9111270904541 11.537128448486328 19.703981399536133 11.537128448486328 19.496837615966797 11.537128448486328 L19.496837615966797 11.537128448486328 C19.439620971679688 11.451799392700195 19.611263275146484 11.365213394165039 19.682153701782227 11.290854454040527 L19.682153701782227 11.290854454040527"></path></svg>