<svg xmlns="http://www.w3.org/2000/svg" viewBox="0.0 0.0 24.0 24.0" height="200px" width="200px"><path fill="none" stroke="black" stroke-width=".3" stroke-opacity="1.0"  filling="0" d="M0.7456636428833008 5.048264980316162 L0.7456636428833008 5.048264980316162 C3.087766170501709 5.536809921264648 3.10612154006958 6.86140251159668 3.3383169174194336 8.966756820678711 L3.3383169174194336 8.966756820678711 C3.325270414352417 8.968263626098633 0.4287535846233368 9.302878379821777 0.40453624725341797 9.305675506591797 L0.40453624725341797 9.305675506591797 C0.04423990845680237 7.426555633544922 -3.1836037635803223 8.842522621154785 -2.083254814147949 9.790557861328125 C-1.430761456489563 10.352730751037598 0.9417650699615479 9.57885456085205 1.7044906616210938 9.634148597717285 C3.9629769325256348 9.79787826538086 4.520946025848389 14.392667770385742 3.793063163757324 16.060800552368164 C3.433762311935425 16.884231567382812 3.0445590019226074 17.074106216430664 2.2448997497558594 17.290966033935547 C0.973396897315979 17.635786056518555 -2.547191619873047 18.334131240844727 -3.665264129638672 17.505084991455078 C-4.718263626098633 16.72429084777832 -4.872107028961182 15.17045783996582 -4.879690170288086 13.942146301269531 L-4.879690170288086 13.942146301269531 C-4.319949150085449 13.892840385437012 -2.5124917030334473 13.365805625915527 -2.0195999145507812 13.636499404907227 C-1.4349262714385986 13.957599639892578 -1.6919212341308594 14.51087474822998 -0.911346435546875 14.47439956665039 C-0.27973461151123047 14.44488525390625 0.6680912375450134 14.51646900177002 0.8444995880126953 13.668190956115723 C1.0224665403366089 12.812417984008789 -0.24691078066825867 13.004070281982422 -0.564000129699707 13.031999588012695 C-1.5638084411621094 13.120062828063965 -3.125321388244629 13.642169952392578 -4.07781982421875 13.075854301452637 C-5.378876209259033 12.302300453186035 -5.852315425872803 8.554327011108398 -5.5045623779296875 7.136319160461426 C-4.978431701660156 4.990954399108887 -0.9970860481262207 5.115889549255371 0.7456636428833008 5.048264980316162 L0.7456636428833008 5.048264980316162"></path></svg>