<svg xmlns="http://www.w3.org/2000/svg" viewBox="0.0 0.0 24.0 24.0" height="200px" width="200px"><path fill="none" stroke="black" stroke-width=".3" stroke-opacity="1.0"  filling="0" d="M11.209035873413086 11.724790573120117 L11.209035873413086 11.724790573120117 C11.128227233886719 11.866181373596191 11.047418594360352 12.007573127746582 10.966609954833984 12.148963928222656 L10.966609954833984 12.148963928222656 C11.060064315795898 12.175100326538086 11.153518676757812 12.201236724853516 11.246973037719727 12.227373123168945 L11.246973037719727 12.227373123168945 C11.098564147949219 12.245518684387207 10.950154304504395 12.263664245605469 10.801745414733887 12.28180980682373 L10.801745414733887 12.28180980682373 C10.887008666992188 12.139055252075195 10.972272872924805 11.996299743652344 11.057536125183105 11.853545188903809 L11.057536125183105 11.853545188903809 C10.97175407409668 11.840417861938477 10.88597297668457 11.827290534973145 10.800190925598145 11.814163208007812 L10.800190925598145 11.814163208007812 C10.800509452819824 11.799336433410645 10.800827026367188 11.78450870513916 10.801145553588867 11.769681930541992 L10.801145553588867 11.769681930541992 C10.937108993530273 11.754717826843262 11.07307243347168 11.739754676818848 11.209035873413086 11.724790573120117 L11.209035873413086 11.724790573120117"></path></svg>