<svg xmlns="http://www.w3.org/2000/svg" viewBox="0.0 0.0 24.0 24.0" height="200px" width="200px"><path fill="none" stroke="black" stroke-width=".3" stroke-opacity="1.0"  filling="0" d="M10.569437026977539 11.857882499694824 L10.569437026977539 11.857882499694824 C10.74489688873291 12.17821216583252 10.633296012878418 12.138997077941895 10.309581756591797 12.111109733581543 L10.309581756591797 12.111109733581543 C10.4038724899292 12.136164665222168 10.498164176940918 12.161218643188477 10.59245491027832 12.186273574829102 L10.59245491027832 12.186273574829102 C10.871810913085938 12.522491455078125 9.534541130065918 11.917104721069336 10.569437026977539 11.857882499694824 L10.569437026977539 11.857882499694824"></path>
<path fill="none" stroke="black" stroke-width=".3" stroke-opacity="1.0"  filling="0" d="M10.45238208770752 11.923309326171875 L10.45238208770752 11.923309326171875 C10.480518341064453 11.947627067565918 10.508654594421387 11.971945762634277 10.53679084777832 11.99626350402832 L10.53679084777832 11.99626350402832 C10.527873039245605 12.003636360168457 10.518954277038574 12.011009216308594 10.51003646850586 12.01838207244873 L10.51003646850586 12.01838207244873 C10.449227333068848 12.01838207244873 10.388418197631836 12.01838207244873 10.327609062194824 12.01838207244873 L10.327609062194824 12.01838207244873 C10.369199752807617 11.98669147491455 10.410791397094727 11.954999923706055 10.45238208770752 11.923309326171875 L10.45238208770752 11.923309326171875"></path></svg>