<svg xmlns="http://www.w3.org/2000/svg" viewBox="0.0 0.0 24.0 24.0" height="200px" width="200px"><path fill="none" stroke="black" stroke-width=".3" stroke-opacity="1.0"  filling="0" d="M4.2254462242126465 11.355545043945312 L4.2254462242126465 11.355545043945312 C4.314218521118164 11.451881408691406 4.402990818023682 11.5482177734375 4.491763114929199 11.644554138183594 L4.491763114929199 11.644554138183594 C4.419209003448486 11.675599098205566 4.346654415130615 11.706645011901855 4.274100303649902 11.737689971923828 L4.274100303649902 11.737689971923828 C4.124954700469971 11.701189994812012 3.975809335708618 11.664690971374512 3.8266639709472656 11.628190994262695 L3.8266639709472656 11.628190994262695 C3.9882702827453613 11.860902786254883 4.550920009613037 11.904274940490723 4.548818588256836 12.219273567199707 C4.5437092781066895 12.985156059265137 3.676017999649048 12.820135116577148 3.414409637451172 12.378545761108398 L3.414409637451172 12.378545761108398 C3.5150277614593506 12.358755111694336 3.61564564704895 12.338963508605957 3.716263771057129 12.319172859191895 L3.716263771057129 12.319172859191895 C3.872215747833252 12.385198593139648 4.1424641609191895 12.443155288696289 4.223726749420166 12.294572830200195 L4.223726749420166 12.294572830200195 C3.4766764640808105 12.022514343261719 3.2214560508728027 11.356616973876953 4.2254462242126465 11.355545043945312 L4.2254462242126465 11.355545043945312"></path></svg>