<svg xmlns="http://www.w3.org/2000/svg" viewBox="0.0 0.0 24.0 24.0" height="200px" width="200px"><path fill="none" stroke="black" stroke-width=".3" stroke-opacity="1.0"  filling="0" d="M13.685453414916992 11.860991477966309 L13.685453414916992 11.860991477966309 C13.685453414916992 11.985981941223145 13.685453414916992 12.110973358154297 13.685453414916992 12.235963821411133 L13.685453414916992 12.235963821411133 C13.579689979553223 12.235963821411133 13.473926544189453 12.235963821411133 13.368163108825684 12.235963821411133 L13.368163108825684 12.235963821411133 C13.368163108825684 12.114690780639648 13.368163108825684 11.99341869354248 13.368163108825684 11.872145652770996 L13.368163108825684 11.872145652770996 C13.402726173400879 11.872145652770996 13.43729019165039 11.872145652770996 13.471853256225586 11.872145652770996 L13.471853256225586 11.872145652770996 C13.471853256225586 11.96799087524414 13.471853256225586 12.063837051391602 13.471853256225586 12.159682273864746 L13.471853256225586 12.159682273864746 C13.504008293151855 12.065964698791504 13.536162376403809 11.972246170043945 13.568317413330078 11.878528594970703 L13.568317413330078 11.878528594970703 C13.607362747192383 11.872682571411133 13.646408081054688 11.866837501525879 13.685453414916992 11.860991477966309 L13.685453414916992 11.860991477966309"></path></svg>