<svg xmlns="http://www.w3.org/2000/svg" viewBox="0.0 0.0 24.0 24.0" height="200px" width="200px"><path fill="none" stroke="black" stroke-width=".3" stroke-opacity="1.0"  filling="0" d="M13.732172966003418 11.300619125366211 L13.732172966003418 11.300619125366211 C13.818737030029297 11.30971908569336 13.90530014038086 11.318819046020508 13.991864204406738 11.327919006347656 L13.991864204406738 11.327919006347656 C14.130182266235352 11.779128074645996 14.268499374389648 12.230337142944336 14.406817436218262 12.681546211242676 L14.406817436218262 12.681546211242676 C14.108951568603516 12.680144309997559 14.074228286743164 12.686762809753418 13.976073265075684 12.413236618041992 L13.976073265075684 12.413236618041992 C13.829700469970703 12.413236618041992 13.683326721191406 12.413236618041992 13.536953926086426 12.413236618041992 L13.536953926086426 12.413236618041992 C13.508626937866211 12.499527931213379 13.48029899597168 12.58581829071045 13.451972007751465 12.672109603881836 L13.451972007751465 12.672109603881836 C13.359135627746582 12.672109603881836 13.266300201416016 12.672109603881836 13.173463821411133 12.672109603881836 L13.173463821411133 12.672109603881836 C13.278363227844238 12.354785919189453 13.409401893615723 11.519983291625977 13.732172966003418 11.300619125366211 L13.732172966003418 11.300619125366211"></path>
<path fill="none" stroke="black" stroke-width=".3" stroke-opacity="1.0"  filling="0" d="M13.745318412780762 11.685462951660156 L13.745318412780762 11.685462951660156 C13.800890922546387 11.841272354125977 13.856464385986328 11.99708080291748 13.912036895751953 12.1528902053833 L13.912036895751953 12.1528902053833 C13.81364631652832 12.149381637573242 13.715254783630371 12.145872116088867 13.616864204406738 12.142363548278809 L13.616864204406738 12.142363548278809 C13.659682273864746 11.990063667297363 13.702500343322754 11.837762832641602 13.745318412780762 11.685462951660156 L13.745318412780762 11.685462951660156"></path></svg>