<svg xmlns="http://www.w3.org/2000/svg" viewBox="0.0 0.0 24.0 24.0" height="200px" width="200px"><path fill="none" stroke="black" stroke-width=".3" stroke-opacity="1.0"  filling="0" d="M13.650163650512695 11.843700408935547 L13.650163650512695 11.843700408935547 C13.866912841796875 11.880119323730469 14.063910484313965 12.12744140625 14.076272964477539 12.346880912780762 L14.076272964477539 12.346880912780762 C14.034646034240723 12.346880912780762 13.99301815032959 12.346880912780762 13.951391220092773 12.346880912780762 L13.951391220092773 12.346880912780762 C13.9222993850708 12.212135314941406 13.893208503723145 12.077390670776367 13.864116668701172 11.942645072937012 L13.864116668701172 11.942645072937012 C13.826162338256836 11.96143627166748 13.7882080078125 11.980226516723633 13.750253677368164 11.999017715454102 L13.750253677368164 11.999017715454102 C13.750253677368164 12.114171981811523 13.750253677368164 12.229327201843262 13.750253677368164 12.344481468200684 L13.750253677368164 12.344481468200684 C13.70430850982666 12.348408699035645 13.658364295959473 12.352335929870605 13.612419128417969 12.356263160705566 L13.612419128417969 12.356263160705566 C13.612419128417969 12.193154335021973 13.612419128417969 12.030045509338379 13.612419128417969 11.866936683654785 L13.612419128417969 11.866936683654785 C13.625000953674316 11.859190940856934 13.637581825256348 11.851446151733398 13.650163650512695 11.843700408935547 L13.650163650512695 11.843700408935547"></path></svg>