<svg xmlns="http://www.w3.org/2000/svg" viewBox="0.0 0.0 24.0 24.0" height="200px" width="200px"><path fill="none" stroke="black" stroke-width=".3" stroke-opacity="1.0"  filling="0" d="M12.631854057312012 3.926645278930664 L12.631854057312012 3.926645278930664 C12.744659423828125 4.959045886993408 12.851232528686523 5.9921464920043945 12.951543807983398 7.025835990905762 L12.951543807983398 7.025835990905762 C11.988678932189941 7.116072177886963 11.028228759765625 7.244997978210449 10.063963890075684 7.313044548034668 L10.063963890075684 7.313044548034668 C10.072386741638184 8.834930419921875 10.240167617797852 10.379280090332031 10.441972732543945 11.922134399414062 C10.643777847290039 13.46498966217041 10.879606246948242 15.006349563598633 11.024127006530762 16.522253036499023 L11.024127006530762 16.522253036499023 C10.125185012817383 16.658260345458984 9.07236099243164 16.819257736206055 8.165482521057129 16.797653198242188 C7.936497688293457 16.792198181152344 7.859840393066406 14.917778015136719 7.829455375671387 14.640242576599121 C7.57363224029541 12.303574562072754 7.35167121887207 9.962697982788086 7.100372791290283 7.625727653503418 L7.100372791290283 7.625727653503418 C6.124084949493408 7.72599458694458 5.152395725250244 7.856278896331787 4.172345161437988 7.914545059204102 L4.172345161437988 7.914545059204102 C4.079339504241943 6.859441757202148 3.957146167755127 5.80784797668457 3.86959171295166 4.751618385314941 L3.86959171295166 4.751618385314941 C5.331413269042969 4.634767532348633 6.790052890777588 4.474071502685547 8.249199867248535 4.319814682006836 C9.70834732055664 4.165557861328125 11.16800308227539 4.017740249633789 12.631854057312012 3.926645278930664 L12.631854057312012 3.926645278930664"></path></svg>