<svg xmlns="http://www.w3.org/2000/svg" viewBox="0.0 0.0 24.0 24.0" height="200px" width="200px"><path fill="none" stroke="black" stroke-width=".3" stroke-opacity="1.0"  filling="0" d="M14.077471733093262 11.652381896972656 L14.077471733093262 11.652381896972656 C14.135981559753418 11.652381896972656 14.194490432739258 11.652381896972656 14.253000259399414 11.652381896972656 L14.253000259399414 11.652381896972656 C14.253000259399414 11.72862720489502 14.253000259399414 11.8048734664917 14.253000259399414 11.881118774414062 L14.253000259399414 11.881118774414062 C14.303963661193848 11.860846519470215 14.354926109313965 11.84057331085205 14.405889511108398 11.820301055908203 L14.405889511108398 11.820301055908203 C14.594207763671875 12.097376823425293 14.707852363586426 12.19987964630127 14.435209274291992 12.426627159118652 L14.435209274291992 12.426627159118652 C14.420591354370117 12.28109073638916 14.405972480773926 12.135554313659668 14.39135456085205 11.990017890930176 L14.39135456085205 11.990017890930176 C14.18431282043457 12.143793106079102 14.319735527038574 12.254082679748535 14.108617782592773 12.433338165283203 L14.108617782592773 12.433338165283203 C14.075665473937988 12.174904823303223 14.076574325561523 11.9129056930542 14.077471733093262 11.652381896972656 L14.077471733093262 11.652381896972656"></path></svg>