<svg xmlns="http://www.w3.org/2000/svg" viewBox="0.0 0.0 24.0 24.0" height="200px" width="200px"><path fill="none" stroke="black" stroke-width=".3" stroke-opacity="1.0"  filling="0" d="M9.914945602416992 11.680173873901367 L9.914945602416992 11.680173873901367 C9.914945602416992 11.84633731842041 9.914945602416992 12.012500762939453 9.914945602416992 12.178664207458496 L9.914945602416992 12.178664207458496 C9.832308769226074 12.1889009475708 9.749672889709473 12.199136734008789 9.667036056518555 12.209373474121094 L9.667036056518555 12.209373474121094 C9.648344993591309 12.0777006149292 9.629654884338379 11.946027755737305 9.610963821411133 11.81435489654541 L9.610963821411133 11.81435489654541 C9.668354988098145 11.807954788208008 9.72574520111084 11.801554679870605 9.783136367797852 11.795154571533203 L9.783136367797852 11.795154571533203 C9.827073097229004 11.756827354431152 9.87100887298584 11.718501091003418 9.914945602416992 11.680173873901367 L9.914945602416992 11.680173873901367"></path>
<path fill="none" stroke="black" stroke-width=".3" stroke-opacity="1.0"  filling="0" d="M9.704700469970703 11.875418663024902 L9.704700469970703 11.875418663024902 C9.71546459197998 11.963536262512207 9.726227760314941 12.051654815673828 9.736991882324219 12.139772415161133 L9.736991882324219 12.139772415161133 C9.726227760314941 12.051654815673828 9.71546459197998 11.963536262512207 9.704700469970703 11.875418663024902 L9.704700469970703 11.875418663024902"></path></svg>