<svg xmlns="http://www.w3.org/2000/svg" viewBox="0.0 0.0 24.0 24.0" height="200px" width="200px"><path fill="none" stroke="black" stroke-width=".3" stroke-opacity="1.0"  filling="0" d="M12.148744583129883 11.786481857299805 L12.148744583129883 11.786481857299805 C12.455859184265137 11.906935691833496 12.338037490844727 12.101958274841309 12.087982177734375 12.196800231933594 L12.087982177734375 12.196800231933594 C12.083991050720215 12.237191200256348 12.080000877380371 12.277581214904785 12.076009750366211 12.317972183227539 L12.076009750366211 12.317972183227539 C12.04272747039795 12.317972183227539 12.009446144104004 12.317972183227539 11.976163864135742 12.317972183227539 L11.976163864135742 12.317972183227539 C11.976655006408691 12.141190528869629 11.977145195007324 11.964408874511719 11.977636337280273 11.787627220153809 L11.977636337280273 11.787627220153809 C12.03284740447998 11.801946640014648 12.091859817504883 11.790654182434082 12.148744583129883 11.786481857299805 L12.148744583129883 11.786481857299805"></path>
<path fill="none" stroke="black" stroke-width=".3" stroke-opacity="1.0"  filling="0" d="M12.156763076782227 11.857090950012207 L12.156763076782227 11.857090950012207 C12.161771774291992 11.943599700927734 12.166781425476074 12.030109405517578 12.17179012298584 12.116618156433105 L12.17179012298584 12.116618156433105 C12.097529411315918 12.07196044921875 12.131346702575684 11.939933776855469 12.156763076782227 11.857090950012207 L12.156763076782227 11.857090950012207"></path></svg>