<svg xmlns="http://www.w3.org/2000/svg" viewBox="0.0 0.0 24.0 24.0" height="200px" width="200px"><path fill="none" stroke="black" stroke-width=".3" stroke-opacity="1.0"  filling="0" d="M11.26396369934082 11.689035415649414 L11.26396369934082 11.689035415649414 C11.297027587890625 11.728053092956543 11.330090522766113 11.767071723937988 11.363154411315918 11.806089401245117 L11.363154411315918 11.806089401245117 C11.28835391998291 11.798152923583984 11.213554382324219 11.790217399597168 11.138753890991211 11.782280921936035 L11.138753890991211 11.782280921936035 C11.227693557739258 11.899130821228027 11.311832427978516 12.019569396972656 11.396726608276367 12.13939094543457 L11.396726608276367 12.13939094543457 C11.260290145874023 12.128927230834961 11.123854637145996 12.118463516235352 10.987418174743652 12.107999801635742 L10.987418174743652 12.107999801635742 C11.053518295288086 12.119699478149414 11.11961841583252 12.131400108337402 11.185718536376953 12.143099784851074 L11.185718536376953 12.143099784851074 C11.231036186218262 12.120790481567383 11.276354789733887 12.098481178283691 11.321672439575195 12.076171875 L11.321672439575195 12.076171875 C11.040939331054688 11.946974754333496 10.884968757629395 11.819241523742676 11.26396369934082 11.689035415649414 L11.26396369934082 11.689035415649414"></path></svg>