<svg xmlns="http://www.w3.org/2000/svg" viewBox="0.0 0.0 24.0 24.0" height="200px" width="200px"><path fill="none" stroke="black" stroke-width=".3" stroke-opacity="1.0"  filling="0" d="M12.24190902709961 11.759481430053711 L12.24190902709961 11.759481430053711 C12.24190902709961 11.900962829589844 12.24190902709961 12.042445182800293 12.24190902709961 12.183926582336426 L12.24190902709961 12.183926582336426 C12.287382125854492 12.18852710723877 12.332855224609375 12.193126678466797 12.378328323364258 12.19772720336914 L12.378328323364258 12.19772720336914 C12.28848934173584 12.308231353759766 12.099615097045898 12.276281356811523 11.957318305969238 12.270463943481445 L11.957318305969238 12.270463943481445 C12.00533676147461 12.241236686706543 12.053354263305664 12.212008476257324 12.101372718811035 12.182781219482422 L12.101372718811035 12.182781219482422 C12.101372718811035 12.091645240783691 12.101372718811035 12.000509262084961 12.101372718811035 11.90937328338623 L12.101372718811035 11.90937328338623 C12.05996322631836 11.92442798614502 12.0185546875 11.939481735229492 11.977145195007324 11.954536437988281 L11.977145195007324 11.954536437988281 C12.065400123596191 11.889517784118652 12.153654098510742 11.82450008392334 12.24190902709961 11.759481430053711 L12.24190902709961 11.759481430053711"></path></svg>