<svg xmlns="http://www.w3.org/2000/svg" viewBox="0.0 0.0 24.0 24.0" height="200px" width="200px"><path fill="none" stroke="black" stroke-width=".3" stroke-opacity="1.0"  filling="0" d="M10.340291023254395 11.694681167602539 L10.340291023254395 11.694681167602539 C10.350736618041992 11.84130859375 10.361181259155273 11.987936019897461 10.371626853942871 12.134563446044922 L10.371626853942871 12.134563446044922 C10.410954475402832 12.171518325805664 10.450281143188477 12.20847225189209 10.489608764648438 12.245427131652832 L10.489608764648438 12.245427131652832 C10.365790367126465 12.245427131652832 10.241972923278809 12.245427131652832 10.118154525756836 12.245427131652832 L10.118154525756836 12.245427131652832 C10.118154525756836 12.218153953552246 10.118154525756836 12.190881729125977 10.118154525756836 12.16360855102539 L10.118154525756836 12.16360855102539 C10.151427268981934 12.161945343017578 10.184700012207031 12.16028118133545 10.217972755432129 12.158617973327637 L10.217972755432129 12.158617973327637 C10.217972755432129 12.057536125183105 10.217972755432129 11.956454277038574 10.217972755432129 11.855372428894043 L10.217972755432129 11.855372428894043 C10.184700012207031 11.876290321350098 10.151427268981934 11.897209167480469 10.118154525756836 11.918127059936523 L10.118154525756836 11.918127059936523 C10.1181640625 11.881781578063965 10.118172645568848 11.845437049865723 10.118182182312012 11.809091567993164 L10.118182182312012 11.809091567993164 C10.192218780517578 11.770955085754395 10.266254425048828 11.732817649841309 10.340291023254395 11.694681167602539 L10.340291023254395 11.694681167602539"></path></svg>