<svg xmlns="http://www.w3.org/2000/svg" viewBox="0.0 0.0 24.0 24.0" height="200px" width="200px"><path fill="none" stroke="black" stroke-width=".3" stroke-opacity="1.0"  filling="0" d="M12.933518409729004 11.70234489440918 L12.933518409729004 11.70234489440918 C12.965417861938477 11.74280834197998 12.997318267822266 11.783272743225098 13.029217720031738 11.823736190795898 L13.029217720031738 11.823736190795898 C13.005481719970703 11.836481094360352 12.981745719909668 11.849226951599121 12.958009719848633 11.861971855163574 L12.958009719848633 11.861971855163574 C12.902664184570312 11.830144882202148 12.847318649291992 11.798317909240723 12.791973114013672 11.766490936279297 L12.791973114013672 11.766490936279297 C12.779136657714844 11.827436447143555 12.766300201416016 11.888381958007812 12.753463745117188 11.94932746887207 L12.753463745117188 11.94932746887207 C12.866009712219238 11.972012519836426 12.978517532348633 12.124587059020996 12.94622802734375 12.234763145446777 L12.94622802734375 12.234763145446777 C12.79748249053955 12.137864112854004 12.811738967895508 11.831512451171875 12.933518409729004 11.70234489440918 L12.933518409729004 11.70234489440918"></path>
<path fill="none" stroke="black" stroke-width=".3" stroke-opacity="1.0"  filling="0" d="M12.897872924804688 12.004827499389648 L12.897872924804688 12.004827499389648 C12.803032875061035 12.246405601501465 12.712815284729004 12.10097885131836 12.897872924804688 12.004827499389648 L12.897872924804688 12.004827499389648"></path></svg>