<svg xmlns="http://www.w3.org/2000/svg" viewBox="0.0 0.0 24.0 24.0" height="200px" width="200px"><path fill="none" stroke="black" stroke-width=".3" stroke-opacity="1.0"  filling="0" d="M15.824834823608398 11.644826889038086 L15.824834823608398 11.644826889038086 C15.865817070007324 11.695808410644531 15.906800270080566 11.746790885925293 15.947782516479492 11.797772407531738 L15.947782516479492 11.797772407531738 C15.930363655090332 11.828536033630371 15.912945747375488 11.85930061340332 15.895526885986328 11.890064239501953 L15.895526885986328 11.890064239501953 C15.88892650604248 11.887709617614746 15.882326126098633 11.885354042053223 15.875725746154785 11.882999420166016 L15.875725746154785 11.882999420166016 C15.875725746154785 11.947418212890625 15.875725746154785 12.011836051940918 15.875725746154785 12.076254844665527 L15.875725746154785 12.076254844665527 C15.910508155822754 12.089127540588379 15.945289611816406 12.101999282836914 15.980072021484375 12.114871978759766 L15.980072021484375 12.114871978759766 C15.950689315795898 12.246356964111328 15.72763442993164 11.971040725708008 15.678735733032227 11.845499992370605 L15.678735733032227 11.845499992370605 C15.727435111999512 11.778609275817871 15.776135444641113 11.71171760559082 15.824834823608398 11.644826889038086 L15.824834823608398 11.644826889038086"></path></svg>