<svg xmlns="http://www.w3.org/2000/svg" viewBox="0.0 0.0 24.0 24.0" height="200px" width="200px"><path fill="none" stroke="black" stroke-width=".3" stroke-opacity="1.0"  filling="0" d="M9.014836311340332 11.791336059570312 L9.014836311340332 11.791336059570312 C9.062409400939941 11.834735870361328 9.109981536865234 11.87813663482666 9.157554626464844 11.921536445617676 L9.157554626464844 11.921536445617676 C9.092954635620117 11.899991035461426 9.02835464477539 11.87844467163086 8.963754653930664 11.85689926147461 L8.963754653930664 11.85689926147461 C9.038146018981934 11.905571937561035 9.112536430358887 11.954245567321777 9.186927795410156 12.002918243408203 L9.186927795410156 12.002918243408203 C9.186927795410156 12.04836368560791 9.186927795410156 12.093809127807617 9.186927795410156 12.139254570007324 L9.186927795410156 12.139254570007324 C9.085673332214355 12.166990280151367 8.933863639831543 12.17596435546875 8.876127243041992 12.088281631469727 L8.876127243041992 12.088281631469727 C8.95317268371582 12.088172912597656 9.030218124389648 12.088064193725586 9.107263565063477 12.087955474853516 L9.107263565063477 12.087955474853516 C9.024857521057129 12.025230407714844 8.933900833129883 11.855947494506836 9.014836311340332 11.791336059570312 L9.014836311340332 11.791336059570312"></path></svg>