<svg xmlns="http://www.w3.org/2000/svg" viewBox="0.0 0.0 24.0 24.0" height="200px" width="200px"><path fill="none" stroke="black" stroke-width=".3" stroke-opacity="1.0"  filling="0" d="M11.679353713989258 11.71633529663086 L11.679353713989258 11.71633529663086 C11.770944595336914 11.779699325561523 11.862536430358887 11.843062400817871 11.954127311706543 11.906426429748535 L11.954127311706543 11.906426429748535 C11.881072998046875 11.983353614807129 11.80801773071289 12.060280799865723 11.734963417053223 12.137207984924316 L11.734963417053223 12.137207984924316 C11.801569938659668 12.152114868164062 11.906549453735352 12.189652442932129 11.900562286376953 12.257643699645996 L11.900562286376953 12.257643699645996 C11.776408195495605 12.257643699645996 11.652253150939941 12.257644653320312 11.528099060058594 12.257644653320312 L11.528099060058594 12.257644653320312 C11.591154098510742 12.11548137664795 11.70314884185791 11.996966361999512 11.817926406860352 11.892026901245117 L11.817926406860352 11.892026901245117 C11.726561546325684 11.879983901977539 11.630266189575195 11.871362686157227 11.54149055480957 11.896089553833008 L11.54149055480957 11.896089553833008 C11.587445259094238 11.83617115020752 11.63339900970459 11.776253700256348 11.679353713989258 11.71633529663086 L11.679353713989258 11.71633529663086"></path></svg>