<svg xmlns="http://www.w3.org/2000/svg" viewBox="0.0 0.0 24.0 24.0" height="200px" width="200px"><path fill="none" stroke="black" stroke-width=".3" stroke-opacity="1.0"  filling="0" d="M1.2641992568969727 7.465915679931641 L1.2641992568969727 7.465915679931641 C2.464539051055908 7.956218242645264 2.8051185607910156 8.23590087890625 3.05519962310791 9.519933700561523 C3.085146188735962 9.673693656921387 3.4066550731658936 10.839956283569336 3.1101531982421875 10.911469459533691 C2.3332512378692627 11.09885025024414 1.434417486190796 11.100113868713379 0.6366539001464844 11.182636260986328 L0.6366539001464844 11.182636260986328 C0.3989616334438324 9.830609321594238 -2.511467456817627 10.413715362548828 -1.5672283172607422 11.616382598876953 C-1.1579506397247314 12.137675285339355 0.8962159156799316 11.374983787536621 1.5160083770751953 11.457436561584473 C3.5782384872436523 11.731781959533691 4.199497699737549 14.55251407623291 3.814035415649414 16.36644744873047 C3.714052438735962 16.83695411682129 3.585447072982788 17.317119598388672 3.3344717025756836 17.727466583251953 C3.070608139038086 18.158884048461914 2.412050724029541 18.252216339111328 1.989053726196289 18.329593658447266 C0.8115459680557251 18.54499053955078 -1.8473602533340454 19.176525115966797 -2.877791404724121 18.434675216674805 C-3.8546736240386963 17.73137855529785 -3.84600567817688 16.354856491088867 -3.95751953125 15.285058975219727 L-3.95751953125 15.285058975219727 C-3.216113805770874 15.038458824157715 -2.161076068878174 15.008231163024902 -1.378800392150879 15.0033597946167 L-1.378800392150879 15.0033597946167 C-1.2274770736694336 15.777570724487305 0.17496323585510254 16.12826156616211 0.7894363403320312 15.546960830688477 C0.978291392326355 15.368301391601562 1.1982959508895874 14.969120025634766 1.0034723281860352 14.796988487243652 C-0.2091130018234253 13.725638389587402 -2.1896471977233887 15.464666366577148 -3.4023561477661133 14.383288383483887 C-4.737070083618164 13.19311809539795 -5.206880569458008 9.212301254272461 -3.612274169921875 8.155696868896484 C-2.4834303855895996 7.407711982727051 -0.03601658344268799 7.485495567321777 1.2641992568969727 7.465915679931641 L1.2641992568969727 7.465915679931641"></path></svg>