<svg xmlns="http://www.w3.org/2000/svg" viewBox="0.0 0.0 24.0 24.0" height="200px" width="200px"><path fill="none" stroke="black" stroke-width=".3" stroke-opacity="1.0"  filling="0" d="M12.138381958007812 11.652735710144043 L12.138381958007812 11.652735710144043 C12.193272590637207 11.652735710144043 12.248164176940918 11.652735710144043 12.303054809570312 11.652735710144043 L12.303054809570312 11.652735710144043 C12.303483009338379 11.86370849609375 12.463261604309082 12.450778007507324 12.139063835144043 12.396981239318848 L12.139063835144043 12.396981239318848 C11.650192260742188 12.48361587524414 11.71248722076416 12.016752243041992 12.138381958007812 11.878745079040527 L12.138381958007812 11.878745079040527 C12.138381958007812 11.8034086227417 12.138381958007812 11.728072166442871 12.138381958007812 11.652735710144043 L12.138381958007812 11.652735710144043"></path>
<path fill="none" stroke="black" stroke-width=".3" stroke-opacity="1.0"  filling="0" d="M12.045382499694824 11.94537353515625 L12.045382499694824 11.94537353515625 C12.07404613494873 11.957846641540527 12.102709770202637 11.970318794250488 12.131373405456543 11.982791900634766 L12.131373405456543 11.982791900634766 C12.113382339477539 12.09892749786377 12.095391273498535 12.21506404876709 12.077400207519531 12.331199645996094 L12.077400207519531 12.331199645996094 C12.066727638244629 12.202590942382812 12.056055068969727 12.073982238769531 12.045382499694824 11.94537353515625 L12.045382499694824 11.94537353515625"></path></svg>