<svg xmlns="http://www.w3.org/2000/svg" viewBox="0.0 0.0 24.0 24.0" height="200px" width="200px"><path fill="none" stroke="black" stroke-width=".3" stroke-opacity="1.0"  filling="0" d="M13.474799156188965 11.672727584838867 L13.474799156188965 11.672727584838867 C13.592299461364746 11.672727584838867 13.709798812866211 11.672727584838867 13.827299118041992 11.672727584838867 L13.827299118041992 11.672727584838867 C13.827299118041992 11.736363410949707 13.827299118041992 11.800000190734863 13.827299118041992 11.863636016845703 L13.827299118041992 11.863636016845703 C13.756916999816895 11.945454597473145 13.686535835266113 12.02727222442627 13.616153717041016 12.109090805053711 L13.616153717041016 12.109090805053711 C13.686535835266113 12.109090805053711 13.756916999816895 12.109090805053711 13.827299118041992 12.109090805053711 L13.827299118041992 12.109090805053711 C13.827290534973145 12.145454406738281 13.82728099822998 12.181818008422852 13.827272415161133 12.218181610107422 L13.827272415161133 12.218181610107422 C13.710372924804688 12.218181610107422 13.593472480773926 12.218181610107422 13.47657299041748 12.218181610107422 L13.47657299041748 12.218181610107422 C13.55722713470459 12.074845314025879 13.637882232666016 11.931509017944336 13.718536376953125 11.788172721862793 L13.718536376953125 11.788172721862793 C13.639336585998535 11.788172721862793 13.560135841369629 11.788172721862793 13.480936050415039 11.788172721862793 L13.480936050415039 11.788172721862793 C13.478890419006348 11.749691009521484 13.476844787597656 11.711209297180176 13.474799156188965 11.672727584838867 L13.474799156188965 11.672727584838867"></path></svg>