<svg xmlns="http://www.w3.org/2000/svg" viewBox="0.0 0.0 24.0 24.0" height="200px" width="200px"><path fill="none" stroke="black" stroke-width=".3" stroke-opacity="1.0"  filling="0" d="M11.635581970214844 11.685763359069824 L11.635581970214844 11.685763359069824 C11.673891067504883 11.747817993164062 11.712200164794922 11.8098726272583 11.750509262084961 11.871927261352539 L11.750509262084961 11.871927261352539 C11.725727081298828 11.894972801208496 11.700945854187012 11.918018341064453 11.676163673400879 11.94106388092041 L11.676163673400879 11.94106388092041 C11.676163673400879 11.994490623474121 11.676163673400879 12.047918319702148 11.676163673400879 12.10134506225586 L11.676163673400879 12.10134506225586 C11.711045265197754 12.125672340393066 11.745927810668945 12.149999618530273 11.78080940246582 12.17432689666748 L11.78080940246582 12.17432689666748 C11.75516414642334 12.198854446411133 11.729517936706543 12.223381996154785 11.703872680664062 12.247909545898438 L11.703872680664062 12.247909545898438 C11.658008575439453 12.224282264709473 11.61214542388916 12.200654983520508 11.56628131866455 12.177027702331543 L11.56628131866455 12.177027702331543 C11.56628131866455 12.100172996520996 11.56628131866455 12.023317337036133 11.56628131866455 11.946462631225586 L11.56628131866455 11.946462631225586 C11.536153793334961 11.920462608337402 11.506027221679688 11.894463539123535 11.475899696350098 11.868463516235352 L11.475899696350098 11.868463516235352 C11.52912712097168 11.807563781738281 11.582354545593262 11.746663093566895 11.635581970214844 11.685763359069824 L11.635581970214844 11.685763359069824"></path></svg>