<svg xmlns="http://www.w3.org/2000/svg" viewBox="0.0 0.0 24.0 24.0" height="200px" width="200px"><path fill="none" stroke="black" stroke-width=".3" stroke-opacity="1.0"  filling="0" d="M9.597518920898438 11.666727066040039 L9.597518920898438 11.666727066040039 C9.600809097290039 11.736499786376953 9.604100227355957 11.806272506713867 9.607390403747559 11.876045227050781 L9.607390403747559 11.876045227050781 C9.63467788696289 12.26928424835205 9.347859382629395 12.30724048614502 9.325908660888672 11.905582427978516 L9.325908660888672 11.905582427978516 C9.3399019241333 11.785831451416016 9.477103233337402 11.6727294921875 9.597518920898438 11.666727066040039 L9.597518920898438 11.666727066040039"></path>
<path fill="none" stroke="black" stroke-width=".3" stroke-opacity="1.0"  filling="0" d="M9.529991149902344 11.690890312194824 L9.529991149902344 11.690890312194824 C9.536345481872559 11.743117332458496 9.542699813842773 11.795345306396484 9.549054145812988 11.847572326660156 L9.549054145812988 11.847572326660156 C9.493217468261719 11.831735610961914 9.437381744384766 11.815898895263672 9.381545066833496 11.80006217956543 L9.381545066833496 11.80006217956543 C9.380163192749023 11.789453506469727 9.37878131866455 11.778844833374023 9.377399444580078 11.76823616027832 L9.377399444580078 11.76823616027832 C9.428263664245605 11.742454528808594 9.479126930236816 11.71667194366455 9.529991149902344 11.690890312194824 L9.529991149902344 11.690890312194824"></path>
<path fill="none" stroke="black" stroke-width=".3" stroke-opacity="1.0"  filling="0" d="M9.39850902557373 11.961028099060059 L9.39850902557373 11.961028099060059 C9.456273078918457 11.980382919311523 9.514036178588867 11.999736785888672 9.571800231933594 12.019091606140137 L9.571800231933594 12.019091606140137 C9.571745872497559 12.033500671386719 9.571690559387207 12.047908782958984 9.571636199951172 12.062317848205566 L9.571636199951172 12.062317848205566 C9.507555961608887 12.081398010253906 9.420848846435547 12.024045944213867 9.39850902557373 11.961028099060059 L9.39850902557373 11.961028099060059"></path></svg>