<svg xmlns="http://www.w3.org/2000/svg" viewBox="0.0 0.0 24.0 24.0" height="200px" width="200px"><path fill="none" stroke="black" stroke-width=".3" stroke-opacity="1.0"  filling="0" d="M11.089200019836426 11.675399780273438 L11.089200019836426 11.675399780273438 C11.2496919631958 11.876917839050293 11.216046333312988 12.038153648376465 11.053963661193848 12.222299575805664 L11.053963661193848 12.222299575805664 C11.053963661193848 12.100217819213867 11.053963661193848 11.978137016296387 11.053963661193848 11.85605525970459 L11.053963661193848 11.85605525970459 C11.043437004089355 11.853391647338867 11.032909393310547 11.850728034973145 11.022382736206055 11.848064422607422 L11.022382736206055 11.848064422607422 C10.978909492492676 11.98013687133789 10.935437202453613 12.112210273742676 10.891963958740234 12.244282722473145 L10.891963958740234 12.244282722473145 C10.824064254760742 12.106546401977539 10.756163597106934 11.968809127807617 10.688263893127441 11.831072807312012 L10.688263893127441 11.831072807312012 C10.688263893127441 11.957945823669434 10.688263893127441 12.084818840026855 10.688263893127441 12.211691856384277 L10.688263893127441 12.211691856384277 C10.652754783630371 12.211691856384277 10.6172456741333 12.211691856384277 10.58173656463623 12.211691856384277 L10.58173656463623 12.211691856384277 C10.592436790466309 12.03409194946289 10.603137016296387 11.856491088867188 10.613837242126465 11.6788911819458 L10.613837242126465 11.6788911819458 C10.665364265441895 11.6788911819458 10.71689224243164 11.6788911819458 10.76841926574707 11.6788911819458 L10.76841926574707 11.6788911819458 C10.804618835449219 11.781418800354004 10.840819358825684 11.88394546508789 10.877018928527832 11.986473083496094 L10.877018928527832 11.986473083496094 C10.911282539367676 11.883800506591797 10.94554615020752 11.781126976013184 10.979809761047363 11.678454399108887 L10.979809761047363 11.678454399108887 C11.016273498535156 11.677435874938965 11.052736282348633 11.67641830444336 11.089200019836426 11.675399780273438 L11.089200019836426 11.675399780273438"></path></svg>