<svg xmlns="http://www.w3.org/2000/svg" viewBox="0.0 0.0 24.0 24.0" height="200px" width="200px"><path fill="none" stroke="black" stroke-width=".3" stroke-opacity="1.0"  filling="0" d="M13.442317962646484 11.645973205566406 L13.442317962646484 11.645973205566406 C13.414143562316895 11.862627029418945 13.231096267700195 11.896245002746582 13.144091606140137 12.033844947814941 L13.144091606140137 12.033844947814941 C13.547112464904785 12.084702491760254 13.455215454101562 12.296485900878906 13.024935722351074 12.215808868408203 L13.024935722351074 12.215808868408203 C13.044756889343262 11.981197357177734 13.223015785217285 11.731659889221191 13.442317962646484 11.645973205566406 L13.442317962646484 11.645973205566406"></path>
<path fill="none" stroke="black" stroke-width=".3" stroke-opacity="1.0"  filling="0" d="M13.207307815551758 11.797418594360352 L13.207307815551758 11.797418594360352 C13.238945007324219 11.83120059967041 13.270581245422363 11.864981651306152 13.302218437194824 11.898763656616211 L13.302218437194824 11.898763656616211 C13.263331413269043 11.909758567810059 13.222155570983887 11.915827751159668 13.181836128234863 11.913108825683594 L13.181836128234863 11.913108825683594 C13.181836128234863 11.87984561920166 13.181836128234863 11.84658145904541 13.181836128234863 11.813318252563477 L13.181836128234863 11.813318252563477 C13.190326690673828 11.808018684387207 13.198817253112793 11.802718162536621 13.207307815551758 11.797418594360352 L13.207307815551758 11.797418594360352"></path>
<path fill="none" stroke="black" stroke-width=".3" stroke-opacity="1.0"  filling="0" d="M13.129500389099121 12.15572738647461 L13.129500389099121 12.15572738647461 C13.198382377624512 12.15572738647461 13.267263412475586 12.15572738647461 13.336145401000977 12.15572738647461 L13.336145401000977 12.15572738647461 C13.267263412475586 12.15572738647461 13.198382377624512 12.15572738647461 13.129500389099121 12.15572738647461 L13.129500389099121 12.15572738647461"></path></svg>