<svg xmlns="http://www.w3.org/2000/svg" viewBox="0.0 0.0 24.0 24.0" height="200px" width="200px"><path fill="none" stroke="black" stroke-width=".3" stroke-opacity="1.0"  filling="0" d="M12.32699966430664 11.604545593261719 L12.32699966430664 11.604545593261719 C12.369672775268555 11.669482231140137 12.412344932556152 11.734417915344238 12.455018043518066 11.799354553222656 L12.455018043518066 11.799354553222656 C12.42727279663086 11.820781707763672 12.399526596069336 11.842208862304688 12.371781349182129 11.863636016845703 L12.371781349182129 11.863636016845703 C12.376526832580566 11.919563293457031 12.38127326965332 11.97549057006836 12.386018753051758 12.031417846679688 L12.386018753051758 12.031417846679688 C12.393054962158203 12.032227516174316 12.400091171264648 12.033036231994629 12.407127380371094 12.033845901489258 L12.407127380371094 12.033845901489258 C12.433579444885254 12.078312873840332 12.337934494018555 12.12662410736084 12.286418914794922 12.131427764892578 L12.286418914794922 12.131427764892578 C12.260936737060547 12.011219024658203 12.235454559326172 11.891009330749512 12.209972381591797 11.770800590515137 L12.209972381591797 11.770800590515137 C12.248981475830078 11.71538257598877 12.28799057006836 11.659963607788086 12.32699966430664 11.604545593261719 L12.32699966430664 11.604545593261719"></path></svg>