<svg xmlns="http://www.w3.org/2000/svg" viewBox="0.0 0.0 24.0 24.0" height="200px" width="200px"><path fill="none" stroke="black" stroke-width=".3" stroke-opacity="1.0"  filling="0" d="M10.06666374206543 11.78209114074707 L10.06666374206543 11.78209114074707 C10.107863426208496 11.810373306274414 10.149064064025879 11.838654518127441 10.190263748168945 11.866936683654785 L10.190263748168945 11.866936683654785 C10.190482139587402 11.875527381896973 10.190699577331543 11.88411808013916 10.19091796875 11.892708778381348 L10.19091796875 11.892708778381348 C10.12387466430664 11.894197463989258 10.056937217712402 11.90115737915039 9.990518569946289 11.910409927368164 L9.990518569946289 11.910409927368164 C10.068681716918945 11.945509910583496 10.146844863891602 11.980609893798828 10.225008010864258 12.01570987701416 L10.225008010864258 12.01570987701416 C10.146658897399902 12.105151176452637 9.972874641418457 12.162513732910156 9.87668228149414 12.092617988586426 L9.87668228149414 12.092617988586426 C9.956036567687988 12.09148120880127 10.035391807556152 12.09034538269043 10.11474609375 12.089208602905273 L10.11474609375 12.089208602905273 C9.888774871826172 11.978949546813965 9.78306770324707 11.91269302368164 10.06666374206543 11.78209114074707 L10.06666374206543 11.78209114074707"></path></svg>