<svg xmlns="http://www.w3.org/2000/svg" viewBox="0.0 0.0 24.0 24.0" height="200px" width="200px"><path fill="none" stroke="black" stroke-width=".3" stroke-opacity="1.0"  filling="0" d="M12.8336181640625 11.840209007263184 L12.8336181640625 11.840209007263184 C12.8336181640625 11.954054832458496 12.8336181640625 12.067899703979492 12.8336181640625 12.181745529174805 L12.8336181640625 12.181745529174805 C12.729609489440918 12.181745529174805 12.62559986114502 12.181745529174805 12.521591186523438 12.181745529174805 L12.521591186523438 12.181745529174805 C12.507427215576172 12.125409126281738 12.493264198303223 12.069072723388672 12.479100227355957 12.012736320495605 L12.479100227355957 12.012736320495605 C12.5633544921875 11.984254837036133 12.64760971069336 11.955772399902344 12.731863975524902 11.927290916442871 L12.731863975524902 11.927290916442871 C12.66057300567627 11.928136825561523 12.589282989501953 11.92898178100586 12.51799201965332 11.929827690124512 L12.51799201965332 11.929827690124512 C12.623200416564941 11.899954795837402 12.728409767150879 11.870081901550293 12.8336181640625 11.840209007263184 L12.8336181640625 11.840209007263184"></path>
<path fill="none" stroke="black" stroke-width=".3" stroke-opacity="1.0"  filling="0" d="M12.69493579864502 11.981836318969727 L12.69493579864502 11.981836318969727 C12.678444862365723 12.038054466247559 12.661953926086426 12.094273567199707 12.645462989807129 12.150491714477539 L12.645462989807129 12.150491714477539 C12.627608299255371 12.1181640625 12.60975456237793 12.085837364196777 12.591899871826172 12.053509712219238 L12.591899871826172 12.053509712219238 C12.626245498657227 12.029618263244629 12.660590171813965 12.005727767944336 12.69493579864502 11.981836318969727 L12.69493579864502 11.981836318969727"></path></svg>