<svg xmlns="http://www.w3.org/2000/svg" viewBox="0.0 0.0 24.0 24.0" height="200px" width="200px"><path fill="none" stroke="black" stroke-width=".3" stroke-opacity="1.0"  filling="0" d="M15.03286361694336 11.630208969116211 L15.03286361694336 11.630208969116211 C15.212990760803223 11.630208969116211 15.393117904663086 11.630208969116211 15.57324504852295 11.630208969116211 L15.57324504852295 11.630208969116211 C15.576590538024902 11.680272102355957 15.579936027526855 11.730335235595703 15.583281517028809 11.78039836883545 L15.583281517028809 11.78039836883545 C15.465044975280762 11.78039836883545 15.346809387207031 11.78039836883545 15.228572845458984 11.78039836883545 L15.228572845458984 11.78039836883545 C15.228572845458984 11.83311653137207 15.228572845458984 11.885835647583008 15.228572845458984 11.938553810119629 L15.228572845458984 11.938553810119629 C15.309491157531738 11.938553810119629 15.390408515930176 11.938553810119629 15.47132682800293 11.938553810119629 L15.47132682800293 11.938553810119629 C15.48646354675293 11.978744506835938 15.50160026550293 12.018935203552246 15.51673698425293 12.059125900268555 L15.51673698425293 12.059125900268555 C15.390888214111328 12.078826904296875 15.285393714904785 12.176475524902344 15.196609497070312 12.267817497253418 L15.196609497070312 12.267817497253418 C15.330118179321289 12.267817497253418 15.463627815246582 12.267817497253418 15.597136497497559 12.267817497253418 L15.597136497497559 12.267817497253418 C15.585854530334473 12.315190315246582 15.574573516845703 12.362563133239746 15.563291549682617 12.40993595123291 L15.563291549682617 12.40993595123291 C15.386482238769531 12.409954071044922 15.209672927856445 12.40997314453125 15.03286361694336 12.409991264343262 L15.03286361694336 12.409991264343262 C15.03286361694336 12.150063514709473 15.03286361694336 11.89013671875 15.03286361694336 11.630208969116211 L15.03286361694336 11.630208969116211"></path></svg>