<svg xmlns="http://www.w3.org/2000/svg" viewBox="0.0 0.0 24.0 24.0" height="200px" width="200px"><path fill="none" stroke="black" stroke-width=".3" stroke-opacity="1.0"  filling="0" d="M11.716718673706055 11.784354209899902 L11.716718673706055 11.784354209899902 C11.825325012207031 11.869832038879395 11.91768741607666 12.008627891540527 11.918018341064453 12.146836280822754 L11.918018341064453 12.146836280822754 C11.888736724853516 12.162717819213867 11.859454154968262 12.178600311279297 11.830172538757324 12.19448184967041 L11.830172538757324 12.19448184967041 C11.80669116973877 12.082208633422852 11.783208847045898 11.96993637084961 11.759727478027344 11.85766315460205 L11.759727478027344 11.85766315460205 C11.734291076660156 11.959381103515625 11.708854675292969 12.061100006103516 11.683418273925781 12.16281795501709 L11.683418273925781 12.16281795501709 C11.643136024475098 12.16281795501709 11.60285472869873 12.16281795501709 11.562572479248047 12.16281795501709 L11.562572479248047 12.16281795501709 C11.553454399108887 12.060681343078613 11.544336318969727 11.958545684814453 11.535218238830566 11.856409072875977 L11.535218238830566 11.856409072875977 C11.4973726272583 11.967354774475098 11.459527969360352 12.078300476074219 11.421682357788086 12.18924617767334 L11.421682357788086 12.18924617767334 C11.311254501342773 12.112112045288086 11.373334884643555 11.920831680297852 11.385981559753418 11.786726951599121 L11.385981559753418 11.786726951599121 C11.496227264404297 11.78593635559082 11.606472969055176 11.785144805908203 11.716718673706055 11.784354209899902 L11.716718673706055 11.784354209899902"></path></svg>