<svg xmlns="http://www.w3.org/2000/svg" viewBox="0.0 0.0 24.0 24.0" height="200px" width="200px"><path fill="none" stroke="black" stroke-width=".3" stroke-opacity="1.0"  filling="0" d="M13.568344116210938 11.708427429199219 L13.568344116210938 11.708427429199219 C13.539482116699219 11.854010581970215 13.389498710632324 11.962120056152344 13.254899978637695 12.024654388427734 L13.254899978637695 12.024654388427734 C13.363372802734375 12.09113597869873 13.471845626831055 12.157618522644043 13.580318450927734 12.224100112915039 L13.580318450927734 12.224100112915039 C13.438528060913086 12.22728157043457 13.296736717224121 12.230463027954102 13.154946327209473 12.233644485473633 L13.154946327209473 12.233644485473633 C13.175773620605469 12.145336151123047 13.196599960327148 12.057026863098145 13.217427253723145 11.968718528747559 L13.217427253723145 11.968718528747559 C13.291805267333984 11.843504905700684 13.42552375793457 11.73693561553955 13.568344116210938 11.708427429199219 L13.568344116210938 11.708427429199219"></path>
<path fill="none" stroke="black" stroke-width=".3" stroke-opacity="1.0"  filling="0" d="M13.356599807739258 11.807808876037598 L13.356599807739258 11.807808876037598 C13.367481231689453 11.851099967956543 13.378363609313965 11.894391059875488 13.38924503326416 11.937682151794434 L13.38924503326416 11.937682151794434 C13.378363609313965 11.894391059875488 13.367481231689453 11.851099967956543 13.356599807739258 11.807808876037598 L13.356599807739258 11.807808876037598"></path>
<path fill="none" stroke="black" stroke-width=".3" stroke-opacity="1.0"  filling="0" d="M13.261445045471191 12.170536041259766 L13.261445045471191 12.170536041259766 C13.33080005645752 12.170536041259766 13.400154113769531 12.170536041259766 13.46950912475586 12.170536041259766 L13.46950912475586 12.170536041259766 C13.400390625 12.181272506713867 13.33127212524414 12.192008972167969 13.262153625488281 12.20274543762207 L13.262153625488281 12.20274543762207 C13.261917114257812 12.192008972167969 13.26168155670166 12.181272506713867 13.261445045471191 12.170536041259766 L13.261445045471191 12.170536041259766"></path></svg>