<svg xmlns="http://www.w3.org/2000/svg" viewBox="0.0 0.0 24.0 24.0" height="200px" width="200px"><path fill="none" stroke="black" stroke-width=".3" stroke-opacity="1.0"  filling="0" d="M10.03369140625 11.623580932617188 L10.03369140625 11.623580932617188 C10.161882400512695 11.68563175201416 10.31654167175293 11.731504440307617 10.396363258361816 11.84945297241211 L10.396363258361816 11.84945297241211 C10.320863723754883 11.828408241271973 10.245363235473633 11.807363510131836 10.1698637008667 11.7863187789917 L10.1698637008667 11.7863187789917 C10.114790916442871 11.7863187789917 10.05971908569336 11.7863187789917 10.004646301269531 11.7863187789917 L10.004646301269531 11.7863187789917 C10.02286434173584 11.957545280456543 10.041082382202148 12.128772735595703 10.059300422668457 12.299999237060547 L10.059300422668457 12.299999237060547 C10.113264083862305 12.254899024963379 10.167226791381836 12.209799766540527 10.221190452575684 12.16469955444336 L10.221190452575684 12.16469955444336 C10.172036170959473 12.152735710144043 10.122881889343262 12.140772819519043 10.07372760772705 12.128808975219727 L10.07372760772705 12.128808975219727 C10.07372760772705 12.087372779846191 10.07372760772705 12.04593563079834 10.07372760772705 12.004499435424805 L10.07372760772705 12.004499435424805 C10.175889015197754 11.997754096984863 10.278461456298828 11.999982833862305 10.380845069885254 11.999890327453613 L10.380845069885254 11.999890327453613 C10.380845069885254 12.14251708984375 10.380845069885254 12.285144805908203 10.380845069885254 12.42777156829834 L10.380845069885254 12.42777156829834 C10.369418144226074 12.437844276428223 10.357990264892578 12.447916984558105 10.346563339233398 12.457989692687988 L10.346563339233398 12.457989692687988 C10.326872825622559 12.42506217956543 10.307181358337402 12.392135620117188 10.287490844726562 12.359208106994629 L10.287490844726562 12.359208106994629 C9.429734230041504 12.488497734069824 9.78400707244873 11.86987018585205 10.03369140625 11.623580932617188 L10.03369140625 11.623580932617188"></path></svg>