<svg xmlns="http://www.w3.org/2000/svg" viewBox="0.0 0.0 24.0 24.0" height="200px" width="200px"><path fill="none" stroke="black" stroke-width=".3" stroke-opacity="1.0"  filling="0" d="M10.245981216430664 11.48200798034668 L10.245981216430664 11.48200798034668 C10.275131225585938 11.91097640991211 10.559351921081543 12.763336181640625 9.970391273498535 12.763663291931152 L9.970391273498535 12.763663291931152 C9.960718154907227 12.737926483154297 9.951045036315918 12.712190628051758 9.94137191772461 12.686453819274902 L9.94137191772461 12.686453819274902 C9.355969429016113 12.768853187561035 9.274742126464844 11.546542167663574 9.94824504852295 11.582399368286133 L9.94824504852295 11.582399368286133 C9.952863693237305 11.551362991333008 9.957481384277344 11.520326614379883 9.9621000289917 11.489290237426758 L9.9621000289917 11.489290237426758 C10.055994987487793 11.477294921875 10.151323318481445 11.48214340209961 10.245981216430664 11.48200798034668 L10.245981216430664 11.48200798034668"></path>
<path fill="none" stroke="black" stroke-width=".3" stroke-opacity="1.0"  filling="0" d="M9.919418334960938 11.752963066101074 L9.919418334960938 11.752963066101074 C9.99573040008545 11.982266426086426 9.919975280761719 12.236919403076172 9.899073600769043 12.477682113647461 L9.899073600769043 12.477682113647461 C9.772163391113281 12.262038230895996 9.766493797302246 11.980862617492676 9.882354736328125 11.755990028381348 L9.882354736328125 11.755990028381348 C9.894709587097168 11.75498104095459 9.907063484191895 11.753972053527832 9.919418334960938 11.752963066101074 L9.919418334960938 11.752963066101074"></path></svg>