<svg xmlns="http://www.w3.org/2000/svg" viewBox="0.0 0.0 24.0 24.0" height="200px" width="200px"><path fill="none" stroke="black" stroke-width=".3" stroke-opacity="1.0"  filling="0" d="M13.013999938964844 11.809391021728516 L13.013999938964844 11.809391021728516 C13.090455055236816 11.917336463928223 13.166909217834473 12.025280952453613 13.243364334106445 12.13322639465332 L13.243364334106445 12.13322639465332 C13.127936363220215 12.13969898223877 13.0125093460083 12.146172523498535 12.89708137512207 12.152645111083984 L12.89708137512207 12.152645111083984 C12.957144737243652 12.368882179260254 13.077432632446289 12.252469062805176 13.26054573059082 12.204654693603516 L13.26054573059082 12.204654693603516 C12.736741065979004 12.535975456237793 12.59521484375 12.180398941040039 13.013999938964844 11.809391021728516 L13.013999938964844 11.809391021728516"></path>
<path fill="none" stroke="black" stroke-width=".3" stroke-opacity="1.0"  filling="0" d="M13.051663398742676 11.924972534179688 L13.051663398742676 11.924972534179688 C13.065309524536133 11.966482162475586 13.078954696655273 12.007990837097168 13.09260082244873 12.049500465393066 L13.09260082244873 12.049500465393066 C13.035881996154785 12.049500465393066 12.979164123535156 12.049500465393066 12.922445297241211 12.049500465393066 L12.922445297241211 12.049500465393066 C12.9655179977417 12.007990837097168 13.008590698242188 11.966482162475586 13.051663398742676 11.924972534179688 L13.051663398742676 11.924972534179688"></path></svg>