<svg xmlns="http://www.w3.org/2000/svg" viewBox="0.0 0.0 24.0 24.0" height="200px" width="200px"><path fill="none" stroke="black" stroke-width=".3" stroke-opacity="1.0"  filling="0" d="M17.63010025024414 11.756072998046875 L17.63010025024414 11.756072998046875 C17.713573455810547 11.803337097167969 17.79704475402832 11.850600242614746 17.880517959594727 11.89786434173584 L17.880517959594727 11.89786434173584 C17.771987915039062 11.890410423278809 17.66066551208496 11.907973289489746 17.557035446166992 11.94106388092041 L17.557035446166992 11.94106388092041 C18.13530731201172 12.150227546691895 17.740345001220703 12.568480491638184 17.389991760253906 12.218753814697266 L17.389991760253906 12.218753814697266 C17.397682189941406 12.206398963928223 17.405372619628906 12.194045066833496 17.413063049316406 12.181690216064453 L17.413063049316406 12.181690216064453 C17.52498435974121 12.217252731323242 17.69303321838379 12.313311576843262 17.762126922607422 12.180109024047852 L17.762126922607422 12.180109024047852 C17.643144607543945 12.110045433044434 17.5241641998291 12.039981842041016 17.405181884765625 11.969918251037598 L17.405181884765625 11.969918251037598 C17.480154037475586 11.898636817932129 17.55512809753418 11.827354431152344 17.63010025024414 11.756072998046875 L17.63010025024414 11.756072998046875"></path></svg>