<svg xmlns="http://www.w3.org/2000/svg" viewBox="0.0 0.0 24.0 24.0" height="200px" width="200px"><path fill="none" stroke="black" stroke-width=".3" stroke-opacity="1.0"  filling="0" d="M12.012028694152832 11.45370101928711 L12.012028694152832 11.45370101928711 C12.188614845275879 11.636544227600098 12.321702003479004 11.886978149414062 12.344099998474121 12.140182495117188 L12.344099998474121 12.140182495117188 C12.215118408203125 12.151009559631348 12.086136817932129 12.161836624145508 11.957155227661133 12.172663688659668 L11.957155227661133 12.172663688659668 C11.957755088806152 12.273845672607422 11.958354949951172 12.375027656555176 11.958954811096191 12.47620964050293 L11.958954811096191 12.47620964050293 C11.97193717956543 12.479045867919922 11.984918594360352 12.48188304901123 11.99790096282959 12.484719276428223 L11.99790096282959 12.484719276428223 C12.027019500732422 12.414100646972656 12.056137084960938 12.343482971191406 12.08525562286377 12.27286434173584 L12.08525562286377 12.27286434173584 C12.360838890075684 12.271943092346191 12.684492111206055 12.714245796203613 11.991655349731445 12.762738227844238 C11.215786933898926 12.817042350769043 11.773923873901367 11.657854080200195 12.012028694152832 11.45370101928711 L12.012028694152832 11.45370101928711"></path>
<path fill="none" stroke="black" stroke-width=".3" stroke-opacity="1.0"  filling="0" d="M11.997872352600098 11.687045097351074 L11.997872352600098 11.687045097351074 C12.020791053771973 11.760327339172363 12.043708801269531 11.833608627319336 12.066627502441406 11.906890869140625 L12.066627502441406 11.906890869140625 C12.029109001159668 11.910545349121094 11.991591453552246 11.914200782775879 11.954072952270508 11.917855262756348 L11.954072952270508 11.917855262756348 C11.968672752380371 11.84091854095459 11.983272552490234 11.763981819152832 11.997872352600098 11.687045097351074 L11.997872352600098 11.687045097351074"></path></svg>