<svg xmlns="http://www.w3.org/2000/svg" viewBox="0.0 0.0 24.0 24.0" height="200px" width="200px"><path fill="none" stroke="black" stroke-width=".3" stroke-opacity="1.0"  filling="0" d="M13.86324691772461 9.681981086730957 L13.86324691772461 9.681981086730957 C14.172874450683594 9.68281078338623 14.493508338928223 9.645303726196289 14.790791511535645 9.731863021850586 L14.790791511535645 9.731863021850586 C14.618999481201172 11.193426132202148 14.705049514770508 14.774833679199219 13.507474899291992 15.740099906921387 C13.11688232421875 16.05492401123047 12.105330467224121 15.849488258361816 11.683199882507324 15.789572715759277 L11.683199882507324 15.789572715759277 C11.723336219787598 15.546181678771973 11.763472557067871 15.302790641784668 11.803608894348145 15.059399604797363 L11.803608894348145 15.059399604797363 C12.562950134277344 15.059162139892578 12.939010620117188 15.295451164245605 13.071273803710938 14.534317016601562 L13.071273803710938 14.534317016601562 C12.659554481506348 14.764806747436523 12.338232040405273 14.84813117980957 11.998201370239258 14.361217498779297 C11.77308177947998 14.03885269165039 12.051332473754883 13.302872657775879 12.106201171875 12.958252906799316 C12.235736846923828 12.144668579101562 12.194857597351074 8.978260040283203 13.771883010864258 9.830427169799805 L13.771883010864258 9.830427169799805 C13.802337646484375 9.78094482421875 13.832792282104492 9.731463432312012 13.86324691772461 9.681981086730957 L13.86324691772461 9.681981086730957"></path>
<path fill="none" stroke="black" stroke-width=".3" stroke-opacity="1.0"  filling="0" d="M13.642306327819824 10.448209762573242 L13.642306327819824 10.448209762573242 C13.82839298248291 11.405412673950195 13.34412956237793 12.952507019042969 13.160970687866211 13.92428207397461 L13.160970687866211 13.92428207397461 C13.127988815307617 13.947245597839355 13.09500789642334 13.970210075378418 13.062026023864746 13.993173599243164 L13.062026023864746 13.993173599243164 C12.757269859313965 13.525330543518066 13.21762466430664 10.989509582519531 13.517480850219727 10.448236465454102 L13.517480850219727 10.448236465454102 C13.559089660644531 10.448227882385254 13.60069751739502 10.44821834564209 13.642306327819824 10.448209762573242 L13.642306327819824 10.448209762573242"></path></svg>