<svg xmlns="http://www.w3.org/2000/svg" viewBox="0.0 0.0 24.0 24.0" height="200px" width="200px"><path fill="none" stroke="black" stroke-width=".3" stroke-opacity="1.0"  filling="0" d="M-12.126380920410156 8.536199569702148 L-12.126380920410156 8.536199569702148 C-11.812535285949707 8.537003517150879 -11.491633415222168 8.505657196044922 -11.185663223266602 8.575526237487793 L-11.185663223266602 8.575526237487793 C-11.243762969970703 8.957680702209473 -11.301862716674805 9.339836120605469 -11.359962463378906 9.721990585327148 L-11.359962463378906 9.721990585327148 C-10.877723693847656 9.416254997253418 -10.35429573059082 9.489293098449707 -10.23147201538086 10.075444221496582 C-9.980931282043457 11.271100997924805 -10.653318405151367 14.882901191711426 -12.116044998168945 14.404090881347656 L-12.116044998168945 14.404090881347656 C-12.520569801330566 14.636931419372559 -12.7556791305542 14.637370109558105 -13.22850227355957 14.587554931640625 L-13.22850227355957 14.587554931640625 C-13.008280754089355 13.052253723144531 -12.717606544494629 11.528443336486816 -12.471546173095703 9.997172355651855 C-12.421696662902832 9.686948776245117 -12.413993835449219 8.760366439819336 -12.126380920410156 8.536199569702148 L-12.126380920410156 8.536199569702148"></path>
<path fill="none" stroke="black" stroke-width=".3" stroke-opacity="1.0"  filling="0" d="M-11.440528869628906 10.338790893554688 L-11.440528869628906 10.338790893554688 C-11.03250503540039 10.779541969299316 -11.754164695739746 13.1737060546875 -11.845827102661133 13.815763473510742 L-11.845827102661133 13.815763473510742 C-11.91161823272705 13.82560920715332 -11.977410316467285 13.835454940795898 -12.043201446533203 13.845300674438477 L-12.043201446533203 13.845300674438477 C-11.888879776000977 12.831731796264648 -11.893991470336914 11.260110855102539 -11.440528869628906 10.338790893554688 L-11.440528869628906 10.338790893554688"></path></svg>