<svg xmlns="http://www.w3.org/2000/svg" viewBox="0.0 0.0 24.0 24.0" height="200px" width="200px"><path fill="none" stroke="black" stroke-width=".3" stroke-opacity="1.0"  filling="0" d="M15.58041763305664 9.170373916625977 L15.58041763305664 9.170373916625977 C15.915959358215332 9.46391487121582 15.694005966186523 9.897116661071777 15.713699340820312 10.320954322814941 L15.713699340820312 10.320954322814941 C17.751235961914062 9.069862365722656 17.051151275634766 13.735610008239746 17.032663345336914 14.493081092834473 L17.032663345336914 14.493081092834473 C16.700254440307617 14.494617462158203 16.36784553527832 14.496153831481934 16.035436630249023 14.497690200805664 L16.035436630249023 14.497690200805664 C15.920957565307617 13.40017032623291 16.009119033813477 12.214459419250488 16.009119033813477 11.111617088317871 L16.009119033813477 11.111617088317871 C15.426387786865234 10.997978210449219 15.687361717224121 14.312333106994629 15.652608871459961 14.5396089553833 L15.652608871459961 14.5396089553833 C15.30782699584961 14.528535842895508 14.963045120239258 14.517463684082031 14.618263244628906 14.506390571594238 L14.618263244628906 14.506390571594238 C14.618263244628906 12.81488037109375 14.407143592834473 10.865053176879883 14.672563552856445 9.190963745117188 L14.672563552856445 9.190963745117188 C14.975258827209473 9.19050121307373 15.278191566467285 9.187236785888672 15.58041763305664 9.170373916625977 L15.58041763305664 9.170373916625977"></path></svg>