<svg xmlns="http://www.w3.org/2000/svg" viewBox="0.0 0.0 24.0 24.0" height="200px" width="200px"><path fill="none" stroke="black" stroke-width=".3" stroke-opacity="1.0"  filling="0" d="M18.729490280151367 8.909944534301758 L18.729490280151367 8.909944534301758 C18.95328140258789 8.923163414001465 19.177072525024414 8.936381340026855 19.400863647460938 8.949600219726562 L19.400863647460938 8.949600219726562 C19.644306182861328 10.18126392364502 19.445201873779297 11.806693077087402 19.444908142089844 13.055645942687988 C19.444812774658203 13.461132049560547 19.69487190246582 14.18885612487793 19.296218872070312 14.262982368469238 C19.29248809814453 14.263675689697266 18.61046600341797 14.263692855834961 18.403827667236328 14.263717651367188 L18.403827667236328 14.263717651367188 C18.403827667236328 14.144481658935547 18.403827667236328 14.025245666503906 18.403827667236328 13.906009674072266 L18.403827667236328 13.906009674072266 C16.266603469848633 15.990070343017578 16.365999221801758 8.160633087158203 18.399734497070312 10.259153366088867 L18.399734497070312 10.259153366088867 C18.424957275390625 9.818961143493652 18.141386032104492 8.951586723327637 18.729490280151367 8.909944534301758 L18.729490280151367 8.909944534301758"></path>
<path fill="none" stroke="black" stroke-width=".3" stroke-opacity="1.0"  filling="0" d="M18.242809295654297 10.829018592834473 L18.242809295654297 10.829018592834473 C18.85528564453125 11.461837768554688 18.0313720703125 15.066455841064453 18.027408599853516 11.939400672912598 C18.026891708374023 11.532183647155762 17.91019630432129 11.097066879272461 18.242809295654297 10.829018592834473 L18.242809295654297 10.829018592834473"></path></svg>