<svg xmlns="http://www.w3.org/2000/svg" viewBox="0.0 0.0 24.0 24.0" height="200px" width="200px"><path fill="none" stroke="black" stroke-width=".3" stroke-opacity="1.0"  filling="0" d="M19.047874450683594 9.246980667114258 L19.047874450683594 9.246980667114258 C19.7939395904541 9.250008583068848 20.5300350189209 9.420269012451172 21.272754669189453 9.490907669067383 L21.272754669189453 9.490907669067383 C21.272735595703125 11.081815719604492 21.272727966308594 12.672728538513184 21.272727966308594 14.263636589050293 L21.272727966308594 14.263636589050293 C19.579730987548828 15.442495346069336 18.969207763671875 14.600717544555664 18.79104232788086 13.262129783630371 C18.612876892089844 11.923542022705078 18.8670654296875 10.088144302368164 18.903491973876953 9.279763221740723 L18.903491973876953 9.279763221740723 C18.95162010192871 9.26883602142334 18.999746322631836 9.25790786743164 19.047874450683594 9.246980667114258 L19.047874450683594 9.246980667114258"></path>
<path fill="none" stroke="black" stroke-width=".3" stroke-opacity="1.0"  filling="0" d="M20.195289611816406 10.227163314819336 L20.195289611816406 10.227163314819336 C21.005578994750977 10.610798835754395 20.596853256225586 13.967482566833496 19.932327270507812 13.585908889770508 L19.932327270507812 13.585908889770508 C19.94596290588379 12.993021965026855 19.701353073120117 10.67316722869873 20.195289611816406 10.227163314819336 L20.195289611816406 10.227163314819336"></path></svg>