<svg xmlns="http://www.w3.org/2000/svg" viewBox="0.0 0.0 24.0 24.0" height="200px" width="200px"><path fill="none" stroke="black" stroke-width=".3" stroke-opacity="1.0"  filling="0" d="M8.180509567260742 10.064291000366211 L8.180509567260742 10.064291000366211 C10.092828750610352 10.06934928894043 9.301530838012695 12.909411430358887 9.110236167907715 14.348617553710938 C9.07466983795166 14.616199493408203 8.245430946350098 14.469966888427734 8.120590209960938 14.501453399658203 L8.120590209960938 14.501453399658203 C8.097063064575195 14.387572288513184 8.073535919189453 14.273690223693848 8.050008773803711 14.159809112548828 L8.050008773803711 14.159809112548828 C6.4786882400512695 16.001346588134766 6.670802593231201 11.21284008026123 6.737318515777588 10.65651798248291 C6.816389560699463 9.995190620422363 7.676273822784424 9.9114408493042 8.061763763427734 10.423254013061523 L8.061763763427734 10.423254013061523 C8.071455001831055 10.419817924499512 8.081145286560059 10.416380882263184 8.090836524963379 10.412944793701172 L8.090836524963379 10.412944793701172 C8.090836524963379 10.301335334777832 8.090836524963379 10.189726829528809 8.090836524963379 10.078117370605469 L8.090836524963379 10.078117370605469 C8.1207275390625 10.073508262634277 8.150618553161621 10.068900108337402 8.180509567260742 10.064291000366211 L8.180509567260742 10.064291000366211"></path>
<path fill="none" stroke="black" stroke-width=".3" stroke-opacity="1.0"  filling="0" d="M7.942145347595215 11.072917938232422 L7.942145347595215 11.072917938232422 C8.213584899902344 11.392800331115723 8.100578308105469 11.845166206359863 8.100000381469727 12.252517700195312 C8.095924377441406 15.127626419067383 7.186608791351318 11.746999740600586 7.942145347595215 11.072917938232422 L7.942145347595215 11.072917938232422"></path></svg>