<svg xmlns="http://www.w3.org/2000/svg" viewBox="0.0 0.0 24.0 24.0" height="200px" width="200px"><path fill="none" stroke="black" stroke-width=".3" stroke-opacity="1.0"  filling="0" d="M-1.6492090225219727 9.708383560180664 L-1.6492090225219727 9.708383560180664 C-0.40034639835357666 9.899615287780762 -0.178361713886261 10.761228561401367 -0.30158138275146484 11.972810745239258 C-0.34490862488746643 12.398834228515625 -1.2903578281402588 12.076926231384277 -1.6552915573120117 12.136881828308105 L-1.6552915573120117 12.136881828308105 C-1.7077382802963257 13.332188606262207 -1.7058271169662476 13.360026359558105 -1.3096094131469727 12.615955352783203 C-1.167392611503601 12.348881721496582 -0.2938995957374573 12.355571746826172 -0.2988548278808594 12.644318580627441 C-0.31553587317466736 13.616342544555664 -0.972933292388916 14.543522834777832 -2.0666732788085938 14.074800491333008 C-3.549671173095703 13.439261436462402 -2.8321218490600586 10.23549747467041 -1.6492090225219727 9.708383560180664 L-1.6492090225219727 9.708383560180664"></path>
<path fill="none" stroke="black" stroke-width=".3" stroke-opacity="1.0"  filling="0" d="M-1.5811634063720703 10.58604621887207 L-1.5811634063720703 10.58604621887207 C-1.3203210830688477 10.840980529785156 -1.1038246154785156 11.42402172088623 -1.66339111328125 11.341009140014648 L-1.66339111328125 11.341009140014648 C-1.6616265773773193 11.087872505187988 -1.6785753965377808 10.819695472717285 -1.5811634063720703 10.58604621887207 L-1.5811634063720703 10.58604621887207"></path></svg>