<svg xmlns="http://www.w3.org/2000/svg" viewBox="0.0 0.0 24.0 24.0" height="200px" width="200px"><path fill="none" stroke="black" stroke-width=".3" stroke-opacity="1.0"  filling="0" d="M11.660563468933105 11.581827163696289 L11.660563468933105 11.581827163696289 C11.66615104675293 11.741738319396973 11.577352523803711 11.920000076293945 11.445846557617188 12.011154174804688 L11.445846557617188 12.011154174804688 C11.519837379455566 12.065990447998047 11.593828201293945 12.120827674865723 11.667819023132324 12.175663948059082 L11.667819023132324 12.175663948059082 C11.667819023132324 12.268954277038574 11.667819023132324 12.362245559692383 11.667819023132324 12.455535888671875 L11.667819023132324 12.455535888671875 C11.493300437927246 12.30449104309082 11.318781852722168 12.15344524383545 11.14426326751709 12.002400398254395 L11.14426326751709 12.002400398254395 C11.14426326751709 12.136445999145508 11.14426326751709 12.270490646362305 11.14426326751709 12.404536247253418 L11.14426326751709 12.404536247253418 C11.07495403289795 12.410272598266602 11.005645751953125 12.416009902954102 10.936336517333984 12.421746253967285 L10.936336517333984 12.421746253967285 C10.937360763549805 12.206222534179688 10.90835189819336 11.975374221801758 10.994427680969238 11.777782440185547 L10.994427680969238 11.777782440185547 C10.977009773254395 11.771655082702637 10.959590911865234 11.765527725219727 10.94217300415039 11.759400367736816 L10.94217300415039 11.759400367736816 C10.94217300415039 11.703346252441406 10.94217300415039 11.64729118347168 10.94217300415039 11.59123706817627 L10.94217300415039 11.59123706817627 C11.254240036010742 11.591442108154297 11.045921325683594 11.803580284118652 11.191390991210938 11.970982551574707 L11.191390991210938 11.970982551574707 C11.347782135009766 11.841263771057129 11.504172325134277 11.711545944213867 11.660563468933105 11.581827163696289 L11.660563468933105 11.581827163696289"></path></svg>