<svg xmlns="http://www.w3.org/2000/svg" viewBox="0.0 0.0 24.0 24.0" height="200px" width="200px"><path fill="none" stroke="black" stroke-width=".3" stroke-opacity="1.0"  filling="0" d="M16.68935203552246 9.136663436889648 L16.68935203552246 9.136663436889648 C16.701398849487305 9.351144790649414 16.713443756103516 9.565627098083496 16.72549057006836 9.780108451843262 L16.72549057006836 9.780108451843262 C16.779935836791992 9.797971725463867 16.834381103515625 9.815834999084473 16.888826370239258 9.833698272705078 L16.888826370239258 9.833698272705078 C16.889015197753906 10.09807014465332 16.884719848632812 10.403482437133789 16.717227935791016 10.608027458190918 L16.717227935791016 10.608027458190918 C16.814905166625977 11.362850189208984 17.005626678466797 13.395340919494629 16.742536544799805 14.102153778076172 C16.616302490234375 14.441289901733398 15.777952194213867 14.455826759338379 15.677864074707031 14.087045669555664 C15.393895149230957 13.040741920471191 15.745752334594727 11.689848899841309 15.662127494812012 10.59049129486084 L15.662127494812012 10.59049129486084 C15.387099266052246 10.330900192260742 15.462907791137695 10.044426918029785 15.65484619140625 9.77991771697998 L15.65484619140625 9.77991771697998 C15.655082702636719 9.373855590820312 16.28329086303711 9.136786460876465 16.68935203552246 9.136663436889648 L16.68935203552246 9.136663436889648"></path></svg>