<svg xmlns="http://www.w3.org/2000/svg" viewBox="0.0 0.0 24.0 24.0" height="200px" width="200px"><path fill="none" stroke="black" stroke-width=".3" stroke-opacity="1.0"  filling="0" d="M20.329471588134766 10.855528831481934 L20.329471588134766 10.855528831481934 C21.253795623779297 11.055303573608398 21.777568817138672 11.47016716003418 21.743968963623047 12.572755813598633 L21.743968963623047 12.572755813598633 C21.07904052734375 12.573344230651855 20.414331436157227 12.59701919555664 19.749542236328125 12.610664367675781 L19.749542236328125 12.610664367675781 C20.118553161621094 13.719605445861816 20.893234252929688 12.795917510986328 21.750682830810547 12.961282730102539 L21.750682830810547 12.961282730102539 C20.25550651550293 15.862537384033203 17.24070167541504 11.30783462524414 20.329471588134766 10.855528831481934 L20.329471588134766 10.855528831481934"></path>
<path fill="none" stroke="black" stroke-width=".3" stroke-opacity="1.0"  filling="0" d="M20.502220153808594 11.499709129333496 L20.502220153808594 11.499709129333496 C20.660682678222656 11.677555084228516 20.81914710998535 11.855400085449219 20.977609634399414 12.033246040344238 L20.977609634399414 12.033246040344238 C20.581865310668945 12.033246040344238 20.186119079589844 12.033246040344238 19.790374755859375 12.033246040344238 L19.790374755859375 12.033246040344238 C19.78122901916504 11.736854553222656 20.242250442504883 11.642354965209961 20.502220153808594 11.499709129333496 L20.502220153808594 11.499709129333496"></path></svg>