<svg xmlns="http://www.w3.org/2000/svg" viewBox="0.0 0.0 24.0 24.0" height="200px" width="200px"><path fill="none" stroke="black" stroke-width=".3" stroke-opacity="1.0"  filling="0" d="M12.279327392578125 11.778818130493164 L12.279327392578125 11.778818130493164 C12.398599624633789 11.801955223083496 12.51787281036377 11.825091361999512 12.637145042419434 11.848228454589844 L12.637145042419434 11.848228454589844 C12.974762916564941 11.765828132629395 12.927703857421875 11.929492950439453 12.92727279663086 12.233291625976562 L12.92727279663086 12.233291625976562 C12.83128547668457 12.166399002075195 12.791065216064453 12.02691650390625 12.790800094604492 11.909919738769531 L12.790800094604492 11.909919738769531 C12.693161010742188 11.977038383483887 12.654766082763672 12.119745254516602 12.654573440551758 12.238228797912598 L12.654573440551758 12.238228797912598 C12.62190055847168 12.238228797912598 12.589228630065918 12.238228797912598 12.55655574798584 12.238228797912598 L12.55655574798584 12.238228797912598 C12.529446601867676 12.113665580749512 12.502336502075195 11.98910140991211 12.475227355957031 11.864538192749023 L12.475227355957031 11.864538192749023 C12.43918228149414 11.990074157714844 12.403136253356934 12.115610122680664 12.367091178894043 12.241146087646484 L12.367091178894043 12.241146087646484 C12.337836265563965 12.241146087646484 12.308582305908203 12.241146087646484 12.279327392578125 12.241146087646484 L12.279327392578125 12.241146087646484 C12.279327392578125 12.087037086486816 12.279327392578125 11.932927131652832 12.279327392578125 11.778818130493164 L12.279327392578125 11.778818130493164"></path></svg>