<svg xmlns="http://www.w3.org/2000/svg" viewBox="0.0 0.0 24.0 24.0" height="200px" width="200px"><path fill="none" stroke="black" stroke-width=".3" stroke-opacity="1.0"  filling="0" d="M11.93149185180664 11.843263626098633 L11.93149185180664 11.843263626098633 C12.04586410522461 11.970613479614258 12.08183765411377 12.163057327270508 12.081981658935547 12.334227561950684 L12.081981658935547 12.334227561950684 C12.036718368530273 12.325118064880371 11.991454124450684 12.316009521484375 11.94619083404541 12.306900024414062 L11.94619083404541 12.306900024414062 C11.9409818649292 12.187463760375977 11.935772895812988 12.06802749633789 11.930563926696777 11.948591232299805 L11.930563926696777 11.948591232299805 C11.899463653564453 12.06467342376709 11.868364334106445 12.180754661560059 11.837264060974121 12.296836853027344 L11.837264060974121 12.296836853027344 C11.79562759399414 12.309927940368652 11.753992080688477 12.323018074035645 11.712355613708496 12.336109161376953 L11.712355613708496 12.336109161376953 C11.701155662536621 12.208945274353027 11.689955711364746 12.081781387329102 11.678755760192871 11.954617500305176 L11.678755760192871 11.954617500305176 C11.488144874572754 12.073476791381836 11.620601654052734 12.171440124511719 11.434173583984375 12.318408966064453 L11.434173583984375 12.318408966064453 C11.434173583984375 12.16783618927002 11.434173583984375 12.017264366149902 11.434173583984375 11.866691589355469 L11.434173583984375 11.866691589355469 C11.553818702697754 11.878645896911621 11.67346477508545 11.890600204467773 11.793109893798828 11.902554512023926 L11.793109893798828 11.902554512023926 C11.839237213134766 11.882790565490723 11.885364532470703 11.863027572631836 11.93149185180664 11.843263626098633 L11.93149185180664 11.843263626098633"></path></svg>