<svg xmlns="http://www.w3.org/2000/svg" viewBox="0.0 0.0 24.0 24.0" height="200px" width="200px"><path fill="none" stroke="black" stroke-width=".3" stroke-opacity="1.0"  filling="0" d="M13.266545295715332 18.386619567871094 L13.266545295715332 18.386619567871094 C15.519801139831543 19.14838409423828 15.808839797973633 22.177080154418945 16.443218231201172 24.218482971191406 C16.685335159301758 24.997608184814453 16.552913665771484 26.054641723632812 17.205434799194336 26.544410705566406 C17.393579483032227 26.68562889099121 18.273454666137695 26.205493927001953 18.640605926513672 26.284801483154297 L18.640605926513672 26.284801483154297 C18.17632484436035 27.299707412719727 18.097232818603516 28.103755950927734 17.917171478271484 29.15683937072754 C17.861976623535156 29.479646682739258 14.740909576416016 30.14475440979004 14.441481590270996 29.890336990356445 C12.904539108276367 28.584426879882812 12.640658378601074 25.25054931640625 12.056917190551758 23.371231079101562 C11.780194282531738 22.48033905029297 11.339824676513672 21.040740966796875 10.054608345031738 21.841693878173828 C8.899365425109863 22.561647415161133 10.301595687866211 25.099098205566406 10.53613567352295 25.84693717956543 C10.753461837768555 26.53989028930664 10.759933471679688 27.349756240844727 11.211954116821289 27.918167114257812 C11.29369831085205 28.020959854125977 12.237340927124023 27.137216567993164 12.602344512939453 27.409420013427734 C13.092323303222656 27.774824142456055 12.26177978515625 28.584697723388672 12.136580467224121 29.182966232299805 C11.76461410522461 30.96042251586914 10.813002586364746 31.037290573120117 8.848581314086914 31.144287109375 C8.18085765838623 31.18065643310547 7.782627105712891 29.686262130737305 7.612090587615967 29.160303115844727 C7.026821136474609 27.355249404907227 6.722323894500732 24.70827293395996 5.740880966186523 23.104366302490234 C5.544493198394775 22.783422470092773 4.881877422332764 23.509225845336914 4.737163543701172 23.611909866333008 L4.737163543701172 23.611909866333008 C4.342661380767822 22.974201202392578 4.97438383102417 22.129724502563477 5.146144390106201 21.399791717529297 C5.270953178405762 20.8693904876709 4.975881099700928 19.986669540405273 5.488280773162842 19.80133628845215 C6.485539436340332 19.440631866455078 8.306662559509277 18.712732315063477 8.750563621520996 19.969470977783203 L8.750563621520996 19.969470977783203 C9.226958274841309 19.709209442138672 9.332283973693848 19.113195419311523 9.838854789733887 18.930246353149414 C10.876605033874512 18.55545997619629 12.193456649780273 18.445730209350586 13.266545295715332 18.386619567871094 L13.266545295715332 18.386619567871094"></path></svg>