<svg xmlns="http://www.w3.org/2000/svg" viewBox="0.0 0.0 24.0 24.0" height="200px" width="200px"><path fill="none" stroke="black" stroke-width=".3" stroke-opacity="1.0"  filling="0" d="M23.535682678222656 10.866000175476074 L23.535682678222656 10.866000175476074 C23.534088134765625 11.289586067199707 23.02840232849121 11.54454517364502 22.779409408569336 11.887226104736328 C22.489782333374023 12.285828590393066 22.718780517578125 13.443110466003418 22.680545806884766 13.72489070892334 L22.680545806884766 13.72489070892334 C22.43944549560547 13.72489070892334 22.198345184326172 13.72489070892334 21.957244873046875 13.72489070892334 L21.957244873046875 13.72489070892334 C21.94499397277832 12.792790412902832 21.9327392578125 11.86069107055664 21.920482635498047 10.928590774536133 L21.920482635498047 10.928590774536133 C22.15829086303711 10.928590774536133 22.396100997924805 10.928590774536133 22.633909225463867 10.928590774536133 L22.633909225463867 10.928590774536133 C22.6616268157959 11.052054405212402 22.689346313476562 11.175518035888672 22.717063903808594 11.298981666564941 L22.717063903808594 11.298981666564941 C22.98993682861328 11.154654502868652 23.26280975341797 11.010327339172363 23.535682678222656 10.866000175476074 L23.535682678222656 10.866000175476074"></path></svg>