<svg xmlns="http://www.w3.org/2000/svg" viewBox="0.0 0.0 24.0 24.0" height="200px" width="200px"><path fill="none" stroke="black" stroke-width=".3" stroke-opacity="1.0"  filling="0" d="M18.703500747680664 9.818290710449219 L18.703500747680664 9.818290710449219 C18.778213500976562 9.886971473693848 18.78076934814453 10.013607025146484 18.772720336914062 10.11477279663086 L18.772720336914062 10.11477279663086 C18.51753807067871 10.11477279663086 18.262357711791992 10.11477279663086 18.00717544555664 10.11477279663086 L18.00717544555664 10.11477279663086 C17.75908088684082 11.274765014648438 17.613298416137695 11.760211944580078 18.611373901367188 11.805191040039062 L18.611373901367188 11.805191040039062 C18.60240936279297 11.904227256774902 18.593446731567383 12.003263473510742 18.584482192993164 12.102299690246582 L18.584482192993164 12.102299690246582 C18.38247299194336 12.114409446716309 18.180463790893555 12.126518249511719 17.97845458984375 12.138628005981445 L17.97845458984375 12.138628005981445 C17.97845458984375 12.73635482788086 17.97845458984375 13.33408260345459 17.97845458984375 13.931809425354004 L17.97845458984375 13.931809425354004 C18.26399803161621 13.972196578979492 18.554641723632812 13.962944030761719 18.843027114868164 13.963608741760254 L18.843027114868164 13.963608741760254 C18.843027114868164 14.058472633361816 18.843027114868164 14.153335571289062 18.843027114868164 14.248199462890625 L18.843027114868164 14.248199462890625 C18.444658279418945 14.27559757232666 18.044708251953125 14.284134864807129 17.64545440673828 14.277436256408691 L17.64545440673828 14.277436256408691 C17.64545440673828 12.790908813476562 17.646333694458008 11.304862976074219 17.661027908325195 9.818400382995605 L17.661027908325195 9.818400382995605 C18.00851821899414 9.818364143371582 18.35601043701172 9.818326950073242 18.703500747680664 9.818290710449219 L18.703500747680664 9.818290710449219"></path></svg>