<svg xmlns="http://www.w3.org/2000/svg" viewBox="0.0 0.0 24.0 24.0" height="200px" width="200px"><path fill="none" stroke="black" stroke-width=".3" stroke-opacity="1.0"  filling="0" d="M6.864245414733887 10.661781311035156 L6.864245414733887 10.661781311035156 C7.702530860900879 10.663797378540039 8.540694236755371 10.663717269897461 9.378981590270996 10.663717269897461 L9.378981590270996 10.663717269897461 C9.494878768920898 11.959078788757324 7.738241672515869 11.145773887634277 6.757009983062744 11.2291898727417 L6.757009983062744 11.2291898727417 C6.321636199951172 12.310633659362793 9.612103462219238 10.861440658569336 9.622364044189453 12.434372901916504 C9.63103199005127 13.76314640045166 6.782437801361084 13.2326021194458 6.19448184967041 13.19159984588623 L6.19448184967041 13.19159984588623 C6.19448184967041 13.01259994506836 6.19448184967041 12.833600044250488 6.19448184967041 12.654600143432617 L6.19448184967041 12.654600143432617 C6.438518524169922 12.654600143432617 9.068169593811035 12.943511009216309 9.015518188476562 12.415226936340332 C8.981695175170898 12.075858116149902 8.211583137512207 12.214085578918457 8.193435668945312 12.213817596435547 C7.244919776916504 12.199806213378906 4.918558120727539 11.481861114501953 6.864245414733887 10.661781311035156 L6.864245414733887 10.661781311035156"></path></svg>