<svg xmlns="http://www.w3.org/2000/svg" viewBox="0.0 0.0 24.0 24.0" height="200px" width="200px"><path fill="none" stroke="black" stroke-width=".3" stroke-opacity="1.0"  filling="0" d="M-0.14719104766845703 9.766633987426758 L-0.14719104766845703 9.766633987426758 C0.14093977212905884 9.88106918334961 1.415008306503296 10.911843299865723 0.43224525451660156 10.9091157913208 L0.43224525451660156 10.9091157913208 C0.3745690882205963 10.601163864135742 0.1341666877269745 9.897245407104492 -0.08304500579833984 10.12303352355957 C-1.0377010107040405 11.115382194519043 1.8905302286148071 12.910433769226074 0.6233177185058594 14.04967975616455 C-0.2942467927932739 14.87458610534668 -1.0307822227478027 12.978413581848145 -0.21452713012695312 12.981926918029785 L-0.21452713012695312 12.981926918029785 C-0.1610807180404663 13.42185115814209 0.560864269733429 14.54701042175293 0.4850454330444336 13.459471702575684 C0.3900013864040375 12.096168518066406 -1.1388952732086182 11.33430290222168 -0.4736194610595703 9.973661422729492 L-0.4736194610595703 9.973661422729492 C-0.46350064873695374 9.998188972473145 -0.45338186621665955 10.022716522216797 -0.44326305389404297 10.04724407196045 L-0.44326305389404297 10.04724407196045 C-0.34457236528396606 9.953707695007324 -0.24588172137737274 9.860170364379883 -0.14719104766845703 9.766633987426758 L-0.14719104766845703 9.766633987426758"></path></svg>