<svg xmlns="http://www.w3.org/2000/svg" viewBox="0.0 0.0 24.0 24.0" height="200px" width="200px"><path fill="none" stroke="black" stroke-width=".3" stroke-opacity="1.0"  filling="0" d="M27.889259338378906 9.8454008102417 L27.889259338378906 9.8454008102417 C27.94744110107422 9.8454008102417 28.00562286376953 9.8454008102417 28.063804626464844 9.8454008102417 L28.063804626464844 9.8454008102417 C28.063661575317383 11.283291816711426 28.040021896362305 12.861391067504883 27.735244750976562 14.285074234008789 L27.735244750976562 14.285074234008789 C27.65298080444336 14.285074234008789 27.57071876525879 14.285074234008789 27.488454818725586 14.285074234008789 L27.488454818725586 14.285074234008789 C27.36319923400879 13.34716796875 27.23749351501465 12.409321784973145 27.111326217651367 11.471537590026855 L27.111326217651367 11.471537590026855 C27.101444244384766 11.471837043762207 27.091564178466797 11.472137451171875 27.081682205200195 11.472436904907227 L27.081682205200195 11.472436904907227 C26.967575073242188 12.40939998626709 26.85347557067871 13.34636402130127 26.7393798828125 14.28332805633545 L26.7393798828125 14.28332805633545 C26.646089553833008 14.28332805633545 26.552797317504883 14.28332805633545 26.45950698852539 14.28332805633545 L26.45950698852539 14.28332805633545 C26.316936492919922 12.978432655334473 25.828214645385742 11.290414810180664 25.965106964111328 9.973065376281738 C26.0211238861084 9.434004783630371 26.431182861328125 10.963303565979004 26.45566177368164 11.195483207702637 C26.50181770324707 11.63327693939209 26.55527687072754 12.074394226074219 26.621536254882812 12.509781837463379 L26.621536254882812 12.509781837463379 C26.66939926147461 12.301581382751465 26.944744110107422 9.817214012145996 27.052501678466797 9.848945617675781 C27.57355499267578 10.0023832321167 27.489761352539062 12.043127059936523 27.558002471923828 12.568364143371582 L27.558002471923828 12.568364143371582 C27.568857192993164 12.568528175354004 27.579713821411133 12.56869125366211 27.59056854248047 12.568855285644531 L27.59056854248047 12.568855285644531 C27.69013214111328 11.66103744506836 27.789695739746094 10.753218650817871 27.889259338378906 9.8454008102417 L27.889259338378906 9.8454008102417"></path></svg>