<svg xmlns="http://www.w3.org/2000/svg" viewBox="0.0 0.0 24.0 24.0" height="200px" width="200px"><path fill="none" stroke="black" stroke-width=".3" stroke-opacity="1.0"  filling="0" d="M15.97418212890625 11.606099128723145 L15.97418212890625 11.606099128723145 C15.97845458984375 11.651907920837402 15.982728004455566 11.697717666625977 15.987000465393066 11.743526458740234 L15.987000465393066 11.743526458740234 C16.012554168701172 11.756290435791016 16.038108825683594 11.76905345916748 16.063663482666016 11.781817436218262 L16.063663482666016 11.781817436218262 C16.063663482666016 11.799999237060547 16.063663482666016 11.818181037902832 16.063663482666016 11.836362838745117 L16.063663482666016 11.836362838745117 C15.99764347076416 11.902691841125488 15.982063293457031 12.01141357421875 15.982063293457031 12.104999542236328 L15.982063293457031 12.104999542236328 C16.00926399230957 12.106363296508789 16.036462783813477 12.107726097106934 16.063663482666016 12.109089851379395 L16.063663482666016 12.109089851379395 C16.06365394592285 12.145453453063965 16.06364631652832 12.181818008422852 16.063636779785156 12.218181610107422 L16.063636779785156 12.218181610107422 C16.01804542541504 12.218181610107422 15.972455024719238 12.218181610107422 15.926863670349121 12.218181610107422 L15.926863670349121 12.218181610107422 C15.898679733276367 12.082559585571289 15.862476348876953 11.944892883300781 15.794208526611328 11.824363708496094 L15.794208526611328 11.824363708496094 C15.814462661743164 11.768472671508789 15.834717750549316 11.712581634521484 15.854971885681152 11.65669059753418 L15.854971885681152 11.65669059753418 C15.894708633422852 11.639826774597168 15.93444538116455 11.622962951660156 15.97418212890625 11.606099128723145 L15.97418212890625 11.606099128723145"></path></svg>