<svg xmlns="http://www.w3.org/2000/svg" viewBox="0.0 0.0 24.0 24.0" height="200px" width="200px"><path fill="none" stroke="black" stroke-width=".3" stroke-opacity="1.0"  filling="0" d="M17.698144912719727 9.798300743103027 L17.698144912719727 9.798300743103027 C17.985660552978516 10.219992637634277 18.019580841064453 10.443090438842773 18.038536071777344 10.941027641296387 L18.038536071777344 10.941027641296387 C17.932662963867188 10.934464454650879 17.826791763305664 10.927900314331055 17.720918655395508 10.921337127685547 L17.720918655395508 10.921337127685547 C17.611284255981445 10.041210174560547 16.89553451538086 9.657675743103027 17.115299224853516 10.891227722167969 C17.265851974487305 11.736288070678711 18.17296028137207 12.349080085754395 18.05315399169922 13.270910263061523 C17.850658416748047 14.82898998260498 16.663497924804688 14.26222038269043 16.6636905670166 12.994009017944336 L16.6636905670166 12.994009017944336 C16.781864166259766 12.993345260620117 16.900035858154297 12.992681503295898 17.01820945739746 12.99201774597168 L17.01820945739746 12.99201774597168 C17.023637771606445 14.001415252685547 17.924524307250977 14.337803840637207 17.682056427001953 12.965181350708008 C17.44321060180664 11.613065719604492 15.730205535888672 10.576908111572266 17.698144912719727 9.798300743103027 L17.698144912719727 9.798300743103027"></path></svg>