<svg xmlns="http://www.w3.org/2000/svg" viewBox="0.0 0.0 24.0 24.0" height="200px" width="200px"><path fill="none" stroke="black" stroke-width=".3" stroke-opacity="1.0"  filling="0" d="M8.681672096252441 11.730436325073242 L8.681672096252441 11.730436325073242 C9.09952163696289 11.750663757324219 9.325967788696289 11.675116539001465 9.327136039733887 12.182863235473633 L9.327136039733887 12.182863235473633 C9.232008934020996 12.111184120178223 9.191286087036133 11.971563339233398 9.191072463989258 11.85245418548584 L9.191072463989258 11.85245418548584 C9.094071388244629 11.922863006591797 9.054509162902832 12.06515884399414 9.054327011108398 12.185018539428711 L9.054327011108398 12.185018539428711 C9.021590232849121 12.185018539428711 8.98885440826416 12.185018539428711 8.956117630004883 12.185018539428711 L8.956117630004883 12.185018539428711 C8.933422088623047 12.0723237991333 8.920185089111328 11.957072257995605 8.919300079345703 11.842118263244629 L8.919300079345703 11.842118263244629 C8.880864143371582 11.842118263244629 8.842427253723145 11.842118263244629 8.803991317749023 11.842118263244629 L8.803991317749023 11.842118263244629 C8.804713249206543 11.96382999420166 8.760201454162598 12.093171119689941 8.681672096252441 12.186162948608398 L8.681672096252441 12.186162948608398 C8.681672096252441 12.03425407409668 8.681672096252441 11.882345199584961 8.681672096252441 11.730436325073242 L8.681672096252441 11.730436325073242"></path></svg>