<svg xmlns="http://www.w3.org/2000/svg" viewBox="0.0 0.0 24.0 24.0" height="200px" width="200px"><path fill="none" stroke="black" stroke-width=".3" stroke-opacity="1.0"  filling="0" d="M10.596245765686035 11.852591514587402 L10.596245765686035 11.852591514587402 C10.564473152160645 11.882964134216309 10.532700538635254 11.913336753845215 10.500927925109863 11.943709373474121 L10.500927925109863 11.943709373474121 C10.524173736572266 11.979118347167969 10.547418594360352 12.014528274536133 10.570664405822754 12.04993724822998 L10.570664405822754 12.04993724822998 C10.62723159790039 12.018754959106445 10.659799575805664 12.157407760620117 10.659791946411133 12.222000122070312 L10.659791946411133 12.222000122070312 C10.59900951385498 12.222000122070312 10.538228034973145 12.222000122070312 10.477445602416992 12.222000122070312 L10.477445602416992 12.222000122070312 C10.476390838623047 12.230164527893066 10.475337028503418 12.238327980041504 10.474282264709473 12.246492385864258 L10.474282264709473 12.246492385864258 C10.439745903015137 12.223665237426758 10.405208587646484 12.200837135314941 10.370672225952148 12.178009986877441 L10.370672225952148 12.178009986877441 C10.408186912536621 12.051468849182129 10.484227180480957 11.92238998413086 10.596245765686035 11.852591514587402 L10.596245765686035 11.852591514587402"></path></svg>