<svg xmlns="http://www.w3.org/2000/svg" viewBox="0.0 0.0 24.0 24.0" height="200px" width="200px"><path fill="none" stroke="black" stroke-width=".3" stroke-opacity="1.0"  filling="0" d="M4.301045894622803 10.954719543457031 L4.301045894622803 10.954719543457031 C4.257441520690918 11.699262619018555 2.633047580718994 12.93270206451416 1.9992551803588867 13.322782516479492 L1.9992551803588867 13.322782516479492 C1.7592359781265259 13.26709270477295 1.5431323051452637 13.191553115844727 1.3219366073608398 13.082836151123047 L1.3219366073608398 13.082836151123047 C1.4915645122528076 12.944766998291016 1.8220131397247314 12.892839431762695 1.9771089553833008 13.047054290771484 L1.9771089553833008 13.047054290771484 C2.706545829772949 12.907158851623535 3.012840986251831 12.0944185256958 2.1373910903930664 11.930537223815918 L2.1373910903930664 11.930537223815918 C2.072416067123413 11.50314712524414 2.24318528175354 11.084600448608398 2.717182159423828 10.974955558776855 L2.717182159423828 10.974955558776855 C2.629079818725586 11.142427444458008 2.5569849014282227 11.319856643676758 2.5074548721313477 11.50249195098877 L2.5074548721313477 11.50249195098877 C2.532763719558716 11.489392280578613 2.558072805404663 11.47629165649414 2.5833816528320312 11.463191986083984 L2.5833816528320312 11.463191986083984 C3.111659526824951 12.049967765808105 3.4954886436462402 11.046843528747559 4.301045894622803 10.954719543457031 L4.301045894622803 10.954719543457031"></path>
<path fill="none" stroke="black" stroke-width=".3" stroke-opacity="1.0"  filling="0" d="M4.059354305267334 11.160736083984375 L4.059354305267334 11.160736083984375 C4.059354305267334 11.213654518127441 4.059354305267334 11.266571998596191 4.059354305267334 11.319490432739258 L4.059354305267334 11.319490432739258 C3.860527276992798 11.459236145019531 3.661700487136841 11.598981857299805 3.4628734588623047 11.738727569580078 L3.4628734588623047 11.738727569580078 C3.6366851329803467 11.460938453674316 3.7795443534851074 11.331306457519531 4.059354305267334 11.160736083984375 L4.059354305267334 11.160736083984375"></path></svg>