<svg xmlns="http://www.w3.org/2000/svg" viewBox="0.0 0.0 24.0 24.0" height="200px" width="200px"><path fill="none" stroke="black" stroke-width=".3" stroke-opacity="1.0"  filling="0" d="M17.07665252685547 11.743117332458496 L17.07665252685547 11.743117332458496 C17.20309066772461 11.783872604370117 17.293437957763672 11.78217601776123 17.425718307495117 11.786590576171875 L17.425718307495117 11.786590576171875 C17.38845443725586 11.9215087890625 17.3511905670166 12.056427001953125 17.313926696777344 12.19134521484375 L17.313926696777344 12.19134521484375 C16.904428482055664 11.502336502075195 17.27601432800293 12.94043254852295 16.30077362060547 13.149353981018066 L16.30077362060547 13.149353981018066 C16.252357482910156 12.984042167663574 16.367238998413086 12.808758735656738 16.434572219848633 12.650208473205566 L16.434572219848633 12.650208473205566 C16.44732666015625 12.652935981750488 16.460081100463867 12.655662536621094 16.472835540771484 12.658390045166016 L16.472835540771484 12.658390045166016 C16.47320556640625 12.884607315063477 16.830148696899414 13.238097190856934 16.927690505981445 12.874635696411133 C17.033740997314453 12.479470252990723 16.318010330200195 12.676460266113281 16.590381622314453 12.12370777130127 C16.68136215209961 11.939072608947754 16.914562225341797 11.869980812072754 17.07665252685547 11.743117332458496 L17.07665252685547 11.743117332458496"></path></svg>