<svg xmlns="http://www.w3.org/2000/svg" viewBox="0.0 0.0 24.0 24.0" height="200px" width="200px"><path fill="none" stroke="black" stroke-width=".3" stroke-opacity="1.0"  filling="0" d="M12.284753799438477 11.676572799682617 L12.284753799438477 11.676572799682617 C13.117050170898438 11.74649429321289 12.589855194091797 12.255037307739258 12.430035591125488 12.885490417480469 L12.430035591125488 12.885490417480469 C12.439353942871094 12.894026756286621 12.448671340942383 12.902563095092773 12.457989692687988 12.911099433898926 L12.457989692687988 12.911099433898926 C12.51634407043457 12.885726928710938 12.574699401855469 12.86035442352295 12.63305377960205 12.834981918334961 L12.63305377960205 12.834981918334961 C12.518013954162598 12.959136962890625 12.290782928466797 12.990912437438965 12.13379955291748 12.927627563476562 L12.13379955291748 12.927627563476562 C11.93644905090332 13.005977630615234 11.448163032531738 12.96603012084961 11.517790794372559 12.765436172485352 C11.628697395324707 12.44591999053955 12.181026458740234 12.490715026855469 12.364799499511719 12.206781387329102 C12.908365249633789 11.366957664489746 11.871994972229004 12.148530006408691 11.834890365600586 12.111790657043457 C11.686629295349121 11.964987754821777 12.10567855834961 11.783644676208496 12.284753799438477 11.676572799682617 L12.284753799438477 11.676572799682617"></path>
<path fill="none" stroke="black" stroke-width=".3" stroke-opacity="1.0"  filling="0" d="M12.28576374053955 12.356345176696777 L12.28576374053955 12.356345176696777 C12.161026954650879 12.537545204162598 12.036291122436523 12.718745231628418 11.911554336547852 12.899945259094238 L11.911554336547852 12.899945259094238 C11.892535209655762 12.6807861328125 12.097890853881836 12.470784187316895 12.28576374053955 12.356345176696777 L12.28576374053955 12.356345176696777"></path></svg>