<svg xmlns="http://www.w3.org/2000/svg" viewBox="0.0 0.0 24.0 24.0" height="200px" width="200px"><path fill="none" stroke="black" stroke-width=".3" stroke-opacity="1.0"  filling="0" d="M13.483282089233398 11.668392181396484 L13.483282089233398 11.668392181396484 C13.56869125366211 11.705074310302734 13.65410041809082 11.741756439208984 13.739509582519531 11.778438568115234 L13.739509582519531 11.778438568115234 C13.78378963470459 11.746573448181152 13.830499649047852 11.712329864501953 13.883973121643066 11.701528549194336 L13.883973121643066 11.701528549194336 C13.825227737426758 11.845264434814453 13.766481399536133 11.98900032043457 13.707736015319824 12.132736206054688 L13.707736015319824 12.132736206054688 C13.690881729125977 12.036218643188477 13.674026489257812 11.93970012664795 13.657172203063965 11.843182563781738 L13.657172203063965 11.843182563781738 C12.900337219238281 11.493938446044922 13.666757583618164 12.503214836120605 13.633419036865234 12.61502742767334 C13.443392753601074 13.252352714538574 13.102680206298828 12.910429954528809 12.700637817382812 13.013236045837402 L12.700637817382812 13.013236045837402 C12.74734115600586 12.851058006286621 12.769771575927734 12.661012649536133 12.891764640808105 12.544391632080078 L12.891764640808105 12.544391632080078 C12.936922073364258 12.898981094360352 13.004800796508789 13.127037048339844 13.388155937194824 12.727065086364746 C13.571826934814453 12.535431861877441 12.95132064819336 12.256945610046387 13.044872283935547 12.008537292480469 C13.110060691833496 11.835442543029785 13.337145805358887 11.781773567199707 13.483282089233398 11.668392181396484 L13.483282089233398 11.668392181396484"></path></svg>