<svg xmlns="http://www.w3.org/2000/svg" viewBox="0.0 0.0 24.0 24.0" height="200px" width="200px"><path fill="none" stroke="black" stroke-width=".3" stroke-opacity="1.0"  filling="0" d="M15.305863380432129 11.290009498596191 L15.305863380432129 11.290009498596191 C15.252699851989746 11.444846153259277 15.199536323547363 11.599682807922363 15.14637279510498 11.75451946258545 L15.14637279510498 11.75451946258545 C15.233945846557617 11.75451946258545 15.321517944335938 11.75451946258545 15.409090995788574 11.75451946258545 L15.409090995788574 11.75451946258545 C15.409090995788574 11.781801223754883 15.409090995788574 11.80908203125 15.409090995788574 11.836363792419434 L15.409090995788574 11.836363792419434 C15.307918548583984 11.848791122436523 15.206746101379395 11.861217498779297 15.105573654174805 11.873644828796387 L15.105573654174805 11.873644828796387 C14.971973419189453 12.228254318237305 14.838372230529785 12.582863807678223 14.704771995544434 12.93747329711914 L14.704771995544434 12.93747329711914 C14.806371688842773 12.889073371887207 14.90797233581543 12.840672492980957 15.00957202911377 12.792272567749023 L15.00957202911377 12.792272567749023 C15.108813285827637 13.016254425048828 14.57360553741455 13.286809921264648 14.428635597229004 12.91677188873291 C14.314229011535645 12.624747276306152 14.700549125671387 12.180927276611328 14.789753913879395 11.871081352233887 L14.789753913879395 11.871081352233887 C14.742990493774414 11.866662979125977 14.696226119995117 11.862244606018066 14.649462699890137 11.857826232910156 L14.649462699890137 11.857826232910156 C14.786785125732422 11.691350936889648 15.10144329071045 11.324468612670898 15.305863380432129 11.290009498596191 L15.305863380432129 11.290009498596191"></path></svg>