<svg xmlns="http://www.w3.org/2000/svg" viewBox="0.0 0.0 24.0 24.0" height="200px" width="200px"><path fill="none" stroke="black" stroke-width=".3" stroke-opacity="1.0"  filling="0" d="M11.16392707824707 10.788653373718262 L11.16392707824707 10.788653373718262 C11.040627479553223 11.122899055480957 10.917326927185059 11.457143783569336 10.794027328491211 11.791389465332031 L10.794027328491211 11.791389465332031 C10.802254676818848 11.798852920532227 10.810481071472168 11.806317329406738 10.818708419799805 11.813780784606934 L10.818708419799805 11.813780784606934 C11.816359519958496 11.21729564666748 11.343363761901855 12.370529174804688 11.262382507324219 12.88442611694336 L11.262382507324219 12.88442611694336 C11.308218002319336 12.902085304260254 11.340005874633789 12.946085929870605 11.370354652404785 12.984707832336426 L11.370354652404785 12.984707832336426 C11.163812637329102 13.084794998168945 10.92102336883545 13.00761890411377 10.69170093536377 13.03775405883789 L10.69170093536377 13.03775405883789 C10.778620719909668 12.930706977844238 10.908488273620605 12.854643821716309 10.968900680541992 12.730690002441406 C11.844161987304688 10.934837341308594 9.963578224182129 12.464338302612305 10.5751371383667 12.956618309020996 L10.5751371383667 12.956618309020996 C10.350839614868164 13.106561660766602 10.119823455810547 13.030913352966309 9.849709510803223 13.002872467041016 L9.849709510803223 13.002872467041016 C10.32945728302002 12.526639938354492 10.733722686767578 11.718530654907227 10.743762969970703 11.03678035736084 L10.743762969970703 11.03678035736084 C10.697863578796387 11.008289337158203 10.651963233947754 10.979798316955566 10.606063842773438 10.95130729675293 L10.606063842773438 10.95130729675293 C10.792017936706543 10.897089004516602 10.977972984313965 10.84287166595459 11.16392707824707 10.788653373718262 L11.16392707824707 10.788653373718262"></path></svg>