<svg xmlns="http://www.w3.org/2000/svg" viewBox="0.0 0.0 24.0 24.0" height="200px" width="200px"><path fill="none" stroke="black" stroke-width=".3" stroke-opacity="1.0"  filling="0" d="M15.398427963256836 10.8732271194458 L15.398427963256836 10.8732271194458 C15.38939380645752 11.620990753173828 14.625864028930664 12.175421714782715 14.857091903686523 12.915217399597168 L14.857091903686523 12.915217399597168 C14.701736450195312 13.076093673706055 14.50043773651123 13.106661796569824 14.2869291305542 13.1529541015625 L14.2869291305542 13.1529541015625 C14.307419776916504 13.095108985900879 14.327910423278809 13.037262916564941 14.348401069641113 12.97941780090332 L14.348401069641113 12.97941780090332 C14.3433198928833 12.971063613891602 14.338237762451172 12.962708473205566 14.33315658569336 12.954354286193848 L14.33315658569336 12.954354286193848 C12.990360260009766 13.60509204864502 13.636305809020996 11.502915382385254 14.781299591064453 11.776472091674805 L14.781299591064453 11.776472091674805 C14.927103996276855 11.394177436828613 14.962172508239746 11.39218521118164 14.863663673400879 11.027127265930176 L14.863663673400879 11.027127265930176 C15.041918754577637 10.97582721710205 15.220172882080078 10.924527168273926 15.398427963256836 10.8732271194458 L15.398427963256836 10.8732271194458"></path>
<path fill="none" stroke="black" stroke-width=".3" stroke-opacity="1.0"  filling="0" d="M14.36970043182373 11.855999946594238 L14.36970043182373 11.855999946594238 C15.758980751037598 11.92094612121582 12.950749397277832 13.73437213897705 14.098091125488281 12.066844940185547 C14.163058280944824 11.97242259979248 14.27916431427002 11.926281929016113 14.36970043182373 11.855999946594238 L14.36970043182373 11.855999946594238"></path></svg>