<svg xmlns="http://www.w3.org/2000/svg" viewBox="0.0 0.0 24.0 24.0" height="200px" width="200px"><path fill="none" stroke="black" stroke-width=".3" stroke-opacity="1.0"  filling="0" d="M24.52074432373047 6.241827011108398 L24.52074432373047 6.241827011108398 C25.013843536376953 6.520200729370117 25.227331161499023 7.910469055175781 25.41716957092285 8.468646049499512 C26.095535278320312 10.46323299407959 27.11934471130371 12.615928649902344 27.4903621673584 14.686117172241211 L27.4903621673584 14.686117172241211 C26.11507797241211 14.856928825378418 25.402170181274414 15.29188060760498 24.8862247467041 13.91157341003418 L24.8862247467041 13.91157341003418 C23.53899574279785 13.995013236999512 23.054906845092773 13.735069274902344 22.866350173950195 15.133173942565918 L22.866350173950195 15.133173942565918 C22.136499404907227 15.185029983520508 21.40161895751953 15.32308578491211 20.669750213623047 15.326237678527832 L20.669750213623047 15.326237678527832 C20.922420501708984 13.859960556030273 21.155521392822266 12.385628700256348 21.372373580932617 10.908836364746094 C21.5892276763916 9.43204402923584 21.789833068847656 7.952792167663574 21.977508544921875 6.476672649383545 L21.977508544921875 6.476672649383545 C22.827537536621094 6.4350409507751465 23.670005798339844 6.275514602661133 24.52074432373047 6.241827011108398 L24.52074432373047 6.241827011108398"></path>
<path fill="none" stroke="black" stroke-width=".3" stroke-opacity="1.0"  filling="0" d="M23.601299285888672 10.117144584655762 L23.601299285888672 10.117144584655762 C23.854877471923828 10.861261367797852 24.1102352142334 11.604774475097656 24.36728286743164 12.347700119018555 L24.36728286743164 12.347700119018555 C23.991573333740234 12.380818367004395 23.615863800048828 12.413935661315918 23.240154266357422 12.447053909301758 L23.240154266357422 12.447053909301758 C23.348670959472656 11.671698570251465 23.45718765258789 10.896344184875488 23.56570816040039 10.120989799499512 L23.56570816040039 10.120989799499512 C23.577571868896484 10.119708061218262 23.589435577392578 10.118426322937012 23.601299285888672 10.117144584655762 L23.601299285888672 10.117144584655762"></path></svg>