<svg xmlns="http://www.w3.org/2000/svg" viewBox="0.0 0.0 24.0 24.0" height="200px" width="200px"><path fill="none" stroke="black" stroke-width=".3" stroke-opacity="1.0"  filling="0" d="M14.626008987426758 11.897727966308594 L14.626008987426758 11.897727966308594 C14.72083568572998 12.103800773620605 14.81566333770752 12.3098726272583 14.910490036010742 12.515945434570312 L14.910490036010742 12.515945434570312 C14.841063499450684 12.506545066833496 14.771636009216309 12.497145652770996 14.70220947265625 12.48774528503418 L14.70220947265625 12.48774528503418 C14.628533363342285 12.270543098449707 14.407355308532715 12.195651054382324 14.378536224365234 12.47702693939209 L14.378536224365234 12.47702693939209 C14.324817657470703 12.46927261352539 14.271100044250488 12.461518287658691 14.217381477355957 12.453763961791992 L14.217381477355957 12.453763961791992 C14.362685203552246 12.275458335876465 14.498214721679688 12.088972091674805 14.626008987426758 11.897727966308594 L14.626008987426758 11.897727966308594"></path>
<path fill="none" stroke="black" stroke-width=".3" stroke-opacity="1.0"  filling="0" d="M14.579835891723633 12.042654991149902 L14.579835891723633 12.042654991149902 C14.602436065673828 12.117764472961426 14.625036239624023 12.192873001098633 14.647636413574219 12.267982482910156 L14.647636413574219 12.267982482910156 C14.579191207885742 12.256255149841309 14.51074504852295 12.244527816772461 14.442299842834473 12.232800483703613 L14.442299842834473 12.232800483703613 C14.488144874572754 12.169418334960938 14.533990859985352 12.106037139892578 14.579835891723633 12.042654991149902 L14.579835891723633 12.042654991149902"></path></svg>