<svg xmlns="http://www.w3.org/2000/svg" viewBox="0.0 0.0 24.0 24.0" height="200px" width="200px"><path fill="none" stroke="black" stroke-width=".3" stroke-opacity="1.0"  filling="0" d="M37.963714599609375 15.71969985961914 L37.963714599609375 15.71969985961914 C37.963714599609375 16.198143005371094 37.92194747924805 16.679550170898438 37.99052810668945 17.15413475036621 L37.99052810668945 17.15413475036621 C38.17827224731445 17.15413475036621 38.36602020263672 17.15413475036621 38.55376434326172 17.15413475036621 L38.55376434326172 17.15413475036621 C38.56544494628906 17.45427131652832 38.577125549316406 17.75440788269043 38.58880615234375 18.05454444885254 L38.58880615234375 18.05454444885254 C38.38939666748047 18.067153930664062 38.18998718261719 18.079763412475586 37.990577697753906 18.09237289428711 L37.990577697753906 18.09237289428711 C37.999786376953125 18.643400192260742 38.008995056152344 19.194425582885742 38.01820373535156 19.745452880859375 L38.01820373535156 19.745452880859375 C37.645469665527344 19.745452880859375 37.272735595703125 19.745452880859375 36.900001525878906 19.745452880859375 L36.900001525878906 19.745452880859375 C36.85586166381836 19.192596435546875 36.87275695800781 18.639951705932617 36.87275695800781 18.085365295410156 L36.87275695800781 18.085365295410156 C36.70254898071289 18.085365295410156 36.5323371887207 18.085365295410156 36.36212921142578 18.085365295410156 L36.36212921142578 18.085365295410156 C36.36212921142578 17.774545669555664 36.36212921142578 17.463727951049805 36.36212921142578 17.152908325195312 L36.36212921142578 17.152908325195312 C37.00382995605469 17.155704498291016 36.84508514404297 16.879413604736328 36.845184326171875 16.227243423461914 L36.845184326171875 16.227243423461914 C37.2180290222168 16.058061599731445 37.59086990356445 15.888880729675293 37.963714599609375 15.71969985961914 L37.963714599609375 15.71969985961914"></path></svg>