<svg xmlns="http://www.w3.org/2000/svg" viewBox="0.0 0.0 24.0 24.0" height="200px" width="200px"><path fill="none" stroke="black" stroke-width=".3" stroke-opacity="1.0"  filling="0" d="M39.572757720947266 16.118152618408203 L39.572757720947266 16.118152618408203 C39.572757720947266 17.32724380493164 39.572757720947266 18.536334991455078 39.572757720947266 19.745426177978516 L39.572757720947266 19.745426177978516 C39.52729415893555 19.74543571472168 39.48182678222656 19.74544334411621 39.436363220214844 19.745452880859375 L39.436363220214844 19.745452880859375 C39.43260955810547 19.182771682739258 39.428855895996094 18.620088577270508 39.42510223388672 18.05740737915039 L39.42510223388672 18.05740737915039 C39.25840377807617 18.05740737915039 39.09170150756836 18.05740737915039 38.92500305175781 18.05740737915039 L38.92500305175781 18.05740737915039 C38.90797805786133 17.758358001708984 38.8914794921875 17.459239959716797 38.890968322753906 17.159671783447266 L38.890968322753906 17.159671783447266 C39.049312591552734 17.159671783447266 39.20765686035156 17.159671783447266 39.36600112915039 17.159671783447266 L39.36600112915039 17.159671783447266 C39.39409255981445 16.84103775024414 39.40801239013672 16.52090072631836 39.409122467041016 16.201034545898438 L39.409122467041016 16.201034545898438 C39.46366882324219 16.17340660095215 39.518211364746094 16.145780563354492 39.572757720947266 16.118152618408203 L39.572757720947266 16.118152618408203"></path></svg>