<svg xmlns="http://www.w3.org/2000/svg" viewBox="0.0 0.0 24.0 24.0" height="200px" width="200px"><path fill="none" stroke="black" stroke-width=".3" stroke-opacity="1.0"  filling="0" d="M-10.827301025390625 4.281763076782227 L-10.827301025390625 4.281763076782227 C-8.418201446533203 4.281805038452148 -6.009100437164307 4.281816482543945 -3.6000003814697266 4.28181791305542 L-3.6000003814697266 4.28181791305542 C-3.331294536590576 5.071977138519287 -3.21158504486084 5.599393367767334 -3.127255439758301 6.397254467010498 L-3.127255439758301 6.397254467010498 C-4.0042948722839355 6.485702037811279 -4.8830389976501465 6.565577983856201 -5.759044647216797 6.66283655166626 L-5.759044647216797 6.66283655166626 C-5.815090179443359 6.2830729484558105 -5.871135711669922 5.903309345245361 -5.927181243896484 5.523545742034912 L-5.927181243896484 5.523545742034912 C-6.806981086730957 5.624851226806641 -7.690189838409424 5.723300933837891 -8.573125839233398 5.788336277008057 L-8.573125839233398 5.788336277008057 C-8.540172576904297 6.174252033233643 -8.508805274963379 6.559858322143555 -8.479907989501953 6.946117877960205 L-8.479907989501953 6.946117877960205 C-9.323680877685547 7.029433250427246 -10.16745376586914 7.112751483917236 -11.011226654052734 7.196072578430176 L-11.011226654052734 7.196072578430176 C-11.12336540222168 6.192376136779785 -10.947837829589844 5.281458377838135 -10.827301025390625 4.281763076782227 L-10.827301025390625 4.281763076782227"></path></svg>