<svg xmlns="http://www.w3.org/2000/svg" viewBox="0.0 0.0 24.0 24.0" height="200px" width="200px"><path fill="none" stroke="black" stroke-width=".3" stroke-opacity="1.0"  filling="0" d="M11.48443603515625 11.736218452453613 L11.48443603515625 11.736218452453613 C11.63038158416748 11.849555015563965 11.776328086853027 11.962891578674316 11.922273635864258 12.076228141784668 L11.922273635864258 12.076228141784668 C11.910100936889648 11.966646194458008 11.897928237915039 11.857064247131348 11.88575553894043 11.747482299804688 L11.88575553894043 11.747482299804688 C11.968210220336914 11.762655258178711 12.050664901733398 11.777828216552734 12.133119583129883 11.793001174926758 L12.133119583129883 11.793001174926758 C12.034680366516113 11.957496643066406 11.974211692810059 12.145905494689941 11.93896484375 12.33433723449707 L11.93896484375 12.33433723449707 C11.833701133728027 12.19511890411377 11.728437423706055 12.055900573730469 11.623173713684082 11.916682243347168 L11.623173713684082 11.916682243347168 C11.614201545715332 11.918991088867188 11.605228424072266 11.921300888061523 11.596256256103516 11.923609733581543 L11.596256256103516 11.923609733581543 C11.60352897644043 12.047390937805176 11.610800743103027 12.171173095703125 11.618073463439941 12.294954299926758 L11.618073463439941 12.294954299926758 C11.576373100280762 12.294954299926758 11.534672737121582 12.294954299926758 11.492972373962402 12.294954299926758 L11.492972373962402 12.294954299926758 C11.490126609802246 12.108709335327148 11.487281799316406 11.922463417053223 11.48443603515625 11.736218452453613 L11.48443603515625 11.736218452453613"></path></svg>