<svg xmlns="http://www.w3.org/2000/svg" viewBox="0.0 0.0 24.0 24.0" height="200px" width="200px"><path fill="none" stroke="black" stroke-width=".3" stroke-opacity="1.0"  filling="0" d="M26.222291946411133 17.210834503173828 L26.222291946411133 17.210834503173828 C27.527782440185547 17.6426944732666 27.325458526611328 18.4703311920166 27.327274322509766 19.745452880859375 L27.327274322509766 19.745452880859375 C26.954545974731445 19.745452880859375 26.581819534301758 19.745452880859375 26.209091186523438 19.745452880859375 L26.209091186523438 19.745452880859375 C26.206707000732422 17.911724090576172 25.56250762939453 17.9427490234375 25.554519653320312 19.745426177978516 L25.554519653320312 19.745426177978516 C25.181800842285156 19.74543571472168 24.80908203125 19.74544334411621 24.436363220214844 19.745452880859375 L24.436363220214844 19.745452880859375 C24.436363220214844 18.93461799621582 24.436363220214844 18.123781204223633 24.436363220214844 17.312946319580078 L24.436363220214844 17.312946319580078 C24.804311752319336 17.28467559814453 25.16899871826172 17.29090690612793 25.5382080078125 17.29090690612793 L25.5382080078125 17.29090690612793 C25.545644760131836 17.427234649658203 25.55307960510254 17.563560485839844 25.560516357421875 17.699888229370117 L25.560516357421875 17.699888229370117 C25.738544464111328 17.491222381591797 25.984344482421875 17.347278594970703 26.222291946411133 17.210834503173828 L26.222291946411133 17.210834503173828"></path></svg>