<svg xmlns="http://www.w3.org/2000/svg" viewBox="0.0 0.0 24.0 24.0" height="200px" width="200px"><path fill="none" stroke="black" stroke-width=".3" stroke-opacity="1.0"  filling="0" d="M11.613628387451172 11.804755210876465 L11.613628387451172 11.804755210876465 C11.707483291625977 11.81518268585205 11.801337242126465 11.82560920715332 11.89519214630127 11.836036682128906 L11.89519214630127 11.836036682128906 C11.824382781982422 11.871918678283691 11.753573417663574 11.90779972076416 11.682764053344727 11.943681716918945 L11.682764053344727 11.943681716918945 C11.735981941223145 11.965863227844238 11.789200782775879 11.988045692443848 11.842418670654297 12.01022720336914 L11.842418670654297 12.01022720336914 C11.76870059967041 12.043854713439941 11.694981575012207 12.077482223510742 11.62126350402832 12.111109733581543 L11.62126350402832 12.111109733581543 C11.684164047241211 12.144209861755371 11.747063636779785 12.177309036254883 11.809964179992676 12.210409164428711 L11.809964179992676 12.210409164428711 C11.694190979003906 12.210409164428711 11.578418731689453 12.210409164428711 11.462645530700684 12.210409164428711 L11.462645530700684 12.210409164428711 C11.512972831726074 12.075191497802734 11.563301086425781 11.939972877502441 11.613628387451172 11.804755210876465 L11.613628387451172 11.804755210876465"></path></svg>