<svg xmlns="http://www.w3.org/2000/svg" viewBox="0.0 0.0 24.0 24.0" height="200px" width="200px"><path fill="none" stroke="black" stroke-width=".3" stroke-opacity="1.0"  filling="0" d="M13.118181228637695 11.645454406738281 L13.118181228637695 11.645454406738281 C13.145454406738281 11.645454406738281 13.17272663116455 11.645454406738281 13.199999809265137 11.645454406738281 L13.199999809265137 11.645454406738281 C13.199999809265137 11.723490715026855 13.199999809265137 11.80152702331543 13.199999809265137 11.879563331604004 L13.199999809265137 11.879563331604004 C13.263636589050293 11.86516284942627 13.327272415161133 11.850763320922852 13.390909194946289 11.836362838745117 L13.390909194946289 11.836362838745117 C13.390909194946289 11.854544639587402 13.390909194946289 11.872726440429688 13.390909194946289 11.890908241271973 L13.390909194946289 11.890908241271973 C13.339436531066895 11.928326606750488 13.33934497833252 12.044525146484375 13.390909194946289 12.081817626953125 L13.390909194946289 12.081817626953125 C13.390909194946289 12.109089851379395 13.390909194946289 12.13636302947998 13.390909194946289 12.16363525390625 L13.390909194946289 12.16363525390625 C13.331254005432129 12.146225929260254 13.271599769592285 12.128817558288574 13.211944580078125 12.111408233642578 L13.211944580078125 12.111408233642578 C13.217053413391113 12.201544761657715 13.222163200378418 12.291680335998535 13.227272033691406 12.381816864013672 L13.227272033691406 12.381816864013672 C13.190908432006836 12.381816864013672 13.154544830322266 12.381817817687988 13.118181228637695 12.381817817687988 L13.118181228637695 12.381817817687988 C13.118181228637695 12.13636302947998 13.118181228637695 11.890909194946289 13.118181228637695 11.645454406738281 L13.118181228637695 11.645454406738281"></path></svg>