<svg xmlns="http://www.w3.org/2000/svg" viewBox="0.0 0.0 24.0 24.0" height="200px" width="200px"><path fill="none" stroke="black" stroke-width=".3" stroke-opacity="1.0"  filling="0" d="M9.132218360900879 11.488390922546387 L9.132218360900879 11.488390922546387 C9.144418716430664 11.489763259887695 9.156618118286133 11.49113655090332 9.168818473815918 11.492508888244629 L9.168818473815918 11.492508888244629 C9.167582511901855 11.624554634094238 9.166345596313477 11.756599426269531 9.165109634399414 11.88864517211914 L9.165109634399414 11.88864517211914 C9.080605506896973 11.843725204467773 9.017550468444824 11.66163444519043 9.097827911376953 11.609535217285156 L9.097827911376953 11.609535217285156 C9.109291076660156 11.569153785705566 9.120755195617676 11.528772354125977 9.132218360900879 11.488390922546387 L9.132218360900879 11.488390922546387"></path>
<path fill="none" stroke="black" stroke-width=".3" stroke-opacity="1.0"  filling="0" d="M9.092672348022461 11.702099800109863 L9.092672348022461 11.702099800109863 C9.06961727142334 11.75523567199707 9.046563148498535 11.808372497558594 9.023508071899414 11.8615083694458 L9.023508071899414 11.8615083694458 C8.999435424804688 11.82079029083252 8.975362777709961 11.780072212219238 8.951290130615234 11.739354133605957 L8.951290130615234 11.739354133605957 C8.998417854309082 11.726936340332031 9.045544624328613 11.714517593383789 9.092672348022461 11.702099800109863 L9.092672348022461 11.702099800109863"></path></svg>