<svg xmlns="http://www.w3.org/2000/svg" viewBox="0.0 0.0 24.0 24.0" height="200px" width="200px"><path fill="none" stroke="black" stroke-width=".3" stroke-opacity="1.0"  filling="0" d="M9.447599411010742 11.648154258728027 L9.447599411010742 11.648154258728027 C9.470145225524902 11.683300018310547 9.492690086364746 11.71844482421875 9.515235900878906 11.75359058380127 L9.515235900878906 11.75359058380127 C9.444499969482422 11.778772354125977 9.373763084411621 11.803954124450684 9.303027153015137 11.82913589477539 L9.303027153015137 11.82913589477539 C9.403178215026855 11.892851829528809 9.531852722167969 11.897910118103027 9.650017738342285 11.909181594848633 L9.650017738342285 11.909181594848633 C9.599740028381348 11.791214942932129 9.616569519042969 11.573498725891113 9.764754295349121 11.752253532409668 L9.764754295349121 11.752253532409668 C9.761336326599121 11.758272171020508 9.757917404174805 11.764290809631348 9.754499435424805 11.770309448242188 L9.754499435424805 11.770309448242188 C9.72147274017334 11.758927345275879 9.688445091247559 11.74754524230957 9.655418395996094 11.736163139343262 L9.655418395996094 11.736163139343262 C9.660881996154785 11.81788158416748 9.666345596313477 11.8996000289917 9.671809196472168 11.981318473815918 L9.671809196472168 11.981318473815918 C9.611363410949707 11.958009719848633 9.550917625427246 11.934700012207031 9.490471839904785 11.911391258239746 L9.490471839904785 11.911391258239746 C9.206336975097656 11.898674964904785 9.165586471557617 11.752936363220215 9.447599411010742 11.648154258728027 L9.447599411010742 11.648154258728027"></path></svg>