<svg xmlns="http://www.w3.org/2000/svg" viewBox="0.0 0.0 24.0 24.0" height="200px" width="200px"><path fill="none" stroke="black" stroke-width=".3" stroke-opacity="1.0"  filling="0" d="M12.079827308654785 11.99661922454834 L12.079827308654785 11.99661922454834 C12.128299713134766 12.002028465270996 12.176773071289062 12.007436752319336 12.225245475769043 12.012845993041992 L12.225245475769043 12.012845993041992 C12.190991401672363 12.009018898010254 12.156736373901367 12.005191802978516 12.122482299804688 12.001364707946777 L12.122482299804688 12.001364707946777 C12.164772987365723 12.075383186340332 12.207063674926758 12.149401664733887 12.249354362487793 12.223420143127441 L12.249354362487793 12.223420143127441 C12.220763206481934 12.2489652633667 12.19217300415039 12.274510383605957 12.163581848144531 12.300055503845215 L12.163581848144531 12.300055503845215 C12.154509544372559 12.300036430358887 12.14543628692627 12.300018310546875 12.136363983154297 12.299999237060547 L12.136363983154297 12.299999237060547 C12.117436408996582 12.271445274353027 12.098509788513184 12.242890357971191 12.079582214355469 12.214336395263672 L12.079582214355469 12.214336395263672 C12.08350944519043 12.209063529968262 12.08743667602539 12.203791618347168 12.091363906860352 12.198518753051758 L12.091363906860352 12.198518753051758 C12.117036819458008 12.214818954467773 12.142708778381348 12.231119155883789 12.168381690979004 12.247419357299805 L12.168381690979004 12.247419357299805 C12.17575454711914 12.24299144744873 12.183127403259277 12.238564491271973 12.190500259399414 12.234136581420898 L12.190500259399414 12.234136581420898 C12.153609275817871 12.154964447021484 12.116718292236328 12.075791358947754 12.079827308654785 11.99661922454834 L12.079827308654785 11.99661922454834"></path></svg>