<svg xmlns="http://www.w3.org/2000/svg" viewBox="0.0 0.0 24.0 24.0" height="200px" width="200px"><path fill="none" stroke="black" stroke-width=".3" stroke-opacity="1.0"  filling="0" d="M10.69764518737793 11.726972579956055 L10.69764518737793 11.726972579956055 C11.026261329650879 11.94601058959961 10.673189163208008 12.007405281066895 10.447635650634766 12.04202651977539 L10.447635650634766 12.04202651977539 C10.421045303344727 12.075854301452637 10.394454002380371 12.109681129455566 10.367863655090332 12.143508911132812 L10.367863655090332 12.143508911132812 C10.357336044311523 12.13710880279541 10.346809387207031 12.130708694458008 10.336281776428223 12.124308586120605 L10.336281776428223 12.124308586120605 C10.389691352844238 11.991981506347656 10.443099975585938 11.859654426574707 10.496509552001953 11.727327346801758 L10.496509552001953 11.727327346801758 C10.563554763793945 11.727209091186523 10.630599975585938 11.727090835571289 10.69764518737793 11.726972579956055 L10.69764518737793 11.726972579956055"></path>
<path fill="none" stroke="black" stroke-width=".3" stroke-opacity="1.0"  filling="0" d="M10.8059720993042 11.8607177734375 L10.8059720993042 11.8607177734375 C10.698945045471191 11.888663291931152 10.591917991638184 11.916609764099121 10.484890937805176 11.944555282592773 L10.484890937805176 11.944555282592773 C10.591917991638184 11.916609764099121 10.698945045471191 11.888663291931152 10.8059720993042 11.8607177734375 L10.8059720993042 11.8607177734375"></path></svg>