<svg xmlns="http://www.w3.org/2000/svg" viewBox="0.0 0.0 24.0 24.0" height="200px" width="200px"><path fill="none" stroke="black" stroke-width=".3" stroke-opacity="1.0"  filling="0" d="M9.136363983154297 11.727272987365723 L9.136363983154297 11.727272987365723 C9.163636207580566 11.727272987365723 9.190909385681152 11.727272987365723 9.218181610107422 11.727272987365723 L9.218181610107422 11.727272987365723 C9.221245765686035 11.766436576843262 9.224308967590332 11.8056001663208 9.227373123168945 11.84476375579834 L9.227373123168945 11.84476375579834 C9.300918579101562 11.833182334899902 9.37446403503418 11.821599960327148 9.448009490966797 11.810018539428711 L9.448009490966797 11.810018539428711 C9.370362281799316 11.853581428527832 9.29093074798584 11.94222640991211 9.297954559326172 12.03098201751709 L9.297954559326172 12.03098201751709 C9.358282089233398 12.023955345153809 9.418608665466309 12.016927719116211 9.478936195373535 12.00990104675293 L9.478936195373535 12.00990104675293 C9.393117904663086 12.025873184204102 9.307300567626953 12.04184627532959 9.221482276916504 12.057818412780762 L9.221482276916504 12.057818412780762 C9.229473114013672 12.138554573059082 9.23746395111084 12.219290733337402 9.245454788208008 12.300026893615723 L9.245454788208008 12.300026893615723 C9.218182563781738 12.300017356872559 9.190909385681152 12.300008773803711 9.163637161254883 12.299999237060547 L9.163637161254883 12.299999237060547 C9.155896186828613 12.109030723571777 9.146259307861328 11.91814136505127 9.136363983154297 11.727272987365723 L9.136363983154297 11.727272987365723"></path></svg>