<svg xmlns="http://www.w3.org/2000/svg" viewBox="0.0 0.0 24.0 24.0" height="200px" width="200px"><path fill="none" stroke="black" stroke-width=".3" stroke-opacity="1.0"  filling="0" d="M15.561300277709961 12.066436767578125 L15.561300277709961 12.066436767578125 C15.571245193481445 12.066673278808594 15.581191062927246 12.066908836364746 15.59113597869873 12.067145347595215 L15.59113597869873 12.067145347595215 C15.5978364944458 12.123917579650879 15.604536056518555 12.18069076538086 15.611236572265625 12.237462997436523 L15.611236572265625 12.237462997436523 C15.643855094909668 12.212854385375977 15.676472663879395 12.188244819641113 15.709091186523438 12.163636207580566 L15.709091186523438 12.163636207580566 C15.709091186523438 12.218181610107422 15.709091186523438 12.272727012634277 15.709091186523438 12.327272415161133 L15.709091186523438 12.327272415161133 C15.680127143859863 12.311354637145996 15.651163101196289 12.295435905456543 15.622199058532715 12.279518127441406 L15.622199058532715 12.279518127441406 C15.601553916931152 12.315963745117188 15.58090877532959 12.352408409118652 15.560263633728027 12.388854026794434 L15.560263633728027 12.388854026794434 C15.545363426208496 12.383881568908691 15.530463218688965 12.378908157348633 15.515563011169434 12.37393569946289 L15.515563011169434 12.37393569946289 C15.530808448791504 12.271435737609863 15.54605484008789 12.168936729431152 15.561300277709961 12.066436767578125 L15.561300277709961 12.066436767578125"></path></svg>