<svg xmlns="http://www.w3.org/2000/svg" viewBox="0.0 0.0 24.0 24.0" height="200px" width="200px"><path fill="none" stroke="black" stroke-width=".3" stroke-opacity="1.0"  filling="0" d="M8.452255249023438 12.175772666931152 L8.452255249023438 12.175772666931152 C8.7152099609375 12.222784042358398 8.775857925415039 12.181014060974121 8.781081199645996 12.430855751037598 L8.781081199645996 12.430855751037598 C8.768272399902344 12.432374000549316 8.755463600158691 12.433891296386719 8.742654800415039 12.435409545898438 L8.742654800415039 12.435409545898438 C8.733635902404785 12.383164405822754 8.724617958068848 12.330918312072754 8.715599060058594 12.27867317199707 L8.715599060058594 12.27867317199707 C8.679317474365234 12.329873085021973 8.643035888671875 12.381072998046875 8.606754302978516 12.432272911071777 L8.606754302978516 12.432272911071777 C8.59743595123291 12.381354331970215 8.588118553161621 12.330436706542969 8.578800201416016 12.279518127441406 L8.578800201416016 12.279518127441406 C8.540054321289062 12.320981979370117 8.501309394836426 12.362444877624512 8.462563514709473 12.403908729553223 L8.462563514709473 12.403908729553223 C8.450154304504395 12.402899742126465 8.437746047973633 12.401890754699707 8.425336837768555 12.40088176727295 L8.425336837768555 12.40088176727295 C8.434309959411621 12.325845718383789 8.443282127380371 12.250808715820312 8.452255249023438 12.175772666931152 L8.452255249023438 12.175772666931152"></path></svg>