<svg xmlns="http://www.w3.org/2000/svg" viewBox="0.0 0.0 24.0 24.0" height="200px" width="200px"><path fill="none" stroke="black" stroke-width=".3" stroke-opacity="1.0"  filling="0" d="M14.957128524780273 12.030137062072754 L14.957128524780273 12.030137062072754 C14.965873718261719 12.070245742797852 14.974618911743164 12.110355377197266 14.98336410522461 12.150464057922363 L14.98336410522461 12.150464057922363 C15.021255493164062 12.226364135742188 15.0591459274292 12.302263259887695 15.097037315368652 12.37816333770752 L15.097037315368652 12.37816333770752 C15.040728569030762 12.37816333770752 14.984418869018555 12.37816333770752 14.928110122680664 12.37816333770752 L14.928110122680664 12.37816333770752 C14.928110122680664 12.263627052307129 14.928110122680664 12.149090766906738 14.928110122680664 12.034554481506348 L14.928110122680664 12.034554481506348 C14.937783241271973 12.033082008361816 14.947455406188965 12.031609535217285 14.957128524780273 12.030137062072754 L14.957128524780273 12.030137062072754"></path>
<path fill="none" stroke="black" stroke-width=".3" stroke-opacity="1.0"  filling="0" d="M14.978155136108398 12.224809646606445 L14.978155136108398 12.224809646606445 C15.020472526550293 12.224809646606445 15.062790870666504 12.224809646606445 15.105108261108398 12.224809646606445 L15.105108261108398 12.224809646606445 C15.062790870666504 12.256909370422363 15.020472526550293 12.289010047912598 14.978155136108398 12.321109771728516 L14.978155136108398 12.321109771728516 C14.978155136108398 12.289010047912598 14.978155136108398 12.256909370422363 14.978155136108398 12.224809646606445 L14.978155136108398 12.224809646606445"></path></svg>