<svg xmlns="http://www.w3.org/2000/svg" viewBox="0.0 0.0 24.0 24.0" height="200px" width="200px"><path fill="none" stroke="black" stroke-width=".3" stroke-opacity="1.0"  filling="0" d="M12.904827117919922 11.998363494873047 L12.904827117919922 11.998363494873047 C12.88796329498291 12.033154487609863 12.871099472045898 12.067944526672363 12.854235649108887 12.10273551940918 L12.854235649108887 12.10273551940918 C12.901357650756836 12.10525131225586 12.93447494506836 12.046634674072266 12.956618309020996 12.004962921142578 L12.956618309020996 12.004962921142578 C12.985464096069336 12.020090103149414 13.01430892944336 12.03521728515625 13.0431547164917 12.050344467163086 L13.0431547164917 12.050344467163086 C13.043899536132812 12.061989784240723 13.044645309448242 12.073636054992676 13.045390129089355 12.085281372070312 L13.045390129089355 12.085281372070312 C12.990717887878418 12.112499237060547 12.936044692993164 12.139718055725098 12.881372451782227 12.166935920715332 L12.881372451782227 12.166935920715332 C12.884090423583984 12.175544738769531 12.886809349060059 12.184154510498047 12.889527320861816 12.192763328552246 L12.889527320861816 12.192763328552246 C12.945236206054688 12.184463500976562 13.000945091247559 12.176163673400879 13.05665397644043 12.167863845825195 L13.05665397644043 12.167863845825195 C13.017163276672363 12.20280933380127 12.977672576904297 12.237753868103027 12.93818187713623 12.272699356079102 L12.93818187713623 12.272699356079102 C12.877121925354004 12.203723907470703 12.855947494506836 12.076444625854492 12.904827117919922 11.998363494873047 L12.904827117919922 11.998363494873047"></path></svg>