<svg xmlns="http://www.w3.org/2000/svg" viewBox="0.0 0.0 24.0 24.0" height="200px" width="200px"><path fill="none" stroke="black" stroke-width=".3" stroke-opacity="1.0"  filling="0" d="M13.96360969543457 11.481818199157715 L13.96360969543457 11.481818199157715 C14.02724552154541 11.481818199157715 14.090882301330566 11.481818199157715 14.154518127441406 11.481818199157715 L14.154518127441406 11.481818199157715 C14.12999153137207 11.532145500183105 14.105463981628418 11.582472801208496 14.080937385559082 11.632800102233887 L14.080937385559082 11.632800102233887 C14.123645782470703 11.619527816772461 14.16635513305664 11.606254577636719 14.209063529968262 11.592982292175293 L14.209063529968262 11.592982292175293 C14.209063529968262 11.555928230285645 14.209063529968262 11.51887321472168 14.209063529968262 11.481819152832031 L14.209063529968262 11.481819152832031 C14.263618469238281 11.481819152832031 14.318172454833984 11.481818199157715 14.372727394104004 11.481818199157715 L14.372727394104004 11.481818199157715 C14.362979888916016 11.561665534973145 14.30068588256836 11.625988960266113 14.25747299194336 11.693836212158203 L14.25747299194336 11.693836212158203 C14.231328010559082 11.677154541015625 14.205182075500488 11.66047191619873 14.179037094116211 11.643790245056152 L14.179037094116211 11.643790245056152 C14.154900550842285 11.66164493560791 14.13076400756836 11.679499626159668 14.106627464294434 11.697354316711426 L14.106627464294434 11.697354316711426 C14.058955192565918 11.625509262084961 14.011281967163086 11.55366325378418 13.96360969543457 11.481818199157715 L13.96360969543457 11.481818199157715"></path></svg>