<svg xmlns="http://www.w3.org/2000/svg" viewBox="0.0 0.0 24.0 24.0" height="200px" width="200px"><path fill="none" stroke="black" stroke-width=".3" stroke-opacity="1.0"  filling="0" d="M12.383400917053223 11.990591049194336 L12.383400917053223 11.990591049194336 C12.434691429138184 12.031036376953125 12.485981941223145 12.071481704711914 12.537272453308105 12.111927032470703 L12.537272453308105 12.111927032470703 C12.480302810668945 12.150251388549805 12.381305694580078 12.140752792358398 12.332181930541992 12.092782020568848 L12.332181930541992 12.092782020568848 C12.361882209777832 12.107064247131348 12.391581535339355 12.121345520019531 12.421281814575195 12.135627746582031 L12.421281814575195 12.135627746582031 C12.42780876159668 12.127955436706543 12.43433666229248 12.120282173156738 12.440863609313965 12.11260986328125 L12.440863609313965 12.11260986328125 C12.400336265563965 12.086255073547363 12.359807968139648 12.059901237487793 12.319280624389648 12.033546447753906 L12.319280624389648 12.033546447753906 C12.386871337890625 12.019237518310547 12.454463005065918 12.004928588867188 12.522053718566895 11.990619659423828 L12.522053718566895 11.990619659423828 C12.475835800170898 11.990610122680664 12.429618835449219 11.9906005859375 12.383400917053223 11.990591049194336 L12.383400917053223 11.990591049194336"></path></svg>