<svg xmlns="http://www.w3.org/2000/svg" viewBox="0.0 0.0 24.0 24.0" height="200px" width="200px"><path fill="none" stroke="black" stroke-width=".3" stroke-opacity="1.0"  filling="0" d="M8.53636360168457 11.481818199157715 L8.53636360168457 11.481818199157715 C8.53636360168457 11.533554077148438 8.53636360168457 11.585290908813477 8.53636360168457 11.6370267868042 L8.53636360168457 11.6370267868042 C8.757707595825195 11.774846076965332 8.695515632629395 11.81583023071289 8.449199676513672 11.846100807189941 L8.449199676513672 11.846100807189941 C8.46007251739502 11.724682807922363 8.470945358276367 11.603263854980469 8.481818199157715 11.48184585571289 L8.481818199157715 11.48184585571289 C8.5 11.481836318969727 8.518181800842285 11.481827735900879 8.53636360168457 11.481818199157715 L8.53636360168457 11.481818199157715"></path>
<path fill="none" stroke="black" stroke-width=".3" stroke-opacity="1.0"  filling="0" d="M8.581063270568848 11.68974494934082 L8.581063270568848 11.68974494934082 C8.591236114501953 11.69704532623291 8.601408958435059 11.704345703125 8.611581802368164 11.71164608001709 L8.611581802368164 11.71164608001709 C8.611590385437012 11.755864143371582 8.611599922180176 11.800081253051758 8.611608505249023 11.84429931640625 L8.611608505249023 11.84429931640625 C8.570572853088379 11.828835487365723 8.529536247253418 11.813372611999512 8.488500595092773 11.797908782958984 L8.488500595092773 11.797908782958984 C8.519354820251465 11.76185417175293 8.550209045410156 11.725799560546875 8.581063270568848 11.68974494934082 L8.581063270568848 11.68974494934082"></path></svg>