<svg xmlns="http://www.w3.org/2000/svg" viewBox="0.0 0.0 24.0 24.0" height="200px" width="200px"><path fill="none" stroke="black" stroke-width=".3" stroke-opacity="1.0"  filling="0" d="M10.318717956542969 11.947172164916992 L10.318717956542969 11.947172164916992 C10.330945014953613 11.948299407958984 10.343173027038574 11.949427604675293 10.355400085449219 11.950554847717285 L10.355400085449219 11.950554847717285 C10.360963821411133 12.014328002929688 10.36652660369873 12.07810115814209 10.372090339660645 12.141874313354492 L10.372090339660645 12.141874313354492 C10.410799980163574 12.123046875 10.449508666992188 12.104218482971191 10.488218307495117 12.0853910446167 L10.488218307495117 12.0853910446167 C10.490854263305664 12.0413818359375 10.493491172790527 11.9973726272583 10.496127128601074 11.953363418579102 L10.496127128601074 11.953363418579102 C10.50623607635498 12.036399841308594 10.516345977783203 12.119436264038086 10.52645492553711 12.202472686767578 L10.52645492553711 12.202472686767578 C10.441045761108398 12.188117980957031 10.355635643005371 12.173763275146484 10.27022647857666 12.159408569335938 L10.27022647857666 12.159408569335938 C10.28639030456543 12.088663101196289 10.3025541305542 12.01791763305664 10.318717956542969 11.947172164916992 L10.318717956542969 11.947172164916992"></path></svg>