<svg xmlns="http://www.w3.org/2000/svg" viewBox="0.0 0.0 24.0 24.0" height="200px" width="200px"><path fill="none" stroke="black" stroke-width=".3" stroke-opacity="1.0"  filling="0" d="M10.867582321166992 11.922709465026855 L10.867582321166992 11.922709465026855 C10.879045486450195 11.923054695129395 10.890509605407715 11.923399925231934 10.901972770690918 11.923745155334473 L10.901972770690918 11.923745155334473 C10.906745910644531 11.987227439880371 10.911518096923828 12.050708770751953 10.916291236877441 12.114191055297852 L10.916291236877441 12.114191055297852 C10.957018852233887 12.101554870605469 10.997745513916016 12.088918685913086 11.038473129272461 12.076282501220703 L11.038473129272461 12.076282501220703 C11.043691635131836 12.02510929107666 11.048909187316895 11.973937034606934 11.05412769317627 11.92276382446289 L11.05412769317627 11.92276382446289 C11.067154884338379 12.001954078674316 11.080183029174805 12.081145286560059 11.093210220336914 12.160335540771484 L11.093210220336914 12.160335540771484 C11.018000602722168 12.155180931091309 10.942791938781738 12.15002727508545 10.867582321166992 12.144872665405273 L10.867582321166992 12.144872665405273 C10.867582321166992 12.070817947387695 10.867582321166992 11.996764183044434 10.867582321166992 11.922709465026855 L10.867582321166992 11.922709465026855"></path></svg>