<svg xmlns="http://www.w3.org/2000/svg" viewBox="0.0 0.0 24.0 24.0" height="200px" width="200px"><path fill="none" stroke="black" stroke-width=".3" stroke-opacity="1.0"  filling="0" d="M11.454873085021973 11.923526763916016 L11.454873085021973 11.923526763916016 C11.489214897155762 12.012486457824707 11.440925598144531 12.15158748626709 11.35423755645752 12.191317558288574 L11.35423755645752 12.191317558288574 C11.342219352722168 12.22753620147705 11.3302001953125 12.263753890991211 11.318181991577148 12.299972534179688 L11.318181991577148 12.299972534179688 C11.300000190734863 12.299981117248535 11.281818389892578 12.2999906539917 11.263636589050293 12.299999237060547 L11.263636589050293 12.299999237060547 C11.266509056091309 12.178081512451172 11.26938247680664 12.05616283416748 11.272254943847656 11.934245109558105 L11.272254943847656 11.934245109558105 C11.333127975463867 11.930672645568848 11.394000053405762 11.927099227905273 11.454873085021973 11.923526763916016 L11.454873085021973 11.923526763916016"></path>
<path fill="none" stroke="black" stroke-width=".3" stroke-opacity="1.0"  filling="0" d="M11.420673370361328 11.940600395202637 L11.420673370361328 11.940600395202637 C11.446813583374023 11.990081787109375 11.449254989624023 12.070286750793457 11.407909393310547 12.107999801635742 L11.407909393310547 12.107999801635742 C11.373456954956055 12.0639009475708 11.38748836517334 11.985661506652832 11.420673370361328 11.940600395202637 L11.420673370361328 11.940600395202637"></path></svg>