<svg xmlns="http://www.w3.org/2000/svg" viewBox="0.0 0.0 24.0 24.0" height="200px" width="200px"><path fill="none" stroke="black" stroke-width=".3" stroke-opacity="1.0"  filling="0" d="M11.568573951721191 11.657646179199219 L11.568573951721191 11.657646179199219 C11.605491638183594 11.818282127380371 11.642409324645996 11.97891902923584 11.679327011108398 12.139554977416992 L11.679327011108398 12.139554977416992 C11.636272430419922 12.128236770629883 11.593218803405762 12.116918563842773 11.550164222717285 12.105600357055664 L11.550164222717285 12.105600357055664 C11.542181968688965 12.144954681396484 11.534200668334961 12.184309959411621 11.52621841430664 12.223664283752441 L11.52621841430664 12.223664283752441 C11.518200874328613 12.222637176513672 11.51018238067627 12.221609115600586 11.502164840698242 12.220582008361816 L11.502164840698242 12.220582008361816 C11.524301528930664 12.032937049865723 11.54643726348877 11.845291137695312 11.568573951721191 11.657646179199219 L11.568573951721191 11.657646179199219"></path>
<path fill="none" stroke="black" stroke-width=".3" stroke-opacity="1.0"  filling="0" d="M11.59265422821045 11.754109382629395 L11.59265422821045 11.754109382629395 C11.656244277954102 11.837357521057129 11.638814926147461 12.00060749053955 11.557281494140625 12.06638240814209 L11.557281494140625 12.06638240814209 C11.569072723388672 11.962291717529297 11.580862998962402 11.858200073242188 11.59265422821045 11.754109382629395 L11.59265422821045 11.754109382629395"></path></svg>