<svg xmlns="http://www.w3.org/2000/svg" viewBox="0.0 0.0 24.0 24.0" height="200px" width="200px"><path fill="none" stroke="black" stroke-width=".3" stroke-opacity="1.0"  filling="0" d="M11.86396312713623 11.836746215820312 L11.86396312713623 11.836746215820312 C11.97724723815918 11.836746215820312 12.089725494384766 11.897237777709961 12.201327323913574 11.877790451049805 L12.201327323913574 11.877790451049805 C12.083854675292969 12.128227233886719 11.966381072998047 12.378664016723633 11.848908424377441 12.629100799560547 L11.848908424377441 12.629100799560547 C11.806381225585938 12.61865520477295 11.763854026794434 12.608209609985352 11.72132682800293 12.597764015197754 L11.72132682800293 12.597764015197754 C11.760436058044434 12.502408981323242 11.799544334411621 12.407054901123047 11.838653564453125 12.311699867248535 L11.838653564453125 12.311699867248535 C11.30035400390625 12.5179443359375 11.65987491607666 11.982726097106934 11.86396312713623 11.836746215820312 L11.86396312713623 11.836746215820312"></path>
<path fill="none" stroke="black" stroke-width=".3" stroke-opacity="1.0"  filling="0" d="M11.785418510437012 11.965717315673828 L11.785418510437012 11.965717315673828 C11.861245155334473 11.979598999023438 11.93707275390625 11.993481636047363 12.012899398803711 12.007363319396973 L12.012899398803711 12.007363319396973 C11.848184585571289 12.216182708740234 11.510740280151367 12.411073684692383 11.785418510437012 11.965717315673828 L11.785418510437012 11.965717315673828"></path></svg>