<svg xmlns="http://www.w3.org/2000/svg" viewBox="0.0 0.0 24.0 24.0" height="200px" width="200px"><path fill="none" stroke="black" stroke-width=".3" stroke-opacity="1.0"  filling="0" d="M12.793853759765625 11.865981101989746 L12.793853759765625 11.865981101989746 C12.75259017944336 11.99850845336914 12.711326599121094 12.131036758422852 12.670063018798828 12.263564109802246 L12.670063018798828 12.263564109802246 C12.689526557922363 12.2711181640625 12.708990097045898 12.27867317199707 12.728453636169434 12.286227226257324 L12.728453636169434 12.286227226257324 C12.660344123840332 12.29191780090332 12.592235565185547 12.297609329223633 12.524126052856445 12.303299903869629 L12.524126052856445 12.303299903869629 C12.157622337341309 12.409849166870117 12.221404075622559 12.231809616088867 12.359508514404297 11.963619232177734 L12.359508514404297 11.963619232177734 C12.333145141601562 11.95284652709961 12.306780815124512 11.942072868347168 12.280417442321777 11.931300163269043 L12.280417442321777 11.931300163269043 C12.363435745239258 11.92532730102539 12.446454048156738 11.919355392456055 12.529472351074219 11.913382530212402 L12.529472351074219 11.913382530212402 C12.471817970275879 12.019609451293945 12.414162635803223 12.125837326049805 12.356508255004883 12.232064247131348 L12.356508255004883 12.232064247131348 C12.367244720458984 12.243208885192871 12.377981185913086 12.254354476928711 12.388717651367188 12.265499114990234 L12.388717651367188 12.265499114990234 C12.481881141662598 12.173981666564941 12.575044631958008 12.082463264465332 12.668208122253418 11.990945816040039 L12.668208122253418 11.990945816040039 C12.642334938049316 11.980436325073242 12.616462707519531 11.969927787780762 12.59058952331543 11.959418296813965 L12.59058952331543 11.959418296813965 C12.5938081741333 11.949273109436035 12.597025871276855 11.939126968383789 12.600244522094727 11.92898178100586 L12.600244522094727 11.92898178100586 C12.664780616760254 11.907981872558594 12.729317665100098 11.886981010437012 12.793853759765625 11.865981101989746 L12.793853759765625 11.865981101989746"></path></svg>