<svg xmlns="http://www.w3.org/2000/svg" viewBox="0.0 0.0 24.0 24.0" height="200px" width="200px"><path fill="none" stroke="black" stroke-width=".3" stroke-opacity="1.0"  filling="0" d="M12.790936470031738 11.590936660766602 L12.790936470031738 11.590936660766602 C12.809118270874023 11.590936660766602 12.827300071716309 11.590936660766602 12.845481872558594 11.590936660766602 L12.845481872558594 11.590936660766602 C12.842302322387695 11.779702186584473 12.886504173278809 11.966835021972656 12.92432689666748 12.151800155639648 L12.92432689666748 12.151800155639648 C13.029606819152832 12.060065269470215 13.119239807128906 11.950288772583008 13.200026512145996 11.83639144897461 L13.200026512145996 11.83639144897461 C13.200026512145996 11.90911865234375 13.200026512145996 11.98184585571289 13.200026512145996 12.054573059082031 L13.200026512145996 12.054573059082031 C13.146371841430664 12.100027084350586 13.092717170715332 12.145482063293457 13.0390625 12.190936088562012 L13.0390625 12.190936088562012 C13.092717170715332 12.190936088562012 13.146371841430664 12.190936088562012 13.200026512145996 12.190936088562012 L13.200026512145996 12.190936088562012 C13.200017929077148 12.200017929077148 13.200008392333984 12.209099769592285 13.199999809265137 12.218181610107422 L13.199999809265137 12.218181610107422 C13.06086540222168 12.282541275024414 12.921150207519531 12.348211288452148 12.774300575256348 12.39220905303955 L12.774300575256348 12.39220905303955 C12.767436981201172 12.248327255249023 12.760573387145996 12.104446411132812 12.75370979309082 11.960564613342285 L12.75370979309082 11.960564613342285 C12.766119003295898 11.967101097106934 12.77852725982666 11.973636627197266 12.790936470031738 11.980173110961914 L12.790936470031738 11.980173110961914 C12.790936470031738 11.850427627563477 12.790936470031738 11.720682144165039 12.790936470031738 11.590936660766602 L12.790936470031738 11.590936660766602"></path></svg>