<svg xmlns="http://www.w3.org/2000/svg" viewBox="0.0 0.0 24.0 24.0" height="200px" width="200px"><path fill="none" stroke="black" stroke-width=".3" stroke-opacity="1.0"  filling="0" d="M12.604146003723145 11.7947998046875 L12.604146003723145 11.7947998046875 C12.613837242126465 11.796835899353027 12.623527526855469 11.798872947692871 12.633218765258789 11.800909042358398 L12.633218765258789 11.800909042358398 C12.60855484008789 11.966963768005371 12.583890914916992 12.133017539978027 12.559226989746094 12.299072265625 L12.559226989746094 12.299072265625 C12.543124198913574 12.2036714553833 12.459872245788574 12.13096809387207 12.392671585083008 12.061363220214844 L12.392671585083008 12.061363220214844 C12.384808540344238 12.08974552154541 12.376944541931152 12.11812686920166 12.369081497192383 12.146509170532227 L12.369081497192383 12.146509170532227 C12.361881256103516 12.145063400268555 12.354681968688965 12.1436185836792 12.347481727600098 12.142172813415527 L12.347481727600098 12.142172813415527 C12.360817909240723 12.046917915344238 12.374155044555664 11.951663970947266 12.387491226196289 11.856409072875977 L12.387491226196289 11.856409072875977 C12.393009185791016 11.85659122467041 12.398527145385742 11.856772422790527 12.404045104980469 11.856954574584961 L12.404045104980469 11.856954574584961 C12.407835960388184 11.906427383422852 12.411626815795898 11.955899238586426 12.415417671203613 12.005372047424316 L12.415417671203613 12.005372047424316 C12.46214485168457 11.993762969970703 12.508872985839844 11.98215389251709 12.5556001663208 11.970544815063477 L12.5556001663208 11.970544815063477 C12.571782112121582 11.91196346282959 12.587964057922363 11.853381156921387 12.604146003723145 11.7947998046875 L12.604146003723145 11.7947998046875"></path></svg>