<svg xmlns="http://www.w3.org/2000/svg" viewBox="0.0 0.0 24.0 24.0" height="200px" width="200px"><path fill="none" stroke="black" stroke-width=".3" stroke-opacity="1.0"  filling="0" d="M12.300872802734375 12.043499946594238 L12.300872802734375 12.043499946594238 C12.357181549072266 12.058145523071289 12.413490295410156 12.07279109954834 12.469799041748047 12.08743667602539 L12.469799041748047 12.08743667602539 C12.435635566711426 12.118791580200195 12.401472091674805 12.150145530700684 12.367308616638184 12.181500434875488 L12.367308616638184 12.181500434875488 C12.369226455688477 12.188282012939453 12.371145248413086 12.195063591003418 12.373063087463379 12.201845169067383 L12.373063087463379 12.201845169067383 C12.414336204528809 12.18799114227295 12.455608367919922 12.1741361618042 12.496881484985352 12.160282135009766 L12.496881484985352 12.160282135009766 C12.485799789428711 12.18867301940918 12.47471809387207 12.217063903808594 12.46363639831543 12.245454788208008 L12.46363639831543 12.245454788208008 C12.418181419372559 12.245454788208008 12.372727394104004 12.245454788208008 12.327272415161133 12.245454788208008 L12.327272415161133 12.245454788208008 C12.28925895690918 12.189203262329102 12.299467086791992 12.111376762390137 12.300872802734375 12.043499946594238 L12.300872802734375 12.043499946594238"></path></svg>