<svg xmlns="http://www.w3.org/2000/svg" viewBox="0.0 0.0 24.0 24.0" height="200px" width="200px"><path fill="none" stroke="black" stroke-width=".3" stroke-opacity="1.0"  filling="0" d="M11.824501037597656 11.758527755737305 L11.824501037597656 11.758527755737305 C11.88825511932373 11.758527755737305 11.952010154724121 11.758527755737305 12.015764236450195 11.758527755737305 L12.015764236450195 11.758527755737305 C12.026691436767578 11.807609558105469 12.037618637084961 11.856690406799316 12.048545837402344 11.90577220916748 L12.048545837402344 11.90577220916748 C12.038599967956543 11.911327362060547 12.028655052185059 11.916881561279297 12.018709182739258 11.922436714172363 L12.018709182739258 11.922436714172363 C11.991518020629883 11.880890846252441 11.964327812194824 11.839345932006836 11.93713665008545 11.797800064086914 L11.93713665008545 11.797800064086914 C11.914400100708008 11.821218490600586 11.891663551330566 11.844635963439941 11.868927001953125 11.868054389953613 L11.868927001953125 11.868054389953613 C12.11055850982666 12.073481559753418 11.910791397094727 12.139333724975586 11.680364608764648 12.102354049682617 L11.680364608764648 12.102354049682617 C11.6669282913208 12.047608375549316 11.653491973876953 11.992863655090332 11.640055656433105 11.938117980957031 L11.640055656433105 11.938117980957031 C11.72803783416748 11.995390892028809 11.816019058227539 12.05266284942627 11.904001235961914 12.109935760498047 L11.904001235961914 12.109935760498047 C11.85058307647705 12.034127235412598 11.797164916992188 11.958317756652832 11.743746757507324 11.882509231567383 L11.743746757507324 11.882509231567383 C11.770665168762207 11.841181755065918 11.797582626342773 11.79985523223877 11.824501037597656 11.758527755737305 L11.824501037597656 11.758527755737305"></path></svg>