<svg xmlns="http://www.w3.org/2000/svg" viewBox="0.0 0.0 24.0 24.0" height="200px" width="200px"><path fill="none" stroke="black" stroke-width=".3" stroke-opacity="1.0"  filling="0" d="M12.273027420043945 11.795454978942871 L12.273027420043945 11.795454978942871 C12.377057075500488 12.079312324523926 12.205626487731934 12.244816780090332 11.893718719482422 12.167673110961914 L11.893718719482422 12.167673110961914 C11.956884384155273 12.00217342376709 12.096404075622559 11.80903434753418 12.273027420043945 11.795454978942871 L12.273027420043945 11.795454978942871"></path>
<path fill="none" stroke="black" stroke-width=".3" stroke-opacity="1.0"  filling="0" d="M12.123218536376953 11.826900482177734 L12.123218536376953 11.826900482177734 C12.17419147491455 11.852982521057129 12.225163459777832 11.879063606262207 12.27613639831543 11.905145645141602 L12.27613639831543 11.905145645141602 C12.273490905761719 11.914754867553711 12.270845413208008 11.92436408996582 12.268199920654297 11.93397331237793 L12.268199920654297 11.93397331237793 C12.206945419311523 11.93397331237793 12.14569091796875 11.93397331237793 12.084436416625977 11.93397331237793 L12.084436416625977 11.93397331237793 C12.097363471984863 11.898282051086426 12.110291481018066 11.862591743469238 12.123218536376953 11.826900482177734 L12.123218536376953 11.826900482177734"></path>
<path fill="none" stroke="black" stroke-width=".3" stroke-opacity="1.0"  filling="0" d="M12.037117958068848 12.035808563232422 L12.037117958068848 12.035808563232422 C12.096763610839844 12.067771911621094 12.15640926361084 12.099736213684082 12.216054916381836 12.131699562072754 L12.216054916381836 12.131699562072754 C12.147163391113281 12.12160873413086 12.078272819519043 12.111517906188965 12.009381294250488 12.10142707824707 L12.009381294250488 12.10142707824707 C12.018627166748047 12.079554557800293 12.027872085571289 12.0576810836792 12.037117958068848 12.035808563232422 L12.037117958068848 12.035808563232422"></path></svg>