<svg xmlns="http://www.w3.org/2000/svg" viewBox="0.0 0.0 24.0 24.0" height="200px" width="200px"><path fill="none" stroke="black" stroke-width=".3" stroke-opacity="1.0"  filling="0" d="M11.413201332092285 11.596908569335938 L11.413201332092285 11.596908569335938 C11.437737464904785 11.666617393493652 11.462274551391602 11.736327171325684 11.486810684204102 11.806035995483398 L11.486810684204102 11.806035995483398 C11.434664726257324 11.772181510925293 11.382519721984863 11.738327026367188 11.330373764038086 11.704472541809082 L11.330373764038086 11.704472541809082 C11.32906436920166 11.83654499053955 11.327754974365234 11.968618392944336 11.326445579528809 12.100690841674805 L11.326445579528809 12.100690841674805 C11.354391098022461 12.084972381591797 11.382336616516113 12.069254875183105 11.410282135009766 12.053536415100098 L11.410282135009766 12.053536415100098 C11.417509078979492 12.062018394470215 11.424736976623535 12.070499420166016 11.431963920593262 12.078981399536133 L11.431963920593262 12.078981399536133 C11.393263816833496 12.115126609802246 11.354564666748047 12.151272773742676 11.315864562988281 12.187417984008789 L11.315864562988281 12.187417984008789 C11.230810165405273 12.006965637207031 11.269322395324707 11.73509693145752 11.413201332092285 11.596908569335938 L11.413201332092285 11.596908569335938"></path></svg>