<svg xmlns="http://www.w3.org/2000/svg" viewBox="0.0 0.0 24.0 24.0" height="200px" width="200px"><path fill="none" stroke="black" stroke-width=".3" stroke-opacity="1.0"  filling="0" d="M11.863636016845703 11.862027168273926 L11.863636016845703 11.862027168273926 C11.925317764282227 11.933135986328125 11.987000465393066 12.00424575805664 12.04868221282959 12.07535457611084 L12.04868221282959 12.07535457611084 C11.950582504272461 12.08116340637207 11.852482795715332 12.086973190307617 11.754383087158203 12.092782020568848 L11.754383087158203 12.092782020568848 C11.848401069641113 12.11919116973877 11.942418098449707 12.145599365234375 12.036436080932617 12.172008514404297 L12.036436080932617 12.172008514404297 C11.667109489440918 12.278595924377441 11.53244400024414 12.095118522644043 11.863636016845703 11.862027168273926 L11.863636016845703 11.862027168273926"></path>
<path fill="none" stroke="black" stroke-width=".3" stroke-opacity="1.0"  filling="0" d="M11.839200019836426 11.934408187866211 L11.839200019836426 11.934408187866211 C11.874554634094238 11.947589874267578 11.909908294677734 11.960772514343262 11.945262908935547 11.973954200744629 L11.945262908935547 11.973954200744629 C11.943126678466797 11.985363006591797 11.940990447998047 11.996772766113281 11.938854217529297 12.00818157196045 L11.938854217529297 12.00818157196045 C11.890536308288574 12.01524543762207 11.842217445373535 12.022308349609375 11.793899536132812 12.029372215270996 L11.793899536132812 12.029372215270996 C11.787663459777832 12.019881248474121 11.781426429748535 12.01038932800293 11.775190353393555 12.000898361206055 L11.775190353393555 12.000898361206055 C11.796526908874512 11.978734970092773 11.817863464355469 11.956571578979492 11.839200019836426 11.934408187866211 L11.839200019836426 11.934408187866211"></path></svg>