<svg xmlns="http://www.w3.org/2000/svg" viewBox="0.0 0.0 24.0 24.0" height="200px" width="200px"><path fill="none" stroke="black" stroke-width=".3" stroke-opacity="1.0"  filling="0" d="M12.790908813476562 11.454545021057129 L12.790908813476562 11.454545021057129 C12.818181991577148 11.454545021057129 12.845454216003418 11.454545021057129 12.872727394104004 11.454545021057129 L12.872727394104004 11.454545021057129 C12.872506141662598 11.588656425476074 12.866232872009277 11.689496040344238 13.021964073181152 11.709081649780273 L13.021964073181152 11.709081649780273 C13.035964012145996 11.75732707977295 13.049962997436523 11.805571556091309 13.063962936401367 11.853816986083984 L13.063962936401367 11.853816986083984 C13.100217819213867 11.802544593811035 13.13647174835205 11.751272201538086 13.17272663116455 11.699999809265137 L13.17272663116455 11.699999809265137 C13.17272663116455 11.736363410949707 13.17272663116455 11.772727012634277 13.17272663116455 11.809090614318848 L13.17272663116455 11.809090614318848 C13.151935577392578 11.994035720825195 13.131145477294922 12.178980827331543 13.11035442352295 12.36392593383789 L13.11035442352295 12.36392593383789 C13.069281578063965 12.370462417602539 13.028209686279297 12.376998901367188 12.987136840820312 12.383535385131836 L12.987136840820312 12.383535385131836 C12.956318855285645 12.189453125 12.92549991607666 11.99537181854248 12.894681930541992 11.801289558410645 L12.894681930541992 11.801289558410645 C12.90555477142334 12.058444023132324 12.916427612304688 12.315598487854004 12.927300453186035 12.572752952575684 L12.927300453186035 12.572752952575684 C12.8909273147583 12.572744369506836 12.854555130004883 12.572735786437988 12.818181991577148 12.57272720336914 L12.818181991577148 12.57272720336914 C12.809090614318848 12.199999809265137 12.800000190734863 11.827272415161133 12.790908813476562 11.454545021057129 L12.790908813476562 11.454545021057129"></path></svg>