<svg xmlns="http://www.w3.org/2000/svg" viewBox="0.0 0.0 24.0 24.0" height="200px" width="200px"><path fill="none" stroke="black" stroke-width=".3" stroke-opacity="1.0"  filling="0" d="M14.254226684570312 12.220609664916992 L14.254226684570312 12.220609664916992 C14.469130516052246 12.342327117919922 14.662924766540527 12.55245304107666 14.727245330810547 12.790909767150879 L14.727245330810547 12.790909767150879 C14.645426750183105 12.790909767150879 14.56360912322998 12.790909767150879 14.481790542602539 12.790909767150879 L14.481790542602539 12.790909767150879 C14.438727378845215 12.69249153137207 14.395663261413574 12.594074249267578 14.35260009765625 12.49565601348877 L14.35260009765625 12.49565601348877 C14.300199508666992 12.49565601348877 14.24779987335205 12.49565601348877 14.195399284362793 12.49565601348877 L14.195399284362793 12.49565601348877 C14.172680854797363 12.594074249267578 14.14996337890625 12.69249153137207 14.12724494934082 12.790909767150879 L14.12724494934082 12.790909767150879 C14.036345481872559 12.790909767150879 13.94544506072998 12.790908813476562 13.854545593261719 12.790908813476562 L13.854545593261719 12.790908813476562 C13.893598556518555 12.562081336975098 14.070601463317871 12.362627029418945 14.254226684570312 12.220609664916992 L14.254226684570312 12.220609664916992"></path></svg>