<svg xmlns="http://www.w3.org/2000/svg" viewBox="0.0 0.0 24.0 24.0" height="200px" width="200px"><path fill="none" stroke="black" stroke-width=".3" stroke-opacity="1.0"  filling="0" d="M12.533209800720215 11.810372352600098 L12.533209800720215 11.810372352600098 C12.545137405395508 11.850817680358887 12.557064056396484 11.891263961791992 12.568991661071777 11.931709289550781 L12.568991661071777 11.931709289550781 C12.4923734664917 11.899227142333984 12.415754318237305 11.866745948791504 12.339136123657227 11.834263801574707 L12.339136123657227 11.834263801574707 C12.331899642944336 11.88129997253418 12.324664115905762 11.928337097167969 12.317427635192871 11.975373268127441 L12.317427635192871 11.975373268127441 C12.354182243347168 11.979400634765625 12.390935897827148 11.983428001403809 12.427690505981445 11.987455368041992 L12.427690505981445 11.987455368041992 C12.440563201904297 12.026410102844238 12.453435897827148 12.065363883972168 12.46630859375 12.104318618774414 L12.46630859375 12.104318618774414 C12.42809009552002 12.088882446289062 12.389872550964355 12.073445320129395 12.351654052734375 12.058009147644043 L12.351654052734375 12.058009147644043 C12.33033561706543 12.278121948242188 12.40128231048584 12.238709449768066 12.573026657104492 12.153901100158691 L12.573026657104492 12.153901100158691 C12.551026344299316 12.202455520629883 12.529026985168457 12.251009941101074 12.507026672363281 12.299564361572266 L12.507026672363281 12.299564361572266 C12.396353721618652 12.289209365844727 12.28568172454834 12.278854370117188 12.175008773803711 12.268499374389648 L12.175008773803711 12.268499374389648 C12.183954238891602 12.12137222290039 12.192899703979492 11.974245071411133 12.201845169067383 11.827117919921875 L12.201845169067383 11.827117919921875 C12.312299728393555 11.82153606414795 12.422755241394043 11.815954208374023 12.533209800720215 11.810372352600098 L12.533209800720215 11.810372352600098"></path></svg>