<svg xmlns="http://www.w3.org/2000/svg" viewBox="0.0 0.0 24.0 24.0" height="200px" width="200px"><path fill="none" stroke="black" stroke-width=".3" stroke-opacity="1.0"  filling="0" d="M13.208671569824219 11.47952651977539 L13.208671569824219 11.47952651977539 C13.179299354553223 11.564781188964844 13.14992618560791 11.65003490447998 13.120553970336914 11.735289573669434 L13.120553970336914 11.735289573669434 C13.66937255859375 12.015483856201172 12.86765193939209 12.095025062561035 12.707781791687012 12.089181900024414 L12.707781791687012 12.089181900024414 C12.721254348754883 12.061381340026855 12.734726905822754 12.033581733703613 12.748199462890625 12.005781173706055 L12.748199462890625 12.005781173706055 C12.841599464416504 12.005781173706055 12.934999465942383 12.005781173706055 13.028399467468262 12.005781173706055 L13.028399467468262 12.005781173706055 C13.051154136657715 11.981108665466309 13.073907852172852 11.956435203552246 13.096662521362305 11.9317626953125 L13.096662521362305 11.9317626953125 C13.025371551513672 11.90682601928711 12.954080581665039 11.881890296936035 12.882789611816406 11.856953620910645 L12.882789611816406 11.856953620910645 C12.903225898742676 11.807326316833496 12.923662185668945 11.757699012756348 12.944098472595215 11.7080717086792 L12.944098472595215 11.7080717086792 C12.830934524536133 11.698981285095215 12.717771530151367 11.689889907836914 12.604607582092285 11.68079948425293 L12.604607582092285 11.68079948425293 C12.7581205368042 11.5342435836792 13.000234603881836 11.519515991210938 13.208671569824219 11.47952651977539 L13.208671569824219 11.47952651977539"></path></svg>