<svg xmlns="http://www.w3.org/2000/svg" viewBox="0.0 0.0 24.0 24.0" height="200px" width="200px"><path fill="none" stroke="black" stroke-width=".3" stroke-opacity="1.0"  filling="0" d="M11.337845802307129 11.985272407531738 L11.337845802307129 11.985272407531738 C11.447137832641602 12.13711929321289 11.463711738586426 12.381979942321777 11.372727394104004 12.545454978942871 L11.372727394104004 12.545454978942871 C11.318181991577148 12.545454978942871 11.263636589050293 12.545454978942871 11.209091186523438 12.545454978942871 L11.209091186523438 12.545454978942871 C11.209091186523438 12.47272777557373 11.209091186523438 12.399999618530273 11.209091186523438 12.327272415161133 L11.209091186523438 12.327272415161133 C11.400904655456543 12.416441917419434 11.377687454223633 12.278582572937012 11.303099632263184 12.147926330566406 L11.303099632263184 12.147926330566406 C11.271763801574707 12.171344757080078 11.240427017211914 12.194762229919434 11.209091186523438 12.218180656433105 L11.209091186523438 12.218180656433105 C11.209091186523438 12.145453453063965 11.209091186523438 12.07272720336914 11.209091186523438 12.0 L11.209091186523438 12.0 C11.252009391784668 11.99509048461914 11.294927597045898 11.990181922912598 11.337845802307129 11.985272407531738 L11.337845802307129 11.985272407531738"></path></svg>