<svg xmlns="http://www.w3.org/2000/svg" viewBox="0.0 0.0 24.0 24.0" height="200px" width="200px"><path fill="none" stroke="black" stroke-width=".3" stroke-opacity="1.0"  filling="0" d="M24.33662986755371 9.855764389038086 L24.33662986755371 9.855764389038086 C24.63966941833496 10.233466148376465 25.877552032470703 11.781973838806152 24.580909729003906 11.672456741333008 C24.27066993713379 11.64625358581543 24.276206970214844 10.851744651794434 23.935285568237305 10.831802368164062 C23.406333923339844 10.800860404968262 22.87557601928711 10.828911781311035 22.345722198486328 10.827466011047363 L22.345722198486328 10.827466011047363 C22.345722198486328 11.024238586425781 22.345722198486328 11.2210111618042 22.345722198486328 11.417783737182617 L22.345722198486328 11.417783737182617 C23.054523468017578 11.177470207214355 23.589815139770508 11.327324867248535 24.002185821533203 12.100174903869629 C24.090229034423828 12.265181541442871 24.256898880004883 12.721872329711914 23.845123291015625 12.737728118896484 C23.235353469848633 12.761208534240723 22.96541976928711 12.05517864227295 22.322616577148438 12.054709434509277 L22.322616577148438 12.054709434509277 C22.322616577148438 12.418100357055664 22.322616577148438 12.78149127960205 22.322616577148438 13.144882202148438 L22.322616577148438 13.144882202148438 C22.78657341003418 13.14478874206543 23.439491271972656 13.2308931350708 23.886735916137695 13.083246231079102 C24.213979721069336 12.975214958190918 24.63069725036621 12.120461463928223 25.01260757446289 12.414438247680664 C25.596479415893555 12.863875389099121 24.647762298583984 14.061779975891113 24.081300735473633 14.0750732421875 C22.874109268188477 14.103402137756348 20.84488868713379 14.008076667785645 19.649755477905273 13.854382514953613 C18.74538230895996 13.738080024719238 20.098224639892578 13.149246215820312 20.171785354614258 13.138636589050293 L20.171785354614258 13.138636589050293 C20.21347427368164 12.700194358825684 20.261445999145508 11.43716812133789 20.18482208251953 10.993664741516113 C20.141216278076172 10.741268157958984 19.620277404785156 10.83545207977295 19.55092430114746 10.819910049438477 C19.306350708007812 10.765100479125977 19.500844955444336 10.320357322692871 19.499977111816406 10.069719314575195 L19.499977111816406 10.069719314575195 C21.108125686645508 9.8671293258667 22.741260528564453 10.085177421569824 24.33662986755371 9.855764389038086 L24.33662986755371 9.855764389038086"></path></svg>