<svg xmlns="http://www.w3.org/2000/svg" viewBox="0.0 0.0 24.0 24.0" height="200px" width="200px"><path fill="none" stroke="black" stroke-width=".3" stroke-opacity="1.0"  filling="0" d="M12.469308853149414 11.83799934387207 L12.469308853149414 11.83799934387207 C12.517122268676758 11.885176658630371 12.558489799499512 11.940650939941406 12.58739948272705 12.00128173828125 L12.58739948272705 12.00128173828125 C12.648880958557129 11.94918155670166 12.710363388061523 11.897082328796387 12.771844863891602 11.844982147216797 L12.771844863891602 11.844982147216797 C12.738144874572754 11.966758728027344 12.703536033630371 12.088289260864258 12.667881965637207 12.209508895874023 L12.667881965637207 12.209508895874023 C12.610427856445312 12.1503267288208 12.552972793579102 12.091145515441895 12.495518684387207 12.031963348388672 L12.495518684387207 12.031963348388672 C12.436773300170898 12.092327117919922 12.378026962280273 12.152690887451172 12.319281578063965 12.213054656982422 L12.319281578063965 12.213054656982422 C12.273545265197754 12.090327262878418 12.227808952331543 11.96760082244873 12.182072639465332 11.844873428344727 L12.182072639465332 11.844873428344727 C12.216472625732422 11.84280014038086 12.250872611999512 11.840727806091309 12.285272598266602 11.838654518127441 L12.285272598266602 11.838654518127441 C12.307381629943848 11.900672912597656 12.32949161529541 11.962690353393555 12.351600646972656 12.02470874786377 L12.351600646972656 12.02470874786377 C12.386359214782715 11.959864616394043 12.424688339233398 11.896495819091797 12.469308853149414 11.83799934387207 L12.469308853149414 11.83799934387207"></path></svg>