<svg xmlns="http://www.w3.org/2000/svg" viewBox="0.0 0.0 24.0 24.0" height="200px" width="200px"><path fill="none" stroke="black" stroke-width=".3" stroke-opacity="1.0"  filling="0" d="M9.187200546264648 11.08077335357666 L9.187200546264648 11.08077335357666 C9.208405494689941 11.391294479370117 9.228803634643555 11.701870918273926 9.248481750488281 12.012492179870605 L9.248481750488281 12.012492179870605 C9.70922565460205 12.080290794372559 9.530593872070312 12.233563423156738 9.24886417388916 12.505992889404297 L9.24886417388916 12.505992889404297 C9.24886417388916 12.678893089294434 9.24886417388916 12.85179328918457 9.24886417388916 13.024693489074707 L9.24886417388916 13.024693489074707 C8.868494033813477 13.165297508239746 9.036687850952148 12.671013832092285 8.938963890075684 12.496694564819336 L8.938963890075684 12.496694564819336 C8.722954750061035 12.512967109680176 8.506945610046387 12.529239654541016 8.290936470031738 12.545512199401855 L8.290936470031738 12.545512199401855 C8.290926933288574 12.363675117492676 8.290918350219727 12.18183708190918 8.290908813476562 12.0 L8.290908813476562 12.0 C8.619665145874023 11.718170166015625 8.689095497131348 11.084574699401855 9.187200546264648 11.08077335357666 L9.187200546264648 11.08077335357666"></path>
<path fill="none" stroke="black" stroke-width=".3" stroke-opacity="1.0"  filling="0" d="M8.912236213684082 11.736953735351562 L8.912236213684082 11.736953735351562 C8.920772552490234 11.738762855529785 8.929308891296387 11.740572929382324 8.937845230102539 11.742382049560547 L8.937845230102539 11.742382049560547 C8.944371223449707 11.855701446533203 8.825425148010254 11.949034690856934 8.732209205627441 12.013800621032715 L8.732209205627441 12.013800621032715 C8.792218208312988 11.921518325805664 8.852227210998535 11.829236030578613 8.912236213684082 11.736953735351562 L8.912236213684082 11.736953735351562"></path></svg>