<svg xmlns="http://www.w3.org/2000/svg" viewBox="0.0 0.0 24.0 24.0" height="200px" width="200px"><path fill="none" stroke="black" stroke-width=".3" stroke-opacity="1.0"  filling="0" d="M-1.5818471908569336 9.463606834411621 L-1.5818471908569336 9.463606834411621 C-0.6603308916091919 9.463629722595215 0.06230348348617554 9.545574188232422 0.9512453079223633 9.721990585327148 L0.9512453079223633 9.721990585327148 C0.1865532398223877 10.566858291625977 -0.7310808300971985 11.398530006408691 -1.3621644973754883 12.339681625366211 L-1.3621644973754883 12.339681625366211 C-0.9660917520523071 12.413435935974121 -0.5700191259384155 12.487191200256348 -0.17394638061523438 12.560945510864258 L-0.17394638061523438 12.560945510864258 C-0.13857333362102509 12.390345573425293 -0.1032002717256546 12.219745635986328 -0.06782722473144531 12.049145698547363 L-0.06782722473144531 12.049145698547363 C0.08158174157142639 12.0724458694458 0.23099073767662048 12.095745086669922 0.3803997039794922 12.11904525756836 L0.3803997039794922 12.11904525756836 C0.3255084753036499 12.447521209716797 0.2666490972042084 12.775355339050293 0.2041635513305664 13.102472305297852 L0.2041635513305664 13.102472305297852 C-0.6181999444961548 12.970108032226562 -1.4405635595321655 12.83774471282959 -2.2629270553588867 12.705381393432617 L-2.2629270553588867 12.705381393432617 C-2.116684913635254 12.009075164794922 -0.4840180277824402 10.588618278503418 0.019199371337890625 10.027499198913574 L0.019199371337890625 10.027499198913574 C-0.37448248267173767 9.95370864868164 -0.7681642770767212 9.87991714477539 -1.1618461608886719 9.806126594543457 L-1.1618461608886719 9.806126594543457 C-1.2023464441299438 9.961844444274902 -1.2428468465805054 10.117563247680664 -1.2833471298217773 10.27328109741211 L-1.2833471298217773 10.27328109741211 C-1.5653061866760254 10.216353416442871 -1.6418737173080444 9.744922637939453 -1.5818471908569336 9.463606834411621 L-1.5818471908569336 9.463606834411621"></path></svg>