<svg xmlns="http://www.w3.org/2000/svg" viewBox="0.0 0.0 24.0 24.0" height="200px" width="200px"><path fill="none" stroke="black" stroke-width=".3" stroke-opacity="1.0"  filling="0" d="M9.395345687866211 11.786999702453613 L9.395345687866211 11.786999702453613 C9.36588191986084 11.825481414794922 9.336419105529785 11.863964080810547 9.306955337524414 11.902445793151855 L9.306955337524414 11.902445793151855 C9.222153663635254 12.999285697937012 9.149892807006836 12.690601348876953 8.580354690551758 11.924154281616211 L8.580354690551758 11.924154281616211 C8.675009727478027 11.895672798156738 8.76966381072998 11.86719036102295 8.86431884765625 11.838708877563477 L8.86431884765625 11.838708877563477 C8.942964553833008 12.043818473815918 9.02160930633545 12.248927116394043 9.100255012512207 12.454036712646484 L9.100255012512207 12.454036712646484 C9.110109329223633 12.452590942382812 9.119963645935059 12.451146125793457 9.129817962646484 12.449700355529785 L9.129817962646484 12.449700355529785 C9.152939796447754 12.271921157836914 9.1630220413208 12.0922212600708 9.163826942443848 11.912946701049805 L9.163826942443848 11.912946701049805 C9.139573097229004 11.901019096374512 9.115318298339844 11.889090538024902 9.091064453125 11.87716293334961 L9.091064453125 11.87716293334961 C9.19249153137207 11.847108840942383 9.29391860961914 11.81705379486084 9.395345687866211 11.786999702453613 L9.395345687866211 11.786999702453613"></path></svg>