<svg xmlns="http://www.w3.org/2000/svg" viewBox="0.0 0.0 24.0 24.0" height="200px" width="200px"><path fill="none" stroke="black" stroke-width=".3" stroke-opacity="1.0"  filling="0" d="M11.51089096069336 11.873481750488281 L11.51089096069336 11.873481750488281 C11.563017845153809 11.873481750488281 11.615145683288574 11.873481750488281 11.667272567749023 11.873481750488281 L11.667272567749023 11.873481750488281 C11.6689453125 11.882918357849121 11.670619010925293 11.892354011535645 11.67229175567627 11.901790618896484 L11.67229175567627 11.901790618896484 C11.623827934265137 11.912154197692871 11.575364112854004 11.922518730163574 11.526900291442871 11.932882308959961 L11.526900291442871 11.932882308959961 C11.546991348266602 11.94950008392334 11.567082405090332 11.966118812561035 11.587173461914062 11.982736587524414 L11.587173461914062 11.982736587524414 C11.543673515319824 12.008708953857422 11.50017261505127 12.034682273864746 11.456672668457031 12.060654640197754 L11.456672668457031 12.060654640197754 C11.460700035095215 12.06834602355957 11.464727401733398 12.07603645324707 11.468754768371582 12.083727836608887 L11.468754768371582 12.083727836608887 C11.504582405090332 12.089781761169434 11.540409088134766 12.095836639404297 11.576236724853516 12.101890563964844 L11.576236724853516 12.101890563964844 C11.575454711914062 12.109253883361816 11.57467269897461 12.116618156433105 11.573890686035156 12.123981475830078 L11.573890686035156 12.123981475830078 C11.51492691040039 12.123981475830078 11.455964088439941 12.123981475830078 11.397000312805176 12.123981475830078 L11.397000312805176 12.123981475830078 C11.434964179992676 12.040481567382812 11.47292709350586 11.956981658935547 11.51089096069336 11.873481750488281 L11.51089096069336 11.873481750488281"></path></svg>