<svg xmlns="http://www.w3.org/2000/svg" viewBox="0.0 0.0 24.0 24.0" height="200px" width="200px"><path fill="none" stroke="black" stroke-width=".3" stroke-opacity="1.0"  filling="0" d="M13.707518577575684 11.60020923614502 L13.707518577575684 11.60020923614502 C13.790800094604492 11.60020923614502 13.8740816116333 11.60020923614502 13.95736312866211 11.60020923614502 L13.95736312866211 11.60020923614502 C13.962663650512695 11.659845352172852 13.967964172363281 11.719482421875 13.973264694213867 11.779118537902832 L13.973264694213867 11.779118537902832 C14.052873611450195 11.726245880126953 14.132482528686523 11.673372268676758 14.212091445922852 11.620499610900879 L14.212091445922852 11.620499610900879 C14.20959186553955 11.737236022949219 14.207091331481934 11.853972434997559 14.204591751098633 11.970708847045898 L14.204591751098633 11.970708847045898 C14.184436798095703 11.934463500976562 14.16428279876709 11.89821720123291 14.14412784576416 11.861971855163574 L14.14412784576416 11.861971855163574 C14.030113220214844 12.133414268493652 14.03925609588623 12.4425630569458 14.018619537353516 12.73625373840332 L14.018619537353516 12.73625373840332 C13.935501098632812 12.728936195373535 13.852381706237793 12.721617698669434 13.76926326751709 12.714300155639648 L13.76926326751709 12.714300155639648 C13.79000473022461 12.31098461151123 13.80446720123291 12.009892463684082 13.707518577575684 11.60020923614502 L13.707518577575684 11.60020923614502"></path></svg>