<svg xmlns="http://www.w3.org/2000/svg" viewBox="0.0 0.0 24.0 24.0" height="200px" width="200px"><path fill="none" stroke="black" stroke-width=".3" stroke-opacity="1.0"  filling="0" d="M12.14454460144043 11.492889404296875 L12.14454460144043 11.492889404296875 C12.22568416595459 11.503859519958496 12.306894302368164 11.514517784118652 12.388362884521484 11.522699356079102 L12.388362884521484 11.522699356079102 C12.388362884521484 11.661626815795898 12.388362884521484 11.800554275512695 12.388362884521484 11.939481735229492 L12.388362884521484 11.939481735229492 C12.289827346801758 11.860688209533691 12.19533634185791 11.776307106018066 12.107645034790039 11.685599327087402 L12.107645034790039 11.685599327087402 C12.183854103088379 12.05823040008545 12.641538619995117 12.777873992919922 11.997245788574219 12.694580078125 L11.997245788574219 12.694580078125 C11.94311809539795 12.689870834350586 11.888991355895996 12.685162544250488 11.834863662719727 12.680453300476074 L11.834863662719727 12.680453300476074 C11.861854553222656 12.540017127990723 11.888845443725586 12.399580001831055 11.915836334228516 12.259143829345703 L11.915836334228516 12.259143829345703 C12.503578186035156 13.053935050964355 11.608610153198242 11.511287689208984 12.14454460144043 11.492889404296875 L12.14454460144043 11.492889404296875"></path></svg>