<svg xmlns="http://www.w3.org/2000/svg" viewBox="0.0 0.0 24.0 24.0" height="200px" width="200px"><path fill="none" stroke="black" stroke-width=".3" stroke-opacity="1.0"  filling="0" d="M17.641555786132812 11.290445327758789 L17.641555786132812 11.290445327758789 C17.921741485595703 11.556961059570312 17.861629486083984 12.872790336608887 17.86309051513672 13.250727653503418 L17.86309051513672 13.250727653503418 C17.9624080657959 13.250727653503418 18.06172752380371 13.250727653503418 18.16104507446289 13.250727653503418 L18.16104507446289 13.250727653503418 C18.16104507446289 13.380782127380371 18.16104507446289 13.510836601257324 18.16104507446289 13.640891075134277 L18.16104507446289 13.640891075134277 C17.69676399230957 13.725566864013672 17.147708892822266 13.976256370544434 17.11219024658203 13.34170913696289 L17.11219024658203 13.34170913696289 C17.201644897460938 13.324854850769043 17.291099548339844 13.308000564575195 17.38055419921875 13.291146278381348 L17.38055419921875 13.291146278381348 C17.34697151184082 12.802005767822266 17.6401424407959 11.755338668823242 16.99775505065918 11.75462818145752 L16.99775505065918 11.75462818145752 C16.985937118530273 11.626182556152344 16.974117279052734 11.497735977172852 16.962299346923828 11.369290351867676 L16.962299346923828 11.369290351867676 C17.175029754638672 11.287424087524414 17.413957595825195 11.30290412902832 17.641555786132812 11.290445327758789 L17.641555786132812 11.290445327758789"></path></svg>