<svg xmlns="http://www.w3.org/2000/svg" viewBox="0.0 0.0 24.0 24.0" height="200px" width="200px"><path fill="none" stroke="black" stroke-width=".3" stroke-opacity="1.0"  filling="0" d="M19.970535278320312 10.9814453125 L19.970535278320312 10.9814453125 C20.551836013793945 11.187461853027344 20.762577056884766 11.385313987731934 20.92156410217285 11.99034595489502 L20.92156410217285 11.99034595489502 C20.461427688598633 12.25735855102539 19.767162322998047 12.232094764709473 19.242300033569336 12.330435752868652 L19.242300033569336 12.330435752868652 C19.408700942993164 12.581426620483398 19.443431854248047 13.040520668029785 19.74150276184082 13.083409309387207 C20.055908203125 13.128647804260254 20.249900817871094 12.70246410369873 20.504100799560547 12.511991500854492 L20.504100799560547 12.511991500854492 C20.649782180786133 12.560809135437012 20.79546546936035 12.609627723693848 20.941146850585938 12.658445358276367 L20.941146850585938 12.658445358276367 C20.67180061340332 12.940009117126465 20.477731704711914 13.321310043334961 20.13311004638672 13.503135681152344 C19.162412643432617 14.01528549194336 18.79300308227539 12.555718421936035 18.740100860595703 12.036981582641602 C18.66437530517578 11.294438362121582 19.485218048095703 11.112497329711914 19.970535278320312 10.9814453125 L19.970535278320312 10.9814453125"></path>
<path fill="none" stroke="black" stroke-width=".3" stroke-opacity="1.0"  filling="0" d="M19.74807357788086 11.427435874938965 L19.74807357788086 11.427435874938965 C19.954200744628906 11.528890609741211 20.160327911376953 11.630345344543457 20.366455078125 11.731800079345703 L20.366455078125 11.731800079345703 C20.003864288330078 11.777935981750488 19.641273498535156 11.82407283782959 19.278682708740234 11.870208740234375 L19.278682708740234 11.870208740234375 C19.43514633178711 11.722618103027344 19.591609954833984 11.575026512145996 19.74807357788086 11.427435874938965 L19.74807357788086 11.427435874938965"></path></svg>