<svg xmlns="http://www.w3.org/2000/svg" viewBox="0.0 0.0 24.0 24.0" height="200px" width="200px"><path fill="none" stroke="black" stroke-width=".3" stroke-opacity="1.0"  filling="0" d="M14.074337005615234 11.563828468322754 L14.074337005615234 11.563828468322754 C14.097722053527832 12.216819763183594 14.047264099121094 12.876477241516113 14.10147476196289 13.527355194091797 L14.10147476196289 13.527355194091797 C14.183574676513672 13.527355194091797 14.265674591064453 13.527355194091797 14.347774505615234 13.527355194091797 L14.347774505615234 13.527355194091797 C14.347774505615234 13.672201156616211 14.347774505615234 13.817046165466309 14.347774505615234 13.961892127990723 L14.347774505615234 13.961892127990723 C14.026368141174316 13.970857620239258 13.681349754333496 13.901264190673828 13.385372161865234 14.026881217956543 L13.385372161865234 14.026881217956543 C13.385372161865234 13.871617317199707 13.385372161865234 13.716354370117188 13.385372161865234 13.561090469360352 L13.385372161865234 13.561090469360352 C13.459980964660645 13.561090469360352 13.534590721130371 13.561090469360352 13.609199523925781 13.561090469360352 L13.609199523925781 13.561090469360352 C13.610210418701172 12.727500915527344 13.808004379272461 12.335918426513672 13.286264419555664 11.95377254486084 L13.286264419555664 11.95377254486084 C13.290282249450684 11.831608772277832 13.29430103302002 11.70944595336914 13.298318862915039 11.587282180786133 L13.298318862915039 11.587282180786133 C13.556674003601074 11.572269439697266 13.815546989440918 11.564375877380371 14.074337005615234 11.563828468322754 L14.074337005615234 11.563828468322754"></path></svg>