<svg xmlns="http://www.w3.org/2000/svg" viewBox="0.0 0.0 24.0 24.0" height="200px" width="200px"><path fill="none" stroke="black" stroke-width=".3" stroke-opacity="1.0"  filling="0" d="M17.582809448242188 12.149972915649414 L17.582809448242188 12.149972915649414 C17.55919075012207 12.301017761230469 17.535572052001953 12.45206356048584 17.511953353881836 12.603108406066895 L17.511953353881836 12.603108406066895 C17.538963317871094 12.626526832580566 17.56597137451172 12.649944305419922 17.592981338500977 12.673362731933594 L17.592981338500977 12.673362731933594 C17.57905387878418 12.702499389648438 17.565126419067383 12.731635093688965 17.551198959350586 12.760771751403809 L17.551198959350586 12.760771751403809 C17.46927261352539 12.741945266723633 17.387344360351562 12.72311782836914 17.305418014526367 12.704291343688965 L17.305418014526367 12.704291343688965 C17.3358097076416 12.654363632202148 17.366199493408203 12.604436874389648 17.396591186523438 12.554509162902832 L17.396591186523438 12.554509162902832 C17.38020896911621 12.433899879455566 17.363828659057617 12.313291549682617 17.34744644165039 12.192682266235352 L17.34744644165039 12.192682266235352 C17.425901412963867 12.178445816040039 17.50435447692871 12.164209365844727 17.582809448242188 12.149972915649414 L17.582809448242188 12.149972915649414"></path></svg>