<svg xmlns="http://www.w3.org/2000/svg" viewBox="0.0 0.0 24.0 24.0" height="200px" width="200px"><path fill="none" stroke="black" stroke-width=".3" stroke-opacity="1.0"  filling="0" d="M7.110627174377441 11.31973648071289 L7.110627174377441 11.31973648071289 C8.268535614013672 11.76073932647705 7.993446350097656 12.376449584960938 7.991154670715332 13.431081771850586 L7.991154670715332 13.431081771850586 C8.09273624420166 13.445972442626953 8.194318771362305 13.46086311340332 8.295900344848633 13.475753784179688 L8.295900344848633 13.475753784179688 C8.243173599243164 14.070964813232422 8.155388832092285 13.910364151000977 7.480009078979492 13.870062828063965 L7.480009078979492 13.870062828063965 C7.486872673034668 13.831599235534668 7.493736267089844 13.793135643005371 7.5005998611450195 13.754672050476074 L7.5005998611450195 13.754672050476074 C6.994578838348389 13.700778007507324 6.375333309173584 13.806684494018555 6.002618789672852 13.46020793914795 C5.025510787963867 12.551886558532715 6.883884429931641 11.983654975891113 7.555854320526123 12.33474349975586 L7.555854320526123 12.33474349975586 C7.319134712219238 11.698469161987305 7.215357303619385 11.551412582397461 6.65269136428833 11.968034744262695 L6.65269136428833 11.968034744262695 C6.521491050720215 11.873771667480469 6.390291213989258 11.779508590698242 6.259090900421143 11.685245513916016 L6.259090900421143 11.685245513916016 C6.522837162017822 11.524465560913086 6.802918910980225 11.346714973449707 7.110627174377441 11.31973648071289 L7.110627174377441 11.31973648071289"></path>
<path fill="none" stroke="black" stroke-width=".3" stroke-opacity="1.0"  filling="0" d="M6.917481422424316 12.518181800842285 L6.917481422424316 12.518181800842285 C9.086013793945312 13.008383750915527 4.805967330932617 13.831692695617676 6.917481422424316 12.518181800842285 L6.917481422424316 12.518181800842285"></path></svg>