<svg xmlns="http://www.w3.org/2000/svg" viewBox="0.0 0.0 24.0 24.0" height="200px" width="200px"><path fill="none" stroke="black" stroke-width=".3" stroke-opacity="1.0"  filling="0" d="M23.462371826171875 10.100700378417969 L23.462371826171875 10.100700378417969 C24.002824783325195 10.436837196350098 23.554536819458008 11.440507888793945 22.975664138793945 11.455390930175781 C22.75713539123535 11.46100902557373 22.60598373413086 11.016422271728516 22.41283416748047 11.118791580200195 C22.208972930908203 11.226839065551758 21.242332458496094 12.274384498596191 21.927410125732422 12.573137283325195 C23.224483489990234 13.138772010803223 23.811786651611328 11.666215896606445 24.173046112060547 10.758463859558105 L24.173046112060547 10.758463859558105 C24.0909366607666 10.715354919433594 24.00882911682129 10.672245025634766 23.926719665527344 10.629136085510254 L23.926719665527344 10.629136085510254 C24.171607971191406 10.465194702148438 24.435131072998047 10.362017631530762 24.709064483642578 10.254600524902344 L24.709064483642578 10.254600524902344 C24.709064483642578 10.618236541748047 24.709064483642578 10.981873512268066 24.709064483642578 11.34550952911377 L24.709064483642578 11.34550952911377 C24.219242095947266 11.67846965789795 23.692392349243164 12.742765426635742 24.70903778076172 12.463691711425781 L24.70903778076172 12.463691711425781 C24.709054946899414 12.63640022277832 24.709074020385742 12.809109687805176 24.709091186523438 12.981818199157715 L24.709091186523438 12.981818199157715 C24.2724552154541 13.141560554504395 23.541505813598633 13.5798978805542 23.18440818786621 13.02807331085205 L23.18440818786621 13.02807331085205 C20.12026023864746 14.468243598937988 20.835107803344727 9.728686332702637 22.967864990234375 10.537227630615234 L22.967864990234375 10.537227630615234 C23.132699966430664 10.391718864440918 23.297536849975586 10.246209144592285 23.462371826171875 10.100700378417969 L23.462371826171875 10.100700378417969"></path></svg>