<svg xmlns="http://www.w3.org/2000/svg" viewBox="0.0 0.0 24.0 24.0" height="200px" width="200px"><path fill="none" stroke="black" stroke-width=".3" stroke-opacity="1.0"  filling="0" d="M13.018610000610352 11.92955493927002 L13.018610000610352 11.92955493927002 C13.077228546142578 11.92955493927002 13.135846138000488 11.92955493927002 13.194464683532715 11.92955493927002 L13.194464683532715 11.92955493927002 C13.19551944732666 11.937891006469727 13.196573257446289 11.94622802734375 13.197628021240234 11.954564094543457 L13.197628021240234 11.954564094543457 C13.142922401428223 11.967018127441406 13.08908748626709 11.983707427978516 13.036555290222168 12.003409385681152 L13.036555290222168 12.003409385681152 C13.082191467285156 12.021909713745117 13.127827644348145 12.040409088134766 13.173463821411133 12.05890941619873 L13.173463821411133 12.05890941619873 C13.095563888549805 12.071517944335938 13.017663955688477 12.084127426147461 12.939764022827148 12.096735954284668 L12.939764022827148 12.096735954284668 C12.94055461883545 12.107672691345215 12.941346168518066 12.118608474731445 12.942136764526367 12.129545211791992 L12.942136764526367 12.129545211791992 C12.98729133605957 12.136727333068848 13.032445907592773 12.143909454345703 13.077600479125977 12.151091575622559 L13.077600479125977 12.151091575622559 C13.076464653015137 12.161100387573242 13.07532787322998 12.171110153198242 13.07419204711914 12.181118965148926 L13.07419204711914 12.181118965148926 C13.000055313110352 12.181118965148926 12.925919532775879 12.181118965148926 12.85178279876709 12.181118965148926 L12.85178279876709 12.181118965148926 C12.907391548156738 12.097264289855957 12.963001251220703 12.013409614562988 13.018610000610352 11.92955493927002 L13.018610000610352 11.92955493927002"></path></svg>