<svg xmlns="http://www.w3.org/2000/svg" viewBox="0.0 0.0 24.0 24.0" height="200px" width="200px"><path fill="none" stroke="black" stroke-width=".3" stroke-opacity="1.0"  filling="0" d="M19.464492797851562 14.349027633666992 L19.464492797851562 14.349027633666992 C19.52178382873535 14.429655075073242 19.57907485961914 14.510281562805176 19.63636589050293 14.590909004211426 L19.63636589050293 14.590909004211426 C19.60000228881836 14.590909004211426 19.56363868713379 14.590909004211426 19.52727508544922 14.590909004211426 L19.52727508544922 14.590909004211426 C19.501230239868164 14.548163414001465 19.475183486938477 14.50541877746582 19.449138641357422 14.46267318725586 L19.449138641357422 14.46267318725586 C19.41154670715332 14.50541877746582 19.37395668029785 14.548163414001465 19.33636474609375 14.590909004211426 L19.33636474609375 14.590909004211426 C19.30000114440918 14.590909004211426 19.26363754272461 14.590909004211426 19.22727394104004 14.590909004211426 L19.22727394104004 14.590909004211426 C19.18166732788086 14.546527862548828 19.087621688842773 14.553194046020508 19.036365509033203 14.590909004211426 L19.036365509033203 14.590909004211426 C18.99091148376465 14.590909004211426 18.94545555114746 14.590909004211426 18.900001525878906 14.590909004211426 L18.900001525878906 14.590909004211426 C18.86540985107422 14.566372871398926 18.830820083618164 14.54183578491211 18.796228408813477 14.51729965209961 L18.796228408813477 14.51729965209961 C19.041513442993164 14.377013206481934 19.166444778442383 14.38776969909668 19.464492797851562 14.349027633666992 L19.464492797851562 14.349027633666992"></path></svg>