<svg xmlns="http://www.w3.org/2000/svg" viewBox="0.0 0.0 24.0 24.0" height="200px" width="200px"><path fill="none" stroke="black" stroke-width=".3" stroke-opacity="1.0"  filling="0" d="M12.05018138885498 11.330562591552734 L12.05018138885498 11.330562591552734 C12.071163177490234 11.453490257263184 12.092145919799805 11.576417922973633 12.113127708435059 11.699345588684082 L12.113127708435059 11.699345588684082 C12.172027587890625 11.709909439086914 12.230928421020508 11.72047233581543 12.289828300476074 11.731036186218262 L12.289828300476074 11.731036186218262 C12.302587509155273 11.94570541381836 12.386094093322754 12.217215538024902 12.239100456237793 12.374181747436523 L12.239100456237793 12.374181747436523 C12.215982437133789 12.203018188476562 12.192863464355469 12.031854629516602 12.169745445251465 11.86069107055664 L12.169745445251465 11.86069107055664 C12.15278148651123 11.861000061035156 12.135818481445312 11.861309051513672 12.118854522705078 11.861618041992188 L12.118854522705078 11.861618041992188 C12.084559440612793 12.052515983581543 12.096654891967773 12.214387893676758 12.009136199951172 12.387190818786621 L12.009136199951172 12.387190818786621 C11.974315643310547 12.012431144714355 11.987030029296875 11.701248168945312 12.05018138885498 11.330562591552734 L12.05018138885498 11.330562591552734"></path></svg>