<svg xmlns="http://www.w3.org/2000/svg" viewBox="0.0 0.0 24.0 24.0" height="200px" width="200px"><path fill="none" stroke="black" stroke-width=".3" stroke-opacity="1.0"  filling="0" d="M14.018181800842285 10.690908432006836 L14.018181800842285 10.690908432006836 C14.118992805480957 10.711007118225098 14.220184326171875 10.729219436645508 14.32153606414795 10.746381759643555 L14.32153606414795 10.746381759643555 C14.310263633728027 10.89124584197998 14.298990249633789 11.03610897064209 14.287717819213867 11.180973052978516 L14.287717819213867 11.180973052978516 C14.026972770690918 11.168627738952637 13.766226768493652 11.156281471252441 13.505481719970703 11.143936157226562 L13.505481719970703 11.143936157226562 C13.513254165649414 11.104145050048828 13.521027565002441 11.06435489654541 13.528800010681152 11.024563789367676 L13.528800010681152 11.024563789367676 C12.864082336425781 11.032564163208008 12.550993919372559 11.21855354309082 12.0 10.690963745117188 L12.0 10.690963745117188 C12.245454788208008 10.690963745117188 12.4909086227417 10.690963745117188 12.736363410949707 10.690963745117188 L12.736363410949707 10.690963745117188 C12.997367858886719 10.690963745117188 13.858789443969727 10.690919876098633 14.018181800842285 10.690908432006836 L14.018181800842285 10.690908432006836"></path></svg>