<svg xmlns="http://www.w3.org/2000/svg" viewBox="0.0 0.0 24.0 24.0" height="200px" width="200px"><path fill="none" stroke="black" stroke-width=".3" stroke-opacity="1.0"  filling="0" d="M10.777608871459961 11.619053840637207 L10.777608871459961 11.619053840637207 C11.275041580200195 11.621906280517578 11.680914878845215 12.140942573547363 11.001791000366211 12.13628101348877 L11.001791000366211 12.13628101348877 C11.032926559448242 12.291276931762695 10.878618240356445 12.518118858337402 10.720526695251465 12.518155097961426 L10.720526695251465 12.518155097961426 C10.720526695251465 12.477509498596191 10.720526695251465 12.43686294555664 10.720526695251465 12.396217346191406 L10.720526695251465 12.396217346191406 C10.755899429321289 12.38724422454834 10.791272163391113 12.37827205657959 10.826644897460938 12.369298934936523 L10.826644897460938 12.369298934936523 C10.837535858154297 12.173226356506348 10.848426818847656 11.977154731750488 10.859317779541016 11.781082153320312 L10.859317779541016 11.781082153320312 C10.826008796691895 11.737236976623535 10.792698860168457 11.693390846252441 10.759389877319336 11.649545669555664 L10.759389877319336 11.649545669555664 C10.765462875366211 11.639381408691406 10.771535873413086 11.629218101501465 10.777608871459961 11.619053840637207 L10.777608871459961 11.619053840637207"></path>
<path fill="none" stroke="black" stroke-width=".3" stroke-opacity="1.0"  filling="0" d="M11.204399108886719 11.76580810546875 L11.204399108886719 11.76580810546875 C11.302881240844727 11.999446868896484 10.994499206542969 12.140591621398926 10.99148178100586 11.776008605957031 L10.99148178100586 11.776008605957031 C11.062454223632812 11.772608757019043 11.133426666259766 11.769207954406738 11.204399108886719 11.76580810546875 L11.204399108886719 11.76580810546875"></path></svg>