<svg xmlns="http://www.w3.org/2000/svg" viewBox="0.0 0.0 24.0 24.0" height="200px" width="200px"><path fill="none" stroke="black" stroke-width=".3" stroke-opacity="1.0"  filling="0" d="M7.403890609741211 11.36983585357666 L7.403890609741211 11.36983585357666 C7.478699684143066 11.383299827575684 7.55350923538208 11.39676284790039 7.6283183097839355 11.410226821899414 L7.6283183097839355 11.410226821899414 C7.610045433044434 11.568881034851074 7.59177303314209 11.72753620147705 7.573500156402588 11.886190414428711 L7.573500156402588 11.886190414428711 C7.604445457458496 11.912208557128906 7.6353912353515625 11.938226699829102 7.666336536407471 11.964244842529297 L7.666336536407471 11.964244842529297 C7.65199089050293 11.992244720458984 7.637645721435547 12.020243644714355 7.623300075531006 12.048243522644043 L7.623300075531006 12.048243522644043 C7.529417991638184 12.038117408752441 7.4355363845825195 12.027990341186523 7.341654300689697 12.017864227294922 L7.341654300689697 12.017864227294922 C7.341654300689697 11.979146003723145 7.341654300689697 11.940427780151367 7.341654300689697 11.90170955657959 L7.341654300689697 11.90170955657959 C7.371118068695068 11.895309448242188 7.4005818367004395 11.888909339904785 7.4300456047058105 11.882509231567383 L7.4300456047058105 11.882509231567383 C7.421327114105225 11.711618423461914 7.412609100341797 11.540726661682129 7.403890609741211 11.36983585357666 L7.403890609741211 11.36983585357666"></path></svg>