<svg xmlns="http://www.w3.org/2000/svg" viewBox="0.0 0.0 24.0 24.0" height="200px" width="200px"><path fill="none" stroke="black" stroke-width=".3" stroke-opacity="1.0"  filling="0" d="M17.590909957885742 10.69088077545166 L17.590909957885742 10.69088077545166 C17.745454788208008 10.690890312194824 17.899999618530273 10.690898895263672 18.05454444885254 10.690908432006836 L18.05454444885254 10.690908432006836 C18.05454444885254 10.733736038208008 18.05454444885254 10.77656364440918 18.05454444885254 10.819391250610352 L18.05454444885254 10.819391250610352 C18.131717681884766 10.824627876281738 18.208890914916992 10.829863548278809 18.28606414794922 10.835100173950195 L18.28606414794922 10.835100173950195 C18.28606414794922 10.96491813659668 18.28606414794922 11.094736099243164 18.28606414794922 11.224554061889648 L18.28606414794922 11.224554061889648 C17.982135772705078 11.22805404663086 17.67820930480957 11.231554985046387 17.37428092956543 11.235054969787598 L17.37428092956543 11.235054969787598 C17.37700843811035 11.100664138793945 17.379735946655273 10.966273307800293 17.382463455200195 10.83188247680664 L17.382463455200195 10.83188247680664 C17.451946258544922 10.784881591796875 17.521427154541016 10.737881660461426 17.590909957885742 10.69088077545166 L17.590909957885742 10.69088077545166"></path></svg>