<svg xmlns="http://www.w3.org/2000/svg" viewBox="0.0 0.0 24.0 24.0" height="200px" width="200px"><path fill="none" stroke="black" stroke-width=".3" stroke-opacity="1.0"  filling="0" d="M12.215971946716309 11.372700691223145 L12.215971946716309 11.372700691223145 C12.480734825134277 11.534632682800293 12.72459888458252 11.81029224395752 12.776262283325195 12.116318702697754 L12.776262283325195 12.116318702697754 C12.437219619750977 12.125127792358398 12.115266799926758 11.954288482666016 11.777780532836914 11.92066478729248 C11.554986953735352 11.898468017578125 11.639382362365723 13.411524772644043 11.618399620056152 13.644819259643555 L11.618399620056152 13.644819259643555 C10.512706756591797 14.068168640136719 10.990777015686035 11.9869384765625 10.990854263305664 11.404854774475098 L10.990854263305664 11.404854774475098 C11.215435981750488 11.404854774475098 11.440018653869629 11.404854774475098 11.664600372314453 11.404854774475098 L11.664600372314453 11.404854774475098 C11.671009063720703 11.439509391784668 11.67741870880127 11.474164009094238 11.68382740020752 11.508818626403809 L11.68382740020752 11.508818626403809 C11.837876319885254 11.409865379333496 12.033398628234863 11.38647747039795 12.215971946716309 11.372700691223145 L12.215971946716309 11.372700691223145"></path></svg>