<svg xmlns="http://www.w3.org/2000/svg" viewBox="0.0 0.0 24.0 24.0" height="200px" width="200px"><path fill="none" stroke="black" stroke-width=".3" stroke-opacity="1.0"  filling="0" d="M0.3818187713623047 9.136363983154297 L0.3818187713623047 9.136363983154297 C0.18937185406684875 9.622601509094238 0.17078915238380432 10.079489707946777 0.16489124298095703 10.59864616394043 L0.16489124298095703 10.59864616394043 C-0.18061989545822144 10.873777389526367 -0.28927895426750183 11.394394874572754 -0.31017303466796875 11.835573196411133 L-0.31017303466796875 11.835573196411133 C-0.7176796197891235 12.11719799041748 -0.7341502904891968 12.350318908691406 -0.736445426940918 12.833727836608887 L-0.736445426940918 12.833727836608887 C-1.2064862251281738 12.955843925476074 -1.1564481258392334 13.323737144470215 -1.1859550476074219 13.733509063720703 L-1.1859550476074219 13.733509063720703 C-1.3817212581634521 13.877345085144043 -1.4990575313568115 14.148266792297363 -1.499917984008789 14.391191482543945 L-1.499917984008789 14.391191482543945 C-1.6362216472625732 14.546721458435059 -1.79701566696167 14.71360969543457 -1.8273277282714844 14.918181419372559 L-1.8273277282714844 14.918181419372559 C-1.9636913537979126 14.918181419372559 -2.100054979324341 14.918181419372559 -2.2364187240600586 14.918181419372559 L-2.2364187240600586 14.918181419372559 C-2.2364187240600586 13.463635444641113 -2.2364187240600586 12.0090913772583 -2.2364187240600586 10.554545402526855 L-2.2364187240600586 10.554545402526855 C-1.7677793502807617 10.138124465942383 -1.339223027229309 9.690492630004883 -1.0364189147949219 9.136390686035156 L-1.0364189147949219 9.136390686035156 C-0.5636730194091797 9.136382102966309 -0.0909271240234375 9.136372566223145 0.3818187713623047 9.136363983154297 L0.3818187713623047 9.136363983154297"></path></svg>