<svg xmlns="http://www.w3.org/2000/svg" viewBox="0.0 0.0 24.0 24.0" height="200px" width="200px"><path fill="none" stroke="black" stroke-width=".3" stroke-opacity="1.0"  filling="0" d="M-10.086816787719727 3.9842443466186523 L-10.086816787719727 3.9842443466186523 C-8.265743255615234 4.153239727020264 -6.661016464233398 5.592534065246582 -4.859453201293945 4.643754005432129 L-4.859453201293945 4.643754005432129 C-4.4979352951049805 4.874344825744629 -4.136417388916016 5.104935646057129 -3.774899482727051 5.335526466369629 L-3.774899482727051 5.335526466369629 C-5.8317365646362305 7.262904644012451 -5.353555679321289 9.491722106933594 -4.793513298034668 11.750030517578125 C-4.233471393585205 14.008339881896973 -3.5915684700012207 16.296140670776367 -5.320962905883789 18.34148406982422 C-6.753490447998047 20.035724639892578 -9.702783584594727 21.55698013305664 -11.50723648071289 19.78221893310547 C-12.366167068481445 18.937421798706055 -13.150362968444824 17.95235252380371 -13.479820251464844 16.777009963989258 C-13.490450859069824 16.739086151123047 -13.747381210327148 15.823535919189453 -13.596517562866211 15.732163429260254 C-12.819320678710938 15.261442184448242 -11.842696189880371 15.003070831298828 -11.009017944335938 14.63127326965332 L-11.009017944335938 14.63127326965332 C-10.598608016967773 16.03411102294922 -8.483414649963379 21.722543716430664 -6.940364837646484 17.903919219970703 C-6.804656028747559 17.568077087402344 -6.717613697052002 17.21103858947754 -6.665508270263672 16.852581024169922 C-6.373120307922363 14.84111499786377 -7.890476226806641 12.845113754272461 -8.0699462890625 10.867988586425781 C-8.245526313781738 8.933711051940918 -7.349999904632568 7.640836715698242 -6.150274276733398 6.269505977630615 L-6.150274276733398 6.269505977630615 C-6.589442729949951 6.503248691558838 -7.402297019958496 7.019071578979492 -7.98158073425293 6.98118782043457 C-9.879179954528809 6.857089042663574 -12.345229148864746 5.083995819091797 -12.518728256225586 8.351781845092773 L-12.518728256225586 8.351781845092773 C-15.387435913085938 7.0220561027526855 -12.016822814941406 4.270348072052002 -10.086816787719727 3.9842443466186523 L-10.086816787719727 3.9842443466186523"></path></svg>