<svg xmlns="http://www.w3.org/2000/svg" viewBox="0.0 0.0 24.0 24.0" height="200px" width="200px"><path fill="none" stroke="black" stroke-width=".3" stroke-opacity="1.0"  filling="0" d="M16.445453643798828 10.690882682800293 L16.445453643798828 10.690882682800293 C16.59090805053711 10.69089126586914 16.73636245727539 10.690899848937988 16.881816864013672 10.690908432006836 L16.881816864013672 10.690908432006836 C16.893798828125 10.734753608703613 16.905780792236328 10.778599739074707 16.917762756347656 10.822444915771484 L16.917762756347656 10.822444915771484 C16.97343635559082 10.825299263000488 17.02910804748535 10.828154563903809 17.084781646728516 10.831008911132812 L17.084781646728516 10.831008911132812 C17.09694480895996 10.970718383789062 17.10910987854004 11.110426902770996 17.121273040771484 11.250136375427246 L17.121273040771484 11.250136375427246 C16.805118560791016 11.250136375427246 16.488964080810547 11.250136375427246 16.172809600830078 11.250136375427246 L16.172809600830078 11.250136375427246 C16.187929153442383 11.084442138671875 16.27191162109375 10.829607009887695 16.43828010559082 10.827436447143555 L16.43828010559082 10.827436447143555 C16.440671920776367 10.7819185256958 16.44306182861328 10.736400604248047 16.445453643798828 10.690882682800293 L16.445453643798828 10.690882682800293"></path></svg>