<svg xmlns="http://www.w3.org/2000/svg" viewBox="0.0 0.0 24.0 24.0" height="200px" width="200px"><path fill="none" stroke="black" stroke-width=".3" stroke-opacity="1.0"  filling="0" d="M9.068672180175781 11.570563316345215 L9.068672180175781 11.570563316345215 C9.127008438110352 11.580972671508789 9.185344696044922 11.591381072998047 9.243680953979492 11.601790428161621 L9.243680953979492 11.601790428161621 C9.2420654296875 11.78115463256836 9.329545021057129 11.965044975280762 9.448282241821289 12.099491119384766 L9.448282241821289 12.099491119384766 C9.438809394836426 11.941436767578125 9.429336547851562 11.783381462097168 9.4198637008667 11.625327110290527 L9.4198637008667 11.625327110290527 C9.497854232788086 11.625327110290527 9.575845718383789 11.625327110290527 9.653836250305176 11.625327110290527 L9.653836250305176 11.625327110290527 C9.63779067993164 11.795217514038086 9.621745109558105 11.965108871459961 9.60569953918457 12.13499927520752 L9.60569953918457 12.13499927520752 C9.637690544128418 12.148880958557129 9.669681549072266 12.162763595581055 9.701672554016113 12.176645278930664 L9.701672554016113 12.176645278930664 C9.701672554016113 12.21200942993164 9.701672554016113 12.2473726272583 9.701672554016113 12.282736778259277 L9.701672554016113 12.282736778259277 C9.39921760559082 12.229891777038574 9.184085845947266 11.925914764404297 9.01317310333252 11.670845031738281 L9.01317310333252 11.670845031738281 C9.031672477722168 11.637417793273926 9.050172805786133 11.60399055480957 9.068672180175781 11.570563316345215 L9.068672180175781 11.570563316345215"></path></svg>