<svg xmlns="http://www.w3.org/2000/svg" viewBox="0.0 0.0 24.0 24.0" height="200px" width="200px"><path fill="none" stroke="black" stroke-width=".3" stroke-opacity="1.0"  filling="0" d="M6.357982158660889 5.043245792388916 L6.357982158660889 5.043245792388916 C6.837230682373047 5.122200965881348 7.111032485961914 5.8941874504089355 7.146109104156494 6.298881530761719 C7.261680603027344 7.632283687591553 7.1794633865356445 8.98261547088623 7.099827289581299 10.332635879516602 C7.020191669464111 11.682656288146973 6.943137168884277 13.032363891601562 7.06903600692749 14.364519119262695 L7.06903600692749 14.364519119262695 C7.486863613128662 14.578927993774414 7.904690742492676 14.793336868286133 8.322518348693848 15.007745742797852 L8.322518348693848 15.007745742797852 C7.812094688415527 15.523308753967285 7.313930511474609 16.06825828552246 6.840409278869629 16.616100311279297 L6.840409278869629 16.616100311279297 C6.180555820465088 16.296300888061523 5.376801013946533 16.014141082763672 4.775481700897217 15.58775520324707 C4.460912227630615 15.36469841003418 4.714789867401123 13.541495323181152 4.719518661499023 13.219417572021484 C4.748485088348389 11.246419906616211 5.604835033416748 7.9831156730651855 4.147663593292236 6.370063781738281 L4.147663593292236 6.370063781738281 C4.838301658630371 5.867541313171387 5.608287811279297 5.450160503387451 6.357982158660889 5.043245792388916 L6.357982158660889 5.043245792388916"></path></svg>