<svg xmlns="http://www.w3.org/2000/svg" viewBox="0.0 0.0 24.0 24.0" height="200px" width="200px"><path fill="none" stroke="black" stroke-width=".3" stroke-opacity="1.0"  filling="0" d="M5.51609992980957 10.591882705688477 L5.51609992980957 10.591882705688477 C5.527163982391357 10.591882705688477 7.931540489196777 10.591882705688477 7.933990478515625 10.591882705688477 L7.933990478515625 10.591882705688477 C7.932377815246582 11.622688293457031 6.953753471374512 12.335527420043945 6.3258819580078125 13.093420028686523 L6.3258819580078125 13.093420028686523 C6.8445000648498535 13.093428611755371 7.3631181716918945 13.093436241149902 7.8817362785339355 13.09344482421875 L7.8817362785339355 13.09344482421875 C7.880672454833984 14.086152076721191 6.283722877502441 13.820839881896973 5.481681823730469 13.690282821655273 L5.481681823730469 13.690282821655273 C5.48457670211792 12.683503150939941 6.416769504547119 11.960293769836426 7.043563365936279 11.208301544189453 L7.043563365936279 11.208301544189453 C6.534409046173096 11.208301544189453 6.025254249572754 11.208301544189453 5.51609992980957 11.208301544189453 L5.51609992980957 11.208301544189453 C5.51609992980957 11.002828598022461 5.51609992980957 10.797355651855469 5.51609992980957 10.591882705688477 L5.51609992980957 10.591882705688477"></path></svg>