<svg xmlns="http://www.w3.org/2000/svg" viewBox="0.0 0.0 24.0 24.0" height="200px" width="200px"><path fill="none" stroke="black" stroke-width=".3" stroke-opacity="1.0"  filling="0" d="M12.942136764526367 11.127408981323242 L12.942136764526367 11.127408981323242 C14.003127098083496 11.345749855041504 13.9799222946167 12.506327629089355 13.789745330810547 13.438690185546875 L13.789745330810547 13.438690185546875 C13.577709197998047 13.438690185546875 13.365673065185547 13.438690185546875 13.153636932373047 13.438690185546875 L13.153636932373047 13.438690185546875 C13.117842674255371 12.904202461242676 13.268927574157715 12.243548393249512 13.032299995422363 11.73526382446289 L13.032299995422363 11.73526382446289 C12.057025909423828 11.588927268981934 12.43111515045166 12.90764331817627 12.355609893798828 13.438990592956543 L12.355609893798828 13.438990592956543 C12.118891716003418 13.438990592956543 11.882173538208008 13.438990592956543 11.645455360412598 13.438990592956543 L11.645455360412598 13.438990592956543 C11.645455360412598 12.479218482971191 11.11152458190918 11.154681205749512 12.34655475616455 11.154436111450195 L12.34655475616455 11.154436111450195 C12.356454849243164 11.209254264831543 12.366354942321777 11.26407241821289 12.37625503540039 11.318890571594238 L12.37625503540039 11.318890571594238 C12.561607360839844 11.236433982849121 12.742304801940918 11.161367416381836 12.942136764526367 11.127408981323242 L12.942136764526367 11.127408981323242"></path></svg>