<svg xmlns="http://www.w3.org/2000/svg" viewBox="0.0 0.0 24.0 24.0" height="200px" width="200px"><path fill="none" stroke="black" stroke-width=".3" stroke-opacity="1.0"  filling="0" d="M10.991835594177246 10.66407299041748 L10.991835594177246 10.66407299041748 C11.430070877075195 10.852867126464844 11.700945854187012 11.477578163146973 11.991681098937988 11.858317375183105 L11.991681098937988 11.858317375183105 C12.308170318603516 11.543737411499023 12.718538284301758 10.897286415100098 13.210607528686523 10.942471504211426 L13.210607528686523 10.942471504211426 C13.388627052307129 11.672322273254395 12.98718547821045 12.566732406616211 13.23029899597168 13.25239086151123 L13.23029899597168 13.25239086151123 C13.10811710357666 13.239209175109863 12.98593521118164 13.22602653503418 12.863753318786621 13.212844848632812 L12.863753318786621 13.212844848632812 C12.876453399658203 12.63514518737793 12.889153480529785 12.05744457244873 12.901853561401367 11.479744911193848 L12.901853561401367 11.479744911193848 C12.595544815063477 11.745427131652832 12.28923511505127 12.0111083984375 11.982926368713379 12.276790618896484 L11.982926368713379 12.276790618896484 C11.974953651428223 12.316590309143066 11.96697998046875 12.356390953063965 11.959007263183594 12.396190643310547 L11.959007263183594 12.396190643310547 C11.646719932556152 12.03686237335205 11.429716110229492 11.554689407348633 11.129345893859863 11.166218757629395 L11.129345893859863 11.166218757629395 C10.989870071411133 11.696560859680176 11.07337474822998 12.452013969421387 11.07275390625 13.011163711547852 L11.07275390625 13.011163711547852 C10.967608451843262 13.003018379211426 10.862462997436523 12.994872093200684 10.757317543029785 12.986726760864258 L10.757317543029785 12.986726760864258 C10.757317543029785 12.225608825683594 10.757317543029785 11.46449089050293 10.757317543029785 10.703372955322266 L10.757317543029785 10.703372955322266 C10.835490226745605 10.69027328491211 10.913662910461426 10.677172660827637 10.991835594177246 10.66407299041748 L10.991835594177246 10.66407299041748"></path></svg>