<svg xmlns="http://www.w3.org/2000/svg" viewBox="0.0 0.0 24.0 24.0" height="200px" width="200px"><path fill="none" stroke="black" stroke-width=".3" stroke-opacity="1.0"  filling="0" d="M9.210790634155273 11.778464317321777 L9.210790634155273 11.778464317321777 C9.069544792175293 12.033000946044922 8.928299903869629 12.28753662109375 8.787054061889648 12.542073249816895 L8.787054061889648 12.542073249816895 C8.870644569396973 12.551773071289062 8.954236030578613 12.56147289276123 9.037826538085938 12.571172714233398 L9.037826538085938 12.571172714233398 C9.186737060546875 12.349028587341309 9.18978500366211 12.504596710205078 9.190744400024414 12.674209594726562 L9.190744400024414 12.674209594726562 C8.976680755615234 12.688355445861816 8.762617111206055 12.702500343322754 8.548553466796875 12.716646194458008 L8.548553466796875 12.716646194458008 C8.679708480834961 12.46531867980957 8.81086254119873 12.213991165161133 8.942017555236816 11.962663650512695 L8.942017555236816 11.962663650512695 C8.865527153015137 11.995027542114258 8.78903579711914 12.027390480041504 8.712545394897461 12.059754371643066 L8.712545394897461 12.059754371643066 C8.670336723327637 12.044990539550781 8.628127098083496 12.030227661132812 8.585918426513672 12.015463829040527 L8.585918426513672 12.015463829040527 C8.606038093566895 11.94977855682373 8.617449760437012 11.881118774414062 8.622163772583008 11.812582969665527 L8.622163772583008 11.812582969665527 C8.81837272644043 11.801210403442383 9.014581680297852 11.789836883544922 9.210790634155273 11.778464317321777 L9.210790634155273 11.778464317321777"></path></svg>