<svg xmlns="http://www.w3.org/2000/svg" viewBox="0.0 0.0 24.0 24.0" height="200px" width="200px"><path fill="none" stroke="black" stroke-width=".3" stroke-opacity="1.0"  filling="0" d="M10.957609176635742 11.572064399719238 L10.957609176635742 11.572064399719238 C10.996664047241211 11.617900848388672 11.035717964172363 11.663736343383789 11.074772834777832 11.709572792053223 L11.074772834777832 11.709572792053223 C11.10904598236084 11.755045890808105 11.143318176269531 11.800518035888672 11.177591323852539 11.845991134643555 L11.177591323852539 11.845991134643555 C11.135046005249023 11.864245414733887 11.092499732971191 11.882500648498535 11.049954414367676 11.900754928588867 L11.049954414367676 11.900754928588867 C11.037418365478516 12.016582489013672 11.024881362915039 12.13240909576416 11.012345314025879 12.248236656188965 L11.012345314025879 12.248236656188965 C11.259909629821777 12.407048225402832 10.872537612915039 12.426543235778809 10.906200408935547 11.84811782836914 L10.906200408935547 11.84811782836914 C10.873391151428223 11.840808868408203 10.840582847595215 11.833499908447266 10.80777359008789 11.826190948486328 L10.80777359008789 11.826190948486328 C10.80777359008789 11.794281959533691 10.80777359008789 11.762372970581055 10.80777359008789 11.730463981628418 L10.80777359008789 11.730463981628418 C10.87656021118164 11.706995964050293 10.937740325927734 11.641975402832031 10.957609176635742 11.572064399719238 L10.957609176635742 11.572064399719238"></path></svg>