<svg xmlns="http://www.w3.org/2000/svg" viewBox="0.0 0.0 24.0 24.0" height="200px" width="200px"><path fill="none" stroke="black" stroke-width=".3" stroke-opacity="1.0"  filling="0" d="M-4.376020431518555 10.066227912902832 L-4.376020431518555 10.066227912902832 C-4.032421112060547 10.092761039733887 -3.7062668800354004 10.073830604553223 -3.3606815338134766 10.10484504699707 L-3.3606815338134766 10.10484504699707 C-2.9412946701049805 11.628721237182617 -2.3182196617126465 13.09023666381836 -1.8027276992797852 14.583272933959961 L-1.8027276992797852 14.583272933959961 C-3.007941722869873 14.868437767028809 -3.266411066055298 14.183257102966309 -4.30467414855957 14.183835983276367 C-5.080208778381348 14.184268951416016 -5.819859504699707 14.591064453125 -6.595394134521484 14.590882301330566 L-6.595394134521484 14.590882301330566 C-6.522634983062744 13.595561027526855 -5.508695602416992 10.129651069641113 -4.376020431518555 10.066227912902832 L-4.376020431518555 10.066227912902832"></path>
<path fill="none" stroke="black" stroke-width=".3" stroke-opacity="1.0"  filling="0" d="M-4.2528533935546875 12.066844940185547 L-4.2528533935546875 12.066844940185547 C-4.061338901519775 12.27988052368164 -4.02473258972168 12.593062400817871 -3.9320993423461914 12.8641357421875 L-3.9320993423461914 12.8641357421875 C-4.103781700134277 12.957011222839355 -4.3214430809021 12.898478507995605 -4.516635894775391 12.899099349975586 L-4.516635894775391 12.899099349975586 C-4.428708553314209 12.621681213378906 -4.340780735015869 12.344263076782227 -4.2528533935546875 12.066844940185547 L-4.2528533935546875 12.066844940185547"></path></svg>