<svg xmlns="http://www.w3.org/2000/svg" viewBox="0.0 0.0 24.0 24.0" height="200px" width="200px"><path fill="none" stroke="black" stroke-width=".3" stroke-opacity="1.0"  filling="0" d="M-6.5046539306640625 10.146244049072266 L-6.5046539306640625 10.146244049072266 C-6.390279769897461 10.651705741882324 -6.47672176361084 11.72659683227539 -6.492053985595703 12.199116706848145 C-6.532517433166504 13.446134567260742 -8.375542640686035 16.24456214904785 -9.809782028198242 14.255536079406738 C-10.513422966003418 13.279714584350586 -10.449531555175781 12.879974365234375 -10.472536087036133 11.777809143066406 C-10.483575820922852 11.248869895935059 -10.74917221069336 10.64271354675293 -10.47433853149414 10.190646171569824 L-10.47433853149414 10.190646171569824 C-9.928171157836914 10.1909818649292 -9.382729530334473 10.202611923217773 -8.836553573608398 10.199182510375977 L-8.836553573608398 10.199182510375977 C-8.837838172912598 10.457077026367188 -8.971921920776367 13.481279373168945 -8.455499649047852 13.210935592651367 C-7.746086597442627 12.83956241607666 -8.126348495483398 10.756662368774414 -8.122335433959961 10.183389663696289 L-8.122335433959961 10.183389663696289 C-7.583108425140381 10.171008110046387 -7.043880939483643 10.158625602722168 -6.5046539306640625 10.146244049072266 L-6.5046539306640625 10.146244049072266"></path></svg>