<svg xmlns="http://www.w3.org/2000/svg" viewBox="0.0 0.0 24.0 24.0" height="200px" width="200px"><path fill="none" stroke="black" stroke-width=".3" stroke-opacity="1.0"  filling="0" d="M11.675999641418457 15.245698928833008 L11.675999641418457 15.245698928833008 C11.747214317321777 15.245796203613281 11.818543434143066 15.246086120605469 11.88957405090332 15.251209259033203 L11.88957405090332 15.251209259033203 C11.846628189086914 15.301654815673828 11.803682327270508 15.352100372314453 11.760736465454102 15.402545928955078 L11.760736465454102 15.402545928955078 C11.800054550170898 15.406336784362793 11.839373588562012 15.410126686096191 11.878691673278809 15.413917541503906 L11.878691673278809 15.413917541503906 C11.880582809448242 15.42133617401123 11.882473945617676 15.428753852844238 11.88436508178711 15.436172485351562 L11.88436508178711 15.436172485351562 C11.845637321472168 15.449690818786621 11.806910514831543 15.463208198547363 11.768182754516602 15.476726531982422 L11.768182754516602 15.476726531982422 C11.801700592041016 15.536572456359863 11.835219383239746 15.596417427062988 11.86873722076416 15.65626335144043 L11.86873722076416 15.65626335144043 C11.577471733093262 15.634714126586914 11.652223587036133 15.5086669921875 11.675999641418457 15.245698928833008 L11.675999641418457 15.245698928833008"></path></svg>