<svg xmlns="http://www.w3.org/2000/svg" viewBox="0.0 0.0 24.0 24.0" height="200px" width="200px"><path fill="none" stroke="black" stroke-width=".3" stroke-opacity="1.0"  filling="0" d="M-1.4885444641113281 10.066717147827148 L-1.4885444641113281 10.066717147827148 C-1.0118510723114014 10.107670783996582 -0.4974256157875061 10.03253173828125 -0.03376293182373047 10.113353729248047 L-0.03376293182373047 10.113353729248047 C-0.1449469029903412 11.081197738647461 -0.10771049559116364 12.132142066955566 -0.06831645965576172 13.112071990966797 L-0.06831645965576172 13.112071990966797 C0.2955743670463562 13.128519058227539 1.1645417213439941 12.809589385986328 1.2302732467651367 13.257762908935547 C1.2595762014389038 13.457557678222656 1.2108769416809082 14.325380325317383 1.1991539001464844 14.57552719116211 L1.1991539001464844 14.57552719116211 C0.3051222562789917 14.51498031616211 -0.6041123867034912 14.623556137084961 -1.4969453811645508 14.557964324951172 C-1.7279961109161377 14.540989875793457 -1.5519481897354126 13.661121368408203 -1.5578174591064453 13.449163436889648 C-1.589131236076355 12.318320274353027 -1.5832384824752808 11.203661918640137 -1.5817899703979492 10.073562622070312 L-1.5817899703979492 10.073562622070312 C-1.5507081747055054 10.071280479431152 -1.519626259803772 10.068999290466309 -1.4885444641113281 10.066717147827148 L-1.4885444641113281 10.066717147827148"></path></svg>