<svg xmlns="http://www.w3.org/2000/svg" viewBox="0.0 0.0 24.0 24.0" height="200px" width="200px"><path fill="none" stroke="black" stroke-width=".3" stroke-opacity="1.0"  filling="0" d="M15.540902137756348 9.93561840057373 L15.540902137756348 9.93561840057373 C16.456836700439453 9.978029251098633 17.377395629882812 10.36172866821289 17.230907440185547 11.502655029296875 L17.230907440185547 11.502655029296875 C16.903125762939453 11.511700630187988 16.57534408569336 11.520745277404785 16.247562408447266 11.529790878295898 L16.247562408447266 11.529790878295898 C16.222360610961914 11.429400444030762 15.79778003692627 10.766860008239746 15.888818740844727 11.344826698303223 C16.049423217773438 12.364441871643066 18.467878341674805 13.35761547088623 16.414226531982422 14.515582084655762 C15.37320613861084 15.102569580078125 14.184633255004883 14.227503776550293 14.235410690307617 13.122190475463867 C14.244858741760254 12.916528701782227 15.212773323059082 12.996132850646973 15.385501861572266 12.98416519165039 L15.385501861572266 12.98416519165039 C15.36823558807373 13.116007804870605 15.537718772888184 13.632487297058105 15.668947219848633 13.303255081176758 C15.785908699035645 13.009817123413086 14.490983009338379 11.802360534667969 14.4341459274292 11.708645820617676 C13.885007858276367 10.803202629089355 14.838264465332031 10.164078712463379 15.540902137756348 9.93561840057373 L15.540902137756348 9.93561840057373"></path></svg>