<svg xmlns="http://www.w3.org/2000/svg" viewBox="0.0 0.0 24.0 24.0" height="200px" width="200px"><path fill="none" stroke="black" stroke-width=".3" stroke-opacity="1.0"  filling="0" d="M13.956682205200195 11.781816482543945 L13.956682205200195 11.781816482543945 C14.022336959838867 11.78329849243164 14.087990760803223 11.784781455993652 14.153645515441895 11.786263465881348 L14.153645515441895 11.786263465881348 C14.090045928955078 11.82296371459961 14.026445388793945 11.859663009643555 13.962845802307129 11.896363258361816 L13.962845802307129 11.896363258361816 C13.924500465393066 11.864145278930664 13.886154174804688 11.831926345825195 13.847808837890625 11.799708366394043 L13.847808837890625 11.799708366394043 C13.820887565612793 11.9050874710083 13.805615425109863 12.076372146606445 13.904809951782227 12.120981216430664 L13.904809951782227 12.120981216430664 C13.907519340515137 12.066081047058105 13.91022777557373 12.011181831359863 13.91293716430664 11.956281661987305 L13.91293716430664 11.956281661987305 C13.945845603942871 11.952527046203613 13.978754997253418 11.948772430419922 14.011663436889648 11.94501781463623 L14.011663436889648 11.94501781463623 C13.993535995483398 12.548006057739258 13.31078052520752 11.817575454711914 13.956682205200195 11.781816482543945 L13.956682205200195 11.781816482543945"></path></svg>