<svg xmlns="http://www.w3.org/2000/svg" viewBox="0.0 0.0 24.0 24.0" height="200px" width="200px"><path fill="none" stroke="black" stroke-width=".3" stroke-opacity="1.0"  filling="0" d="M8.473991394042969 10.151290893554688 L8.473991394042969 10.151290893554688 C8.828563690185547 10.151290893554688 9.183136940002441 10.151290893554688 9.53770923614502 10.151290893554688 L9.53770923614502 10.151290893554688 C9.53770923614502 10.574809074401855 9.53770923614502 10.998327255249023 9.53770923614502 11.421845436096191 L9.53770923614502 11.421845436096191 C9.738908767700195 11.438663482666016 9.940109252929688 11.45548152923584 10.141308784484863 11.472299575805664 L10.141308784484863 11.472299575805664 C10.141308784484863 11.033981323242188 10.141308784484863 10.595664024353027 10.141308784484863 10.15734577178955 L10.141308784484863 10.15734577178955 C10.485336303710938 10.15734577178955 10.829363822937012 10.15734577178955 11.173391342163086 10.15734577178955 L11.173391342163086 10.15734577178955 C11.173391342163086 11.405045509338379 11.173391342163086 12.652745246887207 11.173391342163086 13.900444984436035 L11.173391342163086 13.900444984436035 C10.831818580627441 13.900444984436035 10.490245819091797 13.900444984436035 10.148673057556152 13.900444984436035 L10.148673057556152 13.900444984436035 C10.148663520812988 13.398699760437012 10.14865493774414 12.896954536437988 10.148645401000977 12.395209312438965 L10.148645401000977 12.395209312438965 C9.950172424316406 12.395209312438965 9.751700401306152 12.395209312438965 9.553227424621582 12.395209312438965 L9.553227424621582 12.395209312438965 C9.553227424621582 12.888408660888672 9.553227424621582 13.381608963012695 9.553227424621582 13.874808311462402 L9.553227424621582 13.874808311462402 C7.542929649353027 14.107667922973633 8.535715103149414 11.533575057983398 8.473991394042969 10.151290893554688 L8.473991394042969 10.151290893554688"></path></svg>