<svg xmlns="http://www.w3.org/2000/svg" viewBox="0.0 0.0 24.0 24.0" height="200px" width="200px"><path fill="none" stroke="black" stroke-width=".3" stroke-opacity="1.0"  filling="0" d="M13.450826644897461 11.781982421875 L13.450826644897461 11.781982421875 C13.455953598022461 11.872319221496582 13.461081504821777 11.962655067443848 13.466208457946777 12.05299186706543 L13.466208457946777 12.05299186706543 C13.50572681427002 12.098000526428223 13.545245170593262 12.143009185791016 13.584763526916504 12.188017845153809 L13.584763526916504 12.188017845153809 C13.497918128967285 12.138945579528809 13.41107177734375 12.089872360229492 13.324226379394531 12.040800094604492 L13.324226379394531 12.040800094604492 C13.313417434692383 12.097545623779297 13.302608489990234 12.154291152954102 13.291799545288086 12.211036682128906 L13.291799545288086 12.211036682128906 C13.266172409057617 12.069527626037598 13.240544319152832 11.928017616271973 13.214917182922363 11.786508560180664 L13.214917182922363 11.786508560180664 C13.293475151062012 11.782691955566406 13.372176170349121 11.782084465026855 13.450826644897461 11.781982421875 L13.450826644897461 11.781982421875"></path>
<path fill="none" stroke="black" stroke-width=".3" stroke-opacity="1.0"  filling="0" d="M13.361863136291504 11.838845252990723 L13.361863136291504 11.838845252990723 C13.355635643005371 11.896690368652344 13.349409103393555 11.954536437988281 13.343181610107422 12.012381553649902 L13.343181610107422 12.012381553649902 C13.349409103393555 11.954536437988281 13.355635643005371 11.896690368652344 13.361863136291504 11.838845252990723 L13.361863136291504 11.838845252990723"></path></svg>