<svg xmlns="http://www.w3.org/2000/svg" viewBox="0.0 0.0 24.0 24.0" height="200px" width="200px"><path fill="none" stroke="black" stroke-width=".3" stroke-opacity="1.0"  filling="0" d="M13.1529541015625 11.762073516845703 L13.1529541015625 11.762073516845703 C13.248490333557129 11.762073516845703 13.344027519226074 11.762073516845703 13.439563751220703 11.762073516845703 L13.439563751220703 11.762073516845703 C13.439563751220703 11.79244613647461 13.439563751220703 11.822818756103516 13.439563751220703 11.853191375732422 L13.439563751220703 11.853191375732422 C13.37884521484375 11.858201026916504 13.318127632141113 11.86320972442627 13.25740909576416 11.868219375610352 L13.25740909576416 11.868219375610352 C13.257208824157715 11.88170051574707 13.257009506225586 11.895182609558105 13.25680923461914 11.908663749694824 L13.25680923461914 11.908663749694824 C13.31717300415039 11.914118766784668 13.37753677368164 11.919572830200195 13.43790054321289 11.925027847290039 L13.43790054321289 11.925027847290039 C13.43790054321289 11.957528114318848 13.43790054321289 11.99002742767334 13.43790054321289 12.022527694702148 L13.43790054321289 12.022527694702148 C13.378846168518066 12.025464057922363 13.319790840148926 12.028400421142578 13.260736465454102 12.031336784362793 L13.260736465454102 12.031336784362793 C13.260736465454102 12.09992790222168 13.260736465454102 12.168519020080566 13.260736465454102 12.237110137939453 L13.260736465454102 12.237110137939453 C13.224808692932129 12.239173889160156 13.188881874084473 12.241236686706543 13.1529541015625 12.243300437927246 L13.1529541015625 12.243300437927246 C13.1529541015625 12.082891464233398 13.1529541015625 11.92248249053955 13.1529541015625 11.762073516845703 L13.1529541015625 11.762073516845703"></path></svg>