<svg xmlns="http://www.w3.org/2000/svg" viewBox="0.0 0.0 24.0 24.0" height="200px" width="200px"><path fill="none" stroke="black" stroke-width=".3" stroke-opacity="1.0"  filling="0" d="M11.774291038513184 11.221962928771973 L11.774291038513184 11.221962928771973 C12.993176460266113 11.350278854370117 13.025430679321289 12.78543472290039 11.801318168640137 12.932701110839844 L11.801318168640137 12.932701110839844 C11.784891128540039 12.899147033691406 11.768463134765625 12.865592002868652 11.752036094665527 12.832037925720215 L11.752036094665527 12.832037925720215 C11.992701530456543 12.353503227233887 11.880922317504883 11.947071075439453 11.84394645690918 11.38693618774414 L11.84394645690918 11.38693618774414 C11.7285795211792 11.358988761901855 11.64763069152832 11.308305740356445 11.774291038513184 11.221962928771973 L11.774291038513184 11.221962928771973"></path>
<path fill="none" stroke="black" stroke-width=".3" stroke-opacity="1.0"  filling="0" d="M12.1207914352417 11.435482025146484 L12.1207914352417 11.435482025146484 C12.26467514038086 11.506653785705566 12.240832328796387 11.79910659790039 12.13180923461914 11.9169282913208 L12.13180923461914 11.9169282913208 C12.114631652832031 11.757326126098633 12.05029296875 11.579697608947754 12.1207914352417 11.435482025146484 L12.1207914352417 11.435482025146484"></path>
<path fill="none" stroke="black" stroke-width=".3" stroke-opacity="1.0"  filling="0" d="M12.183899879455566 12.058063507080078 L12.183899879455566 12.058063507080078 C12.519098281860352 12.190549850463867 12.582337379455566 12.686013221740723 12.165300369262695 12.747518539428711 L12.165300369262695 12.747518539428711 C12.15341854095459 12.517923355102539 12.118658065795898 12.27851390838623 12.183899879455566 12.058063507080078 L12.183899879455566 12.058063507080078"></path></svg>