<svg xmlns="http://www.w3.org/2000/svg" viewBox="0.0 0.0 24.0 24.0" height="200px" width="200px"><path fill="none" stroke="black" stroke-width=".3" stroke-opacity="1.0"  filling="0" d="M9.908645629882812 8.835409164428711 L9.908645629882812 8.835409164428711 C11.133562088012695 9.361291885375977 11.491077423095703 10.821027755737305 11.312731742858887 12.30459976196289 C11.13438606262207 13.788171768188477 10.420180320739746 15.295578002929688 9.501653671264648 15.916801452636719 L9.501653671264648 15.916801452636719 C9.688210487365723 14.816293716430664 10.326761245727539 13.930864334106445 10.294882774353027 12.71190071105957 L10.294882774353027 12.71190071105957 C9.770020484924316 13.27572250366211 9.404582977294922 13.348179817199707 8.8648099899292 12.541200637817383 C8.079957962036133 11.367819786071777 8.7286958694458 9.329194068908691 9.908645629882812 8.835409164428711 L9.908645629882812 8.835409164428711"></path>
<path fill="none" stroke="black" stroke-width=".3" stroke-opacity="1.0"  filling="0" d="M9.93561840057373 10.129608154296875 L9.93561840057373 10.129608154296875 C10.327826499938965 10.828773498535156 10.273524284362793 11.451062202453613 10.310400009155273 12.265390396118164 L10.310400009155273 12.265390396118164 C9.184946060180664 12.51587200164795 8.977201461791992 10.377832412719727 9.93561840057373 10.129608154296875 L9.93561840057373 10.129608154296875"></path></svg>