<svg xmlns="http://www.w3.org/2000/svg" viewBox="0.0 0.0 24.0 24.0" height="200px" width="200px"><path fill="none" stroke="black" stroke-width=".3" stroke-opacity="1.0"  filling="0" d="M15.163473129272461 4.099198818206787 L15.163473129272461 4.099198818206787 C16.250221252441406 4.2357659339904785 16.330406188964844 7.08543586730957 16.390390396118164 8.07103443145752 C16.47768211364746 9.505346298217773 16.54276466369629 10.954034805297852 16.53960609436035 12.401444435119629 C16.53644561767578 13.848854064941406 16.465042114257812 15.2949857711792 16.27936363220215 16.72418212890625 C16.194988250732422 17.373628616333008 16.233152389526367 19.404525756835938 15.464944839477539 19.73064422607422 C15.00477123260498 19.925996780395508 14.813857078552246 18.999692916870117 14.747944831848145 18.7714900970459 C14.35530948638916 17.412107467651367 14.254528999328613 15.874482154846191 14.206991195678711 14.465181350708008 C14.156575202941895 12.970552444458008 14.10853099822998 11.481267929077148 14.156427383422852 9.986099243164062 C14.212246894836426 8.243595123291016 14.121397018432617 5.562079429626465 15.163473129272461 4.099198818206787 L15.163473129272461 4.099198818206787"></path>
<path fill="none" stroke="black" stroke-width=".3" stroke-opacity="1.0"  filling="0" d="M15.347047805786133 7.9238996505737305 L15.347047805786133 7.9238996505737305 C15.879655838012695 8.891928672790527 16.126590728759766 10.350111961364746 16.132553100585938 11.82327651977539 C16.13851547241211 13.296440124511719 15.9035062789917 14.784585952758789 15.472227096557617 15.81253719329834 L15.472227096557617 15.81253719329834 C15.014528274536133 16.076610565185547 14.93069839477539 14.873370170593262 14.862029075622559 14.349434852600098 C14.690744400024414 13.04256534576416 14.088122367858887 8.910435676574707 15.347047805786133 7.9238996505737305 L15.347047805786133 7.9238996505737305"></path></svg>