<svg xmlns="http://www.w3.org/2000/svg" viewBox="0.0 0.0 24.0 24.0" height="200px" width="200px"><path fill="none" stroke="black" stroke-width=".3" stroke-opacity="1.0"  filling="0" d="M11.343109130859375 11.62150764465332 L11.343109130859375 11.62150764465332 C11.407709121704102 11.633535385131836 11.472309112548828 11.645563125610352 11.536909103393555 11.657590866088867 L11.536909103393555 11.657590866088867 C11.536981582641602 11.915572166442871 11.6474609375 12.424195289611816 11.286026954650879 12.190608978271484 L11.286026954650879 12.190608978271484 C11.331872940063477 12.198453903198242 11.377717971801758 12.206299781799316 11.423563957214355 12.214144706726074 L11.423563957214355 12.214144706726074 C11.424691200256348 12.189390182495117 11.42581844329834 12.164636611938477 11.426945686340332 12.13988208770752 L11.426945686340332 12.13988208770752 C11.2132568359375 12.044432640075684 11.274930000305176 11.816953659057617 11.343109130859375 11.62150764465332 L11.343109130859375 11.62150764465332"></path>
<path fill="none" stroke="black" stroke-width=".3" stroke-opacity="1.0"  filling="0" d="M11.422417640686035 11.699509620666504 L11.422417640686035 11.699509620666504 C11.422417640686035 11.815600395202637 11.422417640686035 11.931690216064453 11.422417640686035 12.047780990600586 L11.422417640686035 12.047780990600586 C11.422417640686035 11.931690216064453 11.422417640686035 11.815600395202637 11.422417640686035 11.699509620666504 L11.422417640686035 11.699509620666504"></path></svg>