<svg xmlns="http://www.w3.org/2000/svg" viewBox="0.0 0.0 24.0 24.0" height="200px" width="200px"><path fill="none" stroke="black" stroke-width=".3" stroke-opacity="1.0"  filling="0" d="M12.842672348022461 11.814409255981445 L12.842672348022461 11.814409255981445 C12.970356941223145 11.915313720703125 12.92453670501709 12.13273811340332 12.92599105834961 12.295473098754883 L12.92599105834961 12.295473098754883 C12.914045333862305 12.29964542388916 12.902100563049316 12.303818702697754 12.890154838562012 12.307991027832031 L12.890154838562012 12.307991027832031 C12.812691688537598 12.183011054992676 12.851241111755371 12.038613319396973 12.822108268737793 11.896172523498535 L12.822108268737793 11.896172523498535 C12.808908462524414 12.02812671661377 12.795708656311035 12.16008186340332 12.782508850097656 12.292036056518555 L12.782508850097656 12.292036056518555 C12.753372192382812 12.292036056518555 12.724236488342285 12.292036056518555 12.695099830627441 12.292036056518555 L12.695099830627441 12.292036056518555 C12.690754890441895 12.153491020202637 12.686408996582031 12.014945030212402 12.682064056396484 11.876399993896484 L12.682064056396484 11.876399993896484 C12.672463417053223 12.014609336853027 12.662863731384277 12.15281867980957 12.653263092041016 12.291028022766113 L12.653263092041016 12.291028022766113 C12.621736526489258 12.292973518371582 12.590209007263184 12.29491901397705 12.558682441711426 12.29686450958252 L12.558682441711426 12.29686450958252 C12.457634925842285 11.93097972869873 12.529155731201172 11.836451530456543 12.842672348022461 11.814409255981445 L12.842672348022461 11.814409255981445"></path></svg>