<svg xmlns="http://www.w3.org/2000/svg" viewBox="0.0 0.0 24.0 24.0" height="200px" width="200px"><path fill="none" stroke="black" stroke-width=".3" stroke-opacity="1.0"  filling="0" d="M13.540826797485352 11.773091316223145 L13.540826797485352 11.773091316223145 C13.5802640914917 11.863027572631836 13.61970043182373 11.952964782714844 13.659137725830078 12.042901039123535 L13.659137725830078 12.042901039123535 C13.618264198303223 12.04942798614502 13.577391624450684 12.055954933166504 13.536518096923828 12.062481880187988 L13.536518096923828 12.062481880187988 C13.536518096923828 12.112273216247559 13.536518096923828 12.162063598632812 13.536518096923828 12.211854934692383 L13.536518096923828 12.211854934692383 C13.543099403381348 12.212336540222168 13.549681663513184 12.21281909942627 13.556262969970703 12.213300704956055 L13.556262969970703 12.213300704956055 C13.578808784484863 12.175764083862305 13.601354598999023 12.138228416442871 13.623900413513184 12.100691795349121 L13.623900413513184 12.100691795349121 C13.637491226196289 12.106091499328613 13.651082038879395 12.111491203308105 13.6646728515625 12.116890907287598 L13.6646728515625 12.116890907287598 C13.56974983215332 12.506641387939453 13.363199234008789 12.043876647949219 13.540826797485352 11.773091316223145 L13.540826797485352 11.773091316223145"></path></svg>