<svg xmlns="http://www.w3.org/2000/svg" viewBox="0.0 0.0 24.0 24.0" height="200px" width="200px"><path fill="none" stroke="black" stroke-width=".3" stroke-opacity="1.0"  filling="0" d="M12.53724479675293 11.673462867736816 L12.53724479675293 11.673462867736816 C12.542081832885742 11.733963012695312 12.546917915344238 11.794463157653809 12.55175495147705 11.854963302612305 L12.55175495147705 11.854963302612305 C12.596745491027832 11.861035346984863 12.64173698425293 11.867108345031738 12.686727523803711 11.873180389404297 L12.686727523803711 11.873180389404297 C12.683149337768555 12.041230201721191 12.743511199951172 12.27687931060791 12.603982925415039 12.370609283447266 L12.603982925415039 12.370609283447266 C12.603982925415039 12.224663734436035 12.603982925415039 12.078718185424805 12.603982925415039 11.932772636413574 L12.603982925415039 11.932772636413574 C12.593637466430664 11.93197250366211 12.583292007446289 11.931171417236328 12.572946548461914 11.930371284484863 L12.572946548461914 11.930371284484863 C12.559582710266113 12.070417404174805 12.546217918395996 12.21046257019043 12.532854080200195 12.350508689880371 L12.532854080200195 12.350508689880371 C12.416081428527832 12.157380104064941 12.508727073669434 11.897340774536133 12.53724479675293 11.673462867736816 L12.53724479675293 11.673462867736816"></path></svg>