<svg xmlns="http://www.w3.org/2000/svg" viewBox="0.0 0.0 24.0 24.0" height="200px" width="200px"><path fill="none" stroke="black" stroke-width=".3" stroke-opacity="1.0"  filling="0" d="M10.57652759552002 11.626935958862305 L10.57652759552002 11.626935958862305 C10.57652759552002 11.735326766967773 10.57652759552002 11.843718528747559 10.57652759552002 11.952109336853027 L10.57652759552002 11.952109336853027 C10.585264205932617 11.953573226928711 10.593999862670898 11.955036163330078 10.602736473083496 11.956500053405762 L10.602736473083496 11.956500053405762 C10.62040901184082 11.90754508972168 10.638081550598145 11.858591079711914 10.655754089355469 11.809636116027832 L10.655754089355469 11.809636116027832 C10.683581352233887 11.814681053161621 10.711409568786621 11.819726943969727 10.739236831665039 11.824771881103516 L10.739236831665039 11.824771881103516 C10.73390007019043 11.983453750610352 10.728564262390137 12.142135620117188 10.723227500915527 12.300817489624023 L10.723227500915527 12.300817489624023 C10.679346084594727 12.234335899353027 10.63546371459961 12.167853355407715 10.591582298278809 12.101371765136719 L10.591582298278809 12.101371765136719 C10.561127662658691 12.171090126037598 10.530672073364258 12.240808486938477 10.50021743774414 12.310526847839355 L10.50021743774414 12.310526847839355 C10.500192642211914 12.092456817626953 10.402729034423828 11.778606414794922 10.57652759552002 11.626935958862305 L10.57652759552002 11.626935958862305"></path></svg>