<svg xmlns="http://www.w3.org/2000/svg" viewBox="0.0 0.0 24.0 24.0" height="200px" width="200px"><path fill="none" stroke="black" stroke-width=".3" stroke-opacity="1.0"  filling="0" d="M11.724109649658203 11.636809349060059 L11.724109649658203 11.636809349060059 C11.784370422363281 11.699127197265625 11.811978340148926 11.79085636138916 11.824799537658691 11.876590728759766 L11.824799537658691 11.876590728759766 C11.774381637573242 11.88457202911377 11.723963737487793 11.89255428314209 11.673545837402344 11.900535583496094 L11.673545837402344 11.900535583496094 C11.678455352783203 11.948762893676758 11.683363914489746 11.996991157531738 11.688273429870605 12.045218467712402 L11.688273429870605 12.045218467712402 C11.698063850402832 12.046754837036133 11.707855224609375 12.048291206359863 11.717645645141602 12.049827575683594 L11.717645645141602 12.049827575683594 C11.737809181213379 12.016018867492676 11.757972717285156 11.982209205627441 11.778136253356934 11.948400497436523 L11.778136253356934 11.948400497436523 C11.786572456359863 11.948127746582031 11.795008659362793 11.947854042053223 11.803444862365723 11.94758129119873 L11.803444862365723 11.94758129119873 C11.796586036682129 12.357338905334473 11.3516206741333 11.817442893981934 11.724109649658203 11.636809349060059 L11.724109649658203 11.636809349060059"></path></svg>