<svg xmlns="http://www.w3.org/2000/svg" viewBox="0.0 0.0 24.0 24.0" height="200px" width="200px"><path fill="none" stroke="black" stroke-width=".3" stroke-opacity="1.0"  filling="0" d="M12.314836502075195 11.866064071655273 L12.314836502075195 11.866064071655273 C12.351837158203125 11.920876502990723 12.413466453552246 11.980108261108398 12.400582313537598 12.044973373413086 L12.400582313537598 12.044973373413086 C12.362100601196289 12.008600234985352 12.323617935180664 11.972227096557617 12.285136222839355 11.935853958129883 L12.285136222839355 11.935853958129883 C12.285136222839355 12.046418190002441 12.285136222839355 12.156981468200684 12.285136222839355 12.267545700073242 L12.285136222839355 12.267545700073242 C12.29069995880127 12.268336296081543 12.2962646484375 12.26912784576416 12.301828384399414 12.269918441772461 L12.301828384399414 12.269918441772461 C12.323991775512695 12.224381446838379 12.346155166625977 12.178845405578613 12.368318557739258 12.133308410644531 L12.368318557739258 12.133308410644531 C12.378236770629883 12.137163162231445 12.388154983520508 12.14101791381836 12.398073196411133 12.144872665405273 L12.398073196411133 12.144872665405273 C12.227678298950195 12.584017753601074 12.090834617614746 12.059525489807129 12.314836502075195 11.866064071655273 L12.314836502075195 11.866064071655273"></path></svg>