<svg xmlns="http://www.w3.org/2000/svg" viewBox="0.0 0.0 24.0 24.0" height="200px" width="200px"><path fill="none" stroke="black" stroke-width=".3" stroke-opacity="1.0"  filling="0" d="M9.054708480834961 11.572145462036133 L9.054708480834961 11.572145462036133 C9.100123405456543 11.63559341430664 9.09965705871582 11.737401008605957 9.06264591217041 11.80609130859375 L9.06264591217041 11.80609130859375 C9.05700969696045 11.754255294799805 9.051372528076172 11.702418327331543 9.045736312866211 11.650582313537598 L9.045736312866211 11.650582313537598 C9.036291122436523 11.64754581451416 9.02684497833252 11.644509315490723 9.017399787902832 11.641472816467285 L9.017399787902832 11.641472816467285 C8.95261001586914 11.80221939086914 8.99831771850586 11.98883056640625 9.014345169067383 12.161399841308594 L9.014345169067383 12.161399841308594 C9.027408599853516 12.159708976745605 9.040472984313965 12.158018112182617 9.053536415100098 12.156327247619629 L9.053536415100098 12.156327247619629 C9.04537296295166 12.084227561950684 9.037208557128906 12.012126922607422 9.029045104980469 11.940027236938477 L9.029045104980469 11.940027236938477 C9.069554328918457 11.93820858001709 9.110062599182129 11.93639087677002 9.150571823120117 11.934572219848633 L9.150571823120117 11.934572219848633 C9.150571823120117 12.02798080444336 9.150571823120117 12.121390342712402 9.150571823120117 12.214798927307129 L9.150571823120117 12.214798927307129 C9.094890594482422 12.231244087219238 9.03920841217041 12.247690200805664 8.983527183532715 12.264135360717773 L8.983527183532715 12.264135360717773 C8.876092910766602 12.022379875183105 8.765748023986816 11.691512107849121 9.054708480834961 11.572145462036133 L9.054708480834961 11.572145462036133"></path></svg>