<svg xmlns="http://www.w3.org/2000/svg" viewBox="0.0 0.0 24.0 24.0" height="200px" width="200px"><path fill="none" stroke="black" stroke-width=".3" stroke-opacity="1.0"  filling="0" d="M10.631481170654297 11.779172897338867 L10.631481170654297 11.779172897338867 C10.740608215332031 11.779172897338867 10.849736213684082 11.779172897338867 10.958863258361816 11.779172897338867 L10.958863258361816 11.779172897338867 C10.967617988586426 11.93775463104248 10.976371765136719 12.09633731842041 10.985126495361328 12.254919052124023 L10.985126495361328 12.254919052124023 C10.862700462341309 12.112340927124023 10.984466552734375 11.973297119140625 10.883809089660645 11.829681396484375 L10.883809089660645 11.829681396484375 C10.861509323120117 11.9771728515625 10.839208602905273 12.124663352966309 10.816908836364746 12.272154808044434 L10.816908836364746 12.272154808044434 C10.802000045776367 12.270200729370117 10.787090301513672 12.268245697021484 10.772181510925293 12.266291618347168 L10.772181510925293 12.266291618347168 C10.772181510925293 12.125155448913574 10.772181510925293 11.984018325805664 10.772181510925293 11.84288215637207 L10.772181510925293 11.84288215637207 C10.758418083190918 11.84213638305664 10.744654655456543 11.841391563415527 10.730891227722168 11.840645790100098 L10.730891227722168 11.840645790100098 C10.723817825317383 11.975072860717773 10.716745376586914 12.10949993133545 10.709671974182129 12.243927001953125 L10.709671974182129 12.243927001953125 C10.683608055114746 12.240490913391113 10.65754508972168 12.237053871154785 10.631481170654297 12.233617782592773 L10.631481170654297 12.233617782592773 C10.631481170654297 12.082136154174805 10.631481170654297 11.930654525756836 10.631481170654297 11.779172897338867 L10.631481170654297 11.779172897338867"></path></svg>