<svg xmlns="http://www.w3.org/2000/svg" viewBox="0.0 0.0 24.0 24.0" height="200px" width="200px"><path fill="none" stroke="black" stroke-width=".3" stroke-opacity="1.0"  filling="0" d="M12.04382610321045 11.398529052734375 L12.04382610321045 11.398529052734375 C12.40779972076416 11.645842552185059 12.385074615478516 11.869625091552734 12.153462409973145 12.221155166625977 L12.153462409973145 12.221155166625977 C12.2274169921875 12.392964363098145 12.301371574401855 12.564773559570312 12.375326156616211 12.73658275604248 L12.375326156616211 12.73658275604248 C12.035490036010742 12.871726989746094 12.063023567199707 12.382390022277832 11.927671432495117 12.189737319946289 L11.927671432495117 12.189737319946289 C11.914908409118652 12.190964698791504 11.902144432067871 12.192191123962402 11.889381408691406 12.193418502807617 L11.889381408691406 12.193418502807617 C11.877863883972168 12.389636993408203 11.866345405578613 12.585855484008789 11.854827880859375 12.782073974609375 L11.854827880859375 12.782073974609375 C11.797491073608398 12.773391723632812 11.740154266357422 12.764710426330566 11.682817459106445 12.756028175354004 L11.682817459106445 12.756028175354004 C11.61489200592041 12.13875961303711 11.35193157196045 11.403170585632324 12.04382610321045 11.398529052734375 L12.04382610321045 11.398529052734375"></path>
<path fill="none" stroke="black" stroke-width=".3" stroke-opacity="1.0"  filling="0" d="M12.098344802856445 11.705645561218262 L12.098344802856445 11.705645561218262 C12.119162559509277 11.747809410095215 12.139981269836426 11.789972305297852 12.160799026489258 11.832136154174805 L12.160799026489258 11.832136154174805 C12.068608283996582 11.865290641784668 11.976417541503906 11.898445129394531 11.88422679901123 11.931599617004395 L11.88422679901123 11.931599617004395 C11.875890731811523 11.863527297973633 11.8675537109375 11.795454025268555 11.859217643737793 11.727381706237793 L11.859217643737793 11.727381706237793 C11.938926696777344 11.720136642456055 12.018635749816895 11.712890625 12.098344802856445 11.705645561218262 L12.098344802856445 11.705645561218262"></path></svg>