<svg xmlns="http://www.w3.org/2000/svg" viewBox="0.0 0.0 24.0 24.0" height="200px" width="200px"><path fill="none" stroke="black" stroke-width=".3" stroke-opacity="1.0"  filling="0" d="M7.021964073181152 10.886343955993652 L7.021964073181152 10.886343955993652 C7.598197937011719 11.546594619750977 7.904274940490723 12.082295417785645 6.859036922454834 12.08178997039795 L6.859036922454834 12.08178997039795 C6.817845821380615 11.910126686096191 6.7766547203063965 11.738462448120117 6.735463619232178 11.56679916381836 L6.735463619232178 11.56679916381836 C6.680490970611572 11.566835403442383 6.625518321990967 11.566871643066406 6.570545673370361 11.56690788269043 L6.570545673370361 11.56690788269043 C6.209856986999512 12.618156433105469 6.843465805053711 14.250968933105469 6.845481872558594 12.95285415649414 L6.845481872558594 12.95285415649414 C7.067418098449707 12.942809104919434 7.2893548011779785 12.93276309967041 7.511291027069092 12.922718048095703 L7.511291027069092 12.922718048095703 C7.765936851501465 13.561388969421387 7.089948654174805 14.631593704223633 6.29836368560791 14.175898551940918 C4.796656608581543 13.311405181884766 5.588893413543701 10.978885650634766 7.021964073181152 10.886343955993652 L7.021964073181152 10.886343955993652"></path></svg>