<svg xmlns="http://www.w3.org/2000/svg" viewBox="0.0 0.0 24.0 24.0" height="200px" width="200px"><path fill="none" stroke="black" stroke-width=".3" stroke-opacity="1.0"  filling="0" d="M11.353008270263672 11.646137237548828 L11.353008270263672 11.646137237548828 C11.408353805541992 11.649491310119629 11.463699340820312 11.652846336364746 11.519044876098633 11.656200408935547 L11.519044876098633 11.656200408935547 C11.470362663269043 11.842409133911133 11.42168140411377 12.028618812561035 11.37299919128418 12.214827537536621 L11.37299919128418 12.214827537536621 C11.426162719726562 12.249700546264648 11.479327201843262 12.28457260131836 11.532490730285645 12.319445610046387 L11.532490730285645 12.319445610046387 C11.43957233428955 12.319445610046387 11.346653938293457 12.319445610046387 11.253735542297363 12.319445610046387 L11.253735542297363 12.319445610046387 C11.305817604064941 12.125536918640137 11.357898712158203 11.93162727355957 11.409980773925781 11.73771858215332 L11.409980773925781 11.73771858215332 C11.3657808303833 11.732028007507324 11.32158088684082 11.726336479187012 11.27738094329834 11.720645904541016 L11.27738094329834 11.720645904541016 C11.302590370178223 11.695809364318848 11.327798843383789 11.670973777770996 11.353008270263672 11.646137237548828 L11.353008270263672 11.646137237548828"></path></svg>