<svg xmlns="http://www.w3.org/2000/svg" viewBox="0.0 0.0 24.0 24.0" height="200px" width="200px"><path fill="none" stroke="black" stroke-width=".3" stroke-opacity="1.0"  filling="0" d="M12.345244407653809 11.83906364440918 L12.345244407653809 11.83906364440918 C12.40158748626709 11.878032684326172 12.444740295410156 11.941308975219727 12.46338939666748 12.007227897644043 L12.46338939666748 12.007227897644043 C12.410017013549805 11.983636856079102 12.356644630432129 11.96004581451416 12.303272247314453 11.936454772949219 L12.303272247314453 11.936454772949219 C12.315954208374023 12.057136535644531 12.328636169433594 12.177818298339844 12.341318130493164 12.298500061035156 L12.341318130493164 12.298500061035156 C12.360581398010254 12.24555492401123 12.37984561920166 12.192608833312988 12.39910888671875 12.139663696289062 L12.39910888671875 12.139663696289062 C12.39996337890625 12.200390815734863 12.40081787109375 12.261117935180664 12.40167236328125 12.321845054626465 L12.40167236328125 12.321845054626465 C12.363544464111328 12.321845054626465 12.325417518615723 12.321845054626465 12.2872896194458 12.321845054626465 L12.2872896194458 12.321845054626465 C12.271004676818848 12.160582542419434 12.207688331604004 11.924789428710938 12.345244407653809 11.83906364440918 L12.345244407653809 11.83906364440918"></path></svg>