<svg xmlns="http://www.w3.org/2000/svg" viewBox="0.0 0.0 24.0 24.0" height="200px" width="200px"><path fill="none" stroke="black" stroke-width=".3" stroke-opacity="1.0"  filling="0" d="M4.364426612854004 10.842109680175781 L4.364426612854004 10.842109680175781 C5.118104457855225 11.051955223083496 5.505871295928955 11.217601776123047 5.371854305267334 12.056236267089844 L5.371854305267334 12.056236267089844 C5.182090759277344 12.044990539550781 4.9923272132873535 12.033745765686035 4.802563667297363 12.022500038146973 L4.802563667297363 12.022500038146973 C4.782338619232178 11.870407104492188 4.756188869476318 11.71895694732666 4.7235541343688965 11.569036483764648 L4.7235541343688965 11.569036483764648 C4.646690845489502 11.56905460357666 4.569827556610107 11.569073677062988 4.492964267730713 11.569091796875 L4.492964267730713 11.569091796875 C4.5884318351745605 12.24321460723877 5.7242865562438965 12.726970672607422 5.427736282348633 13.473981857299805 C4.86781644821167 14.884422302246094 3.8080697059631348 14.070965766906738 3.7131824493408203 12.99267292022705 L3.7131824493408203 12.99267292022705 C3.9314186573028564 12.978963851928711 4.149654865264893 12.965254783630371 4.36789083480835 12.951545715332031 L4.36789083480835 12.951545715332031 C4.407365798950195 13.500788688659668 4.891138076782227 13.597057342529297 4.746218681335449 13.148454666137695 C4.533979415893555 12.491462707519531 2.6357645988464355 11.44758129119873 4.364426612854004 10.842109680175781 L4.364426612854004 10.842109680175781"></path></svg>