<svg xmlns="http://www.w3.org/2000/svg" viewBox="0.0 0.0 24.0 24.0" height="200px" width="200px"><path fill="none" stroke="black" stroke-width=".3" stroke-opacity="1.0"  filling="0" d="M15.651052474975586 10.861090660095215 L15.651052474975586 10.861090660095215 C16.730186462402344 11.218881607055664 16.254545211791992 13.43199348449707 16.254545211791992 14.229654312133789 L16.254545211791992 14.229654312133789 C16.03636360168457 14.229654312133789 15.818181991577148 14.229654312133789 15.600000381469727 14.229654312133789 L15.600000381469727 14.229654312133789 C15.599474906921387 13.379104614257812 15.188509941101074 10.09563159942627 15.218782424926758 12.710235595703125 C15.22468090057373 13.219670295715332 15.244994163513184 13.728940963745117 15.245399475097656 14.238409042358398 L15.245399475097656 14.238409042358398 C13.418318748474121 14.238409042358398 15.555254936218262 12.110214233398438 14.503226280212402 11.679899215698242 C13.74912166595459 11.371444702148438 14.226219177246094 13.79602336883545 14.204317092895508 14.263089179992676 L14.204317092895508 14.263089179992676 C12.676092147827148 14.254423141479492 13.501418113708496 12.101126670837402 13.499970436096191 10.93966293334961 L13.499970436096191 10.93966293334961 C13.723960876464844 10.926135063171387 13.947952270507812 10.91260814666748 14.171942710876465 10.899080276489258 L14.171942710876465 10.899080276489258 C14.178505897521973 10.980317115783691 14.185070037841797 11.061553001403809 14.191633224487305 11.142789840698242 L14.191633224487305 11.142789840698242 C14.466042518615723 10.986123085021973 14.853074073791504 10.969764709472656 15.138814926147461 11.104662895202637 L15.138814926147461 11.104662895202637 C15.309560775756836 11.02347183227539 15.480306625366211 10.942281723022461 15.651052474975586 10.861090660095215 L15.651052474975586 10.861090660095215"></path></svg>