<svg xmlns="http://www.w3.org/2000/svg" viewBox="0.0 0.0 24.0 24.0" height="200px" width="200px"><path fill="none" stroke="black" stroke-width=".3" stroke-opacity="1.0"  filling="0" d="M11.490354537963867 11.399999618530273 L11.490354537963867 11.399999618530273 C11.498417854309082 11.486808776855469 11.506482124328613 11.573617935180664 11.514545440673828 11.66042709350586 L11.514545440673828 11.66042709350586 C11.409835815429688 11.671426773071289 11.305127143859863 11.682427406311035 11.200417518615723 11.693427085876465 L11.200417518615723 11.693427085876465 C11.211790084838867 11.779136657714844 11.223163604736328 11.864845275878906 11.234536170959473 11.950554847717285 L11.234536170959473 11.950554847717285 C11.30833625793457 11.940773010253906 11.382136344909668 11.930992126464844 11.455936431884766 11.921210289001465 L11.455936431884766 11.921210289001465 C11.462308883666992 12.016092300415039 11.468682289123535 12.110973358154297 11.475054740905762 12.205855369567871 L11.475054740905762 12.205855369567871 C11.11499309539795 12.18075180053711 11.154556274414062 12.53059196472168 11.458662986755371 12.498628616333008 L11.458662986755371 12.498628616333008 C11.465580940246582 12.578574180603027 11.47249984741211 12.65851879119873 11.47941780090332 12.73846435546875 L11.47941780090332 12.73846435546875 C11.325681686401367 12.746009826660156 11.171944618225098 12.753554344177246 11.018208503723145 12.761099815368652 L11.018208503723145 12.761099815368652 C11.018208503723145 12.082502365112305 10.694491386413574 11.400954246520996 11.490354537963867 11.399999618530273 L11.490354537963867 11.399999618530273"></path></svg>