<svg xmlns="http://www.w3.org/2000/svg" viewBox="0.0 0.0 24.0 24.0" height="200px" width="200px"><path fill="none" stroke="black" stroke-width=".3" stroke-opacity="1.0"  filling="0" d="M11.55455493927002 11.77478313446045 L11.55455493927002 11.77478313446045 C11.567191123962402 11.779128074645996 11.579828262329102 11.78347396850586 11.592464447021484 11.787818908691406 L11.592464447021484 11.787818908691406 C11.592464447021484 11.920392036437988 11.592464447021484 12.052964210510254 11.592464447021484 12.185537338256836 L11.592464447021484 12.185537338256836 C11.606637001037598 12.18600082397461 11.620809555053711 12.186463356018066 11.634982109069824 12.18692684173584 L11.634982109069824 12.18692684173584 C11.644018173217773 12.050536155700684 11.653054237365723 11.914145469665527 11.662090301513672 11.777754783630371 L11.662090301513672 11.777754783630371 C11.681299209594727 11.78140926361084 11.700509071350098 11.785064697265625 11.719717979431152 11.788719177246094 L11.719717979431152 11.788719177246094 C11.719717979431152 11.949155807495117 11.719717979431152 12.109591484069824 11.719717979431152 12.270028114318848 L11.719717979431152 12.270028114318848 C11.509299278259277 12.204550743103027 11.37863826751709 12.048020362854004 11.55455493927002 11.77478313446045 L11.55455493927002 11.77478313446045"></path></svg>