<svg xmlns="http://www.w3.org/2000/svg" viewBox="0.0 0.0 24.0 24.0" height="200px" width="200px"><path fill="none" stroke="black" stroke-width=".3" stroke-opacity="1.0"  filling="0" d="M11.943845748901367 11.782526969909668 L11.943845748901367 11.782526969909668 C12.08542537689209 11.922857284545898 12.06946086883545 12.098570823669434 11.98483657836914 12.275209426879883 L11.98483657836914 12.275209426879883 C11.971272468566895 12.2728910446167 11.957709312438965 12.270572662353516 11.944145202636719 12.268254280090332 L11.944145202636719 12.268254280090332 C11.944145202636719 12.125718116760254 11.944145202636719 11.983181953430176 11.944145202636719 11.840645790100098 L11.944145202636719 11.840645790100098 C11.932836532592773 11.840655326843262 11.921526908874512 11.84066390991211 11.910218238830566 11.840673446655273 L11.910218238830566 11.840673446655273 C11.890254020690918 11.983782768249512 11.870290756225586 12.12689208984375 11.850326538085938 12.270001411437988 L11.850326538085938 12.270001411437988 C11.838354110717773 12.267537117004395 11.82638168334961 12.265073776245117 11.814409255981445 12.262609481811523 L11.814409255981445 12.262609481811523 C11.814409255981445 12.10445499420166 11.814409255981445 11.94629955291748 11.814409255981445 11.788145065307617 L11.814409255981445 11.788145065307617 C11.85755443572998 11.786272048950195 11.900700569152832 11.78439998626709 11.943845748901367 11.782526969909668 L11.943845748901367 11.782526969909668"></path></svg>