<svg xmlns="http://www.w3.org/2000/svg" viewBox="0.0 0.0 24.0 24.0" height="200px" width="200px"><path fill="none" stroke="black" stroke-width=".3" stroke-opacity="1.0"  filling="0" d="M11.728937149047852 11.925382614135742 L11.728937149047852 11.925382614135742 C11.77297306060791 12.001618385314941 11.817008972167969 12.077855110168457 11.861044883728027 12.154090881347656 L11.861044883728027 12.154090881347656 C11.879745483398438 12.188536643981934 11.898445129394531 12.222981452941895 11.917145729064941 12.257427215576172 L11.917145729064941 12.257427215576172 C11.908164024353027 12.264208793640137 11.899182319641113 12.270991325378418 11.8902006149292 12.277772903442383 L11.8902006149292 12.277772903442383 C11.85890007019043 12.241545677185059 11.827600479125977 12.205318450927734 11.796299934387207 12.16909122467041 L11.796299934387207 12.16909122467041 C11.786636352539062 12.202973365783691 11.776972770690918 12.236854553222656 11.767309188842773 12.270736694335938 L11.767309188842773 12.270736694335938 C11.756746292114258 12.270227432250977 11.746182441711426 12.269718170166016 11.73561954498291 12.269208908081055 L11.73561954498291 12.269208908081055 C11.733391761779785 12.154600143432617 11.731164932250977 12.03999137878418 11.728937149047852 11.925382614135742 L11.728937149047852 11.925382614135742"></path></svg>