<svg xmlns="http://www.w3.org/2000/svg" viewBox="0.0 0.0 24.0 24.0" height="200px" width="200px"><path fill="none" stroke="black" stroke-width=".3" stroke-opacity="1.0"  filling="0" d="M10.768254280090332 11.803064346313477 L10.768254280090332 11.803064346313477 C10.804218292236328 11.817373275756836 10.840181350708008 11.831681251525879 10.876145362854004 11.845990180969238 L10.876145362854004 11.845990180969238 C10.876145362854004 11.91384506225586 10.876145362854004 11.98169994354248 10.876145362854004 12.049554824829102 L10.876145362854004 12.049554824829102 C10.834500312805176 12.052927017211914 10.792854309082031 12.056300163269043 10.751209259033203 12.059672355651855 L10.751209259033203 12.059672355651855 C10.751209259033203 12.11003589630127 10.751209259033203 12.160399436950684 10.751209259033203 12.210762977600098 L10.751209259033203 12.210762977600098 C10.758963584899902 12.214926719665527 10.766717910766602 12.219091415405273 10.7744722366333 12.223255157470703 L10.7744722366333 12.223255157470703 C10.80750846862793 12.177727699279785 10.840545654296875 12.132200241088867 10.873581886291504 12.08667278289795 L10.873581886291504 12.08667278289795 C10.861747741699219 12.55762004852295 10.437152862548828 12.039273262023926 10.768254280090332 11.803064346313477 L10.768254280090332 11.803064346313477"></path></svg>