<svg xmlns="http://www.w3.org/2000/svg" viewBox="0.0 0.0 24.0 24.0" height="200px" width="200px"><path fill="none" stroke="black" stroke-width=".3" stroke-opacity="1.0"  filling="0" d="M11.90800952911377 11.651154518127441 L11.90800952911377 11.651154518127441 C11.797536849975586 11.696435928344727 11.687064170837402 11.741718292236328 11.576591491699219 11.786999702453613 L11.576591491699219 11.786999702453613 C11.551309585571289 11.837163925170898 11.526026725769043 11.887327194213867 11.500744819641113 11.937491416931152 L11.500744819641113 11.937491416931152 C11.594071388244629 11.94339370727539 11.687278747558594 11.959432601928711 11.777236938476562 11.984972953796387 L11.777236938476562 11.984972953796387 C11.667272567749023 12.020000457763672 11.5573091506958 12.05502700805664 11.447344779968262 12.090054512023926 L11.447344779968262 12.090054512023926 C11.427599906921387 12.160581588745117 11.407854080200195 12.231109619140625 11.38810920715332 12.301636695861816 L11.38810920715332 12.301636695861816 C11.519705772399902 12.290416717529297 11.6864013671875 12.273555755615234 11.778736114501953 12.367990493774414 L11.778736114501953 12.367990493774414 C11.587190628051758 12.382609367370605 11.395645141601562 12.39722728729248 11.204099655151367 12.411846160888672 L11.204099655151367 12.411846160888672 C11.326324462890625 12.088720321655273 11.563319206237793 11.674345016479492 11.90800952911377 11.651154518127441 L11.90800952911377 11.651154518127441"></path></svg>