<svg xmlns="http://www.w3.org/2000/svg" viewBox="0.0 0.0 24.0 24.0" height="200px" width="200px"><path fill="none" stroke="black" stroke-width=".3" stroke-opacity="1.0"  filling="0" d="M22.014022827148438 9.648136138916016 L22.014022827148438 9.648136138916016 C23.086668014526367 9.656550407409668 23.201030731201172 9.53077220916748 23.065034866333008 10.539326667785645 L23.065034866333008 10.539326667785645 C22.165679931640625 10.68226432800293 21.811887741088867 11.082038879394531 22.890705108642578 11.329798698425293 L22.890705108642578 11.329798698425293 C22.878751754760742 11.620516777038574 22.866796493530273 11.911235809326172 22.854843139648438 12.201953887939453 L22.854843139648438 12.201953887939453 C22.633989334106445 12.23425579071045 22.439247131347656 12.247600555419922 22.22132110595703 12.202498435974121 L22.22132110595703 12.202498435974121 C22.22176742553711 12.525465965270996 22.22713279724121 12.847488403320312 22.22726821899414 13.1708984375 L22.22726821899414 13.1708984375 C22.52043342590332 13.18449878692627 22.813596725463867 13.198099136352539 23.106761932373047 13.211699485778809 L23.106761932373047 13.211699485778809 C23.099905014038086 13.432162284851074 23.226232528686523 14.100363731384277 22.839954376220703 13.984281539916992 L22.839954376220703 13.984281539916992 C20.745113372802734 14.47741985321045 21.17086410522461 13.109648704528809 21.160877227783203 11.477045059204102 C21.159832000732422 11.306233406066895 21.110576629638672 9.770708084106445 21.225461959838867 9.673308372497559 C21.42605972290039 9.503240585327148 21.75129508972168 9.659831047058105 22.014022827148438 9.648136138916016 L22.014022827148438 9.648136138916016"></path></svg>