<svg xmlns="http://www.w3.org/2000/svg" viewBox="0.0 0.0 24.0 24.0" height="200px" width="200px"><path fill="none" stroke="black" stroke-width=".3" stroke-opacity="1.0"  filling="0" d="M2.301546096801758 9.636190414428711 L2.301546096801758 9.636190414428711 C3.1513783931732178 9.65070629119873 3.549088716506958 10.38730525970459 3.6372270584106445 11.103599548339844 L3.6372270584106445 11.103599548339844 C3.3371191024780273 11.106950759887695 3.0578880310058594 11.07420825958252 2.7610092163085938 11.033591270446777 L2.7610092163085938 11.033591270446777 C2.706249952316284 10.83249568939209 2.453498601913452 10.699711799621582 2.246127128601074 10.678854942321777 L2.246127128601074 10.678854942321777 C2.0325472354888916 11.296667098999023 3.0613603591918945 11.918474197387695 3.368345260620117 12.249163627624512 C3.9928998947143555 12.921945571899414 3.4940154552459717 13.70571231842041 3.11959171295166 14.287581443786621 L3.11959171295166 14.287581443786621 C1.5528966188430786 15.013349533081055 0.12391257286071777 12.706007957458496 1.9442176818847656 12.879598617553711 L1.9442176818847656 12.879598617553711 C1.9086745977401733 13.238815307617188 2.051727294921875 13.691204071044922 2.4806995391845703 13.430290222167969 L2.4806995391845703 13.430290222167969 C2.103210926055908 12.28478717803955 -0.5046586990356445 10.152144432067871 2.301546096801758 9.636190414428711 L2.301546096801758 9.636190414428711"></path></svg>