<svg xmlns="http://www.w3.org/2000/svg" viewBox="0.0 0.0 24.0 24.0" height="200px" width="200px"><path fill="none" stroke="black" stroke-width=".3" stroke-opacity="1.0"  filling="0" d="M13.096254348754883 11.921454429626465 L13.096254348754883 11.921454429626465 C13.158108711242676 11.929454803466797 13.219963073730469 11.937454223632812 13.281817436218262 11.945454597473145 L13.281817436218262 11.945454597473145 C13.281817436218262 11.97272777557373 13.281817436218262 12.0 13.281817436218262 12.027273178100586 L13.281817436218262 12.027273178100586 C13.246326446533203 12.097399711608887 13.210835456848145 12.167527198791504 13.175344467163086 12.237653732299805 L13.175344467163086 12.237653732299805 C13.210835456848145 12.240254402160645 13.246326446533203 12.242854118347168 13.281817436218262 12.245454788208008 L13.281817436218262 12.245454788208008 C13.281817436218262 12.254545211791992 13.281817436218262 12.263636589050293 13.281817436218262 12.272727012634277 L13.281817436218262 12.272727012634277 C13.215054512023926 12.272727012634277 13.148290634155273 12.272727012634277 13.081527709960938 12.272727012634277 L13.081527709960938 12.272727012634277 C13.12474536895752 12.180426597595215 13.167963981628418 12.088127136230469 13.211181640625 11.995826721191406 L13.211181640625 11.995826721191406 C13.170927047729492 11.981844902038574 13.130672454833984 11.967863082885742 13.090417861938477 11.95388126373291 L13.090417861938477 11.95388126373291 C13.092363357543945 11.943072319030762 13.094308853149414 11.932263374328613 13.096254348754883 11.921454429626465 L13.096254348754883 11.921454429626465"></path></svg>