<svg xmlns="http://www.w3.org/2000/svg" viewBox="0.0 0.0 24.0 24.0" height="200px" width="200px"><path fill="none" stroke="black" stroke-width=".3" stroke-opacity="1.0"  filling="0" d="M13.1788911819458 11.10946273803711 L13.1788911819458 11.10946273803711 C13.783346176147461 11.10946273803711 14.387800216674805 11.10946273803711 14.992255210876465 11.10946273803711 L14.992255210876465 11.10946273803711 C14.992255210876465 11.231417655944824 14.992255210876465 11.353372573852539 14.992255210876465 11.475327491760254 L14.992255210876465 11.475327491760254 C14.53418254852295 11.475327491760254 14.076108932495117 11.475327491760254 13.618036270141602 11.475327491760254 L13.618036270141602 11.475327491760254 C13.618036270141602 11.585018157958984 13.618036270141602 11.694709777832031 13.618036270141602 11.804400444030762 L13.618036270141602 11.804400444030762 C13.98746395111084 11.804400444030762 14.356890678405762 11.804400444030762 14.726318359375 11.804400444030762 L14.726318359375 11.804400444030762 C14.72464370727539 12.47398853302002 14.185356140136719 12.190963745117188 13.616782188415527 12.190963745117188 L13.616782188415527 12.190963745117188 C13.616782188415527 12.343281745910645 13.616782188415527 12.495600700378418 13.616782188415527 12.647918701171875 L13.616782188415527 12.647918701171875 C14.074809074401855 12.647918701171875 14.5328369140625 12.647918701171875 14.990863800048828 12.647918701171875 L14.990863800048828 12.647918701171875 C14.990863800048828 12.772627830505371 14.990863800048828 12.897336959838867 14.990863800048828 13.022046089172363 L14.990863800048828 13.022046089172363 C14.396476745605469 13.099326133728027 13.781670570373535 13.036880493164062 13.1788911819458 13.036581039428711 L13.1788911819458 13.036581039428711 C13.1788911819458 12.394207954406738 13.1788911819458 11.751835823059082 13.1788911819458 11.10946273803711 L13.1788911819458 11.10946273803711"></path></svg>