<svg xmlns="http://www.w3.org/2000/svg" viewBox="0.0 0.0 24.0 24.0" height="200px" width="200px"><path fill="none" stroke="black" stroke-width=".3" stroke-opacity="1.0"  filling="0" d="M11.733763694763184 11.85990047454834 L11.733763694763184 11.85990047454834 C11.81221866607666 11.869772911071777 11.89067268371582 11.879646301269531 11.969127655029297 11.889518737792969 L11.969127655029297 11.889518737792969 C11.949191093444824 11.99715518951416 11.929255485534668 12.104790687561035 11.909318923950195 12.212427139282227 L11.909318923950195 12.212427139282227 C11.862337112426758 12.212427139282227 11.81535530090332 12.212427139282227 11.768373489379883 12.212427139282227 L11.768373489379883 12.212427139282227 C11.756836891174316 12.094918251037598 11.74530029296875 11.977409362792969 11.733763694763184 11.85990047454834 L11.733763694763184 11.85990047454834"></path>
<path fill="none" stroke="black" stroke-width=".3" stroke-opacity="1.0"  filling="0" d="M11.78138256072998 11.923036575317383 L11.78138256072998 11.923036575317383 C11.825209617614746 11.923036575317383 11.869036674499512 11.9230375289917 11.912863731384277 11.9230375289917 L11.912863731384277 11.9230375289917 C11.893327713012695 12.009146690368652 11.873790740966797 12.095254898071289 11.854254722595215 12.181364059448242 L11.854254722595215 12.181364059448242 C11.829963684082031 12.095254898071289 11.805673599243164 12.009145736694336 11.78138256072998 11.923036575317383 L11.78138256072998 11.923036575317383"></path></svg>