<svg xmlns="http://www.w3.org/2000/svg" viewBox="0.0 0.0 24.0 24.0" height="200px" width="200px"><path fill="none" stroke="black" stroke-width=".3" stroke-opacity="1.0"  filling="0" d="M11.855782508850098 11.850491523742676 L11.855782508850098 11.850491523742676 C11.883627891540527 11.876655578613281 11.91147232055664 11.90281867980957 11.93931770324707 11.928982734680176 L11.93931770324707 11.928982734680176 C11.895709037780762 11.936046600341797 11.852099418640137 11.943109512329102 11.808490753173828 11.950173377990723 L11.808490753173828 11.950173377990723 C11.808345794677734 11.960273742675781 11.808199882507324 11.970373153686523 11.80805492401123 11.980473518371582 L11.80805492401123 11.980473518371582 C11.880724906921387 12.037775039672852 11.92023754119873 12.15768051147461 11.890909194946289 12.245454788208008 L11.890909194946289 12.245454788208008 C11.881817817687988 12.245454788208008 11.872727394104004 12.245454788208008 11.863636016845703 12.245454788208008 L11.863636016845703 12.245454788208008 C11.830599784851074 12.202409744262695 11.797563552856445 12.159363746643066 11.764527320861816 12.116318702697754 L11.764527320861816 12.116318702697754 C11.79708194732666 12.142146110534668 11.829635620117188 12.167973518371582 11.862190246582031 12.193800926208496 L11.862190246582031 12.193800926208496 C11.885308265686035 12.174500465393066 11.908427238464355 12.155200958251953 11.93154525756836 12.135900497436523 L11.93154525756836 12.135900497436523 C11.868708610534668 12.082927703857422 11.805872917175293 12.029955863952637 11.743036270141602 11.976983070373535 L11.743036270141602 11.976983070373535 C11.780618667602539 11.934819221496582 11.81820011138916 11.892655372619629 11.855782508850098 11.850491523742676 L11.855782508850098 11.850491523742676"></path></svg>