<svg xmlns="http://www.w3.org/2000/svg" viewBox="0.0 0.0 24.0 24.0" height="200px" width="200px"><path fill="none" stroke="black" stroke-width=".3" stroke-opacity="1.0"  filling="0" d="M24.149288177490234 11.154653549194336 L24.149288177490234 11.154653549194336 C24.157289505004883 11.165144920349121 24.1652889251709 11.17563533782959 24.173290252685547 11.186126708984375 L24.173290252685547 11.186126708984375 C23.862590789794922 11.496708869934082 23.551889419555664 11.807290077209473 23.24118995666504 12.11787223815918 L23.24118995666504 12.11787223815918 C23.544681549072266 12.451217651367188 23.84817123413086 12.784563064575195 24.151662826538086 13.117908477783203 L24.151662826538086 13.117908477783203 C23.388525009155273 13.114287376403809 23.288454055786133 12.749387741088867 22.745344161987305 12.20822811126709 L22.745344161987305 12.20822811126709 C22.744443893432617 14.350260734558105 22.285429000854492 12.012882232666016 22.339797973632812 11.161198616027832 L22.339797973632812 11.161198616027832 C22.473115921020508 11.161198616027832 22.606433868408203 11.161198616027832 22.7397518157959 11.161198616027832 L22.7397518157959 11.161198616027832 C22.7397518157959 11.441035270690918 22.7397518157959 11.720870971679688 22.7397518157959 12.000707626342773 L22.7397518157959 12.000707626342773 C23.26300621032715 11.494366645812988 23.43090057373047 11.156136512756348 24.149288177490234 11.154653549194336 L24.149288177490234 11.154653549194336"></path></svg>