<svg xmlns="http://www.w3.org/2000/svg" viewBox="0.0 0.0 24.0 24.0" height="200px" width="200px"><path fill="none" stroke="black" stroke-width=".3" stroke-opacity="1.0"  filling="0" d="M17.763900756835938 11.12724494934082 L17.763900756835938 11.12724494934082 C18.27004051208496 11.12724494934082 19.471582412719727 10.758895874023438 19.472673416137695 11.502272605895996 L19.472673416137695 11.502272605895996 C19.03961944580078 11.502272605895996 18.606565475463867 11.502272605895996 18.173511505126953 11.502272605895996 L18.173511505126953 11.502272605895996 C18.173511505126953 11.631817817687988 18.173511505126953 11.761363983154297 18.173511505126953 11.890909194946289 L18.173511505126953 11.890909194946289 C18.661489486694336 11.890909194946289 19.19936752319336 11.656693458557129 19.200191497802734 12.274773597717285 L19.200191497802734 12.274773597717285 C18.854982376098633 12.274773597717285 18.509775161743164 12.274773597717285 18.164566040039062 12.274773597717285 L18.164566040039062 12.274773597717285 C18.166316986083984 13.030942916870117 18.85790252685547 12.709199905395508 19.464927673339844 12.709199905395508 L19.464927673339844 12.709199905395508 C19.464927673339844 12.832799911499023 19.464927673339844 12.956399917602539 19.464927673339844 13.079999923706055 L19.464927673339844 13.079999923706055 C18.89790916442871 13.079999923706055 18.33089256286621 13.079999923706055 17.763874053955078 13.079999923706055 L17.763874053955078 13.079999923706055 C17.763883590698242 12.429081916809082 17.763891220092773 11.778162956237793 17.763900756835938 11.12724494934082 L17.763900756835938 11.12724494934082"></path></svg>