<svg xmlns="http://www.w3.org/2000/svg" viewBox="0.0 0.0 24.0 24.0" height="200px" width="200px"><path fill="none" stroke="black" stroke-width=".3" stroke-opacity="1.0"  filling="0" d="M12.71473503112793 11.728692054748535 L12.71473503112793 11.728692054748535 C12.727180480957031 11.732173919677734 12.73962688446045 11.735654830932617 12.75207233428955 11.739136695861816 L12.75207233428955 11.739136695861816 C12.748600006103516 11.79120922088623 12.745126724243164 11.843281745910645 12.741654396057129 11.895354270935059 L12.741654396057129 11.895354270935059 C12.857452392578125 11.842915534973145 12.9649658203125 11.713854789733887 13.089545249938965 11.739136695861816 L13.089545249938965 11.739136695861816 C13.031305313110352 11.863531112670898 12.77120304107666 12.177698135375977 12.817035675048828 12.0482177734375 L12.817035675048828 12.0482177734375 C12.586392402648926 12.054343223571777 12.629161834716797 12.163651466369629 12.457498550415039 12.280010223388672 L12.457498550415039 12.280010223388672 C12.44846248626709 12.270846366882324 12.43942642211914 12.261682510375977 12.430390357971191 12.252518653869629 L12.430390357971191 12.252518653869629 C12.525172233581543 12.077909469604492 12.619953155517578 11.903301239013672 12.71473503112793 11.728692054748535 L12.71473503112793 11.728692054748535"></path></svg>