<svg xmlns="http://www.w3.org/2000/svg" viewBox="0.0 0.0 24.0 24.0" height="200px" width="200px"><path fill="none" stroke="black" stroke-width=".3" stroke-opacity="1.0"  filling="0" d="M11.288946151733398 11.099183082580566 L11.288946151733398 11.099183082580566 C11.50744342803955 11.316669464111328 11.400081634521484 11.586739540100098 11.400081634521484 11.876618385314941 L11.400081634521484 11.876618385314941 C11.867493629455566 11.413053512573242 12.053948402404785 11.095288276672363 12.708027839660645 11.113909721374512 L12.708027839660645 11.113909721374512 C12.417845726013184 11.406737327575684 12.127664566040039 11.699563980102539 11.837482452392578 11.992391586303711 L11.837482452392578 11.992391586303711 C12.141927719116211 12.340182304382324 12.44637393951416 12.687973022460938 12.750819206237793 13.03576374053955 L12.750819206237793 13.03576374053955 C11.99739933013916 13.026812553405762 11.891605377197266 12.71306037902832 11.404719352722168 12.116536140441895 L11.404719352722168 12.116536140441895 C11.39686393737793 12.423117637634277 11.389009475708008 12.729700088500977 11.38115406036377 13.03628158569336 L11.38115406036377 13.03628158569336 C10.463939666748047 13.036673545837402 10.724547386169434 11.102272033691406 11.288946151733398 11.099183082580566 L11.288946151733398 11.099183082580566"></path></svg>