<svg xmlns="http://www.w3.org/2000/svg" viewBox="0.0 0.0 24.0 24.0" height="200px" width="200px"><path fill="none" stroke="black" stroke-width=".3" stroke-opacity="1.0"  filling="0" d="M13.59676456451416 11.873807907104492 L13.59676456451416 11.873807907104492 C13.682469367980957 11.913163185119629 13.739487648010254 12.029972076416016 13.729364395141602 12.123735427856445 L13.729364395141602 12.123735427856445 C13.743464469909668 12.150716781616211 13.757564544677734 12.177699089050293 13.7716646194458 12.204680442810059 L13.7716646194458 12.204680442810059 C13.763964653015137 12.20975399017334 13.756263732910156 12.214826583862305 13.748563766479492 12.219900131225586 L13.748563766479492 12.219900131225586 C13.714372634887695 12.178072929382324 13.680182456970215 12.136244773864746 13.645991325378418 12.094417572021484 L13.645991325378418 12.094417572021484 C13.635455131530762 12.134289741516113 13.624918937683105 12.174162864685059 13.61438274383545 12.214035034179688 L13.61438274383545 12.214035034179688 C13.60851001739502 12.213644027709961 13.60263729095459 12.21325397491455 13.59676456451416 12.212862968444824 L13.59676456451416 12.212862968444824 C13.59676456451416 12.099844932556152 13.59676456451416 11.986825942993164 13.59676456451416 11.873807907104492 L13.59676456451416 11.873807907104492"></path></svg>