<svg xmlns="http://www.w3.org/2000/svg" viewBox="0.0 0.0 24.0 24.0" height="200px" width="200px"><path fill="none" stroke="black" stroke-width=".3" stroke-opacity="1.0"  filling="0" d="M4.699472904205322 11.045807838439941 L4.699472904205322 11.045807838439941 C5.352693557739258 11.476860046386719 5.580825328826904 12.306441307067871 5.888509273529053 13.011763572692871 L5.888509273529053 13.011763572692871 C5.4778947830200195 13.033575057983398 5.39791202545166 13.019973754882812 5.236827373504639 12.62727165222168 L5.236827373504639 12.62727165222168 C4.625764846801758 12.626065254211426 4.36175537109375 12.434943199157715 4.102936744689941 13.003963470458984 L4.102936744689941 13.003963470458984 C3.9526093006134033 13.003963470458984 3.8022820949554443 13.003963470458984 3.6519546508789062 13.003963470458984 L3.6519546508789062 13.003963470458984 C3.8819849491119385 12.494443893432617 4.139345169067383 11.111330032348633 4.699472904205322 11.045807838439941 L4.699472904205322 11.045807838439941"></path>
<path fill="none" stroke="black" stroke-width=".3" stroke-opacity="1.0"  filling="0" d="M4.757400035858154 11.573100090026855 L4.757400035858154 11.573100090026855 C4.853091239929199 11.782464027404785 4.948781967163086 11.991827011108398 5.044473171234131 12.201190948486328 L5.044473171234131 12.201190948486328 C4.850200176239014 12.209627151489258 4.655927658081055 12.218064308166504 4.4616546630859375 12.226500511169434 L4.4616546630859375 12.226500511169434 C4.56023645401001 12.008700370788574 4.658818244934082 11.790900230407715 4.757400035858154 11.573100090026855 L4.757400035858154 11.573100090026855"></path></svg>