<svg xmlns="http://www.w3.org/2000/svg" viewBox="0.0 0.0 24.0 24.0" height="200px" width="200px"><path fill="none" stroke="black" stroke-width=".3" stroke-opacity="1.0"  filling="0" d="M21.294490814208984 8.723072052001953 L21.294490814208984 8.723072052001953 C22.445932388305664 8.87793254852295 23.58277702331543 8.813910484313965 24.73696517944336 8.809417724609375 L24.73696517944336 8.809417724609375 C24.790637969970703 9.169990539550781 24.844310760498047 9.530563354492188 24.89798355102539 9.891136169433594 L24.89798355102539 9.891136169433594 C24.887121200561523 9.895881652832031 24.876256942749023 9.900627136230469 24.865394592285156 9.905372619628906 L24.865394592285156 9.905372619628906 C24.483633041381836 9.336923599243164 24.010019302368164 9.15933895111084 23.31821060180664 9.195545196533203 L23.31821060180664 9.195545196533203 C23.31821060180664 10.982131958007812 23.273529052734375 12.777726173400879 23.32082748413086 14.563581466674805 C23.331544876098633 14.968255996704102 23.483169555664062 15.263232231140137 23.908554077148438 15.305509567260742 L23.908554077148438 15.305509567260742 C23.91277313232422 15.31751823425293 23.916990280151367 15.329527854919434 23.92120933532715 15.341536521911621 L23.92120933532715 15.341536521911621 C23.458566665649414 15.52316951751709 22.423484802246094 15.436751365661621 21.919689178466797 15.320181846618652 L21.919689178466797 15.320181846618652 C23.371044158935547 14.332070350646973 22.55457305908203 10.68049144744873 22.55457305908203 9.129981994628906 L22.55457305908203 9.129981994628906 C21.887502670288086 9.193097114562988 21.638914108276367 9.503902435302734 21.118473052978516 9.81209945678711 L21.118473052978516 9.81209945678711 C21.17714500427246 9.449090003967285 21.23581886291504 9.086081504821777 21.294490814208984 8.723072052001953 L21.294490814208984 8.723072052001953"></path></svg>