<svg xmlns="http://www.w3.org/2000/svg" viewBox="0.0 0.0 24.0 24.0" height="200px" width="200px"><path fill="none" stroke="black" stroke-width=".3" stroke-opacity="1.0"  filling="0" d="M14.300644874572754 8.788636207580566 L14.300644874572754 8.788636207580566 C15.948503494262695 8.897995948791504 16.869047164916992 10.326740264892578 16.982635498046875 11.827436447143555 C17.096223831176758 13.328133583068848 16.402854919433594 14.90078353881836 14.82288932800293 15.297954559326172 C13.278743743896484 15.686120986938477 12.430061340332031 13.846065521240234 12.171624183654785 12.706526756286621 C11.766143798828125 10.918619155883789 12.660514831542969 9.364815711975098 14.300644874572754 8.788636207580566 L14.300644874572754 8.788636207580566"></path>
<path fill="none" stroke="black" stroke-width=".3" stroke-opacity="1.0"  filling="0" d="M14.940927505493164 9.127090454101562 L14.940927505493164 9.127090454101562 C16.11214256286621 10.22091007232666 16.4118709564209 11.58909797668457 16.05523681640625 13.17621898651123 C15.938551902770996 13.6954984664917 15.449164390563965 15.318897247314453 14.54768180847168 15.061172485351562 C13.310709953308105 14.707534790039062 12.761617660522461 13.287200927734375 12.845470428466797 11.923683166503906 C12.929323196411133 10.560165405273438 13.646120071411133 9.253463745117188 14.940927505493164 9.127090454101562 L14.940927505493164 9.127090454101562"></path></svg>