<svg xmlns="http://www.w3.org/2000/svg" viewBox="0.0 0.0 24.0 24.0" height="200px" width="200px"><path fill="none" stroke="black" stroke-width=".3" stroke-opacity="1.0"  filling="0" d="M16.458873748779297 8.69241714477539 L16.458873748779297 8.69241714477539 C17.592153549194336 10.29458236694336 18.7452335357666 11.881277084350586 19.898834228515625 13.468853950500488 L19.898834228515625 13.468853950500488 C19.971040725708008 12.518895149230957 20.4418888092041 9.191415786743164 19.415943145751953 8.812580108642578 L19.415943145751953 8.812580108642578 C19.825284957885742 8.74998950958252 20.2730712890625 8.845548629760742 20.69650650024414 8.811516761779785 L20.69650650024414 8.811516761779785 C19.499727249145508 10.111052513122559 20.209089279174805 13.674006462097168 20.209089279174805 15.363625526428223 L20.209089279174805 15.363625526428223 C20.20184326171875 15.366680145263672 20.194599151611328 15.369734764099121 20.187353134155273 15.37278938293457 L20.187353134155273 15.37278938293457 C19.13141441345215 13.842880249023438 17.527219772338867 12.245634078979492 16.79621124267578 10.553535461425781 L16.79621124267578 10.553535461425781 C16.606346130371094 11.469513893127441 16.20412254333496 14.703486442565918 17.234155654907227 15.308945655822754 L17.234155654907227 15.308945655822754 C16.83640480041504 15.271923065185547 16.431533813476562 15.278131484985352 16.0360107421875 15.334146499633789 L16.0360107421875 15.334146499633789 C16.749658584594727 14.719730377197266 16.44552993774414 13.805429458618164 16.445667266845703 12.972241401672363 C16.445899963378906 11.573992729187012 16.563858032226562 10.102641105651855 16.42917251586914 8.709189414978027 L16.42917251586914 8.709189414978027 C16.43907356262207 8.703598976135254 16.448972702026367 8.698007583618164 16.458873748779297 8.69241714477539 L16.458873748779297 8.69241714477539"></path></svg>