<svg xmlns="http://www.w3.org/2000/svg" viewBox="0.0 0.0 24.0 24.0" height="200px" width="200px"><path fill="none" stroke="black" stroke-width=".3" stroke-opacity="1.0"  filling="0" d="M15.327327728271484 8.692581176757812 L15.327327728271484 8.692581176757812 C15.327327728271484 10.542686462402344 15.309454917907715 12.393960952758789 15.328527450561523 14.243972778320312 C15.331793785095215 14.560792922973633 15.55516242980957 15.16626262664795 15.239236831665039 15.190281867980957 C14.75180721282959 15.227339744567871 14.261564254760742 15.190664291381836 13.772727966308594 15.190855026245117 L13.772727966308594 15.190855026245117 C13.772727966308594 14.40827751159668 13.715912818908691 13.60155963897705 13.759800910949707 12.818262100219727 L13.759800910949707 12.818262100219727 C12.06679630279541 12.818262100219727 12.913201332092285 13.524694442749023 12.736038208007812 15.045598983764648 C12.673144340515137 15.585530281066895 11.655365943908691 15.19089412689209 11.111783981323242 15.190963745117188 L11.111783981323242 15.190963745117188 C10.89760684967041 13.05679702758789 11.100391387939453 10.863449096679688 11.100000381469727 8.7188720703125 L11.100000381469727 8.7188720703125 C11.636373519897461 8.7188720703125 12.172745704650879 8.7188720703125 12.709118843078613 8.7188720703125 L12.709118843078613 8.7188720703125 C12.709118843078613 9.456835746765137 12.620698928833008 10.423907279968262 12.708928108215332 11.158608436584473 C12.750511169433594 11.504877090454102 13.723407745361328 11.515191078186035 13.745128631591797 11.18026351928711 C13.745596885681152 11.173036575317383 13.745564460754395 9.375112533569336 13.745564460754395 8.741454124450684 L13.745564460754395 8.741454124450684 C14.152742385864258 8.64433765411377 14.856490135192871 8.7205810546875 15.327327728271484 8.692581176757812 L15.327327728271484 8.692581176757812"></path></svg>