<svg xmlns="http://www.w3.org/2000/svg" viewBox="0.0 0.0 24.0 24.0" height="200px" width="200px"><path fill="none" stroke="black" stroke-width=".3" stroke-opacity="1.0"  filling="0" d="M19.261062622070312 9.879764556884766 L19.261062622070312 9.879764556884766 C19.337526321411133 9.883028030395508 19.413990020751953 9.88629150390625 19.490453720092773 9.889554977416992 L19.490453720092773 9.889554977416992 C19.50088119506836 10.171582221984863 19.511308670043945 10.453609466552734 19.52173614501953 10.735636711120605 L19.52173614501953 10.735636711120605 C19.096092224121094 10.774474143981934 18.611766815185547 10.761808395385742 18.20113754272461 10.774991035461426 L18.20113754272461 10.774991035461426 C18.20113754272461 10.99173641204834 18.20113754272461 11.20848274230957 18.20113754272461 11.425228118896484 L18.20113754272461 11.425228118896484 C18.607065200805664 11.425228118896484 19.012990951538086 11.425228118896484 19.41891860961914 11.425228118896484 L19.41891860961914 11.425228118896484 C19.41891860961914 11.692200660705566 19.41891860961914 11.959173202514648 19.41891860961914 12.22614574432373 L19.41891860961914 12.22614574432373 C19.03876495361328 12.29101848602295 18.610029220581055 12.271926879882812 18.227235794067383 12.272509574890137 L18.227235794067383 12.272509574890137 C18.227235794067383 12.463482856750488 18.227235794067383 12.654455184936523 18.227235794067383 12.845428466796875 L18.227235794067383 12.845428466796875 C18.679027557373047 12.845428466796875 19.136903762817383 12.789230346679688 19.581815719604492 12.877472877502441 L19.581815719604492 12.877472877502441 C19.581953048706055 14.39902114868164 18.527507781982422 13.601686477661133 17.168560028076172 13.826318740844727 L17.168560028076172 13.826318740844727 C16.958730697631836 12.653063774108887 17.07366180419922 11.140495300292969 17.07272720336914 9.92724609375 L17.07272720336914 9.92724609375 C17.801311492919922 9.926607131958008 18.53582191467285 9.952418327331543 19.261062622070312 9.879764556884766 L19.261062622070312 9.879764556884766"></path></svg>