<svg xmlns="http://www.w3.org/2000/svg" viewBox="0.0 0.0 24.0 24.0" height="200px" width="200px"><path fill="none" stroke="black" stroke-width=".3" stroke-opacity="1.0"  filling="0" d="M2.8145456314086914 8.806581497192383 L2.8145456314086914 8.806581497192383 C3.3546183109283447 8.80759048461914 3.894691228866577 8.808599472045898 4.4347639083862305 8.809608459472656 L4.4347639083862305 8.809608459472656 C4.43976354598999 8.81850814819336 4.44476318359375 8.827408790588379 4.44976282119751 8.836308479309082 L4.44976282119751 8.836308479309082 C3.835116386413574 9.33482837677002 4.039745807647705 9.995970726013184 4.035464286804199 10.721944808959961 C4.032344818115234 11.250920295715332 4.025844573974609 11.779870986938477 4.021817207336426 12.308839797973633 C4.017789840698242 12.837807655334473 3.9442267417907715 13.371040344238281 4.0112996101379395 13.895753860473633 C4.134305000305176 14.85802936553955 5.304924488067627 15.483147621154785 6.043036460876465 14.696017265319824 C6.801618576049805 13.88705825805664 6.49086856842041 11.991415023803711 6.4913010597229 11.088528633117676 C6.491485595703125 10.70375919342041 6.76211404800415 9.26749038696289 6.149181842803955 8.833636283874512 L6.149181842803955 8.833636283874512 C6.481327056884766 8.842327117919922 6.813472747802734 8.851017951965332 7.145617961883545 8.859708786010742 L7.145617961883545 8.859708786010742 C6.479212760925293 9.581524848937988 6.793489933013916 11.257251739501953 6.826073169708252 12.720345497131348 C6.858656406402588 14.183439254760742 6.609545707702637 15.43389892578125 4.81636381149292 15.305179595947266 C2.6484100818634033 15.149558067321777 3.27266263961792 12.124757766723633 3.2724366188049316 10.813087463378906 C3.2723495960235596 10.307478904724121 3.596273899078369 9.127657890319824 2.810072898864746 8.852206230163574 L2.810072898864746 8.852206230163574 C2.811563730239868 8.836997985839844 2.8130548000335693 8.821789741516113 2.8145456314086914 8.806581497192383 L2.8145456314086914 8.806581497192383"></path></svg>