<svg xmlns="http://www.w3.org/2000/svg" viewBox="0.0 0.0 24.0 24.0" height="200px" width="200px"><path fill="none" stroke="black" stroke-width=".3" stroke-opacity="1.0"  filling="0" d="M14.150154113769531 10.93636417388916 L14.150154113769531 10.93636417388916 C14.236968994140625 11.030980110168457 14.23641300201416 11.183445930480957 14.236226081848145 11.31185531616211 L14.236226081848145 11.31185531616211 C14.073835372924805 11.31185531616211 13.911444664001465 11.31185531616211 13.749053955078125 11.31185531616211 L13.749053955078125 11.31185531616211 C13.742780685424805 11.449210166931152 13.7365083694458 11.586564064025879 13.73023509979248 11.723918914794922 L13.73023509979248 11.723918914794922 C13.896408081054688 11.723918914794922 14.062580108642578 11.723918914794922 14.228753089904785 11.723918914794922 L14.228753089904785 11.723918914794922 C14.228753089904785 11.852391242980957 14.228753089904785 11.980863571166992 14.228753089904785 12.109335899353027 L14.228753089904785 12.109335899353027 C13.651691436767578 12.109755516052246 13.624740600585938 12.22877025604248 13.722271919250488 12.762382507324219 L13.722271919250488 12.762382507324219 C13.89035415649414 12.762382507324219 14.058435440063477 12.762382507324219 14.226517677307129 12.762382507324219 L14.226517677307129 12.762382507324219 C14.226517677307129 12.881818771362305 14.226517677307129 13.00125503540039 14.226517677307129 13.120691299438477 L14.226517677307129 13.120691299438477 C12.867119789123535 13.18945026397705 13.311667442321777 12.01174545288086 13.334699630737305 10.936609268188477 L13.334699630737305 10.936609268188477 C13.606517791748047 10.936527252197266 13.878335952758789 10.936446189880371 14.150154113769531 10.93636417388916 L14.150154113769531 10.93636417388916"></path></svg>