<svg xmlns="http://www.w3.org/2000/svg" viewBox="0.0 0.0 24.0 24.0" height="200px" width="200px"><path fill="none" stroke="black" stroke-width=".3" stroke-opacity="1.0"  filling="0" d="M10.172727584838867 4.96363639831543 L10.172727584838867 4.96363639831543 C10.227272987365723 4.96363639831543 10.281818389892578 4.96363639831543 10.336363792419434 4.96363639831543 L10.336363792419434 4.96363639831543 C10.435526847839355 5.126918315887451 10.534690856933594 5.2901997566223145 10.633853912353516 5.453481674194336 L10.633853912353516 5.453481674194336 C10.594345092773438 5.418963432312012 10.55483627319336 5.384445667266846 10.515327453613281 5.3499274253845215 L10.515327453613281 5.3499274253845215 C10.575596809387207 5.423806667327881 10.633552551269531 5.52720308303833 10.727836608886719 5.5413818359375 L10.727836608886719 5.5413818359375 C10.764290809631348 5.619009017944336 10.800745964050293 5.69663667678833 10.837200164794922 5.774263858795166 L10.837200164794922 5.774263858795166 C10.822136878967285 5.7827911376953125 10.807072639465332 5.791318416595459 10.792009353637695 5.7998456954956055 L10.792009353637695 5.7998456954956055 C10.459646224975586 5.700644016265869 10.364346504211426 5.252753257751465 10.172727584838867 4.96363639831543 L10.172727584838867 4.96363639831543"></path></svg>