<svg xmlns="http://www.w3.org/2000/svg" viewBox="0.0 0.0 24.0 24.0" height="200px" width="200px"><path fill="none" stroke="black" stroke-width=".3" stroke-opacity="1.0"  filling="0" d="M9.300054550170898 10.909063339233398 L9.300054550170898 10.909063339233398 C9.427309036254883 10.909072875976562 9.554563522338867 10.90908145904541 9.681818008422852 10.909090995788574 L9.681818008422852 10.909090995788574 C9.770368576049805 11.63039493560791 9.709091186523438 12.358368873596191 9.709091186523438 13.084391593933105 L9.709091186523438 13.084391593933105 C9.612672805786133 13.084391593933105 9.516254425048828 13.084391593933105 9.419836044311523 13.084391593933105 L9.419836044311523 13.084391593933105 C9.290389060974121 12.754965782165527 9.220576286315918 12.385896682739258 9.00002670288086 12.109064102172852 L9.00002670288086 12.109064102172852 C9.00002670288086 11.763609886169434 9.00002670288086 11.4181547164917 9.00002670288086 11.072700500488281 L9.00002670288086 11.072700500488281 C9.172310829162598 11.2498140335083 9.182289123535156 11.536970138549805 9.290836334228516 11.75997257232666 L9.290836334228516 11.75997257232666 C9.302372932434082 11.756436347961426 9.313908576965332 11.752899169921875 9.325445175170898 11.74936294555664 L9.325445175170898 11.74936294555664 C9.316981315612793 11.469263076782227 9.308518409729004 11.189163208007812 9.300054550170898 10.909063339233398 L9.300054550170898 10.909063339233398"></path></svg>