<svg xmlns="http://www.w3.org/2000/svg" viewBox="0.0 0.0 24.0 24.0" height="200px" width="200px"><path fill="none" stroke="black" stroke-width=".3" stroke-opacity="1.0"  filling="0" d="M16.042036056518555 11.290908813476562 L16.042036056518555 11.290908813476562 C16.285608291625977 11.290908813476562 16.52918243408203 11.290908813476562 16.772754669189453 11.290908813476562 L16.772754669189453 11.290908813476562 C16.77274513244629 11.309090614318848 16.772737503051758 11.327272415161133 16.772727966308594 11.345454216003418 L16.772727966308594 11.345454216003418 C16.552906036376953 11.540022850036621 16.41633415222168 12.356971740722656 16.312091827392578 12.704973220825195 L16.312091827392578 12.704973220825195 C16.2170467376709 12.704973220825195 16.121999740600586 12.704973220825195 16.026954650878906 12.704973220825195 L16.026954650878906 12.704973220825195 C16.138355255126953 12.329690933227539 16.249753952026367 11.9544095993042 16.361154556274414 11.579127311706543 L16.361154556274414 11.579127311706543 C16.25478172302246 11.573145866394043 16.148408889770508 11.567163467407227 16.042036056518555 11.561182022094727 L16.042036056518555 11.561182022094727 C16.042036056518555 11.471091270446777 16.042036056518555 11.380999565124512 16.042036056518555 11.290908813476562 L16.042036056518555 11.290908813476562"></path></svg>