<svg xmlns="http://www.w3.org/2000/svg" viewBox="0.0 0.0 24.0 24.0" height="200px" width="200px"><path fill="none" stroke="black" stroke-width=".3" stroke-opacity="1.0"  filling="0" d="M28.495773315429688 9.376444816589355 L28.495773315429688 9.376444816589355 C29.269882202148438 9.376444816589355 30.043991088867188 9.376444816589355 30.818099975585938 9.376444816589355 L30.818099975585938 9.376444816589355 C30.818099975585938 11.712505340576172 30.844263076782227 14.0482177734375 30.8454532623291 16.3842830657959 L30.8454532623291 16.3842830657959 C30.844341278076172 16.3842830657959 28.520925521850586 16.3842830657959 28.510854721069336 16.3842830657959 L28.510854721069336 16.3842830657959 C28.4964542388916 16.25571060180664 28.4820556640625 16.12713623046875 28.467655181884766 15.998563766479492 L28.467655181884766 15.998563766479492 C26.447072982788086 16.943302154541016 25.51549530029297 15.891814231872559 25.06722068786621 14.30368423461914 C24.618947982788086 12.715555191040039 24.653980255126953 10.59078598022461 24.566617965698242 9.38896369934082 L24.566617965698242 9.38896369934082 C25.34929847717285 9.38896369934082 26.131980895996094 9.38896369934082 26.914661407470703 9.38896369934082 L26.914661407470703 9.38896369934082 C27.09079933166504 11.011674880981445 27.226930618286133 12.638399124145508 27.406253814697266 14.260418891906738 C27.437942504882812 14.547060012817383 27.322734832763672 15.493160247802734 27.693164825439453 15.545127868652344 C28.87748908996582 15.711277961730957 28.500080108642578 14.400798797607422 28.499244689941406 13.67991828918457 C28.497581481933594 12.244272232055664 28.494075775146484 10.81124210357666 28.495773315429688 9.376444816589355 L28.495773315429688 9.376444816589355"></path></svg>