<svg xmlns="http://www.w3.org/2000/svg" viewBox="0.0 0.0 24.0 24.0" height="200px" width="200px"><path fill="none" stroke="black" stroke-width=".3" stroke-opacity="1.0"  filling="0" d="M11.488418579101562 11.566390037536621 L11.488418579101562 11.566390037536621 C11.488418579101562 11.607563018798828 11.488418579101562 11.648735046386719 11.488418579101562 11.689908027648926 L11.488418579101562 11.689908027648926 C11.419454574584961 11.697244644165039 11.350491523742676 11.704581260681152 11.281527519226074 11.711917877197266 L11.281527519226074 11.711917877197266 C11.68885612487793 11.68289852142334 12.047211647033691 11.452728271484375 12.380481719970703 11.824663162231445 L12.380481719970703 11.824663162231445 C12.106674194335938 12.115400314331055 11.623531341552734 11.85893440246582 12.040172576904297 11.797799110412598 L12.040172576904297 11.797799110412598 C12.10110855102539 11.801353454589844 12.1620454788208 11.804908752441406 12.222981452941895 11.808463096618652 L12.222981452941895 11.808463096618652 C11.662524223327637 11.599654197692871 11.541404724121094 12.226188659667969 10.99470043182373 11.663290023803711 L10.99470043182373 11.663290023803711 C11.159273147583008 11.630990028381348 11.323845863342285 11.598690032958984 11.488418579101562 11.566390037536621 L11.488418579101562 11.566390037536621"></path></svg>