<svg xmlns="http://www.w3.org/2000/svg" viewBox="0.0 0.0 24.0 24.0" height="200px" width="200px"><path fill="none" stroke="black" stroke-width=".3" stroke-opacity="1.0"  filling="0" d="M13.617599487304688 11.56805419921875 L13.617599487304688 11.56805419921875 C14.390104293823242 11.603218078613281 14.244230270385742 11.798649787902832 14.275581359863281 12.487445831298828 L14.275581359863281 12.487445831298828 C14.20337200164795 12.478055000305176 14.131163597106934 12.468664169311523 14.058954238891602 12.459273338317871 L14.058954238891602 12.459273338317871 C14.037399291992188 12.2423095703125 14.01584529876709 12.025346755981445 13.994290351867676 11.808382987976074 L13.994290351867676 11.808382987976074 C13.80482006072998 12.088164329528809 14.016316413879395 12.504154205322266 13.622044563293457 12.468274116516113 L13.622044563293457 12.468274116516113 C13.601971626281738 12.251274108886719 13.581899642944336 12.034274101257324 13.561826705932617 11.81727409362793 L13.561826705932617 11.81727409362793 C13.417085647583008 11.990290641784668 13.418501853942871 12.253059387207031 13.418427467346191 12.478635787963867 L13.418427467346191 12.478635787963867 C13.339873313903809 12.478635787963867 13.26131820678711 12.478635787963867 13.182764053344727 12.478635787963867 L13.182764053344727 12.478635787963867 C13.121252059936523 12.147948265075684 13.294116973876953 11.660232543945312 13.617599487304688 11.56805419921875 L13.617599487304688 11.56805419921875"></path></svg>