<svg xmlns="http://www.w3.org/2000/svg" viewBox="0.0 0.0 24.0 24.0" height="200px" width="200px"><path fill="none" stroke="black" stroke-width=".3" stroke-opacity="1.0"  filling="0" d="M14.277353286743164 10.908899307250977 L14.277353286743164 10.908899307250977 C15.080389022827148 10.909712791442871 14.672806739807129 12.633188247680664 14.672727584838867 13.08771800994873 L14.672727584838867 13.08771800994873 C14.58017349243164 13.08771800994873 14.487618446350098 13.08771800994873 14.395064353942871 13.08771800994873 L14.395064353942871 13.08771800994873 C14.241363525390625 12.72040843963623 14.087663650512695 12.353099822998047 13.93396282196045 11.985790252685547 L13.93396282196045 11.985790252685547 C13.925681114196777 11.988499641418457 13.917399406433105 11.991209030151367 13.909117698669434 11.993918418884277 L13.909117698669434 11.993918418884277 C13.908917427062988 15.39532470703125 13.015047073364258 9.824783325195312 14.019926071166992 11.176336288452148 C14.14993667602539 11.35119915008545 14.154419898986816 11.59730052947998 14.277353286743164 11.777209281921387 L14.277353286743164 11.777209281921387 C14.277353286743164 11.487772941589355 14.277353286743164 11.198335647583008 14.277353286743164 10.908899307250977 L14.277353286743164 10.908899307250977"></path></svg>