<svg xmlns="http://www.w3.org/2000/svg" viewBox="0.0 0.0 24.0 24.0" height="200px" width="200px"><path fill="none" stroke="black" stroke-width=".3" stroke-opacity="1.0"  filling="0" d="M1.7845087051391602 8.01744556427002 L1.7845087051391602 8.01744556427002 C1.8048725128173828 8.09074592590332 1.8252363204956055 8.164045333862305 1.8456001281738281 8.237345695495605 L1.8456001281738281 8.237345695495605 C1.8001638650894165 8.214936256408691 1.7547277212142944 8.192527770996094 1.7092914581298828 8.17011833190918 L1.7092914581298828 8.17011833190918 C1.7316455841064453 8.220746040344238 1.7539997100830078 8.27137279510498 1.7763538360595703 8.322000503540039 L1.7763538360595703 8.322000503540039 C1.7662992477416992 8.326318740844727 1.7562446594238281 8.330636978149414 1.746190071105957 8.334955215454102 L1.746190071105957 8.334955215454102 C1.7139354944229126 8.258018493652344 1.6816810369491577 8.181082725524902 1.6494264602661133 8.104146003723145 L1.6494264602661133 8.104146003723145 C1.6566905975341797 8.099837303161621 1.663954734802246 8.095527648925781 1.6712188720703125 8.091218948364258 L1.6712188720703125 8.091218948364258 C1.6898460388183594 8.110191345214844 1.7084732055664062 8.129164695739746 1.7271003723144531 8.148137092590332 L1.7271003723144531 8.148137092590332 C1.73989999294281 8.104755401611328 1.7526994943618774 8.061373710632324 1.7654991149902344 8.01799201965332 L1.7654991149902344 8.01799201965332 C1.7718356847763062 8.017809867858887 1.7781721353530884 8.017627716064453 1.7845087051391602 8.01744556427002 L1.7845087051391602 8.01744556427002"></path></svg>