<svg xmlns="http://www.w3.org/2000/svg" viewBox="0.0 0.0 24.0 24.0" height="200px" width="200px"><path fill="none" stroke="black" stroke-width=".3" stroke-opacity="1.0"  filling="0" d="M7.392762660980225 10.615527153015137 L7.392762660980225 10.615527153015137 C7.920938491821289 10.640329360961914 10.53905200958252 10.230422973632812 10.069472312927246 11.167335510253906 L10.069472312927246 11.167335510253906 C9.471108436584473 11.711755752563477 8.876526832580566 12.259674072265625 8.245471954345703 12.766471862792969 L8.245471954345703 12.766471862792969 C8.249835968017578 12.774827003479004 8.254199981689453 12.783181190490723 8.258563995361328 12.791536331176758 L8.258563995361328 12.791536331176758 C8.89067268371582 12.791536331176758 9.522782325744629 12.791536331176758 10.154891014099121 12.791536331176758 L10.154891014099121 12.791536331176758 C10.15993595123291 12.932854652404785 10.164981842041016 13.074172973632812 10.170026779174805 13.21549129486084 L10.170026779174805 13.21549129486084 C9.263617515563965 13.21549129486084 8.357208251953125 13.21549129486084 7.450799465179443 13.21549129486084 L7.450799465179443 13.21549129486084 C7.3308868408203125 12.441143035888672 9.041340827941895 11.469353675842285 9.417490005493164 11.053854942321777 L9.417490005493164 11.053854942321777 C9.413780212402344 11.053803443908691 7.375059127807617 11.025594711303711 7.367644309997559 11.025491714477539 L7.367644309997559 11.025491714477539 C7.376017093658447 10.888836860656738 7.384389877319336 10.752182006835938 7.392762660980225 10.615527153015137 L7.392762660980225 10.615527153015137"></path></svg>