<svg xmlns="http://www.w3.org/2000/svg" viewBox="0.0 0.0 24.0 24.0" height="200px" width="200px"><path fill="none" stroke="black" stroke-width=".3" stroke-opacity="1.0"  filling="0" d="M8.718327522277832 11.338635444641113 L8.718327522277832 11.338635444641113 C9.142010688781738 11.346585273742676 9.556804656982422 11.595386505126953 9.866262435913086 11.884880065917969 L9.866262435913086 11.884880065917969 C9.745271682739258 11.884880065917969 9.62428092956543 11.884880065917969 9.503290176391602 11.884880065917969 L9.503290176391602 11.884880065917969 C9.13953685760498 11.30173397064209 8.221640586853027 11.71789836883545 8.519125938415527 11.972509384155273 C8.920637130737305 12.316153526306152 9.569108963012695 11.768729209899902 9.882190704345703 12.436199188232422 C10.363436698913574 13.462183952331543 8.419145584106445 13.166463851928711 8.018209457397461 12.586527824401855 L8.018209457397461 12.586527824401855 C8.160346031188965 12.586527824401855 8.302481651306152 12.586527824401855 8.444618225097656 12.586527824401855 L8.444618225097656 12.586527824401855 C8.600318908691406 12.784725189208984 9.532122611999512 13.341548919677734 9.507953643798828 12.678654670715332 C9.492301940917969 12.249359130859375 6.800414562225342 11.953136444091797 8.718327522277832 11.338635444641113 L8.718327522277832 11.338635444641113"></path></svg>