<svg xmlns="http://www.w3.org/2000/svg" viewBox="0.0 0.0 24.0 24.0" height="200px" width="200px"><path fill="none" stroke="black" stroke-width=".3" stroke-opacity="1.0"  filling="0" d="M14.046435356140137 11.267754554748535 L14.046435356140137 11.267754554748535 C14.658032417297363 11.298318862915039 14.938199043273926 11.369443893432617 15.30782699584961 11.868818283081055 L15.30782699584961 11.868818283081055 C15.158590316772461 11.90512752532959 15.009353637695312 11.941435813903809 14.860116958618164 11.977745056152344 L14.860116958618164 11.977745056152344 C13.657098770141602 10.015594482421875 13.209593772888184 14.228433609008789 14.901790618896484 12.372817039489746 L14.901790618896484 12.372817039489746 C15.029480934143066 12.395771980285645 15.157172203063965 12.418725967407227 15.284862518310547 12.441680908203125 L15.284862518310547 12.441680908203125 C14.723670959472656 14.162948608398438 11.775989532470703 12.410730361938477 13.775372505187988 11.282618522644043 L13.775372505187988 11.282618522644043 C13.784354209899902 11.293118476867676 13.793336868286133 11.303618431091309 13.802318572998047 11.314118385314941 L13.802318572998047 11.314118385314941 C13.88369083404541 11.298664093017578 13.965063095092773 11.283208847045898 14.046435356140137 11.267754554748535 L14.046435356140137 11.267754554748535"></path></svg>