<svg xmlns="http://www.w3.org/2000/svg" viewBox="0.0 0.0 24.0 24.0" height="200px" width="200px"><path fill="none" stroke="black" stroke-width=".3" stroke-opacity="1.0"  filling="0" d="M9.630000114440918 9.29509162902832 L9.630000114440918 9.29509162902832 C9.463288307189941 10.961474418640137 9.402054786682129 12.655830383300781 9.164072036743164 14.31313705444336 L9.164072036743164 14.31313705444336 C8.728193283081055 14.330698013305664 9.132502555847168 12.382225036621094 9.133881568908691 12.1064453125 L9.133881568908691 12.1064453125 C8.971535682678223 12.10334587097168 8.80919075012207 12.100245475769043 8.646844863891602 12.097146034240723 L8.646844863891602 12.097146034240723 C8.5737943649292 12.849019050598145 8.500739097595215 13.60089111328125 8.427680969238281 14.352763175964355 L8.427680969238281 14.352763175964355 C8.344389915466309 14.337872505187988 8.261099815368652 14.322981834411621 8.17780876159668 14.308091163635254 L8.17780876159668 14.308091163635254 C8.30219841003418 13.02226734161377 8.469930648803711 11.735322952270508 8.562626838684082 10.447226524353027 C8.573277473449707 10.29922866821289 8.499373435974121 9.386728286743164 8.740118026733398 9.338479995727539 C8.870820045471191 9.312285423278809 8.740413665771484 11.225626945495605 8.993208885192871 11.417262077331543 C9.274291038513184 11.630340576171875 9.372398376464844 9.527872085571289 9.41683578491211 9.31314468383789 L9.41683578491211 9.31314468383789 C9.487890243530273 9.307126998901367 9.558945655822754 9.301109313964844 9.630000114440918 9.29509162902832 L9.630000114440918 9.29509162902832"></path></svg>