<svg xmlns="http://www.w3.org/2000/svg" viewBox="0.0 0.0 24.0 24.0" height="200px" width="200px"><path fill="none" stroke="black" stroke-width=".3" stroke-opacity="1.0"  filling="0" d="M12.972382545471191 12.070144653320312 L12.972382545471191 12.070144653320312 C13.023773193359375 12.077645301818848 13.075163841247559 12.085144996643066 13.126554489135742 12.092645645141602 L13.126554489135742 12.092645645141602 C13.09119987487793 12.159845352172852 13.055845260620117 12.227046012878418 13.020490646362305 12.294245719909668 L13.020490646362305 12.294245719909668 C13.058500289916992 12.298090934753418 13.096508979797363 12.301937103271484 13.13451862335205 12.305782318115234 L13.13451862335205 12.305782318115234 C13.135082244873047 12.31503677368164 13.135645866394043 12.324291229248047 13.136209487915039 12.333545684814453 L13.136209487915039 12.333545684814453 C13.069709777832031 12.33903694152832 13.003209114074707 12.344527244567871 12.9367094039917 12.350018501281738 L12.9367094039917 12.350018501281738 C12.969291687011719 12.274882316589355 13.001873016357422 12.199745178222656 13.034455299377441 12.124608993530273 L13.034455299377441 12.124608993530273 C13.011018753051758 12.114181518554688 12.98758316040039 12.103754997253418 12.964146614074707 12.093327522277832 L12.964146614074707 12.093327522277832 C12.96689224243164 12.085599899291992 12.969636917114258 12.077872276306152 12.972382545471191 12.070144653320312 L12.972382545471191 12.070144653320312"></path></svg>