<svg xmlns="http://www.w3.org/2000/svg" viewBox="0.0 0.0 24.0 24.0" height="200px" width="200px"><path fill="none" stroke="black" stroke-width=".3" stroke-opacity="1.0"  filling="0" d="M14.482063293457031 8.456974029541016 L14.482063293457031 8.456974029541016 C14.529199600219727 8.466401100158691 14.576335906982422 8.47582721710205 14.623472213745117 8.485254287719727 L14.623472213745117 8.485254287719727 C14.548696517944336 8.752008438110352 14.695316314697266 9.355859756469727 14.347254753112793 9.499255180358887 C14.017169952392578 9.635244369506836 12.256327629089355 9.498371124267578 12.097936630249023 9.664310455322266 L12.097936630249023 9.664310455322266 C11.524151802062988 9.843730926513672 9.326705932617188 10.498303413391113 9.306382179260254 9.829556465148926 L9.306382179260254 9.829556465148926 C10.086634635925293 9.75400447845459 11.520109176635742 10.013229370117188 11.51667308807373 9.043010711669922 L11.51667308807373 9.043010711669922 C10.77610969543457 9.129629135131836 10.03554630279541 9.216246604919434 9.29498291015625 9.302865028381348 L9.29498291015625 9.302865028381348 C9.285901069641113 9.227919578552246 9.27681827545166 9.152975082397461 9.267736434936523 9.07802963256836 L9.267736434936523 9.07802963256836 C10.913507461547852 8.642891883850098 12.796100616455078 8.656036376953125 14.482063293457031 8.456974029541016 L14.482063293457031 8.456974029541016"></path>
<path fill="none" stroke="black" stroke-width=".3" stroke-opacity="1.0"  filling="0" d="M13.747472763061523 8.80156421661377 L13.747472763061523 8.80156421661377 C13.793752670288086 9.741374969482422 12.248757362365723 9.684821128845215 12.435735702514648 8.952054977416992 L12.435735702514648 8.952054977416992 C12.872981071472168 8.901891708374023 13.310227394104004 8.851727485656738 13.747472763061523 8.80156421661377 L13.747472763061523 8.80156421661377"></path></svg>