<svg xmlns="http://www.w3.org/2000/svg" viewBox="0.0 0.0 24.0 24.0" height="200px" width="200px"><path fill="none" stroke="black" stroke-width=".3" stroke-opacity="1.0"  filling="0" d="M11.62617301940918 10.74839973449707 L11.62617301940918 10.74839973449707 C11.655533790588379 10.988116264343262 11.67164421081543 11.2299222946167 11.672699928283691 11.471427917480469 L11.672699928283691 11.471427917480469 C11.745436668395996 11.48660945892334 11.818172454833984 11.501791954040527 11.890909194946289 11.516973495483398 L11.890909194946289 11.516973495483398 C11.892688751220703 11.297056198120117 12.04276180267334 11.077980041503906 12.216490745544434 10.943127632141113 L12.216490745544434 10.943127632141113 C12.243535995483398 11.16357135772705 12.158047676086426 11.373780250549316 12.166635513305664 11.594127655029297 L12.166635513305664 11.594127655029297 C12.255163192749023 11.66752815246582 12.343689918518066 11.740927696228027 12.432217597961426 11.81432819366455 L12.432217597961426 11.81432819366455 C12.344335556030273 11.798755645751953 12.256454467773438 11.783182144165039 12.168572425842285 11.767609596252441 L12.168572425842285 11.767609596252441 C11.953766822814941 12.252423286437988 12.593973159790039 13.252293586730957 11.988927841186523 13.030881881713867 C11.602339744567871 12.889412879943848 11.846986770629883 11.907678604125977 11.859817504882812 11.650472640991211 L11.859817504882812 11.650472640991211 C11.656303405761719 11.46890640258789 11.534984588623047 11.20280933380127 11.3184814453125 11.036945343017578 C10.272140502929688 10.23533821105957 10.587038040161133 13.496612548828125 11.5439453125 12.288300514221191 L11.5439453125 12.288300514221191 C11.566099166870117 12.655911445617676 11.661957740783691 13.007570266723633 10.727700233459473 12.633981704711914 C9.743240356445312 12.240318298339844 10.201876640319824 10.363094329833984 11.484899520874023 10.906118392944336 L11.484899520874023 10.906118392944336 C11.531991004943848 10.853545188903809 11.579081535339355 10.800972938537598 11.62617301940918 10.74839973449707 L11.62617301940918 10.74839973449707"></path></svg>