<svg xmlns="http://www.w3.org/2000/svg" viewBox="0.0 0.0 24.0 24.0" height="200px" width="200px"><path fill="none" stroke="black" stroke-width=".3" stroke-opacity="1.0"  filling="0" d="M20.334980010986328 9.628336906433105 L20.334980010986328 9.628336906433105 C21.184974670410156 9.631950378417969 22.132593154907227 11.303496360778809 22.577722549438477 11.971391677856445 L22.577722549438477 11.971391677856445 C22.58829689025879 11.968927383422852 22.5988712310791 11.966464042663574 22.609445571899414 11.96399974822998 L22.609445571899414 11.96399974822998 C22.609445571899414 11.188990592956543 22.609445571899414 10.413981437683105 22.609445571899414 9.638972282409668 L22.609445571899414 9.638972282409668 C22.997236251831055 9.638972282409668 23.385028839111328 9.638972282409668 23.77281951904297 9.638972282409668 L23.77281951904297 9.638972282409668 C24.210405349731445 10.640844345092773 23.78229522705078 13.439757347106934 23.781816482543945 14.309099197387695 L23.781816482543945 14.309099197387695 C23.505516052246094 14.309099197387695 23.229215621948242 14.309099197387695 22.95291519165039 14.309099197387695 L22.95291519165039 14.309099197387695 C22.945646286010742 14.300182342529297 21.230863571166992 12.196732521057129 21.229717254638672 12.195326805114746 L21.229717254638672 12.195326805114746 C21.229717254638672 12.197896957397461 21.229717254638672 14.314774513244629 21.229717254638672 14.31523609161377 L21.229717254638672 14.31523609161377 C20.827390670776367 14.31523609161377 20.42506217956543 14.31523609161377 20.022735595703125 14.31523609161377 L20.022735595703125 14.31523609161377 C20.022735595703125 12.7606201171875 20.022735595703125 11.205999374389648 20.022735595703125 9.651382446289062 L20.022735595703125 9.651382446289062 C20.12681770324707 9.64370059967041 20.230897903442383 9.636018753051758 20.334980010986328 9.628336906433105 L20.334980010986328 9.628336906433105"></path></svg>