<svg xmlns="http://www.w3.org/2000/svg" viewBox="0.0 0.0 24.0 24.0" height="200px" width="200px"><path fill="none" stroke="black" stroke-width=".3" stroke-opacity="1.0"  filling="0" d="M6.246654510498047 11.95832633972168 L6.246654510498047 11.95832633972168 C6.254454612731934 11.96097183227539 6.262254238128662 11.963617324829102 6.270054340362549 11.966262817382812 L6.270054340362549 11.966262817382812 C6.270054340362549 12.04183578491211 6.270054340362549 12.11740779876709 6.270054340362549 12.192980766296387 L6.270054340362549 12.192980766296387 C6.266163349151611 12.193917274475098 6.262272357940674 12.194853782653809 6.258381366729736 12.19579029083252 L6.258381366729736 12.19579029083252 C6.2502360343933105 12.163853645324707 6.242090702056885 12.131916999816895 6.233945369720459 12.099980354309082 L6.233945369720459 12.099980354309082 C6.231791019439697 12.101144790649414 6.2296366691589355 12.102309226989746 6.227482318878174 12.103473663330078 L6.227482318878174 12.103473663330078 C6.219627380371094 12.119028091430664 6.211772918701172 12.13458251953125 6.203917980194092 12.150136947631836 L6.203917980194092 12.150136947631836 C6.194990634918213 12.14643669128418 6.186063766479492 12.142736434936523 6.177136421203613 12.139036178588867 L6.177136421203613 12.139036178588867 C6.2003092765808105 12.0787992477417 6.22348165512085 12.018563270568848 6.246654510498047 11.95832633972168 L6.246654510498047 11.95832633972168"></path></svg>