<svg xmlns="http://www.w3.org/2000/svg" viewBox="0.0 0.0 24.0 24.0" height="200px" width="200px"><path fill="none" stroke="black" stroke-width=".3" stroke-opacity="1.0"  filling="0" d="M12.426626205444336 9.75791072845459 L12.426626205444336 9.75791072845459 C12.4628267288208 9.784428596496582 12.49902629852295 9.81094741821289 12.535226821899414 9.837465286254883 L12.535226821899414 9.837465286254883 C12.541899681091309 9.816238403320312 12.548571586608887 9.795010566711426 12.555244445800781 9.773783683776855 L12.555244445800781 9.773783683776855 C12.558926582336426 9.773638725280762 12.562607765197754 9.773492813110352 12.566289901733398 9.773347854614258 L12.566289901733398 9.773347854614258 C12.55981731414795 10.92520523071289 12.258074760437012 12.084833145141602 12.179726600646973 13.235373497009277 L12.179726600646973 13.235373497009277 C12.330233573913574 13.266010284423828 12.48039436340332 13.298378944396973 12.630244255065918 13.33208179473877 L12.630244255065918 13.33208179473877 C12.598226547241211 13.57421875 12.566207885742188 13.816354751586914 12.53419017791748 14.058491706848145 L12.53419017791748 14.058491706848145 C12.279413223266602 14.048299789428711 12.02458381652832 14.016687393188477 11.775108337402344 13.963991165161133 L11.775108337402344 13.963991165161133 C11.95630931854248 12.58004379272461 12.155933380126953 11.198545455932617 12.289091110229492 9.808829307556152 L12.289091110229492 9.808829307556152 C12.319372177124023 9.81129264831543 12.349654197692871 9.813756942749023 12.379935264587402 9.8162202835083 L12.379935264587402 9.8162202835083 C12.395499229431152 9.796783447265625 12.411062240600586 9.777347564697266 12.426626205444336 9.75791072845459 L12.426626205444336 9.75791072845459"></path></svg>