<svg xmlns="http://www.w3.org/2000/svg" viewBox="0.0 0.0 24.0 24.0" height="200px" width="200px"><path fill="none" stroke="black" stroke-width=".3" stroke-opacity="1.0"  filling="0" d="M15.233755111694336 9.350263595581055 L15.233755111694336 9.350263595581055 C15.36100959777832 9.360981941223145 15.488264083862305 9.371699333190918 15.615518569946289 9.382417678833008 L15.615518569946289 9.382417678833008 C15.588027954101562 9.58831787109375 15.56053638458252 9.794217109680176 15.533045768737793 10.000117301940918 L15.533045768737793 10.000117301940918 C15.457018852233887 9.993135452270508 15.380990982055664 9.986153602600098 15.304964065551758 9.979171752929688 L15.304964065551758 9.979171752929688 C14.974907875061035 11.389041900634766 15.067252159118652 12.86959171295166 14.787954330444336 14.28482723236084 L14.787954330444336 14.28482723236084 C14.714908599853516 14.28482723236084 14.641862869262695 14.28482723236084 14.568817138671875 14.28482723236084 L14.568817138671875 14.28482723236084 C14.399518013000488 13.470965385437012 15.499825477600098 10.18469524383545 14.614500045776367 9.967690467834473 L14.614500045776367 9.967690467834473 C14.636844635009766 9.677059173583984 14.942404747009277 9.359249114990234 15.233755111694336 9.350263595581055 L15.233755111694336 9.350263595581055"></path></svg>