<svg xmlns="http://www.w3.org/2000/svg" viewBox="0.0 0.0 24.0 24.0" height="200px" width="200px"><path fill="none" stroke="black" stroke-width=".3" stroke-opacity="1.0"  filling="0" d="M10.32962703704834 11.264018058776855 L10.32962703704834 11.264018058776855 C10.439854621887207 11.590690612792969 10.550081253051758 11.917364120483398 10.660308837890625 12.244036674499512 L10.660308837890625 12.244036674499512 C10.761127471923828 11.918827056884766 10.861945152282715 11.593618392944336 10.962763786315918 11.26840877532959 L10.962763786315918 11.26840877532959 C11.04608154296875 11.26840877532959 11.129400253295898 11.26840877532959 11.21271800994873 11.26840877532959 L11.21271800994873 11.26840877532959 C11.071345329284668 11.747400283813477 10.929972648620605 12.226390838623047 10.788599967956543 12.705382347106934 L10.788599967956543 12.705382347106934 C10.706018447875977 12.705382347106934 10.623435974121094 12.705382347106934 10.540854454040527 12.705382347106934 L10.540854454040527 12.705382347106934 C10.38614559173584 12.228809356689453 10.231435775756836 11.752236366271973 10.076726913452148 11.275663375854492 L10.076726913452148 11.275663375854492 C10.16020393371582 11.263290405273438 10.245238304138184 11.264187812805176 10.32962703704834 11.264018058776855 L10.32962703704834 11.264018058776855"></path></svg>