<svg xmlns="http://www.w3.org/2000/svg" viewBox="0.0 0.0 24.0 24.0" height="200px" width="200px"><path fill="none" stroke="black" stroke-width=".3" stroke-opacity="1.0"  filling="0" d="M10.513391494750977 8.197909355163574 L10.513391494750977 8.197909355163574 C10.531354904174805 8.238091468811035 10.54931926727295 8.27827262878418 10.567282676696777 8.31845474243164 L10.567282676696777 8.31845474243164 C10.61414623260498 8.292582511901855 10.661009788513184 8.266709327697754 10.707873344421387 8.240837097167969 L10.707873344421387 8.240837097167969 C10.703168869018555 10.690627098083496 10.334991455078125 13.147842407226562 10.25405502319336 15.598718643188477 L10.25405502319336 15.598718643188477 C10.24707317352295 15.599982261657715 10.240091323852539 15.601245880126953 10.233109474182129 15.602509498596191 L10.233109474182129 15.602509498596191 C10.229236602783203 15.556536674499512 10.225363731384277 15.510562896728516 10.221490859985352 15.464590072631836 L10.221490859985352 15.464590072631836 C10.13930892944336 15.464590072631836 10.057127952575684 15.464590072631836 9.974946022033691 15.464590072631836 L9.974946022033691 15.464590072631836 C10.190337181091309 13.091198921203613 9.98675537109375 10.519173622131348 10.513391494750977 8.197909355163574 L10.513391494750977 8.197909355163574"></path></svg>