<svg xmlns="http://www.w3.org/2000/svg" viewBox="0.0 0.0 24.0 24.0" height="200px" width="200px"><path fill="none" stroke="black" stroke-width=".3" stroke-opacity="1.0"  filling="0" d="M14.791281700134277 13.464546203613281 L14.791281700134277 13.464546203613281 C14.785109519958496 13.55444622039795 14.778936386108398 13.644346237182617 14.772764205932617 13.734246253967285 L14.772764205932617 13.734246253967285 C14.787009239196777 13.74213695526123 14.801255226135254 13.750028610229492 14.815500259399414 13.757919311523438 L14.815500259399414 13.757919311523438 C13.633524894714355 14.59653091430664 10.875036239624023 13.285385131835938 9.906791687011719 14.52981948852539 L9.906791687011719 14.52981948852539 C11.567756652832031 14.624046325683594 13.18882942199707 14.138833045959473 14.841436386108398 14.128938674926758 L14.841436386108398 14.128938674926758 C14.676627159118652 14.574594497680664 14.170133590698242 14.461429595947266 13.716326713562012 14.51002025604248 C12.449824333190918 14.645627975463867 11.12721061706543 14.889463424682617 9.850419044494629 14.802030563354492 C7.843050003051758 14.664567947387695 10.193800926208496 13.978337287902832 10.776792526245117 13.909040451049805 C11.28546142578125 13.848577499389648 11.788148880004883 13.798247337341309 12.297765731811523 13.744994163513184 C13.12930679321289 13.658102035522461 13.961596488952637 13.566661834716797 14.791281700134277 13.464546203613281 L14.791281700134277 13.464546203613281"></path></svg>