<svg xmlns="http://www.w3.org/2000/svg" viewBox="0.0 0.0 24.0 24.0" height="200px" width="200px"><path fill="none" stroke="black" stroke-width=".3" stroke-opacity="1.0"  filling="0" d="M13.950873374938965 15.444433212280273 L13.950873374938965 15.444433212280273 C14.045037269592285 15.457088470458984 14.139200210571289 15.469742774963379 14.23336410522461 15.48239803314209 L14.23336410522461 15.48239803314209 C14.231842041015625 15.76419448852539 14.230903625488281 16.046112060546875 14.219673156738281 16.327688217163086 L14.219673156738281 16.327688217163086 C13.893109321594238 16.372589111328125 13.566546440124512 16.41748809814453 13.239982604980469 16.46238899230957 L13.239982604980469 16.46238899230957 C13.351357460021973 15.600753784179688 12.669157981872559 15.658244132995605 11.98720932006836 15.991144180297852 L11.98720932006836 15.991144180297852 C11.98720932006836 16.18665313720703 11.98720932006836 16.382160186767578 11.98720932006836 16.577669143676758 L11.98720932006836 16.577669143676758 C11.704745292663574 16.604942321777344 11.422282218933105 16.63221549987793 11.13981819152832 16.659488677978516 L11.13981819152832 16.659488677978516 C11.144240379333496 16.478689193725586 11.14212417602539 16.297651290893555 11.13469123840332 16.11695098876953 L11.13469123840332 16.11695098876953 C10.230303764343262 16.061885833740234 9.659096717834473 16.036306381225586 9.656808853149414 16.95905303955078 L9.656808853149414 16.95905303955078 C9.383427619934082 16.992034912109375 9.110045433044434 17.02501678466797 8.836664199829102 17.057998657226562 L8.836664199829102 17.057998657226562 C8.836664199829102 16.74787139892578 8.836664199829102 16.437744140625 8.836664199829102 16.12761688232422 L8.836664199829102 16.12761688232422 C10.4684476852417 15.69254207611084 12.279021263122559 15.716205596923828 13.950873374938965 15.444433212280273 L13.950873374938965 15.444433212280273"></path></svg>