<svg xmlns="http://www.w3.org/2000/svg" viewBox="0.0 0.0 24.0 24.0" height="200px" width="200px"><path fill="none" stroke="black" stroke-width=".3" stroke-opacity="1.0"  filling="0" d="M14.805953979492188 16.36407470703125 L14.805953979492188 16.36407470703125 C14.814154624938965 16.49962043762207 14.822354316711426 16.635164260864258 14.830554962158203 16.770709991455078 L14.830554962158203 16.770709991455078 C13.113277435302734 17.066387176513672 10.700460433959961 17.889362335205078 8.986173629760742 17.5926570892334 L8.986173629760742 17.5926570892334 C8.986173629760742 17.543720245361328 8.986173629760742 17.494783401489258 8.986173629760742 17.445846557617188 L8.986173629760742 17.445846557617188 C9.330890655517578 17.38157844543457 10.200342178344727 17.292320251464844 10.358154296875 17.191747665405273 L10.358154296875 17.191747665405273 C10.340590476989746 17.093210220336914 10.323027610778809 16.994674682617188 10.305463790893555 16.896137237548828 L10.305463790893555 16.896137237548828 C9.893357276916504 16.928552627563477 9.480467796325684 16.9608097076416 9.06709098815918 16.96227264404297 L9.06709098815918 16.96227264404297 C9.050127029418945 16.901472091674805 9.033164024353027 16.840673446655273 9.016200065612793 16.77987289428711 L9.016200065612793 16.77987289428711 C10.88318920135498 16.508323669433594 12.924144744873047 16.3717041015625 14.805953979492188 16.36407470703125 L14.805953979492188 16.36407470703125"></path>
<path fill="none" stroke="black" stroke-width=".3" stroke-opacity="1.0"  filling="0" d="M13.584573745727539 16.67572021484375 L13.584573745727539 16.67572021484375 C12.92496395111084 17.014171600341797 11.852452278137207 16.980785369873047 11.116827011108398 17.1004638671875 L11.116827011108398 17.1004638671875 C11.097491264343262 17.02490997314453 11.078154563903809 16.949356079101562 11.058818817138672 16.873802185058594 L11.058818817138672 16.873802185058594 C11.899120330810547 16.79856300354004 12.741905212402344 16.718507766723633 13.584573745727539 16.67572021484375 L13.584573745727539 16.67572021484375"></path></svg>