<svg xmlns="http://www.w3.org/2000/svg" viewBox="0.0 0.0 24.0 24.0" height="200px" width="200px"><path fill="none" stroke="black" stroke-width=".3" stroke-opacity="1.0"  filling="0" d="M0.8160285949707031 10.882472038269043 L0.8160285949707031 10.882472038269043 C1.8908843994140625 10.882845878601074 2.5629940032958984 11.019693374633789 1.9795646667480469 12.158945083618164 L1.9795646667480469 12.158945083618164 C2.330980062484741 12.593560218811035 2.380920171737671 13.209046363830566 1.7257089614868164 13.181208610534668 L1.7257089614868164 13.181208610534668 C1.7157363891601562 12.931471824645996 1.705763816833496 12.68173599243164 1.695791244506836 12.431999206542969 L1.695791244506836 12.431999206542969 C1.5442546606063843 12.419208526611328 1.392717957496643 12.406416893005371 1.2411813735961914 12.39362621307373 L1.2411813735961914 12.39362621307373 C1.2411813735961914 12.650744438171387 1.2411813735961914 12.907862663269043 1.2411813735961914 13.1649808883667 L1.2411813735961914 13.1649808883667 C1.0828088521957397 13.174071311950684 0.9244362115859985 13.183162689208984 0.7660636901855469 13.192253112792969 L0.7660636901855469 13.192253112792969 C0.6365818381309509 12.812341690063477 0.7365073561668396 11.307135581970215 0.7364997863769531 10.895835876464844 L0.7364997863769531 10.895835876464844 C0.7630093693733215 10.89138126373291 0.7895190119743347 10.886926651000977 0.8160285949707031 10.882472038269043 L0.8160285949707031 10.882472038269043"></path>
<path fill="none" stroke="black" stroke-width=".3" stroke-opacity="1.0"  filling="0" d="M1.2266178131103516 11.373000144958496 L1.2266178131103516 11.373000144958496 C1.8778072595596313 11.374485969543457 1.8916549682617188 11.905821800231934 1.2590999603271484 11.917064666748047 L1.2590999603271484 11.917064666748047 C1.2482725381851196 11.735710144042969 1.2374452352523804 11.554354667663574 1.2266178131103516 11.373000144958496 L1.2266178131103516 11.373000144958496"></path></svg>