<svg xmlns="http://www.w3.org/2000/svg" viewBox="0.0 0.0 24.0 24.0" height="200px" width="200px"><path fill="none" stroke="black" stroke-width=".3" stroke-opacity="1.0"  filling="0" d="M19.69191551208496 10.776873588562012 L19.69191551208496 10.776873588562012 C19.892107009887695 10.776873588562012 20.092296600341797 10.776873588562012 20.29248809814453 10.776873588562012 L20.29248809814453 10.776873588562012 C20.579790115356445 11.636948585510254 20.70001983642578 12.117639541625977 20.700000762939453 13.06363582611084 L20.700000762939453 13.06363582611084 C20.647045135498047 13.06363582611084 20.59408950805664 13.06363582611084 20.541133880615234 13.06363582611084 L20.541133880615234 13.06363582611084 C20.49818992614746 12.947944641113281 20.455244064331055 12.832254409790039 20.41230010986328 12.71656322479248 L20.41230010986328 12.71656322479248 C20.147817611694336 12.702717781066895 19.883337020874023 12.688872337341309 19.618854522705078 12.675026893615723 L19.618854522705078 12.675026893615723 C19.57710838317871 12.803053855895996 19.535364151000977 12.931081771850586 19.49361801147461 13.05910873413086 L19.49361801147461 13.05910873413086 C19.345308303833008 13.05910873413086 19.19700050354004 13.05910873413086 19.048690795898438 13.05910873413086 L19.048690795898438 13.05910873413086 C19.179718017578125 12.280734062194824 19.463245391845703 11.531524658203125 19.69191551208496 10.776873588562012 L19.69191551208496 10.776873588562012"></path>
<path fill="none" stroke="black" stroke-width=".3" stroke-opacity="1.0"  filling="0" d="M19.994892120361328 11.426809310913086 L19.994892120361328 11.426809310913086 C20.082956314086914 11.696981430053711 20.171018600463867 11.967154502868652 20.259082794189453 12.237326622009277 L20.259082794189453 12.237326622009277 C20.088136672973633 12.237326622009277 19.917192459106445 12.237326622009277 19.746246337890625 12.237326622009277 L19.746246337890625 12.237326622009277 C19.82912826538086 11.967154502868652 19.912010192871094 11.696981430053711 19.994892120361328 11.426809310913086 L19.994892120361328 11.426809310913086"></path></svg>