<svg xmlns="http://www.w3.org/2000/svg" viewBox="0.0 0.0 24.0 24.0" height="200px" width="200px"><path fill="none" stroke="black" stroke-width=".3" stroke-opacity="1.0"  filling="0" d="M26.496273040771484 10.937917709350586 L26.496273040771484 10.937917709350586 C26.889951705932617 11.344685554504395 26.816186904907227 11.526572227478027 26.504974365234375 11.976818084716797 L26.504974365234375 11.976818084716797 C27.446273803710938 13.666892051696777 24.949443817138672 13.227410316467285 25.82806396484375 12.011236190795898 L25.82806396484375 12.011236190795898 C25.507535934448242 11.215433120727539 25.635631561279297 10.940364837646484 26.496273040771484 10.937917709350586 L26.496273040771484 10.937917709350586"></path>
<path fill="none" stroke="black" stroke-width=".3" stroke-opacity="1.0"  filling="0" d="M26.166574478149414 11.267427444458008 L26.166574478149414 11.267427444458008 C26.706392288208008 11.822646141052246 25.73663330078125 11.888657569885254 26.166574478149414 11.267427444458008 L26.166574478149414 11.267427444458008"></path>
<path fill="none" stroke="black" stroke-width=".3" stroke-opacity="1.0"  filling="0" d="M26.19670867919922 12.164863586425781 L26.19670867919922 12.164863586425781 C26.332372665405273 12.335334777832031 26.345401763916016 12.583436012268066 26.34547996520996 12.801301002502441 L26.34547996520996 12.801301002502441 C26.2737979888916 12.820218086242676 26.202117919921875 12.839136123657227 26.130435943603516 12.858053207397461 L26.130435943603516 12.858053207397461 C26.025442123413086 12.542241096496582 25.985715866088867 12.430334091186523 26.19670867919922 12.164863586425781 L26.19670867919922 12.164863586425781"></path></svg>