<svg xmlns="http://www.w3.org/2000/svg" viewBox="0.0 0.0 24.0 24.0" height="200px" width="200px"><path fill="none" stroke="black" stroke-width=".3" stroke-opacity="1.0"  filling="0" d="M11.943135261535645 10.808943748474121 L11.943135261535645 10.808943748474121 C12.289026260375977 10.808943748474121 12.634917259216309 10.808943748474121 12.98080825805664 10.808943748474121 L12.98080825805664 10.808943748474121 C12.97620964050293 11.159285545349121 12.746343612670898 11.348198890686035 12.739690780639648 11.625298500061035 L12.739690780639648 11.625298500061035 C13.5840425491333 12.866433143615723 11.972671508789062 13.732624053955078 11.972671508789062 12.225652694702148 L11.972671508789062 12.225652694702148 C12.099553108215332 12.225662231445312 12.226435661315918 12.225671768188477 12.353317260742188 12.22568130493164 L12.353317260742188 12.22568130493164 C12.353317260742188 12.36453628540039 12.353317260742188 12.503390312194824 12.353317260742188 12.642245292663574 L12.353317260742188 12.642245292663574 C12.76187801361084 12.69789981842041 12.561347961425781 12.268651008605957 12.516463279724121 11.968362808227539 L12.516463279724121 11.968362808227539 C12.362844467163086 11.955726623535156 12.209226608276367 11.943089485168457 12.055607795715332 11.930453300476074 L12.055607795715332 11.930453300476074 C12.199581146240234 11.690553665161133 12.34355354309082 11.450653076171875 12.487526893615723 11.210753440856934 L12.487526893615723 11.210753440856934 C12.322608947753906 11.210753440856934 12.157690048217773 11.210753440856934 11.992772102355957 11.210753440856934 L11.992772102355957 11.210753440856934 C11.976226806640625 11.07681655883789 11.959680557250977 10.942880630493164 11.943135261535645 10.808943748474121 L11.943135261535645 10.808943748474121"></path></svg>