<svg xmlns="http://www.w3.org/2000/svg" viewBox="0.0 0.0 24.0 24.0" height="200px" width="200px"><path fill="none" stroke="black" stroke-width=".3" stroke-opacity="1.0"  filling="0" d="M9.969544410705566 10.909418106079102 L9.969544410705566 10.909418106079102 C10.470996856689453 11.387608528137207 10.529685974121094 11.602460861206055 10.056844711303711 12.127418518066406 L10.056844711303711 12.127418518066406 C10.451210975646973 12.441518783569336 10.362123489379883 12.665719032287598 10.363090515136719 13.194108963012695 L10.363090515136719 13.194108963012695 C10.207072257995605 13.194108963012695 10.051054000854492 13.194108963012695 9.895035743713379 13.194108963012695 L9.895035743713379 13.194108963012695 C9.888851165771484 12.687045097351074 9.988374710083008 12.385981559753418 9.409799575805664 12.382390975952148 L9.409799575805664 12.382390975952148 C9.409871101379395 12.412392616271973 9.375582695007324 13.9661226272583 8.892709732055664 13.119491577148438 C8.795317649841309 12.948731422424316 8.886174201965332 11.113442420959473 8.895109176635742 10.918990135192871 L8.895109176635742 10.918990135192871 C9.25192642211914 10.888010025024414 9.611385345458984 10.909528732299805 9.969544410705566 10.909418106079102 L9.969544410705566 10.909418106079102"></path>
<path fill="none" stroke="black" stroke-width=".3" stroke-opacity="1.0"  filling="0" d="M9.443673133850098 11.394790649414062 L9.443673133850098 11.394790649414062 C9.571382522583008 11.394808769226074 9.699090957641602 11.394827842712402 9.826800346374512 11.394845962524414 L9.826800346374512 11.394845962524414 C9.842491149902344 11.548128128051758 9.858181953430176 11.701409339904785 9.873872756958008 11.854691505432129 L9.873872756958008 11.854691505432129 C9.537904739379883 11.902517318725586 9.12832260131836 11.981464385986328 9.443673133850098 11.394790649414062 L9.443673133850098 11.394790649414062"></path></svg>