<svg xmlns="http://www.w3.org/2000/svg" viewBox="0.0 0.0 24.0 24.0" height="200px" width="200px"><path fill="none" stroke="black" stroke-width=".3" stroke-opacity="1.0"  filling="0" d="M13.589263916015625 10.755870819091797 L13.589263916015625 10.755870819091797 C14.049076080322266 10.909906387329102 14.505623817443848 11.398407936096191 14.508628845214844 11.883325576782227 L14.508628845214844 11.883325576782227 C14.508764266967773 11.88333511352539 14.50890064239502 11.883344650268555 14.50903606414795 11.883354187011719 L14.50903606414795 11.883354187011719 C14.514545440673828 13.718070983886719 12.620057106018066 12.96081256866455 13.088427543640137 11.44843578338623 C13.172707557678223 11.17629337310791 13.422318458557129 10.986725807189941 13.589263916015625 10.755870819091797 L13.589263916015625 10.755870819091797"></path>
<path fill="none" stroke="black" stroke-width=".3" stroke-opacity="1.0"  filling="0" d="M13.58211898803711 11.244272232055664 L13.58211898803711 11.244272232055664 C13.72614574432373 11.244272232055664 13.870173454284668 11.244272232055664 14.014200210571289 11.244272232055664 L14.014200210571289 11.244272232055664 C14.105508804321289 11.681724548339844 14.082566261291504 12.133973121643066 14.00997257232666 12.572563171386719 L14.00997257232666 12.572563171386719 C13.217379570007324 12.573348045349121 13.582024574279785 12.327133178710938 13.58211898803711 11.244272232055664 L13.58211898803711 11.244272232055664"></path></svg>