<svg xmlns="http://www.w3.org/2000/svg" viewBox="0.0 0.0 24.0 24.0" height="200px" width="200px"><path fill="none" stroke="black" stroke-width=".3" stroke-opacity="1.0"  filling="0" d="M15.20009994506836 10.745481491088867 L15.20009994506836 10.745481491088867 C16.242816925048828 10.745481491088867 17.086759567260742 10.806666374206543 16.40094566345215 12.018872261047363 L16.40094566345215 12.018872261047363 C16.538814544677734 12.3363037109375 16.637601852416992 12.683987617492676 16.636363983154297 13.03006362915039 L16.636363983154297 13.03006362915039 C16.481809616088867 13.03006362915039 16.327253341674805 13.03006362915039 16.172698974609375 13.03006362915039 L16.172698974609375 13.03006362915039 C16.172698974609375 12.59657096862793 16.26191520690918 12.176976203918457 15.682991027832031 12.253798484802246 L15.682991027832031 12.253798484802246 C15.684560775756836 12.855941772460938 15.887885093688965 13.037092208862305 15.20009994506836 13.036144256591797 L15.20009994506836 13.036144256591797 C15.20009994506836 12.272589683532715 15.20009994506836 11.50903606414795 15.20009994506836 10.745481491088867 L15.20009994506836 10.745481491088867"></path>
<path fill="none" stroke="black" stroke-width=".3" stroke-opacity="1.0"  filling="0" d="M15.686046600341797 11.246292114257812 L15.686046600341797 11.246292114257812 C15.848182678222656 11.246292114257812 16.010318756103516 11.246292114257812 16.172454833984375 11.246292114257812 L16.172454833984375 11.246292114257812 C16.17143440246582 11.481876373291016 15.946475982666016 11.780580520629883 15.710891723632812 11.781518936157227 L15.710891723632812 11.781518936157227 C15.70261001586914 11.603110313415527 15.694328308105469 11.424700736999512 15.686046600341797 11.246292114257812 L15.686046600341797 11.246292114257812"></path></svg>