<svg xmlns="http://www.w3.org/2000/svg" viewBox="0.0 0.0 24.0 24.0" height="200px" width="200px"><path fill="none" stroke="black" stroke-width=".3" stroke-opacity="1.0"  filling="0" d="M39.084190368652344 6.626181602478027 L39.084190368652344 6.626181602478027 C39.11731719970703 6.64383602142334 39.150447845458984 6.661490440368652 39.18357467651367 6.679144859313965 L39.18357467651367 6.679144859313965 C39.07186508178711 6.889488220214844 39.0172004699707 7.16494607925415 38.75007629394531 7.078281402587891 L38.75007629394531 7.078281402587891 C38.80023956298828 6.97501802444458 38.85040283203125 6.871754169464111 38.90056610107422 6.768490791320801 L38.90056610107422 6.768490791320801 C38.910682678222656 6.767991065979004 38.92080307006836 6.767490863800049 38.9309196472168 6.766991138458252 L38.9309196472168 6.766991138458252 C38.93429183959961 6.800027370452881 38.93766403198242 6.833064079284668 38.941036224365234 6.866100311279297 L38.941036224365234 6.866100311279297 C38.970645904541016 6.866100311279297 39.00025177001953 6.866100311279297 39.02986145019531 6.866100311279297 L39.02986145019531 6.866100311279297 C39.0178337097168 6.84335470199585 39.00580978393555 6.8206095695495605 38.99378204345703 6.797863960266113 L38.99378204345703 6.797863960266113 C39.030555725097656 6.7926459312438965 39.06732940673828 6.7874274253845215 39.104103088378906 6.782209396362305 L39.104103088378906 6.782209396362305 C39.104103088378906 6.775245666503906 39.104103088378906 6.768281936645508 39.104103088378906 6.761318206787109 L39.104103088378906 6.761318206787109 C39.06315612792969 6.761318206787109 39.02220916748047 6.761318206787109 38.98126220703125 6.761318206787109 L38.98126220703125 6.761318206787109 C38.97742462158203 6.7170000076293945 38.97359085083008 6.6726813316345215 38.96975326538086 6.628363132476807 L38.96975326538086 6.628363132476807 C39.00790023803711 6.627635955810547 39.046043395996094 6.626908779144287 39.084190368652344 6.626181602478027 L39.084190368652344 6.626181602478027"></path></svg>