<svg xmlns="http://www.w3.org/2000/svg" viewBox="0.0 0.0 24.0 24.0" height="200px" width="200px"><path fill="none" stroke="black" stroke-width=".3" stroke-opacity="1.0"  filling="0" d="M8.699999809265137 4.745454788208008 L8.699999809265137 4.745454788208008 C8.718181610107422 4.745454788208008 8.736363410949707 4.745454788208008 8.754545211791992 4.745454788208008 L8.754545211791992 4.745454788208008 C8.764145851135254 4.764427185058594 8.7737455368042 4.78339958190918 8.783346176147461 4.802371978759766 L8.783346176147461 4.802371978759766 C8.782164573669434 4.800935745239258 8.78098201751709 4.799499034881592 8.779800415039062 4.798062801361084 L8.779800415039062 4.798062801361084 C8.781363487243652 4.807472229003906 8.782927513122559 4.81688117980957 8.784490585327148 4.826290607452393 L8.784490585327148 4.826290607452393 C8.76541805267334 4.826608657836914 8.746344566345215 4.826927185058594 8.727272033691406 4.827245235443115 L8.727272033691406 4.827245235443115 C8.717018127441406 4.808627128601074 8.70676326751709 4.790008544921875 8.69650936126709 4.771390438079834 L8.69650936126709 4.771390438079834 C8.697672843933105 4.762745380401611 8.698836326599121 4.7540998458862305 8.699999809265137 4.745454788208008 L8.699999809265137 4.745454788208008"></path></svg>