<svg xmlns="http://www.w3.org/2000/svg" viewBox="0.0 0.0 24.0 24.0" height="200px" width="200px"><path fill="none" stroke="black" stroke-width=".3" stroke-opacity="1.0"  filling="0" d="M7.442428112030029 5.753454685211182 L7.442428112030029 5.753454685211182 C7.471673488616943 5.754136562347412 7.500918865203857 5.754817962646484 7.5301642417907715 5.755499839782715 L7.5301642417907715 5.755499839782715 C7.49970006942749 5.917963027954102 7.457019329071045 6.0225090980529785 7.443600654602051 6.19320011138916 L7.443600654602051 6.19320011138916 C7.444846153259277 6.19179105758667 7.446091651916504 6.19038200378418 7.4473371505737305 6.1889729499816895 L7.4473371505737305 6.1889729499816895 C7.437100410461426 6.188954830169678 7.426864147186279 6.188936710357666 7.416627407073975 6.188918590545654 L7.416627407073975 6.188918590545654 C7.4179182052612305 6.190236568450928 7.4192094802856445 6.191555023193359 7.4205002784729 6.192873001098633 L7.4205002784729 6.192873001098633 C7.402327537536621 6.146909236907959 7.3841552734375 6.100945949554443 7.365982532501221 6.0549821853637695 L7.365982532501221 6.0549821853637695 C7.329682350158691 6.063836574554443 7.293382167816162 6.072690963745117 7.257081985473633 6.081545352935791 L7.257081985473633 6.081545352935791 C7.257081985473633 6.036581993103027 7.257081985473633 5.9916181564331055 7.257081985473633 5.946654796600342 L7.257081985473633 5.946654796600342 C7.317000389099121 5.924890995025635 7.376918315887451 5.903127670288086 7.4368367195129395 5.881363868713379 L7.4368367195129395 5.881363868713379 C7.4387006759643555 5.8387274742126465 7.440564155578613 5.796091079711914 7.442428112030029 5.753454685211182 L7.442428112030029 5.753454685211182"></path></svg>