<svg xmlns="http://www.w3.org/2000/svg" viewBox="0.0 0.0 24.0 24.0" height="200px" width="200px"><path fill="none" stroke="black" stroke-width=".3" stroke-opacity="1.0"  filling="0" d="M13.001182556152344 10.141773223876953 L13.001182556152344 10.141773223876953 C13.607063293457031 11.06483268737793 14.23233699798584 12.811870574951172 14.4036283493042 13.880919456481934 L14.4036283493042 13.880919456481934 C13.70226001739502 13.874764442443848 13.895500183105469 13.390727996826172 13.587573051452637 12.859173774719238 C13.356934547424316 12.461038589477539 12.669024467468262 12.790791511535645 12.208909034729004 12.791046142578125 L12.208909034729004 12.791046142578125 C12.044654846191406 13.153364181518555 11.880399703979492 13.515682220458984 11.716145515441895 13.878000259399414 L11.716145515441895 13.878000259399414 C11.578845977783203 13.878000259399414 11.441545486450195 13.878000259399414 11.304245948791504 13.878000259399414 L11.304245948791504 13.878000259399414 C11.869243621826172 12.6322603225708 12.431633949279785 11.385440826416016 13.001182556152344 10.141773223876953 L13.001182556152344 10.141773223876953"></path>
<path fill="none" stroke="black" stroke-width=".3" stroke-opacity="1.0"  filling="0" d="M12.932154655456543 11.177018165588379 L12.932154655456543 11.177018165588379 C12.944245338439941 11.180000305175781 12.956336975097656 11.182981491088867 12.968427658081055 11.18596363067627 L12.968427658081055 11.18596363067627 C13.119564056396484 11.599390983581543 13.270700454711914 12.012818336486816 13.421836853027344 12.42624568939209 L13.421836853027344 12.42624568939209 C13.071309089660645 12.42624568939209 12.720782279968262 12.42624568939209 12.370254516601562 12.42624568939209 L12.370254516601562 12.42624568939209 C12.557554244995117 12.009836196899414 12.744854927062988 11.593427658081055 12.932154655456543 11.177018165588379 L12.932154655456543 11.177018165588379"></path></svg>