<svg xmlns="http://www.w3.org/2000/svg" viewBox="0.0 0.0 24.0 24.0" height="200px" width="200px"><path fill="none" stroke="black" stroke-width=".3" stroke-opacity="1.0"  filling="0" d="M7.551599502563477 5.21034574508667 L7.551599502563477 5.21034574508667 C7.597599506378174 5.229018211364746 7.643599033355713 5.2476911544799805 7.68959903717041 5.266363620758057 L7.68959903717041 5.266363620758057 C7.690399169921875 5.2916364669799805 7.69119930267334 5.316908836364746 7.691999435424805 5.34218168258667 L7.691999435424805 5.34218168258667 C7.619945049285889 5.353436470031738 7.5478901863098145 5.364690780639648 7.475835800170898 5.375945568084717 L7.475835800170898 5.375945568084717 C7.474163055419922 5.374227523803711 7.4724907875061035 5.372509002685547 7.470818042755127 5.370790958404541 L7.470818042755127 5.370790958404541 C7.444451332092285 5.3398590087890625 7.390314102172852 5.336331844329834 7.35117244720459 5.3472819328308105 L7.35117244720459 5.3472819328308105 C7.347463130950928 5.338872909545898 7.343754291534424 5.330463409423828 7.340044975280762 5.322054386138916 L7.340044975280762 5.322054386138916 C7.410562992095947 5.284818172454834 7.481081485748291 5.247581958770752 7.551599502563477 5.21034574508667 L7.551599502563477 5.21034574508667"></path></svg>