<svg xmlns="http://www.w3.org/2000/svg" viewBox="0.0 0.0 24.0 24.0" height="200px" width="200px"><path fill="none" stroke="black" stroke-width=".3" stroke-opacity="1.0"  filling="0" d="M37.18191909790039 5.958109378814697 L37.18191909790039 5.958109378814697 C37.24162673950195 5.958109378814697 37.30133819580078 5.958109378814697 37.361045837402344 5.958109378814697 L37.361045837402344 5.958109378814697 C37.257503509521484 6.039470195770264 37.14510726928711 6.1037917137146 37.032493591308594 6.1722822189331055 L37.032493591308594 6.1722822189331055 C37.01889419555664 6.196909427642822 37.00529098510742 6.221536636352539 36.99169158935547 6.246163845062256 L36.99169158935547 6.246163845062256 C36.970787048339844 6.202230930328369 37.0042610168457 6.145674228668213 37.03243637084961 6.1060099601745605 L37.03243637084961 6.1060099601745605 C36.968101501464844 6.114309787750244 36.90376281738281 6.122610092163086 36.83942794799805 6.1309099197387695 L36.83942794799805 6.1309099197387695 C36.85038375854492 6.09480094909668 36.86133575439453 6.058691501617432 36.872291564941406 6.022582530975342 L36.872291564941406 6.022582530975342 C36.95405197143555 6.042851448059082 37.03472137451172 6.074549674987793 37.10514831542969 6.120764255523682 L37.10514831542969 6.120764255523682 C37.1307373046875 6.0665459632873535 37.15633010864258 6.012327671051025 37.18191909790039 5.958109378814697 L37.18191909790039 5.958109378814697"></path></svg>