<svg xmlns="http://www.w3.org/2000/svg" viewBox="0.0 0.0 24.0 24.0" height="200px" width="200px"><path fill="none" stroke="black" stroke-width=".3" stroke-opacity="1.0"  filling="0" d="M13.080327033996582 11.70559024810791 L13.080327033996582 11.70559024810791 C13.12656307220459 11.70559024810791 13.172800064086914 11.70559024810791 13.219036102294922 11.70559024810791 L13.219036102294922 11.70559024810791 C13.223663330078125 11.763344764709473 13.228291511535645 11.821100234985352 13.232918739318848 11.878854751586914 L13.232918739318848 11.878854751586914 C13.2686185836792 11.890754699707031 13.30431842803955 11.902653694152832 13.340018272399902 11.91455364227295 L13.340018272399902 11.91455364227295 C13.368054389953613 11.845917701721191 13.39609146118164 11.777280807495117 13.424127578735352 11.70864486694336 L13.424127578735352 11.70864486694336 C13.46751880645752 11.70864486694336 13.510910034179688 11.70864486694336 13.554301261901855 11.70864486694336 L13.554301261901855 11.70864486694336 C13.551454544067383 12.241954803466797 13.376620292663574 12.693085670471191 13.403154373168945 12.060708999633789 L13.403154373168945 12.060708999633789 C13.348999977111816 12.060708999633789 13.294845581054688 12.060708999633789 13.240691184997559 12.060708999633789 L13.240691184997559 12.060708999633789 C13.234718322753906 12.1646728515625 13.228745460510254 12.268635749816895 13.222772598266602 12.372599601745605 L13.222772598266602 12.372599601745605 C13.169745445251465 12.372599601745605 13.116717338562012 12.372599601745605 13.063690185546875 12.372599601745605 L13.063690185546875 12.372599601745605 C13.06371784210205 12.14971923828125 13.069007873535156 11.928175926208496 13.080327033996582 11.70559024810791 L13.080327033996582 11.70559024810791"></path></svg>