<svg xmlns="http://www.w3.org/2000/svg" viewBox="0.0 0.0 24.0 24.0" height="200px" width="200px"><path fill="none" stroke="black" stroke-width=".3" stroke-opacity="1.0"  filling="0" d="M10.313945770263672 11.676900863647461 L10.313945770263672 11.676900863647461 C10.374664306640625 11.676900863647461 10.435381889343262 11.676900863647461 10.496100425720215 11.676900863647461 L10.496100425720215 11.676900863647461 C10.553299903869629 11.903119087219238 10.61050033569336 12.129337310791016 10.667699813842773 12.355555534362793 L10.667699813842773 12.355555534362793 C10.600372314453125 12.311837196350098 10.533045768737793 12.268118858337402 10.465718269348145 12.224400520324707 L10.465718269348145 12.224400520324707 C10.369487762451172 12.280088424682617 10.263886451721191 12.324780464172363 10.154399871826172 12.344127655029297 L10.154399871826172 12.344127655029297 C10.207581520080566 12.121718406677246 10.260764122009277 11.899310111999512 10.313945770263672 11.676900863647461 L10.313945770263672 11.676900863647461"></path>
<path fill="none" stroke="black" stroke-width=".3" stroke-opacity="1.0"  filling="0" d="M10.386354446411133 11.848255157470703 L10.386354446411133 11.848255157470703 C10.395564079284668 11.849145889282227 10.404772758483887 11.85003662109375 10.413982391357422 11.850927352905273 L10.413982391357422 11.850927352905273 C10.431163787841797 11.93134593963623 10.448345184326172 12.011763572692871 10.465526580810547 12.092182159423828 L10.465526580810547 12.092182159423828 C10.417736053466797 12.10020923614502 10.36994457244873 12.108236312866211 10.32215404510498 12.116263389587402 L10.32215404510498 12.116263389587402 C10.343554496765137 12.02692699432373 10.364953994750977 11.937591552734375 10.386354446411133 11.848255157470703 L10.386354446411133 11.848255157470703"></path></svg>