<svg xmlns="http://www.w3.org/2000/svg" viewBox="0.0 0.0 24.0 24.0" height="200px" width="200px"><path fill="none" stroke="black" stroke-width=".3" stroke-opacity="1.0"  filling="0" d="M9.627517700195312 11.677445411682129 L9.627517700195312 11.677445411682129 C9.670126914978027 11.677445411682129 9.712736129760742 11.677445411682129 9.755345344543457 11.677445411682129 L9.755345344543457 11.677445411682129 C9.760472297668457 11.737127304077148 9.765600204467773 11.796809196472168 9.770727157592773 11.856491088867188 L9.770727157592773 11.856491088867188 C9.830599784851074 11.856491088867188 9.890472412109375 11.856491088867188 9.950345039367676 11.856491088867188 L9.950345039367676 11.856491088867188 C9.9529447555542 11.798481941223145 9.955545425415039 11.740472793579102 9.958145141601562 11.682463645935059 L9.958145141601562 11.682463645935059 C10.005945205688477 11.682463645935059 10.05374526977539 11.682463645935059 10.101545333862305 11.682463645935059 L10.101545333862305 11.682463645935059 C10.092775344848633 11.916007995605469 10.151847839355469 12.179115295410156 10.032763481140137 12.380208969116211 L10.032763481140137 12.380208969116211 C9.948052406311035 12.297588348388672 9.956632614135742 12.152139663696289 9.955090522766113 12.033819198608398 L9.955090522766113 12.033819198608398 C9.902127265930176 12.033819198608398 9.849163055419922 12.033819198608398 9.796199798583984 12.033819198608398 L9.796199798583984 12.033819198608398 C9.796199798583984 12.13543701171875 9.796199798583984 12.237055778503418 9.796199798583984 12.33867359161377 L9.796199798583984 12.33867359161377 C9.751344680786133 12.353501319885254 9.706490516662598 12.368328094482422 9.661635398864746 12.383155822753906 L9.661635398864746 12.383155822753906 C9.573358535766602 12.164814949035645 9.62806224822998 11.912956237792969 9.627517700195312 11.677445411682129 L9.627517700195312 11.677445411682129"></path></svg>