<svg xmlns="http://www.w3.org/2000/svg" viewBox="0.0 0.0 24.0 24.0" height="200px" width="200px"><path fill="none" stroke="black" stroke-width=".3" stroke-opacity="1.0"  filling="0" d="M11.562517166137695 10.88640022277832 L11.562517166137695 10.88640022277832 C11.725689888000488 11.499001502990723 11.688542366027832 13.643478393554688 10.695571899414062 12.558817863464355 L10.695571899414062 12.558817863464355 C10.478123664855957 12.849820137023926 9.889168739318848 13.387740135192871 9.720680236816406 12.582927703857422 C9.591089248657227 11.963915824890137 9.763962745666504 11.295638084411621 10.21014404296875 10.909147262573242 C10.241182327270508 10.882261276245117 10.877485275268555 11.290656089782715 10.035463333129883 11.290718078613281 L10.035463333129883 11.290718078613281 C9.949763298034668 11.64501953125 10.137632369995117 11.727246284484863 10.447826385498047 11.727246284484863 L10.447826385498047 11.727246284484863 C10.495463371276855 12.125175476074219 9.401225090026855 12.655365943908691 10.663717269897461 12.532282829284668 L10.663717269897461 12.532282829284668 C10.664077758789062 12.123123168945312 10.792497634887695 11.616820335388184 11.290962219238281 11.730191230773926 L11.290962219238281 11.730191230773926 C11.290962219238281 11.405609130859375 11.145705223083496 10.94682788848877 11.562517166137695 10.88640022277832 L11.562517166137695 10.88640022277832"></path>
<path fill="none" stroke="black" stroke-width=".3" stroke-opacity="1.0"  filling="0" d="M11.167009353637695 12.094854354858398 L11.167009353637695 12.094854354858398 C11.740796089172363 12.796221733093262 10.397879600524902 12.255735397338867 11.167009353637695 12.094854354858398 L11.167009353637695 12.094854354858398"></path></svg>