<svg xmlns="http://www.w3.org/2000/svg" viewBox="0.0 0.0 24.0 24.0" height="200px" width="200px"><path fill="none" stroke="black" stroke-width=".3" stroke-opacity="1.0"  filling="0" d="M13.602706909179688 11.683389663696289 L13.602706909179688 11.683389663696289 C13.594243049621582 11.769635200500488 13.585780143737793 11.855880737304688 13.577316284179688 11.942126274108887 L13.577316284179688 11.942126274108887 C13.256826400756836 11.36667537689209 13.582491874694824 12.369860649108887 13.550263404846191 12.454608917236328 L13.550263404846191 12.454608917236328 C13.445664405822754 12.426002502441406 13.337544441223145 12.394026756286621 13.229345321655273 12.401262283325195 L13.229345321655273 12.401262283325195 C13.234272956848145 12.302289962768555 13.2391996383667 12.203317642211914 13.24412727355957 12.104345321655273 L13.24412727355957 12.104345321655273 C13.295121192932129 12.190340042114258 13.363571166992188 12.270218849182129 13.447090148925781 12.325172424316406 L13.447090148925781 12.325172424316406 C13.468544960021973 12.285445213317871 13.489998817443848 12.24571704864502 13.511453628540039 12.205989837646484 L13.511453628540039 12.205989837646484 C13.359044075012207 12.0908842086792 13.251190185546875 11.881443977355957 13.26089859008789 11.690698623657227 L13.26089859008789 11.690698623657227 C13.374835014343262 11.688261985778809 13.488770484924316 11.685826301574707 13.602706909179688 11.683389663696289 L13.602706909179688 11.683389663696289"></path></svg>