<svg xmlns="http://www.w3.org/2000/svg" viewBox="0.0 0.0 24.0 24.0" height="200px" width="200px"><path fill="none" stroke="black" stroke-width=".3" stroke-opacity="1.0"  filling="0" d="M39.84545135498047 3.5454540252685547 L39.84545135498047 3.5454540252685547 C40.09090805053711 3.5454540252685547 40.336360931396484 3.5454540252685547 40.581817626953125 3.5454540252685547 L40.581817626953125 3.5454540252685547 C40.581817626953125 5.427272319793701 40.581817626953125 7.309090614318848 40.581817626953125 9.190909385681152 C40.581817626953125 11.07272720336914 40.581817626953125 12.954545974731445 40.581817626953125 14.83636474609375 C40.581817626953125 16.718183517456055 40.581817626953125 18.60000228881836 40.581817626953125 20.48181915283203 L40.581817626953125 20.48181915283203 C40.35454559326172 20.48181915283203 40.12727355957031 20.48181915283203 39.900001525878906 20.48181915283203 L39.900001525878906 20.48181915283203 C39.89820098876953 18.59994888305664 39.890987396240234 16.718103408813477 39.88235092163086 14.836276054382324 C39.87371063232422 12.954448699951172 39.86365509033203 11.072638511657715 39.85617446899414 9.190837860107422 C39.84869384765625 7.309037208557129 39.843788146972656 5.427245140075684 39.84545135498047 3.5454540252685547 L39.84545135498047 3.5454540252685547"></path></svg>