<svg xmlns="http://www.w3.org/2000/svg" viewBox="0.0 0.0 24.0 24.0" height="200px" width="200px"><path fill="none" stroke="black" stroke-width=".3" stroke-opacity="1.0"  filling="0" d="M12.506263732910156 11.881335258483887 L12.506263732910156 11.881335258483887 C12.606355667114258 11.882024765014648 12.743387222290039 11.854704856872559 12.801490783691406 11.936208724975586 L12.801490783691406 11.936208724975586 C12.734991073608398 11.941608428955078 12.668490409851074 11.947009086608887 12.601990699768066 11.952408790588379 L12.601990699768066 11.952408790588379 C12.603791236877441 11.976990699768066 12.6055908203125 12.001572608947754 12.607391357421875 12.026154518127441 L12.607391357421875 12.026154518127441 C12.63714599609375 12.018754005432129 12.666900634765625 12.011354446411133 12.6966552734375 12.00395393371582 L12.6966552734375 12.00395393371582 C12.702836990356445 12.011017799377441 12.709017753601074 12.018080711364746 12.71519947052002 12.025144577026367 L12.71519947052002 12.025144577026367 C12.666999816894531 12.07691764831543 12.618799209594727 12.128690719604492 12.570599555969238 12.180463790893555 L12.570599555969238 12.180463790893555 C12.652071952819824 12.186591148376465 12.733545303344727 12.192718505859375 12.815017700195312 12.198845863342285 L12.815017700195312 12.198845863342285 C12.726826667785645 12.22168254852295 12.638636589050293 12.244518280029297 12.550445556640625 12.267354965209961 L12.550445556640625 12.267354965209961 C12.535717964172363 12.138681411743164 12.520991325378418 12.010008811950684 12.506263732910156 11.881335258483887 L12.506263732910156 11.881335258483887"></path></svg>