<svg xmlns="http://www.w3.org/2000/svg" viewBox="0.0 0.0 24.0 24.0" height="200px" width="200px"><path fill="none" stroke="black" stroke-width=".3" stroke-opacity="1.0"  filling="0" d="M7.030445098876953 13.389108657836914 L7.030445098876953 13.389108657836914 C7.1333088874816895 13.389108657836914 7.236172676086426 13.389108657836914 7.339036464691162 13.389108657836914 L7.339036464691162 13.389108657836914 C7.339563846588135 13.396708488464355 7.340090751647949 13.404309272766113 7.340618133544922 13.411909103393555 L7.340618133544922 13.411909103393555 C7.296526908874512 13.415900230407715 7.25243616104126 13.419890403747559 7.20834493637085 13.423881530761719 L7.20834493637085 13.423881530761719 C7.20834493637085 13.483681678771973 7.20834493637085 13.54348087310791 7.20834493637085 13.603281021118164 L7.20834493637085 13.603281021118164 C7.25126314163208 13.606389999389648 7.2941813468933105 13.60949993133545 7.337099552154541 13.612608909606934 L7.337099552154541 13.612608909606934 C7.337035655975342 13.617600440979004 7.336972236633301 13.622591018676758 7.336908340454102 13.627582550048828 L7.336908340454102 13.627582550048828 C7.229862689971924 13.637737274169922 7.122817516326904 13.647891998291016 7.015771865844727 13.65804672241211 L7.015771865844727 13.65804672241211 C7.079565048217773 13.594874382019043 7.101792335510254 13.443605422973633 7.030445098876953 13.389108657836914 L7.030445098876953 13.389108657836914"></path></svg>