<svg xmlns="http://www.w3.org/2000/svg" viewBox="0.0 0.0 24.0 24.0" height="200px" width="200px"><path fill="none" stroke="black" stroke-width=".3" stroke-opacity="1.0"  filling="0" d="M14.737527847290039 11.754791259765625 L14.737527847290039 11.754791259765625 C14.877506256103516 11.75522232055664 15.03195858001709 11.854229927062988 15.091336250305176 11.98099136352539 L15.091336250305176 11.98099136352539 C15.26211929321289 12.293737411499023 14.938697814941406 12.327300071716309 14.737527847290039 12.327300071716309 L14.737527847290039 12.327300071716309 C14.737527847290039 12.13646411895752 14.737527847290039 11.945627212524414 14.737527847290039 11.754791259765625 L14.737527847290039 11.754791259765625"></path>
<path fill="none" stroke="black" stroke-width=".3" stroke-opacity="1.0"  filling="0" d="M15.048927307128906 11.86947250366211 L15.048927307128906 11.86947250366211 C14.970008850097656 11.886063575744629 14.891091346740723 11.902654647827148 14.812172889709473 11.919245719909668 L14.812172889709473 11.919245719909668 C14.891091346740723 11.902654647827148 14.970008850097656 11.886063575744629 15.048927307128906 11.86947250366211 L15.048927307128906 11.86947250366211"></path>
<path fill="none" stroke="black" stroke-width=".3" stroke-opacity="1.0"  filling="0" d="M14.844518661499023 12.052800178527832 L14.844518661499023 12.052800178527832 C15.108976364135742 12.075141906738281 15.107048034667969 12.246187210083008 14.844518661499023 12.245072364807129 L14.844518661499023 12.245072364807129 C14.844518661499023 12.180981636047363 14.844518661499023 12.116890907287598 14.844518661499023 12.052800178527832 L14.844518661499023 12.052800178527832"></path></svg>