<svg xmlns="http://www.w3.org/2000/svg" viewBox="0.0 0.0 24.0 24.0" height="200px" width="200px"><path fill="none" stroke="black" stroke-width=".3" stroke-opacity="1.0"  filling="0" d="M5.737936019897461 11.39940071105957 L5.737936019897461 11.39940071105957 C6.921430587768555 11.449849128723145 6.514382362365723 11.781973838806152 6.517963409423828 13.184126853942871 L6.517963409423828 13.184126853942871 C5.502301216125488 13.326281547546387 5.282217502593994 11.855843544006348 6.15651798248291 11.95164680480957 L6.15651798248291 11.95164680480957 C6.15651798248291 11.867764472961426 6.15651798248291 11.783883094787598 6.15651798248291 11.700000762939453 L6.15651798248291 11.700000762939453 C6.1495041847229 11.700000762939453 5.73836612701416 11.700000762939453 5.737936019897461 11.700000762939453 L5.737936019897461 11.700000762939453 C5.737936019897461 11.599801063537598 5.737936019897461 11.499600410461426 5.737936019897461 11.39940071105957 L5.737936019897461 11.39940071105957"></path>
<path fill="none" stroke="black" stroke-width=".3" stroke-opacity="1.0"  filling="0" d="M6.163254261016846 12.256745338439941 L6.163254261016846 12.256745338439941 C6.1629109382629395 12.483040809631348 6.2218475341796875 12.783390998840332 6.045627593994141 12.925363540649414 L6.045627593994141 12.925363540649414 C5.896421432495117 12.643184661865234 5.920245170593262 12.417415618896484 6.163254261016846 12.256745338439941 L6.163254261016846 12.256745338439941"></path></svg>