<svg xmlns="http://www.w3.org/2000/svg" viewBox="0.0 0.0 24.0 24.0" height="200px" width="200px"><path fill="none" stroke="black" stroke-width=".3" stroke-opacity="1.0"  filling="0" d="M8.685791015625 11.318236351013184 L8.685791015625 11.318236351013184 C9.7742919921875 11.3207426071167 9.59100341796875 12.227893829345703 9.466882705688477 13.166863441467285 L9.466882705688477 13.166863441467285 C9.359118461608887 13.166863441467285 9.251355171203613 13.166863441467285 9.143590927124023 13.166863441467285 L9.143590927124023 13.166863441467285 C9.139154434204102 13.138772010803223 9.13471794128418 13.110681533813477 9.130281448364258 13.082590103149414 L9.130281448364258 13.082590103149414 C8.225845336914062 13.24075984954834 8.322157859802246 11.8648042678833 9.125863075256348 11.863718032836914 L9.125863075256348 11.863718032836914 C9.125863075256348 11.793399810791016 9.125863075256348 11.723081588745117 9.125863075256348 11.652763366699219 L9.125863075256348 11.652763366699219 C8.974509239196777 11.637118339538574 8.82315444946289 11.621472358703613 8.67180061340332 11.605827331542969 L8.67180061340332 11.605827331542969 C8.676464080810547 11.509963989257812 8.681127548217773 11.41409969329834 8.685791015625 11.318236351013184 L8.685791015625 11.318236351013184"></path>
<path fill="none" stroke="black" stroke-width=".3" stroke-opacity="1.0"  filling="0" d="M9.136009216308594 12.196718215942383 L9.136009216308594 12.196718215942383 C9.13109302520752 13.062891006469727 8.973176956176758 13.019100189208984 8.973027229309082 12.196744918823242 L8.973027229309082 12.196744918823242 C9.02735424041748 12.196736335754395 9.081682205200195 12.19672679901123 9.136009216308594 12.196718215942383 L9.136009216308594 12.196718215942383"></path></svg>