<svg xmlns="http://www.w3.org/2000/svg" viewBox="0.0 0.0 24.0 24.0" height="200px" width="200px"><path fill="none" stroke="black" stroke-width=".3" stroke-opacity="1.0"  filling="0" d="M7.118209362030029 14.578853607177734 L7.118209362030029 14.578853607177734 C7.155364036560059 14.601754188537598 7.19251823425293 14.624653816223145 7.229672908782959 14.647554397583008 L7.229672908782959 14.647554397583008 C7.1545820236206055 14.648215293884277 7.066593170166016 14.722370147705078 7.06134557723999 14.797280311584473 L7.06134557723999 14.797280311584473 C7.116163730621338 14.790534973144531 7.1709818840026855 14.78378963470459 7.225800037384033 14.777044296264648 L7.225800037384033 14.777044296264648 C7.225809097290039 14.73258113861084 7.225818157196045 14.688117027282715 7.225827217102051 14.643653869628906 L7.225827217102051 14.643653869628906 C7.249072551727295 14.645526885986328 7.272318363189697 14.647398948669434 7.295563697814941 14.649271965026855 L7.295563697814941 14.649271965026855 C7.278491020202637 14.69051742553711 7.261418342590332 14.731762886047363 7.244345664978027 14.773008346557617 L7.244345664978027 14.773008346557617 C7.287863731384277 14.777653694152832 7.3313822746276855 14.782299041748047 7.3749003410339355 14.786944389343262 L7.3749003410339355 14.786944389343262 C7.259100437164307 14.802407264709473 7.143300533294678 14.81787109375 7.027500629425049 14.833333969116211 L7.027500629425049 14.833333969116211 C7.057736873626709 14.748507499694824 7.087973117828369 14.663680076599121 7.118209362030029 14.578853607177734 L7.118209362030029 14.578853607177734"></path></svg>