<svg xmlns="http://www.w3.org/2000/svg" viewBox="0.0 0.0 24.0 24.0" height="200px" width="200px"><path fill="none" stroke="black" stroke-width=".3" stroke-opacity="1.0"  filling="0" d="M16.334917068481445 10.609336853027344 L16.334917068481445 10.609336853027344 C16.90032958984375 10.612068176269531 17.396120071411133 11.29382038116455 16.67599105834961 11.290881156921387 L16.67599105834961 11.290881156921387 C16.65831756591797 11.156126976013184 16.64064598083496 11.021371841430664 16.62297248840332 10.886617660522461 L16.62297248840332 10.886617660522461 C16.573827743530273 10.886617660522461 16.524681091308594 10.886617660522461 16.475536346435547 10.886617660522461 L16.475536346435547 10.886617660522461 C16.363948822021484 11.481949806213379 17.702146530151367 12.636837005615234 16.834745407104492 13.08946418762207 C16.147260665893555 13.44820785522461 15.618488311767578 12.134428024291992 16.445425033569336 12.136663436889648 L16.445425033569336 12.136663436889648 C16.445425033569336 12.487713813781738 16.364896774291992 12.5950345993042 16.615253448486328 12.814663887023926 L16.615253448486328 12.814663887023926 C16.7657527923584 12.658768653869629 16.644811630249023 12.38217830657959 16.65073585510254 12.165573120117188 L16.65073585510254 12.165573120117188 C16.205379486083984 11.727508544921875 15.602747917175293 11.209376335144043 16.334917068481445 10.609336853027344 L16.334917068481445 10.609336853027344"></path></svg>