<svg xmlns="http://www.w3.org/2000/svg" viewBox="0.0 0.0 24.0 24.0" height="200px" width="200px"><path fill="none" stroke="black" stroke-width=".3" stroke-opacity="1.0"  filling="0" d="M11.914255142211914 11.764444351196289 L11.914255142211914 11.764444351196289 C12.034210205078125 11.797335624694824 12.15416431427002 11.83022689819336 12.27411937713623 11.863118171691895 L12.27411937713623 11.863118171691895 C12.25695514678955 11.884017944335938 12.239791870117188 11.904918670654297 12.222627639770508 11.92581844329834 L12.222627639770508 11.92581844329834 C12.141219139099121 11.900118827819824 12.059809684753418 11.874418258666992 11.978401184082031 11.848718643188477 L11.978401184082031 11.848718643188477 C12.189841270446777 12.161850929260254 12.230484962463379 12.632753372192383 11.801456451416016 12.146944999694824 L11.801456451416016 12.146944999694824 C11.886573791503906 12.189799308776855 11.971692085266113 12.232654571533203 12.056809425354004 12.275508880615234 L12.056809425354004 12.275508880615234 C12.04032039642334 12.138143539428711 11.95327377319336 11.995800018310547 11.834345817565918 11.925107955932617 L11.834345817565918 11.925107955932617 C11.860981941223145 11.871553421020508 11.887619018554688 11.817998886108398 11.914255142211914 11.764444351196289 L11.914255142211914 11.764444351196289"></path></svg>