<svg xmlns="http://www.w3.org/2000/svg" viewBox="0.0 0.0 24.0 24.0" height="200px" width="200px"><path fill="none" stroke="black" stroke-width=".3" stroke-opacity="1.0"  filling="0" d="M11.461690902709961 11.75809097290039 L11.461690902709961 11.75809097290039 C11.620878219604492 11.91777229309082 11.725130081176758 12.117369651794434 11.689554214477539 12.347509384155273 L11.689554214477539 12.347509384155273 C11.593592643737793 12.26724624633789 11.480164527893066 12.153787612915039 11.356718063354492 12.174081802368164 L11.356718063354492 12.174081802368164 C11.309008598327637 12.220245361328125 11.261300086975098 12.266409873962402 11.213590621948242 12.312573432922363 L11.213590621948242 12.312573432922363 C11.278547286987305 12.120789527893066 11.31790828704834 11.900664329528809 11.461690902709961 11.75809097290039 L11.461690902709961 11.75809097290039"></path>
<path fill="none" stroke="black" stroke-width=".3" stroke-opacity="1.0"  filling="0" d="M11.465726852416992 11.888781547546387 L11.465726852416992 11.888781547546387 C11.484999656677246 11.94140911102295 11.5042724609375 11.994035720825195 11.523545265197754 12.046663284301758 L11.523545265197754 12.046663284301758 C11.487227439880371 12.046663284301758 11.450908660888672 12.046663284301758 11.414590835571289 12.046663284301758 L11.414590835571289 12.046663284301758 C11.42240047454834 11.995972633361816 11.430209159851074 11.945281982421875 11.438018798828125 11.894591331481934 L11.438018798828125 11.894591331481934 C11.44725513458252 11.892654418945312 11.456490516662598 11.890718460083008 11.465726852416992 11.888781547546387 L11.465726852416992 11.888781547546387"></path></svg>