<svg xmlns="http://www.w3.org/2000/svg" viewBox="0.0 0.0 24.0 24.0" height="200px" width="200px"><path fill="none" stroke="black" stroke-width=".3" stroke-opacity="1.0"  filling="0" d="M17.428852081298828 11.345561981201172 L17.428852081298828 11.345561981201172 C18.271385192871094 11.34666919708252 18.108049392700195 11.630203247070312 18.10898208618164 12.486544609069824 L18.10898208618164 12.486544609069824 C17.936372756958008 12.486544609069824 17.763761520385742 12.486544609069824 17.59115219116211 12.486544609069824 L17.59115219116211 12.486544609069824 C17.592390060424805 12.779330253601074 17.75425148010254 13.06814956665039 17.753999710083008 12.658036231994629 L17.753999710083008 12.658036231994629 C17.8665714263916 12.658036231994629 17.979145050048828 12.658036231994629 18.091716766357422 12.658036231994629 L18.091716766357422 12.658036231994629 C18.11372947692871 13.93746280670166 16.445619583129883 12.351860046386719 17.428852081298828 11.345561981201172 L17.428852081298828 11.345561981201172"></path>
<path fill="none" stroke="black" stroke-width=".3" stroke-opacity="1.0"  filling="0" d="M17.718791961669922 11.630318641662598 L17.718791961669922 11.630318641662598 C17.731836318969727 11.814391136169434 17.744882583618164 11.998464584350586 17.75792694091797 12.182537078857422 L17.75792694091797 12.182537078857422 C17.702363967895508 12.182537078857422 17.646800994873047 12.182537078857422 17.591238021850586 12.182537078857422 L17.591238021850586 12.182537078857422 C17.59151268005371 11.99361801147461 17.58199691772461 11.76061725616455 17.718791961669922 11.630318641662598 L17.718791961669922 11.630318641662598"></path></svg>