<svg xmlns="http://www.w3.org/2000/svg" viewBox="0.0 0.0 24.0 24.0" height="200px" width="200px"><path fill="none" stroke="black" stroke-width=".3" stroke-opacity="1.0"  filling="0" d="M11.424763679504395 11.316544532775879 L11.424763679504395 11.316544532775879 C11.904303550720215 11.757400512695312 11.88887882232666 12.46223258972168 11.188173294067383 12.463446617126465 L11.188173294067383 12.463446617126465 C11.188173294067383 12.587864875793457 11.188173294067383 12.712282180786133 11.188173294067383 12.836700439453125 L11.188173294067383 12.836700439453125 C11.228927612304688 12.839646339416504 11.269681930541992 12.842591285705566 11.310436248779297 12.845537185668945 L11.310436248779297 12.845537185668945 C11.315327644348145 12.773927688598633 11.320218086242676 12.702319145202637 11.325109481811523 12.630709648132324 L11.325109481811523 12.630709648132324 C11.451672554016113 12.643800735473633 11.57823657989502 12.656890869140625 11.70479965209961 12.669981956481934 L11.70479965209961 12.669981956481934 C11.576841354370117 14.255696296691895 9.464157104492188 11.328320503234863 11.424763679504395 11.316544532775879 L11.424763679504395 11.316544532775879"></path>
<path fill="none" stroke="black" stroke-width=".3" stroke-opacity="1.0"  filling="0" d="M11.265380859375 11.624018669128418 L11.265380859375 11.624018669128418 C11.371508598327637 11.767791748046875 11.316903114318848 11.978856086730957 11.317771911621094 12.157554626464844 L11.317771911621094 12.157554626464844 C11.278726577758789 12.157554626464844 11.2396821975708 12.157554626464844 11.200636863708496 12.157554626464844 L11.200636863708496 12.157554626464844 C11.106892585754395 12.028303146362305 11.084004402160645 11.689050674438477 11.265380859375 11.624018669128418 L11.265380859375 11.624018669128418"></path></svg>