<svg xmlns="http://www.w3.org/2000/svg" viewBox="0.0 0.0 24.0 24.0" height="200px" width="200px"><path fill="none" stroke="black" stroke-width=".3" stroke-opacity="1.0"  filling="0" d="M12.417137145996094 11.719472885131836 L12.417137145996094 11.719472885131836 C12.524264335632324 11.918381690979004 12.631390571594238 12.117291450500488 12.738517761230469 12.316200256347656 L12.738517761230469 12.316200256347656 C12.673626899719238 12.266854286193848 12.608736038208008 12.217509269714355 12.543845176696777 12.168163299560547 L12.543845176696777 12.168163299560547 C12.400741577148438 12.160360336303711 12.31558895111084 12.243316650390625 12.195572853088379 12.315108299255371 L12.195572853088379 12.315108299255371 C12.269427299499512 12.116562843322754 12.343282699584961 11.918018341064453 12.417137145996094 11.719472885131836 L12.417137145996094 11.719472885131836"></path>
<path fill="none" stroke="black" stroke-width=".3" stroke-opacity="1.0"  filling="0" d="M12.451199531555176 11.924345016479492 L12.451199531555176 11.924345016479492 C12.47848129272461 11.978226661682129 12.50576400756836 12.032109260559082 12.533045768737793 12.085990905761719 L12.533045768737793 12.085990905761719 C12.482481956481934 12.077163696289062 12.431918144226074 12.068336486816406 12.381354331970215 12.05950927734375 L12.381354331970215 12.05950927734375 C12.40463638305664 12.01445484161377 12.42791748046875 11.969399452209473 12.451199531555176 11.924345016479492 L12.451199531555176 11.924345016479492"></path></svg>