<svg xmlns="http://www.w3.org/2000/svg" viewBox="0.0 0.0 24.0 24.0" height="200px" width="200px"><path fill="none" stroke="black" stroke-width=".3" stroke-opacity="1.0"  filling="0" d="M16.17041015625 12.009026527404785 L16.17041015625 12.009026527404785 C17.0616455078125 12.340668678283691 17.116518020629883 12.53991985321045 16.609609603881836 13.477799415588379 L16.609609603881836 13.477799415588379 C16.527036666870117 13.444681167602539 16.4444637298584 13.4115629196167 16.36189079284668 13.37844467163086 L16.36189079284668 13.37844467163086 C16.49164390563965 13.064258575439453 16.66360855102539 12.747846603393555 16.675636291503906 12.408135414123535 L16.675636291503906 12.408135414123535 C16.538860321044922 12.7221040725708 16.407514572143555 13.038495063781738 16.28168296813965 13.35700798034668 L16.28168296813965 13.35700798034668 C16.213001251220703 13.329744338989258 16.144319534301758 13.302480697631836 16.075637817382812 13.275217056274414 L16.075637817382812 13.275217056274414 C16.176137924194336 12.952016830444336 16.276636123657227 12.628817558288574 16.37713623046875 12.305617332458496 L16.37713623046875 12.305617332458496 C16.250164031982422 12.622553825378418 16.123191833496094 12.93949031829834 15.99621868133545 13.256426811218262 L15.99621868133545 13.256426811218262 C15.918227195739746 13.223881721496582 15.84023666381836 13.191335678100586 15.762245178222656 13.158790588378906 L15.762245178222656 13.158790588378906 C15.898300170898438 12.775535583496094 16.03435516357422 12.392281532287598 16.17041015625 12.009026527404785 L16.17041015625 12.009026527404785"></path></svg>