<svg xmlns="http://www.w3.org/2000/svg" viewBox="0.0 0.0 24.0 24.0" height="200px" width="200px"><path fill="none" stroke="black" stroke-width=".3" stroke-opacity="1.0"  filling="0" d="M6.309573173522949 11.34586238861084 L6.309573173522949 11.34586238861084 C7.181241989135742 11.346785545349121 7.007322788238525 11.579440116882324 7.009063720703125 12.494071960449219 L7.009063720703125 12.494071960449219 C6.836563587188721 12.494071960449219 6.664063930511475 12.494071960449219 6.49156379699707 12.494071960449219 L6.49156379699707 12.494071960449219 C6.493108749389648 12.732561111450195 6.6471381187438965 13.123732566833496 6.653073310852051 12.660736083984375 L6.653073310852051 12.660736083984375 C6.7683820724487305 12.660736083984375 6.883691310882568 12.660736083984375 6.999000072479248 12.660736083984375 L6.999000072479248 12.660736083984375 C6.971385955810547 13.988503456115723 5.378044605255127 12.29059886932373 6.309573173522949 11.34586238861084 L6.309573173522949 11.34586238861084"></path>
<path fill="none" stroke="black" stroke-width=".3" stroke-opacity="1.0"  filling="0" d="M6.570599555969238 11.646354675292969 L6.570599555969238 11.646354675292969 C6.67789888381958 11.792957305908203 6.653990268707275 12.003209114074707 6.654490947723389 12.184882164001465 L6.654490947723389 12.184882164001465 C6.600027084350586 12.184882164001465 6.545563697814941 12.184882164001465 6.491099834442139 12.184882164001465 L6.491099834442139 12.184882164001465 C6.492056369781494 12.003430366516113 6.462358474731445 11.791990280151367 6.570599555969238 11.646354675292969 L6.570599555969238 11.646354675292969"></path></svg>