<svg xmlns="http://www.w3.org/2000/svg" viewBox="0.0 0.0 24.0 24.0" height="200px" width="200px"><path fill="none" stroke="black" stroke-width=".3" stroke-opacity="1.0"  filling="0" d="M7.19179105758667 10.658073425292969 L7.19179105758667 10.658073425292969 C7.196427345275879 10.699419021606445 7.201063632965088 10.740764617919922 7.205699920654297 10.782110214233398 L7.205699920654297 10.782110214233398 C7.256245136260986 10.743364334106445 7.306790828704834 10.704618453979492 7.357336044311523 10.665872573852539 L7.357336044311523 10.665872573852539 C7.361235618591309 10.72622013092041 7.361901760101318 10.786942481994629 7.358017921447754 10.847290992736816 L7.358017921447754 10.847290992736816 C7.243618011474609 10.847290992736816 7.129218578338623 10.847290992736816 7.0148186683654785 10.847290992736816 L7.0148186683654785 10.847290992736816 C7.0148186683654785 10.784608840942383 7.0148186683654785 10.721927642822266 7.0148186683654785 10.659245491027832 L7.0148186683654785 10.659245491027832 C7.0318732261657715 10.717535972595215 7.048927307128906 10.775827407836914 7.065981864929199 10.834117889404297 L7.065981864929199 10.834117889404297 C7.1002726554870605 10.819190979003906 7.13456392288208 10.804264068603516 7.168854713439941 10.789337158203125 L7.168854713439941 10.789337158203125 C7.1715545654296875 10.74570083618164 7.174254417419434 10.702064514160156 7.17695426940918 10.658428192138672 L7.17695426940918 10.658428192138672 C7.1819000244140625 10.658309936523438 7.186845302581787 10.658191680908203 7.19179105758667 10.658073425292969 L7.19179105758667 10.658073425292969"></path></svg>