<svg xmlns="http://www.w3.org/2000/svg" viewBox="0.0 0.0 24.0 24.0" height="200px" width="200px"><path fill="none" stroke="black" stroke-width=".3" stroke-opacity="1.0"  filling="0" d="M14.028273582458496 10.69191837310791 L14.028273582458496 10.69191837310791 C14.42100715637207 11.070775985717773 14.154410362243652 11.653351783752441 14.154410362243652 12.168790817260742 L14.154410362243652 12.168790817260742 C14.24081039428711 11.905844688415527 14.32720947265625 11.642899513244629 14.413609504699707 11.379953384399414 L14.413609504699707 11.379953384399414 C14.529918670654297 11.379953384399414 14.646227836608887 11.379953384399414 14.762537002563477 11.379953384399414 L14.762537002563477 11.379953384399414 C14.696436882019043 11.66292667388916 14.63033676147461 11.94589900970459 14.564236640930176 12.228872299194336 L14.564236640930176 12.228872299194336 C14.75515079498291 12.495171546936035 14.754955291748047 12.8656005859375 14.754545211791992 13.19326400756836 L14.754545211791992 13.19326400756836 C14.627272605895996 13.19326400756836 14.5 13.19326400756836 14.372727394104004 13.19326400756836 L14.372727394104004 13.19326400756836 C14.372688293457031 12.959009170532227 14.336143493652344 12.676466941833496 14.158283233642578 12.524017333984375 L14.158283233642578 12.524017333984375 C14.158283233642578 12.742935180664062 14.158283233642578 12.961853981018066 14.158283233642578 13.180771827697754 L14.158283233642578 13.180771827697754 C14.032337188720703 13.173226356506348 13.906392097473145 13.165681838989258 13.78044605255127 13.158136367797852 L13.78044605255127 13.158136367797852 C13.780477523803711 12.34555435180664 13.780495643615723 11.53297233581543 13.780500411987305 10.720390319824219 L13.780500411987305 10.720390319824219 C13.863091468811035 10.710899353027344 13.945682525634766 10.701409339904785 14.028273582458496 10.69191837310791 L14.028273582458496 10.69191837310791"></path></svg>