<svg xmlns="http://www.w3.org/2000/svg" viewBox="0.0 0.0 24.0 24.0" height="200px" width="200px"><path fill="none" stroke="black" stroke-width=".3" stroke-opacity="1.0"  filling="0" d="M9.352472305297852 10.853426933288574 L9.352472305297852 10.853426933288574 C9.478740692138672 10.972472190856934 9.599943161010742 11.137880325317383 9.600027084350586 11.311418533325195 L9.600027084350586 11.311418533325195 C9.652372360229492 11.315500259399414 9.704717636108398 11.31958293914795 9.757062911987305 11.323664665222168 L9.757062911987305 11.323664665222168 C9.757062911987305 11.40911865234375 9.757062911987305 11.494573593139648 9.757062911987305 11.58002758026123 L9.757062911987305 11.58002758026123 C9.708008766174316 11.586291313171387 9.658953666687012 11.592555046081543 9.609899520874023 11.5988187789917 L9.609899520874023 11.5988187789917 C9.609899520874023 12.111918449401855 9.609899520874023 12.625019073486328 9.609899520874023 13.138118743896484 L9.609899520874023 13.138118743896484 C9.488181114196777 13.138118743896484 9.366463661193848 13.138118743896484 9.244745254516602 13.138118743896484 L9.244745254516602 13.138118743896484 C9.244745254516602 12.637418746948242 9.244745254516602 12.13671875 9.244745254516602 11.636018753051758 L9.244745254516602 11.636018753051758 C9.190436363220215 11.611882209777832 9.136127471923828 11.587745666503906 9.081818580627441 11.56360912322998 L9.081818580627441 11.56360912322998 C9.081818580627441 11.490890502929688 9.081818580627441 11.418172836303711 9.081818580627441 11.345454216003418 L9.081818580627441 11.345454216003418 C9.13631820678711 11.331027030944824 9.190818786621094 11.31659984588623 9.245318412780762 11.302172660827637 L9.245318412780762 11.302172660827637 C9.244903564453125 11.148386001586914 9.247355461120605 10.965681076049805 9.352472305297852 10.853426933288574 L9.352472305297852 10.853426933288574"></path></svg>