<svg xmlns="http://www.w3.org/2000/svg" viewBox="0.0 0.0 24.0 24.0" height="200px" width="200px"><path fill="none" stroke="black" stroke-width=".3" stroke-opacity="1.0"  filling="0" d="M14.521036148071289 11.188825607299805 L14.521036148071289 11.188825607299805 C15.096549034118652 11.239678382873535 15.304317474365234 11.996594429016113 14.705318450927734 12.174354553222656 L14.705318450927734 12.174354553222656 C14.843118667602539 12.330499649047852 14.980917930603027 12.486645698547363 15.118718147277832 12.642790794372559 L15.118718147277832 12.642790794372559 C14.608774185180664 12.695430755615234 14.55467700958252 12.50018310546875 14.20063591003418 12.149890899658203 L14.20063591003418 12.149890899658203 C14.181944847106934 12.325818061828613 14.163254737854004 12.501744270324707 14.144563674926758 12.677671432495117 L14.144563674926758 12.677671432495117 C14.058691024780273 12.677671432495117 13.972817420959473 12.677671432495117 13.886944770812988 12.677671432495117 L13.886944770812988 12.677671432495117 C13.793672561645508 12.213027954101562 13.827991485595703 11.670221328735352 13.827245712280273 11.197498321533203 L13.827245712280273 11.197498321533203 C14.058448791503906 11.203539848327637 14.290218353271484 11.203466415405273 14.521036148071289 11.188825607299805 L14.521036148071289 11.188825607299805"></path>
<path fill="none" stroke="black" stroke-width=".3" stroke-opacity="1.0"  filling="0" d="M14.192428588867188 11.536581039428711 L14.192428588867188 11.536581039428711 C14.59628963470459 11.537522315979004 14.716508865356445 11.489752769470215 14.674063682556152 11.897672653198242 L14.674063682556152 11.897672653198242 C14.513518333435059 11.907027244567871 14.352973937988281 11.9163818359375 14.192428588867188 11.925736427307129 L14.192428588867188 11.925736427307129 C14.192428588867188 11.79601764678955 14.192428588867188 11.666299819946289 14.192428588867188 11.536581039428711 L14.192428588867188 11.536581039428711"></path></svg>