<svg xmlns="http://www.w3.org/2000/svg" viewBox="0.0 0.0 24.0 24.0" height="200px" width="200px"><path fill="none" stroke="black" stroke-width=".3" stroke-opacity="1.0"  filling="0" d="M12.415581703186035 11.219317436218262 L12.415581703186035 11.219317436218262 C12.72055435180664 11.219326972961426 13.025527000427246 11.21933650970459 13.330499649047852 11.219346046447754 L13.330499649047852 11.219346046447754 C13.330499649047852 11.323454856872559 13.330499649047852 11.427563667297363 13.330499649047852 11.531672477722168 L13.330499649047852 11.531672477722168 C13.136054039001465 11.531672477722168 12.941609382629395 11.531672477722168 12.747163772583008 11.531672477722168 L12.747163772583008 11.531672477722168 C12.747163772583008 11.610254287719727 12.747163772583008 11.688837051391602 12.747163772583008 11.76741886138916 L12.747163772583008 11.76741886138916 C12.928763389587402 11.76741886138916 13.110363960266113 11.76741886138916 13.291963577270508 11.76741886138916 L13.291963577270508 11.76741886138916 C13.322590827941895 12.177412033081055 13.145320892333984 12.108505249023438 12.752127647399902 12.109063148498535 L12.752127647399902 12.109063148498535 C12.75661849975586 12.191971778869629 12.7611083984375 12.274881362915039 12.765599250793457 12.357789993286133 L12.765599250793457 12.357789993286133 C12.962054252624512 12.365044593811035 13.15850830078125 12.372300148010254 13.354963302612305 12.379554748535156 L13.354963302612305 12.379554748535156 C13.142221450805664 12.630424499511719 12.744511604309082 12.68173599243164 12.415581703186035 12.68173599243164 L12.415581703186035 12.68173599243164 C12.415581703186035 12.194263458251953 12.415581703186035 11.70678997039795 12.415581703186035 11.219317436218262 L12.415581703186035 11.219317436218262"></path></svg>