<svg xmlns="http://www.w3.org/2000/svg" viewBox="0.0 0.0 24.0 24.0" height="200px" width="200px"><path fill="none" stroke="black" stroke-width=".3" stroke-opacity="1.0"  filling="0" d="M11.495182037353516 11.236990928649902 L11.495182037353516 11.236990928649902 C11.926382064819336 11.237924575805664 13.475381851196289 11.72038745880127 12.309844970703125 12.26097297668457 L12.309844970703125 12.26097297668457 C12.403563499450684 12.41915512084961 12.497281074523926 12.577336311340332 12.590999603271484 12.735518455505371 L12.590999603271484 12.735518455505371 C12.32432746887207 12.73214054107666 12.07579231262207 12.503515243530273 11.93558120727539 12.276653289794922 L11.93558120727539 12.276653289794922 C11.857645034790039 12.276662826538086 11.779708862304688 12.276671409606934 11.701772689819336 12.276680946350098 L11.701772689819336 12.276680946350098 C11.701772689819336 12.429826736450195 11.701772689819336 12.582972526550293 11.701772689819336 12.73611831665039 L11.701772689819336 12.73611831665039 C10.993959426879883 12.726822853088379 11.165029525756836 12.063508987426758 11.390673637390137 11.24871826171875 L11.390673637390137 11.24871826171875 C11.425509452819824 11.2448091506958 11.460346221923828 11.240900039672852 11.495182037353516 11.236990928649902 L11.495182037353516 11.236990928649902"></path>
<path fill="none" stroke="black" stroke-width=".3" stroke-opacity="1.0"  filling="0" d="M12.222271919250488 11.589408874511719 L12.222271919250488 11.589408874511719 C12.30077075958252 12.022334098815918 12.133163452148438 11.945100784301758 11.708454132080078 11.945209503173828 L11.708454132080078 11.945209503173828 C11.708454132080078 11.828145980834961 11.708454132080078 11.711081504821777 11.708454132080078 11.59401798248291 L11.708454132080078 11.59401798248291 C11.87972640991211 11.59248161315918 12.050999641418457 11.59094524383545 12.222271919250488 11.589408874511719 L12.222271919250488 11.589408874511719"></path></svg>