<svg xmlns="http://www.w3.org/2000/svg" viewBox="0.0 0.0 24.0 24.0" height="200px" width="200px"><path fill="none" stroke="black" stroke-width=".3" stroke-opacity="1.0"  filling="0" d="M10.561498641967773 11.199983596801758 L10.561498641967773 11.199983596801758 C11.001408576965332 11.450709342956543 11.310768127441406 12.180506706237793 11.370599746704102 12.676280975341797 L11.370599746704102 12.676280975341797 C11.258199691772461 12.676280975341797 11.14579963684082 12.676280975341797 11.03339958190918 12.676280975341797 L11.03339958190918 12.676280975341797 C10.987071990966797 12.5616455078125 10.94074535369873 12.447009086608887 10.894417762756348 12.33237361907959 L10.894417762756348 12.33237361907959 C10.685526847839355 12.33237361907959 10.476634979248047 12.33237361907959 10.267744064331055 12.33237361907959 L10.267744064331055 12.33237361907959 C10.159500122070312 12.54650592803955 10.080351829528809 12.700553894042969 9.813790321350098 12.664909362792969 L9.813790321350098 12.664909362792969 C9.961995124816895 12.150703430175781 10.094329833984375 11.499463081359863 10.561498641967773 11.199983596801758 L10.561498641967773 11.199983596801758"></path>
<path fill="none" stroke="black" stroke-width=".3" stroke-opacity="1.0"  filling="0" d="M10.611736297607422 11.63945484161377 L10.611736297607422 11.63945484161377 C10.665936470031738 11.76695442199707 10.720136642456055 11.894454956054688 10.774336814880371 12.021954536437988 L10.774336814880371 12.021954536437988 C10.660819053649902 12.021954536437988 10.547300338745117 12.021954536437988 10.433782577514648 12.021954536437988 L10.433782577514648 12.021954536437988 C10.4931001663208 11.894454956054688 10.55241870880127 11.76695442199707 10.611736297607422 11.63945484161377 L10.611736297607422 11.63945484161377"></path></svg>