<svg xmlns="http://www.w3.org/2000/svg" viewBox="0.0 0.0 24.0 24.0" height="200px" width="200px"><path fill="none" stroke="black" stroke-width=".3" stroke-opacity="1.0"  filling="0" d="M6.376882076263428 11.281254768371582 L6.376882076263428 11.281254768371582 C6.376882076263428 11.384464263916016 6.376882076263428 11.487672805786133 6.376882076263428 11.590882301330566 L6.376882076263428 11.590882301330566 C6.135282039642334 11.590882301330566 5.89368200302124 11.590882301330566 5.6520819664001465 11.590882301330566 L5.6520819664001465 11.590882301330566 C5.6520819664001465 11.670681953430176 5.6520819664001465 11.750481605529785 5.6520819664001465 11.830281257629395 L5.6520819664001465 11.830281257629395 C5.870572566986084 11.830281257629395 6.08906364440918 11.830281257629395 6.307554244995117 11.830281257629395 L6.307554244995117 11.830281257629395 C6.3168816566467285 11.941963195800781 6.326208591461182 12.053645133972168 6.335536003112793 12.165327072143555 L6.335536003112793 12.165327072143555 C6.107699871063232 12.165327072143555 5.879863262176514 12.165327072143555 5.652027130126953 12.165327072143555 L5.652027130126953 12.165327072143555 C5.652027130126953 12.254962921142578 5.652027130126953 12.344599723815918 5.652027130126953 12.434235572814941 L5.652027130126953 12.434235572814941 C5.892045497894287 12.434235572814941 6.132063388824463 12.434235572814941 6.372081756591797 12.434235572814941 L6.372081756591797 12.434235572814941 C6.372081756591797 12.531880378723145 6.372081756591797 12.629526138305664 6.372081756591797 12.727170944213867 L6.372081756591797 12.727170944213867 C6.024027347564697 12.740325927734375 5.6759724617004395 12.753480911254883 5.32791805267334 12.76663589477539 L5.32791805267334 12.76663589477539 C5.190573692321777 12.294878005981445 5.291607856750488 11.784407615661621 5.291072845458984 11.29306411743164 L5.291072845458984 11.29306411743164 C5.653009414672852 11.289127349853516 6.0149455070495605 11.285191535949707 6.376882076263428 11.281254768371582 L6.376882076263428 11.281254768371582"></path></svg>