<svg xmlns="http://www.w3.org/2000/svg" viewBox="0.0 0.0 24.0 24.0" height="200px" width="200px"><path fill="none" stroke="black" stroke-width=".3" stroke-opacity="1.0"  filling="0" d="M18.25860023498535 11.15683650970459 L18.25860023498535 11.15683650970459 C18.32383918762207 11.246891975402832 18.352909088134766 11.365302085876465 18.354053497314453 11.476499557495117 L18.354053497314453 11.476499557495117 C18.11162757873535 11.476499557495117 17.869199752807617 11.476499557495117 17.626773834228516 11.476499557495117 L17.626773834228516 11.476499557495117 C17.626773834228516 11.560091018676758 17.626773834228516 11.643681526184082 17.626773834228516 11.727272987365723 L17.626773834228516 11.727272987365723 C18.0238094329834 11.727396011352539 18.29989242553711 11.61705207824707 18.30002784729004 12.05102825164795 L18.30002784729004 12.05102825164795 C18.075246810913086 12.05102825164795 17.8504638671875 12.05102825164795 17.625682830810547 12.05102825164795 L17.625682830810547 12.05102825164795 C17.625682830810547 12.14096450805664 17.625682830810547 12.230901718139648 17.625682830810547 12.32083797454834 L17.625682830810547 12.32083797454834 C17.86557388305664 12.32083797454834 18.105464935302734 12.32083797454834 18.345355987548828 12.32083797454834 L18.345355987548828 12.32083797454834 C18.345355987548828 12.419583320617676 18.345355987548828 12.518328666687012 18.345355987548828 12.617074012756348 L18.345355987548828 12.617074012756348 C18.014738082885742 12.629591941833496 17.683443069458008 12.679183959960938 17.353500366210938 12.65462875366211 C17.087839126586914 12.634858131408691 17.263647079467773 11.461227416992188 17.263662338256836 11.181572914123535 L17.263662338256836 11.181572914123535 C17.597402572631836 11.18122386932373 17.925573348999023 11.172401428222656 18.25860023498535 11.15683650970459 L18.25860023498535 11.15683650970459"></path></svg>