<svg xmlns="http://www.w3.org/2000/svg" viewBox="0.0 0.0 24.0 24.0" height="200px" width="200px"><path fill="none" stroke="black" stroke-width=".3" stroke-opacity="1.0"  filling="0" d="M13.683655738830566 11.240208625793457 L13.683655738830566 11.240208625793457 C13.784673690795898 11.240208625793457 13.88569164276123 11.240208625793457 13.986709594726562 11.240208625793457 L13.986709594726562 11.240208625793457 C14.196200370788574 11.73725414276123 14.405691146850586 12.23430061340332 14.615181922912598 12.731346130371094 L14.615181922912598 12.731346130371094 C14.500782012939453 12.731346130371094 14.386383056640625 12.731346130371094 14.27198314666748 12.731346130371094 L14.27198314666748 12.731346130371094 C14.219573974609375 12.614954948425293 14.167163848876953 12.498564720153809 14.114754676818848 12.382173538208008 L14.114754676818848 12.382173538208008 C13.822871208190918 12.38376522064209 13.439802169799805 12.469189643859863 13.31179141998291 12.7315092086792 L13.31179141998291 12.7315092086792 C13.188736915588379 12.7315092086792 13.065682411193848 12.7315092086792 12.942627906799316 12.7315092086792 L12.942627906799316 12.7315092086792 C13.190128326416016 12.23465347290039 13.437146186828613 11.737557411193848 13.683655738830566 11.240208625793457 L13.683655738830566 11.240208625793457"></path>
<path fill="none" stroke="black" stroke-width=".3" stroke-opacity="1.0"  filling="0" d="M13.823617935180664 11.675127029418945 L13.823617935180664 11.675127029418945 C13.879709243774414 11.807718276977539 13.935800552368164 11.940309524536133 13.991891860961914 12.072900772094727 L13.991891860961914 12.072900772094727 C13.874300956726074 12.072900772094727 13.756710052490234 12.072900772094727 13.639119148254395 12.072900772094727 L13.639119148254395 12.072900772094727 C13.700618743896484 11.940309524536133 13.762118339538574 11.807718276977539 13.823617935180664 11.675127029418945 L13.823617935180664 11.675127029418945"></path></svg>