<svg xmlns="http://www.w3.org/2000/svg" viewBox="0.0 0.0 24.0 24.0" height="200px" width="200px"><path fill="none" stroke="black" stroke-width=".3" stroke-opacity="1.0"  filling="0" d="M9.938919067382812 10.70983600616455 L9.938919067382812 10.70983600616455 C10.252860069274902 10.756850242614746 13.36113166809082 10.779976844787598 13.358017921447754 10.96947193145752 C13.339481353759766 12.097604751586914 10.644963264465332 11.661447525024414 10.796345710754395 11.05944538116455 L10.796345710754395 11.05944538116455 C10.401552200317383 11.039421081542969 9.757000923156738 11.221962928771973 9.763227462768555 10.741008758544922 L9.763227462768555 10.741008758544922 C9.821791648864746 10.73061752319336 9.880354881286621 10.720227241516113 9.938919067382812 10.70983600616455 L9.938919067382812 10.70983600616455"></path>
<path fill="none" stroke="black" stroke-width=".3" stroke-opacity="1.0"  filling="0" d="M11.334190368652344 11.054100036621094 L11.334190368652344 11.054100036621094 C11.861213684082031 11.10886287689209 12.531874656677246 10.939435958862305 13.017736434936523 11.19038200378418 L13.017736434936523 11.19038200378418 C12.494941711425781 11.42690658569336 11.607521057128906 11.362780570983887 11.069128036499023 11.156563758850098 L11.069128036499023 11.156563758850098 C11.157482147216797 11.122408866882324 11.24583625793457 11.088254928588867 11.334190368652344 11.054100036621094 L11.334190368652344 11.054100036621094"></path></svg>