<svg xmlns="http://www.w3.org/2000/svg" viewBox="0.0 0.0 24.0 24.0" height="200px" width="200px"><path fill="none" stroke="black" stroke-width=".3" stroke-opacity="1.0"  filling="0" d="M17.524635314941406 10.702691078186035 L17.524635314941406 10.702691078186035 C17.649389266967773 10.895613670349121 17.74425506591797 11.126564979553223 17.743335723876953 11.356307983398438 L17.743335723876953 11.356307983398438 C17.628908157348633 11.343990325927734 17.514482498168945 11.331671714782715 17.400054931640625 11.319354057312012 L17.400054931640625 11.319354057312012 C17.395889282226562 10.100253105163574 17.157501220703125 12.727587699890137 17.161718368530273 12.855053901672363 L17.161718368530273 12.855053901672363 C17.24391746520996 12.852081298828125 17.32611846923828 12.849108695983887 17.40831756591797 12.846136093139648 L17.40831756591797 12.846136093139648 C17.40831756591797 12.56790828704834 17.40831756591797 12.289681434631348 17.40831756591797 12.011453628540039 L17.40831756591797 12.011453628540039 C17.36253547668457 12.004762649536133 17.316755294799805 11.998072624206543 17.270973205566406 11.991381645202637 L17.270973205566406 11.991381645202637 C17.270973205566406 11.885108947753906 17.270973205566406 11.778836250305176 17.270973205566406 11.672563552856445 L17.270973205566406 11.672563552856445 C17.42316436767578 11.672563552856445 17.575353622436523 11.672563552856445 17.7275447845459 11.672563552856445 L17.7275447845459 11.672563552856445 C18.354692459106445 15.0215482711792 15.487327575683594 11.935663223266602 16.954118728637695 10.79558277130127 L16.954118728637695 10.79558277130127 C16.94785499572754 10.774064064025879 16.941591262817383 10.752546310424805 16.935327529907227 10.731027603149414 L16.935327529907227 10.731027603149414 C17.131763458251953 10.721582412719727 17.32819938659668 10.712136268615723 17.524635314941406 10.702691078186035 L17.524635314941406 10.702691078186035"></path></svg>