<svg xmlns="http://www.w3.org/2000/svg" viewBox="0.0 0.0 24.0 24.0" height="200px" width="200px"><path fill="none" stroke="black" stroke-width=".3" stroke-opacity="1.0"  filling="0" d="M10.799943923950195 10.036361694335938 L10.799943923950195 10.036361694335938 C10.809053421020508 10.036362648010254 10.818163871765137 10.036362648010254 10.82727336883545 10.03636360168457 L10.82727336883545 10.03636360168457 C11.038779258728027 11.05601978302002 11.159208297729492 12.115410804748535 11.27157211303711 13.15099048614502 L11.27157211303711 13.15099048614502 C10.677865982055664 13.36266803741455 10.977092742919922 12.506778717041016 10.818161964416504 12.059835433959961 L10.818161964416504 12.059835433959961 C10.399242401123047 12.064558029174805 10.799033164978027 13.242613792419434 10.799644470214844 13.327034950256348 L10.799644470214844 13.327034950256348 C10.711108207702637 13.365199089050293 10.622570991516113 13.403362274169922 10.534034729003906 13.441526412963867 L10.534034729003906 13.441526412963867 C10.296905517578125 12.19424819946289 9.951396942138672 8.490280151367188 10.559589385986328 11.765617370605469 L10.559589385986328 11.765617370605469 C10.631834983825684 11.746326446533203 10.704079627990723 11.727034568786621 10.776325225830078 11.707743644714355 L10.776325225830078 11.707743644714355 C10.700379371643066 11.191034317016602 10.624434471130371 10.674324989318848 10.54848861694336 10.157615661621094 L10.54848861694336 10.157615661621094 C10.632307052612305 10.11719799041748 10.71612548828125 10.07677936553955 10.799943923950195 10.036361694335938 L10.799943923950195 10.036361694335938"></path></svg>