<svg xmlns="http://www.w3.org/2000/svg" viewBox="0.0 0.0 24.0 24.0" height="200px" width="200px"><path fill="none" stroke="black" stroke-width=".3" stroke-opacity="1.0"  filling="0" d="M11.787027359008789 13.580098152160645 L11.787027359008789 13.580098152160645 C11.960938453674316 13.599774360656738 12.076858520507812 13.799036026000977 12.152945518493652 13.956652641296387 L12.152945518493652 13.956652641296387 C12.732912063598633 14.14188003540039 12.646764755249023 14.523752212524414 12.688827514648438 15.22453498840332 L12.688827514648438 15.22453498840332 C12.211668014526367 14.785625457763672 11.420660018920898 14.309017181396484 11.787027359008789 13.580098152160645 L11.787027359008789 13.580098152160645"></path>
<path fill="none" stroke="black" stroke-width=".3" stroke-opacity="1.0"  filling="0" d="M11.887036323547363 13.753063201904297 L11.887036323547363 13.753063201904297 C12.108397483825684 13.872742652893066 12.107512474060059 14.18795394897461 12.140481948852539 14.413036346435547 L12.140481948852539 14.413036346435547 C11.800189971923828 14.539205551147461 11.804584503173828 13.892494201660156 11.887036323547363 13.753063201904297 L11.887036323547363 13.753063201904297"></path>
<path fill="none" stroke="black" stroke-width=".3" stroke-opacity="1.0"  filling="0" d="M12.361200332641602 14.15997314453125 L12.361200332641602 14.15997314453125 C12.393245697021484 14.181327819824219 12.425291061401367 14.202681541442871 12.45733642578125 14.22403621673584 L12.45733642578125 14.22403621673584 C12.483390808105469 14.435163497924805 12.509446144104004 14.64629077911377 12.535500526428223 14.857418060302734 L12.535500526428223 14.857418060302734 C12.333134651184082 14.690714836120605 12.047874450683594 14.318075180053711 12.361200332641602 14.15997314453125 L12.361200332641602 14.15997314453125"></path></svg>