<svg xmlns="http://www.w3.org/2000/svg" viewBox="0.0 0.0 24.0 24.0" height="200px" width="200px"><path fill="none" stroke="black" stroke-width=".3" stroke-opacity="1.0"  filling="0" d="M13.513772010803223 10.527299880981445 L13.513772010803223 10.527299880981445 C13.81595516204834 10.791269302368164 13.917999267578125 10.855056762695312 13.819826126098633 11.25362777709961 L13.819826126098633 11.25362777709961 C13.73878002166748 11.263100624084473 13.657734870910645 11.27257251739502 13.576688766479492 11.282045364379883 L13.576688766479492 11.282045364379883 C13.54941463470459 11.117630004882812 13.583081245422363 10.947848320007324 13.484781265258789 10.808427810668945 L13.484781265258789 10.808427810668945 C13.598954200744629 11.478714942932129 14.027162551879883 11.799054145812988 13.851653099060059 12.53724479675293 C13.631535530090332 13.463055610656738 13.15281867980957 12.319217681884766 13.137299537658691 12.104236602783203 L13.137299537658691 12.104236602783203 C13.23682689666748 12.104236602783203 13.33635425567627 12.104236602783203 13.435881614685059 12.104236602783203 L13.435881614685059 12.104236602783203 C13.445748329162598 12.242691993713379 13.43594741821289 12.39316177368164 13.501663208007812 12.515426635742188 L13.501663208007812 12.515426635742188 C13.722639083862305 12.072285652160645 12.438457489013672 10.527923583984375 13.513772010803223 10.527299880981445 L13.513772010803223 10.527299880981445"></path></svg>