<svg xmlns="http://www.w3.org/2000/svg" viewBox="0.0 0.0 24.0 24.0" height="200px" width="200px"><path fill="none" stroke="black" stroke-width=".3" stroke-opacity="1.0"  filling="0" d="M2.645099639892578 11.374418258666992 L2.645099639892578 11.374418258666992 C2.912630796432495 11.642353057861328 2.862521171569824 12.110505104064941 2.863417625427246 12.4891357421875 L2.863417625427246 12.4891357421875 C2.70866322517395 12.4891357421875 2.5539090633392334 12.4891357421875 2.3991546630859375 12.4891357421875 L2.3991546630859375 12.4891357421875 C2.4165728092193604 12.626380920410156 2.4339911937713623 12.763627052307129 2.451409339904785 12.900872230529785 L2.451409339904785 12.900872230529785 C2.506880760192871 12.756179809570312 2.709310293197632 12.66839599609375 2.8633365631103516 12.68539047241211 L2.8633365631103516 12.68539047241211 C2.8627943992614746 14.166622161865234 0.7515729665756226 11.375775337219238 2.645099639892578 11.374418258666992 L2.645099639892578 11.374418258666992"></path>
<path fill="none" stroke="black" stroke-width=".3" stroke-opacity="1.0"  filling="0" d="M2.414809226989746 11.647391319274902 L2.414809226989746 11.647391319274902 C2.5558927059173584 11.806334495544434 2.509037733078003 11.978416442871094 2.509063720703125 12.184309005737305 L2.509063720703125 12.184309005737305 C2.454754590988159 12.184318542480469 2.4004452228546143 12.184327125549316 2.3461360931396484 12.18433666229248 L2.3461360931396484 12.18433666229248 C2.3473095893859863 12.003900527954102 2.288825750350952 11.776568412780762 2.414809226989746 11.647391319274902 L2.414809226989746 11.647391319274902"></path></svg>