<svg xmlns="http://www.w3.org/2000/svg" viewBox="0.0 0.0 24.0 24.0" height="200px" width="200px"><path fill="none" stroke="black" stroke-width=".3" stroke-opacity="1.0"  filling="0" d="M4.576527118682861 10.936553955078125 L4.576527118682861 10.936553955078125 C4.687617778778076 11.056228637695312 4.663438320159912 11.255393028259277 4.663254737854004 11.418681144714355 L4.663254737854004 11.418681144714355 C4.706445693969727 11.423962593078613 4.749636173248291 11.429244995117188 4.792827129364014 11.434526443481445 L4.792827129364014 11.434526443481445 C4.792827129364014 11.528044700622559 4.792827129364014 11.621562004089355 4.792827129364014 11.715080261230469 L4.792827129364014 11.715080261230469 C4.752272605895996 11.722152709960938 4.711718559265137 11.729226112365723 4.671164035797119 11.736298561096191 L4.671164035797119 11.736298561096191 C4.671164035797119 12.233043670654297 4.671164035797119 12.729789733886719 4.671164035797119 13.226534843444824 L4.671164035797119 13.226534843444824 C3.7630860805511475 13.353141784667969 4.59744930267334 12.509637832641602 4.2272725105285645 11.727272987365723 L4.2272725105285645 11.727272987365723 C4.2272725105285645 11.636363983154297 4.2272725105285645 11.545454025268555 4.2272725105285645 11.454545021057129 L4.2272725105285645 11.454545021057129 C4.309983253479004 11.302136421203613 4.278561115264893 11.110116958618164 4.277072429656982 10.936717987060547 L4.277072429656982 10.936717987060547 C4.376890659332275 10.936663627624512 4.476708889007568 10.93660831451416 4.576527118682861 10.936553955078125 L4.576527118682861 10.936553955078125"></path></svg>