<svg xmlns="http://www.w3.org/2000/svg" viewBox="0.0 0.0 24.0 24.0" height="200px" width="200px"><path fill="none" stroke="black" stroke-width=".3" stroke-opacity="1.0"  filling="0" d="M5.378836154937744 11.347417831420898 L5.378836154937744 11.347417831420898 C5.505863666534424 11.361618041992188 5.632890701293945 11.375818252563477 5.759918212890625 11.390018463134766 L5.759918212890625 11.390018463134766 C6.059823036193848 11.418461799621582 6.217219352722168 11.867815017700195 6.218018531799316 12.16906452178955 L6.218018531799316 12.16906452178955 C6.0894365310668945 12.146346092224121 5.960855007171631 12.123627662658691 5.832273006439209 12.100909233093262 L5.832273006439209 12.100909233093262 C5.832273006439209 11.944072723388672 5.832273006439209 11.787236213684082 5.832273006439209 11.630399703979492 L5.832273006439209 11.630399703979492 C5.416004657745361 11.908121109008789 5.75455904006958 12.62920093536377 5.754518508911133 13.129609107971191 L5.754518508911133 13.129609107971191 C5.62929105758667 13.133745193481445 5.504063606262207 13.1378812789917 5.378836154937744 13.142017364501953 L5.378836154937744 13.142017364501953 C5.378836154937744 12.543817520141602 5.378836154937744 11.94561767578125 5.378836154937744 11.347417831420898 L5.378836154937744 11.347417831420898"></path></svg>