<svg xmlns="http://www.w3.org/2000/svg" viewBox="0.0 0.0 24.0 24.0" height="200px" width="200px"><path fill="none" stroke="black" stroke-width=".3" stroke-opacity="1.0"  filling="0" d="M12.772171974182129 11.385246276855469 L12.772171974182129 11.385246276855469 C13.029559135437012 11.669258117675781 12.981820106506348 12.132547378540039 12.98184585571289 12.515836715698242 L12.98184585571289 12.515836715698242 C12.827373504638672 12.515836715698242 12.672900199890137 12.515836715698242 12.518427848815918 12.515836715698242 L12.518427848815918 12.515836715698242 C12.51442813873291 12.651555061340332 12.510427474975586 12.787272453308105 12.506427764892578 12.922990798950195 L12.506427764892578 12.922990798950195 C12.552982330322266 12.849563598632812 12.599536895751953 12.77613639831543 12.64609146118164 12.702709197998047 L12.64609146118164 12.702709197998047 C12.757990837097168 12.702709197998047 12.869891166687012 12.702709197998047 12.981790542602539 12.702709197998047 L12.981790542602539 12.702709197998047 C12.983020782470703 14.178701400756836 10.856040954589844 11.4437894821167 12.772171974182129 11.385246276855469 L12.772171974182129 11.385246276855469"></path>
<path fill="none" stroke="black" stroke-width=".3" stroke-opacity="1.0"  filling="0" d="M12.46827220916748 11.690319061279297 L12.46827220916748 11.690319061279297 C12.62224006652832 11.785199165344238 12.6265287399292 12.028274536132812 12.627055168151855 12.209128379821777 L12.627055168151855 12.209128379821777 C12.574136734008789 12.21580982208252 12.521218299865723 12.222491264343262 12.468299865722656 12.229172706604004 L12.468299865722656 12.229172706604004 C12.468290328979492 12.049554824829102 12.468281745910645 11.8699369430542 12.46827220916748 11.690319061279297 L12.46827220916748 11.690319061279297"></path></svg>