<svg xmlns="http://www.w3.org/2000/svg" viewBox="0.0 0.0 24.0 24.0" height="200px" width="200px"><path fill="none" stroke="black" stroke-width=".3" stroke-opacity="1.0"  filling="0" d="M13.347271919250488 13.153036117553711 L13.347271919250488 13.153036117553711 C13.388035774230957 13.161299705505371 13.428799629211426 13.169564247131348 13.469563484191895 13.177827835083008 L13.469563484191895 13.177827835083008 C13.469563484191895 13.255818367004395 13.469563484191895 13.333809852600098 13.469563484191895 13.411800384521484 L13.469563484191895 13.411800384521484 C12.877455711364746 13.478921890258789 11.830915451049805 13.2681884765625 11.32289981842041 13.614299774169922 L11.32289981842041 13.614299774169922 C11.877552032470703 13.894389152526855 12.934924125671387 13.583889961242676 13.546991348266602 13.581571578979492 L13.546991348266602 13.581571578979492 C13.567882537841797 13.660698890686035 13.588773727416992 13.739827156066895 13.609664916992188 13.818954467773438 L13.609664916992188 13.818954467773438 C13.149344444274902 13.942886352539062 11.193756103515625 14.25699520111084 11.04747200012207 13.790018081665039 L11.04747200012207 13.790018081665039 C11.081235885620117 13.769445419311523 11.114999771118164 13.748872756958008 11.148763656616211 13.728300094604492 L11.148763656616211 13.728300094604492 C10.493898391723633 13.174808502197266 13.131007194519043 13.171167373657227 13.347271919250488 13.153036117553711 L13.347271919250488 13.153036117553711"></path></svg>