<svg xmlns="http://www.w3.org/2000/svg" viewBox="0.0 0.0 24.0 24.0" height="200px" width="200px"><path fill="none" stroke="black" stroke-width=".3" stroke-opacity="1.0"  filling="0" d="M14.670409202575684 11.374526977539062 L14.670409202575684 11.374526977539062 C15.51866626739502 11.374903678894043 15.352117538452148 11.608529090881348 15.354354858398438 12.479291915893555 L15.354354858398438 12.479291915893555 C15.18519115447998 12.495145797729492 15.016027450561523 12.511000633239746 14.846863746643066 12.526854515075684 L14.846863746643066 12.526854515075684 C14.846863746643066 12.64885425567627 14.846863746643066 12.770854949951172 14.846863746643066 12.892854690551758 L14.846863746643066 12.892854690551758 C14.88375473022461 12.894618034362793 14.920645713806152 12.896382331848145 14.957536697387695 12.89814567565918 L14.957536697387695 12.89814567565918 C14.972773551940918 12.826082229614258 14.988009452819824 12.754018783569336 15.003246307373047 12.681955337524414 L15.003246307373047 12.681955337524414 C15.680140495300293 12.680578231811523 15.251636505126953 13.399381637573242 14.67951774597168 13.18709945678711 C14.08885383605957 12.967936515808105 14.253264427185059 11.767498970031738 14.670409202575684 11.374526977539062 L14.670409202575684 11.374526977539062"></path>
<path fill="none" stroke="black" stroke-width=".3" stroke-opacity="1.0"  filling="0" d="M14.843891143798828 11.679162979125977 L14.843891143798828 11.679162979125977 C14.88475513458252 11.679162979125977 14.925618171691895 11.679162979125977 14.966482162475586 11.679162979125977 L14.966482162475586 11.679162979125977 C14.966482162475586 11.862217903137207 14.966482162475586 12.045271873474121 14.966482162475586 12.228326797485352 L14.966482162475586 12.228326797485352 C14.925618171691895 12.222845077514648 14.88475513458252 12.217363357543945 14.843891143798828 12.211881637573242 L14.843891143798828 12.211881637573242 C14.843891143798828 12.034308433532715 14.843891143798828 11.856736183166504 14.843891143798828 11.679162979125977 L14.843891143798828 11.679162979125977"></path></svg>