<svg xmlns="http://www.w3.org/2000/svg" viewBox="0.0 0.0 24.0 24.0" height="200px" width="200px"><path fill="none" stroke="black" stroke-width=".3" stroke-opacity="1.0"  filling="0" d="M11.183072090148926 7.306909084320068 L11.183072090148926 7.306909084320068 C11.464588165283203 8.699426651000977 11.43692684173584 10.29543399810791 11.338886260986328 11.902820587158203 C11.240845680236816 13.510208129882812 11.072425842285156 15.128973960876465 11.072425842285156 16.56700897216797 L11.072425842285156 16.56700897216797 C10.590685844421387 16.567501068115234 9.680222511291504 16.978740692138672 9.62877082824707 16.499755859375 C9.57292366027832 15.979852676391602 9.731496810913086 15.43338680267334 9.6532621383667 14.91482925415039 L9.6532621383667 14.91482925415039 C9.358426094055176 14.942974090576172 9.063589096069336 14.97111988067627 8.768753051757812 14.99926471710205 L8.768753051757812 14.99926471710205 C8.622625350952148 15.538474082946777 8.4764986038208 16.07768440246582 8.330370903015137 16.616893768310547 L8.330370903015137 16.616893768310547 C7.959866046905518 16.57927131652832 7.05518102645874 16.865589141845703 6.8429436683654785 16.638277053833008 C6.729377269744873 16.516643524169922 7.336469650268555 14.695369720458984 7.365352630615234 14.591130256652832 C7.997472286224365 12.309798240661621 9.167845726013184 9.801905632019043 9.304009437561035 7.452381610870361 L9.304009437561035 7.452381610870361 C9.930865287780762 7.40705680847168 10.556288719177246 7.351236343383789 11.183072090148926 7.306909084320068 L11.183072090148926 7.306909084320068"></path>
<path fill="none" stroke="black" stroke-width=".3" stroke-opacity="1.0"  filling="0" d="M9.759109497070312 11.31185531616211 L9.759109497070312 11.31185531616211 C9.744391441345215 11.911755561828613 9.7296724319458 12.5116548538208 9.714954376220703 13.111555099487305 L9.714954376220703 13.111555099487305 C9.581063270568848 13.128727912902832 9.447173118591309 13.145899772644043 9.313282012939453 13.16307258605957 L9.313282012939453 13.16307258605957 C9.292694091796875 13.011473655700684 9.5103759765625 11.45678424835205 9.759109497070312 11.31185531616211 L9.759109497070312 11.31185531616211"></path></svg>