<svg xmlns="http://www.w3.org/2000/svg" viewBox="0.0 0.0 24.0 24.0" height="200px" width="200px"><path fill="none" stroke="black" stroke-width=".3" stroke-opacity="1.0"  filling="0" d="M11.922027587890625 11.315727233886719 L11.922027587890625 11.315727233886719 C12.046281814575195 11.34077262878418 12.170536041259766 11.36581802368164 12.294790267944336 11.390863418579102 L12.294790267944336 11.390863418579102 C13.537471771240234 11.284364700317383 13.513969421386719 11.77680778503418 13.308271408081055 13.142264366149902 L13.308271408081055 13.142264366149902 C13.199844360351562 13.142264366149902 13.091416358947754 13.142264366149902 12.982989311218262 13.142264366149902 L12.982989311218262 13.142264366149902 C12.905722618103027 12.64333724975586 12.954544067382812 12.137420654296875 12.954544067382812 11.633755683898926 L12.954544067382812 11.633755683898926 C12.924771308898926 11.618291854858398 12.894999504089355 11.602828025817871 12.865226745605469 11.587364196777344 L12.865226745605469 11.587364196777344 C12.550898551940918 11.977200508117676 12.790881156921387 12.640007972717285 12.790881156921387 13.13708209991455 L12.790881156921387 13.13708209991455 C12.672690391540527 13.13708209991455 12.554498672485352 13.13708209991455 12.436307907104492 13.13708209991455 L12.436307907104492 13.13708209991455 C12.436307907104492 12.600667953491211 12.6888427734375 12.013198852539062 12.299861907958984 11.602091789245605 L12.299861907958984 11.602091789245605 C12.265028953552246 11.898397445678711 12.486603736877441 13.40595817565918 11.922027587890625 13.103426933288574 L11.922027587890625 13.103426933288574 C11.922027587890625 12.507527351379395 11.922027587890625 11.911626815795898 11.922027587890625 11.315727233886719 L11.922027587890625 11.315727233886719"></path></svg>