<svg xmlns="http://www.w3.org/2000/svg" viewBox="0.0 0.0 24.0 24.0" height="200px" width="200px"><path fill="none" stroke="black" stroke-width=".3" stroke-opacity="1.0"  filling="0" d="M11.732589721679688 9.243873596191406 L11.732589721679688 9.243873596191406 C11.889871597290039 9.260528564453125 12.04715347290039 9.277182579040527 12.204435348510742 9.293837547302246 L12.204435348510742 9.293837547302246 C12.010259628295898 9.685447692871094 11.748434066772461 9.335247039794922 11.545418739318848 9.624710083007812 L11.545418739318848 9.624710083007812 C12.34108829498291 9.696743965148926 12.75381851196289 9.143569946289062 13.602463722229004 9.411600112915039 C14.28477954864502 9.627098083496094 13.064555168151855 10.01002025604248 12.840027809143066 9.987736701965332 L12.840027809143066 9.987736701965332 C12.86523723602295 9.91014575958252 12.890445709228516 9.832554817199707 12.915655136108398 9.754963874816895 L12.915655136108398 9.754963874816895 C13.086552619934082 9.771513938903809 13.27631664276123 9.774514198303223 13.426881790161133 9.691991806030273 L13.426881790161133 9.691991806030273 C13.1522798538208 9.653999328613281 9.926580429077148 9.984063148498535 11.732589721679688 9.243873596191406 L11.732589721679688 9.243873596191406"></path></svg>