<svg xmlns="http://www.w3.org/2000/svg" viewBox="0.0 0.0 24.0 24.0" height="200px" width="200px"><path fill="none" stroke="black" stroke-width=".3" stroke-opacity="1.0"  filling="0" d="M10.38261890411377 9.876544952392578 L10.38261890411377 9.876544952392578 C11.106376647949219 10.181793212890625 10.870017051696777 11.552313804626465 10.721344947814941 12.179808616638184 L10.721344947814941 12.179808616638184 C10.894791603088379 12.593047142028809 11.511068344116211 13.321307182312012 10.853782653808594 13.439018249511719 L10.853782653808594 13.439018249511719 C10.719282150268555 13.139562606811523 10.566383361816406 12.553756713867188 10.272082328796387 12.385499954223633 L10.272082328796387 12.385499954223633 C10.031208992004395 12.979978561401367 10.69331169128418 13.448511123657227 9.990245819091797 13.62169075012207 L9.990245819091797 13.62169075012207 C9.89122486114502 12.47354793548584 9.036186218261719 10.185840606689453 10.38261890411377 9.876544952392578 L10.38261890411377 9.876544952392578"></path>
<path fill="none" stroke="black" stroke-width=".3" stroke-opacity="1.0"  filling="0" d="M10.246118545532227 10.448127746582031 L10.246118545532227 10.448127746582031 C10.910806655883789 10.799309730529785 10.201019287109375 12.339106559753418 10.094100952148438 11.289054870605469 C10.067554473876953 11.02834415435791 10.037262916564941 10.767047882080078 10.036526679992676 10.504990577697754 L10.036526679992676 10.504990577697754 C10.106390953063965 10.48603630065918 10.176254272460938 10.467082023620605 10.246118545532227 10.448127746582031 L10.246118545532227 10.448127746582031"></path></svg>