<svg xmlns="http://www.w3.org/2000/svg" viewBox="0.0 0.0 24.0 24.0" height="200px" width="200px"><path fill="none" stroke="black" stroke-width=".3" stroke-opacity="1.0"  filling="0" d="M23.672760009765625 6.600106239318848 L23.672760009765625 6.600106239318848 C23.672704696655273 8.472485542297363 22.275367736816406 9.821663856506348 22.17057228088379 11.60615348815918 C22.080970764160156 13.1318941116333 22.752843856811523 14.739845275878906 22.584463119506836 16.257461547851562 L22.584463119506836 16.257461547851562 C22.093704223632812 16.24311637878418 21.601119995117188 16.236772537231445 21.112009048461914 16.28511619567871 L21.112009048461914 16.28511619567871 C20.994361877441406 15.311935424804688 21.092370986938477 14.317416191101074 20.916545867919922 13.350242614746094 L20.916545867919922 13.350242614746094 C20.69357681274414 14.24798583984375 20.493045806884766 15.317553520202637 20.486400604248047 16.24325180053711 L20.486400604248047 16.24325180053711 C20.082735061645508 16.283950805664062 19.46015167236328 16.3920841217041 19.033445358276367 16.308025360107422 C18.8319091796875 16.26832389831543 19.261747360229492 14.303760528564453 19.300010681152344 14.06427001953125 C19.68452262878418 11.65758228302002 20.15291404724121 9.260226249694824 20.48370361328125 6.845478534698486 L20.48370361328125 6.845478534698486 C20.95796775817871 6.801305770874023 21.43222999572754 6.757133483886719 21.906494140625 6.712960720062256 L21.906494140625 6.712960720062256 C22.053447723388672 7.339400768280029 21.710424423217773 8.20887279510498 21.626293182373047 8.855260848999023 L21.626293182373047 8.855260848999023 C21.635820388793945 8.857678413391113 21.64534568786621 8.86009693145752 21.65487289428711 8.86251449584961 L21.65487289428711 8.86251449584961 C21.65997886657715 8.851117134094238 22.62823486328125 6.6896233558654785 22.630693435668945 6.684133529663086 L22.630693435668945 6.684133529663086 C22.978561401367188 6.66343355178833 23.32615089416504 6.636198043823242 23.672760009765625 6.600106239318848 L23.672760009765625 6.600106239318848"></path></svg>