<svg xmlns="http://www.w3.org/2000/svg" viewBox="0.0 0.0 24.0 24.0" height="200px" width="200px"><path fill="none" stroke="black" stroke-width=".3" stroke-opacity="1.0"  filling="0" d="M8.225292205810547 10.746058464050293 L8.225292205810547 10.746058464050293 C8.394111633300781 10.913372039794922 8.452958106994629 11.183619499206543 8.454408645629883 11.421299934387207 L8.454408645629883 11.421299934387207 C8.339754104614258 11.421299934387207 8.225099563598633 11.421299934387207 8.110445022583008 11.421299934387207 L8.110445022583008 11.421299934387207 C8.10119915008545 11.290400505065918 8.091954231262207 11.159500122070312 8.082708358764648 11.028600692749023 L8.082708358764648 11.028600692749023 C7.912938117980957 11.150093078613281 7.881997585296631 11.413044929504395 7.881845951080322 11.621809005737305 L7.881845951080322 11.621809005737305 C8.473026275634766 12.116471290588379 8.452423095703125 12.346099853515625 8.458091735839844 13.075773239135742 L8.458091735839844 13.075773239135742 C7.546490669250488 13.615836143493652 7.201666831970215 12.258589744567871 7.873200416564941 12.260102272033691 L7.873200416564941 12.260102272033691 C7.893417835235596 12.583924293518066 7.80423641204834 12.733579635620117 8.066265106201172 12.951193809509277 L8.066265106201172 12.951193809509277 C8.234221458435059 12.189581871032715 6.611152648925781 10.748485565185547 8.225292205810547 10.746058464050293 L8.225292205810547 10.746058464050293"></path></svg>