<svg xmlns="http://www.w3.org/2000/svg" viewBox="0.0 0.0 24.0 24.0" height="200px" width="200px"><path fill="none" stroke="black" stroke-width=".3" stroke-opacity="1.0"  filling="0" d="M15.511388778686523 8.750263214111328 L15.511388778686523 8.750263214111328 C16.20076560974121 8.805351257324219 16.622940063476562 8.893004417419434 17.18149185180664 9.304500579833984 L17.18149185180664 9.304500579833984 C17.069150924682617 9.46303939819336 16.571744918823242 10.367103576660156 16.313426971435547 10.503763198852539 C16.031387329101562 10.652972221374512 15.619141578674316 10.31855297088623 15.356208801269531 10.49931812286377 C14.947063446044922 10.78060245513916 14.707255363464355 11.739137649536133 14.754791259765625 12.227999687194824 C14.827031135559082 12.97092342376709 15.100212097167969 13.7453031539917 15.979227066040039 13.780962944030762 C16.23393440246582 13.791296005249023 16.5907039642334 13.3613862991333 16.71774673461914 13.582389831542969 C16.797489166259766 13.721109390258789 17.057355880737305 14.544405937194824 17.14311981201172 14.810507774353027 L17.14311981201172 14.810507774353027 C15.199013710021973 16.008119583129883 13.792346954345703 14.758997917175293 13.371074676513672 13.077503204345703 C12.949801445007324 11.396007537841797 13.513921737670898 9.282140731811523 15.511388778686523 8.750263214111328 L15.511388778686523 8.750263214111328"></path></svg>