<svg xmlns="http://www.w3.org/2000/svg" viewBox="0.0 0.0 24.0 24.0" height="200px" width="200px"><path fill="none" stroke="black" stroke-width=".3" stroke-opacity="1.0"  filling="0" d="M-6.899999618530273 7.909090995788574 L-6.899999618530273 7.909090995788574 C-6.645454406738281 7.909090995788574 -6.390909194946289 7.909090995788574 -6.136363983154297 7.909090995788574 L-6.136363983154297 7.909090995788574 C-6.064375400543213 9.227413177490234 -6.058055877685547 10.562494277954102 -6.069470405578613 11.898452758789062 C-6.08088493347168 13.234410285949707 -6.11003303527832 14.571245193481445 -6.108980178833008 15.893074035644531 L-6.108980178833008 15.893074035644531 C-4.304265022277832 16.044679641723633 -2.476065158843994 16.099706649780273 -0.6398838758468628 16.10556411743164 C1.1962974071502686 16.111421585083008 3.0404605865478516 16.0681095123291 4.877102851867676 16.02303695678711 C6.713744640350342 15.977964401245117 8.542865753173828 15.931129455566406 10.348963737487793 15.929943084716797 C12.650328636169434 15.928430557250977 14.952726364135742 15.936474800109863 17.255210876464844 15.944923400878906 C19.557697296142578 15.95337200164795 21.86026954650879 15.962224960327148 24.161989212036133 15.962328910827637 C26.463706970214844 15.962433815002441 28.764570236206055 15.953790664672852 31.063634872436523 15.92724609375 L31.063634872436523 15.92724609375 C31.063634872436523 15.990874290466309 31.063634872436523 16.054502487182617 31.063634872436523 16.11812973022461 L31.063634872436523 16.11812973022461 C28.906816482543945 16.11813735961914 26.749998092651367 16.118144989013672 24.593181610107422 16.11815071105957 C22.436363220214844 16.11815643310547 20.279544830322266 16.118162155151367 18.122726440429688 16.118167877197266 C15.96590805053711 16.11817169189453 13.809089660644531 16.118175506591797 11.652271270751953 16.11817741394043 C9.495452880859375 16.118179321289062 7.338634014129639 16.118181228637695 5.181816101074219 16.118181228637695 C3.235574960708618 16.118181228637695 1.215017557144165 16.229473114013672 -0.8018826246261597 16.285120010375977 C-2.8187828063964844 16.34076690673828 -4.832025527954102 16.34076690673828 -6.763637542724609 16.118183135986328 C-7.496250629425049 16.033761978149414 -6.901148796081543 14.647497177124023 -6.900491237640381 13.91003704071045 C-6.898706436157227 11.908403396606445 -6.897976875305176 9.908650398254395 -6.899999618530273 7.909090995788574 L-6.899999618530273 7.909090995788574"></path></svg>