<svg xmlns="http://www.w3.org/2000/svg" viewBox="0.0 0.0 24.0 24.0" height="200px" width="200px"><path fill="none" stroke="black" stroke-width=".3" stroke-opacity="1.0"  filling="0" d="M8.42727279663086 9.218181610107422 L8.42727279663086 9.218181610107422 C8.376418113708496 9.289645195007324 8.32556438446045 9.361108779907227 8.274709701538086 9.432572364807129 L8.274709701538086 9.432572364807129 C8.156054496765137 9.415736198425293 8.037400245666504 9.398900032043457 7.918745517730713 9.382063865661621 L7.918745517730713 9.382063865661621 C7.884454727172852 9.408172607421875 7.85016393661499 9.434282302856445 7.815873146057129 9.4603910446167 L7.815873146057129 9.4603910446167 C7.809672832489014 9.456563949584961 7.803472995758057 9.452736854553223 7.797272682189941 9.448909759521484 L7.797272682189941 9.448909759521484 C7.808145523071289 9.419245719909668 7.8190178871154785 9.389582633972168 7.829890727996826 9.359918594360352 L7.829890727996826 9.359918594360352 C7.821181774139404 9.355191230773926 7.812472343444824 9.350464820861816 7.803763389587402 9.34573745727539 L7.803763389587402 9.34573745727539 C7.748372554779053 9.3949556350708 7.692981719970703 9.444173812866211 7.6375908851623535 9.493391990661621 L7.6375908851623535 9.493391990661621 C7.63981819152832 9.441155433654785 7.642045021057129 9.38891887664795 7.644272327423096 9.336682319641113 L7.644272327423096 9.336682319641113 C7.580136299133301 9.328655242919922 7.515999794006348 9.32062816619873 7.451863765716553 9.312601089477539 L7.451863765716553 9.312601089477539 C7.449718475341797 9.281137466430664 7.447573184967041 9.249673843383789 7.445427894592285 9.218210220336914 L7.445427894592285 9.218210220336914 C7.772709369659424 9.21820068359375 8.099990844726562 9.218191146850586 8.42727279663086 9.218181610107422 L8.42727279663086 9.218181610107422"></path></svg>