<svg xmlns="http://www.w3.org/2000/svg" viewBox="0.0 0.0 24.0 24.0" height="200px" width="200px"><path fill="none" stroke="black" stroke-width=".3" stroke-opacity="1.0"  filling="0" d="M13.574453353881836 11.22845458984375 L13.574453353881836 11.22845458984375 C13.761384963989258 11.246040344238281 13.91794204711914 11.398758888244629 14.04679012298584 11.535326957702637 L14.04679012298584 11.535326957702637 C13.976144790649414 11.684208869934082 13.905498504638672 11.833090782165527 13.834853172302246 11.981972694396973 L13.834853172302246 11.981972694396973 C13.751908302307129 11.9030179977417 13.668962478637695 11.824064254760742 13.586017608642578 11.745109558105469 L13.586017608642578 11.745109558105469 C12.957071304321289 12.346467971801758 13.118181228637695 13.20460319519043 13.118181228637695 14.019027709960938 L13.118181228637695 14.019027709960938 C13.006063461303711 14.019027709960938 12.89394474029541 14.019027709960938 12.781826972961426 14.019027709960938 L12.781826972961426 14.019027709960938 C12.781810760498047 13.110045433044434 12.7818021774292 12.201064109802246 12.781800270080566 11.292081832885742 L12.781800270080566 11.292081832885742 C12.891827583312988 11.276527404785156 13.001853942871094 11.260972023010254 13.111881256103516 11.245417594909668 L13.111881256103516 11.245417594909668 C13.11727237701416 11.42125415802002 13.122662544250488 11.597090721130371 13.128053665161133 11.772927284240723 L13.128053665161133 11.772927284240723 C13.137781143188477 11.773209571838379 13.147507667541504 11.773490905761719 13.157235145568848 11.773773193359375 L13.157235145568848 11.773773193359375 C13.272245407104492 11.575896263122559 13.402743339538574 11.379776000976562 13.574453353881836 11.22845458984375 L13.574453353881836 11.22845458984375"></path></svg>