<svg xmlns="http://www.w3.org/2000/svg" viewBox="0.0 0.0 24.0 24.0" height="200px" width="200px"><path fill="none" stroke="black" stroke-width=".3" stroke-opacity="1.0"  filling="0" d="M-3.86623477935791 8.834589004516602 L-3.86623477935791 8.834589004516602 C-3.3132619857788086 8.834589004516602 -2.760289192199707 8.834589004516602 -2.2073163986206055 8.834589004516602 L-2.2073163986206055 8.834589004516602 C-2.205824136734009 9.615671157836914 -2.2099711894989014 10.396785736083984 -2.219862937927246 11.177806854248047 L-2.219862937927246 11.177806854248047 C-1.872042179107666 10.403925895690918 -1.534709095954895 9.625240325927734 -1.208425521850586 8.842035293579102 L-1.208425521850586 8.842035293579102 C-0.6590006351470947 8.844252586364746 -0.06976091861724854 8.773499488830566 0.4672374725341797 8.860498428344727 L0.4672374725341797 8.860498428344727 C0.046284258365631104 9.748441696166992 -0.6786466240882874 10.836483001708984 -0.8404083251953125 11.791852951049805 C-1.0011534690856934 12.741219520568848 0.1428254246711731 14.337008476257324 0.5424270629882812 15.218208312988281 L0.5424270629882812 15.218208312988281 C-0.038652658462524414 15.217873573303223 -0.6214229464530945 15.244873046875 -1.200709342956543 15.199254035949707 L-1.200709342956543 15.199254035949707 C-1.4911233186721802 14.553747177124023 -1.7192144393920898 13.30635929107666 -2.2080535888671875 12.809835433959961 L-2.2080535888671875 12.809835433959961 C-2.2174901962280273 12.814453125 -2.226926803588867 12.819071769714355 -2.236363410949707 12.823689460754395 L-2.236363410949707 12.823689460754395 C-2.236363410949707 14.819622039794922 -1.6840317249298096 15.21823501586914 -3.86623477935791 15.21823501586914 L-3.86623477935791 15.21823501586914 C-3.86623477935791 13.090353012084961 -3.86623477935791 10.962471008300781 -3.86623477935791 8.834589004516602 L-3.86623477935791 8.834589004516602"></path></svg>