<svg xmlns="http://www.w3.org/2000/svg" viewBox="0.0 0.0 24.0 24.0" height="200px" width="200px"><path fill="none" stroke="black" stroke-width=".3" stroke-opacity="1.0"  filling="0" d="M11.232027053833008 9.80241870880127 L11.232027053833008 9.80241870880127 C11.241559982299805 9.980896949768066 11.236306190490723 10.159867286682129 11.236391067504883 10.338600158691406 L11.236391067504883 10.338600158691406 C10.660165786743164 10.183586120605469 10.381231307983398 10.778261184692383 10.65444564819336 11.265381813049316 L10.65444564819336 11.265381813049316 C10.745882034301758 11.265381813049316 10.837319374084473 11.265381813049316 10.928755760192871 11.265381813049316 L10.928755760192871 11.265381813049316 C10.928755760192871 11.417154312133789 10.928755760192871 11.568927764892578 10.928755760192871 11.72070026397705 L10.928755760192871 11.72070026397705 C10.823155403137207 11.72070026397705 10.71755599975586 11.72070026397705 10.611955642700195 11.72070026397705 L10.611955642700195 11.72070026397705 C10.611955642700195 12.493182182312012 10.611955642700195 13.265664100646973 10.611955642700195 14.038146018981934 L10.611955642700195 14.038146018981934 C10.501928329467773 14.038146018981934 10.391901016235352 14.038146018981934 10.28187370300293 14.038146018981934 L10.28187370300293 14.038146018981934 C10.28187370300293 13.428518295288086 10.839498519897461 11.80795955657959 10.044572830200195 11.720781326293945 L10.044572830200195 11.720781326293945 C10.024361610412598 11.572015762329102 10.03681468963623 11.420586585998535 10.036690711975098 11.270454406738281 L10.036690711975098 11.270454406738281 C10.110209465026855 11.266290664672852 10.183727264404297 11.262126922607422 10.257246017456055 11.257963180541992 L10.257246017456055 11.257963180541992 C10.356742858886719 10.415914535522461 10.186370849609375 9.862199783325195 11.232027053833008 9.80241870880127 L11.232027053833008 9.80241870880127"></path></svg>