<svg xmlns="http://www.w3.org/2000/svg" viewBox="0.0 0.0 24.0 24.0" height="200px" width="200px"><path fill="none" stroke="black" stroke-width=".3" stroke-opacity="1.0"  filling="0" d="M10.837170600891113 9.709500312805176 L10.837170600891113 9.709500312805176 C11.178970336914062 9.846795082092285 11.564081192016602 10.17387580871582 11.563581466674805 10.542219161987305 L11.563581466674805 10.542219161987305 C11.553109169006348 10.55156421661377 11.542635917663574 10.560908317565918 11.532163619995117 10.570253372192383 L11.532163619995117 10.570253372192383 C9.91282844543457 9.539904594421387 9.258543968200684 11.587129592895508 9.747055053710938 12.885871887207031 C10.219141006469727 14.140946388244629 11.231972694396973 13.448100090026855 11.23603630065918 12.436307907104492 L11.23603630065918 12.436307907104492 C11.009114265441895 12.436076164245605 10.73460865020752 12.17739200592041 10.75794506072998 11.95167350769043 L10.75794506072998 11.95167350769043 C11.035608291625977 11.95167350769043 11.313272476196289 11.95167350769043 11.590935707092285 11.95167350769043 L11.590935707092285 11.95167350769043 C11.590935707092285 12.498249053955078 11.684725761413574 13.111433982849121 11.587690353393555 13.64648151397705 C11.483792304992676 14.219368934631348 10.198872566223145 14.045825004577637 9.899044036865234 13.76740837097168 C8.687524795532227 12.642410278320312 8.914228439331055 9.793464660644531 10.837170600891113 9.709500312805176 L10.837170600891113 9.709500312805176"></path></svg>