<svg xmlns="http://www.w3.org/2000/svg" viewBox="0.0 0.0 24.0 24.0" height="200px" width="200px"><path fill="none" stroke="black" stroke-width=".3" stroke-opacity="1.0"  filling="0" d="M8.772409439086914 11.075918197631836 L8.772409439086914 11.075918197631836 C9.030291557312012 11.075918197631836 9.288172721862793 11.075918197631836 9.54605484008789 11.075918197631836 L9.54605484008789 11.075918197631836 C9.562336921691895 11.273527145385742 9.578618049621582 11.471137046813965 9.594900131225586 11.668745994567871 L9.594900131225586 11.668745994567871 C9.44849967956543 11.538518905639648 9.30210018157959 11.40829086303711 9.155699729919434 11.278063774108887 L9.155699729919434 11.278063774108887 C9.066767692565918 11.65146255493164 9.121679306030273 12.183917045593262 9.405954360961914 11.593526840209961 L9.405954360961914 11.593526840209961 C9.3917236328125 11.866230010986328 9.351675033569336 12.138705253601074 9.287590980529785 12.404153823852539 L9.287590980529785 12.404153823852539 C9.26241397857666 12.260599136352539 9.144087791442871 12.121417999267578 9.008727073669434 12.067389488220215 L9.008727073669434 12.067389488220215 C8.983696937561035 12.287096977233887 8.95051383972168 12.506051063537598 8.90869140625 12.723188400268555 L8.90869140625 12.723188400268555 C9.114706039428711 12.6959810256958 9.32347297668457 12.568004608154297 9.438817977905273 12.39515209197998 L9.438817977905273 12.39515209197998 C9.366693496704102 13.013800621032715 9.106322288513184 13.073978424072266 8.509171485900879 12.954569816589355 L8.509171485900879 12.954569816589355 C8.50914478302002 12.909107208251953 8.509117126464844 12.86364459991455 8.509090423583984 12.818181991577148 L8.509090423583984 12.818181991577148 C8.974564552307129 12.321120262145996 8.845067024230957 11.667708396911621 8.772409439086914 11.075918197631836 L8.772409439086914 11.075918197631836"></path></svg>