<svg xmlns="http://www.w3.org/2000/svg" viewBox="0.0 0.0 24.0 24.0" height="200px" width="200px"><path fill="none" stroke="black" stroke-width=".3" stroke-opacity="1.0"  filling="0" d="M8.421163558959961 8.808955192565918 L8.421163558959961 8.808955192565918 C9.992151260375977 8.917686462402344 10.117788314819336 9.70357894897461 11.0060453414917 11.079900741577148 L11.0060453414917 11.079900741577148 C11.017036437988281 11.073155403137207 11.028027534484863 11.06640911102295 11.039018630981445 11.059663772583008 L11.039018630981445 11.059663772583008 C11.039266586303711 10.313993453979492 11.04523754119873 9.568424224853516 11.04548168182373 8.82275390625 L11.04548168182373 8.82275390625 C11.59792709350586 8.82275390625 12.150373458862305 8.82275390625 12.702818870544434 8.82275390625 L12.702818870544434 8.82275390625 C12.714262008666992 10.943037986755371 12.683500289916992 13.062773704528809 12.683237075805664 15.183053970336914 L12.683237075805664 15.183053970336914 C10.859980583190918 15.564440727233887 10.977291107177734 13.657026290893555 9.948380470275879 12.636137008666992 L9.948380470275879 12.636137008666992 C9.954389572143555 13.49195384979248 9.950756072998047 14.345207214355469 9.927817344665527 15.20075511932373 L9.927817344665527 15.20075511932373 C9.402544975280762 15.192182540893555 8.87727165222168 15.183609008789062 8.351999282836914 15.175036430358887 L8.351999282836914 15.175036430358887 C8.095352172851562 13.769225120544434 8.318120956420898 12.134288787841797 8.318033218383789 10.710328102111816 C8.31801700592041 10.443045616149902 7.9953742027282715 9.2435302734375 8.421163558959961 8.808955192565918 L8.421163558959961 8.808955192565918"></path></svg>