<svg xmlns="http://www.w3.org/2000/svg" viewBox="0.0 0.0 24.0 24.0" height="200px" width="200px"><path fill="none" stroke="black" stroke-width=".3" stroke-opacity="1.0"  filling="0" d="M4.700672626495361 11.20295524597168 L4.700672626495361 11.20295524597168 C5.518117427825928 11.358113288879395 5.599310398101807 11.69389820098877 5.718572616577148 12.484609603881836 L5.718572616577148 12.484609603881836 C5.651968002319336 12.534893989562988 4.423178195953369 12.467013359069824 4.421535968780518 12.63575553894043 C4.41151762008667 13.665046691894531 5.070316314697266 13.560415267944336 5.6725358963012695 13.200709342956543 L5.6725358963012695 13.200709342956543 C5.668323993682861 13.607735633850098 5.244947910308838 14.554533004760742 4.661263465881348 13.97050952911377 C3.849003791809082 13.1577787399292 3.8901634216308594 11.938861846923828 4.700672626495361 11.20295524597168 L4.700672626495361 11.20295524597168"></path>
<path fill="none" stroke="black" stroke-width=".3" stroke-opacity="1.0"  filling="0" d="M5.066372871398926 11.646899223327637 L5.066372871398926 11.646899223327637 C5.151472568511963 11.808390617370605 5.236572742462158 11.969881057739258 5.321672439575195 12.131372451782227 L5.321672439575195 12.131372451782227 C5.048654556274414 12.131372451782227 4.775636196136475 12.131372451782227 4.502618312835693 12.131372451782227 L4.502618312835693 12.131372451782227 C4.603402137756348 11.905020713806152 4.8225836753845215 11.691165924072266 5.066372871398926 11.646899223327637 L5.066372871398926 11.646899223327637"></path></svg>