<svg xmlns="http://www.w3.org/2000/svg" viewBox="0.0 0.0 24.0 24.0" height="200px" width="200px"><path fill="none" stroke="black" stroke-width=".3" stroke-opacity="1.0"  filling="0" d="M11.931845664978027 11.513154983520508 L11.931845664978027 11.513154983520508 C11.954181671142578 11.557981491088867 11.976518630981445 11.602808952331543 11.998854637145996 11.647635459899902 L11.998854637145996 11.647635459899902 C11.973736763000488 11.71733570098877 11.948617935180664 11.78703498840332 11.923500061035156 11.856735229492188 L11.923500061035156 11.856735229492188 C12.486592292785645 12.029376029968262 11.896284103393555 12.638629913330078 11.641419410705566 12.442418098449707 C11.43199348449707 12.281188011169434 11.734407424926758 11.813950538635254 11.78187370300293 11.624944686889648 L11.78187370300293 11.624944686889648 C11.772136688232422 11.612526893615723 11.76240062713623 11.60010814666748 11.752663612365723 11.587690353393555 L11.752663612365723 11.587690353393555 C11.81239128112793 11.562845230102539 11.87211799621582 11.538000106811523 11.931845664978027 11.513154983520508 L11.931845664978027 11.513154983520508"></path>
<path fill="none" stroke="black" stroke-width=".3" stroke-opacity="1.0"  filling="0" d="M11.924400329589844 12.01074504852295 L11.924400329589844 12.01074504852295 C11.974381446838379 12.076383590698242 11.891561508178711 12.196088790893555 11.818527221679688 12.23446273803711 L11.818527221679688 12.23446273803711 C11.8538179397583 12.159890174865723 11.88910961151123 12.085317611694336 11.924400329589844 12.01074504852295 L11.924400329589844 12.01074504852295"></path></svg>