<svg xmlns="http://www.w3.org/2000/svg" viewBox="0.0 0.0 24.0 24.0" height="200px" width="200px"><path fill="none" stroke="black" stroke-width=".3" stroke-opacity="1.0"  filling="0" d="M11.590909957885742 11.481818199157715 L11.590909957885742 11.481818199157715 C11.809091567993164 11.481818199157715 12.027273178100586 11.481818199157715 12.245454788208008 11.481818199157715 L12.245454788208008 11.481818199157715 C12.298454284667969 11.536072731018066 12.351454734802246 11.590326309204102 12.404454231262207 11.644580841064453 L12.404454231262207 11.644580841064453 C12.293644905090332 11.619726181030273 12.182836532592773 11.59487247467041 12.072027206420898 11.57001781463623 L12.072027206420898 11.57001781463623 C12.059527397155762 11.596199035644531 12.047026634216309 11.622381210327148 12.034526824951172 11.64856243133545 L12.034526824951172 11.64856243133545 C11.930444717407227 11.643208503723145 11.826363563537598 11.637853622436523 11.722281455993652 11.632499694824219 L11.722281455993652 11.632499694824219 C11.673999786376953 11.67456340789795 11.625717163085938 11.716628074645996 11.577435493469238 11.758691787719727 L11.577435493469238 11.758691787719727 C11.56531810760498 11.667089462280273 11.57101821899414 11.572052001953125 11.590909957885742 11.481818199157715 L11.590909957885742 11.481818199157715"></path></svg>