<svg xmlns="http://www.w3.org/2000/svg" viewBox="0.0 0.0 24.0 24.0" height="200px" width="200px"><path fill="none" stroke="black" stroke-width=".3" stroke-opacity="1.0"  filling="0" d="M14.486183166503906 11.131443977355957 L14.486183166503906 11.131443977355957 C15.453132629394531 11.293216705322266 15.517783164978027 11.450550079345703 15.617454528808594 12.383317947387695 L15.617454528808594 12.383317947387695 C15.186200141906738 12.393827438354492 14.754945755004883 12.404335975646973 14.323691368103027 12.41484546661377 L14.323691368103027 12.41484546661377 C14.60885238647461 13.315878868103027 14.753083229064941 13.664042472839355 15.565881729125977 13.046344757080078 L15.565881729125977 13.046344757080078 C15.586194038391113 13.677681922912598 15.001463890075684 14.32551097869873 14.35726547241211 13.659435272216797 C13.643712997436523 12.921648979187012 13.980201721191406 11.8074312210083 14.486183166503906 11.131443977355957 L14.486183166503906 11.131443977355957"></path>
<path fill="none" stroke="black" stroke-width=".3" stroke-opacity="1.0"  filling="0" d="M14.990154266357422 11.521172523498535 L14.990154266357422 11.521172523498535 C15.065690994262695 11.678955078125 15.141226768493652 11.836736679077148 15.216763496398926 11.994519233703613 L15.216763496398926 11.994519233703613 C14.943681716918945 11.994519233703613 14.670599937438965 11.99452018737793 14.397518157958984 11.99452018737793 L14.397518157958984 11.99452018737793 C14.511783599853516 11.76899242401123 14.738017082214355 11.53978443145752 14.990154266357422 11.521172523498535 L14.990154266357422 11.521172523498535"></path></svg>