<svg xmlns="http://www.w3.org/2000/svg" viewBox="0.0 0.0 24.0 24.0" height="200px" width="200px"><path fill="none" stroke="black" stroke-width=".3" stroke-opacity="1.0"  filling="0" d="M9.183490753173828 11.858016967773438 L9.183490753173828 11.858016967773438 C9.470246315002441 11.860481262207031 9.398496627807617 11.948457717895508 9.301772117614746 12.201272010803223 L9.301772117614746 12.201272010803223 C9.332772254943848 12.214408874511719 9.36377239227295 12.227544784545898 9.39477252960205 12.240681648254395 L9.39477252960205 12.240681648254395 C9.31830883026123 12.323817253112793 9.241846084594727 12.406953811645508 9.165382385253906 12.490089416503906 L9.165382385253906 12.490089416503906 C9.12828254699707 12.467144012451172 9.091182708740234 12.444199562072754 9.054082870483398 12.42125415802002 L9.054082870483398 12.42125415802002 C8.9996919631958 12.44448184967041 8.945300102233887 12.467708587646484 8.890909194946289 12.490936279296875 L8.890909194946289 12.490936279296875 C8.890909194946289 12.31820011138916 8.890909194946289 12.145462989807129 8.890909194946289 11.972726821899414 L8.890909194946289 11.972726821899414 C8.978277206420898 11.91493034362793 9.080757141113281 11.878498077392578 9.183490753173828 11.858016967773438 L9.183490753173828 11.858016967773438"></path>
<path fill="none" stroke="black" stroke-width=".3" stroke-opacity="1.0"  filling="0" d="M9.000545501708984 12.033546447753906 L9.000545501708984 12.033546447753906 C9.064927101135254 12.065528869628906 9.023303985595703 12.199522018432617 8.969263076782227 12.246928215026855 L8.969263076782227 12.246928215026855 C8.979690551757812 12.175801277160645 8.990118026733398 12.104673385620117 9.000545501708984 12.033546447753906 L9.000545501708984 12.033546447753906"></path></svg>