<svg xmlns="http://www.w3.org/2000/svg" viewBox="0.0 0.0 24.0 24.0" height="200px" width="200px"><path fill="none" stroke="black" stroke-width=".3" stroke-opacity="1.0"  filling="0" d="M12.416781425476074 11.94294548034668 L12.416781425476074 11.94294548034668 C12.438881874084473 11.97674560546875 12.460982322692871 12.010544776916504 12.48308277130127 12.044344902038574 L12.48308277130127 12.044344902038574 C12.891316413879395 11.860392570495605 12.812856674194336 12.304319381713867 12.492818832397461 12.099709510803223 L12.492818832397461 12.099709510803223 C12.403855323791504 12.114945411682129 12.31489086151123 12.130182266235352 12.225927352905273 12.145418167114258 L12.225927352905273 12.145418167114258 C12.240055084228516 12.053751945495605 12.327147483825684 11.966778755187988 12.416781425476074 11.94294548034668 L12.416781425476074 11.94294548034668"></path>
<path fill="none" stroke="black" stroke-width=".3" stroke-opacity="1.0"  filling="0" d="M12.65566349029541 11.991382598876953 L12.65566349029541 11.991382598876953 C12.665345191955566 11.997673034667969 12.675027847290039 12.0039644241333 12.684709548950195 12.010254859924316 L12.684709548950195 12.010254859924316 C12.676263809204102 12.061308860778809 12.667818069458008 12.112363815307617 12.659372329711914 12.16341781616211 L12.659372329711914 12.16341781616211 C12.641571998596191 12.164236068725586 12.623772621154785 12.165054321289062 12.605972290039062 12.165872573852539 L12.605972290039062 12.165872573852539 C12.591629981994629 12.107122421264648 12.608919143676758 12.029752731323242 12.65566349029541 11.991382598876953 L12.65566349029541 11.991382598876953"></path></svg>