<svg xmlns="http://www.w3.org/2000/svg" viewBox="0.0 0.0 24.0 24.0" height="200px" width="200px"><path fill="none" stroke="black" stroke-width=".3" stroke-opacity="1.0"  filling="0" d="M13.718235969543457 11.78732681274414 L13.718235969543457 11.78732681274414 C13.751581192016602 11.830190658569336 13.784927368164062 11.873053550720215 13.818272590637207 11.91591739654541 L13.818272590637207 11.91591739654541 C13.761709213256836 11.896990776062012 13.705144882202148 11.878063201904297 13.648581504821777 11.859136581420898 L13.648581504821777 11.859136581420898 C13.642390251159668 11.87121868133545 13.636199951171875 11.883299827575684 13.630008697509766 11.895381927490234 L13.630008697509766 11.895381927490234 C14.031779289245605 12.154047012329102 13.530369758605957 12.300283432006836 13.555009841918945 12.054109573364258 L13.555009841918945 12.054109573364258 C13.566709518432617 12.055182456970215 13.578409194946289 12.056254386901855 13.590108871459961 12.057327270507812 L13.590108871459961 12.057327270507812 C13.605881690979004 12.080254554748535 13.62165355682373 12.103181838989258 13.637426376342773 12.12610912322998 L13.637426376342773 12.12610912322998 C13.673017501831055 12.115954399108887 13.708608627319336 12.10580062866211 13.744199752807617 12.095645904541016 L13.744199752807617 12.095645904541016 C13.746209144592285 12.086482048034668 13.748217582702637 12.07731819152832 13.750226974487305 12.068154335021973 L13.750226974487305 12.068154335021973 C13.552170753479004 11.984904289245605 13.465579986572266 11.86175537109375 13.718235969543457 11.78732681274414 L13.718235969543457 11.78732681274414"></path></svg>