<svg xmlns="http://www.w3.org/2000/svg" viewBox="0.0 0.0 24.0 24.0" height="200px" width="200px"><path fill="none" stroke="black" stroke-width=".3" stroke-opacity="1.0"  filling="0" d="M13.677655220031738 11.908117294311523 L13.677655220031738 11.908117294311523 C13.76353645324707 11.909472465515137 13.849418640136719 11.910826683044434 13.93529987335205 11.912181854248047 L13.93529987335205 11.912181854248047 C13.892291069030762 12.026054382324219 13.849282264709473 12.13992691040039 13.806273460388184 12.253799438476562 L13.806273460388184 12.253799438476562 C13.84000015258789 12.271062850952148 13.873727798461914 12.28832721710205 13.907454490661621 12.305590629577637 L13.907454490661621 12.305590629577637 C13.825408935546875 12.385499954223633 13.743363380432129 12.465409278869629 13.661317825317383 12.545318603515625 L13.661317825317383 12.545318603515625 C13.580963134765625 12.545272827148438 13.500609397888184 12.545228004455566 13.420254707336426 12.545182228088379 L13.420254707336426 12.545182228088379 C13.301151275634766 12.212502479553223 13.257347106933594 11.990555763244629 13.677655220031738 11.908117294311523 L13.677655220031738 11.908117294311523"></path>
<path fill="none" stroke="black" stroke-width=".3" stroke-opacity="1.0"  filling="0" d="M13.510336875915527 12.064310073852539 L13.510336875915527 12.064310073852539 C13.582079887390137 12.102409362792969 13.569048881530762 12.235895156860352 13.530136108398438 12.30720043182373 L13.530136108398438 12.30720043182373 C13.523536682128906 12.226237297058105 13.516936302185059 12.145273208618164 13.510336875915527 12.064310073852539 L13.510336875915527 12.064310073852539"></path></svg>