<svg xmlns="http://www.w3.org/2000/svg" viewBox="0.0 0.0 24.0 24.0" height="200px" width="200px"><path fill="none" stroke="black" stroke-width=".3" stroke-opacity="1.0"  filling="0" d="M13.082454681396484 11.812335968017578 L13.082454681396484 11.812335968017578 C13.08244514465332 11.9425630569458 13.082436561584473 12.07279109954834 13.082427024841309 12.203018188476562 L13.082427024841309 12.203018188476562 C13.052427291870117 12.152135848999023 13.022427558898926 12.1012544631958 12.992427825927734 12.050372123718262 L12.992427825927734 12.050372123718262 C12.966054916381836 12.105563163757324 12.939682006835938 12.160755157470703 12.913309097290039 12.215946197509766 L12.913309097290039 12.215946197509766 C12.863673210144043 12.153936386108398 12.81403636932373 12.091927528381348 12.764400482177734 12.02991771697998 L12.764400482177734 12.02991771697998 C12.750428199768066 12.091236114501953 12.736454963684082 12.15255355834961 12.722482681274414 12.213871955871582 L12.722482681274414 12.213871955871582 C12.708409309387207 12.080527305603027 12.694336891174316 11.947181701660156 12.68026351928711 11.813837051391602 L12.68026351928711 11.813837051391602 C12.711999893188477 11.813837051391602 12.743736267089844 11.813837051391602 12.775472640991211 11.813837051391602 L12.775472640991211 11.813837051391602 C12.808154106140137 11.89312744140625 12.840836524963379 11.972417831420898 12.873517990112305 12.051708221435547 L12.873517990112305 12.051708221435547 C12.943163871765137 11.971917152404785 13.012808799743652 11.89212703704834 13.082454681396484 11.812335968017578 L13.082454681396484 11.812335968017578"></path></svg>