<svg xmlns="http://www.w3.org/2000/svg" viewBox="0.0 0.0 24.0 24.0" height="200px" width="200px"><path fill="none" stroke="black" stroke-width=".3" stroke-opacity="1.0"  filling="0" d="M11.569663047790527 10.735173225402832 L11.569663047790527 10.735173225402832 C11.796338081359863 10.865643501281738 11.811675071716309 11.204915046691895 12.048408508300781 11.294836044311523 L12.048408508300781 11.294836044311523 C12.040690422058105 11.112581253051758 12.032973289489746 10.930327415466309 12.02525520324707 10.748072624206543 L12.02525520324707 10.748072624206543 C12.042017936706543 10.746427536010742 12.058781623840332 10.744781494140625 12.075544357299805 10.743136405944824 L12.075544357299805 10.743136405944824 C12.173145294189453 11.02830982208252 12.144855499267578 11.342720031738281 12.153491020202637 11.644009590148926 L12.153491020202637 11.644009590148926 C12.003936767578125 11.473764419555664 11.854381561279297 11.303518295288086 11.704827308654785 11.133273124694824 L11.704827308654785 11.133273124694824 C11.714509010314941 11.299891471862793 11.724190711975098 11.466509819030762 11.733872413635254 11.63312816619873 L11.733872413635254 11.63312816619873 C11.454902648925781 11.470113754272461 11.548080444335938 11.034710884094238 11.569663047790527 10.735173225402832 L11.569663047790527 10.735173225402832"></path></svg>