<svg xmlns="http://www.w3.org/2000/svg" viewBox="0.0 0.0 24.0 24.0" height="200px" width="200px"><path fill="none" stroke="black" stroke-width=".3" stroke-opacity="1.0"  filling="0" d="M14.066727638244629 11.786126136779785 L14.066727638244629 11.786126136779785 C14.10883617401123 11.842253684997559 14.150945663452148 11.898380279541016 14.19305419921875 11.954507827758789 L14.19305419921875 11.954507827758789 C14.207499504089355 11.933317184448242 14.221945762634277 11.912126541137695 14.236391067504883 11.890935897827148 L14.236391067504883 11.890935897827148 C14.236381530761719 12.000018119812012 14.236372947692871 12.109099388122559 14.236363410949707 12.218181610107422 L14.236363410949707 12.218181610107422 C14.18785285949707 12.149087905883789 14.141074180603027 12.078643798828125 14.098199844360352 12.005918502807617 L14.098199844360352 12.005918502807617 C14.089755058288574 12.008891105651855 14.08130931854248 12.011862754821777 14.072864532470703 12.014835357666016 L14.072864532470703 12.014835357666016 C14.075855255126953 12.074198722839355 14.078845977783203 12.133563041687012 14.081836700439453 12.192926406860352 L14.081836700439453 12.192926406860352 C14.051645278930664 12.205462455749512 14.021454811096191 12.217999458312988 13.991263389587402 12.230535507202148 L13.991263389587402 12.230535507202148 C13.991263389587402 12.095880508422852 13.991263389587402 11.961226463317871 13.991263389587402 11.826571464538574 L13.991263389587402 11.826571464538574 C14.01641845703125 11.813089370727539 14.041572570800781 11.79960823059082 14.066727638244629 11.786126136779785 L14.066727638244629 11.786126136779785"></path></svg>