<svg xmlns="http://www.w3.org/2000/svg" viewBox="0.0 0.0 24.0 24.0" height="200px" width="200px"><path fill="none" stroke="black" stroke-width=".3" stroke-opacity="1.0"  filling="0" d="M10.746682167053223 11.580763816833496 L10.746682167053223 11.580763816833496 C10.777363777160645 11.589446067810059 10.808046340942383 11.598127365112305 10.838727951049805 11.606809616088867 L10.838727951049805 11.606809616088867 C10.812573432922363 11.707673072814941 10.786417961120605 11.808537483215332 10.760263442993164 11.909400939941406 L10.760263442993164 11.909400939941406 C11.004809379577637 11.973355293273926 10.930418014526367 12.106958389282227 10.887872695922852 12.268717765808105 L10.887872695922852 12.268717765808105 C10.919609069824219 12.261554718017578 10.951345443725586 12.254390716552734 10.983081817626953 12.247227668762207 L10.983081817626953 12.247227668762207 C10.909927368164062 12.335290908813477 10.836772918701172 12.423355102539062 10.763618469238281 12.511418342590332 L10.763618469238281 12.511418342590332 C10.727072715759277 12.487482070922852 10.69052791595459 12.463545799255371 10.653982162475586 12.43960952758789 L10.653982162475586 12.43960952758789 C10.688918113708496 12.316954612731934 10.723855018615723 12.194300651550293 10.758790969848633 12.071645736694336 L10.758790969848633 12.071645736694336 C10.749309539794922 12.067873001098633 10.739827156066895 12.06410026550293 10.730345726013184 12.060327529907227 L10.730345726013184 12.060327529907227 C10.106985092163086 12.998773574829102 10.422131538391113 11.821939468383789 10.746682167053223 11.580763816833496 L10.746682167053223 11.580763816833496"></path></svg>