<svg xmlns="http://www.w3.org/2000/svg" viewBox="0.0 0.0 24.0 24.0" height="200px" width="200px"><path fill="none" stroke="black" stroke-width=".3" stroke-opacity="1.0"  filling="0" d="M15.042081832885742 11.39451789855957 L15.042081832885742 11.39451789855957 C15.342808723449707 11.404536247253418 15.643536567687988 11.41455364227295 15.944263458251953 11.424571990966797 L15.944263458251953 11.424571990966797 C15.91384506225586 11.534826278686523 15.883426666259766 11.64508056640625 15.853008270263672 11.755334854125977 L15.853008270263672 11.755334854125977 C15.8093900680542 11.711825370788574 15.765772819519043 11.668316841125488 15.72215461730957 11.624807357788086 L15.72215461730957 11.624807357788086 C15.346726417541504 11.901800155639648 15.262930870056152 12.253303527832031 15.136335372924805 12.709062576293945 L15.136335372924805 12.709062576293945 C15.054526329040527 12.70907211303711 14.972718238830566 12.709081649780273 14.890909194946289 12.709091186523438 L14.890909194946289 12.709091186523438 C14.998686790466309 12.346927642822266 15.16317081451416 11.989255905151367 15.307090759277344 11.638636589050293 L15.307090759277344 11.638636589050293 C15.191936492919922 11.669073104858398 15.076781272888184 11.699508666992188 14.961627006530762 11.729945182800293 L14.961627006530762 11.729945182800293 C14.988445281982422 11.618136405944824 15.015263557434082 11.506326675415039 15.042081832885742 11.39451789855957 L15.042081832885742 11.39451789855957"></path></svg>