<svg xmlns="http://www.w3.org/2000/svg" viewBox="0.0 0.0 24.0 24.0" height="200px" width="200px"><path fill="none" stroke="black" stroke-width=".3" stroke-opacity="1.0"  filling="0" d="M6.460200309753418 9.995209693908691 L6.460200309753418 9.995209693908691 C6.741854667663574 9.995209693908691 7.023509502410889 9.995209693908691 7.305163860321045 9.995209693908691 L7.305163860321045 9.995209693908691 C7.291745662689209 10.225646018981934 7.278326988220215 10.45608139038086 7.264908790588379 10.686517715454102 L7.264908790588379 10.686517715454102 C7.201299667358398 10.689526557922363 7.137690544128418 10.692536354064941 7.0740814208984375 10.695545196533203 L7.0740814208984375 10.695545196533203 C6.9625725746154785 11.44395923614502 6.845788955688477 12.4229154586792 6.9137725830078125 13.174991607666016 L6.9137725830078125 13.174991607666016 C6.9667582511901855 13.161429405212402 7.027156829833984 13.152811050415039 7.077845573425293 13.173355102539062 L7.077845573425293 13.173355102539062 C7.059999942779541 13.40136432647705 7.042154788970947 13.629372596740723 7.024309158325195 13.857381820678711 L7.024309158325195 13.857381820678711 C6.750718116760254 13.857381820678711 6.477127552032471 13.857381820678711 6.203536510467529 13.857381820678711 L6.203536510467529 13.857381820678711 C6.153438091278076 12.990279197692871 6.609511375427246 11.732434272766113 6.6577911376953125 10.697345733642578 L6.6577911376953125 10.697345733642578 C6.572209358215332 10.693245887756348 6.486627578735352 10.689146041870117 6.401045799255371 10.685046195983887 L6.401045799255371 10.685046195983887 C6.420763969421387 10.455101013183594 6.440482139587402 10.225154876708984 6.460200309753418 9.995209693908691 L6.460200309753418 9.995209693908691"></path></svg>