<svg xmlns="http://www.w3.org/2000/svg" viewBox="0.0 0.0 24.0 24.0" height="200px" width="200px"><path fill="none" stroke="black" stroke-width=".3" stroke-opacity="1.0"  filling="0" d="M13.17706298828125 10.449628829956055 L13.17706298828125 10.449628829956055 C13.575394630432129 10.498475074768066 13.212455749511719 12.928105354309082 13.077926635742188 13.314164161682129 L13.077926635742188 13.314164161682129 C13.003790855407715 13.295555114746094 12.929654121398926 13.276945114135742 12.855518341064453 13.258336067199707 L12.855518341064453 13.258336067199707 C12.042562484741211 13.336000442504883 12.042532920837402 12.126091003417969 12.481771469116211 11.557964324951172 C12.589849472045898 11.418172836303711 12.987829208374023 11.61882495880127 13.035080909729004 11.490301132202148 C13.153276443481445 11.168814659118652 13.004891395568848 10.752992630004883 13.17706298828125 10.449628829956055 L13.17706298828125 10.449628829956055"></path>
<path fill="none" stroke="black" stroke-width=".3" stroke-opacity="1.0"  filling="0" d="M12.936845779418945 11.809118270874023 L12.936845779418945 11.809118270874023 C12.911872863769531 12.1965913772583 12.886899948120117 12.584063529968262 12.861927032470703 12.971536636352539 L12.861927032470703 12.971536636352539 C12.406026840209961 13.084863662719727 12.37145709991455 11.809609413146973 12.936845779418945 11.809118270874023 L12.936845779418945 11.809118270874023"></path></svg>