<svg xmlns="http://www.w3.org/2000/svg" viewBox="0.0 0.0 24.0 24.0" height="200px" width="200px"><path fill="none" stroke="black" stroke-width=".3" stroke-opacity="1.0"  filling="0" d="M11.403244018554688 11.509745597839355 L11.403244018554688 11.509745597839355 C12.106124877929688 11.509873390197754 11.898050308227539 11.968466758728027 11.895681381225586 12.507518768310547 L11.895681381225586 12.507518768310547 C11.699190139770508 12.518836975097656 11.502699851989746 12.530155181884766 11.306208610534668 12.541473388671875 L11.306208610534668 12.541473388671875 C11.259960174560547 13.085046768188477 11.587454795837402 13.211771011352539 11.622490882873535 12.771299362182617 L11.622490882873535 12.771299362182617 C11.697017669677734 12.771299362182617 11.77154541015625 12.771299362182617 11.84607219696045 12.771299362182617 L11.84607219696045 12.771299362182617 C11.69698429107666 14.154759407043457 10.434163093566895 12.457136154174805 11.403244018554688 11.509745597839355 L11.403244018554688 11.509745597839355"></path>
<path fill="none" stroke="black" stroke-width=".3" stroke-opacity="1.0"  filling="0" d="M11.360699653625488 11.868871688842773 L11.360699653625488 11.868871688842773 C11.46457290649414 11.868880271911621 11.568445205688477 11.868889808654785 11.672318458557129 11.868898391723633 L11.672318458557129 11.868898391723633 C11.672318458557129 11.973380088806152 11.672318458557129 12.077862739562988 11.672318458557129 12.182344436645508 L11.672318458557129 12.182344436645508 C11.554964065551758 12.182344436645508 11.43760871887207 12.182344436645508 11.3202543258667 12.182344436645508 L11.3202543258667 12.182344436645508 C11.321227073669434 12.07699203491211 11.335289001464844 11.971118927001953 11.360699653625488 11.868871688842773 L11.360699653625488 11.868871688842773"></path></svg>