<svg xmlns="http://www.w3.org/2000/svg" viewBox="0.0 0.0 24.0 24.0" height="200px" width="200px"><path fill="none" stroke="black" stroke-width=".3" stroke-opacity="1.0"  filling="0" d="M12.394801139831543 11.64785385131836 L12.394801139831543 11.64785385131836 C12.427637100219727 11.65942668914795 12.460474014282227 11.670999526977539 12.49330997467041 11.682572364807129 L12.49330997467041 11.682572364807129 C12.491982460021973 11.692654609680176 12.490655899047852 11.702735900878906 12.489328384399414 11.712818145751953 L12.489328384399414 11.712818145751953 C12.428337097167969 11.725863456726074 12.36734676361084 11.738908767700195 12.306355476379395 11.751954078674316 L12.306355476379395 11.751954078674316 C12.335055351257324 11.923981666564941 12.363755226135254 12.09600830078125 12.392455101013184 12.268035888671875 L12.392455101013184 12.268035888671875 C12.367573738098145 12.268035888671875 12.342691421508789 12.268035888671875 12.31781005859375 12.268035888671875 L12.31781005859375 12.268035888671875 C12.285500526428223 12.107890129089355 12.253191947937012 11.947745323181152 12.220882415771484 11.787599563598633 L12.220882415771484 11.787599563598633 C12.156282424926758 11.77641773223877 12.091683387756348 11.765236854553223 12.027083396911621 11.75405502319336 L12.027083396911621 11.75405502319336 C12.149656295776367 11.71865463256836 12.272228240966797 11.68325424194336 12.394801139831543 11.64785385131836 L12.394801139831543 11.64785385131836"></path></svg>