<svg xmlns="http://www.w3.org/2000/svg" viewBox="0.0 0.0 24.0 24.0" height="200px" width="200px"><path fill="none" stroke="black" stroke-width=".3" stroke-opacity="1.0"  filling="0" d="M15.406389236450195 11.4546537399292 L15.406389236450195 11.4546537399292 C16.79928970336914 11.4546537399292 15.224655151367188 12.57456111907959 15.341564178466797 12.978954315185547 L15.341564178466797 12.978954315185547 C15.613164901733398 12.976112365722656 15.633940696716309 12.654605865478516 15.874582290649414 12.654709815979004 L15.874582290649414 12.654709815979004 C16.326635360717773 13.182929992675781 15.457733154296875 13.405588150024414 15.202608108520508 13.278436660766602 C14.77096176147461 13.063309669494629 15.133604049682617 11.646408081054688 15.406389236450195 11.4546537399292 L15.406389236450195 11.4546537399292"></path>
<path fill="none" stroke="black" stroke-width=".3" stroke-opacity="1.0"  filling="0" d="M15.38945484161377 11.756455421447754 L15.38945484161377 11.756455421447754 C15.53338623046875 11.758291244506836 15.722127914428711 11.912620544433594 15.701400756835938 12.05506420135498 L15.701400756835938 12.05506420135498 C15.585927963256836 12.067100524902344 15.470454216003418 12.079136848449707 15.354981422424316 12.09117317199707 L15.354981422424316 12.09117317199707 C15.366472244262695 11.97960090637207 15.37796401977539 11.868027687072754 15.38945484161377 11.756455421447754 L15.38945484161377 11.756455421447754"></path></svg>