<svg xmlns="http://www.w3.org/2000/svg" viewBox="0.0 0.0 24.0 24.0" height="200px" width="200px"><path fill="none" stroke="black" stroke-width=".3" stroke-opacity="1.0"  filling="0" d="M7.61699914932251 9.999326705932617 L7.61699914932251 9.999326705932617 C7.616472244262695 10.000090599060059 7.615944862365723 10.0008544921875 7.615417957305908 10.001618385314941 L7.615417957305908 10.001618385314941 C7.915053844451904 10.001618385314941 8.214690208435059 10.001618385314941 8.514326095581055 10.001618385314941 L8.514326095581055 10.001618385314941 C8.499162673950195 10.229388236999512 8.491095542907715 10.457754135131836 8.490545272827148 10.686027526855469 L8.490545272827148 10.686027526855469 C8.406072616577148 10.686027526855469 8.321599960327148 10.686027526855469 8.237127304077148 10.686027526855469 L8.237127304077148 10.686027526855469 C8.186090469360352 11.263970375061035 7.692266464233398 13.2389554977417 8.381426811218262 13.135008811950684 L8.381426811218262 13.135008811950684 C8.411745071411133 12.776481628417969 8.442063331604004 12.417953491210938 8.472381591796875 12.059426307678223 L8.472381591796875 12.059426307678223 C8.586372375488281 12.059426307678223 8.700364112854004 12.059426307678223 8.81435489654541 12.059426307678223 L8.81435489654541 12.059426307678223 C8.764534950256348 12.624418258666992 8.831098556518555 13.322147369384766 8.662717819213867 13.852936744689941 L8.662717819213867 13.852936744689941 C8.228617668151855 13.862690925598145 7.794517993927002 13.872446060180664 7.36041784286499 13.882200241088867 L7.36041784286499 13.882200241088867 C7.332870006561279 13.632292747497559 7.240523338317871 13.185940742492676 7.625235557556152 13.169455528259277 L7.625235557556152 13.169455528259277 C7.878320693969727 12.446081161499023 7.790410041809082 11.44892692565918 7.826372146606445 10.688754081726074 L7.826372146606445 10.688754081726074 C7.371576309204102 10.729153633117676 7.569026470184326 10.575531005859375 7.61699914932251 9.999326705932617 L7.61699914932251 9.999326705932617"></path></svg>