<svg xmlns="http://www.w3.org/2000/svg" viewBox="0.0 0.0 24.0 24.0" height="200px" width="200px"><path fill="none" stroke="black" stroke-width=".3" stroke-opacity="1.0"  filling="0" d="M12.103636741638184 11.645618438720703 L12.103636741638184 11.645618438720703 C12.176597595214844 11.696048736572266 12.257052421569824 11.762299537658691 12.275018692016602 11.849154472351074 L12.275018692016602 11.849154472351074 C12.265936851501465 11.856208801269531 12.256855010986328 11.863264083862305 12.247773170471191 11.870318412780762 L12.247773170471191 11.870318412780762 C12.200727462768555 11.830573081970215 12.153682708740234 11.790826797485352 12.106637001037598 11.751081466674805 L12.106637001037598 11.751081466674805 C12.084555625915527 11.77180004119873 12.06247329711914 11.79251766204834 12.04039192199707 11.813236236572266 L12.04039192199707 11.813236236572266 C12.662298202514648 12.265917778015137 11.805450439453125 12.286286354064941 12.002018928527832 12.044318199157715 L12.002018928527832 12.044318199157715 C12.042709350585938 12.094427108764648 12.08340072631836 12.144536018371582 12.124091148376465 12.194644927978516 L12.124091148376465 12.194644927978516 C12.084071159362793 11.929500579833984 11.891793251037598 11.848636627197266 12.103636741638184 11.645618438720703 L12.103636741638184 11.645618438720703"></path></svg>