<svg xmlns="http://www.w3.org/2000/svg" viewBox="0.0 0.0 24.0 24.0" height="200px" width="200px"><path fill="none" stroke="black" stroke-width=".3" stroke-opacity="1.0"  filling="0" d="M12.136880874633789 11.537047386169434 L12.136880874633789 11.537047386169434 C12.292888641357422 11.537199974060059 12.604276657104492 11.47202205657959 12.596017837524414 11.62781047821045 C12.58616828918457 11.813610076904297 12.15487003326416 11.55145263671875 12.228490829467773 11.918209075927734 L12.228490829467773 11.918209075927734 C12.345708847045898 11.918294906616211 12.468499183654785 11.98755168914795 12.540817260742188 12.079801559448242 L12.540817260742188 12.079801559448242 C12.423608779907227 12.073119163513184 12.30639934539795 12.066437721252441 12.189190864562988 12.059755325317383 L12.189190864562988 12.059755325317383 C12.195908546447754 12.145118713378906 12.202627182006836 12.230483055114746 12.209344863891602 12.31584644317627 L12.209344863891602 12.31584644317627 C12.338035583496094 12.32974624633789 12.466727256774902 12.343647003173828 12.595417976379395 12.35754680633545 L12.595417976379395 12.35754680633545 C12.595417976379395 12.391565322875977 12.595417976379395 12.425582885742188 12.595417976379395 12.459601402282715 L12.595417976379395 12.459601402282715 C12.456853866577148 12.47048282623291 12.318290710449219 12.481365203857422 12.179726600646973 12.492246627807617 L12.179726600646973 12.492246627807617 C12.0625581741333 12.195844650268555 12.137596130371094 11.855766296386719 12.136880874633789 11.537047386169434 L12.136880874633789 11.537047386169434"></path></svg>