<svg xmlns="http://www.w3.org/2000/svg" viewBox="0.0 0.0 24.0 24.0" height="200px" width="200px"><path fill="none" stroke="black" stroke-width=".3" stroke-opacity="1.0"  filling="0" d="M7.912145137786865 11.443281173706055 L7.912145137786865 11.443281173706055 C7.985372066497803 11.443281173706055 8.058599472045898 11.443281173706055 8.131826400756836 11.443281173706055 L8.131826400756836 11.443281173706055 C8.272079467773438 11.891576766967773 8.04898452758789 12.756843566894531 8.047008514404297 13.241045951843262 L8.047008514404297 13.241045951843262 C8.092408180236816 13.249227523803711 8.137808799743652 13.25740909576416 8.183208465576172 13.26559066772461 L8.183208465576172 13.26559066772461 C8.171181678771973 13.39825439453125 8.159153938293457 13.53091812133789 8.147127151489258 13.663581848144531 L8.147127151489258 13.663581848144531 C6.8185625076293945 13.50676155090332 7.0498175621032715 12.780158042907715 7.240472316741943 11.461172103881836 L7.240472316741943 11.461172103881836 C7.317617416381836 11.461172103881836 7.394762992858887 11.461172103881836 7.471908092498779 11.461172103881836 L7.471908092498779 11.461172103881836 C7.469636917114258 12.068015098571777 7.351727485656738 12.646728515625 7.4067816734313965 13.252471923828125 L7.4067816734313965 13.252471923828125 C8.182631492614746 13.239053726196289 7.747031211853027 11.979205131530762 7.912145137786865 11.443281173706055 L7.912145137786865 11.443281173706055"></path></svg>