<svg xmlns="http://www.w3.org/2000/svg" viewBox="0.0 0.0 24.0 24.0" height="200px" width="200px"><path fill="none" stroke="black" stroke-width=".3" stroke-opacity="1.0"  filling="0" d="M6.210299968719482 11.000073432922363 L6.210299968719482 11.000073432922363 C6.350500106811523 11.045454978942871 6.490699768066406 11.090837478637695 6.630899906158447 11.136219024658203 L6.630899906158447 11.136219024658203 C6.643154621124268 11.10887336730957 6.655409336090088 11.081528663635254 6.667664051055908 11.054183006286621 L6.667664051055908 11.054183006286621 C6.760954856872559 11.054183006286621 6.854246139526367 11.054183006286621 6.947536945343018 11.054183006286621 L6.947536945343018 11.054183006286621 C6.947536945343018 11.302119255065918 6.947536945343018 11.550056457519531 6.947536945343018 11.797992706298828 L6.947536945343018 11.797992706298828 C6.867273330688477 11.797992706298828 6.787009239196777 11.797992706298828 6.706745624542236 11.797992706298828 L6.706745624542236 11.797992706298828 C6.544223785400391 11.390172004699707 5.670214653015137 11.229100227355957 5.968690395355225 11.68230152130127 C6.111161231994629 11.898627281188965 6.573832988739014 11.778996467590332 6.668509006500244 12.020101547241211 C7.1645426750183105 13.283313751220703 6.598448276519775 13.1600923538208 5.875063896179199 13.045909881591797 L5.875063896179199 13.045909881591797 C5.77141809463501 13.062054634094238 5.6677727699279785 13.078200340270996 5.564126968383789 13.094345092773438 L5.564126968383789 13.094345092773438 C5.551672458648682 12.862872123718262 5.539217948913574 12.631400108337402 5.526763439178467 12.399927139282227 L5.526763439178467 12.399927139282227 C5.619018077850342 12.404263496398926 5.711272239685059 12.408598899841309 5.803526878356934 12.412935256958008 L5.803526878356934 12.412935256958008 C5.97418212890625 12.805498123168945 6.885255336761475 12.823646545410156 6.637881755828857 12.486572265625 C6.287718296051025 12.009435653686523 4.721213340759277 11.424830436706543 6.210299968719482 11.000073432922363 L6.210299968719482 11.000073432922363"></path></svg>