<svg xmlns="http://www.w3.org/2000/svg" viewBox="0.0 0.0 24.0 24.0" height="200px" width="200px"><path fill="none" stroke="black" stroke-width=".3" stroke-opacity="1.0"  filling="0" d="M12.545454025268555 11.181791305541992 L12.545454025268555 11.181791305541992 C12.681817054748535 11.181791305541992 12.818181037902832 11.181791305541992 12.954544067382812 11.181791305541992 L12.954544067382812 11.181791305541992 C12.918561935424805 11.215327262878418 12.882580757141113 11.24886417388916 12.846598625183105 11.282400131225586 L12.846598625183105 11.282400131225586 C12.87150764465332 11.354809761047363 12.896417617797852 11.427218437194824 12.921326637268066 11.499628067016602 L12.921326637268066 11.499628067016602 C12.968771934509277 11.47550106048584 13.016216278076172 11.451373100280762 13.063661575317383 11.42724609375 L13.063661575317383 11.42724609375 C13.063652992248535 11.699982643127441 13.063644409179688 11.972718238830566 13.06363582611084 12.245454788208008 L13.06363582611084 12.245454788208008 C12.819138526916504 11.938763618469238 12.659820556640625 11.58357048034668 12.489625930786133 11.231183052062988 L12.489625930786133 11.231183052062988 C12.508234977722168 11.21471881866455 12.52684497833252 11.19825553894043 12.545454025268555 11.181791305541992 L12.545454025268555 11.181791305541992"></path></svg>