<svg xmlns="http://www.w3.org/2000/svg" viewBox="0.0 0.0 24.0 24.0" height="200px" width="200px"><path fill="none" stroke="black" stroke-width=".3" stroke-opacity="1.0"  filling="0" d="M8.327018737792969 11.047527313232422 L8.327018737792969 11.047527313232422 C8.661230087280273 11.049436569213867 9.613326072692871 10.892975807189941 9.724855422973633 11.396236419677734 C9.770256996154785 11.601104736328125 9.909549713134766 12.923768043518066 9.354000091552734 13.028837203979492 C8.954166412353516 13.104455947875977 8.54016399383545 13.032163619995117 8.133245468139648 13.03382682800293 L8.133245468139648 13.03382682800293 C8.138654708862305 12.946908950805664 8.144063949584961 12.859991073608398 8.149473190307617 12.773073196411133 L8.149473190307617 12.773073196411133 C8.260218620300293 12.773073196411133 8.370964050292969 12.773073196411133 8.481709480285645 12.773073196411133 L8.481709480285645 12.773073196411133 C8.481709480285645 12.313557624816895 8.57504940032959 11.759693145751953 8.445926666259766 11.31709098815918 L8.445926666259766 11.31709098815918 C8.343135833740234 11.31709098815918 8.240345001220703 11.31709098815918 8.137554168701172 11.31709098815918 L8.137554168701172 11.31709098815918 C8.145981788635254 11.236818313598633 8.15440845489502 11.156545639038086 8.162836074829102 11.076272964477539 L8.162836074829102 11.076272964477539 C8.21756362915039 11.066691398620605 8.27229118347168 11.057108879089355 8.327018737792969 11.047527313232422 L8.327018737792969 11.047527313232422"></path>
<path fill="none" stroke="black" stroke-width=".3" stroke-opacity="1.0"  filling="0" d="M8.787245750427246 11.318673133850098 L8.787245750427246 11.318673133850098 C9.759847640991211 11.321375846862793 9.724403381347656 12.762166023254395 8.78721809387207 12.763554573059082 L8.78721809387207 12.763554573059082 C8.787227630615234 12.281927108764648 8.787236213684082 11.800300598144531 8.787245750427246 11.318673133850098 L8.787245750427246 11.318673133850098"></path></svg>