<svg xmlns="http://www.w3.org/2000/svg" viewBox="0.0 0.0 24.0 24.0" height="200px" width="200px"><path fill="none" stroke="black" stroke-width=".3" stroke-opacity="1.0"  filling="0" d="M8.467636108398438 8.16834545135498 L8.467636108398438 8.16834545135498 C8.668119430541992 8.875213623046875 9.084877014160156 9.638184547424316 9.151555061340332 10.3656005859375 C9.191288948059082 10.799074172973633 7.793585777282715 10.96356201171875 7.474827766418457 11.223709106445312 L7.474827766418457 11.223709106445312 C8.001675605773926 12.871585845947266 8.547744750976562 14.513304710388184 9.098536491394043 16.152790069580078 C9.390216827392578 17.021005630493164 10.086851119995117 17.857622146606445 9.109090805053711 18.327190399169922 L9.109090805053711 18.327190399169922 C8.954545021057129 18.327219009399414 8.800000190734863 18.327245712280273 8.645454406738281 18.327274322509766 L8.645454406738281 18.327274322509766 C10.343351364135742 17.414148330688477 8.279531478881836 14.211965560913086 7.768936634063721 12.646856307983398 C7.603494167327881 12.139731407165527 7.079538822174072 11.618613243103027 7.278354644775391 11.123619079589844 C7.433081150054932 10.738394737243652 8.472114562988281 10.699338912963867 8.845392227172852 10.424646377563477 C9.036920547485352 10.28370189666748 8.573094367980957 8.386542320251465 8.201128005981445 8.458581924438477 C6.7350263595581055 8.742525100708008 5.053373336791992 9.814105987548828 3.6818180084228516 10.390909194946289 L3.6818180084228516 10.390909194946289 C3.6818180084228516 10.318181991577148 3.6818180084228516 10.245454788208008 3.6818180084228516 10.172727584838867 L3.6818180084228516 10.172727584838867 C5.278179168701172 9.547626495361328 6.839668273925781 8.70317554473877 8.467636108398438 8.16834545135498 L8.467636108398438 8.16834545135498"></path></svg>