<svg xmlns="http://www.w3.org/2000/svg" viewBox="0.0 0.0 24.0 24.0" height="200px" width="200px"><path fill="none" stroke="black" stroke-width=".3" stroke-opacity="1.0"  filling="0" d="M8.03724479675293 11.031790733337402 L8.03724479675293 11.031790733337402 C8.689154624938965 11.031790733337402 9.341063499450684 11.031790733337402 9.992973327636719 11.031790733337402 L9.992973327636719 11.031790733337402 C9.621383666992188 12.03176212310791 9.250809669494629 13.032112121582031 8.881227493286133 14.032827377319336 L8.881227493286133 14.032827377319336 C9.379279136657715 13.908140182495117 9.546586036682129 13.242265701293945 9.795272827148438 12.7930908203125 L9.795272827148438 12.7930908203125 C10.848365783691406 14.52610969543457 8.809691429138184 14.156007766723633 7.874100208282471 14.264699935913086 L7.874100208282471 14.264699935913086 C7.8783040046691895 14.25305461883545 8.961374282836914 11.252872467041016 8.96961784362793 11.230036735534668 L8.96961784362793 11.230036735534668 C8.547229766845703 11.436915397644043 8.333950996398926 11.92469596862793 8.044336318969727 12.295281410217285 L8.044336318969727 12.295281410217285 C8.041972160339355 11.874117851257324 8.0396089553833 11.452954292297363 8.03724479675293 11.031790733337402 L8.03724479675293 11.031790733337402"></path></svg>