<svg xmlns="http://www.w3.org/2000/svg" viewBox="0.0 0.0 24.0 24.0" height="200px" width="200px"><path fill="none" stroke="black" stroke-width=".3" stroke-opacity="1.0"  filling="0" d="M14.998199462890625 9.823419570922852 L14.998199462890625 9.823419570922852 C15.069071769714355 9.823419570922852 15.139945030212402 9.823419570922852 15.210817337036133 9.823419570922852 L15.210817337036133 9.823419570922852 C15.223372459411621 10.208901405334473 15.235926628112793 10.594382286071777 15.248481750488281 10.979864120483398 L15.248481750488281 10.979864120483398 C15.345253944396973 10.99000072479248 15.44202709197998 11.000136375427246 15.538799285888672 11.010272979736328 L15.538799285888672 11.010272979736328 C15.538799285888672 11.06698226928711 15.538799285888672 11.12369155883789 15.538799285888672 11.180400848388672 L15.538799285888672 11.180400848388672 C15.441018104553223 11.180400848388672 15.343235969543457 11.180399894714355 15.245454788208008 11.180399894714355 L15.245454788208008 11.180399894714355 C15.245454788208008 11.914935111999512 15.017646789550781 13.297680854797363 15.351982116699219 13.961126327514648 L15.351982116699219 13.961126327514648 C15.497514724731445 13.759785652160645 15.399919509887695 13.68843936920166 15.623589515686035 13.576335906982422 L15.623589515686035 13.576335906982422 C15.486567497253418 14.257267951965332 14.683588981628418 14.782064437866211 14.373326301574707 13.759745597839355 C14.1484956741333 13.018927574157715 14.346105575561523 11.925052642822266 14.345590591430664 11.194853782653809 L14.345590591430664 11.194853782653809 C14.258672714233398 11.183072090148926 14.171753883361816 11.171290397644043 14.08483600616455 11.15950870513916 L14.08483600616455 11.15950870513916 C14.127934455871582 11.065705299377441 14.242286682128906 10.99365520477295 14.345508575439453 10.992300033569336 L14.345508575439453 10.992300033569336 C14.345650672912598 10.546045303344727 14.794100761413574 10.22026538848877 14.998199462890625 9.823419570922852 L14.998199462890625 9.823419570922852"></path></svg>