<svg xmlns="http://www.w3.org/2000/svg" viewBox="0.0 0.0 24.0 24.0" height="200px" width="200px"><path fill="none" stroke="black" stroke-width=".3" stroke-opacity="1.0"  filling="0" d="M14.256845474243164 11.135345458984375 L14.256845474243164 11.135345458984375 C14.893321990966797 11.277520179748535 14.808977127075195 12.589410781860352 14.746089935302734 13.208182334899902 L14.746089935302734 13.208182334899902 C14.685280799865723 13.194782257080078 14.624472618103027 13.181381225585938 14.563663482666016 13.167981147766113 L14.563663482666016 13.167981147766113 C14.563051223754883 12.911321640014648 14.680606842041016 12.404720306396484 14.393535614013672 12.283035278320312 L14.393535614013672 12.283035278320312 C14.393535614013672 12.557426452636719 14.393535614013672 12.831816673278809 14.393535614013672 13.106207847595215 L14.393535614013672 13.106207847595215 C14.062713623046875 12.847209930419922 14.258757591247559 11.566520690917969 14.256845474243164 11.135345458984375 L14.256845474243164 11.135345458984375"></path>
<path fill="none" stroke="black" stroke-width=".3" stroke-opacity="1.0"  filling="0" d="M14.550463676452637 11.460136413574219 L14.550463676452637 11.460136413574219 C14.55018138885498 11.642309188842773 14.54990005493164 11.824481964111328 14.549617767333984 12.006654739379883 L14.549617767333984 12.006654739379883 C14.499754905700684 11.992155075073242 14.449891090393066 11.977654457092285 14.400028228759766 11.963154792785645 L14.400028228759766 11.963154792785645 C14.400284767150879 11.7881441116333 14.418647766113281 11.5752592086792 14.550463676452637 11.460136413574219 L14.550463676452637 11.460136413574219"></path></svg>