<svg xmlns="http://www.w3.org/2000/svg" viewBox="0.0 0.0 24.0 24.0" height="200px" width="200px"><path fill="none" stroke="black" stroke-width=".3" stroke-opacity="1.0"  filling="0" d="M16.416898727416992 10.47275447845459 L16.416898727416992 10.47275447845459 C16.656253814697266 10.474383354187012 17.323087692260742 13.394750595092773 17.141918182373047 13.502754211425781 C16.8486270904541 13.677597999572754 16.29973602294922 11.777836799621582 15.91085433959961 13.498008728027344 L15.91085433959961 13.498008728027344 C15.803781509399414 13.498008728027344 15.696709632873535 13.498008728027344 15.58963680267334 13.498008728027344 L15.58963680267334 13.498008728027344 C15.726044654846191 12.779130935668945 15.831074714660645 10.962565422058105 16.416898727416992 10.47275447845459 L16.416898727416992 10.47275447845459"></path>
<path fill="none" stroke="black" stroke-width=".3" stroke-opacity="1.0"  filling="0" d="M16.401870727539062 11.238872528076172 L16.401870727539062 11.238872528076172 C16.412235260009766 11.239163398742676 16.422597885131836 11.23945426940918 16.43296241760254 11.239745140075684 L16.43296241760254 11.239745140075684 C16.5015811920166 11.590181350708008 16.570199966430664 11.940618515014648 16.638818740844727 12.291054725646973 L16.638818740844727 12.291054725646973 C16.479955673217773 12.305327415466309 16.321090698242188 12.319599151611328 16.162227630615234 12.333871841430664 L16.162227630615234 12.333871841430664 C16.242109298706055 11.9688720703125 16.321989059448242 11.603872299194336 16.401870727539062 11.238872528076172 L16.401870727539062 11.238872528076172"></path></svg>