<svg xmlns="http://www.w3.org/2000/svg" viewBox="0.0 0.0 24.0 24.0" height="200px" width="200px"><path fill="none" stroke="black" stroke-width=".3" stroke-opacity="1.0"  filling="0" d="M3.757718086242676 9.411300659179688 L3.757718086242676 9.411300659179688 C4.113795757293701 9.4959077835083 4.618194580078125 9.234271049499512 4.85059118270874 9.517009735107422 C5.064968585968018 9.777826309204102 4.850512504577637 10.192262649536133 4.855581760406494 10.529837608337402 C4.858462810516357 10.721700668334961 4.956350326538086 11.254369735717773 4.8233184814453125 11.481301307678223 L4.8233184814453125 11.481301307678223 C4.626519680023193 11.198179244995117 4.290720462799072 9.714515686035156 3.8482627868652344 9.687302589416504 C2.260179042816162 9.589629173278809 4.033103942871094 16.84778594970703 3.9527997970581055 12.505965232849121 C3.950265407562256 12.36894416809082 3.9331274032592773 12.232582092285156 3.9232912063598633 12.095890998840332 L3.9232912063598633 12.095890998840332 C3.8358821868896484 12.081327438354492 3.7484731674194336 12.066762924194336 3.6610641479492188 12.052199363708496 L3.6610641479492188 12.052199363708496 C3.6582367420196533 11.999717712402344 3.655409574508667 11.947236061096191 3.6525821685791016 11.894754409790039 L3.6525821685791016 11.894754409790039 C4.21117639541626 11.824063301086426 4.956600189208984 11.515556335449219 5.2441911697387695 12.056154251098633 L5.2441911697387695 12.056154251098633 C5.166663646697998 12.056154251098633 5.089136600494385 12.056154251098633 5.011609077453613 12.056154251098633 L5.011609077453613 12.056154251098633 C5.002066135406494 12.798508644104004 4.992520809173584 13.540863990783691 4.982972145080566 14.283218383789062 L4.982972145080566 14.283218383789062 C4.272781848907471 13.73832893371582 4.205963611602783 14.420995712280273 3.2890357971191406 14.126481056213379 C1.1357979774475098 13.434867858886719 2.491267681121826 10.07496452331543 3.757718086242676 9.411300659179688 L3.757718086242676 9.411300659179688"></path></svg>