<svg xmlns="http://www.w3.org/2000/svg" viewBox="0.0 0.0 24.0 24.0" height="200px" width="200px"><path fill="none" stroke="black" stroke-width=".3" stroke-opacity="1.0"  filling="0" d="M13.18126392364502 10.575818061828613 L13.18126392364502 10.575818061828613 C13.183300018310547 10.74041748046875 13.185336112976074 10.905017852783203 13.187372207641602 11.06961727142334 L13.187372207641602 11.06961727142334 C13.11029052734375 11.075626373291016 13.033207893371582 11.081636428833008 12.95612621307373 11.087645530700684 L12.95612621307373 11.087645530700684 C12.968677520751953 11.816902160644531 12.969738960266113 12.546442031860352 12.959644317626953 13.275736808776855 L12.959644317626953 13.275736808776855 C12.894017219543457 13.275736808776855 12.828391075134277 13.275736808776855 12.762763977050781 13.275736808776855 L12.762763977050781 13.275736808776855 C12.659810066223145 12.557068824768066 12.736200332641602 11.82780933380127 12.736200332641602 11.102973937988281 L12.736200332641602 11.102973937988281 C12.369630813598633 11.102701187133789 12.464688301086426 10.945295333862305 12.475227355957031 10.575846672058105 L12.475227355957031 10.575846672058105 C12.710573196411133 10.575837135314941 12.945918083190918 10.575827598571777 13.18126392364502 10.575818061828613 L13.18126392364502 10.575818061828613"></path></svg>