<svg xmlns="http://www.w3.org/2000/svg" viewBox="0.0 0.0 24.0 24.0" height="200px" width="200px"><path fill="none" stroke="black" stroke-width=".3" stroke-opacity="1.0"  filling="0" d="M13.472673416137695 11.137555122375488 L13.472673416137695 11.137555122375488 C13.524800300598145 11.140218734741211 13.57692813873291 11.142882347106934 13.62905502319336 11.145545959472656 L13.62905502319336 11.145545959472656 C13.62905502319336 11.36086368560791 13.62905502319336 11.57618236541748 13.62905502319336 11.791500091552734 L13.62905502319336 11.791500091552734 C13.639155387878418 11.79266357421875 13.64925479888916 11.793827056884766 13.659355163574219 11.794990539550781 L13.659355163574219 11.794990539550781 C13.735391616821289 11.58236312866211 13.81142807006836 11.369736671447754 13.88746452331543 11.157109260559082 L13.88746452331543 11.157109260559082 C13.941719055175781 11.169809341430664 13.995972633361816 11.18250846862793 14.050227165222168 11.195208549499512 L14.050227165222168 11.195208549499512 C13.782661437988281 11.977585792541504 14.12431526184082 12.43625545501709 13.962982177734375 13.17447280883789 L13.962982177734375 13.17447280883789 C13.746099472045898 12.934556007385254 13.767765998840332 12.342105865478516 13.609009742736816 12.252490997314453 L13.609009742736816 12.252490997314453 C13.609009742736816 14.197776794433594 13.472673416137695 11.784982681274414 13.472673416137695 11.137555122375488 L13.472673416137695 11.137555122375488"></path></svg>