<svg xmlns="http://www.w3.org/2000/svg" viewBox="0.0 0.0 24.0 24.0" height="200px" width="200px"><path fill="none" stroke="black" stroke-width=".3" stroke-opacity="1.0"  filling="0" d="M11.241462707519531 11.345427513122559 L11.241462707519531 11.345427513122559 C11.366649627685547 11.345465660095215 11.486614227294922 11.448772430419922 11.553299903869629 11.554718971252441 L11.553299903869629 11.554718971252441 C11.492114067077637 11.550263404846191 11.430923461914062 11.545875549316406 11.369726181030273 11.541574478149414 L11.369726181030273 11.541574478149414 C11.358662605285645 11.659282684326172 11.347599983215332 11.776991844177246 11.336536407470703 11.894700050354004 L11.336536407470703 11.894700050354004 C11.404772758483887 11.889908790588379 11.473010063171387 11.88511848449707 11.54124641418457 11.880327224731445 L11.54124641418457 11.880327224731445 C11.536872863769531 11.973601341247559 11.441995620727539 12.072713851928711 11.34935474395752 12.084409713745117 L11.34935474395752 12.084409713745117 C11.329911231994629 12.26772689819336 11.26087760925293 12.480499267578125 11.519917488098145 12.494427680969238 L11.519917488098145 12.494427680969238 C11.605974197387695 12.719184875488281 11.281366348266602 12.708695411682129 11.179281234741211 12.708709716796875 L11.179281234741211 12.708709716796875 C11.192246437072754 12.282608985900879 11.160626411437988 11.77553939819336 11.241462707519531 11.345427513122559 L11.241462707519531 11.345427513122559"></path></svg>