<svg xmlns="http://www.w3.org/2000/svg" viewBox="0.0 0.0 24.0 24.0" height="200px" width="200px"><path fill="none" stroke="black" stroke-width=".3" stroke-opacity="1.0"  filling="0" d="M11.326799392700195 11.316437721252441 L11.326799392700195 11.316437721252441 C11.421172142028809 11.3281831741333 11.515543937683105 11.339927673339844 11.609916687011719 11.351673126220703 L11.609916687011719 11.351673126220703 C11.609916687011719 11.446954727172852 11.609916687011719 11.542237281799316 11.609916687011719 11.637518882751465 L11.609916687011719 11.637518882751465 C11.55298900604248 11.637518882751465 11.496062278747559 11.637518882751465 11.43913459777832 11.637518882751465 L11.43913459777832 11.637518882751465 C11.530549049377441 11.85256576538086 11.588191032409668 11.88969612121582 11.590417861938477 12.132190704345703 L11.590417861938477 12.132190704345703 C11.53262710571289 12.134754180908203 11.474836349487305 12.13731861114502 11.417045593261719 12.13988208770752 L11.417045593261719 12.13988208770752 C11.469154357910156 12.213245391845703 11.52126407623291 12.286609649658203 11.573372840881348 12.359972953796387 L11.573372840881348 12.359972953796387 C11.691106796264648 13.109485626220703 11.128047943115234 11.96762752532959 11.326799392700195 11.316437721252441 L11.326799392700195 11.316437721252441"></path></svg>