<svg xmlns="http://www.w3.org/2000/svg" viewBox="0.0 0.0 24.0 24.0" height="200px" width="200px"><path fill="none" stroke="black" stroke-width=".3" stroke-opacity="1.0"  filling="0" d="M12.499391555786133 11.292682647705078 L12.499391555786133 11.292682647705078 C12.853586196899414 11.571158409118652 12.955092430114746 12.16868782043457 12.758045196533203 12.609709739685059 L12.758045196533203 12.609709739685059 C12.700763702392578 12.457610130310059 12.643482208251953 12.305509567260742 12.586200714111328 12.153409957885742 L12.586200714111328 12.153409957885742 C12.549809455871582 12.326900482177734 12.513418197631836 12.500391960144043 12.47702693939209 12.673882484436035 L12.47702693939209 12.673882484436035 C12.4762544631958 12.216327667236328 12.475481033325195 11.758773803710938 12.474708557128906 11.30121898651123 L12.474708557128906 11.30121898651123 C12.482935905456543 11.298373222351074 12.491164207458496 11.295528411865234 12.499391555786133 11.292682647705078 L12.499391555786133 11.292682647705078"></path>
<path fill="none" stroke="black" stroke-width=".3" stroke-opacity="1.0"  filling="0" d="M12.546955108642578 11.613327026367188 L12.546955108642578 11.613327026367188 C12.63036823272705 11.640989303588867 12.656484603881836 11.780914306640625 12.628227233886719 11.864127159118652 L12.628227233886719 11.864127159118652 C12.601136207580566 11.780527114868164 12.57404613494873 11.696927070617676 12.546955108642578 11.613327026367188 L12.546955108642578 11.613327026367188"></path></svg>