<svg xmlns="http://www.w3.org/2000/svg" viewBox="0.0 0.0 24.0 24.0" height="200px" width="200px"><path fill="none" stroke="black" stroke-width=".3" stroke-opacity="1.0"  filling="0" d="M2.7818174362182617 9.054544448852539 L2.7818174362182617 9.054544448852539 C2.7597811222076416 9.077136039733887 2.7377450466156006 9.099726676940918 2.7157087326049805 9.122318267822266 L2.7157087326049805 9.122318267822266 C2.728517770767212 9.138699531555176 2.7413270473480225 9.155081748962402 2.754136085510254 9.171463012695312 L2.754136085510254 9.171463012695312 C2.7495269775390625 9.177363395690918 2.744917869567871 9.183262825012207 2.7403087615966797 9.189163208007812 L2.7403087615966797 9.189163208007812 C2.7028636932373047 9.169872283935547 2.6654186248779297 9.150580406188965 2.6279735565185547 9.1312894821167 L2.6279735565185547 9.1312894821167 C2.6314914226531982 9.146580696105957 2.6350090503692627 9.161870956420898 2.6385269165039062 9.177162170410156 L2.6385269165039062 9.177162170410156 C2.5841176509857178 9.210380554199219 2.52970814704895 9.243598937988281 2.4752988815307617 9.276817321777344 L2.4752988815307617 9.276817321777344 C2.2247560024261475 9.346059799194336 1.972139596939087 9.40811538696289 1.7182092666625977 9.463663101196289 L1.7182092666625977 9.463663101196289 C1.7182092666625977 9.327299118041992 1.7182092666625977 9.190936088562012 1.7182092666625977 9.054572105407715 L1.7182092666625977 9.054572105407715 C2.0727453231811523 9.05456256866455 2.427281379699707 9.054553985595703 2.7818174362182617 9.054544448852539 L2.7818174362182617 9.054544448852539"></path></svg>