<svg xmlns="http://www.w3.org/2000/svg" viewBox="0.0 0.0 24.0 24.0" height="200px" width="200px"><path fill="none" stroke="black" stroke-width=".3" stroke-opacity="1.0"  filling="0" d="M11.607354164123535 11.319628715515137 L11.607354164123535 11.319628715515137 C11.777647018432617 11.463417053222656 11.797158241271973 11.726675987243652 11.846562385559082 11.944009780883789 L11.846562385559082 11.944009780883789 C11.864316940307617 11.747036933898926 11.882071495056152 11.550064086914062 11.899826049804688 11.3530912399292 L11.899826049804688 11.3530912399292 C11.935172080993652 11.3530912399292 11.9705171585083 11.3530912399292 12.005863189697266 11.3530912399292 L12.005863189697266 11.3530912399292 C12.005863189697266 11.7548189163208 12.00587272644043 12.156545639038086 12.005891799926758 12.558273315429688 L12.005891799926758 12.558273315429688 C11.729889869689941 12.374744415283203 11.815521240234375 12.223660469055176 11.682981491088867 11.93419075012207 L11.682981491088867 11.93419075012207 C11.65797233581543 12.147218704223633 11.632964134216309 12.360245704650879 11.607954978942871 12.573273658752441 L11.607954978942871 12.573273658752441 C11.389939308166504 12.197396278381348 11.388690948486328 11.695487976074219 11.607354164123535 11.319628715515137 L11.607354164123535 11.319628715515137"></path></svg>