<svg xmlns="http://www.w3.org/2000/svg" viewBox="0.0 0.0 24.0 24.0" height="200px" width="200px"><path fill="none" stroke="black" stroke-width=".3" stroke-opacity="1.0"  filling="0" d="M11.081864356994629 11.382380485534668 L11.081864356994629 11.382380485534668 C11.348773002624512 11.56916332244873 11.203678131103516 11.878382682800293 11.42727279663086 12.084598541259766 L11.42727279663086 12.084598541259766 C11.42727279663086 11.864465713500977 11.383153915405273 11.603577613830566 11.519372940063477 11.430652618408203 L11.519372940063477 11.430652618408203 C11.551416397094727 11.787005424499512 11.691713333129883 12.392609596252441 11.404227256774902 12.61947250366211 L11.404227256774902 12.61947250366211 C11.338618278503418 12.383681297302246 11.273009300231934 12.147890090942383 11.20740032196045 11.91209888458252 L11.20740032196045 11.91209888458252 C11.198699951171875 11.913553237915039 11.1899995803833 11.915008544921875 11.181299209594727 11.916462898254395 L11.181299209594727 11.916462898254395 C11.181482315063477 12.156336784362793 11.200373649597168 12.4136323928833 11.099946022033691 12.631471633911133 L11.099946022033691 12.631471633911133 C10.905621528625488 12.243541717529297 10.966412544250488 11.797096252441406 11.081864356994629 11.382380485534668 L11.081864356994629 11.382380485534668"></path></svg>