<svg xmlns="http://www.w3.org/2000/svg" viewBox="0.0 0.0 24.0 24.0" height="200px" width="200px"><path fill="none" stroke="black" stroke-width=".3" stroke-opacity="1.0"  filling="0" d="M13.202947616577148 11.099101066589355 L13.202947616577148 11.099101066589355 C13.288931846618652 11.203603744506836 13.365121841430664 11.368480682373047 13.308135986328125 11.491227149963379 L13.308135986328125 11.491227149963379 C13.286972045898438 11.460826873779297 13.265809059143066 11.430427551269531 13.244645118713379 11.40002727508545 L13.244645118713379 11.40002727508545 C13.066610336303711 11.558053016662598 13.156765937805176 11.872373580932617 13.168663024902344 12.110127449035645 L13.168663024902344 12.110127449035645 C13.284228324890137 11.991005897521973 13.259821891784668 11.782144546508789 13.240009307861328 11.617363929748535 L13.240009307861328 11.617363929748535 C13.30871868133545 11.615654945373535 13.37742805480957 11.613946914672852 13.446137428283691 11.612237930297852 L13.446137428283691 11.612237930297852 C13.446943283081055 11.99583911895752 13.525883674621582 12.200484275817871 13.2278470993042 12.464292526245117 L13.2278470993042 12.464292526245117 C12.980303764343262 12.043061256408691 12.787633895874023 11.504667282104492 13.202947616577148 11.099101066589355 L13.202947616577148 11.099101066589355"></path></svg>