<svg xmlns="http://www.w3.org/2000/svg" viewBox="0.0 0.0 24.0 24.0" height="200px" width="200px"><path fill="none" stroke="black" stroke-width=".3" stroke-opacity="1.0"  filling="0" d="M16.50002670288086 10.281845092773438 L16.50002670288086 10.281845092773438 C16.53639030456543 10.281845092773438 16.57275390625 10.281845092773438 16.60911750793457 10.281845092773438 L16.60911750793457 10.281845092773438 C16.609107971191406 10.472744941711426 16.609100341796875 10.66364574432373 16.60909080505371 10.854545593261719 L16.60909080505371 10.854545593261719 C16.575254440307617 10.858609199523926 16.541418075561523 10.862672805786133 16.50758171081543 10.86673641204834 L16.50758171081543 10.86673641204834 C16.5132999420166 10.840700149536133 16.519018173217773 10.81466293334961 16.524736404418945 10.788626670837402 L16.524736404418945 10.788626670837402 C16.5001277923584 10.760690689086914 16.47551918029785 10.73275375366211 16.450910568237305 10.704817771911621 L16.450910568237305 10.704817771911621 C16.459083557128906 10.660417556762695 16.467254638671875 10.616018295288086 16.475427627563477 10.57161808013916 L16.475427627563477 10.57161808013916 C16.38471221923828 10.556282997131348 16.317075729370117 10.458742141723633 16.283809661865234 10.372962951660156 L16.283809661865234 10.372962951660156 C16.355600357055664 10.41239070892334 16.427392959594727 10.451817512512207 16.499183654785156 10.49124526977539 L16.499183654785156 10.49124526977539 C16.532136917114258 10.441963195800781 16.565092086791992 10.392682075500488 16.598045349121094 10.343400001525879 L16.598045349121094 10.343400001525879 C16.56102752685547 10.347854614257812 16.524009704589844 10.35230827331543 16.48699188232422 10.356762886047363 L16.48699188232422 10.356762886047363 C16.491336822509766 10.33178997039795 16.495681762695312 10.306818008422852 16.50002670288086 10.281845092773438 L16.50002670288086 10.281845092773438"></path></svg>