<svg xmlns="http://www.w3.org/2000/svg" viewBox="0.0 0.0 24.0 24.0" height="200px" width="200px"><path fill="none" stroke="black" stroke-width=".3" stroke-opacity="1.0"  filling="0" d="M10.23507308959961 11.671745300292969 L10.23507308959961 11.671745300292969 C10.0153226852417 13.16475772857666 10.214763641357422 13.237340927124023 10.647109031677246 11.679190635681152 L10.647109031677246 11.679190635681152 C10.732291221618652 11.679190635681152 10.817472457885742 11.679190635681152 10.902654647827148 11.679190635681152 L10.902654647827148 11.679190635681152 C10.819387435913086 12.129565238952637 10.241628646850586 13.180973052978516 10.993664741516113 12.681055068969727 L10.993664741516113 12.681055068969727 C10.78927993774414 12.871140480041504 10.574170112609863 13.243875503540039 10.326108932495117 12.8741455078125 L10.326108932495117 12.8741455078125 C9.436830520629883 13.381645202636719 9.827439308166504 12.245125770568848 9.943063735961914 11.783836364746094 L9.943063735961914 11.783836364746094 C9.89187240600586 11.77314567565918 9.840682029724121 11.762454986572266 9.789490699768066 11.751764297485352 L9.789490699768066 11.751764297485352 C9.790491104125977 11.737473487854004 9.791491508483887 11.723182678222656 9.792491912841797 11.708891868591309 L9.792491912841797 11.708891868591309 C9.940018653869629 11.69650936126709 10.087546348571777 11.684127807617188 10.23507308959961 11.671745300292969 L10.23507308959961 11.671745300292969"></path></svg>