<svg xmlns="http://www.w3.org/2000/svg" viewBox="0.0 0.0 24.0 24.0" height="200px" width="200px"><path fill="none" stroke="black" stroke-width=".3" stroke-opacity="1.0"  filling="0" d="M11.361627578735352 11.920990943908691 L11.361627578735352 11.920990943908691 C11.384982109069824 11.938063621520996 11.408336639404297 11.9551362991333 11.43169116973877 11.972208976745605 L11.43169116973877 11.972208976745605 C11.425272941589355 11.981218338012695 11.418855667114258 11.990226745605469 11.412437438964844 11.999236106872559 L11.412437438964844 11.999236106872559 C11.384110450744629 11.984945297241211 11.355782508850098 11.970654487609863 11.327455520629883 11.956363677978516 L11.327455520629883 11.956363677978516 C11.30663776397705 12.034363746643066 11.285819053649902 12.1123628616333 11.26500129699707 12.190362930297852 L11.26500129699707 12.190362930297852 C11.309873580932617 12.185689926147461 11.354745864868164 12.181017875671387 11.399618148803711 12.176344871520996 L11.399618148803711 12.176344871520996 C11.380499839782715 12.139472007751465 11.361381530761719 12.10260009765625 11.342263221740723 12.065727233886719 L11.342263221740723 12.065727233886719 C11.38460636138916 12.08973503112793 11.326276779174805 11.954451560974121 11.361627578735352 11.920990943908691 L11.361627578735352 11.920990943908691"></path></svg>