<svg xmlns="http://www.w3.org/2000/svg" viewBox="0.0 0.0 24.0 24.0" height="200px" width="200px"><path fill="none" stroke="black" stroke-width=".3" stroke-opacity="1.0"  filling="0" d="M11.214627265930176 11.443471908569336 L11.214627265930176 11.443471908569336 C11.26901912689209 11.461501121520996 11.685807228088379 11.575078964233398 11.50281810760498 11.743908882141113 L11.50281810760498 11.743908882141113 C11.458600044250488 11.731818199157715 11.41438102722168 11.719727516174316 11.370162963867188 11.707636833190918 L11.370162963867188 11.707636833190918 C11.322790145874023 11.896527290344238 11.27541732788086 12.085418701171875 11.228044509887695 12.274309158325195 L11.228044509887695 12.274309158325195 C11.191353797912598 12.259454727172852 11.1546630859375 12.244599342346191 11.117972373962402 12.229744911193848 L11.117972373962402 12.229744911193848 C11.141435623168945 12.039201736450195 11.168805122375488 11.849087715148926 11.200526237487793 11.659744262695312 L11.200526237487793 11.659744262695312 C11.144007682800293 11.643407821655273 11.08749008178711 11.62707233428955 11.03097152709961 11.610735893249512 L11.03097152709961 11.610735893249512 C11.00084114074707 11.533609390258789 11.147513389587402 11.491969108581543 11.214627265930176 11.443471908569336 L11.214627265930176 11.443471908569336"></path></svg>