<svg xmlns="http://www.w3.org/2000/svg" viewBox="0.0 0.0 24.0 24.0" height="200px" width="200px"><path fill="none" stroke="black" stroke-width=".3" stroke-opacity="1.0"  filling="0" d="M10.726990699768066 10.921146392822266 L10.726990699768066 10.921146392822266 C10.712441444396973 11.35206413269043 10.473511695861816 11.37989330291748 10.463072776794434 11.863119125366211 L10.463072776794434 11.863119125366211 C10.538146018981934 11.83967399597168 10.613218307495117 11.816227912902832 10.688291549682617 11.7927827835083 L10.688291549682617 11.7927827835083 C10.688291549682617 11.902355194091797 10.688291549682617 12.011927604675293 10.688291549682617 12.121500015258789 L10.688291549682617 12.121500015258789 C10.609936714172363 12.150781631469727 10.531582832336426 12.18006420135498 10.453227996826172 12.209345817565918 L10.453227996826172 12.209345817565918 C10.439864158630371 12.368063926696777 10.42650032043457 12.526782035827637 10.41313648223877 12.685500144958496 L10.41313648223877 12.685500144958496 C10.505727767944336 12.657718658447266 10.598319053649902 12.629936218261719 10.690910339355469 12.602154731750488 L10.690910339355469 12.602154731750488 C10.690910339355469 12.89053726196289 10.493268966674805 12.998220443725586 10.249691009521484 13.091672897338867 L10.249691009521484 13.091672897338867 C10.143264770507812 12.395796775817871 10.055953979492188 11.235039710998535 10.726990699768066 10.921146392822266 L10.726990699768066 10.921146392822266"></path></svg>