<svg xmlns="http://www.w3.org/2000/svg" viewBox="0.0 0.0 24.0 24.0" height="200px" width="200px"><path fill="none" stroke="black" stroke-width=".3" stroke-opacity="1.0"  filling="0" d="M11.49447250366211 11.900127410888672 L11.49447250366211 11.900127410888672 C11.734400749206543 11.979350090026855 11.959002494812012 12.024287223815918 11.74180793762207 12.269100189208984 L11.74180793762207 12.269100189208984 C11.733190536499023 12.237109184265137 11.72457218170166 12.205119132995605 11.715954780578613 12.173128128051758 L11.715954780578613 12.173128128051758 C11.474981307983398 12.116279602050781 11.386536598205566 12.22938346862793 11.159781455993652 12.238664627075195 L11.159781455993652 12.238664627075195 C11.271345138549805 12.125819206237793 11.382908821105957 12.012972831726074 11.49447250366211 11.900127410888672 L11.49447250366211 11.900127410888672"></path>
<path fill="none" stroke="black" stroke-width=".3" stroke-opacity="1.0"  filling="0" d="M11.648781776428223 11.950990676879883 L11.648781776428223 11.950990676879883 C11.6707181930542 12.000144958496094 11.692654609680176 12.049300193786621 11.714591026306152 12.098454475402832 L11.714591026306152 12.098454475402832 C11.637436866760254 12.098454475402832 11.560281753540039 12.098454475402832 11.48312759399414 12.098454475402832 L11.48312759399414 12.098454475402832 C11.538345336914062 12.049300193786621 11.5935640335083 12.000144958496094 11.648781776428223 11.950990676879883 L11.648781776428223 11.950990676879883"></path></svg>