<svg xmlns="http://www.w3.org/2000/svg" viewBox="0.0 0.0 24.0 24.0" height="200px" width="200px"><path fill="none" stroke="black" stroke-width=".3" stroke-opacity="1.0"  filling="0" d="M13.687172889709473 10.505727767944336 L13.687172889709473 10.505727767944336 C13.982891082763672 10.520590782165527 14.278609275817871 10.535454750061035 14.57432746887207 10.550317764282227 L14.57432746887207 10.550317764282227 C14.579045295715332 10.729108810424805 14.58376407623291 10.907899856567383 14.588481903076172 11.086690902709961 L14.588481903076172 11.086690902709961 C14.380200386047363 11.086690902709961 14.171917915344238 11.086690902709961 13.96363639831543 11.086690902709961 L13.96363639831543 11.086690902709961 C13.961430549621582 11.837347984313965 14.663077354431152 11.77883529663086 14.4677734375 12.368127822875977 L14.4677734375 12.368127822875977 C14.295063972473145 12.368127822875977 14.122355461120605 12.368127822875977 13.94964599609375 12.368127822875977 L13.94964599609375 12.368127822875977 C13.94964599609375 12.660873413085938 13.94964599609375 12.953618049621582 13.94964599609375 13.246363639831543 L13.94964599609375 13.246363639831543 C14.138228416442871 13.246363639831543 14.326809883117676 13.246363639831543 14.515392303466797 13.246363639831543 L14.515392303466797 13.246363639831543 C14.534928321838379 13.423582077026367 14.554464340209961 13.600799560546875 14.574000358581543 13.7780179977417 L14.574000358581543 13.7780179977417 C14.277636528015137 13.766509056091309 13.98127269744873 13.754999160766602 13.684908866882324 13.743490219116211 L13.684908866882324 13.743490219116211 C13.498920440673828 12.706184387207031 13.685929298400879 11.5608491897583 13.687172889709473 10.505727767944336 L13.687172889709473 10.505727767944336"></path></svg>