<svg xmlns="http://www.w3.org/2000/svg" viewBox="0.0 0.0 24.0 24.0" height="200px" width="200px"><path fill="none" stroke="black" stroke-width=".3" stroke-opacity="1.0"  filling="0" d="M8.368745803833008 10.447528839111328 L8.368745803833008 10.447528839111328 C8.795100212097168 10.817548751831055 8.556596755981445 11.565436363220215 8.563090324401855 12.129927635192871 C8.564962387084961 12.292698860168457 8.766349792480469 13.740579605102539 8.320063591003418 13.713981628417969 L8.320063591003418 13.713981628417969 C8.24323844909668 13.237391471862793 8.338892936706543 12.753254890441895 8.267918586730957 12.276272773742676 L8.267918586730957 12.276272773742676 C8.087655067443848 12.293972969055176 7.90739107131958 12.31167221069336 7.727127552032471 12.32937240600586 L7.727127552032471 12.32937240600586 C7.727127552032471 12.816445350646973 7.727127552032471 13.303518295288086 7.727127552032471 13.7905912399292 L7.727127552032471 13.7905912399292 C7.151983737945557 13.895491600036621 7.199452877044678 10.633115768432617 7.664317607879639 10.558146476745605 L7.664317607879639 10.558146476745605 C7.745503902435303 10.972336769104004 7.690936088562012 11.413796424865723 7.690936088562012 11.836310386657715 L7.690936088562012 11.836310386657715 C7.879290580749512 11.816564559936523 8.067645072937012 11.796819686889648 8.255999565124512 11.777073860168457 L8.255999565124512 11.777073860168457 C8.255999565124512 11.347564697265625 8.255999565124512 10.918055534362793 8.255999565124512 10.488546371459961 L8.255999565124512 10.488546371459961 C8.29358196258545 10.474873542785645 8.33116340637207 10.461201667785645 8.368745803833008 10.447528839111328 L8.368745803833008 10.447528839111328"></path></svg>