<svg xmlns="http://www.w3.org/2000/svg" viewBox="0.0 0.0 24.0 24.0" height="200px" width="200px"><path fill="none" stroke="black" stroke-width=".3" stroke-opacity="1.0"  filling="0" d="M11.018128395080566 10.145454406738281 L11.018128395080566 10.145454406738281 C11.794459342956543 10.145454406738281 12.764163970947266 10.491615295410156 13.501009941101074 10.756991386413574 L13.501009941101074 10.756991386413574 C13.19138240814209 11.601624488830566 11.318825721740723 11.227438926696777 10.59109115600586 11.264018058776855 L10.59109115600586 11.264018058776855 C10.626818656921387 11.16022777557373 10.662545204162598 11.056436538696289 10.698272705078125 10.952646255493164 L10.698272705078125 10.952646255493164 C11.00538444519043 10.943862915039062 11.390830039978027 10.801701545715332 11.511737823486328 10.519254684448242 L11.511737823486328 10.519254684448242 C11.334153175354004 10.374921798706055 10.833783149719238 10.473832130432129 11.018128395080566 10.145454406738281 L11.018128395080566 10.145454406738281"></path>
<path fill="none" stroke="black" stroke-width=".3" stroke-opacity="1.0"  filling="0" d="M12.146045684814453 10.651253700256348 L12.146045684814453 10.651253700256348 C12.353739738464355 10.697239875793457 12.565353393554688 10.737533569335938 12.761617660522461 10.819581985473633 L12.761617660522461 10.819581985473633 C12.759690284729004 10.83130931854248 12.757763862609863 10.843036651611328 12.755836486816406 10.854763984680176 L12.755836486816406 10.854763984680176 C12.431408882141113 10.871200561523438 12.106982231140137 10.887636184692383 11.782554626464844 10.904072761535645 L11.782554626464844 10.904072761535645 C11.727042198181152 10.767321586608887 12.017243385314941 10.723312377929688 12.146045684814453 10.651253700256348 L12.146045684814453 10.651253700256348"></path></svg>