<svg xmlns="http://www.w3.org/2000/svg" viewBox="0.0 0.0 24.0 24.0" height="200px" width="200px"><path fill="none" stroke="black" stroke-width=".3" stroke-opacity="1.0"  filling="0" d="M9.72346305847168 11.197882652282715 L9.72346305847168 11.197882652282715 C9.807854652404785 11.390186309814453 9.867111206054688 11.645666122436523 9.760828018188477 11.826791763305664 L9.760828018188477 11.826791763305664 C9.738936424255371 11.76799201965332 9.717045783996582 11.709192276000977 9.695154190063477 11.650392532348633 L9.695154190063477 11.650392532348633 C9.251461029052734 11.954277992248535 9.454155921936035 12.603647232055664 9.60095500946045 13.03262710571289 L9.60095500946045 13.03262710571289 C9.642718315124512 12.843191146850586 9.68448257446289 12.653754234313965 9.726245880126953 12.46431827545166 L9.726245880126953 12.46431827545166 C9.691699981689453 12.480109214782715 9.657154083251953 12.49590015411377 9.622608184814453 12.511691093444824 L9.622608184814453 12.511691093444824 C9.616715431213379 12.343597412109375 9.718430519104004 12.150259017944336 9.866100311279297 12.06973648071289 L9.866100311279297 12.06973648071289 C9.893148422241211 12.477350234985352 10.000417709350586 13.105566024780273 9.637090682983398 13.386819839477539 L9.637090682983398 13.386819839477539 C9.143172264099121 12.900382041931152 9.159588813781738 11.66869068145752 9.72346305847168 11.197882652282715 L9.72346305847168 11.197882652282715"></path></svg>