<svg xmlns="http://www.w3.org/2000/svg" viewBox="0.0 0.0 24.0 24.0" height="200px" width="200px"><path fill="none" stroke="black" stroke-width=".3" stroke-opacity="1.0"  filling="0" d="M12.51559066772461 11.809773445129395 L12.51559066772461 11.809773445129395 C12.568923950195312 11.890061378479004 12.597441673278809 11.990142822265625 12.599454879760742 12.086509704589844 L12.599454879760742 12.086509704589844 C12.610899925231934 12.086463928222656 12.622344970703125 12.086419105529785 12.633790016174316 12.086373329162598 L12.633790016174316 12.086373329162598 C12.633790016174316 11.995336532592773 12.633790016174316 11.904300689697266 12.633790016174316 11.813263893127441 L12.633790016174316 11.813263893127441 C12.64443588256836 11.813563346862793 12.655080795288086 11.813863754272461 12.665726661682129 11.814163208007812 L12.665726661682129 11.814163208007812 C12.672699928283691 11.942817687988281 12.679672241210938 12.071473121643066 12.6866455078125 12.200127601623535 L12.6866455078125 12.200127601623535 C12.653581619262695 12.216900825500488 12.620518684387207 12.233673095703125 12.587454795837402 12.250446319580078 L12.587454795837402 12.250446319580078 C12.56350040435791 12.103555679321289 12.539545059204102 11.956664085388184 12.51559066772461 11.809773445129395 L12.51559066772461 11.809773445129395"></path></svg>