<svg xmlns="http://www.w3.org/2000/svg" viewBox="0.0 0.0 24.0 24.0" height="200px" width="200px"><path fill="none" stroke="black" stroke-width=".3" stroke-opacity="1.0"  filling="0" d="M12.253881454467773 11.822372436523438 L12.253881454467773 11.822372436523438 C12.283445358276367 11.84700870513916 12.313008308410645 11.871644973754883 12.342572212219238 11.896281242370605 L12.342572212219238 11.896281242370605 C12.36633586883545 11.875226974487305 12.390100479125977 11.854171752929688 12.413864135742188 11.833117485046387 L12.413864135742188 11.833117485046387 C12.424418449401855 11.836817741394043 12.43497371673584 11.8405179977417 12.445528030395508 11.844218254089355 L12.445528030395508 11.844218254089355 C12.442500114440918 11.985482215881348 12.439473152160645 12.126745223999023 12.436445236206055 12.268009185791016 L12.436445236206055 12.268009185791016 C12.422272682189941 12.27097225189209 12.408101081848145 12.27393627166748 12.393928527832031 12.276899337768555 L12.393928527832031 12.276899337768555 C12.37674617767334 12.23240852355957 12.359563827514648 12.187917709350586 12.342381477355957 12.143426895141602 L12.342381477355957 12.143426895141602 C12.322099685668945 12.178536415100098 12.30181884765625 12.213644981384277 12.281537055969238 12.248754501342773 L12.281537055969238 12.248754501342773 C12.272318840026855 12.245018005371094 12.263099670410156 12.241281509399414 12.253881454467773 12.237545013427734 L12.253881454467773 12.237545013427734 C12.253881454467773 12.099154472351074 12.253881454467773 11.960762977600098 12.253881454467773 11.822372436523438 L12.253881454467773 11.822372436523438"></path></svg>