<svg xmlns="http://www.w3.org/2000/svg" viewBox="0.0 0.0 24.0 24.0" height="200px" width="200px"><path fill="none" stroke="black" stroke-width=".3" stroke-opacity="1.0"  filling="0" d="M11.78907299041748 11.817298889160156 L11.78907299041748 11.817298889160156 C11.864700317382812 11.817298889160156 11.940326690673828 11.817299842834473 12.01595401763916 11.817299842834473 L12.01595401763916 11.817299842834473 C12.01595401763916 11.94892692565918 12.01595401763916 12.080554962158203 12.01595401763916 12.21218204498291 L12.01595401763916 12.21218204498291 C12.004399299621582 12.212790489196777 11.99284553527832 12.213399887084961 11.981290817260742 12.214008331298828 L11.981290817260742 12.214008331298828 C11.976027488708496 12.093426704406738 11.970763206481934 11.972845077514648 11.965499877929688 11.852263450622559 L11.965499877929688 11.852263450622559 C11.922281265258789 11.86940860748291 11.879063606262207 11.886553764343262 11.835844993591309 11.903698921203613 L11.835844993591309 11.903698921203613 C11.8202543258667 12.007308006286621 11.80466365814209 12.110917091369629 11.78907299041748 12.214526176452637 L11.78907299041748 12.214526176452637 C11.78907299041748 12.082117080688477 11.78907299041748 11.949707984924316 11.78907299041748 11.817298889160156 L11.78907299041748 11.817298889160156"></path></svg>