<svg xmlns="http://www.w3.org/2000/svg" viewBox="0.0 0.0 24.0 24.0" height="200px" width="200px"><path fill="none" stroke="black" stroke-width=".3" stroke-opacity="1.0"  filling="0" d="M12.939681053161621 11.949000358581543 L12.939681053161621 11.949000358581543 C12.953726768493652 12.047809600830078 12.967772483825684 12.146617889404297 12.981818199157715 12.245427131652832 L12.981818199157715 12.245427131652832 C12.96363639831543 12.245427131652832 12.945454597473145 12.245427131652832 12.92727279663086 12.245427131652832 L12.92727279663086 12.245427131652832 C12.887990951538086 12.19102668762207 12.848709106445312 12.136627197265625 12.809427261352539 12.082226753234863 L12.809427261352539 12.082226753234863 C12.803254127502441 12.136627197265625 12.79708194732666 12.19102668762207 12.790908813476562 12.245427131652832 L12.790908813476562 12.245427131652832 C12.781818389892578 12.245436668395996 12.772727012634277 12.245445251464844 12.763636589050293 12.245454788208008 L12.763636589050293 12.245454788208008 C12.751354217529297 12.151100158691406 12.739072799682617 12.056745529174805 12.726790428161621 11.962390899658203 L12.726790428161621 11.962390899658203 C12.790844917297363 11.997645378112793 12.854899406433105 12.032899856567383 12.918953895568848 12.068154335021973 L12.918953895568848 12.068154335021973 C12.925863265991211 12.028436660766602 12.932771682739258 11.988718032836914 12.939681053161621 11.949000358581543 L12.939681053161621 11.949000358581543"></path></svg>