<svg xmlns="http://www.w3.org/2000/svg" viewBox="0.0 0.0 24.0 24.0" height="200px" width="200px"><path fill="none" stroke="black" stroke-width=".3" stroke-opacity="1.0"  filling="0" d="M11.140828132629395 11.86767292022705 L11.140828132629395 11.86767292022705 C11.190628051757812 11.946545600891113 11.24042797088623 12.025418281555176 11.290227890014648 12.104290962219238 L11.290227890014648 12.104290962219238 C11.305718421936035 12.138690948486328 11.321209907531738 12.173090934753418 11.336700439453125 12.207490921020508 L11.336700439453125 12.207490921020508 C11.287727355957031 12.175863265991211 11.238755226135254 12.14423656463623 11.18978214263916 12.112608909606934 L11.18978214263916 12.112608909606934 C11.173555374145508 12.140945434570312 11.157327651977539 12.169281959533691 11.141100883483887 12.19761848449707 L11.141100883483887 12.19761848449707 C11.0515775680542 12.1337308883667 11.136683464050293 11.97757625579834 11.140828132629395 11.86767292022705 L11.140828132629395 11.86767292022705"></path>
<path fill="none" stroke="black" stroke-width=".3" stroke-opacity="1.0"  filling="0" d="M11.198972702026367 11.914227485656738 L11.198972702026367 11.914227485656738 C11.218690872192383 11.942583084106445 11.18722152709961 12.011889457702637 11.153018951416016 12.007091522216797 L11.153018951416016 12.007091522216797 C11.168336868286133 11.976137161254883 11.18365478515625 11.945181846618652 11.198972702026367 11.914227485656738 L11.198972702026367 11.914227485656738"></path></svg>