<svg xmlns="http://www.w3.org/2000/svg" viewBox="0.0 0.0 24.0 24.0" height="200px" width="200px"><path fill="none" stroke="black" stroke-width=".3" stroke-opacity="1.0"  filling="0" d="M12.998208999633789 11.051591873168945 L12.998208999633789 11.051591873168945 C14.016700744628906 11.401317596435547 14.091371536254883 11.821359634399414 14.231836318969727 12.837163925170898 L14.231836318969727 12.837163925170898 C13.796963691711426 12.837163925170898 13.362091064453125 12.837163925170898 12.927218437194824 12.837163925170898 L12.927218437194824 12.837163925170898 C12.927218437194824 14.127097129821777 13.639114379882812 14.681608200073242 14.1358642578125 13.094673156738281 L14.1358642578125 13.094673156738281 C14.14968204498291 13.089963912963867 14.16349983215332 13.085254669189453 14.17731761932373 13.080545425415039 L14.17731761932373 13.080545425415039 C14.589728355407715 13.788620948791504 13.559036254882812 14.396509170532227 12.992618560791016 14.25818157196045 C11.185771942138672 13.816924095153809 12.277791976928711 11.653395652770996 12.998208999633789 11.051591873168945 L12.998208999633789 11.051591873168945"></path>
<path fill="none" stroke="black" stroke-width=".3" stroke-opacity="1.0"  filling="0" d="M13.17760944366455 11.236663818359375 L13.17760944366455 11.236663818359375 C13.433013916015625 11.638076782226562 13.309806823730469 12.155692100524902 13.339608192443848 12.622363090515137 L13.339608192443848 12.622363090515137 C13.201835632324219 12.622363090515137 13.064062118530273 12.622364044189453 12.926289558410645 12.622364044189453 L12.926289558410645 12.622364044189453 C12.9254150390625 12.080750465393066 12.677776336669922 11.541440963745117 13.17760944366455 11.236663818359375 L13.17760944366455 11.236663818359375"></path></svg>