<svg xmlns="http://www.w3.org/2000/svg" viewBox="0.0 0.0 24.0 24.0" height="200px" width="200px"><path fill="none" stroke="black" stroke-width=".3" stroke-opacity="1.0"  filling="0" d="M11.394845962524414 11.922381401062012 L11.394845962524414 11.922381401062012 C11.441191673278809 11.943326950073242 11.487536430358887 11.964271545410156 11.533882141113281 11.985217094421387 L11.533882141113281 11.985217094421387 C11.464081764221191 11.990762710571289 11.394282341003418 11.996308326721191 11.324481964111328 12.001853942871094 L11.324481964111328 12.001853942871094 C11.39511775970459 12.083053588867188 11.465754508972168 12.164254188537598 11.53639030456543 12.245453834533691 L11.53639030456543 12.245453834533691 C11.45456314086914 12.245453834533691 11.372735977172852 12.245454788208008 11.290908813476562 12.245454788208008 L11.290908813476562 12.245454788208008 C11.279991149902344 12.2172269821167 11.269072532653809 12.189000129699707 11.25815486907959 12.160772323608398 L11.25815486907959 12.160772323608398 C11.335336685180664 12.158409118652344 11.412517547607422 12.156044960021973 11.489699363708496 12.153681755065918 L11.489699363708496 12.153681755065918 C11.339658737182617 12.091629028320312 11.236506462097168 12.047284126281738 11.394845962524414 11.922381401062012 L11.394845962524414 11.922381401062012"></path></svg>