<svg xmlns="http://www.w3.org/2000/svg" viewBox="0.0 0.0 24.0 24.0" height="200px" width="200px"><path fill="none" stroke="black" stroke-width=".3" stroke-opacity="1.0"  filling="0" d="M9.771900177001953 11.47478199005127 L9.771900177001953 11.47478199005127 C9.874972343444824 11.633018493652344 9.978045463562012 11.791254997253418 10.081117630004883 11.949491500854492 L10.081117630004883 11.949491500854492 C10.187472343444824 11.794382095336914 10.29382610321045 11.639272689819336 10.40018081665039 11.484163284301758 L10.40018081665039 11.484163284301758 C10.408108711242676 11.485690116882324 10.416035652160645 11.487217903137207 10.42396354675293 11.488744735717773 L10.42396354675293 11.488744735717773 C10.42396354675293 11.827262878417969 10.42396354675293 12.16578197479248 10.42396354675293 12.504300117492676 L10.42396354675293 12.504300117492676 C10.159896850585938 12.559812545776367 10.204390525817871 12.103567123413086 10.198444366455078 11.995308876037598 L10.198444366455078 11.995308876037598 C10.14400863647461 12.064790725708008 10.089571952819824 12.134272575378418 10.035136222839355 12.203754425048828 L10.035136222839355 12.203754425048828 C9.982345581054688 12.132672309875488 9.929553985595703 12.061591148376465 9.876763343811035 11.990509033203125 L9.876763343811035 11.990509033203125 C9.876763343811035 12.16253662109375 9.876763343811035 12.334563255310059 9.876763343811035 12.506590843200684 L9.876763343811035 12.506590843200684 C9.841817855834961 12.510672569274902 9.806872367858887 12.514754295349121 9.771926879882812 12.51883602142334 L9.771926879882812 12.51883602142334 C9.771918296813965 12.170818328857422 9.7719087600708 11.822799682617188 9.771900177001953 11.47478199005127 L9.771900177001953 11.47478199005127"></path></svg>