<svg xmlns="http://www.w3.org/2000/svg" viewBox="0.0 0.0 24.0 24.0" height="200px" width="200px"><path fill="none" stroke="black" stroke-width=".3" stroke-opacity="1.0"  filling="0" d="M11.434718132019043 11.592300415039062 L11.434718132019043 11.592300415039062 C11.927353858947754 11.595481872558594 12.14957332611084 11.625140190124512 11.833118438720703 12.092754364013672 L11.833118438720703 12.092754364013672 C11.905482292175293 12.236417770385742 11.977845191955566 12.380082130432129 12.050209045410156 12.5237455368042 L12.050209045410156 12.5237455368042 C11.893343925476074 12.473817825317383 11.74958324432373 12.366430282592773 11.648454666137695 12.236536026000977 L11.648454666137695 12.236536026000977 C11.648454666137695 12.336336135864258 11.648454666137695 12.436136245727539 11.648454666137695 12.53593635559082 L11.648454666137695 12.53593635559082 C11.57720947265625 12.53593635559082 11.505963325500488 12.53593635559082 11.434718132019043 12.53593635559082 L11.434718132019043 12.53593635559082 C11.434718132019043 12.221390724182129 11.434718132019043 11.906846046447754 11.434718132019043 11.592300415039062 L11.434718132019043 11.592300415039062"></path>
<path fill="none" stroke="black" stroke-width=".3" stroke-opacity="1.0"  filling="0" d="M11.671117782592773 11.67518138885498 L11.671117782592773 11.67518138885498 C11.828398704528809 11.85017204284668 11.910319328308105 11.970279693603516 11.653308868408203 12.07663631439209 L11.653308868408203 12.07663631439209 C11.659245491027832 11.942817687988281 11.665181159973145 11.809000015258789 11.671117782592773 11.67518138885498 L11.671117782592773 11.67518138885498"></path></svg>