<svg xmlns="http://www.w3.org/2000/svg" viewBox="0.0 0.0 24.0 24.0" height="200px" width="200px"><path fill="none" stroke="black" stroke-width=".3" stroke-opacity="1.0"  filling="0" d="M10.048118591308594 11.508817672729492 L10.048118591308594 11.508817672729492 C10.056055068969727 11.509136199951172 10.063990592956543 11.509454727172852 10.071927070617676 11.509773254394531 L10.071927070617676 11.509773254394531 C10.202691078186035 11.85200023651123 10.333454132080078 12.19422721862793 10.464218139648438 12.536454200744629 L10.464218139648438 12.536454200744629 C10.38828182220459 12.536454200744629 10.312345504760742 12.536454200744629 10.236409187316895 12.536454200744629 L10.236409187316895 12.536454200744629 C10.117544174194336 12.443306922912598 9.896400451660156 12.465603828430176 9.784390449523926 12.566890716552734 L9.784390449523926 12.566890716552734 C9.760481834411621 12.555253982543945 9.736572265625 12.543618202209473 9.712663650512695 12.531981468200684 L9.712663650512695 12.531981468200684 C9.824481964111328 12.190926551818848 9.936300277709961 11.849872589111328 10.048118591308594 11.508817672729492 L10.048118591308594 11.508817672729492"></path>
<path fill="none" stroke="black" stroke-width=".3" stroke-opacity="1.0"  filling="0" d="M10.03066349029541 11.987781524658203 L10.03066349029541 11.987781524658203 C10.062854766845703 12.08084487915039 10.09504508972168 12.173909187316895 10.127236366271973 12.266972541809082 L10.127236366271973 12.266972541809082 C10.058045387268066 12.266972541809082 9.98885440826416 12.266972541809082 9.919663429260254 12.266972541809082 L9.919663429260254 12.266972541809082 C9.949390411376953 12.174308776855469 9.979118347167969 12.081645965576172 10.008845329284668 11.988982200622559 L10.008845329284668 11.988982200622559 C10.016118049621582 11.988581657409668 10.023390769958496 11.988182067871094 10.03066349029541 11.987781524658203 L10.03066349029541 11.987781524658203"></path></svg>