<svg xmlns="http://www.w3.org/2000/svg" viewBox="0.0 0.0 24.0 24.0" height="200px" width="200px"><path fill="none" stroke="black" stroke-width=".3" stroke-opacity="1.0"  filling="0" d="M11.817544937133789 11.57571792602539 L11.817544937133789 11.57571792602539 C11.975127220153809 11.57571792602539 12.132708549499512 11.57571792602539 12.290290832519531 11.57571792602539 L12.290290832519531 11.57571792602539 C12.293063163757324 11.605854034423828 12.295836448669434 11.635991096496582 12.298608779907227 11.66612720489502 L12.298608779907227 11.66612720489502 C12.227299690246582 11.66990852355957 12.155990600585938 11.673690795898438 12.084681510925293 11.677472114562988 L12.084681510925293 11.677472114562988 C12.075126647949219 11.784645080566406 12.065571784973145 11.891818046569824 12.05601692199707 11.998991012573242 L12.05601692199707 11.998991012573242 C12.143889427185059 11.998991012573242 12.231762886047363 11.998991012573242 12.319635391235352 11.998991012573242 L12.319635391235352 11.998991012573242 C12.319635391235352 12.034954071044922 12.319635391235352 12.070918083190918 12.319635391235352 12.106881141662598 L12.319635391235352 12.106881141662598 C12.231353759765625 12.106881141662598 12.143072128295898 12.106881141662598 12.054790496826172 12.106881141662598 L12.054790496826172 12.106881141662598 C12.05516529083252 12.21592903137207 12.060518264770508 12.325094223022461 12.071290016174316 12.433609008789062 L12.071290016174316 12.433609008789062 C12.151863098144531 12.433609008789062 12.232436180114746 12.433609008789062 12.313009262084961 12.433609008789062 L12.313009262084961 12.433609008789062 C12.318282127380371 12.467899322509766 12.323554039001465 12.502190589904785 12.328826904296875 12.536480903625488 L12.328826904296875 12.536480903625488 C12.158390998840332 12.536480903625488 11.987954139709473 12.536480903625488 11.81751823425293 12.536480903625488 L11.81751823425293 12.536480903625488 C11.817526817321777 12.216226577758789 11.817536354064941 11.89597225189209 11.817544937133789 11.57571792602539 L11.817544937133789 11.57571792602539"></path></svg>