<svg xmlns="http://www.w3.org/2000/svg" viewBox="0.0 0.0 24.0 24.0" height="200px" width="200px"><path fill="none" stroke="black" stroke-width=".3" stroke-opacity="1.0"  filling="0" d="M16.289810180664062 11.566390991210938 L16.289810180664062 11.566390991210938 C16.4497013092041 11.57723617553711 16.609590530395508 11.588082313537598 16.769481658935547 11.59892749786377 L16.769481658935547 11.59892749786377 C16.770418167114258 11.612945556640625 16.77135467529297 11.62696361541748 16.77229118347168 11.640981674194336 L16.77229118347168 11.640981674194336 C16.689573287963867 11.65748119354248 16.606855392456055 11.673981666564941 16.524137496948242 11.690481185913086 L16.524137496948242 11.690481185913086 C16.515064239501953 11.791735649108887 16.505990982055664 11.892991065979004 16.496917724609375 11.994245529174805 L16.496917724609375 11.994245529174805 C16.585899353027344 11.994245529174805 16.674882888793945 11.994245529174805 16.763864517211914 11.994245529174805 L16.763864517211914 11.994245529174805 C16.765737533569336 12.03072738647461 16.767608642578125 12.067209243774414 16.769481658935547 12.103691101074219 L16.769481658935547 12.103691101074219 C16.683208465576172 12.103691101074219 16.59693717956543 12.103691101074219 16.510663986206055 12.103691101074219 L16.510663986206055 12.103691101074219 C16.510663986206055 12.214173316955566 16.510663986206055 12.324654579162598 16.510663986206055 12.435136795043945 L16.510663986206055 12.435136795043945 C16.597745895385742 12.435136795043945 16.68482780456543 12.435136795043945 16.771909713745117 12.435136795043945 L16.771909713745117 12.435136795043945 C16.602846145629883 12.469182014465332 16.433780670166016 12.503227233886719 16.26471710205078 12.537272453308105 L16.26471710205078 12.537272453308105 C16.273080825805664 12.213644981384277 16.28144645690918 11.890018463134766 16.289810180664062 11.566390991210938 L16.289810180664062 11.566390991210938"></path></svg>