<svg xmlns="http://www.w3.org/2000/svg" viewBox="0.0 0.0 24.0 24.0" height="200px" width="200px"><path fill="none" stroke="black" stroke-width=".3" stroke-opacity="1.0"  filling="0" d="M14.207319259643555 11.435154914855957 L14.207319259643555 11.435154914855957 C14.809686660766602 12.13611888885498 14.200204849243164 12.548006057739258 14.09836483001709 13.402665138244629 L14.09836483001709 13.402665138244629 C14.322650909423828 13.352034568786621 14.390796661376953 13.199710845947266 14.620774269104004 13.219172477722168 L14.620774269104004 13.219172477722168 C12.895764350891113 14.820265769958496 14.684054374694824 12.06188678741455 14.2135648727417 11.62058162689209 C13.70199203491211 11.140741348266602 13.145465850830078 13.927813529968262 12.798410415649414 13.733154296875 C12.454635620117188 13.540334701538086 13.375017166137695 12.173617362976074 13.19768238067627 11.743391036987305 L13.19768238067627 11.743391036987305 C13.126455307006836 11.801145553588867 13.055228233337402 11.85890007019043 12.984001159667969 11.916654586791992 L12.984001159667969 11.916654586791992 C12.965600967407227 11.896790504455566 12.947200775146484 11.876927375793457 12.928800582885742 11.857063293457031 L12.928800582885742 11.857063293457031 C13.121009826660156 11.734417915344238 13.31321907043457 11.611772537231445 13.505428314208984 11.489127159118652 L13.505428314208984 11.489127159118652 C13.502082824707031 11.672918319702148 13.498737335205078 11.856708526611328 13.495391845703125 12.040499687194824 L13.495391845703125 12.040499687194824 C13.688647270202637 11.796197891235352 13.947988510131836 11.607721328735352 14.207319259643555 11.435154914855957 L14.207319259643555 11.435154914855957"></path></svg>