<svg xmlns="http://www.w3.org/2000/svg" viewBox="0.0 0.0 24.0 24.0" height="200px" width="200px"><path fill="none" stroke="black" stroke-width=".3" stroke-opacity="1.0"  filling="0" d="M11.506064414978027 11.507672309875488 L11.506064414978027 11.507672309875488 C11.629033088684082 11.692506790161133 11.756478309631348 11.874444007873535 11.888263702392578 12.053099632263184 L11.888263702392578 12.053099632263184 C11.890600204467773 11.88403606414795 11.892936706542969 11.714971542358398 11.895273208618164 11.545907974243164 L11.895273208618164 11.545907974243164 C11.930900573730469 11.545907974243164 11.966527938842773 11.545907974243164 12.002155303955078 11.545907974243164 L12.002155303955078 11.545907974243164 C12.00075626373291 11.877599716186523 11.992288589477539 12.20932674407959 11.977254867553711 12.540680885314941 L11.977254867553711 12.540680885314941 C11.849264144897461 12.374999046325684 11.721272468566895 12.209317207336426 11.593281745910645 12.043635368347168 L11.593281745910645 12.043635368347168 C11.593281745910645 12.198690414428711 11.593281745910645 12.353744506835938 11.593281745910645 12.50879955291748 L11.593281745910645 12.50879955291748 C11.552227020263672 12.51193618774414 11.511173248291016 12.515071868896484 11.470118522644043 12.518208503723145 L11.470118522644043 12.518208503723145 C11.395054817199707 12.278594970703125 11.45424747467041 11.828937530517578 11.459646224975586 11.526435852050781 L11.459646224975586 11.526435852050781 C11.475118637084961 11.520181655883789 11.490592002868652 11.51392650604248 11.506064414978027 11.507672309875488 L11.506064414978027 11.507672309875488"></path></svg>