<svg xmlns="http://www.w3.org/2000/svg" viewBox="0.0 0.0 24.0 24.0" height="200px" width="200px"><path fill="none" stroke="black" stroke-width=".3" stroke-opacity="1.0"  filling="0" d="M7.538127422332764 11.492208480834961 L7.538127422332764 11.492208480834961 C7.6808271408081055 11.828690528869629 7.8235273361206055 12.165172576904297 7.966227054595947 12.501654624938965 L7.966227054595947 12.501654624938965 C7.860945224761963 12.443536758422852 7.755663871765137 12.385417938232422 7.650382041931152 12.327300071716309 L7.650382041931152 12.327300071716309 C7.436755657196045 12.326719284057617 7.348431587219238 12.409232139587402 7.164272785186768 12.504244804382324 L7.164272785186768 12.504244804382324 C7.288890838623047 12.166899681091309 7.413509368896484 11.829553604125977 7.538127422332764 11.492208480834961 L7.538127422332764 11.492208480834961"></path>
<path fill="none" stroke="black" stroke-width=".3" stroke-opacity="1.0"  filling="0" d="M7.5013909339904785 11.946026802062988 L7.5013909339904785 11.946026802062988 C7.5384907722473145 12.030045509338379 7.575591087341309 12.114063262939453 7.6126909255981445 12.198081970214844 L7.6126909255981445 12.198081970214844 C7.542191028594971 12.213263511657715 7.471691131591797 12.228445053100586 7.401191234588623 12.243626594543457 L7.401191234588623 12.243626594543457 C7.434591293334961 12.144426345825195 7.467990875244141 12.04522705078125 7.5013909339904785 11.946026802062988 L7.5013909339904785 11.946026802062988"></path></svg>