<svg xmlns="http://www.w3.org/2000/svg" viewBox="0.0 0.0 24.0 24.0" height="200px" width="200px"><path fill="none" stroke="black" stroke-width=".3" stroke-opacity="1.0"  filling="0" d="M17.606590270996094 11.570073127746582 L17.606590270996094 11.570073127746582 C17.637245178222656 11.570073127746582 17.66790008544922 11.570073127746582 17.69855499267578 11.570073127746582 L17.69855499267578 11.570073127746582 C17.637619018554688 11.705400466918945 17.576683044433594 11.840727806091309 17.5157470703125 11.976055145263672 L17.5157470703125 11.976055145263672 C17.59998321533203 12.160791397094727 17.68421745300293 12.345527648925781 17.76845359802246 12.530263900756836 L17.76845359802246 12.530263900756836 C17.619136810302734 12.455597877502441 17.465999603271484 12.33873462677002 17.408536911010742 12.181991577148438 L17.408536911010742 12.181991577148438 C17.071874618530273 13.119102478027344 17.12904167175293 11.760207176208496 17.137990951538086 11.571026802062988 L17.137990951538086 11.571026802062988 C17.19432830810547 11.571026802062988 17.25066375732422 11.571026802062988 17.3070011138916 11.571026802062988 L17.3070011138916 11.571026802062988 C17.317846298217773 11.730563163757324 17.328691482543945 11.890100479125977 17.339536666870117 12.049636840820312 L17.339536666870117 12.049636840820312 C17.42855453491211 11.889781951904297 17.5175724029541 11.729928016662598 17.606590270996094 11.570073127746582 L17.606590270996094 11.570073127746582"></path></svg>