<svg xmlns="http://www.w3.org/2000/svg" viewBox="0.0 0.0 24.0 24.0" height="200px" width="200px"><path fill="none" stroke="black" stroke-width=".3" stroke-opacity="1.0"  filling="0" d="M7.101654052734375 11.513455390930176 L7.101654052734375 11.513455390930176 C7.2041473388671875 11.568050384521484 7.341714382171631 11.627452850341797 7.365326404571533 11.741154670715332 L7.365326404571533 11.741154670715332 C7.356026649475098 11.746627807617188 7.346726894378662 11.752099990844727 7.337427139282227 11.757573127746582 L7.337427139282227 11.757573127746582 C7.277536392211914 11.704728126525879 7.217645168304443 11.65188217163086 7.157754421234131 11.599037170410156 L7.157754421234131 11.599037170410156 C6.805179595947266 11.86892032623291 7.910945415496826 12.573675155639648 6.97418212890625 12.57261848449707 L6.97418212890625 12.57261848449707 C6.91082763671875 12.498800277709961 6.847472667694092 12.424982070922852 6.784118175506592 12.351163864135742 L6.784118175506592 12.351163864135742 C6.811408996582031 12.317646026611328 6.838699817657471 12.284127235412598 6.86599063873291 12.250609397888184 L6.86599063873291 12.250609397888184 C7.221828460693359 12.830073356628418 6.832594871520996 11.68938159942627 7.101654052734375 11.513455390930176 L7.101654052734375 11.513455390930176"></path></svg>