<svg xmlns="http://www.w3.org/2000/svg" viewBox="0.0 0.0 24.0 24.0" height="200px" width="200px"><path fill="none" stroke="black" stroke-width=".3" stroke-opacity="1.0"  filling="0" d="M14.516481399536133 7.012609004974365 L14.516481399536133 7.012609004974365 C14.323507308959961 7.729126453399658 14.130534172058105 8.44564437866211 13.9375638961792 9.162162780761719 L13.9375638961792 9.162162780761719 C14.702108383178711 8.911103248596191 15.363630294799805 8.95911979675293 15.565963745117188 9.877062797546387 C16.05455780029297 12.093703269958496 13.870414733886719 14.19322395324707 11.765236854553223 13.438907623291016 C11.361233711242676 13.294147491455078 11.392545700073242 12.722179412841797 11.43283748626709 12.425480842590332 C11.647380828857422 10.845647811889648 12.715867042541504 9.254015922546387 12.732465744018555 7.664834976196289 L12.732465744018555 7.664834976196289 C12.277132034301758 7.691409111022949 12.31281852722168 7.655594825744629 12.395156860351562 7.19999885559082 L12.395156860351562 7.19999885559082 C13.117093086242676 7.200560092926025 13.803466796875 7.057514667510986 14.516481399536133 7.012609004974365 L14.516481399536133 7.012609004974365"></path>
<path fill="none" stroke="black" stroke-width=".3" stroke-opacity="1.0"  filling="0" d="M13.9426908493042 9.738627433776855 L13.9426908493042 9.738627433776855 C14.314690589904785 10.518643379211426 13.712556838989258 12.092853546142578 13.134791374206543 12.70317268371582 L13.134791374206543 12.70317268371582 C13.081318855285645 12.675481796264648 13.02784538269043 12.647790908813477 12.974372863769531 12.620100021362305 L12.974372863769531 12.620100021362305 C13.246498107910156 11.65693473815918 13.305267333984375 10.523749351501465 13.9426908493042 9.738627433776855 L13.9426908493042 9.738627433776855"></path></svg>