<svg xmlns="http://www.w3.org/2000/svg" viewBox="0.0 0.0 24.0 24.0" height="200px" width="200px"><path fill="none" stroke="black" stroke-width=".3" stroke-opacity="1.0"  filling="0" d="M15.735574722290039 9.818891525268555 L15.735574722290039 9.818891525268555 C16.172256469726562 9.830045700073242 16.608936309814453 9.84119987487793 17.045618057250977 9.852354049682617 L17.045618057250977 9.852354049682617 C17.046560287475586 10.786012649536133 17.07244110107422 11.71097469329834 17.072973251342773 12.645234107971191 C17.0732479095459 13.1271390914917 16.965871810913086 14.248464584350586 17.405946731567383 14.052081108093262 C18.120927810668945 13.733020782470703 16.92351531982422 9.93839168548584 17.69113540649414 9.845508575439453 C17.69198989868164 9.845405578613281 18.61862564086914 9.8454008102417 19.009117126464844 9.8454008102417 L19.009117126464844 9.8454008102417 C19.009117126464844 11.306984901428223 19.37034034729004 13.574390411376953 19.035301208496094 15.080617904663086 C18.966630935668945 15.38933277130127 17.5892333984375 15.43269157409668 17.590965270996094 14.891674041748047 L17.590965270996094 14.891674041748047 C15.25825309753418 16.865720748901367 15.588587760925293 12.28060245513916 15.573983192443848 11.256791114807129 C15.567103385925293 10.77452278137207 15.400504112243652 10.165816307067871 15.735574722290039 9.818891525268555 L15.735574722290039 9.818891525268555"></path></svg>