<svg xmlns="http://www.w3.org/2000/svg" viewBox="0.0 0.0 24.0 24.0" height="200px" width="200px"><path fill="none" stroke="black" stroke-width=".3" stroke-opacity="1.0"  filling="0" d="M12.446043968200684 15.895037651062012 L12.446043968200684 15.895037651062012 C12.66858959197998 15.915019989013672 12.891135215759277 15.935001373291016 13.113680839538574 15.954983711242676 L13.113680839538574 15.954983711242676 C13.079744338989258 16.078338623046875 13.045807838439941 16.20169448852539 13.011871337890625 16.325048446655273 L13.011871337890625 16.325048446655273 C15.27474594116211 15.336456298828125 16.377702713012695 16.678606033325195 15.490852355957031 18.681848526000977 L15.490852355957031 18.681848526000977 C14.963579177856445 18.681848526000977 14.436306953430176 18.681848526000977 13.90903377532959 18.681848526000977 L13.90903377532959 18.681848526000977 C14.079511642456055 17.791284561157227 13.55795955657959 18.00835609436035 13.30903434753418 18.681848526000977 L13.30903434753418 18.681848526000977 C12.736326217651367 18.681838989257812 12.163618087768555 18.681827545166016 11.590909957885742 18.68181800842285 L11.590909957885742 18.68181800842285 C12.275704383850098 17.622194290161133 12.94900894165039 17.3393497467041 14.182090759277344 17.616735458374023 L14.182090759277344 17.616735458374023 C14.63702392578125 15.666277885437012 12.761815071105957 17.44460105895996 12.058253288269043 17.400165557861328 L12.058253288269043 17.400165557861328 C12.06457805633545 16.9849853515625 12.341032028198242 16.323970794677734 12.446043968200684 15.895037651062012 L12.446043968200684 15.895037651062012"></path></svg>