<svg xmlns="http://www.w3.org/2000/svg" viewBox="0.0 0.0 24.0 24.0" height="200px" width="200px"><path fill="none" stroke="black" stroke-width=".3" stroke-opacity="1.0"  filling="0" d="M12.751745223999023 8.862817764282227 L12.751745223999023 8.862817764282227 C13.044380187988281 9.148982048034668 12.87248706817627 9.576011657714844 12.872754096984863 9.957873344421387 L12.872754096984863 9.957873344421387 C15.064947128295898 9.160886764526367 14.782999992370605 11.001728057861328 14.796384811401367 12.525480270385742 C14.80788803100586 13.834978103637695 14.949630737304688 15.289666175842285 13.28408145904541 15.319555282592773 C11.887649536132812 15.344614028930664 11.409811019897461 14.22224235534668 11.28108024597168 12.847798347473145 C11.152349472045898 11.47335433959961 11.372727394104004 9.846837997436523 11.372727394104004 8.863609313964844 L11.372727394104004 8.863609313964844 C11.83240032196045 8.863609313964844 12.292072296142578 8.863269805908203 12.751745223999023 8.862817764282227 L12.751745223999023 8.862817764282227"></path>
<path fill="none" stroke="black" stroke-width=".3" stroke-opacity="1.0"  filling="0" d="M13.05919075012207 10.913508415222168 L13.05919075012207 10.913508415222168 C14.153803825378418 11.585721969604492 12.905014991760254 15.909680366516113 12.899999618530273 12.873927116394043 C12.899497032165527 12.569799423217773 12.903367042541504 12.265641212463379 12.899072647094727 11.961544036865234 C12.893148422241211 11.542049407958984 12.7576265335083 11.209850311279297 13.05919075012207 10.913508415222168 L13.05919075012207 10.913508415222168"></path></svg>