<svg xmlns="http://www.w3.org/2000/svg" viewBox="0.0 0.0 24.0 24.0" height="200px" width="200px"><path fill="none" stroke="black" stroke-width=".3" stroke-opacity="1.0"  filling="0" d="M2.553873062133789 8.787220001220703 L2.553873062133789 8.787220001220703 C4.201838493347168 9.098666191101074 4.257870197296143 9.714456558227539 4.254490375518799 11.210235595703125 L4.254490375518799 11.210235595703125 C3.792886734008789 11.323465347290039 3.304152011871338 11.235858917236328 2.828864097595215 11.236309051513672 L2.828864097595215 11.236309051513672 C2.5261409282684326 9.123849868774414 1.9081422090530396 10.359780311584473 1.9086509943008423 12.11470890045166 C1.9088114500045776 12.668081283569336 1.4743366241455078 13.498653411865234 1.9542274475097656 13.774200439453125 C2.6979384422302246 14.201229095458984 3.021219491958618 13.522638320922852 2.7734451293945312 12.896236419677734 C2.6959950923919678 12.700433731079102 2.236199378967285 13.014932632446289 2.1829633712768555 12.726136207580566 C2.1258163452148438 12.416123390197754 2.2375404834747314 12.065995216369629 2.185418128967285 11.7473726272583 L2.185418128967285 11.7473726272583 C2.6502459049224854 11.683852195739746 3.6052935123443604 11.634414672851562 4.0722270011901855 11.700600624084473 C4.470002174377441 11.756983757019043 4.255758762359619 12.490103721618652 4.255397796630859 12.891855239868164 C4.254149436950684 14.280546188354492 3.8839244842529297 15.67347240447998 2.0769004821777344 15.32383918762207 C0.14087605476379395 14.949246406555176 0.38312828540802 13.518020629882812 0.3821350336074829 11.938652038574219 C0.38089075684547424 9.960102081298828 0.3971893787384033 8.852190017700195 2.553873062133789 8.787220001220703 L2.553873062133789 8.787220001220703"></path></svg>