<svg xmlns="http://www.w3.org/2000/svg" viewBox="0.0 0.0 24.0 24.0" height="200px" width="200px"><path fill="none" stroke="black" stroke-width=".3" stroke-opacity="1.0"  filling="0" d="M10.392463684082031 11.327892303466797 L10.392463684082031 11.327892303466797 C10.513527870178223 11.520037651062012 10.446972846984863 11.673468589782715 10.44548225402832 11.886819839477539 L10.44548225402832 11.886819839477539 C10.366610527038574 11.790313720703125 10.339542388916016 11.645803451538086 10.245599746704102 11.585318565368652 L10.245599746704102 11.585318565368652 C10.312511444091797 11.945650100708008 10.7186918258667 12.595206260681152 10.161409378051758 12.564000129699707 L10.161409378051758 12.564000129699707 C10.134390830993652 12.614936828613281 10.107372283935547 12.665873527526855 10.080353736877441 12.71681022644043 L10.080353736877441 12.71681022644043 C10.064263343811035 12.512337684631348 10.048171997070312 12.30786418914795 10.032081604003906 12.103391647338867 L10.032081604003906 12.103391647338867 C10.063318252563477 12.089146614074707 10.09455394744873 12.07490062713623 10.1257905960083 12.06065559387207 L10.1257905960083 12.06065559387207 C10.062265396118164 11.738368034362793 9.950085639953613 11.516509056091309 10.318964004516602 11.417101860046387 L10.318964004516602 11.417101860046387 C10.343463897705078 11.387365341186523 10.367963790893555 11.35762882232666 10.392463684082031 11.327892303466797 L10.392463684082031 11.327892303466797"></path>
<path fill="none" stroke="black" stroke-width=".3" stroke-opacity="1.0"  filling="0" d="M10.143163681030273 12.074235916137695 L10.143163681030273 12.074235916137695 C10.174691200256348 12.167744636535645 10.206217765808105 12.26125431060791 10.23774528503418 12.35476303100586 L10.23774528503418 12.35476303100586 C10.206217765808105 12.26125431060791 10.174691200256348 12.167744636535645 10.143163681030273 12.074235916137695 L10.143163681030273 12.074235916137695"></path></svg>