<svg xmlns="http://www.w3.org/2000/svg" viewBox="0.0 0.0 24.0 24.0" height="200px" width="200px"><path fill="none" stroke="black" stroke-width=".3" stroke-opacity="1.0"  filling="0" d="M18.081846237182617 10.65649127960205 L18.081846237182617 10.65649127960205 C18.081846237182617 11.52772045135498 18.10933494567871 12.397218704223633 18.10933494567871 13.26943588256836 L18.10933494567871 13.26943588256836 C17.890544891357422 13.26943588256836 17.671754837036133 13.26943588256836 17.452964782714844 13.26943588256836 L17.452964782714844 13.26943588256836 C17.434396743774414 12.821114540100098 17.163349151611328 12.900026321411133 16.729799270629883 12.900026321411133 L16.729799270629883 12.900026321411133 C16.543804168701172 13.196979522705078 16.100444793701172 13.279706954956055 15.750054359436035 13.280917167663574 L15.750054359436035 13.280917167663574 C15.752809524536133 13.276652336120605 17.425052642822266 10.68800163269043 17.428936004638672 10.681990623474121 L17.428936004638672 10.681990623474121 C17.64657211303711 10.673490524291992 17.86421012878418 10.66499137878418 18.081846237182617 10.65649127960205 L18.081846237182617 10.65649127960205"></path>
<path fill="none" stroke="black" stroke-width=".3" stroke-opacity="1.0"  filling="0" d="M17.421735763549805 11.811382293701172 L17.421735763549805 11.811382293701172 C17.43370819091797 11.971508979797363 17.445680618286133 12.131636619567871 17.457653045654297 12.291763305664062 L17.457653045654297 12.291763305664062 C17.346708297729492 12.28864574432373 17.235763549804688 12.285527229309082 17.124818801879883 12.28240966796875 L17.124818801879883 12.28240966796875 C17.223791122436523 12.12540054321289 17.322763442993164 11.968391418457031 17.421735763549805 11.811382293701172 L17.421735763549805 11.811382293701172"></path></svg>