<svg xmlns="http://www.w3.org/2000/svg" viewBox="0.0 0.0 24.0 24.0" height="200px" width="200px"><path fill="none" stroke="black" stroke-width=".3" stroke-opacity="1.0"  filling="0" d="M11.088817596435547 11.891536712646484 L11.088817596435547 11.891536712646484 C11.118181228637695 11.89466381072998 11.14754581451416 11.897790908813477 11.176909446716309 11.900918006896973 L11.176909446716309 11.900918006896973 C11.177363395690918 11.909390449523926 11.177818298339844 11.917863845825195 11.178272247314453 11.926336288452148 L11.178272247314453 11.926336288452148 C11.124417304992676 11.94351863861084 11.070563316345215 11.960700035095215 11.016708374023438 11.977882385253906 L11.016708374023438 11.977882385253906 C11.016826629638672 11.987082481384277 11.016944885253906 11.996281623840332 11.01706314086914 12.005481719970703 L11.01706314086914 12.005481719970703 C11.05440902709961 12.023372650146484 11.091753959655762 12.041263580322266 11.12909984588623 12.059154510498047 L11.12909984588623 12.059154510498047 C11.087218284606934 12.085618019104004 11.04533576965332 12.112082481384277 11.003454208374023 12.138545989990234 L11.003454208374023 12.138545989990234 C11.057381629943848 12.158137321472168 11.111309051513672 12.177727699279785 11.165236473083496 12.197319030761719 L11.165236473083496 12.197319030761719 C11.163945198059082 12.20263671875 11.162654876708984 12.207955360412598 11.16136360168457 12.213273048400879 L11.16136360168457 12.213273048400879 C11.095263481140137 12.213273048400879 11.02916431427002 12.213273048400879 10.963064193725586 12.213273048400879 L10.963064193725586 12.213273048400879 C10.963189125061035 12.098126411437988 11.005988121032715 11.97152328491211 11.088817596435547 11.891536712646484 L11.088817596435547 11.891536712646484"></path></svg>