<svg xmlns="http://www.w3.org/2000/svg" viewBox="0.0 0.0 24.0 24.0" height="200px" width="200px"><path fill="none" stroke="black" stroke-width=".3" stroke-opacity="1.0"  filling="0" d="M8.943572998046875 10.79814338684082 L8.943572998046875 10.79814338684082 C9.433418273925781 10.798905372619629 9.923263549804688 10.799928665161133 10.413108825683594 10.799972534179688 L10.413108825683594 10.799972534179688 C10.3580904006958 10.981108665466309 10.303072929382324 11.162245750427246 10.248054504394531 11.343381881713867 L10.248054504394531 11.343381881713867 C9.954109191894531 11.343381881713867 9.660163879394531 11.343381881713867 9.366218566894531 11.343381881713867 L9.366218566894531 11.343381881713867 C9.32720947265625 11.455118179321289 9.288200378417969 11.566853523254395 9.249191284179688 11.678589820861816 L9.249191284179688 11.678589820861816 C9.411236763000488 11.684944152832031 9.573281288146973 11.691299438476562 9.735326766967773 11.697653770446777 L9.735326766967773 11.697653770446777 C9.687299728393555 11.87869930267334 9.63927173614502 12.059744834899902 9.5912446975708 12.240790367126465 L9.5912446975708 12.240790367126465 C9.415472030639648 12.240790367126465 9.239699363708496 12.240790367126465 9.063926696777344 12.240790367126465 L9.063926696777344 12.240790367126465 C8.971809387207031 12.51144027709961 9.486892700195312 12.738155364990234 9.772445678710938 12.72414493560791 L9.772445678710938 12.72414493560791 C9.706672668457031 12.925344467163086 9.640899658203125 13.126544952392578 9.575126647949219 13.327744483947754 L9.575126647949219 13.327744483947754 C9.04725456237793 13.317071914672852 8.519381523132324 13.306398391723633 7.991508960723877 13.29572582244873 L7.991508960723877 13.29572582244873 C8.246552467346191 12.560373306274414 8.325809478759766 11.253819465637207 8.943572998046875 10.79814338684082 L8.943572998046875 10.79814338684082"></path></svg>