<svg xmlns="http://www.w3.org/2000/svg" viewBox="0.0 0.0 24.0 24.0" height="200px" width="200px"><path fill="none" stroke="black" stroke-width=".3" stroke-opacity="1.0"  filling="0" d="M12.272727012634277 9.574445724487305 L12.272727012634277 9.574445724487305 C14.640220642089844 9.588107109069824 11.095955848693848 12.368561744689941 13.094318389892578 12.366244316101074 L13.094318389892578 12.366244316101074 C13.094318389892578 12.489826202392578 13.094318389892578 12.613408088684082 13.094318389892578 12.736989974975586 L13.094318389892578 12.736989974975586 C12.708536148071289 12.736989974975586 12.322754859924316 12.736989974975586 11.936972618103027 12.736989974975586 L11.936972618103027 12.736989974975586 C11.550528526306152 11.666770935058594 13.088852882385254 10.912566184997559 12.5137357711792 9.844827651977539 L12.5137357711792 9.844827651977539 C12.460409164428711 9.878082275390625 12.407081604003906 9.911335945129395 12.353754997253418 9.94459056854248 L12.353754997253418 9.94459056854248 C12.353754997253418 10.167181968688965 12.353754997253418 10.389772415161133 12.353754997253418 10.612363815307617 L12.353754997253418 10.612363815307617 C11.559099197387695 10.65729808807373 11.92137622833252 9.983973503112793 12.272727012634277 9.574445724487305 L12.272727012634277 9.574445724487305"></path></svg>