<svg xmlns="http://www.w3.org/2000/svg" viewBox="0.0 0.0 24.0 24.0" height="200px" width="200px"><path fill="none" stroke="black" stroke-width=".3" stroke-opacity="1.0"  filling="0" d="M14.63828182220459 11.868818283081055 L14.63828182220459 11.868818283081055 C14.600708961486816 11.95063591003418 14.56313705444336 12.032454490661621 14.525564193725586 12.114272117614746 L14.525564193725586 12.114272117614746 C14.565045356750488 12.127936363220215 14.604527473449707 12.141599655151367 14.64400863647461 12.155263900756836 L14.64400863647461 12.155263900756836 C14.6426362991333 12.163190841674805 14.641263008117676 12.17111873626709 14.639890670776367 12.179045677185059 L14.639890670776367 12.179045677185059 C14.57050895690918 12.179045677185059 14.501127243041992 12.179045677185059 14.431745529174805 12.179045677185059 L14.431745529174805 12.179045677185059 C14.470836639404297 12.102445602416992 14.509926795959473 12.025845527648926 14.549017906188965 11.94924545288086 L14.549017906188965 11.94924545288086 C14.51125431060791 11.924418449401855 14.473490715026855 11.899590492248535 14.4357271194458 11.874763488769531 L14.4357271194458 11.874763488769531 C14.50324535369873 11.872781753540039 14.57076358795166 11.870800018310547 14.63828182220459 11.868818283081055 L14.63828182220459 11.868818283081055"></path></svg>