<svg xmlns="http://www.w3.org/2000/svg" viewBox="0.0 0.0 24.0 24.0" height="200px" width="200px"><path fill="none" stroke="black" stroke-width=".3" stroke-opacity="1.0"  filling="0" d="M15.196581840515137 9.805800437927246 L15.196581840515137 9.805800437927246 C15.10117244720459 10.156737327575684 15.00576400756836 10.507673263549805 14.910354614257812 10.858610153198242 L14.910354614257812 10.858610153198242 C15.23531723022461 10.815129280090332 15.51591682434082 10.647650718688965 15.834027290344238 10.57571029663086 L15.834027290344238 10.57571029663086 C15.840254783630371 10.586910247802734 15.846482276916504 10.598109245300293 15.852709770202637 10.609309196472168 L15.852709770202637 10.609309196472168 C15.38938045501709 11.022085189819336 13.46260929107666 12.516838073730469 14.70935344696045 13.354718208312988 L14.70935344696045 13.354718208312988 C13.293872833251953 14.078997611999512 13.985893249511719 12.009586334228516 14.219646453857422 11.378836631774902 L14.219646453857422 11.378836631774902 C14.007254600524902 11.255809783935547 13.7948637008667 11.132781982421875 13.58247184753418 11.00975513458252 L13.58247184753418 11.00975513458252 C13.705255508422852 10.932809829711914 14.323583602905273 10.90414810180664 14.346763610839844 10.86169147491455 C14.563264846801758 10.465145111083984 14.752532005310059 9.889117240905762 15.196581840515137 9.805800437927246 L15.196581840515137 9.805800437927246"></path></svg>