<svg xmlns="http://www.w3.org/2000/svg" viewBox="0.0 0.0 24.0 24.0" height="200px" width="200px"><path fill="none" stroke="black" stroke-width=".3" stroke-opacity="1.0"  filling="0" d="M12.674263954162598 11.896526336669922 L12.674263954162598 11.896526336669922 C12.689245223999023 11.93857192993164 12.704227447509766 11.98061752319336 12.719208717346191 12.022663116455078 L12.719208717346191 12.022663116455078 C12.756526947021484 12.022663116455078 12.793845176696777 12.022663116455078 12.83116340637207 12.022663116455078 L12.83116340637207 12.022663116455078 C12.843008995056152 11.983954429626465 12.854854583740234 11.945244789123535 12.866700172424316 11.906536102294922 L12.866700172424316 11.906536102294922 C12.873364448547363 11.907408714294434 12.880027770996094 11.908282279968262 12.88669204711914 11.909154891967773 L12.88669204711914 11.909154891967773 C12.886673927307129 12.00979995727539 12.8866548538208 12.110445022583008 12.886636734008789 12.211090087890625 L12.886636734008789 12.211090087890625 C12.835009574890137 12.169990539550781 12.783382415771484 12.128890991210938 12.731755256652832 12.087791442871094 L12.731755256652832 12.087791442871094 C12.708855628967285 12.132772445678711 12.685955047607422 12.177754402160645 12.663055419921875 12.222735404968262 L12.663055419921875 12.222735404968262 C12.657010078430176 12.219099044799805 12.65096378326416 12.215463638305664 12.644918441772461 12.211827278137207 L12.644918441772461 12.211827278137207 C12.644918441772461 12.107518196105957 12.644918441772461 12.003209114074707 12.644918441772461 11.898900032043457 L12.644918441772461 11.898900032043457 C12.65470027923584 11.89810848236084 12.664482116699219 11.897317886352539 12.674263954162598 11.896526336669922 L12.674263954162598 11.896526336669922"></path></svg>