<svg xmlns="http://www.w3.org/2000/svg" viewBox="0.0 0.0 24.0 24.0" height="200px" width="200px"><path fill="none" stroke="black" stroke-width=".3" stroke-opacity="1.0"  filling="0" d="M13.687664985656738 9.582626342773438 L13.687664985656738 9.582626342773438 C14.0630464553833 9.582635879516602 14.438427925109863 9.582645416259766 14.813809394836426 9.58265495300293 L14.813809394836426 9.58265495300293 C14.813809394836426 9.697572708129883 14.813809394836426 9.812491416931152 14.813809394836426 9.927409172058105 L14.813809394836426 9.927409172058105 C14.579299926757812 9.929400444030762 14.344791412353516 9.931390762329102 14.110281944274902 9.933382034301758 L14.110281944274902 9.933382034301758 C14.110281944274902 10.138500213623047 14.110281944274902 10.343618392944336 14.110281944274902 10.548736572265625 L14.110281944274902 10.548736572265625 C15.037748336791992 9.894111633300781 15.241342544555664 12.318182945251465 14.57550048828125 12.64797306060791 C13.759703636169434 13.052035331726074 13.249948501586914 11.780450820922852 14.099918365478516 11.781927108764648 L14.099918365478516 11.781927108764648 C14.101131439208984 11.99573802947998 14.116989135742188 12.210185050964355 14.150291442871094 12.421390533447266 L14.150291442871094 12.421390533447266 C15.014657974243164 12.319493293762207 14.107288360595703 10.078665733337402 14.099809646606445 11.199599266052246 L14.099809646606445 11.199599266052246 C13.962428092956543 11.199599266052246 13.82504653930664 11.199599266052246 13.687664985656738 11.199599266052246 L13.687664985656738 11.199599266052246 C13.687664985656738 10.660608291625977 13.687664985656738 10.121617317199707 13.687664985656738 9.582626342773438 L13.687664985656738 9.582626342773438"></path></svg>