<svg xmlns="http://www.w3.org/2000/svg" viewBox="0.0 0.0 24.0 24.0" height="200px" width="200px"><path fill="none" stroke="black" stroke-width=".3" stroke-opacity="1.0"  filling="0" d="M12.282245635986328 11.895545959472656 L12.282245635986328 11.895545959472656 C12.354727745056152 11.91014575958252 12.42720890045166 11.924745559692383 12.499691009521484 11.939345359802246 L12.499691009521484 11.939345359802246 C12.420549392700195 11.966595649719238 12.328076362609863 12.104785919189453 12.387327194213867 12.163908004760742 L12.387327194213867 12.163908004760742 C12.40999984741211 12.143872261047363 12.432672500610352 12.123835563659668 12.455345153808594 12.103799819946289 L12.455345153808594 12.103799819946289 C12.435263633728027 12.081799507141113 12.415181159973145 12.059799194335938 12.395099639892578 12.037798881530762 L12.395099639892578 12.037798881530762 C12.430272102355957 12.034453392028809 12.465444564819336 12.031106948852539 12.500617027282715 12.027761459350586 L12.500617027282715 12.027761459350586 C12.449763298034668 12.090062141418457 12.398908615112305 12.152362823486328 12.348054885864258 12.2146635055542 L12.348054885864258 12.2146635055542 C12.279003143310547 12.130828857421875 12.222274780273438 11.986098289489746 12.282245635986328 11.895545959472656 L12.282245635986328 11.895545959472656"></path></svg>