<svg xmlns="http://www.w3.org/2000/svg" viewBox="0.0 0.0 24.0 24.0" height="200px" width="200px"><path fill="none" stroke="black" stroke-width=".3" stroke-opacity="1.0"  filling="0" d="M15.047780990600586 11.84405517578125 L15.047780990600586 11.84405517578125 C15.11258316040039 11.8569974899292 15.175117492675781 11.890917778015137 15.223390579223633 11.93604564666748 L15.223390579223633 11.93604564666748 C15.221590995788574 12.018036842346191 15.2197904586792 12.100027084350586 15.21799087524414 12.182018280029297 L15.21799087524414 12.182018280029297 C15.208954811096191 12.185954093933105 15.199917793273926 12.18989086151123 15.190881729125977 12.193826675415039 L15.190881729125977 12.193826675415039 C15.152199745178223 12.14622688293457 15.113518714904785 12.098627090454102 15.074836730957031 12.051027297973633 L15.074836730957031 12.051027297973633 C15.06008243560791 12.093391418457031 15.045327186584473 12.135754585266113 15.030572891235352 12.178118705749512 L15.030572891235352 12.178118705749512 C15.020408630371094 12.177155494689941 15.010245323181152 12.176191329956055 15.000081062316895 12.175228118896484 L15.000081062316895 12.175228118896484 C15.00103759765625 12.063701629638672 14.995582580566406 11.94261646270752 15.047780990600586 11.84405517578125 L15.047780990600586 11.84405517578125"></path></svg>