<svg xmlns="http://www.w3.org/2000/svg" viewBox="0.0 0.0 24.0 24.0" height="200px" width="200px"><path fill="none" stroke="black" stroke-width=".3" stroke-opacity="1.0"  filling="0" d="M11.545827865600586 11.834263801574707 L11.545827865600586 11.834263801574707 C11.559327125549316 11.968672752380371 11.572827339172363 12.103081703186035 11.586326599121094 12.2374906539917 L11.586326599121094 12.2374906539917 C11.57381820678711 12.185917854309082 11.561308860778809 12.134345054626465 11.548800468444824 12.082772254943848 L11.548800468444824 12.082772254943848 C11.523845672607422 12.129499435424805 11.49889087677002 12.176227569580078 11.473936080932617 12.222954750061035 L11.473936080932617 12.222954750061035 C11.437309265136719 12.176963806152344 11.400681495666504 12.130972862243652 11.364054679870605 12.084981918334961 L11.364054679870605 12.084981918334961 C11.36662769317627 12.135090827941895 11.369199752807617 12.185200691223145 11.371772766113281 12.235309600830078 L11.371772766113281 12.235309600830078 C11.36240005493164 12.240145683288574 11.35302734375 12.24498176574707 11.34365463256836 12.249817848205566 L11.34365463256836 12.249817848205566 C11.25622272491455 12.123397827148438 11.265812873840332 11.967306137084961 11.357454299926758 11.839200973510742 L11.357454299926758 11.839200973510742 C11.401190757751465 11.901309967041016 11.444927215576172 11.963418960571289 11.488663673400879 12.025527954101562 L11.488663673400879 12.025527954101562 C11.507718086242676 11.961772918701172 11.526773452758789 11.898018836975098 11.545827865600586 11.834263801574707 L11.545827865600586 11.834263801574707"></path></svg>