<svg xmlns="http://www.w3.org/2000/svg" viewBox="0.0 0.0 24.0 24.0" height="200px" width="200px"><path fill="none" stroke="black" stroke-width=".3" stroke-opacity="1.0"  filling="0" d="M12.508718490600586 11.869226455688477 L12.508718490600586 11.869226455688477 C12.555191040039062 11.869226455688477 12.601664543151855 11.869226455688477 12.648137092590332 11.869226455688477 L12.648137092590332 11.869226455688477 C12.648137092590332 11.988090515136719 12.648137092590332 12.106953620910645 12.648137092590332 12.225817680358887 L12.648137092590332 12.225817680358887 C12.585436820983887 12.206208229064941 12.522737503051758 12.186599731445312 12.460037231445312 12.166990280151367 L12.460037231445312 12.166990280151367 C12.503228187561035 12.171689987182617 12.546418190002441 12.176390647888184 12.589609146118164 12.181090354919434 L12.589609146118164 12.181090354919434 C12.592772483825684 12.172953605651855 12.59593677520752 12.164817810058594 12.599100112915039 12.156681060791016 L12.599100112915039 12.156681060791016 C12.567391395568848 12.14639949798584 12.53568172454834 12.136116981506348 12.503973007202148 12.125835418701172 L12.503973007202148 12.125835418701172 C12.505555152893066 12.040299415588379 12.507136344909668 11.95476245880127 12.508718490600586 11.869226455688477 L12.508718490600586 11.869226455688477"></path></svg>