<svg xmlns="http://www.w3.org/2000/svg" viewBox="0.0 0.0 24.0 24.0" height="200px" width="200px"><path fill="none" stroke="black" stroke-width=".3" stroke-opacity="1.0"  filling="0" d="M11.623580932617188 11.698090553283691 L11.623580932617188 11.698090553283691 C11.811934471130371 11.881099700927734 11.749472618103027 11.971517562866211 11.562736511230469 12.130745887756348 L11.562736511230469 12.130745887756348 C11.624564170837402 12.1603364944458 11.68639087677002 12.18992805480957 11.748218536376953 12.219518661499023 L11.748218536376953 12.219518661499023 C11.636454582214355 12.219027519226074 11.524691581726074 12.218537330627441 11.412927627563477 12.218046188354492 L11.412927627563477 12.218046188354492 C11.510127067565918 12.09060001373291 11.584617614746094 11.932976722717285 11.595081329345703 11.773036003112793 L11.595081329345703 11.773036003112793 C11.57962703704834 11.818990707397461 11.56417179107666 11.864945411682129 11.548717498779297 11.910900115966797 L11.548717498779297 11.910900115966797 C11.517654418945312 11.910900115966797 11.486590385437012 11.910900115966797 11.455527305603027 11.910900115966797 L11.455527305603027 11.910900115966797 C11.456417083740234 11.820516586303711 11.549875259399414 11.750411033630371 11.623580932617188 11.698090553283691 L11.623580932617188 11.698090553283691"></path></svg>