<svg xmlns="http://www.w3.org/2000/svg" viewBox="0.0 0.0 24.0 24.0" height="200px" width="200px"><path fill="none" stroke="black" stroke-width=".3" stroke-opacity="1.0"  filling="0" d="M11.842445373535156 11.679516792297363 L11.842445373535156 11.679516792297363 C11.920808792114258 11.679516792297363 11.999173164367676 11.679516792297363 12.077536582946777 11.679516792297363 L12.077536582946777 11.679516792297363 C12.034116744995117 11.727824211120605 11.977640151977539 11.768448829650879 11.915727615356445 11.788089752197266 L11.915727615356445 11.788089752197266 C11.915055274963379 11.801026344299316 11.914381980895996 11.813962936401367 11.91370964050293 11.826899528503418 L11.91370964050293 11.826899528503418 C11.972060203552246 11.847021102905273 12.030200004577637 11.878490447998047 12.091909408569336 11.877217292785645 L12.091909408569336 11.877217292785645 C12.11161994934082 12.139896392822266 12.027965545654297 12.396133422851562 11.826190948486328 12.040881156921387 L11.826190948486328 12.040881156921387 C11.88180923461914 12.077417373657227 11.937427520751953 12.113954544067383 11.993045806884766 12.150490760803223 L11.993045806884766 12.150490760803223 C11.993045806884766 12.082254409790039 11.993045806884766 12.014017105102539 11.993045806884766 11.945780754089355 L11.993045806884766 11.945780754089355 C11.942845344543457 11.967153549194336 11.892645835876465 11.988527297973633 11.842445373535156 12.009900093078613 L11.842445373535156 12.009900093078613 C11.842445373535156 11.899772644042969 11.842445373535156 11.789644241333008 11.842445373535156 11.679516792297363 L11.842445373535156 11.679516792297363"></path></svg>