<svg xmlns="http://www.w3.org/2000/svg" viewBox="0.0 0.0 24.0 24.0" height="200px" width="200px"><path fill="none" stroke="black" stroke-width=".3" stroke-opacity="1.0"  filling="0" d="M11.209091186523438 11.645454406738281 L11.209091186523438 11.645454406738281 C11.32727336883545 11.645454406738281 11.445454597473145 11.645454406738281 11.563636779785156 11.645454406738281 L11.563636779785156 11.645454406738281 C11.5547456741333 11.735490798950195 11.545855522155762 11.82552719116211 11.536964416503906 11.915563583374023 L11.536964416503906 11.915563583374023 C11.554813385009766 12.068076133728027 11.426225662231445 12.255057334899902 11.278472900390625 12.29686450958252 L11.278472900390625 12.29686450958252 C11.175387382507324 12.092551231384277 11.284582138061523 11.858040809631348 11.209091186523438 11.645454406738281 L11.209091186523438 11.645454406738281"></path>
<path fill="none" stroke="black" stroke-width=".3" stroke-opacity="1.0"  filling="0" d="M11.399645805358887 11.6791353225708 L11.399645805358887 11.6791353225708 C11.444679260253906 11.736846923828125 11.410983085632324 11.84378433227539 11.358546257019043 11.89486312866211 L11.358546257019043 11.89486312866211 C11.372245788574219 11.822954177856445 11.385946273803711 11.751044273376465 11.399645805358887 11.6791353225708 L11.399645805358887 11.6791353225708"></path>
<path fill="none" stroke="black" stroke-width=".3" stroke-opacity="1.0"  filling="0" d="M11.366345405578613 11.94921875 L11.366345405578613 11.94921875 C11.405854225158691 11.973973274230957 11.44536304473877 11.998726844787598 11.484871864318848 12.023481369018555 L11.484871864318848 12.023481369018555 C11.471054077148438 12.079154014587402 11.457235336303711 12.13482666015625 11.4434175491333 12.190499305725098 L11.4434175491333 12.190499305725098 C11.417726516723633 12.110072135925293 11.392036437988281 12.029645919799805 11.366345405578613 11.94921875 L11.366345405578613 11.94921875"></path></svg>