<svg xmlns="http://www.w3.org/2000/svg" viewBox="0.0 0.0 24.0 24.0" height="200px" width="200px"><path fill="none" stroke="black" stroke-width=".3" stroke-opacity="1.0"  filling="0" d="M12.24046516418457 11.700545310974121 L12.24046516418457 11.700545310974121 C12.258328437805176 11.703473091125488 12.276191711425781 11.706399917602539 12.294054985046387 11.709327697753906 L12.294054985046387 11.709327697753906 C12.243446350097656 11.756736755371094 12.19283676147461 11.804145812988281 12.142228126525879 11.851554870605469 L12.142228126525879 11.851554870605469 C12.183391571044922 11.858681678771973 12.224555015563965 11.865809440612793 12.265718460083008 11.872936248779297 L12.265718460083008 11.872936248779297 C12.291370391845703 12.007303237915039 12.167668342590332 12.188762664794922 12.032646179199219 12.210709571838379 L12.032646179199219 12.210709571838379 C12.032646179199219 12.172563552856445 12.032646179199219 12.134418487548828 12.032646179199219 12.096272468566895 L12.032646179199219 12.096272468566895 C12.07464599609375 12.11719036102295 12.116646766662598 12.13810920715332 12.158646583557129 12.159027099609375 L12.158646583557129 12.159027099609375 C12.165074348449707 12.09903621673584 12.171501159667969 12.039045333862305 12.177928924560547 11.97905445098877 L12.177928924560547 11.97905445098877 C12.140965461730957 11.993072509765625 12.10400104522705 12.00709056854248 12.067037582397461 12.021108627319336 L12.067037582397461 12.021108627319336 C12.026501655578613 11.906580924987793 12.154840469360352 11.78673267364502 12.24046516418457 11.700545310974121 L12.24046516418457 11.700545310974121"></path></svg>