<svg xmlns="http://www.w3.org/2000/svg" viewBox="0.0 0.0 24.0 24.0" height="200px" width="200px"><path fill="none" stroke="black" stroke-width=".3" stroke-opacity="1.0"  filling="0" d="M12.844773292541504 11.447891235351562 L12.844773292541504 11.447891235351562 C12.91701889038086 11.499163627624512 12.989263534545898 11.550436973571777 13.061509132385254 11.601709365844727 L13.061509132385254 11.601709365844727 C12.965158462524414 11.907831192016602 13.027318000793457 12.197758674621582 13.04577350616455 12.524700164794922 L13.04577350616455 12.524700164794922 C12.8576078414917 12.39177417755127 12.74450969696045 12.170608520507812 12.639599800109863 11.965499877929688 L12.639599800109863 11.965499877929688 C12.661827087402344 12.176466941833496 12.575034141540527 12.495277404785156 12.367881774902344 12.540982246398926 L12.367881774902344 12.540982246398926 C12.356136322021484 12.464827537536621 12.344390869140625 12.388672828674316 12.332645416259766 12.312518119812012 L12.332645416259766 12.312518119812012 C12.367154121398926 12.304027557373047 12.401662826538086 12.295536041259766 12.436171531677246 12.2870454788208 L12.436171531677246 12.2870454788208 C12.435975074768066 12.00834846496582 12.416595458984375 11.725788116455078 12.348326683044434 11.455581665039062 L12.348326683044434 11.455581665039062 C12.57702922821045 11.457121849060059 12.782347679138184 11.682209014892578 12.880335807800293 11.888862609863281 L12.880335807800293 11.888862609863281 C12.852664947509766 11.749829292297363 12.829890251159668 11.609611511230469 12.814908027648926 11.468645095825195 L12.814908027648926 11.468645095825195 C12.82486343383789 11.461727142333984 12.834817886352539 11.454809188842773 12.844773292541504 11.447891235351562 L12.844773292541504 11.447891235351562"></path></svg>