<svg xmlns="http://www.w3.org/2000/svg" viewBox="0.0 0.0 24.0 24.0" height="200px" width="200px"><path fill="none" stroke="black" stroke-width=".3" stroke-opacity="1.0"  filling="0" d="M12.172746658325195 11.736381530761719 L12.172746658325195 11.736381530761719 C12.24992847442627 11.736391067504883 12.327109336853027 11.73639965057373 12.404291152954102 11.736409187316895 L12.404291152954102 11.736409187316895 C12.353991508483887 11.78211784362793 12.303690910339355 11.827826499938965 12.25339126586914 11.87353515625 L12.25339126586914 11.87353515625 C12.294554710388184 12.003789901733398 12.335719108581543 12.134044647216797 12.376882553100586 12.264299392700195 L12.376882553100586 12.264299392700195 C12.29006576538086 12.247420310974121 12.172408103942871 12.175040245056152 12.179591178894043 12.08689022064209 L12.179591178894043 12.08689022064209 C12.216827392578125 12.118953704833984 12.254064559936523 12.151017189025879 12.291300773620605 12.183080673217773 L12.291300773620605 12.183080673217773 C12.295355796813965 12.116544723510742 12.299409866333008 12.050008773803711 12.303464889526367 11.98347282409668 L12.303464889526367 11.98347282409668 C12.259892463684082 12.001053810119629 12.21631908416748 12.018635749816895 12.172746658325195 12.036216735839844 L12.172746658325195 12.036216735839844 C12.172746658325195 11.936271667480469 12.172746658325195 11.836326599121094 12.172746658325195 11.736381530761719 L12.172746658325195 11.736381530761719"></path></svg>