<svg xmlns="http://www.w3.org/2000/svg" viewBox="0.0 0.0 24.0 24.0" height="200px" width="200px"><path fill="none" stroke="black" stroke-width=".3" stroke-opacity="1.0"  filling="0" d="M10.854544639587402 11.590883255004883 L10.854544639587402 11.590883255004883 C10.881817817687988 11.59089183807373 10.909090995788574 11.590901374816895 10.93636417388916 11.590909957885742 L10.93636417388916 11.590909957885742 C10.950855255126953 11.644591331481934 10.96534538269043 11.698272705078125 10.979836463928223 11.751954078674316 L10.979836463928223 11.751954078674316 C10.996235847473145 11.743062973022461 11.012636184692383 11.734172821044922 11.029035568237305 11.725281715393066 L11.029035568237305 11.725281715393066 C11.107535362243652 11.885274887084961 11.176494598388672 11.972452163696289 11.115899085998535 12.157392501831055 L11.115899085998535 12.157392501831055 C11.032452583312988 12.08294677734375 11.011817932128906 11.952775001525879 11.003644943237305 11.841245651245117 L11.003644943237305 11.841245651245117 C10.987053871154785 11.945345878601074 10.970462799072266 12.049446105957031 10.953871726989746 12.153546333312988 L10.953871726989746 12.153546333312988 C10.92076301574707 12.157245635986328 10.887653350830078 12.160945892333984 10.854544639587402 12.164645195007324 L10.854544639587402 12.164645195007324 C10.854544639587402 11.97339153289795 10.854544639587402 11.782136917114258 10.854544639587402 11.590883255004883 L10.854544639587402 11.590883255004883"></path></svg>