<svg xmlns="http://www.w3.org/2000/svg" viewBox="0.0 0.0 24.0 24.0" height="200px" width="200px"><path fill="none" stroke="black" stroke-width=".3" stroke-opacity="1.0"  filling="0" d="M12.665372848510742 11.873618125915527 L12.665372848510742 11.873618125915527 C12.72581958770752 11.891032218933105 12.792510986328125 11.900141716003418 12.842782020568848 11.937954902648926 L12.842782020568848 11.937954902648926 C12.842782020568848 11.989754676818848 12.842782020568848 12.04155445098877 12.842782020568848 12.093354225158691 L12.842782020568848 12.093354225158691 C12.784281730651855 12.10798168182373 12.72578239440918 12.12260913848877 12.667282104492188 12.137236595153809 L12.667282104492188 12.137236595153809 C12.667227745056152 12.147191047668457 12.6671724319458 12.157145500183105 12.667118072509766 12.167099952697754 L12.667118072509766 12.167099952697754 C12.731990814208984 12.169954299926758 12.796863555908203 12.172809600830078 12.861736297607422 12.175663948059082 L12.861736297607422 12.175663948059082 C12.80593490600586 12.246103286743164 12.688456535339355 12.256115913391113 12.600000381469727 12.240272521972656 L12.600000381469727 12.240272521972656 C12.5994873046875 12.116127967834473 12.610779762268066 11.985116004943848 12.665372848510742 11.873618125915527 L12.665372848510742 11.873618125915527"></path></svg>