<svg xmlns="http://www.w3.org/2000/svg" viewBox="0.0 0.0 24.0 24.0" height="200px" width="200px"><path fill="none" stroke="black" stroke-width=".3" stroke-opacity="1.0"  filling="0" d="M11.463708877563477 11.754817962646484 L11.463708877563477 11.754817962646484 C11.62069320678711 11.756026268005371 12.325254440307617 12.072246551513672 11.792017936706543 12.150407791137695 L11.792017936706543 12.150407791137695 C11.798372268676758 12.055971145629883 11.804727554321289 11.961535453796387 11.811081886291504 11.867098808288574 L11.811081886291504 11.867098808288574 C11.756074905395508 11.951300621032715 11.728832244873047 12.056519508361816 11.727736473083496 12.157090187072754 L11.727736473083496 12.157090187072754 C11.6917085647583 12.157090187072754 11.655681610107422 12.157090187072754 11.619653701782227 12.157090187072754 L11.619653701782227 12.157090187072754 C11.619653701782227 12.052335739135742 11.619653701782227 11.947580337524414 11.619653701782227 11.842825889587402 L11.619653701782227 11.842825889587402 C11.604290008544922 11.842416763305664 11.588927268981934 11.842008590698242 11.573563575744629 11.841599464416504 L11.573563575744629 11.841599464416504 C11.573563575744629 11.944071769714355 11.573563575744629 12.046545028686523 11.573563575744629 12.149017333984375 L11.573563575744629 12.149017333984375 C11.536945343017578 12.154535293579102 11.500327110290527 12.160054206848145 11.463708877563477 12.165572166442871 L11.463708877563477 12.165572166442871 C11.463708877563477 12.028654098510742 11.463708877563477 11.891736030578613 11.463708877563477 11.754817962646484 L11.463708877563477 11.754817962646484"></path></svg>