<svg xmlns="http://www.w3.org/2000/svg" viewBox="0.0 0.0 24.0 24.0" height="200px" width="200px"><path fill="none" stroke="black" stroke-width=".3" stroke-opacity="1.0"  filling="0" d="M11.359254837036133 11.869173049926758 L11.359254837036133 11.869173049926758 C11.477934837341309 11.962004661560059 11.507890701293945 12.145100593566895 11.508708953857422 12.295772552490234 L11.508708953857422 12.295772552490234 C11.442272186279297 12.295772552490234 11.375836372375488 12.295772552490234 11.309399604797363 12.295772552490234 L11.309399604797363 12.295772552490234 C11.289499282836914 12.267499923706055 11.269599914550781 12.239227294921875 11.249699592590332 12.210954666137695 L11.249699592590332 12.210954666137695 C11.256035804748535 12.175054550170898 11.262372970581055 12.139155387878418 11.268709182739258 12.103255271911621 L11.268709182739258 12.103255271911621 C11.31418228149414 12.07022762298584 11.359654426574707 12.037200927734375 11.40512752532959 12.004173278808594 L11.40512752532959 12.004173278808594 C11.398209571838379 11.994245529174805 11.391290664672852 11.984318733215332 11.38437271118164 11.974390983581543 L11.38437271118164 11.974390983581543 C11.352118492126465 11.991082191467285 11.319863319396973 12.007772445678711 11.287609100341797 12.024463653564453 L11.287609100341797 12.024463653564453 C11.311491012573242 11.972700119018555 11.335372924804688 11.920936584472656 11.359254837036133 11.869173049926758 L11.359254837036133 11.869173049926758"></path></svg>