<svg xmlns="http://www.w3.org/2000/svg" viewBox="0.0 0.0 24.0 24.0" height="200px" width="200px"><path fill="none" stroke="black" stroke-width=".3" stroke-opacity="1.0"  filling="0" d="M15.651299476623535 11.672999382019043 L15.651299476623535 11.672999382019043 C15.931529998779297 11.775471687316895 15.837896347045898 11.96192741394043 15.87809944152832 12.239672660827637 L15.87809944152832 12.239672660827637 C15.844780921936035 12.239672660827637 15.811463356018066 12.239672660827637 15.778144836425781 12.239672660827637 L15.778144836425781 12.239672660827637 C15.73870849609375 12.158308982849121 15.699272155761719 12.076945304870605 15.659835815429688 11.99558162689209 L15.659835815429688 11.99558162689209 C15.659835815429688 12.075727462768555 15.659835815429688 12.155872344970703 15.659835815429688 12.236018180847168 L15.659835815429688 12.236018180847168 C15.621871948242188 12.236018180847168 15.583908081054688 12.236018180847168 15.545944213867188 12.236018180847168 L15.545944213867188 12.236018180847168 C15.546442985534668 12.045088768005371 15.515600204467773 11.807312965393066 15.651299476623535 11.672999382019043 L15.651299476623535 11.672999382019043"></path>
<path fill="none" stroke="black" stroke-width=".3" stroke-opacity="1.0"  filling="0" d="M15.72357177734375 11.766572952270508 L15.72357177734375 11.766572952270508 C15.704109191894531 11.816227912902832 15.684645652770996 11.86588191986084 15.665183067321777 11.915536880493164 L15.665183067321777 11.915536880493164 C15.684645652770996 11.86588191986084 15.704109191894531 11.816227912902832 15.72357177734375 11.766572952270508 L15.72357177734375 11.766572952270508"></path></svg>