<svg xmlns="http://www.w3.org/2000/svg" viewBox="0.0 0.0 24.0 24.0" height="200px" width="200px"><path fill="none" stroke="black" stroke-width=".3" stroke-opacity="1.0"  filling="0" d="M9.289881706237793 11.7560453414917 L9.289881706237793 11.7560453414917 C9.373363494873047 11.848099708557129 9.4568452835083 11.940154075622559 9.540327072143555 12.032208442687988 L9.540327072143555 12.032208442687988 C9.404163360595703 12.032208442687988 9.267999649047852 12.032208442687988 9.1318359375 12.032208442687988 L9.1318359375 12.032208442687988 C9.253557205200195 12.067381858825684 9.381963729858398 12.082453727722168 9.50866413116455 12.082008361816406 L9.50866413116455 12.082008361816406 C9.514037132263184 12.09113597869873 9.5194091796875 12.100262641906738 9.524782180786133 12.109390258789062 L9.524782180786133 12.109390258789062 C9.068961143493652 12.466495513916016 8.586331367492676 11.837732315063477 9.289881706237793 11.7560453414917 L9.289881706237793 11.7560453414917"></path>
<path fill="none" stroke="black" stroke-width=".3" stroke-opacity="1.0"  filling="0" d="M9.31175422668457 11.881553649902344 L9.31175422668457 11.881553649902344 C9.255645751953125 11.899453163146973 9.199536323547363 11.917353630065918 9.143427848815918 11.935253143310547 L9.143427848815918 11.935253143310547 C9.142264366149902 11.921353340148926 9.14109992980957 11.907454490661621 9.139936447143555 11.8935546875 L9.139936447143555 11.8935546875 C9.197209358215332 11.889554023742676 9.254481315612793 11.885554313659668 9.31175422668457 11.881553649902344 L9.31175422668457 11.881553649902344"></path></svg>