<svg xmlns="http://www.w3.org/2000/svg" viewBox="0.0 0.0 24.0 24.0" height="200px" width="200px"><path fill="none" stroke="black" stroke-width=".3" stroke-opacity="1.0"  filling="0" d="M11.697054862976074 11.811654090881348 L11.697054862976074 11.811654090881348 C11.708090782165527 11.84344482421875 11.71912670135498 11.875236511230469 11.730162620544434 11.907027244567871 L11.730162620544434 11.907027244567871 C11.722326278686523 11.911245346069336 11.714489936828613 11.9154634475708 11.706653594970703 11.919681549072266 L11.706653594970703 11.919681549072266 C11.674762725830078 11.900517463684082 11.64287281036377 11.881354331970215 11.610981941223145 11.862190246582031 L11.610981941223145 11.862190246582031 C11.60373592376709 11.868171691894531 11.596490859985352 11.874154090881348 11.589244842529297 11.880135536193848 L11.589244842529297 11.880135536193848 C11.652997016906738 11.968039512634277 11.68260383605957 12.076913833618164 11.715899467468262 12.180272102355957 L11.715899467468262 12.180272102355957 C11.645341873168945 12.171896934509277 11.520813941955566 12.119901657104492 11.544872283935547 12.053045272827148 L11.544872283935547 12.053045272827148 C11.56969928741455 12.080972671508789 11.594527244567871 12.108899116516113 11.619354248046875 12.136826515197754 L11.619354248046875 12.136826515197754 C11.628436088562012 12.132490158081055 11.637517929077148 12.128154754638672 11.646599769592285 12.123818397521973 L11.646599769592285 12.123818397521973 C11.600913047790527 12.024986267089844 11.558249473571777 11.924778938293457 11.515254974365234 11.824746131896973 L11.515254974365234 11.824746131896973 C11.575855255126953 11.820382118225098 11.636454582214355 11.816018104553223 11.697054862976074 11.811654090881348 L11.697054862976074 11.811654090881348"></path></svg>