<svg xmlns="http://www.w3.org/2000/svg" viewBox="0.0 0.0 24.0 24.0" height="200px" width="200px"><path fill="none" stroke="black" stroke-width=".3" stroke-opacity="1.0"  filling="0" d="M15.298501014709473 11.918510437011719 L15.298501014709473 11.918510437011719 C15.37171459197998 11.918827056884766 15.467653274536133 11.945793151855469 15.496800422668457 12.012955665588379 L15.496800422668457 12.012955665588379 C15.486655235290527 12.016682624816895 15.476509094238281 12.02040958404541 15.466363906860352 12.024136543273926 L15.466363906860352 12.024136543273926 C15.434045791625977 12.007500648498535 15.401727676391602 11.990863800048828 15.369409561157227 11.974227905273438 L15.369409561157227 11.974227905273438 C15.362427711486816 11.983291625976562 15.35544490814209 11.992355346679688 15.34846305847168 12.001419067382812 L15.34846305847168 12.001419067382812 C15.691161155700684 12.297980308532715 15.223496437072754 12.401192665100098 15.278346061706543 12.147820472717285 L15.278346061706543 12.147820472717285 C15.321091651916504 12.179665565490723 15.363836288452148 12.211511611938477 15.40658187866211 12.243356704711914 L15.40658187866211 12.243356704711914 C15.37055492401123 12.135074615478516 15.334527969360352 12.026792526245117 15.298501014709473 11.918510437011719 L15.298501014709473 11.918510437011719"></path></svg>