<svg xmlns="http://www.w3.org/2000/svg" viewBox="0.0 0.0 24.0 24.0" height="200px" width="200px"><path fill="none" stroke="black" stroke-width=".3" stroke-opacity="1.0"  filling="0" d="M12.177626609802246 11.840672492980957 L12.177626609802246 11.840672492980957 C12.229607582092285 11.869963645935059 12.303398132324219 11.92155647277832 12.290290832519531 11.979763984680176 L12.290290832519531 11.979763984680176 C12.254127502441406 11.95898151397705 12.217963218688965 11.938199996948242 12.18179988861084 11.917417526245117 L12.18179988861084 11.917417526245117 C12.174200057983398 11.924363136291504 12.16659927368164 11.93130874633789 12.1589994430542 11.938254356384277 L12.1589994430542 11.938254356384277 C12.233927726745605 12.025607109069824 12.24571704864502 12.154106140136719 12.260589599609375 12.268226623535156 L12.260589599609375 12.268226623535156 C12.20918083190918 12.268226623535156 12.157772064208984 12.268226623535156 12.106363296508789 12.268226623535156 L12.106363296508789 12.268226623535156 C12.107245445251465 12.214527130126953 12.108126640319824 12.160826683044434 12.1090087890625 12.10712718963623 L12.1090087890625 12.10712718963623 C12.143527030944824 12.13379955291748 12.178045272827148 12.16047191619873 12.212563514709473 12.18714427947998 L12.212563514709473 12.18714427947998 C12.110702514648438 12.029306411743164 12.019357681274414 11.972457885742188 12.177626609802246 11.840672492980957 L12.177626609802246 11.840672492980957"></path></svg>