<svg xmlns="http://www.w3.org/2000/svg" viewBox="0.0 0.0 24.0 24.0" height="200px" width="200px"><path fill="none" stroke="black" stroke-width=".3" stroke-opacity="1.0"  filling="0" d="M11.197091102600098 11.697708129882812 L11.197091102600098 11.697708129882812 C11.222427368164062 11.755799293518066 11.247763633728027 11.81389045715332 11.273099899291992 11.871981620788574 L11.273099899291992 11.871981620788574 C11.348790168762207 11.818290710449219 11.424481391906738 11.764599800109863 11.500171661376953 11.710908889770508 L11.500171661376953 11.710908889770508 C11.457189559936523 11.795145034790039 11.41420841217041 11.879382133483887 11.37122631072998 11.963618278503418 L11.37122631072998 11.963618278503418 C11.418435096740723 12.05882740020752 11.465644836425781 12.154035568237305 11.512853622436523 12.249244689941406 L11.512853622436523 12.249244689941406 C11.434554100036621 12.179226875305176 11.356253623962402 12.109208106994629 11.2779541015625 12.039190292358398 L11.2779541015625 12.039190292358398 C11.2779541015625 12.113626480102539 11.2779541015625 12.188063621520996 11.2779541015625 12.262499809265137 L11.2779541015625 12.262499809265137 C11.119678497314453 12.157054901123047 11.180937767028809 11.88720417022705 11.197091102600098 11.697708129882812 L11.197091102600098 11.697708129882812"></path></svg>