<svg xmlns="http://www.w3.org/2000/svg" viewBox="0.0 0.0 24.0 24.0" height="200px" width="200px"><path fill="none" stroke="black" stroke-width=".3" stroke-opacity="1.0"  filling="0" d="M12.161316871643066 11.871380805969238 L12.161316871643066 11.871380805969238 C12.219110488891602 11.887503623962402 12.296205520629883 11.917975425720215 12.307088851928711 11.976981163024902 L12.307088851928711 11.976981163024902 C12.260916709899902 11.977409362792969 12.213567733764648 11.960273742675781 12.175226211547852 11.934544563293457 L12.175226211547852 11.934544563293457 C12.311868667602539 12.127462387084961 12.334084510803223 12.438081741333008 12.04379940032959 12.196063995361328 L12.04379940032959 12.196063995361328 C12.06192684173584 12.171518325805664 12.080053329467773 12.14697265625 12.098180770874023 12.122426986694336 L12.098180770874023 12.122426986694336 C12.132935523986816 12.151018142700195 12.167689323425293 12.179608345031738 12.202444076538086 12.208199501037598 L12.202444076538086 12.208199501037598 C12.209526062011719 12.203309059143066 12.216608047485352 12.198417663574219 12.223690032958984 12.193527221679688 L12.223690032958984 12.193527221679688 C12.1178560256958 12.055685043334961 12.052817344665527 12.026814460754395 12.161316871643066 11.871380805969238 L12.161316871643066 11.871380805969238"></path></svg>