<svg xmlns="http://www.w3.org/2000/svg" viewBox="0.0 0.0 24.0 24.0" height="200px" width="200px"><path fill="none" stroke="black" stroke-width=".3" stroke-opacity="1.0"  filling="0" d="M13.404708862304688 11.70755386352539 L13.404708862304688 11.70755386352539 C13.494209289550781 11.725972175598145 13.583708763122559 11.744390487670898 13.673209190368652 11.762808799743652 L13.673209190368652 11.762808799743652 C13.61799144744873 11.809163093566895 13.562772750854492 11.855518341064453 13.50755500793457 11.901872634887695 L13.50755500793457 11.901872634887695 C13.557682037353516 11.92496395111084 13.607809066772461 11.948054313659668 13.657936096191406 11.971145629882812 L13.657936096191406 11.971145629882812 C13.608868598937988 11.989496231079102 13.556539535522461 12.000751495361328 13.504255294799805 12.004035949707031 L13.504255294799805 12.004035949707031 C13.504255294799805 12.078826904296875 13.504255294799805 12.153617858886719 13.504255294799805 12.228408813476562 L13.504255294799805 12.228408813476562 C13.472864151000977 12.244308471679688 13.441473007202148 12.260209083557129 13.41008186340332 12.276108741760254 L13.41008186340332 12.276108741760254 C13.33709716796875 12.101198196411133 13.389382362365723 11.896459579467773 13.404708862304688 11.70755386352539 L13.404708862304688 11.70755386352539"></path></svg>