<svg xmlns="http://www.w3.org/2000/svg" viewBox="0.0 0.0 24.0 24.0" height="200px" width="200px"><path fill="none" stroke="black" stroke-width=".3" stroke-opacity="1.0"  filling="0" d="M13.388126373291016 11.737826347351074 L13.388126373291016 11.737826347351074 C13.46761703491211 11.737826347351074 13.547107696533203 11.737826347351074 13.626598358154297 11.737826347351074 L13.626598358154297 11.737826347351074 C13.579371452331543 11.80126953125 13.528196334838867 11.86172866821289 13.476600646972656 11.921672821044922 L13.476600646972656 11.921672821044922 C13.521727561950684 11.94311809539795 13.566855430603027 11.964563369750977 13.611982345581055 11.986008644104004 L13.611982345581055 11.986008644104004 C13.609954833984375 11.995818138122559 13.607927322387695 12.005626678466797 13.605899810791016 12.015436172485352 L13.605899810791016 12.015436172485352 C13.565400123596191 12.022209167480469 13.524900436401367 12.02898120880127 13.484400749206543 12.035754203796387 L13.484400749206543 12.035754203796387 C13.462554931640625 12.113299369812012 13.440709114074707 12.190845489501953 13.418863296508789 12.268390655517578 L13.418863296508789 12.268390655517578 C13.408617973327637 12.091535568237305 13.398371696472168 11.914681434631348 13.388126373291016 11.737826347351074 L13.388126373291016 11.737826347351074"></path></svg>