<svg xmlns="http://www.w3.org/2000/svg" viewBox="0.0 0.0 24.0 24.0" height="200px" width="200px"><path fill="none" stroke="black" stroke-width=".3" stroke-opacity="1.0"  filling="0" d="M11.65227222442627 11.651317596435547 L11.65227222442627 11.651317596435547 C11.682872772216797 11.651317596435547 11.713472366333008 11.651317596435547 11.744072914123535 11.651317596435547 L11.744072914123535 11.651317596435547 C11.75128173828125 11.695890426635742 11.758491516113281 11.740463256835938 11.765700340270996 11.785036087036133 L11.765700340270996 11.785036087036133 C11.994243621826172 11.991205215454102 11.9898099899292 12.218327522277832 11.65227222442627 12.218072891235352 L11.65227222442627 12.218072891235352 C11.65227222442627 12.029154777526855 11.65227222442627 11.840235710144043 11.65227222442627 11.651317596435547 L11.65227222442627 11.651317596435547"></path>
<path fill="none" stroke="black" stroke-width=".3" stroke-opacity="1.0"  filling="0" d="M11.760790824890137 11.892654418945312 L11.760790824890137 11.892654418945312 C11.831268310546875 11.912556648254395 11.80439281463623 12.038654327392578 11.789836883544922 12.110426902770996 L11.789836883544922 12.110426902770996 C11.780163764953613 12.10779094696045 11.770491600036621 12.105154037475586 11.760818481445312 12.102518081665039 L11.760818481445312 12.102518081665039 C11.760808944702148 12.032563209533691 11.7608003616333 11.96260929107666 11.760790824890137 11.892654418945312 L11.760790824890137 11.892654418945312"></path></svg>