<svg xmlns="http://www.w3.org/2000/svg" viewBox="0.0 0.0 24.0 24.0" height="200px" width="200px"><path fill="none" stroke="black" stroke-width=".3" stroke-opacity="1.0"  filling="0" d="M11.284281730651855 11.706300735473633 L11.284281730651855 11.706300735473633 C11.28828239440918 11.754537582397461 11.292282104492188 11.802773475646973 11.296282768249512 11.8510103225708 L11.296282768249512 11.8510103225708 C11.369355201721191 11.804282188415527 11.442427635192871 11.75755500793457 11.51550006866455 11.710826873779297 L11.51550006866455 11.710826873779297 C11.470499992370605 11.786090850830078 11.42549991607666 11.86135482788086 11.380499839782715 11.93661880493164 L11.380499839782715 11.93661880493164 C11.40822696685791 12.047845840454102 11.435955047607422 12.159072875976562 11.463682174682617 12.270299911499023 L11.463682174682617 12.270299911499023 C11.408431053161621 12.19332504272461 11.358492851257324 12.112363815307617 11.313272476196289 12.029099464416504 L11.313272476196289 12.029099464416504 C11.280527114868164 12.115527153015137 11.247781753540039 12.201953887939453 11.215036392211914 12.288381576538086 L11.215036392211914 12.288381576538086 C11.1526517868042 12.070306777954102 11.104854583740234 11.866128921508789 11.284281730651855 11.706300735473633 L11.284281730651855 11.706300735473633"></path></svg>