<svg xmlns="http://www.w3.org/2000/svg" viewBox="0.0 0.0 24.0 24.0" height="200px" width="200px"><path fill="none" stroke="black" stroke-width=".3" stroke-opacity="1.0"  filling="0" d="M12.110208511352539 11.876590728759766 L12.110208511352539 11.876590728759766 C12.181490898132324 11.887018203735352 12.252772331237793 11.897445678710938 12.324054718017578 11.907873153686523 L12.324054718017578 11.907873153686523 C12.275663375854492 11.91958236694336 12.227272987365723 11.931290626525879 12.178881645202637 11.942999839782715 L12.178881645202637 11.942999839782715 C12.254559516906738 12.010527610778809 12.322723388671875 12.094887733459473 12.355226516723633 12.190963745117188 L12.355226516723633 12.190963745117188 C12.353972434997559 12.189554214477539 12.352717399597168 12.188145637512207 12.351463317871094 12.186736106872559 L12.351463317871094 12.186736106872559 C12.263768196105957 12.208290100097656 12.11965560913086 12.189142227172852 12.093954086303711 12.102571487426758 L12.093954086303711 12.102571487426758 C12.135462760925293 12.123807907104492 12.176972389221191 12.145045280456543 12.218481063842773 12.166281700134277 L12.218481063842773 12.166281700134277 C12.224654197692871 12.15919017791748 12.230826377868652 12.152099609375 12.23699951171875 12.145008087158203 L12.23699951171875 12.145008087158203 C12.168662071228027 12.073443412780762 12.136420249938965 11.972007751464844 12.110208511352539 11.876590728759766 L12.110208511352539 11.876590728759766"></path></svg>