<svg xmlns="http://www.w3.org/2000/svg" viewBox="0.0 0.0 24.0 24.0" height="200px" width="200px"><path fill="none" stroke="black" stroke-width=".3" stroke-opacity="1.0"  filling="0" d="M12.263589859008789 11.851417541503906 L12.263589859008789 11.851417541503906 C12.27774429321289 11.887735366821289 12.291899681091309 11.924054145812988 12.30605411529541 11.960371971130371 L12.30605411529541 11.960371971130371 C12.2948637008667 11.964399337768555 12.283672332763672 11.968426704406738 12.272481918334961 11.972454071044922 L12.272481918334961 11.972454071044922 C12.239727020263672 11.950553894042969 12.2069730758667 11.928654670715332 12.17421817779541 11.906754493713379 L12.17421817779541 11.906754493713379 C12.175607681274414 11.985549926757812 12.264307022094727 12.038662910461426 12.325199127197266 12.088690757751465 L12.325199127197266 12.088690757751465 C12.268388748168945 12.16140365600586 12.107851028442383 12.169851303100586 12.048572540283203 12.099136352539062 L12.048572540283203 12.099136352539062 C12.110280990600586 12.123281478881836 12.171990394592285 12.14742660522461 12.233698844909668 12.171571731567383 L12.233698844909668 12.171571731567383 C12.16850471496582 12.07638931274414 12.129657745361328 11.964932441711426 12.09119987487793 11.856163024902344 L12.09119987487793 11.856163024902344 C12.148663520812988 11.854580879211426 12.20612621307373 11.852999687194824 12.263589859008789 11.851417541503906 L12.263589859008789 11.851417541503906"></path></svg>