<svg xmlns="http://www.w3.org/2000/svg" viewBox="0.0 0.0 24.0 24.0" height="200px" width="200px"><path fill="none" stroke="black" stroke-width=".3" stroke-opacity="1.0"  filling="0" d="M11.768999099731445 11.675045013427734 L11.768999099731445 11.675045013427734 C11.85879898071289 11.691872596740723 11.948599815368652 11.708699226379395 12.038399696350098 11.725526809692383 L12.038399696350098 11.725526809692383 C11.98215389251709 11.74010944366455 11.925908088684082 11.754691123962402 11.869662284851074 11.76927375793457 L11.869662284851074 11.76927375793457 C11.869662284851074 11.803110122680664 11.869662284851074 11.836945533752441 11.869662284851074 11.870781898498535 L11.869662284851074 11.870781898498535 C11.914116859436035 11.890891075134277 11.958572387695312 11.910999298095703 12.003026962280273 11.931108474731445 L12.003026962280273 11.931108474731445 C12.00110912322998 11.941054344177246 11.999190330505371 11.95099925994873 11.997272491455078 11.960945129394531 L11.997272491455078 11.960945129394531 C11.952635765075684 11.968308448791504 11.907999992370605 11.975672721862793 11.863363265991211 11.983036041259766 L11.863363265991211 11.983036041259766 C11.863436698913574 12.448479652404785 11.735819816589355 12.08835220336914 11.768999099731445 11.675045013427734 L11.768999099731445 11.675045013427734"></path></svg>