<svg xmlns="http://www.w3.org/2000/svg" viewBox="0.0 0.0 24.0 24.0" height="200px" width="200px"><path fill="none" stroke="black" stroke-width=".3" stroke-opacity="1.0"  filling="0" d="M11.788389205932617 11.678780555725098 L11.788389205932617 11.678780555725098 C11.875061988830566 11.678790092468262 11.961735725402832 11.67879867553711 12.048408508300781 11.678808212280273 L12.048408508300781 11.678808212280273 C11.996454238891602 11.718462944030762 11.944499015808105 11.75811767578125 11.892544746398926 11.797772407531738 L11.892544746398926 11.797772407531738 C12.030412673950195 12.048501968383789 12.084967613220215 12.451456069946289 11.76512622833252 12.067390441894531 L11.76512622833252 12.067390441894531 C11.822344779968262 12.090472221374512 11.879562377929688 12.113554000854492 11.93678092956543 12.136635780334473 L11.93678092956543 12.136635780334473 C11.93678092956543 12.075136184692383 11.93678092956543 12.013635635375977 11.93678092956543 11.952136039733887 L11.93678092956543 11.952136039733887 C11.887316703796387 11.97183609008789 11.83785343170166 11.991535186767578 11.788389205932617 12.011235237121582 L11.788389205932617 12.011235237121582 C11.788389205932617 11.90041732788086 11.788389205932617 11.78959846496582 11.788389205932617 11.678780555725098 L11.788389205932617 11.678780555725098"></path></svg>