<svg xmlns="http://www.w3.org/2000/svg" viewBox="0.0 0.0 24.0 24.0" height="200px" width="200px"><path fill="none" stroke="black" stroke-width=".3" stroke-opacity="1.0"  filling="0" d="M11.410990715026855 11.67671012878418 L11.410990715026855 11.67671012878418 C11.515735626220703 11.685355186462402 11.620481491088867 11.694000244140625 11.725226402282715 11.702645301818848 L11.725226402282715 11.702645301818848 C11.66352653503418 11.884699821472168 11.601826667785645 12.066755294799805 11.54012680053711 12.248809814453125 L11.54012680053711 12.248809814453125 C11.499772071838379 12.237964630126953 11.459418296813965 12.227118492126465 11.419063568115234 12.216273307800293 L11.419063568115234 12.216273307800293 C11.471918106079102 12.072836875915527 11.524772644042969 11.929400444030762 11.577627182006836 11.785964012145996 L11.577627182006836 11.785964012145996 C11.565617561340332 11.775873184204102 11.553608894348145 11.765782356262207 11.54159927368164 11.755691528320312 L11.54159927368164 11.755691528320312 C11.508027076721191 11.795546531677246 11.474453926086426 11.835400581359863 11.440881729125977 11.875255584716797 L11.440881729125977 11.875255584716797 C11.430917739868164 11.87019157409668 11.420954704284668 11.865128517150879 11.410990715026855 11.860064506530762 L11.410990715026855 11.860064506530762 C11.410990715026855 11.798946380615234 11.410990715026855 11.737828254699707 11.410990715026855 11.67671012878418 L11.410990715026855 11.67671012878418"></path></svg>