<svg xmlns="http://www.w3.org/2000/svg" viewBox="0.0 0.0 24.0 24.0" height="200px" width="200px"><path fill="none" stroke="black" stroke-width=".3" stroke-opacity="1.0"  filling="0" d="M10.496672630310059 11.94981861114502 L10.496672630310059 11.94981861114502 C10.558018684387207 11.94981861114502 10.619363784790039 11.94981861114502 10.680709838867188 11.94981861114502 L10.680709838867188 11.94981861114502 C10.680709838867188 12.03682804107666 10.680709838867188 12.123836517333984 10.680709838867188 12.210845947265625 L10.680709838867188 12.210845947265625 C10.669291496276855 12.21267318725586 10.657872200012207 12.214500427246094 10.646453857421875 12.216327667236328 L10.646453857421875 12.216327667236328 C10.634881019592285 12.140763282775879 10.623309135437012 12.065199851989746 10.611736297607422 11.989635467529297 L10.611736297607422 11.989635467529297 C10.6029634475708 11.98902702331543 10.594191551208496 11.988417625427246 10.585418701171875 11.987809181213379 L10.585418701171875 11.987809181213379 C10.570018768310547 12.063390731811523 10.554618835449219 12.138973236083984 10.53921890258789 12.214554786682129 L10.53921890258789 12.214554786682129 C10.5293550491333 12.214518547058105 10.519491195678711 12.214481353759766 10.509627342224121 12.214445114135742 L10.509627342224121 12.214445114135742 C10.505309104919434 12.126235961914062 10.500990867614746 12.0380277633667 10.496672630310059 11.94981861114502 L10.496672630310059 11.94981861114502"></path></svg>