<svg xmlns="http://www.w3.org/2000/svg" viewBox="0.0 0.0 24.0 24.0" height="200px" width="200px"><path fill="none" stroke="black" stroke-width=".3" stroke-opacity="1.0"  filling="0" d="M12.75711727142334 11.781818389892578 L12.75711727142334 11.781818389892578 C12.795654296875 11.781818389892578 12.834190368652344 11.781818389892578 12.872727394104004 11.781818389892578 L12.872727394104004 11.781818389892578 C12.872727394104004 11.82727336883545 12.872727394104004 11.872727394104004 12.872727394104004 11.918182373046875 L12.872727394104004 11.918182373046875 C12.835681915283203 11.896699905395508 12.798635482788086 11.875218391418457 12.761590003967285 11.85373592376709 L12.761590003967285 11.85373592376709 C12.779117584228516 11.943926811218262 12.796645164489746 12.034117698669434 12.814172744750977 12.124308586120605 L12.814172744750977 12.124308586120605 C12.819708824157715 12.070429801940918 12.840493202209473 12.016273498535156 12.872699737548828 11.972726821899414 L12.872699737548828 11.972726821899414 C12.872709274291992 12.045454025268555 12.87271785736084 12.118181228637695 12.872727394104004 12.190908432006836 L12.872727394104004 12.190908432006836 C12.83329963684082 12.197908401489258 12.793872833251953 12.204909324645996 12.75444507598877 12.211909294128418 L12.75444507598877 12.211909294128418 C12.755335807800293 12.0685453414917 12.756226539611816 11.925182342529297 12.75711727142334 11.781818389892578 L12.75711727142334 11.781818389892578"></path></svg>