<svg xmlns="http://www.w3.org/2000/svg" viewBox="0.0 0.0 24.0 24.0" height="200px" width="200px"><path fill="none" stroke="black" stroke-width=".3" stroke-opacity="1.0"  filling="0" d="M12.398263931274414 11.873126983642578 L12.398263931274414 11.873126983642578 C12.407482147216797 11.917963027954102 12.41670036315918 11.962800025939941 12.425918579101562 12.007636070251465 L12.425918579101562 12.007636070251465 C12.397246360778809 11.99070930480957 12.368573188781738 11.97378158569336 12.339900970458984 11.956854820251465 L12.339900970458984 11.956854820251465 C12.332255363464355 11.965481758117676 12.324609756469727 11.974109649658203 12.316964149475098 11.982736587524414 L12.316964149475098 11.982736587524414 C12.35402774810791 12.014236450195312 12.391090393066406 12.045736312866211 12.428153991699219 12.07723617553711 L12.428153991699219 12.07723617553711 C12.390576362609863 12.122833251953125 12.282376289367676 12.14430046081543 12.251672744750977 12.093817710876465 L12.251672744750977 12.093817710876465 C12.290009498596191 12.111927032470703 12.32834529876709 12.130036354064941 12.366682052612305 12.14814567565918 L12.366682052612305 12.14814567565918 C12.3246431350708 12.06600284576416 12.313907623291016 11.910528182983398 12.398263931274414 11.873126983642578 L12.398263931274414 11.873126983642578"></path></svg>