<svg xmlns="http://www.w3.org/2000/svg" viewBox="0.0 0.0 24.0 24.0" height="200px" width="200px"><path fill="none" stroke="black" stroke-width=".3" stroke-opacity="1.0"  filling="0" d="M11.769491195678711 11.907054901123047 L11.769491195678711 11.907054901123047 C11.896705627441406 12.005786895751953 11.863723754882812 12.05482292175293 11.863691329956055 12.213300704956055 L11.863691329956055 12.213300704956055 C11.81161880493164 12.213300704956055 11.759546279907227 12.213300704956055 11.707473754882812 12.213300704956055 L11.707473754882812 12.213300704956055 C11.705273628234863 12.17590045928955 11.703073501586914 12.138500213623047 11.700873374938965 12.101099967956543 L11.700873374938965 12.101099967956543 C11.737910270690918 12.077163696289062 11.774946212768555 12.053227424621582 11.811983108520508 12.029291152954102 L11.811983108520508 12.029291152954102 C11.808755874633789 12.021964073181152 11.805527687072754 12.014636039733887 11.802300453186035 12.007308959960938 L11.802300453186035 12.007308959960938 C11.763418197631836 12.013845443725586 11.724536895751953 12.020381927490234 11.685654640197754 12.026918411254883 L11.685654640197754 12.026918411254883 C11.713600158691406 11.986964225769043 11.741545677185059 11.947009086608887 11.769491195678711 11.907054901123047 L11.769491195678711 11.907054901123047"></path></svg>