<svg xmlns="http://www.w3.org/2000/svg" viewBox="0.0 0.0 24.0 24.0" height="200px" width="200px"><path fill="none" stroke="black" stroke-width=".3" stroke-opacity="1.0"  filling="0" d="M12.972846984863281 11.920690536499023 L12.972846984863281 11.920690536499023 C13.114198684692383 11.922128677368164 13.278939247131348 12.071402549743652 13.280320167541504 12.212754249572754 L13.280320167541504 12.212754249572754 C13.266129493713379 12.213644981384277 13.251937866210938 12.214536666870117 13.237747192382812 12.21542739868164 L13.237747192382812 12.21542739868164 C13.231419563293457 12.14554500579834 13.225092887878418 12.075663566589355 13.218765258789062 12.005781173706055 L13.218765258789062 12.005781173706055 C13.208492279052734 12.005036354064941 13.19821834564209 12.004290580749512 13.187945365905762 12.003545761108398 L13.187945365905762 12.003545761108398 C13.176518440246582 12.072463989257812 13.165090560913086 12.14138126373291 13.153663635253906 12.210299491882324 L13.153663635253906 12.210299491882324 C13.13988208770752 12.210872650146484 13.126100540161133 12.211444854736328 13.112318992614746 12.212018013000488 L13.112318992614746 12.212018013000488 C13.100537300109863 12.141836166381836 13.08875560760498 12.071654319763184 13.076973915100098 12.001472473144531 L13.076973915100098 12.001472473144531 C13.054838180541992 12.075090408325195 13.03270149230957 12.14870834350586 13.010565757751465 12.222326278686523 L13.010565757751465 12.222326278686523 C12.997992515563965 12.121781349182129 12.985420227050781 12.021235466003418 12.972846984863281 11.920690536499023 L12.972846984863281 11.920690536499023"></path></svg>