<svg xmlns="http://www.w3.org/2000/svg" viewBox="0.0 0.0 24.0 24.0" height="200px" width="200px"><path fill="none" stroke="black" stroke-width=".3" stroke-opacity="1.0"  filling="0" d="M11.653882026672363 11.904763221740723 L11.653882026672363 11.904763221740723 C11.753491401672363 11.904763221740723 11.853099822998047 11.904763221740723 11.952709197998047 11.904763221740723 L11.952709197998047 11.904763221740723 C11.987933158874512 12.003469467163086 11.967422485351562 12.118045806884766 11.938798904418945 12.218863487243652 L11.938798904418945 12.218863487243652 C11.916607856750488 12.128636360168457 11.894417762756348 12.038409233093262 11.87222671508789 11.948182106018066 L11.87222671508789 11.948182106018066 C11.864953994750977 12.03576374053955 11.857681274414062 12.123345375061035 11.850408554077148 12.21092700958252 L11.850408554077148 12.21092700958252 C11.832436561584473 12.209809303283691 11.81446361541748 12.208690643310547 11.796491622924805 12.207572937011719 L11.796491622924805 12.207572937011719 C11.78785514831543 12.126791000366211 11.779217720031738 12.046009063720703 11.770581245422363 11.965227127075195 L11.770581245422363 11.965227127075195 C11.731681823730469 12.050999641418457 11.692781448364258 12.136773109436035 11.653882026672363 12.222545623779297 L11.653882026672363 12.222545623779297 C11.653882026672363 12.116618156433105 11.653882026672363 12.010690689086914 11.653882026672363 11.904763221740723 L11.653882026672363 11.904763221740723"></path></svg>