<svg xmlns="http://www.w3.org/2000/svg" viewBox="0.0 0.0 24.0 24.0" height="200px" width="200px"><path fill="none" stroke="black" stroke-width=".3" stroke-opacity="1.0"  filling="0" d="M10.861226081848145 11.958053588867188 L10.861226081848145 11.958053588867188 C10.95561695098877 11.958053588867188 11.050007820129395 11.958053588867188 11.14439868927002 11.958053588867188 L11.14439868927002 11.958053588867188 C11.14145278930664 12.069781303405762 11.138507843017578 12.18150806427002 11.1355619430542 12.293235778808594 L11.1355619430542 12.293235778808594 C11.1303071975708 12.2012357711792 11.125053405761719 12.109235763549805 11.11979866027832 12.01723575592041 L11.11979866027832 12.01723575592041 C11.103189468383789 12.01469898223877 11.086581230163574 12.012163162231445 11.069972038269043 12.009626388549805 L11.069972038269043 12.009626388549805 C11.058954238891602 12.094281196594238 11.047935485839844 12.178936004638672 11.036917686462402 12.263590812683105 L11.036917686462402 12.263590812683105 C11.026599884033203 12.263582229614258 11.016281127929688 12.263572692871094 11.005963325500488 12.263564109802246 L11.005963325500488 12.263564109802246 C10.997509002685547 12.185163497924805 10.989053726196289 12.10676383972168 10.980599403381348 12.028363227844238 L10.980599403381348 12.028363227844238 C10.9459228515625 12.110620498657227 10.908731460571289 12.192512512207031 10.861226081848145 12.26809024810791 L10.861226081848145 12.26809024810791 C10.861226081848145 12.16474437713623 10.861226081848145 12.061399459838867 10.861226081848145 11.958053588867188 L10.861226081848145 11.958053588867188"></path></svg>