<svg xmlns="http://www.w3.org/2000/svg" viewBox="0.0 0.0 24.0 24.0" height="200px" width="200px"><path fill="none" stroke="black" stroke-width=".3" stroke-opacity="1.0"  filling="0" d="M12.41299057006836 9.193281173706055 L12.41299057006836 9.193281173706055 C13.49703598022461 9.25479793548584 14.590324401855469 9.160367012023926 15.668863296508789 9.223555564880371 L15.668863296508789 9.223555564880371 C15.658808708190918 9.58566951751709 15.642097473144531 9.947665214538574 15.618463516235352 10.309146881103516 L15.618463516235352 10.309146881103516 C13.461133003234863 10.309985160827637 15.037489891052246 13.174407005310059 14.563228607177734 14.720674514770508 C14.244180679321289 15.76089096069336 13.128454208374023 14.400740623474121 13.121646881103516 13.965055465698242 C13.111126899719238 13.291800498962402 13.138737678527832 12.709203720092773 13.096473693847656 12.053346633911133 C13.059063911437988 11.472816467285156 13.11640453338623 10.891006469726562 13.118127822875977 10.310836791992188 L13.118127822875977 10.310836791992188 C12.731003761291504 10.340460777282715 12.345157623291016 10.324618339538574 11.957727432250977 10.352917671203613 L11.957727432250977 10.352917671203613 C11.935818672180176 9.974681854248047 11.913908958435059 9.596445083618164 11.892000198364258 9.218209266662598 L11.892000198364258 9.218209266662598 C12.065861701965332 9.217621803283691 12.239583015441895 9.205845832824707 12.41299057006836 9.193281173706055 L12.41299057006836 9.193281173706055"></path></svg>