<svg xmlns="http://www.w3.org/2000/svg" viewBox="0.0 0.0 24.0 24.0" height="200px" width="200px"><path fill="none" stroke="black" stroke-width=".3" stroke-opacity="1.0"  filling="0" d="M18.317779541015625 10.582691192626953 L18.317779541015625 10.582691192626953 C18.987220764160156 10.601143836975098 19.566741943359375 10.306063652038574 19.648719787597656 11.036236763000488 L19.648719787597656 11.036236763000488 C19.325864791870117 11.036236763000488 19.003009796142578 11.036236763000488 18.68015480041504 11.036236763000488 L18.68015480041504 11.036236763000488 C18.689664840698242 11.219182014465332 18.699172973632812 11.402127265930176 18.708683013916016 11.58507251739502 L18.708683013916016 11.58507251739502 C18.96401023864746 11.585782051086426 19.219337463378906 11.586490631103516 19.47466468811035 11.587200164794922 L19.47466468811035 11.587200164794922 C19.48897361755371 11.736027717590332 19.503280639648438 11.884854316711426 19.517589569091797 12.033681869506836 L19.517589569091797 12.033681869506836 C19.245046615600586 12.033625602722168 18.866575241088867 11.844999313354492 18.70041847229004 12.061036109924316 C18.55263900756836 12.253178596496582 18.718698501586914 12.545495986938477 18.729900360107422 12.787635803222656 L18.729900360107422 12.787635803222656 C19.036909103393555 12.799662590026855 19.343917846679688 12.811690330505371 19.65092658996582 12.82371711730957 L19.65092658996582 12.82371711730957 C19.864948272705078 13.476537704467773 18.64656639099121 13.335731506347656 18.252573013305664 13.236899375915527 L18.252573013305664 13.236899375915527 C18.225996017456055 12.717728614807129 17.920808792114258 10.962559700012207 18.317779541015625 10.582691192626953 L18.317779541015625 10.582691192626953"></path></svg>