<svg xmlns="http://www.w3.org/2000/svg" viewBox="0.0 0.0 24.0 24.0" height="200px" width="200px"><path fill="none" stroke="black" stroke-width=".3" stroke-opacity="1.0"  filling="0" d="M21.081871032714844 7.472725868225098 L21.081871032714844 7.472725868225098 C23.517532348632812 7.472725868225098 25.953197479248047 7.472725868225098 28.38886070251465 7.472725868225098 L28.38886070251465 7.472725868225098 C28.38886070251465 8.98636245727539 28.38886070251465 10.499998092651367 28.38886070251465 12.013633728027344 C28.38886070251465 13.52726936340332 28.38886070251465 15.040905952453613 28.38886070251465 16.554542541503906 L28.38886070251465 16.554542541503906 C25.980451583862305 16.55454444885254 23.572044372558594 16.554546356201172 21.16363525390625 16.554546356201172 L21.16363525390625 16.554546356201172 C20.934757232666016 15.589212417602539 20.961647033691406 14.768798828125 21.005918502807617 13.718180656433105 L21.005918502807617 13.718180656433105 C21.928586959838867 13.717525482177734 22.854063034057617 13.691743850708008 23.776636123657227 13.677352905273438 L23.776636123657227 13.677352905273438 C23.921239852905273 12.549668312072754 23.865657806396484 11.366666793823242 23.867263793945312 10.227542877197266 L23.867263793945312 10.227542877197266 C22.921493530273438 10.228918075561523 21.957426071166992 10.29799747467041 21.01633644104004 10.200379371643066 L21.01633644104004 10.200379371643066 C21.078853607177734 9.292672157287598 21.062450408935547 8.382467269897461 21.081871032714844 7.472725868225098 L21.081871032714844 7.472725868225098"></path></svg>