<svg xmlns="http://www.w3.org/2000/svg" viewBox="0.0 0.0 24.0 24.0" height="200px" width="200px"><path fill="none" stroke="black" stroke-width=".3" stroke-opacity="1.0"  filling="0" d="M26.902118682861328 9.991334915161133 L26.902118682861328 9.991334915161133 C26.98048210144043 10.071280479431152 27.058847427368164 10.151226997375488 27.137210845947266 10.231172561645508 L27.137210845947266 10.231172561645508 C26.327409744262695 11.143844604492188 25.40266227722168 11.958476066589355 24.56501007080078 12.845590591430664 L24.56501007080078 12.845590591430664 C24.568992614746094 12.854153633117676 24.572973251342773 12.862717628479004 24.576955795288086 12.871280670166016 L24.576955795288086 12.871280670166016 C25.91880989074707 12.871280670166016 27.260663986206055 12.871280670166016 28.602519989013672 12.871280670166016 L28.602519989013672 12.871280670166016 C28.602519989013672 12.985708236694336 28.602519989013672 13.10013484954834 28.602519989013672 13.21456241607666 L28.602519989013672 13.21456241607666 C27.23682403564453 13.225563049316406 25.87134552001953 13.227416038513184 24.5056095123291 13.227981567382812 L24.5056095123291 13.227981567382812 C24.929920196533203 13.65239429473877 26.748193740844727 15.471151351928711 27.175010681152344 15.898090362548828 L27.175010681152344 15.898090362548828 C26.595548629760742 16.49007797241211 24.423900604248047 13.644426345825195 23.829492568969727 13.06630802154541 L23.829492568969727 13.06630802154541 C24.853700637817383 12.041316986083984 25.877910614013672 11.016328811645508 26.902118682861328 9.991334915161133 L26.902118682861328 9.991334915161133"></path></svg>