<svg xmlns="http://www.w3.org/2000/svg" viewBox="0.0 0.0 24.0 24.0" height="200px" width="200px"><path fill="none" stroke="black" stroke-width=".3" stroke-opacity="1.0"  filling="0" d="M14.270700454711914 10.114145278930664 L14.270700454711914 10.114145278930664 C14.26317024230957 12.066767692565918 14.26402759552002 14.019309997558594 14.263091087341309 15.971945762634277 L14.263091087341309 15.971945762634277 C14.155145645141602 15.971945762634277 14.047200202941895 15.971945762634277 13.939254760742188 15.971945762634277 L13.939254760742188 15.971945762634277 C13.939254760742188 14.294928550720215 13.939254760742188 12.61790943145752 13.939254760742188 10.94089126586914 L13.939254760742188 10.94089126586914 C12.18671703338623 12.705680847167969 10.43418025970459 14.47047233581543 8.681646347045898 16.23526382446289 L8.681646347045898 16.23526382446289 C8.669546127319336 16.231346130371094 8.657445907592773 16.227426528930664 8.645345687866211 16.223508834838867 L8.645345687866211 16.223508834838867 C8.645345687866211 14.246209144592285 8.619135856628418 12.269075393676758 8.618208885192871 10.291908264160156 L8.618208885192871 10.291908264160156 C8.727082252502441 10.291908264160156 8.835954666137695 10.291908264160156 8.944828033447266 10.291908264160156 L8.944828033447266 10.291908264160156 C9.145315170288086 11.952016830444336 8.972755432128906 13.757223129272461 8.972755432128906 15.430036544799805 L8.972755432128906 15.430036544799805 C9.936439514160156 14.704007148742676 10.839640617370605 13.809880256652832 11.712562561035156 12.879837989807129 C12.585485458374023 11.949795722961426 13.428129196166992 10.983837127685547 14.270700454711914 10.114145278930664 L14.270700454711914 10.114145278930664"></path></svg>