<svg xmlns="http://www.w3.org/2000/svg" viewBox="0.0 0.0 24.0 24.0" height="200px" width="200px"><path fill="none" stroke="black" stroke-width=".3" stroke-opacity="1.0"  filling="0" d="M15.95451831817627 7.4018168449401855 L15.95451831817627 7.4018168449401855 C16.072690963745117 7.4018168449401855 16.19086456298828 7.4018168449401855 16.309036254882812 7.4018168449401855 L16.309036254882812 7.4018168449401855 C16.309036254882812 9.310686111450195 16.338308334350586 11.218831062316895 16.33625602722168 13.12769889831543 L16.33625602722168 13.12769889831543 C17.19549560546875 12.312917709350586 18.421171188354492 10.305949211120605 19.672800064086914 10.3091459274292 L19.672800064086914 10.3091459274292 C18.73750114440918 11.24718189239502 17.801559448242188 12.184576034545898 16.86496353149414 13.121317863464355 L16.86496353149414 13.121317863464355 C16.921586990356445 13.17797565460205 19.60737419128418 15.865466117858887 19.661291122436523 15.919417381286621 L19.661291122436523 15.919417381286621 C18.50446891784668 15.9844970703125 17.14452362060547 13.783926963806152 16.35449981689453 13.14469051361084 L16.35449981689453 13.14469051361084 C16.359880447387695 14.079270362854004 16.362884521484375 15.013867378234863 16.363555908203125 15.94846248626709 L16.363555908203125 15.94846248626709 C16.23630142211914 15.94846248626709 16.109046936035156 15.94846248626709 15.981792449951172 15.94846248626709 L15.981792449951172 15.94846248626709 C15.981792449951172 14.523698806762695 15.974973678588867 13.099312782287598 15.968154907226562 11.674980163574219 C15.961337089538574 10.25064754486084 15.95451831817627 8.82636833190918 15.95451831817627 7.4018168449401855 L15.95451831817627 7.4018168449401855"></path></svg>