<svg xmlns="http://www.w3.org/2000/svg" viewBox="0.0 0.0 24.0 24.0" height="200px" width="200px"><path fill="none" stroke="black" stroke-width=".3" stroke-opacity="1.0"  filling="0" d="M4.698709487915039 10.165308952331543 L4.698709487915039 10.165308952331543 C5.944687366485596 10.407502174377441 6.973019599914551 10.703673362731934 7.489817142486572 12.019840240478516 C8.162978172302246 13.734228134155273 6.926024913787842 16.06608009338379 4.934427738189697 16.02581024169922 C2.5469985008239746 15.977535247802734 0.7232344150543213 13.13740348815918 2.5301733016967773 11.203065872192383 C3.3661298751831055 10.308170318603516 3.579746723175049 10.427214622497559 4.698709487915039 10.165308952331543 L4.698709487915039 10.165308952331543"></path>
<path fill="none" stroke="black" stroke-width=".3" stroke-opacity="1.0"  filling="0" d="M4.773626804351807 10.499944686889648 L4.773626804351807 10.499944686889648 C5.884640216827393 10.796880722045898 6.385584354400635 10.689478874206543 7.009754180908203 11.80245590209961 C7.920395374298096 13.426249504089355 6.764492034912109 15.933528900146484 4.689463138580322 15.711244583129883 C2.7310233116149902 15.501449584960938 1.4827650785446167 13.524749755859375 2.5241308212280273 11.759522438049316 C3.1607940196990967 10.680309295654297 3.668260335922241 10.787428855895996 4.773626804351807 10.499944686889648 L4.773626804351807 10.499944686889648"></path></svg>