<svg xmlns="http://www.w3.org/2000/svg" viewBox="0.0 0.0 24.0 24.0" height="200px" width="200px"><path fill="none" stroke="black" stroke-width=".3" stroke-opacity="1.0"  filling="0" d="M15.120928764343262 10.627528190612793 L15.120928764343262 10.627528190612793 C15.125809669494629 10.643560409545898 15.93610668182373 13.305316925048828 15.938617706298828 13.31356430053711 L15.938617706298828 13.31356430053711 C15.776708602905273 13.322591781616211 15.614799499511719 13.331618309020996 15.452890396118164 13.340645790100098 L15.452890396118164 13.340645790100098 C15.390308380126953 13.127518653869629 15.327727317810059 12.91439151763916 15.265145301818848 12.701264381408691 L15.265145301818848 12.701264381408691 C14.998217582702637 12.701264381408691 14.731290817260742 12.701264381408691 14.464363098144531 12.701264381408691 L14.464363098144531 12.701264381408691 C14.397127151489258 12.911364555358887 14.329890251159668 13.121463775634766 14.262654304504395 13.331563949584961 L14.262654304504395 13.331563949584961 C14.111454963684082 13.331563949584961 13.960254669189453 13.331563949584961 13.80905532836914 13.331563949584961 L13.80905532836914 13.331563949584961 C13.721166610717773 12.569622039794922 14.336581230163574 10.6924467086792 15.120928764343262 10.627528190612793 L15.120928764343262 10.627528190612793"></path>
<path fill="none" stroke="black" stroke-width=".3" stroke-opacity="1.0"  filling="0" d="M14.856817245483398 11.209335327148438 L14.856817245483398 11.209335327148438 C14.966154098510742 11.574517250061035 15.075490951538086 11.93970012664795 15.18482780456543 12.304882049560547 L15.18482780456543 12.304882049560547 C14.950065612792969 12.29006290435791 14.818215370178223 12.286508560180664 14.5952730178833 12.239836692810059 L14.5952730178833 12.239836692810059 C14.682454109191895 11.896336555480957 14.769636154174805 11.552835464477539 14.856817245483398 11.209335327148438 L14.856817245483398 11.209335327148438"></path></svg>