<svg xmlns="http://www.w3.org/2000/svg" viewBox="0.0 0.0 24.0 24.0" height="200px" width="200px"><path fill="none" stroke="black" stroke-width=".3" stroke-opacity="1.0"  filling="0" d="M-1.445481300354004 7.374790668487549 L-1.445481300354004 7.374790668487549 C-1.3272724151611328 7.374790668487549 -1.2090635299682617 7.374790668487549 -1.0908546447753906 7.374790668487549 L-1.0908546447753906 7.374790668487549 C-1.0908546447753906 9.257674217224121 -1.0912141799926758 11.140554428100586 -1.0897092819213867 13.0234375 L-1.0897092819213867 13.0234375 C-1.0763816833496094 13.0269193649292 -1.063054084777832 13.030400276184082 -1.0497264862060547 13.033882141113281 L-1.0497264862060547 13.033882141113281 C-0.23576891422271729 12.223249435424805 1.0506683588027954 10.221905708312988 2.228590965270996 10.227246284484863 L2.228590965270996 10.227246284484863 C2.2326815128326416 10.236600875854492 2.236772298812866 10.245954513549805 2.2408628463745117 10.255309104919434 L2.2408628463745117 10.255309104919434 C1.3167691230773926 11.1802339553833 0.3926779627799988 12.105161666870117 -0.5314102172851562 13.030092239379883 L-0.5314102172851562 13.030092239379883 C-0.5297795534133911 13.031743049621582 2.2663516998291016 15.862598419189453 2.275117874145508 15.87147331237793 L2.275117874145508 15.87147331237793 C1.2035046815872192 15.85197639465332 -0.4008064866065979 13.668152809143066 -1.0701284408569336 13.050901412963867 L-1.0701284408569336 13.050901412963867 C-1.0701284408569336 13.99416446685791 -1.0701284408569336 14.93742847442627 -1.0701284408569336 15.880691528320312 L-1.0701284408569336 15.880691528320312 C-1.781067132949829 15.930292129516602 -1.4460948705673218 14.593754768371582 -1.4477729797363281 14.085984230041504 C-1.4551661014556885 11.84900951385498 -1.4454915523529053 9.611787796020508 -1.445481300354004 7.374790668487549 L-1.445481300354004 7.374790668487549"></path></svg>