<svg xmlns="http://www.w3.org/2000/svg" viewBox="0.0 0.0 24.0 24.0" height="200px" width="200px"><path fill="none" stroke="black" stroke-width=".3" stroke-opacity="1.0"  filling="0" d="M11.148271560668945 12.400472640991211 L11.148271560668945 12.400472640991211 C11.250362396240234 12.448800086975098 11.35245418548584 12.497127532958984 11.454545021057129 12.545454978942871 L11.454545021057129 12.545454978942871 C11.381817817687988 12.545454978942871 11.309090614318848 12.545454978942871 11.236363410949707 12.545454978942871 L11.236363410949707 12.545454978942871 C11.269281387329102 12.522355079650879 11.302200317382812 12.499255180358887 11.335118293762207 12.476155281066895 L11.335118293762207 12.476155281066895 C11.247654914855957 12.499255180358887 11.16019058227539 12.522355079650879 11.07272720336914 12.545454978942871 L11.07272720336914 12.545454978942871 C11.045454978942871 12.545454978942871 11.018181800842285 12.545454978942871 10.990909576416016 12.545454978942871 L10.990909576416016 12.545454978942871 C10.990909576416016 12.518181800842285 10.990909576416016 12.490909576416016 10.990909576416016 12.46363639831543 L10.990909576416016 12.46363639831543 C11.043363571166992 12.442582130432129 11.095817565917969 12.421526908874512 11.148271560668945 12.400472640991211 L11.148271560668945 12.400472640991211"></path></svg>