<svg xmlns="http://www.w3.org/2000/svg" viewBox="0.0 0.0 24.0 24.0" height="200px" width="200px"><path fill="none" stroke="black" stroke-width=".3" stroke-opacity="1.0"  filling="0" d="M17.390945434570312 10.154317855834961 L17.390945434570312 10.154317855834961 C17.917049407958984 10.34466552734375 18.456222534179688 10.952213287353516 17.96318244934082 11.421191215515137 L17.96318244934082 11.421191215515137 C17.902738571166992 11.048134803771973 17.18582534790039 10.063687324523926 17.170120239257812 10.986574172973633 C17.14621353149414 12.391368865966797 18.582075119018555 12.18938159942627 18.212373733520508 13.759746551513672 C17.8363094329834 15.357138633728027 17.06927490234375 13.973832130432129 16.99521827697754 13.142509460449219 L16.99521827697754 13.142509460449219 C17.0410099029541 13.134682655334473 17.08679962158203 13.12685489654541 17.132591247558594 13.119028091430664 L17.132591247558594 13.119028091430664 C17.44782066345215 14.282552719116211 18.22386360168457 14.23001766204834 18.022554397583008 12.93049144744873 C17.959228515625 12.521698951721191 17.329011917114258 12.661808967590332 17.150672912597656 12.31559944152832 C16.815113067626953 11.664175033569336 16.865758895874023 10.6689453125 17.390945434570312 10.154317855834961 L17.390945434570312 10.154317855834961"></path></svg>