<svg xmlns="http://www.w3.org/2000/svg" viewBox="0.0 0.0 24.0 24.0" height="200px" width="200px"><path fill="none" stroke="black" stroke-width=".3" stroke-opacity="1.0"  filling="0" d="M10.245136260986328 11.675155639648438 L10.245136260986328 11.675155639648438 C10.428169250488281 11.685884475708008 10.611308097839355 11.69864559173584 10.794654846191406 11.699155807495117 L10.794654846191406 11.699155807495117 C10.815582275390625 11.772882461547852 10.836508750915527 11.846610069274902 10.857436180114746 11.920336723327637 L10.857436180114746 11.920336723327637 C10.01398754119873 11.636557579040527 9.71166706085205 12.383036613464355 10.697427749633789 12.147982597351074 L10.697427749633789 12.147982597351074 C10.615569114685059 12.140305519104004 10.533263206481934 12.136655807495117 10.451045989990234 12.136390686035156 L10.451045989990234 12.136390686035156 C10.535791397094727 12.0564546585083 10.656341552734375 11.999378204345703 10.772836685180664 12.000027656555176 L10.772836685180664 12.000027656555176 C10.826064109802246 12.131973266601562 10.879291534423828 12.26391887664795 10.93251895904541 12.395864486694336 L10.93251895904541 12.395864486694336 C10.876537322998047 12.37403678894043 10.820555686950684 12.35221004486084 10.76457405090332 12.330382347106934 L10.76457405090332 12.330382347106934 C10.134726524353027 12.539793014526367 9.567838668823242 12.180810928344727 10.245136260986328 11.675155639648438 L10.245136260986328 11.675155639648438"></path></svg>