<svg xmlns="http://www.w3.org/2000/svg" viewBox="0.0 0.0 24.0 24.0" height="200px" width="200px"><path fill="none" stroke="black" stroke-width=".3" stroke-opacity="1.0"  filling="0" d="M13.621826171875 11.651127815246582 L13.621826171875 11.651127815246582 C13.751916885375977 11.651127815246582 13.88200855255127 11.651127815246582 14.012099266052246 11.651127815246582 L14.012099266052246 11.651127815246582 C14.128745079040527 11.90079116821289 14.245389938354492 12.150455474853516 14.362035751342773 12.400118827819824 L14.362035751342773 12.400118827819824 C14.304435729980469 12.400118827819824 14.246835708618164 12.400118827819824 14.18923568725586 12.400118827819824 L14.18923568725586 12.400118827819824 C14.172872543334961 12.331900596618652 14.156508445739746 12.26368236541748 14.140145301818848 12.195464134216309 L14.140145301818848 12.195464134216309 C13.933727264404297 12.182272911071777 13.72730827331543 12.169082641601562 13.520890235900879 12.155891418457031 L13.520890235900879 12.155891418457031 C13.493227005004883 12.23840045928955 13.465563774108887 12.32090950012207 13.43790054321289 12.40341854095459 L13.43790054321289 12.40341854095459 C13.376418113708496 12.403427124023438 13.314936637878418 12.403436660766602 13.253454208374023 12.40344524383545 L13.253454208374023 12.40344524383545 C13.37624454498291 12.15267276763916 13.499035835266113 11.901900291442871 13.621826171875 11.651127815246582 L13.621826171875 11.651127815246582"></path>
<path fill="none" stroke="black" stroke-width=".3" stroke-opacity="1.0"  filling="0" d="M13.943862915039062 11.792564392089844 L13.943862915039062 11.792564392089844 C13.986017227172852 11.87862777709961 14.028172492980957 11.964692115783691 14.070326805114746 12.050755500793457 L14.070326805114746 12.050755500793457 C13.912299156188965 12.050755500793457 13.7542724609375 12.050755500793457 13.596244812011719 12.050755500793457 L13.596244812011719 12.050755500793457 C13.712117195129395 11.964692115783691 13.827990531921387 11.87862777709961 13.943862915039062 11.792564392089844 L13.943862915039062 11.792564392089844"></path></svg>