<svg xmlns="http://www.w3.org/2000/svg" viewBox="0.0 0.0 24.0 24.0" height="200px" width="200px"><path fill="none" stroke="black" stroke-width=".3" stroke-opacity="1.0"  filling="0" d="M12.917536735534668 11.282454490661621 L12.917536735534668 11.282454490661621 C13.143325805664062 11.368017196655273 13.394875526428223 11.520650863647461 13.470982551574707 11.749799728393555 L13.470982551574707 11.749799728393555 C13.319291114807129 11.690099716186523 13.167600631713867 11.630399703979492 13.015909194946289 11.570699691772461 L13.015909194946289 11.570699691772461 C13.015909194946289 11.64814567565918 13.015909194946289 11.725590705871582 13.015909194946289 11.8030366897583 L13.015909194946289 11.8030366897583 C13.142300605773926 11.856427192687988 13.268691062927246 11.909818649291992 13.395082473754883 11.96320915222168 L13.395082473754883 11.96320915222168 C13.38917350769043 12.042336463928223 13.383264541625977 12.121463775634766 13.377355575561523 12.200591087341309 L13.377355575561523 12.200591087341309 C13.242419242858887 12.15199089050293 13.10748291015625 12.10339069366455 12.972546577453613 12.054790496826172 L12.972546577453613 12.054790496826172 C12.939630508422852 12.586686134338379 13.216716766357422 12.468086242675781 13.434518814086914 12.907173156738281 L13.434518814086914 12.907173156738281 C13.235282897949219 12.8388090133667 13.036046981811523 12.770445823669434 12.836811065673828 12.702081680297852 L12.836811065673828 12.702081680297852 C12.863719940185547 12.228872299194336 12.89062786102295 11.755663871765137 12.917536735534668 11.282454490661621 L12.917536735534668 11.282454490661621"></path></svg>