<svg xmlns="http://www.w3.org/2000/svg" viewBox="0.0 0.0 24.0 24.0" height="200px" width="200px"><path fill="none" stroke="black" stroke-width=".3" stroke-opacity="1.0"  filling="0" d="M15.957382202148438 10.152192115783691 L15.957382202148438 10.152192115783691 C16.64278793334961 10.203189849853516 16.933393478393555 10.811102867126465 16.766510009765625 11.47592830657959 L16.766510009765625 11.47592830657959 C16.71971893310547 11.47592830657959 16.672927856445312 11.47592830657959 16.626136779785156 11.47592830657959 L16.626136779785156 11.47592830657959 C16.449047088623047 10.540679931640625 15.597171783447266 10.131855010986328 15.867328643798828 11.754573822021484 C15.970098495483398 12.371868133544922 16.955482482910156 12.4912109375 16.883045196533203 13.383818626403809 C16.7561092376709 14.948010444641113 15.452933311462402 14.634326934814453 15.670336723327637 13.156172752380371 L15.670336723327637 13.156172752380371 C15.715100288391113 13.156172752380371 15.75986385345459 13.156172752380371 15.804627418518066 13.156172752380371 L15.804627418518066 13.156172752380371 C16.060792922973633 14.555105209350586 17.065181732177734 13.694742202758789 16.658292770385742 13.004100799560547 C15.98218822479248 11.856500625610352 15.214445114135742 11.699081420898438 15.957382202148438 10.152192115783691 L15.957382202148438 10.152192115783691"></path></svg>