<svg xmlns="http://www.w3.org/2000/svg" viewBox="0.0 0.0 24.0 24.0" height="200px" width="200px"><path fill="none" stroke="black" stroke-width=".3" stroke-opacity="1.0"  filling="0" d="M6.49030876159668 9.491290092468262 L6.49030876159668 9.491290092468262 C6.938182830810547 9.492246627807617 7.717400074005127 9.280144691467285 7.717962741851807 9.854235649108887 L7.717962741851807 9.854235649108887 C6.370561599731445 9.785201072692871 6.092907905578613 11.07427978515625 7.513500213623047 11.07261848449707 L7.513500213623047 11.07261848449707 C7.511590957641602 11.184290885925293 7.509681701660156 11.295963287353516 7.507772445678711 11.407635688781738 L7.507772445678711 11.407635688781738 C7.239235877990723 11.39614486694336 6.970699787139893 11.38465404510498 6.702163219451904 11.373163223266602 L6.702163219451904 11.373163223266602 C6.650979042053223 11.850262641906738 6.599523544311523 12.268261909484863 6.654872417449951 12.773755073547363 C6.708916664123535 13.267330169677734 7.7446184158325195 12.547087669372559 7.7453718185424805 13.251246452331543 L7.7453718185424805 13.251246452331543 C7.315019607543945 13.2531156539917 6.884625434875488 13.249587059020996 6.454336166381836 13.242000579833984 L6.454336166381836 13.242000579833984 C6.477207660675049 11.992067337036133 6.486406326293945 10.741157531738281 6.49030876159668 9.491290092468262 L6.49030876159668 9.491290092468262"></path></svg>