<svg xmlns="http://www.w3.org/2000/svg" viewBox="0.0 0.0 24.0 24.0" height="200px" width="200px"><path fill="none" stroke="black" stroke-width=".3" stroke-opacity="1.0"  filling="0" d="M8.331927299499512 10.306282043457031 L8.331927299499512 10.306282043457031 C8.889583587646484 11.115053176879883 8.916520118713379 11.85833740234375 8.918235778808594 12.811553955078125 L8.918235778808594 12.811553955078125 C8.475544929504395 12.811553955078125 8.032854080200195 12.811553955078125 7.590163707733154 12.811553955078125 L7.590163707733154 12.811553955078125 C7.664835453033447 13.745462417602539 8.30080795288086 14.853510856628418 8.684427261352539 13.344218254089355 L8.684427261352539 13.344218254089355 C8.755908966064453 13.344218254089355 8.827390670776367 13.344218254089355 8.898872375488281 13.344218254089355 L8.898872375488281 13.344218254089355 C8.436623573303223 17.17458152770996 5.7170562744140625 10.524822235107422 8.331927299499512 10.306282043457031 L8.331927299499512 10.306282043457031"></path>
<path fill="none" stroke="black" stroke-width=".3" stroke-opacity="1.0"  filling="0" d="M8.342290878295898 10.86349105834961 L8.342290878295898 10.86349105834961 C8.631767272949219 11.38296890258789 8.70398235321045 11.752411842346191 8.765399932861328 12.335808753967285 L8.765399932861328 12.335808753967285 C8.376091003417969 12.335800170898438 7.986781597137451 12.33579158782959 7.597472667694092 12.335783004760742 L7.597472667694092 12.335783004760742 C7.438937187194824 11.527722358703613 7.658929347991943 10.907401084899902 8.342290878295898 10.86349105834961 L8.342290878295898 10.86349105834961"></path></svg>