<svg xmlns="http://www.w3.org/2000/svg" viewBox="0.0 0.0 24.0 24.0" height="200px" width="200px"><path fill="none" stroke="black" stroke-width=".3" stroke-opacity="1.0"  filling="0" d="M18.857505798339844 10.224245071411133 L18.857505798339844 10.224245071411133 C19.88728904724121 10.31120491027832 19.99967384338379 11.687422752380371 19.851764678955078 12.58145523071289 L19.851764678955078 12.58145523071289 C19.41934585571289 12.566965103149414 18.988037109375 12.568913459777832 18.555843353271484 12.588982582092285 L18.555843353271484 12.588982582092285 C18.686859130859375 13.681659698486328 19.272720336914062 14.653900146484375 19.72218894958496 13.031972885131836 L19.72218894958496 13.031972885131836 C19.776880264282227 13.046426773071289 19.83156967163086 13.060881614685059 19.886260986328125 13.075335502624512 L19.886260986328125 13.075335502624512 C19.656620025634766 14.82573127746582 18.70793342590332 14.883597373962402 18.413314819335938 13.144935607910156 C18.244958877563477 12.151402473449707 18.39109992980957 11.104281425476074 18.857505798339844 10.224245071411133 L18.857505798339844 10.224245071411133"></path>
<path fill="none" stroke="black" stroke-width=".3" stroke-opacity="1.0"  filling="0" d="M19.027252197265625 10.616536140441895 L19.027252197265625 10.616536140441895 C19.68780517578125 10.92656135559082 19.5928955078125 11.394903182983398 19.690826416015625 12.111818313598633 L19.690826416015625 12.111818313598633 C18.155019760131836 13.271851539611816 18.68844223022461 10.9973783493042 18.961936950683594 10.624855041503906 L18.961936950683594 10.624855041503906 C18.98370933532715 10.622081756591797 19.00547981262207 10.619309425354004 19.027252197265625 10.616536140441895 L19.027252197265625 10.616536140441895"></path></svg>