<svg xmlns="http://www.w3.org/2000/svg" viewBox="0.0 0.0 24.0 24.0" height="200px" width="200px"><path fill="none" stroke="black" stroke-width=".3" stroke-opacity="1.0"  filling="0" d="M9.57261848449707 11.90552806854248 L9.57261848449707 11.90552806854248 C9.874282836914062 11.993351936340332 9.719438552856445 12.387763023376465 9.973773002624512 12.602291107177734 L9.973773002624512 12.602291107177734 C9.93393611907959 12.620918273925781 9.894100189208984 12.639546394348145 9.854263305664062 12.658173561096191 L9.854263305664062 12.658173561096191 C9.782490730285645 12.605955123901367 9.710718154907227 12.55373764038086 9.638945579528809 12.501519203186035 L9.638945579528809 12.501519203186035 C9.551018714904785 12.579282760620117 9.463090896606445 12.6570463180542 9.375164031982422 12.734809875488281 L9.375164031982422 12.734809875488281 C9.412981986999512 12.82778263092041 9.450799942016602 12.920754432678223 9.488617897033691 13.013727188110352 L9.488617897033691 13.013727188110352 C9.461663246154785 13.030936241149902 9.434709548950195 13.04814624786377 9.407754898071289 13.06535530090332 L9.407754898071289 13.06535530090332 C9.297118186950684 12.808938026428223 9.136363983154297 12.551994323730469 9.136363983154297 12.272727012634277 L9.136363983154297 12.272727012634277 C9.279300689697266 12.147439002990723 9.418359756469727 12.016579627990723 9.57261848449707 11.90552806854248 L9.57261848449707 11.90552806854248"></path>
<path fill="none" stroke="black" stroke-width=".3" stroke-opacity="1.0"  filling="0" d="M9.576327323913574 12.066790580749512 L9.576327323913574 12.066790580749512 C9.633810997009277 12.258639335632324 9.468993186950684 12.467215538024902 9.337118148803711 12.617944717407227 L9.337118148803711 12.617944717407227 C9.301709175109863 12.53718090057373 9.266300201416016 12.45641803741455 9.230891227722168 12.375654220581055 L9.230891227722168 12.375654220581055 C9.346036911010742 12.272699356079102 9.461181640625 12.169745445251465 9.576327323913574 12.066790580749512 L9.576327323913574 12.066790580749512"></path></svg>