<svg xmlns="http://www.w3.org/2000/svg" viewBox="0.0 0.0 24.0 24.0" height="200px" width="200px"><path fill="none" stroke="black" stroke-width=".3" stroke-opacity="1.0"  filling="0" d="M14.794307708740234 10.146738052368164 L14.794307708740234 10.146738052368164 C15.646462440490723 10.92348861694336 15.608180046081543 13.438183784484863 15.40772533416748 14.564592361450195 L15.40772533416748 14.564592361450195 C15.175856590270996 14.496369361877441 15.240022659301758 14.394654273986816 15.22079849243164 14.135210037231445 L15.22079849243164 14.135210037231445 C14.497518539428711 15.561800003051758 12.67203140258789 11.860482215881348 15.205282211303711 12.034363746643066 L15.205282211303711 12.034363746643066 C15.103859901428223 11.037145614624023 14.48043441772461 9.822922706604004 14.230854034423828 11.53031063079834 L14.230854034423828 11.53031063079834 C14.181272506713867 11.53031063079834 14.13169002532959 11.53031063079834 14.082108497619629 11.53031063079834 L14.082108497619629 11.53031063079834 C14.132485389709473 11.000761985778809 14.127326011657715 10.206704139709473 14.794307708740234 10.146738052368164 L14.794307708740234 10.146738052368164"></path>
<path fill="none" stroke="black" stroke-width=".3" stroke-opacity="1.0"  filling="0" d="M14.547272682189941 12.4631986618042 L14.547272682189941 12.4631986618042 C15.617034912109375 12.532806396484375 15.464883804321289 14.157883644104004 14.500717163085938 14.08985424041748 C13.741659164428711 14.036296844482422 14.298152923583984 12.66048812866211 14.547272682189941 12.4631986618042 L14.547272682189941 12.4631986618042"></path></svg>