<svg xmlns="http://www.w3.org/2000/svg" viewBox="0.0 0.0 24.0 24.0" height="200px" width="200px"><path fill="none" stroke="black" stroke-width=".3" stroke-opacity="1.0"  filling="0" d="M15.109228134155273 11.77859878540039 L15.109228134155273 11.77859878540039 C15.188867568969727 11.948434829711914 15.272262573242188 12.12520980834961 15.288246154785156 12.312108993530273 L15.288246154785156 12.312108993530273 C15.246291160583496 12.266136169433594 15.204337120056152 12.220163345336914 15.162382125854492 12.174190521240234 L15.162382125854492 12.174190521240234 C15.092491149902344 12.181772232055664 15.022600173950195 12.18935489654541 14.952709197998047 12.19693660736084 L14.952709197998047 12.19693660736084 C14.923545837402344 12.236927032470703 14.89438247680664 12.276918411254883 14.865219116210938 12.316908836364746 L14.865219116210938 12.316908836364746 C14.817851066589355 12.115585327148438 14.894418716430664 11.846395492553711 15.109228134155273 11.77859878540039 L15.109228134155273 11.77859878540039"></path>
<path fill="none" stroke="black" stroke-width=".3" stroke-opacity="1.0"  filling="0" d="M15.05773639678955 11.90937328338623 L15.05773639678955 11.90937328338623 C15.072772979736328 11.913328170776367 15.087808609008789 11.917282104492188 15.102845191955566 11.921236991882324 L15.102845191955566 11.921236991882324 C15.112436294555664 11.976737022399902 15.122027397155762 12.03223705291748 15.13161849975586 12.087737083435059 L15.13161849975586 12.087737083435059 C15.119991302490234 12.094664573669434 15.10836410522461 12.101591110229492 15.096736907958984 12.108518600463867 L15.096736907958984 12.108518600463867 C15.048011779785156 12.061599731445312 15.02998161315918 11.971059799194336 15.05773639678955 11.90937328338623 L15.05773639678955 11.90937328338623"></path></svg>