<svg xmlns="http://www.w3.org/2000/svg" viewBox="0.0 0.0 24.0 24.0" height="200px" width="200px"><path fill="none" stroke="black" stroke-width=".3" stroke-opacity="1.0"  filling="0" d="M31.909090042114258 10.690963745117188 L31.909090042114258 10.690963745117188 C31.909090042114258 11.027327537536621 31.909090042114258 11.363691329956055 31.909090042114258 11.700055122375488 L31.909090042114258 11.700055122375488 C31.7520694732666 11.830266952514648 31.75143051147461 12.115736961364746 31.909090042114258 12.245535850524902 L31.909090042114258 12.245535850524902 C31.909090042114258 12.862844467163086 31.88309669494629 13.39406967163086 31.88184356689453 13.997236251831055 L31.88184356689453 13.997236251831055 C31.847915649414062 14.014845848083496 31.813987731933594 14.032454490661621 31.780059814453125 14.050064086914062 L31.780059814453125 14.050064086914062 C31.821306228637695 14.082073211669922 31.862552642822266 14.114081382751465 31.903799057006836 14.146090507507324 L31.903799057006836 14.146090507507324 C30.232545852661133 14.843244552612305 30.335439682006836 11.768357276916504 30.889528274536133 10.914846420288086 L30.889528274536133 10.914846420288086 C31.26683235168457 10.742074012756348 31.472585678100586 10.716523170471191 31.909090042114258 10.690963745117188 L31.909090042114258 10.690963745117188"></path></svg>