<svg xmlns="http://www.w3.org/2000/svg" viewBox="0.0 0.0 24.0 24.0" height="200px" width="200px"><path fill="none" stroke="black" stroke-width=".3" stroke-opacity="1.0"  filling="0" d="M3.960681915283203 11.04676342010498 L3.960681915283203 11.04676342010498 C5.376532554626465 11.555583000183105 5.333391189575195 12.185979843139648 5.514654636383057 13.51535415649414 L5.514654636383057 13.51535415649414 C4.885218143463135 13.604454040527344 4.255782127380371 13.693554878234863 3.626345634460449 13.782654762268066 L3.626345634460449 13.782654762268066 C3.738900661468506 15.044870376586914 3.8752968311309814 15.080011367797852 4.227436542510986 14.157817840576172 C4.292328357696533 13.98787784576416 5.491643905639648 13.77067756652832 5.5601725578308105 13.946235656738281 C6.199758052825928 15.584737777709961 4.18543815612793 16.44411849975586 2.9156179428100586 15.745964050292969 C2.265748977661133 15.388662338256836 2.2870805263519287 14.23251724243164 2.2105636596679688 13.620763778686523 C2.02388072013855 12.128231048583984 2.172070264816284 11.185013771057129 3.960681915283203 11.04676342010498 L3.960681915283203 11.04676342010498"></path>
<path fill="none" stroke="black" stroke-width=".3" stroke-opacity="1.0"  filling="0" d="M3.694581985473633 12.055444717407227 L3.694581985473633 12.055444717407227 C4.0160932540893555 12.30593204498291 3.995408296585083 12.41823959350586 4.037017822265625 12.809618949890137 L4.037017822265625 12.809618949890137 C3.855026960372925 12.833918571472168 3.6730358600616455 12.8582181930542 3.4910449981689453 12.88251781463623 L3.4910449981689453 12.88251781463623 C3.464607000350952 12.599835395812988 3.4974663257598877 12.259782791137695 3.694581985473633 12.055444717407227 L3.694581985473633 12.055444717407227"></path></svg>