<svg xmlns="http://www.w3.org/2000/svg" viewBox="0.0 0.0 24.0 24.0" height="200px" width="200px"><path fill="none" stroke="black" stroke-width=".3" stroke-opacity="1.0"  filling="0" d="M11.109136581420898 11.705999374389648 L11.109136581420898 11.705999374389648 C11.14148235321045 11.853887557983398 11.158252716064453 12.00644588470459 11.155282974243164 12.157800674438477 L11.155282974243164 12.157800674438477 C11.1678466796875 12.160073280334473 11.18040943145752 12.162345886230469 11.192973136901855 12.164618492126465 L11.192973136901855 12.164618492126465 C11.246500015258789 12.021627426147461 11.300027847290039 11.878636360168457 11.353554725646973 11.735645294189453 L11.353554725646973 11.735645294189453 C11.494582176208496 11.90054702758789 11.753400802612305 12.10576057434082 11.43212890625 12.252137184143066 L11.43212890625 12.252137184143066 C11.452119827270508 12.11007308959961 11.472110748291016 11.968009948730469 11.492101669311523 11.825945854187012 L11.492101669311523 11.825945854187012 C11.409928321838379 11.966991424560547 11.32775592803955 12.108036041259766 11.245582580566406 12.2490816116333 L11.245582580566406 12.2490816116333 C11.131754875183105 12.25658130645752 11.017928123474121 12.264081954956055 10.90410041809082 12.271581649780273 L10.90410041809082 12.271581649780273 C10.93504810333252 12.124151229858398 10.96498966217041 11.95749568939209 11.072863578796387 11.85234546661377 L11.072863578796387 11.85234546661377 C11.06726360321045 11.844390869140625 11.061664581298828 11.83643627166748 11.05606460571289 11.828481674194336 L11.05606460571289 11.828481674194336 C11.028482437133789 11.828481674194336 11.000900268554688 11.828481674194336 10.973318099975586 11.828481674194336 L10.973318099975586 11.828481674194336 C11.018590927124023 11.787653923034668 11.063863754272461 11.746827125549316 11.109136581420898 11.705999374389648 L11.109136581420898 11.705999374389648"></path></svg>