<svg xmlns="http://www.w3.org/2000/svg" viewBox="0.0 0.0 24.0 24.0" height="200px" width="200px"><path fill="none" stroke="black" stroke-width=".3" stroke-opacity="1.0"  filling="0" d="M11.17210865020752 11.951072692871094 L11.17210865020752 11.951072692871094 C11.25367259979248 11.951072692871094 11.335235595703125 11.951072692871094 11.416799545288086 11.951072692871094 L11.416799545288086 11.951072692871094 C11.388708114624023 11.98330020904541 11.360617637634277 12.015527725219727 11.332526206970215 12.047755241394043 L11.332526206970215 12.047755241394043 C11.347434997558594 12.071474075317383 11.362344741821289 12.095191955566406 11.377253532409668 12.118910789489746 L11.377253532409668 12.118910789489746 C11.316893577575684 12.138285636901855 11.25207233428955 12.16286849975586 11.210890769958496 12.211064338684082 L11.210890769958496 12.211064338684082 C11.285751342773438 12.252582550048828 11.384330749511719 12.232767105102539 11.467691421508789 12.213300704956055 L11.467691421508789 12.213300704956055 C11.35405445098877 12.203391075134277 11.240418434143066 12.193482398986816 11.126781463623047 12.183572769165039 L11.126781463623047 12.183572769165039 C11.159135818481445 12.147754669189453 11.19149112701416 12.111936569213867 11.223845481872559 12.076118469238281 L11.223845481872559 12.076118469238281 C11.206600189208984 12.034436225891113 11.189353942871094 11.992754936218262 11.17210865020752 11.951072692871094 L11.17210865020752 11.951072692871094"></path></svg>