<svg xmlns="http://www.w3.org/2000/svg" viewBox="0.0 0.0 24.0 24.0" height="200px" width="200px"><path fill="none" stroke="black" stroke-width=".3" stroke-opacity="1.0"  filling="0" d="M9.618191719055176 8.825153350830078 L9.618191719055176 8.825153350830078 C9.67129135131836 8.83240795135498 9.72439193725586 8.8396635055542 9.777491569519043 8.846918106079102 L9.777491569519043 8.846918106079102 C9.786036491394043 8.868608474731445 9.79458236694336 8.890299797058105 9.80312728881836 8.91199016571045 L9.80312728881836 8.91199016571045 C9.89993667602539 8.92389965057373 9.996745109558105 8.935808181762695 10.093554496765137 8.947717666625977 L10.093554496765137 8.947717666625977 C10.092263221740723 8.946399688720703 10.090972900390625 8.94508171081543 10.089681625366211 8.943763732910156 L10.089681625366211 8.943763732910156 C10.087672233581543 8.961381912231445 10.085663795471191 8.979000091552734 10.083654403686523 8.996618270874023 L10.083654403686523 8.996618270874023 C9.989481925964355 8.985228538513184 9.88090705871582 9.013092994689941 9.810600280761719 9.076772689819336 L9.810600280761719 9.076772689819336 C9.742572784423828 9.024373054504395 9.674546241760254 8.971972465515137 9.606518745422363 8.919572830200195 L9.606518745422363 8.919572830200195 C9.6104097366333 8.888099670410156 9.614300727844238 8.856626510620117 9.618191719055176 8.825153350830078 L9.618191719055176 8.825153350830078"></path></svg>