<svg xmlns="http://www.w3.org/2000/svg" viewBox="0.0 0.0 24.0 24.0" height="200px" width="200px"><path fill="none" stroke="black" stroke-width=".3" stroke-opacity="1.0"  filling="0" d="M17.784053802490234 11.150318145751953 L17.784053802490234 11.150318145751953 C17.957290649414062 11.161672592163086 18.130525588989258 11.173027038574219 18.303762435913086 11.184381484985352 L18.303762435913086 11.184381484985352 C18.230430603027344 11.409992218017578 18.21784210205078 11.653679847717285 18.21820831298828 11.890909194946289 L18.21820831298828 11.890909194946289 C18.336381912231445 11.890909194946289 18.454553604125977 11.890909194946289 18.57272720336914 11.890909194946289 L18.57272720336914 11.890909194946289 C18.57272720336914 11.93636417388916 18.57272720336914 11.981818199157715 18.57272720336914 12.027273178100586 L18.57272720336914 12.027273178100586 C18.455171585083008 12.027273178100586 18.337617874145508 12.027273178100586 18.220062255859375 12.027273178100586 L18.220062255859375 12.027273178100586 C18.231422424316406 12.298409461975098 18.223217010498047 12.581559181213379 18.31941795349121 12.835309028625488 L18.31941795349121 12.835309028625488 C18.12497329711914 12.879236221313477 17.926061630249023 12.854294776916504 17.731252670288086 12.828055381774902 L17.731252670288086 12.828055381774902 C17.79399299621582 12.280426025390625 17.9888973236084 11.712873458862305 17.784053802490234 11.150318145751953 L17.784053802490234 11.150318145751953"></path></svg>