<svg xmlns="http://www.w3.org/2000/svg" viewBox="0.0 0.0 24.0 24.0" height="200px" width="200px"><path fill="none" stroke="black" stroke-width=".3" stroke-opacity="1.0"  filling="0" d="M15.185808181762695 11.47816276550293 L15.185808181762695 11.47816276550293 C15.187562942504883 11.493718147277832 15.189318656921387 11.509272575378418 15.191073417663574 11.52482795715332 L15.191073417663574 11.52482795715332 C14.540722846984863 11.81741714477539 14.742379188537598 12.04216194152832 14.23682689666748 12.499990463256836 L14.23682689666748 12.499990463256836 C14.227581024169922 12.492117881774902 14.218335151672363 12.484245300292969 14.209089279174805 12.476372718811035 L14.209089279174805 12.476372718811035 C14.312826156616211 12.255881309509277 14.416563034057617 12.035390853881836 14.520299911499023 11.814899444580078 L14.520299911499023 11.814899444580078 C14.388518333435059 11.796126365661621 14.256735801696777 11.77735424041748 14.124954223632812 11.758581161499023 L14.124954223632812 11.758581161499023 C14.138608932495117 11.739871978759766 14.152263641357422 11.721162796020508 14.165918350219727 11.70245361328125 L14.165918350219727 11.70245361328125 C14.533164024353027 11.743339538574219 14.824013710021973 11.499284744262695 15.185808181762695 11.47816276550293 L15.185808181762695 11.47816276550293"></path></svg>