<svg xmlns="http://www.w3.org/2000/svg" viewBox="0.0 0.0 24.0 24.0" height="200px" width="200px"><path fill="none" stroke="black" stroke-width=".3" stroke-opacity="1.0"  filling="0" d="M11.0750732421875 11.48037338256836 L11.0750732421875 11.48037338256836 C11.099973678588867 11.502418518066406 11.124873161315918 11.524463653564453 11.149773597717285 11.5465087890625 L11.149773597717285 11.5465087890625 C11.00373649597168 11.710136413574219 10.85770034790039 11.873764038085938 10.711663246154785 12.037391662597656 L10.711663246154785 12.037391662597656 C10.875527381896973 11.999608993530273 11.039390563964844 11.961827278137207 11.203254699707031 11.924044609069824 L11.203254699707031 11.924044609069824 C11.01339054107666 11.998617172241211 10.823527336120605 12.073190689086914 10.633663177490234 12.1477632522583 L10.633663177490234 12.1477632522583 C10.606626510620117 12.20009994506836 10.579590797424316 12.252435684204102 10.5525541305542 12.30477237701416 L10.5525541305542 12.30477237701416 C10.739069938659668 12.299217224121094 10.927199363708496 12.253154754638672 11.097599029541016 12.177108764648438 L11.097599029541016 12.177108764648438 C10.930685997009277 12.491281509399414 10.383519172668457 12.612817764282227 10.466672897338867 12.178936004638672 L10.466672897338867 12.178936004638672 C10.4443998336792 12.181300163269043 10.422127723693848 12.183663368225098 10.39985466003418 12.186027526855469 L10.39985466003418 12.186027526855469 C10.37465763092041 12.019065856933594 11.046981811523438 11.504724502563477 11.0750732421875 11.48037338256836 L11.0750732421875 11.48037338256836"></path></svg>