<svg xmlns="http://www.w3.org/2000/svg" viewBox="0.0 0.0 24.0 24.0" height="200px" width="200px"><path fill="none" stroke="black" stroke-width=".3" stroke-opacity="1.0"  filling="0" d="M12.688037872314453 11.103873252868652 L12.688037872314453 11.103873252868652 C12.851022720336914 11.484387397766113 12.746118545532227 12.351659774780273 12.632972717285156 12.701455116271973 L12.632972717285156 12.701455116271973 C12.60516357421875 12.584309577941895 12.57735538482666 12.467164039611816 12.549546241760254 12.350018501281738 L12.549546241760254 12.350018501281738 C12.497518539428711 12.46762752532959 12.445491790771484 12.585237503051758 12.393464088439941 12.70284652709961 L12.393464088439941 12.70284652709961 C12.375284194946289 12.237712860107422 12.458944320678711 11.52883529663086 12.688037872314453 11.103873252868652 L12.688037872314453 11.103873252868652"></path>
<path fill="none" stroke="black" stroke-width=".3" stroke-opacity="1.0"  filling="0" d="M12.625608444213867 11.832982063293457 L12.625608444213867 11.832982063293457 C12.60655403137207 11.926254272460938 12.587499618530273 12.019527435302734 12.568445205688477 12.112799644470215 L12.568445205688477 12.112799644470215 C12.575854301452637 12.020099639892578 12.583263397216797 11.927399635314941 12.590672492980957 11.834699630737305 L12.590672492980957 11.834699630737305 C12.602317810058594 11.834127426147461 12.61396312713623 11.8335542678833 12.625608444213867 11.832982063293457 L12.625608444213867 11.832982063293457"></path></svg>