<svg xmlns="http://www.w3.org/2000/svg" viewBox="0.0 0.0 24.0 24.0" height="200px" width="200px"><path fill="none" stroke="black" stroke-width=".3" stroke-opacity="1.0"  filling="0" d="M-3.0245466232299805 6.653890609741211 L-3.0245466232299805 6.653890609741211 C-2.415619373321533 6.659517765045166 -1.8066917657852173 6.665145397186279 -1.1977643966674805 6.670772552490234 L-1.1977643966674805 6.670772552490234 C-1.1977643966674805 8.982309341430664 -1.1977643966674805 11.293845176696777 -1.1977643966674805 13.605381965637207 L-1.1977643966674805 13.605381965637207 C-1.0016731023788452 13.605381965637207 -0.8055817484855652 13.605381965637207 -0.6094903945922852 13.605381965637207 L-0.6094903945922852 13.605381965637207 C-0.6094903945922852 13.756455421447754 -0.6094903945922852 13.907527923583984 -0.6094903945922852 14.058601379394531 L-0.6094903945922852 14.058601379394531 C-1.2553534507751465 14.276238441467285 -2.3540520668029785 14.055732727050781 -3.054436683654785 14.086199760437012 L-3.054436683654785 14.086199760437012 C-3.055020809173584 13.818846702575684 -2.677006483078003 13.608726501464844 -2.409653663635254 13.609172821044922 L-2.409653663635254 13.609172821044922 C-2.409653663635254 11.446380615234375 -2.409653663635254 9.283592224121094 -2.409653663635254 7.120799541473389 L-2.409653663635254 7.120799541473389 C-2.6131086349487305 7.120799541473389 -2.816563606262207 7.120799541473389 -3.0200185775756836 7.120799541473389 L-3.0200185775756836 7.120799541473389 C-3.0215280055999756 6.965163230895996 -3.0230371952056885 6.8095269203186035 -3.0245466232299805 6.653890609741211 L-3.0245466232299805 6.653890609741211"></path></svg>