<svg xmlns="http://www.w3.org/2000/svg" viewBox="0.0 0.0 24.0 24.0" height="200px" width="200px"><path fill="none" stroke="black" stroke-width=".3" stroke-opacity="1.0"  filling="0" d="M12.498627662658691 11.761909484863281 L12.498627662658691 11.761909484863281 C12.719002723693848 11.812398910522461 12.920562744140625 11.745101928710938 13.082235336303711 11.92475414276123 L13.082235336303711 11.92475414276123 C12.77291202545166 12.103536605834961 12.456340789794922 12.473352432250977 12.191180229187012 12.587481498718262 L12.191180229187012 12.587481498718262 C12.248835563659668 12.439417839050293 12.306489944458008 12.291354179382324 12.364145278930664 12.143290519714355 L12.364145278930664 12.143290519714355 C12.354653358459473 12.00882625579834 12.427424430847168 11.876368522644043 12.498627662658691 11.761909484863281 L12.498627662658691 11.761909484863281"></path>
<path fill="none" stroke="black" stroke-width=".3" stroke-opacity="1.0"  filling="0" d="M12.8672456741333 11.884200096130371 L12.8672456741333 11.884200096130371 C12.870509147644043 11.893745422363281 12.873772621154785 11.903290748596191 12.877036094665527 11.912836074829102 L12.877036094665527 11.912836074829102 C12.764754295349121 11.975863456726074 12.652471542358398 12.038890838623047 12.540189743041992 12.10191822052002 L12.540189743041992 12.10191822052002 C12.649208068847656 12.029345512390137 12.758227348327637 11.956772804260254 12.8672456741333 11.884200096130371 L12.8672456741333 11.884200096130371"></path></svg>