<svg xmlns="http://www.w3.org/2000/svg" viewBox="0.0 0.0 24.0 24.0" height="200px" width="200px"><path fill="none" stroke="black" stroke-width=".3" stroke-opacity="1.0"  filling="0" d="M12.84621810913086 11.644964218139648 L12.84621810913086 11.644964218139648 C12.909109115600586 11.666654586791992 12.972000122070312 11.688345909118652 13.034891128540039 11.710036277770996 L13.034891128540039 11.710036277770996 C12.884618759155273 11.798827171325684 12.734345436096191 11.887619018554688 12.584073066711426 11.976409912109375 L12.584073066711426 11.976409912109375 C12.806290626525879 12.099891662597656 13.028509140014648 12.223373413085938 13.250726699829102 12.346855163574219 L13.250726699829102 12.346855163574219 C13.016936302185059 12.48361873626709 12.7831449508667 12.620382308959961 12.549354553222656 12.757145881652832 L12.549354553222656 12.757145881652832 C12.526744842529297 12.717564582824707 12.504136085510254 12.677982330322266 12.481526374816895 12.63840103149414 L12.481526374816895 12.63840103149414 C12.640217781066895 12.54395580291748 12.798908233642578 12.449509620666504 12.957599639892578 12.355064392089844 L12.957599639892578 12.355064392089844 C12.736454010009766 12.231337547302246 12.51530933380127 12.107609748840332 12.294163703918457 11.983882904052734 L12.294163703918457 11.983882904052734 C12.47721004486084 11.869341850280762 12.659858703613281 11.754032135009766 12.84621810913086 11.644964218139648 L12.84621810913086 11.644964218139648"></path></svg>