<svg xmlns="http://www.w3.org/2000/svg" viewBox="0.0 0.0 24.0 24.0" height="200px" width="200px"><path fill="none" stroke="black" stroke-width=".3" stroke-opacity="1.0"  filling="0" d="M13.305026054382324 8.808489799499512 L13.305026054382324 8.808489799499512 C13.516744613647461 8.891044616699219 13.728463172912598 8.973599433898926 13.940181732177734 9.056154251098633 L13.940181732177734 9.056154251098633 C13.867545127868652 9.140281677246094 13.794909477233887 9.224408149719238 13.722272872924805 9.3085355758667 L13.722272872924805 9.3085355758667 C14.630457878112793 10.153327941894531 12.844836235046387 10.153067588806152 12.341972351074219 10.000964164733887 C12.258618354797363 9.975751876831055 10.950514793395996 8.814352989196777 10.736808776855469 9.463363647460938 C10.67158317565918 9.661450386047363 12.366955757141113 9.88566780090332 11.7999267578125 10.088371276855469 C11.092519760131836 10.341257095336914 9.405689239501953 9.63401985168457 10.708853721618652 8.976734161376953 C11.363324165344238 8.646635055541992 12.58960247039795 8.864605903625488 13.305026054382324 8.808489799499512 L13.305026054382324 8.808489799499512"></path>
<path fill="none" stroke="black" stroke-width=".3" stroke-opacity="1.0"  filling="0" d="M12.564190864562988 9.329618453979492 L12.564190864562988 9.329618453979492 C12.839841842651367 9.3411226272583 13.179529190063477 9.35134506225586 13.358863830566406 9.560999870300293 L13.358863830566406 9.560999870300293 C12.942854881286621 9.495282173156738 12.526846885681152 9.429563522338867 12.110837936401367 9.363845825195312 L12.110837936401367 9.363845825195312 C12.261955261230469 9.352437019348145 12.413073539733887 9.34102725982666 12.564190864562988 9.329618453979492 L12.564190864562988 9.329618453979492"></path></svg>