<svg xmlns="http://www.w3.org/2000/svg" viewBox="0.0 0.0 24.0 24.0" height="200px" width="200px"><path fill="none" stroke="black" stroke-width=".3" stroke-opacity="1.0"  filling="0" d="M0.330108642578125 11.124136924743652 L0.330108642578125 11.124136924743652 C0.4917709231376648 11.154681205749512 0.6614333391189575 11.170759201049805 0.8233642578125 11.14167308807373 L0.8233642578125 11.14167308807373 C0.8436703085899353 11.279857635498047 0.8805335760116577 11.431734085083008 0.8268270492553711 11.560664176940918 L0.8268270492553711 11.560664176940918 C-0.7753453254699707 10.714292526245117 1.0944381952285767 12.241765975952148 0.9361915588378906 12.525928497314453 C0.6580767631530762 13.025337219238281 0.1663198471069336 12.835458755493164 -0.23871803283691406 12.888874053955078 L-0.23871803283691406 12.888874053955078 C-0.25709977746009827 12.703519821166992 -0.27548155188560486 12.51816463470459 -0.29386329650878906 12.332810401916504 L-0.29386329650878906 12.332810401916504 C-0.2648630142211914 12.332810401916504 -0.23586273193359375 12.332810401916504 -0.2068624496459961 12.332810401916504 L-0.2068624496459961 12.332810401916504 C0.04002469778060913 12.57607364654541 0.9987950921058655 12.847733497619629 0.4220466613769531 12.21474552154541 C-0.08622872829437256 11.656907081604004 -0.83636474609375 11.590372085571289 0.330108642578125 11.124136924743652 L0.330108642578125 11.124136924743652"></path></svg>