<svg xmlns="http://www.w3.org/2000/svg" viewBox="0.0 0.0 24.0 24.0" height="200px" width="200px"><path fill="none" stroke="black" stroke-width=".3" stroke-opacity="1.0"  filling="0" d="M7.714635848999023 11.155909538269043 L7.714635848999023 11.155909538269043 C8.15681266784668 11.155957221984863 8.956615447998047 10.912893295288086 9.026972770690918 11.34943675994873 C9.110456466674805 11.867427825927734 8.989006996154785 11.899068832397461 8.739354133605957 12.038346290588379 L8.739354133605957 12.038346290588379 C8.977328300476074 12.324151992797852 9.084395408630371 12.680448532104492 9.45302677154541 12.797645568847656 L9.45302677154541 12.797645568847656 C8.758158683776855 12.906968116760254 8.719331741333008 12.618220329284668 8.337054252624512 12.085336685180664 L8.337054252624512 12.085336685180664 C8.267754554748535 12.085336685180664 8.198453903198242 12.085336685180664 8.129154205322266 12.085336685180664 L8.129154205322266 12.085336685180664 C8.130831718444824 12.369400024414062 8.154067039489746 12.67258358001709 8.289408683776855 12.922337532043457 L8.289408683776855 12.922337532043457 C8.064754486083984 12.911791801452637 7.840099811553955 12.901247024536133 7.615445137023926 12.890701293945312 L7.615445137023926 12.890701293945312 C7.65865421295166 12.833573341369629 7.7018632888793945 12.776446342468262 7.745072364807129 12.719318389892578 L7.745072364807129 12.719318389892578 C7.743380546569824 12.001266479492188 7.964627742767334 11.63481616973877 7.586154460906982 11.190545082092285 L7.586154460906982 11.190545082092285 C7.628981590270996 11.178999900817871 7.67180871963501 11.167454719543457 7.714635848999023 11.155909538269043 L7.714635848999023 11.155909538269043"></path>
<path fill="none" stroke="black" stroke-width=".3" stroke-opacity="1.0"  filling="0" d="M8.128145217895508 11.306535720825195 L8.128145217895508 11.306535720825195 C9.185359954833984 11.420441627502441 8.136013984680176 12.606590270996094 8.128145217895508 11.306535720825195 L8.128145217895508 11.306535720825195"></path></svg>