<svg xmlns="http://www.w3.org/2000/svg" viewBox="0.0 0.0 24.0 24.0" height="200px" width="200px"><path fill="none" stroke="black" stroke-width=".3" stroke-opacity="1.0"  filling="0" d="M11.190489768981934 11.140472412109375 L11.190489768981934 11.140472412109375 C11.253880500793457 11.313982009887695 11.31727123260498 11.4874906539917 11.380661964416504 11.66100025177002 L11.380661964416504 11.66100025177002 C11.1575288772583 11.567123413085938 10.966245651245117 11.354728698730469 10.724207878112793 11.35039234161377 C9.203571319580078 11.323149681091309 11.045231819152832 13.815181732177734 11.045536041259766 12.115336418151855 L11.045536041259766 12.115336418151855 C10.907872200012207 12.153300285339355 10.770209312438965 12.191263198852539 10.632545471191406 12.229227066040039 L10.632545471191406 12.229227066040039 C10.645554542541504 12.127127647399902 10.658563613891602 12.02502727508545 10.6715726852417 11.922927856445312 L10.6715726852417 11.922927856445312 C10.950916290283203 11.936763763427734 11.231629371643066 11.932769775390625 11.510562896728516 11.912262916564941 L11.510562896728516 11.912262916564941 C11.435375213623047 12.280041694641113 11.427372932434082 12.391032218933105 11.427271842956543 12.847936630249023 L11.427271842956543 12.847936630249023 C10.846043586730957 12.714719772338867 10.047808647155762 12.77299690246582 9.73614501953125 12.264628410339355 C9.216363906860352 11.416790008544922 10.610650062561035 11.1118745803833 11.061735153198242 11.254419326782227 L11.061735153198242 11.254419326782227 C11.104653358459473 11.216437339782715 11.147571563720703 11.178454399108887 11.190489768981934 11.140472412109375 L11.190489768981934 11.140472412109375"></path></svg>