<svg xmlns="http://www.w3.org/2000/svg" viewBox="0.0 0.0 24.0 24.0" height="200px" width="200px"><path fill="none" stroke="black" stroke-width=".3" stroke-opacity="1.0"  filling="0" d="M10.132390975952148 11.243782043457031 L10.132390975952148 11.243782043457031 C10.272381782531738 11.264573097229004 10.412372589111328 11.28536319732666 10.552363395690918 11.306154251098633 L10.552363395690918 11.306154251098633 C10.55720043182373 11.365962982177734 10.562036514282227 11.425772666931152 10.566873550415039 11.485581398010254 L10.566873550415039 11.485581398010254 C10.459054946899414 11.469836235046387 10.351237297058105 11.454090118408203 10.24341869354248 11.438344955444336 L10.24341869354248 11.438344955444336 C10.197976112365723 11.766812324523926 10.231681823730469 11.849785804748535 10.545245170593262 11.882399559020996 L10.545245170593262 11.882399559020996 C10.562145233154297 11.951153755187988 10.579045295715332 12.019908905029297 10.595945358276367 12.088663101196289 L10.595945358276367 12.088663101196289 C10.495321273803711 12.068788528442383 10.392592430114746 12.056275367736816 10.290026664733887 12.055553436279297 L10.290026664733887 12.055553436279297 C10.298171997070312 12.18030834197998 10.306318283081055 12.305063247680664 10.31446361541748 12.429818153381348 L10.31446361541748 12.429818153381348 C10.75136661529541 12.466012001037598 10.720016479492188 12.672523498535156 10.251327514648438 12.619718551635742 L10.251327514648438 12.619718551635742 C10.094300270080566 12.239790916442871 10.103297233581543 11.642960548400879 10.132390975952148 11.243782043457031 L10.132390975952148 11.243782043457031"></path></svg>