<svg xmlns="http://www.w3.org/2000/svg" viewBox="0.0 0.0 24.0 24.0" height="200px" width="200px"><path fill="none" stroke="black" stroke-width=".3" stroke-opacity="1.0"  filling="0" d="M6.652554512023926 11.8650541305542 L6.652554512023926 11.8650541305542 C6.729718208312988 11.873981475830078 6.806881904602051 11.882908821105957 6.884045600891113 11.891836166381836 L6.884045600891113 11.891836166381836 C6.865218162536621 11.972490310668945 6.846390724182129 12.053145408630371 6.827563285827637 12.13379955291748 L6.827563285827637 12.13379955291748 C7.365206718444824 12.517172813415527 6.565854549407959 13.00971794128418 6.363436698913574 13.512327194213867 L6.363436698913574 13.512327194213867 C6.578536510467529 13.366718292236328 6.793636322021484 13.221108436584473 7.0087361335754395 13.075499534606934 L7.0087361335754395 13.075499534606934 C7.017327308654785 13.087736129760742 7.025918006896973 13.09997272491455 7.034509181976318 13.11220932006836 L7.034509181976318 13.11220932006836 C6.286472797393799 13.748546600341797 5.898406982421875 13.669306755065918 6.3982367515563965 12.691363334655762 L6.3982367515563965 12.691363334655762 C6.3749823570251465 12.707326889038086 6.351727485656738 12.723291397094727 6.328473091125488 12.73925495147705 L6.328473091125488 12.73925495147705 C6.318045616149902 12.728763580322266 6.307618141174316 12.718273162841797 6.2971906661987305 12.707781791687012 L6.2971906661987305 12.707781791687012 C6.427376747131348 12.514619827270508 6.586880207061768 11.909852981567383 6.652554512023926 11.8650541305542 L6.652554512023926 11.8650541305542"></path></svg>