<svg xmlns="http://www.w3.org/2000/svg" viewBox="0.0 0.0 24.0 24.0" height="200px" width="200px"><path fill="none" stroke="black" stroke-width=".3" stroke-opacity="1.0"  filling="0" d="M7.581818103790283 12.190908432006836 L7.581818103790283 12.190908432006836 C7.770288467407227 12.327483177185059 7.951117992401123 12.49371337890625 8.060754776000977 12.699026107788086 L8.060754776000977 12.699026107788086 C7.998454570770264 12.73482608795166 7.936154365539551 12.77062702178955 7.873854160308838 12.806427001953125 L7.873854160308838 12.806427001953125 C8.064722061157227 12.780348777770996 8.236291885375977 12.729522705078125 8.430246353149414 12.738571166992188 L8.425254821777344 12.734371185302734 C8.493618965148926 12.798032760620117 8.585297584533691 12.912093162536621 8.669536590576172 12.87171745300293 L8.669536590576172 12.87171745300293 C8.689154624938965 12.891154289245605 8.708772659301758 12.910591125488281 8.72839069366455 12.930027961730957 L8.72839069366455 12.930027961730957 C8.731202125549316 13.077157974243164 8.684033393859863 13.221627235412598 8.645454406738281 13.36363697052002 L8.645454406738281 13.36363697052002 C8.290908813476562 13.36363697052002 7.936363697052002 13.36363697052002 7.581818103790283 13.36363697052002 L7.581818103790283 13.36363697052002 C7.581818103790283 12.97272777557373 7.581818103790283 12.581817626953125 7.581818103790283 12.190908432006836 L7.581818103790283 12.190908432006836"></path></svg>