<svg xmlns="http://www.w3.org/2000/svg" viewBox="0.0 0.0 24.0 24.0" height="200px" width="200px"><path fill="none" stroke="black" stroke-width=".3" stroke-opacity="1.0"  filling="0" d="M6.02528190612793 12.085474014282227 L6.02528190612793 12.085474014282227 C6.145668029785156 12.31760311126709 4.404939651489258 14.377503395080566 5.950636386871338 13.017083168029785 C6.066847324371338 12.914802551269531 6.181654453277588 12.810937881469727 6.297163486480713 12.707864761352539 L6.297163486480713 12.707864761352539 C6.307590961456299 12.718356132507324 6.318017959594727 12.728846549987793 6.3284454345703125 12.739337921142578 L6.3284454345703125 12.739337921142578 C5.9627766609191895 13.084049224853516 5.344243049621582 13.936481475830078 4.845000743865967 13.419792175292969 L4.845000743865967 13.419792175292969 C4.711818695068359 13.482892036437988 4.578636169433594 13.545990943908691 4.445454120635986 13.609090805053711 L4.445454120635986 13.609090805053711 C4.445454120635986 13.581818580627441 4.445454120635986 13.554545402526855 4.445454120635986 13.527273178100586 L4.445454120635986 13.527273178100586 C4.569927215576172 13.472118377685547 4.694399833679199 13.416964530944824 4.818872928619385 13.361809730529785 L4.818872928619385 13.361809730529785 C5.101639747619629 12.7330322265625 5.288511276245117 12.254401206970215 6.02528190612793 12.085474014282227 L6.02528190612793 12.085474014282227"></path>
<path fill="none" stroke="black" stroke-width=".3" stroke-opacity="1.0"  filling="0" d="M6.080318450927734 12.133308410644531 L6.080318450927734 12.133308410644531 C6.02672004699707 12.503605842590332 5.544562816619873 12.856644630432129 5.265954494476318 13.038246154785156 L5.265954494476318 13.038246154785156 C5.53740930557251 12.736599922180176 5.808863639831543 12.434954643249512 6.080318450927734 12.133308410644531 L6.080318450927734 12.133308410644531"></path></svg>