<svg xmlns="http://www.w3.org/2000/svg" viewBox="0.0 0.0 24.0 24.0" height="200px" width="200px"><path fill="none" stroke="black" stroke-width=".3" stroke-opacity="1.0"  filling="0" d="M10.515544891357422 10.924145698547363 L10.515544891357422 10.924145698547363 C10.681990623474121 11.408154487609863 10.84843635559082 11.89216423034668 11.01488208770752 12.37617301940918 L11.01488208770752 12.37617301940918 C10.95879077911377 12.37617301940918 10.902700424194336 12.37617301940918 10.846609115600586 12.37617301940918 L10.846609115600586 12.37617301940918 C10.786436080932617 12.219191551208496 10.726263999938965 12.062209129333496 10.666090965270996 11.905227661132812 L10.666090965270996 11.905227661132812 C10.328908920288086 12.073182106018066 9.991726875305176 12.241135597229004 9.654544830322266 12.409090042114258 L9.654544830322266 12.409090042114258 C9.654544830322266 12.372726440429688 9.654544830322266 12.336362838745117 9.654544830322266 12.299999237060547 L9.654544830322266 12.299999237060547 C9.945903778076172 11.844138145446777 10.231170654296875 11.38439655303955 10.515544891357422 10.924145698547363 L10.515544891357422 10.924145698547363"></path>
<path fill="none" stroke="black" stroke-width=".3" stroke-opacity="1.0"  filling="0" d="M10.47984504699707 11.342072486877441 L10.47984504699707 11.342072486877441 C10.554807662963867 11.572287559509277 10.328232765197754 11.857828140258789 10.113190650939941 11.969072341918945 L10.113190650939941 11.969072341918945 C10.102644920349121 11.963354110717773 10.092100143432617 11.957636833190918 10.081554412841797 11.951918601989746 L10.081554412841797 11.951918601989746 C10.20361614227295 11.742035865783691 10.255823135375977 11.435688972473145 10.47984504699707 11.342072486877441 L10.47984504699707 11.342072486877441"></path></svg>