<svg xmlns="http://www.w3.org/2000/svg" viewBox="0.0 0.0 24.0 24.0" height="200px" width="200px"><path fill="none" stroke="black" stroke-width=".3" stroke-opacity="1.0"  filling="0" d="M10.434900283813477 10.681498527526855 L10.434900283813477 10.681498527526855 C10.838170051574707 11.348895072937012 10.852592468261719 12.348663330078125 10.657010078430176 13.113924980163574 L10.657010078430176 13.113924980163574 C10.535582542419434 13.094507217407227 10.414155960083008 13.075088500976562 10.292728424072266 13.055670738220215 L10.292728424072266 13.055670738220215 C10.292728424072266 12.99870777130127 10.292728424072266 12.941743850708008 10.292728424072266 12.884780883789062 L10.292728424072266 12.884780883789062 C10.278337478637695 12.87929916381836 10.263945579528809 12.873817443847656 10.249554634094238 12.868335723876953 L10.249554634094238 12.868335723876953 C9.778385162353516 13.474645614624023 9.447076797485352 12.470033645629883 9.620399475097656 12.089098930358887 C9.808956146240234 11.674683570861816 10.338728904724121 11.620271682739258 10.336336135864258 11.143908500671387 L10.336336135864258 11.143908500671387 C10.297272682189941 11.123044967651367 10.258209228515625 11.102180480957031 10.219145774841309 11.081316947937012 L10.219145774841309 11.081316947937012 C9.603480339050293 11.772482872009277 9.54382610321045 10.731183052062988 10.434900283813477 10.681498527526855 L10.434900283813477 10.681498527526855"></path>
<path fill="none" stroke="black" stroke-width=".3" stroke-opacity="1.0"  filling="0" d="M10.285308837890625 12.004581451416016 L10.285308837890625 12.004581451416016 C10.199544906616211 12.175881385803223 10.113781929016113 12.347182273864746 10.0280179977417 12.518482208251953 L10.0280179977417 12.518482208251953 C10.113781929016113 12.347182273864746 10.199544906616211 12.175881385803223 10.285308837890625 12.004581451416016 L10.285308837890625 12.004581451416016"></path></svg>