<svg xmlns="http://www.w3.org/2000/svg" viewBox="0.0 0.0 24.0 24.0" height="200px" width="200px"><path fill="none" stroke="black" stroke-width=".3" stroke-opacity="1.0"  filling="0" d="M7.996090888977051 8.94758129119873 L7.996090888977051 8.94758129119873 C8.91519832611084 9.167076110839844 8.427966117858887 9.483665466308594 8.42758560180664 10.994815826416016 C8.427249908447266 12.329855918884277 8.279178619384766 13.771018981933594 8.41516399383545 15.097500801086426 L8.41516399383545 15.097500801086426 C8.116336822509766 15.097500801086426 7.817509174346924 15.097500801086426 7.518681526184082 15.097500801086426 L7.518681526184082 15.097500801086426 C7.518681526184082 14.131373405456543 7.518681526184082 13.16524600982666 7.518681526184082 12.199118614196777 L7.518681526184082 12.199118614196777 C7.395945072174072 12.199118614196777 7.2732086181640625 12.199118614196777 7.150472164154053 12.199118614196777 L7.150472164154053 12.199118614196777 C6.967079162597656 13.053912162780762 7.070207118988037 14.30435848236084 7.134544849395752 15.073636054992676 L7.134544849395752 15.073636054992676 C6.792726993560791 15.073636054992676 6.450908660888672 15.073636054992676 6.109090805053711 15.073636054992676 L6.109090805053711 15.073636054992676 C6.110673904418945 13.04495906829834 6.109090805053711 11.017285346984863 6.109090805053711 8.988409042358398 L6.109090805053711 8.988409042358398 C6.448745250701904 8.993145942687988 6.788400173187256 8.997881889343262 7.128054618835449 9.002618789672852 L7.128054618835449 9.002618789672852 C7.096011161804199 9.506941795349121 6.693970680236816 11.377994537353516 7.520536422729492 11.330945014953613 L7.520536422729492 11.330945014953613 C7.518507480621338 10.544913291931152 7.513476848602295 9.758882522583008 7.505208969116211 8.972890853881836 L7.505208969116211 8.972890853881836 C7.6688361167907715 8.964454650878906 7.83246374130249 8.95601749420166 7.996090888977051 8.94758129119873 L7.996090888977051 8.94758129119873"></path></svg>