<svg xmlns="http://www.w3.org/2000/svg" viewBox="0.0 0.0 24.0 24.0" height="200px" width="200px"><path fill="none" stroke="black" stroke-width=".3" stroke-opacity="1.0"  filling="0" d="M13.963909149169922 8.950063705444336 L13.963909149169922 8.950063705444336 C14.301258087158203 8.972306251525879 14.63477897644043 8.97272777557373 14.972782135009766 8.97272777557373 L14.972782135009766 8.97272777557373 C14.972782135009766 10.400816917419434 15.530572891235352 13.328080177307129 14.860172271728516 14.58564567565918 C14.327498435974121 15.584856986999512 13.185577392578125 15.175617218017578 12.596153259277344 14.502300262451172 C12.13661003112793 13.977350234985352 12.518062591552734 13.108404159545898 12.518095016479492 12.410727500915527 C12.518147468566895 11.267121315002441 12.518098831176758 10.123504638671875 12.518098831176758 8.979899406433105 L12.518098831176758 8.979899406433105 C12.8407621383667 8.979899406433105 13.163426399230957 8.979899406433105 13.486089706420898 8.979899406433105 L13.486089706420898 8.979899406433105 C13.406464576721191 10.250873565673828 13.469950675964355 11.544211387634277 13.470816612243652 12.817091941833496 C13.471162796020508 13.326549530029297 13.27244758605957 14.441118240356445 13.766453742980957 14.316598892211914 C14.513542175292969 14.128288269042969 13.964077949523926 12.78415584564209 13.964129447937012 12.013700485229492 C13.964168548583984 11.429817199707031 13.715767860412598 9.672554969787598 13.963909149169922 8.950063705444336 L13.963909149169922 8.950063705444336"></path></svg>