<svg xmlns="http://www.w3.org/2000/svg" viewBox="0.0 0.0 24.0 24.0" height="200px" width="200px"><path fill="none" stroke="black" stroke-width=".3" stroke-opacity="1.0"  filling="0" d="M11.13147258758545 10.654500007629395 L11.13147258758545 10.654500007629395 C11.241186141967773 10.676197052001953 11.353291511535645 10.689013481140137 11.465126991271973 10.689790725708008 L11.465126991271973 10.689790725708008 C11.484335899353027 10.730545043945312 11.503545761108398 10.771300315856934 11.522754669189453 10.812054634094238 L11.522754669189453 10.812054634094238 C12.370026588439941 10.25047492980957 12.182381629943848 12.68835163116455 12.182073593139648 13.090717315673828 L12.182073593139648 13.090717315673828 C11.40680980682373 13.090503692626953 11.83251667022705 11.801921844482422 11.792839050292969 11.221772193908691 L11.792839050292969 11.221772193908691 C11.699048042297363 11.221872329711914 11.605257034301758 11.22197151184082 11.511466026306152 11.222071647644043 L11.511466026306152 11.222071647644043 C11.499692916870117 11.851862907409668 11.487920761108398 12.481654167175293 11.476147651672363 13.111445426940918 L11.476147651672363 13.111445426940918 C11.352547645568848 13.111445426940918 11.228947639465332 13.111445426940918 11.105347633361816 13.111445426940918 L11.105347633361816 13.111445426940918 C11.106344223022461 12.292417526245117 11.1151704788208 11.473365783691406 11.13147258758545 10.654500007629395 L11.13147258758545 10.654500007629395"></path></svg>