<svg xmlns="http://www.w3.org/2000/svg" viewBox="0.0 0.0 24.0 24.0" height="200px" width="200px"><path fill="none" stroke="black" stroke-width=".3" stroke-opacity="1.0"  filling="0" d="M10.159391403198242 10.916072845458984 L10.159391403198242 10.916072845458984 C10.26385498046875 10.916072845458984 10.368318557739258 10.916072845458984 10.472782135009766 10.916072845458984 L10.472782135009766 10.916072845458984 C10.462045669555664 11.109217643737793 10.451309204101562 11.302363395690918 10.440572738647461 11.495508193969727 L10.440572738647461 11.495508193969727 C11.325495719909668 11.362841606140137 10.936023712158203 12.551347732543945 10.903225898742676 13.0878267288208 L10.903225898742676 13.0878267288208 C10.793880462646484 13.08558177947998 10.684535026550293 13.083335876464844 10.575189590454102 13.081090927124023 L10.575189590454102 13.081090927124023 C10.59660816192627 12.647076606750488 10.716761589050293 12.199597358703613 10.61159896850586 11.777972221374512 L10.61159896850586 11.777972221374512 C10.541699409484863 11.786917686462402 10.47179889678955 11.795863151550293 10.401899337768555 11.804808616638184 L10.401899337768555 11.804808616638184 C10.358918190002441 12.222999572753906 10.315936088562012 12.641190528869629 10.272954940795898 13.059381484985352 L10.272954940795898 13.059381484985352 C9.549300193786621 12.987504005432129 10.09371280670166 11.464563369750977 10.159391403198242 10.916072845458984 L10.159391403198242 10.916072845458984"></path></svg>