<svg xmlns="http://www.w3.org/2000/svg" viewBox="0.0 0.0 24.0 24.0" height="200px" width="200px"><path fill="none" stroke="black" stroke-width=".3" stroke-opacity="1.0"  filling="0" d="M12.622501373291016 8.894017219543457 L12.622501373291016 8.894017219543457 C14.331013679504395 9.280208587646484 13.870201110839844 10.522551536560059 13.853891372680664 12.05075454711914 C13.841766357421875 13.186844825744629 14.19892692565918 15.293472290039062 12.369900703430176 15.1351900100708 C10.794513702392578 14.998857498168945 11.212775230407715 13.197999000549316 11.222888946533203 12.117459297180176 C11.237383842468262 10.568862915039062 10.766960144042969 9.118502616882324 12.622501373291016 8.894017219543457 L12.622501373291016 8.894017219543457"></path>
<path fill="none" stroke="black" stroke-width=".3" stroke-opacity="1.0"  filling="0" d="M12.727445602416992 9.76303482055664 L12.727445602416992 9.76303482055664 C13.04804801940918 10.437543869018555 12.859914779663086 11.44379711151123 12.85958194732666 12.177190780639648 L12.85958194732666 12.177190780639648 C12.854872703552246 12.177200317382812 12.850163459777832 12.17720890045166 12.845454216003418 12.177218437194824 L12.845454216003418 12.177218437194824 C12.845163345336914 12.440790176391602 12.8486967086792 12.704394340515137 12.844582557678223 12.967934608459473 C12.839214324951172 13.311788558959961 12.903214454650879 13.666336059570312 12.817009925842285 13.999252319335938 C12.72089672088623 14.37043571472168 12.323526382446289 14.335542678833008 12.247282028198242 13.998844146728516 C12.012763977050781 12.963208198547363 11.950252532958984 10.208366394042969 12.727445602416992 9.76303482055664 L12.727445602416992 9.76303482055664"></path></svg>