<svg xmlns="http://www.w3.org/2000/svg" viewBox="0.0 0.0 24.0 24.0" height="200px" width="200px"><path fill="none" stroke="black" stroke-width=".3" stroke-opacity="1.0"  filling="0" d="M13.89897346496582 10.993145942687988 L13.89897346496582 10.993145942687988 C13.90909194946289 11.164909362792969 13.919209480285645 11.336673736572266 13.929327964782715 11.508437156677246 L13.929327964782715 11.508437156677246 C13.992273330688477 11.508437156677246 14.055218696594238 11.508437156677246 14.1181640625 11.508437156677246 L14.1181640625 11.508437156677246 C14.12631893157959 11.62061882019043 14.134472846984863 11.73280143737793 14.142627716064453 11.844983100891113 L14.142627716064453 11.844983100891113 C14.07247257232666 11.855583190917969 14.002318382263184 11.866182327270508 13.93216323852539 11.876782417297363 L13.93216323852539 11.876782417297363 C13.97758674621582 12.287345886230469 14.027351379394531 12.702041625976562 13.963363647460938 13.113110542297363 L13.963363647460938 13.113110542297363 C13.857927322387695 13.113109588623047 13.752490997314453 13.113109588623047 13.647054672241211 13.11310863494873 L13.647054672241211 13.11310863494873 C13.623727798461914 12.706608772277832 13.6003999710083 12.300108909606934 13.577073097229004 11.893609046936035 L13.577073097229004 11.893609046936035 C13.5090913772583 11.893609046936035 13.441108703613281 11.893609046936035 13.373126983642578 11.893609046936035 L13.373126983642578 11.893609046936035 C13.373126983642578 11.776336669921875 13.373126983642578 11.659063339233398 13.373126983642578 11.541790962219238 L13.373126983642578 11.541790962219238 C13.429563522338867 11.53839111328125 13.486000061035156 11.534991264343262 13.542436599731445 11.531591415405273 L13.542436599731445 11.531591415405273 C13.542436599731445 11.357072830200195 13.542436599731445 11.182555198669434 13.542436599731445 11.008036613464355 L13.542436599731445 11.008036613464355 C13.661282539367676 11.003072738647461 13.78012752532959 10.998109817504883 13.89897346496582 10.993145942687988 L13.89897346496582 10.993145942687988"></path></svg>