<svg xmlns="http://www.w3.org/2000/svg" viewBox="0.0 0.0 24.0 24.0" height="200px" width="200px"><path fill="none" stroke="black" stroke-width=".3" stroke-opacity="1.0"  filling="0" d="M13.057446479797363 11.575446128845215 L13.057446479797363 11.575446128845215 C12.928564071655273 11.627436637878418 12.7996826171875 11.679428100585938 12.67080020904541 11.73141860961914 L12.67080020904541 11.73141860961914 C12.653000831604004 11.762207984924316 12.638175964355469 11.794777870178223 12.625391006469727 11.827964782714844 L12.625391006469727 11.827964782714844 C12.757027626037598 11.8277006149292 12.888663291931152 11.827437400817871 13.020299911499023 11.827173233032227 L13.020299911499023 11.827173233032227 C12.839420318603516 11.912917137145996 12.649486541748047 11.985416412353516 12.453218460083008 12.024764060974121 L12.453218460083008 12.024764060974121 C12.5521821975708 12.064254760742188 12.651144981384277 12.10374641418457 12.75010871887207 12.143237113952637 L12.75010871887207 12.143237113952637 C12.616708755493164 12.17015552520752 12.483308792114258 12.197072982788086 12.349908828735352 12.223991394042969 L12.349908828735352 12.223991394042969 C12.458319664001465 11.653148651123047 12.505148887634277 11.5795316696167 13.057446479797363 11.575446128845215 L13.057446479797363 11.575446128845215"></path></svg>