<svg xmlns="http://www.w3.org/2000/svg" viewBox="0.0 0.0 24.0 24.0" height="200px" width="200px"><path fill="none" stroke="black" stroke-width=".3" stroke-opacity="1.0"  filling="0" d="M8.813617706298828 11.238656044006348 L8.813617706298828 11.238656044006348 C9.271610260009766 11.449026107788086 9.215105056762695 11.703753471374512 9.121227264404297 12.16270923614502 L9.121227264404297 12.16270923614502 C8.966691017150879 12.142900466918945 8.812154769897461 12.123091697692871 8.657618522644043 12.103282928466797 L8.657618522644043 12.103282928466797 C8.632525444030762 12.238713264465332 8.573336601257324 12.400030136108398 8.647090911865234 12.51635456085205 L8.647090911865234 12.51635456085205 C8.705512046813965 12.472028732299805 8.740264892578125 12.398140907287598 8.759919166564941 12.32749080657959 L8.759919166564941 12.32749080657959 C8.870046615600586 12.34109115600586 8.980173110961914 12.354690551757812 9.090300559997559 12.368290901184082 L9.090300559997559 12.368290901184082 C8.687374114990234 13.517866134643555 7.847997188568115 11.97424030303955 8.813617706298828 11.238656044006348 L8.813617706298828 11.238656044006348"></path>
<path fill="none" stroke="black" stroke-width=".3" stroke-opacity="1.0"  filling="0" d="M8.75424575805664 11.567509651184082 L8.75424575805664 11.567509651184082 C8.798911094665527 11.63297176361084 8.7747802734375 11.767650604248047 8.70220947265625 11.799490928649902 L8.70220947265625 11.799490928649902 C8.719554901123047 11.722164154052734 8.736900329589844 11.64483642578125 8.75424575805664 11.567509651184082 L8.75424575805664 11.567509651184082"></path></svg>