<svg xmlns="http://www.w3.org/2000/svg" viewBox="0.0 0.0 24.0 24.0" height="200px" width="200px"><path fill="none" stroke="black" stroke-width=".3" stroke-opacity="1.0"  filling="0" d="M10.270583152770996 10.852580070495605 L10.270583152770996 10.852580070495605 C10.315028190612793 10.926953315734863 10.35947322845459 11.001325607299805 10.403918266296387 11.075698852539062 L10.403918266296387 11.075698852539062 C9.902118682861328 11.365289688110352 9.400318145751953 11.65488052368164 8.898518562316895 11.94447135925293 L8.898518562316895 11.94447135925293 C8.902933120727539 11.946998596191406 10.88768482208252 13.08309555053711 10.89466381072998 13.087090492248535 L10.89466381072998 13.087090492248535 C10.280972480773926 13.454134941101074 9.667281150817871 13.82118034362793 9.053590774536133 14.188226699829102 L9.053590774536133 14.188226699829102 C8.993672370910645 14.107763290405273 8.933754920959473 14.027298927307129 8.873836517333984 13.9468355178833 L8.873836517333984 13.9468355178833 C9.361445426940918 13.662489891052246 9.849055290222168 13.378144264221191 10.336664199829102 13.093798637390137 L10.336664199829102 13.093798637390137 C9.68925666809082 12.708738327026367 9.038921356201172 12.328557968139648 8.385764122009277 11.95333480834961 L8.385764122009277 11.95333480834961 C9.014039039611816 11.586420059204102 9.642312049865723 11.219501495361328 10.270583152770996 10.852580070495605 L10.270583152770996 10.852580070495605"></path></svg>