<svg xmlns="http://www.w3.org/2000/svg" viewBox="0.0 0.0 24.0 24.0" height="200px" width="200px"><path fill="none" stroke="black" stroke-width=".3" stroke-opacity="1.0"  filling="0" d="M11.869363784790039 11.614445686340332 L11.869363784790039 11.614445686340332 C11.880208969116211 11.675264358520508 11.8910551071167 11.736082077026367 11.901900291442871 11.796900749206543 L11.901900291442871 11.796900749206543 C11.931181907653809 11.809955596923828 11.960464477539062 11.823009490966797 11.98974609375 11.836064338684082 L11.98974609375 11.836064338684082 C11.957500457763672 11.932418823242188 11.925253868103027 12.028773307800293 11.8930082321167 12.125127792358398 L11.8930082321167 12.125127792358398 C11.931880950927734 12.15559196472168 11.97075366973877 12.186055183410645 12.009626388549805 12.216519355773926 L12.009626388549805 12.216519355773926 C11.96410846710205 12.235928535461426 11.918590545654297 12.255337715148926 11.873072624206543 12.274746894836426 L11.873072624206543 12.274746894836426 C11.810773849487305 12.143278121948242 11.76346492767334 12.003718376159668 11.732399940490723 11.861591339111328 L11.732399940490723 11.861591339111328 C11.75102710723877 11.8047456741333 11.769654273986816 11.74790096282959 11.788281440734863 11.691055297851562 L11.788281440734863 11.691055297851562 C11.77987289428711 11.686182975769043 11.771463394165039 11.681309700012207 11.763054847717285 11.676437377929688 L11.763054847717285 11.676437377929688 C11.798491477966309 11.655773162841797 11.833927154541016 11.635109901428223 11.869363784790039 11.614445686340332 L11.869363784790039 11.614445686340332"></path></svg>