<svg xmlns="http://www.w3.org/2000/svg" viewBox="0.0 0.0 24.0 24.0" height="200px" width="200px"><path fill="none" stroke="black" stroke-width=".3" stroke-opacity="1.0"  filling="0" d="M9.135845184326172 11.59974479675293 L9.135845184326172 11.59974479675293 C9.145709037780762 11.601062774658203 9.155572891235352 11.602380752563477 9.165436744689941 11.60369873046875 L9.165436744689941 11.60369873046875 C9.177136421203613 11.662790298461914 9.188837051391602 11.721880912780762 9.200536727905273 11.780972480773926 L9.200536727905273 11.780972480773926 C9.223791122436523 11.807290077209473 9.247045516967773 11.833608627319336 9.270299911499023 11.859926223754883 L9.270299911499023 11.859926223754883 C9.243363380432129 11.877854347229004 9.21642780303955 11.895781517028809 9.189491271972656 11.91370964050293 L9.189491271972656 11.91370964050293 C9.221923828125 12.027799606323242 9.265523910522461 12.14224624633789 9.267708778381348 12.260835647583008 L9.267708778381348 12.260835647583008 C9.162569999694824 12.143386840820312 9.069818496704102 12.001855850219727 9.038018226623535 11.847463607788086 L9.038018226623535 11.847463607788086 C9.070627212524414 11.764890670776367 9.103236198425293 11.682317733764648 9.135845184326172 11.59974479675293 L9.135845184326172 11.59974479675293"></path></svg>