<svg xmlns="http://www.w3.org/2000/svg" viewBox="0.0 0.0 24.0 24.0" height="200px" width="200px"><path fill="none" stroke="black" stroke-width=".3" stroke-opacity="1.0"  filling="0" d="M-1.000173568725586 9.669736862182617 L-1.000173568725586 9.669736862182617 C-0.44322073459625244 9.669736862182617 -0.7363100051879883 12.244138717651367 -0.7363100051879883 12.535173416137695 L-0.7363100051879883 12.535173416137695 C-0.06526869535446167 12.020392417907715 0.27673566341400146 11.33413028717041 1.091862678527832 11.0850830078125 L1.091862678527832 11.0850830078125 C0.6154962182044983 11.561515808105469 0.13913309574127197 12.037951469421387 -0.33722686767578125 12.51439094543457 L-0.33722686767578125 12.51439094543457 C0.11230027675628662 12.977745056152344 0.5618273019790649 13.441100120544434 1.0113544464111328 13.904454231262207 L1.0113544464111328 13.904454231262207 C1.0073270797729492 13.913790702819824 1.0032997131347656 13.923127174377441 0.999272346496582 13.932463645935059 L0.999272346496582 13.932463645935059 C0.2665885090827942 13.740326881408691 -0.18207257986068726 13.057327270507812 -0.7068004608154297 12.535964012145996 L-0.7068004608154297 12.535964012145996 C-0.7178824543952942 13.000136375427246 -0.7289645075798035 13.464309692382812 -0.740046501159668 13.928482055664062 L-0.740046501159668 13.928482055664062 C-0.820637047290802 13.928482055664062 -0.9012276530265808 13.928482055664062 -0.9818181991577148 13.928482055664062 L-0.9818181991577148 13.928482055664062 C-0.9818181991577148 12.515734672546387 -1.0855414867401123 11.077091217041016 -1.000173568725586 9.669736862182617 L-1.000173568725586 9.669736862182617"></path></svg>