<svg xmlns="http://www.w3.org/2000/svg" viewBox="0.0 0.0 24.0 24.0" height="200px" width="200px"><path fill="none" stroke="black" stroke-width=".3" stroke-opacity="1.0"  filling="0" d="M6.933517932891846 11.429619789123535 L6.933517932891846 11.429619789123535 C7.027076721191406 11.50840950012207 7.145646095275879 11.585728645324707 7.177308559417725 11.703874588012695 L7.177308559417725 11.703874588012695 C7.1145124435424805 11.736496925354004 6.637087821960449 11.635934829711914 6.583962917327881 11.630156517028809 L6.583962917327881 11.630156517028809 C6.424662113189697 12.023677825927734 6.497478485107422 12.46971607208252 6.973799705505371 12.11460018157959 L6.973799705505371 12.11460018157959 C6.90724515914917 12.111282348632812 6.840691089630127 12.107963562011719 6.774136543273926 12.104645729064941 L6.774136543273926 12.104645729064941 C6.774136543273926 12.033599853515625 6.774136543273926 11.962554931640625 6.774136543273926 11.891509056091309 L6.774136543273926 11.891509056091309 C7.32269287109375 11.891768455505371 7.186014175415039 12.026866912841797 7.209408760070801 12.511091232299805 L7.209408760070801 12.511091232299805 C6.325229167938232 12.515595436096191 5.797051429748535 11.613313674926758 6.933517932891846 11.429619789123535 L6.933517932891846 11.429619789123535"></path></svg>