<svg xmlns="http://www.w3.org/2000/svg" viewBox="0.0 0.0 24.0 24.0" height="200px" width="200px"><path fill="none" stroke="black" stroke-width=".3" stroke-opacity="1.0"  filling="0" d="M11.610818862915039 11.860828399658203 L11.610818862915039 11.860828399658203 C11.696799278259277 11.9615478515625 11.661886215209961 12.121222496032715 11.673436164855957 12.253145217895508 L11.673436164855957 12.253145217895508 C11.524517059326172 12.26369571685791 11.358587265014648 12.170689582824707 11.276263236999512 12.046146392822266 L11.276263236999512 12.046146392822266 C11.373927116394043 12.013227462768555 11.471590995788574 11.98030948638916 11.569254875183105 11.94739055633545 L11.569254875183105 11.94739055633545 C11.471053123474121 11.92960262298584 11.364139556884766 11.92243480682373 11.269964218139648 11.955464363098145 L11.269964218139648 11.955464363098145 C11.38358211517334 11.923918724060059 11.497200965881348 11.892374038696289 11.610818862915039 11.860828399658203 L11.610818862915039 11.860828399658203"></path>
<path fill="none" stroke="black" stroke-width=".3" stroke-opacity="1.0"  filling="0" d="M11.554854393005371 12.046363830566406 L11.554854393005371 12.046363830566406 C11.5230712890625 12.098405838012695 11.417441368103027 12.132773399353027 11.376599311828613 12.087491989135742 L11.376599311828613 12.087491989135742 C11.436017990112305 12.073782920837402 11.49543571472168 12.060072898864746 11.554854393005371 12.046363830566406 L11.554854393005371 12.046363830566406"></path></svg>