<svg xmlns="http://www.w3.org/2000/svg" viewBox="0.0 0.0 24.0 24.0" height="200px" width="200px"><path fill="none" stroke="black" stroke-width=".3" stroke-opacity="1.0"  filling="0" d="M14.157272338867188 11.425853729248047 L14.157272338867188 11.425853729248047 C14.196808815002441 11.426335334777832 14.236346244812012 11.426817893981934 14.275882720947266 11.427299499511719 L14.275882720947266 11.427299499511719 C14.290410041809082 11.480671882629395 14.304936408996582 11.534045219421387 14.319463729858398 11.587417602539062 L14.319463729858398 11.587417602539062 C14.249249458312988 11.61545181274414 14.183146476745605 11.66018295288086 14.133381843566895 11.7170991897583 L14.133381843566895 11.7170991897583 C14.389631271362305 11.745951652526855 13.93413257598877 13.323006629943848 13.936527252197266 11.904000282287598 L13.936527252197266 11.904000282287598 C13.900799751281738 11.895191192626953 13.865073204040527 11.886381149291992 13.829345703125 11.877572059631348 L13.829345703125 11.877572059631348 C13.829345703125 11.842799186706543 13.829345703125 11.808027267456055 13.829345703125 11.77325439453125 L13.829345703125 11.77325439453125 C13.970590591430664 11.699714660644531 14.010555267333984 11.487757682800293 14.157272338867188 11.425853729248047 L14.157272338867188 11.425853729248047"></path></svg>