<svg xmlns="http://www.w3.org/2000/svg" viewBox="0.0 0.0 24.0 24.0" height="200px" width="200px"><path fill="none" stroke="black" stroke-width=".3" stroke-opacity="1.0"  filling="0" d="M13.676401138305664 11.663153648376465 L13.676401138305664 11.663153648376465 C13.781246185302734 11.66446304321289 13.886091232299805 11.665772438049316 13.990936279296875 11.667081832885742 L13.990936279296875 11.667081832885742 C13.991037368774414 12.112930297851562 13.934425354003906 13.165684700012207 13.271592140197754 12.479808807373047 L13.271592140197754 12.479808807373047 C13.274737358093262 12.46741771697998 13.27788257598877 12.455026626586914 13.281027793884277 12.442635536193848 L13.281027793884277 12.442635536193848 C13.346282958984375 12.432053565979004 13.411537170410156 12.421472549438477 13.476792335510254 12.410890579223633 L13.476792335510254 12.410890579223633 C13.579974174499512 12.398090362548828 13.683155059814453 12.38529109954834 13.786336898803711 12.372490882873535 L13.786336898803711 12.372490882873535 C13.077983856201172 12.428181648254395 13.178582191467285 11.73559284210205 13.676401138305664 11.663153648376465 L13.676401138305664 11.663153648376465"></path>
<path fill="none" stroke="black" stroke-width=".3" stroke-opacity="1.0"  filling="0" d="M13.655781745910645 11.836173057556152 L13.655781745910645 11.836173057556152 C14.014150619506836 12.32430648803711 13.229838371276855 12.222125053405762 13.655781745910645 11.836173057556152 L13.655781745910645 11.836173057556152"></path></svg>