<svg xmlns="http://www.w3.org/2000/svg" viewBox="0.0 0.0 24.0 24.0" height="200px" width="200px"><path fill="none" stroke="black" stroke-width=".3" stroke-opacity="1.0"  filling="0" d="M12.247282028198242 11.785581588745117 L12.247282028198242 11.785581588745117 C12.277681350708008 11.936772346496582 12.30808162689209 12.087964057922363 12.338480949401855 12.239154815673828 L12.338480949401855 12.239154815673828 C12.310951232910156 12.24268627166748 12.2827730178833 12.24206829071045 12.255217552185059 12.238746643066406 L12.255217552185059 12.238746643066406 C12.253342628479004 12.11954402923584 12.226469039916992 11.997416496276855 12.173726081848145 11.890501022338867 L12.173726081848145 11.890501022338867 C12.140190124511719 12.005019187927246 12.106653213500977 12.119537353515625 12.07311725616455 12.234055519104004 L12.07311725616455 12.234055519104004 C12.046435356140137 12.237746238708496 12.019753456115723 12.241437911987305 11.993071556091309 12.245128631591797 L11.993071556091309 12.245128631591797 C11.959708213806152 12.126537322998047 11.92634391784668 12.007946014404297 11.892980575561523 11.889354705810547 L11.892980575561523 11.889354705810547 C11.865416526794434 12.004764556884766 11.83785343170166 12.120173454284668 11.81028938293457 12.235583305358887 L11.81028938293457 12.235583305358887 C11.771489143371582 12.238592147827148 11.73268985748291 12.24160099029541 11.693889617919922 12.244609832763672 L11.693889617919922 12.244609832763672 C11.693899154663086 12.100672721862793 11.69390869140625 11.95673656463623 11.693918228149414 11.812799453735352 L11.693918228149414 11.812799453735352 C11.884142875671387 11.791372299194336 12.05311107635498 11.789024353027344 12.247282028198242 11.785581588745117 L12.247282028198242 11.785581588745117"></path></svg>