<svg xmlns="http://www.w3.org/2000/svg" viewBox="0.0 0.0 24.0 24.0" height="200px" width="200px"><path fill="none" stroke="black" stroke-width=".3" stroke-opacity="1.0"  filling="0" d="M9.546600341796875 11.422417640686035 L9.546600341796875 11.422417640686035 C9.623282432556152 11.429736137390137 9.699963569641113 11.437053680419922 9.77664566040039 11.444372177124023 L9.77664566040039 11.444372177124023 C9.640543937683105 12.030717849731445 9.450161933898926 13.199712753295898 9.147027969360352 11.887391090393066 L9.147027969360352 11.887391090393066 C9.102109909057617 12.095563888549805 9.057191848754883 12.303735733032227 9.012273788452148 12.511908531188965 L9.012273788452148 12.511908531188965 C8.932954788208008 12.511908531188965 8.853636741638184 12.511908531188965 8.774317741394043 12.511908531188965 L8.774317741394043 12.511908531188965 C8.725044250488281 12.326088905334473 8.330405235290527 11.374642372131348 8.730245590209961 11.43600082397461 L8.730245590209961 11.43600082397461 C8.785954475402832 11.642109870910645 8.84166431427002 11.848217964172363 8.89737319946289 12.054327011108398 L8.89737319946289 12.054327011108398 C8.945544242858887 11.887338638305664 8.911258697509766 11.424266815185547 9.135245323181152 11.42727279663086 C9.430115699768066 11.431230545043945 9.319859504699707 11.890507698059082 9.421009063720703 12.080727577209473 L9.421009063720703 12.080727577209473 C9.462872505187988 11.86129093170166 9.50473690032959 11.641854286193848 9.546600341796875 11.422417640686035 L9.546600341796875 11.422417640686035"></path></svg>