<svg xmlns="http://www.w3.org/2000/svg" viewBox="0.0 0.0 24.0 24.0" height="200px" width="200px"><path fill="none" stroke="black" stroke-width=".3" stroke-opacity="1.0"  filling="0" d="M9.445854187011719 11.489727020263672 L9.445854187011719 11.489727020263672 C9.688918113708496 11.489727020263672 9.931982040405273 11.489727020263672 10.17504596710205 11.489727020263672 L10.17504596710205 11.489727020263672 C10.181709289550781 11.541936874389648 10.188372611999512 11.594145774841309 10.195035934448242 11.646355628967285 L10.195035934448242 11.646355628967285 C10.012127876281738 11.696328163146973 9.778627395629883 11.708636283874512 9.669300079345703 11.863555908203125 L9.669300079345703 11.863555908203125 C10.187286376953125 11.862236976623535 10.176644325256348 12.082843780517578 9.655773162841797 12.081628799438477 L9.655773162841797 12.081628799438477 C9.655773162841797 12.234119415283203 9.655773162841797 12.38661003112793 9.655773162841797 12.539100646972656 L9.655773162841797 12.539100646972656 C9.585809707641602 12.539100646972656 9.51584529876709 12.539100646972656 9.445881843566895 12.539100646972656 L9.445881843566895 12.539100646972656 C9.44587230682373 12.189309120178223 9.445863723754883 11.839518547058105 9.445854187011719 11.489727020263672 L9.445854187011719 11.489727020263672"></path></svg>