<svg xmlns="http://www.w3.org/2000/svg" viewBox="0.0 0.0 24.0 24.0" height="200px" width="200px"><path fill="none" stroke="black" stroke-width=".3" stroke-opacity="1.0"  filling="0" d="M12.415308952331543 11.7001371383667 L12.415308952331543 11.7001371383667 C12.90101432800293 11.702149391174316 12.82438850402832 12.034671783447266 12.84327220916748 12.454009056091309 L12.84327220916748 12.454009056091309 C12.243549346923828 12.509960174560547 11.842967987060547 12.168166160583496 12.593563079833984 11.953009605407715 L12.593563079833984 11.953009605407715 C12.593563079833984 11.92688274383545 12.593563079833984 11.900754928588867 12.593563079833984 11.874628067016602 L12.593563079833984 11.874628067016602 C12.451725006103516 11.913163185119629 12.309608459472656 11.95071029663086 12.167073249816895 11.986581802368164 L12.167073249816895 11.986581802368164 C12.249818801879883 11.89109992980957 12.332563400268555 11.795619010925293 12.415308952331543 11.7001371383667 L12.415308952331543 11.7001371383667"></path>
<path fill="none" stroke="black" stroke-width=".3" stroke-opacity="1.0"  filling="0" d="M12.562745094299316 12.114190101623535 L12.562745094299316 12.114190101623535 C12.594234466552734 12.167481422424316 12.588244438171387 12.249236106872559 12.552245140075684 12.299590110778809 L12.552245140075684 12.299590110778809 C12.295791625976562 12.294411659240723 12.360116004943848 12.183780670166016 12.562745094299316 12.114190101623535 L12.562745094299316 12.114190101623535"></path></svg>