<svg xmlns="http://www.w3.org/2000/svg" viewBox="0.0 0.0 24.0 24.0" height="200px" width="200px"><path fill="none" stroke="black" stroke-width=".3" stroke-opacity="1.0"  filling="0" d="M10.254545211791992 10.963610649108887 L10.254545211791992 10.963610649108887 C10.390909194946289 10.963619232177734 10.527273178100586 10.963627815246582 10.663637161254883 10.96363639831543 L10.663637161254883 10.96363639831543 C10.575091361999512 11.160750389099121 10.25207805633545 11.13998794555664 10.03636360168457 11.127272605895996 L10.03636360168457 11.127272605895996 C10.03636360168457 11.07272720336914 10.03636360168457 11.018181800842285 10.03636360168457 10.96363639831543 L10.03636360168457 10.96363639831543 C10.090909004211426 10.96363639831543 10.145454406738281 10.96363639831543 10.199999809265137 10.96363639831543 L10.199999809265137 10.96363639831543 C10.155200004577637 10.979473114013672 10.110400199890137 10.995308876037598 10.065600395202637 11.01114559173584 L10.065600395202637 11.01114559173584 C10.065991401672363 11.022164344787598 10.066381454467773 11.033182144165039 10.0667724609375 11.044200897216797 L10.0667724609375 11.044200897216797 C10.171863555908203 11.056092262268066 10.276954650878906 11.06798267364502 10.38204574584961 11.079874038696289 L10.38204574584961 11.079874038696289 C10.387555122375488 11.068800926208496 10.39306354522705 11.05772876739502 10.39857292175293 11.046655654907227 L10.39857292175293 11.046655654907227 C10.360694885253906 11.006202697753906 10.307416915893555 10.980215072631836 10.254545211791992 10.963610649108887 L10.254545211791992 10.963610649108887"></path></svg>