<svg xmlns="http://www.w3.org/2000/svg" viewBox="0.0 0.0 24.0 24.0" height="200px" width="200px"><path fill="none" stroke="black" stroke-width=".3" stroke-opacity="1.0"  filling="0" d="M12.252327919006348 11.702508926391602 L12.252327919006348 11.702508926391602 C12.36720085144043 11.855400085449219 12.482072830200195 12.008291244506836 12.596945762634277 12.161182403564453 L12.596945762634277 12.161182403564453 C12.426936149597168 12.170400619506836 12.256927490234375 12.179618835449219 12.086917877197266 12.188837051391602 L12.086917877197266 12.188837051391602 C12.207572937011719 12.201300621032715 12.328227043151855 12.213764190673828 12.448882102966309 12.226227760314941 L12.448882102966309 12.226227760314941 C12.503947257995605 12.250984191894531 12.553047180175781 12.287991523742676 12.6004638671875 12.325363159179688 L12.6004638671875 12.325363159179688 C11.830591201782227 12.55617618560791 11.633405685424805 12.202678680419922 12.252327919006348 11.702508926391602 L12.252327919006348 11.702508926391602"></path>
<path fill="none" stroke="black" stroke-width=".3" stroke-opacity="1.0"  filling="0" d="M12.085881233215332 11.993999481201172 L12.085881233215332 11.993999481201172 C12.177353858947754 11.993999481201172 12.268827438354492 11.993999481201172 12.360300064086914 11.993999481201172 L12.360300064086914 11.993999481201172 C12.268827438354492 11.993999481201172 12.177353858947754 11.993999481201172 12.085881233215332 11.993999481201172 L12.085881233215332 11.993999481201172"></path></svg>