<svg xmlns="http://www.w3.org/2000/svg" viewBox="0.0 0.0 24.0 24.0" height="200px" width="200px"><path fill="none" stroke="black" stroke-width=".3" stroke-opacity="1.0"  filling="0" d="M2.910763740539551 10.58173656463623 L2.910763740539551 10.58173656463623 C3.710170269012451 10.760456085205078 4.540501594543457 11.21589469909668 4.980190753936768 11.907027244567871 C4.9953107833862305 11.930793762207031 5.244335174560547 12.8040132522583 4.997263431549072 12.873245239257812 C4.160758972167969 13.107644081115723 2.6702880859375 12.872700691223145 1.8022089004516602 12.872700691223145 L1.8022089004516602 12.872700691223145 C2.446018934249878 14.610190391540527 3.741334915161133 13.044526100158691 5.03080940246582 13.282636642456055 L5.03080940246582 13.282636642456055 C4.438016891479492 14.044309616088867 4.5199079513549805 14.196735382080078 3.6669816970825195 14.485936164855957 C0.4603567123413086 15.573201179504395 -0.6358740329742432 10.839338302612305 2.910763740539551 10.58173656463623 L2.910763740539551 10.58173656463623"></path>
<path fill="none" stroke="black" stroke-width=".3" stroke-opacity="1.0"  filling="0" d="M2.9847002029418945 11.401036262512207 L2.9847002029418945 11.401036262512207 C3.260145902633667 11.647590637207031 3.5355913639068604 11.894145011901855 3.811037063598633 12.14069938659668 L3.811037063598633 12.14069938659668 C3.1513187885284424 12.14069938659668 2.491600751876831 12.14069938659668 1.8318824768066406 12.14069938659668 L1.8318824768066406 12.14069938659668 C2.2161550521850586 11.894145011901855 2.6004276275634766 11.647590637207031 2.9847002029418945 11.401036262512207 L2.9847002029418945 11.401036262512207"></path></svg>