<svg xmlns="http://www.w3.org/2000/svg" viewBox="0.0 0.0 24.0 24.0" height="200px" width="200px"><path fill="none" stroke="black" stroke-width=".3" stroke-opacity="1.0"  filling="0" d="M-0.584263801574707 8.88038158416748 L-0.584263801574707 8.88038158416748 C-0.24262472987174988 10.929143905639648 0.08429697155952454 12.980266571044922 0.4261627197265625 15.028990745544434 L0.4261627197265625 15.028990745544434 C0.13506662845611572 15.11496639251709 -0.18053731322288513 15.053899765014648 -0.48406410217285156 15.05440902709961 L-0.48406410217285156 15.05440902709961 C-0.5412912368774414 14.69080924987793 -0.5985183715820312 14.327208518981934 -0.6557455062866211 13.963608741760254 L-0.6557455062866211 13.963608741760254 C-0.9194824695587158 13.96316146850586 -1.1830098628997803 13.948391914367676 -1.4465456008911133 13.938081741333008 L-1.4465456008911133 13.938081741333008 C-1.5525999069213867 14.288206100463867 -1.5976319313049316 14.654783248901367 -1.6441640853881836 15.017645835876465 L-1.6441640853881836 15.017645835876465 C-1.9694916009902954 15.017645835876465 -2.2948191165924072 15.017645835876465 -2.6201467514038086 15.017645835876465 L-2.6201467514038086 15.017645835876465 C-2.374223232269287 13.264702796936035 -2.552631378173828 9.000921249389648 -0.584263801574707 8.88038158416748 L-0.584263801574707 8.88038158416748"></path>
<path fill="none" stroke="black" stroke-width=".3" stroke-opacity="1.0"  filling="0" d="M-1.0811176300048828 11.255208969116211 L-1.0811176300048828 11.255208969116211 C-0.9805453419685364 11.894281387329102 -0.8799731135368347 12.533354759216309 -0.7794008255004883 13.1724271774292 L-0.7794008255004883 13.1724271774292 C-0.9816007614135742 13.164000511169434 -1.1838006973266602 13.155572891235352 -1.386000633239746 13.147146224975586 L-1.386000633239746 13.147146224975586 C-1.2961641550064087 12.51733684539795 -1.2063277959823608 11.887528419494629 -1.1164913177490234 11.257719039916992 L-1.1164913177490234 11.257719039916992 C-1.1047000885009766 11.256882667541504 -1.0929088592529297 11.2560453414917 -1.0811176300048828 11.255208969116211 L-1.0811176300048828 11.255208969116211"></path></svg>