<svg xmlns="http://www.w3.org/2000/svg" viewBox="0.0 0.0 24.0 24.0" height="200px" width="200px"><path fill="none" stroke="black" stroke-width=".3" stroke-opacity="1.0"  filling="0" d="M17.81658935546875 9.800127983093262 L17.81658935546875 9.800127983093262 C18.015634536743164 9.800127983093262 18.21468162536621 9.800127983093262 18.413726806640625 9.800127983093262 L18.413726806640625 9.800127983093262 C18.413726806640625 10.93796443939209 18.413726806640625 12.075799942016602 18.413726806640625 13.21363639831543 L18.413726806640625 13.21363639831543 C18.17557144165039 13.21363639831543 17.93741798400879 13.21363639831543 17.699262619018555 13.21363639831543 L17.699262619018555 13.21363639831543 C17.6993465423584 12.411755561828613 17.731298446655273 11.60625171661377 17.69574546813965 10.806190490722656 L17.69574546813965 10.806190490722656 C17.411073684692383 10.806190490722656 17.126399993896484 10.806190490722656 16.84172821044922 10.806190490722656 L16.84172821044922 10.806190490722656 C16.84172821044922 10.660890579223633 16.84172821044922 10.51559066772461 16.84172821044922 10.370290756225586 L16.84172821044922 10.370290756225586 C17.211467742919922 10.299519538879395 17.57550811767578 10.08925724029541 17.81658935546875 9.800127983093262 L17.81658935546875 9.800127983093262"></path></svg>