<svg xmlns="http://www.w3.org/2000/svg" viewBox="0.0 0.0 24.0 24.0" height="200px" width="200px"><path fill="none" stroke="black" stroke-width=".3" stroke-opacity="1.0"  filling="0" d="M1.0378637313842773 8.924755096435547 L1.0378637313842773 8.924755096435547 C1.6419546604156494 8.924755096435547 2.2460458278656006 8.924755096435547 2.8501367568969727 8.924755096435547 L2.8501367568969727 8.924755096435547 C2.8501367568969727 9.19283676147461 2.8501367568969727 9.460919380187988 2.8501367568969727 9.72900104522705 L2.8501367568969727 9.72900104522705 C2.5760910511016846 9.72900104522705 2.3020455837249756 9.72900104522705 2.0279998779296875 9.72900104522705 L2.0279998779296875 9.72900104522705 C1.8998113870620728 10.220480918884277 1.8085395097732544 10.78174114227295 2.0074634552001953 11.259465217590332 L2.0074634552001953 11.259465217590332 C2.2803544998168945 11.259465217590332 2.5532455444335938 11.259465217590332 2.826136589050293 11.259465217590332 L2.826136589050293 11.259465217590332 C2.826136589050293 11.55074691772461 2.826136589050293 11.842028617858887 2.826136589050293 12.133310317993164 L2.826136589050293 12.133310317993164 C2.5492639541625977 12.133309364318848 2.2723913192749023 12.133309364318848 1.995518684387207 12.133308410644531 L1.995518684387207 12.133308410644531 C1.9567662477493286 13.471536636352539 2.6300911903381348 15.042757987976074 1.0297908782958984 15.044754981994629 L1.0297908782958984 15.044754981994629 C1.0386083126068115 13.004748344421387 1.0350828170776367 10.964774131774902 1.0378637313842773 8.924755096435547 L1.0378637313842773 8.924755096435547"></path></svg>