<svg xmlns="http://www.w3.org/2000/svg" viewBox="0.0 0.0 24.0 24.0" height="200px" width="200px"><path fill="none" stroke="black" stroke-width=".3" stroke-opacity="1.0"  filling="0" d="M13.821081161499023 10.834527015686035 L13.821081161499023 10.834527015686035 C13.821081161499023 11.018145561218262 13.821081161499023 11.201763153076172 13.821081161499023 11.385381698608398 L13.821081161499023 11.385381698608398 C12.605669975280762 11.549009323120117 13.331551551818848 12.610944747924805 13.049619674682617 13.383028030395508 L13.049619674682617 13.383028030395508 C12.838128089904785 13.383028030395508 12.62663745880127 13.383028030395508 12.415145874023438 13.383028030395508 L12.415145874023438 13.383028030395508 C12.415145874023438 12.540410041809082 12.415145874023438 11.69779109954834 12.415145874023438 10.855173110961914 L12.415145874023438 10.855173110961914 C12.626154899597168 10.857309341430664 12.837163925170898 10.859444618225098 13.048172950744629 10.861580848693848 L13.048172950744629 10.861580848693848 C13.048172950744629 11.003990173339844 13.048172950744629 11.146400451660156 13.048172950744629 11.288809776306152 L13.048172950744629 11.288809776306152 C13.234371185302734 11.05506420135498 13.524699211120605 10.872794151306152 13.821081161499023 10.834527015686035 L13.821081161499023 10.834527015686035"></path></svg>