<svg xmlns="http://www.w3.org/2000/svg" viewBox="0.0 0.0 24.0 24.0" height="200px" width="200px"><path fill="none" stroke="black" stroke-width=".3" stroke-opacity="1.0"  filling="0" d="M20.031709671020508 8.931463241577148 L20.031709671020508 8.931463241577148 C20.590045928955078 8.931463241577148 21.14838218688965 8.931463241577148 21.70671844482422 8.931463241577148 L21.70671844482422 8.931463241577148 C21.718000411987305 9.21417236328125 21.72928237915039 9.496881484985352 21.740564346313477 9.779590606689453 L21.740564346313477 9.779590606689453 C20.5701904296875 9.89496898651123 20.629554748535156 11.125494956970215 21.722702026367188 11.318017959594727 L21.722702026367188 11.318017959594727 C21.722702026367188 11.589081764221191 21.722702026367188 11.86014461517334 21.722702026367188 12.131208419799805 L21.722702026367188 12.131208419799805 C21.49996566772461 12.131208419799805 21.27722930908203 12.131208419799805 21.054492950439453 12.131208419799805 L21.054492950439453 12.131208419799805 C21.054492950439453 12.792168617248535 20.997421264648438 13.48508071899414 21.067855834960938 14.141563415527344 L21.067855834960938 14.141563415527344 C21.284000396728516 14.141563415527344 21.500146865844727 14.141563415527344 21.716291427612305 14.141563415527344 L21.716291427612305 14.141563415527344 C21.708932876586914 14.436118125915527 21.706817626953125 14.7308349609375 21.70903778076172 15.025472640991211 L21.70903778076172 15.025472640991211 C21.14992904663086 15.025472640991211 20.590818405151367 15.025472640991211 20.031709671020508 15.025472640991211 L20.031709671020508 15.025472640991211 C20.031709671020508 12.994136810302734 20.031709671020508 10.962800979614258 20.031709671020508 8.931463241577148 L20.031709671020508 8.931463241577148"></path></svg>