<svg xmlns="http://www.w3.org/2000/svg" viewBox="0.0 0.0 24.0 24.0" height="200px" width="200px"><path fill="none" stroke="black" stroke-width=".3" stroke-opacity="1.0"  filling="0" d="M20.155879974365234 9.776318550109863 L20.155879974365234 9.776318550109863 C20.32928466796875 9.783377647399902 20.514326095581055 9.763448715209961 20.6734619140625 9.832691192626953 L20.6734619140625 9.832691192626953 C20.6734619140625 10.175445556640625 20.6734619140625 10.518199920654297 20.6734619140625 10.860954284667969 L20.6734619140625 10.860954284667969 C20.964370727539062 10.871936798095703 21.255279541015625 10.882918357849121 21.546188354492188 10.893900871276855 L21.546188354492188 10.893900871276855 C21.540342330932617 11.180073738098145 21.53449821472168 11.466245651245117 21.52865219116211 11.752418518066406 L21.52865219116211 11.752418518066406 C21.246234893798828 11.752418518066406 20.963815689086914 11.752418518066406 20.681398391723633 11.752418518066406 L20.681398391723633 11.752418518066406 C20.64823341369629 12.251333236694336 20.59918975830078 12.948221206665039 20.672998428344727 13.29651927947998 C20.796167373657227 13.877737045288086 21.106693267822266 13.584101676940918 21.406579971313477 13.639119148254395 C21.68600845336914 13.690383911132812 21.54775047302246 14.201600074768066 21.517797470092773 14.484109878540039 C21.481229782104492 14.829017639160156 20.102462768554688 14.551583290100098 19.880779266357422 14.387373924255371 C19.20431900024414 13.886292457580566 19.527271270751953 12.282888412475586 19.527271270751953 11.754490852355957 L19.527271270751953 11.754490852355957 C18.657548904418945 11.753552436828613 18.698274612426758 10.867257118225098 19.55451774597168 10.86695384979248 L19.55451774597168 10.86695384979248 C19.55451774597168 10.107691764831543 19.317567825317383 9.801734924316406 20.155879974365234 9.776318550109863 L20.155879974365234 9.776318550109863"></path></svg>