<svg xmlns="http://www.w3.org/2000/svg" viewBox="0.0 0.0 24.0 24.0" height="200px" width="200px"><path fill="none" stroke="black" stroke-width=".3" stroke-opacity="1.0"  filling="0" d="M18.721147537231445 10.796618461608887 L18.721147537231445 10.796618461608887 C19.310409545898438 10.878291130065918 20.276851654052734 11.640029907226562 19.095111846923828 11.636372566223145 L19.095111846923828 11.636372566223145 C19.023496627807617 11.391319274902344 18.26947021484375 10.968452453613281 18.177165985107422 11.432536125183105 C18.02680206298828 12.18852424621582 20.106754302978516 11.545701026916504 19.754539489746094 12.821455001831055 C19.4642276763916 13.872994422912598 17.35604476928711 13.7356538772583 17.48940086364746 12.591927528381348 L17.48940086364746 12.591927528381348 C17.685091018676758 12.591927528381348 17.880783081054688 12.591927528381348 18.076473236083984 12.591927528381348 L18.076473236083984 12.591927528381348 C18.23032569885254 12.895917892456055 19.112285614013672 13.378252029418945 19.11810302734375 12.694064140319824 C19.12173080444336 12.26735782623291 16.199678421020508 11.975785255432129 18.043529510498047 10.8793363571167 C18.239110946655273 10.763032913208008 18.495275497436523 10.824191093444824 18.721147537231445 10.796618461608887 L18.721147537231445 10.796618461608887"></path></svg>