<svg xmlns="http://www.w3.org/2000/svg" viewBox="0.0 0.0 24.0 24.0" height="200px" width="200px"><path fill="none" stroke="black" stroke-width=".3" stroke-opacity="1.0"  filling="0" d="M20.018234252929688 10.099773406982422 L20.018234252929688 10.099773406982422 C20.223552703857422 10.099773406982422 20.428871154785156 10.099773406982422 20.63418960571289 10.099773406982422 L20.63418960571289 10.099773406982422 C20.662179946899414 10.357309341430664 20.671710968017578 10.616907119750977 20.673107147216797 10.875955581665039 L20.673107147216797 10.875955581665039 C20.82436180114746 10.875955581665039 20.975616455078125 10.875955581665039 21.12687110900879 10.875955581665039 L21.12687110900879 10.875955581665039 C21.118654251098633 11.032337188720703 21.110435485839844 11.188718795776367 21.102218627929688 11.345100402832031 L21.102218627929688 11.345100402832031 C20.960527420043945 11.345100402832031 20.818838119506836 11.345100402832031 20.677146911621094 11.345100402832031 L20.677146911621094 11.345100402832031 C20.59588050842285 11.940021514892578 20.39695930480957 12.84411907196045 21.12948989868164 12.942000389099121 L21.12948989868164 12.942000389099121 C21.136520385742188 13.109452247619629 21.196691513061523 13.295430183410645 21.12051773071289 13.444719314575195 L21.12051773071289 13.444719314575195 C19.7060546875 13.336055755615234 20.01247215270996 12.593132019042969 20.012588500976562 11.346245765686035 L20.012588500976562 11.346245765686035 C19.898725509643555 11.3402099609375 19.784862518310547 11.334173202514648 19.67099952697754 11.328137397766113 L19.67099952697754 11.328137397766113 C19.67099952697754 11.179364204406738 19.67099952697754 11.03059196472168 19.67099952697754 10.881818771362305 L19.67099952697754 10.881818771362305 C20.12609100341797 10.881818771362305 20.018203735351562 10.403813362121582 20.018234252929688 10.099773406982422 L20.018234252929688 10.099773406982422"></path></svg>