<svg xmlns="http://www.w3.org/2000/svg" viewBox="0.0 0.0 24.0 24.0" height="200px" width="200px"><path fill="none" stroke="black" stroke-width=".3" stroke-opacity="1.0"  filling="0" d="M14.292409896850586 10.25926399230957 L14.292409896850586 10.25926399230957 C16.767724990844727 10.514359474182129 14.731149673461914 12.518884658813477 13.948663711547852 13.173981666564941 L13.948663711547852 13.173981666564941 C14.46749210357666 13.18428897857666 14.98637580871582 13.192217826843262 15.505281448364258 13.197354316711426 L15.505281448364258 13.197354316711426 C15.505281448364258 13.377999305725098 15.505281448364258 13.558645248413086 15.505281448364258 13.739290237426758 L15.505281448364258 13.739290237426758 C14.891938209533691 13.772574424743652 14.287393569946289 13.724452018737793 13.677135467529297 13.723663330078125 C13.46424674987793 13.723388671875 12.989100456237793 13.86910629272461 13.0413818359375 13.662736892700195 C13.31480598449707 12.58345890045166 14.923819541931152 12.217936515808105 14.695854187011719 11.047636032104492 C14.584770202636719 10.477367401123047 13.750022888183594 11.090853691101074 13.745400428771973 11.528645515441895 L13.745400428771973 11.528645515441895 C13.528791427612305 11.528645515441895 13.312182426452637 11.528645515441895 13.095573425292969 11.528645515441895 L13.095573425292969 11.528645515441895 C13.221722602844238 10.690763473510742 13.444557189941406 10.403437614440918 14.292409896850586 10.25926399230957 L14.292409896850586 10.25926399230957"></path></svg>