<svg xmlns="http://www.w3.org/2000/svg" viewBox="0.0 0.0 24.0 24.0" height="200px" width="200px"><path fill="none" stroke="black" stroke-width=".3" stroke-opacity="1.0"  filling="0" d="M5.611036777496338 11.112926483154297 L5.611036777496338 11.112926483154297 C5.611036777496338 11.160118103027344 5.611036777496338 11.207308769226074 5.611036777496338 11.254500389099121 L5.611036777496338 11.254500389099121 C5.552045822143555 11.260000228881836 5.493054389953613 11.265501022338867 5.43406343460083 11.271000862121582 L5.43406343460083 11.271000862121582 C5.438390731811523 11.385719299316406 5.442718029022217 11.500436782836914 5.44704532623291 11.615155220031738 L5.44704532623291 11.615155220031738 C5.501091003417969 11.605345726013184 5.555136203765869 11.595536231994629 5.609181880950928 11.585726737976074 L5.609181880950928 11.585726737976074 C5.609181880950928 11.648344993591309 5.609181880950928 11.71096420288086 5.609181880950928 11.773582458496094 L5.609181880950928 11.773582458496094 C5.548563480377197 11.779200553894043 5.487945556640625 11.784818649291992 5.4273271560668945 11.790436744689941 L5.4273271560668945 11.790436744689941 C5.4273271560668945 12.10370922088623 5.4273271560668945 12.41698169708252 5.4273271560668945 12.730254173278809 L5.4273271560668945 12.730254173278809 C5.363672733306885 12.730254173278809 5.300017833709717 12.730254173278809 5.236363410949707 12.730254173278809 L5.236363410949707 12.730254173278809 C5.236363410949707 11.859320640563965 5.01202917098999 11.617935180664062 5.611036777496338 11.112926483154297 L5.611036777496338 11.112926483154297"></path></svg>