<svg xmlns="http://www.w3.org/2000/svg" viewBox="0.0 0.0 24.0 24.0" height="200px" width="200px"><path fill="none" stroke="black" stroke-width=".3" stroke-opacity="1.0"  filling="0" d="M11.86767292022705 11.97264575958252 L11.86767292022705 11.97264575958252 C11.883909225463867 11.975945472717285 11.900145530700684 11.979246139526367 11.9163818359375 11.982545852661133 L11.9163818359375 11.982545852661133 C11.894729614257812 12.135156631469727 11.833561897277832 12.288846015930176 11.736382484436035 12.408491134643555 L11.736382484436035 12.408491134643555 C11.824254989624023 12.472318649291992 11.912127494812012 12.53614616394043 12.0 12.599973678588867 L12.0 12.599973678588867 C11.981818199157715 12.599973678588867 11.96363639831543 12.599973678588867 11.945454597473145 12.599973678588867 L11.945454597473145 12.599973678588867 C11.906866073608398 12.561423301696777 11.820381164550781 12.561397552490234 11.781818389892578 12.599973678588867 L11.781818389892578 12.599973678588867 C11.763636589050293 12.599982261657715 11.745454788208008 12.599991798400879 11.727272987365723 12.600000381469727 L11.727272987365723 12.600000381469727 C11.696928024291992 12.387868881225586 11.72298526763916 12.130716323852539 11.86767292022705 11.97264575958252 L11.86767292022705 11.97264575958252"></path>
<path fill="none" stroke="black" stroke-width=".3" stroke-opacity="1.0"  filling="0" d="M11.758881568908691 12.008399963378906 L11.758881568908691 12.008399963378906 C11.763809204101562 12.088836669921875 11.768735885620117 12.169272422790527 11.773663520812988 12.249709129333496 L11.773663520812988 12.249709129333496 C11.768735885620117 12.169272422790527 11.763809204101562 12.088836669921875 11.758881568908691 12.008399963378906 L11.758881568908691 12.008399963378906"></path></svg>