<svg xmlns="http://www.w3.org/2000/svg" viewBox="0.0 0.0 24.0 24.0" height="200px" width="200px"><path fill="none" stroke="black" stroke-width=".3" stroke-opacity="1.0"  filling="0" d="M11.655763626098633 11.946462631225586 L11.655763626098633 11.946462631225586 C11.912114143371582 12.028556823730469 11.843705177307129 12.244597434997559 11.819700241088867 12.454989433288574 L11.819700241088867 12.454989433288574 C11.831008911132812 12.461944580078125 11.842318534851074 12.468899726867676 11.85362720489502 12.475854873657227 L11.85362720489502 12.475854873657227 C11.880608558654785 12.443300247192383 11.907590866088867 12.410745620727539 11.934572219848633 12.378190994262695 L11.934572219848633 12.378190994262695 C11.934572219848633 12.438063621520996 11.934572219848633 12.497937202453613 11.934572219848633 12.557809829711914 L11.934572219848633 12.557809829711914 C11.639113426208496 12.49571418762207 11.781097412109375 12.226221084594727 11.773418426513672 12.038890838623047 L11.773418426513672 12.038890838623047 C11.734200477600098 12.073945045471191 11.694981575012207 12.109000205993652 11.655763626098633 12.144054412841797 L11.655763626098633 12.144054412841797 C11.655763626098633 12.078190803527832 11.655763626098633 12.01232624053955 11.655763626098633 11.946462631225586 L11.655763626098633 11.946462631225586"></path></svg>