<svg xmlns="http://www.w3.org/2000/svg" viewBox="0.0 0.0 24.0 24.0" height="200px" width="200px"><path fill="none" stroke="black" stroke-width=".3" stroke-opacity="1.0"  filling="0" d="M12.925800323486328 11.525318145751953 L12.925800323486328 11.525318145751953 C13.327484130859375 11.661918640136719 13.525065422058105 12.223127365112305 13.526646614074707 12.64739990234375 L13.526646614074707 12.64739990234375 C13.457646369934082 12.64739990234375 13.388646125793457 12.64739990234375 13.319645881652832 12.64739990234375 L13.319645881652832 12.64739990234375 C13.319645881652832 12.61306381225586 13.319645881652832 12.578726768493652 13.319645881652832 12.544390678405762 L13.319645881652832 12.544390678405762 C12.269566535949707 12.900574684143066 12.79736042022705 12.15723705291748 13.33581829071045 11.898163795471191 L13.33581829071045 11.898163795471191 C13.17735481262207 11.842555046081543 13.018891334533691 11.786945343017578 12.860427856445312 11.73133659362793 L12.860427856445312 11.73133659362793 C12.846818923950195 11.784527778625488 12.833209037780762 11.83771800994873 12.819600105285645 11.890909194946289 L12.819600105285645 11.890909194946289 C12.494098663330078 11.807289123535156 12.750859260559082 11.660235404968262 12.925800323486328 11.525318145751953 L12.925800323486328 11.525318145751953"></path>
<path fill="none" stroke="black" stroke-width=".3" stroke-opacity="1.0"  filling="0" d="M13.32496452331543 12.118500709533691 L13.32496452331543 12.118500709533691 C12.849084854125977 12.760407447814941 12.611231803894043 12.286429405212402 13.32496452331543 12.118500709533691 L13.32496452331543 12.118500709533691"></path></svg>