<svg xmlns="http://www.w3.org/2000/svg" viewBox="0.0 0.0 24.0 24.0" height="200px" width="200px"><path fill="none" stroke="black" stroke-width=".3" stroke-opacity="1.0"  filling="0" d="M21.697906494140625 16.66399383544922 L21.697906494140625 16.66399383544922 C21.737987518310547 16.78205680847168 21.7780704498291 16.900121688842773 21.818151473999023 17.018184661865234 L21.818151473999023 17.018184661865234 C21.754526138305664 17.018184661865234 21.690898895263672 17.0181827545166 21.627273559570312 17.0181827545166 L21.627273559570312 17.0181827545166 C21.617483139038086 16.957401275634766 21.607690811157227 16.896617889404297 21.597900390625 16.83583641052246 L21.597900390625 16.83583641052246 C21.60962677001953 16.832799911499023 21.621353149414062 16.82976531982422 21.633079528808594 16.82672882080078 L21.633079528808594 16.82672882080078 C21.655153274536133 16.88050079345703 21.67722511291504 16.934274673461914 21.699298858642578 16.988046646118164 L21.699298858642578 16.988046646118164 C21.695837020874023 16.874954223632812 21.65191078186035 16.757020950317383 21.578697204589844 16.67075538635254 L21.578697204589844 16.67075538635254 C21.618432998657227 16.668500900268555 21.658170700073242 16.666248321533203 21.697906494140625 16.66399383544922 L21.697906494140625 16.66399383544922"></path></svg>