<svg xmlns="http://www.w3.org/2000/svg" viewBox="0.0 0.0 24.0 24.0" height="200px" width="200px"><path fill="none" stroke="black" stroke-width=".3" stroke-opacity="1.0"  filling="0" d="M12.731973648071289 11.972837448120117 L12.731973648071289 11.972837448120117 C12.745201110839844 12.111937522888184 12.758427619934082 12.25103759765625 12.771655082702637 12.390137672424316 L12.771655082702637 12.390137672424316 C12.762173652648926 12.393964767456055 12.752691268920898 12.397791862487793 12.743209838867188 12.401618957519531 L12.743209838867188 12.401618957519531 C12.70451831817627 12.33889102935791 12.665827751159668 12.276164054870605 12.62713623046875 12.213436126708984 L12.62713623046875 12.213436126708984 C12.62713623046875 12.290363311767578 12.62713623046875 12.367291450500488 12.62713623046875 12.444218635559082 L12.62713623046875 12.444218635559082 C12.619254112243652 12.447518348693848 12.611372947692871 12.450818061828613 12.603490829467773 12.454117774963379 L12.603490829467773 12.454117774963379 C12.532363891601562 12.305072784423828 12.461236000061035 12.156027793884277 12.390109062194824 12.006982803344727 L12.390109062194824 12.006982803344727 C12.419354438781738 12.006982803344727 12.448599815368652 12.006982803344727 12.477845191955566 12.006982803344727 L12.477845191955566 12.006982803344727 C12.493453979492188 12.07116413116455 12.509063720703125 12.135345458984375 12.524672508239746 12.1995267868042 L12.524672508239746 12.1995267868042 C12.529891014099121 12.198963165283203 12.53510856628418 12.198399543762207 12.540327072143555 12.197835922241211 L12.540327072143555 12.197835922241211 C12.544981956481934 12.124772071838379 12.549635887145996 12.051709175109863 12.554290771484375 11.978645324707031 L12.554290771484375 11.978645324707031 C12.59241771697998 12.024981498718262 12.630545616149902 12.071318626403809 12.668672561645508 12.117654800415039 L12.668672561645508 12.117654800415039 C12.689772605895996 12.069382667541504 12.7108736038208 12.021109580993652 12.731973648071289 11.972837448120117 L12.731973648071289 11.972837448120117"></path></svg>