<svg xmlns="http://www.w3.org/2000/svg" viewBox="0.0 0.0 24.0 24.0" height="200px" width="200px"><path fill="none" stroke="black" stroke-width=".3" stroke-opacity="1.0"  filling="0" d="M12.027273178100586 11.588671684265137 L12.027273178100586 11.588671684265137 C12.027273178100586 12.575133323669434 12.599411964416504 12.853100776672363 12.599891662597656 11.610980987548828 L12.599891662597656 11.610980987548828 C12.671210289001465 11.610980987548828 12.742527961730957 11.610980987548828 12.813846588134766 11.610980987548828 L12.813846588134766 11.610980987548828 C12.813855171203613 11.984408378601074 12.813864707946777 12.357836723327637 12.813873291015625 12.731264114379883 L12.813873291015625 12.731264114379883 C12.744791030883789 12.731264114379883 12.67570972442627 12.731264114379883 12.606627464294434 12.731264114379883 L12.606627464294434 12.731264114379883 C12.602373123168945 12.688982009887695 12.598118782043457 12.646699905395508 12.593864440917969 12.60441780090332 L12.593864440917969 12.60441780090332 C11.723592758178711 12.771746635437012 11.837041854858398 12.466978073120117 11.83639144897461 11.629117012023926 L11.83639144897461 11.629117012023926 C11.900018692016602 11.61563491821289 11.963645935058594 11.602153778076172 12.027273178100586 11.588671684265137 L12.027273178100586 11.588671684265137"></path></svg>