<svg xmlns="http://www.w3.org/2000/svg" viewBox="0.0 0.0 24.0 24.0" height="200px" width="200px"><path fill="none" stroke="black" stroke-width=".3" stroke-opacity="1.0"  filling="0" d="M23.771181106567383 16.340919494628906 L23.771181106567383 16.340919494628906 C23.83489227294922 16.36300277709961 23.914276123046875 16.422531127929688 23.908252716064453 16.48969268798828 L23.908252716064453 16.48969268798828 C23.87468910217285 16.44160270690918 23.841123580932617 16.393510818481445 23.807559967041016 16.345420837402344 L23.807559967041016 16.345420837402344 C23.87837791442871 16.584697723388672 24.073352813720703 16.795862197875977 23.945478439331055 17.018131256103516 L23.945478439331055 17.018131256103516 C23.927288055419922 17.01814842224121 23.909099578857422 17.018165588378906 23.89090919494629 17.0181827545166 L23.89090919494629 17.0181827545166 C23.836410522460938 16.961505889892578 23.799942016601562 16.885499954223633 23.78200912475586 16.808944702148438 L23.78200912475586 16.808944702148438 C23.792171478271484 16.80512809753418 23.802335739135742 16.80130958557129 23.812498092651367 16.79749298095703 L23.812498092651367 16.79749298095703 C23.842689514160156 16.84394645690918 23.872880935668945 16.890399932861328 23.903072357177734 16.936853408813477 L23.903072357177734 16.936853408813477 C23.922178268432617 16.681440353393555 23.838489532470703 16.62268829345703 23.771181106567383 16.340919494628906 L23.771181106567383 16.340919494628906"></path></svg>