<svg xmlns="http://www.w3.org/2000/svg" viewBox="0.0 0.0 24.0 24.0" height="200px" width="200px"><path fill="none" stroke="black" stroke-width=".3" stroke-opacity="1.0"  filling="0" d="M12.849326133728027 11.966100692749023 L12.849326133728027 11.966100692749023 C12.866681098937988 12.06834602355957 12.884035110473633 12.1705904006958 12.901390075683594 12.272835731506348 L12.901390075683594 12.272835731506348 C12.936271667480469 12.324645042419434 12.97115421295166 12.37645435333252 13.006035804748535 12.428263664245605 L13.006035804748535 12.428263664245605 C12.946690559387207 12.3318452835083 12.887345314025879 12.235427856445312 12.82800006866455 12.139009475708008 L12.82800006866455 12.139009475708008 C12.8624267578125 12.14814567565918 12.896854400634766 12.157282829284668 12.931281089782715 12.16641902923584 L12.931281089782715 12.16641902923584 C12.914717674255371 12.126310348510742 12.898153305053711 12.086200714111328 12.881589889526367 12.04609203338623 L12.881589889526367 12.04609203338623 C12.8589448928833 12.067627906799316 12.836298942565918 12.089164733886719 12.813653945922852 12.110700607299805 L12.813653945922852 12.110700607299805 C12.804662704467773 12.105237007141113 12.795672416687012 12.099772453308105 12.786681175231934 12.094308853149414 L12.786681175231934 12.094308853149414 C12.807562828063965 12.051572799682617 12.828444480895996 12.00883674621582 12.849326133728027 11.966100692749023 L12.849326133728027 11.966100692749023"></path></svg>