<svg xmlns="http://www.w3.org/2000/svg" viewBox="0.0 0.0 24.0 24.0" height="200px" width="200px"><path fill="none" stroke="black" stroke-width=".3" stroke-opacity="1.0"  filling="0" d="M15.359018325805664 8.215470314025879 L15.359018325805664 8.215470314025879 C16.59853744506836 9.022748947143555 16.253461837768555 9.859847068786621 15.708136558532715 10.942224502563477 L15.708136558532715 10.942224502563477 C15.813285827636719 10.159088134765625 14.849947929382324 9.363563537597656 14.902908325195312 9.628580093383789 C15.018362998962402 10.206317901611328 15.487791061401367 14.546058654785156 16.83826446533203 13.716136932373047 L16.83826446533203 13.716136932373047 C16.601390838623047 14.213000297546387 16.364519119262695 14.70986270904541 16.12764549255371 15.20672607421875 L16.12764549255371 15.20672607421875 C15.694036483764648 14.939226150512695 15.260427474975586 14.67172622680664 14.826818466186523 14.404226303100586 L14.826818466186523 14.404226303100586 C15.286961555480957 13.408672332763672 14.444326400756836 10.746417999267578 13.502809524536133 10.03268051147461 L13.502809524536133 10.03268051147461 C13.477836608886719 10.049698829650879 13.452863693237305 10.066716194152832 13.42789077758789 10.083734512329102 L13.42789077758789 10.083734512329102 C13.41937255859375 10.079534530639648 13.41085433959961 10.075334548950195 13.402336120605469 10.071134567260742 L13.402336120605469 10.071134567260742 C13.552227973937988 9.660845756530762 13.706449508666992 9.252116203308105 13.864636421203613 8.844953536987305 L13.864636421203613 8.844953536987305 C14.195454597473145 9.060379981994629 14.526272773742676 9.27580738067627 14.857090950012207 9.491233825683594 L14.857090950012207 9.491233825683594 C15.104677200317383 9.106945037841797 15.19245719909668 8.640369415283203 15.359018325805664 8.215470314025879 L15.359018325805664 8.215470314025879"></path></svg>