<svg xmlns="http://www.w3.org/2000/svg" viewBox="0.0 0.0 24.0 24.0" height="200px" width="200px"><path fill="none" stroke="black" stroke-width=".3" stroke-opacity="1.0"  filling="0" d="M23.010604858398438 13.954471588134766 L23.010604858398438 13.954471588134766 C23.023332595825195 13.958453178405762 23.03605842590332 13.962435722351074 23.048786163330078 13.96641731262207 L23.048786163330078 13.96641731262207 C23.0496883392334 14.998282432556152 23.101802825927734 16.017841339111328 23.099950790405273 17.045454025268555 L23.099950790405273 17.045454025268555 C22.699951171875 17.045454025268555 22.299949645996094 17.045454025268555 21.89995002746582 17.045454025268555 L21.89995002746582 17.045454025268555 C21.848285675048828 16.95875358581543 21.79662322998047 16.872053146362305 21.744958877563477 16.78535270690918 L21.744958877563477 16.78535270690918 C21.445541381835938 16.83328628540039 21.150074005126953 16.912452697753906 20.864784240722656 17.015207290649414 L20.864784240722656 17.015207290649414 C20.887584686279297 16.983488082885742 20.910385131835938 16.951770782470703 20.933185577392578 16.92005157470703 L20.933185577392578 16.92005157470703 C20.928266525268555 16.914560317993164 20.923349380493164 16.90907096862793 20.91843032836914 16.903579711914062 L20.91843032836914 16.903579711914062 C20.83651351928711 16.95086097717285 20.754594802856445 16.998144149780273 20.672677993774414 17.045425415039062 L20.672677993774414 17.045425415039062 C19.186321258544922 17.04543685913086 17.699966430664062 17.04544448852539 16.213611602783203 17.045448303222656 C14.727254867553711 17.045452117919922 13.240900039672852 17.045454025268555 11.754545211791992 17.045454025268555 L11.754545211791992 17.045454025268555 C13.117856979370117 16.74686050415039 14.548437118530273 16.660934448242188 15.964144706726074 16.507930755615234 C17.379852294921875 16.354928970336914 18.78068733215332 16.134849548339844 20.084508895874023 15.567955017089844 L20.084508895874023 15.567955017089844 C20.90152931213379 15.233433723449707 22.405162811279297 14.632039070129395 23.010604858398438 13.954471588134766 L23.010604858398438 13.954471588134766"></path></svg>