<svg xmlns="http://www.w3.org/2000/svg" viewBox="0.0 0.0 24.0 24.0" height="200px" width="200px"><path fill="none" stroke="black" stroke-width=".3" stroke-opacity="1.0"  filling="0" d="M13.053817749023438 11.725909233093262 L13.053817749023438 11.725909233093262 C13.059481620788574 11.786309242248535 13.065144538879395 11.846710205078125 13.070808410644531 11.907110214233398 L13.070808410644531 11.907110214233398 C13.100308418273926 11.913982391357422 13.12980842590332 11.920855522155762 13.159308433532715 11.927727699279785 L13.159308433532715 11.927727699279785 C13.129317283630371 11.963491439819336 13.099326133728027 11.999255180358887 13.069334983825684 12.035018920898438 L13.069334983825684 12.035018920898438 C13.069334983825684 12.146763801574707 13.069334983825684 12.258509635925293 13.069334983825684 12.370254516601562 L13.069334983825684 12.370254516601562 C13.10098934173584 12.377890586853027 13.132643699645996 12.385527610778809 13.164298057556152 12.393163681030273 L13.164298057556152 12.393163681030273 C13.164298057556152 12.437045097351074 13.164298057556152 12.480927467346191 13.164298057556152 12.524808883666992 L13.164298057556152 12.524808883666992 C12.855829238891602 12.470612525939941 12.900983810424805 12.385133743286133 12.900163650512695 12.069764137268066 L12.900163650512695 12.069764137268066 C12.86479377746582 12.025864601135254 12.861065864562988 11.939448356628418 12.90196418762207 11.900646209716797 L12.90196418762207 11.900646209716797 C12.90196418762207 11.844927787780762 12.90196418762207 11.789210319519043 12.90196418762207 11.733491897583008 L12.90196418762207 11.733491897583008 C12.952582359313965 11.730964660644531 13.003199577331543 11.728436470031738 13.053817749023438 11.725909233093262 L13.053817749023438 11.725909233093262"></path></svg>