<svg xmlns="http://www.w3.org/2000/svg" viewBox="0.0 0.0 24.0 24.0" height="200px" width="200px"><path fill="none" stroke="black" stroke-width=".3" stroke-opacity="1.0"  filling="0" d="M11.91976261138916 11.599063873291016 L11.91976261138916 11.599063873291016 C11.708431243896484 11.796743392944336 11.612297058105469 11.731975555419922 11.440826416015625 12.012763977050781 L11.440826416015625 12.012763977050781 C11.525344848632812 12.006991386413574 11.609862327575684 12.001218795776367 11.694380760192871 11.99544620513916 L11.694380760192871 11.99544620513916 C11.598762512207031 12.048964500427246 11.503144264221191 12.102481842041016 11.407526016235352 12.156000137329102 L11.407526016235352 12.156000137329102 C11.392916679382324 12.22130012512207 11.378308296203613 12.286601066589355 11.363698959350586 12.351901054382324 L11.363698959350586 12.351901054382324 C11.514181137084961 12.317264556884766 11.66466236114502 12.282628059387207 11.815144538879395 12.247991561889648 L11.815144538879395 12.247991561889648 C11.617125511169434 12.664648056030273 11.313974380493164 12.490002632141113 11.052871704101562 12.333518028259277 L11.052871704101562 12.333518028259277 C11.095081329345703 12.341263771057129 11.137290000915527 12.349008560180664 11.179499626159668 12.356754302978516 L11.179499626159668 12.356754302978516 C11.19792652130127 12.250690460205078 11.216354370117188 12.144627571105957 11.234781265258789 12.03856372833252 L11.234781265258789 12.03856372833252 C11.270745277404785 11.9629545211792 11.306708335876465 11.887345314025879 11.342672348022461 11.811736106872559 L11.342672348022461 11.811736106872559 C11.272911071777344 11.77359676361084 11.209135055541992 11.713862419128418 11.175081253051758 11.642019271850586 L11.175081253051758 11.642019271850586 C11.423308372497559 11.627700805664062 11.67153549194336 11.613382339477539 11.91976261138916 11.599063873291016 L11.91976261138916 11.599063873291016"></path></svg>