<svg xmlns="http://www.w3.org/2000/svg" viewBox="0.0 0.0 24.0 24.0" height="200px" width="200px"><path fill="none" stroke="black" stroke-width=".3" stroke-opacity="1.0"  filling="0" d="M-3.5246458053588867 12.464563369750977 L-3.5246458053588867 12.464563369750977 C-3.4529550075531006 12.58133602142334 -3.3812639713287354 12.698108673095703 -3.309573173522949 12.814881324768066 L-3.309573173522949 12.814881324768066 C-3.4387638568878174 12.814881324768066 -3.5679547786712646 12.814881324768066 -3.697145462036133 12.814881324768066 L-3.697145462036133 12.814881324768066 C-3.5802133083343506 12.888258934020996 -3.4291532039642334 12.925422668457031 -3.292745590209961 12.904199600219727 L-3.292745590209961 12.904199600219727 C-3.909298896789551 13.114950180053711 -4.058133602142334 12.773272514343262 -3.5246458053588867 12.464563369750977 L-3.5246458053588867 12.464563369750977"></path>
<path fill="none" stroke="black" stroke-width=".3" stroke-opacity="1.0"  filling="0" d="M-3.583855628967285 12.57763671875 L-3.583855628967285 12.57763671875 C-3.545710325241089 12.620264053344727 -3.5075647830963135 12.662890434265137 -3.469419479370117 12.705517768859863 L-3.469419479370117 12.705517768859863 C-3.5470104217529297 12.705517768859863 -3.624601364135742 12.705517768859863 -3.7021923065185547 12.705517768859863 L-3.7021923065185547 12.705517768859863 C-3.6627466678619385 12.662890434265137 -3.6233012676239014 12.620264053344727 -3.583855628967285 12.57763671875 L-3.583855628967285 12.57763671875"></path></svg>