<svg xmlns="http://www.w3.org/2000/svg" viewBox="0.0 0.0 24.0 24.0" height="200px" width="200px"><path fill="none" stroke="black" stroke-width=".3" stroke-opacity="1.0"  filling="0" d="M-5.231264114379883 12.493172645568848 L-5.231264114379883 12.493172645568848 C-5.089934825897217 12.653221130371094 -5.030819416046143 12.883624076843262 -5.016544342041016 13.096663475036621 L-5.016544342041016 13.096663475036621 C-5.086235523223877 13.087499618530273 -5.1559271812438965 13.078336715698242 -5.225618362426758 13.069172859191895 L-5.225618362426758 13.069172859191895 C-5.769138336181641 13.117301940917969 -5.526226997375488 12.781203269958496 -5.182332992553711 12.704319953918457 L-5.182332992553711 12.704319953918457 C-5.298937797546387 12.672536849975586 -5.432188987731934 12.657937049865723 -5.544898986816406 12.701563835144043 L-5.544898986816406 12.701563835144043 C-5.440353870391846 12.632100105285645 -5.335809230804443 12.562636375427246 -5.231264114379883 12.493172645568848 L-5.231264114379883 12.493172645568848"></path>
<path fill="none" stroke="black" stroke-width=".3" stroke-opacity="1.0"  filling="0" d="M-5.195564270019531 12.820528030395508 L-5.195564270019531 12.820528030395508 C-5.230385780334473 12.899385452270508 -5.349191188812256 12.956341743469238 -5.430681228637695 12.928227424621582 L-5.430681228637695 12.928227424621582 C-5.352308750152588 12.892327308654785 -5.273936748504639 12.856428146362305 -5.195564270019531 12.820528030395508 L-5.195564270019531 12.820528030395508"></path></svg>