<svg xmlns="http://www.w3.org/2000/svg" viewBox="0.0 0.0 24.0 24.0" height="200px" width="200px"><path fill="none" stroke="black" stroke-width=".3" stroke-opacity="1.0"  filling="0" d="M13.288663864135742 11.665800094604492 L13.288663864135742 11.665800094604492 C13.330072402954102 11.665800094604492 13.371481895446777 11.665800094604492 13.412890434265137 11.665800094604492 L13.412890434265137 11.665800094604492 C13.417818069458008 11.754682540893555 13.422744750976562 11.8435640335083 13.427672386169434 11.932446479797363 L13.427672386169434 11.932446479797363 C13.488154411315918 11.909509658813477 13.548635482788086 11.88657283782959 13.60911750793457 11.863636016845703 L13.60911750793457 11.863636016845703 C13.60911750793457 11.909090995788574 13.60911750793457 11.954545021057129 13.60911750793457 12.0 L13.60911750793457 12.0 C13.521056175231934 12.078817367553711 13.524145126342773 12.272408485412598 13.60911750793457 12.354545593261719 L13.60911750793457 12.354545593261719 C13.609108924865723 12.40000057220459 13.609099388122559 12.445454597473145 13.609090805053711 12.490909576416016 L13.609090805053711 12.490909576416016 C13.503902435302734 12.47203254699707 13.391711235046387 12.4733304977417 13.288663864135742 12.501654624938965 L13.288663864135742 12.501654624938965 C13.288663864135742 12.223036766052246 13.288663864135742 11.944417953491211 13.288663864135742 11.665800094604492 L13.288663864135742 11.665800094604492"></path></svg>