<svg xmlns="http://www.w3.org/2000/svg" viewBox="0.0 0.0 24.0 24.0" height="200px" width="200px"><path fill="none" stroke="black" stroke-width=".3" stroke-opacity="1.0"  filling="0" d="M9.714300155639648 11.863990783691406 L9.714300155639648 11.863990783691406 C9.800682067871094 11.9822359085083 9.887063026428223 12.100481986999512 9.973444938659668 12.218727111816406 L9.973444938659668 12.218727111816406 C9.834571838378906 12.218727111816406 9.695699691772461 12.218727111816406 9.5568265914917 12.218727111816406 L9.5568265914917 12.218727111816406 C9.675122261047363 12.287879943847656 9.831135749816895 12.321438789367676 9.962780952453613 12.283417701721191 L9.962780952453613 12.283417701721191 C9.43173885345459 12.619804382324219 9.254899978637695 12.253238677978516 9.714300155639648 11.863990783691406 L9.714300155639648 11.863990783691406"></path>
<path fill="none" stroke="black" stroke-width=".3" stroke-opacity="1.0"  filling="0" d="M9.69559097290039 11.999618530273438 L9.69559097290039 11.999618530273438 C9.736345291137695 12.032909393310547 9.777099609375 12.066200256347656 9.817853927612305 12.099491119384766 L9.817853927612305 12.099491119384766 C9.73240852355957 12.099491119384766 9.646964073181152 12.099491119384766 9.561518669128418 12.099491119384766 L9.561518669128418 12.099491119384766 C9.606209754943848 12.066200256347656 9.650899887084961 12.032909393310547 9.69559097290039 11.999618530273438 L9.69559097290039 11.999618530273438"></path></svg>