<svg xmlns="http://www.w3.org/2000/svg" viewBox="0.0 0.0 24.0 24.0" height="200px" width="200px"><path fill="none" stroke="black" stroke-width=".3" stroke-opacity="1.0"  filling="0" d="M28.772727966308594 6.27269983291626 L28.772727966308594 6.27269983291626 C29.03636360168457 6.272708892822266 29.30000114440918 6.27271842956543 29.563636779785156 6.2727274894714355 L29.563636779785156 6.2727274894714355 C29.5290584564209 6.3808064460754395 29.502288818359375 6.500931262969971 29.424245834350586 6.583309173583984 L29.424245834350586 6.583309173583984 C29.39198112487793 6.541909217834473 29.359718322753906 6.500509262084961 29.32745361328125 6.459109306335449 L29.32745361328125 6.459109306335449 C29.312885284423828 6.551475524902344 29.21772003173828 6.651426315307617 29.124217987060547 6.652472496032715 L29.124217987060547 6.652472496032715 C29.11370849609375 6.600517749786377 29.103199005126953 6.548563480377197 29.092689514160156 6.496608734130859 L29.092689514160156 6.496608734130859 C29.06685447692871 6.536099433898926 29.041017532348633 6.57559061050415 29.015182495117188 6.615081310272217 L29.015182495117188 6.615081310272217 C28.989364624023438 6.583708763122559 28.963544845581055 6.552335739135742 28.937726974487305 6.520963191986084 L28.937726974487305 6.520963191986084 C28.882726669311523 6.43820858001709 28.827728271484375 6.355454444885254 28.772727966308594 6.27269983291626 L28.772727966308594 6.27269983291626"></path></svg>