<svg xmlns="http://www.w3.org/2000/svg" viewBox="0.0 0.0 24.0 24.0" height="200px" width="200px"><path fill="none" stroke="black" stroke-width=".3" stroke-opacity="1.0"  filling="0" d="M13.290982246398926 11.883380889892578 L13.290982246398926 11.883380889892578 C13.356428146362305 11.899444580078125 13.421873092651367 11.915508270263672 13.487318992614746 11.931571960449219 L13.487318992614746 11.931571960449219 C13.891838073730469 11.961735725402832 13.827245712280273 12.125375747680664 13.827245712280273 12.481118202209473 L13.827245712280273 12.481118202209473 C13.774691581726074 12.481118202209473 13.722136497497559 12.481118202209473 13.66958236694336 12.481118202209473 L13.66958236694336 12.481118202209473 C13.669590950012207 12.346518516540527 13.669600486755371 12.211917877197266 13.669609069824219 12.07731819152832 L13.669609069824219 12.07731819152832 C13.594890594482422 12.077327728271484 13.520173072814941 12.077336311340332 13.445454597473145 12.077345848083496 L13.445454597473145 12.077345848083496 C13.445454597473145 12.213018417358398 13.445454597473145 12.3486909866333 13.445454597473145 12.484363555908203 L13.445454597473145 12.484363555908203 C13.393963813781738 12.484363555908203 13.342473030090332 12.484363555908203 13.290982246398926 12.484363555908203 L13.290982246398926 12.484363555908203 C13.290982246398926 12.284035682678223 13.290982246398926 12.083708763122559 13.290982246398926 11.883380889892578 L13.290982246398926 11.883380889892578"></path></svg>