<svg xmlns="http://www.w3.org/2000/svg" viewBox="0.0 0.0 24.0 24.0" height="200px" width="200px"><path fill="none" stroke="black" stroke-width=".3" stroke-opacity="1.0"  filling="0" d="M14.161391258239746 11.839118003845215 L14.161391258239746 11.839118003845215 C14.248391151428223 11.954263687133789 14.3353910446167 12.069409370422363 14.422390937805176 12.184555053710938 L14.422390937805176 12.184555053710938 C14.28913688659668 12.192391395568848 14.155881881713867 12.200227737426758 14.022627830505371 12.208064079284668 L14.022627830505371 12.208064079284668 C14.140484809875488 12.410408973693848 14.218437194824219 12.318297386169434 14.428200721740723 12.258845329284668 L14.428200721740723 12.258845329284668 C13.862926483154297 12.541138648986816 13.691685676574707 12.186641693115234 14.161391258239746 11.839118003845215 L14.161391258239746 11.839118003845215"></path>
<path fill="none" stroke="black" stroke-width=".3" stroke-opacity="1.0"  filling="0" d="M14.107390403747559 11.975154876708984 L14.107390403747559 11.975154876708984 C14.161581039428711 12.00780963897705 14.21577262878418 12.0404634475708 14.269963264465332 12.073118209838867 L14.269963264465332 12.073118209838867 C14.187808990478516 12.08464527130127 14.1056547164917 12.096173286437988 14.023500442504883 12.10770034790039 L14.023500442504883 12.10770034790039 C14.051464080810547 12.063518524169922 14.079426765441895 12.019336700439453 14.107390403747559 11.975154876708984 L14.107390403747559 11.975154876708984"></path></svg>