<svg xmlns="http://www.w3.org/2000/svg" viewBox="0.0 0.0 24.0 24.0" height="200px" width="200px"><path fill="none" stroke="black" stroke-width=".3" stroke-opacity="1.0"  filling="0" d="M13.827299118041992 11.700054168701172 L13.827299118041992 11.700054168701172 C13.827290534973145 11.863672256469727 13.82728099822998 12.027290344238281 13.827272415161133 12.190908432006836 L13.827272415161133 12.190908432006836 C13.735320091247559 12.242137908935547 13.732392311096191 12.380370140075684 13.7046537399292 12.481908798217773 L13.7046537399292 12.481908798217773 C13.65793514251709 12.450118064880371 13.611217498779297 12.418327331542969 13.564498901367188 12.386536598205566 L13.564498901367188 12.386536598205566 C13.592708587646484 12.303263664245605 13.620917320251465 12.219990730285645 13.649127006530762 12.136717796325684 L13.649127006530762 12.136717796325684 C13.602054595947266 12.050481796264648 13.554981231689453 11.964245796203613 13.507908821105957 11.878009796142578 L13.507908821105957 11.878009796142578 C13.573509216308594 11.908600807189941 13.639108657836914 11.939190864562988 13.70470905303955 11.969781875610352 L13.70470905303955 11.969781875610352 C13.745572090148926 11.87987232208252 13.786436080932617 11.789963722229004 13.827299118041992 11.700054168701172 L13.827299118041992 11.700054168701172"></path></svg>