<svg xmlns="http://www.w3.org/2000/svg" viewBox="0.0 0.0 24.0 24.0" height="200px" width="200px"><path fill="none" stroke="black" stroke-width=".3" stroke-opacity="1.0"  filling="0" d="M12.917564392089844 11.858726501464844 L12.917564392089844 11.858726501464844 C12.922636985778809 11.87160873413086 12.92771053314209 11.884490013122559 12.932783126831055 11.897372245788574 L12.932783126831055 11.897372245788574 C12.895882606506348 11.920408248901367 12.858983039855957 11.943445205688477 12.82208251953125 11.96648120880127 L12.82208251953125 11.96648120880127 C12.855673789978027 11.998090744018555 12.889264106750488 12.029699325561523 12.922855377197266 12.061308860778809 L12.922855377197266 12.061308860778809 C12.885709762573242 12.078499794006348 12.848564147949219 12.09568977355957 12.811418533325195 12.11288070678711 L12.811418533325195 12.11288070678711 C12.813081741333008 12.123334884643555 12.814745903015137 12.133790016174316 12.81640911102295 12.144244194030762 L12.81640911102295 12.144244194030762 C12.852972984313965 12.157116889953613 12.88953685760498 12.169989585876465 12.926100730895996 12.182862281799316 L12.926100730895996 12.182862281799316 C12.924864768981934 12.19048023223877 12.923627853393555 12.198099136352539 12.922391891479492 12.205717086791992 L12.922391891479492 12.205717086791992 C12.862527847290039 12.205717086791992 12.802664756774902 12.205717086791992 12.74280071258545 12.205717086791992 L12.74280071258545 12.205717086791992 C12.74280071258545 12.101426124572754 12.74280071258545 11.997136116027832 12.74280071258545 11.892845153808594 L12.74280071258545 11.892845153808594 C12.801054954528809 11.88147258758545 12.859310150146484 11.870099067687988 12.917564392089844 11.858726501464844 L12.917564392089844 11.858726501464844"></path></svg>