<svg xmlns="http://www.w3.org/2000/svg" viewBox="0.0 0.0 24.0 24.0" height="200px" width="200px"><path fill="none" stroke="black" stroke-width=".3" stroke-opacity="1.0"  filling="0" d="M11.664216995239258 11.9317626953125 L11.664216995239258 11.9317626953125 C11.623546600341797 11.96933364868164 11.581794738769531 12.005939483642578 11.537482261657715 12.039135932922363 L11.537482261657715 12.039135932922363 C11.577600479125977 12.050345420837402 11.617718696594238 12.061553955078125 11.6578369140625 12.072763442993164 L11.6578369140625 12.072763442993164 C11.606945991516113 12.111227035522461 11.556055068969727 12.149690628051758 11.50516414642334 12.188154220581055 L11.50516414642334 12.188154220581055 C11.551263809204102 12.204699516296387 11.59736442565918 12.221244812011719 11.643464088439941 12.23779010772705 L11.643464088439941 12.23779010772705 C11.642282485961914 12.245353698730469 11.641100883483887 12.252918243408203 11.63991928100586 12.260481834411621 L11.63991928100586 12.260481834411621 C11.57812786102295 12.260481834411621 11.516337394714355 12.260481834411621 11.454545974731445 12.260481834411621 L11.454545974731445 12.260481834411621 C11.454585075378418 12.13051700592041 11.556931495666504 12.005115509033203 11.664216995239258 11.9317626953125 L11.664216995239258 11.9317626953125"></path></svg>