<svg xmlns="http://www.w3.org/2000/svg" viewBox="0.0 0.0 24.0 24.0" height="200px" width="200px"><path fill="none" stroke="black" stroke-width=".3" stroke-opacity="1.0"  filling="0" d="M7.704518795013428 10.88138198852539 L7.704518795013428 10.88138198852539 C7.932219982147217 11.117644309997559 7.776454925537109 12.368574142456055 7.776108741760254 12.705409049987793 L7.776108741760254 12.705409049987793 C7.900126934051514 12.716963768005371 8.024145126342773 12.728517532348633 8.148162841796875 12.740072250366211 L8.148162841796875 12.740072250366211 C8.148162841796875 12.823990821838379 8.148162841796875 12.90790843963623 8.148162841796875 12.991827011108398 L8.148162841796875 12.991827011108398 C7.770657539367676 13.033422470092773 7.396120071411133 13.035684585571289 7.016563415527344 13.03639030456543 L7.016563415527344 13.03639030456543 C6.986990928649902 12.950263023376465 6.957417964935303 12.8641357421875 6.927845478057861 12.778008460998535 L6.927845478057861 12.778008460998535 C7.064009189605713 12.750945091247559 7.2001729011535645 12.723881721496582 7.336336612701416 12.696818351745605 L7.336336612701416 12.696818351745605 C7.336336612701416 12.190279960632324 7.409616947174072 11.65255355834961 7.334482192993164 11.155172348022461 L7.334482192993164 11.155172348022461 C7.225464344024658 11.155172348022461 7.116446018218994 11.155172348022461 7.007428169250488 11.155172348022461 L7.007428169250488 11.155172348022461 C7.013600826263428 11.064118385314941 7.019773006439209 10.973063468933105 7.025945663452148 10.882009506225586 L7.025945663452148 10.882009506225586 C7.252136707305908 10.881800651550293 7.478327751159668 10.881590843200684 7.704518795013428 10.88138198852539 L7.704518795013428 10.88138198852539"></path></svg>