<svg xmlns="http://www.w3.org/2000/svg" viewBox="0.0 0.0 24.0 24.0" height="200px" width="200px"><path fill="none" stroke="black" stroke-width=".3" stroke-opacity="1.0"  filling="0" d="M12.802909851074219 11.630863189697266 L12.802909851074219 11.630863189697266 C12.836019515991211 11.70719051361084 12.869128227233887 11.783516883850098 12.902237892150879 11.859844207763672 L12.902237892150879 11.859844207763672 C13.48096752166748 11.524444580078125 13.655219078063965 12.008949279785156 13.03415584564209 12.11691665649414 L13.03415584564209 12.11691665649414 C13.413198471069336 12.79246997833252 13.781055450439453 11.654318809509277 14.129291534423828 11.647881507873535 L14.129291534423828 11.647881507873535 C14.063419342041016 11.89970874786377 13.997546195983887 12.151535987854004 13.931674003601074 12.403363227844238 L13.931674003601074 12.403363227844238 C13.870220184326172 12.30544376373291 13.801451683044434 12.183145523071289 13.83117389678955 12.071425437927246 L13.83117389678955 12.071425437927246 C13.82208251953125 12.065625190734863 13.812992095947266 12.059825897216797 13.803900718688965 12.054025650024414 L13.803900718688965 12.054025650024414 C13.501411437988281 12.373440742492676 13.083856582641602 12.70766830444336 12.887182235717773 12.096954345703125 L12.887182235717773 12.096954345703125 C12.560713768005371 12.864889144897461 12.742069244384766 11.839372634887695 12.802909851074219 11.630863189697266 L12.802909851074219 11.630863189697266"></path>
<path fill="none" stroke="black" stroke-width=".3" stroke-opacity="1.0"  filling="0" d="M13.36058235168457 11.755199432373047 L13.36058235168457 11.755199432373047 C13.23586368560791 11.834344863891602 13.111145973205566 11.913490295410156 12.986427307128906 11.992635726928711 L12.986427307128906 11.992635726928711 C13.111145973205566 11.913490295410156 13.23586368560791 11.834344863891602 13.36058235168457 11.755199432373047 L13.36058235168457 11.755199432373047"></path></svg>