<svg xmlns="http://www.w3.org/2000/svg" viewBox="0.0 0.0 24.0 24.0" height="200px" width="200px"><path fill="none" stroke="black" stroke-width=".3" stroke-opacity="1.0"  filling="0" d="M13.126145362854004 11.869281768798828 L13.126145362854004 11.869281768798828 C13.158527374267578 11.88856315612793 13.190908432006836 11.907845497131348 13.22329044342041 11.92712688446045 L13.22329044342041 11.92712688446045 C13.187108993530273 11.935263633728027 13.15092658996582 11.943399429321289 13.114745140075684 11.951536178588867 L13.114745140075684 11.951536178588867 C13.17480754852295 12.029623031616211 13.198802947998047 12.162679672241211 13.145426750183105 12.24548053741455 L13.145426750183105 12.24548053741455 C13.127254486083984 12.245471954345703 13.109081268310547 12.245463371276855 13.090909004211426 12.245454788208008 L13.090909004211426 12.245454788208008 C13.064427375793457 12.211281776428223 13.037945747375488 12.177109718322754 13.01146411895752 12.142936706542969 L13.01146411895752 12.142936706542969 C13.069463729858398 12.142936706542969 13.127464294433594 12.142936706542969 13.185463905334473 12.142936706542969 L13.185463905334473 12.142936706542969 C13.130756378173828 12.067313194274902 13.055956840515137 11.930806159973145 13.126145362854004 11.869281768798828 L13.126145362854004 11.869281768798828"></path></svg>