<svg xmlns="http://www.w3.org/2000/svg" viewBox="0.0 0.0 24.0 24.0" height="200px" width="200px"><path fill="none" stroke="black" stroke-width=".3" stroke-opacity="1.0"  filling="0" d="M20.981840133666992 10.967453002929688 L20.981840133666992 10.967453002929688 C21.08193016052246 11.582906723022461 21.054519653320312 12.176923751831055 21.054519653320312 12.805307388305664 L21.054519653320312 12.805307388305664 C21.175647735595703 12.847198486328125 21.296775817871094 12.88908863067627 21.417903900146484 12.93097972869873 L21.417903900146484 12.93097972869873 C21.047164916992188 13.213590621948242 20.699275970458984 13.169883728027344 20.235382080078125 13.052181243896484 L20.235382080078125 13.052181243896484 C20.272432327270508 12.907193183898926 20.468753814697266 12.818090438842773 20.61840057373047 12.81799030303955 L20.61840057373047 12.81799030303955 C20.6258544921875 12.189276695251465 20.9930477142334 11.295969009399414 20.240455627441406 11.211134910583496 L20.240455627441406 11.211134910583496 C20.240455627441406 11.138453483581543 20.240455627441406 11.065771102905273 20.240455627441406 10.99308967590332 L20.240455627441406 10.99308967590332 C20.48758316040039 10.984543800354004 20.734712600708008 10.975998878479004 20.981840133666992 10.967453002929688 L20.981840133666992 10.967453002929688"></path></svg>