<svg xmlns="http://www.w3.org/2000/svg" viewBox="0.0 0.0 24.0 24.0" height="200px" width="200px"><path fill="none" stroke="black" stroke-width=".3" stroke-opacity="1.0"  filling="0" d="M11.740962982177734 11.182417869567871 L11.740962982177734 11.182417869567871 C11.909689903259277 11.261090278625488 12.078417778015137 11.339763641357422 12.24714469909668 11.418436050415039 L12.24714469909668 11.418436050415039 C12.244026184082031 11.428608894348145 12.2409086227417 11.438780784606934 12.23779010772705 11.448953628540039 L12.23779010772705 11.448953628540039 C12.157990455627441 11.448953628540039 12.078189849853516 11.448953628540039 11.998390197753906 11.448953628540039 L11.998390197753906 11.448953628540039 C11.996017456054688 11.456171989440918 11.993645668029785 11.463390350341797 11.991272926330566 11.470608711242676 L11.991272926330566 11.470608711242676 C12.076927185058594 11.517963409423828 12.162581443786621 11.56531810760498 12.248235702514648 11.612672805786133 L12.248235702514648 11.612672805786133 C12.239753723144531 11.624263763427734 12.23127269744873 11.635854721069336 12.222790718078613 11.647445678710938 L12.222790718078613 11.647445678710938 C12.022269248962402 11.580020904541016 11.850098609924316 11.55418586730957 11.736681938171387 11.37226390838623 L11.736681938171387 11.37226390838623 C11.809964179992676 11.37226390838623 11.883245468139648 11.37226390838623 11.956527709960938 11.37226390838623 L11.956527709960938 11.37226390838623 C11.95859146118164 11.364518165588379 11.960654258728027 11.356773376464844 11.96271800994873 11.349027633666992 L11.96271800994873 11.349027633666992 C11.881791114807129 11.306937217712402 11.800863265991211 11.264845848083496 11.71993637084961 11.222755432128906 L11.71993637084961 11.222755432128906 C11.726944923400879 11.209309577941895 11.733954429626465 11.195863723754883 11.740962982177734 11.182417869567871 L11.740962982177734 11.182417869567871"></path></svg>