<svg xmlns="http://www.w3.org/2000/svg" viewBox="0.0 0.0 24.0 24.0" height="200px" width="200px"><path fill="none" stroke="black" stroke-width=".3" stroke-opacity="1.0"  filling="0" d="M16.40473747253418 10.882989883422852 L16.40473747253418 10.882989883422852 C16.449682235717773 10.891135215759277 16.49462890625 10.899280548095703 16.539573669433594 10.907425880432129 L16.539573669433594 10.907425880432129 C16.677703857421875 11.306013107299805 15.224827766418457 13.427107810974121 14.639400482177734 12.989781379699707 L14.639400482177734 12.989781379699707 C15.111595153808594 12.387495040893555 15.583795547485352 11.785213470458984 16.056001663208008 11.18293571472168 L16.056001663208008 11.18293571472168 C15.70943546295166 11.116862297058105 15.607604026794434 11.088357925415039 15.0969820022583 11.155172348022461 C14.745946884155273 11.201105117797852 15.160301208496094 11.728070259094238 14.657537460327148 11.727217674255371 L14.657537460327148 11.727217674255371 C14.557470321655273 11.478906631469727 14.590137481689453 11.194559097290039 14.590855598449707 10.926844596862793 L14.590855598449707 10.926844596862793 C15.17872142791748 10.784713745117188 15.799933433532715 10.883272171020508 16.40473747253418 10.882989883422852 L16.40473747253418 10.882989883422852"></path></svg>