<svg xmlns="http://www.w3.org/2000/svg" viewBox="0.0 0.0 24.0 24.0" height="200px" width="200px"><path fill="none" stroke="black" stroke-width=".3" stroke-opacity="1.0"  filling="0" d="M11.73122787475586 12.350645065307617 L11.73122787475586 12.350645065307617 C11.98461627960205 12.408267974853516 12.255182266235352 12.473554611206055 12.239618301391602 12.79041862487793 L12.239618301391602 12.79041862487793 C12.070155143737793 12.723036766052246 11.900691032409668 12.655654907226562 11.73122787475586 12.588273048400879 L11.73122787475586 12.588273048400879 C11.73122787475586 12.509063720703125 11.73122787475586 12.429854393005371 11.73122787475586 12.350645065307617 L11.73122787475586 12.350645065307617"></path>
<path fill="none" stroke="black" stroke-width=".3" stroke-opacity="1.0"  filling="0" d="M11.80551815032959 12.44080924987793 L11.80551815032959 12.44080924987793 C11.882659912109375 12.451130867004395 11.92662239074707 12.54400634765625 11.96399974822998 12.612273216247559 L11.96399974822998 12.612273216247559 C11.896583557128906 12.573383331298828 11.79983901977539 12.518430709838867 11.80551815032959 12.44080924987793 L11.80551815032959 12.44080924987793"></path>
<path fill="none" stroke="black" stroke-width=".3" stroke-opacity="1.0"  filling="0" d="M12.02781867980957 12.56830883026123 L12.02781867980957 12.56830883026123 C12.07706356048584 12.6055908203125 12.126309394836426 12.642871856689453 12.175554275512695 12.680153846740723 L12.175554275512695 12.680153846740723 C12.126309394836426 12.642871856689453 12.07706356048584 12.6055908203125 12.02781867980957 12.56830883026123 L12.02781867980957 12.56830883026123"></path></svg>