<svg xmlns="http://www.w3.org/2000/svg" viewBox="0.0 0.0 24.0 24.0" height="200px" width="200px"><path fill="none" stroke="black" stroke-width=".3" stroke-opacity="1.0"  filling="0" d="M11.781818389892578 9.300000190734863 L11.781818389892578 9.300000190734863 C11.800000190734863 9.300000190734863 11.818181991577148 9.300000190734863 11.836363792419434 9.300000190734863 L11.836363792419434 9.300000190734863 C11.902181625366211 9.338918685913086 11.968000411987305 9.377836227416992 12.033818244934082 9.416754722595215 L12.033818244934082 9.416754722595215 C12.01345443725586 9.377836227416992 11.993090629577637 9.338918685913086 11.972726821899414 9.300000190734863 L11.972726821899414 9.300000190734863 C12.03636360168457 9.300000190734863 12.09999942779541 9.300000190734863 12.163636207580566 9.300000190734863 L12.163636207580566 9.300000190734863 C12.20470905303955 9.410418510437012 12.245781898498535 9.520835876464844 12.28685474395752 9.631254196166992 L12.28685474395752 9.631254196166992 C12.118509292602539 9.562317848205566 11.950163841247559 9.49338150024414 11.781818389892578 9.424445152282715 L11.781818389892578 9.424445152282715 C11.781818389892578 9.382963180541992 11.781818389892578 9.341482162475586 11.781818389892578 9.300000190734863 L11.781818389892578 9.300000190734863"></path>
<path fill="none" stroke="black" stroke-width=".3" stroke-opacity="1.0"  filling="0" d="M12.085445404052734 9.399381637573242 L12.085445404052734 9.399381637573242 C12.132863998413086 9.437554359436035 12.180281639099121 9.475727081298828 12.227700233459473 9.513899803161621 L12.227700233459473 9.513899803161621 C12.180281639099121 9.475727081298828 12.132863998413086 9.437554359436035 12.085445404052734 9.399381637573242 L12.085445404052734 9.399381637573242"></path></svg>