<svg xmlns="http://www.w3.org/2000/svg" viewBox="0.0 0.0 24.0 24.0" height="200px" width="200px"><path fill="none" stroke="black" stroke-width=".3" stroke-opacity="1.0"  filling="0" d="M9.805418014526367 11.100190162658691 L9.805418014526367 11.100190162658691 C9.899945259094238 11.10988998413086 9.994471549987793 11.119590759277344 10.088998794555664 11.129290580749512 L10.088998794555664 11.129290580749512 C10.237844467163086 11.443954467773438 10.386690139770508 11.758617401123047 10.53553581237793 12.073281288146973 L10.53553581237793 12.073281288146973 C10.537954330444336 11.760544776916504 10.540371894836426 11.447809219360352 10.542790412902832 11.135072708129883 L10.542790412902832 11.135072708129883 C10.647635459899902 11.142281532287598 10.752481460571289 11.149491310119629 10.85732650756836 11.156700134277344 L10.85732650756836 11.156700134277344 C10.884332656860352 11.709157943725586 10.778151512145996 12.29738998413086 10.886727333068848 12.830100059509277 L10.886727333068848 12.830100059509277 C10.408708572387695 12.865385055541992 10.33421516418457 12.448397636413574 10.14201831817627 12.067853927612305 L10.14201831817627 12.067853927612305 C10.121536254882812 12.309353828430176 10.101054191589355 12.550854682922363 10.080572128295898 12.792354583740234 L10.080572128295898 12.792354583740234 C9.971062660217285 12.823145866394043 9.861554145812988 12.853936195373535 9.752044677734375 12.884727478027344 L9.752044677734375 12.884727478027344 C9.796192169189453 12.290070533752441 9.818337440490723 11.69627857208252 9.805418014526367 11.100190162658691 L9.805418014526367 11.100190162658691"></path></svg>