<svg xmlns="http://www.w3.org/2000/svg" viewBox="0.0 0.0 24.0 24.0" height="200px" width="200px"><path fill="none" stroke="black" stroke-width=".3" stroke-opacity="1.0"  filling="0" d="M13.878572463989258 11.235518455505371 L13.878572463989258 11.235518455505371 C14.099563598632812 11.235518455505371 14.320554733276367 11.235518455505371 14.541545867919922 11.235518455505371 L14.541545867919922 11.235518455505371 C14.535209655761719 11.321036338806152 14.5288724899292 11.40655517578125 14.522536277770996 11.492073059082031 L14.522536277770996 11.492073059082031 C14.42746353149414 11.502163887023926 14.332390785217285 11.51225471496582 14.23731803894043 11.522345542907715 L14.23731803894043 11.522345542907715 C14.23731803894043 11.651999473571777 14.23731803894043 11.781654357910156 14.23731803894043 11.911308288574219 L14.23731803894043 11.911308288574219 C14.322590827941895 11.911308288574219 14.407864570617676 11.911308288574219 14.49313735961914 11.911308288574219 L14.49313735961914 11.911308288574219 C14.49313735961914 11.99500846862793 14.49313735961914 12.07870864868164 14.49313735961914 12.162408828735352 L14.49313735961914 12.162408828735352 C14.3992919921875 12.176717758178711 14.305445671081543 12.191027641296387 14.211600303649902 12.205336570739746 L14.211600303649902 12.205336570739746 C14.222090721130371 12.343372344970703 14.232582092285156 12.481409072875977 14.243072509765625 12.619444847106934 L14.243072509765625 12.619444847106934 C14.381499290466309 12.619444847106934 14.519927024841309 12.619444847106934 14.658353805541992 12.619444847106934 L14.658353805541992 12.619444847106934 C14.643417358398438 12.726517677307129 14.6284818649292 12.833590507507324 14.613545417785645 12.94066333770752 L14.613545417785645 12.94066333770752 C14.371745109558105 12.926708221435547 14.129945755004883 12.91275405883789 13.888145446777344 12.898798942565918 L13.888145446777344 12.898798942565918 C13.884954452514648 12.344371795654297 13.881763458251953 11.789945602416992 13.878572463989258 11.235518455505371 L13.878572463989258 11.235518455505371"></path></svg>