<svg xmlns="http://www.w3.org/2000/svg" viewBox="0.0 0.0 24.0 24.0" height="200px" width="200px"><path fill="none" stroke="black" stroke-width=".3" stroke-opacity="1.0"  filling="0" d="M11.679925918579102 11.209855079650879 L11.679925918579102 11.209855079650879 C11.877690315246582 11.21318244934082 12.075453758239746 11.216509819030762 12.273218154907227 11.219837188720703 L12.273218154907227 11.219837188720703 C12.287290573120117 11.359968185424805 12.090426445007324 11.479098320007324 11.950199127197266 11.492181777954102 L11.950199127197266 11.492181777954102 C11.963035583496094 11.60687255859375 11.975872039794922 11.721564292907715 11.98870849609375 11.836255073547363 L11.98870849609375 11.836255073547363 C12.289583206176758 11.838833808898926 12.237832069396973 11.873062133789062 12.189327239990234 12.178882598876953 L12.189327239990234 12.178882598876953 C11.790321350097656 12.093485832214355 11.945585250854492 12.77380084991455 11.945562362670898 12.900192260742188 L11.945562362670898 12.900192260742188 C11.833266258239746 12.909648895263672 11.719449996948242 12.905867576599121 11.607571601867676 12.892337799072266 L11.607571601867676 12.892337799072266 C11.607016563415527 12.494394302368164 11.416699409484863 11.542247772216797 11.679925918579102 11.209855079650879 L11.679925918579102 11.209855079650879"></path></svg>