<svg xmlns="http://www.w3.org/2000/svg" viewBox="0.0 0.0 24.0 24.0" height="200px" width="200px"><path fill="none" stroke="black" stroke-width=".3" stroke-opacity="1.0"  filling="0" d="M10.723118782043457 7.962982177734375 L10.723118782043457 7.962982177734375 C11.13376235961914 8.014267921447754 13.862509727478027 8.551774978637695 11.702618598937988 8.56082820892334 L11.702618598937988 8.56082820892334 C11.84897232055664 8.442634582519531 12.33616828918457 8.630788803100586 12.349228858947754 8.410009384155273 C12.372971534729004 8.008644104003906 9.9474458694458 7.9850335121154785 9.67361068725586 8.212746620178223 L9.67361068725586 8.212746620178223 C10.112154960632324 8.285246849060059 10.550700187683105 8.357746124267578 10.98924446105957 8.430246353149414 L10.98924446105957 8.430246353149414 C10.953481674194336 8.350455284118652 10.917717933654785 8.270663261413574 10.88195514678955 8.190872192382812 L10.88195514678955 8.190872192382812 C11.038350105285645 8.269533157348633 11.183391571044922 8.394012451171875 11.267400741577148 8.547600746154785 L11.267400741577148 8.547600746154785 C10.148724555969238 8.449921607971191 8.543012619018555 7.965325355529785 10.723118782043457 7.962982177734375 L10.723118782043457 7.962982177734375"></path></svg>