<svg xmlns="http://www.w3.org/2000/svg" viewBox="0.0 0.0 24.0 24.0" height="200px" width="200px"><path fill="none" stroke="black" stroke-width=".3" stroke-opacity="1.0"  filling="0" d="M6.458536148071289 11.125965118408203 L6.458536148071289 11.125965118408203 C6.577945232391357 11.126392364501953 6.697354316711426 11.126818656921387 6.816763401031494 11.127245903015137 L6.816763401031494 11.127245903015137 C6.5673089027404785 11.407509803771973 6.317854404449463 11.687773704528809 6.068399906158447 11.968037605285645 L6.068399906158447 11.968037605285645 C6.330918312072754 12.363110542297363 6.593436241149902 12.758182525634766 6.855954647064209 13.153255462646484 L6.855954647064209 13.153255462646484 C6.182403087615967 13.265734672546387 6.1583428382873535 12.754314422607422 5.788008689880371 12.273165702819824 L5.788008689880371 12.273165702819824 C5.484748363494873 12.526937484741211 5.613680839538574 12.896768569946289 5.529109001159668 13.2240571975708 L5.529109001159668 13.2240571975708 C5.419517993927002 13.2240571975708 5.309927463531494 13.2240571975708 5.200336456298828 13.2240571975708 L5.200336456298828 13.2240571975708 C5.0142974853515625 12.881035804748535 5.138085842132568 11.421780586242676 5.180727005004883 11.132453918457031 L5.180727005004883 11.132453918457031 C5.30379056930542 11.132453918457031 5.426854610443115 11.132453918457031 5.549918174743652 11.132453918457031 L5.549918174743652 11.132453918457031 C5.555627346038818 11.425644874572754 5.561336040496826 11.718836784362793 5.567045211791992 12.012027740478516 L5.567045211791992 12.012027740478516 C5.820915699005127 11.734000205993652 6.10577392578125 11.273940086364746 6.458536148071289 11.125965118408203 L6.458536148071289 11.125965118408203"></path></svg>