<svg xmlns="http://www.w3.org/2000/svg" viewBox="0.0 0.0 24.0 24.0" height="200px" width="200px"><path fill="none" stroke="black" stroke-width=".3" stroke-opacity="1.0"  filling="0" d="M10.000961303710938 8.6367826461792 L10.000961303710938 8.6367826461792 C11.006550788879395 8.710469245910645 12.704935073852539 8.463399887084961 13.346834182739258 9.3527193069458 L13.346834182739258 9.3527193069458 C13.338044166564941 9.361536979675293 13.329254150390625 9.370355606079102 13.320464134216309 9.379173278808594 L13.320464134216309 9.379173278808594 C12.782981872558594 9.11325454711914 12.55136489868164 8.920076370239258 11.907816886901855 8.918100357055664 L11.907816886901855 8.918100357055664 C11.985071182250977 9.011382102966309 12.062326431274414 9.104663848876953 12.139580726623535 9.197945594787598 L12.139580726623535 9.197945594787598 C11.939501762390137 9.123490333557129 11.74399185180664 9.016230583190918 11.591153144836426 8.867181777954102 L11.591153144836426 8.867181777954102 C11.196817398071289 8.836688041687012 10.80248737335205 8.805791854858398 10.408634185791016 8.769599914550781 L10.408634185791016 8.769599914550781 C10.518843650817871 8.909845352172852 10.62905216217041 9.050090789794922 10.739261627197266 9.190336227416992 L10.739261627197266 9.190336227416992 C10.411133766174316 9.23662281036377 10.178145408630371 8.8762788772583 10.000961303710938 8.6367826461792 L10.000961303710938 8.6367826461792"></path></svg>