<svg xmlns="http://www.w3.org/2000/svg" viewBox="0.0 0.0 24.0 24.0" height="200px" width="200px"><path fill="none" stroke="black" stroke-width=".3" stroke-opacity="1.0"  filling="0" d="M10.040264129638672 15.258735656738281 L10.040264129638672 15.258735656738281 C10.922189712524414 15.381155967712402 11.820853233337402 15.412692070007324 12.697691917419434 15.559690475463867 L12.697691917419434 15.559690475463867 C12.495658874511719 15.837080001831055 12.497430801391602 15.84775161743164 12.182510375976562 16.001998901367188 L12.182510375976562 16.001998901367188 C12.277837753295898 15.870144844055176 12.373165130615234 15.738289833068848 12.46849250793457 15.606435775756836 L12.46849250793457 15.606435775756836 C11.860787391662598 15.532593727111816 11.658608436584473 15.489022254943848 11.120674133300781 15.772964477539062 L11.120674133300781 15.772964477539062 C11.182019233703613 15.67978286743164 11.243365287780762 15.586600303649902 11.304710388183594 15.49341869354248 L11.304710388183594 15.49341869354248 C10.748732566833496 15.293307304382324 10.135703086853027 15.670552253723145 9.547582626342773 15.727746963500977 L9.547582626342773 15.727746963500977 C9.69284725189209 15.553648948669434 9.826889038085938 15.33543586730957 10.040264129638672 15.258735656738281 L10.040264129638672 15.258735656738281"></path></svg>