<svg xmlns="http://www.w3.org/2000/svg" viewBox="0.0 0.0 24.0 24.0" height="200px" width="200px"><path fill="none" stroke="black" stroke-width=".3" stroke-opacity="1.0"  filling="0" d="M11.13646411895752 8.380827903747559 L11.13646411895752 8.380827903747559 C11.460346221923828 8.380827903747559 11.784228324890137 8.380827903747559 12.108110427856445 8.380827903747559 L12.108110427856445 8.380827903747559 C12.108110427856445 9.26596450805664 12.108110427856445 10.151100158691406 12.108110427856445 11.036236763000488 L12.108110427856445 11.036236763000488 C12.118419647216797 11.040318489074707 12.128728866577148 11.044401168823242 12.1390380859375 11.048482894897461 L12.1390380859375 11.048482894897461 C12.467304229736328 10.492300987243652 13.110645294189453 9.98051643371582 13.756474494934082 9.981818199157715 L13.756474494934082 9.981818199157715 C13.501581192016602 10.582891464233398 12.965743064880371 11.100988388061523 12.78308391571045 11.724082946777344 C12.657174110412598 12.153592109680176 13.744077682495117 13.833420753479004 13.940400123596191 14.256628036499023 L13.940400123596191 14.256628036499023 C13.590126991271973 14.256628036499023 13.23985481262207 14.256628036499023 12.889581680297852 14.256628036499023 L12.889581680297852 14.256628036499023 C12.635008811950684 13.721455574035645 12.380436897277832 13.18628215789795 12.125864028930664 12.65110969543457 L12.125864028930664 12.65110969543457 C12.114400863647461 12.65416431427002 12.102937698364258 12.657218933105469 12.091474533081055 12.660273551940918 L12.091474533081055 12.660273551940918 C12.091474533081055 13.19103717803955 12.091474533081055 13.721800804138184 12.091474533081055 14.252564430236816 L12.091474533081055 14.252564430236816 C11.773138046264648 14.252564430236816 11.454800605773926 14.252564430236816 11.13646411895752 14.252564430236816 L11.13646411895752 14.252564430236816 C11.13646411895752 12.295316696166992 11.13646411895752 10.338075637817383 11.13646411895752 8.380827903747559 L11.13646411895752 8.380827903747559"></path></svg>