<svg xmlns="http://www.w3.org/2000/svg" viewBox="0.0 0.0 24.0 24.0" height="200px" width="200px"><path fill="none" stroke="black" stroke-width=".3" stroke-opacity="1.0"  filling="0" d="M12.470508575439453 10.479382514953613 L12.470508575439453 10.479382514953613 C12.594167709350586 10.586969375610352 12.66256046295166 10.764180183410645 12.6722993850708 10.927800178527832 L12.6722993850708 10.927800178527832 C12.611353874206543 10.927800178527832 12.550408363342285 10.927800178527832 12.489462852478027 10.927800178527832 L12.489462852478027 10.927800178527832 C12.525262832641602 10.883472442626953 12.561062812805176 10.83914566040039 12.59686279296875 10.794817924499512 L12.59686279296875 10.794817924499512 C12.211628913879395 10.764659881591797 11.823533058166504 10.758672714233398 11.43771743774414 10.780144691467285 L11.43771743774414 10.780144691467285 C11.419662475585938 10.71613597869873 11.40160846710205 10.652127265930176 11.383553504943848 10.588118553161621 L11.383553504943848 10.588118553161621 C11.778215408325195 10.609188079833984 12.174226760864258 10.63439655303955 12.568936347961426 10.614246368408203 L12.568936347961426 10.614246368408203 C12.536127090454102 10.569292068481445 12.503317832946777 10.524336814880371 12.470508575439453 10.479382514953613 L12.470508575439453 10.479382514953613"></path></svg>