<svg xmlns="http://www.w3.org/2000/svg" viewBox="0.0 0.0 24.0 24.0" height="200px" width="200px"><path fill="none" stroke="black" stroke-width=".3" stroke-opacity="1.0"  filling="0" d="M11.534618377685547 13.583562850952148 L11.534618377685547 13.583562850952148 C11.951037406921387 13.619683265686035 12.382566452026367 13.68564224243164 12.78856372833252 13.586263656616211 L12.78856372833252 13.586263656616211 C12.784436225891113 13.663309097290039 12.780308723449707 13.740354537963867 12.7761812210083 13.817399978637695 L12.7761812210083 13.817399978637695 C12.493690490722656 13.867791175842285 12.211199760437012 13.918181419372559 11.928709030151367 13.968572616577148 L11.928709030151367 13.968572616577148 C12.170736312866211 13.980408668518066 12.412762641906738 13.9922456741333 12.654789924621582 14.004081726074219 L12.654789924621582 14.004081726074219 C12.67614459991455 14.040691375732422 12.697498321533203 14.077300071716309 12.718852996826172 14.113909721374512 L12.718852996826172 14.113909721374512 C12.515397071838379 14.202021598815918 11.724982261657715 14.092033386230469 11.438780784606934 14.067682266235352 L11.438780784606934 14.067682266235352 C11.434181213378906 14.03055477142334 11.429580688476562 13.993426322937012 11.424981117248535 13.956298828125 L11.424981117248535 13.956298828125 C11.68956184387207 13.841104507446289 12.141377449035645 13.812053680419922 12.436225891113281 13.741690635681152 L12.436225891113281 13.741690635681152 C12.433562278747559 13.729108810424805 12.430899620056152 13.716526985168457 12.42823600769043 13.70394515991211 L12.42823600769043 13.70394515991211 C12.115690231323242 13.70394515991211 11.803145408630371 13.70394515991211 11.490599632263184 13.70394515991211 L11.490599632263184 13.70394515991211 C11.486917495727539 13.667908668518066 11.483236312866211 13.63187313079834 11.479554176330566 13.595836639404297 L11.479554176330566 13.595836639404297 C11.497908592224121 13.591745376586914 11.516263961791992 13.587654113769531 11.534618377685547 13.583562850952148 L11.534618377685547 13.583562850952148"></path></svg>