<svg xmlns="http://www.w3.org/2000/svg" viewBox="0.0 0.0 24.0 24.0" height="200px" width="200px"><path fill="none" stroke="black" stroke-width=".3" stroke-opacity="1.0"  filling="0" d="M21.73641586303711 10.227273941040039 L21.73641586303711 10.227273941040039 C21.73641586303711 10.238465309143066 21.73636245727539 13.488810539245605 21.73636245727539 13.5 L21.73636245727539 13.5 C21.615581512451172 13.5 21.494800567626953 13.5 21.374019622802734 13.5 L21.374019622802734 13.5 C21.385147094726562 12.993836402893066 21.396272659301758 12.487671852111816 21.407400131225586 11.981508255004883 L21.407400131225586 11.981508255004883 C21.39705467224121 11.978435516357422 21.386709213256836 11.975362777709961 21.37636375427246 11.9722900390625 L21.37636375427246 11.9722900390625 C21.18117332458496 12.360072135925293 20.985980987548828 12.747854232788086 20.790790557861328 13.135636329650879 L20.790790557861328 13.135636329650879 C20.606691360473633 12.786454200744629 20.422590255737305 12.437273025512695 20.23849105834961 12.088090896606445 L20.23849105834961 12.088090896606445 C20.228700637817383 12.091172218322754 20.218908309936523 12.094254493713379 20.209117889404297 12.097335815429688 L20.209117889404297 12.097335815429688 C20.206209182739258 12.865689277648926 20.465513229370117 13.48123836517334 19.563325881958008 13.52724552154541 L19.563325881958008 13.52724552154541 C19.47324562072754 12.469188690185547 19.50312042236328 11.371756553649902 19.50005531311035 10.309391021728516 L19.50005531311035 10.309391021728516 C20.407732009887695 10.312517166137695 20.468765258789062 10.988221168518066 20.82392692565918 11.768782615661621 L20.82392692565918 11.768782615661621 C21.056001663208008 11.206461906433105 21.142902374267578 10.457538604736328 21.73641586303711 10.227273941040039 L21.73641586303711 10.227273941040039"></path></svg>