<svg xmlns="http://www.w3.org/2000/svg" viewBox="0.0 0.0 24.0 24.0" height="200px" width="200px"><path fill="none" stroke="black" stroke-width=".3" stroke-opacity="1.0"  filling="0" d="M1.5490903854370117 8.346927642822266 L1.5490903854370117 8.346927642822266 C3.221904993057251 8.35321044921875 6.014412879943848 8.867925643920898 4.039391040802002 11.262354850769043 L4.039391040802002 11.262354850769043 C5.988244533538818 13.614206314086914 3.293341636657715 14.236254692077637 1.438446044921875 14.236254692077637 L1.438446044921875 14.236254692077637 C1.4693812131881714 12.279919624328613 1.472603440284729 10.324864387512207 1.4732732772827148 8.368309020996094 L1.4732732772827148 8.368309020996094 C1.4985456466674805 8.36118221282959 1.523818016052246 8.35405445098877 1.5490903854370117 8.346927642822266 L1.5490903854370117 8.346927642822266"></path>
<path fill="none" stroke="black" stroke-width=".3" stroke-opacity="1.0"  filling="0" d="M2.4548187255859375 9.358036041259766 L2.4548187255859375 9.358036041259766 C2.706345796585083 9.37431812286377 2.9716506004333496 9.323180198669434 3.209400177001953 9.406883239746094 C4.607184410095215 9.898991584777832 2.4872610569000244 11.129517555236816 2.4546546936035156 10.66221809387207 C2.4243948459625244 10.228545188903809 2.4547641277313232 9.792763710021973 2.4548187255859375 9.358036041259766 L2.4548187255859375 9.358036041259766"></path>
<path fill="none" stroke="black" stroke-width=".3" stroke-opacity="1.0"  filling="0" d="M2.5897903442382812 11.781953811645508 L2.5897903442382812 11.781953811645508 C3.9117074012756348 12.137491226196289 3.7868175506591797 13.108014106750488 2.4591808319091797 13.255690574645996 L2.4591808319091797 13.255690574645996 C2.4369988441467285 12.728217124938965 2.2117083072662354 12.175763130187988 2.5897903442382812 11.781953811645508 L2.5897903442382812 11.781953811645508"></path></svg>