<svg xmlns="http://www.w3.org/2000/svg" viewBox="0.0 0.0 24.0 24.0" height="200px" width="200px"><path fill="none" stroke="black" stroke-width=".3" stroke-opacity="1.0"  filling="0" d="M28.67247200012207 10.044626235961914 L28.67247200012207 10.044626235961914 C28.99546241760254 10.044626235961914 29.31845474243164 10.044626235961914 29.64144515991211 10.044626235961914 L29.64144515991211 10.044626235961914 C29.648263931274414 10.122981071472168 29.655080795288086 10.201335906982422 29.66189956665039 10.279690742492676 L29.66189956665039 10.279690742492676 C30.32099723815918 9.830265045166016 30.68436622619629 10.15824031829834 31.09816551208496 10.673126220703125 L31.09816551208496 10.673126220703125 C30.812091827392578 10.874954223632812 30.526018142700195 11.076781272888184 30.239944458007812 11.278609275817871 L30.239944458007812 11.278609275817871 C30.078128814697266 10.895495414733887 29.850942611694336 11.008095741271973 29.645591735839844 11.302663803100586 C29.416915893554688 11.630691528320312 29.673418045043945 13.887724876403809 29.621946334838867 14.306781768798828 L29.621946334838867 14.306781768798828 C29.30545425415039 14.306781768798828 28.988964080810547 14.306781768798828 28.67247200012207 14.306781768798828 L28.67247200012207 14.306781768798828 C28.67247200012207 12.886062622070312 28.67247200012207 11.46534538269043 28.67247200012207 10.044626235961914 L28.67247200012207 10.044626235961914"></path></svg>