<svg xmlns="http://www.w3.org/2000/svg" viewBox="0.0 0.0 24.0 24.0" height="200px" width="200px"><path fill="none" stroke="black" stroke-width=".3" stroke-opacity="1.0"  filling="0" d="M-0.4795360565185547 10.581245422363281 L-0.4795360565185547 10.581245422363281 C0.15851593017578125 11.00767993927002 0.8016214370727539 12.595253944396973 1.098245620727539 13.380791664123535 L1.098245620727539 13.380791664123535 C0.7900276184082031 13.380791664123535 0.4818096160888672 13.380791664123535 0.17359161376953125 13.380791664123535 L0.17359161376953125 13.380791664123535 C0.10409164428710938 13.243264198303223 0.0345916748046875 13.105737686157227 -0.034908294677734375 12.968210220336914 L-0.034908294677734375 12.968210220336914 C-0.5764630436897278 12.968210220336914 -1.1180179119110107 12.968210220336914 -1.6595726013183594 12.968210220336914 L-1.6595726013183594 12.968210220336914 C-1.7912954092025757 13.251419067382812 -2.1962029933929443 13.3655366897583 -2.508544921875 13.364781379699707 L-2.508544921875 13.364781379699707 C-2.5084645748138428 13.36462116241455 -1.1165834665298462 10.585515975952148 -1.1147994995117188 10.581954002380371 L-1.1147994995117188 10.581954002380371 C-0.9030449986457825 10.581717491149902 -0.691290557384491 10.58148193359375 -0.4795360565185547 10.581245422363281 L-0.4795360565185547 10.581245422363281"></path>
<path fill="none" stroke="black" stroke-width=".3" stroke-opacity="1.0"  filling="0" d="M-0.9486541748046875 11.183127403259277 L-0.9486541748046875 11.183127403259277 C-0.7182725071907043 11.637127876281738 -0.48789089918136597 12.091127395629883 -0.2575092315673828 12.545127868652344 L-0.2575092315673828 12.545127868652344 C-0.6593364477157593 12.545127868652344 -1.0611635446548462 12.545127868652344 -1.4629907608032227 12.545127868652344 L-1.4629907608032227 12.545127868652344 C-1.2753089666366577 12.13041877746582 -1.0876270532608032 11.71570873260498 -0.8999452590942383 11.300999641418457 L-0.8999452590942383 11.300999641418457 C-0.9161815643310547 11.261709213256836 -0.9324178695678711 11.222417831420898 -0.9486541748046875 11.183127403259277 L-0.9486541748046875 11.183127403259277"></path></svg>