<svg xmlns="http://www.w3.org/2000/svg" viewBox="0.0 0.0 24.0 24.0" height="200px" width="200px"><path fill="none" stroke="black" stroke-width=".3" stroke-opacity="1.0"  filling="0" d="M9.696518898010254 20.585834503173828 L9.696518898010254 20.585834503173828 C9.707646369934082 20.590925216674805 9.718772888183594 20.596017837524414 9.729900360107422 20.60110855102539 L9.729900360107422 20.60110855102539 C9.677518844604492 20.734071731567383 9.625137329101562 20.867034912109375 9.572755813598633 20.999998092651367 L9.572755813598633 20.999998092651367 C9.554574012756348 20.999998092651367 9.536391258239746 20.999998092651367 9.518209457397461 20.999998092651367 L9.518209457397461 20.999998092651367 C9.49188232421875 20.928071975708008 9.465555191040039 20.856143951416016 9.439228057861328 20.784217834472656 L9.439228057861328 20.784217834472656 C9.4019193649292 20.856143951416016 9.364609718322754 20.928071975708008 9.327301025390625 20.999998092651367 L9.327301025390625 20.999998092651367 C9.245473861694336 20.999998092651367 9.16364574432373 21.0 9.081818580627441 21.0 L9.081818580627441 21.0 C9.088936805725098 20.979808807373047 9.096055030822754 20.959617614746094 9.10317325592041 20.93942642211914 L9.10317325592041 20.93942642211914 C9.20867919921875 20.98495101928711 9.147554397583008 20.700679779052734 9.103145599365234 20.59469985961914 L9.103145599365234 20.59469985961914 C9.17656421661377 20.674636840820312 9.249981880187988 20.754573822021484 9.323400497436523 20.834510803222656 L9.323400497436523 20.834510803222656 C9.360945701599121 20.755037307739258 9.398491859436035 20.675565719604492 9.436037063598633 20.596092224121094 L9.436037063598633 20.596092224121094 C9.477910041809082 20.681110382080078 9.519782066345215 20.766128540039062 9.561655044555664 20.851146697998047 L9.561655044555664 20.851146697998047 C9.606609344482422 20.76270866394043 9.651564598083496 20.674272537231445 9.696518898010254 20.585834503173828 L9.696518898010254 20.585834503173828"></path></svg>