<svg xmlns="http://www.w3.org/2000/svg" viewBox="0.0 0.0 24.0 24.0" height="200px" width="200px"><path fill="none" stroke="black" stroke-width=".3" stroke-opacity="1.0"  filling="0" d="M7.473463535308838 9.175280570983887 L7.473463535308838 9.175280570983887 C8.576980590820312 9.417757034301758 8.773411750793457 9.77208137512207 8.781790733337402 10.849444389343262 L8.781790733337402 10.849444389343262 C8.418172836303711 10.849444389343262 8.054553985595703 10.849444389343262 7.690936088562012 10.849444389343262 L7.690936088562012 10.849444389343262 C7.693686485290527 9.827651023864746 6.429222106933594 9.453417778015137 6.410345077514648 10.602599143981934 C6.404350280761719 10.967554092407227 6.411124229431152 13.308960914611816 6.436909198760986 13.433426856994629 C6.730535984039307 14.850780487060547 7.693106174468994 13.422845840454102 7.691672325134277 12.744380950927734 L7.691672325134277 12.744380950927734 C8.050399780273438 12.744380950927734 8.409127235412598 12.744380950927734 8.767854690551758 12.744380950927734 L8.767854690551758 12.744380950927734 C8.835491180419922 14.29049301147461 7.369962215423584 15.567317962646484 5.816891193389893 14.5308256149292 C5.120467185974121 14.066044807434082 5.291102886199951 13.048297882080078 5.290963649749756 12.332235336303711 C5.290585994720459 10.388848304748535 5.199474811553955 9.198105812072754 7.473463535308838 9.175280570983887 L7.473463535308838 9.175280570983887"></path></svg>