<svg xmlns="http://www.w3.org/2000/svg" viewBox="0.0 0.0 24.0 24.0" height="200px" width="200px"><path fill="none" stroke="black" stroke-width=".3" stroke-opacity="1.0"  filling="0" d="M-4.412345886230469 10.641764640808105 L-4.412345886230469 10.641764640808105 C-3.698845863342285 10.641764640808105 -2.9853458404541016 10.641764640808105 -2.271845817565918 10.641764640808105 L-2.271845817565918 10.641764640808105 C-2.271845817565918 10.891919136047363 -2.271845817565918 11.142073631286621 -2.271845817565918 11.392228126525879 L-2.271845817565918 11.392228126525879 C-2.7113544940948486 11.392228126525879 -3.1508634090423584 11.392228126525879 -3.590372085571289 11.392228126525879 L-3.590372085571289 11.392228126525879 C-3.590372085571289 11.467063903808594 -3.590372085571289 11.541900634765625 -3.590372085571289 11.61673641204834 L-3.590372085571289 11.61673641204834 C-3.3047993183135986 11.61673641204834 -3.0192267894744873 11.61673641204834 -2.733654022216797 11.61673641204834 L-2.733654022216797 11.61673641204834 C-2.733654022216797 11.869154930114746 -2.733654022216797 12.121572494506836 -2.733654022216797 12.373991012573242 L-2.733654022216797 12.373991012573242 C-3.030444860458374 12.393211364746094 -3.326317548751831 12.361225128173828 -3.620838165283203 12.408190727233887 L-3.620838165283203 12.408190727233887 C-3.6869428157806396 12.912887573242188 -2.5374948978424072 12.654600143432617 -2.273890495300293 12.654600143432617 L-2.273890495300293 12.654600143432617 C-2.273890495300293 12.907745361328125 -2.273890495300293 13.16089153289795 -2.273890495300293 13.414036750793457 L-2.273890495300293 13.414036750793457 C-2.9988181591033936 13.426661491394043 -3.723745584487915 13.439288139343262 -4.448673248291016 13.451918601989746 L-4.448673248291016 13.451918601989746 C-4.436561107635498 12.5152006149292 -4.42445182800293 11.578482627868652 -4.412345886230469 10.641764640808105 L-4.412345886230469 10.641764640808105"></path></svg>