<svg xmlns="http://www.w3.org/2000/svg" viewBox="0.0 0.0 24.0 24.0" height="200px" width="200px"><path fill="none" stroke="black" stroke-width=".3" stroke-opacity="1.0"  filling="0" d="M24.598339080810547 10.581790924072266 L24.598339080810547 10.581790924072266 C25.474977493286133 10.581790924072266 28.926908493041992 10.858118057250977 26.700435638427734 12.557426452636719 L26.700435638427734 12.557426452636719 C26.875408172607422 12.831944465637207 27.05038070678711 13.106462478637695 27.225353240966797 13.380980491638184 L27.225353240966797 13.380980491638184 C26.883472442626953 13.380980491638184 26.541589736938477 13.380980491638184 26.199708938598633 13.380980491638184 L26.199708938598633 13.380980491638184 C25.890262603759766 12.821746826171875 25.99001121520996 12.673055648803711 25.47695541381836 12.680781364440918 L25.47695541381836 12.680781364440918 C25.47695541381836 12.922072410583496 25.47695541381836 13.163362503051758 25.47695541381836 13.404653549194336 L25.47695541381836 13.404653549194336 C25.18408203125 13.404653549194336 24.89120864868164 13.404653549194336 24.59833526611328 13.404653549194336 L24.59833526611328 13.404653549194336 C24.598337173461914 12.463699340820312 24.598339080810547 11.522745132446289 24.598339080810547 10.581790924072266 L24.598339080810547 10.581790924072266"></path>
<path fill="none" stroke="black" stroke-width=".3" stroke-opacity="1.0"  filling="0" d="M25.568727493286133 11.372289657592773 L25.568727493286133 11.372289657592773 C25.771337509155273 11.372498512268066 25.97394561767578 11.372708320617676 26.176555633544922 11.372917175292969 L26.176555633544922 11.372917175292969 C26.403730392456055 11.917328834533691 25.8535099029541 11.89094066619873 25.472753524780273 11.89101791381836 L25.472753524780273 11.89101791381836 C25.472492218017578 11.715173721313477 25.445297241210938 11.49753475189209 25.568727493286133 11.372289657592773 L25.568727493286133 11.372289657592773"></path></svg>