<svg xmlns="http://www.w3.org/2000/svg" viewBox="0.0 0.0 24.0 24.0" height="200px" width="200px"><path fill="none" stroke="black" stroke-width=".3" stroke-opacity="1.0"  filling="0" d="M29.66948127746582 10.591609954833984 L29.66948127746582 10.591609954833984 C29.97407341003418 10.591609954833984 30.27866554260254 10.591609954833984 30.5832576751709 10.591609954833984 L30.5832576751709 10.591609954833984 C30.597843170166016 11.804693222045898 31.169044494628906 13.363011360168457 29.63754653930664 13.363664627075195 L29.63754653930664 13.363664627075195 C29.648300170898438 13.01282787322998 29.659055709838867 12.661991119384766 29.669809341430664 12.31115436553955 L29.669809341430664 12.31115436553955 C29.3831729888916 12.31115436553955 29.096534729003906 12.31115436553955 28.809898376464844 12.31115436553955 L28.809898376464844 12.31115436553955 C28.771074295043945 12.665022850036621 28.80521583557129 13.023096084594727 28.790672302246094 13.37890911102295 L28.790672302246094 13.37890911102295 C28.468753814697266 13.37890911102295 28.146835327148438 13.37890911102295 27.82491683959961 13.37890911102295 L27.82491683959961 13.37890911102295 C27.82491683959961 13.365829467773438 27.82491683959961 10.627687454223633 27.82491683959961 10.618854522705078 L27.82491683959961 10.618854522705078 C28.14954376220703 10.618854522705078 28.474172592163086 10.618854522705078 28.798799514770508 10.618854522705078 L28.798799514770508 10.618854522705078 C28.798799514770508 10.854972839355469 28.798799514770508 11.09109115600586 28.798799514770508 11.32720947265625 L28.798799514770508 11.32720947265625 C29.089027404785156 11.314918518066406 29.379253387451172 11.302627563476562 29.66948127746582 11.290336608886719 L29.66948127746582 11.290336608886719 C29.66948127746582 11.057427406311035 29.66948127746582 10.824519157409668 29.66948127746582 10.591609954833984 L29.66948127746582 10.591609954833984"></path></svg>