<svg xmlns="http://www.w3.org/2000/svg" viewBox="0.0 0.0 24.0 24.0" height="200px" width="200px"><path fill="none" stroke="black" stroke-width=".3" stroke-opacity="1.0"  filling="0" d="M6.763554096221924 8.261429786682129 L6.763554096221924 8.261429786682129 C7.08219051361084 8.261429786682129 7.400826930999756 8.261429786682129 7.719463348388672 8.261429786682129 L7.719463348388672 8.261429786682129 C7.704756736755371 9.004944801330566 7.695216655731201 9.748580932617188 7.69104528427124 10.492229461669922 L7.69104528427124 10.492229461669922 C9.912918090820312 8.760059356689453 9.13885498046875 14.771566390991211 9.069246292114258 15.431509971618652 L9.069246292114258 15.431509971618652 C8.786872863769531 15.444719314575195 8.504500389099121 15.457927703857422 8.222126960754395 15.471137046813965 L8.222126960754395 15.471137046813965 C8.102434158325195 14.714001655578613 8.226547241210938 13.359719276428223 8.234270095825195 12.538695335388184 C8.238901138305664 12.046365737915039 8.516789436340332 11.002281188964844 8.029963493347168 11.075838088989258 C7.435911178588867 11.165596008300781 7.6656060218811035 12.088644027709961 7.663090705871582 12.334774017333984 C7.652430534362793 13.377948760986328 7.631290435791016 14.421125411987305 7.594881534576416 15.463719367980957 L7.594881534576416 15.463719367980957 C7.266950607299805 15.464655876159668 6.952955722808838 15.49465560913086 6.627299785614014 15.455238342285156 L6.627299785614014 15.455238342285156 C6.62911319732666 13.154168128967285 6.43089485168457 10.539848327636719 6.763554096221924 8.261429786682129 L6.763554096221924 8.261429786682129"></path></svg>