<svg xmlns="http://www.w3.org/2000/svg" viewBox="0.0 0.0 24.0 24.0" height="200px" width="200px"><path fill="none" stroke="black" stroke-width=".3" stroke-opacity="1.0"  filling="0" d="M17.875579833984375 10.279991149902344 L17.875579833984375 10.279991149902344 C19.68418312072754 10.384112358093262 19.70454978942871 11.35772705078125 19.541126251220703 13.036199569702148 L19.541126251220703 13.036199569702148 C19.023942947387695 13.050904273986816 18.57190704345703 13.036789894104004 18.038127899169922 13.03647232055664 L18.038127899169922 13.03647232055664 C17.99786376953125 13.423623085021973 17.688352584838867 14.707087516784668 18.260047912597656 14.82845401763916 C18.58643913269043 14.897745132446289 18.494163513183594 14.201827049255371 18.57270050048828 13.877535820007324 C18.662731170654297 13.505782127380371 19.474239349365234 13.71677303314209 19.519636154174805 13.718372344970703 L19.519636154174805 13.718372344970703 C19.58523941040039 14.8392972946167 19.244243621826172 16.311365127563477 17.680145263671875 15.584537506103516 C16.14629554748535 14.871766090393066 16.767961502075195 11.031255722045898 17.875579833984375 10.279991149902344 L17.875579833984375 10.279991149902344"></path>
<path fill="none" stroke="black" stroke-width=".3" stroke-opacity="1.0"  filling="0" d="M18.329181671142578 11.181844711303711 L18.329181671142578 11.181844711303711 C18.722074508666992 11.530329704284668 18.599971771240234 11.634387969970703 18.600000381469727 12.196854591369629 L18.600000381469727 12.196854591369629 C17.858749389648438 12.181429862976074 17.800939559936523 11.63664436340332 18.329181671142578 11.181844711303711 L18.329181671142578 11.181844711303711"></path></svg>