<svg xmlns="http://www.w3.org/2000/svg" viewBox="0.0 0.0 24.0 24.0" height="200px" width="200px"><path fill="none" stroke="black" stroke-width=".3" stroke-opacity="1.0"  filling="0" d="M6.333954334259033 8.265081405639648 L6.333954334259033 8.265081405639648 C6.386209011077881 8.274945259094238 6.4384636878967285 8.284808158874512 6.490718364715576 8.294672012329102 L6.490718364715576 8.294672012329102 C6.491145133972168 8.95798110961914 5.784203052520752 9.512971878051758 5.837045192718506 10.174172401428223 C5.851075649261475 10.3497314453125 6.186570644378662 10.219738960266113 6.359373092651367 10.253754615783691 C6.633602142333984 10.307735443115234 6.463852405548096 10.806243896484375 6.463527202606201 11.085735321044922 L6.463527202606201 11.085735321044922 C6.258491039276123 11.102853775024414 6.053454399108887 11.119972229003906 5.848418235778809 11.137090682983398 L5.848418235778809 11.137090682983398 C5.802475929260254 12.536590576171875 6.012336254119873 14.125814437866211 5.712600231170654 15.490854263305664 L5.712600231170654 15.490854263305664 C5.403547286987305 15.491402626037598 5.097102642059326 15.544114112854004 4.791109085083008 15.490389823913574 L4.791109085083008 15.490389823913574 C4.818792343139648 14.063045501708984 4.989465713500977 12.538829803466797 4.847127437591553 11.12702751159668 L4.847127437591553 11.12702751159668 C4.753090858459473 11.12702751159668 4.659054756164551 11.12702751159668 4.565018177032471 11.12702751159668 L4.565018177032471 11.12702751159668 C4.565018177032471 10.856136322021484 4.565018177032471 10.585245132446289 4.565018177032471 10.314353942871094 L4.565018177032471 10.314353942871094 C4.667090892791748 10.292390823364258 4.769163608551025 10.270426750183105 4.871236324310303 10.24846363067627 L4.871236324310303 10.24846363067627 C4.950872898101807 9.101095199584961 5.012051105499268 8.270129203796387 6.333954334259033 8.265081405639648 L6.333954334259033 8.265081405639648"></path></svg>