<svg xmlns="http://www.w3.org/2000/svg" viewBox="0.0 0.0 24.0 24.0" height="200px" width="200px"><path fill="none" stroke="black" stroke-width=".3" stroke-opacity="1.0"  filling="0" d="M11.911172866821289 11.704718589782715 L11.911172866821289 11.704718589782715 C11.927072525024414 11.812064170837402 11.942973136901855 11.91940975189209 11.95887279510498 12.026755332946777 L11.95887279510498 12.026755332946777 C12.016609191894531 11.927909851074219 12.074345588684082 11.82906436920166 12.132081985473633 11.730218887329102 L12.132081985473633 11.730218887329102 C12.142782211303711 11.731364250183105 12.153481483459473 11.73250961303711 12.16418170928955 11.733654975891113 L12.16418170928955 11.733654975891113 C12.214324951171875 11.945483207702637 12.027856826782227 12.148385047912598 11.93397331237793 12.344781875610352 L11.93397331237793 12.344781875610352 C11.907636642456055 12.246790885925293 11.881300926208496 12.148799896240234 11.854964256286621 12.050808906555176 L11.854964256286621 12.050808906555176 C11.782710075378418 12.147626876831055 11.710454940795898 12.24444580078125 11.638200759887695 12.341263771057129 L11.638200759887695 12.341263771057129 C11.729191780090332 12.129081726074219 11.820181846618652 11.916900634765625 11.911172866821289 11.704718589782715 L11.911172866821289 11.704718589782715"></path></svg>