<svg xmlns="http://www.w3.org/2000/svg" viewBox="0.0 0.0 24.0 24.0" height="200px" width="200px"><path fill="none" stroke="black" stroke-width=".3" stroke-opacity="1.0"  filling="0" d="M12.407509803771973 11.82400894165039 L12.407509803771973 11.82400894165039 C12.35588264465332 11.987809181213379 12.304255485534668 12.15160846710205 12.252628326416016 12.315408706665039 L12.252628326416016 12.315408706665039 C12.241646766662598 12.313563346862793 12.230664253234863 12.311717987060547 12.219682693481445 12.3098726272583 L12.219682693481445 12.3098726272583 C12.22415542602539 12.23988151550293 12.22862720489502 12.169891357421875 12.233099937438965 12.099900245666504 L12.233099937438965 12.099900245666504 C12.184736251831055 12.17539119720459 12.136372566223145 12.25088119506836 12.088008880615234 12.326372146606445 L12.088008880615234 12.326372146606445 C12.055973052978516 12.261735916137695 12.02393627166748 12.197099685668945 11.991900444030762 12.132463455200195 L11.991900444030762 12.132463455200195 C11.958900451660156 12.20565414428711 11.925899505615234 12.27884578704834 11.892899513244629 12.352036476135254 L11.892899513244629 12.352036476135254 C11.880754470825195 12.3495454788208 11.868608474731445 12.347054481506348 11.856463432312012 12.344563484191895 L11.856463432312012 12.344563484191895 C11.8777494430542 12.163711547851562 11.993342399597168 12.006248474121094 12.080018997192383 11.846099853515625 L12.080018997192383 11.846099853515625 C12.080018997192383 11.94729995727539 12.080018997192383 12.048500061035156 12.080018997192383 12.149700164794922 L12.080018997192383 12.149700164794922 C12.18918228149414 12.041136741638184 12.298346519470215 11.932572364807129 12.407509803771973 11.82400894165039 L12.407509803771973 11.82400894165039"></path></svg>