<svg xmlns="http://www.w3.org/2000/svg" viewBox="0.0 0.0 24.0 24.0" height="200px" width="200px"><path fill="none" stroke="black" stroke-width=".3" stroke-opacity="1.0"  filling="0" d="M11.500936508178711 11.749009132385254 L11.500936508178711 11.749009132385254 C11.513306617736816 11.752342224121094 11.751764297485352 11.766043663024902 11.681509971618652 11.863663673400879 L11.681509971618652 11.863663673400879 C11.6499662399292 11.845687866210938 11.618743896484375 11.827108383178711 11.58818244934082 11.807509422302246 L11.58818244934082 11.807509422302246 C11.544963836669922 11.939900398254395 11.50174617767334 12.072291374206543 11.458527565002441 12.204682350158691 L11.458527565002441 12.204682350158691 C11.476591110229492 12.131373405456543 11.494654655456543 12.058063507080078 11.512718200683594 11.98475456237793 L11.512718200683594 11.98475456237793 C11.558609008789062 12.01108169555664 11.604499816894531 12.037408828735352 11.650390625 12.063735961914062 L11.650390625 12.063735961914062 C11.597227096557617 12.15871810913086 11.544063568115234 12.253700256347656 11.490900039672852 12.348682403564453 L11.490900039672852 12.348682403564453 C11.403934478759766 12.168669700622559 11.411184310913086 11.92764949798584 11.500936508178711 11.749009132385254 L11.500936508178711 11.749009132385254"></path></svg>