<svg xmlns="http://www.w3.org/2000/svg" viewBox="0.0 0.0 24.0 24.0" height="200px" width="200px"><path fill="none" stroke="black" stroke-width=".3" stroke-opacity="1.0"  filling="0" d="M2.88796329498291 10.105145454406738 L2.88796329498291 10.105145454406738 C2.924926996231079 10.13774585723877 2.961890935897827 10.170345306396484 2.998854637145996 10.202945709228516 L2.998854637145996 10.202945709228516 C2.87015700340271 10.360472679138184 2.7346603870391846 10.390909194946289 2.5363636016845703 10.390909194946289 L2.5363636016845703 10.390909194946289 C2.5363636016845703 10.354545593261719 2.5363636016845703 10.318181991577148 2.5363636016845703 10.281818389892578 L2.5363636016845703 10.281818389892578 C2.6615636348724365 10.267064094543457 2.7867634296417236 10.252309799194336 2.91196346282959 10.237555503845215 L2.91196346282959 10.237555503845215 C2.9132816791534424 10.224464416503906 2.914600133895874 10.211373329162598 2.9159183502197266 10.198282241821289 L2.9159183502197266 10.198282241821289 C2.880790948867798 10.17812728881836 2.8456637859344482 10.157973289489746 2.8105363845825195 10.137818336486816 L2.8105363845825195 10.137818336486816 C2.8363454341888428 10.126927375793457 2.862154245376587 10.116036415100098 2.88796329498291 10.105145454406738 L2.88796329498291 10.105145454406738"></path></svg>