<svg xmlns="http://www.w3.org/2000/svg" viewBox="0.0 0.0 24.0 24.0" height="200px" width="200px"><path fill="none" stroke="black" stroke-width=".3" stroke-opacity="1.0"  filling="0" d="M12.204329490661621 11.79131031036377 L12.204329490661621 11.79131031036377 C12.174901962280273 11.835283279418945 12.145474433898926 11.879256248474121 12.116046905517578 11.923229217529297 L12.116046905517578 11.923229217529297 C12.145318984985352 11.934064865112305 12.174592018127441 11.944901466369629 12.203864097595215 11.955737113952637 L12.203864097595215 11.955737113952637 C12.152618408203125 11.984591484069824 12.101373672485352 12.013446807861328 12.050127983093262 12.042301177978516 L12.050127983093262 12.042301177978516 C12.052164077758789 12.051019668579102 12.054200172424316 12.059737205505371 12.056236267089844 12.068455696105957 L12.056236267089844 12.068455696105957 C12.09085464477539 12.077237129211426 12.125473022460938 12.086019515991211 12.160091400146484 12.09480094909668 L12.160091400146484 12.09480094909668 C12.161482810974121 12.104119300842285 12.162873268127441 12.11343765258789 12.164264678955078 12.122756004333496 L12.164264678955078 12.122756004333496 C12.104755401611328 12.143338203430176 12.045247077941895 12.163919448852539 11.985737800598145 12.184501647949219 L11.985737800598145 12.184501647949219 C12.058601379394531 12.053438186645508 12.131465911865234 11.92237377166748 12.204329490661621 11.79131031036377 L12.204329490661621 11.79131031036377"></path></svg>