<svg xmlns="http://www.w3.org/2000/svg" viewBox="0.0 0.0 24.0 24.0" height="200px" width="200px"><path fill="none" stroke="black" stroke-width=".3" stroke-opacity="1.0"  filling="0" d="M10.194927215576172 11.661709785461426 L10.194927215576172 11.661709785461426 C10.259754180908203 11.69306468963623 10.324581146240234 11.724418640136719 10.389408111572266 11.755773544311523 L10.389408111572266 11.755773544311523 C10.359171867370605 11.868518829345703 10.328935623168945 11.981264114379883 10.298699378967285 12.094009399414062 L10.298699378967285 12.094009399414062 C10.356463432312012 12.115809440612793 10.414226531982422 12.137609481811523 10.471990585327148 12.159409523010254 L10.471990585327148 12.159409523010254 C10.505217552185059 12.04936408996582 10.538445472717285 11.939318656921387 10.571672439575195 11.829273223876953 L10.571672439575195 11.829273223876953 C10.634736061096191 11.843836784362793 10.697800636291504 11.858400344848633 10.7608642578125 11.872963905334473 L10.7608642578125 11.872963905334473 C10.672130584716797 12.272180557250977 10.1260986328125 13.301566123962402 10.434354782104492 12.338972091674805 L10.434354782104492 12.338972091674805 C10.372027397155762 12.324981689453125 10.309700012207031 12.310990333557129 10.2473726272583 12.29699993133545 L10.2473726272583 12.29699993133545 C10.193563461303711 12.432991027832031 10.139754295349121 12.568982124328613 10.085945129394531 12.704973220825195 L10.085945129394531 12.704973220825195 C9.734960556030273 12.701861381530762 10.11977767944336 11.811484336853027 10.194927215576172 11.661709785461426 L10.194927215576172 11.661709785461426"></path></svg>