<svg xmlns="http://www.w3.org/2000/svg" viewBox="0.0 0.0 24.0 24.0" height="200px" width="200px"><path fill="none" stroke="black" stroke-width=".3" stroke-opacity="1.0"  filling="0" d="M12.96406364440918 11.756672859191895 L12.96406364440918 11.756672859191895 C12.973954200744629 11.761063575744629 12.983845710754395 11.76545524597168 12.993736267089844 11.769845962524414 L12.993736267089844 11.769845962524414 C12.952263832092285 11.92966365814209 12.91079044342041 12.089482307434082 12.869318008422852 12.249300003051758 L12.869318008422852 12.249300003051758 C12.865509033203125 12.176145553588867 12.861700057983398 12.102991104125977 12.857891082763672 12.029836654663086 L12.857891082763672 12.029836654663086 C12.802990913391113 12.112509727478027 12.748090744018555 12.195181846618652 12.693190574645996 12.277854919433594 L12.693190574645996 12.277854919433594 C12.68472671508789 12.275527000427246 12.676263809204102 12.273200035095215 12.667799949645996 12.270872116088867 L12.667799949645996 12.270872116088867 C12.656044960021973 12.204208374023438 12.644290924072266 12.137544631958008 12.632535934448242 12.070880889892578 L12.632535934448242 12.070880889892578 C12.625662803649902 12.070199012756348 12.618790626525879 12.069517135620117 12.611917495727539 12.068835258483887 L12.611917495727539 12.068835258483887 C12.575235366821289 12.147553443908691 12.538554191589355 12.226271629333496 12.501872062683105 12.3049898147583 L12.501872062683105 12.3049898147583 C12.557499885559082 12.13279914855957 12.613126754760742 11.96060848236084 12.668754577636719 11.78841781616211 L12.668754577636719 11.78841781616211 C12.68892765045166 11.88180923461914 12.709099769592285 11.975200653076172 12.729272842407227 12.068592071533203 L12.729272842407227 12.068592071533203 C12.807536125183105 11.964618682861328 12.8858003616333 11.86064624786377 12.96406364440918 11.756672859191895 L12.96406364440918 11.756672859191895"></path></svg>