<svg xmlns="http://www.w3.org/2000/svg" viewBox="0.0 0.0 24.0 24.0" height="200px" width="200px"><path fill="none" stroke="black" stroke-width=".3" stroke-opacity="1.0"  filling="0" d="M11.483073234558105 11.764609336853027 L11.483073234558105 11.764609336853027 C11.755732536315918 11.845486640930176 11.752911567687988 11.954590797424316 11.480046272277832 11.998446464538574 L11.480046272277832 11.998446464538574 C11.457418441772461 12.045855522155762 11.434791564941406 12.093263626098633 11.412163734436035 12.14067268371582 L11.412163734436035 12.14067268371582 C11.397309303283691 12.133727073669434 11.382454872131348 12.126782417297363 11.367600440979004 12.119836807250977 L11.367600440979004 12.119836807250977 C11.406091690063477 12.00142765045166 11.444581985473633 11.883018493652344 11.483073234558105 11.764609336853027 L11.483073234558105 11.764609336853027"></path>
<path fill="none" stroke="black" stroke-width=".3" stroke-opacity="1.0"  filling="0" d="M11.535900115966797 11.788063049316406 L11.535900115966797 11.788063049316406 C11.574872970581055 11.818717956542969 11.613845825195312 11.849372863769531 11.65281867980957 11.880027770996094 L11.65281867980957 11.880027770996094 C11.614618301391602 11.905263900756836 11.576417922973633 11.930500984191895 11.538217544555664 11.955737113952637 L11.538217544555664 11.955737113952637 C11.52855396270752 11.94996452331543 11.518890380859375 11.944190979003906 11.50922679901123 11.9384183883667 L11.50922679901123 11.9384183883667 C11.518117904663086 11.888299942016602 11.527009010314941 11.838181495666504 11.535900115966797 11.788063049316406 L11.535900115966797 11.788063049316406"></path></svg>