<svg xmlns="http://www.w3.org/2000/svg" viewBox="0.0 0.0 24.0 24.0" height="200px" width="200px"><path fill="none" stroke="black" stroke-width=".3" stroke-opacity="1.0"  filling="0" d="M13.19274616241455 8.76567268371582 L13.19274616241455 8.76567268371582 C15.438313484191895 9.597757339477539 13.061213493347168 12.94827938079834 12.718063354492188 14.297698974609375 L12.718063354492188 14.297698974609375 C13.176399230957031 14.286190032958984 13.634736061096191 14.27468204498291 14.093071937561035 14.26317310333252 L14.093071937561035 14.26317310333252 C14.093071937561035 14.535472869873047 14.093071937561035 14.807772636413574 14.093071937561035 15.080072402954102 L14.093071937561035 15.080072402954102 C14.068583488464355 15.080429077148438 11.83575439453125 15.112990379333496 11.824527740478516 15.113154411315918 L11.824527740478516 15.113154411315918 C11.921428680419922 13.606435775756836 12.557329177856445 12.82404899597168 13.056109428405762 11.463519096374512 C13.168985366821289 11.155625343322754 13.367971420288086 10.029718399047852 13.145100593566895 9.73731803894043 C12.981049537658691 9.522088050842285 12.707785606384277 9.417062759399414 12.627519607543945 9.822599411010742 C12.550067901611328 10.213916778564453 12.965765953063965 10.960404396057129 12.571036338806152 11.017990112304688 C12.317556381225586 11.05496883392334 12.058709144592285 11.017990112304688 11.802545547485352 11.017990112304688 L11.802545547485352 11.017990112304688 C11.116767883300781 9.733315467834473 12.077652931213379 8.770927429199219 13.19274616241455 8.76567268371582 L13.19274616241455 8.76567268371582"></path></svg>