<svg xmlns="http://www.w3.org/2000/svg" viewBox="0.0 0.0 24.0 24.0" height="200px" width="200px"><path fill="none" stroke="black" stroke-width=".3" stroke-opacity="1.0"  filling="0" d="M15.060518264770508 8.737961769104004 L15.060518264770508 8.737961769104004 C15.79226303100586 9.014366149902344 15.859811782836914 11.165739059448242 15.18376350402832 11.020825386047363 C13.648456573486328 10.691725730895996 14.942805290222168 10.392548561096191 15.053508758544922 10.391236305236816 L15.053508758544922 10.391236305236816 C15.053508758544922 10.491626739501953 15.053508758544922 10.592018127441406 15.053508758544922 10.692408561706543 L15.053508758544922 10.692408561706543 C15.228170394897461 10.603911399841309 15.32724380493164 10.368528366088867 15.327327728271484 10.17272663116455 L15.327327728271484 10.17272663116455 C14.429974555969238 10.170775413513184 14.683417320251465 9.21638011932373 15.060518264770508 8.737961769104004 L15.060518264770508 8.737961769104004"></path>
<path fill="none" stroke="black" stroke-width=".3" stroke-opacity="1.0"  filling="0" d="M15.30777359008789 9.078409194946289 L15.30777359008789 9.078409194946289 C15.30777359008789 9.353913307189941 15.300880432128906 9.822301864624023 15.027435302734375 9.855927467346191 L15.027435302734375 9.855927467346191 C15.028116226196289 9.580424308776855 15.046470642089844 9.165722846984863 15.30777359008789 9.078409194946289 L15.30777359008789 9.078409194946289"></path></svg>