<svg xmlns="http://www.w3.org/2000/svg" viewBox="0.0 0.0 24.0 24.0" height="200px" width="200px"><path fill="none" stroke="black" stroke-width=".3" stroke-opacity="1.0"  filling="0" d="M11.293445587158203 11.406489372253418 L11.293445587158203 11.406489372253418 C12.281781196594238 11.926406860351562 12.662675857543945 11.448932647705078 13.62720012664795 11.778870582580566 L13.62720012664795 11.778870582580566 C13.329127311706543 12.038665771484375 12.754469871520996 11.847786903381348 12.51174545288086 12.108599662780762 L12.51174545288086 12.108599662780762 C12.813163757324219 12.184999465942383 13.114582061767578 12.261399269104004 13.416000366210938 12.337799072265625 L13.416000366210938 12.337799072265625 C12.654485702514648 12.553189277648926 11.364755630493164 12.298419952392578 10.600746154785156 11.977553367614746 L10.600746154785156 11.977553367614746 C10.967424392700195 11.902935981750488 11.281415939331055 12.021561622619629 11.64512825012207 12.005316734313965 L11.64512825012207 12.005316734313965 C11.353757858276367 11.786279678344727 10.97579288482666 11.673853874206543 10.664918899536133 11.46940803527832 L10.664918899536133 11.46940803527832 C10.874427795410156 11.448434829711914 11.08393669128418 11.427462577819824 11.293445587158203 11.406489372253418 L11.293445587158203 11.406489372253418"></path></svg>