<svg xmlns="http://www.w3.org/2000/svg" viewBox="0.0 0.0 24.0 24.0" height="200px" width="200px"><path fill="none" stroke="black" stroke-width=".3" stroke-opacity="1.0"  filling="0" d="M12.702191352844238 11.846372604370117 L12.702191352844238 11.846372604370117 C12.773181915283203 11.846372604370117 12.844173431396484 11.846372604370117 12.91516399383545 11.846372604370117 L12.91516399383545 11.846372604370117 C12.880681991577148 11.87773609161377 12.846199989318848 11.909100532531738 12.811717987060547 11.94046401977539 L12.811717987060547 11.94046401977539 C12.839699745178223 11.96414566040039 12.867682456970215 11.987828254699707 12.89566421508789 12.011509895324707 L12.89566421508789 12.011509895324707 C12.86596393585205 12.045637130737305 12.836264610290527 12.079764366149902 12.806564331054688 12.1138916015625 L12.806564331054688 12.1138916015625 C12.856009483337402 12.145800590515137 12.905454635620117 12.17771053314209 12.954899787902832 12.209619522094727 L12.954899787902832 12.209619522094727 C12.878890991210938 12.21386432647705 12.802881240844727 12.218110084533691 12.726872444152832 12.222354888916016 L12.726872444152832 12.222354888916016 C12.718645095825195 12.097027778625488 12.710418701171875 11.971699714660645 12.702191352844238 11.846372604370117 L12.702191352844238 11.846372604370117"></path></svg>