<svg xmlns="http://www.w3.org/2000/svg" viewBox="0.0 0.0 24.0 24.0" height="200px" width="200px"><path fill="none" stroke="black" stroke-width=".3" stroke-opacity="1.0"  filling="0" d="M9.456026077270508 8.073599815368652 L9.456026077270508 8.073599815368652 C10.323108673095703 8.393080711364746 10.988105773925781 9.449220657348633 10.255799293518066 10.343045234680176 L10.255799293518066 10.343045234680176 C9.916464805603027 11.164450645446777 9.263221740722656 11.287610054016113 8.615453720092773 10.770273208618164 L8.615453720092773 10.770273208618164 C8.388656616210938 10.089731216430664 9.206048011779785 9.132551193237305 9.32994556427002 9.908945083618164 L9.32994556427002 9.908945083618164 C8.50556755065918 9.95834732055664 8.756302833557129 11.429771423339844 9.873464584350586 10.438636779785156 C10.614054679870605 9.78159236907959 10.011395454406738 8.33198070526123 9.06640911102295 8.404528617858887 C7.280020713806152 8.541671752929688 5.79789400100708 12.12047290802002 5.86508321762085 13.568727493286133 C5.93536901473999 15.083728790283203 6.654548645019531 16.4456787109375 7.858855247497559 14.493627548217773 L7.858855247497559 14.493627548217773 C8.013947486877441 15.090174674987793 7.655075550079346 15.564885139465332 7.445509433746338 16.063581466674805 L7.445509433746338 16.063581466674805 C6.800055027008057 16.063581466674805 6.154600143432617 16.063581466674805 5.509145736694336 16.063581466674805 L5.509145736694336 16.063581466674805 C5.509105205535889 14.755697250366211 5.603262901306152 12.872942924499512 6.143712043762207 11.25978946685791 C6.684161186218262 9.646636962890625 7.670901775360107 8.303083419799805 9.456026077270508 8.073599815368652 L9.456026077270508 8.073599815368652"></path></svg>