<svg xmlns="http://www.w3.org/2000/svg" viewBox="0.0 0.0 24.0 24.0" height="200px" width="200px"><path fill="none" stroke="black" stroke-width=".3" stroke-opacity="1.0"  filling="0" d="M11.822372436523438 9.611072540283203 L11.822372436523438 9.611072540283203 C12.179952621459961 9.73082160949707 12.458686828613281 10.03291130065918 12.705763816833496 10.317790985107422 L12.705763816833496 10.317790985107422 C12.72930908203125 10.134063720703125 12.752854347229004 9.950336456298828 12.776399612426758 9.766609191894531 L12.776399612426758 9.766609191894531 C13.076417922973633 9.766609191894531 13.376435279846191 9.766609191894531 13.676453590393066 9.766609191894531 L13.676453590393066 9.766609191894531 C13.848134994506836 10.1742525100708 13.709609031677246 10.862334251403809 13.71929931640625 11.300346374511719 C13.750126838684082 12.693815231323242 14.143095016479492 15.109704971313477 13.131409645080566 16.255529403686523 L13.131409645080566 16.255529403686523 C12.140142440795898 16.717601776123047 10.715441703796387 16.54702377319336 10.86092758178711 15.037801742553711 L10.86092758178711 15.037801742553711 C11.942327499389648 14.919364929199219 12.805497169494629 15.772720336914062 12.668072700500488 14.08093547821045 L12.668072700500488 14.08093547821045 C11.497657775878906 15.020456314086914 10.85576057434082 13.954044342041016 10.649372100830078 12.790063858032227 C10.41192626953125 11.450928688049316 10.795629501342773 10.417863845825195 11.822372436523438 9.611072540283203 L11.822372436523438 9.611072540283203"></path>
<path fill="none" stroke="black" stroke-width=".3" stroke-opacity="1.0"  filling="0" d="M12.19892692565918 11.01815414428711 L12.19892692565918 11.01815414428711 C12.668694496154785 11.331490516662598 13.001945495605469 13.488197326660156 12.135136604309082 13.183390617370605 C11.304733276367188 12.891386032104492 11.617369651794434 11.304189682006836 12.19892692565918 11.01815414428711 L12.19892692565918 11.01815414428711"></path></svg>