<svg xmlns="http://www.w3.org/2000/svg" viewBox="0.0 0.0 24.0 24.0" height="200px" width="200px"><path fill="none" stroke="black" stroke-width=".3" stroke-opacity="1.0"  filling="0" d="M11.329635620117188 11.54211711883545 L11.329635620117188 11.54211711883545 C11.413390159606934 11.54211711883545 11.497145652770996 11.54211711883545 11.580900192260742 11.54211711883545 L11.580900192260742 11.54211711883545 C11.565500259399414 11.775980949401855 11.55009937286377 12.009844779968262 11.534699440002441 12.243708610534668 L11.534699440002441 12.243708610534668 C11.578548431396484 12.370277404785156 11.66478157043457 12.518752098083496 11.606099128723145 12.63916301727295 L11.606099128723145 12.63916301727295 C11.531217575073242 12.51085376739502 11.45633602142334 12.382545471191406 11.381454467773438 12.254236221313477 L11.381454467773438 12.254236221313477 C11.365218162536621 12.370645523071289 11.348981857299805 12.487053871154785 11.332745552062988 12.603463172912598 L11.332745552062988 12.603463172912598 C11.21107292175293 12.271260261535645 11.315755844116211 11.895627975463867 11.329635620117188 11.54211711883545 L11.329635620117188 11.54211711883545"></path>
<path fill="none" stroke="black" stroke-width=".3" stroke-opacity="1.0"  filling="0" d="M11.541463851928711 11.72571849822998 L11.541463851928711 11.72571849822998 C11.543718338012695 11.8159818649292 11.545971870422363 11.906246185302734 11.548226356506348 11.996509552001953 L11.548226356506348 11.996509552001953 C11.493072509765625 11.908637046813965 11.437917709350586 11.82076358795166 11.382763862609863 11.732891082763672 L11.382763862609863 11.732891082763672 C11.435664176940918 11.730500221252441 11.488563537597656 11.728109359741211 11.541463851928711 11.72571849822998 L11.541463851928711 11.72571849822998"></path></svg>