<svg xmlns="http://www.w3.org/2000/svg" viewBox="0.0 0.0 24.0 24.0" height="200px" width="200px"><path fill="none" stroke="black" stroke-width=".3" stroke-opacity="1.0"  filling="0" d="M12.282845497131348 10.396854400634766 L12.282845497131348 10.396854400634766 C12.758881568908691 10.396854400634766 13.234917640686035 10.396854400634766 13.710953712463379 10.396854400634766 L13.710953712463379 10.396854400634766 C13.710953712463379 10.629226684570312 13.710953712463379 10.861599922180176 13.710953712463379 11.093972206115723 L13.710953712463379 11.093972206115723 C13.469744682312012 11.093972206115723 13.228536605834961 11.093972206115723 12.987327575683594 11.093972206115723 L12.987327575683594 11.093972206115723 C12.99886417388916 11.23232650756836 13.01039981842041 11.370680809020996 13.021936416625977 11.509035110473633 L13.021936416625977 11.509035110473633 C13.196572303771973 11.509035110473633 13.371209144592285 11.509035110473633 13.545845031738281 11.509035110473633 L13.545845031738281 11.509035110473633 C13.545845031738281 11.73497200012207 13.545845031738281 11.960907936096191 13.545845031738281 12.186844825744629 L13.545845031738281 12.186844825744629 C13.358162879943848 12.186844825744629 13.17048168182373 12.186844825744629 12.982799530029297 12.186844825744629 L12.982799530029297 12.186844825744629 C12.984889030456543 12.50570011138916 13.403549194335938 12.794341087341309 13.722410202026367 12.793500900268555 L13.722410202026367 12.793500900268555 C13.722410202026367 13.03589153289795 13.722410202026367 13.278282165527344 13.722410202026367 13.520672798156738 L13.722410202026367 13.520672798156738 C13.242555618286133 13.520672798156738 12.762701034545898 13.520672798156738 12.282846450805664 13.520672798156738 L12.282846450805664 13.520672798156738 C12.282845497131348 12.479399681091309 12.282845497131348 11.438127517700195 12.282845497131348 10.396854400634766 L12.282845497131348 10.396854400634766"></path></svg>