<svg xmlns="http://www.w3.org/2000/svg" viewBox="0.0 0.0 24.0 24.0" height="200px" width="200px"><path fill="none" stroke="black" stroke-width=".3" stroke-opacity="1.0"  filling="0" d="M3.3000001907348633 10.445454597473145 L3.3000001907348633 10.445454597473145 C3.7180726528167725 10.445454597473145 4.136145114898682 10.445454597473145 4.55421781539917 10.445454597473145 L4.55421781539917 10.445454597473145 C4.554158687591553 10.719537734985352 4.417803764343262 11.128804206848145 4.1453728675842285 11.158855438232422 L4.1453728675842285 11.158855438232422 C4.1453728675842285 11.9590425491333 4.237606048583984 12.768579483032227 4.120609283447266 13.56114673614502 L4.120609283447266 13.56114673614502 C3.8697385787963867 13.561056137084961 3.663940668106079 13.556275367736816 3.4276084899902344 13.55795669555664 L3.4276084899902344 13.55795669555664 C3.440200090408325 12.758605003356934 3.409090995788574 11.96229362487793 3.409090995788574 11.161499977111816 L3.409090995788574 11.161499977111816 C3.372727394104004 11.159181594848633 3.3363637924194336 11.156864166259766 3.3000001907348633 11.154545783996582 L3.3000001907348633 11.154545783996582 C3.3000001907348633 10.918182373046875 3.3000001907348633 10.681818008422852 3.3000001907348633 10.445454597473145 L3.3000001907348633 10.445454597473145"></path></svg>