<svg xmlns="http://www.w3.org/2000/svg" viewBox="0.0 0.0 24.0 24.0" height="200px" width="200px"><path fill="none" stroke="black" stroke-width=".3" stroke-opacity="1.0"  filling="0" d="M19.121265411376953 10.395955085754395 L19.121265411376953 10.395955085754395 C19.497180938720703 10.50090503692627 19.77178382873535 10.86535930633545 19.972118377685547 11.200310707092285 L19.972118377685547 11.200310707092285 C19.778972625732422 11.247910499572754 19.58582878112793 11.295510292053223 19.392683029174805 11.343110084533691 L19.392683029174805 11.343110084533691 C19.298295974731445 11.22259521484375 19.136838912963867 11.062739372253418 18.993410110473633 11.116228103637695 L18.993410110473633 11.116228103637695 C19.30251121520996 11.760676383972168 19.806859970092773 11.948251724243164 19.990283966064453 12.709664344787598 C20.267786026000977 13.861604690551758 18.66617774963379 13.860556602478027 18.3511905670166 12.851973533630371 L18.3511905670166 12.851973533630371 C18.54949951171875 12.794482231140137 18.74781036376953 12.736991882324219 18.94611930847168 12.679500579833984 L18.94611930847168 12.679500579833984 C19.50594711303711 13.726587295532227 18.34559440612793 11.006611824035645 18.36469268798828 10.971982955932617 C18.517765045166016 10.694427490234375 18.86907386779785 10.587964057922363 19.121265411376953 10.395955085754395 L19.121265411376953 10.395955085754395"></path></svg>