<svg xmlns="http://www.w3.org/2000/svg" viewBox="0.0 0.0 24.0 24.0" height="200px" width="200px"><path fill="none" stroke="black" stroke-width=".3" stroke-opacity="1.0"  filling="0" d="M15.904745101928711 10.39085578918457 L15.904745101928711 10.39085578918457 C16.339717864990234 10.39085578918457 16.774690628051758 10.390750885009766 17.20966339111328 10.390909194946289 L17.20966339111328 10.390909194946289 C17.210002899169922 10.72978687286377 16.794342041015625 11.072237014770508 16.455463409423828 11.072619438171387 L16.455463409423828 11.072619438171387 C16.455463409423828 11.20820140838623 16.455463409423828 11.343782424926758 16.455463409423828 11.479364395141602 L16.455463409423828 11.479364395141602 C16.64977264404297 11.479364395141602 16.84408187866211 11.479364395141602 17.03839111328125 11.479364395141602 L17.03839111328125 11.479364395141602 C17.03839111328125 11.705473899841309 17.03839111328125 11.9315824508667 17.03839111328125 12.157691955566406 L17.03839111328125 12.157691955566406 C16.843599319458008 12.157691955566406 16.6488094329834 12.157691955566406 16.454017639160156 12.157691955566406 L16.454017639160156 12.157691955566406 C16.454017639160156 12.359655380249023 16.454017639160156 12.561619758605957 16.454017639160156 12.763583183288574 L16.454017639160156 12.763583183288574 C17.08023452758789 12.763691902160645 17.416345596313477 12.70192813873291 17.226381301879883 13.490238189697266 L17.226381301879883 13.490238189697266 C16.73912239074707 13.535073280334473 16.222599029541016 13.526456832885742 15.733746528625488 13.527219772338867 L15.733746528625488 13.527219772338867 C15.733156204223633 12.655226707458496 15.332141876220703 10.94558334350586 15.904745101928711 10.39085578918457 L15.904745101928711 10.39085578918457"></path></svg>