<svg xmlns="http://www.w3.org/2000/svg" viewBox="0.0 0.0 24.0 24.0" height="200px" width="200px"><path fill="none" stroke="black" stroke-width=".3" stroke-opacity="1.0"  filling="0" d="M12.01071834564209 12.848727226257324 L12.01071834564209 12.848727226257324 C12.07646369934082 12.86299991607666 12.14220905303955 12.877272605895996 12.207954406738281 12.891545295715332 L12.207954406738281 12.891545295715332 C12.031636238098145 12.914727210998535 11.855318069458008 12.937909126281738 11.678999900817871 12.961091041564941 L11.678999900817871 12.961091041564941 C11.875864028930664 13.146692276000977 12.189470291137695 13.151276588439941 12.45673656463623 13.19337272644043 L12.45673656463623 13.19337272644043 C12.456327438354492 13.203927040100098 12.455917358398438 13.214482307434082 12.4555082321167 13.22503662109375 L12.4555082321167 13.22503662109375 C12.064258575439453 13.27670955657959 11.361634254455566 13.510138511657715 11.002908706665039 13.306581497192383 L11.002908706665039 13.306581497192383 C11.177145004272461 13.279963493347168 11.3513822555542 13.253344535827637 11.525618553161621 13.226726531982422 L11.525618553161621 13.226726531982422 C11.323335647583008 12.904541969299316 11.125000953674316 13.003907203674316 10.72489070892334 13.00540828704834 L10.72489070892334 13.00540828704834 C10.723045349121094 12.99329948425293 10.721199989318848 12.98119068145752 10.719354629516602 12.96908187866211 L10.719354629516602 12.96908187866211 C11.143235206604004 12.886058807373047 11.580606460571289 12.897705078125 12.01071834564209 12.848727226257324 L12.01071834564209 12.848727226257324"></path></svg>