<svg xmlns="http://www.w3.org/2000/svg" viewBox="0.0 0.0 24.0 24.0" height="200px" width="200px"><path fill="none" stroke="black" stroke-width=".3" stroke-opacity="1.0"  filling="0" d="M-0.6537275314331055 10.473026275634766 L-0.6537275314331055 10.473026275634766 C-0.20211824774742126 10.473053932189941 0.24949106574058533 10.4730806350708 0.7011003494262695 10.473108291625977 L0.7011003494262695 10.473108291625977 C0.7011003494262695 10.697880744934082 0.7011003494262695 10.922654151916504 0.7011003494262695 11.14742660522461 L0.7011003494262695 11.14742660522461 C0.4602546691894531 11.147408485412598 0.21940898895263672 11.147390365600586 -0.021436691284179688 11.147372245788574 L-0.021436691284179688 11.147372245788574 C-0.021436691284179688 11.286136627197266 -0.021436691284179688 11.42490005493164 -0.021436691284179688 11.563664436340332 L-0.021436691284179688 11.563664436340332 C0.5386371612548828 11.563700675964355 0.6429527401924133 11.657780647277832 0.5466270446777344 12.241827964782715 L0.5466270446777344 12.241827964782715 C0.35978156328201294 12.241827964782715 0.17293612658977509 12.241827964782715 -0.013909339904785156 12.241827964782715 L-0.013909339904785156 12.241827964782715 C-0.04111888259649277 12.449728012084961 -0.030129767954349518 12.660913467407227 -0.03248119354248047 12.870573043823242 L-0.03248119354248047 12.870573043823242 C0.22338229417800903 12.870573043823242 0.4792458415031433 12.870573043823242 0.7351093292236328 12.870573043823242 L0.7351093292236328 12.870573043823242 C0.727227509021759 13.107609748840332 0.71934574842453 13.344645500183105 0.7114639282226562 13.581682205200195 L0.7114639282226562 13.581682205200195 C0.26910942792892456 13.5819091796875 -0.17467448115348816 13.61789608001709 -0.6155996322631836 13.582364082336426 C-0.7239673137664795 13.573631286621094 -0.8460155725479126 10.701746940612793 -0.6537275314331055 10.473026275634766 L-0.6537275314331055 10.473026275634766"></path></svg>