<svg xmlns="http://www.w3.org/2000/svg" viewBox="0.0 0.0 24.0 24.0" height="200px" width="200px"><path fill="none" stroke="black" stroke-width=".3" stroke-opacity="1.0"  filling="0" d="M16.78022575378418 10.418291091918945 L16.78022575378418 10.418291091918945 C17.25823402404785 10.41833209991455 18.648052215576172 10.08953857421875 18.146671295166016 11.12959098815918 L18.146671295166016 11.12959098815918 C17.891353607177734 11.12959098815918 17.636035919189453 11.12959098815918 17.380718231201172 11.12959098815918 L17.380718231201172 11.12959098815918 C17.380718231201172 11.256109237670898 17.380718231201172 11.3826265335083 17.380718231201172 11.50914478302002 L17.380718231201172 11.50914478302002 C17.81669044494629 11.50914478302002 18.192298889160156 11.609268188476562 17.985107421875 12.185426712036133 L17.985107421875 12.185426712036133 C17.784616470336914 12.185426712036133 17.58412742614746 12.185426712036133 17.383636474609375 12.185426712036133 L17.383636474609375 12.185426712036133 C17.383636474609375 12.433808326721191 17.383636474609375 12.682190895080566 17.383636474609375 12.930572509765625 L17.383636474609375 12.930572509765625 C17.64545440673828 12.930572509765625 17.907272338867188 12.930572509765625 18.169090270996094 12.930572509765625 L18.169090270996094 12.930572509765625 C18.169090270996094 13.162126541137695 18.169090270996094 13.393681526184082 18.169090270996094 13.625235557556152 L18.169090270996094 13.625235557556152 C15.863295555114746 13.841968536376953 16.52946662902832 12.342945098876953 16.669307708740234 10.423909187316895 L16.669307708740234 10.423909187316895 C16.706279754638672 10.422036170959473 16.743253707885742 10.420164108276367 16.78022575378418 10.418291091918945 L16.78022575378418 10.418291091918945"></path></svg>