<svg xmlns="http://www.w3.org/2000/svg" viewBox="0.0 0.0 24.0 24.0" height="200px" width="200px"><path fill="none" stroke="black" stroke-width=".3" stroke-opacity="1.0"  filling="0" d="M11.380335807800293 10.341791152954102 L11.380335807800293 10.341791152954102 C11.815766334533691 10.376901626586914 12.285886764526367 10.416841506958008 12.623400688171387 10.723936080932617 L12.623400688171387 10.723936080932617 C12.10596752166748 10.758625030517578 11.434081077575684 10.891836166381836 10.913481712341309 10.815954208374023 L10.913481712341309 10.815954208374023 C10.912772178649902 10.805290222167969 10.912063598632812 10.79462718963623 10.911354064941406 10.783963203430176 L10.911354064941406 10.783963203430176 C11.20423412322998 10.744826316833496 11.418110847473145 10.679524421691895 11.643026351928711 10.482109069824219 L11.643026351928711 10.482109069824219 C11.552781105041504 10.445754051208496 11.46253490447998 10.40939998626709 11.372289657592773 10.373044967651367 L11.372289657592773 10.373044967651367 C11.374971389770508 10.362627029418945 11.377654075622559 10.352209091186523 11.380335807800293 10.341791152954102 L11.380335807800293 10.341791152954102"></path>
<path fill="none" stroke="black" stroke-width=".3" stroke-opacity="1.0"  filling="0" d="M12.215672492980957 10.65199089050293 L12.215672492980957 10.65199089050293 C12.055618286132812 10.659235954284668 11.895563125610352 10.666481971740723 11.735508918762207 10.673727035522461 L11.735508918762207 10.673727035522461 C11.895563125610352 10.666481971740723 12.055618286132812 10.659235954284668 12.215672492980957 10.65199089050293 L12.215672492980957 10.65199089050293"></path></svg>