<svg xmlns="http://www.w3.org/2000/svg" viewBox="0.0 0.0 24.0 24.0" height="200px" width="200px"><path fill="none" stroke="black" stroke-width=".3" stroke-opacity="1.0"  filling="0" d="M12.46363639831543 10.47278118133545 L12.46363639831543 10.47278118133545 C13.511323928833008 10.47278118133545 14.476689338684082 10.886300086975098 13.743708610534668 12.064445495605469 L13.743708610534668 12.064445495605469 C14.17260456085205 12.617712020874023 14.015176773071289 12.70030403137207 14.017854690551758 13.60270881652832 L14.017854690551758 13.60270881652832 C13.799781799316406 13.60270881652832 13.581709861755371 13.60270881652832 13.36363697052002 13.60270881652832 L13.36363697052002 13.60270881652832 C13.362778663635254 13.163619995117188 13.509037971496582 12.756053924560547 13.121781349182129 12.527262687683105 L13.121781349182129 12.527262687683105 C13.121781349182129 12.8878812789917 13.121781349182129 13.248498916625977 13.121781349182129 13.60911750793457 L13.121781349182129 13.60911750793457 C11.835113525390625 13.608689308166504 12.46363639831543 11.323219299316406 12.46363639831543 10.47278118133545 L12.46363639831543 10.47278118133545"></path>
<path fill="none" stroke="black" stroke-width=".3" stroke-opacity="1.0"  filling="0" d="M13.123827934265137 11.169081687927246 L13.123827934265137 11.169081687927246 C13.261874198913574 11.276089668273926 13.255403518676758 11.578202247619629 13.123827934265137 11.693073272705078 L13.123827934265137 11.693073272705078 C13.123827934265137 11.518409729003906 13.123827934265137 11.343745231628418 13.123827934265137 11.169081687927246 L13.123827934265137 11.169081687927246"></path></svg>