<svg xmlns="http://www.w3.org/2000/svg" viewBox="0.0 0.0 24.0 24.0" height="200px" width="200px"><path fill="none" stroke="black" stroke-width=".3" stroke-opacity="1.0"  filling="0" d="M1.7278642654418945 10.454318046569824 L1.7278642654418945 10.454318046569824 C2.227964162826538 10.454318046569824 2.7280638217926025 10.454318046569824 3.228163719177246 10.454318046569824 L3.228163719177246 10.454318046569824 C3.228154420852661 10.70548152923584 3.2281453609466553 10.956645965576172 3.2281360626220703 11.207809448242188 L3.2281360626220703 11.207809448242188 C2.986654281616211 11.207809448242188 2.7451725006103516 11.207809448242188 2.503690719604492 11.207809448242188 L2.503690719604492 11.207809448242188 C2.4945638179779053 11.338455200195312 2.4854366779327393 11.469099998474121 2.4763097763061523 11.599745750427246 L2.4763097763061523 11.599745750427246 C2.679655075073242 11.608454704284668 2.883000373840332 11.617164611816406 3.086345672607422 11.625873565673828 L3.086345672607422 11.625873565673828 C3.086345672607422 11.858409881591797 3.086345672607422 12.090946197509766 3.086345672607422 12.323482513427734 L3.086345672607422 12.323482513427734 C2.8803911209106445 12.323482513427734 2.674436569213867 12.323482513427734 2.46848201751709 12.323482513427734 L2.46848201751709 12.323482513427734 C2.46848201751709 12.519219398498535 2.46848201751709 12.71495532989502 2.46848201751709 12.91069221496582 L2.46848201751709 12.91069221496582 C2.7210276126861572 12.91069221496582 2.9735734462738037 12.91069221496582 3.226119041442871 12.91069221496582 L3.226119041442871 12.91069221496582 C3.226119041442871 13.16032886505127 3.226119041442871 13.409964561462402 3.226119041442871 13.659601211547852 L3.226119041442871 13.659601211547852 C2.726700782775879 13.659601211547852 2.2272825241088867 13.659601211547852 1.7278642654418945 13.659601211547852 L1.7278642654418945 13.659601211547852 C1.7278642654418945 12.59117317199707 1.7278642654418945 11.522746086120605 1.7278642654418945 10.454318046569824 L1.7278642654418945 10.454318046569824"></path></svg>