<svg xmlns="http://www.w3.org/2000/svg" viewBox="0.0 0.0 24.0 24.0" height="200px" width="200px"><path fill="none" stroke="black" stroke-width=".3" stroke-opacity="1.0"  filling="0" d="M4.66328239440918 10.417989730834961 L4.66328239440918 10.417989730834961 C5.012746810913086 10.670084953308105 5.072036266326904 11.318076133728027 5.2332000732421875 11.728198051452637 L5.2332000732421875 11.728198051452637 C5.392436504364014 11.293298721313477 5.551672458648682 10.8583984375 5.710908889770508 10.42349910736084 L5.710908889770508 10.42349910736084 C5.930690765380859 10.42349910736084 6.150472640991211 10.42349910736084 6.3702545166015625 10.42349910736084 L6.3702545166015625 10.42349910736084 C6.461371898651123 11.389816284179688 6.543993949890137 12.543940544128418 6.409554481506348 13.499397277832031 C6.373974800109863 13.752260208129883 5.712652206420898 13.812445640563965 5.672781944274902 13.575570106506348 C5.616983413696289 13.244063377380371 5.661892414093018 12.744160652160645 5.682272911071777 12.399434089660645 L5.682272911071777 12.399434089660645 C5.6699090003967285 12.397980690002441 5.65754508972168 12.396526336669922 5.645181179046631 12.395072937011719 L5.645181179046631 12.395072937011719 C5.4966630935668945 12.808863639831543 5.348145484924316 13.222654342651367 5.19962739944458 13.636445045471191 L5.19962739944458 13.636445045471191 C5.18965482711792 13.636990547180176 5.179681777954102 13.63753604888916 5.169709205627441 13.638081550598145 L5.169709205627441 13.638081550598145 C5.031599998474121 13.24141788482666 4.893491268157959 12.844755172729492 4.755382061004639 12.448091506958008 L4.755382061004639 12.448091506958008 C4.744809150695801 12.449318885803223 4.734236240386963 12.450546264648438 4.723663330078125 12.451773643493652 L4.723663330078125 12.451773643493652 C4.553531646728516 15.51529312133789 3.5813376903533936 11.82107925415039 3.994363784790039 10.418234825134277 L3.994363784790039 10.418234825134277 C4.217336654663086 10.418234825134277 4.440309524536133 10.41813850402832 4.66328239440918 10.417989730834961 L4.66328239440918 10.417989730834961"></path></svg>