<svg xmlns="http://www.w3.org/2000/svg" viewBox="0.0 0.0 24.0 24.0" height="200px" width="200px"><path fill="none" stroke="black" stroke-width=".3" stroke-opacity="1.0"  filling="0" d="M10.945035934448242 10.42069149017334 L10.945035934448242 10.42069149017334 C11.187600135803223 10.42069149017334 11.430163383483887 10.42069149017334 11.672727584838867 10.42069149017334 L11.672727584838867 10.42069149017334 C11.672727584838867 10.940591812133789 11.437141418457031 11.453837394714355 12.081954956054688 11.454681396484375 L12.081954956054688 11.454681396484375 C12.081954956054688 11.11193561553955 12.081954956054688 10.769190788269043 12.081954956054688 10.426445007324219 L12.081954956054688 10.426445007324219 C12.316109657287598 10.426445007324219 12.550263404846191 10.426445007324219 12.784418106079102 10.426445007324219 L12.784418106079102 10.426445007324219 C12.784418106079102 10.439391136169434 12.784418106079102 13.629124641418457 12.784418106079102 13.635382652282715 L12.784418106079102 13.635382652282715 C12.544513702392578 13.657623291015625 12.323155403137207 13.655728340148926 12.083536148071289 13.634045600891113 L12.083536148071289 13.634045600891113 C12.083536148071289 13.16503620147705 12.083536148071289 12.696027755737305 12.083536148071289 12.227018356323242 L12.083536148071289 12.227018356323242 C11.953808784484863 12.219500541687012 11.824081420898438 12.211981773376465 11.694354057312012 12.204463958740234 L11.694354057312012 12.204463958740234 C11.620028495788574 12.683500289916992 11.672454833984375 13.170884132385254 11.672454833984375 13.65452766418457 L11.672454833984375 13.65452766418457 C10.290306091308594 13.58178424835205 10.896517753601074 11.451778411865234 10.945035934448242 10.42069149017334 L10.945035934448242 10.42069149017334"></path></svg>