<svg xmlns="http://www.w3.org/2000/svg" viewBox="0.0 0.0 24.0 24.0" height="200px" width="200px"><path fill="none" stroke="black" stroke-width=".3" stroke-opacity="1.0"  filling="0" d="M14.436736106872559 10.42666244506836 L14.436736106872559 10.42666244506836 C14.668163299560547 10.42666244506836 14.899590492248535 10.42666244506836 15.131017684936523 10.42666244506836 L15.131017684936523 10.42666244506836 C15.27510929107666 10.82335376739502 15.41919994354248 11.220044136047363 15.563291549682617 11.616735458374023 L15.563291549682617 11.616735458374023 C15.57236385345459 11.615307807922363 15.581436157226562 11.61388111114502 15.590508460998535 11.61245346069336 L15.590508460998535 11.61245346069336 C15.590508460998535 11.217971801757812 15.590508460998535 10.82348918914795 15.590508460998535 10.429007530212402 L15.590508460998535 10.429007530212402 C15.817999839782715 10.429007530212402 16.045490264892578 10.429007530212402 16.272981643676758 10.429007530212402 L16.272981643676758 10.429007530212402 C16.272981643676758 10.437727928161621 16.272981643676758 13.62517261505127 16.272981643676758 13.629270553588867 L16.272981643676758 13.629270553588867 C16.0474910736084 13.629270553588867 15.821999549865723 13.629270553588867 15.596508026123047 13.629270553588867 L15.596508026123047 13.629270553588867 C15.452034950256348 13.251688957214355 15.307561874389648 12.874107360839844 15.16308879852295 12.496525764465332 L15.16308879852295 12.496525764465332 C15.16991901397705 12.873024940490723 15.138477325439453 13.248970031738281 15.136717796325684 13.62673568725586 L15.136717796325684 13.62673568725586 C14.90021800994873 13.626727104187012 14.663717269897461 13.626717567443848 14.427217483520508 13.626708984375 L14.427217483520508 13.626708984375 C14.427217483520508 12.58523178100586 14.314668655395508 11.465901374816895 14.436736106872559 10.42666244506836 L14.436736106872559 10.42666244506836"></path></svg>