<svg xmlns="http://www.w3.org/2000/svg" viewBox="0.0 0.0 24.0 24.0" height="200px" width="200px"><path fill="none" stroke="black" stroke-width=".3" stroke-opacity="1.0"  filling="0" d="M9.73835563659668 11.20123291015625 L9.73835563659668 11.20123291015625 C9.9746675491333 11.797012329101562 9.074051856994629 12.567439079284668 8.999237060546875 13.169645309448242 L8.999237060546875 13.169645309448242 C9.748269081115723 12.68644905090332 9.971046447753906 12.073079109191895 10.344436645507812 11.271053314208984 L10.344436645507812 11.271053314208984 C10.498700141906738 11.271053314208984 10.65296459197998 11.271053314208984 10.807228088378906 11.271053314208984 L10.807228088378906 11.271053314208984 C10.696102142333984 11.531546592712402 9.451373100280762 13.386259078979492 10.336337089538574 12.919388771057129 L10.336337089538574 12.919388771057129 C9.947835922241211 13.477554321289062 9.251355171203613 13.692370414733887 9.615900993347168 12.789079666137695 L9.615900993347168 12.789079666137695 C7.907540321350098 13.862283706665039 8.911347389221191 12.688522338867188 9.2811279296875 11.521578788757324 L9.2811279296875 11.521578788757324 C9.27098274230957 11.515860557556152 9.26083755493164 11.51014232635498 9.250692367553711 11.504424095153809 L9.250692367553711 11.504424095153809 C9.155856132507324 11.572297096252441 9.061018943786621 11.640169143676758 8.966182708740234 11.70804214477539 L8.966182708740234 11.70804214477539 C8.95720100402832 11.696160316467285 8.94821834564209 11.684279441833496 8.939236640930176 11.67239761352539 L8.939236640930176 11.67239761352539 C9.180639266967773 11.463730812072754 9.407492637634277 11.222007751464844 9.73835563659668 11.20123291015625 L9.73835563659668 11.20123291015625"></path></svg>