<svg xmlns="http://www.w3.org/2000/svg" viewBox="0.0 0.0 24.0 24.0" height="200px" width="200px"><path fill="none" stroke="black" stroke-width=".3" stroke-opacity="1.0"  filling="0" d="M13.837773323059082 9.727363586425781 L13.837773323059082 9.727363586425781 C14.325260162353516 11.465497970581055 14.808830261230469 13.204450607299805 15.285981178283691 14.945455551147461 L15.285981178283691 14.945455551147461 C14.519753456115723 14.945899963378906 15.091047286987305 14.301491737365723 14.489591598510742 14.108317375183105 C14.081215858459473 13.977155685424805 14.315215110778809 14.878350257873535 14.312700271606445 14.903863906860352 L14.312700271606445 14.903863906860352 C13.706281661987305 14.895390510559082 13.947808265686035 14.752689361572266 13.853019714355469 13.992818832397461 C13.737135887145996 13.06383991241455 12.815154075622559 9.784981727600098 13.837773323059082 9.727363586425781 L13.837773323059082 9.727363586425781"></path>
<path fill="none" stroke="black" stroke-width=".3" stroke-opacity="1.0"  filling="0" d="M13.903446197509766 11.33596420288086 L13.903446197509766 11.33596420288086 C13.919004440307617 11.396468162536621 14.3926362991333 13.238225936889648 14.407445907592773 13.295808792114258 L14.407445907592773 13.295808792114258 C14.316936492919922 13.29580020904541 14.226428031921387 13.295790672302246 14.135918617248535 13.295782089233398 L14.135918617248535 13.295782089233398 C14.054009437561035 12.643646240234375 13.972100257873535 11.991509437561035 13.890191078186035 11.339373588562012 L13.890191078186035 11.339373588562012 C13.894609451293945 11.338236808776855 13.899027824401855 11.337100982666016 13.903446197509766 11.33596420288086 L13.903446197509766 11.33596420288086"></path></svg>