<svg xmlns="http://www.w3.org/2000/svg" viewBox="0.0 0.0 24.0 24.0" height="200px" width="200px"><path fill="none" stroke="black" stroke-width=".3" stroke-opacity="1.0"  filling="0" d="M18.4175968170166 11.211190223693848 L18.4175968170166 11.211190223693848 C18.84295082092285 11.353960037231445 18.101734161376953 11.942258834838867 18.208961486816406 12.139498710632324 L18.208961486816406 12.139498710632324 C19.667383193969727 10.338619232177734 19.206342697143555 11.909244537353516 18.678897857666016 13.06396198272705 L18.678897857666016 13.06396198272705 C18.892114639282227 13.104287147521973 18.918195724487305 12.981204986572266 19.104053497314453 12.893289566040039 L19.104053497314453 12.893289566040039 C19.111371994018555 12.905107498168945 19.118688583374023 12.916926383972168 19.126007080078125 12.928744316101074 L19.126007080078125 12.928744316101074 C17.531265258789062 14.252476692199707 18.627159118652344 12.330530166625977 18.934608459472656 11.530770301818848 L18.934608459472656 11.530770301818848 C18.925636291503906 11.521462440490723 18.916664123535156 11.512153625488281 18.907691955566406 11.502845764160156 L18.907691955566406 11.502845764160156 C18.304332733154297 11.75942325592041 17.80647087097168 12.908407211303711 17.5380802154541 13.417253494262695 L17.5380802154541 13.417253494262695 C17.41013526916504 13.408580780029297 17.282188415527344 13.399908065795898 17.15424346923828 13.3912353515625 L17.15424346923828 13.3912353515625 C17.454833984375 12.760411262512207 17.749309539794922 12.128584861755371 18.031469345092773 11.489289283752441 L18.031469345092773 11.489289283752441 C17.92223358154297 11.527816772460938 17.81299591064453 11.566344261169434 17.703760147094727 11.60487174987793 L17.703760147094727 11.60487174987793 C17.925418853759766 11.448258399963379 18.1456298828125 11.267940521240234 18.4175968170166 11.211190223693848 L18.4175968170166 11.211190223693848"></path></svg>