<svg xmlns="http://www.w3.org/2000/svg" viewBox="0.0 0.0 24.0 24.0" height="200px" width="200px"><path fill="none" stroke="black" stroke-width=".3" stroke-opacity="1.0"  filling="0" d="M11.93500804901123 10.436073303222656 L11.93500804901123 10.436073303222656 C12.094898223876953 10.486783981323242 12.277276992797852 10.504050254821777 12.407127380371094 10.610236167907715 L12.407127380371094 10.610236167907715 C12.438581466674805 10.556045532226562 12.470036506652832 10.501853942871094 12.501490592956543 10.447663307189941 L12.501490592956543 10.447663307189941 C12.664053916931152 10.447663307189941 12.826618194580078 10.447663307189941 12.989181518554688 10.447663307189941 L12.989181518554688 10.447663307189941 C12.667900085449219 11.080245018005371 12.34661865234375 11.7128267288208 12.025336265563965 12.34540843963623 L12.025336265563965 12.34540843963623 C12.178423881530762 12.27328109741211 12.305612564086914 12.10870361328125 12.46317195892334 12.144627571105957 L12.46317195892334 12.144627571105957 C12.241415977478027 12.322543144226074 11.311415672302246 13.04607105255127 11.601326942443848 12.168818473815918 L11.601326942443848 12.168818473815918 C10.281164169311523 13.465856552124023 11.065632820129395 11.025520324707031 11.93500804901123 10.436073303222656 L11.93500804901123 10.436073303222656"></path>
<path fill="none" stroke="black" stroke-width=".3" stroke-opacity="1.0"  filling="0" d="M12.045763969421387 10.543827056884766 L12.045763969421387 10.543827056884766 C12.918517112731934 10.752618789672852 11.216160774230957 12.684354782104492 11.052900314331055 12.311809539794922 L11.052900314331055 12.311809539794922 C11.287073135375977 11.694694519042969 11.544307708740234 10.990300178527832 12.045763969421387 10.543827056884766 L12.045763969421387 10.543827056884766"></path></svg>