<svg xmlns="http://www.w3.org/2000/svg" viewBox="0.0 0.0 24.0 24.0" height="200px" width="200px"><path fill="none" stroke="black" stroke-width=".3" stroke-opacity="1.0"  filling="0" d="M13.062572479248047 9.750709533691406 L13.062572479248047 9.750709533691406 C13.131936073303223 10.051773071289062 13.201300621032715 10.352837562561035 13.27066421508789 10.653901100158691 L13.27066421508789 10.653901100158691 C13.133399963378906 10.653901100158691 12.996136665344238 10.653901100158691 12.858872413635254 10.653901100158691 L12.858872413635254 10.653901100158691 C12.82345199584961 11.182981491088867 14.199481964111328 15.011265754699707 13.369036674499512 14.875856399536133 L13.369036674499512 14.875856399536133 C13.039308547973633 13.471342086791992 12.790413856506348 12.042815208435059 12.399408340454102 10.6538724899292 L12.399408340454102 10.6538724899292 C12.3068265914917 10.673027038574219 12.214244842529297 10.692181587219238 12.121663093566895 10.711336135864258 L12.121663093566895 10.711336135864258 C12.003612518310547 10.392501831054688 11.946698188781738 10.114036560058594 11.919790267944336 9.77528190612793 L11.919790267944336 9.77528190612793 C12.3007173538208 9.767090797424316 12.681645393371582 9.75890064239502 13.062572479248047 9.750709533691406 L13.062572479248047 9.750709533691406"></path></svg>