<svg xmlns="http://www.w3.org/2000/svg" viewBox="0.0 0.0 24.0 24.0" height="200px" width="200px"><path fill="none" stroke="black" stroke-width=".3" stroke-opacity="1.0"  filling="0" d="M2.4272727966308594 10.363636016845703 L2.4272727966308594 10.363636016845703 C2.91552734375 10.363636016845703 3.4037818908691406 10.363636016845703 3.8920364379882812 10.363636016845703 L3.8920364379882812 10.363636016845703 C3.888481855392456 10.600172996520996 3.8849270343780518 10.836709022521973 3.8813724517822266 11.073246002197266 L3.8813724517822266 11.073246002197266 C3.6268723011016846 11.073246002197266 3.3723723888397217 11.073246002197266 3.1178722381591797 11.073246002197266 L3.1178722381591797 11.073246002197266 C3.1178722381591797 11.197036743164062 3.1178722381591797 11.320828437805176 3.1178722381591797 11.444619178771973 L3.1178722381591797 11.444619178771973 C3.3240177631378174 11.458418846130371 3.530163526535034 11.47221851348877 3.736309051513672 11.486018180847168 L3.736309051513672 11.486018180847168 C3.736802577972412 11.785353660583496 3.4162814617156982 12.1362943649292 3.116945266723633 12.136255264282227 L3.116945266723633 12.136255264282227 C3.116945266723633 12.381755828857422 3.116945266723633 12.6272554397583 3.116945266723633 12.872756004333496 L3.116945266723633 12.872756004333496 C3.4690730571746826 12.872756004333496 3.901071786880493 13.229692459106445 3.90000057220459 13.581818580627441 L3.90000057220459 13.581818580627441 C3.4090912342071533 13.581818580627441 2.918182134628296 13.581818580627441 2.4272727966308594 13.581818580627441 L2.4272727966308594 13.581818580627441 C2.4272727966308594 12.5090913772583 2.4272727966308594 11.436363220214844 2.4272727966308594 10.363636016845703 L2.4272727966308594 10.363636016845703"></path></svg>