<svg xmlns="http://www.w3.org/2000/svg" viewBox="0.0 0.0 24.0 24.0" height="200px" width="200px"><path fill="none" stroke="black" stroke-width=".3" stroke-opacity="1.0"  filling="0" d="M9.97791862487793 10.169918060302734 L9.97791862487793 10.169918060302734 C10.306924819946289 10.174430847167969 10.635997772216797 10.17518424987793 10.96502685546875 10.172781944274902 L10.96502685546875 10.172781944274902 C11.026163101196289 10.366473197937012 11.087299346923828 10.560163497924805 11.148435592651367 10.753854751586914 L11.148435592651367 10.753854751586914 C11.026329040527344 10.736017227172852 10.902042388916016 10.727706909179688 10.778780937194824 10.733617782592773 L10.778780937194824 10.733617782592773 C10.758942604064941 11.435433387756348 12.28283977508545 13.8124361038208 11.423480987548828 13.82749080657959 L11.423480987548828 13.82749080657959 C11.064948081970215 12.803417205810547 10.71104907989502 11.777708053588867 10.361917495727539 10.750391006469727 L10.361917495727539 10.750391006469727 C10.254708290100098 10.742300033569336 10.147500038146973 10.734209060668945 10.040290832519531 10.726118087768555 L10.040290832519531 10.726118087768555 C9.979280471801758 10.549814224243164 9.836060523986816 10.291086196899414 9.97791862487793 10.169918060302734 L9.97791862487793 10.169918060302734"></path></svg>