<svg xmlns="http://www.w3.org/2000/svg" viewBox="0.0 0.0 24.0 24.0" height="200px" width="200px"><path fill="none" stroke="black" stroke-width=".3" stroke-opacity="1.0"  filling="0" d="M11.701854705810547 9.776264190673828 L11.701854705810547 9.776264190673828 C12.12531566619873 11.395652770996094 12.746664047241211 13.244584083557129 12.846381187438965 14.902527809143066 L12.846381187438965 14.902527809143066 C11.637575149536133 14.902527809143066 11.831401824951172 12.133865356445312 11.229790687561035 11.36749267578125 L11.229790687561035 11.36749267578125 C11.467482566833496 12.523031234741211 11.926308631896973 13.70415210723877 12.002617835998535 14.8825101852417 L12.002617835998535 14.8825101852417 C11.887690544128418 14.872800827026367 11.7727632522583 14.863092422485352 11.657835960388184 14.85338306427002 L11.657835960388184 14.85338306427002 C11.308319091796875 13.242185592651367 10.719712257385254 11.572864532470703 10.546961784362793 9.93840217590332 C10.523802757263184 9.719282150268555 11.030793190002441 9.72872257232666 11.106599807739258 9.865337371826172 C11.299710273742676 10.21335220336914 11.340913772583008 10.626081466674805 11.460762977600098 11.005610466003418 C11.600520133972168 11.4481840133667 11.738077163696289 11.891460418701172 11.873071670532227 12.335509300231934 L11.873071670532227 12.335509300231934 C11.881699562072754 12.33154582977295 11.890327453613281 12.327581405639648 11.898955345153809 12.323617935180664 L11.898955345153809 12.323617935180664 C11.76357364654541 11.712876319885254 10.871845245361328 9.78572940826416 11.701854705810547 9.776264190673828 L11.701854705810547 9.776264190673828"></path></svg>