<svg xmlns="http://www.w3.org/2000/svg" viewBox="0.0 0.0 24.0 24.0" height="200px" width="200px"><path fill="none" stroke="black" stroke-width=".3" stroke-opacity="1.0"  filling="0" d="M12.329426765441895 10.185898780822754 L12.329426765441895 10.185898780822754 C13.060781478881836 10.20195198059082 13.209038734436035 10.43767261505127 13.310945510864258 11.216780662536621 L13.310945510864258 11.216780662536621 C13.023336410522461 11.2252836227417 12.889102935791016 10.819334983825684 12.643609046936035 10.669254302978516 L12.643609046936035 10.669254302978516 C12.766542434692383 11.452803611755371 13.041156768798828 12.518421173095703 13.40135383605957 13.248326301574707 L13.40135383605957 13.248326301574707 C13.44640827178955 13.248326301574707 13.491463661193848 13.248326301574707 13.536518096923828 13.248326301574707 L13.536518096923828 13.248326301574707 C13.479365348815918 12.8328218460083 13.441261291503906 12.406420707702637 13.108636856079102 12.120926856994629 L13.108636856079102 12.120926856994629 C13.059927940368652 11.957172393798828 13.011218070983887 11.793417930603027 12.962509155273438 11.629663467407227 L12.962509155273438 11.629663467407227 C13.117027282714844 11.627772331237793 13.27154541015625 11.62588119506836 13.426063537597656 11.623990058898926 L13.426063537597656 11.623990058898926 C13.633415222167969 12.314510345458984 14.096631050109863 13.2027587890625 13.847182273864746 13.908899307250977 L13.847182273864746 13.908899307250977 C12.82476806640625 13.90494441986084 12.13672924041748 11.031445503234863 12.329426765441895 10.185898780822754 L12.329426765441895 10.185898780822754"></path></svg>