<svg xmlns="http://www.w3.org/2000/svg" viewBox="0.0 0.0 24.0 24.0" height="200px" width="200px"><path fill="none" stroke="black" stroke-width=".3" stroke-opacity="1.0"  filling="0" d="M13.91530990600586 11.374991416931152 L13.91530990600586 11.374991416931152 C13.980419158935547 11.388999938964844 14.045527458190918 11.403009414672852 14.110636711120605 11.417017936706543 L14.110636711120605 11.417017936706543 C13.961835861206055 12.064461708068848 13.465405464172363 12.595942497253418 13.348527908325195 13.253783226013184 L13.348527908325195 13.253783226013184 C13.488819122314453 13.147910118103027 13.629109382629395 13.042037963867188 13.769400596618652 12.936164855957031 L13.769400596618652 12.936164855957031 C13.781436920166016 12.948537826538086 13.793474197387695 12.960909843444824 13.805510520935059 12.973282814025879 L13.805510520935059 12.973282814025879 C13.761763572692871 13.054072380065918 12.916315078735352 13.890364646911621 12.846872329711914 13.386792182922363 C12.775976181030273 12.8726806640625 13.415140151977539 12.18905258178711 13.53305435180664 11.690835952758789 L13.53305435180664 11.690835952758789 C12.879693984985352 12.147851943969727 12.677495956420898 13.569262504577637 11.858345985412598 13.51884651184082 L11.858345985412598 13.51884651184082 C12.128746032714844 12.923491477966309 12.39914608001709 12.328137397766113 12.669546127319336 11.732782363891602 L12.669546127319336 11.732782363891602 C12.538873672485352 11.790454864501953 12.408201217651367 11.848128318786621 12.277528762817383 11.905800819396973 L12.277528762817383 11.905800819396973 C12.645389556884766 11.601223945617676 12.75837516784668 11.431057929992676 13.215790748596191 11.427218437194824 L13.215790748596191 11.427218437194824 C13.169954299926758 11.590200424194336 13.12411880493164 11.753182411193848 13.078282356262207 11.91616439819336 L13.078282356262207 11.91616439819336 C13.30390739440918 11.67227840423584 13.615246772766113 11.517642974853516 13.91530990600586 11.374991416931152 L13.91530990600586 11.374991416931152"></path></svg>