<svg xmlns="http://www.w3.org/2000/svg" viewBox="0.0 0.0 24.0 24.0" height="200px" width="200px"><path fill="none" stroke="black" stroke-width=".3" stroke-opacity="1.0"  filling="0" d="M11.080118179321289 9.70974349975586 L11.080118179321289 9.70974349975586 C10.966599464416504 9.945853233337402 10.853081703186035 10.181962013244629 10.73956298828125 10.418071746826172 L10.73956298828125 10.418071746826172 C10.82677173614502 10.429389953613281 10.913981437683105 10.44070816040039 11.001190185546875 10.4520263671875 L11.001190185546875 10.4520263671875 C10.596882820129395 10.911893844604492 9.984115600585938 11.462132453918457 9.884836196899414 12.26132583618164 L9.884836196899414 12.26132583618164 C9.901272773742676 12.269462585449219 9.917708396911621 12.277599334716797 9.934144973754883 12.285736083984375 L9.934144973754883 12.285736083984375 C10.027108192443848 12.204236030578613 10.120072364807129 12.122736930847168 10.213035583496094 12.041236877441406 L10.213035583496094 12.041236877441406 C10.12972640991211 12.229291915893555 9.52298641204834 12.926857948303223 9.358091354370117 12.469989776611328 C9.186585426330566 11.994807243347168 10.02439022064209 11.120423316955566 10.18183708190918 10.595373153686523 L10.18183708190918 10.595373153686523 C10.103009223937988 10.600381851196289 10.024182319641113 10.605391502380371 9.945354461669922 10.610400199890137 L9.945354461669922 10.610400199890137 C9.960681915283203 10.564299583435059 9.976008415222168 10.518199920654297 9.99133586883545 10.472099304199219 L9.99133586883545 10.472099304199219 C10.078672409057617 10.472099304199219 10.166008949279785 10.472099304199219 10.253345489501953 10.472099304199219 L10.253345489501953 10.472099304199219 C10.423517227172852 10.138081550598145 10.743645668029785 9.87501049041748 11.080118179321289 9.70974349975586 L11.080118179321289 9.70974349975586"></path></svg>