<svg xmlns="http://www.w3.org/2000/svg" viewBox="0.0 0.0 24.0 24.0" height="200px" width="200px"><path fill="none" stroke="black" stroke-width=".3" stroke-opacity="1.0"  filling="0" d="M16.797080993652344 10.393064498901367 L16.797080993652344 10.393064498901367 C17.535505294799805 11.24311351776123 16.34966278076172 11.633707046508789 15.545808792114258 11.820845603942871 L15.545808792114258 11.820845603942871 C15.476136207580566 12.05958080291748 15.458637237548828 12.32291316986084 15.510682106018066 12.566100120544434 L15.510682106018066 12.566100120544434 C15.949607849121094 12.379642486572266 16.046672821044922 12.185532569885254 16.404653549194336 12.022936820983887 L16.404653549194336 12.022936820983887 C16.40907096862793 12.034173011779785 16.413490295410156 12.045409202575684 16.41790771484375 12.056645393371582 L16.41790771484375 12.056645393371582 C14.671799659729004 13.766877174377441 14.875040054321289 10.827934265136719 16.797080993652344 10.393064498901367 L16.797080993652344 10.393064498901367"></path>
<path fill="none" stroke="black" stroke-width=".3" stroke-opacity="1.0"  filling="0" d="M16.674219131469727 10.476654052734375 L16.674219131469727 10.476654052734375 C16.912734985351562 10.996642112731934 16.13417625427246 11.581681251525879 15.669763565063477 11.699836730957031 L15.669763565063477 11.699836730957031 C15.659018516540527 11.689545631408691 15.648273468017578 11.679255485534668 15.637528419494629 11.668964385986328 L15.637528419494629 11.668964385986328 C15.882589340209961 11.278230667114258 16.160188674926758 10.60943603515625 16.674219131469727 10.476654052734375 L16.674219131469727 10.476654052734375"></path></svg>