<svg xmlns="http://www.w3.org/2000/svg" viewBox="0.0 0.0 24.0 24.0" height="200px" width="200px"><path fill="none" stroke="black" stroke-width=".3" stroke-opacity="1.0"  filling="0" d="M2.07076358795166 10.4451265335083 L2.07076358795166 10.4451265335083 C2.385673999786377 10.861709594726562 1.559469223022461 11.88101863861084 1.432663917541504 12.325363159179688 L1.432663917541504 12.325363159179688 C1.5881456136703491 12.220190048217773 1.7436271905899048 12.115017890930176 1.89910888671875 12.009844779968262 L1.89910888671875 12.009844779968262 C1.8940438032150269 12.30705451965332 1.2377538681030273 12.850412368774414 0.9842996597290039 12.546680450439453 C0.6364313960075378 12.129804611206055 1.5256142616271973 11.299973487854004 1.6406993865966797 10.769835472106934 L1.6406993865966797 10.769835472106934 C1.0067107677459717 11.116244316101074 0.6613935828208923 11.948325157165527 0.4187450408935547 12.593454360961914 L0.4187450408935547 12.593454360961914 C0.2660360336303711 12.593454360961914 0.1133270263671875 12.593454360961914 -0.039381980895996094 12.593454360961914 L-0.039381980895996094 12.593454360961914 C0.23299089074134827 11.996672630310059 0.5053638219833374 11.399889945983887 0.7777366638183594 10.803108215332031 L0.7777366638183594 10.803108215332031 C0.6591183543205261 10.865545272827148 0.5404999852180481 10.92798137664795 0.42188167572021484 10.990418434143066 L0.42188167572021484 10.990418434143066 C0.4134178161621094 10.978991508483887 0.4049539566040039 10.96756362915039 0.39649009704589844 10.956136703491211 L0.39649009704589844 10.956136703491211 C0.794603705406189 10.608866691589355 1.4546451568603516 10.037420272827148 1.200709342956543 10.965462684631348 L1.200709342956543 10.965462684631348 C1.4336457252502441 10.720647811889648 1.7582379579544067 10.573662757873535 2.07076358795166 10.4451265335083 L2.07076358795166 10.4451265335083"></path></svg>