<svg xmlns="http://www.w3.org/2000/svg" viewBox="0.0 0.0 24.0 24.0" height="200px" width="200px"><path fill="none" stroke="black" stroke-width=".3" stroke-opacity="1.0"  filling="0" d="M5.274627208709717 10.391045570373535 L5.274627208709717 10.391045570373535 C6.15022611618042 10.447705268859863 5.654137134552002 10.803714752197266 5.896909236907959 11.487955093383789 L5.896909236907959 11.487955093383789 C6.706430912017822 11.047550201416016 7.329489707946777 10.2784423828125 8.322709083557129 10.621800422668457 L8.322709083557129 10.621800422668457 C7.876866817474365 11.582053184509277 7.336004734039307 13.166013717651367 6.068482398986816 12.801765441894531 L6.068482398986816 12.801765441894531 C6.208763122558594 12.425601959228516 6.489951133728027 12.110925674438477 6.6895365715026855 11.760709762573242 L6.6895365715026855 11.760709762573242 C6.232447624206543 12.039140701293945 5.845292568206787 12.466561317443848 5.331982135772705 12.618109703063965 C4.9665727615356445 12.725992202758789 5.109554290771484 11.71550178527832 5.0869364738464355 11.521500587463379 L5.0869364738464355 11.521500587463379 C5.0771002769470215 11.518363952636719 5.067263603210449 11.515227317810059 5.057427406311035 11.512090682983398 L5.057427406311035 11.512090682983398 C4.387897491455078 12.303563117980957 4.447803497314453 12.738702774047852 3.444326400756836 12.674427032470703 L3.444326400756836 12.674427032470703 C3.7373688220977783 11.940503120422363 4.56162166595459 10.748666763305664 5.274627208709717 10.391045570373535 L5.274627208709717 10.391045570373535"></path></svg>