<svg xmlns="http://www.w3.org/2000/svg" viewBox="0.0 0.0 24.0 24.0" height="200px" width="200px"><path fill="none" stroke="black" stroke-width=".3" stroke-opacity="1.0"  filling="0" d="M11.76171875 11.95330810546875 L11.76171875 11.95330810546875 C11.820582389831543 11.95330810546875 11.87944507598877 11.95330810546875 11.938308715820312 11.95330810546875 L11.938308715820312 11.95330810546875 C11.938308715820312 11.976062774658203 11.938308715820312 11.998817443847656 11.938308715820312 12.02157211303711 L11.938308715820312 12.02157211303711 C11.900899887084961 12.014498710632324 11.86349105834961 12.007426261901855 11.826082229614258 12.00035285949707 L11.826082229614258 12.00035285949707 C11.823346138000488 12.005634307861328 11.820609092712402 12.010916709899902 11.817873001098633 12.01619815826416 L11.817873001098633 12.01619815826416 C11.870055198669434 12.04946231842041 11.922236442565918 12.08272647857666 11.974418640136719 12.11599063873291 L11.974418640136719 12.11599063873291 C11.918124198913574 12.164788246154785 11.82619571685791 12.202856063842773 11.758172988891602 12.17247200012207 L11.758172988891602 12.17247200012207 C11.761545181274414 12.164154052734375 11.764918327331543 12.15583610534668 11.768290519714355 12.147518157958984 L11.768290519714355 12.147518157958984 C11.807281494140625 12.150872230529785 11.846272468566895 12.154227256774902 11.885263442993164 12.157581329345703 L11.885263442993164 12.157581329345703 C11.887663841247559 12.149335861206055 11.890063285827637 12.141090393066406 11.892463684082031 12.132844924926758 L11.892463684082031 12.132844924926758 C11.848881721496582 12.112417221069336 11.80530071258545 12.091989517211914 11.76171875 12.071561813354492 L11.76171875 12.071561813354492 C11.76171875 12.032143592834473 11.76171875 11.99272632598877 11.76171875 11.95330810546875 L11.76171875 11.95330810546875"></path></svg>