<svg xmlns="http://www.w3.org/2000/svg" viewBox="0.0 0.0 24.0 24.0" height="200px" width="200px"><path fill="none" stroke="black" stroke-width=".3" stroke-opacity="1.0"  filling="0" d="M12.152291297912598 11.658818244934082 L12.152291297912598 11.658818244934082 C12.539668083190918 11.68362808227539 12.531038284301758 11.940547943115234 12.354954719543457 12.299617767333984 L12.354954719543457 12.299617767333984 C12.373672485351562 12.399117469787598 12.392391204833984 12.498618125915527 12.41110897064209 12.59811782836914 L12.41110897064209 12.59811782836914 C12.337081909179688 12.503545761108398 12.263054847717285 12.40897274017334 12.189027786254883 12.314400672912598 L12.189027786254883 12.314400672912598 C12.174918174743652 12.395654678344727 12.160809516906738 12.476909637451172 12.146699905395508 12.5581636428833 L12.146699905395508 12.5581636428833 C12.061198234558105 12.255809783935547 12.052288055419922 11.964646339416504 12.152291297912598 11.658818244934082 L12.152291297912598 11.658818244934082"></path>
<path fill="none" stroke="black" stroke-width=".3" stroke-opacity="1.0"  filling="0" d="M12.216898918151855 11.824172973632812 L12.216898918151855 11.824172973632812 C12.279027938842773 11.865720748901367 12.274441719055176 12.015300750732422 12.207326889038086 12.048190116882324 L12.207326889038086 12.048190116882324 C12.210517883300781 11.973517417907715 12.21370792388916 11.898845672607422 12.216898918151855 11.824172973632812 L12.216898918151855 11.824172973632812"></path></svg>