<svg xmlns="http://www.w3.org/2000/svg" viewBox="0.0 0.0 24.0 24.0" height="200px" width="200px"><path fill="none" stroke="black" stroke-width=".3" stroke-opacity="1.0"  filling="0" d="M19.472780227661133 10.31260871887207 L19.472780227661133 10.31260871887207 C19.49517250061035 10.320099830627441 19.517562866210938 10.327590942382812 19.539955139160156 10.335082054138184 L19.539955139160156 10.335082054138184 C19.425718307495117 10.621652603149414 19.327945709228516 11.415828704833984 19.593626022338867 11.259027481079102 L19.593626022338867 11.259027481079102 C19.719791412353516 11.698652267456055 19.514432907104492 11.650250434875488 19.06355094909668 11.87536334991455 L19.06355094909668 11.87536334991455 C18.96295166015625 12.14825439453125 18.87989616394043 12.42827033996582 18.761751174926758 12.694036483764648 C18.64313316345215 12.960867881774902 18.508407592773438 13.221464157104492 18.354761123657227 13.469781875610352 C17.9316349029541 14.153619766235352 17.408388137817383 14.205145835876465 17.12552261352539 13.420636177062988 C16.908809661865234 12.819597244262695 17.337703704833984 11.904475212097168 17.640596389770508 11.405862808227539 C17.869779586791992 11.028589248657227 18.372100830078125 10.311396598815918 18.80045509338379 10.820890426635742 L18.80045509338379 10.820890426635742 C19.0412540435791 10.447754859924316 19.055837631225586 10.382521629333496 19.472780227661133 10.31260871887207 L19.472780227661133 10.31260871887207"></path>
<path fill="none" stroke="black" stroke-width=".3" stroke-opacity="1.0"  filling="0" d="M18.587238311767578 11.188854217529297 L18.587238311767578 11.188854217529297 C19.27254295349121 11.70035171508789 18.407581329345703 12.882920265197754 17.93438148498535 13.25866413116455 L17.93438148498535 13.25866413116455 C17.42074203491211 12.780345916748047 18.184438705444336 11.462976455688477 18.587238311767578 11.188854217529297 L18.587238311767578 11.188854217529297"></path></svg>