<svg xmlns="http://www.w3.org/2000/svg" viewBox="0.0 0.0 24.0 24.0" height="200px" width="200px"><path fill="none" stroke="black" stroke-width=".3" stroke-opacity="1.0"  filling="0" d="M19.745399475097656 8.018097877502441 L19.745399475097656 8.018097877502441 C19.97269058227539 8.018125534057617 20.199981689453125 8.01815414428711 20.42727279663086 8.018181800842285 L20.42727279663086 8.018181800842285 C19.91266632080078 9.086403846740723 19.461875915527344 10.112180709838867 19.347518920898438 11.290608406066895 L19.347518920898438 11.290608406066895 C19.774742126464844 10.853416442871094 20.2412109375 9.234206199645996 21.110645294189453 9.421143531799316 L21.110645294189453 9.421143531799316 C20.89760971069336 9.98421573638916 20.684572219848633 10.54728889465332 20.47153663635254 11.110361099243164 L20.47153663635254 11.110361099243164 C20.6390380859375 11.068684577941895 20.756711959838867 10.908734321594238 20.866689682006836 10.775697708129883 L20.866689682006836 10.775697708129883 C20.908443450927734 10.80395221710205 20.950197219848633 10.832206726074219 20.99195098876953 10.860461235046387 L20.99195098876953 10.860461235046387 C20.614849090576172 11.339343070983887 19.954256057739258 11.9586763381958 19.89659881591797 10.995351791381836 L19.89659881591797 10.995351791381836 C19.554855346679688 11.395586013793945 18.75152587890625 12.453653335571289 18.612844467163086 11.239141464233398 L18.612844467163086 11.239141464233398 C18.43086051940918 11.450623512268066 18.04018783569336 11.910247802734375 17.904325485229492 12.021161079406738 C16.56842041015625 13.111747741699219 17.447616577148438 8.827249526977539 18.859115600585938 10.109397888183594 L18.859115600585938 10.109397888183594 C19.12293243408203 9.397125244140625 19.379657745361328 8.687100410461426 19.745399475097656 8.018097877502441 L19.745399475097656 8.018097877502441"></path>
<path fill="none" stroke="black" stroke-width=".3" stroke-opacity="1.0"  filling="0" d="M18.65740966796875 10.186363220214844 L18.65740966796875 10.186363220214844 C18.743192672729492 12.600235939025879 16.897109985351562 10.707857131958008 18.65740966796875 10.186363220214844 L18.65740966796875 10.186363220214844"></path></svg>