<svg xmlns="http://www.w3.org/2000/svg" viewBox="0.0 0.0 24.0 24.0" height="200px" width="200px"><path fill="none" stroke="black" stroke-width=".3" stroke-opacity="1.0"  filling="0" d="M13.729254722595215 11.923473358154297 L13.729254722595215 11.923473358154297 C13.743982315063477 12.009991645812988 13.758708953857422 12.09650993347168 13.773436546325684 12.183028221130371 L13.773436546325684 12.183028221130371 C13.75894546508789 12.189155578613281 13.744454383850098 12.195281982421875 13.729963302612305 12.201409339904785 L13.729963302612305 12.201409339904785 C13.693081855773926 12.153027534484863 13.65619945526123 12.104645729064941 13.619318008422852 12.05626392364502 L13.619318008422852 12.05626392364502 C13.612436294555664 12.101245880126953 13.605554580688477 12.146227836608887 13.598672866821289 12.19120979309082 L13.598672866821289 12.19120979309082 C13.58778190612793 12.102418899536133 13.576891899108887 12.013628005981445 13.566000938415527 11.924837112426758 L13.566000938415527 11.924837112426758 C13.613574028015137 11.963800430297852 13.66114616394043 12.002764701843262 13.708719253540039 12.041728019714355 L13.708719253540039 12.041728019714355 C13.715564727783203 12.002309799194336 13.72240924835205 11.962891578674316 13.729254722595215 11.923473358154297 L13.729254722595215 11.923473358154297"></path></svg>