<svg xmlns="http://www.w3.org/2000/svg" viewBox="0.0 0.0 24.0 24.0" height="200px" width="200px"><path fill="none" stroke="black" stroke-width=".3" stroke-opacity="1.0"  filling="0" d="M15.061554908752441 14.028656959533691 L15.061554908752441 14.028656959533691 C15.232281684875488 14.155756950378418 15.403009414672852 14.282856941223145 15.573736190795898 14.409956932067871 L15.573736190795898 14.409956932067871 C15.487963676452637 14.733802795410156 15.402191162109375 15.057647705078125 15.316418647766113 15.38149356842041 L15.316418647766113 15.38149356842041 C15.919305801391602 15.826921463012695 16.142881393432617 17.026803970336914 15.094145774841309 16.237009048461914 L15.094145774841309 16.237009048461914 C15.005290985107422 16.558664321899414 14.916437149047852 16.88031768798828 14.827582359313965 17.20197296142578 L14.827582359313965 17.20197296142578 C13.972701072692871 16.56692123413086 14.871410369873047 16.119659423828125 14.030400276184082 15.430092811584473 L14.030400276184082 15.430092811584473 C14.100264549255371 15.147138595581055 14.170127868652344 14.86418342590332 14.239992141723633 14.581229209899902 L14.239992141723633 14.581229209899902 C14.427319526672363 14.714265823364258 14.614645957946777 14.847301483154297 14.801973342895508 14.980338096618652 L14.801973342895508 14.980338096618652 C14.888500213623047 14.663110733032227 14.975028038024902 14.345884323120117 15.061554908752441 14.028656959533691 L15.061554908752441 14.028656959533691"></path></svg>