<svg xmlns="http://www.w3.org/2000/svg" viewBox="0.0 0.0 24.0 24.0" height="200px" width="200px"><path fill="none" stroke="black" stroke-width=".3" stroke-opacity="1.0"  filling="0" d="M7.3636088371276855 6.436338424682617 L7.3636088371276855 6.436338424682617 C7.563618183135986 6.436347007751465 7.763627052307129 6.436355113983154 7.96363639831543 6.436363697052002 L7.96363639831543 6.436363697052002 C7.758498191833496 7.330573081970215 8.552109718322754 7.9217610359191895 8.057836532592773 8.628328323364258 L8.057836532592773 8.628328323364258 C7.870891094207764 8.489473342895508 7.683945178985596 8.350619316101074 7.496999740600586 8.211764335632324 L7.496999740600586 8.211764335632324 C7.411736011505127 8.520782470703125 7.326472759246826 8.829800605773926 7.241209030151367 9.138818740844727 L7.241209030151367 9.138818740844727 C7.070045471191406 9.027782440185547 6.898881435394287 8.916746139526367 6.727717876434326 8.805709838867188 L6.727717876434326 8.805709838867188 C6.924790859222412 7.870594024658203 6.153840065002441 7.325906276702881 6.655717849731445 6.540820121765137 L6.655717849731445 6.540820121765137 C6.840527057647705 6.677638530731201 7.025335788726807 6.814456462860107 7.210144996643066 6.951274871826172 L7.210144996643066 6.951274871826172 C7.2612996101379395 6.779629230499268 7.3124542236328125 6.6079840660095215 7.3636088371276855 6.436338424682617 L7.3636088371276855 6.436338424682617"></path></svg>