<svg xmlns="http://www.w3.org/2000/svg" viewBox="0.0 0.0 24.0 24.0" height="200px" width="200px"><path fill="none" stroke="black" stroke-width=".3" stroke-opacity="1.0"  filling="0" d="M7.282009124755859 9.331827163696289 L7.282009124755859 9.331827163696289 C7.4500908851623535 9.457571983337402 7.618172645568848 9.583317756652832 7.786254405975342 9.709062576293945 L7.786254405975342 9.709062576293945 C7.703754425048828 10.025017738342285 7.621254920959473 10.340971946716309 7.538754940032959 10.656927108764648 L7.538754940032959 10.656927108764648 C8.145800590515137 11.11894702911377 8.311230659484863 11.119407653808594 7.8577094078063965 11.9569091796875 L7.8577094078063965 11.9569091796875 C7.671573162078857 11.81954574584961 7.48543643951416 11.682182312011719 7.299300193786621 11.544818878173828 L7.299300193786621 11.544818878173828 C7.21064567565918 11.858945846557617 7.121991157531738 12.173073768615723 7.033336639404297 12.487200736999512 L7.033336639404297 12.487200736999512 C6.866663932800293 12.365364074707031 6.699991226196289 12.24352741241455 6.533318519592285 12.12169075012207 L6.533318519592285 12.12169075012207 C6.710797309875488 11.252553939819336 5.953732490539551 10.545110702514648 6.457499980926514 9.860508918762207 L6.457499980926514 9.860508918762207 C6.644881725311279 9.99515438079834 6.832263469696045 10.129799842834473 7.0196452140808105 10.264445304870605 L7.0196452140808105 10.264445304870605 C7.104197025299072 9.952770233154297 7.191628932952881 9.641861915588379 7.282009124755859 9.331827163696289 L7.282009124755859 9.331827163696289"></path></svg>