<svg xmlns="http://www.w3.org/2000/svg" viewBox="0.0 0.0 24.0 24.0" height="200px" width="200px"><path fill="none" stroke="black" stroke-width=".3" stroke-opacity="1.0"  filling="0" d="M6.18179988861084 10.820045471191406 L6.18179988861084 10.820045471191406 C6.352318286895752 10.94932746887207 6.522836208343506 11.078608512878418 6.693354606628418 11.207890510559082 L6.693354606628418 11.207890510559082 C6.604272842407227 11.526963233947754 6.515191078186035 11.846035957336426 6.426109313964844 12.165108680725098 L6.426109313964844 12.165108680725098 C6.836310386657715 12.465827941894531 7.436685085296631 12.802270889282227 6.749427318572998 13.441608428955078 L6.749427318572998 13.441608428955078 C6.569736480712891 13.311426162719727 6.390045642852783 13.181244850158691 6.210354804992676 13.05106258392334 L6.210354804992676 13.05106258392334 C6.116018295288086 13.35623550415039 6.021681785583496 13.661408424377441 5.927345275878906 13.966581344604492 L5.927345275878906 13.966581344604492 C5.758181571960449 13.85512638092041 5.589017868041992 13.743672370910645 5.419854164123535 13.632217407226562 L5.419854164123535 13.632217407226562 C5.512955188751221 13.161369323730469 5.484516620635986 12.538010597229004 5.121982097625732 12.223472595214844 L5.121982097625732 12.223472595214844 C5.193691253662109 11.928709030151367 5.265399932861328 11.633944511413574 5.337109088897705 11.339180946350098 L5.337109088897705 11.339180946350098 C5.527563571929932 11.480408668518066 5.718018531799316 11.621635437011719 5.908473014831543 11.762863159179688 L5.908473014831543 11.762863159179688 C5.999581813812256 11.448590278625488 6.090691089630127 11.134318351745605 6.18179988861084 10.820045471191406 L6.18179988861084 10.820045471191406"></path></svg>