<svg xmlns="http://www.w3.org/2000/svg" viewBox="0.0 0.0 24.0 24.0" height="200px" width="200px"><path fill="none" stroke="black" stroke-width=".3" stroke-opacity="1.0"  filling="0" d="M18.616283416748047 11.137228012084961 L18.616283416748047 11.137228012084961 C18.616283416748047 11.338791847229004 18.616283416748047 11.54035472869873 18.616283416748047 11.741918563842773 L18.616283416748047 11.741918563842773 C17.424928665161133 12.032383918762207 17.932483673095703 12.811494827270508 17.78459930419922 13.903255462646484 L17.78459930419922 13.903255462646484 C17.55994415283203 13.903255462646484 17.335290908813477 13.903255462646484 17.11063575744629 13.903255462646484 L17.11063575744629 13.903255462646484 C17.11063575744629 13.885478019714355 17.110637664794922 11.196871757507324 17.110637664794922 11.187163352966309 L17.110637664794922 11.187163352966309 C17.334672927856445 11.187163352966309 17.5587100982666 11.187163352966309 17.782745361328125 11.187163352966309 L17.782745361328125 11.187163352966309 C17.782745361328125 11.283473014831543 17.782745361328125 11.379781723022461 17.782745361328125 11.476091384887695 L17.782745361328125 11.476091384887695 C18.060590744018555 11.363137245178223 18.338438034057617 11.250182151794434 18.616283416748047 11.137228012084961 L18.616283416748047 11.137228012084961"></path></svg>