<svg xmlns="http://www.w3.org/2000/svg" viewBox="0.0 0.0 24.0 24.0" height="200px" width="200px"><path fill="none" stroke="black" stroke-width=".3" stroke-opacity="1.0"  filling="0" d="M16.16149139404297 12.541882514953613 L16.16149139404297 12.541882514953613 C16.331846237182617 12.673373222351074 16.502201080322266 12.804863929748535 16.672555923461914 12.936354637145996 L16.672555923461914 12.936354637145996 C16.472017288208008 13.65362548828125 17.105867385864258 14.513619422912598 16.752546310424805 15.169254302978516 L16.752546310424805 15.169254302978516 C16.563199996948242 15.033254623413086 16.373855590820312 14.897254943847656 16.18450927734375 14.761255264282227 L16.18450927734375 14.761255264282227 C16.100910186767578 15.067072868347168 16.017309188842773 15.37289047241211 15.933710098266602 15.67870807647705 L15.933710098266602 15.67870807647705 C15.24912166595459 15.287084579467773 15.565431594848633 15.107852935791016 15.65765380859375 14.348645210266113 L15.65765380859375 14.348645210266113 C15.266416549682617 14.053910255432129 14.675007820129395 13.684584617614746 15.331718444824219 13.076563835144043 L15.331718444824219 13.076563835144043 C15.521919250488281 13.213963508605957 15.712119102478027 13.351364135742188 15.90231990814209 13.488763809204102 L15.90231990814209 13.488763809204102 C15.988710403442383 13.173136711120605 16.07509994506836 12.85750961303711 16.16149139404297 12.541882514953613 L16.16149139404297 12.541882514953613"></path></svg>