<svg xmlns="http://www.w3.org/2000/svg" viewBox="0.0 0.0 24.0 24.0" height="200px" width="200px"><path fill="none" stroke="black" stroke-width=".3" stroke-opacity="1.0"  filling="0" d="M13.323953628540039 11.400191307067871 L13.323953628540039 11.400191307067871 C13.582014083862305 11.587350845336914 13.830965042114258 12.507363319396973 13.885934829711914 12.80950927734375 L13.885934829711914 12.80950927734375 C13.831398963928223 12.80950927734375 13.776862144470215 12.80950927734375 13.722326278686523 12.80950927734375 L13.722326278686523 12.80950927734375 C13.617226600646973 12.469339370727539 13.375126838684082 12.425687789916992 13.350708961486816 12.828328132629395 L13.350708961486816 12.828328132629395 C13.301790237426758 12.811491966247559 13.252872467041016 12.794654846191406 13.203953742980957 12.77781867980957 L13.203953742980957 12.77781867980957 C13.203953742980957 12.321154594421387 13.203953742980957 11.86449146270752 13.203953742980957 11.407827377319336 L13.203953742980957 11.407827377319336 C13.243953704833984 11.405282020568848 13.283953666687012 11.40273666381836 13.323953628540039 11.400191307067871 L13.323953628540039 11.400191307067871"></path>
<path fill="none" stroke="black" stroke-width=".3" stroke-opacity="1.0"  filling="0" d="M13.375009536743164 11.781791687011719 L13.375009536743164 11.781791687011719 C13.42838191986084 11.949682235717773 13.481755256652832 12.117573738098145 13.535127639770508 12.2854642868042 L13.535127639770508 12.2854642868042 C13.31232738494873 12.133594512939453 13.339620590209961 12.044833183288574 13.33846378326416 11.786918640136719 L13.33846378326416 11.786918640136719 C13.350646018981934 11.785209655761719 13.36282730102539 11.783500671386719 13.375009536743164 11.781791687011719 L13.375009536743164 11.781791687011719"></path></svg>