<svg xmlns="http://www.w3.org/2000/svg" viewBox="0.0 0.0 24.0 24.0" height="200px" width="200px"><path fill="none" stroke="black" stroke-width=".3" stroke-opacity="1.0"  filling="0" d="M25.840118408203125 11.12070083618164 L25.840118408203125 11.12070083618164 C26.403474807739258 11.133878707885742 26.98274803161621 11.500178337097168 26.425745010375977 11.985736846923828 L26.425745010375977 11.985736846923828 C28.363258361816406 13.407480239868164 23.69655418395996 12.984063148498535 25.60614776611328 11.986008644104004 L25.60614776611328 11.986008644104004 C25.16048812866211 11.628300666809082 25.4830379486084 11.293723106384277 25.840118408203125 11.12070083618164 L25.840118408203125 11.12070083618164"></path>
<path fill="none" stroke="black" stroke-width=".3" stroke-opacity="1.0"  filling="0" d="M25.853321075439453 11.41527271270752 L25.853321075439453 11.41527271270752 C26.165937423706055 11.451430320739746 26.434171676635742 11.40378189086914 26.28384780883789 11.81612777709961 L26.28384780883789 11.81612777709961 C25.86634635925293 11.864940643310547 25.599695205688477 11.861115455627441 25.853321075439453 11.41527271270752 L25.853321075439453 11.41527271270752"></path>
<path fill="none" stroke="black" stroke-width=".3" stroke-opacity="1.0"  filling="0" d="M26.207237243652344 12.173319816589355 L26.207237243652344 12.173319816589355 C26.919225692749023 13.191110610961914 24.63200569152832 12.477922439575195 26.207237243652344 12.173319816589355 L26.207237243652344 12.173319816589355"></path></svg>