<svg xmlns="http://www.w3.org/2000/svg" viewBox="0.0 0.0 24.0 24.0" height="200px" width="200px"><path fill="none" stroke="black" stroke-width=".3" stroke-opacity="1.0"  filling="0" d="M12.173836708068848 11.860418319702148 L12.173836708068848 11.860418319702148 C13.066866874694824 12.47887897491455 12.083882331848145 12.942265510559082 12.98806381225586 13.625999450683594 L12.98806381225586 13.625999450683594 C12.916600227355957 13.910435676574707 12.845136642456055 14.194872856140137 12.773673057556152 14.47930908203125 L12.773673057556152 14.47930908203125 C12.58090877532959 14.340327262878418 12.388145446777344 14.201345443725586 12.195381164550781 14.062363624572754 L12.195381164550781 14.062363624572754 C12.107099533081055 14.379817962646484 12.018817901611328 14.697272300720215 11.930536270141602 15.014726638793945 L11.930536270141602 15.014726638793945 C11.324209213256836 14.576323509216309 11.498860359191895 14.370588302612305 11.680418014526367 13.664944648742676 L11.680418014526367 13.664944648742676 C11.494608879089355 13.522244453430176 11.308799743652344 13.379545211791992 11.122990608215332 13.236845016479492 L11.122990608215332 13.236845016479492 C11.192817687988281 12.951462745666504 11.262645721435547 12.666081428527832 11.332472801208496 12.380699157714844 L11.332472801208496 12.380699157714844 C11.522754669189453 12.524090766906738 11.713035583496094 12.667481422424316 11.90331745147705 12.810873031616211 L11.90331745147705 12.810873031616211 C11.993490219116211 12.494054794311523 12.083663940429688 12.177236557006836 12.173836708068848 11.860418319702148 L12.173836708068848 11.860418319702148"></path></svg>