<svg xmlns="http://www.w3.org/2000/svg" viewBox="0.0 0.0 24.0 24.0" height="200px" width="200px"><path fill="none" stroke="black" stroke-width=".3" stroke-opacity="1.0"  filling="0" d="M14.163354873657227 12.205254554748535 L14.163354873657227 12.205254554748535 C14.68406867980957 12.583154678344727 14.454710006713867 13.579817771911621 14.976982116699219 13.955562591552734 L14.976982116699219 13.955562591552734 C14.907164573669434 14.25107192993164 14.837346076965332 14.546581268310547 14.767528533935547 14.842090606689453 L14.767528533935547 14.842090606689453 C14.582683563232422 14.70811653137207 14.24077320098877 14.355489730834961 14.142709732055664 14.5616455078125 C14.025944709777832 14.807116508483887 14.006937026977539 15.088638305664062 13.918909072875977 15.345817565917969 L13.918909072875977 15.345817565917969 C13.752272605895996 15.223517417907715 13.585637092590332 15.101218223571777 13.419000625610352 14.978918075561523 L13.419000625610352 14.978918075561523 C13.50367259979248 14.660208702087402 13.588345527648926 14.341500282287598 13.673017501831055 14.022790908813477 L13.673017501831055 14.022790908813477 C13.097452163696289 13.59378719329834 12.904224395751953 13.509526252746582 13.342472076416016 12.738926887512207 L13.342472076416016 12.738926887512207 C13.530281066894531 12.875699996948242 13.718090057373047 13.012472152709961 13.905899047851562 13.149245262145996 L13.905899047851562 13.149245262145996 C13.991717338562012 12.83458137512207 14.077536582946777 12.519918441772461 14.163354873657227 12.205254554748535 L14.163354873657227 12.205254554748535"></path></svg>