<svg xmlns="http://www.w3.org/2000/svg" viewBox="0.0 0.0 24.0 24.0" height="200px" width="200px"><path fill="none" stroke="black" stroke-width=".3" stroke-opacity="1.0"  filling="0" d="M13.116382598876953 10.908163070678711 L13.116382598876953 10.908163070678711 C13.22303295135498 10.996634483337402 13.23263931274414 11.168649673461914 13.232864379882812 11.307218551635742 L13.232864379882812 11.307218551635742 C13.052700996398926 11.307218551635742 12.872537612915039 11.307218551635742 12.692374229431152 11.307218551635742 L12.692374229431152 11.307218551635742 C12.692374229431152 11.465727806091309 12.692374229431152 11.624237060546875 12.692374229431152 11.782746315002441 L12.692374229431152 11.782746315002441 C13.489295959472656 11.733094215393066 13.279162406921387 12.091882705688477 12.681547164916992 12.197592735290527 L12.681547164916992 12.197592735290527 C12.690484046936035 12.389874458312988 12.699419975280762 12.58215618133545 12.708356857299805 12.77443790435791 L12.708356857299805 12.77443790435791 C13.096834182739258 12.731025695800781 13.26201057434082 12.737699508666992 13.237802505493164 13.160810470581055 L13.237802505493164 13.160810470581055 C13.014665603637695 13.167564392089844 12.791528701782227 13.17431926727295 12.568391799926758 13.181073188781738 L12.568391799926758 13.181073188781738 C12.38851547241211 12.566020011901855 12.456886291503906 11.61707592010498 12.512372970581055 10.945172309875488 L12.512372970581055 10.945172309875488 C12.713709831237793 10.932835578918457 12.915045738220215 10.920499801635742 13.116382598876953 10.908163070678711 L13.116382598876953 10.908163070678711"></path></svg>