<svg xmlns="http://www.w3.org/2000/svg" viewBox="0.0 0.0 24.0 24.0" height="200px" width="200px"><path fill="none" stroke="black" stroke-width=".3" stroke-opacity="1.0"  filling="0" d="M3.9406633377075195 11.127243995666504 L3.9406633377075195 11.127243995666504 C4.222471237182617 11.38295841217041 4.642999172210693 11.693321228027344 4.070999622344971 11.999863624572754 L4.070999622344971 11.999863624572754 C5.106115818023682 12.918137550354004 3.174497604370117 13.554211616516113 2.9790000915527344 12.387709617614746 L2.9790000915527344 12.387709617614746 C3.1000635623931885 12.387709617614746 3.2211272716522217 12.387709617614746 3.342190742492676 12.387709617614746 L3.342190742492676 12.387709617614746 C3.5264792442321777 13.298068046569824 4.584871768951416 12.169754981994629 3.5803909301757812 12.163580894470215 L3.5803909301757812 12.163580894470215 C3.5803909301757812 12.079998970031738 3.5803909301757812 11.996417999267578 3.5803909301757812 11.912836074829102 L3.5803909301757812 11.912836074829102 C4.6342692375183105 11.631545066833496 3.352705717086792 11.72923755645752 3.0430641174316406 11.722853660583496 L3.0430641174316406 11.722853660583496 C3.2186970710754395 11.409660339355469 3.5826027393341064 11.154258728027344 3.9406633377075195 11.127243995666504 L3.9406633377075195 11.127243995666504"></path></svg>