<svg xmlns="http://www.w3.org/2000/svg" viewBox="0.0 0.0 24.0 24.0" height="200px" width="200px"><path fill="none" stroke="black" stroke-width=".3" stroke-opacity="1.0"  filling="0" d="M5.297099590301514 8.981836318969727 L5.297099590301514 8.981836318969727 C5.456472396850586 9.100863456726074 5.615845203399658 9.219890594482422 5.7752180099487305 9.33891773223877 L5.7752180099487305 9.33891773223877 C5.550990104675293 10.501164436340332 6.178267955780029 10.516307830810547 5.874654293060303 11.599909782409668 L5.874654293060303 11.599909782409668 C5.682518005371094 11.470182418823242 5.490381240844727 11.340456008911133 5.298244953155518 11.210728645324707 L5.298244953155518 11.210728645324707 C5.210835933685303 11.522992134094238 5.123426914215088 11.83525562286377 5.036017894744873 12.1475191116333 L5.036017894744873 12.1475191116333 C4.8755269050598145 12.034709930419922 4.715035915374756 11.921900749206543 4.554544925689697 11.809091567993164 L4.554544925689697 11.809091567993164 C4.554544925689697 11.462732315063477 4.685327529907227 11.127968788146973 4.779489994049072 10.794654846191406 L4.779489994049072 10.794654846191406 C4.704508304595947 10.741890907287598 4.629526615142822 10.689126968383789 4.554544925689697 10.63636302947998 L4.554544925689697 10.63636302947998 C4.554544925689697 10.290908813476562 4.554544925689697 9.945453643798828 4.554544925689697 9.59999942779541 L4.554544925689697 9.59999942779541 C4.705626964569092 9.711981773376465 4.856708526611328 9.823963165283203 5.007790565490723 9.935945510864258 L5.007790565490723 9.935945510864258 C5.104227066040039 9.61790943145752 5.200663089752197 9.299872398376465 5.297099590301514 8.981836318969727 L5.297099590301514 8.981836318969727"></path></svg>