<svg xmlns="http://www.w3.org/2000/svg" viewBox="0.0 0.0 24.0 24.0" height="200px" width="200px"><path fill="none" stroke="black" stroke-width=".3" stroke-opacity="1.0"  filling="0" d="M-2.6786727905273438 10.208808898925781 L-2.6786727905273438 10.208808898925781 C-2.45084547996521 10.208808898925781 -2.223017930984497 10.208808898925781 -1.9951906204223633 10.208808898925781 L-1.9951906204223633 10.208808898925781 C-1.9951906204223633 10.503835678100586 -1.9951906204223633 10.798863410949707 -1.9951906204223633 11.093890190124512 L-1.9951906204223633 11.093890190124512 C-1.8212181329727173 11.093890190124512 -1.6472457647323608 11.093890190124512 -1.4732732772827148 11.093890190124512 L-1.4732732772827148 11.093890190124512 C-1.4857187271118164 11.250527381896973 -1.498164176940918 11.407163619995117 -1.5106096267700195 11.563800811767578 L-1.5106096267700195 11.563800811767578 C-2.4987423419952393 11.561020851135254 -2.335937023162842 13.308664321899414 -1.4855461120605469 13.252228736877441 L-1.4855461120605469 13.252228736877441 C-1.4718914031982422 13.434109687805176 -1.4582366943359375 13.615991592407227 -1.4445819854736328 13.797872543334961 L-1.4445819854736328 13.797872543334961 C-3.000345230102539 13.745084762573242 -2.6727819442749023 13.053728103637695 -2.6727819442749023 11.563172340393066 L-2.6727819442749023 11.563172340393066 C-2.7861270904541016 11.563172340393066 -2.899472236633301 11.563172340393066 -3.0128173828125 11.563172340393066 L-3.0128173828125 11.563172340393066 C-3.028890609741211 11.410226821899414 -3.044963836669922 11.257281303405762 -3.061037063598633 11.10433578491211 L-3.061037063598633 11.10433578491211 C-2.933582305908203 11.10433578491211 -2.8061275482177734 11.10433578491211 -2.6786727905273438 11.10433578491211 L-2.6786727905273438 11.10433578491211 C-2.6786727905273438 10.805827140808105 -2.6786727905273438 10.507317543029785 -2.6786727905273438 10.208808898925781 L-2.6786727905273438 10.208808898925781"></path></svg>