<svg xmlns="http://www.w3.org/2000/svg" viewBox="0.0 0.0 24.0 24.0" height="200px" width="200px"><path fill="none" stroke="black" stroke-width=".3" stroke-opacity="1.0"  filling="0" d="M6.409090995788574 9.46363639831543 L6.409090995788574 9.46363639831543 C6.409090995788574 9.531473159790039 6.409090995788574 9.599308967590332 6.409090995788574 9.667145729064941 L6.409090995788574 9.667145729064941 C6.596859455108643 9.676656723022461 6.784919261932373 9.681221961975098 6.972927093505859 9.681818008422852 L6.972927093505859 9.681818008422852 C6.972927093505859 9.852745056152344 6.972927093505859 10.023672103881836 6.972927093505859 10.194599151611328 L6.972927093505859 10.194599151611328 C6.787563323974609 10.194599151611328 6.602200031280518 10.194599151611328 6.416836261749268 10.194599151611328 L6.416836261749268 10.194599151611328 C6.416836261749268 10.384054183959961 6.416836261749268 10.573508262634277 6.416836261749268 10.76296329498291 L6.416836261749268 10.76296329498291 C6.2423906326293945 10.76296329498291 6.06794548034668 10.76296329498291 5.893499851226807 10.76296329498291 L5.893499851226807 10.76296329498291 C5.893499851226807 10.57535457611084 5.893499851226807 10.387744903564453 5.893499851226807 10.200136184692383 L5.893499851226807 10.200136184692383 C4.469481468200684 10.199315071105957 5.891263961791992 9.6857328414917 5.890909194946289 9.463663101196289 L5.890909194946289 9.463663101196289 C6.063636302947998 9.463654518127441 6.236363887786865 9.463644981384277 6.409090995788574 9.46363639831543 L6.409090995788574 9.46363639831543"></path></svg>