<svg xmlns="http://www.w3.org/2000/svg" viewBox="0.0 0.0 24.0 24.0" height="200px" width="200px"><path fill="none" stroke="black" stroke-width=".3" stroke-opacity="1.0"  filling="0" d="M26.449092864990234 11.084700584411621 L26.449092864990234 11.084700584411621 C27.113262176513672 11.625747680664062 27.501258850097656 11.71094799041748 27.43047332763672 12.681709289550781 L27.43047332763672 12.681709289550781 C26.78243637084961 12.68179988861084 26.1343994140625 12.681891441345215 25.48636245727539 12.681982040405273 L25.48636245727539 12.681982040405273 C25.847536087036133 13.781158447265625 26.592321395874023 12.86277961730957 27.410865783691406 13.019536972045898 L27.410865783691406 13.019536972045898 C25.765777587890625 15.552970886230469 23.100847244262695 11.303712844848633 26.449092864990234 11.084700584411621 L26.449092864990234 11.084700584411621"></path>
<path fill="none" stroke="black" stroke-width=".3" stroke-opacity="1.0"  filling="0" d="M25.94449234008789 11.622517585754395 L25.94449234008789 11.622517585754395 C26.41386604309082 11.642144203186035 26.551774978637695 11.702378273010254 26.69329071044922 12.157418251037598 L26.69329071044922 12.157418251037598 C26.300264358520508 12.157426834106445 25.907236099243164 12.15743637084961 25.514209747314453 12.157444953918457 L25.514209747314453 12.157444953918457 C25.657636642456055 11.979135513305664 25.80106544494629 11.800827026367188 25.94449234008789 11.622517585754395 L25.94449234008789 11.622517585754395"></path></svg>