<svg xmlns="http://www.w3.org/2000/svg" viewBox="0.0 0.0 24.0 24.0" height="200px" width="200px"><path fill="none" stroke="black" stroke-width=".3" stroke-opacity="1.0"  filling="0" d="M10.879880905151367 10.125382423400879 L10.879880905151367 10.125382423400879 C11.10444450378418 10.125382423400879 11.329009056091309 10.125382423400879 11.553572654724121 10.125382423400879 L11.553572654724121 10.125382423400879 C11.553572654724121 11.356645584106445 11.553572654724121 12.587909698486328 11.553572654724121 13.819172859191895 L11.553572654724121 13.819172859191895 C11.333527565002441 13.819172859191895 11.113481521606445 13.819172859191895 10.893436431884766 13.819172859191895 L10.893436431884766 13.819172859191895 C10.876509666442871 13.74423599243164 10.85958194732666 13.669300079345703 10.842655181884766 13.59436321258545 L10.842655181884766 13.59436321258545 C8.380542755126953 15.419364929199219 8.549346923828125 9.405036926269531 10.879880905151367 11.372836112976074 L10.879880905151367 11.372836112976074 C10.879880905151367 10.95701789855957 10.879880905151367 10.541200637817383 10.879880905151367 10.125382423400879 L10.879880905151367 10.125382423400879"></path>
<path fill="none" stroke="black" stroke-width=".3" stroke-opacity="1.0"  filling="0" d="M10.268099784851074 11.645400047302246 L10.268099784851074 11.645400047302246 C12.507433891296387 13.504287719726562 8.0342435836792 13.504188537597656 10.268099784851074 11.645400047302246 L10.268099784851074 11.645400047302246"></path></svg>