<svg xmlns="http://www.w3.org/2000/svg" viewBox="0.0 0.0 24.0 24.0" height="200px" width="200px"><path fill="none" stroke="black" stroke-width=".3" stroke-opacity="1.0"  filling="0" d="M5.809091091156006 9.46363639831543 L5.809091091156006 9.46363639831543 C5.809091091156006 9.517754554748535 5.809091091156006 9.57187271118164 5.809091091156006 9.625990867614746 L5.809091091156006 9.625990867614746 C5.619436264038086 9.625990867614746 5.429781913757324 9.625990867614746 5.240127086639404 9.625990867614746 L5.240127086639404 9.625990867614746 C5.240127086639404 9.81702709197998 5.240127086639404 10.008064270019531 5.240127086639404 10.199100494384766 L5.240127086639404 10.199100494384766 C4.985302448272705 10.198655128479004 4.725005149841309 9.881980895996094 4.732745170593262 9.627273559570312 L4.732745170593262 9.627273559570312 C4.564254283905029 9.627273559570312 4.395763397216797 9.627273559570312 4.2272725105285645 9.627273559570312 L4.2272725105285645 9.627273559570312 C4.2272725105285645 9.572728157043457 4.2272725105285645 9.518182754516602 4.2272725105285645 9.463637351989746 L4.2272725105285645 9.463637351989746 C4.754545211791992 9.463637351989746 5.281818389892578 9.46363639831543 5.809091091156006 9.46363639831543 L5.809091091156006 9.46363639831543"></path></svg>