<svg xmlns="http://www.w3.org/2000/svg" viewBox="0.0 0.0 24.0 24.0" height="200px" width="200px"><path fill="none" stroke="black" stroke-width=".3" stroke-opacity="1.0"  filling="0" d="M9.84016227722168 9.738382339477539 L9.84016227722168 9.738382339477539 C9.887372016906738 9.74871826171875 9.93458080291748 9.759055137634277 9.981790542602539 9.769391059875488 L9.981790542602539 9.769391059875488 C9.983640670776367 10.829545021057129 8.861496925354004 10.363893508911133 8.02835464477539 10.363691329956055 L8.02835464477539 10.363691329956055 C8.02835464477539 10.627300262451172 8.02835464477539 10.890910148620605 8.02835464477539 11.154519081115723 L8.02835464477539 11.154519081115723 C8.598454475402832 11.154519081115723 9.170236587524414 11.107032775878906 9.736526489257812 11.179609298706055 L9.736526489257812 11.179609298706055 C9.737570762634277 12.251870155334473 9.01799488067627 11.702873229980469 8.040571212768555 11.78697395324707 L8.040571212768555 11.78697395324707 C8.040571212768555 12.111137390136719 8.040571212768555 12.435301780700684 8.040571212768555 12.759465217590332 L8.040571212768555 12.759465217590332 C8.6972074508667 12.759465217590332 9.35384464263916 12.759465217590332 10.010480880737305 12.759465217590332 L10.010480880737305 12.759465217590332 C10.010480880737305 12.963464736938477 10.010480880737305 13.167465209960938 10.010480880737305 13.371464729309082 L10.010480880737305 13.371464729309082 C9.200040817260742 13.49478816986084 8.158393859863281 13.410148620605469 7.30418062210083 13.411200523376465 L7.30418062210083 13.411200523376465 C7.1732707023620605 12.233521461486816 7.281871318817139 10.92470645904541 7.281871318817139 9.73974609375 L7.281871318817139 9.73974609375 C8.1152982711792 9.740365028381348 9.012741088867188 9.824520111083984 9.84016227722168 9.738382339477539 L9.84016227722168 9.738382339477539"></path></svg>