<svg xmlns="http://www.w3.org/2000/svg" viewBox="0.0 0.0 24.0 24.0" height="200px" width="200px"><path fill="none" stroke="black" stroke-width=".3" stroke-opacity="1.0"  filling="0" d="M14.740091323852539 11.137200355529785 L14.740091323852539 11.137200355529785 C15.685943603515625 11.242952346801758 16.502517700195312 11.581389427185059 16.41210174560547 12.736363410949707 L16.41210174560547 12.736363410949707 C15.762819290161133 12.736363410949707 15.113536834716797 12.736363410949707 14.464254379272461 12.736363410949707 L14.464254379272461 12.736363410949707 C14.632597923278809 13.739812850952148 15.687153816223145 13.060590744018555 16.37083625793457 13.063472747802734 L16.37083625793457 13.063472747802734 C15.775506019592285 15.511980056762695 11.775339126586914 12.34501838684082 14.740091323852539 11.137200355529785 L14.740091323852539 11.137200355529785"></path>
<path fill="none" stroke="black" stroke-width=".3" stroke-opacity="1.0"  filling="0" d="M15.197944641113281 11.676899909973145 L15.197944641113281 11.676899909973145 C15.346880912780762 11.863591194152832 15.495817184448242 12.050281524658203 15.644753456115723 12.23697280883789 L15.644753456115723 12.23697280883789 C15.25192642211914 12.228863716125488 14.859099388122559 12.220754623413086 14.466272354125977 12.212645530700684 L14.466272354125977 12.212645530700684 C14.710163116455078 12.034063339233398 14.95405387878418 11.85548210144043 15.197944641113281 11.676899909973145 L15.197944641113281 11.676899909973145"></path></svg>