<svg xmlns="http://www.w3.org/2000/svg" viewBox="0.0 0.0 24.0 24.0" height="200px" width="200px"><path fill="none" stroke="black" stroke-width=".3" stroke-opacity="1.0"  filling="0" d="M15.10630989074707 11.040873527526855 L15.10630989074707 11.040873527526855 C15.50496768951416 11.07874870300293 17.519149780273438 12.337648391723633 16.546255111694336 12.654191017150879 C16.003461837768555 12.830795288085938 15.300368309020996 12.654742240905762 14.72503662109375 12.654545783996582 L14.72503662109375 12.654545783996582 C15.114561080932617 13.59200668334961 15.865422248840332 12.953524589538574 16.633390426635742 12.954599380493164 L16.633390426635742 12.954599380493164 C15.325751304626465 15.23394775390625 12.488313674926758 12.206541061401367 15.10630989074707 11.040873527526855 L15.10630989074707 11.040873527526855"></path>
<path fill="none" stroke="black" stroke-width=".3" stroke-opacity="1.0"  filling="0" d="M15.284236907958984 11.591291427612305 L15.284236907958984 11.591291427612305 C15.487709999084473 11.770527839660645 15.691182136535645 11.949763298034668 15.894655227661133 12.128999710083008 L15.894655227661133 12.128999710083008 C15.507536888122559 12.128999710083008 15.120418548583984 12.128999710083008 14.73330020904541 12.128999710083008 L14.73330020904541 12.128999710083008 C14.916945457458496 11.949763298034668 15.100591659545898 11.770527839660645 15.284236907958984 11.591291427612305 L15.284236907958984 11.591291427612305"></path></svg>