<svg xmlns="http://www.w3.org/2000/svg" viewBox="0.0 0.0 24.0 24.0" height="200px" width="200px"><path fill="none" stroke="black" stroke-width=".3" stroke-opacity="1.0"  filling="0" d="M12.858080863952637 11.554936408996582 L12.858080863952637 11.554936408996582 C12.875753402709961 11.804354667663574 12.893426895141602 12.053772926330566 12.911099433898926 12.303191184997559 L12.911099433898926 12.303191184997559 C13.34428882598877 12.323546409606934 13.230071067810059 11.87376594543457 13.273062705993652 11.569091796875 L13.273062705993652 11.569091796875 C13.337135314941406 11.579427719116211 13.401208877563477 11.589764595031738 13.46528148651123 11.60010051727295 L13.46528148651123 11.60010051727295 C13.46528148651123 11.910472869873047 13.46528148651123 12.220846176147461 13.46528148651123 12.531218528747559 L13.46528148651123 12.531218528747559 C13.394082069396973 12.50843620300293 13.322881698608398 12.4856538772583 13.25168228149414 12.462871551513672 L13.25168228149414 12.462871551513672 C12.620607376098633 12.657312393188477 12.657188415527344 12.044713020324707 12.654736518859863 11.592190742492676 L12.654736518859863 11.592190742492676 C12.722517967224121 11.57977294921875 12.790299415588379 11.567354202270508 12.858080863952637 11.554936408996582 L12.858080863952637 11.554936408996582"></path></svg>