<svg xmlns="http://www.w3.org/2000/svg" viewBox="0.0 0.0 24.0 24.0" height="200px" width="200px"><path fill="none" stroke="black" stroke-width=".3" stroke-opacity="1.0"  filling="0" d="M9.900272369384766 11.727764129638672 L9.900272369384766 11.727764129638672 C9.909672737121582 12.005127906799316 9.919072151184082 12.282490730285645 9.928472518920898 12.559854507446289 L9.928472518920898 12.559854507446289 C9.842572212219238 12.549354553222656 9.756672859191895 12.538854598999023 9.670772552490234 12.52835464477539 L9.670772552490234 12.52835464477539 C8.8848876953125 12.828519821166992 9.21782112121582 12.135151863098145 9.715609550476074 11.917364120483398 L9.715609550476074 11.917364120483398 C9.632584571838379 11.822578430175781 9.4476318359375 11.863237380981445 9.337663650512695 11.924755096435547 L9.337663650512695 11.924755096435547 C9.278890609741211 11.911046028137207 9.220118522644043 11.89733600616455 9.161345481872559 11.883626937866211 L9.161345481872559 11.883626937866211 C9.407654762268066 11.831672668457031 9.653963088989258 11.779718399047852 9.900272369384766 11.727764129638672 L9.900272369384766 11.727764129638672"></path>
<path fill="none" stroke="black" stroke-width=".3" stroke-opacity="1.0"  filling="0" d="M9.69362735748291 12.115691184997559 L9.69362735748291 12.115691184997559 C9.586027145385742 12.578930854797363 9.033773422241211 12.282543182373047 9.69362735748291 12.115691184997559 L9.69362735748291 12.115691184997559"></path></svg>