<svg xmlns="http://www.w3.org/2000/svg" viewBox="0.0 0.0 24.0 24.0" height="200px" width="200px"><path fill="none" stroke="black" stroke-width=".3" stroke-opacity="1.0"  filling="0" d="M11.672100067138672 11.561727523803711 L11.672100067138672 11.561727523803711 C11.753008842468262 11.753954887390137 11.833918571472168 11.946181297302246 11.914827346801758 12.138408660888672 L11.914827346801758 12.138408660888672 C11.934556007385254 11.977005004882812 11.945113182067871 11.814167976379395 11.94559097290039 11.65156364440918 L11.94559097290039 11.65156364440918 C11.962563514709473 11.651573181152344 11.979537010192871 11.651581764221191 11.996509552001953 11.651591300964355 L11.996509552001953 11.651591300964355 C11.995977401733398 11.956358909606934 12.091642379760742 12.289302825927734 11.962282180786133 12.565255165100098 L11.962282180786133 12.565255165100098 C11.951828002929688 12.558046340942383 11.941373825073242 12.550836563110352 11.930919647216797 12.543627738952637 L11.930919647216797 12.543627738952637 C11.865510940551758 12.357772827148438 11.800101280212402 12.171918869018555 11.734692573547363 11.986063957214355 L11.734692573547363 11.986063957214355 C11.718673706054688 12.161128044128418 11.702655792236328 12.336191177368164 11.686636924743652 12.511255264282227 L11.686636924743652 12.511255264282227 C11.482080459594727 12.267494201660156 11.549521446228027 11.84239387512207 11.672100067138672 11.561727523803711 L11.672100067138672 11.561727523803711"></path></svg>