<svg xmlns="http://www.w3.org/2000/svg" viewBox="0.0 0.0 24.0 24.0" height="200px" width="200px"><path fill="none" stroke="black" stroke-width=".3" stroke-opacity="1.0"  filling="0" d="M9.089509963989258 11.135046005249023 L9.089509963989258 11.135046005249023 C9.331367492675781 11.150043487548828 9.582807540893555 11.237372398376465 9.769691467285156 11.391627311706543 L9.769691467285156 11.391627311706543 C9.711690902709961 11.439754486083984 9.653691291809082 11.487881660461426 9.595690727233887 11.536008834838867 L9.595690727233887 11.536008834838867 C8.450011253356934 10.690035820007324 9.733597755432129 12.342904090881348 9.72962760925293 12.359017372131348 C9.6063232421875 12.859466552734375 8.798213958740234 12.530329704284668 8.61117172241211 12.3250093460083 L8.61117172241211 12.3250093460083 C8.683062553405762 12.277064323425293 8.75495433807373 12.229118347167969 8.826845169067383 12.181173324584961 L8.826845169067383 12.181173324584961 C9.043190956115723 12.220355033874512 9.259535789489746 12.259536743164062 9.475881576538086 12.298718452453613 L9.475881576538086 12.298718452453613 C9.669830322265625 11.660466194152832 8.11266040802002 12.038626670837402 9.089509963989258 11.135046005249023 L9.089509963989258 11.135046005249023"></path></svg>