<svg xmlns="http://www.w3.org/2000/svg" viewBox="0.0 0.0 24.0 24.0" height="200px" width="200px"><path fill="none" stroke="black" stroke-width=".3" stroke-opacity="1.0"  filling="0" d="M13.38179874420166 11.545093536376953 L13.38179874420166 11.545093536376953 C13.57746696472168 11.561505317687988 13.795815467834473 11.557923316955566 13.957664489746094 11.669100761413574 L13.957664489746094 11.669100761413574 C13.907191276550293 11.716700553894043 13.856719017028809 11.764300346374512 13.806245803833008 11.81190013885498 L13.806245803833008 11.81190013885498 C13.678881645202637 11.777318000793457 13.551518440246582 11.74273681640625 13.424154281616211 11.708154678344727 L13.424154281616211 11.708154678344727 C13.408617973327637 11.758227348327637 13.393080711364746 11.808300018310547 13.377544403076172 11.858372688293457 L13.377544403076172 11.858372688293457 C14.316158294677734 12.064489364624023 13.822988510131836 12.77180290222168 13.109915733337402 12.35509204864502 L13.109915733337402 12.35509204864502 C13.163333892822266 12.318782806396484 13.216752052307129 12.28247356414795 13.270170211791992 12.246164321899414 L13.270170211791992 12.246164321899414 C14.118494033813477 12.591071128845215 13.057734489440918 11.927762031555176 13.38179874420166 11.545093536376953 L13.38179874420166 11.545093536376953"></path></svg>