<svg xmlns="http://www.w3.org/2000/svg" viewBox="0.0 0.0 24.0 24.0" height="200px" width="200px"><path fill="none" stroke="black" stroke-width=".3" stroke-opacity="1.0"  filling="0" d="M15.965863227844238 11.564837455749512 L15.965863227844238 11.564837455749512 C16.151113510131836 11.750752449035645 16.020727157592773 11.889944076538086 15.996081352233887 12.237519264221191 L15.996081352233887 12.237519264221191 C15.842645645141602 12.160050392150879 15.738445281982422 12.006525039672852 15.635618209838867 11.868791580200195 L15.635618209838867 11.868791580200195 C15.635618209838867 11.991964340209961 15.635618209838867 12.115137100219727 15.635618209838867 12.238309860229492 L15.635618209838867 12.238309860229492 C15.576018333435059 12.241083145141602 15.516417503356934 12.243855476379395 15.456817626953125 12.246628761291504 L15.456817626953125 12.246628761291504 C15.474163055419922 12.024406433105469 15.483624458312988 11.801396369934082 15.484308242797852 11.578499794006348 L15.484308242797852 11.578499794006348 C15.632328987121582 11.661051750183105 15.771625518798828 11.774508476257324 15.8641357421875 11.916518211364746 L15.8641357421875 11.916518211364746 C15.880805015563965 11.795629501342773 15.88548755645752 11.656661987304688 15.965863227844238 11.564837455749512 L15.965863227844238 11.564837455749512"></path></svg>