<svg xmlns="http://www.w3.org/2000/svg" viewBox="0.0 0.0 24.0 24.0" height="200px" width="200px"><path fill="none" stroke="black" stroke-width=".3" stroke-opacity="1.0"  filling="0" d="M12.224727630615234 11.5390625 L12.224727630615234 11.5390625 C12.656838417053223 11.849495887756348 12.760178565979004 12.779987335205078 11.919219017028809 12.444599151611328 L11.919219017028809 12.444599151611328 C11.919227600097656 12.549017906188965 11.91923713684082 12.653435707092285 11.919245719909668 12.757854461669922 L11.919245719909668 12.757854461669922 C11.846145629882812 12.757854461669922 11.773045539855957 12.757854461669922 11.699945449829102 12.757854461669922 L11.699945449829102 12.757854461669922 C11.699945449829102 12.358308792114258 11.639132499694824 11.933579444885254 11.735809326171875 11.545635223388672 L11.735809326171875 11.545635223388672 C11.794084548950195 11.56624984741211 11.862682342529297 11.623525619506836 11.915509223937988 11.591426849365234 L11.915509223937988 11.591426849365234 C12.018582344055176 11.57397174835205 12.121654510498047 11.556517601013184 12.224727630615234 11.5390625 L12.224727630615234 11.5390625"></path>
<path fill="none" stroke="black" stroke-width=".3" stroke-opacity="1.0"  filling="0" d="M12.145964622497559 11.729918479919434 L12.145964622497559 11.729918479919434 C12.23153018951416 11.818069458007812 12.381325721740723 11.89040470123291 12.381654739379883 12.013254165649414 L12.381654739379883 12.013254165649414 C12.384154319763184 12.013799667358398 12.3866548538208 12.014345169067383 12.389154434204102 12.014890670776367 L12.389154434204102 12.014890670776367 C12.294672966003418 12.461380958557129 11.64061164855957 12.270355224609375 12.145964622497559 11.729918479919434 L12.145964622497559 11.729918479919434"></path></svg>