<svg xmlns="http://www.w3.org/2000/svg" viewBox="0.0 0.0 24.0 24.0" height="200px" width="200px"><path fill="none" stroke="black" stroke-width=".3" stroke-opacity="1.0"  filling="0" d="M5.755772590637207 11.61381721496582 L5.755772590637207 11.61381721496582 C5.992501735687256 11.716487884521484 6.24068021774292 11.918485641479492 6.292990684509277 12.171162605285645 L6.292990684509277 12.171162605285645 C6.070263385772705 12.171162605285645 5.847536563873291 12.171162605285645 5.624809265136719 12.171162605285645 L5.624809265136719 12.171162605285645 C5.7212042808532715 12.308149337768555 5.95341157913208 12.349456787109375 6.111818313598633 12.295008659362793 L6.111818313598633 12.295008659362793 C6.170563697814941 12.316390037536621 6.22930908203125 12.337772369384766 6.288054466247559 12.359153747558594 L6.288054466247559 12.359153747558594 C5.481475830078125 12.582586288452148 5.0189385414123535 12.179960250854492 5.755772590637207 11.61381721496582 L5.755772590637207 11.61381721496582"></path>
<path fill="none" stroke="black" stroke-width=".3" stroke-opacity="1.0"  filling="0" d="M5.814409255981445 11.810563087463379 L5.814409255981445 11.810563087463379 C5.8928093910217285 11.870162963867188 5.9712090492248535 11.929762840270996 6.049609184265137 11.989362716674805 L6.049609184265137 11.989362716674805 C5.919663429260254 11.989362716674805 5.789718151092529 11.989362716674805 5.6597723960876465 11.989362716674805 L5.6597723960876465 11.989362716674805 C5.711318016052246 11.929762840270996 5.762863636016846 11.870162963867188 5.814409255981445 11.810563087463379 L5.814409255981445 11.810563087463379"></path></svg>