<svg xmlns="http://www.w3.org/2000/svg" viewBox="0.0 0.0 24.0 24.0" height="200px" width="200px"><path fill="none" stroke="black" stroke-width=".3" stroke-opacity="1.0"  filling="0" d="M16.958702087402344 11.205055236816406 L16.958702087402344 11.205055236816406 C17.358943939208984 11.6094970703125 17.12692642211914 12.028843879699707 16.747255325317383 12.38059139251709 L16.747255325317383 12.38059139251709 C16.74994659423828 12.390100479125977 16.752635955810547 12.399608612060547 16.755327224731445 12.409117698669434 L16.755327224731445 12.409117698669434 C16.940519332885742 12.409599304199219 17.125816345214844 12.416041374206543 17.310544967651367 12.429137229919434 L17.310544967651367 12.429137229919434 C17.310544967651367 12.492918968200684 17.310544967651367 12.556700706481934 17.310544967651367 12.620482444763184 L17.310544967651367 12.620482444763184 C16.944000244140625 12.620482444763184 16.57745361328125 12.620482444763184 16.210908889770508 12.620482444763184 L16.210908889770508 12.620482444763184 C16.210908889770508 12.551846504211426 16.210908889770508 12.483209609985352 16.210908889770508 12.414573669433594 L16.210908889770508 12.414573669433594 C16.643245697021484 12.167523384094238 16.95456314086914 11.985920906066895 16.92332649230957 11.45648193359375 L16.92332649230957 11.45648193359375 C16.63913345336914 11.41748332977295 16.499643325805664 11.533608436584473 16.43773651123047 11.816973686218262 L16.43773651123047 11.816973686218262 C16.36191749572754 11.795137405395508 16.286100387573242 11.773301124572754 16.210281372070312 11.75146484375 L16.210281372070312 11.75146484375 C16.353805541992188 11.477948188781738 16.650863647460938 11.230487823486328 16.958702087402344 11.205055236816406 L16.958702087402344 11.205055236816406"></path></svg>