<svg xmlns="http://www.w3.org/2000/svg" viewBox="0.0 0.0 24.0 24.0" height="200px" width="200px"><path fill="none" stroke="black" stroke-width=".3" stroke-opacity="1.0"  filling="0" d="M25.547592163085938 11.263636589050293 L25.547592163085938 11.263636589050293 C25.6862735748291 11.263636589050293 25.824954986572266 11.263636589050293 25.96363639831543 11.263636589050293 L25.96363639831543 11.263636589050293 C25.96363639831543 11.336363792419434 25.96363639831543 11.409090995788574 25.96363639831543 11.481818199157715 L25.96363639831543 11.481818199157715 C25.92089080810547 11.484235763549805 25.878145217895508 11.486654281616211 25.835399627685547 11.4890718460083 L25.835399627685547 11.4890718460083 C25.835399627685547 11.595745086669922 25.835399627685547 11.702418327331543 25.835399627685547 11.809091567993164 L25.835399627685547 11.809091567993164 C25.878145217895508 11.809091567993164 25.92089080810547 11.809091567993164 25.96363639831543 11.809091567993164 L25.96363639831543 11.809091567993164 C25.96363639831543 11.872727394104004 25.96363639831543 11.93636417388916 25.96363639831543 12.0 L25.96363639831543 12.0 C25.917863845825195 12.002599716186523 25.872093200683594 12.005200386047363 25.82632064819336 12.007800102233887 L25.82632064819336 12.007800102233887 C25.838457107543945 12.122827529907227 25.8505916595459 12.237854957580566 25.862728118896484 12.352882385253906 L25.862728118896484 12.352882385253906 C25.896364212036133 12.344346046447754 25.930002212524414 12.335809707641602 25.963638305664062 12.32727336883545 L25.963638305664062 12.32727336883545 C25.963638305664062 12.409090995788574 25.96363639831543 12.490909576416016 25.96363639831543 12.57272720336914 L25.96363639831543 12.57272720336914 C25.843963623046875 12.57272720336914 25.72429084777832 12.57272720336914 25.604618072509766 12.57272720336914 L25.604618072509766 12.57272720336914 C25.376386642456055 12.200323104858398 25.56049919128418 11.700222969055176 25.547592163085938 11.263636589050293 L25.547592163085938 11.263636589050293"></path></svg>