<svg xmlns="http://www.w3.org/2000/svg" viewBox="0.0 0.0 24.0 24.0" height="200px" width="200px"><path fill="none" stroke="black" stroke-width=".3" stroke-opacity="1.0"  filling="0" d="M-1.0729074478149414 8.727330207824707 L-1.0729074478149414 8.727330207824707 C0.23637139797210693 8.72882080078125 3.0772228240966797 10.083600044250488 1.5811376571655273 11.89437484741211 C1.2324440479278564 12.316412925720215 0.7755303382873535 12.639370918273926 0.33390045166015625 12.96289348602295 C0.1902705430984497 13.068111419677734 -0.22297978401184082 12.950387001037598 -0.2169818878173828 13.300612449645996 C-0.2093503475189209 13.74622917175293 0.618212103843689 13.653524398803711 0.9531002044677734 13.947603225708008 C1.711435317993164 14.613527297973633 1.6620839834213257 14.739500999450684 1.7376537322998047 15.40914535522461 L1.7376537322998047 15.40914535522461 C-0.4539377689361572 15.414107322692871 -2.868699312210083 15.726639747619629 -5.030208587646484 15.438682556152344 C-5.330785751342773 15.398639678955078 -5.20925760269165 14.849961280822754 -5.209007263183594 14.546728134155273 C-5.207474231719971 12.6915283203125 -5.466278553009033 10.572610855102539 -5.171154022216797 8.743664741516113 L-5.171154022216797 8.743664741516113 C-3.8047685623168945 8.74264907836914 -2.4398207664489746 8.72878360748291 -1.0729074478149414 8.727330207824707 L-1.0729074478149414 8.727330207824707"></path></svg>