<svg xmlns="http://www.w3.org/2000/svg" viewBox="0.0 0.0 24.0 24.0" height="200px" width="200px"><path fill="none" stroke="black" stroke-width=".3" stroke-opacity="1.0"  filling="0" d="M28.404273986816406 10.034017562866211 L28.404273986816406 10.034017562866211 C28.42698860168457 10.259788513183594 28.4395809173584 10.4868803024292 28.44043731689453 10.713789939880371 L28.44043731689453 10.713789939880371 C27.982328414916992 10.713789939880371 27.524219512939453 10.713789939880371 27.066110610961914 10.713789939880371 L27.066110610961914 10.713789939880371 C26.945268630981445 11.939210891723633 27.107555389404297 13.1967191696167 27.109119415283203 14.426618576049805 L27.109119415283203 14.426618576049805 C25.505870819091797 14.418927192687988 26.31201934814453 11.960332870483398 26.277873992919922 10.724153518676758 L26.277873992919922 10.724153518676758 C25.821510314941406 10.724153518676758 25.36514663696289 10.724153518676758 24.908782958984375 10.724153518676758 L24.908782958984375 10.724153518676758 C24.908782958984375 10.50666332244873 24.908782958984375 10.289172172546387 24.908782958984375 10.07168197631836 L24.908782958984375 10.07168197631836 C26.073945999145508 10.059121131896973 27.239110946655273 10.046566009521484 28.404273986816406 10.034017562866211 L28.404273986816406 10.034017562866211"></path></svg>