<svg xmlns="http://www.w3.org/2000/svg" viewBox="0.0 0.0 24.0 24.0" height="200px" width="200px"><path fill="none" stroke="black" stroke-width=".3" stroke-opacity="1.0"  filling="0" d="M-2.631955146789551 10.07364559173584 L-2.631955146789551 10.07364559173584 C-1.5028821229934692 10.07364559173584 -0.3738088607788086 10.07364559173584 0.7552642822265625 10.07364559173584 L0.7552642822265625 10.07364559173584 C0.7552642822265625 10.28849983215332 0.7552642822265625 10.503355026245117 0.7552642822265625 10.718209266662598 L0.7552642822265625 10.718209266662598 C0.057721078395843506 10.718209266662598 -1.0109308958053589 10.56930923461914 -1.7425899505615234 10.71845531463623 C-2.1266186237335205 10.796737670898438 -2.128085136413574 11.846538543701172 -1.7411718368530273 11.917881965637207 C-1.0837185382843018 12.03911018371582 -0.19774264097213745 11.943221092224121 0.46292781829833984 11.903345108032227 L0.46292781829833984 11.903345108032227 C0.5896196365356445 12.094849586486816 0.4871094226837158 12.362146377563477 0.4874448776245117 12.591764450073242 L0.4874448776245117 12.591764450073242 C-0.8788553476333618 12.731535911560059 -1.8813308477401733 11.949870109558105 -1.8818187713623047 13.734899520874023 L-1.8818187713623047 13.734899520874023 C-0.9209548830986023 13.831047058105469 0.8177118897438049 13.10745620727539 0.8179092407226562 14.418436050415039 L0.8179092407226562 14.418436050415039 C-0.3320455551147461 14.418436050415039 -1.4820003509521484 14.418436050415039 -2.631955146789551 14.418436050415039 L-2.631955146789551 14.418436050415039 C-2.631955146789551 12.970173835754395 -2.631955146789551 11.5219087600708 -2.631955146789551 10.07364559173584 L-2.631955146789551 10.07364559173584"></path></svg>