<svg xmlns="http://www.w3.org/2000/svg" viewBox="0.0 0.0 24.0 24.0" height="200px" width="200px"><path fill="none" stroke="black" stroke-width=".3" stroke-opacity="1.0"  filling="0" d="M7.2769365310668945 11.431500434875488 L7.2769365310668945 11.431500434875488 C7.423691272735596 11.5327730178833 7.570445537567139 11.63404655456543 7.71720027923584 11.735319137573242 L7.71720027923584 11.735319137573242 C7.660818576812744 11.773782730102539 7.60443639755249 11.812246322631836 7.5480546951293945 11.850709915161133 L7.5480546951293945 11.850709915161133 C6.008738040924072 10.50813102722168 7.768590927124023 13.630476951599121 7.46429967880249 12.269018173217773 L7.46429967880249 12.269018173217773 C7.378818035125732 12.269018173217773 7.293335914611816 12.269018173217773 7.207854270935059 12.269018173217773 L7.207854270935059 12.269018173217773 C7.207854270935059 12.199727058410645 7.207854270935059 12.130436897277832 7.207854270935059 12.061145782470703 L7.207854270935059 12.061145782470703 C7.377408981323242 12.061145782470703 7.546963214874268 12.061145782470703 7.716517925262451 12.061145782470703 L7.716517925262451 12.061145782470703 C7.716517925262451 12.277772903442383 7.716517925262451 12.494400024414062 7.716517925262451 12.711027145385742 L7.716517925262451 12.711027145385742 C7.658426761627197 12.69761848449707 7.600336074829102 12.684208869934082 7.542244911193848 12.67080020904541 L7.542244911193848 12.67080020904541 C6.426124572753906 12.939847946166992 6.37371826171875 11.862940788269043 7.2769365310668945 11.431500434875488 L7.2769365310668945 11.431500434875488"></path></svg>