<svg xmlns="http://www.w3.org/2000/svg" viewBox="0.0 0.0 24.0 24.0" height="200px" width="200px"><path fill="none" stroke="black" stroke-width=".3" stroke-opacity="1.0"  filling="0" d="M4.359300136566162 11.344854354858398 L4.359300136566162 11.344854354858398 C4.554078102111816 11.381032943725586 4.747090816497803 11.470643997192383 4.894800186157227 11.60266399383545 L4.894800186157227 11.60266399383545 C4.88986349105835 11.616227149963379 4.884927272796631 11.629791259765625 4.879990577697754 11.643354415893555 L4.879990577697754 11.643354415893555 C4.804454326629639 11.674699783325195 4.728918075561523 11.706045150756836 4.653381824493408 11.737390518188477 L4.653381824493408 11.737390518188477 C3.4462900161743164 10.929039001464844 4.4768290519714355 13.230637550354004 4.697508811950684 12.190936088562012 L4.697508811950684 12.190936088562012 C4.590795516967773 12.191150665283203 4.48403787612915 12.19432544708252 4.377518177032471 12.200754165649414 L4.377518177032471 12.200754165649414 C4.377518177032471 12.133817672729492 4.377518177032471 12.06688117980957 4.377518177032471 11.999944686889648 L4.377518177032471 11.999944686889648 C4.398108005523682 11.999944686889648 4.898489952087402 11.999944686889648 4.909063339233398 11.999944686889648 L4.909063339233398 11.999944686889648 C4.909063339233398 12.216026306152344 4.909063339233398 12.432108879089355 4.909063339233398 12.64819049835205 L4.909063339233398 12.64819049835205 C4.869009017944336 12.64819049835205 4.828954696655273 12.64819049835205 4.788900375366211 12.64819049835205 L4.788900375366211 12.64819049835205 C4.7653093338012695 12.611154556274414 4.741718292236328 12.574117660522461 4.718127250671387 12.537081718444824 L4.718127250671387 12.537081718444824 C3.6601786613464355 12.95602798461914 3.6772031784057617 11.844439506530762 4.359300136566162 11.344854354858398 L4.359300136566162 11.344854354858398"></path></svg>