<svg xmlns="http://www.w3.org/2000/svg" viewBox="0.0 0.0 24.0 24.0" height="200px" width="200px"><path fill="none" stroke="black" stroke-width=".3" stroke-opacity="1.0"  filling="0" d="M6.790118217468262 12.800453186035156 L6.790118217468262 12.800453186035156 C6.789422035217285 13.026302337646484 6.8483967781066895 13.329275131225586 6.6695451736450195 13.467190742492676 L6.6695451736450195 13.467190742492676 C6.603099822998047 13.352118492126465 6.536654472351074 13.237045288085938 6.470209121704102 13.121973037719727 L6.470209121704102 13.121973037719727 C6.463191032409668 13.121545791625977 6.456172466278076 13.121118545532227 6.449154376983643 13.120691299438477 L6.449154376983643 13.120691299438477 C6.449154376983643 13.242155075073242 6.449154376983643 13.363617897033691 6.449154376983643 13.485081672668457 L6.449154376983643 13.485081672668457 C6.40081787109375 13.494599342346191 6.352481365203857 13.504117965698242 6.304144859313965 13.513635635375977 L6.304144859313965 13.513635635375977 C6.304144859313965 13.293963432312012 6.304144859313965 13.07429027557373 6.304144859313965 12.854618072509766 L6.304144859313965 12.854618072509766 C6.351926803588867 12.846808433532715 6.3997087478637695 12.83899974822998 6.447490692138672 12.83119010925293 L6.447490692138672 12.83119010925293 C6.506009101867676 12.926390647888184 6.5645270347595215 13.021590232849121 6.623045444488525 13.116790771484375 L6.623045444488525 13.116790771484375 C6.632263660430908 13.116145133972168 6.641481876373291 13.115498542785645 6.650700092315674 13.114852905273438 L6.650700092315674 13.114852905273438 C6.653178691864014 13.000238418579102 6.7012763023376465 12.872908592224121 6.790118217468262 12.800453186035156 L6.790118217468262 12.800453186035156"></path></svg>