<svg xmlns="http://www.w3.org/2000/svg" viewBox="0.0 0.0 24.0 24.0" height="200px" width="200px"><path fill="none" stroke="black" stroke-width=".3" stroke-opacity="1.0"  filling="0" d="M4.309090614318848 9.899999618530273 L4.309090614318848 9.899999618530273 C6.502954959869385 9.899998664855957 8.696818351745605 9.89998722076416 10.890682220458984 9.900050163269043 C13.084546089172363 9.900113105773926 15.278409957885742 9.900249481201172 17.472274780273438 9.900544166564941 C19.246753692626953 9.900782585144043 21.504505157470703 9.566280364990234 23.23636245727539 9.92727279663086 L23.23636245727539 9.92727279663086 C21.213376998901367 9.92728042602539 19.166078567504883 9.873367309570312 17.11128807067871 9.82061767578125 C15.056499481201172 9.767868041992188 12.994220733642578 9.716279983520508 10.941276550292969 9.720940589904785 C8.88833236694336 9.725600242614746 6.844722747802734 9.786507606506348 4.827271938323975 9.958745956420898 L4.827271938323975 9.958745956420898 C4.827271938323975 11.357850074768066 4.859283924102783 12.755717277526855 4.854545593261719 14.154545783996582 L4.854545593261719 14.154545783996582 C4.690908908843994 14.154545783996582 4.527272701263428 14.154545783996582 4.363636016845703 14.154545783996582 L4.363636016845703 14.154545783996582 C4.266650199890137 12.7401123046875 4.369629383087158 11.315114974975586 4.309090614318848 9.899999618530273 L4.309090614318848 9.899999618530273"></path></svg>