<svg xmlns="http://www.w3.org/2000/svg" viewBox="0.0 0.0 24.0 24.0" height="200px" width="200px"><path fill="none" stroke="black" stroke-width=".3" stroke-opacity="1.0"  filling="0" d="M14.972018241882324 10.882827758789062 L14.972018241882324 10.882827758789062 C15.145830154418945 11.068365097045898 15.362025260925293 11.339062690734863 15.2811279296875 11.580081939697266 L15.2811279296875 11.580081939697266 C15.3663911819458 11.835987091064453 15.409428596496582 12.081286430358887 15.46619987487793 12.343363761901855 L15.46619987487793 12.343363761901855 C14.947936058044434 12.384943008422852 15.186975479125977 12.125638961791992 14.990835189819336 11.740582466125488 L14.990835189819336 11.740582466125488 C14.9088716506958 11.752418518066406 14.826909065246582 11.76425552368164 14.744945526123047 11.776091575622559 L14.744945526123047 11.776091575622559 C14.7479248046875 12.260936737060547 14.88658618927002 12.413875579833984 14.454572677612305 12.45897388458252 L14.454572677612305 12.45897388458252 C14.454572677612305 11.711798667907715 14.13198471069336 10.993367195129395 14.972018241882324 10.882827758789062 L14.972018241882324 10.882827758789062"></path>
<path fill="none" stroke="black" stroke-width=".3" stroke-opacity="1.0"  filling="0" d="M15.01388168334961 11.154845237731934 L15.01388168334961 11.154845237731934 C14.953941345214844 11.297306060791016 14.903182029724121 11.499789237976074 14.753562927246094 11.538544654846191 L14.753562927246094 11.538544654846191 C14.747684478759766 11.384099006652832 14.859330177307129 11.156158447265625 15.01388168334961 11.154845237731934 L15.01388168334961 11.154845237731934"></path></svg>