<svg xmlns="http://www.w3.org/2000/svg" viewBox="0.0 0.0 24.0 24.0" height="200px" width="200px"><path fill="none" stroke="black" stroke-width=".3" stroke-opacity="1.0"  filling="0" d="M13.461246490478516 12.059072494506836 L13.461246490478516 12.059072494506836 C13.607928276062012 12.059072494506836 13.754609107971191 12.059072494506836 13.901290893554688 12.059072494506836 L13.901290893554688 12.059072494506836 C13.910900115966797 12.280855178833008 13.79559326171875 12.251177787780762 13.595373153686523 12.248509407043457 L13.595373153686523 12.248509407043457 C13.667067527770996 12.335190773010254 13.779829978942871 12.409012794494629 13.892318725585938 12.408844947814941 L13.892318725585938 12.408844947814941 C13.878146171569824 12.46346378326416 13.863972663879395 12.518081665039062 13.849800109863281 12.572700500488281 L13.849800109863281 12.572700500488281 C13.739851951599121 12.572807312011719 13.6279935836792 12.648527145385742 13.564554214477539 12.738327026367188 L13.564554214477539 12.738327026367188 C13.651000022888184 12.738327026367188 13.737444877624512 12.738327026367188 13.823890686035156 12.738327026367188 L13.823890686035156 12.738327026367188 C13.818109512329102 12.803117752075195 13.81232738494873 12.86790943145752 13.806546211242676 12.932700157165527 L13.806546211242676 12.932700157165527 C13.655919075012207 12.932700157165527 13.505290985107422 12.932700157165527 13.354663848876953 12.932700157165527 L13.354663848876953 12.932700157165527 C13.390191078186035 12.641490936279297 13.425719261169434 12.350281715393066 13.461246490478516 12.059072494506836 L13.461246490478516 12.059072494506836"></path></svg>