<svg xmlns="http://www.w3.org/2000/svg" viewBox="0.0 0.0 24.0 24.0" height="200px" width="200px"><path fill="none" stroke="black" stroke-width=".3" stroke-opacity="1.0"  filling="0" d="M15.054518699645996 12.354545593261719 L15.054518699645996 12.354545593261719 C15.054518699645996 12.43636417388916 15.054518699645996 12.518181800842285 15.054518699645996 12.600000381469727 L15.054518699645996 12.600000381469727 C15.027246475219727 12.6021089553833 14.99997329711914 12.604218482971191 14.972701072692871 12.606327056884766 L14.972701072692871 12.606327056884766 C14.972701072692871 12.813308715820312 14.972701072692871 13.02029037475586 14.972701072692871 13.227272033691406 L14.972701072692871 13.227272033691406 C14.881800651550293 13.227272033691406 14.790900230407715 13.227272033691406 14.699999809265137 13.227272033691406 L14.699999809265137 13.227272033691406 C14.699999809265137 13.029008865356445 14.699999809265137 12.830745697021484 14.699999809265137 12.632482528686523 L14.699999809265137 12.632482528686523 C14.441417694091797 12.687313079833984 14.422256469726562 12.67587947845459 14.39675521850586 12.417709350585938 L14.39675521850586 12.417709350585938 C14.616009712219238 12.396655082702637 14.835264205932617 12.37559986114502 15.054518699645996 12.354545593261719 L15.054518699645996 12.354545593261719"></path></svg>