<svg xmlns="http://www.w3.org/2000/svg" viewBox="0.0 0.0 24.0 24.0" height="200px" width="200px"><path fill="none" stroke="black" stroke-width=".3" stroke-opacity="1.0"  filling="0" d="M7.716163635253906 10.527300834655762 L7.716163635253906 10.527300834655762 C9.143707275390625 10.529913902282715 8.907761573791504 10.831363677978516 8.892599105834961 11.973028182983398 L8.892599105834961 11.973028182983398 C9.273286819458008 12.328715324401855 9.088839530944824 13.084341049194336 9.2805814743042 13.579090118408203 L9.2805814743042 13.579090118408203 C9.076991081237793 13.579090118408203 8.87339973449707 13.579090118408203 8.669809341430664 13.579090118408203 L8.669809341430664 13.579090118408203 C8.515094757080078 13.070917129516602 8.785005569458008 12.245777130126953 8.086063385009766 12.245454788208008 L8.086063385009766 12.245454788208008 C8.086063385009766 12.683564186096191 8.086063385009766 13.121672630310059 8.086063385009766 13.559782028198242 L8.086063385009766 13.559782028198242 C7.908963203430176 13.567028045654297 7.731863498687744 13.574273109436035 7.554763317108154 13.58151912689209 L7.554763317108154 13.58151912689209 C7.554763317108154 13.012218475341797 7.292037010192871 10.935243606567383 7.716163635253906 10.527300834655762 L7.716163635253906 10.527300834655762"></path>
<path fill="none" stroke="black" stroke-width=".3" stroke-opacity="1.0"  filling="0" d="M8.133763313293457 11.024072647094727 L8.133763313293457 11.024072647094727 C8.74135684967041 11.081342697143555 8.663084983825684 11.757139205932617 8.072945594787598 11.754654884338379 L8.072945594787598 11.754654884338379 C8.073969841003418 11.510287284851074 7.997193813323975 11.22671890258789 8.133763313293457 11.024072647094727 L8.133763313293457 11.024072647094727"></path></svg>