<svg xmlns="http://www.w3.org/2000/svg" viewBox="0.0 0.0 24.0 24.0" height="200px" width="200px"><path fill="none" stroke="black" stroke-width=".3" stroke-opacity="1.0"  filling="0" d="M13.101926803588867 12.061717987060547 L13.101926803588867 12.061717987060547 C13.144618034362793 12.061717987060547 13.187309265136719 12.061717987060547 13.230000495910645 12.061717987060547 L13.230000495910645 12.061717987060547 C13.20981216430664 12.326020240783691 13.240921020507812 12.726604461669922 13.081473350524902 12.953400611877441 L13.081473350524902 12.953400611877441 C12.95694351196289 12.81277847290039 12.906953811645508 12.620110511779785 12.835691452026367 12.446317672729492 L12.835691452026367 12.446317672729492 C12.818137168884277 12.60348129272461 12.800582885742188 12.760644912719727 12.783028602600098 12.917808532714844 L12.783028602600098 12.917808532714844 C12.736519813537598 12.927289962768555 12.690010070800781 12.936772346496582 12.643501281738281 12.946253776550293 L12.643501281738281 12.946253776550293 C12.668848991394043 12.65240478515625 12.693114280700684 12.358460426330566 12.716455459594727 12.064445495605469 L12.716455459594727 12.064445495605469 C12.773027420043945 12.064445495605469 12.82960033416748 12.064445495605469 12.8861722946167 12.064445495605469 L12.8861722946167 12.064445495605469 C12.931190490722656 12.188809394836426 12.976208686828613 12.313172340393066 13.02122688293457 12.437536239624023 L13.02122688293457 12.437536239624023 C13.03186321258545 12.43542766571045 13.042499542236328 12.433318138122559 13.053135871887207 12.431209564208984 L13.053135871887207 12.431209564208984 C13.067632675170898 12.307825088500977 13.08400821685791 12.184652328491211 13.101926803588867 12.061717987060547 L13.101926803588867 12.061717987060547"></path></svg>