<svg xmlns="http://www.w3.org/2000/svg" viewBox="0.0 0.0 24.0 24.0" height="200px" width="200px"><path fill="none" stroke="black" stroke-width=".3" stroke-opacity="1.0"  filling="0" d="M11.486836433410645 12.88636302947998 L11.486836433410645 12.88636302947998 C11.480508804321289 12.970317840576172 11.474181175231934 13.054271697998047 11.467853546142578 13.138226509094238 L11.467853546142578 13.138226509094238 C11.37250804901123 13.153608322143555 11.277162551879883 13.168989181518555 11.181817054748535 13.184370994567871 L11.181817054748535 13.184370994567871 C11.181817054748535 13.244134902954102 11.181817054748535 13.303898811340332 11.181817054748535 13.363662719726562 L11.181817054748535 13.363662719726562 C11.09090805053711 13.363654136657715 11.0 13.363645553588867 10.909090995788574 13.36363697052002 L10.909090995788574 13.36363697052002 C10.90666389465332 13.313718795776367 10.904236793518066 13.263800621032715 10.901809692382812 13.213882446289062 L10.901809692382812 13.213882446289062 C10.809745788574219 13.225627899169922 10.717681884765625 13.237372398376465 10.625617980957031 13.249117851257324 L10.625617980957031 13.249117851257324 C10.625617980957031 13.164108276367188 10.625617980957031 13.079099655151367 10.625617980957031 12.99409008026123 L10.625617980957031 12.99409008026123 C10.912691116333008 12.958181381225586 11.199763298034668 12.922271728515625 11.486836433410645 12.88636302947998 L11.486836433410645 12.88636302947998"></path></svg>