<svg xmlns="http://www.w3.org/2000/svg" viewBox="0.0 0.0 24.0 24.0" height="200px" width="200px"><path fill="none" stroke="black" stroke-width=".3" stroke-opacity="1.0"  filling="0" d="M14.24997329711914 10.539081573486328 L14.24997329711914 10.539081573486328 C14.76111888885498 10.539081573486328 15.27226448059082 10.539081573486328 15.78341007232666 10.539081573486328 L15.78341007232666 10.539081573486328 C15.78341007232666 10.70616340637207 15.78341007232666 10.873245239257812 15.78341007232666 11.040327072143555 L15.78341007232666 11.040327072143555 C15.462182998657227 11.040327072143555 15.140955924987793 11.040327072143555 14.81972885131836 11.040327072143555 L14.81972885131836 11.040327072143555 C14.81972885131836 11.273545265197754 14.81972885131836 11.506762504577637 14.81972885131836 11.739980697631836 L14.81972885131836 11.739980697631836 C15.110525131225586 11.804876327514648 15.527976036071777 11.754647254943848 15.804900169372559 11.754518508911133 L15.804900169372559 11.754518508911133 C15.804900169372559 11.917118072509766 15.804900169372559 12.079717636108398 15.804900169372559 12.242317199707031 L15.804900169372559 12.242317199707031 C15.473873138427734 12.242317199707031 15.142845153808594 12.242317199707031 14.81181812286377 12.242317199707031 L14.81181812286377 12.242317199707031 C14.815009117126465 12.49329948425293 14.81820011138916 12.744280815124512 14.821391105651855 12.99526309967041 L14.821391105651855 12.99526309967041 C15.149736404418945 12.99526309967041 15.478082656860352 12.99526309967041 15.806427955627441 12.99526309967041 L15.806427955627441 12.99526309967041 C15.806427955627441 13.168045043945312 15.806427955627441 13.340826988220215 15.806427955627441 13.513608932495117 L15.806427955627441 13.513608932495117 C15.287610054016113 13.515518188476562 14.768791198730469 13.517427444458008 14.24997329711914 13.519336700439453 L14.24997329711914 13.519336700439453 C14.24997329711914 12.525918006896973 14.24997329711914 11.532500267028809 14.24997329711914 10.539081573486328 L14.24997329711914 10.539081573486328"></path></svg>