<svg xmlns="http://www.w3.org/2000/svg" viewBox="0.0 0.0 24.0 24.0" height="200px" width="200px"><path fill="none" stroke="black" stroke-width=".3" stroke-opacity="1.0"  filling="0" d="M22.1727294921875 8.07272720336914 L22.1727294921875 8.07272720336914 C22.645456314086914 8.07272720336914 23.118181228637695 8.07272720336914 23.59090805053711 8.07272720336914 L23.59090805053711 8.07272720336914 C23.649808883666992 8.260686874389648 23.710744857788086 8.448126792907715 23.762619018554688 8.638145446777344 L23.762619018554688 8.638145446777344 C23.62651824951172 8.638145446777344 23.490419387817383 8.638145446777344 23.354318618774414 8.638145446777344 L23.354318618774414 8.638145446777344 C23.310781478881836 8.496981620788574 23.26724624633789 8.355817794799805 23.223709106445312 8.214653968811035 L23.223709106445312 8.214653968811035 C22.9952449798584 8.214653968811035 22.766782760620117 8.214653968811035 22.538318634033203 8.214653968811035 L22.538318634033203 8.214653968811035 C22.495010375976562 8.355890274047852 22.45170021057129 8.497126579284668 22.40839195251465 8.638362884521484 L22.40839195251465 8.638362884521484 C22.275793075561523 8.638362884521484 22.143192291259766 8.638362884521484 22.01059341430664 8.638362884521484 L22.01059341430664 8.638362884521484 C22.064638137817383 8.449817657470703 22.118684768676758 8.261272430419922 22.1727294921875 8.07272720336914 L22.1727294921875 8.07272720336914"></path></svg>