<svg xmlns="http://www.w3.org/2000/svg" viewBox="0.0 0.0 24.0 24.0" height="200px" width="200px"><path fill="none" stroke="black" stroke-width=".3" stroke-opacity="1.0"  filling="0" d="M-3.4772729873657227 9.899999618530273 L-3.4772729873657227 9.899999618530273 C-1.3443183898925781 9.899999618530273 0.7886361479759216 9.899999618530273 2.921590566635132 9.899999618530273 C5.0545454025268555 9.899999618530273 7.1875 9.899999618530273 9.320454597473145 9.899999618530273 C11.453409194946289 9.899999618530273 13.586362838745117 9.899999618530273 15.719317436218262 9.899999618530273 C17.852272033691406 9.899999618530273 19.985225677490234 9.899999618530273 22.118181228637695 9.899999618530273 L22.118181228637695 9.899999618530273 C22.118600845336914 11.318414688110352 22.14102554321289 12.736124038696289 22.14545440673828 14.15454387664795 L22.14545440673828 14.15454387664795 C21.990909576416016 14.154544830322266 21.836362838745117 14.154544830322266 21.68181800842285 14.154545783996582 L21.68181800842285 14.154545783996582 C21.60022735595703 12.75944995880127 21.633703231811523 11.352140426635742 21.590017318725586 9.954545021057129 L21.590017318725586 9.954545021057129 C19.490053176879883 9.954545021057129 17.390567779541016 9.952789306640625 15.291349411010742 9.950167655944824 C13.192131996154785 9.94754695892334 11.093184471130371 9.944060325622559 8.994295120239258 9.940600395202637 C6.895406246185303 9.937139511108398 4.796576976776123 9.933704376220703 2.6975975036621094 9.93118667602539 C0.5986180305480957 9.928668022155762 -1.5005114078521729 9.927066802978516 -3.6000003814697266 9.92727279663086 L-3.6000003814697266 9.92727279663086 C-3.5804874897003174 9.890185356140137 -3.5191774368286133 9.900461196899414 -3.4772729873657227 9.899999618530273 L-3.4772729873657227 9.899999618530273"></path></svg>