<svg xmlns="http://www.w3.org/2000/svg" viewBox="0.0 0.0 24.0 24.0" height="200px" width="200px"><path fill="none" stroke="black" stroke-width=".3" stroke-opacity="1.0"  filling="0" d="M10.135991096496582 10.55591106414795 L10.135991096496582 10.55591106414795 C10.498040199279785 10.556205749511719 10.86061954498291 10.557951927185059 11.221799850463867 10.58301830291748 L11.221799850463867 10.58301830291748 C11.221799850463867 10.73686408996582 11.221799850463867 10.890708923339844 11.221799850463867 11.044554710388184 L11.221799850463867 11.044554710388184 C10.91110897064209 11.044554710388184 10.600418090820312 11.044554710388184 10.289727210998535 11.044554710388184 L10.289727210998535 11.044554710388184 C10.289727210998535 11.281209945678711 10.289727210998535 11.517864227294922 10.289727210998535 11.75451946258545 L10.289727210998535 11.75451946258545 C10.84155559539795 11.75451946258545 11.208876609802246 11.593984603881836 11.209035873413086 12.242647171020508 L11.209035873413086 12.242647171020508 C10.90338134765625 12.242647171020508 10.597726821899414 12.242647171020508 10.292072296142578 12.242647171020508 L10.292072296142578 12.242647171020508 C10.292072296142578 12.515783309936523 10.292072296142578 12.788919448852539 10.292072296142578 13.062055587768555 L10.292072296142578 13.062055587768555 C10.595490455627441 13.062055587768555 10.898908615112305 13.062055587768555 11.202326774597168 13.062055587768555 L11.202326774597168 13.062055587768555 C11.202326774597168 13.22866439819336 11.202326774597168 13.39527416229248 11.202326774597168 13.561882972717285 L11.202326774597168 13.561882972717285 C10.710090637207031 13.556619644165039 10.217854499816895 13.551355361938477 9.725618362426758 13.54609203338623 L9.725618362426758 13.54609203338623 C9.72500991821289 12.767447471618652 9.350563049316406 10.723697662353516 10.135991096496582 10.55591106414795 L10.135991096496582 10.55591106414795"></path></svg>