<svg xmlns="http://www.w3.org/2000/svg" viewBox="0.0 0.0 24.0 24.0" height="200px" width="200px"><path fill="none" stroke="black" stroke-width=".3" stroke-opacity="1.0"  filling="0" d="M12.915271759033203 10.527844429016113 L12.915271759033203 10.527844429016113 C13.594850540161133 10.803378105163574 13.662245750427246 11.295548439025879 13.30739974975586 11.951754570007324 L13.30739974975586 11.951754570007324 C14.131619453430176 13.062925338745117 12.958490371704102 13.707527160644531 11.897345542907715 13.520482063293457 C11.767683029174805 13.497627258300781 11.836814880371094 10.596600532531738 11.83660888671875 10.538426399230957 L11.83660888671875 10.538426399230957 C12.192267417907715 10.48552131652832 12.555700302124023 10.527863502502441 12.915271759033203 10.527844429016113 L12.915271759033203 10.527844429016113"></path>
<path fill="none" stroke="black" stroke-width=".3" stroke-opacity="1.0"  filling="0" d="M12.719972610473633 11.045591354370117 L12.719972610473633 11.045591354370117 C13.161219596862793 11.491765975952148 12.992410659790039 11.77892780303955 12.398808479309082 11.729018211364746 L12.398808479309082 11.729018211364746 C12.398808479309082 11.509635925292969 12.398808479309082 11.290254592895508 12.398808479309082 11.07087230682373 L12.398808479309082 11.07087230682373 C12.501263618469238 11.038705825805664 12.612588882446289 11.046212196350098 12.719972610473633 11.045591354370117 L12.719972610473633 11.045591354370117"></path>
<path fill="none" stroke="black" stroke-width=".3" stroke-opacity="1.0"  filling="0" d="M12.460908889770508 12.233427047729492 L12.460908889770508 12.233427047729492 C13.151884078979492 12.319171905517578 13.133533477783203 12.981844902038574 12.42870044708252 12.981844902038574 L12.42870044708252 12.981844902038574 C12.439436912536621 12.732372283935547 12.450172424316406 12.48289966583252 12.460908889770508 12.233427047729492 L12.460908889770508 12.233427047729492"></path></svg>