<svg xmlns="http://www.w3.org/2000/svg" viewBox="0.0 0.0 24.0 24.0" height="200px" width="200px"><path fill="none" stroke="black" stroke-width=".3" stroke-opacity="1.0"  filling="0" d="M10.056273460388184 11.159127235412598 L10.056273460388184 11.159127235412598 C10.252081871032715 11.159127235412598 10.447891235351562 11.159127235412598 10.643699645996094 11.159127235412598 L10.643699645996094 11.159127235412598 C10.84811782836914 11.7603178024292 11.052535057067871 12.361509323120117 11.256953239440918 12.962699890136719 L11.256953239440918 12.962699890136719 C11.12043571472168 12.962699890136719 10.983917236328125 12.962699890136719 10.847399711608887 12.962699890136719 L10.847399711608887 12.962699890136719 C10.746482849121094 12.668924331665039 10.338943481445312 12.518056869506836 10.02831745147705 12.518291473388672 L10.02831745147705 12.518291473388672 C9.98208999633789 12.661782264709473 9.93586254119873 12.805273056030273 9.88963508605957 12.948763847351074 L9.88963508605957 12.948763847351074 C9.754680633544922 12.948763847351074 9.619726181030273 12.948763847351074 9.484771728515625 12.948763847351074 L9.484771728515625 12.948763847351074 C9.675271987915039 12.352218627929688 9.86577320098877 11.755672454833984 10.056273460388184 11.159127235412598 L10.056273460388184 11.159127235412598"></path>
<path fill="none" stroke="black" stroke-width=".3" stroke-opacity="1.0"  filling="0" d="M10.369635581970215 11.485063552856445 L10.369635581970215 11.485063552856445 C10.444526672363281 11.717554092407227 10.519417762756348 11.950045585632324 10.594308853149414 12.182536125183105 L10.594308853149414 12.182536125183105 C10.444408416748047 12.182536125183105 10.294508934020996 12.182536125183105 10.144608497619629 12.182536125183105 L10.144608497619629 12.182536125183105 C10.21961784362793 11.950045585632324 10.294626235961914 11.717554092407227 10.369635581970215 11.485063552856445 L10.369635581970215 11.485063552856445"></path></svg>