<svg xmlns="http://www.w3.org/2000/svg" viewBox="0.0 0.0 24.0 24.0" height="200px" width="200px"><path fill="none" stroke="black" stroke-width=".3" stroke-opacity="1.0"  filling="0" d="M11.39266300201416 11.532791137695312 L11.39266300201416 11.532791137695312 C11.82073974609375 11.617998123168945 11.780396461486816 11.966176986694336 11.781736373901367 12.327545166015625 L11.781736373901367 12.327545166015625 C11.593018531799316 12.327545166015625 11.40429973602295 12.327545166015625 11.215581893920898 12.327545166015625 L11.215581893920898 12.327545166015625 C11.20001220703125 12.529454231262207 11.277134895324707 12.765341758728027 11.432754516601562 12.894927024841309 L11.432754516601562 12.894927024841309 C11.459636688232422 12.7727632522583 11.486517906188965 12.65060043334961 11.513400077819824 12.528436660766602 L11.513400077819824 12.528436660766602 C11.604036331176758 12.528436660766602 11.694672584533691 12.528436660766602 11.785308837890625 12.528436660766602 L11.785308837890625 12.528436660766602 C11.710031509399414 13.762688636779785 10.032190322875977 12.604796409606934 11.39266300201416 11.532791137695312 L11.39266300201416 11.532791137695312"></path>
<path fill="none" stroke="black" stroke-width=".3" stroke-opacity="1.0"  filling="0" d="M11.36029052734375 11.754600524902344 L11.36029052734375 11.754600524902344 C11.445821762084961 11.84803295135498 11.50789737701416 11.977840423583984 11.50851821899414 12.104509353637695 L11.50851821899414 12.104509353637695 C11.399636268615723 12.104509353637695 11.290755271911621 12.104509353637695 11.181873321533203 12.104509353637695 L11.181873321533203 12.104509353637695 C11.182669639587402 11.973587989807129 11.263569831848145 11.842839241027832 11.36029052734375 11.754600524902344 L11.36029052734375 11.754600524902344"></path></svg>