<svg xmlns="http://www.w3.org/2000/svg" viewBox="0.0 0.0 24.0 24.0" height="200px" width="200px"><path fill="none" stroke="black" stroke-width=".3" stroke-opacity="1.0"  filling="0" d="M14.867536544799805 10.500053405761719 L14.867536544799805 10.500053405761719 C15.300373077392578 10.507762908935547 15.733209609985352 10.515471458435059 16.166046142578125 10.523180961608887 L16.166046142578125 10.523180961608887 C16.166046142578125 10.686772346496582 16.166046142578125 10.850362777709961 16.166046142578125 11.013954162597656 L16.166046142578125 11.013954162597656 C15.917109489440918 11.013954162597656 15.668173789978027 11.013954162597656 15.41923713684082 11.013954162597656 L15.41923713684082 11.013954162597656 C15.41923713684082 11.260117530822754 15.41923713684082 11.506280899047852 15.41923713684082 11.75244426727295 L15.41923713684082 11.75244426727295 C15.675037384033203 11.75244426727295 15.930837631225586 11.75244426727295 16.18663787841797 11.75244426727295 L16.18663787841797 11.75244426727295 C16.18663787841797 11.916872024536133 16.18663787841797 12.081298828125 16.18663787841797 12.245726585388184 L16.18663787841797 12.245726585388184 C15.133844375610352 12.246170997619629 15.43510913848877 12.520718574523926 15.425153732299805 13.504663467407227 L15.425153732299805 13.504663467407227 C15.23928165435791 13.504663467407227 15.0534086227417 13.504663467407227 14.867536544799805 13.504663467407227 L14.867536544799805 13.504663467407227 C14.867536544799805 13.503973007202148 14.867536544799805 10.502036094665527 14.867536544799805 10.500053405761719 L14.867536544799805 10.500053405761719"></path></svg>