<svg xmlns="http://www.w3.org/2000/svg" viewBox="0.0 0.0 24.0 24.0" height="200px" width="200px"><path fill="none" stroke="black" stroke-width=".3" stroke-opacity="1.0"  filling="0" d="M13.982751846313477 10.132553100585938 L13.982751846313477 10.132553100585938 C13.994543075561523 10.14006233215332 14.006335258483887 10.14757251739502 14.018126487731934 10.155081748962402 L14.018126487731934 10.155081748962402 C14.018268585205078 10.863259315490723 13.896382331848145 10.979135513305664 14.555999755859375 10.973045349121094 L14.555999755859375 10.973045349121094 C14.569981575012207 11.157572746276855 14.583962440490723 11.342100143432617 14.597944259643555 11.526627540588379 L14.597944259643555 11.526627540588379 C13.57667064666748 11.763289451599121 13.861162185668945 13.54019832611084 14.575743675231934 13.049971580505371 L14.575743675231934 13.049971580505371 C14.587635040283203 13.25220775604248 14.599525451660156 13.454444885253906 14.611416816711426 13.656681060791016 L14.611416816711426 13.656681060791016 C13.174697875976562 13.961233139038086 13.445453643798828 12.685872077941895 13.445453643798828 11.562653541564941 L13.445453643798828 11.562653541564941 C13.375799179077148 11.572535514831543 13.306144714355469 11.582417488098145 13.236490249633789 11.592299461364746 L13.236490249633789 11.592299461364746 C13.289032936096191 11.006017684936523 13.5354642868042 10.534887313842773 13.982751846313477 10.132553100585938 L13.982751846313477 10.132553100585938"></path></svg>