<svg xmlns="http://www.w3.org/2000/svg" viewBox="0.0 0.0 24.0 24.0" height="200px" width="200px"><path fill="none" stroke="black" stroke-width=".3" stroke-opacity="1.0"  filling="0" d="M8.428091049194336 11.0699462890625 L8.428091049194336 11.0699462890625 C8.933531761169434 11.54037094116211 9.267721176147461 11.814495086669922 9.105490684509277 12.618136405944824 L9.105490684509277 12.618136405944824 C8.725717544555664 12.632481575012207 8.345945358276367 12.646827697753906 7.966172218322754 12.661172866821289 L7.966172218322754 12.661172866821289 C8.039430618286133 12.946444511413574 8.2175931930542 13.220317840576172 8.451136589050293 13.399772644042969 L8.451136589050293 13.399772644042969 C8.691323280334473 13.303266525268555 8.912463188171387 13.155354499816895 9.108381271362305 12.98618221282959 L9.108381271362305 12.98618221282959 C9.101179122924805 14.950263977050781 6.250275135040283 13.223861694335938 7.724727153778076 11.309183120727539 C7.875823974609375 11.1129732131958 8.193635940551758 11.149691581726074 8.428091049194336 11.0699462890625 L8.428091049194336 11.0699462890625"></path>
<path fill="none" stroke="black" stroke-width=".3" stroke-opacity="1.0"  filling="0" d="M8.452692031860352 11.672290802001953 L8.452692031860352 11.672290802001953 C8.554143905639648 11.880349159240723 8.19331169128418 12.163681983947754 7.961836814880371 12.16349983215332 L7.961836814880371 12.16349983215332 C8.041219711303711 11.946063041687012 8.221281051635742 11.677713394165039 8.452692031860352 11.672290802001953 L8.452692031860352 11.672290802001953"></path></svg>