<svg xmlns="http://www.w3.org/2000/svg" viewBox="0.0 0.0 24.0 24.0" height="200px" width="200px"><path fill="none" stroke="black" stroke-width=".3" stroke-opacity="1.0"  filling="0" d="M10.711173057556152 11.43679141998291 L10.711173057556152 11.43679141998291 C10.711173057556152 11.530527114868164 10.711173057556152 11.624263763427734 10.711173057556152 11.717999458312988 L10.711173057556152 11.717999458312988 C10.556464195251465 11.731181144714355 10.401754379272461 11.744363784790039 10.247045516967773 11.757545471191406 L10.247045516967773 11.757545471191406 C10.23900032043457 11.849363327026367 10.23095417022705 11.941182136535645 10.222908973693848 12.032999992370605 L10.222908973693848 12.032999992370605 C10.385472297668457 12.021163940429688 10.548036575317383 12.009326934814453 10.710599899291992 11.997490882873535 L10.710599899291992 11.997490882873535 C10.710599899291992 12.066246032714844 10.710599899291992 12.135000228881836 10.710599899291992 12.203755378723145 L10.710599899291992 12.203755378723145 C10.551863670349121 12.240010261535645 10.39312744140625 12.276264190673828 10.234391212463379 12.312519073486328 L10.234391212463379 12.312519073486328 C10.234391212463379 12.430527687072754 10.234391212463379 12.548537254333496 10.234391212463379 12.666545867919922 L10.234391212463379 12.666545867919922 C10.392391204833984 12.645427703857422 10.55039119720459 12.624308586120605 10.708391189575195 12.603190422058105 L10.708391189575195 12.603190422058105 C10.708391189575195 12.689136505126953 10.708391189575195 12.775081634521484 10.708391189575195 12.861027717590332 L10.708391189575195 12.861027717590332 C10.450827598571777 12.895491600036621 10.19326400756836 12.929954528808594 9.935700416564941 12.964418411254883 L9.935700416564941 12.964418411254883 C9.860616683959961 11.708057403564453 9.626477241516113 11.555778503417969 10.711173057556152 11.43679141998291 L10.711173057556152 11.43679141998291"></path></svg>