<svg xmlns="http://www.w3.org/2000/svg" viewBox="0.0 0.0 24.0 24.0" height="200px" width="200px"><path fill="none" stroke="black" stroke-width=".3" stroke-opacity="1.0"  filling="0" d="M13.251081466674805 9.953643798828125 L13.251081466674805 9.953643798828125 C13.359339714050293 10.81946086883545 13.04941463470459 12.07723617553711 13.339665412902832 12.867352485656738 L13.339665412902832 12.867352485656738 C13.354144096374512 12.004280090332031 13.360093116760254 11.141023635864258 13.357501983642578 10.277833938598633 L13.357501983642578 10.277833938598633 C13.43308162689209 11.123329162597656 13.339829444885254 11.976940155029297 13.41752815246582 12.823497772216797 L13.41752815246582 12.823497772216797 C13.545119285583496 12.81430721282959 13.672710418701172 12.805116653442383 13.800301551818848 12.795926094055176 L13.800301551818848 12.795926094055176 C13.800301551818848 13.134907722473145 13.895848274230957 13.418583869934082 13.626137733459473 13.657281875610352 L13.626137733459473 13.657281875610352 C13.631356239318848 13.667308807373047 13.636573791503906 13.677336692810059 13.641792297363281 13.687363624572754 L13.641792297363281 13.687363624572754 C14.006128311157227 13.650590896606445 13.81791877746582 13.413712501525879 13.872383117675781 13.08515453338623 L13.872383117675781 13.08515453338623 C13.871400833129883 13.335663795471191 13.870418548583984 13.586173057556152 13.869436264038086 13.836682319641113 L13.869436264038086 13.836682319641113 C13.673408508300781 13.891336441040039 13.477381706237793 13.945991516113281 13.281353950500488 14.000645637512207 L13.281353950500488 14.000645637512207 C13.268908500671387 13.900508880615234 13.256464004516602 13.800372123718262 13.2440185546875 13.700235366821289 L13.2440185546875 13.700235366821289 C13.084114074707031 13.408119201660156 12.858053207397461 10.425700187683105 13.251081466674805 9.953643798828125 L13.251081466674805 9.953643798828125"></path></svg>