<svg xmlns="http://www.w3.org/2000/svg" viewBox="0.0 0.0 24.0 24.0" height="200px" width="200px"><path fill="none" stroke="black" stroke-width=".3" stroke-opacity="1.0"  filling="0" d="M5.254991054534912 10.550674438476562 L5.254991054534912 10.550674438476562 C5.760131359100342 10.654428482055664 5.887491226196289 11.40180492401123 6.4587273597717285 11.563446044921875 L6.4587273597717285 11.563446044921875 C6.500645637512207 11.599209785461426 6.5425639152526855 11.634973526000977 6.584482192993164 11.670737266540527 L6.584482192993164 11.670737266540527 C6.139381408691406 12.349910736083984 5.735638618469238 14.444643020629883 6.489490985870361 15.012873649597168 L6.489490985870361 15.012873649597168 C6.659938812255859 14.870746612548828 6.8523454666137695 14.750439643859863 7.057172775268555 14.665009498596191 L7.057172775268555 14.665009498596191 C6.9861531257629395 15.130383491516113 6.31413459777832 15.620112419128418 6.001936435699463 15.959946632385254 L6.001936435699463 15.959946632385254 C5.652683734893799 15.6627779006958 5.24260950088501 15.36030101776123 5.1449995040893555 14.876754760742188 L5.1449995040893555 14.876754760742188 C4.848077297210693 15.179217338562012 4.616777420043945 15.551922798156738 4.278626918792725 15.807462692260742 C3.4108591079711914 16.463233947753906 2.9166433811187744 13.623031616210938 2.976954460144043 13.1781005859375 C3.147347927093506 11.921061515808105 4.436759948730469 11.359512329101562 5.254991054534912 10.550674438476562 L5.254991054534912 10.550674438476562"></path>
<path fill="none" stroke="black" stroke-width=".3" stroke-opacity="1.0"  filling="0" d="M4.526808738708496 11.486427307128906 L4.526808738708496 11.486427307128906 C5.245301723480225 11.793144226074219 5.468229293823242 14.73620319366455 4.8936004638671875 14.793381690979004 C3.697587013244629 14.91239070892334 3.8761963844299316 11.947921752929688 4.526808738708496 11.486427307128906 L4.526808738708496 11.486427307128906"></path></svg>