<svg xmlns="http://www.w3.org/2000/svg" viewBox="0.0 0.0 24.0 24.0" height="200px" width="200px"><path fill="none" stroke="black" stroke-width=".3" stroke-opacity="1.0"  filling="0" d="M8.672725677490234 11.809556007385254 L8.672725677490234 11.809556007385254 C8.672751426696777 12.229856491088867 8.676291465759277 12.347122192382812 8.786399841308594 12.697338104248047 L8.786399841308594 12.697338104248047 C8.674982070922852 12.67329216003418 8.563563346862793 12.649246215820312 8.45214557647705 12.625200271606445 L8.45214557647705 12.625200271606445 C7.855899810791016 12.874554634094238 7.942417621612549 12.335347175598145 7.905572414398193 11.903646469116211 L7.905572414398193 11.903646469116211 C7.867753982543945 11.893255233764648 7.8299360275268555 11.882864952087402 7.792117595672607 11.87247371673584 L7.792117595672607 11.87247371673584 C7.868927001953125 11.801958084106445 7.996955871582031 11.829573631286621 8.101036071777344 11.8233003616333 L8.101036071777344 11.8233003616333 C8.312826156616211 12.5067777633667 8.454544067382812 12.90003776550293 8.454544067382812 11.906482696533203 L8.454544067382812 11.906482696533203 C8.410199165344238 11.895892143249512 8.365853309631348 11.885300636291504 8.321508407592773 11.874710083007812 L8.321508407592773 11.874710083007812 C8.321781158447266 11.866374015808105 8.322053909301758 11.858036994934082 8.32232666015625 11.849700927734375 L8.32232666015625 11.849700927734375 C8.439126014709473 11.836318969726562 8.555926322937012 11.822937965393066 8.672725677490234 11.809556007385254 L8.672725677490234 11.809556007385254"></path></svg>