<svg xmlns="http://www.w3.org/2000/svg" viewBox="0.0 0.0 24.0 24.0" height="200px" width="200px"><path fill="none" stroke="black" stroke-width=".3" stroke-opacity="1.0"  filling="0" d="M14.003209114074707 11.758444786071777 L14.003209114074707 11.758444786071777 C14.075709342956543 11.896126747131348 14.148208618164062 12.033807754516602 14.220708847045898 12.171489715576172 L14.220708847045898 12.171489715576172 C14.048454284667969 12.171489715576172 13.876199722290039 12.171490669250488 13.70394515991211 12.171490669250488 L13.70394515991211 12.171490669250488 C13.74048900604248 12.62378978729248 13.913570404052734 12.784978866577148 14.21667194366455 12.398372650146484 L14.21667194366455 12.398372650146484 C13.63078784942627 13.022123336791992 13.11497688293457 12.062225341796875 14.003209114074707 11.758444786071777 L14.003209114074707 11.758444786071777"></path>
<path fill="none" stroke="black" stroke-width=".3" stroke-opacity="1.0"  filling="0" d="M13.753445625305176 11.812036514282227 L13.753445625305176 11.812036514282227 C13.821500778198242 11.81204605102539 13.889554977416992 11.812054634094238 13.957610130310059 11.812064170837402 L13.957610130310059 11.812064170837402 C13.987455368041992 11.89803695678711 14.017300605773926 11.984009742736816 14.04714584350586 12.069982528686523 L14.04714584350586 12.069982528686523 C13.764630317687988 12.10306167602539 13.71787166595459 12.061741828918457 13.753445625305176 11.812036514282227 L13.753445625305176 11.812036514282227"></path></svg>