<svg xmlns="http://www.w3.org/2000/svg" viewBox="0.0 0.0 24.0 24.0" height="200px" width="200px"><path fill="none" stroke="black" stroke-width=".3" stroke-opacity="1.0"  filling="0" d="M20.326663970947266 8.22280502319336 L20.326663970947266 8.22280502319336 C20.415849685668945 8.235489845275879 20.53421401977539 8.256543159484863 20.570701599121094 8.33890438079834 L20.570701599121094 8.33890438079834 C18.840246200561523 8.831522941589355 19.009571075439453 12.847273826599121 19.424728393554688 14.353276252746582 C19.635156631469727 15.116612434387207 20.097768783569336 14.332749366760254 20.252483367919922 14.605085372924805 C20.326793670654297 14.735889434814453 19.12114143371582 15.804692268371582 18.95252799987793 16.014379501342773 L18.95252799987793 16.014379501342773 C18.80841064453125 15.845690727233887 17.913930892944336 15.216753959655762 17.86734390258789 15.051162719726562 C17.810176849365234 14.847967147827148 18.14086151123047 14.720481872558594 18.218509674072266 14.524198532104492 C18.459836959838867 13.914166450500488 18.308547973632812 13.165858268737793 18.297435760498047 12.527998924255371 C18.268407821655273 10.861800193786621 17.777912139892578 10.256107330322266 17.38671875 8.926116943359375 L17.38671875 8.926116943359375 C17.87397003173828 9.097772598266602 18.116281509399414 9.61161994934082 18.38416290283203 10.02343463897705 L18.38416290283203 10.02343463897705 C18.716711044311523 10.130993843078613 18.860319137573242 9.419790267944336 18.914810180664062 9.311887741088867 L18.914810180664062 9.311887741088867 C18.893220901489258 9.297845840454102 18.87995147705078 9.27273178100586 18.869892120361328 9.2490234375 L18.869892120361328 9.2490234375 C19.429279327392578 8.985098838806152 19.676288604736328 8.436089515686035 20.326663970947266 8.22280502319336 L20.326663970947266 8.22280502319336"></path></svg>