<svg xmlns="http://www.w3.org/2000/svg" viewBox="0.0 0.0 24.0 24.0" height="200px" width="200px"><path fill="none" stroke="black" stroke-width=".3" stroke-opacity="1.0"  filling="0" d="M8.29949951171875 11.773445129394531 L8.29949951171875 11.773445129394531 C8.309508323669434 11.809199333190918 8.319518089294434 11.844954490661621 8.329526901245117 11.880708694458008 L8.329526901245117 11.880708694458008 C8.371931076049805 11.864849090576172 8.479000091552734 11.924555778503418 8.46534538269043 11.881390571594238 L8.46534538269043 11.881390571594238 C8.366025924682617 12.09350299835205 8.152068138122559 12.44504451751709 8.479254722595215 12.590999603271484 L8.479254722595215 12.590999603271484 C8.308309555053711 12.590309143066406 8.13736343383789 12.589617729187012 7.966418266296387 12.588927268981934 L7.966418266296387 12.588927268981934 C8.008654594421387 12.57960033416748 8.050890922546387 12.570272445678711 8.093127250671387 12.560945510864258 L8.093127250671387 12.560945510864258 C8.093127250671387 12.3236722946167 8.093127250671387 12.086400032043457 8.093127250671387 11.849126815795898 L8.093127250671387 11.849126815795898 C8.050963401794434 11.839517593383789 8.00879955291748 11.829909324645996 7.9666361808776855 11.820300102233887 L7.9666361808776855 11.820300102233887 C7.967163562774658 11.810145378112793 7.967690944671631 11.7999906539917 7.9682183265686035 11.789835929870605 L7.9682183265686035 11.789835929870605 C8.078645706176758 11.784372329711914 8.189072608947754 11.778908729553223 8.29949951171875 11.773445129394531 L8.29949951171875 11.773445129394531"></path></svg>