<svg xmlns="http://www.w3.org/2000/svg" viewBox="0.0 0.0 24.0 24.0" height="200px" width="200px"><path fill="none" stroke="black" stroke-width=".3" stroke-opacity="1.0"  filling="0" d="M11.27588176727295 11.50273609161377 L11.27588176727295 11.50273609161377 C11.233181953430176 11.560308456420898 11.190482139587402 11.617881774902344 11.147782325744629 11.675454139709473 L11.147782325744629 11.675454139709473 C11.153136253356934 11.682236671447754 11.158491134643555 11.689018249511719 11.16384506225586 11.69580078125 L11.16384506225586 11.69580078125 C11.199381828308105 11.687982559204102 11.234917640686035 11.680164337158203 11.270454406738281 11.672346115112305 L11.270454406738281 11.672346115112305 C11.22933578491211 11.833627700805664 11.188218116760254 11.994909286499023 11.147099494934082 12.156190872192383 L11.147099494934082 12.156190872192383 C11.206897735595703 12.036094665527344 11.248257637023926 11.90563678741455 11.272090911865234 11.77361011505127 L11.272090911865234 11.77361011505127 C11.232536315917969 11.859482765197754 11.192981719970703 11.945356369018555 11.153427124023438 12.031229019165039 L11.153427124023438 12.031229019165039 C11.105690956115723 12.020374298095703 11.057953834533691 12.009519577026367 11.010217666625977 11.998664855957031 L11.010217666625977 11.998664855957031 C11.033199310302734 11.848282814025879 11.056181907653809 11.69789981842041 11.079163551330566 11.547517776489258 L11.079163551330566 11.547517776489258 C11.144736289978027 11.532590866088867 11.210309028625488 11.51766300201416 11.27588176727295 11.50273609161377 L11.27588176727295 11.50273609161377"></path></svg>