<svg xmlns="http://www.w3.org/2000/svg" viewBox="0.0 0.0 24.0 24.0" height="200px" width="200px"><path fill="none" stroke="black" stroke-width=".3" stroke-opacity="1.0"  filling="0" d="M11.239745140075684 12.380563735961914 L11.239745140075684 12.380563735961914 C11.403619766235352 12.407734870910645 11.643997192382812 12.463664054870605 11.672727584838867 12.627272605895996 L11.672727584838867 12.627272605895996 C11.645455360412598 12.627272605895996 11.618182182312012 12.627272605895996 11.590909957885742 12.627272605895996 L11.590909957885742 12.627272605895996 C11.588563919067383 12.592954635620117 11.58621883392334 12.558636665344238 11.58387279510498 12.52431869506836 L11.58387279510498 12.52431869506836 C11.549854278564453 12.558636665344238 11.515836715698242 12.592954635620117 11.481818199157715 12.627272605895996 L11.481818199157715 12.627272605895996 C11.454545021057129 12.627272605895996 11.42727279663086 12.627272605895996 11.399999618530273 12.627272605895996 L11.399999618530273 12.627272605895996 C11.408979415893555 12.43587875366211 11.290842056274414 12.497292518615723 11.290909767150879 12.627272605895996 L11.290909767150879 12.627272605895996 C11.263636589050293 12.627272605895996 11.236364364624023 12.627272605895996 11.209091186523438 12.627272605895996 L11.209091186523438 12.627272605895996 C11.211507797241211 12.544439315795898 11.211095809936523 12.458322525024414 11.239745140075684 12.380563735961914 L11.239745140075684 12.380563735961914"></path></svg>