<svg xmlns="http://www.w3.org/2000/svg" viewBox="0.0 0.0 24.0 24.0" height="200px" width="200px"><path fill="none" stroke="black" stroke-width=".3" stroke-opacity="1.0"  filling="0" d="M13.581818580627441 11.42727279663086 L13.581818580627441 11.42727279663086 C13.609090805053711 11.42727279663086 13.636363983154297 11.42727279663086 13.663636207580566 11.42727279663086 L13.663636207580566 11.42727279663086 C13.67187213897705 11.499127388000488 13.680109024047852 11.570981979370117 13.688344955444336 11.642836570739746 L13.688344955444336 11.642836570739746 C13.716472625732422 11.570981979370117 13.744599342346191 11.499127388000488 13.772727012634277 11.42727279663086 L13.772727012634277 11.42727279663086 C13.800000190734863 11.42727279663086 13.827272415161133 11.42727279663086 13.854545593261719 11.42727279663086 L13.854545593261719 11.42727279663086 C13.797345161437988 11.52385425567627 13.740145683288574 11.620436668395996 13.682945251464844 11.717018127441406 L13.682945251464844 11.717018127441406 C13.643254280090332 11.696563720703125 13.603564262390137 11.676108360290527 13.563873291015625 11.655653953552246 L13.563873291015625 11.655653953552246 C13.569854736328125 11.579526901245117 13.575837135314941 11.503399848937988 13.581818580627441 11.42727279663086 L13.581818580627441 11.42727279663086"></path></svg>