<svg xmlns="http://www.w3.org/2000/svg" viewBox="0.0 0.0 24.0 24.0" height="200px" width="200px"><path fill="none" stroke="black" stroke-width=".3" stroke-opacity="1.0"  filling="0" d="M13.094208717346191 12.040335655212402 L13.094208717346191 12.040335655212402 C13.164490699768066 12.043208122253418 13.234771728515625 12.04608154296875 13.3050537109375 12.048954010009766 L13.3050537109375 12.048954010009766 C13.3067626953125 12.246156692504883 13.300009727478027 12.697617530822754 12.99889087677002 12.444135665893555 L12.99889087677002 12.444135665893555 C13.079846382141113 12.450887680053711 13.212343215942383 12.42121410369873 13.21936321258545 12.34028148651123 L13.21936321258545 12.34028148651123 C13.174427032470703 12.34540843963623 13.129490852355957 12.350536346435547 13.084554672241211 12.355663299560547 L13.084554672241211 12.355663299560547 C13.087772369384766 12.250554084777832 13.090991020202637 12.145444869995117 13.094208717346191 12.040335655212402 L13.094208717346191 12.040335655212402"></path>
<path fill="none" stroke="black" stroke-width=".3" stroke-opacity="1.0"  filling="0" d="M13.20441722869873 12.05462646484375 L13.20441722869873 12.05462646484375 C13.212835311889648 12.133408546447754 13.221254348754883 12.212190628051758 13.2296724319458 12.290972709655762 L13.2296724319458 12.290972709655762 C13.15532112121582 12.26359748840332 13.16370964050293 12.122599601745605 13.20441722869873 12.05462646484375 L13.20441722869873 12.05462646484375"></path></svg>