<svg xmlns="http://www.w3.org/2000/svg" viewBox="0.0 0.0 24.0 24.0" height="200px" width="200px"><path fill="none" stroke="black" stroke-width=".3" stroke-opacity="1.0"  filling="0" d="M6.978436470031738 11.223381996154785 L6.978436470031738 11.223381996154785 C7.1143798828125 11.471819877624512 6.77355432510376 11.517400741577148 6.844309329986572 11.226325988769531 L6.844309329986572 11.226325988769531 C6.7370429039001465 11.379870414733887 6.708359241485596 11.584425926208496 6.709118366241455 11.771726608276367 L6.709118366241455 11.771726608276367 C6.779627323150635 11.778226852416992 6.850136756896973 11.7847261428833 6.920645713806152 11.791226387023926 L6.920645713806152 11.791226387023926 C6.922054767608643 11.80174446105957 6.923463821411133 11.812262535095215 6.924872875213623 11.82278060913086 L6.924872875213623 11.82278060913086 C6.549453258514404 11.870158195495605 6.709083080291748 12.242825508117676 6.709745407104492 12.564190864562988 L6.709745407104492 12.564190864562988 C6.762499809265137 12.570300102233887 6.8152546882629395 12.576409339904785 6.868009090423584 12.582518577575684 L6.868009090423584 12.582518577575684 C6.836792945861816 12.78364372253418 6.4852447509765625 12.702056884765625 6.330573081970215 12.60629940032959 L6.330573081970215 12.60629940032959 C6.482715606689453 12.2930908203125 6.621195316314697 12.083992004394531 6.328418731689453 11.792781829833984 L6.328418731689453 11.792781829833984 C6.377609729766846 11.78689956665039 6.42680025100708 11.781018257141113 6.475991249084473 11.77513599395752 L6.475991249084473 11.77513599395752 C6.539241790771484 11.35888385772705 6.542568683624268 11.258779525756836 6.978436470031738 11.223381996154785 L6.978436470031738 11.223381996154785"></path></svg>