<svg xmlns="http://www.w3.org/2000/svg" viewBox="0.0 0.0 24.0 24.0" height="200px" width="200px"><path fill="none" stroke="black" stroke-width=".3" stroke-opacity="1.0"  filling="0" d="M9.101973533630371 11.47805404663086 L9.101973533630371 11.47805404663086 C9.101973533630371 11.563926696777344 9.101973533630371 11.649800300598145 9.101973533630371 11.735672950744629 L9.101973533630371 11.735672950744629 C9.166537284851074 11.750382423400879 9.231100082397461 11.765090942382812 9.295663833618164 11.779800415039062 L9.295663833618164 11.779800415039062 C9.295327186584473 11.791600227355957 9.294991493225098 11.803400993347168 9.294654846191406 11.815200805664062 L9.294654846191406 11.815200805664062 C9.232800483703613 11.826991081237793 9.170945167541504 11.83878231048584 9.109090805053711 11.85057258605957 L9.109090805053711 11.85057258605957 C9.109090805053711 12.108194351196289 9.09143352508545 12.350824356079102 9.163800239562988 12.600110054016113 L9.163800239562988 12.600110054016113 C9.22913646697998 12.54740047454834 9.294473648071289 12.494691848754883 9.359809875488281 12.44198226928711 L9.359809875488281 12.44198226928711 C9.071084976196289 13.296773910522461 8.890942573547363 11.893744468688965 8.890935897827148 11.846864700317383 L8.890935897827148 11.846864700317383 C8.854372024536133 11.84003734588623 8.817809104919434 11.833209037780762 8.781245231628418 11.82638168334961 L8.781245231628418 11.82638168334961 C8.838397026062012 11.670289993286133 8.9381103515625 11.516582489013672 9.101973533630371 11.47805404663086 L9.101973533630371 11.47805404663086"></path></svg>