<svg xmlns="http://www.w3.org/2000/svg" viewBox="0.0 0.0 24.0 24.0" height="200px" width="200px"><path fill="none" stroke="black" stroke-width=".3" stroke-opacity="1.0"  filling="0" d="M13.936363220214844 11.42727279663086 L13.936363220214844 11.42727279663086 C13.901744842529297 11.588159561157227 13.914115905761719 11.834654808044434 13.758355140686035 11.887772560119629 L13.758355140686035 11.887772560119629 C13.798236846923828 11.755108833312988 13.838118553161621 11.622446060180664 13.878000259399414 11.489782333374023 L13.878000259399414 11.489782333374023 C13.833473205566406 11.489782333374023 13.788946151733398 11.489782333374023 13.74441909790039 11.489782333374023 L13.74441909790039 11.489782333374023 C13.748418807983398 11.578782081604004 13.752418518066406 11.6677827835083 13.756418228149414 11.756782531738281 L13.756418228149414 11.756782531738281 C13.718873023986816 11.746691703796387 13.681326866149902 11.736600875854492 13.643781661987305 11.726510047912598 L13.643781661987305 11.726510047912598 C13.66858196258545 11.626773834228516 13.693381309509277 11.527036666870117 13.718181610107422 11.427300453186035 L13.718181610107422 11.427300453186035 C13.790908813476562 11.427290916442871 13.863636016845703 11.427282333374023 13.936363220214844 11.42727279663086 L13.936363220214844 11.42727279663086"></path></svg>