<svg xmlns="http://www.w3.org/2000/svg" viewBox="0.0 0.0 24.0 24.0" height="200px" width="200px"><path fill="none" stroke="black" stroke-width=".3" stroke-opacity="1.0"  filling="0" d="M11.580901145935059 11.840072631835938 L11.580901145935059 11.840072631835938 C11.53076457977295 11.849254608154297 11.48062801361084 11.858436584472656 11.43049144744873 11.867618560791016 L11.43049144744873 11.867618560791016 C11.434027671813965 11.896300315856934 11.437564849853516 11.924982070922852 11.44110107421875 11.95366382598877 L11.44110107421875 11.95366382598877 C11.486037254333496 11.948845863342285 11.530973434448242 11.944026947021484 11.575909614562988 11.939208984375 L11.575909614562988 11.939208984375 C11.48963737487793 12.007372856140137 11.403364181518555 12.075535774230957 11.317091941833496 12.143699645996094 L11.317091941833496 12.143699645996094 C11.378318786621094 12.131681442260742 11.439545631408691 12.11966323852539 11.500772476196289 12.107645034790039 L11.500772476196289 12.107645034790039 C11.502827644348145 12.085517883300781 11.504881858825684 12.063390731811523 11.506937026977539 12.041263580322266 L11.506937026977539 12.041263580322266 C11.454582214355469 11.979190826416016 11.402227401733398 11.917118072509766 11.349872589111328 11.855045318603516 L11.349872589111328 11.855045318603516 C11.426881790161133 11.850054740905762 11.503891944885254 11.845063209533691 11.580901145935059 11.840072631835938 L11.580901145935059 11.840072631835938"></path></svg>