<svg xmlns="http://www.w3.org/2000/svg" viewBox="0.0 0.0 24.0 24.0" height="200px" width="200px"><path fill="none" stroke="black" stroke-width=".3" stroke-opacity="1.0"  filling="0" d="M13.210799217224121 10.552908897399902 L13.210799217224121 10.552908897399902 C13.465617179870605 10.687718391418457 13.736174583435059 10.956236839294434 13.52154541015625 11.284745216369629 L13.52154541015625 11.284745216369629 C13.425145149230957 11.174445152282715 13.32874584197998 11.0641450881958 13.232345581054688 10.953845024108887 L13.232345581054688 10.953845024108887 C13.068482398986816 11.03012466430664 13.042163848876953 11.282491683959961 13.046346664428711 11.463191032409668 L13.046346664428711 11.463191032409668 C13.06210994720459 11.359872817993164 13.077874183654785 11.25655460357666 13.093637466430664 11.153236389160156 L13.093637466430664 11.153236389160156 C13.101728439331055 11.153326988220215 13.109819412231445 11.15341854095459 13.117910385131836 11.153509140014648 L13.117910385131836 11.153509140014648 C13.121240615844727 11.64124870300293 13.711979866027832 11.79782772064209 13.81153678894043 12.547691345214844 L13.81153678894043 12.547691345214844 C13.79893684387207 12.399882316589355 13.786336898803711 12.252073287963867 13.773736953735352 12.104264259338379 L13.773736953735352 12.104264259338379 C13.764291763305664 12.104491233825684 13.75484561920166 12.104719161987305 13.745400428771973 12.10494613647461 L13.745400428771973 12.10494613647461 C13.746501922607422 12.969324111938477 12.717949867248535 13.29896354675293 12.943363189697266 12.382774353027344 L12.943363189697266 12.382774353027344 C13.513620376586914 13.099579811096191 13.83627700805664 11.83729362487793 13.072253227233887 11.954999923706055 L13.072253227233887 11.954999923706055 C13.066061973571777 11.997827529907227 13.059871673583984 12.040655136108398 13.053680419921875 12.08348274230957 L13.053680419921875 12.08348274230957 C12.801531791687012 11.521519660949707 12.670655250549316 10.988987922668457 13.210799217224121 10.552908897399902 L13.210799217224121 10.552908897399902"></path></svg>