<svg xmlns="http://www.w3.org/2000/svg" viewBox="0.0 0.0 24.0 24.0" height="200px" width="200px"><path fill="none" stroke="black" stroke-width=".3" stroke-opacity="1.0"  filling="0" d="M20.389554977416992 11.19051742553711 L20.389554977416992 11.19051742553711 C20.39763069152832 11.332655906677246 20.424880981445312 11.473523139953613 20.587364196777344 11.524444580078125 L20.587364196777344 11.524444580078125 C20.58783721923828 11.533835411071777 20.588308334350586 11.543227195739746 20.588781356811523 11.552618026733398 L20.588781356811523 11.552618026733398 C20.531335830688477 11.558653831481934 20.473892211914062 11.564690589904785 20.416446685791016 11.57072639465332 L20.416446685791016 11.57072639465332 C20.428537368774414 11.817980766296387 20.440629959106445 12.06523609161377 20.452720642089844 12.312490463256836 L20.452720642089844 12.312490463256836 C20.519210815429688 12.287208557128906 20.585702896118164 12.261926651000977 20.652193069458008 12.236644744873047 L20.652193069458008 12.236644744873047 C20.203054428100586 12.992777824401855 20.181903839111328 11.612462043762207 20.181873321533203 11.572909355163574 L20.181873321533203 11.572909355163574 C20.143091201782227 11.566500663757324 20.10430908203125 11.560091018676758 20.065526962280273 11.553682327270508 L20.065526962280273 11.553682327270508 C20.17353630065918 11.43262767791748 20.281545639038086 11.311572074890137 20.389554977416992 11.19051742553711 L20.389554977416992 11.19051742553711"></path></svg>