<svg xmlns="http://www.w3.org/2000/svg" viewBox="0.0 0.0 24.0 24.0" height="200px" width="200px"><path fill="none" stroke="black" stroke-width=".3" stroke-opacity="1.0"  filling="0" d="M7.367181777954102 10.96560001373291 L7.367181777954102 10.96560001373291 C7.472681522369385 10.986809730529785 7.578181743621826 11.008018493652344 7.683681488037109 11.029228210449219 L7.683681488037109 11.029228210449219 C7.624581336975098 11.03782844543457 7.565481662750244 11.046427726745605 7.506381511688232 11.055027961730957 L7.506381511688232 11.055027961730957 C7.35922384262085 12.972125053405762 8.142094612121582 12.500679016113281 8.127981185913086 11.07613754272461 L8.127981185913086 11.07613754272461 C8.073899269104004 11.041783332824707 8.019817352294922 11.007428169250488 7.96573543548584 10.973073959350586 L7.96573543548584 10.973073959350586 C8.100234985351562 10.973073959350586 8.234735488891602 10.973073959350586 8.369235038757324 10.973073959350586 L8.369235038757324 10.973073959350586 C8.315862655639648 11.007073402404785 8.262489318847656 11.0410737991333 8.20911693572998 11.0750732421875 L8.20911693572998 11.0750732421875 C8.20911693572998 12.861599922180176 7.227795600891113 12.880443572998047 7.227081775665283 11.090864181518555 L7.227081775665283 11.090864181518555 C7.165318012237549 11.070036888122559 7.103554725646973 11.049210548400879 7.041790962219238 11.028383255004883 L7.041790962219238 11.028383255004883 C7.1344804763793945 10.968292236328125 7.256890773773193 10.971780776977539 7.367181777954102 10.96560001373291 L7.367181777954102 10.96560001373291"></path></svg>