<svg xmlns="http://www.w3.org/2000/svg" viewBox="0.0 0.0 24.0 24.0" height="200px" width="200px"><path fill="none" stroke="black" stroke-width=".3" stroke-opacity="1.0"  filling="0" d="M12.39826488494873 11.25316333770752 L12.39826488494873 11.25316333770752 C12.301349639892578 11.59081745147705 12.192242622375488 11.507608413696289 11.845064163208008 11.509117126464844 L11.845064163208008 11.509117126464844 C11.845064163208008 11.644562721252441 11.845064163208008 11.780007362365723 11.845064163208008 11.91545295715332 L11.845064163208008 11.91545295715332 C12.413708686828613 11.760721206665039 12.773420333862305 12.229652404785156 12.303136825561523 12.723762512207031 C11.969953536987305 13.07382583618164 11.400480270385742 12.281113624572754 11.928163528442383 12.427800178527832 L11.928163528442383 12.427800178527832 C11.908617973327637 12.504209518432617 11.88907241821289 12.580617904663086 11.869526863098145 12.657027244567871 L11.869526863098145 12.657027244567871 C12.45948314666748 12.463766098022461 12.390507698059082 11.852195739746094 11.781982421875 12.008071899414062 L11.781982421875 12.008071899414062 C11.781827926635742 11.683231353759766 12.078091621398926 11.308030128479004 12.39826488494873 11.25316333770752 L12.39826488494873 11.25316333770752"></path></svg>