<svg xmlns="http://www.w3.org/2000/svg" viewBox="0.0 0.0 24.0 24.0" height="200px" width="200px"><path fill="none" stroke="black" stroke-width=".3" stroke-opacity="1.0"  filling="0" d="M3.5480728149414062 11.83592700958252 L3.5480728149414062 11.83592700958252 C3.7402572631835938 11.908895492553711 3.9798598289489746 11.993053436279297 4.057608604431152 12.183354377746582 L4.057608604431152 12.183354377746582 C3.865135908126831 12.191936492919922 3.6726629734039307 12.200517654418945 3.4801902770996094 12.209099769592285 L3.4801902770996094 12.209099769592285 C3.5358264446258545 12.680869102478027 3.6334242820739746 12.778047561645508 3.983454704284668 12.41299057006836 L3.983454704284668 12.41299057006836 C3.996873140335083 12.416099548339844 4.010291576385498 12.419208526611328 4.023709774017334 12.422317504882812 L4.023709774017334 12.422317504882812 C3.9822404384613037 12.880921363830566 3.0394625663757324 12.738980293273926 3.5480728149414062 11.83592700958252 L3.5480728149414062 11.83592700958252"></path>
<path fill="none" stroke="black" stroke-width=".3" stroke-opacity="1.0"  filling="0" d="M3.6012277603149414 11.883545875549316 L3.6012277603149414 11.883545875549316 C3.7086076736450195 11.884232521057129 3.7788591384887695 12.026885032653809 3.8086090087890625 12.130064010620117 L3.8086090087890625 12.130064010620117 C3.7063543796539307 12.130064010620117 3.604099988937378 12.130064010620117 3.501845359802246 12.130064010620117 L3.501845359802246 12.130064010620117 C3.534972906112671 12.047891616821289 3.5681002140045166 11.965718269348145 3.6012277603149414 11.883545875549316 L3.6012277603149414 11.883545875549316"></path></svg>