<svg xmlns="http://www.w3.org/2000/svg" viewBox="0.0 0.0 24.0 24.0" height="200px" width="200px"><path fill="none" stroke="black" stroke-width=".3" stroke-opacity="1.0"  filling="0" d="M8.683390617370605 10.943044662475586 L8.683390617370605 10.943044662475586 C8.93331241607666 11.145578384399414 8.787456512451172 11.330753326416016 8.812772750854492 11.676408767700195 L8.812772750854492 11.676408767700195 C9.420816421508789 11.373172760009766 9.303007125854492 12.09090518951416 9.465054512023926 12.444653511047363 L9.465054512023926 12.444653511047363 C9.311772346496582 12.448107719421387 9.158491134643555 12.451562881469727 9.005208969116211 12.45501708984375 L9.005208969116211 12.45501708984375 C9.003790855407715 12.444826126098633 9.002372741699219 12.434635162353516 9.000954627990723 12.424444198608398 L9.000954627990723 12.424444198608398 C9.045563697814941 12.415608406066895 9.09017276763916 12.406771659851074 9.134781837463379 12.39793586730957 L9.134781837463379 12.39793586730957 C9.092350959777832 11.254810333251953 8.811577796936035 11.710147857666016 8.809527397155762 12.401999473571777 L8.809527397155762 12.401999473571777 C8.853754997253418 12.4064359664917 8.897981643676758 12.410871505737305 8.942209243774414 12.415307998657227 L8.942209243774414 12.415307998657227 C8.844442367553711 12.459096908569336 8.458511352539062 12.647722244262695 8.457900047302246 12.429709434509277 L8.457900047302246 12.429709434509277 C8.749215126037598 12.029480934143066 8.516340255737305 11.524857521057129 8.583736419677734 11.059090614318848 L8.583736419677734 11.059090614318848 C8.533499717712402 11.047036170959473 8.483263969421387 11.034981727600098 8.433027267456055 11.022927284240723 L8.433027267456055 11.022927284240723 C8.432945251464844 11.011518478393555 8.432863235473633 11.00010871887207 8.432781219482422 10.988699913024902 L8.432781219482422 10.988699913024902 C8.51545238494873 10.969324111938477 8.599349021911621 10.955163955688477 8.683390617370605 10.943044662475586 L8.683390617370605 10.943044662475586"></path></svg>