<svg xmlns="http://www.w3.org/2000/svg" viewBox="0.0 0.0 24.0 24.0" height="200px" width="200px"><path fill="none" stroke="black" stroke-width=".3" stroke-opacity="1.0"  filling="0" d="M25.137813568115234 8.227143287658691 L25.137813568115234 8.227143287658691 C27.087766647338867 10.056293487548828 24.827627182006836 12.912365913391113 26.206523895263672 14.950580596923828 L26.206523895263672 14.950580596923828 C26.3072509765625 14.727707862854004 26.407978057861328 14.50483512878418 26.508705139160156 14.281962394714355 L26.508705139160156 14.281962394714355 C26.66241455078125 14.54877758026123 25.926799774169922 15.951676368713379 25.742752075195312 16.221406936645508 L25.742752075195312 16.221406936645508 C24.416057586669922 14.222614288330078 25.984148025512695 11.524134635925293 24.66449737548828 9.692179679870605 L24.66449737548828 9.692179679870605 C24.06777000427246 10.406696319580078 24.031532287597656 14.168402671813965 24.774982452392578 14.783317565917969 L24.774982452392578 14.783317565917969 C24.508331298828125 15.270803451538086 24.2663631439209 15.77244758605957 24.048084259033203 16.28342628479004 L24.048084259033203 16.28342628479004 C23.829174041748047 15.834177017211914 23.489856719970703 15.435715675354004 23.277488708496094 14.99708080291748 C23.139402389526367 14.711869239807129 23.55121421813965 14.414199829101562 23.5919189453125 14.099944114685059 C23.743337631225586 12.930917739868164 23.84280776977539 10.843177795410156 23.270153045654297 9.815889358520508 L23.270153045654297 9.815889358520508 C23.18808937072754 9.945853233337402 23.106027603149414 10.07581615447998 23.023963928222656 10.205780029296875 L23.023963928222656 10.205780029296875 C22.896509170532227 9.744850158691406 23.611696243286133 8.772540092468262 23.846670150756836 8.335689544677734 L23.846670150756836 8.335689544677734 C24.038124084472656 8.829689979553223 24.22957992553711 9.323689460754395 24.42103385925293 9.817689895629883 L24.42103385925293 9.817689895629883 C24.65995979309082 9.287508010864258 24.898887634277344 8.757325172424316 25.137813568115234 8.227143287658691 L25.137813568115234 8.227143287658691"></path></svg>