<svg xmlns="http://www.w3.org/2000/svg" viewBox="0.0 0.0 24.0 24.0" height="200px" width="200px"><path fill="none" stroke="black" stroke-width=".3" stroke-opacity="1.0"  filling="0" d="M10.271209716796875 11.45672607421875 L10.271209716796875 11.45672607421875 C10.288818359375 11.563526153564453 10.306427955627441 11.670326232910156 10.324036598205566 11.77712631225586 L10.324036598205566 11.77712631225586 C10.379990577697754 11.780616760253906 10.435945510864258 11.78410816192627 10.491899490356445 11.787598609924316 L10.491899490356445 11.787598609924316 C10.493508338928223 11.801953315734863 10.495118141174316 11.81630802154541 10.496726989746094 11.830662727355957 L10.496726989746094 11.830662727355957 C10.437981605529785 11.835390090942383 10.379236221313477 11.840117454528809 10.320490837097168 11.844844818115234 L10.320490837097168 11.844844818115234 C10.331409454345703 12.098862648010254 10.342327117919922 12.352880477905273 10.353245735168457 12.606898307800293 L10.353245735168457 12.606898307800293 C10.413228034973145 12.573661804199219 10.473209381103516 12.540426254272461 10.533191680908203 12.507189750671387 L10.533191680908203 12.507189750671387 C10.082087516784668 13.120584487915039 10.11031723022461 11.936663627624512 10.082809448242188 11.848661422729492 L10.082809448242188 11.848661422729492 C10.05754566192627 11.838488578796387 10.032281875610352 11.828316688537598 10.007018089294434 11.818143844604492 L10.007018089294434 11.818143844604492 C10.113179206848145 11.713269233703613 10.204910278320312 11.59041690826416 10.271209716796875 11.45672607421875 L10.271209716796875 11.45672607421875"></path></svg>