<svg xmlns="http://www.w3.org/2000/svg" viewBox="0.0 0.0 24.0 24.0" height="200px" width="200px"><path fill="none" stroke="black" stroke-width=".3" stroke-opacity="1.0"  filling="0" d="M22.24358367919922 8.238327026367188 L22.24358367919922 8.238327026367188 C22.404281616210938 8.732671737670898 23.09560203552246 10.330885887145996 22.8836727142334 10.753963470458984 C22.600448608398438 11.319368362426758 21.790937423706055 11.910822868347168 21.76276397705078 12.575562477111816 C21.723508834838867 13.501790046691895 21.726606369018555 16.093069076538086 22.789363861083984 14.082518577575684 L22.789363861083984 14.082518577575684 C22.909759521484375 14.32811450958252 21.958786010742188 16.13691520690918 21.717735290527344 16.340238571166992 L21.717735290527344 16.340238571166992 C20.88013458251953 15.20528507232666 20.602954864501953 13.697477340698242 20.739498138427734 12.21457290649414 C20.876039505004883 10.731668472290039 21.42630386352539 9.273666381835938 22.24358367919922 8.238327026367188 L22.24358367919922 8.238327026367188"></path>
<path fill="none" stroke="black" stroke-width=".3" stroke-opacity="1.0"  filling="0" d="M21.728130340576172 9.488264083862305 L21.728130340576172 9.488264083862305 C21.732755661010742 9.488409996032715 21.737382888793945 9.488554954528809 21.742008209228516 9.488700866699219 L21.742008209228516 9.488700866699219 C22.099050521850586 10.811949729919434 22.296049118041992 11.037575721740723 21.789081573486328 12.153682708740234 L21.789081573486328 12.153682708740234 C21.7792911529541 12.151482582092285 21.769498825073242 12.149282455444336 21.759708404541016 12.147082328796387 L21.759708404541016 12.147082328796387 C21.7596492767334 12.14207935333252 21.72818946838379 9.493253707885742 21.728130340576172 9.488264083862305 L21.728130340576172 9.488264083862305"></path></svg>