<svg xmlns="http://www.w3.org/2000/svg" viewBox="0.0 0.0 24.0 24.0" height="200px" width="200px"><path fill="none" stroke="black" stroke-width=".3" stroke-opacity="1.0"  filling="0" d="M14.886600494384766 11.522890090942383 L14.886600494384766 11.522890090942383 C14.89141845703125 11.586127281188965 14.896236419677734 11.64936351776123 14.901054382324219 11.712600708007812 L14.901054382324219 11.712600708007812 C14.84886360168457 11.691591262817383 14.796672821044922 11.67058277130127 14.744482040405273 11.64957332611084 L14.744482040405273 11.64957332611084 C14.846579551696777 12.239574432373047 14.467161178588867 12.077129364013672 14.177453994750977 12.29686450958252 L14.177453994750977 12.29686450958252 C15.503227233886719 12.554344177246094 14.346325874328613 13.327710151672363 14.18023681640625 12.573163986206055 L14.18023681640625 12.573163986206055 C14.119757652282715 12.43295669555664 14.143991470336914 12.239715576171875 14.236991882324219 12.118609428405762 L14.236991882324219 12.118609428405762 C14.241618156433105 11.893113136291504 14.459283828735352 11.602152824401855 14.684645652770996 11.611227035522461 L14.684645652770996 11.611227035522461 C14.75196361541748 11.581781387329102 14.819282531738281 11.552335739135742 14.886600494384766 11.522890090942383 L14.886600494384766 11.522890090942383"></path>
<path fill="none" stroke="black" stroke-width=".3" stroke-opacity="1.0"  filling="0" d="M14.444753646850586 11.5565185546875 L14.444753646850586 11.5565185546875 C14.864206314086914 12.314801216125488 13.997270584106445 12.044776916503906 14.444753646850586 11.5565185546875 L14.444753646850586 11.5565185546875"></path>
<path fill="none" stroke="black" stroke-width=".3" stroke-opacity="1.0"  filling="0" d="M14.639890670776367 12.571172714233398 L14.639890670776367 12.571172714233398 C14.702527046203613 12.614072799682617 14.76516342163086 12.65697193145752 14.827799797058105 12.699872016906738 L14.827799797058105 12.699872016906738 C14.216239929199219 12.982186317443848 14.090106964111328 12.574074745178223 14.639890670776367 12.571172714233398 L14.639890670776367 12.571172714233398"></path></svg>