<svg xmlns="http://www.w3.org/2000/svg" viewBox="0.0 0.0 24.0 24.0" height="200px" width="200px"><path fill="none" stroke="black" stroke-width=".3" stroke-opacity="1.0"  filling="0" d="M12.329236030578613 11.777917861938477 L12.329236030578613 11.777917861938477 C12.35441780090332 11.797781944274902 12.379599571228027 11.817645072937012 12.404781341552734 11.837509155273438 L12.404781341552734 11.837509155273438 C12.467535972595215 11.841581344604492 12.530290603637695 11.845654487609863 12.593045234680176 11.849726676940918 L12.593045234680176 11.849726676940918 C12.622093200683594 12.297436714172363 12.49531364440918 12.41048812866211 12.491427421569824 11.899881362915039 L12.491427421569824 11.899881362915039 C12.390533447265625 11.978179931640625 12.381861686706543 12.139314651489258 12.381898880004883 12.2670259475708 L12.381898880004883 12.2670259475708 C12.369844436645508 12.2714262008667 12.357789993286133 12.275825500488281 12.345735549926758 12.28022575378418 L12.345735549926758 12.28022575378418 C12.264856338500977 12.154707908630371 12.296435356140137 11.988174438476562 12.256799697875977 11.840126037597656 L12.256799697875977 11.840126037597656 C12.28094482421875 11.819390296936035 12.30509090423584 11.798653602600098 12.329236030578613 11.777917861938477 L12.329236030578613 11.777917861938477"></path></svg>