<svg xmlns="http://www.w3.org/2000/svg" viewBox="0.0 0.0 24.0 24.0" height="200px" width="200px"><path fill="none" stroke="black" stroke-width=".3" stroke-opacity="1.0"  filling="0" d="M15.35672664642334 11.515609741210938 L15.35672664642334 11.515609741210938 C15.487460136413574 11.74268627166748 15.414067268371582 12.03885555267334 15.399846076965332 12.300490379333496 L15.399846076965332 12.300490379333496 C15.449172973632812 12.323263168334961 15.49850082397461 12.346036911010742 15.54782772064209 12.368809700012207 L15.54782772064209 12.368809700012207 C15.54483699798584 12.378046035766602 15.541845321655273 12.38728141784668 15.538854598999023 12.396517753601074 L15.538854598999023 12.396517753601074 C15.379172325134277 12.396517753601074 15.219491004943848 12.396517753601074 15.059808731079102 12.396517753601074 L15.059808731079102 12.396517753601074 C15.092604637145996 12.105775833129883 15.295326232910156 11.963030815124512 15.18308162689209 11.580301284790039 L15.18308162689209 11.580301284790039 C15.141818046569824 11.580301284790039 15.100554466247559 11.580301284790039 15.059290885925293 11.580301284790039 L15.059290885925293 11.580301284790039 C15.057845115661621 11.56926441192627 15.056400299072266 11.558228492736816 15.054954528808594 11.547191619873047 L15.054954528808594 11.547191619873047 C15.155545234680176 11.536664009094238 15.256135940551758 11.526137351989746 15.35672664642334 11.515609741210938 L15.35672664642334 11.515609741210938"></path></svg>