<svg xmlns="http://www.w3.org/2000/svg" viewBox="0.0 0.0 24.0 24.0" height="200px" width="200px"><path fill="none" stroke="black" stroke-width=".3" stroke-opacity="1.0"  filling="0" d="M14.614306449890137 11.492537498474121 L14.614306449890137 11.492537498474121 C14.703680038452148 11.512236595153809 14.79305362701416 11.531936645507812 14.882427215576172 11.5516357421875 L14.882427215576172 11.5516357421875 C14.882427215576172 11.625935554504395 14.882427215576172 11.700236320495605 14.882427215576172 11.7745361328125 L14.882427215576172 11.7745361328125 C14.874300003051758 11.777036666870117 14.866172790527344 11.779536247253418 14.85804557800293 11.782036781311035 L14.85804557800293 11.782036781311035 C14.578058242797852 11.053240776062012 15.195882797241211 12.59536361694336 14.360698699951172 12.34633731842041 L14.360698699951172 12.34633731842041 C14.352468490600586 12.260932922363281 14.348604202270508 12.175036430358887 14.348287582397461 12.089237213134766 L14.348287582397461 12.089237213134766 C14.357224464416504 12.08476448059082 14.366161346435547 12.080291748046875 14.37509822845459 12.07581901550293 L14.37509822845459 12.07581901550293 C14.962228775024414 12.905003547668457 14.39824390411377 11.636663436889648 14.614306449890137 11.492537498474121 L14.614306449890137 11.492537498474121"></path></svg>