<svg xmlns="http://www.w3.org/2000/svg" viewBox="0.0 0.0 24.0 24.0" height="200px" width="200px"><path fill="none" stroke="black" stroke-width=".3" stroke-opacity="1.0"  filling="0" d="M13.39857292175293 11.515473365783691 L13.39857292175293 11.515473365783691 C13.695966720581055 11.67043685913086 13.525083541870117 12.18248176574707 13.534364700317383 12.482264518737793 L13.534364700317383 12.482264518737793 C13.549654960632324 12.378992080688477 13.564946174621582 12.27571964263916 13.580236434936523 12.172447204589844 L13.580236434936523 12.172447204589844 C13.589827537536621 12.171538352966309 13.599418640136719 12.170628547668457 13.609009742736816 12.169719696044922 L13.609009742736816 12.169719696044922 C13.627564430236816 12.221701622009277 13.6461181640625 12.273682594299316 13.6646728515625 12.325664520263672 L13.6646728515625 12.325664520263672 C13.809545516967773 12.064837455749512 13.954418182373047 11.804009437561035 14.09929084777832 11.543182373046875 L14.09929084777832 11.543182373046875 C14.185945510864258 11.543182373046875 14.272600173950195 11.543182373046875 14.359254837036133 11.543182373046875 L14.359254837036133 11.543182373046875 C13.791399002075195 12.793768882751465 14.905405044555664 13.767304420471191 13.825529098510742 12.81589126586914 L13.829400062561035 12.81973648071289 C13.819845199584961 12.756217956542969 13.810291290283203 12.692700386047363 13.800736427307129 12.629181861877441 L13.800736427307129 12.629181861877441 C13.790108680725098 12.62888240814209 13.779481887817383 12.628582000732422 13.768854141235352 12.62828254699707 L13.768854141235352 12.62828254699707 C13.681936264038086 12.906609535217285 13.59501838684082 13.1849365234375 13.508100509643555 13.463263511657715 L13.508100509643555 13.463263511657715 C12.91053295135498 13.086934089660645 12.970558166503906 12.012890815734863 13.39857292175293 11.515473365783691 L13.39857292175293 11.515473365783691"></path></svg>