<svg xmlns="http://www.w3.org/2000/svg" viewBox="0.0 0.0 24.0 24.0" height="200px" width="200px"><path fill="none" stroke="black" stroke-width=".3" stroke-opacity="1.0"  filling="0" d="M13.55394458770752 11.692880630493164 L13.55394458770752 11.692880630493164 C14.103981018066406 12.078726768493652 13.16706371307373 12.722904205322266 13.367618560791016 12.53282642364502 L13.367618560791016 12.53282642364502 C13.39686393737793 12.57200813293457 13.426109313964844 12.611190795898438 13.455354690551758 12.650372505187988 L13.455354690551758 12.650372505187988 C13.480299949645996 12.569181442260742 13.50524616241455 12.487990379333496 13.530191421508789 12.40679931640625 L13.530191421508789 12.40679931640625 C13.476000785827637 12.428380966186523 13.421809196472168 12.449963569641113 13.367618560791016 12.471545219421387 L13.367618560791016 12.471545219421387 C13.3176851272583 12.196133613586426 13.178991317749023 11.823539733886719 13.55394458770752 11.692880630493164 L13.55394458770752 11.692880630493164"></path>
<path fill="none" stroke="black" stroke-width=".3" stroke-opacity="1.0"  filling="0" d="M13.479736328125 11.848418235778809 L13.479736328125 11.848418235778809 C13.476326942443848 12.000417709350586 13.472918510437012 12.15241813659668 13.46950912475586 12.304417610168457 L13.46950912475586 12.304417610168457 C13.472918510437012 12.15241813659668 13.476326942443848 12.000417709350586 13.479736328125 11.848418235778809 L13.479736328125 11.848418235778809"></path></svg>