<svg xmlns="http://www.w3.org/2000/svg" viewBox="0.0 0.0 24.0 24.0" height="200px" width="200px"><path fill="none" stroke="black" stroke-width=".3" stroke-opacity="1.0"  filling="0" d="M11.910572052001953 11.730217933654785 L11.910572052001953 11.730217933654785 C12.029816627502441 12.010538101196289 12.078239440917969 12.16593074798584 12.02727222442627 12.46363639831543 L12.02727222442627 12.46363639831543 C11.936363220214844 12.46363639831543 11.845454216003418 12.46363639831543 11.754545211791992 12.46363639831543 L11.754545211791992 12.46363639831543 C11.768163681030273 12.402690887451172 11.781781196594238 12.341745376586914 11.79539966583252 12.280799865722656 L11.79539966583252 12.280799865722656 C11.83379077911377 12.097272872924805 11.872180938720703 11.913744926452637 11.910572052001953 11.730217933654785 L11.910572052001953 11.730217933654785"></path>
<path fill="none" stroke="black" stroke-width=".3" stroke-opacity="1.0"  filling="0" d="M11.947772979736328 11.892871856689453 L11.947772979736328 11.892871856689453 C11.930036544799805 11.993971824645996 11.912300109863281 12.095072746276855 11.894563674926758 12.196172714233398 L11.894563674926758 12.196172714233398 C11.912300109863281 12.095072746276855 11.930036544799805 11.993971824645996 11.947772979736328 11.892871856689453 L11.947772979736328 11.892871856689453"></path>
<path fill="none" stroke="black" stroke-width=".3" stroke-opacity="1.0"  filling="0" d="M11.931000709533691 12.277745246887207 L11.931000709533691 12.277745246887207 C11.966828346252441 12.31672191619873 11.910917282104492 12.395174980163574 11.865545272827148 12.422454833984375 L11.865545272827148 12.422454833984375 C11.88736343383789 12.374217987060547 11.90918254852295 12.325982093811035 11.931000709533691 12.277745246887207 L11.931000709533691 12.277745246887207"></path></svg>