<svg xmlns="http://www.w3.org/2000/svg" viewBox="0.0 0.0 24.0 24.0" height="200px" width="200px"><path fill="none" stroke="black" stroke-width=".3" stroke-opacity="1.0"  filling="0" d="M13.59668254852295 11.294154167175293 L13.59668254852295 11.294154167175293 C13.60637378692627 11.294326782226562 13.616064071655273 11.294500350952148 13.625755310058594 11.294672966003418 L13.625755310058594 11.294672966003418 C13.6781005859375 11.592391014099121 13.730446815490723 11.890109062194824 13.782792091369629 12.187827110290527 L13.782792091369629 12.187827110290527 C13.792792320251465 12.18809986114502 13.802791595458984 12.188372611999512 13.81279182434082 12.188645362854004 L13.81279182434082 12.188645362854004 C13.857060432434082 11.90101432800293 13.7976713180542 11.605359077453613 13.892045974731445 11.327564239501953 L13.892045974731445 11.327564239501953 C13.863781929016113 11.833136558532715 13.835518836975098 12.338709831237793 13.807254791259766 12.844282150268555 L13.807254791259766 12.844282150268555 C13.748664855957031 12.531620979309082 13.687708854675293 12.219392776489258 13.62425422668457 11.907682418823242 L13.62425422668457 11.907682418823242 C13.603500366210938 12.18910026550293 13.582745552062988 12.470519065856934 13.561991691589355 12.751936912536621 L13.561991691589355 12.751936912536621 C13.5433349609375 12.266229629516602 13.549057006835938 11.777880668640137 13.59668254852295 11.294154167175293 L13.59668254852295 11.294154167175293"></path></svg>