<svg xmlns="http://www.w3.org/2000/svg" viewBox="0.0 0.0 24.0 24.0" height="200px" width="200px"><path fill="none" stroke="black" stroke-width=".3" stroke-opacity="1.0"  filling="0" d="M11.474181175231934 11.416117668151855 L11.474181175231934 11.416117668151855 C11.478699684143066 11.515681266784668 11.4832181930542 11.61524486541748 11.487736701965332 11.714808464050293 L11.487736701965332 11.714808464050293 C11.548027992248535 11.726617813110352 11.608318328857422 11.73842716217041 11.668609619140625 11.750236511230469 L11.668609619140625 11.750236511230469 C11.668563842773438 11.762246131896973 11.668519020080566 11.77425479888916 11.668473243713379 11.786264419555664 L11.668473243713379 11.786264419555664 C11.606300354003906 11.798855781555176 11.544127464294434 11.811446189880371 11.481954574584961 11.824037551879883 L11.481954574584961 11.824037551879883 C11.481715202331543 12.04647159576416 11.54294204711914 12.615830421447754 11.697272300720215 12.455646514892578 L11.697272300720215 12.455646514892578 C11.1737642288208 12.989853858947754 11.342469215393066 12.08450984954834 11.136162757873535 11.792235374450684 L11.136162757873535 11.792235374450684 C11.248835563659668 11.666862487792969 11.3615083694458 11.54149055480957 11.474181175231934 11.416117668151855 L11.474181175231934 11.416117668151855"></path></svg>