<svg xmlns="http://www.w3.org/2000/svg" viewBox="0.0 0.0 24.0 24.0" height="200px" width="200px"><path fill="none" stroke="black" stroke-width=".3" stroke-opacity="1.0"  filling="0" d="M12.062726974487305 11.55894660949707 L12.062726974487305 11.55894660949707 C12.09869384765625 11.763999938964844 12.167013168334961 11.789121627807617 12.330353736877441 11.960511207580566 L12.330353736877441 11.960511207580566 C12.42552661895752 11.922220230102539 12.520699501037598 11.883929252624512 12.615872383117676 11.845638275146484 L12.615872383117676 11.845638275146484 C12.644271850585938 11.987825393676758 12.571380615234375 12.120811462402344 12.535417556762695 12.25900936126709 L12.535417556762695 12.25900936126709 C12.580090522766113 12.254199981689453 12.624763488769531 12.249391555786133 12.66943645477295 12.244582176208496 L12.66943645477295 12.244582176208496 C12.465700149536133 12.537992477416992 12.470714569091797 12.196105003356934 12.342681884765625 12.025556564331055 L12.342681884765625 12.025556564331055 C12.296281814575195 12.152783393859863 12.249881744384766 12.280010223388672 12.203481674194336 12.40723705291748 L12.203481674194336 12.40723705291748 C12.135754585266113 12.366691589355469 12.068026542663574 12.326147079467773 12.000299453735352 12.285601615905762 L12.000299453735352 12.285601615905762 C12.01694107055664 12.150190353393555 12.03538990020752 12.013967514038086 12.072954177856445 11.882810592651367 L12.072954177856445 11.882810592651367 C12.040882110595703 11.77967357635498 12.008038520812988 11.65208625793457 12.062726974487305 11.55894660949707 L12.062726974487305 11.55894660949707"></path>
<path fill="none" stroke="black" stroke-width=".3" stroke-opacity="1.0"  filling="0" d="M12.143890380859375 11.941581726074219 L12.143890380859375 11.941581726074219 C12.184062957763672 12.053863525390625 12.224236488342285 12.166145324707031 12.264409065246582 12.278427124023438 L12.264409065246582 12.278427124023438 C12.066349029541016 12.221985816955566 12.13182544708252 12.111639976501465 12.143890380859375 11.941581726074219 L12.143890380859375 11.941581726074219"></path></svg>