<svg xmlns="http://www.w3.org/2000/svg" viewBox="0.0 0.0 24.0 24.0" height="200px" width="200px"><path fill="none" stroke="black" stroke-width=".3" stroke-opacity="1.0"  filling="0" d="M11.136517524719238 11.014336585998535 L11.136517524719238 11.014336585998535 C11.419350624084473 11.151459693908691 11.478965759277344 11.79469108581543 11.154027938842773 11.88539981842041 L11.154027938842773 11.88539981842041 C11.229839324951172 12.09280776977539 11.295130729675293 12.306735038757324 11.324318885803223 12.525627136230469 L11.324318885803223 12.525627136230469 C11.236918449401855 12.388917922973633 11.149518013000488 12.252209663391113 11.062117576599121 12.115500450134277 L11.062117576599121 12.115500450134277 C11.01313304901123 12.302677154541016 11.01138973236084 12.499387741088867 10.998327255249023 12.692426681518555 L10.998327255249023 12.692426681518555 C10.878066062927246 12.156878471374512 10.90761947631836 11.59929370880127 10.95930004119873 11.05549144744873 L10.95930004119873 11.05549144744873 C11.018372535705566 11.041772842407227 11.077445030212402 11.028055191040039 11.136517524719238 11.014336585998535 L11.136517524719238 11.014336585998535"></path>
<path fill="none" stroke="black" stroke-width=".3" stroke-opacity="1.0"  filling="0" d="M11.165945053100586 11.237071990966797 L11.165945053100586 11.237071990966797 C11.21633529663086 11.37211799621582 11.146596908569336 11.569222450256348 11.02440071105957 11.645672798156738 L11.02440071105957 11.645672798156738 C11.02440071105957 11.526864051818848 11.02440071105957 11.40805435180664 11.02440071105957 11.28924560546875 L11.02440071105957 11.28924560546875 C11.071581840515137 11.271854400634766 11.11876392364502 11.254463195800781 11.165945053100586 11.237071990966797 L11.165945053100586 11.237071990966797"></path></svg>