<svg xmlns="http://www.w3.org/2000/svg" viewBox="0.0 0.0 24.0 24.0" height="200px" width="200px"><path fill="none" stroke="black" stroke-width=".3" stroke-opacity="1.0"  filling="0" d="M9.954545974731445 12.342299461364746 L9.954545974731445 12.342299461364746 C10.034700393676758 12.342299461364746 10.11485481262207 12.342299461364746 10.195009231567383 12.342299461364746 L10.195009231567383 12.342299461364746 C10.213090896606445 12.358535766601562 10.231173515319824 12.374773025512695 10.249255180358887 12.391009330749512 L10.249255180358887 12.391009330749512 C10.232836723327637 12.451581954956055 10.216418266296387 12.512154579162598 10.199999809265137 12.57272720336914 L10.199999809265137 12.57272720336914 C10.172727584838867 12.57272720336914 10.145454406738281 12.57272720336914 10.118182182312012 12.57272720336914 L10.118182182312012 12.57272720336914 C10.111700057983398 12.514554977416992 10.105217933654785 12.456381797790527 10.098735809326172 12.398209571838379 L10.098735809326172 12.398209571838379 C10.0779447555542 12.456381797790527 10.057154655456543 12.514554977416992 10.03636360168457 12.57272720336914 L10.03636360168457 12.57272720336914 C10.0090913772583 12.57272720336914 9.981818199157715 12.57272720336914 9.954545974731445 12.57272720336914 L9.954545974731445 12.57272720336914 C9.954545974731445 12.495918273925781 9.954545974731445 12.419108390808105 9.954545974731445 12.342299461364746 L9.954545974731445 12.342299461364746"></path></svg>