<svg xmlns="http://www.w3.org/2000/svg" viewBox="0.0 0.0 24.0 24.0" height="200px" width="200px"><path fill="none" stroke="black" stroke-width=".3" stroke-opacity="1.0"  filling="0" d="M11.579401016235352 11.514493942260742 L11.579401016235352 11.514493942260742 C11.62774658203125 11.539421081542969 11.676091194152832 11.564348220825195 11.72443675994873 11.589275360107422 L11.720672607421875 11.585372924804688 C11.723278045654297 11.864267349243164 11.649545669555664 12.134577751159668 11.933781623840332 12.261899948120117 L11.933781623840332 12.261899948120117 C11.923999786376953 12.283699989318848 11.914217948913574 12.305500030517578 11.904436111450195 12.327300071716309 L11.904436111450195 12.327300071716309 C11.61252212524414 12.328287124633789 11.510062217712402 12.411751747131348 11.24547290802002 12.249000549316406 L11.24547290802002 12.249000549316406 C11.409177780151367 12.1071138381958 11.412189483642578 11.832101821899414 11.39380931854248 11.616247177124023 L11.39380931854248 11.616247177124023 C11.295541763305664 11.800430297851562 11.38741683959961 11.83981704711914 11.293719291687012 12.050592422485352 L11.293719291687012 12.050592422485352 C11.301955223083496 12.016711235046387 11.310192108154297 11.982829093933105 11.318428039550781 11.94894790649414 L11.318428039550781 11.94894790649414 C11.279330253601074 11.819293975830078 11.362336158752441 11.612664222717285 11.49441909790039 11.582783699035645 L11.49441909790039 11.582783699035645 C11.522746086120605 11.560020446777344 11.551074028015137 11.537257194519043 11.579401016235352 11.514493942260742 L11.579401016235352 11.514493942260742"></path>
<path fill="none" stroke="black" stroke-width=".3" stroke-opacity="1.0"  filling="0" d="M11.562654495239258 11.573836326599121 L11.562654495239258 11.573836326599121 C11.575127601623535 11.81591796875 11.587599754333496 12.057999610900879 11.600072860717773 12.300081253051758 L11.600072860717773 12.300081253051758 C11.347513198852539 12.186552047729492 11.513046264648438 11.788989067077637 11.562654495239258 11.573836326599121 L11.562654495239258 11.573836326599121"></path></svg>