<svg xmlns="http://www.w3.org/2000/svg" viewBox="0.0 0.0 24.0 24.0" height="200px" width="200px"><path fill="none" stroke="black" stroke-width=".3" stroke-opacity="1.0"  filling="0" d="M11.672727584838867 11.454545021057129 L11.672727584838867 11.454545021057129 C11.650300025939941 11.544709205627441 11.627872467041016 11.634872436523438 11.60544490814209 11.72503662109375 L11.60544490814209 11.72503662109375 C11.637245178222656 11.708690643310547 11.669044494628906 11.69234561920166 11.700844764709473 11.675999641418457 L11.700844764709473 11.675999641418457 C11.698226928710938 11.902427673339844 11.695608139038086 12.128854751586914 11.69299030303955 12.3552827835083 L11.69299030303955 12.3552827835083 C11.711977005004883 12.161985397338867 11.690887451171875 11.96129322052002 11.63394546508789 11.77560043334961 L11.63394546508789 11.77560043334961 C11.627890586853027 11.934473037719727 11.62183666229248 12.093345642089844 11.615781784057617 12.252218246459961 L11.615781784057617 12.252218246459961 C11.580126762390137 12.235618591308594 11.544472694396973 12.219018936157227 11.508817672729492 12.20241928100586 L11.508817672729492 12.20241928100586 C11.508712768554688 12.06991958618164 11.513476371765137 11.896514892578125 11.40651798248291 11.818309783935547 L11.40651798248291 11.818309783935547 C11.41219425201416 11.968392372131348 11.438076972961426 12.126457214355469 11.389445304870605 12.268555641174316 L11.389445304870605 12.268555641174316 C11.368231773376465 12.072969436645508 11.345699310302734 11.7989501953125 11.510045051574707 11.69080924987793 L11.510045051574707 11.69080924987793 C11.500435829162598 11.647500038146973 11.490826606750488 11.604191780090332 11.481217384338379 11.560882568359375 L11.481217384338379 11.560882568359375 C11.508681297302246 11.525445938110352 11.536144256591797 11.490009307861328 11.563608169555664 11.454572677612305 L11.563608169555664 11.454572677612305 C11.599981307983398 11.45456314086914 11.636354446411133 11.454554557800293 11.672727584838867 11.454545021057129 L11.672727584838867 11.454545021057129"></path></svg>