<svg xmlns="http://www.w3.org/2000/svg" viewBox="0.0 0.0 24.0 24.0" height="200px" width="200px"><path fill="none" stroke="black" stroke-width=".3" stroke-opacity="1.0"  filling="0" d="M12.74290943145752 11.698444366455078 L12.74290943145752 11.698444366455078 C12.851022720336914 11.883085250854492 12.774052619934082 12.113468170166016 12.655227661132812 12.280144691467285 L12.655227661132812 12.280144691467285 C12.601218223571777 12.255789756774902 12.547209739685059 12.231435775756836 12.493200302124023 12.207080841064453 L12.493200302124023 12.207080841064453 C12.499273300170898 12.093689918518066 12.505345344543457 11.980299949645996 12.511418342590332 11.86690902709961 L12.511418342590332 11.86690902709961 C12.503982543945312 11.865363121032715 12.496545791625977 11.863818168640137 12.489109992980957 11.862272262573242 L12.489109992980957 11.862272262573242 C12.555852890014648 11.78687572479248 12.6422758102417 11.70194149017334 12.74290943145752 11.698444366455078 L12.74290943145752 11.698444366455078"></path>
<path fill="none" stroke="black" stroke-width=".3" stroke-opacity="1.0"  filling="0" d="M12.63529109954834 11.838845252990723 L12.63529109954834 11.838845252990723 C12.659099578857422 11.924181938171387 12.68290901184082 12.009517669677734 12.706717491149902 12.094854354858398 L12.706717491149902 12.094854354858398 C12.68290901184082 12.009517669677734 12.659099578857422 11.924181938171387 12.63529109954834 11.838845252990723 L12.63529109954834 11.838845252990723"></path></svg>