<svg xmlns="http://www.w3.org/2000/svg" viewBox="0.0 0.0 24.0 24.0" height="200px" width="200px"><path fill="none" stroke="black" stroke-width=".3" stroke-opacity="1.0"  filling="0" d="M11.418490409851074 11.64897346496582 L11.418490409851074 11.64897346496582 C11.511126518249512 11.67080020904541 11.603763580322266 11.692627906799316 11.696399688720703 11.714454650878906 L11.696399688720703 11.714454650878906 C11.693290710449219 11.733181953430176 11.690181732177734 11.751909255981445 11.68707275390625 11.770636558532715 L11.68707275390625 11.770636558532715 C11.629154205322266 11.766581535339355 11.571236610412598 11.762527465820312 11.513318061828613 11.758472442626953 L11.513318061828613 11.758472442626953 C11.509509086608887 11.799481391906738 11.50570011138916 11.840489387512207 11.501891136169434 11.881498336791992 L11.501891136169434 11.881498336791992 C11.562772750854492 11.881498336791992 11.62365436553955 11.881498336791992 11.68453598022461 11.881498336791992 L11.68453598022461 11.881498336791992 C11.612826347351074 11.935662269592285 11.541117668151855 11.989826202392578 11.46940803527832 12.043990135192871 L11.46940803527832 12.043990135192871 C11.466344833374023 11.935635566711426 11.46328067779541 11.82728099822998 11.460217475891113 11.718926429748535 L11.460217475891113 11.718926429748535 C11.350093841552734 11.815610885620117 11.480563163757324 12.031872749328613 11.576071739196777 12.143017768859863 L11.576071739196777 12.143017768859863 C11.182326316833496 12.076949119567871 11.115360260009766 11.924450874328613 11.418490409851074 11.64897346496582 L11.418490409851074 11.64897346496582"></path></svg>