<svg xmlns="http://www.w3.org/2000/svg" viewBox="0.0 0.0 24.0 24.0" height="200px" width="200px"><path fill="none" stroke="black" stroke-width=".3" stroke-opacity="1.0"  filling="0" d="M11.00440788269043 11.68797492980957 L11.00440788269043 11.68797492980957 C11.069599151611328 11.690520286560059 11.13478946685791 11.69306468963623 11.199980735778809 11.695610046386719 L11.199980735778809 11.695610046386719 C11.203226089477539 11.736437797546387 11.20647144317627 11.777264595031738 11.209716796875 11.818092346191406 L11.209716796875 11.818092346191406 C11.175070762634277 11.833710670471191 11.140425682067871 11.84932804107666 11.105779647827148 11.864946365356445 L11.105779647827148 11.864946365356445 C11.105761528015137 11.955155372619629 11.105744361877441 12.045364379882812 11.10572624206543 12.135573387145996 L11.10572624206543 12.135573387145996 C11.14191722869873 12.17735481262207 11.178108215332031 12.219137191772461 11.214299201965332 12.260918617248535 L11.214299201965332 12.260918617248535 C11.153181076049805 12.260918617248535 11.092062950134277 12.260918617248535 11.03094482421875 12.260918617248535 L11.03094482421875 12.260918617248535 C10.987021446228027 12.319561958312988 11.133505821228027 12.377289772033691 11.204345703125 12.396000862121582 L11.204345703125 12.396000862121582 C11.152545928955078 12.438182830810547 11.10074520111084 12.480364799499512 11.048945426940918 12.522546768188477 L11.048945426940918 12.522546768188477 C11.002767562866211 12.302314758300781 10.990166664123535 12.072689056396484 11.010436058044434 11.84858226776123 L11.010436058044434 11.84858226776123 C10.984281539916992 11.838800430297852 10.958126068115234 11.829018592834473 10.931971549987793 11.819236755371094 L10.931971549987793 11.819236755371094 C10.956116676330566 11.775483131408691 10.980262756347656 11.731728553771973 11.00440788269043 11.68797492980957 L11.00440788269043 11.68797492980957"></path></svg>