<svg xmlns="http://www.w3.org/2000/svg" viewBox="0.0 0.0 24.0 24.0" height="200px" width="200px"><path fill="none" stroke="black" stroke-width=".3" stroke-opacity="1.0"  filling="0" d="M11.760299682617188 12.491044998168945 L11.760299682617188 12.491044998168945 C11.87656307220459 12.59099006652832 11.992827415466309 12.690936088562012 12.109090805053711 12.790881156921387 L12.109090805053711 12.790881156921387 C12.090909004211426 12.790881156921387 12.07272720336914 12.790881156921387 12.054545402526855 12.790881156921387 L12.054545402526855 12.790881156921387 C11.9796724319458 12.731435775756836 11.904800415039062 12.671989440917969 11.829927444458008 12.612544059753418 L11.829927444458008 12.612544059753418 C11.841163635253906 12.671989440917969 11.852399826049805 12.731435775756836 11.863636016845703 12.790881156921387 L11.863636016845703 12.790881156921387 C11.836363792419434 12.79089069366455 11.809090614318848 12.790899276733398 11.781818389892578 12.790908813476562 L11.781818389892578 12.790908813476562 C11.775518417358398 12.719736099243164 11.769218444824219 12.648563385009766 11.762918472290039 12.577390670776367 L11.762918472290039 12.577390670776367 C11.718273162841797 12.606172561645508 11.673626899719238 12.634953498840332 11.628981590270996 12.663735389709473 L11.628981590270996 12.663735389709473 C11.672754287719727 12.606171607971191 11.716526985168457 12.548608779907227 11.760299682617188 12.491044998168945 L11.760299682617188 12.491044998168945"></path></svg>