<svg xmlns="http://www.w3.org/2000/svg" viewBox="0.0 0.0 24.0 24.0" height="200px" width="200px"><path fill="none" stroke="black" stroke-width=".3" stroke-opacity="1.0"  filling="0" d="M12.625936508178711 12.04390811920166 L12.625936508178711 12.04390811920166 C12.56470012664795 12.050026893615723 12.503464698791504 12.056144714355469 12.442228317260742 12.062263488769531 L12.442228317260742 12.062263488769531 C12.489773750305176 12.078818321228027 12.53731918334961 12.095372200012207 12.584864616394043 12.111927032470703 L12.584864616394043 12.111927032470703 C12.598373413085938 12.148054122924805 12.611883163452148 12.184182167053223 12.625391960144043 12.220309257507324 L12.625391960144043 12.220309257507324 C12.529655456542969 12.251445770263672 12.433917999267578 12.282581329345703 12.338181495666504 12.31371784210205 L12.338181495666504 12.31371784210205 C12.410818099975586 12.2761812210083 12.483453750610352 12.238645553588867 12.556090354919434 12.201108932495117 L12.556090354919434 12.201108932495117 C12.502381324768066 12.195791244506836 12.4486722946167 12.190472602844238 12.394963264465332 12.185154914855957 L12.394963264465332 12.185154914855957 C12.382399559020996 12.150118827819824 12.369836807250977 12.115081787109375 12.35727310180664 12.080045700073242 L12.35727310180664 12.080045700073242 C12.44682788848877 12.067999839782715 12.536381721496582 12.055953979492188 12.625936508178711 12.04390811920166 L12.625936508178711 12.04390811920166"></path></svg>