<svg xmlns="http://www.w3.org/2000/svg" viewBox="0.0 0.0 24.0 24.0" height="200px" width="200px"><path fill="none" stroke="black" stroke-width=".3" stroke-opacity="1.0"  filling="0" d="M11.0086088180542 11.620471954345703 L11.0086088180542 11.620471954345703 C11.317866325378418 11.712006568908691 11.34893798828125 11.751869201660156 11.136191368103027 11.982026100158691 L11.136191368103027 11.982026100158691 C11.170144081115723 11.610194206237793 10.993367195129395 11.534533500671387 11.014908790588379 12.039626121520996 L11.014908790588379 12.039626121520996 C11.089282035827637 12.058417320251465 11.163654327392578 12.077207565307617 11.238027572631836 12.095998764038086 L11.238027572631836 12.095998764038086 C11.098244667053223 12.146759986877441 10.93844985961914 12.149910926818848 10.792581558227539 12.120952606201172 L10.792581558227539 12.120952606201172 C10.793936729431152 12.106452941894531 10.79529094696045 12.091954231262207 10.796646118164062 12.077454566955566 L10.796646118164062 12.077454566955566 C10.854873657226562 12.043845176696777 10.913100242614746 12.010236740112305 10.971327781677246 11.976627349853516 L10.971327781677246 11.976627349853516 C10.925355911254883 11.866467475891113 10.970701217651367 11.733659744262695 11.0086088180542 11.620471954345703 L11.0086088180542 11.620471954345703"></path></svg>