<svg xmlns="http://www.w3.org/2000/svg" viewBox="0.0 0.0 24.0 24.0" height="200px" width="200px"><path fill="none" stroke="black" stroke-width=".3" stroke-opacity="1.0"  filling="0" d="M12.078082084655762 11.884200096130371 L12.078082084655762 11.884200096130371 C12.114900588989258 11.91503620147705 12.151718139648438 11.945873260498047 12.188536643981934 11.976709365844727 L12.188536643981934 11.976709365844727 C12.2169189453125 11.95608139038086 12.24530029296875 11.935454368591309 12.273682594299316 11.914826393127441 L12.273682594299316 11.914826393127441 C12.303564071655273 11.94213581085205 12.33344554901123 11.969444274902344 12.363327026367188 11.996753692626953 L12.363327026367188 11.996753692626953 C12.350472450256348 12.095317840576172 12.337617874145508 12.193881034851074 12.324763298034668 12.292445182800293 L12.324763298034668 12.292445182800293 C12.28884506225586 12.292445182800293 12.252927780151367 12.292445182800293 12.217009544372559 12.292445182800293 L12.217009544372559 12.292445182800293 C12.227636337280273 12.200145721435547 12.238264083862305 12.107845306396484 12.24889087677002 12.015545845031738 L12.24889087677002 12.015545845031738 C12.19939136505127 12.099282264709473 12.149890899658203 12.183018684387207 12.100391387939453 12.266755104064941 L12.100391387939453 12.266755104064941 C12.078300476074219 12.265718460083008 12.056209564208984 12.264681816101074 12.03411865234375 12.26364517211914 L12.03411865234375 12.26364517211914 C12.048772811889648 12.137163162231445 12.063427925109863 12.010682106018066 12.078082084655762 11.884200096130371 L12.078082084655762 11.884200096130371"></path></svg>