<svg xmlns="http://www.w3.org/2000/svg" viewBox="0.0 0.0 24.0 24.0" height="200px" width="200px"><path fill="none" stroke="black" stroke-width=".3" stroke-opacity="1.0"  filling="0" d="M11.182472229003906 11.563691139221191 L11.182472229003906 11.563691139221191 C11.2305269241333 11.588127136230469 11.278581619262695 11.612563133239746 11.32663631439209 11.636999130249023 L11.32663631439209 11.636999130249023 C11.281188011169434 11.973712921142578 11.381468772888184 12.135133743286133 11.181190490722656 12.42962646484375 L11.181190490722656 12.42962646484375 C11.229406356811523 12.344209671020508 11.243782997131348 12.233491897583008 11.221035957336426 12.138080596923828 L11.221035957336426 12.138080596923828 C11.187705039978027 12.168686866760254 11.147318840026855 12.190766334533691 11.108427047729492 12.213899612426758 L11.108427047729492 12.213899612426758 C11.062057495117188 12.000747680664062 11.063652992248535 11.746627807617188 11.182472229003906 11.563691139221191 L11.182472229003906 11.563691139221191"></path>
<path fill="none" stroke="black" stroke-width=".3" stroke-opacity="1.0"  filling="0" d="M11.10300064086914 11.699345588684082 L11.10300064086914 11.699345588684082 C11.204484939575195 11.78294849395752 11.17678451538086 11.966561317443848 11.138127326965332 12.092236518859863 L11.138127326965332 12.092236518859863 C11.126418113708496 11.961273193359375 11.114709854125977 11.83030891418457 11.10300064086914 11.699345588684082 L11.10300064086914 11.699345588684082"></path></svg>