<svg xmlns="http://www.w3.org/2000/svg" viewBox="0.0 0.0 24.0 24.0" height="200px" width="200px"><path fill="none" stroke="black" stroke-width=".3" stroke-opacity="1.0"  filling="0" d="M12.600081443786621 12.500509262084961 L12.600081443786621 12.500509262084961 C12.679800033569336 12.507264137268066 12.759517669677734 12.514018058776855 12.83923625946045 12.520772933959961 L12.83923625946045 12.520772933959961 C12.775490760803223 12.568599700927734 12.711746215820312 12.616427421569824 12.648000717163086 12.664254188537598 L12.648000717163086 12.664254188537598 C12.650182723999023 12.706480979919434 12.652363777160645 12.748708724975586 12.654545783996582 12.790935516357422 L12.654545783996582 12.790935516357422 C12.627272605895996 12.790935516357422 12.600000381469727 12.790935516357422 12.57272720336914 12.790935516357422 L12.57272720336914 12.790935516357422 C12.581872940063477 12.710508346557617 12.591018676757812 12.630082130432129 12.600164413452148 12.549654960632324 L12.600164413452148 12.549654960632324 C12.554655075073242 12.630082130432129 12.509145736694336 12.710508346557617 12.46363639831543 12.790935516357422 L12.46363639831543 12.790935516357422 C12.436363220214844 12.790926933288574 12.409090995788574 12.79091739654541 12.381817817687988 12.790908813476562 L12.381817817687988 12.790908813476562 C12.426995277404785 12.678559303283691 12.484752655029297 12.537423133850098 12.600081443786621 12.500509262084961 L12.600081443786621 12.500509262084961"></path></svg>