<svg xmlns="http://www.w3.org/2000/svg" viewBox="0.0 0.0 24.0 24.0" height="200px" width="200px"><path fill="none" stroke="black" stroke-width=".3" stroke-opacity="1.0"  filling="0" d="M12.353862762451172 11.70119857788086 L12.353862762451172 11.70119857788086 C12.374244689941406 11.704889297485352 12.39462661743164 11.70858097076416 12.415008544921875 11.712271690368652 L12.415008544921875 11.712271690368652 C12.232156753540039 11.810627937316895 12.038233757019043 11.889805793762207 11.840235710144043 11.952299118041992 L11.840235710144043 11.952299118041992 C11.938690185546875 11.987752914428711 12.037144660949707 12.023207664489746 12.135599136352539 12.058661460876465 L12.135599136352539 12.058661460876465 C12.0224609375 12.135997772216797 11.930822372436523 12.242095947265625 11.841980934143066 12.346443176269531 L11.841980934143066 12.346443176269531 C11.953689575195312 12.340780258178711 12.065399169921875 12.335116386413574 12.177107810974121 12.329453468322754 L12.177107810974121 12.329453468322754 C12.182326316833496 12.340299606323242 12.187544822692871 12.351144790649414 12.192763328552246 12.361990928649902 L12.192763328552246 12.361990928649902 C12.028181076049805 12.426981925964355 11.86359977722168 12.491972923278809 11.699017524719238 12.556963920593262 L11.699017524719238 12.556963920593262 C11.705562591552734 12.430973052978516 11.712108612060547 12.304981231689453 11.718653678894043 12.178990364074707 L11.718653678894043 12.178990364074707 C11.726635932922363 12.107890129089355 11.734617233276367 12.036789894104004 11.742599487304688 11.965689659118652 L11.742599487304688 11.965689659118652 C11.720426559448242 11.887107849121094 11.698254585266113 11.808526039123535 11.676081657409668 11.729944229125977 L11.676081657409668 11.729944229125977 C11.895878791809082 11.676802635192871 12.12773323059082 11.701873779296875 12.353862762451172 11.70119857788086 L12.353862762451172 11.70119857788086"></path></svg>