<svg xmlns="http://www.w3.org/2000/svg" viewBox="0.0 0.0 24.0 24.0" height="200px" width="200px"><path fill="none" stroke="black" stroke-width=".3" stroke-opacity="1.0"  filling="0" d="M13.690034866333008 10.014300346374512 L13.690034866333008 10.014300346374512 C15.439804077148438 10.048810958862305 16.994674682617188 11.620569229125977 16.39273452758789 13.513199806213379 C16.199071884155273 14.122117042541504 13.482583999633789 13.002934455871582 13.38679027557373 13.792526245117188 C13.334090232849121 14.226917266845703 13.639540672302246 14.865193367004395 14.072809219360352 15.007445335388184 C15.169805526733398 15.36761474609375 15.160357475280762 13.294750213623047 16.325836181640625 14.641471862792969 C16.769590377807617 15.154234886169434 15.526213645935059 16.037622451782227 15.147027015686035 16.150146484375 C12.450347900390625 16.950393676757812 11.071212768554688 14.321075439453125 11.734062194824219 12.001909255981445 C12.072664260864258 10.81721305847168 12.661646842956543 10.56333065032959 13.690034866333008 10.014300346374512 L13.690034866333008 10.014300346374512"></path>
<path fill="none" stroke="black" stroke-width=".3" stroke-opacity="1.0"  filling="0" d="M13.736236572265625 11.366891860961914 L13.736236572265625 11.366891860961914 C14.02222728729248 11.403009414672852 14.324026107788086 11.37476634979248 14.594209671020508 11.475245475769043 C14.880603790283203 11.581753730773926 14.69302749633789 12.079299926757812 14.712790489196777 12.384218215942383 L14.712790489196777 12.384218215942383 C14.302572250366211 12.37229061126709 13.892354011535645 12.360363960266113 13.482135772705078 12.34843635559082 L13.482135772705078 12.34843635559082 C13.518168449401855 12.012395858764648 13.584970474243164 11.66911792755127 13.736236572265625 11.366891860961914 L13.736236572265625 11.366891860961914"></path></svg>