<svg xmlns="http://www.w3.org/2000/svg" viewBox="0.0 0.0 24.0 24.0" height="200px" width="200px"><path fill="none" stroke="black" stroke-width=".3" stroke-opacity="1.0"  filling="0" d="M12.073772430419922 11.61927318572998 L12.073772430419922 11.61927318572998 C12.308466911315918 11.99796199798584 11.942597389221191 12.106369018554688 11.763981819152832 11.810835838317871 L11.763981819152832 11.810835838317871 C11.849945068359375 11.72509765625 11.954248428344727 11.64059829711914 12.073772430419922 11.61927318572998 L12.073772430419922 11.61927318572998"></path>
<path fill="none" stroke="black" stroke-width=".3" stroke-opacity="1.0"  filling="0" d="M12.066082000732422 11.672727584838867 L12.066082000732422 11.672727584838867 C12.107064247131348 11.722281455993652 12.148045539855957 11.771836280822754 12.189027786254883 11.821390151977539 L12.189027786254883 11.821390151977539 C12.148045539855957 11.771836280822754 12.107064247131348 11.722281455993652 12.066082000732422 11.672727584838867 L12.066082000732422 11.672727584838867"></path>
<path fill="none" stroke="black" stroke-width=".3" stroke-opacity="1.0"  filling="0" d="M11.938472747802734 11.742027282714844 L11.938472747802734 11.742027282714844 C11.9552640914917 11.809272766113281 11.972054481506348 11.876518249511719 11.988845825195312 11.943763732910156 L11.988845825195312 11.943763732910156 C11.934637069702148 11.880172729492188 11.880427360534668 11.816581726074219 11.826218605041504 11.75299072265625 L11.826218605041504 11.75299072265625 C11.86363697052002 11.749336242675781 11.901054382324219 11.745681762695312 11.938472747802734 11.742027282714844 L11.938472747802734 11.742027282714844"></path></svg>