<svg xmlns="http://www.w3.org/2000/svg" viewBox="0.0 0.0 24.0 24.0" height="200px" width="200px"><path fill="none" stroke="black" stroke-width=".3" stroke-opacity="1.0"  filling="0" d="M11.256245613098145 11.79016399383545 L11.256245613098145 11.79016399383545 C11.265463829040527 11.790918350219727 11.27468204498291 11.791672706604004 11.283900260925293 11.792427062988281 L11.283900260925293 11.792427062988281 C11.28870964050293 11.833672523498535 11.29351806640625 11.874917984008789 11.298327445983887 11.916163444519043 L11.298327445983887 11.916163444519043 C11.57636547088623 11.893841743469238 11.435029029846191 12.106938362121582 11.214054107666016 12.113399505615234 L11.214054107666016 12.113399505615234 C11.214627265930176 12.09436321258545 11.21519947052002 12.07532787322998 11.21577262878418 12.056291580200195 L11.21577262878418 12.056291580200195 C11.265036582946777 12.061827659606934 11.314299583435059 12.067364692687988 11.363563537597656 12.072900772094727 L11.363563537597656 12.072900772094727 C11.393481254577637 12.041154861450195 11.423399925231934 12.009408950805664 11.453317642211914 11.977663040161133 L11.453317642211914 11.977663040161133 C11.381863594055176 11.961518287658691 11.310408592224121 11.945372581481934 11.238954544067383 11.929227828979492 L11.238954544067383 11.929227828979492 C11.244718551635742 11.88287353515625 11.250481605529785 11.836518287658691 11.256245613098145 11.79016399383545 L11.256245613098145 11.79016399383545"></path></svg>