<svg xmlns="http://www.w3.org/2000/svg" viewBox="0.0 0.0 24.0 24.0" height="200px" width="200px"><path fill="none" stroke="black" stroke-width=".3" stroke-opacity="1.0"  filling="0" d="M1.9325733184814453 9.929647445678711 L1.9325733184814453 9.929647445678711 C3.182839870452881 10.368693351745605 3.9145584106445312 10.83475399017334 4.084527492523193 12.261820793151855 C4.137066841125488 12.702942848205566 4.340157985687256 13.517095565795898 3.9006547927856445 13.581794738769531 C3.004653215408325 13.713693618774414 2.002802610397339 13.529012680053711 1.0952186584472656 13.527273178100586 L1.0952186584472656 13.527273178100586 C1.319353461265564 14.727344512939453 2.097630500793457 15.681485176086426 2.978236198425293 14.170473098754883 L2.978236198425293 14.170473098754883 C3.3616907596588135 14.322518348693848 3.745145559310913 14.474564552307129 4.128600120544434 14.626609802246094 L4.128600120544434 14.626609802246094 C3.452016830444336 16.28315544128418 1.8845937252044678 16.68799591064453 0.2744722366333008 15.728238105773926 C-0.9895366430282593 14.974790573120117 -1.1452686786651611 13.613439559936523 -0.6998697519302368 12.39630126953125 C-0.2544708847999573 11.179162979125977 0.7920588254928589 10.106239318847656 1.9325733184814453 9.929647445678711 L1.9325733184814453 9.929647445678711"></path>
<path fill="none" stroke="black" stroke-width=".3" stroke-opacity="1.0"  filling="0" d="M2.0824365615844727 11.191882133483887 L2.0824365615844727 11.191882133483887 C2.3686466217041016 11.618998527526855 2.443866014480591 11.808318138122559 2.3989086151123047 12.311263084411621 L2.3989086151123047 12.311263084411621 C1.990509033203125 12.311263084411621 1.5821094512939453 12.311263084411621 1.1737098693847656 12.311263084411621 L1.1737098693847656 12.311263084411621 C1.2821520566940308 11.843055725097656 1.61651611328125 11.309762001037598 2.0824365615844727 11.191882133483887 L2.0824365615844727 11.191882133483887"></path></svg>