<svg xmlns="http://www.w3.org/2000/svg" viewBox="0.0 0.0 24.0 24.0" height="200px" width="200px"><path fill="none" stroke="black" stroke-width=".3" stroke-opacity="1.0"  filling="0" d="M13.420663833618164 10.064727783203125 L13.420663833618164 10.064727783203125 C15.566649436950684 10.86051082611084 14.6715087890625 14.363466262817383 14.631627082824707 16.250072479248047 L14.631627082824707 16.250072479248047 C14.037525177001953 16.385896682739258 13.396170616149902 16.288206100463867 12.790881156921387 16.243555068969727 L12.790881156921387 16.243555068969727 C12.790881156921387 14.920421600341797 13.04210090637207 13.248008728027344 12.793472290039062 11.950335502624512 C12.679525375366211 11.355610847473145 12.216700553894043 11.429397583007812 11.853954315185547 11.712872505187988 C11.38718032836914 12.077641487121582 11.794534683227539 15.542543411254883 11.749662399291992 16.246826171875 L11.749662399291992 16.246826171875 C11.134480476379395 16.246826171875 10.519299507141113 16.246826171875 9.904117584228516 16.246826171875 L9.904117584228516 16.246826171875 C9.557853698730469 14.568580627441406 9.69491958618164 12.087450981140137 9.87357234954834 10.301836013793945 C9.89696979522705 10.06797981262207 11.72963809967041 9.742671012878418 11.727326393127441 10.81494426727295 L11.727326393127441 10.81494426727295 C11.737563133239746 10.821208000183105 11.74779987335205 10.827472686767578 11.758036613464355 10.833736419677734 L11.758036613464355 10.833736419677734 C12.35073471069336 10.24453067779541 12.633498191833496 10.18690013885498 13.420663833618164 10.064727783203125 L13.420663833618164 10.064727783203125"></path></svg>