<svg xmlns="http://www.w3.org/2000/svg" viewBox="0.0 0.0 24.0 24.0" height="200px" width="200px"><path fill="none" stroke="black" stroke-width=".3" stroke-opacity="1.0"  filling="0" d="M13.881872177124023 11.436927795410156 L13.881872177124023 11.436927795410156 C13.944381713867188 11.436927795410156 14.006890296936035 11.436927795410156 14.0693998336792 11.436927795410156 L14.0693998336792 11.436927795410156 C14.0693998336792 11.540336608886719 14.0693998336792 11.643746376037598 14.0693998336792 11.74715518951416 L14.0693998336792 11.74715518951416 C14.232134819030762 11.707871437072754 14.427342414855957 11.739181518554688 14.563636779785156 11.83639144897461 L14.563636779785156 11.83639144897461 C14.563636779785156 11.972745895385742 14.563636779785156 12.109100341796875 14.563636779785156 12.245454788208008 L14.563636779785156 12.245454788208008 C14.403863906860352 12.277046203613281 14.24409008026123 12.308636665344238 14.084317207336426 12.340228080749512 L14.084317207336426 12.340228080749512 C14.01683521270752 12.356218338012695 13.94935417175293 12.372209548950195 13.881872177124023 12.388199806213379 L13.881872177124023 12.388199806213379 C13.881872177124023 12.0711088180542 13.881872177124023 11.754018783569336 13.881872177124023 11.436927795410156 L13.881872177124023 11.436927795410156"></path>
<path fill="none" stroke="black" stroke-width=".3" stroke-opacity="1.0"  filling="0" d="M14.163491249084473 11.816617965698242 L14.163491249084473 11.816617965698242 C14.481477737426758 11.913159370422363 14.484545707702637 12.176352500915527 14.161608695983887 12.266755104064941 L14.161608695983887 12.266755104064941 C14.162236213684082 12.11670970916748 14.162863731384277 11.966663360595703 14.163491249084473 11.816617965698242 L14.163491249084473 11.816617965698242"></path></svg>