<svg xmlns="http://www.w3.org/2000/svg" viewBox="0.0 0.0 24.0 24.0" height="200px" width="200px"><path fill="none" stroke="black" stroke-width=".3" stroke-opacity="1.0"  filling="0" d="M10.925292015075684 11.709790229797363 L10.925292015075684 11.709790229797363 C11.487846374511719 11.761503219604492 11.348309516906738 11.933978080749512 11.404991149902344 12.42507266998291 L11.404991149902344 12.42507266998291 C11.324618339538574 12.406644821166992 11.244245529174805 12.38821792602539 11.163872718811035 12.369790077209473 L11.163872718811035 12.369790077209473 C10.59422492980957 12.430957794189453 10.714595794677734 12.034302711486816 11.174837112426758 11.960426330566406 L11.174837112426758 11.960426330566406 C11.174837112426758 11.916699409484863 11.174837112426758 11.872971534729004 11.174837112426758 11.829244613647461 L11.174837112426758 11.829244613647461 C11.098591804504395 11.857589721679688 11.022345542907715 11.88593578338623 10.946100234985352 11.914280891418457 L10.946100234985352 11.914280891418457 C10.8935546875 11.914280891418457 10.841010093688965 11.914280891418457 10.788464546203613 11.914280891418457 L10.788464546203613 11.914280891418457 C10.834074020385742 11.84611701965332 10.879682540893555 11.7779541015625 10.925292015075684 11.709790229797363 L10.925292015075684 11.709790229797363"></path>
<path fill="none" stroke="black" stroke-width=".3" stroke-opacity="1.0"  filling="0" d="M11.172245025634766 12.061336517333984 L11.172245025634766 12.061336517333984 C11.100826263427734 12.138608932495117 11.02940845489502 12.215882301330566 10.957989692687988 12.2931547164917 L10.957989692687988 12.2931547164917 C10.9569673538208 12.18793773651123 11.073643684387207 12.098072052001953 11.172245025634766 12.061336517333984 L11.172245025634766 12.061336517333984"></path></svg>