<svg xmlns="http://www.w3.org/2000/svg" viewBox="0.0 0.0 24.0 24.0" height="200px" width="200px"><path fill="none" stroke="black" stroke-width=".3" stroke-opacity="1.0"  filling="0" d="M9.4909086227417 11.42727279663086 L9.4909086227417 11.42727279663086 C9.679062843322754 11.42727279663086 9.867218017578125 11.42727279663086 10.05537223815918 11.42727279663086 L10.05537223815918 11.42727279663086 C10.065827369689941 11.486045837402344 10.076281547546387 11.544817924499512 10.086736679077148 11.603590965270996 L10.086736679077148 11.603590965270996 C9.935746192932129 11.603590965270996 9.784754753112793 11.603590965270996 9.633764266967773 11.603590965270996 L9.633764266967773 11.603590965270996 C9.628437042236328 11.67603588104248 9.623109817504883 11.748481750488281 9.617782592773438 11.820926666259766 L9.617782592773438 11.820926666259766 C10.301116943359375 11.59953498840332 10.152599334716797 12.573348045349121 9.4909086227417 12.354571342468262 L9.4909086227417 12.354571342468262 C9.4909086227417 12.281844139099121 9.4909086227417 12.20911693572998 9.4909086227417 12.13638973236084 L9.4909086227417 12.13638973236084 C9.533681869506836 12.13638973236084 9.576454162597656 12.13638973236084 9.619227409362793 12.13638973236084 L9.619227409362793 12.13638973236084 C9.885366439819336 12.371801376342773 9.891948699951172 12.167243957519531 9.838608741760254 11.907408714294434 L9.838608741760254 11.907408714294434 C9.721253395080566 11.942830085754395 9.605278015136719 11.983078002929688 9.490936279296875 12.02727222442627 L9.490936279296875 12.02727222442627 C9.490926742553711 11.827272415161133 9.490918159484863 11.627272605895996 9.4909086227417 11.42727279663086 L9.4909086227417 11.42727279663086"></path></svg>