<svg xmlns="http://www.w3.org/2000/svg" viewBox="0.0 0.0 24.0 24.0" height="200px" width="200px"><path fill="none" stroke="black" stroke-width=".3" stroke-opacity="1.0"  filling="0" d="M12.120518684387207 10.775918960571289 L12.120518684387207 10.775918960571289 C13.615177154541016 11.011653900146484 12.842641830444336 12.955560684204102 12.71438217163086 14.015480995178223 L12.71438217163086 14.015480995178223 C12.552436828613281 14.015480995178223 12.390491485595703 14.015480995178223 12.228546142578125 14.015480995178223 L12.228546142578125 14.015480995178223 C12.222718238830566 13.978272438049316 12.216891288757324 13.94106388092041 12.211063385009766 13.903855323791504 L12.211063385009766 13.903855323791504 C10.237006187438965 14.58852481842041 11.190431594848633 11.405705451965332 12.450382232666016 12.290318489074707 L12.450382232666016 12.290318489074707 C12.585460662841797 11.426389694213867 12.57240104675293 11.240257263183594 11.579673767089844 11.337846755981445 L11.579673767089844 11.337846755981445 C11.621281623840332 11.08122444152832 11.861390113830566 10.796867370605469 12.120518684387207 10.775918960571289 L12.120518684387207 10.775918960571289"></path>
<path fill="none" stroke="black" stroke-width=".3" stroke-opacity="1.0"  filling="0" d="M11.968500137329102 12.602946281433105 L11.968500137329102 12.602946281433105 C12.645767211914062 12.993407249450684 12.353715896606445 13.569554328918457 11.615045547485352 13.523427963256836 L11.615045547485352 13.523427963256836 C11.662264823913574 13.19816780090332 11.678960800170898 12.758480072021484 11.968500137329102 12.602946281433105 L11.968500137329102 12.602946281433105"></path></svg>