<svg xmlns="http://www.w3.org/2000/svg" viewBox="0.0 0.0 24.0 24.0" height="200px" width="200px"><path fill="none" stroke="black" stroke-width=".3" stroke-opacity="1.0"  filling="0" d="M12.13930892944336 11.554472923278809 L12.13930892944336 11.554472923278809 C12.455166816711426 11.566916465759277 12.832100868225098 11.625442504882812 12.512182235717773 11.99476432800293 L12.512182235717773 11.99476432800293 C13.056561470031738 12.769360542297363 11.534065246582031 12.4183931350708 12.085417747497559 12.027409553527832 L12.085417747497559 12.027409553527832 C11.996407508850098 11.896062850952148 12.04924488067627 11.685099601745605 12.13930892944336 11.554472923278809 L12.13930892944336 11.554472923278809"></path>
<path fill="none" stroke="black" stroke-width=".3" stroke-opacity="1.0"  filling="0" d="M12.173809051513672 11.706981658935547 L12.173809051513672 11.706981658935547 C12.269808769226074 11.742018699645996 12.365808486938477 11.777054786682129 12.461808204650879 11.812091827392578 L12.461808204650879 11.812091827392578 C12.439626693725586 11.844873428344727 12.417445182800293 11.877655029296875 12.395263671875 11.910436630249023 L12.395263671875 11.910436630249023 C12.32144546508789 11.842617988586426 12.247627258300781 11.774800300598145 12.173809051513672 11.706981658935547 L12.173809051513672 11.706981658935547"></path>
<path fill="none" stroke="black" stroke-width=".3" stroke-opacity="1.0"  filling="0" d="M12.316091537475586 12.083345413208008 L12.316091537475586 12.083345413208008 C12.674426078796387 12.438693046569824 11.885186195373535 12.432975769042969 12.316091537475586 12.083345413208008 L12.316091537475586 12.083345413208008"></path></svg>