<svg xmlns="http://www.w3.org/2000/svg" viewBox="0.0 0.0 24.0 24.0" height="200px" width="200px"><path fill="none" stroke="black" stroke-width=".3" stroke-opacity="1.0"  filling="0" d="M15.41923713684082 11.53636360168457 L15.41923713684082 11.53636360168457 C15.515854835510254 11.53636360168457 15.612473487854004 11.53636360168457 15.709091186523438 11.53636360168457 L15.709091186523438 11.53636360168457 C15.709091186523438 11.600000381469727 15.709091186523438 11.663636207580566 15.709091186523438 11.727272987365723 L15.709091186523438 11.727272987365723 C15.674263954162598 11.71566390991211 15.639435768127441 11.704054832458496 15.604608535766602 11.692445755004883 L15.604608535766602 11.692445755004883 C15.600990295410156 11.774581909179688 15.597373008728027 11.856718063354492 15.593754768371582 11.938854217529297 L15.593754768371582 11.938854217529297 C15.632190704345703 11.922872543334961 15.67062759399414 11.906890869140625 15.709063529968262 11.890909194946289 L15.709063529968262 11.890909194946289 C15.709073066711426 11.93636417388916 15.709081649780273 11.981818199157715 15.709091186523438 12.027273178100586 L15.709091186523438 12.027273178100586 C15.669236183166504 12.062009811401367 15.629382133483887 12.096745491027832 15.589527130126953 12.131482124328613 L15.589527130126953 12.131482124328613 C15.532763481140137 12.131482124328613 15.476000785827637 12.131482124328613 15.41923713684082 12.131482124328613 L15.41923713684082 12.131482124328613 C15.41923713684082 11.933109283447266 15.41923713684082 11.734736442565918 15.41923713684082 11.53636360168457 L15.41923713684082 11.53636360168457"></path></svg>