<svg xmlns="http://www.w3.org/2000/svg" viewBox="0.0 0.0 24.0 24.0" height="200px" width="200px"><path fill="none" stroke="black" stroke-width=".3" stroke-opacity="1.0"  filling="0" d="M9.870244979858398 11.516045570373535 L9.870244979858398 11.516045570373535 C9.931572914123535 11.516045570373535 9.992899894714355 11.516045570373535 10.054227828979492 11.516045570373535 L10.054227828979492 11.516045570373535 C10.05423641204834 11.839900016784668 10.054245948791504 12.1637544631958 10.054254531860352 12.487608909606934 L10.054254531860352 12.487608909606934 C9.990836143493652 12.465417861938477 9.92741870880127 12.443227767944336 9.86400032043457 12.421036720275879 L9.86400032043457 12.421036720275879 C9.335678100585938 12.609406471252441 9.128057479858398 11.843649864196777 9.870244979858398 11.858918190002441 L9.870244979858398 11.858918190002441 C9.870244979858398 11.744626998901367 9.870244979858398 11.63033676147461 9.870244979858398 11.516045570373535 L9.870244979858398 11.516045570373535"></path>
<path fill="none" stroke="black" stroke-width=".3" stroke-opacity="1.0"  filling="0" d="M9.703445434570312 11.899064064025879 L9.703445434570312 11.899064064025879 C9.973634719848633 12.053215980529785 9.87882137298584 12.251262664794922 9.63204574584961 12.34636402130127 L9.63204574584961 12.34636402130127 C9.61119556427002 12.196823120117188 9.593371391296387 12.002412796020508 9.703445434570312 11.899064064025879 L9.703445434570312 11.899064064025879"></path></svg>