<svg xmlns="http://www.w3.org/2000/svg" viewBox="0.0 0.0 24.0 24.0" height="200px" width="200px"><path fill="none" stroke="black" stroke-width=".3" stroke-opacity="1.0"  filling="0" d="M14.36784553527832 11.756181716918945 L14.36784553527832 11.756181716918945 C14.774216651916504 12.187438011169434 14.253387451171875 13.121403694152832 13.804609298706055 12.4973726272583 L13.804609298706055 12.4973726272583 C13.861654281616211 12.4973726272583 13.918700218200684 12.4973726272583 13.97574520111084 12.4973726272583 L13.97574520111084 12.4973726272583 C13.996817588806152 12.533517837524414 14.017890930175781 12.569664001464844 14.038963317871094 12.605809211730957 L14.038963317871094 12.605809211730957 C14.103163719177246 12.594645500183105 14.167363166809082 12.58348274230957 14.231563568115234 12.572319030761719 L14.231563568115234 12.572319030761719 C14.231563568115234 12.509700775146484 14.231563568115234 12.44708251953125 14.231563568115234 12.384464263916016 L14.231563568115234 12.384464263916016 C13.696087837219238 12.580277442932129 13.689661979675293 12.010154724121094 14.21449089050293 11.797281265258789 L14.21449089050293 11.797281265258789 C14.265608787536621 11.783581733703613 14.316727638244629 11.769881248474121 14.36784553527832 11.756181716918945 L14.36784553527832 11.756181716918945"></path>
<path fill="none" stroke="black" stroke-width=".3" stroke-opacity="1.0"  filling="0" d="M14.011691093444824 11.938936233520508 L14.011691093444824 11.938936233520508 C14.488510131835938 11.992734909057617 14.010220527648926 12.612499237060547 14.011691093444824 11.938936233520508 L14.011691093444824 11.938936233520508"></path></svg>