<svg xmlns="http://www.w3.org/2000/svg" viewBox="0.0 0.0 24.0 24.0" height="200px" width="200px"><path fill="none" stroke="black" stroke-width=".3" stroke-opacity="1.0"  filling="0" d="M12.779182434082031 11.547054290771484 L12.779182434082031 11.547054290771484 C12.78911304473877 11.639605522155762 12.869054794311523 11.716451644897461 12.942627906799316 11.773472785949707 L12.942627906799316 11.773472785949707 C12.932770729064941 11.819350242614746 12.938484191894531 11.868303298950195 12.948628425598145 11.914118766784668 L12.948628425598145 11.914118766784668 C12.896037101745605 11.908801078796387 12.843446731567383 11.903482437133789 12.790855407714844 11.898164749145508 L12.790855407714844 11.898164749145508 C12.790871620178223 12.054914474487305 12.847818374633789 12.221163749694824 12.948709487915039 12.3411283493042 L12.948709487915039 12.3411283493042 C12.948709487915039 12.38187313079834 12.948709487915039 12.422618865966797 12.948709487915039 12.463363647460938 L12.948709487915039 12.463363647460938 C12.428544998168945 12.46107292175293 12.770294189453125 12.055356979370117 12.444954872131348 11.880000114440918 L12.444954872131348 11.880000114440918 C12.444954872131348 11.848845481872559 12.444954872131348 11.8176908493042 12.444954872131348 11.78653621673584 L12.444954872131348 11.78653621673584 C12.555971145629883 11.706164360046387 12.667383193969727 11.626334190368652 12.779182434082031 11.547054290771484 L12.779182434082031 11.547054290771484"></path></svg>