<svg xmlns="http://www.w3.org/2000/svg" viewBox="0.0 0.0 24.0 24.0" height="200px" width="200px"><path fill="none" stroke="black" stroke-width=".3" stroke-opacity="1.0"  filling="0" d="M9.272727966308594 11.742109298706055 L9.272727966308594 11.742109298706055 C9.271692276000977 12.18993091583252 9.333723068237305 12.847485542297363 8.672727584838867 12.654545783996582 L8.672727584838867 12.654545783996582 C8.672727584838867 12.600000381469727 8.672727584838867 12.545454978942871 8.672727584838867 12.490909576416016 L8.672727584838867 12.490909576416016 C8.713900566101074 12.490909576416016 8.755072593688965 12.490909576416016 8.796245574951172 12.490909576416016 L8.796245574951172 12.490909576416016 C8.872236251831055 12.535823822021484 9.014742851257324 12.475983619689941 9.041891098022461 12.391990661621094 L9.041891098022461 12.391990661621094 C8.91883659362793 12.388599395751953 8.795782089233398 12.385209083557129 8.672727584838867 12.381817817687988 L8.672727584838867 12.381817817687988 C8.672727584838867 12.199999809265137 8.672727584838867 12.018181800842285 8.672727584838867 11.836363792419434 L8.672727584838867 11.836363792419434 C8.788591384887695 11.820627212524414 8.904454231262207 11.804891586303711 9.020318031311035 11.789155006408691 L9.020318031311035 11.789155006408691 C9.10445499420166 11.773472785949707 9.188591003417969 11.757791519165039 9.272727966308594 11.742109298706055 L9.272727966308594 11.742109298706055"></path>
<path fill="none" stroke="black" stroke-width=".3" stroke-opacity="1.0"  filling="0" d="M8.82880973815918 11.940054893493652 L8.82880973815918 11.940054893493652 C9.301691055297852 11.992700576782227 8.837749481201172 12.615331649780273 8.82880973815918 11.940054893493652 L8.82880973815918 11.940054893493652"></path></svg>