<svg xmlns="http://www.w3.org/2000/svg" viewBox="0.0 0.0 24.0 24.0" height="200px" width="200px"><path fill="none" stroke="black" stroke-width=".3" stroke-opacity="1.0"  filling="0" d="M10.4189453125 11.782363891601562 L10.4189453125 11.782363891601562 C10.638605117797852 11.90847396850586 10.77193546295166 12.201569557189941 10.772700309753418 12.454854965209961 L10.772700309753418 12.454854965209961 C10.709063529968262 12.454854965209961 10.645427703857422 12.454854965209961 10.581790924072266 12.454854965209961 L10.581790924072266 12.454854965209961 C10.581790924072266 11.84686279296875 10.310539245605469 11.780035018920898 10.309062957763672 12.451226234436035 L10.309062957763672 12.451226234436035 C10.015878677368164 12.218328475952148 9.849894523620605 11.499700546264648 9.845427513122559 12.457389831542969 L9.845427513122559 12.457389831542969 C9.784900665283203 12.457389831542969 9.724372863769531 12.457389831542969 9.663846015930176 12.457389831542969 L9.663846015930176 12.457389831542969 C9.663846015930176 12.233545303344727 9.663846015930176 12.009699821472168 9.663846015930176 11.785855293273926 L9.663846015930176 11.785855293273926 C9.72061824798584 11.785855293273926 9.77739143371582 11.785855293273926 9.834163665771484 11.785855293273926 L9.834163665771484 11.785855293273926 C9.840999603271484 11.807600975036621 9.8478364944458 11.829345703125 9.8546724319458 11.851091384887695 L9.8546724319458 11.851091384887695 C9.996445655822754 11.854154586791992 10.13821792602539 11.857218742370605 10.279991149902344 11.860281944274902 L10.279991149902344 11.860281944274902 C10.326309204101562 11.834309577941895 10.372627258300781 11.80833625793457 10.4189453125 11.782363891601562 L10.4189453125 11.782363891601562"></path></svg>