<svg xmlns="http://www.w3.org/2000/svg" viewBox="0.0 0.0 24.0 24.0" height="200px" width="200px"><path fill="none" stroke="black" stroke-width=".3" stroke-opacity="1.0"  filling="0" d="M7.527272701263428 11.727272987365723 L7.527272701263428 11.727272987365723 C7.6092634201049805 11.758527755737305 7.691254615783691 11.78978157043457 7.773245334625244 11.821036338806152 L7.773245334625244 11.821036338806152 C7.845554351806641 11.796036720275879 7.917863368988037 11.771036148071289 7.990172386169434 11.746036529541016 L7.990172386169434 11.746036529541016 C7.989073753356934 12.146990776062012 8.0811767578125 12.680656433105469 7.5272722244262695 12.681844711303711 L7.5272722244262695 12.681844711303711 C7.5272722244262695 12.627299308776855 7.5272722244262695 12.57275390625 7.5272722244262695 12.518208503723145 L7.5272722244262695 12.518208503723145 C7.618373394012451 12.534802436828613 7.7434773445129395 12.466381072998047 7.766290664672852 12.376635551452637 L7.766290664672852 12.376635551452637 C7.686617851257324 12.387462615966797 7.606945514678955 12.398289680480957 7.527272701263428 12.409116744995117 L7.527272701263428 12.409116744995117 C7.527272701263428 12.345480918884277 7.527272701263428 12.281844139099121 7.527272701263428 12.218208312988281 L7.527272701263428 12.218208312988281 C7.879357814788818 12.266386985778809 7.879309177398682 11.869924545288086 7.5273003578186035 11.918208122253418 L7.5273003578186035 11.918208122253418 C7.527291297912598 11.854562759399414 7.527281761169434 11.790918350219727 7.527272701263428 11.727272987365723 L7.527272701263428 11.727272987365723"></path></svg>