<svg xmlns="http://www.w3.org/2000/svg" viewBox="0.0 0.0 24.0 24.0" height="200px" width="200px"><path fill="none" stroke="black" stroke-width=".3" stroke-opacity="1.0"  filling="0" d="M13.798200607299805 11.764663696289062 L13.798200607299805 11.764663696289062 C13.94015884399414 11.99554443359375 13.901183128356934 12.183650970458984 13.927091598510742 12.445609092712402 L13.927091598510742 12.445609092712402 C13.847418785095215 12.43130874633789 13.767745018005371 12.417009353637695 13.688072204589844 12.402709007263184 L13.688072204589844 12.402709007263184 C13.152445793151855 12.478765487670898 13.240238189697266 12.07870101928711 13.699853897094727 12.01535415649414 L13.699853897094727 12.01535415649414 C13.674739837646484 11.947386741638184 13.543834686279297 11.915518760681152 13.488926887512207 11.962799072265625 L13.488926887512207 11.962799072265625 C13.433863639831543 11.962799072265625 13.378799438476562 11.962799072265625 13.323736190795898 11.962799072265625 L13.323736190795898 11.962799072265625 C13.411202430725098 11.815406799316406 13.626846313476562 11.768219947814941 13.798200607299805 11.764663696289062 L13.798200607299805 11.764663696289062"></path>
<path fill="none" stroke="black" stroke-width=".3" stroke-opacity="1.0"  filling="0" d="M13.676918029785156 12.109910011291504 L13.676918029785156 12.109910011291504 C13.702375411987305 12.363639831542969 13.563359260559082 12.390594482421875 13.44807243347168 12.177164077758789 L13.44807243347168 12.177164077758789 C13.524353981018066 12.154746055603027 13.60063648223877 12.132328033447266 13.676918029785156 12.109910011291504 L13.676918029785156 12.109910011291504"></path></svg>