<svg xmlns="http://www.w3.org/2000/svg" viewBox="0.0 0.0 24.0 24.0" height="200px" width="200px"><path fill="none" stroke="black" stroke-width=".3" stroke-opacity="1.0"  filling="0" d="M8.804100036621094 11.482826232910156 L8.804100036621094 11.482826232910156 C8.804100036621094 11.616372108459473 8.804100036621094 11.749917030334473 8.804100036621094 11.883462905883789 L8.804100036621094 11.883462905883789 C8.936591148376465 11.883462905883789 9.06908130645752 11.883462905883789 9.20157241821289 11.883462905883789 L9.20157241821289 11.883462905883789 C9.216635704040527 11.929107666015625 9.23169994354248 11.974753379821777 9.246763229370117 12.020398139953613 L9.246763229370117 12.020398139953613 C9.108108520507812 12.02495288848877 8.969454765319824 12.029508590698242 8.83080005645752 12.034063339233398 L8.83080005645752 12.034063339233398 C8.820809364318848 12.173945426940918 8.810818672180176 12.313826560974121 8.800827980041504 12.45370864868164 L8.800827980041504 12.45370864868164 C8.760409355163574 12.457690238952637 8.719991683959961 12.461671829223633 8.679573059082031 12.465653419494629 L8.679573059082031 12.465653419494629 C8.679573059082031 12.337080955505371 8.679573059082031 12.208508491516113 8.679573059082031 12.079936027526855 L8.679573059082031 12.079936027526855 C8.543473243713379 12.058490753173828 8.40737247467041 12.037044525146484 8.271272659301758 12.015599250793457 L8.271272659301758 12.015599250793457 C8.269036293029785 11.975699424743652 8.266800880432129 11.935798645019531 8.264564514160156 11.895898818969727 L8.264564514160156 11.895898818969727 C8.3983736038208 11.895898818969727 8.532181739807129 11.895898818969727 8.665990829467773 11.895898818969727 L8.665990829467773 11.895898818969727 C8.665990829467773 11.760762214660645 8.665990829467773 11.625626564025879 8.665990829467773 11.490489959716797 L8.665990829467773 11.490489959716797 C8.712027549743652 11.487935066223145 8.758063316345215 11.485381126403809 8.804100036621094 11.482826232910156 L8.804100036621094 11.482826232910156"></path></svg>