<svg xmlns="http://www.w3.org/2000/svg" viewBox="0.0 0.0 24.0 24.0" height="200px" width="200px"><path fill="none" stroke="black" stroke-width=".3" stroke-opacity="1.0"  filling="0" d="M12.452264785766602 11.7373628616333 L12.452264785766602 11.7373628616333 C12.510446548461914 11.804235458374023 12.568628311157227 11.871109008789062 12.626810073852539 11.937981605529785 L12.626810073852539 11.937981605529785 C12.568373680114746 11.937981605529785 12.509936332702637 11.937981605529785 12.451499938964844 11.937981605529785 L12.451499938964844 11.937981605529785 C12.387164115905762 11.91569995880127 12.322827339172363 11.893418312072754 12.258491516113281 11.871136665344238 L12.258491516113281 11.871136665344238 C12.485215187072754 12.283686637878418 12.272485733032227 12.795454978942871 12.010527610778809 12.22606372833252 L12.010527610778809 12.22606372833252 C12.072245597839355 12.22606372833252 12.133963584899902 12.22606372833252 12.19568157196045 12.22606372833252 L12.19568157196045 12.22606372833252 C12.285218238830566 12.222236633300781 12.374754905700684 12.218408584594727 12.4642915725708 12.214581489562988 L12.4642915725708 12.214581489562988 C12.029862403869629 12.043489456176758 11.904587745666504 11.907937049865723 12.452264785766602 11.7373628616333 L12.452264785766602 11.7373628616333"></path></svg>