<svg xmlns="http://www.w3.org/2000/svg" viewBox="0.0 0.0 24.0 24.0" height="200px" width="200px"><path fill="none" stroke="black" stroke-width=".3" stroke-opacity="1.0"  filling="0" d="M13.286564826965332 11.794418334960938 L13.286564826965332 11.794418334960938 C13.560261726379395 11.795963287353516 13.824828147888184 12.13878059387207 13.82713794708252 12.412471771240234 L13.82713794708252 12.412471771240234 C13.341262817382812 12.755022048950195 12.913270950317383 12.033014297485352 13.647573471069336 12.027490615844727 L13.647573471069336 12.027490615844727 C13.633718490600586 11.976136207580566 13.619864463806152 11.924781799316406 13.606009483337402 11.873427391052246 L13.606009483337402 11.873427391052246 C13.537200927734375 11.905099868774414 13.468391418457031 11.936773300170898 13.399582862854004 11.968445777893066 L13.399582862854004 11.968445777893066 C13.335373878479004 11.968445777893066 13.271163940429688 11.968445777893066 13.206954956054688 11.968445777893066 L13.206954956054688 11.968445777893066 C13.233491897583008 11.910436630249023 13.260027885437012 11.85242748260498 13.286564826965332 11.794418334960938 L13.286564826965332 11.794418334960938"></path>
<path fill="none" stroke="black" stroke-width=".3" stroke-opacity="1.0"  filling="0" d="M13.622454643249512 12.13693618774414 L13.622454643249512 12.13693618774414 C13.59951400756836 12.22913932800293 13.451590538024902 12.276960372924805 13.36060905456543 12.24957275390625 L13.36060905456543 12.24957275390625 C13.447891235351562 12.212027549743652 13.535172462463379 12.174481391906738 13.622454643249512 12.13693618774414 L13.622454643249512 12.13693618774414"></path></svg>