<svg xmlns="http://www.w3.org/2000/svg" viewBox="0.0 0.0 24.0 24.0" height="200px" width="200px"><path fill="none" stroke="black" stroke-width=".3" stroke-opacity="1.0"  filling="0" d="M10.90652847290039 11.865079879760742 L10.90652847290039 11.865079879760742 C11.178330421447754 11.914366722106934 11.264070510864258 11.87649917602539 11.551228523254395 11.966971397399902 L11.551228523254395 11.966971397399902 C12.022278785705566 11.544910430908203 12.022913932800293 12.344714164733887 12.024600982666016 12.547962188720703 L12.024600982666016 12.547962188720703 C11.96247386932373 12.552989959716797 11.900345802307129 12.558016777038574 11.838218688964844 12.563044548034668 L11.838218688964844 12.563044548034668 C11.838218688964844 12.390308380126953 11.838218688964844 12.217571258544922 11.838218688964844 12.044835090637207 L11.838218688964844 12.044835090637207 C11.798291206359863 12.023634910583496 11.7583646774292 12.002434730529785 11.718437194824219 11.981234550476074 L11.718437194824219 11.981234550476074 C11.610858917236328 12.147686004638672 11.564200401306152 12.357110023498535 11.563636779785156 12.555299758911133 L11.563636779785156 12.555299758911133 C11.50644588470459 12.555299758911133 11.449254989624023 12.555299758911133 11.392064094543457 12.555299758911133 L11.392064094543457 12.555299758911133 C11.373272895812988 12.371636390686035 11.354482650756836 12.187972068786621 11.335691452026367 12.004308700561523 L11.335691452026367 12.004308700561523 C11.27386474609375 12.004308700561523 11.212037086486816 12.004308700561523 11.1502103805542 12.004308700561523 L11.1502103805542 12.004308700561523 C11.123387336730957 12.238306999206543 11.221858024597168 12.505857467651367 10.929055213928223 12.564108848571777 L10.929055213928223 12.564108848571777 C10.92154598236084 12.331099510192871 10.914037704467773 12.098089218139648 10.90652847290039 11.865079879760742 L10.90652847290039 11.865079879760742"></path></svg>