<svg xmlns="http://www.w3.org/2000/svg" viewBox="0.0 0.0 24.0 24.0" height="200px" width="200px"><path fill="none" stroke="black" stroke-width=".3" stroke-opacity="1.0"  filling="0" d="M12.03736400604248 11.754873275756836 L12.03736400604248 11.754873275756836 C12.140191078186035 11.890591621398926 12.24301815032959 12.0263090133667 12.345845222473145 12.162027359008789 L12.345845222473145 12.162027359008789 C12.197999954223633 12.162027359008789 12.050154685974121 12.162027359008789 11.90230941772461 12.162027359008789 L11.90230941772461 12.162027359008789 C11.989855766296387 12.440451622009277 12.08815860748291 12.324928283691406 12.342981338500977 12.248346328735352 L12.342981338500977 12.248346328735352 C11.754997253417969 12.65781021118164 11.549333572387695 12.223069190979004 12.03736400604248 11.754873275756836 L12.03736400604248 11.754873275756836"></path>
<path fill="none" stroke="black" stroke-width=".3" stroke-opacity="1.0"  filling="0" d="M11.94237232208252 11.900862693786621 L11.94237232208252 11.900862693786621 C12.014763832092285 11.940317153930664 12.087154388427734 11.979772567749023 12.1595458984375 12.019227027893066 L12.1595458984375 12.019227027893066 C12.068373680114746 12.019227027893066 11.977200508117676 12.019227027893066 11.886028289794922 12.019227027893066 L11.886028289794922 12.019227027893066 C11.904809951782227 11.979772567749023 11.923590660095215 11.940317153930664 11.94237232208252 11.900862693786621 L11.94237232208252 11.900862693786621"></path></svg>