<svg xmlns="http://www.w3.org/2000/svg" viewBox="0.0 0.0 24.0 24.0" height="200px" width="200px"><path fill="none" stroke="black" stroke-width=".3" stroke-opacity="1.0"  filling="0" d="M12.554618835449219 11.786619186401367 L12.554618835449219 11.786619186401367 C12.750202178955078 12.036744117736816 12.930018424987793 12.168314933776855 12.769580841064453 12.524808883666992 L12.769580841064453 12.524808883666992 C12.357542991638184 12.440229415893555 11.762743949890137 12.188222885131836 12.599044799804688 12.066327095031738 L12.599044799804688 12.066327095031738 C12.590699195861816 12.018681526184082 12.582354545593262 11.971036911010742 12.57400894165039 11.923391342163086 L12.57400894165039 11.923391342163086 C12.521163940429688 11.923391342163086 12.468317985534668 11.923391342163086 12.415472984313965 11.923391342163086 L12.415472984313965 11.923391342163086 C12.393027305603027 11.955845832824707 12.370582580566406 11.988300323486328 12.348136901855469 12.02075481414795 L12.348136901855469 12.02075481414795 C12.288200378417969 12.02075481414795 12.228263854980469 12.02075481414795 12.168327331542969 12.02075481414795 L12.168327331542969 12.02075481414795 C12.297091484069824 11.942709922790527 12.425854682922363 11.864664077758789 12.554618835449219 11.786619186401367 L12.554618835449219 11.786619186401367"></path>
<path fill="none" stroke="black" stroke-width=".3" stroke-opacity="1.0"  filling="0" d="M12.540900230407715 12.194209098815918 L12.540900230407715 12.194209098815918 C12.559118270874023 12.242945671081543 12.577337265014648 12.291681289672852 12.595555305480957 12.340417861938477 L12.595555305480957 12.340417861938477 C12.281180381774902 12.360840797424316 12.24476432800293 12.276137351989746 12.540900230407715 12.194209098815918 L12.540900230407715 12.194209098815918"></path></svg>