<svg xmlns="http://www.w3.org/2000/svg" viewBox="0.0 0.0 24.0 24.0" height="200px" width="200px"><path fill="none" stroke="black" stroke-width=".3" stroke-opacity="1.0"  filling="0" d="M12.367716789245605 11.590991020202637 L12.367716789245605 11.590991020202637 C12.615201950073242 11.856273651123047 12.461389541625977 11.975678443908691 12.679363250732422 12.203099250793457 L12.679363250732422 12.203099250793457 C12.679363250732422 12.250163078308105 12.679363250732422 12.297226905822754 12.679363250732422 12.344290733337402 L12.679363250732422 12.344290733337402 C12.58173656463623 12.463217735290527 12.545726776123047 12.572256088256836 12.388880729675293 12.572126388549805 L12.388880729675293 12.572126388549805 C12.384516716003418 12.500662803649902 12.38015365600586 12.429200172424316 12.375789642333984 12.357736587524414 L12.375789642333984 12.357736587524414 C12.23721694946289 12.357736587524414 12.098644256591797 12.357736587524414 11.960071563720703 12.357736587524414 L11.960071563720703 12.357736587524414 C12.010613441467285 12.085125923156738 12.156322479248047 11.835923194885254 12.29871654510498 11.598026275634766 L12.29871654510498 11.598026275634766 C12.32171630859375 11.595681190490723 12.344717025756836 11.59333610534668 12.367716789245605 11.590991020202637 L12.367716789245605 11.590991020202637"></path>
<path fill="none" stroke="black" stroke-width=".3" stroke-opacity="1.0"  filling="0" d="M12.349663734436035 11.792317390441895 L12.349663734436035 11.792317390441895 C12.360045433044434 11.794471740722656 12.370428085327148 11.796627044677734 12.380809783935547 11.798781394958496 L12.380809783935547 11.798781394958496 C12.379264831542969 11.954547882080078 12.281044960021973 12.187545776367188 12.125290870666504 12.1900634765625 L12.125290870666504 12.1900634765625 C12.200081825256348 12.05748176574707 12.274872779846191 11.924899101257324 12.349663734436035 11.792317390441895 L12.349663734436035 11.792317390441895"></path></svg>