<svg xmlns="http://www.w3.org/2000/svg" viewBox="0.0 0.0 24.0 24.0" height="200px" width="200px"><path fill="none" stroke="black" stroke-width=".3" stroke-opacity="1.0"  filling="0" d="M9.909954071044922 11.857771873474121 L9.909954071044922 11.857771873474121 C10.108834266662598 12.063589096069336 10.322957038879395 12.216835975646973 10.11801815032959 12.55933666229248 L10.11801815032959 12.55933666229248 C10.061945915222168 12.55933666229248 10.00587272644043 12.55933666229248 9.949800491333008 12.55933666229248 L9.949800491333008 12.55933666229248 C9.946761131286621 11.463057518005371 9.754234313964844 12.540441513061523 9.4909086227417 12.567981719970703 L9.4909086227417 12.567981719970703 C9.490572929382324 11.84996509552002 9.22041130065918 11.96139907836914 9.218154907226562 12.532635688781738 L9.218154907226562 12.532635688781738 C9.168354988098145 12.544690132141113 9.11855411529541 12.556745529174805 9.068754196166992 12.56879997253418 L9.068754196166992 12.56879997253418 C9.059036254882812 12.335963249206543 9.049318313598633 12.103127479553223 9.039600372314453 11.870290756225586 L9.039600372314453 11.870290756225586 C9.094727516174316 11.870290756225586 9.14985466003418 11.870290756225586 9.204981803894043 11.870290756225586 L9.204981803894043 11.870290756225586 C9.213590621948242 11.890809059143066 9.222199440002441 11.91132640838623 9.23080825805664 11.931844711303711 L9.23080825805664 11.931844711303711 C9.540903091430664 11.929036140441895 9.643808364868164 11.934978485107422 9.909954071044922 11.857771873474121 L9.909954071044922 11.857771873474121"></path></svg>