<svg xmlns="http://www.w3.org/2000/svg" viewBox="0.0 0.0 24.0 24.0" height="200px" width="200px"><path fill="none" stroke="black" stroke-width=".3" stroke-opacity="1.0"  filling="0" d="M14.17456340789795 11.643681526184082 L14.17456340789795 11.643681526184082 C14.178736686706543 11.713699340820312 14.18290901184082 11.78371810913086 14.187082290649414 11.85373592376709 L14.187082290649414 11.85373592376709 C14.227981567382812 11.859935760498047 14.268881797790527 11.86613655090332 14.309781074523926 11.872336387634277 L14.309781074523926 11.872336387634277 C14.309781074523926 11.913146018981934 14.309781074523926 11.953954696655273 14.309781074523926 11.99476432800293 L14.309781074523926 11.99476432800293 C14.268954277038574 11.998318672180176 14.228126525878906 12.001873016357422 14.187299728393555 12.005427360534668 L14.187299728393555 12.005427360534668 C14.187299728393555 12.137100219726562 14.187299728393555 12.268773078918457 14.187299728393555 12.400445938110352 L14.187299728393555 12.400445938110352 C14.234618186950684 12.405509948730469 14.281935691833496 12.41057300567627 14.329254150390625 12.415637016296387 L14.329254150390625 12.415637016296387 C14.025235176086426 12.816082000732422 13.95792007446289 12.218939781188965 13.984171867370605 11.984945297241211 L13.984171867370605 11.984945297241211 C13.659095764160156 12.072196960449219 13.642988204956055 12.571939468383789 13.522200584411621 12.574145317077637 C13.323339462280273 12.577776908874512 13.436250686645508 12.00212287902832 13.42789077758789 11.873044967651367 L13.42789077758789 11.873044967651367 C13.48358154296875 11.873044967651367 13.53927230834961 11.873044967651367 13.594963073730469 11.873044967651367 L13.594963073730469 11.873044967651367 C13.60370922088623 11.892172813415527 13.612454414367676 11.911299705505371 13.621200561523438 11.930427551269531 L13.621200561523438 11.930427551269531 C13.739754676818848 11.900118827819824 13.858309745788574 11.8698091506958 13.976863861083984 11.839500427246094 L13.976863861083984 11.839500427246094 C14.042763710021973 11.774227142333984 14.108663558959961 11.708954811096191 14.17456340789795 11.643681526184082 L14.17456340789795 11.643681526184082"></path></svg>