<svg xmlns="http://www.w3.org/2000/svg" viewBox="0.0 0.0 24.0 24.0" height="200px" width="200px"><path fill="none" stroke="black" stroke-width=".3" stroke-opacity="1.0"  filling="0" d="M11.402236938476562 11.796109199523926 L11.402236938476562 11.796109199523926 C11.521382331848145 11.796109199523926 11.64052677154541 11.796109199523926 11.759672164916992 11.796109199523926 L11.759672164916992 11.796109199523926 C11.768054008483887 11.825027465820312 11.776436805725098 11.8539457321167 11.784818649291992 11.882863998413086 L11.784818649291992 11.882863998413086 C11.739818572998047 11.88782787322998 11.694817543029785 11.892790794372559 11.64981746673584 11.897754669189453 L11.64981746673584 11.897754669189453 C11.64981746673584 11.987873077392578 11.649818420410156 12.077990531921387 11.649818420410156 12.168108940124512 L11.649818420410156 12.168108940124512 C11.57872486114502 12.109390258789062 11.558001518249512 11.99522876739502 11.568709373474121 11.903645515441895 L11.568709373474121 11.903645515441895 C11.514663696289062 11.896581649780273 11.460618019104004 11.889518737792969 11.406572341918945 11.882454872131348 L11.406572341918945 11.882454872131348 C11.40512752532959 11.853672981262207 11.403681755065918 11.824891090393066 11.402236938476562 11.796109199523926 L11.402236938476562 11.796109199523926"></path></svg>