<svg xmlns="http://www.w3.org/2000/svg" viewBox="0.0 0.0 24.0 24.0" height="200px" width="200px"><path fill="none" stroke="black" stroke-width=".3" stroke-opacity="1.0"  filling="0" d="M12.982636451721191 11.556681632995605 L12.982636451721191 11.556681632995605 C12.982636451721191 11.627944946289062 12.982636451721191 11.699209213256836 12.982636451721191 11.770472526550293 L12.982636451721191 11.770472526550293 C13.034518241882324 11.777027130126953 13.086400032043457 11.783581733703613 13.13828182220459 11.790136337280273 L13.13828182220459 11.790136337280273 C13.140209197998047 11.830591201782227 13.142136573791504 11.871045112609863 13.144063949584961 11.911499977111816 L13.144063949584961 11.911499977111816 C13.09000015258789 11.916081428527832 13.03593635559082 11.920663833618164 12.98187255859375 11.92524528503418 L12.98187255859375 11.92524528503418 C12.982085227966309 12.075273513793945 13.027813911437988 12.25111198425293 13.145072937011719 12.34469985961914 L13.145072937011719 12.34469985961914 C13.144917488098145 12.39109992980957 13.143503189086914 12.437625885009766 13.138336181640625 12.483736991882324 L13.138336181640625 12.483736991882324 C12.7765474319458 12.520442008972168 12.790243148803711 12.149504661560059 12.790936470031738 11.930373191833496 L12.790936470031738 11.930373191833496 C12.748054504394531 11.923382759094238 12.705172538757324 11.916391372680664 12.662290573120117 11.909400939941406 L12.662290573120117 11.909400939941406 C12.659835815429688 11.869328498840332 12.657382011413574 11.829255104064941 12.654927253723145 11.789182662963867 L12.654927253723145 11.789182662963867 C12.699590682983398 11.784491539001465 12.744254112243652 11.779801368713379 12.788917541503906 11.775110244750977 L12.788917541503906 11.775110244750977 C12.853490829467773 11.702301025390625 12.918063163757324 11.629490852355957 12.982636451721191 11.556681632995605 L12.982636451721191 11.556681632995605"></path></svg>