<svg xmlns="http://www.w3.org/2000/svg" viewBox="0.0 0.0 24.0 24.0" height="200px" width="200px"><path fill="none" stroke="black" stroke-width=".3" stroke-opacity="1.0"  filling="0" d="M11.841845512390137 11.782445907592773 L11.841845512390137 11.782445907592773 C12.01344108581543 11.953248977661133 12.025883674621582 12.242770195007324 12.02664566040039 12.484881401062012 L12.02664566040039 12.484881401062012 C11.96320915222168 12.484881401062012 11.899773597717285 12.484881401062012 11.836337089538574 12.484881401062012 L11.836337089538574 12.484881401062012 C11.835472106933594 11.801411628723145 11.611451148986816 11.817505836486816 11.558618545532227 12.481226921081543 L11.558618545532227 12.481226921081543 C11.320334434509277 12.296463012695312 11.466172218322754 11.838825225830078 11.125555038452148 11.985627174377441 L11.125555038452148 11.985627174377441 C11.125555038452148 12.1520357131958 11.125555038452148 12.318445205688477 11.125555038452148 12.484853744506836 L11.125555038452148 12.484853744506836 C11.065572738647461 12.484853744506836 11.00559139251709 12.484853744506836 10.945609092712402 12.484853744506836 L10.945609092712402 12.484853744506836 C10.945609092712402 12.252381324768066 10.945609092712402 12.01990795135498 10.945609092712402 11.787435531616211 L10.945609092712402 11.787435531616211 C11.011600494384766 11.813054084777832 11.077590942382812 11.838671684265137 11.143582344055176 11.864290237426758 L11.143582344055176 11.864290237426758 C11.2827730178833 11.873517990112305 11.421964645385742 11.882744789123535 11.561155319213867 11.891972541809082 L11.561155319213867 11.891972541809082 C11.654718399047852 11.855463981628418 11.748282432556152 11.818954467773438 11.841845512390137 11.782445907592773 L11.841845512390137 11.782445907592773"></path></svg>