<svg xmlns="http://www.w3.org/2000/svg" viewBox="0.0 0.0 24.0 24.0" height="200px" width="200px"><path fill="none" stroke="black" stroke-width=".3" stroke-opacity="1.0"  filling="0" d="M16.029380798339844 11.7296724319458 L16.029380798339844 11.7296724319458 C16.505813598632812 11.804186820983887 16.415618896484375 11.95451831817627 16.4177188873291 12.441900253295898 L16.4177188873291 12.441900253295898 C16.02998161315918 12.378807067871094 15.373181343078613 12.00670051574707 16.187755584716797 11.999946594238281 L16.187755584716797 11.999946594238281 C16.173166275024414 11.926387786865234 16.03743553161621 11.905550003051758 15.970882415771484 11.94011116027832 L15.970882415771484 11.94011116027832 C15.910927772521973 11.940101623535156 15.850972175598145 11.940092086791992 15.791017532348633 11.940082550048828 L15.791017532348633 11.940082550048828 C15.870471954345703 11.869945526123047 15.949926376342773 11.799809455871582 16.029380798339844 11.7296724319458 L16.029380798339844 11.7296724319458"></path>
<path fill="none" stroke="black" stroke-width=".3" stroke-opacity="1.0"  filling="0" d="M16.194791793823242 12.08871841430664 L16.194791793823242 12.08871841430664 C16.194791793823242 12.147363662719727 16.194791793823242 12.206008911132812 16.194791793823242 12.264654159545898 L16.194791793823242 12.264654159545898 C16.115800857543945 12.232608795166016 16.03680992126465 12.200562477111816 15.957818031311035 12.168517112731934 L15.957818031311035 12.168517112731934 C16.03680992126465 12.14191722869873 16.115800857543945 12.115318298339844 16.194791793823242 12.08871841430664 L16.194791793823242 12.08871841430664"></path></svg>