<svg xmlns="http://www.w3.org/2000/svg" viewBox="0.0 0.0 24.0 24.0" height="200px" width="200px"><path fill="none" stroke="black" stroke-width=".3" stroke-opacity="1.0"  filling="0" d="M11.360427856445312 11.782036781311035 L11.360427856445312 11.782036781311035 C11.426590919494629 11.819172859191895 11.492754936218262 11.85630989074707 11.558917999267578 11.89344596862793 L11.558917999267578 11.89344596862793 C11.809293746948242 11.87759780883789 12.02724552154541 12.23173999786377 12.02724552154541 12.482617378234863 L12.02724552154541 12.482617378234863 C11.963627815246582 12.482617378234863 11.900009155273438 12.482617378234863 11.83639144897461 12.482617378234863 L11.83639144897461 12.482617378234863 C11.83633804321289 12.287363052368164 11.792781829833984 12.053236961364746 11.641008377075195 11.930398941040039 L11.641008377075195 11.930398941040039 C11.606163024902344 12.11535358428955 11.571318626403809 12.300308227539062 11.536473274230957 12.485262870788574 L11.536473274230957 12.485262870788574 C11.148841857910156 12.521783828735352 11.617013931274414 11.897414207458496 11.124735832214355 11.963099479675293 L11.124735832214355 11.963099479675293 C11.124735832214355 12.137126922607422 11.124735832214355 12.311153411865234 11.124735832214355 12.485180854797363 L11.124735832214355 12.485180854797363 C11.062171936035156 12.485180854797363 10.999608993530273 12.485180854797363 10.937045097351074 12.485180854797363 L10.937045097351074 12.485180854797363 C10.937045097351074 12.259417533874512 10.937045097351074 12.033653259277344 10.937045097351074 11.807889938354492 L10.937045097351074 11.807889938354492 C11.00245475769043 11.818599700927734 11.067863464355469 11.82930850982666 11.133273124694824 11.840018272399902 L11.133273124694824 11.840018272399902 C11.208991050720215 11.820691108703613 11.284709930419922 11.801363945007324 11.360427856445312 11.782036781311035 L11.360427856445312 11.782036781311035"></path></svg>