<svg xmlns="http://www.w3.org/2000/svg" viewBox="0.0 0.0 24.0 24.0" height="200px" width="200px"><path fill="none" stroke="black" stroke-width=".3" stroke-opacity="1.0"  filling="0" d="M12.825491905212402 11.728389739990234 L12.825491905212402 11.728389739990234 C13.259639739990234 11.779451370239258 13.170751571655273 12.049924850463867 13.172073364257812 12.44825553894043 L13.172073364257812 12.44825553894043 C12.74761962890625 12.361319541931152 12.138747215270996 12.106450080871582 12.985145568847656 11.987671852111816 L12.985145568847656 11.987671852111816 C12.973800659179688 11.940571784973145 12.962454795837402 11.893471717834473 12.951109886169434 11.8463716506958 L12.951109886169434 11.8463716506958 C12.884428024291992 11.877907752990723 12.817747116088867 11.909444808959961 12.751065254211426 11.940980911254883 L12.751065254211426 11.940980911254883 C12.685392379760742 11.940980911254883 12.619719505310059 11.940980911254883 12.554046630859375 11.940980911254883 L12.554046630859375 11.940980911254883 C12.64452838897705 11.8701171875 12.735010147094727 11.799253463745117 12.825491905212402 11.728389739990234 L12.825491905212402 11.728389739990234"></path>
<path fill="none" stroke="black" stroke-width=".3" stroke-opacity="1.0"  filling="0" d="M12.883828163146973 12.109254837036133 L12.883828163146973 12.109254837036133 C13.138042449951172 12.318522453308105 12.47127914428711 12.419379234313965 12.883828163146973 12.109254837036133 L12.883828163146973 12.109254837036133"></path></svg>