<svg xmlns="http://www.w3.org/2000/svg" viewBox="0.0 0.0 24.0 24.0" height="200px" width="200px"><path fill="none" stroke="black" stroke-width=".3" stroke-opacity="1.0"  filling="0" d="M15.511390686035156 11.540371894836426 L15.511390686035156 11.540371894836426 C15.515782356262207 11.601144790649414 15.520173072814941 11.661917686462402 15.524564743041992 11.72269058227539 L15.524564743041992 11.72269058227539 C15.573945999145508 11.72542667388916 15.623327255249023 11.728163719177246 15.672708511352539 11.730899810791016 L15.672708511352539 11.730899810791016 C15.676091194152832 11.772109031677246 15.679472923278809 11.81331729888916 15.682855606079102 11.85452651977539 L15.682855606079102 11.85452651977539 C15.62820053100586 11.860381126403809 15.573546409606934 11.866235733032227 15.518891334533691 11.872090339660645 L15.518891334533691 11.872090339660645 C15.519525527954102 12.017438888549805 15.54582405090332 12.210948944091797 15.673910140991211 12.279653549194336 L15.673910140991211 12.279653549194336 C15.673910140991211 12.326717376708984 15.673910140991211 12.373781204223633 15.673910140991211 12.420845031738281 L15.673910140991211 12.420845031738281 C15.296489715576172 12.620575904846191 15.32711410522461 11.987192153930664 15.327272415161133 11.871054649353027 L15.327272415161133 11.871054649353027 C15.2844820022583 11.866536140441895 15.241690635681152 11.862018585205078 15.19890022277832 11.857500076293945 L15.19890022277832 11.857500076293945 C15.196282386779785 11.816154479980469 15.193663597106934 11.774808883666992 15.191045761108398 11.733463287353516 L15.191045761108398 11.733463287353516 C15.231800079345703 11.730045318603516 15.272554397583008 11.726627349853516 15.313308715820312 11.723209381103516 L15.313308715820312 11.723209381103516 C15.3793363571167 11.662263870239258 15.44536304473877 11.601317405700684 15.511390686035156 11.540371894836426 L15.511390686035156 11.540371894836426"></path></svg>