<svg xmlns="http://www.w3.org/2000/svg" viewBox="0.0 0.0 24.0 24.0" height="200px" width="200px"><path fill="none" stroke="black" stroke-width=".3" stroke-opacity="1.0"  filling="0" d="M8.219454765319824 11.464390754699707 L8.219454765319824 11.464390754699707 C8.2452392578125 11.486811637878418 8.233948707580566 11.531393051147461 8.236554145812988 11.565463066101074 L8.236554145812988 11.565463066101074 C8.168181419372559 11.601938247680664 8.107582092285156 11.676542282104492 8.100081443786621 11.75367259979248 L8.100081443786621 11.75367259979248 C8.136881828308105 11.7500638961792 8.173681259155273 11.746454238891602 8.210481643676758 11.74284553527832 L8.210481643676758 11.74284553527832 C8.173317909240723 11.789463996887207 8.136155128479004 11.836081504821777 8.098991394042969 11.882699966430664 L8.098991394042969 11.882699966430664 C8.098991394042969 12.064499855041504 8.098991394042969 12.246299743652344 8.098991394042969 12.428099632263184 L8.098991394042969 12.428099632263184 C8.035691261291504 12.428099632263184 7.972391128540039 12.428099632263184 7.909090995788574 12.428099632263184 L7.909090995788574 12.428099632263184 C7.909064769744873 12.229719161987305 7.896972179412842 12.004409790039062 7.774445533752441 11.848390579223633 L7.774445533752441 11.848390579223633 C7.922999858856201 11.659000396728516 7.980151176452637 11.635065078735352 8.219454765319824 11.464390754699707 L8.219454765319824 11.464390754699707"></path></svg>