<svg xmlns="http://www.w3.org/2000/svg" viewBox="0.0 0.0 24.0 24.0" height="200px" width="200px"><path fill="none" stroke="black" stroke-width=".3" stroke-opacity="1.0"  filling="0" d="M12.102298736572266 11.807673454284668 L12.102298736572266 11.807673454284668 C12.270001411437988 11.892602920532227 12.26389217376709 11.905427932739258 12.141408920288086 12.039709091186523 L12.141408920288086 12.039709091186523 C12.177254676818848 12.08045482635498 12.213099479675293 12.121200561523438 12.248945236206055 12.161946296691895 L12.248945236206055 12.161946296691895 C12.186999320983887 12.125428199768066 12.125054359436035 12.088909149169922 12.063108444213867 12.052391052246094 L12.063108444213867 12.052391052246094 C12.027045249938965 12.058709144592285 11.990981101989746 12.065027236938477 11.954917907714844 12.071345329284668 L11.954917907714844 12.071345329284668 C11.961727142333984 12.108854293823242 11.968536376953125 12.146363258361816 11.975345611572266 12.18387222290039 L11.975345611572266 12.18387222290039 C11.79994010925293 12.168787956237793 11.864541053771973 11.944022178649902 11.863800048828125 11.808927536010742 L11.863800048828125 11.808927536010742 C11.943299293518066 11.808509826660156 12.022799491882324 11.808091163635254 12.102298736572266 11.807673454284668 L12.102298736572266 11.807673454284668"></path>
<path fill="none" stroke="black" stroke-width=".3" stroke-opacity="1.0"  filling="0" d="M11.971636772155762 11.881499290466309 L11.971636772155762 11.881499290466309 C12.03072738647461 11.89343547821045 12.089818000793457 11.905372619628906 12.148908615112305 11.917308807373047 L12.148908615112305 11.917308807373047 C12.089818000793457 11.905372619628906 12.03072738647461 11.89343547821045 11.971636772155762 11.881499290466309 L11.971636772155762 11.881499290466309"></path></svg>