<svg xmlns="http://www.w3.org/2000/svg" viewBox="0.0 0.0 24.0 24.0" height="200px" width="200px"><path fill="none" stroke="black" stroke-width=".3" stroke-opacity="1.0"  filling="0" d="M7.046482086181641 11.731718063354492 L7.046482086181641 11.731718063354492 C7.103000164031982 11.731718063354492 7.159518241882324 11.731718063354492 7.216036319732666 11.731718063354492 L7.216036319732666 11.731718063354492 C7.220454216003418 11.745882034301758 7.224872589111328 11.760046005249023 7.22929048538208 11.774209976196289 L7.22929048538208 11.774209976196289 C7.863173484802246 11.691786766052246 7.894474983215332 12.321817398071289 7.227217674255371 12.38337230682373 L7.227217674255371 12.38337230682373 C7.227217674255371 12.4805908203125 7.227217674255371 12.577808380126953 7.227217674255371 12.675026893615723 L7.227217674255371 12.675026893615723 C7.16696310043335 12.675026893615723 7.106709003448486 12.675026893615723 7.046454429626465 12.675026893615723 L7.046454429626465 12.675026893615723 C7.046463489532471 12.360590934753418 7.046473026275635 12.046154022216797 7.046482086181641 11.731718063354492 L7.046482086181641 11.731718063354492"></path>
<path fill="none" stroke="black" stroke-width=".3" stroke-opacity="1.0"  filling="0" d="M7.479899883270264 11.867045402526855 L7.479899883270264 11.867045402526855 C7.482036113739014 12.009681701660156 7.484172821044922 12.152318000793457 7.486309051513672 12.294954299926758 L7.486309051513672 12.294954299926758 C7.377197742462158 12.2030611038208 7.370194911956787 11.958229064941406 7.479899883270264 11.867045402526855 L7.479899883270264 11.867045402526855"></path></svg>