<svg xmlns="http://www.w3.org/2000/svg" viewBox="0.0 0.0 24.0 24.0" height="200px" width="200px"><path fill="none" stroke="black" stroke-width=".3" stroke-opacity="1.0"  filling="0" d="M7.486145973205566 11.587745666503906 L7.486145973205566 11.587745666503906 C7.486145973205566 11.656436920166016 7.486145973205566 11.725127220153809 7.486145973205566 11.793818473815918 L7.486145973205566 11.793818473815918 C7.533682346343994 11.802136421203613 7.581218242645264 11.810455322265625 7.628754615783691 11.81877326965332 L7.628754615783691 11.81877326965332 C7.628754615783691 11.858546257019043 7.628754615783691 11.89831829071045 7.628754615783691 11.938091278076172 L7.628754615783691 11.938091278076172 C7.577291011810303 11.942790985107422 7.525827407836914 11.947491645812988 7.474363803863525 11.952191352844238 L7.474363803863525 11.952191352844238 C7.486145973205566 12.08468246459961 7.497927665710449 12.217172622680664 7.50970983505249 12.349663734436035 L7.50970983505249 12.349663734436035 C7.550100803375244 12.353118896484375 7.59049129486084 12.356573104858398 7.630882263183594 12.360028266906738 L7.630882263183594 12.360028266906738 C7.630882263183594 12.397573471069336 7.630882263183594 12.43511962890625 7.630882263183594 12.472664833068848 L7.630882263183594 12.472664833068848 C7.278301239013672 12.694570541381836 7.281691551208496 12.076386451721191 7.2817912101745605 11.958818435668945 L7.2817912101745605 11.958818435668945 C7.239081859588623 11.951400756835938 7.196372985839844 11.943982124328613 7.153663635253906 11.936564445495605 L7.153663635253906 11.936564445495605 C7.150627136230469 11.895800590515137 7.1475911140441895 11.855036735534668 7.144554615020752 11.8142728805542 L7.144554615020752 11.8142728805542 C7.188581943511963 11.811145782470703 7.232609272003174 11.808018684387207 7.276636600494385 11.804891586303711 L7.276636600494385 11.804891586303711 C7.346473217010498 11.73250961303711 7.416309356689453 11.660127639770508 7.486145973205566 11.587745666503906 L7.486145973205566 11.587745666503906"></path></svg>