<svg xmlns="http://www.w3.org/2000/svg" viewBox="0.0 0.0 24.0 24.0" height="200px" width="200px"><path fill="none" stroke="black" stroke-width=".3" stroke-opacity="1.0"  filling="0" d="M12.403828620910645 11.542280197143555 L12.403828620910645 11.542280197143555 C12.40684700012207 11.607634544372559 12.40986442565918 11.672989845275879 12.412882804870605 11.738344192504883 L12.412882804870605 11.738344192504883 C12.462237358093262 11.78784465789795 12.511590957641602 11.837345123291016 12.560945510864258 11.886845588684082 L12.560945510864258 11.886845588684082 C12.510445594787598 11.889727592468262 12.459945678710938 11.892608642578125 12.409445762634277 11.895490646362305 L12.409445762634277 11.895490646362305 C12.409700393676758 12.502374649047852 12.218664169311523 12.687294006347656 12.218209266662598 11.906753540039062 L12.218209266662598 11.906753540039062 C12.169840812683105 11.881990432739258 12.16337776184082 11.769376754760742 12.211363792419434 11.743880271911621 L12.211363792419434 11.743880271911621 C12.215782165527344 11.705080032348633 12.220200538635254 11.666280746459961 12.224618911743164 11.627480506896973 L12.224618911743164 11.627480506896973 C12.284355163574219 11.599080085754395 12.34409236907959 11.570680618286133 12.403828620910645 11.542280197143555 L12.403828620910645 11.542280197143555"></path></svg>