<svg xmlns="http://www.w3.org/2000/svg" viewBox="0.0 0.0 24.0 24.0" height="200px" width="200px"><path fill="none" stroke="black" stroke-width=".3" stroke-opacity="1.0"  filling="0" d="M13.43571662902832 11.755500793457031 L13.43571662902832 11.755500793457031 C13.590707778930664 11.778482437133789 13.745698928833008 11.801465034484863 13.900690078735352 11.824446678161621 L13.900690078735352 11.824446678161621 C13.91395378112793 12.03013801574707 13.927217483520508 12.235828399658203 13.940481185913086 12.441519737243652 L13.940481185913086 12.441519737243652 C13.517616271972656 12.394094467163086 12.873751640319824 12.115653991699219 13.71474552154541 11.990181922912598 L13.71474552154541 11.990181922912598 C13.688154220581055 11.917658805847168 13.554683685302734 11.901124000549316 13.488353729248047 11.940710067749023 L13.488353729248047 11.940710067749023 C13.435280799865723 11.940710067749023 13.382208824157715 11.940710067749023 13.32913589477539 11.940710067749023 L13.32913589477539 11.940710067749023 C13.364663124084473 11.878973960876465 13.400189399719238 11.81723690032959 13.43571662902832 11.755500793457031 L13.43571662902832 11.755500793457031"></path>
<path fill="none" stroke="black" stroke-width=".3" stroke-opacity="1.0"  filling="0" d="M13.698517799377441 12.094826698303223 L13.698517799377441 12.094826698303223 C13.680708885192871 12.191191673278809 13.574078559875488 12.298851013183594 13.476709365844727 12.28778076171875 L13.476709365844727 12.28778076171875 C13.476709365844727 12.24708080291748 13.476709365844727 12.206381797790527 13.476709365844727 12.165681838989258 L13.476709365844727 12.165681838989258 C13.55064582824707 12.14206314086914 13.624581336975098 12.11844539642334 13.698517799377441 12.094826698303223 L13.698517799377441 12.094826698303223"></path></svg>