<svg xmlns="http://www.w3.org/2000/svg" viewBox="0.0 0.0 24.0 24.0" height="200px" width="200px"><path fill="none" stroke="black" stroke-width=".3" stroke-opacity="1.0"  filling="0" d="M19.963634490966797 9.98176383972168 L19.963634490966797 9.98176383972168 C20.354543685913086 9.98176383972168 20.745454788208008 9.98176383972168 21.136363983154297 9.98176383972168 L21.136363983154297 9.98176383972168 C21.136363983154297 10.195858001708984 21.242231369018555 13.986512184143066 21.081817626953125 14.07272720336914 L21.081817626953125 14.07272720336914 C21.016510009765625 13.844172477722168 20.95660972595215 13.613821029663086 20.880626678466797 13.388590812683105 L20.880626678466797 13.388590812683105 C19.808866500854492 13.547605514526367 20.18860626220703 11.726205825805664 20.451900482177734 11.120699882507324 L20.451900482177734 11.120699882507324 C20.398273468017578 11.155009269714355 20.344646453857422 11.18931770324707 20.291019439697266 11.223627090454102 L20.291019439697266 11.223627090454102 C20.196863174438477 10.88277816772461 19.97108268737793 10.290336608886719 19.963634490966797 9.98176383972168 L19.963634490966797 9.98176383972168"></path>
<path fill="none" stroke="black" stroke-width=".3" stroke-opacity="1.0"  filling="0" d="M21.060928344726562 11.370027542114258 L21.060928344726562 11.370027542114258 C21.069400787353516 11.37004566192627 21.07787322998047 11.370064735412598 21.086345672607422 11.37008285522461 L21.086345672607422 11.37008285522461 C21.086345672607422 11.963155746459961 21.086345672607422 12.556227684020996 21.086345672607422 13.149300575256348 L21.086345672607422 13.149300575256348 C21.07787322998047 13.148664474487305 21.069400787353516 13.148027420043945 21.060928344726562 13.147391319274902 L21.060928344726562 13.147391319274902 C21.060928344726562 12.554936408996582 21.060928344726562 11.962482452392578 21.060928344726562 11.370027542114258 L21.060928344726562 11.370027542114258"></path></svg>