<svg xmlns="http://www.w3.org/2000/svg" viewBox="0.0 0.0 24.0 24.0" height="200px" width="200px"><path fill="none" stroke="black" stroke-width=".3" stroke-opacity="1.0"  filling="0" d="M14.345672607421875 11.795044898986816 L14.345672607421875 11.795044898986816 C14.345672607421875 12.04586410522461 14.138209342956543 13.393426895141602 13.700836181640625 12.555980682373047 L13.700836181640625 12.555980682373047 C13.767890930175781 12.555990219116211 13.834944725036621 12.555998802185059 13.901999473571777 12.556008338928223 L13.901999473571777 12.556008338928223 C13.973735809326172 12.570117950439453 14.045472145080566 12.584226608276367 14.117208480834961 12.598336219787598 L14.117208480834961 12.598336219787598 C14.124300956726074 12.545169830322266 14.131095886230469 12.491963386535645 14.137718200683594 12.438735961914062 L14.137718200683594 12.438735961914062 C13.535423278808594 12.491947174072266 13.580876350402832 11.763891220092773 14.097490310668945 11.842717170715332 L14.097490310668945 11.842717170715332 C14.180217742919922 11.826826095581055 14.262945175170898 11.810935974121094 14.345672607421875 11.795044898986816 L14.345672607421875 11.795044898986816"></path>
<path fill="none" stroke="black" stroke-width=".3" stroke-opacity="1.0"  filling="0" d="M13.963117599487305 11.923063278198242 L13.963117599487305 11.923063278198242 C14.314146041870117 12.445316314697266 13.839315414428711 12.388800621032715 13.963117599487305 11.923063278198242 L13.963117599487305 11.923063278198242"></path></svg>