<svg xmlns="http://www.w3.org/2000/svg" viewBox="0.0 0.0 24.0 24.0" height="200px" width="200px"><path fill="none" stroke="black" stroke-width=".3" stroke-opacity="1.0"  filling="0" d="M13.298700332641602 11.607137680053711 L13.298700332641602 11.607137680053711 C13.304163932800293 11.6795654296875 13.309627532958984 11.751992225646973 13.315091133117676 11.824419975280762 L13.315091133117676 11.824419975280762 C13.356072425842285 11.831165313720703 13.397054672241211 11.837910652160645 13.43803596496582 11.844655990600586 L13.43803596496582 11.844655990600586 C13.440290451049805 11.884537696838379 13.442544937133789 11.924419403076172 13.444799423217773 11.964301109313965 L13.444799423217773 11.964301109313965 C13.401235580444336 11.96930980682373 13.357672691345215 11.974319458007812 13.314108848571777 11.979328155517578 L13.314108848571777 11.979328155517578 C13.300276756286621 12.123357772827148 13.342055320739746 12.313315391540527 13.467517852783203 12.385391235351562 L13.467517852783203 12.385391235351562 C13.467517852783203 12.42419147491455 13.467517852783203 12.462990760803223 13.467517852783203 12.501791000366211 L13.467517852783203 12.501791000366211 C13.201308250427246 12.629138946533203 13.081694602966309 12.177277565002441 13.122953414916992 11.980637550354004 L13.122953414916992 11.980637550354004 C13.07040786743164 11.976228713989258 13.017863273620605 11.971819877624512 12.965317726135254 11.967411041259766 L12.965317726135254 11.967411041259766 C12.960618019104004 11.927483558654785 12.955917358398438 11.887557029724121 12.951217651367188 11.84762954711914 L12.951217651367188 11.84762954711914 C13.003008842468262 11.84142017364502 13.05479907989502 11.835210800170898 13.106590270996094 11.829001426696777 L13.106590270996094 11.829001426696777 C13.128401756286621 11.733637809753418 13.214609146118164 11.657124519348145 13.298700332641602 11.607137680053711 L13.298700332641602 11.607137680053711"></path></svg>