<svg xmlns="http://www.w3.org/2000/svg" viewBox="0.0 0.0 24.0 24.0" height="200px" width="200px"><path fill="none" stroke="black" stroke-width=".3" stroke-opacity="1.0"  filling="0" d="M12.617727279663086 11.82575511932373 L12.617727279663086 11.82575511932373 C12.617727279663086 11.876482009887695 12.617727279663086 11.927209854125977 12.617727279663086 11.977936744689941 L12.617727279663086 11.977936744689941 C12.366327285766602 12.111114501953125 12.41075611114502 12.233814239501953 12.409144401550293 12.509045600891113 L12.409144401550293 12.509045600891113 C12.347880363464355 12.509045600891113 12.286617279052734 12.509045600891113 12.225353240966797 12.509045600891113 L12.225353240966797 12.509045600891113 C12.22534465789795 12.28693675994873 12.225335121154785 12.064826965332031 12.225326538085938 11.842718124389648 L12.225326538085938 11.842718124389648 C12.28361701965332 11.842718124389648 12.34190845489502 11.842718124389648 12.400198936462402 11.842718124389648 L12.400198936462402 11.842718124389648 C12.405180931091309 11.861772537231445 12.410162925720215 11.880827903747559 12.415144920349121 11.899882316589355 L12.415144920349121 11.899882316589355 C12.482672691345215 11.875173568725586 12.550199508666992 11.8504638671875 12.617727279663086 11.82575511932373 L12.617727279663086 11.82575511932373"></path></svg>