<svg xmlns="http://www.w3.org/2000/svg" viewBox="0.0 0.0 24.0 24.0" height="200px" width="200px"><path fill="none" stroke="black" stroke-width=".3" stroke-opacity="1.0"  filling="0" d="M9.746891021728516 11.785609245300293 L9.746891021728516 11.785609245300293 C9.8302640914917 11.919482231140137 9.913636207580566 12.053354263305664 9.99700927734375 12.187227249145508 L9.99700927734375 12.187227249145508 C9.850626945495605 12.187227249145508 9.704245567321777 12.187227249145508 9.557863235473633 12.187227249145508 L9.557863235473633 12.187227249145508 C9.548399925231934 12.198573112487793 9.538935661315918 12.209918022155762 9.529472351074219 12.221263885498047 L9.529472351074219 12.221263885498047 C9.663887977600098 12.450246810913086 9.757634162902832 12.328695297241211 10.001100540161133 12.273162841796875 L10.001100540161133 12.273162841796875 C9.383252143859863 12.673446655273438 9.165656089782715 12.210424423217773 9.746891021728516 11.785609245300293 L9.746891021728516 11.785609245300293"></path>
<path fill="none" stroke="black" stroke-width=".3" stroke-opacity="1.0"  filling="0" d="M9.582653999328613 11.925899505615234 L9.582653999328613 11.925899505615234 C9.66061782836914 11.9653902053833 9.738581657409668 12.004880905151367 9.816545486450195 12.044371604919434 L9.816545486450195 12.044371604919434 C9.726927757263184 12.044371604919434 9.637309074401855 12.044371604919434 9.547691345214844 12.044371604919434 L9.547691345214844 12.044371604919434 C9.559345245361328 12.004880905151367 9.571000099182129 11.9653902053833 9.582653999328613 11.925899505615234 L9.582653999328613 11.925899505615234"></path></svg>