<svg xmlns="http://www.w3.org/2000/svg" viewBox="0.0 0.0 24.0 24.0" height="200px" width="200px"><path fill="none" stroke="black" stroke-width=".3" stroke-opacity="1.0"  filling="0" d="M13.404899597167969 11.627863883972168 L13.404899597167969 11.627863883972168 C13.51481819152832 11.8013916015625 13.624735832214355 11.974918365478516 13.734654426574707 12.148446083068848 L13.734654426574707 12.148446083068848 C13.533655166625977 12.25812816619873 13.33265495300293 12.367809295654297 13.1316556930542 12.47749137878418 L13.1316556930542 12.47749137878418 C13.152228355407715 12.563736915588379 13.17280101776123 12.649982452392578 13.193373680114746 12.736227989196777 L13.193373680114746 12.736227989196777 C12.208626747131348 12.737829208374023 12.869586944580078 11.856399536132812 13.404899597167969 11.627863883972168 L13.404899597167969 11.627863883972168"></path>
<path fill="none" stroke="black" stroke-width=".3" stroke-opacity="1.0"  filling="0" d="M13.17588996887207 11.94548225402832 L13.17588996887207 11.94548225402832 C13.290576934814453 12.149144172668457 13.407516479492188 12.269396781921387 13.154945373535156 12.361908912658691 L13.154945373535156 12.361908912658691 C13.154935836791992 12.225235939025879 13.154926300048828 12.088563919067383 13.154916763305664 11.95189094543457 L13.154916763305664 11.95189094543457 C13.161908149719238 11.94975471496582 13.168898582458496 11.94761848449707 13.17588996887207 11.94548225402832 L13.17588996887207 11.94548225402832"></path></svg>