<svg xmlns="http://www.w3.org/2000/svg" viewBox="0.0 0.0 24.0 24.0" height="200px" width="200px"><path fill="none" stroke="black" stroke-width=".3" stroke-opacity="1.0"  filling="0" d="M7.781454563140869 11.233336448669434 L7.781454563140869 11.233336448669434 C7.701503753662109 11.380075454711914 7.42788553237915 11.608095169067383 7.582363128662109 11.730135917663574 L7.582363128662109 11.730135917663574 C8.836319923400879 10.852317810058594 9.119338989257812 12.291297912597656 8.309209823608398 12.74931812286377 L8.309209823608398 12.74931812286377 C8.293946266174316 12.40715503692627 8.278681755065918 12.064990997314453 8.263418197631836 11.722827911376953 L8.263418197631836 11.722827911376953 C8.21571159362793 12.039655685424805 8.223811149597168 12.362512588500977 8.214354515075684 12.682772636413574 L8.214354515075684 12.682772636413574 C8.194464683532715 12.23197078704834 8.26318645477295 11.896289825439453 8.080581665039062 11.492918014526367 L8.080581665039062 11.492918014526367 C8.080581665039062 11.859627723693848 8.080581665039062 12.226336479187012 8.080581665039062 12.593046188354492 L8.080581665039062 12.593046188354492 C7.92291784286499 12.645891189575195 7.765254497528076 12.698737144470215 7.607590675354004 12.751582145690918 L7.607590675354004 12.751582145690918 C7.72725772857666 12.42961311340332 7.6912713050842285 12.067978858947754 7.690908432006836 11.724491119384766 L7.690908432006836 11.724491119384766 C7.489123821258545 12.004631042480469 7.533539772033691 12.407754898071289 7.560299396514893 12.75196361541748 L7.560299396514893 12.75196361541748 C7.462754249572754 12.75196361541748 7.365208625793457 12.75196361541748 7.267663478851318 12.75196361541748 L7.267663478851318 12.75196361541748 C6.994638442993164 11.959534645080566 7.1822829246521 11.85230827331543 7.781454563140869 11.233336448669434 L7.781454563140869 11.233336448669434"></path></svg>