<svg xmlns="http://www.w3.org/2000/svg" viewBox="0.0 0.0 24.0 24.0" height="200px" width="200px"><path fill="none" stroke="black" stroke-width=".3" stroke-opacity="1.0"  filling="0" d="M9.327518463134766 11.1181640625 L9.327518463134766 11.1181640625 C9.483592987060547 11.299946784973145 9.528116226196289 11.284582138061523 9.736581802368164 11.186890602111816 L9.736581802368164 11.186890602111816 C9.736640930175781 11.366597175598145 9.641192436218262 11.704862594604492 9.916719436645508 11.764091491699219 L9.916719436645508 11.764091491699219 C9.92919635772705 11.81499195098877 9.92658805847168 11.868584632873535 9.926782608032227 11.920991897583008 L9.926782608032227 11.920991897583008 C9.640191078186035 12.142613410949707 9.722491264343262 12.40342903137207 9.752482414245605 12.727582931518555 L9.752482414245605 12.727582931518555 C9.628928184509277 12.727582931518555 9.505373001098633 12.727582931518555 9.381818771362305 12.727582931518555 L9.381818771362305 12.727582931518555 C9.38180160522461 12.46431827545166 9.175293922424316 11.758922576904297 9.372627258300781 11.750537872314453 L9.372627258300781 11.750537872314453 C9.372627258300781 11.690346717834473 9.372627258300781 11.630155563354492 9.372627258300781 11.569964408874512 L9.372627258300781 11.569964408874512 C9.292072296142578 11.52617359161377 9.211518287658691 11.482382774353027 9.130963325500488 11.438591957092285 L9.130963325500488 11.438591957092285 C9.060771942138672 11.864962577819824 9.109064102172852 12.299278259277344 9.109064102172852 12.73022747039795 L9.109064102172852 12.73022747039795 C8.988755226135254 12.726509094238281 8.86844539642334 12.72279167175293 8.748136520385742 12.719073295593262 L8.748136520385742 12.719073295593262 C8.748136520385742 12.261363983154297 8.748136520385742 11.803654670715332 8.748136520385742 11.345945358276367 L8.748136520385742 11.345945358276367 C8.941264152526855 11.270018577575684 9.134390830993652 11.194090843200684 9.327518463134766 11.1181640625 L9.327518463134766 11.1181640625"></path></svg>