<svg xmlns="http://www.w3.org/2000/svg" viewBox="0.0 0.0 24.0 24.0" height="200px" width="200px"><path fill="none" stroke="black" stroke-width=".3" stroke-opacity="1.0"  filling="0" d="M16.059436798095703 11.74483585357666 L16.059436798095703 11.74483585357666 C16.147663116455078 11.861563682556152 16.235891342163086 11.978290557861328 16.32411766052246 12.09501838684082 L16.32411766052246 12.09501838684082 C16.383819580078125 12.055831909179688 16.443096160888672 12.015841484069824 16.50002670288086 11.972726821899414 L16.50002670288086 11.972726821899414 C16.500017166137695 12.02727222442627 16.500009536743164 12.081818580627441 16.5 12.136363983154297 L16.5 12.136363983154297 C16.235355377197266 12.347894668579102 16.309091567993164 12.487850189208984 16.309091567993164 12.810571670532227 L16.309091567993164 12.810571670532227 C16.183855056762695 12.810571670532227 16.058618545532227 12.810571670532227 15.933382034301758 12.810571670532227 L15.933382034301758 12.810571670532227 C15.933382034301758 12.582090377807617 15.933382034301758 12.353608131408691 15.933382034301758 12.125126838684082 L15.933382034301758 12.125126838684082 C15.866281509399414 12.147444725036621 15.799181938171387 12.169763565063477 15.732081413269043 12.192081451416016 L15.732081413269043 12.192081451416016 C15.724517822265625 12.1757173538208 15.716954231262207 12.159354209899902 15.709390640258789 12.142990112304688 L15.709390640258789 12.142990112304688 C15.826072692871094 12.010272026062012 15.942754745483398 11.877553939819336 16.059436798095703 11.74483585357666 L16.059436798095703 11.74483585357666"></path></svg>