<svg xmlns="http://www.w3.org/2000/svg" viewBox="0.0 0.0 24.0 24.0" height="200px" width="200px"><path fill="none" stroke="black" stroke-width=".3" stroke-opacity="1.0"  filling="0" d="M6.131072998046875 11.6547269821167 L6.131072998046875 11.6547269821167 C6.252745151519775 11.818029403686523 6.409268379211426 11.957955360412598 6.438409328460693 12.165218353271484 L6.438409328460693 12.165218353271484 C6.249372959136963 12.268773078918457 6.060336589813232 12.372326850891113 5.871300220489502 12.475881576538086 L5.871300220489502 12.475881576538086 C5.895873069763184 12.55748176574707 5.920445442199707 12.639081954956055 5.945018291473389 12.720682144165039 L5.945018291473389 12.720682144165039 C5.797500133514404 12.724773406982422 5.64998197555542 12.728863716125488 5.5024638175964355 12.732954978942871 L5.5024638175964355 12.732954978942871 C5.5024638175964355 12.451836585998535 5.5024638175964355 12.170719146728516 5.5024638175964355 11.88960075378418 L5.5024638175964355 11.88960075378418 C5.7197747230529785 11.83658218383789 5.932910919189453 11.758489608764648 6.131072998046875 11.6547269821167 L6.131072998046875 11.6547269821167"></path>
<path fill="none" stroke="black" stroke-width=".3" stroke-opacity="1.0"  filling="0" d="M5.898245334625244 11.944936752319336 L5.898245334625244 11.944936752319336 C5.962626934051514 12.05609130859375 6.027009010314941 12.167245864868164 6.091390609741211 12.278400421142578 L6.091390609741211 12.278400421142578 C6.019381523132324 12.315327644348145 5.9473724365234375 12.352254867553711 5.875363349914551 12.389182090759277 L5.875363349914551 12.389182090759277 C5.875363349914551 12.243964195251465 5.875363349914551 12.098745346069336 5.875363349914551 11.953527450561523 L5.875363349914551 11.953527450561523 C5.882990837097168 11.950663566589355 5.890617847442627 11.947800636291504 5.898245334625244 11.944936752319336 L5.898245334625244 11.944936752319336"></path></svg>