<svg xmlns="http://www.w3.org/2000/svg" viewBox="0.0 0.0 24.0 24.0" height="200px" width="200px"><path fill="none" stroke="black" stroke-width=".3" stroke-opacity="1.0"  filling="0" d="M13.458027839660645 11.61744499206543 L13.458027839660645 11.61744499206543 C13.558245658874512 11.781417846679688 13.658464431762695 11.945389747619629 13.758682250976562 12.109362602233887 L13.758682250976562 12.109362602233887 C13.535314559936523 12.237309455871582 13.292510032653809 12.448067665100098 13.266109466552734 12.704127311706543 L13.266109466552734 12.704127311706543 C13.116791725158691 12.704127311706543 12.967473030090332 12.704127311706543 12.818155288696289 12.704127311706543 L12.818155288696289 12.704127311706543 C12.818155288696289 12.283768653869629 13.068312644958496 11.77500057220459 13.458027839660645 11.61744499206543 L13.458027839660645 11.61744499206543"></path>
<path fill="none" stroke="black" stroke-width=".3" stroke-opacity="1.0"  filling="0" d="M13.200599670410156 11.895654678344727 L13.200599670410156 11.895654678344727 C13.389154434204102 12.187520980834961 13.476465225219727 12.202080726623535 13.180309295654297 12.341564178466797 L13.180309295654297 12.341564178466797 C13.180309295654297 12.194445610046387 13.180309295654297 12.047327995300293 13.180309295654297 11.900209426879883 L13.180309295654297 11.900209426879883 C13.18707275390625 11.898691177368164 13.193836212158203 11.897172927856445 13.200599670410156 11.895654678344727 L13.200599670410156 11.895654678344727"></path></svg>