<svg xmlns="http://www.w3.org/2000/svg" viewBox="0.0 0.0 24.0 24.0" height="200px" width="200px"><path fill="none" stroke="black" stroke-width=".3" stroke-opacity="1.0"  filling="0" d="M10.691372871398926 11.11838150024414 L10.691372871398926 11.11838150024414 C10.734090805053711 11.179545402526855 10.776809692382812 11.240708351135254 10.819527626037598 11.301872253417969 L10.819527626037598 11.301872253417969 C10.867981910705566 11.260763168334961 10.916436195373535 11.219654083251953 10.964890480041504 11.178544998168945 L10.964890480041504 11.178544998168945 C10.882975578308105 11.332809448242188 10.62602710723877 11.440713882446289 10.472426414489746 11.357562065124512 L10.472426414489746 11.357562065124512 C10.472417831420898 11.814990043640137 10.472408294677734 12.272417068481445 10.472399711608887 12.72984504699707 L10.472399711608887 12.72984504699707 C10.347490310668945 12.72984504699707 10.22258186340332 12.72984504699707 10.097672462463379 12.72984504699707 L10.097672462463379 12.72984504699707 C10.097672462463379 12.25982666015625 10.097672462463379 11.789809226989746 10.097672462463379 11.319790840148926 L10.097672462463379 11.319790840148926 C10.295572280883789 11.252654075622559 10.493473052978516 11.185518264770508 10.691372871398926 11.11838150024414 L10.691372871398926 11.11838150024414"></path></svg>