<svg xmlns="http://www.w3.org/2000/svg" viewBox="0.0 0.0 24.0 24.0" height="200px" width="200px"><path fill="none" stroke="black" stroke-width=".3" stroke-opacity="1.0"  filling="0" d="M13.41744613647461 11.589926719665527 L13.41744613647461 11.589926719665527 C13.522900581359863 11.756863594055176 13.6283540725708 11.923799514770508 13.733808517456055 12.090736389160156 L13.733808517456055 12.090736389160156 C13.539690971374512 12.201626777648926 13.345572471618652 12.312518119812012 13.15145492553711 12.423408508300781 L13.15145492553711 12.423408508300781 C13.18009090423584 12.501663208007812 13.208727836608887 12.579917907714844 13.237363815307617 12.658172607421875 L13.237363815307617 12.658172607421875 C13.231745719909668 12.665818214416504 13.226126670837402 12.673463821411133 13.220508575439453 12.681109428405762 L13.220508575439453 12.681109428405762 C12.535957336425781 12.680187225341797 12.789787292480469 12.505602836608887 12.790936470031738 11.812881469726562 L12.790936470031738 11.812881469726562 C12.999773025512695 11.738563537597656 13.208609580993652 11.664244651794434 13.41744613647461 11.589926719665527 L13.41744613647461 11.589926719665527"></path>
<path fill="none" stroke="black" stroke-width=".3" stroke-opacity="1.0"  filling="0" d="M13.178018569946289 11.889681816101074 L13.178018569946289 11.889681816101074 C13.244482040405273 11.9990816116333 13.310945510864258 12.108481407165527 13.377408981323242 12.217881202697754 L13.377408981323242 12.217881202697754 C13.30327320098877 12.259626388549805 13.22913646697998 12.301372528076172 13.155000686645508 12.343117713928223 L13.155000686645508 12.343117713928223 C13.155000686645508 12.194562911987305 13.155000686645508 12.046009063720703 13.155000686645508 11.897454261779785 L13.155000686645508 11.897454261779785 C13.162672996520996 11.89486312866211 13.1703462600708 11.89227294921875 13.178018569946289 11.889681816101074 L13.178018569946289 11.889681816101074"></path></svg>