<svg xmlns="http://www.w3.org/2000/svg" viewBox="0.0 0.0 24.0 24.0" height="200px" width="200px"><path fill="none" stroke="black" stroke-width=".3" stroke-opacity="1.0"  filling="0" d="M15.709990501403809 11.694326400756836 L15.709990501403809 11.694326400756836 C15.819836616516113 11.877181053161621 15.929681777954102 12.060036659240723 16.039527893066406 12.242891311645508 L16.039527893066406 12.242891311645508 C15.830618858337402 12.359491348266602 15.621708869934082 12.476091384887695 15.412799835205078 12.592691421508789 L15.412799835205078 12.592691421508789 C15.412799835205078 12.654772758483887 15.412799835205078 12.7168550491333 15.412799835205078 12.778936386108398 L15.412799835205078 12.778936386108398 C15.44881820678711 12.809327125549316 15.48483657836914 12.839717864990234 15.520854949951172 12.870108604431152 L15.520854949951172 12.870108604431152 C15.5177001953125 12.879772186279297 15.514545440673828 12.889435768127441 15.511390686035156 12.899099349975586 L15.511390686035156 12.899099349975586 C14.406399726867676 12.889986991882324 15.017192840576172 11.942205429077148 15.709990501403809 11.694326400756836 L15.709990501403809 11.694326400756836"></path>
<path fill="none" stroke="black" stroke-width=".3" stroke-opacity="1.0"  filling="0" d="M15.44042682647705 12.024163246154785 L15.44042682647705 12.024163246154785 C15.626346588134766 12.34509563446045 15.718218803405762 12.362739562988281 15.415908813476562 12.510136604309082 L15.415908813476562 12.510136604309082 C15.415900230407715 12.352018356323242 15.41589069366455 12.193899154663086 15.415882110595703 12.035780906677246 L15.415882110595703 12.035780906677246 C15.424063682556152 12.03190803527832 15.432245254516602 12.028036117553711 15.44042682647705 12.024163246154785 L15.44042682647705 12.024163246154785"></path></svg>