<svg xmlns="http://www.w3.org/2000/svg" viewBox="0.0 0.0 24.0 24.0" height="200px" width="200px"><path fill="none" stroke="black" stroke-width=".3" stroke-opacity="1.0"  filling="0" d="M5.671663761138916 11.687809944152832 L5.671663761138916 11.687809944152832 C5.785599708557129 11.869918823242188 5.8995361328125 12.052027702331543 6.013472080230713 12.234136581420898 L6.013472080230713 12.234136581420898 C5.803153991699219 12.35437297821045 5.592835903167725 12.474609375 5.3825178146362305 12.59484577178955 L5.3825178146362305 12.59484577178955 C5.415108680725098 12.684627532958984 5.447700023651123 12.774410247802734 5.48029088973999 12.864192008972168 L5.48029088973999 12.864192008972168 C5.319572448730469 12.87742805480957 5.1588544845581055 12.890665054321289 4.998136043548584 12.903901100158691 L4.998136043548584 12.903901100158691 C4.998126983642578 12.574892044067383 4.9981184005737305 12.245882034301758 4.998109340667725 11.91687297821045 L4.998109340667725 11.91687297821045 C5.222627639770508 11.840518951416016 5.447145462036133 11.764163970947266 5.671663761138916 11.687809944152832 L5.671663761138916 11.687809944152832"></path>
<path fill="none" stroke="black" stroke-width=".3" stroke-opacity="1.0"  filling="0" d="M5.380090713500977 12.00839900970459 L5.380090713500977 12.00839900970459 C5.38853645324707 12.004644393920898 5.396981716156006 12.000890731811523 5.4054274559021 11.997136116027832 L5.4054274559021 11.997136116027832 C5.610953330993652 12.346684455871582 5.727047920227051 12.371702194213867 5.380091190338135 12.497699737548828 L5.380091190338135 12.497699737548828 C5.380091190338135 12.334599494934082 5.380090713500977 12.171499252319336 5.380090713500977 12.00839900970459 L5.380090713500977 12.00839900970459"></path></svg>