<svg xmlns="http://www.w3.org/2000/svg" viewBox="0.0 0.0 24.0 24.0" height="200px" width="200px"><path fill="none" stroke="black" stroke-width=".3" stroke-opacity="1.0"  filling="0" d="M12.790529251098633 11.071663856506348 L12.790529251098633 11.071663856506348 C12.879137992858887 11.669763565063477 12.967747688293457 12.267864227294922 13.056356430053711 12.86596393585205 L13.056356430053711 12.86596393585205 C12.957328796386719 12.873018264770508 12.858302116394043 12.880073547363281 12.75927448272705 12.887127876281738 L12.75927448272705 12.887127876281738 C12.747747421264648 12.512600898742676 12.73621940612793 12.138072967529297 12.724692344665527 11.763545989990234 L12.724692344665527 11.763545989990234 C12.71270751953125 12.136091232299805 12.69306755065918 12.508442878723145 12.667201042175293 12.880282402038574 L12.667201042175293 12.880282402038574 C12.311280250549316 12.649782180786133 12.757767677307129 11.874265670776367 12.470727920532227 11.44636344909668 L12.470727920532227 11.44636344909668 C12.452880859375 11.830366134643555 12.506219863891602 12.217558860778809 12.463473320007324 12.599592208862305 C12.427215576171875 12.923636436462402 11.848017692565918 12.830467224121094 11.525154113769531 12.876054763793945 L11.525154113769531 12.876054763793945 C11.440873146057129 12.477828025817871 11.141929626464844 11.012256622314453 12.144791603088379 11.108480453491211 L12.144791603088379 11.108480453491211 C12.020411491394043 11.311126708984375 11.876018524169922 11.450492858886719 11.831865310668945 11.685518264770508 L11.831865310668945 11.685518264770508 C12.151419639587402 11.480899810791016 12.470974922180176 11.27628231048584 12.790529251098633 11.071663856506348 L12.790529251098633 11.071663856506348"></path>
<path fill="none" stroke="black" stroke-width=".3" stroke-opacity="1.0"  filling="0" d="M12.021655082702637 11.705126762390137 L12.021655082702637 11.705126762390137 C12.114727973937988 13.871377944946289 11.526780128479004 12.210816383361816 12.021655082702637 11.705126762390137 L12.021655082702637 11.705126762390137"></path></svg>