<svg xmlns="http://www.w3.org/2000/svg" viewBox="0.0 0.0 24.0 24.0" height="200px" width="200px"><path fill="none" stroke="black" stroke-width=".3" stroke-opacity="1.0"  filling="0" d="M17.79717254638672 11.652381896972656 L17.79717254638672 11.652381896972656 C17.909954071044922 11.713973045349121 18.022735595703125 11.77556324005127 18.135517120361328 11.837154388427734 L18.135517120361328 11.837154388427734 C18.071630477905273 12.004430770874023 18.003225326538086 12.170639038085938 17.92030906677246 12.329345703125 L17.92030906677246 12.329345703125 C17.971609115600586 12.445863723754883 18.022911071777344 12.562381744384766 18.07421112060547 12.678899765014648 L18.07421112060547 12.678899765014648 C17.841703414916992 12.69605827331543 17.68815803527832 12.369423866271973 17.45563507080078 12.352472305297852 L17.45563507080078 12.352472305297852 C17.454017639160156 12.337590217590332 17.4523983001709 12.322709083557129 17.450780868530273 12.30782699584961 L17.450780868530273 12.30782699584961 C17.510034561157227 12.288108825683594 17.569290161132812 12.268390655517578 17.628543853759766 12.248672485351562 L17.628543853759766 12.248672485351562 C17.642362594604492 12.054147720336914 17.653553009033203 11.960530281066895 17.441207885742188 12.013908386230469 L17.441207885742188 12.013908386230469 C17.437299728393555 12.003853797912598 17.43338966369629 11.993799209594727 17.429481506347656 11.983744621276855 L17.429481506347656 11.983744621276855 C17.552045822143555 11.873290061950684 17.67460823059082 11.762836456298828 17.79717254638672 11.652381896972656 L17.79717254638672 11.652381896972656"></path></svg>