<svg xmlns="http://www.w3.org/2000/svg" viewBox="0.0 0.0 24.0 24.0" height="200px" width="200px"><path fill="none" stroke="black" stroke-width=".3" stroke-opacity="1.0"  filling="0" d="M15.015708923339844 10.986737251281738 L15.015708923339844 10.986737251281738 C14.872162818908691 11.138431549072266 14.762018203735352 11.332118034362793 14.712464332580566 11.53499984741211 L14.712464332580566 11.53499984741211 C14.721455574035645 11.540964126586914 14.730445861816406 11.546927452087402 14.739437103271484 11.552891731262207 L14.739437103271484 11.552891731262207 C14.962674140930176 11.411019325256348 15.18591022491455 11.269145965576172 15.409147262573242 11.127273559570312 L15.409147262573242 11.127273559570312 C15.409128189086914 11.190909385681152 15.409110069274902 11.254546165466309 15.409090995788574 11.318181991577148 L15.409090995788574 11.318181991577148 C15.385936737060547 11.319363594055176 15.362781524658203 11.32054615020752 15.339627265930176 11.321727752685547 L15.339627265930176 11.321727752685547 C15.340545654296875 12.359204292297363 15.521822929382324 12.758013725280762 14.413881301879883 12.763418197631836 L14.413881301879883 12.763418197631836 C14.365276336669922 12.102198600769043 14.016429901123047 11.16113567352295 15.015708923339844 10.986737251281738 L15.015708923339844 10.986737251281738"></path>
<path fill="none" stroke="black" stroke-width=".3" stroke-opacity="1.0"  filling="0" d="M14.890881538391113 11.558372497558594 L14.890881538391113 11.558372497558594 C14.890944480895996 12.007596015930176 14.984903335571289 12.355705261230469 14.75498104095459 12.726300239562988 L14.75498104095459 12.726300239562988 C14.64984130859375 12.244196891784668 14.599909782409668 11.97227668762207 14.890881538391113 11.558372497558594 L14.890881538391113 11.558372497558594"></path></svg>