<svg xmlns="http://www.w3.org/2000/svg" viewBox="0.0 0.0 24.0 24.0" height="200px" width="200px"><path fill="none" stroke="black" stroke-width=".3" stroke-opacity="1.0"  filling="0" d="M10.318609237670898 11.006864547729492 L10.318609237670898 11.006864547729492 C10.383463859558105 11.097784996032715 10.548534393310547 11.159457206726074 10.64124584197998 11.097190856933594 L10.64124584197998 11.097190856933594 C10.473335266113281 11.414234161376953 10.315378189086914 11.820984840393066 10.062682151794434 11.325162887573242 L10.062682151794434 11.325162887573242 C10.05252742767334 11.32706356048584 10.042372703552246 11.328963279724121 10.032217979431152 11.330863952636719 L10.032217979431152 11.330863952636719 C10.033636093139648 11.923245429992676 10.035054206848145 12.51562786102295 10.03647232055664 13.108009338378906 L10.03647232055664 13.108009338378906 C9.875554084777832 13.108009338378906 9.71463680267334 13.108009338378906 9.553718566894531 13.108009338378906 L9.553718566894531 13.108009338378906 C9.553718566894531 12.503790855407715 9.553718566894531 11.89957332611084 9.553718566894531 11.295354843139648 L9.553718566894531 11.295354843139648 C9.808682441711426 11.199191093444824 10.063645362854004 11.103028297424316 10.318609237670898 11.006864547729492 L10.318609237670898 11.006864547729492"></path></svg>