<svg xmlns="http://www.w3.org/2000/svg" viewBox="0.0 0.0 24.0 24.0" height="200px" width="200px"><path fill="none" stroke="black" stroke-width=".3" stroke-opacity="1.0"  filling="0" d="M18.360055923461914 11.692719459533691 L18.360055923461914 11.692719459533691 C18.540271759033203 11.870882987976074 18.622827529907227 11.878660202026367 18.81139373779297 12.002674102783203 L18.81139373779297 12.002674102783203 C18.717878341674805 12.204720497131348 18.618621826171875 12.404149055480957 18.515674591064453 12.601556777954102 L18.515674591064453 12.601556777954102 C18.587411880493164 12.773520469665527 18.659147262573242 12.945484161376953 18.730884552001953 13.117447853088379 L18.730884552001953 13.117447853088379 C18.56532859802246 13.11618423461914 18.3997745513916 13.114920616149902 18.23421859741211 13.113656997680664 L18.23421859741211 13.113656997680664 C18.231586456298828 12.861827850341797 18.26235580444336 12.580451011657715 17.916736602783203 12.685036659240723 L17.916736602783203 12.685036659240723 C17.90604591369629 12.640445709228516 17.895353317260742 12.595854759216309 17.884662628173828 12.551263809204102 L17.884662628173828 12.551263809204102 C17.955562591552734 12.5479097366333 18.026464462280273 12.544554710388184 18.09736442565918 12.541200637817383 L18.09736442565918 12.541200637817383 C18.07931900024414 12.390464782714844 18.0612735748291 12.239727973937988 18.043228149414062 12.08899211883545 L18.043228149414062 12.08899211883545 C17.99582862854004 12.12061882019043 17.948427200317383 12.152246475219727 17.90102767944336 12.183873176574707 L17.90102767944336 12.183873176574707 C17.90782928466797 11.943793296813965 18.18379020690918 11.825699806213379 18.360055923461914 11.692719459533691 L18.360055923461914 11.692719459533691"></path></svg>