<svg xmlns="http://www.w3.org/2000/svg" viewBox="0.0 0.0 24.0 24.0" height="200px" width="200px"><path fill="none" stroke="black" stroke-width=".3" stroke-opacity="1.0"  filling="0" d="M4.990145206451416 11.615155220031738 L4.990145206451416 11.615155220031738 C6.006634712219238 11.859579086303711 5.009779930114746 12.407777786254883 4.75243616104126 12.546273231506348 L4.75243616104126 12.546273231506348 C4.789517879486084 12.64483642578125 4.826599597930908 12.743400573730469 4.863681316375732 12.841963768005371 L4.863681316375732 12.841963768005371 C4.859217643737793 12.850536346435547 4.8547539710998535 12.859109878540039 4.850290298461914 12.867682456970215 L4.850290298461914 12.867682456970215 C4.168687343597412 12.878534317016602 4.2772908210754395 12.394163131713867 4.3252363204956055 11.825263023376465 L4.3252363204956055 11.825263023376465 C4.554896831512451 11.789435386657715 4.776877403259277 11.70759105682373 4.990145206451416 11.615155220031738 L4.990145206451416 11.615155220031738"></path>
<path fill="none" stroke="black" stroke-width=".3" stroke-opacity="1.0"  filling="0" d="M4.76639986038208 11.892763137817383 L4.76639986038208 11.892763137817383 C4.849427223205566 12.027081489562988 4.932454586029053 12.161398887634277 5.015481948852539 12.295717239379883 L5.015481948852539 12.295717239379883 C4.9391093254089355 12.349453926086426 4.862736225128174 12.403190612792969 4.78636360168457 12.456927299499512 L4.78636360168457 12.456927299499512 C4.736312389373779 12.257966995239258 4.706725120544434 12.103388786315918 4.73601770401001 11.899690628051758 L4.73601770401001 11.899690628051758 C4.746145248413086 11.897381782531738 4.756272315979004 11.895071983337402 4.76639986038208 11.892763137817383 L4.76639986038208 11.892763137817383"></path></svg>