<svg xmlns="http://www.w3.org/2000/svg" viewBox="0.0 0.0 24.0 24.0" height="200px" width="200px"><path fill="none" stroke="black" stroke-width=".3" stroke-opacity="1.0"  filling="0" d="M12.213491439819336 11.559026718139648 L12.213491439819336 11.559026718139648 C12.313746452331543 11.645635604858398 12.414000511169434 11.732245445251465 12.51425552368164 11.818854331970215 L12.51425552368164 11.818854331970215 C12.566400527954102 11.818854331970215 12.618546485900879 11.818854331970215 12.67069149017334 11.818854331970215 L12.67069149017334 11.818854331970215 C12.4108247756958 12.137805938720703 12.489338874816895 12.450706481933594 12.490882873535156 12.865745544433594 L12.490882873535156 12.865745544433594 C12.345428466796875 12.865745544433594 12.199973106384277 12.865745544433594 12.054518699645996 12.865745544433594 L12.054518699645996 12.865745544433594 C12.053833961486816 12.49839973449707 12.149945259094238 12.215909004211426 11.833283424377441 11.979601860046387 L11.833283424377441 11.979601860046387 C11.824583053588867 11.970564842224121 11.815881729125977 11.961527824401855 11.807181358337402 11.95249080657959 L11.807181358337402 11.95249080657959 C11.942618370056152 11.821335792541504 12.078054428100586 11.690181732177734 12.213491439819336 11.559026718139648 L12.213491439819336 11.559026718139648"></path></svg>