<svg xmlns="http://www.w3.org/2000/svg" viewBox="0.0 0.0 24.0 24.0" height="200px" width="200px"><path fill="none" stroke="black" stroke-width=".3" stroke-opacity="1.0"  filling="0" d="M5.657099723815918 11.697463989257812 L5.657099723815918 11.697463989257812 C5.8403706550598145 11.98987102508545 5.631301403045654 12.518726348876953 5.3252177238464355 12.678110122680664 L5.3252177238464355 12.678110122680664 C5.3575544357299805 12.784064292907715 5.389890670776367 12.890019416809082 5.422227382659912 12.995973587036133 L5.422227382659912 12.995973587036133 C5.254872798919678 12.995973587036133 5.087518215179443 12.995973587036133 4.920163631439209 12.995973587036133 L4.920163631439209 12.995973587036133 C4.920163631439209 12.646528244018555 4.920163631439209 12.29708194732666 4.920163631439209 11.947636604309082 L4.920163631439209 11.947636604309082 C5.165809154510498 11.864245414733887 5.411454200744629 11.780855178833008 5.657099723815918 11.697463989257812 L5.657099723815918 11.697463989257812"></path>
<path fill="none" stroke="black" stroke-width=".3" stroke-opacity="1.0"  filling="0" d="M5.324045658111572 12.018218040466309 L5.324045658111572 12.018218040466309 C5.625336647033691 12.256287574768066 5.64656925201416 12.444578170776367 5.32407283782959 12.586090087890625 L5.32407283782959 12.586090087890625 C5.324063777923584 12.396799087524414 5.324054718017578 12.20750904083252 5.324045658111572 12.018218040466309 L5.324045658111572 12.018218040466309"></path></svg>