<svg xmlns="http://www.w3.org/2000/svg" viewBox="0.0 0.0 24.0 24.0" height="200px" width="200px"><path fill="none" stroke="black" stroke-width=".3" stroke-opacity="1.0"  filling="0" d="M18.31922721862793 11.691819190979004 L18.31922721862793 11.691819190979004 C18.469709396362305 11.776191711425781 18.620189666748047 11.860564231872559 18.770671844482422 11.944936752319336 L18.770671844482422 11.944936752319336 C18.688560485839844 12.171906471252441 18.578672409057617 12.373644828796387 18.466880798339844 12.589173316955566 L18.466880798339844 12.589173316955566 C18.554590225219727 12.7626371383667 18.642297744750977 12.936100006103516 18.73000717163086 13.109563827514648 L18.73000717163086 13.109563827514648 C18.559316635131836 13.109563827514648 18.388626098632812 13.109563827514648 18.21793556213379 13.109563827514648 L18.21793556213379 13.109563827514648 C18.217714309692383 12.866345405578613 18.218812942504883 12.595281600952148 17.88998031616211 12.683018684387207 L17.88998031616211 12.683018684387207 C17.879480361938477 12.641609191894531 17.868980407714844 12.600200653076172 17.85848045349121 12.558791160583496 L17.85848045349121 12.558791160583496 C17.95086097717285 12.52200984954834 18.043243408203125 12.485227584838867 18.135623931884766 12.448446273803711 L18.135623931884766 12.448446273803711 C18.100460052490234 12.326228141784668 18.065298080444336 12.204010009765625 18.030134201049805 12.081791877746582 L18.030134201049805 12.081791877746582 C17.979644775390625 12.11780071258545 17.929153442382812 12.153809547424316 17.878664016723633 12.189818382263184 L17.878664016723633 12.189818382263184 C17.86557388305664 12.163463592529297 17.852481842041016 12.137109756469727 17.839391708374023 12.11075496673584 L17.839391708374023 12.11075496673584 C17.99933624267578 11.971109390258789 18.159282684326172 11.831464767456055 18.31922721862793 11.691819190979004 L18.31922721862793 11.691819190979004"></path></svg>