<svg xmlns="http://www.w3.org/2000/svg" viewBox="0.0 0.0 24.0 24.0" height="200px" width="200px"><path fill="none" stroke="black" stroke-width=".3" stroke-opacity="1.0"  filling="0" d="M13.242681503295898 10.939363479614258 L13.242681503295898 10.939363479614258 C13.348990440368652 10.967472076416016 13.455300331115723 10.99558162689209 13.561609268188477 11.023690223693848 L13.561609268188477 11.023690223693848 C13.182441711425781 11.466207504272461 13.22548770904541 11.638116836547852 12.965645790100098 11.259464263916016 L12.965645790100098 11.259464263916016 C12.952981948852539 11.262354850769043 12.94031810760498 11.26524543762207 12.927654266357422 11.268136024475098 L12.927654266357422 11.268136024475098 C12.927435874938965 11.861781120300293 12.927328109741211 12.455427169799805 12.927328109741211 13.049072265625 L12.927328109741211 13.049072265625 C12.773110389709473 13.049072265625 12.618891716003418 13.049072265625 12.46467399597168 13.049072265625 L12.46467399597168 13.049072265625 C12.45987319946289 12.434626579284668 12.455073356628418 11.820181846618652 12.450272560119629 11.20573616027832 L12.450272560119629 11.20573616027832 C12.714408874511719 11.116945266723633 12.978545188903809 11.028154373168945 13.242681503295898 10.939363479614258 L13.242681503295898 10.939363479614258"></path></svg>