<svg xmlns="http://www.w3.org/2000/svg" viewBox="0.0 0.0 24.0 24.0" height="200px" width="200px"><path fill="none" stroke="black" stroke-width=".3" stroke-opacity="1.0"  filling="0" d="M10.400073051452637 11.046271324157715 L10.400073051452637 11.046271324157715 C10.585819244384766 11.096790313720703 10.661684036254883 11.242895126342773 10.793972969055176 11.05099105834961 L10.793972969055176 11.05099105834961 C10.704397201538086 11.333026885986328 10.515183448791504 11.698715209960938 10.261855125427246 11.264100074768066 L10.261855125427246 11.264100074768066 C10.250364303588867 11.266908645629883 10.238872528076172 11.269718170166016 10.227381706237793 11.272526741027832 L10.227381706237793 11.272526741027832 C10.227381706237793 11.812599182128906 10.227381706237793 12.352672576904297 10.227381706237793 12.892745018005371 L10.227381706237793 12.892745018005371 C10.085126876831055 12.892745018005371 9.942873001098633 12.892745018005371 9.800618171691895 12.892745018005371 L9.800618171691895 12.892745018005371 C9.800618171691895 12.33643627166748 9.800618171691895 11.780126571655273 9.800618171691895 11.223817825317383 L9.800618171691895 11.223817825317383 C10.007051467895508 11.195263862609863 10.211495399475098 11.13497543334961 10.400073051452637 11.046271324157715 L10.400073051452637 11.046271324157715"></path></svg>