<svg xmlns="http://www.w3.org/2000/svg" viewBox="0.0 0.0 24.0 24.0" height="200px" width="200px"><path fill="none" stroke="black" stroke-width=".3" stroke-opacity="1.0"  filling="0" d="M15.213683128356934 10.988208770751953 L15.213683128356934 10.988208770751953 C15.21603775024414 11.000590324401855 15.218391418457031 11.012972831726074 15.220746040344238 11.025354385375977 L15.220746040344238 11.025354385375977 C14.92198657989502 11.16480541229248 14.90275764465332 11.362834930419922 14.830937385559082 11.663345336914062 L14.830937385559082 11.663345336914062 C15.041828155517578 11.530099868774414 15.252718925476074 11.396854400634766 15.46360969543457 11.263608932495117 L15.46360969543457 11.263608932495117 C15.463618278503418 11.818163871765137 15.463627815246582 12.37271785736084 15.46363639831543 12.92727279663086 L15.46363639831543 12.92727279663086 C15.025313377380371 13.085259437561035 14.952706336975098 13.0929536819458 14.482526779174805 13.049755096435547 L14.482526779174805 13.049755096435547 C14.226953506469727 12.363240242004395 14.147478103637695 10.994437217712402 15.213683128356934 10.988208770751953 L15.213683128356934 10.988208770751953"></path>
<path fill="none" stroke="black" stroke-width=".3" stroke-opacity="1.0"  filling="0" d="M15.070745468139648 11.654945373535156 L15.070745468139648 11.654945373535156 C15.070755004882812 12.095145225524902 15.07076358795166 12.535345077514648 15.070773124694824 12.975544929504395 L15.070773124694824 12.975544929504395 C15.004382133483887 13.00045394897461 14.937990188598633 13.025362968444824 14.871599197387695 13.050271987915039 L14.871599197387695 13.050271987915039 C14.784070014953613 12.488795280456543 14.708346366882324 12.11778736114502 15.070745468139648 11.654945373535156 L15.070745468139648 11.654945373535156"></path></svg>