<svg xmlns="http://www.w3.org/2000/svg" viewBox="0.0 0.0 24.0 24.0" height="200px" width="200px"><path fill="none" stroke="black" stroke-width=".3" stroke-opacity="1.0"  filling="0" d="M18.835308074951172 11.534017562866211 L18.835308074951172 11.534017562866211 C18.96175765991211 11.661079406738281 19.130943298339844 11.749149322509766 19.302982330322266 11.799517631530762 L19.302982330322266 11.799517631530762 C19.302982330322266 11.835217475891113 19.302982330322266 11.870918273925781 19.302982330322266 11.906618118286133 L19.302982330322266 11.906618118286133 C19.175020217895508 12.103530883789062 19.155723571777344 12.336095809936523 19.003963470458984 12.520853996276855 L19.003963470458984 12.520853996276855 C19.08521842956543 12.70879077911377 19.166473388671875 12.896726608276367 19.24772834777832 13.084663391113281 L19.24772834777832 13.084663391113281 C19.06783676147461 13.084663391113281 18.8879451751709 13.084663391113281 18.708053588867188 13.084663391113281 L18.708053588867188 13.084663391113281 C18.727672576904297 12.764472961425781 18.743831634521484 12.529566764831543 18.34830093383789 12.601936340332031 L18.34830093383789 12.601936340332031 C18.418663024902344 12.51642894744873 18.51936149597168 12.446855545043945 18.62710952758789 12.421309471130371 L18.62710952758789 12.421309471130371 C18.625633239746094 12.065964698791504 18.623558044433594 12.060486793518066 18.296045303344727 12.003217697143555 L18.296045303344727 12.003217697143555 C18.475799560546875 11.846817970275879 18.655553817749023 11.690417289733887 18.835308074951172 11.534017562866211 L18.835308074951172 11.534017562866211"></path></svg>