<svg xmlns="http://www.w3.org/2000/svg" viewBox="0.0 0.0 24.0 24.0" height="200px" width="200px"><path fill="none" stroke="black" stroke-width=".3" stroke-opacity="1.0"  filling="0" d="M3.606954574584961 11.5142183303833 L3.606954574584961 11.5142183303833 C3.7566726207733154 11.744909286499023 3.906390905380249 11.97559928894043 4.0561089515686035 12.206290245056152 L4.0561089515686035 12.206290245056152 C3.778454542160034 12.359827041625977 3.5007998943328857 12.5133638381958 3.2231454849243164 12.666900634765625 L3.2231454849243164 12.666900634765625 C3.2231454849243164 12.75114631652832 3.2231454849243164 12.8353910446167 3.2231454849243164 12.919636726379395 L3.2231454849243164 12.919636726379395 C3.277981758117676 12.955254554748535 3.332818031311035 12.990873336791992 3.3876543045043945 13.026491165161133 L3.3876543045043945 13.026491165161133 C3.3839635848999023 13.032472610473633 3.38027286529541 13.038454055786133 3.376582145690918 13.044435501098633 L3.376582145690918 13.044435501098633 C3.154127836227417 13.044435501098633 2.931673288345337 13.044435501098633 2.709218978881836 13.044435501098633 L2.709218978881836 13.044435501098633 C2.6820197105407715 12.672538757324219 2.6527657508850098 12.31308364868164 2.700136184692383 11.929744720458984 C2.738610029220581 11.618400573730469 3.3685901165008545 11.645429611206055 3.606954574584961 11.5142183303833 L3.606954574584961 11.5142183303833"></path>
<path fill="none" stroke="black" stroke-width=".3" stroke-opacity="1.0"  filling="0" d="M3.222109794616699 11.893745422363281 L3.222109794616699 11.893745422363281 C3.4094982147216797 11.93928050994873 3.451651096343994 12.205278396606445 3.5430545806884766 12.375082015991211 L3.5430545806884766 12.375082015991211 C3.436073064804077 12.436073303222656 3.3290913105010986 12.497063636779785 3.222109794616699 12.55805492401123 L3.222109794616699 12.55805492401123 C3.222109794616699 12.336618423461914 3.222109794616699 12.115181922912598 3.222109794616699 11.893745422363281 L3.222109794616699 11.893745422363281"></path></svg>