<svg xmlns="http://www.w3.org/2000/svg" viewBox="0.0 0.0 24.0 24.0" height="200px" width="200px"><path fill="none" stroke="black" stroke-width=".3" stroke-opacity="1.0"  filling="0" d="M12.22729206085205 10.8706636428833 L12.22729206085205 10.8706636428833 C12.237591743469238 10.873636245727539 12.247892379760742 10.876608848571777 12.25819206237793 10.879581451416016 L12.25819206237793 10.879581451416016 C12.286109924316406 10.949317932128906 12.314027786254883 11.019054412841797 12.34194564819336 11.088790893554688 L12.34194564819336 11.088790893554688 C12.414445877075195 11.118399620056152 12.486946105957031 11.148009300231934 12.559446334838867 11.177618026733398 L12.559446334838867 11.177618026733398 C12.451855659484863 11.300790786743164 12.317604064941406 11.40043830871582 12.237491607666016 11.54408073425293 L12.237491607666016 11.54408073425293 C12.221628189086914 11.544726371765137 12.205763816833496 11.54537296295166 12.189900398254395 11.546018600463867 L12.189900398254395 11.546018600463867 C12.090127944946289 11.42536449432373 11.990354537963867 11.304709434509277 11.890582084655762 11.18405532836914 L11.890582084655762 11.18405532836914 C12.002819061279297 11.079591751098633 12.115055084228516 10.975127220153809 12.22729206085205 10.8706636428833 L12.22729206085205 10.8706636428833"></path></svg>