<svg xmlns="http://www.w3.org/2000/svg" viewBox="0.0 0.0 24.0 24.0" height="200px" width="200px"><path fill="none" stroke="black" stroke-width=".3" stroke-opacity="1.0"  filling="0" d="M5.481818199157715 9.790908813476562 L5.481818199157715 9.790908813476562 C5.581818103790283 9.790908813476562 5.68181848526001 9.790908813476562 5.781818389892578 9.790908813476562 L5.781818389892578 9.790908813476562 C5.776336669921875 9.806463241577148 5.770854473114014 9.82201862335205 5.7653727531433105 9.837573051452637 L5.7653727531433105 9.837573051452637 C5.920654296875 9.866009712219238 6.075936317443848 9.894445419311523 6.231217861175537 9.922882080078125 L6.231217861175537 9.922882080078125 C6.235963344573975 9.878890991210938 6.24070930480957 9.83489990234375 6.245454788208008 9.790908813476562 L6.245454788208008 9.790908813476562 C6.263636589050293 9.790908813476562 6.281818389892578 9.790908813476562 6.300000190734863 9.790908813476562 L6.300000190734863 9.790908813476562 C6.375072956085205 9.908445358276367 6.450145244598389 10.025981903076172 6.5252180099487305 10.143518447875977 L6.5252180099487305 10.143518447875977 C6.520645618438721 10.153182029724121 6.516072750091553 10.16284465789795 6.511500358581543 10.172508239746094 L6.511500358581543 10.172508239746094 C6.168272972106934 10.163490295410156 5.825045585632324 10.154472351074219 5.481818199157715 10.145454406738281 L5.481818199157715 10.145454406738281 C5.481818199157715 10.02727222442627 5.481818199157715 9.909090995788574 5.481818199157715 9.790908813476562 L5.481818199157715 9.790908813476562"></path></svg>