<svg xmlns="http://www.w3.org/2000/svg" viewBox="0.0 0.0 24.0 24.0" height="200px" width="200px"><path fill="none" stroke="black" stroke-width=".3" stroke-opacity="1.0"  filling="0" d="M18.834436416625977 11.608988761901855 L18.834436416625977 11.608988761901855 C18.996309280395508 11.700925827026367 19.158180236816406 11.792862892150879 19.320053100585938 11.88479995727539 L19.320053100585938 11.88479995727539 C19.23552894592285 12.113993644714355 19.095073699951172 12.358284950256348 18.996244430541992 12.5733003616333 L18.996244430541992 12.5733003616333 C19.421844482421875 13.021543502807617 19.329225540161133 13.18543815612793 18.717819213867188 13.137517929077148 L18.717819213867188 13.137517929077148 C18.7032527923584 12.82059097290039 18.716453552246094 12.588312149047852 18.314701080322266 12.66395378112793 L18.314701080322266 12.66395378112793 C18.32990074157715 12.618999481201172 18.345102310180664 12.574044227600098 18.360301971435547 12.52908992767334 L18.360301971435547 12.52908992767334 C18.758516311645508 12.376171112060547 18.61251449584961 11.909165382385254 18.355117797851562 12.143753051757812 L18.355117797851562 12.143753051757812 C18.33025360107422 12.120071411132812 18.305391311645508 12.096388816833496 18.280527114868164 12.072707176208496 L18.280527114868164 12.072707176208496 C18.465164184570312 11.918134689331055 18.649799346923828 11.763561248779297 18.834436416625977 11.608988761901855 L18.834436416625977 11.608988761901855"></path></svg>