<svg xmlns="http://www.w3.org/2000/svg" viewBox="0.0 0.0 24.0 24.0" height="200px" width="200px"><path fill="none" stroke="black" stroke-width=".3" stroke-opacity="1.0"  filling="0" d="M17.625354766845703 11.607954978942871 L17.625354766845703 11.607954978942871 C17.706928253173828 11.712318420410156 17.78849983215332 11.816682815551758 17.870073318481445 11.921046257019043 L17.870073318481445 11.921046257019043 C17.961673736572266 11.91140079498291 18.053272247314453 11.901754379272461 18.144872665405273 11.892108917236328 L18.144872665405273 11.892108917236328 C17.82018280029297 12.391085624694824 17.91891098022461 12.418084144592285 17.918182373046875 13.139427185058594 L17.918182373046875 13.139427185058594 C17.745473861694336 13.139427185058594 17.572763442993164 13.139427185058594 17.400054931640625 13.139427185058594 L17.400054931640625 13.139427185058594 C17.400054931640625 12.815101623535156 17.436824798583984 12.436224937438965 17.368473052978516 12.109554290771484 L17.368473052978516 12.109554290771484 C17.292627334594727 12.109554290771484 17.21678352355957 12.109554290771484 17.14093780517578 12.109554290771484 L17.14093780517578 12.109554290771484 C17.25387191772461 11.906391143798828 17.453935623168945 11.76494026184082 17.625354766845703 11.607954978942871 L17.625354766845703 11.607954978942871"></path></svg>