<svg xmlns="http://www.w3.org/2000/svg" viewBox="0.0 0.0 24.0 24.0" height="200px" width="200px"><path fill="none" stroke="black" stroke-width=".3" stroke-opacity="1.0"  filling="0" d="M14.03817367553711 11.479581832885742 L14.03817367553711 11.479581832885742 C14.18251895904541 11.716382026672363 14.326863288879395 11.953181266784668 14.471208572387695 12.189981460571289 L14.471208572387695 12.189981460571289 C14.193881034851074 12.341463088989258 13.91655445098877 12.492945671081543 13.639226913452148 12.644427299499512 L13.639226913452148 12.644427299499512 C13.678109169006348 12.75587272644043 13.71699047088623 12.867318153381348 13.75587272644043 12.978763580322266 L13.75587272644043 12.978763580322266 C13.74968147277832 12.98671817779541 13.743491172790527 12.994672775268555 13.737299919128418 13.0026273727417 L13.737299919128418 13.0026273727417 C13.542326927185059 13.0026273727417 13.347354888916016 13.0026273727417 13.152381896972656 13.0026273727417 L13.152381896972656 13.0026273727417 C13.152381896972656 12.596627235412598 13.152381896972656 12.190627098083496 13.152381896972656 11.784626960754395 L13.152381896972656 11.784626960754395 C13.447646141052246 11.682945251464844 13.74290943145752 11.581263542175293 14.03817367553711 11.479581832885742 L14.03817367553711 11.479581832885742"></path>
<path fill="none" stroke="black" stroke-width=".3" stroke-opacity="1.0"  filling="0" d="M13.644572257995605 11.871490478515625 L13.644572257995605 11.871490478515625 C13.756027221679688 12.033417701721191 13.867481231689453 12.195345878601074 13.978936195373535 12.35727310180664 L13.978936195373535 12.35727310180664 C13.867481231689453 12.415691375732422 13.756027221679688 12.474108695983887 13.644572257995605 12.532526969909668 L13.644572257995605 12.532526969909668 C13.644572257995605 12.31218147277832 13.644572257995605 12.091835975646973 13.644572257995605 11.871490478515625 L13.644572257995605 11.871490478515625"></path></svg>