<svg xmlns="http://www.w3.org/2000/svg" viewBox="0.0 0.0 24.0 24.0" height="200px" width="200px"><path fill="none" stroke="black" stroke-width=".3" stroke-opacity="1.0"  filling="0" d="M9.711381912231445 10.509190559387207 L9.711381912231445 10.509190559387207 C9.792656898498535 10.7609224319458 9.966775894165039 10.910741806030273 10.09276294708252 10.580263137817383 L10.09276294708252 10.580263137817383 C10.231159210205078 11.144424438476562 9.620348930358887 11.367252349853516 9.33586311340332 10.912200927734375 L9.33586311340332 10.912200927734375 C9.325118064880371 10.912164688110352 9.314372062683105 10.912127494812012 9.303627014160156 10.912091255187988 L9.303627014160156 10.912091255187988 C9.303627014160156 11.680500030517578 9.303627014160156 12.448908805847168 9.303627014160156 13.217317581176758 L9.303627014160156 13.217317581176758 C9.093327522277832 13.217317581176758 8.883027076721191 13.217317581176758 8.672727584838867 13.217317581176758 L8.672727584838867 13.217317581176758 C8.673433303833008 12.434213638305664 8.679332733154297 11.651095390319824 8.690590858459473 10.868071556091309 L8.690590858459473 10.868071556091309 C9.030854225158691 10.748444557189941 9.371118545532227 10.628817558288574 9.711381912231445 10.509190559387207 L9.711381912231445 10.509190559387207"></path></svg>