<svg xmlns="http://www.w3.org/2000/svg" viewBox="0.0 0.0 24.0 24.0" height="200px" width="200px"><path fill="none" stroke="black" stroke-width=".3" stroke-opacity="1.0"  filling="0" d="M20.032175064086914 11.435481071472168 L20.032175064086914 11.435481071472168 C20.181936264038086 11.599237442016602 20.261228561401367 11.707335472106934 20.495019912719727 11.729644775390625 L20.495019912719727 11.729644775390625 C20.432809829711914 11.963805198669434 20.317989349365234 12.402017593383789 20.11284637451172 12.542861938476562 L20.11284637451172 12.542861938476562 C20.224145889282227 12.762125968933105 20.335447311401367 12.981389045715332 20.446746826171875 13.200653076171875 L20.446746826171875 13.200653076171875 C20.22508430480957 13.200653076171875 20.003419876098633 13.200653076171875 19.781757354736328 13.200653076171875 L19.781757354736328 13.200653076171875 C19.781600952148438 12.790058135986328 19.821741104125977 12.559903144836426 19.35763931274414 12.632970809936523 L19.35763931274414 12.632970809936523 C19.346710205078125 12.623635292053223 19.335783004760742 12.614299774169922 19.324853897094727 12.604964256286621 L19.324853897094727 12.604964256286621 C19.345426559448242 12.55950927734375 19.365999221801758 12.514055252075195 19.386571884155273 12.468600273132324 L19.386571884155273 12.468600273132324 C19.82186508178711 12.471593856811523 19.811525344848633 11.84485149383545 19.3125 11.984454154968262 L19.3125 11.984454154968262 C19.50593376159668 11.696460723876953 19.69617462158203 11.519161224365234 20.032175064086914 11.435481071472168 L20.032175064086914 11.435481071472168"></path></svg>