<svg xmlns="http://www.w3.org/2000/svg" viewBox="0.0 0.0 24.0 24.0" height="200px" width="200px"><path fill="none" stroke="black" stroke-width=".3" stroke-opacity="1.0"  filling="0" d="M13.464900970458984 10.51663589477539 L13.464900970458984 10.51663589477539 C13.583709716796875 10.639235496520996 13.702518463134766 10.761836051940918 13.821327209472656 10.884435653686523 L13.821327209472656 10.884435653686523 C13.82321834564209 10.916726112365723 13.825109481811523 10.949017524719238 13.827000617980957 10.981307983398438 L13.827000617980957 10.981307983398438 C13.702455520629883 11.113089561462402 13.577909469604492 11.244872093200684 13.453364372253418 11.376653671264648 L13.453364372253418 11.376653671264648 C13.326375007629395 11.234020233154297 13.182065963745117 11.107710838317871 13.042173385620117 10.97770881652832 L13.042173385620117 10.97770881652832 C13.042173385620117 10.949736595153809 13.042173385620117 10.92176342010498 13.042173385620117 10.893791198730469 L13.042173385620117 10.893791198730469 C13.20235824584961 10.816362380981445 13.344038009643555 10.68247127532959 13.429256439208984 10.526290893554688 L13.429256439208984 10.526290893554688 C13.44113826751709 10.523072242736816 13.453019142150879 10.519854545593262 13.464900970458984 10.51663589477539 L13.464900970458984 10.51663589477539"></path></svg>