<svg xmlns="http://www.w3.org/2000/svg" viewBox="0.0 0.0 24.0 24.0" height="200px" width="200px"><path fill="none" stroke="black" stroke-width=".3" stroke-opacity="1.0"  filling="0" d="M14.12459945678711 11.429290771484375 L14.12459945678711 11.429290771484375 C14.293227195739746 11.686427116394043 14.461853981018066 11.943564414978027 14.630481719970703 12.200700759887695 L14.630481719970703 12.200700759887695 C14.17746639251709 12.516568183898926 13.360774993896484 12.578441619873047 13.780745506286621 13.134819030761719 L13.780745506286621 13.134819030761719 C13.774218559265137 13.145410537719727 13.767690658569336 13.156001091003418 13.761163711547852 13.166592597961426 L13.761163711547852 13.166592597961426 C12.74637222290039 13.428824424743652 13.090730667114258 12.45656681060791 13.090853691101074 11.753427505493164 L13.090853691101074 11.753427505493164 C13.449041366577148 11.70746898651123 13.804671287536621 11.596792221069336 14.12459945678711 11.429290771484375 L14.12459945678711 11.429290771484375"></path>
<path fill="none" stroke="black" stroke-width=".3" stroke-opacity="1.0"  filling="0" d="M13.66993522644043 11.813318252563477 L13.66993522644043 11.813318252563477 C13.808344841003418 12.02165412902832 13.946754455566406 12.22999095916748 14.085164070129395 12.438326835632324 L14.085164070129395 12.438326835632324 C13.946754455566406 12.508672714233398 13.808344841003418 12.579017639160156 13.66993522644043 12.64936351776123 L13.66993522644043 12.64936351776123 C13.66993522644043 12.370681762695312 13.66993522644043 12.092000007629395 13.66993522644043 11.813318252563477 L13.66993522644043 11.813318252563477"></path></svg>