<svg xmlns="http://www.w3.org/2000/svg" viewBox="0.0 0.0 24.0 24.0" height="200px" width="200px"><path fill="none" stroke="black" stroke-width=".3" stroke-opacity="1.0"  filling="0" d="M2.832381248474121 11.405754089355469 L2.832381248474121 11.405754089355469 C2.9910905361175537 11.662691116333008 3.1497995853424072 11.91962718963623 3.30850887298584 12.17656421661377 L3.30850887298584 12.17656421661377 C2.9437201023101807 12.382156372070312 2.4073429107666016 12.469768524169922 2.4003820419311523 12.942245483398438 L2.4003820419311523 12.942245483398438 C2.4637184143066406 12.98825454711914 2.527054786682129 13.034262657165527 2.590391159057617 13.08027172088623 L2.590391159057617 13.08027172088623 C2.3467185497283936 13.08027172088623 2.103045701980591 13.08027172088623 1.8593730926513672 13.08027172088623 L1.8593730926513672 13.08027172088623 C1.4894328117370605 11.645822525024414 1.7903791666030884 11.819669723510742 2.832381248474121 11.405754089355469 L2.832381248474121 11.405754089355469"></path>
<path fill="none" stroke="black" stroke-width=".3" stroke-opacity="1.0"  filling="0" d="M2.429072380065918 11.818799018859863 L2.429072380065918 11.818799018859863 C2.5417635440826416 11.9999361038208 2.6544549465179443 12.181072235107422 2.767146110534668 12.36220932006836 L2.767146110534668 12.36220932006836 C2.6477277278900146 12.425018310546875 2.5283091068267822 12.48782730102539 2.408890724182129 12.550636291503906 L2.408890724182129 12.550636291503906 C2.408890724182129 12.309908866882324 2.408890724182129 12.069182395935059 2.408890724182129 11.828454971313477 L2.408890724182129 11.828454971313477 C2.4156179428100586 11.825236320495605 2.4223451614379883 11.822017669677734 2.429072380065918 11.818799018859863 L2.429072380065918 11.818799018859863"></path></svg>