<svg xmlns="http://www.w3.org/2000/svg" viewBox="0.0 0.0 24.0 24.0" height="200px" width="200px"><path fill="none" stroke="black" stroke-width=".3" stroke-opacity="1.0"  filling="0" d="M18.0782470703125 11.459236145019531 L18.0782470703125 11.459236145019531 C18.23410415649414 11.656628608703613 18.330013275146484 11.863447189331055 18.617782592773438 11.780099868774414 L18.617782592773438 11.780099868774414 C18.623455047607422 11.789163589477539 18.62912940979004 11.798227310180664 18.634801864624023 11.807291030883789 L18.634801864624023 11.807291030883789 C18.283723831176758 12.184431076049805 18.40909194946289 12.655567169189453 18.40909194946289 13.13882827758789 L18.40909194946289 13.13882827758789 C18.218210220336914 13.138836860656738 18.027326583862305 13.138846397399902 17.836444854736328 13.13885498046875 L17.836444854736328 13.13885498046875 C17.836013793945312 12.769214630126953 17.861793518066406 12.396401405334473 17.811355590820312 12.030218124389648 L17.811355590820312 12.030218124389648 C17.739683151245117 12.030218124389648 17.66800880432129 12.030218124389648 17.596336364746094 12.030218124389648 L17.596336364746094 12.030218124389648 C17.673654556274414 11.79346752166748 17.90522575378418 11.638379096984863 18.0782470703125 11.459236145019531 L18.0782470703125 11.459236145019531"></path></svg>