<svg xmlns="http://www.w3.org/2000/svg" viewBox="0.0 0.0 24.0 24.0" height="200px" width="200px"><path fill="none" stroke="black" stroke-width=".3" stroke-opacity="1.0"  filling="0" d="M13.67261028289795 11.361981391906738 L13.67261028289795 11.361981391906738 C13.845555305480957 11.639963150024414 14.018501281738281 11.917945861816406 14.191446304321289 12.195927619934082 L14.191446304321289 12.195927619934082 C13.895981788635254 12.436113357543945 13.195930480957031 12.507997512817383 13.199999809265137 13.00840950012207 L13.199999809265137 13.00840950012207 C13.269372940063477 13.066109657287598 13.3387451171875 13.123809814453125 13.40811824798584 13.181509971618652 L13.40811824798584 13.181509971618652 C12.29178237915039 13.40056324005127 12.599946975708008 12.70848560333252 12.599946975708008 11.728363037109375 L12.599946975708008 11.728363037109375 C12.957501411437988 11.60623550415039 13.315055847167969 11.484108924865723 13.67261028289795 11.361981391906738 L13.67261028289795 11.361981391906738"></path>
<path fill="none" stroke="black" stroke-width=".3" stroke-opacity="1.0"  filling="0" d="M13.243118286132812 11.815581321716309 L13.243118286132812 11.815581321716309 C13.3812255859375 12.046741485595703 13.440855026245117 12.50179386138916 13.200027465820312 12.622254371643066 L13.200027465820312 12.622254371643066 C13.200418472290039 12.356027603149414 13.200810432434082 12.089799880981445 13.201201438903809 11.823573112487793 L13.201201438903809 11.823573112487793 C13.215173721313477 11.82090950012207 13.229146003723145 11.818244934082031 13.243118286132812 11.815581321716309 L13.243118286132812 11.815581321716309"></path></svg>