<svg xmlns="http://www.w3.org/2000/svg" viewBox="0.0 0.0 24.0 24.0" height="200px" width="200px"><path fill="none" stroke="black" stroke-width=".3" stroke-opacity="1.0"  filling="0" d="M-4.6945648193359375 11.422636032104492 L-4.6945648193359375 11.422636032104492 C-4.414396286010742 11.673395156860352 -4.306271076202393 11.823582649230957 -3.922417640686035 11.842525482177734 L-3.922417640686035 11.842525482177734 C-4.150022029876709 12.241543769836426 -4.1053972244262695 13.472491264343262 -4.338163375854492 13.527080535888672 C-5.391478061676025 13.77410888671875 -4.667240619659424 12.607352256774902 -5.14777946472168 12.084981918334961 C-5.244381904602051 11.97996997833252 -5.472223281860352 13.191716194152832 -5.264371871948242 13.506245613098145 L-5.264371871948242 13.506245613098145 C-5.373208522796631 13.50416374206543 -5.482044696807861 13.502081871032715 -5.59088134765625 13.5 L-5.59088134765625 13.5 C-5.590890884399414 12.881817817687988 -5.590900421142578 12.263636589050293 -5.590909957885742 11.645454406738281 L-5.590909957885742 11.645454406738281 C-5.487695693969727 11.78358268737793 -5.398121356964111 11.950824737548828 -5.392444610595703 12.123163223266602 L-5.392444610595703 12.123163223266602 C-5.379199504852295 12.12824535369873 -5.3659539222717285 12.133326530456543 -5.35270881652832 12.138408660888672 L-5.35270881652832 12.138408660888672 C-5.133327484130859 11.89981746673584 -4.913946151733398 11.661227226257324 -4.6945648193359375 11.422636032104492 L-4.6945648193359375 11.422636032104492"></path></svg>