<svg xmlns="http://www.w3.org/2000/svg" viewBox="0.0 0.0 24.0 24.0" height="200px" width="200px"><path fill="none" stroke="black" stroke-width=".3" stroke-opacity="1.0"  filling="0" d="M6.736391067504883 9.572725296020508 L6.736391067504883 9.572725296020508 C6.772745609283447 9.572726249694824 6.8090996742248535 9.572726249694824 6.845454216003418 9.57272720336914 L6.845454216003418 9.57272720336914 C6.924956798553467 10.082139015197754 7.110692024230957 10.607446670532227 7.033036708831787 11.120126724243164 L7.033036708831787 11.120126724243164 C6.797512531280518 10.704777717590332 6.998202323913574 9.98036003112793 6.572727680206299 9.763662338256836 L6.572727680206299 9.763662338256836 C6.572727680206299 9.700026512145996 6.572727680206299 9.63638973236084 6.572727680206299 9.57275390625 L6.572727680206299 9.57275390625 C6.600000381469727 9.57275390625 6.627272605895996 9.57275390625 6.654545307159424 9.57275390625 L6.654545307159424 9.57275390625 C6.756599426269531 9.965193748474121 6.725033283233643 10.386892318725586 6.915027141571045 10.749381065368652 L6.915027141571045 10.749381065368652 C6.922427177429199 10.745426177978516 6.9298272132873535 10.741471290588379 6.937227249145508 10.737516403198242 L6.937227249145508 10.737516403198242 C6.87028169631958 10.349252700805664 6.8033366203308105 9.960988998413086 6.736391067504883 9.572725296020508 L6.736391067504883 9.572725296020508"></path></svg>