<svg xmlns="http://www.w3.org/2000/svg" viewBox="0.0 0.0 24.0 24.0" height="200px" width="200px"><path fill="none" stroke="black" stroke-width=".3" stroke-opacity="1.0"  filling="0" d="M13.801199913024902 11.090209007263184 L13.801199913024902 11.090209007263184 C13.815263748168945 11.091818809509277 13.829326629638672 11.093427658081055 13.843390464782715 11.095037460327148 L13.843390464782715 11.095037460327148 C14.078301429748535 11.898628234863281 14.305777549743652 12.90510368347168 14.31218147277832 13.742454528808594 L14.31218147277832 13.742454528808594 C14.209827423095703 13.770273208618164 14.10747241973877 13.798090934753418 14.005118370056152 13.825909614562988 L14.005118370056152 13.825909614562988 C13.791584968566895 13.293633460998535 13.465606689453125 12.446696281433105 13.847290992736816 11.964736938476562 L13.847290992736816 11.964736938476562 C13.820693016052246 11.756494522094727 13.687515258789062 11.304214477539062 13.801199913024902 11.090209007263184 L13.801199913024902 11.090209007263184"></path>
<path fill="none" stroke="black" stroke-width=".3" stroke-opacity="1.0"  filling="0" d="M13.857736587524414 12.207136154174805 L13.857736587524414 12.207136154174805 C14.103981018066406 12.473688125610352 14.095327377319336 13.152178764343262 14.133381843566895 13.51003646850586 L14.133381843566895 13.51003646850586 C13.851881980895996 13.352402687072754 13.85827922821045 12.572856903076172 13.821791648864746 12.225627899169922 L13.821791648864746 12.225627899169922 C13.833773612976074 12.219464302062988 13.845754623413086 12.213299751281738 13.857736587524414 12.207136154174805 L13.857736587524414 12.207136154174805"></path></svg>