<svg xmlns="http://www.w3.org/2000/svg" viewBox="0.0 0.0 24.0 24.0" height="200px" width="200px"><path fill="none" stroke="black" stroke-width=".3" stroke-opacity="1.0"  filling="0" d="M29.040925979614258 11.427899360656738 L29.040925979614258 11.427899360656738 C29.230161666870117 11.59518814086914 29.31927490234375 11.934717178344727 29.64545249938965 11.836363792419434 L29.64545249938965 11.836363792419434 C29.64545249938965 11.881817817687988 29.64545440673828 11.92727279663086 29.64545440673828 11.972726821899414 L29.64545440673828 11.972726821899414 C29.362716674804688 12.431283950805664 29.464828491210938 13.012677192687988 29.44409942626953 13.546363830566406 L29.44409942626953 13.546363830566406 C29.20213508605957 13.546363830566406 28.960172653198242 13.546363830566406 28.71820831298828 13.546363830566406 L28.71820831298828 13.546363830566406 C28.71820831298828 13.075368881225586 28.75240707397461 12.605504989624023 28.67975425720215 12.139008522033691 L28.67975425720215 12.139008522033691 C28.58842658996582 12.139008522033691 28.49709701538086 12.139008522033691 28.40576934814453 12.139008522033691 L28.40576934814453 12.139008522033691 C28.524150848388672 11.844056129455566 28.809051513671875 11.645258903503418 29.040925979614258 11.427899360656738 L29.040925979614258 11.427899360656738"></path></svg>