<svg xmlns="http://www.w3.org/2000/svg" viewBox="0.0 0.0 24.0 24.0" height="200px" width="200px"><path fill="none" stroke="black" stroke-width=".3" stroke-opacity="1.0"  filling="0" d="M15.502281188964844 11.217135429382324 L15.502281188964844 11.217135429382324 C15.965784072875977 11.360162734985352 16.161901473999023 12.70130443572998 15.896646499633789 13.060500144958496 L15.896646499633789 13.060500144958496 C15.825775146484375 12.677384376525879 15.757805824279785 11.885538101196289 15.593291282653809 11.538763046264648 L15.593291282653809 11.538763046264648 C15.349686622619629 12.067793846130371 15.648269653320312 12.643935203552246 15.751935958862305 13.192935943603516 L15.751935958862305 13.192935943603516 C15.698308944702148 13.195344924926758 15.644681930541992 13.19775390625 15.591054916381836 13.200162887573242 L15.591054916381836 13.200162887573242 C15.479517936706543 12.594717025756836 15.367981910705566 11.989272117614746 15.256444931030273 11.38382625579834 L15.256444931030273 11.38382625579834 C15.310354232788086 11.357280731201172 15.364262580871582 11.33073616027832 15.418171882629395 11.304190635681152 L15.418171882629395 11.304190635681152 C15.446208000183105 11.275172233581543 15.474245071411133 11.246153831481934 15.502281188964844 11.217135429382324 L15.502281188964844 11.217135429382324"></path></svg>