<svg xmlns="http://www.w3.org/2000/svg" viewBox="0.0 0.0 24.0 24.0" height="200px" width="200px"><path fill="none" stroke="black" stroke-width=".3" stroke-opacity="1.0"  filling="0" d="M9.495599746704102 10.385127067565918 L9.495599746704102 10.385127067565918 C9.567317962646484 10.494745254516602 9.639036178588867 10.604363441467285 9.71075439453125 10.713981628417969 L9.71075439453125 10.713981628417969 C9.77297306060791 10.641763687133789 9.835190773010254 10.56954574584961 9.897409439086914 10.49732780456543 L9.897409439086914 10.49732780456543 C10.275485038757324 11.024639129638672 9.349199295043945 11.239352226257324 9.066627502441406 10.793890953063965 L9.066627502441406 10.793890953063965 C9.053500175476074 10.799254417419434 9.040372848510742 10.804617881774902 9.02724552154541 10.809981346130371 L9.02724552154541 10.809981346130371 C9.02724552154541 11.755376815795898 9.595816612243652 13.33614730834961 8.378808975219727 13.336336135864258 L8.378808975219727 13.336336135864258 C8.341228485107422 12.506203651428223 8.260331153869629 11.594331741333008 8.368990898132324 10.787262916564941 L8.368990898132324 10.787262916564941 C8.82569408416748 10.766973495483398 9.134174346923828 10.668970108032227 9.495599746704102 10.385127067565918 L9.495599746704102 10.385127067565918"></path></svg>