<svg xmlns="http://www.w3.org/2000/svg" viewBox="0.0 0.0 24.0 24.0" height="200px" width="200px"><path fill="none" stroke="black" stroke-width=".3" stroke-opacity="1.0"  filling="0" d="M13.923490524291992 11.338172912597656 L13.923490524291992 11.338172912597656 C14.187536239624023 11.63275146484375 14.380401611328125 11.9798002243042 14.550190925598145 12.335726737976074 L14.550190925598145 12.335726737976074 C14.166484832763672 12.533112525939941 12.841788291931152 12.945889472961426 13.636881828308105 13.480171203613281 L13.636881828308105 13.480171203613281 C13.320127487182617 13.47188949584961 13.003373146057129 13.463606834411621 12.68661880493164 13.45532512664795 L12.68661880493164 13.45532512664795 C12.686609268188477 12.887771606445312 12.686599731445312 12.32021713256836 12.686590194702148 11.752663612365723 L12.686590194702148 11.752663612365723 C13.09889030456543 11.614500045776367 13.511190414428711 11.476336479187012 13.923490524291992 11.338172912597656 L13.923490524291992 11.338172912597656"></path>
<path fill="none" stroke="black" stroke-width=".3" stroke-opacity="1.0"  filling="0" d="M13.401762962341309 11.865381240844727 L13.401762962341309 11.865381240844727 C13.67912769317627 11.957329750061035 13.742721557617188 12.33091926574707 13.867609024047852 12.580254554748535 L13.867609024047852 12.580254554748535 C13.712327003479004 12.656636238098145 13.557044982910156 12.733017921447754 13.401762962341309 12.809399604797363 L13.401762962341309 12.809399604797363 C13.401762962341309 12.49472713470459 13.401762962341309 12.1800537109375 13.401762962341309 11.865381240844727 L13.401762962341309 11.865381240844727"></path></svg>