<svg xmlns="http://www.w3.org/2000/svg" viewBox="0.0 0.0 24.0 24.0" height="200px" width="200px"><path fill="none" stroke="black" stroke-width=".3" stroke-opacity="1.0"  filling="0" d="M-3.2974367141723633 11.337435722351074 L-3.2974367141723633 11.337435722351074 C-3.116847276687622 11.625591278076172 -2.570159435272217 12.021659851074219 -2.82810115814209 12.24327278137207 C-3.0709760189056396 12.451940536499023 -4.263017654418945 12.763710975646973 -3.6288843154907227 13.250290870666504 L-3.6288843154907227 13.250290870666504 C-3.6310293674468994 13.260682106018066 -3.6331746578216553 13.271072387695312 -3.635319709777832 13.281463623046875 L-3.635319709777832 13.281463623046875 C-4.851684093475342 13.281417846679688 -4.445455551147461 12.984657287597656 -4.445455551147461 11.699917793273926 L-4.445455551147461 11.699917793273926 C-4.0627827644348145 11.579090118408203 -3.680109739303589 11.458263397216797 -3.2974367141723633 11.337435722351074 L-3.2974367141723633 11.337435722351074"></path>
<path fill="none" stroke="black" stroke-width=".3" stroke-opacity="1.0"  filling="0" d="M-3.7859716415405273 11.804372787475586 L-3.7859716415405273 11.804372787475586 C-3.21724796295166 12.438430786132812 -3.8158583641052246 13.261905670166016 -3.8180465698242188 11.819426536560059 L-3.8180465698242188 11.819426536560059 C-3.8073549270629883 11.814408302307129 -3.796663284301758 11.809391021728516 -3.7859716415405273 11.804372787475586 L-3.7859716415405273 11.804372787475586"></path></svg>