<svg xmlns="http://www.w3.org/2000/svg" viewBox="0.0 0.0 24.0 24.0" height="200px" width="200px"><path fill="none" stroke="black" stroke-width=".3" stroke-opacity="1.0"  filling="0" d="M12.833292007446289 12.212754249572754 L12.833292007446289 12.212754249572754 C13.124348640441895 12.360749244689941 13.168858528137207 12.873941421508789 13.170900344848633 13.179844856262207 L13.170900344848633 13.179844856262207 C13.072991371154785 13.179844856262207 12.975082397460938 13.179844856262207 12.87717342376709 13.179844856262207 L12.87717342376709 13.179844856262207 C12.91383171081543 13.384522438049316 12.962055206298828 13.60373592376709 13.093310356140137 13.765008926391602 L13.093310356140137 13.765008926391602 C13.08661937713623 13.62792682647705 13.07992935180664 13.4908447265625 13.073238372802734 13.35376262664795 L13.073238372802734 13.35376262664795 C13.233994483947754 13.467036247253418 13.470548629760742 14.010543823242188 13.127592086791992 14.072017669677734 C12.593402862548828 14.167769432067871 12.648510932922363 12.438446044921875 12.833292007446289 12.212754249572754 L12.833292007446289 12.212754249572754"></path>
<path fill="none" stroke="black" stroke-width=".3" stroke-opacity="1.0"  filling="0" d="M12.844773292541504 12.480818748474121 L12.844773292541504 12.480818748474121 C12.881864547729492 12.616328239440918 12.918954849243164 12.751836776733398 12.956046104431152 12.887346267700195 L12.956046104431152 12.887346267700195 C12.840861320495605 12.806904792785645 12.824179649353027 12.619794845581055 12.844773292541504 12.480818748474121 L12.844773292541504 12.480818748474121"></path></svg>