<svg xmlns="http://www.w3.org/2000/svg" viewBox="0.0 0.0 24.0 24.0" height="200px" width="200px"><path fill="none" stroke="black" stroke-width=".3" stroke-opacity="1.0"  filling="0" d="M21.532119750976562 11.38309097290039 L21.532119750976562 11.38309097290039 C21.79187774658203 11.584152221679688 21.81412696838379 11.617525100708008 22.169267654418945 11.73900032043457 L22.169267654418945 11.73900032043457 C22.148880004882812 11.970551490783691 21.87306785583496 12.584412574768066 21.738601684570312 12.72392749786377 L21.738601684570312 12.72392749786377 C21.860227584838867 12.991727828979492 21.981855392456055 13.259527206420898 22.10348129272461 13.527327537536621 L22.10348129272461 13.527327537536621 C21.84723663330078 13.527327537536621 21.590991973876953 13.527327537536621 21.334747314453125 13.527327537536621 L21.334747314453125 13.527327537536621 C21.349882125854492 13.219064712524414 20.875511169433594 13.065069198608398 20.812145233154297 12.763010025024414 C20.796764373779297 12.689685821533203 21.202823638916016 12.576568603515625 21.24420166015625 12.470645904541016 C21.46879768371582 11.895708084106445 20.983963012695312 12.197393417358398 20.833364486694336 12.062864303588867 C20.666749954223633 11.914027214050293 21.367586135864258 11.504742622375488 21.532119750976562 11.38309097290039 L21.532119750976562 11.38309097290039"></path></svg>