<svg xmlns="http://www.w3.org/2000/svg" viewBox="0.0 0.0 24.0 24.0" height="200px" width="200px"><path fill="none" stroke="black" stroke-width=".3" stroke-opacity="1.0"  filling="0" d="M18.60212516784668 10.347354888916016 L18.60212516784668 10.347354888916016 C18.708192825317383 10.649247169494629 18.858335494995117 10.815000534057617 19.04181671142578 10.465827941894531 L19.04181671142578 10.465827941894531 C19.053279876708984 10.467745780944824 19.06474494934082 10.469664573669434 19.076208114624023 10.471582412719727 L19.076208114624023 10.471582412719727 C19.17070198059082 11.17685604095459 18.489248275756836 11.314260482788086 18.139358520507812 10.800054550170898 L18.139358520507812 10.800054550170898 C18.131624221801758 10.802299499511719 18.12388801574707 10.804545402526855 18.116153717041016 10.806790351867676 L18.116153717041016 10.806790351867676 C18.116153717041016 11.719499588012695 18.116153717041016 12.632208824157715 18.116153717041016 13.544918060302734 L18.116153717041016 13.544918060302734 C17.87088966369629 13.544918060302734 17.625625610351562 13.544918060302734 17.380361557006836 13.544918060302734 L17.380361557006836 13.544918060302734 C17.380361557006836 13.511168479919434 17.380361557006836 10.799546241760254 17.380361557006836 10.774909019470215 L17.380361557006836 10.774909019470215 C17.808719635009766 10.723175048828125 18.236295700073242 10.576126098632812 18.60212516784668 10.347354888916016 L18.60212516784668 10.347354888916016"></path></svg>