<svg xmlns="http://www.w3.org/2000/svg" viewBox="0.0 0.0 24.0 24.0" height="200px" width="200px"><path fill="none" stroke="black" stroke-width=".3" stroke-opacity="1.0"  filling="0" d="M11.263473510742188 10.339282035827637 L11.263473510742188 10.339282035827637 C11.848756790161133 11.076730728149414 12.70258903503418 13.322376251220703 11.188773155212402 13.33208179473877 L11.188773155212402 13.33208179473877 C11.304600715637207 12.681145668029785 11.285764694213867 11.990553855895996 11.123235702514648 11.34968090057373 L11.123235702514648 11.34968090057373 C11.108499526977539 11.349289894104004 11.09376335144043 11.348898887634277 11.07902717590332 11.34850788116455 L11.07902717590332 11.34850788116455 C11.049159049987793 12.011262893676758 11.15811538696289 12.680109024047852 11.040136337280273 13.33475399017334 L11.040136337280273 13.33475399017334 C11.025981903076172 13.333990097045898 11.01182746887207 13.333227157592773 10.997673034667969 13.332463264465332 L10.997673034667969 13.332463264465332 C10.958316802978516 12.492255210876465 11.359619140625 11.501145362854004 10.73678207397461 10.851572036743164 L10.73678207397461 10.851572036743164 C10.344079971313477 11.613663673400879 11.456960678100586 13.537917137145996 9.7899808883667 13.310235977172852 L9.7899808883667 13.310235977172852 C10.443536758422852 12.978840827941895 10.146368026733398 11.880202293395996 9.980863571166992 11.27937126159668 L9.980863571166992 11.27937126159668 C9.318559646606445 11.774815559387207 9.632547378540039 12.584137916564941 9.716426849365234 13.335598945617676 L9.716426849365234 13.335598945617676 C7.960478782653809 13.319662094116211 9.248893737792969 9.971776008605957 10.199127197265625 10.445235252380371 L10.199127197265625 10.445235252380371 C9.724876403808594 10.690912246704102 9.769314765930176 10.872814178466797 9.686509132385254 11.389581680297852 L9.686509132385254 11.389581680297852 C10.212163925170898 11.039482116699219 10.737818717956543 10.68938159942627 11.263473510742188 10.339282035827637 L11.263473510742188 10.339282035827637"></path></svg>