<svg xmlns="http://www.w3.org/2000/svg" viewBox="0.0 0.0 24.0 24.0" height="200px" width="200px"><path fill="none" stroke="black" stroke-width=".3" stroke-opacity="1.0"  filling="0" d="M11.055519104003906 12.31570816040039 L11.055519104003906 12.31570816040039 C11.548929214477539 12.575849533081055 11.559444427490234 12.693124771118164 11.563499450683594 13.286073684692383 L11.563499450683594 13.286073684692383 C11.472681045532227 13.273873329162598 11.381863594055176 13.261672973632812 11.291045188903809 13.249472618103027 L11.291045188903809 13.249472618103027 C11.327178955078125 13.425728797912598 11.349678039550781 13.632600784301758 11.482255935668945 13.754236221313477 L11.482255935668945 13.754236221313477 C11.49220085144043 13.748417854309082 11.502145767211914 13.742599487304688 11.512090682983398 13.736781120300293 L11.512090682983398 13.736781120300293 C11.50330924987793 13.642335891723633 11.494526863098145 13.547889709472656 11.485745429992676 13.453444480895996 L11.485745429992676 13.453444480895996 C11.528509140014648 13.450935363769531 11.571272850036621 13.448426246643066 11.614036560058594 13.445917129516602 L11.614036560058594 13.445917129516602 C11.769536018371582 14.793136596679688 10.960664749145508 12.894582748413086 11.055519104003906 12.31570816040039 L11.055519104003906 12.31570816040039"></path>
<path fill="none" stroke="black" stroke-width=".3" stroke-opacity="1.0"  filling="0" d="M11.188881874084473 12.53528118133545 L11.188881874084473 12.53528118133545 C11.31033706665039 12.645536422729492 11.374475479125977 12.815475463867188 11.407526969909668 12.97614574432373 L11.407526969909668 12.97614574432373 C11.36199951171875 12.97614574432373 11.316473007202148 12.97614574432373 11.27094554901123 12.97614574432373 L11.27094554901123 12.97614574432373 C11.24359130859375 12.829191207885742 11.216236114501953 12.682235717773438 11.188881874084473 12.53528118133545 L11.188881874084473 12.53528118133545"></path></svg>