<svg xmlns="http://www.w3.org/2000/svg" viewBox="0.0 0.0 24.0 24.0" height="200px" width="200px"><path fill="none" stroke="black" stroke-width=".3" stroke-opacity="1.0"  filling="0" d="M19.122243881225586 11.284582138061523 L19.122243881225586 11.284582138061523 C19.339025497436523 11.632182121276855 19.555809020996094 11.979781150817871 19.77259063720703 12.327381134033203 L19.77259063720703 12.327381134033203 C19.400026321411133 12.557933807373047 17.93926239013672 13.030202865600586 18.816162109375 13.602845191955566 L18.816162109375 13.602845191955566 C18.81415367126465 13.611581802368164 18.812145233154297 13.620317459106445 18.810136795043945 13.629054069519043 L18.810136795043945 13.629054069519043 C17.4022159576416 13.738485336303711 17.613733291625977 13.491114616394043 17.754735946655273 11.833609580993652 C17.796371459960938 11.344176292419434 18.690540313720703 11.518913269042969 19.122243881225586 11.284582138061523 L19.122243881225586 11.284582138061523"></path>
<path fill="none" stroke="black" stroke-width=".3" stroke-opacity="1.0"  filling="0" d="M18.521236419677734 11.891971588134766 L18.521236419677734 11.891971588134766 C18.528154373168945 11.881080627441406 18.535072326660156 11.870190620422363 18.541990280151367 11.859299659729004 L18.541990280151367 11.859299659729004 C18.75104522705078 12.084156036376953 18.86363983154297 12.382486343383789 19.016101837158203 12.648981094360352 L19.016101837158203 12.648981094360352 C18.862564086914062 12.733708381652832 18.709028244018555 12.818435668945312 18.555490493774414 12.903162956237793 L18.555490493774414 12.903162956237793 C18.429119110107422 12.590476989746094 18.520769119262695 12.229228019714355 18.521236419677734 11.891971588134766 L18.521236419677734 11.891971588134766"></path></svg>