<svg xmlns="http://www.w3.org/2000/svg" viewBox="0.0 0.0 24.0 24.0" height="200px" width="200px"><path fill="none" stroke="black" stroke-width=".3" stroke-opacity="1.0"  filling="0" d="M19.510173797607422 10.180391311645508 L19.510173797607422 10.180391311645508 C19.85894203186035 10.437233924865723 19.577442169189453 12.132155418395996 19.599218368530273 12.329835891723633 L19.599218368530273 12.329835891723633 C19.71160888671875 12.238081932067871 19.823999404907227 12.146327018737793 19.936389923095703 12.054573059082031 L19.936389923095703 12.054573059082031 C19.93638038635254 12.100018501281738 19.936372756958008 12.145462989807129 19.936363220214844 12.190908432006836 L19.936363220214844 12.190908432006836 C19.398801803588867 12.712972640991211 19.581764221191406 12.983909606933594 19.581764221191406 13.827301025390625 L19.581764221191406 13.827301025390625 C19.296585083007812 13.827628135681152 19.011367797851562 13.831511497497559 18.726327896118164 13.84041976928711 L18.726327896118164 13.84041976928711 C18.72381019592285 13.320274353027344 18.72129249572754 12.800128936767578 18.718774795532227 12.279983520507812 L18.718774795532227 12.279983520507812 C18.50936508178711 12.173574447631836 18.299957275390625 12.06716537475586 18.090547561645508 11.960756301879883 L18.090547561645508 11.960756301879883 C18.07830238342285 12.580192565917969 18.066057205200195 13.199628829956055 18.05381202697754 13.81906509399414 L18.05381202697754 13.81906509399414 C17.784420013427734 13.81906509399414 17.515029907226562 13.81906509399414 17.245637893676758 13.81906509399414 L17.245637893676758 13.81906509399414 C17.245637893676758 13.178773880004883 17.245637893676758 12.538483619689941 17.245637893676758 11.898192405700684 L17.245637893676758 11.898192405700684 C17.812660217285156 11.855049133300781 18.283023834228516 11.365737915039062 18.698020935058594 11.639318466186523 L18.698020935058594 11.639318466186523 C18.74062728881836 11.084368705749512 18.968849182128906 10.309823989868164 19.510173797607422 10.180391311645508 L19.510173797607422 10.180391311645508"></path></svg>