<svg xmlns="http://www.w3.org/2000/svg" viewBox="0.0 0.0 24.0 24.0" height="200px" width="200px"><path fill="none" stroke="black" stroke-width=".3" stroke-opacity="1.0"  filling="0" d="M13.320027351379395 11.632499694824219 L13.320027351379395 11.632499694824219 C13.417754173278809 11.789990425109863 13.515481948852539 11.947482109069824 13.613208770751953 12.104972839355469 L13.613208770751953 12.104972839355469 C13.432772636413574 12.207763671875 13.252336502075195 12.310555458068848 13.071900367736816 12.413346290588379 L13.071900367736816 12.413346290588379 C13.101154327392578 12.49365520477295 13.130409240722656 12.57396411895752 13.159663200378418 12.65427303314209 L13.159663200378418 12.65427303314209 C12.2416353225708 12.65434741973877 12.781051635742188 11.853300094604492 13.320027351379395 11.632499694824219 L13.320027351379395 11.632499694824219"></path>
<path fill="none" stroke="black" stroke-width=".3" stroke-opacity="1.0"  filling="0" d="M13.10779094696045 11.913190841674805 L13.10779094696045 11.913190841674805 C13.167609214782715 12.012799263000488 13.22742748260498 12.112408638000488 13.287245750427246 12.212017059326172 L13.287245750427246 12.212017059326172 C13.215455055236816 12.255171775817871 13.14366340637207 12.29832649230957 13.07187271118164 12.34148120880127 L13.07187271118164 12.34148120880127 C13.07187271118164 12.203017234802246 13.07187271118164 12.064554214477539 13.07187271118164 11.926090240478516 L13.07187271118164 11.926090240478516 C13.083845138549805 11.92179012298584 13.095818519592285 11.91749095916748 13.10779094696045 11.913190841674805 L13.10779094696045 11.913190841674805"></path></svg>