<svg xmlns="http://www.w3.org/2000/svg" viewBox="0.0 0.0 24.0 24.0" height="200px" width="200px"><path fill="none" stroke="black" stroke-width=".3" stroke-opacity="1.0"  filling="0" d="M20.376298904418945 11.116744995117188 L20.376298904418945 11.116744995117188 C20.672012329101562 11.518508911132812 21.489646911621094 12.151276588439941 21.080806732177734 12.437127113342285 C20.609500885009766 12.766653060913086 18.912429809570312 13.150041580200195 20.030536651611328 13.905108451843262 L20.030536651611328 13.905108451843262 C19.603118896484375 13.901936531066895 19.175701141357422 13.898763656616211 18.74828338623047 13.895591735839844 L18.74828338623047 13.895591735839844 C18.74828338623047 13.892193794250488 18.74828338623047 11.642003059387207 18.74828338623047 11.641200065612793 L18.74828338623047 11.641200065612793 C19.29095458984375 11.466382026672363 19.833627700805664 11.291563034057617 20.376298904418945 11.116744995117188 L20.376298904418945 11.116744995117188"></path>
<path fill="none" stroke="black" stroke-width=".3" stroke-opacity="1.0"  filling="0" d="M19.6884822845459 11.819618225097656 L19.6884822845459 11.819618225097656 C19.881221771240234 12.120124816894531 20.074792861938477 12.420098304748535 20.269062042236328 12.71961784362793 L20.269062042236328 12.71961784362793 C20.0789794921875 12.840499877929688 19.888898849487305 12.961381912231445 19.698816299438477 13.082263946533203 L19.698816299438477 13.082263946533203 C19.578371047973633 12.680411338806152 19.500539779663086 12.203847885131836 19.6884822845459 11.819618225097656 L19.6884822845459 11.819618225097656"></path></svg>