<svg xmlns="http://www.w3.org/2000/svg" viewBox="0.0 0.0 24.0 24.0" height="200px" width="200px"><path fill="none" stroke="black" stroke-width=".3" stroke-opacity="1.0"  filling="0" d="M-3.1359548568725586 11.118000030517578 L-3.1359548568725586 11.118000030517578 C-2.8738458156585693 11.540936470031738 -2.611736536026001 11.963872909545898 -2.3496274948120117 12.386809349060059 L-2.3496274948120117 12.386809349060059 C-2.954338550567627 12.734254837036133 -4.500604629516602 13.039363861083984 -3.5359106063842773 13.909063339233398 L-3.5359106063842773 13.909063339233398 C-5.327178478240967 13.909063339233398 -4.841716766357422 13.379706382751465 -4.73149299621582 11.66612720489502 L-4.73149299621582 11.66612720489502 C-4.199646949768066 11.483418464660645 -3.6678009033203125 11.300708770751953 -3.1359548568725586 11.118000030517578 L-3.1359548568725586 11.118000030517578"></path>
<path fill="none" stroke="black" stroke-width=".3" stroke-opacity="1.0"  filling="0" d="M-3.8288707733154297 11.741917610168457 L-3.8288707733154297 11.741917610168457 C-3.627807855606079 12.067890167236328 -3.4267451763153076 12.393863677978516 -3.225682258605957 12.719836235046387 L-3.225682258605957 12.719836235046387 C-3.4365453720092773 12.816636085510254 -3.6474084854125977 12.913435935974121 -3.858271598815918 13.010235786437988 L-3.858271598815918 13.010235786437988 C-3.8484714031219482 12.58746337890625 -3.8386709690093994 12.164690017700195 -3.8288707733154297 11.741917610168457 L-3.8288707733154297 11.741917610168457"></path></svg>