<svg xmlns="http://www.w3.org/2000/svg" viewBox="0.0 0.0 24.0 24.0" height="200px" width="200px"><path fill="none" stroke="black" stroke-width=".3" stroke-opacity="1.0"  filling="0" d="M11.260172843933105 9.55060863494873 L11.260172843933105 9.55060863494873 C11.317991256713867 9.689417839050293 11.375808715820312 9.828227996826172 11.433627128601074 9.967037200927734 L11.433627128601074 9.967037200927734 C11.5750093460083 10.01635456085205 11.716390609741211 10.065672874450684 11.857772827148438 10.114990234375 L11.857772827148438 10.114990234375 C11.857772827148438 10.175036430358887 11.857772827148438 10.235081672668457 11.857772827148438 10.295127868652344 L11.857772827148438 10.295127868652344 C11.533665657043457 10.426959991455078 11.447646141052246 10.791461944580078 11.248908996582031 10.877973556518555 C11.08228588104248 10.950506210327148 10.77892780303955 10.360054969787598 10.537664413452148 10.292208671569824 L10.537664413452148 10.292208671569824 C10.537664413452148 10.241390228271484 10.537664413452148 10.190571784973145 10.537664413452148 10.139753341674805 L10.537664413452148 10.139753341674805 C10.884448051452637 10.019065856933594 10.975284576416016 9.758868217468262 11.260172843933105 9.55060863494873 L11.260172843933105 9.55060863494873"></path></svg>