<svg xmlns="http://www.w3.org/2000/svg" viewBox="0.0 0.0 24.0 24.0" height="200px" width="200px"><path fill="none" stroke="black" stroke-width=".3" stroke-opacity="1.0"  filling="0" d="M-6.512971878051758 10.882200241088867 L-6.512971878051758 10.882200241088867 C-6.320524215698242 11.228520393371582 -5.476637840270996 12.30016803741455 -5.545663833618164 12.518810272216797 C-5.678686618804932 12.940165519714355 -6.994168281555176 13.34916877746582 -7.4727020263671875 13.621500968933105 L-7.4727020263671875 13.621500968933105 C-7.470047950744629 13.942863464355469 -7.288438320159912 14.258920669555664 -7.076372146606445 14.500391960144043 L-7.076372146606445 14.500391960144043 C-9.379154205322266 14.674365043640137 -8.727240562438965 13.599150657653809 -8.615045547485352 11.612236976623535 L-8.615045547485352 11.612236976623535 C-7.881059169769287 11.505236625671387 -7.1558332443237305 11.252220153808594 -6.512971878051758 10.882200241088867 L-6.512971878051758 10.882200241088867"></path>
<path fill="none" stroke="black" stroke-width=".3" stroke-opacity="1.0"  filling="0" d="M-7.414146423339844 11.725472450256348 L-7.414146423339844 11.725472450256348 C-7.217413425445557 12.049973487854004 -5.910209655761719 13.601760864257812 -7.471061706542969 13.355400085449219 L-7.471061706542969 13.355400085449219 C-7.467807769775391 12.816781997680664 -7.4645538330078125 12.278162956237793 -7.461299896240234 11.739544868469238 L-7.461299896240234 11.739544868469238 C-7.445581912994385 11.734853744506836 -7.429864406585693 11.73016357421875 -7.414146423339844 11.725472450256348 L-7.414146423339844 11.725472450256348"></path></svg>