<svg xmlns="http://www.w3.org/2000/svg" viewBox="0.0 0.0 24.0 24.0" height="200px" width="200px"><path fill="none" stroke="black" stroke-width=".3" stroke-opacity="1.0"  filling="0" d="M10.977054595947266 9.436527252197266 L10.977054595947266 9.436527252197266 C11.198266983032227 9.62868595123291 11.674763679504395 9.915514945983887 11.695528030395508 10.131163597106934 C11.708840370178223 10.269418716430664 11.109379768371582 10.641336441040039 11.034327507019043 10.90412712097168 L11.034327507019043 10.90412712097168 C10.97862720489502 10.90412712097168 10.922927856445312 10.90412712097168 10.867227554321289 10.90412712097168 L10.867227554321289 10.90412712097168 C10.747549057006836 10.62570571899414 10.510708808898926 10.373900413513184 10.232891082763672 10.252826690673828 L10.232891082763672 10.252826690673828 C10.232891082763672 10.192554473876953 10.232891082763672 10.132281303405762 10.232891082763672 10.072009086608887 L10.232891082763672 10.072009086608887 C10.451790809631348 9.863327026367188 10.67069149017334 9.654645919799805 10.889591217041016 9.445963859558105 L10.889591217041016 9.445963859558105 C10.918745994567871 9.442818641662598 10.94789981842041 9.439672470092773 10.977054595947266 9.436527252197266 L10.977054595947266 9.436527252197266"></path></svg>