<svg xmlns="http://www.w3.org/2000/svg" viewBox="0.0 0.0 24.0 24.0" height="200px" width="200px"><path fill="none" stroke="black" stroke-width=".3" stroke-opacity="1.0"  filling="0" d="M-10.655481338500977 9.169281959533691 L-10.655481338500977 9.169281959533691 C-10.588871955871582 9.169281959533691 -10.522263526916504 9.169281959533691 -10.45565414428711 9.169281959533691 L-10.45565414428711 9.169281959533691 C-10.32600212097168 9.465167999267578 -10.067207336425781 9.72713851928711 -9.770343780517578 9.854537010192871 L-9.770343780517578 9.854537010192871 C-9.770343780517578 9.911473274230957 -9.770343780517578 9.968409538269043 -9.770343780517578 10.025345802307129 L-9.770343780517578 10.025345802307129 C-10.004843711853027 10.262800216674805 -10.239344596862793 10.50025463104248 -10.473844528198242 10.737709045410156 L-10.473844528198242 10.737709045410156 C-10.544053077697754 10.737709045410156 -10.614262580871582 10.737709045410156 -10.684471130371094 10.737709045410156 L-10.684471130371094 10.737709045410156 C-10.90067195892334 10.504454612731934 -11.11687183380127 10.271200180053711 -11.333072662353516 10.037945747375488 L-11.333072662353516 10.037945747375488 C-11.344300270080566 9.978327751159668 -11.3555269241333 9.918708801269531 -11.366754531860352 9.859090805053711 L-11.366754531860352 9.859090805053711 C-11.059731483459473 9.737354278564453 -10.882085800170898 9.40955924987793 -10.655481338500977 9.169281959533691 L-10.655481338500977 9.169281959533691"></path></svg>