<svg xmlns="http://www.w3.org/2000/svg" viewBox="0.0 0.0 24.0 24.0" height="200px" width="200px"><path fill="none" stroke="black" stroke-width=".3" stroke-opacity="1.0"  filling="0" d="M14.495207786560059 11.160873413085938 L14.495207786560059 11.160873413085938 C14.527853012084961 11.175527572631836 14.56049919128418 11.19018268585205 14.593144416809082 11.20483684539795 L14.593144416809082 11.20483684539795 C14.492772102355957 11.359782218933105 14.392398834228516 11.514728546142578 14.29202651977539 11.669673919677734 L14.29202651977539 11.669673919677734 C14.483094215393066 11.631190299987793 14.600975036621094 11.46442985534668 14.781817436218262 11.399972915649414 L14.781817436218262 11.399972915649414 C14.781817436218262 11.827254295349121 14.781818389892578 12.254536628723145 14.781818389892578 12.681818008422852 L14.781818389892578 12.681818008422852 C13.510387420654297 12.86684799194336 13.590995788574219 11.679902076721191 14.495207786560059 11.160873413085938 L14.495207786560059 11.160873413085938"></path>
<path fill="none" stroke="black" stroke-width=".3" stroke-opacity="1.0"  filling="0" d="M14.45241928100586 11.688654899597168 L14.45241928100586 11.688654899597168 C14.478070259094238 12.082897186279297 14.601313591003418 12.467053413391113 14.319982528686523 12.775064468383789 L14.319982528686523 12.775064468383789 C14.248190879821777 12.332221031188965 14.202579498291016 12.074010848999023 14.45241928100586 11.688654899597168 L14.45241928100586 11.688654899597168"></path></svg>