<svg xmlns="http://www.w3.org/2000/svg" viewBox="0.0 0.0 24.0 24.0" height="200px" width="200px"><path fill="none" stroke="black" stroke-width=".3" stroke-opacity="1.0"  filling="0" d="M21.936763763427734 10.950135231018066 L21.936763763427734 10.950135231018066 C22.24591827392578 11.450899124145508 22.555072784423828 11.95166301727295 22.864227294921875 12.45242691040039 L22.864227294921875 12.45242691040039 C22.15105438232422 12.860014915466309 20.340078353881836 13.409868240356445 21.53350830078125 14.293335914611816 L21.53350830078125 14.293335914611816 C21.022371292114258 14.293335914611816 20.5112361907959 14.293335914611816 20.000099182128906 14.293335914611816 L20.000099182128906 14.293335914611816 C20.000099182128906 13.383654594421387 20.000099182128906 12.47397232055664 20.000099182128906 11.564291000366211 L20.000099182128906 11.564291000366211 C20.675106048583984 11.509361267089844 21.353208541870117 11.29381275177002 21.936763763427734 10.950135231018066 L21.936763763427734 10.950135231018066"></path>
<path fill="none" stroke="black" stroke-width=".3" stroke-opacity="1.0"  filling="0" d="M21.13437271118164 11.78083610534668 L21.13437271118164 11.78083610534668 C21.358245849609375 12.145308494567871 21.58211898803711 12.509780883789062 21.805992126464844 12.874253273010254 L21.805992126464844 12.874253273010254 C21.573701858520508 13.009871482849121 21.34140968322754 13.145489692687988 21.109119415283203 13.281107902526855 L21.109119415283203 13.281107902526855 C21.108537673950195 12.784896850585938 21.04357147216797 12.283371925354004 21.098209381103516 11.790599822998047 L21.098209381103516 11.790599822998047 C21.11026382446289 11.787344932556152 21.122318267822266 11.784090995788574 21.13437271118164 11.78083610534668 L21.13437271118164 11.78083610534668"></path></svg>