<svg xmlns="http://www.w3.org/2000/svg" viewBox="0.0 0.0 24.0 24.0" height="200px" width="200px"><path fill="none" stroke="black" stroke-width=".3" stroke-opacity="1.0"  filling="0" d="M13.974844932556152 10.428163528442383 L13.974844932556152 10.428163528442383 C14.091581344604492 10.501291275024414 14.196661949157715 10.652125358581543 14.177181243896484 10.788491249084473 L14.177181243896484 10.788491249084473 C14.131226539611816 10.802681922912598 14.085272789001465 10.816873550415039 14.039318084716797 10.831064224243164 L14.039318084716797 10.831064224243164 C14.039318084716797 10.78642749786377 14.039318084716797 10.741791725158691 14.039318084716797 10.697154998779297 L14.039318084716797 10.697154998779297 C13.98729133605957 10.883718490600586 13.935263633728027 11.070281982421875 13.8832368850708 11.256845474243164 L13.8832368850708 11.256845474243164 C13.903018951416016 11.342063903808594 13.922800064086914 11.427281379699707 13.942582130432129 11.512499809265137 L13.942582130432129 11.512499809265137 C13.668225288391113 12.071378707885742 13.633293151855469 12.707016944885254 13.548408508300781 13.32054615020752 L13.548408508300781 13.32054615020752 C13.49831771850586 13.341145515441895 13.448225975036621 13.361745834350586 13.3981351852417 13.382345199584961 L13.3981351852417 13.382345199584961 C13.399544715881348 12.785259246826172 13.567781448364258 12.195959091186523 13.643482208251953 11.604382514953613 L13.643482208251953 11.604382514953613 C13.605899810791016 11.595946311950684 13.568318367004395 11.587509155273438 13.530735969543457 11.579072952270508 L13.530735969543457 11.579072952270508 C13.541735649108887 11.504837036132812 13.552736282348633 11.4306001663208 13.563735961914062 11.356364250183105 L13.563735961914062 11.356364250183105 C13.60499095916748 11.348917961120605 13.646245002746582 11.341472625732422 13.6875 11.334026336669922 L13.6875 11.334026336669922 C13.743136405944824 11.02216911315918 13.802937507629395 10.694242477416992 13.974844932556152 10.428163528442383 L13.974844932556152 10.428163528442383"></path></svg>