<svg xmlns="http://www.w3.org/2000/svg" viewBox="0.0 0.0 24.0 24.0" height="200px" width="200px"><path fill="none" stroke="black" stroke-width=".3" stroke-opacity="1.0"  filling="0" d="M32.791229248046875 10.885527610778809 L32.791229248046875 10.885527610778809 C33.105796813964844 11.220826148986816 33.402679443359375 11.76828384399414 33.922996520996094 11.586053848266602 L33.922996520996094 11.586053848266602 C33.94746780395508 11.64238166809082 33.97194290161133 11.698708534240723 33.99641418457031 11.755036354064941 L33.99641418457031 11.755036354064941 C33.423519134521484 12.27989387512207 33.84394073486328 12.93236255645752 33.08201217651367 13.371818542480469 L33.08201217651367 13.371818542480469 C33.327518463134766 13.85830020904541 33.573028564453125 14.344781875610352 33.81853485107422 14.831263542175293 L33.81853485107422 14.831263542175293 C33.33601760864258 14.831263542175293 32.85349655151367 14.831263542175293 32.37097930908203 14.831263542175293 L32.37097930908203 14.831263542175293 C32.4059944152832 14.427382469177246 32.68321990966797 13.85702133178711 32.357887268066406 13.615144729614258 C32.269100189208984 13.54913330078125 31.344282150268555 13.629842758178711 31.45322608947754 13.362817764282227 C31.658214569091797 12.86038875579834 32.78193283081055 12.814319610595703 31.91274642944336 11.93522834777832 L31.91274642944336 11.93522834777832 C31.789691925048828 12.039328575134277 31.666637420654297 12.143427848815918 31.543582916259766 12.247528076171875 L31.543582916259766 12.247528076171875 C31.4915828704834 12.188809394836426 31.43958282470703 12.130091667175293 31.387582778930664 12.071372985839844 L31.387582778930664 12.071372985839844 C31.855464935302734 11.676091194152832 32.32334899902344 11.28080940246582 32.791229248046875 10.885527610778809 L32.791229248046875 10.885527610778809"></path></svg>