<svg xmlns="http://www.w3.org/2000/svg" viewBox="0.0 0.0 24.0 24.0" height="200px" width="200px"><path fill="none" stroke="black" stroke-width=".3" stroke-opacity="1.0"  filling="0" d="M14.703899383544922 10.88266372680664 L14.703899383544922 10.88266372680664 C14.823606491088867 11.089838981628418 15.847169876098633 12.368744850158691 15.596917152404785 12.5996732711792 C14.609232902526855 13.511089324951172 13.211441040039062 13.212355613708496 14.140853881835938 14.501809120178223 L14.140853881835938 14.501809120178223 C11.756200790405273 14.68927001953125 12.541547775268555 13.792659759521484 12.589362144470215 11.614228248596191 L12.589362144470215 11.614228248596191 C13.327754974365234 11.509111404418945 14.058981895446777 11.257302284240723 14.703899383544922 10.88266372680664 L14.703899383544922 10.88266372680664"></path>
<path fill="none" stroke="black" stroke-width=".3" stroke-opacity="1.0"  filling="0" d="M13.801745414733887 11.733245849609375 L13.801745414733887 11.733245849609375 C14.399598121643066 12.668182373046875 14.884228706359863 12.794337272644043 13.775045394897461 13.378254890441895 L13.775045394897461 13.378254890441895 C13.764718055725098 13.369391441345215 13.75439167022705 13.360527038574219 13.744064331054688 13.351663589477539 L13.744064331054688 13.351663589477539 C13.763291358947754 12.812191009521484 13.78251838684082 12.27271842956543 13.801745414733887 11.733245849609375 L13.801745414733887 11.733245849609375"></path></svg>