<svg xmlns="http://www.w3.org/2000/svg" viewBox="0.0 0.0 24.0 24.0" height="200px" width="200px"><path fill="none" stroke="black" stroke-width=".3" stroke-opacity="1.0"  filling="0" d="M13.186418533325195 11.687454223632812 L13.186418533325195 11.687454223632812 C13.296609878540039 11.854317665100098 13.406800270080566 12.0211820602417 13.51699161529541 12.188045501708984 L13.51699161529541 12.188045501708984 C13.181215286254883 12.375380516052246 12.891210556030273 12.397147178649902 12.996082305908203 12.79063606262207 L12.996082305908203 12.79063606262207 C12.530132293701172 12.790811538696289 12.117130279541016 12.678838729858398 12.574309349060059 11.897836685180664 L12.574309349060059 11.897836685180664 C12.778346061706543 11.827709197998047 12.982381820678711 11.75758171081543 13.186418533325195 11.687454223632812 L13.186418533325195 11.687454223632812"></path>
<path fill="none" stroke="black" stroke-width=".3" stroke-opacity="1.0"  filling="0" d="M12.938236236572266 11.971854209899902 L12.938236236572266 11.971854209899902 C13.011735916137695 12.086308479309082 13.085236549377441 12.200763702392578 13.158736228942871 12.315217971801758 L13.158736228942871 12.315217971801758 C13.075408935546875 12.352835655212402 12.992081642150879 12.390454292297363 12.908754348754883 12.428071975708008 L12.908754348754883 12.428071975708008 C12.908754348754883 12.278762817382812 12.908754348754883 12.129453659057617 12.908754348754883 11.980144500732422 L12.908754348754883 11.980144500732422 C12.91858196258545 11.977380752563477 12.9284086227417 11.974617958068848 12.938236236572266 11.971854209899902 L12.938236236572266 11.971854209899902"></path></svg>