<svg xmlns="http://www.w3.org/2000/svg" viewBox="0.0 0.0 24.0 24.0" height="200px" width="200px"><path fill="none" stroke="black" stroke-width=".3" stroke-opacity="1.0"  filling="0" d="M26.401308059692383 11.027615547180176 L26.401308059692383 11.027615547180176 C26.86616325378418 11.04458999633789 26.92453384399414 11.626338005065918 27.482236862182617 11.562572479248047 L27.482236862182617 11.562572479248047 C27.4958553314209 11.611345291137695 27.509471893310547 11.660118103027344 27.523090362548828 11.708890914916992 L27.523090362548828 11.708890914916992 C27.1977481842041 12.151376724243164 27.27056121826172 12.757346153259277 26.76932716369629 13.059026718139648 L26.76932716369629 13.059026718139648 C27.25385856628418 13.392847061157227 27.463884353637695 13.686169624328613 27.372407913208008 14.284852027893066 L27.372407913208008 14.284852027893066 C26.974281311035156 14.284852027893066 26.576152801513672 14.284852027893066 26.17802619934082 14.284852027893066 L26.17802619934082 14.284852027893066 C26.283016204833984 13.561722755432129 26.254804611206055 13.081490516662598 25.423934936523438 13.21796989440918 L25.423934936523438 13.21796989440918 C25.329574584960938 12.834075927734375 26.615449905395508 12.546902656555176 25.73072624206543 11.865242958068848 L25.73072624206543 11.865242958068848 C25.632953643798828 11.945761680603027 25.535181045532227 12.02627944946289 25.437408447265625 12.10679817199707 L25.437408447265625 12.10679817199707 C25.394317626953125 12.072416305541992 25.351226806640625 12.038034439086914 25.308135986328125 12.003652572631836 L25.308135986328125 12.003652572631836 C25.44295883178711 11.653461456298828 26.07256317138672 11.303963661193848 26.401308059692383 11.027615547180176 L26.401308059692383 11.027615547180176"></path></svg>