<svg xmlns="http://www.w3.org/2000/svg" viewBox="0.0 0.0 24.0 24.0" height="200px" width="200px"><path fill="none" stroke="black" stroke-width=".3" stroke-opacity="1.0"  filling="0" d="M11.699509620666504 11.371337890625 L11.699509620666504 11.371337890625 C11.702436447143555 11.435428619384766 11.705364227294922 11.499518394470215 11.708291053771973 11.56360912322998 L11.708291053771973 11.56360912322998 C10.86524772644043 11.56418514251709 11.161584854125977 11.835116386413574 11.647472381591797 12.025227546691895 L11.647472381591797 12.025227546691895 C11.626363754272461 12.062281608581543 11.605255126953125 12.099336624145508 11.584146499633789 12.136390686035156 L11.584146499633789 12.136390686035156 C11.156048774719238 12.137016296386719 11.10943603515625 12.15363883972168 11.18021011352539 12.582681655883789 L11.18021011352539 12.582681655883789 C11.50783634185791 12.548189163208008 11.552604675292969 12.466573715209961 11.747918128967285 12.69384479522705 L11.747918128967285 12.69384479522705 C11.499448776245117 12.729772567749023 11.255276679992676 12.747823715209961 11.005472183227539 12.776208877563477 L11.005472183227539 12.776208877563477 C10.742898941040039 11.915763854980469 10.947458267211914 11.550202369689941 11.699509620666504 11.371337890625 L11.699509620666504 11.371337890625"></path></svg>