<svg xmlns="http://www.w3.org/2000/svg" viewBox="0.0 0.0 24.0 24.0" height="200px" width="200px"><path fill="none" stroke="black" stroke-width=".3" stroke-opacity="1.0"  filling="0" d="M9.654544830322266 9.518180847167969 L9.654544830322266 9.518180847167969 C9.772727012634277 9.518180847167969 9.890909194946289 9.518181800842285 10.0090913772583 9.518181800842285 L10.0090913772583 9.518181800842285 C10.0090913772583 9.560954093933105 10.0090913772583 9.603727340698242 10.0090913772583 9.646499633789062 L10.0090913772583 9.646499633789062 C9.946890830993652 9.63864517211914 9.88469123840332 9.630789756774902 9.822490692138672 9.62293529510498 L9.822490692138672 9.62293529510498 C9.861907958984375 9.862914085388184 9.854768753051758 10.126816749572754 9.979936599731445 10.3353271484375 L9.979936599731445 10.3353271484375 C9.971445083618164 10.165299415588379 9.9629545211792 9.995272636413574 9.954463005065918 9.825244903564453 L9.954463005065918 9.825244903564453 C10.202203750610352 10.010499000549316 10.175871849060059 10.298985481262207 10.110272407531738 10.584381103515625 L10.110272407531738 10.584381103515625 C10.035272598266602 10.5718355178833 9.960272789001465 10.559289932250977 9.885272979736328 10.546744346618652 L9.885272979736328 10.546744346618652 C9.798076629638672 10.206360816955566 9.72268009185791 9.862886428833008 9.654544830322266 9.518180847167969 L9.654544830322266 9.518180847167969"></path></svg>