<svg xmlns="http://www.w3.org/2000/svg" viewBox="0.0 0.0 24.0 24.0" height="200px" width="200px"><path fill="none" stroke="black" stroke-width=".3" stroke-opacity="1.0"  filling="0" d="M4.847618103027344 11.59401798248291 L4.847618103027344 11.59401798248291 C4.902825832366943 11.664847373962402 4.9586591720581055 11.735193252563477 5.015017986297607 11.805109977722168 L5.015017986297607 11.805109977722168 C5.0706000328063965 11.808746337890625 5.126181602478027 11.812382698059082 5.181763648986816 11.816019058227539 L5.181763648986816 11.816019058227539 C5.132610321044922 12.105168342590332 5.097873210906982 12.401078224182129 5.04234504699707 12.699681282043457 L5.04234504699707 12.699681282043457 C4.928354263305664 12.690863609313965 4.8143630027771 12.682044982910156 4.700372219085693 12.673227310180664 L4.700372219085693 12.673227310180664 C4.6837544441223145 12.432218551635742 4.667136192321777 12.191208839416504 4.650518417358398 11.950200080871582 L4.650518417358398 11.950200080871582 C4.603200435638428 11.947091102600098 4.555881977081299 11.943982124328613 4.508563995361328 11.940873146057129 L4.508563995361328 11.940873146057129 C4.62158203125 11.825254440307617 4.734600067138672 11.709636688232422 4.847618103027344 11.59401798248291 L4.847618103027344 11.59401798248291"></path></svg>