<svg xmlns="http://www.w3.org/2000/svg" viewBox="0.0 0.0 24.0 24.0" height="200px" width="200px"><path fill="none" stroke="black" stroke-width=".3" stroke-opacity="1.0"  filling="0" d="M8.597726821899414 10.322454452514648 L8.597726821899414 10.322454452514648 C8.774563789367676 10.322454452514648 8.951399803161621 10.322454452514648 9.128236770629883 10.322454452514648 L9.128236770629883 10.322454452514648 C9.125536918640137 10.475418090820312 9.122836112976074 10.628381729125977 9.120136260986328 10.78134536743164 L9.120136260986328 10.78134536743164 C8.982654571533203 10.76701831817627 8.845172882080078 10.752690315246582 8.707691192626953 10.738363265991211 L8.707691192626953 10.738363265991211 C8.644383430480957 11.053213119506836 8.51807975769043 11.566374778747559 9.003463745117188 11.564018249511719 L9.003463745117188 11.564018249511719 C9.008790969848633 11.696163177490234 9.014118194580078 11.828309059143066 9.019445419311523 11.960453987121582 L9.019445419311523 11.960453987121582 C8.904227256774902 11.960453987121582 8.789010047912598 11.960453987121582 8.673791885375977 11.960453987121582 L8.673791885375977 11.960453987121582 C8.57829475402832 12.385457038879395 8.678027153015137 12.827729225158691 8.590173721313477 13.2542724609375 L8.590173721313477 13.2542724609375 C8.576200485229492 13.254854202270508 8.562227249145508 13.255435943603516 8.548254013061523 13.256017684936523 L8.548254013061523 13.256017684936523 C8.33434009552002 12.443737983703613 8.39997386932373 11.136686325073242 8.597726821899414 10.322454452514648 L8.597726821899414 10.322454452514648"></path></svg>