<svg xmlns="http://www.w3.org/2000/svg" viewBox="0.0 0.0 24.0 24.0" height="200px" width="200px"><path fill="none" stroke="black" stroke-width=".3" stroke-opacity="1.0"  filling="0" d="M34.330936431884766 9.766090393066406 L34.330936431884766 9.766090393066406 C34.66508865356445 10.229483604431152 34.9295654296875 10.916563034057617 35.62505340576172 10.53272819519043 L35.62505340576172 10.53272819519043 C35.86948776245117 10.732059478759766 35.31553268432617 11.090734481811523 35.275936126708984 11.152936935424805 C35.03185272216797 11.536358833312988 35.154964447021484 12.596205711364746 35.154869079589844 12.767492294311523 C35.15460205078125 13.244484901428223 34.945003509521484 13.817241668701172 35.234619140625 14.196246147155762 C35.63656997680664 14.72225570678711 36.11363220214844 14.08834457397461 36.14839172363281 14.345236778259277 C36.15012741088867 14.358074188232422 34.78987503051758 15.76698112487793 34.71158218383789 15.849845886230469 L34.71158218383789 15.849845886230469 C34.011253356933594 15.212575912475586 33.655513763427734 14.160075187683105 33.654571533203125 13.213199615478516 C33.65370559692383 12.343133926391602 34.11444091796875 11.218690872192383 33.046669006347656 11.209091186523438 L33.046669006347656 11.209091186523438 C33.04584884643555 10.565180778503418 33.868614196777344 10.214286804199219 34.330936431884766 9.766090393066406 L34.330936431884766 9.766090393066406"></path></svg>