<svg xmlns="http://www.w3.org/2000/svg" viewBox="0.0 0.0 24.0 24.0" height="200px" width="200px"><path fill="none" stroke="black" stroke-width=".3" stroke-opacity="1.0"  filling="0" d="M-9.352882385253906 9.768301010131836 L-9.352882385253906 9.768301010131836 C-9.001407623291016 10.181475639343262 -8.673083305358887 10.873672485351562 -8.052492141723633 10.58719253540039 L-8.052492141723633 10.58719253540039 C-8.014819145202637 10.631747245788574 -7.977145671844482 10.676301002502441 -7.939472198486328 10.720855712890625 L-7.939472198486328 10.720855712890625 C-8.64971923828125 11.510091781616211 -9.086315155029297 13.929789543151855 -7.9986572265625 14.56009292602539 L-7.9986572265625 14.56009292602539 C-7.867301940917969 14.425483703613281 -7.7359466552734375 14.290874481201172 -7.604591369628906 14.156265258789062 L-7.604591369628906 14.156265258789062 C-7.558727741241455 14.192483901977539 -7.512864589691162 14.2287015914917 -7.467000961303711 14.264920234680176 L-7.467000961303711 14.264920234680176 C-7.622261047363281 14.592912673950195 -9.893717765808105 17.225831985473633 -10.010702133178711 14.942073822021484 C-10.061747550964355 13.945563316345215 -9.953471183776855 12.946032524108887 -9.9854736328125 11.948728561401367 C-9.997947692871094 11.559988975524902 -10.101970672607422 10.983474731445312 -10.66107177734375 11.244136810302734 L-10.66107177734375 11.244136810302734 C-10.70199966430664 11.192900657653809 -10.742927551269531 11.141664505004883 -10.783855438232422 11.090428352355957 L-10.783855438232422 11.090428352355957 C-10.293371200561523 10.673373222351074 -9.786224365234375 10.243762016296387 -9.352882385253906 9.768301010131836 L-9.352882385253906 9.768301010131836"></path></svg>