<svg xmlns="http://www.w3.org/2000/svg" viewBox="0.0 0.0 24.0 24.0" height="200px" width="200px"><path fill="none" stroke="black" stroke-width=".3" stroke-opacity="1.0"  filling="0" d="M13.09238052368164 11.383064270019531 L13.09238052368164 11.383064270019531 C13.091971397399902 12.75244426727295 13.152458190917969 13.038826942443848 12.45384407043457 11.802600860595703 L12.45384407043457 11.802600860595703 C12.43934440612793 11.807336807250977 12.424844741821289 11.81207275390625 12.410345077514648 11.816808700561523 L12.410345077514648 11.816808700561523 C12.398910522460938 12.143101692199707 12.42531681060791 12.486066818237305 12.30861759185791 12.790990829467773 L12.30861759185791 12.790990829467773 C12.07977294921875 12.42162036895752 12.262739181518555 11.891620635986328 12.263891220092773 11.460708618164062 L12.263891220092773 11.460708618164062 C12.693230628967285 11.549490928649902 12.708151817321777 11.939326286315918 12.878918647766113 12.304773330688477 L12.878918647766113 12.304773330688477 C12.890327453613281 12.30498218536377 12.90173625946045 12.305191993713379 12.913145065307617 12.305400848388672 L12.913145065307617 12.305400848388672 C13.033036231994629 11.981938362121582 12.786483764648438 11.610401153564453 13.09238052368164 11.383064270019531 L13.09238052368164 11.383064270019531"></path></svg>