<svg xmlns="http://www.w3.org/2000/svg" viewBox="0.0 0.0 24.0 24.0" height="200px" width="200px"><path fill="none" stroke="black" stroke-width=".3" stroke-opacity="1.0"  filling="0" d="M14.318181991577148 9.518181800842285 L14.318181991577148 9.518181800842285 C14.343827247619629 9.648681640625 14.369473457336426 9.779182434082031 14.395118713378906 9.909682273864746 L14.395118713378906 9.909682273864746 C14.27952766418457 9.964863777160645 14.163936614990234 10.02004623413086 14.048345565795898 10.075227737426758 L14.048345565795898 10.075227737426758 C13.983745574951172 9.889546394348145 13.919146537780762 9.703864097595215 13.854546546936035 9.518182754516602 L13.854546546936035 9.518182754516602 C13.90909194946289 9.518182754516602 13.963637351989746 9.518182754516602 14.018182754516602 9.518182754516602 L14.018182754516602 9.518182754516602 C14.034012794494629 9.59381103515625 14.05886173248291 9.671724319458008 14.10665512084961 9.732437133789062 L14.10665512084961 9.732437133789062 C14.116964340209961 9.72917366027832 14.127273559570312 9.725910186767578 14.137582778930664 9.722646713256836 L14.137582778930664 9.722646713256836 C14.143237113952637 9.654492378234863 14.14889144897461 9.586337089538574 14.154545783996582 9.518182754516602 L14.154545783996582 9.518182754516602 C14.209091186523438 9.518182754516602 14.263636589050293 9.518181800842285 14.318181991577148 9.518181800842285 L14.318181991577148 9.518181800842285"></path></svg>