<svg xmlns="http://www.w3.org/2000/svg" viewBox="0.0 0.0 24.0 24.0" height="200px" width="200px"><path fill="none" stroke="black" stroke-width=".3" stroke-opacity="1.0"  filling="0" d="M10.720390319824219 11.100000381469727 L10.720390319824219 11.100000381469727 C10.742136001586914 11.151000022888184 10.76388168334961 11.20199966430664 10.785627365112305 11.252999305725098 L10.785627365112305 11.252999305725098 C10.84721851348877 11.226754188537598 10.908808708190918 11.200508117675781 10.970399856567383 11.174263000488281 L10.970399856567383 11.174263000488281 C10.760245323181152 11.517923355102539 10.752744674682617 11.627216339111328 10.486526489257812 11.346352577209473 L10.486526489257812 11.346352577209473 C10.489781379699707 11.794734954833984 10.493035316467285 12.24311637878418 10.49629020690918 12.691498756408691 L10.49629020690918 12.691498756408691 C10.378835678100586 12.707498550415039 10.261381149291992 12.723499298095703 10.143926620483398 12.73949909210205 L10.143926620483398 12.73949909210205 C9.875415802001953 12.349193572998047 10.096566200256348 11.793109893798828 10.083436012268066 11.319544792175293 L10.083436012268066 11.319544792175293 C10.295754432678223 11.246363639831543 10.508071899414062 11.173181533813477 10.720390319824219 11.100000381469727 L10.720390319824219 11.100000381469727"></path></svg>