<svg xmlns="http://www.w3.org/2000/svg" viewBox="0.0 0.0 24.0 24.0" height="200px" width="200px"><path fill="none" stroke="black" stroke-width=".3" stroke-opacity="1.0"  filling="0" d="M17.06004524230957 11.734418869018555 L17.06004524230957 11.734418869018555 C17.277910232543945 11.831623077392578 17.314664840698242 11.927103996276855 17.409927368164062 12.144491195678711 L17.409927368164062 12.144491195678711 C17.749608993530273 11.785309791564941 18.130165100097656 11.883294105529785 18.59184455871582 11.92707347869873 L18.59184455871582 11.92707347869873 C18.84712791442871 13.42349624633789 16.071043014526367 12.768953323364258 17.00743865966797 14.779010772705078 L17.00743865966797 14.779010772705078 C17.09640121459961 14.695701599121094 17.185365676879883 14.61239242553711 17.274328231811523 14.529083251953125 L17.274328231811523 14.529083251953125 C17.361534118652344 14.761390686035156 16.585376739501953 16.526052474975586 16.3012638092041 16.090173721313477 C15.6954345703125 15.160728454589844 16.68027687072754 13.46501636505127 16.784727096557617 12.423463821411133 L16.784727096557617 12.423463821411133 C16.72760009765625 12.403964042663574 16.670473098754883 12.384464263916016 16.613346099853516 12.364964485168457 L16.613346099853516 12.364964485168457 C16.71255111694336 12.1272554397583 16.838266372680664 11.865421295166016 17.06004524230957 11.734418869018555 L17.06004524230957 11.734418869018555"></path></svg>