<svg xmlns="http://www.w3.org/2000/svg" viewBox="0.0 0.0 24.0 24.0" height="200px" width="200px"><path fill="none" stroke="black" stroke-width=".3" stroke-opacity="1.0"  filling="0" d="M13.290382385253906 10.803081512451172 L13.290382385253906 10.803081512451172 C13.644594192504883 10.859537124633789 13.696805000305176 11.245536804199219 13.617109298706055 11.557554244995117 L13.617109298706055 11.557554244995117 C13.60377311706543 11.558372497558594 13.590436935424805 11.55919075012207 13.57710075378418 11.560009002685547 L13.57710075378418 11.560009002685547 C13.54015064239502 11.40929889678955 13.496441841125488 11.260104179382324 13.446545600891113 11.113171577453613 L13.446545600891113 11.113171577453613 C12.664105415344238 11.794107437133789 14.43571949005127 12.512832641601562 13.345253944396973 13.417418479919434 L13.345253944396973 13.417418479919434 C13.256880760192871 13.137691497802734 13.16850757598877 12.857964515686035 13.080134391784668 12.578237533569336 L13.080134391784668 12.578237533569336 C13.16818904876709 12.775182723999023 13.256244659423828 12.972127914428711 13.34429931640625 13.169073104858398 L13.34429931640625 13.169073104858398 C13.67005443572998 12.274951934814453 12.90824031829834 11.87454605102539 13.290382385253906 10.803081512451172 L13.290382385253906 10.803081512451172"></path></svg>