<svg xmlns="http://www.w3.org/2000/svg" viewBox="0.0 0.0 24.0 24.0" height="200px" width="200px"><path fill="none" stroke="black" stroke-width=".3" stroke-opacity="1.0"  filling="0" d="M7.2670087814331055 7.480717182159424 L7.2670087814331055 7.480717182159424 C7.989695072174072 7.772350311279297 7.233739852905273 10.277013778686523 7.229181289672852 10.972607612609863 L7.229181289672852 10.972607612609863 C8.902264595031738 9.217158317565918 7.420644283294678 15.244311332702637 8.083745956420898 13.899927139282227 L8.083745956420898 13.899927139282227 C8.20478343963623 14.309768676757812 7.395987033843994 16.370067596435547 7.2359185218811035 16.105552673339844 C6.572701454162598 15.009575843811035 7.556927680969238 13.017257690429688 7.431572437286377 11.789809226989746 L7.431572437286377 11.789809226989746 C6.5999040603637695 12.222543716430664 6.719308853149414 14.482006072998047 6.570654392242432 15.334172248840332 C6.509337425231934 15.685673713684082 6.568814277648926 16.199609756469727 6.107182025909424 16.1999454498291 L6.107182025909424 16.1999454498291 C5.7321882247924805 14.472837448120117 6.537125110626221 12.016225814819336 6.797863483428955 10.239571571350098 C6.849532127380371 9.887504577636719 7.2342329025268555 8.56491470336914 6.89127254486084 8.396780014038086 L6.89127254486084 8.396780014038086 C6.880938529968262 7.967658042907715 6.974421977996826 7.791278839111328 7.2670087814331055 7.480717182159424 L7.2670087814331055 7.480717182159424"></path></svg>