<svg xmlns="http://www.w3.org/2000/svg" viewBox="0.0 0.0 24.0 24.0" height="200px" width="200px"><path fill="none" stroke="black" stroke-width=".3" stroke-opacity="1.0"  filling="0" d="M12.40107250213623 10.626053810119629 L12.40107250213623 10.626053810119629 C13.349082946777344 10.72791862487793 12.954193115234375 13.459649085998535 12.954545021057129 14.167364120483398 L12.954545021057129 14.167364120483398 C12.904991149902344 14.180054664611816 12.855436325073242 14.19274616241455 12.805882453918457 14.205436706542969 L12.805882453918457 14.205436706542969 C12.55469036102295 13.197365760803223 12.827791213989258 12.113478660583496 12.590726852416992 11.083008766174316 L12.590726852416992 11.083008766174316 C11.78470516204834 11.513461112976074 12.300616264343262 13.654930114746094 12.223091125488281 14.245827674865723 L12.223091125488281 14.245827674865723 C12.166472434997559 14.25040054321289 12.109854698181152 14.254973411560059 12.05323600769043 14.259546279907227 L12.05323600769043 14.259546279907227 C12.016745567321777 13.999205589294434 12.284416198730469 11.097315788269043 11.786917686462402 11.127191543579102 C11.427462577819824 11.14877700805664 11.371162414550781 14.282959938049316 11.351754188537598 14.300236701965332 L11.351754188537598 14.300236701965332 C11.215352058410645 13.265132904052734 11.095471382141113 11.725037574768066 11.364845275878906 10.700591087341309 L11.364845275878906 10.700591087341309 C11.449748992919922 10.797492027282715 11.515546798706055 10.921910285949707 11.530282020568848 11.04990005493164 L11.530282020568848 11.04990005493164 C11.767269134521484 10.449514389038086 11.935248374938965 10.544995307922363 12.202117919921875 11.15694522857666 L12.202117919921875 11.15694522857666 C12.25338077545166 10.975048065185547 12.329070091247559 10.800782203674316 12.40107250213623 10.626053810119629 L12.40107250213623 10.626053810119629"></path></svg>