<svg xmlns="http://www.w3.org/2000/svg" viewBox="0.0 0.0 24.0 24.0" height="200px" width="200px"><path fill="none" stroke="black" stroke-width=".3" stroke-opacity="1.0"  filling="0" d="M15.67289924621582 7.09529972076416 L15.67289924621582 7.09529972076416 C16.13369369506836 7.595399856567383 15.88333511352539 8.41936206817627 15.79098892211914 9.029918670654297 C15.600454330444336 10.289665222167969 14.743509292602539 12.916559219360352 15.193498611450195 14.080636978149414 L15.193498611450195 14.080636978149414 C15.288789749145508 13.954736709594727 15.384079933166504 13.828837394714355 15.479371070861816 13.702937126159668 L15.479371070861816 13.702937126159668 C15.48494815826416 13.716277122497559 15.03717041015625 16.371232986450195 14.565269470214844 15.807953834533691 C14.230194091796875 15.407994270324707 14.550116539001465 14.251741409301758 14.618206024169922 13.796590805053711 C14.86899471282959 12.1201753616333 15.691583633422852 9.641271591186523 15.34835147857666 7.9905290603637695 L15.34835147857666 7.9905290603637695 C15.32869815826416 7.981219291687012 15.309043884277344 7.971909999847412 15.289390563964844 7.962600231170654 L15.289390563964844 7.962600231170654 C15.273844718933105 7.999954700469971 15.258299827575684 8.037308692932129 15.242753982543945 8.074663162231445 L15.242753982543945 8.074663162231445 C15.137907981872559 7.646895408630371 15.279388427734375 7.278011798858643 15.67289924621582 7.09529972076416 L15.67289924621582 7.09529972076416"></path></svg>