<svg xmlns="http://www.w3.org/2000/svg" viewBox="0.0 0.0 24.0 24.0" height="200px" width="200px"><path fill="none" stroke="black" stroke-width=".3" stroke-opacity="1.0"  filling="0" d="M18.16805648803711 10.36963939666748 L18.16805648803711 10.36963939666748 C18.168230056762695 10.380302429199219 18.16840171813965 10.39096450805664 18.168575286865234 10.401627540588379 L18.168575286865234 10.401627540588379 C20.213150024414062 10.704614639282227 20.613374710083008 11.945074081420898 20.100496292114258 13.108055114746094 C19.58761978149414 14.271036148071289 18.161640167236328 15.356538772583008 16.553808212280273 15.349609375 C14.908665657043457 15.342519760131836 14.085460662841797 13.686744689941406 14.739028930664062 12.303546905517578 C15.38257884979248 10.941553115844727 16.78022003173828 10.498932838439941 18.16805648803711 10.36963939666748 L18.16805648803711 10.36963939666748"></path>
<path fill="none" stroke="black" stroke-width=".3" stroke-opacity="1.0"  filling="0" d="M18.336437225341797 10.701681137084961 L18.336437225341797 10.701681137084961 C19.874876022338867 11.282513618469238 17.53181266784668 14.706982612609863 16.474308013916016 14.912073135375977 C15.6218843460083 15.077390670776367 16.015398025512695 13.779402732849121 16.161792755126953 13.461981773376465 C16.602418899536133 12.506598472595215 17.25290298461914 10.990866661071777 18.336437225341797 10.701681137084961 L18.336437225341797 10.701681137084961"></path></svg>