<svg xmlns="http://www.w3.org/2000/svg" viewBox="0.0 0.0 24.0 24.0" height="200px" width="200px"><path fill="none" stroke="black" stroke-width=".3" stroke-opacity="1.0"  filling="0" d="M12.030981063842773 10.6156644821167 L12.030981063842773 10.6156644821167 C12.08985424041748 10.6156644821167 12.148727416992188 10.6156644821167 12.207600593566895 10.6156644821167 L12.207600593566895 10.6156644821167 C12.19632339477539 10.88104248046875 12.177654266357422 11.14632797241211 12.147982597351074 11.410283088684082 L12.147982597351074 11.410283088684082 C12.151771545410156 11.526734352111816 12.183810234069824 11.637009620666504 12.01639175415039 11.659364700317383 L12.01639175415039 11.659364700317383 C11.812955856323242 11.41710090637207 11.609519004821777 11.174838066101074 11.406083106994629 10.932574272155762 L11.406083106994629 10.932574272155762 C11.392019271850586 10.937255859375 11.377954483032227 10.941936492919922 11.363890647888184 10.94661808013916 L11.363890647888184 10.94661808013916 C11.363890647888184 11.18561840057373 11.363890647888184 11.424617767333984 11.363890647888184 11.663618087768555 L11.363890647888184 11.663618087768555 C11.311736106872559 11.663618087768555 11.259581565856934 11.663618087768555 11.207427024841309 11.663618087768555 L11.207427024841309 11.663618087768555 C11.207427024841309 11.31760025024414 11.207427024841309 10.971582412719727 11.207427024841309 10.625564575195312 L11.207427024841309 10.625564575195312 C11.532729148864746 10.77216625213623 11.707276344299316 10.98572063446045 11.932008743286133 11.26175594329834 L11.932008743286133 11.26175594329834 C11.951681137084961 11.254074096679688 11.971354484558105 11.246392250061035 11.991026878356934 11.238710403442383 L11.991026878356934 11.238710403442383 C12.004344940185547 11.031028747558594 12.01766300201416 10.823346138000488 12.030981063842773 10.6156644821167 L12.030981063842773 10.6156644821167"></path></svg>