<svg xmlns="http://www.w3.org/2000/svg" viewBox="0.0 0.0 24.0 24.0" height="200px" width="200px"><path fill="none" stroke="black" stroke-width=".3" stroke-opacity="1.0"  filling="0" d="M18.242698669433594 13.20979118347168 L18.242698669433594 13.20979118347168 C18.714282989501953 13.300238609313965 18.368701934814453 13.73189640045166 18.16366195678711 13.93639087677002 L18.16366195678711 13.93639087677002 C18.081844329833984 13.93639087677002 18.000024795532227 13.93639087677002 17.9182071685791 13.93639087677002 L17.9182071685791 13.93639087677002 C18.035934448242188 13.797158241271973 18.15546417236328 13.656155586242676 18.242752075195312 13.496073722839355 L18.242752075195312 13.496073722839355 C18.19906234741211 13.473319053649902 18.155370712280273 13.45056438446045 18.11168098449707 13.427809715270996 L18.11168098449707 13.427809715270996 C17.928998947143555 13.59732723236084 17.746318817138672 13.766845703125 17.563636779785156 13.936363220214844 L17.563636779785156 13.936363220214844 C17.345455169677734 13.936363220214844 17.127273559570312 13.936363220214844 16.90909194946289 13.936363220214844 L16.90909194946289 13.936363220214844 C17.476913452148438 13.483503341674805 17.584012985229492 13.352408409118652 18.242698669433594 13.20979118347168 L18.242698669433594 13.20979118347168"></path></svg>