<svg xmlns="http://www.w3.org/2000/svg" viewBox="0.0 0.0 24.0 24.0" height="200px" width="200px"><path fill="none" stroke="black" stroke-width=".3" stroke-opacity="1.0"  filling="0" d="M22.976287841796875 10.69098949432373 L22.976287841796875 10.69098949432373 C22.827714920043945 10.909171104431152 22.67914390563965 11.12735366821289 22.53057098388672 11.345535278320312 L22.53057098388672 11.345535278320312 C22.670007705688477 11.350753784179688 22.8094425201416 11.355971336364746 22.94887924194336 11.361189842224121 L22.94887924194336 11.361189842224121 C22.533811569213867 11.833827018737793 21.368982315063477 12.083283424377441 21.405872344970703 13.023736000061035 L21.405872344970703 13.023736000061035 C21.527864456176758 12.981900215148926 21.64985466003418 12.9400634765625 21.771846771240234 12.89822769165039 L21.771846771240234 12.89822769165039 C21.77765464782715 12.905627250671387 21.783464431762695 12.9130277633667 21.78927230834961 12.920427322387695 L21.78927230834961 12.920427322387695 C21.668664932250977 13.034814834594727 20.269502639770508 13.724980354309082 20.391571044921875 13.251872062683105 C20.551204681396484 12.633172988891602 21.327091217041016 12.107839584350586 21.641998291015625 11.573399543762207 L21.641998291015625 11.573399543762207 C21.54347038269043 11.573399543762207 21.444944381713867 11.573399543762207 21.346416473388672 11.573399543762207 L21.346416473388672 11.573399543762207 C21.383607864379883 11.510626792907715 21.42079734802246 11.447854042053223 21.457988739013672 11.38508129119873 L21.457988739013672 11.38508129119873 C21.582542419433594 11.38508129119873 21.707096099853516 11.38508129119873 21.831649780273438 11.38508129119873 L21.831649780273438 11.38508129119873 C22.233842849731445 10.851631164550781 22.320554733276367 10.691974639892578 22.976287841796875 10.69098949432373 L22.976287841796875 10.69098949432373"></path></svg>