<svg xmlns="http://www.w3.org/2000/svg" viewBox="0.0 0.0 24.0 24.0" height="200px" width="200px"><path fill="none" stroke="black" stroke-width=".3" stroke-opacity="1.0"  filling="0" d="M10.475044250488281 11.279644966125488 L10.475044250488281 11.279644966125488 C10.723701477050781 11.346875190734863 10.946392059326172 11.51052188873291 11.127544403076172 11.693645477294922 L11.127544403076172 11.693645477294922 C11.240345001220703 11.565611839294434 11.349221229553223 11.433987617492676 11.453399658203125 11.298845291137695 L11.453399658203125 11.298845291137695 C11.659436225891113 11.313745498657227 11.865471839904785 11.328645706176758 12.071508407592773 11.343545913696289 L12.071508407592773 11.343545913696289 C12.041338920593262 11.352479934692383 12.007660865783691 11.351923942565918 11.977117538452148 11.34436321258545 L11.977117538452148 11.34436321258545 C11.987826347351074 11.363018035888672 11.998536109924316 11.381671905517578 12.009244918823242 11.4003267288208 L12.009244918823242 11.4003267288208 C11.715283393859863 11.839949607849121 10.85916519165039 12.478082656860352 10.929681777954102 12.93049144744873 L10.929681777954102 12.93049144744873 C11.081636428833008 12.876672744750977 11.233591079711914 12.822854995727539 11.38554573059082 12.769036293029785 L11.38554573059082 12.769036293029785 C11.230988502502441 12.9146089553833 9.839224815368652 13.783170700073242 10.042609214782715 13.044626235961914 L10.042609214782715 13.044626235961914 C7.942666053771973 13.820198059082031 8.695513725280762 11.32434368133545 10.475044250488281 11.279644966125488 L10.475044250488281 11.279644966125488"></path>
<path fill="none" stroke="black" stroke-width=".3" stroke-opacity="1.0"  filling="0" d="M10.296682357788086 11.43425464630127 L10.296682357788086 11.43425464630127 C10.707764625549316 11.479104995727539 10.768692016601562 11.498650550842285 11.027372360229492 11.844518661499023 L11.027372360229492 11.844518661499023 C10.856178283691406 12.054147720336914 10.455140113830566 12.824209213256836 10.21666431427002 12.863919258117676 C8.718976020812988 13.113306045532227 9.420692443847656 11.765660285949707 10.296682357788086 11.43425464630127 L10.296682357788086 11.43425464630127"></path></svg>