<svg xmlns="http://www.w3.org/2000/svg" viewBox="0.0 0.0 24.0 24.0" height="200px" width="200px"><path fill="none" stroke="black" stroke-width=".3" stroke-opacity="1.0"  filling="0" d="M11.814626693725586 11.902473449707031 L11.814626693725586 11.902473449707031 C11.879199981689453 11.902473449707031 11.943772315979004 11.902473449707031 12.008345603942871 11.902473449707031 L12.008345603942871 11.902473449707031 C11.96670913696289 12.025309562683105 11.925073623657227 12.14814567565918 11.883437156677246 12.270981788635254 L11.883437156677246 12.270981788635254 C11.849591255187988 12.245491027832031 11.815746307373047 12.220000267028809 11.781900405883789 12.194509506225586 L11.781900405883789 12.194509506225586 C11.784082412719727 12.185736656188965 11.786263465881348 12.176963806152344 11.788445472717285 12.168190956115723 L11.788445472717285 12.168190956115723 C11.826872825622559 12.173199653625488 11.865300178527832 12.17820930480957 11.903727531433105 12.183218002319336 L11.903727531433105 12.183218002319336 C11.914899826049805 12.107281684875488 11.92607307434082 12.03134536743164 11.93724536895752 11.955409049987793 L11.93724536895752 11.955409049987793 C11.896136283874512 11.948454856872559 11.855027198791504 11.941499710083008 11.813918113708496 11.934545516967773 L11.813918113708496 11.934545516967773 C11.814154624938965 11.92385482788086 11.814390182495117 11.913164138793945 11.814626693725586 11.902473449707031 L11.814626693725586 11.902473449707031"></path></svg>