<svg xmlns="http://www.w3.org/2000/svg" viewBox="0.0 0.0 24.0 24.0" height="200px" width="200px"><path fill="none" stroke="black" stroke-width=".3" stroke-opacity="1.0"  filling="0" d="M11.624808311462402 10.875680923461914 L11.624808311462402 10.875680923461914 C11.854935646057129 10.875680923461914 12.085062980651855 10.875680923461914 12.315190315246582 10.875680923461914 L12.315190315246582 10.875680923461914 C12.107538223266602 11.228721618652344 11.373324394226074 11.873696327209473 11.279562950134277 12.300052642822266 C11.00124454498291 13.565629005432129 12.933435440063477 11.72472095489502 13.08073616027832 11.549399375915527 L13.08073616027832 11.549399375915527 C13.0726900100708 11.543045043945312 13.064644813537598 11.536689758300781 13.056598663330078 11.530335426330566 L13.056598663330078 11.530335426330566 C13.381202697753906 11.194112777709961 13.84614372253418 10.907699584960938 14.313488960266113 10.909089088439941 L14.313488960266113 10.909089088439941 C13.883035659790039 11.427268981933594 13.462462425231934 11.94428539276123 13.056351661682129 12.481962203979492 L13.056351661682129 12.481962203979492 C13.060171127319336 12.496626853942871 13.063989639282227 12.511290550231934 13.067809104919434 12.525955200195312 L13.067809104919434 12.525955200195312 C13.23915958404541 12.523043632507324 13.393804550170898 12.418317794799805 13.550455093383789 12.3488187789917 L13.550455093383789 12.3488187789917 C13.236479759216309 12.706664085388184 12.541695594787598 13.272984504699707 12.054953575134277 12.851481437683105 L12.054953575134277 12.851481437683105 C12.076416969299316 12.801735877990723 12.097881317138672 12.75199031829834 12.119344711303711 12.702244758605957 L12.119344711303711 12.702244758605957 C9.868654251098633 13.356971740722656 11.078639030456543 12.017602920532227 11.624808311462402 10.875680923461914 L11.624808311462402 10.875680923461914"></path></svg>