<svg xmlns="http://www.w3.org/2000/svg" viewBox="0.0 0.0 24.0 24.0" height="200px" width="200px"><path fill="none" stroke="black" stroke-width=".3" stroke-opacity="1.0"  filling="0" d="M2.986771583557129 7.803873538970947 L2.986771583557129 7.803873538970947 C3.513545513153076 7.830966472625732 5.385054111480713 8.080718040466309 4.761490345001221 9.09174633026123 C4.147597312927246 10.0870943069458 3.156263589859009 8.733857154846191 3.863591194152832 8.778926849365234 L3.863591194152832 8.778926849365234 C3.9170145988464355 8.82368278503418 4.708937168121338 9.64952564239502 4.308627128601074 8.498918533325195 C3.9970147609710693 7.6032538414001465 2.4731009006500244 9.288378715515137 2.300863265991211 9.554346084594727 C1.2121769189834595 11.235480308532715 0.2769129276275635 14.789913177490234 -1.9596824645996094 15.268609046936035 C-2.8287353515625 15.454611778259277 -5.386805057525635 15.559181213378906 -5.478818893432617 14.140390396118164 C-5.526505470275879 13.405096054077148 -4.277987480163574 12.572277069091797 -3.6130638122558594 13.03333568572998 C-1.9808710813522339 14.165101051330566 -4.784221172332764 14.409542083740234 -4.124673843383789 13.750472068786621 L-4.124673843383789 13.750472068786621 C-3.1247427463531494 13.79903507232666 -3.813549518585205 13.1747407913208 -4.528064727783203 13.460182189941406 C-5.5429911613464355 13.86563491821289 -4.8156938552856445 14.708066940307617 -4.031946182250977 14.676163673400879 C-2.4351649284362793 14.611164093017578 -1.80218505859375 13.069563865661621 -1.1733007431030273 11.831482887268066 C-0.23955941200256348 9.993231773376465 0.7408223152160645 8.128474235534668 2.986771583557129 7.803873538970947 L2.986771583557129 7.803873538970947"></path></svg>