<svg xmlns="http://www.w3.org/2000/svg" viewBox="0.0 0.0 24.0 24.0" height="200px" width="200px"><path fill="none" stroke="black" stroke-width=".3" stroke-opacity="1.0"  filling="0" d="M8.476364135742188 10.843281745910645 L8.476364135742188 10.843281745910645 C8.677655220031738 10.8439359664917 8.878945350646973 10.84459114074707 9.080236434936523 10.845245361328125 L9.080236434936523 10.845245361328125 C9.055427551269531 10.877254486083984 9.030617713928223 10.909263610839844 9.00580883026123 10.941272735595703 L9.00580883026123 10.941272735595703 C11.672179222106934 10.41464900970459 9.336671829223633 14.1526460647583 7.840254306793213 12.410073280334473 L7.840254306793213 12.410073280334473 C7.292144775390625 13.073145866394043 7.19275426864624 13.54891586303711 6.278236389160156 13.552963256835938 L6.278236389160156 13.552963256835938 C6.846127986907959 12.772324562072754 7.592259407043457 11.282772064208984 8.476364135742188 10.843281745910645 L8.476364135742188 10.843281745910645"></path>
<path fill="none" stroke="black" stroke-width=".3" stroke-opacity="1.0"  filling="0" d="M9.401700019836426 11.047310829162598 L9.401700019836426 11.047310829162598 C10.441893577575684 11.845521926879883 8.465725898742676 13.296087265014648 7.972036361694336 12.267709732055664 L7.972036361694336 12.267709732055664 C8.441448211669922 11.671622276306152 8.646186828613281 11.157718658447266 9.401700019836426 11.047310829162598 L9.401700019836426 11.047310829162598"></path></svg>