<svg xmlns="http://www.w3.org/2000/svg" viewBox="0.0 0.0 24.0 24.0" height="200px" width="200px"><path fill="none" stroke="black" stroke-width=".3" stroke-opacity="1.0"  filling="0" d="M26.29840660095215 18.022554397583008 L26.29840660095215 18.022554397583008 C26.296716690063477 18.07825469970703 26.309274673461914 18.15361213684082 26.2640438079834 18.18616485595703 L26.2640438079834 18.18616485595703 C26.235715866088867 18.178028106689453 26.20738983154297 18.169891357421875 26.179061889648438 18.161754608154297 L26.179061889648438 18.161754608154297 C26.189607620239258 18.196290969848633 26.200151443481445 18.23082733154297 26.210697174072266 18.265363693237305 L26.210697174072266 18.265363693237305 C26.19233512878418 18.257699966430664 26.17397117614746 18.250036239624023 26.155609130859375 18.242372512817383 L26.155609130859375 18.242372512817383 C26.151636123657227 18.215682983398438 26.147663116455078 18.18899154663086 26.14369010925293 18.162302017211914 L26.14369010925293 18.162302017211914 C26.081859588623047 18.161354064941406 25.998889923095703 18.164262771606445 25.9649715423584 18.11255645751953 L25.9649715423584 18.11255645751953 C26.080034255981445 18.10881233215332 26.223224639892578 18.109737396240234 26.29840660095215 18.022554397583008 L26.29840660095215 18.022554397583008"></path></svg>