<svg xmlns="http://www.w3.org/2000/svg" viewBox="0.0 0.0 24.0 24.0" height="200px" width="200px"><path fill="none" stroke="black" stroke-width=".3" stroke-opacity="1.0"  filling="0" d="M12.973282814025879 11.862381935119629 L12.973282814025879 11.862381935119629 C12.978537559509277 11.87559986114502 12.983792304992676 11.888818740844727 12.989047050476074 11.902036666870117 L12.989047050476074 11.902036666870117 C12.950447082519531 11.926899909973145 12.911846160888672 11.951763153076172 12.873246192932129 11.9766263961792 L12.873246192932129 11.9766263961792 C12.873236656188965 12.0632905960083 12.873228073120117 12.149953842163086 12.873218536376953 12.236618041992188 L12.873218536376953 12.236618041992188 C12.841682434082031 12.14358139038086 12.810145378112793 12.050545692443848 12.778609275817871 11.95750904083252 L12.778609275817871 11.95750904083252 C12.746809005737305 11.94710922241211 12.715009689331055 11.936708450317383 12.683209419250488 11.926308631896973 L12.683209419250488 11.926308631896973 C12.684200286865234 11.91788101196289 12.685192108154297 11.909454345703125 12.686182975769043 11.901026725769043 L12.686182975769043 11.901026725769043 C12.781883239746094 11.888145446777344 12.877582550048828 11.875263214111328 12.973282814025879 11.862381935119629 L12.973282814025879 11.862381935119629"></path></svg>