<svg xmlns="http://www.w3.org/2000/svg" viewBox="0.0 0.0 24.0 24.0" height="200px" width="200px"><path fill="none" stroke="black" stroke-width=".3" stroke-opacity="1.0"  filling="0" d="M10.693854331970215 18.142635345458984 L10.693854331970215 18.142635345458984 C10.73697280883789 18.17241668701172 10.780091285705566 18.202199935913086 10.823209762573242 18.23198127746582 L10.823209762573242 18.23198127746582 C10.820191383361816 18.21150779724121 10.81717300415039 18.191036224365234 10.814154624938965 18.170562744140625 L10.814154624938965 18.170562744140625 C10.873948097229004 18.193634033203125 10.933948516845703 18.216415405273438 10.99219036102295 18.243162155151367 L10.99219036102295 18.243162155151367 C10.992499351501465 18.253681182861328 10.99280834197998 18.264198303222656 10.993117332458496 18.274717330932617 L10.993117332458496 18.274717330932617 C10.96673583984375 18.27603530883789 10.940353393554688 18.277355194091797 10.913971900939941 18.27867317199707 L10.913971900939941 18.27867317199707 C10.915826797485352 18.301809310913086 10.917680740356445 18.32494354248047 10.919535636901855 18.348079681396484 L10.919535636901855 18.348079681396484 C10.840118408203125 18.32478141784668 10.752286911010742 18.30316734313965 10.693854331970215 18.244552612304688 L10.693854331970215 18.244552612304688 C10.693854331970215 18.210580825805664 10.693854331970215 18.176607131958008 10.693854331970215 18.142635345458984 L10.693854331970215 18.142635345458984"></path></svg>