<svg xmlns="http://www.w3.org/2000/svg" viewBox="0.0 0.0 24.0 24.0" height="200px" width="200px"><path fill="none" stroke="black" stroke-width=".3" stroke-opacity="1.0"  filling="0" d="M38.03424835205078 15.654327392578125 L38.03424835205078 15.654327392578125 C38.041709899902344 15.655418395996094 38.04917526245117 15.656508445739746 38.056636810302734 15.657599449157715 L38.056636810302734 15.657599449157715 C38.05777359008789 15.673254013061523 38.05891036987305 15.688907623291016 38.0600471496582 15.704562187194824 L38.0600471496582 15.704562187194824 C38.08870315551758 15.69760799407959 38.11735534667969 15.690652847290039 38.14601135253906 15.683698654174805 L38.14601135253906 15.683698654174805 C38.14924621582031 15.709389686584473 38.15248107910156 15.735081672668457 38.15571594238281 15.760772705078125 L38.15571594238281 15.760772705078125 C38.136695861816406 15.771763801574707 38.117679595947266 15.782753944396973 38.09865951538086 15.793745040893555 L38.09865951538086 15.793745040893555 C38.06106185913086 15.78290843963623 38.023460388183594 15.772072792053223 37.985862731933594 15.761236190795898 L37.985862731933594 15.761236190795898 C38.001991271972656 15.725600242614746 38.01811981201172 15.689963340759277 38.03424835205078 15.654327392578125 L38.03424835205078 15.654327392578125"></path></svg>