<svg xmlns="http://www.w3.org/2000/svg" viewBox="0.0 0.0 24.0 24.0" height="200px" width="200px"><path fill="none" stroke="black" stroke-width=".3" stroke-opacity="1.0"  filling="0" d="M-2.3356637954711914 18.014812469482422 L-2.3356637954711914 18.014812469482422 C-2.3341000080108643 18.021329879760742 -2.332536458969116 18.027849197387695 -2.330972671508789 18.034366607666016 L-2.330972671508789 18.034366607666016 C-2.3840725421905518 18.058629989624023 -2.4371726512908936 18.08289337158203 -2.4902725219726562 18.10715675354004 L-2.4902725219726562 18.10715675354004 C-2.491917610168457 18.117055892944336 -2.493562698364258 18.126956939697266 -2.4952077865600586 18.136856079101562 L-2.4952077865600586 18.136856079101562 C-2.454008102416992 18.190256118774414 -2.412808418273926 18.243656158447266 -2.3716087341308594 18.297056198120117 L-2.3716087341308594 18.297056198120117 C-2.4179179668426514 18.297056198120117 -2.4642269611358643 18.297056198120117 -2.5105361938476562 18.297056198120117 L-2.5105361938476562 18.297056198120117 C-2.5328543186187744 18.265655517578125 -2.5551726818084717 18.234256744384766 -2.57749080657959 18.202856063842773 L-2.57749080657959 18.202856063842773 C-2.5638086795806885 18.152538299560547 -2.550126791000366 18.102218627929688 -2.536444664001465 18.05190086364746 L-2.536444664001465 18.05190086364746 C-2.469517707824707 18.03953742980957 -2.402590751647949 18.027175903320312 -2.3356637954711914 18.014812469482422 L-2.3356637954711914 18.014812469482422"></path></svg>