<svg xmlns="http://www.w3.org/2000/svg" viewBox="0.0 0.0 24.0 24.0" height="200px" width="200px"><path fill="none" stroke="black" stroke-width=".3" stroke-opacity="1.0"  filling="0" d="M12.969573974609375 11.91054630279541 L12.969573974609375 11.91054630279541 C13.037383079528809 11.91958236694336 13.105191230773926 11.928618431091309 13.17300033569336 11.937654495239258 L13.17300033569336 11.937654495239258 C13.12924575805664 11.942763328552246 13.085492134094238 11.94787311553955 13.04173755645752 11.952981948852539 L13.04173755645752 11.952981948852539 C13.0394287109375 11.959936141967773 13.037118911743164 11.966891288757324 13.034810066223145 11.973845481872559 L13.034810066223145 11.973845481872559 C13.0767822265625 11.991609573364258 13.118755340576172 12.00937271118164 13.160727500915527 12.02713680267334 L13.160727500915527 12.02713680267334 C13.108319282531738 12.075779914855957 13.136404037475586 12.200640678405762 13.197028160095215 12.238554954528809 L13.197028160095215 12.238554954528809 C13.121210098266602 12.238554954528809 13.045392036437988 12.238554954528809 12.969573974609375 12.238554954528809 L12.969573974609375 12.238554954528809 C12.969573974609375 12.129219055175781 12.969573974609375 12.019882202148438 12.969573974609375 11.91054630279541 L12.969573974609375 11.91054630279541"></path></svg>