<svg xmlns="http://www.w3.org/2000/svg" viewBox="0.0 0.0 24.0 24.0" height="200px" width="200px"><path fill="none" stroke="black" stroke-width=".3" stroke-opacity="1.0"  filling="0" d="M15.227537155151367 17.79231834411621 L15.227537155151367 17.79231834411621 C15.230491638183594 17.802026748657227 15.23344612121582 17.811737060546875 15.236400604248047 17.82144546508789 L15.236400604248047 17.82144546508789 C15.214606285095215 17.832826614379883 15.192895889282227 17.844369888305664 15.171218872070312 17.855974197387695 L15.171218872070312 17.855974197387695 C15.229410171508789 17.862873077392578 15.28760051727295 17.869773864746094 15.345791816711426 17.876672744750977 L15.345791816711426 17.876672744750977 C15.335627555847168 17.91950035095215 15.325464248657227 17.962326049804688 15.315299987792969 18.00515365600586 L15.315299987792969 18.00515365600586 C15.254508972167969 17.97509002685547 15.193717956542969 17.945026397705078 15.132926940917969 17.914962768554688 L15.132926940917969 17.914962768554688 C15.134218215942383 17.916244506835938 15.13550853729248 17.917526245117188 15.136799812316895 17.918807983398438 L15.136799812316895 17.918807983398438 C15.143914222717285 17.867408752441406 15.17762279510498 17.80649757385254 15.227537155151367 17.79231834411621 L15.227537155151367 17.79231834411621"></path></svg>