<svg xmlns="http://www.w3.org/2000/svg" viewBox="0.0 0.0 24.0 24.0" height="200px" width="200px"><path fill="none" stroke="black" stroke-width=".3" stroke-opacity="1.0"  filling="0" d="M15.192544937133789 18.02386474609375 L15.192544937133789 18.02386474609375 C15.24675464630127 18.02971076965332 15.300963401794434 18.035554885864258 15.355173110961914 18.041400909423828 L15.355173110961914 18.041400909423828 C15.337018013000488 18.063735961914062 15.318863868713379 18.08607292175293 15.300708770751953 18.108407974243164 L15.300708770751953 18.108407974243164 C15.315254211425781 18.13197135925293 15.32979965209961 18.155534744262695 15.344345092773438 18.17909812927246 L15.344345092773438 18.17909812927246 C15.33891773223877 18.184144973754883 15.333491325378418 18.189189910888672 15.32806396484375 18.194236755371094 L15.32806396484375 18.194236755371094 C15.296764373779297 18.16267204284668 15.265464782714844 18.1311092376709 15.23416519165039 18.099544525146484 L15.23416519165039 18.099544525146484 C15.238319396972656 18.12908172607422 15.242473602294922 18.15861701965332 15.246627807617188 18.188154220581055 L15.246627807617188 18.188154220581055 C15.20078182220459 18.161800384521484 15.154936790466309 18.135446548461914 15.109090805053711 18.109092712402344 L15.109090805053711 18.109092712402344 C15.136908531188965 18.0806827545166 15.164727210998535 18.052274703979492 15.192544937133789 18.02386474609375 L15.192544937133789 18.02386474609375"></path></svg>