<svg xmlns="http://www.w3.org/2000/svg" viewBox="0.0 0.0 24.0 24.0" height="200px" width="200px"><path fill="none" stroke="black" stroke-width=".3" stroke-opacity="1.0"  filling="0" d="M38.61818313598633 6.927245140075684 L38.61818313598633 6.927245140075684 C38.63888168334961 6.944545269012451 38.659584045410156 6.9618449211120605 38.68028259277344 6.979145050048828 L38.68028259277344 6.979145050048828 C38.658836364746094 6.989427089691162 38.63739013671875 6.999708652496338 38.615943908691406 7.009990692138672 L38.615943908691406 7.009990692138672 C38.60108947753906 7.034917831420898 38.58623504638672 7.059845447540283 38.571380615234375 7.08477258682251 L38.571380615234375 7.08477258682251 C38.53096389770508 7.048099994659424 38.490543365478516 7.01142692565918 38.45012664794922 6.974754333496094 L38.45012664794922 6.974754333496094 C38.47041702270508 7.0301361083984375 38.49070739746094 7.0855183601379395 38.5109977722168 7.140900135040283 L38.5109977722168 7.140900135040283 C38.48486328125 7.0748090744018555 38.45872497558594 7.008718013763428 38.43259048461914 6.942626953125 L38.43259048461914 6.942626953125 C38.46630859375 6.93790864944458 38.50002670288086 6.933190822601318 38.53374481201172 6.928472518920898 L38.53374481201172 6.928472518920898 C38.5618896484375 6.92806339263916 38.59003829956055 6.927654266357422 38.61818313598633 6.927245140075684 L38.61818313598633 6.927245140075684"></path></svg>