<svg xmlns="http://www.w3.org/2000/svg" viewBox="0.0 0.0 24.0 24.0" height="200px" width="200px"><path fill="none" stroke="black" stroke-width=".3" stroke-opacity="1.0"  filling="0" d="M37.89591979980469 16.913700103759766 L37.89591979980469 16.913700103759766 C37.90782928466797 16.966718673706055 37.91973876953125 17.01973533630371 37.93164825439453 17.07275390625 L37.93164825439453 17.07275390625 C37.896484375 17.119117736816406 37.86132049560547 17.165481567382812 37.82615661621094 17.21184539794922 L37.82615661621094 17.21184539794922 C37.809593200683594 17.209863662719727 37.793025970458984 17.2078800201416 37.77646255493164 17.20589828491211 L37.77646255493164 17.20589828491211 C37.77646255493164 17.139062881469727 37.77646255493164 17.072227478027344 37.77646255493164 17.00539207458496 L37.77646255493164 17.00539207458496 C37.79372787475586 17.018646240234375 37.81098937988281 17.03190040588379 37.82825469970703 17.045154571533203 L37.82825469970703 17.045154571533203 C37.81896209716797 17.008136749267578 37.80967330932617 16.971118927001953 37.80038070678711 16.934101104736328 L37.80038070678711 16.934101104736328 C37.79945373535156 16.93546485900879 37.798526763916016 16.936826705932617 37.79759979248047 16.938190460205078 L37.79759979248047 16.938190460205078 C37.83037185668945 16.93002700805664 37.8631477355957 16.921863555908203 37.89591979980469 16.913700103759766 L37.89591979980469 16.913700103759766"></path></svg>