<svg xmlns="http://www.w3.org/2000/svg" viewBox="0.0 0.0 24.0 24.0" height="200px" width="200px"><path fill="none" stroke="black" stroke-width=".3" stroke-opacity="1.0"  filling="0" d="M12.802172660827637 10.560163497924805 L12.802172660827637 10.560163497924805 C12.924345016479492 10.560163497924805 13.046518325805664 10.560163497924805 13.16869068145752 10.560163497924805 L13.16869068145752 10.560163497924805 C13.16869068145752 10.834781646728516 13.16869068145752 11.109399795532227 13.16869068145752 11.384017944335938 L13.16869068145752 11.384017944335938 C15.073822021484375 10.425233840942383 14.688384056091309 13.987465858459473 13.220455169677734 12.943145751953125 L13.220455169677734 12.943145751953125 C13.197718620300293 13.000009536743164 13.174982070922852 13.056872367858887 13.15224552154541 13.113736152648926 L13.15224552154541 13.113736152648926 C13.043309211730957 13.113736152648926 12.934372901916504 13.113736152648926 12.82543659210205 13.113736152648926 L12.82543659210205 13.113736152648926 C12.737224578857422 12.773972511291504 12.704446792602539 10.908284187316895 12.802172660827637 10.560163497924805 L12.802172660827637 10.560163497924805"></path>
<path fill="none" stroke="black" stroke-width=".3" stroke-opacity="1.0"  filling="0" d="M13.589072227478027 11.564373016357422 L13.589072227478027 11.564373016357422 C14.94381046295166 12.291243553161621 13.178404808044434 13.384750366210938 13.172780990600586 12.184691429138184 L13.172780990600586 12.184691429138184 C13.170799255371094 12.184427261352539 13.168818473815918 12.184164047241211 13.166836738586426 12.183899879455566 L13.166836738586426 12.183899879455566 C13.199867248535156 11.936182022094727 13.396198272705078 11.72329044342041 13.589072227478027 11.564373016357422 L13.589072227478027 11.564373016357422"></path></svg>