<svg xmlns="http://www.w3.org/2000/svg" viewBox="0.0 0.0 24.0 24.0" height="200px" width="200px"><path fill="none" stroke="black" stroke-width=".3" stroke-opacity="1.0"  filling="0" d="M6.91565465927124 11.348127365112305 L6.91565465927124 11.348127365112305 C7.567567348480225 11.490145683288574 7.61868953704834 11.648599624633789 7.6351637840271 12.319963455200195 C7.6424336433410645 12.616223335266113 7.785610198974609 13.295199394226074 7.505154609680176 13.199453353881836 C7.368950843811035 13.1529541015625 6.9951982498168945 10.66062068939209 6.463418006896973 12.093762397766113 C6.335843086242676 12.43757438659668 6.463663578033447 12.82719898223877 6.463663578033447 13.193917274475098 L6.463663578033447 13.193917274475098 C6.427299976348877 13.195943832397461 6.390936374664307 13.19797134399414 6.354572772979736 13.199997901916504 L6.354572772979736 13.199997901916504 C6.3545637130737305 12.59090805053711 6.354554653167725 11.981817245483398 6.354545593261719 11.372727394104004 L6.354545593261719 11.372727394104004 C6.387900352478027 11.372727394104004 6.421254634857178 11.372727394104004 6.454609394073486 11.372727394104004 L6.454609394073486 11.372727394104004 C6.460100173950195 11.426309585571289 6.465590953826904 11.479890823364258 6.471081733703613 11.533473014831543 L6.471081733703613 11.533473014831543 C6.630453109741211 11.514023780822754 6.770060062408447 11.415801048278809 6.91565465927124 11.348127365112305 L6.91565465927124 11.348127365112305"></path></svg>