<svg xmlns="http://www.w3.org/2000/svg" viewBox="0.0 0.0 24.0 24.0" height="200px" width="200px"><path fill="none" stroke="black" stroke-width=".3" stroke-opacity="1.0"  filling="0" d="M33.178749084472656 17.41074562072754 L33.178749084472656 17.41074562072754 C33.289222717285156 17.49040985107422 33.399696350097656 17.5700740814209 33.510169982910156 17.649738311767578 L33.510169982910156 17.649738311767578 C33.554561614990234 17.617656707763672 33.59894943237305 17.585575103759766 33.643341064453125 17.55349349975586 L33.643341064453125 17.55349349975586 C33.64750289916992 17.57405662536621 33.65166473388672 17.594619750976562 33.655826568603516 17.615182876586914 L33.655826568603516 17.615182876586914 C33.636871337890625 17.6625919342041 33.617916107177734 17.710002899169922 33.598960876464844 17.75741195678711 L33.598960876464844 17.75741195678711 C33.506710052490234 17.795917510986328 33.39424514770508 17.784908294677734 33.29907989501953 17.75429916381836 L33.29907989501953 17.75429916381836 C33.33860397338867 17.74266242980957 33.37813186645508 17.731027603149414 33.41765594482422 17.719390869140625 L33.41765594482422 17.719390869140625 C33.41807556152344 17.71257209777832 33.41849136352539 17.70575523376465 33.41891098022461 17.698936462402344 L33.41891098022461 17.698936462402344 C33.38022232055664 17.698936462402344 33.341529846191406 17.698936462402344 33.30284118652344 17.698936462402344 L33.30284118652344 17.698936462402344 C33.35159683227539 17.657808303833008 33.40034866333008 17.616682052612305 33.44910430908203 17.57555389404297 L33.44910430908203 17.57555389404297 C33.39980697631836 17.5797176361084 33.35050582885742 17.58388328552246 33.30120849609375 17.58804702758789 L33.30120849609375 17.58804702758789 C33.2603874206543 17.528945922851562 33.21957015991211 17.469846725463867 33.178749084472656 17.41074562072754 L33.178749084472656 17.41074562072754"></path></svg>