<svg xmlns="http://www.w3.org/2000/svg" viewBox="0.0 0.0 24.0 24.0" height="200px" width="200px"><path fill="none" stroke="black" stroke-width=".3" stroke-opacity="1.0"  filling="0" d="M-11.139654159545898 17.811080932617188 L-11.139654159545898 17.811080932617188 C-11.11759090423584 17.827926635742188 -11.095526695251465 17.844772338867188 -11.073463439941406 17.861618041992188 L-11.073463439941406 17.861618041992188 C-11.061009407043457 17.897945404052734 -11.048554420471191 17.93427085876465 -11.036100387573242 17.970598220825195 L-11.036100387573242 17.970598220825195 C-11.094791412353516 17.980026245117188 -11.153482437133789 17.98945426940918 -11.212173461914062 17.998882293701172 L-11.212173461914062 17.998882293701172 C-11.247818946838379 17.96451759338379 -11.283463478088379 17.930152893066406 -11.319108963012695 17.895788192749023 L-11.319108963012695 17.895788192749023 C-11.2931547164917 17.876079559326172 -11.267199516296387 17.85637092590332 -11.24124526977539 17.83666229248047 L-11.24124526977539 17.83666229248047 C-11.233981132507324 17.85980796813965 -11.226717948913574 17.882953643798828 -11.219453811645508 17.906099319458008 L-11.219453811645508 17.906099319458008 C-11.18387222290039 17.906099319458008 -11.148290634155273 17.906099319458008 -11.112709045410156 17.906099319458008 L-11.112709045410156 17.906099319458008 C-11.127181053161621 17.880361557006836 -11.141654014587402 17.854625701904297 -11.156126022338867 17.828887939453125 L-11.156126022338867 17.828887939453125 C-11.150635719299316 17.822952270507812 -11.14514446258545 17.8170166015625 -11.139654159545898 17.811080932617188 L-11.139654159545898 17.811080932617188"></path></svg>