<svg xmlns="http://www.w3.org/2000/svg" viewBox="0.0 0.0 24.0 24.0" height="200px" width="200px"><path fill="none" stroke="black" stroke-width=".3" stroke-opacity="1.0"  filling="0" d="M-15.108053207397461 6.6243815422058105 L-15.108053207397461 6.6243815422058105 C-15.045598983764648 6.758926868438721 -14.983144760131836 6.893472671508789 -14.920690536499023 7.028017997741699 L-14.920690536499023 7.028017997741699 C-14.973847389221191 7.029708385467529 -15.025711059570312 7.071643352508545 -15.052881240844727 7.117363452911377 L-15.052881240844727 7.117363452911377 C-15.022899627685547 7.11201810836792 -14.992918014526367 7.106672763824463 -14.962936401367188 7.101327419281006 L-14.962936401367188 7.101327419281006 C-14.983881950378418 7.125500202178955 -15.004826545715332 7.149672985076904 -15.025772094726562 7.1738457679748535 L-15.025772094726562 7.1738457679748535 C-15.011236190795898 7.1896820068359375 -14.996700286865234 7.2055182456970215 -14.98216438293457 7.2213544845581055 L-14.98216438293457 7.2213544845581055 C-14.985946655273438 7.228000164031982 -14.989728927612305 7.234645366668701 -14.993511199951172 7.241291046142578 L-14.993511199951172 7.241291046142578 C-15.019383430480957 7.233318328857422 -15.045256614685059 7.225345611572266 -15.071128845214844 7.217372894287109 L-15.071128845214844 7.217372894287109 C-15.113995552062988 7.339367389678955 -15.138717651367188 7.467584609985352 -15.157938003540039 7.595454692840576 L-15.157938003540039 7.595454692840576 C-15.168656349182129 7.595691204071045 -15.179375648498535 7.5959272384643555 -15.190093994140625 7.596163749694824 L-15.190093994140625 7.596163749694824 C-15.222335815429688 7.249154567718506 -15.216841697692871 6.948624134063721 -15.108053207397461 6.6243815422058105 L-15.108053207397461 6.6243815422058105"></path></svg>