<svg xmlns="http://www.w3.org/2000/svg" viewBox="0.0 0.0 24.0 24.0" height="200px" width="200px"><path fill="none" stroke="black" stroke-width=".3" stroke-opacity="1.0"  filling="0" d="M20.468891143798828 17.953636169433594 L20.468891143798828 17.953636169433594 C20.4768009185791 18.003890991210938 20.484708786010742 18.05414581298828 20.492618560791016 18.104400634765625 L20.492618560791016 18.104400634765625 C20.538362503051758 18.107118606567383 20.584108352661133 18.109838485717773 20.629852294921875 18.11255645751953 L20.629852294921875 18.11255645751953 C20.621326446533203 18.218929290771484 20.534135818481445 18.30744171142578 20.459209442138672 18.383426666259766 L20.459209442138672 18.383426666259766 C20.457056045532227 18.382299423217773 20.45490074157715 18.38117218017578 20.452747344970703 18.38004493713379 L20.452747344970703 18.38004493713379 C20.44481086730957 18.30702781677246 20.436872482299805 18.2340087890625 20.428936004638672 18.160991668701172 L20.428936004638672 18.160991668701172 C20.427963256835938 18.162391662597656 20.426990509033203 18.16379165649414 20.42601776123047 18.165191650390625 L20.42601776123047 18.165191650390625 C20.46200942993164 18.102888107299805 20.460529327392578 18.025100708007812 20.468891143798828 17.953636169433594 L20.468891143798828 17.953636169433594"></path></svg>