<svg xmlns="http://www.w3.org/2000/svg" viewBox="0.0 0.0 24.0 24.0" height="200px" width="200px"><path fill="none" stroke="black" stroke-width=".3" stroke-opacity="1.0"  filling="0" d="M38.31826400756836 12.961419105529785 L38.31826400756836 12.961419105529785 C38.33696365356445 12.96883773803711 38.35566329956055 12.976255416870117 38.37436294555664 12.983674049377441 L38.370792388916016 12.979909896850586 C38.39897537231445 13.043109893798828 38.427154541015625 13.10630989074707 38.45533752441406 13.169509887695312 L38.45533752441406 13.169509887695312 C38.475555419921875 13.152054786682129 38.49577331542969 13.134600639343262 38.5159912109375 13.117145538330078 L38.5159912109375 13.117145538330078 C38.507171630859375 13.159199714660645 38.49835205078125 13.201254844665527 38.489532470703125 13.243309020996094 L38.489532470703125 13.243309020996094 C38.52225112915039 13.217926979064941 38.554969787597656 13.192545890808105 38.58768844604492 13.167163848876953 L38.58768844604492 13.167163848876953 C38.570980072021484 13.142718315124512 38.55427169799805 13.118273735046387 38.53756332397461 13.093828201293945 L38.53756332397461 13.093828201293945 C38.57174301147461 13.054828643798828 38.60548782348633 13.014178276062012 38.647422790527344 12.983674049377441 L38.647422790527344 12.983674049377441 C38.64608383178711 12.982592582702637 38.64474868774414 12.981510162353516 38.643409729003906 12.980428695678711 L38.643409729003906 12.980428695678711 C38.66915512084961 13.008855819702148 38.69490432739258 13.037283897399902 38.72064971923828 13.06571102142334 L38.72064971923828 13.06571102142334 C38.697486877441406 13.183836936950684 38.55222702026367 13.281558990478516 38.431854248046875 13.282527923583984 L38.431854248046875 13.282527923583984 C38.38705062866211 13.177109718322754 38.336185455322266 13.07526683807373 38.31826400756836 12.961419105529785 L38.31826400756836 12.961419105529785"></path></svg>