<svg xmlns="http://www.w3.org/2000/svg" viewBox="0.0 0.0 24.0 24.0" height="200px" width="200px"><path fill="none" stroke="black" stroke-width=".3" stroke-opacity="1.0"  filling="0" d="M15.234952926635742 9.440730094909668 L15.234952926635742 9.440730094909668 C16.776199340820312 9.847017288208008 16.989009857177734 10.614962577819824 16.96502685546875 12.060521125793457 C16.95736312866211 12.522473335266113 17.292186737060547 13.206855773925781 16.896188735961914 13.444856643676758 C16.590578079223633 13.628533363342285 14.960015296936035 13.445454597473145 14.59085464477539 13.445509910583496 L14.59085464477539 13.445509910583496 C14.60068416595459 15.3090181350708 15.331548690795898 15.597880363464355 15.327325820922852 13.862809181213379 L15.327325820922852 13.862809181213379 C15.874835014343262 13.862809181213379 16.422344207763672 13.862809181213379 16.9698543548584 13.862809181213379 L16.9698543548584 13.862809181213379 C16.980533599853516 14.583904266357422 17.08203887939453 15.199212074279785 16.685754776000977 15.818727493286133 C16.112974166870117 16.714160919189453 14.080414772033691 16.857765197753906 13.410054206848145 15.979310989379883 C12.665629386901855 15.003802299499512 12.354488372802734 10.756041526794434 13.508016586303711 9.882275581359863 C14.181988716125488 9.371760368347168 14.400184631347656 9.490951538085938 15.234952926635742 9.440730094909668 L15.234952926635742 9.440730094909668"></path>
<path fill="none" stroke="black" stroke-width=".3" stroke-opacity="1.0"  filling="0" d="M15.081954956054688 10.805999755859375 L15.081954956054688 10.805999755859375 C15.33576774597168 11.154897689819336 15.326251983642578 11.645512580871582 15.326918601989746 12.076963424682617 L15.326918601989746 12.076963424682617 C15.084273338317871 12.07695484161377 14.84162712097168 12.076945304870605 14.598981857299805 12.076936721801758 L14.598981857299805 12.076936721801758 C14.547855377197266 11.364997863769531 14.407733917236328 10.992208480834961 15.081954956054688 10.805999755859375 L15.081954956054688 10.805999755859375"></path></svg>