<svg xmlns="http://www.w3.org/2000/svg" viewBox="0.0 0.0 24.0 24.0" height="200px" width="200px"><path fill="none" stroke="black" stroke-width=".3" stroke-opacity="1.0"  filling="0" d="M10.227272987365723 9.109036445617676 L10.227272987365723 9.109036445617676 C10.742745399475098 9.109036445617676 11.265340805053711 9.024134635925293 11.773691177368164 9.109527587890625 C12.308951377868652 9.199440956115723 11.8638916015625 10.192548751831055 11.86385440826416 10.735308647155762 C11.86377239227295 11.913361549377441 11.874217987060547 13.085430145263672 11.864645957946777 14.265218734741211 C11.863621711730957 14.39140796661377 11.863636016845703 15.522613525390625 11.863636016845703 16.084064483642578 L11.863636016845703 16.084064483642578 C11.32433795928955 16.12358856201172 10.227876663208008 16.500625610351562 10.227544784545898 15.762137413024902 L10.227544784545898 15.762137413024902 C9.14306926727295 16.46173667907715 8.580119132995605 16.184999465942383 7.951581954956055 15.295692443847656 C7.605610370635986 14.806182861328125 7.8537116050720215 14.099778175354004 7.848282814025879 13.500372886657715 C7.8351263999938965 12.047697067260742 7.798007965087891 10.56733226776123 7.859591007232666 9.115882873535156 L7.859591007232666 9.115882873535156 C8.412454605102539 9.115882873535156 8.96531867980957 9.115882873535156 9.518181800842285 9.115882873535156 L9.518181800842285 9.115882873535156 C9.518181800842285 9.745973587036133 9.518467903137207 10.376065254211426 9.518453598022461 11.006155967712402 C9.518440246582031 11.583383560180664 9.518613815307617 12.160611152648926 9.51810073852539 12.737837791442871 C9.517897605895996 12.966453552246094 9.2356595993042 14.331968307495117 9.703908920288086 14.81083869934082 C9.847919464111328 14.958115577697754 10.110212326049805 14.651320457458496 10.226781845092773 14.481493949890137 C10.574016571044922 13.975617408752441 10.227245330810547 13.2543306350708 10.227245330810547 12.640748977661133 C10.227245330810547 11.463517189025879 10.227089881896973 10.286267280578613 10.227272987365723 9.109036445617676 L10.227272987365723 9.109036445617676"></path></svg>