<svg xmlns="http://www.w3.org/2000/svg" viewBox="0.0 0.0 24.0 24.0" height="200px" width="200px"><path fill="none" stroke="black" stroke-width=".3" stroke-opacity="1.0"  filling="0" d="M13.983163833618164 11.345154762268066 L13.983163833618164 11.345154762268066 C14.108136177062988 11.345154762268066 14.233109474182129 11.345154762268066 14.358081817626953 11.345154762268066 L14.358081817626953 11.345154762268066 C14.364309310913086 11.401082038879395 14.370536804199219 11.457009315490723 14.376764297485352 11.51293659210205 L14.376764297485352 11.51293659210205 C15.317177772521973 11.478944778442383 16.217727661132812 11.596352577209473 15.50157356262207 13.138964653015137 L15.50157356262207 13.138964653015137 C15.3825101852417 13.138964653015137 15.263445854187012 13.138964653015137 15.14438247680664 13.138964653015137 L15.14438247680664 13.138964653015137 C15.028249740600586 11.344247817993164 14.371968269348145 11.327550888061523 14.372781753540039 13.135228157043457 L14.372781753540039 13.135228157043457 C14.24423599243164 13.135228157043457 14.115690231323242 13.135228157043457 13.987144470214844 13.135228157043457 L13.987144470214844 13.135228157043457 C13.974441528320312 12.538670539855957 13.973173141479492 11.941763877868652 13.983163833618164 11.345154762268066 L13.983163833618164 11.345154762268066"></path></svg>