<svg xmlns="http://www.w3.org/2000/svg" viewBox="0.0 0.0 24.0 24.0" height="200px" width="200px"><path fill="none" stroke="black" stroke-width=".3" stroke-opacity="1.0"  filling="0" d="M11.434662818908691 11.732673645019531 L11.434662818908691 11.732673645019531 C11.551753997802734 11.753973960876465 11.668844223022461 11.775273323059082 11.785935401916504 11.796573638916016 L11.785935401916504 11.796573638916016 C11.762117385864258 11.920296669006348 11.764209747314453 12.051000595092773 11.788936614990234 12.174545288085938 L11.788936614990234 12.174545288085938 C11.70296859741211 12.113382339477539 11.612332344055176 12.058842658996582 11.520872116088867 12.006245613098145 L11.520872116088867 12.006245613098145 C11.492136001586914 12.06640911102295 11.463398933410645 12.12657356262207 11.434662818908691 12.186737060546875 L11.434662818908691 12.186737060546875 C11.434662818908691 12.035382270812988 11.434662818908691 11.884028434753418 11.434662818908691 11.732673645019531 L11.434662818908691 11.732673645019531"></path>
<path fill="none" stroke="black" stroke-width=".3" stroke-opacity="1.0"  filling="0" d="M11.513782501220703 11.813837051391602 L11.513782501220703 11.813837051391602 C11.572891235351562 11.813837051391602 11.631999969482422 11.813837051391602 11.691108703613281 11.813837051391602 L11.691108703613281 11.813837051391602 C11.691108703613281 11.843809127807617 11.691108703613281 11.87378215789795 11.691108703613281 11.903754234313965 L11.691108703613281 11.903754234313965 C11.631999969482422 11.87378215789795 11.572891235351562 11.843809127807617 11.513782501220703 11.813837051391602 L11.513782501220703 11.813837051391602"></path></svg>