<svg xmlns="http://www.w3.org/2000/svg" viewBox="0.0 0.0 24.0 24.0" height="200px" width="200px"><path fill="none" stroke="black" stroke-width=".3" stroke-opacity="1.0"  filling="0" d="M5.7146992683410645 6.982119083404541 L5.7146992683410645 6.982119083404541 C6.536196231842041 6.980247497558594 8.161410331726074 6.690996170043945 8.898761749267578 7.17840051651001 C10.266441345214844 8.082464218139648 10.08955192565918 10.712364196777344 8.703217506408691 11.418927192687988 L8.703217506408691 11.418927192687988 C10.421855926513672 11.969511032104492 9.558271408081055 14.997201919555664 9.851781845092773 16.357255935668945 L9.851781845092773 16.357255935668945 C9.27998161315918 16.357255935668945 8.708182334899902 16.357255935668945 8.136382102966309 16.357255935668945 L8.136382102966309 16.357255935668945 C7.895633697509766 15.347107887268066 8.733108520507812 12.204360961914062 7.284327030181885 12.19123649597168 L7.284327030181885 12.19123649597168 C7.284327030181885 13.579553604125977 7.284327030181885 14.967873573303223 7.284327030181885 16.356191635131836 L7.284327030181885 16.356191635131836 C6.723426818847656 16.356191635131836 6.162526607513428 16.356191635131836 5.601626396179199 16.356191635131836 L5.601626396179199 16.356191635131836 C5.601626396179199 14.795074462890625 5.601626396179199 13.233955383300781 5.601626396179199 11.672837257385254 C5.601626396179199 10.111719131469727 5.601626396179199 8.5506010055542 5.601626396179199 6.989482402801514 L5.601626396179199 6.989482402801514 C5.639317512512207 6.987028121948242 5.677008152008057 6.9845733642578125 5.7146992683410645 6.982119083404541 L5.7146992683410645 6.982119083404541"></path>
<path fill="none" stroke="black" stroke-width=".3" stroke-opacity="1.0"  filling="0" d="M7.285609245300293 8.35622787475586 L7.285609245300293 8.35622787475586 C8.468798637390137 8.420602798461914 8.507448196411133 10.79409408569336 7.285609245300293 10.799945831298828 L7.285609245300293 10.799945831298828 C7.285609245300293 9.985373497009277 7.285609245300293 9.17080020904541 7.285609245300293 8.35622787475586 L7.285609245300293 8.35622787475586"></path></svg>