<svg xmlns="http://www.w3.org/2000/svg" viewBox="0.0 0.0 24.0 24.0" height="200px" width="200px"><path fill="none" stroke="black" stroke-width=".3" stroke-opacity="1.0"  filling="0" d="M18.820772171020508 14.321483612060547 L18.820772171020508 14.321483612060547 C18.87278175354004 14.325065612792969 18.924789428710938 14.328646659851074 18.97679901123047 14.332228660583496 L18.97679901123047 14.332228660583496 C18.88888168334961 14.3553466796875 18.800962448120117 14.378464698791504 18.713045120239258 14.401582717895508 L18.713045120239258 14.401582717895508 C18.73595428466797 14.415055274963379 18.75886344909668 14.428528785705566 18.78177261352539 14.442001342773438 L18.78177261352539 14.442001342773438 C18.73807144165039 14.462756156921387 18.694372177124023 14.48351001739502 18.650671005249023 14.504264831542969 L18.650671005249023 14.504264831542969 C18.66312599182129 14.522282600402832 18.675579071044922 14.540301322937012 18.688034057617188 14.558319091796875 L18.691909790039062 14.554991722106934 C18.607818603515625 14.519715309143066 18.524627685546875 14.479887962341309 18.436092376708984 14.458037376403809 L18.436092376708984 14.458037376403809 C18.4313907623291 14.536691665649414 18.42669105529785 14.61534595489502 18.42198944091797 14.694000244140625 L18.42198944091797 14.694000244140625 C18.078109741210938 14.482024192810059 18.629884719848633 14.362458229064941 18.820772171020508 14.321483612060547 L18.820772171020508 14.321483612060547"></path></svg>