<svg xmlns="http://www.w3.org/2000/svg" viewBox="0.0 0.0 24.0 24.0" height="200px" width="200px"><path fill="none" stroke="black" stroke-width=".3" stroke-opacity="1.0"  filling="0" d="M9.897600173950195 12.080945014953613 L9.897600173950195 12.080945014953613 C9.85915470123291 12.15440845489502 9.820709228515625 12.227872848510742 9.78226375579834 12.301336288452148 L9.78226375579834 12.301336288452148 C9.953990936279297 12.244636535644531 10.125718116760254 12.187935829162598 10.297445297241211 12.13123607635498 L10.297445297241211 12.13123607635498 C10.302763938903809 12.144680976867676 10.30808162689209 12.158126831054688 10.313400268554688 12.171571731567383 L10.313400268554688 12.171571731567383 C10.053006172180176 12.290114402770996 9.754898071289062 12.335269927978516 9.624382019042969 12.60234546661377 L9.624382019042969 12.60234546661377 C9.843626976013184 12.861356735229492 10.048809051513672 12.565289497375488 10.082700729370117 12.353264808654785 L10.082700729370117 12.353264808654785 C10.117873191833496 12.36609172821045 10.153046607971191 12.37891960144043 10.18821907043457 12.391746520996094 L10.18821907043457 12.391746520996094 C10.031414031982422 12.575897216796875 9.301892280578613 12.900758743286133 9.646500587463379 12.453219413757324 L9.646500587463379 12.453219413757324 C9.63451862335205 12.434337615966797 9.622536659240723 12.41545581817627 9.610554695129395 12.396574020385742 L9.610554695129395 12.396574020385742 C9.705117225646973 12.290361404418945 9.801830291748047 12.185983657836914 9.90149974822998 12.08454704284668 L9.897600173950195 12.080945014953613"></path></svg>