<svg xmlns="http://www.w3.org/2000/svg" viewBox="0.0 0.0 24.0 24.0" height="200px" width="200px"><path fill="none" stroke="black" stroke-width=".3" stroke-opacity="1.0"  filling="0" d="M19.53021812438965 15.82431697845459 L19.53021812438965 15.82431697845459 C19.59038734436035 15.866252899169922 19.570100784301758 15.993335723876953 19.517017364501953 16.043943405151367 L19.517017364501953 16.043943405151367 C19.58812713623047 16.067352294921875 19.65923500061035 16.090763092041016 19.730344772338867 16.114171981811523 L19.730344772338867 16.114171981811523 C19.64497184753418 16.10746192932129 19.559600830078125 16.100753784179688 19.474227905273438 16.094043731689453 L19.474227905273438 16.094043731689453 C19.464237213134766 16.07384490966797 19.45424461364746 16.05364418029785 19.44425392150879 16.033445358276367 L19.44425392150879 16.033445358276367 C19.45573616027832 16.00128173828125 19.46721649169922 15.969118118286133 19.47869873046875 15.936954498291016 L19.47869873046875 15.936954498291016 C19.525861740112305 15.936954498291016 19.573026657104492 15.936954498291016 19.620189666748047 15.936954498291016 L19.620189666748047 15.936954498291016 C19.590198516845703 15.899408340454102 19.560209274291992 15.861863136291504 19.53021812438965 15.82431697845459 L19.53021812438965 15.82431697845459"></path></svg>