<svg xmlns="http://www.w3.org/2000/svg" viewBox="0.0 0.0 24.0 24.0" height="200px" width="200px"><path fill="none" stroke="black" stroke-width=".3" stroke-opacity="1.0"  filling="0" d="M19.770462036132812 14.978536605834961 L19.770462036132812 14.978536605834961 C19.791208267211914 14.986527442932129 19.811952590942383 14.994518280029297 19.832698822021484 15.002509117126465 L19.832698822021484 15.002509117126465 C19.822799682617188 15.036317825317383 19.812898635864258 15.070127487182617 19.80299949645996 15.103936195373535 L19.80299949645996 15.103936195373535 C19.757564544677734 15.103936195373535 19.712127685546875 15.103936195373535 19.66669273376465 15.103936195373535 L19.66669273376465 15.103936195373535 C19.668956756591797 15.070817947387695 19.671218872070312 15.037700653076172 19.67348289489746 15.004582405090332 L19.67348289489746 15.004582405090332 C19.680919647216797 15.002945899963379 19.688356399536133 15.001309394836426 19.69579315185547 14.999672889709473 L19.69579315185547 14.999672889709473 C19.713973999023438 15.036118507385254 19.732154846191406 15.072563171386719 19.750335693359375 15.1090087890625 L19.750335693359375 15.1090087890625 C19.757043838500977 15.065518379211426 19.76375389099121 15.022027015686035 19.770462036132812 14.978536605834961 L19.770462036132812 14.978536605834961"></path></svg>