<svg xmlns="http://www.w3.org/2000/svg" viewBox="0.0 0.0 24.0 24.0" height="200px" width="200px"><path fill="none" stroke="black" stroke-width=".3" stroke-opacity="1.0"  filling="0" d="M12.230890274047852 11.380935668945312 L12.230890274047852 11.380935668945312 C12.276090621948242 11.386253356933594 12.321290016174316 11.391571998596191 12.366490364074707 11.396889686584473 L12.366490364074707 11.396889686584473 C12.221872329711914 11.526717185974121 12.077254295349121 11.65654468536377 11.932636260986328 11.786372184753418 L11.932636260986328 11.786372184753418 C12.28343391418457 12.107780456542969 12.247127532958984 12.414987564086914 11.740880966186523 12.473154067993164 L11.740880966186523 12.473154067993164 C12.069806098937988 12.282885551452637 12.20678997039795 12.147215843200684 11.894479751586914 11.874327659606934 L11.894479751586914 11.874327659606934 C11.96784496307373 11.719734191894531 12.079972267150879 11.581679344177246 12.207108497619629 11.467145919799805 L12.207108497619629 11.467145919799805 C11.936643600463867 11.606890678405762 11.810014724731445 11.797222137451172 11.588754653930664 11.898408889770508 L11.588754653930664 11.898408889770508 C11.647945404052734 11.782245635986328 11.707136154174805 11.666081428527832 11.766326904296875 11.549918174743652 L11.766326904296875 11.549918174743652 C11.713245391845703 11.578927040100098 11.660162925720215 11.60793685913086 11.607081413269043 11.636945724487305 L11.607081413269043 11.636945724487305 C11.58889389038086 11.373224258422852 12.054539680480957 11.409996032714844 12.230890274047852 11.380935668945312 L12.230890274047852 11.380935668945312"></path></svg>