<svg xmlns="http://www.w3.org/2000/svg" viewBox="0.0 0.0 24.0 24.0" height="200px" width="200px"><path fill="none" stroke="black" stroke-width=".3" stroke-opacity="1.0"  filling="0" d="M12.731290817260742 7.163454532623291 L12.731290817260742 7.163454532623291 C12.731290817260742 7.57334566116333 12.731290817260742 7.983236312866211 12.731290817260742 8.39312744140625 L12.731290817260742 8.39312744140625 C13.399523735046387 8.402327537536621 13.518085479736328 7.967656135559082 12.88090991973877 7.963609218597412 L12.88090991973877 7.963609218597412 C12.88090991973877 7.698681831359863 12.88090991973877 7.4337544441223145 12.88090991973877 7.168827056884766 L12.88090991973877 7.168827056884766 C14.474312782287598 7.362555503845215 14.007226943969727 9.129488945007324 12.612900733947754 9.162463188171387 C11.624898910522461 9.18582820892334 10.194168090820312 8.46668815612793 11.390400886535645 7.309771537780762 C11.652941703796387 7.055859565734863 12.399252891540527 7.188611030578613 12.731290817260742 7.163454532623291 L12.731290817260742 7.163454532623291"></path>
<path fill="none" stroke="black" stroke-width=".3" stroke-opacity="1.0"  filling="0" d="M12.239154815673828 7.963963508605957 L12.239154815673828 7.963963508605957 C12.239163398742676 8.109345436096191 12.23917293548584 8.254727363586426 12.239181518554688 8.40010929107666 L12.239181518554688 8.40010929107666 C11.587233543395996 8.400442123413086 11.433759689331055 7.967600345611572 12.239154815673828 7.963963508605957 L12.239154815673828 7.963963508605957"></path></svg>