<svg xmlns="http://www.w3.org/2000/svg" viewBox="0.0 0.0 24.0 24.0" height="200px" width="200px"><path fill="none" stroke="black" stroke-width=".3" stroke-opacity="1.0"  filling="0" d="M20.49976348876953 15.631500244140625 L20.49976348876953 15.631500244140625 C20.620119094848633 15.631500244140625 20.7404727935791 15.631500244140625 20.860828399658203 15.631500244140625 L20.860828399658203 15.631500244140625 C20.860828399658203 15.746536254882812 20.860828399658203 15.861573219299316 20.860828399658203 15.976609230041504 L20.860828399658203 15.976609230041504 C20.846118927001953 15.976400375366211 20.831411361694336 15.976191520690918 20.816701889038086 15.975982666015625 L20.816701889038086 15.975982666015625 C20.824111938476562 15.872818946838379 20.831520080566406 15.769655227661133 20.838930130004883 15.666491508483887 L20.838930130004883 15.666491508483887 C20.746665954589844 15.666491508483887 20.654401779174805 15.666491508483887 20.562137603759766 15.666491508483887 L20.562137603759766 15.666491508483887 C20.584657669067383 15.720775604248047 20.5899600982666 15.79337215423584 20.55809783935547 15.842754364013672 L20.55809783935547 15.842754364013672 C20.51957130432129 15.858908653259277 20.481046676635742 15.875061988830566 20.442520141601562 15.891216278076172 L20.442520141601562 15.891216278076172 C20.409318923950195 15.863389015197754 20.37611961364746 15.835562705993652 20.342918395996094 15.807735443115234 L20.342918395996094 15.807735443115234 C20.395200729370117 15.748990058898926 20.447481155395508 15.690245628356934 20.49976348876953 15.631500244140625 L20.49976348876953 15.631500244140625"></path></svg>