<svg xmlns="http://www.w3.org/2000/svg" viewBox="0.0 0.0 24.0 24.0" height="200px" width="200px"><path fill="none" stroke="black" stroke-width=".3" stroke-opacity="1.0"  filling="0" d="M12.408246040344238 9.941864013671875 L12.408246040344238 9.941864013671875 C12.942390441894531 9.950981140136719 13.476107597351074 9.951207160949707 14.00983715057373 9.96960163116455 L14.00983715057373 9.96960163116455 C14.00983715057373 10.251029014587402 14.00983715057373 10.532455444335938 14.00983715057373 10.813882827758789 L14.00983715057373 10.813882827758789 C13.608904838562012 10.942483901977539 11.831212997436523 10.453804969787598 11.808874130249023 11.00901985168457 C11.786905288696289 11.555044174194336 13.94590950012207 11.286883354187012 14.02311897277832 11.304792404174805 L14.02311897277832 11.304792404174805 C14.02311897277832 11.57504653930664 14.02311897277832 11.845301628112793 14.02311897277832 12.115555763244629 L14.02311897277832 12.115555763244629 C11.330175399780273 12.113179206848145 11.57204818725586 12.59958267211914 14.018292427062988 12.599946022033691 L14.018292427062988 12.599946022033691 C14.023056983947754 14.241350173950195 12.6826171875 13.445534706115723 11.1663818359375 13.44548225402832 L11.1663818359375 13.44548225402832 C11.167009353637695 13.151815414428711 11.060361862182617 12.821783065795898 11.203309059143066 12.565255165100098 L11.203309059143066 12.565255165100098 C11.285645484924316 12.565255165100098 11.367981910705566 12.565255165100098 11.450318336486816 12.565255165100098 L11.450318336486816 12.565255165100098 C11.288015365600586 12.199780464172363 11.26440715789795 11.717981338500977 11.453426361083984 11.365581512451172 L11.453426361083984 11.365581512451172 C10.696249961853027 10.38927173614502 11.520106315612793 9.970434188842773 12.408246040344238 9.941864013671875 L12.408246040344238 9.941864013671875"></path></svg>