<svg xmlns="http://www.w3.org/2000/svg" viewBox="0.0 0.0 24.0 24.0" height="200px" width="200px"><path fill="none" stroke="black" stroke-width=".3" stroke-opacity="1.0"  filling="0" d="M10.100263595581055 11.161417961120605 L10.100263595581055 11.161417961120605 C10.419319152832031 11.182429313659668 11.431020736694336 11.414549827575684 10.716981887817383 11.929281234741211 L10.716981887817383 11.929281234741211 C11.123817443847656 12.452898979187012 10.65511703491211 12.86202621459961 10.071409225463867 12.708600044250488 C9.739871978759766 12.621456146240234 9.954588890075684 11.497305870056152 9.954572677612305 11.185526847839355 L9.954572677612305 11.185526847839355 C10.00313663482666 11.177490234375 10.0516996383667 11.169454574584961 10.100263595581055 11.161417961120605 L10.100263595581055 11.161417961120605"></path>
<path fill="none" stroke="black" stroke-width=".3" stroke-opacity="1.0"  filling="0" d="M10.287436485290527 11.465373039245605 L10.287436485290527 11.465373039245605 C10.66462230682373 11.533183097839355 10.641507148742676 11.666640281677246 10.287463188171387 11.781436920166016 L10.287463188171387 11.781436920166016 C10.287454605102539 11.676082611083984 10.287445068359375 11.570727348327637 10.287436485290527 11.465373039245605 L10.287436485290527 11.465373039245605"></path>
<path fill="none" stroke="black" stroke-width=".3" stroke-opacity="1.0"  filling="0" d="M10.290218353271484 12.089371681213379 L10.290218353271484 12.089371681213379 C10.41468334197998 12.120734214782715 10.535942077636719 12.278883934020996 10.511073112487793 12.404808044433594 L10.511073112487793 12.404808044433594 C10.437455177307129 12.404808044433594 10.363836288452148 12.404808044433594 10.290218353271484 12.404808044433594 L10.290218353271484 12.404808044433594 C10.290218353271484 12.299662590026855 10.290218353271484 12.194517135620117 10.290218353271484 12.089371681213379 L10.290218353271484 12.089371681213379"></path></svg>