<svg xmlns="http://www.w3.org/2000/svg" viewBox="0.0 0.0 24.0 24.0" height="200px" width="200px"><path fill="none" stroke="black" stroke-width=".3" stroke-opacity="1.0"  filling="0" d="M9.531708717346191 9.346226692199707 L9.531708717346191 9.346226692199707 C10.940629005432129 9.389043807983398 12.410040855407715 9.47576904296875 13.813716888427734 9.347233772277832 L13.813716888427734 9.347233772277832 C13.827526092529297 9.61077880859375 13.841336250305176 9.874324798583984 13.855145454406738 10.137869834899902 L13.855145454406738 10.137869834899902 C13.80099105834961 10.142970085144043 13.746835708618164 10.148069381713867 13.692681312561035 10.153169631958008 L13.692681312561035 10.153169631958008 C14.471768379211426 11.831467628479004 10.911113739013672 12.173054695129395 11.238327026367188 10.141772270202637 L11.238327026367188 10.141772270202637 C10.669454574584961 10.141772270202637 10.100581169128418 10.141772270202637 9.531708717346191 10.141772270202637 L9.531708717346191 10.141772270202637 C9.531708717346191 9.876590728759766 9.531708717346191 9.611408233642578 9.531708717346191 9.346226692199707 L9.531708717346191 9.346226692199707"></path>
<path fill="none" stroke="black" stroke-width=".3" stroke-opacity="1.0"  filling="0" d="M12.33073616027832 10.171310424804688 L12.33073616027832 10.171310424804688 C12.644676208496094 10.172568321228027 13.952384948730469 10.4791259765625 12.901199340820312 10.647954940795898 L12.901199340820312 10.647954940795898 C12.900627136230469 10.644100189208984 12.900053977966309 10.64024543762207 12.899481773376465 10.636390686035156 L12.899481773376465 10.636390686035156 C12.254273414611816 10.636316299438477 11.000887870788574 10.244551658630371 12.33073616027832 10.171310424804688 L12.33073616027832 10.171310424804688"></path></svg>