<svg xmlns="http://www.w3.org/2000/svg" viewBox="0.0 0.0 24.0 24.0" height="200px" width="200px"><path fill="none" stroke="black" stroke-width=".3" stroke-opacity="1.0"  filling="0" d="M18.945192337036133 14.954753875732422 L18.945192337036133 14.954753875732422 C18.894798278808594 15.003141403198242 18.82977294921875 15.037405967712402 18.763282775878906 15.058853149414062 L18.763282775878906 15.058853149414062 C18.79018211364746 15.066426277160645 18.817081451416016 15.073999404907227 18.84398078918457 15.081572532653809 L18.84398078918457 15.081572532653809 C18.789762496948242 15.124326705932617 18.735546112060547 15.167081832885742 18.68132781982422 15.20983600616455 L18.68132781982422 15.20983600616455 C18.727909088134766 15.229154586791992 18.774490356445312 15.248472213745117 18.82107162475586 15.267790794372559 L18.82107162475586 15.267790794372559 C18.73625946044922 15.260547637939453 18.646093368530273 15.168102264404297 18.64483642578125 15.082990646362305 L18.64483642578125 15.082990646362305 C18.672727584838867 15.092126846313477 18.700618743896484 15.101263046264648 18.7285099029541 15.11039924621582 L18.7285099029541 15.11039924621582 C18.714073181152344 15.071999549865723 18.69963836669922 15.033598899841309 18.68520164489746 14.995199203491211 L18.68520164489746 14.995199203491211 C18.771865844726562 14.981717109680176 18.85852813720703 14.968235969543457 18.945192337036133 14.954753875732422 L18.945192337036133 14.954753875732422"></path></svg>