<svg xmlns="http://www.w3.org/2000/svg" viewBox="0.0 0.0 24.0 24.0" height="200px" width="200px"><path fill="none" stroke="black" stroke-width=".3" stroke-opacity="1.0"  filling="0" d="M16.445453643798828 0.1636362075805664 L16.445453643798828 0.1636362075805664 C17.92727279663086 0.1636362075805664 19.409090042114258 0.1636362075805664 20.89090919494629 0.1636362075805664 L20.89090919494629 0.1636362075805664 C20.969898223876953 1.429586410522461 20.87998390197754 2.6963632106781006 20.97100830078125 3.961117744445801 L20.97100830078125 3.961117744445801 C20.797727584838867 5.590861797332764 21.027286529541016 7.2968573570251465 21.02370262145996 8.93781852722168 L21.02370262145996 8.93781852722168 C19.95341682434082 8.99994945526123 18.88025665283203 8.938699722290039 17.80999183654785 8.957645416259766 C17.805072784423828 8.957732200622559 16.687950134277344 9.095788955688477 16.573444366455078 8.970626831054688 C16.45594596862793 8.842193603515625 16.525941848754883 7.58719539642334 16.525634765625 7.573281288146973 C16.495769500732422 6.217934608459473 16.433761596679688 4.8074951171875 16.499507904052734 3.4396629333496094 L16.499507904052734 3.4396629333496094 C16.484052658081055 3.4060630798339844 16.468599319458008 3.3724632263183594 16.453144073486328 3.3388633728027344 L16.453144073486328 3.3388633728027344 C16.547319412231445 2.3211941719055176 16.541723251342773 1.178426742553711 16.445453643798828 0.1636362075805664 L16.445453643798828 0.1636362075805664"></path></svg>