<svg xmlns="http://www.w3.org/2000/svg" viewBox="0.0 0.0 24.0 24.0" height="200px" width="200px"><path fill="none" stroke="black" stroke-width=".3" stroke-opacity="1.0"  filling="0" d="M12.52813720703125 11.734254837036133 L12.52813720703125 11.734254837036133 C12.620664596557617 11.752947807312012 12.705835342407227 11.864973068237305 12.700174331665039 11.959199905395508 L12.700174331665039 11.959199905395508 C12.651610374450684 11.92022705078125 12.603046417236328 11.881255149841309 12.554482460021973 11.84228229522705 L12.554482460021973 11.84228229522705 C12.554482460021973 11.885873794555664 12.554482460021973 11.929464340209961 12.554482460021973 11.973055839538574 L12.554482460021973 11.973055839538574 C12.744752883911133 12.207314491271973 12.858631134033203 12.428483009338379 12.471600532531738 12.435927391052246 L12.471600532531738 12.435927391052246 C12.471600532531738 12.359854698181152 12.471600532531738 12.283782005310059 12.471600532531738 12.207709312438965 L12.471600532531738 12.207709312438965 C12.524190902709961 12.263163566589355 12.5767822265625 12.318617820739746 12.629372596740723 12.374072074890137 L12.629372596740723 12.374072074890137 C12.604741096496582 12.15955638885498 12.566285133361816 11.946784019470215 12.52813720703125 11.734254837036133 L12.52813720703125 11.734254837036133"></path></svg>