<svg xmlns="http://www.w3.org/2000/svg" viewBox="0.0 0.0 24.0 24.0" height="200px" width="200px"><path fill="none" stroke="black" stroke-width=".3" stroke-opacity="1.0"  filling="0" d="M11.766464233398438 11.807018280029297 L11.766464233398438 11.807018280029297 C11.860018730163574 11.933063507080078 11.953573226928711 12.059109687805176 12.047127723693848 12.185154914855957 L12.047127723693848 12.185154914855957 C12.059845924377441 12.176881790161133 12.072564125061035 12.168608665466309 12.085282325744629 12.160335540771484 L12.085282325744629 12.160335540771484 C12.030155181884766 12.22021770477295 11.975027084350586 12.280099868774414 11.919899940490723 12.339982032775879 L11.919899940490723 12.339982032775879 C11.867127418518066 12.333373069763184 11.814355850219727 12.326764106750488 11.76158332824707 12.320155143737793 L11.76158332824707 12.320155143737793 C11.770892143249512 12.205745697021484 11.780200958251953 12.091336250305176 11.789509773254395 11.976926803588867 L11.789509773254395 11.976926803588867 C11.744527816772461 11.961653709411621 11.699545860290527 11.946381568908691 11.654563903808594 11.931108474731445 L11.654563903808594 11.931108474731445 C11.691864013671875 11.889744758605957 11.729164123535156 11.848381996154785 11.766464233398438 11.807018280029297 L11.766464233398438 11.807018280029297"></path>
<path fill="none" stroke="black" stroke-width=".3" stroke-opacity="1.0"  filling="0" d="M11.9409818649292 12.091363906860352 L11.9409818649292 12.091363906860352 C11.92457103729248 12.41308879852295 11.539267539978027 12.1279878616333 11.9409818649292 12.091363906860352 L11.9409818649292 12.091363906860352"></path></svg>