<svg xmlns="http://www.w3.org/2000/svg" viewBox="0.0 0.0 24.0 24.0" height="200px" width="200px"><path fill="none" stroke="black" stroke-width=".3" stroke-opacity="1.0"  filling="0" d="M11.270045280456543 11.433464050292969 L11.270045280456543 11.433464050292969 C11.324317932128906 11.433464050292969 11.37859058380127 11.433464050292969 11.432863235473633 11.433464050292969 L11.432863235473633 11.433464050292969 C11.432863235473633 11.516918182373047 11.432863235473633 11.600373268127441 11.432863235473633 11.68382740020752 L11.432863235473633 11.68382740020752 C11.425917625427246 11.684609413146973 11.41897201538086 11.68539047241211 11.412026405334473 11.686172485351562 L11.412026405334473 11.686172485351562 C11.383808135986328 11.63674545288086 11.3555908203125 11.587318420410156 11.327372550964355 11.537891387939453 L11.327372550964355 11.537891387939453 C11.316449165344238 11.934370994567871 11.610466957092285 12.045807838439941 11.220626831054688 12.294981956481934 L11.220626831054688 12.294981956481934 C11.209561347961426 12.219217300415039 11.195353507995605 12.14384651184082 11.178109169006348 12.069245338439941 L11.178109169006348 12.069245338439941 C11.191636085510254 12.060945510864258 11.205163955688477 12.052644729614258 11.218690872192383 12.044344902038574 L11.218690872192383 12.044344902038574 C11.25239086151123 12.083353996276855 11.286090850830078 12.122364044189453 11.319790840148926 12.161373138427734 L11.319790840148926 12.161373138427734 C11.41254997253418 12.01242446899414 11.282963752746582 11.57679557800293 11.270045280456543 11.433464050292969 L11.270045280456543 11.433464050292969"></path></svg>