<svg xmlns="http://www.w3.org/2000/svg" viewBox="0.0 0.0 24.0 24.0" height="200px" width="200px"><path fill="none" stroke="black" stroke-width=".3" stroke-opacity="1.0"  filling="0" d="M11.451601028442383 12.531082153320312 L11.451601028442383 12.531082153320312 C11.507216453552246 12.583536148071289 11.57365894317627 12.626959800720215 11.645072937011719 12.65424633026123 L11.645072937011719 12.65424633026123 C11.617937088012695 12.69070053100586 11.590800285339355 12.727155685424805 11.563664436340332 12.763609886169434 L11.563664436340332 12.763609886169434 C11.545482635498047 12.763609886169434 11.527300834655762 12.763609886169434 11.509119033813477 12.763609886169434 L11.509119033813477 12.763609886169434 C11.449992179870605 12.700963973999023 11.390864372253418 12.63831901550293 11.331737518310547 12.57567310333252 L11.331737518310547 12.57567310333252 C11.318455696105957 12.604009628295898 11.305173873901367 12.632346153259277 11.291892051696777 12.660682678222656 L11.291892051696777 12.660682678222656 C11.318846702575684 12.694992065429688 11.345800399780273 12.729300498962402 11.37275505065918 12.763609886169434 L11.37275505065918 12.763609886169434 C11.28183650970459 12.763618469238281 11.190918922424316 12.763628005981445 11.100000381469727 12.763636589050293 L11.100000381469727 12.763636589050293 C11.241328239440918 12.61249828338623 11.238716125488281 12.589930534362793 11.451601028442383 12.531082153320312 L11.451601028442383 12.531082153320312"></path></svg>