<svg xmlns="http://www.w3.org/2000/svg" viewBox="0.0 0.0 24.0 24.0" height="200px" width="200px"><path fill="none" stroke="black" stroke-width=".3" stroke-opacity="1.0"  filling="0" d="M11.571682929992676 11.568655014038086 L11.571682929992676 11.568655014038086 C11.665382385253906 11.63298225402832 11.759082794189453 11.697309494018555 11.852782249450684 11.761636734008789 L11.852782249450684 11.761636734008789 C11.796690940856934 11.830073356628418 11.7406005859375 11.89850902557373 11.68450927734375 11.96694564819336 L11.68450927734375 11.96694564819336 C11.572579383850098 11.930676460266113 11.4652681350708 11.874618530273438 11.371909141540527 11.803009986877441 L11.371909141540527 11.803009986877441 C11.382818222045898 11.77841854095459 11.393728256225586 11.753827095031738 11.404637336730957 11.729235649108887 L11.404637336730957 11.729235649108887 C11.482637405395508 11.79719066619873 11.560636520385742 11.865144729614258 11.638636589050293 11.933099746704102 L11.638636589050293 11.933099746704102 C11.680144309997559 11.838499069213867 11.582688331604004 11.718366622924805 11.500636100769043 11.655599594116211 L11.500636100769043 11.655599594116211 C11.52431869506836 11.626618385314941 11.54800033569336 11.597636222839355 11.571682929992676 11.568655014038086 L11.571682929992676 11.568655014038086"></path></svg>