<svg xmlns="http://www.w3.org/2000/svg" viewBox="0.0 0.0 24.0 24.0" height="200px" width="200px"><path fill="none" stroke="black" stroke-width=".3" stroke-opacity="1.0"  filling="0" d="M12.10647201538086 11.655109405517578 L12.10647201538086 11.655109405517578 C12.221565246582031 11.865270614624023 12.264168739318848 12.088174819946289 12.269072532653809 12.332453727722168 L12.269072532653809 12.332453727722168 C12.205081939697266 12.324172019958496 12.141090393066406 12.315889358520508 12.077099800109863 12.307607650756836 L12.077099800109863 12.307607650756836 C12.081727027893066 12.130453109741211 12.08635425567627 11.953298568725586 12.090981483459473 11.776144027709961 L12.090981483459473 11.776144027709961 C12.010634422302246 11.934707641601562 11.987959861755371 12.126571655273438 12.00899887084961 12.303080558776855 L12.00899887084961 12.303080558776855 C11.951144218444824 12.300543785095215 11.893290519714355 12.29800796508789 11.83543586730957 12.29547119140625 L11.83543586730957 12.29547119140625 C11.835644721984863 12.098453521728516 11.835854530334473 11.901434898376465 11.836063385009766 11.70441722869873 L11.836063385009766 11.70441722869873 C11.926199913024902 11.687981605529785 12.016335487365723 11.671545028686523 12.10647201538086 11.655109405517578 L12.10647201538086 11.655109405517578"></path></svg>