<svg xmlns="http://www.w3.org/2000/svg" viewBox="0.0 0.0 24.0 24.0" height="200px" width="200px"><path fill="none" stroke="black" stroke-width=".3" stroke-opacity="1.0"  filling="0" d="M12.388334274291992 11.6232271194458 L12.388334274291992 11.6232271194458 C12.47079849243164 11.637481689453125 12.553261756896973 11.65173625946045 12.635725975036621 11.665990829467773 L12.635725975036621 11.665990829467773 C12.647512435913086 11.866169929504395 12.662391662597656 12.066239356994629 12.682854652404785 12.265718460083008 L12.682854652404785 12.265718460083008 C12.587654113769531 12.277063369750977 12.492454528808594 12.288409233093262 12.39725399017334 12.29975414276123 L12.39725399017334 12.29975414276123 C12.331329345703125 12.00277042388916 12.463764190673828 12.009315490722656 12.479889869689941 11.717345237731934 L12.479889869689941 11.717345237731934 C12.459534645080566 11.763318061828613 12.439180374145508 11.809290885925293 12.418825149536133 11.855263710021973 L12.418825149536133 11.855263710021973 C12.408661842346191 11.777917861938477 12.398497581481934 11.700572967529297 12.388334274291992 11.6232271194458 L12.388334274291992 11.6232271194458"></path>
<path fill="none" stroke="black" stroke-width=".3" stroke-opacity="1.0"  filling="0" d="M12.568281173706055 12.036327362060547 L12.568281173706055 12.036327362060547 C12.529871940612793 12.085890769958496 12.491463661193848 12.135455131530762 12.453054428100586 12.185018539428711 L12.453054428100586 12.185018539428711 C12.491463661193848 12.135455131530762 12.529871940612793 12.085890769958496 12.568281173706055 12.036327362060547 L12.568281173706055 12.036327362060547"></path></svg>