<svg xmlns="http://www.w3.org/2000/svg" viewBox="0.0 0.0 24.0 24.0" height="200px" width="200px"><path fill="none" stroke="black" stroke-width=".3" stroke-opacity="1.0"  filling="0" d="M12.405218124389648 11.377062797546387 L12.405218124389648 11.377062797546387 C12.451736450195312 11.388553619384766 12.49825382232666 11.400045394897461 12.544772148132324 11.41153621673584 L12.544772148132324 11.41153621673584 C12.513163566589355 11.43539047241211 12.48155403137207 11.459245681762695 12.449945449829102 11.483099937438965 L12.449945449829102 11.483099937438965 C12.465381622314453 11.529399871826172 12.480818748474121 11.575699806213379 12.496254920959473 11.621999740600586 L12.496254920959473 11.621999740600586 C12.047715187072754 11.670884132385254 12.02121353149414 11.454419136047363 11.694354057312012 11.539962768554688 L11.694354057312012 11.539962768554688 C11.746536254882812 11.564417839050293 11.798717498779297 11.588871955871582 11.850899696350098 11.613327026367188 L11.850899696350098 11.613327026367188 C11.851317405700684 11.622663497924805 11.851736068725586 11.631999969482422 11.852153778076172 11.641336441040039 L11.852153778076172 11.641336441040039 C11.220878601074219 11.776006698608398 12.045204162597656 11.41632080078125 12.405218124389648 11.377062797546387 L12.405218124389648 11.377062797546387"></path>
<path fill="none" stroke="black" stroke-width=".3" stroke-opacity="1.0"  filling="0" d="M12.082172393798828 11.549700736999512 L12.082172393798828 11.549700736999512 C12.166109085083008 11.554737091064453 12.250044822692871 11.559772491455078 12.33398151397705 11.56480884552002 L12.33398151397705 11.56480884552002 C12.250044822692871 11.559772491455078 12.166109085083008 11.554737091064453 12.082172393798828 11.549700736999512 L12.082172393798828 11.549700736999512"></path></svg>