<svg xmlns="http://www.w3.org/2000/svg" viewBox="0.0 0.0 24.0 24.0" height="200px" width="200px"><path fill="none" stroke="black" stroke-width=".3" stroke-opacity="1.0"  filling="0" d="M12.710372924804688 10.418399810791016 L12.710372924804688 10.418399810791016 C12.549452781677246 11.078563690185547 12.12589168548584 11.89244556427002 12.236946105957031 12.569372177124023 L12.236946105957031 12.569372177124023 C12.334810256958008 12.49583625793457 12.432673454284668 12.4222993850708 12.530537605285645 12.348763465881348 L12.530537605285645 12.348763465881348 C12.14981460571289 12.645103454589844 12.11597728729248 12.852188110351562 11.9332914352417 12.439881324768066 L11.9332914352417 12.439881324768066 C11.057729721069336 13.256857872009277 10.706972122192383 11.080338478088379 12.155728340148926 11.528646469116211 L12.155728340148926 11.528646469116211 C12.247991561889648 11.187164306640625 12.340254783630371 10.845682144165039 12.432518005371094 10.504199981689453 L12.432518005371094 10.504199981689453 C12.372763633728027 10.501072883605957 12.313009262084961 10.497944831848145 12.253254890441895 10.494817733764648 L12.253254890441895 10.494817733764648 C12.379778861999512 10.406172752380371 12.555890083312988 10.419585227966309 12.710372924804688 10.418399810791016 L12.710372924804688 10.418399810791016"></path>
<path fill="none" stroke="black" stroke-width=".3" stroke-opacity="1.0"  filling="0" d="M12.00128173828125 11.434118270874023 L12.00128173828125 11.434118270874023 C12.30978012084961 13.40254020690918 10.540380477905273 11.987142562866211 12.00128173828125 11.434118270874023 L12.00128173828125 11.434118270874023"></path></svg>