<svg xmlns="http://www.w3.org/2000/svg" viewBox="0.0 0.0 24.0 24.0" height="200px" width="200px"><path fill="none" stroke="black" stroke-width=".3" stroke-opacity="1.0"  filling="0" d="M11.457818031311035 14.015235900878906 L11.457818031311035 14.015235900878906 C11.702970504760742 14.043516159057617 11.993912696838379 14.060234069824219 12.163309097290039 14.239689826965332 L12.163309097290039 14.239689826965332 C12.223618507385254 14.196889877319336 12.283926963806152 14.15408992767334 12.344236373901367 14.111289978027344 L12.344236373901367 14.111289978027344 C12.32040023803711 14.216608047485352 12.296563148498535 14.32192611694336 12.272727012634277 14.427244186401367 L12.272727012634277 14.427244186401367 C12.227272987365723 14.427253723144531 12.181818008422852 14.427263259887695 12.136363983154297 14.42727279663086 L12.136363983154297 14.42727279663086 C11.887824058532715 14.228608131408691 11.427103042602539 14.224602699279785 11.181818008422852 14.42727279663086 L11.181818008422852 14.42727279663086 C11.127272605895996 14.42727279663086 11.07272720336914 14.42727279663086 11.018181800842285 14.42727279663086 L11.018181800842285 14.42727279663086 C11.164727210998535 14.28992748260498 11.311272621154785 14.152581214904785 11.457818031311035 14.015235900878906 L11.457818031311035 14.015235900878906"></path></svg>