<svg xmlns="http://www.w3.org/2000/svg" viewBox="0.0 0.0 24.0 24.0" height="200px" width="200px"><path fill="none" stroke="black" stroke-width=".3" stroke-opacity="1.0"  filling="0" d="M12.575508117675781 11.410881042480469 L12.575508117675781 11.410881042480469 C12.753517150878906 11.623286247253418 12.865015983581543 12.007737159729004 12.668181419372559 12.257890701293945 L12.668181419372559 12.257890701293945 C12.6690034866333 12.09335994720459 12.726113319396973 11.674531936645508 12.605892181396484 11.563199043273926 L12.605892181396484 11.563199043273926 C12.596073150634766 11.771480560302734 12.586255073547363 11.97976303100586 12.576436042785645 12.188044548034668 L12.576436042785645 12.188044548034668 C12.522771835327148 12.202399253845215 12.469108581542969 12.216754913330078 12.415444374084473 12.231109619140625 L12.415444374084473 12.231109619140625 C12.40195369720459 12.001218795776367 12.388463020324707 11.77132797241211 12.374972343444824 11.541437149047852 L12.374972343444824 11.541437149047852 C12.23514175415039 11.777987480163574 12.354578971862793 11.999032020568848 12.19401741027832 12.236045837402344 L12.19401741027832 12.236045837402344 C12.186171531677246 11.991555213928223 12.178326606750488 11.747063636779785 12.170480728149414 11.502573013305664 L12.170480728149414 11.502573013305664 C12.245779037475586 11.304362297058105 12.41964340209961 11.444681167602539 12.493608474731445 11.50480842590332 L12.493608474731445 11.50480842590332 C12.52090835571289 11.473499298095703 12.548208236694336 11.442190170288086 12.575508117675781 11.410881042480469 L12.575508117675781 11.410881042480469"></path></svg>