<svg xmlns="http://www.w3.org/2000/svg" viewBox="0.0 0.0 24.0 24.0" height="200px" width="200px"><path fill="none" stroke="black" stroke-width=".3" stroke-opacity="1.0"  filling="0" d="M11.39719009399414 11.343708992004395 L11.39719009399414 11.343708992004395 C11.419108390808105 11.482609748840332 11.462165832519531 11.619863510131836 11.524580001831055 11.745872497558594 L11.524580001831055 11.745872497558594 C11.371073722839355 11.827333450317383 11.433601379394531 12.085179328918457 11.432126998901367 12.258955001831055 L11.432126998901367 12.258955001831055 C11.443854331970215 12.258672714233398 11.455581665039062 12.258391380310059 11.46730899810791 12.258109092712402 L11.46730899810791 12.258109092712402 C11.483818054199219 12.223954200744629 11.500327110290527 12.189800262451172 11.516836166381836 12.155645370483398 L11.516836166381836 12.155645370483398 C11.500018119812012 12.258217811584473 11.483199119567871 12.360791206359863 11.466381072998047 12.463363647460938 L11.466381072998047 12.463363647460938 C11.438626289367676 12.451672554016113 11.410872459411621 12.439981460571289 11.38311767578125 12.428290367126465 L11.38311767578125 12.428290367126465 C11.35619068145752 12.192063331604004 11.329262733459473 11.955836296081543 11.302335739135742 11.719609260559082 L11.302335739135742 11.719609260559082 C11.333953857421875 11.594308853149414 11.365571975708008 11.469009399414062 11.39719009399414 11.343708992004395 L11.39719009399414 11.343708992004395"></path></svg>