<svg xmlns="http://www.w3.org/2000/svg" viewBox="0.0 0.0 24.0 24.0" height="200px" width="200px"><path fill="none" stroke="black" stroke-width=".3" stroke-opacity="1.0"  filling="0" d="M11.871026992797852 11.912562370300293 L11.871026992797852 11.912562370300293 C11.96154499053955 12.001879692077637 12.057452201843262 12.085845947265625 12.156190872192383 12.165982246398926 L12.156190872192383 12.165982246398926 C12.05483627319336 12.227890968322754 11.953481674194336 12.289800643920898 11.852127075195312 12.351709365844727 L11.852127075195312 12.351709365844727 C11.783342361450195 12.24642562866211 11.770230293273926 12.09152889251709 11.819536209106445 11.975835800170898 L11.819536209106445 11.975835800170898 C11.783708572387695 11.969481468200684 11.747881889343262 11.963126182556152 11.712054252624512 11.956771850585938 L11.712054252624512 11.956771850585938 C11.765045166015625 11.942035675048828 11.818036079406738 11.927298545837402 11.871026992797852 11.912562370300293 L11.871026992797852 11.912562370300293"></path>
<path fill="none" stroke="black" stroke-width=".3" stroke-opacity="1.0"  filling="0" d="M11.846536636352539 12.096273422241211 L11.846536636352539 12.096273422241211 C11.918559074401855 12.107769012451172 11.983418464660645 12.19336223602295 11.98426342010498 12.266291618347168 L11.98426342010498 12.266291618347168 C11.91672134399414 12.23876953125 11.825896263122559 12.166226387023926 11.846536636352539 12.096273422241211 L11.846536636352539 12.096273422241211"></path></svg>