<svg xmlns="http://www.w3.org/2000/svg" viewBox="0.0 0.0 24.0 24.0" height="200px" width="200px"><path fill="none" stroke="black" stroke-width=".3" stroke-opacity="1.0"  filling="0" d="M11.697381973266602 12.282381057739258 L11.697381973266602 12.282381057739258 C11.74461841583252 12.310272216796875 11.791854858398438 12.338162422180176 11.839091300964355 12.366053581237793 L11.839091300964355 12.366053581237793 C11.80181884765625 12.398581504821777 11.764545440673828 12.431108474731445 11.727272987365723 12.46363639831543 L11.727272987365723 12.46363639831543 C11.654545783996582 12.46363639831543 11.581817626953125 12.46363639831543 11.509090423583984 12.46363639831543 L11.509090423583984 12.46363639831543 C11.509090423583984 12.437999725341797 11.509090423583984 12.41236400604248 11.509090423583984 12.386727333068848 L11.509090423583984 12.386727333068848 C11.483454704284668 12.401726722717285 11.457818031311035 12.416727066040039 11.432182312011719 12.431726455688477 L11.432182312011719 12.431726455688477 C11.412564277648926 12.398526191711426 11.392945289611816 12.365326881408691 11.373327255249023 12.33212661743164 L11.373327255249023 12.33212661743164 C11.481345176696777 12.315545082092285 11.589364051818848 12.298962593078613 11.697381973266602 12.282381057739258 L11.697381973266602 12.282381057739258"></path></svg>