<svg xmlns="http://www.w3.org/2000/svg" viewBox="0.0 0.0 24.0 24.0" height="200px" width="200px"><path fill="none" stroke="black" stroke-width=".3" stroke-opacity="1.0"  filling="0" d="M11.972563743591309 11.929283142089844 L11.972563743591309 11.929283142089844 C12.017118453979492 11.975837707519531 12.06167221069336 12.022391319274902 12.106226921081543 12.06894588470459 L12.106226921081543 12.06894588470459 C11.815706253051758 12.4014253616333 11.604076385498047 12.181971549987793 11.972563743591309 11.929283142089844 L11.972563743591309 11.929283142089844"></path>
<path fill="none" stroke="black" stroke-width=".3" stroke-opacity="1.0"  filling="0" d="M11.989663124084473 12.02664566040039 L11.989663124084473 12.02664566040039 C12.000924110412598 12.091119766235352 11.934539794921875 12.179717063903809 11.869117736816406 12.181636810302734 L11.869117736816406 12.181636810302734 C11.909299850463867 12.129973411560059 11.949481010437012 12.078309059143066 11.989663124084473 12.02664566040039 L11.989663124084473 12.02664566040039"></path>
<path fill="none" stroke="black" stroke-width=".3" stroke-opacity="1.0"  filling="0" d="M11.911664009094238 12.036735534667969 L11.911664009094238 12.036735534667969 C11.888509750366211 12.07089900970459 11.865354537963867 12.105063438415527 11.84220027923584 12.139226913452148 L11.84220027923584 12.139226913452148 C11.815509796142578 12.120162963867188 11.788818359375 12.101099967956543 11.762127876281738 12.082036018371582 L11.762127876281738 12.082036018371582 C11.811973571777344 12.066935539245605 11.861818313598633 12.051836013793945 11.911664009094238 12.036735534667969 L11.911664009094238 12.036735534667969"></path></svg>