<svg xmlns="http://www.w3.org/2000/svg" viewBox="0.0 0.0 24.0 24.0" height="200px" width="200px"><path fill="none" stroke="black" stroke-width=".3" stroke-opacity="1.0"  filling="0" d="M11.865326881408691 11.839309692382812 L11.865326881408691 11.839309692382812 C11.89169979095459 11.901700973510742 11.918072700500488 11.964091300964355 11.944445610046387 12.026482582092285 L11.944445610046387 12.026482582092285 C11.914190292358398 12.081409454345703 11.883935928344727 12.136336326599121 11.853680610656738 12.191263198852539 L11.853680610656738 12.191263198852539 C12.155815124511719 12.001431465148926 12.180997848510742 12.159735679626465 11.928135871887207 12.381954193115234 L11.928135871887207 12.381954193115234 C11.818238258361816 12.236767768859863 11.756448745727539 11.985261917114258 11.865326881408691 11.839309692382812 L11.865326881408691 11.839309692382812"></path>
<path fill="none" stroke="black" stroke-width=".3" stroke-opacity="1.0"  filling="0" d="M11.765727996826172 12.012598991394043 L11.765727996826172 12.012598991394043 C11.807900428771973 12.01512622833252 11.850072860717773 12.017654418945312 11.892245292663574 12.020181655883789 L11.892245292663574 12.020181655883789 C11.85966968536377 12.04708480834961 11.779644966125488 12.052489280700684 11.765727996826172 12.012598991394043 L11.765727996826172 12.012598991394043"></path>
<path fill="none" stroke="black" stroke-width=".3" stroke-opacity="1.0"  filling="0" d="M12.042109489440918 12.127908706665039 L12.042109489440918 12.127908706665039 C12.054354667663574 12.136072158813477 12.06659984588623 12.14423656463623 12.078845024108887 12.152400016784668 L12.078845024108887 12.152400016784668 C12.032963752746582 12.194082260131836 11.987081527709961 12.235763549804688 11.941200256347656 12.277445793151855 L11.941200256347656 12.277445793151855 C11.974836349487305 12.22760009765625 12.00847339630127 12.177754402160645 12.042109489440918 12.127908706665039 L12.042109489440918 12.127908706665039"></path></svg>