<svg xmlns="http://www.w3.org/2000/svg" viewBox="0.0 0.0 24.0 24.0" height="200px" width="200px"><path fill="none" stroke="black" stroke-width=".3" stroke-opacity="1.0"  filling="0" d="M12.373990058898926 11.513863563537598 L12.373990058898926 11.513863563537598 C12.585832595825195 11.769814491271973 12.651740074157715 11.883119583129883 12.343554496765137 12.06460952758789 L12.343554496765137 12.06460952758789 C12.357917785644531 12.138800621032715 12.372282028198242 12.212990760803223 12.386645317077637 12.287181854248047 L12.386645317077637 12.287181854248047 C12.43387222290039 12.26464557647705 12.481099128723145 12.242109298706055 12.528326034545898 12.219573020935059 L12.528326034545898 12.219573020935059 C12.506453514099121 12.29776382446289 12.484580993652344 12.375954627990723 12.462708473205566 12.454145431518555 L12.462708473205566 12.454145431518555 C12.177102088928223 12.184080123901367 12.2138671875 11.854084968566895 12.373990058898926 11.513863563537598 L12.373990058898926 11.513863563537598"></path>
<path fill="none" stroke="black" stroke-width=".3" stroke-opacity="1.0"  filling="0" d="M12.452045440673828 11.643354415893555 L12.452045440673828 11.643354415893555 C12.45701789855957 11.72215461730957 12.461990356445312 11.800954818725586 12.466962814331055 11.879755020141602 L12.466962814331055 11.879755020141602 C12.429872512817383 11.883790969848633 12.392781257629395 11.88782787322998 12.355690956115723 11.891863822937012 L12.355690956115723 11.891863822937012 C12.387808799743652 11.809027671813965 12.419927597045898 11.726190567016602 12.452045440673828 11.643354415893555 L12.452045440673828 11.643354415893555"></path></svg>