<svg xmlns="http://www.w3.org/2000/svg" viewBox="0.0 0.0 24.0 24.0" height="200px" width="200px"><path fill="none" stroke="black" stroke-width=".3" stroke-opacity="1.0"  filling="0" d="M11.566854476928711 11.63080883026123 L11.566854476928711 11.63080883026123 C11.58287239074707 11.890935897827148 11.598891258239746 12.151063919067383 11.614909172058105 12.4111909866333 L11.614909172058105 12.4111909866333 C11.532054901123047 12.428472518920898 11.449199676513672 12.445754051208496 11.366345405578613 12.463035583496094 L11.366345405578613 12.463035583496094 C11.37137222290039 12.292826652526855 11.376399993896484 12.122618675231934 11.381426811218262 11.952409744262695 L11.381426811218262 11.952409744262695 C11.423890113830566 11.947455406188965 11.466354370117188 11.942500114440918 11.508817672729492 11.937545776367188 L11.508817672729492 11.937545776367188 C11.477890014648438 11.84918212890625 11.4469633102417 11.760818481445312 11.416035652160645 11.672454833984375 L11.416035652160645 11.672454833984375 C11.401163101196289 11.740945816040039 11.386290550231934 11.809436798095703 11.371417999267578 11.877927780151367 L11.371417999267578 11.877927780151367 C11.36026382446289 11.877581596374512 11.349108695983887 11.877236366271973 11.3379545211792 11.876890182495117 L11.3379545211792 11.876890182495117 C11.32945442199707 11.801326751708984 11.320955276489258 11.725763320922852 11.312455177307129 11.650199890136719 L11.312455177307129 11.650199890136719 C11.397254943847656 11.643735885620117 11.482054710388184 11.637272834777832 11.566854476928711 11.63080883026123 L11.566854476928711 11.63080883026123"></path>
<path fill="none" stroke="black" stroke-width=".3" stroke-opacity="1.0"  filling="0" d="M11.44112777709961 12.084490776062012 L11.44112777709961 12.084490776062012 C11.473404884338379 12.146991729736328 11.461812973022461 12.246865272521973 11.408727645874023 12.293018341064453 L11.408727645874023 12.293018341064453 C11.419528007507324 12.223508834838867 11.430327415466309 12.154000282287598 11.44112777709961 12.084490776062012 L11.44112777709961 12.084490776062012"></path></svg>