<svg xmlns="http://www.w3.org/2000/svg" viewBox="0.0 0.0 24.0 24.0" height="200px" width="200px"><path fill="none" stroke="black" stroke-width=".3" stroke-opacity="1.0"  filling="0" d="M13.689872741699219 14.38240909576416 L13.689872741699219 14.38240909576416 C13.743391036987305 14.38240909576416 13.796908378601074 14.38240909576416 13.85042667388916 14.38240909576416 L13.85042667388916 14.38240909576416 C13.818325996398926 14.633927345275879 13.786226272583008 14.885445594787598 13.754125595092773 15.136963844299316 L13.754125595092773 15.136963844299316 C13.695589065551758 15.149036407470703 13.637053489685059 15.16110897064209 13.578516960144043 15.173181533813477 L13.578516960144043 15.173181533813477 C13.590426445007324 15.09130859375 13.602334976196289 15.009435653686523 13.61424446105957 14.927562713623047 L13.61424446105957 14.927562713623047 C12.107054710388184 14.548781394958496 10.195839881896973 14.850363731384277 8.645425796508789 14.781816482543945 L8.645425796508789 14.781816482543945 C8.645435333251953 14.67272663116455 8.645444869995117 14.56363582611084 8.645454406738281 14.454545974731445 L8.645454406738281 14.454545974731445 C9.813969612121582 14.590609550476074 11.087178230285645 14.510865211486816 12.268145561218262 14.536909103393555 C12.311491012573242 14.537864685058594 13.6831636428833 14.767757415771484 13.689872741699219 14.38240909576416 L13.689872741699219 14.38240909576416"></path></svg>