<svg xmlns="http://www.w3.org/2000/svg" viewBox="0.0 0.0 24.0 24.0" height="200px" width="200px"><path fill="none" stroke="black" stroke-width=".3" stroke-opacity="1.0"  filling="0" d="M12.111518859863281 12.273764610290527 L12.111518859863281 12.273764610290527 C12.1517915725708 12.282401084899902 12.19206428527832 12.291036605834961 12.23233699798584 12.299673080444336 L12.23233699798584 12.299673080444336 C12.268155097961426 12.380264282226562 12.303973197937012 12.460855484008789 12.339791297912598 12.541446685791016 L12.339791297912598 12.541446685791016 C12.350764274597168 12.512991905212402 12.361736297607422 12.484538078308105 12.372709274291992 12.456083297729492 L12.372709274291992 12.456083297729492 C12.37574577331543 12.504055976867676 12.378782272338867 12.55202865600586 12.381818771362305 12.600001335144043 L12.381818771362305 12.600001335144043 C12.354545593261719 12.600001335144043 12.327272415161133 12.600000381469727 12.299999237060547 12.600000381469727 L12.299999237060547 12.600000381469727 C12.229472160339355 12.53896427154541 12.15894603729248 12.477927207946777 12.088418960571289 12.416891098022461 L12.088418960571289 12.416891098022461 C12.10065746307373 12.370140075683594 12.108675956726074 12.322007179260254 12.111518859863281 12.273764610290527 L12.111518859863281 12.273764610290527"></path></svg>