<svg xmlns="http://www.w3.org/2000/svg" viewBox="0.0 0.0 24.0 24.0" height="200px" width="200px"><path fill="none" stroke="black" stroke-width=".3" stroke-opacity="1.0"  filling="0" d="M12.248672485351562 11.895326614379883 L12.248672485351562 11.895326614379883 C12.30545425415039 11.925053596496582 12.362236976623535 11.954781532287598 12.419018745422363 11.984508514404297 L12.419018745422363 11.984508514404297 C12.397254943847656 12.01655387878418 12.37549114227295 12.048599243164062 12.353727340698242 12.080644607543945 L12.353727340698242 12.080644607543945 C12.371336936950684 12.108808517456055 12.388945579528809 12.136971473693848 12.40655517578125 12.165135383605957 L12.40655517578125 12.165135383605957 C12.002434730529785 12.340285301208496 11.695579528808594 12.318453788757324 11.525073051452637 11.940217018127441 L11.525073051452637 11.940217018127441 C11.748427391052246 11.952808380126953 11.971781730651855 11.965398788452148 12.195136070251465 11.97799015045166 L12.195136070251465 11.97799015045166 C12.212981224060059 11.950435638427734 12.230827331542969 11.922881126403809 12.248672485351562 11.895326614379883 L12.248672485351562 11.895326614379883"></path>
<path fill="none" stroke="black" stroke-width=".3" stroke-opacity="1.0"  filling="0" d="M11.695609092712402 12.02970027923584 L11.695609092712402 12.02970027923584 C11.874781608581543 12.06281852722168 12.053955078125 12.095935821533203 12.23312759399414 12.129054069519043 L12.23312759399414 12.129054069519043 C12.02681827545166 12.109835624694824 11.820509910583496 12.090617179870605 11.614200592041016 12.071398735046387 L11.614200592041016 12.071398735046387 C11.641336441040039 12.057498931884766 11.668473243713379 12.043600082397461 11.695609092712402 12.02970027923584 L11.695609092712402 12.02970027923584"></path></svg>