<svg xmlns="http://www.w3.org/2000/svg" viewBox="0.0 0.0 24.0 24.0" height="200px" width="200px"><path fill="none" stroke="black" stroke-width=".3" stroke-opacity="1.0"  filling="0" d="M11.854363441467285 12.885871887207031 L11.854363441467285 12.885871887207031 C11.940444946289062 12.906026840209961 12.026527404785156 12.92618179321289 12.112608909606934 12.94633674621582 L12.112608909606934 12.94633674621582 C12.084163665771484 12.976346015930176 12.055718421936035 13.006354331970215 12.027273178100586 13.03636360168457 L12.027273178100586 13.03636360168457 C11.834859848022461 13.03636360168457 11.644043922424316 12.997701644897461 11.454545021057129 12.964337348937988 L11.454545021057129 12.964337348937988 C11.454545021057129 12.988346099853516 11.454545021057129 13.012354850769043 11.454545021057129 13.03636360168457 L11.454545021057129 13.03636360168457 C11.409090995788574 13.03636360168457 11.363636016845703 13.03636360168457 11.318181991577148 13.03636360168457 L11.318181991577148 13.03636360168457 C11.491338729858398 12.83275318145752 11.701570510864258 12.94646167755127 11.94537353515625 12.948272705078125 L11.94537353515625 12.948272705078125 C11.915037155151367 12.927472114562988 11.884699821472168 12.906672477722168 11.854363441467285 12.885871887207031 L11.854363441467285 12.885871887207031"></path></svg>