<svg xmlns="http://www.w3.org/2000/svg" viewBox="0.0 0.0 24.0 24.0" height="200px" width="200px"><path fill="none" stroke="black" stroke-width=".3" stroke-opacity="1.0"  filling="0" d="M11.2684907913208 12.707262992858887 L11.2684907913208 12.707262992858887 C11.688694953918457 12.743147850036621 12.091546058654785 12.770346641540527 12.51687240600586 12.765817642211914 L12.51687240600586 12.765817642211914 C12.464844703674316 12.96677303314209 12.371577262878418 12.911712646484375 12.191154479980469 12.85693645477295 L12.191154479980469 12.85693645477295 C11.950045585632324 13.170340538024902 11.565345764160156 13.113027572631836 11.235899925231934 12.924736022949219 L11.235899925231934 12.924736022949219 C11.246763229370117 12.852245330810547 11.257627487182617 12.779753684997559 11.2684907913208 12.707262992858887 L11.2684907913208 12.707262992858887"></path>
<path fill="none" stroke="black" stroke-width=".3" stroke-opacity="1.0"  filling="0" d="M11.511300086975098 12.820199966430664 L11.511300086975098 12.820199966430664 C11.691545486450195 12.85091781616211 11.871789932250977 12.881636619567871 12.052035331726074 12.912354469299316 L12.052035331726074 12.912354469299316 C11.83375358581543 12.900627136230469 11.615472793579102 12.888899803161621 11.397191047668457 12.877172470092773 L11.397191047668457 12.877172470092773 C11.435227394104004 12.858181953430176 11.47326374053955 12.839190483093262 11.511300086975098 12.820199966430664 L11.511300086975098 12.820199966430664"></path></svg>