<svg xmlns="http://www.w3.org/2000/svg" viewBox="0.0 0.0 24.0 24.0" height="200px" width="200px"><path fill="none" stroke="black" stroke-width=".3" stroke-opacity="1.0"  filling="0" d="M12.360710144042969 10.846908569335938 L12.360710144042969 10.846908569335938 C12.799195289611816 10.869248390197754 12.69329833984375 11.672510147094727 12.458511352539062 11.698772430419922 C11.71329116821289 11.782129287719727 10.961640357971191 11.457586288452148 11.791963577270508 10.86600112915039 L11.791963577270508 10.86600112915039 C11.769930839538574 11.028789520263672 11.817195892333984 11.230772018432617 11.944473266601562 11.334627151489258 L11.944473266601562 11.334627151489258 C11.944473266601562 11.21314525604248 11.944473266601562 11.091663360595703 11.944473266601562 10.970181465148926 L11.944473266601562 10.970181465148926 C12.025128364562988 10.970181465148926 12.105782508850098 10.970181465148926 12.186437606811523 10.970181465148926 L12.186437606811523 10.970181465148926 C12.186437606811523 11.092544555664062 12.186437606811523 11.214908599853516 12.186437606811523 11.337271690368652 L12.186437606811523 11.337271690368652 C12.231700897216797 11.337271690368652 12.276965141296387 11.337271690368652 12.32222843170166 11.337271690368652 L12.32222843170166 11.337271690368652 C12.335055351257324 11.17381763458252 12.347883224487305 11.01036262512207 12.360710144042969 10.846908569335938 L12.360710144042969 10.846908569335938"></path></svg>