<svg xmlns="http://www.w3.org/2000/svg" viewBox="0.0 0.0 24.0 24.0" height="200px" width="200px"><path fill="none" stroke="black" stroke-width=".3" stroke-opacity="1.0"  filling="0" d="M38.764495849609375 8.09904670715332 L38.764495849609375 8.09904670715332 C39.019596099853516 8.099756240844727 39.58003616333008 7.996365070343018 39.51607894897461 8.243319511413574 C39.096580505371094 9.863138198852539 37.012542724609375 11.173602104187012 36.81748962402344 12.813955307006836 L36.81748962402344 12.813955307006836 C37.6328239440918 14.066574096679688 38.8680419921875 15.486416816711426 39.41115188598633 16.893600463867188 C39.56032180786133 17.28009033203125 38.04270553588867 17.09747314453125 37.67844009399414 17.079954147338867 C37.198211669921875 17.05685806274414 36.64933395385742 17.223508834838867 36.18981170654297 17.07387351989746 C35.63417053222656 16.8929386138916 35.57191848754883 15.843889236450195 35.10599899291992 15.544693946838379 C34.934566497802734 15.43460750579834 34.1508903503418 16.91571044921875 34.04096984863281 17.022247314453125 C33.69282531738281 17.35966682434082 30.99748992919922 17.283781051635742 30.564380645751953 17.007328033447266 L30.564380645751953 17.007328033447266 C31.5473690032959 15.255537986755371 33.78158187866211 13.51763916015625 32.66926574707031 11.613548278808594 L32.66926574707031 11.613548278808594 C32.160621643066406 10.785481452941895 30.53064727783203 9.069487571716309 30.56989097595215 8.15438175201416 L30.56989097595215 8.15438175201416 C31.508081436157227 8.153023719787598 32.72628402709961 7.94791316986084 33.647125244140625 8.129727363586426 C34.241886138916016 8.247159004211426 34.56801223754883 10.060270309448242 35.02374267578125 10.02237319946289 C35.456172943115234 9.986413955688477 35.921669006347656 8.588399887084961 36.27179718017578 8.246210098266602 C36.73508071899414 7.793429374694824 38.16481018066406 8.100505828857422 38.764495849609375 8.09904670715332 L38.764495849609375 8.09904670715332"></path></svg>