<svg xmlns="http://www.w3.org/2000/svg" viewBox="0.0 0.0 24.0 24.0" height="200px" width="200px"><path fill="none" stroke="black" stroke-width=".3" stroke-opacity="1.0"  filling="0" d="M11.794609069824219 12.228872299194336 L11.794609069824219 12.228872299194336 C11.753726959228516 12.304308891296387 11.712844848632812 12.379744529724121 11.67196273803711 12.455181121826172 L11.67196273803711 12.455181121826172 C11.748244285583496 12.550199508666992 11.8245267868042 12.645217895507812 11.900808334350586 12.740236282348633 L11.900808334350586 12.740236282348633 C11.89693546295166 12.75153636932373 11.893062591552734 12.762837409973145 11.889189720153809 12.774137496948242 L11.889189720153809 12.774137496948242 C11.803589820861816 12.782955169677734 11.71799087524414 12.791772842407227 11.632390975952148 12.800590515136719 L11.632390975952148 12.800590515136719 C11.7051362991333 12.843526840209961 11.777881622314453 12.88646411895752 11.850626945495605 12.929400444030762 L11.850626945495605 12.929400444030762 C11.59865951538086 13.408294677734375 11.39487361907959 12.435599327087402 11.794609069824219 12.228872299194336 L11.794609069824219 12.228872299194336"></path>
<path fill="none" stroke="black" stroke-width=".3" stroke-opacity="1.0"  filling="0" d="M11.67613697052002 12.564818382263184 L11.67613697052002 12.564818382263184 C11.713373184204102 12.606472969055176 11.750609397888184 12.648127555847168 11.787845611572266 12.68978214263916 L11.787845611572266 12.68978214263916 C11.737664222717285 12.697600364685059 11.687481880187988 12.70541763305664 11.637300491333008 12.713235855102539 L11.637300491333008 12.713235855102539 C11.650245666503906 12.663763046264648 11.663191795349121 12.614291191101074 11.67613697052002 12.564818382263184 L11.67613697052002 12.564818382263184"></path></svg>