<svg xmlns="http://www.w3.org/2000/svg" viewBox="0.0 0.0 24.0 24.0" height="200px" width="200px"><path fill="none" stroke="black" stroke-width=".3" stroke-opacity="1.0"  filling="0" d="M11.69729995727539 10.734517097473145 L11.69729995727539 10.734517097473145 C11.839691162109375 10.791244506835938 11.982081413269043 10.84797191619873 12.124472618103027 10.904699325561523 L12.124472618103027 10.904699325561523 C12.170318603515625 10.904699325561523 12.216163635253906 10.904699325561523 12.262009620666504 10.904699325561523 L12.262009620666504 10.904699325561523 C12.250245094299316 10.85647201538086 12.238481521606445 10.808244705200195 12.226716995239258 10.760017395019531 L12.226716995239258 10.760017395019531 C12.285754203796387 10.823572158813477 12.3447904586792 10.887126922607422 12.403827667236328 10.950681686401367 L12.403827667236328 10.950681686401367 C12.009088516235352 10.976825714111328 11.676280975341797 11.153799057006836 11.69729995727539 10.734517097473145 L11.69729995727539 10.734517097473145"></path>
<path fill="none" stroke="black" stroke-width=".3" stroke-opacity="1.0"  filling="0" d="M11.742409706115723 10.861663818359375 L11.742409706115723 10.861663818359375 C11.820572853088379 10.881508827209473 11.898736953735352 10.901354789733887 11.976900100708008 10.921199798583984 L11.976900100708008 10.921199798583984 C11.898736953735352 10.901354789733887 11.820572853088379 10.881508827209473 11.742409706115723 10.861663818359375 L11.742409706115723 10.861663818359375"></path></svg>