<svg xmlns="http://www.w3.org/2000/svg" viewBox="0.0 0.0 24.0 24.0" height="200px" width="200px"><path fill="none" stroke="black" stroke-width=".3" stroke-opacity="1.0"  filling="0" d="M12.131781578063965 11.499817848205566 L12.131781578063965 11.499817848205566 C12.215726852416992 11.533681869506836 12.299673080444336 11.567544937133789 12.383618354797363 11.601408958435059 L12.383618354797363 11.601408958435059 C12.178727149963379 11.736931800842285 12.020750045776367 11.667109489440918 11.785391807556152 11.690808296203613 L11.785391807556152 11.690808296203613 C11.980718612670898 11.736299514770508 12.176046371459961 11.781789779663086 12.371373176574707 11.82728099822998 L12.371373176574707 11.82728099822998 C12.206951141357422 11.851913452148438 12.040200233459473 11.86312484741211 11.873945236206055 11.86385440826416 L11.873945236206055 11.86385440826416 C11.888508796691895 11.89729118347168 11.90307331085205 11.930727005004883 11.91763687133789 11.964163780212402 L11.91763687133789 11.964163780212402 C11.813817977905273 11.93340015411377 11.710000038146973 11.902636528015137 11.606181144714355 11.871872901916504 L11.606181144714355 11.871872901916504 C11.636117935180664 11.836254119873047 11.666054725646973 11.800636291503906 11.695991516113281 11.76501750946045 L11.695991516113281 11.76501750946045 C11.664863586425781 11.739399909973145 11.633736610412598 11.713781356811523 11.602608680725098 11.688163757324219 L11.602608680725098 11.688163757324219 C11.776008605957031 11.663864135742188 11.949409484863281 11.63956356048584 12.122809410095215 11.615263938903809 L12.122809410095215 11.615263938903809 C12.125800132751465 11.5767822265625 12.128790855407715 11.538299560546875 12.131781578063965 11.499817848205566 L12.131781578063965 11.499817848205566"></path></svg>