<svg xmlns="http://www.w3.org/2000/svg" viewBox="0.0 0.0 24.0 24.0" height="200px" width="200px"><path fill="none" stroke="black" stroke-width=".3" stroke-opacity="1.0"  filling="0" d="M7.827245235443115 11.21075439453125 L7.827245235443115 11.21075439453125 C8.106654167175293 11.286881446838379 8.423269271850586 11.280384063720703 8.665472984313965 11.439135551452637 C9.148860931396484 11.75597095489502 8.77489948272705 12.690650939941406 8.93220043182373 13.170709609985352 L8.93220043182373 13.170709609985352 C8.732373237609863 13.161218643188477 8.53254508972168 13.151727676391602 8.332717895507812 13.142236709594727 L8.332717895507812 13.142236709594727 C8.318299293518066 13.079437255859375 8.303881645202637 13.016636848449707 8.28946304321289 12.953837394714355 L8.28946304321289 12.953837394714355 C7.648561000823975 13.22017765045166 6.806559085845947 13.5714111328125 6.803454399108887 12.364391326904297 C6.802060604095459 11.822508811950684 8.246103286743164 12.284571647644043 8.289572715759277 11.862655639648438 C8.342172622680664 11.352123260498047 7.608213424682617 11.650524139404297 7.433154106140137 11.88191032409668 L7.433154106140137 11.88191032409668 C7.248972415924072 11.88191032409668 7.064790725708008 11.88191032409668 6.880609035491943 11.88191032409668 L6.880609035491943 11.88191032409668 C7.029267311096191 11.405974388122559 7.336005687713623 11.25895881652832 7.827245235443115 11.21075439453125 L7.827245235443115 11.21075439453125"></path>
<path fill="none" stroke="black" stroke-width=".3" stroke-opacity="1.0"  filling="0" d="M8.301599502563477 12.286445617675781 L8.301599502563477 12.286445617675781 C7.893701553344727 13.197038650512695 6.692781448364258 12.525335311889648 8.301599502563477 12.286445617675781 L8.301599502563477 12.286445617675781"></path></svg>