<svg xmlns="http://www.w3.org/2000/svg" viewBox="0.0 0.0 24.0 24.0" height="200px" width="200px"><path fill="none" stroke="black" stroke-width=".3" stroke-opacity="1.0"  filling="0" d="M17.166603088378906 11.261454582214355 L17.166603088378906 11.261454582214355 C18.558937072753906 11.461458206176758 18.012863159179688 12.061419486999512 18.272756576538086 13.19664478302002 L18.272756576538086 13.19664478302002 C18.07344627380371 13.196626663208008 17.87413787841797 13.196609497070312 17.674827575683594 13.1965913772583 L17.674827575683594 13.1965913772583 C17.66092872619629 13.130345344543457 17.64702796936035 13.06410026550293 17.633129119873047 12.997854232788086 L17.633129119873047 12.997854232788086 C17.412992477416992 13.058334350585938 16.32140350341797 13.597176551818848 16.118757247924805 12.9013090133667 C15.730754852294922 11.568948745727539 17.61381721496582 12.48377513885498 17.644582748413086 11.878554344177246 C17.667905807495117 11.41974925994873 16.9500675201416 11.668821334838867 16.79127311706543 11.911908149719238 L16.79127311706543 11.911908149719238 C16.593828201293945 11.911908149719238 16.396381378173828 11.911908149719238 16.198936462402344 11.911908149719238 L16.198936462402344 11.911908149719238 C16.347780227661133 11.552885055541992 16.80250358581543 11.397409439086914 17.166603088378906 11.261454582214355 L17.166603088378906 11.261454582214355"></path>
<path fill="none" stroke="black" stroke-width=".3" stroke-opacity="1.0"  filling="0" d="M17.645427703857422 12.3250093460083 L17.645427703857422 12.3250093460083 C17.461833953857422 13.235514640808105 15.841327667236328 12.604706764221191 17.645427703857422 12.3250093460083 L17.645427703857422 12.3250093460083"></path></svg>