<svg xmlns="http://www.w3.org/2000/svg" viewBox="0.0 0.0 24.0 24.0" height="200px" width="200px"><path fill="none" stroke="black" stroke-width=".3" stroke-opacity="1.0"  filling="0" d="M9.277772903442383 10.740163803100586 L9.277772903442383 10.740163803100586 C9.464691162109375 10.740163803100586 9.651609420776367 10.740163803100586 9.83852767944336 10.740163803100586 L9.83852767944336 10.740163803100586 C9.83852767944336 10.922654151916504 9.83852767944336 11.105145454406738 9.83852767944336 11.287635803222656 L9.83852767944336 11.287635803222656 C9.994609832763672 11.287635803222656 10.150691032409668 11.287635803222656 10.30677318572998 11.287635803222656 L10.30677318572998 11.287635803222656 C10.29750919342041 11.429162979125977 10.288246154785156 11.570691108703613 10.278982162475586 11.712218284606934 L10.278982162475586 11.712218284606934 C10.134827613830566 11.712218284606934 9.990673065185547 11.712218284606934 9.846518516540527 11.712218284606934 L9.846518516540527 11.712218284606934 C9.847906112670898 12.260834693908691 9.652477264404297 12.735784530639648 10.271618843078613 12.736336708068848 L10.271618843078613 12.736336708068848 C10.271618843078613 12.88087272644043 10.271618843078613 13.025408744812012 10.271618843078613 13.169944763183594 L10.271618843078613 13.169944763183594 C9.152227401733398 13.114785194396973 9.272561073303223 12.796335220336914 9.272945404052734 11.697244644165039 L9.272945404052734 11.697244644165039 C9.175154685974121 11.697244644165039 9.077363014221191 11.697244644165039 8.979572296142578 11.697244644165039 L8.979572296142578 11.697244644165039 C8.979572296142578 11.554381370544434 8.979572296142578 11.411517143249512 8.979572296142578 11.268653869628906 L8.979572296142578 11.268653869628906 C9.078972816467285 11.268653869628906 9.178372383117676 11.268653869628906 9.277772903442383 11.268653869628906 L9.277772903442383 11.268653869628906 C9.277772903442383 11.092490196228027 9.277772903442383 10.916327476501465 9.277772903442383 10.740163803100586 L9.277772903442383 10.740163803100586"></path></svg>