<svg xmlns="http://www.w3.org/2000/svg" viewBox="0.0 0.0 24.0 24.0" height="200px" width="200px"><path fill="none" stroke="black" stroke-width=".3" stroke-opacity="1.0"  filling="0" d="M12.284098625183105 11.668173789978027 L12.284098625183105 11.668173789978027 C12.307462692260742 11.704073905944824 12.330825805664062 11.739974021911621 12.3541898727417 11.775874137878418 L12.3541898727417 11.775874137878418 C12.266462326049805 11.810269355773926 12.153165817260742 11.796055793762207 12.073036193847656 11.746474266052246 L12.073036193847656 11.746474266052246 C12.139718055725098 11.818037986755371 12.206398963928223 11.889601707458496 12.273080825805664 11.961165428161621 L12.273080825805664 11.961165428161621 C12.265162467956543 11.990474700927734 12.257244110107422 12.019783020019531 12.2493257522583 12.049092292785645 L12.2493257522583 12.049092292785645 C12.174253463745117 12.002264976501465 12.099180221557617 11.955437660217285 12.024107933044434 11.908610343933105 L12.024107933044434 11.908610343933105 C12.030634880065918 11.93608283996582 12.037162780761719 11.963556289672852 12.043689727783203 11.991028785705566 L12.043689727783203 11.991028785705566 C12.008426666259766 11.96841049194336 11.973162651062012 11.945791244506836 11.937899589538574 11.923172950744629 L11.937899589538574 11.923172950744629 C11.968454360961914 11.838918685913086 11.999009132385254 11.754663467407227 12.029563903808594 11.670409202575684 L12.029563903808594 11.670409202575684 C12.10721492767334 11.690710067749023 12.188142776489258 11.702519416809082 12.268389701843262 11.701037406921387 L12.268389701843262 11.701037406921387 C12.273626327514648 11.690082550048828 12.278861999511719 11.679128646850586 12.284098625183105 11.668173789978027 L12.284098625183105 11.668173789978027"></path></svg>