<svg xmlns="http://www.w3.org/2000/svg" viewBox="0.0 0.0 24.0 24.0" height="200px" width="200px"><path fill="none" stroke="black" stroke-width=".3" stroke-opacity="1.0"  filling="0" d="M13.215980529785156 11.244462966918945 L13.215980529785156 11.244462966918945 C13.216371536254883 11.30234432220459 13.21676254272461 11.36022663116455 13.217153549194336 11.418107986450195 L13.217153549194336 11.418107986450195 C13.175398826599121 11.382426261901855 13.133645057678223 11.346744537353516 13.091890335083008 11.311062812805176 L13.091890335083008 11.311062812805176 C13.08605670928955 11.546574592590332 13.477988243103027 11.838294982910156 12.956836700439453 11.836554527282715 L12.956836700439453 11.836554527282715 C12.956836700439453 11.772153854370117 12.956836700439453 11.707754135131836 12.956836700439453 11.643353462219238 L12.956836700439453 11.643353462219238 C13.023236274719238 11.689553260803223 13.089635848999023 11.735754013061523 13.156035423278809 11.781953811645508 L13.156035423278809 11.781953811645508 C13.161190032958984 11.745736122131348 13.16634464263916 11.709517478942871 13.171499252319336 11.673299789428711 L13.171499252319336 11.673299789428711 C12.971242904663086 11.467913627624512 12.832512855529785 11.265242576599121 13.215980529785156 11.244462966918945 L13.215980529785156 11.244462966918945"></path></svg>