<svg xmlns="http://www.w3.org/2000/svg" viewBox="0.0 0.0 24.0 24.0" height="200px" width="200px"><path fill="none" stroke="black" stroke-width=".3" stroke-opacity="1.0"  filling="0" d="M15.320154190063477 11.285454750061035 L15.320154190063477 11.285454750061035 C16.209869384765625 11.700309753417969 15.92424201965332 12.11401081085205 15.927082061767578 13.190399169921875 L15.927082061767578 13.190399169921875 C15.738472938537598 13.190399169921875 15.5498628616333 13.190399169921875 15.36125373840332 13.190399169921875 L15.36125373840332 13.190399169921875 C15.34125804901123 12.824082374572754 15.442686080932617 12.445884704589844 15.35427188873291 12.089836120605469 C15.260371208190918 11.71169662475586 14.888530731201172 11.612870216369629 14.602226257324219 11.820327758789062 C13.904505729675293 12.325899124145508 14.990078926086426 13.199736595153809 13.859672546386719 13.200027465820312 L13.859672546386719 13.200027465820312 C13.859672546386719 12.575454711914062 13.859672546386719 11.950881958007812 13.859672546386719 11.326309204101562 L13.859672546386719 11.326309204101562 C14.042427062988281 11.326309204101562 14.225181579589844 11.326309204101562 14.407936096191406 11.326309204101562 L14.407936096191406 11.326309204101562 C14.407936096191406 11.421791076660156 14.407936096191406 11.517271995544434 14.407936096191406 11.612753868103027 L14.407936096191406 11.612753868103027 C14.64775562286377 11.396306991577148 15.009359359741211 11.373600006103516 15.320154190063477 11.285454750061035 L15.320154190063477 11.285454750061035"></path></svg>