<svg xmlns="http://www.w3.org/2000/svg" viewBox="0.0 0.0 24.0 24.0" height="200px" width="200px"><path fill="none" stroke="black" stroke-width=".3" stroke-opacity="1.0"  filling="0" d="M1.7999992370605469 8.056090354919434 L1.7999992370605469 8.056090354919434 C1.8682457208633423 8.056090354919434 3.837690591812134 8.056090354919434 3.900027275085449 8.056090354919434 L3.900027275085449 8.056090354919434 C3.900027275085449 9.429115295410156 3.8999907970428467 10.802127838134766 3.8999810218811035 12.175153732299805 C3.8999757766723633 12.90084457397461 3.374464511871338 14.190099716186523 4.083545684814453 14.344473838806152 C4.588918209075928 14.454498291015625 5.405655384063721 14.318304061889648 5.91837215423584 14.318182945251465 L5.91837215423584 14.318182945251465 C5.909830570220947 15.025737762451172 5.901294708251953 15.733292579650879 5.892763614654541 16.440847396850586 L5.892763614654541 16.440847396850586 C4.529980182647705 16.47861671447754 3.1632978916168213 16.468996047973633 1.7999725341796875 16.471908569335938 L1.7999725341796875 16.471908569335938 C1.7999725341796875 15.068291664123535 1.7993870973587036 13.665675163269043 1.7990977764129639 12.263294219970703 C1.7988083362579346 10.860913276672363 1.7988150119781494 9.45876693725586 1.7999992370605469 8.056090354919434 L1.7999992370605469 8.056090354919434"></path></svg>