<svg xmlns="http://www.w3.org/2000/svg" viewBox="0.0 0.0 24.0 24.0" height="200px" width="200px"><path fill="none" stroke="black" stroke-width=".3" stroke-opacity="1.0"  filling="0" d="M14.97275447845459 10.572763442993164 L14.97275447845459 10.572763442993164 C15.15284538269043 10.572763442993164 15.33293628692627 10.572763442993164 15.51302719116211 10.572763442993164 L15.51302719116211 10.572763442993164 C15.543695449829102 11.271170616149902 15.707783699035645 12.237854957580566 15.414327621459961 12.889363288879395 C15.104622840881348 13.576945304870605 13.903572082519531 13.68136215209961 13.498472213745117 13.031399726867676 C13.084427833557129 12.367086410522461 13.243525505065918 11.164542198181152 13.317082405090332 10.58885383605957 L13.317082405090332 10.58885383605957 C13.496236801147461 10.58885383605957 13.67539119720459 10.58885383605957 13.854545593261719 10.58885383605957 L13.854545593261719 10.58885383605957 C13.854545593261719 11.100025177001953 13.572002410888672 12.108369827270508 13.884244918823242 12.566316604614258 C14.310356140136719 13.191267967224121 14.950397491455078 12.971427917480469 14.970245361328125 12.310225486755371 C14.972855567932129 12.223264694213867 14.97275447845459 11.098505973815918 14.97275447845459 10.572763442993164 L14.97275447845459 10.572763442993164"></path></svg>