<svg xmlns="http://www.w3.org/2000/svg" viewBox="0.0 0.0 24.0 24.0" height="200px" width="200px"><path fill="none" stroke="black" stroke-width=".3" stroke-opacity="1.0"  filling="0" d="M30.201385498046875 10.608025550842285 L30.201385498046875 10.608025550842285 C30.531160354614258 10.725164413452148 30.81641387939453 11.006007194519043 30.974699020385742 11.318126678466797 L30.974699020385742 11.318126678466797 C30.349754333496094 11.314845085144043 29.498504638671875 10.655997276306152 29.345537185668945 11.633644104003906 L29.345537185668945 11.633644104003906 C31.35126495361328 10.896642684936523 31.235992431640625 13.883635520935059 29.48724937438965 13.076916694641113 C27.91819953918457 12.353093147277832 28.89868927001953 10.610748291015625 30.201385498046875 10.608025550842285 L30.201385498046875 10.608025550842285"></path>
<path fill="none" stroke="black" stroke-width=".3" stroke-opacity="1.0"  filling="0" d="M30.303030014038086 11.975809097290039 L30.303030014038086 11.975809097290039 C30.508596420288086 12.307394027709961 30.43661117553711 12.677846908569336 29.93402671813965 12.681763648986816 L29.93402671813965 12.681763648986816 C29.93299102783203 12.686936378479004 29.93195343017578 12.692109107971191 29.930917739868164 12.697281837463379 L29.930917739868164 12.697281837463379 C28.890535354614258 12.481876373291016 29.562686920166016 11.978161811828613 30.303030014038086 11.975809097290039 L30.303030014038086 11.975809097290039"></path></svg>