<svg xmlns="http://www.w3.org/2000/svg" viewBox="0.0 0.0 24.0 24.0" height="200px" width="200px"><path fill="none" stroke="black" stroke-width=".3" stroke-opacity="1.0"  filling="0" d="M17.505027770996094 10.566790580749512 L17.505027770996094 10.566790580749512 C17.684627532958984 10.566790580749512 17.864227294921875 10.566790580749512 18.043827056884766 10.566790580749512 L18.043827056884766 10.566790580749512 C18.043827056884766 11.500235557556152 18.043827056884766 12.43368148803711 18.043827056884766 13.36712646484375 L18.043827056884766 13.36712646484375 C17.86838150024414 13.36712646484375 17.692935943603516 13.36712646484375 17.51749038696289 13.36712646484375 L17.51749038696289 13.36712646484375 C17.494823455810547 13.001991271972656 17.562177658081055 12.63160228729248 17.509035110473633 12.269644737243652 C17.463163375854492 11.957204818725586 16.564714431762695 12.141042709350586 16.448562622070312 12.148253440856934 L16.448562622070312 12.148253440856934 C16.448562622070312 12.557217597961426 16.448562622070312 12.966180801391602 16.448562622070312 13.375144958496094 L16.448562622070312 13.375144958496094 C16.2692813873291 13.375144958496094 16.089998245239258 13.375144958496094 15.910717010498047 13.375144958496094 L15.910717010498047 13.375144958496094 C15.910717010498047 12.439445495605469 15.910717010498047 11.503745079040527 15.910717010498047 10.568045616149902 L15.910717010498047 10.568045616149902 C16.087726593017578 10.568045616149902 16.26473617553711 10.568045616149902 16.44174575805664 10.568045616149902 L16.44174575805664 10.568045616149902 C16.44174575805664 10.923608779907227 16.44174575805664 11.279172897338867 16.44174575805664 11.634736061096191 L16.44174575805664 11.634736061096191 C16.796173095703125 11.634736061096191 17.15060043334961 11.634736061096191 17.505027770996094 11.634736061096191 L17.505027770996094 11.634736061096191 C17.505027770996094 11.278754234313965 17.505027770996094 10.922772407531738 17.505027770996094 10.566790580749512 L17.505027770996094 10.566790580749512"></path></svg>