<svg xmlns="http://www.w3.org/2000/svg" viewBox="0.0 0.0 24.0 24.0" height="200px" width="200px"><path fill="none" stroke="black" stroke-width=".3" stroke-opacity="1.0"  filling="0" d="M-1.1612730026245117 11.63372802734375 L-1.1612730026245117 11.63372802734375 C-1.1601272821426392 11.6444091796875 -1.1589816808700562 11.655091285705566 -1.1578359603881836 11.665772438049316 L-1.1578359603881836 11.665772438049316 C-1.2042995691299438 11.670108795166016 -1.2507632970809937 11.674445152282715 -1.297226905822754 11.678781509399414 L-1.297226905822754 11.678781509399414 C-1.2660597562789917 11.727226257324219 -1.211607575416565 11.764336585998535 -1.1556005477905273 11.77780818939209 L-1.1556005477905273 11.77780818939209 C-1.1571273803710938 11.786235809326172 -1.1586542129516602 11.794663429260254 -1.1601810455322266 11.803091049194336 L-1.1601810455322266 11.803091049194336 C-1.2258180379867554 11.803091049194336 -1.2914549112319946 11.803091049194336 -1.3570919036865234 11.803091049194336 L-1.3570919036865234 11.803091049194336 C-1.3595279455184937 11.751572608947754 -1.3619638681411743 11.700055122375488 -1.3643999099731445 11.648536682128906 L-1.3643999099731445 11.648536682128906 C-1.2966909408569336 11.643600463867188 -1.2289819717407227 11.638664245605469 -1.1612730026245117 11.63372802734375 L-1.1612730026245117 11.63372802734375"></path></svg>