<svg xmlns="http://www.w3.org/2000/svg" viewBox="0.0 0.0 24.0 24.0" height="200px" width="200px"><path fill="none" stroke="black" stroke-width=".3" stroke-opacity="1.0"  filling="0" d="M-1.144118309020996 12.043063163757324 L-1.144118309020996 12.043063163757324 C-1.1555696725845337 12.092801094055176 -1.1916388273239136 12.170753479003906 -1.147364616394043 12.196145057678223 L-1.147364616394043 12.196145057678223 C-1.1543906927108765 12.276634216308594 -1.1652400493621826 12.35683822631836 -1.1788911819458008 12.436471939086914 L-1.1788911819458008 12.436471939086914 C-1.1906639337539673 12.433599472045898 -1.2024368047714233 12.430726051330566 -1.2142095565795898 12.42785358428955 L-1.2142095565795898 12.42785358428955 C-1.204236626625061 12.397390365600586 -1.1942638158798218 12.366926193237305 -1.184290885925293 12.33646297454834 L-1.184290885925293 12.33646297454834 C-1.189745306968689 12.33264446258545 -1.1951996088027954 12.328826904296875 -1.2006540298461914 12.325008392333984 L-1.2006540298461914 12.325008392333984 C-1.228908896446228 12.366472244262695 -1.257163643836975 12.40793514251709 -1.2854185104370117 12.4493989944458 L-1.2854185104370117 12.4493989944458 C-1.3281430006027222 12.405396461486816 -1.3431354761123657 12.327799797058105 -1.3240642547607422 12.269508361816406 L-1.3240642547607422 12.269508361816406 C-1.3140732049942017 12.27304458618164 -1.3040822744369507 12.276580810546875 -1.2940912246704102 12.28011703491211 L-1.2940912246704102 12.28011703491211 C-1.3041547536849976 12.31242561340332 -1.3142181634902954 12.344735145568848 -1.3242816925048828 12.377043724060059 L-1.3242816925048828 12.377043724060059 C-1.2997605800628662 12.324728012084961 -1.3025490045547485 12.220232963562012 -1.358835220336914 12.207189559936523 L-1.358835220336914 12.207189559936523 C-1.3607263565063477 12.168298721313477 -1.3626174926757812 12.12940788269043 -1.3645086288452148 12.090517044067383 L-1.3645086288452148 12.090517044067383 C-1.2910451889038086 12.074699401855469 -1.2175817489624023 12.058880805969238 -1.144118309020996 12.043063163757324 L-1.144118309020996 12.043063163757324"></path></svg>