<svg xmlns="http://www.w3.org/2000/svg" viewBox="0.0 0.0 24.0 24.0" height="200px" width="200px"><path fill="none" stroke="black" stroke-width=".3" stroke-opacity="1.0"  filling="0" d="M17.344390869140625 11.339427947998047 L17.344390869140625 11.339427947998047 C17.928390502929688 11.492919921875 18.24771499633789 11.832271575927734 18.33684539794922 12.46690845489502 L18.33684539794922 12.46690845489502 C17.765226364135742 12.46690845489502 17.1936092376709 12.46690845489502 16.621990203857422 12.46690845489502 L16.621990203857422 12.46690845489502 C16.962602615356445 13.012186050415039 17.125591278076172 13.07773494720459 17.660457611083984 12.709063529968262 L17.660457611083984 12.709063529968262 C17.87507438659668 12.709063529968262 18.089693069458008 12.709063529968262 18.304309844970703 12.709063529968262 L18.304309844970703 12.709063529968262 C16.854143142700195 14.667149543762207 14.6976900100708 11.423069953918457 17.344390869140625 11.339427947998047 L17.344390869140625 11.339427947998047"></path>
<path fill="none" stroke="black" stroke-width=".3" stroke-opacity="1.0"  filling="0" d="M17.098255157470703 11.703055381774902 L17.098255157470703 11.703055381774902 C17.328067779541016 11.767992973327637 17.55549430847168 11.905671119689941 17.695011138916016 12.099491119384766 L17.695011138916016 12.099491119384766 C17.344446182250977 12.099491119384766 16.99388313293457 12.099491119384766 16.64331817626953 12.099491119384766 L16.64331817626953 12.099491119384766 C16.794963836669922 11.96734619140625 16.946609497070312 11.835200309753418 17.098255157470703 11.703055381774902 L17.098255157470703 11.703055381774902"></path></svg>