<svg xmlns="http://www.w3.org/2000/svg" viewBox="0.0 0.0 24.0 24.0" height="200px" width="200px"><path fill="none" stroke="black" stroke-width=".3" stroke-opacity="1.0"  filling="0" d="M6.88900899887085 11.296281814575195 L6.88900899887085 11.296281814575195 C6.88900899887085 11.467218399047852 6.88900899887085 11.638154983520508 6.88900899887085 11.809091567993164 L6.88900899887085 11.809091567993164 C6.036695957183838 11.80928897857666 6.179867744445801 12.618341445922852 6.132054805755615 13.197027206420898 L6.132054805755615 13.197027206420898 C5.957427501678467 13.197027206420898 5.78279972076416 13.197027206420898 5.608172416687012 13.197027206420898 L5.608172416687012 13.197027206420898 C5.608172416687012 12.573718070983887 5.608172416687012 11.950408935546875 5.608172416687012 11.327099800109863 L5.608172416687012 11.327099800109863 C5.789517879486084 11.327099800109863 5.970863342285156 11.327099800109863 6.1522088050842285 11.327099800109863 L6.1522088050842285 11.327099800109863 C6.1522088050842285 11.444209098815918 6.1522088050842285 11.561317443847656 6.1522088050842285 11.678426742553711 L6.1522088050842285 11.678426742553711 C6.397809028625488 11.551045417785645 6.64340877532959 11.423663139343262 6.88900899887085 11.296281814575195 L6.88900899887085 11.296281814575195"></path></svg>