<svg xmlns="http://www.w3.org/2000/svg" viewBox="0.0 0.0 24.0 24.0" height="200px" width="200px"><path fill="none" stroke="black" stroke-width=".3" stroke-opacity="1.0"  filling="0" d="M21.76846694946289 10.420116424560547 L21.76846694946289 10.420116424560547 C22.2257080078125 10.549562454223633 22.712600708007812 10.813776969909668 22.941600799560547 11.230172157287598 L22.941600799560547 11.230172157287598 C22.726282119750977 11.230172157287598 22.510963439941406 11.230172157287598 22.295644760131836 11.230172157287598 L22.295644760131836 11.230172157287598 C22.153106689453125 10.868720054626465 21.30432891845703 10.627745628356934 21.146289825439453 11.102481842041016 C20.960460662841797 11.660693168640137 23.18111801147461 11.161565780639648 22.953872680664062 12.55317211151123 C22.78380012512207 13.5946626663208 20.477418899536133 13.17737865447998 20.463134765625 12.176562309265137 L20.463134765625 12.176562309265137 C20.66633415222168 12.176562309265137 20.869535446166992 12.176562309265137 21.072734832763672 12.176562309265137 L21.072734832763672 12.176562309265137 C21.248807907104492 12.528018951416016 22.2502498626709 13.090039253234863 22.338245391845703 12.323725700378418 C22.417802810668945 11.630898475646973 18.932598114013672 12.096702575683594 21.064830780029297 10.504743576049805 C21.254125595092773 10.363412857055664 21.53392219543457 10.448325157165527 21.76846694946289 10.420116424560547 L21.76846694946289 10.420116424560547"></path></svg>