<svg xmlns="http://www.w3.org/2000/svg" viewBox="0.0 0.0 24.0 24.0" height="200px" width="200px"><path fill="none" stroke="black" stroke-width=".3" stroke-opacity="1.0"  filling="0" d="M12.6189546585083 11.554252624511719 L12.6189546585083 11.554252624511719 C12.673717498779297 11.64632511138916 12.72848129272461 11.738398551940918 12.783244132995605 11.83047103881836 L12.783244132995605 11.83047103881836 C12.82833480834961 11.7527437210083 12.87342643737793 11.675016403198242 12.918517112731934 11.597289085388184 L12.918517112731934 11.597289085388184 C12.966425895690918 11.597289085388184 13.014335632324219 11.597289085388184 13.062244415283203 11.597289085388184 L13.062244415283203 11.597289085388184 C12.855535507202148 11.900059700012207 12.812195777893066 12.0100736618042 12.880581855773926 12.367799758911133 L12.880581855773926 12.367799758911133 C12.824981689453125 12.282400131225586 12.769381523132324 12.196999549865723 12.713781356811523 12.111599922180176 L12.713781356811523 12.111599922180176 C12.646443367004395 12.200668334960938 12.563652038574219 12.318278312683105 12.452018737792969 12.32061767578125 L12.452018737792969 12.32061767578125 C12.665936470031738 11.971578598022461 12.606803894042969 11.917675018310547 12.6189546585083 11.554252624511719 L12.6189546585083 11.554252624511719"></path></svg>