<svg xmlns="http://www.w3.org/2000/svg" viewBox="0.0 0.0 24.0 24.0" height="200px" width="200px"><path fill="none" stroke="black" stroke-width=".3" stroke-opacity="1.0"  filling="0" d="M14.407115936279297 11.294454574584961 L14.407115936279297 11.294454574584961 C14.936768531799316 11.318475723266602 15.572726249694824 11.437419891357422 15.894108772277832 11.859109878540039 L15.894108772277832 11.859109878540039 C15.68878173828125 11.859109878540039 15.483454704284668 11.859109878540039 15.278127670288086 11.859109878540039 L15.278127670288086 11.859109878540039 C14.972834587097168 11.542755126953125 14.732070922851562 11.513526916503906 14.49338150024414 11.902664184570312 L14.49338150024414 11.902664184570312 C14.7030029296875 11.966684341430664 15.51313304901123 11.9594144821167 15.612244606018066 12.092428207397461 C16.6740665435791 13.517455101013184 13.954292297363281 13.666985511779785 13.827218055725098 12.5794095993042 L13.827218055725098 12.5794095993042 C14.032572746276855 12.5794095993042 14.237926483154297 12.5794095993042 14.443281173706055 12.5794095993042 L14.443281173706055 12.5794095993042 C14.598773956298828 12.772353172302246 15.281723022460938 13.216340065002441 15.353179931640625 12.642191886901855 C15.41283893585205 12.162840843200684 12.807358741760254 12.673625946044922 14.407115936279297 11.294454574584961 L14.407115936279297 11.294454574584961"></path></svg>