<svg xmlns="http://www.w3.org/2000/svg" viewBox="0.0 0.0 24.0 24.0" height="200px" width="200px"><path fill="none" stroke="black" stroke-width=".3" stroke-opacity="1.0"  filling="0" d="M0.16780948638916016 10.492716789245605 L0.16780948638916016 10.492716789245605 C2.1852874755859375 10.68859577178955 0.9547858834266663 11.79962158203125 0.0037631988525390625 12.479644775390625 L0.0037631988525390625 12.479644775390625 C0.00803629495203495 12.491326332092285 0.012309392914175987 12.503008842468262 0.016582489013671875 12.514690399169922 L0.016582489013671875 12.514690399169922 C0.45643678307533264 12.514690399169922 0.8962911367416382 12.514690399169922 1.3361454010009766 12.514690399169922 L1.3361454010009766 12.514690399169922 C1.3339054584503174 13.516165733337402 0.05678683519363403 12.977315902709961 -0.6772899627685547 12.94622802734375 L-0.6772899627685547 12.94622802734375 C-0.5539032220840454 12.005897521972656 0.4087933599948883 12.135506629943848 0.6713180541992188 11.442272186279297 C0.9390237331390381 10.735356330871582 0.1114998310804367 10.872893333435059 -0.05446434020996094 11.362554550170898 L-0.05446434020996094 11.362554550170898 C-0.2527640461921692 11.362554550170898 -0.4510638117790222 11.362554550170898 -0.6493635177612305 11.362554550170898 L-0.6493635177612305 11.362554550170898 C-0.5526745319366455 10.976656913757324 -0.17893433570861816 10.687740325927734 0.16780948638916016 10.492716789245605 L0.16780948638916016 10.492716789245605"></path></svg>