<svg xmlns="http://www.w3.org/2000/svg" viewBox="0.0 0.0 24.0 24.0" height="200px" width="200px"><path fill="none" stroke="black" stroke-width=".3" stroke-opacity="1.0"  filling="0" d="M13.596627235412598 10.555362701416016 L13.596627235412598 10.555362701416016 C13.8648042678833 10.555662155151367 14.110614776611328 10.852238655090332 14.177589416503906 11.111918449401855 L14.177589416503906 11.111918449401855 C14.32218074798584 11.111918449401855 14.466771125793457 11.111918449401855 14.61136245727539 11.111918449401855 L14.61136245727539 11.111918449401855 C14.61136245727539 11.251399993896484 14.61136245727539 11.39088249206543 14.61136245727539 11.530364036560059 L14.61136245727539 11.530364036560059 C14.459089279174805 11.530364036560059 14.306817054748535 11.530364036560059 14.15454387664795 11.530364036560059 L14.15454387664795 11.530364036560059 C14.155735969543457 12.073204040527344 13.975201606750488 12.519978523254395 14.607843399047852 12.5617094039917 L14.607843399047852 12.5617094039917 C14.607843399047852 12.698264122009277 14.607843399047852 12.834817886352539 14.607843399047852 12.971372604370117 L14.607843399047852 12.971372604370117 C13.48204517364502 13.010112762451172 13.650973320007324 12.538126945495605 13.598209381103516 11.535900115966797 L13.598209381103516 11.535900115966797 C13.505373001098633 11.535900115966797 13.41253662109375 11.535900115966797 13.319700241088867 11.535900115966797 L13.319700241088867 11.535900115966797 C13.319700241088867 11.391536712646484 13.319700241088867 11.247172355651855 13.319700241088867 11.102808952331543 L13.319700241088867 11.102808952331543 C13.412009239196777 11.102808952331543 13.504318237304688 11.102808952331543 13.596627235412598 11.102808952331543 L13.596627235412598 11.102808952331543 C13.596627235412598 10.920327186584473 13.596627235412598 10.737844467163086 13.596627235412598 10.555362701416016 L13.596627235412598 10.555362701416016"></path></svg>