<svg xmlns="http://www.w3.org/2000/svg" viewBox="0.0 0.0 24.0 24.0" height="200px" width="200px"><path fill="none" stroke="black" stroke-width=".3" stroke-opacity="1.0"  filling="0" d="M19.490156173706055 11.102591514587402 L19.490156173706055 11.102591514587402 C19.490156173706055 11.272573471069336 19.490156173706055 11.442554473876953 19.490156173706055 11.612536430358887 L19.490156173706055 11.612536430358887 C18.09971046447754 11.671725273132324 19.420879364013672 13.008719444274902 18.200838088989258 13.00911808013916 L18.200838088989258 13.00911808013916 C18.20084571838379 12.383917808532715 18.200855255126953 11.758718490600586 18.200862884521484 11.13351821899414 L18.200862884521484 11.13351821899414 C18.378963470458984 11.13351821899414 18.55706214904785 11.13351821899414 18.73516273498535 11.13351821899414 L18.73516273498535 11.13351821899414 C18.73516273498535 11.228545188903809 18.73516273498535 11.323573112487793 18.73516273498535 11.418600082397461 L18.73516273498535 11.418600082397461 C18.744108200073242 11.424081802368164 18.753055572509766 11.429563522338867 18.762001037597656 11.43504524230957 L18.762001037597656 11.43504524230957 C18.955564498901367 11.251399040222168 19.225160598754883 11.133735656738281 19.490156173706055 11.102591514587402 L19.490156173706055 11.102591514587402"></path></svg>