<svg xmlns="http://www.w3.org/2000/svg" viewBox="0.0 0.0 24.0 24.0" height="200px" width="200px"><path fill="none" stroke="black" stroke-width=".3" stroke-opacity="1.0"  filling="0" d="M11.474891662597656 12.1387357711792 L11.474891662597656 12.1387357711792 C11.52568244934082 12.141263008117676 11.576473236083984 12.143791198730469 11.627264022827148 12.146318435668945 L11.627264022827148 12.146318435668945 C11.643718719482422 12.082118034362793 11.660173416137695 12.01791763305664 11.676628112792969 11.953717231750488 L11.676628112792969 11.953717231750488 C11.709809303283691 11.951217651367188 11.74299144744873 11.94871711730957 11.776172637939453 11.94621753692627 L11.776172637939453 11.94621753692627 C11.74683666229248 12.014445304870605 11.717499732971191 12.082672119140625 11.688163757324219 12.150899887084961 L11.688163757324219 12.150899887084961 C11.761837005615234 12.161181449890137 11.835509300231934 12.171463966369629 11.90918254852295 12.181745529174805 L11.90918254852295 12.181745529174805 C11.933237075805664 12.154727935791016 11.957290649414062 12.12770938873291 11.981345176696777 12.100691795349121 L11.981345176696777 12.100691795349121 C12.035297393798828 12.291838645935059 11.561103820800781 12.215085983276367 11.474891662597656 12.1387357711792 L11.474891662597656 12.1387357711792"></path></svg>