<svg xmlns="http://www.w3.org/2000/svg" viewBox="0.0 0.0 24.0 24.0" height="200px" width="200px"><path fill="none" stroke="black" stroke-width=".3" stroke-opacity="1.0"  filling="0" d="M23.21200942993164 11.12075424194336 L23.21200942993164 11.12075424194336 C23.396137237548828 11.129754066467285 23.580265045166016 11.138753890991211 23.764392852783203 11.147753715515137 L23.764392852783203 11.147753715515137 C23.792757034301758 11.522329330444336 23.604671478271484 11.932697296142578 23.760082244873047 12.274690628051758 C23.855060577392578 12.483695983886719 24.131746292114258 12.61490249633789 24.361282348632812 12.610690116882324 C24.835634231567383 12.601984977722168 24.65434455871582 11.28613567352295 24.64568328857422 11.159862518310547 L24.64568328857422 11.159862518310547 C24.82750129699707 11.159862518310547 25.00931739807129 11.159862518310547 25.19113540649414 11.159862518310547 L25.19113540649414 11.159862518310547 C25.19113540649414 11.773889541625977 25.19113540649414 12.387917518615723 25.19113540649414 13.001944541931152 L25.19113540649414 13.001944541931152 C25.015153884887695 13.001944541931152 24.839174270629883 13.001944541931152 24.663192749023438 13.001944541931152 L24.663192749023438 13.001944541931152 C24.657255172729492 12.93030834197998 24.65131950378418 12.858672142028809 24.645381927490234 12.787035942077637 L24.645381927490234 12.787035942077637 C23.39771842956543 13.724425315856934 23.0369873046875 12.137317657470703 23.21200942993164 11.12075424194336 L23.21200942993164 11.12075424194336"></path></svg>