<svg xmlns="http://www.w3.org/2000/svg" viewBox="0.0 0.0 24.0 24.0" height="200px" width="200px"><path fill="none" stroke="black" stroke-width=".3" stroke-opacity="1.0"  filling="0" d="M13.588391304016113 10.515571594238281 L13.588391304016113 10.515571594238281 C14.156573295593262 10.515571594238281 14.724754333496094 10.515571594238281 15.292936325073242 10.515571594238281 L15.292936325073242 10.515571594238281 C15.292936325073242 10.674826622009277 15.292936325073242 10.834081649780273 15.292936325073242 10.99333667755127 L15.292936325073242 10.99333667755127 C14.315017700195312 10.991067886352539 14.100406646728516 10.721397399902344 14.100081443786621 11.556272506713867 L14.100081443786621 11.556272506713867 C14.35299015045166 11.556272506713867 14.605899810791016 11.556273460388184 14.858808517456055 11.556273460388184 L14.858808517456055 11.556273460388184 C14.858808517456055 11.713427543640137 14.858808517456055 11.870582580566406 14.858808517456055 12.02773666381836 L14.858808517456055 12.02773666381836 C13.817316055297852 12.027860641479492 13.992899894714355 12.234198570251465 14.138345718383789 13.309226989746094 L14.138345718383789 13.309226989746094 C13.95502758026123 13.309226989746094 13.771709442138672 13.309226989746094 13.588391304016113 13.309226989746094 L13.588391304016113 13.309226989746094 C13.588391304016113 12.378008842468262 13.588391304016113 11.446789741516113 13.588391304016113 10.515571594238281 L13.588391304016113 10.515571594238281"></path></svg>