<svg xmlns="http://www.w3.org/2000/svg" viewBox="0.0 0.0 24.0 24.0" height="200px" width="200px"><path fill="none" stroke="black" stroke-width=".3" stroke-opacity="1.0"  filling="0" d="M19.813064575195312 10.449980735778809 L19.813064575195312 10.449980735778809 C19.98464584350586 10.449980735778809 20.15622901916504 10.449980735778809 20.327810287475586 10.449980735778809 L20.327810287475586 10.449980735778809 C20.32904815673828 10.453756332397461 21.24335479736328 13.243305206298828 21.24376678466797 13.244563102722168 L21.24376678466797 13.244563102722168 C21.060739517211914 13.244563102722168 20.877710342407227 13.244563102722168 20.694683074951172 13.244563102722168 L20.694683074951172 13.244563102722168 C20.641374588012695 13.07685375213623 20.588064193725586 12.90914535522461 20.53475570678711 12.741436004638672 L20.53475570678711 12.741436004638672 C20.230701446533203 12.741436004638672 19.926647186279297 12.741436004638672 19.62259292602539 12.741436004638672 L19.62259292602539 12.741436004638672 C19.570310592651367 12.911490440368652 19.518030166625977 13.081544876098633 19.465747833251953 13.251599311828613 L19.465747833251953 13.251599311828613 C19.281530380249023 13.251599311828613 19.09731101989746 13.251599311828613 18.91309356689453 13.251599311828613 L18.91309356689453 13.251599311828613 C19.21308708190918 12.317727088928223 19.513076782226562 11.383854866027832 19.813064575195312 10.449980735778809 L19.813064575195312 10.449980735778809"></path>
<path fill="none" stroke="black" stroke-width=".3" stroke-opacity="1.0"  filling="0" d="M20.07897186279297 11.350664138793945 L20.07897186279297 11.350664138793945 C20.180198669433594 11.655109405517578 20.28142738342285 11.959554672241211 20.382654190063477 12.263999938964844 L20.382654190063477 12.263999938964844 C20.19475555419922 12.263999938964844 20.006855010986328 12.263999938964844 19.81895637512207 12.263999938964844 L19.81895637512207 12.263999938964844 C19.905628204345703 11.959554672241211 19.992300033569336 11.655109405517578 20.07897186279297 11.350664138793945 L20.07897186279297 11.350664138793945"></path></svg>