<svg xmlns="http://www.w3.org/2000/svg" viewBox="0.0 0.0 24.0 24.0" height="200px" width="200px"><path fill="none" stroke="black" stroke-width=".3" stroke-opacity="1.0"  filling="0" d="M5.545200347900391 10.577617645263672 L5.545200347900391 10.577617645263672 C6.114772796630859 10.577617645263672 6.684345722198486 10.577617645263672 7.253918170928955 10.577617645263672 L7.253918170928955 10.577617645263672 C7.253415107727051 11.349916458129883 6.83431339263916 11.04649829864502 6.062045097351074 11.04548168182373 L6.062045097351074 11.04548168182373 C6.062045097351074 11.234563827514648 6.062045097351074 11.423645973205566 6.062045097351074 11.612728118896484 L6.062045097351074 11.612728118896484 C6.311245441436768 11.612728118896484 6.560445308685303 11.612728118896484 6.809645652770996 11.612728118896484 L6.809645652770996 11.612728118896484 C6.809645652770996 11.771819114685059 6.809645652770996 11.930909156799316 6.809645652770996 12.09000015258789 L6.809645652770996 12.09000015258789 C6.562427520751953 12.09000015258789 6.315208911895752 12.09000015258789 6.067990779876709 12.09000015258789 L6.067990779876709 12.09000015258789 C6.067990779876709 12.512627601623535 6.067990779876709 12.935254096984863 6.067990779876709 13.357881546020508 L6.067990779876709 13.357881546020508 C5.8937273025512695 13.357881546020508 5.71946382522583 13.357881546020508 5.545200347900391 13.357881546020508 L5.545200347900391 13.357881546020508 C5.545200347900391 12.431126594543457 5.545200347900391 11.504372596740723 5.545200347900391 10.577617645263672 L5.545200347900391 10.577617645263672"></path></svg>