<svg xmlns="http://www.w3.org/2000/svg" viewBox="0.0 0.0 24.0 24.0" height="200px" width="200px"><path fill="none" stroke="black" stroke-width=".3" stroke-opacity="1.0"  filling="0" d="M12.646882057189941 11.394736289978027 L12.646882057189941 11.394736289978027 C12.702609062194824 11.585736274719238 12.758337020874023 11.776737213134766 12.814064025878906 11.967737197875977 L12.814064025878906 11.967737197875977 C12.721117973327637 11.972073554992676 12.628172874450684 11.976408958435059 12.535226821899414 11.980745315551758 L12.535226821899414 11.980745315551758 C12.562654495239258 12.076409339904785 12.590081214904785 12.172072410583496 12.617508888244629 12.267736434936523 L12.617508888244629 12.267736434936523 C12.651908874511719 12.211945533752441 12.686308860778809 12.156155586242676 12.720708847045898 12.100364685058594 L12.720708847045898 12.100364685058594 C12.808439254760742 12.713133811950684 12.0944242477417 12.076180458068848 12.646882057189941 11.394736289978027 L12.646882057189941 11.394736289978027"></path>
<path fill="none" stroke="black" stroke-width=".3" stroke-opacity="1.0"  filling="0" d="M12.579954147338867 11.600290298461914 L12.579954147338867 11.600290298461914 C12.775418281555176 11.715575218200684 12.729666709899902 11.799385070800781 12.506373405456543 11.763899803161621 L12.506373405456543 11.763899803161621 C12.530900001525879 11.709362983703613 12.555427551269531 11.654827117919922 12.579954147338867 11.600290298461914 L12.579954147338867 11.600290298461914"></path></svg>