<svg xmlns="http://www.w3.org/2000/svg" viewBox="0.0 0.0 24.0 24.0" height="200px" width="200px"><path fill="none" stroke="black" stroke-width=".3" stroke-opacity="1.0"  filling="0" d="M6.436363697052002 10.554545402526855 L6.436363697052002 10.554545402526855 C7.002600193023682 10.554545402526855 7.568836212158203 10.554545402526855 8.135072708129883 10.554545402526855 L8.135072708129883 10.554545402526855 C8.135072708129883 10.717872619628906 8.135072708129883 10.881200790405273 8.135072708129883 11.044528007507324 L8.135072708129883 11.044528007507324 C7.8974456787109375 11.044528007507324 7.659818172454834 11.044528007507324 7.422191143035889 11.044528007507324 L7.422191143035889 11.044528007507324 C7.422191143035889 11.805200576782227 7.422191143035889 12.565873146057129 7.422191143035889 13.326545715332031 L7.422191143035889 13.326545715332031 C7.2308454513549805 13.336309432983398 7.0395002365112305 13.346073150634766 6.848154544830322 13.355836868286133 L6.848154544830322 13.355836868286133 C6.848154544830322 12.585709571838379 6.848154544830322 11.815583229064941 6.848154544830322 11.045455932617188 L6.848154544830322 11.045455932617188 C6.710899829864502 11.045455932617188 6.57364559173584 11.045455932617188 6.4363908767700195 11.045455932617188 L6.4363908767700195 11.045455932617188 C6.436381816864014 10.881818771362305 6.436372756958008 10.718182563781738 6.436363697052002 10.554545402526855 L6.436363697052002 10.554545402526855"></path></svg>