<svg xmlns="http://www.w3.org/2000/svg" viewBox="0.0 0.0 24.0 24.0" height="200px" width="200px"><path fill="none" stroke="black" stroke-width=".3" stroke-opacity="1.0"  filling="0" d="M-2.9225730895996094 9.650999069213867 L-2.9225730895996094 9.650999069213867 C-0.7372250556945801 10.172727584838867 -0.4073221683502197 14.39607048034668 -2.913517951965332 14.749200820922852 C-3.8890340328216553 14.886653900146484 -4.5221099853515625 13.552738189697266 -4.667697906494141 12.846981048583984 C-4.9791259765625 11.33729362487793 -4.386038780212402 10.11535930633545 -2.9225730895996094 9.650999069213867 L-2.9225730895996094 9.650999069213867"></path>
<path fill="none" stroke="black" stroke-width=".3" stroke-opacity="1.0"  filling="0" d="M-3.189600944519043 10.136645317077637 L-3.189600944519043 10.136645317077637 C-2.4881415367126465 10.17336654663086 -2.450644016265869 10.540390968322754 -2.3627185821533203 11.204236030578613 L-2.3627185821533203 11.204236030578613 C-2.368727684020996 11.204872131347656 -2.374736785888672 11.205509185791016 -2.3807458877563477 11.206145286560059 L-2.3807458877563477 11.206145286560059 C-2.3550503253936768 11.626333236694336 -2.3601417541503906 12.024083137512207 -2.3535003662109375 12.443998336791992 C-2.3528952598571777 12.482260704040527 -2.1676740646362305 14.850874900817871 -3.0635719299316406 14.27991771697998 C-3.961155891418457 13.7078857421875 -3.6186485290527344 10.769918441772461 -3.189600944519043 10.136645317077637 L-3.189600944519043 10.136645317077637"></path></svg>