<svg xmlns="http://www.w3.org/2000/svg" viewBox="0.0 0.0 24.0 24.0" height="200px" width="200px"><path fill="none" stroke="black" stroke-width=".3" stroke-opacity="1.0"  filling="0" d="M13.481182098388672 10.582446098327637 L13.481182098388672 10.582446098327637 C13.835893630981445 11.170076370239258 14.194747924804688 11.755226135253906 14.557662963867188 12.3378267288208 L14.557662963867188 12.3378267288208 C14.557662963867188 11.752854347229004 14.557662963867188 11.16788101196289 14.557662963867188 10.582908630371094 L14.557662963867188 10.582908630371094 C14.727827072143555 10.582908630371094 14.897990226745605 10.582908630371094 15.068154335021973 10.582908630371094 L15.068154335021973 10.582908630371094 C15.068154335021973 10.594335556030273 15.068154335021973 13.375114440917969 15.068154335021973 13.379918098449707 L15.068154335021973 13.379918098449707 C14.913918495178223 13.379918098449707 14.759681701660156 13.379918098449707 14.605445861816406 13.379918098449707 L14.605445861816406 13.379918098449707 C14.233142852783203 12.762575149536133 13.858428001403809 12.146679878234863 13.481345176696777 11.532244682312012 L13.481345176696777 11.532244682312012 C13.467199325561523 11.536245346069336 13.453054428100586 11.540245056152344 13.438908576965332 11.544245719909668 L13.438908576965332 11.544245719909668 C13.447599411010742 12.160591125488281 13.456291198730469 12.776936531066895 13.464982032775879 13.393281936645508 L13.464982032775879 13.393281936645508 C13.297418594360352 13.393281936645508 13.129854202270508 13.393281936645508 12.96229076385498 13.393281936645508 L12.96229076385498 13.393281936645508 C12.96229076385498 12.459863662719727 12.96229076385498 11.526445388793945 12.96229076385498 10.593027114868164 L12.96229076385498 10.593027114868164 C13.130447387695312 10.552380561828613 13.308182716369629 10.582594871520996 13.481182098388672 10.582446098327637 L13.481182098388672 10.582446098327637"></path></svg>