<svg xmlns="http://www.w3.org/2000/svg" viewBox="0.0 0.0 24.0 24.0" height="200px" width="200px"><path fill="none" stroke="black" stroke-width=".3" stroke-opacity="1.0"  filling="0" d="M13.584681510925293 11.5405912399292 L13.584681510925293 11.5405912399292 C13.77759075164795 11.5405912399292 13.970499038696289 11.5405912399292 14.163408279418945 11.5405912399292 L14.163408279418945 11.5405912399292 C14.089152336120605 11.753008842468262 13.96674633026123 12.52784252166748 13.75595474243164 12.519108772277832 L13.75595474243164 12.519108772277832 C13.82288932800293 12.229231834411621 13.930940628051758 11.948445320129395 14.056364059448242 11.678671836853027 L14.056364059448242 11.678671836853027 C13.909363746643066 11.678671836853027 13.762364387512207 11.678671836853027 13.615364074707031 11.678671836853027 L13.615364074707031 11.678671836853027 C13.589837074279785 11.71748161315918 13.564309120178223 11.756290435791016 13.538782119750977 11.795100212097168 L13.538782119750977 11.795100212097168 C13.530863761901855 11.792136192321777 13.52294635772705 11.789173126220703 13.51502799987793 11.786209106445312 L13.51502799987793 11.786209106445312 C13.538246154785156 11.704336166381836 13.561463356018066 11.622464179992676 13.584681510925293 11.5405912399292 L13.584681510925293 11.5405912399292"></path></svg>