<svg xmlns="http://www.w3.org/2000/svg" viewBox="0.0 0.0 24.0 24.0" height="200px" width="200px"><path fill="none" stroke="black" stroke-width=".3" stroke-opacity="1.0"  filling="0" d="M18.177818298339844 10.99609088897705 L18.177818298339844 10.99609088897705 C18.518144607543945 10.99609088897705 18.85847282409668 10.99609088897705 19.19879913330078 10.99609088897705 L19.19879913330078 10.99609088897705 C19.19145393371582 11.395306587219238 18.61355209350586 12.146393775939941 18.386070251464844 12.557782173156738 L18.386070251464844 12.557782173156738 C18.83572769165039 12.512201309204102 19.011199951171875 12.534163475036621 19.18109703063965 12.105082511901855 L19.18109703063965 12.105082511901855 C19.19602394104004 12.108027458190918 19.210952758789062 12.110973358154297 19.225879669189453 12.11391830444336 L19.225879669189453 12.11391830444336 C19.223430633544922 12.890746116638184 18.6905517578125 12.600086212158203 18.01003646850586 12.600028038024902 L18.01003646850586 12.600028038024902 C18.2775821685791 12.089946746826172 18.547122955322266 11.58090877532959 18.818618774414062 11.072918891906738 L18.818618774414062 11.072918891906738 C18.454015731811523 11.075758934020996 18.303260803222656 11.109972953796387 18.140262603759766 11.451299667358398 L18.140262603759766 11.451299667358398 C18.152780532836914 11.29956340789795 18.165300369262695 11.1478271484375 18.177818298339844 10.99609088897705 L18.177818298339844 10.99609088897705"></path></svg>