<svg xmlns="http://www.w3.org/2000/svg" viewBox="0.0 0.0 24.0 24.0" height="200px" width="200px"><path fill="none" stroke="black" stroke-width=".3" stroke-opacity="1.0"  filling="0" d="M6.169773101806641 11.412272453308105 L6.169773101806641 11.412272453308105 C6.338181972503662 11.412272453308105 6.506590843200684 11.412272453308105 6.674999713897705 11.412272453308105 L6.674999713897705 11.412272453308105 C6.676672458648682 11.420881271362305 6.678345203399658 11.42949104309082 6.680017948150635 11.43809986114502 L6.680017948150635 11.43809986114502 C6.6351728439331055 11.44761848449707 6.590327262878418 11.457136154174805 6.545482158660889 11.466654777526855 L6.545482158660889 11.466654777526855 C6.545482158660889 13.649374961853027 7.410904884338379 11.758687019348145 6.930954456329346 11.449771881103516 L6.930954456329346 11.449771881103516 C7.048227310180664 11.4420804977417 7.165500164031982 11.4343900680542 7.282773017883301 11.426698684692383 L7.282773017883301 11.426698684692383 C6.852142333984375 12.103992462158203 6.273772716522217 13.568623542785645 6.272781848907471 11.468181610107422 L6.272781848907471 11.468181610107422 C6.237063884735107 11.457609176635742 6.201345443725586 11.447036743164062 6.165627479553223 11.436464309692383 L6.165627479553223 11.436464309692383 C6.167009353637695 11.428400039672852 6.168391227722168 11.420336723327637 6.169773101806641 11.412272453308105 L6.169773101806641 11.412272453308105"></path></svg>