<svg xmlns="http://www.w3.org/2000/svg" viewBox="0.0 0.0 24.0 24.0" height="200px" width="200px"><path fill="none" stroke="black" stroke-width=".3" stroke-opacity="1.0"  filling="0" d="M12.55712890625 11.923145294189453 L12.55712890625 11.923145294189453 C12.596683502197266 11.946263313293457 12.636238098144531 11.969382286071777 12.675792694091797 11.992500305175781 L12.675792694091797 11.992500305175781 C12.63265609741211 12.027409553527832 12.589520454406738 12.062317848205566 12.54638385772705 12.097227096557617 L12.54638385772705 12.097227096557617 C12.522993087768555 12.058426856994629 12.499601364135742 12.019627571105957 12.476210594177246 11.980827331542969 L12.476210594177246 11.980827331542969 C12.465201377868652 12.15797233581543 12.454191207885742 12.335118293762207 12.443181991577148 12.512263298034668 L12.443181991577148 12.512263298034668 C12.351763725280762 12.518218040466309 12.260346412658691 12.52417278289795 12.168928146362305 12.53012752532959 L12.168928146362305 12.53012752532959 C12.167055130004883 12.525209426879883 12.165182113647461 12.520291328430176 12.163309097290039 12.515373229980469 L12.163309097290039 12.515373229980469 C12.189163208007812 12.501946449279785 12.215018272399902 12.488518714904785 12.240872383117676 12.475091934204102 L12.240872383117676 12.475091934204102 C12.240872383117676 12.312809944152832 12.240872383117676 12.150527000427246 12.240872383117676 11.988245010375977 L12.240872383117676 11.988245010375977 C12.215417861938477 11.976581573486328 12.189963340759277 11.96491813659668 12.164508819580078 11.953254699707031 L12.164508819580078 11.953254699707031 C12.203583717346191 11.889148712158203 12.315446853637695 11.96172046661377 12.388036727905273 11.980881690979004 L12.388036727905273 11.980881690979004 C12.444400787353516 11.961636543273926 12.500764846801758 11.942390441894531 12.55712890625 11.923145294189453 L12.55712890625 11.923145294189453"></path></svg>