<svg xmlns="http://www.w3.org/2000/svg" viewBox="0.0 0.0 24.0 24.0" height="200px" width="200px"><path fill="none" stroke="black" stroke-width=".3" stroke-opacity="1.0"  filling="0" d="M20.294891357421875 11.410662651062012 L20.294891357421875 11.410662651062012 C20.402437210083008 11.415299415588379 20.509981155395508 11.41993522644043 20.61752700805664 11.424571990966797 L20.61752700805664 11.424571990966797 C20.58138084411621 11.446735382080078 20.545236587524414 11.46889877319336 20.509090423583984 11.49106216430664 L20.509090423583984 11.49106216430664 C20.50318145751953 12.974143981933594 19.596233367919922 12.790474891662598 19.659027099609375 11.478818893432617 L19.659027099609375 11.478818893432617 C19.6146183013916 11.465091705322266 19.570207595825195 11.451363563537598 19.525798797607422 11.437636375427246 L19.525798797607422 11.437636375427246 C19.69850730895996 11.436854362487793 19.871217727661133 11.43607234954834 20.043926239013672 11.435290336608887 L20.043926239013672 11.435290336608887 C19.99883460998535 11.44710922241211 19.953744888305664 11.458927154541016 19.908653259277344 11.470746040344238 L19.908653259277344 11.470746040344238 C19.900135040283203 12.561792373657227 20.424989700317383 13.029402732849121 20.427322387695312 11.466680526733398 L20.427322387695312 11.466680526733398 C20.383277893066406 11.458553314208984 20.3392333984375 11.45042610168457 20.295188903808594 11.442298889160156 L20.295188903808594 11.442298889160156 C20.295089721679688 11.431753158569336 20.29499053955078 11.421208381652832 20.294891357421875 11.410662651062012 L20.294891357421875 11.410662651062012"></path></svg>