<svg xmlns="http://www.w3.org/2000/svg" viewBox="0.0 0.0 24.0 24.0" height="200px" width="200px"><path fill="none" stroke="black" stroke-width=".3" stroke-opacity="1.0"  filling="0" d="M11.955245018005371 11.187135696411133 L11.955245018005371 11.187135696411133 C12.010770797729492 11.360435485839844 11.9436674118042 11.55481243133545 11.892518997192383 11.729454040527344 L11.892518997192383 11.729454040527344 C11.842109680175781 11.714290618896484 11.79170036315918 11.699127197265625 11.741291046142578 11.683963775634766 L11.741291046142578 11.683963775634766 C11.302492141723633 11.949275970458984 11.620821952819824 12.73322868347168 11.040300369262695 12.670663833618164 L11.040300369262695 12.670663833618164 C11.154109954833984 12.17656421661377 11.267918586730957 11.682463645935059 11.381728172302246 11.188364028930664 L11.381728172302246 11.188364028930664 C11.484264373779297 11.198400497436523 11.586800575256348 11.208436012268066 11.689336776733398 11.218472480773926 L11.689336776733398 11.218472480773926 C11.68386459350586 11.268308639526367 11.678391456604004 11.318144798278809 11.672919273376465 11.36798095703125 L11.672919273376465 11.36798095703125 C11.767027854919434 11.307699203491211 11.861136436462402 11.247417449951172 11.955245018005371 11.187135696411133 L11.955245018005371 11.187135696411133"></path></svg>