<svg xmlns="http://www.w3.org/2000/svg" viewBox="0.0 0.0 24.0 24.0" height="200px" width="200px"><path fill="none" stroke="black" stroke-width=".3" stroke-opacity="1.0"  filling="0" d="M14.684562683105469 11.859601020812988 L14.684562683105469 11.859601020812988 C14.758044242858887 11.87460994720459 14.831526756286621 11.889618873596191 14.905008316040039 11.904627799987793 L14.905008316040039 11.904627799987793 C15.282599449157715 11.69831371307373 15.27272891998291 12.18925666809082 15.272700309753418 12.393791198730469 L15.272700309753418 12.393791198730469 C15.309481620788574 12.409109115600586 15.346263885498047 12.424427032470703 15.383045196533203 12.43974494934082 L15.383045196533203 12.43974494934082 C15.271672248840332 12.44077205657959 15.160299301147461 12.441800117492676 15.04892635345459 12.442827224731445 L15.04892635345459 12.442827224731445 C15.303662300109863 11.959802627563477 14.89523983001709 11.672273635864258 14.891534805297852 12.388036727905273 L14.891534805297852 12.388036727905273 C14.918353080749512 12.402600288391113 14.945171356201172 12.417163848876953 14.971989631652832 12.431727409362793 L14.971989631652832 12.431727409362793 C14.970053672790527 12.438963890075684 14.968116760253906 12.446200370788574 14.966180801391602 12.453436851501465 L14.966180801391602 12.453436851501465 C14.86159896850586 12.453436851501465 14.757017135620117 12.453436851501465 14.652435302734375 12.453436851501465 L14.652435302734375 12.453436851501465 C14.684535026550293 12.431937217712402 14.716635704040527 12.410436630249023 14.748735427856445 12.388936996459961 L14.748735427856445 12.388936996459961 C14.727344512939453 12.212491989135742 14.705953598022461 12.036046028137207 14.684562683105469 11.859601020812988 L14.684562683105469 11.859601020812988"></path></svg>