<svg xmlns="http://www.w3.org/2000/svg" viewBox="0.0 0.0 24.0 24.0" height="200px" width="200px"><path fill="none" stroke="black" stroke-width=".3" stroke-opacity="1.0"  filling="0" d="M9.892853736877441 11.847381591796875 L9.892853736877441 11.847381591796875 C9.948044776916504 11.933845520019531 10.003236770629883 12.020308494567871 10.058427810668945 12.106772422790527 L10.058427810668945 12.106772422790527 C9.938963890075684 12.106772422790527 9.819499969482422 12.106772422790527 9.70003604888916 12.106772422790527 L9.70003604888916 12.106772422790527 C9.725751876831055 12.224210739135742 9.924571990966797 12.3269681930542 10.02564525604248 12.261873245239258 L10.02564525604248 12.261873245239258 C9.432440757751465 12.627546310424805 9.470036506652832 11.921670913696289 9.892853736877441 11.847381591796875 L9.892853736877441 11.847381591796875"></path>
<path fill="none" stroke="black" stroke-width=".3" stroke-opacity="1.0"  filling="0" d="M9.843053817749023 11.890718460083008 L9.843053817749023 11.890718460083008 C9.85918140411377 11.952199935913086 9.8753080368042 12.01368236541748 9.891435623168945 12.075163841247559 L9.891435623168945 12.075163841247559 C9.823299407958984 12.075163841247559 9.755163192749023 12.075163841247559 9.687026977539062 12.075163841247559 L9.687026977539062 12.075163841247559 C9.687017440795898 12.0194730758667 9.68700885772705 11.963781356811523 9.686999320983887 11.908090591430664 L9.686999320983887 11.908090591430664 C9.739017486572266 11.902299880981445 9.791035652160645 11.896509170532227 9.843053817749023 11.890718460083008 L9.843053817749023 11.890718460083008"></path></svg>