<svg xmlns="http://www.w3.org/2000/svg" viewBox="0.0 0.0 24.0 24.0" height="200px" width="200px"><path fill="none" stroke="black" stroke-width=".3" stroke-opacity="1.0"  filling="0" d="M8.167990684509277 11.477699279785156 L8.167990684509277 11.477699279785156 C8.17342758178711 11.488899230957031 8.178863525390625 11.500100135803223 8.184300422668457 11.511300086975098 L8.184300422668457 11.511300086975098 C8.024828910827637 11.60015869140625 7.885861396789551 11.743632316589355 7.807009220123291 11.908281326293945 L7.807009220123291 11.908281326293945 C8.33958911895752 11.956952095031738 8.395716667175293 12.662039756774902 7.8454909324646 12.538854598999023 C7.221940994262695 12.399253845214844 7.862372875213623 11.612460136413574 8.167990684509277 11.477699279785156 L8.167990684509277 11.477699279785156"></path>
<path fill="none" stroke="black" stroke-width=".3" stroke-opacity="1.0"  filling="0" d="M7.9721999168396 11.918072700500488 L7.9721999168396 11.918072700500488 C8.041823387145996 11.99810791015625 8.097108840942383 12.103960037231445 8.098854064941406 12.210026741027832 L8.098854064941406 12.210026741027832 C8.102618217468262 12.210626602172852 8.1063814163208 12.211227416992188 8.110145568847656 12.211827278137207 L8.110145568847656 12.211827278137207 C7.990049839019775 12.869781494140625 7.555367469787598 12.164129257202148 7.9721999168396 11.918072700500488 L7.9721999168396 11.918072700500488"></path></svg>