<svg xmlns="http://www.w3.org/2000/svg" viewBox="0.0 0.0 24.0 24.0" height="200px" width="200px"><path fill="none" stroke="black" stroke-width=".3" stroke-opacity="1.0"  filling="0" d="M12.279082298278809 11.564971923828125 L12.279082298278809 11.564971923828125 C12.223373413085938 11.623690605163574 12.16766357421875 11.682408332824707 12.111954689025879 11.741127014160156 L12.111954689025879 11.741127014160156 C12.179949760437012 11.758370399475098 12.327134132385254 11.334529876708984 12.598827362060547 11.690999984741211 C12.751974105834961 11.891934394836426 12.233999252319336 12.296756744384766 12.14173698425293 12.408245086669922 L12.14173698425293 12.408245086669922 C12.302801132202148 12.405817985534668 12.500761032104492 12.404044151306152 12.608917236328125 12.284671783447266 L12.608917236328125 12.284671783447266 C12.614962577819824 12.361989974975586 12.62100887298584 12.439309120178223 12.627054214477539 12.516627311706543 L12.627054214477539 12.516627311706543 C12.42279052734375 12.516627311706543 12.218526840209961 12.516627311706543 12.014263153076172 12.516627311706543 L12.014263153076172 12.516627311706543 C12.179219245910645 12.137821197509766 12.700217247009277 11.961472511291504 12.279082298278809 11.564971923828125 L12.279082298278809 11.564971923828125"></path></svg>