<svg xmlns="http://www.w3.org/2000/svg" viewBox="0.0 0.0 24.0 24.0" height="200px" width="200px"><path fill="none" stroke="black" stroke-width=".3" stroke-opacity="1.0"  filling="0" d="M11.419035911560059 11.7888822555542 L11.419035911560059 11.7888822555542 C11.44350814819336 11.806681632995605 11.467981338500977 11.824481964111328 11.492453575134277 11.842281341552734 L11.492453575134277 11.842281341552734 C11.489898681640625 11.854536056518555 11.487344741821289 11.866790771484375 11.484789848327637 11.879045486450195 L11.484789848327637 11.879045486450195 C11.411226272583008 11.895426750183105 11.337662696838379 11.911808967590332 11.26409912109375 11.928190231323242 L11.26409912109375 11.928190231323242 C11.264799118041992 11.938408851623535 11.265499114990234 11.948626518249512 11.266199111938477 11.958845138549805 L11.266199111938477 11.958845138549805 C11.318671226501465 11.969772338867188 11.37114429473877 11.98069953918457 11.423616409301758 11.991626739501953 L11.423616409301758 11.991626739501953 C11.4132080078125 12.018563270568848 11.402798652648926 12.045500755310059 11.392390251159668 12.072437286376953 L11.392390251159668 12.072437286376953 C11.34176254272461 12.109709739685059 11.291135787963867 12.146982192993164 11.240508079528809 12.18425464630127 L11.240508079528809 12.18425464630127 C11.308708190917969 12.18824577331543 11.376908302307129 12.19223690032959 11.445108413696289 12.19622802734375 L11.445108413696289 12.19622802734375 C11.447844505310059 12.228155136108398 11.450581550598145 12.260082244873047 11.453317642211914 12.292009353637695 L11.453317642211914 12.292009353637695 C11.336699485778809 12.291999816894531 11.22008228302002 12.291991233825684 11.103464126586914 12.29198169708252 L11.103464126586914 12.29198169708252 C11.122427940368652 12.136063575744629 11.141390800476074 11.980145454406738 11.160354614257812 11.824227333068848 L11.160354614257812 11.824227333068848 C11.24658203125 11.812445640563965 11.332808494567871 11.800663948059082 11.419035911560059 11.7888822555542 L11.419035911560059 11.7888822555542"></path></svg>