<svg xmlns="http://www.w3.org/2000/svg" viewBox="0.0 0.0 24.0 24.0" height="200px" width="200px"><path fill="none" stroke="black" stroke-width=".3" stroke-opacity="1.0"  filling="0" d="M12.009709358215332 11.887309074401855 L12.009709358215332 11.887309074401855 C11.985372543334961 11.913554191589355 11.961036682128906 11.939800262451172 11.936699867248535 11.966045379638672 L11.936699867248535 11.966045379638672 C11.879927635192871 11.948290824890137 11.82315444946289 11.930537223815918 11.766382217407227 11.912782669067383 L11.766382217407227 11.912782669067383 C11.760708808898926 11.926827430725098 11.755036354064941 11.940873146057129 11.74936294555664 11.954917907714844 L11.74936294555664 11.954917907714844 C12.300671577453613 12.217595100402832 11.515812873840332 12.511650085449219 11.641227722167969 12.130064010620117 L11.641227722167969 12.130064010620117 C11.704909324645996 12.15416431427002 11.76859188079834 12.178263664245605 11.832273483276367 12.202363967895508 L11.832273483276367 12.202363967895508 C11.782855033874512 12.168927192687988 11.733437538146973 12.135491371154785 11.684019088745117 12.102054595947266 L11.684019088745117 12.102054595947266 C11.662809371948242 12.060291290283203 11.641600608825684 12.018527030944824 11.620390892028809 11.976763725280762 L11.620390892028809 11.976763725280762 C11.750164031982422 11.946945190429688 11.879936218261719 11.91712760925293 12.009709358215332 11.887309074401855 L12.009709358215332 11.887309074401855"></path></svg>