<svg xmlns="http://www.w3.org/2000/svg" viewBox="0.0 0.0 24.0 24.0" height="200px" width="200px"><path fill="none" stroke="black" stroke-width=".3" stroke-opacity="1.0"  filling="0" d="M12.194917678833008 11.806798934936523 L12.194917678833008 11.806798934936523 C12.307108879089355 11.806798934936523 12.419300079345703 11.806798934936523 12.53149127960205 11.806798934936523 L12.53149127960205 11.806798934936523 C12.516181945800781 11.84458065032959 12.500873565673828 11.882363319396973 12.485564231872559 11.920145034790039 L12.485564231872559 11.920145034790039 C12.41193675994873 11.927563667297363 12.338309288024902 11.934981346130371 12.264681816101074 11.942399978637695 L12.264681816101074 11.942399978637695 C12.329754829406738 11.961163520812988 12.394827842712402 11.979928016662598 12.459900856018066 11.99869155883789 L12.459900856018066 11.99869155883789 C12.448136329650879 12.025263786315918 12.436372756958008 12.051836967468262 12.42460823059082 12.078409194946289 L12.42460823059082 12.078409194946289 C12.37656307220459 12.08077335357666 12.32851791381836 12.083136558532715 12.280472755432129 12.085500717163086 L12.280472755432129 12.085500717163086 C12.278836250305176 12.114555358886719 12.277200698852539 12.143609046936035 12.275564193725586 12.172663688659668 L12.275564193725586 12.172663688659668 C12.356954574584961 12.19550895690918 12.438345909118652 12.218355178833008 12.519736289978027 12.24120044708252 L12.519736289978027 12.24120044708252 C12.431983947753906 12.369057655334473 12.25978946685791 12.318670272827148 12.149153709411621 12.249654769897461 L12.149153709411621 12.249654769897461 C12.164408683776855 12.102036476135254 12.179662704467773 11.95441722869873 12.194917678833008 11.806798934936523 L12.194917678833008 11.806798934936523"></path></svg>