<svg xmlns="http://www.w3.org/2000/svg" viewBox="0.0 0.0 24.0 24.0" height="200px" width="200px"><path fill="none" stroke="black" stroke-width=".3" stroke-opacity="1.0"  filling="0" d="M-1.478754997253418 10.472671508789062 L-1.478754997253418 10.472671508789062 C-1.478754997253418 10.890880584716797 -1.478754997253418 11.309089660644531 -1.478754997253418 11.727298736572266 L-1.478754997253418 11.727298736572266 C-1.1833999156951904 11.727298736572266 -0.3994895815849304 11.963399887084961 -0.354736328125 11.584033966064453 C-0.3117485046386719 11.219634056091309 -0.3546091616153717 10.850179672241211 -0.35454559326171875 10.48325252532959 L-0.35454559326171875 10.48325252532959 C-0.06363648176193237 10.48325252532959 0.22727268934249878 10.48325252532959 0.5181818008422852 10.48325252532959 L0.5181818008422852 10.48325252532959 C0.5181818008422852 11.533239364624023 0.5433898568153381 12.583253860473633 0.545100212097168 13.63257122039795 L0.545100212097168 13.63257122039795 C0.44253259897232056 13.605761528015137 -0.3274553418159485 13.739651679992676 -0.35430049896240234 13.501442909240723 C-0.3545520603656769 13.499210357666016 -0.35454559326171875 12.651957511901855 -0.35454559326171875 12.282161712646484 L-0.35454559326171875 12.282161712646484 C-0.630825400352478 12.260002136230469 -1.4260361194610596 12.029565811157227 -1.4725360870361328 12.415852546691895 C-1.5154438018798828 12.772297859191895 -1.4299315214157104 13.136468887329102 -1.472890853881836 13.492907524108887 C-1.502118468284607 13.73541259765625 -2.1514315605163574 13.621726989746094 -2.354863166809082 13.645008087158203 L-2.354863166809082 13.645008087158203 C-2.354863166809082 12.588653564453125 -2.354863166809082 11.532299041748047 -2.354863166809082 10.475944519042969 L-2.354863166809082 10.475944519042969 C-2.062832832336426 10.473812103271484 -1.770793080329895 10.4727783203125 -1.478754997253418 10.472671508789062 L-1.478754997253418 10.472671508789062"></path></svg>