<svg xmlns="http://www.w3.org/2000/svg" viewBox="0.0 0.0 24.0 24.0" height="200px" width="200px"><path fill="none" stroke="black" stroke-width=".3" stroke-opacity="1.0"  filling="0" d="M11.010246276855469 11.72819995880127 L11.010246276855469 11.72819995880127 C11.107316017150879 11.773092269897461 11.160346031188965 11.926616668701172 11.125364303588867 12.027681350708008 L11.125364303588867 12.027681350708008 C11.143291473388672 12.084908485412598 11.161218643188477 12.142136573791504 11.179145812988281 12.199363708496094 L11.179145812988281 12.199363708496094 C11.115654945373535 12.14109992980957 11.052163124084473 12.082836151123047 10.988672256469727 12.024572372436523 L10.988672256469727 12.024572372436523 C10.963724136352539 12.093939781188965 10.939281463623047 12.172039985656738 10.881791114807129 12.218181610107422 L10.881791114807129 12.218181610107422 C10.881800651550293 12.06363582611084 10.88180923461914 11.909090995788574 10.881818771362305 11.754545211791992 L10.881818771362305 11.754545211791992 C10.924628257751465 11.745763778686523 10.967436790466309 11.736981391906738 11.010246276855469 11.72819995880127 L11.010246276855469 11.72819995880127"></path>
<path fill="none" stroke="black" stroke-width=".3" stroke-opacity="1.0"  filling="0" d="M11.097845077514648 11.843127250671387 L11.097845077514648 11.843127250671387 C11.054581642150879 11.875709533691406 11.011317253112793 11.90829086303711 10.968053817749023 11.940873146057129 L10.968053817749023 11.940873146057129 C11.011317253112793 11.90829086303711 11.054581642150879 11.875709533691406 11.097845077514648 11.843127250671387 L11.097845077514648 11.843127250671387"></path></svg>