<svg xmlns="http://www.w3.org/2000/svg" viewBox="0.0 0.0 24.0 24.0" height="200px" width="200px"><path fill="none" stroke="black" stroke-width=".3" stroke-opacity="1.0"  filling="0" d="M8.761963844299316 11.812745094299316 L8.761963844299316 11.812745094299316 C8.861650466918945 11.818485260009766 8.996702194213867 11.784314155578613 9.057136535644531 11.863800048828125 L9.057136535644531 11.863800048828125 C8.976536750793457 11.978300094604492 8.895936012268066 12.09280014038086 8.815336227416992 12.207300186157227 L8.815336227416992 12.207300186157227 C8.874045372009277 12.213399887084961 8.932754516601562 12.219500541687012 8.991463661193848 12.225600242614746 L8.991463661193848 12.225600242614746 C8.991463661193848 12.257336616516113 8.991463661193848 12.28907299041748 8.991463661193848 12.320809364318848 L8.991463661193848 12.320809364318848 C8.868927955627441 12.320809364318848 8.746391296386719 12.320809364318848 8.623855590820312 12.320809364318848 L8.623855590820312 12.320809364318848 C8.707273483276367 12.189845085144043 8.790691375732422 12.058881759643555 8.874109268188477 11.92791748046875 L8.874109268188477 11.92791748046875 C8.82016372680664 11.922381401062012 8.766218185424805 11.916844367980957 8.712272644042969 11.911308288574219 L8.712272644042969 11.911308288574219 C8.728836059570312 11.878454208374023 8.745400428771973 11.845599174499512 8.761963844299316 11.812745094299316 L8.761963844299316 11.812745094299316"></path></svg>