<svg xmlns="http://www.w3.org/2000/svg" viewBox="0.0 0.0 24.0 24.0" height="200px" width="200px"><path fill="none" stroke="black" stroke-width=".3" stroke-opacity="1.0"  filling="0" d="M16.71245574951172 11.779064178466797 L16.71245574951172 11.779064178466797 C16.768909454345703 11.798164367675781 16.825363159179688 11.817264556884766 16.881816864013672 11.83636474609375 L16.881816864013672 11.83636474609375 C16.881816864013672 11.90909194946289 16.881816864013672 11.981818199157715 16.881816864013672 12.054545402526855 L16.881816864013672 12.054545402526855 C16.772817611694336 12.06124496459961 16.663816452026367 12.06794548034668 16.55481719970703 12.074645042419434 L16.55481719970703 12.074645042419434 C16.55539321899414 11.962983131408691 16.62116050720215 11.843358993530273 16.71245574951172 11.779064178466797 L16.71245574951172 11.779064178466797"></path>
<path fill="none" stroke="black" stroke-width=".3" stroke-opacity="1.0"  filling="0" d="M16.7166805267334 11.897400856018066 L16.7166805267334 11.897400856018066 C16.745498657226562 11.90683650970459 16.77431869506836 11.91627311706543 16.803136825561523 11.925708770751953 L16.803136825561523 11.925708770751953 C16.803363800048828 11.938254356384277 16.803590774536133 11.950800895690918 16.803817749023438 11.963346481323242 L16.803817749023438 11.963346481323242 C16.76219940185547 11.977409362792969 16.7205810546875 11.991473197937012 16.67896270751953 12.005536079406738 L16.67896270751953 12.005536079406738 C16.67129898071289 11.995345115661621 16.663637161254883 11.98515510559082 16.655973434448242 11.974964141845703 L16.655973434448242 11.974964141845703 C16.67620849609375 11.94911003112793 16.69644546508789 11.92325496673584 16.7166805267334 11.897400856018066 L16.7166805267334 11.897400856018066"></path></svg>