<svg xmlns="http://www.w3.org/2000/svg" viewBox="0.0 0.0 24.0 24.0" height="200px" width="200px"><path fill="none" stroke="black" stroke-width=".3" stroke-opacity="1.0"  filling="0" d="M15.105491638183594 11.677009582519531 L15.105491638183594 11.677009582519531 C15.177200317382812 11.677009582519531 15.248909950256348 11.677009582519531 15.320618629455566 11.677009582519531 L15.320618629455566 11.677009582519531 C15.320618629455566 11.849882125854492 15.320618629455566 12.022754669189453 15.320618629455566 12.195627212524414 L15.320618629455566 12.195627212524414 C15.349546432495117 12.210190773010254 15.378473281860352 12.224754333496094 15.407401084899902 12.239317893981934 L15.407401084899902 12.239317893981934 C15.405945777893066 12.246500015258789 15.404491424560547 12.253681182861328 15.403036117553711 12.260863304138184 L15.403036117553711 12.260863304138184 C15.299263954162598 12.260863304138184 15.195490837097168 12.260863304138184 15.091718673706055 12.260863304138184 L15.091718673706055 12.260863304138184 C15.123336791992188 12.24041748046875 15.154953956604004 12.219972610473633 15.186572074890137 12.1995267868042 L15.186572074890137 12.1995267868042 C15.186572074890137 12.037300109863281 15.186572074890137 11.875072479248047 15.186572074890137 11.712845802307129 L15.186572074890137 11.712845802307129 C15.158799171447754 11.704463958740234 15.131027221679688 11.69608211517334 15.103254318237305 11.687700271606445 L15.103254318237305 11.687700271606445 C15.104000091552734 11.684136390686035 15.104745864868164 11.680573463439941 15.105491638183594 11.677009582519531 L15.105491638183594 11.677009582519531"></path></svg>