<svg xmlns="http://www.w3.org/2000/svg" viewBox="0.0 0.0 24.0 24.0" height="200px" width="200px"><path fill="none" stroke="black" stroke-width=".3" stroke-opacity="1.0"  filling="0" d="M14.370463371276855 11.810073852539062 L14.370463371276855 11.810073852539062 C14.445127487182617 11.813446044921875 14.519790649414062 11.816819190979004 14.594454765319824 11.820191383361816 L14.594454765319824 11.820191383361816 C14.579963684082031 11.852691650390625 14.565473556518555 11.885191917419434 14.550982475280762 11.917692184448242 L14.550982475280762 11.917692184448242 C14.48479175567627 11.917878150939941 14.41854190826416 11.919987678527832 14.352544784545898 11.925055503845215 L14.352544784545898 11.925055503845215 C14.349363327026367 11.934109687805176 14.346181869506836 11.943164825439453 14.343000411987305 11.952219009399414 L14.343000411987305 11.952219009399414 C14.396454811096191 11.975054740905762 14.449909210205078 11.997891426086426 14.503363609313965 12.020727157592773 L14.503363609313965 12.020727157592773 C14.503363609313965 12.045190811157227 14.503363609313965 12.06965446472168 14.503363609313965 12.094118118286133 L14.503363609313965 12.094118118286133 C14.37849235534668 12.140912055969238 14.324681282043457 12.245047569274902 14.189781188964844 12.290292739868164 L14.189781188964844 12.290292739868164 C14.211880683898926 12.120697975158691 14.246520042419434 11.927924156188965 14.370463371276855 11.810073852539062 L14.370463371276855 11.810073852539062"></path></svg>