<svg xmlns="http://www.w3.org/2000/svg" viewBox="0.0 0.0 24.0 24.0" height="200px" width="200px"><path fill="none" stroke="black" stroke-width=".3" stroke-opacity="1.0"  filling="0" d="M10.585746765136719 11.814108848571777 L10.585746765136719 11.814108848571777 C10.631182670593262 11.87859058380127 10.676618576049805 11.943072319030762 10.722054481506348 12.007554054260254 L10.722054481506348 12.007554054260254 C10.800354957580566 11.801447868347168 10.903524398803711 11.75784683227539 10.90887451171875 12.012736320495605 L10.90887451171875 12.012736320495605 C10.918910026550293 12.014890670776367 10.928946495056152 12.017045974731445 10.938982009887695 12.019200325012207 L10.938982009887695 12.019200325012207 C10.961800575256348 11.95195484161377 10.984618186950684 11.884709358215332 11.007436752319336 11.817463874816895 L11.007436752319336 11.817463874816895 C11.03924560546875 11.817463874816895 11.07105541229248 11.817463874816895 11.102864265441895 11.817463874816895 L11.102864265441895 11.817463874816895 C11.0548734664917 11.979599952697754 11.006882667541504 12.141736030578613 10.958891868591309 12.303872108459473 L10.958891868591309 12.303872108459473 C10.913209915161133 12.24152660369873 10.867527961730957 12.179182052612305 10.821846008300781 12.116836547851562 L10.821846008300781 12.116836547851562 C10.764446258544922 12.17789077758789 10.707046508789062 12.238945007324219 10.649646759033203 12.299999237060547 L10.649646759033203 12.299999237060547 C10.62834644317627 12.138035774230957 10.607047080993652 11.976072311401367 10.585746765136719 11.814108848571777 L10.585746765136719 11.814108848571777"></path></svg>