<svg xmlns="http://www.w3.org/2000/svg" viewBox="0.0 0.0 24.0 24.0" height="200px" width="200px"><path fill="none" stroke="black" stroke-width=".3" stroke-opacity="1.0"  filling="0" d="M28.91765785217285 10.417745590209961 L28.91765785217285 10.417745590209961 C29.874738693237305 10.617596626281738 29.906782150268555 11.188119888305664 29.341800689697266 11.900045394897461 L29.341800689697266 11.900045394897461 C29.85824966430664 12.065893173217773 29.877269744873047 13.162973403930664 29.886192321777344 13.596736907958984 L29.886192321777344 13.596736907958984 C29.594379425048828 13.655282974243164 29.29074478149414 13.609779357910156 28.993310928344727 13.599027633666992 L28.993310928344727 13.599027633666992 C28.68914222717285 12.628642082214355 29.107816696166992 12.248345375061035 27.90215492248535 12.245755195617676 L27.90215492248535 12.245755195617676 C27.90215492248535 12.697818756103516 27.90215492248535 13.149883270263672 27.90215492248535 13.601946830749512 L27.90215492248535 13.601946830749512 C27.614572525024414 13.601946830749512 27.32699203491211 13.601946830749512 27.039409637451172 13.601946830749512 L27.039409637451172 13.601946830749512 C26.951005935668945 13.041666984558105 26.985034942626953 11.008964538574219 27.03363037109375 10.44679069519043 L27.03363037109375 10.44679069519043 C27.66002655029297 10.400782585144043 28.289573669433594 10.41847038269043 28.91765785217285 10.417745590209961 L28.91765785217285 10.417745590209961"></path>
<path fill="none" stroke="black" stroke-width=".3" stroke-opacity="1.0"  filling="0" d="M27.912572860717773 10.977080345153809 L27.912572860717773 10.977080345153809 C28.975082397460938 10.987010955810547 29.132463455200195 11.695755958557129 27.91259765625 11.69964599609375 L27.91259765625 11.69964599609375 C27.91259002685547 11.45879077911377 27.912580490112305 11.217935562133789 27.912572860717773 10.977080345153809 L27.912572860717773 10.977080345153809"></path></svg>