<svg xmlns="http://www.w3.org/2000/svg" viewBox="0.0 0.0 24.0 24.0" height="200px" width="200px"><path fill="none" stroke="black" stroke-width=".3" stroke-opacity="1.0"  filling="0" d="M11.62360954284668 11.630454063415527 L11.62360954284668 11.630454063415527 C12.287540435791016 11.677380561828613 12.348682403564453 11.754334449768066 12.446781158447266 12.4029541015625 L12.446781158447266 12.4029541015625 C12.379081726074219 12.353763580322266 12.311381340026855 12.304572105407715 12.243681907653809 12.25538158416748 L12.243681907653809 12.25538158416748 C11.723928451538086 12.186162948608398 11.42003345489502 11.879927635192871 12.116754531860352 11.854362487792969 L12.116754531860352 11.854362487792969 C11.988163948059082 11.821571350097656 11.859573364257812 11.78878116607666 11.730982780456543 11.755990028381348 L11.730982780456543 11.755990028381348 C11.695191383361816 11.714144706726074 11.659400939941406 11.6722993850708 11.62360954284668 11.630454063415527 L11.62360954284668 11.630454063415527"></path>
<path fill="none" stroke="black" stroke-width=".3" stroke-opacity="1.0"  filling="0" d="M11.821500778198242 11.955191612243652 L11.821500778198242 11.955191612243652 C11.970664024353027 12.007609367370605 12.119827270507812 12.060028076171875 12.268990516662598 12.112445831298828 L12.268990516662598 12.112445831298828 C12.106854438781738 12.095309257507324 11.944718360900879 12.078173637390137 11.78258228302002 12.061037063598633 L11.78258228302002 12.061037063598633 C11.795555114746094 12.025754928588867 11.808527946472168 11.990473747253418 11.821500778198242 11.955191612243652 L11.821500778198242 11.955191612243652"></path></svg>