<svg xmlns="http://www.w3.org/2000/svg" viewBox="0.0 0.0 24.0 24.0" height="200px" width="200px"><path fill="none" stroke="black" stroke-width=".3" stroke-opacity="1.0"  filling="0" d="M30.41694450378418 10.412644386291504 L30.41694450378418 10.412644386291504 C31.25035285949707 10.412644386291504 32.083763122558594 10.412644386291504 32.917171478271484 10.412644386291504 L32.917171478271484 10.412644386291504 C32.917171478271484 10.605362892150879 32.917171478271484 10.798081398010254 32.917171478271484 10.990799903869629 L32.917171478271484 10.990799903869629 C32.7033805847168 10.990799903869629 31.671348571777344 10.901945114135742 31.29594612121582 11.032280921936035 L31.29594612121582 11.032280921936035 C31.377262115478516 11.94052505493164 31.61250877380371 11.684141159057617 32.55711364746094 11.684835433959961 L32.55711364746094 11.684835433959961 C32.57261276245117 11.870026588439941 32.58811569213867 12.055216789245605 32.603614807128906 12.240407943725586 L32.603614807128906 12.240407943725586 C32.17191696166992 12.240407943725586 31.740217208862305 12.240407943725586 31.30851936340332 12.240407943725586 L31.30851936340332 12.240407943725586 C31.308624267578125 13.431629180908203 31.611543655395508 13.036444664001465 33.016090393066406 13.036444664001465 L33.016090393066406 13.036444664001465 C33.02803421020508 13.226862907409668 33.039981842041016 13.417281150817871 33.05192565917969 13.607699394226074 L33.05192565917969 13.607699394226074 C32.17359924316406 13.607699394226074 31.295270919799805 13.607699394226074 30.41694450378418 13.607699394226074 L30.41694450378418 13.607699394226074 C30.41694450378418 12.542680740356445 30.41694450378418 11.477663040161133 30.41694450378418 10.412644386291504 L30.41694450378418 10.412644386291504"></path></svg>