<svg xmlns="http://www.w3.org/2000/svg" viewBox="0.0 0.0 24.0 24.0" height="200px" width="200px"><path fill="none" stroke="black" stroke-width=".3" stroke-opacity="1.0"  filling="0" d="M14.83791732788086 11.78465461730957 L14.83791732788086 11.78465461730957 C14.861871719360352 11.818236351013184 14.88582706451416 11.851818084716797 14.909781455993652 11.88539981842041 L14.909781455993652 11.88539981842041 C14.830390930175781 11.889154434204102 14.750999450683594 11.892909049987793 14.671608924865723 11.896663665771484 L14.671608924865723 11.896663665771484 C14.679872512817383 11.934381484985352 14.688136100769043 11.972100257873535 14.696399688720703 12.009818077087402 L14.696399688720703 12.009818077087402 C14.679008483886719 12.08678150177002 14.66161823272705 12.163744926452637 14.644227027893066 12.240708351135254 L14.644227027893066 12.240708351135254 C14.620399475097656 12.241981506347656 14.596571922302246 12.243254661560059 14.572744369506836 12.244527816772461 L14.572744369506836 12.244527816772461 C14.579708099365234 12.104409217834473 14.586671829223633 11.9642915725708 14.593635559082031 11.824172973632812 L14.593635559082031 11.824172973632812 C14.675063133239746 11.810999870300293 14.756489753723145 11.79782772064209 14.83791732788086 11.78465461730957 L14.83791732788086 11.78465461730957"></path></svg>