<svg xmlns="http://www.w3.org/2000/svg" viewBox="0.0 0.0 24.0 24.0" height="200px" width="200px"><path fill="none" stroke="black" stroke-width=".3" stroke-opacity="1.0"  filling="0" d="M-0.7571725845336914 15.845672607421875 L-0.7571725845336914 15.845672607421875 C-0.5433859825134277 15.847264289855957 -0.3295934200286865 15.848428726196289 -0.11580085754394531 15.848428726196289 L-0.11580085754394531 15.848428726196289 C-0.22884027659893036 16.100662231445312 -0.4216054081916809 16.286277770996094 -0.5306997299194336 16.536134719848633 L-0.5306997299194336 16.536134719848633 C-0.3446998596191406 16.724098205566406 -0.15869998931884766 16.912063598632812 0.027299880981445312 17.100027084350586 L0.027299880981445312 17.100027084350586 C-0.21816378831863403 17.100017547607422 -0.46362751722335815 17.10000991821289 -0.7090911865234375 17.100000381469727 L-0.7090911865234375 17.100000381469727 C-0.8120465874671936 17.073156356811523 -0.9140507578849792 17.041372299194336 -1.0127458572387695 17.00162696838379 L-1.0127458572387695 17.00162696838379 C-0.8574733734130859 16.7845458984375 -0.7022008895874023 16.567462921142578 -0.5469284057617188 16.35038185119629 L-0.5469284057617188 16.35038185119629 C-0.7767696380615234 16.35823631286621 -1.0069528818130493 16.360000610351562 -1.2368459701538086 16.353845596313477 L-1.2368459701538086 16.353845596313477 C-1.1072535514831543 16.047035217285156 -1.0807424783706665 15.951172828674316 -0.7571725845336914 15.845672607421875 L-0.7571725845336914 15.845672607421875"></path></svg>