<svg xmlns="http://www.w3.org/2000/svg" viewBox="0.0 0.0 24.0 24.0" height="200px" width="200px"><path fill="none" stroke="black" stroke-width=".3" stroke-opacity="1.0"  filling="0" d="M7.780691146850586 9.359755516052246 L7.780691146850586 9.359755516052246 C9.401409149169922 9.594392776489258 7.8217267990112305 12.648886680603027 7.424073219299316 12.041292190551758 L7.424073219299316 12.041292190551758 C7.413982391357422 12.048791885375977 7.403891086578369 12.056290626525879 7.393800258636475 12.063790321350098 L7.393800258636475 12.063790321350098 C7.340508460998535 12.200224876403809 7.099552154541016 12.272592544555664 6.974728107452393 12.195955276489258 L6.974728107452393 12.195955276489258 C7.052460193634033 12.100968360900879 7.17333459854126 12.030036926269531 7.29507303237915 12.014400482177734 L7.29507303237915 12.014400482177734 C7.2994184494018555 12.003754615783691 7.3037638664245605 11.993109703063965 7.308109283447266 11.982463836669922 L7.308109283447266 11.982463836669922 C6.723284721374512 11.504754066467285 7.364104270935059 9.746973991394043 7.780691146850586 9.359755516052246 L7.780691146850586 9.359755516052246"></path>
<path fill="none" stroke="black" stroke-width=".3" stroke-opacity="1.0"  filling="0" d="M7.66369104385376 10.18519115447998 L7.66369104385376 10.18519115447998 C8.117656707763672 10.593320846557617 7.918357849121094 11.197043418884277 7.954472541809082 11.762591361999512 L7.954472541809082 11.762591361999512 C7.948981761932373 11.767882347106934 7.943490982055664 11.773173332214355 7.938000202178955 11.778464317321777 L7.938000202178955 11.778464317321777 C7.514119625091553 11.277403831481934 7.664461612701416 10.947722434997559 7.66369104385376 10.18519115447998 L7.66369104385376 10.18519115447998"></path></svg>