<svg xmlns="http://www.w3.org/2000/svg" viewBox="0.0 0.0 24.0 24.0" height="200px" width="200px"><path fill="none" stroke="black" stroke-width=".3" stroke-opacity="1.0"  filling="0" d="M13.714936256408691 10.092462539672852 L13.714936256408691 10.092462539672852 C13.88322925567627 10.249642372131348 13.799674987792969 10.547795295715332 13.799726486206055 10.77807331085205 L13.799726486206055 10.77807331085205 C13.006879806518555 10.715579986572266 12.979660987854004 11.592846870422363 13.745099067687988 11.59085464477539 L13.745099067687988 11.59085464477539 C13.745662689208984 11.823654174804688 13.74622631072998 12.0564546585083 13.746789932250977 12.289254188537598 L13.746789932250977 12.289254188537598 C13.585189819335938 12.283808708190918 13.423589706420898 12.278363227844238 13.26198959350586 12.272917747497559 L13.26198959350586 12.272917747497559 C13.223429679870605 12.689974784851074 13.60068130493164 14.2520112991333 12.892391204833984 14.114398956298828 L12.892391204833984 14.114398956298828 C12.904932022094727 12.774080276489258 12.917472839355469 11.433762550354004 12.930027961730957 10.09344482421875 L12.930027961730957 10.09344482421875 C13.191664695739746 10.09343433380127 13.45332145690918 10.095823287963867 13.714936256408691 10.092462539672852 L13.714936256408691 10.092462539672852"></path></svg>