<svg xmlns="http://www.w3.org/2000/svg" viewBox="0.0 0.0 24.0 24.0" height="200px" width="200px"><path fill="none" stroke="black" stroke-width=".3" stroke-opacity="1.0"  filling="0" d="M8.404747009277344 8.79553508758545 L8.404747009277344 8.79553508758545 C8.518810272216797 8.79553508758545 8.63287353515625 8.79553508758545 8.746936798095703 8.79553508758545 L8.746936798095703 8.79553508758545 C8.831303596496582 10.699858665466309 9.26994800567627 13.226285934448242 8.670001029968262 14.994217872619629 C8.457552909851074 15.620262145996094 7.683862686157227 15.113268852233887 7.5065460205078125 14.809144973754883 C7.128604412078857 14.160920143127441 7.446153163909912 13.309255599975586 7.445591449737549 12.55889892578125 C7.444656848907471 11.309985160827637 7.445655345916748 10.061088562011719 7.4454545974731445 8.812172889709473 L7.4454545974731445 8.812172889709473 C8.070727348327637 8.769932746887207 7.8214874267578125 9.355095863342285 7.828364372253418 9.810381889343262 C7.842425346374512 10.74129867553711 7.468109130859375 14.404586791992188 8.31891918182373 14.401117324829102 L8.31891918182373 14.401117324829102 C8.696150779724121 12.622468948364258 8.315691947937012 10.609189987182617 8.404747009277344 8.79553508758545 L8.404747009277344 8.79553508758545"></path></svg>