<svg xmlns="http://www.w3.org/2000/svg" viewBox="0.0 0.0 24.0 24.0" height="200px" width="200px"><path fill="none" stroke="black" stroke-width=".3" stroke-opacity="1.0"  filling="0" d="M12.2111177444458 9.111271858215332 L12.2111177444458 9.111271858215332 C12.74925422668457 9.668801307678223 13.243404388427734 10.272006034851074 13.686491012573242 10.907698631286621 L13.686491012573242 10.907698631286621 C13.136717796325684 11.834076881408691 12.238150596618652 12.7200927734375 11.424028396606445 13.433344841003418 L11.424028396606445 13.433344841003418 C11.966312408447266 13.910045623779297 12.513808250427246 14.039875984191895 13.179218292236328 14.239089012145996 L13.179218292236328 14.239089012145996 C12.769852638244629 15.924346923828125 10.436389923095703 16.223276138305664 9.58778190612793 14.697517395019531 C8.420931816101074 12.59957504272461 10.440407752990723 10.023914337158203 12.2111177444458 9.111271858215332 L12.2111177444458 9.111271858215332"></path>
<path fill="none" stroke="black" stroke-width=".3" stroke-opacity="1.0"  filling="0" d="M11.29889965057373 11.14680004119873 L11.29889965057373 11.14680004119873 C11.604118347167969 11.475127220153809 11.909337043762207 11.803455352783203 12.214555740356445 12.131782531738281 L12.214555740356445 12.131782531738281 C11.927931785583496 12.49535083770752 11.695304870605469 12.80906867980957 11.307655334472656 13.059409141540527 L11.307655334472656 13.059409141540527 C11.288400650024414 12.42838191986084 11.269145965576172 11.797354698181152 11.24989128112793 11.166327476501465 L11.24989128112793 11.166327476501465 C11.266227722167969 11.159818649291992 11.282563209533691 11.153308868408203 11.29889965057373 11.14680004119873 L11.29889965057373 11.14680004119873"></path></svg>