<svg xmlns="http://www.w3.org/2000/svg" viewBox="0.0 0.0 24.0 24.0" height="200px" width="200px"><path fill="none" stroke="black" stroke-width=".3" stroke-opacity="1.0"  filling="0" d="M9.956972122192383 8.756155967712402 L9.956972122192383 8.756155967712402 C10.081056594848633 8.763951301574707 10.205669403076172 8.771540641784668 10.329845428466797 8.765373229980469 L10.329845428466797 8.765373229980469 C10.33763599395752 9.035954475402832 10.345427513122559 9.306536674499512 10.353218078613281 9.577117919921875 L10.353218078613281 9.577117919921875 C10.13375473022461 9.577117919921875 9.914290428161621 9.577117919921875 9.69482707977295 9.577117919921875 L9.69482707977295 9.577117919921875 C9.5293550491333 10.022232055664062 9.680724143981934 10.677033424377441 9.681845664978027 11.154382705688477 L9.681845664978027 11.154382705688477 C9.900097846984863 11.154871940612793 10.119429588317871 11.152504920959473 10.336172103881836 11.178136825561523 L10.336172103881836 11.178136825561523 C10.335853576660156 11.395291328430176 10.37413501739502 11.615961074829102 10.335217475891113 11.82960033416748 C10.283872604370117 12.111458778381348 9.826334953308105 11.802399635314941 9.68282699584961 11.992937088012695 C9.601886749267578 12.10040283203125 9.679756164550781 14.266775131225586 9.687026977539062 14.398909568786621 L9.687026977539062 14.398909568786621 C9.912599563598633 14.398909568786621 10.138172149658203 14.398909568786621 10.363744735717773 14.398909568786621 L10.363744735717773 14.398909568786621 C10.363865852355957 14.456653594970703 10.48316478729248 15.165994644165039 10.235235214233398 15.211883544921875 C9.91625690460205 15.270923614501953 9.302026748657227 15.389556884765625 9.272972106933594 15.0664644241333 C9.138124465942383 13.566941261291504 9.272810935974121 11.973166465759277 9.27286434173584 10.466915130615234 C9.27291488647461 9.042349815368652 8.846933364868164 8.809457778930664 9.956972122192383 8.756155967712402 L9.956972122192383 8.756155967712402"></path></svg>