<svg xmlns="http://www.w3.org/2000/svg" viewBox="0.0 0.0 24.0 24.0" height="200px" width="200px"><path fill="none" stroke="black" stroke-width=".3" stroke-opacity="1.0"  filling="0" d="M12.478608131408691 6.741081714630127 L12.478608131408691 6.741081714630127 C12.970888137817383 6.951677322387695 13.570799827575684 9.206966400146484 12.987353324890137 9.382282257080078 C12.618782043457031 9.49303150177002 12.22021484375 9.445186614990234 11.836363792419434 9.472909927368164 L11.836363792419434 9.472909927368164 C11.835870742797852 8.856478691101074 11.197493553161621 9.008255004882812 11.726073265075684 10.066526412963867 C11.920340538024902 10.455469131469727 12.433409690856934 10.59678840637207 12.683018684387207 10.952754020690918 C13.532489776611328 12.164178848266602 13.613726615905762 15.415130615234375 13.003935813903809 16.68499183654785 C12.7151517868042 17.28636932373047 10.871829986572266 17.147119522094727 10.558935165405273 16.6390380859375 C10.095643043518066 15.886738777160645 10.179512023925781 14.355103492736816 10.309499740600586 13.511673927307129 C10.361775398254395 13.17248249053955 11.53614330291748 13.109118461608887 11.612344741821289 13.38204574584961 C11.692802429199219 13.670217514038086 11.616811752319336 14.219637870788574 11.61313533782959 14.534728050231934 L11.61313533782959 14.534728050231934 C12.171611785888672 14.654399871826172 12.002567291259766 13.748650550842285 11.9448823928833 13.378936767578125 C11.764119148254395 12.220380783081055 10.82574462890625 12.21492862701416 10.394017219543457 11.178435325622559 C10.096232414245605 10.463510513305664 9.842755317687988 7.440668106079102 10.600526809692383 6.910308837890625 C10.99679946899414 6.632960319519043 12.010377883911133 6.783563137054443 12.478608131408691 6.741081714630127 L12.478608131408691 6.741081714630127"></path></svg>