<svg xmlns="http://www.w3.org/2000/svg" viewBox="0.0 0.0 24.0 24.0" height="200px" width="200px"><path fill="none" stroke="black" stroke-width=".3" stroke-opacity="1.0"  filling="0" d="M2.7396554946899414 9.816272735595703 L2.7396554946899414 9.816272735595703 C3.3748908042907715 10.459513664245605 2.924804449081421 11.138862609863281 3.5389909744262695 11.764717102050781 L3.5389909744262695 11.764717102050781 C3.4231350421905518 11.945870399475098 3.2526183128356934 12.111459732055664 3.0512733459472656 12.1869535446167 L3.0512733459472656 12.1869535446167 C2.9889185428619385 12.1209077835083 2.9265639781951904 12.054862976074219 2.8642091751098633 11.98881721496582 L2.8642091751098633 11.98881721496582 C2.747936248779297 12.111771583557129 2.6316633224487305 12.234725952148438 2.515390396118164 12.357680320739746 L2.515390396118164 12.357680320739746 C1.5138661861419678 11.775612831115723 1.959871530532837 10.460559844970703 2.7396554946899414 9.816272735595703 L2.7396554946899414 9.816272735595703"></path>
<path fill="none" stroke="black" stroke-width=".3" stroke-opacity="1.0"  filling="0" d="M2.4490089416503906 10.450145721435547 L2.4490089416503906 10.450145721435547 C2.952066659927368 10.703757286071777 2.750587224960327 11.174883842468262 2.750699996948242 11.69010066986084 L2.750699996948242 11.69010066986084 C2.741018295288086 11.69576358795166 2.7313365936279297 11.701427459716797 2.7216548919677734 11.707090377807617 L2.7216548919677734 11.707090377807617 C2.6582727432250977 11.655336380004883 2.594890594482422 11.603581428527832 2.531508445739746 11.551827430725098 L2.531508445739746 11.551827430725098 C2.5040085315704346 11.184599876403809 2.476508855819702 10.817373275756836 2.4490089416503906 10.450145721435547 L2.4490089416503906 10.450145721435547"></path></svg>