<svg xmlns="http://www.w3.org/2000/svg" viewBox="0.0 0.0 24.0 24.0" height="200px" width="200px"><path fill="none" stroke="black" stroke-width=".3" stroke-opacity="1.0"  filling="0" d="M3.4393367767333984 20.514873504638672 L3.4393367767333984 20.514873504638672 C3.629363775253296 20.578155517578125 3.8193910121917725 20.641437530517578 4.00941801071167 20.70471954345703 L4.00941801071167 20.70471954345703 C3.9584033489227295 21.10342025756836 3.8506321907043457 21.49808120727539 3.8454551696777344 21.899999618530273 L3.8454551696777344 21.899999618530273 C3.718182325363159 21.899999618530273 3.590909242630005 21.899999618530273 3.4636363983154297 21.899999618530273 L3.4636363983154297 21.899999618530273 C3.470705986022949 21.590646743774414 3.5411458015441895 21.285953521728516 3.5865821838378906 20.979873657226562 L3.5865821838378906 20.979873657226562 C3.4331023693084717 21.090675354003906 3.14247727394104 21.779848098754883 3.081846237182617 21.900001525878906 L3.081846237182617 21.900001525878906 C2.936382293701172 21.900001525878906 2.7909183502197266 21.899999618530273 2.6454544067382812 21.899999618530273 L2.6454544067382812 21.899999618530273 C2.8034162521362305 21.595115661621094 3.0891036987304688 20.672636032104492 3.4393367767333984 20.514873504638672 L3.4393367767333984 20.514873504638672"></path></svg>