<svg xmlns="http://www.w3.org/2000/svg" viewBox="0.0 0.0 24.0 24.0" height="200px" width="200px"><path fill="none" stroke="black" stroke-width=".3" stroke-opacity="1.0"  filling="0" d="M7.385100364685059 10.039088249206543 L7.385100364685059 10.039088249206543 C8.055750846862793 10.049397468566895 8.150882720947266 10.476885795593262 8.04340934753418 11.099509239196777 L8.04340934753418 11.099509239196777 C7.838496685028076 11.099533081054688 7.788619041442871 10.704913139343262 7.584190845489502 10.690826416015625 C7.232357025146484 10.666581153869629 7.362785816192627 11.388204574584961 7.366609573364258 11.4097900390625 C7.419806480407715 11.710074424743652 7.862197399139404 11.427111625671387 7.986382007598877 11.690534591674805 C8.175786018371582 12.092302322387695 8.376352310180664 13.678300857543945 7.947764873504639 13.959980010986328 C7.012548923492432 14.574628829956055 7.000761985778809 13.312650680541992 7.005328178405762 12.71928882598877 L7.005328178405762 12.71928882598877 C7.094237327575684 12.711925506591797 7.183145999908447 12.704562187194824 7.272055149078369 12.697198867797852 L7.272055149078369 12.697198867797852 C7.3552565574646 13.777010917663574 7.920838832855225 13.376047134399414 7.771718978881836 12.325470924377441 L7.771718978881836 12.325470924377441 C6.837147235870361 12.10112190246582 6.635850429534912 10.637374877929688 7.385100364685059 10.039088249206543 L7.385100364685059 10.039088249206543"></path></svg>