<svg xmlns="http://www.w3.org/2000/svg" viewBox="0.0 0.0 24.0 24.0" height="200px" width="200px"><path fill="none" stroke="black" stroke-width=".3" stroke-opacity="1.0"  filling="0" d="M16.474964141845703 10.117745399475098 L16.474964141845703 10.117745399475098 C17.01519012451172 10.141203880310059 17.28152847290039 10.58881664276123 17.099998474121094 11.138099670410156 C16.873558044433594 11.823272705078125 16.454498291015625 10.327638626098633 16.44736099243164 11.005609512329102 C16.43576431274414 12.107388496398926 17.691946029663086 12.243526458740234 16.96142578125 14.022790908813477 C16.466896057128906 15.227276802062988 16.09099578857422 12.8387451171875 16.09090805053711 12.786763191223145 L16.09090805053711 12.786763191223145 C16.194700241088867 12.780517578125 16.298490524291992 12.774271965026855 16.40228271484375 12.768026351928711 L16.40228271484375 12.768026351928711 C16.432418823242188 13.003332138061523 16.51362419128418 13.270689010620117 16.703590393066406 13.41278076171875 L16.703590393066406 13.41278076171875 C16.686500549316406 13.050926208496094 16.669408798217773 12.689071655273438 16.652318954467773 12.327217102050781 L16.652318954467773 12.327217102050781 C15.764179229736328 12.324146270751953 15.932660102844238 10.45596694946289 16.474964141845703 10.117745399475098 L16.474964141845703 10.117745399475098"></path></svg>