<svg xmlns="http://www.w3.org/2000/svg" viewBox="0.0 0.0 24.0 24.0" height="200px" width="200px"><path fill="none" stroke="black" stroke-width=".3" stroke-opacity="1.0"  filling="0" d="M15.56634521484375 9.14236068725586 L15.56634521484375 9.14236068725586 C16.407119750976562 9.561708450317383 16.240882873535156 10.95160961151123 16.267309188842773 11.687616348266602 L16.267309188842773 11.687616348266602 C16.26305389404297 11.687735557556152 16.258800506591797 11.687853813171387 16.254545211791992 11.687973022460938 L16.254545211791992 11.687973022460938 C16.255022048950195 12.639904975891113 16.261137008666992 13.593024253845215 16.282745361328125 14.544708251953125 C16.319068908691406 16.144445419311523 16.076763153076172 16.743242263793945 14.539963722229004 16.822908401489258 C14.331648826599121 16.833707809448242 14.073576927185059 16.86932373046875 13.921172142028809 16.6572265625 C12.956049919128418 15.314095497131348 13.399372100830078 12.208842277526855 13.445728302001953 10.724042892456055 C13.455412864685059 10.413851737976074 13.50738525390625 9.664406776428223 13.802727699279785 9.391334533691406 C14.149923324584961 9.070318222045898 15.175881385803223 9.164582252502441 15.56634521484375 9.14236068725586 L15.56634521484375 9.14236068725586"></path>
<path fill="none" stroke="black" stroke-width=".3" stroke-opacity="1.0"  filling="0" d="M15.006545066833496 11.224908828735352 L15.006545066833496 11.224908828735352 C15.064716339111328 11.569865226745605 15.052103042602539 11.923456192016602 15.054954528808594 12.273271560668945 C15.057888984680176 12.633293151855469 15.063333511352539 12.993289947509766 15.067574501037598 13.353299140930176 C15.10986042022705 16.942977905273438 13.991867065429688 11.416020393371582 15.006545066833496 11.224908828735352 L15.006545066833496 11.224908828735352"></path></svg>