<svg xmlns="http://www.w3.org/2000/svg" viewBox="0.0 0.0 24.0 24.0" height="200px" width="200px"><path fill="none" stroke="black" stroke-width=".3" stroke-opacity="1.0"  filling="0" d="M7.259017467498779 12.408356666564941 L7.259017467498779 12.408356666564941 C7.425681114196777 12.569755554199219 7.592345237731934 12.731155395507812 7.759008884429932 12.89255428314209 L7.759008884429932 12.89255428314209 C7.5005316734313965 13.399580955505371 7.423337459564209 13.771551132202148 7.769154071807861 14.253545761108398 L7.769154071807861 14.253545761108398 C7.721527099609375 14.33521842956543 7.6738996505737305 14.416891098022461 7.626272678375244 14.498563766479492 L7.626272678375244 14.498563766479492 C7.479899883270264 14.573063850402832 7.333527088165283 14.647564888000488 7.187154293060303 14.722064971923828 L7.187154293060303 14.722064971923828 C7.080454349517822 14.623982429504395 6.973753929138184 14.525900840759277 6.867053985595703 14.427818298339844 L6.867053985595703 14.427818298339844 C7.092605113983154 13.911580085754395 7.150147914886475 13.385516166687012 6.798708438873291 12.914375305175781 L6.798708438873291 12.914375305175781 C6.93575382232666 12.695160865783691 7.083868503570557 12.592398643493652 7.259017467498779 12.408356666564941 L7.259017467498779 12.408356666564941"></path></svg>