<svg xmlns="http://www.w3.org/2000/svg" viewBox="0.0 0.0 24.0 24.0" height="200px" width="200px"><path fill="none" stroke="black" stroke-width=".3" stroke-opacity="1.0"  filling="0" d="M-8.335090637207031 15.739063262939453 L-8.335090637207031 15.739063262939453 C-8.231499671936035 15.902100563049316 -8.127909660339355 16.06513786315918 -8.02431869506836 16.228174209594727 L-8.02431869506836 16.228174209594727 C-7.879700183868408 16.074983596801758 -7.735082149505615 15.921792030334473 -7.590463638305664 15.768600463867188 L-7.590463638305664 15.768600463867188 C-7.273815155029297 16.140913009643555 -7.363332748413086 16.641433715820312 -7.363611221313477 17.100055694580078 L-7.363611221313477 17.100055694580078 C-7.509065628051758 17.100055694580078 -7.654520034790039 17.100055694580078 -7.79997444152832 17.100055694580078 L-7.79997444152832 17.100055694580078 C-7.802662372589111 16.634443283081055 -7.707714557647705 16.562637329101562 -8.045400619506836 16.29062843322754 L-8.045400619506836 16.29062843322754 C-8.045400619506836 16.56044578552246 -8.045400619506836 16.830265045166016 -8.045400619506836 17.100082397460938 L-8.045400619506836 17.100082397460938 C-8.181782722473145 17.100055694580078 -8.318163871765137 17.100027084350586 -8.454545974731445 17.100000381469727 L-8.454545974731445 17.100000381469727 C-8.475532531738281 16.667739868164062 -8.365696907043457 16.478696823120117 -8.715354919433594 16.249881744384766 L-8.715354919433594 16.249881744384766 C-8.588600158691406 16.079608917236328 -8.461845397949219 15.90933609008789 -8.335090637207031 15.739063262939453 L-8.335090637207031 15.739063262939453"></path></svg>