<svg xmlns="http://www.w3.org/2000/svg" viewBox="0.0 0.0 24.0 24.0" height="200px" width="200px"><path fill="none" stroke="black" stroke-width=".3" stroke-opacity="1.0"  filling="0" d="M3.3912553787231445 12.436226844787598 L3.3912553787231445 12.436226844787598 C4.26168155670166 12.793692588806152 3.329425096511841 13.700895309448242 4.051582336425781 14.171453475952148 L4.051582336425781 14.171453475952148 C3.8112704753875732 14.631357192993164 3.6727046966552734 14.678007125854492 3.306436538696289 14.356471061706543 L3.306436538696289 14.356471061706543 C3.4052202701568604 13.933074951171875 3.3569962978363037 13.53860092163086 3.356318473815918 13.101517677307129 L3.356318473815918 13.101517677307129 C3.2620365619659424 13.033299446105957 3.167754888534546 12.965081214904785 3.0734729766845703 12.896862983703613 L3.0734729766845703 12.896862983703613 C2.940910577774048 13.406384468078613 2.908299446105957 13.889121055603027 3.227972984313965 14.294890403747559 L3.227972984313965 14.294890403747559 C2.250229835510254 15.451473236083984 2.0258736610412598 11.772866249084473 3.0923728942871094 12.806262969970703 L3.0923728942871094 12.806262969970703 C3.192000389099121 12.682917594909668 3.291627883911133 12.559572219848633 3.3912553787231445 12.436226844787598 L3.3912553787231445 12.436226844787598"></path></svg>