<svg xmlns="http://www.w3.org/2000/svg" viewBox="0.0 0.0 24.0 24.0" height="200px" width="200px"><path fill="none" stroke="black" stroke-width=".3" stroke-opacity="1.0"  filling="0" d="M9.3319091796875 10.225635528564453 L9.3319091796875 10.225635528564453 C9.628899574279785 10.225635528564453 9.925890922546387 10.225635528564453 10.222881317138672 10.225635528564453 L10.222881317138672 10.225635528564453 C10.222881317138672 10.407272338867188 10.222881317138672 10.588909149169922 10.222881317138672 10.770545959472656 L10.222881317138672 10.770545959472656 C10.022708892822266 10.770545959472656 9.822535514831543 10.770545959472656 9.622363090515137 10.770545959472656 L9.622363090515137 10.770545959472656 C9.622363090515137 11.049155235290527 9.622363090515137 11.327764511108398 9.622363090515137 11.60637378692627 L9.622363090515137 11.60637378692627 C9.816617965698242 11.60637378692627 10.010871887207031 11.60637378692627 10.205126762390137 11.60637378692627 L10.205126762390137 11.60637378692627 C10.19102668762207 11.828310012817383 10.176926612854004 12.050246238708496 10.162826538085938 12.27218246459961 L10.162826538085938 12.27218246459961 C9.984999656677246 12.27218246459961 9.807171821594238 12.27218246459961 9.629344940185547 12.27218246459961 L9.629344940185547 12.27218246459961 C9.620890617370605 12.587059020996094 9.51009750366211 12.915034294128418 9.60068130493164 13.216718673706055 C9.68942642211914 13.51228141784668 10.197545051574707 13.614243507385254 10.199426651000977 13.922836303710938 L10.199426651000977 13.922836303710938 C9.903308868408203 13.922836303710938 9.607190132141113 13.922836303710938 9.31107234954834 13.922836303710938 L9.31107234954834 13.922836303710938 C9.118736267089844 12.740812301635742 9.279655456542969 11.41402530670166 9.3319091796875 10.225635528564453 L9.3319091796875 10.225635528564453"></path></svg>