<svg xmlns="http://www.w3.org/2000/svg" viewBox="0.0 0.0 24.0 24.0" height="200px" width="200px"><path fill="none" stroke="black" stroke-width=".3" stroke-opacity="1.0"  filling="0" d="M5.578036308288574 10.737109184265137 L5.578036308288574 10.737109184265137 C5.671070575714111 10.834659576416016 5.763466835021973 10.932820320129395 5.8554277420043945 11.03138256072998 L5.8554277420043945 11.03138256072998 C6.437841892242432 10.72265625 6.548809051513672 10.691792488098145 6.991390705108643 11.239337921142578 L6.991390705108643 11.239337921142578 C6.828608989715576 11.638463973999023 7.21964168548584 13.838861465454102 5.914963722229004 13.580617904663086 C4.742924213409424 13.348628044128418 6.003882884979248 11.553807258605957 5.107717990875244 11.168264389038086 L5.107717990875244 11.168264389038086 C5.264490604400635 11.024545669555664 5.421263694763184 10.880827903747559 5.578036308288574 10.737109184265137 L5.578036308288574 10.737109184265137"></path>
<path fill="none" stroke="black" stroke-width=".3" stroke-opacity="1.0"  filling="0" d="M6.1061177253723145 11.08974552154541 L6.1061177253723145 11.08974552154541 C6.595762252807617 11.629284858703613 6.462233543395996 12.560186386108398 6.342818260192871 13.239954948425293 L6.342818260192871 13.239954948425293 C5.754624366760254 12.784516334533691 6.107181072235107 11.846497535705566 5.9718546867370605 11.208300590515137 L5.9718546867370605 11.208300590515137 C6.016609191894531 11.168782234191895 6.061363220214844 11.129263877868652 6.1061177253723145 11.08974552154541 L6.1061177253723145 11.08974552154541"></path></svg>