<svg xmlns="http://www.w3.org/2000/svg" viewBox="0.0 0.0 24.0 24.0" height="200px" width="200px"><path fill="none" stroke="black" stroke-width=".3" stroke-opacity="1.0"  filling="0" d="M14.774972915649414 9.200126647949219 L14.774972915649414 9.200126647949219 C14.808917999267578 9.200126647949219 14.842864036560059 9.200126647949219 14.876809120178223 9.200126647949219 L14.876809120178223 9.200126647949219 C14.876809120178223 9.405826568603516 14.876809120178223 9.611526489257812 14.876809120178223 9.81722640991211 L14.876809120178223 9.81722640991211 C14.96679973602295 9.702908515930176 15.056790351867676 9.588590621948242 15.146780967712402 9.474272727966309 L15.146780967712402 9.474272727966309 C15.74743366241455 10.302031517028809 15.60138988494873 11.417488098144531 14.90999984741211 12.138191223144531 L14.90999984741211 12.138191223144531 C14.898499488830566 12.13372802734375 14.886999130249023 12.129263877868652 14.87549877166748 12.124800682067871 L14.87549877166748 12.124800682067871 C14.88501262664795 11.553818702697754 15.396875381469727 10.681185722351074 14.911745071411133 10.146600723266602 L14.911745071411133 10.146600723266602 C14.37060546875 10.72135066986084 15.322732925415039 11.377545356750488 14.691218376159668 11.925572395324707 L14.691218376159668 11.925572395324707 C13.988824844360352 11.420586585998535 14.341893196105957 9.744180679321289 14.774972915649414 9.200126647949219 L14.774972915649414 9.200126647949219"></path></svg>