<svg xmlns="http://www.w3.org/2000/svg" viewBox="0.0 0.0 24.0 24.0" height="200px" width="200px"><path fill="none" stroke="black" stroke-width=".3" stroke-opacity="1.0"  filling="0" d="M9.869508743286133 12.142607688903809 L9.869508743286133 12.142607688903809 C10.185799598693848 12.142607688903809 10.502091407775879 12.142607688903809 10.818382263183594 12.142607688903809 L10.818382263183594 12.142607688903809 C10.70694351196289 12.359834671020508 10.593815803527832 12.57758617401123 10.455981254577637 12.779099464416504 L10.455981254577637 12.779099464416504 C11.852545738220215 13.68600845336914 9.7902250289917 14.846320152282715 9.614399909973145 14.255889892578125 L9.614399909973145 14.255889892578125 C10.562418937683105 14.463415145874023 10.722630500793457 13.210206985473633 9.803045272827148 13.416979789733887 L9.803045272827148 13.416979789733887 C9.909346580505371 13.20674991607666 10.038399696350098 13.007046699523926 10.183036804199219 12.821098327636719 L10.183036804199219 12.821098327636719 C9.987406730651855 12.799245834350586 9.792069435119629 12.774699211120605 9.597000122070312 12.748308181762695 L9.597000122070312 12.748308181762695 C9.687836647033691 12.546407699584961 9.778672218322754 12.344508171081543 9.869508743286133 12.142607688903809 L9.869508743286133 12.142607688903809"></path></svg>