<svg xmlns="http://www.w3.org/2000/svg" viewBox="0.0 0.0 24.0 24.0" height="200px" width="200px"><path fill="none" stroke="black" stroke-width=".3" stroke-opacity="1.0"  filling="0" d="M15.245454788208008 8.754545211791992 L15.245454788208008 8.754545211791992 C14.60535717010498 9.262970924377441 14.200010299682617 8.738255500793457 13.712481498718262 9.114872932434082 L13.712481498718262 9.114872932434082 C13.582072257995605 9.035645484924316 13.451663970947266 8.956418991088867 13.32125473022461 8.877191543579102 L13.32125473022461 8.877191543579102 C13.144757270812988 9.04636001586914 12.78441047668457 8.998170852661133 12.588245391845703 8.852264404296875 L12.588245391845703 8.852264404296875 C12.267000198364258 9.085522651672363 12.246246337890625 9.272393226623535 11.855672836303711 8.988436698913574 L11.855672836303711 8.988436698913574 C11.609614372253418 9.286466598510742 11.392439842224121 9.207277297973633 11.134307861328125 8.943081855773926 L11.134307861328125 8.943081855773926 C11.058453559875488 9.039191246032715 10.982598304748535 9.135299682617188 10.906744003295898 9.231409072875977 L10.906744003295898 9.231409072875977 C10.571269989013672 9.188435554504395 10.365251541137695 9.052351951599121 10.2273530960083 8.754572868347168 L10.2273530960083 8.754572868347168 C11.900053024291992 8.75455379486084 13.57275390625 8.754546165466309 15.245454788208008 8.754545211791992 L15.245454788208008 8.754545211791992"></path></svg>