<svg xmlns="http://www.w3.org/2000/svg" viewBox="0.0 0.0 24.0 24.0" height="200px" width="200px"><path fill="none" stroke="black" stroke-width=".3" stroke-opacity="1.0"  filling="0" d="M9.555354118347168 9.435626983642578 L9.555354118347168 9.435626983642578 C9.71764850616455 9.454368591308594 9.846598625183105 9.470222473144531 9.998291015625 9.49609088897705 L9.998291015625 9.49609088897705 C9.878189086914062 9.97059154510498 9.654679298400879 9.9530611038208 9.231382369995117 9.954654693603516 L9.231382369995117 9.954654693603516 C9.195245742797852 10.035964012145996 9.159109115600586 10.11727237701416 9.12297248840332 10.19858169555664 L9.12297248840332 10.19858169555664 C9.375772476196289 10.19858169555664 9.628572463989258 10.19858169555664 9.881372451782227 10.19858169555664 L9.881372451782227 10.19858169555664 C9.724209785461426 10.463722229003906 9.371795654296875 10.65317440032959 9.064335823059082 10.631536483764648 L9.064335823059082 10.631536483764648 C9.108226776123047 11.129219055175781 9.07498836517334 11.274129867553711 9.527154922485352 11.470226287841797 L9.527154922485352 11.470226287841797 C9.576018333435059 11.463208198547363 9.62488079071045 11.45619010925293 9.673744201660156 11.449172019958496 L9.673744201660156 11.449172019958496 C9.541471481323242 11.62229061126709 9.409199714660645 11.795408248901367 9.27692699432373 11.968526840209961 L9.27692699432373 11.968526840209961 C8.349686622619629 11.314874649047852 8.407268524169922 9.973615646362305 9.555354118347168 9.435626983642578 L9.555354118347168 9.435626983642578"></path></svg>