<svg xmlns="http://www.w3.org/2000/svg" viewBox="0.0 0.0 24.0 24.0" height="200px" width="200px"><path fill="none" stroke="black" stroke-width=".3" stroke-opacity="1.0"  filling="0" d="M4.636391639709473 8.454519271850586 L4.636391639709473 8.454519271850586 C4.7727460861206055 8.454527854919434 4.90910005569458 8.454537391662598 5.045454502105713 8.454545974731445 L5.045454502105713 8.454545974731445 C4.914129257202148 8.796642303466797 4.786263465881348 9.056742668151855 4.512982368469238 9.310964584350586 L4.512982368469238 9.310964584350586 C4.10595178604126 9.069906234741211 3.86733341217041 8.921372413635254 3.8181819915771484 8.454545974731445 L3.8181819915771484 8.454545974731445 C4.0 8.454545974731445 4.181818008422852 8.454545974731445 4.363636016845703 8.454545974731445 L4.363636016845703 8.454545974731445 C4.440972328186035 8.526891708374023 4.518308639526367 8.599236488342285 4.595644950866699 8.671582221984863 L4.595644950866699 8.671582221984863 C4.606081485748291 8.667510032653809 4.616518020629883 8.663436889648438 4.626954555511475 8.659364700317383 L4.626954555511475 8.659364700317383 C4.630100250244141 8.591082572937012 4.633245944976807 8.522801399230957 4.636391639709473 8.454519271850586 L4.636391639709473 8.454519271850586"></path></svg>