<svg xmlns="http://www.w3.org/2000/svg" viewBox="0.0 0.0 24.0 24.0" height="200px" width="200px"><path fill="none" stroke="black" stroke-width=".3" stroke-opacity="1.0"  filling="0" d="M2.1706361770629883 10.714226722717285 L2.1706361770629883 10.714226722717285 C2.6987290382385254 11.152761459350586 3.0981523990631104 12.759329795837402 2.8240623474121094 13.278599739074707 C2.610081195831299 13.683992385864258 2.076519250869751 13.579399108886719 2.058272361755371 13.092353820800781 C2.0371198654174805 12.527746200561523 2.062371015548706 11.96108341217041 2.018073081970215 11.397818565368652 L2.018073081970215 11.397818565368652 C1.6005395650863647 11.038603782653809 1.5324304103851318 12.917558670043945 2.0043277740478516 13.214345932006836 L2.0043277740478516 13.214345932006836 C1.8327093124389648 13.369046211242676 1.6610908508300781 13.523746490478516 1.4894723892211914 13.678446769714355 L1.4894723892211914 13.678446769714355 C1.3242086172103882 13.504992485046387 1.1589447259902954 13.331537246704102 0.9936809539794922 13.158082962036133 L0.9936809539794922 13.158082962036133 C1.2390049695968628 12.2828369140625 0.6875751614570618 11.331853866577148 1.2228546142578125 10.732746124267578 L1.2228546142578125 10.732746124267578 C1.3759273290634155 10.85770034790039 1.528999924659729 10.98265552520752 1.682072639465332 11.107609748840332 L1.682072639465332 11.107609748840332 C1.844927191734314 10.976482391357422 2.007781744003296 10.845354080200195 2.1706361770629883 10.714226722717285 L2.1706361770629883 10.714226722717285"></path></svg>