<svg xmlns="http://www.w3.org/2000/svg" viewBox="0.0 0.0 24.0 24.0" height="200px" width="200px"><path fill="none" stroke="black" stroke-width=".3" stroke-opacity="1.0"  filling="0" d="M14.947063446044922 10.554764747619629 L14.947063446044922 10.554764747619629 C14.957027435302734 10.557037353515625 14.966991424560547 10.559310913085938 14.97695541381836 10.561583518981934 L14.97695541381836 10.561583518981934 C14.967328071594238 10.74003791809082 14.9576997756958 10.918492317199707 14.94807243347168 11.096946716308594 L14.94807243347168 11.096946716308594 C15.198670387268066 10.861954689025879 15.21301555633545 10.868977546691895 15.40911865234375 11.15449333190918 L15.40911865234375 11.15449333190918 C15.409109115600586 11.790874481201172 15.409100532531738 12.427254676818848 15.409090995788574 13.06363582611084 L15.409090995788574 13.06363582611084 C15.280887603759766 13.251676559448242 15.115846633911133 13.414448738098145 14.943218231201172 13.562755584716797 L14.943218231201172 13.562755584716797 C15.003427505493164 13.3832368850708 15.063636779785156 13.203719139099121 15.123846054077148 13.024200439453125 L15.123846054077148 13.024200439453125 C14.891769409179688 13.111568450927734 14.589509010314941 13.185623168945312 14.380444526672363 13.052263259887695 L14.380444526672363 13.052263259887695 C14.670402526855469 12.442008972167969 14.509057998657227 11.615774154663086 14.509117126464844 10.94255542755127 L14.509117126464844 10.94255542755127 C14.655098915100098 10.813291549682617 14.801081657409668 10.684028625488281 14.947063446044922 10.554764747619629 L14.947063446044922 10.554764747619629"></path>
<path fill="none" stroke="black" stroke-width=".3" stroke-opacity="1.0"  filling="0" d="M14.976163864135742 11.513482093811035 L14.976163864135742 11.513482093811035 C15.000097274780273 11.770833015441895 15.134687423706055 12.528899192810059 15.044754981994629 12.865172386169434 L15.044754981994629 12.865172386169434 C14.666844367980957 12.729961395263672 14.832956314086914 11.829483032226562 14.976163864135742 11.513482093811035 L14.976163864135742 11.513482093811035"></path></svg>