<svg xmlns="http://www.w3.org/2000/svg" viewBox="0.0 0.0 24.0 24.0" height="200px" width="200px"><path fill="none" stroke="black" stroke-width=".3" stroke-opacity="1.0"  filling="0" d="M3.5240182876586914 9.141164779663086 L3.5240182876586914 9.141164779663086 C3.513636350631714 9.318201065063477 3.5032541751861572 9.495237350463867 3.4928722381591797 9.672273635864258 L3.4928722381591797 9.672273635864258 C3.499917984008789 9.677618980407715 3.5069637298583984 9.682965278625488 3.514009475708008 9.688310623168945 L3.514009475708008 9.688310623168945 C4.187748432159424 9.045991897583008 4.0600266456604 11.647401809692383 3.522463798522949 12.176591873168945 L3.522463798522949 12.176591873168945 C3.5144364833831787 12.167291641235352 3.506408929824829 12.157990455627441 3.4983816146850586 12.148690223693848 L3.4983816146850586 12.148690223693848 C3.5532453060150146 11.987500190734863 3.6081087589263916 11.826309204101562 3.6629724502563477 11.665119171142578 L3.6629724502563477 11.665119171142578 C3.654726982116699 11.657210350036621 3.646481513977051 11.649300575256348 3.6382360458374023 11.64139175415039 L3.6382360458374023 11.64139175415039 C3.4270379543304443 11.74376392364502 3.1240508556365967 11.792098999023438 2.9342451095581055 11.654046058654785 L2.9342451095581055 11.654046058654785 C3.3502609729766846 10.715872764587402 2.6129236221313477 9.793827056884766 3.5240182876586914 9.141164779663086 L3.5240182876586914 9.141164779663086"></path>
<path fill="none" stroke="black" stroke-width=".3" stroke-opacity="1.0"  filling="0" d="M3.526036262512207 10.098873138427734 L3.526036262512207 10.098873138427734 C3.550954580307007 10.403427124023438 3.5763776302337646 10.707941055297852 3.6007909774780273 11.01253604888916 C3.691019058227539 12.138279914855957 3.307433605194092 10.512269020080566 3.526036262512207 10.098873138427734 L3.526036262512207 10.098873138427734"></path></svg>