<svg xmlns="http://www.w3.org/2000/svg" viewBox="0.0 0.0 24.0 24.0" height="200px" width="200px"><path fill="none" stroke="black" stroke-width=".3" stroke-opacity="1.0"  filling="0" d="M12.769636154174805 11.789344787597656 L12.769636154174805 11.789344787597656 C12.84156322479248 11.841035842895508 12.913491249084473 11.89272689819336 12.985418319702148 11.944417953491211 L12.985418319702148 11.944417953491211 C13.083000183105469 11.910663604736328 13.180581092834473 11.876909255981445 13.278162956237793 11.843154907226562 L13.278162956237793 11.843154907226562 C13.258565902709961 11.979740142822266 13.308354377746582 12.205896377563477 13.175808906555176 12.244254112243652 L13.175808906555176 12.244254112243652 C13.175808906555176 12.126581192016602 13.175808906555176 12.008909225463867 13.175808906555176 11.891236305236816 L13.175808906555176 11.891236305236816 C13.110881805419922 11.947063446044922 13.045954704284668 12.002890586853027 12.981027603149414 12.058717727661133 L12.981027603149414 12.058717727661133 C12.939072608947754 12.021772384643555 12.89711856842041 11.984827041625977 12.85516357421875 11.947881698608398 L12.85516357421875 11.947881698608398 C12.835126876831055 12.048145294189453 12.815091133117676 12.148408889770508 12.79505443572998 12.248672485351562 L12.79505443572998 12.248672485351562 C12.685181617736816 12.141704559326172 12.759452819824219 11.942349433898926 12.769636154174805 11.789344787597656 L12.769636154174805 11.789344787597656"></path></svg>