<svg xmlns="http://www.w3.org/2000/svg" viewBox="0.0 0.0 24.0 24.0" height="200px" width="200px"><path fill="none" stroke="black" stroke-width=".3" stroke-opacity="1.0"  filling="0" d="M14.268791198730469 11.804072380065918 L14.268791198730469 11.804072380065918 C14.265154838562012 11.958590507507324 14.261518478393555 12.113109588623047 14.257882118225098 12.267627716064453 L14.257882118225098 12.267627716064453 C14.156563758850098 12.171409606933594 14.055246353149414 12.075191497802734 13.953927993774414 11.978973388671875 L13.953927993774414 11.978973388671875 C13.942364692687988 11.981390953063965 13.930800437927246 11.983809471130371 13.91923713684082 11.986227035522461 L13.91923713684082 11.986227035522461 C13.913427352905273 12.073308944702148 13.907618522644043 12.160390853881836 13.901808738708496 12.247472763061523 L13.901808738708496 12.247472763061523 C13.776649475097656 12.169597625732422 13.848051071166992 11.955048561096191 13.854517936706543 11.807781219482422 L13.854517936706543 11.807781219482422 C13.968581199645996 11.894026756286621 14.082645416259766 11.98027229309082 14.196708679199219 12.06651782989502 L14.196708679199219 12.06651782989502 C14.220736503601074 11.979036331176758 14.244763374328613 11.89155387878418 14.268791198730469 11.804072380065918 L14.268791198730469 11.804072380065918"></path></svg>