<svg xmlns="http://www.w3.org/2000/svg" viewBox="0.0 0.0 24.0 24.0" height="200px" width="200px"><path fill="none" stroke="black" stroke-width=".3" stroke-opacity="1.0"  filling="0" d="M11.763763427734375 11.818446159362793 L11.763763427734375 11.818446159362793 C11.870491027832031 11.818446159362793 11.977218627929688 11.818446159362793 12.083946228027344 11.818446159362793 L12.083946228027344 11.818446159362793 C12.07347297668457 11.861801147460938 12.063000679016113 11.905155181884766 12.05252742767334 11.94851016998291 L12.05252742767334 11.94851016998291 C11.98101806640625 11.9517822265625 11.90950870513916 11.955055236816406 11.83799934387207 11.958327293395996 L11.83799934387207 11.958327293395996 C11.90719985961914 11.995972633361816 11.976399421691895 12.033617973327637 12.045599937438965 12.071263313293457 L12.045599937438965 12.071263313293457 C11.977654457092285 12.077045440673828 11.909708976745605 12.082826614379883 11.841763496398926 12.088608741760254 L11.841763496398926 12.088608741760254 C11.841763496398926 12.121417999267578 11.841763496398926 12.154227256774902 11.841763496398926 12.187036514282227 L11.841763496398926 12.187036514282227 C11.934890747070312 12.187036514282227 12.0280179977417 12.187036514282227 12.121145248413086 12.187036514282227 L12.121145248413086 12.187036514282227 C12.127663612365723 12.195791244506836 12.134181022644043 12.204545974731445 12.14069938659668 12.213300704956055 L12.14069938659668 12.213300704956055 C12.040486335754395 12.320470809936523 11.898950576782227 12.266460418701172 11.763763427734375 12.260509490966797 L11.763763427734375 12.260509490966797 C11.763763427734375 12.113155364990234 11.763763427734375 11.965800285339355 11.763763427734375 11.818446159362793 L11.763763427734375 11.818446159362793"></path></svg>