<svg xmlns="http://www.w3.org/2000/svg" viewBox="0.0 0.0 24.0 24.0" height="200px" width="200px"><path fill="none" stroke="black" stroke-width=".3" stroke-opacity="1.0"  filling="0" d="M13.581846237182617 10.145427703857422 L13.581846237182617 10.145427703857422 C13.586417198181152 10.145427703857422 15.595443725585938 10.145454406738281 15.600000381469727 10.145454406738281 L15.600000381469727 10.145454406738281 C15.626590728759766 10.181099891662598 15.653182029724121 10.216745376586914 15.67977237701416 10.25239086151123 L15.67977237701416 10.25239086151123 C15.532244682312012 10.400727272033691 15.38471794128418 10.549062728881836 15.237190246582031 10.697399139404297 L15.237190246582031 10.697399139404297 C15.145099639892578 10.578226089477539 15.053009033203125 10.459053993225098 14.960918426513672 10.33988094329834 L14.960918426513672 10.33988094329834 C14.76906681060791 10.502141952514648 14.411252975463867 10.576244354248047 14.211763381958008 10.42347240447998 L14.211763381958008 10.42347240447998 C13.926173210144043 10.774672508239746 13.846231460571289 10.800153732299805 13.497272491455078 10.396090507507324 L13.497272491455078 10.396090507507324 C13.525464057922363 10.312536239624023 13.553654670715332 10.228981971740723 13.581846237182617 10.145427703857422 L13.581846237182617 10.145427703857422"></path></svg>