<svg xmlns="http://www.w3.org/2000/svg" viewBox="0.0 0.0 24.0 24.0" height="200px" width="200px"><path fill="none" stroke="black" stroke-width=".3" stroke-opacity="1.0"  filling="0" d="M14.310382843017578 11.753454208374023 L14.310382843017578 11.753454208374023 C14.328864097595215 11.759554862976074 14.347346305847168 11.765654563903809 14.365827560424805 11.77175521850586 L14.365827560424805 11.77175521850586 C14.33583927154541 11.946091651916504 14.241645812988281 12.104307174682617 14.156946182250977 12.25960922241211 L14.156946182250977 12.25960922241211 C14.12606430053711 12.209054946899414 14.095182418823242 12.158499717712402 14.064300537109375 12.107945442199707 L14.064300537109375 12.107945442199707 C14.020054817199707 12.16147232055664 13.975810050964355 12.21500015258789 13.931564331054688 12.268527030944824 L13.931564331054688 12.268527030944824 C13.849700927734375 12.12126350402832 13.767836570739746 11.973999977111816 13.685973167419434 11.826736450195312 L13.685973167419434 11.826736450195312 C13.717637062072754 11.811363220214844 13.749300003051758 11.795990943908691 13.780963897705078 11.780617713928223 L13.780963897705078 11.780617713928223 C13.830118179321289 11.887018203735352 13.879273414611816 11.993417739868164 13.928427696228027 12.099818229675293 L13.928427696228027 12.099818229675293 C13.976609230041504 12.043608665466309 14.02479076385498 11.98740005493164 14.072972297668457 11.931190490722656 L14.072972297668457 11.931190490722656 C14.101318359375 11.978517532348633 14.129663467407227 12.025845527648926 14.15800952911377 12.073172569274902 L14.15800952911377 12.073172569274902 C14.208800315856934 11.966599464416504 14.259592056274414 11.860027313232422 14.310382843017578 11.753454208374023 L14.310382843017578 11.753454208374023"></path></svg>