<svg xmlns="http://www.w3.org/2000/svg" viewBox="0.0 0.0 24.0 24.0" height="200px" width="200px"><path fill="none" stroke="black" stroke-width=".3" stroke-opacity="1.0"  filling="0" d="M12.530017852783203 11.750782012939453 L12.530017852783203 11.750782012939453 C12.608654022216797 11.898263931274414 12.687291145324707 12.045744895935059 12.7659273147583 12.19322681427002 L12.7659273147583 12.19322681427002 C12.719809532165527 12.162726402282715 12.673690795898438 12.132226943969727 12.627573013305664 12.101726531982422 L12.627573013305664 12.101726531982422 C12.592118263244629 12.14319896697998 12.556663513183594 12.184672355651855 12.521208763122559 12.226144790649414 L12.521208763122559 12.226144790649414 C12.478508949279785 12.187981605529785 12.435808181762695 12.14981746673584 12.393108367919922 12.111654281616211 L12.393108367919922 12.111654281616211 C12.370254516601562 12.143009185791016 12.347399711608887 12.174363136291504 12.324545860290527 12.205718040466309 L12.324545860290527 12.205718040466309 C12.146233558654785 12.169660568237305 12.364258766174316 11.791955947875977 12.530017852783203 11.750782012939453 L12.530017852783203 11.750782012939453"></path>
<path fill="none" stroke="black" stroke-width=".3" stroke-opacity="1.0"  filling="0" d="M12.51556396484375 11.914337158203125 L12.51556396484375 11.914337158203125 C12.516509056091309 11.972609519958496 12.517455101013184 12.030882835388184 12.518400192260742 12.089155197143555 L12.518400192260742 12.089155197143555 C12.517455101013184 12.030882835388184 12.516509056091309 11.972609519958496 12.51556396484375 11.914337158203125 L12.51556396484375 11.914337158203125"></path></svg>