<svg xmlns="http://www.w3.org/2000/svg" viewBox="0.0 0.0 24.0 24.0" height="200px" width="200px"><path fill="none" stroke="black" stroke-width=".3" stroke-opacity="1.0"  filling="0" d="M8.632144927978516 14.240781784057617 L8.632144927978516 14.240781784057617 C8.665736198425293 14.240781784057617 8.69932746887207 14.240781784057617 8.732918739318848 14.240781784057617 L8.732918739318848 14.240781784057617 C8.785582542419434 14.348400115966797 8.838245391845703 14.456018447875977 8.890909194946289 14.563636779785156 L8.890909194946289 14.563636779785156 C8.836363792419434 14.563636779785156 8.781817436218262 14.563636779785156 8.727272033691406 14.563636779785156 L8.727272033691406 14.563636779785156 C8.71570873260498 14.509272575378418 8.704144477844238 14.454909324645996 8.692581176757812 14.400545120239258 L8.692581176757812 14.400545120239258 C8.68596363067627 14.454909324645996 8.67934513092041 14.509272575378418 8.672727584838867 14.563636779785156 L8.672727584838867 14.563636779785156 C8.609090805053711 14.563636779785156 8.545454978942871 14.563636779785156 8.481818199157715 14.563636779785156 L8.481818199157715 14.563636779785156 C8.531927108764648 14.456018447875977 8.582036018371582 14.348400115966797 8.632144927978516 14.240781784057617 L8.632144927978516 14.240781784057617"></path></svg>