<svg xmlns="http://www.w3.org/2000/svg" viewBox="0.0 0.0 24.0 24.0" height="200px" width="200px"><path fill="none" stroke="black" stroke-width=".3" stroke-opacity="1.0"  filling="0" d="M13.54551887512207 14.278172492980957 L13.54551887512207 14.278172492980957 C13.612846374511719 14.327645301818848 13.68017292022705 14.377118110656738 13.7475004196167 14.426590919494629 L13.7475004196167 14.426590919494629 C13.842227935791016 14.390817642211914 13.936955451965332 14.355045318603516 14.031682968139648 14.3192720413208 L14.031682968139648 14.3192720413208 C14.027192115783691 14.400726318359375 14.022700309753418 14.482181549072266 14.018209457397461 14.56363582611084 L14.018209457397461 14.56363582611084 C13.990937232971191 14.56363582611084 13.963664054870605 14.56363582611084 13.936391830444336 14.56363582611084 L13.936391830444336 14.56363582611084 C13.934700965881348 14.503617286682129 13.93301010131836 14.443599700927734 13.931319236755371 14.383581161499023 L13.931319236755371 14.383581161499023 C13.869219779968262 14.436899185180664 13.807119369506836 14.490217208862305 13.745019912719727 14.543535232543945 L13.745019912719727 14.543535232543945 C13.69643783569336 14.499553680419922 13.647855758666992 14.455571174621582 13.599273681640625 14.411589622497559 L13.599273681640625 14.411589622497559 C13.602546691894531 14.462271690368652 13.605818748474121 14.512953758239746 13.609091758728027 14.56363582611084 L13.609091758728027 14.56363582611084 C13.572728157043457 14.56363582611084 13.53636360168457 14.563636779785156 13.5 14.563636779785156 L13.5 14.563636779785156 C13.515172958374023 14.46848201751709 13.530345916748047 14.373327255249023 13.54551887512207 14.278172492980957 L13.54551887512207 14.278172492980957"></path></svg>