<svg xmlns="http://www.w3.org/2000/svg" viewBox="0.0 0.0 24.0 24.0" height="200px" width="200px"><path fill="none" stroke="black" stroke-width=".3" stroke-opacity="1.0"  filling="0" d="M21.081817626953125 10.145454406738281 L21.081817626953125 10.145454406738281 C20.851219177246094 10.349898338317871 19.84844207763672 11.191404342651367 19.854658126831055 10.25168228149414 L19.854658126831055 10.25168228149414 C19.709348678588867 10.405572891235352 19.564041137695312 10.559464454650879 19.418731689453125 10.71335506439209 L19.418731689453125 10.71335506439209 C19.259075164794922 10.633036613464355 19.09942054748535 10.552719116210938 18.93976402282715 10.472400665283203 L18.93976402282715 10.472400665283203 C18.75517463684082 10.66484260559082 18.348230361938477 10.614871978759766 18.14015769958496 10.448101043701172 L18.14015769958496 10.448101043701172 C18.157085418701172 10.347219467163086 18.174013137817383 10.246337890625 18.190940856933594 10.145456314086914 L18.190940856933594 10.145456314086914 C18.690940856933594 10.145456314086914 19.19093894958496 10.145456314086914 19.69093894958496 10.145456314086914 L19.69093894958496 10.145456314086914 C19.75356674194336 10.16833782196045 19.816192626953125 10.1912202835083 19.878820419311523 10.214101791381836 L19.878820419311523 10.214101791381836 C19.87982940673828 10.1912202835083 19.880840301513672 10.16833782196045 19.88184928894043 10.145456314086914 L19.88184928894043 10.145456314086914 C20.28183937072754 10.145455360412598 20.681827545166016 10.145455360412598 21.081817626953125 10.145454406738281 L21.081817626953125 10.145454406738281"></path></svg>