<svg xmlns="http://www.w3.org/2000/svg" viewBox="0.0 0.0 24.0 24.0" height="200px" width="200px"><path fill="none" stroke="black" stroke-width=".3" stroke-opacity="1.0"  filling="0" d="M-4.909034729003906 10.19999885559082 L-4.909034729003906 10.19999885559082 C-4.909034729003906 10.338852882385254 -4.909034729003906 10.477707862854004 -4.909034729003906 10.616561889648438 L-4.909034729003906 10.616561889648438 C-4.899898529052734 10.6177978515625 -4.8907623291015625 10.619034767150879 -4.881626129150391 10.620270729064941 L-4.881626129150391 10.620270729064941 C-4.863489151000977 10.480179786682129 -4.8453521728515625 10.340089797973633 -4.827215194702148 10.19999885559082 L-4.827215194702148 10.19999885559082 C-4.599961757659912 10.19999885559082 -4.372707843780518 10.199999809265137 -4.145454406738281 10.199999809265137 L-4.145454406738281 10.199999809265137 C-4.314306735992432 10.40027904510498 -4.727568626403809 11.302966117858887 -4.865289688110352 10.705118179321289 L-4.865289688110352 10.705118179321289 C-4.876890182495117 10.705890655517578 -4.888490676879883 10.706664085388184 -4.900091171264648 10.707436561584473 L-4.900091171264648 10.707436561584473 C-4.992891311645508 11.42530632019043 -5.000481605529785 13.115579605102539 -4.88176155090332 13.827271461486816 L-4.88176155090332 13.827271461486816 C-4.899942874908447 13.827271461486816 -4.918124675750732 13.827271461486816 -4.936305999755859 13.827271461486816 L-4.936305999755859 13.827271461486816 C-4.936305999755859 13.10382080078125 -5.074063301086426 10.897052764892578 -4.909034729003906 10.19999885559082 L-4.909034729003906 10.19999885559082"></path></svg>