<svg xmlns="http://www.w3.org/2000/svg" viewBox="0.0 0.0 24.0 24.0" height="200px" width="200px"><path fill="none" stroke="black" stroke-width=".3" stroke-opacity="1.0"  filling="0" d="M22.283044815063477 10.771254539489746 L22.283044815063477 10.771254539489746 C22.568700790405273 10.812762260437012 22.79742431640625 11.032028198242188 22.945636749267578 11.28215503692627 L22.945636749267578 11.28215503692627 C22.795711517333984 12.057897567749023 23.182170867919922 13.384666442871094 22.009798049926758 13.590490341186523 C21.03907585144043 13.76091194152832 21.523967742919922 11.65638256072998 21.31399154663086 11.297808647155762 L21.31399154663086 11.297808647155762 C21.649667739868164 11.147912979125977 21.96427345275879 10.954373359680176 22.283044815063477 10.771254539489746 L22.283044815063477 10.771254539489746"></path>
<path fill="none" stroke="black" stroke-width=".3" stroke-opacity="1.0"  filling="0" d="M21.977699279785156 11.123428344726562 L21.977699279785156 11.123428344726562 C22.073118209838867 11.207174301147461 22.168535232543945 11.290919303894043 22.263954162597656 11.374665260314941 L22.263954162597656 11.374665260314941 C22.271820068359375 11.97492790222168 22.532991409301758 12.661378860473633 22.22244644165039 13.175127983093262 L22.22244644165039 13.175127983093262 C21.785377502441406 12.67594051361084 21.97572135925293 11.767403602600098 21.945545196533203 11.137556076049805 L21.945545196533203 11.137556076049805 C21.956262588500977 11.13284683227539 21.966981887817383 11.128137588500977 21.977699279785156 11.123428344726562 L21.977699279785156 11.123428344726562"></path></svg>