<svg xmlns="http://www.w3.org/2000/svg" viewBox="0.0 0.0 24.0 24.0" height="200px" width="200px"><path fill="none" stroke="black" stroke-width=".3" stroke-opacity="1.0"  filling="0" d="M11.763899803161621 11.466217994689941 L11.763899803161621 11.466217994689941 C11.920172691345215 11.590218544006348 12.076444625854492 11.714218139648438 12.232717514038086 11.838218688964844 L12.232717514038086 11.838218688964844 C12.009339332580566 12.195731163024902 11.674214363098145 12.529539108276367 11.581199645996094 12.93946361541748 L11.581199645996094 12.93946361541748 C11.712113380432129 13.018455505371094 11.8687105178833 13.08343505859375 12.020998001098633 13.069772720336914 L12.020998001098633 13.069772720336914 C11.890143394470215 13.279082298278809 11.759289741516113 13.488390922546387 11.628435134887695 13.697700500488281 L11.628435134887695 13.697700500488281 C11.460344314575195 13.614381790161133 11.292253494262695 13.531063079833984 11.124162673950195 13.447744369506836 L11.124162673950195 13.447744369506836 C11.212729454040527 12.520247459411621 11.126181602478027 12.215710639953613 11.763899803161621 11.466217994689941 L11.763899803161621 11.466217994689941"></path>
<path fill="none" stroke="black" stroke-width=".3" stroke-opacity="1.0"  filling="0" d="M11.63779067993164 12.032890319824219 L11.63779067993164 12.032890319824219 C11.710200309753418 12.079318046569824 11.782608985900879 12.125744819641113 11.855018615722656 12.172172546386719 L11.855018615722656 12.172172546386719 C11.781264305114746 12.30013656616211 11.70750904083252 12.428099632263184 11.63375473022461 12.556063652038574 L11.63375473022461 12.556063652038574 C11.626273155212402 12.5538911819458 11.618790626525879 12.551717758178711 11.611309051513672 12.549545288085938 L11.611309051513672 12.549545288085938 C11.620136260986328 12.377326965332031 11.628963470458984 12.205108642578125 11.63779067993164 12.032890319824219 L11.63779067993164 12.032890319824219"></path></svg>