<svg xmlns="http://www.w3.org/2000/svg" viewBox="0.0 0.0 24.0 24.0" height="200px" width="200px"><path fill="none" stroke="black" stroke-width=".3" stroke-opacity="1.0"  filling="0" d="M10.476627349853516 11.697271347045898 L10.476627349853516 11.697271347045898 C10.61530876159668 11.984952926635742 10.807525634765625 12.200116157531738 10.668027877807617 12.500726699829102 L10.668027877807617 12.500726699829102 C10.641800880432129 12.425944328308105 10.615572929382324 12.351162910461426 10.589345932006836 12.27638053894043 L10.589345932006836 12.27638053894043 C10.447443962097168 12.289254188537598 10.307701110839844 12.361091613769531 10.201499938964844 12.45608139038086 L10.201499938964844 12.45608139038086 C10.235129356384277 12.182372093200684 10.303074836730957 11.91292953491211 10.476627349853516 11.697271347045898 L10.476627349853516 11.697271347045898"></path>
<path fill="none" stroke="black" stroke-width=".3" stroke-opacity="1.0"  filling="0" d="M10.490400314331055 11.98486328125 L10.490400314331055 11.98486328125 C10.506009101867676 12.042872428894043 10.521618843078613 12.100881576538086 10.537227630615234 12.158890724182129 L10.537227630615234 12.158890724182129 C10.498236656188965 12.158890724182129 10.459246635437012 12.158889770507812 10.420255661010742 12.158889770507812 L10.420255661010742 12.158889770507812 C10.434982299804688 12.101099014282227 10.44970989227295 12.043307304382324 10.464436531066895 11.985516548156738 L10.464436531066895 11.985516548156738 C10.473091125488281 11.985299110412598 10.481745719909668 11.98508071899414 10.490400314331055 11.98486328125 L10.490400314331055 11.98486328125"></path></svg>