<svg xmlns="http://www.w3.org/2000/svg" viewBox="0.0 0.0 24.0 24.0" height="200px" width="200px"><path fill="none" stroke="black" stroke-width=".3" stroke-opacity="1.0"  filling="0" d="M12.1831636428833 11.795509338378906 L12.1831636428833 11.795509338378906 C12.23620891571045 11.834863662719727 12.289254188537598 11.874218940734863 12.342299461364746 11.913573265075684 L12.342299461364746 11.913573265075684 C12.311236381530762 11.938382148742676 12.280172348022461 11.963191986083984 12.249109268188477 11.988000869750977 L12.249109268188477 11.988000869750977 C12.21557331085205 11.939682960510254 12.182036399841309 11.891364097595215 12.148500442504883 11.843046188354492 L12.148500442504883 11.843046188354492 C12.133746147155762 11.85462760925293 12.118990898132324 11.866209030151367 12.104236602783203 11.877790451049805 L12.104236602783203 11.877790451049805 C12.260716438293457 12.203022003173828 12.130678176879883 12.47540283203125 11.855646133422852 12.03177261352539 L11.855646133422852 12.03177261352539 C11.919682502746582 12.098227500915527 11.983717918395996 12.164682388305664 12.047754287719727 12.2311372756958 L12.047754287719727 12.2311372756958 C12.065672874450684 12.186027526855469 12.083590507507324 12.140918731689453 12.101509094238281 12.095808982849121 L12.101509094238281 12.095808982849121 C11.98767375946045 11.930013656616211 11.959222793579102 11.831698417663574 12.1831636428833 11.795509338378906 L12.1831636428833 11.795509338378906"></path></svg>