<svg xmlns="http://www.w3.org/2000/svg" viewBox="0.0 0.0 24.0 24.0" height="200px" width="200px"><path fill="none" stroke="black" stroke-width=".3" stroke-opacity="1.0"  filling="0" d="M12.590072631835938 11.715381622314453 L12.590072631835938 11.715381622314453 C12.870011329650879 11.840665817260742 12.834956169128418 12.105817794799805 12.924545288085938 12.388717651367188 L12.924545288085938 12.388717651367188 C12.79349136352539 12.397896766662598 12.665679931640625 12.331902503967285 12.547037124633789 12.275482177734375 L12.547037124633789 12.275482177734375 C12.499344825744629 12.336160659790039 12.421492576599121 12.432165145874023 12.351546287536621 12.399545669555664 L12.351546287536621 12.399545669555664 C12.431055068969727 12.171490669250488 12.510563850402832 11.943436622619629 12.590072631835938 11.715381622314453 L12.590072631835938 11.715381622314453"></path>
<path fill="none" stroke="black" stroke-width=".3" stroke-opacity="1.0"  filling="0" d="M12.640772819519043 11.943408012390137 L12.640772819519043 11.943408012390137 C12.665918350219727 12.0059175491333 12.69106388092041 12.068427085876465 12.716209411621094 12.130936622619629 L12.716209411621094 12.130936622619629 C12.672109603881836 12.130936622619629 12.628009796142578 12.130936622619629 12.58390998840332 12.130936622619629 L12.58390998840332 12.130936622619629 C12.602864265441895 12.068427085876465 12.621818542480469 12.0059175491333 12.640772819519043 11.943408012390137 L12.640772819519043 11.943408012390137"></path></svg>