<svg xmlns="http://www.w3.org/2000/svg" viewBox="0.0 0.0 24.0 24.0" height="200px" width="200px"><path fill="none" stroke="black" stroke-width=".3" stroke-opacity="1.0"  filling="0" d="M10.455926895141602 18.025253295898438 L10.455926895141602 18.025253295898438 C10.586063385009766 18.025253295898438 10.71619987487793 18.025253295898438 10.846336364746094 18.025253295898438 L10.846336364746094 18.025253295898438 C10.85003662109375 18.037324905395508 10.85373592376709 18.04939842224121 10.857436180114746 18.06147003173828 L10.857436180114746 18.06147003173828 C10.80961799621582 18.08418846130371 10.761799812316895 18.106908798217773 10.713981628417969 18.129627227783203 L10.713981628417969 18.129627227783203 C10.703054428100586 18.24036407470703 10.692127227783203 18.351099014282227 10.68120002746582 18.461835861206055 L10.68120002746582 18.461835861206055 C10.655654907226562 18.351591110229492 10.630108833312988 18.241344451904297 10.60456371307373 18.131099700927734 L10.60456371307373 18.131099700927734 C10.552391052246094 18.106435775756836 10.500218391418457 18.081771850585938 10.44804573059082 18.05710792541504 L10.44804573059082 18.05710792541504 C10.45067310333252 18.046489715576172 10.453299522399902 18.035871505737305 10.455926895141602 18.025253295898438 L10.455926895141602 18.025253295898438"></path></svg>