<svg xmlns="http://www.w3.org/2000/svg" viewBox="0.0 0.0 24.0 24.0" height="200px" width="200px"><path fill="none" stroke="black" stroke-width=".3" stroke-opacity="1.0"  filling="0" d="M33.442832946777344 9.401754379272461 L33.43928527832031 9.405845642089844 C33.4703483581543 9.454263687133789 33.50141143798828 9.502681732177734 33.532474517822266 9.55109977722168 L33.532474517822266 9.55109977722168 C33.48223876953125 9.55109977722168 33.43199920654297 9.55109977722168 33.38176345825195 9.55109977722168 L33.38176345825195 9.55109977722168 C33.37016296386719 9.573381423950195 33.35856246948242 9.595663070678711 33.346961975097656 9.617944717407227 L33.346961975097656 9.617944717407227 C33.3802375793457 9.611054420471191 33.413509368896484 9.60416316986084 33.44678497314453 9.597272872924805 L33.44678497314453 9.597272872924805 C33.41712951660156 9.629436492919922 33.387474060058594 9.661600112915039 33.357818603515625 9.693763732910156 L33.357818603515625 9.693763732910156 C33.30709457397461 9.613391876220703 33.297786712646484 9.511940002441406 33.28746032714844 9.417463302612305 L33.28746032714844 9.417463302612305 C33.29706954956055 9.443399429321289 33.30667495727539 9.46933650970459 33.3162841796875 9.495272636413574 L33.3162841796875 9.495272636413574 C33.35846710205078 9.464099884033203 33.40065002441406 9.432927131652832 33.442832946777344 9.401754379272461 L33.442832946777344 9.401754379272461"></path></svg>