<svg xmlns="http://www.w3.org/2000/svg" viewBox="0.0 0.0 24.0 24.0" height="200px" width="200px"><path fill="none" stroke="black" stroke-width=".3" stroke-opacity="1.0"  filling="0" d="M27.138328552246094 9.464454650878906 L27.138328552246094 9.464454650878906 C27.0870304107666 9.628527641296387 27.027334213256836 9.790143013000488 26.96080780029297 9.948654174804688 L26.96080780029297 9.948654174804688 C26.96900749206543 9.929372787475586 26.977209091186523 9.910090446472168 26.985408782958984 9.890809059143066 L26.985408782958984 9.890809059143066 C26.956653594970703 9.864299774169922 26.927898406982422 9.837791442871094 26.89914321899414 9.81128215789795 L26.89914321899414 9.81128215789795 C26.939189910888672 9.763309478759766 26.97923469543457 9.715336799621582 27.0192813873291 9.667364120483398 L27.0192813873291 9.667364120483398 C26.999244689941406 9.671664237976074 26.979209899902344 9.675963401794434 26.95917320251465 9.68026351928711 L26.95917320251465 9.68026351928711 C26.952491760253906 9.652454376220703 26.945810317993164 9.624646186828613 26.939128875732422 9.596837043762207 L26.939128875732422 9.596837043762207 C26.877500534057617 9.620936393737793 26.815874099731445 9.645036697387695 26.75424575805664 9.669136047363281 L26.75424575805664 9.669136047363281 C26.811737060546875 9.60219955444336 26.86922836303711 9.535263061523438 26.926719665527344 9.468326568603516 L26.926719665527344 9.468326568603516 C26.99850082397461 9.468326568603516 27.070281982421875 9.468326568603516 27.14206314086914 9.468326568603516 L27.138328552246094 9.464454650878906"></path></svg>