<svg xmlns="http://www.w3.org/2000/svg" viewBox="0.0 0.0 24.0 24.0" height="200px" width="200px"><path fill="none" stroke="black" stroke-width=".3" stroke-opacity="1.0"  filling="0" d="M15.881128311157227 18.035919189453125 L15.881128311157227 18.035919189453125 C15.951055526733398 18.08818244934082 16.02098274230957 18.14044761657715 16.090909957885742 18.192710876464844 L16.090909957885742 18.192710876464844 C16.190654754638672 18.163928985595703 16.2903995513916 18.135147094726562 16.39014434814453 18.106365203857422 L16.39014434814453 18.106365203857422 C16.36747169494629 18.23362922668457 16.34480094909668 18.360891342163086 16.322128295898438 18.488155364990234 L16.322128295898438 18.488155364990234 C16.310665130615234 18.48741912841797 16.2992000579834 18.486682891845703 16.287736892700195 18.485946655273438 L16.287736892700195 18.485946655273438 C16.287736892700195 18.369264602661133 16.287736892700195 18.25258445739746 16.287736892700195 18.135902404785156 L16.287736892700195 18.135902404785156 C16.21996307373047 18.188356399536133 16.152191162109375 18.240812301635742 16.08441734313965 18.29326629638672 L16.08441734313965 18.29326629638672 C16.042417526245117 18.257993698120117 16.000417709350586 18.222719192504883 15.958418846130371 18.18744659423828 L15.958418846130371 18.18744659423828 C15.950745582580566 18.29228401184082 15.943073272705078 18.397119522094727 15.935400009155273 18.501956939697266 L15.935400009155273 18.501956939697266 C15.87637710571289 18.357126235961914 15.861953735351562 18.19113540649414 15.881128311157227 18.035919189453125 L15.881128311157227 18.035919189453125"></path></svg>