<svg xmlns="http://www.w3.org/2000/svg" viewBox="0.0 0.0 24.0 24.0" height="200px" width="200px"><path fill="none" stroke="black" stroke-width=".3" stroke-opacity="1.0"  filling="0" d="M22.315174102783203 8.508054733276367 L22.315174102783203 8.508054733276367 C22.30565643310547 8.67878246307373 22.2961368560791 8.849509239196777 22.286619186401367 9.02023696899414 L22.286619186401367 9.02023696899414 C22.29458236694336 9.024709701538086 22.30254554748535 9.029182434082031 22.310508728027344 9.033655166625977 L22.310508728027344 9.033655166625977 C22.72010040283203 8.617399215698242 23.172454833984375 11.068387031555176 22.287464141845703 11.498018264770508 L22.287464141845703 11.498018264770508 C22.346681594848633 11.325763702392578 22.405900955200195 11.153509140014648 22.465118408203125 10.981254577636719 L22.465118408203125 10.981254577636719 C22.230518341064453 11.063712120056152 21.924880981445312 11.143054008483887 21.71942901611328 11.00296401977539 L21.71942901611328 11.00296401977539 C21.948781967163086 10.497050285339355 21.424402236938477 8.705801010131836 22.315174102783203 8.508054733276367 L22.315174102783203 8.508054733276367"></path>
<path fill="none" stroke="black" stroke-width=".3" stroke-opacity="1.0"  filling="0" d="M22.321964263916016 9.438955307006836 L22.321964263916016 9.438955307006836 C22.61621856689453 10.967386245727539 22.106260299682617 11.25784969329834 22.295509338378906 9.44337272644043 L22.295509338378906 9.44337272644043 C22.3043270111084 9.441900253295898 22.313146591186523 9.440427780151367 22.321964263916016 9.438955307006836 L22.321964263916016 9.438955307006836"></path></svg>