<svg xmlns="http://www.w3.org/2000/svg" viewBox="0.0 0.0 24.0 24.0" height="200px" width="200px"><path fill="none" stroke="black" stroke-width=".3" stroke-opacity="1.0"  filling="0" d="M-11.971908569335938 11.50840950012207 L-11.971908569335938 11.50840950012207 C-11.320870399475098 12.069565773010254 -11.428817749023438 12.391754150390625 -11.427299499511719 13.249526977539062 L-11.427299499511719 13.249526977539062 C-11.60689926147461 13.467090606689453 -11.7864990234375 13.684654235839844 -11.96609878540039 13.902217864990234 L-11.96609878540039 13.902217864990234 C-13.202181816101074 13.545125007629395 -12.522740364074707 12.216221809387207 -11.971908569335938 11.50840950012207 L-11.971908569335938 11.50840950012207"></path>
<path fill="none" stroke="black" stroke-width=".3" stroke-opacity="1.0"  filling="0" d="M-12.180107116699219 12.193745613098145 L-12.180107116699219 12.193745613098145 C-11.798589706420898 12.424612998962402 -11.919692993164062 12.881366729736328 -11.88493537902832 13.271455764770508 L-11.88493537902832 13.271455764770508 C-11.896117210388184 13.275437355041504 -11.907299995422363 13.2794189453125 -11.918481826782227 13.283400535583496 L-11.918481826782227 13.283400535583496 C-11.99953556060791 13.235427856445312 -12.08059024810791 13.187455177307129 -12.161643981933594 13.139482498168945 L-12.161643981933594 13.139482498168945 C-12.167798042297363 12.824236869812012 -12.17395305633545 12.508991241455078 -12.180107116699219 12.193745613098145 L-12.180107116699219 12.193745613098145"></path></svg>