<svg xmlns="http://www.w3.org/2000/svg" viewBox="0.0 0.0 24.0 24.0" height="200px" width="200px"><path fill="none" stroke="black" stroke-width=".3" stroke-opacity="1.0"  filling="0" d="M28.374217987060547 14.483837127685547 L28.374217987060547 14.483837127685547 C28.50001335144043 14.495404243469238 28.64253044128418 14.478303909301758 28.747665405273438 14.54833698272705 L28.747665405273438 14.54833698272705 C28.566173553466797 14.796945571899414 28.38468360900879 15.045555114746094 28.20319175720215 15.294163703918457 L28.20319175720215 15.294163703918457 C28.751379013061523 15.647971153259277 28.98194122314453 16.61629295349121 28.505237579345703 17.145627975463867 C28.296648025512695 17.377246856689453 27.969013214111328 17.886327743530273 27.736774444580078 17.678428649902344 C27.611467361450195 17.566253662109375 28.05248260498047 17.198522567749023 28.0616455078125 16.991756439208984 C28.082345962524414 16.524621963500977 27.976781845092773 15.94218921661377 27.598201751708984 15.667745590209961 L27.598201751708984 15.667745590209961 C27.786645889282227 15.4578275680542 27.9750919342041 15.247908592224121 28.163536071777344 15.03799057006836 L28.163536071777344 15.03799057006836 C27.887290954589844 15.023472785949707 27.611045837402344 15.008955001831055 27.334800720214844 14.994437217712402 L27.334800720214844 14.994437217712402 C27.650312423706055 14.545065879821777 27.837072372436523 14.510848045349121 28.374217987060547 14.483837127685547 L28.374217987060547 14.483837127685547"></path></svg>