<svg xmlns="http://www.w3.org/2000/svg" viewBox="0.0 0.0 24.0 24.0" height="200px" width="200px"><path fill="none" stroke="black" stroke-width=".3" stroke-opacity="1.0"  filling="0" d="M10.923382759094238 11.71363639831543 L10.923382759094238 11.71363639831543 C11.061695098876953 11.78803539276123 11.16533088684082 11.934333801269531 11.215828895568848 12.083045959472656 L11.215828895568848 12.083045959472656 C11.231656074523926 12.080636978149414 11.247482299804688 12.078227996826172 11.263309478759766 12.07581901550293 L11.263309478759766 12.07581901550293 C11.253973960876465 11.951801300048828 11.290249824523926 11.797514915466309 11.39162826538086 11.725473403930664 L11.39162826538086 11.725473403930664 C11.377638816833496 11.975628852844238 11.344374656677246 12.225326538085938 11.293855667114258 12.47072696685791 L11.293855667114258 12.47072696685791 C11.214719772338867 12.324135780334473 11.13558292388916 12.177545547485352 11.05644702911377 12.030954360961914 L11.05644702911377 12.030954360961914 C11.05644702911377 12.148063659667969 11.05644702911377 12.265172958374023 11.05644702911377 12.382282257080078 L11.05644702911377 12.382282257080078 C11.024374008178711 12.401372909545898 10.992300987243652 12.420463562011719 10.960227966308594 12.439554214477539 L10.960227966308594 12.439554214477539 C10.909834861755371 12.188460350036621 10.922811508178711 11.968465805053711 10.923382759094238 11.71363639831543 L10.923382759094238 11.71363639831543"></path></svg>