<svg xmlns="http://www.w3.org/2000/svg" viewBox="0.0 0.0 24.0 24.0" height="200px" width="200px"><path fill="none" stroke="black" stroke-width=".3" stroke-opacity="1.0"  filling="0" d="M2.7402544021606445 9.981682777404785 L2.7402544021606445 9.981682777404785 C3.7297892570495605 10.042689323425293 3.754763603210449 13.165002822875977 3.251999855041504 13.962272644042969 L3.251999855041504 13.962272644042969 C3.061272621154785 13.858136177062988 2.8705453872680664 13.754000663757324 2.6798181533813477 13.649864196777344 L2.6798181533813477 13.649864196777344 C2.675081968307495 13.623555183410645 2.6703455448150635 13.597245216369629 2.665609359741211 13.57093620300293 L2.665609359741211 13.57093620300293 C2.655745506286621 13.57970905303955 2.6458816528320312 13.588481903076172 2.6360177993774414 13.597254753112793 L2.6360177993774414 13.597254753112793 C2.13919997215271 13.24128246307373 1.6423819065093994 12.885309219360352 1.145564079284668 12.529336929321289 L1.145564079284668 12.529336929321289 C1.1443603038787842 12.92341136932373 1.2148634195327759 13.472018241882324 1.0824270248413086 13.844099998474121 L1.0824270248413086 13.844099998474121 C0.8379271626472473 13.821545600891113 0.5934273600578308 13.798990249633789 0.34892749786376953 13.776435852050781 L0.34892749786376953 13.776435852050781 C0.38330143690109253 13.38915729522705 0.02938973903656006 10.271389961242676 0.4300365447998047 10.008298873901367 C0.7848385572433472 9.775312423706055 2.3869307041168213 11.3193998336792 2.6010541915893555 11.492073059082031 L2.6010541915893555 11.492073059082031 C2.6611807346343994 11.02090835571289 2.4519402980804443 10.366402626037598 2.7402544021606445 9.981682777404785 L2.7402544021606445 9.981682777404785"></path></svg>