<svg xmlns="http://www.w3.org/2000/svg" viewBox="0.0 0.0 24.0 24.0" height="200px" width="200px"><path fill="none" stroke="black" stroke-width=".3" stroke-opacity="1.0"  filling="0" d="M11.140608787536621 11.672700881958008 L11.140608787536621 11.672700881958008 C11.415871620178223 11.672747611999512 11.685413360595703 11.790141105651855 11.3774995803833 12.063709259033203 L11.3774995803833 12.063709259033203 C11.444343566894531 12.147663116455078 11.51480770111084 12.228848457336426 11.588399887084961 12.306954383850098 L11.588399887084961 12.306954383850098 C11.567117691040039 12.342890739440918 11.545835494995117 12.378828048706055 11.524553298950195 12.414764404296875 L11.524553298950195 12.414764404296875 C11.424190521240234 12.31798267364502 11.323826789855957 12.221199989318848 11.223464012145996 12.124418258666992 L11.223464012145996 12.124418258666992 C11.210372924804688 12.220227241516113 11.197282791137695 12.31603717803955 11.184191703796387 12.411846160888672 L11.184191703796387 12.411846160888672 C11.02288818359375 12.17198371887207 11.083337783813477 11.943620681762695 11.140608787536621 11.672700881958008 L11.140608787536621 11.672700881958008"></path>
<path fill="none" stroke="black" stroke-width=".3" stroke-opacity="1.0"  filling="0" d="M11.218554496765137 11.822699546813965 L11.218554496765137 11.822699546813965 C11.26663589477539 11.861863136291504 11.314718246459961 11.90102767944336 11.362799644470215 11.940191268920898 L11.362799644470215 11.940191268920898 C11.314718246459961 11.90102767944336 11.26663589477539 11.861863136291504 11.218554496765137 11.822699546813965 L11.218554496765137 11.822699546813965"></path></svg>