<svg xmlns="http://www.w3.org/2000/svg" viewBox="0.0 0.0 24.0 24.0" height="200px" width="200px"><path fill="none" stroke="black" stroke-width=".3" stroke-opacity="1.0"  filling="0" d="M16.645198822021484 18.061037063598633 L16.645198822021484 18.061037063598633 C16.78224754333496 18.17107391357422 16.85991668701172 18.334869384765625 16.845409393310547 18.513164520263672 L16.845409393310547 18.513164520263672 C16.83367347717285 18.521682739257812 16.821935653686523 18.530200958251953 16.810199737548828 18.538719177246094 L16.810199737548828 18.538719177246094 C16.787609100341797 18.504728317260742 16.765018463134766 18.47073745727539 16.742427825927734 18.43674659729004 L16.742427825927734 18.43674659729004 C16.707082748413086 18.465818405151367 16.671735763549805 18.494892120361328 16.636390686035156 18.523963928222656 L16.636390686035156 18.523963928222656 C16.607053756713867 18.491891860961914 16.57771873474121 18.45981788635254 16.548381805419922 18.427745819091797 L16.548381805419922 18.427745819091797 C16.507017135620117 18.464017868041992 16.465654373168945 18.50029182434082 16.42428970336914 18.536563873291016 L16.42428970336914 18.536563873291016 C16.437904357910156 18.35335922241211 16.513526916503906 18.189178466796875 16.645198822021484 18.061037063598633 L16.645198822021484 18.061037063598633"></path>
<path fill="none" stroke="black" stroke-width=".3" stroke-opacity="1.0"  filling="0" d="M16.65166473388672 18.19764518737793 L16.65166473388672 18.19764518737793 C16.65180015563965 18.265745162963867 16.65193748474121 18.333847045898438 16.65207290649414 18.401947021484375 L16.65207290649414 18.401947021484375 C16.65193748474121 18.333847045898438 16.65180015563965 18.265745162963867 16.65166473388672 18.19764518737793 L16.65166473388672 18.19764518737793"></path></svg>