<svg xmlns="http://www.w3.org/2000/svg" viewBox="0.0 0.0 24.0 24.0" height="200px" width="200px"><path fill="none" stroke="black" stroke-width=".3" stroke-opacity="1.0"  filling="0" d="M10.594908714294434 11.636889457702637 L10.594908714294434 11.636889457702637 C10.68052864074707 11.898656845092773 10.872032165527344 12.175087928771973 10.793208122253418 12.438981056213379 L10.793208122253418 12.438981056213379 C10.779153823852539 12.438663482666016 10.76509952545166 12.438344955444336 10.751045227050781 12.438027381896973 L10.751045227050781 12.438027381896973 C10.720099449157715 12.373900413513184 10.689154624938965 12.309772491455078 10.658208847045898 12.245645523071289 L10.658208847045898 12.245645523071289 C10.4885835647583 12.247649192810059 10.42347526550293 12.321359634399414 10.27246379852295 12.397199630737305 L10.27246379852295 12.397199630737305 C10.354742050170898 12.11917495727539 10.411994934082031 11.865052223205566 10.594908714294434 11.636889457702637 L10.594908714294434 11.636889457702637"></path>
<path fill="none" stroke="black" stroke-width=".3" stroke-opacity="1.0"  filling="0" d="M10.54947280883789 11.952354431152344 L10.54947280883789 11.952354431152344 C10.558117866516113 11.954672813415527 10.566763877868652 11.956991195678711 10.575408935546875 11.959309577941895 L10.575408935546875 11.959309577941895 C10.589226722717285 12.011672973632812 10.603045463562012 12.06403636932373 10.616863250732422 12.116399765014648 L10.616863250732422 12.116399765014648 C10.573663711547852 12.116399765014648 10.530463218688965 12.116399765014648 10.487263679504395 12.116399765014648 L10.487263679504395 12.116399765014648 C10.508000373840332 12.061717987060547 10.528736114501953 12.007036209106445 10.54947280883789 11.952354431152344 L10.54947280883789 11.952354431152344"></path></svg>