<svg xmlns="http://www.w3.org/2000/svg" viewBox="0.0 0.0 24.0 24.0" height="200px" width="200px"><path fill="none" stroke="black" stroke-width=".3" stroke-opacity="1.0"  filling="0" d="M14.151681900024414 11.670354843139648 L14.151681900024414 11.670354843139648 C14.234166145324707 11.920823097229004 14.401596069335938 12.182403564453125 14.339807510375977 12.438763618469238 L14.339807510375977 12.438763618469238 C14.325071334838867 12.444645881652832 14.310335159301758 12.45052719116211 14.295598983764648 12.456409454345703 L14.295598983764648 12.456409454345703 C14.248428344726562 12.348797798156738 14.130711555480957 12.254109382629395 14.013571739196777 12.244963645935059 L14.013571739196777 12.244963645935059 C13.949090003967285 12.294563293457031 13.884608268737793 12.34416389465332 13.8201265335083 12.393763542175293 L13.8201265335083 12.393763542175293 C13.894196510314941 12.121841430664062 13.941873550415039 11.869229316711426 14.151681900024414 11.670354843139648 L14.151681900024414 11.670354843139648"></path>
<path fill="none" stroke="black" stroke-width=".3" stroke-opacity="1.0"  filling="0" d="M14.119636535644531 11.955436706542969 L14.119636535644531 11.955436706542969 C14.134200096130371 12.009408950805664 14.148763656616211 12.063382148742676 14.16332721710205 12.117354393005371 L14.16332721710205 12.117354393005371 C14.121790885925293 12.117354393005371 14.080253601074219 12.117354393005371 14.038717269897461 12.117354393005371 L14.038717269897461 12.117354393005371 C14.057417869567871 12.063735961914062 14.076117515563965 12.01011848449707 14.094818115234375 11.956500053405762 L14.094818115234375 11.956500053405762 C14.1030912399292 11.956145286560059 14.111363410949707 11.955791473388672 14.119636535644531 11.955436706542969 L14.119636535644531 11.955436706542969"></path></svg>