<svg xmlns="http://www.w3.org/2000/svg" viewBox="0.0 0.0 24.0 24.0" height="200px" width="200px"><path fill="none" stroke="black" stroke-width=".3" stroke-opacity="1.0"  filling="0" d="M8.267399787902832 10.867936134338379 L8.267399787902832 10.867936134338379 C8.755772590637207 10.867936134338379 9.244145393371582 10.867936134338379 9.732518196105957 10.867936134338379 L9.732518196105957 10.867936134338379 C9.745208740234375 11.053536415100098 9.75790023803711 11.2391357421875 9.770590782165527 11.424736022949219 L9.770590782165527 11.424736022949219 C9.640981674194336 11.424736022949219 9.511373519897461 11.424736022949219 9.38176441192627 11.424736022949219 L9.38176441192627 11.424736022949219 C9.38176441192627 11.963290214538574 9.282516479492188 12.56163215637207 9.357681274414062 13.089136123657227 L9.357681274414062 13.089136123657227 C9.142991065979004 13.097654342651367 8.928299903869629 13.106171607971191 8.71360969543457 13.114689826965332 L8.71360969543457 13.114689826965332 C8.71360969543457 12.561225891113281 8.71360969543457 12.007762908935547 8.71360969543457 11.454298973083496 L8.71360969543457 11.454298973083496 C8.553991317749023 11.446271896362305 8.394372940063477 11.438244819641113 8.23475456237793 11.430217742919922 L8.23475456237793 11.430217742919922 C8.245635986328125 11.242790222167969 8.256518363952637 11.055363655090332 8.267399787902832 10.867936134338379 L8.267399787902832 10.867936134338379"></path></svg>