<svg xmlns="http://www.w3.org/2000/svg" viewBox="0.0 0.0 24.0 24.0" height="200px" width="200px"><path fill="none" stroke="black" stroke-width=".3" stroke-opacity="1.0"  filling="0" d="M24.090137481689453 10.438226699829102 L24.090137481689453 10.438226699829102 C24.565776824951172 10.583479881286621 25.004091262817383 10.703923225402832 25.512630462646484 10.723526954650879 L25.512630462646484 10.723526954650879 C25.762624740600586 10.737419128417969 26.013648986816406 10.734991073608398 26.26377296447754 10.723663330078125 L26.26377296447754 10.723663330078125 C26.251245498657227 10.882744789123535 26.238719940185547 11.041827201843262 26.226192474365234 11.200908660888672 L26.226192474365234 11.200908660888672 C25.966583251953125 11.21577262878418 25.706974029541016 11.230636596679688 25.447364807128906 11.245500564575195 L25.447364807128906 11.245500564575195 C25.300363540649414 12.02172565460205 25.44143295288086 13.037992477416992 25.40762710571289 13.849745750427246 L25.40762710571289 13.849745750427246 C25.14813232421875 13.828145980834961 24.9134464263916 13.827200889587402 24.654544830322266 13.854490280151367 L24.654544830322266 13.854490280151367 C24.653154373168945 12.990154266357422 24.722095489501953 12.05612850189209 24.598066329956055 11.201536178588867 L24.598066329956055 11.201536178588867 C24.37645721435547 11.201536178588867 24.154848098754883 11.201536178588867 23.933238983154297 11.201536178588867 L23.933238983154297 11.201536178588867 C23.921276092529297 10.949618339538574 23.814233779907227 10.556903839111328 24.090137481689453 10.438226699829102 L24.090137481689453 10.438226699829102"></path></svg>