<svg xmlns="http://www.w3.org/2000/svg" viewBox="0.0 0.0 24.0 24.0" height="200px" width="200px"><path fill="none" stroke="black" stroke-width=".3" stroke-opacity="1.0"  filling="0" d="M13.684335708618164 10.856999397277832 L13.684335708618164 10.856999397277832 C14.605971336364746 10.869612693786621 16.404462814331055 11.92529010772705 15.024219512939453 12.909053802490234 C14.959497451782227 12.955183982849121 13.522615432739258 13.419218063354492 13.473028182983398 13.060553550720215 C13.377015113830566 12.3660888671875 13.428162574768066 11.574577331542969 13.487346649169922 10.873554229736328 L13.487346649169922 10.873554229736328 C13.553009986877441 10.868036270141602 13.618672370910645 10.862517356872559 13.684335708618164 10.856999397277832 L13.684335708618164 10.856999397277832"></path>
<path fill="none" stroke="black" stroke-width=".3" stroke-opacity="1.0"  filling="0" d="M14.209636688232422 11.416853904724121 L14.209636688232422 11.416853904724121 C14.873002052307129 11.503789901733398 14.843069076538086 12.404013633728027 14.298463821411133 12.654026985168457 L14.298463821411133 12.654026985168457 C14.238173484802246 12.628735542297363 14.177882194519043 12.603445053100586 14.117591857910156 12.578153610229492 L14.117591857910156 12.578153610229492 C14.130409240722656 12.190051078796387 14.085246086120605 11.78470516204834 14.209636688232422 11.416853904724121 L14.209636688232422 11.416853904724121"></path></svg>