<svg xmlns="http://www.w3.org/2000/svg" viewBox="0.0 0.0 24.0 24.0" height="200px" width="200px"><path fill="none" stroke="black" stroke-width=".3" stroke-opacity="1.0"  filling="0" d="M0.8006191253662109 10.884025573730469 L0.8006191253662109 10.884025573730469 C1.9027531147003174 10.94727897644043 2.4465951919555664 11.119394302368164 1.8603553771972656 12.18889045715332 L1.8603553771972656 12.18889045715332 C2.1757407188415527 12.572915077209473 2.3131299018859863 12.807663917541504 2.723726272583008 13.14411735534668 L2.723726272583008 13.14411735534668 C2.412954330444336 13.137862205505371 2.1020758152008057 13.136116981506348 1.7912445068359375 13.137598037719727 L1.7912445068359375 13.137598037719727 C1.2248032093048096 12.517349243164062 0.9777984619140625 11.775727272033691 0.9908456802368164 13.175808906555176 L0.9908456802368164 13.175808906555176 C0.7859274744987488 13.165409088134766 0.5810092091560364 13.155008316040039 0.37609100341796875 13.144608497619629 L0.37609100341796875 13.144608497619629 C0.37433624267578125 13.153826713562012 0.37258148193359375 13.163044929504395 0.37082672119140625 13.172263145446777 L0.37082672119140625 13.172263145446777 C0.08967474102973938 12.804251670837402 0.35338452458381653 11.402326583862305 0.3544912338256836 10.915936470031738 L0.3544912338256836 10.915936470031738 C0.503389835357666 10.90839958190918 0.652015209197998 10.896045684814453 0.8006191253662109 10.884025573730469 L0.8006191253662109 10.884025573730469"></path>
<path fill="none" stroke="black" stroke-width=".3" stroke-opacity="1.0"  filling="0" d="M1.3594913482666016 11.430790901184082 L1.3594913482666016 11.430790901184082 C1.7140910625457764 11.759889602661133 1.267075777053833 11.814159393310547 0.9826087951660156 11.810454368591309 L0.9826087951660156 11.810454368591309 C0.9917818903923035 11.698636054992676 1.0009549856185913 11.58681869506836 1.0101280212402344 11.475000381469727 L1.0101280212402344 11.475000381469727 C1.1265825033187866 11.460264205932617 1.2430368661880493 11.445527076721191 1.3594913482666016 11.430790901184082 L1.3594913482666016 11.430790901184082"></path></svg>