<svg xmlns="http://www.w3.org/2000/svg" viewBox="0.0 0.0 24.0 24.0" height="200px" width="200px"><path fill="none" stroke="black" stroke-width=".3" stroke-opacity="1.0"  filling="0" d="M13.440326690673828 10.829673767089844 L13.440326690673828 10.829673767089844 C14.485549926757812 10.987091064453125 14.552695274353027 11.600800514221191 13.90947151184082 12.30150032043457 L13.90947151184082 12.30150032043457 C14.173449516296387 12.585551261901855 14.321517944335938 12.757865905761719 14.513726234436035 13.10405445098877 L14.513726234436035 13.10405445098877 C13.604424476623535 13.2935209274292 13.01216983795166 11.49567699432373 13.102009773254395 13.114582061767578 L13.102009773254395 13.114582061767578 C12.88212776184082 13.126154899597168 12.662245750427246 13.137727737426758 12.442363739013672 13.149300575256348 L12.442363739013672 13.149300575256348 C12.409265518188477 12.385683059692383 12.41556453704834 11.617512702941895 12.415935516357422 10.853046417236328 L12.415935516357422 10.853046417236328 C12.757487297058105 10.85249137878418 13.09900188446045 10.84214973449707 13.440326690673828 10.829673767089844 L13.440326690673828 10.829673767089844"></path>
<path fill="none" stroke="black" stroke-width=".3" stroke-opacity="1.0"  filling="0" d="M13.142728805541992 11.366373062133789 L13.142728805541992 11.366373062133789 C14.06922435760498 11.472167015075684 13.816932678222656 11.827669143676758 13.100645065307617 11.828645706176758 L13.100645065307617 11.828645706176758 C13.084514617919922 11.674760818481445 13.056706428527832 11.49498462677002 13.142728805541992 11.366373062133789 L13.142728805541992 11.366373062133789"></path></svg>