<svg xmlns="http://www.w3.org/2000/svg" viewBox="0.0 0.0 24.0 24.0" height="200px" width="200px"><path fill="none" stroke="black" stroke-width=".3" stroke-opacity="1.0"  filling="0" d="M10.216498374938965 10.857163429260254 L10.216498374938965 10.857163429260254 C10.764516830444336 10.86599063873291 11.312535285949707 10.874818801879883 11.860553741455078 10.883646011352539 L11.860553741455078 10.883646011352539 C11.849517822265625 11.054009437561035 11.838480949401855 11.224372863769531 11.827445030212402 11.394736289978027 L11.827445030212402 11.394736289978027 C10.730545997619629 11.335776329040527 10.64812183380127 11.606409072875977 11.749198913574219 11.707472801208496 L11.749198913574219 11.707472801208496 C11.749198913574219 11.877445220947266 11.749198913574219 12.047417640686035 11.749198913574219 12.217390060424805 L11.749198913574219 12.217390060424805 C11.470926284790039 12.23272705078125 11.19265365600586 12.248063087463379 10.91438102722168 12.263400077819824 L10.91438102722168 12.263400077819824 C10.917344093322754 12.377518653869629 10.920308113098145 12.491636276245117 10.923271179199219 12.605754852294922 L10.923271179199219 12.605754852294922 C11.233325958251953 12.605754852294922 11.543379783630371 12.605754852294922 11.853434562683105 12.605754852294922 L11.853434562683105 12.605754852294922 C11.866971015930176 12.77043628692627 11.880508422851562 12.935118675231934 11.894044876098633 13.099800109863281 L11.894044876098633 13.099800109863281 C11.343626976013184 13.116090774536133 10.793208122253418 13.132381439208984 10.242790222167969 13.148672103881836 L10.242790222167969 13.148672103881836 C10.10064697265625 12.50521183013916 9.979072570800781 11.478842735290527 10.216498374938965 10.857163429260254 L10.216498374938965 10.857163429260254"></path></svg>