<svg xmlns="http://www.w3.org/2000/svg" viewBox="0.0 0.0 24.0 24.0" height="200px" width="200px"><path fill="none" stroke="black" stroke-width=".3" stroke-opacity="1.0"  filling="0" d="M14.157792091369629 10.473981857299805 L14.157792091369629 10.473981857299805 C14.44742488861084 10.480713844299316 14.737154006958008 10.483942985534668 15.026865005493164 10.484209060668945 L15.026865005493164 10.484209060668945 C14.926506042480469 11.579370498657227 14.158941268920898 12.077427864074707 13.747528076171875 13.024554252624512 L13.747528076171875 13.024554252624512 C14.153376579284668 13.056389808654785 14.54242992401123 13.061756134033203 14.949600219726562 13.061944961547852 L14.949600219726562 13.061944961547852 C14.939836502075195 13.321391105651855 14.930072784423828 13.580836296081543 14.920309066772461 13.840282440185547 L14.920309066772461 13.840282440185547 C14.675230026245117 13.826554298400879 12.624043464660645 13.992257118225098 12.573819160461426 13.668654441833496 C12.41076946258545 12.618099212646484 13.808914184570312 12.107378005981445 14.003756523132324 11.177236557006836 L14.003756523132324 11.177236557006836 C13.611658096313477 11.16324520111084 13.243114471435547 11.179697036743164 12.854783058166504 11.159753799438477 L12.854783058166504 11.159753799438477 C12.854783058166504 10.933980941772461 12.854783058166504 10.708209037780762 12.854783058166504 10.482436180114746 L12.854783058166504 10.482436180114746 C13.29299259185791 10.499072074890137 13.72011947631836 10.50191879272461 14.157792091369629 10.473981857299805 L14.157792091369629 10.473981857299805"></path></svg>