<svg xmlns="http://www.w3.org/2000/svg" viewBox="0.0 0.0 24.0 24.0" height="200px" width="200px"><path fill="none" stroke="black" stroke-width=".3" stroke-opacity="1.0"  filling="0" d="M13.030744552612305 11.899800300598145 L13.030744552612305 11.899800300598145 C13.099717140197754 11.899800300598145 13.16869068145752 11.899800300598145 13.237663269042969 11.899800300598145 L13.237663269042969 11.899800300598145 C13.187444686889648 11.920982360839844 13.137227058410645 11.942164421081543 13.087008476257324 11.963346481323242 L13.087008476257324 11.963346481323242 C13.090126991271973 11.972827911376953 13.093244552612305 11.982309341430664 13.096363067626953 11.991790771484375 L13.096363067626953 11.991790771484375 C13.137845039367676 11.98774528503418 13.179326057434082 11.983699798583984 13.220808029174805 11.979654312133789 L13.220808029174805 11.979654312133789 C13.222071647644043 11.986245155334473 13.223336219787598 11.992836952209473 13.224599838256836 11.999427795410156 L13.224599838256836 11.999427795410156 C13.181872367858887 12.024055480957031 13.139144897460938 12.04868221282959 13.096417427062988 12.073309898376465 L13.096417427062988 12.073309898376465 C13.099353790283203 12.083328247070312 13.102291107177734 12.093345642089844 13.10522747039795 12.103363990783691 L13.10522747039795 12.103363990783691 C13.148727416992188 12.108227729797363 13.192227363586426 12.113090515136719 13.235727310180664 12.11795425415039 L13.235727310180664 12.11795425415039 C13.181400299072266 12.132172584533691 13.12707233428955 12.146390914916992 13.072745323181152 12.160609245300293 L13.072745323181152 12.160609245300293 C13.058745384216309 12.073673248291016 13.044744491577148 11.986736297607422 13.030744552612305 11.899800300598145 L13.030744552612305 11.899800300598145"></path></svg>