<svg xmlns="http://www.w3.org/2000/svg" viewBox="0.0 0.0 24.0 24.0" height="200px" width="200px"><path fill="none" stroke="black" stroke-width=".3" stroke-opacity="1.0"  filling="0" d="M11.419853210449219 10.506681442260742 L11.419853210449219 10.506681442260742 C11.447235107421875 10.516453742980957 11.474617004394531 10.526226997375488 11.501998901367188 10.535999298095703 L11.501998901367188 10.535999298095703 C11.423880577087402 10.694663047790527 11.345763206481934 10.853326797485352 11.267644882202148 11.011990547180176 L11.267644882202148 11.011990547180176 C11.2019624710083 11.021245002746582 11.13628101348877 11.030500411987305 11.070598602294922 11.039754867553711 L11.070598602294922 11.039754867553711 C11.065635681152344 12.84160041809082 11.588665962219238 13.270523071289062 11.59134578704834 11.04411792755127 L11.59134578704834 11.04411792755127 C11.526236534118652 11.039545059204102 11.461127281188965 11.03497314453125 11.396018028259277 11.030400276184082 L11.396018028259277 11.030400276184082 C11.503018379211426 10.86240005493164 11.610017776489258 10.6943998336792 11.717018127441406 10.526399612426758 L11.717018127441406 10.526399612426758 C11.777327537536621 10.530936241149902 11.83763599395752 10.53547191619873 11.897945404052734 10.540008544921875 L11.897945404052734 10.540008544921875 C11.815000534057617 10.704962730407715 11.732054710388184 10.869917869567871 11.649109840393066 11.034872055053711 L11.649109840393066 11.034872055053711 C13.882108688354492 11.19503402709961 10.832270622253418 14.997549057006836 10.390390396118164 12.528900146484375 C10.303996086120605 12.046244621276855 10.434985160827637 11.501351356506348 10.436590194702148 11.012126922607422 L10.436590194702148 11.012126922607422 C10.80357837677002 11.04572582244873 11.1170654296875 10.71674919128418 11.419853210449219 10.506681442260742 L11.419853210449219 10.506681442260742"></path></svg>