<svg xmlns="http://www.w3.org/2000/svg" viewBox="0.0 0.0 24.0 24.0" height="200px" width="200px"><path fill="none" stroke="black" stroke-width=".3" stroke-opacity="1.0"  filling="0" d="M21.893756866455078 10.472890853881836 L21.893756866455078 10.472890853881836 C22.392854690551758 11.002144813537598 21.95767593383789 13.07804012298584 22.02092742919922 13.78180980682373 L22.02092742919922 13.78180980682373 C21.81586456298828 13.791437149047852 21.610801696777344 13.801064491271973 21.405738830566406 13.810691833496094 L21.405738830566406 13.810691833496094 C21.028329849243164 13.318973541259766 20.650920867919922 12.827255249023438 20.27351188659668 12.33553695678711 L20.27351188659668 12.33553695678711 C20.19778060913086 12.759029388427734 20.260204315185547 12.872464179992676 20.246917724609375 13.314465522766113 L20.246917724609375 13.314465522766113 C20.230636596679688 13.237893104553223 20.21435546875 13.161319732666016 20.198074340820312 13.084747314453125 L20.198074340820312 13.084747314453125 C20.190217971801758 13.085619926452637 20.182363510131836 13.086492538452148 20.17450714111328 13.08736515045166 L20.17450714111328 13.08736515045166 C20.199954986572266 13.417409896850586 19.786869049072266 13.773602485656738 19.45584487915039 13.772727012634277 L19.45584487915039 13.772727012634277 C19.437076568603516 12.679083824157715 19.460052490234375 11.562459945678711 19.379756927490234 10.473628044128418 L19.379756927490234 10.473628044128418 C20.34825897216797 10.477359771728516 20.62470817565918 11.1934814453125 21.083511352539062 11.969836235046387 L21.083511352539062 11.969836235046387 C21.11078453063965 11.956109046936035 21.1380558013916 11.942381858825684 21.165328979492188 11.928654670715332 L21.165328979492188 11.928654670715332 C21.154674530029297 11.456518173217773 21.144020080566406 10.984381675720215 21.133365631103516 10.512245178222656 L21.133365631103516 10.512245178222656 C21.386829376220703 10.499127388000488 21.64029312133789 10.486008644104004 21.893756866455078 10.472890853881836 L21.893756866455078 10.472890853881836"></path></svg>