<svg xmlns="http://www.w3.org/2000/svg" viewBox="0.0 0.0 24.0 24.0" height="200px" width="200px"><path fill="none" stroke="black" stroke-width=".3" stroke-opacity="1.0"  filling="0" d="M9.099027633666992 8.536771774291992 L9.099027633666992 8.536771774291992 C9.832179069519043 8.677431106567383 10.472542762756348 8.853647232055664 11.054890632629395 9.339982032775879 L11.054890632629395 9.339982032775879 C10.8538818359375 9.672218322753906 10.652873039245605 10.004454612731934 10.451864242553711 10.336690902709961 L10.451864242553711 10.336690902709961 C10.073715209960938 10.215630531311035 9.75750732421875 9.932303428649902 9.373882293701172 9.82990837097168 C9.166267395019531 9.774493217468262 7.8338398933410645 9.901836395263672 8.483291625976562 10.458627700805664 C9.664443016052246 11.471259117126465 11.416584014892578 11.745283126831055 11.96694564819336 13.384855270385742 C12.268670082092285 14.283717155456543 11.590601921081543 15.155993461608887 10.82097339630127 15.496171951293945 C9.412412643432617 16.11876106262207 7.745781421661377 15.534893035888672 6.866018295288086 14.357507705688477 L6.866018295288086 14.357507705688477 C7.101649284362793 14.031758308410645 7.243387222290039 13.275032043457031 7.619891166687012 13.41602611541748 C8.339448928833008 13.6854887008667 9.40282154083252 15.336182594299316 10.37948226928711 14.348207473754883 C11.03797435760498 13.682086944580078 10.566343307495117 13.288473129272461 10.09658145904541 12.962153434753418 C9.189031600952148 12.331724166870117 8.012578010559082 12.02978515625 7.32665491104126 11.09757137298584 C6.210570812225342 9.580740928649902 7.789738655090332 8.605792999267578 9.099027633666992 8.536771774291992 L9.099027633666992 8.536771774291992"></path></svg>