<svg xmlns="http://www.w3.org/2000/svg" viewBox="0.0 0.0 24.0 24.0" height="200px" width="200px"><path fill="none" stroke="black" stroke-width=".3" stroke-opacity="1.0"  filling="0" d="M24.00253677368164 9.491127014160156 L24.00253677368164 9.491127014160156 C24.159257888793945 9.641178131103516 24.20461082458496 9.702994346618652 24.04715347290039 9.867464065551758 L24.04715347290039 9.867464065551758 C24.04715347290039 11.305301666259766 24.04715347290039 12.743135452270508 24.04715347290039 14.1809720993042 L24.04715347290039 14.1809720993042 C24.521894454956055 14.724308013916016 22.954383850097656 14.568692207336426 22.76653289794922 14.550654411315918 L22.76653289794922 14.550654411315918 C22.759675979614258 14.412851333618164 22.810171127319336 14.258262634277344 22.909061431884766 14.1620454788208 L22.909061431884766 14.1620454788208 C22.910633087158203 12.733881950378418 22.908992767333984 11.313400268554688 22.909090042114258 9.885927200317383 L22.909090042114258 9.885927200317383 C22.816972732543945 9.785258293151855 22.772748947143555 9.636418342590332 22.77267074584961 9.499963760375977 L22.77267074584961 9.499963760375977 C23.1805419921875 9.458579063415527 23.592571258544922 9.491186141967773 24.00253677368164 9.491127014160156 L24.00253677368164 9.491127014160156"></path></svg>