<svg xmlns="http://www.w3.org/2000/svg" viewBox="0.0 0.0 24.0 24.0" height="200px" width="200px"><path fill="none" stroke="black" stroke-width=".3" stroke-opacity="1.0"  filling="0" d="M-8.380064010620117 11.020090103149414 L-8.380064010620117 11.020090103149414 C-8.380064010620117 11.1607084274292 -8.380064010620117 11.301325798034668 -8.380064010620117 11.441944122314453 L-8.380064010620117 11.441944122314453 C-8.413981437683105 11.450653076171875 -8.44789981842041 11.459362983703613 -8.481817245483398 11.468071937561035 L-8.481817245483398 11.468071937561035 C-8.481817245483398 12.226826667785645 -8.484174728393555 12.98226261138916 -8.481817245483398 13.738690376281738 L-8.481817245483398 13.738690376281738 C-7.980783462524414 13.763866424560547 -7.479273319244385 13.738821029663086 -6.977943420410156 13.76416301727295 L-6.977943420410156 13.76416301727295 C-6.829519271850586 15.17570972442627 -9.454489707946777 14.78079605102539 -9.449563980102539 14.16324520111084 L-9.449563980102539 14.16324520111084 C-9.387581825256348 14.15743637084961 -9.325600624084473 14.151626586914062 -9.263618469238281 14.145817756652832 L-9.263618469238281 14.145817756652832 C-9.295023918151855 12.573396682739258 -10.051356315612793 11.033004760742188 -8.380064010620117 11.020090103149414 L-8.380064010620117 11.020090103149414"></path></svg>