<svg xmlns="http://www.w3.org/2000/svg" viewBox="0.0 0.0 24.0 24.0" height="200px" width="200px"><path fill="none" stroke="black" stroke-width=".3" stroke-opacity="1.0"  filling="0" d="M-15.66995620727539 10.992600440979004 L-15.66995620727539 10.992600440979004 C-13.714639663696289 10.997040748596191 -12.494528770446777 12.32779598236084 -13.898046493530273 14.2289457321167 C-14.244449615478516 14.698169708251953 -15.375415802001953 14.536812782287598 -15.867164611816406 14.536391258239746 L-15.867164611816406 14.536391258239746 C-15.856518745422363 14.401527404785156 -15.845873832702637 14.266664505004883 -15.835227966308594 14.131800651550293 L-15.835227966308594 14.131800651550293 C-15.76998233795166 14.128854751586914 -15.704737663269043 14.125909805297852 -15.63949203491211 14.122963905334473 L-15.63949203491211 14.122963905334473 C-15.531022071838379 12.988807678222656 -15.823592185974121 12.018759727478027 -15.818183898925781 11.025327682495117 L-15.818183898925781 11.025327682495117 C-15.76877498626709 11.014418601989746 -15.719365119934082 11.003509521484375 -15.66995620727539 10.992600440979004 L-15.66995620727539 10.992600440979004"></path>
<path fill="none" stroke="black" stroke-width=".3" stroke-opacity="1.0"  filling="0" d="M-14.669073104858398 11.81132698059082 L-14.669073104858398 11.81132698059082 C-14.033787727355957 12.327346801757812 -13.725452423095703 13.500146865844727 -14.80911636352539 13.75712776184082 L-14.80911636352539 13.75712776184082 C-14.809097290039062 13.259417533874512 -15.064395904541016 12.128213882446289 -14.669073104858398 11.81132698059082 L-14.669073104858398 11.81132698059082"></path></svg>