<svg xmlns="http://www.w3.org/2000/svg" viewBox="0.0 0.0 24.0 24.0" height="200px" width="200px"><path fill="none" stroke="black" stroke-width=".3" stroke-opacity="1.0"  filling="0" d="M24.341564178466797 9.491236686706543 L24.341564178466797 9.491236686706543 C25.948694229125977 9.490211486816406 28.65260887145996 8.57574462890625 28.31536293029785 10.768527030944824 L28.31536293029785 10.768527030944824 C28.314165115356445 10.768513679504395 25.704919815063477 10.738726615905762 25.701818466186523 10.738691329956055 L25.701818466186523 10.738691329956055 C25.694164276123047 10.870218276977539 25.686508178710938 11.00174617767334 25.67885398864746 11.133273124694824 L25.67885398864746 11.133273124694824 C26.59225082397461 11.120271682739258 26.2635555267334 11.90965461730957 26.263580322265625 12.649008750915527 L26.263580322265625 12.649008750915527 C26.065916061401367 12.649008750915527 25.868253707885742 12.649008750915527 25.670589447021484 12.649008750915527 L25.670589447021484 12.649008750915527 C25.670589447021484 12.892899513244629 25.670589447021484 13.136791229248047 25.670589447021484 13.380681991577148 L25.670589447021484 13.380681991577148 C26.793668746948242 13.486119270324707 28.00495147705078 13.47986888885498 29.127681732177734 13.395218849182129 L29.127681732177734 13.395218849182129 C29.12821388244629 13.789228439331055 29.20389175415039 14.207050323486328 29.064435958862305 14.575555801391602 L29.064435958862305 14.575555801391602 C27.453622817993164 14.575554847717285 25.842796325683594 14.575554847717285 24.23198127746582 14.575554847717285 L24.23198127746582 14.575554847717285 C24.2330379486084 14.433127403259277 24.244304656982422 14.212589263916016 24.381790161132812 14.175382614135742 L24.381790161132812 14.175382614135742 C24.381790161132812 12.625494956970215 24.2303409576416 10.98146915435791 24.218727111816406 9.499146461486816 L24.218727111816406 9.499146461486816 C24.259672164916992 9.496509552001953 24.30061912536621 9.493873596191406 24.341564178466797 9.491236686706543 L24.341564178466797 9.491236686706543"></path></svg>