<svg xmlns="http://www.w3.org/2000/svg" viewBox="0.0 0.0 24.0 24.0" height="200px" width="200px"><path fill="none" stroke="black" stroke-width=".3" stroke-opacity="1.0"  filling="0" d="M9.551891326904297 11.276426315307617 L9.551891326904297 11.276426315307617 C9.814321517944336 11.304861068725586 10.141340255737305 11.361282348632812 10.281108856201172 11.585208892822266 L10.281108856201172 11.585208892822266 C10.21420955657959 11.595172882080078 10.147309303283691 11.605135917663574 10.08041000366211 11.615099906921387 L10.08041000366211 11.615099906921387 C9.91065788269043 11.49775218963623 9.616964340209961 11.538800239562988 9.464509010314941 11.677881240844727 L9.464509010314941 11.677881240844727 C9.698009490966797 11.807121276855469 10.016105651855469 11.80986213684082 10.19326400756836 12.009462356567383 C10.666136741638184 12.542238235473633 9.576992988586426 12.98763656616211 9.250036239624023 12.252680778503418 L9.250036239624023 12.252680778503418 C9.531716346740723 12.235645294189453 9.655709266662598 12.612418174743652 10.022863388061523 12.441598892211914 C10.34459400177002 12.291913032531738 9.28040599822998 11.740769386291504 9.275318145751953 11.698444366455078 C9.255245208740234 11.531455993652344 9.459700584411621 11.417098999023438 9.551891326904297 11.276426315307617 L9.551891326904297 11.276426315307617"></path></svg>