<svg xmlns="http://www.w3.org/2000/svg" viewBox="0.0 0.0 24.0 24.0" height="200px" width="200px"><path fill="none" stroke="black" stroke-width=".3" stroke-opacity="1.0"  filling="0" d="M15.339027404785156 11.727572441101074 L15.339027404785156 11.727572441101074 C16.319971084594727 11.72911262512207 15.919513702392578 11.981600761413574 15.511581420898438 12.481663703918457 L15.511581420898438 12.481663703918457 C15.6730375289917 12.506237983703613 15.834794998168945 12.528867721557617 15.996736526489258 12.550008773803711 L15.996736526489258 12.550008773803711 C16.01182746887207 12.581554412841797 16.026918411254883 12.613099098205566 16.042009353637695 12.644644737243652 L16.042009353637695 12.644644737243652 C15.816798210144043 12.738204956054688 15.5244140625 12.676156044006348 15.285926818847656 12.660789489746094 L15.285926818847656 12.660789489746094 C15.419486999511719 12.357283592224121 15.586118698120117 12.123551368713379 15.8133544921875 11.87735366821289 L15.8133544921875 11.87735366821289 C15.64024543762207 11.865708351135254 15.46713638305664 11.854063034057617 15.294027328491211 11.84241771697998 L15.294027328491211 11.84241771697998 C15.309027671813965 11.804136276245117 15.324027061462402 11.765853881835938 15.339027404785156 11.727572441101074 L15.339027404785156 11.727572441101074"></path></svg>