<svg xmlns="http://www.w3.org/2000/svg" viewBox="0.0 0.0 24.0 24.0" height="200px" width="200px"><path fill="none" stroke="black" stroke-width=".3" stroke-opacity="1.0"  filling="0" d="M28.033227920532227 8.536502838134766 L28.033227920532227 8.536502838134766 C28.41402244567871 8.536947250366211 28.800016403198242 8.500555992126465 29.175247192382812 8.565411567687988 L29.175247192382812 8.565411567687988 C29.175247192382812 8.690266609191895 29.175247192382812 8.815120697021484 29.175247192382812 8.93997573852539 L29.175247192382812 8.93997573852539 C29.12291145324707 8.943666458129883 29.070573806762695 8.947358131408691 29.018238067626953 8.951048851013184 L29.018238067626953 8.951048851013184 C29.018238067626953 10.4623384475708 29.006601333618164 11.974193572998047 29.01946449279785 13.485440254211426 C29.032758712768555 15.047228813171387 29.79265594482422 16.1361141204834 27.762001037597656 15.704727172851562 L27.762001037597656 15.704727172851562 C27.774946212768555 15.581281661987305 27.787893295288086 15.457837104797363 27.800838470458984 15.334391593933105 L27.800838470458984 15.334391593933105 C27.839155197143555 15.329936981201172 27.877473831176758 15.325483322143555 27.915790557861328 15.321028709411621 L27.915790557861328 15.321028709411621 C28.394512176513672 13.412707328796387 27.951669692993164 10.963458061218262 27.954492568969727 8.963920593261719 L27.954492568969727 8.963920593261719 C27.637033462524414 8.857592582702637 27.849231719970703 8.717862129211426 28.033227920532227 8.536502838134766 L28.033227920532227 8.536502838134766"></path></svg>