<svg xmlns="http://www.w3.org/2000/svg" viewBox="0.0 0.0 24.0 24.0" height="200px" width="200px"><path fill="none" stroke="black" stroke-width=".3" stroke-opacity="1.0"  filling="0" d="M13.674982070922852 11.810591697692871 L13.674982070922852 11.810591697692871 C13.679427146911621 11.824009895324707 13.683873176574707 11.83742904663086 13.688318252563477 11.850847244262695 L13.688318252563477 11.850847244262695 C13.572854995727539 11.954811096191406 13.457390785217285 12.0587739944458 13.341927528381348 12.162737846374512 L13.341927528381348 12.162737846374512 C13.446473121643066 12.162737846374512 13.551018714904785 12.162737846374512 13.655564308166504 12.162737846374512 L13.655564308166504 12.162737846374512 C13.544344902038574 12.29995059967041 13.313817977905273 12.272687911987305 13.137190818786621 12.272564888000488 L13.137190818786621 12.272564888000488 C13.226354598999023 12.161901473999023 13.315518379211426 12.051237106323242 13.404682159423828 11.940573692321777 L13.404682159423828 11.940573692321777 C13.324845314025879 11.897782325744629 13.245009422302246 11.854991912841797 13.165172576904297 11.812200546264648 L13.165172576904297 11.812200546264648 C13.335108757019043 11.811664581298828 13.505045890808105 11.811127662658691 13.674982070922852 11.810591697692871 L13.674982070922852 11.810591697692871"></path></svg>