<svg xmlns="http://www.w3.org/2000/svg" viewBox="0.0 0.0 24.0 24.0" height="200px" width="200px"><path fill="none" stroke="black" stroke-width=".3" stroke-opacity="1.0"  filling="0" d="M13.824299812316895 11.387672424316406 L13.824299812316895 11.387672424316406 C14.031966209411621 11.395503997802734 14.263941764831543 11.338951110839844 14.445544242858887 11.439982414245605 L14.445544242858887 11.439982414245605 C14.285808563232422 11.479055404663086 14.12607192993164 11.51812744140625 13.966336250305176 11.55720043182373 L13.966336250305176 11.55720043182373 C13.961336135864258 11.614909172058105 13.956336975097656 11.67261791229248 13.951336860656738 11.730326652526855 L13.951336860656738 11.730326652526855 C14.236759185791016 11.731345176696777 14.786999702453613 11.511910438537598 14.80502700805664 11.796764373779297 C14.821084976196289 12.050501823425293 14.29886531829834 11.84902286529541 14.048209190368652 11.89159107208252 C13.805021286010742 11.932890892028809 13.964191436767578 12.58631706237793 13.975500106811523 12.705382347106934 L13.975500106811523 12.705382347106934 C14.356039047241211 12.735987663269043 14.738821029663086 12.63537883758545 15.116100311279297 12.71631908416748 L15.116100311279297 12.71631908416748 C15.123964309692383 12.770391464233398 15.131827354431152 12.824464797973633 15.139691352844238 12.87853717803955 L15.139691352844238 12.87853717803955 C14.684799194335938 12.879176139831543 14.237112045288086 12.939343452453613 13.784781455993652 12.88622760772705 L13.784781455993652 12.88622760772705 C13.797954559326172 12.386709213256836 13.811126708984375 11.887190818786621 13.824299812316895 11.387672424316406 L13.824299812316895 11.387672424316406"></path></svg>