<svg xmlns="http://www.w3.org/2000/svg" viewBox="0.0 0.0 24.0 24.0" height="200px" width="200px"><path fill="none" stroke="black" stroke-width=".3" stroke-opacity="1.0"  filling="0" d="M14.092062950134277 11.264427185058594 L14.092062950134277 11.264427185058594 C14.29057502746582 11.277388572692871 14.489529609680176 11.285804748535156 14.68846321105957 11.286382675170898 L14.68846321105957 11.286382675170898 C14.533201217651367 11.493480682373047 14.395659446716309 11.427218437194824 14.154790878295898 11.427218437194824 L14.154790878295898 11.427218437194824 C14.154396057128906 11.8098726272583 14.745644569396973 11.432156562805176 14.920199394226074 11.791200637817383 L14.920199394226074 11.791200637817383 C14.673726081848145 11.791200637817383 14.427253723144531 11.791200637817383 14.180780410766602 11.791200637817383 L14.180780410766602 11.791200637817383 C14.180780410766602 12.024409294128418 14.180780410766602 12.25761890411377 14.180780410766602 12.490827560424805 L14.180780410766602 12.490827560424805 C14.527918815612793 12.491227149963379 15.284530639648438 12.359216690063477 15.596782684326172 12.601472854614258 L15.596782684326172 12.601472854614258 C15.145230293273926 12.842604637145996 14.493109703063965 12.67671012878418 13.990936279296875 12.641181945800781 L13.990936279296875 12.641181945800781 C13.990327835083008 12.193199157714844 13.745332717895508 11.584903717041016 14.092062950134277 11.264427185058594 L14.092062950134277 11.264427185058594"></path></svg>