<svg xmlns="http://www.w3.org/2000/svg" viewBox="0.0 0.0 24.0 24.0" height="200px" width="200px"><path fill="none" stroke="black" stroke-width=".3" stroke-opacity="1.0"  filling="0" d="M10.980490684509277 11.92418098449707 L10.980490684509277 11.92418098449707 C11.02186393737793 11.927281379699707 11.063236236572266 11.930381774902344 11.104609489440918 11.93348217010498 L11.104609489440918 11.93348217010498 C11.13204574584961 12.024581909179688 11.1594820022583 12.115681648254395 11.186918258666992 12.206781387329102 L11.186918258666992 12.206781387329102 C11.172027587890625 12.210099220275879 11.157136917114258 12.213418006896973 11.14224624633789 12.21673583984375 L11.14224624633789 12.21673583984375 C11.133591651916504 12.191572189331055 11.124937057495117 12.16640853881836 11.11628246307373 12.141244888305664 L11.11628246307373 12.141244888305664 C11.074455261230469 12.139299392700195 11.03262710571289 12.137354850769043 10.990799903869629 12.135409355163574 L10.990799903869629 12.135409355163574 C10.964272499084473 12.164009094238281 10.937745094299316 12.192608833312988 10.91121768951416 12.221208572387695 L10.91121768951416 12.221208572387695 C10.901782035827637 12.216472625732422 10.892345428466797 12.211735725402832 10.882909774780273 12.206999778747559 L10.882909774780273 12.206999778747559 C10.915436744689941 12.112727165222168 10.94796371459961 12.018453598022461 10.980490684509277 11.92418098449707 L10.980490684509277 11.92418098449707"></path></svg>