<svg xmlns="http://www.w3.org/2000/svg" viewBox="0.0 0.0 24.0 24.0" height="200px" width="200px"><path fill="none" stroke="black" stroke-width=".3" stroke-opacity="1.0"  filling="0" d="M12.074344635009766 11.69530963897705 L12.074344635009766 11.69530963897705 C12.17428970336914 11.867363929748535 12.274235725402832 12.039419174194336 12.374180793762207 12.21147346496582 L12.374180793762207 12.21147346496582 C12.216680526733398 12.158382415771484 12.059181213378906 12.105291366577148 11.901680946350098 12.052200317382812 L11.901680946350098 12.052200317382812 C11.897272109985352 12.092000007629395 11.892862319946289 12.131800651550293 11.888453483581543 12.171600341796875 L11.888453483581543 12.171600341796875 C12.046391487121582 12.275091171264648 12.17647647857666 12.304281234741211 12.364253997802734 12.27905559539795 L12.364253997802734 12.27905559539795 C12.366945266723633 12.290400505065918 12.369636535644531 12.301746368408203 12.37232780456543 12.313091278076172 L12.37232780456543 12.313091278076172 C11.776449203491211 12.30697250366211 11.493144989013672 12.103913307189941 12.074344635009766 11.69530963897705 L12.074344635009766 11.69530963897705"></path>
<path fill="none" stroke="black" stroke-width=".3" stroke-opacity="1.0"  filling="0" d="M12.010063171386719 11.79163646697998 L12.010063171386719 11.79163646697998 C12.082399368286133 11.874345779418945 12.154736518859863 11.957054138183594 12.227072715759277 12.039763450622559 L12.227072715759277 12.039763450622559 C12.110109329223633 12.00074577331543 11.993144989013672 11.961727142333984 11.876181602478027 11.922709465026855 L11.876181602478027 11.922709465026855 C11.920808792114258 11.879018783569336 11.965435981750488 11.8353271484375 12.010063171386719 11.79163646697998 L12.010063171386719 11.79163646697998"></path></svg>