<svg xmlns="http://www.w3.org/2000/svg" viewBox="0.0 0.0 24.0 24.0" height="200px" width="200px"><path fill="none" stroke="black" stroke-width=".3" stroke-opacity="1.0"  filling="0" d="M16.601619720458984 9.865145683288574 L16.601619720458984 9.865145683288574 C18.05182456970215 9.900556564331055 18.517038345336914 10.708797454833984 18.34221839904785 12.018575668334961 L18.34221839904785 12.018575668334961 C18.015182495117188 12.046762466430664 17.18755531311035 12.318984031677246 17.10019302368164 11.88744831085205 C17.06531524658203 11.715166091918945 17.154743194580078 11.119706153869629 17.022220611572266 10.923738479614258 C16.916589736938477 10.767536163330078 16.436752319335938 10.493693351745605 16.368709564208984 10.956003189086914 C16.129470825195312 12.58150577545166 20.713533401489258 14.182456970214844 17.666702270507812 16.007183074951172 C15.756324768066406 17.151294708251953 14.94691276550293 15.039609909057617 14.945455551147461 13.609146118164062 L14.945455551147461 13.609146118164062 C15.37843132019043 13.609795570373535 15.811480522155762 13.61868667602539 16.24410057067871 13.636228561401367 L16.24410057067871 13.636228561401367 C16.263498306274414 13.847997665405273 16.129913330078125 14.712800025939941 16.31140899658203 14.919900894165039 C17.309207916259766 16.058469772338867 17.016878128051758 14.170865058898926 16.934017181396484 13.978800773620605 C16.521438598632812 13.02247428894043 13.33378791809082 10.958528518676758 15.992728233337402 9.952773094177246 C16.184520721435547 9.880226135253906 16.398656845092773 9.894354820251465 16.601619720458984 9.865145683288574 L16.601619720458984 9.865145683288574"></path></svg>