<svg xmlns="http://www.w3.org/2000/svg" viewBox="0.0 0.0 24.0 24.0" height="200px" width="200px"><path fill="none" stroke="black" stroke-width=".3" stroke-opacity="1.0"  filling="0" d="M11.198291778564453 9.875235557556152 L11.198291778564453 9.875235557556152 C13.192007064819336 9.961100578308105 13.308058738708496 11.50544548034668 12.997881889343262 13.23016357421875 L12.997881889343262 13.23016357421875 C12.989058494567871 13.23016357421875 10.997038841247559 13.23019027709961 10.99096393585205 13.23019027709961 L10.99096393585205 13.23019027709961 C10.997062683105469 15.458182334899902 11.804513931274414 15.755620002746582 11.80911922454834 13.62169075012207 L11.80911922454834 13.62169075012207 C14.450231552124023 13.282281875610352 12.886223793029785 16.78800392150879 10.907754898071289 16.089736938476562 C9.938501358032227 15.747654914855957 9.398065567016602 14.273619651794434 9.406477928161621 12.845309257507324 C9.414891242980957 11.416999816894531 9.972152709960938 10.034415245056152 11.198291778564453 9.875235557556152 L11.198291778564453 9.875235557556152"></path>
<path fill="none" stroke="black" stroke-width=".3" stroke-opacity="1.0"  filling="0" d="M11.401445388793945 10.721480369567871 L11.401445388793945 10.721480369567871 C11.796387672424316 11.179693222045898 11.801533699035645 11.623330116271973 11.724409103393555 12.218153953552246 L11.724409103393555 12.218153953552246 C10.684276580810547 12.21745777130127 10.639948844909668 11.220146179199219 11.401445388793945 10.721480369567871 L11.401445388793945 10.721480369567871"></path></svg>