<svg xmlns="http://www.w3.org/2000/svg" viewBox="0.0 0.0 24.0 24.0" height="200px" width="200px"><path fill="none" stroke="black" stroke-width=".3" stroke-opacity="1.0"  filling="0" d="M11.589599609375 11.895490646362305 L11.589599609375 11.895490646362305 C11.607827186584473 12.017682075500488 11.626053810119629 12.139872550964355 11.644281387329102 12.262063980102539 L11.644281387329102 12.262063980102539 C11.61456298828125 12.217854499816895 11.584844589233398 12.173645973205566 11.555126190185547 12.129436492919922 L11.555126190185547 12.129436492919922 C11.529190063476562 12.172100067138672 11.503253936767578 12.214763641357422 11.477317810058594 12.257427215576172 L11.477317810058594 12.257427215576172 C11.447344779968262 12.21762752532959 11.417372703552246 12.177827835083008 11.387399673461914 12.138028144836426 L11.387399673461914 12.138028144836426 C11.37696361541748 12.18215560913086 11.36652660369873 12.226282119750977 11.356090545654297 12.27040958404541 L11.356090545654297 12.27040958404541 C11.34700870513916 12.269736289978027 11.337926864624023 12.269063949584961 11.328845024108887 12.268390655517578 L11.328845024108887 12.268390655517578 C11.318726539611816 12.155845642089844 11.308609008789062 12.043299674987793 11.298490524291992 11.930754661560059 L11.298490524291992 11.930754661560059 C11.356136322021484 11.991145133972168 11.41378116607666 12.051536560058594 11.471426963806152 12.111927032470703 L11.471426963806152 12.111927032470703 C11.510817527770996 12.03978157043457 11.550209045410156 11.967636108398438 11.589599609375 11.895490646362305 L11.589599609375 11.895490646362305"></path></svg>