<svg xmlns="http://www.w3.org/2000/svg" viewBox="0.0 0.0 24.0 24.0" height="200px" width="200px"><path fill="none" stroke="black" stroke-width=".3" stroke-opacity="1.0"  filling="0" d="M-1.2272462844848633 4.909064292907715 L-1.2272462844848633 4.909064292907715 C0.24548065662384033 4.909064292907715 1.718209147453308 4.909064292907715 3.1909360885620117 4.909064292907715 L3.1909360885620117 4.909064292907715 C3.1723544597625732 4.955655097961426 3.1537725925445557 5.0022454261779785 3.135190963745117 5.0488362312316895 L3.135190963745117 5.0488362312316895 C2.757472515106201 5.123341083526611 2.3909521102905273 5.049671649932861 2.127354621887207 5.343927383422852 L2.127354621887207 5.343927383422852 C2.123500108718872 5.334990978240967 2.119645833969116 5.326054573059082 2.1157913208007812 5.317118167877197 L2.1157913208007812 5.317118167877197 C2.0446419715881348 5.329784870147705 1.9956787824630737 5.408592224121094 1.9672355651855469 5.475027561187744 L1.9672355651855469 5.475027561187744 C1.7882415056228638 5.504972457885742 1.6483224630355835 5.464130878448486 1.4674911499023438 5.455745697021484 L1.4674911499023438 5.455745697021484 C1.4382820129394531 5.430881977081299 1.4090728759765625 5.406018257141113 1.3798637390136719 5.381154537200928 L1.3798637390136719 5.381154537200928 C1.2963180541992188 5.378027439117432 1.2127723693847656 5.374899864196777 1.1292266845703125 5.371772766113281 L1.1292266845703125 5.371772766113281 C1.1048269271850586 5.3852362632751465 1.0804271697998047 5.39870023727417 1.0560274124145508 5.412163734436035 L1.0560274124145508 5.412163734436035 C0.6215957403182983 5.262320518493652 0.18056178092956543 5.233822822570801 -0.24951744079589844 5.068636894226074 L-0.24951744079589844 5.068636894226074 C-0.2606178820133209 5.083691596984863 -0.2717183530330658 5.098745822906494 -0.2828187942504883 5.113800525665283 L-0.2828187942504883 5.113800525665283 C-0.5679457187652588 5.017561435699463 -0.9791249632835388 5.05015754699707 -1.2272462844848633 4.909064292907715 L-1.2272462844848633 4.909064292907715"></path></svg>