<svg xmlns="http://www.w3.org/2000/svg" viewBox="0.0 0.0 24.0 24.0" height="200px" width="200px"><path fill="none" stroke="black" stroke-width=".3" stroke-opacity="1.0"  filling="0" d="M20.61084747314453 8.459917068481445 L20.61084747314453 8.459917068481445 C22.28014373779297 9.004137992858887 22.098421096801758 10.146851539611816 22.002573013305664 11.772626876831055 L22.002573013305664 11.772626876831055 C21.406471252441406 11.85849380493164 20.021221160888672 11.343029022216797 19.96393394470215 11.952354431152344 C19.90329933166504 12.597280502319336 19.81174659729004 14.015209197998047 20.434741973876953 13.837772369384766 C20.97536849975586 13.683794975280762 20.77011489868164 12.394518852233887 20.780780792236328 12.294381141662598 C20.825986862182617 11.869940757751465 21.63027572631836 12.190570831298828 22.057117462158203 12.190908432006836 L22.057117462158203 12.190908432006836 C22.147546768188477 14.172307968139648 20.903379440307617 15.678550720214844 18.911235809326172 14.095663070678711 C18.285003662109375 13.5980806350708 18.674602508544922 12.50831127166748 18.667888641357422 11.708491325378418 C18.649036407470703 9.462940216064453 18.398324966430664 8.93825626373291 20.61084747314453 8.459917068481445 L20.61084747314453 8.459917068481445"></path>
<path fill="none" stroke="black" stroke-width=".3" stroke-opacity="1.0"  filling="0" d="M20.3598575592041 9.314291000366211 L20.3598575592041 9.314291000366211 C20.85209083557129 9.604554176330566 20.806072235107422 10.26641845703125 20.694026947021484 10.797136306762695 L20.694026947021484 10.797136306762695 C20.45370101928711 10.797127723693848 20.2133731842041 10.797119140625 19.973047256469727 10.797110557556152 L19.973047256469727 10.797110557556152 C19.949642181396484 10.28149700164795 19.741687774658203 9.486998558044434 20.3598575592041 9.314291000366211 L20.3598575592041 9.314291000366211"></path></svg>