<svg xmlns="http://www.w3.org/2000/svg" viewBox="0.0 0.0 24.0 24.0" height="200px" width="200px"><path fill="none" stroke="black" stroke-width=".3" stroke-opacity="1.0"  filling="0" d="M22.281818389892578 9.518209457397461 L22.281818389892578 9.518209457397461 C23.009090423583984 9.518209457397461 23.73636245727539 9.518209457397461 24.463634490966797 9.518209457397461 L24.463634490966797 9.518209457397461 C24.463634490966797 9.618209838867188 24.463634490966797 9.718209266662598 24.463634490966797 9.818209648132324 L24.463634490966797 9.818209648132324 C24.19321632385254 9.818209648132324 23.922800064086914 9.818209648132324 23.652381896972656 9.818209648132324 L23.652381896972656 9.818209648132324 C23.643781661987305 10.55954647064209 23.635181427001953 11.300882339477539 23.626583099365234 12.042219161987305 L23.626583099365234 12.042219161987305 C23.905601501464844 12.046337127685547 24.184619903564453 12.050456047058105 24.463638305664062 12.054574012756348 L24.463638305664062 12.054574012756348 C24.463638305664062 12.390937805175781 24.463638305664062 12.727300643920898 24.463638305664062 13.063664436340332 L24.463638305664062 13.063664436340332 C24.1727294921875 13.067110061645508 23.881820678710938 13.070555686950684 23.590911865234375 13.07400131225586 L23.590911865234375 13.07400131225586 C23.590911865234375 13.5614652633667 23.590911865234375 14.048928260803223 23.590911865234375 14.536392211914062 L23.590911865234375 14.536392211914062 C23.13636589050293 14.536382675170898 22.68181800842285 14.536373138427734 22.227272033691406 14.53636360168457 L22.227272033691406 14.53636360168457 C22.22588348388672 12.877717971801758 22.15349578857422 11.168937683105469 22.281818389892578 9.518209457397461 L22.281818389892578 9.518209457397461"></path></svg>