<svg xmlns="http://www.w3.org/2000/svg" viewBox="0.0 0.0 24.0 24.0" height="200px" width="200px"><path fill="none" stroke="black" stroke-width=".3" stroke-opacity="1.0"  filling="0" d="M11.838382720947266 9.80064582824707 L11.838382720947266 9.80064582824707 C11.952173233032227 9.871882438659668 12.065964698791504 9.94311809539795 12.179755210876465 10.014354705810547 L12.179755210876465 10.014354705810547 C12.1931734085083 9.950528144836426 12.206592559814453 9.886700630187988 12.220010757446289 9.822874069213867 L12.220010757446289 9.822874069213867 C12.489456176757812 9.822874069213867 12.758901596069336 9.822874069213867 13.02834701538086 9.822874069213867 L13.02834701538086 9.822874069213867 C13.113212585449219 11.156746864318848 13.544953346252441 13.654642105102539 12.789219856262207 14.76695442199707 C12.215022087097168 15.612076759338379 10.139361381530762 14.749773979187012 10.830655097961426 13.614953994750977 L10.830655097961426 13.614953994750977 C11.102246284484863 13.614953994750977 11.373836517333984 13.614953994750977 11.645427703857422 13.614953994750977 L11.645427703857422 13.614953994750977 C11.649683952331543 15.004537582397461 12.190937042236328 14.113980293273926 12.190937042236328 13.161900520324707 L12.190937042236328 13.161900520324707 C10.783714294433594 14.397481918334961 9.912712097167969 10.189483642578125 11.838382720947266 9.80064582824707 L11.838382720947266 9.80064582824707"></path>
<path fill="none" stroke="black" stroke-width=".3" stroke-opacity="1.0"  filling="0" d="M11.79864501953125 10.481945037841797 L11.79864501953125 10.481945037841797 C12.950995445251465 10.62569808959961 11.723551750183105 14.578262329101562 11.727764129638672 11.617799758911133 C11.728303909301758 11.238445281982422 11.674883842468262 10.840543746948242 11.79864501953125 10.481945037841797 L11.79864501953125 10.481945037841797"></path></svg>