<svg xmlns="http://www.w3.org/2000/svg" viewBox="0.0 0.0 24.0 24.0" height="200px" width="200px"><path fill="none" stroke="black" stroke-width=".3" stroke-opacity="1.0"  filling="0" d="M13.749980926513672 8.24113655090332 L13.749980926513672 8.24113655090332 C14.138015747070312 9.268771171569824 14.257380485534668 10.31011962890625 14.520490646362305 11.371253967285156 L14.520490646362305 11.371253967285156 C14.52998161315918 11.369808197021484 14.539472579956055 11.368363380432129 14.54896354675293 11.366917610168457 L14.54896354675293 11.366917610168457 C14.50490665435791 10.832178115844727 14.528990745544434 10.241079330444336 14.522791862487793 9.72181224822998 C14.51680850982666 9.220623970031738 14.607244491577148 7.980198860168457 14.997300148010254 8.29497241973877 C15.22245979309082 8.476675987243652 15.084922790527344 9.128095626831055 15.083427429199219 9.36627197265625 C15.074616432189941 10.76970386505127 15.111884117126465 12.178194046020508 15.137155532836914 13.5810546875 C15.142318725585938 13.867663383483887 15.31876277923584 14.942748069763184 14.927672386169434 14.996944427490234 C14.275652885437012 15.087299346923828 14.378263473510742 12.123018264770508 14.02570915222168 11.883435249328613 L14.02570915222168 11.883435249328613 C14.005410194396973 12.468801498413086 14.039722442626953 13.158778190612793 14.046709060668945 13.701135635375977 C14.049047470092773 13.88266658782959 14.234393119812012 15.071550369262695 13.772890090942383 15.054218292236328 C13.36334228515625 15.038837432861328 13.50108528137207 13.965353965759277 13.499617576599121 13.836517333984375 C13.483418464660645 12.414409637451172 13.460144996643066 11.019556045532227 13.444389343261719 9.60049057006836 C13.434648513793945 8.723151206970215 13.1817045211792 8.634142875671387 13.749980926513672 8.24113655090332 L13.749980926513672 8.24113655090332"></path></svg>