<svg xmlns="http://www.w3.org/2000/svg" viewBox="0.0 0.0 24.0 24.0" height="200px" width="200px"><path fill="none" stroke="black" stroke-width=".3" stroke-opacity="1.0"  filling="0" d="M12.9998197555542 10.884325981140137 L12.9998197555542 10.884325981140137 C13.224963188171387 11.308866500854492 12.986649513244629 11.646207809448242 12.86320972442627 12.0818452835083 L12.86320972442627 12.0818452835083 C12.67105484008789 12.0818452835083 12.478900909423828 12.0818452835083 12.28674602508545 12.0818452835083 L12.28674602508545 12.0818452835083 C11.995283126831055 13.103507041931152 12.19097900390625 13.263291358947754 12.504327774047852 12.25726318359375 L12.504327774047852 12.25726318359375 C12.628836631774902 12.25726318359375 12.75334644317627 12.25726318359375 12.87785530090332 12.25726318359375 L12.87785530090332 12.25726318359375 C11.904914855957031 14.962328910827637 11.081789016723633 10.998303413391113 12.9998197555542 10.884325981140137 L12.9998197555542 10.884325981140137"></path>
<path fill="none" stroke="black" stroke-width=".3" stroke-opacity="1.0"  filling="0" d="M12.701700210571289 11.112408638000488 L12.701700210571289 11.112408638000488 C12.766677856445312 11.335613250732422 12.653192520141602 11.577071189880371 12.59023666381836 11.800854682922363 L12.59023666381836 11.800854682922363 C12.520909309387207 11.800854682922363 12.451581954956055 11.800854682922363 12.382254600524902 11.800854682922363 L12.382254600524902 11.800854682922363 C12.444256782531738 11.51888370513916 12.478839874267578 11.300334930419922 12.701700210571289 11.112408638000488 L12.701700210571289 11.112408638000488"></path></svg>