<svg xmlns="http://www.w3.org/2000/svg" viewBox="0.0 0.0 24.0 24.0" height="200px" width="200px"><path fill="none" stroke="black" stroke-width=".3" stroke-opacity="1.0"  filling="0" d="M15.040963172912598 11.618890762329102 L15.040963172912598 11.618890762329102 C15.475507736206055 11.62081527709961 15.765450477600098 11.857987403869629 15.382989883422852 12.235282897949219 L15.382989883422852 12.235282897949219 C15.461344718933105 12.368027687072754 15.539700508117676 12.500773429870605 15.61805534362793 12.63351821899414 L15.61805534362793 12.63351821899414 C15.445423126220703 12.574640274047852 15.320560455322266 12.407073974609375 15.227644920349121 12.250117301940918 L15.227644920349121 12.250117301940918 C15.215108871459961 12.384281158447266 15.2025728225708 12.518445014953613 15.19003677368164 12.652608871459961 L15.19003677368164 12.652608871459961 C15.140345573425293 12.640663146972656 15.090654373168945 12.628718376159668 15.040963172912598 12.616772651672363 L15.040963172912598 12.616772651672363 C15.040963172912598 12.28414535522461 15.040963172912598 11.951518058776855 15.040963172912598 11.618890762329102 L15.040963172912598 11.618890762329102"></path>
<path fill="none" stroke="black" stroke-width=".3" stroke-opacity="1.0"  filling="0" d="M15.22909164428711 11.76695442199707 L15.22909164428711 11.76695442199707 C15.27699089050293 11.868890762329102 15.324891090393066 11.970827102661133 15.372790336608887 12.072763442993164 L15.372790336608887 12.072763442993164 C15.349953651428223 12.083909034729004 15.327117919921875 12.095053672790527 15.304281234741211 12.106199264526367 L15.304281234741211 12.106199264526367 C15.279217720031738 11.993117332458496 15.254155158996582 11.880036354064941 15.22909164428711 11.76695442199707 L15.22909164428711 11.76695442199707"></path></svg>