<svg xmlns="http://www.w3.org/2000/svg" viewBox="0.0 0.0 24.0 24.0" height="200px" width="200px"><path fill="none" stroke="black" stroke-width=".3" stroke-opacity="1.0"  filling="0" d="M14.402127265930176 11.606318473815918 L14.402127265930176 11.606318473815918 C14.526000022888184 11.612445831298828 14.649872779846191 11.618573188781738 14.7737455368042 11.624700546264648 L14.7737455368042 11.624700546264648 C14.776290893554688 11.66552734375 14.778836250305176 11.706355094909668 14.781381607055664 11.74718189239502 L14.781381607055664 11.74718189239502 C14.527751922607422 11.763678550720215 14.454370498657227 11.995525360107422 14.772873878479004 11.999727249145508 L14.772873878479004 11.999727249145508 C14.772873878479004 12.052318572998047 14.772873878479004 12.10490894317627 14.772873878479004 12.157500267028809 L14.772873878479004 12.157500267028809 C14.709565162658691 12.160836219787598 14.646255493164062 12.164173126220703 14.58294677734375 12.167509078979492 L14.58294677734375 12.167509078979492 C14.553504943847656 12.329484939575195 14.566758155822754 12.62718391418457 14.402128219604492 12.62710952758789 L14.402128219604492 12.62710952758789 C14.402128219604492 12.286846160888672 14.402127265930176 11.946581840515137 14.402127265930176 11.606318473815918 L14.402127265930176 11.606318473815918"></path></svg>