<svg xmlns="http://www.w3.org/2000/svg" viewBox="0.0 0.0 24.0 24.0" height="200px" width="200px"><path fill="none" stroke="black" stroke-width=".3" stroke-opacity="1.0"  filling="0" d="M11.869745254516602 11.64711856842041 L11.869745254516602 11.64711856842041 C11.891836166381836 11.833264350891113 11.91392707824707 12.0194091796875 11.936017990112305 12.205554962158203 L11.936017990112305 12.205554962158203 C11.944817543029785 12.205718994140625 11.953618049621582 12.20588207244873 11.962417602539062 12.206046104431152 L11.962417602539062 12.206046104431152 C12.008523941040039 11.989435195922852 12.02913761138916 11.847012519836426 12.16990852355957 11.672182083129883 L12.16990852355957 11.672182083129883 C12.10818099975586 11.99045467376709 12.046453475952148 12.308728218078613 11.984725952148438 12.62700080871582 L11.984725952148438 12.62700080871582 C11.961160659790039 12.645686149597168 11.923585891723633 12.627068519592285 11.89497184753418 12.617809295654297 L11.89497184753418 12.617809295654297 C11.860199928283691 12.295387268066406 11.663207054138184 11.926656723022461 11.827826499938965 11.647254943847656 L11.827826499938965 11.647254943847656 C11.84179973602295 11.647209167480469 11.855772018432617 11.647164344787598 11.869745254516602 11.64711856842041 L11.869745254516602 11.64711856842041"></path></svg>