<svg xmlns="http://www.w3.org/2000/svg" viewBox="0.0 0.0 24.0 24.0" height="200px" width="200px"><path fill="none" stroke="black" stroke-width=".3" stroke-opacity="1.0"  filling="0" d="M12.74195384979248 11.7001371383667 L12.74195384979248 11.7001371383667 C12.812408447265625 11.721900939941406 12.88286304473877 11.743664741516113 12.953317642211914 11.76542854309082 L12.953317642211914 11.76542854309082 C12.8809814453125 11.780237197875977 12.808645248413086 11.795045852661133 12.736309051513672 11.809854507446289 L12.736309051513672 11.809854507446289 C12.838799476623535 11.855181694030762 12.941290855407715 11.90050983428955 13.043781280517578 11.945837020874023 L13.043781280517578 11.945837020874023 C13.023954391479492 12.01439094543457 13.00412654876709 12.082945823669434 12.984299659729004 12.15149974822998 L12.984299659729004 12.15149974822998 C12.88326358795166 12.130409240722656 12.7822265625 12.109317779541016 12.681190490722656 12.088227272033691 L12.681190490722656 12.088227272033691 C12.76210880279541 12.065118789672852 12.850615501403809 12.065587997436523 12.933517456054688 12.080045700073242 L12.933517456054688 12.080045700073242 C12.940035820007324 12.066145896911621 12.946554183959961 12.052245140075684 12.953072547912598 12.038345336914062 L12.953072547912598 12.038345336914062 C12.869450569152832 11.974263191223145 12.76658821105957 11.938438415527344 12.667118072509766 11.903727531433105 L12.667118072509766 11.903727531433105 C12.692063331604004 11.835864067077637 12.717008590698242 11.768000602722168 12.74195384979248 11.7001371383667 L12.74195384979248 11.7001371383667"></path></svg>