<svg xmlns="http://www.w3.org/2000/svg" viewBox="0.0 0.0 24.0 24.0" height="200px" width="200px"><path fill="none" stroke="black" stroke-width=".3" stroke-opacity="1.0"  filling="0" d="M13.963635444641113 11.781818389892578 L13.963635444641113 11.781818389892578 C13.963635444641113 12.045454978942871 13.963635444641113 12.309090614318848 13.963635444641113 12.57272720336914 L13.963635444641113 12.57272720336914 C13.854190826416016 12.541308403015137 13.729792594909668 12.55526351928711 13.622698783874512 12.593945503234863 L13.622698783874512 12.593945503234863 C13.645425796508789 12.63232707977295 13.668153762817383 12.670709609985352 13.69088077545166 12.709091186523438 L13.69088077545166 12.709091186523438 C13.654526710510254 12.709091186523438 13.618172645568848 12.709091186523438 13.581818580627441 12.709091186523438 L13.581818580627441 12.709091186523438 C13.564130783081055 12.458191871643066 13.563350677490234 12.226302146911621 13.905217170715332 12.357626914978027 L13.905217170715332 12.357626914978027 C13.924690246582031 12.165690422058105 13.944162368774414 11.9737548828125 13.963635444641113 11.781818389892578 L13.963635444641113 11.781818389892578"></path>
<path fill="none" stroke="black" stroke-width=".3" stroke-opacity="1.0"  filling="0" d="M13.678255081176758 12.381762504577637 L13.678255081176758 12.381762504577637 C13.733582496643066 12.4028902053833 13.788909912109375 12.424017906188965 13.844237327575684 12.445145606994629 L13.844237327575684 12.445145606994629 C13.78885555267334 12.467236518859863 13.73347282409668 12.489326477050781 13.678091049194336 12.511417388916016 L13.678091049194336 12.511417388916016 C13.678145408630371 12.468198776245117 13.678200721740723 12.424981117248535 13.678255081176758 12.381762504577637 L13.678255081176758 12.381762504577637"></path></svg>