<svg xmlns="http://www.w3.org/2000/svg" viewBox="0.0 0.0 24.0 24.0" height="200px" width="200px"><path fill="none" stroke="black" stroke-width=".3" stroke-opacity="1.0"  filling="0" d="M10.143899917602539 11.966317176818848 L10.143899917602539 11.966317176818848 C10.293007850646973 12.097451210021973 10.317971229553223 12.463459968566895 10.332244873046875 12.667226791381836 L10.332244873046875 12.667226791381836 C10.260899543762207 12.681180953979492 10.189554214477539 12.695136070251465 10.118208885192871 12.709090232849121 L10.118208885192871 12.709090232849121 C10.10911750793457 12.681817054748535 10.100027084350586 12.654544830322266 10.090935707092285 12.62727165222168 L10.090935707092285 12.62727165222168 C10.163908004760742 12.54617977142334 10.151679039001465 12.390613555908203 10.090935707092285 12.299999237060547 L10.090935707092285 12.299999237060547 C10.090927124023438 12.281817436218262 10.090917587280273 12.263636589050293 10.090909004211426 12.245454788208008 L10.090909004211426 12.245454788208008 C10.12072467803955 12.16346263885498 10.133161544799805 12.070269584655762 10.115345001220703 11.98486328125 L10.115345001220703 11.98486328125 C10.124863624572754 11.978681564331055 10.134381294250488 11.972498893737793 10.143899917602539 11.966317176818848 L10.143899917602539 11.966317176818848"></path></svg>