<svg xmlns="http://www.w3.org/2000/svg" viewBox="0.0 0.0 24.0 24.0" height="200px" width="200px"><path fill="none" stroke="black" stroke-width=".3" stroke-opacity="1.0"  filling="0" d="M12.044153213500977 11.260963439941406 L12.044153213500977 11.260963439941406 C12.055026054382324 11.262545585632324 12.065899848937988 11.264126777648926 12.076772689819336 11.265708923339844 L12.076772689819336 11.265708923339844 C12.081500053405762 11.459590911865234 12.086226463317871 11.653472900390625 12.090953826904297 11.847354888916016 L12.090953826904297 11.847354888916016 C12.100617408752441 11.849282264709473 12.110280990600586 11.851208686828613 12.11994457244873 11.85313606262207 L12.11994457244873 11.85313606262207 C12.175145149230957 11.754717826843262 12.230344772338867 11.65630054473877 12.285545349121094 11.557882308959961 L12.285545349121094 11.557882308959961 C12.297135353088379 11.769611358642578 12.362550735473633 12.168292045593262 12.312108039855957 12.3490629196167 L12.312108039855957 12.3490629196167 C12.19859790802002 12.274700164794922 12.200733184814453 12.135482788085938 12.15771770477295 12.013635635375977 L12.15771770477295 12.013635635375977 C12.11359977722168 12.151862144470215 12.069480895996094 12.29008960723877 12.025362968444824 12.428316116333008 L12.025362968444824 12.428316116333008 C11.85932731628418 12.107665061950684 11.863920211791992 11.576845169067383 12.044153213500977 11.260963439941406 L12.044153213500977 11.260963439941406"></path></svg>