<svg xmlns="http://www.w3.org/2000/svg" viewBox="0.0 0.0 24.0 24.0" height="200px" width="200px"><path fill="none" stroke="black" stroke-width=".3" stroke-opacity="1.0"  filling="0" d="M14.83639144897461 11.154545783996582 L14.83639144897461 11.154545783996582 C14.87275505065918 11.154545783996582 14.90911865234375 11.154545783996582 14.94548225402832 11.154545783996582 L14.94548225402832 11.154545783996582 C15.063973426818848 11.290718078613281 15.182464599609375 11.426891326904297 15.300955772399902 11.563063621520996 L15.300955772399902 11.563063621520996 C15.308319091796875 11.560708999633789 15.315683364868164 11.558355331420898 15.323046684265137 11.556000709533691 L15.323046684265137 11.556000709533691 C15.297192573547363 11.422182083129883 15.271337509155273 11.28836441040039 15.2454833984375 11.154545783996582 L15.2454833984375 11.154545783996582 C15.272746086120605 11.154545783996582 15.300009727478027 11.154545783996582 15.327272415161133 11.154545783996582 L15.327272415161133 11.154545783996582 C15.371554374694824 11.359846115112305 15.415836334228516 11.565145492553711 15.460118293762207 11.770445823669434 L15.460118293762207 11.770445823669434 C15.279109001159668 11.67607307434082 15.130265235900879 11.525154113769531 14.994300842285156 11.37289047241211 L14.994300842285156 11.37289047241211 C14.986737251281738 11.377663612365723 14.979172706604004 11.38243579864502 14.971609115600586 11.387208938598633 L14.971609115600586 11.387208938598633 C15.005654335021973 11.528535842895508 15.039700508117676 11.6698637008667 15.073745727539062 11.811190605163574 L15.073745727539062 11.811190605163574 C15.050009727478027 11.820099830627441 15.026272773742676 11.829009056091309 15.00253677368164 11.837918281555176 L15.00253677368164 11.837918281555176 C14.82414436340332 11.683793067932129 14.851661682128906 11.382877349853516 14.83639144897461 11.154545783996582 L14.83639144897461 11.154545783996582"></path></svg>