<svg xmlns="http://www.w3.org/2000/svg" viewBox="0.0 0.0 24.0 24.0" height="200px" width="200px"><path fill="none" stroke="black" stroke-width=".3" stroke-opacity="1.0"  filling="0" d="M15.577938079833984 11.248581886291504 L15.577938079833984 11.248581886291504 C15.762619018554688 11.293523788452148 15.905996322631836 11.480584144592285 15.975244522094727 11.657590866088867 L15.975244522094727 11.657590866088867 C15.92945384979248 11.653190612792969 15.883663177490234 11.64879035949707 15.837872505187988 11.644390106201172 L15.837872505187988 11.644390106201172 C15.45417594909668 11.719961166381836 15.473729133605957 11.53701400756836 15.784090995788574 11.391927719116211 L15.784090995788574 11.391927719116211 C15.740205764770508 11.327325820922852 15.62191104888916 11.328465461730957 15.55164623260498 11.362554550170898 L15.55164623260498 11.362554550170898 C15.560410499572754 11.324563980102539 15.569173812866211 11.286572456359863 15.577938079833984 11.248581886291504 L15.577938079833984 11.248581886291504"></path>
<path fill="none" stroke="black" stroke-width=".3" stroke-opacity="1.0"  filling="0" d="M15.699626922607422 11.4585542678833 L15.699626922607422 11.4585542678833 C15.744145393371582 11.491217613220215 15.788662910461426 11.523881912231445 15.833181381225586 11.55654525756836 L15.833181381225586 11.55654525756836 C15.663727760314941 11.638078689575195 15.537269592285156 11.623408317565918 15.699626922607422 11.4585542678833 L15.699626922607422 11.4585542678833"></path></svg>