<svg xmlns="http://www.w3.org/2000/svg" viewBox="0.0 0.0 24.0 24.0" height="200px" width="200px"><path fill="none" stroke="black" stroke-width=".3" stroke-opacity="1.0"  filling="0" d="M12.861681938171387 11.488554954528809 L12.861681938171387 11.488554954528809 C12.93787956237793 11.574341773986816 13.333582878112793 12.554604530334473 12.906790733337402 12.442117691040039 C12.494629859924316 12.333487510681152 12.702615737915039 12.005194664001465 12.959426879882812 11.861454963684082 L12.959426879882812 11.861454963684082 C12.960381507873535 11.785745620727539 12.961336135864258 11.710037231445312 12.96229076385498 11.63432788848877 L12.96229076385498 11.63432788848877 C12.90865421295166 11.683237075805664 12.855018615722656 11.732146263122559 12.801382064819336 11.781055450439453 L12.801382064819336 11.781055450439453 C12.821481704711914 11.683555603027344 12.841582298278809 11.586054801940918 12.861681938171387 11.488554954528809 L12.861681938171387 11.488554954528809"></path>
<path fill="none" stroke="black" stroke-width=".3" stroke-opacity="1.0"  filling="0" d="M12.948136329650879 12.016581535339355 L12.948136329650879 12.016581535339355 C12.971151351928711 12.116393089294434 12.914324760437012 12.225334167480469 12.856527328491211 12.309900283813477 L12.856527328491211 12.309900283813477 C12.842522621154785 12.208431243896484 12.847244262695312 12.034268379211426 12.948136329650879 12.016581535339355 L12.948136329650879 12.016581535339355"></path></svg>