<svg xmlns="http://www.w3.org/2000/svg" viewBox="0.0 0.0 24.0 24.0" height="200px" width="200px"><path fill="none" stroke="black" stroke-width=".3" stroke-opacity="1.0"  filling="0" d="M11.034735679626465 11.537482261657715 L11.034735679626465 11.537482261657715 C11.040762901306152 11.552164077758789 11.046791076660156 11.566845893859863 11.052818298339844 11.581527709960938 L11.052818298339844 11.581527709960938 C11.015373229980469 11.60035514831543 10.977927207946777 11.619182586669922 10.940482139587402 11.638010025024414 L10.940482139587402 11.638010025024414 C10.940482139587402 11.675100326538086 10.940482139587402 11.712191581726074 10.940482139587402 11.749281883239746 L10.940482139587402 11.749281883239746 C10.985627174377441 11.772273063659668 11.030773162841797 11.795263290405273 11.075918197631836 11.818254470825195 L11.075918197631836 11.818254470825195 C11.042263984680176 11.844463348388672 11.0086088180542 11.870672225952148 10.974954605102539 11.896881103515625 L10.974954605102539 11.896881103515625 C11.004236221313477 12.02054500579834 11.03351879119873 12.144208908081055 11.062800407409668 12.26787281036377 L11.062800407409668 12.26787281036377 C11.040573120117188 12.279790878295898 11.018345832824707 12.291708946228027 10.996118545532227 12.303627014160156 L10.996118545532227 12.303627014160156 C10.896361351013184 12.22159481048584 10.902530670166016 11.99747085571289 10.776247024536133 11.871437072753906 L10.776247024536133 11.871437072753906 C10.805974006652832 11.839319229125977 10.835700988769531 11.80720043182373 10.86542797088623 11.7750825881958 L10.86542797088623 11.7750825881958 C10.888019561767578 11.680492401123047 10.937877655029297 11.546208381652832 11.034735679626465 11.537482261657715 L11.034735679626465 11.537482261657715"></path></svg>