<svg xmlns="http://www.w3.org/2000/svg" viewBox="0.0 0.0 24.0 24.0" height="200px" width="200px"><path fill="none" stroke="black" stroke-width=".3" stroke-opacity="1.0"  filling="0" d="M11.50213623046875 11.887581825256348 L11.50213623046875 11.887581825256348 C11.52489948272705 11.91275405883789 11.547663688659668 11.93792724609375 11.570426940917969 11.963099479675293 L11.570426940917969 11.963099479675293 C11.614299774169922 11.938790321350098 11.658172607421875 11.914482116699219 11.702045440673828 11.890172958374023 L11.702045440673828 11.890172958374023 C11.772991180419922 12.030599594116211 11.8439359664917 12.171027183532715 11.914881706237793 12.311453819274902 L11.914881706237793 12.311453819274902 C11.907917976379395 12.318608283996582 11.900955200195312 12.325762748718262 11.893991470336914 12.332917213439941 L11.893991470336914 12.332917213439941 C11.79492473602295 12.251770973205566 11.751496315002441 12.119176864624023 11.69533634185791 12.00408935546875 L11.69533634185791 12.00408935546875 C11.665238380432129 12.105389595031738 11.635567665100098 12.212380409240723 11.570099830627441 12.29533576965332 L11.570099830627441 12.29533576965332 C11.547445297241211 12.159418106079102 11.52479076385498 12.023499488830566 11.50213623046875 11.887581825256348 L11.50213623046875 11.887581825256348"></path></svg>