<svg xmlns="http://www.w3.org/2000/svg" viewBox="0.0 0.0 24.0 24.0" height="200px" width="200px"><path fill="none" stroke="black" stroke-width=".3" stroke-opacity="1.0"  filling="0" d="M11.225617408752441 11.630399703979492 L11.225617408752441 11.630399703979492 C11.239535331726074 11.709372520446777 11.253454208374023 11.788346290588379 11.267372131347656 11.867319107055664 L11.267372131347656 11.867319107055664 C11.360435485839844 11.878073692321777 11.453499794006348 11.888827323913574 11.546563148498535 11.899581909179688 L11.546563148498535 11.899581909179688 C11.575172424316406 12.022600173950195 11.603781700134277 12.145618438720703 11.632390975952148 12.268636703491211 L11.632390975952148 12.268636703491211 C11.49129581451416 12.230982780456543 11.212610244750977 11.61166000366211 11.380608558654785 12.312711715698242 L11.380608558654785 12.312711715698242 C11.348944664001465 12.317538261413574 11.317281723022461 12.322365760803223 11.28561782836914 12.327192306518555 L11.28561782836914 12.327192306518555 C11.137646675109863 12.152974128723145 11.179412841796875 11.882511138916016 11.131009101867676 11.65911865234375 L11.131009101867676 11.65911865234375 C11.162545204162598 11.649545669555664 11.19408130645752 11.639972686767578 11.225617408752441 11.630399703979492 L11.225617408752441 11.630399703979492"></path></svg>