<svg xmlns="http://www.w3.org/2000/svg" viewBox="0.0 0.0 24.0 24.0" height="200px" width="200px"><path fill="none" stroke="black" stroke-width=".3" stroke-opacity="1.0"  filling="0" d="M12.904118537902832 11.690862655639648 L12.904118537902832 11.690862655639648 C12.891636848449707 11.838262557983398 12.879154205322266 11.985662460327148 12.86667251586914 12.133062362670898 L12.86667251586914 12.133062362670898 C12.791299819946289 12.056634902954102 12.715927124023438 11.980207443237305 12.640554428100586 11.903779983520508 L12.640554428100586 11.903779983520508 C12.618818283081055 11.999652862548828 12.597081184387207 12.095525741577148 12.575345039367676 12.191398620605469 L12.575345039367676 12.191398620605469 C12.563599586486816 12.1928071975708 12.551855087280273 12.19421672821045 12.540109634399414 12.195625305175781 L12.540109634399414 12.195625305175781 C12.475582122802734 12.05572509765625 12.411055564880371 11.915825843811035 12.346528053283691 11.775925636291504 L12.346528053283691 11.775925636291504 C12.40747356414795 11.835280418395996 12.468419075012207 11.894634246826172 12.529364585876465 11.953989028930664 L12.529364585876465 11.953989028930664 C12.572154998779297 11.876871109008789 12.614946365356445 11.79975414276123 12.657736778259277 11.722636222839355 L12.657736778259277 11.722636222839355 C12.700900077819824 11.790453910827637 12.744063377380371 11.858272552490234 12.787226676940918 11.926090240478516 L12.787226676940918 11.926090240478516 C12.826190948486328 11.847681045532227 12.865154266357422 11.769271850585938 12.904118537902832 11.690862655639648 L12.904118537902832 11.690862655639648"></path></svg>