<svg xmlns="http://www.w3.org/2000/svg" viewBox="0.0 0.0 24.0 24.0" height="200px" width="200px"><path fill="none" stroke="black" stroke-width=".3" stroke-opacity="1.0"  filling="0" d="M8.109953880310059 11.314990043640137 L8.109953880310059 11.314990043640137 C8.228915214538574 11.318826675415039 8.365489959716797 11.385430335998535 8.420700073242188 11.490873336791992 L8.420700073242188 11.490873336791992 C8.322418212890625 11.508872985839844 8.224135398864746 11.526873588562012 8.125853538513184 11.544873237609863 L8.125853538513184 11.544873237609863 C8.14229965209961 11.58344554901123 8.158744812011719 11.622018814086914 8.175190925598145 11.660591125488281 L8.175190925598145 11.660591125488281 C8.257218360900879 11.637890815734863 8.339244842529297 11.615191459655762 8.421272277832031 11.592491149902344 L8.421272277832031 11.592491149902344 C8.19110107421875 11.966512680053711 8.058236122131348 11.586721420288086 8.109953880310059 11.314990043640137 L8.109953880310059 11.314990043640137"></path>
<path fill="none" stroke="black" stroke-width=".3" stroke-opacity="1.0"  filling="0" d="M8.309182167053223 11.40733528137207 L8.309182167053223 11.40733528137207 C8.248827934265137 11.426708221435547 8.188472747802734 11.446081161499023 8.128118515014648 11.4654541015625 L8.128118515014648 11.4654541015625 C8.188472747802734 11.446081161499023 8.248827934265137 11.426708221435547 8.309182167053223 11.40733528137207 L8.309182167053223 11.40733528137207"></path></svg>