<svg xmlns="http://www.w3.org/2000/svg" viewBox="0.0 0.0 24.0 24.0" height="200px" width="200px"><path fill="none" stroke="black" stroke-width=".3" stroke-opacity="1.0"  filling="0" d="M16.784753799438477 12.411354064941406 L16.784753799438477 12.411354064941406 C17.07222557067871 12.537988662719727 17.09994888305664 12.547517776489258 17.100000381469727 12.845454216003418 L17.100000381469727 12.845454216003418 C17.06802749633789 12.845454216003418 17.036054611206055 12.845454216003418 17.00408172607422 12.845454216003418 L17.00408172607422 12.845454216003418 C16.897830963134766 12.19862174987793 16.862438201904297 12.618467330932617 16.792091369628906 12.901745796203613 L16.792091369628906 12.901745796203613 C16.78115463256836 12.900918006896973 16.770217895507812 12.900091171264648 16.759281158447266 12.899263381958008 L16.759281158447266 12.899263381958008 C16.725854873657227 12.784008979797363 16.692426681518555 12.668754577636719 16.659000396728516 12.553500175476074 L16.659000396728516 12.553500175476074 C16.558820724487305 12.660192489624023 16.524911880493164 12.830209732055664 16.539108276367188 12.975872993469238 L16.539108276367188 12.975872993469238 C16.48894500732422 12.826427459716797 16.43878173828125 12.676981925964355 16.38861846923828 12.527536392211914 L16.38861846923828 12.527536392211914 C16.499691009521484 12.50755500793457 16.610761642456055 12.48757266998291 16.721834182739258 12.467591285705566 L16.721834182739258 12.467591285705566 C16.742807388305664 12.448845863342285 16.76378059387207 12.430099487304688 16.784753799438477 12.411354064941406 L16.784753799438477 12.411354064941406"></path></svg>