<svg xmlns="http://www.w3.org/2000/svg" viewBox="0.0 0.0 24.0 24.0" height="200px" width="200px"><path fill="none" stroke="black" stroke-width=".3" stroke-opacity="1.0"  filling="0" d="M13.153310775756836 11.513944625854492 L13.153310775756836 11.513944625854492 C13.191073417663574 11.790533065795898 13.234681129455566 12.066699981689453 13.293436050415039 12.339600563049316 L13.293436050415039 12.339600563049316 C13.273344993591309 12.355836868286133 13.253254890441895 12.37207317352295 13.233163833618164 12.388309478759766 L13.233163833618164 12.388309478759766 C13.200318336486816 12.362255096435547 13.167471885681152 12.336199760437012 13.134626388549805 12.310145378112793 L13.134626388549805 12.310145378112793 C12.626179695129395 12.502447128295898 13.08198356628418 11.790877342224121 13.070483207702637 11.609371185302734 L13.070483207702637 11.609371185302734 C13.03170108795166 11.662016868591309 12.992919921875 11.714662551879883 12.954137802124023 11.767308235168457 L12.954137802124023 11.767308235168457 C13.020528793334961 11.682853698730469 13.086919784545898 11.59839916229248 13.153310775756836 11.513944625854492 L13.153310775756836 11.513944625854492"></path>
<path fill="none" stroke="black" stroke-width=".3" stroke-opacity="1.0"  filling="0" d="M13.098845481872559 11.979164123535156 L13.098845481872559 11.979164123535156 C13.142129898071289 12.063706398010254 13.054803848266602 12.171223640441895 12.993818283081055 12.244036674499512 L12.993818283081055 12.244036674499512 C13.003911972045898 12.149596214294434 13.008657455444336 12.00894832611084 13.098845481872559 11.979164123535156 L13.098845481872559 11.979164123535156"></path></svg>