<svg xmlns="http://www.w3.org/2000/svg" viewBox="0.0 0.0 24.0 24.0" height="200px" width="200px"><path fill="none" stroke="black" stroke-width=".3" stroke-opacity="1.0"  filling="0" d="M11.820844650268555 11.893964767456055 L11.820844650268555 11.893964767456055 C11.848835945129395 11.952818870544434 11.876826286315918 12.011673927307129 11.904817581176758 12.070528030395508 L11.904817581176758 12.070528030395508 C11.797762870788574 12.082764625549316 11.690709114074707 12.095001220703125 11.583654403686523 12.107237815856934 L11.583654403686523 12.107237815856934 C11.680891036987305 12.119683265686035 11.77812671661377 12.13212776184082 11.87536334991455 12.144573211669922 L11.87536334991455 12.144573211669922 C11.886836051940918 12.14811897277832 11.898308753967285 12.151663780212402 11.909781455993652 12.1552095413208 L11.909781455993652 12.1552095413208 C11.794901847839355 12.546770095825195 11.178760528564453 11.977444648742676 11.820844650268555 11.893964767456055 L11.820844650268555 11.893964767456055"></path>
<path fill="none" stroke="black" stroke-width=".3" stroke-opacity="1.0"  filling="0" d="M11.783318519592285 11.967000007629395 L11.783318519592285 11.967000007629395 C11.721118927001953 11.98398208618164 11.658918380737305 12.00096321105957 11.596718788146973 12.017945289611816 L11.596718788146973 12.017945289611816 C11.658918380737305 12.00096321105957 11.721118927001953 11.98398208618164 11.783318519592285 11.967000007629395 L11.783318519592285 11.967000007629395"></path></svg>