<svg xmlns="http://www.w3.org/2000/svg" viewBox="0.0 0.0 24.0 24.0" height="200px" width="200px"><path fill="none" stroke="black" stroke-width=".3" stroke-opacity="1.0"  filling="0" d="M9.360873222351074 11.109326362609863 L9.360873222351074 11.109326362609863 C9.513327598571777 11.143353462219238 9.66578197479248 11.17738151550293 9.818236351013184 11.211408615112305 L9.818236351013184 11.211408615112305 C9.815727233886719 11.262845039367676 9.813218116760254 11.314281463623047 9.810708999633789 11.365717887878418 L9.810708999633789 11.365717887878418 C9.758681297302246 11.357336044311523 9.70665454864502 11.348954200744629 9.654626846313477 11.340572357177734 L9.654626846313477 11.340572357177734 C9.654626846313477 11.762056350708008 9.691998481750488 12.185208320617676 9.624463081359863 12.602535247802734 L9.624463081359863 12.602535247802734 C9.404826164245605 12.22093391418457 9.545506477355957 11.771086692810059 9.545427322387695 11.343191146850586 L9.545427322387695 11.343191146850586 C9.483909606933594 11.321954727172852 9.422390937805176 11.300718307495117 9.360873222351074 11.279481887817383 L9.360873222351074 11.279481887817383 C9.360873222351074 11.222763061523438 9.360873222351074 11.166045188903809 9.360873222351074 11.109326362609863 L9.360873222351074 11.109326362609863"></path></svg>