<svg xmlns="http://www.w3.org/2000/svg" viewBox="0.0 0.0 24.0 24.0" height="200px" width="200px"><path fill="none" stroke="black" stroke-width=".3" stroke-opacity="1.0"  filling="0" d="M13.002873420715332 11.3564453125 L13.002873420715332 11.3564453125 C13.005455017089844 11.403844833374023 13.008036613464355 11.451245307922363 13.010618209838867 11.498644828796387 L13.010618209838867 11.498644828796387 C12.954636573791504 11.517498970031738 12.898653984069824 11.536354064941406 12.842672348022461 11.555208206176758 L12.842672348022461 11.555208206176758 C12.790708541870117 12.01232624053955 12.73874568939209 12.46944522857666 12.686781883239746 12.926563262939453 L12.686781883239746 12.926563262939453 C12.655426979064941 12.923863410949707 12.624073028564453 12.921163558959961 12.592718124389648 12.918463706970215 L12.592718124389648 12.918463706970215 C12.636454582214355 12.470409393310547 12.680191040039062 12.022354125976562 12.72392749786377 11.574299812316895 L12.72392749786377 11.574299812316895 C12.690409660339355 11.515863418579102 12.656890869140625 11.457427024841309 12.623373031616211 11.398990631103516 L12.623373031616211 11.398990631103516 C12.749873161315918 11.384808540344238 12.876373291015625 11.370627403259277 13.002873420715332 11.3564453125 L13.002873420715332 11.3564453125"></path></svg>