<svg xmlns="http://www.w3.org/2000/svg" viewBox="0.0 0.0 24.0 24.0" height="200px" width="200px"><path fill="none" stroke="black" stroke-width=".3" stroke-opacity="1.0"  filling="0" d="M11.27620792388916 11.469000816345215 L11.27620792388916 11.469000816345215 C11.362871170043945 11.492237091064453 11.449535369873047 11.515473365783691 11.536198616027832 11.53870964050293 L11.536198616027832 11.53870964050293 C11.99569034576416 11.390178680419922 11.8019380569458 12.129339218139648 11.74996280670166 12.40786361694336 L11.74996280670166 12.40786361694336 C11.733190536499023 12.407145500183105 11.716418266296387 12.406427383422852 11.69964599609375 12.405709266662598 L11.69964599609375 12.405709266662598 C11.688173294067383 12.136459350585938 11.771013259887695 11.869399070739746 11.691408157348633 11.608282089233398 L11.691408157348633 11.608282089233398 C11.5514554977417 11.887945175170898 11.581652641296387 12.134596824645996 11.492999076843262 12.425673484802246 L11.492999076843262 12.425673484802246 C11.482099533081055 12.42568302154541 11.471199035644531 12.425691604614258 11.460299491882324 12.425701141357422 L11.460299491882324 12.425701141357422 C11.424324035644531 12.163359642028809 11.536885261535645 11.894590377807617 11.467172622680664 11.640055656433105 L11.467172622680664 11.640055656433105 C11.239551544189453 11.889500617980957 11.318663597106934 12.145912170410156 11.259353637695312 12.462573051452637 L11.259353637695312 12.462573051452637 C11.246590614318848 12.463455200195312 11.233826637268066 12.464336395263672 11.221063613891602 12.465218544006348 L11.221063613891602 12.465218544006348 C11.155308723449707 12.146012306213379 11.240907669067383 11.791388511657715 11.27620792388916 11.469000816345215 L11.27620792388916 11.469000816345215"></path></svg>