<svg xmlns="http://www.w3.org/2000/svg" viewBox="0.0 0.0 24.0 24.0" height="200px" width="200px"><path fill="none" stroke="black" stroke-width=".3" stroke-opacity="1.0"  filling="0" d="M12.138028144836426 11.457818031311035 L12.138028144836426 11.457818031311035 C12.200948715209961 11.646604537963867 12.146987915039062 11.973257064819336 11.9551362991333 12.026100158691406 L11.9551362991333 12.026100158691406 C11.98740005493164 12.107199668884277 12.01966381072998 12.188300132751465 12.05192756652832 12.269399642944336 L12.05192756652832 12.269399642944336 C12.10964584350586 12.209508895874023 12.167364120483398 12.149617195129395 12.225082397460938 12.089726448059082 L12.225082397460938 12.089726448059082 C12.178754806518555 12.205989837646484 12.132428169250488 12.322254180908203 12.086100578308105 12.438517570495605 L12.086100578308105 12.438517570495605 C11.832707405090332 12.019575119018555 11.869099617004395 11.862081527709961 12.138028144836426 11.457818031311035 L12.138028144836426 11.457818031311035"></path>
<path fill="none" stroke="black" stroke-width=".3" stroke-opacity="1.0"  filling="0" d="M12.164918899536133 11.59213638305664 L12.164918899536133 11.59213638305664 C12.185527801513672 11.655190467834473 12.206136703491211 11.718245506286621 12.22674560546875 11.781299591064453 L12.22674560546875 11.781299591064453 C12.151063919067383 11.784908294677734 12.075382232666016 11.788517951965332 11.999700546264648 11.792126655578613 L11.999700546264648 11.792126655578613 C12.054773330688477 11.725462913513184 12.109846115112305 11.65880012512207 12.164918899536133 11.59213638305664 L12.164918899536133 11.59213638305664"></path></svg>