<svg xmlns="http://www.w3.org/2000/svg" viewBox="0.0 0.0 24.0 24.0" height="200px" width="200px"><path fill="none" stroke="black" stroke-width=".3" stroke-opacity="1.0"  filling="0" d="M10.487646102905273 11.836719512939453 L10.487646102905273 11.836719512939453 C10.50490951538086 11.895483016967773 10.522172927856445 11.954245567321777 10.539436340332031 12.013009071350098 L10.539436340332031 12.013009071350098 C10.620709419250488 12.00758171081543 10.701981544494629 12.002155303955078 10.783254623413086 11.99672794342041 L10.783254623413086 11.99672794342041 C10.825382232666016 12.147228240966797 10.867509841918945 12.297728538513184 10.909637451171875 12.44822883605957 L10.909637451171875 12.44822883605957 C10.735854148864746 12.364112854003906 10.757079124450684 12.203837394714355 10.682317733764648 12.035510063171387 L10.682317733764648 12.035510063171387 C10.664872169494629 12.184382438659668 10.647427558898926 12.33325481414795 10.629981994628906 12.48212718963623 L10.629981994628906 12.48212718963623 C10.434621810913086 12.323535919189453 10.471190452575684 12.079950332641602 10.415754318237305 11.848309516906738 L10.415754318237305 11.848309516906738 C10.439718246459961 11.844446182250977 10.463682174682617 11.840582847595215 10.487646102905273 11.836719512939453 L10.487646102905273 11.836719512939453"></path></svg>