<svg xmlns="http://www.w3.org/2000/svg" viewBox="0.0 0.0 24.0 24.0" height="200px" width="200px"><path fill="none" stroke="black" stroke-width=".3" stroke-opacity="1.0"  filling="0" d="M12.740127563476562 11.704608917236328 L12.740127563476562 11.704608917236328 C12.792854309082031 11.848227500915527 12.845582008361816 11.99184513092041 12.898308753967285 12.13546371459961 L12.898308753967285 12.13546371459961 C12.573932647705078 12.18011474609375 12.245124816894531 11.996169090270996 12.70483684539795 11.87760066986084 L12.70483684539795 11.87760066986084 C12.674046516418457 11.823190689086914 12.569448471069336 11.812177658081055 12.51938247680664 11.849618911743164 L12.51938247680664 11.849618911743164 C12.47021770477295 11.77658748626709 12.654873847961426 11.726573944091797 12.740127563476562 11.704608917236328 L12.740127563476562 11.704608917236328"></path>
<path fill="none" stroke="black" stroke-width=".3" stroke-opacity="1.0"  filling="0" d="M12.73101806640625 11.987590789794922 L12.73101806640625 11.987590789794922 C12.736800193786621 11.998100280761719 12.742581367492676 12.0086088180542 12.748363494873047 12.019118309020996 L12.748363494873047 12.019118309020996 C12.688855171203613 12.059267044067383 12.588397979736328 12.07435131072998 12.533209800720215 12.028444290161133 L12.533209800720215 12.028444290161133 C12.599145889282227 12.014826774597168 12.665081977844238 12.001208305358887 12.73101806640625 11.987590789794922 L12.73101806640625 11.987590789794922"></path></svg>