<svg xmlns="http://www.w3.org/2000/svg" viewBox="0.0 0.0 24.0 24.0" height="200px" width="200px"><path fill="none" stroke="black" stroke-width=".3" stroke-opacity="1.0"  filling="0" d="M12.160690307617188 11.48116397857666 L12.160690307617188 11.48116397857666 C12.433764457702637 11.662849426269531 12.28921127319336 12.310611724853516 12.2893648147583 12.644209861755371 L12.2893648147583 12.644209861755371 C12.141366004943848 12.512142181396484 12.190627098083496 12.357827186584473 12.151336669921875 12.166719436645508 L12.151336669921875 12.166719436645508 C12.03240966796875 12.349664688110352 12.028858184814453 12.458405494689941 12.027709007263184 12.674756050109863 L12.027709007263184 12.674756050109863 C11.84333610534668 12.517032623291016 11.952815055847168 11.700961112976074 12.039599418640137 11.481627464294434 L12.039599418640137 11.481627464294434 C12.079962730407715 11.481472969055176 12.12032699584961 11.481318473815918 12.160690307617188 11.48116397857666 L12.160690307617188 11.48116397857666"></path>
<path fill="none" stroke="black" stroke-width=".3" stroke-opacity="1.0"  filling="0" d="M12.111872673034668 11.646381378173828 L12.111872673034668 11.646381378173828 C12.18360710144043 11.737910270690918 12.155147552490234 11.90994644165039 12.073936462402344 11.993181228637695 L12.073936462402344 11.993181228637695 C12.08658218383789 11.877581596374512 12.099226951599121 11.761981010437012 12.111872673034668 11.646381378173828 L12.111872673034668 11.646381378173828"></path></svg>