<svg xmlns="http://www.w3.org/2000/svg" viewBox="0.0 0.0 24.0 24.0" height="200px" width="200px"><path fill="none" stroke="black" stroke-width=".3" stroke-opacity="1.0"  filling="0" d="M11.230583190917969 11.897836685180664 L11.230583190917969 11.897836685180664 C11.284274101257324 12.0482816696167 11.337964057922363 12.19872760772705 11.391654968261719 12.349172592163086 L11.391654968261719 12.349172592163086 C11.299491882324219 12.375782012939453 11.207327842712402 12.40239143371582 11.115164756774902 12.429000854492188 L11.115164756774902 12.429000854492188 C10.80324649810791 12.288823127746582 11.436422348022461 11.802127838134766 10.949700355529785 12.056318283081055 L10.949700355529785 12.056318283081055 C11.043328285217285 12.003491401672363 11.136955261230469 11.950663566589355 11.230583190917969 11.897836685180664 L11.230583190917969 11.897836685180664"></path>
<path fill="none" stroke="black" stroke-width=".3" stroke-opacity="1.0"  filling="0" d="M11.215336799621582 12.168000221252441 L11.215336799621582 12.168000221252441 C11.176464080810547 12.230963706970215 11.137591361999512 12.293927192687988 11.098718643188477 12.356890678405762 L11.098718643188477 12.356890678405762 C11.087736129760742 12.306926727294922 11.076754570007324 12.256963729858398 11.06577205657959 12.206999778747559 L11.06577205657959 12.206999778747559 C11.11562728881836 12.194000244140625 11.165481567382812 12.180999755859375 11.215336799621582 12.168000221252441 L11.215336799621582 12.168000221252441"></path></svg>