<svg xmlns="http://www.w3.org/2000/svg" viewBox="0.0 0.0 24.0 24.0" height="200px" width="200px"><path fill="none" stroke="black" stroke-width=".3" stroke-opacity="1.0"  filling="0" d="M12.853799819946289 11.74319839477539 L12.853799819946289 11.74319839477539 C12.9136323928833 11.807382583618164 12.979897499084473 11.885913848876953 12.981027603149414 11.973653793334961 L12.981027603149414 11.973653793334961 C12.892154693603516 11.973653793334961 12.803281784057617 11.973653793334961 12.714408874511719 11.973653793334961 L12.714408874511719 11.973653793334961 C12.765947341918945 12.045400619506836 12.871017456054688 12.08724594116211 12.958690643310547 12.076417922973633 L12.958690643310547 12.076417922973633 C13.037517547607422 12.409276962280273 12.226640701293945 11.803991317749023 12.853799819946289 11.74319839477539 L12.853799819946289 11.74319839477539"></path>
<path fill="none" stroke="black" stroke-width=".3" stroke-opacity="1.0"  filling="0" d="M12.805936813354492 11.785308837890625 L12.805936813354492 11.785308837890625 C12.836936950683594 11.821227073669434 12.867936134338379 11.857144355773926 12.89893627166748 11.893062591552734 L12.89893627166748 11.893062591552734 C12.832663536071777 11.879363059997559 12.766389846801758 11.865662574768066 12.700117111206055 11.85196304321289 L12.700117111206055 11.85196304321289 C12.735390663146973 11.829745292663574 12.770663261413574 11.807526588439941 12.805936813354492 11.785308837890625 L12.805936813354492 11.785308837890625"></path></svg>