<svg xmlns="http://www.w3.org/2000/svg" viewBox="0.0 0.0 24.0 24.0" height="200px" width="200px"><path fill="none" stroke="black" stroke-width=".3" stroke-opacity="1.0"  filling="0" d="M12.17667293548584 11.426045417785645 L12.17667293548584 11.426045417785645 C12.208491325378418 11.440372467041016 12.24030876159668 11.454699516296387 12.272127151489258 11.469026565551758 L12.272127151489258 11.469026565551758 C12.271618843078613 11.936771392822266 12.318954467773438 12.410600662231445 12.241771697998047 12.87193489074707 L12.241771697998047 12.87193489074707 C12.226517677307129 12.872861862182617 12.211262702941895 12.87378978729248 12.196008682250977 12.874716758728027 L12.196008682250977 12.874716758728027 C12.12572193145752 12.589852333068848 12.248937606811523 12.402915954589844 12.013145446777344 12.193906784057617 L12.013145446777344 12.193906784057617 C11.997780799865723 12.431721687316895 11.975547790527344 12.670337677001953 11.926745414733887 12.903597831726074 L11.926745414733887 12.903597831726074 C11.80200481414795 12.687883377075195 11.784415245056152 11.645102500915527 11.931681632995605 11.455743789672852 L11.931681632995605 11.455743789672852 C12.05046272277832 11.607706069946289 11.999944686889648 11.799416542053223 11.999944686889648 11.984098434448242 L11.999944686889648 11.984098434448242 C12.232340812683105 11.810884475708008 12.14936351776123 11.694856643676758 12.17667293548584 11.426045417785645 L12.17667293548584 11.426045417785645"></path></svg>