<svg xmlns="http://www.w3.org/2000/svg" viewBox="0.0 0.0 24.0 24.0" height="200px" width="200px"><path fill="none" stroke="black" stroke-width=".3" stroke-opacity="1.0"  filling="0" d="M10.463373184204102 11.477317810058594 L10.463373184204102 11.477317810058594 C10.52149486541748 11.545048713684082 10.579113006591797 11.628424644470215 10.58141040802002 11.717645645141602 L10.58141040802002 11.717645645141602 C10.571009635925293 11.721508979797363 10.560609817504883 11.725372314453125 10.550209045410156 11.729235649108887 L10.550209045410156 11.729235649108887 C10.520163536071777 11.693818092346191 10.490118980407715 11.65839958190918 10.460073471069336 11.622982025146484 L10.460073471069336 11.622982025146484 C10.429862022399902 11.958335876464844 10.687386512756348 12.354216575622559 10.423637390136719 12.572454452514648 L10.423637390136719 12.572454452514648 C10.31749153137207 12.492660522460938 10.251513481140137 12.340907096862793 10.261636734008789 12.208499908447266 L10.261636734008789 12.208499908447266 C10.290400505065918 12.274299621582031 10.31916332244873 12.340100288391113 10.34792709350586 12.405900001525879 L10.34792709350586 12.405900001525879 C10.79281997680664 12.25238037109375 9.907795906066895 11.775513648986816 10.463373184204102 11.477317810058594 L10.463373184204102 11.477317810058594"></path></svg>