<svg xmlns="http://www.w3.org/2000/svg" viewBox="0.0 0.0 24.0 24.0" height="200px" width="200px"><path fill="none" stroke="black" stroke-width=".3" stroke-opacity="1.0"  filling="0" d="M11.333590507507324 11.74936294555664 L11.333590507507324 11.74936294555664 C11.506756782531738 11.98770523071289 11.418379783630371 12.253571510314941 11.402154922485352 12.540190696716309 L11.402154922485352 12.540190696716309 C11.365991592407227 12.514809608459473 11.329827308654785 12.48942756652832 11.29366397857666 12.464046478271484 L11.29366397857666 12.464046478271484 C11.24241828918457 12.494019508361816 11.191173553466797 12.523991584777832 11.139927864074707 12.553964614868164 L11.139927864074707 12.553964614868164 C11.032502174377441 12.333712577819824 11.357476234436035 12.069096565246582 11.28845500946045 11.833963394165039 L11.28845500946045 11.833963394165039 C11.239082336425781 11.877144813537598 11.189708709716797 11.920327186584473 11.140336036682129 11.963508605957031 L11.140336036682129 11.963508605957031 C11.11437702178955 11.870927810668945 11.245924949645996 11.788858413696289 11.333590507507324 11.74936294555664 L11.333590507507324 11.74936294555664"></path>
<path fill="none" stroke="black" stroke-width=".3" stroke-opacity="1.0"  filling="0" d="M11.138318061828613 12.195490837097168 L11.138318061828613 12.195490837097168 C11.191572189331055 12.195490837097168 11.244827270507812 12.195490837097168 11.298081398010254 12.195490837097168 L11.298081398010254 12.195490837097168 C11.242308616638184 12.274490356445312 11.186535835266113 12.353490829467773 11.130763053894043 12.432490348815918 L11.130763053894043 12.432490348815918 C11.111335754394531 12.398290634155273 11.091909408569336 12.364090919494629 11.072482109069824 12.329891204833984 L11.072482109069824 12.329891204833984 C11.094427108764648 12.285091400146484 11.116373062133789 12.240290641784668 11.138318061828613 12.195490837097168 L11.138318061828613 12.195490837097168"></path></svg>