<svg xmlns="http://www.w3.org/2000/svg" viewBox="0.0 0.0 24.0 24.0" height="200px" width="200px"><path fill="none" stroke="black" stroke-width=".3" stroke-opacity="1.0"  filling="0" d="M11.211736679077148 11.829217910766602 L11.211736679077148 11.829217910766602 C11.349326133728027 11.830851554870605 11.531587600708008 11.957897186279297 11.527227401733398 12.095427513122559 L11.527227401733398 12.095427513122559 C11.425381660461426 12.109373092651367 11.32353687286377 12.12331771850586 11.221691131591797 12.137263298034668 L11.221691131591797 12.137263298034668 C11.306073188781738 12.387873649597168 11.382342338562012 12.365092277526855 11.545063972473145 12.200972557067871 L11.545063972473145 12.200972557067871 C11.230342864990234 12.80407428741455 11.194344520568848 12.138392448425293 11.211736679077148 11.829217910766602 L11.211736679077148 11.829217910766602"></path>
<path fill="none" stroke="black" stroke-width=".3" stroke-opacity="1.0"  filling="0" d="M11.350855827331543 11.83838176727295 L11.350855827331543 11.83838176727295 C11.39598274230957 11.882226943969727 11.441109657287598 11.92607307434082 11.486236572265625 11.969918251037598 L11.486236572265625 11.969918251037598 C11.416919708251953 11.988729476928711 11.347325325012207 12.006571769714355 11.277409553527832 12.023017883300781 L11.277409553527832 12.023017883300781 C11.301891326904297 11.961472511291504 11.326374053955078 11.899927139282227 11.350855827331543 11.83838176727295 L11.350855827331543 11.83838176727295"></path></svg>