<svg xmlns="http://www.w3.org/2000/svg" viewBox="0.0 0.0 24.0 24.0" height="200px" width="200px"><path fill="none" stroke="black" stroke-width=".3" stroke-opacity="1.0"  filling="0" d="M12.810135841369629 11.623499870300293 L12.810135841369629 11.623499870300293 C12.8309907913208 11.639900207519531 12.851844787597656 11.656299591064453 12.872699737548828 11.672699928283691 L12.872699737548828 11.672699928283691 C12.872699737548828 11.718154907226562 12.872699737548828 11.763608932495117 12.872699737548828 11.809063911437988 L12.872699737548828 11.809063911437988 C12.778027534484863 11.84119987487793 12.683354377746582 11.873336791992188 12.588682174682617 11.905472755432129 L12.588682174682617 11.905472755432129 C12.68342399597168 11.902231216430664 12.78576946258545 11.928692817687988 12.872699737548828 11.890881538391113 L12.872699737548828 11.890881538391113 C12.872709274291992 11.945436477661133 12.87271785736084 11.999990463256836 12.872727394104004 12.054545402526855 L12.872727394104004 12.054545402526855 C12.45453929901123 12.026633262634277 12.355549812316895 11.690217971801758 12.810135841369629 11.623499870300293 L12.810135841369629 11.623499870300293"></path>
<path fill="none" stroke="black" stroke-width=".3" stroke-opacity="1.0"  filling="0" d="M12.653154373168945 11.672863960266113 L12.653154373168945 11.672863960266113 C12.703627586364746 11.696372985839844 12.75409984588623 11.719882011413574 12.804573059082031 11.743391036987305 L12.804573059082031 11.743391036987305 C12.742109298706055 11.768418312072754 12.679645538330078 11.793444633483887 12.617181777954102 11.818471908569336 L12.617181777954102 11.818471908569336 C12.629172325134277 11.769935607910156 12.64116382598877 11.721400260925293 12.653154373168945 11.672863960266113 L12.653154373168945 11.672863960266113"></path></svg>