<svg xmlns="http://www.w3.org/2000/svg" viewBox="0.0 0.0 24.0 24.0" height="200px" width="200px"><path fill="none" stroke="black" stroke-width=".3" stroke-opacity="1.0"  filling="0" d="M14.407909393310547 12.30081844329834 L14.407909393310547 12.30081844329834 C14.479974746704102 12.33655834197998 14.521819114685059 12.426351547241211 14.53557300567627 12.505608558654785 L14.53557300567627 12.505608558654785 C14.681100845336914 12.489724159240723 14.810892105102539 12.641094207763672 14.890935897827148 12.763664245605469 L14.890935897827148 12.763664245605469 C14.863663673400879 12.763664245605469 14.836390495300293 12.763664245605469 14.809118270874023 12.763664245605469 L14.809118270874023 12.763664245605469 C14.750027656555176 12.686773300170898 14.690936088562012 12.609881401062012 14.631845474243164 12.532990455627441 L14.631845474243164 12.532990455627441 C14.618208885192871 12.609881401062012 14.604573249816895 12.686773300170898 14.590936660766602 12.763664245605469 L14.590936660766602 12.763664245605469 C14.563654899597168 12.763654708862305 14.536373138427734 12.763646125793457 14.5090913772583 12.763636589050293 L14.5090913772583 12.763636589050293 C14.479730606079102 12.608473777770996 14.443557739257812 12.454658508300781 14.407909393310547 12.30081844329834 L14.407909393310547 12.30081844329834"></path></svg>