<svg xmlns="http://www.w3.org/2000/svg" viewBox="0.0 0.0 24.0 24.0" height="200px" width="200px"><path fill="none" stroke="black" stroke-width=".3" stroke-opacity="1.0"  filling="0" d="M11.965036392211914 11.855127334594727 L11.965036392211914 11.855127334594727 C12.109078407287598 11.923521995544434 12.207134246826172 12.083613395690918 12.254727363586426 12.235799789428711 L12.254727363586426 12.235799789428711 C12.130757331848145 12.157477378845215 12.075051307678223 11.980643272399902 11.936808586120605 11.93173599243164 L11.936808586120605 11.93173599243164 C11.954045295715332 12.042527198791504 11.971281051635742 12.153318405151367 11.988517761230469 12.26410961151123 L11.988517761230469 12.26410961151123 C11.968226432800293 12.27271842956543 11.947936058044434 12.281328201293945 11.927644729614258 12.289937019348145 L11.927644729614258 12.289937019348145 C11.893317222595215 12.16934585571289 11.858990669250488 12.048754692077637 11.824663162231445 11.928163528442383 L11.824663162231445 11.928163528442383 C11.779372215270996 11.948808670043945 11.734082221984863 11.969453811645508 11.688791275024414 11.99009895324707 L11.688791275024414 11.99009895324707 C11.704082489013672 12.096717834472656 11.719372749328613 12.203335762023926 11.734663963317871 12.309954643249512 L11.734663963317871 12.309954643249512 C11.722818374633789 12.313254356384277 11.71097183227539 12.316554069519043 11.699126243591309 12.319853782653809 L11.699126243591309 12.319853782653809 C11.648399353027344 12.174108505249023 11.597672462463379 12.028363227844238 11.546945571899414 11.882617950439453 L11.546945571899414 11.882617950439453 C11.686594009399414 11.884725570678711 11.832118034362793 11.898008346557617 11.965036392211914 11.855127334594727 L11.965036392211914 11.855127334594727"></path></svg>