<svg xmlns="http://www.w3.org/2000/svg" viewBox="0.0 0.0 24.0 24.0" height="200px" width="200px"><path fill="none" stroke="black" stroke-width=".3" stroke-opacity="1.0"  filling="0" d="M10.690879821777344 11.2636079788208 L10.690879821777344 11.2636079788208 C10.718162536621094 11.263617515563965 10.745445251464844 11.263627052307129 10.772727966308594 11.263636589050293 L10.772727966308594 11.263636589050293 C10.834547996520996 11.572225570678711 10.875534057617188 12.043624877929688 10.785516738891602 12.353155136108398 L10.785516738891602 12.353155136108398 C10.762543678283691 12.321045875549316 10.739571571350098 12.288935661315918 10.716598510742188 12.256826400756836 L10.716598510742188 12.256826400756836 C10.678462028503418 12.28282642364502 10.640326499938965 12.308826446533203 10.602190017700195 12.334826469421387 L10.602190017700195 12.334826469421387 C10.43127155303955 11.916902542114258 10.372401237487793 11.837250709533691 10.713844299316406 11.52449893951416 L10.713844299316406 11.52449893951416 C10.706189155578613 11.437535285949707 10.698534965515137 11.350571632385254 10.690879821777344 11.2636079788208 L10.690879821777344 11.2636079788208"></path>
<path fill="none" stroke="black" stroke-width=".3" stroke-opacity="1.0"  filling="0" d="M10.617572784423828 11.641336441040039 L10.617572784423828 11.641336441040039 C10.737834930419922 11.864401817321777 10.773223876953125 11.971646308898926 10.615581512451172 12.1800537109375 L10.615581512451172 12.1800537109375 C10.61624526977539 12.000481605529785 10.61690902709961 11.820908546447754 10.617572784423828 11.641336441040039 L10.617572784423828 11.641336441040039"></path></svg>