<svg xmlns="http://www.w3.org/2000/svg" viewBox="0.0 0.0 24.0 24.0" height="200px" width="200px"><path fill="none" stroke="black" stroke-width=".3" stroke-opacity="1.0"  filling="0" d="M11.448328018188477 10.967700004577637 L11.448328018188477 10.967700004577637 C11.460118293762207 10.968899726867676 11.471909523010254 10.970099449157715 11.483699798583984 10.971299171447754 L11.483699798583984 10.971299171447754 C11.474645614624023 11.096207618713379 11.465590476989746 11.22111701965332 11.456536293029785 11.346025466918945 L11.456536293029785 11.346025466918945 C11.508004188537598 11.420234680175781 11.49598503112793 11.553003311157227 11.431035995483398 11.615754127502441 L11.431035995483398 11.615754127502441 C11.414018630981445 11.880489349365234 11.396954536437988 12.161065101623535 11.490272521972656 12.409391403198242 L11.490272521972656 12.409391403198242 C11.454326629638672 12.460918426513672 11.418381690979004 12.512445449829102 11.38243579864502 12.563972473144531 L11.38243579864502 12.563972473144531 C11.277734756469727 12.197486877441406 11.263701438903809 11.744606971740723 11.370027542114258 11.381044387817383 L11.370027542114258 11.381044387817383 C11.396127700805664 11.243263244628906 11.42222785949707 11.105481147766113 11.448328018188477 10.967700004577637 L11.448328018188477 10.967700004577637"></path></svg>