<svg xmlns="http://www.w3.org/2000/svg" viewBox="0.0 0.0 24.0 24.0" height="200px" width="200px"><path fill="none" stroke="black" stroke-width=".3" stroke-opacity="1.0"  filling="0" d="M12.1361722946167 11.488445281982422 L12.1361722946167 11.488445281982422 C12.16409969329834 11.590100288391113 12.19202709197998 11.691754341125488 12.219954490661621 11.79340934753418 L12.219954490661621 11.79340934753418 C12.186527252197266 11.726900100708008 12.15310001373291 11.66038990020752 12.119672775268555 11.593880653381348 L12.119672775268555 11.593880653381348 C12.070645332336426 11.826416969299316 12.021617889404297 12.058954238891602 11.972590446472168 12.29149055480957 L11.972590446472168 12.29149055480957 C12.03219985961914 12.244599342346191 12.091809272766113 12.197709083557129 12.151418685913086 12.15081787109375 L12.151418685913086 12.15081787109375 C12.136600494384766 12.243927001953125 12.121782302856445 12.3370361328125 12.106964111328125 12.430145263671875 L12.106964111328125 12.430145263671875 C12.057000160217285 12.430145263671875 12.007036209106445 12.430145263671875 11.957072257995605 12.430145263671875 L11.957072257995605 12.430145263671875 C11.879447937011719 11.982503890991211 11.835474967956543 11.83352279663086 12.1361722946167 11.488445281982422 L12.1361722946167 11.488445281982422"></path></svg>