<svg xmlns="http://www.w3.org/2000/svg" viewBox="0.0 0.0 24.0 24.0" height="200px" width="200px"><path fill="none" stroke="black" stroke-width=".3" stroke-opacity="1.0"  filling="0" d="M11.36599063873291 11.674036026000977 L11.36599063873291 11.674036026000977 C11.550755500793457 11.742287635803223 11.609230041503906 11.992666244506836 11.672618865966797 12.179154396057129 L11.672618865966797 12.179154396057129 C11.659245491027832 12.188581466674805 11.645873069763184 12.19800853729248 11.632499694824219 12.207435607910156 L11.632499694824219 12.207435607910156 C11.623800277709961 12.190035820007324 11.615099906921387 12.172636032104492 11.606400489807129 12.15523624420166 L11.606400489807129 12.15523624420166 C11.270976066589355 12.23681354522705 11.306264877319336 11.900209426879883 11.36599063873291 11.674036026000977 L11.36599063873291 11.674036026000977"></path>
<path fill="none" stroke="black" stroke-width=".3" stroke-opacity="1.0"  filling="0" d="M11.464363098144531 11.900781631469727 L11.464363098144531 11.900781631469727 C11.50324535369873 11.944272994995117 11.542126655578613 11.987763404846191 11.581008911132812 12.031254768371582 L11.581008911132812 12.031254768371582 C11.538644790649414 12.058609008789062 11.496281623840332 12.085963249206543 11.453917503356934 12.113317489624023 L11.453917503356934 12.113317489624023 C11.457399368286133 12.042471885681152 11.460881233215332 11.971627235412598 11.464363098144531 11.900781631469727 L11.464363098144531 11.900781631469727"></path></svg>