<svg xmlns="http://www.w3.org/2000/svg" viewBox="0.0 0.0 24.0 24.0" height="200px" width="200px"><path fill="none" stroke="black" stroke-width=".3" stroke-opacity="1.0"  filling="0" d="M11.134008407592773 11.603973388671875 L11.134008407592773 11.603973388671875 C11.494796752929688 11.719695091247559 11.452437400817871 12.17042064666748 11.450289726257324 12.544198989868164 L11.450289726257324 12.544198989868164 C11.440381050109863 12.545390129089355 11.430471420288086 12.546581268310547 11.420562744140625 12.547772407531738 L11.420562744140625 12.547772407531738 C11.396944999694824 12.520954132080078 11.373326301574707 12.494135856628418 11.349708557128906 12.467317581176758 L11.349708557128906 12.467317581176758 C11.289545059204102 12.50207233428955 11.22938060760498 12.536826133728027 11.169217109680176 12.57158088684082 L11.169217109680176 12.57158088684082 C11.08539867401123 12.369010925292969 11.146223068237305 12.078766822814941 11.305554389953613 11.928190231323242 L11.305554389953613 11.928190231323242 C11.28647232055664 11.845035552978516 11.267390251159668 11.761881828308105 11.248308181762695 11.678727149963379 L11.248308181762695 11.678727149963379 C11.187535285949707 11.735372543334961 11.126763343811035 11.792017936706543 11.065990447998047 11.848663330078125 L11.065990447998047 11.848663330078125 C11.088663101196289 11.76710033416748 11.111335754394531 11.68553638458252 11.134008407592773 11.603973388671875 L11.134008407592773 11.603973388671875"></path>
<path fill="none" stroke="black" stroke-width=".3" stroke-opacity="1.0"  filling="0" d="M11.251254081726074 12.088008880615234 L11.251254081726074 12.088008880615234 C11.287482261657715 12.493404388427734 11.010116577148438 12.456445693969727 11.251254081726074 12.088008880615234 L11.251254081726074 12.088008880615234"></path></svg>