<svg xmlns="http://www.w3.org/2000/svg" viewBox="0.0 0.0 24.0 24.0" height="200px" width="200px"><path fill="none" stroke="black" stroke-width=".3" stroke-opacity="1.0"  filling="0" d="M12.932207107543945 11.700244903564453 L12.932207107543945 11.700244903564453 C13.120071411132812 11.935430526733398 13.125757217407227 11.966714859008789 12.835062980651855 11.972208976745605 L12.835062980651855 11.972208976745605 C12.92161750793457 11.995545387268066 13.008172035217285 12.018880844116211 13.0947265625 12.042217254638672 L13.0947265625 12.042217254638672 C12.931076049804688 12.333349227905273 12.60280704498291 11.96883487701416 12.932207107543945 11.700244903564453 L12.932207107543945 11.700244903564453"></path>
<path fill="none" stroke="black" stroke-width=".3" stroke-opacity="1.0"  filling="0" d="M12.925199508666992 11.773173332214355 L12.925199508666992 11.773173332214355 C12.948772430419922 11.801082611083984 12.972345352172852 11.828990936279297 12.995918273925781 11.856900215148926 L12.995918273925781 11.856900215148926 C12.98646354675293 11.865982055664062 12.977008819580078 11.8750638961792 12.967554092407227 11.884145736694336 L12.967554092407227 11.884145736694336 C12.918472290039062 11.884136199951172 12.869391441345215 11.884127616882324 12.82030963897705 11.88411808013916 L12.82030963897705 11.88411808013916 C12.855273246765137 11.847136497497559 12.890235900878906 11.810154914855957 12.925199508666992 11.773173332214355 L12.925199508666992 11.773173332214355"></path></svg>