<svg xmlns="http://www.w3.org/2000/svg" viewBox="0.0 0.0 24.0 24.0" height="200px" width="200px"><path fill="none" stroke="black" stroke-width=".3" stroke-opacity="1.0"  filling="0" d="M12.27114486694336 11.674446105957031 L12.27114486694336 11.674446105957031 C12.31549072265625 11.742809295654297 12.359835624694824 11.811173439025879 12.404181480407715 11.879536628723145 L12.404181480407715 11.879536628723145 C12.317404747009277 11.909523010253906 12.004437446594238 12.113982200622559 12.306600570678711 12.105709075927734 L12.306600570678711 12.105709075927734 C12.342755317687988 12.052690505981445 12.37890911102295 11.999672889709473 12.415063858032227 11.946654319763184 L12.415063858032227 11.946654319763184 C12.193583488464355 12.473978042602539 11.916167259216309 11.872872352600098 12.27114486694336 11.674446105957031 L12.27114486694336 11.674446105957031"></path>
<path fill="none" stroke="black" stroke-width=".3" stroke-opacity="1.0"  filling="0" d="M12.209863662719727 11.76161003112793 L12.209863662719727 11.76161003112793 C12.248872756958008 11.7802734375 12.287881851196289 11.79893684387207 12.32689094543457 11.81760025024414 L12.32689094543457 11.81760025024414 C12.268855094909668 11.844454765319824 12.21081829071045 11.871309280395508 12.152782440185547 11.898163795471191 L12.152782440185547 11.898163795471191 C12.171809196472168 11.852645874023438 12.190836906433105 11.807127952575684 12.209863662719727 11.76161003112793 L12.209863662719727 11.76161003112793"></path></svg>