<svg xmlns="http://www.w3.org/2000/svg" viewBox="0.0 0.0 24.0 24.0" height="200px" width="200px"><path fill="none" stroke="black" stroke-width=".3" stroke-opacity="1.0"  filling="0" d="M11.029991149902344 11.863936424255371 L11.029991149902344 11.863936424255371 C11.119118690490723 11.88770866394043 11.208245277404785 11.911480903625488 11.297372817993164 11.935253143310547 L11.297372817993164 11.935253143310547 C11.242127418518066 11.941434860229492 11.186882019042969 11.947617530822754 11.131636619567871 11.9537992477417 L11.131636619567871 11.9537992477417 C11.191154479980469 12.007217407226562 11.250673294067383 12.060635566711426 11.31019115447998 12.114053726196289 L11.31019115447998 12.114053726196289 C11.31232738494873 12.140480995178223 11.31446361541748 12.166909217834473 11.31659984588623 12.193336486816406 L11.31659984588623 12.193336486816406 C11.087675094604492 12.304840087890625 11.307820320129395 12.40503978729248 11.453563690185547 12.426054954528809 L11.453563690185547 12.426054954528809 C11.441118240356445 12.455818176269531 11.428672790527344 12.48558235168457 11.416227340698242 12.515345573425293 L11.416227340698242 12.515345573425293 C11.33820915222168 12.515336036682129 11.260190963745117 12.515327453613281 11.182172775268555 12.515317916870117 L11.182172775268555 12.515317916870117 C11.123790740966797 12.304018020629883 11.065409660339355 12.092717170715332 11.007027626037598 11.881417274475098 L11.007027626037598 11.881417274475098 C11.014681816101074 11.875590324401855 11.022336959838867 11.869763374328613 11.029991149902344 11.863936424255371 L11.029991149902344 11.863936424255371"></path></svg>