<svg xmlns="http://www.w3.org/2000/svg" viewBox="0.0 0.0 24.0 24.0" height="200px" width="200px"><path fill="none" stroke="black" stroke-width=".3" stroke-opacity="1.0"  filling="0" d="M11.844244956970215 11.839363098144531 L11.844244956970215 11.839363098144531 C11.894881248474121 11.908417701721191 11.945517539978027 11.977472305297852 11.996153831481934 12.046526908874512 L11.996153831481934 12.046526908874512 C11.917499542236328 12.071517944335938 11.838844299316406 12.096508026123047 11.7601900100708 12.121499061584473 L11.7601900100708 12.121499061584473 C11.869438171386719 12.286827087402344 11.887201309204102 12.239529609680176 12.020698547363281 12.126191139221191 L12.020698547363281 12.126191139221191 C12.033771514892578 12.138863563537598 12.046844482421875 12.151535987854004 12.059917449951172 12.16420841217041 L12.059917449951172 12.16420841217041 C11.737200736999512 12.468441009521484 11.532456398010254 12.108792304992676 11.844244956970215 11.839363098144531 L11.844244956970215 11.839363098144531"></path>
<path fill="none" stroke="black" stroke-width=".3" stroke-opacity="1.0"  filling="0" d="M11.935608863830566 11.97728157043457 L11.935608863830566 11.97728157043457 C11.870244979858398 12.005200386047363 11.804882049560547 12.03311824798584 11.739518165588379 12.061037063598633 L11.739518165588379 12.061037063598633 C11.804882049560547 12.03311824798584 11.870244979858398 12.005200386047363 11.935608863830566 11.97728157043457 L11.935608863830566 11.97728157043457"></path></svg>