<svg xmlns="http://www.w3.org/2000/svg" viewBox="0.0 0.0 24.0 24.0" height="200px" width="200px"><path fill="none" stroke="black" stroke-width=".3" stroke-opacity="1.0"  filling="0" d="M13.32286262512207 11.694380760192871 L13.32286262512207 11.694380760192871 C13.384345054626465 11.705617904663086 13.44582748413086 11.716854095458984 13.507309913635254 11.7280912399292 L13.507309913635254 11.7280912399292 C13.451773643493652 11.744782447814941 13.396236419677734 11.761472702026367 13.340700149536133 11.77816390991211 L13.340700149536133 11.77816390991211 C13.360881805419922 11.834345817565918 13.381063461303711 11.89052677154541 13.4012451171875 11.946708679199219 L13.4012451171875 11.946708679199219 C13.451735496520996 11.958271980285645 13.502226829528809 11.969836235046387 13.552717208862305 11.981399536132812 L13.552717208862305 11.981399536132812 C13.50658130645752 11.99789047241211 13.460444450378418 12.014381408691406 13.414308547973633 12.030872344970703 L13.414308547973633 12.030872344970703 C13.439227104187012 12.104072570800781 13.464144706726074 12.17727279663086 13.489063262939453 12.250473022460938 L13.489063262939453 12.250473022460938 C13.536690711975098 12.240673065185547 13.584317207336426 12.23087215423584 13.63194465637207 12.22107219696045 L13.63194465637207 12.22107219696045 C13.64586353302002 12.253399848937988 13.659781455993652 12.285726547241211 13.673700332641602 12.31805419921875 L13.673700332641602 12.31805419921875 C13.588309288024902 12.324554443359375 13.502917289733887 12.331053733825684 13.417526245117188 12.337553977966309 L13.417526245117188 12.337553977966309 C13.344314575195312 12.124634742736816 13.186132431030273 11.897473335266113 13.32286262512207 11.694380760192871 L13.32286262512207 11.694380760192871"></path></svg>