<svg xmlns="http://www.w3.org/2000/svg" viewBox="0.0 0.0 24.0 24.0" height="200px" width="200px"><path fill="none" stroke="black" stroke-width=".3" stroke-opacity="1.0"  filling="0" d="M12.92727279663086 10.63636302947998 L12.92727279663086 10.63636302947998 C12.970645904541016 10.651018142700195 13.014018058776855 10.665672302246094 13.057391166687012 10.680327415466309 L13.057391166687012 10.680327415466309 C13.132627487182617 10.967445373535156 13.207863807678223 11.25456428527832 13.283100128173828 11.541682243347168 L13.283100128173828 11.541682243347168 C13.222818374633789 11.424155235290527 13.162535667419434 11.30662727355957 13.102253913879395 11.18910026550293 L13.102253913879395 11.18910026550293 C13.056744575500488 11.200982093811035 13.011236190795898 11.21286392211914 12.965726852416992 11.224745750427246 L12.965726852416992 11.224745750427246 C12.956317901611328 11.332900047302246 12.946907997131348 11.441055297851562 12.937499046325684 11.549209594726562 L12.937499046325684 11.549209594726562 C12.812231063842773 11.261537551879883 12.752077102661133 10.92428970336914 12.899999618530273 10.636363983154297 L12.899999618530273 10.636363983154297 C12.909090995788574 10.636363983154297 12.918181419372559 10.63636302947998 12.92727279663086 10.63636302947998 L12.92727279663086 10.63636302947998"></path>
<path fill="none" stroke="black" stroke-width=".3" stroke-opacity="1.0"  filling="0" d="M12.957518577575684 10.773408889770508 L12.957518577575684 10.773408889770508 C12.996139526367188 10.86070442199707 13.056918144226074 11.050507545471191 12.961909294128418 11.059745788574219 L12.961909294128418 11.059745788574219 C12.949600219726562 10.968027114868164 12.937291145324707 10.876309394836426 12.924982070922852 10.784590721130371 L12.924982070922852 10.784590721130371 C12.935827255249023 10.780863761901855 12.946673393249512 10.777135848999023 12.957518577575684 10.773408889770508 L12.957518577575684 10.773408889770508"></path></svg>