<svg xmlns="http://www.w3.org/2000/svg" viewBox="0.0 0.0 24.0 24.0" height="200px" width="200px"><path fill="none" stroke="black" stroke-width=".3" stroke-opacity="1.0"  filling="0" d="M12.71159839630127 11.908636093139648 L12.71159839630127 11.908636093139648 C12.71245288848877 11.918499946594238 12.71330738067627 11.928362846374512 12.71416187286377 11.938226699829102 L12.71416187286377 11.938226699829102 C12.68078899383545 11.942672729492188 12.647417068481445 11.947117805480957 12.614044189453125 11.951563835144043 L12.614044189453125 11.951563835144043 C12.656686782836914 12.005880355834961 12.659478187561035 12.109992027282715 12.610527038574219 12.158699989318848 L12.610527038574219 12.158699989318848 C12.656608581542969 12.161763191223145 12.702691078186035 12.164827346801758 12.748772621154785 12.167890548706055 L12.748772621154785 12.167890548706055 C12.749554634094238 12.177990913391113 12.750335693359375 12.188090324401855 12.751117706298828 12.198190689086914 L12.751117706298828 12.198190689086914 C12.50359058380127 12.209599494934082 12.54777717590332 12.156560897827148 12.545862197875977 11.917609214782715 L12.545862197875977 11.917609214782715 C12.601107597351074 11.914618492126465 12.656352996826172 11.911626815795898 12.71159839630127 11.908636093139648 L12.71159839630127 11.908636093139648"></path></svg>