<svg xmlns="http://www.w3.org/2000/svg" viewBox="0.0 0.0 24.0 24.0" height="200px" width="200px"><path fill="none" stroke="black" stroke-width=".3" stroke-opacity="1.0"  filling="0" d="M16.79525375366211 13.320599555969238 L16.79525375366211 13.320599555969238 C16.79525375366211 13.356327056884766 16.79525375366211 13.392053604125977 16.79525375366211 13.427781105041504 L16.79525375366211 13.427781105041504 C16.76524543762207 13.480799674987793 16.7352352142334 13.533817291259766 16.70522689819336 13.586835861206055 L16.70522689819336 13.586835861206055 C16.677135467529297 13.569953918457031 16.649045944213867 13.553072929382324 16.620954513549805 13.5361909866333 L16.620954513549805 13.5361909866333 C16.601472854614258 13.569336891174316 16.581989288330078 13.602481842041016 16.56250762939453 13.635627746582031 L16.56250762939453 13.635627746582031 C16.540571212768555 13.563654899597168 16.51863670349121 13.491682052612305 16.496700286865234 13.419709205627441 L16.496700286865234 13.419709205627441 C16.55990982055664 13.425518035888672 16.623119354248047 13.431327819824219 16.686328887939453 13.43713665008545 L16.686328887939453 13.43713665008545 C16.722637176513672 13.398290634155273 16.75894546508789 13.359445571899414 16.79525375366211 13.320599555969238 L16.79525375366211 13.320599555969238"></path></svg>