<svg xmlns="http://www.w3.org/2000/svg" viewBox="0.0 0.0 24.0 24.0" height="200px" width="200px"><path fill="none" stroke="black" stroke-width=".3" stroke-opacity="1.0"  filling="0" d="M10.229836463928223 10.98403549194336 L10.229836463928223 10.98403549194336 C10.302452087402344 11.133241653442383 10.351886749267578 11.295406341552734 10.378090858459473 11.45926284790039 L10.378090858459473 11.45926284790039 C10.347782135009766 11.441018104553223 10.317472457885742 11.422772407531738 10.287163734436035 11.40452766418457 L10.287163734436035 11.40452766418457 C10.261163711547852 11.436290740966797 10.235163688659668 11.468053817749023 10.209163665771484 11.49981689453125 L10.209163665771484 11.49981689453125 C10.143936157226562 11.33588981628418 10.07870864868164 11.171961784362793 10.013481140136719 11.008034706115723 L10.013481140136719 11.008034706115723 C10.023180961608887 11.004853248596191 10.032881736755371 11.001670837402344 10.042581558227539 10.998489379882812 L10.042581558227539 10.998489379882812 C10.076851844787598 11.128609657287598 10.160457611083984 11.24705696105957 10.257681846618652 11.340080261230469 L10.257681846618652 11.340080261230469 C10.24839973449707 11.22139835357666 10.239118576049805 11.102717399597168 10.229836463928223 10.98403549194336 L10.229836463928223 10.98403549194336"></path></svg>