<svg xmlns="http://www.w3.org/2000/svg" viewBox="0.0 0.0 24.0 24.0" height="200px" width="200px"><path fill="none" stroke="black" stroke-width=".3" stroke-opacity="1.0"  filling="0" d="M12.369653701782227 11.865599632263184 L12.369653701782227 11.865599632263184 C12.388880729675293 11.874354362487793 12.408108711242676 11.883109092712402 12.427335739135742 11.891863822937012 L12.427335739135742 11.891863822937012 C12.427781105041504 11.901481628417969 12.428227424621582 11.911100387573242 12.428672790527344 11.9207181930542 L12.428672790527344 11.9207181930542 C12.38721752166748 11.934381484985352 12.345763206481934 11.948044776916504 12.30430793762207 11.961708068847656 L12.30430793762207 11.961708068847656 C12.514952659606934 12.160118103027344 12.495859146118164 12.27857494354248 12.25178050994873 12.129517555236816 L12.25178050994873 12.129517555236816 C12.293425559997559 12.129517555236816 12.335071563720703 12.129517555236816 12.376716613769531 12.129517555236816 L12.376716613769531 12.129517555236816 C12.379398345947266 12.122608184814453 12.382081031799316 12.115699768066406 12.38476276397705 12.108790397644043 L12.38476276397705 12.108790397644043 C12.225845336914062 12.004156112670898 12.150364875793457 11.945591926574707 12.369653701782227 11.865599632263184 L12.369653701782227 11.865599632263184"></path></svg>