<svg xmlns="http://www.w3.org/2000/svg" viewBox="0.0 0.0 24.0 24.0" height="200px" width="200px"><path fill="none" stroke="black" stroke-width=".3" stroke-opacity="1.0"  filling="0" d="M11.443827629089355 11.61534595489502 L11.443827629089355 11.61534595489502 C11.53311824798584 11.622618675231934 11.622408866882324 11.629890441894531 11.711699485778809 11.637163162231445 L11.711699485778809 11.637163162231445 C11.625164985656738 12.003449440002441 11.476106643676758 12.351879119873047 11.5685453414917 12.722918510437012 L11.5685453414917 12.722918510437012 C11.71500015258789 12.369034767150879 11.82300853729248 11.9982328414917 11.902881622314453 11.623662948608398 L11.902881622314453 11.623662948608398 C11.992881774902344 11.623662948608398 12.082881927490234 11.623662948608398 12.172882080078125 11.623662948608398 L12.172882080078125 11.623662948608398 C12.168313026428223 12.085854530334473 11.982030868530273 12.528353691101074 11.871490478515625 12.977154731750488 L11.871490478515625 12.977154731750488 C11.792509078979492 12.977154731750488 11.713526725769043 12.977154731750488 11.63454532623291 12.977154731750488 L11.63454532623291 12.977154731750488 C11.62218189239502 12.950681686401367 11.609817504882812 12.924209594726562 11.597454071044922 12.897736549377441 L11.597454071044922 12.897736549377441 C10.86647891998291 13.087574005126953 11.400635719299316 11.80656623840332 11.443827629089355 11.61534595489502 L11.443827629089355 11.61534595489502"></path></svg>