<svg xmlns="http://www.w3.org/2000/svg" viewBox="0.0 0.0 24.0 24.0" height="200px" width="200px"><path fill="none" stroke="black" stroke-width=".3" stroke-opacity="1.0"  filling="0" d="M-6.882844924926758 8.204157829284668 L-6.882844924926758 8.204157829284668 C-6.872762680053711 8.207839965820312 -6.862680435180664 8.21152114868164 -6.852598190307617 8.215203285217285 L-6.852598190307617 8.215203285217285 C-6.8542799949646 8.238258361816406 -6.855961322784424 8.261312484741211 -6.857643127441406 8.284367561340332 L-6.857643127441406 8.284367561340332 C-6.809934616088867 8.288985252380371 -6.762226104736328 8.293603897094727 -6.714517593383789 8.298221588134766 L-6.714517593383789 8.298221588134766 C-5.8532938957214355 8.279715538024902 -4.992739200592041 8.268041610717773 -4.131324768066406 8.263558387756348 L-4.131324768066406 8.263558387756348 C-4.390641212463379 9.76067066192627 -4.872081756591797 11.395278930664062 -5.322572708129883 12.842949867248535 L-5.322572708129883 12.842949867248535 C-5.365444660186768 12.950431823730469 -5.4083170890808105 13.057913780212402 -5.451189041137695 13.165395736694336 L-5.451189041137695 13.165395736694336 C-5.814484596252441 15.024785995483398 -4.690658092498779 14.707498550415039 -4.043643951416016 13.405996322631836 L-4.043643951416016 13.405996322631836 C-3.78523325920105 12.398372650146484 -3.599985122680664 9.305771827697754 -2.7558794021606445 8.392997741699219 C-2.4884610176086426 8.103824615478516 -1.8212029933929443 8.295604705810547 -1.4521875381469727 8.22982406616211 L-1.4521875381469727 8.22982406616211 C-1.81130051612854 9.706504821777344 -2.2869808673858643 11.148233413696289 -2.607651710510254 12.636550903320312 L-2.607651710510254 12.636550903320312 C-2.8554911613464355 13.340424537658691 -2.910081148147583 14.726720809936523 -3.4477624893188477 15.264220237731934 C-4.8070292472839355 16.623027801513672 -6.751664161682129 16.109508514404297 -8.29977035522461 15.526229858398438 L-8.29977035522461 15.526229858398438 C-8.830618858337402 13.970012664794922 -7.862216472625732 11.911177635192871 -7.476325988769531 10.400592803955078 C-7.312142372131348 9.757887840270996 -7.197245121002197 8.799086570739746 -6.882844924926758 8.204157829284668 L-6.882844924926758 8.204157829284668"></path></svg>