<svg xmlns="http://www.w3.org/2000/svg" viewBox="0.0 0.0 24.0 24.0" height="200px" width="200px"><path fill="none" stroke="black" stroke-width=".3" stroke-opacity="1.0"  filling="0" d="M-8.873563766479492 17.1046085357666 L-8.873563766479492 17.1046085357666 C-8.88793659210205 17.169645309448242 -8.902310371398926 17.234682083129883 -8.916683197021484 17.299718856811523 L-8.916683197021484 17.299718856811523 C-8.936674118041992 17.28679084777832 -8.9566650390625 17.27386474609375 -8.976655960083008 17.260936737060547 L-8.976655960083008 17.260936737060547 C-9.001964569091797 17.298154830932617 -9.027273178100586 17.335372924804688 -9.052581787109375 17.372591018676758 L-9.052581787109375 17.372591018676758 C-9.052581787109375 17.28676414489746 -9.052581787109375 17.20093536376953 -9.052581787109375 17.115108489990234 L-9.052581787109375 17.115108489990234 C-9.02901840209961 17.121000289916992 -9.005455017089844 17.12689208984375 -8.981891632080078 17.132783889770508 L-8.981891632080078 17.132783889770508 C-8.993982315063477 17.154747009277344 -9.006072998046875 17.17671012878418 -9.018163681030273 17.198673248291016 L-9.018163681030273 17.198673248291016 C-9.013699531555176 17.204673767089844 -9.009236335754395 17.21067237854004 -9.004772186279297 17.216672897338867 L-9.004772186279297 17.216672897338867 C-8.96103572845459 17.179317474365234 -8.9173002243042 17.141963958740234 -8.873563766479492 17.1046085357666 L-8.873563766479492 17.1046085357666"></path></svg>