<svg xmlns="http://www.w3.org/2000/svg" viewBox="0.0 0.0 24.0 24.0" height="200px" width="200px"><path fill="none" stroke="black" stroke-width=".3" stroke-opacity="1.0"  filling="0" d="M11.259408950805664 11.95224666595459 L11.259408950805664 11.95224666595459 C11.269908905029297 12.049991607666016 11.28040885925293 12.147737503051758 11.290908813476562 12.245482444763184 L11.290908813476562 12.245482444763184 C11.272727012634277 12.245482444763184 11.254545211791992 12.245482444763184 11.236363410949707 12.245482444763184 L11.236363410949707 12.245482444763184 C11.233954429626465 12.199991226196289 11.231544494628906 12.154500961303711 11.229135513305664 12.109009742736816 L11.229135513305664 12.109009742736816 C11.186090469360352 12.111801147460938 11.143045425415039 12.114591598510742 11.100000381469727 12.117383003234863 L11.100000381469727 12.117383003234863 C11.100000381469727 12.160082817077637 11.100000381469727 12.20278263092041 11.100000381469727 12.245482444763184 L11.100000381469727 12.245482444763184 C11.081818580627441 12.24547290802002 11.063636779785156 12.245464324951172 11.045454978942871 12.245454788208008 L11.045454978942871 12.245454788208008 C11.045454978942871 12.15036392211914 11.045454978942871 12.055273056030273 11.045454978942871 11.960182189941406 L11.045454978942871 11.960182189941406 C11.054336547851562 11.9578275680542 11.063218116760254 11.955472946166992 11.072099685668945 11.953118324279785 L11.072099685668945 11.953118324279785 C11.086336135864258 11.992508888244629 11.10057258605957 12.031900405883789 11.114809036254883 12.071290969848633 L11.114809036254883 12.071290969848633 C11.163008689880371 12.031609535217285 11.211209297180176 11.991928100585938 11.259408950805664 11.95224666595459 L11.259408950805664 11.95224666595459"></path></svg>