<svg xmlns="http://www.w3.org/2000/svg" viewBox="0.0 0.0 24.0 24.0" height="200px" width="200px"><path fill="none" stroke="black" stroke-width=".3" stroke-opacity="1.0"  filling="0" d="M-14.482391357421875 17.067792892456055 L-14.482391357421875 17.067792892456055 C-14.42887020111084 17.13437843322754 -14.377172470092773 17.20244026184082 -14.326499938964844 17.27121925354004 L-14.326499938964844 17.27121925354004 C-14.320454597473145 17.20477294921875 -14.314408302307129 17.13832664489746 -14.30836296081543 17.071880340576172 L-14.30836296081543 17.071880340576172 C-14.298272132873535 17.07393455505371 -14.288182258605957 17.075990676879883 -14.278091430664062 17.078044891357422 L-14.278091430664062 17.078044891357422 C-14.284982681274414 17.16924476623535 -14.291873931884766 17.26044464111328 -14.298765182495117 17.35164451599121 L-14.298765182495117 17.35164451599121 C-14.356037139892578 17.288372039794922 -14.413309097290039 17.225099563598633 -14.4705810546875 17.161827087402344 L-14.4705810546875 17.161827087402344 C-14.476944923400879 17.225099563598633 -14.483309745788574 17.288372039794922 -14.489673614501953 17.35164451599121 L-14.489673614501953 17.35164451599121 C-14.494345664978027 17.351327896118164 -14.499018669128418 17.351009368896484 -14.503690719604492 17.350692749023438 L-14.503690719604492 17.350692749023438 C-14.503690719604492 17.26155662536621 -14.503690719604492 17.17241859436035 -14.503690719604492 17.083282470703125 L-14.503690719604492 17.083282470703125 C-14.496590614318848 17.0781192779541 -14.48949146270752 17.072956085205078 -14.482391357421875 17.067792892456055 L-14.482391357421875 17.067792892456055"></path></svg>