<svg xmlns="http://www.w3.org/2000/svg" viewBox="0.0 0.0 24.0 24.0" height="200px" width="200px"><path fill="none" stroke="black" stroke-width=".3" stroke-opacity="1.0"  filling="0" d="M11.700000762939453 11.981399536132812 L11.700000762939453 11.981399536132812 C11.757500648498535 11.981399536132812 11.815000534057617 11.981399536132812 11.8725004196167 11.981399536132812 L11.8725004196167 11.981399536132812 C11.87460994720459 11.985854148864746 11.876718521118164 11.99030876159668 11.878828048706055 11.994763374328613 L11.878828048706055 11.994763374328613 C11.836545944213867 12.008563041687012 11.79426383972168 12.022363662719727 11.751981735229492 12.036163330078125 L11.751981735229492 12.036163330078125 C11.753227233886719 12.047136306762695 11.754472732543945 12.05810832977295 11.755718231201172 12.06908130645752 L11.755718231201172 12.06908130645752 C11.7947998046875 12.078636169433594 11.833882331848145 12.088190078735352 11.872963905334473 12.097744941711426 L11.872963905334473 12.097744941711426 C11.825663566589355 12.128999710083008 11.778364181518555 12.160253524780273 11.731063842773438 12.191508293151855 L11.731063842773438 12.191508293151855 C11.78433609008789 12.20949935913086 11.83760929107666 12.227489471435547 11.890881538391113 12.24548053741455 L11.890881538391113 12.24548053741455 C11.827254295349121 12.245471954345703 11.763628005981445 12.245463371276855 11.700000762939453 12.245454788208008 L11.700000762939453 12.245454788208008 C11.700000762939453 12.15743637084961 11.700000762939453 12.069417953491211 11.700000762939453 11.981399536132812 L11.700000762939453 11.981399536132812"></path></svg>