<svg xmlns="http://www.w3.org/2000/svg" viewBox="0.0 0.0 24.0 24.0" height="200px" width="200px"><path fill="none" stroke="black" stroke-width=".3" stroke-opacity="1.0"  filling="0" d="M-10.47575569152832 8.017090797424316 L-10.47575569152832 8.017090797424316 C-9.760951042175293 8.041543006896973 -9.19155216217041 8.172584533691406 -8.538736343383789 8.516944885253906 L-8.538736343383789 8.516944885253906 C-8.751025199890137 8.899389266967773 -8.933115005493164 9.269463539123535 -9.1318359375 9.65429973602295 L-9.1318359375 9.65429973602295 C-11.904082298278809 8.417689323425293 -10.253609657287598 11.905869483947754 -9.688283920288086 13.053245544433594 L-9.688283920288086 13.053245544433594 C-9.699447631835938 13.004155158996582 -9.710611343383789 12.955063819885254 -9.72177505493164 12.905973434448242 L-9.72177505493164 12.905973434448242 C-9.71251106262207 12.903582572937012 -9.7032470703125 12.901190757751465 -9.69398307800293 12.898799896240234 L-9.69398307800293 12.898799896240234 C-9.371152877807617 14.472322463989258 -10.248249053955078 15.448112487792969 -11.464471817016602 15.86873722076416 C-12.680694580078125 16.28936195373535 -14.236045837402344 16.15481948852539 -15.26972770690918 15.507680892944336 L-15.26972770690918 15.507680892944336 C-15.027195930480957 15.026588439941406 -14.739851951599121 14.577311515808105 -14.391464233398438 14.164501190185547 L-14.391464233398438 14.164501190185547 C-14.096829414367676 14.368912696838379 -13.716849327087402 14.474006652832031 -13.358373641967773 14.464609146118164 L-13.358373641967773 14.464609146118164 C-11.555624961853027 14.083602905273438 -13.57222843170166 11.474627494812012 -13.742727279663086 10.44411849975586 C-14.034276008605957 8.681978225708008 -11.71666145324707 8.133264541625977 -10.47575569152832 8.017090797424316 L-10.47575569152832 8.017090797424316"></path></svg>