<svg xmlns="http://www.w3.org/2000/svg" viewBox="0.0 0.0 24.0 24.0" height="200px" width="200px"><path fill="none" stroke="black" stroke-width=".3" stroke-opacity="1.0"  filling="0" d="M7.4869914054870605 8.16633129119873 L7.4869914054870605 8.16633129119873 C8.436907768249512 8.244518280029297 9.187897682189941 8.371707916259766 9.992156028747559 8.915131568908691 L9.992156028747559 8.915131568908691 C9.807709693908691 9.259764671325684 9.580503463745117 9.554783821105957 9.394227981567383 9.89073371887207 L9.394227981567383 9.89073371887207 C9.358046531677246 9.900361061096191 9.32186508178711 9.909987449645996 9.285683631896973 9.919614791870117 L9.285683631896973 9.919614791870117 C9.288646697998047 9.944205284118652 9.291610717773438 9.968796730041504 9.294573783874512 9.993387222290039 L9.294573783874512 9.993387222290039 C8.7752103805542 9.725068092346191 8.237445831298828 9.365692138671875 7.844155788421631 9.96611499786377 L7.844155788421631 9.96611499786377 C8.028653144836426 11.557516098022461 9.631754875183105 12.421335220336914 9.5412015914917 14.208578109741211 C9.399589538574219 17.00356101989746 5.55553674697876 16.451784133911133 4.136427879333496 15.436990737915039 L4.136427879333496 15.436990737915039 C4.170027732849121 15.424708366394043 4.203627586364746 15.412426948547363 4.237227439880371 15.400144577026367 L4.237227439880371 15.400144577026367 C4.216791152954102 15.377054214477539 4.196354866027832 15.353963851928711 4.1759185791015625 15.330873489379883 L4.1759185791015625 15.330873489379883 C4.3351826667785645 14.999716758728027 4.468530654907227 14.577465057373047 4.7161359786987305 14.301491737365723 L4.7161359786987305 14.301491737365723 C5.325750350952148 14.914104461669922 6.6726179122924805 14.925149917602539 6.626590728759766 13.745429039001465 C6.556851863861084 11.957954406738281 3.330059766769409 9.978164672851562 6.223637104034424 8.501840591430664 C6.540381908416748 8.340234756469727 6.8485002517700195 8.274194717407227 7.200927734375 8.232168197631836 L7.200927734375 8.232168197631836 C7.2962822914123535 8.210222244262695 7.391636848449707 8.188277244567871 7.4869914054870605 8.16633129119873 L7.4869914054870605 8.16633129119873"></path></svg>