<svg xmlns="http://www.w3.org/2000/svg" viewBox="0.0 0.0 24.0 24.0" height="200px" width="200px"><path fill="none" stroke="black" stroke-width=".3" stroke-opacity="1.0"  filling="0" d="M12.469826698303223 10.579444885253906 L12.469826698303223 10.579444885253906 C12.756153106689453 10.807201385498047 13.013142585754395 11.165307998657227 13.01659107208252 11.53115463256836 L13.01659107208252 11.53115463256836 C12.901190757751465 11.53115463256836 12.785791397094727 11.53115463256836 12.670391082763672 11.53115463256836 L12.670391082763672 11.53115463256836 C12.630171775817871 11.177955627441406 12.618234634399414 10.936752319335938 12.214008331298828 10.93647289276123 L12.214008331298828 10.93647289276123 C12.111279487609863 11.36984634399414 13.74781322479248 13.013057708740234 12.777327537536621 13.393635749816895 C11.78115463256836 13.784287452697754 11.411773681640625 12.475217819213867 12.10295581817627 12.481363296508789 L12.10295581817627 12.481363296508789 C12.12217903137207 12.687047004699707 12.156739234924316 12.892720222473145 12.215209007263184 13.090853691101074 L12.215209007263184 13.090853691101074 C13.805270195007324 13.085891723632812 10.178720474243164 10.603231430053711 12.469826698303223 10.579444885253906 L12.469826698303223 10.579444885253906"></path></svg>