<svg xmlns="http://www.w3.org/2000/svg" viewBox="0.0 0.0 24.0 24.0" height="200px" width="200px"><path fill="none" stroke="black" stroke-width=".3" stroke-opacity="1.0"  filling="0" d="M17.563608169555664 9.327272415161133 L17.563608169555664 9.327272415161133 C18.08180046081543 9.327272415161133 18.599990844726562 9.327272415161133 19.118183135986328 9.327272415161133 L19.118183135986328 9.327272415161133 C19.103073120117188 9.40549087524414 19.08796501159668 9.483709335327148 19.07285499572754 9.561927795410156 L19.07285499572754 9.561927795410156 C18.87379264831543 9.59611988067627 18.759227752685547 9.57561206817627 18.760746002197266 9.344264030456543 L18.760746002197266 9.344264030456543 C18.657535552978516 9.389272689819336 18.5543270111084 9.434282302856445 18.45111656188965 9.479290962219238 L18.45111656188965 9.479290962219238 C18.276750564575195 9.568548202514648 18.16045570373535 9.51633071899414 18.007362365722656 9.614209175109863 L18.007362365722656 9.614209175109863 C17.96710777282715 9.5871000289917 17.926855087280273 9.559990882873535 17.886600494384766 9.532881736755371 L17.886600494384766 9.532881736755371 C17.7789363861084 9.46434497833252 17.67127227783203 9.395809173583984 17.563608169555664 9.327272415161133 L17.563608169555664 9.327272415161133"></path></svg>