<svg xmlns="http://www.w3.org/2000/svg" viewBox="0.0 0.0 24.0 24.0" height="200px" width="200px"><path fill="none" stroke="black" stroke-width=".3" stroke-opacity="1.0"  filling="0" d="M6.473836421966553 10.579718589782715 L6.473836421966553 10.579718589782715 C6.645336627960205 10.589582443237305 6.816836357116699 10.599445343017578 6.988336563110352 10.609309196472168 L6.988336563110352 10.609309196472168 C7.056463718414307 11.230999946594238 7.124590873718262 11.852690696716309 7.192718029022217 12.474381446838379 L7.192718029022217 12.474381446838379 C7.203627109527588 12.474108695983887 7.214536190032959 12.473835945129395 7.22544527053833 12.473563194274902 L7.22544527053833 12.473563194274902 C7.310184955596924 11.864235877990723 7.118595123291016 10.585822105407715 7.915063381195068 10.582281112670898 L7.915063381195068 10.582281112670898 C7.763510227203369 11.547107696533203 7.5987138748168945 12.511640548706055 7.423717975616455 13.472455978393555 L7.423717975616455 13.472455978393555 C6.537724494934082 13.473654747009277 6.839614391326904 12.37753677368164 6.710972785949707 11.676027297973633 L6.710972785949707 11.676027297973633 C6.627827167510986 12.273336410522461 6.544681549072266 12.870646476745605 6.461535930633545 13.467955589294434 L6.461535930633545 13.467955589294434 C6.343054294586182 13.467955589294434 6.22457218170166 13.467955589294434 6.106090545654297 13.467955589294434 L6.106090545654297 13.467955589294434 C6.104562759399414 13.459676742553711 5.58059549331665 10.62004566192627 5.579917907714844 10.616373062133789 L5.579917907714844 10.616373062133789 C5.700690746307373 10.616373062133789 5.821463108062744 10.616373062133789 5.942235946655273 10.616373062133789 L5.942235946655273 10.616373062133789 C6.0398359298706055 11.103318214416504 6.137435436248779 11.590264320373535 6.235035419464111 12.07720947265625 L6.235035419464111 12.07720947265625 C6.314635753631592 11.578045845031738 6.394236087799072 11.078882217407227 6.473836421966553 10.579718589782715 L6.473836421966553 10.579718589782715"></path></svg>