<svg xmlns="http://www.w3.org/2000/svg" viewBox="0.0 0.0 24.0 24.0" height="200px" width="200px"><path fill="none" stroke="black" stroke-width=".3" stroke-opacity="1.0"  filling="0" d="M21.719589233398438 10.555745124816895 L21.719589233398438 10.555745124816895 C22.056344985961914 10.8823881149292 21.484195709228516 10.936246871948242 21.265117645263672 10.936336517333984 L21.265117645263672 10.936336517333984 C21.265600204467773 10.971635818481445 21.299564361572266 13.449931144714355 21.299837112426758 13.469809532165527 L21.299837112426758 13.469809532165527 C21.164173126220703 13.469809532165527 21.02851104736328 13.469809532165527 20.892847061157227 13.469809532165527 L20.892847061157227 13.469809532165527 C20.883028030395508 12.626976013183594 20.87288475036621 11.783758163452148 20.871490478515625 10.941137313842773 L20.871490478515625 10.941137313842773 C20.690500259399414 10.941137313842773 20.50950813293457 10.941137313842773 20.32851791381836 10.941137313842773 L20.32851791381836 10.941137313842773 C20.32851791381836 10.823918342590332 20.32851791381836 10.706700325012207 20.32851791381836 10.589481353759766 L20.32851791381836 10.589481353759766 C20.79096221923828 10.560352325439453 21.25597381591797 10.57949161529541 21.719589233398438 10.555745124816895 L21.719589233398438 10.555745124816895"></path></svg>