<svg xmlns="http://www.w3.org/2000/svg" viewBox="0.0 0.0 24.0 24.0" height="200px" width="200px"><path fill="none" stroke="black" stroke-width=".3" stroke-opacity="1.0"  filling="0" d="M8.582917213439941 10.555581092834473 L8.582917213439941 10.555581092834473 C8.582917213439941 10.681617736816406 8.582917213439941 10.807653427124023 8.582917213439941 10.933690071105957 L8.582917213439941 10.933690071105957 C8.397599220275879 10.933690071105957 8.212281227111816 10.933690071105957 8.026963233947754 10.933690071105957 L8.026963233947754 10.933690071105957 C8.026009559631348 11.77839183807373 8.03195571899414 12.623129844665527 8.044745445251465 13.467735290527344 L8.044745445251465 13.467735290527344 C7.910745143890381 13.467735290527344 7.776745319366455 13.467735290527344 7.642745018005371 13.467735290527344 L7.642745018005371 13.467735290527344 C7.62576150894165 12.624428749084473 7.611257076263428 11.780256271362305 7.609199523925781 10.937453269958496 L7.609199523925781 10.937453269958496 C7.429481506347656 10.937453269958496 7.249763011932373 10.937453269958496 7.070044994354248 10.937453269958496 L7.070044994354248 10.937453269958496 C7.070044994354248 10.821398735046387 7.070044994354248 10.705344200134277 7.070044994354248 10.589289665222168 L7.070044994354248 10.589289665222168 C7.57433557510376 10.57805347442627 8.07862663269043 10.566817283630371 8.582917213439941 10.555581092834473 L8.582917213439941 10.555581092834473"></path></svg>