<svg xmlns="http://www.w3.org/2000/svg" viewBox="0.0 0.0 24.0 24.0" height="200px" width="200px"><path fill="none" stroke="black" stroke-width=".3" stroke-opacity="1.0"  filling="0" d="M2.9552717208862305 9.878536224365234 L2.9552717208862305 9.878536224365234 C3.998779296875 9.892664909362793 4.994716644287109 10.007662773132324 5.109545707702637 11.286136627197266 L5.109545707702637 11.286136627197266 C4.7491068840026855 11.405747413635254 4.350458145141602 11.317475318908691 3.970691680908203 11.318018913269043 L3.970691680908203 11.318018913269043 C3.735199451446533 10.847723007202148 2.9421558380126953 10.230002403259277 2.704909324645996 11.228507995605469 C2.644145965576172 11.484244346618652 3.4022574424743652 11.614065170288086 3.4033918380737305 11.614363670349121 C4.386636734008789 11.873516082763672 5.0484161376953125 11.9277925491333 5.139463424682617 13.135117530822754 C5.2808332443237305 15.009743690490723 1.7963716983795166 14.804695129394531 1.5505084991455078 12.975162506103516 L1.5505084991455078 12.975162506103516 C1.9390264749526978 12.981181144714355 2.3275444507598877 12.987198829650879 2.716062545776367 12.993217468261719 L2.716062545776367 12.993217468261719 C3.4850502014160156 13.784586906433105 4.402674198150635 13.067442893981934 3.797372817993164 12.700090408325195 C3.280959129333496 12.386683464050293 2.577303886413574 12.500723838806152 2.057591438293457 12.192817687988281 C0.6629525423049927 11.366556167602539 2.1295547485351562 10.152190208435059 2.9552717208862305 9.878536224365234 L2.9552717208862305 9.878536224365234"></path></svg>