<svg xmlns="http://www.w3.org/2000/svg" viewBox="0.0 0.0 24.0 24.0" height="200px" width="200px"><path fill="none" stroke="black" stroke-width=".3" stroke-opacity="1.0"  filling="0" d="M13.277864456176758 10.80280876159668 L13.277864456176758 10.80280876159668 C13.277864456176758 10.856163024902344 13.277864456176758 10.909518241882324 13.277864456176758 10.962872505187988 L13.277864456176758 10.962872505187988 C12.281100273132324 11.311989784240723 12.566594123840332 12.059109687805176 12.572484016418457 13.014790534973145 L12.572484016418457 13.014790534973145 C12.496338844299316 12.979872703552246 12.42019271850586 12.944953918457031 12.344047546386719 12.910036087036133 L12.344047546386719 12.910036087036133 C12.31126594543457 12.92940902709961 12.278483390808105 12.948781967163086 12.245701789855957 12.968154907226562 L12.245701789855957 12.968154907226562 C12.126986503601074 12.281380653381348 12.266708374023438 11.56406307220459 12.193392753601074 10.870362281799316 L12.193392753601074 10.870362281799316 C12.452922821044922 10.771450996398926 12.529633522033691 10.847779273986816 12.497647285461426 11.121134757995605 L12.497647285461426 11.121134757995605 C12.757719993591309 11.015026092529297 13.017791748046875 10.908917427062988 13.277864456176758 10.80280876159668 L13.277864456176758 10.80280876159668"></path></svg>