<svg xmlns="http://www.w3.org/2000/svg" viewBox="0.0 0.0 24.0 24.0" height="200px" width="200px"><path fill="none" stroke="black" stroke-width=".3" stroke-opacity="1.0"  filling="0" d="M3.338153839111328 10.636390686035156 L3.338153839111328 10.636390686035156 C3.8632795810699463 10.996772766113281 3.9866533279418945 11.384705543518066 3.5684452056884766 11.888318061828613 L3.5684452056884766 11.888318061828613 C3.9514870643615723 12.330504417419434 3.811366558074951 12.924577713012695 3.9302186965942383 13.466672897338867 L3.9302186965942383 13.466672897338867 C3.8077733516693115 13.466672897338867 3.6853277683258057 13.466672897338867 3.562882423400879 13.466672897338867 L3.562882423400879 13.466672897338867 C3.4167137145996094 12.993931770324707 3.478914737701416 12.549999237060547 3.3269729614257812 12.071946144104004 L3.3269729614257812 12.071946144104004 C3.1916091442108154 12.071946144104004 3.0562450885772705 12.071946144104004 2.9208812713623047 12.071946144104004 L2.9208812713623047 12.071946144104004 C2.9208812713623047 12.531209945678711 2.9208812713623047 12.990472793579102 2.9208812713623047 13.449736595153809 L2.9208812713623047 13.449736595153809 C2.366480827331543 13.750889778137207 2.56363582611084 10.815226554870605 2.56363582611084 10.647054672241211 L2.56363582611084 10.647054672241211 C2.8206686973571777 10.62256145477295 3.0799567699432373 10.63656997680664 3.338153839111328 10.636390686035156 L3.338153839111328 10.636390686035156"></path>
<path fill="none" stroke="black" stroke-width=".3" stroke-opacity="1.0"  filling="0" d="M2.9266090393066406 10.936227798461914 L2.9266090393066406 10.936227798461914 C3.62495756149292 10.937508583068848 3.5976037979125977 11.725192070007324 2.9266090393066406 11.727164268493652 L2.9266090393066406 11.727164268493652 C2.9266090393066406 11.463519096374512 2.9266090393066406 11.199872970581055 2.9266090393066406 10.936227798461914 L2.9266090393066406 10.936227798461914"></path></svg>