<svg xmlns="http://www.w3.org/2000/svg" viewBox="0.0 0.0 24.0 24.0" height="200px" width="200px"><path fill="none" stroke="black" stroke-width=".3" stroke-opacity="1.0"  filling="0" d="M16.61149024963379 10.588827133178711 L16.61149024963379 10.588827133178711 C16.733844757080078 10.588827133178711 16.856199264526367 10.588827133178711 16.978553771972656 10.588827133178711 L16.978553771972656 10.588827133178711 C17.163108825683594 11.156182289123535 17.34766387939453 11.723536491394043 17.53221893310547 12.290891647338867 L17.53221893310547 12.290891647338867 C17.542200088500977 12.288546562194824 17.552183151245117 12.286200523376465 17.562164306640625 12.283855438232422 L17.562164306640625 12.283855438232422 C17.562164306640625 11.719791412353516 17.562164306640625 11.155728340148926 17.562164306640625 10.59166431427002 L17.562164306640625 10.59166431427002 C17.683563232421875 10.59166431427002 17.804964065551758 10.59166431427002 17.926362991333008 10.59166431427002 L17.926362991333008 10.59166431427002 C17.926362991333008 10.603050231933594 17.92633819580078 13.436108589172363 17.92633819580078 13.442182540893555 L17.92633819580078 13.442182540893555 C17.796491622924805 13.442182540893555 17.66664695739746 13.442182540893555 17.536800384521484 13.442182540893555 L17.536800384521484 13.442182540893555 C17.3514461517334 12.865009307861328 17.166091918945312 12.287836074829102 16.980737686157227 11.710662841796875 L16.980737686157227 11.710662841796875 C16.965946197509766 11.712736129760742 16.951154708862305 11.714808464050293 16.936363220214844 11.71688175201416 L16.936363220214844 11.71688175201416 C16.936363220214844 12.292495727539062 16.93804931640625 12.8600492477417 16.97640037536621 13.43457317352295 L16.97640037536621 13.43457317352295 C16.844654083251953 13.43457317352295 16.712909698486328 13.43457317352295 16.58116340637207 13.43457317352295 L16.58116340637207 13.43457317352295 C16.58036231994629 12.48593807220459 16.590526580810547 11.5372314453125 16.61149024963379 10.588827133178711 L16.61149024963379 10.588827133178711"></path></svg>