<svg xmlns="http://www.w3.org/2000/svg" viewBox="0.0 0.0 24.0 24.0" height="200px" width="200px"><path fill="none" stroke="black" stroke-width=".3" stroke-opacity="1.0"  filling="0" d="M-4.066009521484375 6.813658714294434 L-4.066009521484375 6.813658714294434 C-3.1343507766723633 8.04411792755127 -3.763321876525879 9.504388809204102 -5.356393814086914 9.708904266357422 C-7.080156326293945 9.930197715759277 -10.594855308532715 6.969743728637695 -11.681838989257812 9.700340270996094 C-12.457536697387695 11.648959159851074 -11.24679946899414 13.887094497680664 -9.429112434387207 15.27422046661377 C-7.611425399780273 16.661346435546875 -5.186789035797119 17.19746208190918 -3.5346879959106445 15.742039680480957 C-2.8692400455474854 15.15581226348877 -2.787118434906006 13.800114631652832 -3.755570411682129 13.422986030578613 C-5.826313018798828 12.616610527038574 -7.72914457321167 14.357882499694824 -9.757123947143555 13.47518539428711 C-11.728432655334473 12.617155075073242 -10.089140892028809 10.394567489624023 -8.690319061279297 10.2155179977417 L-8.690319061279297 10.2155179977417 C-8.699928283691406 10.295581817626953 -8.709537506103516 10.375645637512207 -8.719146728515625 10.455709457397461 L-8.719146728515625 10.455709457397461 C-9.025609970092773 10.520040512084961 -10.314372062683105 11.072267532348633 -9.115718841552734 11.4557466506958 C-8.048355102539062 11.797223091125488 -6.618669509887695 11.190574645996094 -5.361342430114746 11.001360893249512 C-4.104015350341797 10.81214714050293 -3.0190470218658447 11.04036808013916 -2.6411190032958984 13.051584243774414 C-2.2437658309936523 15.166176795959473 -3.3046746253967285 16.749624252319336 -4.8820037841796875 17.586851119995117 C-6.4593329429626465 18.42407989501953 -8.553082466125488 18.515087127685547 -10.221410751342773 17.64480209350586 C-12.152841567993164 16.63726806640625 -13.032902717590332 14.430081367492676 -12.91145133972168 12.276680946350098 C-12.790000915527344 10.12328052520752 -11.667037010192871 8.02366828918457 -9.592418670654297 7.23128604888916 C-8.487653732299805 6.809330463409424 -7.483963489532471 6.885928630828857 -6.358530044555664 7.199458599090576 C-5.890842914581299 7.329749584197998 -5.064425945281982 8.152442932128906 -4.576801300048828 7.937950134277344 C-4.200014114379883 7.77221155166626 -4.375351905822754 7.085219383239746 -4.066009521484375 6.813658714294434 L-4.066009521484375 6.813658714294434"></path></svg>