<svg xmlns="http://www.w3.org/2000/svg" viewBox="0.0 0.0 24.0 24.0" height="200px" width="200px"><path fill="none" stroke="black" stroke-width=".3" stroke-opacity="1.0"  filling="0" d="M11.4046630859375 11.960808753967285 L11.4046630859375 11.960808753967285 C11.467735290527344 11.96167278289795 11.530808448791504 11.962535858154297 11.593880653381348 11.963399887084961 L11.593880653381348 11.963399887084961 C11.543844223022461 12.034809112548828 11.49380874633789 12.106218338012695 11.443772315979004 12.177627563476562 L11.443772315979004 12.177627563476562 C11.48454475402832 12.184926986694336 11.525317192077637 12.192227363586426 11.566089630126953 12.1995267868042 L11.566089630126953 12.1995267868042 C11.565481185913086 12.205463409423828 11.564871788024902 12.211400032043457 11.564263343811035 12.217336654663086 L11.564263343811035 12.217336654663086 C11.500126838684082 12.213854789733887 11.435990333557129 12.210371971130371 11.371853828430176 12.206890106201172 L11.371853828430176 12.206890106201172 C11.418590545654297 12.133835792541504 11.465326309204102 12.060781478881836 11.512063026428223 11.987727165222168 L11.512063026428223 11.987727165222168 C11.476263046264648 11.978754043579102 11.440463066101074 11.969781875610352 11.4046630859375 11.960808753967285 L11.4046630859375 11.960808753967285"></path></svg>