<svg xmlns="http://www.w3.org/2000/svg" viewBox="0.0 0.0 24.0 24.0" height="200px" width="200px"><path fill="none" stroke="black" stroke-width=".3" stroke-opacity="1.0"  filling="0" d="M11.921590805053711 11.962691307067871 L11.921590805053711 11.962691307067871 C11.994845390319824 11.975164413452148 12.068099975585938 11.98763656616211 12.14135456085205 12.000109672546387 L12.14135456085205 12.000109672546387 C12.125772476196289 12.032937049865723 12.110191345214844 12.065763473510742 12.094609260559082 12.098590850830078 L12.094609260559082 12.098590850830078 C12.109745979309082 12.138263702392578 12.124882698059082 12.177937507629395 12.140019416809082 12.217610359191895 L12.140019416809082 12.217610359191895 C12.078518867492676 12.185473442077637 12.017019271850586 12.153336524963379 11.95551872253418 12.121199607849121 L11.95551872253418 12.121199607849121 C11.948073387145996 12.146727561950684 11.940627098083496 12.17225456237793 11.933181762695312 12.197782516479492 L11.933181762695312 12.197782516479492 C11.92931842803955 12.196946144104004 11.925454139709473 12.1961088180542 11.921590805053711 12.195272445678711 L11.921590805053711 12.195272445678711 C11.921590805053711 12.117745399475098 11.921590805053711 12.040218353271484 11.921590805053711 11.962691307067871 L11.921590805053711 11.962691307067871"></path></svg>