<svg xmlns="http://www.w3.org/2000/svg" viewBox="0.0 0.0 24.0 24.0" height="200px" width="200px"><path fill="none" stroke="black" stroke-width=".3" stroke-opacity="1.0"  filling="0" d="M12.185127258300781 11.561017990112305 L12.185127258300781 11.561017990112305 C12.284183502197266 11.868870735168457 12.160689353942871 11.93354320526123 12.026754379272461 12.226580619812012 L12.026754379272461 12.226580619812012 C12.131832122802734 12.208590507507324 12.212108612060547 12.101423263549805 12.257208824157715 12.004826545715332 L12.257208824157715 12.004826545715332 C12.297918319702148 12.016098976135254 12.338626861572266 12.027372360229492 12.3793363571167 12.038644790649414 L12.3793363571167 12.038644790649414 C12.297199249267578 12.34017562866211 12.267488479614258 12.512166976928711 11.952054023742676 12.273380279541016 L11.952054023742676 12.273380279541016 C11.901935577392578 12.29507064819336 11.851818084716797 12.316761016845703 11.8016996383667 12.338451385498047 L11.8016996383667 12.338451385498047 C11.776890754699707 12.280014991760254 11.752080917358398 12.221579551696777 11.727272033691406 12.163143157958984 L11.727272033691406 12.163143157958984 C11.815290451049805 12.115416526794434 11.903308868408203 12.067689895629883 11.991327285766602 12.019963264465332 L11.991327285766602 12.019963264465332 C12.055927276611328 11.866981506347656 12.120527267456055 11.71399974822998 12.185127258300781 11.561017990112305 L12.185127258300781 11.561017990112305"></path>
<path fill="none" stroke="black" stroke-width=".3" stroke-opacity="1.0"  filling="0" d="M11.911554336547852 12.067909240722656 L11.911554336547852 12.067909240722656 C11.889108657836914 12.116263389587402 11.866663932800293 12.164618492126465 11.844218254089355 12.212972640991211 L11.844218254089355 12.212972640991211 C11.866663932800293 12.164618492126465 11.889108657836914 12.116263389587402 11.911554336547852 12.067909240722656 L11.911554336547852 12.067909240722656"></path></svg>