<svg xmlns="http://www.w3.org/2000/svg" viewBox="0.0 0.0 24.0 24.0" height="200px" width="200px"><path fill="none" stroke="black" stroke-width=".3" stroke-opacity="1.0"  filling="0" d="M10.522472381591797 8.910382270812988 L10.522472381591797 8.910382270812988 C10.346936225891113 9.340263366699219 10.171399116516113 9.770145416259766 9.99586296081543 10.200026512145996 L9.99586296081543 10.200026512145996 C8.935772895812988 10.20164966583252 8.41179370880127 9.927616119384766 8.11723518371582 11.006180763244629 L8.11723518371582 11.006180763244629 C8.636171340942383 11.006180763244629 9.155107498168945 11.006180763244629 9.674043655395508 11.006180763244629 L9.674043655395508 11.006180763244629 C9.639945030212402 11.087367057800293 9.191080093383789 12.159520149230957 9.167890548706055 12.199689865112305 C9.019813537597656 12.456193923950195 7.894045352935791 12.272753715515137 7.58089017868042 12.272753715515137 L7.58089017868042 12.272753715515137 C7.438863277435303 12.626299858093262 7.2968363761901855 12.97984504699707 7.154809474945068 13.333391189575195 L7.154809474945068 13.333391189575195 C7.67280912399292 13.333391189575195 8.19080924987793 13.333391189575195 8.708808898925781 13.333391189575195 L8.708808898925781 13.333391189575195 C8.531845092773438 13.754899978637695 8.354881286621094 14.176408767700195 8.17791748046875 14.597917556762695 L8.17791748046875 14.597917556762695 C7.202481269836426 14.597917556762695 6.227045059204102 14.597917556762695 5.251608848571777 14.597917556762695 L5.251608848571777 14.597917556762695 C6.021637439727783 12.714028358459473 6.791662216186523 10.830134391784668 7.561690807342529 8.946245193481445 L7.561690807342529 8.946245193481445 C8.54861831665039 8.934290885925293 9.535545349121094 8.92233657836914 10.522472381591797 8.910382270812988 L10.522472381591797 8.910382270812988"></path></svg>