<svg xmlns="http://www.w3.org/2000/svg" viewBox="0.0 0.0 24.0 24.0" height="200px" width="200px"><path fill="none" stroke="black" stroke-width=".3" stroke-opacity="1.0"  filling="0" d="M29.80696678161621 8.8235445022583 L29.80696678161621 8.8235445022583 C28.877845764160156 9.762998580932617 27.948728561401367 10.70245361328125 27.019609451293945 11.6419095993042 L27.019609451293945 11.6419095993042 C27.264066696166992 12.618118286132812 27.508520126342773 13.594326972961426 27.752971649169922 14.570536613464355 L27.752971649169922 14.570536613464355 C27.26957130432129 14.570536613464355 26.78617286682129 14.570536613464355 26.302772521972656 14.570536613464355 L26.302772521972656 14.570536613464355 C26.132816314697266 13.906418800354004 25.962862014770508 13.242300033569336 25.79290771484375 12.578181266784668 L25.79290771484375 12.578181266784668 C25.783971786499023 12.575326919555664 25.77503776550293 12.57247257232666 25.766101837158203 12.569618225097656 L25.766101837158203 12.569618225097656 C25.47715187072754 13.236499786376953 25.1931209564209 13.905529975891113 24.913555145263672 14.576399803161621 L24.913555145263672 14.576399803161621 C24.444473266601562 14.576399803161621 23.975391387939453 14.576399803161621 23.506309509277344 14.576399803161621 L23.506309509277344 14.576399803161621 C24.295000076293945 12.674150466918945 25.083681106567383 10.771890640258789 25.872356414794922 8.869635581970215 L25.872356414794922 8.869635581970215 C26.340721130371094 8.869635581970215 26.809083938598633 8.869635581970215 27.277448654174805 8.869635581970215 L27.277448654174805 8.869635581970215 C27.130352020263672 9.254372596740723 26.983163833618164 9.639073371887207 26.83587646484375 10.023736953735352 L26.83587646484375 10.023736953735352 C26.84695816040039 10.030736923217773 26.85803985595703 10.037735939025879 26.869121551513672 10.0447359085083 L26.869121551513672 10.0447359085083 C27.2153263092041 9.67878532409668 27.56568145751953 9.232684135437012 27.954330444335938 8.912017822265625 C28.4240779876709 8.524438858032227 29.211833953857422 8.853326797485352 29.80696678161621 8.8235445022583 L29.80696678161621 8.8235445022583"></path></svg>