<svg xmlns="http://www.w3.org/2000/svg" viewBox="0.0 0.0 24.0 24.0" height="200px" width="200px"><path fill="none" stroke="black" stroke-width=".3" stroke-opacity="1.0"  filling="0" d="M3.9473190307617188 11.837318420410156 L3.9473190307617188 11.837318420410156 C4.2545270919799805 12.139277458190918 4.193641185760498 12.163650512695312 3.7934722900390625 12.16339111328125 L3.7934722900390625 12.16339111328125 C3.8219995498657227 12.205208778381348 3.850526809692383 12.247027397155762 3.879054069519043 12.28884506225586 L3.879054069519043 12.28884506225586 C3.9666268825531006 12.263753890991211 4.054199695587158 12.238663673400879 4.141772270202637 12.21357250213623 L4.141772270202637 12.21357250213623 C3.699982166290283 12.507587432861328 3.4896633625030518 12.075844764709473 3.9473190307617188 11.837318420410156 L3.9473190307617188 11.837318420410156"></path>
<path fill="none" stroke="black" stroke-width=".3" stroke-opacity="1.0"  filling="0" d="M3.8974905014038086 11.918999671936035 L3.8974905014038086 11.918999671936035 C3.931208848953247 11.962108612060547 3.9649274349212646 12.005217552185059 3.998645782470703 12.04832649230957 L3.998645782470703 12.04832649230957 C3.9405364990234375 12.04832649230957 3.882427215576172 12.04832649230957 3.8243179321289062 12.04832649230957 L3.8243179321289062 12.04832649230957 C3.8487088680267334 12.005217552185059 3.8730995655059814 11.962108612060547 3.8974905014038086 11.918999671936035 L3.8974905014038086 11.918999671936035"></path></svg>