<svg xmlns="http://www.w3.org/2000/svg" viewBox="0.0 0.0 24.0 24.0" height="200px" width="200px"><path fill="none" stroke="black" stroke-width=".3" stroke-opacity="1.0"  filling="0" d="M16.53668212890625 11.836146354675293 L16.53668212890625 11.836146354675293 C16.613590240478516 11.93194580078125 16.690500259399414 12.027746200561523 16.76740837097168 12.12354564666748 L16.76740837097168 12.12354564666748 C16.651399612426758 12.139472961425781 16.535390853881836 12.155400276184082 16.419382095336914 12.171327590942383 L16.419382095336914 12.171327590942383 C16.494773864746094 12.181609153747559 16.57016372680664 12.19189167022705 16.64555549621582 12.202173233032227 L16.64555549621582 12.202173233032227 C16.67753791809082 12.21130084991455 16.709518432617188 12.220427513122559 16.741500854492188 12.229555130004883 L16.741500854492188 12.229555130004883 C16.318077087402344 12.519795417785645 16.2358341217041 12.16393756866455 16.53668212890625 11.836146354675293 L16.53668212890625 11.836146354675293"></path>
<path fill="none" stroke="black" stroke-width=".3" stroke-opacity="1.0"  filling="0" d="M16.509464263916016 11.917881965637207 L16.509464263916016 11.917881965637207 C16.540855407714844 11.952436447143555 16.57224464416504 11.986991882324219 16.603635787963867 12.021546363830566 L16.603635787963867 12.021546363830566 C16.543926239013672 12.021546363830566 16.48421859741211 12.021546363830566 16.424509048461914 12.021546363830566 L16.424509048461914 12.021546363830566 C16.45282745361328 11.986991882324219 16.48114585876465 11.952436447143555 16.509464263916016 11.917881965637207 L16.509464263916016 11.917881965637207"></path></svg>