<svg xmlns="http://www.w3.org/2000/svg" viewBox="0.0 0.0 24.0 24.0" height="200px" width="200px"><path fill="none" stroke="black" stroke-width=".3" stroke-opacity="1.0"  filling="0" d="M12.570244789123535 11.863937377929688 L12.570244789123535 11.863937377929688 C12.513099670410156 12.035409927368164 12.455953598022461 12.20688247680664 12.398808479309082 12.378355026245117 L12.398808479309082 12.378355026245117 C12.353717803955078 12.378355026245117 12.308627128601074 12.378355026245117 12.26353645324707 12.378355026245117 L12.26353645324707 12.378355026245117 C12.197754859924316 12.210673332214355 12.131972312927246 12.042990684509277 12.066190719604492 11.875308990478516 L12.066190719604492 11.875308990478516 C12.17196273803711 11.941961288452148 12.267406463623047 12.0398530960083 12.316062927246094 12.155017852783203 L12.316062927246094 12.155017852783203 C12.326272010803223 12.154718399047852 12.336481094360352 12.154417991638184 12.34669017791748 12.154118537902832 L12.34669017791748 12.154118537902832 C12.378045082092285 12.059345245361328 12.409399032592773 11.96457290649414 12.440753936767578 11.869799613952637 L12.440753936767578 11.869799613952637 C12.483917236328125 11.86784553527832 12.527081489562988 11.865891456604004 12.570244789123535 11.863937377929688 L12.570244789123535 11.863937377929688"></path></svg>