<svg xmlns="http://www.w3.org/2000/svg" viewBox="0.0 0.0 24.0 24.0" height="200px" width="200px"><path fill="none" stroke="black" stroke-width=".3" stroke-opacity="1.0"  filling="0" d="M17.56049919128418 10.007427215576172 L17.56049919128418 10.007427215576172 C17.539005279541016 10.099577903747559 17.50493621826172 10.192989349365234 17.44647216796875 10.267391204833984 L17.44647216796875 10.267391204833984 C17.442153930664062 10.23620891571045 17.437835693359375 10.20502758026123 17.433517456054688 10.173845291137695 L17.433517456054688 10.173845291137695 C17.400245666503906 10.18173599243164 17.366971969604492 10.189627647399902 17.33370018005371 10.197518348693848 L17.33370018005371 10.197518348693848 C17.322572708129883 10.175872802734375 17.311445236206055 10.154227256774902 17.300317764282227 10.13258171081543 L17.300317764282227 10.13258171081543 C17.366580963134766 10.13258171081543 17.432844161987305 10.13258171081543 17.499107360839844 10.13258171081543 L17.499107360839844 10.13258171081543 C17.50819969177246 10.101663589477539 17.517290115356445 10.070746421813965 17.526382446289062 10.039828300476074 L17.526382446289062 10.039828300476074 C17.50008201599121 10.044373512268066 17.47378158569336 10.048918724060059 17.447481155395508 10.05346393585205 L17.447481155395508 10.05346393585205 C17.486509323120117 10.039472579956055 17.525535583496094 10.025482177734375 17.564563751220703 10.011490821838379 L17.56049919128418 10.007427215576172"></path></svg>