<svg xmlns="http://www.w3.org/2000/svg" viewBox="0.0 0.0 24.0 24.0" height="200px" width="200px"><path fill="none" stroke="black" stroke-width=".3" stroke-opacity="1.0"  filling="0" d="M5.392063617706299 11.833553314208984 L5.392063617706299 11.833553314208984 C5.474254608154297 11.930426597595215 5.556445598602295 12.027298927307129 5.638636589050293 12.12417221069336 L5.638636589050293 12.12417221069336 C5.524145603179932 12.136899948120117 5.40965461730957 12.149626731872559 5.295163631439209 12.162354469299316 L5.295163631439209 12.162354469299316 C5.295163631439209 12.201981544494629 5.295163631439209 12.241609573364258 5.295163631439209 12.28123664855957 L5.295163631439209 12.28123664855957 C5.403209209442139 12.256736755371094 5.51125431060791 12.232236862182617 5.61929988861084 12.20773696899414 L5.61929988861084 12.20773696899414 C5.1275315284729 12.46241569519043 5.000936508178711 12.140310287475586 5.392063617706299 11.833553314208984 L5.392063617706299 11.833553314208984"></path>
<path fill="none" stroke="black" stroke-width=".3" stroke-opacity="1.0"  filling="0" d="M5.265191078186035 12.013036727905273 L5.265191078186035 12.013036727905273 C5.336900234222412 12.015054702758789 5.408608913421631 12.017073631286621 5.480318069458008 12.019091606140137 L5.480318069458008 12.019091606140137 C5.408608913421631 12.017073631286621 5.336900234222412 12.015054702758789 5.265191078186035 12.013036727905273 L5.265191078186035 12.013036727905273"></path></svg>