<svg xmlns="http://www.w3.org/2000/svg" viewBox="0.0 0.0 24.0 24.0" height="200px" width="200px"><path fill="none" stroke="black" stroke-width=".3" stroke-opacity="1.0"  filling="0" d="M10.451918601989746 11.597726821899414 L10.451918601989746 11.597726821899414 C10.493127822875977 11.597726821899414 10.53433609008789 11.597726821899414 10.575545310974121 11.597726821899414 L10.575545310974121 11.597726821899414 C10.575545310974121 11.684981346130371 10.575545310974121 11.772236824035645 10.575545310974121 11.859491348266602 L10.575545310974121 11.859491348266602 C11.106011390686035 11.876458168029785 10.958455085754395 12.386303901672363 10.451918601989746 12.371809005737305 L10.451918601989746 12.371809005737305 C10.451918601989746 12.113781929016113 10.451918601989746 11.855753898620605 10.451918601989746 11.597726821899414 L10.451918601989746 11.597726821899414"></path>
<path fill="none" stroke="black" stroke-width=".3" stroke-opacity="1.0"  filling="0" d="M10.67994499206543 11.945319175720215 L10.67994499206543 11.945319175720215 C10.92887020111084 12.146774291992188 10.582131385803223 12.406840324401855 10.581817626953125 12.097009658813477 L10.581817626953125 12.097009658813477 C10.582236289978027 12.097009658813477 10.582653999328613 12.097009658813477 10.583072662353516 12.097009658813477 L10.583072662353516 12.097009658813477 C10.583333015441895 12.037015914916992 10.631367683410645 11.9805269241333 10.67994499206543 11.945319175720215 L10.67994499206543 11.945319175720215"></path></svg>