<svg xmlns="http://www.w3.org/2000/svg" viewBox="0.0 0.0 24.0 24.0" height="200px" width="200px"><path fill="none" stroke="black" stroke-width=".3" stroke-opacity="1.0"  filling="0" d="M14.154000282287598 11.866528511047363 L14.154000282287598 11.866528511047363 C14.3149995803833 11.956930160522461 14.36169719696045 12.189093589782715 14.378373146057129 12.372982025146484 L14.378373146057129 12.372982025146484 C14.321891784667969 12.372982025146484 14.265409469604492 12.372982025146484 14.208928108215332 12.372982025146484 L14.208928108215332 12.372982025146484 C14.209452629089355 11.85329818725586 14.059513092041016 11.943568229675293 14.006099700927734 12.401618957519531 L14.006099700927734 12.401618957519531 C13.966618537902832 12.401618957519531 13.927136421203613 12.401618957519531 13.887655258178711 12.401618957519531 L13.887655258178711 12.401618957519531 C13.887655258178711 12.22560977935791 13.887655258178711 12.049600601196289 13.887655258178711 11.873591423034668 L13.887655258178711 11.873591423034668 C13.937055587768555 11.889391899108887 13.986454963684082 11.905191421508789 14.035855293273926 11.920991897583008 L14.035855293273926 11.920991897583008 C14.075237274169922 11.902837753295898 14.114618301391602 11.884682655334473 14.154000282287598 11.866528511047363 L14.154000282287598 11.866528511047363"></path></svg>