<svg xmlns="http://www.w3.org/2000/svg" viewBox="0.0 0.0 24.0 24.0" height="200px" width="200px"><path fill="none" stroke="black" stroke-width=".3" stroke-opacity="1.0"  filling="0" d="M15.701618194580078 11.597509384155273 L15.701618194580078 11.597509384155273 C15.749608993530273 11.597509384155273 15.797599792480469 11.597509384155273 15.845590591430664 11.597509384155273 L15.845590591430664 11.597509384155273 C15.845590591430664 11.736700057983398 15.845590591430664 11.87589168548584 15.845590591430664 12.015082359313965 L15.845590591430664 12.015082359313965 C15.952954292297363 11.960382461547852 16.060317993164062 11.905682563781738 16.167682647705078 11.850982666015625 L16.167682647705078 11.850982666015625 C16.10970115661621 11.911264419555664 16.05171775817871 11.971546173095703 15.993736267089844 12.031827926635742 L15.993736267089844 12.031827926635742 C16.068819046020508 12.145772933959961 16.14389991760254 12.259718894958496 16.218982696533203 12.373663902282715 L16.218982696533203 12.373663902282715 C16.101354598999023 12.29120922088623 15.98372745513916 12.208755493164062 15.866100311279297 12.126300811767578 L15.866100311279297 12.126300811767578 C15.855545997619629 12.20908260345459 15.844990730285645 12.291864395141602 15.834436416625977 12.374646186828613 L15.834436416625977 12.374646186828613 C15.79016399383545 12.374646186828613 15.745890617370605 12.374646186828613 15.701618194580078 12.374646186828613 L15.701618194580078 12.374646186828613 C15.701618194580078 12.1156005859375 15.701618194580078 11.856554985046387 15.701618194580078 11.597509384155273 L15.701618194580078 11.597509384155273"></path></svg>