<svg xmlns="http://www.w3.org/2000/svg" viewBox="0.0 0.0 24.0 24.0" height="200px" width="200px"><path fill="none" stroke="black" stroke-width=".3" stroke-opacity="1.0"  filling="0" d="M10.82560920715332 11.836503028869629 L10.82560920715332 11.836503028869629 C10.930209159851074 11.885092735290527 11.034809112548828 11.933682441711426 11.139409065246582 11.982272148132324 L11.139409065246582 11.982272148132324 C11.024813652038574 11.954282760620117 10.901012420654297 11.958375930786133 10.785517692565918 11.982382774353027 L10.785517692565918 11.982382774353027 C10.915771484375 12.038805961608887 11.034329414367676 12.121094703674316 11.147208213806152 12.207164764404297 L11.147208213806152 12.207164764404297 C10.985381126403809 12.216547012329102 10.823554039001465 12.22592830657959 10.661726951599121 12.235310554504395 L10.661726951599121 12.235310554504395 C10.692827224731445 12.223610877990723 10.723926544189453 12.21191120147705 10.755026817321777 12.200211524963379 L10.755026817321777 12.200211524963379 C10.822073936462402 12.235353469848633 10.9382905960083 12.232400894165039 10.980000495910645 12.169229507446289 L10.980000495910645 12.169229507446289 C10.712090492248535 12.114694595336914 10.589773178100586 12.05904769897461 10.82560920715332 11.836503028869629 L10.82560920715332 11.836503028869629"></path></svg>