<svg xmlns="http://www.w3.org/2000/svg" viewBox="0.0 0.0 24.0 24.0" height="200px" width="200px"><path fill="none" stroke="black" stroke-width=".3" stroke-opacity="1.0"  filling="0" d="M9.898527145385742 11.809062957763672 L9.898527145385742 11.809062957763672 C9.989399909973145 11.900681495666504 10.080272674560547 11.99229907989502 10.17114543914795 12.083917617797852 L10.17114543914795 12.083917617797852 C10.050053596496582 12.119446754455566 9.92238998413086 12.135136604309082 9.796199798583984 12.136307716369629 L9.796199798583984 12.136307716369629 C9.821953773498535 12.17884349822998 9.847708702087402 12.221380233764648 9.873462677001953 12.263916015625 L9.873462677001953 12.263916015625 C9.964926719665527 12.2437162399292 10.056390762329102 12.223517417907715 10.147854804992676 12.203317642211914 L10.147854804992676 12.203317642211914 C9.672943115234375 12.370532035827637 9.50554370880127 12.083661079406738 9.898527145385742 11.809062957763672 L9.898527145385742 11.809062957763672"></path>
<path fill="none" stroke="black" stroke-width=".3" stroke-opacity="1.0"  filling="0" d="M9.906299591064453 11.895763397216797 L9.906299591064453 11.895763397216797 C9.941044807434082 11.937935829162598 9.975790977478027 11.980109214782715 10.010536193847656 12.022281646728516 L10.010536193847656 12.022281646728516 C9.949209213256836 12.022281646728516 9.8878812789917 12.022281646728516 9.826554298400879 12.022281646728516 L9.826554298400879 12.022281646728516 C9.85313606262207 11.980109214782715 9.879717826843262 11.937935829162598 9.906299591064453 11.895763397216797 L9.906299591064453 11.895763397216797"></path></svg>