<svg xmlns="http://www.w3.org/2000/svg" viewBox="0.0 0.0 24.0 24.0" height="200px" width="200px"><path fill="none" stroke="black" stroke-width=".3" stroke-opacity="1.0"  filling="0" d="M9.1487455368042 11.622354507446289 L9.1487455368042 11.622354507446289 C9.331372261047363 11.6223726272583 9.513999938964844 11.622391700744629 9.696626663208008 11.62240982055664 L9.696626663208008 11.62240982055664 C9.590027809143066 11.86855697631836 9.454487800598145 12.014012336730957 9.339681625366211 12.24130916595459 L9.339681625366211 12.24130916595459 C9.465563774108887 12.24130916595459 9.591445922851562 12.24130916595459 9.717328071594238 12.24130916595459 L9.717328071594238 12.24130916595459 C9.616010665893555 12.41441535949707 9.16763687133789 12.571756362915039 9.11852741241455 12.340173721313477 C9.063799858093262 12.082099914550781 9.43620777130127 11.96591567993164 9.496118545532227 11.736654281616211 L9.496118545532227 11.736654281616211 C9.39030933380127 11.736654281616211 9.284501075744629 11.736654281616211 9.178691864013672 11.736654281616211 L9.178691864013672 11.736654281616211 C9.168709754943848 11.698554039001465 9.158727645874023 11.660454750061035 9.1487455368042 11.622354507446289 L9.1487455368042 11.622354507446289"></path></svg>