<svg xmlns="http://www.w3.org/2000/svg" viewBox="0.0 0.0 24.0 24.0" height="200px" width="200px"><path fill="none" stroke="black" stroke-width=".3" stroke-opacity="1.0"  filling="0" d="M14.301299095153809 11.848502159118652 L14.301299095153809 11.848502159118652 C14.342517852783203 11.903401374816895 14.383735656738281 11.958300590515137 14.424954414367676 12.013199806213379 L14.424954414367676 12.013199806213379 C14.376654624938965 12.021699905395508 14.328354835510254 12.030200004577637 14.280055046081543 12.038700103759766 L14.280055046081543 12.038700103759766 C14.261009216308594 12.006427764892578 14.241964340209961 11.974154472351074 14.222918510437012 11.941882133483887 L14.222918510437012 11.941882133483887 C14.191009521484375 11.956936836242676 14.159100532531738 11.971991539001465 14.127191543579102 11.987046241760254 L14.127191543579102 11.987046241760254 C14.127191543579102 12.105537414550781 14.127191543579102 12.224027633666992 14.127191543579102 12.34251880645752 L14.127191543579102 12.34251880645752 C14.086000442504883 12.350627899169922 14.044809341430664 12.358736991882324 14.003618240356445 12.366846084594727 L14.003618240356445 12.366846084594727 C13.735260009765625 11.913434028625488 14.064631462097168 11.896321296691895 14.301299095153809 11.848502159118652 L14.301299095153809 11.848502159118652"></path></svg>