<svg xmlns="http://www.w3.org/2000/svg" viewBox="0.0 0.0 24.0 24.0" height="200px" width="200px"><path fill="none" stroke="black" stroke-width=".3" stroke-opacity="1.0"  filling="0" d="M13.319672584533691 11.836799621582031 L13.319672584533691 11.836799621582031 C13.396454811096191 11.934626579284668 13.473237037658691 12.032454490661621 13.550019264221191 12.130281448364258 L13.550019264221191 12.130281448364258 C13.43608283996582 12.130281448364258 13.322145462036133 12.130281448364258 13.208209037780762 12.130281448364258 L13.208209037780762 12.130281448364258 C13.205655097961426 12.178608894348145 13.203100204467773 12.226935386657715 13.200546264648438 12.275262832641602 L13.200546264648438 12.275262832641602 C13.309951782226562 12.26013469696045 13.422264099121094 12.260541915893555 13.531882286071777 12.274036407470703 L13.531882286071777 12.274036407470703 C13.038314819335938 12.359832763671875 12.853678703308105 12.06762409210205 13.319672584533691 11.836799621582031 L13.319672584533691 11.836799621582031"></path>
<path fill="none" stroke="black" stroke-width=".3" stroke-opacity="1.0"  filling="0" d="M13.277181625366211 11.918754577636719 L13.277181625366211 11.918754577636719 C13.31360912322998 11.952881813049316 13.35003662109375 11.987008094787598 13.38646411895752 12.021135330200195 L13.38646411895752 12.021135330200195 C13.327327728271484 12.021135330200195 13.268192291259766 12.021135330200195 13.20905590057373 12.021135330200195 L13.20905590057373 12.021135330200195 C13.231764793395996 11.987008094787598 13.254472732543945 11.952881813049316 13.277181625366211 11.918754577636719 L13.277181625366211 11.918754577636719"></path></svg>