<svg xmlns="http://www.w3.org/2000/svg" viewBox="0.0 0.0 24.0 24.0" height="200px" width="200px"><path fill="none" stroke="black" stroke-width=".3" stroke-opacity="1.0"  filling="0" d="M7.564609050750732 10.25299072265625 L7.564609050750732 10.25299072265625 C7.827818393707275 10.273200035095215 8.09102725982666 10.293408393859863 8.354236602783203 10.313617706298828 L8.354236602783203 10.313617706298828 C8.491985321044922 11.03840160369873 8.490397453308105 12.429598808288574 8.268682479858398 13.15434455871582 C8.178699493408203 13.448480606079102 7.240721702575684 13.509810447692871 7.204227447509766 13.285035133361816 C7.062277317047119 12.410738945007324 7.470366954803467 11.141181945800781 7.564609050750732 10.25299072265625 L7.564609050750732 10.25299072265625"></path>
<path fill="none" stroke="black" stroke-width=".3" stroke-opacity="1.0"  filling="0" d="M7.826400279998779 10.924445152282715 L7.826400279998779 10.924445152282715 C7.9042277336120605 10.924454689025879 7.982054710388184 10.924463272094727 8.059882164001465 10.92447280883789 L8.059882164001465 10.92447280883789 C8.069064140319824 11.100881576538086 8.078245162963867 11.277291297912598 8.087427139282227 11.453700065612793 L8.087427139282227 11.453700065612793 C7.738292694091797 11.451180458068848 7.687703609466553 11.257065773010254 7.826400279998779 10.924445152282715 L7.826400279998779 10.924445152282715"></path>
<path fill="none" stroke="black" stroke-width=".3" stroke-opacity="1.0"  filling="0" d="M7.790890693664551 12.139883041381836 L7.790890693664551 12.139883041381836 C7.970974445343018 12.24614429473877 7.991726398468018 12.527674674987793 7.984226703643799 12.736637115478516 L7.984226703643799 12.736637115478516 C7.862817764282227 12.736637115478516 7.741408824920654 12.736637115478516 7.619999885559082 12.736637115478516 L7.619999885559082 12.736637115478516 C7.634090900421143 12.542282104492188 7.648181438446045 12.347928047180176 7.6622724533081055 12.153573036193848 L7.6622724533081055 12.153573036193848 C7.705145359039307 12.149009704589844 7.74801778793335 12.14444637298584 7.790890693664551 12.139883041381836 L7.790890693664551 12.139883041381836"></path></svg>