<svg xmlns="http://www.w3.org/2000/svg" viewBox="0.0 0.0 24.0 24.0" height="200px" width="200px"><path fill="none" stroke="black" stroke-width=".3" stroke-opacity="1.0"  filling="0" d="M13.869927406311035 11.637954711914062 L13.869927406311035 11.637954711914062 C13.876381874084473 11.691672325134277 13.88283634185791 11.745390892028809 13.889290809631348 11.799108505249023 L13.889290809631348 11.799108505249023 C13.921299934387207 11.805827140808105 13.953309059143066 11.812544822692871 13.985318183898926 11.819263458251953 L13.985318183898926 11.819263458251953 C13.951818466186523 11.855036735534668 13.918317794799805 11.890809059143066 13.884818077087402 11.926582336425781 L13.884818077087402 11.926582336425781 C13.884818077087402 12.028300285339355 13.884818077087402 12.130019187927246 13.884818077087402 12.23173713684082 L13.884818077087402 12.23173713684082 C13.918699264526367 12.240418434143066 13.952581405639648 12.249099731445312 13.986462593078613 12.257781028747559 L13.986462593078613 12.257781028747559 C13.707324028015137 12.458693504333496 13.744973182678223 12.181159019470215 13.745563507080078 11.94027328491211 L13.745563507080078 11.94027328491211 C13.71890926361084 11.924490928649902 13.692254066467285 11.908709526062012 13.665599822998047 11.892927169799805 L13.665599822998047 11.892927169799805 C13.699899673461914 11.827672958374023 13.734200477600098 11.762417793273926 13.768500328063965 11.697163581848145 L13.768500328063965 11.697163581848145 C13.762436866760254 11.691527366638184 13.756372451782227 11.685891151428223 13.750308990478516 11.680254936218262 L13.750308990478516 11.680254936218262 C13.790182113647461 11.666154861450195 13.83005428314209 11.652054786682129 13.869927406311035 11.637954711914062 L13.869927406311035 11.637954711914062"></path></svg>