<svg xmlns="http://www.w3.org/2000/svg" viewBox="0.0 0.0 24.0 24.0" height="200px" width="200px"><path fill="none" stroke="black" stroke-width=".3" stroke-opacity="1.0"  filling="0" d="M7.447473049163818 11.63361930847168 L7.447473049163818 11.63361930847168 C7.6550726890563965 11.750418663024902 7.862672805786133 11.867218971252441 8.070272445678711 11.984018325805664 L8.070272445678711 11.984018325805664 C7.974118232727051 12.011656761169434 7.8757781982421875 12.032626152038574 7.776681900024414 12.046391487121582 L7.776681900024414 12.046391487121582 C7.7461090087890625 11.989445686340332 7.715536594390869 11.932500839233398 7.684963703155518 11.875555038452148 L7.684963703155518 11.875555038452148 C7.569972515106201 11.931781768798828 7.454981803894043 11.988009452819824 7.339990615844727 12.044236183166504 L7.339990615844727 12.044236183166504 C8.289605140686035 12.306805610656738 8.279196739196777 12.828322410583496 7.063636302947998 12.736363410949707 L7.063636302947998 12.736363410949707 C7.063636302947998 12.663636207580566 7.063636302947998 12.590909004211426 7.063636302947998 12.518181800842285 L7.063636302947998 12.518181800842285 C7.139681816101074 12.499763488769531 7.21572732925415 12.481345176696777 7.291772842407227 12.462926864624023 L7.291772842407227 12.462926864624023 C8.047369003295898 12.85171127319336 7.547868251800537 12.378698348999023 7.063663959503174 12.190908432006836 L7.063663959503174 12.190908432006836 C7.063654899597168 12.07272720336914 7.063645362854004 11.954545021057129 7.063636302947998 11.836363792419434 L7.063636302947998 11.836363792419434 C7.191581726074219 11.768782615661621 7.319527626037598 11.701200485229492 7.447473049163818 11.63361930847168 L7.447473049163818 11.63361930847168"></path></svg>