<svg xmlns="http://www.w3.org/2000/svg" viewBox="0.0 0.0 24.0 24.0" height="200px" width="200px"><path fill="none" stroke="black" stroke-width=".3" stroke-opacity="1.0"  filling="0" d="M9.834299087524414 11.32137393951416 L9.834299087524414 11.32137393951416 C9.923980712890625 11.32137393951416 10.013663291931152 11.32137393951416 10.103344917297363 11.32137393951416 L10.103344917297363 11.32137393951416 C10.554821968078613 12.280174255371094 9.936653137207031 13.195341110229492 8.99162769317627 12.821918487548828 L8.99162769317627 12.821918487548828 C9.029672622680664 12.74729061126709 9.067718505859375 12.672663688659668 9.10576343536377 12.59803581237793 L9.10576343536377 12.59803581237793 C9.382476806640625 12.68254280090332 9.722641944885254 12.831156730651855 9.815099716186523 12.415935516357422 L9.815099716186523 12.415935516357422 C8.672574996948242 12.343331336975098 8.99221420288086 11.074007987976074 9.800399780273438 11.399018287658691 L9.800399780273438 11.399018287658691 C9.811699867248535 11.373136520385742 9.822999000549316 11.34725570678711 9.834299087524414 11.32137393951416 L9.834299087524414 11.32137393951416"></path>
<path fill="none" stroke="black" stroke-width=".3" stroke-opacity="1.0"  filling="0" d="M9.594926834106445 11.508654594421387 L9.594926834106445 11.508654594421387 C9.626035690307617 11.508654594421387 9.657145500183105 11.508654594421387 9.688254356384277 11.508654594421387 L9.688254356384277 11.508654594421387 C9.891331672668457 12.727553367614746 9.0005521774292 12.088988304138184 9.594926834106445 11.508654594421387 L9.594926834106445 11.508654594421387"></path></svg>