<svg xmlns="http://www.w3.org/2000/svg" viewBox="0.0 0.0 24.0 24.0" height="200px" width="200px"><path fill="none" stroke="black" stroke-width=".3" stroke-opacity="1.0"  filling="0" d="M7.745509147644043 10.82727336883545 L7.745509147644043 10.82727336883545 C7.772763729095459 10.82727336883545 7.800017833709717 10.82727336883545 7.827272415161133 10.82727336883545 L7.827272415161133 10.82727336883545 C7.827272415161133 10.986845970153809 7.827272415161133 11.146418571472168 7.827272415161133 11.305991172790527 L7.827272415161133 11.305991172790527 C7.869445323944092 11.313155174255371 7.911618232727051 11.320318222045898 7.95379114151001 11.327482223510742 L7.95379114151001 11.327482223510742 C7.95379114151001 11.393518447875977 7.95379114151001 11.459555625915527 7.95379114151001 11.525591850280762 L7.95379114151001 11.525591850280762 C7.908491134643555 11.533191680908203 7.8631911277771 11.540791511535645 7.8178911209106445 11.548391342163086 L7.8178911209106445 11.548391342163086 C7.817383766174316 11.795730590820312 7.767027854919434 12.117998123168945 7.956136703491211 12.27741813659668 L7.956136703491211 12.27741813659668 C7.961264133453369 12.342463493347168 7.966391086578369 12.407509803771973 7.971518516540527 12.472555160522461 L7.971518516540527 12.472555160522461 C7.48002290725708 12.307947158813477 7.342987537384033 12.138318061828613 7.528991222381592 11.571764945983887 L7.528991222381592 11.571764945983887 C7.441051959991455 11.528340339660645 7.370590686798096 11.427721977233887 7.361154556274414 11.330100059509277 L7.361154556274414 11.330100059509277 C7.410954475402832 11.322782516479492 7.46075439453125 11.31546401977539 7.510554313659668 11.308146476745605 L7.510554313659668 11.308146476745605 C7.510554313659668 11.173810005187988 7.510554313659668 11.039473533630371 7.510554313659668 10.905137062072754 L7.510554313659668 10.905137062072754 C7.58887243270874 10.879182815551758 7.667191028594971 10.853227615356445 7.745509147644043 10.82727336883545 L7.745509147644043 10.82727336883545"></path></svg>