<svg xmlns="http://www.w3.org/2000/svg" viewBox="0.0 0.0 24.0 24.0" height="200px" width="200px"><path fill="none" stroke="black" stroke-width=".3" stroke-opacity="1.0"  filling="0" d="M16.488574981689453 11.408645629882812 L16.488574981689453 11.408645629882812 C16.588411331176758 11.408645629882812 16.68824577331543 11.408645629882812 16.788082122802734 11.408645629882812 L16.788082122802734 11.408645629882812 C16.797264099121094 11.446382522583008 16.806446075439453 11.484118461608887 16.815628051757812 11.521855354309082 L16.815628051757812 11.521855354309082 C17.042173385620117 11.526955604553223 17.268720626831055 11.532054901123047 17.49526596069336 11.537155151367188 L17.49526596069336 11.537155151367188 C17.545337677001953 11.509627342224121 17.59541130065918 11.482100486755371 17.645483016967773 11.454572677612305 L17.645483016967773 11.454572677612305 C17.64547348022461 11.518199920654297 17.645463943481445 11.581827163696289 17.64545440673828 11.645454406738281 L17.64545440673828 11.645454406738281 C17.62086296081543 11.646599769592285 17.59627342224121 11.647745132446289 17.57168197631836 11.648890495300293 L17.57168197631836 11.648890495300293 C17.557472229003906 11.962590217590332 17.543264389038086 12.276290893554688 17.529054641723633 12.589990615844727 L17.529054641723633 12.589990615844727 C17.424854278564453 12.589990615844727 17.320655822753906 12.589990615844727 17.216455459594727 12.589990615844727 L17.216455459594727 12.589990615844727 C17.144912719726562 11.30514907836914 16.802345275878906 11.512479782104492 16.80000114440918 12.592309951782227 L16.80000114440918 12.592309951782227 C16.696191787719727 12.592309951782227 16.592384338378906 12.592309951782227 16.488574981689453 12.592309951782227 L16.488574981689453 12.592309951782227 C16.488574981689453 12.197754859924316 16.488574981689453 11.803200721740723 16.488574981689453 11.408645629882812 L16.488574981689453 11.408645629882812"></path></svg>