<svg xmlns="http://www.w3.org/2000/svg" viewBox="0.0 0.0 24.0 24.0" height="200px" width="200px"><path fill="none" stroke="black" stroke-width=".3" stroke-opacity="1.0"  filling="0" d="M14.04324722290039 11.482746124267578 L14.04324722290039 11.482746124267578 C14.372613906860352 11.491372108459473 14.847829818725586 11.372442245483398 15.016473770141602 11.655489921569824 L15.016473770141602 11.655489921569824 C14.920865058898926 11.67535400390625 14.825255393981934 11.69521713256836 14.729646682739258 11.715081214904785 L14.729646682739258 11.715081214904785 C14.563593864440918 11.561716079711914 14.435462951660156 11.424633026123047 14.261701583862305 11.639481544494629 L14.261701583862305 11.639481544494629 C14.394392967224121 11.72911262512207 15.010833740234375 11.943012237548828 14.982465744018555 12.024164199829102 C14.755326271057129 12.673940658569336 14.294073104858398 12.813926696777344 13.946236610412598 12.204355239868164 L13.946236610412598 12.204355239868164 C14.03892707824707 12.183491706848145 14.13161849975586 12.162627220153809 14.224308967590332 12.141763687133789 L14.224308967590332 12.141763687133789 C14.317497253417969 12.274374961853027 14.524017333984375 12.3272705078125 14.683882713317871 12.300572395324707 L14.683882713317871 12.300572395324707 C14.52348518371582 11.993668556213379 14.02852725982666 11.828723907470703 14.04324722290039 11.482746124267578 L14.04324722290039 11.482746124267578"></path></svg>