<svg xmlns="http://www.w3.org/2000/svg" viewBox="0.0 0.0 24.0 24.0" height="200px" width="200px"><path fill="none" stroke="black" stroke-width=".3" stroke-opacity="1.0"  filling="0" d="M-8.455253601074219 10.017791748046875 L-8.455253601074219 10.017791748046875 C-8.455253601074219 10.327473640441895 -8.455253601074219 10.637154579162598 -8.455253601074219 10.946836471557617 L-8.455253601074219 10.946836471557617 C-8.283980369567871 10.953100204467773 -8.11270809173584 10.95936393737793 -7.941434860229492 10.965627670288086 L-7.941434860229492 10.965627670288086 C-7.941434860229492 11.173700332641602 -7.941434860229492 11.381772994995117 -7.941434860229492 11.589845657348633 L-7.941434860229492 11.589845657348633 C-8.112471580505371 11.589845657348633 -8.283509254455566 11.589845657348633 -8.454545974731445 11.589845657348633 L-8.454545974731445 11.589845657348633 C-8.454902648925781 12.179082870483398 -8.889570236206055 13.978894233703613 -7.891851425170898 13.816963195800781 L-7.891851425170898 13.816963195800781 C-7.891851425170898 14.017335891723633 -7.891851425170898 14.2177095413208 -7.891851425170898 14.418082237243652 L-7.891851425170898 14.418082237243652 C-9.721999168395996 15.192076683044434 -9.476166725158691 12.581449508666992 -9.392072677612305 11.623091697692871 L-9.392072677612305 11.623091697692871 C-9.666122436523438 11.567757606506348 -9.87309741973877 11.215317726135254 -9.87272834777832 10.935737609863281 L-9.87272834777832 10.935737609863281 C-9.728409767150879 10.944683074951172 -9.584090232849121 10.953627586364746 -9.43977165222168 10.962573051452637 L-9.43977165222168 10.962573051452637 C-9.425216674804688 10.943391799926758 -9.410661697387695 10.924209594726562 -9.396106719970703 10.905028343200684 L-9.396106719970703 10.905028343200684 C-9.396106719970703 10.731536865234375 -9.396106719970703 10.558046340942383 -9.396106719970703 10.384554862976074 L-9.396106719970703 10.384554862976074 C-9.082489013671875 10.262300491333008 -8.768871307373047 10.140046119689941 -8.455253601074219 10.017791748046875 L-8.455253601074219 10.017791748046875"></path></svg>