<svg xmlns="http://www.w3.org/2000/svg" viewBox="0.0 0.0 24.0 24.0" height="200px" width="200px"><path fill="none" stroke="black" stroke-width=".3" stroke-opacity="1.0"  filling="0" d="M29.312891006469727 10.751998901367188 L29.312891006469727 10.751998901367188 C31.18769645690918 10.76618766784668 30.41275978088379 13.214760780334473 30.24177360534668 14.703216552734375 L30.24177360534668 14.703216552734375 C29.763050079345703 14.679694175720215 29.236305236816406 14.917119979858398 29.237262725830078 14.328653335571289 L29.237262725830078 14.328653335571289 C27.224714279174805 15.689499855041504 26.877422332763672 11.981877326965332 27.446346282958984 10.754209518432617 L27.446346282958984 10.754209518432617 C27.788536071777344 10.754639625549316 28.223880767822266 10.527027130126953 28.472888946533203 10.761736869812012 L28.472888946533203 10.761736869812012 C28.472888946533203 11.240554809570312 28.472414016723633 11.719372749328613 28.472726821899414 12.198190689086914 C28.473005294799805 12.626118659973145 28.466449737548828 13.054119110107422 28.47441864013672 13.481972694396973 C28.4868106842041 14.147231101989746 29.108091354370117 14.072996139526367 29.18312644958496 13.453771591186523 C29.255001068115234 12.860630989074707 28.87421226501465 11.100906372070312 29.312891006469727 10.751998901367188 L29.312891006469727 10.751998901367188"></path></svg>