<svg xmlns="http://www.w3.org/2000/svg" viewBox="0.0 0.0 24.0 24.0" height="200px" width="200px"><path fill="none" stroke="black" stroke-width=".3" stroke-opacity="1.0"  filling="0" d="M8.56666374206543 10.172101974487305 L8.56666374206543 10.172101974487305 C8.625954627990723 10.283465385437012 8.685245513916016 10.394828796386719 8.744536399841309 10.506192207336426 L8.744536399841309 10.506192207336426 C8.772172927856445 10.435328483581543 8.799809455871582 10.36446475982666 8.827445983886719 10.293601036071777 L8.827445983886719 10.293601036071777 C9.057888984680176 10.440555572509766 8.998335838317871 10.530226707458496 9.08560848236084 10.775373458862305 L9.08560848236084 10.775373458862305 C9.148926734924316 10.662383079528809 9.212244987487793 10.549391746520996 9.27556324005127 10.4364013671875 L9.27556324005127 10.4364013671875 C9.777027130126953 10.78693962097168 9.453169822692871 12.808709144592285 9.353562355041504 13.35450267791748 L9.353562355041504 13.35450267791748 C8.9302339553833 13.054451942443848 9.279661178588867 11.619474411010742 9.24575424194336 11.104284286499023 L9.24575424194336 11.104284286499023 C8.792756080627441 11.457465171813965 9.094569206237793 12.644843101501465 8.908636093139648 13.226563453674316 L8.908636093139648 13.226563453674316 C8.547104835510254 12.967423439025879 9.193679809570312 11.072256088256836 8.807291030883789 10.981855392456055 C8.597694396972656 10.932817459106445 8.616508483886719 12.82076644897461 8.55537223815918 13.073429107666016 L8.55537223815918 13.073429107666016 C8.136143684387207 12.86953067779541 8.476469039916992 10.546586036682129 8.56666374206543 10.172101974487305 L8.56666374206543 10.172101974487305"></path></svg>