<svg xmlns="http://www.w3.org/2000/svg" viewBox="0.0 0.0 24.0 24.0" height="200px" width="200px"><path fill="none" stroke="black" stroke-width=".3" stroke-opacity="1.0"  filling="0" d="M11.112874031066895 11.171645164489746 L11.112874031066895 11.171645164489746 C11.351991653442383 11.795595169067383 11.088276863098145 12.498807907104492 11.137556076049805 13.16811752319336 L11.137556076049805 13.16811752319336 C11.48045539855957 12.883792877197266 11.391755104064941 11.782862663269043 11.417645454406738 11.35647201538086 L11.417645454406738 11.35647201538086 C11.464181900024414 11.347981452941895 11.51071834564209 11.339489936828613 11.557254791259766 11.330999374389648 L11.557254791259766 11.330999374389648 C11.714189529418945 12.070459365844727 11.431554794311523 12.978639602661133 11.370599746704102 13.732091903686523 L11.370599746704102 13.732091903686523 C11.335854530334473 13.74271011352539 11.301109313964844 13.753328323364258 11.266364097595215 13.763946533203125 L11.266364097595215 13.763946533203125 C11.247055053710938 13.72620964050293 11.22774600982666 13.68847370147705 11.208436965942383 13.650736808776855 L11.208436965942383 13.650736808776855 C11.154573440551758 13.693245887756348 11.100709915161133 13.73575496673584 11.046846389770508 13.778264045715332 L11.046846389770508 13.778264045715332 C10.792440414428711 13.239891052246094 10.863694190979004 11.742631912231445 11.112874031066895 11.171645164489746 L11.112874031066895 11.171645164489746"></path></svg>