<svg xmlns="http://www.w3.org/2000/svg" viewBox="0.0 0.0 24.0 24.0" height="200px" width="200px"><path fill="none" stroke="black" stroke-width=".3" stroke-opacity="1.0"  filling="0" d="M13.170818328857422 11.523054122924805 L13.170818328857422 11.523054122924805 C13.246944427490234 12.022075653076172 13.329730033874512 12.486556053161621 13.142945289611816 12.975273132324219 L13.142945289611816 12.975273132324219 C13.0491361618042 12.975273132324219 12.955327033996582 12.975273132324219 12.861517906188965 12.975273132324219 L12.861517906188965 12.975273132324219 C12.869653701782227 13.128591537475586 12.877790451049805 13.281908988952637 12.885926246643066 13.435227394104004 L12.885926246643066 13.435227394104004 C12.944998741149902 13.347272872924805 13.004072189331055 13.259318351745605 13.06314468383789 13.171363830566406 L13.06314468383789 13.171363830566406 C12.984498977661133 13.45451831817627 12.905853271484375 13.73767375946045 12.827207565307617 14.020828247070312 L12.827207565307617 14.020828247070312 C12.5592679977417 13.521076202392578 12.539402961730957 11.86025333404541 13.170818328857422 11.523054122924805 L13.170818328857422 11.523054122924805"></path>
<path fill="none" stroke="black" stroke-width=".3" stroke-opacity="1.0"  filling="0" d="M13.070018768310547 12.107072830200195 L13.070018768310547 12.107072830200195 C13.073136329650879 12.242827415466309 13.076254844665527 12.378581047058105 13.07937240600586 12.514335632324219 L13.07937240600586 12.514335632324219 C12.975651741027832 12.4266939163208 13.007828712463379 12.227784156799316 13.070018768310547 12.107072830200195 L13.070018768310547 12.107072830200195"></path></svg>