<svg xmlns="http://www.w3.org/2000/svg" viewBox="0.0 0.0 24.0 24.0" height="200px" width="200px"><path fill="none" stroke="black" stroke-width=".3" stroke-opacity="1.0"  filling="0" d="M13.328836441040039 10.347845077514648 L13.328836441040039 10.347845077514648 C13.302254676818848 10.40848159790039 13.27567195892334 10.469118118286133 13.249090194702148 10.529754638671875 L13.249090194702148 10.529754638671875 C13.237244606018066 10.503682136535645 13.2253999710083 10.477608680725098 13.213554382324219 10.451536178588867 L13.213554382324219 10.451536178588867 C13.168781280517578 10.509754180908203 13.124009132385254 10.567972183227539 13.079236030578613 10.626190185546875 L13.079236030578613 10.626190185546875 C13.055327415466309 10.64742660522461 13.031417846679688 10.668663024902344 13.007509231567383 10.689899444580078 L13.011408805847168 10.693799018859863 C13.01663589477539 10.640298843383789 13.02186393737793 10.586799621582031 13.027091026306152 10.533299446105957 L13.027091026306152 10.533299446105957 C13.051436424255371 10.529617309570312 13.075782775878906 10.525936126708984 13.100128173828125 10.52225399017334 L13.100128173828125 10.52225399017334 C13.102388381958008 10.426406860351562 13.242669105529785 10.38987922668457 13.328836441040039 10.347845077514648 L13.328836441040039 10.347845077514648"></path></svg>