<svg xmlns="http://www.w3.org/2000/svg" viewBox="0.0 0.0 24.0 24.0" height="200px" width="200px"><path fill="none" stroke="black" stroke-width=".3" stroke-opacity="1.0"  filling="0" d="M24.145038604736328 9.899154663085938 L24.145038604736328 9.899154663085938 C24.309616088867188 10.607549667358398 23.84156608581543 10.965201377868652 24.771846771240234 10.96363639831543 L24.771846771240234 10.96363639831543 C24.771846771240234 11.198445320129395 24.771846771240234 11.43325424194336 24.771846771240234 11.668063163757324 L24.771846771240234 11.668063163757324 C24.571828842163086 11.668063163757324 24.371809005737305 11.668063163757324 24.171791076660156 11.668063163757324 L24.171791076660156 11.668063163757324 C24.133962631225586 12.24038314819336 23.640249252319336 14.382205963134766 24.808908462524414 14.206664085388184 L24.808908462524414 14.206664085388184 C24.808908462524414 14.43950080871582 24.808908462524414 14.67233657836914 24.808908462524414 14.905173301696777 L24.808908462524414 14.905173301696777 C22.711837768554688 14.935998916625977 22.960580825805664 13.537312507629395 23.117727279663086 11.684564590454102 L23.117727279663086 11.684564590454102 C22.954273223876953 11.669437408447266 22.79081916809082 11.654309272766113 22.627365112304688 11.639182090759277 L22.627365112304688 11.639182090759277 C22.58022689819336 11.387714385986328 22.59726333618164 11.189364433288574 22.62676429748535 10.9363374710083 L22.62676429748535 10.9363374710083 C23.0550594329834 10.936205863952637 23.464262008666992 10.170581817626953 24.145038604736328 9.899154663085938 L24.145038604736328 9.899154663085938"></path></svg>