<svg xmlns="http://www.w3.org/2000/svg" viewBox="0.0 0.0 24.0 24.0" height="200px" width="200px"><path fill="none" stroke="black" stroke-width=".3" stroke-opacity="1.0"  filling="0" d="M35.56819152832031 10.943645477294922 L35.56819152832031 10.943645477294922 C36.83734893798828 10.963136672973633 37.4963264465332 11.445427894592285 37.33769989013672 12.76969051361084 C37.25354766845703 13.472210884094238 35.05959701538086 11.952442169189453 35.67588806152344 13.672445297241211 C35.804115295410156 14.030315399169922 36.68492126464844 13.21127986907959 37.328346252441406 13.285717964172363 L37.328346252441406 13.285717964172363 C37.21525192260742 14.217245101928711 36.31460952758789 15.005756378173828 35.328269958496094 14.395444869995117 C34.13026809692383 13.65416431427002 34.643489837646484 11.569239616394043 35.56819152832031 10.943645477294922 L35.56819152832031 10.943645477294922"></path>
<path fill="none" stroke="black" stroke-width=".3" stroke-opacity="1.0"  filling="0" d="M36.124855041503906 11.435017585754395 L36.124855041503906 11.435017585754395 C36.359249114990234 11.707999229431152 36.57374572753906 11.895278930664062 36.399192810058594 12.32048225402832 L36.399192810058594 12.32048225402832 C36.153175354003906 12.320491790771484 35.90715408325195 12.320500373840332 35.661136627197266 12.320509910583496 L35.661136627197266 12.320509910583496 C35.684112548828125 11.988114356994629 35.83830642700195 11.605030059814453 36.124855041503906 11.435017585754395 L36.124855041503906 11.435017585754395"></path></svg>