<svg xmlns="http://www.w3.org/2000/svg" viewBox="0.0 0.0 24.0 24.0" height="200px" width="200px"><path fill="none" stroke="black" stroke-width=".3" stroke-opacity="1.0"  filling="0" d="M13.628617286682129 10.8616361618042 L13.628617286682129 10.8616361618042 C13.9974365234375 10.861814498901367 14.354496955871582 10.861262321472168 14.720126152038574 10.876091003417969 L14.720126152038574 10.876091003417969 C14.6663179397583 11.376099586486816 14.700940132141113 11.881755828857422 14.700517654418945 12.384651184082031 C14.700456619262695 12.457378387451172 15.166038513183594 15.312397003173828 15.406444549560547 13.572545051574707 C15.528510093688965 12.689139366149902 15.37930965423584 11.76497745513916 15.440834045410156 10.87431812286377 L15.440834045410156 10.87431812286377 C15.793889045715332 10.87431812286377 16.146944046020508 10.87431812286377 16.499998092651367 10.87431812286377 L16.499998092651367 10.87431812286377 C16.499998092651367 12.178606033325195 16.582704544067383 13.51716136932373 16.463727951049805 14.815199851989746 L16.463727951049805 14.815199851989746 C16.1306095123291 14.815199851989746 15.797491073608398 14.815199851989746 15.464372634887695 14.815199851989746 L15.464372634887695 14.815199851989746 C15.464372634887695 14.688263893127441 15.464372634887695 14.56132698059082 15.464372634887695 14.434391021728516 L15.464372634887695 14.434391021728516 C13.220425605773926 16.231502532958984 13.628743171691895 11.805267333984375 13.628617286682129 10.8616361618042 L13.628617286682129 10.8616361618042"></path></svg>