<svg xmlns="http://www.w3.org/2000/svg" viewBox="0.0 0.0 24.0 24.0" height="200px" width="200px"><path fill="none" stroke="black" stroke-width=".3" stroke-opacity="1.0"  filling="0" d="M-1.5232629776000977 10.90843677520752 L-1.5232629776000977 10.90843677520752 C-0.1417536735534668 11.12905216217041 -0.5240673422813416 13.35006046295166 -0.607090950012207 14.42541790008545 L-0.607090950012207 14.42541790008545 C-0.9138273000717163 14.416363716125488 -1.220563530921936 14.407308578491211 -1.5272998809814453 14.39825439453125 L-1.5272998809814453 14.39825439453125 C-1.5272998809814453 14.276129722595215 -1.331611156463623 11.69457721710205 -1.688645362854004 11.556354522705078 C-2.454533100128174 11.259846687316895 -2.1808767318725586 14.131619453430176 -2.181136131286621 14.418136596679688 L-2.181136131286621 14.418136596679688 C-2.345701217651367 14.418437004089355 -3.074953317642212 14.54427719116211 -3.108407974243164 14.34237289428711 C-3.241793632507324 13.537368774414062 -2.8778023719787598 12.5784330368042 -3.110645294189453 11.787109375 C-3.194981336593628 11.50049114227295 -3.4528164863586426 11.44492244720459 -3.650700569152832 11.670464515686035 C-3.9372754096984863 11.99709415435791 -3.7323362827301025 12.53668212890625 -3.7369632720947266 12.971181869506836 C-3.7419159412384033 13.436262130737305 -3.751052141189575 13.901320457458496 -3.7514171600341797 14.366427421569824 L-3.7514171600341797 14.366427421569824 C-4.051527976989746 14.417007446289062 -4.357759475708008 14.351685523986816 -4.6501617431640625 14.425772666931152 L-4.6501617431640625 14.425772666931152 C-5.062376976013184 13.742469787597656 -4.6703948974609375 11.766532897949219 -4.67083740234375 10.934999465942383 L-4.67083740234375 10.934999465942383 C-4.278964996337891 10.934700965881348 -3.8173656463623047 10.717188835144043 -3.784963607788086 11.200636863708496 L-3.784963607788086 11.200636863708496 C-3.1043341159820557 10.828754425048828 -2.872126579284668 10.799800872802734 -2.2609100341796875 11.290417671203613 L-2.2609100341796875 11.290417671203613 C-2.0598392486572266 11.10004711151123 -1.7807338237762451 11.010313987731934 -1.5232629776000977 10.90843677520752 L-1.5232629776000977 10.90843677520752"></path></svg>