<svg xmlns="http://www.w3.org/2000/svg" viewBox="0.0 0.0 24.0 24.0" height="200px" width="200px"><path fill="none" stroke="black" stroke-width=".3" stroke-opacity="1.0"  filling="0" d="M23.072673797607422 10.05919075012207 L23.072673797607422 10.05919075012207 C23.11237335205078 10.322393417358398 23.05213737487793 10.786322593688965 23.142871856689453 10.994208335876465 L23.142871856689453 10.994208335876465 C23.30921745300293 10.994208335876465 23.47556495666504 10.994208335876465 23.641910552978516 10.994208335876465 L23.641910552978516 10.994208335876465 C23.641366958618164 11.267678260803223 23.378841400146484 11.614218711853027 23.105371475219727 11.61485481262207 L23.105371475219727 11.61485481262207 C23.074304580688477 12.205018043518066 22.597124099731445 14.003594398498535 23.695581436157227 13.847972869873047 L23.695581436157227 13.847972869873047 C23.694984436035156 14.052308082580566 23.678422927856445 14.253960609436035 23.67068099975586 14.457954406738281 L23.67068099975586 14.457954406738281 C21.3697566986084 14.611262321472168 22.79273223876953 13.118546485900879 22.155738830566406 11.586735725402832 L22.155738830566406 11.586735725402832 C22.005075454711914 11.586735725402832 21.85441017150879 11.586735725402832 21.703746795654297 11.586735725402832 L21.703746795654297 11.586735725402832 C21.703746795654297 11.389744758605957 21.703746795654297 11.192753791809082 21.703746795654297 10.995762825012207 L21.703746795654297 10.995762825012207 C21.86516761779785 10.980164527893066 22.02631378173828 10.960855484008789 22.186609268188477 10.936253547668457 L22.186609268188477 10.936253547668457 C22.186609268188477 10.764426231384277 22.186609268188477 10.592599868774414 22.186609268188477 10.420772552490234 L22.186609268188477 10.420772552490234 C22.481964111328125 10.30024528503418 22.777318954467773 10.179718017578125 23.072673797607422 10.05919075012207 L23.072673797607422 10.05919075012207"></path></svg>