<svg xmlns="http://www.w3.org/2000/svg" viewBox="0.0 0.0 24.0 24.0" height="200px" width="200px"><path fill="none" stroke="black" stroke-width=".3" stroke-opacity="1.0"  filling="0" d="M1.4740352630615234 10.934699058532715 L1.4740352630615234 10.934699058532715 C1.8141560554504395 11.18929386138916 2.1145596504211426 11.576872825622559 2.17849063873291 11.996889114379883 L2.17849063873291 11.996889114379883 C1.8703365325927734 11.996898651123047 1.5621824264526367 11.996908187866211 1.2540283203125 11.996917724609375 L1.2540283203125 11.996917724609375 C1.252791166305542 11.24598503112793 0.42339444160461426 11.406383514404297 0.7275819778442383 11.978208541870117 C1.1160612106323242 12.708488464355469 2.757504940032959 12.592618942260742 2.172844886779785 13.873309135437012 C1.561678171157837 15.212060928344727 -0.17678824067115784 14.464860916137695 -0.30747222900390625 13.267909049987793 L-0.30747222900390625 13.267909049987793 C0.01320040225982666 13.267909049987793 0.3338731527328491 13.267909049987793 0.654545783996582 13.267909049987793 L0.654545783996582 13.267909049987793 C0.6585066318511963 13.840980529785156 1.3494765758514404 14.135396957397461 1.3044281005859375 13.57229995727539 C1.2625436782836914 13.048752784729004 -1.6859065294265747 11.642951965332031 0.27474498748779297 10.991316795349121 C0.6545274257659912 10.865093231201172 1.07427179813385 10.953571319580078 1.4740352630615234 10.934699058532715 L1.4740352630615234 10.934699058532715"></path></svg>