<svg xmlns="http://www.w3.org/2000/svg" viewBox="0.0 0.0 24.0 24.0" height="200px" width="200px"><path fill="none" stroke="black" stroke-width=".3" stroke-opacity="1.0"  filling="0" d="M21.202251434326172 10.667045593261719 L21.202251434326172 10.667045593261719 C21.781837463378906 10.76248550415039 23.2856502532959 12.728288650512695 22.322120666503906 12.928499221801758 C21.764766693115234 13.0443115234375 21.118453979492188 12.750415802001953 20.575611114501953 12.93867301940918 L20.575611114501953 12.93867301940918 C20.757122039794922 14.843570709228516 21.183473587036133 13.335726737976074 22.46887969970703 13.336527824401855 L22.46887969970703 13.336527824401855 C22.454538345336914 14.651423454284668 20.726070404052734 15.388526916503906 19.789499282836914 14.333318710327148 C18.501127243041992 12.88174819946289 19.68385887145996 10.770509719848633 21.202251434326172 10.667045593261719 L21.202251434326172 10.667045593261719"></path>
<path fill="none" stroke="black" stroke-width=".3" stroke-opacity="1.0"  filling="0" d="M21.077835083007812 11.280054092407227 L21.077835083007812 11.280054092407227 C21.322101593017578 11.542163848876953 21.4242000579834 11.93228530883789 21.44593620300293 12.289909362792969 L21.44593620300293 12.289909362792969 C21.171554565429688 12.289909362792969 20.897172927856445 12.289909362792969 20.622791290283203 12.289909362792969 L20.622791290283203 12.289909362792969 C20.48794174194336 11.802620887756348 20.58209991455078 11.36328411102295 21.077835083007812 11.280054092407227 L21.077835083007812 11.280054092407227"></path></svg>