<svg xmlns="http://www.w3.org/2000/svg" viewBox="0.0 0.0 24.0 24.0" height="200px" width="200px"><path fill="none" stroke="black" stroke-width=".3" stroke-opacity="1.0"  filling="0" d="M11.773772239685059 11.40572738647461 L11.773772239685059 11.40572738647461 C11.967055320739746 11.537252426147461 11.873555183410645 11.833992004394531 11.915781021118164 12.039626121520996 L11.915781021118164 12.039626121520996 C11.98351764678955 11.846735000610352 12.051254272460938 11.653844833374023 12.118990898132324 11.460953712463379 L12.118990898132324 11.460953712463379 C12.254145622253418 11.845341682434082 12.016321182250977 13.365671157836914 11.963373184204102 13.905272483825684 L11.963373184204102 13.905272483825684 C11.908446311950684 13.892472267150879 11.85351848602295 13.87967300415039 11.798591613769531 13.866872787475586 L11.798591613769531 13.866872787475586 C11.791028022766113 13.655400276184082 11.783463478088379 13.443927764892578 11.775899887084961 13.232455253601074 L11.775899887084961 13.232455253601074 C11.768627166748047 13.23344612121582 11.761354446411133 13.234436988830566 11.754081726074219 13.235427856445312 L11.754081726074219 13.235427856445312 C11.698254585266113 13.445385932922363 11.658519744873047 13.727042198181152 11.46103572845459 13.817591667175293 L11.46103572845459 13.817591667175293 C11.510255813598633 13.479849815368652 11.626462936401367 11.55838394165039 11.773772239685059 11.40572738647461 L11.773772239685059 11.40572738647461"></path></svg>