<svg xmlns="http://www.w3.org/2000/svg" viewBox="0.0 0.0 24.0 24.0" height="200px" width="200px"><path fill="none" stroke="black" stroke-width=".3" stroke-opacity="1.0"  filling="0" d="M12.292226791381836 11.365609169006348 L12.292226791381836 11.365609169006348 C12.536358833312988 11.388337135314941 12.737837791442871 11.730816841125488 12.705790519714355 11.97390079498291 L12.705790519714355 11.97390079498291 C12.921420097351074 12.821109771728516 12.065237045288086 12.813241958618164 12.247200012207031 11.975972175598145 L12.247200012207031 11.975972175598145 C12.184732437133789 11.781764030456543 12.204108238220215 11.549603462219238 12.292226791381836 11.365609169006348 L12.292226791381836 11.365609169006348"></path>
<path fill="none" stroke="black" stroke-width=".3" stroke-opacity="1.0"  filling="0" d="M12.384900093078613 11.543017387390137 L12.384900093078613 11.543017387390137 C12.444045066833496 11.543017387390137 12.503190994262695 11.543017387390137 12.562335968017578 11.543017387390137 L12.562335968017578 11.543017387390137 C12.562335968017578 11.647608757019043 12.562335968017578 11.752199172973633 12.562335968017578 11.856790542602539 L12.562335968017578 11.856790542602539 C12.520618438720703 11.870999336242676 12.478899955749512 11.885209083557129 12.437182426452637 11.899417877197266 L12.437182426452637 11.899417877197266 C12.419754981994629 11.780617713928223 12.402327537536621 11.66181755065918 12.384900093078613 11.543017387390137 L12.384900093078613 11.543017387390137"></path>
<path fill="none" stroke="black" stroke-width=".3" stroke-opacity="1.0"  filling="0" d="M12.382200241088867 12.059808731079102 L12.382200241088867 12.059808731079102 C12.445764541625977 12.059818267822266 12.50932788848877 12.059826850891113 12.572892189025879 12.059836387634277 L12.572892189025879 12.059836387634277 C12.57340145111084 12.553131103515625 12.38151741027832 12.543719291687012 12.382200241088867 12.059808731079102 L12.382200241088867 12.059808731079102"></path></svg>