<svg xmlns="http://www.w3.org/2000/svg" viewBox="0.0 0.0 24.0 24.0" height="200px" width="200px"><path fill="none" stroke="black" stroke-width=".3" stroke-opacity="1.0"  filling="0" d="M7.233463287353516 11.340410232543945 L7.233463287353516 11.340410232543945 C7.886323928833008 11.581097602844238 8.062760353088379 11.64732837677002 8.160844802856445 12.35484504699707 L8.160844802856445 12.35484504699707 C7.743808746337891 12.35484504699707 7.326772212982178 12.35484504699707 6.909736156463623 12.35484504699707 L6.909736156463623 12.35484504699707 C7.176795482635498 12.653875350952148 7.6916608810424805 12.574334144592285 8.092581748962402 12.572864532470703 L8.092581748962402 12.572864532470703 C7.537053108215332 13.905473709106445 5.4432268142700195 12.307731628417969 7.233463287353516 11.340410232543945 L7.233463287353516 11.340410232543945"></path>
<path fill="none" stroke="black" stroke-width=".3" stroke-opacity="1.0"  filling="0" d="M7.319454669952393 11.674772262573242 L7.319454669952393 11.674772262573242 C7.432091236114502 11.797863006591797 7.544727325439453 11.920953750610352 7.6573638916015625 12.044044494628906 L7.6573638916015625 12.044044494628906 C7.407754898071289 12.044044494628906 7.158145427703857 12.044044494628906 6.908536434173584 12.044044494628906 L6.908536434173584 12.044044494628906 C7.045509338378906 11.920953750610352 7.18248176574707 11.797863006591797 7.319454669952393 11.674772262573242 L7.319454669952393 11.674772262573242"></path></svg>