<svg xmlns="http://www.w3.org/2000/svg" viewBox="0.0 0.0 24.0 24.0" height="200px" width="200px"><path fill="none" stroke="black" stroke-width=".3" stroke-opacity="1.0"  filling="0" d="M13.124402046203613 11.037355422973633 L13.124402046203613 11.037355422973633 C14.131543159484863 11.40783405303955 14.385917663574219 11.922276496887207 14.495891571044922 12.997281074523926 L14.495891571044922 12.997281074523926 C13.792176246643066 13.004932403564453 13.088411331176758 13.008828163146973 12.384654998779297 13.009117126464844 L12.384654998779297 13.009117126464844 C12.550387382507324 13.882993698120117 13.232200622558594 13.89115047454834 13.72928237915039 13.331782341003418 L13.72928237915039 13.331782341003418 C13.965773582458496 13.443063735961914 14.202263832092285 13.554346084594727 14.43875503540039 13.665627479553223 L14.43875503540039 13.665627479553223 C11.908624649047852 16.413288116455078 9.5980224609375 11.304269790649414 13.124402046203613 11.037355422973633 L13.124402046203613 11.037355422973633"></path>
<path fill="none" stroke="black" stroke-width=".3" stroke-opacity="1.0"  filling="0" d="M13.167163848876953 11.828317642211914 L13.167163848876953 11.828317642211914 C13.230400085449219 12.010618209838867 13.2936372756958 12.192917823791504 13.356873512268066 12.375218391418457 L13.356873512268066 12.375218391418457 C13.024691581726074 12.375218391418457 12.692509651184082 12.375218391418457 12.36032772064209 12.375218391418457 L12.36032772064209 12.375218391418457 C12.475793838500977 12.07151985168457 12.84841537475586 11.891281127929688 13.167163848876953 11.828317642211914 L13.167163848876953 11.828317642211914"></path></svg>