<svg xmlns="http://www.w3.org/2000/svg" viewBox="0.0 0.0 24.0 24.0" height="200px" width="200px"><path fill="none" stroke="black" stroke-width=".3" stroke-opacity="1.0"  filling="0" d="M21.745635986328125 17.26385498046875 L21.745635986328125 17.26385498046875 C21.786725997924805 17.307819366455078 21.827817916870117 17.351781845092773 21.868907928466797 17.3957462310791 L21.868907928466797 17.3957462310791 C21.85420799255371 17.492691040039062 21.839509963989258 17.589635848999023 21.824810028076172 17.686580657958984 L21.824810028076172 17.686580657958984 C21.78334617614746 17.69753646850586 21.741884231567383 17.7084903717041 21.700420379638672 17.719446182250977 L21.700420379638672 17.719446182250977 C21.686138153076172 17.766437530517578 21.671855926513672 17.81342887878418 21.657573699951172 17.86042022705078 L21.657573699951172 17.86042022705078 C21.60930061340332 17.771419525146484 21.5610294342041 17.682418823242188 21.51275634765625 17.59341812133789 L21.51275634765625 17.59341812133789 C21.59648323059082 17.576391220092773 21.680212020874023 17.559364318847656 21.763938903808594 17.54233741760254 L21.763938903808594 17.54233741760254 C21.71649169921875 17.482973098754883 21.66904640197754 17.42361068725586 21.621599197387695 17.364246368408203 L21.621599197387695 17.364246368408203 C21.662944793701172 17.330781936645508 21.70429039001465 17.297319412231445 21.745635986328125 17.26385498046875 L21.745635986328125 17.26385498046875"></path></svg>