<svg xmlns="http://www.w3.org/2000/svg" viewBox="0.0 0.0 24.0 24.0" height="200px" width="200px"><path fill="none" stroke="black" stroke-width=".3" stroke-opacity="1.0"  filling="0" d="M12.800154685974121 11.602693557739258 L12.800154685974121 11.602693557739258 C12.98706340789795 11.826760292053223 12.981175422668457 12.167237281799316 12.981709480285645 12.459026336669922 L12.981709480285645 12.459026336669922 C12.907981872558594 12.459026336669922 12.83425521850586 12.459026336669922 12.760527610778809 12.459026336669922 L12.760527610778809 12.459026336669922 C12.760482788085938 12.216852188110352 12.799869537353516 11.97922134399414 12.70189094543457 11.752690315246582 L12.70189094543457 11.752690315246582 C12.582071304321289 12.011425018310547 12.669264793395996 12.239142417907715 12.561655044555664 12.481200218200684 L12.561655044555664 12.481200218200684 C12.496191024780273 12.472591400146484 12.4307279586792 12.463981628417969 12.365263938903809 12.45537281036377 L12.365263938903809 12.45537281036377 C12.347090721130371 12.225045204162598 12.32891845703125 11.994718551635742 12.310745239257812 11.76439094543457 L12.310745239257812 11.76439094543457 C12.134870529174805 11.991657257080078 12.202674865722656 12.17083740234375 12.185999870300293 12.45730972290039 L12.185999870300293 12.45730972290039 C12.118054389953613 12.45730972290039 12.050108909606934 12.45730972290039 11.982163429260254 12.45730972290039 L11.982163429260254 12.45730972290039 C11.982163429260254 12.177628517150879 11.982163429260254 11.89794635772705 11.982163429260254 11.618265151977539 L11.982163429260254 11.618265151977539 C12.261869430541992 11.617202758789062 12.53028678894043 11.666190147399902 12.800154685974121 11.602693557739258 L12.800154685974121 11.602693557739258"></path></svg>