<svg xmlns="http://www.w3.org/2000/svg" viewBox="0.0 0.0 24.0 24.0" height="200px" width="200px"><path fill="none" stroke="black" stroke-width=".3" stroke-opacity="1.0"  filling="0" d="M12.975052833557129 11.351699829101562 L12.975052833557129 11.351699829101562 C12.975052833557129 11.472227096557617 12.975052833557129 11.592753410339355 12.975052833557129 11.71328067779541 L12.975052833557129 11.71328067779541 C12.323500633239746 11.842387199401855 12.437662124633789 12.612936019897461 12.436471939086914 13.11008071899414 L12.436471939086914 13.11008071899414 C12.290608406066895 13.11008071899414 12.144743919372559 13.11008071899414 11.998880386352539 13.11008071899414 L11.998880386352539 13.11008071899414 C12.010735511779785 12.541390419006348 12.022590637207031 11.972699165344238 12.034445762634277 11.404008865356445 L12.034445762634277 11.404008865356445 C12.165483474731445 11.398116111755371 12.296765327453613 11.400041580200195 12.427935600280762 11.399971961975098 L12.427935600280762 11.399971961975098 C12.43407154083252 11.46054458618164 12.440208435058594 11.5211181640625 12.446344375610352 11.581690788269043 L12.446344375610352 11.581690788269043 C12.622580528259277 11.505026817321777 12.798816680908203 11.428363800048828 12.975052833557129 11.351699829101562 L12.975052833557129 11.351699829101562"></path></svg>