<svg xmlns="http://www.w3.org/2000/svg" viewBox="0.0 0.0 24.0 24.0" height="200px" width="200px"><path fill="none" stroke="black" stroke-width=".3" stroke-opacity="1.0"  filling="0" d="M0.3000001907348633 15.163637161254883 L0.3000001907348633 15.163637161254883 C0.3511272966861725 15.210173606872559 0.4022544324398041 15.256709098815918 0.4533815383911133 15.303245544433594 L0.4533815383911133 15.303245544433594 C0.4856090545654297 15.275927543640137 0.5178365707397461 15.248608589172363 0.5500640869140625 15.221290588378906 L0.5500640869140625 15.221290588378906 C0.6714701652526855 15.282535552978516 0.7916781306266785 15.352503776550293 0.8908090591430664 15.445581436157227 L0.8908090591430664 15.445581436157227 C2.285897731781006 15.469734191894531 4.211786270141602 17.677471160888672 4.608053684234619 18.697769165039062 L4.608053684234619 18.697769165039062 C4.599308490753174 18.747005462646484 4.590563774108887 18.79624366760254 4.581818580627441 18.84547996520996 L4.581818580627441 18.84547996520996 C3.154545783996582 18.84547996520996 1.7272733449935913 18.84547996520996 0.3000001907348633 18.84547996520996 L0.3000001907348633 18.84547996520996 C0.3000001907348633 17.61819839477539 0.3000001907348633 16.390918731689453 0.3000001907348633 15.163637161254883 L0.3000001907348633 15.163637161254883"></path></svg>