<svg xmlns="http://www.w3.org/2000/svg" viewBox="0.0 0.0 24.0 24.0" height="200px" width="200px"><path fill="none" stroke="black" stroke-width=".3" stroke-opacity="1.0"  filling="0" d="M22.112207412719727 17.669586181640625 L22.112207412719727 17.669586181640625 C22.112207412719727 17.72566795349121 22.112207412719727 17.78175163269043 22.112207412719727 17.837833404541016 L22.112207412719727 17.837833404541016 C22.139253616333008 17.8220157623291 22.166297912597656 17.806196212768555 22.193344116210938 17.79037857055664 L22.193344116210938 17.79037857055664 C22.213762283325195 17.88373374938965 22.23417854309082 17.977087020874023 22.254596710205078 18.07044219970703 L22.254596710205078 18.07044219970703 C22.23358726501465 18.075796127319336 22.21257972717285 18.081151962280273 22.191570281982422 18.086505889892578 L22.191570281982422 18.086505889892578 C22.21247100830078 18.103960037231445 22.23337173461914 18.121414184570312 22.2542724609375 18.13886833190918 L22.2542724609375 18.13886833190918 C22.386327743530273 18.194686889648438 22.505847930908203 18.283069610595703 22.607725143432617 18.383941650390625 L22.611679077148438 18.379907608032227 C22.44620132446289 18.3282413482666 22.28316879272461 18.268404006958008 22.12262725830078 18.202991485595703 L22.12262725830078 18.202991485595703 C22.125499725341797 18.23592758178711 22.128372192382812 18.268863677978516 22.131244659423828 18.301799774169922 L22.131244659423828 18.301799774169922 C21.814241409301758 18.368478775024414 21.76959800720215 18.19490623474121 21.994361877441406 18.222789764404297 L21.994361877441406 18.222789764404297 C21.991098403930664 18.156888961791992 21.98783302307129 18.09099006652832 21.984569549560547 18.025089263916016 L21.980262756347656 18.029069900512695 C22.164459228515625 18.0247802734375 22.063161849975586 17.862775802612305 21.95165252685547 17.807861328125 L21.95165252685547 17.807861328125 C22.005170822143555 17.761770248413086 22.05868911743164 17.71567726135254 22.112207412719727 17.669586181640625 L22.112207412719727 17.669586181640625"></path></svg>