<svg xmlns="http://www.w3.org/2000/svg" viewBox="0.0 0.0 24.0 24.0" height="200px" width="200px"><path fill="none" stroke="black" stroke-width=".3" stroke-opacity="1.0"  filling="0" d="M11.299717903137207 11.763545036315918 L11.299717903137207 11.763545036315918 C11.365936279296875 11.763545036315918 11.432154655456543 11.763545036315918 11.498373031616211 11.763545036315918 L11.498373031616211 11.763545036315918 C11.452712059020996 11.813454627990723 11.412654876708984 11.868697166442871 11.376981735229492 11.926172256469727 L11.376981735229492 11.926172256469727 C11.414344787597656 11.943399429321289 11.451708793640137 11.960626602172852 11.4890718460083 11.977853775024414 L11.4890718460083 11.977853775024414 C11.484454154968262 11.990798950195312 11.479835510253906 12.003745079040527 11.475217819213867 12.016690254211426 L11.475217819213867 12.016690254211426 C11.443090438842773 12.023490905761719 11.410964012145996 12.030290603637695 11.378836631774902 12.037091255187988 L11.378836631774902 12.037091255187988 C11.374431610107422 12.101993560791016 11.362662315368652 12.169988632202148 11.329363822937012 12.225872039794922 L11.329363822937012 12.225872039794922 C11.31948184967041 12.22175407409668 11.309599876403809 12.217635154724121 11.299717903137207 12.213517189025879 L11.299717903137207 12.213517189025879 C11.299717903137207 12.063526153564453 11.299717903137207 11.913536071777344 11.299717903137207 11.763545036315918 L11.299717903137207 11.763545036315918"></path></svg>