<svg xmlns="http://www.w3.org/2000/svg" viewBox="0.0 0.0 24.0 24.0" height="200px" width="200px"><path fill="none" stroke="black" stroke-width=".3" stroke-opacity="1.0"  filling="0" d="M21.9818172454834 8.97272777557373 L21.9818172454834 8.97272777557373 C21.9818172454834 9.000000953674316 21.9818172454834 9.027273178100586 21.9818172454834 9.054546356201172 L21.9818172454834 9.054546356201172 C21.93341827392578 9.085564613342285 21.885019302368164 9.116582870483398 21.836620330810547 9.147601127624512 L21.836620330810547 9.147601127624512 C21.83740997314453 9.160573959350586 21.83820152282715 9.17354679107666 21.838991165161133 9.186519622802734 L21.838991165161133 9.186519622802734 C21.886600494384766 9.206165313720703 21.934207916259766 9.225810050964355 21.9818172454834 9.245455741882324 L21.9818172454834 9.245455741882324 C21.9818172454834 9.26363754272461 21.9818172454834 9.281818389892578 21.9818172454834 9.300000190734863 L21.9818172454834 9.300000190734863 C21.943626403808594 9.309854507446289 21.905437469482422 9.319708824157715 21.867246627807617 9.32956314086914 L21.867246627807617 9.32956314086914 C21.812177658081055 9.217430114746094 21.884376525878906 9.050905227661133 21.9818172454834 8.97272777557373 L21.9818172454834 8.97272777557373"></path></svg>