<svg xmlns="http://www.w3.org/2000/svg" viewBox="0.0 0.0 24.0 24.0" height="200px" width="200px"><path fill="none" stroke="black" stroke-width=".3" stroke-opacity="1.0"  filling="0" d="M12.007445335388184 11.760926246643066 L12.007445335388184 11.760926246643066 C12.065699577331543 11.760926246643066 12.123953819274902 11.760926246643066 12.182208061218262 11.760926246643066 L12.182208061218262 11.760926246643066 C12.142462730407715 11.811217308044434 12.102716445922852 11.8615083694458 12.062971115112305 11.911799430847168 L12.062971115112305 11.911799430847168 C12.109162330627441 11.936490058898926 12.155352592468262 11.961181640625 12.201543807983398 11.985872268676758 L12.201543807983398 11.985872268676758 C12.036194801330566 12.068779945373535 12.048083305358887 12.104354858398438 12.192599296569824 12.188372611999512 L12.192599296569824 12.188372611999512 C12.189399719238281 12.195908546447754 12.186199188232422 12.203445434570312 12.182999610900879 12.210981369018555 L12.182999610900879 12.210981369018555 C12.124481201171875 12.210981369018555 12.065963745117188 12.210981369018555 12.007445335388184 12.210981369018555 L12.007445335388184 12.210981369018555 C12.007445335388184 12.060962677001953 12.007445335388184 11.910944938659668 12.007445335388184 11.760926246643066 L12.007445335388184 11.760926246643066"></path></svg>