<svg xmlns="http://www.w3.org/2000/svg" viewBox="0.0 0.0 24.0 24.0" height="200px" width="200px"><path fill="none" stroke="black" stroke-width=".3" stroke-opacity="1.0"  filling="0" d="M12.352473258972168 11.754764556884766 L12.352473258972168 11.754764556884766 C12.38771915435791 11.75716495513916 12.422964096069336 11.759564399719238 12.458209991455078 11.761964797973633 L12.458209991455078 11.761964797973633 C12.462656021118164 11.77123737335205 12.467101097106934 11.780509948730469 12.47154712677002 11.789782524108887 L12.47154712677002 11.789782524108887 C12.43409252166748 11.815909385681152 12.396637916564941 11.842037200927734 12.359183311462402 11.8681640625 L12.359183311462402 11.8681640625 C12.355273246765137 11.886549949645996 12.356884002685547 11.90576457977295 12.357819557189941 11.924537658691406 L12.357819557189941 11.924537658691406 C12.39555549621582 11.941792488098145 12.433292388916016 11.959046363830566 12.471028327941895 11.976301193237305 L12.471028327941895 11.976301193237305 C12.471846580505371 11.986983299255371 12.472664833068848 11.997664451599121 12.473483085632324 12.008346557617188 L12.473483085632324 12.008346557617188 C12.407382011413574 12.08143424987793 12.341715812683105 12.15494441986084 12.273929595947266 12.226472854614258 L12.273929595947266 12.226472854614258 C12.26250171661377 12.217681884765625 12.251072883605957 12.208891868591309 12.239645004272461 12.200100898742676 L12.239645004272461 12.200100898742676 C12.2470703125 12.04714584350586 12.245397567749023 11.864242553710938 12.352473258972168 11.754764556884766 L12.352473258972168 11.754764556884766"></path></svg>