<svg xmlns="http://www.w3.org/2000/svg" viewBox="0.0 0.0 24.0 24.0" height="200px" width="200px"><path fill="none" stroke="black" stroke-width=".3" stroke-opacity="1.0"  filling="0" d="M11.05238151550293 11.640626907348633 L11.05238151550293 11.640626907348633 C11.094216346740723 11.719776153564453 11.130217552185059 11.802148818969727 11.161581993103027 11.886000633239746 L11.161581993103027 11.886000633239746 C11.299070358276367 11.99279499053955 11.375577926635742 12.18302059173584 11.387945175170898 12.356673240661621 L11.387945175170898 12.356673240661621 C11.34664535522461 12.234882354736328 11.305344581604004 12.113091468811035 11.264044761657715 11.991300582885742 L11.264044761657715 11.991300582885742 C11.245348930358887 12.11367130279541 11.240100860595703 12.240087509155273 11.257718086242676 12.362617492675781 L11.257718086242676 12.362617492675781 C11.241509437561035 12.367226600646973 11.225299835205078 12.37183666229248 11.209091186523438 12.376445770263672 L11.209091186523438 12.376445770263672 C11.142900466918945 12.136855125427246 11.076708793640137 11.897263526916504 11.010518074035645 11.657672882080078 L11.010518074035645 11.657672882080078 C11.0244722366333 11.65199089050293 11.038427352905273 11.646308898925781 11.05238151550293 11.640626907348633 L11.05238151550293 11.640626907348633"></path></svg>