<svg xmlns="http://www.w3.org/2000/svg" viewBox="0.0 0.0 24.0 24.0" height="200px" width="200px"><path fill="none" stroke="black" stroke-width=".3" stroke-opacity="1.0"  filling="0" d="M13.529454231262207 11.610819816589355 L13.529454231262207 11.610819816589355 C13.584598541259766 12.061125755310059 13.726297378540039 12.581432342529297 13.49361801147461 12.993136405944824 L13.49361801147461 12.993136405944824 C13.470335960388184 12.678935050964355 13.508971214294434 12.322000503540039 13.438445091247559 12.017837524414062 L13.438445091247559 12.017837524414062 C13.427999496459961 12.01848316192627 13.41755485534668 12.01912784576416 13.407109260559082 12.019773483276367 L13.407109260559082 12.019773483276367 C13.396923065185547 12.309074401855469 13.489143371582031 12.76528549194336 13.291936874389648 12.99106502532959 L13.291936874389648 12.99106502532959 C13.19340991973877 12.5425443649292 13.158563613891602 12.062234878540039 13.298481941223145 11.621209144592285 L13.298481941223145 11.621209144592285 C13.339272499084473 11.644100189208984 13.380064010620117 11.666991233825684 13.420854568481445 11.689882278442383 L13.420854568481445 11.689882278442383 C13.457054138183594 11.663528442382812 13.493254661560059 11.637173652648926 13.529454231262207 11.610819816589355 L13.529454231262207 11.610819816589355"></path></svg>