<svg xmlns="http://www.w3.org/2000/svg" viewBox="0.0 0.0 24.0 24.0" height="200px" width="200px"><path fill="none" stroke="black" stroke-width=".3" stroke-opacity="1.0"  filling="0" d="M11.673301696777344 11.756943702697754 L11.673301696777344 11.756943702697754 C11.57850170135498 12.047143936157227 11.4837007522583 12.3373441696167 11.388900756835938 12.627544403076172 L11.388900756835938 12.627544403076172 C11.442428588867188 12.60010814666748 11.495955467224121 12.572670936584473 11.549483299255371 12.545234680175781 L11.549483299255371 12.545234680175781 C11.43155574798584 12.635453224182129 11.313628196716309 12.725671768188477 11.195700645446777 12.815890312194824 L11.195700645446777 12.815890312194824 C11.185091018676758 12.788717269897461 11.174482345581055 12.761544227600098 11.163872718811035 12.734371185302734 L11.163872718811035 12.734371185302734 C10.482406616210938 13.051004409790039 11.137774467468262 11.922859191894531 11.673301696777344 11.756943702697754 L11.673301696777344 11.756943702697754"></path>
<path fill="none" stroke="black" stroke-width=".3" stroke-opacity="1.0"  filling="0" d="M11.30801010131836 11.933290481567383 L11.30801010131836 11.933290481567383 C11.441422462463379 12.216670036315918 11.254199028015137 12.523615837097168 11.015618324279785 12.669899940490723 L11.015618324279785 12.669899940490723 C11.028717994689941 12.662691116333008 11.041818618774414 12.655481338500977 11.05491828918457 12.648272514343262 L11.05491828918457 12.648272514343262 C11.051056861877441 12.371994972229004 11.102361679077148 12.128412246704102 11.30801010131836 11.933290481567383 L11.30801010131836 11.933290481567383"></path></svg>