<svg xmlns="http://www.w3.org/2000/svg" viewBox="0.0 0.0 24.0 24.0" height="200px" width="200px"><path fill="none" stroke="black" stroke-width=".3" stroke-opacity="1.0"  filling="0" d="M18.297407150268555 10.61004638671875 L18.297407150268555 10.61004638671875 C18.28914451599121 10.704473495483398 18.280879974365234 10.798900604248047 18.27261734008789 10.893327713012695 L18.27261734008789 10.893327713012695 C18.31810760498047 10.907672882080078 18.36359977722168 10.922019004821777 18.409090042114258 10.93636417388916 L18.409090042114258 10.93636417388916 C18.409090042114258 11.063636779785156 18.409090042114258 11.190909385681152 18.409090042114258 11.318181991577148 L18.409090042114258 11.318181991577148 C18.38189125061035 11.303818702697754 18.354690551757812 11.289454460144043 18.327491760253906 11.275091171264648 L18.327491760253906 11.275091171264648 C18.327491760253906 11.222718238830566 18.327491760253906 11.1703462600708 18.327491760253906 11.117973327636719 L18.327491760253906 11.117973327636719 C18.28830909729004 11.095463752746582 18.249128341674805 11.072955131530762 18.209945678710938 11.050445556640625 L18.209945678710938 11.050445556640625 C18.239099502563477 10.903645515441895 18.268253326416016 10.75684642791748 18.297407150268555 10.61004638671875 L18.297407150268555 10.61004638671875"></path></svg>