<svg xmlns="http://www.w3.org/2000/svg" viewBox="0.0 0.0 24.0 24.0" height="200px" width="200px"><path fill="none" stroke="black" stroke-width=".3" stroke-opacity="1.0"  filling="0" d="M12.980319023132324 11.713582038879395 L12.980319023132324 11.713582038879395 C13.103874206542969 11.815350532531738 13.103789329528809 12.024658203125 13.081064224243164 12.18310832977295 L13.081064224243164 12.18310832977295 C13.100618362426758 12.182135581970215 13.120173454284668 12.18116283416748 13.139727592468262 12.180190086364746 L13.139727592468262 12.180190086364746 C13.083882331848145 12.21936321258545 13.028036117553711 12.258535385131836 12.972190856933594 12.297708511352539 L12.972190856933594 12.297708511352539 C12.971508979797363 12.135608673095703 12.970827102661133 11.973508834838867 12.970145225524902 11.811408996582031 L12.970145225524902 11.811408996582031 C12.78781795501709 12.022403717041016 12.875337600708008 12.217668533325195 12.6340913772583 12.372408866882324 L12.6340913772583 12.372408866882324 C12.663836479187012 12.198554992675781 12.693582534790039 12.024700164794922 12.72332763671875 11.850846290588379 L12.72332763671875 11.850846290588379 C12.700554847717285 11.839991569519043 12.67778205871582 11.829136848449707 12.655009269714355 11.818282127380371 L12.655009269714355 11.818282127380371 C12.6958646774292 11.729532241821289 12.886027336120605 11.736576080322266 12.980319023132324 11.713582038879395 L12.980319023132324 11.713582038879395"></path></svg>