<svg xmlns="http://www.w3.org/2000/svg" viewBox="0.0 0.0 24.0 24.0" height="200px" width="200px"><path fill="none" stroke="black" stroke-width=".3" stroke-opacity="1.0"  filling="0" d="M12.229336738586426 11.539936065673828 L12.229336738586426 11.539936065673828 C12.34799575805664 11.819735527038574 12.316129684448242 12.142919540405273 12.324409484863281 12.446727752685547 L12.324409484863281 12.446727752685547 C12.287918090820312 12.424945831298828 12.25142765045166 12.40316390991211 12.214936256408691 12.38138198852539 L12.214936256408691 12.38138198852539 C12.200254440307617 12.452717781066895 12.18557357788086 12.524054527282715 12.170891761779785 12.595390319824219 L12.170891761779785 12.595390319824219 C12.208009719848633 12.556008338928223 12.245128631591797 12.516627311706543 12.282246589660645 12.477245330810547 L12.282246589660645 12.477245330810547 C12.264473915100098 12.61648178100586 12.246700286865234 12.755718231201172 12.228927612304688 12.894954681396484 L12.228927612304688 12.894954681396484 C11.850911140441895 12.66757869720459 11.964537620544434 11.823128700256348 12.229336738586426 11.539936065673828 L12.229336738586426 11.539936065673828"></path>
<path fill="none" stroke="black" stroke-width=".3" stroke-opacity="1.0"  filling="0" d="M12.214717864990234 11.83219051361084 L12.214717864990234 11.83219051361084 C12.214717864990234 11.949572563171387 12.214717864990234 12.066953659057617 12.214717864990234 12.184335708618164 L12.214717864990234 12.184335708618164 C12.214717864990234 12.066953659057617 12.214717864990234 11.949572563171387 12.214717864990234 11.83219051361084 L12.214717864990234 11.83219051361084"></path></svg>