<svg xmlns="http://www.w3.org/2000/svg" viewBox="0.0 0.0 24.0 24.0" height="200px" width="200px"><path fill="none" stroke="black" stroke-width=".3" stroke-opacity="1.0"  filling="0" d="M12.558791160583496 11.800089836120605 L12.558791160583496 11.800089836120605 C12.541474342346191 11.973291397094727 12.533743858337402 12.151839256286621 12.569591522216797 12.322172164916992 L12.569591522216797 12.322172164916992 C12.50405502319336 12.345263481140137 12.438518524169922 12.368353843688965 12.372982025146484 12.39144515991211 L12.372982025146484 12.39144515991211 C12.32614517211914 12.417808532714844 12.279309272766113 12.444172859191895 12.23247241973877 12.470536231994629 L12.23247241973877 12.470536231994629 C12.120256423950195 12.155558586120605 12.055931091308594 12.047856330871582 12.32991886138916 11.840373039245605 L12.32991886138916 11.840373039245605 C12.31005573272705 12.014886856079102 12.288235664367676 12.189189910888672 12.26449203491211 12.363218307495117 L12.26449203491211 12.363218307495117 C12.324055671691895 12.190099716186523 12.383618354797363 12.016982078552246 12.443181991577148 11.843863487243652 L12.443181991577148 11.843863487243652 C12.481718063354492 11.829272270202637 12.520255088806152 11.814681053161621 12.558791160583496 11.800089836120605 L12.558791160583496 11.800089836120605"></path></svg>