<svg xmlns="http://www.w3.org/2000/svg" viewBox="0.0 0.0 24.0 24.0" height="200px" width="200px"><path fill="none" stroke="black" stroke-width=".3" stroke-opacity="1.0"  filling="0" d="M11.968881607055664 13.256836891174316 L11.968881607055664 13.256836891174316 C12.100053787231445 13.26391887664795 12.231225967407227 13.271000862121582 12.362398147583008 13.278082847595215 L12.362398147583008 13.278082847595215 C12.381725311279297 13.416473388671875 12.401053428649902 13.554863929748535 12.420380592346191 13.693254470825195 L12.420380592346191 13.693254470825195 C12.032829284667969 13.754362106323242 11.511716842651367 13.586864471435547 11.20666217803955 13.866981506347656 L11.20666217803955 13.866981506347656 C12.02456283569336 14.170750617980957 14.303524017333984 13.34588623046875 14.393070220947266 14.36353588104248 L14.393070220947266 14.36353588104248 C13.18620777130127 14.524210929870605 11.86796760559082 14.404752731323242 10.641654968261719 14.465537071228027 L10.641654968261719 14.465537071228027 C10.624155044555664 14.321027755737305 10.60665512084961 14.176519393920898 10.589155197143555 14.032010078430176 L10.589155197143555 14.032010078430176 C10.744243621826172 14.019996643066406 10.899240493774414 14.005728721618652 11.05355453491211 13.986136436462402 L11.05355453491211 13.986136436462402 C10.887008666992188 13.870226860046387 10.720463752746582 13.754318237304688 10.55391788482666 13.638408660888672 L10.55391788482666 13.638408660888672 C11.00761890411377 13.288089752197266 11.40865707397461 13.28750228881836 11.968881607055664 13.256836891174316 L11.968881607055664 13.256836891174316"></path></svg>