<svg xmlns="http://www.w3.org/2000/svg" viewBox="0.0 0.0 24.0 24.0" height="200px" width="200px"><path fill="none" stroke="black" stroke-width=".3" stroke-opacity="1.0"  filling="0" d="M14.604763984680176 11.571026802062988 L14.604763984680176 11.571026802062988 C14.72060489654541 11.7654390335083 14.699538230895996 11.854362487792969 14.634736061096191 12.066082000732422 L14.634736061096191 12.066082000732422 C14.670126914978027 12.069746017456055 14.70551872253418 12.073409080505371 14.740909576416016 12.077073097229004 L14.740909576416016 12.077073097229004 C14.660109519958496 12.10548210144043 14.57930850982666 12.133892059326172 14.49850845336914 12.162301063537598 L14.49850845336914 12.162301063537598 C14.514836311340332 12.011164665222168 14.531163215637207 11.860028266906738 14.547491073608398 11.708891868591309 L14.547491073608398 11.708891868591309 C14.366789817810059 11.807769775390625 14.425865173339844 12.053446769714355 14.232735633850098 12.211527824401855 L14.232735633850098 12.211527824401855 C14.2559814453125 12.048273086547852 14.279227256774902 11.885018348693848 14.302473068237305 11.721763610839844 L14.302473068237305 11.721763610839844 C14.272427558898926 11.709444999694824 14.242382049560547 11.697127342224121 14.212336540222168 11.684808731079102 L14.212336540222168 11.684808731079102 C14.231849670410156 11.60763168334961 14.368510246276855 11.648923873901367 14.44808292388916 11.646627426147461 L14.44808292388916 11.646627426147461 C14.500309944152832 11.621427536010742 14.552536964416504 11.596226692199707 14.604763984680176 11.571026802062988 L14.604763984680176 11.571026802062988"></path></svg>