<svg xmlns="http://www.w3.org/2000/svg" viewBox="0.0 0.0 24.0 24.0" height="200px" width="200px"><path fill="none" stroke="black" stroke-width=".3" stroke-opacity="1.0"  filling="0" d="M13.750335693359375 11.348944664001465 L13.750335693359375 11.348944664001465 C13.840882301330566 11.622891426086426 13.726408958435059 11.90192699432373 13.659927368164062 12.174653053283691 L13.659927368164062 12.174653053283691 C13.696227073669434 12.187071800231934 13.732527732849121 12.19948959350586 13.768827438354492 12.211908340454102 L13.768827438354492 12.211908340454102 C13.124106407165527 12.46689510345459 13.11652946472168 11.704141616821289 13.598565101623535 11.699836730957031 L13.598565101623535 11.699836730957031 C13.614173889160156 11.604663848876953 13.629781723022461 11.509490966796875 13.645390510559082 11.414318084716797 L13.645390510559082 11.414318084716797 C13.61089038848877 11.42225456237793 13.576390266418457 11.430190086364746 13.541890144348145 11.438126564025879 L13.541890144348145 11.438126564025879 C13.536651611328125 11.362733840942383 13.677281379699707 11.368295669555664 13.750335693359375 11.348944664001465 L13.750335693359375 11.348944664001465"></path>
<path fill="none" stroke="black" stroke-width=".3" stroke-opacity="1.0"  filling="0" d="M13.518818855285645 11.745135307312012 L13.518818855285645 11.745135307312012 C13.509511947631836 11.908631324768066 13.527243614196777 12.100920677185059 13.422627449035645 12.226908683776855 L13.422627449035645 12.226908683776855 C13.410927772521973 12.219200134277344 13.399227142333984 12.211490631103516 13.387527465820312 12.203782081604004 L13.387527465820312 12.203782081604004 C13.4044771194458 12.04566478729248 13.418201446533203 11.868279457092285 13.518818855285645 11.745135307312012 L13.518818855285645 11.745135307312012"></path></svg>