<svg xmlns="http://www.w3.org/2000/svg" viewBox="0.0 0.0 24.0 24.0" height="200px" width="200px"><path fill="none" stroke="black" stroke-width=".3" stroke-opacity="1.0"  filling="0" d="M12.56053638458252 11.535572052001953 L12.56053638458252 11.535572052001953 C12.58675479888916 11.579081535339355 12.612972259521484 11.622590065002441 12.639190673828125 11.666099548339844 L12.639190673828125 11.666099548339844 C12.658990859985352 11.632718086242676 12.678790092468262 11.599335670471191 12.698590278625488 11.565954208374023 L12.698590278625488 11.565954208374023 C13.06852912902832 11.932720184326172 12.94371223449707 13.036958694458008 12.590725898742676 13.46969985961914 L12.590725898742676 13.46969985961914 C12.55223560333252 13.317809104919434 12.513744354248047 13.16591739654541 12.47525405883789 13.014026641845703 L12.47525405883789 13.014026641845703 C12.501426696777344 13.012808799743652 12.527599334716797 13.011590957641602 12.55377197265625 13.01037311553955 L12.55377197265625 13.01037311553955 C12.571927070617676 13.06196403503418 12.590081214904785 13.113554000854492 12.608236312866211 13.165144920349121 L12.608236312866211 13.165144920349121 C12.625300407409668 13.036835670471191 12.642363548278809 12.908526420593262 12.659427642822266 12.780217170715332 L12.659427642822266 12.780217170715332 C12.630027770996094 12.812190055847168 12.600626945495605 12.844162940979004 12.571227073669434 12.87613582611084 L12.571227073669434 12.87613582611084 C12.432064056396484 12.492422103881836 12.257929801940918 11.881301879882812 12.56053638458252 11.535572052001953 L12.56053638458252 11.535572052001953"></path>
<path fill="none" stroke="black" stroke-width=".3" stroke-opacity="1.0"  filling="0" d="M12.616473197937012 11.90241813659668 L12.616473197937012 11.90241813659668 C12.60904598236084 12.078190803527832 12.601618766784668 12.253963470458984 12.594191551208496 12.429736137390137 L12.594191551208496 12.429736137390137 C12.601618766784668 12.253963470458984 12.60904598236084 12.078190803527832 12.616473197937012 11.90241813659668 L12.616473197937012 11.90241813659668"></path></svg>