<svg xmlns="http://www.w3.org/2000/svg" viewBox="0.0 0.0 24.0 24.0" height="200px" width="200px"><path fill="none" stroke="black" stroke-width=".3" stroke-opacity="1.0"  filling="0" d="M9.820554733276367 12.16270923614502 L9.820554733276367 12.16270923614502 C9.805000305175781 12.340872764587402 9.789445877075195 12.519036293029785 9.77389144897461 12.697199821472168 L9.77389144897461 12.697199821472168 C9.799991607666016 12.707127571105957 9.826090812683105 12.71705436706543 9.852190971374512 12.726982116699219 L9.852190971374512 12.726982116699219 C9.797581672668457 12.788631439208984 9.691492080688477 12.779067039489746 9.609381675720215 12.772690773010254 L9.609381675720215 12.772690773010254 C9.32137393951416 13.030342102050781 9.468074798583984 12.350902557373047 9.478227615356445 12.301173210144043 L9.478227615356445 12.301173210144043 C9.440791130065918 12.308127403259277 9.40335464477539 12.315082550048828 9.365918159484863 12.322036743164062 L9.365918159484863 12.322036743164062 C9.334563255310059 12.160682678222656 9.571455001831055 12.29682731628418 9.54842758178711 12.741246223449707 L9.54842758178711 12.741246223449707 C9.623493194580078 12.566904067993164 9.681448936462402 12.384513854980469 9.723873138427734 12.19950008392334 L9.723873138427734 12.19950008392334 C9.75668716430664 12.188905715942383 9.790139198303223 12.178954124450684 9.820554733276367 12.16270923614502 L9.820554733276367 12.16270923614502"></path></svg>