<svg xmlns="http://www.w3.org/2000/svg" viewBox="0.0 0.0 24.0 24.0" height="200px" width="200px"><path fill="none" stroke="black" stroke-width=".3" stroke-opacity="1.0"  filling="0" d="M9.044672966003418 12.326017379760742 L9.044672966003418 12.326017379760742 C9.042645454406738 12.486026763916016 9.040617942810059 12.646036148071289 9.038590431213379 12.806045532226562 L9.038590431213379 12.806045532226562 C9.065117835998535 12.817790985107422 9.091645240783691 12.829536437988281 9.118172645568848 12.84128189086914 L9.118172645568848 12.84128189086914 C8.834150314331055 13.147092819213867 8.928925514221191 12.580436706542969 8.947881698608398 12.442963600158691 L8.947881698608398 12.442963600158691 C8.740253448486328 12.644551277160645 8.850257873535156 12.847790718078613 8.594972610473633 12.996463775634766 L8.594972610473633 12.996463775634766 C8.627554893493652 12.823836326599121 8.660136222839355 12.651208877563477 8.692718505859375 12.478581428527832 L8.692718505859375 12.478581428527832 C8.65719985961914 12.46214485168457 8.621682167053223 12.445709228515625 8.586163520812988 12.429272651672363 L8.586163520812988 12.429272651672363 C8.732314109802246 12.372847557067871 8.88922119140625 12.34546947479248 9.044672966003418 12.326017379760742 L9.044672966003418 12.326017379760742"></path></svg>