<svg xmlns="http://www.w3.org/2000/svg" viewBox="0.0 0.0 24.0 24.0" height="200px" width="200px"><path fill="none" stroke="black" stroke-width=".3" stroke-opacity="1.0"  filling="0" d="M13.868782043457031 11.536718368530273 L13.868782043457031 11.536718368530273 C13.853436470031738 11.715554237365723 13.838091850280762 11.894391059875488 13.822746276855469 12.073226928710938 L13.822746276855469 12.073226928710938 C13.844500541687012 12.082727432250977 13.866255760192871 12.0922269821167 13.888010025024414 12.101727485656738 L13.888010025024414 12.101727485656738 C13.839369773864746 12.166415214538574 13.730025291442871 12.146258354187012 13.649100303649902 12.145035743713379 L13.649100303649902 12.145035743713379 C13.618681907653809 12.170044898986816 13.588264465332031 12.19505500793457 13.557846069335938 12.220064163208008 L13.557846069335938 12.220064163208008 C13.359064102172852 12.100286483764648 13.503923416137695 11.85462760925293 13.497055053710938 11.692146301269531 L13.497055053710938 11.692146301269531 C13.461337089538574 11.692146301269531 13.425618171691895 11.692146301269531 13.389900207519531 11.692146301269531 L13.389900207519531 11.692146301269531 C13.424378395080566 11.610861778259277 13.557236671447754 11.631595611572266 13.644763946533203 11.619982719421387 L13.644763946533203 11.619982719421387 C13.625327110290527 11.777419090270996 13.605891227722168 11.934855461120605 13.586454391479492 12.092291831970215 L13.586454391479492 12.092291831970215 C13.594045639038086 12.096628189086914 13.601635932922363 12.100964546203613 13.609227180480957 12.105300903320312 L13.609227180480957 12.105300903320312 C13.705349922180176 11.95026683807373 13.720687866210938 11.75670337677002 13.751864433288574 11.576972961425781 L13.751864433288574 11.576972961425781 C13.790837287902832 11.563554763793945 13.829809188842773 11.55013656616211 13.868782043457031 11.536718368530273 L13.868782043457031 11.536718368530273"></path></svg>