<svg xmlns="http://www.w3.org/2000/svg" viewBox="0.0 0.0 24.0 24.0" height="200px" width="200px"><path fill="none" stroke="black" stroke-width=".3" stroke-opacity="1.0"  filling="0" d="M14.533554077148438 11.089390754699707 L14.533554077148438 11.089390754699707 C14.654211044311523 11.518108367919922 14.49072551727295 11.894278526306152 14.077991485595703 11.992855072021484 L14.077991485595703 11.992855072021484 C13.99980640411377 12.22896957397461 13.877914428710938 12.481846809387207 13.669145584106445 12.617045402526855 L13.669145584106445 12.617045402526855 C13.788945198059082 12.18340015411377 13.908745765686035 11.749754905700684 14.028545379638672 11.316109657287598 L14.028545379638672 11.316109657287598 C13.993072509765625 11.324928283691406 13.957599639892578 11.333745956420898 13.922126770019531 11.342564582824707 L13.922126770019531 11.342564582824707 C14.022618293762207 11.29406452178955 14.123108863830566 11.245563507080078 14.223600387573242 11.197063446044922 L14.223600387573242 11.197063446044922 C14.31043529510498 11.130562782287598 14.424324989318848 11.095033645629883 14.533554077148438 11.089390754699707 L14.533554077148438 11.089390754699707"></path>
<path fill="none" stroke="black" stroke-width=".3" stroke-opacity="1.0"  filling="0" d="M14.334436416625977 11.240809440612793 L14.334436416625977 11.240809440612793 C14.276945114135742 11.463363647460938 14.219454765319824 11.685918807983398 14.16196346282959 11.908473014831543 L14.16196346282959 11.908473014831543 C14.145163536071777 11.903326988220215 14.128363609313965 11.898181915283203 14.111563682556152 11.893035888671875 L14.111563682556152 11.893035888671875 C14.16859245300293 11.670475006103516 14.153424263000488 11.382303237915039 14.334436416625977 11.240809440612793 L14.334436416625977 11.240809440612793"></path></svg>