<svg xmlns="http://www.w3.org/2000/svg" viewBox="0.0 0.0 24.0 24.0" height="200px" width="200px"><path fill="none" stroke="black" stroke-width=".3" stroke-opacity="1.0"  filling="0" d="M13.964427947998047 11.652570724487305 L13.964427947998047 11.652570724487305 C14.20923137664795 11.702268600463867 14.202460289001465 11.773538589477539 14.138482093811035 12.00059986114502 L14.138482093811035 12.00059986114502 C13.89742374420166 12.005640983581543 13.798251152038574 12.233654022216797 14.09160041809082 12.147708892822266 L14.09160041809082 12.147708892822266 C13.998581886291504 12.186762809753418 13.905564308166504 12.225817680358887 13.812545776367188 12.264871597290039 L13.812545776367188 12.264871597290039 C13.78166675567627 11.977944374084473 13.751809120178223 11.852383613586426 13.964427947998047 11.652570724487305 L13.964427947998047 11.652570724487305"></path>
<path fill="none" stroke="black" stroke-width=".3" stroke-opacity="1.0"  filling="0" d="M14.020364761352539 11.70545482635498 L14.020364761352539 11.70545482635498 C14.030973434448242 11.706854820251465 14.041582107543945 11.70825481414795 14.052190780639648 11.709654808044434 L14.052190780639648 11.709654808044434 C14.040154457092285 11.792509078979492 14.028118133544922 11.875364303588867 14.016081809997559 11.958218574523926 L14.016081809997559 11.958218574523926 C14.017509460449219 11.873964309692383 14.018937110900879 11.789709091186523 14.020364761352539 11.70545482635498 L14.020364761352539 11.70545482635498"></path></svg>