<svg xmlns="http://www.w3.org/2000/svg" viewBox="0.0 0.0 24.0 24.0" height="200px" width="200px"><path fill="none" stroke="black" stroke-width=".3" stroke-opacity="1.0"  filling="0" d="M16.472698211669922 11.518664360046387 L16.472698211669922 11.518664360046387 C16.54271697998047 11.518664360046387 16.612735748291016 11.518664360046387 16.682754516601562 11.518664360046387 L16.682754516601562 11.518664360046387 C16.682754516601562 11.825582504272461 16.682754516601562 12.132499694824219 16.682754516601562 12.439417839050293 L16.682754516601562 12.439417839050293 C16.616127014160156 12.447699546813965 16.54949951171875 12.455982208251953 16.482872009277344 12.464263916015625 L16.482872009277344 12.464263916015625 C16.482872009277344 12.432718276977539 16.482872009277344 12.401172637939453 16.482872009277344 12.369626998901367 L16.482872009277344 12.369626998901367 C16.08009910583496 12.867847442626953 15.28757381439209 11.560728073120117 16.472698211669922 11.849754333496094 L16.472698211669922 11.849754333496094 C16.472698211669922 11.831010818481445 16.472698211669922 11.558557510375977 16.472698211669922 11.518664360046387 L16.472698211669922 11.518664360046387"></path>
<path fill="none" stroke="black" stroke-width=".3" stroke-opacity="1.0"  filling="0" d="M16.276145935058594 11.918208122253418 L16.276145935058594 11.918208122253418 C16.791038513183594 12.349686622619629 15.769390106201172 12.399431228637695 16.276145935058594 11.918208122253418 L16.276145935058594 11.918208122253418"></path></svg>