<svg xmlns="http://www.w3.org/2000/svg" viewBox="0.0 0.0 24.0 24.0" height="200px" width="200px"><path fill="none" stroke="black" stroke-width=".3" stroke-opacity="1.0"  filling="0" d="M10.006854057312012 11.888127326965332 L10.006854057312012 11.888127326965332 C9.96936321258545 12.138909339904785 9.931872367858887 12.389690399169922 9.894381523132324 12.640472412109375 L9.894381523132324 12.640472412109375 C9.937590599060059 12.626081466674805 9.98080062866211 12.611690521240234 10.024009704589844 12.597299575805664 L10.024009704589844 12.597299575805664 C10.030055046081543 12.607063293457031 10.036100387573242 12.616827964782715 10.042145729064941 12.626591682434082 L10.042145729064941 12.626591682434082 C9.918742179870605 12.724790573120117 9.759928703308105 12.824393272399902 9.603545188903809 12.803999900817871 L9.603545188903809 12.803999900817871 C9.035393714904785 13.05639934539795 9.218448638916016 11.843488693237305 9.7779541015625 11.978837013244629 L9.7779541015625 11.978837013244629 C9.854253768920898 11.948600769042969 9.930554389953613 11.918363571166992 10.006854057312012 11.888127326965332 L10.006854057312012 11.888127326965332"></path>
<path fill="none" stroke="black" stroke-width=".3" stroke-opacity="1.0"  filling="0" d="M9.679418563842773 12.029891014099121 L9.679418563842773 12.029891014099121 C9.803104400634766 12.26785945892334 9.733870506286621 12.515177726745605 9.576927185058594 12.727582931518555 L9.576927185058594 12.727582931518555 C9.462681770324707 12.49326229095459 9.550376892089844 12.246329307556152 9.679418563842773 12.029891014099121 L9.679418563842773 12.029891014099121"></path></svg>