<svg xmlns="http://www.w3.org/2000/svg" viewBox="0.0 0.0 24.0 24.0" height="200px" width="200px"><path fill="none" stroke="black" stroke-width=".3" stroke-opacity="1.0"  filling="0" d="M12.707345008850098 11.52681827545166 L12.707345008850098 11.52681827545166 C12.99184799194336 11.71843147277832 12.791831970214844 11.982264518737793 12.710346221923828 12.305917739868164 L12.710346221923828 12.305917739868164 C12.750955581665039 12.284845352172852 12.791563987731934 12.263772010803223 12.832173347473145 12.24269962310791 L12.832173347473145 12.24269962310791 C12.826963424682617 12.481857299804688 12.623390197753906 12.523770332336426 12.443618774414062 12.450926780700684 L12.443618774414062 12.450926780700684 C12.506690979003906 12.201054573059082 12.569764137268066 11.951181411743164 12.63283634185791 11.701309204101562 L12.63283634185791 11.701309204101562 C12.295730590820312 12.017704963684082 12.423470497131348 12.397007942199707 11.994955062866211 12.640718460083008 L11.994955062866211 12.640718460083008 C12.072100639343262 12.374845504760742 12.149245262145996 12.108973503112793 12.226390838623047 11.843100547790527 L12.226390838623047 11.843100547790527 C12.192536354064941 11.844773292541504 12.158681869506836 11.846445083618164 12.12482738494873 11.84811782836914 L12.12482738494873 11.84811782836914 C12.202829360961914 11.735227584838867 12.355064392089844 11.687881469726562 12.488208770751953 11.654699325561523 L12.488208770751953 11.654699325561523 C12.561254501342773 11.612071990966797 12.634299278259277 11.569445610046387 12.707345008850098 11.52681827545166 L12.707345008850098 11.52681827545166"></path></svg>