<svg xmlns="http://www.w3.org/2000/svg" viewBox="0.0 0.0 24.0 24.0" height="200px" width="200px"><path fill="none" stroke="black" stroke-width=".3" stroke-opacity="1.0"  filling="0" d="M8.008445739746094 12.504464149475098 L8.008445739746094 12.504464149475098 C8.006891250610352 12.56093692779541 8.005335807800293 12.617409706115723 8.00378131866455 12.673882484436035 L8.00378131866455 12.673882484436035 C7.786118030548096 12.805326461791992 7.828246116638184 12.948168754577637 7.74542760848999 13.17272663116455 L7.74542760848999 13.17272663116455 C7.709073066711426 13.17272663116455 7.672718048095703 13.17272663116455 7.636363506317139 13.17272663116455 L7.636363506317139 13.17272663116455 C7.670108795166016 13.003654479980469 7.703854560852051 12.834582328796387 7.737599849700928 12.665510177612305 L7.737599849700928 12.665510177612305 C7.698482036590576 12.665510177612305 7.659363746643066 12.665510177612305 7.620245933532715 12.665510177612305 L7.620245933532715 12.665510177612305 C7.691718578338623 12.643200874328613 7.763191223144531 12.620890617370605 7.8346638679504395 12.598581314086914 L7.8346638679504395 12.598581314086914 C7.8925909996032715 12.567209243774414 7.950518608093262 12.535836219787598 8.008445739746094 12.504464149475098 L8.008445739746094 12.504464149475098"></path></svg>