<svg xmlns="http://www.w3.org/2000/svg" viewBox="0.0 0.0 24.0 24.0" height="200px" width="200px"><path fill="none" stroke="black" stroke-width=".3" stroke-opacity="1.0"  filling="0" d="M12.047645568847656 11.786917686462402 L12.047645568847656 11.786917686462402 C11.97036361694336 12.035521507263184 11.896357536315918 12.285176277160645 11.826190948486328 12.535881042480469 L11.826190948486328 12.535881042480469 C11.86795425415039 12.5279541015625 11.90971851348877 12.520026206970215 11.951481819152832 12.512099266052246 L11.951481819152832 12.512099266052246 C11.922483444213867 12.647867202758789 11.711997032165527 12.667479515075684 11.575063705444336 12.690353393554688 L11.575063705444336 12.690353393554688 C11.024628639221191 12.90919303894043 11.29256534576416 12.192580223083496 11.375236511230469 11.956745147705078 L11.375236511230469 11.956745147705078 C11.343327522277832 11.950981140136719 11.311417579650879 11.94521713256836 11.279508590698242 11.939453125 L11.279508590698242 11.939453125 C11.283272743225098 11.914480209350586 11.287035942077637 11.889508247375488 11.290800094604492 11.864535331726074 L11.286846160888672 11.86889934539795 C11.824819564819336 11.693255424499512 11.446236610412598 12.35525894165039 11.442300796508789 12.626508712768555 L11.442300796508789 12.626508712768555 C11.600282669067383 12.378232955932617 11.70931339263916 12.098846435546875 11.796000480651855 11.817626953125 L11.796000480651855 11.817626953125 C11.879881858825684 11.807390213012695 11.963764190673828 11.797154426574707 12.047645568847656 11.786917686462402 L12.047645568847656 11.786917686462402"></path></svg>