<svg xmlns="http://www.w3.org/2000/svg" viewBox="0.0 0.0 24.0 24.0" height="200px" width="200px"><path fill="none" stroke="black" stroke-width=".3" stroke-opacity="1.0"  filling="0" d="M7.140954971313477 12.379799842834473 L7.140954971313477 12.379799842834473 C7.278259754180908 12.650147438049316 7.077060222625732 12.882349967956543 7.184045314788818 13.127699851989746 L7.184045314788818 13.127699851989746 C7.221408843994141 13.100799560546875 7.258772850036621 13.07390022277832 7.296136379241943 13.04699993133545 L7.296136379241943 13.04699993133545 C6.710350036621094 13.650145530700684 7.012905120849609 12.847920417785645 6.972872734069824 12.524835586547852 L6.972872734069824 12.524835586547852 C6.641190528869629 12.790966987609863 6.959461688995361 13.209582328796387 6.523963451385498 13.376700401306152 L6.523963451385498 13.376700401306152 C6.559154510498047 13.08410930633545 6.594345569610596 12.791519165039062 6.6295366287231445 12.49892807006836 L6.6295366287231445 12.49892807006836 C6.5887274742126465 12.526063919067383 6.547918319702148 12.553200721740723 6.50710916519165 12.580336570739746 L6.50710916519165 12.580336570739746 C6.578525066375732 12.47713851928711 6.742559432983398 12.439116477966309 6.865417957305908 12.464727401733398 L6.865417957305908 12.464727401733398 C6.947793960571289 12.415217399597168 7.045568466186523 12.39156723022461 7.140954971313477 12.379799842834473 L7.140954971313477 12.379799842834473"></path></svg>