<svg xmlns="http://www.w3.org/2000/svg" viewBox="0.0 0.0 24.0 24.0" height="200px" width="200px"><path fill="none" stroke="black" stroke-width=".3" stroke-opacity="1.0"  filling="0" d="M11.639509201049805 11.790217399597168 L11.639509201049805 11.790217399597168 C11.695963859558105 11.790644645690918 11.752418518066406 11.791072845458984 11.808873176574707 11.791500091552734 L11.808873176574707 11.791500091552734 C11.808500289916992 12.169051170349121 11.759012222290039 12.32791519165039 11.37531852722168 12.160445213317871 L11.37531852722168 12.160445213317871 C11.468355178833008 12.17236328125 11.56139087677002 12.184282302856445 11.654427528381348 12.196200370788574 L11.654427528381348 12.196200370788574 C11.668854713439941 12.166481971740723 11.683281898498535 12.136763572692871 11.697709083557129 12.10704517364502 L11.697709083557129 12.10704517364502 C11.574228286743164 12.104229927062988 11.440712928771973 12.066893577575684 11.34758186340332 11.985763549804688 L11.34758186340332 11.985763549804688 C11.444890975952148 11.920581817626953 11.542200088500977 11.855399131774902 11.639509201049805 11.790217399597168 L11.639509201049805 11.790217399597168"></path>
<path fill="none" stroke="black" stroke-width=".3" stroke-opacity="1.0"  filling="0" d="M11.567209243774414 11.863091468811035 L11.567209243774414 11.863091468811035 C11.608936309814453 11.900591850280762 11.650664329528809 11.938091278076172 11.692391395568848 11.975591659545898 L11.692391395568848 11.975591659545898 C11.558747291564941 12.085762977600098 11.427797317504883 12.014945030212402 11.567209243774414 11.863091468811035 L11.567209243774414 11.863091468811035"></path></svg>