<svg xmlns="http://www.w3.org/2000/svg" viewBox="0.0 0.0 24.0 24.0" height="200px" width="200px"><path fill="none" stroke="black" stroke-width=".3" stroke-opacity="1.0"  filling="0" d="M15.009490966796875 11.71036434173584 L15.009490966796875 11.71036434173584 C15.205472946166992 11.722311019897461 15.450582504272461 11.792980194091797 15.539072036743164 11.968255043029785 L15.539072036743164 11.968255043029785 C15.429381370544434 11.936446189880371 15.319689750671387 11.90463638305664 15.209999084472656 11.872827529907227 L15.209999084472656 11.872827529907227 C15.194026947021484 11.904891014099121 15.178053855895996 11.936955451965332 15.162081718444824 11.969018936157227 L15.162081718444824 11.969018936157227 C15.865472793579102 12.2238130569458 15.444704055786133 12.812760353088379 14.811272621154785 12.284891128540039 L14.811272621154785 12.284891128540039 C14.906208992004395 12.284891128540039 15.001144409179688 12.284891128540039 15.096080780029297 12.284891128540039 L15.096080780029297 12.284891128540039 C15.151498794555664 12.313899993896484 15.206917762756348 12.342909812927246 15.262335777282715 12.371918678283691 L15.262335777282715 12.371918678283691 C15.154151916503906 12.162090301513672 14.869401931762695 11.900382041931152 15.009490966796875 11.71036434173584 L15.009490966796875 11.71036434173584"></path></svg>