<svg xmlns="http://www.w3.org/2000/svg" viewBox="0.0 0.0 24.0 24.0" height="200px" width="200px"><path fill="none" stroke="black" stroke-width=".3" stroke-opacity="1.0"  filling="0" d="M-1.891225814819336 7.495473384857178 L-1.891225814819336 7.495473384857178 C0.0957258939743042 7.850273609161377 -1.1963194608688354 10.46789264678955 -2.787435531616211 10.47272777557373 L-2.787435531616211 10.47272777557373 C-2.636408567428589 9.986100196838379 -1.9442980289459229 8.834232330322266 -2.430572509765625 8.986392974853516 C-3.739482879638672 9.395965576171875 -2.7972867488861084 11.70242691040039 -2.8650264739990234 12.549793243408203 C-2.9343199729919434 13.416595458984375 -3.4436721801757812 14.915130615234375 -4.2184576988220215 16.196855545043945 C-4.993243217468262 17.47858238220215 -6.0334625244140625 18.543495178222656 -7.16448974609375 18.543054580688477 C-8.093338966369629 18.542692184448242 -7.958512783050537 17.15183448791504 -7.810853958129883 16.60617446899414 C-7.433164119720459 15.210453987121582 -6.879392623901367 13.525532722473145 -5.223491668701172 13.861773490905762 L-5.223491668701172 13.861773490905762 C-5.4848785400390625 14.360713005065918 -6.098830223083496 15.173224449157715 -6.128562927246094 15.784419059753418 C-6.1734700202941895 16.70754051208496 -5.057615756988525 15.011590957641602 -5.020145416259766 14.87432861328125 C-4.751281261444092 13.889422416687012 -5.120278835296631 12.997786521911621 -5.043790817260742 12.009573936462402 C-4.884690761566162 9.95403003692627 -3.5788745880126953 8.439427375793457 -1.891225814819336 7.495473384857178 L-1.891225814819336 7.495473384857178"></path></svg>