<svg xmlns="http://www.w3.org/2000/svg" viewBox="0.0 0.0 24.0 24.0" height="200px" width="200px"><path fill="none" stroke="black" stroke-width=".3" stroke-opacity="1.0"  filling="0" d="M16.895509719848633 8.505573272705078 L16.895509719848633 8.505573272705078 C17.2519588470459 8.534771919250488 17.622465133666992 8.467220306396484 17.96686553955078 8.563636779785156 C18.31073760986328 8.659905433654785 18.040597915649414 9.18008804321289 18.11642837524414 9.434563636779785 L18.11642837524414 9.434563636779785 C19.184417724609375 6.6321001052856445 19.765838623046875 10.710844993591309 19.81145477294922 11.104690551757812 L19.81145477294922 11.104690551757812 C19.374135971069336 11.104690551757812 18.936819076538086 11.104690551757812 18.499500274658203 11.104690551757812 L18.499500274658203 11.104690551757812 C18.36977767944336 9.121813774108887 18.091472625732422 9.56623649597168 18.054738998413086 11.28365421295166 C18.025392532348633 12.655738830566406 18.073890686035156 14.069774627685547 17.9522762298584 15.436363220214844 L17.9522762298584 15.436363220214844 C17.48709487915039 15.491599082946777 17.02191162109375 15.546835899353027 16.556730270385742 15.602071762084961 L16.556730270385742 15.602071762084961 C16.56435203552246 13.259815216064453 16.673877716064453 10.842056274414062 16.895509719848633 8.505573272705078 L16.895509719848633 8.505573272705078"></path></svg>