<svg xmlns="http://www.w3.org/2000/svg" viewBox="0.0 0.0 24.0 24.0" height="200px" width="200px"><path fill="none" stroke="black" stroke-width=".3" stroke-opacity="1.0"  filling="0" d="M17.79370880126953 11.651700019836426 L17.79370880126953 11.651700019836426 C18.15328025817871 11.792818069458008 18.34758758544922 12.582448959350586 17.823081970214844 12.447245597839355 L17.823081970214844 12.447245597839355 C17.65369415283203 12.441158294677734 17.49957847595215 12.183086395263672 17.546863555908203 12.020318031311035 L17.546863555908203 12.020318031311035 C17.183582305908203 11.844144821166992 17.610868453979492 11.715165138244629 17.79370880126953 11.651700019836426 L17.79370880126953 11.651700019836426"></path>
<path fill="none" stroke="black" stroke-width=".3" stroke-opacity="1.0"  filling="0" d="M17.69975471496582 11.810181617736816 L17.69975471496582 11.810181617736816 C17.740936279296875 11.862149238586426 17.694496154785156 11.975924491882324 17.631654739379883 11.997081756591797 L17.631654739379883 11.997081756591797 C17.654354095458984 11.934782028198242 17.67705535888672 11.872481346130371 17.69975471496582 11.810181617736816 L17.69975471496582 11.810181617736816"></path>
<path fill="none" stroke="black" stroke-width=".3" stroke-opacity="1.0"  filling="0" d="M17.820079803466797 12.058691024780273 L17.820079803466797 12.058691024780273 C17.80182647705078 12.147018432617188 17.783571243286133 12.235344886779785 17.765317916870117 12.3236722946167 L17.765317916870117 12.3236722946167 C17.72482681274414 12.275518417358398 17.684335708618164 12.227363586425781 17.643844604492188 12.17920970916748 L17.643844604492188 12.17920970916748 C17.70258903503418 12.139037132263184 17.761335372924805 12.09886360168457 17.820079803466797 12.058691024780273 L17.820079803466797 12.058691024780273"></path></svg>