<svg xmlns="http://www.w3.org/2000/svg" viewBox="0.0 0.0 24.0 24.0" height="200px" width="200px"><path fill="none" stroke="black" stroke-width=".3" stroke-opacity="1.0"  filling="0" d="M5.996426582336426 11.762510299682617 L5.996426582336426 11.762510299682617 C6.193214416503906 11.989795684814453 6.235340595245361 12.3262939453125 6.256199836730957 12.626209259033203 L6.256199836730957 12.626209259033203 C5.707577705383301 12.624963760375977 6.141759872436523 12.26955795288086 5.7847089767456055 11.978754997253418 L5.7847089767456055 11.978754997253418 C5.771708965301514 12.192709922790527 5.758708953857422 12.406664848327637 5.74570894241333 12.620619773864746 L5.74570894241333 12.620619773864746 C5.661072731018066 12.620619773864746 5.5764360427856445 12.620619773864746 5.491799831390381 12.620619773864746 L5.491799831390381 12.620619773864746 C5.491790771484375 12.334609985351562 5.491781234741211 12.048601150512695 5.491772174835205 11.762591361999512 L5.491772174835205 11.762591361999512 C5.582808494567871 11.784846305847168 5.673845291137695 11.807100296020508 5.764881610870361 11.829355239868164 L5.764881610870361 11.829355239868164 C5.8420634269714355 11.807073593139648 5.919244766235352 11.784791946411133 5.996426582336426 11.762510299682617 L5.996426582336426 11.762510299682617"></path></svg>