<svg xmlns="http://www.w3.org/2000/svg" viewBox="0.0 0.0 24.0 24.0" height="200px" width="200px"><path fill="none" stroke="black" stroke-width=".3" stroke-opacity="1.0"  filling="0" d="M13.677545547485352 11.738319396972656 L13.677545547485352 11.738319396972656 C13.763198852539062 11.870848655700684 13.853507995605469 12.01963996887207 13.854409217834473 12.177436828613281 L13.854409217834473 12.177436828613281 C13.686208724975586 12.195709228515625 13.518009185791016 12.213982582092285 13.349808692932129 12.232254981994629 L13.349808692932129 12.232254981994629 C13.377999305725098 12.298973083496094 13.406190872192383 12.365691184997559 13.434381484985352 12.432409286499023 L13.434381484985352 12.432409286499023 C13.446526527404785 12.434100151062012 13.458672523498535 12.435791969299316 13.470817565917969 12.437482833862305 L13.470817565917969 12.437482833862305 C13.508699417114258 12.384437561035156 13.546581268310547 12.331391334533691 13.584463119506836 12.278346061706543 L13.584463119506836 12.278346061706543 C13.67233657836914 12.278346061706543 13.760209083557129 12.278346061706543 13.848082542419434 12.278346061706543 L13.848082542419434 12.278346061706543 C13.072548866271973 12.789590835571289 12.69579029083252 11.834102630615234 13.677545547485352 11.738319396972656 L13.677545547485352 11.738319396972656"></path>
<path fill="none" stroke="black" stroke-width=".3" stroke-opacity="1.0"  filling="0" d="M13.466099739074707 11.874191284179688 L13.466099739074707 11.874191284179688 C13.556909561157227 12.005578994750977 13.556848526000977 12.065064430236816 13.390035629272461 12.092645645141602 L13.390035629272461 12.092645645141602 C13.389281272888184 12.015542984008789 13.410168647766113 11.927267074584961 13.466099739074707 11.874191284179688 L13.466099739074707 11.874191284179688"></path></svg>