<svg xmlns="http://www.w3.org/2000/svg" viewBox="0.0 0.0 24.0 24.0" height="200px" width="200px"><path fill="none" stroke="black" stroke-width=".3" stroke-opacity="1.0"  filling="0" d="M-5.181844711303711 3.9544925689697266 L-5.181844711303711 3.9544925689697266 C-4.863654613494873 3.954510450363159 -4.545464038848877 3.9545280933380127 -4.227273941040039 3.9545459747314453 L-4.227273941040039 3.9545459747314453 C-5.127660751342773 5.379185676574707 -6.031317710876465 6.8019609451293945 -6.936866760253906 8.223593711853027 C-7.842415809631348 9.645227432250977 -8.749856948852539 11.065717697143555 -9.65781307220459 12.485787391662598 C-10.56576919555664 13.90585708618164 -11.474239349365234 15.325506210327148 -12.381845474243164 16.74545669555664 L-12.381845474243164 16.74545669555664 C-12.381845474243164 16.090911865234375 -12.381845474243164 15.436366081237793 -12.381845474243164 14.781820297241211 L-12.381845474243164 14.781820297241211 C-11.458128929138184 13.513668060302734 -10.582466125488281 12.20433235168457 -9.721985816955566 10.884369850158691 C-8.861505508422852 9.564406394958496 -8.01620864868164 8.233817100524902 -7.153224945068359 6.923156261444092 C-6.724423408508301 6.27191162109375 -5.209019660949707 4.774789810180664 -5.181844711303711 3.9544925689697266 L-5.181844711303711 3.9544925689697266"></path></svg>