<svg xmlns="http://www.w3.org/2000/svg" viewBox="0.0 0.0 24.0 24.0" height="200px" width="200px"><path fill="none" stroke="black" stroke-width=".3" stroke-opacity="1.0"  filling="0" d="M35.89090347290039 3.954522132873535 L35.89090347290039 3.954522132873535 C36.07271957397461 3.954522132873535 36.254539489746094 3.954522132873535 36.43635559082031 3.954522132873535 L36.43635559082031 3.954522132873535 C36.43635559082031 5.745431423187256 36.43635559082031 7.536340713500977 36.43635559082031 9.327249526977539 C36.43635559082031 11.118158340454102 36.43635559082031 12.90906810760498 36.43635559082031 14.699976921081543 C36.43635559082031 16.490886688232422 36.43635559082031 18.281795501708984 36.43635559082031 20.072704315185547 L36.43635559082031 20.072704315185547 C36.37272262573242 20.072711944580078 36.309085845947266 20.07271957397461 36.245452880859375 20.07272720336914 L36.245452880859375 20.07272720336914 C36.28553009033203 18.29311180114746 36.28089904785156 16.502302169799805 36.249778747558594 14.707725524902344 C36.218658447265625 12.913148880004883 36.16104507446289 11.114808082580566 36.095157623291016 9.320131301879883 C36.029273986816406 7.525453567504883 35.955116271972656 5.734440803527832 35.89090347290039 3.954522132873535 L35.89090347290039 3.954522132873535"></path></svg>