<svg xmlns="http://www.w3.org/2000/svg" viewBox="0.0 0.0 24.0 24.0" height="200px" width="200px"><path fill="none" stroke="black" stroke-width=".3" stroke-opacity="1.0"  filling="0" d="M6.667227268218994 4.294526100158691 L6.667227268218994 4.294526100158691 C8.17274284362793 5.109165668487549 7.2693915367126465 8.627817153930664 7.190099716186523 10.148399353027344 L7.190099716186523 10.148399353027344 C7.1990180015563965 10.148754119873047 7.2079362869262695 10.149107933044434 7.216854572296143 10.149462699890137 L7.216854572296143 10.149462699890137 C7.516132831573486 7.509909629821777 8.218908309936523 9.528788566589355 8.235735893249512 10.989326477050781 C8.261378288269043 13.214972496032715 8.232484817504883 15.57999324798584 7.9774909019470215 17.790136337280273 L7.9774909019470215 17.790136337280273 C7.736581802368164 17.62529945373535 7.495672702789307 17.46046257019043 7.254763603210449 17.295625686645508 L7.254763603210449 17.295625686645508 C7.256486892700195 15.863734245300293 7.316375255584717 14.432153701782227 7.363935947418213 13.00098991394043 C7.379426956176758 12.534845352172852 7.600433826446533 11.586660385131836 7.3103179931640625 11.162972450256348 L7.3103179931640625 11.162972450256348 C6.2950310707092285 12.414748191833496 7.392375946044922 15.480674743652344 6.916200160980225 17.03732681274414 L6.916200160980225 17.03732681274414 C5.834564208984375 16.138229370117188 6.255558967590332 14.935361862182617 6.300545692443848 13.609635353088379 C6.350712776184082 12.131256103515625 6.28231143951416 10.52195930480957 6.2814040184021 8.922517776489258 C6.280496597290039 7.323075294494629 6.34708309173584 5.733487606048584 6.667227268218994 4.294526100158691 L6.667227268218994 4.294526100158691"></path></svg>