<svg xmlns="http://www.w3.org/2000/svg" viewBox="0.0 0.0 24.0 24.0" height="200px" width="200px"><path fill="none" stroke="black" stroke-width=".3" stroke-opacity="1.0"  filling="0" d="M9.327108383178711 11.726863861083984 L9.327108383178711 11.726863861083984 C9.396149635314941 11.727396965026855 9.45930004119873 11.789243698120117 9.494781494140625 11.848472595214844 L9.494781494140625 11.848472595214844 C9.859906196594238 11.719210624694824 9.955489158630371 11.740595817565918 9.975054740905762 12.124691009521484 L9.975054740905762 12.124691009521484 C9.894054412841797 12.124691009521484 9.813055038452148 12.124691009521484 9.732054710388184 12.124691009521484 L9.732054710388184 12.124691009521484 C9.698599815368652 12.067863464355469 9.665145874023438 12.011035919189453 9.631690979003906 11.954208374023438 L9.631690979003906 11.954208374023438 C9.501852989196777 12.13262939453125 9.518705368041992 12.385828971862793 9.518754005432129 12.606491088867188 L9.518754005432129 12.606491088867188 C9.419672012329102 12.606491088867188 9.32059097290039 12.606491088867188 9.221508979797363 12.606491088867188 L9.221508979797363 12.606491088867188 C9.23847484588623 12.307772636413574 9.111490249633789 11.949196815490723 9.327108383178711 11.726863861083984 L9.327108383178711 11.726863861083984"></path></svg>