<svg xmlns="http://www.w3.org/2000/svg" viewBox="0.0 0.0 24.0 24.0" height="200px" width="200px"><path fill="none" stroke="black" stroke-width=".3" stroke-opacity="1.0"  filling="0" d="M7.300172328948975 11.372481346130371 L7.300172328948975 11.372481346130371 C7.3531999588012695 11.372581481933594 7.406227111816406 11.372681617736816 7.459254741668701 11.372781753540039 L7.459254741668701 11.372781753540039 C7.462891101837158 11.445564270019531 7.466526985168457 11.518345832824707 7.470163345336914 11.5911283493042 L7.470163345336914 11.5911283493042 C7.395092010498047 11.592716217041016 7.314497947692871 11.612970352172852 7.255499839782715 11.659419059753418 L7.255499839782715 11.659419059753418 C7.306824684143066 11.704324722290039 7.376269817352295 11.736189842224121 7.4444451332092285 11.737881660461426 L7.4444451332092285 11.737881660461426 C7.448063373565674 11.814854621887207 7.451681613922119 11.891827583312988 7.4552998542785645 11.96880054473877 L7.4552998542785645 11.96880054473877 C7.399936199188232 11.962655067443848 7.3445725440979 11.956509590148926 7.289208889007568 11.950364112854004 L7.289208889007568 11.950364112854004 C7.282817840576172 12.170954704284668 7.276427268981934 12.391546249389648 7.270036220550537 12.612136840820312 L7.270036220550537 12.612136840820312 C7.019015312194824 12.82865047454834 6.989348411560059 11.67977523803711 7.300172328948975 11.372481346130371 L7.300172328948975 11.372481346130371"></path></svg>