<svg xmlns="http://www.w3.org/2000/svg" viewBox="0.0 0.0 24.0 24.0" height="200px" width="200px"><path fill="none" stroke="black" stroke-width=".3" stroke-opacity="1.0"  filling="0" d="M12.361063957214355 9.883279800415039 L12.361063957214355 9.883279800415039 C13.710726737976074 10.18053150177002 13.737905502319336 14.027597427368164 13.546854019165039 15.043146133422852 L13.546854019165039 15.043146133422852 C13.136526107788086 15.10890007019043 12.72619915008545 15.174654960632324 12.315871238708496 15.240408897399902 L12.315871238708496 15.240408897399902 C12.244707107543945 15.661664009094238 12.101774215698242 17.142221450805664 12.490008354187012 17.6973819732666 L12.490008354187012 17.6973819732666 C12.680826187133789 17.112934112548828 12.532535552978516 16.668603897094727 12.667417526245117 16.027908325195312 L12.667417526245117 16.027908325195312 C14.04678726196289 16.584768295288086 13.631710052490234 17.25786781311035 13.2388916015625 18.845535278320312 C13.152059555053711 19.196487426757812 12.828388214111328 19.920318603515625 12.330108642578125 19.61762809753418 C11.629851341247559 19.192241668701172 11.57083797454834 17.97620391845703 11.48247241973877 17.264619827270508 C11.374967575073242 16.39891242980957 11.179823875427246 14.862980842590332 11.218952178955078 13.388774871826172 C11.258079528808594 11.914567947387695 11.531479835510254 10.502086639404297 12.361063957214355 9.883279800415039 L12.361063957214355 9.883279800415039"></path>
<path fill="none" stroke="black" stroke-width=".3" stroke-opacity="1.0"  filling="0" d="M12.518263816833496 11.875826835632324 L12.518263816833496 11.875826835632324 C12.659467697143555 12.516204833984375 12.622588157653809 13.183801651000977 12.640227317810059 13.839325904846191 L12.640227317810059 13.839325904846191 C12.52681827545166 13.875799179077148 12.413408279418945 13.912271499633789 12.299999237060547 13.948744773864746 L12.299999237060547 13.948744773864746 C12.299077987670898 13.263139724731445 12.115748405456543 12.464112281799316 12.518263816833496 11.875826835632324 L12.518263816833496 11.875826835632324"></path></svg>