<svg xmlns="http://www.w3.org/2000/svg" viewBox="0.0 0.0 24.0 24.0" height="200px" width="200px"><path fill="none" stroke="black" stroke-width=".3" stroke-opacity="1.0"  filling="0" d="M14.38884449005127 11.728500366210938 L14.38884449005127 11.728500366210938 C14.65194320678711 11.874075889587402 14.712991714477539 12.264236450195312 14.727517127990723 12.564573287963867 L14.727517127990723 12.564573287963867 C14.627299308776855 12.564573287963867 14.527081489562988 12.564573287963867 14.426863670349121 12.564573287963867 L14.426863670349121 12.564573287963867 C14.427326202392578 12.34671401977539 14.421028137207031 12.114150047302246 14.323853492736816 11.919163703918457 L14.323853492736816 11.919163703918457 C14.21119499206543 12.1041898727417 14.235893249511719 12.346502304077148 14.236391067504883 12.563127517700195 L14.236391067504883 12.563127517700195 C14.147054672241211 12.563127517700195 14.057717323303223 12.563127517700195 13.96838092803955 12.563127517700195 L13.96838092803955 12.563127517700195 C13.913164138793945 12.291437149047852 13.940217018127441 12.016149520874023 13.92692756652832 11.740255355834961 L13.92692756652832 11.740255355834961 C14.018645286560059 11.740255355834961 14.110363960266113 11.740255355834961 14.202081680297852 11.740255355834961 L14.202081680297852 11.740255355834961 C14.207281112670898 11.771446228027344 14.212481498718262 11.802637100219727 14.217680931091309 11.83382797241211 L14.217680931091309 11.83382797241211 C14.282621383666992 11.817378044128418 14.33497142791748 11.768320083618164 14.38884449005127 11.728500366210938 L14.38884449005127 11.728500366210938"></path></svg>