<svg xmlns="http://www.w3.org/2000/svg" viewBox="0.0 0.0 24.0 24.0" height="200px" width="200px"><path fill="none" stroke="black" stroke-width=".3" stroke-opacity="1.0"  filling="0" d="M11.563936233520508 11.384645462036133 L11.563936233520508 11.384645462036133 C11.663854598999023 11.392754554748535 11.763772010803223 11.400864601135254 11.863690376281738 11.408973693847656 L11.863690376281738 11.408973693847656 C11.863690376281738 11.605646133422852 11.863690376281738 11.802318572998047 11.863690376281738 11.998991012573242 L11.863690376281738 11.998991012573242 C11.992441177368164 11.86768913269043 12.17367935180664 11.776450157165527 12.3555269241333 11.749091148376465 L12.3555269241333 11.749091148376465 C12.260235786437988 11.891436576843262 12.164945602416992 12.033782005310059 12.06965446472168 12.176127433776855 L12.06965446472168 12.176127433776855 C12.187872886657715 12.319445610046387 12.306090354919434 12.462763786315918 12.424308776855469 12.60608196258545 L12.424308776855469 12.60608196258545 C12.245453834533691 12.539381980895996 12.06659984588623 12.47268295288086 11.887744903564453 12.405982971191406 L11.887744903564453 12.405982971191406 C11.880572319030762 12.412055015563965 11.87339973449707 12.41812801361084 11.866227149963379 12.424200057983398 L11.866227149963379 12.424200057983398 C11.866227149963379 12.486681938171387 11.866227149963379 12.549163818359375 11.866227149963379 12.611645698547363 L11.866227149963379 12.611645698547363 C11.260804176330566 12.712746620178223 11.563947677612305 11.846802711486816 11.563936233520508 11.384645462036133 L11.563936233520508 11.384645462036133"></path></svg>