<svg xmlns="http://www.w3.org/2000/svg" viewBox="0.0 0.0 24.0 24.0" height="200px" width="200px"><path fill="none" stroke="black" stroke-width=".3" stroke-opacity="1.0"  filling="0" d="M11.28155517578125 11.89985466003418 L11.28155517578125 11.89985466003418 C11.582176208496094 11.900997161865234 11.592552185058594 11.951430320739746 11.590800285339355 12.245454788208008 L11.590800285339355 12.245454788208008 C11.44494342803955 12.245410919189453 11.275843620300293 12.194859504699707 11.185608863830566 12.080265045166016 L11.185608863830566 12.080265045166016 C11.282508850097656 12.055418968200684 11.379408836364746 12.030573844909668 11.476308822631836 12.005727767944336 L11.476308822631836 12.005727767944336 C11.39033317565918 11.980013847351074 11.29167652130127 11.98141098022461 11.207155227661133 12.011564254760742 L11.207155227661133 12.011564254760742 C11.20018196105957 12.000246047973633 11.193209648132324 11.988927841186523 11.186236381530762 11.977609634399414 L11.186236381530762 11.977609634399414 C11.218008995056152 11.951691627502441 11.24978256225586 11.925772666931152 11.28155517578125 11.89985466003418 L11.28155517578125 11.89985466003418"></path>
<path fill="none" stroke="black" stroke-width=".3" stroke-opacity="1.0"  filling="0" d="M11.476282119750977 12.072382926940918 L11.476282119750977 12.072382926940918 C11.408082008361816 12.087491989135742 11.339881896972656 12.10260009765625 11.271681785583496 12.117709159851074 L11.271681785583496 12.117709159851074 C11.339881896972656 12.10260009765625 11.408082008361816 12.087491989135742 11.476282119750977 12.072382926940918 L11.476282119750977 12.072382926940918"></path></svg>