<svg xmlns="http://www.w3.org/2000/svg" viewBox="0.0 0.0 24.0 24.0" height="200px" width="200px"><path fill="none" stroke="black" stroke-width=".3" stroke-opacity="1.0"  filling="0" d="M7.450690746307373 11.472845077514648 L7.450690746307373 11.472845077514648 C7.450745105743408 11.644108772277832 7.450799942016602 11.815372467041016 7.450854301452637 11.9866361618042 L7.450854301452637 11.9866361618042 C7.538671970367432 12.410650253295898 7.446949005126953 13.012449264526367 6.8454813957214355 12.62727165222168 L6.8454813957214355 12.62727165222168 C6.8454813957214355 12.545453071594238 6.8454813957214355 12.463635444641113 6.8454813957214355 12.381816864013672 L6.8454813957214355 12.381816864013672 C6.9011359214782715 12.381816864013672 6.956790447235107 12.381816864013672 7.012444972991943 12.381816864013672 L7.012444972991943 12.381816864013672 C7.265618324279785 12.683493614196777 7.4204230308532715 12.20856761932373 7.045281410217285 12.155672073364258 L7.045281410217285 12.155672073364258 C7.054626941680908 12.080580711364746 7.063971996307373 12.00549030303955 7.073317527770996 11.930398941040039 L7.073317527770996 11.930398941040039 C7.498695373535156 11.801695823669434 7.145236015319824 11.359596252441406 7.022126197814941 11.754545211791992 L7.022126197814941 11.754545211791992 C6.963253498077393 11.754545211791992 6.904381275177002 11.754545211791992 6.845508575439453 11.754545211791992 L6.845508575439453 11.754545211791992 C6.845490455627441 11.663636207580566 6.84547233581543 11.57272720336914 6.845454216003418 11.481818199157715 L6.845454216003418 11.481818199157715 C7.047199726104736 11.478827476501465 7.248945236206055 11.475835800170898 7.450690746307373 11.472845077514648 L7.450690746307373 11.472845077514648"></path></svg>