<svg xmlns="http://www.w3.org/2000/svg" viewBox="0.0 0.0 24.0 24.0" height="200px" width="200px"><path fill="none" stroke="black" stroke-width=".3" stroke-opacity="1.0"  filling="0" d="M11.376518249511719 11.323417663574219 L11.376518249511719 11.323417663574219 C11.992700576782227 11.800169944763184 12.02677059173584 13.125814437866211 11.112627029418945 12.240055084228516 L11.112627029418945 12.240055084228516 C11.187854766845703 12.230582237243652 11.263081550598145 12.221110343933105 11.338309288024902 12.211637496948242 L11.338309288024902 12.211637496948242 C11.378209114074707 12.313736915588379 11.418109893798828 12.415837287902832 11.458009719848633 12.517936706542969 L11.458009719848633 12.517936706542969 C11.4922456741333 12.39233684539795 11.526482582092285 12.266736030578613 11.560718536376953 12.141136169433594 L11.560718536376953 12.141136169433594 C11.055554389953613 12.125984191894531 10.866520881652832 11.57433032989502 11.376518249511719 11.323417663574219 L11.376518249511719 11.323417663574219"></path>
<path fill="none" stroke="black" stroke-width=".3" stroke-opacity="1.0"  filling="0" d="M11.44644546508789 11.482308387756348 L11.44644546508789 11.482308387756348 C11.640132904052734 11.6379976272583 11.628229141235352 11.859957695007324 11.475299835205078 12.050154685974121 L11.475299835205078 12.050154685974121 C11.364690780639648 11.819106101989746 11.2902193069458 11.700868606567383 11.44644546508789 11.482308387756348 L11.44644546508789 11.482308387756348"></path></svg>