<svg xmlns="http://www.w3.org/2000/svg" viewBox="0.0 0.0 24.0 24.0" height="200px" width="200px"><path fill="none" stroke="black" stroke-width=".3" stroke-opacity="1.0"  filling="0" d="M13.478264808654785 11.754627227783203 L13.478264808654785 11.754627227783203 C13.507383346557617 11.754627227783203 13.536500930786133 11.754627227783203 13.565619468688965 11.754627227783203 L13.565619468688965 11.754627227783203 C13.57385540008545 11.775345802307129 13.58209228515625 11.796063423156738 13.590328216552734 11.816781997680664 L13.590328216552734 11.816781997680664 C14.165380477905273 11.680318832397461 14.055316925048828 12.125690460205078 14.084617614746094 12.620672225952148 L14.084617614746094 12.620672225952148 C13.989727020263672 12.620672225952148 13.89483642578125 12.620672225952148 13.799945831298828 12.620672225952148 L13.799945831298828 12.620672225952148 C13.799945831298828 11.950718879699707 13.584084510803223 11.66525650024414 13.582064628601074 12.622145652770996 L13.582064628601074 12.622145652770996 C13.500137329101562 12.622145652770996 13.41821002960205 12.622145652770996 13.336282730102539 12.622145652770996 L13.336282730102539 12.622145652770996 C13.336078643798828 12.587016105651855 13.197001457214355 11.754912376403809 13.478264808654785 11.754627227783203 L13.478264808654785 11.754627227783203"></path></svg>