<svg xmlns="http://www.w3.org/2000/svg" viewBox="0.0 0.0 24.0 24.0" height="200px" width="200px"><path fill="none" stroke="black" stroke-width=".3" stroke-opacity="1.0"  filling="0" d="M11.62521743774414 11.635690689086914 L11.62521743774414 11.635690689086914 C12.066495895385742 11.69213581085205 11.91755199432373 12.269929885864258 11.918018341064453 12.531707763671875 L11.918018341064453 12.531707763671875 C11.821972846984863 12.512398719787598 11.72592830657959 12.493090629577637 11.6298828125 12.47378158569336 L11.6298828125 12.47378158569336 C11.12336254119873 12.719869613647461 11.140348434448242 12.06381607055664 11.61240005493164 11.966236114501953 L11.61240005493164 11.966236114501953 C11.61240005493164 11.925827026367188 11.61240005493164 11.885417938232422 11.61240005493164 11.845008850097656 L11.61240005493164 11.845008850097656 C11.575163841247559 11.84220027923584 11.53792667388916 11.839390754699707 11.500690460205078 11.83658218383789 L11.500690460205078 11.83658218383789 C11.485727310180664 11.868718147277832 11.470763206481934 11.90085506439209 11.45580005645752 11.932991027832031 L11.45580005645752 11.932991027832031 C11.37040901184082 11.932991027832031 11.285017967224121 11.932991027832031 11.199626922607422 11.932991027832031 L11.199626922607422 11.932991027832031 C11.341490745544434 11.833890914916992 11.483353614807129 11.734790802001953 11.62521743774414 11.635690689086914 L11.62521743774414 11.635690689086914"></path>
<path fill="none" stroke="black" stroke-width=".3" stroke-opacity="1.0"  filling="0" d="M11.643736839294434 12.095782279968262 L11.643736839294434 12.095782279968262 C11.619028091430664 12.181500434875488 11.594318389892578 12.267218589782715 11.569609642028809 12.352936744689941 L11.569609642028809 12.352936744689941 C11.530463218688965 12.272775650024414 11.56677532196045 12.140893936157227 11.643736839294434 12.095782279968262 L11.643736839294434 12.095782279968262"></path></svg>