<svg xmlns="http://www.w3.org/2000/svg" viewBox="0.0 0.0 24.0 24.0" height="200px" width="200px"><path fill="none" stroke="black" stroke-width=".3" stroke-opacity="1.0"  filling="0" d="M11.266609191894531 11.329282760620117 L11.266609191894531 11.329282760620117 C11.519181251525879 11.37164306640625 11.772865295410156 11.663681030273438 11.7586088180542 11.91938304901123 L11.7586088180542 11.91938304901123 C11.928699493408203 12.585418701171875 11.590798377990723 12.78651237487793 11.075181007385254 12.342055320739746 L11.075181007385254 12.342055320739746 C11.160799026489258 12.327591896057129 11.246417045593262 12.313127517700195 11.332035064697266 12.298664093017578 L11.332035064697266 12.298664093017578 C11.34928035736084 12.340364456176758 11.36652660369873 12.382063865661621 11.383771896362305 12.4237642288208 L11.383771896362305 12.4237642288208 C11.490811347961426 12.37564754486084 11.442232131958008 12.160608291625977 11.365062713623047 12.07219123840332 L11.365062713623047 12.07219123840332 C11.369617462158203 11.995354652404785 11.37417221069336 11.91851806640625 11.378726959228516 11.841681480407715 L11.378726959228516 11.841681480407715 C11.62904167175293 11.69809341430664 11.721831321716309 11.455507278442383 11.352981567382812 11.547518730163574 L11.352981567382812 11.547518730163574 C11.34800910949707 11.5867919921875 11.343035697937012 11.62606430053711 11.33806324005127 11.665337562561035 L11.33806324005127 11.665337562561035 C11.26330852508545 11.665337562561035 11.188554763793945 11.665337562561035 11.113800048828125 11.665337562561035 L11.113800048828125 11.665337562561035 C11.1647367477417 11.553318977355957 11.215672492980957 11.441301345825195 11.266609191894531 11.329282760620117 L11.266609191894531 11.329282760620117"></path></svg>