<svg xmlns="http://www.w3.org/2000/svg" viewBox="0.0 0.0 24.0 24.0" height="200px" width="200px"><path fill="none" stroke="black" stroke-width=".3" stroke-opacity="1.0"  filling="0" d="M17.71072006225586 10.932764053344727 L17.71072006225586 10.932764053344727 C17.92010498046875 11.594287872314453 17.430221557617188 12.390048027038574 17.241790771484375 13.015664100646973 L17.241790771484375 13.015664100646973 C17.25534439086914 13.028045654296875 17.26889991760254 13.040427207946777 17.282453536987305 13.05280876159668 L17.282453536987305 13.05280876159668 C17.436925888061523 13.046854019165039 17.591400146484375 13.040900230407715 17.745872497558594 13.034945487976074 L17.745872497558594 13.034945487976074 C17.74362564086914 13.183053970336914 17.74138069152832 13.33116340637207 17.739133834838867 13.47927188873291 L17.739133834838867 13.47927188873291 C16.063987731933594 13.524048805236816 17.36081314086914 12.41433048248291 17.371116638183594 11.345945358276367 L17.371116638183594 11.345945358276367 C16.97684669494629 11.367862701416016 16.911684036254883 11.326546669006348 17.010272979736328 10.932790756225586 L17.010272979736328 10.932790756225586 C17.243755340576172 10.932782173156738 17.477237701416016 10.932772636413574 17.71072006225586 10.932764053344727 L17.71072006225586 10.932764053344727"></path></svg>