<svg xmlns="http://www.w3.org/2000/svg" viewBox="0.0 0.0 24.0 24.0" height="200px" width="200px"><path fill="none" stroke="black" stroke-width=".3" stroke-opacity="1.0"  filling="0" d="M13.307645797729492 11.729317665100098 L13.307645797729492 11.729317665100098 C13.59807300567627 12.243917465209961 13.442556381225586 12.769009590148926 13.18557357788086 13.218462944030762 L13.18557357788086 13.218462944030762 C13.157628059387207 13.114336013793945 13.129681587219238 13.010209083557129 13.101736068725586 12.906082153320312 L13.101736068725586 12.906082153320312 C13.140191078186035 12.935672760009766 13.178645133972168 12.965264320373535 13.217100143432617 12.994854927062988 L13.217100143432617 12.994854927062988 C13.217100143432617 12.893181800842285 13.217100143432617 12.791509628295898 13.217100143432617 12.689836502075195 L13.217100143432617 12.689836502075195 C12.87221622467041 12.488122940063477 12.83436107635498 11.965316772460938 13.224737167358398 11.79610824584961 L13.224737167358398 11.79610824584961 C13.252373695373535 11.773844718933105 13.280009269714355 11.751581192016602 13.307645797729492 11.729317665100098 L13.307645797729492 11.729317665100098"></path>
<path fill="none" stroke="black" stroke-width=".3" stroke-opacity="1.0"  filling="0" d="M13.16121768951416 11.984563827514648 L13.16121768951416 11.984563827514648 C13.167862892150879 12.142964363098145 13.174509048461914 12.301363945007324 13.181154251098633 12.45976448059082 L13.181154251098633 12.45976448059082 C13.174509048461914 12.301363945007324 13.167862892150879 12.142964363098145 13.16121768951416 11.984563827514648 L13.16121768951416 11.984563827514648"></path></svg>