<svg xmlns="http://www.w3.org/2000/svg" viewBox="0.0 0.0 24.0 24.0" height="200px" width="200px"><path fill="none" stroke="black" stroke-width=".3" stroke-opacity="1.0"  filling="0" d="M12.318572044372559 13.090963363647461 L12.318572044372559 13.090963363647461 C12.341599464416504 13.227327346801758 12.364625930786133 13.363691329956055 12.387653350830078 13.500055313110352 L12.387653350830078 13.500055313110352 C9.491599082946777 13.500055313110352 14.267023086547852 13.772700309753418 14.862762451171875 13.772700309753418 L14.862762451171875 13.772700309753418 C14.869790077209473 13.908182144165039 14.876816749572754 14.043664932250977 14.883844375610352 14.179146766662598 L14.883844375610352 14.179146766662598 C13.830101013183594 14.412497520446777 11.77615737915039 14.209065437316895 10.697343826293945 14.209065437316895 L10.697343826293945 14.209065437316895 C10.686508178710938 14.075674057006836 10.67567253112793 13.942281723022461 10.664836883544922 13.808890342712402 L10.664836883544922 13.808890342712402 C10.812664031982422 13.794099807739258 10.960491180419922 13.779308319091797 11.108318328857422 13.764517784118652 L11.108318328857422 13.764517784118652 C9.685461044311523 13.190553665161133 12.00463581085205 13.091032981872559 12.318572044372559 13.090963363647461 L12.318572044372559 13.090963363647461"></path></svg>