<svg xmlns="http://www.w3.org/2000/svg" viewBox="0.0 0.0 24.0 24.0" height="200px" width="200px"><path fill="none" stroke="black" stroke-width=".3" stroke-opacity="1.0"  filling="0" d="M15.496772766113281 11.153562545776367 L15.496772766113281 11.153562545776367 C16.176006317138672 11.15455436706543 16.372905731201172 12.380918502807617 15.491726875305176 12.324191093444824 L15.491726875305176 12.324191093444824 C15.495783805847168 13.199801445007324 15.595685958862305 13.289335250854492 15.722945213317871 12.630599975585938 L15.722945213317871 12.630599975585938 C15.784418106079102 12.630599975585938 15.845890045166016 12.630599975585938 15.907362937927246 12.630599975585938 L15.907362937927246 12.630599975585938 C16.50797462463379 14.597528457641602 13.570148468017578 12.407273292541504 15.496772766113281 11.153562545776367 L15.496772766113281 11.153562545776367"></path>
<path fill="none" stroke="black" stroke-width=".3" stroke-opacity="1.0"  filling="0" d="M15.561354637145996 11.512935638427734 L15.561354637145996 11.512935638427734 C15.653246879577637 11.62281322479248 15.654377937316895 11.789234161376953 15.654327392578125 11.932472229003906 L15.654327392578125 11.932472229003906 C15.599872589111328 11.945490837097168 15.545417785644531 11.958508491516113 15.490962982177734 11.971527099609375 L15.490962982177734 11.971527099609375 C15.490880012512207 11.816872596740723 15.474828720092773 11.641119956970215 15.561354637145996 11.512935638427734 L15.561354637145996 11.512935638427734"></path></svg>