<svg xmlns="http://www.w3.org/2000/svg" viewBox="0.0 0.0 24.0 24.0" height="200px" width="200px"><path fill="none" stroke="black" stroke-width=".3" stroke-opacity="1.0"  filling="0" d="M12.79636287689209 11.209064483642578 L12.79636287689209 11.209064483642578 C12.829017639160156 11.209073066711426 12.861672401428223 11.20908260345459 12.894327163696289 11.209091186523438 L12.894327163696289 11.209091186523438 C12.946480751037598 11.455999374389648 12.938716888427734 11.712078094482422 12.947726249694824 11.964273452758789 L12.947726249694824 11.964273452758789 C14.385087013244629 12.05505084991455 14.813600540161133 11.89503288269043 13.378390312194824 11.633180618286133 L13.378390312194824 11.633180618286133 C13.665356636047363 11.08310317993164 14.463190078735352 11.067121505737305 14.803062438964844 11.716063499450684 C15.110230445861816 12.302560806274414 13.68451976776123 12.394054412841797 13.500516891479492 12.412635803222656 C12.61774730682373 12.50178050994873 11.213333129882812 12.644442558288574 10.520780563354492 11.976191520690918 C10.330039024353027 11.792142868041992 10.772212982177734 11.466628074645996 11.009836196899414 11.349191665649414 C11.545345306396484 11.0845365524292 12.199679374694824 11.23701286315918 12.79636287689209 11.209064483642578 L12.79636287689209 11.209064483642578"></path>
<path fill="none" stroke="black" stroke-width=".3" stroke-opacity="1.0"  filling="0" d="M11.831235885620117 11.672782897949219 L11.831235885620117 11.672782897949219 C12.741451263427734 11.673742294311523 12.60205364227295 12.019264221191406 11.577437400817871 11.996891021728516 C10.679098129272461 11.977274894714355 11.303287506103516 11.67441463470459 11.831235885620117 11.672782897949219 L11.831235885620117 11.672782897949219"></path></svg>