<svg xmlns="http://www.w3.org/2000/svg" viewBox="0.0 0.0 24.0 24.0" height="200px" width="200px"><path fill="none" stroke="black" stroke-width=".3" stroke-opacity="1.0"  filling="0" d="M10.142399787902832 11.62360954284668 L10.142399787902832 11.62360954284668 C10.225199699401855 11.62360954284668 10.308000564575195 11.62360954284668 10.390800476074219 11.62360954284668 L10.390800476074219 11.62360954284668 C10.390884399414062 11.724550247192383 10.448677062988281 11.823041915893555 10.513391494750977 11.900508880615234 L10.513391494750977 11.900508880615234 C10.481454849243164 11.939555168151855 10.449518203735352 11.97860050201416 10.417581558227539 12.017646789550781 L10.417581558227539 12.017646789550781 C10.451927185058594 12.136783599853516 10.486272811889648 12.255919456481934 10.520618438720703 12.375056266784668 L10.520618438720703 12.375056266784668 C10.520618438720703 12.413610458374023 10.520618438720703 12.452165603637695 10.520618438720703 12.49071979522705 L10.520618438720703 12.49071979522705 C10.157562255859375 12.489243507385254 10.119784355163574 12.38620376586914 10.11872673034668 12.034420013427734 L10.11872673034668 12.034420013427734 C10.091263771057129 12.032029151916504 10.063799858093262 12.029637336730957 10.036336898803711 12.027246475219727 L10.036336898803711 12.027246475219727 C10.036345481872559 11.972709655761719 10.036355018615723 11.918172836303711 10.03636360168457 11.863636016845703 L10.03636360168457 11.863636016845703 C10.111045837402344 11.818102836608887 10.136134147644043 11.710853576660156 10.142399787902832 11.62360954284668 L10.142399787902832 11.62360954284668"></path></svg>