<svg xmlns="http://www.w3.org/2000/svg" viewBox="0.0 0.0 24.0 24.0" height="200px" width="200px"><path fill="none" stroke="black" stroke-width=".3" stroke-opacity="1.0"  filling="0" d="M12.63646411895752 11.850382804870605 L12.63646411895752 11.850382804870605 C12.737683296203613 11.927532196044922 12.819999694824219 12.036887168884277 12.865827560424805 12.155618667602539 L12.865827560424805 12.155618667602539 C12.642182350158691 12.188349723815918 12.53541374206543 12.088641166687012 12.442609786987305 12.313937187194824 L12.442609786987305 12.313937187194824 C12.567432403564453 12.270846366882324 12.701030731201172 12.24860954284668 12.833072662353516 12.247036933898926 L12.833072662353516 12.247036933898926 C12.653304100036621 12.387825012207031 12.388625144958496 12.457343101501465 12.1664457321167 12.404672622680664 L12.1664457321167 12.404672622680664 C12.128779411315918 11.972973823547363 12.20007038116455 11.870488166809082 12.63646411895752 11.850382804870605 L12.63646411895752 11.850382804870605"></path>
<path fill="none" stroke="black" stroke-width=".3" stroke-opacity="1.0"  filling="0" d="M12.487882614135742 11.974855422973633 L12.487882614135742 11.974855422973633 C12.518791198730469 11.9971284866333 12.549700736999512 12.019400596618652 12.580609321594238 12.04167366027832 L12.580609321594238 12.04167366027832 C12.575118064880371 12.05299186706543 12.569626808166504 12.064309120178223 12.564135551452637 12.075627326965332 L12.564135551452637 12.075627326965332 C12.515290260314941 12.075636863708496 12.466445922851562 12.075645446777344 12.417600631713867 12.075654983520508 L12.417600631713867 12.075654983520508 C12.441027641296387 12.042055130004883 12.464455604553223 12.008455276489258 12.487882614135742 11.974855422973633 L12.487882614135742 11.974855422973633"></path></svg>