<svg xmlns="http://www.w3.org/2000/svg" viewBox="0.0 0.0 24.0 24.0" height="200px" width="200px"><path fill="none" stroke="black" stroke-width=".3" stroke-opacity="1.0"  filling="0" d="M14.396454811096191 11.590145111083984 L14.396454811096191 11.590145111083984 C14.648802757263184 11.804239273071289 13.665855407714844 11.960275650024414 14.324808120727539 11.933537483215332 L14.324808120727539 11.933537483215332 C14.349189758300781 11.992074012756348 14.37357234954834 12.050609588623047 14.397953987121582 12.109146118164062 L14.397953987121582 12.109146118164062 C14.267772674560547 12.10916519165039 14.138800621032715 12.198193550109863 14.056854248046875 12.299346923828125 L14.056854248046875 12.299346923828125 C14.20559024810791 12.299327850341797 14.354327201843262 12.299309730529785 14.503063201904297 12.299290657043457 L14.503063201904297 12.299290657043457 C14.503063201904297 12.360072135925293 14.503063201904297 12.420854568481445 14.503063201904297 12.481636047363281 L14.503063201904297 12.481636047363281 C14.253145217895508 12.481636047363281 14.003227233886719 12.481636047363281 13.75330924987793 12.481636047363281 L13.75330924987793 12.481636047363281 C13.75330924987793 12.189391136169434 13.75330924987793 11.89714527130127 13.75330924987793 11.604900360107422 L13.75330924987793 11.604900360107422 C13.964141845703125 11.565739631652832 14.18201732635498 11.590747833251953 14.396454811096191 11.590145111083984 L14.396454811096191 11.590145111083984"></path></svg>