<svg xmlns="http://www.w3.org/2000/svg" viewBox="0.0 0.0 24.0 24.0" height="200px" width="200px"><path fill="none" stroke="black" stroke-width=".3" stroke-opacity="1.0"  filling="0" d="M12.506891250610352 11.845117568969727 L12.506891250610352 11.845117568969727 C12.991765975952148 11.875487327575684 13.264577865600586 12.15892505645752 12.60627269744873 12.163663864135742 L12.60627269744873 12.163663864135742 C12.60627269744873 12.204800605773926 12.60627269744873 12.245936393737793 12.60627269744873 12.287073135375977 L12.60627269744873 12.287073135375977 C12.744302749633789 12.269899368286133 12.882436752319336 12.253541946411133 13.020654678344727 12.237954139709473 L13.020654678344727 12.237954139709473 C12.554438591003418 12.789026260375977 12.035036087036133 12.104339599609375 12.506891250610352 11.845117568969727 L12.506891250610352 11.845117568969727"></path>
<path fill="none" stroke="black" stroke-width=".3" stroke-opacity="1.0"  filling="0" d="M12.626344680786133 11.957018852233887 L12.626344680786133 11.957018852233887 C12.68329906463623 11.980445861816406 12.740254402160645 12.003872871398926 12.797208786010742 12.027299880981445 L12.797208786010742 12.027299880981445 C12.744881629943848 12.048991203308105 12.692553520202637 12.070682525634766 12.640226364135742 12.092373847961426 L12.640226364135742 12.092373847961426 C12.635599136352539 12.047255516052246 12.630971908569336 12.002137184143066 12.626344680786133 11.957018852233887 L12.626344680786133 11.957018852233887"></path></svg>