<svg xmlns="http://www.w3.org/2000/svg" viewBox="0.0 0.0 24.0 24.0" height="200px" width="200px"><path fill="none" stroke="black" stroke-width=".3" stroke-opacity="1.0"  filling="0" d="M11.938227653503418 11.871709823608398 L11.938227653503418 11.871709823608398 C12.097718238830566 11.89558219909668 12.257209777832031 11.919455528259277 12.41670036315918 11.943327903747559 L12.41670036315918 11.943327903747559 C12.41670036315918 12.114082336425781 12.41670036315918 12.284836769104004 12.41670036315918 12.455591201782227 L12.41670036315918 12.455591201782227 C11.870407104492188 12.531989097595215 11.527356147766113 12.216697692871094 12.191726684570312 12.123709678649902 L12.191726684570312 12.123709678649902 C12.151830673217773 12.078841209411621 12.06163215637207 12.070158004760742 12.01259994506836 12.104809761047363 L12.01259994506836 12.104809761047363 C11.941300392150879 12.104809761047363 11.869999885559082 12.104809761047363 11.798700332641602 12.104809761047363 L11.798700332641602 12.104809761047363 C11.845209121704102 12.02711009979248 11.891718864440918 11.949409484863281 11.938227653503418 11.871709823608398 L11.938227653503418 11.871709823608398"></path>
<path fill="none" stroke="black" stroke-width=".3" stroke-opacity="1.0"  filling="0" d="M12.147299766540527 12.237082481384277 L12.147299766540527 12.237082481384277 C12.15401840209961 12.249373435974121 12.160736083984375 12.261664390563965 12.167454719543457 12.273955345153809 L12.167454719543457 12.273955345153809 C12.129035949707031 12.31603717803955 12.090618133544922 12.358118057250977 12.052199363708496 12.400199890136719 L12.052199363708496 12.400199890136719 C12.044194221496582 12.337772369384766 12.089944839477539 12.262999534606934 12.147299766540527 12.237082481384277 L12.147299766540527 12.237082481384277"></path></svg>