<svg xmlns="http://www.w3.org/2000/svg" viewBox="0.0 0.0 24.0 24.0" height="200px" width="200px"><path fill="none" stroke="black" stroke-width=".3" stroke-opacity="1.0"  filling="0" d="M10.561445236206055 11.627755165100098 L10.561445236206055 11.627755165100098 C10.62901782989502 11.627755165100098 10.696590423583984 11.627755165100098 10.76416301727295 11.627755165100098 L10.76416301727295 11.627755165100098 C10.76416301727295 11.695436477661133 10.76416301727295 11.763118743896484 10.76416301727295 11.83080005645752 L10.76416301727295 11.83080005645752 C10.731754302978516 11.833972930908203 10.699344635009766 11.837145805358887 10.666935920715332 11.84031867980957 L10.666935920715332 11.84031867980957 C10.688310623168945 12.00986099243164 10.705166816711426 12.219819068908691 10.84202766418457 12.322145462036133 L10.84202766418457 12.322145462036133 C10.858318328857422 12.173935890197754 10.874608993530273 12.025727272033691 10.890899658203125 11.877517700195312 L10.890899658203125 11.877517700195312 C10.966972351074219 11.877517700195312 11.043045043945312 11.877517700195312 11.119117736816406 11.877517700195312 L11.119117736816406 11.877517700195312 C11.119117736816406 12.080499649047852 11.119117736816406 12.28348159790039 11.119117736816406 12.48646354675293 L11.119117736816406 12.48646354675293 C10.832754135131836 12.446154594421387 10.75674057006836 12.453498840332031 10.46519947052002 12.383646011352539 L10.46519947052002 12.383646011352539 C10.46519947052002 12.212709426879883 10.46519947052002 12.041773796081543 10.46519947052002 11.870837211608887 L10.46519947052002 11.870837211608887 C10.497281074523926 11.866418838500977 10.529363632202148 11.862000465393066 10.561445236206055 11.857582092285156 L10.561445236206055 11.857582092285156 C10.561445236206055 11.780973434448242 10.561445236206055 11.704363822937012 10.561445236206055 11.627755165100098 L10.561445236206055 11.627755165100098"></path></svg>