<svg xmlns="http://www.w3.org/2000/svg" viewBox="0.0 0.0 24.0 24.0" height="200px" width="200px"><path fill="none" stroke="black" stroke-width=".3" stroke-opacity="1.0"  filling="0" d="M7.814972877502441 9.871664047241211 L7.814972877502441 9.871664047241211 C8.559881210327148 10.58481502532959 8.273346900939941 13.487756729125977 8.291345596313477 14.472026824951172 C8.291552543640137 14.483328819274902 8.419238090515137 16.09361457824707 8.207780838012695 16.417390823364258 C7.851186752319336 16.963396072387695 6.243889808654785 17.202220916748047 5.783999919891357 16.642719268798828 C4.964786529541016 15.646065711975098 5.455704212188721 13.253044128417969 5.427600383758545 12.03414535522461 C5.413964748382568 11.442754745483398 5.18687629699707 10.813103675842285 5.396073341369629 10.259780883789062 C5.537555694580078 9.885562896728516 5.8727641105651855 9.761165618896484 6.262855052947998 9.911563873291016 C6.955270290374756 10.178523063659668 6.588905334472656 14.009539604187012 6.600627422332764 14.556056022644043 C6.610398292541504 15.011615753173828 6.572437763214111 16.002464294433594 7.005791187286377 15.861627578735352 C7.392584800720215 15.735921859741211 7.177189350128174 15.059517860412598 7.1717729568481445 14.652846336364746 C7.158512115478516 13.657172203063965 6.289544582366943 9.894478797912598 7.814972877502441 9.871664047241211 L7.814972877502441 9.871664047241211"></path></svg>