<svg xmlns="http://www.w3.org/2000/svg" viewBox="0.0 0.0 24.0 24.0" height="200px" width="200px"><path fill="none" stroke="black" stroke-width=".3" stroke-opacity="1.0"  filling="0" d="M9.711654663085938 11.638663291931152 L9.711654663085938 11.638663291931152 C9.927236557006836 11.638663291931152 10.142817497253418 11.638664245605469 10.358399391174316 11.638664245605469 L10.358399391174316 11.638664245605469 C10.358399391174316 11.701509475708008 10.358399391174316 11.764354705810547 10.358399391174316 11.827199935913086 L10.358399391174316 11.827199935913086 C10.243245124816895 11.827199935913086 10.128090858459473 11.827199935913086 10.01293659210205 11.827199935913086 L10.01293659210205 11.827199935913086 C10.01293659210205 11.884245872497559 10.01293659210205 11.941290855407715 10.01293659210205 11.998336791992188 L10.01293659210205 11.998336791992188 C10.100309371948242 11.998336791992188 10.187681198120117 11.998336791992188 10.275053977966309 11.998336791992188 L10.275053977966309 11.998336791992188 C10.275053977966309 12.060627937316895 10.275053977966309 12.122918128967285 10.275053977966309 12.185209274291992 L10.275053977966309 12.185209274291992 C10.187381744384766 12.185209274291992 10.099708557128906 12.185209274291992 10.012036323547363 12.185209274291992 L10.012036323547363 12.185209274291992 C10.012036323547363 12.29383659362793 10.012036323547363 12.402463912963867 10.012036323547363 12.511091232299805 L10.012036323547363 12.511091232299805 C9.901981353759766 12.511091232299805 9.791926383972168 12.511091232299805 9.68187141418457 12.511091232299805 L9.68187141418457 12.511091232299805 C9.69179916381836 12.220281600952148 9.701726913452148 11.929472923278809 9.711654663085938 11.638663291931152 L9.711654663085938 11.638663291931152"></path></svg>