<svg xmlns="http://www.w3.org/2000/svg" viewBox="0.0 0.0 24.0 24.0" height="200px" width="200px"><path fill="none" stroke="black" stroke-width=".3" stroke-opacity="1.0"  filling="0" d="M12.802989959716797 11.846317291259766 L12.802989959716797 11.846317291259766 C12.94088077545166 11.890490531921387 13.07877254486084 11.934663772583008 13.216663360595703 11.978837013244629 L13.216663360595703 11.978837013244629 C13.193763732910156 12.000500679016113 13.170863151550293 12.022163391113281 13.147963523864746 12.043827056884766 L13.147963523864746 12.043827056884766 C13.041618347167969 12.026082038879395 12.935272216796875 12.008336067199707 12.828927040100098 11.990591049194336 L12.828927040100098 11.990591049194336 C12.82492733001709 12.00541877746582 12.820926666259766 12.020245552062988 12.816926956176758 12.035073280334473 L12.816926956176758 12.035073280334473 C13.776895523071289 12.310859680175781 12.476277351379395 12.691356658935547 12.600407600402832 12.248944282531738 L12.600407600402832 12.248944282531738 C12.568154335021973 12.10220718383789 12.669740676879883 11.915718078613281 12.802989959716797 11.846317291259766 L12.802989959716797 11.846317291259766"></path>
<path fill="none" stroke="black" stroke-width=".3" stroke-opacity="1.0"  filling="0" d="M12.67279052734375 12.284645080566406 L12.67279052734375 12.284645080566406 C12.755626678466797 12.300636291503906 12.83846378326416 12.316627502441406 12.921299934387207 12.332618713378906 L12.921299934387207 12.332618713378906 C12.83846378326416 12.316627502441406 12.755626678466797 12.300636291503906 12.67279052734375 12.284645080566406 L12.67279052734375 12.284645080566406"></path></svg>