<svg xmlns="http://www.w3.org/2000/svg" viewBox="0.0 0.0 24.0 24.0" height="200px" width="200px"><path fill="none" stroke="black" stroke-width=".3" stroke-opacity="1.0"  filling="0" d="M14.043327331542969 11.618864059448242 L14.043327331542969 11.618864059448242 C14.09399127960205 11.916000366210938 14.144654273986816 12.213136672973633 14.195318222045898 12.510272979736328 L14.195318222045898 12.510272979736328 C14.085981369018555 12.510272979736328 13.976645469665527 12.510272979736328 13.867308616638184 12.510272979736328 L13.867308616638184 12.510272979736328 C13.860072135925293 12.470427513122559 13.852836608886719 12.430582046508789 13.845600128173828 12.39073657989502 L13.845600128173828 12.39073657989502 C13.799009323120117 12.39073657989502 13.752418518066406 12.39073657989502 13.705827713012695 12.39073657989502 L13.705827713012695 12.39073657989502 C13.594837188720703 12.42998218536377 13.483845710754395 12.469226837158203 13.372855186462402 12.508472442626953 L13.372855186462402 12.508472442626953 C13.421028137207031 12.224762916564941 13.469200134277344 11.941054344177246 13.517373085021973 11.657344818115234 L13.517373085021973 11.657344818115234 C13.692808151245117 11.646227836608887 13.868178367614746 11.633824348449707 14.043327331542969 11.618864059448242 L14.043327331542969 11.618864059448242"></path>
<path fill="none" stroke="black" stroke-width=".3" stroke-opacity="1.0"  filling="0" d="M13.759364128112793 12.051382064819336 L13.759364128112793 12.051382064819336 C13.782818794250488 12.11368179321289 13.806272506713867 12.175981521606445 13.829727172851562 12.23828125 L13.829727172851562 12.23828125 C13.792118072509766 12.23828125 13.754508972167969 12.23828125 13.716899871826172 12.23828125 L13.716899871826172 12.23828125 C13.731054306030273 12.175981521606445 13.745209693908691 12.11368179321289 13.759364128112793 12.051382064819336 L13.759364128112793 12.051382064819336"></path></svg>