<svg xmlns="http://www.w3.org/2000/svg" viewBox="0.0 0.0 24.0 24.0" height="200px" width="200px"><path fill="none" stroke="black" stroke-width=".3" stroke-opacity="1.0"  filling="0" d="M11.565872192382812 11.265028953552246 L11.565872192382812 11.265028953552246 C12.007052421569824 11.653742790222168 12.211095809936523 12.056608200073242 11.522727012634277 12.17048168182373 L11.522727012634277 12.17048168182373 C11.551259994506836 12.36276626586914 11.574478149414062 12.641298294067383 11.758527755737305 12.70385456085205 L11.758527755737305 12.70385456085205 C11.642431259155273 11.502202033996582 12.58226203918457 13.324675559997559 11.570208549499512 12.983783721923828 C11.016801834106445 12.797378540039062 10.938324928283691 11.415112495422363 11.565872192382812 11.265028953552246 L11.565872192382812 11.265028953552246"></path>
<path fill="none" stroke="black" stroke-width=".3" stroke-opacity="1.0"  filling="0" d="M11.607110023498535 11.532299041748047 L11.607110023498535 11.532299041748047 C11.628353118896484 11.655753135681152 11.575804710388184 11.805459022521973 11.479745864868164 11.8858642578125 L11.479745864868164 11.8858642578125 C11.467364311218262 11.768009185791016 11.454981803894043 11.650155067443848 11.44260025024414 11.532299995422363 L11.44260025024414 11.532299995422363 C11.4974365234375 11.532299995422363 11.552273750305176 11.532299041748047 11.607110023498535 11.532299041748047 L11.607110023498535 11.532299041748047"></path></svg>