<svg xmlns="http://www.w3.org/2000/svg" viewBox="0.0 0.0 24.0 24.0" height="200px" width="200px"><path fill="none" stroke="black" stroke-width=".3" stroke-opacity="1.0"  filling="0" d="M10.534090995788574 10.529699325561523 L10.534090995788574 10.529699325561523 C10.956067085266113 10.853852272033691 10.94604778289795 11.213356971740723 10.821599960327148 11.70720100402832 L10.821599960327148 11.70720100402832 C11.402270317077637 12.468814849853516 11.163408279418945 13.056607246398926 10.310809135437012 13.177391052246094 L10.310809135437012 13.177391052246094 C10.218091011047363 12.417546272277832 9.509912490844727 10.6537446975708 10.534090995788574 10.529699325561523 L10.534090995788574 10.529699325561523"></path>
<path fill="none" stroke="black" stroke-width=".3" stroke-opacity="1.0"  filling="0" d="M10.479790687561035 10.848817825317383 L10.479790687561035 10.848817825317383 C10.642936706542969 11.17949104309082 10.705053329467773 11.386568069458008 10.432281494140625 11.60997200012207 L10.432281494140625 11.60997200012207 C10.391408920288086 11.365080833435059 10.350536346435547 11.120190620422363 10.309663772583008 10.875299453735352 L10.309663772583008 10.875299453735352 C10.366373062133789 10.866472244262695 10.423081398010254 10.857645034790039 10.479790687561035 10.848817825317383 L10.479790687561035 10.848817825317383"></path>
<path fill="none" stroke="black" stroke-width=".3" stroke-opacity="1.0"  filling="0" d="M10.479708671569824 11.963918685913086 L10.479708671569824 11.963918685913086 C10.74311351776123 12.05661392211914 10.744260787963867 12.46755599975586 10.785900115966797 12.743673324584961 L10.785900115966797 12.743673324584961 C10.429286003112793 12.901045799255371 10.511916160583496 12.181344032287598 10.479708671569824 11.963918685913086 L10.479708671569824 11.963918685913086"></path></svg>