<svg xmlns="http://www.w3.org/2000/svg" viewBox="0.0 0.0 24.0 24.0" height="200px" width="200px"><path fill="none" stroke="black" stroke-width=".3" stroke-opacity="1.0"  filling="0" d="M12.120272636413574 11.372426986694336 L12.120272636413574 11.372426986694336 C12.586827278137207 11.74560832977295 12.532276153564453 12.15460205078125 11.979272842407227 12.249709129333496 L11.979272842407227 12.249709129333496 C12.00241756439209 12.440171241760254 12.05407428741455 12.661674499511719 12.206100463867188 12.778718948364258 L12.206100463867188 12.778718948364258 C12.206100463867188 12.673418998718262 12.206100463867188 12.56811809539795 12.206100463867188 12.462818145751953 L12.206100463867188 12.462818145751953 C12.692598342895508 12.121240615844727 12.525971412658691 13.381555557250977 11.97390079498291 13.069527626037598 C11.433961868286133 12.764355659484863 11.367349624633789 11.395187377929688 12.120272636413574 11.372426986694336 L12.120272636413574 11.372426986694336"></path>
<path fill="none" stroke="black" stroke-width=".3" stroke-opacity="1.0"  filling="0" d="M11.9551362991333 11.614500045776367 L11.9551362991333 11.614500045776367 C12.012372970581055 11.72649097442627 12.069608688354492 11.838480949401855 12.126845359802246 11.950471878051758 L12.126845359802246 11.950471878051758 C12.062664031982422 11.959908485412598 11.998482704162598 11.969345092773438 11.934301376342773 11.978781700134277 L11.934301376342773 11.978781700134277 C11.916899681091309 11.858407020568848 11.891758918762207 11.718307495117188 11.9551362991333 11.614500045776367 L11.9551362991333 11.614500045776367"></path></svg>