<svg xmlns="http://www.w3.org/2000/svg" viewBox="0.0 0.0 24.0 24.0" height="200px" width="200px"><path fill="none" stroke="black" stroke-width=".3" stroke-opacity="1.0"  filling="0" d="M9.13881778717041 11.94676399230957 L9.13881778717041 11.94676399230957 C9.944189071655273 12.02182674407959 9.330511093139648 12.209707260131836 9.169609069824219 12.400798797607422 L9.169609069824219 12.400798797607422 C9.207681655883789 12.415162086486816 9.245755195617676 12.429526329040527 9.283827781677246 12.443889617919922 L9.283827781677246 12.443889617919922 C9.747812271118164 12.210373878479004 9.36559772491455 12.692315101623535 8.89112663269043 12.478117942810059 L8.89112663269043 12.478117942810059 C8.89123821258545 12.28270149230957 8.99979019165039 12.084091186523438 9.13881778717041 11.94676399230957 L9.13881778717041 11.94676399230957"></path>
<path fill="none" stroke="black" stroke-width=".3" stroke-opacity="1.0"  filling="0" d="M9.22350025177002 12.089099884033203 L9.22350025177002 12.089099884033203 C9.252891540527344 12.109291076660156 9.282281875610352 12.12948226928711 9.311673164367676 12.149673461914062 L9.311673164367676 12.149673461914062 C9.304718971252441 12.161373138427734 9.29776382446289 12.173072814941406 9.290809631347656 12.184772491455078 L9.290809631347656 12.184772491455078 C9.24085521697998 12.184772491455078 9.190899848937988 12.184772491455078 9.140945434570312 12.184772491455078 L9.140945434570312 12.184772491455078 C9.168463706970215 12.152881622314453 9.195981979370117 12.120990753173828 9.22350025177002 12.089099884033203 L9.22350025177002 12.089099884033203"></path></svg>