<svg xmlns="http://www.w3.org/2000/svg" viewBox="0.0 0.0 24.0 24.0" height="200px" width="200px"><path fill="none" stroke="black" stroke-width=".3" stroke-opacity="1.0"  filling="0" d="M11.520955085754395 11.68069076538086 L11.520955085754395 11.68069076538086 C11.76242733001709 11.68069076538086 12.003900527954102 11.68069076538086 12.245372772216797 11.68069076538086 L12.245372772216797 11.68069076538086 C12.244233131408691 11.928768157958984 12.047042846679688 11.858901977539062 11.81893539428711 11.872281074523926 L11.81893539428711 11.872281074523926 C11.81893539428711 11.923526763916016 11.81893539428711 11.974772453308105 11.81893539428711 12.026018142700195 L11.81893539428711 12.026018142700195 C11.920462608337402 12.020145416259766 12.021990776062012 12.01427173614502 12.123517990112305 12.00839900970459 L12.123517990112305 12.00839900970459 C12.123517990112305 12.064398765563965 12.123517990112305 12.120399475097656 12.123517990112305 12.176399230957031 L12.123517990112305 12.176399230957031 C12.020036697387695 12.176417350769043 11.91655445098877 12.176436424255371 11.81307315826416 12.176454544067383 L11.81307315826416 12.176454544067383 C11.81307315826416 12.244873046875 11.81307315826416 12.3132905960083 11.81307315826416 12.381709098815918 L11.81307315826416 12.381709098815918 C11.96786880493164 12.381836891174316 12.166311264038086 12.42432689666748 12.242181777954102 12.55925464630127 L12.242181777954102 12.55925464630127 C11.997836112976074 12.55925464630127 11.753491401672363 12.55925464630127 11.509145736694336 12.55925464630127 L11.509145736694336 12.55925464630127 C11.508544921875 12.263136863708496 11.461624145507812 11.972704887390137 11.520955085754395 11.68069076538086 L11.520955085754395 11.68069076538086"></path></svg>