<svg xmlns="http://www.w3.org/2000/svg" viewBox="0.0 0.0 24.0 24.0" height="200px" width="200px"><path fill="none" stroke="black" stroke-width=".3" stroke-opacity="1.0"  filling="0" d="M20.813589096069336 11.187108039855957 L20.813589096069336 11.187108039855957 C20.874048233032227 11.406280517578125 20.86259651184082 11.639988899230957 20.863636016845703 11.867344856262207 L20.863636016845703 11.867344856262207 C21.070600509643555 11.867344856262207 21.277563095092773 11.867344856262207 21.484527587890625 11.867344856262207 L21.484527587890625 11.867344856262207 C21.484527587890625 11.964653968811035 21.484527587890625 12.061963081359863 21.484527587890625 12.159272193908691 L21.484527587890625 12.159272193908691 C21.277936935424805 12.159272193908691 21.07134437561035 12.159272193908691 20.86475372314453 12.159272193908691 L20.86475372314453 12.159272193908691 C20.86475372314453 12.376763343811035 20.86475372314453 12.594254493713379 20.86475372314453 12.811745643615723 L20.86475372314453 12.811745643615723 C20.764381408691406 12.811745643615723 20.66400909423828 12.811745643615723 20.563636779785156 12.811745643615723 L20.563636779785156 12.811745643615723 C20.563636779785156 12.193868637084961 20.53276252746582 12.163636207580566 19.915882110595703 12.163636207580566 L19.915882110595703 12.163636207580566 C19.915882110595703 12.063627243041992 19.915882110595703 11.963618278503418 19.915882110595703 11.863609313964844 L19.915882110595703 11.863609313964844 C20.21664047241211 11.863609313964844 20.539798736572266 11.540121078491211 20.568681716918945 11.240754127502441 L20.568681716918945 11.240754127502441 C20.650318145751953 11.222871780395508 20.731952667236328 11.20499038696289 20.813589096069336 11.187108039855957 L20.813589096069336 11.187108039855957"></path></svg>