<svg xmlns="http://www.w3.org/2000/svg" viewBox="0.0 0.0 24.0 24.0" height="200px" width="200px"><path fill="none" stroke="black" stroke-width=".3" stroke-opacity="1.0"  filling="0" d="M10.364235877990723 11.852782249450684 L10.364235877990723 11.852782249450684 C10.597105979919434 12.148897171020508 10.396255493164062 12.164545059204102 10.0952730178833 12.163336753845215 L10.0952730178833 12.163336753845215 C10.0952730178833 12.208309173583984 10.0952730178833 12.25328254699707 10.0952730178833 12.29825496673584 L10.0952730178833 12.29825496673584 C10.161774635314941 12.296588897705078 10.235513687133789 12.27281665802002 10.280400276184082 12.223719596862793 L10.280400276184082 12.223719596862793 C10.350708961486816 12.223719596862793 10.42101764678955 12.223719596862793 10.491326332092285 12.223719596862793 L10.491326332092285 12.223719596862793 C9.681594848632812 12.701045036315918 9.587847709655762 11.869665145874023 10.364235877990723 11.852782249450684 L10.364235877990723 11.852782249450684"></path>
<path fill="none" stroke="black" stroke-width=".3" stroke-opacity="1.0"  filling="0" d="M10.130999565124512 11.920882225036621 L10.130999565124512 11.920882225036621 C10.166690826416016 11.953545570373535 10.20238208770752 11.98620891571045 10.238073348999023 12.018872261047363 L10.238073348999023 12.018872261047363 C10.233263969421387 12.027536392211914 10.22845458984375 12.036199569702148 10.223645210266113 12.0448637008667 L10.223645210266113 12.0448637008667 C10.176918029785156 12.0448637008667 10.130191802978516 12.0448637008667 10.083464622497559 12.0448637008667 L10.083464622497559 12.0448637008667 C10.099309921264648 12.003536224365234 10.115154266357422 11.962209701538086 10.130999565124512 11.920882225036621 L10.130999565124512 11.920882225036621"></path></svg>