<svg xmlns="http://www.w3.org/2000/svg" viewBox="0.0 0.0 24.0 24.0" height="200px" width="200px"><path fill="none" stroke="black" stroke-width=".3" stroke-opacity="1.0"  filling="0" d="M7.149899959564209 11.872554779052734 L7.149899959564209 11.872554779052734 C7.210257053375244 11.958786010742188 7.258326530456543 12.058425903320312 7.275490760803223 12.162273406982422 L7.275490760803223 12.162273406982422 C7.135781764984131 12.174628257751465 6.996072292327881 12.186982154846191 6.856363296508789 12.199337005615234 L6.856363296508789 12.199337005615234 C6.873905181884766 12.257584571838379 6.976343631744385 12.278335571289062 7.031126976013184 12.25189208984375 L7.031126976013184 12.25189208984375 C7.102463245391846 12.25189208984375 7.173799991607666 12.25189208984375 7.245136260986328 12.25189208984375 L7.245136260986328 12.25189208984375 C7.0885467529296875 12.510202407836914 6.841197967529297 12.635382652282715 6.572727680206299 12.381817817687988 L6.572727680206299 12.381817817687988 C6.572727680206299 12.245453834533691 6.572727680206299 12.109090805053711 6.572727680206299 11.972726821899414 L6.572727680206299 11.972726821899414 C6.765118598937988 11.939335823059082 6.9575090408325195 11.905945777893066 7.149899959564209 11.872554779052734 L7.149899959564209 11.872554779052734"></path>
<path fill="none" stroke="black" stroke-width=".3" stroke-opacity="1.0"  filling="0" d="M6.940281391143799 11.947090148925781 L6.940281391143799 11.947090148925781 C6.957036018371582 11.988808631896973 6.973790645599365 12.030527114868164 6.990545272827148 12.072245597839355 L6.990545272827148 12.072245597839355 C6.932663440704346 12.072245597839355 6.874781608581543 12.072245597839355 6.81689977645874 12.072245597839355 L6.81689977645874 12.072245597839355 C6.85802698135376 12.030527114868164 6.899154186248779 11.988808631896973 6.940281391143799 11.947090148925781 L6.940281391143799 11.947090148925781"></path></svg>