<svg xmlns="http://www.w3.org/2000/svg" viewBox="0.0 0.0 24.0 24.0" height="200px" width="200px"><path fill="none" stroke="black" stroke-width=".3" stroke-opacity="1.0"  filling="0" d="M-0.3272724151611328 8.154544830322266 L-0.3272724151611328 8.154544830322266 C-0.4390907287597656 8.20345401763916 -0.5509090423583984 8.252364158630371 -0.6627273559570312 8.301273345947266 L-0.6627273559570312 8.301273345947266 C-0.6727727055549622 8.271727561950684 -0.6828181147575378 8.242182731628418 -0.6928634643554688 8.212636947631836 L-0.6928634643554688 8.212636947631836 C-0.8421453237533569 8.24271011352539 -0.9914270639419556 8.272782325744629 -1.1407089233398438 8.302855491638184 L-1.1407089233398438 8.302855491638184 C-1.1384273767471313 8.27147388458252 -1.1361459493637085 8.240091323852539 -1.133864402770996 8.208709716796875 L-1.133864402770996 8.208709716796875 C-1.2168912887573242 8.218728065490723 -1.2999181747436523 8.228745460510254 -1.3829450607299805 8.238763809204102 L-1.3829450607299805 8.238763809204102 C-1.3855997323989868 8.210691452026367 -1.3882545232772827 8.182618141174316 -1.390909194946289 8.154545783996582 L-1.390909194946289 8.154545783996582 C-1.0363636016845703 8.154545783996582 -0.6818180084228516 8.154544830322266 -0.3272724151611328 8.154544830322266 L-0.3272724151611328 8.154544830322266"></path></svg>