<svg xmlns="http://www.w3.org/2000/svg" viewBox="0.0 0.0 24.0 24.0" height="200px" width="200px"><path fill="none" stroke="black" stroke-width=".3" stroke-opacity="1.0"  filling="0" d="M14.651946067810059 11.212309837341309 L14.651946067810059 11.212309837341309 C14.804174423217773 11.357994079589844 14.972352981567383 11.546347618103027 14.97261905670166 11.757054328918457 L14.97261905670166 11.757054328918457 C15.141963958740234 11.757054328918457 15.311308860778809 11.757054328918457 15.480653762817383 11.757054328918457 L15.480653762817383 11.757054328918457 C15.495535850524902 11.576845169067383 15.510417938232422 11.396636962890625 15.525300025939941 11.21642780303955 L15.525300025939941 11.21642780303955 C15.63956356048584 11.21642780303955 15.753827095031738 11.21642780303955 15.868090629577637 11.21642780303955 L15.868090629577637 11.21642780303955 C15.857563018798828 11.710627555847168 15.84703540802002 12.204827308654785 15.836507797241211 12.699027061462402 L15.836507797241211 12.699027061462402 C15.722145080566406 12.71064567565918 15.607781410217285 12.722264289855957 15.49341869354248 12.733882904052734 L15.49341869354248 12.733882904052734 C15.49341869354248 12.516928672790527 15.49341869354248 12.299973487854004 15.49341869354248 12.083019256591797 L15.49341869354248 12.083019256591797 C15.210952758789062 12.084881782531738 14.93815803527832 12.42708969116211 14.922354698181152 12.70911979675293 L14.922354698181152 12.70911979675293 C14.813272476196289 12.70911979675293 14.704191207885742 12.70911979675293 14.595108985900879 12.70911979675293 L14.595108985900879 12.70911979675293 C14.605036735534668 12.215019226074219 14.61496353149414 11.720919609069824 14.62489128112793 11.226819038391113 L14.62489128112793 11.226819038391113 C14.633909225463867 11.221982955932617 14.642928123474121 11.217145919799805 14.651946067810059 11.212309837341309 L14.651946067810059 11.212309837341309"></path></svg>