<svg xmlns="http://www.w3.org/2000/svg" viewBox="0.0 0.0 24.0 24.0" height="200px" width="200px"><path fill="none" stroke="black" stroke-width=".3" stroke-opacity="1.0"  filling="0" d="M10.560708999633789 11.220000267028809 L10.560708999633789 11.220000267028809 C10.814436912536621 11.705747604370117 10.991470336914062 12.234877586364746 11.22354507446289 12.733635902404785 L11.22354507446289 12.733635902404785 C10.963313102722168 12.834517478942871 10.455207824707031 12.470212936401367 10.099526405334473 12.489381790161133 L10.099526405334473 12.489381790161133 C10.049363136291504 12.56698226928711 9.999199867248535 12.64458179473877 9.949036598205566 12.722182273864746 L9.949036598205566 12.722182273864746 C9.820954322814941 12.747712135314941 9.685999870300293 12.746121406555176 9.557236671447754 12.724282264709473 L9.557236671447754 12.724282264709473 C9.765117645263672 12.229982376098633 9.944330215454102 11.265326499938965 10.560708999633789 11.220000267028809 L10.560708999633789 11.220000267028809"></path>
<path fill="none" stroke="black" stroke-width=".3" stroke-opacity="1.0"  filling="0" d="M10.39423656463623 11.722445487976074 L10.39423656463623 11.722445487976074 C10.40615463256836 11.722445487976074 10.418072700500488 11.722445487976074 10.429990768432617 11.722445487976074 L10.429990768432617 11.722445487976074 C10.4832181930542 11.839200019836426 10.536444664001465 11.955955505371094 10.589672088623047 12.072710037231445 L10.589672088623047 12.072710037231445 C10.460772514343262 12.085428237915039 10.33187198638916 12.098145484924316 10.202972412109375 12.11086368560791 L10.202972412109375 12.11086368560791 C10.266727447509766 11.981390953063965 10.33048152923584 11.85191822052002 10.39423656463623 11.722445487976074 L10.39423656463623 11.722445487976074"></path></svg>