<svg xmlns="http://www.w3.org/2000/svg" viewBox="0.0 0.0 24.0 24.0" height="200px" width="200px"><path fill="none" stroke="black" stroke-width=".3" stroke-opacity="1.0"  filling="0" d="M16.828445434570312 11.211355209350586 L16.828445434570312 11.211355209350586 C16.943199157714844 11.211355209350586 17.057954788208008 11.211355209350586 17.17270851135254 11.211355209350586 L17.17270851135254 11.211355209350586 C17.362154006958008 11.708409309387207 17.55160140991211 12.205464363098145 17.741046905517578 12.702518463134766 L17.741046905517578 12.702518463134766 C17.6274471282959 12.702518463134766 17.513845443725586 12.702518463134766 17.400245666503906 12.702518463134766 L17.400245666503906 12.702518463134766 C17.196151733398438 12.303740501403809 16.732017517089844 12.358332633972168 16.519773483276367 12.704127311706543 L16.519773483276367 12.704127311706543 C16.41902732849121 12.694354057312012 16.318283081054688 12.684581756591797 16.21753692626953 12.674808502197266 L16.21753692626953 12.674808502197266 C16.421173095703125 12.186990737915039 16.62480926513672 11.699172973632812 16.828445434570312 11.211355209350586 L16.828445434570312 11.211355209350586"></path>
<path fill="none" stroke="black" stroke-width=".3" stroke-opacity="1.0"  filling="0" d="M16.984363555908203 11.70537281036377 L16.984363555908203 11.70537281036377 C17.036218643188477 11.8444185256958 17.088071823120117 11.983464241027832 17.13992691040039 12.122509956359863 L17.13992691040039 12.122509956359863 C17.025972366333008 12.122509956359863 16.912015914916992 12.122509956359863 16.79806137084961 12.122509956359863 L16.79806137084961 12.122509956359863 C16.86016273498535 11.983464241027832 16.92226219177246 11.8444185256958 16.984363555908203 11.70537281036377 L16.984363555908203 11.70537281036377"></path></svg>