<svg xmlns="http://www.w3.org/2000/svg" viewBox="0.0 0.0 24.0 24.0" height="200px" width="200px"><path fill="none" stroke="black" stroke-width=".3" stroke-opacity="1.0"  filling="0" d="M14.468099594116211 11.237181663513184 L14.468099594116211 11.237181663513184 C15.133670806884766 11.240925788879395 15.690897941589355 11.159095764160156 15.462709426879883 11.94924545288086 L15.462709426879883 11.94924545288086 C16.106952667236328 12.862564086914062 14.941869735717773 12.762707710266113 14.46812629699707 12.763364791870117 L14.46812629699707 12.763364791870117 C14.468117713928223 12.254636764526367 14.468108177185059 11.745909690856934 14.468099594116211 11.237181663513184 L14.468099594116211 11.237181663513184"></path>
<path fill="none" stroke="black" stroke-width=".3" stroke-opacity="1.0"  filling="0" d="M14.779036521911621 11.508927345275879 L14.779036521911621 11.508927345275879 C14.91008186340332 11.519100189208984 15.04112720489502 11.52927303314209 15.172172546386719 11.539445877075195 L15.172172546386719 11.539445877075195 C15.172746658325195 11.882782936096191 15.130675315856934 11.833412170410156 14.797444343566895 11.83639144897461 L14.797444343566895 11.83639144897461 C14.791308403015137 11.7272367477417 14.785172462463379 11.618082046508789 14.779036521911621 11.508927345275879 L14.779036521911621 11.508927345275879"></path>
<path fill="none" stroke="black" stroke-width=".3" stroke-opacity="1.0"  filling="0" d="M14.7745361328125 12.148445129394531 L14.7745361328125 12.148445129394531 C14.928690910339355 12.167535781860352 15.082844734191895 12.186627388000488 15.23699951171875 12.205718040466309 L15.23699951171875 12.205718040466309 C15.318450927734375 12.493207931518555 15.027567863464355 12.422504425048828 14.8994722366333 12.502799987792969 L14.8994722366333 12.502799987792969 C14.857827186584473 12.384681701660156 14.816181182861328 12.266563415527344 14.7745361328125 12.148445129394531 L14.7745361328125 12.148445129394531"></path></svg>