<svg xmlns="http://www.w3.org/2000/svg" viewBox="0.0 0.0 24.0 24.0" height="200px" width="200px"><path fill="none" stroke="black" stroke-width=".3" stroke-opacity="1.0"  filling="0" d="M16.7611083984375 11.513972282409668 L16.7611083984375 11.513972282409668 C16.81179428100586 11.580692291259766 16.801532745361328 11.683212280273438 16.78131866455078 11.764527320861816 L16.78131866455078 11.764527320861816 C16.86314582824707 11.78211784362793 16.944974899291992 11.79970932006836 17.02680206298828 11.817299842834473 L17.02680206298828 11.817299842834473 C16.874900817871094 12.219289779663086 16.57868003845215 12.447861671447754 16.381362915039062 12.821318626403809 L16.381362915039062 12.821318626403809 C16.38749885559082 12.829955101013184 16.39363670349121 12.838591575622559 16.39977264404297 12.847228050231934 L16.39977264404297 12.847228050231934 C16.756567001342773 12.74646282196045 16.975139617919922 12.37429428100586 17.290935516357422 12.272699356079102 L17.290935516357422 12.272699356079102 C17.290925979614258 12.518162727355957 17.290918350219727 12.763627052307129 17.290908813476562 13.009090423583984 L17.290908813476562 13.009090423583984 C17.184497833251953 12.86196517944336 17.110008239746094 12.65715217590332 17.155691146850586 12.48141860961914 L17.155691146850586 12.48141860961914 C16.83873748779297 12.650754928588867 16.52178192138672 12.820091247558594 16.2048282623291 12.98942756652832 L16.2048282623291 12.98942756652832 C16.24588966369629 12.47311782836914 16.498180389404297 12.28185749053955 16.798828125 11.879045486450195 L16.798828125 11.879045486450195 C16.222002029418945 11.948129653930664 15.967470169067383 12.581275939941406 15.441681861877441 12.778308868408203 L15.441681861877441 12.778308868408203 C15.832802772521973 12.458642959594727 16.222068786621094 12.13669490814209 16.609580993652344 11.812663078308105 L16.609580993652344 11.812663078308105 C16.59587860107422 11.701864242553711 16.66408348083496 11.569202423095703 16.7611083984375 11.513972282409668 L16.7611083984375 11.513972282409668"></path></svg>