<svg xmlns="http://www.w3.org/2000/svg" viewBox="0.0 0.0 24.0 24.0" height="200px" width="200px"><path fill="none" stroke="black" stroke-width=".3" stroke-opacity="1.0"  filling="0" d="M-10.687881469726562 7.476576328277588 L-10.687881469726562 7.476576328277588 C-9.40971851348877 7.640394687652588 -6.331270217895508 8.739028930664062 -6.780546188354492 10.565835952758789 L-6.780546188354492 10.565835952758789 C-8.478732109069824 10.467528343200684 -7.885906219482422 9.570233345031738 -9.151391983032227 8.868627548217773 C-10.72886848449707 7.994049549102783 -12.175859451293945 8.395652770996094 -13.187807083129883 9.858817100524902 C-13.400667190551758 10.16658878326416 -13.523385047912598 10.732099533081055 -13.582935333251953 11.066262245178223 C-13.924982070922852 12.985644340515137 -12.18714714050293 14.879895210266113 -10.25069808959961 14.66413688659668 C-9.326857566833496 14.561203002929688 -7.790091514587402 13.588190078735352 -8.002771377563477 12.488373756408691 L-8.002771377563477 12.488373756408691 C-8.856490135192871 12.380427360534668 -10.762150764465332 12.995739936828613 -10.202045440673828 11.509145736694336 L-10.202045440673828 11.509145736694336 C-9.046727180480957 11.51003646850586 -7.891369819641113 11.521233558654785 -6.7362518310546875 11.542773246765137 L-6.7362518310546875 11.542773246765137 C-6.7362518310546875 12.804424285888672 -6.838852882385254 14.117654800415039 -6.718990325927734 15.37497329711914 L-6.718990325927734 15.37497329711914 C-7.598515033721924 15.550268173217773 -7.837902069091797 15.477606773376465 -7.985862731933594 14.677092552185059 L-7.985862731933594 14.677092552185059 C-8.025680541992188 14.677092552185059 -8.065498352050781 14.677092552185059 -8.105316162109375 14.677092552185059 L-8.105316162109375 14.677092552185059 C-10.444173812866211 16.352336883544922 -12.897954940795898 15.331304550170898 -14.131217002868652 13.566385269165039 C-15.364479064941406 11.801466941833496 -15.37722110748291 9.292661666870117 -12.833999633789062 7.992358684539795 C-12.072722434997559 7.6031317710876465 -11.521900177001953 7.531368732452393 -10.687881469726562 7.476576328277588 L-10.687881469726562 7.476576328277588"></path></svg>