<svg xmlns="http://www.w3.org/2000/svg" viewBox="0.0 0.0 24.0 24.0" height="200px" width="200px"><path fill="none" stroke="black" stroke-width=".3" stroke-opacity="1.0"  filling="0" d="M12.146998405456543 10.496837615966797 L12.146998405456543 10.496837615966797 C13.127799987792969 10.667621612548828 13.448081016540527 11.460098266601562 13.569190979003906 12.361608505249023 L13.569190979003906 12.361608505249023 C12.80434513092041 12.361608505249023 12.03950023651123 12.361608505249023 11.274654388427734 12.361608505249023 L11.274654388427734 12.361608505249023 C11.566027641296387 13.482522964477539 12.63708782196045 12.879365921020508 13.479135513305664 12.757936477661133 L13.479135513305664 12.757936477661133 C12.95497989654541 15.210487365722656 8.92304801940918 12.795446395874023 10.961343765258789 10.848982810974121 C11.36544132232666 10.463090896606445 11.62260627746582 10.539358139038086 12.146998405456543 10.496837615966797 L12.146998405456543 10.496837615966797"></path>
<path fill="none" stroke="black" stroke-width=".3" stroke-opacity="1.0"  filling="0" d="M11.996726989746094 11.10512638092041 L11.996726989746094 11.10512638092041 C12.224254608154297 11.29679012298584 12.487290382385254 11.452890396118164 12.679308891296387 11.680118560791016 C12.839515686035156 11.869701385498047 11.36000919342041 11.848111152648926 11.261945724487305 11.788936614990234 L11.261945724487305 11.788936614990234 C11.387462615966797 11.478791236877441 11.693228721618652 11.245956420898438 11.996726989746094 11.10512638092041 L11.996726989746094 11.10512638092041"></path></svg>