<svg xmlns="http://www.w3.org/2000/svg" viewBox="0.0 0.0 24.0 24.0" height="200px" width="200px"><path fill="none" stroke="black" stroke-width=".3" stroke-opacity="1.0"  filling="0" d="M12.378518104553223 11.352327346801758 L12.378518104553223 11.352327346801758 C12.624719619750977 11.408493995666504 13.587034225463867 11.403218269348145 13.454127311706543 12.00515365600586 L13.454127311706543 12.00515365600586 C13.301081657409668 12.013026237487793 13.148036003112793 12.020899772644043 12.994990348815918 12.028772354125977 L12.994990348815918 12.028772354125977 C12.942717552185059 11.750532150268555 12.49453353881836 11.534483909606934 12.272972106933594 11.822127342224121 C12.12730884552002 12.011235237121582 13.500495910644531 12.371350288391113 13.540390014648438 12.907281875610352 C13.6321439743042 14.139893531799316 12.007935523986816 13.296530723571777 11.71058177947998 12.82150936126709 L11.71058177947998 12.82150936126709 C11.8650541305542 12.82150936126709 12.019527435302734 12.82150936126709 12.173999786376953 12.82150936126709 L12.173999786376953 12.82150936126709 C12.373193740844727 13.076409339904785 12.932731628417969 13.469301223754883 13.034263610839844 12.860809326171875 C13.113228797912598 12.387564659118652 11.193840980529785 12.809879302978516 11.923991203308105 11.529191970825195 L11.923991203308105 11.529191970825195 C12.079668998718262 11.482339859008789 12.228170394897461 11.4141845703125 12.378518104553223 11.352327346801758 L12.378518104553223 11.352327346801758"></path></svg>