<svg xmlns="http://www.w3.org/2000/svg" viewBox="0.0 0.0 24.0 24.0" height="200px" width="200px"><path fill="none" stroke="black" stroke-width=".3" stroke-opacity="1.0"  filling="0" d="M12.225000381469727 11.492209434509277 L12.225000381469727 11.492209434509277 C12.270082473754883 11.585599899291992 12.315163612365723 11.678991317749023 12.360245704650879 11.772381782531738 L12.360245704650879 11.772381782531738 C12.368790626525879 11.772518157958984 12.377336502075195 11.772655487060547 12.385881423950195 11.772791862487793 L12.385881423950195 11.772791862487793 C12.397481918334961 11.68651008605957 12.40908145904541 11.600228309631348 12.420681953430176 11.513946533203125 L12.420681953430176 11.513946533203125 C12.471755027770996 11.509237289428711 12.522828102111816 11.504528045654297 12.573901176452637 11.499818801879883 L12.573901176452637 11.499818801879883 C12.568137168884277 11.820082664489746 12.562374114990234 12.14034652709961 12.556610107421875 12.460610389709473 L12.556610107421875 12.460610389709473 C12.505982398986816 12.453265190124512 12.455355644226074 12.445919036865234 12.404727935791016 12.438573837280273 L12.404727935791016 12.438573837280273 C12.404727935791016 12.32214641571045 12.404727935791016 12.205718994140625 12.404727935791016 12.0892915725708 L12.404727935791016 12.0892915725708 C12.395345687866211 12.086210250854492 12.385964393615723 12.083127975463867 12.376582145690918 12.080046653747559 L12.376582145690918 12.080046653747559 C12.297728538513184 12.233624458312988 12.17026424407959 12.374226570129395 12.016091346740723 12.451910972595215 L12.016091346740723 12.451910972595215 C12.154348373413086 12.170863151550293 12.139881134033203 11.813411712646484 12.051465034484863 11.51293659210205 L12.051465034484863 11.51293659210205 C12.109310150146484 11.506027221679688 12.167155265808105 11.49911880493164 12.225000381469727 11.492209434509277 L12.225000381469727 11.492209434509277"></path></svg>