<svg xmlns="http://www.w3.org/2000/svg" viewBox="0.0 0.0 24.0 24.0" height="200px" width="200px"><path fill="none" stroke="black" stroke-width=".3" stroke-opacity="1.0"  filling="0" d="M8.149827003479004 9.508963584899902 L8.149827003479004 9.508963584899902 C8.022658348083496 11.194427490234375 8.018026351928711 12.875654220581055 8.01815414428711 14.582645416259766 L8.01815414428711 14.582645416259766 C8.14622688293457 14.573018074035645 8.274299621582031 14.563390731811523 8.402372360229492 14.553763389587402 L8.402372360229492 14.553763389587402 C8.937532424926758 14.301424026489258 9.132829666137695 14.282987594604492 9.461045265197754 13.750199317932129 L9.461045265197754 13.750199317932129 C9.444738388061523 14.889312744140625 8.418736457824707 15.511794090270996 7.228744983673096 14.849536895751953 L7.228744983673096 14.849536895751953 C7.825222015380859 14.110365867614746 7.542516708374023 10.520467758178711 7.283645153045654 9.60384464263916 L7.283645153045654 9.60384464263916 C7.294163227081299 9.580253601074219 7.304681301116943 9.556663513183594 7.315199375152588 9.533072471618652 L7.315199375152588 9.533072471618652 C7.593408584594727 9.525035858154297 7.871617794036865 9.517000198364258 8.149827003479004 9.508963584899902 L8.149827003479004 9.508963584899902"></path></svg>