<svg xmlns="http://www.w3.org/2000/svg" viewBox="0.0 0.0 24.0 24.0" height="200px" width="200px"><path fill="none" stroke="black" stroke-width=".3" stroke-opacity="1.0"  filling="0" d="M16.150197982788086 10.109536170959473 L16.150197982788086 10.109536170959473 C18.621654510498047 10.225556373596191 17.55226707458496 13.797040939331055 17.69236183166504 15.468218803405762 L17.69236183166504 15.468218803405762 C17.276870727539062 15.481201171875 16.861167907714844 15.4883394241333 16.445480346679688 15.4906644821167 L16.445480346679688 15.4906644821167 C16.445480346679688 15.356673240661621 16.445480346679688 15.222681999206543 16.445480346679688 15.088690757751465 L16.445480346679688 15.088690757751465 C16.436071395874023 15.085981369018555 16.426660537719727 15.083272933959961 16.417251586914062 15.08056354522705 L16.417251586914062 15.08056354522705 C15.219856262207031 16.351139068603516 13.76057243347168 14.69967269897461 14.35041618347168 13.340072631835938 C14.745365142822266 12.429707527160645 16.35175323486328 12.623966217041016 16.474552154541016 11.945564270019531 C16.65808868408203 10.931622505187988 15.635896682739258 10.809406280517578 15.531654357910156 11.83407211303711 L15.531654357910156 11.83407211303711 C15.138754844665527 11.842945098876953 14.745854377746582 11.851818084716797 14.352954864501953 11.86069107055664 L14.352954864501953 11.86069107055664 C14.276357650756836 10.499488830566406 14.82526969909668 10.150327682495117 16.150197982788086 10.109536170959473 L16.150197982788086 10.109536170959473"></path>
<path fill="none" stroke="black" stroke-width=".3" stroke-opacity="1.0"  filling="0" d="M16.439836502075195 13.281164169311523 L16.439836502075195 13.281164169311523 C16.44499397277832 15.137773513793945 14.654176712036133 13.876029968261719 16.439836502075195 13.281164169311523 L16.439836502075195 13.281164169311523"></path></svg>