<svg xmlns="http://www.w3.org/2000/svg" viewBox="0.0 0.0 24.0 24.0" height="200px" width="200px"><path fill="none" stroke="black" stroke-width=".3" stroke-opacity="1.0"  filling="0" d="M0.2613821029663086 18.97759246826172 L0.2613821029663086 18.97759246826172 C2.7202353477478027 18.996952056884766 5.179317474365234 18.995121002197266 7.638424396514893 18.989988327026367 C10.09753131866455 18.98485565185547 12.556663513183594 18.976423263549805 15.015615463256836 18.982576370239258 C17.474567413330078 18.98872947692871 19.93334197998047 19.00946807861328 22.39173126220703 19.062681198120117 C23.584701538085938 19.088504791259766 24.950626373291016 18.978818893432617 26.306838989257812 18.92445945739746 C27.66305160522461 18.870098114013672 29.009552001953125 18.871063232421875 30.163667678833008 19.118183135986328 L30.163667678833008 19.118183135986328 C27.694576263427734 19.118183135986328 25.225486755371094 19.118183135986328 22.75639533996582 19.118181228637695 C20.287303924560547 19.118179321289062 17.818212509155273 19.118179321289062 15.349122047424316 19.11817741394043 C12.88003158569336 19.118175506591797 10.410940170288086 19.118173599243164 7.941849231719971 19.1181697845459 C5.4727582931518555 19.118167877197266 3.003667116165161 19.118165969848633 0.5345763564109802 19.118162155151367 C-1.9345145225524902 19.118160247802734 -4.4036054611206055 19.11815643310547 -6.8726959228515625 19.118154525756836 L-6.8726959228515625 19.118154525756836 C-6.872706890106201 19.072710037231445 -6.872717380523682 19.027263641357422 -6.87272834777832 18.98181915283203 L-6.87272834777832 18.98181915283203 C-4.494706153869629 18.981796264648438 -2.1166160106658936 18.98763084411621 0.2613821029663086 18.97759246826172 L0.2613821029663086 18.97759246826172"></path></svg>