<svg xmlns="http://www.w3.org/2000/svg" viewBox="0.0 0.0 24.0 24.0" height="200px" width="200px"><path fill="none" stroke="black" stroke-width=".3" stroke-opacity="1.0"  filling="0" d="M8.887826919555664 11.485527992248535 L8.887826919555664 11.485527992248535 C9.017172813415527 11.642050743103027 9.163528442382812 11.825641632080078 9.163580894470215 12.028692245483398 L9.163580894470215 12.028692245483398 C9.054162979125977 12.028692245483398 8.944744110107422 12.028692245483398 8.835326194763184 12.028692245483398 L8.835326194763184 12.028692245483398 C8.834869384765625 11.915321350097656 8.806617736816406 11.785508155822754 8.724790573120117 11.707038879394531 L8.724790573120117 11.707038879394531 C8.732190132141113 11.819390296936035 8.761422157287598 11.94350814819336 8.839308738708496 12.024818420410156 L8.839308738708496 12.024818420410156 C9.771221160888672 12.618049621582031 8.353642463684082 13.322855949401855 8.39056396484375 12.31093692779541 L8.39056396484375 12.31093692779541 C8.491018295288086 12.31093692779541 8.591472625732422 12.31093692779541 8.691926956176758 12.31093692779541 L8.691926956176758 12.31093692779541 C8.711909294128418 12.427009582519531 8.731890678405762 12.543083190917969 8.751873016357422 12.65915584564209 L8.751873016357422 12.65915584564209 C8.919388771057129 12.408339500427246 7.764193534851074 11.49259090423584 8.887826919555664 11.485527992248535 L8.887826919555664 11.485527992248535"></path></svg>