<svg xmlns="http://www.w3.org/2000/svg" viewBox="0.0 0.0 24.0 24.0" height="200px" width="200px"><path fill="none" stroke="black" stroke-width=".3" stroke-opacity="1.0"  filling="0" d="M9.667609214782715 11.192071914672852 L9.667609214782715 11.192071914672852 C9.928500175476074 11.192071914672852 10.189391136169434 11.192071914672852 10.450282096862793 11.192071914672852 L10.450282096862793 11.192071914672852 C10.389290809631348 11.694092750549316 10.148314476013184 12.127497673034668 10.038381576538086 12.625771522521973 L10.038381576538086 12.625771522521973 C10.18083667755127 12.625771522521973 10.323290824890137 12.625771522521973 10.46574592590332 12.625771522521973 L10.46574592590332 12.625771522521973 C10.46574592590332 12.69230842590332 10.46574592590332 12.758844375610352 10.46574592590332 12.8253812789917 L10.46574592590332 12.8253812789917 C10.190218925476074 12.82136344909668 9.914690971374512 12.81734561920166 9.639163970947266 12.81332778930664 L9.639163970947266 12.81332778930664 C9.763066291809082 12.342061996459961 9.892356872558594 11.871861457824707 10.040727615356445 11.40771770477295 L10.040727615356445 11.40771770477295 C9.91635513305664 11.401636123657227 9.79198169708252 11.395554542541504 9.667609214782715 11.389472961425781 L9.667609214782715 11.389472961425781 C9.667609214782715 11.3236722946167 9.667609214782715 11.257872581481934 9.667609214782715 11.192071914672852 L9.667609214782715 11.192071914672852"></path></svg>