<svg xmlns="http://www.w3.org/2000/svg" viewBox="0.0 0.0 24.0 24.0" height="200px" width="200px"><path fill="none" stroke="black" stroke-width=".3" stroke-opacity="1.0"  filling="0" d="M21.010334014892578 4.325061798095703 C19.767452239990234 6.688787460327148 17.787275314331055 8.272478103637695 16.174341201782227 10.13117790222168 C14.45680046081543 12.110228538513184 12.667837142944336 14.027417182922363 10.910931587219238 15.972724914550781 C9.230508804321289 17.833110809326172 7.551212310791016 19.694622039794922 5.450121879577637 22.021793365478516 C9.848012924194336 22.021793365478516 13.691388130187988 22.021793365478516 17.920562744140625 22.021793365478516 C16.53933334350586 23.21012306213379 16.53933334350586 23.21012306213379 10.841756820678711 23.21012306213379 C8.523021697998047 23.21012306213379 6.204287052154541 23.21012306213379 3.885552406311035 23.21012306213379 C3.7533912658691406 22.95929718017578 3.6212291717529297 22.709033966064453 3.489068031311035 22.459331512451172 C8.524147033691406 16.882108688354492 13.558664321899414 11.305447578430176 19.086959838867188 5.182706356048584 C15.048436164855957 5.182706356048584 11.617294311523438 5.182706356048584 8.185588836669922 5.182706356048584 C9.729349136352539 3.9533214569091797 15.67381477355957 3.7300519943237305 21.010334014892578 4.325061798095703"></path></svg>