<svg xmlns="http://www.w3.org/2000/svg" viewBox="0.0 0.0 24.0 24.0" height="200px" width="200px"><path fill="none" stroke="black" stroke-width=".3" stroke-opacity="1.0"  filling="0" d="M16.895048141479492 7.502500534057617 L16.895048141479492 7.502500534057617 C17.019824981689453 7.534721374511719 17.144601821899414 7.56694221496582 17.269378662109375 7.599163055419922 L17.269378662109375 7.599163055419922 C17.258193969726562 8.913729667663574 17.103269577026367 10.848015785217285 16.68531036376953 12.684133529663086 C16.267353057861328 14.520251274108887 15.586359024047852 16.25819969177246 14.523033142089844 17.180091857910156 C12.94754695892334 18.5460205078125 9.727336883544922 18.97079086303711 8.802085876464844 16.580890655517578 C8.023452758789062 14.56969928741455 9.01681137084961 11.736696243286133 9.404204368591309 9.73415756225586 C9.547798156738281 8.991881370544434 9.629340171813965 8.193462371826172 10.035157203674316 7.555570602416992 L10.035157203674316 7.555570602416992 C10.182151794433594 7.583684921264648 10.329146385192871 7.611799240112305 10.476140975952148 7.639913558959961 L10.476140975952148 7.639913558959961 C10.272233009338379 8.774256706237793 9.766759872436523 10.400039672851562 9.440658569335938 12.018147468566895 C9.114556312561035 13.636255264282227 8.967824935913086 15.246688842773438 9.481400489807129 16.35033416748047 C10.398099899291992 18.32027244567871 12.961872100830078 17.756439208984375 14.156904220581055 16.529403686523438 C15.230610847473145 15.426942825317383 15.643760681152344 13.841428756713867 15.924176216125488 12.1959228515625 C16.204591751098633 10.55041790008545 16.352275848388672 8.844922065734863 16.895048141479492 7.502500534057617 L16.895048141479492 7.502500534057617"></path></svg>