<svg xmlns="http://www.w3.org/2000/svg" viewBox="0.0 0.0 24.0 24.0" height="200px" width="200px"><path fill="none" stroke="black" stroke-width=".3" stroke-opacity="1.0"  filling="0" d="M11.282526016235352 3.598851203918457 C10.863321304321289 6.2594122886657715 10.44411563873291 8.91997241973877 9.98713493347168 11.81872844696045 C11.267834663391113 11.145063400268555 12.262068748474121 10.451985359191895 13.363858222961426 10.074752807617188 C16.42893409729004 9.025954246520996 18.70596694946289 10.637190818786621 18.456750869750977 13.849695205688477 C18.25580406188965 16.442049026489258 17.59945297241211 19.00029945373535 17.125682830810547 21.57009506225586 C17.04855728149414 21.98877716064453 16.869647979736328 22.38909339904785 16.737957000732422 22.797801971435547 C16.454116821289062 22.537044525146484 16.17027473449707 22.275239944458008 15.886957168579102 22.013431549072266 C16.320327758789062 19.717512130737305 16.74740219116211 17.42001724243164 17.189693450927734 15.125672340393066 C17.46671485900879 13.690197944641113 17.52022933959961 12.285676956176758 16.156108856201172 11.350729942321777 C14.701221466064453 10.353872299194336 13.32188606262207 10.935722351074219 12.010231018066406 11.765213966369629 C10.365941047668457 12.804043769836426 9.43676471710205 14.337106704711914 9.037496566772461 16.20227813720703 C8.672332763671875 17.9079532623291 8.373800277709961 19.627796173095703 8.009684562683105 21.33346939086914 C7.934133052825928 21.6876163482666 7.699084281921387 22.00818634033203 7.451444149017334 22.522354125976562 C6.680716037750244 20.519195556640625 9.587343215942383 5.0437703132629395 11.282526016235352 3.598851203918457"></path></svg>