<svg xmlns="http://www.w3.org/2000/svg" viewBox="0.0 0.0 24.0 24.0" height="200px" width="200px"><path fill="none" stroke="black" stroke-width=".3" stroke-opacity="1.0"  filling="0" d="M14.789189338684082 7.552334308624268 L14.789189338684082 7.552334308624268 C12.900405883789062 8.142903327941895 12.484247207641602 8.710911750793457 11.780344009399414 10.553513526916504 L11.780344009399414 10.553513526916504 C12.371106147766113 10.661031723022461 12.961867332458496 10.768549919128418 13.552629470825195 10.876068115234375 L13.552629470825195 10.876068115234375 C13.55380916595459 10.984373092651367 13.554987907409668 11.09267807006836 13.556167602539062 11.200983047485352 L13.556167602539062 11.200983047485352 C12.96314525604248 11.259950637817383 12.370123863220215 11.31891918182373 11.777101516723633 11.377886772155762 L11.777101516723633 11.377886772155762 C11.319578170776367 13.603414535522461 10.86215591430664 15.828957557678223 10.404913902282715 18.05454444885254 L10.404913902282715 18.05454444885254 C9.744565963745117 15.999245643615723 10.626823425292969 13.604713439941406 10.990761756896973 11.503488540649414 L10.990761756896973 11.503488540649414 C10.655135154724121 11.343586921691895 10.31950855255127 11.183685302734375 9.983881950378418 11.023783683776855 L9.983881950378418 11.023783683776855 C10.36147403717041 10.872825622558594 10.739066123962402 10.721867561340332 11.116658210754395 10.57090950012207 L11.116658210754395 10.57090950012207 C12.122614860534668 8.271706581115723 12.223886489868164 7.118448734283447 14.789189338684082 7.552334308624268 L14.789189338684082 7.552334308624268"></path></svg>