<svg xmlns="http://www.w3.org/2000/svg" viewBox="0.0 0.0 24.0 24.0" height="200px" width="200px"><path fill="none" stroke="black" stroke-width=".3" stroke-opacity="1.0"  filling="0" d="M13.19308090209961 10.229331016540527 L13.19308090209961 10.229331016540527 C14.720473289489746 10.474991798400879 15.427132606506348 10.33478832244873 16.591035842895508 11.466464042663574 C18.421371459960938 13.24612045288086 18.322908401489258 15.638181686401367 17.21649169921875 17.584543228149414 C16.110074996948242 19.530906677246094 13.995706558227539 21.03156852722168 11.794233322143555 21.028427124023438 C10.047048568725586 21.02593421936035 8.714620590209961 20.20953369140625 7.943652153015137 18.99909019470215 C7.172683238983154 17.788644790649414 6.963174819946289 16.18415641784668 7.4618306159973145 14.605485916137695 C7.901919364929199 13.212230682373047 8.673060417175293 12.242095947265625 9.66501522064209 11.558323860168457 C10.656970024108887 10.874551773071289 11.869738578796387 10.477140426635742 13.19308090209961 10.229331016540527 L13.19308090209961 10.229331016540527"></path>
<path fill="none" stroke="black" stroke-width=".3" stroke-opacity="1.0"  filling="0" d="M13.3762845993042 11.116922378540039 L13.3762845993042 11.116922378540039 C14.892170906066895 11.571928024291992 15.645859718322754 11.447851181030273 16.42022132873535 13.037269592285156 C17.176986694335938 14.590570449829102 16.896312713623047 16.38658332824707 15.995304107666016 17.783475875854492 C15.094295501708984 19.180370330810547 13.572953224182129 20.178146362304688 11.848382949829102 20.134971618652344 C8.88195514678955 20.06070899963379 7.771326065063477 17.18235969543457 8.58472728729248 14.66185474395752 C9.337931632995605 12.327882766723633 11.132755279541016 11.435050010681152 13.3762845993042 11.116922378540039 L13.3762845993042 11.116922378540039"></path></svg>