<svg xmlns="http://www.w3.org/2000/svg" viewBox="0.0 0.0 24.0 24.0" height="200px" width="200px"><path fill="none" stroke="black" stroke-width=".3" stroke-opacity="1.0"  filling="0" d="M16.638248443603516 3.9502553939819336 C18.816875457763672 4.813902854919434 19.845333099365234 6.835293292999268 19.700904846191406 9.968999862670898 C19.44582748413086 15.509038925170898 15.319189071655273 20.94076156616211 10.237470626831055 22.35765838623047 C9.38255786895752 22.595844268798828 8.473485946655273 22.64068603515625 7.5894551277160645 22.775211334228516 C7.485213756561279 22.431617736816406 7.380970478057861 22.08802032470703 7.277309417724609 21.74442481994629 C12.176748275756836 21.302993774414062 15.345979690551758 18.691083908081055 17.51412582397461 14.021097183227539 C16.202056884765625 14.630833625793457 15.321520805358887 15.131085395812988 14.381000518798828 15.46070384979248 C10.825078010559082 16.706382751464844 7.699524402618408 14.525425910949707 8.029725074768066 10.783146858215332 C8.173569679260254 9.154853820800781 8.944038391113281 7.400187015533447 9.924741744995117 6.067152976989746 C11.634565353393555 3.7423505783081055 14.401382446289062 3.0633134841918945 16.638248443603516 3.9502553939819336"></path>
<path fill="none" stroke="black" stroke-width=".3" stroke-opacity="1.0"  filling="0" d="M14.701301574707031 4.751590728759766 C16.977184295654297 4.7824554443359375 18.431934356689453 6.644277572631836 18.34166717529297 9.409347534179688 C18.251981735229492 12.161604881286621 15.54980754852295 14.680917739868164 12.766683578491211 14.608121871948242 C10.666092872619629 14.553380012512207 9.296952247619629 13.059614181518555 9.281810760498047 10.807024002075195 C9.260263442993164 7.604598045349121 11.847711563110352 4.712571620941162 14.701301574707031 4.751590728759766"></path></svg>