<svg xmlns="http://www.w3.org/2000/svg" viewBox="0.0 0.0 24.0 24.0" height="200px" width="200px"><path fill="none" stroke="black" stroke-width=".3" stroke-opacity="1.0"  filling="0" d="M9.594298362731934 6.847692489624023 C10.392767906188965 9.492571830749512 11.180742263793945 12.103139877319336 11.96871566772461 14.713706016540527 C12.111616134643555 14.75044059753418 12.254114151000977 14.787175178527832 12.397015571594238 14.824313163757324 C14.065808296203613 12.137451171875 15.734197616577148 9.450185775756836 17.341632843017578 6.861820697784424 C18.876808166503906 6.861820697784424 20.24930191040039 6.861820697784424 21.62179946899414 6.861820697784424 C21.64642333984375 6.965565204620361 21.67104721069336 7.069309711456299 21.69567108154297 7.173054218292236 C21.394935607910156 7.304248809814453 21.045753479003906 7.376910209655762 20.803951263427734 7.578747749328613 C20.33205795288086 7.9723310470581055 19.591716766357422 8.400226593017578 19.536413192749023 8.880196571350098 C19.175527572631836 12.003026962280273 18.968441009521484 15.144023895263672 18.708879470825195 18.30681800842285 C19.544082641601562 18.585758209228516 20.133852005004883 18.782751083374023 20.72402572631836 18.979745864868164 C20.716354370117188 19.131122589111328 20.70868682861328 19.2820987701416 20.70101547241211 19.433475494384766 C18.69394302368164 19.92434310913086 16.63600730895996 19.480304718017578 14.46786880493164 19.480304718017578 C16.415599822998047 18.53207015991211 16.12455177307129 16.722797393798828 16.384113311767578 15.184796333312988 C16.672338485717773 13.478460311889648 16.827350616455078 11.749521255493164 17.040491104125977 10.030672073364258 C16.895570755004883 9.972947120666504 16.750652313232422 9.914817810058594 16.605327606201172 9.857091903686523 C15.12263011932373 12.52255916595459 13.636701583862305 15.186007499694824 12.16005802154541 17.854703903198242 C11.785447120666504 18.531261444091797 11.635279655456543 19.448816299438477 10.29548168182373 19.253032684326172 C9.573710441589355 16.098310470581055 8.863242149353027 12.993645668029785 8.1527738571167 9.8889799118042 C8.008258819580078 9.899072647094727 7.863742828369141 9.909566879272461 7.719226837158203 9.919659614562988 C7.185971736907959 12.646484375 6.652717113494873 15.373311042785645 6.106140613555908 18.16754913330078 C6.685414791107178 18.523591995239258 7.194448947906494 18.836034774780273 7.7034831047058105 19.148883819580078 C7.674418926239014 19.253437042236328 7.644949913024902 19.357990264892578 7.6158857345581055 19.46213722229004 C5.91318416595459 19.46213722229004 4.210482597351074 19.46213722229004 2.4956703186035156 19.46213722229004 C2.5154504776000977 19.14646339416504 2.5085878372192383 18.91031265258789 2.5340194702148438 18.906681060791016 C4.505972862243652 18.632583618164062 4.936290740966797 17.15028953552246 5.308478355407715 15.529533386230469 C5.860302448272705 13.12605094909668 6.519907474517822 10.747598648071289 7.152062892913818 8.28558349609375 C6.262363433837891 7.883119106292725 5.620520114898682 7.59328031539917 4.9786763191223145 7.303038120269775 C4.9790802001953125 7.168210506439209 4.979483604431152 7.033382892608643 4.980291843414307 6.898555755615234 C6.4722747802734375 6.624460220336914 7.9925150871276855 6.726186275482178 9.594298362731934 6.847692489624023"></path></svg>