<svg xmlns="http://www.w3.org/2000/svg" viewBox="0.0 0.0 24.0 24.0" height="200px" width="200px"><path fill="none" stroke="black" stroke-width=".3" stroke-opacity="1.0"  filling="0" d="M17.590259552001953 8.624791145324707 L17.590259552001953 8.624791145324707 C17.111202239990234 9.059310913085938 16.474763870239258 9.367254257202148 16.15308952331543 9.928349494934082 C15.048521041870117 11.8550386428833 15.560354232788086 14.994345664978027 14.766951560974121 17.1445255279541 L14.766951560974121 17.1445255279541 C13.98778247833252 16.099475860595703 13.208610534667969 15.054427146911621 12.429435729980469 14.009381294250488 C11.650260925292969 12.964334487915039 10.871084213256836 11.919290542602539 10.09190559387207 10.874245643615723 L10.09190559387207 10.874245643615723 C9.979188919067383 10.897439002990723 9.866472244262695 10.920633316040039 9.753755569458008 10.943826675415039 L9.753755569458008 10.943826675415039 C9.436297416687012 13.085407257080078 9.0040283203125 14.462668418884277 10.007174491882324 16.445117950439453 L10.007174491882324 16.445117950439453 C8.934954643249512 16.445117950439453 7.862734317779541 16.445117950439453 6.79051399230957 16.445117950439453 L6.79051399230957 16.445117950439453 C6.849850177764893 15.929910659790039 7.657835483551025 15.848455429077148 7.979494571685791 15.441644668579102 C8.768890380859375 14.443276405334473 8.976714134216309 11.827118873596191 9.095685005187988 10.621082305908203 C9.134325981140137 10.229366302490234 9.27263355255127 9.764559745788574 9.048216819763184 9.441184043884277 C8.923367500305176 9.26128101348877 7.846111297607422 8.870722770690918 7.438314437866211 8.717223167419434 L7.438314437866211 8.717223167419434 C9.269096374511719 8.265403747558594 10.500618934631348 8.883380889892578 11.526365280151367 9.93935489654541 C12.552111625671387 10.995329856872559 13.372081756591797 12.489301681518555 14.379759788513184 13.789472579956055 L14.379759788513184 13.789472579956055 C14.494016647338867 13.769274711608887 14.608274459838867 13.749075889587402 14.72253131866455 13.728878021240234 L14.72253131866455 13.728878021240234 C14.909585952758789 12.255520820617676 15.096561431884766 10.782157897949219 15.283547401428223 9.308793067932129 L15.283547401428223 9.308793067932129 C14.861780166625977 9.10732364654541 14.440011978149414 8.905855178833008 14.018244743347168 8.704385757446289 L14.018244743347168 8.704385757446289 C15.180718421936035 8.445428848266602 16.40836524963379 8.478060722351074 17.590259552001953 8.624791145324707 L17.590259552001953 8.624791145324707"></path></svg>