<svg xmlns="http://www.w3.org/2000/svg" viewBox="0.0 0.0 24.0 24.0" height="200px" width="200px"><path fill="none" stroke="black" stroke-width=".3" stroke-opacity="1.0"  filling="0" d="M8.448995590209961 7.617722034454346 L8.448995590209961 7.617722034454346 C8.818805694580078 7.617722034454346 9.188614845275879 7.617722034454346 9.558424949645996 7.617722034454346 L9.558424949645996 7.617722034454346 C9.94701099395752 8.845098495483398 9.793471336364746 10.229425430297852 9.678389549255371 11.6075439453125 C9.563307762145996 12.985661506652832 9.48668384552002 14.35757064819336 10.029101371765137 15.560111045837402 C11.041322708129883 17.804208755493164 13.62789535522461 17.756553649902344 14.626906394958496 15.513139724731445 C15.094293594360352 14.463560104370117 15.153806686401367 13.054726600646973 15.095953941345215 11.630610466003418 C15.038101196289062 10.206494331359863 14.862882614135742 8.767095565795898 14.860807418823242 7.656386852264404 L14.860807418823242 7.656386852264404 C15.284085273742676 7.656386852264404 15.707364082336426 7.656386852264404 16.13064193725586 7.656386852264404 L16.13064193725586 7.656386852264404 C16.144638061523438 8.947287559509277 16.37127113342285 10.714649200439453 16.395959854125977 12.44077205657959 C16.420650482177734 14.166894912719727 16.243398666381836 15.85177993774414 15.449628829956055 16.97772789001465 C14.040640830993652 18.976350784301758 10.315572738647461 18.938922882080078 9.022645950317383 16.83388900756836 C8.310502052307129 15.67443561553955 8.161914825439453 14.017719268798828 8.193950653076172 12.327202796936035 C8.22598648071289 10.636687278747559 8.43864631652832 8.912371635437012 8.448995590209961 7.617722034454346 L8.448995590209961 7.617722034454346"></path></svg>