<svg xmlns="http://www.w3.org/2000/svg" viewBox="0.0 0.0 24.0 24.0" height="200px" width="200px"><path fill="none" stroke="black" stroke-width=".3" stroke-opacity="1.0"  filling="0" d="M5.687102794647217 4.209283351898193 C6.54260778427124 4.209283351898193 7.089653491973877 4.209283351898193 7.659421920776367 4.209283351898193 C7.7679219245910645 4.538193225860596 7.925844192504883 4.797229766845703 7.928116321563721 5.057971954345703 C7.957655429840088 8.273782730102539 7.921867370605469 11.490161895751953 7.997988224029541 14.704269409179688 C8.026959419250488 15.918790817260742 8.157613754272461 17.169668197631836 8.496180534362793 18.329086303710938 C9.089239120483398 20.35991668701172 10.4724760055542 21.307449340820312 12.460700035095215 21.322786331176758 C14.586397171020508 21.33869171142578 16.088924407958984 20.341739654541016 16.670055389404297 18.245582580566406 C16.99214744567871 17.083890914916992 17.050090789794922 15.825060844421387 17.068269729614258 14.607699394226074 C17.11825942993164 11.216924667358398 17.085880279541016 7.825581073760986 17.085880279541016 4.27802038192749 C17.991939544677734 4.27802038192749 18.684978485107422 4.27802038192749 19.343364715576172 4.27802038192749 C19.343364715576172 8.808900833129883 19.613195419311523 13.249459266662598 19.261564254760742 17.640594482421875 C18.957651138305664 21.434696197509766 15.980993270874023 23.530853271484375 12.111908912658691 23.404741287231445 C8.559803009033203 23.288288116455078 5.969431400299072 21.115442276000977 5.747885704040527 17.43836212158203 C5.487712860107422 13.123347282409668 5.687102794647217 8.780496597290039 5.687102794647217 4.209283351898193"></path></svg>