<svg xmlns="http://www.w3.org/2000/svg" viewBox="0.0 0.0 24.0 24.0" height="200px" width="200px"><path fill="none" stroke="black" stroke-width=".3" stroke-opacity="1.0"  filling="0" d="M9.688545227050781 7.517543315887451 L9.688545227050781 7.517543315887451 C10.508853912353516 8.942160606384277 11.3291654586792 10.36677360534668 12.149489402770996 11.791380882263184 L12.149489402770996 11.791380882263184 C12.967164039611816 10.396360397338867 13.78484058380127 9.001343727111816 14.602506637573242 7.606317520141602 L14.602506637573242 7.606317520141602 C15.1057710647583 7.606317520141602 15.609036445617676 7.606317520141602 16.112300872802734 7.606317520141602 L16.112300872802734 7.606317520141602 C15.065752029418945 9.342018127441406 14.01930046081543 11.077779769897461 12.972868919372559 12.81355094909668 L12.972868919372559 12.81355094909668 C14.052498817443848 14.625829696655273 15.132108688354492 16.438121795654297 16.211854934692383 18.250329971313477 L16.211854934692383 18.250329971313477 C15.712712287902832 18.272735595703125 15.213568687438965 18.29513931274414 14.714426040649414 18.31754493713379 L14.714426040649414 18.31754493713379 C13.829540252685547 16.844566345214844 12.94457721710205 15.371646881103516 12.059446334838867 13.89881420135498 L12.059446334838867 13.89881420135498 C11.24670124053955 15.349191665649414 10.43399429321289 16.799589157104492 9.621330261230469 18.250011444091797 L9.621330261230469 18.250011444091797 C9.110668182373047 18.250011444091797 8.600006103515625 18.250011444091797 8.089344024658203 18.250011444091797 L8.089344024658203 18.250011444091797 C8.87439250946045 16.910465240478516 10.980374336242676 14.54026985168457 11.004105567932129 12.938667297363281 C11.027515411376953 11.358747482299805 8.976754188537598 9.01086139678955 8.224407196044922 7.681141376495361 L8.224407196044922 7.681141376495361 C8.71245288848877 7.626608848571777 9.200499534606934 7.572075843811035 9.688545227050781 7.517543315887451 L9.688545227050781 7.517543315887451"></path></svg>