<svg xmlns="http://www.w3.org/2000/svg" viewBox="0.0 0.0 24.0 24.0" height="200px" width="200px"><path fill="none" stroke="black" stroke-width=".3" stroke-opacity="1.0"  filling="0" d="M10.1127347946167 9.072797775268555 L10.1127347946167 9.072797775268555 C10.833677291870117 10.980497360229492 11.554572105407715 12.88821792602539 12.275508880615234 14.795919418334961 L12.275508880615234 14.795919418334961 C12.922739028930664 12.917064666748047 13.570059776306152 11.038240432739258 14.217320442199707 9.159395217895508 L14.217320442199707 9.159395217895508 C14.703415870666504 9.159395217895508 15.1895112991333 9.159395217895508 15.675606727600098 9.159395217895508 L15.675606727600098 9.159395217895508 C14.948543548583984 10.980391502380371 14.346783638000488 13.210819244384766 13.45341682434082 15.209959030151367 C12.560050964355469 17.20909881591797 11.375078201293945 18.976951599121094 9.481592178344727 19.872798919677734 L9.481592178344727 19.872798919677734 C9.36582088470459 19.543668746948242 9.25005054473877 19.214536666870117 9.134279251098633 18.885406494140625 L9.134279251098633 18.885406494140625 C9.88054084777832 18.348918914794922 11.082910537719727 17.707956314086914 11.314040184020996 16.663808822631836 C11.490209579467773 15.867950439453125 10.751614570617676 14.31564712524414 10.483927726745605 13.639546394348145 C9.891382217407227 12.1429443359375 9.301119804382324 10.645435333251953 8.709921836853027 9.148301124572754 L8.709921836853027 9.148301124572754 C9.177526473999023 9.123133659362793 9.645130157470703 9.097965240478516 10.1127347946167 9.072797775268555 L10.1127347946167 9.072797775268555"></path></svg>