<svg xmlns="http://www.w3.org/2000/svg" viewBox="0.0 0.0 24.0 24.0" height="200px" width="200px"><path fill="none" stroke="black" stroke-width=".3" stroke-opacity="1.0"  filling="0" d="M9.409249305725098 7.697351455688477 L9.409249305725098 7.697351455688477 C10.040037155151367 7.697351455688477 10.670825004577637 7.697351455688477 11.301612854003906 7.697351455688477 L11.301612854003906 7.697351455688477 C11.301612854003906 9.22878646850586 11.301612854003906 10.760221481323242 11.301612854003906 12.291656494140625 C11.301612854003906 13.823091506958008 11.301612854003906 15.35452651977539 11.301612854003906 16.885961532592773 L11.301612854003906 16.885961532592773 C12.745431900024414 16.885961532592773 14.189253807067871 16.885961532592773 15.633071899414062 16.885961532592773 L15.633071899414062 16.885961532592773 C15.69241714477539 17.423091888427734 15.751762390136719 17.960220336914062 15.811107635498047 18.497350692749023 L15.811107635498047 18.497350692749023 C13.677152633666992 18.497350692749023 11.543204307556152 18.497350692749023 9.409249305725098 18.497350692749023 L9.409249305725098 18.497350692749023 C9.409249305725098 16.697351455688477 9.409249305725098 14.897351264953613 9.409249305725098 13.09735107421875 C9.409249305725098 11.297351837158203 9.409249305725098 9.497350692749023 9.409249305725098 7.697351455688477 L9.409249305725098 7.697351455688477"></path></svg>