<svg xmlns="http://www.w3.org/2000/svg" viewBox="0.0 0.0 24.0 24.0" height="200px" width="200px"><path fill="none" stroke="black" stroke-width=".3" stroke-opacity="1.0"  filling="0" d="M7.431973934173584 7.768918991088867 L7.431973934173584 7.768918991088867 C8.925893783569336 7.768918991088867 10.419812202453613 7.768918991088867 11.913731575012207 7.768918991088867 L11.913731575012207 7.768918991088867 C11.941232681274414 7.828438758850098 11.968734741210938 7.887958526611328 11.996235847473145 7.947478294372559 L11.996235847473145 7.947478294372559 C11.545169830322266 8.196699142456055 11.09410285949707 8.44591999053955 10.643036842346191 8.695140838623047 L10.643036842346191 8.695140838623047 C11.016090393066406 10.606785774230957 11.389091491699219 12.518448829650879 11.761970520019531 14.430127143859863 L11.761970520019531 14.430127143859863 C11.872076988220215 14.454216003417969 11.982184410095215 14.478304862976074 12.092290878295898 14.50239372253418 L12.092290878295898 14.50239372253418 C13.311358451843262 12.598556518554688 14.330212593078613 10.676604270935059 15.234097480773926 8.60450553894043 L15.234097480773926 8.60450553894043 C14.884706497192383 8.449131965637207 14.535316467285156 8.293757438659668 14.185925483703613 8.138383865356445 L14.185925483703613 8.138383865356445 C15.55158519744873 7.322382926940918 16.735307693481445 7.705893516540527 18.23197364807129 8.017335891723633 L18.23197364807129 8.017335891723633 C16.293373107910156 9.090351104736328 15.272909164428711 10.934625625610352 14.278459548950195 12.773687362670898 C13.28400993347168 14.612750053405762 12.31557559967041 16.44659996032715 10.481038093566895 17.498764038085938 L10.481038093566895 17.498764038085938 C10.135748863220215 15.893268585205078 9.93397045135498 14.07061767578125 9.538270950317383 12.34443473815918 C9.142571449279785 10.618252754211426 8.552949905395508 8.98853874206543 7.431973934173584 7.768918991088867 L7.431973934173584 7.768918991088867"></path></svg>