<svg xmlns="http://www.w3.org/2000/svg" viewBox="0.0 0.0 24.0 24.0" height="200px" width="200px"><path fill="none" stroke="black" stroke-width=".3" stroke-opacity="1.0"  filling="0" d="M11.221915245056152 4.2570600509643555 C13.656661987304688 3.8991641998291016 15.990327835083008 4.481552600860596 17.4166202545166 6.706498146057129 C18.870532989501953 8.975519180297852 18.65250587463379 11.441411972045898 17.32259178161621 13.662832260131836 C16.430500030517578 15.152593612670898 15.166993141174316 16.43020248413086 14.001628875732422 17.741899490356445 C13.24470043182373 18.594619750976562 12.3655366897583 19.338619232177734 11.133176803588867 20.523963928222656 C13.9410982131958 20.523963928222656 16.14371109008789 20.523963928222656 18.56670570373535 20.523963928222656 C18.661907196044922 21.51537322998047 18.740657806396484 22.32989501953125 18.839387893676758 23.358917236328125 C14.489400863647461 23.358917236328125 10.330409049987793 23.358917236328125 5.295779228210449 23.358917236328125 C6.045655727386475 22.04428482055664 6.392385005950928 21.066978454589844 7.041180610656738 20.37293243408203 C8.708420753479004 18.588153839111328 10.569005966186523 16.984384536743164 12.233896255493164 15.197257041931152 C13.087790489196777 14.281068801879883 14.027486801147461 13.210321426391602 14.307220458984375 12.058473587036133 C14.597533226013184 10.860200881958008 14.582841873168945 9.093055725097656 13.882329940795898 8.288525581359863 C13.18769645690918 7.49045991897583 11.47579288482666 7.377625942230225 10.20170783996582 7.351180553436279 C9.301974296569824 7.3329620361328125 8.389311790466309 7.959425449371338 7.345597267150879 8.349056243896484 C7.0070953369140625 7.640904903411865 6.687986850738525 6.973890781402588 6.149674415588379 5.849076747894287 C7.965596675872803 5.259048938751221 9.556438446044922 4.5021209716796875 11.221915245056152 4.2570600509643555"></path></svg>