<svg xmlns="http://www.w3.org/2000/svg" viewBox="0.0 0.0 24.0 24.0" height="200px" width="200px"><path fill="none" stroke="black" stroke-width=".3" stroke-opacity="1.0"  filling="0" d="M9.534544944763184 4.238903045654297 C13.514925956726074 2.4592247009277344 17.5269718170166 4.285813808441162 18.79649543762207 8.482569694519043 C20.631881713867188 14.549306869506836 17.427873611450195 23.697498321533203 7.543768882751465 22.68305206298828 C7.543768882751465 21.968246459960938 7.543768882751465 21.234094619750977 7.543768882751465 20.631290435791016 C9.536890983581543 19.868989944458008 11.574579238891602 19.270877838134766 13.416999816894531 18.30158233642578 C14.247906684875488 17.86472511291504 14.689455032348633 16.687265396118164 15.307504653930664 15.845804214477539 C15.170289993286133 15.681617736816406 15.032488822937012 15.51684284210205 14.894689559936523 15.352655410766602 C14.367528915405273 15.523880004882812 13.849751472473145 15.732633590698242 13.312036514282227 15.860464096069336 C9.830083847045898 16.68902587890625 6.855938911437988 15.257661819458008 5.933556079864502 12.328082084655762 C4.933769702911377 9.15046215057373 6.5199408531188965 5.586415767669678 9.534544944763184 4.238903045654297"></path>
<path fill="none" stroke="black" stroke-width=".3" stroke-opacity="1.0"  filling="0" d="M12.559704780578613 6.379794597625732 C14.322378158569336 6.4601287841796875 15.656988143920898 8.321901321411133 15.6153564453125 10.642812728881836 C15.584864616394043 12.352124214172363 14.142943382263184 13.594673156738281 12.292899131774902 13.506715774536133 C10.437578201293945 13.418758392333984 9.243111610412598 12.023161888122559 9.26480770111084 9.969056129455566 C9.287676811218262 7.776562690734863 10.650434494018555 6.291836261749268 12.559704780578613 6.379794597625732"></path></svg>