<svg xmlns="http://www.w3.org/2000/svg" viewBox="0.0 0.0 24.0 24.0" height="200px" width="200px"><path fill="none" stroke="black" stroke-width=".3" stroke-opacity="1.0"  filling="0" d="M15.25373363494873 5.2202324867248535 C17.186132431030273 5.2202324867248535 19.075878143310547 5.2202324867248535 21.28702735900879 5.2202324867248535 C20.94478988647461 5.669604301452637 20.761768341064453 6.100128650665283 20.60106658935547 6.092192649841309 C17.546228408813477 5.939426422119141 16.24969482421875 8.379229545593262 14.532060623168945 10.177711486816406 C14.084177017211914 10.646924018859863 13.751363754272461 11.2267427444458 13.274215698242188 11.88145637512207 C14.240415573120117 13.861968040466309 15.028553009033203 15.9754056930542 16.250686645507812 17.798686981201172 C16.991703033447266 18.90426254272461 18.403804779052734 19.56046485900879 19.450355529785156 20.368938446044922 C18.36709976196289 20.986454010009766 14.846025466918945 21.141700744628906 11.740596771240234 20.554439544677734 C12.167649269104004 20.009838104248047 12.533197402954102 19.543601989746094 13.010842323303223 18.93352699279785 C12.401759147644043 17.49811553955078 11.767876625061035 16.003185272216797 10.926668167114258 14.02019214630127 C9.589960098266602 15.89356803894043 8.473472595214844 17.45793914794922 7.307882785797119 19.090757369995117 C7.921925067901611 19.557985305786133 8.387665748596191 19.912124633789062 9.358328819274902 20.650665283203125 C6.529165744781494 20.65066146850586 4.307600498199463 20.65066146850586 2.0865306854248047 20.65066146850586 C6.234048843383789 19.49697494506836 7.712612152099609 15.61878490447998 10.271950721740723 13.038614273071289 C8.95706558227539 8.202654838562012 7.952178001403809 6.847594738006592 4.913707733154297 5.690931797027588 C6.157168865203857 4.922138690948486 7.966561794281006 4.800620079040527 12.390348434448242 5.2237043380737305 C11.967264175415039 5.781203746795654 11.613123893737793 6.247935771942139 11.140935897827148 6.869418144226074 C11.569972038269043 7.8762898445129395 12.035216331481934 8.968472480773926 12.637850761413574 10.382061004638672 C13.935376167297363 8.66145133972168 16.019054412841797 7.840082168579102 15.25373363494873 5.2202324867248535"></path></svg>