<svg xmlns="http://www.w3.org/2000/svg" viewBox="0.0 0.0 24.0 24.0" height="200px" width="200px"><path fill="none" stroke="black" stroke-width=".3" stroke-opacity="1.0"  filling="0" d="M10.199729919433594 7.686760425567627 L10.199729919433594 7.686760425567627 C11.63602066040039 7.686760425567627 13.072314262390137 7.686760425567627 14.508604049682617 7.686760425567627 L14.508604049682617 7.686760425567627 C14.535773277282715 8.126423835754395 14.562941551208496 8.56608772277832 14.590110778808594 9.00575065612793 L14.590110778808594 9.00575065612793 C13.706469535827637 9.066094398498535 12.822830200195312 9.126469612121582 11.939192771911621 9.186877250671387 L11.939192771911621 9.186877250671387 C11.939192771911621 10.23353099822998 11.939192771911621 11.280183792114258 11.939192771911621 12.326837539672852 L11.939192771911621 12.326837539672852 C12.707475662231445 12.381438255310059 13.475754737854004 12.436105728149414 14.244029998779297 12.490821838378906 L14.244029998779297 12.490821838378906 C14.280901908874512 12.901483535766602 14.317773818969727 13.31214427947998 14.354645729064941 13.722805976867676 L14.354645729064941 13.722805976867676 C13.537527084350586 13.8046293258667 12.72040843963623 13.886460304260254 11.903290748596191 13.968297958374023 L11.903290748596191 13.968297958374023 C11.903290748596191 15.474452018737793 11.903290748596191 16.98060417175293 11.903290748596191 18.486759185791016 L11.903290748596191 18.486759185791016 C11.335436820983887 18.486759185791016 10.767583847045898 18.486759185791016 10.199729919433594 18.486759185791016 L10.199729919433594 18.486759185791016 C10.199729919433594 16.68675994873047 10.199729919433594 14.886759757995605 10.199729919433594 13.086759567260742 C10.199729919433594 11.286759376525879 10.199729919433594 9.486760139465332 10.199729919433594 7.686760425567627 L10.199729919433594 7.686760425567627"></path></svg>