<svg xmlns="http://www.w3.org/2000/svg" viewBox="0.0 0.0 24.0 24.0" height="200px" width="200px"><path fill="none" stroke="black" stroke-width=".3" stroke-opacity="1.0"  filling="0" d="M17.346546173095703 4.1326375007629395 C17.49319839477539 4.544281005859375 17.661930084228516 4.7990803718566895 17.663063049316406 5.053879261016846 C17.680049896240234 9.010635375976562 17.744598388671875 12.969654083251953 17.63701629638672 16.9235782623291 C17.601909637451172 18.203237533569336 17.27180290222168 19.540653228759766 16.778059005737305 20.72745132446289 C15.9610013961792 22.69110870361328 14.265169143676758 23.43002700805664 12.193931579589844 23.322444915771484 C10.227444648742676 23.220523834228516 8.792073249816895 22.293054580688477 8.053720474243164 20.443775177001953 C7.77740478515625 19.75185203552246 7.501655101776123 18.998779296875 7.493728160858154 18.27118492126465 C7.442201137542725 13.671201705932617 7.46711540222168 9.070087432861328 7.46711540222168 4.196620941162109 C8.503866195678711 4.196620941162109 9.232592582702637 4.196620941162109 9.98566722869873 4.196620941162109 C10.10230827331543 4.52389669418335 10.26991081237793 4.77756404876709 10.272175788879395 5.032362937927246 C10.30331802368164 8.801132202148438 10.278970718383789 12.570467948913574 10.351446151733398 16.338104248046875 C10.370697975158691 17.352771759033203 10.5026273727417 18.435955047607422 10.903512001037598 19.346439361572266 C11.142457962036133 19.890010833740234 12.007078170776367 20.469255447387695 12.585189819335938 20.464160919189453 C13.15367603302002 20.459064483642578 14.01433277130127 19.846410751342773 14.216473579406738 19.302837371826172 C14.598106384277344 18.276845932006836 14.720975875854492 17.11099624633789 14.737397193908691 16.00063705444336 C14.794585227966309 12.154295921325684 14.759479522705078 8.306255340576172 14.759479522705078 4.265133380889893 C15.761125564575195 4.214173793792725 16.55100440979004 4.17340612411499 17.346546173095703 4.1326375007629395"></path></svg>