<svg xmlns="http://www.w3.org/2000/svg" viewBox="0.0 0.0 24.0 24.0" height="200px" width="200px"><path fill="none" stroke="black" stroke-width=".3" stroke-opacity="1.0"  filling="0" d="M9.344501495361328 7.682663917541504 L9.344501495361328 7.682663917541504 C11.195932388305664 7.682663917541504 13.047365188598633 7.682663917541504 14.898796081542969 7.682663917541504 L14.898796081542969 7.682663917541504 C14.945680618286133 8.139052391052246 14.992565155029297 8.595439910888672 15.039449691772461 9.051828384399414 L15.039449691772461 9.051828384399414 C14.396391868591309 9.1343355178833 13.75333309173584 9.216843605041504 13.110275268554688 9.29935073852539 L13.110275268554688 9.29935073852539 C13.110275268554688 10.829902648925781 13.110275268554688 12.360454559326172 13.110275268554688 13.891006469726562 C13.110275268554688 15.421558380126953 13.110275268554688 16.952110290527344 13.110275268554688 18.482662200927734 L13.110275268554688 18.482662200927734 C12.531966209411621 18.482553482055664 11.953658103942871 18.482446670532227 11.375349044799805 18.482337951660156 L11.375349044799805 18.482337951660156 C11.375349044799805 16.955955505371094 11.375349044799805 15.429571151733398 11.375349044799805 13.90318775177002 C11.375349044799805 12.37680435180664 11.375349044799805 10.850420951843262 11.375349044799805 9.324037551879883 L11.375349044799805 9.324037551879883 C10.763150215148926 9.250733375549316 10.15095043182373 9.177430152893066 9.538751602172852 9.1041259765625 L9.538751602172852 9.1041259765625 C9.47400188446045 8.630305290222168 9.40925121307373 8.156484603881836 9.344501495361328 7.682663917541504 L9.344501495361328 7.682663917541504"></path></svg>