<svg xmlns="http://www.w3.org/2000/svg" viewBox="0.0 0.0 24.0 24.0" height="200px" width="200px"><path fill="none" stroke="black" stroke-width=".3" stroke-opacity="1.0"  filling="0" d="M14.537909507751465 5.706671237945557 C15.584732055664062 5.706671237945557 16.406253814697266 5.706671237945557 17.360740661621094 5.706671237945557 C17.360740661621094 11.989712715148926 17.360740661621094 18.174087524414062 17.360740661621094 24.50251007080078 C16.18675994873047 24.379037857055664 14.753183364868164 25.32297134399414 14.470373153686523 23.144380569458008 C11.180586814880371 25.966684341430664 8.287053108215332 25.366764068603516 7.250784397125244 21.57520294189453 C6.630289077758789 19.303747177124023 6.555365085601807 16.681415557861328 7.002796649932861 14.365640640258789 C7.75045108795166 10.494403839111328 10.424490928649902 9.605871200561523 14.537909507751465 11.578160285949707 C14.537909507751465 9.598485946655273 14.537909507751465 7.716949462890625 14.537909507751465 5.706671237945557"></path>
<path fill="none" stroke="black" stroke-width=".3" stroke-opacity="1.0"  filling="0" d="M12.04273796081543 13.590019226074219 C12.822050094604492 13.753585815429688 13.599252700805664 14.576691627502441 14.083089828491211 15.300602912902832 C14.488312721252441 15.907907485961914 14.467734336853027 16.799604415893555 14.64712905883789 17.619016647338867 C14.438714981079102 18.55081558227539 14.419720649719238 19.597108840942383 13.96068000793457 20.388031005859375 C13.5802583694458 21.04281997680664 12.609942436218262 21.859066009521484 12.029546737670898 21.769371032714844 C11.259203910827637 21.650653839111328 10.162257194519043 20.81963348388672 10.009243965148926 20.118938446044922 C9.683167457580566 18.624156951904297 9.726433753967285 16.99905014038086 9.903717994689941 15.460474967956543 C10.027711868286133 14.385160446166992 10.845013618469238 13.338866233825684 12.04273796081543 13.590019226074219"></path></svg>