<svg xmlns="http://www.w3.org/2000/svg" viewBox="0.0 0.0 24.0 24.0" height="200px" width="200px"><path fill="none" stroke="black" stroke-width=".3" stroke-opacity="1.0"  filling="0" d="M12.895513534545898 4.127586841583252 C16.209646224975586 4.175166130065918 18.254995346069336 5.915780067443848 18.619205474853516 9.179502487182617 C19.050251007080078 13.0458984375 18.220443725585938 16.69648551940918 16.045949935913086 19.941516876220703 C13.71399211883545 23.422176361083984 10.25938606262207 23.665740966796875 6.06729793548584 23.080059051513672 C7.293601036071777 16.62908363342285 8.446269989013672 10.563271522521973 9.621027946472168 4.380776882171631 C10.856393814086914 4.279387474060059 11.877653121948242 4.112860202789307 12.895513534545898 4.127586841583252"></path>
<path fill="none" stroke="black" stroke-width=".3" stroke-opacity="1.0"  filling="0" d="M12.016992568969727 6.580193519592285 C14.152969360351562 6.2788567543029785 15.220674514770508 7.199859142303467 15.522577285766602 8.897424697875977 C16.19491958618164 12.678290367126465 15.497088432312012 16.23541831970215 13.10792064666748 19.276538848876953 C12.436711311340332 20.130701065063477 11.194547653198242 20.53626251220703 10.214072227478027 21.147430419921875 C9.93199348449707 20.93558692932129 9.64991569519043 20.72317886352539 9.367837905883789 20.510772705078125 C10.253155708312988 15.856483459472656 11.137906074523926 11.202195167541504 12.016992568969727 6.580193519592285"></path></svg>