<svg xmlns="http://www.w3.org/2000/svg" viewBox="0.0 0.0 24.0 24.0" height="200px" width="200px"><path fill="none" stroke="black" stroke-width=".3" stroke-opacity="1.0"  filling="0" d="M14.921472549438477 7.902760028839111 L14.921472549438477 7.902760028839111 C14.847755432128906 8.294950485229492 14.774038314819336 8.687141418457031 14.700321197509766 9.07933235168457 L14.700321197509766 9.07933235168457 C14.30673599243164 9.080619812011719 13.894046783447266 8.962058067321777 13.519564628601074 9.083195686340332 C10.035037994384766 10.210372924804688 13.359423637390137 12.306321144104004 14.0044527053833 14.06442928314209 C14.814521789550781 16.272377014160156 13.227492332458496 18.557201385498047 10.859010696411133 18.452362060546875 C10.21725082397461 18.4239559173584 9.608284950256348 18.158536911010742 8.982921600341797 18.01162338256836 L8.982921600341797 18.01162338256836 C9.12563419342041 17.628339767456055 9.268345832824707 17.245054244995117 9.41105842590332 16.861770629882812 L9.41105842590332 16.861770629882812 C9.898533821105957 16.907373428344727 10.396698951721191 17.109880447387695 10.87348461151123 16.998580932617188 C14.579289436340332 16.133502960205078 11.060327529907227 13.414689064025879 10.445764541625977 11.757508277893066 C9.721135139465332 9.803531646728516 11.08191967010498 7.756883144378662 13.161996841430664 7.660745143890381 C13.753379821777344 7.6334123611450195 14.334980964660645 7.822088241577148 14.921472549438477 7.902760028839111 L14.921472549438477 7.902760028839111"></path></svg>