<svg xmlns="http://www.w3.org/2000/svg" viewBox="0.0 0.0 24.0 24.0" height="200px" width="200px"><path fill="none" stroke="black" stroke-width=".3" stroke-opacity="1.0"  filling="0" d="M14.914290428161621 4.256300926208496 C15.82056713104248 4.256300926208496 16.624568939208984 4.256300926208496 17.79164695739746 4.256300926208496 C16.420583724975586 6.733078956604004 15.343847274780273 9.046783447265625 13.925056457519531 11.128664016723633 C12.678427696228027 12.957695007324219 12.653428077697754 14.75377082824707 13.097758293151855 16.753829956054688 C13.563682556152344 18.849349975585938 13.918238639831543 20.969867706298828 14.393819808959961 23.45630645751953 C13.139806747436523 23.38016700744629 12.405125617980957 23.335845947265625 11.551691055297852 23.284141540527344 C11.176679611206055 21.063617706298828 10.817009925842285 18.933443069458008 10.338018417358398 16.099834442138672 C8.955591201782227 18.76923179626465 7.828853607177734 20.9454345703125 6.628818035125732 23.26311492919922 C5.785043239593506 23.26311492919922 4.903198719024658 23.26311492919922 3.763960838317871 23.26311492919922 C5.271960258483887 20.518714904785156 6.607227325439453 17.92034339904785 8.109543800354004 15.42310905456543 C8.899908065795898 14.108865737915039 9.089686393737793 12.854283332824707 8.782291412353516 11.38094425201416 C8.30386734008789 9.087125778198242 7.963516712188721 6.7643303871154785 7.532253742218018 4.267096519470215 C8.557852745056152 4.267096519470215 9.36583137512207 4.267096519470215 10.363019943237305 4.267096519470215 C10.698823928833008 6.3086347579956055 11.032925605773926 8.337671279907227 11.460210800170898 10.935476303100586 C12.752294540405273 8.43710708618164 13.834712982177734 6.343294620513916 14.914290428161621 4.256300926208496"></path></svg>