<svg xmlns="http://www.w3.org/2000/svg" viewBox="0.0 0.0 24.0 24.0" height="200px" width="200px"><path fill="none" stroke="black" stroke-width=".3" stroke-opacity="1.0"  filling="0" d="M16.972225189208984 8.57614517211914 C16.972225189208984 13.716134071350098 17.145090103149414 18.7082462310791 16.903385162353516 23.680984497070312 C16.771316528320312 26.39834213256836 14.432315826416016 27.671104431152344 11.214214324951172 27.353424072265625 C8.402008056640625 27.075517654418945 7.239901065826416 25.698734283447266 7.21542501449585 22.436267852783203 C8.517759323120117 22.550491333007812 9.682926177978516 22.414852142333984 10.731830596923828 23.717187881469727 C11.803681373596191 25.048587799072266 13.816843032836914 24.32195281982422 14.223249435424805 22.61066436767578 C14.395602226257324 21.885555267333984 14.34104061126709 21.106399536132812 14.389993667602539 20.342540740966797 C14.114126205444336 20.342540740966797 13.920866966247559 20.280841827392578 13.82755184173584 20.351722717285156 C10.845032691955566 22.604034423828125 8.50654125213623 21.93960952758789 7.223073959350586 18.387510299682617 C6.421480655670166 16.1683406829834 6.429129123687744 13.865033149719238 7.131798267364502 11.632606506347656 C8.302573204040527 7.911209583282471 11.077045440673828 7.118794918060303 14.250274658203125 9.737232208251953 C14.686256408691406 7.9407854080200195 15.894254684448242 8.663341522216797 16.972225189208984 8.57614517211914"></path>
<path fill="none" stroke="black" stroke-width=".3" stroke-opacity="1.0"  filling="0" d="M12.048952102661133 11.107385635375977 C13.388001441955566 11.179794311523438 14.362966537475586 12.705473899841309 14.403250694274902 14.791555404663086 C14.445064544677734 16.960752487182617 13.411967277526855 18.6220703125 11.982662200927734 18.683259963989258 C10.538570404052734 18.74496078491211 9.561055183410645 17.191234588623047 9.58298110961914 14.867022514343262 C9.583491325378418 14.782885551452637 9.593179702758789 14.699259757995605 9.597258567810059 14.615121841430664 C9.701282501220703 12.376065254211426 10.641064643859863 11.031408309936523 12.048952102661133 11.107385635375977"></path></svg>