<svg xmlns="http://www.w3.org/2000/svg" viewBox="0.0 0.0 24.0 24.0" height="200px" width="200px"><path fill="none" stroke="black" stroke-width=".3" stroke-opacity="1.0"  filling="0" d="M12.998849868774414 4.1185784339904785 C12.641691207885742 6.457485675811768 12.320987701416016 8.556577682495117 12.001424789428711 10.647125244140625 C12.311304092407227 10.711493492126465 12.52035903930664 10.828268051147461 12.630867958068848 10.767317771911621 C13.8920316696167 10.071798324584961 15.178258895874023 9.252098083496094 16.566452026367188 10.356043815612793 C17.862934112548828 11.387076377868652 17.69375228881836 12.861852645874023 17.436279296875 14.281944274902344 C16.89626693725586 17.255990982055664 16.323787689208984 20.223770141601562 15.741625785827637 23.31914710998535 C14.797176361083984 23.31914710998535 13.987730026245117 23.31914710998535 13.069483757019043 23.31914710998535 C13.100813865661621 19.652429580688477 14.929900169372559 16.21413230895996 14.38988971710205 12.419816970825195 C11.994019508361816 12.268865585327148 11.485907554626465 13.940732955932617 11.088305473327637 15.4041166305542 C10.39563274383545 17.950939178466797 9.95189094543457 20.564979553222656 9.374284744262695 23.28952407836914 C8.424139022827148 23.289527893066406 7.544057846069336 23.289527893066406 6.553468704223633 23.289527893066406 C7.792417049407959 16.88515853881836 8.993769645690918 10.676745414733887 10.230440139770508 4.282632350921631 C11.095709800720215 4.231365203857422 11.892054557800293 4.184085845947266 12.998849868774414 4.1185784339904785"></path></svg>