<svg xmlns="http://www.w3.org/2000/svg" viewBox="0.0 0.0 24.0 24.0" height="200px" width="200px"><path fill="none" stroke="black" stroke-width=".3" stroke-opacity="1.0"  filling="0" d="M14.447249412536621 10.584823608398438 L14.447249412536621 10.584823608398438 C14.74195671081543 10.9313325881958 15.105790138244629 11.229337692260742 15.33137035369873 11.624349594116211 C16.32564353942871 13.365413665771484 15.746732711791992 14.50063705444336 14.616286277770996 15.264263153076172 C13.48583984375 16.027889251708984 11.80385971069336 16.419918060302734 10.591996192932129 16.674589157104492 L10.591996192932129 16.674589157104492 C11.132034301757812 19.331335067749023 11.518316268920898 19.087167739868164 14.22442626953125 18.866958618164062 L14.22442626953125 18.866958618164062 C14.402973175048828 19.33555793762207 14.455202102661133 19.85131072998047 14.460251808166504 20.35274887084961 L14.460251808166504 20.35274887084961 C13.114004135131836 20.72077178955078 11.69433307647705 21.222824096679688 10.282925605773926 20.719955444335938 C8.402992248535156 20.050155639648438 8.17788314819336 17.763486862182617 8.304059982299805 16.093881607055664 C8.424627304077148 14.498498916625977 9.108793258666992 12.81532096862793 10.188633918762207 11.683944702148438 C11.268473625183105 10.552569389343262 12.743988037109375 9.97299575805664 14.447249412536621 10.584823608398438 L14.447249412536621 10.584823608398438"></path>
<path fill="none" stroke="black" stroke-width=".3" stroke-opacity="1.0"  filling="0" d="M13.07937240600586 12.025331497192383 L13.07937240600586 12.025331497192383 C12.150406837463379 12.587018966674805 11.374959945678711 13.487105369567871 10.942148208618164 14.482667922973633 L10.942148208618164 14.482667922973633 C13.21446418762207 14.248723030090332 13.748274803161621 14.28994369506836 13.07937240600586 12.025331497192383 L13.07937240600586 12.025331497192383"></path></svg>