<svg xmlns="http://www.w3.org/2000/svg" viewBox="0.0 0.0 24.0 24.0" height="200px" width="200px"><path fill="none" stroke="black" stroke-width=".3" stroke-opacity="1.0"  filling="0" d="M13.127823829650879 8.394762992858887 L13.127823829650879 8.394762992858887 C13.127823829650879 8.978652000427246 13.127823829650879 9.562540054321289 13.127823829650879 10.146429061889648 L13.127823829650879 10.146429061889648 C12.623941421508789 10.146429061889648 12.120059967041016 10.146429061889648 11.616177558898926 10.146429061889648 L11.616177558898926 10.146429061889648 C11.616177558898926 9.584786415100098 11.616177558898926 9.023144721984863 11.616177558898926 8.461502075195312 L11.616177558898926 8.461502075195312 C12.120059967041016 8.439255714416504 12.623941421508789 8.417009353637695 13.127823829650879 8.394762992858887 L13.127823829650879 8.394762992858887"></path>
<path fill="none" stroke="black" stroke-width=".3" stroke-opacity="1.0"  filling="0" d="M11.625754356384277 11.451874732971191 L11.625754356384277 11.451874732971191 C12.132729530334473 11.451874732971191 12.639703750610352 11.451874732971191 13.146678924560547 11.451874732971191 L13.146678924560547 11.451874732971191 C13.146678924560547 12.720956802368164 13.146678924560547 13.990039825439453 13.146678924560547 15.259122848510742 C13.146678924560547 16.52820587158203 13.146678924560547 17.79728889465332 13.146678924560547 19.06637191772461 L13.146678924560547 19.06637191772461 C12.639703750610352 19.109169006347656 12.132729530334473 19.15196418762207 11.625754356384277 19.194761276245117 L11.625754356384277 19.194761276245117 C11.625754356384277 17.904281616210938 11.625754356384277 16.613800048828125 11.625754356384277 15.323318481445312 C11.625754356384277 14.0328369140625 11.625754356384277 12.742355346679688 11.625754356384277 11.451874732971191 L11.625754356384277 11.451874732971191"></path></svg>