<svg xmlns="http://www.w3.org/2000/svg" viewBox="0.0 0.0 24.0 24.0" height="200px" width="200px"><path fill="none" stroke="black" stroke-width=".3" stroke-opacity="1.0"  filling="0" d="M15.2072114944458 10.032387733459473 L15.2072114944458 10.032387733459473 C15.252665519714355 10.580510139465332 15.533225059509277 11.160484313964844 15.343572616577148 11.676755905151367 C14.849522590637207 13.021655082702637 12.909685134887695 13.316818237304688 12.288857460021973 14.822951316833496 C11.530198097229004 16.66346549987793 11.359856605529785 18.888595581054688 10.984458923339844 20.832387924194336 L10.984458923339844 20.832387924194336 C10.25584602355957 20.832387924194336 9.527234077453613 20.832387924194336 8.79862117767334 20.832387924194336 L8.79862117767334 20.832387924194336 C9.113100051879883 19.103565216064453 9.427553176879883 17.374740600585938 9.74199104309082 15.64591121673584 C10.056428909301758 13.917082786560059 10.370851516723633 12.188251495361328 10.68526840209961 10.459418296813965 L10.68526840209961 10.459418296813965 C11.159490585327148 10.43796157836914 11.669205665588379 10.213765144348145 12.107934951782227 10.395049095153809 C12.476412773132324 10.5473051071167 12.590997695922852 11.029463768005371 12.832529067993164 11.346671104431152 L12.832529067993164 11.346671104431152 C12.90340805053711 11.307442665100098 15.202316284179688 10.035097122192383 15.2072114944458 10.032387733459473 L15.2072114944458 10.032387733459473"></path></svg>