<svg xmlns="http://www.w3.org/2000/svg" viewBox="0.0 0.0 24.0 24.0" height="200px" width="200px"><path fill="none" stroke="black" stroke-width=".3" stroke-opacity="1.0"  filling="0" d="M15.261059761047363 10.737326622009277 L15.261059761047363 10.737326622009277 C15.195160865783691 11.204607963562012 15.129262924194336 11.67188835144043 15.063364028930664 12.139169692993164 L15.063364028930664 12.139169692993164 C14.611136436462402 12.149001121520996 14.129155158996582 12.007038116455078 13.706682205200195 12.168663024902344 C10.524308204650879 13.386138916015625 13.476555824279785 15.106429100036621 14.260087013244629 16.750911712646484 C15.404380798339844 19.15256690979004 13.16609001159668 21.301218032836914 10.812024116516113 21.217613220214844 C10.056081771850586 21.190765380859375 9.331043243408203 20.908788681030273 8.590553283691406 20.754377365112305 L8.590553283691406 20.754377365112305 C8.657988548278809 20.312288284301758 8.725422859191895 19.87019920349121 8.792858123779297 19.428110122680664 L8.792858123779297 19.428110122680664 C9.571441650390625 19.432376861572266 10.395711898803711 19.755033493041992 11.127822875976562 19.490034103393555 C12.775534629821777 18.893619537353516 11.819616317749023 17.33743667602539 11.232028007507324 16.452072143554688 C9.984493255615234 14.572314262390137 8.711238861083984 12.3358736038208 11.462220191955566 10.840415954589844 C11.964601516723633 10.567317008972168 12.554195404052734 10.43730640411377 13.125798225402832 10.421794891357422 C13.845016479492188 10.402276992797852 14.54930591583252 10.632149696350098 15.261059761047363 10.737326622009277 L15.261059761047363 10.737326622009277"></path></svg>