<svg xmlns="http://www.w3.org/2000/svg" viewBox="0.0 0.0 24.0 24.0" height="200px" width="200px"><path fill="none" stroke="black" stroke-width=".3" stroke-opacity="1.0"  filling="0" d="M11.621732711791992 10.219491004943848 L11.621732711791992 10.219491004943848 C11.621732711791992 12.449203491210938 11.621732711791992 14.678924560546875 11.621732711791992 16.90863800048828 L11.621732711791992 16.90863800048828 C11.778116226196289 16.952001571655273 11.934499740600586 16.9953670501709 12.090883255004883 17.03873062133789 L12.090883255004883 17.03873062133789 C12.985644340515137 14.808309555053711 13.880256652832031 12.577831268310547 14.77479076385498 10.347318649291992 L14.77479076385498 10.347318649291992 C15.52044677734375 10.347318649291992 16.266101837158203 10.347318649291992 17.01175880432129 10.347318649291992 L17.01175880432129 10.347318649291992 C16.208736419677734 12.126002311706543 15.40573787689209 13.904696464538574 14.602746963500977 15.683393478393555 C13.79975700378418 17.46209144592285 12.996772766113281 19.24079132080078 12.193779945373535 21.019489288330078 L12.193779945373535 21.019489288330078 C11.436338424682617 21.019489288330078 10.6788969039917 21.019489288330078 9.921455383300781 21.019489288330078 L9.921455383300781 21.019489288330078 C9.813909530639648 19.243820190429688 9.706438064575195 17.468143463134766 9.598960876464844 15.692469596862793 C9.491483688354492 13.916793823242188 9.384000778198242 12.141119003295898 9.276429176330566 10.365449905395508 L9.276429176330566 10.365449905395508 C10.058197021484375 10.316788673400879 10.839963912963867 10.268136978149414 11.621732711791992 10.219491004943848 L11.621732711791992 10.219491004943848"></path></svg>