<svg xmlns="http://www.w3.org/2000/svg" viewBox="0.0 0.0 24.0 24.0" height="200px" width="200px"><path fill="none" stroke="black" stroke-width=".3" stroke-opacity="1.0"  filling="0" d="M7.8569016456604 4.25494909286499 C8.930669784545898 4.25494909286499 9.827749252319336 4.25494909286499 11.02309799194336 4.25494909286499 C10.58222770690918 6.930848121643066 10.161242485046387 9.48232650756836 9.740824699401855 12.033235549926758 C9.874903678894043 12.09970760345459 10.008415222167969 12.166747093200684 10.142494201660156 12.233217239379883 C11.998579025268555 10.137380599975586 13.975676536560059 8.134149551391602 15.673820495605469 5.917868614196777 C17.095853805541992 4.062351703643799 18.771841049194336 3.827713966369629 21.13640594482422 4.354371547698975 C18.555950164794922 7.129125118255615 16.135143280029297 9.731735229492188 13.620593070983887 12.43547248840332 C15.103984832763672 16.033447265625 16.5623779296875 19.56949806213379 18.103717803955078 23.30893898010254 C16.775426864624023 23.30893898010254 15.762449264526367 23.30893898010254 14.607439041137695 23.30893898010254 C13.448450088500977 20.55179786682129 12.288894653320312 17.792949676513672 11.07934284210205 14.91479778289795 C9.228370666503906 15.626666069030762 8.687509536743164 16.981090545654297 8.4256010055542 18.611629486083984 C8.175054550170898 20.174556732177734 7.787020683288574 21.715898513793945 7.452391147613525 23.302120208740234 C6.361011028289795 23.3021240234375 5.447456359863281 23.3021240234375 4.265174865722656 23.3021240234375 C5.4974517822265625 16.768043518066406 6.666666030883789 10.566888809204102 7.8569016456604 4.25494909286499"></path></svg>