<svg xmlns="http://www.w3.org/2000/svg" viewBox="0.0 0.0 24.0 24.0" height="200px" width="200px"><path fill="none" stroke="black" stroke-width=".3" stroke-opacity="1.0"  filling="0" d="M8.399202346801758 7.615531921386719 L8.399202346801758 7.615531921386719 C9.041436195373535 7.615531921386719 9.683670043945312 7.615531921386719 10.32590389251709 7.615531921386719 L10.32590389251709 7.615531921386719 C10.782583236694336 9.204655647277832 11.239166259765625 10.793810844421387 11.69569206237793 12.382978439331055 L11.69569206237793 12.382978439331055 C12.688809394836426 10.800166130065918 13.682003021240234 9.217401504516602 14.675267219543457 7.634680271148682 L14.675267219543457 7.634680271148682 C15.073925018310547 7.634680271148682 16.50003433227539 7.634680271148682 16.832393646240234 7.634680271148682 L16.832393646240234 7.634680271148682 C15.605913162231445 9.375263214111328 14.385265350341797 10.937530517578125 13.42790412902832 12.618758201599121 C12.47054386138916 14.299985885620117 11.776470184326172 16.100173950195312 11.603137969970703 18.31659507751465 L11.603137969970703 18.31659507751465 C11.00505256652832 18.349468231201172 10.406968116760254 18.382339477539062 9.808882713317871 18.415212631225586 L9.808882713317871 18.415212631225586 C9.898125648498535 17.186885833740234 10.246033668518066 15.984756469726562 10.312287330627441 14.754975318908691 C10.438740730285645 12.40778923034668 9.093151092529297 9.815438270568848 8.399202346801758 7.615531921386719 L8.399202346801758 7.615531921386719"></path></svg>