<svg xmlns="http://www.w3.org/2000/svg" viewBox="0.0 0.0 24.0 24.0" height="200px" width="200px"><path fill="none" stroke="black" stroke-width=".3" stroke-opacity="1.0"  filling="0" d="M12.59714126586914 10.544942855834961 L12.59714126586914 10.544942855834961 C13.761104583740234 10.440683364868164 15.447009086608887 10.621885299682617 16.588062286376953 11.268738746643066 C17.729116439819336 11.915593147277832 18.3253173828125 13.028099060058594 17.309877395629883 14.786445617675781 C16.69232177734375 15.855809211730957 15.433025360107422 16.365882873535156 14.067976951599121 16.623464584350586 C12.70292854309082 16.88104820251465 11.232131004333496 16.886138916015625 10.19157600402832 16.945537567138672 L10.19157600402832 16.945537567138672 C10.58082389831543 17.497194290161133 10.840761184692383 18.16814613342285 11.359320640563965 18.600505828857422 C12.519513130187988 19.567838668823242 14.596927642822266 19.002710342407227 15.915763854980469 18.89756202697754 L15.915763854980469 18.89756202697754 C16.02949333190918 19.27032470703125 16.37066650390625 19.643083572387695 16.256954193115234 20.015851974487305 C16.02200698852539 20.786054611206055 14.50935173034668 20.920198440551758 14.014424324035645 21.00406837463379 C12.495530128479004 21.261459350585938 10.792086601257324 21.448118209838867 9.416304588317871 20.51333999633789 C7.240187644958496 19.034774780273438 7.228642463684082 16.871524810791016 8.164504051208496 14.913491249084473 C9.10036563873291 12.955458641052246 10.983633041381836 11.202642440795898 12.59714126586914 10.544942855834961 L12.59714126586914 10.544942855834961"></path>
<path fill="none" stroke="black" stroke-width=".3" stroke-opacity="1.0"  filling="0" d="M13.577287673950195 12.36324691772461 L13.577287673950195 12.36324691772461 C14.062230110168457 12.60954761505127 14.547172546386719 12.855847358703613 15.03211498260498 13.102148056030273 L15.03211498260498 13.102148056030273 C13.797988891601562 14.912755012512207 12.826080322265625 14.6957368850708 10.704854965209961 14.970540046691895 L10.704854965209961 14.970540046691895 C11.505231857299805 13.361248970031738 11.842138290405273 12.837172508239746 13.577287673950195 12.36324691772461 L13.577287673950195 12.36324691772461"></path></svg>