<svg xmlns="http://www.w3.org/2000/svg" viewBox="0.0 0.0 24.0 24.0" height="200px" width="200px"><path fill="none" stroke="black" stroke-width=".3" stroke-opacity="1.0"  filling="0" d="M14.323385238647461 8.164928436279297 L14.323385238647461 8.164928436279297 C14.789785385131836 8.510319709777832 15.398117065429688 8.719910621643066 15.722586631774902 9.201101303100586 C16.797073364257812 10.794572830200195 15.111340522766113 12.068913459777832 14.020263671875 12.863635063171387 L14.020263671875 12.863635063171387 C14.393324851989746 13.335434913635254 14.88305377960205 13.734946250915527 15.139447212219238 14.279034614562988 C16.249521255493164 16.634706497192383 13.807961463928223 18.37882423400879 11.759521484375 18.650266647338867 C10.220637321472168 18.85418701171875 9.798026084899902 18.49664878845215 8.359931945800781 17.977825164794922 L8.359931945800781 17.977825164794922 C8.564408302307129 17.53729820251465 8.768884658813477 17.096769332885742 8.973361015319824 16.65624237060547 L8.973361015319824 16.65624237060547 C9.78335952758789 16.84003257751465 11.85466480255127 17.422319412231445 12.617347717285156 16.569683074951172 C14.354076385498047 14.628117561340332 12.487122535705566 13.864608764648438 10.883219718933105 13.50253963470459 L10.883219718933105 13.50253963470459 C10.955842971801758 13.10643482208252 11.028465270996094 12.710330963134766 11.101088523864746 12.314226150512695 L11.101088523864746 12.314226150512695 C11.724206924438477 12.143176078796387 12.440434455871582 12.170702934265137 12.970444679260254 11.80107593536377 C16.12700653076172 9.599702835083008 11.494498252868652 9.721446990966797 10.622562408447266 9.84581470489502 L10.622562408447266 9.84581470489502 C10.491471290588379 9.47562313079834 10.360380172729492 9.105432510375977 10.229289054870605 8.735240936279297 L10.229289054870605 8.735240936279297 C11.813408851623535 7.991186618804932 12.602662086486816 7.83679723739624 14.323385238647461 8.164928436279297 L14.323385238647461 8.164928436279297"></path></svg>