<svg xmlns="http://www.w3.org/2000/svg" viewBox="0.0 0.0 24.0 24.0" height="200px" width="200px"><path fill="none" stroke="black" stroke-width=".3" stroke-opacity="1.0"  filling="0" d="M15.576919555664062 10.392927169799805 L15.576919555664062 10.392927169799805 C16.552297592163086 10.392927169799805 17.527673721313477 10.392927169799805 18.5030517578125 10.392927169799805 L18.5030517578125 10.392927169799805 C17.49135971069336 12.192899703979492 16.479736328125 13.992914199829102 15.468111991882324 15.792926788330078 C14.456487655639648 17.592941284179688 13.444864273071289 19.392953872680664 12.4331693649292 21.19292640686035 L12.4331693649292 21.19292640686035 C11.406757354736328 21.19231605529785 10.675124168395996 21.19209098815918 9.642301559448242 21.19200897216797 L9.642301559448242 21.19200897216797 C9.337141036987305 19.393306732177734 9.031970977783203 17.594608306884766 8.726785659790039 15.795910835266113 C8.421599388122559 13.997213363647461 8.1163969039917 12.198518753051758 7.811169624328613 10.399828910827637 L7.811169624328613 10.399828910827637 C7.818012237548828 10.399828910827637 10.439703941345215 10.399828910827637 10.485175132751465 10.399828910827637 L10.485175132751465 10.399828910827637 C10.827476501464844 12.845041275024414 11.169988632202148 15.290223121643066 11.512541770935059 17.735401153564453 L11.512541770935059 17.735401153564453 C11.63170337677002 17.74812889099121 11.75086498260498 17.7608585357666 11.870026588439941 17.77358627319336 L11.870026588439941 17.77358627319336 C12.487811088562012 16.543460845947266 13.105640411376953 15.31335735321045 13.723469734191895 14.08325481414795 C14.341300010681152 12.85315227508545 14.959131240844727 11.623050689697266 15.576919555664062 10.392927169799805 L15.576919555664062 10.392927169799805"></path></svg>