<svg xmlns="http://www.w3.org/2000/svg" viewBox="0.0 0.0 24.0 24.0" height="200px" width="200px"><path fill="none" stroke="black" stroke-width=".3" stroke-opacity="1.0"  filling="0" d="M7.645002841949463 4.313225269317627 C10.958693504333496 4.313225269317627 14.153525352478027 4.313225269317627 17.58492660522461 4.313225269317627 C17.640050888061523 5.050494194030762 17.698617935180664 5.840015411376953 17.7841739654541 6.9838151931762695 C15.446619033813477 6.9838151931762695 13.303714752197266 6.9838151931762695 11.026449203491211 6.9838151931762695 C11.026449203491211 8.802871704101562 11.026449203491211 10.284873962402344 11.026449203491211 12.030431747436523 C13.074609756469727 12.030431747436523 15.037215232849121 12.030431747436523 17.250743865966797 12.030431747436523 C17.30242347717285 13.068580627441406 17.342042922973633 13.858101844787598 17.396591186523438 14.946779251098633 C15.202009201049805 14.946779251098633 13.243424415588379 14.946779251098633 11.086740493774414 14.946779251098633 C11.086740493774414 16.978288650512695 11.086740493774414 18.725568771362305 11.086740493774414 20.750762939453125 C13.444393157958984 20.750762939453125 15.694671630859375 20.750762939453125 18.08218002319336 20.750762939453125 C18.08218002319336 21.811878204345703 18.08218002319336 22.59737777709961 18.08218002319336 23.513797760009766 C14.6065673828125 23.513225555419922 11.295172691345215 23.513225555419922 7.645002841949463 23.513225555419922 C7.645002841949463 17.016185760498047 7.645002841949463 10.761457443237305 7.645002841949463 4.313225269317627"></path></svg>