<svg xmlns="http://www.w3.org/2000/svg" viewBox="0.0 0.0 24.0 24.0" height="200px" width="200px"><path fill="none" stroke="black" stroke-width=".3" stroke-opacity="1.0"  filling="0" d="M14.040275573730469 8.3693208694458 L14.040275573730469 8.3693208694458 C13.898697853088379 9.074677467346191 13.7571382522583 9.780036926269531 13.615608215332031 10.485403060913086 L13.615608215332031 10.485403060913086 C14.260635375976562 10.842992782592773 15.165217399597168 11.379337310791016 15.112256050109863 12.114950180053711 L15.112256050109863 12.114950180053711 C14.51013469696045 12.197821617126465 13.908012390136719 12.280693054199219 13.305891036987305 12.363564491271973 L13.305891036987305 12.363564491271973 C12.815677642822266 14.15854263305664 12.624488830566406 15.462316513061523 12.791096687316895 17.32400131225586 L12.791096687316895 17.32400131225586 C13.433826446533203 17.16729736328125 14.076556205749512 17.01059341430664 14.71928596496582 16.85388946533203 L14.71928596496582 16.85388946533203 C14.422096252441406 17.24124526977539 14.184471130371094 17.68265151977539 13.827715873718262 18.015954971313477 C13.445096015930176 18.373424530029297 13.00466251373291 18.68060874938965 12.529215812683105 18.899999618530273 C10.76143741607666 19.715728759765625 10.32508373260498 18.481884002685547 10.356172561645508 16.870229721069336 C10.387261390686035 15.258575439453125 10.885793685913086 13.269113540649414 10.987786293029785 12.573606491088867 L10.987786293029785 12.573606491088867 C10.724278450012207 12.402645111083984 10.460771560668945 12.231682777404785 10.197263717651367 12.060721397399902 L10.197263717651367 12.060721397399902 C10.662435531616211 10.670944213867188 12.810588836669922 9.059739112854004 14.040275573730469 8.3693208694458 L14.040275573730469 8.3693208694458"></path></svg>