<svg xmlns="http://www.w3.org/2000/svg" viewBox="0.0 0.0 24.0 24.0" height="200px" width="200px"><path fill="none" stroke="black" stroke-width=".3" stroke-opacity="1.0"  filling="0" d="M11.147604942321777 9.980554580688477 C11.999429702758789 9.980554580688477 12.73086929321289 9.980554580688477 13.849138259887695 9.980554580688477 C14.645620346069336 13.032402038574219 15.47234058380127 16.198930740356445 16.46394920349121 19.998193740844727 C17.31577491760254 16.3101863861084 18.039796829223633 13.174468040466309 18.776371002197266 9.985689163208008 C19.834732055664062 9.985689163208008 20.746463775634766 9.985689163208008 22.001667022705078 9.985689163208008 C20.65917205810547 14.51639175415039 19.379436492919922 18.833139419555664 18.046072006225586 23.333602905273438 C17.037918090820312 23.333602905273438 16.049732208251953 23.333602905273438 14.898942947387695 23.333602905273438 C14.099607467651367 20.49114418029785 13.29228687286377 17.621871948242188 12.390825271606445 14.417116165161133 C11.434589385986328 17.648685455322266 10.583334922790527 20.52651596069336 9.728658676147461 23.414051055908203 C8.602400779724121 23.414051055908203 7.684963703155518 23.414051055908203 6.620325565338135 23.414051055908203 C5.357707977294922 18.998027801513672 4.116200923919678 14.655604362487793 2.802234649658203 10.059859275817871 C3.9832639694213867 10.059859275817871 4.956044673919678 10.059859275817871 6.203257083892822 10.059859275817871 C6.874788761138916 13.14251708984375 7.569714069366455 16.332439422607422 8.38045883178711 20.056957244873047 C9.388042449951172 16.387781143188477 10.255842208862305 13.22752857208252 11.147604942321777 9.980554580688477"></path></svg>