<svg xmlns="http://www.w3.org/2000/svg" viewBox="0.0 0.0 24.0 24.0" height="200px" width="200px"><path fill="none" stroke="black" stroke-width=".3" stroke-opacity="1.0"  filling="0" d="M16.673871994018555 4.33462381362915 C16.719097137451172 4.995944023132324 16.789575576782227 5.471670627593994 16.768428802490234 5.943874835968018 C16.756683349609375 6.214627742767334 16.59634780883789 6.4789204597473145 16.447755813598633 6.904726028442383 C13.250986099243164 7.1273193359375 10.709075927734375 8.41002082824707 9.586125373840332 11.904561042785645 C9.976690292358398 11.87460708618164 10.240983963012695 11.913957595825195 10.45652961730957 11.828797340393066 C14.00098991394043 10.428044319152832 16.85417938232422 11.32370376586914 18.11045265197754 14.246196746826172 C19.49241065979004 17.461759567260742 18.16683578491211 21.383867263793945 15.197944641113281 22.862733840942383 C12.146829605102539 24.382713317871094 8.491365432739258 23.24390411376953 6.8498125076293945 20.261505126953125 C3.0210886001586914 13.30472469329834 8.339837074279785 4.397467136383057 16.673871994018555 4.33462381362915"></path>
<path fill="none" stroke="black" stroke-width=".3" stroke-opacity="1.0"  filling="0" d="M12.282499313354492 13.587224960327148 C13.99981689453125 13.66768741607666 15.187373161315918 15.215269088745117 15.140974044799805 17.311405181884766 C15.092814445495605 19.466861724853516 13.831843376159668 20.98155403137207 12.157988548278809 20.896392822265625 C10.582216262817383 20.816516876220703 9.304800033569336 18.98173713684082 9.27837085723877 16.760501861572266 C9.25663948059082 14.908689498901367 10.582802772521973 13.507349967956543 12.282499313354492 13.587224960327148"></path></svg>