<svg xmlns="http://www.w3.org/2000/svg" viewBox="0.0 0.0 24.0 24.0" height="200px" width="200px"><path fill="none" stroke="black" stroke-width=".3" stroke-opacity="1.0"  filling="0" d="M12.173908233642578 7.663448810577393 L12.173908233642578 7.663448810577393 C12.924817085266113 7.663448810577393 13.675726890563965 7.663448810577393 14.4266357421875 7.663448810577393 L14.4266357421875 7.663448810577393 C14.592874526977539 9.463452339172363 14.759119987487793 11.26345443725586 14.925386428833008 13.063454627990723 C15.091652870178223 14.863454818725586 15.257940292358398 16.6634521484375 15.424263954162598 18.46344757080078 L15.424263954162598 18.46344757080078 C14.85167121887207 18.46344757080078 14.279078483581543 18.46344757080078 13.706485748291016 18.46344757080078 L13.706485748291016 18.46344757080078 C13.559572219848633 17.467540740966797 13.412659645080566 16.471633911132812 13.265748977661133 15.475727081298828 L13.265748977661133 15.475727081298828 C12.29404067993164 15.475727081298828 11.322331428527832 15.475727081298828 10.35062313079834 15.475727081298828 L10.35062313079834 15.475727081298828 C9.878801345825195 16.46776008605957 9.406982421875 17.459794998168945 8.935166358947754 18.451831817626953 L8.935166358947754 18.451831817626953 C8.330201148986816 18.451831817626953 7.725235939025879 18.451831817626953 7.120270729064941 18.451831817626953 L7.120270729064941 18.451831817626953 C7.9625091552734375 16.653751373291016 8.804765701293945 14.855680465698242 9.647038459777832 13.057616233825684 C10.489312171936035 11.259552955627441 11.331602096557617 9.46149730682373 12.173908233642578 7.663448810577393 L12.173908233642578 7.663448810577393"></path>
<path fill="none" stroke="black" stroke-width=".3" stroke-opacity="1.0"  filling="0" d="M12.728216171264648 9.832934379577637 L12.728216171264648 9.832934379577637 C12.8114595413208 9.840032577514648 12.894702911376953 9.84713077545166 12.977946281433105 9.854228973388672 L12.977946281433105 9.854228973388672 C13.087807655334473 11.211183547973633 13.197711944580078 12.568134307861328 13.307692527770996 13.925079345703125 L13.307692527770996 13.925079345703125 C12.527314186096191 13.925079345703125 11.746935844421387 13.925079345703125 10.966557502746582 13.925079345703125 L10.966557502746582 13.925079345703125 C11.553780555725098 12.561034202575684 12.140983581542969 11.196977615356445 12.728216171264648 9.832934379577637 L12.728216171264648 9.832934379577637"></path></svg>