<svg xmlns="http://www.w3.org/2000/svg" viewBox="0.0 0.0 24.0 24.0" height="200px" width="200px"><path fill="none" stroke="black" stroke-width=".3" stroke-opacity="1.0"  filling="0" d="M20.943077087402344 8.267599105834961 C21.182537078857422 11.658370018005371 18.232376098632812 12.643354415893555 16.515438079833984 14.417760848999023 C14.585382461547852 16.411672592163086 12.470141410827637 18.22519302368164 10.394811630249023 20.15525245666504 C15.91199779510498 24.011375427246094 16.821149826049805 24.08401107788086 20.592666625976562 21.006935119628906 C21.377300262451172 23.306560516357422 19.717037200927734 24.50945472717285 18.52052879333496 25.795360565185547 C17.019105911254883 27.40932846069336 15.063507080078125 27.865901947021484 13.067198753356934 26.893688201904297 C11.413320541381836 26.088298797607422 9.915889739990234 24.960437774658203 7.463806629180908 23.41830825805664 C6.802095890045166 24.412073135375977 6.241756439208984 25.253379821777344 5.609579086303711 26.203243255615234 C5.22324800491333 25.702768325805664 4.742729663848877 25.293291091918945 4.813770294189453 25.140033721923828 C5.5600905418396 23.53005599975586 6.107658386230469 21.698978424072266 7.264256000518799 20.435420989990234 C9.5670747756958 17.91948127746582 12.21790885925293 15.722024917602539 14.915040969848633 13.216463088989258 C11.371015548706055 12.023946762084961 8.182989120483398 10.663008689880371 5.702968597412109 15.124969482421875 C5.7053632736206055 9.913496017456055 8.91653823852539 7.25308084487915 12.980194091796875 8.50865650177002 C15.6126708984375 9.322027206420898 18.185283660888672 10.713296890258789 20.943077087402344 8.267599105834961"></path></svg>