<svg xmlns="http://www.w3.org/2000/svg" viewBox="0.0 0.0 24.0 24.0" height="200px" width="200px"><path fill="none" stroke="black" stroke-width=".3" stroke-opacity="1.0"  filling="0" d="M10.783910751342773 10.208776473999023 L10.783910751342773 10.208776473999023 C10.886348724365234 10.652270317077637 10.988785743713379 11.095763206481934 11.09122371673584 11.539257049560547 L11.09122371673584 11.539257049560547 C12.820530891418457 11.504162788391113 12.997037887573242 9.925804138183594 15.081910133361816 10.29174518585205 C16.665964126586914 10.569781303405762 16.887447357177734 11.814017295837402 16.967853546142578 13.154354095458984 C17.043075561523438 14.408256530761719 16.846633911132812 15.756660461425781 16.578277587890625 17.09918785095215 C16.309921264648438 18.44171714782715 15.969650268554688 19.778369903564453 15.75721263885498 21.008773803710938 L15.75721263885498 21.008773803710938 C14.939374923706055 21.008773803710938 14.121536254882812 21.008773803710938 13.303698539733887 21.008773803710938 L13.303698539733887 21.008773803710938 C13.428605079650879 19.599510192871094 13.717055320739746 18.246475219726562 13.945863723754883 16.889801025390625 C14.174673080444336 15.533126831054688 14.343839645385742 14.172813415527344 14.230177879333496 12.748991966247559 L14.230177879333496 12.748991966247559 C13.347280502319336 12.681253433227539 12.448211669921875 12.3606595993042 11.71457576751709 13.09415054321289 C10.866299629211426 13.942258834838867 10.381546974182129 15.361188888549805 10.052084922790527 16.845571517944336 C9.72262191772461 18.3299560546875 9.548450469970703 19.879791259765625 9.321334838867188 20.98971176147461 L9.321334838867188 20.98971176147461 C8.490181922912598 20.98971176147461 7.65902853012085 20.98971176147461 6.827875137329102 20.98971176147461 L6.827875137329102 20.98971176147461 C7.162163734436035 19.21966552734375 7.4964599609375 17.44961929321289 7.830778121948242 15.679577827453613 C8.165095329284668 13.909536361694336 8.499435424804688 12.13949966430664 8.833809852600098 10.369468688964844 L8.833809852600098 10.369468688964844 C9.483843803405762 10.31590461730957 10.13387680053711 10.262340545654297 10.783910751342773 10.208776473999023 L10.783910751342773 10.208776473999023"></path></svg>