<svg xmlns="http://www.w3.org/2000/svg" viewBox="0.0 0.0 24.0 24.0" height="200px" width="200px"><path fill="none" stroke="black" stroke-width=".3" stroke-opacity="1.0"  filling="0" d="M13.879014015197754 3.6453018188476562 C16.80043601989746 3.2360239028930664 19.243297576904297 4.955808162689209 19.88021469116211 7.8859639167785645 C20.143945693969727 9.102737426757812 20.144527435302734 10.376566886901855 20.27552032470703 11.733648300170898 C19.960556030273438 13.372509956359863 19.77775001525879 15.1202392578125 19.27415657043457 16.770160675048828 C18.3630313873291 19.75446128845215 16.327117919921875 21.707122802734375 13.283434867858887 22.544307708740234 C10.198999404907227 23.391977310180664 7.287474155426025 21.965614318847656 6.422341823577881 18.87710189819336 C5.211971282958984 14.555517196655273 5.905357837677002 10.402183532714844 8.459420204162598 6.70353889465332 C9.713454246520996 4.887692928314209 11.69697093963623 3.9509506225585938 13.879014015197754 3.6453018188476562"></path>
<path fill="none" stroke="black" stroke-width=".3" stroke-opacity="1.0"  filling="0" d="M14.056581497192383 5.13279390335083 C15.695444107055664 5.264951229095459 16.098899841308594 6.631348133087158 16.242700576782227 7.826581001281738 C16.711360931396484 11.721423149108887 16.32071304321289 15.562704086303711 14.86233139038086 19.238643646240234 C14.4099702835083 20.379732131958008 13.580350875854492 21.46493148803711 12.266351699829102 21.016063690185547 C11.419849395751953 20.726716995239258 10.478449821472168 19.783571243286133 10.211225509643555 18.93474006652832 C9.758865356445312 17.49847984313965 9.806022644042969 15.904447555541992 9.608078002929688 14.046683311462402 C10.12506103515625 11.938579559326172 10.595470428466797 9.57314682006836 11.309233665466309 7.28339958190918 C11.685327529907227 6.080015182495117 12.505048751831055 5.00762414932251 14.056581497192383 5.13279390335083"></path></svg>