<svg xmlns="http://www.w3.org/2000/svg" viewBox="0.0 0.0 24.0 24.0" height="200px" width="200px"><path fill="none" stroke="black" stroke-width=".3" stroke-opacity="1.0"  filling="0" d="M15.951048851013184 9.682027816772461 L15.951048851013184 9.682027816772461 C15.89664363861084 10.53778076171875 15.842254638671875 11.393534660339355 15.78791618347168 12.24929141998291 L15.78791618347168 12.24929141998291 C15.177115440368652 12.513909339904785 14.509406089782715 12.67395305633545 13.955513954162598 13.043146133422852 C12.81805419921875 13.801311492919922 12.26935863494873 15.072874069213867 11.920897483825684 16.448972702026367 C11.57243537902832 17.8250732421875 11.42420768737793 19.305709838867188 11.087681770324707 20.482027053833008 L11.087681770324707 20.482027053833008 C10.328290939331055 20.482027053833008 9.568899154663086 20.482027053833008 8.809508323669434 20.482027053833008 L8.809508323669434 20.482027053833008 C9.117267608642578 18.76519775390625 9.425046920776367 17.04837417602539 9.732810020446777 15.331546783447266 C10.040573120117188 13.614718437194824 10.348320007324219 11.89788818359375 10.656013488769531 10.181048393249512 L10.656013488769531 10.181048393249512 C11.292654037475586 10.181048393249512 11.92929458618164 10.181048393249512 12.565935134887695 10.181048393249512 L12.565935134887695 10.181048393249512 C12.565935134887695 10.70645523071289 12.565935134887695 11.23186206817627 12.565935134887695 11.757268905639648 L12.565935134887695 11.757268905639648 C13.694265365600586 11.065454483032227 14.822643280029297 10.37371826171875 15.951048851013184 9.682027816772461 L15.951048851013184 9.682027816772461"></path></svg>