<svg xmlns="http://www.w3.org/2000/svg" viewBox="0.0 0.0 24.0 24.0" height="200px" width="200px"><path fill="none" stroke="black" stroke-width=".3" stroke-opacity="1.0"  filling="0" d="M19.016693115234375 9.220222473144531 C18.61807632446289 10.813066482543945 18.40337562561035 11.671873092651367 18.148162841796875 12.69352912902832 C16.847801208496094 12.580101013183594 15.621167182922363 12.217944145202637 14.524971961975098 12.456952095031738 C13.631326675415039 12.65220832824707 12.588605880737305 13.41865348815918 12.20295238494873 14.216694831848145 C11.975287437438965 14.687417984008789 12.770899772644043 15.831415176391602 13.341276168823242 16.45931625366211 C13.960265159606934 17.140689849853516 14.905763626098633 17.510948181152344 15.614683151245117 18.125885009765625 C18.879770278930664 20.96319007873535 18.41552734375 24.923423767089844 14.597888946533203 27.080162048339844 C11.708734512329102 28.711896896362305 9.246552467346191 28.724048614501953 4.873119831085205 26.92136001586914 C5.321968078613281 25.898082733154297 5.679263591766357 25.083030700683594 6.069777488708496 24.192623138427734 C7.456831455230713 24.45755958557129 8.668072700500488 24.965553283691406 9.799104690551758 24.825387954711914 C10.86046028137207 24.694133758544922 12.345547676086426 24.101882934570312 12.698792457580566 23.297359466552734 C13.010717391967773 22.586008071899414 12.069270133972168 21.27916717529297 11.576672554016113 20.28667640686035 C11.42192554473877 19.974750518798828 10.931756973266602 19.82486343383789 10.589855194091797 19.609352111816406 C8.53357982635498 18.318710327148438 6.936686038970947 16.721006393432617 7.435765743255615 14.0384521484375 C7.942947864532471 11.309715270996094 10.003273963928223 9.846503257751465 12.417654037475586 9.309343338012695 C14.389669418334961 8.871027946472168 16.536685943603516 9.220222473144531 19.016693115234375 9.220222473144531"></path></svg>