<svg xmlns="http://www.w3.org/2000/svg" viewBox="0.0 0.0 24.0 24.0" height="200px" width="200px"><path fill="none" stroke="black" stroke-width=".3" stroke-opacity="1.0"  filling="0" d="M9.064742088317871 7.681069374084473 L9.064742088317871 7.681069374084473 C11.308353424072266 7.681069374084473 13.551963806152344 7.681069374084473 15.795575141906738 7.681069374084473 L15.795575141906738 7.681069374084473 C15.849818229675293 8.182327270507812 15.904060363769531 8.683584213256836 15.958303451538086 9.184842109680176 L15.958303451538086 9.184842109680176 C14.354795455932617 9.184842109680176 12.75129508972168 9.184842109680176 11.147786140441895 9.184842109680176 L11.147786140441895 9.184842109680176 C11.147786140441895 10.135383605957031 11.147786140441895 11.085926055908203 11.147786140441895 12.036467552185059 L11.147786140441895 12.036467552185059 C12.61255168914795 12.036467552185059 14.077316284179688 12.036467552185059 15.542082786560059 12.036467552185059 L15.542082786560059 12.036467552185059 C15.542082786560059 12.599099159240723 15.542082786560059 13.161731719970703 15.542082786560059 13.724363327026367 L15.542082786560059 13.724363327026367 C14.068347930908203 13.724363327026367 12.59461498260498 13.724363327026367 11.120881080627441 13.724363327026367 L11.120881080627441 13.724363327026367 C11.120881080627441 14.771072387695312 11.120881080627441 15.817781448364258 11.120881080627441 16.864490509033203 L11.120881080627441 16.864490509033203 C12.767822265625 16.864490509033203 14.41476821899414 16.864490509033203 16.061710357666016 16.864490509033203 L16.061710357666016 16.864490509033203 C16.118114471435547 17.403350830078125 16.174516677856445 17.942209243774414 16.230920791625977 18.481069564819336 L16.230920791625977 18.481069564819336 C13.842193603515625 18.481069564819336 11.453468322753906 18.481069564819336 9.064742088317871 18.481069564819336 L9.064742088317871 18.481069564819336 C9.064742088317871 16.681068420410156 9.064742088317871 14.88106918334961 9.064742088317871 13.081068992614746 C9.064742088317871 11.281068801879883 9.064742088317871 9.481069564819336 9.064742088317871 7.681069374084473 L9.064742088317871 7.681069374084473"></path></svg>