<svg xmlns="http://www.w3.org/2000/svg" viewBox="0.0 0.0 24.0 24.0" height="200px" width="200px"><path fill="none" stroke="black" stroke-width=".3" stroke-opacity="1.0"  filling="0" d="M12.565037727355957 7.693113327026367 L12.565037727355957 7.693113327026367 C13.226497650146484 7.693113327026367 13.887958526611328 7.693113327026367 14.549418449401855 7.693113327026367 L14.549418449401855 7.693113327026367 C14.567361831665039 9.253572463989258 14.943939208984375 12.019632339477539 14.669386863708496 14.362035751342773 C14.3948335647583 16.704439163208008 13.46915054321289 18.623186111450195 10.882574081420898 18.4890193939209 C10.197247505187988 18.453472137451172 9.554433822631836 18.142913818359375 8.890363693237305 17.969860076904297 L8.890363693237305 17.969860076904297 C9.007784843444824 17.519886016845703 9.12520694732666 17.06991195678711 9.24262809753418 16.619937896728516 L9.24262809753418 16.619937896728516 C10.038475036621094 16.739213943481445 11.063286781311035 17.017616271972656 11.799480438232422 16.426088333129883 C12.578497886657715 15.800151824951172 12.52109432220459 14.132095336914062 12.548404693603516 13.33963394165039 C12.613126754760742 11.46160888671875 12.569058418273926 9.57182502746582 12.565037727355957 7.693113327026367 L12.565037727355957 7.693113327026367"></path></svg>