<svg xmlns="http://www.w3.org/2000/svg" viewBox="0.0 0.0 24.0 24.0" height="200px" width="200px"><path fill="none" stroke="black" stroke-width=".3" stroke-opacity="1.0"  filling="0" d="M11.560501098632812 6.102160453796387 C13.328349113464355 5.752636432647705 14.997666358947754 6.5652546882629395 15.954452514648438 8.148487091064453 C17.41270637512207 10.560934066772461 16.860416412353516 12.719274520874023 15.014780044555664 14.633881568908691 C17.57865333557129 17.236127853393555 18.11745834350586 19.740880966186523 16.734399795532227 22.34313201904297 C15.628263473510742 24.424203872680664 13.446586608886719 25.56145477294922 11.384183883666992 25.13206672668457 C9.167242050170898 24.669490814208984 7.886862277984619 23.022472381591797 7.604234218597412 20.114261627197266 C8.297579765319824 19.928091049194336 9.020483016967773 19.734661102294922 9.771390914916992 19.533451080322266 C10.595937728881836 20.632328033447266 10.870267868041992 22.437511444091797 12.691011428833008 21.999309539794922 C14.234830856323242 21.628005981445312 14.447969436645508 20.26620864868164 14.373811721801758 18.89352035522461 C14.279948234558105 17.149526596069336 13.764476776123047 16.698360443115234 11.286170959472656 16.15540313720703 C11.286170959472656 15.407089233398438 11.286170959472656 14.644254684448242 11.286170959472656 13.758515357971191 C12.456093788146973 13.05998420715332 14.181417465209961 12.639932632446289 13.728694915771484 10.732584953308105 C13.594382286071777 10.166810989379883 13.037942886352539 9.529474258422852 12.506914138793945 9.270700454711914 C11.695332527160645 8.875539779663086 11.120224952697754 9.452722549438477 9.823249816894531 11.639066696166992 C9.442609786987305 11.559206008911133 9.026188850402832 11.491271018981934 8.621174812316895 11.381331443786621 C8.304840087890625 11.295764923095703 8.00198745727539 11.158341407775879 7.64157247543335 11.025064468383789 C8.05073356628418 8.56750202178955 8.940103530883789 6.620224475860596 11.560501098632812 6.102160453796387"></path></svg>