<svg xmlns="http://www.w3.org/2000/svg" viewBox="0.0 0.0 24.0 24.0" height="200px" width="200px"><path fill="none" stroke="black" stroke-width=".3" stroke-opacity="1.0"  filling="0" d="M13.435943603515625 5.757070064544678 C14.23598861694336 5.757070064544678 14.998421669006348 5.757070064544678 15.960731506347656 5.757070064544678 C15.960731506347656 9.77824878692627 15.960731506347656 13.680146217346191 15.960731506347656 17.640609741210938 C16.68985366821289 17.866275787353516 17.252948760986328 18.04090118408203 17.918127059936523 18.24722671508789 C17.918127059936523 19.12625503540039 17.918127059936523 19.985937118530273 17.918127059936523 20.894519805908203 C17.25617027282715 21.13791847229004 16.632898330688477 21.366809844970703 16.075716018676758 21.572059631347656 C16.01123809814453 22.714366912841797 15.95697021484375 23.682588577270508 15.892496109008789 24.819520950317383 C15.058599472045898 24.865190505981445 14.299928665161133 24.90656280517578 13.372541427612305 24.95707130432129 C13.242514610290527 23.71697425842285 13.126994132995605 22.609054565429688 12.980310440063477 21.21099090576172 C10.91384220123291 21.21099090576172 8.907550811767578 21.21099090576172 6.436492443084717 21.21099090576172 C6.7814412117004395 19.489471435546875 6.774993896484375 18.003826141357422 7.3724751472473145 16.8233699798584 C9.263246536254883 13.089112281799316 11.379683494567871 9.46929931640625 13.435943603515625 5.757070064544678"></path>
<path fill="none" stroke="black" stroke-width=".3" stroke-opacity="1.0"  filling="0" d="M12.521989822387695 12.40082836151123 C12.660078048706055 12.429305076599121 12.798702239990234 12.457783699035645 12.936788558959961 12.486260414123535 C12.936788558959961 14.212079048156738 12.936788558959961 15.938433647155762 12.936788558959961 17.865203857421875 C11.811138153076172 17.865203857421875 10.869783401489258 17.865203857421875 9.616790771484375 17.865741729736328 C10.662919998168945 15.897598266601562 11.592455863952637 14.149213790893555 12.521989822387695 12.40082836151123"></path></svg>