<svg xmlns="http://www.w3.org/2000/svg" viewBox="0.0 0.0 24.0 24.0" height="200px" width="200px"><path fill="none" stroke="black" stroke-width=".3" stroke-opacity="1.0"  filling="0" d="M10.3819580078125 8.845409393310547 L10.3819580078125 8.845409393310547 C11.850567817687988 8.845409393310547 13.319181442260742 8.845409393310547 14.78779125213623 8.845409393310547 L14.78779125213623 8.845409393310547 C14.78779125213623 9.396998405456543 14.78779125213623 9.948587417602539 14.78779125213623 10.500176429748535 L14.78779125213623 10.500176429748535 C13.784368515014648 10.500176429748535 12.780945777893066 10.500176429748535 11.777523040771484 10.500176429748535 L11.777523040771484 10.500176429748535 C11.66208553314209 11.112468719482422 11.546648979187012 11.724761009216309 11.431211471557617 12.337053298950195 L11.431211471557617 12.337053298950195 C11.9222993850708 12.246048927307129 12.408687591552734 12.003682136535645 12.904476165771484 12.064041137695312 C14.262030601501465 12.229314804077148 14.959124565124512 13.459037780761719 15.1543607711792 14.851251602172852 C15.349596977233887 16.243465423583984 15.042974472045898 17.79817008972168 14.393097877502441 18.6134090423584 C13.231355667114258 20.070756912231445 10.789053916931152 19.983558654785156 9.902256965637207 18.283140182495117 C9.647046089172363 17.793779373168945 9.581437110900879 17.226966857910156 9.421027183532715 16.69887924194336 L9.421027183532715 16.69887924194336 C9.8876314163208 16.574031829833984 10.354236602783203 16.449186325073242 10.820840835571289 16.324338912963867 L10.820840835571289 16.324338912963867 C11.170157432556152 16.795881271362305 11.909972190856934 17.861806869506836 12.396087646484375 17.7857666015625 C13.890344619750977 17.552030563354492 13.91694164276123 14.638055801391602 12.792631149291992 14.047440528869629 C11.847085952758789 13.550732612609863 10.6549072265625 14.04848575592041 9.589174270629883 13.977859497070312 L9.589174270629883 13.977859497070312 C9.85339641571045 12.267036437988281 10.117647171020508 10.556219100952148 10.3819580078125 8.845409393310547 L10.3819580078125 8.845409393310547"></path></svg>