<svg xmlns="http://www.w3.org/2000/svg" viewBox="0.0 0.0 24.0 24.0" height="200px" width="200px"><path fill="none" stroke="black" stroke-width=".3" stroke-opacity="1.0"  filling="0" d="M9.310409545898438 8.604299545288086 L9.310409545898438 8.604299545288086 C11.332267761230469 8.604299545288086 13.354127883911133 8.604299545288086 15.375985145568848 8.604299545288086 L15.375985145568848 8.604299545288086 C14.916109085083008 10.552431106567383 13.937458038330078 11.937271118164062 13.25818157196045 13.801161766052246 C12.592860221862793 15.626760482788086 12.323480606079102 17.489389419555664 12.079017639160156 19.40461540222168 L12.079017639160156 19.40461540222168 C11.564957618713379 19.40461540222168 11.050896644592285 19.40461540222168 10.536836624145508 19.40461540222168 L10.536836624145508 19.40461540222168 C10.61361312866211 17.72268295288086 10.898693084716797 16.20746612548828 11.351790428161621 14.738626480102539 C11.804888725280762 13.269784927368164 12.426004409790039 11.847319602966309 13.17485237121582 10.350885391235352 L13.17485237121582 10.350885391235352 C11.886704444885254 10.350885391235352 10.598557472229004 10.350885391235352 9.310409545898438 10.350885391235352 L9.310409545898438 10.350885391235352 C9.310409545898438 9.76869010925293 9.310409545898438 9.186494827270508 9.310409545898438 8.604299545288086 L9.310409545898438 8.604299545288086"></path></svg>