<svg xmlns="http://www.w3.org/2000/svg" viewBox="0.0 0.0 24.0 24.0" height="200px" width="200px"><path fill="none" stroke="black" stroke-width=".3" stroke-opacity="1.0"  filling="0" d="M15.735673904418945 6.8755879402160645 C16.937040328979492 6.8755879402160645 18.005470275878906 6.8755879402160645 19.437702178955078 6.8755879402160645 C17.130157470703125 12.397721290588379 15.518487930297852 17.98112678527832 12.35860538482666 22.88726043701172 C11.246410369873047 24.614360809326172 9.559243202209473 25.69865608215332 7.114930152893066 26.07503890991211 C6.820059299468994 25.074447631835938 6.5974016189575195 24.320037841796875 6.338636875152588 23.440895080566406 C7.003875255584717 23.084205627441406 7.564075469970703 22.81559181213379 8.092546463012695 22.495555877685547 C10.497469902038574 21.039255142211914 10.822429656982422 19.96371078491211 9.668110847473145 17.313152313232422 C8.187189102172852 13.913106918334961 6.699703693389893 10.515796661376953 5.117027282714844 6.893093109130859 C6.529017448425293 6.893093109130859 7.599087715148926 6.893093109130859 8.951447486877441 6.893093109130859 C10.040118217468262 9.717073440551758 11.169819831848145 12.648279190063477 12.527649879455566 16.170867919921875 C13.708776473999023 12.748939514160156 14.714838027954102 9.834146499633789 15.735673904418945 6.8755879402160645"></path></svg>