<svg xmlns="http://www.w3.org/2000/svg" viewBox="0.0 0.0 24.0 24.0" height="200px" width="200px"><path fill="none" stroke="black" stroke-width=".3" stroke-opacity="1.0"  filling="0" d="M9.915851593017578 9.144697189331055 L9.915851593017578 9.144697189331055 C10.011758804321289 9.523420333862305 10.107666969299316 9.902142524719238 10.203574180603027 10.280865669250488 L10.203574180603027 10.280865669250488 C11.377507209777832 9.712472915649414 12.428019523620605 8.944131851196289 13.827911376953125 9.17306137084961 C15.856574058532715 9.504816055297852 16.77776336669922 11.133008003234863 16.74380874633789 12.806283950805664 C16.709854125976562 14.479560852050781 15.720756530761719 16.197921752929688 13.928842544555664 16.71001434326172 C12.400503158569336 17.14678382873535 11.693497657775879 16.519804000854492 10.338953971862793 15.920421600341797 L10.338953971862793 15.920421600341797 C10.338953971862793 17.261098861694336 10.338953971862793 18.601781845092773 10.338953971862793 19.94245719909668 L10.338953971862793 19.94245719909668 C9.702166557312012 19.94245719909668 9.065378189086914 19.94245719909668 8.428590774536133 19.94245719909668 L8.428590774536133 19.94245719909668 C8.428590774536133 18.158885955810547 8.428590774536133 16.375316619873047 8.428590774536133 14.591744422912598 C8.428590774536133 12.808173179626465 8.428590774536133 11.024600982666016 8.428590774536133 9.2410306930542 L8.428590774536133 9.2410306930542 C8.924344062805176 9.208919525146484 9.420098304748535 9.17680835723877 9.915851593017578 9.144697189331055 L9.915851593017578 9.144697189331055"></path>
<path fill="none" stroke="black" stroke-width=".3" stroke-opacity="1.0"  filling="0" d="M12.497673988342285 10.767657279968262 L12.497673988342285 10.767657279968262 C13.008776664733887 10.977941513061523 13.654509544372559 10.993894577026367 14.030981063842773 11.398510932922363 C15.347092628479004 12.813013076782227 14.4019775390625 15.253829002380371 12.433664321899414 15.254082679748535 C10.472004890441895 15.254335403442383 9.643199920654297 12.70613956451416 10.931161880493164 11.363506317138672 C11.317906379699707 10.960345268249512 11.975502967834473 10.966273307800293 12.497673988342285 10.767657279968262 L12.497673988342285 10.767657279968262"></path></svg>