<svg xmlns="http://www.w3.org/2000/svg" viewBox="0.0 0.0 24.0 24.0" height="200px" width="200px"><path fill="none" stroke="black" stroke-width=".3" stroke-opacity="1.0"  filling="0" d="M8.323692321777344 7.717782497406006 L8.323692321777344 7.717782497406006 C9.638275146484375 7.717782497406006 10.952857971191406 7.717782497406006 12.267440795898438 7.717782497406006 C13.582024574279785 7.717782497406006 14.896607398986816 7.717782497406006 16.21118927001953 7.717782497406006 L16.21118927001953 7.717782497406006 C15.82322883605957 9.628460884094238 15.03614616394043 11.46448802947998 14.123597145080566 13.254873275756836 C13.211048126220703 15.045259475708008 12.17303466796875 16.790002822875977 11.283211708068848 18.51811408996582 L11.283211708068848 18.51811408996582 C11.19674301147461 18.51811408996582 9.020489692687988 18.51811408996582 9.003965377807617 18.51811408996582 L9.003965377807617 18.51811408996582 C9.814995765686035 17.00019073486328 10.626020431518555 15.482267379760742 11.437019348144531 13.964329719543457 C12.248018264770508 12.446392059326172 13.058991432189941 10.92844009399414 13.869916915893555 9.41046142578125 L13.869916915893555 9.41046142578125 C12.195357322692871 9.41046142578125 10.520794868469238 9.41046142578125 8.846235275268555 9.41046142578125 L8.846235275268555 9.41046142578125 C8.396080017089844 9.02829647064209 8.400625228881836 8.30324935913086 8.323692321777344 7.717782497406006 L8.323692321777344 7.717782497406006"></path></svg>