<svg xmlns="http://www.w3.org/2000/svg" viewBox="0.0 0.0 24.0 24.0" height="200px" width="200px"><path fill="none" stroke="black" stroke-width=".3" stroke-opacity="1.0"  filling="0" d="M3.6034555435180664 6.0343146324157715 C4.660616397857666 6.0343146324157715 5.307626247406006 6.0343146324157715 6.194979190826416 6.0343146324157715 C6.365657329559326 9.648165702819824 6.535464286804199 13.232410430908203 6.704836368560791 16.816219329833984 C6.798012733459473 16.841472625732422 6.8911895751953125 16.86716079711914 6.984800815582275 16.892414093017578 C8.560526847839355 13.302075386047363 10.136689186096191 9.711735725402832 11.735055923461914 6.070017337799072 C12.727340698242188 6.070017337799072 13.646913528442383 6.070017337799072 14.830342292785645 6.070017337799072 C14.830342292785645 9.69649600982666 14.830342292785645 13.231973648071289 14.830342292785645 16.767452239990234 C14.98491096496582 16.797931671142578 15.13947868347168 16.82840919494629 15.294047355651855 16.859323501586914 C16.844083786010742 13.305558204650879 18.394123077392578 9.751792907714844 19.988571166992188 6.096142292022705 C20.828899383544922 6.096142292022705 21.674890518188477 6.096142292022705 22.803020477294922 6.096142292022705 C20.471435546875 11.021430015563965 18.19514274597168 15.82959270477295 15.894903182983398 20.68869972229004 C14.977508544921875 20.68869972229004 14.126729011535645 20.68869972229004 12.991632461547852 20.68869972229004 C12.847078323364258 17.135805130004883 12.702524185180664 13.581169128417969 12.54055404663086 9.608545303344727 C10.789360046386719 13.54633617401123 9.214069366455078 17.088346481323242 7.6152663230896 20.683475494384766 C6.625158309936523 20.683475494384766 5.712116718292236 20.683475494384766 4.546104907989502 20.683475494384766 C4.233920097351074 15.82959270477295 3.924783706665039 11.029267311096191 3.6034555435180664 6.0343146324157715"></path></svg>