<svg xmlns="http://www.w3.org/2000/svg" viewBox="0.0 0.0 24.0 24.0" height="200px" width="200px"><path fill="none" stroke="black" stroke-width=".3" stroke-opacity="1.0"  filling="0" d="M12.575552940368652 4.592443943023682 C9.359193801879883 7.751886367797852 8.253389358520508 11.639627456665039 8.680843353271484 16.030323028564453 C8.763894081115723 16.885229110717773 8.943355560302734 17.752914428710938 9.226776123046875 18.56310272216797 C10.783845901489258 23.0078125 14.660552024841309 23.891176223754883 18.0343017578125 20.58944320678711 C18.510540008544922 20.123077392578125 18.92696189880371 19.596309661865234 19.410167694091797 19.053861618041992 C19.494380950927734 22.059396743774414 19.3265380859375 22.291709899902344 16.620685577392578 22.89165496826172 C12.832257270812988 23.732040405273438 9.107134819030762 23.654216766357422 6.5894551277160645 20.297311782836914 C4.077001094818115 16.947372436523438 4.638615131378174 13.118871688842773 6.285707473754883 9.548818588256836 C7.505344867706299 6.904528617858887 9.531685829162598 5.000732421875 12.637115478515625 4.653426170349121 L12.575552940368652 4.592443943023682"></path>
<path fill="none" stroke="black" stroke-width=".3" stroke-opacity="1.0"  filling="0" d="M12.576132774353027 4.592443943023682 L12.637115478515625 4.653426170349121 C15.403950691223145 3.3971986770629883 17.866456985473633 4.717892169952393 20.67975616455078 5.66398286819458 C20.733184814453125 6.798245906829834 20.79242706298828 8.042276382446289 20.851085662841797 9.286306381225586 C20.666976928710938 9.425113677978516 20.482872009277344 9.563919067382812 20.29934310913086 9.70214557647705 C19.108163833618164 5.659336566925049 16.329132080078125 4.302053928375244 12.576132774353027 4.592443943023682"></path></svg>