<svg xmlns="http://www.w3.org/2000/svg" viewBox="0.0 0.0 24.0 24.0" height="200px" width="200px"><path fill="none" stroke="black" stroke-width=".3" stroke-opacity="1.0"  filling="0" d="M5.990182876586914 9.313026428222656 C7.290623188018799 9.313026428222656 8.476274490356445 9.313026428222656 9.760855674743652 9.313026428222656 C9.870359420776367 10.192825317382812 9.97155475616455 11.009187698364258 10.076525688171387 11.853492736816406 C11.714536666870117 11.003146171569824 13.175078392028809 9.973065376281738 14.798741340637207 9.455002784729004 C18.92510986328125 8.137192726135254 22.320453643798828 10.683699607849121 21.882442474365234 14.970924377441406 C21.46784210205078 19.030080795288086 20.482315063476562 23.031089782714844 19.756576538085938 27.010950088500977 C18.0445556640625 27.010950088500977 16.715417861938477 27.010950088500977 15.208810806274414 27.010950088500977 C15.825047492980957 23.5989933013916 16.573442459106445 20.42718505859375 16.892133712768555 17.21233367919922 C17.021270751953125 15.911892890930176 16.632349014282227 13.943107604980469 15.739712715148926 13.291377067565918 C14.113027572631836 12.104215621948242 12.206168174743652 13.172057151794434 11.19798755645752 14.666582107543945 C10.039522171020508 16.3846435546875 9.175583839416504 18.37155532836914 8.544998168945312 20.356197357177734 C7.870611190795898 22.4775333404541 7.617621898651123 24.731781005859375 7.164506912231445 27.010194778442383 C5.63826322555542 27.010194778442383 4.318943023681641 27.010194778442383 2.7209558486938477 27.010194778442383 C3.8288230895996094 21.011707305908203 4.8921332359313965 15.256387710571289 5.990182876586914 9.313026428222656"></path></svg>