<svg xmlns="http://www.w3.org/2000/svg" viewBox="0.0 0.0 24.0 24.0" height="200px" width="200px"><path fill="none" stroke="black" stroke-width=".3" stroke-opacity="1.0"  filling="0" d="M20.137781143188477 9.838529586791992 C19.77939224243164 10.885019302368164 19.467199325561523 11.798508644104004 19.115182876586914 12.825886726379395 C17.60358238220215 12.704034805297852 16.275161743164062 12.409360885620117 14.997710227966309 12.557494163513184 C14.065107345581055 12.665806770324707 13.200994491577148 13.357095718383789 12.30582332611084 13.787957191467285 C12.820308685302734 14.606672286987305 13.204977035522461 15.562373161315918 13.885116577148438 16.205080032348633 C14.53339958190918 16.818321228027344 15.519363403320312 17.0572452545166 16.306222915649414 17.543060302734375 C19.979291915893555 19.81125259399414 20.12424087524414 23.896072387695312 16.484619140625 26.207271575927734 C12.836236953735352 28.523242950439453 9.005475997924805 28.44121742248535 4.732702732086182 26.341066360473633 C5.130114555358887 25.18148422241211 5.4168243408203125 24.34365463256836 5.7194623947143555 23.461227416992188 C6.233150959014893 23.497859954833984 6.610651969909668 23.50582504272461 6.98337459564209 23.555999755859375 C8.420906066894531 23.750324249267578 9.871976852416992 24.180389404296875 11.28720760345459 24.08083724975586 C12.166451454162598 24.018718719482422 13.486909866333008 23.31229591369629 13.69477367401123 22.62021255493164 C13.88989543914795 21.969539642333984 13.046491622924805 20.782878875732422 12.363962173461914 20.152915954589844 C11.613738059997559 19.460826873779297 10.465307235717773 19.223495483398438 9.594823837280273 18.6341495513916 C6.51189661026001 16.548336029052734 6.351020812988281 12.927030563354492 9.356695175170898 10.687508583068848 C12.616426467895508 8.258439064025879 16.188352584838867 8.230565071105957 20.137781143188477 9.838529586791992"></path></svg>