<svg xmlns="http://www.w3.org/2000/svg" viewBox="0.0 0.0 24.0 24.0" height="200px" width="200px"><path fill="none" stroke="black" stroke-width=".3" stroke-opacity="1.0"  filling="0" d="M14.024382591247559 9.122652053833008 L14.024382591247559 9.122652053833008 C14.64011287689209 9.122652053833008 15.255843162536621 9.122652053833008 15.871573448181152 9.122652053833008 L15.871573448181152 9.122652053833008 C15.012592315673828 11.180360794067383 14.039443969726562 13.407957077026367 12.755538940429688 15.357327461242676 C11.471632957458496 17.306697845458984 9.876972198486328 18.97784423828125 7.774966239929199 19.922653198242188 L7.774966239929199 19.922653198242188 C7.655089378356934 19.464736938476562 7.535212516784668 19.006820678710938 7.415335655212402 18.548904418945312 L7.415335655212402 18.548904418945312 C8.227056503295898 17.980037689208984 9.76954460144043 17.242027282714844 10.05511474609375 16.16932487487793 C10.244808197021484 15.456768035888672 9.74735164642334 14.174256324768066 9.58658504486084 13.579188346862793 C9.189334869384766 12.108787536621094 8.851288795471191 10.62138557434082 8.489290237426758 9.142084121704102 L8.489290237426758 9.142084121704102 C9.128769874572754 9.142084121704102 9.768248558044434 9.142084121704102 10.40772819519043 9.142084121704102 L10.40772819519043 9.142084121704102 C10.78852367401123 10.85953140258789 11.169363021850586 12.576964378356934 11.550153732299805 14.294413566589355 L11.550153732299805 14.294413566589355 C12.37486457824707 12.570475578308105 13.199604034423828 10.8465576171875 14.024382591247559 9.122652053833008 L14.024382591247559 9.122652053833008"></path></svg>