<svg xmlns="http://www.w3.org/2000/svg" viewBox="0.0 0.0 24.0 24.0" height="200px" width="200px"><path fill="none" stroke="black" stroke-width=".3" stroke-opacity="1.0"  filling="0" d="M16.738630294799805 5.212828159332275 C19.49690818786621 6.373474597930908 19.993083953857422 8.789361000061035 19.926347732543945 11.088602066040039 C19.888626098632812 14.50090503692627 19.2908935546875 17.444883346557617 17.462873458862305 19.918224334716797 C16.52100944519043 21.19261360168457 15.256484985351562 22.408973693847656 13.868350982666016 23.137277603149414 C10.192002296447754 25.065690994262695 6.469808101654053 23.310794830322266 5.729895114898682 19.2601375579834 C4.908738613128662 14.76727294921875 6.010772705078125 10.656841278076172 9.094030380249023 7.174901008605957 C9.221701622009277 7.030980587005615 9.355756759643555 6.887640953063965 9.506060600280762 6.769254684448242 C11.662542343139648 5.069488525390625 14.011110305786133 4.06552791595459 16.738630294799805 5.212828159332275"></path>
<path fill="none" stroke="black" stroke-width=".3" stroke-opacity="1.0"  filling="0" d="M14.57054328918457 7.664114475250244 C16.21343994140625 8.059894561767578 16.34343147277832 9.499096870422363 16.409587860107422 10.888391494750977 C16.422935485839844 11.177392959594727 16.41132926940918 11.467554092407227 16.41132926940918 11.757135391235352 C16.5401611328125 11.798917770385742 16.669572830200195 11.841280937194824 16.798404693603516 11.883065223693848 C16.06139373779297 14.152129173278809 15.463659286499023 16.479806900024414 14.540946006774902 18.670528411865234 C13.933347702026367 20.11089324951172 12.766897201538086 21.39108657836914 10.931915283203125 20.92856788635254 C9.197328567504883 20.49158477783203 9.002340316772461 18.835918426513672 8.99073314666748 17.412967681884766 C8.966939926147461 14.571703910827637 9.642436981201172 11.863334655761719 11.23658561706543 9.451510429382324 C12.022342681884766 8.262428283691406 13.028043746948242 7.292707443237305 14.57054328918457 7.664114475250244"></path></svg>