<svg xmlns="http://www.w3.org/2000/svg" viewBox="0.0 0.0 24.0 24.0" height="200px" width="200px"><path fill="none" stroke="black" stroke-width=".3" stroke-opacity="1.0"  filling="0" d="M19.024988174438477 6.422756671905518 C18.07735252380371 9.093314170837402 17.293212890625 11.333271026611328 16.48772430419922 13.565937995910645 C15.372952461242676 16.654598236083984 14.182162284851074 19.717227935791016 13.161633491516113 22.836090087890625 C12.911187171936035 23.600967407226562 13.196518898010254 24.540267944335938 13.245462417602539 25.623279571533203 C11.424131393432617 25.623279571533203 9.280500411987305 25.623279571533203 7.136868000030518 25.623279571533203 C10.951875686645508 24.36948585510254 10.579591751098633 20.52740478515625 12.366557121276855 18.06459617614746 C12.235345840454102 17.944320678710938 12.10517692565918 17.82404327392578 11.9755277633667 17.703765869140625 C11.457974433898926 17.934947967529297 10.960206985473633 18.240585327148438 10.419742584228516 18.384292602539062 C8.585393905639648 18.871646881103516 7.048873424530029 17.93442726135254 6.815609455108643 16.062068939208984 C6.444365978240967 13.074419021606445 7.240482807159424 10.37157917022705 9.330484390258789 8.172235488891602 C11.121095657348633 6.287901878356934 13.001264572143555 6.153566837310791 15.89050579071045 7.4599480628967285 C16.80898094177246 7.155871868133545 17.67538833618164 6.869499206542969 19.024988174438477 6.422756671905518"></path>
<path fill="none" stroke="black" stroke-width=".3" stroke-opacity="1.0"  filling="0" d="M13.997840881347656 7.878572940826416 C11.008628845214844 9.061553955078125 8.786375999450684 14.085054397583008 9.909998893737793 17.432493209838867 C13.219427108764648 16.132360458374023 15.530717849731445 10.530386924743652 13.997840881347656 7.878572940826416"></path></svg>