<svg xmlns="http://www.w3.org/2000/svg" viewBox="0.0 0.0 24.0 24.0" height="200px" width="200px"><path fill="none" stroke="black" stroke-width=".3" stroke-opacity="1.0"  filling="0" d="M14.686220169067383 7.6299519538879395 L14.686220169067383 7.6299519538879395 C15.109394073486328 7.6299519538879395 15.532567977905273 7.6299519538879395 15.955741882324219 7.6299519538879395 L15.955741882324219 7.6299519538879395 C15.691421508789062 9.617499351501465 13.964656829833984 11.30098819732666 13.279561042785645 13.164985656738281 C12.682916641235352 14.788324356079102 12.96274185180664 16.601938247680664 12.936609268188477 18.2945556640625 L12.936609268188477 18.2945556640625 C12.534674644470215 18.318342208862305 12.132739067077637 18.342130661010742 11.730804443359375 18.365917205810547 L11.730804443359375 18.365917205810547 C11.610480308532715 17.102840423583984 11.720808982849121 15.822286605834961 11.564367294311523 14.563173294067383 C11.415651321411133 13.36623764038086 10.930845260620117 12.1842041015625 10.35314655303955 11.034648895263672 C9.775446891784668 9.88509464263916 9.104853630065918 8.768017768859863 8.58456039428711 7.700994491577148 L8.58456039428711 7.700994491577148 C10.95864200592041 7.582663059234619 11.449142456054688 10.76758098602295 12.321760177612305 12.646228790283203 L12.321760177612305 12.646228790283203 C13.109939575195312 10.974148750305176 13.898107528686523 9.30206298828125 14.686220169067383 7.6299519538879395 L14.686220169067383 7.6299519538879395"></path></svg>