<svg xmlns="http://www.w3.org/2000/svg" viewBox="0.0 0.0 24.0 24.0" height="200px" width="200px"><path fill="none" stroke="black" stroke-width=".3" stroke-opacity="1.0"  filling="0" d="M12.872411727905273 8.027311325073242 L12.872411727905273 8.027311325073242 C13.154635429382324 9.269424438476562 13.436875343322754 10.511533737182617 13.71912670135498 11.753639221191406 C14.001378059387207 12.995745658874512 14.283639907836914 14.237849235534668 14.565909385681152 15.479951858520508 L14.565909385681152 15.479951858520508 C14.621417999267578 15.469876289367676 14.676926612854004 15.45980167388916 14.73243522644043 15.449726104736328 L14.73243522644043 15.449726104736328 C15.014806747436523 14.224449157714844 15.297149658203125 12.999166488647461 15.579486846923828 11.773881912231445 C15.861824035644531 10.548596382141113 16.144153594970703 9.323310852050781 16.426502227783203 8.098028182983398 L16.426502227783203 8.098028182983398 C16.83245849609375 8.098028182983398 17.238414764404297 8.098028182983398 17.644371032714844 8.098028182983398 L17.644371032714844 8.098028182983398 C17.241567611694336 9.679905891418457 16.838726043701172 11.261774063110352 16.435855865478516 12.843633651733398 C16.03298568725586 14.425494194030762 15.630085945129395 16.007347106933594 15.227167129516602 17.589195251464844 L15.227167129516602 17.589195251464844 C14.813607215881348 17.631681442260742 14.400046348571777 17.674169540405273 13.986486434936523 17.716655731201172 L13.986486434936523 17.716655731201172 C13.693050384521484 16.43262481689453 13.399595260620117 15.148599624633789 13.106128692626953 13.86457633972168 C12.812661170959473 12.58055305480957 12.519181251525879 11.29653263092041 12.225693702697754 10.012514114379883 L12.225693702697754 10.012514114379883 C11.910202026367188 11.282035827636719 11.594725608825684 12.551563262939453 11.279258728027344 13.82109260559082 C10.963790893554688 15.090622901916504 10.648332595825195 16.36015510559082 10.332878112792969 17.62968635559082 L10.332878112792969 17.62968635559082 C9.922264099121094 17.649742126464844 9.511650085449219 17.669795989990234 9.101036071777344 17.689851760864258 L9.101036071777344 17.689851760864258 C8.724992752075195 16.089250564575195 8.348915100097656 14.488656997680664 7.972803592681885 12.888071060180664 C7.596692085266113 11.287485122680664 7.220547676086426 9.686906814575195 6.844372749328613 8.086337089538574 L6.844372749328613 8.086337089538574 C7.26230525970459 8.086337089538574 7.680237770080566 8.086337089538574 8.098170280456543 8.086337089538574 L8.098170280456543 8.086337089538574 C8.368391990661621 9.331924438476562 8.638647079467773 10.577505111694336 8.908923149108887 11.823080062866211 C9.179200172424316 13.068655967712402 9.449499130249023 14.314226150512695 9.719810485839844 15.559794425964355 L9.719810485839844 15.559794425964355 C9.780926704406738 15.545726776123047 9.84204387664795 15.531660079956055 9.903160095214844 15.517592430114746 L9.903160095214844 15.517592430114746 C10.198699951171875 14.284191131591797 10.49422550201416 13.05078411102295 10.789734840393066 11.817374229431152 C11.085245132446289 10.583964347839355 11.380738258361816 9.350549697875977 11.676214218139648 8.117133140563965 L11.676214218139648 8.117133140563965 C12.074946403503418 8.08719253540039 12.473679542541504 8.057251930236816 12.872411727905273 8.027311325073242 L12.872411727905273 8.027311325073242"></path></svg>