<svg xmlns="http://www.w3.org/2000/svg" viewBox="0.0 0.0 24.0 24.0" height="200px" width="200px"><path fill="none" stroke="black" stroke-width=".3" stroke-opacity="1.0"  filling="0" d="M10.18127727508545 9.439390182495117 C14.015231132507324 7.719322681427002 18.165035247802734 9.366991996765137 19.535043716430664 13.332218170166016 C20.111846923828125 15.004549980163574 20.126169204711914 16.869415283203125 20.453950881958008 19.028650283813477 C16.168895721435547 19.028650283813477 12.376314163208008 19.028650283813477 8.586913108825684 19.028650283813477 C8.639422416687012 23.81254005432129 10.898900985717773 25.647172927856445 15.73211669921875 25.177772521972656 C16.99551773071289 25.055252075195312 18.592266082763672 23.821290969848633 19.332962036132812 26.441967010498047 C15.849069595336914 28.473112106323242 12.337329864501953 28.419809341430664 8.94651985168457 26.5732421875 C5.491267204284668 24.691669464111328 4.745798587799072 21.347801208496094 5.011526584625244 17.703195571899414 C5.2772536277771 14.052227973937988 6.63055419921875 11.032163619995117 10.18127727508545 9.439390182495117"></path>
<path fill="none" stroke="black" stroke-width=".3" stroke-opacity="1.0"  filling="0" d="M13.06052303314209 11.247769355773926 C15.278630256652832 11.349603652954102 16.5030460357666 12.987726211547852 16.85708236694336 16.602096557617188 C13.911806106567383 16.602096557617188 11.301470756530762 16.602096557617188 8.678407669067383 16.602096557617188 C9.0658597946167 13.074445724487305 10.679319381713867 11.137977600097656 13.06052303314209 11.247769355773926"></path></svg>