<svg xmlns="http://www.w3.org/2000/svg" viewBox="0.0 0.0 24.0 24.0" height="200px" width="200px"><path fill="none" stroke="black" stroke-width=".3" stroke-opacity="1.0"  filling="0" d="M12.426301956176758 5.625738620758057 C12.589744567871094 6.709993839263916 12.758977890014648 7.831570625305176 12.962960243225098 9.183511734008789 C13.967424392700195 9.361753463745117 15.063261032104492 9.556083679199219 16.23760414123535 9.764569282531738 C16.538105010986328 12.510274887084961 13.9931640625 10.8912935256958 12.970038414001465 12.166016578674316 C12.970038414001465 15.204504013061523 12.970038414001465 18.561513900756836 12.970038414001465 21.8033390045166 C13.491253852844238 22.106414794921875 13.757651329040527 22.279510498046875 14.038850784301758 22.421716690063477 C14.8457670211792 22.829681396484375 16.65457534790039 22.276935577392578 16.00981330871582 24.020751953125 C15.813552856445312 24.551620483398438 14.194570541381836 24.857269287109375 13.28083610534668 24.76010513305664 C11.23587417602539 24.54261016845703 10.217252731323242 23.22734832763672 10.039654731750488 20.639291763305664 C9.878786087036133 18.293825149536133 10.017132759094238 15.928411483764648 9.917394638061523 13.576512336730957 C9.889081001281738 12.909872055053711 9.672873497009277 12.068206787109375 9.225659370422363 11.635791778564453 C7.585441589355469 10.049627304077148 7.535250186920166 10.101749420166016 9.830525398254395 9.007843017578125 C10.231409072875977 7.614076614379883 9.181259155273438 5.210697650909424 12.426301956176758 5.625738620758057"></path></svg>