<svg xmlns="http://www.w3.org/2000/svg" viewBox="0.0 0.0 24.0 24.0" height="200px" width="200px"><path fill="none" stroke="black" stroke-width=".3" stroke-opacity="1.0"  filling="0" d="M14.55695915222168 10.594651222229004 L14.55695915222168 10.594651222229004 C14.870979309082031 11.10698413848877 15.184999465942383 11.619318008422852 15.499019622802734 12.131650924682617 L15.499019622802734 12.131650924682617 C14.018153190612793 11.832566261291504 9.942469596862793 11.418416976928711 12.109785079956055 14.28044605255127 C13.230161666870117 15.75994873046875 16.539236068725586 15.776556015014648 15.700824737548828 18.59306526184082 C15.515110969543457 19.21693992614746 15.247442245483398 19.871517181396484 14.762351989746094 20.30556297302246 C14.298871040344238 20.720273971557617 13.636460304260254 20.871030807495117 13.02542495727539 20.986940383911133 C12.18769645690918 21.145851135253906 10.225314140319824 20.879384994506836 9.397941589355469 20.792879104614258 L9.397941589355469 20.792879104614258 C9.483033180236816 20.361347198486328 9.35855484008789 19.8248348236084 9.653216361999512 19.4982852935791 C10.653921127319336 18.389286041259766 12.982043266296387 21.175874710083008 13.74882698059082 18.629051208496094 C14.215209007263184 17.079992294311523 12.658732414245605 16.38348388671875 11.268155097961426 15.595399856567383 C9.877577781677246 14.807315826416016 8.652898788452148 13.927657127380371 9.782875061035156 12.012299537658691 C10.07937240600586 11.509723663330078 10.519818305969238 11.072781562805176 11.022220611572266 10.77599048614502 C11.547341346740723 10.465779304504395 12.164290428161621 10.276920318603516 12.773392677307129 10.245672225952148 C13.378393173217773 10.214634895324707 13.96243667602539 10.478324890136719 14.55695915222168 10.594651222229004 L14.55695915222168 10.594651222229004"></path></svg>