<svg xmlns="http://www.w3.org/2000/svg" viewBox="0.0 0.0 24.0 24.0" height="200px" width="200px"><path fill="none" stroke="black" stroke-width=".3" stroke-opacity="1.0"  filling="0" d="M14.282977104187012 8.66848373413086 L14.282977104187012 8.66848373413086 C14.651167869567871 8.689786911010742 15.019357681274414 8.711091041564941 15.387548446655273 8.732394218444824 L15.387548446655273 8.732394218444824 C15.001063346862793 10.979804992675781 14.638945579528809 13.23251724243164 14.210223197937012 15.47241497039795 C13.99197769165039 16.612661361694336 13.801888465881348 18.305545806884766 12.70330810546875 19.055253982543945 C10.65248966217041 20.454803466796875 8.258668899536133 17.77435302734375 10.132880210876465 16.12237548828125 L10.132880210876465 16.12237548828125 C10.229183197021484 16.203989028930664 10.32548713684082 16.28560447692871 10.42179012298584 16.367218017578125 L10.42179012298584 16.367218017578125 C10.517840385437012 17.354246139526367 11.25534725189209 19.340251922607422 12.555970191955566 17.657028198242188 C12.774676322937012 17.373985290527344 13.13153076171875 15.082788467407227 13.159618377685547 14.92195987701416 C13.52417278289795 12.83452033996582 13.861756324768066 10.745462417602539 14.282977104187012 8.66848373413086 L14.282977104187012 8.66848373413086"></path></svg>