<svg xmlns="http://www.w3.org/2000/svg" viewBox="0.0 0.0 24.0 24.0" height="200px" width="200px"><path fill="none" stroke="black" stroke-width=".3" stroke-opacity="1.0"  filling="0" d="M16.545703887939453 9.501602172851562 C17.162813186645508 9.81987476348877 17.409008026123047 10.85810661315918 18.22047996520996 12.234046936035156 C16.022541046142578 11.875282287597656 14.787513732910156 11.367505073547363 13.69664192199707 11.584545135498047 C12.681085586547852 11.786198616027832 11.459826469421387 12.579044342041016 11.01845645904541 13.458544731140137 C10.739867210388184 14.01329517364502 11.518945693969727 15.426487922668457 12.195173263549805 16.054126739501953 C13.052807807922363 16.850210189819336 14.307270050048828 17.206546783447266 15.35522174835205 17.813127517700195 C18.064180374145508 19.38100242614746 18.96230697631836 21.103561401367188 18.57924461364746 23.721004486083984 C18.175939559936523 26.480175018310547 16.118911743164062 27.66175079345703 13.822978019714355 27.976783752441406 C11.691446304321289 28.269140243530273 9.450582504272461 27.772701263427734 7.374118804931641 27.631786346435547 C7.114965438842773 25.0928955078125 8.11756420135498 24.837791442871094 9.551814079284668 25.21842384338379 C11.701164245605469 25.789371490478516 14.180933952331543 26.441303253173828 15.109025955200195 23.784982681274414 C16.192609786987305 20.684864044189453 13.16132926940918 20.16332244873047 11.257364273071289 19.106460571289062 C7.6292219161987305 17.09316635131836 6.569124221801758 14.78994369506836 8.058444023132324 12.021865844726562 C9.522658348083496 9.299139022827148 13.630233764648438 7.9968953132629395 16.545703887939453 9.501602172851562"></path></svg>