<svg xmlns="http://www.w3.org/2000/svg" viewBox="0.0 0.0 24.0 24.0" height="200px" width="200px"><path fill="none" stroke="black" stroke-width=".3" stroke-opacity="1.0"  filling="0" d="M9.872335433959961 8.420234680175781 L9.872335433959961 8.420234680175781 C10.253091812133789 8.449786186218262 10.6338472366333 8.479336738586426 11.014603614807129 8.508888244628906 L11.014603614807129 8.508888244628906 C10.74448013305664 10.223949432373047 10.474259376525879 11.938989639282227 10.204107284545898 13.654047966003418 L10.204107284545898 13.654047966003418 C11.08499526977539 12.677619934082031 11.965734481811523 11.387266159057617 12.969932556152344 10.342375755310059 C13.974130630493164 9.2974853515625 15.101787567138672 8.498056411743164 16.47650909423828 8.503478050231934 L16.47650909423828 8.503478050231934 C15.167655944824219 9.938251495361328 13.858766555786133 11.372983932495117 12.549947738647461 12.807790756225586 L12.549947738647461 12.807790756225586 C13.501609802246094 14.876940727233887 14.453217506408691 16.946125030517578 15.404863357543945 19.015281677246094 L15.404863357543945 19.015281677246094 C14.87875747680664 18.82375144958496 14.239153861999512 18.81914520263672 13.826545715332031 18.440692901611328 C12.942756652832031 17.630064010620117 12.23957347869873 15.004432678222656 11.723824501037598 13.903178215026855 L11.723824501037598 13.903178215026855 C9.854681968688965 15.440473556518555 9.583927154541016 16.816511154174805 9.202482223510742 19.142101287841797 L9.202482223510742 19.142101287841797 C8.814614295959473 19.159231185913086 8.426746368408203 19.176359176635742 8.038878440856934 19.19348907470703 L8.038878440856934 19.19348907470703 C8.344539642333984 17.39796257019043 8.650150299072266 15.602424621582031 8.955720901489258 13.80688190460205 C9.261293411254883 12.011338233947754 9.566825866699219 10.215787887573242 9.872335433959961 8.420234680175781 L9.872335433959961 8.420234680175781"></path></svg>