<svg xmlns="http://www.w3.org/2000/svg" viewBox="0.0 0.0 24.0 24.0" height="200px" width="200px"><path fill="none" stroke="black" stroke-width=".3" stroke-opacity="1.0"  filling="0" d="M10.562390327453613 4.0069966316223145 C13.005538940429688 3.057724952697754 15.649271011352539 3.729445457458496 16.93790054321289 5.966179847717285 C19.158308029174805 9.82040786743164 18.740814208984375 13.810495376586914 16.884838104248047 17.668804168701172 C15.207287788391113 21.157432556152344 12.266180038452148 22.713703155517578 8.291254043579102 22.78891944885254 C7.646938800811768 20.890377044677734 8.788046836853027 20.76093292236328 9.86967945098877 20.573177337646484 C12.988629341125488 20.03207015991211 14.802623748779297 18.17201042175293 15.578717231750488 14.727112770080566 C14.684839248657227 15.0548095703125 14.050436973571777 15.318365097045898 13.397375106811523 15.521865844726562 C10.58513069152832 16.398832321166992 8.133235931396484 15.206413269042969 7.057434558868408 12.457141876220703 C5.736734390258789 9.082797050476074 7.319824695587158 5.267054557800293 10.562390327453613 4.0069966316223145"></path>
<path fill="none" stroke="black" stroke-width=".3" stroke-opacity="1.0"  filling="0" d="M12.64985466003418 5.5970845222473145 C14.581632614135742 5.533527851104736 15.944897651672363 7.902623653411865 15.863848686218262 10.728280067443848 C15.815450668334961 12.423323631286621 14.478425979614258 13.772011756896973 12.698833465576172 13.919533729553223 C10.627113342285156 14.091545104980469 9.055685043334961 12.385422706604004 9.031778335571289 9.363265037536621 C9.204373359680176 8.889211654663086 9.343149185180664 7.713702201843262 9.983964920043945 6.971428394317627 C10.602041244506836 6.255393028259277 11.726821899414062 5.627405166625977 12.64985466003418 5.5970845222473145"></path></svg>