<svg xmlns="http://www.w3.org/2000/svg" viewBox="0.0 0.0 24.0 24.0" height="200px" width="200px"><path fill="none" stroke="black" stroke-width=".3" stroke-opacity="1.0"  filling="0" d="M7.158455848693848 5.757777214050293 C8.056328773498535 5.757777214050293 8.81482982635498 5.757777214050293 9.76469898223877 5.757777214050293 C10.443329811096191 11.069967269897461 11.112311363220215 16.309789657592773 11.856339454650879 22.132827758789062 C14.525299072265625 16.35053062438965 16.968050003051758 11.058710098266602 19.410263061523438 5.767962455749512 C20.3022403717041 5.767962455749512 21.063419342041016 5.767962455749512 22.054561614990234 5.767962455749512 C20.976043701171875 12.159743309020996 19.927541732788086 18.37141227722168 18.851703643798828 24.747112274169922 C18.221317291259766 24.78463363647461 17.654720306396484 24.818941116333008 16.77292823791504 24.872011184692383 C17.55072593688965 20.375144958496094 18.287250518798828 16.117887496948242 19.023773193359375 11.860630989074707 C18.866178512573242 11.851515769958496 18.708581924438477 11.842402458190918 18.55044937133789 11.833290100097656 C16.756311416625977 15.701913833618164 14.935908317565918 19.558208465576172 13.18465518951416 23.44613265991211 C12.680773735046387 24.565393447875977 12.109889030456543 25.305667877197266 10.456194877624512 24.62060546875 C9.879411697387695 20.278118133544922 9.272611618041992 15.708885192871094 8.665809631347656 11.139116287231445 C8.565569877624512 11.118210792541504 8.465330123901367 11.097305297851562 8.365089416503906 11.076935768127441 C7.569601535797119 15.535743713378906 6.774113178253174 19.994552612304688 5.946462154388428 24.634544372558594 C5.444725513458252 24.714412689208984 4.884024143218994 24.803394317626953 3.914857864379883 24.957778930664062 C5.019643306732178 18.418048858642578 6.07993745803833 12.143125534057617 7.158455848693848 5.757777214050293"></path></svg>