<svg xmlns="http://www.w3.org/2000/svg" viewBox="0.0 0.0 24.0 24.0" height="200px" width="200px"><path fill="none" stroke="black" stroke-width=".3" stroke-opacity="1.0"  filling="0" d="M8.360315322875977 4.24582576751709 C9.254831314086914 4.24582576751709 9.973851203918457 4.24582576751709 10.863255500793457 4.24582576751709 C12.494966506958008 9.125622749328613 14.120429039001465 13.986676216125488 15.894694328308105 19.29243278503418 C16.74831771850586 14.63356876373291 17.51675033569336 10.384759902954102 18.310171127319336 6.141063690185547 C18.5112247467041 5.0665082931518555 18.524288177490234 3.722747802734375 20.70633888244629 4.379861354827881 C19.552837371826172 10.594332695007324 18.39252281188965 16.843448638916016 17.245838165283203 23.02100372314453 C15.672060012817383 23.82805633544922 14.893404006958008 23.332237243652344 14.415193557739258 21.861255645751953 C12.962386131286621 17.391515731811523 11.444833755493164 12.943358421325684 9.770526885986328 7.943157196044922 C8.733455657958984 13.35796070098877 7.784985065460205 18.31102180480957 6.83367395401001 23.277145385742188 C6.119765281677246 23.277145385742188 5.590439319610596 23.277145385742188 4.80326509475708 23.277145385742188 C6.002768516540527 16.85821533203125 7.172738075256348 10.599443435668945 8.360315322875977 4.24582576751709"></path></svg>