<svg xmlns="http://www.w3.org/2000/svg" viewBox="0.0 0.0 24.0 24.0" height="200px" width="200px"><path fill="none" stroke="black" stroke-width=".3" stroke-opacity="1.0"  filling="0" d="M9.58942985534668 7.672402381896973 L9.58942985534668 7.672402381896973 C11.865053176879883 7.672402381896973 14.140670776367188 7.672402381896973 16.41629409790039 7.672402381896973 L16.41629409790039 7.672402381896973 C15.578512191772461 8.395071983337402 14.502965927124023 8.88633918762207 13.415757179260254 9.091540336608887 L13.415757179260254 9.091540336608887 C12.991369247436523 11.29400634765625 12.565142631530762 13.496131896972656 12.14535903930664 15.699481010437012 C12.015508651733398 16.381032943725586 12.268310546875 17.249588012695312 11.787676811218262 17.749954223632812 C11.4367094039917 18.115331649780273 10.856180191040039 18.14873695373535 10.39043140411377 18.348129272460938 L10.39043140411377 18.348129272460938 C10.680638313293457 16.767324447631836 10.970830917358398 15.186519622802734 11.261011123657227 13.605710983276367 C11.551191329956055 12.024903297424316 11.841358184814453 10.444093704223633 12.131514549255371 8.863280296325684 L12.131514549255371 8.863280296325684 C11.688315391540527 8.819747924804688 10.03384780883789 8.657150268554688 9.58942985534668 8.613450050354004 L9.58942985534668 8.613450050354004 C9.58942985534668 8.29976749420166 9.58942985534668 7.986084938049316 9.58942985534668 7.672402381896973 L9.58942985534668 7.672402381896973"></path></svg>