<svg xmlns="http://www.w3.org/2000/svg" viewBox="0.0 0.0 24.0 24.0" height="200px" width="200px"><path fill="none" stroke="black" stroke-width=".3" stroke-opacity="1.0"  filling="0" d="M13.12781047821045 7.584507942199707 L13.12781047821045 7.584507942199707 C13.631834030151367 7.730408191680908 14.204351425170898 7.729563236236572 14.639880180358887 8.022208213806152 C17.097105026245117 9.673294067382812 15.06238842010498 12.006844520568848 13.545151710510254 13.192543029785156 L13.545151710510254 13.192543029785156 C14.42947006225586 14.94218921661377 14.474267959594727 16.30506134033203 14.693479537963867 18.239137649536133 L14.693479537963867 18.239137649536133 C14.264155387878418 18.281232833862305 13.834832191467285 18.323326110839844 13.405508041381836 18.365421295166016 L13.405508041381836 18.365421295166016 C13.326732635498047 17.37499237060547 13.496550559997559 14.726716041564941 12.58215618133545 14.03935432434082 C12.055691719055176 13.64360523223877 11.281858444213867 13.828747749328613 10.631710052490234 13.723444938659668 L10.631710052490234 13.723444938659668 C10.31988525390625 15.408252716064453 10.656721115112305 18.25080680847168 8.579353332519531 18.171701431274414 L8.579353332519531 18.171701431274414 C8.979015350341797 15.965160369873047 9.357715606689453 13.753418922424316 9.782074928283691 11.551484107971191 C9.961969375610352 10.618041038513184 9.82944107055664 9.570836067199707 10.30566120147705 8.748102188110352 C11.168548583984375 7.257347106933594 11.698760986328125 7.6037139892578125 13.12781047821045 7.584507942199707 L13.12781047821045 7.584507942199707"></path>
<path fill="none" stroke="black" stroke-width=".3" stroke-opacity="1.0"  filling="0" d="M11.616216659545898 8.72233772277832 L11.616216659545898 8.72233772277832 C12.729854583740234 8.633349418640137 13.326974868774414 8.294990539550781 14.144445419311523 9.31590461730957 C15.056260108947754 10.454641342163086 13.840875625610352 12.091732025146484 12.751899719238281 12.471816062927246 C12.15559196472168 12.67994499206543 11.489005088806152 12.498270988464355 10.85755729675293 12.51149845123291 L10.85755729675293 12.51149845123291 C11.110451698303223 11.248446464538574 11.3633394241333 9.985393524169922 11.616216659545898 8.72233772277832 L11.616216659545898 8.72233772277832"></path></svg>