<svg xmlns="http://www.w3.org/2000/svg" viewBox="0.0 0.0 24.0 24.0" height="200px" width="200px"><path fill="none" stroke="black" stroke-width=".3" stroke-opacity="1.0"  filling="0" d="M13.992764472961426 4.212846279144287 C15.32336139678955 4.084739685058594 16.70406150817871 4.476459980010986 18.06199073791504 4.634173393249512 C18.142269134521484 4.8864006996154785 18.222549438476562 5.138058185577393 18.30282974243164 5.390284538269043 C17.837661743164062 5.7478437423706055 17.409502029418945 6.324606418609619 16.898784637451172 6.411149978637695 C16.18423843383789 6.532423496246338 15.40876579284668 6.226677417755127 14.657209396362305 6.213012218475342 C13.235514640808105 6.186821460723877 11.991459846496582 6.655975341796875 11.425514221191406 8.053756713867188 C10.819714546203613 9.550039291381836 11.332708358764648 10.836225509643555 12.549433708190918 11.832609176635742 C13.13245964050293 12.310302734375 13.790641784667969 12.694621086120605 14.389609336853027 13.154664993286133 C16.704631805419922 14.931073188781738 17.539316177368164 16.957998275756836 16.78662109375 19.286685943603516 C15.971864700317383 21.807819366455078 14.070767402648926 23.141830444335938 11.524014472961426 23.362743377685547 C10.246936798095703 23.47319984436035 8.898119926452637 23.208446502685547 7.634138107299805 22.898143768310547 C6.298416614532471 22.569053649902344 6.410011291503906 21.706470489501953 7.117157459259033 20.871788024902344 C8.57984733581543 21.03006935119629 9.963964462280273 21.28913116455078 11.350358963012695 21.301654815673828 C12.948555946350098 21.31589126586914 14.016677856445312 20.326339721679688 14.521700859069824 18.889841079711914 C15.012490272521973 17.49319839477539 14.427186965942383 16.282167434692383 13.381839752197266 15.328486442565918 C12.756681442260742 14.757986068725586 12.0330228805542 14.29680347442627 11.360037803649902 13.778116226196289 C9.090563774108887 12.029606819152832 8.329896926879883 10.172920227050781 9.083162307739258 7.9057230949401855 C9.856924057006836 5.5776047706604 11.69766902923584 4.43375825881958 13.992764472961426 4.212846279144287"></path></svg>