<svg xmlns="http://www.w3.org/2000/svg" viewBox="0.0 0.0 24.0 24.0" height="200px" width="200px"><path fill="none" stroke="black" stroke-width=".3" stroke-opacity="1.0"  filling="0" d="M15.740571975708008 9.776750564575195 L15.740571975708008 9.776750564575195 C15.476801872253418 11.087968826293945 15.325088500976562 12.75283432006836 15.031584739685059 14.364341735839844 C14.738080978393555 15.975849151611328 14.30278491973877 17.534000396728516 13.47184944152832 18.63178825378418 C12.229869842529297 20.272626876831055 9.858630180358887 20.57448959350586 8.926498413085938 18.71352195739746 L8.926498413085938 18.71352195739746 C11.685516357421875 18.735210418701172 12.650531768798828 18.64398956298828 13.140807151794434 15.82288646697998 L13.140807151794434 15.82288646697998 C10.354958534240723 17.616619110107422 8.3326416015625 15.811721801757812 9.212773323059082 12.62204360961914 C9.651455879211426 11.032217025756836 10.938066482543945 9.683956146240234 12.558616638183594 9.294279098510742 C14.020528793334961 8.942748069763184 14.377594947814941 9.29610538482666 15.740571975708008 9.776750564575195 L15.740571975708008 9.776750564575195"></path>
<path fill="none" stroke="black" stroke-width=".3" stroke-opacity="1.0"  filling="0" d="M14.404211044311523 10.510432243347168 L14.404211044311523 10.510432243347168 C14.237430572509766 11.142557144165039 14.08633804321289 11.779031753540039 13.90386962890625 12.406807899475098 C13.729268074035645 13.007519721984863 13.649186134338379 13.654715538024902 13.333346366882324 14.1947021484375 C12.880356788635254 14.969172477722168 11.597097396850586 16.592073440551758 10.496316909790039 15.046064376831055 C9.50314998626709 13.651195526123047 10.986531257629395 10.731544494628906 12.502443313598633 10.340651512145996 C13.118727684020996 10.18173599243164 13.770288467407227 10.453838348388672 14.404211044311523 10.510432243347168 L14.404211044311523 10.510432243347168"></path></svg>