<svg xmlns="http://www.w3.org/2000/svg" viewBox="0.0 0.0 24.0 24.0" height="200px" width="200px"><path fill="none" stroke="black" stroke-width=".3" stroke-opacity="1.0"  filling="0" d="M18.649906158447266 8.04755687713623 C17.717763900756836 12.51033878326416 16.980731964111328 16.94548988342285 15.8314847946167 21.27067756652832 C14.793891906738281 25.176315307617188 11.231674194335938 26.959400177001953 7.493515491485596 25.846805572509766 C6.522462844848633 25.557519912719727 5.622463226318359 25.184776306152344 6.535996913909912 23.935152053833008 C12.344831466674805 24.354700088500977 13.703289985656738 23.447368621826172 14.028101921081543 18.79624366760254 C13.501410484313965 19.13797378540039 13.07058334350586 19.462783813476562 12.601410865783691 19.71485137939453 C9.535432815551758 21.359779357910156 6.9014105796813965 19.979324340820312 6.691636562347412 16.446430206298828 C6.265883445739746 9.265037536621094 13.110620498657227 4.809022426605225 18.649906158447266 8.04755687713623"></path>
<path fill="none" stroke="black" stroke-width=".3" stroke-opacity="1.0"  filling="0" d="M16.274152755737305 9.351880073547363 C15.629605293273926 11.658834457397461 15.181296348571777 13.851880073547363 14.370393753051758 15.901692390441895 C13.99426555633545 16.854135513305664 13.017574310302734 17.678569793701172 12.127724647521973 18.291540145874023 C10.985243797302246 19.078195571899414 9.74464225769043 18.559961318969727 9.32678508758545 17.415225982666016 C8.464567184448242 15.053007125854492 9.013251304626465 12.762405395507812 10.588251113891602 10.818044662475586 C11.903288841247559 9.195112228393555 13.524530410766602 8.21503734588623 16.274152755737305 9.351880073547363"></path></svg>