<svg xmlns="http://www.w3.org/2000/svg" viewBox="0.0 0.0 24.0 24.0" height="200px" width="200px"><path fill="none" stroke="black" stroke-width=".3" stroke-opacity="1.0"  filling="0" d="M10.327934265136719 7.50920295715332 L10.327934265136719 7.50920295715332 C12.134057998657227 7.228903770446777 14.545736312866211 6.8598809242248535 15.933743476867676 8.455693244934082 C17.123666763305664 9.82376480102539 16.971450805664062 11.149117469787598 16.19379425048828 12.123007774353027 C15.416139602661133 13.096899032592773 14.013044357299805 13.719326972961426 12.701210975646973 13.681550979614258 L12.701210975646973 13.681550979614258 C13.926071166992188 12.614775657653809 15.9744873046875 9.562928199768066 13.890304565429688 8.054547309875488 C13.43961238861084 7.728368759155273 12.797443389892578 7.845454216003418 12.251012802124023 7.740907669067383 L12.251012802124023 7.740907669067383 C12.016629219055176 9.416382789611816 11.619750022888184 11.171721458435059 11.400596618652344 12.919843673706055 C11.181443214416504 14.66796588897705 11.140016555786133 16.408870697021484 11.616536140441895 18.05548095703125 L11.616536140441895 18.05548095703125 C10.62761402130127 18.055280685424805 9.638692855834961 18.05516815185547 8.649770736694336 18.05514144897461 L8.649770736694336 18.05514144897461 C9.16632080078125 16.316448211669922 9.527708053588867 14.58273983001709 9.78903579711914 12.832317352294922 C10.050361633300781 11.081893920898438 10.211627960205078 9.314756393432617 10.327934265136719 7.50920295715332 L10.327934265136719 7.50920295715332"></path></svg>