<svg xmlns="http://www.w3.org/2000/svg" viewBox="0.0 0.0 24.0 24.0" height="200px" width="200px"><path fill="none" stroke="black" stroke-width=".3" stroke-opacity="1.0"  filling="0" d="M10.922259330749512 4.384535312652588 C13.506589889526367 4.384535312652588 16.100383758544922 4.384535312652588 18.72257423400879 4.384535312652588 C18.2026309967041 6.031904697418213 18.2026309967041 6.031904697418213 12.634696006774902 6.422896862030029 C12.169173240661621 7.730737209320068 11.659287452697754 9.1633882522583 11.138162612915039 10.62679672241211 C11.512591361999512 10.892387390136719 11.71666431427002 11.153837203979492 11.95090389251709 11.184596061706543 C14.266687393188477 11.489226341247559 16.095653533935547 12.39601993560791 16.719701766967773 14.873286247253418 C17.382198333740234 17.506711959838867 16.558809280395508 19.755062103271484 14.735757827758789 21.60650634765625 C12.485042572021484 23.892711639404297 9.186161041259766 24.245258331298828 5.469078063964844 22.405052185058594 C6.445078372955322 21.931251525878906 7.026537895202637 21.45981216430664 7.655910491943359 21.38528060913086 C8.708807945251465 21.26047134399414 9.827363967895508 21.57042694091797 10.855417251586914 21.37285804748535 C13.193086624145508 20.92330551147461 14.698493003845215 18.712223052978516 14.46188735961914 16.365680694580078 C14.244209289550781 14.204282760620117 13.1019926071167 13.281518936157227 10.366233825683594 13.056151390075684 C9.792463302612305 13.008830070495605 9.218694686889648 12.961509704589844 8.471610069274902 12.899991989135742 C9.298548698425293 10.02700138092041 10.082306861877441 7.303072452545166 10.922259330749512 4.384535312652588"></path></svg>