<svg xmlns="http://www.w3.org/2000/svg" viewBox="0.0 0.0 24.0 24.0" height="200px" width="200px"><path fill="none" stroke="black" stroke-width=".3" stroke-opacity="1.0"  filling="0" d="M10.804832458496094 4.810835838317871 C13.13835334777832 3.4718732833862305 16.392629623413086 4.182940483093262 17.629676818847656 6.154484272003174 C18.903623580932617 8.185186386108398 18.17381477355957 10.514020919799805 15.662233352661133 12.425821304321289 C15.357656478881836 12.657767295837402 15.046052932739258 12.881513595581055 14.725076675415039 13.118731498718262 C17.342086791992188 15.53132438659668 17.82238006591797 18.148921966552734 16.14194107055664 20.552143096923828 C14.086052894592285 23.49129867553711 10.058621406555176 24.25859832763672 5.943331241607666 22.05335235595703 C6.9642462730407715 21.634559631347656 7.5722270011901855 21.21576690673828 8.211250305175781 21.16129493713379 C9.256766319274902 21.072265625 10.351482391357422 21.397342681884766 11.37356948852539 21.230411529541016 C13.421257019042969 20.89537811279297 14.671775817871094 19.31509780883789 14.682904243469238 17.371667861938477 C14.692861557006836 15.599270820617676 13.850591659545898 14.724786758422852 11.560415267944336 14.150776863098145 C11.196681022644043 14.059404373168945 10.820646286010742 14.016645431518555 9.774545669555664 13.83214282989502 C10.629701614379883 13.084174156188965 11.043807029724121 12.585723876953125 11.57213020324707 12.288763046264648 C12.652788162231445 11.680782318115234 14.018694877624512 11.40022087097168 14.83753490447998 10.564393997192383 C15.446687698364258 9.942941665649414 15.808664321899414 8.476877212524414 15.488859176635742 7.72305154800415 C15.189555168151855 7.0172553062438965 13.889836311340332 6.541647911071777 12.953264236450195 6.358316898345947 C12.151994705200195 6.202514171600342 11.241781234741211 6.603148460388184 9.762245178222656 6.867895603179932 C10.198609352111816 5.962953090667725 10.328639030456543 5.084368705749512 10.804832458496094 4.810835838317871"></path></svg>