<svg xmlns="http://www.w3.org/2000/svg" viewBox="0.0 0.0 24.0 24.0" height="200px" width="200px"><path fill="none" stroke="black" stroke-width=".3" stroke-opacity="1.0"  filling="0" d="M9.501233100891113 7.665719985961914 L9.501233100891113 7.665719985961914 C9.964677810668945 7.665719985961914 10.428123474121094 7.665719985961914 10.891568183898926 7.665719985961914 L10.891568183898926 7.665719985961914 C10.891568183898926 9.267845153808594 10.891568183898926 10.869970321655273 10.891568183898926 12.472095489501953 C10.891568183898926 14.074220657348633 10.891568183898926 15.676345825195312 10.891568183898926 17.278470993041992 L10.891568183898926 17.278470993041992 C11.755244255065918 17.280614852905273 14.308954238891602 16.870201110839844 15.060640335083008 17.27170181274414 C15.496251106262207 17.504375457763672 15.64539909362793 18.067712783813477 15.93777847290039 18.46571922302246 L15.93777847290039 18.46571922302246 C13.792263984680176 18.46571922302246 11.646747589111328 18.46571922302246 9.501233100891113 18.46571922302246 L9.501233100891113 18.46571922302246 C9.501233100891113 16.66571807861328 9.501233100891113 14.865718841552734 9.501233100891113 13.065719604492188 C9.501233100891113 11.265719413757324 9.501233100891113 9.465720176696777 9.501233100891113 7.665719985961914 L9.501233100891113 7.665719985961914"></path></svg>