<svg xmlns="http://www.w3.org/2000/svg" viewBox="0.0 0.0 24.0 24.0" height="200px" width="200px"><path fill="none" stroke="black" stroke-width=".3" stroke-opacity="1.0"  filling="0" d="M6.429640293121338 4.568609714508057 C9.621434211730957 3.9178009033203125 12.821718215942383 3.659740447998047 15.964276313781738 4.963622093200684 C17.993669509887695 5.805712699890137 18.968185424804688 7.519321441650391 19.017986297607422 9.651145935058594 C19.072879791259766 11.992361068725586 18.161182403564453 14.030807495117188 15.895235061645508 14.861014366149902 C13.827924728393555 15.618215560913086 11.581785202026367 15.885897636413574 9.003448486328125 16.461437225341797 C9.003448486328125 18.373119354248047 9.003448486328125 20.6690616607666 9.003448486328125 23.23211669921875 C7.850667476654053 23.23211669921875 7.216835975646973 23.23211669921875 6.429640293121338 23.23211669921875 C6.429640293121338 17.05848503112793 6.429640293121338 10.976532936096191 6.429640293121338 4.568609714508057"></path>
<path fill="none" stroke="black" stroke-width=".3" stroke-opacity="1.0"  filling="0" d="M9.006844520568848 6.514245986938477 C11.537642478942871 6.0581135749816895 13.967707633972168 5.7027153968811035 15.800158500671387 7.818127155303955 C16.884464263916016 9.069944381713867 16.75882911682129 10.709983825683594 15.813176155090332 12.001415252685547 C14.10805606842041 14.330744743347168 11.650261878967285 13.960067749023438 9.006844520568848 13.63239860534668 C9.006844520568848 11.085188865661621 9.006844520568848 8.867910385131836 9.006844520568848 6.514245986938477"></path></svg>