<svg xmlns="http://www.w3.org/2000/svg" viewBox="0.0 0.0 24.0 24.0" height="200px" width="200px"><path fill="none" stroke="black" stroke-width=".3" stroke-opacity="1.0"  filling="0" d="M4.874037265777588 9.137243270874023 C10.425873756408691 9.137243270874023 15.705729484558105 9.137243270874023 21.2690372467041 9.137243270874023 C21.283782958984375 13.23824691772461 17.766061782836914 14.889787673950195 15.869573593139648 17.493261337280273 C13.984554290771484 20.080352783203125 11.73006820678711 22.39873695373535 8.965208053588867 25.617443084716797 C12.92284870147705 25.617443084716797 15.868754386901855 25.57156753540039 18.81220245361328 25.633007049560547 C20.8692569732666 25.67560577392578 20.86762237548828 25.74114418029785 21.449264526367188 28.337244033813477 C15.731124877929688 28.33642578125 10.067056655883789 28.33642578125 3.7934885025024414 28.33642578125 C4.466885089874268 24.49102020263672 7.5020856857299805 22.71249771118164 9.414139747619629 20.221256256103516 C11.391730308532715 17.643999099731445 13.663420677185059 15.29284381866455 16.30293846130371 12.275666236877441 C12.328096389770508 12.275666236877441 8.918513298034668 12.275666236877441 5.2516961097717285 12.275666236877441 C5.10014009475708 11.014070510864258 5.0001959800720215 10.184203147888184 4.874037265777588 9.137243270874023"></path></svg>