<svg xmlns="http://www.w3.org/2000/svg" viewBox="0.0 0.0 24.0 24.0" height="200px" width="200px"><path fill="none" stroke="black" stroke-width=".3" stroke-opacity="1.0"  filling="0" d="M21.541223526000977 8.949223518371582 C21.541223526000977 15.343853950500488 21.541223526000977 21.452651977539062 21.541223526000977 27.885128021240234 C20.770679473876953 27.94792938232422 19.92605972290039 28.01637077331543 18.836669921875 28.105743408203125 C18.628131866455078 27.07110595703125 18.4501895904541 26.19347381591797 18.253726959228516 25.22083282470703 C17.901870727539062 25.372203826904297 17.546791076660156 25.478485107421875 17.240022659301758 25.665283203125 C16.33179473876953 26.217628479003906 15.498446464538574 26.92617416381836 14.537884712219238 27.35049819946289 C9.41702651977539 29.61301612854004 4.654466152191162 26.900409698486328 3.98134708404541 21.368915557861328 C3.868623733520508 20.442974090576172 3.867013931274414 19.500125885009766 3.8629884719848633 18.56452178955078 C3.8493003845214844 15.503278732299805 3.858157157897949 12.442036628723145 3.858157157897949 9.052286148071289 C5.2575364112854 9.052286148071289 6.139193534851074 9.052286148071289 7.045811176300049 9.052286148071289 C7.182689189910889 9.590941429138184 7.350969314575195 9.961318016052246 7.359020709991455 10.334915161132812 C7.424238681793213 13.408235549926758 7.288166046142578 16.49685287475586 7.54581880569458 19.552459716796875 C7.878353118896484 23.498580932617188 9.498347282409668 25.093616485595703 12.567642211914062 25.02356719970703 C15.711816787719727 24.951906204223633 17.798004150390625 22.86491584777832 18.070953369140625 19.354389190673828 C18.20541763305664 17.62569808959961 18.126510620117188 15.879290580749512 18.134563446044922 14.140935897827148 C18.141809463500977 12.552343368530273 18.136173248291016 10.964555740356445 18.136173248291016 9.11025619506836 C19.379352569580078 9.05147933959961 20.35118865966797 9.005584716796875 21.541223526000977 8.949223518371582"></path></svg>