<svg xmlns="http://www.w3.org/2000/svg" viewBox="0.0 0.0 24.0 24.0" height="200px" width="200px"><path fill="none" stroke="black" stroke-width=".3" stroke-opacity="1.0"  filling="0" d="M8.581666946411133 8.640035629272461 L8.581666946411133 8.640035629272461 C8.64017105102539 9.907313346862793 8.698677062988281 11.174590110778809 8.757186889648438 12.441866874694824 C8.815696716308594 13.709144592285156 8.874208450317383 14.976421356201172 8.932723045349121 16.243698120117188 L8.932723045349121 16.243698120117188 C8.990524291992188 16.256637573242188 9.048325538635254 16.269575119018555 9.10612678527832 16.282514572143555 L9.10612678527832 16.282514572143555 C9.825092315673828 14.60554027557373 10.547721862792969 12.930079460144043 11.260554313659668 11.250482559204102 C11.621780395507812 10.399351119995117 11.662025451660156 9.177142143249512 12.488935470581055 8.76346492767334 C12.804362297058105 8.605667114257812 13.194234848022461 8.774868965148926 13.546884536743164 8.780570983886719 L13.546884536743164 8.780570983886719 C13.661779403686523 11.192720413208008 13.776611328125 13.604872703552246 13.891423225402832 16.017026901245117 L13.891423225402832 16.017026901245117 C13.96121883392334 16.038843154907227 14.031015396118164 16.06066131591797 14.100811004638672 16.082477569580078 L14.100811004638672 16.082477569580078 C14.701818466186523 14.852424621582031 15.113361358642578 13.323324203491211 15.691250801086426 11.95266342163086 C16.26913833618164 10.582002639770508 17.01337432861328 9.369781494140625 18.27976417541504 8.773487091064453 L18.27976417541504 8.773487091064453 C17.594316482543945 10.433609962463379 16.908893585205078 12.093742370605469 16.223461151123047 13.75387191772461 C15.538029670715332 15.41400146484375 14.852590560913086 17.074127197265625 14.16711139678955 18.734237670898438 L14.16711139678955 18.734237670898438 C13.761466026306152 18.734237670898438 13.355819702148438 18.734237670898438 12.950174331665039 18.734237670898438 L12.950174331665039 18.734237670898438 C12.832832336425781 16.316513061523438 12.71535587310791 13.89879035949707 12.59798526763916 11.48106575012207 L12.59798526763916 11.48106575012207 C12.524317741394043 11.4605712890625 12.45064926147461 11.440075874328613 12.376981735229492 11.419581413269043 L12.376981735229492 11.419581413269043 C11.765243530273438 12.786787033081055 11.154468536376953 14.154449462890625 10.552651405334473 15.526062965393066 C10.186488151550293 16.360591888427734 10.141704559326172 17.41077423095703 9.485515594482422 18.043174743652344 C9.099017143249512 18.41566276550293 8.504977226257324 18.48027229309082 8.014707565307617 18.698822021484375 L8.014707565307617 18.698822021484375 C7.925518989562988 17.034399032592773 7.836342811584473 15.369975090026855 7.747148513793945 13.705551147460938 C7.657954216003418 12.041128158569336 7.568742275238037 10.376705169677734 7.4794816970825195 8.712285995483398 L7.4794816970825195 8.712285995483398 C7.846876621246338 8.688202857971191 8.214271545410156 8.664118766784668 8.581666946411133 8.640035629272461 L8.581666946411133 8.640035629272461"></path></svg>