<svg xmlns="http://www.w3.org/2000/svg" viewBox="0.0 0.0 24.0 24.0" height="200px" width="200px"><path fill="none" stroke="black" stroke-width=".3" stroke-opacity="1.0"  filling="0" d="M12.256486892700195 4.925842761993408 C12.450401306152344 6.376173496246338 12.622632026672363 7.664186954498291 12.809112548828125 9.05813980102539 C14.118188858032227 9.162221908569336 15.322565078735352 9.257630348205566 16.635358810424805 9.361711502075195 C16.878835678100586 12.625421524047852 14.172089576721191 10.819477081298828 12.731051445007324 11.819406509399414 C12.731051445007324 14.308696746826172 12.605905532836914 17.04766082763672 12.77070140838623 19.76865577697754 C12.903282165527344 21.966766357421875 14.865968704223633 21.58451271057129 16.39497947692871 21.727624893188477 C16.806350708007812 22.94934844970703 16.753070831298828 23.73305892944336 15.305218696594238 24.013710021972656 C12.43553352355957 24.56943130493164 10.298138618469238 23.039180755615234 9.941905975341797 19.96442985534668 C9.788261413574219 18.638626098632812 9.854551315307617 17.286182403564453 9.840921401977539 15.945508003234863 C9.827291488647461 14.6104097366333 9.837823867797852 13.27469253540039 9.837823867797852 11.782854080200195 C8.582646369934082 11.249433517456055 6.748823642730713 11.626730918884277 7.5808587074279785 9.432339668273926 C8.19110107421875 9.306573867797852 8.871350288391113 9.165939331054688 9.697189331054688 8.995567321777344 C9.777729034423828 7.975812911987305 9.857029914855957 6.970927715301514 9.956155776977539 5.714511394500732 C10.59675407409668 5.4945759773254395 11.326565742492676 5.244903564453125 12.256486892700195 4.925842761993408"></path></svg>