<svg xmlns="http://www.w3.org/2000/svg" viewBox="0.0 0.0 24.0 24.0" height="200px" width="200px"><path fill="none" stroke="black" stroke-width=".3" stroke-opacity="1.0"  filling="0" d="M10.331134796142578 7.684305191040039 L10.331134796142578 7.684305191040039 C12.303017616271973 7.684305191040039 14.274897575378418 7.684305191040039 16.246780395507812 7.684305191040039 L16.246780395507812 7.684305191040039 C14.73252010345459 9.20398998260498 13.639551162719727 8.761016845703125 11.551980972290039 8.762826919555664 L11.551980972290039 8.762826919555664 C11.528703689575195 8.878149032592773 10.886722564697266 12.057995796203613 10.872483253479004 12.128509521484375 L10.872483253479004 12.128509521484375 C12.247221946716309 12.128509521484375 13.621957778930664 12.128509521484375 14.996697425842285 12.128509521484375 L14.996697425842285 12.128509521484375 C14.996697425842285 12.5258207321167 14.996697425842285 12.923130989074707 14.996697425842285 13.320442199707031 L14.996697425842285 13.320442199707031 C13.562845230102539 13.320442199707031 12.128993034362793 13.320442199707031 10.69513988494873 13.320442199707031 L10.69513988494873 13.320442199707031 C10.430585861206055 14.612497329711914 10.166070938110352 15.904560089111328 9.901589393615723 17.196630477905273 L9.901589393615723 17.196630477905273 C11.453137397766113 17.196630477905273 13.004680633544922 17.196630477905273 14.556229591369629 17.196630477905273 L14.556229591369629 17.196630477905273 C14.36678409576416 17.621570587158203 14.399169921875 18.253931045532227 13.987893104553223 18.471450805664062 C13.438311576843262 18.76211929321289 12.74450397491455 18.481891632080078 12.122793197631836 18.4836483001709 C11.652975082397461 18.484975814819336 8.735774993896484 18.479585647583008 8.288143157958984 18.47884178161621 L8.288143157958984 18.47884178161621 C8.628642082214355 16.679752349853516 8.969165802001953 14.880667686462402 9.309677124023438 13.081581115722656 C9.650188446044922 11.282493591308594 9.990686416625977 9.483404159545898 10.331134796142578 7.684305191040039 L10.331134796142578 7.684305191040039"></path></svg>