<svg xmlns="http://www.w3.org/2000/svg" viewBox="0.0 0.0 24.0 24.0" height="200px" width="200px"><path fill="none" stroke="black" stroke-width=".3" stroke-opacity="1.0"  filling="0" d="M9.264185905456543 7.676595687866211 L9.264185905456543 7.676595687866211 C10.647626876831055 7.676595687866211 12.031065940856934 7.676595687866211 13.414505958557129 7.676595687866211 C14.797945022583008 7.676595687866211 16.181385040283203 7.676595687866211 17.5648250579834 7.676595687866211 L17.5648250579834 7.676595687866211 C16.26842498779297 9.280562400817871 14.97208023071289 10.88457202911377 13.675734519958496 12.488581657409668 C12.379388809204102 14.09259033203125 11.08304214477539 15.696599960327148 9.786642074584961 17.300565719604492 L9.786642074584961 17.300565719604492 C12.415215492248535 17.996273040771484 14.133872032165527 18.029865264892578 16.20981216430664 16.162960052490234 L16.20981216430664 16.162960052490234 C16.10967445373535 16.729782104492188 16.3001651763916 17.440793991088867 15.909400939941406 17.863426208496094 C15.545062065124512 18.257478713989258 14.867393493652344 18.13931655883789 14.333354949951172 18.192447662353516 C13.100337982177734 18.31511688232422 11.8276948928833 18.316492080688477 10.553561210632324 18.28697395324707 C9.279428482055664 18.257457733154297 8.003804206848145 18.19704818725586 6.76482629776001 18.196155548095703 L6.76482629776001 18.196155548095703 C8.087407112121582 16.594167709350586 9.409979820251465 14.992173194885254 10.73257064819336 13.390193939208984 C12.055160522460938 11.788214683532715 13.377769470214844 10.186249732971191 14.700421333312988 8.584320068359375 L14.700421333312988 8.584320068359375 C12.347696304321289 7.887451648712158 10.860529899597168 8.117570877075195 8.736000061035156 9.330589294433594 L8.736000061035156 9.330589294433594 C8.637897491455078 8.76020336151123 9.035223007202148 8.20814037322998 9.264185905456543 7.676595687866211 L9.264185905456543 7.676595687866211"></path></svg>