<svg xmlns="http://www.w3.org/2000/svg" viewBox="0.0 0.0 24.0 24.0" height="200px" width="200px"><path fill="none" stroke="black" stroke-width=".3" stroke-opacity="1.0"  filling="0" d="M17.544631958007812 3.9578676223754883 C17.584604263305664 4.122621059417725 17.684537887573242 4.300879001617432 17.651046752929688 4.449427127838135 C17.573802947998047 4.796219348907471 17.432815551757812 5.128427982330322 17.322620391845703 5.451452732086182 C14.050236701965332 5.709116458892822 13.562458038330078 6.170966625213623 12.852666854858398 9.759893417358398 C13.711546897888184 9.876570701599121 14.562864303588867 9.992169380187988 15.420661926269531 10.108846664428711 C15.058204650878906 11.575423240661621 15.058204650878906 11.575423240661621 12.316812515258789 12.12694263458252 C11.637271881103516 15.54193115234375 10.940985679626465 19.036869049072266 10.205266952514648 22.730587005615234 C9.572721481323242 22.76245880126953 8.925050735473633 22.794870376586914 7.965157985687256 22.84348487854004 C8.625252723693848 19.172992706298828 9.238351821899414 15.765024185180664 9.870357513427734 12.25334358215332 C9.337743759155273 11.931398391723633 8.839162826538086 11.62998104095459 8.287102699279785 11.296152114868164 C8.431869506835938 10.909387588500977 8.51235580444336 10.32491683959961 8.681970596313477 10.297907829284668 C10.300336837768555 10.040244102478027 10.570425033569336 8.813505172729492 10.98906135559082 7.526267051696777 C12.069412231445312 4.203646659851074 14.367319107055664 3.0098581314086914 17.544631958007812 3.9578676223754883"></path></svg>