<svg xmlns="http://www.w3.org/2000/svg" viewBox="0.0 0.0 24.0 24.0" height="200px" width="200px"><path fill="none" stroke="black" stroke-width=".3" stroke-opacity="1.0"  filling="0" d="M12.473554611206055 3.823967933654785 C12.736224174499512 3.712024688720703 13.307838439941406 4.32462739944458 14.048690795898438 4.815149784088135 C13.372183799743652 5.390730857849121 12.981704711914062 5.984381675720215 12.58505630493164 5.988789081573486 C12.17077922821045 5.9931960105896 11.750772476196289 5.430836200714111 11.332968711853027 5.115721225738525 C11.703174591064453 4.661337375640869 11.996253967285156 4.0271406173706055 12.473554611206055 3.823967933654785"></path>
<path fill="none" stroke="black" stroke-width=".3" stroke-opacity="1.0"  filling="0" d="M11.103353500366211 8.265551567077637 C11.668798446655273 8.265551567077637 12.211325645446777 8.265551567077637 12.799246788024902 8.265551567077637 C12.799246788024902 8.544968605041504 12.832741737365723 8.755633354187012 12.79439926147461 8.952194213867188 C12.108637809753418 12.473553657531738 11.489424705505371 16.010337829589844 10.698771476745605 19.508338928222656 C10.063693046569824 22.315731048583984 8.875950813293457 23.11608123779297 5.430835723876953 22.999732971191406 C5.937664985656738 22.325428009033203 6.20958948135376 21.614543914794922 6.533519744873047 21.59030532836914 C8.396886825561523 21.44971466064453 8.718613624572754 20.092296600341797 8.997589111328125 18.699176788330078 C9.629583358764648 15.539648056030273 10.220149040222168 12.371747016906738 10.834073066711426 9.208694458007812 C10.88872241973877 8.92663288116455 10.99096965789795 8.653826713562012 11.103353500366211 8.265551567077637"></path></svg>