<svg xmlns="http://www.w3.org/2000/svg" viewBox="0.0 0.0 24.0 24.0" height="200px" width="200px"><path fill="none" stroke="black" stroke-width=".3" stroke-opacity="1.0"  filling="0" d="M8.051217079162598 10.9590482711792 L8.051217079162598 10.9590482711792 C8.35627555847168 10.9590482711792 8.661333084106445 10.9590482711792 8.966391563415527 10.9590482711792 L8.966391563415527 10.9590482711792 C9.021093368530273 11.272408485412598 9.07579517364502 11.585768699645996 9.130496978759766 11.899128913879395 L9.130496978759766 11.899128913879395 C11.087215423583984 10.80141830444336 11.520376205444336 10.534013748168945 13.232316970825195 12.077625274658203 L13.232316970825195 12.077625274658203 C13.522769927978516 11.912267684936523 15.006010055541992 11.021151542663574 15.380915641784668 10.990042686462402 C17.180328369140625 10.84073257446289 17.654394149780273 11.95762825012207 17.635879516601562 13.36092758178711 C17.617366790771484 14.764225959777832 17.10626983642578 16.453927993774414 16.93535614013672 17.450227737426758 L16.93535614013672 17.450227737426758 C16.532886505126953 17.450227737426758 16.130416870117188 17.450227737426758 15.727946281433105 17.450227737426758 L15.727946281433105 17.450227737426758 C15.952801704406738 16.269161224365234 16.824382781982422 14.053062438964844 16.44943618774414 12.840731620788574 C15.996395111083984 11.375890731811523 14.50983715057373 11.940289497375488 13.810422897338867 12.778051376342773 C12.82687759399414 13.956146240234375 12.677764892578125 16.041717529296875 12.405144691467285 17.47015380859375 L12.405144691467285 17.47015380859375 C12.065032958984375 17.47015380859375 11.724921226501465 17.47015380859375 11.384809494018555 17.47015380859375 L11.384809494018555 17.47015380859375 C11.313215255737305 16.410797119140625 12.89258861541748 12.805048942565918 11.494399070739746 12.068216323852539 C8.943578720092773 10.723957061767578 8.179898262023926 16.335857391357422 7.987290382385254 17.46406364440918 L7.987290382385254 17.46406364440918 C7.6064982414245605 17.48196029663086 7.225705623626709 17.499855041503906 6.844913482666016 17.517751693725586 L6.844913482666016 17.517751693725586 C7.247163772583008 15.331543922424316 7.649240016937256 13.145306587219238 8.051217079162598 10.9590482711792 L8.051217079162598 10.9590482711792"></path></svg>