<svg xmlns="http://www.w3.org/2000/svg" viewBox="0.0 0.0 24.0 24.0" height="200px" width="200px"><path fill="none" stroke="black" stroke-width=".3" stroke-opacity="1.0"  filling="0" d="M12.4351224899292 7.114403247833252 L12.4351224899292 7.114403247833252 C12.213275909423828 8.400596618652344 12.073243141174316 9.70014476776123 11.924508094787598 10.995362281799316 C11.775774002075195 12.290580749511719 11.61833667755127 13.58146858215332 11.361682891845703 14.850340843200684 C11.250985145568848 15.39762020111084 10.805706977844238 16.747539520263672 11.856188774108887 17.031558990478516 C13.26678466796875 17.41294288635254 13.667827606201172 14.064779281616211 13.443031311035156 13.420599937438965 C13.32356071472168 13.078242301940918 12.824355125427246 13.042223930358887 12.51501750946045 12.853035926818848 L12.51501750946045 12.853035926818848 C12.973294258117676 12.364348411560059 13.431565284729004 11.875656127929688 13.88983154296875 11.386958122253418 L13.88983154296875 11.386958122253418 C15.076183319091797 13.563674926757812 15.156658172607422 15.270216941833496 13.069520950317383 16.938644409179688 C12.490012168884277 17.40189552307129 11.403044700622559 18.25153350830078 10.533267974853516 17.764982223510742 C9.489134788513184 17.180896759033203 9.928704261779785 15.113971710205078 9.995473861694336 14.419790267944336 C10.205205917358398 12.239293098449707 10.718427658081055 10.220111846923828 10.537609100341797 8.02889633178711 L10.537609100341797 8.02889633178711 C11.170127868652344 7.724094390869141 11.802627563476562 7.419254302978516 12.4351224899292 7.114403247833252 L12.4351224899292 7.114403247833252"></path></svg>