<svg xmlns="http://www.w3.org/2000/svg" viewBox="0.0 0.0 24.0 24.0" height="200px" width="200px"><path fill="none" stroke="black" stroke-width=".3" stroke-opacity="1.0"  filling="0" d="M9.650701522827148 6.988126277923584 C9.603681564331055 7.835051536560059 9.564592361450195 8.534686088562012 9.5198392868042 9.339690208435059 C10.570706367492676 8.672913551330566 11.446523666381836 7.9613823890686035 12.441307067871094 7.51440954208374 C16.206302642822266 5.823391437530518 19.626293182373047 8.143230438232422 19.530555725097656 12.260591506958008 C19.422353744506836 16.909902572631836 15.345779418945312 20.654502868652344 10.514622688293457 20.500411987304688 C9.593484878540039 20.47039031982422 8.678011894226074 20.281177520751953 7.555765151977539 20.139549255371094 C7.16204309463501 22.08776092529297 6.777386665344238 23.993486404418945 6.361571788787842 26.052734375 C5.698193550109863 26.081623077392578 5.080136775970459 26.10881805419922 4.008875370025635 26.156402587890625 C5.198535919189453 19.696542739868164 6.347408771514893 13.457051277160645 7.52007532119751 7.091796398162842 C8.215177536010742 7.057806015014648 8.84060001373291 7.027781009674072 9.650701522827148 6.988126277923584"></path>
<path fill="none" stroke="black" stroke-width=".3" stroke-opacity="1.0"  filling="0" d="M15.464746475219727 9.402008056640625 C17.122907638549805 10.43134880065918 17.05889320373535 12.048154830932617 16.73541831970215 13.663827896118164 C15.978567123413086 17.4412841796875 12.742688179016113 19.150997161865234 8.207246780395508 17.966434478759766 C8.18798542022705 15.02344036102295 8.77431869506836 12.448105812072754 10.842061996459961 10.400190353393555 C12.212438583374023 9.04284381866455 14.208803176879883 8.622495651245117 15.464746475219727 9.402008056640625"></path></svg>