<svg xmlns="http://www.w3.org/2000/svg" viewBox="0.0 0.0 24.0 24.0" height="200px" width="200px"><path fill="none" stroke="black" stroke-width=".3" stroke-opacity="1.0"  filling="0" d="M16.79828453063965 10.537965774536133 L16.79828453063965 10.537965774536133 C15.39180850982666 12.076824188232422 13.985445022583008 13.615788459777832 12.578962326049805 15.154640197753906 L12.578962326049805 15.154640197753906 C13.42063045501709 16.78908920288086 14.262164115905762 18.423608779907227 15.103649139404297 20.05815315246582 L15.103649139404297 20.05815315246582 C14.473087310791016 20.05815315246582 13.842524528503418 20.05815315246582 13.211962699890137 20.05815315246582 L13.211962699890137 20.05815315246582 C12.585613250732422 18.8908748626709 11.959249496459961 17.723602294921875 11.33287239074707 16.556339263916016 L11.33287239074707 16.556339263916016 C10.307823181152344 17.473831176757812 9.225981712341309 19.393756866455078 7.908570766448975 19.878883361816406 C7.30860710144043 20.099815368652344 6.635046482086182 19.993791580200195 5.998284339904785 20.051246643066406 L5.998284339904785 20.051246643066406 C7.495759010314941 18.42354965209961 8.993328094482422 16.795934677124023 10.491039276123047 15.168453216552734 L10.491039276123047 15.168453216552734 C9.68884563446045 13.631072044372559 8.886711120605469 12.09366226196289 8.084583282470703 10.556248664855957 L8.084583282470703 10.556248664855957 C8.730714797973633 10.676209449768066 9.47204303741455 10.55787467956543 10.022977828979492 10.916131019592285 C10.951684951782227 11.520041465759277 11.176270484924316 12.80955982208252 11.810262680053711 13.717997550964355 L11.810262680053711 13.717997550964355 C12.81261920928955 12.899696350097656 13.761280059814453 11.14697265625 14.982999801635742 10.69306755065918 C15.552278518676758 10.481563568115234 16.19318962097168 10.589666366577148 16.79828453063965 10.537965774536133 L16.79828453063965 10.537965774536133"></path></svg>