<svg xmlns="http://www.w3.org/2000/svg" viewBox="0.0 0.0 24.0 24.0" height="200px" width="200px"><path fill="none" stroke="black" stroke-width=".3" stroke-opacity="1.0"  filling="0" d="M5.792107105255127 9.990367889404297 C6.061270236968994 13.160401344299316 6.315451145172119 16.159732818603516 6.569631576538086 19.15852928161621 C6.714648723602295 19.206689834594727 6.86020040512085 19.25538444519043 7.0052170753479 19.303546905517578 C8.467691421508789 16.65953254699707 9.97404670715332 14.037993431091309 11.371236801147461 11.360267639160156 C11.93685531616211 10.276655197143555 12.566152572631836 9.616856575012207 14.19023323059082 10.1402006149292 C14.612441062927246 13.099397659301758 15.059263229370117 16.234649658203125 15.60026741027832 20.029701232910156 C17.18581771850586 16.77779197692871 18.5621395111084 14.118261337280273 19.780601501464844 11.388093948364258 C20.364948272705078 10.078661918640137 21.13605499267578 9.627023696899414 22.75638771057129 10.180870056152344 C20.590768814086914 14.368696212768555 18.453510284423828 18.504615783691406 16.300735473632812 22.668895721435547 C15.602941513061523 22.668895721435547 14.998794555664062 22.668895721435547 14.096052169799805 22.668895721435547 C13.61979866027832 19.575918197631836 13.1430082321167 16.48240852355957 12.595048904418945 12.926555633544922 C10.835049629211426 16.08428192138672 9.3479585647583 18.795185089111328 7.815382957458496 21.479867935180664 C7.143811225891113 22.65658950805664 7.101537227630615 22.632509231567383 4.956787586212158 22.596656799316406 C4.5008697509765625 18.5313720703125 4.040133476257324 14.421671867370605 3.555851936340332 10.10541820526123 C4.344079494476318 10.064748764038086 4.998528003692627 10.031037330627441 5.792107105255127 9.990367889404297"></path></svg>