<svg xmlns="http://www.w3.org/2000/svg" viewBox="0.0 0.0 24.0 24.0" height="200px" width="200px"><path fill="none" stroke="black" stroke-width=".3" stroke-opacity="1.0"  filling="0" d="M12.076217651367188 5.28005838394165 C15.610071182250977 3.705270767211914 18.70631980895996 5.509001731872559 19.283029556274414 9.330339431762695 C19.38330078125 9.993986129760742 19.374027252197266 10.674443244934082 19.41575813293457 11.34736442565918 C19.572250366210938 11.404165267944336 19.729904174804688 11.460967063903809 19.887557983398438 11.517189025878906 C18.975839614868164 14.217569351196289 18.303495407104492 17.03561019897461 17.059083938598633 19.572540283203125 C16.3502254486084 21.016916275024414 14.885563850402832 22.322185516357422 13.446404457092285 23.12957763671875 C10.0991849899292 25.00634002685547 6.757761001586914 23.373010635375977 6.009490489959717 19.614852905273438 C5.1354451179504395 15.227241516113281 6.1172966957092285 11.173482894897461 8.907516479492188 7.680782794952393 C9.713747024536133 6.671689987182617 10.890345573425293 5.808658123016357 12.076217651367188 5.28005838394165"></path>
<path fill="none" stroke="black" stroke-width=".3" stroke-opacity="1.0"  filling="0" d="M12.034486770629883 7.619924068450928 C13.997030258178711 6.078174591064453 16.14620590209961 6.755733013153076 16.62090301513672 9.177903175354004 C17.444522857666016 13.379461288452148 16.378047943115234 17.25296401977539 13.65274429321289 20.50164794921875 C13.00880241394043 21.269046783447266 11.365042686462402 21.729835510253906 10.371020317077637 21.50204849243164 C9.565948486328125 21.317733764648438 8.936497688293457 19.945226669311523 8.443253517150879 18.988880157470703 C8.158087730407715 18.436513900756836 8.298352241516113 17.665639877319336 8.247346878051758 16.993297576904297 C8.119254112243652 16.946929931640625 7.991741180419922 16.900562286376953 7.863647937774658 16.85419273376465 C8.632783889770508 14.50273609161377 9.314979553222656 12.116500854492188 10.218584060668945 9.816047668457031 C10.550118446350098 8.970983505249023 11.297808647155762 8.198369979858398 12.034486770629883 7.619924068450928"></path></svg>