<svg xmlns="http://www.w3.org/2000/svg" viewBox="0.0 0.0 24.0 24.0" height="200px" width="200px"><path fill="none" stroke="black" stroke-width=".3" stroke-opacity="1.0"  filling="0" d="M10.965595245361328 7.587335109710693 L10.965595245361328 7.587335109710693 C13.008280754089355 7.592513084411621 15.05094051361084 7.590839862823486 17.093631744384766 7.589958667755127 L17.093631744384766 7.589958667755127 C16.427478790283203 9.095388412475586 15.581716537475586 10.503714561462402 14.677382469177246 11.879409790039062 C13.773048400878906 13.255104064941406 12.81014347076416 14.598166465759277 11.909708023071289 15.973069190979004 C10.831306457519531 17.619712829589844 10.740667343139648 18.357357025146484 8.799690246582031 18.286962509155273 L8.799690246582031 18.286962509155273 C9.854543685913086 16.718671798706055 10.909453392028809 15.150419235229492 11.964375495910645 13.582174301147461 C13.01929759979248 12.01392936706543 14.074230194091797 10.44569206237793 15.129129409790039 8.87743091583252 L15.129129409790039 8.87743091583252 C13.519980430603027 8.87743091583252 11.910834312438965 8.87743091583252 10.301685333251953 8.87743091583252 L10.301685333251953 8.87743091583252 C10.522988319396973 8.447399139404297 10.744292259216309 8.017367362976074 10.965595245361328 7.587335109710693 L10.965595245361328 7.587335109710693"></path></svg>