<svg xmlns="http://www.w3.org/2000/svg" viewBox="0.0 0.0 24.0 24.0" height="200px" width="200px"><path fill="none" stroke="black" stroke-width=".3" stroke-opacity="1.0"  filling="0" d="M15.632383346557617 8.5035400390625 L15.632383346557617 8.5035400390625 C15.331138610839844 10.286995887756348 15.029918670654297 12.070455551147461 14.728710174560547 13.853917121887207 C14.427501678466797 15.637378692626953 14.126304626464844 17.420841217041016 13.825105667114258 19.20430564880371 L13.825105667114258 19.20430564880371 C13.410052299499512 19.024755477905273 12.994998931884766 18.84520721435547 12.57994556427002 18.66565704345703 L12.57994556427002 18.66565704345703 C12.054384231567383 18.877737045288086 11.569352149963379 19.27478790283203 11.003262519836426 19.301898956298828 C9.7225980758667 19.36323356628418 9.344574928283691 18.09847640991211 9.109482765197754 17.15696907043457 C8.890381813049316 16.279502868652344 9.015663146972656 14.596895217895508 9.543282508850098 13.233007431030273 C10.070901870727539 11.869118690490723 11.000858306884766 10.823949813842773 12.391109466552734 11.22136402130127 C12.97330379486084 11.387788772583008 13.419203758239746 11.86137580871582 13.933250427246094 12.181381225585938 L13.933250427246094 12.181381225585938 C14.241680145263672 10.372183799743652 13.962427139282227 9.414854049682617 15.632383346557617 8.5035400390625 L15.632383346557617 8.5035400390625"></path>
<path fill="none" stroke="black" stroke-width=".3" stroke-opacity="1.0"  filling="0" d="M12.337509155273438 12.335874557495117 L12.337509155273438 12.335874557495117 C12.973064422607422 12.983332633972168 13.557022094726562 13.877130508422852 13.52718734741211 14.783905982971191 C13.468195915222168 16.576875686645508 11.665244102478027 19.68659782409668 10.187076568603516 16.79004669189453 C10.054032325744629 16.529340744018555 10.135579109191895 16.206932067871094 10.109829902648926 15.915374755859375 L10.109829902648926 15.915374755859375 C10.041595458984375 15.886754035949707 9.973360061645508 15.858132362365723 9.905125617980957 15.829511642456055 L9.905125617980957 15.829511642456055 C10.546231269836426 14.114984512329102 10.619037628173828 13.104676246643066 12.337509155273438 12.335874557495117 L12.337509155273438 12.335874557495117"></path></svg>