<svg xmlns="http://www.w3.org/2000/svg" viewBox="0.0 0.0 24.0 24.0" height="200px" width="200px"><path fill="none" stroke="black" stroke-width=".3" stroke-opacity="1.0"  filling="0" d="M5.358689785003662 3.6075611114501953 C8.77186393737793 3.6075611114501953 11.932088851928711 3.4244470596313477 15.059869766235352 3.6619997024536133 C17.858264923095703 3.874258041381836 19.358919143676758 5.538229465484619 19.591522216796875 7.964348316192627 C19.87801742553711 10.954656600952148 18.667156219482422 13.10968017578125 16.008983612060547 14.012601852416992 C14.958141326904297 14.369481086730957 13.794021606445312 14.390926361083984 12.517173767089844 14.590537071228027 C13.704389572143555 13.356581687927246 15.03182601928711 12.526796340942383 15.485486030578613 11.357177734375 C15.977088928222656 10.090229034423828 15.907803535461426 8.455402374267578 15.625158309936523 7.074625492095947 C15.235835075378418 5.174201965332031 13.938092231750488 4.616062164306641 11.25627326965332 4.759033679962158 C11.25627326965332 10.193058013916016 11.25627326965332 15.632031440734863 11.25627326965332 21.169986724853516 C12.224632263183594 21.55051040649414 13.042320251464844 21.872196197509766 14.29277229309082 22.363800048828125 C12.610654830932617 22.993976593017578 11.21338176727295 22.629947662353516 9.875496864318848 22.67723846435547 C8.508467674255371 22.725627899169922 7.138138771057129 22.687686920166016 5.1249871253967285 22.687686920166016 C8.173583984375 21.251922607421875 7.498317241668701 18.923681259155273 7.5170135498046875 16.825298309326172 C7.543957710266113 13.806395530700684 7.529661178588867 10.786943435668945 7.518113613128662 7.767490863800049 C7.508213996887207 5.200045585632324 7.499415874481201 5.200045585632324 5.358689785003662 3.6075611114501953"></path></svg>