<svg xmlns="http://www.w3.org/2000/svg" viewBox="0.0 0.0 24.0 24.0" height="200px" width="200px"><path fill="none" stroke="black" stroke-width=".3" stroke-opacity="1.0"  filling="0" d="M12.63847541809082 3.4684572219848633 C13.833795547485352 3.477815628051758 15.027036666870117 3.711785316467285 16.424091339111328 3.866204261779785 C16.424091339111328 5.245580196380615 16.424091339111328 6.26880407333374 16.424091339111328 7.869150638580322 C15.862565994262695 6.955632209777832 15.57972240447998 6.431022644042969 15.23656940460205 5.948526859283447 C14.156152725219727 4.428768634796143 12.363951683044434 4.092894077301025 10.935701370239258 5.119757175445557 C9.519411087036133 6.138301849365234 9.293241500854492 8.319930076599121 10.528076171875 9.68578815460205 C10.981975555419922 10.188040733337402 11.573137283325195 10.5831880569458 12.14922046661377 10.952858924865723 C12.727903366088867 11.324609756469727 13.377817153930664 11.583014488220215 13.975736618041992 11.927728652954102 C17.131715774536133 13.748005867004395 18.222530364990234 16.383014678955078 17.023571014404297 19.252511978149414 C15.900520324707031 21.940555572509766 12.533449172973633 23.320449829101562 9.34887409210205 22.36429786682129 C8.620450973510742 22.145404815673828 7.928943634033203 21.803293228149414 7.1812825202941895 21.502771377563477 C7.004507064819336 20.39427947998047 6.826690673828125 19.380931854248047 6.6925482749938965 18.36134910583496 C6.6623921394348145 18.131019592285156 6.783535957336426 17.880413055419922 6.936395645141602 17.164470672607422 C7.377816677093506 18.079547882080078 7.626863956451416 18.638473510742188 7.91230583190918 19.178159713745117 C8.698440551757812 20.664642333984375 9.862045288085938 21.667591094970703 11.618890762329102 21.498611450195312 C12.978509902954102 21.367591857910156 14.102079391479492 20.73015594482422 14.406759262084961 19.212997436523438 C14.76759147644043 17.417156219482422 13.882669448852539 16.224435806274414 12.46221923828125 15.331713676452637 C11.512825965881348 14.734833717346191 10.489603042602539 14.252337455749512 9.559966087341309 13.627901077270508 C7.286828994750977 12.101905822753906 6.4284234046936035 9.631196022033691 7.206758975982666 7.050260066986084 C7.866031646728516 4.863951683044434 9.93587589263916 3.4466209411621094 12.63847541809082 3.4684572219848633"></path></svg>