<svg xmlns="http://www.w3.org/2000/svg" viewBox="0.0 0.0 24.0 24.0" height="200px" width="200px"><path fill="none" stroke="black" stroke-width=".3" stroke-opacity="1.0"  filling="0" d="M15.146284103393555 8.52784252166748 L15.146284103393555 8.52784252166748 C15.88422679901123 8.52784252166748 16.622169494628906 8.52784252166748 17.360111236572266 8.52784252166748 L17.360111236572266 8.52784252166748 C17.38250160217285 8.57376766204834 17.404890060424805 8.619693756103516 17.42728042602539 8.665618896484375 L17.42728042602539 8.665618896484375 C17.095714569091797 8.824409484863281 16.76414680480957 8.983201026916504 16.432580947875977 9.14199161529541 L16.432580947875977 9.14199161529541 C16.437541961669922 10.41905689239502 16.433799743652344 11.695581436157227 16.594453811645508 12.927061080932617 C16.755109786987305 14.158541679382324 17.080163955688477 15.344977378845215 17.742721557617188 16.441865921020508 L17.742721557617188 16.441865921020508 C17.681529998779297 16.441865921020508 14.44202709197998 16.441865921020508 14.434247016906738 16.441865921020508 L14.434247016906738 16.441865921020508 C14.736316680908203 16.244178771972656 15.038385391235352 16.046493530273438 15.340455055236816 15.848807334899902 L15.340455055236816 15.848807334899902 C15.236187934875488 14.12113094329834 15.13187026977539 12.393460273742676 15.027534484863281 10.665788650512695 L15.027534484863281 10.665788650512695 C14.96204662322998 10.636292457580566 14.89655876159668 10.606796264648438 14.831070899963379 10.577300071716309 L14.831070899963379 10.577300071716309 C13.855469703674316 12.695070266723633 12.879820823669434 14.812816619873047 11.904289245605469 16.930618286132812 L11.904289245605469 16.930618286132812 C10.985644340515137 14.868118286132812 10.067068099975586 12.805587768554688 9.14852523803711 10.74304485321045 L9.14852523803711 10.74304485321045 C9.076695442199707 10.759244918823242 9.004864692687988 10.775444984436035 8.933034896850586 10.791645050048828 L8.933034896850586 10.791645050048828 C8.814476013183594 12.472332000732422 8.695762634277344 14.15300464630127 8.57701587677002 15.833677291870117 L8.57701587677002 15.833677291870117 C8.895438194274902 15.99132251739502 9.213861465454102 16.148967742919922 9.532283782958984 16.306612014770508 L9.532283782958984 16.306612014770508 C9.514937400817871 16.353302001953125 9.497591018676758 16.399991989135742 9.480244636535645 16.44668197631836 L9.480244636535645 16.44668197631836 C8.634403228759766 16.44668197631836 7.788562774658203 16.44668197631836 6.942721843719482 16.44668197631836 L6.942721843719482 16.44668197631836 C8.1958589553833 15.197933197021484 8.033393859863281 14.323463439941406 8.216870307922363 12.562368392944336 C8.229413986206055 12.441971778869629 8.582378387451172 9.843950271606445 8.420440673828125 9.479299545288086 C8.236444473266602 9.064979553222656 7.7527241706848145 8.865933418273926 7.418866157531738 8.559249877929688 L7.418866157531738 8.559249877929688 C7.51637077331543 8.559249877929688 9.725726127624512 8.559249877929688 9.764967918395996 8.559249877929688 L9.764967918395996 8.559249877929688 C10.652982711791992 10.527252197265625 11.541007041931152 12.495248794555664 12.429033279418945 14.46324634552002 L12.429033279418945 14.46324634552002 C13.33469009399414 12.484736442565918 14.240446090698242 10.506270408630371 15.146284103393555 8.52784252166748 L15.146284103393555 8.52784252166748"></path></svg>