<svg xmlns="http://www.w3.org/2000/svg" viewBox="0.0 0.0 24.0 24.0" height="200px" width="200px"><path fill="none" stroke="black" stroke-width=".3" stroke-opacity="1.0"  filling="0" d="M3.7001161575317383 4.621431827545166 C6.042452335357666 4.621431827545166 8.38478946685791 4.621431827545166 11.226831436157227 4.621431827545166 C10.401773452758789 5.175621509552002 9.954996109008789 5.475549221038818 9.188055038452148 5.990821838378906 C10.664857864379883 9.90077018737793 12.174871444702148 13.897377014160156 13.931883811950684 18.547283172607422 C15.635449409484863 14.012054443359375 17.125743865966797 10.043988227844238 18.653919219970703 5.975773334503174 C17.74998664855957 5.526401996612549 17.17867088317871 5.242561340332031 16.044864654541016 4.679029941558838 C18.198320388793945 4.679029941558838 19.75347900390625 4.679029941558838 21.339771270751953 4.679029941558838 C18.631607055664062 8.47066879272461 17.524782180786133 13.03754997253418 15.693048477172852 17.28219223022461 C14.852940559387207 19.22860336303711 14.091188430786133 21.20874786376953 13.031064987182617 23.821434020996094 C12.363753318786621 22.6378116607666 11.949148178100586 22.058712005615234 11.689695358276367 21.416828155517578 C10.007406234741211 17.2598819732666 8.379082679748535 13.081140518188477 6.689009189605713 8.927824020385742 C6.030518054962158 7.310915470123291 5.6688408851623535 5.4454522132873535 3.7001161575317383 4.621431827545166"></path></svg>