<svg xmlns="http://www.w3.org/2000/svg" viewBox="0.0 0.0 24.0 24.0" height="200px" width="200px"><path fill="none" stroke="black" stroke-width=".3" stroke-opacity="1.0"  filling="0" d="M6.7306742668151855 7.301233291625977 L6.7306742668151855 7.301233291625977 C8.361324310302734 7.301233291625977 9.991968154907227 7.301233291625977 11.622618675231934 7.301233291625977 L11.622618675231934 7.301233291625977 C11.27856159210205 7.576436519622803 10.934505462646484 7.851640224456787 10.590448379516602 8.126843452453613 L10.590448379516602 8.126843452453613 C11.467714309692383 9.398309707641602 12.344950675964355 10.66979694366455 13.222198486328125 11.941275596618652 L13.222198486328125 11.941275596618652 C14.084511756896973 10.683073997497559 14.946764945983887 9.424829483032227 15.808919906616211 8.166519165039062 L15.808919906616211 8.166519165039062 C15.395276069641113 7.945999622344971 14.9816312789917 7.725479602813721 14.567987442016602 7.504960060119629 L14.567987442016602 7.504960060119629 C14.593387603759766 7.440200328826904 14.61878776550293 7.3754401206970215 14.644187927246094 7.310680389404297 L14.644187927246094 7.310680389404297 C15.601731300354004 7.310680389404297 16.559274673461914 7.310680389404297 17.51681900024414 7.310680389404297 L17.51681900024414 7.310680389404297 C16.49011993408203 8.697441101074219 14.848968505859375 10.64780044555664 13.968181610107422 12.62510871887207 C13.087395668029785 14.602417945861816 12.966974258422852 16.60667610168457 14.981735229492188 18.101232528686523 L14.981735229492188 18.101232528686523 C13.26302719116211 18.101232528686523 11.544318199157715 18.101232528686523 9.82560920715332 18.101232528686523 L9.82560920715332 18.101232528686523 C10.32089900970459 17.826948165893555 10.955419540405273 17.71856689453125 11.311478614807129 17.278377532958984 C11.77967357635498 16.699556350708008 11.649192810058594 14.857644081115723 11.579203605651855 14.26196575164795 C11.418725967407227 12.896133422851562 10.727766990661621 11.558505058288574 9.816340446472168 10.36105728149414 C8.904914855957031 9.163610458374023 7.773021697998047 8.106344223022461 6.7306742668151855 7.301233291625977 L6.7306742668151855 7.301233291625977"></path></svg>