<svg xmlns="http://www.w3.org/2000/svg" viewBox="0.0 0.0 24.0 24.0" height="200px" width="200px"><path fill="none" stroke="black" stroke-width=".3" stroke-opacity="1.0"  filling="0" d="M8.23032283782959 10.972825050354004 L8.23032283782959 10.972825050354004 C9.751005172729492 10.972825050354004 11.271688461303711 10.972825050354004 12.79237174987793 10.972825050354004 C14.313054084777832 10.972825050354004 15.833736419677734 10.972825050354004 17.354419708251953 10.972825050354004 L17.354419708251953 10.972825050354004 C16.39381980895996 12.590614318847656 15.433162689208984 14.208368301391602 14.472496032714844 15.826117515563965 C13.511828422546387 17.443866729736328 12.551151275634766 19.061607360839844 11.590510368347168 20.679372787475586 L11.590510368347168 20.679372787475586 C14.230806350708008 20.96796417236328 15.600981712341309 20.937833786010742 17.483524322509766 18.961090087890625 L17.483524322509766 18.961090087890625 C17.393016815185547 19.556407928466797 17.1441593170166 21.194244384765625 17.05629539489746 21.7728271484375 L17.05629539489746 21.7728271484375 C15.502022743225098 21.7728271484375 13.947749137878418 21.7728271484375 12.393476486206055 21.7728271484375 C10.839202880859375 21.7728271484375 9.284929275512695 21.7728271484375 7.730656623840332 21.7728271484375 L7.730656623840332 21.7728271484375 C8.691129684448242 20.172636032104492 9.651577949523926 18.572429656982422 10.61205005645752 16.97223663330078 C11.572522163391113 15.372044563293457 12.533016204833984 13.771865844726562 13.49358081817627 12.171730041503906 L13.49358081817627 12.171730041503906 C11.012971878051758 12.02475357055664 10.079373359680176 11.977707862854004 8.07608699798584 13.499740600585938 L8.07608699798584 13.499740600585938 C8.095386505126953 13.183234214782715 8.20826530456543 11.333808898925781 8.23032283782959 10.972825050354004 L8.23032283782959 10.972825050354004"></path></svg>