<svg xmlns="http://www.w3.org/2000/svg" viewBox="0.0 0.0 24.0 24.0" height="200px" width="200px"><path fill="none" stroke="black" stroke-width=".3" stroke-opacity="1.0"  filling="0" d="M12.182112693786621 3.776871681213379 C12.369977951049805 3.712174415588379 12.773022651672363 4.2757649421691895 13.314569473266602 4.769388675689697 C12.682924270629883 5.167640686035156 12.28994369506836 5.576437473297119 11.859580993652344 5.620527267456055 C11.632418632507324 5.6440110206604 11.055407524108887 4.900701999664307 11.132566452026367 4.733444690704346 C11.321867942810059 4.324169158935547 11.757022857666016 3.922562599182129 12.182112693786621 3.776871681213379"></path>
<path fill="none" stroke="black" stroke-width=".3" stroke-opacity="1.0"  filling="0" d="M12.203680038452148 8.153339385986328 C12.394898414611816 8.252063751220703 12.585638046264648 8.350788116455078 12.776856422424316 8.449512481689453 C12.128437995910645 12.424371719360352 11.565803527832031 16.416484832763672 10.771215438842773 20.362110137939453 C10.579996109008789 21.311492919921875 9.621026992797852 22.105602264404297 9.014781951904297 22.971599578857422 C8.867652893066406 22.896839141845703 8.721004486083984 22.82207489013672 8.57387638092041 22.747314453125 C8.997529029846191 18.56781578063965 10.393091201782227 14.468832015991211 9.934453010559082 9.833573341369629 C10.497566223144531 9.416629791259766 11.350622177124023 8.784984588623047 12.203680038452148 8.153339385986328"></path></svg>