<svg xmlns="http://www.w3.org/2000/svg" viewBox="0.0 0.0 24.0 24.0" height="200px" width="200px"><path fill="none" stroke="black" stroke-width=".3" stroke-opacity="1.0"  filling="0" d="M17.74587059020996 3.7408132553100586 C19.057594299316406 4.039005279541016 20.36827850341797 4.339792728424072 21.880008697509766 4.6857757568359375 C21.614025115966797 6.1247758865356445 21.353240966796875 7.538840293884277 21.028038024902344 9.299407958984375 C20.649845123291016 8.825109481811523 20.468021392822266 8.687962532043457 20.408279418945312 8.509256362915039 C19.1942195892334 4.889418125152588 16.84610366821289 3.6805543899536133 13.229902267456055 4.827598571777344 C7.633388519287109 6.603229999542236 5.059293270111084 15.2455415725708 8.948748588562012 19.677349090576172 C9.81370735168457 20.663352966308594 11.3753080368042 21.343889236450195 12.709370613098145 21.544414520263672 C15.067875862121582 21.899227142333984 15.906339645385742 21.043621063232422 16.341156005859375 18.630569458007812 C16.491291046142578 17.79937744140625 16.597787857055664 16.96039390563965 16.749479293823242 15.959327697753906 C15.95361328125 15.658021926879883 15.274114608764648 15.400871276855469 14.564485549926758 15.132291793823242 C14.624746322631836 15.020601272583008 14.682929992675781 14.81747817993164 14.74215316772461 14.8169584274292 C17.061176300048828 14.800854682922363 19.380720138549805 14.803452491760254 21.843124389648438 14.917740821838379 C19.72618293762207 15.736984252929688 19.597347259521484 17.574954986572266 19.475788116455078 19.32097816467285 C19.383317947387695 20.6488037109375 18.823301315307617 21.410385131835938 17.561969757080078 21.70285987854004 C16.22011375427246 22.014034271240234 14.888131141662598 22.512231826782227 13.531730651855469 22.590675354003906 C10.105143547058105 22.789642333984375 6.884797096252441 22.084688186645508 4.9143548011779785 18.958887100219727 C2.898196220397949 15.760360717773438 3.167294502258301 12.338968276977539 4.813572406768799 9.07082748413086 C6.979345798492432 4.770451068878174 12.522871971130371 2.55117130279541 17.74587059020996 3.7408132553100586"></path></svg>