<svg xmlns="http://www.w3.org/2000/svg" viewBox="0.0 0.0 24.0 24.0" height="200px" width="200px"><path fill="none" stroke="black" stroke-width=".3" stroke-opacity="1.0"  filling="0" d="M8.935774803161621 7.325473785400391 L8.935774803161621 7.325473785400391 C10.281478881835938 7.325473785400391 11.627182006835938 7.325473785400391 12.97288703918457 7.325473785400391 C14.31859016418457 7.325473785400391 15.664295196533203 7.325473785400391 17.009998321533203 7.325473785400391 L17.009998321533203 7.325473785400391 C16.925613403320312 7.99421501159668 16.841310501098633 8.66296672821045 16.757102966308594 9.331729888916016 L16.757102966308594 9.331729888916016 C15.435545921325684 7.593701362609863 14.257914543151855 7.882959842681885 12.224066734313965 7.859472274780273 L12.224066734313965 7.859472274780273 C11.965766906738281 9.18089485168457 11.70741081237793 10.502306938171387 11.449078559875488 11.823723793029785 L11.449078559875488 11.823723793029785 C13.317530632019043 11.998900413513184 13.900091171264648 12.037477493286133 15.326837539672852 10.769201278686523 L15.326837539672852 10.769201278686523 C15.130106925964355 11.967977523803711 14.9334135055542 13.166759490966797 14.736743927001953 14.365545272827148 L14.736743927001953 14.365545272827148 C13.8180513381958 12.391868591308594 13.496774673461914 12.582406044006348 11.299596786499023 12.746625900268555 L11.299596786499023 12.746625900268555 C11.03851318359375 14.212989807128906 10.777708053588867 15.679398536682129 10.517087936401367 17.14584732055664 L10.517087936401367 17.14584732055664 C13.347990036010742 17.784523010253906 14.647150039672852 17.56198501586914 16.795021057128906 15.592740058898926 L16.795021057128906 15.592740058898926 C16.7441463470459 15.801628112792969 16.224178314208984 17.93588638305664 16.177976608276367 18.125473022460938 L16.177976608276367 18.125473022460938 C14.69454288482666 18.125473022460938 13.211108207702637 18.125473022460938 11.727673530578613 18.125473022460938 C10.24423885345459 18.125473022460938 8.760804176330566 18.125473022460938 7.277370452880859 18.125473022460938 L7.277370452880859 18.125473022460938 C8.452703475952148 16.996644973754883 9.021829605102539 15.291574478149414 9.37149715423584 13.475367546081543 C9.72116470336914 11.659159660339355 9.851371765136719 9.731815338134766 10.148866653442383 8.15843677520752 L10.148866653442383 8.15843677520752 C9.724133491516113 7.943667411804199 9.299399375915527 7.728897571563721 8.874666213989258 7.5141282081604 L8.874666213989258 7.5141282081604 C8.895035743713379 7.4512434005737305 8.9154052734375 7.3883585929870605 8.935774803161621 7.325473785400391 L8.935774803161621 7.325473785400391"></path></svg>