<svg xmlns="http://www.w3.org/2000/svg" viewBox="0.0 0.0 24.0 24.0" height="200px" width="200px"><path fill="none" stroke="black" stroke-width=".3" stroke-opacity="1.0"  filling="0" d="M8.108650207519531 3.801814079284668 C10.153400421142578 3.801814079284668 12.198573112487793 3.801814079284668 14.243324279785156 3.801814079284668 C12.429187774658203 4.473419189453125 12.505918502807617 6.1421051025390625 12.212064743041992 7.638778209686279 C11.578824043273926 10.86147403717041 10.981419563293457 14.094709396362305 10.217483520507812 17.287052154541016 C9.914776802062988 18.55226707458496 9.324117660522461 19.79007911682129 8.654619216918945 20.915325164794922 C7.869603633880615 22.234506607055664 6.615771293640137 23.147686004638672 5.018336296081543 22.98284149169922 C4.3231201171875 22.911170959472656 3.5886964797973633 22.29437255859375 3.095426559448242 21.730274200439453 C2.9373273849487305 21.549407958984375 3.36187744140625 20.516071319580078 3.7619733810424805 20.276180267333984 C4.303726673126221 19.950706481933594 4.992197513580322 20.146751403808594 5.176856994628906 20.994583129882812 C5.257803916931152 21.366432189941406 5.423491477966309 21.719310760498047 5.724512577056885 22.573890686035156 C6.307582855224609 21.57891845703125 6.857347011566162 21.00933837890625 6.990150451660156 20.355018615722656 C7.977532863616943 15.4918851852417 8.885655403137207 10.612730979919434 9.805160522460938 5.736527442932129 C9.855330467224121 5.470499515533447 9.788296699523926 5.182547569274902 9.76679515838623 4.701504230499268 C9.12259292602539 4.476370811462402 8.582947731018066 4.287916660308838 8.043724060058594 4.099462032318115 C8.065224647521973 4.000386714935303 8.086727142333984 3.9008893966674805 8.108650207519531 3.801814079284668"></path></svg>