<svg xmlns="http://www.w3.org/2000/svg" viewBox="0.0 0.0 24.0 24.0" height="200px" width="200px"><path fill="none" stroke="black" stroke-width=".3" stroke-opacity="1.0"  filling="0" d="M11.852754592895508 10.077943801879883 C12.983553886413574 10.061616897583008 14.13249397277832 11.263772010803223 15.5166654586792 12.068634986877441 C15.710171699523926 11.897502899169922 16.206634521484375 11.444578170776367 16.71821403503418 11.009795188903809 C17.868366241455078 10.031987190246582 19.163036346435547 9.560920715332031 20.613122940063477 10.206141471862793 C22.104328155517578 10.86950397491455 22.559062957763672 12.203483581542969 22.4272403717041 13.704362869262695 C22.269411087036133 15.501546859741211 22.013015747070312 17.293893814086914 21.725177764892578 19.075960159301758 C21.344209671020508 21.439149856567383 20.891284942626953 23.791452407836914 20.47283172607422 26.127429962158203 C19.75504493713379 26.127429962158203 19.273094177246094 26.127429962158203 18.72341537475586 26.127429962158203 C18.663549423217773 25.770652770996094 18.540796279907227 25.47978973388672 18.5819149017334 25.214324951171875 C19.089263916015625 21.940452575683594 19.713321685791016 18.680484771728516 20.086421966552734 15.392095565795898 C20.192245483398438 14.461454391479492 19.581493377685547 13.449176788330078 19.299701690673828 12.47439193725586 C18.306774139404297 12.828145027160645 17.01149559020996 12.910989761352539 16.394092559814453 13.600957870483398 C15.506383895874023 14.592674255371094 14.887166023254395 15.970193862915039 14.555788040161133 17.284217834472656 C13.968618392944336 19.6147518157959 13.651148796081543 22.016643524169922 13.28651237487793 24.398578643798828 C13.094820976257324 25.64850616455078 12.765860557556152 26.582773208618164 10.851968765258789 25.982906341552734 C11.332708358764648 23.013803482055664 11.823729515075684 19.99087905883789 12.311727523803711 16.96795654296875 C12.43932056427002 16.1763973236084 12.72171688079834 15.36488151550293 12.635244369506836 14.596302032470703 C12.554819107055664 13.87972640991211 12.246419906616211 12.85777473449707 11.731815338134766 12.612263679504395 C11.189393997192383 12.352845191955566 9.982402801513672 12.603797912597656 9.595995903015137 13.07063102722168 C8.606698036193848 14.265528678894043 7.57930326461792 15.610392570495605 7.169918060302734 17.0653133392334 C6.333003520965576 20.03744125366211 5.8921732902526855 23.12143898010254 5.290492057800293 26.14859390258789 C4.624106407165527 26.14859390258789 4.136108875274658 26.14859390258789 3.2490062713623047 26.14859390258789 C4.126434326171875 20.92938232421875 4.9808831214904785 15.843809127807617 5.933897972106934 10.173486709594727 C6.941337585449219 10.766702651977539 7.59018611907959 11.149481773376465 8.385374069213867 11.617524147033691 C9.262802124023438 11.191811561584473 10.550219535827637 10.096689224243164 11.852754592895508 10.077943801879883"></path></svg>