<svg xmlns="http://www.w3.org/2000/svg" viewBox="0.0 0.0 24.0 24.0" height="200px" width="200px"><path fill="none" stroke="black" stroke-width=".3" stroke-opacity="1.0"  filling="0" d="M4.763380527496338 3.8505544662475586 C10.435821533203125 3.8505544662475586 15.919893264770508 3.8505544662475586 21.689804077148438 3.8505544662475586 C21.516765594482422 5.289610385894775 21.32730484008789 6.8633713722229 21.121959686279297 8.568553924560547 C20.30605697631836 7.442717552185059 19.79953956604004 6.121393203735352 18.853858947753906 5.607210159301758 C17.843013763427734 5.05743408203125 16.41765022277832 5.26825475692749 14.904669761657715 5.12095308303833 C13.873018264770508 10.756158828735352 12.88243579864502 16.167949676513672 11.875425338745117 21.671188354492188 C12.77839469909668 22.096115112304688 13.464520454406738 22.418643951416016 14.15064525604248 22.741168975830078 C14.119431495666504 22.8441162109375 14.088766098022461 22.947608947753906 14.058101654052734 23.050556182861328 C11.3908109664917 23.050556182861328 8.722973823547363 23.050556182861328 5.801055431365967 23.050556182861328 C8.367042541503906 21.661331176757812 8.39004135131836 21.665712356567383 8.933794021606445 18.691226959228516 C9.73217487335205 14.323680877685547 10.493318557739258 9.949018478393555 11.269247055053711 5.5847601890563965 C7.478311061859131 4.7814507484436035 6.48663330078125 5.220066547393799 3.8187952041625977 8.47655963897705 C4.140228271484375 6.901155471801758 4.462208271026611 5.325750827789307 4.763380527496338 3.8505544662475586"></path></svg>