<svg xmlns="http://www.w3.org/2000/svg" viewBox="0.0 0.0 24.0 24.0" height="200px" width="200px"><path fill="none" stroke="black" stroke-width=".3" stroke-opacity="1.0"  filling="0" d="M15.227716445922852 10.752131462097168 L15.227716445922852 10.752131462097168 C15.777118682861328 11.04192066192627 16.51561737060547 11.115535736083984 16.87592315673828 11.621500015258789 C17.105159759521484 11.943408966064453 17.021148681640625 12.5922269821167 16.679393768310547 12.790665626525879 C15.42491340637207 13.519073486328125 14.205572128295898 12.535886764526367 13.236949920654297 12.015467643737793 L13.236949920654297 12.015467643737793 C11.797221183776855 13.396671295166016 10.882820129394531 14.503091812133789 10.445111274719238 16.502241134643555 C10.265764236450195 17.32137107849121 9.858509063720703 19.06014060974121 10.888666152954102 19.72081756591797 C12.54165267944336 20.78093910217285 14.9547700881958 18.764516830444336 16.15349578857422 17.971389770507812 L16.15349578857422 17.971389770507812 C15.463308334350586 19.181804656982422 13.82763671875 20.663305282592773 12.136119842529297 21.324438095092773 C10.444602966308594 21.985572814941406 8.69723892211914 21.826335906982422 7.783666610717773 19.755277633666992 C6.793370246887207 17.510284423828125 7.758070945739746 15.392950057983398 9.418500900268555 13.770137786865234 C11.07893180847168 12.14732551574707 13.43509292602539 11.019035339355469 15.227716445922852 10.752131462097168 L15.227716445922852 10.752131462097168"></path></svg>