<svg xmlns="http://www.w3.org/2000/svg" viewBox="0.0 0.0 24.0 24.0" height="200px" width="200px"><path fill="none" stroke="black" stroke-width=".3" stroke-opacity="1.0"  filling="0" d="M15.044734954833984 2.953097343444824 C16.527883529663086 2.51601505279541 16.884410858154297 2.9110851287841797 16.5390625 4.592733860015869 C16.374481201171875 4.635130882263184 16.176368713378906 4.756927490234375 16.018341064453125 4.717227935791016 C13.664111137390137 4.12558650970459 13.63790225982666 4.129056453704834 13.191569328308105 6.510651588439941 C13.053969383239746 7.244517803192139 12.990758895874023 7.9922590255737305 12.878597259521484 8.84599494934082 C13.632505416870117 8.92192554473877 14.22607421875 8.982053756713867 14.910989761352539 9.051045417785645 C14.269627571105957 9.849664688110352 14.269627571105957 9.849664688110352 12.62189769744873 10.108675956726074 C11.63672924041748 13.526702880859375 10.648092269897461 16.95821762084961 9.657526016235352 20.388965606689453 C9.42626667022705 21.189510345458984 9.270166397094727 22.066761016845703 7.789714336395264 21.98311996459961 C8.62379264831543 18.050540924072266 9.447464942932129 14.166523933410645 10.275762557983398 10.258995056152344 C9.683349609375 9.99343204498291 9.16763973236084 9.762170791625977 8.651543617248535 9.531295776367188 C8.663492202758789 9.410270690917969 8.675055503845215 9.289243698120117 8.687004089355469 9.16860294342041 C9.263227462768555 9.060297012329102 9.839065551757812 8.952375411987305 10.466937065124512 8.834432601928711 C10.888216018676758 7.8184285163879395 11.264399528503418 6.740755558013916 11.771245956420898 5.728991508483887 C12.45770263671875 4.358774662017822 13.553491592407227 3.3928775787353516 15.044734954833984 2.953097343444824"></path></svg>