<svg xmlns="http://www.w3.org/2000/svg" viewBox="0.0 0.0 24.0 24.0" height="200px" width="200px"><path fill="none" stroke="black" stroke-width=".3" stroke-opacity="1.0"  filling="0" d="M12.046764373779297 8.136157989501953 L12.046764373779297 8.136157989501953 C11.991518020629883 8.610372543334961 11.936270713806152 9.084587097167969 11.881024360656738 9.558801651000977 L11.881024360656738 9.558801651000977 C12.609267234802246 9.563189506530762 14.298002243041992 9.324417114257812 14.9736909866333 10.087496757507324 C16.651485443115234 11.98228931427002 13.877073287963867 15.094844818115234 12.15052604675293 15.615375518798828 C11.54843807220459 15.796896934509277 10.895947456359863 15.7041015625 10.268658638000488 15.748464584350586 L10.268658638000488 15.748464584350586 C10.263640403747559 15.767566680908203 9.723273277282715 17.824726104736328 9.717880249023438 17.845258712768555 L9.717880249023438 17.845258712768555 C10.085065841674805 18.089693069458008 10.452251434326172 18.334129333496094 10.819437026977539 18.578563690185547 L10.819437026977539 18.578563690185547 C9.923945426940918 18.697763442993164 9.02845287322998 18.81696128845215 8.132960319519043 18.9361572265625 L8.132960319519043 18.9361572265625 C8.462631225585938 17.573604583740234 8.792289733886719 16.21104621887207 9.121944427490234 14.848487854003906 C9.45159912109375 13.485929489135742 9.781251907348633 12.123371124267578 10.110912322998047 10.760814666748047 L10.110912322998047 10.760814666748047 C9.654461860656738 10.854254722595215 9.19801139831543 10.947693824768066 8.741560935974121 11.041133880615234 L8.741560935974121 11.041133880615234 C8.721487045288086 10.982422828674316 8.701414108276367 10.923712730407715 8.681340217590332 10.865001678466797 L8.681340217590332 10.865001678466797 C10.081360816955566 9.94072151184082 10.588568687438965 9.029404640197754 12.046764373779297 8.136157989501953 L12.046764373779297 8.136157989501953"></path>
<path fill="none" stroke="black" stroke-width=".3" stroke-opacity="1.0"  filling="0" d="M11.690237045288086 10.288376808166504 L11.690237045288086 10.288376808166504 C12.331856727600098 10.344023704528809 13.143905639648438 10.016282081604004 13.615097045898438 10.455316543579102 C14.517894744873047 11.296500205993652 12.949673652648926 14.385799407958984 12.275655746459961 14.928025245666504 C11.0169095993042 15.940645217895508 10.695857048034668 15.158171653747559 10.714183807373047 14.024450302124023 C10.722000122070312 13.540939331054688 10.939409255981445 13.083890914916992 11.050559997558594 12.613264083862305 C11.235306739807129 11.831023216247559 11.432265281677246 11.049613952636719 11.690237045288086 10.288376808166504 L11.690237045288086 10.288376808166504"></path></svg>