<svg xmlns="http://www.w3.org/2000/svg" viewBox="0.0 0.0 24.0 24.0" height="200px" width="200px"><path fill="none" stroke="black" stroke-width=".3" stroke-opacity="1.0"  filling="0" d="M16.824275970458984 10.79517936706543 L16.824275970458984 10.79517936706543 C18.50246238708496 12.042025566101074 18.168058395385742 12.968875885009766 17.37172508239746 14.843534469604492 C16.799354553222656 16.190959930419922 16.04343605041504 17.415775299072266 15.107864379882812 18.479812622070312 C14.17229175567627 19.543848037719727 13.0570650100708 20.44710350036621 11.766077041625977 21.151405334472656 C8.763011932373047 22.789735794067383 7.749253273010254 20.100521087646484 8.341590881347656 17.640417098999023 C8.71343994140625 16.096050262451172 9.165468215942383 14.589982032775879 9.484981536865234 13.031761169433594 L9.484981536865234 13.031761169433594 C9.09014892578125 13.250409126281738 7.867636680603027 13.927511215209961 7.4110107421875 14.180484771728516 L7.4110107421875 14.180484771728516 C8.46075439453125 11.97581672668457 9.590417861938477 11.340859413146973 11.945947647094727 10.802447319030762 L11.945947647094727 10.802447319030762 C12.130797386169434 12.377816200256348 11.807260513305664 13.782853126525879 11.427526473999023 15.183475494384766 C11.047794342041016 16.58409881591797 10.611865043640137 17.980304718017578 10.571931838989258 19.538015365600586 L10.571931838989258 19.538015365600586 C11.205512046813965 19.582056045532227 11.861966133117676 19.844491958618164 12.472673416137695 19.670135498046875 C14.899852752685547 18.97718048095703 15.63608455657959 15.462949752807617 15.713706970214844 13.41330623626709 C15.736013412475586 12.824300765991211 15.485803604125977 12.187652587890625 15.715977668762207 11.645025253295898 C15.897773742675781 11.216446876525879 16.454843521118164 11.078461647033691 16.824275970458984 10.79517936706543 L16.824275970458984 10.79517936706543"></path></svg>