<svg xmlns="http://www.w3.org/2000/svg" viewBox="0.0 0.0 24.0 24.0" height="200px" width="200px"><path fill="none" stroke="black" stroke-width=".3" stroke-opacity="1.0"  filling="0" d="M10.17110824584961 6.816112518310547 C10.323312759399414 6.899771690368652 10.475518226623535 6.983430862426758 10.62718391418457 7.067629337310791 C10.438276290893555 8.68791389465332 10.248828887939453 10.308199882507324 10.03563404083252 12.136281967163086 C10.527872085571289 11.861557006835938 10.743227005004883 11.741735458374023 10.958581924438477 11.621374130249023 C10.508441925048828 13.475366592407227 9.179614067077637 15.154481887817383 9.83431339263916 17.493154525756836 C10.79072380065918 17.493154525756836 11.74119758605957 17.493154525756836 12.691671371459961 17.493154525756836 C11.600866317749023 18.194271087646484 10.510061264038086 18.8953857421875 9.160723686218262 19.762741088867188 C9.229269981384277 21.58218765258789 7.530723571777344 23.82964515686035 9.757670402526855 26.016109466552734 C7.929587364196777 26.016109466552734 6.275299549102783 26.016109466552734 4.8012824058532715 26.016109466552734 C5.237928867340088 25.238893508911133 5.955776214599609 24.473007202148438 6.105822563171387 23.60889434814453 C6.900852680206299 19.04435157775879 7.552853107452393 14.45444393157959 8.313879013061523 9.483484268188477 C7.416299819946289 9.977880477905273 6.9294586181640625 10.246129989624023 6.44207763671875 10.51437759399414 C6.370832920074463 10.400492668151855 6.3001275062561035 10.286069869995117 6.228882312774658 10.172185897827148 C7.543137073516846 9.053314208984375 8.856852531433105 7.934983253479004 10.17110824584961 6.816112518310547"></path>
<path fill="none" stroke="black" stroke-width=".3" stroke-opacity="1.0"  filling="0" d="M14.340561866760254 7.7924933433532715 C17.543350219726562 9.985437393188477 16.861125946044922 14.476574897766113 13.1812105178833 16.986343383789062 C13.501274108886719 15.530675888061523 13.977859497070312 14.086346626281738 14.087965965270996 12.614487648010254 C14.165687561035156 11.578195571899414 14.283349990844727 10.197553634643555 12.63014030456543 9.971405029296875 C13.20442008972168 9.239523887634277 13.77869701385498 8.508182525634766 14.340561866760254 7.7924933433532715"></path></svg>