<svg xmlns="http://www.w3.org/2000/svg" viewBox="0.0 0.0 24.0 24.0" height="200px" width="200px"><path fill="none" stroke="black" stroke-width=".3" stroke-opacity="1.0"  filling="0" d="M18.67233657836914 3.1463394165039062 C17.977338790893555 7.191927433013916 17.37338638305664 10.704490661621094 16.74720001220703 14.34885311126709 C17.626928329467773 14.494416236877441 18.454784393310547 14.6309814453125 19.38691520690918 14.785013198852539 C19.299577713012695 15.453012466430664 19.22335433959961 16.03526496887207 19.134429931640625 16.712793350219727 C18.206005096435547 16.860475540161133 17.35221290588379 16.996509552001953 16.294103622436523 17.165363311767578 C15.931520462036133 18.9512882232666 15.601753234863281 20.575769424438477 15.242345809936523 22.34634017944336 C14.377437591552734 22.34634017944336 13.559110641479492 22.34634017944336 12.553933143615723 22.34634017944336 C12.767778396606445 20.646697998046875 12.97050666809082 19.0349178314209 13.224050521850586 17.01662254333496 C10.626680374145508 17.01662254333496 8.228864669799805 17.01662254333496 5.566917419433594 17.01662254333496 C6.212687015533447 14.389612197875977 8.139939308166504 13.284392356872559 9.45212173461914 11.745660781860352 C10.76165771484375 10.2106351852417 12.148473739624023 8.729070663452148 13.615217208862305 7.344371318817139 C15.061318397521973 5.9787278175354 16.071258544921875 4.027656555175781 18.67233657836914 3.1463394165039062"></path>
<path fill="none" stroke="black" stroke-width=".3" stroke-opacity="1.0"  filling="0" d="M14.706145286560059 7.655081748962402 C14.823654174804688 7.730245113372803 14.941692352294922 7.805938243865967 15.05920124053955 7.8816304206848145 C14.672797203063965 10.003671646118164 14.286924362182617 12.125712394714355 13.872467041015625 14.402315139770508 C12.177057266235352 14.402315139770508 10.549400329589844 14.402315139770508 8.422595977783203 14.402315139770508 C10.701314926147461 11.954744338989258 12.703729629516602 9.805177688598633 14.706145286560059 7.655081748962402"></path></svg>