<svg xmlns="http://www.w3.org/2000/svg" viewBox="0.0 0.0 24.0 24.0" height="200px" width="200px"><path fill="none" stroke="black" stroke-width=".3" stroke-opacity="1.0"  filling="0" d="M18.851919174194336 4.520251274108887 C19.643383026123047 4.78424596786499 20.450923919677734 4.999486446380615 21.418212890625 5.2873382568359375 C21.335227966308594 5.871860027313232 21.260540008544922 6.532104969024658 21.14280891418457 7.185088157653809 C21.042709350585938 7.742640018463135 20.893856048583984 8.291374206542969 20.762117385864258 8.862410545349121 C20.57592010498047 8.782538414001465 20.447296142578125 8.76905345916748 20.42395782470703 8.71200180053711 C18.70047378540039 4.5321807861328125 14.701661109924316 3.5711183547973633 11.180010795593262 6.4952802658081055 C7.682735919952393 9.399216651916504 6.67343807220459 15.95135498046875 9.131333351135254 19.790420532226562 C11.187272071838379 23.001399993896484 16.013853073120117 23.171518325805664 18.449962615966797 20.09331512451172 C19.028263092041016 19.362529754638672 19.493494033813477 18.54254150390625 20.0111083984375 17.763525009155273 C20.144920349121094 17.82057762145996 20.278213500976562 17.878149032592773 20.411508560180664 17.935199737548828 C20.13714027404785 19.1773738861084 19.862773895263672 20.420066833496094 19.56558609008789 21.76597023010254 C18.062530517578125 22.203712463378906 16.618600845336914 22.791345596313477 15.118658065795898 23.033039093017578 C8.254810333251953 24.14035987854004 3.301158905029297 17.77804946899414 5.676069259643555 10.978513717651367 C7.590934753417969 5.4958367347717285 13.338123321533203 2.6826648712158203 18.851919174194336 4.520251274108887"></path></svg>