<svg xmlns="http://www.w3.org/2000/svg" viewBox="0.0 0.0 24.0 24.0" height="200px" width="200px"><path fill="none" stroke="black" stroke-width=".3" stroke-opacity="1.0"  filling="0" d="M5.199364185333252 5.44567346572876 C6.685802459716797 5.44567346572876 7.814052104949951 5.44567346572876 9.08617877960205 5.44567346572876 C10.037910461425781 9.320460319519043 10.981912612915039 13.160890579223633 12.031137466430664 17.43208885192871 C14.204317092895508 13.196537017822266 16.18208122253418 9.342363357543945 18.177026748657227 5.4542622566223145 C19.31601333618164 5.4542622566223145 20.373397827148438 5.4542622566223145 21.855541229248047 5.4542622566223145 C20.025087356567383 6.188247203826904 19.927165985107422 7.491725444793701 19.859737396240234 8.881959915161133 C19.72488021850586 11.665003776550293 19.510568618774414 14.444611549377441 19.288524627685547 17.222501754760742 C19.18845558166504 18.473583221435547 19.06734275817871 19.68300437927246 20.615625381469727 20.278268814086914 C18.944080352783203 20.278268814086914 17.27253532409668 20.278268814086914 15.025056838989258 20.278268814086914 C17.45334815979004 19.669261932373047 17.32321548461914 18.06471824645996 17.4211368560791 16.564966201782227 C17.59121322631836 13.963593482971191 17.771163940429688 11.363078117370605 17.946823120117188 8.76213550567627 C17.807668685913086 8.721763610839844 17.668088912963867 8.680963516235352 17.5289363861084 8.640591621398926 C15.497915267944336 12.578083992004395 13.466465950012207 16.515575408935547 11.435444831848145 20.453067779541016 C11.235305786132812 20.437606811523438 11.035167694091797 20.422576904296875 10.835458755493164 20.407114028930664 C9.921520233154297 16.67620277404785 9.00758171081543 12.945291519165039 8.093644142150879 9.214380264282227 C7.963940620422363 9.216957092285156 7.833807468414307 9.219533920288086 7.704103946685791 9.222111701965332 C6.925882816314697 12.55532169342041 6.147231578826904 15.888532638549805 5.3488240242004395 19.30721092224121 C5.937214374542236 19.62416648864746 6.407497882843018 19.8775634765625 7.171116828918457 20.288578033447266 C5.4308552742004395 20.288578033447266 4.043199062347412 20.288578033447266 2.65554141998291 20.288578033447266 C4.178484916687012 19.738840103149414 4.550846576690674 18.401004791259766 4.883695125579834 17.02365493774414 C5.537367343902588 14.319204330444336 6.204352855682373 11.618191719055176 6.8687615394592285 8.916749000549316 C7.41849946975708 6.681722164154053 7.420217037200928 6.682152271270752 5.199364185333252 5.44567346572876"></path></svg>