<svg xmlns="http://www.w3.org/2000/svg" viewBox="0.0 0.0 24.0 24.0" height="200px" width="200px"><path fill="none" stroke="black" stroke-width=".3" stroke-opacity="1.0"  filling="0" d="M11.18210220336914 7.288313388824463 L11.18210220336914 7.288313388824463 C12.459967613220215 7.288313388824463 13.737832069396973 7.288313388824463 15.015697479248047 7.288313388824463 L15.015697479248047 7.288313388824463 C13.812274932861328 8.278314590454102 13.243432998657227 10.01015853881836 12.90588665008545 11.865485191345215 C12.568340301513672 13.72081184387207 12.462089538574219 15.699621200561523 12.183852195739746 17.183555603027344 L12.183852195739746 17.183555603027344 C12.566109657287598 17.48514175415039 12.94836711883545 17.786725997924805 13.3306245803833 18.08831214904785 L13.3306245803833 18.08831214904785 C12.103283882141113 18.08831214904785 10.87594223022461 18.08831214904785 9.648601531982422 18.08831214904785 L9.648601531982422 18.08831214904785 C10.839311599731445 17.09566307067871 11.402706146240234 15.333763122558594 11.737198829650879 13.450268745422363 C12.071690559387207 11.56677532196045 12.17728042602539 9.561687469482422 12.452378273010254 8.082664489746094 L12.452378273010254 8.082664489746094 C12.028952598571777 7.817880630493164 11.605527877807617 7.553097248077393 11.18210220336914 7.288313388824463 L11.18210220336914 7.288313388824463"></path></svg>