<svg xmlns="http://www.w3.org/2000/svg" viewBox="0.0 0.0 24.0 24.0" height="200px" width="200px"><path fill="none" stroke="black" stroke-width=".3" stroke-opacity="1.0"  filling="0" d="M17.678848266601562 10.689620971679688 L17.678848266601562 10.689620971679688 C17.708667755126953 12.288894653320312 17.34957504272461 13.734155654907227 16.91606903076172 15.167335510253906 C16.482563018798828 16.600515365600586 15.97464370727539 18.021615982055664 15.70681095123291 19.572566986083984 L15.70681095123291 19.572566986083984 C16.34979820251465 19.381832122802734 16.990367889404297 19.17445182800293 17.606306076049805 18.909061431884766 L17.606306076049805 18.909061431884766 C16.496822357177734 20.546518325805664 15.920527458190918 20.97195053100586 13.981046676635742 21.388431549072266 L13.981046676635742 21.388431549072266 C13.667459487915039 20.005157470703125 13.926971435546875 18.577957153320312 14.383246421813965 17.168075561523438 C14.839520454406738 15.758193969726562 15.492557525634766 14.365631103515625 15.966021537780762 13.051630973815918 L15.966021537780762 13.051630973815918 C13.782907485961914 12.777242660522461 12.901863098144531 14.000703811645508 11.336261749267578 15.414100646972656 L11.336261749267578 15.414100646972656 C11.314237594604492 15.384529113769531 11.292213439941406 15.354958534240723 11.27018928527832 15.325387001037598 L11.27018928527832 15.325387001037598 C12.140436172485352 14.068192481994629 13.000823974609375 13.110482215881348 14.014537811279297 12.366455078125 C15.028251647949219 11.622426986694336 16.195293426513672 11.092082977294922 17.678848266601562 10.689620971679688 L17.678848266601562 10.689620971679688"></path>
<path fill="none" stroke="black" stroke-width=".3" stroke-opacity="1.0"  filling="0" d="M11.605175971984863 10.896158218383789 L11.605175971984863 10.896158218383789 C11.376008987426758 12.394177436828613 11.246322631835938 13.81057357788086 11.270650863647461 15.325386047363281 L11.336262702941895 15.413639068603516 C10.287652015686035 17.6027774810791 9.54983139038086 19.941364288330078 7.642157554626465 21.489620208740234 L7.642157554626465 21.489620208740234 C7.472738742828369 21.364404678344727 7.303319454193115 21.239187240600586 7.1339006423950195 21.113971710205078 L7.1339006423950195 21.113971710205078 C7.54654598236084 19.75490951538086 7.959257125854492 18.3958683013916 8.371968269348145 17.03682518005371 C8.784679412841797 15.677783966064453 9.197391510009766 14.318740844726562 9.610036849975586 12.959680557250977 L9.610036849975586 12.959680557250977 C9.485590934753418 12.854179382324219 9.36114501953125 12.748677253723145 9.236699104309082 12.643176078796387 L9.236699104309082 12.643176078796387 C8.993948936462402 12.774349212646484 7.538237571716309 13.561136245727539 7.302087783813477 13.688799858093262 L7.302087783813477 13.688799858093262 C8.685879707336426 11.696681022644043 9.220905303955078 11.355700492858887 11.605175971984863 10.896158218383789 L11.605175971984863 10.896158218383789"></path></svg>