<svg xmlns="http://www.w3.org/2000/svg" viewBox="0.0 0.0 24.0 24.0" height="200px" width="200px"><path fill="none" stroke="black" stroke-width=".3" stroke-opacity="1.0"  filling="0" d="M14.850890159606934 9.307279586791992 L14.850890159606934 9.307279586791992 C15.792064666748047 10.416461944580078 15.391568183898926 12.097105979919434 14.573552131652832 13.734867095947266 C13.755537033081055 15.372628211975098 12.520002365112305 16.967506408691406 11.791099548339844 17.905160903930664 C11.62165355682373 18.12313461303711 10.10331916809082 19.892576217651367 9.721404075622559 19.88964080810547 C9.258811950683594 19.886085510253906 9.031913757324219 19.27269744873047 8.687169075012207 18.96422576904297 L8.687169075012207 18.96422576904297 C10.929742813110352 18.804767608642578 11.728507995605469 17.295164108276367 11.704343795776367 15.532159805297852 C11.680177688598633 13.769155502319336 10.83308219909668 11.752750396728516 9.783935546875 10.579687118530273 L9.783935546875 10.579687118530273 C9.449408531188965 10.96785831451416 9.114880561828613 11.35602855682373 8.780353546142578 11.744199752807617 L8.780353546142578 11.744199752807617 C8.946088790893555 10.252580642700195 10.156878471374512 8.298002243041992 11.635381698608398 10.36695671081543 C12.451884269714355 11.509535789489746 12.535170555114746 13.842052459716797 12.725404739379883 15.210143089294434 L12.725404739379883 15.210143089294434 C12.842703819274902 15.241409301757812 12.960002899169922 15.272675514221191 13.077301979064941 15.30394172668457 L13.077301979064941 15.30394172668457 C13.96699333190918 13.233184814453125 14.169942855834961 11.391887664794922 14.850890159606934 9.307279586791992 L14.850890159606934 9.307279586791992"></path></svg>