<svg xmlns="http://www.w3.org/2000/svg" viewBox="0.0 0.0 24.0 24.0" height="200px" width="200px"><path fill="none" stroke="black" stroke-width=".3" stroke-opacity="1.0"  filling="0" d="M7.888956069946289 10.04893684387207 C7.888956069946289 14.76169204711914 7.888956069946289 18.662256240844727 7.888956069946289 22.700531005859375 C8.708191871643066 22.491615295410156 9.248871803283691 22.354684829711914 9.78876781463623 22.21697235107422 C10.014898300170898 22.46970558166504 10.241029739379883 22.723220825195312 10.46794319152832 22.975955963134766 C8.978921890258789 24.296749114990234 7.489119052886963 25.616756439208984 5.6652045249938965 27.23410415649414 C3.3827695846557617 22.5902042388916 5.8608198165893555 17.928308486938477 3.64724063873291 13.426033020019531 C4.826408386230469 12.487081527709961 6.0814738273620605 11.487879753112793 7.888956069946289 10.04893684387207"></path>
<path fill="none" stroke="black" stroke-width=".3" stroke-opacity="1.0"  filling="0" d="M21.744754791259766 10.051283836364746 C23.952857971191406 14.087211608886719 22.788555145263672 18.040199279785156 18.760452270507812 22.15593910217285 L18.85121726989746 22.24044418334961 C19.977176666259766 19.35160255432129 21.131305694580078 16.51049041748047 20.494384765625 13.243720054626465 C20.33554458618164 12.428397178649902 21.177471160888672 11.418241500854492 21.744754791259766 10.051283836364746"></path>
<path fill="none" stroke="black" stroke-width=".3" stroke-opacity="1.0"  filling="0" d="M15.834054946899414 10.975369453430176 C15.834054946899414 15.213171005249023 15.834054946899414 18.986974716186523 15.834054946899414 23.222431182861328 C17.26830291748047 22.75530242919922 18.060152053833008 22.497873306274414 18.852001190185547 22.239662170410156 L18.760452270507812 22.15593910217285 C18.254201889038086 24.825693130493164 15.972549438476562 25.59250259399414 13.578222274780273 27.090129852294922 C12.979639053344727 24.267013549804688 12.456174850463867 21.798355102539062 11.932708740234375 19.328908920288086 C11.757437705993652 19.404809951782227 11.58216667175293 19.481489181518555 11.406896591186523 19.557388305664062 C11.863851547241211 17.20140266418457 12.320809364318848 14.846197128295898 12.863836288452148 12.047338485717773 C13.386519432067871 11.858766555786133 14.2886962890625 11.533263206481934 15.834054946899414 10.975369453430176"></path></svg>