<svg xmlns="http://www.w3.org/2000/svg" viewBox="0.0 0.0 24.0 24.0" height="200px" width="200px"><path fill="none" stroke="black" stroke-width=".3" stroke-opacity="1.0"  filling="0" d="M3.2842931747436523 4.125811576843262 C5.820090293884277 4.125811576843262 7.910587787628174 4.125811576843262 10.128313064575195 4.125811576843262 C7.1181511878967285 6.7334489822387695 8.975030899047852 10.02713394165039 8.383307456970215 12.93200397491455 C8.557698249816895 13.040586471557617 8.732089042663574 13.148621559143066 8.90648078918457 13.257204055786133 C11.232240676879883 10.786666870117188 13.558001518249512 8.316128730773926 15.961087226867676 5.763880252838135 C15.477398872375488 5.147479057312012 15.129164695739746 4.703824520111084 14.694284439086914 4.149941921234131 C16.680038452148438 4.149941921234131 18.47439956665039 4.149941921234131 20.268762588500977 4.149941921234131 C16.24515724182129 5.911947727203369 14.084465026855469 9.597188949584961 10.929525375366211 12.564577102661133 C14.56212043762207 16.030458450317383 17.036497116088867 20.30194091796875 21.215845108032227 22.812509536743164 C18.257780075073242 23.73601531982422 17.288211822509766 23.509525299072266 15.339200973510742 21.34280014038086 C13.217445373535156 18.984683990478516 11.105011940002441 16.618343353271484 8.703023910522461 14.360583305358887 C9.030418395996094 17.286293029785156 6.927308082580566 20.53226661682129 10.35151195526123 23.09054946899414 C8.037817001342773 23.09054946899414 5.905640602111816 23.09054946899414 3.30184268951416 23.09054946899414 C6.3706841468811035 21.93946075439453 5.706023693084717 19.593408584594727 5.718636512756348 17.496877670288086 C5.737830638885498 14.390195846557617 5.733992099761963 11.284063339233398 5.722475528717041 8.177383422851562 C5.7131524085998535 5.653102874755859 5.70163631439209 5.653102874755859 3.2842931747436523 4.125811576843262"></path></svg>