<svg xmlns="http://www.w3.org/2000/svg" viewBox="0.0 0.0 24.0 24.0" height="200px" width="200px"><path fill="none" stroke="black" stroke-width=".3" stroke-opacity="1.0"  filling="0" d="M3.6212615966796875 5.87399435043335 C4.639254093170166 5.87399435043335 5.6576619148254395 5.87399435043335 6.856935977935791 5.87399435043335 C8.642365455627441 9.558100700378418 10.458492279052734 13.305261611938477 12.454654693603516 17.423694610595703 C14.44749927520752 13.332639694213867 16.247034072875977 9.638162612915039 18.071455001831055 5.891831398010254 C19.1189022064209 5.891831398010254 20.14187240600586 5.891831398010254 21.286388397216797 5.891831398010254 C20.763704299926758 6.38796854019165 20.099559783935547 6.7563371658325195 19.870574951171875 7.306402206420898 C19.622920989990234 7.9004387855529785 19.755666732788086 8.664556503295898 19.76852798461914 9.353174209594727 C19.81581687927246 11.909358024597168 19.882190704345703 14.465540885925293 19.941511154174805 17.021724700927734 C19.975112915039062 18.455791473388672 20.03318977355957 19.874095916748047 21.947628021240234 20.196834564208984 C20.0062255859375 20.196834564208984 18.064403533935547 20.196834564208984 15.828885078430176 20.196834564208984 C16.547786712646484 19.84298324584961 17.05014419555664 19.5953311920166 17.718021392822266 19.26678466796875 C17.718021392822266 15.942337036132812 17.718021392822266 12.534921646118164 17.718021392822266 9.127507209777832 C17.588590621948242 9.117137908935547 17.459579467773438 9.106766700744629 17.330568313598633 9.096395492553711 C15.526056289672852 12.880891799926758 13.72113037109375 16.665802001953125 11.763962745666504 20.77013397216797 C9.856573104858398 16.859527587890625 8.054551124572754 13.16588020324707 6.252943515777588 9.4722318649292 C6.075811386108398 9.506248474121094 5.898678302764893 9.540678977966309 5.72196102142334 9.574695587158203 C5.72196102142334 12.563547134399414 5.646876811981201 15.556131362915039 5.784185409545898 18.538761138916016 C5.812393665313721 19.146900177001953 6.639150619506836 19.718120574951172 7.052735805511475 20.248275756835938 C5.766347885131836 20.248275756835938 4.261343955993652 20.248275756835938 2.747213363647461 20.248275756835938 C3.4126014709472656 19.559656143188477 4.295774936676025 18.988849639892578 4.6475510597229 18.185739517211914 C5.0121870040893555 17.351930618286133 4.886492729187012 16.294113159179688 4.932539463043213 15.332536697387695 C5.028364658355713 13.330981254577637 5.098886013031006 11.328181266784668 5.173970699310303 9.325796127319336 C5.225823879241943 7.939018726348877 5.278507232666016 6.546849250793457 3.6212615966796875 5.87399435043335"></path></svg>