<svg xmlns="http://www.w3.org/2000/svg" viewBox="0.0 0.0 24.0 24.0" height="200px" width="200px"><path fill="none" stroke="black" stroke-width=".3" stroke-opacity="1.0"  filling="0" d="M12.539716720581055 3.4596757888793945 C17.539642333984375 3.4976320266723633 21.9140567779541 8.02127456665039 21.81786346435547 13.054997444152832 C21.717510223388672 18.30710220336914 17.558361053466797 22.607681274414062 12.529838562011719 22.65863800048828 C7.4779181480407715 22.710113525390625 3.216855049133301 18.390295028686523 3.203855514526367 13.203185081481934 C3.1903371810913086 7.816931247711182 7.402523994445801 3.42067813873291 12.539716720581055 3.4596757888793945"></path>
<path fill="none" stroke="black" stroke-width=".3" stroke-opacity="1.0"  filling="0" d="M16.367136001586914 6.40004301071167 C18.216629028320312 8.514716148376465 18.90765380859375 11.067713737487793 19.241987228393555 13.96804428100586 C18.641435623168945 15.733304977416992 18.309701919555664 17.656633377075195 17.383655548095703 19.229509353637695 C15.559638977050781 22.326385498046875 11.486801147460938 22.643558502197266 8.911443710327148 20.1248779296875 C5.927920341491699 17.20686912536621 5.120944023132324 10.986600875854492 7.250175952911377 7.316730976104736 C9.334691047668457 3.723294258117676 13.626952171325684 3.266251564025879 16.367136001586914 6.40004301071167"></path></svg>