<svg xmlns="http://www.w3.org/2000/svg" viewBox="0.0 0.0 24.0 24.0" height="200px" width="200px"><path fill="none" stroke="black" stroke-width=".3" stroke-opacity="1.0"  filling="0" d="M3.658566474914551 4.0518012046813965 C6.366293907165527 4.0518012046813965 8.786490440368652 4.028250694274902 11.206138610839844 4.057277679443359 C14.649399757385254 4.099449157714844 16.67800521850586 5.258338928222656 17.377391815185547 7.525184631347656 C18.122783660888672 9.942094802856445 17.25580596923828 11.592252731323242 13.872241973876953 13.873337745666504 C16.251909255981445 16.989086151123047 17.719690322875977 20.796009063720703 21.53756332397461 22.825159072875977 C17.63753890991211 23.58643341064453 17.465566635131836 23.54590606689453 15.394790649414062 20.63006019592285 C14.289026260375977 19.073007583618164 13.207359313964844 17.49185562133789 12.23029899597168 15.853198051452637 C11.414257049560547 14.48454761505127 10.439934730529785 13.85964584350586 8.660524368286133 14.680068969726562 C8.660524368286133 16.5618953704834 8.464454650878906 18.576261520385742 8.745962142944336 20.521617889404297 C8.879595756530762 21.44500732421875 9.925115585327148 22.235855102539062 10.551661491394043 23.078731536865234 C8.498411178588867 23.078731536865234 6.219516754150391 23.078731536865234 3.835468292236328 23.078731536865234 C5.917745590209961 21.56494903564453 5.933628559112549 21.56494903564453 5.945676803588867 18.81723976135254 C5.960464000701904 15.35754680633545 5.959916591644287 11.897855758666992 5.940199851989746 8.438163757324219 C5.924316883087158 5.669098377227783 5.907339096069336 5.669098377227783 3.658566474914551 4.0518012046813965"></path>
<path fill="none" stroke="black" stroke-width=".3" stroke-opacity="1.0"  filling="0" d="M8.791967391967773 5.284627437591553 C10.897794723510742 4.800478935241699 12.782907485961914 4.875511169433594 14.052428245544434 6.636300563812256 C15.077136993408203 8.056982040405273 15.066730499267578 9.775599479675293 14.147725105285645 11.25816822052002 C12.957616806030273 13.177236557006836 11.088387489318848 13.592926025390625 8.791967391967773 13.192571640014648 C8.791967391967773 10.500727653503418 8.791967391967773 7.9233479499816895 8.791967391967773 5.284627437591553"></path></svg>