<svg xmlns="http://www.w3.org/2000/svg" viewBox="0.0 0.0 24.0 24.0" height="200px" width="200px"><path fill="none" stroke="black" stroke-width=".3" stroke-opacity="1.0"  filling="0" d="M18.552608489990234 8.621116638183594 C16.02971649169922 14.114465713500977 13.598065376281738 19.595937728881836 10.995270729064941 24.994808197021484 C9.777826309204102 27.520401000976562 8.857317924499512 27.857288360595703 6.001856327056885 27.410263061523438 C6.47533655166626 26.74944305419922 6.735562324523926 26.052448272705078 7.23549747467041 25.74363136291504 C9.889581680297852 24.102914810180664 10.323651313781738 23.322778701782227 9.914957046508789 20.383094787597656 C9.433917045593262 16.923498153686523 8.943700790405273 13.465521812438965 8.475078582763672 10.004305839538574 C8.416770935058594 9.573476791381836 8.46697998046875 9.128069877624512 8.46697998046875 8.6470308303833 C9.82155704498291 7.958134651184082 10.254546165466309 8.677264213562012 10.394376754760742 9.808867454528809 C10.657841682434082 11.941961288452148 10.890532493591309 14.078292846679688 11.143199920654297 16.2130069732666 C11.224722862243652 16.902442932128906 11.330540657043457 17.589717864990234 11.909299850463867 18.45785903930664 C12.452425003051758 17.33759117126465 13.010668754577637 16.224885940551758 13.53489875793457 15.095980644226074 C14.402497291564941 13.227972030639648 15.218266487121582 11.335668563842773 16.11393928527832 9.481157302856445 C16.625751495361328 8.421359062194824 16.677040100097656 8.44619369506836 18.552608489990234 8.621116638183594"></path></svg>