<svg xmlns="http://www.w3.org/2000/svg" viewBox="0.0 0.0 24.0 24.0" height="200px" width="200px"><path fill="none" stroke="black" stroke-width=".3" stroke-opacity="1.0"  filling="0" d="M9.71302318572998 2.5796356201171875 C9.71302318572998 7.162597179412842 9.71302318572998 11.352762222290039 9.71302318572998 15.85065746307373 C11.661994934082031 14.914950370788574 12.95797348022461 13.824127197265625 13.874165534973145 12.342008590698242 C14.003263473510742 12.13335132598877 13.51539421081543 11.543405532836914 13.261703491210938 11.024012565612793 C14.752828598022461 11.024012565612793 16.200923919677734 11.024012565612793 17.67953872680664 11.024012565612793 C15.8601655960083 12.391045570373535 14.061307907104492 13.742066383361816 11.941706657409668 15.334768295288086 C14.113347053527832 17.634004592895508 16.06332015991211 19.698564529418945 18.028804779052734 21.779132843017578 C17.10610580444336 21.779132843017578 16.079330444335938 21.779132843017578 15.0070219039917 21.779132843017578 C13.437335968017578 20.040321350097656 11.845133781433105 18.2764892578125 9.871142387390137 16.0898380279541 C9.97021770477295 18.425601959228516 8.860380172729492 20.369068145751953 11.335248947143555 21.769630432128906 C9.58692741394043 21.77012825012207 8.080790519714355 21.77012825012207 6.826843738555908 21.77012825012207 C7.157093048095703 20.877452850341797 7.708008766174316 20.056835174560547 7.726522922515869 19.224205017089844 C7.81809139251709 15.146627426147461 7.820093631744385 11.065545082092285 7.7315263748168945 6.987965106964111 C7.710510730743408 6.003721714019775 7.227145195007324 5.029486179351807 6.887889385223389 3.8030595779418945 C7.432300567626953 3.5673818588256836 8.37801456451416 3.157571792602539 9.71302318572998 2.5796356201171875"></path></svg>