<svg xmlns="http://www.w3.org/2000/svg" viewBox="0.0 0.0 24.0 24.0" height="200px" width="200px"><path fill="none" stroke="black" stroke-width=".3" stroke-opacity="1.0"  filling="0" d="M12.37692642211914 3.6443443298339844 C12.777107238769531 3.617304801940918 13.220549583435059 4.234879970550537 13.908967971801758 4.776205539703369 C13.22325325012207 5.339702606201172 12.664083480834961 6.050833225250244 12.410996437072754 5.954573631286621 C11.902117729187012 5.761513710021973 11.560342788696289 5.128255367279053 11.149347305297852 4.677242279052734 C11.556556701660156 4.307345390319824 11.946462631225586 3.6735458374023438 12.37692642211914 3.6443443298339844"></path>
<path fill="none" stroke="black" stroke-width=".3" stroke-opacity="1.0"  filling="0" d="M13.403334617614746 10.515005111694336 C13.403334617614746 13.843531608581543 13.324921607971191 16.882198333740234 13.448220252990723 19.913293838500977 C13.488237380981445 20.896438598632812 14.056061744689941 21.85741424560547 14.3870210647583 22.84272003173828 C13.18377685546875 22.84272003173828 11.60522747039795 22.84272003173828 9.646507263183594 22.84272003173828 C12.160613059997559 21.396663665771484 11.141775131225586 19.22271156311035 11.186660766601562 17.372146606445312 C11.232087135314941 15.497790336608887 11.932943344116211 13.375753402709961 9.679494857788086 11.706893920898438 C11.166651725769043 11.23100471496582 12.157368659973145 10.91356372833252 13.403334617614746 10.515005111694336"></path></svg>