<svg xmlns="http://www.w3.org/2000/svg" viewBox="0.0 0.0 24.0 24.0" height="200px" width="200px"><path fill="none" stroke="black" stroke-width=".3" stroke-opacity="1.0"  filling="0" d="M12.453384399414062 4.807036399841309 C9.495678901672363 9.4895601272583 9.068604469299316 14.675641059875488 9.651700973510742 19.979808807373047 C9.925812721252441 22.476177215576172 10.679006576538086 22.95526123046875 13.13315486907959 23.237937927246094 L13.059120178222656 23.161453247070312 C10.225621223449707 24.20895004272461 8.22791576385498 23.51449203491211 7.092313289642334 21.089099884033203 C5.351586818695068 17.370248794555664 6.544703006744385 9.313344955444336 9.43143367767334 6.451088905334473 C10.20665454864502 5.6825995445251465 11.467074394226074 5.402370452880859 12.504779815673828 4.8982014656066895 L12.453384399414062 4.807036399841309"></path>
<path fill="none" stroke="black" stroke-width=".3" stroke-opacity="1.0"  filling="0" d="M12.453996658325195 4.807648181915283 L12.504168510437012 4.898203372955322 C14.68175983428955 4.020802974700928 16.23403549194336 4.380573749542236 17.403289794921875 6.033804893493652 C20.207420349121094 9.997400283813477 18.455678939819336 20.053232192993164 14.455986022949219 22.774150848388672 C14.077859878540039 23.031742095947266 13.528413772583008 23.038471221923828 13.059122085571289 23.161453247070312 L13.133155822753906 23.237937927246094 C15.519389152526855 18.548681259155273 15.803289413452148 13.505163192749023 15.559160232543945 8.395564079284668 C15.431282043457031 5.721758842468262 14.998701095581055 5.316099643707275 12.453996658325195 4.807648181915283"></path></svg>