<svg xmlns="http://www.w3.org/2000/svg" viewBox="0.0 0.0 24.0 24.0" height="200px" width="200px"><path fill="none" stroke="black" stroke-width=".3" stroke-opacity="1.0"  filling="0" d="M11.87917423248291 7.912059783935547 C12.022610664367676 8.774091720581055 12.166047096252441 9.635416984558105 12.337747573852539 10.665616989135742 C14.000337600708008 10.81965160369873 15.665756225585938 10.974393844604492 17.802465438842773 11.172236442565918 C16.349023818969727 13.836057662963867 14.028602600097656 12.179119110107422 12.190778732299805 13.4672212600708 C12.190778732299805 16.234909057617188 12.021904945373535 19.37638282775879 12.244479179382324 22.49029541015625 C12.420417785644531 24.942140579223633 13.307886123657227 25.281299591064453 16.849285125732422 25.269290924072266 C15.979479789733887 25.786508560180664 15.164081573486328 26.451404571533203 14.229978561401367 26.793392181396484 C11.572516441345215 27.764942169189453 9.516358375549316 26.465534210205078 9.353843688964844 23.607402801513672 C9.193449020385742 20.79520034790039 9.307209968566895 17.96816062927246 9.29237174987793 15.147478103637695 C9.28530502319336 13.842416763305664 9.532609939575195 12.354351997375488 6.504898548126221 12.983918190002441 C9.076156616210938 11.127016067504883 10.754999160766602 9.914518356323242 12.434549331665039 8.702020645141602 C12.248717308044434 8.438464164733887 12.064299583435059 8.175615310668945 11.87917423248291 7.912059783935547"></path></svg>