<svg xmlns="http://www.w3.org/2000/svg" viewBox="0.0 0.0 24.0 24.0" height="200px" width="200px"><path fill="none" stroke="black" stroke-width=".3" stroke-opacity="1.0"  filling="0" d="M14.968649864196777 3.0682153701782227 C17.87882423400879 3.356621742248535 18.780376434326172 5.504905700683594 17.09025001525879 7.864384174346924 C16.712711334228516 8.3912353515625 16.21367835998535 8.83122444152832 15.560791015625 9.538045883178711 C16.23354721069336 9.656133651733398 16.7314453125 9.67997932434082 17.185626983642578 9.83326530456543 C19.948192596435547 10.764906883239746 20.884944915771484 12.95520305633545 19.668304443359375 15.63658332824707 C19.437238693237305 16.146404266357422 19.180057525634766 16.688583374023438 18.79513931274414 17.077478408813477 C15.074247360229492 20.83640480041504 10.484732627868652 22.181352615356445 5.1316237449646 22.24039649963379 C5.1316237449646 16.187847137451172 5.156604766845703 10.743900299072266 5.1140241622924805 5.300523281097412 C5.103237628936768 3.91129207611084 5.875348091125488 3.1232852935791016 6.976741313934326 3.596771240234375 C8.484626770019531 4.245116233825684 9.709217071533203 3.5337533950805664 11.054732322692871 3.404878616333008 C12.361075401306152 3.2799787521362305 13.687856674194336 2.94161319732666 14.968649864196777 3.0682153701782227"></path>
<path fill="none" stroke="black" stroke-width=".3" stroke-opacity="1.0"  filling="0" d="M15.105473518371582 5.745054721832275 C14.310652732849121 8.512161254882812 12.208924293518066 9.727667808532715 8.139448165893555 9.854270935058594 C8.139448165893555 8.863017082214355 8.139448165893555 7.874602794647217 8.139448165893555 6.605162143707275 C10.4415864944458 5.6826043128967285 12.619958877563477 4.609598636627197 15.105473518371582 5.745054721832275"></path>
<path fill="none" stroke="black" stroke-width=".3" stroke-opacity="1.0"  filling="0" d="M15.71521282196045 11.827126502990723 C17.59609603881836 12.486259460449219 17.90494155883789 14.205907821655273 16.426010131835938 15.920446395874023 C14.335065841674805 18.344646453857422 11.472580909729004 19.137195587158203 7.965155124664307 19.6458797454834 C7.965155124664307 18.357135772705078 7.879996299743652 17.513492584228516 7.983890056610107 16.693124771118164 C8.163291931152344 15.280049324035645 7.1731743812561035 13.385540008544922 8.86841106414795 12.569147109985352 C10.982063293457031 11.551210403442383 13.35914134979248 11.001081466674805 15.71521282196045 11.827126502990723"></path></svg>