<svg xmlns="http://www.w3.org/2000/svg" viewBox="0.0 0.0 24.0 24.0" height="200px" width="200px"><path fill="none" stroke="black" stroke-width=".3" stroke-opacity="1.0"  filling="0" d="M7.488653182983398 3.433682441711426 C7.883697986602783 3.5500078201293945 8.092738151550293 4.297483921051025 8.317326545715332 4.653946399688721 C10.527505874633789 4.276176929473877 12.577018737792969 3.812027931213379 14.651869773864746 3.606442451477051 C16.337434768676758 3.440016746520996 17.946407318115234 3.8598241806030273 18.720373153686523 5.630617618560791 C19.32330894470215 7.010395526885986 18.708280563354492 9.048967361450195 16.9881649017334 10.110867500305176 C14.998542785644531 11.338617324829102 12.765328407287598 12.170169830322266 10.31846809387207 13.32420825958252 C13.51338005065918 15.469314575195312 16.62076187133789 17.647245407104492 19.835254669189453 19.654144287109375 C20.69675064086914 20.192005157470703 21.353816986083984 20.645790100097656 20.86087417602539 21.595394134521484 C20.355838775634766 22.56918716430664 19.425235748291016 22.855966567993164 18.45144271850586 22.132102966308594 C16.913877487182617 20.98900604248047 15.41834831237793 19.789470672607422 13.889420509338379 18.634857177734375 C12.081197738647461 17.27005386352539 10.254545211791992 15.9282808303833 8.068552017211914 14.302606582641602 C8.068552017211914 16.56231117248535 7.959137439727783 18.19259262084961 8.10252857208252 19.79983901977539 C8.221733093261719 21.13700294494629 7.78983211517334 21.893115997314453 6.471671104431152 21.90981674194336 C4.9801740646362305 21.928821563720703 4.999753475189209 20.976913452148438 5.046398639678955 19.744556427001953 C5.196700096130371 15.7814359664917 5.848006248474121 11.825223922729492 4.627743244171143 7.843676567077637 C4.254005432128906 6.6245646476745605 5.052157402038574 4.9770073890686035 5.554890155792236 3.614504814147949 C5.659698009490967 3.330601692199707 6.883416652679443 3.255739212036133 7.488653182983398 3.433682441711426"></path>
<path fill="none" stroke="black" stroke-width=".3" stroke-opacity="1.0"  filling="0" d="M15.623357772827148 6.071732044219971 C15.786905288696289 8.942431449890137 13.125821113586426 10.634329795837402 8.032272338867188 10.938963890075684 C8.032272338867188 9.690483093261719 8.032272338867188 8.661407470703125 8.032272338867188 7.520614147186279 C10.447461128234863 6.203605651855469 12.909295082092285 5.510261535644531 15.623357772827148 6.071732044219971"></path></svg>