<svg xmlns="http://www.w3.org/2000/svg" viewBox="0.0 0.0 24.0 24.0" height="200px" width="200px"><path fill="none" stroke="black" stroke-width=".3" stroke-opacity="1.0"  filling="0" d="M15.069483757019043 7.684883117675781 L15.069483757019043 7.684883117675781 C14.841894149780273 9.75540542602539 14.614121437072754 11.825909614562988 14.38647174835205 13.8964262008667 L14.38647174835205 13.8964262008667 C14.91879653930664 14.010601043701172 15.451120376586914 14.124774932861328 15.983445167541504 14.2389497756958 L15.983445167541504 14.2389497756958 C15.401268005371094 14.479507446289062 14.819090843200684 14.720065116882324 14.236913681030273 14.960622787475586 L14.236913681030273 14.960622787475586 C14.207836151123047 15.181339263916016 13.811498641967773 18.191307067871094 13.796381950378418 18.30615997314453 L13.796381950378418 18.30615997314453 C13.210135459899902 18.365734100341797 12.623889923095703 18.425308227539062 12.037643432617188 18.484882354736328 L12.037643432617188 18.484882354736328 C12.159709930419922 17.34053611755371 12.281797409057617 16.196191787719727 12.403905868530273 15.051848411560059 L12.403905868530273 15.051848411560059 C11.15228271484375 15.051848411560059 9.900659561157227 15.051848411560059 8.649036407470703 15.051848411560059 L8.649036407470703 15.051848411560059 C8.577027320861816 14.935525894165039 8.50501823425293 14.819204330444336 8.433009147644043 14.702881813049316 L8.433009147644043 14.702881813049316 C9.358076095581055 13.5466890335083 10.283059120178223 12.390432357788086 11.208126068115234 11.23423957824707 L11.208126068115234 11.23423957824707 C10.975892066955566 11.66701889038086 9.784554481506348 13.887534141540527 9.561301231384277 14.303723335266113 L9.561301231384277 14.303723335266113 C9.567834854125977 14.303723335266113 12.507084846496582 14.303723335266113 12.552106857299805 14.303723335266113 L12.552106857299805 14.303723335266113 C12.858037948608398 12.65040397644043 13.497396469116211 10.946081161499023 12.905143737792969 9.340187072753906 L12.905143737792969 9.340187072753906 C13.452224731445312 8.615180015563965 14.235590934753418 8.044821739196777 15.069483757019043 7.684883117675781 L15.069483757019043 7.684883117675781"></path></svg>