<svg xmlns="http://www.w3.org/2000/svg" viewBox="0.0 0.0 24.0 24.0" height="200px" width="200px"><path fill="none" stroke="black" stroke-width=".3" stroke-opacity="1.0"  filling="0" d="M17.69587516784668 5.023171901702881 C17.0081729888916 9.48123550415039 16.409305572509766 13.36646842956543 15.783380508422852 17.425800323486328 C16.30719566345215 17.568241119384766 16.83254623413086 17.710681915283203 17.51310157775879 17.896007537841797 C17.51310157775879 18.37285614013672 17.51310157775879 18.917095184326172 17.51310157775879 19.571102142333984 C16.78915023803711 19.6956729888916 16.14433479309082 19.80646324157715 15.3677978515625 19.939712524414062 C15.049219131469727 21.49227523803711 14.777609825134277 22.81254005432129 14.48813247680664 24.223682403564453 C13.948999404907227 24.223682403564453 13.480831146240234 24.223682403564453 12.815592765808105 24.223682403564453 C13.000410079956055 22.804370880126953 13.172462463378906 21.484615325927734 13.382806777954102 19.872831344604492 C11.491754531860352 19.872831344604492 9.605807304382324 19.872831344604492 7.642768383026123 19.872831344604492 C7.238928318023682 17.369129180908203 8.857351303100586 16.037120819091797 9.888137817382812 14.478943824768066 C11.012353897094727 12.778324127197266 12.161076545715332 11.086893081665039 13.410375595092773 9.478682518005371 C14.53663444519043 8.028739929199219 15.148263931274414 6.036600589752197 17.69587516784668 5.023171901702881"></path>
<path fill="none" stroke="black" stroke-width=".3" stroke-opacity="1.0"  filling="0" d="M14.633637428283691 10.436971664428711 C14.745956420898438 10.4910888671875 14.8582763671875 10.545717239379883 14.970595359802246 10.599835395812988 C14.615257263183594 12.833972930908203 14.259920120239258 15.068620681762695 13.872416496276855 17.50595474243164 C12.637413024902344 17.50595474243164 11.412619590759277 17.50595474243164 9.741101264953613 17.50595474243164 C11.49634838104248 14.970086097717285 13.064737319946289 12.70327377319336 14.633637428283691 10.436971664428711"></path></svg>