<svg xmlns="http://www.w3.org/2000/svg" viewBox="0.0 0.0 24.0 24.0" height="200px" width="200px"><path fill="none" stroke="black" stroke-width=".3" stroke-opacity="1.0"  filling="0" d="M17.456859588623047 4.328680992126465 C17.046283721923828 8.06546401977539 16.654399871826172 11.624995231628418 16.242616653442383 15.371424674987793 C16.987201690673828 15.5311918258667 17.705860137939453 15.68553638458252 19.081680297851562 15.980356216430664 C17.760723114013672 16.525981903076172 16.998653411865234 16.841297149658203 15.976736068725586 17.263330459594727 C15.74281120300293 19.03887367248535 15.485372543334961 20.99227523803711 15.193568229675293 23.210952758789062 C14.22289752960205 23.309825897216797 13.29684066772461 23.403879165649414 12.06692123413086 23.5286808013916 C12.29240608215332 21.41490936279297 12.487143516540527 19.58871841430664 12.71805477142334 17.425508499145508 C10.325742721557617 17.425508499145508 8.184236526489258 17.425508499145508 6.042730331420898 17.425508499145508 C5.914915561676025 17.218713760375977 5.787100315093994 17.011917114257812 5.658682346343994 16.805124282836914 C7.303396701812744 14.749832153320312 8.947509765625 12.693937301635742 10.59222412109375 10.638647079467773 C9.634214401245117 12.423837661743164 8.676203727722168 14.209029197692871 7.664535045623779 16.095508575439453 C9.566086769104004 16.095508575439453 11.220447540283203 16.095508575439453 12.981523513793945 16.095508575439453 C13.42827320098877 13.621200561523438 13.904565811157227 11.295808792114258 14.227720260620117 8.948713302612305 C14.299466133117676 8.42780876159668 13.829805374145508 7.832142353057861 13.60914421081543 7.2714433670043945 C14.284996032714844 5.689429759979248 15.47632884979248 4.764578819274902 17.456859588623047 4.328680992126465"></path></svg>