<svg xmlns="http://www.w3.org/2000/svg" viewBox="0.0 0.0 24.0 24.0" height="200px" width="200px"><path fill="none" stroke="black" stroke-width=".3" stroke-opacity="1.0"  filling="0" d="M20.650386810302734 3.7968292236328125 C21.886863708496094 3.841602325439453 22.232555389404297 4.738632678985596 21.956104278564453 5.8288140296936035 C21.552621841430664 7.42035436630249 21.081981658935547 8.995234489440918 20.61966896057129 10.571155548095703 C19.745023727416992 13.553276062011719 18.90994644165039 16.548931121826172 17.934301376342773 19.497211456298828 C17.69950294494629 20.207340240478516 16.976879119873047 20.756074905395508 16.47864532470703 21.378738403320312 C15.990821838378906 20.763885498046875 15.306203842163086 20.221397399902344 15.05005931854248 19.52168083190918 C13.997883796691895 16.645767211914062 13.076383590698242 13.722478866577148 12.106986045837402 10.81636905670166 C11.88936710357666 10.826258659362793 11.67226791381836 10.837191581726074 11.455168724060059 10.847603797912598 C10.520133018493652 13.671975135803223 9.579370498657227 16.49530601501465 8.6563081741333 19.323843002319336 C8.55062198638916 19.648189544677734 8.663076400756836 20.136531829833984 8.46419906616211 20.31978988647461 C7.996159553527832 20.750865936279297 7.417749404907227 21.265239715576172 6.850792407989502 21.30845069885254 C6.50562047958374 21.33500099182129 5.86785888671875 20.602489471435547 5.754363536834717 20.118831634521484 C4.770909786224365 15.917936325073242 3.862424850463867 11.699339866638184 2.9700794219970703 7.477621078491211 C2.847212791442871 6.895565986633301 2.761831283569336 6.198974609375 2.972163200378418 5.682518482208252 C3.192906379699707 5.141071796417236 3.7900590896606445 4.753208637237549 4.2232160568237305 4.2987060546875 C4.633986473083496 4.766745090484619 5.3149590492248535 5.185324668884277 5.411274433135986 5.71115255355835 C6.015195369720459 9.011372566223145 6.4889607429504395 12.335540771484375 7.0059380531311035 15.651379585266113 C7.2313666343688965 15.689905166625977 7.456275463104248 15.728431701660156 7.681704521179199 15.76695728302002 C8.548540115356445 12.956121444702148 9.409647941589355 10.14372444152832 10.285332679748535 7.33549165725708 C10.614886283874512 6.277589321136475 10.06458854675293 4.523094654083252 11.799820899963379 4.491858005523682 C13.438216209411621 4.462181568145752 12.860847473144531 6.179712772369385 13.1997709274292 7.13192892074585 C14.201967239379883 9.947970390319824 15.123468399047852 12.792646408081055 16.354217529296875 15.628473281860352 C17.510517120361328 12.266298294067383 19.237939834594727 9.143091201782227 19.32019805908203 5.558611869812012 C19.344146728515625 4.517368793487549 19.552913665771484 3.7567405700683594 20.650386810302734 3.7968292236328125"></path></svg>