<svg xmlns="http://www.w3.org/2000/svg" viewBox="0.0 0.0 24.0 24.0" height="200px" width="200px"><path fill="none" stroke="black" stroke-width=".3" stroke-opacity="1.0"  filling="0" d="M9.725849151611328 7.096689224243164 L9.725849151611328 7.096689224243164 C10.278263092041016 7.096689224243164 10.83067798614502 7.096689224243164 11.383091926574707 7.096689224243164 L11.383091926574707 7.096689224243164 C11.383091926574707 9.03621768951416 11.383091926574707 10.975747108459473 11.383091926574707 12.915275573730469 L11.383091926574707 12.915275573730469 C12.204389572143555 12.118003845214844 12.838665962219238 11.083627700805664 13.822322845458984 10.498313903808594 C14.17678451538086 10.287395477294922 14.736621856689453 9.964520454406738 15.034514427185059 10.249808311462402 C15.325029373168945 10.528030395507812 15.00352668762207 11.087141990661621 14.798595428466797 11.433277130126953 C14.232919692993164 12.388718605041504 13.239801406860352 13.015130043029785 12.476517677307129 13.821514129638672 L12.476517677307129 13.821514129638672 C13.455459594726562 14.860736846923828 14.434382438659668 15.899983406066895 15.413405418395996 16.939132690429688 L15.413405418395996 16.939132690429688 C15.212920188903809 17.25308609008789 15.169864654541016 17.77775764465332 14.811948776245117 17.88099479675293 C13.950605392456055 18.129440307617188 12.105712890625 15.175186157226562 11.705181121826172 14.688701629638672 L11.705181121826172 14.688701629638672 C11.594375610351562 14.727108001708984 11.483570098876953 14.765514373779297 11.372764587402344 14.80392074584961 L11.372764587402344 14.80392074584961 C11.372764587402344 15.587628364562988 11.372764587402344 16.371335983276367 11.372764587402344 17.155044555664062 L11.372764587402344 17.155044555664062 C10.948892593383789 17.252765655517578 10.519312858581543 17.56802749633789 10.101149559020996 17.448209762573242 C9.24296760559082 17.202312469482422 9.729337692260742 15.689300537109375 9.725105285644531 14.796595573425293 C9.71902084350586 13.513299942016602 9.71865177154541 12.229973793029785 9.720081329345703 10.946646690368652 C9.721510887145996 9.663320541381836 9.724739074707031 8.37999153137207 9.725849151611328 7.096689224243164 L9.725849151611328 7.096689224243164"></path></svg>