<svg xmlns="http://www.w3.org/2000/svg" viewBox="0.0 0.0 24.0 24.0" height="200px" width="200px"><path fill="none" stroke="black" stroke-width=".3" stroke-opacity="1.0"  filling="0" d="M15.283809661865234 7.789161682128906 L15.283809661865234 7.789161682128906 C13.069669723510742 9.31635570526123 11.621280670166016 10.698711395263672 11.48538589477539 13.487140655517578 L11.48538589477539 13.487140655517578 C10.58767032623291 16.033309936523438 10.527275085449219 16.81298828125 12.903762817382812 18.214488983154297 L12.903762817382812 18.214488983154297 C9.792734146118164 19.01138687133789 8.622161865234375 16.71197509765625 9.202540397644043 13.730143547058105 C9.531759262084961 12.038703918457031 10.282035827636719 10.78970718383789 11.335027694702148 9.845447540283203 C12.388020515441895 8.901185989379883 13.743728637695312 8.261661529541016 15.283809661865234 7.789161682128906 L15.283809661865234 7.789161682128906"></path>
<path fill="none" stroke="black" stroke-width=".3" stroke-opacity="1.0"  filling="0" d="M14.490690231323242 12.392422676086426 L14.490690231323242 12.392422676086426 C16.275657653808594 14.702874183654785 15.73912525177002 16.45771026611328 13.521092414855957 18.16830062866211 L13.521092414855957 18.16830062866211 C13.736730575561523 17.07990264892578 14.552045822143555 14.605380058288574 13.57120132446289 13.638113021850586 C13.13555908203125 13.208500862121582 12.384021759033203 13.34145450592041 11.79043197631836 13.193124771118164 L11.79043197631836 13.193124771118164 C12.545173645019531 12.634774208068848 13.553685188293457 12.334010124206543 14.490690231323242 12.392422676086426 L14.490690231323242 12.392422676086426"></path></svg>