<svg xmlns="http://www.w3.org/2000/svg" viewBox="0.0 0.0 24.0 24.0" height="200px" width="200px"><path fill="none" stroke="black" stroke-width=".3" stroke-opacity="1.0"  filling="0" d="M13.920411109924316 6.049191951751709 C16.143423080444336 6.282949924468994 16.518978118896484 6.668264865875244 16.529766082763672 8.942651748657227 C16.550315856933594 13.29106330871582 16.535417556762695 17.63947296142578 16.535417556762695 22.30076026916504 C17.424724578857422 21.653945922851562 18.069997787475586 21.184886932373047 19.095966339111328 20.438915252685547 C19.208477020263672 21.23472023010254 19.506454467773438 21.876911163330078 19.304035186767578 22.15485382080078 C18.20614242553711 23.661691665649414 16.94025421142578 25.006698608398438 14.549245834350586 25.203468322753906 C13.646580696105957 21.56147003173828 14.440330505371094 18.128053665161133 13.959455490112305 14.487081527709961 C13.210917472839355 15.279291152954102 12.661714553833008 15.9898099899292 11.986128807067871 16.54723358154297 C10.756202697753906 17.562923431396484 9.374719619750977 18.228235244750977 7.7486891746521 17.505897521972656 C6.061008453369141 16.755817413330078 5.825195789337158 15.224832534790039 5.872974872589111 13.636305809020996 C6.017853260040283 8.792635917663574 9.448699951171875 5.5785932540893555 13.920411109924316 6.049191951751709"></path>
<path fill="none" stroke="black" stroke-width=".3" stroke-opacity="1.0"  filling="0" d="M13.775018692016602 8.342588424682617 C13.903970718383789 11.550978660583496 12.25379467010498 14.449063301086426 9.421984672546387 15.789446830749512 C8.068243980407715 13.970244407653809 7.993235111236572 12.18494987487793 9.102429389953613 10.3123197555542 C10.195696830749512 8.465888977050781 11.447200775146484 7.938263893127441 13.775018692016602 8.342588424682617"></path></svg>