<svg xmlns="http://www.w3.org/2000/svg" viewBox="0.0 0.0 24.0 24.0" height="200px" width="200px"><path fill="none" stroke="black" stroke-width=".3" stroke-opacity="1.0"  filling="0" d="M9.086710929870605 7.487759113311768 C9.808736801147461 8.141779899597168 10.625633239746094 8.721920013427734 11.211648941040039 9.48088550567627 C11.482828140258789 9.831823348999023 11.30316162109375 10.529500961303711 11.339262962341309 11.316173553466797 C12.967178344726562 10.420357704162598 14.371769905090332 9.632006645202637 15.791473388671875 8.87136173248291 C17.153247833251953 8.141779899597168 18.740863800048828 7.875638008117676 19.418392181396484 9.45150089263916 C20.02875518798828 10.871204376220703 20.409080505371094 12.767780303955078 19.972505569458008 14.166494369506836 C19.388168334960938 16.03872299194336 17.16668128967285 15.22938346862793 15.696603775024414 12.41516399383545 C12.695159912109375 13.841585159301758 10.707071304321289 15.758310317993164 11.115939140319824 19.479259490966797 C11.342620849609375 21.537872314453125 11.15707778930664 23.642662048339844 11.15707778930664 26.375442504882812 C9.727299690246582 26.485427856445312 8.567020416259766 26.575260162353516 7.107857704162598 26.687761306762695 C7.107857704162598 20.7637939453125 7.03313684463501 15.226025581359863 7.196012020111084 9.69581413269043 C7.217840671539307 8.941884994506836 8.426814079284668 8.223217964172363 9.086710929870605 7.487759113311768"></path></svg>