<svg xmlns="http://www.w3.org/2000/svg" viewBox="0.0 0.0 24.0 24.0" height="200px" width="200px"><path fill="none" stroke="black" stroke-width=".3" stroke-opacity="1.0"  filling="0" d="M14.574108123779297 6.96770715713501 L14.574108123779297 6.96770715713501 C14.824667930603027 7.35189151763916 15.075228691101074 7.7360758781433105 15.325788497924805 8.120260238647461 L15.325788497924805 8.120260238647461 C13.47800350189209 8.26439094543457 11.630218505859375 8.408529281616211 9.78243637084961 8.552706718444824 L9.78243637084961 8.552706718444824 C9.73387336730957 9.38283920288086 9.685291290283203 10.212969779968262 9.636693000793457 11.043100357055664 L9.636693000793457 11.043100357055664 C11.245133399963379 10.39566421508789 12.923139572143555 9.724042892456055 14.666409492492676 10.430034637451172 C16.77251434326172 11.282967567443848 16.79304313659668 13.01274299621582 15.921276092529297 14.57544994354248 C15.049509048461914 16.13815689086914 13.285447120666504 17.533794403076172 11.822369575500488 17.71845245361328 C10.664854049682617 17.864543914794922 9.237915992736816 17.639392852783203 8.338397026062012 16.802993774414062 C7.933846473693848 16.426830291748047 7.763585567474365 15.114728927612305 8.315116882324219 15.145919799804688 C9.159111022949219 15.193650245666504 9.392121315002441 16.13116455078125 10.1373872756958 16.329408645629883 C12.22995376586914 16.886037826538086 15.291117668151855 15.262701034545898 14.708666801452637 12.737628936767578 C14.368006706237793 11.260782241821289 13.053668975830078 11.239015579223633 11.640095710754395 11.67055606842041 C10.226522445678711 12.102097511291504 8.713714599609375 12.986946105957031 7.97611141204834 13.323330879211426 L7.97611141204834 13.323330879211426 C8.146001815795898 11.368072509765625 8.315873146057129 9.41281795501709 8.485734939575195 7.4575581550598145 L8.485734939575195 7.4575581550598145 C10.494361877441406 7.106360912322998 12.539642333984375 7.074541091918945 14.574108123779297 6.96770715713501 L14.574108123779297 6.96770715713501"></path></svg>