<svg xmlns="http://www.w3.org/2000/svg" viewBox="0.0 0.0 24.0 24.0" height="200px" width="200px"><path fill="none" stroke="black" stroke-width=".3" stroke-opacity="1.0"  filling="0" d="M15.144737243652344 7.602268218994141 L15.144737243652344 7.602268218994141 C15.550397872924805 10.62242603302002 14.571784019470215 7.985631942749023 13.098875999450684 8.21945858001709 C12.271217346191406 8.350851058959961 11.595549583435059 9.906221389770508 11.386012077331543 10.43896484375 C10.830005645751953 11.852593421936035 10.603928565979004 13.44631290435791 10.948573112487793 14.936010360717773 C11.048765182495117 15.3690824508667 11.322503089904785 16.544166564941406 12.144613265991211 16.388504028320312 C13.2841796875 16.172731399536133 13.992816925048828 14.565078735351562 15.150463104248047 14.635966300964355 C15.746411323547363 14.67245864868164 15.193059921264648 15.961569786071777 14.774374961853027 16.387231826782227 C13.957711219787598 17.217504501342773 12.406455039978027 18.04827308654785 11.207889556884766 17.58884048461914 C9.38859748840332 16.89147186279297 9.284613609313965 14.299022674560547 9.431333541870117 12.764280319213867 C9.533260345458984 11.698089599609375 9.842267036437988 10.2572660446167 10.470319747924805 9.0741548538208 C11.098372459411621 7.891044616699219 12.04547119140625 6.9656476974487305 13.423580169677734 6.93031120300293 C14.039270401000977 6.914524078369141 14.57101821899414 7.37828254699707 15.144737243652344 7.602268218994141 L15.144737243652344 7.602268218994141"></path></svg>