<svg xmlns="http://www.w3.org/2000/svg" viewBox="0.0 0.0 24.0 24.0" height="200px" width="200px"><path fill="none" stroke="black" stroke-width=".3" stroke-opacity="1.0"  filling="0" d="M8.32612419128418 3.7004661560058594 C8.697772026062012 4.204456806182861 9.35706901550293 4.689713954925537 9.390910148620605 5.215460300445557 C9.51841926574707 7.188518047332764 9.442276000976562 9.174266815185547 9.442276000976562 11.513534545898438 C11.570640563964844 11.389047622680664 13.50079345703125 11.276646614074707 15.619488716125488 11.152763366699219 C15.619488716125488 9.100542068481445 15.736120223999023 7.405463695526123 15.577792167663574 5.736976146697998 C15.475664138793945 4.65768575668335 15.620092391967773 3.8515424728393555 16.735641479492188 3.7312850952148438 C18.12856674194336 3.580813407897949 18.298376083374023 4.588191032409668 18.294750213623047 5.710990905761719 C18.277225494384766 10.831876754760742 18.28084945678711 15.953367233276367 18.306232452392578 21.074256896972656 C18.311670303344727 22.13058090209961 18.00286865234375 22.930681228637695 16.835956573486328 22.858768463134766 C15.739140510559082 22.791088104248047 15.433965682983398 22.08646583557129 15.490771293640137 20.964271545410156 C15.60679817199707 18.693288803100586 15.525217056274414 16.412036895751953 15.525217056274414 14.01414966583252 C13.531007766723633 14.01414966583252 11.667328834533691 14.01414966583252 9.34739875793457 14.01414966583252 C9.34739875793457 16.343748092651367 9.27427864074707 18.508975982666016 9.378218650817871 20.66634750366211 C9.430793762207031 21.760746002197266 9.551654815673828 22.818885803222656 8.147248268127441 22.8962345123291 C6.503536701202393 22.986881256103516 6.662468910217285 21.83749008178711 6.687245845794678 20.62223243713379 C6.780308246612549 16.0512638092041 6.745863437652588 11.477272987365723 6.756136417388916 6.904491424560547 C6.756741046905518 6.302001476287842 6.53435754776001 5.588316917419434 6.784539699554443 5.1260223388671875 C7.099987506866455 4.5434722900390625 7.794939041137695 4.166385650634766 8.32612419128418 3.7004661560058594"></path></svg>