<svg xmlns="http://www.w3.org/2000/svg" viewBox="0.0 0.0 24.0 24.0" height="200px" width="200px"><path fill="none" stroke="black" stroke-width=".3" stroke-opacity="1.0"  filling="0" d="M12.58686351776123 7.107565879821777 L12.58686351776123 7.107565879821777 C13.185883522033691 7.119524002075195 13.870357513427734 6.834867000579834 14.383923530578613 7.1434407234191895 C14.973793983459473 7.497861862182617 15.139869689941406 8.29356861114502 15.517843246459961 8.868632316589355 L15.517843246459961 8.868632316589355 C14.323671340942383 8.78609561920166 13.286428451538086 7.791506767272949 12.271899223327637 8.552079200744629 C10.650002479553223 9.767982482910156 9.781083106994629 11.436321258544922 9.82364559173584 13.473345756530762 C9.837265014648438 14.125149726867676 9.998946189880371 16.017562866210938 10.925554275512695 16.415021896362305 C13.145442008972168 17.367219924926758 14.178133964538574 14.051109313964844 14.528772354125977 12.750543594360352 L14.528772354125977 12.750543594360352 C13.744065284729004 12.8392333984375 12.959355354309082 12.927903175354004 12.174644470214844 13.016562461853027 L12.174644470214844 13.016562461853027 C13.008638381958008 11.25645923614502 13.826937675476074 11.559823036193848 15.664676666259766 11.320332527160645 L15.664676666259766 11.320332527160645 C15.768756866455078 12.611776351928711 15.31660270690918 14.645854949951172 14.369542121887207 16.1048583984375 C13.422481536865234 17.563861846923828 11.980515480041504 18.447792053222656 10.10496997833252 17.438934326171875 C8.703128814697266 16.68488311767578 8.286406517028809 15.157415390014648 8.394864082336426 13.569147109985352 C8.503320693969727 11.980878829956055 9.136957168579102 10.331808090209961 9.835831642150879 9.334551811218262 C10.829745292663574 7.916289806365967 11.145867347717285 7.938727378845215 12.58686351776123 7.107565879821777 L12.58686351776123 7.107565879821777"></path></svg>