<svg xmlns="http://www.w3.org/2000/svg" viewBox="0.0 0.0 24.0 24.0" height="200px" width="200px"><path fill="none" stroke="black" stroke-width=".3" stroke-opacity="1.0"  filling="0" d="M16.096641540527344 3.1181726455688477 C16.561344146728516 3.1076126098632812 17.381023406982422 3.7999696731567383 17.42737579345703 4.232985496520996 C17.479595184326172 4.719982147216797 16.946247100830078 5.580734729766846 16.480371475219727 5.74267578125 C15.6906156539917 6.017271518707275 14.751826286315918 5.835381507873535 13.881098747253418 5.911657810211182 C12.835522651672363 6.003189563751221 11.79581356048584 6.164544582366943 10.59416389465332 6.315924644470215 C10.59416389465332 7.929468631744385 10.59416389465332 9.32533073425293 10.59416389465332 10.894868850708008 C11.726577758789062 10.773412704467773 12.698224067687988 10.760503768920898 13.622931480407715 10.546342849731445 C14.76297378540039 10.281721115112305 16.130672454833984 9.59229850769043 16.300241470336914 11.44992733001709 C16.468637466430664 13.294061660766602 14.859199523925781 12.806477546691895 13.770791053771973 12.929694175720215 C12.731668472290039 13.047629356384277 11.699586868286133 13.231280326843262 10.556024551391602 13.402608871459961 C10.556024551391602 15.457971572875977 10.556024551391602 17.263965606689453 10.556024551391602 19.489482879638672 C12.739295959472656 19.21078109741211 14.721315383911133 18.88279151916504 16.71624183654785 18.75429344177246 C17.237857818603516 18.72085189819336 17.798782348632812 19.306421279907227 18.34210777282715 19.607418060302734 C17.97480583190918 20.106739044189453 17.669113159179688 20.97277069091797 17.230815887451172 21.046113967895508 C14.207914352416992 21.55071449279785 11.1580228805542 21.889263153076172 7.831189155578613 22.318172454833984 C7.831189155578613 15.729632377624512 7.831189155578613 9.491964340209961 7.831189155578613 3.6292266845703125 C10.902203559875488 3.418585777282715 13.497368812561035 3.179194450378418 16.096641540527344 3.1181726455688477"></path></svg>