<svg xmlns="http://www.w3.org/2000/svg" viewBox="0.0 0.0 24.0 24.0" height="200px" width="200px"><path fill="none" stroke="black" stroke-width=".3" stroke-opacity="1.0"  filling="0" d="M11.89270305633545 5.520662784576416 C15.175568580627441 4.857237815856934 18.265499114990234 7.245965957641602 18.659927368164062 10.915197372436523 C18.0624942779541 11.082439422607422 17.5970401763916 11.212907791137695 17.07012939453125 11.361006736755371 C16.742700576782227 10.683478355407715 16.493349075317383 10.071435928344727 16.1649112701416 9.5057373046875 C14.675354957580566 6.942715167999268 11.579378128051758 6.715528964996338 9.668192863464355 9.013081550598145 C7.520251274108887 11.595748901367188 7.496071815490723 18.33476448059082 9.625879287719727 20.929523468017578 C11.569807052612305 23.29810333251953 14.82043170928955 23.042705535888672 16.332149505615234 20.374401092529297 C16.699880599975586 19.725587844848633 16.929584503173828 18.998188018798828 17.31041145324707 18.100526809692383 C17.82472801208496 18.260211944580078 18.336023330688477 18.419391632080078 18.83774757385254 18.575048446655273 C18.089696884155273 23.325305938720703 14.413915634155273 25.799667358398438 10.532105445861816 24.045650482177734 C9.397181510925293 23.53284454345703 8.248658180236816 22.514789581298828 7.659283638000488 21.428226470947266 C5.591940402984619 17.615930557250977 5.445352077484131 13.585517883300781 7.090059280395508 9.555105209350586 C7.9695868492126465 7.400111198425293 9.595151901245117 5.985109806060791 11.89270305633545 5.520662784576416"></path></svg>