<svg xmlns="http://www.w3.org/2000/svg" viewBox="0.0 0.0 24.0 24.0" height="200px" width="200px"><path fill="none" stroke="black" stroke-width=".3" stroke-opacity="1.0"  filling="0" d="M21.801456451416016 7.303286075592041 C20.44295883178711 12.456441879272461 19.116933822631836 17.48691749572754 17.754825592041016 22.65570831298828 C16.89727020263672 22.65570831298828 16.149765014648438 22.65570831298828 15.239889144897461 22.65570831298828 C14.3011474609375 18.596446990966797 13.369623184204102 14.568459510803223 12.438097953796387 10.541070938110352 C12.266708374023438 10.526638984680176 12.095316886901855 10.511604309082031 11.92392635345459 10.496570587158203 C11.04351806640625 14.448786735534668 10.163710594177246 18.40160369873047 9.234591484069824 22.57211685180664 C8.540608406066895 22.658714294433594 7.806333065032959 22.7501220703125 6.841131210327148 22.869796752929688 C5.401447296142578 17.67214012145996 4.001453399658203 12.617008209228516 2.6014604568481445 7.56187629699707 C4.083239555358887 6.890143394470215 4.576364994049072 7.413938999176025 4.865023612976074 8.665994644165039 C5.583061218261719 11.780499458312988 6.406940460205078 14.870949745178223 7.212177753448486 17.965007781982422 C7.379960536956787 18.60907554626465 7.651780605316162 19.226085662841797 8.064923286437988 20.387332916259766 C9.120330810546875 15.68701171875 10.048248291015625 11.554985046386719 10.98398208618164 7.3892822265625 C11.890851974487305 7.3892822265625 12.635350227355957 7.3892822265625 13.486289978027344 7.3892822265625 C14.445478439331055 11.696307182312012 15.372793197631836 15.863813400268555 16.37948989868164 20.386131286621094 C17.804140090942383 15.757972717285156 19.100696563720703 11.529126167297363 20.440555572509766 7.314110279083252 C20.467615127563477 7.2293171882629395 20.995019912719727 7.303286075592041 21.801456451416016 7.303286075592041"></path></svg>