<svg xmlns="http://www.w3.org/2000/svg" viewBox="0.0 0.0 24.0 24.0" height="200px" width="200px"><path fill="none" stroke="black" stroke-width=".3" stroke-opacity="1.0"  filling="0" d="M15.782318115234375 7.42968225479126 C16.70909309387207 7.727344036102295 17.403369903564453 8.749048233032227 18.969715118408203 10.095767974853516 C14.575580596923828 10.693506240844727 10.09134292602539 9.366898536682129 9.347992897033691 15.443224906921387 C11.099370956420898 14.968574523925781 12.434022903442383 14.646778106689453 13.742931365966797 14.244531631469727 C17.719533920288086 13.021703720092773 20.067041397094727 15.038564682006836 19.384029388427734 19.116535186767578 C18.732391357421875 23.007057189941406 14.84749984741211 26.583023071289062 10.956976890563965 26.399600982666016 C9.549921035766602 26.332828521728516 7.938523769378662 25.406856536865234 6.927277565002441 24.375497817993164 C6.428492546081543 23.8670597076416 7.084153175354004 22.226699829101562 7.2176995277404785 21.098804473876953 C7.623162269592285 20.988588333129883 8.028626441955566 20.879175186157227 8.434089660644531 20.76896095275879 C9.407526016235352 23.134971618652344 10.829866409301758 24.170352935791016 13.137953758239746 22.90890884399414 C15.599699020385742 21.563798904418945 16.26662254333496 19.986995697021484 15.384900093078613 16.67812156677246 C13.888545036315918 17.182537078857422 12.431611061096191 17.738441467285156 10.936864852905273 18.164016723632812 C7.7921061515808105 19.058612823486328 5.898332595825195 17.539730072021484 6.083365440368652 14.3362455368042 C6.315863132476807 10.293673515319824 11.945696830749512 6.197200775146484 15.782318115234375 7.42968225479126"></path></svg>