<svg xmlns="http://www.w3.org/2000/svg" viewBox="0.0 0.0 24.0 24.0" height="200px" width="200px"><path fill="none" stroke="black" stroke-width=".3" stroke-opacity="1.0"  filling="0" d="M12.306967735290527 3.0567970275878906 C15.496541976928711 2.653103828430176 17.74783706665039 4.6333394050598145 17.644161224365234 7.895312309265137 C17.56597137451172 10.369592666625977 16.317249298095703 12.197502136230469 14.600542068481445 13.89625358581543 C12.998515129089355 15.481483459472656 11.64206314086914 17.315185546875 10.035402297973633 19.207963943481445 C13.491401672363281 20.2643985748291 14.218279838562012 20.147979736328125 17.64068603515625 18.024686813354492 C17.848033905029297 19.414731979370117 18.023527145385742 20.590478897094727 18.264469146728516 22.20524787902832 C14.330062866210938 22.204090118408203 10.914026260375977 22.204090118408203 6.890425205230713 22.204090118408203 C7.093719482421875 21.281448364257812 7.055492877960205 20.148561477661133 7.5663347244262695 19.38055992126465 C9.15272331237793 16.995473861694336 10.83757495880127 14.654406547546387 12.701394081115723 12.482461929321289 C13.862661361694336 11.128905296325684 15.120073318481445 9.870914459228516 14.966009140014648 8.00825309753418 C14.890714645385742 7.097194671630859 14.324271202087402 5.61042594909668 13.756669998168945 5.496326446533203 C12.828235626220703 5.309828281402588 11.605574607849121 5.860633373260498 10.725213050842285 6.434606552124023 C10.187149047851562 6.7861714363098145 10.222478866577148 7.960180759429932 9.69542121887207 8.399782180786133 C9.161991119384766 8.845176696777344 8.253249168395996 8.8411226272583 7.508995532989502 9.033411026000977 C7.45281457901001 8.369665145874023 7.123836994171143 7.559963703155518 7.386787414550781 7.066497802734375 C8.446697235107422 5.079891204833984 9.789828300476074 3.3753480911254883 12.306967735290527 3.0567970275878906"></path></svg>