<svg xmlns="http://www.w3.org/2000/svg" viewBox="0.0 0.0 24.0 24.0" height="200px" width="200px"><path fill="none" stroke="black" stroke-width=".3" stroke-opacity="1.0"  filling="0" d="M12.786736488342285 3.019611358642578 C15.852392196655273 2.72060489654541 18.402462005615234 5.108099937438965 18.72705078125 8.481287956237793 C19.011276245117188 11.4378023147583 18.93282699584961 14.341448783874512 17.690195083618164 17.093318939208984 C16.690288543701172 19.30800437927246 15.262908935546875 21.142967224121094 12.835623741149902 21.954143524169922 C10.125818252563477 22.86025619506836 6.972052574157715 21.111129760742188 6.4888691902160645 18.348459243774414 C6.415539264678955 17.928373336791992 6.7708210945129395 17.214397430419922 7.139745712280273 16.998388290405273 C7.504122257232666 16.785219192504883 8.178305625915527 16.92903709411621 8.637044906616211 17.11435317993164 C8.900238037109375 17.220653533935547 9.013360023498535 17.71634292602539 9.178779602050781 18.04433822631836 C10.336713790893555 20.342018127441406 11.859594345092773 20.645000457763672 13.778684616088867 18.955564498901367 C15.380578994750977 17.54467010498047 16.246898651123047 15.17536735534668 16.317386627197266 11.882898330688477 C15.480626106262207 12.413263320922852 14.737092971801758 12.963523864746094 13.926481246948242 13.3836088180542 C10.653341293334961 15.07929801940918 7.5098066329956055 13.441021919250488 7.028897285461426 9.819989204406738 C6.5883469581604 6.507626056671143 9.250402450561523 3.3640918731689453 12.786736488342285 3.019611358642578"></path>
<path fill="none" stroke="black" stroke-width=".3" stroke-opacity="1.0"  filling="0" d="M13.21023178100586 5.224063873291016 C14.84282398223877 5.214399814605713 15.924016952514648 6.226242542266846 15.959260940551758 7.796873092651367 C15.997915267944336 9.534627914428711 13.688867568969727 11.97385025024414 11.96987247467041 12.0108003616333 C10.632307052612305 12.039791107177734 9.501089096069336 10.686308860778809 9.53974437713623 9.103742599487305 C9.594315528869629 6.884509086608887 11.154145240783691 5.236001491546631 13.21023178100586 5.224063873291016"></path></svg>