<svg xmlns="http://www.w3.org/2000/svg" viewBox="0.0 0.0 24.0 24.0" height="200px" width="200px"><path fill="none" stroke="black" stroke-width=".3" stroke-opacity="1.0"  filling="0" d="M13.621687889099121 7.073941707611084 L13.621687889099121 7.073941707611084 C16.524810791015625 6.673333168029785 15.91737174987793 8.777878761291504 14.624353408813477 10.416374206542969 L14.624353408813477 10.416374206542969 C15.03703498840332 10.88521957397461 15.576423645019531 11.267624855041504 15.862398147583008 11.822909355163574 C16.105152130126953 12.294269561767578 15.813693046569824 13.534407615661621 15.598353385925293 13.946088790893555 C15.041120529174805 15.01138973236084 14.048398971557617 16.075998306274414 12.882732391357422 16.78665542602539 C11.71706485748291 17.497314453125 10.37845230102539 17.854019165039062 9.129438400268555 17.503515243530273 L9.129438400268555 17.503515243530273 C9.477705001831055 15.559011459350586 9.826298713684082 13.614566802978516 10.173858642578125 11.66993522644043 C10.378341674804688 10.525830268859863 10.174222946166992 9.236324310302734 10.760841369628906 8.232995986938477 C11.460746765136719 7.035906791687012 12.478224754333496 7.206772804260254 13.621687889099121 7.073941707611084 L13.621687889099121 7.073941707611084"></path>
<path fill="none" stroke="black" stroke-width=".3" stroke-opacity="1.0"  filling="0" d="M14.375917434692383 8.359125137329102 L14.375917434692383 8.359125137329102 C12.201122283935547 8.37417984008789 12.088360786437988 8.60826587677002 11.825297355651855 10.761000633239746 L11.825297355651855 10.761000633239746 C12.468260765075684 10.483154296875 13.244264602661133 10.407649040222168 13.75418758392334 9.927462577819824 C14.163594245910645 9.54193115234375 14.16867446899414 8.881904602050781 14.375917434692383 8.359125137329102 L14.375917434692383 8.359125137329102"></path>
<path fill="none" stroke="black" stroke-width=".3" stroke-opacity="1.0"  filling="0" d="M14.038616180419922 11.845841407775879 L14.038616180419922 11.845841407775879 C15.746236801147461 14.168115615844727 12.56868839263916 15.662252426147461 10.687265396118164 16.275344848632812 L10.687265396118164 16.275344848632812 C10.91451644897461 14.849679946899414 10.70409107208252 12.426486015319824 12.455666542053223 11.847553253173828 C12.956660270690918 11.681963920593262 13.510966300964355 11.84641170501709 14.038616180419922 11.845841407775879 L14.038616180419922 11.845841407775879"></path></svg>