<svg xmlns="http://www.w3.org/2000/svg" viewBox="0.0 0.0 24.0 24.0" height="200px" width="200px"><path fill="none" stroke="black" stroke-width=".3" stroke-opacity="1.0"  filling="0" d="M15.134753227233887 7.428978443145752 L15.134753227233887 7.428978443145752 C15.802380561828613 7.628649711608887 16.46640968322754 7.840546607971191 17.12744903564453 8.06104850769043 L17.12744903564453 8.06104850769043 C17.128145217895508 8.879057884216309 17.43070411682129 10.064356803894043 16.789752960205078 10.653980255126953 L16.789752960205078 10.653980255126953 C16.538991928100586 9.878376960754395 16.326644897460938 9.076519966125488 15.654544830322266 8.495719909667969 C14.059211730957031 7.117099761962891 12.527998924255371 7.493301868438721 11.393306732177734 8.655842781066895 C10.258615493774414 9.818384170532227 9.520445823669434 11.767264366149902 9.511199951171875 13.534000396728516 C9.501955032348633 15.300737380981445 10.221632957458496 16.885330200195312 12.00263786315918 17.319293975830078 C12.60122013092041 17.465147018432617 13.234827995300293 17.321245193481445 13.850922584533691 17.322221755981445 L13.850922584533691 17.322221755981445 C14.480379104614258 15.395319938659668 14.696847915649414 14.988597869873047 13.24215316772461 13.581324577331543 L13.24215316772461 13.581324577331543 C14.523358345031738 13.581324577331543 15.804564476013184 13.581324577331543 17.085769653320312 13.581324577331543 L17.085769653320312 13.581324577331543 C16.094045639038086 15.197529792785645 16.036361694335938 15.749008178710938 16.631244659423828 17.565731048583984 L16.631244659423828 17.565731048583984 C15.476078987121582 17.732990264892578 14.123579025268555 18.025466918945312 12.80325984954834 18.076316833496094 C11.482940673828125 18.127164840698242 10.194803237915039 17.936382293701172 9.16836166381836 17.13711929321289 C7.768697738647461 16.047237396240234 7.2453083992004395 14.410228729248047 7.39316463470459 12.795473098754883 C7.541021347045898 11.180717468261719 8.360123634338379 9.588212966918945 9.6454439163208 8.587342262268066 C11.360570907592773 7.25178337097168 13.095819473266602 7.253986835479736 15.134753227233887 7.428978443145752 L15.134753227233887 7.428978443145752"></path></svg>