<svg xmlns="http://www.w3.org/2000/svg" viewBox="0.0 0.0 24.0 24.0" height="200px" width="200px"><path fill="none" stroke="black" stroke-width=".3" stroke-opacity="1.0"  filling="0" d="M17.572895050048828 3.8737382888793945 C18.685489654541016 4.1496992111206055 19.764245986938477 4.564516544342041 21.115463256835938 4.9974188804626465 C21.115463256835938 6.3906426429748535 21.125965118408203 7.731357574462891 21.09796142578125 9.070905685424805 C21.095043182373047 9.19517707824707 20.843585968017578 9.31419563293457 20.51511573791504 9.607075691223145 C20.385597229003906 9.2068452835083 20.28116226196289 8.904629707336426 20.188980102539062 8.5983304977417 C19.47836685180664 6.233700752258301 17.963790893554688 4.78330135345459 15.460306167602539 4.512007713317871 C13.00174331665039 4.245380878448486 11.129526138305664 5.229039669036865 9.783559799194336 7.276867389678955 C7.738065242767334 10.388284683227539 7.347752094268799 13.801332473754883 8.233978271484375 17.316478729248047 C9.108534812927246 20.78378677368164 11.576431274414062 22.134418487548828 15.290529251098633 21.461727142333984 C16.855863571166992 17.807140350341797 16.69892120361328 16.536436080932617 14.208271980285645 14.811243057250977 C16.604990005493164 14.811243057250977 18.73041343688965 14.811243057250977 21.041370391845703 14.811243057250977 C19.45503044128418 16.83456802368164 18.580472946166992 18.9844970703125 20.233322143554688 21.89463233947754 C17.52096939086914 22.23476791381836 15.234518051147461 22.75635528564453 12.948652267456055 22.752853393554688 C9.640621185302734 22.748186111450195 6.525121212005615 21.87596321105957 4.873439788818359 18.603519439697266 C3.1120729446411133 15.11462688446045 3.4498777389526367 11.619315147399902 5.540879726409912 8.381295204162598 C7.970270156860352 4.618774890899658 13.081090927124023 2.759976387023926 17.572895050048828 3.8737382888793945"></path></svg>