<svg xmlns="http://www.w3.org/2000/svg" viewBox="0.0 0.0 24.0 24.0" height="200px" width="200px"><path fill="none" stroke="black" stroke-width=".3" stroke-opacity="1.0"  filling="0" d="M17.231830596923828 3.808840751647949 C18.005462646484375 4.620596408843994 18.257081985473633 5.476341247558594 16.924489974975586 6.338537693023682 C16.383710861206055 6.03530216217041 15.760818481445312 5.685731410980225 14.821200370788574 5.159029483795166 C14.39010238647461 6.577840805053711 14.015896797180176 7.811309814453125 13.53904914855957 9.38203239440918 C14.787181854248047 9.226602554321289 15.683984756469727 9.114575386047363 16.66817855834961 8.991403579711914 C17.508085250854492 12.209096908569336 14.47221565246582 10.881197929382324 13.115575790405273 12.304701805114746 C12.687410354614258 14.747004508972168 12.109094619750977 17.679058074951172 11.685033798217773 20.63340187072754 C11.484441757202148 22.029926300048828 10.898500442504883 22.48272705078125 9.194048881530762 22.049869537353516 C9.687318801879883 18.984670639038086 10.173550605773926 15.961118698120117 10.686762809753418 12.772165298461914 C10.097302436828613 12.53403377532959 9.523677825927734 12.30235481262207 8.968822479248047 12.078888893127441 C8.555319786071777 10.186161994934082 9.968852996826172 10.052433967590332 11.022256851196289 9.897590637207031 C11.684447288513184 8.03360366821289 12.097363471984863 6.303345203399658 12.893281936645508 4.772507190704346 C13.904457092285156 2.826992988586426 15.954373359680176 2.4680376052856445 17.231830596923828 3.808840751647949"></path></svg>