<svg xmlns="http://www.w3.org/2000/svg" viewBox="0.0 0.0 24.0 24.0" height="200px" width="200px"><path fill="none" stroke="black" stroke-width=".3" stroke-opacity="1.0"  filling="0" d="M18.338354110717773 7.663938999176025 C19.58028221130371 8.612021446228027 20.01749038696289 10.612730979919434 20.814292907714844 12.142964363098145 C20.05234146118164 17.585908889770508 18.068265914916992 21.841575622558594 13.841904640197754 24.88857650756836 C12.321175575256348 25.98476791381836 10.28878402709961 27.015220642089844 8.809240341186523 25.576072692871094 C7.680574417114258 24.479087829589844 6.738831043243408 22.23601531982422 7.056441307067871 20.800029754638672 C7.775619983673096 17.547887802124023 9.225065231323242 14.435144424438477 10.591344833374023 11.360420227050781 C11.042020797729492 10.347392082214355 12.052671432495117 9.495943069458008 12.979366302490234 8.800525665283203 C14.570587158203125 7.606119632720947 16.555456161499023 6.30241060256958 18.338354110717773 7.663938999176025"></path>
<path fill="none" stroke="black" stroke-width=".3" stroke-opacity="1.0"  filling="0" d="M16.41922378540039 10.539862632751465 C12.178606033325195 11.456260681152344 9.306646347045898 17.648479461669922 10.854304313659668 23.016971588134766 C15.699254035949707 21.451889038085938 18.062719345092773 15.943997383117676 16.41922378540039 10.539862632751465"></path></svg>