<svg xmlns="http://www.w3.org/2000/svg" viewBox="0.0 0.0 24.0 24.0" height="200px" width="200px"><path fill="none" stroke="black" stroke-width=".3" stroke-opacity="1.0"  filling="0" d="M17.479732513427734 7.279731750488281 C19.172616958618164 7.446442604064941 20.24698257446289 8.154362678527832 19.61798667907715 10.365100860595703 C16.05583953857422 10.358657836914062 12.244832992553711 10.108993530273438 10.982015609741211 15.536376953125 C12.859331130981445 14.948457717895508 14.284029006958008 14.466039657592773 15.728860855102539 14.056913375854492 C18.67892837524414 13.220940589904785 20.143089294433594 14.389531135559082 19.97235107421875 17.399999618530273 C19.72671127319336 21.741744995117188 14.921880722045898 26.577180862426758 10.66792106628418 26.455570220947266 C9.50657844543457 26.422550201416016 7.9489946365356445 25.694496154785156 7.327250003814697 24.774765014648438 C6.412348747253418 23.42093849182129 7.022818565368652 21.96563720703125 8.96536922454834 21.124832153320312 C9.542819023132324 21.88671112060547 10.136375427246094 22.67033576965332 10.690469741821289 23.402414321899414 C15.175569534301758 22.526979446411133 16.381206512451172 21.22711181640625 16.51409339904785 16.704965591430664 C14.910603523254395 17.217180252075195 13.476240158081055 17.72536849975586 12.013691902160645 18.132884979248047 C9.10228157043457 18.943891525268555 7.507650852203369 17.54657554626465 8.019865989685059 14.681879043579102 C8.687517166137695 10.952214241027832 13.813691139221191 6.918926239013672 17.479732513427734 7.279731750488281"></path></svg>