<svg xmlns="http://www.w3.org/2000/svg" viewBox="0.0 0.0 24.0 24.0" height="200px" width="200px"><path fill="none" stroke="black" stroke-width=".3" stroke-opacity="1.0"  filling="0" d="M8.30386734008789 7.434165000915527 C8.30386734008789 11.060205459594727 8.30386734008789 14.492021560668945 8.30386734008789 18.041311264038086 C11.247773170471191 15.272051811218262 10.931375503540039 10.592658042907715 13.664609909057617 7.764659881591797 C14.035829544067383 7.8547234535217285 14.406265258789062 7.94478702545166 14.777482986450195 8.03563404083252 C14.938032150268555 11.269309997558594 15.098579406738281 14.502985954284668 15.259127616882324 17.73666000366211 C15.53480052947998 17.80479621887207 15.811256408691406 17.873714447021484 16.086929321289062 17.941848754882812 C16.992263793945312 15.177286148071289 17.980615615844727 12.437004089355469 18.77474021911621 9.641115188598633 C19.363677978515625 7.566519260406494 19.251684188842773 7.534409523010254 22.504940032958984 7.744297027587891 C20.110031127929688 13.909347534179688 17.791873931884766 19.873910903930664 15.23015022277832 26.468917846679688 C11.265786170959473 23.51874542236328 13.753108024597168 19.45100212097168 12.259618759155273 16.20557975769043 C9.8435640335083 19.483896255493164 9.488008499145508 23.657367706298828 5.815762042999268 26.4775333404541 C5.448458671569824 24.988740921020508 5.107000827789307 24.274497985839844 5.124229907989502 23.568866729736328 C5.237788200378418 19.006948471069336 5.428096771240234 14.447380065917969 5.595693111419678 9.887028694152832 C5.659912586212158 8.142926216125488 6.07498836517334 6.810768127441406 8.30386734008789 7.434165000915527"></path></svg>