<svg xmlns="http://www.w3.org/2000/svg" viewBox="0.0 0.0 24.0 24.0" height="200px" width="200px"><path fill="none" stroke="black" stroke-width=".3" stroke-opacity="1.0"  filling="0" d="M15.043871879577637 8.47033977508545 L15.043871879577637 8.47033977508545 C15.538118362426758 8.47033977508545 16.032363891601562 8.47033977508545 16.526611328125 8.47033977508545 L16.526611328125 8.47033977508545 C16.526611328125 10.260271072387695 16.526611328125 12.050200462341309 16.526611328125 13.840129852294922 C16.526611328125 15.630059242248535 16.526611328125 17.41998863220215 16.526611328125 19.209918975830078 L16.526611328125 19.209918975830078 C16.184022903442383 19.209918975830078 15.84143352508545 19.209918975830078 15.498844146728516 19.209918975830078 L15.498844146728516 19.209918975830078 C15.498844146728516 17.884729385375977 15.498844146728516 16.559539794921875 15.498844146728516 15.234350204467773 C15.498844146728516 13.909160614013672 15.498844146728516 12.58397102355957 15.498844146728516 11.258781433105469 L15.498844146728516 11.258781433105469 C15.384849548339844 11.247302055358887 15.270853996276855 11.235821723937988 15.156859397888184 11.224342346191406 L15.156859397888184 11.224342346191406 C14.667825698852539 12.992979049682617 14.182415008544922 14.76265811920166 13.687051773071289 16.529537200927734 C13.443933486938477 17.39670181274414 13.646451950073242 18.651235580444336 12.868064880371094 19.104219436645508 C12.566815376281738 19.279531478881836 12.171030044555664 19.094928741455078 11.82251262664795 19.09028434753418 L11.82251262664795 19.09028434753418 C11.447166442871094 17.7277774810791 11.071806907653809 16.365276336669922 10.69643783569336 15.002778053283691 C10.32106876373291 13.640279769897461 9.945690155029297 12.277783393859863 9.57030963897705 10.915287017822266 L9.57030963897705 10.915287017822266 C9.496294021606445 10.921530723571777 9.422277450561523 10.927774429321289 9.348261833190918 10.9340181350708 L9.348261833190918 10.9340181350708 C9.348261833190918 12.309206008911133 9.348261833190918 13.684394836425781 9.348261833190918 15.05958366394043 C9.348261833190918 16.434772491455078 9.348261833190918 17.809959411621094 9.348261833190918 19.18514633178711 L9.348261833190918 19.18514633178711 C8.968413352966309 19.18514633178711 8.5885648727417 19.18514633178711 8.20871639251709 19.18514633178711 L8.20871639251709 19.18514633178711 C8.20871639251709 17.407249450683594 8.20871639251709 15.629354476928711 8.20871639251709 13.851458549499512 C8.20871639251709 12.073562622070312 8.20871639251709 10.295665740966797 8.20871639251709 8.517770767211914 L8.20871639251709 8.517770767211914 C8.782013893127441 8.517770767211914 9.355310440063477 8.517770767211914 9.928607940673828 8.517770767211914 L9.928607940673828 8.517770767211914 C10.32797908782959 9.954238891601562 10.727359771728516 11.390706062316895 11.126745223999023 12.827171325683594 C11.526131629943848 14.263635635375977 11.925522804260254 15.70009994506836 12.324914932250977 17.13656234741211 L12.324914932250977 17.13656234741211 C12.405577659606934 17.142202377319336 12.486239433288574 17.14784049987793 12.566902160644531 17.153480529785156 L12.566902160644531 17.153480529785156 C12.979696273803711 15.706280708312988 13.392499923706055 14.25908374786377 13.80532455444336 12.81189250946045 C14.218148231506348 11.364701271057129 14.630992889404297 9.917515754699707 15.043871879577637 8.47033977508545 L15.043871879577637 8.47033977508545"></path></svg>