<svg xmlns="http://www.w3.org/2000/svg" viewBox="0.0 0.0 24.0 24.0" height="200px" width="200px"><path fill="none" stroke="black" stroke-width=".3" stroke-opacity="1.0"  filling="0" d="M16.412761688232422 8.69743824005127 L16.412761688232422 8.69743824005127 C15.288333892822266 10.481215476989746 14.163969039916992 12.265032768249512 13.039579391479492 14.048834800720215 L13.039579391479492 14.048834800720215 C14.229056358337402 15.860745429992676 15.418612480163574 17.672597885131836 16.608009338378906 19.484560012817383 L16.608009338378906 19.484560012817383 C14.11201286315918 18.703176498413086 13.857829093933105 17.190317153930664 12.170944213867188 15.406830787658691 L12.170944213867188 15.406830787658691 C10.612862586975098 17.169939041137695 10.226714134216309 18.271055221557617 7.984791278839111 19.170921325683594 L7.984791278839111 19.170921325683594 C9.116640090942383 17.473236083984375 10.248559951782227 15.775598526000977 11.380406379699707 14.077913284301758 L11.380406379699707 14.077913284301758 C10.325382232666016 12.362940788269043 9.270345687866211 10.647970199584961 8.215347290039062 8.932979583740234 L8.215347290039062 8.932979583740234 C10.474344253540039 8.566483497619629 11.032777786254883 11.009726524353027 12.08121395111084 12.72864055633545 L12.08121395111084 12.72864055633545 C13.836840629577637 11.079973220825195 13.953254699707031 9.448776245117188 16.412761688232422 8.69743824005127 L16.412761688232422 8.69743824005127"></path></svg>