<svg xmlns="http://www.w3.org/2000/svg" viewBox="0.0 0.0 24.0 24.0" height="200px" width="200px"><path fill="none" stroke="black" stroke-width=".3" stroke-opacity="1.0"  filling="0" d="M16.469463348388672 4.907299041748047 C17.907032012939453 4.907299041748047 19.515132904052734 4.907299041748047 21.38007354736328 4.907299041748047 C18.452423095703125 7.249002933502197 19.166269302368164 10.638339042663574 18.563684463500977 13.599783897399902 C18.135793685913086 15.703887939453125 18.192462921142578 17.903133392333984 17.95954132080078 20.05194854736328 C17.893512725830078 20.662330627441406 17.57012367248535 21.24463653564453 17.15627098083496 22.444604873657227 C13.72794246673584 17.74871826171875 10.660954475402832 13.547792434692383 7.1988301277160645 8.80615234375 C6.827609539031982 13.349184036254883 5.505461692810059 17.18564796447754 6.332129001617432 21.346019744873047 C5.174794673919678 21.42816925048828 3.6774349212646484 21.534751892089844 2.1805944442749023 21.641334533691406 C4.291456699371338 20.904611587524414 4.759901523590088 19.134815216064453 5.033377647399902 17.178890228271484 C5.3687238693237305 14.781553268432617 5.814812183380127 12.400335311889648 6.201109886169434 10.010279655456543 C6.684632778167725 7.018159866333008 6.662796497344971 6.9786458015441895 3.9082775115966797 5.31647253036499 C5.164916038513184 5.31647253036499 6.0872483253479 5.372103691101074 7.0002217292785645 5.302435398101807 C8.189790725708008 5.21196985244751 8.875560760498047 5.769320011138916 9.52961540222168 6.71660852432251 C11.250020027160645 9.207529067993164 13.074406623840332 11.627220153808594 14.881117820739746 14.057830810546875 C15.4717435836792 14.852263450622559 16.13307762145996 15.594184875488281 16.762176513671875 16.360021591186523 C16.947267532348633 16.30282974243164 17.131837844848633 16.245121002197266 17.316926956176758 16.187929153442383 C17.652273178100586 13.314350128173828 18.149831771850586 10.444931030273438 18.22365951538086 7.5645928382873535 C18.246017456054688 6.6968512535095215 17.090763092041016 5.798955917358398 16.469463348388672 4.907299041748047"></path></svg>