<svg xmlns="http://www.w3.org/2000/svg" viewBox="0.0 0.0 24.0 24.0" height="200px" width="200px"><path fill="none" stroke="black" stroke-width=".3" stroke-opacity="1.0"  filling="0" d="M18.709644317626953 4.922718048095703 C19.246084213256836 5.269125938415527 19.63443374633789 5.844918727874756 20.120128631591797 6.343559741973877 C19.203624725341797 7.694498538970947 18.24103546142578 7.645824909210205 17.128284454345703 7.038963794708252 C14.220322608947754 5.451908588409424 9.560129165649414 5.984207630157471 7.328413486480713 8.266666412353516 C6.801294326782227 8.805695533752441 6.658899307250977 9.720646858215332 6.339416980743408 10.462653160095215 C7.100582122802734 10.700840950012207 7.886083602905273 11.196893692016602 8.61825180053711 11.128026008605957 C10.584854125976562 10.94213581085205 12.518835067749023 10.419157981872559 14.484918594360352 10.214109420776367 C16.010873794555664 10.055145263671875 17.61708641052246 9.922070503234863 19.097476959228516 10.222393989562988 C22.267963409423828 10.865500450134277 23.341876983642578 13.646082878112793 21.443622589111328 16.294109344482422 C20.61721420288086 17.446731567382812 19.437152862548828 18.476116180419922 18.20012855529785 19.177734375 C15.129060745239258 20.920129776000977 11.710549354553223 21.60155487060547 8.22317123413086 21.231327056884766 C6.7785115242004395 21.07805633544922 5.316246032714844 20.28168487548828 4.054886341094971 19.475467681884766 C3.097475051879883 18.86394691467285 2.9291906356811523 17.62899398803711 3.9073143005371094 16.81656837463379 C4.836245536804199 16.045047760009766 5.710808753967285 16.565954208374023 6.236893177032471 17.526470184326172 C6.9167633056640625 18.767635345458984 8.057475090026855 19.08401107788086 9.300710678100586 19.04673194885254 C12.185371398925781 18.96077537536621 14.942652702331543 18.33475685119629 17.396503448486328 16.729578018188477 C17.892038345336914 16.405437469482422 18.49216651916504 16.0279598236084 18.70083999633789 15.53087329864502 C19.00893211364746 14.79663372039795 19.29837989807129 13.820581436157227 19.042587280273438 13.162458419799805 C18.85928726196289 12.691261291503906 17.747053146362305 12.29359245300293 17.088932037353516 12.346924781799316 C14.68893051147461 12.54265308380127 12.311714172363281 13.000387191772461 9.914302825927734 13.243234634399414 C8.47585678100586 13.388736724853516 6.968024730682373 13.562198638916016 5.5761799812316895 13.289319038391113 C3.474431037902832 12.877151489257812 2.7101612091064453 11.12077522277832 3.474949836730957 9.124658584594727 C3.5971508026123047 8.805694580078125 3.776826858520508 8.503299713134766 3.9637527465820312 8.21540355682373 C6.534109592437744 4.241293907165527 14.776439666748047 2.3834304809570312 18.709644317626953 4.922718048095703"></path></svg>