<svg xmlns="http://www.w3.org/2000/svg" viewBox="0.0 0.0 24.0 24.0" height="200px" width="200px"><path fill="none" stroke="black" stroke-width=".3" stroke-opacity="1.0"  filling="0" d="M14.784810066223145 5.599056243896484 C17.131677627563477 5.6134819984436035 17.518098831176758 6.2219672203063965 17.52840232849121 8.605931282043457 C17.544376373291016 12.121335983276367 17.538190841674805 15.636228561401367 17.541284561157227 19.15163230895996 C17.54128646850586 19.988367080688477 17.540769577026367 20.824581146240234 17.540769577026367 22.11832046508789 C18.807201385498047 21.183181762695312 19.600139617919922 20.597881317138672 20.860389709472656 19.667377471923828 C20.957252502441406 20.702987670898438 21.128307342529297 21.301170349121094 21.022686004638672 21.84627914428711 C20.953645706176758 22.200756072998047 20.537338256835938 22.583057403564453 20.180286407470703 22.769054412841797 C18.70621681213379 23.535715103149414 16.99308204650879 25.063369750976562 15.747258186340332 24.75835418701172 C13.920257568359375 24.311649322509766 14.793054580688477 21.980239868164062 14.714223861694336 20.44537353515625 C14.600873947143555 18.237102508544922 14.685371398925781 16.01801300048828 14.685371398925781 13.337793350219727 C13.872340202331543 14.10033130645752 13.43285083770752 14.56970500946045 12.93410873413086 14.965400695800781 C12.267918586730957 15.494540214538574 11.603272438049316 16.056140899658203 10.8551607131958 16.44565200805664 C8.359392166137695 17.745574951171875 5.747697353363037 17.605432510375977 4.358640193939209 16.179279327392578 C3.0633554458618164 14.84947395324707 2.953096389770508 11.469572067260742 4.53381872177124 9.454512596130371 C5.5405755043029785 8.17159366607666 6.986307621002197 6.931437969207764 8.490775108337402 6.415178298950195 C10.456888198852539 5.740228652954102 12.676492691040039 5.586174488067627 14.784810066223145 5.599056243896484"></path>
<path fill="none" stroke="black" stroke-width=".3" stroke-opacity="1.0"  filling="0" d="M14.64879035949707 7.688823223114014 C13.855854034423828 10.874998092651367 12.399816513061523 12.967342376708984 10.099836349487305 14.469234466552734 C9.13532829284668 15.098843574523926 7.888988971710205 15.676414489746094 7.076473712921143 14.699026107788086 C6.480869293212891 13.982858657836914 6.216041564941406 12.622138977050781 6.420072078704834 11.68236255645752 C6.986308574676514 9.072213172912598 9.128629684448242 8.120585441589355 11.51362419128418 7.713554382324219 C12.404455184936523 7.5615620613098145 13.34268569946289 7.688823223114014 14.64879035949707 7.688823223114014"></path></svg>