<svg xmlns="http://www.w3.org/2000/svg" viewBox="0.0 0.0 24.0 24.0" height="200px" width="200px"><path fill="none" stroke="black" stroke-width=".3" stroke-opacity="1.0"  filling="0" d="M7.589779376983643 5.537981986999512 C8.490948677062988 5.525508880615234 9.106799125671387 5.856561183929443 9.133304595947266 6.859592914581299 C9.146817207336426 7.357470989227295 9.135383605957031 7.856388568878174 9.135383605957031 8.540840148925781 C10.244955062866211 7.782070159912109 11.15651798248291 6.943785190582275 12.229710578918457 6.483326435089111 C13.39540958404541 5.983369827270508 14.702468872070312 5.635166645050049 15.96483325958252 5.572282314300537 C19.198440551757812 5.4111738204956055 20.937374114990234 7.69372034072876 20.112083435058594 10.806755065917969 C18.972370147705078 15.108878135681152 14.25448226928711 17.918407440185547 9.157211303710938 17.21108627319336 C9.157211303710938 19.606929779052734 9.157211303710938 21.98666000366211 9.157211303710938 24.737979888916016 C7.990991592407227 24.737979888916016 7.115807056427002 24.737979888916016 6.036898612976074 24.737979888916016 C6.036898612976074 18.7145938873291 6.040017127990723 12.939107894897461 6.034300327301025 7.163618564605713 C6.033261299133301 6.108618259429932 6.52178430557251 5.553053379058838 7.589779376983643 5.537981986999512"></path>
<path fill="none" stroke="black" stroke-width=".3" stroke-opacity="1.0"  filling="0" d="M14.187440872192383 8.032567977905273 C14.847467422485352 7.660978317260742 16.33330535888672 7.9722819328308105 16.931486129760742 8.525248527526855 C17.404417037963867 8.962320327758789 17.40130043029785 10.376439094543457 17.07804298400879 11.127933502197266 C16.005889892578125 13.623040199279785 13.831441879272461 14.787179946899414 10.932004928588867 15.358856201171875 C10.500129699707031 15.120311737060547 9.48878288269043 14.899436950683594 9.293375015258789 14.374013900756836 C8.999740600585938 13.584061622619629 8.907752990722656 12.216196060180664 9.380684852600098 11.738067626953125 C10.797402381896973 10.306279182434082 12.434993743896484 9.01896858215332 14.187440872192383 8.032567977905273"></path></svg>