<svg xmlns="http://www.w3.org/2000/svg" viewBox="0.0 0.0 24.0 24.0" height="200px" width="200px"><path fill="none" stroke="black" stroke-width=".3" stroke-opacity="1.0"  filling="0" d="M16.67882537841797 10.014326095581055 L16.67882537841797 10.014326095581055 C16.989782333374023 10.154413223266602 17.530826568603516 10.10325813293457 17.611696243286133 10.434586524963379 C17.723115921020508 10.89107894897461 17.393686294555664 11.380407333374023 17.102216720581055 11.748978614807129 C16.336078643798828 12.717777252197266 15.28383731842041 13.536873817443848 14.201810836791992 14.335151672363281 C13.119783401489258 15.133429527282715 12.007972717285156 15.910888671875 11.122695922851562 16.79641342163086 L11.122695922851562 16.79641342163086 C11.279949188232422 16.80611228942871 14.677448272705078 17.025814056396484 14.847304344177246 16.996036529541016 C15.482056617736816 16.88475799560547 16.00640869140625 16.389698028564453 16.640087127685547 16.2724552154541 C16.965452194213867 16.212257385253906 17.445632934570312 16.19761085510254 17.609739303588867 16.484933853149414 C18.31071662902832 17.712223052978516 17.700193405151367 18.588939666748047 16.520347595214844 18.829238891601562 C16.301788330078125 18.87375259399414 12.992053031921387 18.658313751220703 12.776986122131348 18.6472110748291 C10.91701889038086 18.551198959350586 9.13134765625 18.625551223754883 7.275391578674316 18.758804321289062 L7.275391578674316 18.758804321289062 C7.670588970184326 17.33771324157715 8.740667343139648 16.164377212524414 9.984657287597656 15.100285530090332 C11.228646278381348 14.03619384765625 12.646547317504883 13.081347465515137 13.737391471862793 12.097238540649414 L13.737391471862793 12.097238540649414 C13.616011619567871 12.087528228759766 10.47309398651123 11.82776927947998 10.343304634094238 11.85051441192627 C9.499794006347656 11.998339653015137 8.439679145812988 13.203558921813965 7.494913101196289 12.206412315368652 C6.908799648284912 11.58780288696289 7.595678329467773 10.638322830200195 8.144477844238281 10.434977531433105 C8.307753562927246 10.374479293823242 11.390016555786133 10.238287925720215 11.439908981323242 10.235865592956543 C13.186046600341797 10.151087760925293 14.931695938110352 10.075370788574219 16.67882537841797 10.014326095581055 L16.67882537841797 10.014326095581055"></path></svg>