<svg xmlns="http://www.w3.org/2000/svg" viewBox="0.0 0.0 24.0 24.0" height="200px" width="200px"><path fill="none" stroke="black" stroke-width=".3" stroke-opacity="1.0"  filling="0" d="M15.467941284179688 7.168008327484131 L15.467941284179688 7.168008327484131 C18.099586486816406 7.475401878356934 17.494407653808594 9.186792373657227 15.84692096710205 10.471028327941895 L15.84692096710205 10.471028327941895 C16.459308624267578 11.78150749206543 17.777429580688477 10.10714054107666 18.224910736083984 12.084916114807129 C18.500598907470703 13.303400039672852 17.654460906982422 14.136837005615234 16.8441219329834 14.80626106262207 C15.8334321975708 15.641195297241211 14.13847827911377 16.520456314086914 12.372030258178711 17.061809539794922 C10.605583190917969 17.603160858154297 8.7676420211792 17.806602478027344 7.470977783203125 17.289897918701172 L7.470977783203125 17.289897918701172 C7.86181640625 15.012022972106934 8.263553619384766 12.735837936401367 8.638574600219727 10.455282211303711 C8.671775817871094 10.25338363647461 8.94038200378418 7.893300533294678 9.349752426147461 7.584916591644287 C9.664545059204102 7.347779273986816 10.137605667114258 7.558976650238037 10.531683921813965 7.553437232971191 C12.191397666931152 7.530107498168945 13.813508033752441 7.315187454223633 15.467941284179688 7.168008327484131 L15.467941284179688 7.168008327484131"></path>
<path fill="none" stroke="black" stroke-width=".3" stroke-opacity="1.0"  filling="0" d="M14.217061996459961 8.427486419677734 L14.217061996459961 8.427486419677734 C14.834977149963379 8.537433624267578 15.45289134979248 8.647380828857422 16.0708065032959 8.757328033447266 L16.0708065032959 8.757328033447266 C14.250333786010742 10.183845520019531 12.713995933532715 10.60811996459961 10.4536771774292 10.945521354675293 L10.4536771774292 10.945521354675293 C10.447087287902832 10.44970989227295 10.179054260253906 9.883437156677246 10.433906555175781 9.458086967468262 C10.917080879211426 8.651666641235352 13.42225170135498 8.541279792785645 14.217061996459961 8.427486419677734 L14.217061996459961 8.427486419677734"></path>
<path fill="none" stroke="black" stroke-width=".3" stroke-opacity="1.0"  filling="0" d="M13.006722450256348 11.888978004455566 L13.006722450256348 11.888978004455566 C13.91109848022461 11.822831153869629 17.690231323242188 11.458942413330078 16.193038940429688 13.520679473876953 C15.926145553588867 13.88821029663086 15.535005569458008 14.15485668182373 15.154376983642578 14.402713775634766 C13.436369895935059 15.521442413330078 11.361766815185547 15.82119369506836 9.376932144165039 16.039941787719727 L9.376932144165039 16.039941787719727 C9.782358169555664 12.765592575073242 9.724609375 12.418815612792969 13.006722450256348 11.888978004455566 L13.006722450256348 11.888978004455566"></path></svg>