<svg xmlns="http://www.w3.org/2000/svg" viewBox="0.0 0.0 24.0 24.0" height="200px" width="200px"><path fill="none" stroke="black" stroke-width=".3" stroke-opacity="1.0"  filling="0" d="M17.720197677612305 4.207981109619141 C19.4763126373291 3.9785308837890625 21.404937744140625 3.930047035217285 22.443950653076172 5.845705986022949 C23.145832061767578 7.140100955963135 22.080888748168945 9.285774230957031 20.04684066772461 10.823149681091309 C17.219017028808594 12.960931777954102 13.914815902709961 14.0044527053833 10.522102355957031 14.810066223144531 C9.617266654968262 15.024858474731445 8.7017183303833 15.191732406616211 7.662707328796387 15.407089233398438 C7.328960418701172 17.419713973999023 7.008744239807129 19.345521926879883 6.597198963165283 21.82324981689453 C5.698000431060791 21.901050567626953 4.764976501464844 21.981666564941406 3.460434913635254 22.094982147216797 C4.014610767364502 19.135238647460938 4.556385040283203 16.611845016479492 4.938614368438721 14.064210891723633 C5.169193267822266 12.527962684631348 4.9921722412109375 10.922935485839844 5.291529178619385 9.406983375549316 C5.589194297790527 7.900614261627197 6.087559223175049 6.37846040725708 6.80748176574707 5.028253078460693 C7.435511112213135 3.8499927520751953 8.53033447265625 4.173027515411377 9.726634979248047 5.684470176696777 C12.411263465881348 5.174831390380859 15.04853630065918 4.556948661804199 17.720197677612305 4.207981109619141"></path>
<path fill="none" stroke="black" stroke-width=".3" stroke-opacity="1.0"  filling="0" d="M19.125091552734375 7.082596778869629 C18.769920349121094 10.061509132385254 13.173468589782715 12.754030227661133 8.255783081054688 12.393223762512207 C8.419837951660156 11.311929702758789 8.583328247070312 10.236838340759277 8.7755708694458 8.968377113342285 C12.012121200561523 7.349819660186768 15.381155014038086 6.348016738891602 19.125091552734375 7.082596778869629"></path></svg>