<svg xmlns="http://www.w3.org/2000/svg" viewBox="0.0 0.0 24.0 24.0" height="200px" width="200px"><path fill="none" stroke="black" stroke-width=".3" stroke-opacity="1.0"  filling="0" d="M5.185478210449219 3.9882240295410156 C11.071704864501953 3.9882240295410156 16.740032196044922 3.9882240295410156 22.743820190429688 3.9882240295410156 C22.134653091430664 5.514106750488281 21.614547729492188 6.816153526306152 20.943634033203125 8.497593879699707 C20.468055725097656 7.2412638664245605 20.353466033935547 5.899437427520752 19.801300048828125 5.685694694519043 C18.493907928466797 5.179243564605713 16.97871208190918 5.207743167877197 15.075812339782715 4.958376884460449 C14.247560501098633 10.668859481811523 13.463838577270508 16.07179069519043 12.665867805480957 21.570907592773438 C13.62889575958252 22.038171768188477 14.378774642944336 22.402130126953125 15.128652572631836 22.765491485595703 C15.098372459411621 22.906795501708984 15.068686485290527 23.047510147094727 15.039000511169434 23.188819885253906 C12.118448257446289 22.967355728149414 9.197896957397461 22.74589729309082 6.277346134185791 22.524436950683594 C9.327330589294434 21.60059356689453 9.495355606079102 19.033905029296875 9.873560905456543 16.520057678222656 C10.424541473388672 12.85496997833252 11.092486381530762 9.207694053649902 11.70580768585205 5.579418182373047 C7.593641757965088 4.764227867126465 6.992195129394531 4.982719898223877 3.866212844848633 7.92464542388916 C4.3085408210754395 6.6047868728637695 4.750868797302246 5.285521507263184 5.185478210449219 3.9882240295410156"></path></svg>