<svg xmlns="http://www.w3.org/2000/svg" viewBox="0.0 0.0 24.0 24.0" height="200px" width="200px"><path fill="none" stroke="black" stroke-width=".3" stroke-opacity="1.0"  filling="0" d="M7.323873043060303 3.5567150115966797 C8.10583782196045 2.3288087844848633 9.1771240234375 2.9541521072387695 9.949975967407227 4.9047932624816895 C12.675178527832031 4.450878143310547 15.346842765808105 3.860844612121582 18.050403594970703 3.609111785888672 C19.717418670654297 3.45419979095459 21.727291107177734 3.565258026123047 22.266067504882812 5.627526760101318 C22.749597549438477 7.479069232940674 21.598575592041016 9.045846939086914 20.05571937561035 9.844327926635742 C17.901756286621094 10.959466934204102 15.550166130065918 11.699856758117676 13.264642715454102 12.549595832824707 C12.687138557434082 12.76430892944336 12.037874221801758 12.786520004272461 11.225725173950195 13.44831371307373 C14.770480155944824 15.625627517700195 18.315235137939453 17.802940368652344 22.26891326904297 20.23141860961914 C21.996105194091797 20.70526885986328 21.739818572998047 21.641002655029297 21.132129669189453 22.035120010375977 C20.727764129638672 22.297103881835938 19.721973419189453 21.946273803710938 19.156429290771484 21.594303131103516 C15.48182201385498 19.307640075683594 11.853915214538574 16.945798873901367 7.932700157165527 14.430184364318848 C7.623445510864258 16.29026985168457 7.350071430206299 17.75908660888672 7.139914035797119 19.237018585205078 C6.836355686187744 21.37674331665039 6.648979663848877 21.543045043945312 3.6931190490722656 21.536211013793945 C4.233032703399658 18.64072036743164 4.8076887130737305 16.006072998046875 5.189274311065674 13.34351921081543 C5.42392110824585 11.703843116760254 5.155102252960205 9.978166580200195 5.491125583648682 8.370383262634277 C5.840816974639893 6.701091289520264 6.416612148284912 4.980541229248047 7.323873043060303 3.5567150115966797"></path>
<path fill="none" stroke="black" stroke-width=".3" stroke-opacity="1.0"  filling="0" d="M19.59952735900879 6.530802249908447 C16.73194122314453 10.55851936340332 12.56184196472168 10.288561820983887 8.510204315185547 11.515898704528809 C8.757380485534668 9.987279891967773 8.919126510620117 8.987754821777344 9.108781814575195 7.817370414733887 C12.357381820678711 6.635026454925537 15.54675006866455 5.4242048263549805 19.59952735900879 6.530802249908447"></path></svg>