<svg xmlns="http://www.w3.org/2000/svg" viewBox="0.0 0.0 24.0 24.0" height="200px" width="200px"><path fill="none" stroke="black" stroke-width=".3" stroke-opacity="1.0"  filling="0" d="M18.190113067626953 7.7142252922058105 C19.135513305664062 7.799838542938232 20.282142639160156 7.941063404083252 20.928264617919922 8.515475273132324 C21.843666076660156 9.3284330368042 22.906147003173828 10.555553436279297 22.930294036865234 11.627545356750488 C22.952980041503906 12.660754203796387 21.963672637939453 14.278621673583984 21.020465850830078 14.662782669067383 C18.34963035583496 15.751604080200195 15.486351013183594 16.388946533203125 12.675024032592773 17.10824203491211 C11.159601211547852 17.496061325073242 9.593688011169434 17.688507080078125 8.138266563415527 17.95266342163086 C7.319454669952393 21.222787857055664 8.041677474975586 22.336488723754883 10.96130084991455 22.098674774169922 C13.632134437561035 21.880619049072266 16.202720642089844 21.245471954345703 18.198894500732422 19.1453914642334 C18.855993270874023 18.453903198242188 19.895055770874023 18.125354766845703 20.759235382080078 17.631431579589844 C21.109737396240234 17.95339584350586 21.461700439453125 18.275362014770508 21.81439971923828 18.59805679321289 C21.247303009033203 19.625411987304688 20.91582679748535 20.941804885864258 20.07213592529297 21.630367279052734 C16.292724609375 24.712434768676758 11.863530158996582 25.746376037597656 7.088958263397217 24.907808303833008 C4.609107971191406 24.472427368164062 3.6527299880981445 22.995052337646484 3.7346839904785156 20.472759246826172 C3.9483509063720703 13.867386817932129 11.564249992370605 7.114935398101807 18.190113067626953 7.7142252922058105"></path>
<path fill="none" stroke="black" stroke-width=".3" stroke-opacity="1.0"  filling="0" d="M19.367473602294922 12.218057632446289 C16.455169677734375 9.523076057434082 12.887960433959961 10.507991790771484 10.12858772277832 14.72864055633545 C13.357734680175781 14.037881851196289 16.592735290527344 14.247159004211426 19.367473602294922 12.218057632446289"></path></svg>