<svg xmlns="http://www.w3.org/2000/svg" viewBox="0.0 0.0 24.0 24.0" height="200px" width="200px"><path fill="none" stroke="black" stroke-width=".3" stroke-opacity="1.0"  filling="0" d="M13.643614768981934 5.816140651702881 C14.751218795776367 10.652364730834961 15.851602554321289 15.459712028503418 16.952503204345703 20.267059326171875 C17.04428482055664 20.273761749267578 17.136072158813477 20.280982971191406 17.228370666503906 20.28768539428711 C18.1812801361084 15.582435607910156 19.135223388671875 10.877185821533203 20.134540557861328 5.9502081871032715 C20.810035705566406 5.9502081871032715 21.296287536621094 5.9502081871032715 21.8294620513916 5.9502081871032715 C21.882572174072266 6.282798767089844 21.996530532836914 6.5375261306762695 21.94754409790039 6.7566752433776855 C20.76104736328125 12.11112117767334 19.534330368041992 17.457317352294922 18.37310218811035 22.81743621826172 C18.10651206970215 24.04827880859375 17.638824462890625 24.722740173339844 16.049610137939453 24.13851547241211 C14.934786796569824 19.295589447021484 13.78644847869873 14.309826850891113 12.638625144958496 9.324066162109375 C12.50197982788086 9.30189323425293 12.365333557128906 9.2797212600708 12.22868824005127 9.257548332214355 C11.070035934448242 14.23763656616211 9.910868644714355 19.21772575378418 8.73623275756836 24.266395568847656 C8.023097038269043 24.266395568847656 7.449184894561768 24.266395568847656 6.688610553741455 24.266395568847656 C5.384031772613525 18.25398826599121 4.080483913421631 12.243127822875977 2.759404182434082 6.155434608459473 C4.071717739105225 5.624321460723877 4.764227390289307 5.751684665679932 5.013798236846924 7.218691825866699 C5.632055759429932 10.852434158325195 6.357050895690918 14.467613220214844 7.050076007843018 18.088464736938477 C7.209410190582275 18.92123031616211 7.41257381439209 19.745744705200195 7.714741230010986 21.11426544189453 C8.966208457946777 15.730425834655762 10.091859817504883 10.885950088500977 11.241744995117188 5.939894676208496 C12.021398544311523 5.899674415588379 12.684516906738281 5.865642070770264 13.643614768981934 5.816140651702881"></path></svg>