<svg xmlns="http://www.w3.org/2000/svg" viewBox="0.0 0.0 24.0 24.0" height="200px" width="200px"><path fill="none" stroke="black" stroke-width=".3" stroke-opacity="1.0"  filling="0" d="M16.062213897705078 8.34496784210205 L16.062213897705078 8.34496784210205 C15.547739028930664 10.494710922241211 14.709400177001953 12.567241668701172 13.97629451751709 14.651355743408203 C13.317021369934082 16.52557373046875 13.171650886535645 17.816164016723633 11.543962478637695 19.01053237915039 L11.543962478637695 19.01053237915039 C11.199729919433594 17.699552536010742 12.110570907592773 16.897045135498047 11.670661926269531 15.36795425415039 C10.997444152832031 13.027898788452148 9.777376174926758 10.7210693359375 8.866032600402832 8.461545944213867 L8.866032600402832 8.461545944213867 C9.220610618591309 8.456814765930176 9.612141609191895 8.28967571258545 9.929766654968262 8.44735336303711 C10.66340446472168 8.81155014038086 10.636289596557617 9.927974700927734 10.917876243591309 10.697112083435059 C11.486612319946289 12.250584602355957 12.057044982910156 13.803431510925293 12.626860618591309 15.356510162353516 L12.626860618591309 15.356510162353516 C13.29270076751709 13.58590316772461 13.95517635345459 11.813936233520508 14.633208274841309 10.047945022583008 C14.898816108703613 9.356146812438965 15.3212308883667 8.35368537902832 16.062213897705078 8.34496784210205 L16.062213897705078 8.34496784210205"></path></svg>