<svg xmlns="http://www.w3.org/2000/svg" viewBox="0.0 0.0 24.0 24.0" height="200px" width="200px"><path fill="none" stroke="black" stroke-width=".3" stroke-opacity="1.0"  filling="0" d="M12.314898490905762 7.382237434387207 L12.314898490905762 7.382237434387207 C14.338385581970215 7.377540111541748 16.341705322265625 7.352936267852783 18.358840942382812 7.525937080383301 L18.358840942382812 7.525937080383301 C17.544002532958984 8.98027229309082 16.59525489807129 9.663492202758789 15.414281845092773 10.81289291381836 L15.414281845092773 10.81289291381836 C15.969273567199707 10.893511772155762 16.58173370361328 10.79593276977539 17.07925796508789 11.054749488830566 C19.019699096679688 12.06418514251709 18.198646545410156 14.31825065612793 17.111328125 15.554961204528809 C15.972777366638184 16.849943161010742 13.999173164367676 17.47916603088379 12.365224838256836 17.74895477294922 C11.04513931274414 17.966920852661133 8.805583000183105 18.153179168701172 7.871592044830322 16.842649459838867 C6.676460266113281 15.165699005126953 8.17496109008789 14.547571182250977 9.459356307983398 14.545570373535156 L9.459356307983398 14.545570373535156 C9.402767181396484 14.981224060058594 9.346177101135254 15.416878700256348 9.28958797454834 15.852532386779785 L9.28958797454834 15.852532386779785 C11.236315727233887 16.464754104614258 13.01872444152832 16.72097396850586 14.899632453918457 15.597702026367188 C15.602069854736328 15.178208351135254 16.971548080444336 13.93600082397461 16.328298568725586 12.82054615020752 C15.47990894317627 11.349359512329102 12.405353546142578 12.78525161743164 11.405970573425293 13.098089218139648 L11.405970573425293 13.098089218139648 C11.999728202819824 10.891170501708984 13.635475158691406 10.39911937713623 15.496941566467285 9.1873779296875 L15.496941566467285 9.1873779296875 C15.456459999084473 9.033186912536621 15.41597843170166 8.878996849060059 15.375496864318848 8.72480583190918 L15.375496864318848 8.72480583190918 C13.903639793395996 8.72480583190918 12.431787490844727 8.72480583190918 10.959930419921875 8.72480583190918 L10.959930419921875 8.72480583190918 C10.705065727233887 9.252934455871582 10.662406921386719 9.954618453979492 10.195337295532227 10.309191703796387 C9.880162239074707 10.548455238342285 9.407112121582031 10.238269805908203 9.012999534606934 10.202808380126953 L9.012999534606934 10.202808380126953 C8.292028427124023 7.484380722045898 10.614130973815918 7.416399955749512 12.314898490905762 7.382237434387207 L12.314898490905762 7.382237434387207"></path></svg>