<svg xmlns="http://www.w3.org/2000/svg" viewBox="0.0 0.0 24.0 24.0" height="200px" width="200px"><path fill="none" stroke="black" stroke-width=".3" stroke-opacity="1.0"  filling="0" d="M19.519607543945312 3.7935256958007812 C20.10891342163086 4.226174831390381 20.650718688964844 5.130495548248291 20.656936645507812 5.823864936828613 C20.66202735900879 6.398468017578125 19.847064971923828 6.979857444763184 19.349376678466797 7.616671562194824 C16.854717254638672 4.752705097198486 15.329983711242676 4.669003009796143 12.873215675354004 7.107107639312744 C10.673209190368652 9.290146827697754 9.391098976135254 12.001978874206543 8.922819137573242 15.040136337280273 C8.662664413452148 16.726055145263672 8.62420654296875 18.599170684814453 10.459996223449707 19.494441986083984 C12.20925521850586 20.34729766845703 13.715890884399414 19.276702880859375 15.072090148925781 18.2592716217041 C15.573736190795898 17.883174896240234 15.803918838500977 17.151914596557617 16.295949935913086 16.752634048461914 C16.786285400390625 16.35448455810547 17.44968032836914 16.168981552124023 18.037290573120117 15.890164375305176 C18.209218978881836 16.037208557128906 18.380582809448242 16.184253692626953 18.55251121520996 16.331296920776367 C18.4032039642334 16.990734100341797 18.454105377197266 17.814746856689453 18.070659637451172 18.282459259033203 C16.143251419067383 20.632904052734375 13.623140335083008 22.031518936157227 10.561230659484863 22.150283813476562 C8.469245910644531 22.23172378540039 6.872120380401611 21.012954711914062 6.57407283782959 18.928319931030273 C6.326925754547119 17.199987411499023 6.285640239715576 15.324609756469727 6.691708087921143 13.64434814453125 C7.5926361083984375 9.913387298583984 9.5211763381958 6.692556381225586 12.665091514587402 4.360210418701172 C14.850393295288086 2.7393321990966797 17.727367401123047 2.478046417236328 19.519607543945312 3.7935256958007812"></path></svg>