<svg xmlns="http://www.w3.org/2000/svg" viewBox="0.0 0.0 24.0 24.0" height="200px" width="200px"><path fill="none" stroke="black" stroke-width=".3" stroke-opacity="1.0"  filling="0" d="M20.943344116210938 3.040472984313965 C21.07848358154297 3.2715654373168945 21.2136173248291 3.502657890319824 21.34818458557129 3.733182907104492 C20.77471160888672 4.593961238861084 20.302303314208984 5.547857761383057 19.61016082763672 6.299050807952881 C16.222692489624023 9.978364944458008 12.774473190307617 13.601468086242676 9.352937698364258 17.248985290527344 C8.79195499420166 17.846874237060547 8.255388259887695 18.468042373657227 7.817618370056152 19.332225799560547 C11.043264389038086 18.97110939025879 14.518171310424805 20.828369140625 17.11867332458496 17.564678192138672 C18.565418243408203 19.935222625732422 18.052698135375977 21.506317138671875 15.963778495788574 21.676654815673828 C12.775038719177246 21.936702728271484 9.577783584594727 22.104202270507812 6.3810954093933105 22.22854995727539 C5.610598087310791 22.259780883789062 4.827609062194824 21.966796875 4.129220485687256 21.83677101135254 C3.8356704711914062 19.82620620727539 5.024633884429932 18.891048431396484 5.950139999389648 17.880939483642578 C9.13774299621582 14.402626037597656 12.377584457397461 10.972574234008789 15.590169906616211 7.517538547515869 C16.15228843688965 6.91283655166626 16.67976951599121 6.276338577270508 17.555877685546875 5.274178981781006 C14.06563949584961 5.367866516113281 11.051214218139648 5.160053253173828 8.389389038085938 7.143929958343506 C7.679644584655762 4.02786922454834 8.488753318786621 3.1483535766601562 11.198840141296387 3.2630481719970703 C13.546106338500977 3.362412452697754 15.907567024230957 3.118828773498535 18.263351440429688 3.045015335083008 C19.155925750732422 3.0171937942504883 20.050203323364258 3.040472984313965 20.943344116210938 3.040472984313965"></path></svg>