<svg xmlns="http://www.w3.org/2000/svg" viewBox="0.0 0.0 24.0 24.0" height="200px" width="200px"><path fill="none" stroke="black" stroke-width=".3" stroke-opacity="1.0"  filling="0" d="M14.65378189086914 9.319839477539062 L14.65378189086914 9.319839477539062 C16.97223472595215 9.781232833862305 17.83849334716797 11.243536949157715 17.355812072753906 13.668787002563477 C17.065702438354492 15.126452445983887 16.265945434570312 16.622392654418945 15.157320976257324 17.806861877441406 C14.048697471618652 18.991329193115234 12.631208419799805 19.86432647705078 11.105635643005371 20.07610321044922 C9.459024429321289 20.3046817779541 8.539177894592285 19.556777954101562 8.141765594482422 18.45795249938965 C7.744353294372559 17.359127044677734 7.869376182556152 15.909378051757812 8.312505722045898 14.73426342010498 C8.860647201538086 13.28067398071289 9.702997207641602 12.082513809204102 10.77979564666748 11.170028686523438 C11.856595039367676 10.257542610168457 13.167842864990234 9.630731582641602 14.65378189086914 9.319839477539062 L14.65378189086914 9.319839477539062"></path>
<path fill="none" stroke="black" stroke-width=".3" stroke-opacity="1.0"  filling="0" d="M14.678581237792969 11.395340919494629 L14.678581237792969 11.395340919494629 C14.925826072692871 11.89373779296875 15.173069953918457 12.392134666442871 15.42031478881836 12.890531539916992 L15.42031478881836 12.890531539916992 C15.268277168273926 13.580761909484863 15.20775318145752 14.297734260559082 14.964202880859375 14.961222648620605 C14.47737979888916 16.28744125366211 12.303892135620117 19.101531982421875 10.4788818359375 17.95100212097168 C9.261414527893066 17.183483123779297 10.32233715057373 15.289290428161621 10.72774600982666 14.549833297729492 C11.754401206970215 12.677238464355469 12.43807315826416 11.366705894470215 14.678581237792969 11.395340919494629 L14.678581237792969 11.395340919494629"></path></svg>