<svg xmlns="http://www.w3.org/2000/svg" viewBox="0.0 0.0 24.0 24.0" height="200px" width="200px"><path fill="none" stroke="black" stroke-width=".3" stroke-opacity="1.0"  filling="0" d="M14.223636627197266 10.939300537109375 L14.223636627197266 10.939300537109375 C16.238994598388672 10.857319831848145 16.24873924255371 11.276891708374023 16.16143035888672 13.241178512573242 L16.16143035888672 13.241178512573242 C15.0938720703125 12.90279483795166 14.0263032913208 12.56443977355957 12.958724975585938 12.226119041442871 L12.958724975585938 12.226119041442871 C12.569172859191895 12.987138748168945 11.956456184387207 14.440714836120605 11.702374458312988 15.873330116271973 C11.448293685913086 17.305946350097656 11.552846908569336 18.717601776123047 12.597833633422852 19.394779205322266 C13.067461013793945 19.69911003112793 15.213587760925293 19.531299591064453 15.69980239868164 19.511489868164062 L15.69980239868164 19.511489868164062 C14.535348892211914 20.319412231445312 13.036112785339355 21.701993942260742 11.485651016235352 21.600069046020508 C9.65082836151123 21.479450225830078 9.207005500793457 19.149845123291016 9.258447647094727 17.746822357177734 C9.317606925964355 16.13333511352539 9.868982315063477 14.754905700683594 10.750528335571289 13.618124008178711 C11.632075309753418 12.481341361999512 12.843792915344238 11.586204528808594 14.223636627197266 10.939300537109375 L14.223636627197266 10.939300537109375"></path></svg>