<svg xmlns="http://www.w3.org/2000/svg" viewBox="0.0 0.0 24.0 24.0" height="200px" width="200px"><path fill="none" stroke="black" stroke-width=".3" stroke-opacity="1.0"  filling="0" d="M21.247417449951172 8.019471168518066 C21.012924194335938 9.955945014953613 20.812889099121094 11.989913940429688 20.511154174804688 14.008755683898926 C20.03544044494629 17.185781478881836 19.599227905273438 20.376258850097656 18.905832290649414 23.507057189941406 C18.710840225219727 24.385360717773438 17.799755096435547 25.462860107421875 16.981124877929688 25.733497619628906 C16.307897567749023 25.95622444152832 15.285029411315918 25.118263244628906 13.832674026489258 24.503028869628906 C13.040098190307617 24.901416778564453 11.532270431518555 25.885623931884766 9.880721092224121 26.43865966796875 C7.188652992248535 27.340499877929688 5.12694787979126 25.98984146118164 5.406828880310059 23.286006927490234 C5.894309043884277 18.569217681884766 6.668394088745117 13.868392944335938 7.624864101409912 9.222201347351074 C7.993835926055908 7.4286112785339355 9.526037216186523 6.954578876495361 11.470074653625488 8.257328033447266 C10.65396499633789 13.090106964111328 9.877359390258789 17.690914154052734 9.083943367004395 22.387535095214844 C13.371248245239258 22.253055572509766 15.674171447753906 20.517457962036133 16.383541107177734 17.070636749267578 C16.889511108398438 14.612222671508789 17.188724517822266 12.110943794250488 17.567781448364258 9.626474380493164 C17.877079010009766 7.598388671875 18.977270126342773 7.073927402496338 21.247417449951172 8.019471168518066"></path></svg>