<svg xmlns="http://www.w3.org/2000/svg" viewBox="0.0 0.0 24.0 24.0" height="200px" width="200px"><path fill="none" stroke="black" stroke-width=".3" stroke-opacity="1.0"  filling="0" d="M15.827692985534668 6.9796366691589355 L15.827692985534668 6.9796366691589355 C15.963364601135254 7.052419662475586 16.099035263061523 7.125202178955078 16.23470687866211 7.1979851722717285 L16.23470687866211 7.1979851722717285 C15.977316856384277 8.43118953704834 15.721312522888184 9.66594409942627 15.480308532714844 10.90353775024414 C15.23930549621582 12.141130447387695 15.01330280303955 13.381561279296875 14.815917015075684 14.626118659973145 C14.5211763381958 16.484521865844727 14.872944831848145 17.62786865234375 12.844697952270508 17.683324813842773 L12.844697952270508 17.683324813842773 C13.109176635742188 16.22513198852539 13.37368392944336 14.76694393157959 13.638212203979492 13.308759689331055 C13.902739524841309 11.850576400756836 14.16728687286377 10.39239501953125 14.431846618652344 8.93421745300293 L14.431846618652344 8.93421745300293 C13.146623611450195 9.68143081665039 11.861337661743164 10.428535461425781 10.576117515563965 11.175751686096191 L10.576117515563965 11.175751686096191 C10.658905029296875 10.686612129211426 10.51720142364502 10.097806930541992 10.824481010437012 9.708332061767578 C11.705366134643555 8.591814994812012 14.571017265319824 7.643619060516357 15.827692985534668 6.9796366691589355 L15.827692985534668 6.9796366691589355"></path></svg>