<svg xmlns="http://www.w3.org/2000/svg" viewBox="0.0 0.0 24.0 24.0" height="200px" width="200px"><path fill="none" stroke="black" stroke-width=".3" stroke-opacity="1.0"  filling="0" d="M15.16268539428711 7.070706844329834 L15.16268539428711 7.070706844329834 C14.953734397888184 8.557432174682617 14.74480152130127 10.044158935546875 14.535888671875 11.530889511108398 C14.326976776123047 13.017620086669922 14.118085861206055 14.504352569580078 13.909218788146973 15.9910888671875 L13.909218788146973 15.9910888671875 C14.291266441345215 15.9910888671875 14.673315048217773 15.9910888671875 15.055362701416016 15.9910888671875 L15.055362701416016 15.9910888671875 C14.796048164367676 16.221298217773438 13.25667953491211 17.58803367614746 12.938350677490234 17.870704650878906 L12.938350677490234 17.870704650878906 C12.844928741455078 17.81733512878418 12.751506805419922 17.76396369934082 12.658084869384766 17.710594177246094 L12.658084869384766 17.710594177246094 C12.658084869384766 16.899059295654297 12.658084869384766 16.087522506713867 12.658084869384766 15.27598762512207 L12.658084869384766 15.27598762512207 C11.902059555053711 16.08111000061035 11.146032333374023 16.886228561401367 10.390003204345703 17.691347122192383 L10.390003204345703 17.691347122192383 C10.030217170715332 17.30475425720215 9.506896018981934 17.021860122680664 9.31064510345459 16.53156852722168 C8.206079483032227 13.77204704284668 11.370216369628906 12.109134674072266 13.290359497070312 11.34351921081543 L13.290359497070312 11.34351921081543 C13.423921585083008 10.21391773223877 13.289481163024902 9.04146957397461 12.98880386352539 7.944458961486816 L12.98880386352539 7.944458961486816 C13.713417053222656 7.653173923492432 14.438047409057617 7.3619303703308105 15.16268539428711 7.070706844329834 L15.16268539428711 7.070706844329834"></path>
<path fill="none" stroke="black" stroke-width=".3" stroke-opacity="1.0"  filling="0" d="M12.815279006958008 12.340051651000977 L12.815279006958008 12.340051651000977 C12.781418800354004 14.438180923461914 12.62185287475586 14.910134315490723 10.94732666015625 16.168405532836914 L10.94732666015625 16.168405532836914 C10.368443489074707 13.817964553833008 10.405221939086914 13.039483070373535 12.815279006958008 12.340051651000977 L12.815279006958008 12.340051651000977"></path></svg>