<svg xmlns="http://www.w3.org/2000/svg" viewBox="0.0 0.0 24.0 24.0" height="200px" width="200px"><path fill="none" stroke="black" stroke-width=".3" stroke-opacity="1.0"  filling="0" d="M20.030662536621094 3.6488122940063477 C20.655349731445312 3.988525390625 21.272140502929688 4.87787389755249 21.32913589477539 5.561814785003662 C21.3759708404541 6.123865604400635 20.588197708129883 6.755889892578125 19.993982315063477 7.611380100250244 C17.943286895751953 5.030801296234131 16.626758575439453 4.6690802574157715 14.352034568786621 5.92974328994751 C11.066635131835938 7.7507643699646 9.258028984069824 10.5914888381958 8.554337501525879 14.662968635559082 C10.61180305480957 13.144980430603027 12.163084030151367 11.779921531677246 13.91525936126709 10.760217666625977 C16.500917434692383 9.255772590637207 19.0673885345459 9.4335298538208 20.436962127685547 10.914837837219238 C21.739383697509766 12.323348999023438 21.53905487060547 14.979543685913086 19.88055419921875 17.44049072265625 C18.042606353759766 20.167789459228516 15.419702529907227 21.703834533691406 12.190170288085938 22.084741592407227 C8.734350204467773 22.49273681640625 6.03357458114624 20.065650939941406 6.028496265411377 16.612651824951172 C6.019468307495117 10.917657852172852 8.833669662475586 6.847872257232666 13.588525772094727 4.0359272956848145 C15.60761833190918 2.841851234436035 17.86146354675293 2.4694089889526367 20.030662536621094 3.6488122940063477"></path>
<path fill="none" stroke="black" stroke-width=".3" stroke-opacity="1.0"  filling="0" d="M14.850883483886719 12.515776634216309 C15.893159866333008 11.800800323486328 17.405502319335938 11.572819709777832 18.10806655883789 12.757864952087402 C18.55499839782715 13.511780738830566 18.323068618774414 14.931578636169434 17.937644958496094 15.863250732421875 C16.96929359436035 18.205692291259766 14.900541305541992 19.326406478881836 12.522549629211426 19.787445068359375 C10.838655471801758 20.114181518554688 9.654172897338867 19.36534309387207 8.93919563293457 16.989608764648438 C10.895086288452148 15.494192123413086 12.81091022491455 13.91469669342041 14.850883483886719 12.515776634216309"></path></svg>