<svg xmlns="http://www.w3.org/2000/svg" viewBox="0.0 0.0 24.0 24.0" height="200px" width="200px"><path fill="none" stroke="black" stroke-width=".3" stroke-opacity="1.0"  filling="0" d="M17.42636489868164 3.0794553756713867 C19.687541961669922 3.5361013412475586 20.905460357666016 5.1833906173706055 20.58574867248535 7.49737024307251 C20.24921417236328 9.936101913452148 18.947162628173828 11.792856216430664 16.893709182739258 13.117534637451172 C15.759927749633789 13.849210739135742 14.51068115234375 14.425385475158691 13.46219539642334 15.259183883666992 C11.988396644592285 16.43126106262207 10.652693748474121 17.777408599853516 9.408088684082031 19.333019256591797 C12.59880542755127 19.815776824951172 15.691461563110352 20.56195831298828 18.380273818969727 17.96250343322754 C18.530553817749023 18.07564926147461 18.680255889892578 18.189374923706055 18.830535888671875 18.302520751953125 C18.758586883544922 19.44558334350586 18.687219619750977 20.58864974975586 18.588579177856445 22.16515350341797 C14.210118293762207 22.165729522705078 10.12816047668457 22.165729522705078 5.436373710632324 22.165729522705078 C5.80192232131958 21.187450408935547 6.047942161560059 20.100669860839844 6.581178665161133 19.17983627319336 C8.26850414276123 16.268213272094727 10.83836841583252 14.265238761901855 13.607253074645996 12.424731254577637 C15.015485763549805 11.488811492919922 16.312313079833984 10.271476745605469 17.34745216369629 8.938675880432129 C17.81454086303711 8.336971282958984 17.87662696838379 6.907270908355713 17.466400146484375 6.285257816314697 C17.070680618286133 5.684713840484619 15.829554557800293 5.399237632751465 14.962682723999023 5.4050397872924805 C13.343244552612305 5.4154839515686035 12.043517112731934 6.255665302276611 11.110498428344727 7.627923011779785 C10.74262809753418 8.169282913208008 10.374759674072266 8.812765121459961 9.839780807495117 9.103463172912598 C9.456826210021973 9.311767578125 8.618385314941406 9.189918518066406 8.313761711120605 8.884714126586914 C8.038729667663574 8.609102249145508 8.010878562927246 7.779945373535156 8.222084045410156 7.376681327819824 C9.704007148742676 4.54339075088501 14.290190696716309 2.4464187622070312 17.42636489868164 3.0794553756713867"></path></svg>