<svg xmlns="http://www.w3.org/2000/svg" viewBox="0.0 0.0 24.0 24.0" height="200px" width="200px"><path fill="none" stroke="black" stroke-width=".3" stroke-opacity="1.0"  filling="0" d="M13.170616149902344 11.113385200500488 L13.170616149902344 11.113385200500488 C14.631621360778809 11.06595516204834 17.098215103149414 11.606740951538086 16.054555892944336 13.936958312988281 C15.348601341247559 15.51317024230957 12.3893404006958 15.91315746307373 10.996878623962402 16.360157012939453 L10.996878623962402 16.360157012939453 C11.556975364685059 19.48610496520996 12.047887802124023 19.656818389892578 15.197994232177734 19.905029296875 L15.197994232177734 19.905029296875 C14.017415046691895 20.676172256469727 12.844022750854492 21.560009002685547 11.375112533569336 21.71220588684082 C9.603565216064453 21.89575958251953 8.809782981872559 20.600982666015625 8.570178031921387 19.009109497070312 C8.330573081970215 17.417238235473633 8.645145416259766 15.528270721435547 9.090309143066406 14.523449897766113 C9.92247200012207 12.64509391784668 11.415336608886719 11.924161911010742 13.170616149902344 11.113385200500488 L13.170616149902344 11.113385200500488"></path>
<path fill="none" stroke="black" stroke-width=".3" stroke-opacity="1.0"  filling="0" d="M12.923336029052734 11.910175323486328 L12.923336029052734 11.910175323486328 C13.279585838317871 12.525757789611816 13.927401542663574 13.64549732208252 14.271751403808594 14.240839958190918 L14.271751403808594 14.240839958190918 C13.167804718017578 14.734182357788086 12.063851356506348 15.227506637573242 10.959892272949219 15.720821380615234 L10.959892272949219 15.720821380615234 C11.376953125 14.47144603729248 11.793889045715332 13.222029685974121 12.21055793762207 11.97252368927002 L12.21055793762207 11.97252368927002 C12.448150634765625 11.951741218566895 12.68574333190918 11.930957794189453 12.923336029052734 11.910175323486328 L12.923336029052734 11.910175323486328"></path></svg>