<svg xmlns="http://www.w3.org/2000/svg" viewBox="0.0 0.0 24.0 24.0" height="200px" width="200px"><path fill="none" stroke="black" stroke-width=".3" stroke-opacity="1.0"  filling="0" d="M8.89028549194336 7.427274703979492 L8.89028549194336 7.427274703979492 C9.369039535522461 8.799323081970215 9.847789764404297 10.17137336730957 10.326568603515625 11.543412208557129 C10.80534839630127 12.915452003479004 11.284157752990723 14.287481307983398 11.763029098510742 15.659488677978516 L11.763029098510742 15.659488677978516 C11.87296199798584 15.67768383026123 11.982893943786621 15.695878028869629 12.092826843261719 15.714073181152344 L12.092826843261719 15.714073181152344 C12.615063667297363 14.363164901733398 13.137296676635742 13.01225471496582 13.659550666809082 11.661352157592773 C14.181805610656738 10.310449600219727 14.704080581665039 8.959555625915527 15.22640323638916 7.608680248260498 L15.22640323638916 7.608680248260498 C15.82340145111084 8.116006851196289 15.63083553314209 9.14039134979248 15.631543159484863 9.923837661743164 C15.633326530456543 11.898754119873047 15.626018524169922 13.873671531677246 15.61203384399414 15.84853744506836 C15.606526374816895 16.62631607055664 15.653701782226562 17.801090240478516 14.927328109741211 18.079208374023438 L14.927328109741211 18.079208374023438 C14.927328109741211 15.80581283569336 14.927328109741211 13.5324125289917 14.927328109741211 11.259016036987305 L14.927328109741211 11.259016036987305 C14.818049430847168 11.226875305175781 14.708769798278809 11.194733619689941 14.599491119384766 11.162592887878418 L14.599491119384766 11.162592887878418 C14.141437530517578 12.340032577514648 13.683391571044922 13.517475128173828 13.22535514831543 14.694921493530273 C12.767318725585938 15.872367858886719 12.309292793273926 17.04981803894043 11.851280212402344 18.22727394104004 L11.851280212402344 18.22727394104004 C11.446310043334961 17.00689697265625 11.041353225708008 15.786517143249512 10.636385917663574 14.566141128540039 C10.23141860961914 13.345765113830566 9.82643985748291 12.12539291381836 9.421426773071289 10.905029296875 L9.421426773071289 10.905029296875 C9.314217567443848 10.93401050567627 9.207009315490723 10.962991714477539 9.099800109863281 10.991972923278809 L9.099800109863281 10.991972923278809 C9.071152687072754 13.327187538146973 9.078161239624023 15.652416229248047 8.932449340820312 17.984092712402344 L8.932449340820312 17.984092712402344 C8.518722534179688 16.51390838623047 8.152735710144043 14.570882797241211 8.067903518676758 12.647314071655273 C7.983071327209473 10.723746299743652 8.179393768310547 8.819634437561035 8.89028549194336 7.427274703979492 L8.89028549194336 7.427274703979492"></path></svg>