<svg xmlns="http://www.w3.org/2000/svg" viewBox="0.0 0.0 24.0 24.0" height="200px" width="200px"><path fill="none" stroke="black" stroke-width=".3" stroke-opacity="1.0"  filling="0" d="M14.986116409301758 3.022658348083496 C15.15843391418457 3.468043327331543 15.479948043823242 3.912877082824707 15.480499267578125 4.358262538909912 C15.487655639648438 8.378288269042969 15.529497146606445 12.402167320251465 15.354425430297852 16.415586471557617 C15.297719955444336 17.717609405517578 14.843526840209961 19.11597442626953 14.191690444946289 20.25228500366211 C13.164386749267578 22.042633056640625 11.016739845275879 22.654830932617188 9.473031997680664 21.9160099029541 C7.668920516967773 21.052764892578125 7.148111820220947 19.256912231445312 8.458942413330078 16.777292251586914 C8.53931999206543 17.358659744262695 8.494176864624023 17.998384475708008 8.728705406188965 18.508731842041016 C9.121238708496094 19.361515045166016 9.604060173034668 20.706478118896484 10.209650993347168 20.799518585205078 C11.078950881958008 20.933300018310547 12.460800170898438 20.383861541748047 12.957385063171387 19.6654109954834 C13.68299388885498 18.614986419677734 14.103604316711426 17.166522979736328 14.149848937988281 15.869455337524414 C14.2825288772583 12.128551483154297 14.15700626373291 8.378839492797852 14.149848937988281 4.6324310302734375 C14.148748397827148 4.140250205993652 14.247845649719238 3.648069381713867 14.300146102905273 3.1558895111083984 C14.528619766235352 3.111294746398926 14.757092475891113 3.067251205444336 14.986116409301758 3.022658348083496"></path></svg>