<svg xmlns="http://www.w3.org/2000/svg" viewBox="0.0 0.0 24.0 24.0" height="200px" width="200px"><path fill="none" stroke="black" stroke-width=".3" stroke-opacity="1.0"  filling="0" d="M12.408506393432617 9.47142505645752 L12.408506393432617 9.47142505645752 C12.415283203125 9.5051908493042 12.9356107711792 12.097563743591309 12.961997032165527 12.22901439666748 L12.961997032165527 12.22901439666748 C14.056734085083008 11.372869491577148 15.151449203491211 10.516697883605957 16.246187210083008 9.660552978515625 L16.246187210083008 9.660552978515625 C16.726701736450195 11.314041137695312 17.016115188598633 13.163069725036621 17.014755249023438 15.000570297241211 C17.013397216796875 16.838071823120117 16.721263885498047 18.664045333862305 16.038684844970703 20.271425247192383 L16.038684844970703 20.271425247192383 C16.038684844970703 18.707685470581055 16.038684844970703 17.143945693969727 16.038684844970703 15.580205917358398 C16.038684844970703 14.01646614074707 16.038684844970703 12.452726364135742 16.038684844970703 10.88898754119873 L16.038684844970703 10.88898754119873 C14.768226623535156 11.761817932128906 13.270774841308594 12.624300956726074 12.862656593322754 14.25578784942627 C12.365397453308105 16.243623733520508 13.048395156860352 18.02391815185547 12.267333030700684 20.010589599609375 L12.267333030700684 20.010589599609375 C12.069540977478027 19.95053482055664 11.871747970581055 19.890480041503906 11.673955917358398 19.830425262451172 L11.673955917358398 19.830425262451172 C11.673955917358398 18.361772537231445 11.673955917358398 16.89311981201172 11.673955917358398 15.424467086791992 C11.673955917358398 13.95581340789795 11.673955917358398 12.487160682678223 11.673955917358398 11.018507957458496 L11.673955917358398 11.018507957458496 C10.65872859954834 11.779741287231445 9.489653587341309 12.40113353729248 9.00422477722168 13.682197570800781 C8.323186874389648 15.479482650756836 8.809395790100098 18.017362594604492 8.45833683013916 19.945606231689453 L8.45833683013916 19.945606231689453 C7.949604511260986 18.407634735107422 7.742020606994629 16.684612274169922 7.7099504470825195 14.945265769958496 C7.67788028717041 13.205920219421387 7.821324348449707 11.450252532958984 8.0146484375 9.846991539001465 L8.0146484375 9.846991539001465 C8.206912994384766 9.838924407958984 8.399178504943848 9.830857276916504 8.591443061828613 9.822790145874023 L8.591443061828613 9.822790145874023 C8.625664710998535 10.026236534118652 8.940573692321777 11.898858070373535 8.9598388671875 12.013444900512695 L8.9598388671875 12.013444900512695 C10.067328453063965 11.074976921081543 11.190025329589844 10.261244773864746 12.408506393432617 9.47142505645752 L12.408506393432617 9.47142505645752"></path></svg>