<svg xmlns="http://www.w3.org/2000/svg" viewBox="0.0 0.0 24.0 24.0" height="200px" width="200px"><path fill="none" stroke="black" stroke-width=".3" stroke-opacity="1.0"  filling="0" d="M10.408309936523438 9.438623428344727 L10.408309936523438 9.438623428344727 C10.602082252502441 10.170310974121094 10.795896530151367 10.90198802947998 10.98980712890625 11.633639335632324 L10.98980712890625 11.633639335632324 C11.083826065063477 11.575552940368652 14.223026275634766 9.636298179626465 14.305509567260742 9.585348129272461 L14.305509567260742 9.585348129272461 C14.766937255859375 11.233678817749023 15.041175842285156 13.005587577819824 15.085443496704102 14.780119895935059 C15.129709243774414 16.55465316772461 14.94400405883789 18.33180809020996 14.485539436340332 19.990631103515625 L14.485539436340332 19.990631103515625 C14.312410354614258 19.975929260253906 14.139281272888184 19.961225509643555 13.96615219116211 19.946523666381836 L13.96615219116211 19.946523666381836 C13.96615219116211 18.442596435546875 13.96615219116211 16.938671112060547 13.96615219116211 15.434746742248535 C13.96615219116211 13.930821418762207 13.96615219116211 12.426897048950195 13.96615219116211 10.92297077178955 L13.96615219116211 10.92297077178955 C12.839581489562988 11.567171096801758 11.528364181518555 12.02406120300293 10.980188369750977 13.355242729187012 C10.138738632202148 15.39860725402832 10.984685897827148 18.056394577026367 10.399758338928223 20.239070892333984 L10.399758338928223 20.239070892333984 C9.944355010986328 18.492816925048828 9.742386817932129 16.66796112060547 9.756321907043457 14.842041015625 C9.770257949829102 13.016120910644531 10.000097274780273 11.189136505126953 10.408309936523438 9.438623428344727 L10.408309936523438 9.438623428344727"></path></svg>