<svg xmlns="http://www.w3.org/2000/svg" viewBox="0.0 0.0 24.0 24.0" height="200px" width="200px"><path fill="none" stroke="black" stroke-width=".3" stroke-opacity="1.0"  filling="0" d="M11.940755844116211 7.937687397003174 L11.940755844116211 7.937687397003174 C12.02131462097168 8.01103687286377 12.101874351501465 8.084386825561523 12.182433128356934 8.157735824584961 L12.182433128356934 8.157735824584961 C12.182433128356934 8.456070899963379 12.182433128356934 8.75440502166748 12.182433128356934 9.052740097045898 L12.182433128356934 9.052740097045898 C11.218993186950684 9.385099411010742 11.519289016723633 8.367579460144043 11.940755844116211 7.937687397003174 L11.940755844116211 7.937687397003174"></path>
<path fill="none" stroke="black" stroke-width=".3" stroke-opacity="1.0"  filling="0" d="M12.223340034484863 10.458368301391602 L12.223340034484863 10.458368301391602 C12.222908973693848 12.217315673828125 12.241680145263672 13.97790813446045 12.219752311706543 15.736759185791016 C12.214685440063477 16.1431884765625 12.360527992248535 18.135986328125 11.716094017028809 18.559219360351562 C11.30940055847168 18.826316833496094 10.746036529541016 18.636350631713867 10.261007308959961 18.674917221069336 L10.261007308959961 18.674917221069336 C10.474124908447266 18.312808990478516 11.356775283813477 16.8315372467041 11.398628234863281 16.64910888671875 C11.875978469848633 14.568455696105957 10.45682430267334 11.962246894836426 12.223340034484863 10.458368301391602 L12.223340034484863 10.458368301391602"></path></svg>