<svg xmlns="http://www.w3.org/2000/svg" viewBox="0.0 0.0 24.0 24.0" height="200px" width="200px"><path fill="none" stroke="black" stroke-width=".3" stroke-opacity="1.0"  filling="0" d="M11.702117919921875 3.2529191970825195 C13.805326461791992 2.592576026916504 15.554800033569336 3.3576440811157227 16.492664337158203 5.347983360290527 C17.649866104125977 7.803763389587402 16.99941062927246 10.661567687988281 14.584939956665039 12.959096908569336 C12.606236457824707 14.842386245727539 10.66593074798584 16.715200424194336 9.843265533447266 19.425809860229492 C9.73388671875 19.78594398498535 9.676288604736328 20.162370681762695 9.540728569030762 20.773841857910156 C12.150104522705078 21.00016212463379 14.62159252166748 21.58487319946289 17.121591567993164 19.948848724365234 C17.164644241333008 20.68133544921875 17.200716018676758 21.301536560058594 17.254823684692383 22.22136116027832 C14.108445167541504 22.220783233642578 11.143007278442383 22.220783233642578 7.787182331085205 22.220783233642578 C8.067609786987305 19.054622650146484 9.501749038696289 16.409175872802734 11.627647399902344 14.087791442871094 C12.41016960144043 13.233126640319824 13.300905227661133 12.479113578796387 14.10960865020752 11.647138595581055 C15.341862678527832 10.379977226257324 15.735158920288086 8.815515518188477 15.553054809570312 7.10327672958374 C15.413423538208008 5.787243366241455 14.952637672424316 4.340305328369141 13.505699157714844 4.357178211212158 C12.43460464477539 4.36997652053833 11.261113166809082 5.1821699142456055 10.35350513458252 5.911747455596924 C9.836865425109863 6.32715368270874 9.830465316772461 7.3301777839660645 9.462185859680176 7.995175838470459 C9.237029075622559 8.401272773742676 8.761116027832031 8.668318748474121 8.221205711364746 9.158194541931152 C8.321274757385254 5.928619861602783 9.576800346374512 3.9202442169189453 11.702117919921875 3.2529191970825195"></path></svg>