<svg xmlns="http://www.w3.org/2000/svg" viewBox="0.0 0.0 24.0 24.0" height="200px" width="200px"><path fill="none" stroke="black" stroke-width=".3" stroke-opacity="1.0"  filling="0" d="M16.917438507080078 3.277111053466797 C17.84958267211914 3.764458656311035 18.638757705688477 5.293445587158203 18.749954223632812 6.445150852203369 C19.120996475219727 10.292866706848145 18.011842727661133 13.905702590942383 16.28655433654785 17.330181121826172 C16.03522300720215 17.829442977905273 15.727724075317383 18.29977035522461 15.328313827514648 18.985687255859375 C16.113515853881836 20.13455581665039 16.777873992919922 21.105846405029297 17.560806274414062 22.250741958618164 C15.529153823852539 22.8804931640625 15.505892753601074 20.733667373657227 14.181147575378418 20.415958404541016 C13.667703628540039 20.745582580566406 13.06859016418457 21.18981170654297 12.417847633361816 21.5375919342041 C9.528372764587402 23.081331253051758 7.4331769943237305 21.980117797851562 7.613592147827148 18.67081069946289 C7.7599663734436035 15.987849235534668 8.25468921661377 13.186312675476074 9.286684036254883 10.728017807006836 C10.276129722595215 8.370710372924805 12.009927749633789 6.259629726409912 13.71876335144043 4.304567813873291 C14.38652515411377 3.5409250259399414 16.1923770904541 2.8986940383911133 16.917438507080078 3.277111053466797"></path>
<path fill="none" stroke="black" stroke-width=".3" stroke-opacity="1.0"  filling="0" d="M16.747236251831055 4.125288486480713 C18.742013931274414 8.980036735534668 16.760852813720703 13.198227882385254 14.951031684875488 17.765901565551758 C14.039312362670898 16.86326026916504 13.348289489746094 16.179044723510742 12.657266616821289 15.495397567749023 C12.437704086303711 15.648012161254883 12.218709945678711 15.800061225891113 11.999715805053711 15.952674865722656 C12.525642395019531 16.94098472595215 13.051568984985352 17.92929458618164 13.576360702514648 18.914201736450195 C13.511683464050293 19.08780860900879 13.49466323852539 19.298858642578125 13.380627632141113 19.413463592529297 C12.376998901367188 20.419361114501953 11.158914566040039 21.78154945373535 9.81828498840332 20.777353286743164 C9.021736145019531 20.180511474609375 8.70913028717041 18.422317504882812 8.809550285339355 17.23940658569336 C9.113645553588867 13.648130416870117 10.137131690979004 10.211736679077148 12.230056762695312 7.208793640136719 C13.239358901977539 5.7609357833862305 14.338869094848633 4.318751335144043 16.747236251831055 4.125288486480713"></path></svg>