<svg xmlns="http://www.w3.org/2000/svg" viewBox="0.0 0.0 24.0 24.0" height="200px" width="200px"><path fill="none" stroke="black" stroke-width=".3" stroke-opacity="1.0"  filling="0" d="M20.379806518554688 3.095745086669922 C20.427078247070312 3.625202178955078 20.651763916015625 4.2147216796875 20.495485305786133 4.674658298492432 C18.619029998779297 10.181665420532227 16.69363784790039 15.671987533569336 14.74710750579834 21.154525756835938 C14.650337219238281 21.428707122802734 14.246015548706055 21.59333038330078 13.39399242401123 22.295745849609375 C13.39399242401123 17.75699806213379 13.39399242401123 13.89397144317627 13.39399242401123 10.030389785766602 C13.197671890258789 9.97644329071045 13.001349449157715 9.922496795654297 12.805028915405273 9.868550300598145 C11.233345985412598 13.880066871643066 9.661663055419922 17.891027450561523 8.089981079101562 21.902545928955078 C7.934814453125 21.82969093322754 7.779648303985596 21.756832122802734 7.624482154846191 21.68453598022461 C7.624482154846191 18.614582061767578 7.607798099517822 15.544072151184082 7.627819061279297 12.47411823272705 C7.675647735595703 5.10233736038208 7.682877540588379 5.10233736038208 8.752912521362305 3.797607421875 C8.75235652923584 8.211221694946289 8.75235652923584 12.623167037963867 8.75235652923584 17.600719451904297 C9.780122756958008 15.009056091308594 10.71501350402832 12.835617065429688 11.50474739074707 10.610457420349121 C12.313390731811523 8.33190631866455 12.980216026306152 6.002746105194092 13.708773612976074 3.6958322525024414 C13.929566383361816 3.734762191772461 14.150914192199707 3.773693084716797 14.371706008911133 3.8131799697875977 C14.371706008911133 8.345809936523438 14.371706008911133 12.878440856933594 14.371706008911133 17.41107177734375 C14.55746078491211 17.441661834716797 14.74377155303955 17.472248077392578 14.929525375366211 17.502838134765625 C16.592973709106445 12.703810691833496 18.256977081298828 7.90533971786499 19.920425415039062 3.1063127517700195 C20.073366165161133 3.1029748916625977 20.226863861083984 3.0990819931030273 20.379806518554688 3.095745086669922"></path></svg>