<svg xmlns="http://www.w3.org/2000/svg" viewBox="0.0 0.0 24.0 24.0" height="200px" width="200px"><path fill="none" stroke="black" stroke-width=".3" stroke-opacity="1.0"  filling="0" d="M18.605907440185547 7.661652565002441 C20.01479721069336 11.493962287902832 18.28600311279297 14.511373519897461 17.909643173217773 17.572967529296875 C17.528377532958984 20.678741455078125 16.86893081665039 23.7509708404541 16.332212448120117 26.837928771972656 C15.83476448059082 26.741382598876953 15.337316513061523 26.64565658569336 14.839868545532227 26.549930572509766 C15.703039169311523 21.30791473388672 16.566207885742188 16.06589698791504 17.543102264404297 10.132527351379395 C14.045424461364746 12.084680557250977 11.310281753540039 13.493570327758789 11.019831657409668 17.39460563659668 C10.829198837280273 19.948932647705078 10.163207054138184 22.474624633789062 9.610124588012695 24.991317749023438 C9.463671684265137 25.6564884185791 8.949861526489258 26.24148178100586 8.604593276977539 26.862472534179688 C8.295324325561523 26.774110794067383 7.985238075256348 26.686565399169922 7.67596960067749 26.59820556640625 C8.755136489868164 20.713924407958984 9.817939758300781 14.827188491821289 10.958468437194824 8.954360961914062 C11.018195152282715 8.64591121673584 11.734911918640137 8.465095520019531 12.660263061523438 7.924284934997559 C12.427903175354004 9.450172424316406 12.278996467590332 10.424612998962402 12.066271781921387 11.825321197509766 C14.297422409057617 10.404977798461914 16.228303909301758 9.175268173217773 18.605907440185547 7.661652565002441"></path></svg>