<svg xmlns="http://www.w3.org/2000/svg" viewBox="0.0 0.0 24.0 24.0" height="200px" width="200px"><path fill="none" stroke="black" stroke-width=".3" stroke-opacity="1.0"  filling="0" d="M13.97905445098877 9.523687362670898 L13.97905445098877 9.523687362670898 C14.011399269104004 10.14838981628418 14.08896255493164 11.645357131958008 14.123266220092773 12.30678939819336 L14.123266220092773 12.30678939819336 C15.32080078125 11.397686004638672 16.51837158203125 10.488629341125488 17.71586036682129 9.579466819763184 L17.71586036682129 9.579466819763184 C17.962364196777344 11.238991737365723 17.94110679626465 13.264500617980957 17.598623275756836 15.205401420593262 C17.256141662597656 17.14630126953125 16.592435836791992 19.002593994140625 15.554046630859375 20.323684692382812 L15.554046630859375 20.323684692382812 C15.8143892288208 18.7662353515625 16.074678421020508 17.208776473999023 16.3349666595459 15.65131950378418 C16.59525489807129 14.093862533569336 16.85554313659668 12.536404609680176 17.11588478088379 10.978954315185547 L17.11588478088379 10.978954315185547 C15.847051620483398 11.84853744506836 14.356047630310059 12.711344718933105 13.71150016784668 14.203498840332031 C12.788464546203613 16.340364456176758 13.531947135925293 18.32762908935547 11.672122955322266 19.989458084106445 L11.672122955322266 19.989458084106445 C11.922018051147461 18.51333236694336 12.171900749206543 17.03720474243164 12.421774864196777 15.561077117919922 C12.671649932861328 14.084949493408203 12.921516418457031 12.608819961547852 13.171380043029785 11.132688522338867 L13.171380043029785 11.132688522338867 C11.965965270996094 11.878414154052734 11.370046615600586 12.068981170654297 10.544053077697754 13.227327346801758 C9.190831184387207 15.125041961669922 9.317708969116211 17.926347732543945 8.433710098266602 20.07925033569336 L8.433710098266602 20.07925033569336 C8.504667282104492 18.337547302246094 8.66461181640625 16.629413604736328 8.906657218933105 14.932706832885742 C9.148701667785645 13.236000061035156 9.472845077514648 11.5507230758667 9.872199058532715 9.854736328125 L9.872199058532715 9.854736328125 C10.059493064880371 9.871365547180176 10.246786117553711 9.887993812561035 10.434080123901367 9.904623031616211 L10.434080123901367 9.904623031616211 C10.434080123901367 10.606785774230957 10.434080123901367 11.308947563171387 10.434080123901367 12.011110305786133 L10.434080123901367 12.011110305786133 C11.615763664245605 11.182004928588867 12.797472953796387 10.352938652038574 13.97905445098877 9.523687362670898 L13.97905445098877 9.523687362670898"></path></svg>