<svg xmlns="http://www.w3.org/2000/svg" viewBox="0.0 0.0 24.0 24.0" height="200px" width="200px"><path fill="none" stroke="black" stroke-width=".3" stroke-opacity="1.0"  filling="0" d="M15.292256355285645 9.267956733703613 L15.292256355285645 9.267956733703613 C15.357576370239258 11.263213157653809 14.069290161132812 12.683547973632812 13.048717498779297 14.341240882873535 L13.048717498779297 14.341240882873535 C13.61701488494873 16.430774688720703 14.066709518432617 17.680004119873047 13.747862815856934 19.848800659179688 L13.747862815856934 19.848800659179688 C13.284107208251953 18.393308639526367 12.820443153381348 16.937793731689453 12.356742858886719 15.482281684875488 L12.356742858886719 15.482281684875488 C11.386072158813477 17.011028289794922 10.415358543395996 18.53975486755371 9.444534301757812 20.068405151367188 L9.444534301757812 20.068405151367188 C9.30440616607666 19.997295379638672 9.164278984069824 19.926185607910156 9.024150848388672 19.85507583618164 L9.024150848388672 19.85507583618164 C9.40832805633545 17.98921012878418 11.35024642944336 16.747913360595703 11.57143783569336 14.877307891845703 C11.699432373046875 13.794864654541016 11.175559997558594 13.284903526306152 10.916557312011719 12.324342727661133 C10.667410850524902 11.400333404541016 10.865245819091797 10.385210037231445 11.109038352966309 9.459773063659668 L11.109038352966309 9.459773063659668 C11.540699005126953 10.832941055297852 11.972209930419922 12.20616340637207 12.403800964355469 13.579351425170898 L12.403800964355469 13.579351425170898 C13.366547584533691 12.142172813415527 14.329397201538086 10.705060005187988 15.292256355285645 9.267956733703613 L15.292256355285645 9.267956733703613"></path></svg>