<svg xmlns="http://www.w3.org/2000/svg" viewBox="0.0 0.0 24.0 24.0" height="200px" width="200px"><path fill="none" stroke="black" stroke-width=".3" stroke-opacity="1.0"  filling="0" d="M3.1626853942871094 4.711273670196533 C6.055355072021484 9.288863182067871 8.782546043395996 13.60465145111084 11.722143173217773 18.255352020263672 C14.401419639587402 13.479679107666016 19.072370529174805 10.381518363952637 20.398178100585938 4.9804840087890625 C20.57155990600586 4.943436145782471 20.744449615478516 4.9058942794799805 20.917831420898438 4.868847370147705 C21.164813995361328 5.320826530456543 21.620254516601562 5.769842624664307 21.626178741455078 6.22528076171875 C21.682987213134766 10.66801929473877 21.68199920654297 15.111745834350586 21.6405029296875 19.554977416992188 C21.636552810668945 19.967933654785156 21.24088478088379 20.37743377685547 21.026996612548828 20.78890609741211 C20.807674407958984 20.74346351623535 20.587860107421875 20.697525024414062 20.368539810180664 20.65207862854004 C20.368539810180664 16.903362274169922 20.368539810180664 13.154648780822754 20.368539810180664 9.405440330505371 C20.214914321899414 9.38469409942627 20.06079864501953 9.36444091796875 19.90717124938965 9.343694686889648 C17.11329460144043 13.127974510192871 14.319417953491211 16.912256240844727 11.536903381347656 20.681716918945312 C9.127828598022461 16.76900291442871 6.713812828063965 12.847894668579102 4.300290584564209 8.927279472351074 C4.137775421142578 8.964820861816406 3.975259780883789 9.002856254577637 3.8127450942993164 9.040397644042969 C3.8127450942993164 12.8958101272583 3.8127450942993164 16.751220703125 3.8127450942993164 20.60663604736328 C3.620098114013672 20.669368743896484 3.426957130432129 20.73160743713379 3.2343101501464844 20.794342041015625 C2.973989486694336 20.418434143066406 2.4903955459594727 20.04400634765625 2.487431526184082 19.666122436523438 C2.4518661499023438 15.223876953125 2.474588394165039 10.781139373779297 2.5294189453125 6.338894367218018 C2.534852981567383 5.903709411621094 2.855931282043457 5.472970485687256 3.1626853942871094 4.711273670196533"></path></svg>