<svg xmlns="http://www.w3.org/2000/svg" viewBox="0.0 0.0 24.0 24.0" height="200px" width="200px"><path fill="none" stroke="black" stroke-width=".3" stroke-opacity="1.0"  filling="0" d="M17.324752807617188 3.353793144226074 C18.17980194091797 2.8611745834350586 18.879287719726562 3.046527862548828 18.88094139099121 4.010802268981934 C18.889768600463867 8.140968322753906 18.876529693603516 12.276098251342773 18.658077239990234 16.39798927307129 C18.60567283630371 17.3848819732666 17.896808624267578 18.46941566467285 17.208906173706055 19.266544342041016 C14.875448226928711 21.97015380859375 10.138473510742188 23.032623291015625 6.818122863769531 21.745635986328125 C4.282763481140137 20.763153076171875 3.5424556732177734 18.996234893798828 4.763247013092041 15.883855819702148 C5.156569004058838 16.61147689819336 5.6684956550598145 17.114574432373047 5.5802321434021 17.46817970275879 C5.048447132110596 19.597530364990234 6.374049663543701 20.292049407958984 7.988162517547607 20.71074867248535 C10.992971420288086 21.489120483398438 13.603907585144043 20.600419998168945 15.873374938964844 18.6007080078125 C17.062170028686523 17.553133010864258 17.361160278320312 16.16243553161621 17.340749740600586 14.612866401672363 C17.291101455688477 10.869955062866211 17.324752807617188 7.125389575958252 17.324752807617188 3.353793144226074"></path></svg>