<svg xmlns="http://www.w3.org/2000/svg" viewBox="0.0 0.0 24.0 24.0" height="200px" width="200px"><path fill="none" stroke="black" stroke-width=".3" stroke-opacity="1.0"  filling="0" d="M8.281432151794434 7.147587299346924 L8.281432151794434 7.147587299346924 C8.599206924438477 8.321795463562012 8.822538375854492 9.526058197021484 8.942256927490234 10.736600875854492 L8.942256927490234 10.736600875854492 C10.94587516784668 9.580284118652344 12.949555397033691 8.424074172973633 14.953315734863281 7.268004417419434 L14.953315734863281 7.268004417419434 C14.558128356933594 9.247163772583008 11.017684936523438 10.428943634033203 9.31134033203125 11.421899795532227 L9.31134033203125 11.421899795532227 C10.687286376953125 12.42932415008545 12.063240051269531 13.436737060546875 13.439177513122559 14.444170951843262 C14.815114974975586 15.451604843139648 16.191036224365234 16.459060668945312 17.566919326782227 17.466571807861328 L17.566919326782227 17.466571807861328 C16.05132484436035 17.483413696289062 14.460746765136719 16.550859451293945 12.941636085510254 15.395766258239746 C11.422524452209473 14.240673065185547 9.974879264831543 12.863039016723633 8.74515151977539 11.989720344543457 L8.74515151977539 11.989720344543457 C8.74515151977539 13.862546920776367 8.74515151977539 15.735374450683594 8.74515151977539 17.608200073242188 L8.74515151977539 17.608200073242188 C8.610702514648438 17.64942741394043 8.476253509521484 17.69065284729004 8.341804504394531 17.73188018798828 L8.341804504394531 17.73188018798828 C7.8390960693359375 17.02137565612793 7.81488037109375 16.04573631286621 7.810656547546387 15.175383567810059 C7.8051557540893555 14.041949272155762 7.6256327629089355 12.520585060119629 7.59609317779541 11.039787292480469 C7.566554069519043 9.558988571166992 7.68699836730957 8.118757247924805 8.281432151794434 7.147587299346924 L8.281432151794434 7.147587299346924"></path></svg>