<svg xmlns="http://www.w3.org/2000/svg" viewBox="0.0 0.0 24.0 24.0" height="200px" width="200px"><path fill="none" stroke="black" stroke-width=".3" stroke-opacity="1.0"  filling="0" d="M14.817760467529297 7.441997051239014 C16.852590560913086 7.376357078552246 19.23064613342285 8.26288890838623 20.917505264282227 9.463382720947266 C23.20302963256836 11.090139389038086 22.75067138671875 13.305280685424805 20.03730010986328 14.104818344116211 C16.14636993408203 15.249954223632812 12.120206832885742 15.933239936828613 8.151773452758789 16.817398071289062 C7.394940376281738 16.98584747314453 6.641270160675049 17.169322967529297 5.953239917755127 17.33065414428711 C4.3699798583984375 22.73129653930664 6.8302812576293945 25.73253059387207 11.964410781860352 24.236263275146484 C14.715741157531738 23.43435287475586 17.10091209411621 21.344955444335938 19.6165714263916 19.782257080078125 C20.257944107055664 19.3836727142334 20.769617080688477 18.775516510009766 21.341392517089844 18.263843536376953 C21.548595428466797 18.474998474121094 21.7550048828125 18.687732696533203 21.962203979492188 18.899677276611328 C19.868854522705078 24.635637283325195 10.582025527954102 28.34625244140625 5.632160663604736 25.17736053466797 C4.419013023376465 24.4007568359375 3.4170188903808594 22.510650634765625 3.2461977005004883 21.025455474853516 C2.5194168090820312 14.705857276916504 8.460203170776367 7.647615432739258 14.817760467529297 7.441997051239014"></path>
<path fill="none" stroke="black" stroke-width=".3" stroke-opacity="1.0"  filling="0" d="M20.307769775390625 12.221831321716309 C16.731592178344727 7.029969692230225 10.187396049499512 8.62667465209961 6.987659931182861 15.330621719360352 C11.589554786682129 14.471769332885742 16.078357696533203 14.242425918579102 20.307769775390625 12.221831321716309"></path></svg>