<svg xmlns="http://www.w3.org/2000/svg" viewBox="0.0 0.0 24.0 24.0" height="200px" width="200px"><path fill="none" stroke="black" stroke-width=".3" stroke-opacity="1.0"  filling="0" d="M13.296722412109375 6.954299449920654 L13.296722412109375 6.954299449920654 C14.218925476074219 7.176830291748047 15.105995178222656 7.780592441558838 15.646235466003418 8.560412406921387 L15.646235466003418 8.560412406921387 C15.125571250915527 8.302973747253418 14.654027938842773 7.900843620300293 14.084243774414062 7.788095951080322 C11.754878997802734 7.327165126800537 11.80876350402832 9.276674270629883 11.719775199890137 10.900976181030273 L11.719775199890137 10.900976181030273 C13.045219421386719 10.699902534484863 14.369816780090332 10.512591361999512 15.698600769042969 10.332572937011719 L15.698600769042969 10.332572937011719 C14.892016410827637 11.467811584472656 13.001944541931152 11.479830741882324 11.796998023986816 11.736844062805176 L11.796998023986816 11.736844062805176 C11.796998023986816 13.720788955688477 11.796998023986816 15.704730987548828 11.796998023986816 17.688676834106445 L11.796998023986816 17.688676834106445 C10.232128143310547 16.337759017944336 10.880675315856934 13.890868186950684 10.877941131591797 11.900238990783691 L10.877941131591797 11.900238990783691 C10.084161758422852 11.979864120483398 9.290385246276855 12.059516906738281 8.496611595153809 12.139201164245605 L8.496611595153809 12.139201164245605 C9.193136215209961 11.56396484375 10.283427238464355 11.464044570922852 10.81264877319336 10.731945991516113 C11.421487808227539 9.88970947265625 10.7825927734375 8.428976058959961 11.518473625183105 7.695133209228516 C11.973158836364746 7.2417073249816895 12.703972816467285 7.201243877410889 13.296722412109375 6.954299449920654 L13.296722412109375 6.954299449920654"></path></svg>