<svg xmlns="http://www.w3.org/2000/svg" viewBox="0.0 0.0 24.0 24.0" height="200px" width="200px"><path fill="none" stroke="black" stroke-width=".3" stroke-opacity="1.0"  filling="0" d="M14.30528450012207 3.029865264892578 C16.460025787353516 2.952089309692383 17.7987117767334 3.8547592163085938 18.482196807861328 5.8851776123046875 C16.551942825317383 5.266506671905518 14.877408027648926 3.2125205993652344 12.872325897216797 4.775105953216553 C11.3126859664917 5.9906463623046875 11.669748306274414 7.907347202301025 11.501822471618652 10.04617977142334 C12.869379043579102 9.840545654296875 13.970613479614258 9.667906761169434 15.074203491210938 9.50999927520752 C16.19075584411621 9.350912094116211 17.309078216552734 9.206555366516113 18.57529067993164 9.035684585571289 C18.014362335205078 10.228835105895996 18.014362335205078 10.228835105895996 11.639108657836914 11.532167434692383 C11.639108657836914 15.024415969848633 11.639108657836914 18.595027923583984 11.639108657836914 22.113204956054688 C9.915668487548828 22.54332733154297 9.98224925994873 21.65420913696289 9.992855072021484 20.692028045654297 C10.026440620422363 17.863819122314453 10.005228996276855 15.033843040466309 10.005228996276855 11.822648048400879 C8.443821907043457 11.979377746582031 7.231227874755859 12.100754737854004 5.771753787994385 12.247468948364258 C6.436383247375488 9.891217231750488 8.68834400177002 11.346566200256348 9.889154434204102 9.745681762695312 C10.671625137329102 7.480169296264648 9.377130508422852 3.2083959579467773 14.30528450012207 3.029865264892578"></path></svg>