<svg xmlns="http://www.w3.org/2000/svg" viewBox="0.0 0.0 24.0 24.0" height="200px" width="200px"><path fill="none" stroke="black" stroke-width=".3" stroke-opacity="1.0"  filling="0" d="M7.6178483963012695 10.066243171691895 L7.6178483963012695 10.066243171691895 C8.07558536529541 11.982818603515625 8.533388137817383 13.899378776550293 8.99124813079834 15.815925598144531 L8.99124813079834 15.815925598144531 C9.091436386108398 15.823854446411133 9.191625595092773 15.831782341003418 9.291813850402832 15.83971118927002 L9.291813850402832 15.83971118927002 C10.173083305358887 13.929412841796875 11.05445671081543 12.019159317016602 11.935747146606445 10.108872413635254 L11.935747146606445 10.108872413635254 C12.669798851013184 12.089795112609863 13.403939247131348 14.070682525634766 14.137943267822266 16.05162239074707 L14.137943267822266 16.05162239074707 C14.915531158447266 14.630471229553223 15.692070960998535 13.208742141723633 16.47449493408203 11.790243148803711 C16.76860809326172 11.257028579711914 17.146175384521484 10.421058654785156 17.75184440612793 10.4841947555542 L17.75184440612793 10.4841947555542 C17.311847686767578 11.714776992797852 16.71791648864746 12.8419189453125 16.125896453857422 13.969655990600586 C15.53387451171875 15.097393035888672 14.943763732910156 16.225725173950195 14.5114107131958 17.458690643310547 L14.5114107131958 17.458690643310547 C14.318653106689453 17.478357315063477 14.125896453857422 17.49802589416504 13.933138847351074 17.51769256591797 L13.933138847351074 17.51769256591797 C13.234576225280762 15.697479248046875 12.535942077636719 13.877291679382324 11.83720588684082 12.057147979736328 L11.83720588684082 12.057147979736328 C10.929863929748535 13.941181182861328 10.022544860839844 15.82522201538086 9.115118980407715 17.70921516418457 L9.115118980407715 17.70921516418457 C8.529317855834961 16.81067657470703 7.882679462432861 15.371564865112305 7.518651962280273 13.921271324157715 C7.154624938964844 12.470978736877441 7.073207855224609 11.009504318237305 7.6178483963012695 10.066243171691895 L7.6178483963012695 10.066243171691895"></path></svg>