<svg xmlns="http://www.w3.org/2000/svg" viewBox="0.0 0.0 24.0 24.0" height="200px" width="200px"><path fill="none" stroke="black" stroke-width=".3" stroke-opacity="1.0"  filling="0" d="M17.254695892333984 9.236512184143066 L17.254695892333984 9.236512184143066 C17.442773818969727 9.327868461608887 17.630849838256836 9.419224739074707 17.818927764892578 9.510581016540527 L17.818927764892578 9.510581016540527 C17.516891479492188 10.833056449890137 16.818492889404297 12.090898513793945 16.007081985473633 13.298043251037598 C15.195670127868652 14.50518798828125 14.271245002746582 15.661635398864746 13.517154693603516 16.781320571899414 C12.739775657653809 17.935585021972656 12.124736785888672 19.561817169189453 10.766468048095703 20.03696060180664 L10.766468048095703 20.03696060180664 C10.160735130310059 18.320581436157227 9.433883666992188 16.705293655395508 8.819506645202637 15.058897972106934 C8.205130577087402 13.41250228881836 7.703227996826172 11.73499870300293 7.54739236831665 9.894187927246094 L7.54739236831665 9.894187927246094 C8.4284086227417 10.90329360961914 9.083619117736816 12.263138771057129 9.648179054260254 13.684562683105469 C10.212739944458008 15.105985641479492 10.686650276184082 16.5889892578125 11.205066680908203 17.844409942626953 L11.205066680908203 17.844409942626953 C12.205674171447754 16.404178619384766 13.209857940673828 14.966752052307129 14.218000411987305 13.532109260559082 C15.226144790649414 12.097465515136719 16.23824691772461 10.665607452392578 17.254695892333984 9.236512184143066 L17.254695892333984 9.236512184143066"></path></svg>