<svg xmlns="http://www.w3.org/2000/svg" viewBox="0.0 0.0 24.0 24.0" height="200px" width="200px"><path fill="none" stroke="black" stroke-width=".3" stroke-opacity="1.0"  filling="0" d="M19.546350479125977 7.1346049308776855 C21.227115631103516 7.9161529541015625 21.2867431640625 8.840812683105469 20.17206573486328 9.887911796569824 C18.0579891204834 11.874776840209961 15.889055252075195 13.802011489868164 13.662081718444824 15.827038764953613 C16.9035587310791 19.226734161376953 19.650503158569336 22.107250213623047 22.396656036376953 24.98776626586914 C22.021385192871094 25.418689727783203 21.64531898498535 25.848819732666016 21.26925277709961 26.279747009277344 C18.345006942749023 23.527233123779297 15.421557426452637 20.773927688598633 12.321603775024414 17.85604476928711 C9.379071235656738 20.856616973876953 6.736279010772705 23.552677154541016 4.034651279449463 26.308372497558594 C3.1386146545410156 24.303218841552734 3.113966941833496 24.277774810791016 6.0461626052856445 21.429859161376953 C7.467737674713135 20.048831939697266 9.00062084197998 18.78229331970215 10.294189453125 17.6318359375 C7.7046661376953125 14.563684463500977 5.429987907409668 11.885908126831055 3.2077836990356445 9.16440486907959 C3.1235084533691406 9.060251235961914 3.5536375045776367 8.53550910949707 3.8470163345336914 8.028257369995117 C6.418253421783447 10.453997611999512 8.920320510864258 12.814542770385742 11.573448181152344 15.318199157714844 C14.395925521850586 12.421781539916992 16.939334869384766 9.810791015625 19.546350479125977 7.1346049308776855"></path></svg>