<svg xmlns="http://www.w3.org/2000/svg" viewBox="0.0 0.0 24.0 24.0" height="200px" width="200px"><path fill="none" stroke="black" stroke-width=".3" stroke-opacity="1.0"  filling="0" d="M16.39221954345703 3.45538330078125 C18.073259353637695 8.124428749084473 19.581031799316406 12.293752670288086 21.072738647460938 16.468812942504883 C21.520824432373047 17.72241973876953 21.97751808166504 18.97660255432129 22.331512451171875 20.25775146484375 C22.59198760986328 21.20096778869629 22.635589599609375 22.16025161743164 21.307397842407227 22.42416763305664 C20.485811233520508 19.770076751708984 19.687747955322266 17.19171714782715 18.791000366210938 14.294360160827637 C16.0192928314209 14.425172805786133 13.374380111694336 14.46074390411377 10.754712104797363 14.732693672180176 C10.031233787536621 14.807851791381836 9.201615333557129 15.453303337097168 8.732300758361816 16.072935104370117 C7.35935640335083 17.88650894165039 6.156809329986572 19.829172134399414 4.8532867431640625 21.696674346923828 C4.614613056182861 22.039194107055664 4.2129998207092285 22.267539978027344 3.886545181274414 22.548669815063477 C3.683443069458008 22.437938690185547 3.480341911315918 22.32663345336914 3.2772397994995117 22.215904235839844 C3.645003318786621 21.38857650756836 3.8796606063842773 20.463722229003906 4.4029059410095215 19.749996185302734 C7.331816673278809 15.7516450881958 10.34162425994873 11.812389373779297 13.299795150756836 7.83526611328125 C14.342842102050781 6.4330620765686035 15.318761825561523 4.980368137359619 16.39221954345703 3.45538330078125"></path>
<path fill="none" stroke="black" stroke-width=".3" stroke-opacity="1.0"  filling="0" d="M15.887906074523926 6.2758588790893555 C16.698591232299805 8.615545272827148 17.367565155029297 10.546159744262695 18.082439422607422 12.607584953308105 C15.7984037399292 13.692514419555664 13.535024642944336 13.216889381408691 10.74610424041748 13.403352737426758 C12.628524780273438 10.793437957763672 14.152361869812012 8.681524276733398 15.887906074523926 6.2758588790893555"></path></svg>