<svg xmlns="http://www.w3.org/2000/svg" viewBox="0.0 0.0 24.0 24.0" height="200px" width="200px"><path fill="none" stroke="black" stroke-width=".3" stroke-opacity="1.0"  filling="0" d="M22.629470825195312 5.131338596343994 C22.57476043701172 10.208623886108398 21.321155548095703 15.001784324645996 20.56380844116211 19.861656188964844 C20.52685546875 20.09874725341797 20.03155517578125 20.264328002929688 19.27613067626953 20.798019409179688 C19.97972297668457 16.762683868408203 20.59356689453125 13.242323875427246 21.207408905029297 9.722444534301758 C21.075428009033203 9.671571731567383 20.943923950195312 9.620697021484375 20.811939239501953 9.569823265075684 C17.67361068725586 13.201529502868652 14.535284042358398 16.833234786987305 11.404635429382324 20.455821990966797 C9.932660102844238 16.633098602294922 8.49236011505127 12.892927169799805 7.052539825439453 9.152275085449219 C6.875921726226807 9.161874771118164 6.698823928833008 9.170991897583008 6.522205829620361 9.180591583251953 C6.117136478424072 11.315364837646484 5.692869186401367 13.446298599243164 5.3146772384643555 15.585870742797852 C5.092464447021484 16.840913772583008 4.99071741104126 18.118993759155273 4.735869407653809 19.366357803344727 C4.650440216064453 19.785823822021484 4.260249137878418 20.142902374267578 4.009239673614502 20.52829360961914 C3.815342903137207 20.445262908935547 3.6224069595336914 20.362712860107422 3.428990364074707 20.280166625976562 C4.303922176361084 15.238393783569336 4.956640720367432 10.154390335083008 6.251038551330566 5.192770957946777 C6.423817157745361 5.196130275726318 6.596595764160156 5.199009418487549 6.769373416900635 5.202369689941406 C8.456842422485352 9.33177375793457 10.144311904907227 13.46165657043457 11.981042861938477 17.955333709716797 C15.400614738464355 13.440058708190918 20.033954620361328 10.245579719543457 22.629470825195312 5.131338596343994"></path></svg>