<svg xmlns="http://www.w3.org/2000/svg" viewBox="0.0 0.0 24.0 24.0" height="200px" width="200px"><path fill="none" stroke="black" stroke-width=".3" stroke-opacity="1.0"  filling="0" d="M21.63898468017578 3.3040552139282227 C21.87228775024414 4.900880336761475 20.81051254272461 4.634842395782471 19.9814510345459 4.722926139831543 C16.366422653198242 5.106807708740234 12.753179550170898 5.509138584136963 9.0482816696167 5.915040969848633 C8.707847595214844 7.9981160163879395 8.411456108093262 9.8115816116333 8.036502838134766 12.105344772338867 C12.009819030761719 11.666707992553711 15.660557746887207 11.264376640319824 19.398784637451172 10.851927757263184 C18.82742691040039 12.325555801391602 18.825641632080078 12.299367904663086 16.3271427154541 12.524934768676758 C14.852324485778809 12.658251762390137 13.386434555053711 12.889175415039062 11.916379928588867 13.07724666595459 C10.559405326843262 13.2510347366333 9.202430725097656 13.425416946411133 7.987104892730713 13.581945419311523 C7.16696834564209 16.69287109375 6.411705017089844 19.578227996826172 5.615375518798828 22.452274322509766 C5.599305629730225 22.509410858154297 5.106510162353516 22.435016632080078 4.5684814453125 22.409423828125 C5.701673984527588 16.109609603881836 6.8140363693237305 9.926447868347168 7.933539867401123 3.705195426940918 C12.857930183410645 5.064550876617432 17.19965171813965 3.0011157989501953 21.63898468017578 3.3040552139282227"></path></svg>