<svg xmlns="http://www.w3.org/2000/svg" viewBox="0.0 0.0 24.0 24.0" height="200px" width="200px"><path fill="none" stroke="black" stroke-width=".3" stroke-opacity="1.0"  filling="0" d="M21.513498306274414 10.71843147277832 C22.28980255126953 15.913904190063477 15.449453353881836 13.175989151000977 15.236523628234863 18.217086791992188 C15.740455627441406 19.515954971313477 16.681781768798828 21.944236755371094 17.731342315673828 24.65109634399414 C18.906890869140625 24.42929458618164 19.926288604736328 24.237659454345703 20.94568634033203 24.045135498046875 C21.079654693603516 24.276695251464844 21.214508056640625 24.508255004882812 21.34847640991211 24.73981475830078 C19.395740509033203 26.28089141845703 17.442113876342773 27.821964263916016 15.036015510559082 29.719696044921875 C13.847160339355469 26.64641761779785 12.975924491882324 24.393802642822266 11.97249698638916 21.800506591796875 C10.811144828796387 23.639680862426758 10.104043960571289 25.36440658569336 8.871715545654297 26.539955139160156 C7.686409950256348 27.670251846313477 6.011367321014404 28.380014419555664 4.433917045593262 28.945165634155273 C4.004509449005127 29.098651885986328 2.5361862182617188 27.928428649902344 2.6089372634887695 27.600162506103516 C2.789926528930664 26.775949478149414 3.431375503540039 25.814218521118164 4.16509485244751 25.412315368652344 C4.995517730712891 24.95718002319336 6.227845668792725 25.272136688232422 7.111501693725586 24.87112045288086 C11.875791549682617 22.706344604492188 12.27414608001709 19.02799415588379 8.079442024230957 13.938098907470703 C7.05649471282959 14.320483207702637 6.223409652709961 14.632780075073242 5.066494464874268 15.065736770629883 C8.745733261108398 8.896113395690918 10.064119338989258 8.984834671020508 14.392791748046875 15.466753005981445 C16.54781150817871 13.70565128326416 17.421710968017578 9.914624214172363 21.513498306274414 10.71843147277832"></path></svg>