<svg xmlns="http://www.w3.org/2000/svg" viewBox="0.0 0.0 24.0 24.0" height="200px" width="200px"><path fill="none" stroke="black" stroke-width=".3" stroke-opacity="1.0"  filling="0" d="M21.010597229003906 3.1038875579833984 C21.23078155517578 3.069337844848633 21.492542266845703 3.2994775772094727 21.923542022705078 3.4897966384887695 C20.933883666992188 5.175734043121338 19.28776741027832 4.416213035583496 18.04629898071289 4.741219997406006 C16.74100112915039 5.0826239585876465 15.377141952514648 5.197986602783203 13.80832576751709 5.448622226715088 C12.765376091003418 11.053380966186523 11.718912124633789 16.676877975463867 10.672449111938477 22.300376892089844 C10.320505142211914 22.24942970275879 9.968561172485352 22.198482513427734 9.616617202758789 22.146949768066406 C9.330843925476074 19.48013687133789 10.362082481384277 16.89940643310547 10.724568367004395 14.284711837768555 C11.094079971313477 11.616140365600586 11.638686180114746 8.97099494934082 12.16806697845459 5.964534759521484 C9.666977882385254 6.3082804679870605 7.683557033538818 6.581754684448242 5.245712757110596 6.916716575622559 C5.670271396636963 6.1759352684021 5.821355819702148 5.5727691650390625 6.069063663482666 5.530020713806152 C11.041961669921875 4.6762189865112305 16.02481460571289 3.882147789001465 21.010597229003906 3.1038875579833984"></path></svg>