<svg xmlns="http://www.w3.org/2000/svg" viewBox="0.0 0.0 24.0 24.0" height="200px" width="200px"><path fill="none" stroke="black" stroke-width=".3" stroke-opacity="1.0"  filling="0" d="M17.06846046447754 6.995936870574951 L17.06846046447754 6.995936870574951 C17.23963737487793 7.068295001983643 17.410816192626953 7.140653133392334 17.581993103027344 7.213011264801025 L17.581993103027344 7.213011264801025 C16.20522117614746 8.061128616333008 14.623327255249023 8.083348274230957 13.017183303833008 8.314849853515625 L13.017183303833008 8.314849853515625 C12.723197937011719 9.894702911376953 12.429210662841797 11.474555015563965 12.135222434997559 13.054407119750977 C11.84123420715332 14.634259223937988 11.547243118286133 16.214111328125 11.253252983093262 17.793962478637695 L11.253252983093262 17.793962478637695 C11.05528450012207 17.765193939208984 10.857315063476562 17.736427307128906 10.659346580505371 17.707658767700195 L10.659346580505371 17.707658767700195 C10.705087661743164 16.19077491760254 10.928027153015137 14.662220001220703 11.207460403442383 13.139338493347168 C11.486894607543945 11.616456985473633 11.822822570800781 10.099246978759766 12.094537734985352 8.605051040649414 L12.094537734985352 8.605051040649414 C12.08231258392334 8.606732368469238 8.23044204711914 9.136565208435059 8.200714111328125 9.140653610229492 L8.200714111328125 9.140653610229492 C8.607778549194336 8.455070495605469 9.556439399719238 8.207828521728516 10.342842102050781 8.076313018798828 C12.582403182983398 7.701777458190918 14.825257301330566 7.347825527191162 17.06846046447754 6.995936870574951 L17.06846046447754 6.995936870574951"></path></svg>