<svg xmlns="http://www.w3.org/2000/svg" viewBox="0.0 0.0 24.0 24.0" height="200px" width="200px"><path fill="none" stroke="black" stroke-width=".3" stroke-opacity="1.0"  filling="0" d="M10.166804313659668 8.303421020507812 L10.166804313659668 8.303421020507812 C10.367859840393066 8.367932319641113 10.568914413452148 8.432442665100098 10.769969940185547 8.496953964233398 L10.769969940185547 8.496953964233398 C10.684677124023438 9.149114608764648 10.599383354187012 9.801274299621582 10.514090538024902 10.453434944152832 L10.514090538024902 10.453434944152832 C11.786971092224121 9.556239128112793 14.384909629821777 7.422084808349609 15.891521453857422 9.133691787719727 C16.745994567871094 10.104427337646484 15.811062812805176 11.636881828308105 15.337442398071289 12.365341186523438 C14.025171279907227 14.38370132446289 11.97751235961914 14.883468627929688 9.753785133361816 14.95602035522461 L9.753785133361816 14.95602035522461 C9.493396759033203 16.574596405029297 9.460922241210938 17.963668823242188 8.27662181854248 19.10342025756836 L8.27662181854248 19.10342025756836 C8.591490745544434 17.30312156677246 8.890140533447266 15.500324249267578 9.197021484375 13.699000358581543 C9.503902435302734 11.897676467895508 9.819013595581055 10.09782600402832 10.166804313659668 8.303421020507812 L10.166804313659668 8.303421020507812"></path>
<path fill="none" stroke="black" stroke-width=".3" stroke-opacity="1.0"  filling="0" d="M14.034063339233398 9.206478118896484 L14.034063339233398 9.206478118896484 C14.437760353088379 9.34283447265625 14.98311996459961 9.27953815460205 15.245155334472656 9.615548133850098 C16.655277252197266 11.423758506774902 12.53955364227295 14.677823066711426 10.966887474060059 14.415767669677734 C9.481033325195312 14.168177604675293 10.016463279724121 12.682607650756836 10.365251541137695 11.973370552062988 C11.157344818115234 10.362703323364258 12.418453216552734 9.694116592407227 14.034063339233398 9.206478118896484 L14.034063339233398 9.206478118896484"></path></svg>