<svg xmlns="http://www.w3.org/2000/svg" viewBox="0.0 0.0 24.0 24.0" height="200px" width="200px"><path fill="none" stroke="black" stroke-width=".3" stroke-opacity="1.0"  filling="0" d="M11.52398681640625 7.135374069213867 L11.52398681640625 7.135374069213867 C11.224444389343262 8.929014205932617 10.924890518188477 10.722649574279785 10.625333786010742 12.516287803649902 L10.625333786010742 12.516287803649902 C11.509769439697266 12.116511344909668 14.8368558883667 10.067612648010254 15.886678695678711 10.988531112670898 C16.320457458496094 11.369047164916992 16.130781173706055 12.12433910369873 16.137584686279297 12.701323509216309 C16.156558990478516 14.310335159301758 15.77120590209961 16.626543045043945 14.859803199768066 17.935373306274414 L14.859803199768066 17.935373306274414 C14.742376327514648 17.889760971069336 14.62494945526123 17.84415054321289 14.507522583007812 17.798538208007812 L14.507522583007812 17.798538208007812 C14.830652236938477 15.839376449584961 15.153870582580566 13.880228042602539 15.477019309997559 11.92106819152832 L15.477019309997559 11.92106819152832 C14.899101257324219 11.90730094909668 14.312942504882812 11.781551361083984 13.743265151977539 11.879767417907715 C11.977736473083496 12.184157371520996 11.192420959472656 13.065155029296875 10.696331977844238 14.181735038757324 C10.200242042541504 15.29831600189209 9.993378639221191 16.65047836303711 9.384753227233887 17.897201538085938 L9.384753227233887 17.897201538085938 C9.212118148803711 17.852344512939453 9.039484024047852 17.80748748779297 8.866848945617676 17.762630462646484 L8.866848945617676 17.762630462646484 C9.282332420349121 15.492779731750488 9.696199417114258 13.22262191772461 10.117864608764648 10.953908920288086 C10.381477355957031 9.535573959350586 10.177934646606445 7.86715841293335 11.52398681640625 7.135374069213867 L11.52398681640625 7.135374069213867"></path></svg>