<svg xmlns="http://www.w3.org/2000/svg" viewBox="0.0 0.0 24.0 24.0" height="200px" width="200px"><path fill="none" stroke="black" stroke-width=".3" stroke-opacity="1.0"  filling="0" d="M15.451722145080566 9.439437866210938 L15.451722145080566 9.439437866210938 C17.010704040527344 9.886232376098633 17.861961364746094 10.80795669555664 18.11588478088379 11.948704719543457 C18.369810104370117 13.089452743530273 18.026399612426758 14.449224472045898 17.196044921875 15.772112846374512 C15.950791358947754 17.756000518798828 13.709596633911133 19.399831771850586 11.345340728759766 19.680007934570312 C8.228906631469727 20.0493221282959 6.758569717407227 17.718103408813477 7.758416175842285 14.874159812927246 C8.35806655883789 13.168523788452148 9.43728256225586 11.890074729919434 10.788640975952148 10.997919082641602 C12.139998435974121 10.105762481689453 13.763500213623047 9.599900245666504 15.451722145080566 9.439437866210938 L15.451722145080566 9.439437866210938"></path>
<path fill="none" stroke="black" stroke-width=".3" stroke-opacity="1.0"  filling="0" d="M14.106534004211426 10.430471420288086 L14.106534004211426 10.430471420288086 C14.717761039733887 10.478851318359375 15.375970840454102 10.335678100585938 15.940214157104492 10.57561206817627 C17.764482498168945 11.351346969604492 17.28001594543457 13.765192985534668 16.557968139648438 15.078079223632812 C15.513790130615234 16.9766902923584 13.155447006225586 18.842008590698242 10.878083229064941 18.759944915771484 C8.249730110168457 18.665233612060547 8.208738327026367 16.060325622558594 9.122257232666016 14.236410140991211 C10.176533699035645 12.131460189819336 11.959514617919922 11.108884811401367 14.106534004211426 10.430471420288086 L14.106534004211426 10.430471420288086"></path></svg>