<svg xmlns="http://www.w3.org/2000/svg" viewBox="0.0 0.0 24.0 24.0" height="200px" width="200px"><path fill="none" stroke="black" stroke-width=".3" stroke-opacity="1.0"  filling="0" d="M21.607192993164062 7.9278435707092285 C21.990793228149414 8.118844032287598 22.192184448242188 8.676663398742676 22.982561111450195 9.745150566101074 C17.34762954711914 8.16919231414795 12.710860252380371 9.01071548461914 8.590352058410645 11.922881126403809 C7.527459144592285 12.67409896850586 6.956853866577148 14.122190475463867 6.271966934204102 15.093179702758789 C7.588994979858398 17.275705337524414 9.005919456481934 16.606801986694336 10.401266098022461 16.15846824645996 C12.926634788513184 15.348112106323242 15.425631523132324 14.427472114562988 17.996553421020508 13.798527717590332 C19.83623695373535 13.348596572875977 22.14822769165039 13.312633514404297 22.940204620361328 15.228238105773926 C23.486835479736328 16.550060272216797 23.08645248413086 18.682241439819336 22.350418090820312 20.04082489013672 C19.733144760131836 24.870994567871094 10.991848945617676 27.777565002441406 6.218420505523682 25.676555633544922 C3.776966094970703 24.600875854492188 3.571579933166504 24.126968383789062 4.524986267089844 21.753440856933594 C8.656682968139648 25.815608978271484 16.887310028076172 25.042816162109375 20.265390396118164 20.146316528320312 C20.94388198852539 19.162540435791016 20.9814453125 17.736024856567383 21.314697265625 16.5132999420166 C19.992874145507812 16.212011337280273 18.57594871520996 15.452005386352539 17.368408203125 15.70214557647705 C14.527366638183594 16.2911319732666 11.827778816223145 17.565805435180664 8.985939025878906 18.144399642944336 C7.764011859893799 18.392942428588867 5.746912956237793 18.015735626220703 5.149935245513916 17.1726131439209 C4.507404327392578 16.263959884643555 4.679224967956543 14.274032592773438 5.2362446784973145 13.111244201660156 C7.272523880004883 8.859672546386719 17.308467864990234 5.785274982452393 21.607192993164062 7.9278435707092285"></path></svg>