<svg xmlns="http://www.w3.org/2000/svg" viewBox="0.0 0.0 24.0 24.0" height="200px" width="200px"><path fill="none" stroke="black" stroke-width=".3" stroke-opacity="1.0"  filling="0" d="M17.418649673461914 9.30366325378418 L17.418649673461914 9.30366325378418 C17.5499324798584 9.41762924194336 17.681215286254883 9.531595230102539 17.812498092651367 9.645561218261719 L17.812498092651367 9.645561218261719 C16.75896644592285 11.640934944152832 15.054471969604492 12.731193542480469 13.610698699951172 14.427701950073242 L13.610698699951172 14.427701950073242 C14.828927040100098 16.213048934936523 16.187837600708008 17.449649810791016 16.79168701171875 19.568614959716797 L16.79168701171875 19.568614959716797 C16.592615127563477 19.65771484375 16.393545150756836 19.746816635131836 16.194473266601562 19.83591651916504 L16.194473266601562 19.83591651916504 C14.987358093261719 18.290979385375977 13.780243873596191 16.74603843688965 12.573013305664062 15.201192855834961 L12.573013305664062 15.201192855834961 C10.797651290893555 16.835491180419922 9.022242546081543 18.469738006591797 7.246943950653076 20.104106903076172 L7.246943950653076 20.104106903076172 C7.958061218261719 17.664762496948242 9.673798561096191 16.51947784423828 11.539769172668457 14.82554817199707 L11.539769172668457 14.82554817199707 C10.288450241088867 13.137913703918457 9.260968208312988 12.11624526977539 8.693130493164062 10.072712898254395 L8.693130493164062 10.072712898254395 C8.86348819732666 9.990864753723145 9.033844947814941 9.909015655517578 9.204202651977539 9.827167510986328 L9.204202651977539 9.827167510986328 C10.269475936889648 11.163338661193848 11.334619522094727 12.499608039855957 12.3998441696167 13.83581829071045 L12.3998441696167 13.83581829071045 C14.072820663452148 12.325146675109863 15.745697975158691 10.814363479614258 17.418649673461914 9.30366325378418 L17.418649673461914 9.30366325378418"></path></svg>