<svg xmlns="http://www.w3.org/2000/svg" viewBox="0.0 0.0 24.0 24.0" height="200px" width="200px"><path fill="none" stroke="black" stroke-width=".3" stroke-opacity="1.0"  filling="0" d="M16.89702796936035 4.195692539215088 C17.17007827758789 4.307774066925049 17.442533493041992 4.420452117919922 17.71558380126953 4.532534599304199 C17.342374801635742 8.078617095947266 16.969762802124023 11.625295639038086 16.570322036743164 15.418794631958008 C17.575481414794922 15.325790405273438 18.368999481201172 15.251863479614258 19.16251564025879 15.178533554077148 C19.24776840209961 15.342486381530762 19.33302116394043 15.50703239440918 19.418277740478516 15.671577453613281 C18.45425033569336 16.2910099029541 17.4902286529541 16.91103744506836 16.170879364013672 17.758806228637695 C15.9568510055542 19.18665885925293 15.681416511535645 21.020511627197266 15.377363204956055 23.045734405517578 C14.369222640991211 23.151256561279297 13.426065444946289 23.2496280670166 12.035175323486328 23.395095825195312 C12.284975051879883 21.346023559570312 12.50377368927002 19.545557022094727 12.764900207519531 17.40109634399414 C10.352753639221191 17.40109634399414 8.043745040893555 17.40109634399414 5.7341413497924805 17.40109634399414 C5.607154846191406 17.171566009521484 5.480764865875244 16.942035675048828 5.353778839111328 16.712505340576172 C8.781817436218262 12.157089233398438 12.284379005432129 7.669041633605957 16.89702796936035 4.195692539215088"></path>
<path fill="none" stroke="black" stroke-width=".3" stroke-opacity="1.0"  filling="0" d="M13.925066947937012 7.756086826324463 C14.131345748901367 7.854456901550293 14.337625503540039 7.952230453491211 14.543903350830078 8.050600051879883 C14.102132797241211 10.50507640838623 13.65976619720459 12.960149765014648 13.175071716308594 15.652501106262207 C11.445551872253418 15.7490816116333 9.825132369995117 15.839700698852539 8.204713821411133 15.930320739746094 C8.088458061218262 15.687078475952148 7.972799301147461 15.443838119506836 7.856544017791748 15.200594902038574 C9.879384994506836 12.719291687011719 11.902226448059082 10.237987518310547 13.925066947937012 7.756086826324463"></path></svg>