<svg xmlns="http://www.w3.org/2000/svg" viewBox="0.0 0.0 24.0 24.0" height="200px" width="200px"><path fill="none" stroke="black" stroke-width=".3" stroke-opacity="1.0"  filling="0" d="M17.263591766357422 2.7814903259277344 C17.436840057373047 2.786740303039551 17.610084533691406 2.791989326477051 17.7833309173584 2.797822952270508 C17.7833309173584 8.908690452575684 17.7833309173584 15.0201416015625 17.7833309173584 21.13100814819336 C17.69175148010254 21.151424407958984 17.600170135498047 21.17184066772461 17.508005142211914 21.192256927490234 C17.37734031677246 19.72345733642578 17.24609375 18.254655838012695 17.084514617919922 16.440526962280273 C14.6264009475708 18.5579833984375 13.073601722717285 21.373088836669922 9.808172225952148 21.686914443969727 C11.579133987426758 20.12419891357422 13.369928359985352 18.583065032958984 15.108807563781738 16.985933303833008 C15.59412956237793 16.54027557373047 15.997204780578613 15.966288566589355 16.315114974975586 15.384134292602539 C17.12301254272461 13.905416488647461 17.733749389648438 12.27445125579834 16.479610443115234 10.831315994262695 C15.165389060974121 9.31934928894043 13.689004898071289 10.238078117370605 12.328117370605469 10.997562408447266 C12.077289581298828 11.137558937072754 11.838711738586426 11.30030632019043 11.59429931640625 11.451969146728516 C12.718358993530273 8.881857872009277 14.885395050048828 9.44243049621582 17.263591766357422 9.794172286987305 C17.263591766357422 7.383307933807373 17.263591766357422 5.082691192626953 17.263591766357422 2.7814903259277344"></path>
<path fill="none" stroke="black" stroke-width=".3" stroke-opacity="1.0"  filling="0" d="M7.553637981414795 16.063119888305664 C7.497639179229736 16.820852279663086 7.478389739990234 17.583837509155273 7.3786420822143555 18.336320877075195 C7.042649269104004 20.878433227539062 7.278311252593994 21.192256927490234 9.943502426147461 21.6163330078125 C7.709384441375732 22.441150665283203 6.478578090667725 21.881160736083984 6.528743743896484 19.806873321533203 C6.559659957885742 18.551565170288086 7.191978931427002 17.310842514038086 7.553637981414795 16.063119888305664"></path></svg>