<svg xmlns="http://www.w3.org/2000/svg" viewBox="0.0 0.0 24.0 24.0" height="200px" width="200px"><path fill="none" stroke="black" stroke-width=".3" stroke-opacity="1.0"  filling="0" d="M15.737493515014648 10.24449348449707 L15.737493515014648 10.24449348449707 C15.843623161315918 10.252334594726562 15.949751853942871 10.260175704956055 16.05588150024414 10.268016815185547 L16.05588150024414 10.268016815185547 C16.05588150024414 12.057987213134766 16.05588150024414 13.847957611083984 16.05588150024414 15.63792896270752 C16.05588150024414 17.427900314331055 16.05588150024414 19.217870712280273 16.05588150024414 21.007841110229492 L16.05588150024414 21.007841110229492 C15.951940536499023 21.020240783691406 15.847999572753906 21.03264045715332 15.744058609008789 21.045040130615234 L15.744058609008789 21.045040130615234 C15.725942611694336 20.853628158569336 15.471331596374512 18.163827896118164 15.455211639404297 17.99355697631836 L15.455211639404297 17.99355697631836 C15.027231216430664 18.031667709350586 14.599249839782715 18.069780349731445 14.171269416809082 18.107891082763672 L14.171269416809082 18.107891082763672 C15.135507583618164 16.553489685058594 15.520329475402832 16.139345169067383 15.188248634338379 14.280679702758789 L15.188248634338379 14.280679702758789 C13.847229957580566 14.735641479492188 12.506185531616211 15.19054889678955 11.165191650390625 15.645587921142578 L11.165191650390625 15.645587921142578 C12.599964141845703 14.803709983825684 14.0347318649292 13.961817741394043 15.469435691833496 13.11982536315918 L15.469435691833496 13.11982536315918 C15.558870315551758 12.161389350891113 15.648204803466797 11.202943801879883 15.737493515014648 10.24449348449707 L15.737493515014648 10.24449348449707"></path></svg>