<svg xmlns="http://www.w3.org/2000/svg" viewBox="0.0 0.0 24.0 24.0" height="200px" width="200px"><path fill="none" stroke="black" stroke-width=".3" stroke-opacity="1.0"  filling="0" d="M12.771327018737793 8.332118034362793 L12.771327018737793 8.332118034362793 C13.171360969543457 8.584831237792969 13.729779243469238 8.683444023132324 13.971429824829102 9.090256690979004 C14.294742584228516 9.634544372558594 14.210197448730469 10.333683013916016 14.329581260681152 10.95539665222168 L14.329581260681152 10.95539665222168 C13.922088623046875 10.616425514221191 12.57175064086914 9.41601848602295 12.115330696105957 9.459186553955078 C10.608256340026855 9.601725578308105 10.4657621383667 12.163931846618652 10.29865550994873 13.061620712280273 L10.29865550994873 13.061620712280273 C10.859682083129883 12.677642822265625 11.577668190002441 12.129961013793945 12.247612953186035 12.036714553833008 C14.128759384155273 11.774885177612305 14.984615325927734 13.789138793945312 14.874944686889648 15.735638618469238 C14.765273094177246 17.682138442993164 13.69007396697998 19.560882568359375 11.709107398986816 19.02803611755371 C9.813009262084961 18.518016815185547 9.478078842163086 16.237098693847656 9.378796577453613 14.636503219604492 C9.288293838500977 13.177445411682129 9.335067749023438 11.73358154296875 9.805146217346191 10.58836555480957 C10.275224685668945 9.44314956665039 11.168608665466309 8.596582412719727 12.771327018737793 8.332118034362793 L12.771327018737793 8.332118034362793"></path>
<path fill="none" stroke="black" stroke-width=".3" stroke-opacity="1.0"  filling="0" d="M12.241793632507324 13.14841079711914 L12.241793632507324 13.14841079711914 C12.684348106384277 13.510415077209473 13.235899925231934 13.770051956176758 13.569457054138184 14.234424591064453 C14.275593757629395 15.21749496459961 13.72551155090332 17.9257755279541 12.216550827026367 17.936626434326172 C10.70692253112793 17.947481155395508 10.1151762008667 15.238182067871094 10.771464347839355 14.250307083129883 C11.110379219055176 13.740157127380371 11.751684188842773 13.51570987701416 12.241793632507324 13.14841079711914 L12.241793632507324 13.14841079711914"></path></svg>