<svg xmlns="http://www.w3.org/2000/svg" viewBox="0.0 0.0 24.0 24.0" height="200px" width="200px"><path fill="none" stroke="black" stroke-width=".3" stroke-opacity="1.0"  filling="0" d="M12.371803283691406 8.575386047363281 C15.370855331420898 6.662198066711426 18.197546005249023 7.391031742095947 19.450843811035156 10.642876625061035 C20.653255462646484 13.761758804321289 21.05706787109375 16.969280242919922 18.94853973388672 19.972436904907227 C19.029796600341797 17.836824417114258 19.352352142333984 15.677408218383789 19.14223861694336 13.571342468261719 C18.703134536743164 9.159765243530273 16.926191329956055 7.955713272094727 12.371803283691406 8.575386047363281"></path>
<path fill="none" stroke="black" stroke-width=".3" stroke-opacity="1.0"  filling="0" d="M7.5317912101745605 11.779626846313477 C7.250271320343018 12.933613777160645 6.91622257232666 14.078570365905762 6.698721408843994 15.244868278503418 C6.378626346588135 16.95779037475586 5.8787841796875 18.692874908447266 5.921463489532471 20.407440185546875 C6.022417068481445 24.430795669555664 7.941349506378174 25.994342803955078 12.52446460723877 26.178192138671875 C8.533117294311523 27.66294288635254 5.5677170753479 26.110069274902344 5.060488224029541 22.021873474121094 C4.605788230895996 18.35800552368164 4.965280055999756 14.77129077911377 7.5317912101745605 11.779626846313477"></path></svg>