<svg xmlns="http://www.w3.org/2000/svg" viewBox="0.0 0.0 24.0 24.0" height="200px" width="200px"><path fill="none" stroke="black" stroke-width=".3" stroke-opacity="1.0"  filling="0" d="M10.300668716430664 7.723153591156006 L10.300668716430664 7.723153591156006 C12.470125198364258 7.839573860168457 14.639588356018066 7.955853462219238 16.80904769897461 8.072227478027344 L16.80904769897461 8.072227478027344 C15.887681007385254 10.299137115478516 14.555004119873047 12.345821380615234 13.35837173461914 14.435338020324707 C12.69967269897461 15.585535049438477 12.443686485290527 17.08946418762207 11.3856840133667 17.887880325317383 C10.989879608154297 18.18657112121582 10.398015022277832 17.97743797302246 9.904180526733398 18.022216796875 L9.904180526733398 18.022216796875 C10.799663543701172 16.658470153808594 11.695183753967285 15.294746398925781 12.590723037719727 13.931035995483398 C13.486262321472168 12.567325592041016 14.381820678710938 11.203627586364746 15.27738094329834 9.83993148803711 L15.27738094329834 9.83993148803711 C12.579900741577148 9.309844017028809 11.157073020935059 9.546009063720703 8.906088829040527 11.137277603149414 L8.906088829040527 11.137277603149414 C9.370964050292969 9.999242782592773 9.83582592010498 8.861202239990234 10.300668716430664 7.723153591156006 L10.300668716430664 7.723153591156006"></path></svg>