<svg xmlns="http://www.w3.org/2000/svg" viewBox="0.0 0.0 24.0 24.0" height="200px" width="200px"><path fill="none" stroke="black" stroke-width=".3" stroke-opacity="1.0"  filling="0" d="M14.336759567260742 7.197722911834717 L14.336759567260742 7.197722911834717 C14.446189880371094 7.202160835266113 14.555621147155762 7.206599235534668 14.665051460266113 7.2110371589660645 L14.665051460266113 7.2110371589660645 C14.665051460266113 9.007593154907227 14.665051460266113 10.804146766662598 14.665051460266113 12.600701332092285 C14.665051460266113 14.397254943847656 14.665051460266113 16.193809509277344 14.665051460266113 17.990365982055664 L14.665051460266113 17.990365982055664 C14.572321891784668 17.99281883239746 14.479591369628906 17.995269775390625 14.386861801147461 17.997722625732422 L14.386861801147461 17.997722625732422 C14.386861801147461 16.111940383911133 14.386861801147461 14.22616195678711 14.386861801147461 12.340380668640137 L14.386861801147461 12.340380668640137 C12.968585014343262 12.340380668640137 11.55030632019043 12.340380668640137 10.13202953338623 12.340380668640137 L10.13202953338623 12.340380668640137 C10.13202953338623 14.215999603271484 10.13202953338623 16.09162139892578 10.13202953338623 17.967239379882812 L10.13202953338623 17.967239379882812 C10.008584022521973 17.963970184326172 9.885139465332031 17.96070098876953 9.761693954467773 17.95743179321289 L9.761693954467773 17.95743179321289 C9.761693954467773 16.171796798706055 9.761693954467773 14.386161804199219 9.761693954467773 12.600526809692383 C9.761693954467773 10.814891815185547 9.761693954467773 9.029255867004395 9.761693954467773 7.2436203956604 L9.761693954467773 7.2436203956604 C9.868555068969727 7.241634845733643 9.97541618347168 7.239649772644043 10.082277297973633 7.237664222717285 L10.082277297973633 7.237664222717285 C10.082277297973633 8.746102333068848 10.082277297973633 10.254541397094727 10.082277297973633 11.762978553771973 L10.082277297973633 11.762978553771973 C11.500438690185547 11.762978553771973 12.918598175048828 11.762978553771973 14.336759567260742 11.762978553771973 L14.336759567260742 11.762978553771973 C14.336759567260742 10.241227149963379 14.336759567260742 8.719475746154785 14.336759567260742 7.197722911834717 L14.336759567260742 7.197722911834717"></path></svg>