<svg xmlns="http://www.w3.org/2000/svg" viewBox="0.0 0.0 24.0 24.0" height="200px" width="200px"><path fill="none" stroke="black" stroke-width=".3" stroke-opacity="1.0"  filling="0" d="M12.107720375061035 3.313370704650879 C12.305757522583008 3.318772315979004 12.504395484924316 3.3235721588134766 12.703031539916992 3.3289737701416016 C12.905269622802734 4.819653034210205 13.106907844543457 6.310333251953125 13.3091459274292 7.8010125160217285 C13.031293869018555 7.314920902252197 12.75344181060791 6.828830242156982 12.360367774963379 6.141101360321045 C11.826868057250977 7.190698146820068 11.349178314208984 8.129274368286133 10.872088432312012 9.067850112915039 C11.28376579284668 7.149890422821045 11.695443153381348 5.231330871582031 12.107720375061035 3.313370704650879"></path>
<path fill="none" stroke="black" stroke-width=".3" stroke-opacity="1.0"  filling="0" d="M10.946502685546875 8.931624412536621 C10.729862213134766 10.272275924682617 10.513821601867676 11.612327575683594 10.27437686920166 13.092805862426758 C11.613828659057617 13.092805862426758 12.778045654296875 13.092805862426758 14.159504890441895 13.092805862426758 C14.062887191772461 11.810965538024902 13.977070808410645 10.673151969909668 13.891855239868164 9.534738540649414 C15.698193550109863 13.659311294555664 16.64097023010254 18.000526428222656 17.590347290039062 22.339340209960938 C17.37430763244629 22.397552490234375 17.158267974853516 22.455760955810547 16.942825317382812 22.51337432861328 C16.225692749023438 19.671239852905273 15.508557319641113 16.8291072845459 14.788421630859375 13.975571632385254 C12.58961009979248 13.659912109375 10.69205379486084 13.668913841247559 8.966130256652832 14.863737106323242 L9.036343574523926 14.924948692321777 C9.672464370727539 12.927173614501953 10.309782981872559 10.929399490356445 10.946502685546875 8.931624412536621"></path>
<path fill="none" stroke="black" stroke-width=".3" stroke-opacity="1.0"  filling="0" d="M8.966131210327148 14.863737106323242 C8.556254386901855 17.407014846801758 8.146377563476562 19.950891494750977 7.736500263214111 22.49416732788086 C7.492855072021484 22.445560455322266 7.249809265136719 22.396350860595703 7.006163597106934 22.347742080688477 C7.120185375213623 19.758255004882812 8.040157318115234 17.33380126953125 9.035744667053223 14.924949645996094 L8.966131210327148 14.863737106323242"></path></svg>