<svg xmlns="http://www.w3.org/2000/svg" viewBox="0.0 0.0 24.0 24.0" height="200px" width="200px"><path fill="none" stroke="black" stroke-width=".3" stroke-opacity="1.0"  filling="0" d="M14.343575477600098 3.353896141052246 C14.926133155822754 3.814946174621582 15.35084342956543 4.91363000869751 15.268513679504395 5.664255619049072 C15.166879653930664 6.591465473175049 14.466787338256836 7.453378677368164 14.025041580200195 8.343114852905273 C14.172669410705566 7.819607257843018 14.319159507751465 7.296099662780762 14.4690580368042 6.773159503936768 C15.206624031066895 4.19480037689209 14.585454940795898 3.526505470275879 11.74931812286377 3.8490142822265625 C12.407392501831055 2.604973793029785 13.553771018981934 2.728753089904785 14.343575477600098 3.353896141052246"></path>
<path fill="none" stroke="black" stroke-width=".3" stroke-opacity="1.0"  filling="0" d="M8.033098220825195 3.8955726623535156 C8.76782512664795 3.957463264465332 9.474729537963867 4.017649173736572 10.181634902954102 4.0778350830078125 C8.515724182128906 5.81472110748291 8.352198600769043 6.744770526885986 9.177773475646973 10.26396656036377 C10.731261253356934 9.710933685302734 12.26317310333252 9.166418075561523 13.794516563415527 8.621334075927734 C13.596356391906738 8.930214881896973 13.398195266723633 9.239095687866211 13.223315238952637 9.512205123901367 C13.825178146362305 9.809730529785156 14.387864112854004 10.088518142700195 14.951116561889648 10.366737365722656 C13.015501976013184 10.51152515411377 11.079888343811035 10.655744552612305 8.95235824584961 10.814727783203125 C8.95235824584961 14.528109550476074 8.95235824584961 17.867881774902344 8.95235824584961 21.64258575439453 C10.217973709106445 21.140087127685547 11.300760269165039 20.71026611328125 12.383545875549316 20.280445098876953 C11.007209777832031 21.885601043701172 10.704574584960938 22.014490127563477 8.033098220825195 22.093414306640625 C8.033098220825195 16.061723709106445 8.033098220825195 10.032304763793945 8.033098220825195 3.8955726623535156"></path></svg>