<svg xmlns="http://www.w3.org/2000/svg" viewBox="0.0 0.0 24.0 24.0" height="200px" width="200px"><path fill="none" stroke="black" stroke-width=".3" stroke-opacity="1.0"  filling="0" d="M13.31826114654541 7.136566638946533 L13.31826114654541 7.136566638946533 C13.491686820983887 7.569758892059326 13.868269920349121 7.9704742431640625 13.838539123535156 8.43614387512207 C13.803256034851074 8.988779067993164 13.372237205505371 9.440715789794922 13.13908576965332 9.943001747131348 L13.13908576965332 9.943001747131348 C13.649375915527344 8.13871955871582 13.911824226379395 7.699613094329834 11.858991622924805 7.415070533752441 L11.858991622924805 7.415070533752441 C12.345415115356445 7.322236061096191 12.83183765411377 7.229401111602783 13.31826114654541 7.136566638946533 L13.31826114654541 7.136566638946533"></path>
<path fill="none" stroke="black" stroke-width=".3" stroke-opacity="1.0"  filling="0" d="M9.768617630004883 7.441259860992432 L9.768617630004883 7.441259860992432 C10.171468734741211 7.475433826446533 10.574318885803223 7.509608268737793 10.97716999053955 7.5437822341918945 L10.97716999053955 7.5437822341918945 C10.37830638885498 8.554800987243652 10.27830696105957 9.856096267700195 10.412497520446777 11.023481369018555 L10.412497520446777 11.023481369018555 C10.4271240234375 11.018277168273926 12.988680839538574 10.106878280639648 13.009415626525879 10.09950065612793 L13.009415626525879 10.09950065612793 C12.902315139770508 10.266538619995117 12.795215606689453 10.433577537536621 12.688115119934082 10.600615501403809 L12.688115119934082 10.600615501403809 C13.012078285217285 10.76084041595459 13.336040496826172 10.921064376831055 13.660003662109375 11.081289291381836 L13.660003662109375 11.081289291381836 C12.535238265991211 11.16530704498291 11.410470962524414 11.24930477142334 10.285701751708984 11.333284378051758 L10.285701751708984 11.333284378051758 C10.285701751708984 13.363506317138672 10.285701751708984 15.393732070922852 10.285701751708984 17.423954010009766 L10.285701751708984 17.423954010009766 C10.572534561157227 17.31007957458496 11.90150260925293 16.782493591308594 12.215744018554688 16.65774917602539 L12.215744018554688 16.65774917602539 C11.550779342651367 17.239776611328125 10.64543628692627 17.56743621826172 9.768617630004883 17.67754554748535 L9.768617630004883 17.67754554748535 C9.768617630004883 15.971497535705566 9.768617630004883 14.265450477600098 9.768617630004883 12.559402465820312 C9.768617630004883 10.853355407714844 9.768617630004883 9.147308349609375 9.768617630004883 7.441259860992432 L9.768617630004883 7.441259860992432"></path></svg>