<svg xmlns="http://www.w3.org/2000/svg" viewBox="0.0 0.0 24.0 24.0" height="200px" width="200px"><path fill="none" stroke="black" stroke-width=".3" stroke-opacity="1.0"  filling="0" d="M14.717595100402832 3.2554845809936523 C16.779836654663086 5.219752311706543 16.960851669311523 7.871633529663086 16.895732879638672 10.38969612121582 C16.833602905273438 12.8169527053833 16.27622413635254 15.265714645385742 15.653727531433105 17.630245208740234 C15.309025764465332 18.939159393310547 14.45533275604248 20.095735549926758 15.671052932739258 21.37896156311035 C15.308427810668945 21.106544494628906 14.94580364227295 20.834129333496094 14.506113052368164 20.50376319885254 C13.59985065460205 21.141193389892578 12.664911270141602 21.797740936279297 11.730569839477539 22.45488739013672 C12.693587303161621 21.03903579711914 13.802968978881836 19.69845962524414 14.57541275024414 18.185232162475586 C15.231961250305176 16.898422241210938 15.65014362335205 15.441350936889648 15.911211013793945 14.011761665344238 C16.5850830078125 10.32756519317627 16.002017974853516 6.74313497543335 14.717595100402832 3.2554845809936523"></path>
<path fill="none" stroke="black" stroke-width=".3" stroke-opacity="1.0"  filling="0" d="M8.781182289123535 6.836329936981201 C8.370166778564453 10.021096229553223 7.8026323318481445 13.196303367614746 7.618034362792969 16.39361572265625 C7.532008171081543 17.888322830200195 8.187958717346191 19.426044464111328 8.507570266723633 20.94464874267578 C8.030243873596191 20.317970275878906 7.204630374908447 19.728328704833984 7.132941722869873 19.058040618896484 C6.684887886047363 14.867843627929688 6.508055686950684 10.674656867980957 8.781182289123535 6.836329936981201"></path></svg>