<svg xmlns="http://www.w3.org/2000/svg" viewBox="0.0 0.0 24.0 24.0" height="200px" width="200px"><path fill="none" stroke="black" stroke-width=".3" stroke-opacity="1.0"  filling="0" d="M7.855775356292725 3.4726181030273438 C8.546582221984863 3.708186149597168 9.294292449951172 3.962726593017578 10.042001724243164 4.2178778648376465 C8.7858247756958 4.967423915863037 8.40829849243164 6.073080062866211 8.533121109008789 7.503030776977539 C8.644481658935547 8.781235694885254 8.556371688842773 10.076573371887207 8.556371688842773 11.87854290008545 C10.355894088745117 11.13083267211914 11.70997142791748 10.568520545959473 13.064048767089844 10.006208419799805 C11.859269142150879 10.94665813446045 10.655099868774414 11.88710880279541 9.290008544921875 12.952383041381836 C9.807043075561523 13.64441204071045 10.39199447631836 14.427610397338867 10.977558135986328 15.211421012878418 C10.933503150939941 15.28239917755127 10.889448165893555 15.353376388549805 10.845393180847168 15.424352645874023 C10.278185844421387 14.991758346557617 9.711589813232422 14.559775352478027 8.652435302734375 13.751489639282227 C8.652435302734375 16.85063362121582 8.652435302734375 19.571636199951172 8.652435302734375 22.292644500732422 C8.386882781982422 22.287750244140625 8.121329307556152 22.282855987548828 7.855775356292725 22.27796173095703 C7.855775356292725 16.012367248535156 7.855775356292725 9.746163368225098 7.855775356292725 3.4726181030273438"></path>
<path fill="none" stroke="black" stroke-width=".3" stroke-opacity="1.0"  filling="0" d="M12.949628829956055 3.711857795715332 C12.555582046508789 3.71920108795166 12.163982391357422 3.8764524459838867 11.771159172058105 3.9639501571655273 C13.557219505310059 2.7781381607055664 15.21723461151123 2.804448127746582 16.230497360229492 4.0355401039123535 C17.285980224609375 5.318027973175049 16.836254119873047 7.178737163543701 15.1395263671875 8.548723220825195 C15.309016227722168 8.182823181152344 15.5060396194458 7.826711654663086 15.643710136413574 7.449185371398926 C16.612918853759766 4.797322750091553 15.79729175567627 3.6586246490478516 12.949628829956055 3.711857795715332"></path></svg>