<svg xmlns="http://www.w3.org/2000/svg" viewBox="0.0 0.0 24.0 24.0" height="200px" width="200px"><path fill="none" stroke="black" stroke-width=".3" stroke-opacity="1.0"  filling="0" d="M9.823705673217773 7.678525447845459 C10.853882789611816 5.374589443206787 13.623710632324219 5.533609867095947 14.778870582580566 7.8933892250061035 C16.05582046508789 10.503134727478027 17.080678939819336 13.237329483032227 18.20339584350586 15.922063827514648 C18.952228546142578 17.712772369384766 19.690954208374023 19.508268356323242 20.412132263183594 21.310678482055664 C20.64029312133789 21.880813598632812 21.046619415283203 22.536571502685547 20.928550720214844 23.051925659179688 C20.75729751586914 23.798629760742188 20.331825256347656 24.7325439453125 19.730844497680664 25.052181243896484 C19.311222076416016 25.275554656982422 18.13691520690918 24.795833587646484 17.790685653686523 24.292713165283203 C17.05621337890625 23.224773406982422 16.642440795898438 21.93718719482422 16.02178382873535 20.574609756469727 C13.390764236450195 20.574609756469727 10.933126449584961 20.574609756469727 8.398371696472168 20.574609756469727 C7.935137748718262 21.678180694580078 7.493710041046143 22.722183227539062 7.058663845062256 23.76831817626953 C6.595962047576904 24.879863739013672 5.879571914672852 25.598915100097656 4.610598564147949 25.041011810302734 C3.5442562103271484 24.571929931640625 3.2921648025512695 23.656097412109375 3.713913917541504 22.60784149169922 C5.721615314483643 17.618637084960938 7.629329204559326 12.584759712219238 9.823705673217773 7.678525447845459"></path>
<path fill="none" stroke="black" stroke-width=".3" stroke-opacity="1.0"  filling="0" d="M12.410049438476562 10.487709045410156 C13.247167587280273 12.8182373046875 14.08375358581543 15.149297714233398 14.992138862609863 17.679798126220703 C13.111547470092773 17.679798126220703 11.430930137634277 17.679798126220703 9.471095085144043 17.679798126220703 C10.336400985717773 15.183334350585938 11.131503105163574 12.888972282409668 11.927138328552246 10.594609260559082 C12.087753295898438 10.558975219726562 12.248902320861816 10.523343086242676 12.410049438476562 10.487709045410156"></path></svg>