<svg xmlns="http://www.w3.org/2000/svg" viewBox="0.0 0.0 24.0 24.0" height="200px" width="200px"><path fill="none" stroke="black" stroke-width=".3" stroke-opacity="1.0"  filling="0" d="M12.408143043518066 8.873510360717773 L12.408143043518066 8.873510360717773 C12.887868881225586 8.973566055297852 13.520915031433105 8.808154106140137 13.847320556640625 9.173677444458008 C14.497285842895508 9.901537895202637 13.880654335021973 11.12516975402832 13.878154754638672 12.100992202758789 C13.874163627624512 13.6591796875 13.761420249938965 15.280478477478027 13.890630722045898 16.833953857421875 C13.958550453186035 17.65053939819336 14.229873657226562 18.599931716918945 13.788069725036621 19.290027618408203 L13.788069725036621 19.290027618408203 C13.507699012756348 16.901575088500977 13.577346801757812 14.531970977783203 13.491511344909668 12.132037162780762 L13.491511344909668 12.132037162780762 C13.333307266235352 12.249637603759766 13.175103187561035 12.36723804473877 13.016899108886719 12.484838485717773 L13.016899108886719 12.484838485717773 C13.251128196716309 10.782909393310547 13.917661666870117 9.924185752868652 12.408143043518066 8.873510360717773 L12.408143043518066 8.873510360717773"></path>
<path fill="none" stroke="black" stroke-width=".3" stroke-opacity="1.0"  filling="0" d="M10.932572364807129 10.037484169006348 L10.932572364807129 10.037484169006348 C10.73087215423584 12.099471092224121 10.253250122070312 13.231660842895508 11.5503511428833 14.918357849121094 L11.5503511428833 14.918357849121094 C9.384472846984863 14.071256637573242 10.15527057647705 11.827651023864746 10.932572364807129 10.037484169006348 L10.932572364807129 10.037484169006348"></path></svg>