<svg xmlns="http://www.w3.org/2000/svg" viewBox="0.0 0.0 24.0 24.0" height="200px" width="200px"><path fill="none" stroke="black" stroke-width=".3" stroke-opacity="1.0"  filling="0" d="M16.17851448059082 6.960215091705322 C16.36875343322754 7.006704330444336 16.558990478515625 7.052581787109375 16.74922752380371 7.099071025848389 C15.999285697937012 10.677508354187012 15.267082214355469 14.259615898132324 14.492671966552734 17.832550048828125 C14.063260078430176 19.812618255615234 13.617331504821777 21.792076110839844 13.07597827911377 23.742782592773438 C12.712017059326172 25.05548858642578 12.070344924926758 26.426918029785156 10.419370651245117 26.114948272705078 C8.619752883911133 25.775455474853516 8.48640251159668 24.232751846313477 8.638715744018555 22.65762710571289 C9.16722297668457 23.632061004638672 9.696342468261719 24.60588836669922 10.237695693969727 25.60479164123535 C12.683267593383789 24.007034301757812 13.44238567352295 21.66973304748535 12.549917221069336 18.921985626220703 C11.798750877380371 16.607927322387695 10.95277214050293 14.324457168579102 10.182642936706543 12.016517639160156 C9.974665641784668 11.392583847045898 9.888416290283203 10.727667808532715 10.167963027954102 9.959375381469727 C11.120377540588379 12.597631454467773 12.072792053222656 15.235888481140137 13.02520751953125 17.874143600463867 C13.210552215576172 17.910846710205078 13.396509170532227 17.94754981994629 13.581853866577148 17.984861373901367 C14.447406768798828 14.309776306152344 15.312960624694824 10.63530158996582 16.17851448059082 6.960215091705322"></path></svg>