<svg xmlns="http://www.w3.org/2000/svg" viewBox="0.0 0.0 24.0 24.0" height="200px" width="200px"><path fill="none" stroke="black" stroke-width=".3" stroke-opacity="1.0"  filling="0" d="M8.045039176940918 3.246212959289551 C10.524995803833008 3.246212959289551 12.895800590515137 3.246212959289551 15.587603569030762 3.246212959289551 C15.151586532592773 4.169300556182861 14.76075553894043 4.996148586273193 14.370512008666992 5.822409629821777 C14.23906135559082 5.7854390144348145 14.107610702514648 5.749055862426758 13.976160049438477 5.712084770202637 C14.066533088684082 5.166330814361572 14.157491683959961 4.620575428009033 14.284246444702148 3.8571062088012695 C12.572455406188965 3.8571062088012695 10.884723663330078 3.8571062088012695 8.97458267211914 3.8571062088012695 C8.766256332397461 4.717403411865234 8.528589248657227 5.699760913848877 8.290335655212402 6.682119846343994 C8.208765029907227 6.668623447418213 8.127195358276367 6.653952121734619 8.045039176940918 6.639868259429932 C8.045039176940918 5.595305442810059 8.045039176940918 4.5501556396484375 8.045039176940918 3.246212959289551"></path>
<path fill="none" stroke="black" stroke-width=".3" stroke-opacity="1.0"  filling="0" d="M12.637006759643555 7.192078113555908 C12.742636680603027 7.215551853179932 12.8482666015625 7.239611625671387 12.953897476196289 7.263084888458252 C12.902255058288574 7.726683139801025 12.850614547729492 8.19028091430664 12.794278144836426 8.692023277282715 C13.36878776550293 8.825820922851562 13.980854988098145 8.969008445739746 14.672143936157227 9.130387306213379 C13.385218620300293 9.652081489562988 12.237374305725098 10.117441177368164 10.344250679016113 10.883844375610352 C11.345974922180176 9.27064037322998 11.991491317749023 8.231359481811523 12.637006759643555 7.192078113555908"></path>
<path fill="none" stroke="black" stroke-width=".3" stroke-opacity="1.0"  filling="0" d="M7.946451187133789 16.792078018188477 C8.366037368774414 20.990869522094727 8.533870697021484 21.22736358642578 11.181074142456055 22.446800231933594 C10.211039543151855 22.068878173828125 8.917659759521484 21.95444679260254 8.344910621643066 21.25200843811035 C7.433558940887451 20.135265350341797 6.933577537536621 18.631799697875977 7.946451187133789 16.792078018188477"></path></svg>