<svg xmlns="http://www.w3.org/2000/svg" viewBox="0.0 0.0 24.0 24.0" height="200px" width="200px"><path fill="none" stroke="black" stroke-width=".3" stroke-opacity="1.0"  filling="0" d="M5.303722381591797 3.7663145065307617 C9.917765617370605 3.7663145065307617 14.376490592956543 3.7663145065307617 19.04574203491211 3.7663145065307617 C19.04574203491211 5.067104339599609 19.04574203491211 6.30661678314209 19.04574203491211 7.545522212982178 C17.423397064208984 3.7529659271240234 14.295190811157227 4.598723411560059 10.87697696685791 4.893585205078125 C10.757454872131348 7.373216152191162 10.639145851135254 9.821905136108398 10.505668640136719 12.585476875305176 C13.193402290344238 12.690438270568848 15.737951278686523 13.690298080444336 18.0228271484375 10.758667945861816 C18.116260528564453 12.717134475708008 18.19149398803711 14.29094409942627 18.266725540161133 15.864755630493164 C16.158401489257812 13.089654922485352 13.473703384399414 14.01853084564209 11.004384994506836 14.044618606567383 C9.829791069030762 19.171335220336914 10.342463493347168 21.094608306884766 13.880805969238281 22.965709686279297 C12.035795211791992 22.965709686279297 10.827225685119629 22.965709686279297 9.618656158447266 22.965709686279297 C8.319686889648438 22.96631622314453 7.019503116607666 22.96631622314453 5.639233589172363 22.96631622314453 C7.688705921173096 19.76045036315918 7.501232147216797 6.063931465148926 5.303722381591797 3.7663145065307617"></path></svg>