<svg xmlns="http://www.w3.org/2000/svg" viewBox="0.0 0.0 24.0 24.0" height="200px" width="200px"><path fill="none" stroke="black" stroke-width=".3" stroke-opacity="1.0"  filling="0" d="M17.351863861083984 3.3214197158813477 C17.618623733520508 3.3667736053466797 17.885379791259766 3.411531448364258 18.15273666381836 3.4568872451782227 C17.612058639526367 5.908432960510254 17.071382522583008 8.359979629516602 16.530704498291016 10.811525344848633 L16.599334716796875 10.87060546875 C16.849979400634766 8.354011535644531 17.101221084594727 5.838013648986816 17.351863861083984 3.3214197158813477"></path>
<path fill="none" stroke="black" stroke-width=".3" stroke-opacity="1.0"  filling="0" d="M10.670984268188477 3.9360952377319336 C10.040194511413574 6.41270637512207 9.094904899597168 8.833219528198242 9.468485832214355 11.492444038391113 L9.401647567749023 11.431573867797852 C9.793726921081543 8.92631721496582 11.715338706970215 6.714076995849609 10.670984268188477 3.9360952377319336"></path>
<path fill="none" stroke="black" stroke-width=".3" stroke-opacity="1.0"  filling="0" d="M16.530704498291016 10.811525344848633 C15.982867240905762 14.673845291137695 15.435626029968262 18.536163330078125 14.887786865234375 22.398483276367188 C14.666980743408203 22.391321182250977 14.446174621582031 22.38416290283203 14.22536849975586 22.37700080871582 C13.779579162597656 19.86159896850586 13.33378791809082 17.34679412841797 12.888595581054688 14.831393241882324 C13.019886016845703 14.802151679992676 13.151773452758789 14.77231216430664 13.283062934875488 14.743070602416992 C13.65186882019043 16.029117584228516 14.020675659179688 17.31516456604004 14.47601318359375 18.904972076416016 C15.232126235961914 16.043439865112305 15.916028022766113 13.457023620605469 16.599334716796875 10.870606422424316 L16.530704498291016 10.811525344848633"></path>
<path fill="none" stroke="black" stroke-width=".3" stroke-opacity="1.0"  filling="0" d="M9.402243614196777 11.431572914123535 C8.854406356811523 15.128585815429688 8.306568145751953 18.825002670288086 7.758728981018066 22.52141761779785 C7.45974588394165 22.462337493896484 7.160164833068848 22.403255462646484 6.861181735992432 22.344173431396484 C7.73008394241333 18.727130889892578 8.599583625793457 15.110084533691406 9.468485832214355 11.49303913116455 L9.402243614196777 11.431572914123535"></path></svg>