<svg xmlns="http://www.w3.org/2000/svg" viewBox="0.0 0.0 24.0 24.0" height="200px" width="200px"><path fill="none" stroke="black" stroke-width=".3" stroke-opacity="1.0"  filling="0" d="M14.949250221252441 7.33927059173584 L14.949250221252441 7.33927059173584 C15.590271949768066 9.116433143615723 15.46534252166748 9.995306968688965 15.180509567260742 11.829870223999023 C15.090842247009277 12.407405853271484 15.069137573242188 13.194080352783203 14.552210807800293 13.466795921325684 L14.552210807800293 13.466795921325684 C14.800893783569336 11.532033920288086 16.159988403320312 7.993608474731445 13.739535331726074 7.435186386108398 L13.739535331726074 7.435186386108398 C14.142773628234863 7.403214454650879 14.546011924743652 7.371242523193359 14.949250221252441 7.33927059173584 L14.949250221252441 7.33927059173584"></path>
<path fill="none" stroke="black" stroke-width=".3" stroke-opacity="1.0"  filling="0" d="M11.157310485839844 10.65456771850586 L11.157310485839844 10.65456771850586 C10.556426048278809 13.272221565246582 9.881487846374512 15.173952102661133 11.006585121154785 17.702754974365234 L11.006585121154785 17.702754974365234 C9.832647323608398 17.0477237701416 9.65884780883789 15.768757820129395 9.884273529052734 14.412009239196777 C10.109699249267578 13.055261611938477 10.734349250793457 11.620729446411133 11.157310485839844 10.65456771850586 L11.157310485839844 10.65456771850586"></path></svg>