<svg xmlns="http://www.w3.org/2000/svg" viewBox="0.0 0.0 24.0 24.0" height="200px" width="200px"><path fill="none" stroke="black" stroke-width=".3" stroke-opacity="1.0"  filling="0" d="M13.940376281738281 7.7112603187561035 L13.940376281738281 7.7112603187561035 C15.197887420654297 7.7112603187561035 16.455398559570312 7.7112603187561035 17.712909698486328 7.7112603187561035 L17.712909698486328 7.7112603187561035 C16.927997589111328 8.82457160949707 16.544815063476562 10.722806930541992 16.555946350097656 12.620381355285645 C16.567075729370117 14.517955780029297 16.972518920898438 16.41486930847168 17.764854431152344 17.525535583496094 L17.764854431152344 17.525535583496094 C16.541458129882812 17.525535583496094 15.318062782287598 17.525535583496094 14.094667434692383 17.525535583496094 L14.094667434692383 17.525535583496094 C15.07807445526123 15.896783828735352 14.96899700164795 14.954498291015625 15.014532089233398 13.081731796264648 L15.014532089233398 13.081731796264648 C13.173771858215332 13.081731796264648 11.333006858825684 13.081731796264648 9.492244720458984 13.081731796264648 L9.492244720458984 13.081731796264648 C9.390453338623047 15.174002647399902 9.290178298950195 15.832645416259766 10.661325454711914 17.487194061279297 L10.661325454711914 17.487194061279297 C9.783370018005371 17.486955642700195 7.894169807434082 17.486618041992188 6.964854717254639 17.486576080322266 L6.964854717254639 17.486576080322266 C7.484394073486328 15.985553741455078 7.705677032470703 14.322453498840332 7.689873695373535 12.657849311828613 C7.674070835113525 10.993245124816895 7.421180725097656 9.327136993408203 6.992373943328857 7.820098400115967 L6.992373943328857 7.820098400115967 C8.085082054138184 7.820098400115967 9.177789688110352 7.820098400115967 10.27049732208252 7.820098400115967 L10.27049732208252 7.820098400115967 C9.312665939331055 9.450377464294434 9.407453536987305 10.394952774047852 9.411543846130371 12.260190963745117 L9.411543846130371 12.260190963745117 C11.170162200927734 12.260190963745117 12.928781509399414 12.260190963745117 14.687399864196777 12.260190963745117 L14.687399864196777 12.260190963745117 C15.067517280578613 10.239456176757812 15.060540199279785 9.437871932983398 13.940376281738281 7.7112603187561035 L13.940376281738281 7.7112603187561035"></path></svg>