<svg xmlns="http://www.w3.org/2000/svg" viewBox="0.0 0.0 24.0 24.0" height="200px" width="200px"><path fill="none" stroke="black" stroke-width=".3" stroke-opacity="1.0"  filling="0" d="M15.664523124694824 6.186350345611572 C16.9592342376709 6.0532989501953125 17.703575134277344 7.024734020233154 17.76662826538086 8.968672752380371 C17.821130752563477 10.653989791870117 17.777847290039062 12.342513084411621 17.777847290039062 14.029431343078613 C17.80937385559082 14.031036376953125 17.841434478759766 14.0321044921875 17.872961044311523 14.033708572387695 C17.769832611083984 16.1577205657959 17.824337005615234 18.304174423217773 17.526172637939453 20.400936126708984 C17.077857971191406 23.551952362060547 15.121630668640137 25.152847290039062 11.89206314086914 25.354293823242188 C8.510743141174316 25.565357208251953 6.245664119720459 24.119426727294922 5.322320461273193 21.161304473876953 C4.804007530212402 19.500568389892578 5.139040470123291 18.321273803710938 6.292686462402344 18.018835067749023 C7.806479454040527 17.6218204498291 8.41456127166748 18.643482208251953 8.718602180480957 19.83132553100586 C9.134321212768555 21.4551944732666 10.052321434020996 22.3742618560791 11.752065658569336 22.095333099365234 C13.393567085266113 21.826026916503906 13.750507354736328 20.49337387084961 13.774019241333008 19.08271026611328 C13.822643280029297 16.153444290161133 13.815162658691406 13.223109245300293 13.831193923950195 10.29330825805664 C13.833330154418945 9.849268913269043 13.80821704864502 9.403093338012695 13.843482971191406 8.961726188659668 C13.943405151367188 7.70869255065918 13.969053268432617 6.360546112060547 15.664523124694824 6.186350345611572"></path></svg>