<svg xmlns="http://www.w3.org/2000/svg" viewBox="0.0 0.0 24.0 24.0" height="200px" width="200px"><path fill="none" stroke="black" stroke-width=".3" stroke-opacity="1.0"  filling="0" d="M8.815208435058594 3.4634037017822266 C10.461812973022461 3.4634037017822266 12.12648868560791 3.4634037017822266 13.51695442199707 3.4634037017822266 C13.280693054199219 4.568368434906006 12.8587646484375 5.721669673919678 12.818107604980469 6.888071060180664 C12.702461242675781 10.194381713867188 12.785581588745117 13.5070161819458 12.708333969116211 16.815134048461914 C12.648703575134277 19.36025619506836 10.343457221984863 22.14615821838379 7.857060432434082 22.624553680419922 C7.093614101409912 22.77182388305664 6.242981433868408 22.463733673095703 4.883685111999512 22.297039031982422 C5.765036582946777 21.364643096923828 6.193741321563721 20.9106388092041 6.626963138580322 20.452119827270508 C7.118460178375244 20.673473358154297 7.446877956390381 20.84197425842285 7.790202617645264 20.9725284576416 C9.174796104431152 21.49835968017578 9.902103424072266 21.186655044555664 9.926949501037598 19.7785701751709 C10.010069847106934 15.042040824890137 10.009618759155273 10.302348136901855 9.922431945800781 5.566269397735596 C9.910234451293945 4.894979000091553 9.239847183227539 4.235433101654053 8.815208435058594 3.4634037017822266"></path></svg>