<svg xmlns="http://www.w3.org/2000/svg" viewBox="0.0 0.0 24.0 24.0" height="200px" width="200px"><path fill="none" stroke="black" stroke-width=".3" stroke-opacity="1.0"  filling="0" d="M14.77777099609375 7.344521522521973 L14.77777099609375 7.344521522521973 C14.92353630065918 7.4545207023620605 15.06930160522461 7.564519882202148 15.215066909790039 7.674519062042236 L15.215066909790039 7.674519062042236 C14.924041748046875 9.41951847076416 14.633017539978027 11.164517402648926 14.342000961303711 12.909516334533691 C14.050983428955078 14.654516220092773 13.759973526000977 16.399517059326172 13.468973159790039 18.144519805908203 L13.468973159790039 18.144519805908203 C13.356271743774414 18.130754470825195 13.243571281433105 18.116989135742188 13.13086986541748 18.10322380065918 L13.13086986541748 18.10322380065918 C13.430298805236816 16.14226531982422 13.729856491088867 14.181325912475586 14.029390335083008 12.22038459777832 L14.029390335083008 12.22038459777832 C13.73966121673584 12.603774070739746 13.449932098388672 12.987162590026855 13.160202980041504 13.370552062988281 L13.160202980041504 13.370552062988281 C13.735356330871582 11.544763565063477 14.299797058105469 9.71847915649414 14.82833194732666 7.878693580627441 L14.82833194732666 7.878693580627441 C14.397340774536133 7.909570693969727 13.966349601745605 7.9404473304748535 13.535358428955078 7.971324443817139 L13.535358428955078 7.971324443817139 C13.949496269226074 7.76239013671875 14.363633155822754 7.553455829620361 14.77777099609375 7.344521522521973 L14.77777099609375 7.344521522521973"></path>
<path fill="none" stroke="black" stroke-width=".3" stroke-opacity="1.0"  filling="0" d="M10.881866455078125 10.696605682373047 L10.881866455078125 10.696605682373047 C9.885104179382324 12.824908256530762 9.680639266967773 14.177735328674316 10.384747505187988 16.44088363647461 L10.384747505187988 16.44088363647461 C10.841341018676758 16.111915588378906 11.297934532165527 15.782946586608887 11.754528045654297 15.453977584838867 L11.754528045654297 15.453977584838867 C11.231420516967773 15.552268981933594 10.70831298828125 15.650561332702637 10.185205459594727 15.748852729797363 L10.185205459594727 15.748852729797363 C10.41739273071289 14.064767837524414 10.649624824523926 12.380681991577148 10.881866455078125 10.696605682373047 L10.881866455078125 10.696605682373047"></path></svg>