<svg xmlns="http://www.w3.org/2000/svg" viewBox="0.0 0.0 24.0 24.0" height="200px" width="200px"><path fill="none" stroke="black" stroke-width=".3" stroke-opacity="1.0"  filling="0" d="M12.711520195007324 7.967687129974365 L12.711520195007324 7.967687129974365 C12.598586082458496 8.894886016845703 12.485552787780762 9.822072982788086 12.37243938446045 10.749250411987305 L12.37243938446045 10.749250411987305 C11.881230354309082 10.701107025146484 11.390021324157715 10.652963638305664 10.898812294006348 10.604820251464844 L10.898812294006348 10.604820251464844 C11.70166015625 9.902499198913574 12.342263221740723 8.96842098236084 12.711520195007324 7.967687129974365 L12.711520195007324 7.967687129974365"></path>
<path fill="none" stroke="black" stroke-width=".3" stroke-opacity="1.0"  filling="0" d="M11.206367492675781 15.889348983764648 L11.206367492675781 15.889348983764648 C11.206612586975098 16.701677322387695 11.206707000732422 17.51400375366211 11.206733703613281 18.326332092285156 L11.206733703613281 18.326332092285156 C11.908114433288574 17.666379928588867 12.609493255615234 17.006423950195312 13.310868263244629 16.346466064453125 L13.310868263244629 16.346466064453125 C13.384427070617676 16.430044174194336 13.457986831665039 16.51362419128418 13.531545639038086 16.59720230102539 L13.531545639038086 16.59720230102539 C12.740967750549316 17.320697784423828 11.950390815734863 18.044193267822266 11.159812927246094 18.767688751220703 L11.159812927246094 18.767688751220703 C11.01037311553955 18.702316284179688 10.860932350158691 18.636943817138672 10.711492538452148 18.571571350097656 L10.711492538452148 18.571571350097656 C10.809734344482422 17.680673599243164 10.907976150512695 16.789777755737305 11.006217956542969 15.898880004882812 L11.006217956542969 15.898880004882812 C11.0729341506958 15.895703315734863 11.13965129852295 15.892525672912598 11.206367492675781 15.889348983764648 L11.206367492675781 15.889348983764648"></path></svg>