<svg xmlns="http://www.w3.org/2000/svg" viewBox="0.0 0.0 24.0 24.0" height="200px" width="200px"><path fill="none" stroke="black" stroke-width=".3" stroke-opacity="1.0"  filling="0" d="M12.94099235534668 13.403253555297852 L12.94099235534668 13.403253555297852 C13.444286346435547 15.16582202911377 13.947702407836914 16.928356170654297 14.451118469238281 18.69089126586914 C14.954534530639648 20.45342445373535 15.457950592041016 22.215957641601562 15.961244583129883 23.978527069091797 L15.961244583129883 23.978527069091797 C15.717486381530762 24.053436279296875 15.473729133605957 24.12834358215332 15.229970932006836 24.2032527923584 L15.229970932006836 24.2032527923584 C15.170080184936523 23.935985565185547 14.380159378051758 20.353670120239258 14.268442153930664 20.08157730102539 C13.82474422454834 19.000932693481445 12.666982650756836 18.089210510253906 12.324726104736328 16.956920623779297 C12.164789199829102 16.42780113220215 12.476204872131348 15.829697608947754 12.322854995727539 15.29863166809082 C12.172060012817383 14.776413917541504 11.739908218383789 14.381040573120117 11.448434829711914 13.922245025634766 L11.448434829711914 13.922245025634766 C11.945954322814941 13.749247550964355 12.443472862243652 13.576251029968262 12.94099235534668 13.403253555297852 L12.94099235534668 13.403253555297852"></path></svg>