<svg xmlns="http://www.w3.org/2000/svg" viewBox="0.0 0.0 24.0 24.0" height="200px" width="200px"><path fill="none" stroke="black" stroke-width=".3" stroke-opacity="1.0"  filling="0" d="M13.843320846557617 7.567259788513184 L13.843320846557617 7.567259788513184 C14.311768531799316 7.7245659828186035 14.858717918395996 7.7356486320495605 15.248663902282715 8.039178848266602 C16.971050262451172 9.379867553710938 14.806055068969727 11.306200981140137 13.88653564453125 12.222113609313965 L13.88653564453125 12.222113609313965 C14.61266803741455 13.10038948059082 15.172646522521973 13.413064956665039 15.076932907104492 14.661822319030762 C14.944698333740234 16.387056350708008 13.480111122131348 17.729982376098633 11.894281387329102 18.180063247680664 C9.905447006225586 18.744522094726562 7.720170021057129 18.013134002685547 8.58059310913086 15.774026870727539 L8.58059310913086 15.774026870727539 C9.353168487548828 16.2884464263916 9.729009628295898 17.33002281188965 10.570402145385742 17.72188949584961 C11.826083183288574 18.306705474853516 12.97977352142334 15.832212448120117 13.00649642944336 15.096670150756836 C13.056635856628418 13.716588020324707 12.10407829284668 13.151843070983887 11.257079124450684 12.25865650177002 L11.257079124450684 12.25865650177002 C11.808073997497559 12.059633255004883 12.414071083068848 11.97335147857666 12.910062789916992 11.66158676147461 C13.761807441711426 11.126206398010254 14.723227500915527 9.059014320373535 12.954071998596191 8.872018814086914 C12.073534965515137 8.778947830200195 11.198047637939453 9.48322868347168 10.532588005065918 9.894209861755371 L10.532588005065918 9.894209861755371 C11.553018569946289 8.327713012695312 11.997867584228516 7.861894130706787 13.843320846557617 7.567259788513184 L13.843320846557617 7.567259788513184"></path></svg>