<svg xmlns="http://www.w3.org/2000/svg" viewBox="0.0 0.0 24.0 24.0" height="200px" width="200px"><path fill="none" stroke="black" stroke-width=".3" stroke-opacity="1.0"  filling="0" d="M21.757034301757812 4.464125156402588 C21.757034301757812 10.208051681518555 21.757034301757812 15.5335693359375 21.757034301757812 20.85856056213379 C21.6827335357666 20.864883422851562 21.608428955078125 20.87120819091797 21.534128189086914 20.877002716064453 C21.534128189086914 16.62807846069336 21.534128189086914 12.379678726196289 21.534128189086914 7.489964008331299 C20.363208770751953 8.968629837036133 19.60016441345215 9.931396484375 18.837642669677734 10.894689559936523 C18.75912857055664 10.819860458374023 18.68166160583496 10.745031356811523 18.604724884033203 10.670202255249023 C19.583301544189453 8.743087768554688 20.562402725219727 6.816500663757324 21.757034301757812 4.464125156402588"></path>
<path fill="none" stroke="black" stroke-width=".3" stroke-opacity="1.0"  filling="0" d="M3.0460596084594727 4.709165096282959 C5.354170322418213 8.686702728271484 7.620123386383057 12.590993881225586 9.885549545288086 16.49580955505371 C9.811773300170898 16.56325912475586 9.737471580505371 16.630712509155273 9.662642478942871 16.698163986206055 C7.677562713623047 13.759801864624023 5.6924824714660645 10.821440696716309 3.37277889251709 7.387731552124023 C3.37277889251709 12.325928688049316 3.37277889251709 16.720294952392578 3.37277889251709 21.61212158203125 C2.3942031860351562 19.645483016967773 2.3083086013793945 7.203821659088135 3.0460596084594727 4.709165096282959"></path>
<path fill="none" stroke="black" stroke-width=".3" stroke-opacity="1.0"  filling="0" d="M18.604724884033203 10.670202255249023 C18.68166160583496 10.745031356811523 18.75912857055664 10.819860458374023 18.837116241455078 10.894689559936523 C17.734176635742188 12.482437133789062 16.63071060180664 14.070185661315918 15.52777099609375 15.657933235168457 C15.32489013671875 15.508801460266113 15.121480941772461 15.359143257141113 14.918599128723145 15.210012435913086 C16.147483825683594 13.696565628051758 17.37584114074707 12.183647155761719 18.604724884033203 10.670202255249023"></path>
<path fill="none" stroke="black" stroke-width=".3" stroke-opacity="1.0"  filling="0" d="M9.885549545288086 16.495807647705078 C10.687591552734375 17.626676559448242 11.489106178283691 18.75701904296875 12.375463485717773 20.006454467773438 C12.205252647399902 20.323162078857422 11.971280097961426 20.76001739501953 11.664587020874023 21.331247329711914 C10.944223403930664 19.663928985595703 10.30290699005127 18.181045532226562 9.662116050720215 16.698163986206055 C9.737471580505371 16.630712509155273 9.811773300170898 16.56325912475586 9.885549545288086 16.495807647705078"></path></svg>