<svg xmlns="http://www.w3.org/2000/svg" viewBox="0.0 0.0 24.0 24.0" height="200px" width="200px"><path fill="none" stroke="black" stroke-width=".3" stroke-opacity="1.0"  filling="0" d="M17.332324981689453 7.979442119598389 C19.781879425048828 7.369217395782471 21.485315322875977 7.725830554962158 21.53811264038086 10.296564102172852 C21.651504516601562 15.836191177368164 21.572734832763672 21.37928009033203 21.572734832763672 26.921504974365234 C21.260265350341797 26.798595428466797 20.946929931640625 26.675683975219727 20.63359832763672 26.552772521972656 C20.63359832763672 20.981121063232422 20.63359832763672 15.409466743469238 20.63359832763672 9.764241218566895 C19.534326553344727 9.169596672058105 18.56402587890625 8.645929336547852 17.332324981689453 7.979442119598389"></path>
<path fill="none" stroke="black" stroke-width=".3" stroke-opacity="1.0"  filling="0" d="M5.080226898193359 8.282391548156738 C5.080226898193359 9.937355041503906 5.080226898193359 11.593183517456055 5.080226898193359 13.679200172424316 C6.595834255218506 12.946064949035645 7.683851718902588 12.420665740966797 8.771003723144531 11.894400596618652 C8.84197998046875 12.003462791442871 8.913822174072266 12.11338996887207 8.984798431396484 12.222450256347656 C7.721071243286133 13.531187057495117 5.955315113067627 14.639978408813477 5.33383846282959 16.20319175720215 C4.68985652923584 17.824398040771484 5.146875858306885 19.885313034057617 5.136488914489746 21.754074096679688 C5.126101493835449 23.44192886352539 5.134757041931152 25.129783630371094 4.323721408843994 26.81937026977539 C4.323721408843994 20.659996032714844 4.323721408843994 14.49975872039795 4.323721408843994 8.340385437011719 C4.575602054595947 8.320476531982422 4.8283467292785645 8.301433563232422 5.080226898193359 8.282391548156738"></path></svg>