<svg xmlns="http://www.w3.org/2000/svg" viewBox="0.0 0.0 24.0 24.0" height="200px" width="200px"><path fill="none" stroke="black" stroke-width=".3" stroke-opacity="1.0"  filling="0" d="M21.068416595458984 8.60525131225586 C21.296175003051758 10.16084098815918 21.475318908691406 11.380645751953125 21.654464721679688 12.601350784301758 C21.468116760253906 12.641861915588379 21.282670974731445 12.682371139526367 21.096323013305664 12.721981048583984 C20.77764320373535 11.810953140258789 20.459863662719727 10.899024963378906 19.928730010986328 9.380346298217773 C16.174793243408203 11.044862747192383 12.589195251464844 12.634659767150879 9.003599166870117 14.223557472229004 C9.004501342773438 14.224456787109375 8.706526756286621 13.907577514648438 8.706526756286621 13.907577514648438 C12.257013320922852 11.172693252563477 16.1414852142334 9.254313468933105 21.068416595458984 8.60525131225586"></path>
<path fill="none" stroke="black" stroke-width=".3" stroke-opacity="1.0"  filling="0" d="M7.005100727081299 9.344335556030273 C7.059114456176758 10.50922679901123 6.974493503570557 11.706525802612305 7.233757972717285 12.823705673217773 C7.338184356689453 13.27471923828125 8.193397521972656 13.551087379455566 8.706526756286621 13.907575607299805 L9.004501342773438 14.224456787109375 C7.635258674621582 15.49017333984375 6.952888488769531 16.937734603881836 7.074418544769287 18.917329788208008 C7.257164478302002 21.870067596435547 7.122130393981934 24.842613220214844 6.4415602684021 27.805252075195312 C6.4415602684021 21.67742156982422 6.4415602684021 15.548687934875488 6.4415602684021 9.420855522155762 C6.629707336425781 9.395648956298828 6.816954135894775 9.369543075561523 7.005100727081299 9.344335556030273"></path></svg>