<svg xmlns="http://www.w3.org/2000/svg" viewBox="0.0 0.0 24.0 24.0" height="200px" width="200px"><path fill="none" stroke="black" stroke-width=".3" stroke-opacity="1.0"  filling="0" d="M12.141908645629883 7.298651218414307 L12.141908645629883 7.298651218414307 C13.491252899169922 7.422758102416992 15.191486358642578 8.133874893188477 16.138628005981445 9.168843269348145 C17.08576774597168 10.203811645507812 17.279815673828125 11.562629699707031 15.616787910461426 12.98214054107666 C14.418607711791992 14.004870414733887 12.623000144958496 14.121474266052246 11.152294158935547 14.39065933227539 L11.152294158935547 14.39065933227539 C10.917165756225586 16.550922393798828 10.883977890014648 16.819751739501953 12.63943862915039 18.075510025024414 L12.63943862915039 18.075510025024414 C11.210826873779297 18.075510025024414 9.782217025756836 18.075510025024414 8.353605270385742 18.075510025024414 L8.353605270385742 18.075510025024414 C8.874227523803711 16.499740600585938 9.036827087402344 14.85688591003418 9.067814826965332 13.197742462158203 C9.098803520202637 11.538599014282227 8.99818229675293 9.863166809082031 8.992362022399902 8.222246170043945 L8.992362022399902 8.222246170043945 C8.621994018554688 7.982783317565918 8.251626014709473 7.743319988250732 7.8812575340271 7.503857135772705 L7.8812575340271 7.503857135772705 C8.895926475524902 6.9408040046691895 11.008832931518555 7.287100791931152 12.141908645629883 7.298651218414307 L12.141908645629883 7.298651218414307"></path>
<path fill="none" stroke="black" stroke-width=".3" stroke-opacity="1.0"  filling="0" d="M12.369234085083008 7.839060306549072 L12.369234085083008 7.839060306549072 C14.392474174499512 8.538514137268066 15.763208389282227 12.296285629272461 13.095832824707031 13.402449607849121 C12.454126358032227 13.66856575012207 11.707576751708984 13.458684921264648 11.013448715209961 13.48680305480957 L11.013448715209961 13.48680305480957 C11.011383056640625 11.712359428405762 10.104388236999512 8.123895645141602 12.369234085083008 7.839060306549072 L12.369234085083008 7.839060306549072"></path></svg>