<svg xmlns="http://www.w3.org/2000/svg" viewBox="0.0 0.0 24.0 24.0" height="200px" width="200px"><path fill="none" stroke="black" stroke-width=".3" stroke-opacity="1.0"  filling="0" d="M20.75584602355957 9.152111053466797 C21.83208656311035 8.822184562683105 22.267250061035156 9.737445831298828 22.27862548828125 11.027002334594727 C22.309913635253906 14.579397201538086 22.289432525634766 18.132360458374023 22.289432525634766 21.684757232666016 C21.051074981689453 17.635766983032227 22.642112731933594 13.244902610778809 20.75584602355957 9.152111053466797"></path>
<path fill="none" stroke="black" stroke-width=".3" stroke-opacity="1.0"  filling="0" d="M3.096257209777832 9.435392379760742 C3.5359697341918945 11.346689224243164 4.111633777618408 13.148768424987793 3.6434803009033203 15.261434555053711 C3.191253662109375 17.302997589111328 3.545639991760254 19.52317237854004 3.096257209777832 21.665416717529297 C3.096257209777832 17.589120864868164 3.096257209777832 13.512256622314453 3.096257209777832 9.435392379760742"></path>
<path fill="none" stroke="black" stroke-width=".3" stroke-opacity="1.0"  filling="0" d="M11.794364929199219 9.818788528442383 C10.656119346618652 9.991716384887695 9.877948760986328 10.110033988952637 8.56165599822998 10.310266494750977 C12.112914085388184 8.431961059570312 12.393919944763184 8.638449668884277 12.841596603393555 12.967309951782227 C13.610665321350098 12.610078811645508 14.330246925354004 12.275602340698242 15.0492582321167 11.941694259643555 C12.29039192199707 13.301218032836914 12.554333686828613 15.758600234985352 12.640227317810059 18.1630802154541 C12.682890892028809 19.35763931274414 12.647623062133789 20.55504608154297 12.647623062133789 21.750743865966797 C12.363203048706055 21.671672821044922 12.078783988952637 21.592605590820312 11.794364929199219 21.51353645324707 C11.794364929199219 17.68980598449707 11.794364929199219 13.866073608398438 11.794364929199219 9.818788528442383"></path></svg>