<svg xmlns="http://www.w3.org/2000/svg" viewBox="0.0 0.0 24.0 24.0" height="200px" width="200px"><path fill="none" stroke="black" stroke-width=".3" stroke-opacity="1.0"  filling="0" d="M10.808586120605469 7.910904884338379 L10.808586120605469 7.910904884338379 C10.880537033081055 7.912984848022461 10.95248794555664 7.915065288543701 11.024438858032227 7.917145252227783 L11.024438858032227 7.917145252227783 C11.077668190002441 8.560054779052734 11.13089656829834 9.202964782714844 11.184125900268555 9.845873832702637 L11.184125900268555 9.845873832702637 C12.671481132507324 9.683381080627441 14.158838272094727 9.520872116088867 15.64619255065918 9.358368873596191 L15.64619255065918 9.358368873596191 C15.659652709960938 9.446105003356934 15.673113822937012 9.533841133117676 15.68657398223877 9.621577262878418 L15.68657398223877 9.621577262878418 C14.190648078918457 9.873510360717773 12.69472885131836 10.125456809997559 11.198810577392578 10.37743091583252 L11.198810577392578 10.37743091583252 C11.198810577392578 11.673222541809082 11.198810577392578 12.969015121459961 11.198810577392578 14.264806747436523 C11.198810577392578 15.560599327087402 11.198810577392578 16.85639190673828 11.198810577392578 18.152183532714844 L11.198810577392578 18.152183532714844 C12.823993682861328 17.903778076171875 13.907730102539062 17.322307586669922 15.382617950439453 16.625059127807617 L15.382617950439453 16.625059127807617 C13.788759231567383 17.917871475219727 12.75353717803955 18.364337921142578 10.723419189453125 18.710905075073242 L10.723419189453125 18.710905075073242 C10.723419189453125 17.333005905151367 10.723419189453125 15.955106735229492 10.723419189453125 14.5772066116333 C10.723419189453125 13.19930648803711 10.723419189453125 11.821407318115234 10.723419189453125 10.44350814819336 L10.723419189453125 10.44350814819336 C9.813262939453125 10.515093803405762 8.903106689453125 10.586677551269531 7.992950439453125 10.658260345458984 L7.992950439453125 10.658260345458984 C7.981448173522949 10.581537246704102 7.969945430755615 10.504813194274902 7.9584431648254395 10.42809009552002 L7.9584431648254395 10.42809009552002 C8.447566986083984 10.31665325164795 10.115436553955078 9.936790466308594 10.590530395507812 9.828620910644531 L10.590530395507812 9.828620910644531 C10.663215637207031 9.189382553100586 10.73590087890625 8.550143241882324 10.808586120605469 7.910904884338379 L10.808586120605469 7.910904884338379"></path></svg>