<svg xmlns="http://www.w3.org/2000/svg" viewBox="0.0 0.0 24.0 24.0" height="200px" width="200px"><path fill="none" stroke="black" stroke-width=".3" stroke-opacity="1.0"  filling="0" d="M15.980623245239258 8.751282691955566 L15.980623245239258 8.751282691955566 C16.067678451538086 8.779203414916992 16.15473175048828 8.807125091552734 16.24178695678711 8.83504581451416 L16.24178695678711 8.83504581451416 C15.606751441955566 11.147571563720703 14.44100570678711 13.38247013092041 13.49809455871582 15.586647987365723 C13.122947692871094 16.46360206604004 12.614882469177246 17.825695037841797 11.96888256072998 18.55351448059082 C11.097892761230469 19.534820556640625 9.033052444458008 20.0751895904541 7.951064109802246 19.037212371826172 C7.537223815917969 18.64020538330078 7.475185871124268 17.993635177612305 7.237246990203857 17.471845626831055 L7.237246990203857 17.471845626831055 C7.551486492156982 17.895599365234375 7.747037887573242 18.441631317138672 8.17996597290039 18.743104934692383 C10.232178688049316 20.17218589782715 11.731837272644043 18.2294864654541 12.495598793029785 16.632171630859375 L12.495598793029785 16.632171630859375 C11.655059814453125 15.359294891357422 10.814506530761719 14.08642578125 9.973928451538086 12.81357479095459 C9.133349418640137 11.54072380065918 8.292745590209961 10.267889976501465 7.452103137969971 8.995080947875977 L7.452103137969971 8.995080947875977 C7.555728912353516 8.924257278442383 7.659354209899902 8.853432655334473 7.762979984283447 8.782608985900879 L7.762979984283447 8.782608985900879 C8.58991813659668 10.003829956054688 9.416901588439941 11.225022315979004 10.243880271911621 12.446216583251953 C11.070859909057617 13.667411804199219 11.897834777832031 14.888608932495117 12.72475528717041 16.10984230041504 L12.72475528717041 16.10984230041504 C13.267337799072266 14.883387565612793 13.809940338134766 13.656942367553711 14.352579116821289 12.430513381958008 C14.895218849182129 11.204084396362305 15.437894821166992 9.977672576904297 15.980623245239258 8.751282691955566 L15.980623245239258 8.751282691955566"></path></svg>