<svg xmlns="http://www.w3.org/2000/svg" viewBox="0.0 0.0 24.0 24.0" height="200px" width="200px"><path fill="none" stroke="black" stroke-width=".3" stroke-opacity="1.0"  filling="0" d="M14.521658897399902 7.103198051452637 L14.521658897399902 7.103198051452637 C13.073741912841797 7.449991226196289 11.625798225402832 7.796688079833984 10.177839279174805 8.14330768585205 L10.177839279174805 8.14330768585205 C11.776390075683594 7.354420185089111 12.741025924682617 7.031906604766846 14.521658897399902 7.103198051452637 L14.521658897399902 7.103198051452637"></path>
<path fill="none" stroke="black" stroke-width=".3" stroke-opacity="1.0"  filling="0" d="M15.403909683227539 10.901598930358887 L15.403909683227539 10.901598930358887 C17.493013381958008 11.912864685058594 17.81296157836914 12.130308151245117 17.304527282714844 14.408857345581055 L17.304527282714844 14.408857345581055 C17.27757453918457 12.498022079467773 16.849849700927734 12.10234260559082 15.403909683227539 10.901598930358887 L15.403909683227539 10.901598930358887"></path>
<path fill="none" stroke="black" stroke-width=".3" stroke-opacity="1.0"  filling="0" d="M7.801435470581055 10.961151123046875 L7.801435470581055 10.961151123046875 C6.737062454223633 13.440279006958008 6.615133762359619 14.08316421508789 8.190256118774414 16.276077270507812 L8.190256118774414 16.276077270507812 C8.18941593170166 15.849970817565918 8.18857479095459 15.42386531829834 8.187734603881836 14.997758865356445 L8.187734603881836 14.997758865356445 C6.75846004486084 14.609155654907227 7.476601600646973 12.045892715454102 7.801435470581055 10.961151123046875 L7.801435470581055 10.961151123046875"></path>
<path fill="none" stroke="black" stroke-width=".3" stroke-opacity="1.0"  filling="0" d="M12.043797492980957 11.68995189666748 L12.043797492980957 11.68995189666748 C10.800402641296387 12.750810623168945 9.556940078735352 13.811596870422363 8.313455581665039 14.872352600097656 L8.313455581665039 14.872352600097656 C9.486631393432617 13.38662338256836 10.346430778503418 12.54367446899414 12.043797492980957 11.68995189666748 L12.043797492980957 11.68995189666748"></path>
<path fill="none" stroke="black" stroke-width=".3" stroke-opacity="1.0"  filling="0" d="M8.368911743164062 16.416290283203125 L8.368911743164062 16.416290283203125 C10.921797752380371 17.405776977539062 12.601736068725586 17.32131576538086 15.17137336730957 16.418811798095703 L15.17137336730957 16.418811798095703 C12.544641494750977 17.928390502929688 11.005355834960938 17.895334243774414 8.368911743164062 16.416290283203125 L8.368911743164062 16.416290283203125"></path></svg>