<svg xmlns="http://www.w3.org/2000/svg" viewBox="0.0 0.0 24.0 24.0" height="200px" width="200px"><path fill="none" stroke="black" stroke-width=".3" stroke-opacity="1.0"  filling="0" d="M6.9635162353515625 7.028651237487793 L6.9635162353515625 7.028651237487793 C7.127368450164795 8.789766311645508 7.3933916091918945 10.606630325317383 7.583770751953125 12.424322128295898 C7.7741498947143555 14.242013931274414 7.8888840675354 16.060535430908203 7.750158309936523 17.824968338012695 L7.750158309936523 17.824968338012695 C7.5960001945495605 17.81391716003418 7.441842079162598 17.80286407470703 7.287683963775635 17.791812896728516 L7.287683963775635 17.791812896728516 C7.3368239402771 15.985095977783203 7.188967704772949 14.198057174682617 7.062233924865723 12.410821914672852 C6.935500144958496 10.62358570098877 6.829888343811035 8.836153984069824 6.9635162353515625 7.028651237487793 L6.9635162353515625 7.028651237487793"></path>
<path fill="none" stroke="black" stroke-width=".3" stroke-opacity="1.0"  filling="0" d="M12.952911376953125 7.306604862213135 L12.952911376953125 7.306604862213135 C13.073040008544922 9.084583282470703 13.364906311035156 10.822983741760254 13.705096244812012 12.554028511047363 C14.045286178588867 14.285074234008789 14.433799743652344 16.00876235961914 14.74721908569336 17.757320404052734 L14.74721908569336 17.757320404052734 C14.593506813049316 17.780986785888672 14.43979549407959 17.804651260375977 14.286083221435547 17.828317642211914 L14.286083221435547 17.828317642211914 C13.992639541625977 16.32854461669922 13.699180603027344 14.828777313232422 13.40575122833252 13.329004287719727 C13.112321853637695 11.829230308532715 12.818922996520996 10.329450607299805 12.52560043334961 8.829655647277832 L12.52560043334961 8.829655647277832 C12.217061042785645 9.351404190063477 11.908520698547363 9.873153686523438 11.599981307983398 10.394902229309082 L11.599981307983398 10.394902229309082 C11.535683631896973 10.37157154083252 11.471385955810547 10.348241806030273 11.407088279724121 10.324911117553711 L11.407088279724121 10.324911117553711 C11.79745101928711 9.324390411376953 12.187813758850098 8.323869705200195 12.578176498413086 7.3233489990234375 L12.578176498413086 7.3233489990234375 C12.70308780670166 7.31776762008667 12.82800006866455 7.312186241149902 12.952911376953125 7.306604862213135 L12.952911376953125 7.306604862213135"></path></svg>