<svg xmlns="http://www.w3.org/2000/svg" viewBox="0.0 0.0 24.0 24.0" height="200px" width="200px"><path fill="none" stroke="black" stroke-width=".3" stroke-opacity="1.0"  filling="0" d="M5.840811252593994 6.2618513107299805 C7.129515647888184 5.848271369934082 7.867670059204102 6.633326530456543 8.263129234313965 7.73496150970459 C9.429252624511719 10.983372688293457 10.54847526550293 14.248838424682617 11.69114875793457 17.505775451660156 C12.008794784545898 18.411813735961914 12.344027519226074 19.31252098083496 12.67126750946045 20.215362548828125 C12.837552070617676 20.241477966308594 13.004369735717773 20.268657684326172 13.171186447143555 20.295305252075195 C14.47321605682373 16.536848068237305 15.765650749206543 12.77519416809082 17.084735870361328 9.022601127624512 C17.346420288085938 8.277519226074219 17.56546974182129 7.431172847747803 18.076580047607422 6.888616561889648 C18.467243194580078 6.474503993988037 19.450559616088867 6.1446003913879395 19.879594802856445 6.358851432800293 C20.458393096923828 6.647717475891113 20.90341567993164 7.447694778442383 21.12406349182129 8.120827674865723 C21.259437561035156 8.53387451171875 20.89755630493164 9.130792617797852 20.71048355102539 9.626448631286621 C19.054567337036133 14.014333724975586 17.389057159423828 18.398488998413086 15.723014831542969 22.78264617919922 C15.597234725952148 23.113079071044922 15.479449272155762 23.4547119140625 15.299308776855469 23.755836486816406 C14.050043106079102 25.839187622070312 11.416139602661133 25.940452575683594 10.463200569152832 23.704669952392578 C8.384644508361816 18.825393676757812 6.594420909881592 13.822466850280762 4.740242004394531 8.849920272827148 C4.326129913330078 7.740291595458984 4.56223201751709 6.672766208648682 5.840811252593994 6.2618513107299805"></path></svg>