<svg xmlns="http://www.w3.org/2000/svg" viewBox="0.0 0.0 24.0 24.0" height="200px" width="200px"><path fill="none" stroke="black" stroke-width=".3" stroke-opacity="1.0"  filling="0" d="M6.721853733062744 9.355742454528809 L6.721853733062744 9.355742454528809 C6.832159042358398 9.388739585876465 6.9424638748168945 9.421736717224121 7.052769184112549 9.454733848571777 L7.052769184112549 9.454733848571777 C7.040773391723633 11.70545482635498 7.164953231811523 13.988279342651367 7.089537620544434 16.234254837036133 C7.0746378898620605 16.6779842376709 6.823812007904053 17.12856101989746 6.938162326812744 17.55756187438965 C7.0569610595703125 18.003250122070312 7.685427665710449 18.22587776184082 7.742411136627197 18.68359375 C7.804052352905273 19.178722381591797 7.417152404785156 19.62700080871582 7.254523277282715 20.098705291748047 L7.254523277282715 20.098705291748047 C7.076966762542725 20.051565170288086 6.899410247802734 20.004426956176758 6.721853733062744 19.957286834716797 L6.721853733062744 19.957286834716797 C6.721853733062744 18.19036293029785 6.721853733062744 16.423439025878906 6.721853733062744 14.656515121459961 C6.721853733062744 12.8895902633667 6.721853733062744 11.122666358947754 6.721853733062744 9.355742454528809 L6.721853733062744 9.355742454528809"></path>
<path fill="none" stroke="black" stroke-width=".3" stroke-opacity="1.0"  filling="0" d="M12.76883602142334 9.361869812011719 L12.76883602142334 9.361869812011719 C12.930835723876953 10.532049179077148 13.018448829650879 11.855649948120117 13.152294158935547 13.166549682617188 C13.286138534545898 14.477449417114258 13.466215133666992 15.77564811706543 13.813139915466309 16.8950252532959 C14.008506774902344 17.525390625 14.662881851196289 17.97014617919922 14.788268089294434 18.618070602416992 C14.888059616088867 19.133739471435547 14.558857917785645 19.643184661865234 14.44415283203125 20.155742645263672 L14.44415283203125 20.155742645263672 C13.976949691772461 18.945697784423828 13.748272895812988 17.71683120727539 13.536277770996094 16.486862182617188 C13.324281692504883 15.256892204284668 13.128969192504883 14.025822639465332 12.728492736816406 12.811376571655273 C12.531238555908203 12.213201522827148 11.95020866394043 11.716028213500977 11.957574844360352 11.086212158203125 C11.96500301361084 10.45103931427002 12.49841594696045 9.936650276184082 12.76883602142334 9.361869812011719 L12.76883602142334 9.361869812011719"></path></svg>