<svg xmlns="http://www.w3.org/2000/svg" viewBox="0.0 0.0 24.0 24.0" height="200px" width="200px"><path fill="none" stroke="black" stroke-width=".3" stroke-opacity="1.0"  filling="0" d="M17.225854873657227 7.105784893035889 L17.225854873657227 7.105784893035889 C17.23480224609375 7.215846061706543 17.24374771118164 7.325907230377197 17.252695083618164 7.435968399047852 L17.252695083618164 7.435968399047852 C15.494194030761719 7.505185127258301 13.735692977905273 7.574477195739746 11.977201461791992 7.643909454345703 L12.012127876281738 7.675925254821777 C13.663289070129395 7.056460857391357 15.474708557128906 7.181299209594727 17.225854873657227 7.105784893035889 L17.225854873657227 7.105784893035889"></path>
<path fill="none" stroke="black" stroke-width=".3" stroke-opacity="1.0"  filling="0" d="M10.01485824584961 7.52134370803833 L10.01485824584961 7.52134370803833 C10.198505401611328 7.535573482513428 11.79035758972168 7.659011363983154 12.012450218200684 7.676248550415039 L11.977201461791992 7.643586158752441 C11.416223526000977 7.748688220977783 10.855246543884277 7.853790760040283 10.294268608093262 7.958892822265625 L10.294268608093262 7.958892822265625 C10.185725212097168 8.319157600402832 9.612239837646484 10.222923278808594 9.507132530212402 10.571900367736816 L9.507132530212402 10.571900367736816 C9.429303169250488 10.551311492919922 9.351472854614258 10.530721664428711 9.273643493652344 10.510132789611816 L9.273643493652344 10.510132789611816 C9.316143989562988 10.338729858398438 9.984838485717773 7.642372131347656 10.01485824584961 7.52134370803833 L10.01485824584961 7.52134370803833"></path>
<path fill="none" stroke="black" stroke-width=".3" stroke-opacity="1.0"  filling="0" d="M12.515002250671387 10.560905456542969 L12.515002250671387 10.560905456542969 C14.266100883483887 10.03062915802002 14.905265808105469 10.073363304138184 16.572277069091797 10.83061408996582 L16.572277069091797 10.83061408996582 C15.21985149383545 10.74073600769043 13.867426872253418 10.650824546813965 12.515002250671387 10.560905456542969 L12.515002250671387 10.560905456542969"></path>
<path fill="none" stroke="black" stroke-width=".3" stroke-opacity="1.0"  filling="0" d="M8.002066612243652 15.969961166381836 L8.002066612243652 15.969961166381836 C8.488863945007324 16.38555335998535 8.903436660766602 16.90499496459961 9.462458610534668 17.21673583984375 C11.422910690307617 18.30998992919922 13.655533790588379 16.894989013671875 15.379931449890137 16.045310974121094 L15.379931449890137 16.045310974121094 C14.04283332824707 17.025753021240234 12.777875900268555 17.70150375366211 11.557438850402832 17.78485107421875 C10.33700180053711 17.86819839477539 9.161084175109863 17.35913848876953 8.002066612243652 15.969961166381836 L8.002066612243652 15.969961166381836"></path></svg>