<svg xmlns="http://www.w3.org/2000/svg" viewBox="0.0 0.0 24.0 24.0" height="200px" width="200px"><path fill="none" stroke="black" stroke-width=".3" stroke-opacity="1.0"  filling="0" d="M10.630970001220703 9.22734260559082 L10.630970001220703 9.22734260559082 C10.767269134521484 10.026915550231934 11.210651397705078 10.821423530578613 11.830681800842285 11.344353675842285 L11.830681800842285 11.344353675842285 C10.891349792480469 12.502034187316895 10.41978931427002 13.677984237670898 10.119508743286133 14.919570922851562 C9.819229125976562 16.161157608032227 9.690228462219238 17.468381881713867 9.436016082763672 18.88861083984375 L9.436016082763672 18.88861083984375 C10.234367370605469 18.67361068725586 11.032729148864746 18.458650588989258 11.831114768981934 18.243778228759766 L11.831114768981934 18.243778228759766 C10.812469482421875 18.838298797607422 9.793824195861816 19.43282127380371 8.77518081665039 20.02734375 L8.77518081665039 20.02734375 C9.084409713745117 18.227331161499023 9.393695831298828 16.427330017089844 9.703003883361816 14.627330780029297 C10.012312889099121 12.827333450317383 10.321645736694336 11.027338981628418 10.630970001220703 9.22734260559082 L10.630970001220703 9.22734260559082"></path>
<path fill="none" stroke="black" stroke-width=".3" stroke-opacity="1.0"  filling="0" d="M15.262445449829102 14.744978904724121 L15.262445449829102 14.744978904724121 C14.264952659606934 16.507658004760742 13.497684478759766 17.29932403564453 11.744185447692871 18.31470489501953 L11.744185447692871 18.31470489501953 C12.91701889038086 17.124876022338867 14.08975601196289 15.934948921203613 15.262445449829102 14.744978904724121 L15.262445449829102 14.744978904724121"></path></svg>