<svg xmlns="http://www.w3.org/2000/svg" viewBox="0.0 0.0 24.0 24.0" height="200px" width="200px"><path fill="none" stroke="black" stroke-width=".3" stroke-opacity="1.0"  filling="0" d="M14.939550399780273 6.9740495681762695 L14.939550399780273 6.9740495681762695 C15.40729808807373 7.219489574432373 16.12895393371582 7.227356910705566 16.342792510986328 7.710370063781738 C16.865459442138672 8.890959739685059 15.087772369384766 10.071697235107422 14.565183639526367 10.557283401489258 L14.565183639526367 10.557283401489258 C15.275152206420898 11.5846586227417 17.098003387451172 10.94723892211914 16.878948211669922 12.760831832885742 C16.66061019897461 14.568490028381348 15.284875869750977 15.731395721435547 13.616263389587402 16.4874267578125 C11.947650909423828 17.243457794189453 9.986160278320312 17.592613220214844 8.596309661865234 17.772775650024414 L8.596309661865234 17.772775650024414 C8.898002624511719 16.0546875 9.199728965759277 14.3366060256958 9.501468658447266 12.61852741241455 C9.80320930480957 10.900447845458984 10.104962348937988 9.182371139526367 10.406708717346191 7.464293003082275 L10.406708717346191 7.464293003082275 C11.936612129211426 7.354681015014648 13.416290283203125 7.121556282043457 14.939550399780273 6.9740495681762695 L14.939550399780273 6.9740495681762695"></path>
<path fill="none" stroke="black" stroke-width=".3" stroke-opacity="1.0"  filling="0" d="M15.88597583770752 8.200613021850586 L15.88597583770752 8.200613021850586 C14.44793701171875 10.136369705200195 13.037284851074219 10.512688636779785 10.76961612701416 11.12743091583252 L10.76961612701416 11.12743091583252 C10.748022079467773 10.577020645141602 10.564088821411133 10.008749961853027 10.704833984375 9.476201057434082 C11.316611289978027 7.161361217498779 14.35184097290039 7.614619255065918 15.88597583770752 8.200613021850586 L15.88597583770752 8.200613021850586"></path>
<path fill="none" stroke="black" stroke-width=".3" stroke-opacity="1.0"  filling="0" d="M14.440711975097656 11.407888412475586 L14.440711975097656 11.407888412475586 C14.964009284973145 11.668967247009277 15.75765323638916 11.663849830627441 16.010604858398438 12.191123962402344 C16.262531280517578 12.716261863708496 15.908549308776855 13.383353233337402 15.635123252868652 13.897624969482422 C14.50809097290039 16.017398834228516 11.605387687683105 16.55904769897461 9.525543212890625 16.975971221923828 L9.525543212890625 16.975971221923828 C9.717897415161133 15.79127025604248 9.647257804870605 12.960389137268066 10.521946907043457 12.040111541748047 C11.322717666625977 11.197604179382324 13.428947448730469 11.456144332885742 14.440711975097656 11.407888412475586 L14.440711975097656 11.407888412475586"></path></svg>