<svg xmlns="http://www.w3.org/2000/svg" viewBox="0.0 0.0 24.0 24.0" height="200px" width="200px"><path fill="none" stroke="black" stroke-width=".3" stroke-opacity="1.0"  filling="0" d="M15.413065910339355 6.9266438484191895 L15.413065910339355 6.9266438484191895 C15.557931900024414 6.969948768615723 15.702797889709473 7.013254165649414 15.847663879394531 7.056559085845947 L15.847663879394531 7.056559085845947 C15.65964126586914 8.48975944519043 15.573569297790527 10.365143775939941 15.244558334350586 12.141623497009277 C14.915547370910645 13.91810417175293 14.343597412109375 15.595680236816406 13.183816909790039 16.63326644897461 C12.147714614868164 17.560205459594727 10.329731941223145 18.218971252441406 9.043379783630371 17.309059143066406 C7.944461345672607 16.53173065185547 8.198379516601562 15.008744239807129 9.270536422729492 14.49917221069336 L9.270536422729492 14.49917221069336 C9.226741790771484 14.95624828338623 9.040712356567383 15.421906471252441 9.139152526855469 15.870399475097656 C9.691651344299316 18.387590408325195 12.830395698547363 16.3951416015625 13.545221328735352 15.181884765625 C14.247186660766602 13.990455627441406 14.448744773864746 12.562095642089844 14.607513427734375 11.11386775970459 C14.76628303527832 9.665639877319336 14.882261276245117 8.19754409790039 15.413065910339355 6.9266438484191895 L15.413065910339355 6.9266438484191895"></path></svg>