<svg xmlns="http://www.w3.org/2000/svg" viewBox="0.0 0.0 24.0 24.0" height="200px" width="200px"><path fill="none" stroke="black" stroke-width=".3" stroke-opacity="1.0"  filling="0" d="M17.219280242919922 7.418430805206299 C19.68686866760254 6.802543640136719 20.958248138427734 8.001179695129395 20.623634338378906 10.487360000610352 C19.947126388549805 15.515487670898438 18.87619400024414 20.490272521972656 17.93215560913086 25.48041534423828 C17.911144256591797 25.590333938598633 17.452863693237305 25.617815017700195 16.731903076171875 25.804519653320312 C16.676136016845703 24.559005737304688 16.622791290283203 23.383808135986328 16.551664352416992 21.785898208618164 C15.371618270874023 22.578792572021484 14.400100708007812 23.365219116210938 13.313810348510742 23.931804656982422 C11.539700508117676 24.8564453125 9.756698608398438 25.89989471435547 7.84841775894165 26.37676239013672 C6.7613205909729 26.648334503173828 5.123804569244385 26.21996307373047 4.305854797363281 25.47718048095703 C3.8491926193237305 25.062545776367188 4.270290851593018 23.19144630432129 4.800504207611084 22.26599884033203 C6.833255290985107 18.716968536376953 10.18507194519043 16.74645233154297 13.898176193237305 15.355453491210938 C15.258462905883789 14.844639778137207 16.69795799255371 14.539929389953613 18.12775421142578 14.134186744689941 C18.338706970214844 13.42292594909668 18.6005802154541 12.79733943939209 18.704036712646484 12.146697998046875 C19.159082412719727 9.289530754089355 18.19403076171875 8.281641960144043 15.407989501953125 9.19981575012207 C13.068102836608887 9.970887184143066 10.914922714233398 11.30530834197998 8.420660018920898 12.516069412231445 C8.537856101989746 11.909880638122559 8.47966194152832 10.989282608032227 8.77790641784668 10.854305267333984 C11.548590660095215 9.598283767700195 14.297451972961426 8.14828109741211 17.219280242919922 7.418430805206299"></path>
<path fill="none" stroke="black" stroke-width=".3" stroke-opacity="1.0"  filling="0" d="M17.496509552001953 16.301916122436523 C11.803998947143555 16.704425811767578 6.987631797790527 20.192028045654297 6.317592144012451 24.397357940673828 C11.259237289428711 24.828155517578125 16.85799217224121 20.773967742919922 17.496509552001953 16.301916122436523"></path></svg>