<svg xmlns="http://www.w3.org/2000/svg" viewBox="0.0 0.0 24.0 24.0" height="200px" width="200px"><path fill="none" stroke="black" stroke-width=".3" stroke-opacity="1.0"  filling="0" d="M15.13459587097168 10.29636001586914 L15.13459587097168 10.29636001586914 C15.977402687072754 11.892830848693848 16.447607040405273 14.446258544921875 16.129610061645508 16.663475036621094 C15.811613082885742 18.880693435668945 14.705414772033691 20.761703491210938 12.395414352416992 21.013336181640625 C11.403231620788574 21.121416091918945 9.41092300415039 20.8782901763916 8.779070854187012 19.970426559448242 C8.528854370117188 19.61090850830078 8.316902160644531 19.004253387451172 8.59858512878418 18.668819427490234 C8.87623405456543 18.33818817138672 9.48048210144043 18.51770782470703 9.893573760986328 18.64324951171875 C10.977275848388672 18.97259521484375 12.408918380737305 20.644737243652344 13.43507194519043 18.808273315429688 C13.696325302124023 18.34071922302246 13.62193775177002 17.753511428833008 13.715371131896973 17.226131439208984 L13.715371131896973 17.226131439208984 C12.492188453674316 17.65336036682129 11.433830261230469 18.334842681884766 10.10263729095459 17.79731559753418 C8.663701057434082 17.216283798217773 7.980012893676758 15.578332901000977 8.03084945678711 13.971056938171387 C8.081686019897461 12.363780975341797 8.867048263549805 10.787179946899414 10.366214752197266 10.328847885131836 C11.71520709991455 9.916427612304688 12.531078338623047 10.582621574401855 13.70875358581543 11.110954284667969 L13.70875358581543 11.110954284667969 C14.18403434753418 10.839423179626465 14.65931510925293 10.567891120910645 15.13459587097168 10.29636001586914 L15.13459587097168 10.29636001586914"></path>
<path fill="none" stroke="black" stroke-width=".3" stroke-opacity="1.0"  filling="0" d="M11.924647331237793 11.72520923614502 L11.924647331237793 11.72520923614502 C13.883623123168945 12.370024681091309 15.163439750671387 16.352758407592773 12.036248207092285 16.512908935546875 C9.894674301147461 16.622583389282227 9.548378944396973 13.29823112487793 10.8020601272583 12.16427993774414 C11.100048065185547 11.894750595092773 11.550451278686523 11.871565818786621 11.924647331237793 11.72520923614502 L11.924647331237793 11.72520923614502"></path></svg>