<svg xmlns="http://www.w3.org/2000/svg" viewBox="0.0 0.0 24.0 24.0" height="200px" width="200px"><path fill="none" stroke="black" stroke-width=".3" stroke-opacity="1.0"  filling="0" d="M12.900213241577148 9.62624740600586 L12.900213241577148 9.62624740600586 C13.8262300491333 9.742240905761719 14.78846549987793 9.883484840393066 15.612024307250977 10.32247543334961 L15.612024307250977 10.32247543334961 C15.571907997131348 10.425904273986816 15.531792640686035 10.529333114624023 15.491676330566406 10.63276195526123 L15.491676330566406 10.63276195526123 C15.072641372680664 10.714695930480957 14.653606414794922 10.796630859375 14.23457145690918 10.878564834594727 L14.23457145690918 10.878564834594727 C14.143418312072754 13.630783081054688 13.47478199005127 13.852404594421387 11.089253425598145 15.065831184387207 L11.089253425598145 15.065831184387207 C11.157992362976074 15.185114860534668 11.22673225402832 15.304397583007812 11.29547119140625 15.423681259155273 L11.29547119140625 15.423681259155273 C12.559349060058594 15.52113151550293 16.740570068359375 15.592370986938477 15.088096618652344 18.20496368408203 C14.742326736450195 18.751632690429688 14.082167625427246 19.0184268951416 13.579202651977539 19.425159454345703 L13.579202651977539 19.425159454345703 C13.72191333770752 19.182117462158203 14.595987319946289 18.09427833557129 13.998663902282715 17.651229858398438 C13.59090518951416 17.348785400390625 10.232641220092773 16.325145721435547 10.165098190307617 18.1313419342041 C10.100675582885742 19.854097366333008 12.800621032714844 19.385976791381836 13.635705947875977 19.369613647460938 L13.635705947875977 19.369613647460938 C12.235572814941406 20.141849517822266 11.707337379455566 20.859893798828125 10.005486488342285 20.114364624023438 C7.9412336349487305 19.2100772857666 8.739811897277832 17.95519256591797 10.093591690063477 17.05875015258789 L10.093591690063477 17.05875015258789 C9.892267227172852 16.621519088745117 9.396686553955078 16.2193546295166 9.489619255065918 15.747055053710938 C9.586411476135254 15.255141258239746 10.202980041503906 15.042420387268066 10.559659957885742 14.690103530883789 L10.559659957885742 14.690103530883789 C10.111602783203125 14.068075180053711 9.343461990356445 13.645795822143555 9.08759593963623 12.92315673828125 C8.215542793273926 10.460225105285645 11.294142723083496 9.637005805969238 12.900213241577148 9.62624740600586 L12.900213241577148 9.62624740600586"></path>
<path fill="none" stroke="black" stroke-width=".3" stroke-opacity="1.0"  filling="0" d="M12.15641975402832 10.457826614379883 L12.15641975402832 10.457826614379883 C12.420844078063965 10.962201118469238 12.900906562805176 11.403557777404785 12.949692726135254 11.97095012664795 C13.00797176361084 12.648741722106934 12.62110424041748 13.291261672973633 12.456809997558594 13.951417922973633 L12.456809997558594 13.951417922973633 C11.922561645507812 13.561046600341797 11.223684310913086 13.329113960266113 10.854063987731934 12.780303955078125 C9.73110294342041 11.11293888092041 10.700369834899902 10.093645095825195 12.15641975402832 10.457826614379883 L12.15641975402832 10.457826614379883"></path></svg>