<svg xmlns="http://www.w3.org/2000/svg" viewBox="0.0 0.0 24.0 24.0" height="200px" width="200px"><path fill="none" stroke="black" stroke-width=".3" stroke-opacity="1.0"  filling="0" d="M8.050735473632812 6.219391345977783 C9.38969612121582 6.229588031768799 9.83565902709961 7.239040851593018 9.859807968139648 8.428274154663086 C9.889325141906738 9.916963577270508 9.866249084472656 11.40672492980957 9.866249084472656 13.081632614135742 C10.996450424194336 12.554098129272461 11.836318969726562 12.04051685333252 12.748637199401855 11.758771896362305 C15.91706371307373 10.781518936157227 18.806964874267578 12.737634658813477 18.978158950805664 16.042909622192383 C19.102663040161133 18.448745727539062 19.01304054260254 20.866924285888672 19.00069808959961 23.27920150756836 C18.994792938232422 24.502243041992188 18.51395034790039 25.42046546936035 17.156206130981445 25.409732818603516 C15.869298934936523 25.3995361328125 15.545695304870605 24.34929656982422 15.49310302734375 23.353260040283203 C15.388992309570312 21.39284896850586 15.474321365356445 19.422779083251953 15.403482437133789 17.459684371948242 C15.320300102233887 15.160643577575684 14.620498657226562 14.253155708312988 13.059361457824707 14.23330020904541 C11.34473991394043 14.211297035217285 10.042272567749023 15.500885009765625 9.9220609664917 17.55467414855957 C9.807215690612793 19.51454734802246 9.893617630004883 21.48515510559082 9.834049224853516 23.449321746826172 C9.800776481628418 24.547325134277344 9.288268089294434 25.392559051513672 8.08400821685791 25.418319702148438 C6.835742473602295 25.445152282714844 6.440762519836426 24.500635147094727 6.2937188148498535 23.467029571533203 C6.206243515014648 22.853092193603516 6.244882583618164 22.219837188720703 6.244345664978027 21.595169067382812 C6.239515781402588 17.842321395874023 6.238979816436768 14.08893871307373 6.238442420959473 10.336091995239258 C6.238442420959473 9.710886001586914 6.197120189666748 9.079776763916016 6.260982036590576 8.461009979248047 C6.376363754272461 7.3458356857299805 6.657572269439697 6.209194660186768 8.050735473632812 6.219391345977783"></path></svg>