<svg xmlns="http://www.w3.org/2000/svg" viewBox="0.0 0.0 24.0 24.0" height="200px" width="200px"><path fill="none" stroke="black" stroke-width=".3" stroke-opacity="1.0"  filling="0" d="M12.046656608581543 6.324576377868652 C12.71981143951416 6.3849873542785645 13.718215942382812 7.06569242477417 13.852522850036621 7.650387763977051 C13.974963188171387 8.182762145996094 13.130284309387207 8.936824798583984 12.415597915649414 10.058748245239258 C11.58062744140625 9.031756401062012 10.769390106201172 8.46108627319336 10.707361221313477 7.81759786605835 C10.660433769226074 7.332149982452393 11.612990379333496 6.286280155181885 12.046656608581543 6.324576377868652"></path>
<path fill="none" stroke="black" stroke-width=".3" stroke-opacity="1.0"  filling="0" d="M12.369749069213867 11.635375022888184 C13.546152114868164 11.718440055847168 14.012720108032227 12.576065063476562 14.012720108032227 13.70338249206543 C14.012720108032227 15.4083833694458 14.012720108032227 17.112842559814453 14.012720108032227 18.81784439086914 C14.015417098999023 18.817304611206055 14.018653869628906 18.817304611206055 14.021349906921387 18.817304611206055 C14.021349906921387 20.252613067626953 14.022969245910645 21.688461303710938 14.020811080932617 23.123767852783203 C14.019193649291992 24.282907485961914 13.780244827270508 25.365455627441406 12.409124374389648 25.510011672973633 C10.957635879516602 25.663196563720703 10.526666641235352 24.53911781311035 10.50293254852295 23.426902770996094 C10.432273864746094 20.110755920410156 10.465176582336426 16.791370391845703 10.515878677368164 13.474143981933594 C10.5331392288208 12.336578369140625 11.179323196411133 11.551231384277344 12.369749069213867 11.635375022888184"></path></svg>