<svg xmlns="http://www.w3.org/2000/svg" viewBox="0.0 0.0 24.0 24.0" height="200px" width="200px"><path fill="none" stroke="black" stroke-width=".3" stroke-opacity="1.0"  filling="0" d="M6.710111618041992 7.2170491218566895 C6.710111618041992 11.919677734375 6.710111618041992 16.119157791137695 6.710111618041992 20.31863784790039 C6.984418869018555 20.41411590576172 7.258726119995117 20.508834838867188 7.533033847808838 20.604312896728516 C9.637319564819336 16.590482711791992 11.741605758666992 12.575895309448242 14.018659591674805 8.232442855834961 C15.550084114074707 12.250818252563477 14.882500648498535 16.521528244018555 16.41240882873535 20.70661163330078 C18.784183502197266 16.518497467041016 21.155956268310547 12.33038330078125 23.527729034423828 8.143028259277344 C23.809616088867188 8.30821704864502 24.09225845336914 8.471892356872559 24.374900817871094 8.635567665100098 C22.509307861328125 14.790812492370605 17.846080780029297 19.554061889648438 15.454607009887695 25.549419403076172 C13.45034408569336 21.731090545654297 14.087615966796875 17.57253074645996 12.738812446594238 13.466256141662598 C10.639829635620117 17.480083465576172 8.540848731994629 21.493915557861328 6.441866397857666 25.50774383544922 C6.019796371459961 25.40544891357422 5.597727298736572 25.303150177001953 5.176414966583252 25.200855255126953 C5.176414966583252 19.578310012817383 5.161259174346924 13.955766677856445 5.22263765335083 8.333223342895508 C5.225668907165527 8.063462257385254 5.906132698059082 7.802036285400391 6.710111618041992 7.2170491218566895"></path></svg>