<svg xmlns="http://www.w3.org/2000/svg" viewBox="0.0 0.0 24.0 24.0" height="200px" width="200px"><path fill="none" stroke="black" stroke-width=".3" stroke-opacity="1.0"  filling="0" d="M8.725613594055176 7.4361443519592285 C10.424886703491211 10.609906196594238 11.706238746643066 13.003007888793945 13.194523811340332 15.784006118774414 C15.895182609558105 12.944579124450684 18.20794677734375 10.513338088989258 20.519901275634766 8.0820951461792 C20.748741149902344 8.291460990905762 20.977581024169922 8.500015258789062 21.207237243652344 8.709381103515625 C20.080881118774414 12.107115745544434 16.55411720275879 13.86319351196289 14.956281661987305 17.215484619140625 C15.818902969360352 20.25535011291504 19.3196964263916 22.577850341796875 18.901775360107422 26.22552490234375 C18.599899291992188 26.35455322265625 18.298023223876953 26.484394073486328 17.99533462524414 26.613422393798828 C16.54194450378418 24.13511085510254 15.087743759155273 21.657615661621094 13.339781761169434 18.676990509033203 C10.671582221984863 21.51885223388672 8.268741607666016 24.07830810546875 5.865901947021484 26.63695526123047 C5.508030414581299 26.364295959472656 5.148538112640381 26.09244155883789 4.789045810699463 25.82059097290039 C7.106678009033203 23.01687240600586 9.42349910736084 20.213153839111328 11.704615592956543 17.454065322875977 C10.915842056274414 14.299778938293457 7.23895263671875 12.106305122375488 8.725613594055176 7.4361443519592285"></path></svg>