<svg xmlns="http://www.w3.org/2000/svg" viewBox="0.0 0.0 24.0 24.0" height="200px" width="200px"><path fill="none" stroke="black" stroke-width=".3" stroke-opacity="1.0"  filling="0" d="M10.158157348632812 9.432830810546875 L10.158157348632812 9.432830810546875 C10.996167182922363 10.998006820678711 11.83411979675293 12.563213348388672 12.671919822692871 14.12850284576416 L12.671919822692871 14.12850284576416 C14.045459747314453 12.684426307678223 15.418999671936035 11.24034595489502 16.792444229125977 9.796178817749023 L16.792444229125977 9.796178817749023 C16.92131996154785 9.91379451751709 17.050193786621094 10.031411170959473 17.17906951904297 10.149026870727539 L17.17906951904297 10.149026870727539 C16.141197204589844 11.894599914550781 14.834832191467285 13.277531623840332 13.662908554077148 14.933710098266602 L13.662908554077148 14.933710098266602 C14.603137016296387 16.737693786621094 15.486085891723633 17.987749099731445 15.882248878479004 20.00185775756836 L15.882248878479004 20.00185775756836 C15.71229076385498 20.074588775634766 15.542333602905273 20.147319793701172 15.37237548828125 20.220050811767578 L15.37237548828125 20.220050811767578 C14.499491691589355 18.731952667236328 13.626493453979492 17.243915557861328 12.75362777709961 15.755806922912598 L12.75362777709961 15.755806922912598 C11.352316856384277 17.24833869934082 9.951005935668945 18.740873336791992 8.549570083618164 20.233287811279297 L8.549570083618164 20.233287811279297 C8.34765911102295 20.080219268798828 8.14574909210205 19.92715072631836 7.943838119506836 19.77408218383789 L7.943838119506836 19.77408218383789 C9.240503311157227 18.205352783203125 10.537087440490723 16.63656234741211 11.833846092224121 15.067911148071289 L11.833846092224121 15.067911148071289 C10.883245468139648 12.95467472076416 9.945793151855469 11.84123420715332 10.158157348632812 9.432830810546875 L10.158157348632812 9.432830810546875"></path></svg>