<svg xmlns="http://www.w3.org/2000/svg" viewBox="0.0 0.0 24.0 24.0" height="200px" width="200px"><path fill="none" stroke="black" stroke-width=".3" stroke-opacity="1.0"  filling="0" d="M9.79335880279541 8.743396759033203 L9.79335880279541 8.743396759033203 C11.283955574035645 10.554168701171875 10.828485488891602 12.426506996154785 10.820075035095215 14.715320587158203 L10.820075035095215 14.715320587158203 C11.280779838562012 14.255816459655762 13.35307788848877 11.560884475708008 14.256566047668457 11.757320404052734 C14.684110641479492 11.850276947021484 14.911182403564453 12.338025093078613 15.23849105834961 12.628376960754395 L15.23849105834961 12.628376960754395 C14.605525970458984 13.314456939697266 13.972570419311523 14.000545501708984 13.339622497558594 14.686641693115234 L13.339622497558594 14.686641693115234 C13.811104774475098 15.408551216125488 16.568599700927734 18.46145248413086 15.254792213439941 19.39003562927246 C14.041041374206543 20.247900009155273 12.351018905639648 16.681840896606445 11.988981246948242 16.14203643798828 L11.988981246948242 16.14203643798828 C11.689346313476562 16.342905044555664 11.30556869506836 16.455345153808594 11.090075492858887 16.744640350341797 C10.670309066772461 17.308168411254883 11.177043914794922 19.629932403564453 9.826264381408691 19.541582107543945 C8.503210067749023 19.45504379272461 8.84179401397705 17.167295455932617 8.84125804901123 16.64374351501465 C8.839906692504883 15.32288932800293 8.677501678466797 13.887218475341797 8.715649604797363 12.512053489685059 C8.75379753112793 11.13688850402832 8.992498397827148 9.822229385375977 9.79335880279541 8.743396759033203 L9.79335880279541 8.743396759033203"></path></svg>