<svg xmlns="http://www.w3.org/2000/svg" viewBox="0.0 0.0 24.0 24.0" height="200px" width="200px"><path fill="none" stroke="black" stroke-width=".3" stroke-opacity="1.0"  filling="0" d="M12.309654235839844 7.13250207901001 L12.309654235839844 7.13250207901001 C13.080657005310059 8.831483840942383 14.004528999328613 10.568249702453613 14.805891990661621 12.342330932617188 C15.607254981994629 14.116413116455078 16.286109924316406 15.927810668945312 16.567075729370117 17.77605438232422 L16.567075729370117 17.77605438232422 C16.42380142211914 17.828311920166016 16.280527114868164 17.88056755065918 16.137252807617188 17.932825088500977 L16.137252807617188 17.932825088500977 C15.543418884277344 16.462017059326172 14.949756622314453 14.991129875183105 14.35609245300293 13.52025318145752 L14.35609245300293 13.52025318145752 C12.463844299316406 12.873327255249023 11.187292098999023 13.20120620727539 10.26247787475586 14.06241512298584 C9.337663650512695 14.923624038696289 8.76458740234375 16.318164825439453 8.279291152954102 17.8045597076416 L8.279291152954102 17.8045597076416 C8.053421020507812 17.585491180419922 7.59151029586792 17.46184539794922 7.60167932510376 17.147354125976562 C7.622483730316162 16.50395393371582 8.096644401550293 15.958698272705078 8.357999801635742 15.370404243469238 C8.956605911254883 14.022979736328125 9.535629272460938 12.576249122619629 10.169445037841797 11.160001754760742 C10.803261756896973 9.743754386901855 11.49187183380127 8.357991218566895 12.309654235839844 7.13250207901001 L12.309654235839844 7.13250207901001"></path>
<path fill="none" stroke="black" stroke-width=".3" stroke-opacity="1.0"  filling="0" d="M12.251351356506348 8.916252136230469 L12.251351356506348 8.916252136230469 C12.820089340209961 10.174703598022461 13.388736724853516 11.433202743530273 13.957365036010742 12.69170093536377 L13.957365036010742 12.69170093536377 C12.804259300231934 12.69170093536377 11.651153564453125 12.69170093536377 10.498047828674316 12.69170093536377 L10.498047828674316 12.69170093536377 C11.082481384277344 11.433218002319336 11.666949272155762 10.174750328063965 12.251351356506348 8.916252136230469 L12.251351356506348 8.916252136230469"></path></svg>