<svg xmlns="http://www.w3.org/2000/svg" viewBox="0.0 0.0 24.0 24.0" height="200px" width="200px"><path fill="none" stroke="black" stroke-width=".3" stroke-opacity="1.0"  filling="0" d="M10.38780403137207 6.989877223968506 L10.38780403137207 6.989877223968506 C10.736995697021484 8.537649154663086 10.793618202209473 10.203754425048828 10.762868881225586 11.879303932189941 C10.732118606567383 13.554853439331055 10.613996505737305 15.239846229553223 10.613696098327637 16.825393676757812 L10.613696098327637 16.825393676757812 C12.17715835571289 16.640243530273438 13.740621566772461 16.45507049560547 15.304079055786133 16.269882202148438 L15.304079055786133 16.269882202148438 C15.358631134033203 16.43650245666504 15.413183212280273 16.603120803833008 15.467735290527344 16.76974105834961 L15.467735290527344 16.76974105834961 C13.62243938446045 17.266868591308594 11.817732810974121 17.514650344848633 9.928446769714355 17.789878845214844 L9.928446769714355 17.789878845214844 C9.928446769714355 16.00069236755371 9.928446769714355 14.211503028869629 9.928446769714355 12.422313690185547 C9.928446769714355 10.633125305175781 9.928446769714355 8.843935012817383 9.928446769714355 7.054747581481934 L9.928446769714355 7.054747581481934 C10.081565856933594 7.033123970031738 10.234684944152832 7.011500835418701 10.38780403137207 6.989877223968506 L10.38780403137207 6.989877223968506"></path></svg>