<svg xmlns="http://www.w3.org/2000/svg" viewBox="0.0 0.0 24.0 24.0" height="200px" width="200px"><path fill="none" stroke="black" stroke-width=".3" stroke-opacity="1.0"  filling="0" d="M16.893396377563477 2.9682655334472656 C17.061185836791992 3.1372241973876953 17.22897720336914 3.3061838150024414 17.396766662597656 3.4751434326171875 C16.91093635559082 5.186954975128174 15.055888175964355 5.750543594360352 13.851539611816406 6.825102806091309 C12.484078407287598 8.044651985168457 10.969873428344727 9.099332809448242 9.673152923583984 10.106074333190918 C13.301981925964355 13.90035629272461 16.851886749267578 17.61220359802246 20.447391510009766 21.371408462524414 C19.81306266784668 22.678653717041016 19.22316551208496 22.142541885375977 18.516925811767578 21.42928695678711 C15.57328987121582 18.459341049194336 12.598665237426758 15.520380020141602 9.633981704711914 12.572065353393555 C9.365049362182617 12.304303169250488 9.082670211791992 12.049986839294434 8.248395919799805 11.261898040771484 C8.248395919799805 15.067873001098633 8.248395919799805 18.31435203552246 8.248395919799805 21.560829162597656 C7.819859027862549 21.550308227539062 7.390737056732178 21.539783477783203 6.961615085601807 21.52984619140625 C6.837672233581543 15.43970012664795 6.936476230621338 9.346633911132812 6.882688999176025 3.031405448913574 C9.076825141906738 3.428957939147949 8.095807075500488 4.891714572906494 8.232611656188965 5.7856221199035645 C8.387539863586426 6.798209190368652 8.268274307250977 7.852890968322754 8.268274307250977 9.46940803527832 C11.428227424621582 7.087603569030762 14.160811424255371 5.0279340744018555 16.893396377563477 2.9682655334472656"></path></svg>