<svg xmlns="http://www.w3.org/2000/svg" viewBox="0.0 0.0 24.0 24.0" height="200px" width="200px"><path fill="none" stroke="black" stroke-width=".3" stroke-opacity="1.0"  filling="0" d="M15.080435752868652 7.045944690704346 L15.080435752868652 7.045944690704346 C15.080435752868652 8.825437545776367 15.080435752868652 10.60492992401123 15.080435752868652 12.38442325592041 C15.080435752868652 14.163915634155273 15.080435752868652 15.943408966064453 15.080435752868652 17.722902297973633 L15.080435752868652 17.722902297973633 C14.66241455078125 16.95412254333496 14.36931037902832 16.099933624267578 14.247137069702148 15.233424186706543 L14.247137069702148 15.233424186706543 C13.437650680541992 15.968002319335938 12.875041961669922 16.56132698059082 11.967977523803711 17.12730598449707 C9.090909957885742 18.922500610351562 7.648882865905762 16.63192367553711 9.079906463623047 13.860652923583984 C10.219158172607422 11.654417037963867 12.080962181091309 11.039946556091309 14.3428373336792 10.812387466430664 L14.3428373336792 10.812387466430664 C14.400982856750488 10.009836196899414 14.06424617767334 7.048127174377441 15.080435752868652 7.045944690704346 L15.080435752868652 7.045944690704346"></path>
<path fill="none" stroke="black" stroke-width=".3" stroke-opacity="1.0"  filling="0" d="M12.539201736450195 11.649591445922852 L12.539201736450195 11.649591445922852 C13.017073631286621 11.707246780395508 13.613197326660156 11.5026216506958 13.972816467285156 11.822558403015137 C15.708898544311523 13.367073059082031 11.950836181640625 17.332754135131836 10.376858711242676 17.16107749938965 C8.550549507141113 16.96187973022461 9.346769332885742 15.071008682250977 9.73366928100586 14.317182540893555 C10.049707412719727 13.701422691345215 10.47723388671875 13.132487297058105 10.9788179397583 12.65556526184082 C11.427297592163086 12.22913646697998 12.019073486328125 11.984915733337402 12.539201736450195 11.649591445922852 L12.539201736450195 11.649591445922852"></path></svg>