<svg xmlns="http://www.w3.org/2000/svg" viewBox="0.0 0.0 24.0 24.0" height="200px" width="200px"><path fill="none" stroke="black" stroke-width=".3" stroke-opacity="1.0"  filling="0" d="M13.62263298034668 6.98073148727417 L13.62263298034668 6.98073148727417 C14.293821334838867 7.187639236450195 14.916242599487305 7.691729545593262 15.264022827148438 8.301937103271484 L15.264022827148438 8.301937103271484 C12.853865623474121 7.522974014282227 12.332992553710938 8.045219421386719 12.312943458557129 10.644899368286133 L12.312943458557129 10.644899368286133 C13.267791748046875 10.558839797973633 14.222637176513672 10.472736358642578 15.17747688293457 10.386581420898438 L15.17747688293457 10.386581420898438 C15.211041450500488 10.528848648071289 15.244606971740723 10.671114921569824 15.27817153930664 10.813382148742676 L15.27817153930664 10.813382148742676 C14.293267250061035 11.079031944274902 13.308368682861328 11.34469985961914 12.323473930358887 11.610383987426758 L12.323473930358887 11.610383987426758 C12.235272407531738 13.656373977661133 12.296838760375977 15.699018478393555 12.20632553100586 17.744861602783203 L12.20632553100586 17.744861602783203 C11.997806549072266 17.73773193359375 11.789286613464355 17.730602264404297 11.580767631530762 17.723472595214844 L11.580767631530762 17.723472595214844 C11.580767631530762 15.718903541564941 11.580767631530762 13.71433162689209 11.580767631530762 11.709762573242188 L11.580767631530762 11.709762573242188 C10.966946601867676 11.709762573242188 10.353126525878906 11.709762573242188 9.73930549621582 11.709762573242188 L9.73930549621582 11.709762573242188 C9.717147827148438 11.611151695251465 9.694991111755371 11.512541770935059 9.672833442687988 11.413930892944336 L9.672833442687988 11.413930892944336 C10.233674049377441 11.20946979522705 10.794515609741211 11.005009651184082 11.355356216430664 10.800548553466797 L11.355356216430664 10.800548553466797 C11.634026527404785 8.931793212890625 11.47767162322998 7.280049800872803 13.62263298034668 6.98073148727417 L13.62263298034668 6.98073148727417"></path></svg>