<svg xmlns="http://www.w3.org/2000/svg" viewBox="0.0 0.0 24.0 24.0" height="200px" width="200px"><path fill="none" stroke="black" stroke-width=".3" stroke-opacity="1.0"  filling="0" d="M9.023815155029297 9.455796241760254 L9.023815155029297 9.455796241760254 C9.274190902709961 9.532907485961914 9.524567604064941 9.61001968383789 9.774943351745605 9.68713092803955 L9.774943351745605 9.68713092803955 C9.770834922790527 11.50066089630127 9.756389617919922 13.31443977355957 9.76598072052002 15.127968788146973 C9.769763946533203 15.843404769897461 9.691864967346191 17.8407039642334 10.082881927490234 18.55925750732422 C11.093729972839355 20.416847229003906 14.765265464782715 17.867294311523438 15.159608840942383 16.573596954345703 C15.625070571899414 15.046584129333496 15.371692657470703 12.987394332885742 15.414390563964844 11.39645004272461 C15.430935859680176 10.779945373535156 15.309901237487793 9.945585250854492 15.813709259033203 9.589876174926758 L15.813709259033203 9.589876174926758 C16.426034927368164 11.200911521911621 16.62644386291504 12.96276569366455 16.613872528076172 14.7386474609375 C16.601303100585938 16.514530181884766 16.375751495361328 18.304439544677734 16.13616180419922 19.971586227416992 L16.13616180419922 19.971586227416992 C15.685296058654785 19.550779342651367 15.234430313110352 19.12997055053711 14.783564567565918 18.709163665771484 L14.783564567565918 18.709163665771484 C13.456602096557617 19.427873611450195 11.28345012664795 20.968849182128906 9.682941436767578 19.97182273864746 C8.625839233398438 19.31330680847168 8.61668872833252 17.828514099121094 8.537542343139648 16.814111709594727 C8.350096702575684 14.411664009094238 8.293028831481934 11.747309684753418 9.023815155029297 9.455796241760254 L9.023815155029297 9.455796241760254"></path></svg>