<svg xmlns="http://www.w3.org/2000/svg" viewBox="0.0 0.0 24.0 24.0" height="200px" width="200px"><path fill="none" stroke="black" stroke-width=".3" stroke-opacity="1.0"  filling="0" d="M8.66392707824707 7.051406383514404 L8.66392707824707 7.051406383514404 C10.919525146484375 7.051406383514404 13.175127029418945 7.051406383514404 15.430723190307617 7.051406383514404 L15.430723190307617 7.051406383514404 C14.76596450805664 8.053057670593262 14.001321792602539 8.995268821716309 13.156150817871094 9.85019302368164 L13.156150817871094 9.85019302368164 C14.094526290893555 9.96638298034668 15.041433334350586 9.897235870361328 15.765281677246094 10.664803504943848 C17.166885375976562 12.15106201171875 16.927066802978516 13.868956565856934 15.955718994140625 15.25119686126709 C14.984370231628418 16.63343620300293 13.281490325927734 17.68001937866211 11.756972312927246 17.82365608215332 C9.721517562866211 18.015430450439453 7.045860290527344 16.708324432373047 8.6036958694458 14.426807403564453 L8.6036958694458 14.426807403564453 C8.70937728881836 14.473470687866211 8.815057754516602 14.520133972167969 8.92073917388916 14.566797256469727 L8.92073917388916 14.566797256469727 C8.927099227905273 16.636249542236328 10.309465408325195 17.341529846191406 11.821128845214844 17.14720916748047 C13.332791328430176 16.95288848876953 14.973751068115234 15.858963012695312 15.497295379638672 14.330000877380371 C16.20542335510254 12.261979103088379 15.250703811645508 10.531734466552734 12.944347381591797 10.748373985290527 C12.61164665222168 10.779624938964844 10.54963207244873 11.747549057006836 10.263045310974121 11.877883911132812 L10.263045310974121 11.877883911132812 C10.159018516540527 11.74925708770752 10.054991722106934 11.62062931060791 9.95096492767334 11.492002487182617 L9.95096492767334 11.492002487182617 C11.436901092529297 10.303288459777832 12.843082427978516 9.06139087677002 14.234694480895996 7.763265132904053 L14.234694480895996 7.763265132904053 C12.674519538879395 7.763265132904053 11.114340782165527 7.763265132904053 9.55416488647461 7.763265132904053 L9.55416488647461 7.763265132904053 C9.387810707092285 8.258577346801758 9.221455574035645 8.753889083862305 9.05510139465332 9.249200820922852 L9.05510139465332 9.249200820922852 C8.880474090576172 9.217209815979004 8.705845832824707 9.18521785736084 8.531218528747559 9.153226852416992 L8.531218528747559 9.153226852416992 C8.575446128845215 8.452619552612305 8.619682312011719 7.752012729644775 8.66392707824707 7.051406383514404 L8.66392707824707 7.051406383514404"></path></svg>