<svg xmlns="http://www.w3.org/2000/svg" viewBox="0.0 0.0 24.0 24.0" height="200px" width="200px"><path fill="none" stroke="black" stroke-width=".3" stroke-opacity="1.0"  filling="0" d="M14.089725494384766 7.071688175201416 L14.089725494384766 7.071688175201416 C15.348409652709961 7.768811225891113 15.93429946899414 7.791311740875244 16.459796905517578 9.260040283203125 C17.1007022857666 11.0513277053833 16.63730239868164 13.399797439575195 15.471396446228027 15.174805641174316 C14.305490493774414 16.949813842773438 12.437078475952148 18.15135955810547 10.267959594726562 17.6487979888916 C7.675433158874512 17.048137664794922 7.596696853637695 13.833433151245117 8.070993423461914 11.785140037536621 C8.43018913269043 10.233920097351074 9.154479026794434 9.020975112915039 10.179166793823242 8.213127136230469 C11.203853607177734 7.405277729034424 12.528939247131348 7.0025248527526855 14.089725494384766 7.071688175201416 L14.089725494384766 7.071688175201416"></path>
<path fill="none" stroke="black" stroke-width=".3" stroke-opacity="1.0"  filling="0" d="M14.249933242797852 7.91038703918457 L14.249933242797852 7.91038703918457 C15.240370750427246 8.88907241821289 15.78471565246582 10.02956771850586 15.874090194702148 11.227173805236816 C15.963462829589844 12.424778938293457 15.597865104675293 13.67949390411377 14.768415451049805 14.886616706848145 C13.861981391906738 16.20577621459961 11.723241806030273 17.718799591064453 10.0118408203125 16.798181533813477 C8.856771469116211 16.17683219909668 8.742277145385742 14.609509468078613 8.725339889526367 13.538930892944336 C8.690793991088867 11.355313301086426 9.86440372467041 8.271146774291992 12.302863121032715 7.712800025939941 C12.938762664794922 7.567194938659668 13.600910186767578 7.84452486038208 14.249933242797852 7.91038703918457 L14.249933242797852 7.91038703918457"></path></svg>