<svg xmlns="http://www.w3.org/2000/svg" viewBox="0.0 0.0 24.0 24.0" height="200px" width="200px"><path fill="none" stroke="black" stroke-width=".3" stroke-opacity="1.0"  filling="0" d="M7.037478446960449 9.006503105163574 C7.5405964851379395 8.875627517700195 8.289909362792969 9.621722221374512 8.904592514038086 10.021320343017578 C9.1089506149292 10.154877662658691 9.233388900756836 10.411799430847168 9.391618728637695 10.608648300170898 C12.974053382873535 8.246999740600586 15.770162582397461 8.324236869812012 17.995038986206055 10.815152168273926 C20.100839614868164 13.173046112060547 20.183975219726562 17.913509368896484 18.165607452392578 20.547100067138672 C16.182100296020508 23.13509750366211 13.35112476348877 23.40275001525879 9.277910232543945 21.195037841796875 C9.223199844360352 22.2259464263916 9.180826187133789 23.134563446044922 9.125579833984375 24.042102813720703 C9.076769828796387 24.840225219726562 9.05156135559082 25.642641067504883 8.946432113647461 26.434326171875 C8.81770133972168 27.406768798828125 8.332820892333984 28.304121017456055 7.264902591705322 28.046127319335938 C6.677574634552002 27.903987884521484 6.156756401062012 27.098892211914062 5.810795783996582 26.478845596313477 C5.574255466461182 26.055644989013672 5.656321048736572 25.43506622314453 5.655248165130615 24.90298080444336 C5.646128177642822 20.532081604003906 5.650419235229492 16.16225242614746 5.654173374176025 11.792423248291016 C5.654710292816162 11.436807632446289 5.569426536560059 11.016291618347168 5.724974632263184 10.73845100402832 C6.088099002838135 10.089439392089844 6.480723857879639 9.151860237121582 7.037478446960449 9.006503105163574"></path>
<path fill="none" stroke="black" stroke-width=".3" stroke-opacity="1.0"  filling="0" d="M11.90988826751709 11.625612258911133 C14.144953727722168 11.050084114074707 16.062488555908203 13.005699157714844 16.058732986450195 15.8570556640625 C16.05551528930664 18.216022491455078 14.744619369506836 19.960845947265625 12.887160301208496 20.078311920166016 C11.141266822814941 20.187732696533203 9.646932601928711 18.82534408569336 9.322962760925293 16.827892303466797 C8.914247512817383 14.307475090026855 10.004156112670898 12.116393089294434 11.90988826751709 11.625612258911133"></path></svg>