<svg xmlns="http://www.w3.org/2000/svg" viewBox="0.0 0.0 24.0 24.0" height="200px" width="200px"><path fill="none" stroke="black" stroke-width=".3" stroke-opacity="1.0"  filling="0" d="M15.18408489227295 10.288312911987305 L15.18408489227295 10.288312911987305 C16.361711502075195 12.506933212280273 15.892805099487305 15.139178276062012 15.892663955688477 17.62103271484375 C15.892618179321289 18.43498420715332 16.322376251220703 19.393199920654297 15.859405517578125 20.062658309936523 C13.882680892944336 22.921016693115234 14.049677848815918 18.114591598510742 14.052214622497559 17.132949829101562 L14.052214622497559 17.132949829101562 C13.046757698059082 17.585203170776367 12.167582511901855 18.15589714050293 11.005351066589355 18.051746368408203 C9.100948333740234 17.881088256835938 8.090398788452148 16.136377334594727 8.01784896850586 14.337657928466797 C7.945297718048096 12.538938522338867 8.810745239257812 10.686208724975586 10.658332824707031 10.299510955810547 C12.050423622131348 10.008148193359375 12.770974159240723 10.689573287963867 13.943583488464355 11.30461311340332 L13.943583488464355 11.30461311340332 C14.357084274291992 10.965846061706543 14.770584106445312 10.627079963684082 15.18408489227295 10.288312911987305 L15.18408489227295 10.288312911987305"></path>
<path fill="none" stroke="black" stroke-width=".3" stroke-opacity="1.0"  filling="0" d="M11.916716575622559 11.738229751586914 L11.916716575622559 11.738229751586914 C12.366842269897461 11.933940887451172 12.943570137023926 11.956243515014648 13.26709270477295 12.325363159179688 C14.335792541503906 13.544684410095215 14.022783279418945 16.470102310180664 12.015993118286133 16.545438766479492 C9.951226234436035 16.62295150756836 9.648518562316895 13.63945198059082 10.598550796508789 12.40012264251709 C10.897675514221191 12.00991153717041 11.477328300476074 11.958860397338867 11.916716575622559 11.738229751586914 L11.916716575622559 11.738229751586914"></path></svg>