<svg xmlns="http://www.w3.org/2000/svg" viewBox="0.0 0.0 24.0 24.0" height="200px" width="200px"><path fill="none" stroke="black" stroke-width=".3" stroke-opacity="1.0"  filling="0" d="M6.41650390625 10.635869026184082 C8.225967407226562 10.629945755004883 8.994470596313477 11.916707992553711 9.032228469848633 13.587721824645996 C9.092939376831055 16.299694061279297 8.992249488830566 19.0168514251709 9.094419479370117 21.72660255432129 C9.209177017211914 24.754714965820312 10.35082721710205 26.111072540283203 12.507523536682129 26.059246063232422 C14.741217613220215 26.005939483642578 16.401126861572266 24.307533264160156 16.585477828979492 21.654788970947266 C16.73133087158203 19.566946029663086 16.64544677734375 17.463558197021484 16.709857940673828 15.369051933288574 C16.740215301513672 14.391764640808105 16.601024627685547 13.251596450805664 17.05042839050293 12.486794471740723 C17.527225494384766 11.6760892868042 18.654809951782227 10.6980619430542 19.418869018554688 10.760993003845215 C20.200698852539062 10.82540512084961 21.48672103881836 12.040350914001465 21.51559829711914 12.791086196899414 C21.70513153076172 17.715282440185547 21.686622619628906 22.65206527709961 21.53484535217285 27.579225540161133 C21.51263427734375 28.302570343017578 20.23697853088379 29.675214767456055 19.856426239013672 29.573041915893555 C18.667396545410156 29.254682540893555 17.629398345947266 28.372900009155273 16.424076080322266 27.64215850830078 C15.270581245422363 28.18706703186035 13.79428482055664 29.1828670501709 12.170654296875 29.59303092956543 C8.091218948364258 30.623620986938477 4.5552144050598145 28.294422149658203 4.182809352874756 24.169082641601562 C3.862229347229004 20.621231079101562 4.022889614105225 17.02303695678711 4.091003894805908 13.449273109436035 C4.118397235870361 12.014436721801758 4.7180962562561035 10.641792297363281 6.41650390625 10.635869026184082"></path></svg>