<svg xmlns="http://www.w3.org/2000/svg" viewBox="0.0 0.0 24.0 24.0" height="200px" width="200px"><path fill="none" stroke="black" stroke-width=".3" stroke-opacity="1.0"  filling="0" d="M8.29792594909668 9.605545043945312 L8.29792594909668 9.605545043945312 C9.450485229492188 9.600793838500977 11.582468032836914 9.413902282714844 13.28172492980957 9.758097648620605 C14.980982780456543 10.102293014526367 16.247514724731445 10.977577209472656 15.669172286987305 13.097176551818848 C15.533282279968262 13.595206260681152 15.054384231567383 13.926654815673828 14.746990203857422 14.34139347076416 L14.746990203857422 14.34139347076416 C15.06677532196045 14.809347152709961 16.13498306274414 16.245189666748047 16.241668701171875 16.87839126586914 C16.606903076171875 19.0461368560791 15.25048828125 19.92389678955078 13.488004684448242 20.256189346313477 C11.725521087646484 20.588481903076172 9.556968688964844 20.37530517578125 8.29792594909668 20.36117935180664 L8.29792594909668 20.36117935180664 C8.29792594909668 18.568572998046875 8.29792594909668 16.77596664428711 8.29792594909668 14.98336124420166 C8.29792594909668 13.190755844116211 8.29792594909668 11.398149490356445 8.29792594909668 9.605545043945312 L8.29792594909668 9.605545043945312"></path>
<path fill="none" stroke="black" stroke-width=".3" stroke-opacity="1.0"  filling="0" d="M9.684986114501953 10.864900588989258 L9.684986114501953 10.864900588989258 C10.143527030944824 10.85734748840332 12.484127044677734 10.792341232299805 12.958230972290039 10.888282775878906 C14.133563041687012 11.126127243041992 14.972253799438477 12.552650451660156 13.969971656799316 13.584198951721191 C13.073686599731445 14.506654739379883 10.771074295043945 14.074606895446777 9.684686660766602 14.060504913330078 L9.684686660766602 14.060504913330078 C9.684711456298828 12.9953031539917 9.68481159210205 11.930102348327637 9.684986114501953 10.864900588989258 L9.684986114501953 10.864900588989258"></path>
<path fill="none" stroke="black" stroke-width=".3" stroke-opacity="1.0"  filling="0" d="M9.697277069091797 15.326155662536621 L9.697277069091797 15.326155662536621 C11.008437156677246 15.306079864501953 13.308723449707031 14.891440391540527 14.375980377197266 15.972245216369629 C15.031340599060059 16.63592529296875 14.991817474365234 17.980775833129883 14.311453819274902 18.61109161376953 C13.250480651855469 19.594018936157227 10.965158462524414 19.18277931213379 9.697277069091797 19.16747283935547 L9.697277069091797 19.16747283935547 C9.697277069091797 17.887033462524414 9.697277069091797 16.60659408569336 9.697277069091797 15.326155662536621 L9.697277069091797 15.326155662536621"></path></svg>