<svg xmlns="http://www.w3.org/2000/svg" viewBox="0.0 0.0 24.0 24.0" height="200px" width="200px"><path fill="none" stroke="black" stroke-width=".3" stroke-opacity="1.0"  filling="0" d="M12.511098861694336 7.091833114624023 C16.37759017944336 6.943281650543213 18.884782791137695 8.681747436523438 20.09708595275879 12.35605525970459 C20.006189346313477 12.487466812133789 19.94126319885254 12.693671226501465 19.814006805419922 12.744573593139648 C19.340824127197266 12.934158325195312 18.846866607666016 13.073359489440918 18.236038208007812 13.271775245666504 C17.947246551513672 12.81209659576416 17.64858627319336 12.412671089172363 17.428874969482422 11.974287986755371 C16.481990814208984 10.086751937866211 14.958040237426758 9.147138595581055 12.857544898986816 9.172070503234863 C10.6038236618042 9.198559761047363 8.772383689880371 10.099217414855957 7.798489093780518 12.168027877807617 C6.399717807769775 15.139054298400879 6.429842948913574 18.23577880859375 7.789659023284912 21.19382095336914 C8.73134994506836 23.243412017822266 10.552921295166016 24.226139068603516 12.83365249633789 24.19757080078125 C14.992840766906738 24.170562744140625 16.67105484008789 23.308338165283203 17.60391616821289 21.2634220123291 C17.816356658935547 20.797510147094727 18.0210018157959 20.32848358154297 18.343036651611328 19.605464935302734 C19.153316497802734 19.81894302368164 19.799983978271484 19.989307403564453 20.40093994140625 20.147727966308594 C20.436260223388672 20.454700469970703 20.516250610351562 20.6401309967041 20.464828491210938 20.77569580078125 C18.956979751586914 24.742431640625 16.48250961303711 26.4227237701416 12.392674446105957 26.273653030395508 C8.4742431640625 26.130815505981445 5.703709125518799 24.082778930664062 4.8279829025268555 20.086956024169922 C4.359994411468506 17.952699661254883 4.3127288818359375 15.589383125305176 4.689819812774658 13.436946868896484 C5.341161251068115 9.719009399414062 8.679929733276367 7.238825798034668 12.511098861694336 7.091833114624023"></path></svg>