<svg xmlns="http://www.w3.org/2000/svg" viewBox="0.0 0.0 24.0 24.0" height="200px" width="200px"><path fill="none" stroke="black" stroke-width=".3" stroke-opacity="1.0"  filling="0" d="M5.114542484283447 3.2671079635620117 C7.678425312042236 3.2671079635620117 10.241713523864746 3.2671079635620117 13.454590797424316 3.2671079635620117 C9.942178726196289 4.572822570800781 10.349879264831543 7.205645561218262 10.333833694458008 9.653042793273926 C10.310060501098633 13.297987937927246 10.327890396118164 16.943527221679688 10.327890396118164 20.38937759399414 C14.666997909545898 22.13250732421875 17.184524536132812 21.421112060546875 20.631561279296875 18.053119659423828 C20.315383911132812 19.484827041625977 19.998615264892578 20.915943145751953 19.656286239624023 22.466514587402344 C14.757332801818848 22.466514587402344 10.04856014251709 22.466514587402344 5.339787006378174 22.466514587402344 C5.201312065124512 22.27811622619629 5.064024925231934 22.089717864990234 4.926143646240234 21.900726318359375 C7.6267194747924805 21.361679077148438 7.604729652404785 19.41707420349121 7.621964931488037 17.532495498657227 C7.651086330413818 14.365974426269531 7.63979434967041 11.198861122131348 7.6237473487854 8.032341003417969 C7.61423921585083 6.093084812164307 7.723593235015869 4.0646820068359375 5.114542484283447 3.2671079635620117"></path></svg>