<svg xmlns="http://www.w3.org/2000/svg" viewBox="0.0 0.0 24.0 24.0" height="200px" width="200px"><path fill="none" stroke="black" stroke-width=".3" stroke-opacity="1.0"  filling="0" d="M10.644681930541992 9.616009712219238 L10.644681930541992 9.616009712219238 C10.644681930541992 11.222084045410156 10.644681930541992 12.828157424926758 10.644681930541992 14.434231758117676 C10.644681930541992 16.040306091308594 10.644681930541992 17.646381378173828 10.644681930541992 19.25245475769043 L10.644681930541992 19.25245475769043 C12.396450996398926 19.25245475769043 14.148223876953125 19.25245475769043 15.899991989135742 19.25245475769043 L15.899991989135742 19.25245475769043 C15.899991989135742 19.64030647277832 15.899991989135742 20.02815818786621 15.899991989135742 20.4160099029541 L15.899991989135742 20.4160099029541 C13.719331741333008 20.4160099029541 11.53867244720459 20.4160099029541 9.358012199401855 20.4160099029541 L9.358012199401855 20.4160099029541 C9.358012199401855 18.63336181640625 9.358012199401855 16.850711822509766 9.358012199401855 15.068061828613281 C9.358012199401855 13.285411834716797 9.358012199401855 11.502762794494629 9.358012199401855 9.720113754272461 L9.358012199401855 9.720113754272461 C9.78690242767334 9.685412406921387 10.215791702270508 9.650711059570312 10.644681930541992 9.616009712219238 L10.644681930541992 9.616009712219238"></path></svg>