<svg xmlns="http://www.w3.org/2000/svg" viewBox="0.0 0.0 24.0 24.0" height="200px" width="200px"><path fill="none" stroke="black" stroke-width=".3" stroke-opacity="1.0"  filling="0" d="M9.311275482177734 10.443154335021973 L9.311275482177734 10.443154335021973 C10.75485610961914 9.611040115356445 12.089003562927246 9.373411178588867 13.240928649902344 9.710060119628906 C14.392852783203125 10.046710014343262 15.362554550170898 10.957636833190918 16.077241897583008 12.42263412475586 L16.077241897583008 12.42263412475586 C15.660181999206543 12.522049903869629 15.243123054504395 12.621464729309082 14.82606315612793 12.720880508422852 L14.82606315612793 12.720880508422852 C14.458404541015625 12.221996307373047 14.199291229248047 11.62082290649414 13.7230863571167 11.224228858947754 C12.730232238769531 10.397357940673828 9.766140937805176 10.270508766174316 9.743659973144531 12.24863338470459 C9.732026100158691 13.272308349609375 11.166168212890625 13.616768836975098 11.803558349609375 13.820863723754883 C13.548101425170898 14.379472732543945 16.468416213989258 14.75866413116455 16.28670883178711 17.290237426757812 C16.170665740966797 18.906980514526367 14.961883544921875 19.83814811706543 13.51848316192627 20.164121627807617 C12.075082778930664 20.490095138549805 10.397062301635742 20.21087646484375 9.342538833618164 19.406843185424805 C8.29796314239502 18.610395431518555 8.379175186157227 17.860998153686523 8.10810661315918 16.656858444213867 L8.10810661315918 16.656858444213867 C8.457757949829102 16.616025924682617 8.807408332824707 16.575191497802734 9.157059669494629 16.534358978271484 L9.157059669494629 16.534358978271484 C9.537144660949707 17.135814666748047 9.777146339416504 17.853300094604492 10.297313690185547 18.338727951049805 C11.339744567871094 19.311540603637695 14.886574745178223 19.724994659423828 14.915682792663574 17.406108856201172 C14.934228897094727 15.928674697875977 12.909502029418945 15.688140869140625 12.086273193359375 15.41848087310791 C10.45840072631836 14.885249137878418 8.094316482543945 14.376544952392578 8.485206604003906 12.065321922302246 C8.586395263671875 11.467021942138672 9.035919189453125 10.983877182006836 9.311275482177734 10.443154335021973 L9.311275482177734 10.443154335021973"></path></svg>