<svg xmlns="http://www.w3.org/2000/svg" viewBox="0.0 0.0 24.0 24.0" height="200px" width="200px"><path fill="none" stroke="black" stroke-width=".3" stroke-opacity="1.0"  filling="0" d="M16.774484634399414 4.054819583892822 C19.12123680114746 4.054819583892822 20.857868194580078 4.054819583892822 22.365978240966797 4.054819583892822 C21.285507202148438 5.569587707519531 20.017562866210938 6.926832675933838 19.23882484436035 8.523134231567383 C17.462812423706055 12.162237167358398 15.939724922180176 15.925030708312988 14.282964706420898 19.62348175048828 C13.835357666015625 20.622974395751953 13.277926445007324 21.57421112060547 12.770970344543457 22.547077178955078 C12.536907196044922 22.572036743164062 12.30395221710205 22.596994400024414 12.070996284484863 22.62195587158203 C11.449225425720215 21.226993560791016 10.816362380981445 19.837024688720703 10.207903861999512 18.43651580810547 C8.738617897033691 15.054773330688477 7.346429824829102 11.636977195739746 5.786734580993652 8.297389030456543 C5.116709232330322 6.863601207733154 4.10834264755249 5.587890625 3.165426254272461 4.100855827331543 C4.856575012207031 4.100855827331543 6.694153308868408 4.100855827331543 8.786872863769531 4.100855827331543 C7.424635410308838 5.385995388031006 7.951560020446777 6.713843822479248 8.577767372131348 8.102705001831055 C10.08421516418457 11.442293167114258 11.524104118347168 14.812387466430664 13.563021659851074 18.199676513671875 C15.298542976379395 14.066929817199707 17.033510208129883 9.934181213378906 18.821168899536133 5.677191257476807 C18.194961547851562 5.181327819824219 17.713520050048828 4.799169063568115 16.774484634399414 4.054819583892822"></path></svg>