<svg xmlns="http://www.w3.org/2000/svg" viewBox="0.0 0.0 24.0 24.0" height="200px" width="200px"><path fill="none" stroke="black" stroke-width=".3" stroke-opacity="1.0"  filling="0" d="M21.88311004638672 8.656633377075195 C20.50728988647461 13.724583625793457 19.190017700195312 18.57633399963379 17.833431243896484 23.574867248535156 C17.246723175048828 23.62002944946289 16.66001319885254 23.665193557739258 15.908960342407227 23.722904205322266 C14.69288444519043 19.35164451599121 13.543302536010742 15.218748092651367 12.278718948364258 10.673944473266602 C11.002009391784668 15.24342155456543 9.848661422729492 19.370880126953125 8.669806480407715 23.589920043945312 C8.037096977233887 23.589920043945312 7.440768718719482 23.589920043945312 6.637022495269775 23.589920043945312 C5.3452582359313965 18.752805709838867 4.0430378913879395 13.875547409057617 2.6835269927978516 8.783341407775879 C3.404473304748535 8.741105079650879 3.9732017517089844 8.707651138305664 4.666965484619141 8.66708755493164 C5.630039691925049 12.754400253295898 6.566349506378174 16.727130889892578 7.6063690185546875 21.141883850097656 C8.846280097961426 16.757658004760742 9.974952697753906 12.766946792602539 11.115755081176758 8.732324600219727 C11.909882545471191 8.732324600219727 12.59402847290039 8.732324600219727 13.548319816589355 8.732324600219727 C14.635175704956055 12.696273803710938 15.742105484008789 16.734241485595703 16.904232025146484 20.97335433959961 C17.92125129699707 16.82666015625 18.895198822021484 12.855600357055664 19.895488739013672 8.77790641784668 C20.46505355834961 8.743196487426758 20.98276138305664 8.711414337158203 21.88311004638672 8.656633377075195"></path></svg>