<svg xmlns="http://www.w3.org/2000/svg" viewBox="0.0 0.0 24.0 24.0" height="200px" width="200px"><path fill="none" stroke="black" stroke-width=".3" stroke-opacity="1.0"  filling="0" d="M17.651424407958984 7.622391700744629 C17.651424407958984 13.839872360229492 17.651424407958984 19.947423934936523 17.651424407958984 26.822391510009766 C16.59694480895996 26.13833236694336 15.942583084106445 25.713729858398438 15.122546195983887 25.18231964111328 C12.173749923706055 26.870323181152344 9.836593627929688 26.7036075592041 7.869339942932129 24.425323486328125 C5.750478744506836 21.970943450927734 5.622314929962158 17.048641204833984 7.6093668937683105 14.429110527038574 C9.44897747039795 12.003386497497559 11.72465705871582 11.756437301635742 15.613317489624023 13.661172866821289 C15.613317489624023 11.709028244018555 15.613317489624023 9.833989143371582 15.613317489624023 7.781293869018555 C16.324987411499023 7.72606897354126 16.884531021118164 7.682306289672852 17.651424407958984 7.622391700744629"></path>
<path fill="none" stroke="black" stroke-width=".3" stroke-opacity="1.0"  filling="0" d="M11.952850341796875 14.412437438964844 C13.517379760742188 14.325431823730469 14.688562393188477 15.095453262329102 15.276758193969727 16.762096405029297 C15.587267875671387 17.64152717590332 15.669583320617676 18.601709365844727 15.790453910827637 19.20345115661621 C15.7060546875 20.153736114501953 15.722204208374023 20.771629333496094 15.586225509643555 21.3546142578125 C15.197047233581543 23.023340225219727 13.862794876098633 24.192440032958984 12.360784530639648 24.26120948791504 C10.828556060791016 24.33154296875 9.26767349243164 23.350521087646484 8.960811614990234 21.646366119384766 C8.679998397827148 20.08600616455078 8.710737228393555 18.398523330688477 8.977482795715332 16.830867767333984 C9.226515769958496 15.367410659790039 10.379464149475098 14.49996280670166 11.952850341796875 14.412437438964844"></path></svg>