<svg xmlns="http://www.w3.org/2000/svg" viewBox="0.0 0.0 24.0 24.0" height="200px" width="200px"><path fill="none" stroke="black" stroke-width=".3" stroke-opacity="1.0"  filling="0" d="M13.362221717834473 6.844564914703369 C14.868426322937012 7.043125152587891 16.38834571838379 7.157214164733887 17.88302993774414 7.416659355163574 C18.291120529174805 7.487416744232178 18.632293701171875 7.946518421173096 19.420501708984375 8.541650772094727 C18.184711456298828 8.842233657836914 17.457387924194336 9.018854141235352 16.532052993774414 9.244291305541992 C18.18800163269043 14.299896240234375 13.906890869140625 15.293245315551758 10.649296760559082 17.027629852294922 C10.711278915405273 17.23167610168457 10.773260116577148 17.435720443725586 10.835241317749023 17.639766693115234 C11.922933578491211 17.720396041870117 13.0150146484375 17.760986328125 14.096673965454102 17.892078399658203 C15.778402328491211 18.09612464904785 17.69434356689453 17.892078399658203 18.448543548583984 19.996158599853516 C18.966882705688477 21.442028045654297 18.098045349121094 23.014602661132812 16.02248764038086 24.458826065063477 C14.048405647277832 25.832292556762695 11.817071914672852 26.36269760131836 9.523208618164062 25.784570693969727 C8.502433776855469 25.527320861816406 7.328625202178955 24.716625213623047 6.833321571350098 23.820907592773438 C6.186629295349121 22.6514892578125 7.125128269195557 21.599998474121094 8.135480880737305 20.839214324951172 C8.493658065795898 20.568803787231445 8.837023735046387 20.280288696289062 9.304353713989258 19.90730094909668 C8.725128173828125 19.1750431060791 8.283578872680664 18.61720848083496 7.680219650268555 17.854780197143555 C8.55509090423584 17.19931411743164 9.32409954071045 16.62337875366211 10.226397514343262 15.947067260742188 C10.051423072814941 15.790194511413574 9.913198471069336 15.634417533874512 9.745355606079102 15.520875930786133 C7.418032169342041 13.943365097045898 6.777374267578125 12.363658905029297 7.633596420288086 10.293587684631348 C8.483236312866211 8.239422798156738 11.2767915725708 6.569761753082275 13.362221717834473 6.844564914703369"></path>
<path fill="none" stroke="black" stroke-width=".3" stroke-opacity="1.0"  filling="0" d="M11.825848579406738 8.150565147399902 C13.486732482910156 8.221871376037598 14.839902877807617 10.028658866882324 14.793828964233398 12.302227973937988 C14.647926330566406 13.361947059631348 14.32375717163086 14.47816276550293 12.776962280273438 14.538497924804688 C11.08316707611084 14.604867935180664 9.383338928222656 12.553444862365723 9.454645156860352 10.564002990722656 C9.507850646972656 9.084126472473145 10.481453895568848 8.092971801757812 11.825848579406738 8.150565147399902"></path>
<path fill="none" stroke="black" stroke-width=".3" stroke-opacity="1.0"  filling="0" d="M13.21412467956543 19.8710994720459 C14.827836990356445 20.120670318603516 16.56112289428711 19.816797256469727 16.670278549194336 21.714088439941406 C16.766815185546875 23.392526626586914 15.264450073242188 23.948165893554688 13.911827087402344 24.18950843811035 C12.866369247436523 24.376001358032227 11.707919120788574 24.377099990844727 10.690435409545898 24.112171173095703 C10.026191711425781 23.939388275146484 9.04381275177002 23.12649917602539 9.06191349029541 22.631744384765625 C9.088789939880371 21.903873443603516 9.726156234741211 20.92533302307129 10.384916305541992 20.56002426147461 C11.285018920898438 20.060335159301758 12.449502944946289 20.03675079345703 13.21412467956543 19.8710994720459"></path></svg>