<svg xmlns="http://www.w3.org/2000/svg" viewBox="0.0 0.0 24.0 24.0" height="200px" width="200px"><path fill="none" stroke="black" stroke-width=".3" stroke-opacity="1.0"  filling="0" d="M10.977182388305664 6.723139762878418 C11.585832595825195 6.723139762878418 12.09535026550293 6.723139762878418 12.703161239624023 6.723139762878418 C12.703161239624023 7.334310531616211 12.703161239624023 7.862731456756592 12.703161239624023 8.54026985168457 C12.207504272460938 8.590255737304688 11.694624900817871 8.641921997070312 10.977182388305664 8.714590072631836 C10.977182388305664 7.8904547691345215 10.977182388305664 7.364133834838867 10.977182388305664 6.723139762878418"></path>
<path fill="none" stroke="black" stroke-width=".3" stroke-opacity="1.0"  filling="0" d="M10.883931159973145 10.938748359680176 C11.573230743408203 10.938748359680176 12.084429740905762 10.938748359680176 12.611590385437012 10.938748359680176 C12.684259414672852 11.188257217407227 12.790531158447266 11.383580207824707 12.7909517288208 11.579322814941406 C12.802292823791504 15.069925308227539 12.803973197937012 18.560529708862305 12.800191879272461 22.051136016845703 C12.79851245880127 23.559106826782227 12.558244705200195 24.97425079345703 11.198126792907715 25.92272186279297 C10.358030319213867 25.92272186279297 9.517932891845703 25.92272186279297 8.677835464477539 25.92272186279297 C8.775287628173828 25.279205322265625 8.477892875671387 24.364761352539062 9.5032320022583 24.273609161376953 C10.959539413452148 24.144235610961914 10.86292839050293 23.09831428527832 10.871329307556152 22.13430404663086 C10.896952629089355 19.20236587524414 10.88309097290039 16.27000617980957 10.883931159973145 13.337646484375 C10.88435173034668 12.58029842376709 10.883931159973145 11.823370933532715 10.883931159973145 10.938748359680176"></path></svg>