<svg xmlns="http://www.w3.org/2000/svg" viewBox="0.0 0.0 24.0 24.0" height="200px" width="200px"><path fill="none" stroke="black" stroke-width=".3" stroke-opacity="1.0"  filling="0" d="M13.03956413269043 12.357775688171387 L13.03956413269043 12.357775688171387 C13.616705894470215 12.456817626953125 14.239339828491211 12.409440994262695 14.770989418029785 12.654901504516602 C15.969575881958008 13.208285331726074 16.215078353881836 14.178853034973145 16.39358901977539 15.374160766601562 C16.58014678955078 16.623340606689453 16.593120574951172 17.937915802001953 16.557188034057617 19.25514793395996 C16.521255493164062 20.57238006591797 16.436418533325195 21.892271041870117 16.427352905273438 23.152080535888672 L16.427352905273438 23.152080535888672 C15.845771789550781 23.152080535888672 15.264189720153809 23.152080535888672 14.682608604431152 23.152080535888672 L14.682608604431152 23.152080535888672 C14.688565254211426 21.448123931884766 14.710386276245117 19.743513107299805 14.695137023925781 18.03956413269043 C14.686589241027832 17.084474563598633 14.800548553466797 15.361974716186523 14.095807075500488 14.553654670715332 C12.52590560913086 12.753018379211426 10.381855964660645 14.656502723693848 9.831985473632812 16.16171646118164 C9.139928817749023 18.056150436401367 9.736791610717773 21.161069869995117 9.738829612731934 23.145980834960938 L9.738829612731934 23.145980834960938 C9.154400825500488 23.145980834960938 8.569972038269043 23.145980834960938 7.985543251037598 23.145980834960938 L7.985543251037598 23.145980834960938 C7.985543251037598 21.366863250732422 7.985543251037598 19.587745666503906 7.985543251037598 17.808626174926758 C7.985543727874756 16.029508590698242 7.985543727874756 14.25039005279541 7.985543727874756 12.471271514892578 L7.985543727874756 12.471271514892578 C8.56468391418457 12.7415189743042 9.143824577331543 13.01176643371582 9.722965240478516 13.282013893127441 L9.722965240478516 13.282013893127441 C10.808690071105957 12.910102844238281 11.917994499206543 12.601080894470215 13.03956413269043 12.357775688171387 L13.03956413269043 12.357775688171387"></path></svg>