<svg xmlns="http://www.w3.org/2000/svg" viewBox="0.0 0.0 24.0 24.0" height="200px" width="200px"><path fill="none" stroke="black" stroke-width=".3" stroke-opacity="1.0"  filling="0" d="M12.701152801513672 10.12429428100586 L12.701152801513672 10.12429428100586 C12.70981502532959 10.285028457641602 12.824240684509277 12.406481742858887 12.831801414489746 12.546548843383789 L12.831801414489746 12.546548843383789 C13.237799644470215 12.621295928955078 13.643796920776367 12.696043014526367 14.049795150756836 12.770790100097656 L14.049795150756836 12.770790100097656 C14.016481399536133 13.08798599243164 14.164047241210938 13.486065864562988 13.94985294342041 13.722378730773926 C13.694293022155762 14.004327774047852 13.226633071899414 13.959396362304688 12.865022659301758 14.077905654907227 L12.865022659301758 14.077905654907227 C12.864563941955566 15.88333511352539 12.86440658569336 17.688766479492188 12.864383697509766 19.49419593811035 L12.864383697509766 19.49419593811035 C13.44547176361084 19.654983520507812 14.040653228759766 20.163246154785156 14.162555694580078 20.75371742248535 L14.162555694580078 20.75371742248535 C13.614169120788574 20.798887252807617 13.056512832641602 20.99932861328125 12.517396926879883 20.88922691345215 C10.649892807006836 20.507835388183594 11.361774444580078 15.793936729431152 11.361774444580078 14.51169490814209 L11.361774444580078 14.51169490814209 C11.051606178283691 14.071943283081055 10.432655334472656 13.730569839477539 10.431268692016602 13.192440032958984 C10.430152893066406 12.75950813293457 11.047772407531738 12.584454536437988 11.356024742126465 12.280461311340332 L11.356024742126465 12.280461311340332 C11.377653121948242 11.852781295776367 11.194250106811523 11.36074447631836 11.42090892791748 10.997422218322754 C11.694315910339355 10.559165954589844 12.274404525756836 10.415336608886719 12.701152801513672 10.12429428100586 L12.701152801513672 10.12429428100586"></path></svg>