<svg xmlns="http://www.w3.org/2000/svg" viewBox="0.0 0.0 24.0 24.0" height="200px" width="200px"><path fill="none" stroke="black" stroke-width=".3" stroke-opacity="1.0"  filling="0" d="M13.24649429321289 8.665412902832031 C13.323158264160156 10.087950706481934 13.396982192993164 11.458810806274414 13.478757858276367 12.971641540527344 C14.25788688659668 13.115315437316895 14.959787368774414 13.244791984558105 15.644081115722656 13.370292663574219 C15.758224487304688 15.238616943359375 15.758224487304688 15.238616943359375 13.537817001342773 15.694055557250977 C13.536681175231934 18.81966209411621 13.536681175231934 21.977069854736328 13.536681175231934 25.323017120361328 C14.892776489257812 25.786975860595703 16.63105583190918 25.556983947753906 15.84454345703125 27.562164306640625 C12.12095832824707 28.415685653686523 10.959077835083008 27.558757781982422 10.872758865356445 23.84482765197754 C10.842094421386719 22.523937225341797 10.865377426147461 21.201915740966797 10.865377426147461 19.880460739135742 C10.864809036254883 18.564117431640625 10.865377426147461 17.247203826904297 10.865377426147461 16.46523666381836 C10.083974838256836 15.42772102355957 9.404223442077637 14.839397430419922 9.211145401000977 14.119893074035645 C9.129938125610352 13.816645622253418 10.074320793151855 13.237977027893066 10.855154991149902 12.498598098754883 C11.180549621582031 11.346939086914062 10.040247917175293 8.845430374145508 13.24649429321289 8.665412902832031"></path></svg>