<svg xmlns="http://www.w3.org/2000/svg" viewBox="0.0 0.0 24.0 24.0" height="200px" width="200px"><path fill="none" stroke="black" stroke-width=".3" stroke-opacity="1.0"  filling="0" d="M9.598953247070312 10.973529815673828 L9.598953247070312 10.973529815673828 C9.141924858093262 13.054463386535645 9.557394027709961 13.909972190856934 10.2664155960083 15.87805461883545 L10.2664155960083 15.87805461883545 C11.493825912475586 13.789739608764648 12.05274486541748 13.239005088806152 10.895548820495605 11.123543739318848 L10.895548820495605 11.123543739318848 C10.903116226196289 11.123543739318848 13.62594985961914 11.123543739318848 13.67906379699707 11.123543739318848 L13.67906379699707 11.123543739318848 C13.259661674499512 13.076769828796387 13.737404823303223 13.926998138427734 14.326369285583496 15.79544734954834 L14.326369285583496 15.79544734954834 C14.465919494628906 15.808003425598145 14.605469703674316 15.820560455322266 14.745019912719727 15.83311653137207 L14.745019912719727 15.83311653137207 C14.904263496398926 15.421832084655762 16.019493103027344 12.541118621826172 16.17708969116211 12.133988380432129 L16.17708969116211 12.133988380432129 C15.765267372131348 11.811271667480469 15.353446006774902 11.488554954528809 14.94162368774414 11.165838241577148 L14.94162368774414 11.165838241577148 C15.009895324707031 11.165838241577148 17.485130310058594 11.165838241577148 17.70002555847168 11.165838241577148 L17.70002555847168 11.165838241577148 C17.138341903686523 12.346556663513184 16.57668113708496 13.527286529541016 16.015018463134766 14.708015441894531 C15.453357696533203 15.888744354248047 14.891693115234375 17.06947135925293 14.33000373840332 18.250186920166016 L14.33000373840332 18.250186920166016 C14.181422233581543 18.25580406188965 14.03283977508545 18.261423110961914 13.884258270263672 18.267040252685547 L13.884258270263672 18.267040252685547 C13.322012901306152 16.77757453918457 12.759722709655762 15.288126945495605 12.197429656982422 13.798678398132324 L12.197429656982422 13.798678398132324 C11.511895179748535 15.278105735778809 10.82639217376709 16.757545471191406 10.140853881835938 18.236970901489258 L10.140853881835938 18.236970901489258 C10.019146919250488 18.24622344970703 9.897439002990723 18.255474090576172 9.775732040405273 18.264726638793945 L9.775732040405273 18.264726638793945 C9.30650520324707 17.068422317504883 8.829203605651855 15.875417709350586 8.348396301269531 14.68381404876709 C7.867588996887207 13.49221134185791 7.383275985717773 12.302011489868164 6.900027275085449 11.11131763458252 L6.900027275085449 11.11131763458252 C7.799668788909912 11.06538200378418 8.699311256408691 11.019454002380371 9.598953247070312 10.973529815673828 L9.598953247070312 10.973529815673828"></path></svg>