<svg xmlns="http://www.w3.org/2000/svg" viewBox="0.0 0.0 24.0 24.0" height="200px" width="200px"><path fill="none" stroke="black" stroke-width=".3" stroke-opacity="1.0"  filling="0" d="M14.525314331054688 11.22684383392334 L14.525314331054688 11.22684383392334 C14.96603775024414 11.22684383392334 15.40676212310791 11.22684383392334 15.847485542297363 11.22684383392334 L15.847485542297363 11.22684383392334 C15.162378311157227 13.029308319091797 14.562419891357422 14.950705528259277 13.846892356872559 16.810787200927734 C13.131364822387695 18.67087173461914 12.300268173217773 20.46963882446289 11.152884483337402 22.026844024658203 L11.152884483337402 22.026844024658203 C10.547910690307617 22.026844024658203 9.942935943603516 22.026844024658203 9.33796215057373 22.026844024658203 L9.33796215057373 22.026844024658203 C9.33796215057373 21.668901443481445 9.33796215057373 21.310956954956055 9.33796215057373 20.953014373779297 L9.33796215057373 20.953014373779297 C11.490144729614258 20.425159454345703 11.587958335876465 18.666427612304688 11.020096778869629 16.704313278198242 C10.452235221862793 14.742198944091797 9.218698501586914 12.576702117919922 8.708184242248535 11.235313415527344 L8.708184242248535 11.235313415527344 C9.185307502746582 11.235313415527344 9.662429809570312 11.235313415527344 10.13955307006836 11.235313415527344 L10.13955307006836 11.235313415527344 C10.868597984313965 13.170646667480469 11.597643852233887 15.105976104736328 12.326837539672852 17.04125213623047 L12.326837539672852 17.04125213623047 C13.059578895568848 15.103084564208984 13.79243278503418 13.164958953857422 14.525314331054688 11.22684383392334 L14.525314331054688 11.22684383392334"></path></svg>