<svg xmlns="http://www.w3.org/2000/svg" viewBox="0.0 0.0 24.0 24.0" height="200px" width="200px"><path fill="none" stroke="black" stroke-width=".3" stroke-opacity="1.0"  filling="0" d="M12.511058807373047 7.0836615562438965 C14.950531005859375 7.097684860229492 16.810388565063477 8.28132438659668 17.630470275878906 10.710409164428711 C18.963687896728516 14.66020393371582 18.966285705566406 18.696212768554688 17.6450138092041 22.648086547851562 C16.856613159179688 25.00757598876953 14.850293159484863 26.285221099853516 12.511578559875488 26.283662796020508 C10.084051132202148 26.282106399536133 8.384679794311523 25.08963394165039 7.3937249183654785 22.651721954345703 C7.16779899597168 22.096515655517578 6.969400405883789 21.51274871826172 6.876433372497559 20.923784255981445 C6.648950576782227 19.47994041442871 6.490023612976074 18.025188446044922 6.257347106933594 16.214153289794922 C6.595455646514893 14.582298278808594 6.821380615234375 12.596235275268555 7.437351226806641 10.739493370056152 C8.262627601623535 8.252240180969238 10.114694595336914 7.069638252258301 12.511058807373047 7.0836615562438965"></path>
<path fill="none" stroke="black" stroke-width=".3" stroke-opacity="1.0"  filling="0" d="M12.48457145690918 9.176714897155762 C14.102402687072754 9.166327476501465 15.1151704788208 10.12248420715332 15.500020980834961 11.55438232421875 C15.943562507629395 13.205972671508789 16.120145797729492 14.929237365722656 16.400606155395508 16.553821563720703 C16.138324737548828 18.301494598388672 16.030296325683594 19.95412254333496 15.613245010375977 21.52469253540039 C15.218523979187012 23.010604858398438 14.273794174194336 24.185935974121094 12.519369125366211 24.18229866027832 C10.788314819335938 24.178661346435547 9.829561233520508 23.111881256103516 9.414066314697266 21.560009002685547 C8.524908065795898 18.238130569458008 8.545682907104492 14.88924503326416 9.486258506774902 11.58866024017334 C9.890846252441406 10.169746398925781 10.867258071899414 9.187102317810059 12.48457145690918 9.176714897155762"></path></svg>