<svg xmlns="http://www.w3.org/2000/svg" viewBox="0.0 0.0 24.0 24.0" height="200px" width="200px"><path fill="none" stroke="black" stroke-width=".3" stroke-opacity="1.0"  filling="0" d="M17.992300033569336 2.785517692565918 C17.499542236328125 4.9748854637146 16.621265411376953 5.999450206756592 15.015398025512695 6.15288782119751 C13.665811538696289 6.282126426696777 12.294225692749023 6.179285049438477 10.592667579650879 6.179285049438477 C10.135655403137207 7.749404430389404 9.671493530273438 9.34537124633789 9.08249282836914 11.368103981018066 C10.302290916442871 11.142621994018555 11.070577621459961 11.012833595275879 11.833913803100586 10.857746124267578 C14.227314949035645 10.372137069702148 16.45022964477539 11.231715202331543 17.557287216186523 13.081210136413574 C18.659395217895508 14.923007011413574 18.3745174407959 17.287809371948242 16.820898056030273 19.192852020263672 C14.889459609985352 21.56095314025879 11.515490531921387 22.65976333618164 7.790650844573975 21.552154541015625 C8.533088684082031 21.383869171142578 9.335472106933594 21.340972900390625 10.006966590881348 21.02199935913086 C11.544088363647461 20.29275894165039 13.245646476745605 19.667461395263672 14.434647560119629 18.53290557861328 C15.190834045410156 17.811365127563477 15.531255722045898 16.194499969482422 15.3662691116333 15.08194351196289 C15.154537200927734 13.657011985778809 13.823648452758789 12.85352897644043 12.322823524475098 12.771036148071289 C10.876993179321289 12.691292762756348 9.422914505004883 12.753987312316895 7.757653713226318 12.753987312316895 C7.557470798492432 9.557653427124023 8.888359069824219 6.696242332458496 9.898625373840332 3.722640037536621 C12.612648963928223 3.3508710861206055 15.245280265808105 5.043630123138428 17.992300033569336 2.785517692565918"></path></svg>