<svg xmlns="http://www.w3.org/2000/svg" viewBox="0.0 0.0 24.0 24.0" height="200px" width="200px"><path fill="none" stroke="black" stroke-width=".3" stroke-opacity="1.0"  filling="0" d="M12.291289329528809 7.532998561859131 L12.327470779418945 7.568509101867676 C13.851872444152832 7.568509101867676 15.376267433166504 7.568509101867676 16.90066909790039 7.568509101867676 L16.90066909790039 7.568509101867676 C16.88649559020996 7.679255962371826 16.631364822387695 9.673954963684082 16.62998390197754 9.684757232666016 L16.62998390197754 9.684757232666016 C15.21553897857666 7.793039321899414 14.599325180053711 7.684256076812744 12.291289329528809 7.532998561859131 L12.291289329528809 7.532998561859131"></path>
<path fill="none" stroke="black" stroke-width=".3" stroke-opacity="1.0"  filling="0" d="M12.291290283203125 7.5333333015441895 L12.291290283203125 7.5333333015441895 C11.052125930786133 9.139881134033203 9.664724349975586 9.263671875 9.23350715637207 11.633413314819336 C8.981992721557617 13.015605926513672 9.234809875488281 14.603017807006836 9.96025562286377 15.825770378112793 C10.685700416564941 17.04852294921875 11.883773803710938 17.906612396240234 13.522769927978516 17.830162048339844 C15.133623123168945 17.755023956298828 15.590873718261719 17.15061378479004 16.875545501708984 16.260971069335938 L16.875545501708984 16.260971069335938 C16.672780990600586 16.78685188293457 16.675865173339844 17.450410842895508 16.267253875732422 17.838611602783203 C14.843606948852539 19.191144943237305 11.041749000549316 18.188650131225586 9.703741073608398 17.20183753967285 C8.429801940917969 16.262277603149414 7.726040363311768 14.747840881347656 7.621005058288574 13.190385818481445 C7.515969276428223 11.632930755615234 8.009660720825195 10.032455444335938 9.130627632141113 8.920818328857422 C10.286554336547852 7.774512767791748 10.822717666625977 7.88625955581665 12.327470779418945 7.568509101867676 L12.291290283203125 7.5333333015441895"></path></svg>