<svg xmlns="http://www.w3.org/2000/svg" viewBox="0.0 0.0 24.0 24.0" height="200px" width="200px"><path fill="none" stroke="black" stroke-width=".3" stroke-opacity="1.0"  filling="0" d="M5.38592004776001 5.712646961212158 C8.497297286987305 5.712646961212158 11.510443687438965 5.5055060386657715 14.482481002807617 5.768169403076172 C17.74814796447754 6.05752420425415 20.179912567138672 8.613679885864258 20.686553955078125 12.169769287109375 C20.97110366821289 14.165364265441895 20.977508544921875 16.27734375 20.6603946685791 18.264930725097656 C20.038970947265625 22.161094665527344 17.27193832397461 24.54587745666504 13.329862594604492 24.763696670532227 C10.770503997802734 24.905704498291016 8.197263717651367 24.790924072265625 5.38592004776001 24.790924072265625 C5.38592004776001 18.280948638916016 5.38592004776001 12.088623046875 5.38592004776001 5.712646961212158"></path>
<path fill="none" stroke="black" stroke-width=".3" stroke-opacity="1.0"  filling="0" d="M7.988522052764893 7.802735805511475 C9.911511421203613 7.802735805511475 11.763497352600098 7.68154764175415 13.593059539794922 7.833164691925049 C15.877476692199707 8.022687911987305 17.320520401000977 9.466264724731445 17.936603546142578 11.593191146850586 C18.640239715576172 14.023889541625977 18.597530364990234 16.506906509399414 17.86346435546875 18.94614601135254 C17.168903350830078 21.25565528869629 15.537938117980957 22.477142333984375 13.183584213256836 22.633033752441406 C11.520052909851074 22.743541717529297 9.843709945678711 22.65438461303711 7.988522052764893 22.65438461303711 C7.988522052764893 17.652584075927734 7.988522052764893 12.83603572845459 7.988522052764893 7.802735805511475"></path></svg>