<svg xmlns="http://www.w3.org/2000/svg" viewBox="0.0 0.0 24.0 24.0" height="200px" width="200px"><path fill="none" stroke="black" stroke-width=".3" stroke-opacity="1.0"  filling="0" d="M10.573318481445312 8.449755668640137 L10.573318481445312 8.449755668640137 C10.573318481445312 10.056800842285156 10.573318481445312 11.66384506225586 10.573318481445312 13.270890235900879 C10.573318481445312 14.877935409545898 10.573318481445312 16.4849796295166 10.573318481445312 18.092025756835938 L10.573318481445312 18.092025756835938 C12.316991806030273 18.092025756835938 14.060659408569336 18.092025756835938 15.80433177947998 18.092025756835938 L15.80433177947998 18.092025756835938 C15.849536895751953 18.477935791015625 15.89474105834961 18.863845825195312 15.939946174621582 19.249755859375 L15.939946174621582 19.249755859375 C13.708630561828613 19.249755859375 11.477312088012695 19.249755859375 9.245996475219727 19.249755859375 L9.245996475219727 19.249755859375 C9.245996475219727 17.46138572692871 9.245996475219727 15.673015594482422 9.245996475219727 13.884645462036133 C9.245996475219727 12.096275329589844 9.245996475219727 10.307905197143555 9.245996475219727 8.519535064697266 L9.245996475219727 8.519535064697266 C9.688437461853027 8.496274948120117 10.130877494812012 8.473015785217285 10.573318481445312 8.449755668640137 L10.573318481445312 8.449755668640137"></path></svg>