<svg xmlns="http://www.w3.org/2000/svg" viewBox="0.0 0.0 24.0 24.0" height="200px" width="200px"><path fill="none" stroke="black" stroke-width=".3" stroke-opacity="1.0"  filling="0" d="M7.180989742279053 7.743842601776123 L7.180989742279053 7.743842601776123 C7.588770866394043 7.832311153411865 7.996551990509033 7.920779228210449 8.404333114624023 8.009247779846191 L8.404333114624023 8.009247779846191 C9.053565979003906 9.248119354248047 9.702790260314941 10.4869966506958 10.352035522460938 11.725861549377441 C11.00128173828125 12.964727401733398 11.650548934936523 14.203580856323242 12.29986572265625 15.442408561706543 L12.29986572265625 15.442408561706543 C13.074095726013184 14.25772476196289 13.670021057128906 12.742552757263184 14.381564140319824 11.349461555480957 C15.093106269836426 9.95637035369873 15.920265197753906 8.685359001159668 17.156963348388672 7.988994121551514 L17.156963348388672 7.988994121551514 C17.12710952758789 9.543340682983398 17.07498550415039 11.071043968200684 17.091829299926758 12.595516204833984 C17.108673095703125 14.119989395141602 17.19448471069336 15.641231536865234 17.440505981445312 17.18265724182129 L17.440505981445312 17.18265724182129 C16.809337615966797 17.215404510498047 16.17816734313965 17.248151779174805 15.546998977661133 17.280899047851562 L15.546998977661133 17.280899047851562 C16.058683395385742 14.828530311584473 15.941329956054688 12.478849411010742 16.004657745361328 9.987393379211426 L16.004657745361328 9.987393379211426 C15.9066162109375 9.955955505371094 15.808575630187988 9.924518585205078 15.71053409576416 9.893080711364746 L15.71053409576416 9.893080711364746 C15.085943222045898 11.192085266113281 14.461349487304688 12.491087913513184 13.836772918701172 13.790099143981934 C13.212196350097656 15.089110374450684 12.587638854980469 16.38813018798828 11.96312141418457 17.687170028686523 L11.96312141418457 17.687170028686523 C11.332351684570312 16.383975982666016 10.701592445373535 15.08077621459961 10.070831298828125 13.77757740020752 C9.440070152282715 12.47437858581543 8.809306144714355 11.171180725097656 8.178526878356934 9.86799144744873 L8.178526878356934 9.86799144744873 C8.055900573730469 9.902451515197754 7.933273792266846 9.936912536621094 7.810647487640381 9.971372604370117 L7.810647487640381 9.971372604370117 C7.841222763061523 11.306662559509277 7.803903579711914 12.566140174865723 7.853397846221924 13.81576156616211 C7.902892112731934 15.065383911132812 8.039199829101562 16.30514907836914 8.417028427124023 17.601016998291016 L8.417028427124023 17.601016998291016 C7.824954986572266 17.50146484375 7.232882022857666 17.401912689208984 6.640808582305908 17.30236053466797 L6.640808582305908 17.30236053466797 C7.175581932067871 15.800422668457031 7.479339599609375 14.189032554626465 7.5650482177734375 12.564007759094238 C7.650756359100342 10.938982963562012 7.518415451049805 9.300322532653809 7.180989742279053 7.743842601776123 L7.180989742279053 7.743842601776123"></path></svg>