<svg xmlns="http://www.w3.org/2000/svg" viewBox="0.0 0.0 24.0 24.0" height="200px" width="200px"><path fill="none" stroke="black" stroke-width=".3" stroke-opacity="1.0"  filling="0" d="M11.9269380569458 12.517226219177246 L11.9269380569458 12.517226219177246 C13.923903465270996 12.763860702514648 14.972063064575195 13.348591804504395 17.01152801513672 13.00798511505127 L17.01152801513672 13.00798511505127 C14.875212669372559 11.675437927246094 14.272612571716309 11.524537086486816 12.000826835632324 12.582293510437012 L11.9269380569458 12.517226219177246"></path>
<path fill="none" stroke="black" stroke-width=".3" stroke-opacity="1.0"  filling="0" d="M11.927489280700684 12.517226219177246 L11.927489280700684 12.517226219177246 C11.399431228637695 13.686545372009277 10.644674301147461 15.358100891113281 10.424269676208496 16.94936752319336 C10.203864097595215 18.540634155273438 10.517810821533203 20.051612854003906 12.127159118652344 20.899776458740234 C13.336784362792969 21.537277221679688 14.379672050476074 21.29292869567871 15.69089126586914 21.24225616455078 L15.69089126586914 21.24225616455078 C14.493400573730469 21.916101455688477 13.777779579162598 22.549850463867188 12.363106727600098 22.55489730834961 C10.705450057983398 22.560810089111328 9.55805492401123 21.53757667541504 8.95209789276123 20.185598373413086 C8.34614086151123 18.833620071411133 8.281621932983398 17.15289878845215 8.789717674255371 15.843839645385742 C9.421262741088867 14.216726303100586 10.64881420135498 13.4956636428833 12.000826835632324 12.582293510437012 L12.000826835632324 12.582293510437012 C11.976381301879883 12.560604095458984 11.951934814453125 12.538915634155273 11.927489280700684 12.517226219177246 L11.927489280700684 12.517226219177246"></path></svg>