<svg xmlns="http://www.w3.org/2000/svg" viewBox="0.0 0.0 24.0 24.0" height="200px" width="200px"><path fill="none" stroke="black" stroke-width=".3" stroke-opacity="1.0"  filling="0" d="M14.233875274658203 7.14152717590332 L14.233875274658203 7.14152717590332 C14.4068021774292 7.439501762390137 14.579730033874512 7.737476348876953 14.752656936645508 8.03545093536377 L14.752656936645508 8.03545093536377 C14.011421203613281 7.866929054260254 13.270174980163574 7.698451995849609 12.528907775878906 7.530067443847656 L12.573463439941406 7.581166744232178 C13.126934051513672 7.434620380401611 13.680404663085938 7.288073539733887 14.233875274658203 7.14152717590332 L14.233875274658203 7.14152717590332"></path>
<path fill="none" stroke="black" stroke-width=".3" stroke-opacity="1.0"  filling="0" d="M12.528907775878906 7.530067443847656 L12.528907775878906 7.530067443847656 C11.682534217834473 9.164587020874023 11.629382133483887 10.219117164611816 11.652743339538574 12.048606872558594 L11.652743339538574 12.048606872558594 C12.22501277923584 12.154335975646973 12.797282218933105 12.260066032409668 13.369551658630371 12.365795135498047 L13.369551658630371 12.365795135498047 C13.376614570617676 12.468616485595703 13.383676528930664 12.571438789367676 13.390739440917969 12.674260139465332 L13.390739440917969 12.674260139465332 C12.879539489746094 12.742911338806152 12.368340492248535 12.811563491821289 11.85714054107666 12.88021469116211 L11.85714054107666 12.88021469116211 C11.565309524536133 14.750760078430176 11.494745254516602 15.968801498413086 12.21358871459961 17.72747039794922 L12.21358871459961 17.72747039794922 C11.5571928024292 17.72747039794922 10.900795936584473 17.72747039794922 10.244400024414062 17.72747039794922 L10.244400024414062 17.72747039794922 C10.552903175354004 16.195789337158203 10.296730041503906 14.060258865356445 10.382651329040527 12.10712718963623 C10.468572616577148 10.1539945602417 10.896586418151855 8.383259773254395 12.573463439941406 7.581167697906494 L12.528907775878906 7.530067443847656"></path></svg>