<svg xmlns="http://www.w3.org/2000/svg" viewBox="0.0 0.0 24.0 24.0" height="200px" width="200px"><path fill="none" stroke="black" stroke-width=".3" stroke-opacity="1.0"  filling="0" d="M12.552709579467773 5.146608829498291 C12.901700973510742 6.791608810424805 12.0 6.720455169677734 11.001310348510742 6.538336277008057 C10.753120422363281 4.97338342666626 10.753120422363281 4.97338342666626 12.552709579467773 5.146608829498291"></path>
<path fill="none" stroke="black" stroke-width=".3" stroke-opacity="1.0"  filling="0" d="M10.84714412689209 9.300614356994629 C11.450254440307617 9.300614356994629 11.967811584472656 9.300614356994629 12.578969955444336 9.300614356994629 C12.578969955444336 13.480032920837402 12.697558403015137 17.549335479736328 12.534074783325195 21.607200622558594 C12.43708610534668 23.997615814208984 11.404088973999023 24.566423416137695 8.243690490722656 24.142040252685547 C8.673151969909668 23.516483306884766 8.922189712524414 22.80706787109375 9.211462020874023 22.790124893188477 C10.81537914276123 22.696949005126953 10.712461471557617 21.577552795410156 10.71796703338623 20.522109985351562 C10.73575496673584 17.146554946899414 10.725590705871582 13.771000862121582 10.736178398132324 10.395869255065918 C10.73702621459961 10.056196212768555 10.803096771240234 9.716524124145508 10.84714412689209 9.300614356994629"></path></svg>