<svg xmlns="http://www.w3.org/2000/svg" viewBox="0.0 0.0 24.0 24.0" height="200px" width="200px"><path fill="none" stroke="black" stroke-width=".3" stroke-opacity="1.0"  filling="0" d="M7.882636070251465 11.590933799743652 L7.882636070251465 11.590933799743652 C8.36457633972168 11.966172218322754 8.846515655517578 12.341409683227539 9.328455924987793 12.71664810180664 L9.280569076538086 12.675760269165039 C7.76411247253418 14.137126922607422 8.360888481140137 16.561323165893555 8.857320785522461 18.42699432373047 L8.857320785522461 18.42699432373047 C8.319512367248535 18.42699432373047 7.781704425811768 18.42699432373047 7.243896484375 18.42699432373047 L7.243896484375 18.42699432373047 C7.27038049697876 16.3073673248291 7.382877349853516 14.434508323669434 6.83943510055542 12.366703987121582 L6.83943510055542 12.366703987121582 C7.187168598175049 12.108114242553711 7.534902572631836 11.849523544311523 7.882636070251465 11.590933799743652 L7.882636070251465 11.590933799743652"></path>
<path fill="none" stroke="black" stroke-width=".3" stroke-opacity="1.0"  filling="0" d="M11.387229919433594 11.617088317871094 L11.387229919433594 11.617088317871094 C13.622859954833984 12.968509674072266 12.78203010559082 16.07819175720215 13.17304801940918 18.426624298095703 L13.17304801940918 18.426624298095703 C12.60049057006836 18.426624298095703 12.027934074401855 18.426624298095703 11.455376625061035 18.426624298095703 L11.455376625061035 18.426624298095703 C11.53872299194336 17.34455108642578 12.526987075805664 13.026848793029785 10.837525367736816 12.629864692687988 C10.332080841064453 12.511096954345703 9.799554824829102 12.66046142578125 9.280569076538086 12.675760269165039 L9.328455924987793 12.71664810180664 C9.794801712036133 12.093905448913574 10.609609603881836 11.641457557678223 11.387229919433594 11.617088317871094 L11.387229919433594 11.617088317871094"></path>
<path fill="none" stroke="black" stroke-width=".3" stroke-opacity="1.0"  filling="0" d="M16.07647705078125 11.70107364654541 L16.07647705078125 11.70107364654541 C17.855567932128906 13.235149383544922 17.22749137878418 16.2196044921875 17.639068603515625 18.433622360229492 L17.639068603515625 18.433622360229492 C17.08210563659668 18.433622360229492 16.5251407623291 18.433622360229492 15.968177795410156 18.433622360229492 L15.968177795410156 18.433622360229492 C16.053394317626953 16.97259521484375 16.281841278076172 15.65095329284668 16.101806640625 14.548263549804688 C15.921771049499512 13.445572853088379 15.333251953125 12.561834335327148 13.784529685974121 11.976609230041504 L13.784529685974121 11.976609230041504 C14.538562774658203 11.823186874389648 15.307430267333984 11.727002143859863 16.07647705078125 11.70107364654541 L16.07647705078125 11.70107364654541"></path></svg>