<svg xmlns="http://www.w3.org/2000/svg" viewBox="0.0 0.0 24.0 24.0" height="200px" width="200px"><path fill="none" stroke="black" stroke-width=".3" stroke-opacity="1.0"  filling="0" d="M12.076801300048828 10.385461807250977 L12.076801300048828 10.385461807250977 C12.22796630859375 10.895033836364746 12.379131317138672 11.4046049118042 12.530296325683594 11.914176940917969 L12.530296325683594 11.914176940917969 C12.961907386779785 11.942764282226562 14.876908302307129 12.069735527038574 15.295637130737305 12.097525596618652 L15.295637130737305 12.097525596618652 C15.323431968688965 12.287213325500488 15.351226806640625 12.476900100708008 15.379021644592285 12.666587829589844 L15.379021644592285 12.666587829589844 C14.350133895874023 12.830809593200684 13.321236610412598 12.994970321655273 12.292332649230957 13.159092903137207 L12.292332649230957 13.159092903137207 C12.263195991516113 14.648862838745117 12.145713806152344 15.959295272827148 12.305277824401855 17.179412841796875 C12.464841842651367 18.3995304107666 12.901453018188477 19.529335021972656 13.98050308227539 20.657846450805664 L13.98050308227539 20.657846450805664 C13.357187271118164 20.832923889160156 12.756556510925293 21.22616958618164 12.110555648803711 21.183076858520508 C10.661675453186035 21.086423873901367 10.746722221374512 19.238422393798828 10.678770065307617 18.37866973876953 C10.5072603225708 16.20867919921875 10.70773983001709 14.341424942016602 10.188703536987305 12.197002410888672 L10.188703536987305 12.197002410888672 C10.615476608276367 11.787620544433594 11.757477760314941 10.691879272460938 12.076801300048828 10.385461807250977 L12.076801300048828 10.385461807250977"></path></svg>