<svg xmlns="http://www.w3.org/2000/svg" viewBox="0.0 0.0 24.0 24.0" height="200px" width="200px"><path fill="none" stroke="black" stroke-width=".3" stroke-opacity="1.0"  filling="0" d="M16.7511043548584 11.383070945739746 L16.7511043548584 11.383070945739746 C17.003982543945312 13.082167625427246 16.977218627929688 14.767146110534668 16.996845245361328 16.446557998657227 C17.01647186279297 18.12596893310547 17.082489013671875 19.79981231689453 17.52093505859375 21.476638793945312 L17.52093505859375 21.476638793945312 C16.682205200195312 21.712125778198242 15.843469619750977 21.947599411010742 15.004734992980957 22.18307113647461 L15.004734992980957 22.18307113647461 C14.966641426086426 20.29731559753418 15.176852226257324 18.55210304260254 15.200979232788086 16.82890510559082 C15.225106239318848 15.105707168579102 15.063149452209473 13.404523849487305 14.280721664428711 11.606827735900879 L14.280721664428711 11.606827735900879 C14.868878364562988 11.553619384765625 16.170072555541992 11.435759544372559 16.7511043548584 11.383070945739746 L16.7511043548584 11.383070945739746"></path>
<path fill="none" stroke="black" stroke-width=".3" stroke-opacity="1.0"  filling="0" d="M10.32448673248291 11.388398170471191 L10.32448673248291 11.388398170471191 C10.331414222717285 13.302385330200195 10.281352043151855 15.224828720092773 10.316495895385742 17.13788604736328 C10.33852767944336 18.337196350097656 10.043547630310059 19.547502517700195 11.235359191894531 20.306669235229492 C11.893267631530762 20.72574806213379 12.691291809082031 20.86715316772461 13.419258117675781 21.147396087646484 L13.419258117675781 21.147396087646484 C12.364167213439941 21.523941040039062 11.105021476745605 22.304729461669922 9.905875205993652 21.715911865234375 C8.796566009521484 21.171207427978516 8.723145484924316 19.818798065185547 8.595698356628418 18.81020164489746 C8.314268112182617 16.583003997802734 8.458755493164062 14.218276023864746 8.404972076416016 11.975492477416992 L8.404972076416016 11.975492477416992 C8.872532844543457 11.832382202148438 9.947417259216309 11.503671646118164 10.32448673248291 11.388398170471191 L10.32448673248291 11.388398170471191"></path></svg>