<svg xmlns="http://www.w3.org/2000/svg" viewBox="0.0 0.0 24.0 24.0" height="200px" width="200px"><path fill="none" stroke="black" stroke-width=".3" stroke-opacity="1.0"  filling="0" d="M10.038583755493164 8.496588706970215 L10.038583755493164 8.496588706970215 C11.781793594360352 8.496588706970215 13.525012969970703 8.496588706970215 15.26822280883789 8.496588706970215 L15.26822280883789 8.496588706970215 C15.311140060424805 8.850175857543945 15.354056358337402 9.203763961791992 15.396973609924316 9.557351112365723 L15.396973609924316 9.557351112365723 C13.990463256835938 9.557351112365723 12.583953857421875 9.557351112365723 11.177441596984863 9.557351112365723 L11.177441596984863 9.557351112365723 C11.155366897583008 9.66175365447998 10.550406455993652 12.523259162902832 10.538511276245117 12.579529762268066 L10.538511276245117 12.579529762268066 C11.19204044342041 12.403677940368652 11.822358131408691 12.05885124206543 12.49909782409668 12.05197525024414 C13.13304615020752 12.045534133911133 13.771281242370605 12.254989624023438 14.337114334106445 12.540934562683105 C16.586528778076172 13.677682876586914 16.284481048583984 16.13283348083496 14.991392135620117 17.78188133239746 C13.69830322265625 19.430927276611328 11.41417121887207 20.27387237548828 9.699414253234863 18.186206817626953 C9.266088485717773 17.658645629882812 9.115633010864258 16.95187759399414 8.823742866516113 16.334712982177734 L8.823742866516113 16.334712982177734 C9.16828441619873 16.309988021850586 9.512826919555664 16.28526496887207 9.857368469238281 16.260540008544922 L9.857368469238281 16.260540008544922 C10.51993465423584 17.078767776489258 11.165002822875977 18.182397842407227 12.420211791992188 18.077863693237305 C14.437009811401367 17.90990447998047 15.268611907958984 14.965044021606445 13.69750690460205 13.72818660736084 C12.505367279052734 12.789670944213867 10.448458671569824 13.715764045715332 9.044157028198242 13.666524887084961 L9.044157028198242 13.666524887084961 C9.375638961791992 11.943216323852539 9.70712661743164 10.219902992248535 10.038583755493164 8.496588706970215 L10.038583755493164 8.496588706970215"></path></svg>