<svg xmlns="http://www.w3.org/2000/svg" viewBox="0.0 0.0 24.0 24.0" height="200px" width="200px"><path fill="none" stroke="black" stroke-width=".3" stroke-opacity="1.0"  filling="0" d="M7.3732171058654785 3.506753921508789 C9.637815475463867 3.615248680114746 11.79564094543457 3.575638771057129 13.908117294311523 3.864956855773926 C15.664113998413086 4.1049065589904785 17.164661407470703 4.952767848968506 17.532047271728516 6.977989673614502 C17.887380599975586 8.937196731567383 17.425851821899414 10.548534393310547 15.646891593933105 11.642660140991211 C15.413830757141113 11.78617000579834 15.219804763793945 11.993399620056152 14.870786666870117 12.286161422729492 C15.583172798156738 12.794189453125 16.291542053222656 13.191427230834961 16.86960220336914 13.728731155395508 C19.6462459564209 16.31192398071289 18.68931770324707 20.950759887695312 15.002816200256348 21.914005279541016 C12.663019180297852 22.52420997619629 10.1423978805542 22.444992065429688 7.3732171058654785 22.706756591796875 C7.3732171058654785 16.043842315673828 7.3732171058654785 9.983675956726074 7.3732171058654785 3.506753921508789"></path>
<path fill="none" stroke="black" stroke-width=".3" stroke-opacity="1.0"  filling="0" d="M9.470194816589355 5.416593074798584 C11.466714859008789 5.054945945739746 13.343833923339844 4.856902122497559 14.793291091918945 6.494644641876221 C15.79212474822998 7.62206506729126 15.723814010620117 9.029617309570312 14.94024658203125 10.227643966674805 C13.643484115600586 12.21096134185791 11.594152450561523 11.516942977905273 9.470194816589355 11.748856544494629 C9.470194816589355 9.352229118347168 9.470194816589355 7.473387718200684 9.470194816589355 5.416593074798584"></path>
<path fill="none" stroke="black" stroke-width=".3" stroke-opacity="1.0"  filling="0" d="M9.524728775024414 13.483613967895508 C11.960965156555176 13.17994499206543 14.30937385559082 13.08924674987793 15.592931747436523 15.21837043762207 C16.19682502746582 16.220073699951172 16.239879608154297 18.19248390197754 15.63426399230957 19.1608943939209 C14.280097007751465 21.326183319091797 11.867396354675293 20.828487396240234 9.524728775024414 20.63446044921875 C9.524728775024414 18.275146484375 9.524728775024414 16.028919219970703 9.524728775024414 13.483613967895508"></path></svg>