<svg xmlns="http://www.w3.org/2000/svg" viewBox="0.0 0.0 24.0 24.0" height="200px" width="200px"><path fill="none" stroke="black" stroke-width=".3" stroke-opacity="1.0"  filling="0" d="M18.269775390625 4.009159564971924 C19.170679092407227 4.267531394958496 20.05175018310547 4.595596790313721 21.18609619140625 4.972389221191406 C21.18609619140625 6.434231758117676 21.18609619140625 7.690396785736084 21.18609619140625 8.94599437713623 C21.04387664794922 8.988490104675293 20.901657104492188 9.030984878540039 20.758874893188477 9.074048042297363 C20.54583168029785 8.643993377685547 20.297090530395508 8.228105545043945 20.12484359741211 7.782186985015869 C18.461856842041016 3.47371768951416 12.337414741516113 3.848809242248535 10.21037769317627 6.605913162231445 C7.791537284851074 9.740376472473145 7.111044406890869 13.23009967803955 8.173429489135742 16.98782730102539 C8.853922843933105 19.39363670349121 10.414355278015137 21.138214111328125 12.994111061096191 21.637393951416016 C15.652058601379395 22.15130615234375 17.55585289001465 21.01299476623535 18.86697769165039 18.727874755859375 C19.03809356689453 18.429840087890625 19.284000396728516 18.174301147460938 19.569568634033203 17.80204200744629 C20.25799560546875 20.555744171142578 19.66815757751465 21.679323196411133 17.387004852294922 22.224964141845703 C16.746173858642578 22.377948760986328 16.10817527770996 22.56719398498535 15.457712173461914 22.64822006225586 C11.99008560180664 23.078838348388672 8.77289867401123 22.52356719970703 6.635095119476318 19.49165916442871 C4.209456443786621 16.05179786682129 4.509757995605469 12.352428436279297 6.42488431930542 8.802078247070312 C8.724736213684082 4.5395026206970215 13.555615425109863 2.654973030090332 18.269775390625 4.009159564971924"></path></svg>