<svg xmlns="http://www.w3.org/2000/svg" viewBox="0.0 0.0 24.0 24.0" height="200px" width="200px"><path fill="none" stroke="black" stroke-width=".3" stroke-opacity="1.0"  filling="0" d="M11.094477653503418 7.413150787353516 L11.094477653503418 7.413150787353516 C12.527909278869629 7.413150787353516 13.961336135864258 7.413150787353516 15.394766807556152 7.413150787353516 L15.394766807556152 7.413150787353516 C15.426015853881836 7.470039367675781 15.457263946533203 7.526927471160889 15.488512992858887 7.583816051483154 L15.488512992858887 7.583816051483154 C14.937712669372559 7.789392948150635 14.386913299560547 7.994970321655273 13.836112976074219 8.200547218322754 L13.836112976074219 8.200547218322754 C13.481270790100098 10.441323280334473 13.103788375854492 12.679641723632812 12.797687530517578 14.927797317504883 C12.719793319702148 15.499889373779297 12.446361541748047 16.083730697631836 12.577927589416504 16.645912170410156 C12.71867561340332 17.247329711914062 13.23701000213623 17.690736770629883 13.566551208496094 18.213150024414062 L13.566551208496094 18.213150024414062 C12.229501724243164 18.213150024414062 10.892446517944336 18.213150024414062 9.555397033691406 18.213150024414062 L9.555397033691406 18.213150024414062 C10.027417182922363 17.83049774169922 10.646062850952148 17.5783634185791 10.971457481384277 17.06519317626953 C11.236763000488281 16.646787643432617 11.588858604431152 14.012136459350586 11.658185958862305 13.553695678710938 C11.92927360534668 11.76108169555664 12.194519996643066 9.967574119567871 12.462204933166504 8.17444896697998 L12.462204933166504 8.17444896697998 C11.99210262298584 7.999319553375244 11.52199935913086 7.824190139770508 11.051897048950195 7.6490607261657715 L11.051897048950195 7.6490607261657715 C11.06609058380127 7.5704240798950195 11.080284118652344 7.491787433624268 11.094477653503418 7.413150787353516 L11.094477653503418 7.413150787353516"></path></svg>