<svg xmlns="http://www.w3.org/2000/svg" viewBox="0.0 0.0 24.0 24.0" height="200px" width="200px"><path fill="none" stroke="black" stroke-width=".3" stroke-opacity="1.0"  filling="0" d="M15.4694185256958 8.819880485534668 L15.4694185256958 8.819880485534668 C16.143646240234375 8.819880485534668 16.817874908447266 8.819880485534668 17.492103576660156 8.819880485534668 L17.492103576660156 8.819880485534668 C17.500520706176758 8.878236770629883 17.50893783569336 8.936594009399414 17.51735496520996 8.994950294494629 L17.51735496520996 8.994950294494629 C17.100440979003906 9.12007999420166 16.68352699279785 9.245210647583008 16.266613006591797 9.370340347290039 L16.266613006591797 9.370340347290039 C16.099443435668945 11.507818222045898 15.932286262512207 13.645299911499023 15.764969825744629 15.782766342163086 L15.764969825744629 15.782766342163086 C16.118797302246094 15.911022186279297 16.472625732421875 16.039278030395508 16.826454162597656 16.16753387451172 L16.826454162597656 16.16753387451172 C16.814990997314453 16.223325729370117 16.80352783203125 16.279117584228516 16.792064666748047 16.334909439086914 L16.792064666748047 16.334909439086914 C15.78653335571289 16.334909439086914 14.781002044677734 16.334909439086914 13.775470733642578 16.334909439086914 L13.775470733642578 16.334909439086914 C15.441255569458008 14.789481163024902 15.118825912475586 12.587298393249512 15.307575225830078 10.39503002166748 L15.307575225830078 10.39503002166748 C15.232304573059082 10.362004280090332 15.157034873962402 10.328977584838867 15.081764221191406 10.295951843261719 L15.081764221191406 10.295951843261719 C13.939790725708008 12.296907424926758 12.797845840454102 14.297880172729492 11.655872344970703 16.29883575439453 L11.655872344970703 16.29883575439453 C11.565531730651855 16.278074264526367 11.475191116333008 16.257314682006836 11.38485050201416 16.236553192138672 L11.38485050201416 16.236553192138672 C10.879427909851074 14.345733642578125 10.374041557312012 12.454906463623047 9.86861801147461 10.564087867736816 L9.86861801147461 10.564087867736816 C9.777154922485352 10.565851211547852 9.68569278717041 10.567614555358887 9.594229698181152 10.569377899169922 L9.594229698181152 10.569377899169922 C9.218711853027344 12.315099716186523 8.843231201171875 14.06082820892334 8.467816352844238 15.806572914123535 L8.467816352844238 15.806572914123535 C8.77635383605957 15.921281814575195 9.084890365600586 16.035991668701172 9.393427848815918 16.150699615478516 L9.393427848815918 16.150699615478516 C9.382685661315918 16.21114158630371 9.371944427490234 16.271581649780273 9.361202239990234 16.33202362060547 L9.361202239990234 16.33202362060547 C8.479920387268066 16.33202362060547 7.598637580871582 16.33202362060547 6.717355251312256 16.33202362060547 L6.717355251312256 16.33202362060547 C7.699973106384277 15.536197662353516 8.259536743164062 14.402328491210938 8.616840362548828 13.159873008728027 C8.974143981933594 11.9174165725708 9.129188537597656 10.56637191772461 9.302765846252441 9.336193084716797 L9.302765846252441 9.336193084716797 C8.917194366455078 9.234148979187012 8.531623840332031 9.132104873657227 8.146052360534668 9.030060768127441 L8.146052360534668 9.030060768127441 C8.152946472167969 8.963127136230469 8.159839630126953 8.89619255065918 8.166733741760254 8.829258918762207 L8.166733741760254 8.829258918762207 C8.846573829650879 8.829258918762207 9.526412963867188 8.829258918762207 10.206253051757812 8.829258918762207 L10.206253051757812 8.829258918762207 C10.79728889465332 10.75537109375 11.388429641723633 12.681450843811035 11.979558944702148 14.607535362243652 L11.979558944702148 14.607535362243652 C13.209463119506836 12.715020179748535 14.324949264526367 10.764386177062988 15.4694185256958 8.819880485534668 L15.4694185256958 8.819880485534668"></path></svg>