<svg xmlns="http://www.w3.org/2000/svg" viewBox="0.0 0.0 24.0 24.0" height="200px" width="200px"><path fill="none" stroke="black" stroke-width=".3" stroke-opacity="1.0"  filling="0" d="M6.877050399780273 3.1959447860717773 C9.042749404907227 3.1959447860717773 11.160387992858887 3.014248847961426 13.23172378540039 3.24576473236084 C15.399767875671387 3.4878311157226562 17.12998390197754 4.642480373382568 17.564882278442383 6.986359119415283 C18.003883361816406 9.352511405944824 17.520336151123047 11.464874267578125 15.390390396118164 12.92664909362793 C14.993002891540527 13.199193954467773 14.567481994628906 13.431295394897461 13.858867645263672 13.862092018127441 C15.606666564941406 16.599842071533203 17.30640411376953 19.261394500732422 19.05068588256836 21.9932861328125 C17.528541564941406 22.695449829101562 16.611268997192383 22.265243530273438 15.861627578735352 20.962892532348633 C14.986555099487305 19.443679809570312 13.838353157043457 18.072751998901367 13.045336723327637 16.516613006591797 C12.172611236572266 14.805739402770996 10.952317237854004 14.366738319396973 8.852849006652832 14.988020896911621 C8.852849006652832 17.441503524780273 8.852849006652832 19.762523651123047 8.852849006652832 22.182598114013672 C8.102619171142578 22.182598114013672 7.565736770629883 22.182598114013672 6.877050399780273 22.182598114013672 C6.877050399780273 15.846094131469727 6.877050399780273 9.627985954284668 6.877050399780273 3.1959447860717773"></path>
<path fill="none" stroke="black" stroke-width=".3" stroke-opacity="1.0"  filling="0" d="M9.048025131225586 4.877514362335205 C11.178558349609375 4.497124195098877 13.216485023498535 4.355284690856934 14.616717338562012 6.234960079193115 C15.671725273132324 7.649845123291016 15.645350456237793 9.364235877990723 14.769693374633789 10.905135154724121 C13.497234344482422 13.144100189208984 11.377252578735352 13.072007179260254 9.048025131225586 12.83580207824707 C9.048025131225586 10.16252613067627 9.048025131225586 7.59768009185791 9.048025131225586 4.877514362335205"></path></svg>