<svg xmlns="http://www.w3.org/2000/svg" viewBox="0.0 0.0 24.0 24.0" height="200px" width="200px"><path fill="none" stroke="black" stroke-width=".3" stroke-opacity="1.0"  filling="0" d="M7.39247465133667 7.466292381286621 L7.39247465133667 7.466292381286621 C8.655797958374023 7.466292381286621 9.919120788574219 7.466292381286621 11.182443618774414 7.466292381286621 L11.182443618774414 7.466292381286621 C10.721728324890137 7.931320667266846 10.093854904174805 8.276283264160156 9.800296783447266 8.861376762390137 C9.511604309082031 9.436772346496582 9.61547565460205 10.135557174682617 9.523518562316895 10.772712707519531 C9.30179500579834 12.309006690979004 8.670846939086914 14.64350414276123 9.678695678710938 16.067739486694336 C10.000645637512207 16.522701263427734 10.570270538330078 16.776416778564453 11.100847244262695 16.94709014892578 C12.715760231018066 17.466564178466797 13.764302253723145 16.77667999267578 14.453661918640137 15.669650077819824 C15.143022537231445 14.562621116638184 15.473199844360352 13.038448333740234 15.651382446289062 11.889351844787598 C15.887663841247559 10.365583419799805 15.831387519836426 9.776054382324219 15.836959838867188 8.235271453857422 L15.836959838867188 8.235271453857422 C15.45257568359375 8.074511528015137 15.068192481994629 7.91375207901001 14.683808326721191 7.752992630004883 L14.683808326721191 7.752992630004883 C14.691428184509277 7.684412956237793 14.699048042297363 7.615833759307861 14.70666790008545 7.5472540855407715 L14.70666790008545 7.5472540855407715 C15.868708610534668 7.5472540855407715 17.030750274658203 7.5472540855407715 18.192790985107422 7.5472540855407715 L18.192790985107422 7.5472540855407715 C17.79998016357422 7.83371639251709 17.30837059020996 8.019447326660156 17.014360427856445 8.406641006469727 C16.627111434936523 8.916626930236816 16.39756965637207 10.987110137939453 16.32411766052246 11.3985595703125 C16.055679321289062 12.902238845825195 15.71091079711914 14.661977767944336 14.930184364318848 15.974666595458984 C14.149457931518555 17.287355422973633 12.932775497436523 18.152992248535156 10.92050838470459 17.868467330932617 C10.35914134979248 17.789093017578125 9.784255981445312 17.649551391601562 9.298118591308594 17.357826232910156 C7.626648902893066 16.354793548583984 7.681497573852539 14.830680847167969 8.026268005371094 13.232833862304688 C8.371039390563965 11.634986877441406 9.005733489990234 9.963407516479492 8.493952751159668 8.665441513061523 C8.294865608215332 8.1605224609375 7.759634017944336 7.866008758544922 7.39247465133667 7.466292381286621 L7.39247465133667 7.466292381286621"></path></svg>