<svg xmlns="http://www.w3.org/2000/svg" viewBox="0.0 0.0 24.0 24.0" height="200px" width="200px"><path fill="none" stroke="black" stroke-width=".3" stroke-opacity="1.0"  filling="0" d="M14.589680671691895 10.900991439819336 L14.589680671691895 10.900991439819336 C15.059264183044434 10.948796272277832 15.65250301361084 10.72326946258545 15.998430252075195 11.044404983520508 C16.408428192138672 11.425020217895508 16.317462921142578 12.11682415008545 16.476978302001953 12.653034210205078 L16.476978302001953 12.653034210205078 C15.975791931152344 12.617358207702637 13.164817810058594 12.417255401611328 12.632928848266602 12.37939167022705 L12.535274505615234 12.275469779968262 C13.181408882141113 11.764222145080566 13.868699073791504 11.299800872802734 14.589680671691895 10.900991439819336 L14.589680671691895 10.900991439819336"></path>
<path fill="none" stroke="black" stroke-width=".3" stroke-opacity="1.0"  filling="0" d="M12.534229278564453 12.274948120117188 L12.632928848266602 12.37939167022705 C12.389803886413574 13.105840682983398 11.645524024963379 14.858500480651855 11.328136444091797 16.483535766601562 C11.010747909545898 18.108570098876953 11.120250701904297 19.605981826782227 12.584691047668457 19.82193374633789 C13.584207534790039 19.96932601928711 14.59782886505127 19.418033599853516 15.601740837097168 19.531696319580078 L15.601740837097168 19.531696319580078 C15.161731719970703 19.855958938598633 13.578189849853516 21.063982009887695 13.060625076293945 21.28217315673828 C10.75234317779541 22.25528335571289 9.358692169189453 20.404935836791992 9.338669776916504 18.221637725830078 C9.315277099609375 15.67076301574707 10.68474292755127 13.823945999145508 12.534229278564453 12.274948120117188 L12.534229278564453 12.274948120117188"></path></svg>