<svg xmlns="http://www.w3.org/2000/svg" viewBox="0.0 0.0 24.0 24.0" height="200px" width="200px"><path fill="none" stroke="black" stroke-width=".3" stroke-opacity="1.0"  filling="0" d="M13.837823867797852 6.863534450531006 L13.837823867797852 6.863534450531006 C13.911112785339355 7.011035919189453 13.984402656555176 7.1585373878479 14.05769157409668 7.306038856506348 L14.05769157409668 7.306038856506348 C13.252232551574707 7.957550048828125 12.715657234191895 8.989969253540039 12.521073341369629 10.007499694824219 L12.521073341369629 10.007499694824219 C13.05624008178711 10.249713897705078 13.591407775878906 10.491928100585938 14.126574516296387 10.734142303466797 L14.126574516296387 10.734142303466797 C13.636795043945312 10.989389419555664 13.121729850769043 11.218689918518066 12.581037521362305 11.331323623657227 L12.581037521362305 11.331323623657227 C12.581036567687988 13.442061424255371 12.581036567687988 15.5527982711792 12.581036567687988 17.663536071777344 L12.581036567687988 17.663536071777344 C12.235499382019043 17.63370704650879 11.889963150024414 17.603879928588867 11.544425964355469 17.574050903320312 L11.544425964355469 17.574050903320312 C11.544425964355469 15.611534118652344 11.544425964355469 13.64901351928711 11.544425964355469 11.686495780944824 L11.544425964355469 11.686495780944824 C11.198991775512695 11.33696174621582 10.853557586669922 10.9874267578125 10.508123397827148 10.637892723083496 L10.508123397827148 10.637892723083496 C10.716306686401367 10.505868911743164 10.92448902130127 10.373845100402832 11.132672309875488 10.2418212890625 L11.132672309875488 10.2418212890625 C11.799354553222656 8.1760892868042 11.67234992980957 7.496595859527588 13.837823867797852 6.863534450531006 L13.837823867797852 6.863534450531006"></path></svg>