<svg xmlns="http://www.w3.org/2000/svg" viewBox="0.0 0.0 24.0 24.0" height="200px" width="200px"><path fill="none" stroke="black" stroke-width=".3" stroke-opacity="1.0"  filling="0" d="M13.693978309631348 11.28670597076416 L13.693978309631348 11.28670597076416 C13.850677490234375 11.380419731140137 14.007375717163086 11.474133491516113 14.164074897766113 11.56784725189209 L14.164074897766113 11.56784725189209 C13.921300888061523 12.880317687988281 13.678629875183105 14.1928071975708 13.436036109924316 15.50531005859375 C13.193441390991211 16.817813873291016 12.950923919677734 18.130329132080078 12.708455085754395 19.44285774230957 L12.708455085754395 19.44285774230957 C13.248186111450195 19.46813201904297 14.254175186157227 19.515464782714844 14.766082763671875 19.539627075195312 L14.766082763671875 19.539627075195312 C13.690339088439941 20.38856315612793 12.614707946777344 21.23763084411621 11.539071083068848 22.08670425415039 L11.539071083068848 22.08670425415039 C11.13953971862793 20.640796661376953 11.207918167114258 19.337778091430664 11.37948989868164 18.033512115478516 C11.551060676574707 16.729246139526367 11.825822830200195 15.423730850219727 11.839056968688965 13.972826957702637 L11.839056968688965 13.972826957702637 C11.343154907226562 13.936326026916504 10.84725284576416 13.899825096130371 10.351350784301758 13.863324165344238 L10.351350784301758 13.863324165344238 C11.465498924255371 13.004373550415039 12.579686164855957 12.14547061920166 13.693978309631348 11.28670597076416 L13.693978309631348 11.28670597076416"></path></svg>