<svg xmlns="http://www.w3.org/2000/svg" viewBox="0.0 0.0 24.0 24.0" height="200px" width="200px"><path fill="none" stroke="black" stroke-width=".3" stroke-opacity="1.0"  filling="0" d="M18.73162841796875 5.095142364501953 C19.700403213500977 5.15064001083374 20.675296783447266 5.106159210205078 21.647335052490234 5.106159210205078 C21.66529083251953 5.266533374786377 21.68365478515625 5.426908016204834 21.701610565185547 5.587281703948975 C21.269458770751953 5.778261661529541 20.836894989013672 5.969241142272949 20.3467960357666 6.185929775238037 C20.3467960357666 10.3270902633667 20.3467960357666 14.453560829162598 20.3467960357666 18.643688201904297 C20.892803192138672 18.84854507446289 21.354745864868164 19.021568298339844 21.816280364990234 19.19500160217285 C21.806894302368164 19.34068489074707 21.797100067138672 19.4859619140625 21.787715911865234 19.631643295288086 C19.720806121826172 19.868328094482422 17.63431167602539 19.672042846679688 15.560467720031738 19.750802993774414 C15.518028259277344 19.613689422607422 15.475179672241211 19.476165771484375 15.4327392578125 19.339054107666016 C15.955485343933105 19.106042861938477 16.477825164794922 18.872621536254883 17.190326690673828 18.554729461669922 C17.190326690673828 14.854291915893555 17.190326690673828 11.068974494934082 17.190326690673828 6.827018737792969 C15.055269241333008 11.104068756103516 13.695966720581055 15.356634140014648 11.797185897827148 19.353744506835938 C11.634771347045898 19.377410888671875 11.471948623657227 19.401081085205078 11.309534072875977 19.42474937438965 C9.596429824829102 15.361124038696289 7.883324146270752 11.297088623046875 6.1702189445495605 7.233462810516357 C6.013517379760742 7.241215229034424 5.857632160186768 7.248969078063965 5.701746463775635 7.2567219734191895 C5.701746463775635 8.53563404083252 5.689096450805664 9.81495475769043 5.70501184463501 11.093866348266602 C5.727047443389893 12.858796119689941 5.724599361419678 14.626176834106445 5.819681167602539 16.387842178344727 C5.889462471008301 17.67940330505371 6.0424909591674805 18.999530792236328 7.807421684265137 19.408832550048828 C6.061670303344727 19.7952823638916 4.420385837554932 19.805484771728516 2.615872383117676 19.459026336669922 C4.594635486602783 18.941177368164062 4.565661430358887 17.400279998779297 4.636666774749756 15.969157218933105 C4.754601001739502 13.597007751464844 4.76847505569458 11.219552993774414 4.885185718536377 8.847404479980469 C4.960679531097412 7.312220573425293 4.961904048919678 5.879055976867676 2.7860403060913086 5.595442771911621 C2.882754325866699 5.455880641937256 2.9790611267089844 5.316318511962891 3.0757741928100586 5.176756381988525 C4.823974609375 5.176756381988525 6.571766376495361 5.176756381988525 8.45789623260498 5.176756381988525 C9.747825622558594 8.45197868347168 11.035715103149414 11.721895217895508 12.432560920715332 15.267672538757324 C12.781465530395508 14.658823013305664 13.067935943603516 14.254826545715332 13.258915901184082 13.80920696258545 C14.248092651367188 11.505615234375 15.286648750305176 9.218754768371582 16.157073974609375 6.869866371154785 C16.636564254760742 5.575855731964111 17.38456916809082 5.01760721206665 18.73162841796875 5.095142364501953"></path></svg>