<svg xmlns="http://www.w3.org/2000/svg" viewBox="0.0 0.0 24.0 24.0" height="200px" width="200px"><path fill="none" stroke="black" stroke-width=".3" stroke-opacity="1.0"  filling="0" d="M11.608107566833496 9.586725234985352 L11.608107566833496 9.586725234985352 C11.731732368469238 9.628543853759766 11.855358123779297 9.670363426208496 11.978982925415039 9.71218204498291 L11.978982925415039 9.71218204498291 C11.801443099975586 11.585458755493164 11.80777645111084 14.321629524230957 11.19198989868164 16.534130096435547 C10.576202392578125 18.746631622314453 9.338293075561523 20.435462951660156 6.672267913818359 20.21405792236328 L6.672267913818359 20.21405792236328 C6.666016578674316 19.993322372436523 6.659765243530273 19.772586822509766 6.6535139083862305 19.551851272583008 L6.6535139083862305 19.551851272583008 C7.468676567077637 19.40941047668457 8.417898178100586 19.70693588256836 9.119857788085938 19.268722534179688 C9.679817199707031 18.91915512084961 9.932831764221191 16.826513290405273 9.99046516418457 16.51310920715332 C10.306893348693848 14.792420387268066 10.571577072143555 13.0615816116333 10.857626914978027 11.33569049835205 L10.857626914978027 11.33569049835205 C10.421975135803223 11.33569049835205 9.986324310302734 11.33569049835205 9.55067253112793 11.33569049835205 L9.55067253112793 11.33569049835205 C10.2365083694458 10.752730369567871 10.922322273254395 10.169745445251465 11.608107566833496 9.586725234985352 L11.608107566833496 9.586725234985352"></path></svg>