<svg xmlns="http://www.w3.org/2000/svg" viewBox="0.0 0.0 24.0 24.0" height="200px" width="200px"><path fill="none" stroke="black" stroke-width=".3" stroke-opacity="1.0"  filling="0" d="M13.41893196105957 10.90461540222168 L13.41893196105957 10.90461540222168 C15.754095077514648 10.969204902648926 16.785934448242188 12.440787315368652 16.852941513061523 14.810368537902832 C16.894729614257812 16.288127899169922 16.348339080810547 17.87442970275879 15.405455589294434 19.143939971923828 C14.462570190429688 20.413448333740234 13.123189926147461 21.366165161132812 11.578997611999512 21.57675552368164 C9.601953506469727 21.846376419067383 8.198341369628906 19.75996971130371 8.233851432800293 17.94782257080078 C8.268424987792969 16.183439254760742 8.783308029174805 14.729032516479492 9.680241584777832 13.562524795532227 C10.577174186706543 12.396016120910645 11.856157302856445 11.517406463623047 13.41893196105957 10.90461540222168 L13.41893196105957 10.90461540222168"></path>
<path fill="none" stroke="black" stroke-width=".3" stroke-opacity="1.0"  filling="0" d="M13.230781555175781 12.340180397033691 L13.230781555175781 12.340180397033691 C15.021947860717773 13.746406555175781 15.014298439025879 15.010160446166992 14.598238945007324 17.1849365234375 C14.448219299316406 17.969100952148438 14.188901901245117 19.422359466552734 13.428223609924316 19.931663513183594 C11.456520080566406 21.25179672241211 10.302331924438477 18.193038940429688 10.270772933959961 16.846981048583984 L10.270772933959961 16.846981048583984 C10.208402633666992 16.833812713623047 10.146031379699707 16.820646286010742 10.083661079406738 16.807477951049805 L10.083661079406738 16.807477951049805 C10.619998931884766 14.583975791931152 10.697688102722168 12.692597389221191 13.230781555175781 12.340180397033691 L13.230781555175781 12.340180397033691"></path></svg>