<svg xmlns="http://www.w3.org/2000/svg" viewBox="0.0 0.0 24.0 24.0" height="200px" width="200px"><path fill="none" stroke="black" stroke-width=".3" stroke-opacity="1.0"  filling="0" d="M12.1456880569458 5.074727535247803 C15.481683731079102 3.029860496520996 18.475122451782227 4.478598594665527 19.18756866455078 8.356635093688965 C19.34401512145996 9.209826469421387 19.4260196685791 10.076395034790039 19.54233741760254 10.936564445495605 C19.636554718017578 10.965062141418457 19.730772018432617 10.993559837341309 19.82499122619629 11.022058486938477 C19.18815040588379 13.629321098327637 18.75835609436035 16.313356399536133 17.830720901489258 18.813024520874023 C17.331716537475586 20.15766143798828 16.17435646057129 21.467979431152344 14.972210884094238 22.30139923095703 C11.740900993347168 24.542261123657227 8.212400436401367 23.04583168029785 7.583702564239502 19.15674591064453 C6.939883708953857 15.1693696975708 7.316753387451172 11.225031852722168 9.559361457824707 7.715142250061035 C10.212486267089844 6.6932902336120605 11.122091293334961 5.702261924743652 12.1456880569458 5.074727535247803"></path>
<path fill="none" stroke="black" stroke-width=".3" stroke-opacity="1.0"  filling="0" d="M14.6546630859375 5.43472957611084 C15.43690013885498 5.555700778961182 16.509349822998047 6.6386189460754395 16.671613693237305 7.455170154571533 C17.557373046875 11.910723686218262 17.110713958740234 16.316843032836914 15.117025375366211 20.417627334594727 C14.716310501098633 21.242321014404297 13.272226333618164 22.114707946777344 12.426012992858887 22.011180877685547 C11.582709312438965 21.90824317932129 10.5783052444458 20.729942321777344 10.202598571777344 19.798236846923828 C9.716390609741211 18.593183517456055 9.783273696899414 17.1648006439209 9.554126739501953 15.385721206665039 C9.94437313079834 13.504861831665039 10.359627723693848 11.238990783691406 10.906320571899414 9.00568675994873 C11.107550621032715 8.185065269470215 11.446035385131836 7.253359317779541 12.033440589904785 6.708991527557373 C12.740072250366211 6.054121971130371 13.848580360412598 5.309688568115234 14.6546630859375 5.43472957611084"></path></svg>