<svg xmlns="http://www.w3.org/2000/svg" viewBox="0.0 0.0 24.0 24.0" height="200px" width="200px"><path fill="none" stroke="black" stroke-width=".3" stroke-opacity="1.0"  filling="0" d="M12.707624435424805 4.366325855255127 C14.645488739013672 3.8794374465942383 16.758365631103516 4.710902214050293 17.75031089782715 6.296923637390137 C19.075931549072266 8.417069435119629 18.969348907470703 10.641374588012695 17.446914672851562 12.507780075073242 C15.544778823852539 14.839273452758789 13.348936080932617 16.930957794189453 11.27481460571289 19.121349334716797 C10.617757797241211 19.81534767150879 9.942532539367676 20.492387771606445 9.40962028503418 21.430435180664062 C12.493247032165527 21.19546890258789 15.838485717773438 22.771194458007812 18.7034969329834 19.75720977783203 C18.43825340270996 20.936279296875 18.17300796508789 22.11534881591797 17.877483367919922 23.42764663696289 C13.877608299255371 23.427650451660156 9.97402286529541 23.427650451660156 5.2317047119140625 23.427650451660156 C6.336287021636963 22.332149505615234 6.942475318908691 21.739891052246094 7.538974761962891 21.137939453125 C9.662753105163574 18.99538803100586 11.857385635375977 16.915210723876953 13.870342254638672 14.673343658447266 C14.719369888305664 13.728029251098633 15.329797744750977 12.494457244873047 15.79185676574707 11.292981147766113 C16.582141876220703 9.236422538757324 16.098886489868164 7.578941822052002 14.699991226196289 6.718409538269043 C13.221158981323242 5.80882453918457 11.51341438293457 6.029861927032471 10.00672435760498 7.434813499450684 C9.460489273071289 7.944108486175537 9.077760696411133 8.628417015075684 8.34985065460205 8.96330451965332 C8.751352310180664 6.404112339019775 10.337979316711426 4.961008548736572 12.707624435424805 4.366325855255127"></path></svg>