<svg xmlns="http://www.w3.org/2000/svg" viewBox="0.0 0.0 24.0 24.0" height="200px" width="200px"><path fill="none" stroke="black" stroke-width=".3" stroke-opacity="1.0"  filling="0" d="M12.397254943847656 6.886190891265869 L12.397254943847656 6.886190891265869 C13.674694061279297 7.1293721199035645 14.553311347961426 7.033280372619629 15.424799919128418 8.150959968566895 C16.45643424987793 9.474024772644043 16.625123977661133 11.157525062561035 16.220094680786133 12.70217514038086 C15.815064430236816 14.246826171875 14.836315155029297 15.652626991271973 13.573070526123047 16.4202938079834 L13.573070526123047 16.4202938079834 C13.795663833618164 16.84197998046875 14.018256187438965 17.2636661529541 14.240849494934082 17.685352325439453 L14.240849494934082 17.685352325439453 C13.598901748657227 17.685352325439453 12.956953048706055 17.685352325439453 12.3150053024292 17.685352325439453 L12.3150053024292 17.685352325439453 C11.381596565246582 16.58014488220215 9.91238784790039 16.335540771484375 9.052519798278809 15.204645156860352 C7.874142169952393 13.654848098754883 7.8784356117248535 9.60916805267334 9.126693725585938 8.10534954071045 C10.077068328857422 6.96040153503418 11.053178787231445 7.091200351715088 12.397254943847656 6.886190891265869 L12.397254943847656 6.886190891265869"></path>
<path fill="none" stroke="black" stroke-width=".3" stroke-opacity="1.0"  filling="0" d="M12.438658714294434 8.901277542114258 L12.438658714294434 8.901277542114258 C13.580778121948242 9.351371765136719 14.306339263916016 10.817964553833008 14.356069564819336 12.174601554870605 C14.405799865722656 13.531238555908203 13.779699325561523 14.777920722961426 12.218490600585938 14.788193702697754 C9.951615333557129 14.803110122680664 9.8020658493042 11.619038581848145 10.425251007080078 10.098075866699219 C10.88538932800293 8.975048065185547 11.435715675354004 9.115035057067871 12.438658714294434 8.901277542114258 L12.438658714294434 8.901277542114258"></path></svg>