<svg xmlns="http://www.w3.org/2000/svg" viewBox="0.0 0.0 24.0 24.0" height="200px" width="200px"><path fill="none" stroke="black" stroke-width=".3" stroke-opacity="1.0"  filling="0" d="M9.915040969848633 3.3218812942504883 C12.91995620727539 2.462155342102051 15.513437271118164 3.3422327041625977 16.506275177001953 5.599083423614502 C17.551918029785156 7.9769439697265625 16.625085830688477 9.884512901306152 13.698275566101074 11.794281959533691 C14.79342269897461 12.941132545471191 16.23455047607422 13.968073844909668 16.95291519165039 15.366297721862793 C17.45235824584961 16.338783264160156 17.240039825439453 17.916324615478516 16.85225486755371 19.0560245513916 C15.980427742004395 21.615402221679688 12.707637786865234 22.79800796508789 9.65706729888916 21.8986759185791 C7.517927646636963 21.267770767211914 7.224201679229736 20.815631866455078 7.679091930389404 18.36736488342285 C8.301197052001953 18.788150787353516 8.718684196472168 18.975717544555664 9.008560180664062 19.28374671936035 C10.126809120178223 20.471851348876953 11.465627670288086 20.96029281616211 12.958459854125977 20.265583038330078 C14.537650108337402 19.530717849731445 15.071747779846191 18.100589752197266 14.998041152954102 16.402040481567383 C14.922683715820312 14.664987564086914 13.89244270324707 13.789857864379883 12.343505859375 13.358621597290039 C11.993124008178711 13.261262893676758 11.506331443786621 13.317366600036621 11.304463386535645 13.09789752960205 C10.939781188964844 12.701863288879395 10.743413925170898 12.151814460754395 10.46178913116455 11.640268325805664 C14.249424934387207 10.044576644897461 15.329719543457031 8.484088897705078 14.363834381103516 6.292144775390625 C13.768131256103516 4.940124988555908 12.655383110046387 4.248713493347168 11.2874116897583 4.618346214294434 C10.138360023498535 4.928574085235596 9.116369247436523 5.712393283843994 7.977768421173096 6.31909704208374 C7.019033908843994 4.149155139923096 8.438709259033203 3.744318962097168 9.915040969848633 3.3218812942504883"></path></svg>