<svg xmlns="http://www.w3.org/2000/svg" viewBox="0.0 0.0 24.0 24.0" height="200px" width="200px"><path fill="none" stroke="black" stroke-width=".3" stroke-opacity="1.0"  filling="0" d="M8.561521530151367 3.6417322158813477 C11.298818588256836 3.491518020629883 14.044337272644043 3.2354965209960938 16.793148040771484 3.8358049392700195 C16.909372329711914 3.86102294921875 16.89676284790039 4.478326320648193 16.972415924072266 5.0238118171691895 C14.720849990844727 5.0238118171691895 12.574541091918945 5.0238118171691895 10.28569507598877 5.0238118171691895 C10.28569507598877 6.97878885269165 10.28569507598877 8.748465538024902 10.28569507598877 10.686995506286621 C10.764296531677246 10.686995506286621 11.262635231018066 10.715502738952637 11.756587028503418 10.682062149047852 C14.331060409545898 10.508273124694824 16.10128402709961 11.54551887512207 16.964740753173828 13.754324913024902 C18.03652572631836 16.49600601196289 17.283260345458984 19.89008140563965 15.240020751953125 21.527633666992188 C13.461572647094727 22.952476501464844 10.463319778442383 23.031421661376953 8.556038856506348 21.74911880493164 C7.483158588409424 21.028200149536133 7.598834991455078 20.1998291015625 8.126777648925781 19.13517189025879 C8.557683944702148 19.22398567199707 8.673359870910645 19.212472915649414 8.732019424438477 19.26510238647461 C10.960013389587402 21.265033721923828 12.468185424804688 21.55340003967285 13.850265502929688 20.235462188720703 C15.411067008972168 18.747026443481445 15.643514633178711 14.545415878295898 14.022409439086914 13.181974411010742 C13.302038192749023 12.57618522644043 12.065787315368652 12.451736450195312 11.044440269470215 12.379919052124023 C10.315847396850586 12.328386306762695 9.555456161499023 12.72913932800293 8.561521530151367 12.99393367767334 C8.561521530151367 9.744046211242676 8.561521530151367 6.85872745513916 8.561521530151367 3.6417322158813477"></path></svg>