<svg xmlns="http://www.w3.org/2000/svg" viewBox="0.0 0.0 24.0 24.0" height="200px" width="200px"><path fill="none" stroke="black" stroke-width=".3" stroke-opacity="1.0"  filling="0" d="M11.536145210266113 7.276188850402832 L11.536145210266113 7.276188850402832 C13.228885650634766 7.723320960998535 14.024674415588379 7.929688930511475 15.675915718078613 7.30373477935791 L15.675915718078613 7.30373477935791 C14.412860870361328 8.975676536560059 13.8268404006958 8.882525444030762 11.779467582702637 8.839424133300781 L11.779467582702637 8.839424133300781 C11.644670486450195 9.183876037597656 11.096601486206055 10.584628105163574 10.971123695373535 10.905374526977539 L10.971123695373535 10.905374526977539 C12.365421295166016 11.545790672302246 14.421102523803711 12.169567108154297 15.139302253723145 13.706406593322754 C15.689462661743164 14.883668899536133 14.847044944763184 16.29458236694336 13.617286682128906 17.22345733642578 C12.387528419494629 18.152332305908203 10.770430564880371 18.59916877746582 9.771232604980469 17.848278045654297 C9.416605949401855 17.581777572631836 9.495335578918457 17.005064010620117 9.35738754272461 16.583457946777344 L9.35738754272461 16.583457946777344 C10.935035705566406 17.119230270385742 15.477150917053223 17.493804931640625 13.943591117858887 14.25082015991211 C13.301445007324219 12.892888069152832 11.151543617248535 12.432025909423828 9.918145179748535 11.968847274780273 L9.918145179748535 11.968847274780273 C10.457398414611816 10.404597282409668 10.996702194213867 8.840373992919922 11.536145210266113 7.276188850402832 L11.536145210266113 7.276188850402832"></path></svg>