<svg xmlns="http://www.w3.org/2000/svg" viewBox="0.0 0.0 24.0 24.0" height="200px" width="200px"><path fill="none" stroke="black" stroke-width=".3" stroke-opacity="1.0"  filling="0" d="M9.196789741516113 4.493977069854736 C11.239774703979492 2.9707860946655273 14.252163887023926 3.2246503829956055 15.929977416992188 5.060925006866455 C17.869333267211914 7.183962345123291 17.467426300048828 9.63598346710205 14.581146240234375 12.604506492614746 C16.17835807800293 14.158951759338379 17.915390014648438 15.790159225463867 17.375308990478516 18.31181526184082 C17.140636444091797 19.40787696838379 16.63509750366211 20.61853790283203 15.865824699401855 21.392192840576172 C14.053129196166992 23.21366310119629 10.450216293334961 23.0727481842041 8.578849792480469 21.336814880371094 C6.388918876647949 19.305892944335938 6.711322784423828 16.574783325195312 9.604728698730469 12.635211944580078 C6.936676502227783 8.587075233459473 6.819887161254883 6.26609992980957 9.196789741516113 4.493977069854736"></path>
<path fill="none" stroke="black" stroke-width=".3" stroke-opacity="1.0"  filling="0" d="M13.109495162963867 5.139880180358887 C14.615689277648926 5.280795097351074 15.0291109085083 6.608789920806885 15.13383674621582 7.975714683532715 C15.260496139526367 9.631048202514648 14.791695594787598 11.019905090332031 13.008606910705566 12.294713973999023 C12.025496482849121 11.418522834777832 10.636091232299805 10.66679573059082 10.052694320678711 9.50932502746582 C9.581700325012207 8.573915481567383 9.737966537475586 6.955319404602051 10.270919799804688 6.009492874145508 C10.63389778137207 5.365782737731934 12.157089233398438 5.050506591796875 13.109495162963867 5.139880180358887"></path>
<path fill="none" stroke="black" stroke-width=".3" stroke-opacity="1.0"  filling="0" d="M11.162464141845703 13.080984115600586 C12.3786039352417 13.922083854675293 13.77733039855957 14.609659194946289 14.79059886932373 15.667337417602539 C15.860342025756836 16.783687591552734 15.9233980178833 18.28439712524414 15.080652236938477 19.706701278686523 C14.388143539428711 20.875139236450195 13.317851066589355 21.203027725219727 12.059492111206055 21.067596435546875 C10.49243450164795 20.89926528930664 9.672170639038086 19.87119483947754 9.290550231933594 18.45766258239746 C8.744986534118652 16.439899444580078 9.240106582641602 14.724802017211914 11.162464141845703 13.080984115600586"></path></svg>