<svg xmlns="http://www.w3.org/2000/svg" viewBox="0.0 0.0 24.0 24.0" height="200px" width="200px"><path fill="none" stroke="black" stroke-width=".3" stroke-opacity="1.0"  filling="0" d="M19.479045867919922 3.786087989807129 C19.158248901367188 5.5782647132873535 18.837451934814453 7.370440483093262 18.51720428466797 9.162066459655762 C18.32736587524414 9.159866333007812 18.136978149414062 9.158215522766113 17.947141647338867 9.156014442443848 C17.795822143554688 8.495159149169922 17.6654109954834 7.828802585601807 17.49043083190918 7.174000263214111 C16.963287353515625 5.202991962432861 15.467147827148438 4.210334777832031 13.889020919799805 4.7660908699035645 C12.362067222595215 5.303688049316406 11.475057601928711 7.198212146759033 12.205245018005371 8.868230819702148 C12.628390312194824 9.836127281188965 13.498891830444336 10.604281425476074 14.145439147949219 11.47863483428955 C15.113885879516602 12.789339065551758 16.300785064697266 14.005398750305176 16.96493911743164 15.4586181640625 C17.990062713623047 17.701452255249023 17.208702087402344 20.360828399658203 15.50566577911377 21.681987762451172 C13.606740951538086 23.155567169189453 11.574103355407715 23.076881408691406 9.201410293579102 21.42942237854004 C8.903173446655273 21.22197723388672 8.630247116088867 20.978214263916016 8.240117073059082 20.667871475219727 C7.768549919128418 20.977113723754883 7.2826762199401855 21.29570960998535 6.300472736358643 21.93950843811035 C7.120351314544678 19.516740798950195 7.772951602935791 17.589752197265625 8.425003051757812 15.662763595581055 C8.642353057861328 15.67872142791748 8.859152793884277 15.695230484008789 9.076502799987793 15.711186408996582 C9.076502799987793 16.51730728149414 9.015424728393555 17.32893180847168 9.08915901184082 18.128450393676758 C9.249832153320312 19.867801666259766 10.369598388671875 21.296810150146484 11.775497436523438 21.574138641357422 C13.064190864562988 21.828357696533203 14.123430252075195 21.39090347290039 14.893784523010254 20.324512481689453 C15.757131576538086 19.129911422729492 15.668542861938477 17.403215408325195 14.588943481445312 16.00006866455078 C13.86535930633545 15.059684753417969 12.928827285766602 14.276674270629883 12.254766464233398 13.307126998901367 C11.483311653137207 12.19781494140625 10.733865737915039 11.020822525024414 10.269452095031738 9.764042854309082 C9.56952953338623 7.871720790863037 10.157751083374023 6.132369518280029 11.601065635681152 4.766639709472656 C12.991006851196289 3.451533317565918 14.614805221557617 3.2281312942504883 16.43889617919922 3.8889856338500977 C17.329204559326172 4.211985111236572 18.39504623413086 5.402182579040527 19.479045867919922 3.786087989807129"></path></svg>