<svg xmlns="http://www.w3.org/2000/svg" viewBox="0.0 0.0 24.0 24.0" height="200px" width="200px"><path fill="none" stroke="black" stroke-width=".3" stroke-opacity="1.0"  filling="0" d="M13.98559284210205 5.887670040130615 L13.98559284210205 5.887670040130615 C14.79470157623291 5.887670040130615 15.603809356689453 5.887670040130615 16.412918090820312 5.887670040130615 L16.412918090820312 5.887670040130615 C15.903608322143555 7.687691688537598 15.394231796264648 9.487692832946777 14.884833335876465 11.287687301635742 C14.375434875488281 13.087682723999023 13.866016387939453 14.887672424316406 13.356622695922852 16.68766975402832 L13.356622695922852 16.68766975402832 C13.34717845916748 16.68766975402832 10.947393417358398 16.68766975402832 10.919428825378418 16.68766975402832 L10.919428825378418 16.68766975402832 C10.407341003417969 14.892271041870117 9.895179748535156 13.096891403198242 9.382973670959473 11.301525115966797 C8.870768547058105 9.506158828735352 8.358518600463867 7.7108049392700195 7.846253871917725 5.915456295013428 L7.846253871917725 5.915456295013428 C8.718727111816406 5.915456295013428 9.59119987487793 5.915456295013428 10.463672637939453 5.915456295013428 L10.463672637939453 5.915456295013428 C10.759878158569336 7.399892807006836 11.056110382080078 8.884323120117188 11.352339744567871 10.368754386901855 C11.648569107055664 11.853185653686523 11.944795608520508 13.337616920471191 12.240992546081543 14.822054862976074 L12.240992546081543 14.822054862976074 C12.531791687011719 13.332998275756836 12.822576522827148 11.843936920166016 13.1133451461792 10.354872703552246 C13.40411376953125 8.865808486938477 13.694864273071289 7.376741409301758 13.98559284210205 5.887670040130615 L13.98559284210205 5.887670040130615"></path></svg>