<svg xmlns="http://www.w3.org/2000/svg" viewBox="0.0 0.0 24.0 24.0" height="200px" width="200px"><path fill="none" stroke="black" stroke-width=".3" stroke-opacity="1.0"  filling="0" d="M10.234363555908203 6.2373127937316895 C11.755661010742188 6.348221302032471 13.277338027954102 6.459129333496094 15.270657539367676 6.604483604431152 C14.44168472290039 7.051145076751709 13.956414222717285 7.31270694732666 13.283015251159668 7.675713539123535 C13.764501571655273 10.351139068603516 14.256963729858398 13.089021682739258 14.749427795410156 15.826904296875 C14.910301208496094 15.841287612915039 15.070796012878418 15.856050491333008 15.231669425964355 15.870434761047363 C16.59133529663086 13.07009506225586 17.951004028320312 10.269377708435059 19.370098114013672 7.346016883850098 C18.75385856628418 7.068557262420654 18.38971519470215 6.9046549797058105 17.794294357299805 6.6370368003845215 C19.462459564208984 6.551868915557861 20.900863647460938 6.478055477142334 22.33774757385254 6.404621601104736 C22.33774757385254 6.550354480743408 22.369922637939453 6.766114234924316 22.333206176757812 6.7786054611206055 C20.71197509765625 7.328604698181152 19.99239730834961 8.699249267578125 19.262218475341797 10.08049201965332 C17.940027236938477 12.582174301147461 16.592849731445312 15.070608139038086 15.248703002929688 17.56055450439453 C14.986004829406738 18.047338485717773 14.690376281738281 18.515954971313477 14.16195297241211 19.413822174072266 C13.809165954589844 18.46182632446289 13.507102012634277 17.898958206176758 13.395058631896973 17.300128936767578 C12.979436874389648 15.078178405761719 12.62627124786377 12.844871520996094 12.188316345214844 10.252344131469727 C10.212785720825195 13.271849632263184 9.0548734664917 16.40302085876465 7.231132984161377 19.11667823791504 C7.086156845092773 19.070117950439453 6.941181659698486 19.0235595703125 6.796584129333496 18.97662353515625 C6.108802795410156 15.050167083740234 5.421019554138184 11.122575759887695 4.74383544921875 7.256305694580078 C4.1041259765625 7.007235050201416 3.627560615539551 6.821756839752197 3.150996208190918 6.636279106140137 C3.1729507446289062 6.536726474761963 3.1949052810668945 6.436795234680176 3.216859817504883 6.33724308013916 C4.784716606140137 6.33724308013916 6.352194786071777 6.33724308013916 8.288358688354492 6.33724308013916 C7.579378128051758 6.7206902503967285 7.145965099334717 6.95499849319458 6.469916820526123 7.320276737213135 C6.8859171867370605 9.985860824584961 7.316680908203125 12.743804931640625 7.74706506729126 15.501749038696289 C7.879170894622803 15.546793937683105 8.01089859008789 15.591459274291992 8.143003463745117 15.636505126953125 C8.532129287719727 14.969162940979004 8.940559387207031 14.312419891357422 9.305837631225586 13.632206916809082 C9.959931373596191 12.414109230041504 10.607969284057617 11.191468238830566 11.223073959350586 9.952929496765137 C12.23033332824707 7.924405574798584 12.083844184875488 7.455032825469971 10.234363555908203 6.2373127937316895"></path></svg>