<svg xmlns="http://www.w3.org/2000/svg" viewBox="0.0 0.0 24.0 24.0" height="200px" width="200px"><path fill="none" stroke="black" stroke-width=".3" stroke-opacity="1.0"  filling="0" d="M12.370362281799316 2.9925003051757812 C12.792581558227539 2.7610721588134766 13.503120422363281 3.0563554763793945 14.125421524047852 3.1159543991088867 C14.046085357666016 4.369457244873047 13.488027572631836 4.461176872253418 12.665258407592773 4.3052144050598145 C11.206255912780762 4.0292816162109375 10.879239082336426 4.204206943511963 10.490300178527832 5.6113505363464355 C10.204304695129395 6.645810127258301 10.083172798156738 7.725548267364502 9.874578475952148 8.859081268310547 C10.597112655639648 8.859081268310547 11.138143539428711 8.859081268310547 11.678787231445312 8.859081268310547 C11.736063003540039 8.952735900878906 11.793339729309082 9.046777725219727 11.851003646850586 9.140432357788086 C11.162524223327637 9.566136360168457 10.473658561706543 9.991839408874512 9.677206039428711 10.48410701751709 C9.376504898071289 12.690412521362305 9.058388710021973 15.043779373168945 8.73369312286377 17.395984649658203 C8.421768188476562 19.655696868896484 7.142723083496094 21.117794036865234 5.032782077789307 21.917343139648438 C4.235556125640869 22.219593048095703 3.5408849716186523 22.20720863342285 2.944125175476074 21.512149810791016 C2.9692811965942383 20.50555419921875 3.4480037689208984 20.372812271118164 4.3415937423706055 20.612754821777344 C5.942239761352539 21.042327880859375 6.4581146240234375 20.829477310180664 6.810674667358398 19.201740264892578 C7.434523105621338 16.322050094604492 7.847843170166016 13.397080421447754 8.362170219421387 10.415608406066895 C7.857517719268799 10.232556343078613 7.477480411529541 10.094782829284668 7.102087497711182 9.958558082580566 C7.137691974639893 9.831621170043945 7.137304782867432 9.7313871383667 7.175230979919434 9.713197708129883 C9.155527114868164 8.77316665649414 8.29018783569336 6.39696741104126 9.477899551391602 5.122565269470215 C10.284028053283691 4.2576141357421875 11.32583999633789 3.5644912719726562 12.370362281799316 2.9925003051757812"></path></svg>