<svg xmlns="http://www.w3.org/2000/svg" viewBox="0.0 0.0 24.0 24.0" height="200px" width="200px"><path fill="none" stroke="black" stroke-width=".3" stroke-opacity="1.0"  filling="0" d="M8.248924255371094 7.321354866027832 L8.248924255371094 7.321354866027832 C8.996525764465332 7.321354866027832 9.744126319885254 7.321354866027832 10.491727828979492 7.321354866027832 L10.491727828979492 7.321354866027832 C10.491474151611328 9.053403854370117 10.48005199432373 10.785874366760254 10.487916946411133 12.517878532409668 C10.491556167602539 13.319332122802734 10.42197322845459 14.672407150268555 10.958171844482422 15.330828666687012 C11.520435333251953 16.021257400512695 12.998926162719727 16.01734161376953 13.569867134094238 15.34872817993164 C14.166396141052246 14.65014934539795 14.049980163574219 12.969761848449707 14.05374526977539 12.16927433013916 C14.061318397521973 10.559244155883789 14.048971176147461 8.948872566223145 14.048971176147461 7.338817596435547 L14.048971176147461 7.338817596435547 C14.778264045715332 7.338817596435547 15.507555961608887 7.338817596435547 16.236848831176758 7.338817596435547 L16.236848831176758 7.338817596435547 C16.244121551513672 9.27737808227539 16.270597457885742 11.216854095458984 16.249706268310547 13.155394554138184 C16.237241744995117 14.311956405639648 16.4074764251709 15.59994125366211 15.640586853027344 16.618083953857422 C14.736940383911133 17.817790985107422 13.249465942382812 18.27411651611328 11.85274600982666 18.08798599243164 C10.456027030944824 17.901857376098633 9.150062561035156 17.073272705078125 8.60943603515625 15.703156471252441 C8.133586883544922 14.49720573425293 8.041932106018066 13.037435531616211 8.070003509521484 11.561311721801758 C8.098073959350586 10.085188865661621 8.245870590209961 8.592714309692383 8.248924255371094 7.321354866027832 L8.248924255371094 7.321354866027832"></path></svg>