<svg xmlns="http://www.w3.org/2000/svg" viewBox="0.0 0.0 24.0 24.0" height="200px" width="200px"><path fill="none" stroke="black" stroke-width=".3" stroke-opacity="1.0"  filling="0" d="M13.553956985473633 10.47787094116211 L13.553956985473633 10.47787094116211 C13.950188636779785 10.528363227844238 14.464706420898438 10.342475891113281 14.742652893066406 10.62934684753418 C15.143319129943848 11.042878150939941 15.106607437133789 11.721914291381836 15.28858470916748 12.268198013305664 L15.28858470916748 12.268198013305664 C14.93149471282959 12.199374198913574 14.576822280883789 12.116535186767578 14.217313766479492 12.061725616455078 C13.112933158874512 11.893354415893555 11.372418403625488 11.967264175415039 12.178330421447754 13.692970275878906 C12.857647895812988 15.147597312927246 15.822635650634766 16.303525924682617 14.898846626281738 18.359384536743164 C14.351020812988281 19.57855224609375 11.297093391418457 21.863679885864258 9.861027717590332 20.930572509765625 C9.36723518371582 20.609722137451172 9.263745307922363 19.91550636291504 8.965104103088379 19.407974243164062 L8.965104103088379 19.407974243164062 C11.113763809204102 19.158519744873047 11.789154052734375 19.659149169921875 13.690629959106445 18.404924392700195 L13.690629959106445 18.404924392700195 C12.719460487365723 17.374814987182617 10.113970756530762 15.153160095214844 10.549484252929688 13.462685585021973 C10.870223999023438 12.21771240234375 12.59462833404541 11.144143104553223 13.553956985473633 10.47787094116211 L13.553956985473633 10.47787094116211"></path></svg>