<svg xmlns="http://www.w3.org/2000/svg" viewBox="0.0 0.0 24.0 24.0" height="200px" width="200px"><path fill="none" stroke="black" stroke-width=".3" stroke-opacity="1.0"  filling="0" d="M15.62329387664795 4.143758296966553 C14.848958969116211 10.242693901062012 14.116171836853027 16.01166534423828 13.376760482788086 21.832422256469727 C14.966374397277832 22.220794677734375 16.079105377197266 22.49295425415039 17.19183349609375 22.764514923095703 C17.143665313720703 22.957794189453125 17.09549331665039 23.151077270507812 17.04732322692871 23.3443603515625 C13.463468551635742 23.3443603515625 9.879011154174805 23.3443603515625 6.295155048370361 23.3443603515625 C6.254209995269775 23.217914581298828 6.213265895843506 23.091468811035156 6.172321319580078 22.96502113342285 C6.733502388000488 22.75006103515625 7.300103664398193 22.338205337524414 7.85405969619751 22.355066299438477 C9.90550422668457 22.417686462402344 10.617818832397461 21.37902069091797 10.869508743286133 19.471485137939453 C11.400583267211914 15.449882507324219 12.12313461303711 11.454172134399414 12.797516822814941 7.257954120635986 C11.22897720336914 7.257954120635986 10.18248176574707 7.257954120635986 9.135384559631348 7.257954120635986 C9.095643997192383 7.118261337280273 9.05650520324707 6.978568077087402 9.017367362976074 6.8388752937316895 C11.070015907287598 6.001317024230957 13.122663497924805 5.16436243057251 15.62329387664795 4.143758296966553"></path></svg>