<svg xmlns="http://www.w3.org/2000/svg" viewBox="0.0 0.0 24.0 24.0" height="200px" width="200px"><path fill="none" stroke="black" stroke-width=".3" stroke-opacity="1.0"  filling="0" d="M9.052398681640625 5.8867506980896 L9.052398681640625 5.8867506980896 C10.619388580322266 5.8867506980896 12.186382293701172 5.8867506980896 13.753372192382812 5.8867506980896 L13.753372192382812 5.8867506980896 C13.753372192382812 7.433732986450195 13.753372192382812 8.980716705322266 13.753372192382812 10.527700424194336 C13.753372192382812 12.074684143066406 13.753372192382812 13.621667861938477 13.753372192382812 15.168649673461914 L13.753372192382812 15.168649673461914 C14.526473045349121 15.168649673461914 15.299572944641113 15.168649673461914 16.072673797607422 15.168649673461914 L16.072673797607422 15.168649673461914 C16.072673797607422 15.674683570861816 16.072673797607422 16.18071746826172 16.072673797607422 16.686752319335938 L16.072673797607422 16.686752319335938 C13.697524070739746 16.686752319335938 11.322375297546387 16.686752319335938 8.947224617004395 16.686752319335938 L8.947224617004395 16.686752319335938 C8.947224617004395 16.1787166595459 8.947224617004395 15.670681953430176 8.947224617004395 15.162647247314453 L8.947224617004395 15.162647247314453 C9.76712703704834 15.162647247314453 10.587028503417969 15.162647247314453 11.406930923461914 15.162647247314453 L11.406930923461914 15.162647247314453 C11.406930923461914 13.854500770568848 11.406930923461914 12.546355247497559 11.406930923461914 11.23820972442627 C11.406930923461914 9.93006420135498 11.406930923461914 8.621918678283691 11.406930923461914 7.313771724700928 L11.406930923461914 7.313771724700928 C10.622086524963379 7.313771724700928 9.83724308013916 7.313771724700928 9.052398681640625 7.313771724700928 L9.052398681640625 7.313771724700928 C9.052398681640625 6.838098049163818 9.052398681640625 6.362424373626709 9.052398681640625 5.8867506980896 L9.052398681640625 5.8867506980896"></path></svg>