<svg xmlns="http://www.w3.org/2000/svg" viewBox="0.0 0.0 24.0 24.0" height="200px" width="200px"><path fill="none" stroke="black" stroke-width=".3" stroke-opacity="1.0"  filling="0" d="M13.642126083374023 7.352463245391846 L13.642126083374023 7.352463245391846 C16.336284637451172 8.77296257019043 15.209863662719727 10.368658065795898 13.231513023376465 11.788605690002441 L13.231513023376465 11.788605690002441 C14.014638900756836 12.381803512573242 14.975263595581055 12.94278335571289 15.35299301147461 13.936870574951172 C15.86996078491211 15.297398567199707 14.821516036987305 16.663211822509766 13.400745391845703 17.481115341186523 C11.979974746704102 18.29901885986328 10.186877250671387 18.569013595581055 9.21453857421875 17.73790168762207 C8.841561317443848 17.419097900390625 8.98159408569336 16.78462791442871 8.865121841430664 16.30799102783203 L8.865121841430664 16.30799102783203 C9.249302864074707 16.434228897094727 11.169754981994629 17.109573364257812 11.647293090820312 17.101909637451172 C13.132002830505371 17.078081130981445 14.842639923095703 15.822413444519043 13.776324272155762 14.15395450592041 C13.081427574157715 13.06665325164795 11.59412956237793 12.835200309753418 10.480268478393555 12.510799407958984 L10.480268478393555 12.510799407958984 C10.805378913879395 12.319798469543457 13.291897773742676 10.868645668029785 13.365751266479492 10.776219367980957 C14.4403076171875 9.431424140930176 13.634122848510742 8.63589096069336 12.204319953918457 8.43196964263916 C11.814023971557617 8.376304626464844 10.195322036743164 9.305508613586426 9.924886703491211 9.449291229248047 L9.924886703491211 9.449291229248047 C11.079975128173828 7.796658039093018 11.618110656738281 7.379483222961426 13.642126083374023 7.352463245391846 L13.642126083374023 7.352463245391846"></path></svg>