<svg xmlns="http://www.w3.org/2000/svg" viewBox="0.0 0.0 24.0 24.0" height="200px" width="200px"><path fill="none" stroke="black" stroke-width=".3" stroke-opacity="1.0"  filling="0" d="M17.812698364257812 4.1517720222473145 C17.326833724975586 7.948919296264648 16.89077377319336 11.352858543395996 16.41012191772461 15.110626220703125 C17.526042938232422 14.994226455688477 18.471132278442383 14.895200729370117 19.41506004333496 14.79791259765625 C18.678447723388672 16.61859703063965 18.678447723388672 16.61859703063965 16.090457916259766 17.134572982788086 C15.802067756652832 19.063549041748047 15.50672721862793 21.037696838378906 15.185906410217285 23.180938720703125 C14.383275985717773 23.235374450683594 13.669248580932617 23.283435821533203 12.655826568603516 23.351770401000977 C12.930318832397461 21.372413635253906 13.174698829650879 19.609638214111328 13.457878112792969 17.5631046295166 C10.666045188903809 17.5631046295166 7.935019016265869 17.5631046295166 5.124655246734619 17.5631046295166 C6.084222793579102 14.277303695678711 14.025975227355957 5.788882732391357 17.812698364257812 4.1517720222473145"></path>
<path fill="none" stroke="black" stroke-width=".3" stroke-opacity="1.0"  filling="0" d="M14.656033515930176 7.512278079986572 C14.84945297241211 7.621148586273193 15.042871475219727 7.730019569396973 15.236289978027344 7.838890075683594 C14.803125381469727 10.316271781921387 14.369958877563477 12.793654441833496 13.88004207611084 15.595331192016602 C11.807449340820312 15.595331192016602 10.019773483276367 15.595331192016602 7.558606147766113 15.595331192016602 C10.121694564819336 12.67609691619873 12.388864517211914 10.093897819519043 14.656033515930176 7.512278079986572"></path></svg>