<svg xmlns="http://www.w3.org/2000/svg" viewBox="0.0 0.0 24.0 24.0" height="200px" width="200px"><path fill="none" stroke="black" stroke-width=".3" stroke-opacity="1.0"  filling="0" d="M10.096796035766602 3.902215003967285 C13.150911331176758 3.902215003967285 15.815869331359863 3.902215003967285 18.688417434692383 3.902215003967285 C17.04189109802246 7.245537281036377 13.783735275268555 6.364315032958984 10.818925857543945 6.544107913970947 C10.365303039550781 7.732871055603027 9.928239822387695 8.879051208496094 9.429669380187988 10.1860990524292 C11.147165298461914 10.830751419067383 12.631049156188965 11.297385215759277 14.035090446472168 11.93730640411377 C15.944799423217773 12.807291984558105 17.735042572021484 13.877769470214844 17.919567108154297 16.302019119262695 C18.112369537353516 18.841594696044922 16.519664764404297 20.289993286132812 14.583341598510742 21.414291381835938 C11.768753051757812 23.050172805786133 8.873140335083008 24.03134536743164 5.688319683074951 21.807588577270508 C5.952685832977295 20.221389770507812 6.526959419250488 19.93572998046875 7.800295829772949 20.40768814086914 C9.054707527160645 20.872547149658203 10.445145606994629 21.22503662109375 11.765204429626465 21.193096160888672 C13.54716682434082 21.150516510009766 14.939970016479492 20.187084197998047 15.435583114624023 18.331195831298828 C15.879152297973633 16.670475006103516 15.246919631958008 15.24987506866455 13.270379066467285 14.287035942077637 C11.448200225830078 13.399309158325195 9.456283569335938 12.859929084777832 7.289304733276367 12.076292037963867 C8.26338005065918 9.241003036499023 9.20551872253418 6.497976779937744 10.096796035766602 3.902215003967285"></path></svg>