<svg xmlns="http://www.w3.org/2000/svg" viewBox="0.0 0.0 24.0 24.0" height="200px" width="200px"><path fill="none" stroke="black" stroke-width=".3" stroke-opacity="1.0"  filling="0" d="M6.795738697052002 1.223027229309082 C10.295125007629395 1.223027229309082 13.837751388549805 1.223027229309082 17.54073143005371 1.223027229309082 C17.54073143005371 2.246853828430176 17.54073143005371 3.309865951538086 17.54073143005371 4.4539570808410645 C14.925087928771973 4.4539570808410645 12.413944244384766 4.4539570808410645 9.816768646240234 4.4539570808410645 C9.816768646240234 5.592642307281494 9.816768646240234 6.84708833694458 9.816768646240234 8.223150253295898 C10.090179443359375 8.203330993652344 10.37755298614502 8.218645095825195 10.647359848022461 8.156936645507812 C14.236381530761719 7.333101749420166 16.831754684448242 8.728530883789062 17.82360076904297 12.025674819946289 C18.830310821533203 15.37236499786377 17.237140655517578 18.769052505493164 14.0728759765625 19.910890579223633 C11.276159286499023 20.920303344726562 8.637544631958008 20.34014892578125 6.055683612823486 19.023544311523438 C6.055683612823486 17.720001220703125 6.055683612823486 16.468257904052734 6.055683612823486 14.640867233276367 C6.988523006439209 15.285430908203125 7.634438514709473 15.631360054016113 8.156936645507812 16.11151885986328 C9.691549301147461 17.520912170410156 11.375704765319824 17.589828491210938 12.726091384887695 16.22863006591797 C13.685056686401367 15.262008666992188 13.933692932128906 13.6828031539917 13.31300163269043 12.497273445129395 C12.714831352233887 11.354533195495605 11.521193504333496 10.836090087890625 10.06225299835205 11.090581893920898 C9.330755233764648 11.218504905700684 8.603312492370605 11.37480354309082 7.867761135101318 11.474799156188965 C7.5844407081604 11.51308536529541 7.284454822540283 11.430206298828125 6.795738697052002 11.38381290435791 C6.795738697052002 8.031267166137695 6.795738697052002 4.716106414794922 6.795738697052002 1.223027229309082"></path></svg>