<svg xmlns="http://www.w3.org/2000/svg" viewBox="0.0 0.0 24.0 24.0" height="200px" width="200px"><path fill="none" stroke="black" stroke-width=".3" stroke-opacity="1.0"  filling="0" d="M14.223106384277344 8.329339981079102 L14.223106384277344 8.329339981079102 C15.086514472961426 8.329339981079102 15.949923515319824 8.329339981079102 16.813331604003906 8.329339981079102 L16.813331604003906 8.329339981079102 C15.190666198730469 9.502570152282715 13.893922805786133 10.832015991210938 12.455142974853516 12.219423294067383 L12.455142974853516 12.219423294067383 C13.104635238647461 14.150129318237305 13.487377166748047 15.335746765136719 14.890616416931152 16.83707046508789 L14.890616416931152 16.83707046508789 C14.849747657775879 16.83707046508789 12.093255996704102 16.83707046508789 12.072242736816406 16.83707046508789 L12.072242736816406 16.83707046508789 C12.246833801269531 15.60806941986084 12.13166618347168 14.306490898132324 11.742722511291504 13.127656936645508 L11.742722511291504 13.127656936645508 C10.678354263305664 14.098493576049805 9.614028930664062 15.069377899169922 8.549661636352539 16.04021644592285 L8.549661636352539 16.04021644592285 C8.784226417541504 16.322002410888672 9.018791198730469 16.603788375854492 9.253355979919434 16.885574340820312 L9.253355979919434 16.885574340820312 C8.173433303833008 16.885574340820312 7.093510627746582 16.885574340820312 6.013587951660156 16.885574340820312 L6.013587951660156 16.885574340820312 C8.106561660766602 15.703359603881836 9.658202171325684 14.17354965209961 11.425777435302734 12.56716537475586 L11.425777435302734 12.56716537475586 C10.830162048339844 10.76854133605957 10.577662467956543 9.64712142944336 9.159684181213379 8.363216400146484 L9.159684181213379 8.363216400146484 C10.161418914794922 8.363216400146484 11.163153648376465 8.363216400146484 12.164888381958008 8.363216400146484 L12.164888381958008 8.363216400146484 C11.814432144165039 9.411100387573242 11.89913558959961 10.632505416870117 12.260613441467285 11.67663860321045 L12.260613441467285 11.67663860321045 C13.138364791870117 10.85049819946289 14.016144752502441 10.024388313293457 14.893952369689941 9.198307991027832 L14.893952369689941 9.198307991027832 C14.670336723327637 8.908652305603027 14.446722030639648 8.618995666503906 14.223106384277344 8.329339981079102 L14.223106384277344 8.329339981079102"></path></svg>