<svg xmlns="http://www.w3.org/2000/svg" viewBox="0.0 0.0 24.0 24.0" height="200px" width="200px"><path fill="none" stroke="black" stroke-width=".3" stroke-opacity="1.0"  filling="0" d="M7.297493934631348 2.0751962661743164 C10.967303276062012 2.0751962661743164 14.608499526977539 2.0751962661743164 18.4340877532959 2.0751962661743164 C18.4340877532959 2.917673110961914 18.4340877532959 3.8210840225219727 18.4340877532959 5.0185675621032715 C15.964941024780273 5.0185675621032715 13.5424222946167 5.0185675621032715 10.973661422729492 5.0185675621032715 C10.973661422729492 6.851881980895996 10.973661422729492 8.399072647094727 10.973661422729492 10.217021942138672 C13.24729061126709 10.217021942138672 15.490716934204102 10.217021942138672 17.98529624938965 10.217021942138672 C18.056299209594727 11.279390335083008 18.11034393310547 12.09484577178955 18.18717384338379 13.245170593261719 C15.73816204071045 13.245170593261719 13.496854782104492 13.245170593261719 10.967833518981934 13.245170593261719 C10.967833518981934 16.06402587890625 10.967833518981934 18.5723819732666 10.967833518981934 21.275196075439453 C9.600794792175293 21.275196075439453 8.523059844970703 21.275196075439453 7.297493934631348 21.275196075439453 C7.297493934631348 14.902572631835938 7.297493934631348 8.591941833496094 7.297493934631348 2.0751962661743164"></path></svg>