<svg xmlns="http://www.w3.org/2000/svg" viewBox="0.0 0.0 24.0 24.0" height="200px" width="200px"><path fill="none" stroke="black" stroke-width=".3" stroke-opacity="1.0"  filling="0" d="M11.389388084411621 8.610780715942383 L11.389388084411621 8.610780715942383 C11.983902931213379 8.610780715942383 12.578417778015137 8.610780715942383 13.172932624816895 8.610780715942383 L13.172932624816895 8.610780715942383 C12.633207321166992 10.17097282409668 13.129491806030273 11.604850769042969 13.40054702758789 13.208465576171875 C13.516294479370117 13.893250465393066 13.436362266540527 14.730913162231445 13.924394607543945 15.225030899047852 L13.924394607543945 15.225030899047852 C14.119436264038086 15.003250122070312 14.314477920532227 14.781469345092773 14.509519577026367 14.559688568115234 L14.509519577026367 14.559688568115234 C14.559330940246582 14.584280967712402 14.60914134979248 14.608874320983887 14.658952713012695 14.633466720581055 L14.658952713012695 14.633466720581055 C14.097726821899414 15.767480850219727 14.035172462463379 15.893878936767578 13.473946571350098 17.02789306640625 L13.473946571350098 17.02789306640625 C13.361356735229492 17.020917892456055 13.248767852783203 17.013940811157227 13.136178016662598 17.00696563720703 L13.136178016662598 17.00696563720703 C12.810218811035156 15.124424934387207 12.484227180480957 13.2418851852417 12.158287048339844 11.35934066772461 L12.158287048339844 11.35934066772461 C11.953855514526367 11.605445861816406 11.74942398071289 11.851550102233887 11.544992446899414 12.097655296325684 L11.544992446899414 12.097655296325684 C11.839856147766113 10.97219181060791 11.780730247497559 9.706437110900879 11.389388084411621 8.610780715942383 L11.389388084411621 8.610780715942383"></path>
<path fill="none" stroke="black" stroke-width=".3" stroke-opacity="1.0"  filling="0" d="M16.527008056640625 8.619097709655762 L16.527008056640625 8.619097709655762 C16.986576080322266 8.619097709655762 17.446144104003906 8.619097709655762 17.905712127685547 8.619097709655762 L17.905712127685547 8.619097709655762 C17.105318069458008 10.011119842529297 16.30495262145996 11.403156280517578 15.5045804977417 12.795190811157227 L15.5045804977417 12.795190811157227 C16.009410858154297 11.245636940002441 16.562685012817383 10.263692855834961 16.527008056640625 8.619097709655762 L16.527008056640625 8.619097709655762"></path>
<path fill="none" stroke="black" stroke-width=".3" stroke-opacity="1.0"  filling="0" d="M7.105713367462158 8.619634628295898 L7.105713367462158 8.619634628295898 C7.704610347747803 8.619634628295898 8.303507804870605 8.619634628295898 8.90240478515625 8.619634628295898 L8.90240478515625 8.619634628295898 C8.411286354064941 10.793668746948242 9.223871231079102 13.1046142578125 9.75500774383545 15.2298583984375 L9.75500774383545 15.2298583984375 C9.889775276184082 14.972575187683105 10.024542808532715 14.715291976928711 10.159310340881348 14.458008766174316 L10.159310340881348 14.458008766174316 C10.235771179199219 14.51184368133545 10.31223201751709 14.565679550170898 10.388692855834961 14.619514465332031 L10.388692855834961 14.619514465332031 C10.254849433898926 14.906461715698242 9.378600120544434 16.784725189208984 9.244733810424805 17.07162094116211 L9.244733810424805 17.07162094116211 C9.143501281738281 17.063125610351562 9.042269706726074 17.054628372192383 8.94103717803955 17.046133041381836 L8.94103717803955 17.046133041381836 C8.692899703979492 15.635845184326172 8.511235237121582 14.19131088256836 8.253021240234375 12.768303871154785 C7.994807243347168 11.345295906066895 7.6600446701049805 9.943815231323242 7.105713367462158 8.619634628295898 L7.105713367462158 8.619634628295898"></path></svg>