<svg xmlns="http://www.w3.org/2000/svg" viewBox="0.0 0.0 24.0 24.0" height="200px" width="200px"><path fill="none" stroke="black" stroke-width=".3" stroke-opacity="1.0"  filling="0" d="M7.313347339630127 4.759958744049072 C12.033266067504883 4.759958744049072 16.52341079711914 4.759958744049072 21.76324462890625 4.759958744049072 C16.413143157958984 10.989117622375488 11.483162879943848 16.729772567749023 6.552567005157471 22.469818115234375 C6.646817207336426 22.7248477935791 6.740451335906982 22.979877471923828 6.834702491760254 23.234909057617188 C10.51170539855957 23.489322662353516 14.212732315063477 23.595279693603516 17.836139678955078 22.559139251708984 C18.642505645751953 22.328134536743164 19.191991806030273 21.19959259033203 19.74271011352539 20.609447479248047 C19.824024200439453 23.503494262695312 19.564682006835938 23.890350341796875 16.786447525024414 23.928543090820312 C12.38377857208252 23.988914489746094 7.979876518249512 23.944561004638672 3.5765905380249023 23.944561004638672 C3.4521560668945312 23.722177505493164 3.32772159576416 23.499794006347656 3.202669143676758 23.27741241455078 C8.185626983642578 17.632238388061523 13.168583869934082 11.98644733428955 18.20267105102539 6.283367156982422 C14.896509170532227 4.880698204040527 9.591992378234863 5.289117336273193 6.23223876953125 7.260985374450684 C6.697330474853516 6.185420513153076 7.0367560386657715 5.399383544921875 7.313347339630127 4.759958744049072"></path></svg>