<svg xmlns="http://www.w3.org/2000/svg" viewBox="0.0 0.0 24.0 24.0" height="200px" width="200px"><path fill="none" stroke="black" stroke-width=".3" stroke-opacity="1.0"  filling="0" d="M11.371048927307129 6.9306440353393555 L11.371048927307129 6.9306440353393555 C11.077624320983887 8.031142234802246 10.843179702758789 9.148880004882812 10.666255950927734 10.273999214172363 L10.666255950927734 10.273999214172363 C10.966641426086426 10.295477867126465 11.267026901245117 10.31695556640625 11.567412376403809 10.338434219360352 L11.567412376403809 10.338434219360352 C11.579327583312988 10.387191772460938 11.591241836547852 10.43595027923584 11.603157043457031 10.484707832336426 L11.603157043457031 10.484707832336426 C11.288269996643066 10.61718463897705 10.973382949829102 10.749661445617676 10.658495903015137 10.8821382522583 L10.658495903015137 10.8821382522583 C10.182015419006348 13.454927444458008 10.109160423278809 15.490139961242676 8.652294158935547 17.73064422607422 L8.652294158935547 17.73064422607422 C9.140453338623047 16.05123519897461 9.481253623962402 14.447543144226074 9.669368743896484 12.706912994384766 C9.880171775817871 10.75635051727295 9.61508560180664 8.364900588989258 11.371048927307129 6.9306440353393555 L11.371048927307129 6.9306440353393555"></path></svg>