<svg xmlns="http://www.w3.org/2000/svg" viewBox="0.0 0.0 24.0 24.0" height="200px" width="200px"><path fill="none" stroke="black" stroke-width=".3" stroke-opacity="1.0"  filling="0" d="M14.664953231811523 7.819101333618164 L14.664953231811523 7.819101333618164 C14.87986946105957 7.847199440002441 15.094785690307617 7.875298023223877 15.309701919555664 7.903396129608154 L15.309701919555664 7.903396129608154 C15.319438934326172 10.123773574829102 15.363761901855469 12.345726013183594 15.323198318481445 14.565984725952148 C15.303915023803711 15.621463775634766 15.4442777633667 17.044010162353516 14.554788589477539 17.896137237548828 C13.23330307006836 19.162113189697266 10.693222045898438 18.534931182861328 9.135942459106445 18.401866912841797 L9.135942459106445 18.401866912841797 C9.136038780212402 18.02009391784668 9.136231422424316 16.644943237304688 9.136244773864746 16.272445678710938 L9.136244773864746 16.272445678710938 C10.447550773620605 16.848434448242188 12.93709945678711 18.122604370117188 13.496081352233887 15.812148094177246 C13.593796730041504 15.408256530761719 13.452725410461426 14.982192039489746 13.431047439575195 14.567214012145996 L13.431047439575195 14.567214012145996 C12.576815605163574 15.038609504699707 11.989423751831055 15.520535469055176 10.864853858947754 15.260303497314453 C9.425520896911621 14.92723274230957 8.687326431274414 13.418869018554688 8.643653869628906 11.8748197555542 C8.599980354309082 10.330770492553711 9.25082778930664 8.75103759765625 10.589576721191406 8.27523136138916 C11.669548988342285 7.891396999359131 12.447129249572754 8.470483779907227 13.40506362915039 8.86568546295166 L13.40506362915039 8.86568546295166 C13.478280067443848 8.531729698181152 13.551496505737305 8.197772979736328 13.624712944030762 7.86381721496582 L13.624712944030762 7.86381721496582 C13.97145938873291 7.848911762237549 14.318206787109375 7.8340067863464355 14.664953231811523 7.819101333618164 L14.664953231811523 7.819101333618164"></path>
<path fill="none" stroke="black" stroke-width=".3" stroke-opacity="1.0"  filling="0" d="M13.512320518493652 10.062731742858887 L13.512320518493652 10.062731742858887 C13.50589370727539 10.877460479736328 13.805634498596191 11.743528366088867 13.521082878112793 12.506977081298828 C12.722890853881836 14.648519515991211 11.546488761901855 13.966865539550781 10.95703125 12.719379425048828 C10.367574691772461 11.471894264221191 10.365062713623047 9.658576965332031 11.914648056030273 9.536795616149902 C12.47359561920166 9.492867469787598 12.97976303100586 9.887419700622559 13.512320518493652 10.062731742858887 L13.512320518493652 10.062731742858887"></path></svg>