<svg xmlns="http://www.w3.org/2000/svg" viewBox="0.0 0.0 24.0 24.0" height="200px" width="200px"><path fill="none" stroke="black" stroke-width=".3" stroke-opacity="1.0"  filling="0" d="M10.713908195495605 8.931333541870117 L10.713908195495605 8.931333541870117 C11.977828979492188 10.731700897216797 11.904986381530762 12.512201309204102 12.603681564331055 14.54371166229248 L12.603681564331055 14.54371166229248 C12.518598556518555 14.69955825805664 11.41145133972168 16.727663040161133 11.365822792053223 16.81125259399414 L11.365822792053223 16.81125259399414 C11.377751350402832 16.821210861206055 11.389678955078125 16.83116912841797 11.401607513427734 16.841127395629883 L11.401607513427734 16.841127395629883 C11.427486419677734 14.412862777709961 11.30145263671875 12.323358535766602 10.553340911865234 10.000846862792969 L10.553340911865234 10.000846862792969 C10.27639389038086 10.137246131896973 9.999446868896484 10.27364444732666 9.72249984741211 10.410043716430664 L9.72249984741211 10.410043716430664 C9.605497360229492 10.28432846069336 9.488494873046875 10.158613204956055 9.371492385864258 10.03289794921875 L9.371492385864258 10.03289794921875 C9.818964004516602 9.665709495544434 10.266436576843262 9.298521995544434 10.713908195495605 8.931333541870117 L10.713908195495605 8.931333541870117"></path>
<path fill="none" stroke="black" stroke-width=".3" stroke-opacity="1.0"  filling="0" d="M13.844343185424805 9.210458755493164 L13.844343185424805 9.210458755493164 C14.001279830932617 9.24531078338623 14.158215522766113 9.28016185760498 14.315152168273926 9.315013885498047 L14.315152168273926 9.315013885498047 C14.171883583068848 10.330435752868652 13.806116104125977 11.331421852111816 13.28173542022705 12.212689399719238 L13.28173542022705 12.212689399719238 C13.469271659851074 11.211945533752441 13.656807899475098 10.211202621459961 13.844343185424805 9.210458755493164 L13.844343185424805 9.210458755493164"></path>
<path fill="none" stroke="black" stroke-width=".3" stroke-opacity="1.0"  filling="0" d="M11.366133689880371 16.810941696166992 L11.401607513427734 16.841127395629883 C10.211775779724121 18.349435806274414 9.463456153869629 18.84058952331543 7.617080211639404 19.38966178894043 L7.617080211639404 19.38966178894043 C10.129462242126465 19.797029495239258 10.519970893859863 19.135700225830078 11.366133689880371 16.810941696166992 L11.366133689880371 16.810941696166992"></path></svg>