<svg xmlns="http://www.w3.org/2000/svg" viewBox="0.0 0.0 24.0 24.0" height="200px" width="200px"><path fill="none" stroke="black" stroke-width=".3" stroke-opacity="1.0"  filling="0" d="M11.498546600341797 7.869213581085205 L11.498546600341797 7.869213581085205 C11.583983421325684 7.873754501342773 15.336664199829102 8.073299407958984 15.48112964630127 8.080985069274902 L15.48112964630127 8.080985069274902 C14.128856658935547 9.114871978759766 13.347152709960938 9.067044258117676 11.66534423828125 9.088848114013672 L11.66534423828125 9.088848114013672 C11.397228240966797 9.917271614074707 11.129151344299316 10.745707511901855 10.861108779907227 11.5741548538208 L10.861108779907227 11.5741548538208 C12.692317962646484 12.280808448791504 16.483489990234375 13.40240478515625 14.957483291625977 16.14146614074707 C14.635685920715332 16.719066619873047 14.1074857711792 17.15448570251465 13.682486534118652 17.660995483398438 L13.682486534118652 17.660995483398438 C13.8612060546875 17.066389083862305 14.1573486328125 16.495027542114258 14.218644142150879 15.877177238464355 C14.423001289367676 13.817283630371094 11.423062324523926 13.062501907348633 10.135842323303223 12.460550308227539 L10.135842323303223 12.460550308227539 C10.590088844299316 10.930107116699219 11.044327735900879 9.399663925170898 11.498546600341797 7.869213581085205 L11.498546600341797 7.869213581085205"></path>
<path fill="none" stroke="black" stroke-width=".3" stroke-opacity="1.0"  filling="0" d="M9.346479415893555 17.430809020996094 L9.346479415893555 17.430809020996094 C9.348292350769043 17.431171417236328 12.540022850036621 18.068187713623047 12.574049949645996 18.07497787475586 L12.574049949645996 18.07497787475586 C12.028139114379883 18.27208137512207 11.51538372039795 18.705663681030273 10.93631649017334 18.666290283203125 C10.324738502502441 18.624706268310547 9.837234497070312 18.123109817504883 9.287693977355957 17.851518630981445 L9.287693977355957 17.851518630981445 C9.307289123535156 17.71128273010254 9.326884269714355 17.571044921875 9.346479415893555 17.430809020996094 L9.346479415893555 17.430809020996094"></path></svg>