<svg xmlns="http://www.w3.org/2000/svg" viewBox="0.0 0.0 24.0 24.0" height="200px" width="200px"><path fill="none" stroke="black" stroke-width=".3" stroke-opacity="1.0"  filling="0" d="M14.043004989624023 7.022212028503418 L14.043004989624023 7.022212028503418 C15.813664436340332 8.729063034057617 15.80695629119873 10.137260437011719 13.763137817382812 11.6798677444458 L13.763137817382812 11.6798677444458 C14.575664520263672 12.323819160461426 15.270475387573242 12.701009750366211 15.559199333190918 13.854862213134766 C16.185293197631836 16.35697364807129 14.063419342041016 17.414106369018555 11.993687629699707 17.30222511291504 C9.923955917358398 17.19034194946289 7.906367778778076 15.909445762634277 8.741031646728516 13.735496520996094 C9.111964225769043 12.769372940063477 9.793191909790039 12.403952598571777 10.539131164550781 11.886011123657227 L10.539131164550781 11.886011123657227 C9.460454940795898 10.883545875549316 8.90833854675293 9.566461563110352 9.101083755493164 8.494199752807617 C9.293828964233398 7.421937465667725 10.231435775756836 6.594498634338379 12.132206916809082 6.571325778961182 C12.786582946777344 6.563347816467285 13.406072616577148 6.871916770935059 14.043004989624023 7.022212028503418 L14.043004989624023 7.022212028503418"></path>
<path fill="none" stroke="black" stroke-width=".3" stroke-opacity="1.0"  filling="0" d="M12.757939338684082 8.054631233215332 L12.757939338684082 8.054631233215332 C13.117958068847656 8.531474113464355 13.651803970336914 8.917423248291016 13.837995529174805 9.485160827636719 C13.905097961425781 9.689769744873047 13.106987953186035 11.523008346557617 13.084310531616211 11.578071594238281 L13.084310531616211 11.578071594238281 C12.392136573791504 11.07363510131836 10.264334678649902 9.90995979309082 11.008978843688965 8.609545707702637 C11.312908172607422 8.078777313232422 12.174952507019043 8.239603042602539 12.757939338684082 8.054631233215332 L12.757939338684082 8.054631233215332"></path>
<path fill="none" stroke="black" stroke-width=".3" stroke-opacity="1.0"  filling="0" d="M11.410490989685059 12.052173614501953 L11.410490989685059 12.052173614501953 C11.656126022338867 12.235466957092285 13.105839729309082 13.280896186828613 13.310018539428711 13.571171760559082 C15.194241523742676 16.249921798706055 9.461691856384277 16.88968276977539 10.595169067382812 13.509230613708496 C10.772102355957031 12.981550216674805 11.138716697692871 12.537858963012695 11.410490989685059 12.052173614501953 L11.410490989685059 12.052173614501953"></path></svg>