<svg xmlns="http://www.w3.org/2000/svg" viewBox="0.0 0.0 24.0 24.0" height="200px" width="200px"><path fill="none" stroke="black" stroke-width=".3" stroke-opacity="1.0"  filling="0" d="M7.439143180847168 3.4763612747192383 C9.745631217956543 3.603634834289551 11.92369270324707 3.5823259353637695 14.055682182312012 3.8864030838012695 C15.842130661010742 4.141528129577637 17.285343170166016 5.125744342803955 17.64815902709961 7.0976338386535645 C18.019617080688477 9.11674690246582 17.285343170166016 10.637703895568848 15.445910453796387 11.598884582519531 C15.28120231628418 11.684693336486816 15.127436637878418 11.801602363586426 14.99267578125 11.929452896118164 C14.941995620727539 11.977252006530762 14.959273338317871 12.096464157104492 14.911473274230957 12.400541305541992 C16.87760353088379 13.058796882629395 18.200450897216797 14.410438537597656 18.463062286376953 16.617870330810547 C18.78902244567871 19.35283088684082 17.4252872467041 21.625343322753906 14.677081108093262 22.14768409729004 C12.379231452941895 22.583641052246094 9.984630584716797 22.511077880859375 7.439143180847168 22.676361083984375 C7.439143180847168 16.158300399780273 7.439143180847168 9.997300148010254 7.439143180847168 3.4763612747192383"></path>
<path fill="none" stroke="black" stroke-width=".3" stroke-opacity="1.0"  filling="0" d="M10.042221069335938 5.845046520233154 C11.684118270874023 5.711436748504639 13.411248207092285 5.221920013427734 14.489336013793945 6.78203821182251 C14.980581283569336 7.492701530456543 15.102095603942871 8.900781631469727 14.731790542602539 9.677674293518066 C13.825321197509766 11.57757568359375 11.922540664672852 11.230306625366211 10.042221069335938 11.15083122253418 C10.042221069335938 9.40815258026123 10.042221069335938 7.737460136413574 10.042221069335938 5.845046520233154"></path>
<path fill="none" stroke="black" stroke-width=".3" stroke-opacity="1.0"  filling="0" d="M10.033581733703613 13.481508255004883 C11.987041473388672 13.275911331176758 14.010186195373535 13.10486888885498 15.092306137084961 15.003617286682129 C15.65611457824707 15.993017196655273 15.783963203430176 17.746639251708984 15.277170181274414 18.722793579101562 C14.250913619995117 20.698711395263672 12.122379302978516 20.421127319335938 10.03358268737793 20.271392822265625 C10.03358268737793 18.038043975830078 10.03358268737793 15.887051582336426 10.033581733703613 13.481508255004883"></path></svg>