<svg xmlns="http://www.w3.org/2000/svg" viewBox="0.0 0.0 24.0 24.0" height="200px" width="200px"><path fill="none" stroke="black" stroke-width=".3" stroke-opacity="1.0"  filling="0" d="M8.595136642456055 7.026081562042236 L8.595136642456055 7.026081562042236 C10.419634819030762 6.977379322052002 12.461332321166992 6.692226409912109 14.128219604492188 7.667938232421875 C15.738213539123535 8.610347747802734 16.56100845336914 10.532795906066895 16.560691833496094 12.442285537719727 C16.560375213623047 14.351774215698242 15.736946105957031 16.24830436706543 14.054492950439453 17.138877868652344 C12.389808654785156 18.020044326782227 10.38929271697998 17.761333465576172 8.595136642456055 17.717994689941406 L8.595136642456055 17.717994689941406 C8.595136642456055 15.93600845336914 8.595136642456055 14.154023170471191 8.595136642456055 12.372037887573242 C8.595136642456055 10.590052604675293 8.595136642456055 8.808067321777344 8.595136642456055 7.026081562042236 L8.595136642456055 7.026081562042236"></path>
<path fill="none" stroke="black" stroke-width=".3" stroke-opacity="1.0"  filling="0" d="M10.121187210083008 8.249295234680176 L10.121187210083008 8.249295234680176 C11.18682861328125 8.203105926513672 12.119232177734375 8.00287914276123 13.11392593383789 8.561225891113281 C14.385677337646484 9.275093078613281 15.045710563659668 10.765836715698242 15.080692291259766 12.274084091186523 C15.115673065185547 13.782331466674805 14.525601387023926 15.308082580566406 13.29714298248291 16.091964721679688 C12.334977149963379 16.70592498779297 11.173504829406738 16.546602249145508 10.121187210083008 16.55179214477539 L10.121187210083008 16.55179214477539 C10.121187210083008 15.16804313659668 10.121187210083008 13.784293174743652 10.121187210083008 12.400543212890625 C10.121187210083008 11.016793251037598 10.121187210083008 9.63304328918457 10.121187210083008 8.249295234680176 L10.121187210083008 8.249295234680176"></path></svg>