<svg xmlns="http://www.w3.org/2000/svg" viewBox="0.0 0.0 24.0 24.0" height="200px" width="200px"><path fill="none" stroke="black" stroke-width=".3" stroke-opacity="1.0"  filling="0" d="M14.616349220275879 3.197214126586914 C16.008167266845703 3.557178497314453 17.314960479736328 4.244528770446777 18.58587074279785 4.752451419830322 C18.58587074279785 6.063110828399658 18.58587074279785 7.107110977172852 18.58587074279785 8.151111602783203 C18.415273666381836 8.249382972717285 18.244678497314453 8.348207473754883 18.07408332824707 8.446478843688965 C17.54628562927246 7.944077491760254 16.90475845336914 7.517313003540039 16.512775421142578 6.924921035766602 C15.39148235321045 5.231112003326416 13.794839859008789 4.844097137451172 11.944238662719727 5.084256649017334 C10.058302879333496 5.328279972076416 8.851435661315918 6.554469585418701 8.63888168334961 8.302383422851562 C8.331920623779297 10.823222160339355 8.005084037780762 13.460000038146973 8.419702529907227 15.923973083496094 C9.112022399902344 20.040348052978516 12.104897499084473 21.065576553344727 15.913206100463867 18.727481842041016 C15.913206100463867 17.487489700317383 15.913206100463867 16.15308952331543 15.913206100463867 14.653063774108887 C14.619110107421875 14.584053039550781 13.456962585449219 14.521665573120117 12.304753303527832 14.460384368896484 C12.28211784362793 12.450227737426758 12.813226699829102 12.317726135253906 18.578140258789062 12.861534118652344 C18.578140258789062 15.708658218383789 18.578140258789062 18.578414916992188 18.578140258789062 21.810344696044922 C17.501014709472656 21.575157165527344 16.548107147216797 21.367015838623047 15.212605476379395 21.074960708618164 C11.492629051208496 23.317546844482422 7.720757007598877 21.99750518798828 6.160553455352783 17.375965118408203 C5.101094722747803 14.238442420959473 5.127594470977783 11.022523880004883 6.125219821929932 7.878929138183594 C7.312763214111328 4.137421131134033 10.81135082244873 2.212839126586914 14.616349220275879 3.197214126586914"></path></svg>