<svg xmlns="http://www.w3.org/2000/svg" viewBox="0.0 0.0 24.0 24.0" height="200px" width="200px"><path fill="none" stroke="black" stroke-width=".3" stroke-opacity="1.0"  filling="0" d="M8.185553550720215 3.5955018997192383 C10.416996002197266 3.70467472076416 12.64783763885498 3.8138465881347656 14.879281044006348 3.9230194091796875 C14.94526481628418 4.148563385009766 15.010647773742676 4.374106407165527 15.076631546020508 4.599050998687744 C12.413297653198242 4.849188327789307 11.911222457885742 6.679930210113525 11.619695663452148 8.742814064025879 C11.036642074584961 12.870382308959961 10.385804176330566 16.988353729248047 9.7757568359375 21.029542922973633 C13.813947677612305 22.97965431213379 17.265483856201172 22.004898071289062 20.012798309326172 18.321218490600586 C19.634292602539062 21.89392852783203 18.79270362854004 22.768508911132812 15.63269329071045 22.785903930664062 C12.245938301086426 22.80449867248535 8.859185218811035 22.790103912353516 5.828742504119873 22.790103912353516 C6.510172367095947 21.674381256103516 7.5071234703063965 20.688827514648438 7.736865997314453 19.549114227294922 C8.522069931030273 15.648287773132324 9.027743339538574 11.69107723236084 9.660585403442383 7.759060382843018 C9.910722732543945 6.206648349761963 9.850137710571289 4.809597492218018 7.809447765350342 4.198350429534912 C7.934816837310791 3.9974002838134766 8.060185432434082 3.796450614929199 8.185553550720215 3.5955018997192383"></path></svg>