<svg xmlns="http://www.w3.org/2000/svg" viewBox="0.0 0.0 24.0 24.0" height="200px" width="200px"><path fill="none" stroke="black" stroke-width=".3" stroke-opacity="1.0"  filling="0" d="M18.705312728881836 3.6057424545288086 C18.705312728881836 8.515483856201172 18.91798973083496 13.22502613067627 18.633285522460938 17.90450668334961 C18.431949615478516 21.210372924804688 16.080581665039062 22.806312561035156 12.487741470336914 22.805744171142578 C8.840456008911133 22.804607391357422 6.551474094390869 21.295448303222656 6.328587055206299 17.940237045288086 C6.017794132232666 13.265859603881836 6.250321388244629 8.554616928100586 6.250321388244629 3.707261085510254 C6.892325401306152 3.707261085510254 7.511076927185059 3.707261085510254 8.185407638549805 3.707261085510254 C8.272180557250977 3.9431915283203125 8.446859359741211 4.197837829589844 8.449129104614258 4.454185485839844 C8.491663932800293 8.420204162597656 8.438352584838867 12.389059066772461 8.561422348022461 16.35224151611328 C8.649896621704102 19.2049617767334 10.006498336791992 20.564966201782227 12.429326057434082 20.58311653137207 C14.505630493164062 20.59842872619629 15.549737930297852 19.869653701782227 16.093059539794922 17.791080474853516 C16.35110855102539 16.80425453186035 16.414627075195312 15.747102737426758 16.431642532348633 14.719442367553711 C16.489490509033203 11.226419448852539 16.486087799072266 7.732262134552002 16.510475158691406 4.238672733306885 C16.51104164123535 4.150198459625244 16.555278778076172 4.0617241859436035 16.642051696777344 3.7412891387939453 C17.23471450805664 3.7021570205688477 17.90450668334961 3.657918930053711 18.705312728881836 3.6057424545288086"></path></svg>