<svg xmlns="http://www.w3.org/2000/svg" viewBox="0.0 0.0 24.0 24.0" height="200px" width="200px"><path fill="none" stroke="black" stroke-width=".3" stroke-opacity="1.0"  filling="0" d="M10.122041702270508 5.7350287437438965 C11.624224662780762 5.978675365447998 12.704147338867188 6.154082298278809 13.458444595336914 6.276363849639893 C14.062065124511719 10.124791145324707 14.641412734985352 13.817960739135742 15.301365852355957 18.025447845458984 C16.02910041809082 17.052692413330078 16.416553497314453 16.533798217773438 16.80446434020996 16.015361785888672 C16.935449600219727 16.078105926513672 17.06597328186035 16.13993263244629 17.19649887084961 16.202219009399414 C16.462810516357422 17.720430374145508 15.729121208190918 19.2386417388916 14.995433807373047 20.756855010986328 C14.824148178100586 20.748611450195312 14.653321266174316 20.740367889404297 14.482035636901855 20.73212432861328 C13.200600624084473 17.617841720581055 13.443330764770508 14.127557754516602 12.362492561340332 10.675743103027344 C11.816576957702637 11.57064151763916 11.381036758422852 12.283720016479492 10.945952415466309 12.996798515319824 C10.814053535461426 12.950085639953613 10.681695938110352 12.903829574584961 10.549798011779785 12.857114791870117 C10.954195976257324 11.91825008392334 11.38149356842041 10.989004135131836 11.757955551147461 10.039148330688477 C12.479736328125 8.219125747680664 12.13212776184082 7.128669261932373 10.122041702270508 5.7350287437438965"></path>
<path fill="none" stroke="black" stroke-width=".3" stroke-opacity="1.0"  filling="0" d="M3.0984230041503906 5.852272033691406 C4.248416900634766 5.852272033691406 5.60908317565918 5.852272033691406 6.705950736999512 5.852272033691406 C6.5864176750183105 6.86945104598999 6.277737617492676 7.911361217498779 6.383073329925537 8.909762382507324 C6.62900972366333 11.24364185333252 7.0677571296691895 13.55782699584961 7.443302631378174 15.877508163452148 C7.510626316070557 16.294729232788086 7.649852752685547 16.700044631958008 7.8403730392456055 17.44014549255371 C8.536048889160156 16.41884422302246 9.021967887878418 15.705307006835938 9.508345603942871 14.991769790649414 C9.648946762084961 15.06367301940918 9.790005683898926 15.135576248168945 9.930604934692383 15.207479476928711 C9.01601505279541 17.101238250732422 8.101423263549805 18.9949951171875 7.187290668487549 20.888751983642578 C6.994480133056641 20.869518280029297 6.801669120788574 20.850282669067383 6.608858585357666 20.83104705810547 C6.2887282371521 18.8786678314209 5.977300643920898 16.924915313720703 5.646637439727783 14.974367141723633 C5.2665114402771 12.732084274291992 4.949130058288574 10.474688529968262 4.439395904541016 8.261717796325684 C4.248875141143799 7.434143543243408 3.593502998352051 6.712362766265869 3.0984230041503906 5.852272033691406"></path>
<path fill="none" stroke="black" stroke-width=".3" stroke-opacity="1.0"  filling="0" d="M19.110864639282227 6.307506084442139 C20.32955551147461 6.307506084442139 21.231781005859375 6.307506084442139 22.29888153076172 6.307506084442139 C21.22719955444336 8.287822723388672 20.20819091796875 10.171046257019043 19.189178466796875 12.05427074432373 C19.067813873291016 12.004350662231445 18.94598960876465 11.95443058013916 18.82462501525879 11.904510498046875 C19.43008041381836 10.432554244995117 20.035531997680664 8.961057662963867 20.72525405883789 7.284841060638428 C20.172012329101562 6.9500555992126465 19.767154693603516 6.7050347328186035 19.110864639282227 6.307506084442139"></path></svg>