<svg xmlns="http://www.w3.org/2000/svg" viewBox="0.0 0.0 24.0 24.0" height="200px" width="200px"><path fill="none" stroke="black" stroke-width=".3" stroke-opacity="1.0"  filling="0" d="M9.284428596496582 7.041811943054199 L9.284428596496582 7.041811943054199 C9.723119735717773 7.041811943054199 10.161810874938965 7.041811943054199 10.600502014160156 7.041811943054199 L10.600502014160156 7.041811943054199 C10.600502014160156 8.114335060119629 10.600502014160156 9.186859130859375 10.600502014160156 10.259382247924805 L10.600502014160156 10.259382247924805 C11.812738418579102 10.505938529968262 12.760335922241211 9.39822769165039 13.984599113464355 10.141668319702148 C14.95478343963623 10.730817794799805 15.235462188720703 12.173646926879883 15.271865844726562 13.701416015625 C15.308269500732422 15.229186058044434 15.100399017333984 16.841896057128906 15.093482971191406 17.77081298828125 L15.093482971191406 17.77081298828125 C14.626392364501953 17.794479370117188 14.159300804138184 17.818145751953125 13.69221019744873 17.841812133789062 L13.69221019744873 17.841812133789062 C13.702333450317383 16.203685760498047 13.988720893859863 14.194686889648438 13.67542839050293 12.58171272277832 C13.580989837646484 12.095501899719238 13.512083053588867 11.497822761535645 13.111021995544434 11.207185745239258 C11.947760581970215 10.364206314086914 10.901991844177246 11.558629989624023 10.605020523071289 12.498772621154785 C10.167525291442871 13.883781433105469 10.610507011413574 16.332263946533203 10.610507011413574 17.81147575378418 L10.610507011413574 17.81147575378418 C10.16848087310791 17.81147575378418 9.726454734802246 17.81147575378418 9.284428596496582 17.81147575378418 L9.284428596496582 17.81147575378418 C9.284428596496582 16.01653289794922 9.284428596496582 14.221588134765625 9.284428596496582 12.426643371582031 C9.284428596496582 10.631699562072754 9.284428596496582 8.836755752563477 9.284428596496582 7.041811943054199 L9.284428596496582 7.041811943054199"></path></svg>