<svg xmlns="http://www.w3.org/2000/svg" viewBox="0.0 0.0 24.0 24.0" height="200px" width="200px"><path fill="none" stroke="black" stroke-width=".3" stroke-opacity="1.0"  filling="0" d="M13.589885711669922 10.869037628173828 L13.589885711669922 10.869037628173828 C13.729390144348145 10.938875198364258 13.86889362335205 11.008713722229004 14.008398056030273 11.078551292419434 L14.008398056030273 11.078551292419434 C13.770073890686035 12.469478607177734 13.531736373901367 13.860404014587402 13.2933931350708 15.251328468322754 C13.055048942565918 16.642253875732422 12.816699981689453 18.03317642211914 12.578351020812988 19.42409896850586 L12.578351020812988 19.42409896850586 C13.020544052124023 19.344995498657227 13.462736129760742 19.26589012145996 13.904929161071777 19.186786651611328 L13.904929161071777 19.186786651611328 C13.979228019714355 19.27429962158203 14.05352783203125 19.3618106842041 14.127826690673828 19.449323654174805 L14.127826690673828 19.449323654174805 C13.99997615814209 19.557506561279297 11.553433418273926 21.62773323059082 11.504014015197754 21.669551849365234 L11.504014015197754 21.669551849365234 C11.120668411254883 20.107494354248047 11.289894104003906 18.65199851989746 11.446020126342773 17.198923110961914 C11.60214614868164 15.745849609375 11.745172500610352 14.295196533203125 11.309428215026855 12.74282169342041 L11.309428215026855 12.74282169342041 C11.43580150604248 12.63897705078125 13.551847457885742 10.900290489196777 13.589885711669922 10.869037628173828 L13.589885711669922 10.869037628173828"></path></svg>