<svg xmlns="http://www.w3.org/2000/svg" viewBox="0.0 0.0 24.0 24.0" height="200px" width="200px"><path fill="none" stroke="black" stroke-width=".3" stroke-opacity="1.0"  filling="0" d="M14.107816696166992 7.031052112579346 C14.26286792755127 7.09321928024292 14.41791820526123 7.155385971069336 14.572237968444824 7.216821193695068 C14.37330436706543 8.301446914672852 14.173640251159668 9.386804580688477 13.925704956054688 10.73253059387207 C14.801889419555664 11.08724594116211 15.668566703796387 11.438304901123047 17.289287567138672 12.095077514648438 C15.54130744934082 12.615815162658691 14.583940505981445 12.901050567626953 13.157032012939453 13.326709747314453 C12.746731758117676 16.397014617919922 12.310833930969238 19.658205032348633 11.80399227142334 23.453296661376953 C13.41374397277832 23.091999053955078 14.265793800354004 22.901111602783203 15.117112159729004 22.709491729736328 C15.206338882446289 22.86527442932129 15.295567512512207 23.02105712890625 15.384794235229492 23.177570343017578 C13.816731452941895 24.146638870239258 12.249399185180664 25.115707397460938 10.443639755249023 26.23178482055664 C8.242206573486328 21.17141342163086 11.896876335144043 16.702726364135742 10.275423049926758 12.573395729064941 C11.580923080444336 10.684991836547852 12.844736099243164 8.85802173614502 14.107816696166992 7.031052112579346"></path></svg>