<svg xmlns="http://www.w3.org/2000/svg" viewBox="0.0 0.0 24.0 24.0" height="200px" width="200px"><path fill="none" stroke="black" stroke-width=".3" stroke-opacity="1.0"  filling="0" d="M2.6842517852783203 8.342390060424805 C3.838353157043457 8.342390060424805 4.551199913024902 8.342390060424805 5.575520038604736 8.342390060424805 C6.449168682098389 12.168082237243652 7.3297810554504395 16.023529052734375 8.210392951965332 19.879610061645508 C8.351569175720215 19.89480209350586 8.492112159729004 19.909366607666016 8.633289337158203 19.924556732177734 C9.47211742401123 16.122920989990234 10.310314178466797 12.320653915405273 11.137746810913086 8.568398475646973 C12.779319763183594 7.900500297546387 13.523819923400879 8.310735702514648 13.847955703735352 10.02511215209961 C14.463308334350586 13.281034469604492 15.297706604003906 16.495805740356445 16.553733825683594 19.778316497802734 C17.37166976928711 16.0653133392334 18.188974380493164 12.352941513061523 19.049327850341797 8.447480201721191 C19.943233489990234 8.447480201721191 20.820049285888672 8.447480201721191 21.8848876953125 8.447480201721191 C20.479454040527344 13.009443283081055 19.074016571044922 17.4017391204834 17.79520034790039 21.830123901367188 C17.432445526123047 23.086151123046875 16.885465621948242 23.659088134765625 15.126142501831055 23.221630096435547 C14.293643951416016 19.639039993286133 13.407334327697754 15.822842597961426 12.353891372680664 11.29000186920166 C11.309946060180664 15.726613998413086 10.438196182250977 19.430124282836914 9.584174156188965 23.057662963867188 C8.123661994934082 23.712900161743164 7.287998676300049 23.448272705078125 6.8435773849487305 21.9478759765625 C5.532471179962158 17.51885986328125 4.147928714752197 13.1120023727417 2.6842517852783203 8.342390060424805"></path></svg>