<svg xmlns="http://www.w3.org/2000/svg" viewBox="0.0 0.0 24.0 24.0" height="200px" width="200px"><path fill="none" stroke="black" stroke-width=".3" stroke-opacity="1.0"  filling="0" d="M13.631443977355957 7.3451948165893555 L13.631443977355957 7.3451948165893555 C14.04996395111084 7.543078422546387 14.468482971191406 7.740962505340576 14.887002944946289 7.938846111297607 L14.887002944946289 7.938846111297607 C14.502089500427246 8.197785377502441 14.19589614868164 8.699776649475098 13.732263565063477 8.71566390991211 C13.378006935119629 8.727803230285645 13.204574584960938 8.242246627807617 12.940730094909668 8.005537986755371 L12.940730094909668 8.005537986755371 C13.170968055725098 7.785423755645752 13.401206016540527 7.565309047698975 13.631443977355957 7.3451948165893555 L13.631443977355957 7.3451948165893555"></path>
<path fill="none" stroke="black" stroke-width=".3" stroke-opacity="1.0"  filling="0" d="M13.765767097473145 10.973478317260742 L13.765767097473145 10.973478317260742 C13.413985252380371 13.134668350219727 12.577208518981934 15.110512733459473 12.11162281036377 17.247203826904297 L12.11162281036377 17.247203826904297 C12.61572551727295 16.90643882751465 13.119827270507812 16.565673828125 13.623929977416992 16.22490882873535 L13.623929977416992 16.22490882873535 C13.03339958190918 17.122507095336914 12.041568756103516 17.77075958251953 11.033907890319824 18.143627166748047 L11.033907890319824 18.143627166748047 C11.295856475830078 16.014326095581055 12.105170249938965 14.090532302856445 12.590049743652344 12.00641918182373 L12.590049743652344 12.00641918182373 C12.077284812927246 12.404065132141113 11.564520835876465 12.80171012878418 11.051755905151367 13.199356079101562 L11.051755905151367 13.199356079101562 C11.71394157409668 12.234761238098145 12.700908660888672 11.458253860473633 13.765767097473145 10.973478317260742 L13.765767097473145 10.973478317260742"></path></svg>