<svg xmlns="http://www.w3.org/2000/svg" viewBox="0.0 0.0 24.0 24.0" height="200px" width="200px"><path fill="none" stroke="black" stroke-width=".3" stroke-opacity="1.0"  filling="0" d="M9.360879898071289 7.218743324279785 C12.594390869140625 9.741711616516113 11.243734359741211 13.393255233764648 12.405253410339355 16.397302627563477 C14.653318405151367 13.894213676452637 14.16712760925293 10.427831649780273 15.369542121887207 7.647568702697754 C15.632516860961914 7.686191558837891 15.895492553710938 7.724813938140869 16.158466339111328 7.764004707336426 C16.158466339111328 8.502379417419434 16.383386611938477 9.333902359008789 16.122116088867188 9.963791847229004 C14.24323844909668 14.492864608764648 12.344480514526367 19.017963409423828 10.27987289428711 23.464107513427734 C9.496628761291504 25.15157699584961 7.925595283508301 26.180191040039062 6.016046524047852 26.409088134765625 C5.458290100097656 26.47610855102539 4.857367038726807 26.188142776489258 4.2763237953186035 26.063186645507812 C4.255876064300537 25.868370056152344 4.235428333282471 25.672985076904297 4.2149810791015625 25.478168487548828 C4.9402923583984375 25.23223304748535 5.662762641906738 24.97607421875 6.3920488357543945 24.743202209472656 C9.655662536621094 23.69982147216797 10.973944664001465 21.62499237060547 10.600781440734863 18.205183029174805 C10.375861167907715 16.143415451049805 10.287824630737305 14.065176010131836 10.00610637664795 12.012495994567871 C9.88683032989502 11.143486022949219 9.427334785461426 10.32048225402832 9.03201961517334 9.227121353149414 C8.135746955871582 9.781469345092773 7.743841171264648 10.02399730682373 7.351366996765137 10.265955924987793 C7.246858596801758 10.177919387817383 7.141781806945801 10.089882850646973 7.03727388381958 10.001277923583984 C7.756904602050781 9.139652252197266 8.47653579711914 8.278026580810547 9.360879898071289 7.218743324279785"></path></svg>