<svg xmlns="http://www.w3.org/2000/svg" viewBox="0.0 0.0 24.0 24.0" height="200px" width="200px"><path fill="none" stroke="black" stroke-width=".3" stroke-opacity="1.0"  filling="0" d="M16.91954231262207 10.789024353027344 L16.91954231262207 10.789024353027344 C17.030677795410156 10.963691711425781 17.141815185546875 11.138359069824219 17.25295066833496 11.313026428222656 L17.25295066833496 11.313026428222656 C16.209426879882812 12.438658714294434 15.165903091430664 13.564291000366211 14.122380256652832 14.689923286437988 L14.122380256652832 14.689923286437988 C13.970935821533203 14.579283714294434 13.819490432739258 14.468645095825195 13.668045997619629 14.35800552368164 L13.668045997619629 14.35800552368164 C14.094265937805176 13.764942169189453 14.520584106445312 13.17194938659668 14.94694709777832 12.578989028930664 L14.94694709777832 12.578989028930664 C12.450505256652832 12.433152198791504 11.332185745239258 11.696736335754395 9.206321716308594 13.32791805267334 L9.206321716308594 13.32791805267334 C9.557609558105469 12.671713829040527 9.779511451721191 11.927600860595703 10.260185241699219 11.359305381774902 C11.45315933227539 9.948866844177246 13.087420463562012 11.14566707611084 14.449467658996582 11.41821002960205 C15.282602310180664 11.584918975830078 16.18643569946289 11.218513488769531 16.91954231262207 10.789024353027344 L16.91954231262207 10.789024353027344"></path>
<path fill="none" stroke="black" stroke-width=".3" stroke-opacity="1.0"  filling="0" d="M12.715587615966797 15.762310028076172 L12.715587615966797 15.762310028076172 C12.045635223388672 16.63848114013672 11.375662803649902 17.51463508605957 10.705672264099121 18.390775680541992 L10.705672264099121 18.390775680541992 C12.71245288848877 19.229496002197266 13.864635467529297 19.892070770263672 16.065614700317383 19.85280418395996 L16.065614700317383 19.85280418395996 C15.490293502807617 20.43756675720215 14.765997886657715 21.680326461791992 13.656472206115723 21.445432662963867 C12.561548233032227 21.2136287689209 11.127275466918945 19.40056037902832 9.908105850219727 19.677085876464844 C9.41942310333252 19.787925720214844 9.075655937194824 20.23512840270996 8.659430503845215 20.514150619506836 L8.659430503845215 20.514150619506836 C9.458291053771973 18.15853500366211 10.712697982788086 17.15694808959961 12.715587615966797 15.762310028076172 L12.715587615966797 15.762310028076172"></path></svg>