<svg xmlns="http://www.w3.org/2000/svg" viewBox="0.0 0.0 24.0 24.0" height="200px" width="200px"><path fill="none" stroke="black" stroke-width=".3" stroke-opacity="1.0"  filling="0" d="M13.94603157043457 7.387718677520752 L13.94603157043457 7.387718677520752 C15.187199592590332 8.396757125854492 15.782965660095215 10.207229614257812 15.770393371582031 12.054726600646973 C15.757820129394531 13.902223587036133 15.136908531188965 15.78674602508545 13.944721221923828 16.943883895874023 C12.741975784301758 18.111268997192383 10.864441871643066 18.605117797851562 9.734243392944336 16.97018051147461 C9.217830657958984 16.223140716552734 9.214653015136719 14.80315113067627 9.148942947387695 13.952913284301758 L9.148942947387695 13.952913284301758 C9.09411334991455 13.938058853149414 9.039283752441406 13.92320442199707 8.984454154968262 13.908349990844727 L8.984454154968262 13.908349990844727 C9.34708023071289 12.358312606811523 9.629409790039062 10.74638843536377 10.300115585327148 9.512856483459473 C10.970821380615234 8.279325485229492 12.029902458190918 7.424186706542969 13.94603157043457 7.387718677520752 L13.94603157043457 7.387718677520752"></path>
<path fill="none" stroke="black" stroke-width=".3" stroke-opacity="1.0"  filling="0" d="M13.125874519348145 7.861529350280762 L13.125874519348145 7.861529350280762 C14.06397819519043 8.998249053955078 14.463216781616211 10.130581855773926 14.522966384887695 11.331559181213379 C14.58271598815918 12.532537460327148 14.302974700927734 13.802160263061523 13.883119583129883 15.213459014892578 C13.685893058776855 15.876413345336914 13.083734512329102 17.5716609954834 11.944295883178711 17.42424774169922 C10.685585021972656 17.261404037475586 10.51320743560791 15.786498069763184 10.42878246307373 14.918392181396484 C10.326574325561523 13.867427825927734 10.385494232177734 12.184885025024414 10.777642250061035 10.72424602508545 C11.169791221618652 9.263607025146484 11.89516830444336 8.024873733520508 13.125874519348145 7.861529350280762 L13.125874519348145 7.861529350280762"></path></svg>