<svg xmlns="http://www.w3.org/2000/svg" viewBox="0.0 0.0 24.0 24.0" height="200px" width="200px"><path fill="none" stroke="black" stroke-width=".3" stroke-opacity="1.0"  filling="0" d="M14.059008598327637 7.445542812347412 L14.059008598327637 7.445542812347412 C14.500423431396484 7.844141483306885 15.083393096923828 8.12771224975586 15.38325309753418 8.641338348388672 C16.68096351623535 10.864165306091309 16.125900268554688 13.069337844848633 14.763055801391602 14.794278144836426 C13.4002103805542 16.51921844482422 11.229583740234375 17.763927459716797 9.296165466308594 18.06583023071289 L9.296165466308594 18.06583023071289 C10.648119926452637 17.411701202392578 11.655981063842773 16.806251525878906 12.451412200927734 16.006357192993164 C13.246843338012695 15.206459999084473 13.829843521118164 14.212116241455078 14.332076072692871 12.780192375183105 L14.332076072692871 12.780192375183105 C14.011330604553223 12.848209381103516 13.690584182739258 12.91622543334961 13.36983871459961 12.98424243927002 L13.36983871459961 12.98424243927002 C14.060295104980469 11.80500316619873 15.853890419006348 8.129456520080566 12.97890853881836 7.87864875793457 C11.02181625366211 7.707915782928467 10.45145320892334 10.553120613098145 10.949907302856445 11.901975631713867 C11.446831703186035 13.246692657470703 12.38636589050293 12.920530319213867 13.43018627166748 12.926562309265137 L13.43018627166748 12.926562309265137 C13.00917911529541 13.222232818603516 12.667530059814453 13.693975448608398 12.167165756225586 13.813572883605957 C8.905858039855957 14.59309196472168 9.279940605163574 9.929753303527832 10.779532432556152 8.49046802520752 C11.607275009155273 7.696013450622559 12.911710739135742 7.440860748291016 14.059008598327637 7.445542812347412 L14.059008598327637 7.445542812347412"></path></svg>