<svg xmlns="http://www.w3.org/2000/svg" viewBox="0.0 0.0 24.0 24.0" height="200px" width="200px"><path fill="none" stroke="black" stroke-width=".3" stroke-opacity="1.0"  filling="0" d="M9.220171928405762 3.179901123046875 C11.645552635192871 3.179901123046875 14.07093334197998 3.179901123046875 16.49690055847168 3.179901123046875 C16.5321102142334 3.2913990020751953 16.56732177734375 3.402310371398926 16.60253143310547 3.5138092041015625 C15.851385116577148 3.8013572692871094 15.100238800048828 4.088905334472656 14.031615257263184 4.497341156005859 C14.031615257263184 9.760058403015137 14.031615257263184 15.181808471679688 14.031615257263184 20.805429458618164 C14.683000564575195 21.08945655822754 15.41712760925293 21.40928077697754 16.067338943481445 21.692720413208008 C16.07790184020996 22.69738006591797 10.576342582702637 22.537172317504883 8.809976577758789 21.624061584472656 C9.650907516479492 21.377002716064453 10.380928039550781 21.16222381591797 11.35154914855957 20.877609252929688 C11.35154914855957 15.475224494934082 11.35154914855957 10.058755874633789 11.35154914855957 4.542526721954346 C10.580451011657715 4.215661525726318 9.84808349609375 3.905226707458496 9.116302490234375 3.594792366027832 C9.15092658996582 3.4562997817993164 9.185548782348633 3.3183937072753906 9.220171928405762 3.179901123046875"></path></svg>