<svg xmlns="http://www.w3.org/2000/svg" viewBox="0.0 0.0 24.0 24.0" height="200px" width="200px"><path fill="none" stroke="black" stroke-width=".3" stroke-opacity="1.0"  filling="0" d="M10.436347007751465 7.038694381713867 L10.436347007751465 7.038694381713867 C11.80073356628418 7.038694381713867 13.165121078491211 7.038694381713867 14.52950668334961 7.038694381713867 L14.52950668334961 7.038694381713867 C14.549312591552734 7.101302146911621 14.56911849975586 7.163909912109375 14.588924407958984 7.226517677307129 L14.588924407958984 7.226517677307129 C14.106877326965332 7.410930156707764 13.624831199645996 7.59534215927124 13.142784118652344 7.779754638671875 L13.142784118652344 7.779754638671875 C13.142784118652344 9.308637619018555 13.142784118652344 10.83752155303955 13.142784118652344 12.36640453338623 C13.142784118652344 13.895288467407227 13.142784118652344 15.424171447753906 13.142784118652344 16.953054428100586 L13.142784118652344 16.953054428100586 C13.524481773376465 17.119421005249023 13.906180381774902 17.28578758239746 14.287878036499023 17.4521541595459 L14.287878036499023 17.4521541595459 C12.857579231262207 18.0607967376709 11.673116683959961 17.76922035217285 10.205612182617188 17.41353416442871 L10.205612182617188 17.41353416442871 C10.682156562805176 17.273574829101562 11.15870189666748 17.133615493774414 11.635246276855469 16.993656158447266 L11.635246276855469 16.993656158447266 C11.635246276855469 15.462242126464844 11.635246276855469 13.930828094482422 11.635246276855469 12.3994140625 C11.635246276855469 10.868000030517578 11.635246276855469 9.336585998535156 11.635246276855469 7.805171489715576 L11.635246276855469 7.805171489715576 C11.216137886047363 7.627471446990967 10.797028541564941 7.449770927429199 10.377920150756836 7.27207088470459 L10.377920150756836 7.27207088470459 C10.397396087646484 7.194278717041016 10.416871070861816 7.116486549377441 10.436347007751465 7.038694381713867 L10.436347007751465 7.038694381713867"></path></svg>