<svg xmlns="http://www.w3.org/2000/svg" viewBox="0.0 0.0 24.0 24.0" height="200px" width="200px"><path fill="none" stroke="black" stroke-width=".3" stroke-opacity="1.0"  filling="0" d="M7.630028247833252 7.498980522155762 L7.630028247833252 7.498980522155762 C8.670681953430176 7.498980522155762 9.711335182189941 7.498980522155762 10.751988410949707 7.498980522155762 L10.751988410949707 7.498980522155762 C9.566566467285156 9.272473335266113 9.721647262573242 10.154582977294922 9.725180625915527 12.240522384643555 L9.725180625915527 12.240522384643555 C9.837875366210938 12.304704666137695 9.950569152832031 12.36888599395752 10.063263893127441 12.43306827545166 L10.063263893127441 12.43306827545166 C11.609498023986816 11.052352905273438 13.155806541442871 9.67171859741211 14.702092170715332 8.291061401367188 L14.702092170715332 8.291061401367188 C14.2959623336792 8.040664672851562 13.889833450317383 7.790268421173096 13.48370361328125 7.539871692657471 L13.48370361328125 7.539871692657471 C14.665708541870117 7.539871692657471 15.847713470458984 7.539871692657471 17.02971839904785 7.539871692657471 L17.02971839904785 7.539871692657471 C16.01808738708496 8.295019149780273 15.006446838378906 9.050155639648438 13.994819641113281 9.80530834197998 C12.98319149017334 10.560460090637207 11.971574783325195 11.315627098083496 10.959989547729492 12.070836067199707 L10.959989547729492 12.070836067199707 C12.104129791259766 13.136099815368652 13.23725414276123 14.17728328704834 14.410523414611816 15.169024467468262 C15.583791732788086 16.160764694213867 16.79720687866211 17.103063583374023 18.101926803588867 17.970556259155273 L18.101926803588867 17.970556259155273 C17.079519271850586 17.970556259155273 16.057109832763672 17.970556259155273 15.03470230102539 17.970556259155273 L15.03470230102539 17.970556259155273 C13.69524097442627 15.887446403503418 11.92322063446045 14.611534118652344 10.128626823425293 12.943737030029297 L10.128626823425293 12.943737030029297 C10.029455184936523 13.011890411376953 9.93028450012207 13.08004379272461 9.8311128616333 13.148197174072266 L9.8311128616333 13.148197174072266 C9.8311128616333 14.476167678833008 9.8311128616333 15.804139137268066 9.8311128616333 17.132110595703125 L9.8311128616333 17.132110595703125 C10.239174842834473 17.31746482849121 10.647235870361328 17.50282096862793 11.0552978515625 17.688175201416016 L11.0552978515625 17.688175201416016 C11.031471252441406 17.76641845703125 11.007643699645996 17.84465980529785 10.983817100524902 17.922903060913086 L10.983817100524902 17.922903060913086 C9.75652027130127 17.922903060913086 8.52922248840332 17.922903060913086 7.3019256591796875 17.922903060913086 L7.3019256591796875 17.922903060913086 C7.710309028625488 17.655977249145508 8.118692398071289 17.389053344726562 8.52707576751709 17.122127532958984 L8.52707576751709 17.122127532958984 C8.530919075012207 15.546310424804688 8.692980766296387 13.83779239654541 8.660920143127441 12.174593925476074 C8.62885856628418 10.511396408081055 8.40267562866211 8.893518447875977 7.630028247833252 7.498980522155762 L7.630028247833252 7.498980522155762"></path></svg>