<svg xmlns="http://www.w3.org/2000/svg" viewBox="0.0 0.0 24.0 24.0" height="200px" width="200px"><path fill="none" stroke="black" stroke-width=".3" stroke-opacity="1.0"  filling="0" d="M11.4008150100708 7.097676753997803 L11.4008150100708 7.097676753997803 C12.875459671020508 7.305899620056152 14.34160327911377 8.01891803741455 15.176162719726562 9.088152885437012 C16.010723114013672 10.157387733459473 16.213699340820312 11.58283805847168 15.162012100219727 13.215924263000488 C14.47114086151123 14.288725852966309 13.721963882446289 14.580706596374512 12.710074424743652 15.151192665100098 L12.710074424743652 15.151192665100098 C13.878021240234375 17.19659423828125 14.807061195373535 17.182764053344727 17.139135360717773 17.488277435302734 L17.139135360717773 17.488277435302734 C14.039701461791992 18.152997970581055 13.474859237670898 17.209999084472656 11.164544105529785 15.495796203613281 C10.108951568603516 14.712570190429688 9.489474296569824 14.915841102600098 8.47613525390625 13.899601936340332 C6.634401798248291 12.052597999572754 7.374111652374268 8.925092697143555 9.533174514770508 7.6764960289001465 C10.097381591796875 7.350212574005127 10.778267860412598 7.290616512298584 11.4008150100708 7.097676753997803 L11.4008150100708 7.097676753997803"></path>
<path fill="none" stroke="black" stroke-width=".3" stroke-opacity="1.0"  filling="0" d="M11.271163940429688 7.400997638702393 L11.271163940429688 7.400997638702393 C12.764047622680664 7.901327610015869 13.533880233764648 7.829597473144531 14.324898719787598 9.38473892211914 C15.342754364013672 11.385841369628906 14.4149169921875 14.82829475402832 11.719049453735352 14.84618854522705 C9.05299186706543 14.863884925842285 7.911500453948975 11.613032341003418 8.778030395507812 9.504145622253418 C9.344217300415039 8.12620735168457 10.005499839782715 8.083756446838379 11.271163940429688 7.400997638702393 L11.271163940429688 7.400997638702393"></path></svg>