<svg xmlns="http://www.w3.org/2000/svg" viewBox="0.0 0.0 24.0 24.0" height="200px" width="200px"><path fill="none" stroke="black" stroke-width=".3" stroke-opacity="1.0"  filling="0" d="M3.920055389404297 3.5619421005249023 C9.673263549804688 4.581779479980469 15.3054838180542 4.029913902282715 21.1585636138916 4.042469501495361 C20.971376419067383 4.951021671295166 20.72140884399414 6.1666083335876465 20.386981964111328 7.789673805236816 C19.175960540771484 4.993823051452637 18.060815811157227 4.682222843170166 13.45185661315918 5.511446475982666 C13.45185661315918 10.755592346191406 13.45185661315918 16.024276733398438 13.45185661315918 21.28839874267578 C14.54816722869873 21.72555160522461 15.366548538208008 22.051422119140625 16.18436050415039 22.37786102294922 C16.148975372314453 22.506267547607422 16.11359214782715 22.634105682373047 16.077638626098633 22.76251220703125 C13.540315628051758 22.76251220703125 11.00299072265625 22.76251220703125 8.46623706817627 22.76251220703125 C8.434277534484863 22.631820678710938 8.402889251708984 22.50170135498047 8.371500968933105 22.37158203125 C9.089439392089844 22.0765323638916 9.807377815246582 21.78205108642578 10.858033180236816 21.350601196289062 C10.858033180236816 16.188068389892578 10.858033180236816 10.912531852722168 10.858033180236816 5.2951507568359375 C8.124959945678711 5.371054649353027 5.125370025634766 4.140058994293213 3.0948257446289062 7.46837043762207 C2.9384546279907227 7.366215229034424 2.7826528549194336 7.264631748199463 2.6262826919555664 7.162476539611816 C3.077704429626465 5.90579891204834 3.5291261672973633 4.648550987243652 3.920055389404297 3.5619421005249023"></path></svg>