<svg xmlns="http://www.w3.org/2000/svg" viewBox="0.0 0.0 24.0 24.0" height="200px" width="200px"><path fill="none" stroke="black" stroke-width=".3" stroke-opacity="1.0"  filling="0" d="M15.98400592803955 3.17423152923584 C18.036579132080078 3.17423152923584 19.79000473022461 3.17423152923584 21.54283905029297 3.17423152923584 C17.958980560302734 5.385560512542725 15.91351318359375 8.851536750793457 13.183266639709473 12.008293151855469 C15.956756591796875 15.540616035461426 17.652130126953125 19.754165649414062 21.772083282470703 22.363571166992188 C19.590967178344727 22.363571166992188 17.41044044494629 22.363571166992188 14.643464088439941 22.363571166992188 C15.553942680358887 21.71373748779297 16.03791046142578 21.368385314941406 16.821027755737305 20.80918312072754 C15.188447952270508 18.5960750579834 13.52684211730957 16.343280792236328 11.632431983947754 13.77534294128418 C9.742761611938477 16.23309898376465 8.083523750305176 18.391115188598633 6.27026891708374 20.748760223388672 C7.028506278991699 21.26116371154785 7.586522102355957 21.638504028320312 8.675304412841797 22.37482452392578 C6.227026462554932 22.37482452392578 4.443389892578125 22.37482452392578 2.6022939682006836 22.37482452392578 C5.369270324707031 19.32291603088379 8.08767032623291 16.32373046875 11.005108833312988 13.10595989227295 C8.396297454833984 9.732396125793457 6.839540481567383 5.771195888519287 2.6402063369750977 3.263087272644043 C5.111588001251221 3.263087272644043 7.154682636260986 3.263087272644043 9.70248031616211 3.263087272644043 C8.847685813903809 3.7725276947021484 8.34476089477539 4.072269439697266 7.549796104431152 4.546167850494385 C9.088190078735352 6.681673526763916 10.60999584197998 8.79526138305664 12.387707710266113 11.263680458068848 C14.156534194946289 9.025102615356445 15.714475631713867 7.053684711456299 17.36482810974121 4.964975833892822 C16.925878524780273 4.395704746246338 16.552684783935547 3.911736488342285 15.98400592803955 3.17423152923584"></path></svg>