<svg xmlns="http://www.w3.org/2000/svg" viewBox="0.0 0.0 24.0 24.0" height="200px" width="200px"><path fill="none" stroke="black" stroke-width=".3" stroke-opacity="1.0"  filling="0" d="M11.742602348327637 9.309951782226562 L11.742602348327637 9.309951782226562 C13.527656555175781 9.318020820617676 16.279966354370117 9.10267162322998 16.910480499267578 11.360739707946777 C17.080812454223633 11.97075366973877 16.99471092224121 12.624631881713867 17.03682518005371 13.25657844543457 L17.03682518005371 13.25657844543457 C16.102645874023438 13.25657844543457 15.16846752166748 13.25657844543457 14.234289169311523 13.25657844543457 L14.234289169311523 13.25657844543457 C14.273648262023926 13.13283634185791 14.313007354736328 13.00909423828125 14.35236644744873 12.88535213470459 L14.35236644744873 12.88535213470459 C14.152566909790039 12.800280570983887 12.239121437072754 11.957891464233398 11.998882293701172 11.965785026550293 C11.093062400817871 11.995548248291016 10.670156478881836 13.781824111938477 10.830144882202148 15.307456016540527 C10.990134239196777 16.833087921142578 11.733017921447754 18.09807586669922 13.158778190612793 17.085262298583984 C13.629756927490234 16.750694274902344 13.922002792358398 16.21778678894043 14.30361557006836 15.784048080444336 L14.30361557006836 15.784048080444336 C15.217816352844238 15.784048080444336 16.132017135620117 15.784048080444336 17.046218872070312 15.784048080444336 L17.046218872070312 15.784048080444336 C17.085723876953125 16.8713321685791 17.34026527404785 17.844608306884766 16.662189483642578 18.807416915893555 C15.945795059204102 19.824634552001953 14.340311050415039 20.267148971557617 12.70937442779541 20.255807876586914 C11.078436851501465 20.244464874267578 9.422046661376953 19.77927017211914 8.603838920593262 18.981067657470703 C7.7066755294799805 18.1058406829834 7.230835914611816 16.37459373474121 7.206975936889648 14.641353607177734 C7.1831159591674805 12.908112525939941 7.611235618591309 11.17287826538086 8.521990776062012 10.28967571258545 C9.438385963439941 9.401004791259766 10.574319839477539 9.475067138671875 11.742602348327637 9.309951782226562 L11.742602348327637 9.309951782226562"></path></svg>