<svg xmlns="http://www.w3.org/2000/svg" viewBox="0.0 0.0 24.0 24.0" height="200px" width="200px"><path fill="none" stroke="black" stroke-width=".3" stroke-opacity="1.0"  filling="0" d="M6.381298065185547 3.157777786254883 C7.745060443878174 3.157777786254883 8.985491752624512 3.157777786254883 10.647503852844238 3.157777786254883 C10.647503852844238 6.688736915588379 10.647503852844238 10.235113143920898 10.647503852844238 13.781488418579102 C10.906025886535645 13.849676132202148 11.165140151977539 13.917864799499512 11.423662185668945 13.986052513122559 C12.355172157287598 12.338272094726562 13.287273406982422 10.69049072265625 14.23538589477539 9.013655662536621 C15.763392448425293 9.013655662536621 17.217876434326172 9.013655662536621 19.096309661865234 9.013655662536621 C17.76871681213379 11.272757530212402 16.590543746948242 13.27867603302002 15.32105827331543 15.439349174499512 C16.762496948242188 17.629077911376953 18.210458755493164 19.828886032104492 19.85645866394043 22.329315185546875 C18.081789016723633 22.329315185546875 16.594100952148438 22.329315185546875 14.7708101272583 22.329315185546875 C13.663789749145508 20.612754821777344 12.530681610107422 18.856464385986328 11.398164749145508 17.100175857543945 C11.188264846801758 17.176664352416992 10.978364944458008 17.253154754638672 10.768463134765625 17.330236434936523 C10.697310447692871 18.9400691986084 10.626749992370605 20.550495147705078 10.546704292297363 22.357776641845703 C9.187685012817383 22.357776641845703 7.872542858123779 22.357776641845703 6.381298065185547 22.357776641845703 C6.381298065185547 16.01272201538086 6.381298065185547 9.66707706451416 6.381298065185547 3.157777786254883"></path></svg>