<svg xmlns="http://www.w3.org/2000/svg" viewBox="0.0 0.0 24.0 24.0" height="200px" width="200px"><path fill="none" stroke="black" stroke-width=".3" stroke-opacity="1.0"  filling="0" d="M14.181700706481934 5.900795936584473 C17.411752700805664 5.542473316192627 19.460369110107422 7.346677780151367 19.696199417114258 10.60134220123291 C19.798660278320312 12.018603324890137 19.804956436157227 13.45647144317627 19.692764282226562 14.872588157653809 C19.372220993041992 18.91373062133789 16.041427612304688 20.798641204833984 12.350022315979004 19.064844131469727 C11.85604190826416 18.833019256591797 11.429603576660156 18.45867156982422 10.631678581237793 17.92061424255371 C10.631678581237793 20.451194763183594 10.631678581237793 22.67496681213379 10.631678581237793 25.056148529052734 C9.164618492126465 25.056148529052734 7.978033542633057 25.056148529052734 6.5321526527404785 25.056148529052734 C6.5321526527404785 18.889690399169922 6.5321526527404785 12.793632507324219 6.5321526527404785 6.486361026763916 C7.997495651245117 6.625453948974609 9.488595962524414 5.717628002166748 10.67518138885498 7.1085591316223145 C11.803953170776367 6.7038726806640625 12.963062286376953 6.035881996154785 14.181700706481934 5.900795936584473"></path>
<path fill="none" stroke="black" stroke-width=".3" stroke-opacity="1.0"  filling="0" d="M11.727823257446289 8.955120086669922 C12.889223098754883 9.324317932128906 14.766120910644531 9.49775505065918 14.876594543457031 10.034092903137207 C15.23663330078125 11.784490585327148 15.061479568481445 13.682568550109863 14.81134033203125 15.484481811523438 C14.767838478088379 15.796440124511719 13.322529792785645 16.15132713317871 12.584134101867676 16.051158905029297 C12.010589599609375 15.973312377929688 11.234415054321289 15.307039260864258 11.062695503234863 14.744942665100098 C10.536087989807129 13.020303726196289 10.47541332244873 11.239567756652832 11.727823257446289 8.955120086669922"></path></svg>