<svg xmlns="http://www.w3.org/2000/svg" viewBox="0.0 0.0 24.0 24.0" height="200px" width="200px"><path fill="none" stroke="black" stroke-width=".3" stroke-opacity="1.0"  filling="0" d="M8.93761157989502 7.341264247894287 C11.55887222290039 7.1603498458862305 14.242297172546387 7.271927356719971 16.847620010375977 7.6257853507995605 C19.401935577392578 7.972470760345459 20.796646118164062 9.598306655883789 20.438804626464844 12.532779693603516 C18.237550735473633 12.661890029907227 16.040281295776367 13.527408599853516 14.110796928405762 11.564451217651367 C13.73302936553955 11.180307388305664 12.859540939331055 11.174728393554688 12.217177391052246 11.181901931762695 C11.081483840942383 11.195451736450195 9.443693161010742 10.917305946350098 9.594322204589844 12.637184143066406 C9.650110244750977 13.271578788757324 11.164369583129883 14.06457233428955 12.123929977416992 14.27019214630127 C13.790410995483398 14.627238273620605 15.55651569366455 14.487767219543457 17.255672454833984 14.73164176940918 C19.566112518310547 15.06318473815918 21.155284881591797 16.207645416259766 21.426258087158203 18.777103424072266 C21.76656723022461 22.00566291809082 20.810993194580078 24.47868537902832 18.264644622802734 25.400789260864258 C14.4248046875 26.790719985961914 10.436726570129395 26.756450653076172 6.535518169403076 25.59445571899414 C4.157336235046387 24.887535095214844 3.393831253051758 23.034561157226562 3.664006233215332 20.387001037597656 C6.018280506134033 20.423660278320312 8.390884399414062 19.257680892944336 10.184882164001465 21.771350860595703 C10.430351257324219 22.115642547607422 11.136474609375 22.31887435913086 11.604300498962402 22.28061866760254 C13.056394577026367 22.161869049072266 15.2672119140625 23.060861587524414 15.484786987304688 20.748031616210938 C15.691203117370605 18.54757308959961 13.570444107055664 19.126976013183594 12.234709739685059 18.959611892700195 C11.051993370056152 18.81137466430664 9.85254192352295 18.780292510986328 8.675405502319336 18.600173950195312 C4.793324947357178 18.00562858581543 3.498234748840332 16.532812118530273 3.5572118759155273 12.868308067321777 C3.6145944595336914 9.325739860534668 5.1153035163879395 7.605064392089844 8.93761157989502 7.341264247894287"></path></svg>