<svg xmlns="http://www.w3.org/2000/svg" viewBox="0.0 0.0 24.0 24.0" height="200px" width="200px"><path fill="none" stroke="black" stroke-width=".3" stroke-opacity="1.0"  filling="0" d="M14.442304611206055 8.026058197021484 C16.446712493896484 8.026058197021484 18.501846313476562 8.026058197021484 21.105438232421875 8.026058197021484 C19.536941528320312 10.982342720031738 18.100805282592773 13.68896770477295 16.6020565032959 16.51447868347168 C18.21889877319336 19.49295425415039 19.82940101623535 22.461130142211914 21.649141311645508 25.813697814941406 C19.170772552490234 25.813697814941406 17.153682708740234 25.813697814941406 14.812433242797852 25.813697814941406 C13.945362091064453 24.081140518188477 13.147245407104492 22.48569679260254 12.121660232543945 20.436904907226562 C11.132533073425293 22.46588134765625 10.344717979431152 24.082725524902344 9.476061820983887 25.865215301513672 C7.295702934265137 25.865215301513672 5.106625080108643 25.865215301513672 2.4483470916748047 25.865215301513672 C4.243517875671387 22.619640350341797 5.932483673095703 19.568248748779297 7.6594929695129395 16.44710922241211 C6.193238735198975 13.711159706115723 4.78167200088501 11.075864791870117 3.183852195739746 8.094219207763672 C5.541746616363525 8.094219207763672 7.554873466491699 8.094219207763672 9.919900894165039 8.094219207763672 C10.49134349822998 9.214119911193848 11.181673049926758 10.567829132080078 12.116904258728027 12.401041984558105 C12.983976364135742 10.769933700561523 13.667963027954102 9.482800483703613 14.442304611206055 8.026058197021484"></path></svg>