<svg xmlns="http://www.w3.org/2000/svg" viewBox="0.0 0.0 24.0 24.0" height="200px" width="200px"><path fill="none" stroke="black" stroke-width=".3" stroke-opacity="1.0"  filling="0" d="M6.754739761352539 7.466790199279785 L6.754739761352539 7.466790199279785 C7.964088439941406 7.495868682861328 9.26281452178955 7.404845237731934 10.547500610351562 7.421728134155273 C11.832186698913574 7.438610553741455 13.102832794189453 7.563399314880371 14.256019592285156 8.024101257324219 C16.30895233154297 8.844253540039062 17.369388580322266 10.524308204650879 17.446430206298828 12.265332221984863 C17.52347183227539 14.006356239318848 16.617116928100586 15.808350563049316 14.736466407775879 16.87238311767578 C13.595060348510742 17.518165588378906 12.323858261108398 17.734827041625977 11.025163650512695 17.78716468811035 C9.726468086242676 17.83950424194336 8.400279998779297 17.727519989013672 7.148904800415039 17.71601676940918 L7.148904800415039 17.71601676940918 C7.660902500152588 16.2512149810791 8.099798202514648 14.295820236206055 8.141976356506348 12.403169631958008 C8.18415355682373 10.510519027709961 7.82961368560791 8.680612564086914 6.754739761352539 7.466790199279785 L6.754739761352539 7.466790199279785"></path>
<path fill="none" stroke="black" stroke-width=".3" stroke-opacity="1.0"  filling="0" d="M9.368185043334961 8.444108009338379 L9.368185043334961 8.444108009338379 C11.042705535888672 8.161023139953613 12.627535820007324 7.860141277313232 14.153377532958984 8.872395515441895 C15.391013145446777 9.693450927734375 15.987323760986328 11.09756851196289 15.982429504394531 12.510610580444336 C15.977534294128418 13.923652648925781 15.371434211730957 15.345619201660156 14.204248428344727 16.202375411987305 C12.735588073730469 17.280424118041992 11.203407287597656 17.058198928833008 9.527594566345215 16.832414627075195 L9.527594566345215 16.832414627075195 C9.305835723876953 15.418920516967773 9.216612815856934 14.033370971679688 9.207515716552734 12.645430564880371 C9.198417663574219 11.257490158081055 9.269445419311523 9.86716079711914 9.368185043334961 8.444108009338379 L9.368185043334961 8.444108009338379"></path></svg>