<svg xmlns="http://www.w3.org/2000/svg" viewBox="0.0 0.0 24.0 24.0" height="200px" width="200px"><path fill="none" stroke="black" stroke-width=".3" stroke-opacity="1.0"  filling="0" d="M7.1408796310424805 3.1620635986328125 C11.800172805786133 3.1620635986328125 16.382017135620117 3.1620635986328125 21.283706665039062 3.1620635986328125 C21.00583839416504 4.538982391357422 20.749256134033203 5.808892726898193 20.446557998657227 7.30819034576416 C17.437910079956055 7.30819034576416 14.619633674621582 7.30819034576416 11.621037483215332 7.30819034576416 C11.363862991333008 8.452764511108398 11.156349182128906 9.37563705444336 10.874344825744629 10.630766868591309 C13.637639999389648 10.630766868591309 16.150264739990234 10.630766868591309 18.99041748046875 10.630766868591309 C18.78763198852539 11.966300964355469 18.635692596435547 12.970758438110352 18.451236724853516 14.186279296875 C15.644783020019531 14.186279296875 13.023967742919922 14.186279296875 10.22342586517334 14.186279296875 C9.878161430358887 15.44909381866455 9.581968307495117 16.532184600830078 9.14506721496582 18.129032135009766 C12.336395263671875 18.129032135009766 15.197240829467773 18.129032135009766 18.3063907623291 18.129032135009766 C17.94161605834961 19.827564239501953 17.682077407836914 21.038354873657227 17.397708892822266 22.362655639648438 C12.591796875 22.362064361572266 7.903534889221191 22.362064361572266 3.001255989074707 22.362064361572266 C4.388816833496094 15.926788330078125 5.749181270599365 9.61803150177002 7.1408796310424805 3.1620635986328125"></path></svg>