<svg xmlns="http://www.w3.org/2000/svg" viewBox="0.0 0.0 24.0 24.0" height="200px" width="200px"><path fill="none" stroke="black" stroke-width=".3" stroke-opacity="1.0"  filling="0" d="M10.199167251586914 8.063957214355469 L10.199167251586914 8.063957214355469 C10.81384563446045 8.028807640075684 11.453263282775879 7.7823357582092285 12.04320240020752 7.958507537841797 C12.673789978027344 8.146818161010742 13.118795394897461 8.717127799987793 13.656591415405273 9.09643840789795 L13.656591415405273 9.09643840789795 C14.2207612991333 8.521282196044922 15.061897277832031 8.137642860412598 15.867356300354004 8.11953067779541 L15.867356300354004 8.11953067779541 C15.867356300354004 9.874364852905273 15.867356300354004 11.62919807434082 15.867356300354004 13.384031295776367 C15.867356300354004 15.138864517211914 15.867356300354004 16.89369773864746 15.867356300354004 18.648530960083008 L15.867356300354004 18.648530960083008 C15.161239624023438 18.648530960083008 14.455121994018555 18.648530960083008 13.749005317687988 18.648530960083008 L13.749005317687988 18.648530960083008 C13.749005317687988 17.680885314941406 13.749005317687988 16.713239669799805 13.749005317687988 15.745594024658203 L13.749005317687988 15.745594024658203 C12.569121360778809 16.582578659057617 11.071725845336914 17.446063995361328 9.642472267150879 16.470930099487305 C8.758071899414062 15.867532730102539 8.22262191772461 14.484745979309082 8.052661895751953 13.042703628540039 C7.8827009201049805 11.600662231445312 8.078230857849121 10.099364280700684 8.655791282653809 9.258944511413574 C9.024299621582031 8.722721099853516 9.684708595275879 8.462285995483398 10.199167251586914 8.063957214355469 L10.199167251586914 8.063957214355469"></path>
<path fill="none" stroke="black" stroke-width=".3" stroke-opacity="1.0"  filling="0" d="M12.052139282226562 10.06647777557373 L12.052139282226562 10.06647777557373 C14.136407852172852 10.761578559875488 14.883221626281738 15.0885591506958 11.790194511413574 14.82301139831543 C9.972868919372559 14.666987419128418 9.84836483001709 11.260697364807129 10.990076065063477 10.393050193786621 C11.284964561462402 10.16894817352295 11.698118209838867 10.175334930419922 12.052139282226562 10.06647777557373 L12.052139282226562 10.06647777557373"></path></svg>