<svg xmlns="http://www.w3.org/2000/svg" viewBox="0.0 0.0 24.0 24.0" height="200px" width="200px"><path fill="none" stroke="black" stroke-width=".3" stroke-opacity="1.0"  filling="0" d="M3.1506147384643555 3.3499040603637695 C5.1219940185546875 3.3499040603637695 7.092791557312012 3.3499040603637695 9.499410629272461 3.3499040603637695 C5.6171650886535645 5.605236530303955 7.724119663238525 8.846840858459473 7.128284454345703 12.303735733032227 C11.080352783203125 10.270097732543945 13.294370651245117 7.386343955993652 15.992507934570312 4.9442315101623535 C15.396090507507324 4.395527362823486 15.029511451721191 4.059205532073975 14.288789749145508 3.3778343200683594 C16.791418075561523 3.3778343200683594 18.81167221069336 3.3778343200683594 20.798181533813477 3.3778343200683594 C17.350595474243164 5.999745845794678 13.893117904663086 8.629802703857422 10.114446640014648 11.503664016723633 C14.125283241271973 15.307354927062988 17.416345596313477 19.293170928955078 21.963668823242188 22.22754669189453 C19.878826141357422 22.22754669189453 17.7945613861084 22.22754669189453 15.382125854492188 22.22754669189453 C15.7260103225708 21.638694763183594 15.940139770507812 21.27153205871582 16.318937301635742 20.623329162597656 C13.603927612304688 18.0950984954834 10.82433032989502 15.506937026977539 7.895772933959961 12.779706954956055 C6.476007461547852 16.980815887451172 7.06544303894043 20.197399139404297 9.634984970092773 22.07975196838379 C7.282480716705322 22.07975196838379 5.239532470703125 22.07975196838379 2.7636709213256836 22.07975196838379 C5.290737152099609 20.75308609008789 4.843277454376221 18.580379486083984 4.863061428070068 16.571758270263672 C4.892736911773682 13.568723678588867 4.866552829742432 10.564523696899414 4.866552829742432 7.5609049797058105 C4.866552829742432 5.97181510925293 5.04984188079834 4.308826923370361 3.1506147384643555 3.3499040603637695"></path></svg>