<svg xmlns="http://www.w3.org/2000/svg" viewBox="0.0 0.0 24.0 24.0" height="200px" width="200px"><path fill="none" stroke="black" stroke-width=".3" stroke-opacity="1.0"  filling="0" d="M9.113115310668945 8.623167037963867 L9.113115310668945 8.623167037963867 C9.68825912475586 8.583396911621094 10.292526245117188 8.318833351135254 10.838546752929688 8.503857612609863 C11.362068176269531 8.681258201599121 11.654574394226074 9.249701499938965 12.06258773803711 9.622623443603516 L12.06258773803711 9.622623443603516 C13.885785102844238 8.151782035827637 14.077994346618652 7.958257675170898 16.19498062133789 8.92007064819336 L16.19498062133789 8.92007064819336 C16.14949607849121 9.78170394897461 16.103988647460938 10.643336296081543 16.058460235595703 11.504966735839844 L16.058460235595703 11.504966735839844 C15.053308486938477 11.419241905212402 13.910665512084961 11.071128845214844 12.99354076385498 11.777029037475586 C12.128911972045898 12.442523956298828 11.873072624206543 13.775415420532227 11.835113525390625 15.177712440490723 C11.797154426574707 16.58000946044922 11.977073669433594 18.051712036132812 11.983962059020996 18.994827270507812 L11.983962059020996 18.994827270507812 C11.027012825012207 18.994827270507812 10.070064544677734 18.994827270507812 9.113115310668945 18.994827270507812 L9.113115310668945 18.994827270507812 C9.113115310668945 17.266216278076172 9.113115310668945 15.537607192993164 9.113115310668945 13.80899715423584 C9.113115310668945 12.080387115478516 9.113115310668945 10.351777076721191 9.113115310668945 8.623167037963867 L9.113115310668945 8.623167037963867"></path></svg>