<svg xmlns="http://www.w3.org/2000/svg" viewBox="0.0 0.0 24.0 24.0" height="200px" width="200px"><path fill="none" stroke="black" stroke-width=".3" stroke-opacity="1.0"  filling="0" d="M16.2998104095459 3.0067672729492188 C20.364473342895508 3.1973676681518555 21.30563735961914 4.493797302246094 20.44962501525879 8.822932243347168 C19.13571548461914 8.822932243347168 17.771615982055664 8.822932243347168 16.34323501586914 8.822932243347168 C15.262782096862793 6.976691722869873 13.689474105834961 6.30845832824707 11.664473533630371 6.996992588043213 C10.273308753967285 7.4701128005981445 9.836278915405273 8.478947639465332 10.313910484313965 10.089473724365234 C12.19060230255127 10.306015014648438 14.128759384155273 10.505075454711914 16.060150146484375 10.757143020629883 C19.40695571899414 11.193609237670898 20.19361114501953 12.287593841552734 19.657329559326172 15.679510116577148 C18.960338592529297 20.08928680419922 16.97199249267578 21.90902328491211 12.546992301940918 22.10300636291504 C11.049248695373535 22.16898536682129 9.543045043945312 22.165599822998047 8.04530143737793 22.094547271728516 C3.7810144424438477 21.892105102539062 2.8951120376586914 20.776691436767578 3.479887008666992 16.064098358154297 C5.012593746185303 16.064098358154297 6.393609046936035 16.064098358154297 7.9122185707092285 16.064098358154297 C8.134398460388184 16.64492416381836 8.387030601501465 17.306392669677734 8.610902786254883 17.8917293548584 C13.389473915100098 18.624248504638672 14.2922945022583 18.19342041015625 14.47218132019043 14.848872184753418 C12.669926643371582 14.650376319885254 10.842294692993164 14.425375938415527 9.009023666381836 14.251691818237305 C5.408459186553955 13.910527229309082 4.443046569824219 12.681766510009766 4.9939866065979 9.082895278930664 C5.594549655914307 5.1524434089660645 7.275563716888428 3.4748125076293945 11.239850044250488 3.081766128540039 C12.913534164428711 2.9154129028320312 14.617105484008789 2.92781925201416 16.2998104095459 3.0067672729492188"></path></svg>