<svg xmlns="http://www.w3.org/2000/svg" viewBox="0.0 0.0 24.0 24.0" height="200px" width="200px"><path fill="none" stroke="black" stroke-width=".3" stroke-opacity="1.0"  filling="0" d="M9.629865646362305 2.8939285278320312 C9.629865646362305 5.759546756744385 9.629865646362305 8.351507186889648 9.629865646362305 11.277765274047852 C10.500072479248047 11.054901123046875 11.125646591186523 10.936731338500977 11.723234176635742 10.735116958618164 C15.020068168640137 9.619759559631348 17.800167083740234 11.346179008483887 18.23604965209961 14.796944618225098 C18.70509910583496 18.511518478393555 15.657045364379883 22.019296646118164 11.891677856445312 22.08356475830078 C10.693394660949707 22.104297637939453 9.495111465454102 22.08667755126953 8.07603645324707 22.08667755126953 C7.172659397125244 16.1133975982666 8.627495765686035 10.35883903503418 6.947722434997559 4.429617881774902 C7.477413654327393 4.1264190673828125 8.405668258666992 3.5946550369262695 9.629865646362305 2.8939285278320312"></path>
<path fill="none" stroke="black" stroke-width=".3" stroke-opacity="1.0"  filling="0" d="M13.288984298706055 11.95776081085205 C15.095220565795898 12.569859504699707 16.29246711730957 14.448137283325195 16.263442993164062 17.058757781982422 C16.202800750732422 17.315826416015625 16.169113159179688 18.041950225830078 15.865915298461914 18.62917137145996 C15.170372009277344 19.97516632080078 14.178885459899902 21.065128326416016 12.492374420166016 21.00086212158203 C11.009550094604492 20.944366455078125 9.847028732299805 19.70980453491211 9.592031478881836 17.861068725585938 C9.440173149108887 16.762813568115234 9.46194076538086 15.631909370422363 9.495630264282227 14.518106460571289 C9.564043998718262 12.275472640991211 11.143787384033203 11.230602264404297 13.288984298706055 11.95776081085205"></path></svg>