<svg xmlns="http://www.w3.org/2000/svg" viewBox="0.0 0.0 24.0 24.0" height="200px" width="200px"><path fill="none" stroke="black" stroke-width=".3" stroke-opacity="1.0"  filling="0" d="M11.046628952026367 10.538557052612305 L11.046628952026367 10.538557052612305 C11.625626564025879 10.334061622619629 12.171182632446289 9.969514846801758 12.783621788024902 9.925070762634277 C14.848146438598633 9.775251388549805 15.928590774536133 12.080602645874023 16.93865203857422 13.482681274414062 L16.93865203857422 13.482681274414062 C14.703938484191895 14.06259536743164 12.469188690185547 14.642349243164062 10.234375 15.22187614440918 L10.234375 15.22187614440918 C10.319791793823242 15.9047212600708 10.291705131530762 16.611621856689453 10.490626335144043 17.27041244506836 C11.429139137268066 20.378583908081055 14.847472190856934 18.753355026245117 16.83057403564453 18.00175666809082 L16.83057403564453 18.00175666809082 C15.759552001953125 19.324796676635742 15.692293167114258 19.797624588012695 14.097784996032715 20.390464782714844 C12.237786293029785 21.082015991210938 10.632959365844727 20.62186050415039 9.566078186035156 19.54132080078125 C8.499197006225586 18.460779190063477 7.970261573791504 16.759851455688477 8.262043952941895 14.969854354858398 C8.587287902832031 12.97458267211914 9.590005874633789 11.811033248901367 11.046628952026367 10.538557052612305 L11.046628952026367 10.538557052612305"></path>
<path fill="none" stroke="black" stroke-width=".3" stroke-opacity="1.0"  filling="0" d="M12.05757999420166 10.98928451538086 L12.05757999420166 10.98928451538086 C13.0545072555542 11.377503395080566 13.863447189331055 12.27022647857666 14.374933242797852 13.209885597229004 L14.374933242797852 13.209885597229004 C13.050731658935547 13.555283546447754 11.726578712463379 13.900848388671875 10.402395248413086 14.246322631835938 L10.402395248413086 14.246322631835938 C10.519917488098145 12.49222469329834 10.478821754455566 11.832335472106934 12.05757999420166 10.98928451538086 L12.05757999420166 10.98928451538086"></path></svg>