<svg xmlns="http://www.w3.org/2000/svg" viewBox="0.0 0.0 24.0 24.0" height="200px" width="200px"><path fill="none" stroke="black" stroke-width=".3" stroke-opacity="1.0"  filling="0" d="M16.170127868652344 8.4561128616333 L16.170127868652344 8.4561128616333 C15.643818855285645 10.730393409729004 15.143489837646484 13.01176643371582 14.578829765319824 15.276968955993652 C14.326696395874023 16.28843116760254 14.160818099975586 17.616668701171875 13.227396965026855 18.32656478881836 C12.316967964172363 19.01897430419922 8.295742988586426 19.578638076782227 7.4973955154418945 18.35015869140625 C7.15662956237793 17.825796127319336 7.486639022827148 17.0994815826416 7.481260776519775 16.47414207458496 L7.481260776519775 16.47414207458496 C7.9011759757995605 16.434085845947266 8.331923484802246 16.251094818115234 8.741006851196289 16.353973388671875 C9.89849853515625 16.645065307617188 10.949379920959473 18.309410095214844 11.970478057861328 16.443363189697266 C12.256468772888184 15.9207181930542 12.251877784729004 15.285517692565918 12.392578125 14.706595420837402 L12.392578125 14.706595420837402 C11.861955642700195 15.003725051879883 11.387317657470703 15.437551498413086 10.800710678100586 15.597984313964844 C8.609647750854492 16.197223663330078 7.822868347167969 14.729759216308594 7.8711323738098145 12.955719947814941 C7.919395923614502 11.181680679321289 8.802701950073242 9.101064682006836 9.95180892944336 8.474002838134766 C11.454805374145508 7.653824329376221 12.17654037475586 8.459465980529785 13.449400901794434 9.119413375854492 L13.449400901794434 9.119413375854492 C14.266861915588379 8.668717384338379 15.23666000366211 8.453564643859863 16.170127868652344 8.4561128616333 L16.170127868652344 8.4561128616333"></path>
<path fill="none" stroke="black" stroke-width=".3" stroke-opacity="1.0"  filling="0" d="M12.827241897583008 10.170896530151367 L12.827241897583008 10.170896530151367 C10.343767166137695 10.610014915466309 10.37709903717041 11.212287902832031 10.592683792114258 13.663592338562012 L10.592683792114258 13.663592338562012 C13.100736618041992 13.370490074157715 12.940962791442871 12.597526550292969 12.827241897583008 10.170896530151367 L12.827241897583008 10.170896530151367"></path></svg>