<svg xmlns="http://www.w3.org/2000/svg" viewBox="0.0 0.0 24.0 24.0" height="200px" width="200px"><path fill="none" stroke="black" stroke-width=".3" stroke-opacity="1.0"  filling="0" d="M9.523639678955078 5.347999572753906 C10.611345291137695 5.347999572753906 12.066686630249023 5.347999572753906 13.799135208129883 5.347999572753906 C13.799135208129883 6.435703754425049 13.799135208129883 7.387964725494385 13.799135208129883 8.476361274719238 C15.755483627319336 8.577253341674805 17.444398880004883 8.664325714111328 19.438756942749023 8.767291069030762 C19.210712432861328 9.999424934387207 19.013072967529297 11.065707206726074 18.791248321533203 12.26605224609375 C16.653152465820312 12.395277976989746 14.746559143066406 12.509991645812988 12.617448806762695 12.638525009155273 C12.071523666381836 15.236165046691895 11.548402786254883 17.723236083984375 11.025972366333008 20.21030616760254 C11.341089248657227 20.380996704101562 11.65551471710205 20.55168342590332 11.970630645751953 20.72306251525879 C12.820616722106934 19.88897132873535 13.671293258666992 19.054880142211914 14.773510932922363 17.974084854125977 C15.492889404296875 17.974084854125977 16.59372329711914 17.974084854125977 17.69179344177246 17.974084854125977 C17.729110717773438 22.023609161376953 16.367061614990234 23.811344146728516 12.927037239074707 24.391822814941406 C12.588425636291504 24.449176788330078 12.241520881652832 24.45608901977539 11.898070335388184 24.480274200439453 C6.257760047912598 24.887298583984375 5.0532684326171875 23.543909072875977 6.174834728240967 18.1060733795166 C6.521048069000244 16.425453186035156 6.858969211578369 14.743449211120605 7.228678226470947 12.928764343261719 C6.445724010467529 12.493406295776367 5.9792680740356445 12.233572959899902 5.073999881744385 11.729801177978516 C6.591534614562988 9.553009033203125 7.9584221839904785 7.5925140380859375 9.523639678955078 5.347999572753906"></path></svg>