<svg xmlns="http://www.w3.org/2000/svg" viewBox="0.0 0.0 24.0 24.0" height="200px" width="200px"><path fill="none" stroke="black" stroke-width=".3" stroke-opacity="1.0"  filling="0" d="M8.607283592224121 9.925918579101562 L8.607283592224121 9.925918579101562 C8.803757667541504 9.925918579101562 11.550782203674316 9.925918579101562 11.703374862670898 9.925918579101562 L11.703374862670898 9.925918579101562 C11.26723861694336 12.093127250671387 10.830957412719727 14.260307312011719 10.394549369812012 16.427461624145508 L10.394549369812012 16.427461624145508 C11.197319030761719 16.58650016784668 12.254767417907715 17.09831428527832 13.00248908996582 16.347055435180664 C14.288152694702148 15.055309295654297 14.37380313873291 11.647193908691406 14.73266887664795 9.960152626037598 L14.73266887664795 9.960152626037598 C15.786826133728027 9.960152626037598 16.840984344482422 9.960152626037598 17.8951416015625 9.960152626037598 L17.8951416015625 9.960152626037598 C17.557403564453125 11.514602661132812 17.219627380371094 13.069043159484863 16.88186264038086 14.62348747253418 C16.544097900390625 16.17793083190918 16.206344604492188 17.732376098632812 15.868653297424316 19.286836624145508 L15.868653297424316 19.286836624145508 C14.906621932983398 19.286836624145508 13.944589614868164 19.286836624145508 12.982558250427246 19.286836624145508 L12.982558250427246 19.286836624145508 C12.921048164367676 19.067516326904297 12.859538078308105 18.848196029663086 12.798027992248535 18.628875732421875 L12.798027992248535 18.628875732421875 C12.223345756530762 18.766633987426758 9.803459167480469 19.41394805908203 9.147512435913086 19.313556671142578 C7.235976219177246 19.020998001098633 6.971411228179932 17.2525634765625 7.249484062194824 15.268030166625977 C7.527556896209717 13.283496856689453 8.348267555236816 11.082866668701172 8.607283592224121 9.925918579101562 L8.607283592224121 9.925918579101562"></path></svg>