<svg xmlns="http://www.w3.org/2000/svg" viewBox="0.0 0.0 24.0 24.0" height="200px" width="200px"><path fill="none" stroke="black" stroke-width=".3" stroke-opacity="1.0"  filling="0" d="M9.283747673034668 9.531135559082031 L9.283747673034668 9.531135559082031 C10.648170471191406 10.21434211730957 11.814311027526855 10.385831832885742 13.004924774169922 10.339224815368652 C14.195538520812988 10.292617797851562 15.410624504089355 10.027915000915527 16.872936248779297 9.838735580444336 L16.872936248779297 9.838735580444336 C15.853269577026367 11.093557357788086 14.83360767364502 12.348384857177734 13.813950538635254 13.603215217590332 C12.794293403625488 14.85804557800293 11.774639129638672 16.112878799438477 10.754987716674805 17.367713928222656 L10.754987716674805 17.367713928222656 C10.850103378295898 17.521148681640625 10.945219039916992 17.674585342407227 11.040334701538086 17.828020095825195 L11.040334701538086 17.828020095825195 C13.322563171386719 18.001680374145508 14.758140563964844 18.11284637451172 16.780874252319336 16.921802520751953 L16.780874252319336 16.921802520751953 C16.412019729614258 17.834678649902344 15.77213191986084 19.418485641479492 15.403441429138184 20.331134796142578 L15.403441429138184 20.331134796142578 C14.11874008178711 19.633586883544922 12.914434432983398 19.409164428710938 11.680826187133789 19.298616409301758 C10.44721794128418 19.188068389892578 9.184309005737305 19.191394805908203 7.782402038574219 18.9493408203125 L7.782402038574219 18.9493408203125 C8.839346885681152 17.84341812133789 9.896240234375 16.737445831298828 10.953118324279785 15.63145923614502 C12.00999641418457 14.525472640991211 13.066858291625977 13.419471740722656 14.123743057250977 12.31348991394043 L14.123743057250977 12.31348991394043 C11.524063110351562 11.843153953552246 10.129692077636719 11.465652465820312 8.096982955932617 13.34580135345459 L8.096982955932617 13.34580135345459 C7.983251094818115 13.22407054901123 7.869519233703613 13.102339744567871 7.755787372589111 12.980608940124512 L7.755787372589111 12.980608940124512 C7.806620121002197 12.865839958190918 9.23896312713623 9.632229804992676 9.283747673034668 9.531135559082031 L9.283747673034668 9.531135559082031"></path></svg>