<svg xmlns="http://www.w3.org/2000/svg" viewBox="0.0 0.0 24.0 24.0" height="200px" width="200px"><path fill="none" stroke="black" stroke-width=".3" stroke-opacity="1.0"  filling="0" d="M15.028465270996094 7.025603771209717 L15.028465270996094 7.025603771209717 C15.5791654586792 7.290246963500977 16.3128719329834 7.331570148468018 16.680566787719727 7.819532871246338 C17.058242797851562 8.320741653442383 17.014659881591797 9.043523788452148 17.021896362304688 9.671056747436523 C17.042673110961914 11.472715377807617 16.395151138305664 15.322701454162598 15.008871078491211 16.608959197998047 C13.655440330505371 17.864736557006836 10.609945297241211 17.992656707763672 8.971070289611816 17.529577255249023 C7.4595208168029785 17.102474212646484 7.160258769989014 15.295475959777832 7.393889427185059 13.369546890258789 C7.627519607543945 11.443618774414062 8.39404296875 9.398758888244629 9.014062881469727 8.495933532714844 C10.312007904052734 6.605966567993164 13.070469856262207 6.975691318511963 15.028465270996094 7.025603771209717 L15.028465270996094 7.025603771209717"></path>
<path fill="none" stroke="black" stroke-width=".3" stroke-opacity="1.0"  filling="0" d="M14.059457778930664 9.577006340026855 L14.059457778930664 9.577006340026855 C14.300788879394531 11.027721405029297 14.07443618774414 15.30087661743164 11.93616771697998 15.350059509277344 C11.285923957824707 15.365015983581543 10.665285110473633 15.072540283203125 10.0298433303833 14.933780670166016 L10.0298433303833 14.933780670166016 C10.358165740966797 13.318364143371582 10.315034866333008 9.650099754333496 12.436963081359863 9.226888656616211 C12.979557037353516 9.118670463562012 13.51862621307373 9.46030044555664 14.059457778930664 9.577006340026855 L14.059457778930664 9.577006340026855"></path></svg>