<svg xmlns="http://www.w3.org/2000/svg" viewBox="0.0 0.0 24.0 24.0" height="200px" width="200px"><path fill="none" stroke="black" stroke-width=".3" stroke-opacity="1.0"  filling="0" d="M14.540472984313965 6.715005874633789 L14.540472984313965 6.715005874633789 C16.494699478149414 7.436726093292236 16.464479446411133 8.054940223693848 16.57903289794922 10.107507705688477 L16.57903289794922 10.107507705688477 C16.072179794311523 10.107507705688477 15.565327644348145 10.107507705688477 15.058475494384766 10.107507705688477 L15.058475494384766 10.107507705688477 C14.654841423034668 9.59354019165039 14.410985946655273 8.896739959716797 13.847574234008789 8.565606117248535 C13.528620719909668 8.37814712524414 11.01714038848877 8.496536254882812 10.722675323486328 8.674240112304688 C9.876145362854004 9.185102462768555 10.059211730957031 10.582731246948242 10.056015968322754 11.296109199523926 C10.0465087890625 13.418254852294922 9.609822273254395 15.886813163757324 12.500321388244629 15.6707763671875 C13.0999174118042 15.625962257385254 13.811308860778809 15.75336742401123 14.279998779296875 15.37673282623291 C14.758882522583008 14.991907119750977 14.750136375427246 14.241544723510742 14.985204696655273 13.6739501953125 L14.985204696655273 13.6739501953125 C15.536444664001465 13.6739501953125 16.087684631347656 13.6739501953125 16.638925552368164 13.6739501953125 L16.638925552368164 13.6739501953125 C16.62044906616211 14.974031448364258 17.047481536865234 16.29220962524414 15.607994079589844 17.062286376953125 C14.823151588439941 17.48215103149414 13.320230484008789 17.690921783447266 11.876874923706055 17.581562042236328 C10.43351936340332 17.47220230102539 9.04973030090332 17.04471206665039 8.503153800964355 16.192058563232422 C7.656103134155273 14.870668411254883 7.904747486114502 12.63476276397705 7.919524669647217 11.164018630981445 C7.940800189971924 9.046525955200195 7.968853950500488 7.5367608070373535 10.272847175598145 6.840205669403076 C11.539213180541992 6.457351207733154 13.241536140441895 6.658093452453613 14.540472984313965 6.715005874633789 L14.540472984313965 6.715005874633789"></path></svg>