<svg xmlns="http://www.w3.org/2000/svg" viewBox="0.0 0.0 24.0 24.0" height="200px" width="200px"><path fill="none" stroke="black" stroke-width=".3" stroke-opacity="1.0"  filling="0" d="M6.9087629318237305 3.15511417388916 C11.210241317749023 3.15511417388916 15.387347221374512 3.15511417388916 19.67934799194336 3.15511417388916 C19.67934799194336 4.1098127365112305 19.67934799194336 4.939548969268799 19.67934799194336 6.007367134094238 C16.720491409301758 6.007367134094238 13.893111228942871 6.007367134094238 10.679588317871094 6.007367134094238 C10.597859382629395 7.737907886505127 10.526788711547852 9.251688003540039 10.436768531799316 11.160493850708008 C13.384964942932129 11.160493850708008 16.17207145690918 11.160493850708008 19.1214542388916 11.160493850708008 C19.1214542388916 12.366897583007812 19.1214542388916 13.193078994750977 19.1214542388916 14.347366333007812 C16.361591339111328 14.347366333007812 13.650291442871094 14.347366333007812 10.594897270202637 14.347366333007812 C10.594897270202637 17.168231964111328 10.594897270202637 19.676387786865234 10.594897270202637 22.355113983154297 C9.206083297729492 22.355113983154297 8.174983978271484 22.355113983154297 6.9087629318237305 22.355113983154297 C6.9087629318237305 15.858181953430176 6.9087629318237305 9.587489128112793 6.9087629318237305 3.15511417388916"></path></svg>