<svg xmlns="http://www.w3.org/2000/svg" viewBox="0.0 0.0 24.0 24.0" height="200px" width="200px"><path fill="none" stroke="black" stroke-width=".3" stroke-opacity="1.0"  filling="0" d="M16.4705753326416 4.307987689971924 C17.136703491210938 4.307987689971924 18.427703857421875 4.307987689971924 20.05480194091797 4.307987689971924 C18.044893264770508 5.721536636352539 16.26491355895996 6.973711013793945 14.269564628601074 8.37755298614502 C15.021233558654785 6.987663745880127 15.658846855163574 5.808897495269775 16.4705753326416 4.307987689971924"></path>
<path fill="none" stroke="black" stroke-width=".3" stroke-opacity="1.0"  filling="0" d="M4.088371753692627 4.379575252532959 C5.435793399810791 4.379575252532959 6.709200859069824 4.379575252532959 8.054802894592285 4.379575252532959 C6.382204532623291 7.058644771575928 7.463296413421631 10.022851943969727 7.0653181076049805 13.169058799743652 C7.9249749183654785 12.868755340576172 8.525581359863281 12.658846855163574 8.723357200622559 12.589685440063477 C12.928210258483887 16.293426513671875 17.01779556274414 19.895246505737305 21.02001953125 23.42001724243164 C19.953487396240234 23.42001724243164 18.541149139404297 23.42001724243164 17.10030174255371 23.42001724243164 C16.83094024658203 21.935489654541016 11.855611801147461 17.162790298461914 7.003437519073486 14.002022743225098 C7.556723594665527 17.4564208984375 6.1898884773254395 20.650554656982422 8.324771881103516 23.50859260559082 C7.003437519073486 23.50859260559082 5.621435642242432 23.50859260559082 4.199999809265137 23.50859260559082 C5.895045280456543 20.8598575592041 5.83983850479126 7.016178131103516 4.088371753692627 4.379575252532959"></path></svg>