<svg xmlns="http://www.w3.org/2000/svg" viewBox="0.0 0.0 24.0 24.0" height="200px" width="200px"><path fill="none" stroke="black" stroke-width=".3" stroke-opacity="1.0"  filling="0" d="M8.444437026977539 7.453723430633545 L8.444437026977539 7.453723430633545 C9.457239151000977 7.4327921867370605 11.503087043762207 7.375524520874023 13.040522575378418 7.826613903045654 C14.577957153320312 8.277703285217285 15.606980323791504 9.237150192260742 14.58613395690918 11.24964714050293 C14.334270477294922 11.746170043945312 13.322888374328613 12.485884666442871 12.808394432067871 12.885503768920898 L12.808394432067871 12.885503768920898 C13.909135818481445 15.127803802490234 15.049031257629395 16.660207748413086 17.020139694213867 18.210567474365234 L17.020139694213867 18.210567474365234 C15.731389045715332 17.914613723754883 15.41805648803711 18.003400802612305 14.390453338623047 17.189605712890625 C13.2626953125 16.29649543762207 12.633893013000488 13.994274139404297 11.359916687011719 13.420376777648926 C10.866314888000488 13.198020935058594 10.277569770812988 13.390966415405273 9.736395835876465 13.376260757446289 L9.736395835876465 13.376260757446289 C9.56445026397705 15.182109832763672 9.495684623718262 16.2625732421875 10.165933609008789 17.92989730834961 L10.165933609008789 17.92989730834961 C9.49731731414795 17.92989730834961 8.828701972961426 17.92989730834961 8.160085678100586 17.92989730834961 L8.160085678100586 17.92989730834961 C8.464845657348633 16.177001953125 8.55678939819336 14.442420959472656 8.562114715576172 12.703831672668457 C8.5674409866333 10.965242385864258 8.486148834228516 9.222646713256836 8.444437026977539 7.453723430633545 L8.444437026977539 7.453723430633545"></path>
<path fill="none" stroke="black" stroke-width=".3" stroke-opacity="1.0"  filling="0" d="M9.643061637878418 7.98094367980957 L9.643061637878418 7.98094367980957 C10.293334007263184 7.865642070770264 10.939460754394531 7.546235084533691 11.593878746032715 7.63503885269165 C14.04977035522461 7.9683003425598145 14.215579986572266 11.282721519470215 12.434846878051758 12.487808227539062 C11.640185356140137 13.02558422088623 10.517158508300781 12.92184829711914 9.64272689819336 12.95040225982666 L9.64272689819336 12.95040225982666 C9.642738342285156 11.293914794921875 9.642815589904785 9.637432098388672 9.643061637878418 7.98094367980957 L9.643061637878418 7.98094367980957"></path></svg>