<svg xmlns="http://www.w3.org/2000/svg" viewBox="0.0 0.0 24.0 24.0" height="200px" width="200px"><path fill="none" stroke="black" stroke-width=".3" stroke-opacity="1.0"  filling="0" d="M16.474775314331055 8.59738826751709 L16.474775314331055 8.59738826751709 C16.862367630004883 8.59738826751709 17.24995994567871 8.59738826751709 17.63755226135254 8.59738826751709 L17.63755226135254 8.59738826751709 C17.59992218017578 8.678818702697754 15.977967262268066 12.188797950744629 15.972979545593262 12.199591636657715 L15.972979545593262 12.199591636657715 C16.277185440063477 11.026050567626953 16.454818725585938 9.809553146362305 16.474775314331055 8.59738826751709 L16.474775314331055 8.59738826751709"></path>
<path fill="none" stroke="black" stroke-width=".3" stroke-opacity="1.0"  filling="0" d="M6.837796211242676 8.61379623413086 L6.837796211242676 8.61379623413086 C7.243673801422119 8.61379623413086 7.649551868438721 8.61379623413086 8.055429458618164 8.61379623413086 L8.055429458618164 8.61379623413086 C8.32909870147705 10.9849214553833 9.35782527923584 13.05516529083252 10.405468940734863 15.174612998962402 L10.405468940734863 15.174612998962402 C10.726157188415527 14.486101150512695 11.04688835144043 13.79761028289795 11.36767292022705 13.109143257141113 L11.36767292022705 13.109143257141113 C11.430611610412598 13.133959770202637 11.493551254272461 13.158775329589844 11.556489944458008 13.183591842651367 L11.556489944458008 13.183591842651367 C11.116756439208984 14.278947830200195 10.677000999450684 15.37429428100586 10.237224578857422 16.469633102416992 L10.237224578857422 16.469633102416992 C10.158123016357422 16.462858200073242 10.079020500183105 16.45608139038086 9.999918937683105 16.44930648803711 L9.999918937683105 16.44930648803711 C9.472925186157227 15.143377304077148 8.945924758911133 13.837450981140137 8.418907165527344 12.53153133392334 C7.891890525817871 11.225611686706543 7.364857196807861 9.919698715209961 6.837796211242676 8.61379623413086 L6.837796211242676 8.61379623413086"></path>
<path fill="none" stroke="black" stroke-width=".3" stroke-opacity="1.0"  filling="0" d="M10.982694625854492 8.622613906860352 L10.982694625854492 8.622613906860352 C11.393224716186523 8.622613906860352 11.803755760192871 8.622613906860352 12.214285850524902 8.622613906860352 L12.214285850524902 8.622613906860352 C12.709426879882812 10.954825401306152 13.628623962402344 13.058046340942383 14.454856872558594 15.286776542663574 L14.454856872558594 15.286776542663574 C14.656000137329102 14.957143783569336 14.85714340209961 14.627511024475098 15.058286666870117 14.29787826538086 L15.058286666870117 14.29787826538086 C15.112164497375488 14.321062088012695 15.166041374206543 14.344245910644531 15.219919204711914 14.367429733276367 L15.219919204711914 14.367429733276367 C14.948980331420898 15.062286376953125 14.678041458129883 15.757143020629883 14.407102584838867 16.45199966430664 L14.407102584838867 16.45199966430664 C14.326123237609863 16.46269416809082 14.245142936706543 16.473388671875 14.164163589477539 16.48408317565918 L14.164163589477539 16.48408317565918 C13.528257369995117 14.825826644897461 12.892399787902832 13.167543411254883 12.256653785705566 11.509224891662598 L12.256653785705566 11.509224891662598 C12.127429008483887 11.79347038269043 11.998205184936523 12.077714920043945 11.868980407714844 12.361960411071777 L11.868980407714844 12.361960411071777 C12.073990821838379 10.713096618652344 11.808609008789062 10.04961109161377 10.982694625854492 8.622613906860352 L10.982694625854492 8.622613906860352"></path></svg>