<svg xmlns="http://www.w3.org/2000/svg" viewBox="0.0 0.0 24.0 24.0" height="200px" width="200px"><path fill="none" stroke="black" stroke-width=".3" stroke-opacity="1.0"  filling="0" d="M4.68554162979126 3.6249160766601562 C5.565571308135986 3.6249160766601562 6.210646152496338 3.6249160766601562 6.8563232421875 3.6249160766601562 C7.552736759185791 3.6249160766601562 8.248546600341797 3.6249160766601562 8.99750804901123 3.6249160766601562 C7.983994007110596 6.200981616973877 10.904945373535156 11.224462509155273 13.49913215637207 11.751755714416504 C13.301019668579102 15.46455192565918 12.053756713867188 19.255268096923828 14.412382125854492 22.82491683959961 C13.160287857055664 22.82491683959961 11.557267189025879 22.82491683959961 9.672178268432617 22.82491683959961 C13.253907203674316 18.04122543334961 11.442506790161133 11.360363006591797 4.68554162979126 3.6249160766601562"></path>
<path fill="none" stroke="black" stroke-width=".3" stroke-opacity="1.0"  filling="0" d="M17.221593856811523 3.7596073150634766 C18.108266830444336 3.7596073150634766 19.22144317626953 3.7596073150634766 20.478370666503906 3.7596073150634766 C19.40203857421875 4.710305690765381 18.458587646484375 5.5432233810424805 17.61600685119629 6.287353515625 C17.49580955505371 5.515439510345459 17.36232566833496 4.662589073181152 17.221593856811523 3.7596073150634766"></path></svg>