<svg xmlns="http://www.w3.org/2000/svg" viewBox="0.0 0.0 24.0 24.0" height="200px" width="200px"><path fill="none" stroke="black" stroke-width=".3" stroke-opacity="1.0"  filling="0" d="M12.191252708435059 12.649468421936035 L12.191252708435059 12.649468421936035 C14.006089210510254 11.83262825012207 14.542203903198242 11.850725173950195 16.294292449951172 12.750040054321289 L16.294292449951172 12.750040054321289 C16.232519149780273 13.056270599365234 16.170743942260742 13.36250114440918 16.108970642089844 13.668731689453125 L16.108970642089844 13.668731689453125 C14.80307388305664 13.32895565032959 13.49715518951416 12.989216804504395 12.191252708435059 12.649468421936035 L12.191252708435059 12.649468421936035"></path>
<path fill="none" stroke="black" stroke-width=".3" stroke-opacity="1.0"  filling="0" d="M9.694512367248535 14.243902206420898 L9.694512367248535 14.243902206420898 C9.774815559387207 16.223987579345703 9.347709655761719 19.48527717590332 10.993889808654785 20.99560546875 C12.04470157623291 21.959699630737305 13.632762908935547 21.834636688232422 14.890264511108398 21.93978500366211 L14.890264511108398 21.93978500366211 C13.581398963928223 22.381595611572266 12.690631866455078 22.87229347229004 11.297279357910156 22.714330673217773 C9.004472732543945 22.45439910888672 8.210831642150879 20.954010009765625 8.186866760253906 19.20999526977539 C8.162901878356934 17.46598243713379 8.908613204956055 15.478341102600098 9.694512367248535 14.243902206420898 L9.694512367248535 14.243902206420898"></path></svg>