<svg xmlns="http://www.w3.org/2000/svg" viewBox="0.0 0.0 24.0 24.0" height="200px" width="200px"><path fill="none" stroke="black" stroke-width=".3" stroke-opacity="1.0"  filling="0" d="M17.387903213500977 7.921046257019043 C18.826045989990234 8.54450511932373 20.0516300201416 10.381693840026855 20.67745590209961 11.946266174316406 C21.26614761352539 13.421548843383789 20.941377639770508 15.2618989944458 21.038570404052734 17.373281478881836 C16.835559844970703 17.373281478881836 12.940719604492188 17.373281478881836 8.989777565002441 17.373281478881836 C8.753511428833008 19.634010314941406 8.356836318969727 21.637928009033203 10.669717788696289 22.409942626953125 C12.811919212341309 23.125064849853516 15.151667594909668 23.579421997070312 16.590600967407227 21.057140350341797 C17.714248657226562 19.087200164794922 19.248004913330078 20.165809631347656 20.675086975097656 20.066246032714844 C20.72882080078125 24.017189025878906 19.9180850982666 25.147157669067383 16.687793731689453 25.874919891357422 C16.431774139404297 25.93260383605957 16.168642044067383 26.002140045166016 15.909459114074707 25.998979568481445 C12.294347763061523 25.962631225585938 8.009154319763184 27.201644897460938 5.67888879776001 23.597597122192383 C3.1321115493774414 19.6592960357666 3.73897647857666 14.985331535339355 5.0609612464904785 10.617959976196289 C5.361233234405518 9.625482559204102 6.42245626449585 8.550827026367188 7.398338794708252 8.132026672363281 C10.650754928588867 6.736554145812988 14.176576614379883 6.527944564819336 17.387903213500977 7.921046257019043"></path>
<path fill="none" stroke="black" stroke-width=".3" stroke-opacity="1.0"  filling="0" d="M12.020939826965332 10.429104804992676 C15.037879943847656 10.090904235839844 16.052480697631836 10.88978385925293 16.665668487548828 14.4345703125 C13.956902503967285 14.4345703125 11.561050415039062 14.4345703125 9.157297134399414 14.4345703125 C8.35446548461914 11.615968704223633 9.759420394897461 10.681965827941895 12.020939826965332 10.429104804992676"></path></svg>