<svg xmlns="http://www.w3.org/2000/svg" viewBox="0.0 0.0 24.0 24.0" height="200px" width="200px"><path fill="none" stroke="black" stroke-width=".3" stroke-opacity="1.0"  filling="0" d="M6.059990882873535 3.1839475631713867 C6.943032264709473 3.1839475631713867 7.8442511558532715 3.1839475631713867 8.949519157409668 3.1839475631713867 C8.949519157409668 5.296563625335693 8.949519157409668 7.315362930297852 8.949519157409668 9.320676803588867 C10.668694496154785 8.950104713439941 12.18909740447998 8.38427734375 13.722987174987793 8.342646598815918 C16.568538665771484 8.26524829864502 17.94411277770996 9.493062973022461 18.09539222717285 12.300503730773926 C18.267780303955078 15.493759155273438 18.135265350341797 18.704021453857422 18.135265350341797 22.138267517089844 C17.077489852905273 22.21566390991211 16.15399169921875 22.283096313476562 14.77841567993164 22.38336181640625 C14.77841567993164 19.445751190185547 14.814183235168457 16.662353515625 14.767862319946289 13.880127906799316 C14.726231575012207 11.381694793701172 12.905031204223633 10.247108459472656 10.671041488647461 11.263252258300781 C9.273184776306152 11.89885425567627 9.134220123291016 13.218727111816406 9.080276489257812 14.47234058380127 C8.988805770874023 16.61251449584961 9.051545143127441 18.7585506439209 9.031608581542969 20.901657104492188 C9.02867603302002 21.27457618713379 8.936033248901367 21.644561767578125 8.862153053283691 22.17814064025879 C7.957416534423828 22.233844757080078 7.120696067810059 22.284854888916016 6.059990882873535 22.349939346313477 C6.059990882873535 15.925312995910645 6.059990882873535 9.651378631591797 6.059990882873535 3.1839475631713867"></path></svg>