<svg xmlns="http://www.w3.org/2000/svg" viewBox="0.0 0.0 24.0 24.0" height="200px" width="200px"><path fill="none" stroke="black" stroke-width=".3" stroke-opacity="1.0"  filling="0" d="M7.917137145996094 11.875102043151855 L7.917137145996094 11.875102043151855 C8.126111030578613 12.407025337219238 8.33508586883545 12.938948631286621 8.544059753417969 13.470871925354004 L8.511478424072266 13.408329010009766 C8.129741668701172 15.451050758361816 8.168503761291504 16.79485511779785 8.663902282714844 18.815818786621094 L8.663902282714844 18.815818786621094 C8.232096672058105 18.860509872436523 7.800291538238525 18.905200958251953 7.368485927581787 18.949892044067383 L7.368485927581787 18.949892044067383 C7.2961506843566895 16.754745483398438 7.4612135887146 14.75783634185791 6.883875846862793 12.618870735168457 L6.883875846862793 12.618870735168457 C7.228296279907227 12.37094783782959 7.57271671295166 12.123024940490723 7.917137145996094 11.875102043151855 L7.917137145996094 11.875102043151855"></path>
<path fill="none" stroke="black" stroke-width=".3" stroke-opacity="1.0"  filling="0" d="M16.022192001342773 11.984832763671875 L16.022192001342773 11.984832763671875 C17.77973175048828 13.715819358825684 16.997638702392578 16.566429138183594 17.683500289916992 18.888099670410156 L17.683500289916992 18.888099670410156 C17.168304443359375 18.888099670410156 16.65311050415039 18.888099670410156 16.137914657592773 18.888099670410156 L16.137914657592773 18.888099670410156 C16.221525192260742 17.493513107299805 17.125396728515625 13.50111198425293 15.241056442260742 12.811241149902344 C14.739358901977539 12.627565383911133 14.177654266357422 12.70671272277832 13.645953178405762 12.654448509216309 L13.645953178405762 12.654448509216309 C14.333826065063477 12.202739715576172 15.200075149536133 11.948302268981934 16.022192001342773 11.984832763671875 L16.022192001342773 11.984832763671875"></path>
<path fill="none" stroke="black" stroke-width=".3" stroke-opacity="1.0"  filling="0" d="M11.568194389343262 12.070594787597656 L11.568194389343262 12.070594787597656 C13.479951858520508 14.013382911682129 12.188584327697754 16.522876739501953 13.302157402038574 18.870872497558594 L13.302157402038574 18.870872497558594 C12.740273475646973 18.870872497558594 12.178390502929688 18.870872497558594 11.616506576538086 18.870872497558594 L11.616506576538086 18.870872497558594 C11.685392379760742 17.737642288208008 12.003973007202148 16.10391616821289 11.858609199523926 14.831039428710938 C11.713245391845703 13.558162689208984 11.103936195373535 12.646135330200195 9.31704044342041 12.956299781799316 C9.0137300491333 13.008947372436523 8.779998779296875 13.257402420043945 8.511478424072266 13.407954216003418 L8.511478424072266 13.407954216003418 C8.52221393585205 13.428926467895508 8.532950401306152 13.449899673461914 8.543685913085938 13.470871925354004 L8.543685913085938 13.470871925354004 C9.55747127532959 12.25323486328125 9.958431243896484 11.90627670288086 11.568194389343262 12.070594787597656 L11.568194389343262 12.070594787597656"></path></svg>