<svg xmlns="http://www.w3.org/2000/svg" viewBox="0.0 0.0 24.0 24.0" height="200px" width="200px"><path fill="none" stroke="black" stroke-width=".3" stroke-opacity="1.0"  filling="0" d="M11.930794715881348 9.318312644958496 L11.930794715881348 9.318312644958496 C13.520377159118652 9.381776809692383 15.754825592041016 9.150247573852539 16.736234664916992 10.806180000305176 C17.595293045043945 12.255669593811035 17.86324119567871 14.461098670959473 17.421741485595703 16.358407974243164 C16.980241775512695 18.255718231201172 15.829292297363281 19.844907760620117 13.850555419921875 20.061920166015625 C12.329336166381836 20.228755950927734 9.738855361938477 20.289966583251953 8.500943183898926 19.074678421020508 C7.625705242156982 18.215435028076172 7.1869401931762695 16.24452781677246 7.252192974090576 14.324254989624023 C7.317446231842041 12.403982162475586 7.886717796325684 10.534345626831055 9.02755355834961 9.877643585205078 C10.029196739196777 9.301065444946289 10.854669570922852 9.372209548950195 11.930794715881348 9.318312644958496 L11.930794715881348 9.318312644958496"></path>
<path fill="none" stroke="black" stroke-width=".3" stroke-opacity="1.0"  filling="0" d="M11.258520126342773 11.454224586486816 L11.258520126342773 11.454224586486816 C12.443963050842285 11.299878120422363 13.38593864440918 10.787178039550781 14.22983455657959 12.022210121154785 C15.181028366088867 13.41427230834961 15.176153182983398 17.524858474731445 13.215761184692383 18.115997314453125 C10.686798095703125 18.878583908081055 10.165060997009277 16.735824584960938 10.125178337097168 14.96569538116455 C10.113253593444824 14.436452865600586 9.915342330932617 12.923700332641602 10.203536987304688 12.396462440490723 C10.429683685302734 11.982736587524414 10.906859397888184 11.768303871154785 11.258520126342773 11.454224586486816 L11.258520126342773 11.454224586486816"></path></svg>