<svg xmlns="http://www.w3.org/2000/svg" viewBox="0.0 0.0 24.0 24.0" height="200px" width="200px"><path fill="none" stroke="black" stroke-width=".3" stroke-opacity="1.0"  filling="0" d="M9.074285507202148 7.43585205078125 C11.724905014038086 7.223058223724365 14.458053588867188 7.3306684494018555 17.085208892822266 7.740074634552002 C19.45507049560547 8.109025001525879 20.866952896118164 9.650365829467773 20.230998992919922 12.45633316040039 C18.615222930908203 12.80424690246582 17.385385513305664 12.826092720031738 15.797119140625 11.717622756958008 C14.373098373413086 10.724044799804688 12.06958293914795 10.486167907714844 10.24748420715332 10.703817367553711 C8.317774772644043 10.933602333068848 8.456131935119629 12.66589069366455 9.342907905578613 14.574563980102539 C11.521821022033691 14.792211532592773 13.902200698852539 15.013906478881836 16.279342651367188 15.270391464233398 C19.634693145751953 15.632059097290039 20.979419708251953 16.911251068115234 21.24480628967285 19.945384979248047 C21.539318084716797 23.31934356689453 20.18488311767578 25.687583923339844 16.965463638305664 26.18194580078125 C14.092339515686035 26.622905731201172 11.063868522644043 26.63909149169922 8.180228233337402 26.258811950683594 C5.04980993270874 25.845359802246094 4.345890522003174 24.449661254882812 4.4648284912109375 20.63555145263672 C6.252945423126221 20.438129425048828 7.946396350860596 19.726119995117188 9.111504554748535 22.22220230102539 C9.812995910644531 23.72470474243164 14.521971702575684 24.042682647705078 15.708925247192383 22.83550262451172 C16.260732650756836 22.273983001708984 16.634540557861328 21.099166870117188 16.443592071533203 20.37259292602539 C16.26154327392578 19.68161964416504 15.300329208374023 18.844196319580078 14.570518493652344 18.719594955444336 C12.730619430541992 18.404855728149414 10.803337097167969 18.612794876098633 8.955347061157227 18.327180862426758 C5.179266452789307 17.74300765991211 4.125814914703369 16.37724494934082 4.221289157867432 12.639189720153809 C4.307054042816162 9.295170783996582 5.570871829986572 7.717419624328613 9.074285507202148 7.43585205078125"></path></svg>