<svg xmlns="http://www.w3.org/2000/svg" viewBox="0.0 0.0 24.0 24.0" height="200px" width="200px"><path fill="none" stroke="black" stroke-width=".3" stroke-opacity="1.0"  filling="0" d="M14.964576721191406 9.5274019241333 L14.964576721191406 9.5274019241333 C15.693957328796387 9.5274019241333 16.423337936401367 9.5274019241333 17.15271759033203 9.5274019241333 L17.15271759033203 9.5274019241333 C17.15271759033203 11.310070037841797 17.15271759033203 13.092737197875977 17.15271759033203 14.875404357910156 C17.15271759033203 16.658071517944336 17.15271759033203 18.440738677978516 17.15271759033203 20.223405838012695 L17.15271759033203 20.223405838012695 C16.622955322265625 20.245933532714844 16.045480728149414 20.511865615844727 15.563433647155762 20.290990829467773 C15.092373847961426 20.075149536132812 14.93048095703125 19.47043800354004 14.614004135131836 19.060161590576172 L14.614004135131836 19.060161590576172 C14.287237167358398 19.24650764465332 13.176291465759277 19.911096572875977 12.795259475708008 20.006004333496094 C9.792508125305176 20.753936767578125 8.282901763916016 19.151275634765625 7.6552839279174805 16.855899810791016 C7.027666091918945 14.560523986816406 7.282037734985352 11.572436332702637 7.807241916656494 9.549518585205078 L7.807241916656494 9.549518585205078 C8.610343933105469 9.549518585205078 9.413446426391602 9.549518585205078 10.216547966003418 9.549518585205078 L10.216547966003418 9.549518585205078 C10.216547966003418 10.86938190460205 10.216547966003418 12.18924617767334 10.216547966003418 13.509110450744629 C10.216547966003418 14.828974723815918 10.216547966003418 16.14883804321289 10.216547966003418 17.46870231628418 L10.216547966003418 17.46870231628418 C10.929879188537598 17.62506866455078 11.627538681030273 17.89484405517578 12.356542587280273 17.93779945373535 C14.297140121459961 18.052146911621094 14.734386444091797 16.477384567260742 14.793864250183105 14.61011791229248 C14.853342056274414 12.742850303649902 14.535051345825195 10.583076477050781 14.964576721191406 9.5274019241333 L14.964576721191406 9.5274019241333"></path></svg>