<svg xmlns="http://www.w3.org/2000/svg" viewBox="0.0 0.0 24.0 24.0" height="200px" width="200px"><path fill="none" stroke="black" stroke-width=".3" stroke-opacity="1.0"  filling="0" d="M14.42951488494873 7.014233589172363 L14.42951488494873 7.014233589172363 C14.429655075073242 8.800261497497559 14.429736137390137 10.586289405822754 14.42978286743164 12.372316360473633 C14.429829597473145 14.158344268798828 14.429841995239258 15.944372177124023 14.42984390258789 17.73040008544922 L14.42984390258789 17.73040008544922 C13.672277450561523 17.73040008544922 12.914711952209473 17.73040008544922 12.157145500183105 17.73040008544922 L12.157145500183105 17.73040008544922 C12.157145500183105 16.34309959411621 12.157145500183105 14.95580005645752 12.157145500183105 13.568499565124512 C12.157145500183105 12.18120002746582 12.157145500183105 10.793899536132812 12.157145500183105 9.406599044799805 L12.157145500183105 9.406599044799805 C10.92785358428955 10.155465126037598 9.69852352142334 10.904268264770508 8.469148635864258 11.652996063232422 L8.469148635864258 11.652996063232422 C8.469148635864258 10.985400199890137 8.469148635864258 10.317804336547852 8.469148635864258 9.650208473205566 L8.469148635864258 9.650208473205566 C10.59962272644043 8.286401748657227 11.810973167419434 7.093166828155518 14.42951488494873 7.014233589172363 L14.42951488494873 7.014233589172363"></path></svg>