<svg xmlns="http://www.w3.org/2000/svg" viewBox="0.0 0.0 24.0 24.0" height="200px" width="200px"><path fill="none" stroke="black" stroke-width=".3" stroke-opacity="1.0"  filling="0" d="M9.762106895446777 3.0710010528564453 C11.433683395385742 2.9005699157714844 13.15153694152832 2.951359748840332 14.826501846313477 3.1178407669067383 C16.893680572509766 3.323261260986328 18.638622283935547 4.104872703552246 19.17869758605957 6.4423723220825195 C19.74190902709961 8.880324363708496 19.075420379638672 10.66025447845459 16.901018142700195 12.238716125488281 C19.41684913635254 13.843137741088867 20.135255813598633 15.827359199523926 19.311880111694336 18.898502349853516 C18.79099464416504 20.842090606689453 17.313549041748047 21.881607055664062 14.520627975463867 22.083078384399414 C13.025125503540039 22.191431045532227 11.507048606872559 22.196510314941406 10.012674331665039 22.077434539794922 C6.027864456176758 21.76083755493164 4.739474296569824 20.105628967285156 5.116453647613525 15.731985092163086 C6.072447299957275 15.731985092163086 7.047628402709961 15.731985092163086 8.000235557556152 15.731985092163086 C9.066274642944336 19.152454376220703 9.693257331848145 19.564424514770508 13.218693733215332 19.223562240600586 C15.4766206741333 19.005163192749023 16.065792083740234 18.3708438873291 16.005407333374023 16.222396850585938 C15.94953727722168 14.235353469848633 15.489601135253906 13.820562362670898 13.138557434082031 13.698101997375488 C12.499723434448242 13.66480541229248 11.858068466186523 13.693021774291992 11.055575370788574 13.693021774291992 C11.055575370788574 12.698089599609375 11.055575370788574 11.918169975280762 11.055575370788574 11.155746459960938 C16.134641647338867 10.467249870300293 16.320873260498047 10.260701179504395 15.27966594696045 6.598129749298096 C11.135712623596191 5.0332136154174805 9.1972017288208 5.693492889404297 8.298770904541016 9.070507049560547 C7.415013313293457 9.070507049560547 6.502474784851074 9.070507049560547 5.601222515106201 9.070507049560547 C4.871530055999756 5.251613616943359 6.075833320617676 3.446287155151367 9.762106895446777 3.0710010528564453"></path></svg>