<svg xmlns="http://www.w3.org/2000/svg" viewBox="0.0 0.0 24.0 24.0" height="200px" width="200px"><path fill="none" stroke="black" stroke-width=".3" stroke-opacity="1.0"  filling="0" d="M13.894551277160645 7.2649078369140625 L13.894551277160645 7.2649078369140625 C14.283195495605469 9.399418830871582 14.671921730041504 11.533909797668457 15.060029983520508 13.668519020080566 C15.137514114379883 14.094684600830078 15.501220703125 16.67745590209961 15.731673240661621 17.033594131469727 C16.028425216674805 17.492189407348633 16.59507179260254 17.70294189453125 17.026771545410156 18.037616729736328 L17.026771545410156 18.037616729736328 C15.846463203430176 18.037616729736328 14.666154861450195 18.037616729736328 13.485846519470215 18.037616729736328 L13.485846519470215 18.037616729736328 C13.850565910339355 17.80142593383789 14.215286254882812 17.565237045288086 14.580005645751953 17.32904624938965 L14.580005645751953 17.32904624938965 C14.565252304077148 17.233591079711914 14.076407432556152 14.071060180664062 14.07113265991211 14.036938667297363 L14.07113265991211 14.036938667297363 C13.433062553405762 14.036826133728027 11.47877025604248 14.036633491516113 10.851903915405273 14.03661823272705 L10.851903915405273 14.03661823272705 C10.322049140930176 15.127670288085938 9.792200088500977 16.218725204467773 9.26235580444336 17.309783935546875 L9.26235580444336 17.309783935546875 C9.773476600646973 17.561491012573242 10.284598350524902 17.813199996948242 10.795719146728516 18.06490707397461 L10.795719146728516 18.06490707397461 C9.53760814666748 18.06490707397461 8.279497146606445 18.06490707397461 7.021385669708252 18.06490707397461 L7.021385669708252 18.06490707397461 C8.673060417175293 16.855770111083984 9.853034019470215 15.016103744506836 10.889246940612793 13.048553466796875 C11.925460815429688 11.081003189086914 12.817914962768555 8.98557186126709 13.894551277160645 7.2649078369140625 L13.894551277160645 7.2649078369140625"></path>
<path fill="none" stroke="black" stroke-width=".3" stroke-opacity="1.0"  filling="0" d="M13.066548347473145 9.789690017700195 L13.066548347473145 9.789690017700195 C13.170677185058594 9.798893928527832 13.274806022644043 9.808097839355469 13.378934860229492 9.817301750183105 L13.378934860229492 9.817301750183105 C13.549907684326172 10.953401565551758 13.720812797546387 12.08951187133789 13.891661643981934 13.225630760192871 L13.891661643981934 13.225630760192871 C13.810422897338867 13.225630760192871 11.396085739135742 13.225630760192871 11.350183486938477 13.225630760192871 L11.350183486938477 13.225630760192871 C11.92237663269043 12.080352783203125 12.494502067565918 10.935041427612305 13.066548347473145 9.789690017700195 L13.066548347473145 9.789690017700195"></path></svg>