<svg xmlns="http://www.w3.org/2000/svg" viewBox="0.0 0.0 24.0 24.0" height="200px" width="200px"><path fill="none" stroke="black" stroke-width=".3" stroke-opacity="1.0"  filling="0" d="M9.22818660736084 7.365678310394287 L9.22818660736084 7.365678310394287 C11.535160064697266 7.365678310394287 13.842130661010742 7.365678310394287 16.149105072021484 7.365678310394287 L16.149105072021484 7.365678310394287 C16.18532943725586 7.935767650604248 16.221553802490234 8.50585651397705 16.25777816772461 9.075945854187012 L16.25777816772461 9.075945854187012 C14.626601219177246 8.017011642456055 13.685785293579102 7.7806549072265625 11.741902351379395 7.855367183685303 L11.741902351379395 7.855367183685303 C11.54886531829834 9.24390983581543 11.355905532836914 10.632466316223145 11.163087844848633 12.021038055419922 L11.163087844848633 12.021038055419922 C12.979607582092285 12.302194595336914 13.710268020629883 12.277568817138672 15.306229591369629 11.341835021972656 L15.306229591369629 11.341835021972656 C15.263415336608887 12.223807334899902 15.220561981201172 13.105777740478516 15.177677154541016 13.987747192382812 L15.177677154541016 13.987747192382812 C13.646474838256836 12.781023025512695 12.95527172088623 12.79417896270752 11.037849426269531 12.864908218383789 L11.037849426269531 12.864908218383789 C10.823823928833008 14.395601272583008 10.609742164611816 15.926285743713379 10.395753860473633 17.456985473632812 L10.395753860473633 17.456985473632812 C12.925102233886719 17.615346908569336 14.180561065673828 17.797433853149414 15.912875175476074 15.785483360290527 L15.912875175476074 15.785483360290527 C15.80029582977295 16.386260986328125 15.922974586486816 17.085205078125 15.5751371383667 17.58781623840332 C14.986002922058105 18.439090728759766 13.33303165435791 18.125438690185547 12.619421005249023 18.0870304107666 C10.97246265411377 17.998388290405273 9.327027320861816 17.8769588470459 7.681259632110596 17.769088745117188 L7.681259632110596 17.769088745117188 C7.674191474914551 17.67267417907715 7.667123317718506 17.576261520385742 7.660055160522461 17.479846954345703 L7.660055160522461 17.479846954345703 C8.196791648864746 17.344337463378906 8.733527183532715 17.208829879760742 9.270263671875 17.073320388793945 L9.270263671875 17.073320388793945 C9.503124237060547 15.595315933227539 9.735947608947754 14.117304801940918 9.968749046325684 12.639290809631348 C10.201550483703613 11.161275863647461 10.434329986572266 9.683258056640625 10.667104721069336 8.205240249633789 L10.667104721069336 8.205240249633789 C10.170899391174316 7.996730327606201 9.674694061279297 7.788219928741455 9.178488731384277 7.579710006713867 L9.178488731384277 7.579710006713867 C9.19505500793457 7.508366107940674 9.211620330810547 7.4370222091674805 9.22818660736084 7.365678310394287 L9.22818660736084 7.365678310394287"></path></svg>