<svg xmlns="http://www.w3.org/2000/svg" viewBox="0.0 0.0 24.0 24.0" height="200px" width="200px"><path fill="none" stroke="black" stroke-width=".3" stroke-opacity="1.0"  filling="0" d="M9.7255859375 7.057255744934082 L9.7255859375 7.057255744934082 C12.134427070617676 7.057255744934082 14.543261528015137 7.057255744934082 16.952102661132812 7.057255744934082 L16.952102661132812 7.057255744934082 C16.893163681030273 7.575122833251953 16.8342227935791 8.092989921569824 16.775283813476562 8.610857009887695 L16.775283813476562 8.610857009887695 C15.057454109191895 8.610857009887695 13.33962631225586 8.610857009887695 11.621794700622559 8.610857009887695 L11.621794700622559 8.610857009887695 C11.579521179199219 8.773576736450195 10.885828018188477 11.443615913391113 10.85134506225586 11.576335906982422 L10.85134506225586 11.576335906982422 C12.470792770385742 11.576335906982422 14.090242385864258 11.576335906982422 15.70969009399414 11.576335906982422 L15.70969009399414 11.576335906982422 C15.637492179870605 12.159605026245117 15.565293312072754 12.742873191833496 15.493095397949219 13.326142311096191 L15.493095397949219 13.326142311096191 C13.84913444519043 13.326142311096191 12.205175399780273 13.326142311096191 10.561214447021484 13.326142311096191 L10.561214447021484 13.326142311096191 C10.20661449432373 14.836523056030273 9.851950645446777 16.346887588500977 9.497291564941406 17.857255935668945 L9.497291564941406 17.857255935668945 C8.802717208862305 17.857460021972656 8.108142852783203 17.857563018798828 7.413568019866943 17.857589721679688 L7.413568019866943 17.857589721679688 C7.7988786697387695 16.05752944946289 8.184224128723145 14.257474899291992 8.569571495056152 12.45742130279541 C8.954917907714844 10.657368659973145 9.340267181396484 8.857315063476562 9.7255859375 7.057255744934082 L9.7255859375 7.057255744934082"></path></svg>