<svg xmlns="http://www.w3.org/2000/svg" viewBox="0.0 0.0 24.0 24.0" height="200px" width="200px"><path fill="none" stroke="black" stroke-width=".3" stroke-opacity="1.0"  filling="0" d="M17.704769134521484 4.068777561187744 C18.599769592285156 4.3389763832092285 19.4919376373291 4.618238925933838 20.60162353515625 4.959811210632324 C20.60162353515625 6.415034770965576 20.60162353515625 7.942198276519775 20.60162353515625 9.676117897033691 C20.32122802734375 9.38099479675293 20.046497344970703 9.22805118560791 20.001182556152344 9.024127006530762 C19.421131134033203 6.41333532333374 17.847517013549805 4.965476036071777 15.167617797851562 4.631267547607422 C12.072505950927734 4.2449445724487305 9.5228910446167 5.1467413902282715 7.85977840423584 7.820410251617432 C6.321286678314209 10.293554306030273 5.729340553283691 13.026700019836426 6.41758394241333 15.941678047180176 C7.285959243774414 19.619670867919922 9.965859413146973 21.767671585083008 13.692002296447754 21.768238067626953 C16.04732322692871 21.76880645751953 16.574125289916992 21.325836181640625 17.001800537109375 18.954654693603516 C17.14964485168457 18.132160186767578 17.269733428955078 17.305702209472656 17.417011260986328 16.39371109008789 C16.706111907958984 15.972267150878906 16.09320640563965 15.608602523803711 15.09737777709961 15.018357276916504 C17.277095794677734 15.018357276916504 19.05123519897461 15.018357276916504 21.323287963867188 15.018357276916504 C18.427001953125 16.958465576171875 18.600902557373047 19.38799285888672 19.460216522216797 22.033906936645508 C17.577320098876953 22.265586853027344 15.738604545593262 22.548248291015625 13.88969612121582 22.707422256469727 C9.58690071105957 23.076751708984375 6.0697808265686035 21.2963809967041 4.68253231048584 18.118000030517578 C3.0534067153930664 14.384493827819824 3.8872289657592773 9.620038986206055 6.793711185455322 6.868198871612549 C9.885422706604004 3.94075870513916 13.503938674926758 2.7999162673950195 17.704769134521484 4.068777561187744"></path></svg>