<svg xmlns="http://www.w3.org/2000/svg" viewBox="0.0 0.0 24.0 24.0" height="200px" width="200px"><path fill="none" stroke="black" stroke-width=".3" stroke-opacity="1.0"  filling="0" d="M14.772502899169922 7.031693935394287 L14.772502899169922 7.031693935394287 C15.48790168762207 7.031693935394287 16.20330047607422 7.031693935394287 16.918699264526367 7.031693935394287 L16.918699264526367 7.031693935394287 C16.36189079284668 9.41801929473877 15.819442749023438 11.808039665222168 15.239383697509766 14.188867568969727 C15.039093971252441 15.010948181152344 14.864815711975098 16.41666603088379 14.129066467285156 17.07535743713379 C13.013721466064453 18.073888778686523 9.055904388427734 18.41826057434082 8.074722290039062 17.04288101196289 C7.4141645431518555 16.116939544677734 8.009191513061523 14.516079902648926 8.226072311401367 13.616947174072266 L8.226072311401367 13.616947174072266 C8.837944030761719 13.616947174072266 9.44981575012207 13.616947174072266 10.061687469482422 13.616947174072266 L10.061687469482422 13.616947174072266 C10.022134780883789 14.292192459106445 9.982645988464355 14.967440605163574 9.943227767944336 15.642693519592285 L9.943227767944336 15.642693519592285 C10.747828483581543 15.840081214904785 11.818938255310059 16.452913284301758 12.560654640197754 15.598991394042969 C13.063608169555664 15.019951820373535 13.42402172088623 13.053759574890137 13.564240455627441 12.444422721862793 C13.978797912597656 10.642914772033691 14.370757102966309 8.836084365844727 14.772502899169922 7.031693935394287 L14.772502899169922 7.031693935394287"></path></svg>