<svg xmlns="http://www.w3.org/2000/svg" viewBox="0.0 0.0 24.0 24.0" height="200px" width="200px"><path fill="none" stroke="black" stroke-width=".3" stroke-opacity="1.0"  filling="0" d="M16.400894165039062 4.1251678466796875 C19.60784339904785 4.629721164703369 21.144184112548828 7.546075344085693 20.471038818359375 10.557455062866211 C19.792987823486328 13.592744827270508 16.554773330688477 15.752575874328613 13.542780876159668 15.14073657989502 C13.177392959594727 15.06655502319336 12.858598709106445 14.763700485229492 12.479111671447754 14.543609619140625 C14.08473014831543 13.917669296264648 15.768823623657227 13.592743873596191 17.028060913085938 12.681727409362793 C18.448535919189453 11.654842376708984 18.477962493896484 9.827292442321777 18.162845611572266 8.173240661621094 C17.690784454345703 5.695228099822998 15.675636291503906 4.597839832305908 12.184226989746094 5.068674564361572 C11.346778869628906 10.447102546691895 10.491552352905273 15.936495780944824 9.624063491821289 21.504974365234375 C10.577381134033203 21.975196838378906 11.356588363647461 22.360200881958008 12.136407852172852 22.744592666625977 C12.089200973510742 22.872726440429688 12.0413818359375 23.000244140625 11.993562698364258 23.127761840820312 C9.578695297241211 23.127761840820312 7.1632161140441895 23.127761840820312 4.748349666595459 23.127761840820312 C7.3912763595581055 22.57293701171875 7.721719264984131 20.549819946289062 8.04419231414795 18.39059829711914 C8.68913745880127 14.074614524841309 9.461600303649902 9.77763557434082 10.208314895629883 5.315128803253174 C9.138514518737793 5.045379638671875 8.301679611206055 4.833872318267822 7.424382209777832 4.611941337585449 C7.51021146774292 4.437830924987793 7.572131156921387 4.191992282867432 7.640181541442871 4.190152645111084 C10.565732955932617 4.120262622833252 13.553815841674805 3.677016258239746 16.400894165039062 4.1251678466796875"></path></svg>