<svg xmlns="http://www.w3.org/2000/svg" viewBox="0.0 0.0 24.0 24.0" height="200px" width="200px"><path fill="none" stroke="black" stroke-width=".3" stroke-opacity="1.0"  filling="0" d="M12.29661750793457 2.840791702270508 C11.565926551818848 7.063189506530762 10.91843318939209 10.806556701660156 10.18309211730957 15.055826187133789 C12.021703720092773 13.519515991210938 13.473783493041992 12.307209968566895 14.886072158813477 11.127461433410645 C16.918981552124023 12.828615188598633 17.37579345703125 16.197336196899414 15.707712173461914 18.37803840637207 C14.704690933227539 19.689044952392578 13.286201477050781 20.833656311035156 11.818102836608887 21.601036071777344 C9.717496871948242 22.69965362548828 8.179120063781738 21.671831130981445 8.346031188964844 19.28390884399414 C8.560484886169434 16.21697425842285 9.119612693786621 13.173290252685547 9.551102638244629 10.122373580932617 C9.719047546386719 8.936423301696777 10.03685188293457 7.763908386230469 10.104028701782227 6.574856758117676 C10.139684677124023 5.933048248291016 9.790359497070312 5.269535541534424 9.555235862731934 4.392603874206543 C10.102478981018066 4.083067893981934 10.969076156616211 3.5926685333251953 12.29661750793457 2.840791702270508"></path>
<path fill="none" stroke="black" stroke-width=".3" stroke-opacity="1.0"  filling="0" d="M14.123859405517578 12.852903366088867 C15.606427192687988 15.365878105163574 15.208009719848633 18.66431999206543 13.214372634887695 19.961889266967773 C12.494016647338867 20.431102752685547 11.251222610473633 20.460041046142578 10.399612426757812 20.195980072021484 C10.026515007019043 20.08022689819336 9.728348731994629 18.636417388916016 9.929883003234863 17.953266143798828 C10.571691513061523 15.77979850769043 11.979330062866211 14.119467735290527 14.123859405517578 12.852903366088867"></path></svg>