<svg xmlns="http://www.w3.org/2000/svg" viewBox="0.0 0.0 24.0 24.0" height="200px" width="200px"><path fill="none" stroke="black" stroke-width=".3" stroke-opacity="1.0"  filling="0" d="M17.26738929748535 3.1751251220703125 C18.310848236083984 3.1751251220703125 19.32149887084961 3.1751251220703125 20.53662109375 3.1751251220703125 C19.165653228759766 9.577077865600586 17.826908111572266 15.8261137008667 16.470001220703125 22.164207458496094 C15.127740859985352 22.21576690673828 13.7011137008667 23.05358123779297 13.125190734863281 20.987754821777344 C11.356407165527344 22.284900665283203 9.397797584533691 22.625885009765625 7.308535099029541 22.09975814819336 C5.586622714996338 21.665618896484375 4.459381580352783 20.526660919189453 4.738848686218262 18.74323081970215 C5.141936302185059 16.172372817993164 5.554398059844971 13.520074844360352 6.542198657989502 11.143144607543945 C7.911409378051758 7.848133563995361 12.061224937438965 7.310878753662109 15.683158874511719 9.789167404174805 C16.23740577697754 7.4755120277404785 16.73247718811035 5.407928466796875 17.26738929748535 3.1751251220703125"></path>
<path fill="none" stroke="black" stroke-width=".3" stroke-opacity="1.0"  filling="0" d="M14.663134574890137 11.515768051147461 C15.192773818969727 13.929023742675781 14.603960037231445 16.25967025756836 13.452699661254883 18.410449981689453 C12.65824031829834 19.89449119567871 10.959177017211914 20.006982803344727 8.045577049255371 18.887357711791992 C8.281102180480957 17.361129760742188 8.39886474609375 15.918684005737305 8.738676071166992 14.530726432800293 C9.613987922668457 10.96210765838623 10.64865779876709 10.438913345336914 14.663134574890137 11.515768051147461"></path></svg>