<svg xmlns="http://www.w3.org/2000/svg" viewBox="0.0 0.0 24.0 24.0" height="200px" width="200px"><path fill="none" stroke="black" stroke-width=".3" stroke-opacity="1.0"  filling="0" d="M15.898232460021973 9.733856201171875 L15.898232460021973 9.733856201171875 C17.413869857788086 11.37291145324707 17.0750675201416 12.819345474243164 16.7828369140625 14.936179161071777 L16.7828369140625 14.936179161071777 C14.446850776672363 14.936179161071777 12.110867500305176 14.936179161071777 9.774883270263672 14.936179161071777 L9.774883270263672 14.936179161071777 C9.719579696655273 15.710500717163086 9.664289474487305 16.48482322692871 9.609020233154297 17.25914764404297 L9.609020233154297 17.25914764404297 C10.539117813110352 17.619075775146484 11.53375244140625 18.288766860961914 12.597846984863281 17.83526611328125 C14.372058868408203 17.079124450683594 14.23413372039795 16.264394760131836 16.370813369750977 16.45484161376953 L16.370813369750977 16.45484161376953 C16.16063117980957 17.02717399597168 16.080610275268555 17.665964126586914 15.740267753601074 18.171836853027344 C15.055803298950195 19.18920135498047 13.476048469543457 19.791259765625 11.859692573547363 19.915943145751953 C10.24333667755127 20.04062843322754 8.59037971496582 19.687936782836914 7.759509563446045 18.795799255371094 C6.787094593048096 17.751680374145508 7.117293357849121 15.849781036376953 7.36668062210083 14.656010627746582 C7.640699863433838 13.344332695007324 8.116338729858398 12.126731872558594 8.874372482299805 11.160344123840332 C9.632406234741211 10.193955421447754 10.672834396362305 9.478778839111328 12.076434135437012 9.171948432922363 C13.89829158782959 8.773685455322266 14.217645645141602 9.145711898803711 15.898232460021973 9.733856201171875 L15.898232460021973 9.733856201171875"></path>
<path fill="none" stroke="black" stroke-width=".3" stroke-opacity="1.0"  filling="0" d="M13.192198753356934 11.054183006286621 L13.192198753356934 11.054183006286621 C13.6434965133667 11.238768577575684 14.291667938232422 11.191994667053223 14.546092987060547 11.607938766479492 C14.83795166015625 12.085081100463867 14.553552627563477 12.726567268371582 14.557282447814941 13.285881042480469 L14.557282447814941 13.285881042480469 C13.228472709655762 13.285881042480469 11.899662017822266 13.285881042480469 10.570852279663086 13.285881996154785 L10.570852279663086 13.285881996154785 C11.048810958862305 11.42268180847168 11.277714729309082 11.226876258850098 13.192198753356934 11.054183006286621 L13.192198753356934 11.054183006286621"></path></svg>