<svg xmlns="http://www.w3.org/2000/svg" viewBox="0.0 0.0 24.0 24.0" height="200px" width="200px"><path fill="none" stroke="black" stroke-width=".3" stroke-opacity="1.0"  filling="0" d="M11.853957176208496 2.7572154998779297 C12.027806282043457 6.6450114250183105 10.466675758361816 9.975690841674805 10.45715618133545 13.593443870544434 C11.396039009094238 13.12199878692627 12.189128875732422 12.723699569702148 12.982219696044922 12.325401306152344 C12.049348831176758 13.374505043029785 11.116477966308594 14.423608779907227 10.002243995666504 15.67662239074707 C13.39354419708252 15.753776550292969 14.456174850463867 15.03984546661377 14.751266479492188 12.615483283996582 C14.129018783569336 12.547347068786621 13.509777069091797 12.480213165283203 12.890034675598145 12.412576675415039 C13.486730575561523 11.891031265258789 14.083427429199219 11.36898422241211 14.630524635314941 10.89102554321289 C17.457693099975586 12.582918167114258 16.898571014404297 13.940641403198242 12.366484642028809 16.56991195678711 C13.911081314086914 17.721721649169922 13.967695236206055 20.513320922851562 17.008291244506836 20.338470458984375 C16.3118953704834 20.85750961303711 15.615499496459961 21.376550674438477 14.836938858032227 21.95721435546875 C13.26228141784668 19.966724395751953 11.85295581817627 18.185152053833008 10.390522956848145 16.336444854736328 C9.076889038085938 18.031343460083008 10.209158897399902 20.311416625976562 7.782793998718262 21.24478530883789 C8.617968559265137 15.998266220092773 9.453143119812012 10.751245498657227 10.30986213684082 5.367950439453125 C9.646029472351074 5.254223346710205 9.148031234741211 5.169553279876709 8.176583290100098 5.003720760345459 C9.529796600341797 4.17706298828125 10.496735572814941 3.5863780975341797 11.853957176208496 2.7572154998779297"></path></svg>