<svg xmlns="http://www.w3.org/2000/svg" viewBox="0.0 0.0 24.0 24.0" height="200px" width="200px"><path fill="none" stroke="black" stroke-width=".3" stroke-opacity="1.0"  filling="0" d="M18.426860809326172 9.269623756408691 C21.113977432250977 14.526806831359863 18.095211029052734 18.677928924560547 18.090970993041992 23.184452056884766 C18.580387115478516 23.415163040161133 19.244531631469727 23.727304458618164 20.225906372070312 24.190425872802734 C18.439584732055664 25.536529541015625 16.810178756713867 26.76388168334961 14.546316146850586 28.469629287719727 C14.814349174499512 22.705215454101562 17.910303115844727 18.181730270385742 16.83816909790039 12.637004852294922 C10.446085929870605 16.04764175415039 9.07623291015625 22.617847442626953 6.071885585784912 27.935253143310547 C5.646085739135742 27.762222290039062 5.2202863693237305 27.59003448486328 4.795335292816162 27.417850494384766 C5.791129112243652 22.952041625976562 6.786075115203857 18.485387802124023 7.848030090332031 13.7210111618042 C6.556211948394775 13.837215423583984 5.795370578765869 13.905920028686523 4.237215518951416 14.045873641967773 C6.188089847564697 12.398656845092773 7.5961127281188965 11.210321426391602 9.003286361694336 10.021982192993164 C9.301007270812988 10.161088943481445 9.598727226257324 10.30019474029541 9.896448135375977 10.439299583435059 C9.721717834472656 12.85329532623291 9.546987533569336 15.268139839172363 9.376498222351074 17.620216369628906 C12.217141151428223 15.000106811523438 15.068811416625977 12.368122100830078 18.426860809326172 9.269623756408691"></path></svg>