<svg xmlns="http://www.w3.org/2000/svg" viewBox="0.0 0.0 24.0 24.0" height="200px" width="200px"><path fill="none" stroke="black" stroke-width=".3" stroke-opacity="1.0"  filling="0" d="M15.423481941223145 10.205690383911133 C16.094402313232422 10.341572761535645 16.58791732788086 11.355029106140137 17.86275863647461 12.707247734069824 C15.90284538269043 12.707247734069824 14.869572639465332 12.539281845092773 13.924057006835938 12.754429817199707 C12.966275215148926 12.972407341003418 11.607450485229492 13.363069534301758 11.315869331359863 14.053804397583008 C10.995979309082031 14.812481880187988 11.509313583374023 16.10525131225586 11.999999046325684 16.973390579223633 C12.526544570922852 17.903806686401367 13.466398239135742 18.59548568725586 14.195821762084961 19.4183292388916 C17.444732666015625 23.088098526000977 17.153152465820312 25.639671325683594 12.8218994140625 28.012893676757812 C11.163945198059082 28.921606063842773 9.051161766052246 29.084854125976562 7.112949848175049 29.3160457611084 C6.767582416534424 29.35662269592285 6.261797904968262 28.062910079956055 5.644665241241455 27.092857360839844 C7.847093105316162 27.092857360839844 9.542792320251465 27.204204559326172 11.21867561340332 27.066436767578125 C13.737218856811523 26.86072540283203 14.582710266113281 25.349977493286133 13.248419761657715 23.21454620361328 C12.261384963989258 21.634912490844727 10.85349178314209 20.32232666015625 9.660745620727539 18.867252349853516 C8.230205535888672 17.12342643737793 8.431199073791504 15.343744277954102 9.82871150970459 13.744295120239258 C11.332854270935059 12.022173881530762 12.551078796386719 9.625358581542969 15.423481941223145 10.205690383911133"></path></svg>