<svg xmlns="http://www.w3.org/2000/svg" viewBox="0.0 0.0 24.0 24.0" height="200px" width="200px"><path fill="none" stroke="black" stroke-width=".3" stroke-opacity="1.0"  filling="0" d="M18.218929290771484 7.7571258544921875 C20.598262786865234 7.974088668823242 21.3765869140625 9.869489669799805 20.702308654785156 12.453685760498047 C19.03274154663086 12.647257804870605 17.773712158203125 13.133610725402832 16.113018035888672 11.501952171325684 C15.029818534851074 10.438108444213867 12.420618057250977 10.567156791687012 10.578451156616211 10.806703567504883 C9.79690170288086 10.908329010009766 9.229894638061523 12.660161972045898 8.149919509887695 14.288593292236328 C10.76799201965332 14.654767990112305 12.569831848144531 14.946741104125977 14.38135051727295 15.149991989135742 C16.603404998779297 15.399215698242188 19.14888572692871 15.01207160949707 19.813488006591797 18.090686798095703 C20.377267837524414 20.699077606201172 18.97870445251465 24.311630249023438 16.6138916015625 25.37466812133789 C12.674681663513184 27.144248962402344 8.505607604980469 27.14505386352539 4.450257778167725 25.79972267150879 C2.438714027404785 25.132701873779297 2.207233428955078 23.85673713684082 2.9831371307373047 20.453081130981445 C4.2365217208862305 20.453081130981445 5.2874603271484375 20.453081130981445 6.2964582443237305 20.453081130981445 C7.895046710968018 23.271984100341797 9.82835578918457 24.047889709472656 12.835992813110352 23.206653594970703 C14.999975204467773 22.60173988342285 15.357278823852539 21.142684936523438 14.863667488098145 18.677051544189453 C13.047309875488281 18.602041244506836 11.222079277038574 18.578651428222656 9.404914855957031 18.440731048583984 C5.954480171203613 18.17779541015625 4.540592193603516 17.20589828491211 4.258299350738525 15.019331932067871 C3.8703460693359375 12.020566940307617 5.590724945068359 8.437857627868652 8.294291496276855 7.999092102050781 C11.538249015808105 7.472412586212158 14.936257362365723 7.457087993621826 18.218929290771484 7.7571258544921875"></path></svg>