<svg xmlns="http://www.w3.org/2000/svg" viewBox="0.0 0.0 24.0 24.0" height="200px" width="200px"><path fill="none" stroke="black" stroke-width=".3" stroke-opacity="1.0"  filling="0" d="M16.569965362548828 3.017025947570801 C18.3897647857666 3.1375865936279297 20.384716033935547 3.350275993347168 21.024490356445312 5.389586448669434 C21.687007904052734 7.500551223754883 20.940322875976562 9.502897262573242 19.522586822509766 11.17313003540039 C19.112564086914062 11.65594482421875 18.470516204833984 11.941994667053223 17.941068649291992 12.313915252685547 C20.88572883605957 15.065220832824707 19.683523178100586 20.71967315673828 15.6447114944458 21.68644142150879 C13.051501274108887 22.3068790435791 10.200105667114258 22.222145080566406 7.5124921798706055 21.961116790771484 C5.1285576820373535 21.729660034179688 4.409169673919678 20.40860366821289 4.573519706726074 17.940502166748047 C4.6173095703125 17.288217544555664 4.798720359802246 16.645601272583008 4.9573845863342285 15.777786254882812 C6.128309726715088 15.777786254882812 7.039346218109131 15.777786254882812 8.068099975585938 15.777786254882812 C8.138617515563965 16.821325302124023 8.200603485107422 17.734067916870117 8.287044525146484 19.005083084106445 C9.840696334838867 19.116544723510742 11.31587028503418 19.376434326171875 12.770002365112305 19.289424896240234 C14.929304122924805 19.160903930664062 15.950666427612305 17.947895050048828 16.111604690551758 15.79314136505127 C16.196338653564453 14.660317420959473 15.781198501586914 13.93922233581543 14.607427597045898 13.827191352844238 C13.678194046020508 13.738475799560547 12.74156665802002 13.728239059448242 11.563817024230957 13.671370506286621 C11.679828643798828 12.758628845214844 11.777643203735352 11.985783576965332 11.868632316589355 11.270376205444336 C17.364421844482422 10.423601150512695 17.477020263671875 10.325218200683594 17.253528594970703 6.699272155761719 C13.437070846557617 5.025057792663574 11.367051124572754 5.6563005447387695 9.890741348266602 9.079225540161133 C8.966055870056152 9.079225540161133 7.972560405731201 9.079225540161133 6.973377704620361 9.079225540161133 C7.225874900817871 5.021077632904053 8.716403007507324 3.4071435928344727 12.595983505249023 3.056264877319336 C13.911924362182617 2.9374094009399414 15.251180648803711 2.93001651763916 16.569965362548828 3.017025947570801"></path></svg>