<svg xmlns="http://www.w3.org/2000/svg" viewBox="0.0 0.0 24.0 24.0" height="200px" width="200px"><path fill="none" stroke="black" stroke-width=".3" stroke-opacity="1.0"  filling="0" d="M11.12502670288086 4.00883150100708 C13.850871086120605 4.00883150100708 16.168256759643555 4.00883150100708 18.52017593383789 4.00883150100708 C16.98874855041504 6.690020561218262 14.293270111083984 5.778428554534912 11.698418617248535 5.90108585357666 C11.182782173156738 7.3318867683410645 10.662382125854492 8.774596214294434 10.12947940826416 10.253030776977539 C11.989580154418945 11.222378730773926 13.723451614379883 11.958320617675781 15.276908874511719 12.971135139465332 C18.663076400756836 15.178366661071777 18.759536743164062 18.530597686767578 15.580574035644531 21.009342193603516 C13.8258638381958 22.377620697021484 11.869900703430176 23.371978759765625 9.573949813842773 23.185611724853516 C8.374173164367676 23.08855628967285 6.934441089630127 23.06057357788086 6.67781400680542 20.767005920410156 C7.609650135040283 20.991479873657227 8.264616012573242 21.223098754882812 8.936847686767578 21.29514503479004 C10.189021110534668 21.429710388183594 11.481683731079102 21.680383682250977 12.70051383972168 21.500564575195312 C14.413545608520508 21.247509002685547 15.432909965515137 20.063213348388672 15.785995483398438 18.31624412536621 C16.1551570892334 16.491273880004883 15.379321098327637 15.138472557067871 13.903863906860352 14.323934555053711 C12.27657413482666 13.425440788269043 10.486733436584473 12.8204927444458 8.450983047485352 11.952960968017578 C9.36793327331543 9.229497909545898 10.290839195251465 6.486385822296143 11.12502670288086 4.00883150100708"></path></svg>