<svg xmlns="http://www.w3.org/2000/svg" viewBox="0.0 0.0 24.0 24.0" height="200px" width="200px"><path fill="none" stroke="black" stroke-width=".3" stroke-opacity="1.0"  filling="0" d="M12.77889633178711 7.38054084777832 L12.77889633178711 7.38054084777832 C13.282447814941406 7.392555236816406 13.812440872192383 7.255105495452881 14.289549827575684 7.416584014892578 C17.336502075195312 8.447830200195312 14.61974048614502 11.216143608093262 13.443375587463379 12.251522064208984 L13.443375587463379 12.251522064208984 C13.597490310668945 12.423890113830566 14.846949577331543 13.790655136108398 14.962700843811035 14.037493705749512 C15.210190773010254 14.565261840820312 15.549240112304688 15.14205265045166 15.451114654541016 15.716650009155273 C15.222758293151855 17.053844451904297 13.716812133789062 17.919795989990234 12.22216510772705 18.054542541503906 C10.727518081665039 18.189289093017578 9.244171142578125 17.592830657958984 9.061013221740723 16.00520133972168 C8.988761901855469 15.37891960144043 9.438121795654297 14.786177635192871 9.777399063110352 14.25482177734375 C9.892017364501953 14.075313568115234 11.593465805053711 12.706844329833984 11.718887329101562 12.604310989379883 L11.718887329101562 12.604310989379883 C9.931268692016602 10.198934555053711 10.0368013381958 8.6907320022583 12.77889633178711 7.38054084777832 L12.77889633178711 7.38054084777832"></path>
<path fill="none" stroke="black" stroke-width=".3" stroke-opacity="1.0"  filling="0" d="M14.048015594482422 8.243935585021973 L14.048015594482422 8.243935585021973 C15.120529174804688 9.97930908203125 14.151376724243164 10.784305572509766 12.953482627868652 12.155516624450684 L12.953482627868652 12.155516624450684 C12.817765235900879 12.002586364746094 11.637454986572266 10.7210054397583 11.508134841918945 10.412286758422852 C10.693913459777832 8.468544006347656 12.574612617492676 7.75474739074707 14.048015594482422 8.243935585021973 L14.048015594482422 8.243935585021973"></path>
<path fill="none" stroke="black" stroke-width=".3" stroke-opacity="1.0"  filling="0" d="M12.212067604064941 12.809803009033203 L12.212067604064941 12.809803009033203 C12.90226936340332 13.493237495422363 14.365656852722168 14.554304122924805 14.385555267333984 15.67505931854248 C14.434799194335938 18.44873046875 9.296210289001465 17.594087600708008 10.511909484863281 14.711835861206055 C10.663783073425293 14.351765632629395 12.001680374145508 13.026946067810059 12.212067604064941 12.809803009033203 L12.212067604064941 12.809803009033203"></path></svg>