<svg xmlns="http://www.w3.org/2000/svg" viewBox="0.0 0.0 24.0 24.0" height="200px" width="200px"><path fill="none" stroke="black" stroke-width=".3" stroke-opacity="1.0"  filling="0" d="M8.046905517578125 3.603365898132324 C9.876581192016602 3.554119110107422 11.714945793151855 3.48227596282959 13.53650951385498 3.613215446472168 C14.763051986694336 3.701859474182129 16.045215606689453 3.9341907501220703 17.163415908813477 4.421446800231934 C19.8754825592041 5.602798938751221 20.224267959594727 8.955078125 17.88995361328125 10.762737274169922 C17.289138793945312 11.227977752685547 16.570133209228516 11.541420936584473 15.70222282409668 12.04200267791748 C16.570131301879883 12.613847732543945 17.367935180664062 13.083724021911621 18.104902267456055 13.635869979858398 C20.49135971069336 15.42383098602295 20.73180389404297 18.269733428955078 18.559133529663086 20.331741333007812 C17.748584747314453 21.100574493408203 16.69817352294922 21.75469398498535 15.639650344848633 22.098262786865234 C11.917147636413574 23.305686950683594 8.150033950805664 22.312633514404297 4.397983551025391 22.738475799560547 C4.380023002624512 22.400123596191406 4.362061977386475 22.061187744140625 4.343522548675537 21.722248077392578 C5.0845465660095215 21.611587524414062 5.825571060180664 21.500926971435547 6.978532791137695 21.328271865844727 C7.844702243804932 16.029861450195312 8.724777221679688 10.648599624633789 9.633241653442383 5.094104766845703 C8.52952766418457 4.821797847747803 7.661039352416992 4.607428073883057 6.113521575927734 4.225038051605225 C7.164513111114502 3.8762521743774414 7.602522373199463 3.615532875061035 8.046905517578125 3.603365898132324"></path>
<path fill="none" stroke="black" stroke-width=".3" stroke-opacity="1.0"  filling="0" d="M11.717842102050781 4.923189640045166 C13.6222562789917 4.547752857208252 15.518560409545898 4.42434549331665 16.444406509399414 6.156684875488281 C16.971059799194336 7.143365859985352 16.901535034179688 8.891347885131836 16.365612030029297 9.909894943237305 C15.254364013671875 12.021726608276367 13.098501205444336 11.862977981567383 10.652946472167969 11.536787033081055 C11.037652969360352 9.145695686340332 11.37137508392334 7.0744194984436035 11.717842102050781 4.923189640045166"></path>
<path fill="none" stroke="black" stroke-width=".3" stroke-opacity="1.0"  filling="0" d="M10.783306121826172 12.700178146362305 C12.232909202575684 12.944095611572266 13.564898490905762 13.035638809204102 14.812299728393555 13.409917831420898 C16.454833984375 13.903546333312988 17.31521224975586 15.185708999633789 17.385894775390625 16.883285522460938 C17.459476470947266 18.655603408813477 16.799564361572266 20.119112014770508 15.09619426727295 20.86766815185547 C14.321565628051758 21.207763671875 13.46292781829834 21.458053588867188 12.62398910522461 21.529319763183594 C9.732314109802246 21.774972915649414 9.22246265411377 21.17705535888672 9.656415939331055 18.279586791992188 C9.856302261352539 16.947017669677734 10.030694961547852 15.610392570495605 10.249699592590332 14.280721664428711 C10.311113357543945 13.907022476196289 10.490140914916992 13.553022384643555 10.783306121826172 12.700178146362305"></path></svg>