<svg xmlns="http://www.w3.org/2000/svg" viewBox="0.0 0.0 24.0 24.0" height="200px" width="200px"><path fill="none" stroke="black" stroke-width=".3" stroke-opacity="1.0"  filling="0" d="M4.78533935546875 3.1107006072998047 C8.75312614440918 3.1107006072998047 12.625801086425781 2.900057792663574 16.46346664428711 3.175469398498535 C19.672122955322266 3.4059505462646484 21.382354736328125 5.2579731941223145 21.622756958007812 8.488801002502441 C21.83806800842285 11.379449844360352 21.800724029541016 14.315610885620117 21.559154510498047 17.205677032470703 C21.319339752197266 20.077072143554688 19.2158260345459 21.95068359375 15.976247787475586 22.129234313964844 C12.31538200378418 22.331125259399414 8.635259628295898 22.175914764404297 4.785339832305908 22.175914764404297 C4.78533935546875 15.767354965209961 4.78533935546875 9.520425796508789 4.78533935546875 3.1107006072998047"></path>
<path fill="none" stroke="black" stroke-width=".3" stroke-opacity="1.0"  filling="0" d="M9.151071548461914 7.066816329956055 C11.220738410949707 7.066816329956055 13.220969200134277 6.899935245513916 15.164600372314453 7.156674385070801 C15.853128433227539 7.247116565704346 16.872499465942383 8.328338623046875 16.934932708740234 9.029119491577148 C17.146743774414062 11.406290054321289 17.164831161499023 13.835392951965332 16.888254165649414 16.20089340209961 C16.801311492919922 16.94426918029785 15.626147270202637 17.99631690979004 14.819169998168945 18.131105422973633 C13.057589530944824 18.425771713256836 11.213735580444336 18.222129821777344 9.151655197143555 18.222129821777344 C9.151655197143555 14.359957695007324 9.151655197143555 10.901565551757812 9.151071548461914 7.066816329956055"></path></svg>