<svg xmlns="http://www.w3.org/2000/svg" viewBox="0.0 0.0 24.0 24.0" height="200px" width="200px"><path fill="none" stroke="black" stroke-width=".3" stroke-opacity="1.0"  filling="0" d="M9.346979141235352 7.303489685058594 L9.346979141235352 7.303489685058594 C11.742053985595703 7.303489685058594 14.137128829956055 7.303489685058594 16.532203674316406 7.303489685058594 L16.532203674316406 7.303489685058594 C16.565282821655273 7.999804496765137 16.59836769104004 8.69611930847168 16.63146209716797 9.392433166503906 L16.63146209716797 9.392433166503906 C15.057815551757812 8.04704475402832 14.236262321472168 7.8821702003479 12.166717529296875 7.967467308044434 L12.166717529296875 7.967467308044434 C11.963484764099121 9.418988227844238 11.760241508483887 10.870508193969727 11.557026863098145 12.322031021118164 L11.557026863098145 12.322031021118164 C13.329906463623047 12.415362358093262 14.101862907409668 12.438486099243164 15.61220645904541 11.469813346862793 L15.61220645904541 11.469813346862793 C15.61220645904541 12.375889778137207 15.61220645904541 13.281967163085938 15.61220645904541 14.188043594360352 L15.61220645904541 14.188043594360352 C14.080252647399902 12.978853225708008 13.387092590332031 12.983322143554688 11.469331741333008 13.0338716506958 L11.469331741333008 13.0338716506958 C11.260066986083984 14.345545768737793 11.0508394241333 15.657225608825684 10.841652870178223 16.96891212463379 L10.841652870178223 16.96891212463379 C13.211718559265137 17.779088973999023 14.395776748657227 17.46426010131836 16.434228897094727 16.041526794433594 L16.434228897094727 16.041526794433594 C16.348031997680664 16.533287048339844 16.435380935668945 17.090435028076172 16.175640106201172 17.51680564880371 C15.617510795593262 18.432987213134766 14.061115264892578 18.07894515991211 13.367035865783691 18.051815032958984 C11.555742263793945 17.98101806640625 9.7460298538208 17.855281829833984 7.936468601226807 17.751102447509766 L7.936468601226807 17.751102447509766 C7.924797058105469 17.63824462890625 7.913125991821289 17.5253849029541 7.901454448699951 17.412527084350586 L7.901454448699951 17.412527084350586 C8.4603910446167 17.287355422973633 9.019327163696289 17.162185668945312 9.578263282775879 17.03701400756836 L9.578263282775879 17.03701400756836 C9.80844497680664 15.552730560302734 10.03860092163086 14.068443298339844 10.268754005432129 12.584155082702637 C10.498907089233398 11.099867820739746 10.729055404663086 9.615579605102539 10.959221839904785 8.131293296813965 L10.959221839904785 8.131293296813965 C10.417524337768555 7.978388786315918 9.87582778930664 7.825484275817871 9.33413028717041 7.672579765319824 L9.33413028717041 7.672579765319824 C9.33841323852539 7.549549579620361 9.342696189880371 7.426519870758057 9.346979141235352 7.303489685058594 L9.346979141235352 7.303489685058594"></path></svg>