<svg xmlns="http://www.w3.org/2000/svg" viewBox="0.0 0.0 24.0 24.0" height="200px" width="200px"><path fill="none" stroke="black" stroke-width=".3" stroke-opacity="1.0"  filling="0" d="M14.325753211975098 6.992490768432617 L14.325753211975098 6.992490768432617 C16.45345115661621 7.6026811599731445 16.558300018310547 7.998286247253418 16.724485397338867 10.196192741394043 L16.724485397338867 10.196192741394043 C16.056583404541016 10.196192741394043 15.388683319091797 10.196192741394043 14.720782279968262 10.196192741394043 L14.720782279968262 10.196192741394043 C13.463456153869629 9.141191482543945 10.913739204406738 7.867281913757324 10.098148345947266 10.289793968200684 C10.025787353515625 10.504725456237793 10.040878295898438 12.813292503356934 10.043386459350586 13.028497695922852 C10.048714637756348 13.485647201538086 9.886725425720215 13.982919692993164 10.074668884277344 14.399682998657227 C10.632256507873535 15.636125564575195 13.18335247039795 16.406129837036133 14.157350540161133 15.212626457214355 C14.485504150390625 14.810518264770508 14.378979682922363 14.198533058166504 14.48979377746582 13.691486358642578 L14.48979377746582 13.691486358642578 C14.23583984375 13.66843318939209 12.587006568908691 13.518625259399414 12.380433082580566 13.499842643737793 L12.380433082580566 13.499842643737793 C12.380433082580566 12.990058898925781 12.380433082580566 12.480276107788086 12.380433082580566 11.970492362976074 L12.380433082580566 11.970492362976074 C13.828237533569336 11.970492362976074 15.276042938232422 11.970492362976074 16.72385025024414 11.970492362976074 L16.72385025024414 11.970492362976074 C17.130727767944336 12.79567813873291 17.025136947631836 13.804524421691895 16.94907569885254 14.721418380737305 C16.805553436279297 16.451549530029297 15.632505416870117 17.353822708129883 14.165109634399414 17.711185455322266 C12.697713851928711 18.06855010986328 10.935968399047852 17.88100242614746 9.61505126953125 17.43149185180664 C8.19438362121582 16.948036193847656 7.506621837615967 15.274686813354492 7.315546035766602 13.451072692871094 C7.1244707107543945 11.627458572387695 7.430081367492676 9.653581619262695 7.996156692504883 8.569070816040039 C9.132293701171875 6.392412185668945 12.35988712310791 6.908809661865234 14.325753211975098 6.992490768432617 L14.325753211975098 6.992490768432617"></path></svg>