<svg xmlns="http://www.w3.org/2000/svg" viewBox="0.0 0.0 24.0 24.0" height="200px" width="200px"><path fill="none" stroke="black" stroke-width=".3" stroke-opacity="1.0"  filling="0" d="M9.471680641174316 3.9539661407470703 C14.24449348449707 2.2591772079467773 18.171815872192383 4.674400806427002 18.520885467529297 9.725602149963379 C18.67584800720215 11.967378616333008 18.713909149169922 14.297780990600586 18.280017852783203 16.48355484008789 C17.017488479614258 22.841867446899414 11.1392822265625 24.588855743408203 6.161484718322754 20.146081924438477 C6.252288341522217 19.403352737426758 6.349615097045898 18.61332130432129 6.482283115386963 17.539464950561523 C11.742274284362793 20.868144989013672 14.933937072753906 19.665971755981445 15.188399314880371 14.478296279907227 C15.052469253540039 14.460352897644043 14.845853805541992 14.374444961547852 14.78658676147461 14.434255599975586 C12.93031120300293 16.296512603759766 10.782599449157715 16.399274826049805 8.538105010986328 15.36402416229248 C6.617126941680908 14.477754592895508 5.37091064453125 11.854283332824707 5.632441520690918 9.358587265014648 C5.893972873687744 6.862892150878906 6.899319648742676 4.866879940032959 9.471680641174316 3.9539661407470703"></path>
<path fill="none" stroke="black" stroke-width=".3" stroke-opacity="1.0"  filling="0" d="M12.194109916687012 7.1048479080200195 C13.812777519226074 7.14182186126709 14.929587364196777 8.20643424987793 14.999184608459473 9.777798652648926 C15.079655647277832 11.596013069152832 13.873674392700195 12.853103637695312 12.031536102294922 12.870503425598145 C10.20897102355957 12.88790225982666 9.17970085144043 11.882011413574219 9.16447639465332 10.069777488708496 C9.148164749145508 8.157499313354492 10.268781661987305 7.0608062744140625 12.194109916687012 7.1048479080200195"></path></svg>