<svg xmlns="http://www.w3.org/2000/svg" viewBox="0.0 0.0 24.0 24.0" height="200px" width="200px"><path fill="none" stroke="black" stroke-width=".3" stroke-opacity="1.0"  filling="0" d="M10.869024276733398 4.190898895263672 C17.034536361694336 1.9985036849975586 21.94975471496582 5.479079246520996 21.916391372680664 12.014986038208008 C21.884723663330078 18.170318603515625 17.50841522216797 22.684608459472656 11.524991989135742 22.734933853149414 C7.623126983642578 22.767730712890625 4.693335056304932 20.31182098388672 4.032280445098877 16.45462989807129 C3.1173200607299805 11.11755657196045 6.016575336456299 5.917332172393799 10.869024276733398 4.190898895263672"></path>
<path fill="none" stroke="black" stroke-width=".3" stroke-opacity="1.0"  filling="0" d="M15.040060043334961 4.857044219970703 C17.400972366333008 5.4383649826049805 18.850881576538086 7.263759136199951 19.27047348022461 10.239355087280273 C19.36208152770996 10.88740348815918 19.3485107421875 11.550721168518066 19.38357162475586 12.206686019897461 C19.5130672454834 12.256448745727539 19.642566680908203 12.306777954101562 19.77206039428711 12.35654067993164 C19.019962310791016 14.44262409210205 18.52459716796875 16.673473358154297 17.45016860961914 18.576904296875 C16.16312026977539 20.856950759887695 13.923223495483398 21.94890785217285 11.224716186523438 21.46371841430664 C8.614991188049316 20.99436378479004 7.217105388641357 19.249834060668945 6.658404350280762 16.719276428222656 C5.950979232788086 13.515789985656738 6.584890842437744 10.548110961914062 8.279657363891602 7.817370891571045 C9.78837776184082 5.3863396644592285 12.555309295654297 4.245750904083252 15.040060043334961 4.857044219970703"></path></svg>