<svg xmlns="http://www.w3.org/2000/svg" viewBox="0.0 0.0 24.0 24.0" height="200px" width="200px"><path fill="none" stroke="black" stroke-width=".3" stroke-opacity="1.0"  filling="0" d="M12.59837818145752 7.067027568817139 L12.59837818145752 7.067027568817139 C14.015695571899414 7.291502952575684 15.121353149414062 8.101163864135742 15.615744590759277 9.178140640258789 C16.110136032104492 10.255117416381836 15.993263244628906 11.599411010742188 14.965519905090332 12.893152236938477 C13.868515014648438 14.274081230163574 12.083588600158691 14.615074157714844 10.694875717163086 15.560851097106934 L10.694875717163086 15.560851097106934 C11.555830955505371 15.95263385772705 13.548230171203613 17.289695739746094 14.421610832214355 17.211591720581055 C15.097128868103027 17.151182174682617 15.531686782836914 16.253032684326172 16.209793090820312 16.240936279296875 L16.209793090820312 16.240936279296875 C15.841451644897461 16.698320388793945 15.623690605163574 17.33814239501953 15.104768753051758 17.613086700439453 C13.08771800994873 18.681798934936523 12.045225143432617 16.20317268371582 10.26016902923584 16.246797561645508 C10.211318016052246 16.24799156188965 8.11299991607666 17.274980545043945 7.881911277770996 17.387588500976562 L7.881911277770996 17.387588500976562 C8.681744575500488 15.911367416381836 9.433606147766113 15.684001922607422 10.928618431091309 14.781707763671875 L10.928618431091309 14.781707763671875 C10.644553184509277 14.164772987365723 9.776174545288086 14.033818244934082 9.321212768554688 13.529525756835938 C8.069236755371094 12.141799926757812 8.27713680267334 10.707509994506836 9.103726387023926 9.529484748840332 C9.930315017700195 8.351459503173828 11.375595092773438 7.429697513580322 12.59837818145752 7.067027568817139 L12.59837818145752 7.067027568817139"></path>
<path fill="none" stroke="black" stroke-width=".3" stroke-opacity="1.0"  filling="0" d="M13.003349304199219 7.574735164642334 L13.003349304199219 7.574735164642334 C13.450419425964355 7.867096424102783 14.061345100402832 7.998898506164551 14.344558715820312 8.451818466186523 C15.500569343566895 10.300527572631836 14.439164161682129 13.873872756958008 12.082396507263184 14.215620040893555 C10.266084671020508 14.478997230529785 9.568685531616211 12.34904670715332 9.665496826171875 10.972402572631836 C9.821163177490234 8.758840560913086 11.04210090637207 7.947673320770264 13.003349304199219 7.574735164642334 L13.003349304199219 7.574735164642334"></path></svg>