<svg xmlns="http://www.w3.org/2000/svg" viewBox="0.0 0.0 24.0 24.0" height="200px" width="200px"><path fill="none" stroke="black" stroke-width=".3" stroke-opacity="1.0"  filling="0" d="M13.063783645629883 3.230271339416504 C15.906805038452148 3.051304817199707 18.07278060913086 4.715522766113281 18.637054443359375 7.512373447418213 C19.321863174438477 10.905366897583008 17.848461151123047 14.022967338562012 14.699399948120117 15.706388473510742 C13.382898330688477 16.410402297973633 12.001020431518555 16.99102020263672 10.664907455444336 17.65948486328125 C10.258760452270508 17.862966537475586 9.90614128112793 18.173500061035156 9.679778099060059 18.330402374267578 C10.903936386108398 18.914695739746094 12.148524284362793 19.392345428466797 13.273801803588867 20.06857681274414 C16.082910537719727 21.757308959960938 16.600194931030273 21.744644165039062 19.117565155029297 19.54598045349121 C19.188251495361328 19.48427963256836 19.35986328125 19.538217544555664 19.48407554626465 19.539443969726562 C18.750234603881836 21.759353637695312 16.647592544555664 22.940608978271484 14.479165077209473 22.191242218017578 C13.404144287109375 21.819828033447266 12.408801078796387 21.180370330810547 11.428167343139648 20.579734802246094 C9.150236129760742 19.183963775634766 8.632542610168457 19.188867568969727 6.479233264923096 20.7006778717041 C6.05429220199585 21.00017738342285 5.537007808685303 21.166885375976562 4.678953647613525 21.57793617248535 C5.058948516845703 19.733118057250977 6.212419509887695 19.327789306640625 7.137484550476074 18.730419158935547 C8.105452537536621 18.105674743652344 9.109376907348633 17.537315368652344 10.095321655273438 16.94525718688965 C10.037301063537598 16.812463760375977 10.018914222717285 16.638809204101562 9.935968399047852 16.59917640686035 C6.452674865722656 14.925150871276855 5.377655029296875 12.744056701660156 6.23244047164917 9.057689666748047 C6.96423864364624 5.902907371520996 9.860787391662598 3.4317102432250977 13.063783645629883 3.230271339416504"></path>
<path fill="none" stroke="black" stroke-width=".3" stroke-opacity="1.0"  filling="0" d="M13.783732414245605 4.132862091064453 C15.92723560333252 4.555759906768799 16.95730972290039 6.202816963195801 16.907461166381836 9.128375053405762 C16.889074325561523 11.251856803894043 16.230823516845703 13.13058853149414 14.68673324584961 14.623196601867676 C12.279685020446777 16.950977325439453 9.155548095703125 16.162382125854492 8.171645164489746 12.978181838989258 C7.588984966278076 11.091687202453613 7.7659077644348145 9.234201431274414 8.56185531616211 7.429426670074463 C9.642187118530273 4.980701923370361 11.645949363708496 3.7111892700195312 13.783732414245605 4.132862091064453"></path></svg>