<svg xmlns="http://www.w3.org/2000/svg" viewBox="0.0 0.0 24.0 24.0" height="200px" width="200px"><path fill="none" stroke="black" stroke-width=".3" stroke-opacity="1.0"  filling="0" d="M15.436285018920898 6.757108688354492 L15.436285018920898 6.757108688354492 C15.214345932006836 8.320295333862305 14.992409706115723 9.883481979370117 14.770482063293457 11.446669578552246 C14.548555374145508 13.009857177734375 14.326638221740723 14.573046684265137 14.10473918914795 16.13623809814453 L14.10473918914795 16.13623809814453 C14.482911109924316 15.96036434173584 14.861082077026367 15.784489631652832 15.239253997802734 15.60861587524414 L15.239253997802734 15.60861587524414 C14.906656265258789 16.45181655883789 14.076858520507812 17.032318115234375 13.327813148498535 17.542747497558594 L13.327813148498535 17.542747497558594 C13.327813148498535 17.486919403076172 13.327813148498535 15.066710472106934 13.327813148498535 15.045953750610352 L13.327813148498535 15.045953750610352 C12.918143272399902 15.306269645690918 12.508474349975586 15.5665864944458 12.098804473876953 15.826902389526367 L12.098804473876953 15.826902389526367 C13.02827262878418 14.455622673034668 13.548532485961914 13.635088920593262 13.704643249511719 11.968118667602539 L13.704643249511719 11.968118667602539 C13.138343811035156 11.938594818115234 12.541837692260742 11.694693565368652 12.005744934082031 11.879547119140625 C9.968770027160645 12.581930160522461 10.396517753601074 14.907369613647461 10.906271934509277 16.331256866455078 L10.906271934509277 16.331256866455078 C11.320249557495117 16.146671295166016 11.734227180480957 15.962085723876953 12.148204803466797 15.77750015258789 L12.148204803466797 15.77750015258789 C11.652848243713379 16.37060546875 11.157491683959961 16.963712692260742 10.66213607788086 17.556819915771484 L10.66213607788086 17.556819915771484 C10.271697998046875 17.165664672851562 9.709973335266113 16.890714645385742 9.490821838378906 16.383352279663086 C8.827973365783691 14.848775863647461 9.403575897216797 13.603200912475586 10.417780876159668 12.659567832946777 C11.431985855102539 11.715934753417969 12.88479232788086 11.074244499206543 13.97635269165039 10.747438430786133 L13.97635269165039 10.747438430786133 C14.15419864654541 9.799635887145996 14.349808692932129 8.898276329040527 14.35720443725586 7.932694911956787 L14.35720443725586 7.932694911956787 C13.936524391174316 7.825562477111816 13.51584529876709 7.718430042266846 13.095165252685547 7.611297607421875 L13.095165252685547 7.611297607421875 C13.875536918640137 7.326563835144043 14.65591049194336 7.041834354400635 15.436285018920898 6.757108688354492 L15.436285018920898 6.757108688354492"></path></svg>