<svg xmlns="http://www.w3.org/2000/svg" viewBox="0.0 0.0 24.0 24.0" height="200px" width="200px"><path fill="none" stroke="black" stroke-width=".3" stroke-opacity="1.0"  filling="0" d="M6.271698474884033 3.224031448364258 C7.354916095733643 3.224031448364258 8.475074768066406 3.224031448364258 9.859781265258789 3.224031448364258 C9.859781265258789 5.4577956199646 9.859781265258789 7.6897711753845215 9.859781265258789 9.717378616333008 C11.516782760620117 9.22939395904541 12.962860107421875 8.510824203491211 14.442899703979492 8.430387496948242 C17.320755004882812 8.274279594421387 18.741809844970703 9.586891174316406 18.86871910095215 12.435550689697266 C19.014102935791016 15.695332527160645 18.902681350708008 18.967029571533203 18.902681350708008 22.409732818603516 C17.594837188720703 22.409732818603516 16.404964447021484 22.409732818603516 15.095333099365234 22.409732818603516 C15.095333099365234 19.5878849029541 15.064350128173828 17.00973129272461 15.106653213500977 14.432770729064941 C15.1328706741333 12.86633586883545 14.766435623168945 11.641310691833496 12.955114364624023 11.486990928649902 C11.364847183227539 11.351737976074219 10.18212604522705 12.310426712036133 10.071301460266113 14.183117866516113 C9.914002418518066 16.846473693847656 10.031380653381348 19.52591896057129 10.031380653381348 22.424030303955078 C8.694339752197266 22.424030303955078 7.5783514976501465 22.424030303955078 6.271698474884033 22.424030303955078 C6.271698474884033 16.074874877929688 6.271698474884033 9.76266098022461 6.271698474884033 3.224031448364258"></path></svg>