<svg xmlns="http://www.w3.org/2000/svg" viewBox="0.0 0.0 24.0 24.0" height="200px" width="200px"><path fill="none" stroke="black" stroke-width=".3" stroke-opacity="1.0"  filling="0" d="M14.379209518432617 4.254908561706543 C14.516183853149414 4.163400173187256 15.130266189575195 4.7861151695251465 15.912976264953613 5.36969518661499 C15.134869575500488 5.964209079742432 14.666971206665039 6.497142791748047 14.089146614074707 6.677281856536865 C13.857786178588867 6.749797821044922 13.017522811889648 5.858889102935791 13.084859848022461 5.7265191078186035 C13.376649856567383 5.1521477699279785 13.844549179077148 4.611732482910156 14.379209518432617 4.254908561706543"></path>
<path fill="none" stroke="black" stroke-width=".3" stroke-opacity="1.0"  filling="0" d="M13.838218688964844 10.021641731262207 C14.017782211303711 10.104516983032227 14.197343826293945 10.186816215515137 14.377482414245605 10.269692420959473 C13.835916519165039 13.474200248718262 13.294349670410156 16.67813491821289 12.720553398132324 20.074867248535156 C13.488301277160645 20.074867248535156 14.064973831176758 20.074867248535156 15.279901504516602 20.074867248535156 C13.899223327636719 21.33928871154785 12.912202835083008 22.24285888671875 11.598285675048828 23.446277618408203 C9.733017921447754 19.7589054107666 12.409196853637695 16.659717559814453 11.867630004882812 13.456934928894043 C11.40893840789795 13.38614559173584 10.960031509399414 13.317083358764648 10.076028823852539 13.181259155273438 C11.476850509643555 12.004891395568848 12.657822608947754 11.013266563415527 13.838218688964844 10.021641731262207"></path></svg>