<svg xmlns="http://www.w3.org/2000/svg" viewBox="0.0 0.0 24.0 24.0" height="200px" width="200px"><path fill="none" stroke="black" stroke-width=".3" stroke-opacity="1.0"  filling="0" d="M10.76685905456543 8.763006210327148 C11.119538307189941 8.884675979614258 11.471394538879395 9.007168769836426 11.824071884155273 9.128837585449219 C12.030417442321777 10.770559310913086 12.236763000488281 12.412281036376953 12.511343002319336 14.598227500915527 C13.692691802978516 12.978702545166016 14.505743026733398 11.455363273620605 15.710110664367676 10.361156463623047 C16.47876739501953 9.662376403808594 17.949493408203125 9.146924018859863 18.87105941772461 9.400129318237305 C19.548465728759766 9.58674430847168 19.8460636138916 11.153655052185059 20.431396484375 12.345690727233887 C18.39095687866211 12.644933700561523 16.62592315673828 12.387617111206055 15.747103691101074 13.15134334564209 C14.377496719360352 14.341734886169434 13.318639755249023 16.11334800720215 12.658498764038086 17.841388702392578 C11.79036808013916 20.115299224853516 11.540451049804688 22.617752075195312 10.815363883972168 24.956607818603516 C10.479949951171875 26.037662506103516 9.650457382202148 26.96580696105957 9.044573783874512 27.96300506591797 C8.690252304077148 27.828182220458984 8.335107803344727 27.693359375 7.9807844161987305 27.558534622192383 C8.663121223449707 22.81505584716797 9.345458984375 18.07157325744629 10.083700180053711 12.94664192199707 C8.594887733459473 13.31247329711914 7.7226457595825195 13.527040481567383 6.161489963531494 13.910958290100098 C8.00298023223877 11.853257179260254 9.384920120239258 10.30854320526123 10.76685905456543 8.763006210327148"></path></svg>