<svg xmlns="http://www.w3.org/2000/svg" viewBox="0.0 0.0 24.0 24.0" height="200px" width="200px"><path fill="none" stroke="black" stroke-width=".3" stroke-opacity="1.0"  filling="0" d="M5.12417459487915 7.784239768981934 C10.442596435546875 7.784239768981934 15.501167297363281 7.784239768981934 20.781978607177734 7.784239768981934 C21.776939392089844 10.163084030151367 21.33587646484375 12.217967987060547 19.403223037719727 14.157456398010254 C16.821796417236328 16.7482852935791 14.394229888916016 19.49211883544922 11.29737377166748 22.818912506103516 C14.910516738891602 22.818912506103516 17.765470504760742 22.818912506103516 20.91105079650879 22.818912506103516 C20.91190528869629 24.45751953125 20.91190528869629 25.626001358032227 20.91190528869629 26.98423957824707 C15.378077507019043 26.98423957824707 10.054527282714844 26.98423957824707 4.763457298278809 26.98423957824707 C3.855684280395508 24.0916748046875 4.540360927581787 21.948749542236328 6.610630989074707 19.96139144897461 C9.03905200958252 17.630416870117188 11.199073791503906 15.018217086791992 14.003597259521484 11.949567794799805 C10.837503433227539 11.949567794799805 8.391131401062012 11.949567794799805 5.617380619049072 11.949567794799805 C5.437877655029297 10.436613082885742 5.298548698425293 9.255311965942383 5.12417459487915 7.784239768981934"></path></svg>