<svg xmlns="http://www.w3.org/2000/svg" viewBox="0.0 0.0 24.0 24.0" height="200px" width="200px"><path fill="none" stroke="black" stroke-width=".3" stroke-opacity="1.0"  filling="0" d="M8.13234806060791 9.62863540649414 L8.13234806060791 9.62863540649414 C9.60026741027832 9.62863540649414 11.06818675994873 9.62863540649414 12.53610610961914 9.62863540649414 C14.00402545928955 9.62863540649414 15.471944808959961 9.62863540649414 16.939863204956055 9.62863540649414 L16.939863204956055 9.62863540649414 C17.01645278930664 10.2570161819458 17.303483963012695 10.895060539245605 17.169631958007812 11.513778686523438 C16.922103881835938 12.65795612335205 15.913789749145508 13.886402130126953 14.775907516479492 15.036063194274902 C13.63802433013916 16.18572425842285 12.370573043823242 17.25659942626953 11.604772567749023 18.08563804626465 L11.604772567749023 18.08563804626465 C13.407339096069336 18.08563804626465 15.209901809692383 18.08563804626465 17.012466430664062 18.08563804626465 L17.012466430664062 18.08563804626465 C17.012630462646484 18.567771911621094 17.01291847229004 19.91777801513672 17.01294708251953 20.428634643554688 L17.01294708251953 20.428634643554688 C15.499030113220215 20.428634643554688 13.985113143920898 20.428634643554688 12.471196174621582 20.428634643554688 C10.957279205322266 20.428634643554688 9.44336223602295 20.428634643554688 7.929444789886475 20.428634643554688 L7.929444789886475 20.428634643554688 C7.667247772216797 18.612096786499023 8.403238296508789 17.123838424682617 9.486480712890625 15.776719093322754 C10.569722175598145 14.42959976196289 12.000215530395508 13.223617553710938 13.127023696899414 11.97163200378418 L13.127023696899414 11.97163200378418 C11.554609298706055 11.97163200378418 9.982192039489746 11.97163200378418 8.40977668762207 11.97163200378418 L8.40977668762207 11.97163200378418 C8.317277908325195 11.190635681152344 8.224801063537598 10.409637451171875 8.13234806060791 9.62863540649414 L8.13234806060791 9.62863540649414"></path></svg>