<svg xmlns="http://www.w3.org/2000/svg" viewBox="0.0 0.0 24.0 24.0" height="200px" width="200px"><path fill="none" stroke="black" stroke-width=".3" stroke-opacity="1.0"  filling="0" d="M13.699563980102539 7.461231708526611 L13.699563980102539 7.461231708526611 C13.828926086425781 7.477301597595215 13.95828914642334 7.49337100982666 14.087651252746582 7.509440898895264 L14.087651252746582 7.509440898895264 C14.421426773071289 9.292724609375 14.661859512329102 11.146421432495117 15.002782821655273 12.971379280090332 C15.343706130981445 14.796338081359863 15.785120010375977 16.592557907104492 16.520862579345703 18.260889053344727 L16.520862579345703 18.260889053344727 C15.887479782104492 18.260889053344727 15.254096984863281 18.260889053344727 14.62071418762207 18.260889053344727 L14.62071418762207 18.260889053344727 C14.843866348266602 16.701963424682617 14.602115631103516 15.507415771484375 14.374500274658203 13.956452369689941 L14.374500274658203 13.956452369689941 C12.291810989379883 13.819948196411133 10.37657642364502 13.593064308166504 9.701476097106934 16.230228424072266 C9.536516189575195 16.874616622924805 9.735538482666016 17.56012535095215 9.752570152282715 18.225074768066406 L9.752570152282715 18.225074768066406 C9.13433837890625 18.225074768066406 8.516106605529785 18.225074768066406 7.89787483215332 18.225074768066406 L7.89787483215332 18.225074768066406 C9.120119094848633 16.23076629638672 10.342193603515625 14.23635196685791 11.564220428466797 12.241909980773926 L11.564220428466797 12.241909980773926 C11.564220428466797 12.662596702575684 11.564220428466797 13.083284378051758 11.564220428466797 13.503971099853516 L11.564220428466797 13.503971099853516 C12.456559181213379 13.461965560913086 13.348896980285645 13.419954299926758 14.24123477935791 13.377937316894531 L14.24123477935791 13.377937316894531 C13.984603881835938 12.052624702453613 13.72792911529541 10.727320671081543 13.471258163452148 9.402016639709473 L13.471258163452148 9.402016639709473 C13.256609916687012 9.523458480834961 13.041960716247559 9.64490032196045 12.827312469482422 9.766342163085938 L12.827312469482422 9.766342163085938 C12.988313674926758 9.340860366821289 13.538561820983887 7.886713027954102 13.699563980102539 7.461231708526611 L13.699563980102539 7.461231708526611"></path></svg>