<svg xmlns="http://www.w3.org/2000/svg" viewBox="0.0 0.0 24.0 24.0" height="200px" width="200px"><path fill="none" stroke="black" stroke-width=".3" stroke-opacity="1.0"  filling="0" d="M10.541694641113281 3.0930099487304688 C12.816802978515625 3.0930099487304688 14.933877944946289 3.0930099487304688 17.32663345336914 3.0930099487304688 C18.03778839111328 9.406188011169434 18.7413330078125 15.657322883605957 19.466535568237305 22.09575843811035 C18.551692962646484 22.173606872558594 17.803077697753906 22.27193832397461 17.053295135498047 22.290668487548828 C16.39072036743164 22.307056427001953 15.726391792297363 22.23564910888672 14.913393020629883 22.195262908935547 C14.771162033081055 21.13116455078125 14.645904541015625 20.194665908813477 14.489041328430176 19.024627685546875 C11.990342140197754 19.024627685546875 9.512130737304688 19.024627685546875 6.754138946533203 19.024627685546875 C6.263647079467773 19.896739959716797 5.657263278961182 20.97547149658203 4.953718662261963 22.227455139160156 C3.474048614501953 22.227455139160156 2.21914005279541 22.227455139160156 0.3742351531982422 22.227455139160156 C3.866208076477051 15.655566215515137 7.198390960693359 9.384531021118164 10.541694641113281 3.0930099487304688"></path>
<path fill="none" stroke="black" stroke-width=".3" stroke-opacity="1.0"  filling="0" d="M12.841971397399902 7.333012104034424 C13.0286865234375 7.375154495239258 13.215400695800781 7.416711807250977 13.402115821838379 7.4588541984558105 C13.66667652130127 9.975111961364746 13.930652618408203 12.491954803466797 14.21921157836914 15.238240242004395 C12.381331443786621 15.238240242004395 10.784599304199219 15.238240242004395 8.668695449829102 15.238240242004395 C10.182897567749023 12.369625091552734 11.512727737426758 9.851611137390137 12.841971397399902 7.333012104034424"></path></svg>