<svg xmlns="http://www.w3.org/2000/svg" viewBox="0.0 0.0 24.0 24.0" height="200px" width="200px"><path fill="none" stroke="black" stroke-width=".3" stroke-opacity="1.0"  filling="0" d="M12.124085426330566 8.142231941223145 L12.124085426330566 8.142231941223145 C12.554667472839355 8.092044830322266 12.994572639465332 7.88939094543457 13.415830612182617 7.991670608520508 C15.586997032165527 8.518820762634277 15.04910945892334 11.909902572631836 13.226377487182617 12.514694213867188 C12.676265716552734 12.697223663330078 12.067234992980957 12.502572059631348 11.487663269042969 12.49651050567627 L11.487663269042969 12.49651050567627 C11.69981575012207 11.045085906982422 11.911986351013184 9.59366512298584 12.124085426330566 8.142231941223145 L12.124085426330566 8.142231941223145"></path>
<path fill="none" stroke="black" stroke-width=".3" stroke-opacity="1.0"  filling="0" d="M10.964044570922852 8.17422103881836 L10.964044570922852 8.17422103881836 C12.26462459564209 7.777993202209473 12.960004806518555 7.307596683502197 14.318841934204102 7.845196723937988 C15.818121910095215 8.438360214233398 16.29249382019043 10.064397811889648 15.341157913208008 11.35385513305664 C14.946887969970703 11.88825511932373 14.369616508483887 12.259522438049316 13.883846282958984 12.712356567382812 L13.883846282958984 12.712356567382812 C14.236180305480957 12.94705867767334 14.635457038879395 13.123271942138672 14.940847396850586 13.416461944580078 C15.315545082092285 13.776190757751465 15.710063934326172 14.16187858581543 15.898050308227539 14.64609432220459 C16.625835418701172 16.520719528198242 15.361364364624023 17.466827392578125 13.672033309936523 17.937360763549805 C11.982702255249023 18.407894134521484 9.868509292602539 18.402851104736328 8.89684772491455 18.37517547607422 L8.89684772491455 18.37517547607422 C10.200908660888672 16.51373291015625 10.245026588439941 14.37530517578125 10.588950157165527 12.153770446777344 C10.789163589477539 10.860513687133789 11.218889236450195 9.470952033996582 10.964044570922852 8.17422103881836 L10.964044570922852 8.17422103881836"></path>
<path fill="none" stroke="black" stroke-width=".3" stroke-opacity="1.0"  filling="0" d="M11.382601737976074 13.150106430053711 L11.382601737976074 13.150106430053711 C12.110068321228027 13.18685245513916 12.874960899353027 13.027104377746582 13.56500244140625 13.260343551635742 C15.19497013092041 13.811284065246582 15.293680191040039 16.144390106201172 14.243138313293457 17.237693786621094 C13.002481460571289 18.528850555419922 12.259632110595703 17.912057876586914 10.72496509552002 17.58924102783203 L10.72496509552002 17.58924102783203 C10.944232940673828 16.109539031982422 11.163423538208008 14.629823684692383 11.382601737976074 13.150106430053711 L11.382601737976074 13.150106430053711"></path></svg>