<svg xmlns="http://www.w3.org/2000/svg" viewBox="0.0 0.0 24.0 24.0" height="200px" width="200px"><path fill="none" stroke="black" stroke-width=".3" stroke-opacity="1.0"  filling="0" d="M6.553636074066162 3.427487373352051 C7.986217975616455 3.427487373352051 9.279796600341797 3.427487373352051 10.83946704864502 3.427487373352051 C9.872686386108398 8.136568069458008 8.922927856445312 12.763381958007812 7.856293201446533 17.96152687072754 C10.084312438964844 18.006916046142578 11.819864273071289 18.157833099365234 13.537260055541992 18.040388107299805 C14.866582870483398 17.949045181274414 15.30004596710205 16.837589263916016 15.554788589477539 15.6455659866333 C16.245264053344727 12.41786003112793 16.984533309936523 9.200933456420898 17.713024139404297 5.981169700622559 C17.89968490600586 5.156796932220459 18.11698341369629 4.339232444763184 18.33711814880371 3.4513158798217773 C19.682327270507812 3.4513158798217773 20.966262817382812 3.4513158798217773 22.705215454101562 3.4513158798217773 C21.489933013916016 8.528045654296875 20.453935623168945 13.396553993225098 19.120641708374023 18.182228088378906 C18.51810646057129 20.345569610595703 16.601566314697266 21.563121795654297 14.415532112121582 21.77021026611328 C11.987235069274902 22.00055694580078 9.495393753051758 22.062965393066406 7.079011917114258 21.782123565673828 C4.209309101104736 21.44851303100586 3.1006898880004883 19.86444854736328 3.634007453918457 17.027652740478516 C4.485044956207275 12.503531455993652 5.555651664733887 8.020259857177734 6.553636074066162 3.427487373352051"></path></svg>