<svg xmlns="http://www.w3.org/2000/svg" viewBox="0.0 0.0 24.0 24.0" height="200px" width="200px"><path fill="none" stroke="black" stroke-width=".3" stroke-opacity="1.0"  filling="0" d="M16.20382308959961 8.667274475097656 L16.20382308959961 8.667274475097656 C16.76970100402832 8.667274475097656 17.335580825805664 8.667274475097656 17.901458740234375 8.667274475097656 L17.901458740234375 8.667274475097656 C17.349246978759766 9.863407135009766 16.797046661376953 11.05954647064209 16.244848251342773 12.25568675994873 C15.692651748657227 13.451828002929688 15.140458106994629 14.647970199584961 14.588258743286133 15.844109535217285 L14.588258743286133 15.844109535217285 C13.776394844055176 15.844109535217285 12.964529991149902 15.844109535217285 12.152666091918945 15.844109535217285 L12.152666091918945 15.844109535217285 C12.065716743469238 14.245457649230957 11.978780746459961 12.646811485290527 11.891898155212402 11.048154830932617 L11.891898155212402 11.048154830932617 C11.114041328430176 12.651490211486816 10.336201667785645 14.254842758178711 9.558450698852539 15.85822868347168 L9.558450698852539 15.85822868347168 C8.739526748657227 15.85822868347168 7.920603275299072 15.85822868347168 7.101679801940918 15.85822868347168 L7.101679801940918 15.85822868347168 C7.101508140563965 13.464478492736816 7.101463317871094 11.070732116699219 7.10145902633667 8.676982879638672 L7.10145902633667 8.676982879638672 C7.603285312652588 8.676982879638672 8.105111122131348 8.676982879638672 8.606937408447266 8.676982879638672 L8.606937408447266 8.676982879638672 C8.606937408447266 10.461614608764648 8.606937408447266 12.246241569519043 8.606937408447266 14.030874252319336 L8.606937408447266 14.030874252319336 C8.692683219909668 14.053597450256348 8.77842903137207 14.076321601867676 8.864174842834473 14.099044799804688 L8.864174842834473 14.099044799804688 C9.743148803710938 12.290315628051758 10.622017860412598 10.481532096862793 11.500967979431152 8.67279052734375 L11.500967979431152 8.67279052734375 C12.118396759033203 8.67279052734375 12.735825538635254 8.67279052734375 13.353254318237305 8.67279052734375 L13.353254318237305 8.67279052734375 C13.434563636779785 10.43087100982666 13.515844345092773 12.188955307006836 13.597034454345703 13.947039604187012 L13.597034454345703 13.947039604187012 C13.655717849731445 13.960423469543457 13.714401245117188 13.973807334899902 13.77308464050293 13.987191200256348 L13.77308464050293 13.987191200256348 C14.583329200744629 12.213884353637695 15.393561363220215 10.440573692321777 16.20382308959961 8.667274475097656 L16.20382308959961 8.667274475097656"></path></svg>