<svg xmlns="http://www.w3.org/2000/svg" viewBox="0.0 0.0 24.0 24.0" height="200px" width="200px"><path fill="none" stroke="black" stroke-width=".3" stroke-opacity="1.0"  filling="0" d="M15.221617698669434 6.98358154296875 L15.221617698669434 6.98358154296875 C15.432422637939453 6.98358154296875 17.998449325561523 6.98358154296875 18.08951759338379 6.98358154296875 L18.08951759338379 6.98358154296875 C16.76198387145996 8.689998626708984 15.304167747497559 10.262489318847656 14.142013549804688 11.97213077545166 C12.979859352111816 13.681772232055664 12.11336612701416 15.528563499450684 11.968478202819824 17.78358268737793 L11.968478202819824 17.78358268737793 C11.0949125289917 17.783580780029297 10.22134780883789 17.783580780029297 9.347782135009766 17.783580780029297 L9.347782135009766 17.783580780029297 C9.49774169921875 16.299997329711914 10.032267570495605 15.071557998657227 9.821783065795898 13.542120933532715 C9.51652717590332 11.324051856994629 8.359920501708984 9.12176513671875 7.662480354309082 7.004154205322266 L7.662480354309082 7.004154205322266 C8.62032699584961 7.004154205322266 9.578173637390137 7.004154205322266 10.536020278930664 7.004154205322266 L10.536020278930664 7.004154205322266 C10.996438980102539 8.433858871459961 11.456952095031738 9.863524436950684 11.917377471923828 11.293228149414062 L11.917377471923828 11.293228149414062 C13.018800735473633 9.85668659210205 14.120235443115234 8.420154571533203 15.221617698669434 6.98358154296875 L15.221617698669434 6.98358154296875"></path></svg>