<svg xmlns="http://www.w3.org/2000/svg" viewBox="0.0 0.0 24.0 24.0" height="200px" width="200px"><path fill="none" stroke="black" stroke-width=".3" stroke-opacity="1.0"  filling="0" d="M15.702397346496582 9.620494842529297 L15.702397346496582 9.620494842529297 C17.567106246948242 10.483394622802734 17.18018341064453 11.19217586517334 16.911041259765625 13.192771911621094 L16.911041259765625 13.192771911621094 C16.148056030273438 13.192771911621094 15.385069847106934 13.192771911621094 14.62208366394043 13.192771911621094 L14.62208366394043 13.192771911621094 C14.370189666748047 12.759185791015625 14.276252746582031 12.180924415588379 13.866401672363281 11.892013549804688 C12.190201759338379 10.71043586730957 11.257253646850586 11.650713920593262 10.71673583984375 13.089766502380371 C10.176218032836914 14.52881908416748 10.028129577636719 16.466644287109375 9.921648979187012 17.280162811279297 L9.921648979187012 17.280162811279297 C12.324882507324219 17.803495407104492 12.513089179992676 17.86577796936035 14.036317825317383 15.957942962646484 L14.036317825317383 15.957942962646484 C14.835969924926758 15.957942962646484 15.635622024536133 15.957942962646484 16.435274124145508 15.957942962646484 L16.435274124145508 15.957942962646484 C16.145824432373047 17.104528427124023 16.090017318725586 18.13603973388672 15.200023651123047 19.004762649536133 C14.454488754272461 19.732479095458984 12.884099960327148 20.180994033813477 11.32029914855957 20.23552894592285 C9.756498336791992 20.290061950683594 8.199285507202148 19.95061492919922 7.480102062225342 19.10240936279297 C6.8578572273254395 18.368532180786133 6.878175735473633 17.22673988342285 6.943490028381348 16.364290237426758 C7.056025981903076 14.87829875946045 7.344221115112305 13.267444610595703 8.028921127319336 11.95702838897705 C8.713621139526367 10.646611213684082 9.794824600219727 9.63663101196289 11.493378639221191 9.352387428283691 C13.084752082824707 9.086079597473145 14.102843284606934 9.382401466369629 15.702397346496582 9.620494842529297 L15.702397346496582 9.620494842529297"></path></svg>