<svg xmlns="http://www.w3.org/2000/svg" viewBox="0.0 0.0 24.0 24.0" height="200px" width="200px"><path fill="none" stroke="black" stroke-width=".3" stroke-opacity="1.0"  filling="0" d="M8.799114227294922 3.1220664978027344 C10.106863021850586 3.1220664978027344 11.249299049377441 3.1220664978027344 12.62081241607666 3.1220664978027344 C12.217565536499023 5.209151268005371 11.83911418914795 7.168708324432373 11.451807975769043 9.174907684326172 C13.329298973083496 8.879705429077148 14.992471694946289 8.379631042480469 16.643245697021484 8.418007850646973 C18.836013793945312 8.469372749328613 19.873947143554688 9.761180877685547 19.527969360351562 11.940369606018066 C18.978302001953125 15.402508735656738 18.19424057006836 18.82745361328125 17.49874496459961 22.321475982666016 C16.153209686279297 22.321475982666016 15.021991729736328 22.321475982666016 13.7000732421875 22.321475982666016 C14.325312614440918 18.818008422851562 14.919851303100586 15.487527847290039 15.500810623168945 12.231439590454102 C12.472028732299805 10.974465370178223 11.144205093383789 11.47749137878418 10.385534286499023 14.20044231414795 C9.653430938720703 16.828929901123047 9.151585578918457 19.521770477294922 8.518671035766602 22.319704055786133 C7.329003810882568 22.320297241210938 6.18774938583374 22.320297241210938 4.662139892578125 22.320297241210938 C6.066716194152832 15.801623344421387 7.423468589782715 9.504354476928711 8.799114227294922 3.1220664978027344"></path></svg>