<svg xmlns="http://www.w3.org/2000/svg" viewBox="0.0 0.0 24.0 24.0" height="200px" width="200px"><path fill="none" stroke="black" stroke-width=".3" stroke-opacity="1.0"  filling="0" d="M13.715442657470703 10.892536163330078 L13.715442657470703 10.892536163330078 C13.545185089111328 12.41563606262207 13.374839782714844 13.938724517822266 13.204477310180664 15.461812019348145 C13.034114837646484 16.984899520874023 12.86373519897461 18.507984161376953 12.69340991973877 20.031076431274414 L12.69340991973877 20.031076431274414 C12.907774925231934 20.0085391998291 13.122138977050781 19.986003875732422 13.336503982543945 19.96346664428711 L13.336503982543945 19.96346664428711 C13.34646224975586 20.110044479370117 13.356420516967773 20.256624221801758 13.366378784179688 20.403202056884766 L13.366378784179688 20.403202056884766 C12.80976676940918 20.832983016967773 12.253151893615723 21.262760162353516 11.696535110473633 21.692535400390625 L11.696535110473633 21.692535400390625 C11.279545783996582 20.912500381469727 11.423242568969727 19.919750213623047 11.543473243713379 19.0434627532959 C11.857037544250488 16.758089065551758 12.144866943359375 14.509076118469238 12.286693572998047 12.206502914428711 L12.286693572998047 12.206502914428711 C12.762943267822266 11.768513679504395 13.239192962646484 11.330525398254395 13.715442657470703 10.892536163330078 L13.715442657470703 10.892536163330078"></path></svg>