<svg xmlns="http://www.w3.org/2000/svg" viewBox="0.0 0.0 24.0 24.0" height="200px" width="200px"><path fill="none" stroke="black" stroke-width=".3" stroke-opacity="1.0"  filling="0" d="M20.914684295654297 10.376199722290039 C23.46578598022461 14.822169303894043 19.351659774780273 19.306917190551758 21.984790802001953 23.57540512084961 C21.173450469970703 24.24282455444336 20.079483032226562 25.143653869628906 18.35612678527832 26.562007904052734 C19.064559936523438 21.544071197509766 19.653675079345703 17.3740177154541 20.29946517944336 12.803510665893555 C19.01459503173828 13.121187210083008 18.364330291748047 13.281516075134277 16.977293014526367 13.624547004699707 C18.587299346923828 12.296422958374023 19.64621925354004 11.422441482543945 20.914684295654297 10.376199722290039"></path>
<path fill="none" stroke="black" stroke-width=".3" stroke-opacity="1.0"  filling="0" d="M6.545445919036865 10.517141342163086 C6.068186283111572 16.30167579650879 6.714724063873291 21.520954132080078 3.634908676147461 26.00719451904297 C3.364212989807129 25.96245002746582 3.0935182571411133 25.918453216552734 2.822075843811035 25.87371063232422 C3.4962053298950195 21.962421417236328 4.1703338623046875 18.0518741607666 4.858631610870361 14.060792922973633 C4.127829074859619 13.917614936828613 3.631925582885742 13.820672035217285 2.7840442657470703 13.655122756958008 C3.9839038848876953 12.6536226272583 4.982421875 11.821401596069336 6.545445919036865 10.517141342163086"></path>
<path fill="none" stroke="black" stroke-width=".3" stroke-opacity="1.0"  filling="0" d="M13.1808443069458 10.73190689086914 C13.485097885131836 11.005585670471191 13.812467575073242 11.163678169250488 13.811721801757812 11.31953239440918 C13.772198677062988 16.360586166381836 14.467954635620117 21.54034423828125 10.9593505859375 25.970653533935547 C10.255392074584961 21.089183807373047 13.455268859863281 16.46871566772461 11.564873695373535 11.521622657775879 C12.18903923034668 11.216623306274414 12.713278770446777 10.96009635925293 13.1808443069458 10.73190689086914"></path></svg>