<svg xmlns="http://www.w3.org/2000/svg" viewBox="0.0 0.0 24.0 24.0" height="200px" width="200px"><path fill="none" stroke="black" stroke-width=".3" stroke-opacity="1.0"  filling="0" d="M14.666876792907715 9.446945190429688 L14.666876792907715 9.446945190429688 C15.15069580078125 9.447951316833496 15.667717933654785 9.273818969726562 16.11833381652832 9.449963569641113 C17.804180145263672 10.108957290649414 17.015167236328125 12.585597038269043 16.795825958251953 13.743088722229004 L16.795825958251953 13.743088722229004 C16.002553939819336 13.743088722229004 15.209281921386719 13.743088722229004 14.416009902954102 13.743088722229004 L14.416009902954102 13.743088722229004 C14.274110794067383 13.210851669311523 14.132210731506348 12.678613662719727 13.990311622619629 12.146376609802246 L13.990311622619629 12.146376609802246 C13.38458251953125 12.253124237060547 12.668903350830078 12.102604866027832 12.173124313354492 12.466618537902832 C11.702165603637695 12.812408447265625 11.605391502380371 13.493576049804688 11.406980514526367 14.043127059936523 C10.72098445892334 15.94317626953125 10.470527648925781 18.150672912597656 10.022436141967773 20.12173843383789 L10.022436141967773 20.12173843383789 C9.029291152954102 20.12173843383789 8.036145210266113 20.12173843383789 7.042999744415283 20.12173843383789 L7.042999744415283 20.12173843383789 C7.410981178283691 18.415958404541016 7.779048919677734 16.710195541381836 8.147165298461914 15.004444122314453 C8.51528263092041 13.29869270324707 8.883447647094727 11.592952728271484 9.251625061035156 9.887213706970215 L9.251625061035156 9.887213706970215 C11.086045265197754 9.761260986328125 12.850454330444336 9.743098258972168 14.666876792907715 9.446945190429688 L14.666876792907715 9.446945190429688"></path></svg>