<svg xmlns="http://www.w3.org/2000/svg" viewBox="0.0 0.0 24.0 24.0" height="200px" width="200px"><path fill="none" stroke="black" stroke-width=".3" stroke-opacity="1.0"  filling="0" d="M16.003026962280273 10.457571029663086 L16.003026962280273 10.457571029663086 C16.629934310913086 10.457571029663086 17.25684356689453 10.457571029663086 17.883750915527344 10.457571029663086 L17.883750915527344 10.457571029663086 C16.948955535888672 12.722846031188965 16.014249801635742 14.98815631866455 15.079608917236328 17.253494262695312 L15.079608917236328 17.253494262695312 C14.126500129699707 17.253494262695312 13.173391342163086 17.253494262695312 12.220282554626465 17.253494262695312 L12.220282554626465 17.253494262695312 C12.220282554626465 15.723563194274902 12.220282554626465 14.193629264831543 12.220282554626465 12.663697242736816 L12.220282554626465 12.663697242736816 C12.131710052490234 12.644702911376953 12.043136596679688 12.625709533691406 11.954564094543457 12.606715202331543 L11.954564094543457 12.606715202331543 C11.274069786071777 14.15034294128418 10.59355354309082 15.693960189819336 9.913087844848633 17.237600326538086 L9.913087844848633 17.237600326538086 C8.969876289367676 17.237600326538086 8.026663780212402 17.237600326538086 7.083452224731445 17.237600326538086 L7.083452224731445 17.237600326538086 C7.083452224731445 14.987386703491211 7.083452224731445 12.737175941467285 7.083452224731445 10.48696231842041 L7.083452224731445 10.48696231842041 C7.693565845489502 10.48696231842041 8.303679466247559 10.48696231842041 8.913792610168457 10.48696231842041 L8.913792610168457 10.48696231842041 C8.913792610168457 12.061381340026855 8.913792610168457 13.635797500610352 8.913792610168457 15.21021842956543 L8.913792610168457 15.21021842956543 C8.966476440429688 15.231112480163574 9.019160270690918 15.252005577087402 9.071844100952148 15.272899627685547 L9.071844100952148 15.272899627685547 C9.803367614746094 13.678163528442383 10.534953117370605 12.083451271057129 11.266573905944824 10.488761901855469 L11.266573905944824 10.488761901855469 C12.091522216796875 10.488761901855469 12.91646957397461 10.488761901855469 13.74141788482666 10.488761901855469 L13.74141788482666 10.488761901855469 C13.74141788482666 12.065279960632324 13.74141788482666 13.641798973083496 13.74141788482666 15.218317031860352 L13.74141788482666 15.218317031860352 C13.836588859558105 15.232512474060059 13.931758880615234 15.246707916259766 14.02692985534668 15.260903358459473 L14.02692985534668 15.260903358459473 C14.685656547546387 13.65980339050293 15.344343185424805 12.05868911743164 16.003026962280273 10.457571029663086 L16.003026962280273 10.457571029663086"></path></svg>