<svg xmlns="http://www.w3.org/2000/svg" viewBox="0.0 0.0 24.0 24.0" height="200px" width="200px"><path fill="none" stroke="black" stroke-width=".3" stroke-opacity="1.0"  filling="0" d="M15.5969877243042 6.088373184204102 C16.80293846130371 6.088373184204102 18.020055770874023 6.088373184204102 19.64620590209961 6.088373184204102 C17.000991821289062 11.680293083190918 14.556767463684082 17.081798553466797 11.894508361816406 22.37340545654297 C10.59628963470459 24.953975677490234 8.138548851013184 25.55930519104004 5.070779323577881 25.190231323242188 C5.195371150970459 24.316329956054688 5.290577411651611 23.6492919921875 5.402827262878418 22.86178207397461 C7.111257553100586 22.395153045654297 8.832616806030273 21.89385223388672 9.157612800598145 19.695281982421875 C8.566390991210938 19.511920928955078 7.961652755737305 19.324443817138672 7.2910919189453125 19.11640167236328 C6.862074375152588 14.795665740966797 6.4401092529296875 10.551332473754883 5.998750686645508 6.108943939208984 C7.321651935577393 6.108943939208984 8.455316543579102 6.108943939208984 10.03680419921875 6.108943939208984 C10.270118713378906 9.25663948059082 10.511661529541016 12.516584396362305 10.753791809082031 15.775941848754883 C10.900715827941895 15.854692459106445 11.047639846801758 15.932855606079102 11.194562911987305 16.011606216430664 C12.64146900177002 12.749897956848145 14.088374137878418 9.488189697265625 15.5969877243042 6.088373184204102"></path></svg>