<svg xmlns="http://www.w3.org/2000/svg" viewBox="0.0 0.0 24.0 24.0" height="200px" width="200px"><path fill="none" stroke="black" stroke-width=".3" stroke-opacity="1.0"  filling="0" d="M12.953210830688477 5.1853203773498535 C15.15382194519043 3.7015275955200195 17.07186508178711 4.337001800537109 17.917736053466797 7.074005603790283 C19.242507934570312 11.35963249206543 18.456575393676758 15.521100044250488 16.762996673583984 19.566974639892578 C16.01926612854004 21.343730926513672 14.866971969604492 22.683794021606445 12.948317527770996 23.233638763427734 C16.979511260986328 18.6495418548584 17.211925506591797 13.197553634643555 16.32996940612793 7.588990211486816 C16.076759338378906 5.976757526397705 15.172782897949219 4.442201137542725 12.953210830688477 5.1853203773498535"></path>
<path fill="none" stroke="black" stroke-width=".3" stroke-opacity="1.0"  filling="0" d="M11.18317985534668 5.723547458648682 C10.460245132446289 8.655657768249512 9.599082946777344 11.563302993774414 9.070642471313477 14.530275344848633 C8.792966842651367 16.088685989379883 9.01131534576416 17.759021759033203 9.162385940551758 19.363914489746094 C9.380122184753418 21.67584228515625 10.55259895324707 23.140674591064453 13.058409690856934 23.178592681884766 C10.495718002319336 24.06177520751953 9.180734634399414 23.611621856689453 8.066361427307129 21.4703369140625 C5.92079496383667 17.34923553466797 7.599693775177002 8.867278099060059 11.18317985534668 5.723547458648682"></path></svg>