<svg xmlns="http://www.w3.org/2000/svg" viewBox="0.0 0.0 24.0 24.0" height="200px" width="200px"><path fill="none" stroke="black" stroke-width=".3" stroke-opacity="1.0"  filling="0" d="M14.092734336853027 7.919325351715088 L14.092734336853027 7.919325351715088 C15.862741470336914 9.763199806213379 15.704110145568848 10.71688461303711 14.285428047180176 12.845247268676758 C13.905730247497559 13.414885520935059 13.288576126098633 14.902876853942871 12.886454582214355 14.348840713500977 L12.886454582214355 14.348840713500977 C13.254039764404297 13.727181434631348 14.086812973022461 12.159542083740234 14.379903793334961 10.794584274291992 C14.672994613647461 9.42962646484375 14.426403999328613 8.267351150512695 12.635263442993164 8.456419944763184 C12.00341796875 8.523116111755371 11.450163841247559 8.914947509765625 10.857614517211914 9.144211769104004 L10.857614517211914 9.144211769104004 C11.355989456176758 8.685274124145508 11.719137191772461 8.007294654846191 12.352738380432129 7.767399311065674 C12.897223472595215 7.561245441436768 13.512735366821289 7.868683338165283 14.092734336853027 7.919325351715088 L14.092734336853027 7.919325351715088"></path>
<path fill="none" stroke="black" stroke-width=".3" stroke-opacity="1.0"  filling="0" d="M15.536689758300781 16.61219596862793 L15.536689758300781 16.61219596862793 C15.410069465637207 17.223644256591797 15.28345012664795 17.835092544555664 15.156829833984375 18.44654083251953 L15.156829833984375 18.44654083251953 C13.004060745239258 18.44654083251953 10.851295471191406 18.44654083251953 8.698527336120605 18.44654083251953 L8.698527336120605 18.44654083251953 C9.126716613769531 18.05813980102539 9.554906845092773 17.66973876953125 9.9830961227417 17.28133773803711 L9.9830961227417 17.28133773803711 C12.321508407592773 17.899547576904297 13.425267219543457 17.799327850341797 15.536689758300781 16.61219596862793 L15.536689758300781 16.61219596862793"></path></svg>