<svg xmlns="http://www.w3.org/2000/svg" viewBox="0.0 0.0 24.0 24.0" height="200px" width="200px"><path fill="none" stroke="black" stroke-width=".3" stroke-opacity="1.0"  filling="0" d="M18.33608055114746 3.3224973678588867 C20.516944885253906 3.5187978744506836 21.509225845336914 4.68468713760376 21.20853614807129 6.786123275756836 C20.637222290039062 10.775674819946289 19.76124382019043 14.736859321594238 18.731517791748047 18.635635375976562 C18.460895538330078 19.65968894958496 17.321670532226562 20.741043090820312 16.308399200439453 21.22952651977539 C13.113692283630371 22.768726348876953 9.686944961547852 22.641075134277344 6.367424964904785 21.67885971069336 C4.380592346191406 21.103008270263672 4.039618492126465 19.470195770263672 4.990485191345215 16.685680389404297 C6.080349445343018 16.685680389404297 7.199716567993164 16.685680389404297 8.303197860717773 16.685680389404297 C9.313634872436523 18.707122802734375 10.27301025390625 19.101425170898438 12.81981086730957 18.733787536621094 C15.892535209655762 18.290691375732422 15.314413070678711 15.746162414550781 16.036073684692383 13.487571716308594 C13.533526420593262 15.228178024291992 11.112676620483398 15.06818675994873 8.705443382263184 14.547933578491211 C6.677761554718018 14.109946250915527 5.8959641456604 13.117097854614258 6.160912036895752 11.1296968460083 C6.382743835449219 9.466249465942383 6.693647384643555 7.7069196701049805 7.469204425811768 6.260196685791016 C8.073991775512695 5.1317524909973145 9.348810195922852 3.850126266479492 10.509592056274414 3.6379404067993164 C13.059228897094727 3.171017646789551 15.747297286987305 3.0898866653442383 18.33608055114746 3.3224973678588867"></path>
<path fill="none" stroke="black" stroke-width=".3" stroke-opacity="1.0"  filling="0" d="M14.023710250854492 6.437208652496338 C15.270727157592773 6.530252933502197 16.86098861694336 6.0951008796691895 17.136716842651367 7.991726875305176 C17.418685913085938 9.930903434753418 16.10245132446289 11.324296951293945 14.020305633544922 11.457621574401855 C13.739471435546875 11.47520923614502 13.456367492675781 11.459890365600586 13.174398422241211 11.459890365600586 C13.077950477600098 11.59775447845459 12.980935096740723 11.735052108764648 12.884486198425293 11.872915267944336 C12.09020709991455 11.288553237915039 10.884604454040527 10.860209465026855 10.590153694152832 10.085220336914062 C10.037562370300293 8.631689071655273 11.398616790771484 6.8195977210998535 12.900938987731934 6.521742820739746 C13.26744270324707 6.449122905731201 13.65323543548584 6.409409046173096 14.023710250854492 6.437208652496338"></path></svg>