<svg xmlns="http://www.w3.org/2000/svg" viewBox="0.0 0.0 24.0 24.0" height="200px" width="200px"><path fill="none" stroke="black" stroke-width=".3" stroke-opacity="1.0"  filling="0" d="M17.48887825012207 3.842754364013672 C18.60752296447754 4.124892234802246 19.688278198242188 4.559759616851807 21.012115478515625 4.999289512634277 C21.115291595458984 6.059640884399414 21.223718643188477 7.16895866394043 21.331560134887695 8.277693748474121 C19.824100494384766 6.523654460906982 18.643665313720703 4.607559680938721 16.104999542236328 4.521868705749512 C15.15074348449707 4.489807605743408 14.162092208862305 4.40586519241333 13.242809295654297 4.599981784820557 C10.188833236694336 5.246452331542969 7.882758140563965 8.074251174926758 7.387849807739258 11.784607887268066 C6.899936676025391 15.442499160766602 7.3744425773620605 18.842153549194336 10.807906150817871 21.025230407714844 C13.537773132324219 22.760616302490234 16.539867401123047 22.15087127685547 18.5655517578125 19.61628532409668 C18.913562774658203 19.180835723876953 19.228927612304688 18.717988967895508 19.558866500854492 18.26796531677246 C19.429454803466797 21.77254867553711 19.42595863342285 21.75680923461914 16.661115646362305 22.382293701171875 C12.793951034545898 23.257272720336914 9.252062797546387 22.873119354248047 6.721558570861816 19.450733184814453 C4.43064022064209 16.352453231811523 4.640495300292969 11.33983039855957 7.005446910858154 7.91860818862915 C9.277711868286133 4.631459712982178 13.700993537902832 2.8884963989257812 17.48887825012207 3.842754364013672"></path></svg>