<svg xmlns="http://www.w3.org/2000/svg" viewBox="0.0 0.0 24.0 24.0" height="200px" width="200px"><path fill="none" stroke="black" stroke-width=".3" stroke-opacity="1.0"  filling="0" d="M7.8870697021484375 7.278782844543457 L7.8870697021484375 7.278782844543457 C8.976457595825195 7.270257949829102 10.363524436950684 7.111238479614258 11.728630065917969 7.09027099609375 C13.09373664855957 7.069303512573242 14.436881065368652 7.186387538909912 15.438424110412598 7.730068206787109 C16.62885284423828 8.3762845993042 17.21816062927246 10.506852149963379 17.215702056884766 12.638629913330078 C17.21324348449707 14.770406723022461 16.6190185546875 16.90339469909668 15.442386627197266 17.55445098876953 C14.445331573486328 18.106143951416016 13.102804183959961 18.230119705200195 11.736349105834961 18.216127395629883 C10.369894027709961 18.20213508605957 8.979510307312012 18.050174713134766 7.886743068695068 18.04999542236328 L7.886743068695068 18.04999542236328 C7.886881351470947 16.254793167114258 7.886962413787842 14.459590911865234 7.887009143829346 12.664388656616211 C7.88705587387085 10.869186401367188 7.887068271636963 9.073984146118164 7.8870697021484375 7.278782844543457 L7.8870697021484375 7.278782844543457"></path>
<path fill="none" stroke="black" stroke-width=".3" stroke-opacity="1.0"  filling="0" d="M9.517455101013184 8.794020652770996 L9.517455101013184 8.794020652770996 C10.702722549438477 8.687358856201172 12.858890533447266 8.272154808044434 13.96568775177002 8.918000221252441 C15.674039840698242 9.91486930847168 15.309249877929688 11.724481582641602 15.282337188720703 13.368401527404785 C15.271468162536621 14.032328605651855 15.372993469238281 15.440763473510742 14.76137638092041 16.035484313964844 C13.7008695602417 17.066694259643555 10.836518287658691 16.512693405151367 9.5174560546875 16.505970001220703 L9.5174560546875 16.505970001220703 C9.5174560546875 15.220643997192383 9.5174560546875 13.935319900512695 9.5174560546875 12.649994850158691 C9.5174560546875 11.364669799804688 9.5174560546875 10.079345703125 9.517455101013184 8.794020652770996 L9.517455101013184 8.794020652770996"></path></svg>