<svg xmlns="http://www.w3.org/2000/svg" viewBox="0.0 0.0 24.0 24.0" height="200px" width="200px"><path fill="none" stroke="black" stroke-width=".3" stroke-opacity="1.0"  filling="0" d="M18.271923065185547 4.09610652923584 C19.189067840576172 4.3818039894104 20.111461639404297 4.650591850280762 21.308473587036133 5.009753227233887 C21.308473587036133 6.414333343505859 21.308473587036133 7.614843845367432 21.308473587036133 8.815936088562012 C20.277048110961914 6.400339603424072 18.68589210510254 4.7223076820373535 15.98576545715332 4.507160663604736 C14.85463809967041 4.417369842529297 13.651212692260742 4.4447736740112305 12.563815116882324 4.7333855628967285 C8.583881378173828 5.790464878082275 6.26798677444458 10.176203727722168 6.872031211853027 15.28143310546875 C7.332645416259766 19.176822662353516 10.099823951721191 21.829139709472656 14.047689437866211 21.957996368408203 C15.439440727233887 22.00347328186035 16.9985294342041 22.081018447875977 17.575172424316406 20.180261611938477 C18.316234588623047 17.737842559814453 18.114498138427734 16.530336380004883 16.338512420654297 15.170068740844727 C16.902910232543945 15.170068740844727 17.277812957763672 15.170068740844727 17.652719497680664 15.170068740844727 C18.896957397460938 15.170068740844727 20.140613555908203 15.170068740844727 21.759174346923828 15.170068740844727 C18.96225929260254 17.172863006591797 19.39546775817871 19.625192642211914 19.835092544555664 22.061779022216797 C18.186796188354492 22.284507751464844 16.56240463256836 22.553295135498047 14.926936149597168 22.71596908569336 C10.488139152526855 23.15792465209961 6.7478413581848145 21.366195678710938 5.345011234283447 18.178634643554688 C3.720036506652832 14.484979629516602 4.732219696044922 9.443304061889648 7.797922611236572 6.659216403961182 C10.795991897583008 3.9369325637817383 14.265168190002441 2.8483686447143555 18.271923065185547 4.09610652923584"></path></svg>