<svg xmlns="http://www.w3.org/2000/svg" viewBox="0.0 0.0 24.0 24.0" height="200px" width="200px"><path fill="none" stroke="black" stroke-width=".3" stroke-opacity="1.0"  filling="0" d="M9.445255279541016 6.938053607940674 L9.445255279541016 6.938053607940674 C9.445255279541016 8.41901683807373 9.445255279541016 9.899982452392578 9.445255279541016 11.380946159362793 L9.445255279541016 11.380946159362793 C11.377175331115723 11.380946159362793 13.309096336364746 11.380946159362793 15.241016387939453 11.380946159362793 L15.241016387939453 11.380946159362793 C15.241016387939453 9.93124008178711 15.241016387939453 8.481534957885742 15.241016387939453 7.031829833984375 L15.241016387939453 7.031829833984375 C15.78487491607666 7.031829833984375 16.328733444213867 7.031829833984375 16.872591018676758 7.031829833984375 L16.872591018676758 7.031829833984375 C16.872591018676758 8.800407409667969 16.872591018676758 10.568984985351562 16.872591018676758 12.33756160736084 C16.872591018676758 14.106139183044434 16.872591018676758 15.874715805053711 16.872591018676758 17.643293380737305 L16.872591018676758 17.643293380737305 C16.326547622680664 17.643293380737305 15.780503273010254 17.643293380737305 15.234458923339844 17.643293380737305 L15.234458923339844 17.643293380737305 C15.234458923339844 16.098827362060547 15.234458923339844 14.554361343383789 15.234458923339844 13.009897232055664 L15.234458923339844 13.009897232055664 C13.334670066833496 13.009897232055664 11.434884071350098 13.009897232055664 9.535097122192383 13.009897232055664 L9.535097122192383 13.009897232055664 C9.535097122192383 14.585948944091797 9.535097122192383 16.162002563476562 9.535097122192383 17.738054275512695 L9.535097122192383 17.738054275512695 C8.990036964416504 17.70941734313965 8.444975852966309 17.680782318115234 7.8999152183532715 17.652145385742188 L7.8999152183532715 17.652145385742188 C7.8999152183532715 15.88083553314209 7.8999152183532715 14.109526634216309 7.8999152183532715 12.338216781616211 C7.8999152183532715 10.56690788269043 7.8999152183532715 8.795598983764648 7.8999152183532715 7.024289131164551 L7.8999152183532715 7.024289131164551 C8.41502857208252 6.995543956756592 8.93014144897461 6.966798782348633 9.445255279541016 6.938053607940674 L9.445255279541016 6.938053607940674"></path></svg>