<svg xmlns="http://www.w3.org/2000/svg" viewBox="0.0 0.0 24.0 24.0" height="200px" width="200px"><path fill="none" stroke="black" stroke-width=".3" stroke-opacity="1.0"  filling="0" d="M8.258584022521973 7.355996608734131 L8.258584022521973 7.355996608734131 C8.764542579650879 7.355996608734131 9.270502090454102 7.355996608734131 9.776460647583008 7.355996608734131 L9.776460647583008 7.355996608734131 C9.776460647583008 8.956347465515137 9.776460647583008 10.556699752807617 9.776460647583008 12.157049179077148 L9.776460647583008 12.157049179077148 C10.827919960021973 11.500872611999512 11.845250129699707 10.744712829589844 12.663131713867188 9.813475608825684 C13.098062515258789 9.318264961242676 14.284446716308594 7.637714385986328 15.032852172851562 7.3845953941345215 C15.589098930358887 7.196466445922852 16.207077026367188 7.404750823974609 16.794189453125 7.414828777313232 L16.794189453125 7.414828777313232 C15.302055358886719 9.118817329406738 13.809906959533691 10.822793960571289 12.317694664001465 12.526713371276855 L12.317694664001465 12.526713371276855 C13.976901054382324 14.307901382446289 15.63607120513916 16.0891170501709 17.295246124267578 17.870332717895508 L17.295246124267578 17.870332717895508 C16.72072982788086 17.892026901245117 16.12289810180664 18.098875045776367 15.571700096130371 17.93541717529297 C14.750382423400879 17.691856384277344 13.892045974731445 16.50354766845703 13.351970672607422 15.914216041564941 C12.207053184509277 14.664878845214844 11.306353569030762 13.865469932556152 9.809144973754883 13.047382354736328 L9.809144973754883 13.047382354736328 C9.809144973754883 14.686300277709961 9.809144973754883 16.325220108032227 9.809144973754883 17.96413803100586 L9.809144973754883 17.96413803100586 C9.292291641235352 17.96413803100586 8.775437355041504 17.96413803100586 8.258584022521973 17.96413803100586 L8.258584022521973 17.96413803100586 C8.258584022521973 16.19611358642578 8.258584022521973 14.428091049194336 8.258584022521973 12.660067558288574 C8.258584022521973 10.892044067382812 8.258584022521973 9.12402057647705 8.258584022521973 7.355996608734131 L8.258584022521973 7.355996608734131"></path></svg>