<svg xmlns="http://www.w3.org/2000/svg" viewBox="0.0 0.0 24.0 24.0" height="200px" width="200px"><path fill="none" stroke="black" stroke-width=".3" stroke-opacity="1.0"  filling="0" d="M12.399641990661621 6.826524257659912 L12.399641990661621 6.826524257659912 C13.15588092803955 9.088964462280273 13.907909393310547 11.352876663208008 14.66937255859375 13.613565444946289 C15.245718002319336 15.324663162231445 15.263016700744629 16.04819107055664 16.959007263183594 16.760517120361328 L16.959007263183594 16.760517120361328 C16.917701721191406 16.87677001953125 16.87639617919922 16.993022918701172 16.83509063720703 17.109275817871094 L16.83509063720703 17.109275817871094 C15.302873611450195 17.109275817871094 13.770657539367676 17.109275817871094 12.238439559936523 17.109275817871094 L12.238439559936523 17.109275817871094 C12.5839262008667 16.857051849365234 12.929413795471191 16.604827880859375 13.274900436401367 16.352603912353516 L13.274900436401367 16.352603912353516 C12.991793632507324 15.357367515563965 12.708734512329102 14.362117767333984 12.425715446472168 13.366856575012207 L12.425715446472168 13.366856575012207 C11.375236511230469 13.366856575012207 10.32475757598877 13.366856575012207 9.27427864074707 13.366856575012207 L9.27427864074707 13.366856575012207 C9.259835243225098 13.420124053955078 8.475549697875977 16.31234359741211 8.466303825378418 16.346437454223633 L8.466303825378418 16.346437454223633 C8.869636535644531 16.527076721191406 9.272970199584961 16.707717895507812 9.676302909851074 16.888357162475586 L9.676302909851074 16.888357162475586 C9.658360481262207 16.96283721923828 9.640417098999023 17.037317276000977 9.622474670410156 17.111797332763672 L9.622474670410156 17.111797332763672 C8.467985153198242 17.111797332763672 7.313495635986328 17.111797332763672 6.159006595611572 17.111797332763672 L6.159006595611572 17.111797332763672 C7.496616363525391 15.990413665771484 8.363605499267578 14.403037071228027 9.042640686035156 12.692206382751465 C9.721675872802734 10.981375694274902 10.212757110595703 9.147090911865234 10.798551559448242 7.531889915466309 L10.798551559448242 7.531889915466309 C11.33224868774414 7.2967681884765625 11.865944862365723 7.061645984649658 12.399641990661621 6.826524257659912 L12.399641990661621 6.826524257659912"></path>
<path fill="none" stroke="black" stroke-width=".3" stroke-opacity="1.0"  filling="0" d="M11.180952072143555 8.968132972717285 L11.180952072143555 8.968132972717285 C11.310514450073242 9.41241455078125 12.133560180664062 12.235408782958984 12.251055717468262 12.638501167297363 L12.251055717468262 12.638501167297363 C12.190423965454102 12.638501167297363 9.574568748474121 12.638501167297363 9.563040733337402 12.638501167297363 L9.563040733337402 12.638501167297363 C9.997711181640625 11.422593116760254 10.432442665100098 10.206706047058105 10.86723804473877 8.99084186553955 L10.86723804473877 8.99084186553955 C10.971809387207031 8.983272552490234 11.076380729675293 8.975702285766602 11.180952072143555 8.968132972717285 L11.180952072143555 8.968132972717285"></path></svg>