<svg xmlns="http://www.w3.org/2000/svg" viewBox="0.0 0.0 24.0 24.0" height="200px" width="200px"><path fill="none" stroke="black" stroke-width=".3" stroke-opacity="1.0"  filling="0" d="M5.037254810333252 4.351067066192627 C6.366978168487549 4.438677787780762 8.215448379516602 4.560871601104736 10.348077774047852 4.701509952545166 C9.621830940246582 5.156278133392334 9.004521369934082 5.54245662689209 8.168761253356934 6.065239429473877 C9.089250564575195 10.418684005737305 10.01319694519043 14.788844108581543 10.988442420959473 19.402238845825195 C11.6985502243042 19.04142189025879 12.091069221496582 18.841415405273438 13.049599647521973 18.353792190551758 C12.111818313598633 20.220130920410156 11.412086486816406 21.611526489257812 10.437417984008789 23.551067352294922 C10.065648078918457 22.415584564208984 9.828753471374512 21.859371185302734 9.70252513885498 21.278953552246094 C8.727855682373047 16.801008224487305 7.851748466491699 12.299431800842285 6.766989707946777 7.848577976226807 C6.448248386383057 6.540182113647461 5.557731628417969 5.371270656585693 5.037254810333252 4.351067066192627"></path>
<path fill="none" stroke="black" stroke-width=".3" stroke-opacity="1.0"  filling="0" d="M17.031850814819336 4.84906530380249 C18.98983383178711 4.84906530380249 20.623889923095703 4.84906530380249 22.258522033691406 4.84906530380249 C18.816919326782227 6.022586822509766 18.356386184692383 9.603673934936523 16.091764450073242 11.850427627563477 C16.989774703979492 9.90339469909668 17.88836097717285 7.956362724304199 18.817495346069336 5.941893100738525 C18.223817825317383 5.578769683837891 17.777694702148438 5.305562496185303 17.031850814819336 4.84906530380249"></path></svg>