<svg xmlns="http://www.w3.org/2000/svg" viewBox="0.0 0.0 24.0 24.0" height="200px" width="200px"><path fill="none" stroke="black" stroke-width=".3" stroke-opacity="1.0"  filling="0" d="M16.42080307006836 3.22329044342041 C18.01871109008789 3.22329044342041 19.80032730102539 3.22329044342041 21.58246612548828 3.22329044342041 C19.492050170898438 4.020412445068359 19.870460510253906 5.862217903137207 19.86208724975586 7.507230281829834 C19.836963653564453 12.280538558959961 19.853191375732422 17.053844451904297 19.396270751953125 22.048545837402344 C15.335820198059082 16.93869972229004 11.27589225769043 11.828851699829102 6.8218512535095215 6.222833156585693 C6.8218512535095215 11.014982223510742 6.745959758758545 15.176447868347168 6.898265838623047 19.329540252685547 C6.922865390777588 20.004711151123047 7.9560346603393555 20.643245697021484 8.674124717712402 21.473865509033203 C6.920248031616211 21.473865509033203 5.188877582550049 21.473865509033203 3.4580307006835938 21.473865509033203 C5.735819339752197 20.83480453491211 5.562576770782471 19.01603126525879 5.584036350250244 17.32653045654297 C5.623813629150391 14.190906524658203 5.653122901916504 11.05528450012207 5.651553153991699 7.919661045074463 C5.6499834060668945 4.856265068054199 5.454759120941162 4.588290214538574 2.7765769958496094 3.5441293716430664 C5.2495903968811035 2.309454917907715 7.431599140167236 2.7271194458007812 8.967745780944824 4.720707416534424 C11.624468803405762 8.168793678283691 14.281190872192383 11.616880416870117 16.948904037475586 15.05659294128418 C17.40843963623047 15.649068832397461 17.92397689819336 16.197580337524414 18.590774536132812 16.972719192504883 C18.590774536132812 13.041021347045898 18.726333618164062 9.428590774536133 18.494470596313477 5.839712619781494 C18.436899185180664 4.952568531036377 17.185476303100586 4.142885684967041 16.42080307006836 3.22329044342041"></path></svg>