<svg xmlns="http://www.w3.org/2000/svg" viewBox="0.0 0.0 24.0 24.0" height="200px" width="200px"><path fill="none" stroke="black" stroke-width=".3" stroke-opacity="1.0"  filling="0" d="M11.870241165161133 9.327164649963379 L11.870241165161133 9.327164649963379 C12.61368465423584 9.349939346313477 13.366113662719727 9.278020858764648 14.100571632385254 9.395489692687988 C17.212726593017578 9.8932466506958 17.04221534729004 12.591667175292969 16.957294464111328 15.093091011047363 L16.957294464111328 15.093091011047363 C14.640506744384766 15.092734336853027 12.323722839355469 15.092649459838867 10.00693416595459 15.09264087677002 L10.00693416595459 15.09264087677002 C10.010095596313477 15.74139404296875 9.795894622802734 16.428770065307617 10.016419410705566 17.03890037536621 C10.616621017456055 18.69948959350586 11.903007507324219 18.707740783691406 13.268697738647461 18.235727310180664 C14.63438892364502 17.76371192932129 16.079383850097656 16.811431884765625 16.996807098388672 16.550960540771484 L16.996807098388672 16.550960540771484 C16.924325942993164 17.43700408935547 17.092920303344727 18.5784912109375 16.283809661865234 19.252315521240234 C14.88767147064209 20.415014266967773 11.074319839477539 20.567819595336914 9.600956916809082 19.660053253173828 C8.366003036499023 18.899173736572266 7.707184791564941 17.277042388916016 7.542624473571777 15.5678071975708 C7.378064155578613 13.858572959899902 7.707761287689209 12.062238693237305 8.449837684631348 10.952956199645996 C9.426032066345215 9.493706703186035 10.33240032196045 9.635442733764648 11.870241165161133 9.327164649963379 L11.870241165161133 9.327164649963379"></path>
<path fill="none" stroke="black" stroke-width=".3" stroke-opacity="1.0"  filling="0" d="M12.630830764770508 10.899526596069336 L12.630830764770508 10.899526596069336 C14.753050804138184 11.19539737701416 14.723627090454102 11.469738960266113 14.908106803894043 13.606484413146973 L14.908106803894043 13.606484413146973 C13.279619216918945 13.606484413146973 11.65113639831543 13.606484413146973 10.022648811340332 13.606484413146973 L10.022648811340332 13.606484413146973 C10.336207389831543 11.36266803741455 10.377641677856445 11.122735977172852 12.630830764770508 10.899526596069336 L12.630830764770508 10.899526596069336"></path></svg>