<svg xmlns="http://www.w3.org/2000/svg" viewBox="0.0 0.0 24.0 24.0" height="200px" width="200px"><path fill="none" stroke="black" stroke-width=".3" stroke-opacity="1.0"  filling="0" d="M12.413732528686523 2.9712562561035156 C15.730201721191406 3.025686264038086 18.028966903686523 4.455199241638184 19.00983238220215 7.334566593170166 C19.531604766845703 8.865243911743164 19.65586280822754 10.53117561340332 20.030834197998047 12.513799667358398 C19.57284164428711 14.2704496383667 19.277042388916016 16.375682830810547 18.472116470336914 18.263187408447266 C17.325756072998047 20.951770782470703 14.978058815002441 22.1822509765625 12.08769416809082 22.169055938720703 C9.186883926391602 22.15641212463379 6.948597431182861 20.855554580688477 5.744508266448975 18.172468185424805 C4.093421936035156 14.492573738098145 4.095071315765381 10.66862964630127 5.550425052642822 6.9711408615112305 C6.728123188018799 3.979062080383301 9.327635765075684 2.9206724166870117 12.413732528686523 2.9712562561035156"></path>
<path fill="none" stroke="black" stroke-width=".3" stroke-opacity="1.0"  filling="0" d="M12.313668251037598 5.994124412536621 C14.2028226852417 6.0309624671936035 15.609243392944336 6.928256034851074 16.278915405273438 8.799267768859863 C17.177860260009766 11.311361312866211 17.10088539123535 13.83060073852539 16.239879608154297 16.309703826904297 C15.550413131713867 18.293977737426758 13.968053817749023 19.441436767578125 12.193259239196777 19.45188331604004 C10.254071235656738 19.463428497314453 8.734939575195312 18.30167579650879 8.05372142791748 16.104074478149414 C7.707339286804199 14.986306190490723 7.5885796546936035 13.797612190246582 7.325219631195068 12.423630714416504 C7.591878890991211 11.244832038879395 7.760671138763428 9.876898765563965 8.220314979553223 8.613430976867676 C8.888887405395508 6.774308204650879 10.430560111999512 5.957286834716797 12.313668251037598 5.994124412536621"></path></svg>