<svg xmlns="http://www.w3.org/2000/svg" viewBox="0.0 0.0 24.0 24.0" height="200px" width="200px"><path fill="none" stroke="black" stroke-width=".3" stroke-opacity="1.0"  filling="0" d="M11.857392311096191 9.288999557495117 L11.857392311096191 9.288999557495117 C11.976125717163086 9.336642265319824 12.094858169555664 9.384285926818848 12.213591575622559 9.431928634643555 L12.213591575622559 9.431928634643555 C12.009552001953125 11.315993309020996 12.033378601074219 13.886075019836426 11.489093780517578 16.031871795654297 C10.944808006286621 18.177669525146484 9.83241081237793 19.899181365966797 7.35591983795166 20.086109161376953 L7.35591983795166 20.086109161376953 C7.619723796844482 19.816631317138672 7.80070161819458 19.426197052001953 8.147331237792969 19.27767562866211 C8.564250946044922 19.099037170410156 9.119058609008789 19.406686782836914 9.503474235534668 19.16594123840332 C10.152131080627441 18.75971031188965 10.342073440551758 16.88016128540039 10.427531242370605 16.396202087402344 C10.779828071594238 14.40108871459961 11.51667594909668 12.197300910949707 10.704000473022461 10.306528091430664 L10.704000473022461 10.306528091430664 C11.088464736938477 9.967351913452148 11.472928047180176 9.628175735473633 11.857392311096191 9.288999557495117 L11.857392311096191 9.288999557495117"></path></svg>