<svg xmlns="http://www.w3.org/2000/svg" viewBox="0.0 0.0 24.0 24.0" height="200px" width="200px"><path fill="none" stroke="black" stroke-width=".3" stroke-opacity="1.0"  filling="0" d="M12.595784187316895 6.6870012283325195 L12.595784187316895 6.6870012283325195 C12.276076316833496 6.996748924255371 11.956367492675781 7.3064961433410645 11.636659622192383 7.616243839263916 L11.636659622192383 7.616243839263916 C11.956367492675781 7.3064961433410645 12.276076316833496 6.996748924255371 12.595784187316895 6.6870012283325195 L12.595784187316895 6.6870012283325195"></path>
<path fill="none" stroke="black" stroke-width=".3" stroke-opacity="1.0"  filling="0" d="M11.524007797241211 9.316593170166016 L11.524007797241211 9.316593170166016 C11.913263320922852 9.316593170166016 12.302519798278809 9.316593170166016 12.69177532196045 9.316593170166016 L12.69177532196045 9.316593170166016 C12.692517280578613 11.066997528076172 12.716059684753418 12.818605422973633 12.698562622070312 14.56884479522705 C12.694449424743652 14.980260848999023 12.81776237487793 16.878019332885742 12.221567153930664 17.270292282104492 C11.829277038574219 17.528404235839844 11.283003807067871 17.304229736328125 10.813721656799316 17.321197509765625 L10.813721656799316 17.321197509765625 C10.790655136108398 16.74660301208496 11.349332809448242 16.293853759765625 11.50301742553711 15.73971176147461 C12.011341094970703 13.906847953796387 11.52536678314209 11.21890926361084 11.524007797241211 9.316593170166016 L11.524007797241211 9.316593170166016"></path></svg>