<svg xmlns="http://www.w3.org/2000/svg" viewBox="0.0 0.0 24.0 24.0" height="200px" width="200px"><path fill="none" stroke="black" stroke-width=".3" stroke-opacity="1.0"  filling="0" d="M13.493570327758789 6.953782558441162 L13.493570327758789 6.953782558441162 C13.589908599853516 6.996577739715576 13.686245918273926 7.039373397827148 13.782584190368652 7.0821685791015625 L13.782584190368652 7.0821685791015625 C13.53706169128418 8.62741470336914 13.291533470153809 10.172659873962402 13.045989990234375 11.717903137207031 C12.800446510314941 13.263145446777344 12.554888725280762 14.808385848999023 12.309308052062988 16.353622436523438 L12.309308052062988 16.353622436523438 C12.708284378051758 16.388742446899414 13.107260704040527 16.423860549926758 13.506237030029297 16.458980560302734 L13.506237030029297 16.458980560302734 C12.976761817932129 16.890483856201172 12.447288513183594 17.321989059448242 11.917815208435059 17.753494262695312 L11.917815208435059 17.753494262695312 C11.75586986541748 16.166475296020508 11.878185272216797 14.568885803222656 12.100480079650879 12.974952697753906 C12.322773933410645 11.381020545959473 12.64504623413086 9.790745735168457 12.883015632629395 8.218358993530273 L12.883015632629395 8.218358993530273 C12.651287078857422 8.092179298400879 12.41955852508545 7.966000080108643 12.187829971313477 7.839820861816406 L12.187829971313477 7.839820861816406 C12.623076438903809 7.5444746017456055 13.058323860168457 7.249128818511963 13.493570327758789 6.953782558441162 L13.493570327758789 6.953782558441162"></path></svg>