<svg xmlns="http://www.w3.org/2000/svg" viewBox="0.0 0.0 24.0 24.0" height="200px" width="200px"><path fill="none" stroke="black" stroke-width=".3" stroke-opacity="1.0"  filling="0" d="M13.694282531738281 10.329886436462402 L13.694282531738281 10.329886436462402 C14.308469772338867 10.247657775878906 14.927664756774902 9.969677925109863 15.536844253540039 10.08320140838623 C16.974075317382812 10.35103702545166 17.469776153564453 11.701848983764648 17.595308303833008 13.233022689819336 C17.720840454101562 14.76419734954834 17.476200103759766 16.47573471069336 17.4327449798584 17.46502113342285 L17.4327449798584 17.46502113342285 C16.95083236694336 17.49672508239746 16.46891975402832 17.528430938720703 15.987007141113281 17.560134887695312 L15.987007141113281 17.560134887695312 C15.990198135375977 16.237258911132812 16.608488082885742 12.751726150512695 15.72018051147461 11.649559020996094 C15.277080535888672 11.099782943725586 13.614777565002441 11.334612846374512 13.253405570983887 11.651625633239746 C12.117379188537598 12.648202896118164 12.75830364227295 16.28266716003418 12.764969825744629 17.593503952026367 L12.764969825744629 17.593503952026367 C12.268088340759277 17.545166015625 11.77120590209961 17.496829986572266 11.274324417114258 17.4484920501709 L11.274324417114258 17.4484920501709 C11.27692985534668 16.12563133239746 11.875748634338379 12.812422752380371 11.029521942138672 11.687643051147461 C10.112969398498535 10.469388961791992 8.344392776489258 11.676734924316406 8.09376335144043 12.765748977661133 C7.753042697906494 14.246221542358398 8.00348949432373 15.963176727294922 7.884823322296143 17.482484817504883 L7.884823322296143 17.482484817504883 C7.485239028930664 17.512317657470703 7.085655212402344 17.542152404785156 6.686070919036865 17.571985244750977 L6.686070919036865 17.571985244750977 C6.686070919036865 15.182485580444336 6.686070919036865 12.79298210144043 6.686070919036865 10.403483390808105 L6.686070919036865 10.403483390808105 C7.239085674285889 10.495270729064941 7.792099952697754 10.587059020996094 8.345114707946777 10.67884635925293 L8.345114707946777 10.67884635925293 C10.22409439086914 9.895075798034668 10.785927772521973 9.976052284240723 12.51392936706543 11.065229415893555 L12.51392936706543 11.065229415893555 C12.907380104064941 10.820115089416504 13.30083179473877 10.575000762939453 13.694282531738281 10.329886436462402 L13.694282531738281 10.329886436462402"></path></svg>