<svg xmlns="http://www.w3.org/2000/svg" viewBox="0.0 0.0 24.0 24.0" height="200px" width="200px"><path fill="none" stroke="black" stroke-width=".3" stroke-opacity="1.0"  filling="0" d="M10.25914478302002 9.146560668945312 L10.25914478302002 9.146560668945312 C10.376477241516113 9.188753128051758 10.493809700012207 9.23094654083252 10.6111421585083 9.273138999938965 L10.6111421585083 9.273138999938965 C10.527419090270996 10.157588005065918 10.4437837600708 11.042044639587402 10.36021614074707 11.926507949829102 L10.36021614074707 11.926507949829102 C10.658117294311523 11.74179458618164 10.95601749420166 11.55708122253418 11.253918647766113 11.372367858886719 L11.253918647766113 11.372367858886719 C10.74075984954834 12.636543273925781 10.227699279785156 13.900758743286133 9.714569091796875 15.164945602416992 L9.714569091796875 15.164945602416992 C10.356284141540527 15.279939651489258 10.997998237609863 15.394933700561523 11.639713287353516 15.509927749633789 L11.639713287353516 15.509927749633789 C11.009779930114746 15.831286430358887 10.379863739013672 16.152679443359375 9.749959945678711 16.47409439086914 L9.749959945678711 16.47409439086914 C9.51230525970459 17.6146240234375 9.692808151245117 18.873676300048828 10.146913528442383 19.946557998657227 L10.146913528442383 19.946557998657227 C10.145965576171875 19.946557998657227 7.533867835998535 19.946557998657227 7.532442092895508 19.946557998657227 L7.532442092895508 19.946557998657227 C8.510185241699219 18.66860580444336 9.090948104858398 16.97129249572754 9.374786376953125 15.200130462646484 C9.658624649047852 13.42896842956543 9.645539283752441 11.58395767211914 9.435585975646973 10.010610580444336 L9.435585975646973 10.010610580444336 C9.710105895996094 9.722594261169434 9.984624862670898 9.434576988220215 10.25914478302002 9.146560668945312 L10.25914478302002 9.146560668945312"></path>
<path fill="none" stroke="black" stroke-width=".3" stroke-opacity="1.0"  filling="0" d="M12.945672988891602 9.45328140258789 L12.945672988891602 9.45328140258789 C12.683269500732422 9.815162658691406 12.420866012573242 10.177043914794922 12.158462524414062 10.538925170898438 L12.158462524414062 10.538925170898438 C14.2026948928833 11.423689842224121 13.043581008911133 13.295222282409668 12.4900541305542 15.063554763793945 L12.4900541305542 15.063554763793945 C14.146635055541992 12.945807456970215 14.75999641418457 11.63514518737793 12.945672988891602 9.45328140258789 L12.945672988891602 9.45328140258789"></path></svg>