<svg xmlns="http://www.w3.org/2000/svg" viewBox="0.0 0.0 24.0 24.0" height="200px" width="200px"><path fill="none" stroke="black" stroke-width=".3" stroke-opacity="1.0"  filling="0" d="M15.155462265014648 7.399710655212402 L15.155462265014648 7.399710655212402 C15.155462265014648 9.66033935546875 15.155462265014648 11.920963287353516 15.155462265014648 14.181591987609863 L15.155462265014648 14.181591987609863 C15.59315013885498 14.307267189025879 16.030838012695312 14.432941436767578 16.468524932861328 14.558616638183594 L16.468524932861328 14.558616638183594 C16.44353485107422 14.902891159057617 16.631345748901367 15.341230392456055 16.3935546875 15.591439247131348 C16.136903762817383 15.861494064331055 15.660785675048828 15.726518630981445 15.294401168823242 15.794057846069336 L15.294401168823242 15.794057846069336 C15.25661849975586 16.493425369262695 15.218783378601074 17.192790985107422 15.180901527404785 17.892154693603516 L15.180901527404785 17.892154693603516 C14.679506301879883 17.93661880493164 14.17811107635498 17.9810848236084 13.676715850830078 18.025548934936523 L13.676715850830078 18.025548934936523 C13.597209930419922 17.274765014648438 13.517739295959473 16.523975372314453 13.438302993774414 15.773183822631836 L13.438302993774414 15.773183822631836 C11.54111099243164 15.773641586303711 9.643922805786133 15.773812294006348 7.746729373931885 15.773836135864258 L7.746729373931885 15.773836135864258 C7.509767055511475 13.136213302612305 8.91923713684082 12.24484920501709 10.40024185180664 10.225851058959961 C10.856094360351562 9.60440444946289 11.672374725341797 8.183323860168457 12.351089477539062 7.702470779418945 C13.359846115112305 6.987791538238525 14.015091896057129 7.28404426574707 15.155462265014648 7.399710655212402 L15.155462265014648 7.399710655212402"></path>
<path fill="none" stroke="black" stroke-width=".3" stroke-opacity="1.0"  filling="0" d="M13.44189167022705 8.498823165893555 L13.44189167022705 8.498823165893555 C13.44189167022705 10.444173812866211 13.44189167022705 12.38952922821045 13.44189167022705 14.334879875183105 L13.44189167022705 14.334879875183105 C11.96390438079834 14.334879875183105 10.485923767089844 14.334879875183105 9.007936477661133 14.334879875183105 L9.007936477661133 14.334879875183105 C10.485997200012207 12.389583587646484 11.96397590637207 10.444230079650879 13.44189167022705 8.498823165893555 L13.44189167022705 8.498823165893555"></path></svg>