<svg xmlns="http://www.w3.org/2000/svg" viewBox="0.0 0.0 24.0 24.0" height="200px" width="200px"><path fill="none" stroke="black" stroke-width=".3" stroke-opacity="1.0"  filling="0" d="M13.041679382324219 7.424472332000732 L13.041679382324219 7.424472332000732 C15.54450511932373 8.366317749023438 15.726045608520508 10.238452911376953 13.779398918151855 12.02005672454834 L13.779398918151855 12.02005672454834 C14.175545692443848 12.279987335205078 14.634040832519531 12.463582038879395 14.967838287353516 12.799848556518555 C15.381986618041992 13.217061042785645 15.805862426757812 13.6809720993042 15.984174728393555 14.241141319274902 C16.64746856689453 16.32488441467285 15.321403503417969 17.272193908691406 13.572422981262207 17.694660186767578 C11.823442459106445 18.11712646484375 9.651548385620117 18.014747619628906 8.623186111450195 17.99911117553711 L8.623186111450195 17.99911117553711 C9.145133972167969 16.380983352661133 9.424742698669434 14.591594696044922 9.439563751220703 12.803980827331543 C9.454383850097656 11.016366004943848 9.20441722869873 9.230527877807617 8.667214393615723 7.61950159072876 L8.667214393615723 7.61950159072876 C10.240785598754883 7.260512351989746 11.439412117004395 7.227124214172363 13.041679382324219 7.424472332000732 L13.041679382324219 7.424472332000732"></path>
<path fill="none" stroke="black" stroke-width=".3" stroke-opacity="1.0"  filling="0" d="M10.568588256835938 8.148168563842773 L10.568588256835938 8.148168563842773 C11.647475242614746 7.86724853515625 12.397180557250977 7.311007499694824 13.332918167114258 8.291994094848633 C14.276338577270508 9.281035423278809 14.395705223083496 11.587777137756348 12.693732261657715 11.977578163146973 C12.00213623046875 12.13597297668457 11.276969909667969 11.89783763885498 10.568588256835938 11.857967376708984 L10.568588256835938 11.857967376708984 C10.568588256835938 11.857563018798828 10.568588256835938 8.185507774353027 10.568588256835938 8.148168563842773 L10.568588256835938 8.148168563842773"></path>
<path fill="none" stroke="black" stroke-width=".3" stroke-opacity="1.0"  filling="0" d="M10.445960998535156 12.555572509765625 L10.445960998535156 12.555572509765625 C10.677254676818848 12.550179481506348 12.573709487915039 12.476236343383789 12.882850646972656 12.575794219970703 C13.38033676147461 12.736008644104004 13.915902137756348 12.935057640075684 14.256821632385254 13.331207275390625 C15.40098762512207 14.66073226928711 14.788461685180664 16.192455291748047 13.721673965454102 17.020221710205078 C12.654887199401855 17.847990036010742 11.133838653564453 17.971803665161133 10.460963249206543 16.48551368713379 C10.406475067138672 16.365156173706055 10.445555686950684 12.616923332214355 10.445960998535156 12.555572509765625 L10.445960998535156 12.555572509765625"></path></svg>