<svg xmlns="http://www.w3.org/2000/svg" viewBox="0.0 0.0 24.0 24.0" height="200px" width="200px"><path fill="none" stroke="black" stroke-width=".3" stroke-opacity="1.0"  filling="0" d="M13.875789642333984 4.557702541351318 C18.571292877197266 5.614737033843994 21.674644470214844 9.160764694213867 21.73033905029297 13.457799911499023 C21.780864715576172 17.34775161743164 18.56785011291504 21.613208770751953 14.254737854003906 22.453781127929688 C10.749475479125977 23.137035369873047 7.090909481048584 23.031963348388672 3.541436195373535 23.27368927001953 C6.017225742340088 18.00574493408203 4.603636741638184 12.745265007019043 4.752918720245361 7.628901958465576 C4.7787556648254395 6.739521503448486 4.1293768882751465 5.830047607421875 3.7303342819213867 4.766124725341797 C6.888803005218506 4.020286560058594 10.374545097351074 3.7693777084350586 13.875789642333984 4.557702541351318"></path>
<path fill="none" stroke="black" stroke-width=".3" stroke-opacity="1.0"  filling="0" d="M7.138564109802246 5.7950239181518555 C10.977991104125977 4.170143127441406 15.121148109436035 5.022200584411621 17.441913604736328 7.911386966705322 C19.78794288635254 10.831579208374023 19.850528717041016 15.740671157836914 17.58201026916504 18.85550308227539 C15.300862312316895 21.98870849609375 11.215693473815918 23.10832977294922 7.138564109802246 21.514450073242188 C7.138564109802246 16.359617233276367 7.138564109802246 11.07732105255127 7.138564109802246 5.7950239181518555"></path></svg>