<svg xmlns="http://www.w3.org/2000/svg" viewBox="0.0 0.0 24.0 24.0" height="200px" width="200px"><path fill="none" stroke="black" stroke-width=".3" stroke-opacity="1.0"  filling="0" d="M7.96651029586792 3.141098976135254 C12.35754680633545 3.141098976135254 16.542919158935547 3.141098976135254 20.89495086669922 3.141098976135254 C20.750751495361328 3.894017219543457 20.627235412597656 4.538194179534912 20.455848693847656 5.4323577880859375 C17.231420516967773 5.4323577880859375 14.015856742858887 5.4323577880859375 10.615906715393066 5.4323577880859375 C10.152572631835938 7.404482364654541 9.737699508666992 9.170352935791016 9.251907348632812 11.237035751342773 C12.476334571838379 11.237035751342773 15.395222663879395 11.237035751342773 18.589509963989258 11.237035751342773 C18.469539642333984 12.117016792297363 18.387393951416016 12.7210054397583 18.27569580078125 13.545433044433594 C15.166510581970215 13.545433044433594 12.153656005859375 13.545433044433594 8.838808059692383 13.545433044433594 C8.358925819396973 15.639892578125 7.9127302169799805 17.58542251586914 7.365475654602051 19.974193572998047 C10.829843521118164 19.974193572998047 13.913026809692383 19.974193572998047 17.15695571899414 19.974193572998047 C17.06298828125 20.993648529052734 17.00507164001465 21.625415802001953 16.93888282775879 22.341690063476562 C12.546072006225586 22.34109878540039 8.360699653625488 22.34109878540039 3.8591480255126953 22.34109878540039 C5.251513481140137 15.831964492797852 6.598374843597412 9.537355422973633 7.96651029586792 3.141098976135254"></path></svg>