<svg xmlns="http://www.w3.org/2000/svg" viewBox="0.0 0.0 24.0 24.0" height="200px" width="200px"><path fill="none" stroke="black" stroke-width=".3" stroke-opacity="1.0"  filling="0" d="M19.77435302734375 3.6185855865478516 C21.721078872680664 4.218952178955078 22.028514862060547 6.137222766876221 21.78915023803711 7.770933151245117 C21.321022033691406 10.963586807250977 20.640865325927734 14.144523620605469 19.777700424194336 17.25515365600586 C19.044540405273438 19.898218154907227 17.03030014038086 21.363422393798828 14.321399688720703 21.758460998535156 C13.227235794067383 21.91803741455078 12.107965469360352 21.90911102294922 10.426271438598633 22.01177406311035 C9.518468856811523 21.886791229248047 8.042102813720703 21.77519989013672 6.609816551208496 21.46106719970703 C4.956020355224609 21.098392486572266 4.091738224029541 19.93783187866211 4.106245517730713 18.24553680419922 C4.142512321472168 14.128341674804688 4.995635032653809 10.15510082244873 6.694068908691406 6.42345666885376 C7.153270721435547 5.41410493850708 8.18159294128418 4.3997321128845215 9.19708251953125 3.9544782638549805 C12.629659652709961 2.4491004943847656 16.24636459350586 2.5311203002929688 19.77435302734375 3.6185855865478516"></path>
<path fill="none" stroke="black" stroke-width=".3" stroke-opacity="1.0"  filling="0" d="M16.19782066345215 5.474924564361572 C18.45923614501953 5.626689434051514 19.135486602783203 6.2672295570373535 18.821353912353516 8.432676315307617 C18.412368774414062 11.255401611328125 17.791915893554688 14.064177513122559 17.031414031982422 16.814926147460938 C16.26310157775879 19.594690322875977 13.81086254119873 19.437902450561523 11.855767250061035 19.516016006469727 C6.974165439605713 19.519922256469727 6.330278396606445 18.744354248046875 7.300014495849609 14.285688400268555 C7.73131799697876 12.301578521728516 8.163738250732422 10.315794944763184 8.685989379882812 8.354561805725098 C9.133474349975586 6.673982620239258 10.226520538330078 5.637848854064941 12.04379940032959 5.560292720794678 C13.4281005859375 5.501706600189209 14.821330070495605 5.3828606605529785 16.19782066345215 5.474924564361572"></path></svg>