<svg xmlns="http://www.w3.org/2000/svg" viewBox="0.0 0.0 24.0 24.0" height="200px" width="200px"><path fill="none" stroke="black" stroke-width=".3" stroke-opacity="1.0"  filling="0" d="M7.9333882331848145 3.0750017166137695 C11.6438627243042 3.0750017166137695 15.293184280395508 2.9346437454223633 18.925033569335938 3.1291656494140625 C21.022842407226562 3.2415685653686523 22.195213317871094 4.861224174499512 21.97564697265625 6.9794158935546875 C21.81723403930664 8.507052421569824 21.446826934814453 10.042842864990234 20.948875427246094 11.498845100402832 C20.114879608154297 13.937938690185547 18.361270904541016 15.301919937133789 15.707269668579102 15.318809509277344 C13.294967651367188 15.333951950073242 10.883247375488281 15.321722030639648 8.397562026977539 15.321722030639648 C7.819820404052734 17.68335723876953 7.317208290100098 19.736318588256836 6.75985050201416 22.013507843017578 C6.000982761383057 22.068836212158203 5.181545257568359 22.129404067993164 3.867650032043457 22.22549819946289 C5.243861198425293 15.7427978515625 6.5560102462768555 9.561197280883789 7.9333882331848145 3.0750017166137695"></path>
<path fill="none" stroke="black" stroke-width=".3" stroke-opacity="1.0"  filling="0" d="M10.376558303833008 5.69755220413208 C13.389899253845215 5.69755220413208 15.862771987915039 5.69755220413208 18.252944946289062 5.69755220413208 C19.71535301208496 10.44994068145752 18.03396224975586 12.839529991149902 13.448140144348145 12.881464004516602 C12.102210998535156 12.893693923950195 10.7562837600708 12.883211135864258 8.94035816192627 12.883211135864258 C9.447629928588867 10.346273422241211 9.91588020324707 8.003276824951172 10.376558303833008 5.69755220413208"></path></svg>