<svg xmlns="http://www.w3.org/2000/svg" viewBox="0.0 0.0 24.0 24.0" height="200px" width="200px"><path fill="none" stroke="black" stroke-width=".3" stroke-opacity="1.0"  filling="0" d="M5.285876274108887 4.393989562988281 C6.477728843688965 4.393989562988281 7.411552906036377 4.393989562988281 8.459165573120117 4.393989562988281 C9.452821731567383 6.627044200897217 10.448080062866211 8.863839149475098 11.542704582214355 11.32447338104248 C13.219633102416992 9.353188514709473 14.79078483581543 7.673588275909424 16.161067962646484 5.843872547149658 C17.25729751586914 4.380099296569824 18.490819931030273 3.8661766052246094 20.469585418701172 4.547311305999756 C18.08694839477539 7.334356784820557 15.798866271972656 10.010282516479492 13.465376853942871 12.740167617797852 C14.736294746398926 15.776695251464844 15.961270332336426 18.704240798950195 17.253023147583008 21.79045295715332 C16.14878273010254 21.79045295715332 15.275860786437988 21.79045295715332 14.202071189880371 21.79045295715332 C13.142705917358398 19.37415885925293 12.05716323852539 16.899099349975586 10.882404327392578 14.219432830810547 C8.990717887878418 16.39586067199707 7.212287425994873 18.258163452148438 5.65769624710083 20.291955947875977 C4.5320868492126465 21.763206481933594 3.285207748413086 22.257896423339844 1.2695817947387695 21.588516235351562 C3.8343896865844727 18.644941329956055 6.320133686065674 15.79272174835205 8.955459594726562 12.76848030090332 C7.773221969604492 10.070650100708008 6.574958324432373 7.336493015289307 5.285876274108887 4.393989562988281"></path></svg>