<svg xmlns="http://www.w3.org/2000/svg" viewBox="0.0 0.0 24.0 24.0" height="200px" width="200px"><path fill="none" stroke="black" stroke-width=".3" stroke-opacity="1.0"  filling="0" d="M12.447858810424805 12.57437515258789 L12.447858810424805 12.57437515258789 C14.55542278289795 11.356001853942871 15.168203353881836 11.59105110168457 17.33523941040039 12.674385070800781 L17.33523941040039 12.674385070800781 C15.281103134155273 13.207817077636719 14.47379207611084 12.614656448364258 12.447858810424805 12.57437515258789 L12.447858810424805 12.57437515258789"></path>
<path fill="none" stroke="black" stroke-width=".3" stroke-opacity="1.0"  filling="0" d="M11.20893669128418 12.990811347961426 L11.20893669128418 12.990811347961426 C10.821212768554688 14.105652809143066 10.295064926147461 15.80871295928955 10.281786918640137 17.377012252807617 C10.268507957458496 18.945310592651367 10.768097877502441 20.378847122192383 12.431848526000977 20.954641342163086 C13.669150352478027 21.382848739624023 15.467409133911133 20.76458740234375 16.555925369262695 20.534198760986328 L16.555925369262695 20.534198760986328 C15.207279205322266 21.480525970458984 14.460870742797852 22.324975967407227 12.751852035522461 22.420589447021484 C11.089214324951172 22.513607025146484 9.889598846435547 21.632539749145508 9.22584342956543 20.39206886291504 C8.562088012695312 19.151596069335938 8.434192657470703 17.551721572875977 8.914994239807129 16.20712661743164 C9.498559951782227 14.575143814086914 10.041728019714355 14.254999160766602 11.20893669128418 12.990811347961426 L11.20893669128418 12.990811347961426"></path></svg>