<svg xmlns="http://www.w3.org/2000/svg" viewBox="0.0 0.0 24.0 24.0" height="200px" width="200px"><path fill="none" stroke="black" stroke-width=".3" stroke-opacity="1.0"  filling="0" d="M19.264583587646484 8.107378959655762 C20.27260971069336 8.765130043029785 21.022287368774414 10.435659408569336 21.130855560302734 11.704407691955566 C21.28221893310547 13.477165222167969 20.719562530517578 15.310153007507324 20.416046142578125 17.443485260009766 C16.059831619262695 17.443485260009766 11.885091781616211 17.443485260009766 7.222189426422119 17.443485260009766 C7.222189426422119 19.477760314941406 7.222189426422119 20.870132446289062 7.222189426422119 22.642099380493164 C10.499852180480957 23.001880645751953 13.65785026550293 24.83090591430664 16.085189819335938 20.865379333496094 C16.478256225585938 20.22268295288086 18.146408081054688 20.36057472229004 19.544328689575195 20.071319580078125 C19.167110443115234 23.416343688964844 17.659832000732422 25.285783767700195 14.90361499786377 25.66299819946289 C12.326498031616211 26.015649795532227 9.640811920166016 26.167802810668945 7.073996543884277 25.84368324279785 C4.021396636962891 25.458541870117188 2.829519271850586 23.596233367919922 3.274888038635254 20.477859497070312 C3.6267452239990234 18.010894775390625 4.107775688171387 15.528081893920898 4.868548393249512 13.160969734191895 C6.580286502838135 7.8355607986450195 14.518473625183105 5.007230281829834 19.264583587646484 8.107378959655762"></path>
<path fill="none" stroke="black" stroke-width=".3" stroke-opacity="1.0"  filling="0" d="M17.10430908203125 10.72095012664795 C17.10430908203125 11.954828262329102 17.10430908203125 13.279841423034668 17.10430908203125 14.831500053405762 C14.195940017700195 14.831500053405762 11.405646324157715 14.831500053405762 8.597919464111328 14.831500053405762 C9.055968284606934 10.128974914550781 10.970579147338867 9.182764053344727 17.10430908203125 10.72095012664795"></path></svg>