<svg xmlns="http://www.w3.org/2000/svg" viewBox="0.0 0.0 24.0 24.0" height="200px" width="200px"><path fill="none" stroke="black" stroke-width=".3" stroke-opacity="1.0"  filling="0" d="M15.43043327331543 7.1006669998168945 L15.43043327331543 7.1006669998168945 C14.133279800415039 8.562214851379395 13.357503890991211 8.33201789855957 12.783135414123535 10.333789825439453 L12.783135414123535 10.333789825439453 C13.343573570251465 10.404594421386719 13.904011726379395 10.475399017333984 14.464449882507324 10.54620361328125 L14.464449882507324 10.54620361328125 C14.140595436096191 11.252372741699219 13.233306884765625 11.613008499145508 12.468531608581543 11.749667167663574 L12.468531608581543 11.749667167663574 C12.008066177368164 13.766671180725098 11.547652244567871 15.783682823181152 11.087360382080078 17.80072593688965 L11.087360382080078 17.80072593688965 C10.701737403869629 17.80072593688965 10.316115379333496 17.80072593688965 9.930492401123047 17.80072593688965 L9.930492401123047 17.80072593688965 C9.486845970153809 16.2345027923584 10.783085823059082 14.561790466308594 10.697881698608398 12.974982261657715 C10.670914649963379 12.472757339477539 10.294282913208008 12.034364700317383 10.253451347351074 11.533076286315918 C10.15591049194336 10.335580825805664 10.401058197021484 10.501842498779297 11.188586235046387 10.33186149597168 L11.188586235046387 10.33186149597168 C12.065380096435547 7.610466003417969 12.533527374267578 6.9661455154418945 15.43043327331543 7.1006669998168945 L15.43043327331543 7.1006669998168945"></path></svg>