<svg xmlns="http://www.w3.org/2000/svg" viewBox="0.0 0.0 24.0 24.0" height="200px" width="200px"><path fill="none" stroke="black" stroke-width=".3" stroke-opacity="1.0"  filling="0" d="M10.211605072021484 3.0775270462036133 C10.231374740600586 3.2730913162231445 10.251145362854004 3.468655586242676 10.270915031433105 3.6647539138793945 C9.503621101379395 3.891842842102051 8.735791206359863 4.119467258453369 7.497753620147705 4.486015796661377 C8.93990421295166 9.054518699645996 10.336103439331055 13.478218078613281 11.732301712036133 17.901384353637695 C11.96419906616211 17.901918411254883 12.196097373962402 17.902986526489258 12.428529739379883 17.903520584106445 C13.861063003540039 13.844232559204102 15.364660263061523 9.806851387023926 16.654529571533203 5.7026801109313965 C16.860244750976562 5.0486626625061035 16.106842041015625 4.09274959564209 15.744033813476562 3.1363039016723633 C17.485942840576172 3.1363039016723633 19.446392059326172 3.1363039016723633 21.40683937072754 3.1363039016723633 C17.490215301513672 4.781498432159424 17.287708282470703 8.765981674194336 15.843419075012207 11.88057804107666 C14.291730880737305 15.227607727050781 13.054227828979492 18.720508575439453 11.679937362670898 22.149822235107422 C11.479029655456543 22.154632568359375 11.278122901916504 22.159976959228516 11.077215194702148 22.164783477783203 C10.469684600830078 20.56768035888672 9.824216842651367 18.983930587768555 9.262638092041016 17.37079429626465 C8.094597816467285 14.015215873718262 6.960753440856934 10.647882461547852 5.83385705947876 7.278411388397217 C5.313955783843994 5.72619104385376 4.9388580322265625 4.094353199005127 3.087411880493164 3.3361425399780273 C5.562418460845947 2.853109359741211 7.887813091278076 2.9289846420288086 10.211605072021484 3.0775270462036133"></path></svg>