<svg xmlns="http://www.w3.org/2000/svg" viewBox="0.0 0.0 24.0 24.0" height="200px" width="200px"><path fill="none" stroke="black" stroke-width=".3" stroke-opacity="1.0"  filling="0" d="M14.913893699645996 9.545076370239258 L14.913893699645996 9.545076370239258 C17.307987213134766 10.1185884475708 16.92906951904297 11.04715633392334 16.761322021484375 13.408093452453613 L16.761322021484375 13.408093452453613 C16.29088020324707 13.461528778076172 15.82043743133545 13.514963150024414 15.349995613098145 13.568398475646973 L15.349995613098145 13.568398475646973 C14.692660331726074 12.848586082458496 15.508913040161133 11.628857612609863 14.200607299804688 11.348156929016113 C13.083616256713867 11.108503341674805 11.668004989624023 12.025650024414062 11.24224853515625 13.007390022277832 C10.763212203979492 14.111988067626953 10.462855339050293 15.359965324401855 10.216565132141113 16.624784469604492 C9.970273971557617 17.889604568481445 9.778050422668457 19.1712646484375 9.515279769897461 20.343229293823242 L9.515279769897461 20.343229293823242 C8.833869934082031 20.343229293823242 8.152460098266602 20.343229293823242 7.471049785614014 20.343229293823242 L7.471049785614014 20.343229293823242 C7.831534385681152 18.64349365234375 8.191956520080566 16.943740844726562 8.552358627319336 15.243986129760742 C8.912759780883789 13.544231414794922 9.273141860961914 11.844470977783203 9.633544921875 10.1447172164917 L9.633544921875 10.1447172164917 C11.396538734436035 9.905760765075684 13.139196395874023 9.6748628616333 14.913893699645996 9.545076370239258 L14.913893699645996 9.545076370239258"></path></svg>