<svg xmlns="http://www.w3.org/2000/svg" viewBox="0.0 0.0 24.0 24.0" height="200px" width="200px"><path fill="none" stroke="black" stroke-width=".3" stroke-opacity="1.0"  filling="0" d="M18.82859992980957 7.697695732116699 C21.33062744140625 7.866762638092041 22.014171600341797 9.802536964416504 21.14214515686035 12.687996864318848 C20.09619903564453 12.439654350280762 18.4014835357666 12.498705863952637 18.112695693969727 11.889581680297852 C16.908193588256836 9.34953498840332 14.725695610046387 9.955425262451172 12.860300064086914 10.005578994750977 C9.861589431762695 10.085662841796875 9.405351638793945 10.859810829162598 9.550149917602539 14.902852058410645 C11.30229663848877 15.048460006713867 13.112686157226562 15.223188400268555 14.92712116241455 15.342910766601562 C17.22125244140625 15.494989395141602 19.66988754272461 15.367179870605469 20.393882751464844 18.32706069946289 C20.973886489868164 20.69723129272461 19.321237564086914 24.54855728149414 17.014972686767578 25.550823211669922 C13.314918518066406 27.158981323242188 9.439326286315918 27.072425842285156 5.581529140472412 26.022430419921875 C3.5939836502075195 25.48125457763672 3.1717214584350586 23.779260635375977 3.515517234802246 22.205081939697266 C3.7120866775512695 21.303932189941406 5.025793552398682 20.64788818359375 6.245662689208984 19.495159149169922 C7.997808933258057 23.83993148803711 9.179658889770508 24.481414794921875 12.791540145874023 23.914352416992188 C15.757891654968262 23.448406219482422 16.152652740478516 22.9420166015625 16.411510467529297 18.83749771118164 C14.239527702331543 18.610187530517578 12.023054122924805 18.471050262451172 9.839747428894043 18.123210906982422 C7.921769618988037 17.817432403564453 5.656760215759277 17.9136962890625 5.310537815093994 15.09780502319336 C4.960270404815674 12.246320724487305 6.459220886230469 8.585094451904297 8.886825561523438 8.15393352508545 C12.132261276245117 7.577165126800537 15.531393051147461 7.4752397537231445 18.82859992980957 7.697695732116699"></path></svg>