<svg xmlns="http://www.w3.org/2000/svg" viewBox="0.0 0.0 24.0 24.0" height="200px" width="200px"><path fill="none" stroke="black" stroke-width=".3" stroke-opacity="1.0"  filling="0" d="M13.141918182373047 5.193977355957031 C13.054311752319336 6.202127456665039 12.970075607299805 7.1711907386779785 12.86359977722168 8.390270233154297 C14.64942741394043 8.390270233154297 16.412342071533203 8.390270233154297 18.19210433959961 8.390270233154297 C18.008129119873047 10.794061660766602 18.010150909423828 10.83180046081543 16.224323272705078 10.918732643127441 C14.910898208618164 10.982752799987793 13.592082023620605 10.931535720825195 12.133095741271973 10.931535720825195 C11.376309394836426 14.431084632873535 10.699042320251465 17.561336517333984 10.004928588867188 20.77043342590332 C12.114226341247559 21.779930114746094 13.508519172668457 21.632347106933594 14.150069236755371 19.454986572265625 C14.567212104797363 18.03980255126953 15.473602294921875 17.84841537475586 16.707508087158203 18.205581665039062 C16.49388313293457 21.631000518798828 15.51538372039795 23.095378875732422 13.036791801452637 23.75579833984375 C8.427335739135742 24.98431396484375 6.338928699493408 23.02933692932129 7.3416876792907715 18.413143157958984 C7.838348865509033 16.125261306762695 8.359272003173828 13.843446731567383 8.855259895324707 11.621606826782227 C6.59972620010376 9.818258285522461 6.62398624420166 9.81960678100586 8.839086532592773 8.374771118164062 C9.30744457244873 8.068821907043457 9.744804382324219 7.427271842956543 9.833758354187012 6.880741596221924 C10.160598754882812 4.889376163482666 11.268485069274902 4.588143825531006 13.141918182373047 5.193977355957031"></path></svg>