<svg xmlns="http://www.w3.org/2000/svg" viewBox="0.0 0.0 24.0 24.0" height="200px" width="200px"><path fill="none" stroke="black" stroke-width=".3" stroke-opacity="1.0"  filling="0" d="M6.409660339355469 11.472538948059082 C6.409660339355469 12.60929012298584 6.201675891876221 13.674442291259766 6.45330286026001 14.616848945617676 C6.974286079406738 16.569171905517578 7.679386138916016 18.48126220703125 8.454723358154297 20.349708557128906 C8.605426788330078 20.712488174438477 9.418951034545898 20.79977035522461 9.92697811126709 21.01389503479004 C9.92697811126709 21.01389503479004 9.858104705810547 20.950477600097656 9.858104705810547 20.950477600097656 C9.541696548461914 22.198379516601562 9.225288391113281 23.446285247802734 8.908197402954102 24.694190979003906 C8.662026405334473 24.71328353881836 8.415854454040527 24.732376098632812 8.170365333557129 24.751468658447266 C6.476487636566162 20.480636596679688 4.782610893249512 16.209802627563477 2.9946298599243164 11.701662063598633 C3.429009437561035 11.640290260314941 4.016138553619385 11.519590377807617 4.609404563903809 11.482086181640625 C5.27836275100708 11.439806938171387 5.95277738571167 11.472538948059082 6.409660339355469 11.472538948059082"></path>
<path fill="none" stroke="black" stroke-width=".3" stroke-opacity="1.0"  filling="0" d="M17.912202835083008 11.540047645568848 C19.631311416625977 11.540047645568848 20.84170913696289 11.540047645568848 22.194629669189453 11.540047645568848 C20.60781478881836 14.799601554870605 19.072824478149414 17.952775955200195 17.537830352783203 21.1059513092041 C17.445091247558594 21.026168823242188 17.352352142333984 20.945703506469727 17.259611129760742 20.865917205810547 C17.81741714477539 19.169313430786133 18.28862190246582 17.437931060791016 18.958261489868164 15.787014961242676 C19.582895278930664 14.248613357543945 19.88020896911621 12.86228084564209 17.912202835083008 11.540047645568848"></path>
<path fill="none" stroke="black" stroke-width=".3" stroke-opacity="1.0"  filling="0" d="M13.22131061553955 12.102628707885742 C14.18690299987793 15.082597732543945 15.051570892333984 17.83821678161621 16.013071060180664 20.560420989990234 C16.090808868408203 20.781360626220703 16.827959060668945 20.7697696685791 17.258930206298828 20.865921020507812 C17.352352142333984 20.945703506469727 17.445091247558594 21.026168823242188 17.537151336669922 21.10663604736328 C17.141639709472656 22.353174209594727 16.745447158813477 23.59903335571289 16.34993553161621 24.8455753326416 C16.12149429321289 24.849666595458984 15.892372131347656 24.85307502746582 15.66392993927002 24.857166290283203 C14.649239540100098 22.242023468017578 13.635232925415039 19.626195907592773 12.543485641479492 16.8126163482666 C11.504247665405273 18.41375160217285 10.68117618560791 19.682113647460938 9.858104705810547 20.950477600097656 C9.858104705810547 20.950477600097656 9.926297187805176 21.01389503479004 9.926297187805176 21.01389503479004 C10.253615379333496 19.963064193725586 10.465009689331055 18.85767936706543 10.932121276855469 17.872995376586914 C11.866345405578613 15.906351089477539 12.555761337280273 14.043359756469727 9.54169750213623 12.26833438873291 C11.449013710021973 12.182413101196289 12.518938064575195 12.134678840637207 13.22131061553955 12.102628707885742"></path></svg>