<svg xmlns="http://www.w3.org/2000/svg" viewBox="0.0 0.0 24.0 24.0" height="200px" width="200px"><path fill="none" stroke="black" stroke-width=".3" stroke-opacity="1.0"  filling="0" d="M8.85543441772461 11.703303337097168 L8.85543441772461 11.703303337097168 C8.880402565002441 13.502227783203125 8.996807098388672 16.241525650024414 10.833925247192383 17.070316314697266 L10.833925247192383 17.070316314697266 C10.821011543273926 17.058425903320312 10.808097839355469 17.046533584594727 10.795184135437012 17.034643173217773 L10.795184135437012 17.034643173217773 C10.617166519165039 17.73661231994629 10.439059257507324 18.43855857849121 10.26086139678955 19.14048194885254 L10.26086139678955 19.14048194885254 C10.122517585754395 19.151222229003906 9.984174728393555 19.16196060180664 9.845830917358398 19.172700881958008 L9.845830917358398 19.172700881958008 C9.360603332519531 17.949283599853516 8.875377655029297 16.72586441040039 8.390152931213379 15.50244426727295 C7.904927730560303 14.279025077819824 7.419703483581543 13.055604934692383 6.934479236602783 11.832184791564941 L6.934479236602783 11.832184791564941 C7.570384979248047 11.745715141296387 8.213685989379883 11.706707000732422 8.85543441772461 11.703303337097168 L8.85543441772461 11.703303337097168"></path>
<path fill="none" stroke="black" stroke-width=".3" stroke-opacity="1.0"  filling="0" d="M15.325613975524902 11.741276741027832 L15.325613975524902 11.741276741027832 C15.848225593566895 11.741276741027832 17.178077697753906 11.741276741027832 17.734477996826172 11.741276741027832 L17.734477996826172 11.741276741027832 C16.861324310302734 13.534879684448242 15.988174438476562 15.328489303588867 15.115030288696289 17.12209701538086 L15.115030288696289 17.12209701538086 C15.062864303588867 17.077091217041016 15.010697364807129 17.032085418701172 14.958531379699707 16.987079620361328 L14.958531379699707 16.987079620361328 C15.602421760559082 14.948202133178711 16.669301986694336 13.576651573181152 15.325613975524902 11.741276741027832 L15.325613975524902 11.741276741027832"></path>
<path fill="none" stroke="black" stroke-width=".3" stroke-opacity="1.0"  filling="0" d="M12.686986923217773 12.05772876739502 L12.686986923217773 12.05772876739502 C13.1138334274292 13.381182670593262 13.4457426071167 15.682501792907715 14.257351875305176 16.815237045288086 C14.43415641784668 17.061996459960938 14.88508129119873 16.92386245727539 15.114646911621094 17.122482299804688 L15.114646911621094 17.122482299804688 C14.892044067382812 17.82353401184082 14.669441223144531 18.52458381652832 14.44683837890625 19.225635528564453 L14.44683837890625 19.225635528564453 C14.318212509155273 19.22780990600586 14.189586639404297 19.229982376098633 14.06096076965332 19.23215675354004 L14.06096076965332 19.23215675354004 C13.47585391998291 17.723812103271484 12.890843391418457 16.21543312072754 12.305710792541504 14.707096099853516 L12.305710792541504 14.707096099853516 C11.802183151245117 15.482933044433594 11.29867172241211 16.258779525756836 10.795184135437012 17.034643173217773 L10.795184135437012 17.034643173217773 C10.80797004699707 17.046533584594727 10.820755958557129 17.058425903320312 10.833541870117188 17.070316314697266 L10.833541870117188 17.070316314697266 C10.850038528442383 17.018802642822266 11.886488914489746 13.869771003723145 11.841103553771973 13.68682861328125 C11.683478355407715 13.051456451416016 11.025171279907227 12.662901878356934 10.617204666137695 12.150938034057617 L10.617204666137695 12.150938034057617 C11.280126571655273 12.121127128601074 12.013419151306152 12.088132858276367 12.686986923217773 12.05772876739502 L12.686986923217773 12.05772876739502"></path></svg>