<svg xmlns="http://www.w3.org/2000/svg" viewBox="0.0 0.0 24.0 24.0" height="200px" width="200px"><path fill="none" stroke="black" stroke-width=".3" stroke-opacity="1.0"  filling="0" d="M9.254495620727539 5.326420307159424 C9.709283828735352 9.028865814208984 10.141128540039062 12.541864395141602 10.572973251342773 16.05486297607422 C10.717705726623535 16.091928482055664 10.861849784851074 16.12958335876465 11.006582260131836 16.166648864746094 C12.635116577148438 12.670124053955078 14.264240264892578 9.173009872436523 15.969846725463867 5.511160373687744 C16.735280990600586 5.511160373687744 17.578378677368164 5.511160373687744 18.427356719970703 5.511160373687744 C18.450302124023438 5.718845844268799 18.542673110961914 5.92947244644165 18.477954864501953 6.0653791427612305 C16.092809677124023 11.08924388885498 13.756498336791992 16.137821197509766 11.273689270019531 21.11285400390625 C9.682809829711914 24.299320220947266 8.783231735229492 24.767053604125977 4.766610622406006 24.436405181884766 C6.314542770385742 22.93201446533203 7.86247444152832 21.42702865600586 9.020334243774414 20.30211639404297 C7.265305042266846 15.181761741638184 7.428276538848877 10.414414405822754 6.454568386077881 5.564699649810791 C7.3870930671691895 5.4852728843688965 8.188416481018066 5.417025089263916 9.254495620727539 5.326420307159424"></path></svg>