<svg xmlns="http://www.w3.org/2000/svg" viewBox="0.0 0.0 24.0 24.0" height="200px" width="200px"><path fill="none" stroke="black" stroke-width=".3" stroke-opacity="1.0"  filling="0" d="M11.865656852722168 3.1014108657836914 C13.902578353881836 2.9294519424438477 16.012468338012695 3.026744842529297 18.028461456298828 3.3644399642944336 C20.065380096435547 3.70552921295166 20.715883255004883 4.764434814453125 20.489620208740234 6.808708667755127 C20.24808692932129 8.988174438476562 19.771808624267578 11.115034103393555 17.58498764038086 12.2904634475708 C20.515640258789062 16.625072479248047 18.245670318603516 21.57058334350586 13.046177864074707 22.094947814941406 C11.36957836151123 22.26407814025879 9.651687622070312 22.250503540039062 7.971128463745117 22.10512924194336 C4.766697406768799 21.827959060668945 3.8882360458374023 20.64630889892578 4.289851188659668 17.465068817138672 C4.337365627288818 17.093433380126953 4.424476623535156 16.72688865661621 4.551748752593994 16.045276641845703 C5.430774688720703 16.045276641845703 6.1576409339904785 16.045276641845703 7.047980785369873 16.045276641845703 C7.1232123374938965 17.031774520874023 7.199010372161865 18.021671295166016 7.286686420440674 19.164857864379883 C9.327001571655273 19.91378402709961 11.366750717163086 20.001461029052734 13.38556957244873 19.512170791625977 C14.114131927490234 19.335683822631836 15.015785217285156 18.777950286865234 15.324066162109375 18.144418716430664 C16.834362030029297 15.038410186767578 16.19064712524414 13.292237281799316 12.841975212097168 13.701769828796387 C12.382099151611328 13.757770538330078 11.904120445251465 13.674053192138672 11.435758590698242 13.63841724395752 C11.355436325073242 13.632195472717285 11.281335830688477 13.538862228393555 11.03075122833252 13.365771293640137 C11.10767936706543 12.852158546447754 11.1981840133667 12.245210647583008 11.285295486450195 11.664850234985352 C17.38474464416504 10.813539505004883 17.594600677490234 10.62234878540039 17.289148330688477 6.265680313110352 C13.222094535827637 4.339061737060547 10.407964706420898 5.220351219177246 8.881264686584473 9.052093505859375 C8.255084991455078 9.087728500366211 7.549149036407471 9.127890586853027 6.782121658325195 9.172011375427246 C6.687657356262207 8.792457580566406 6.535496711730957 8.523772239685059 6.575092792510986 8.286762237548828 C7.144142150878906 4.860029697418213 8.505671501159668 3.385369300842285 11.865656852722168 3.1014108657836914"></path></svg>