<svg xmlns="http://www.w3.org/2000/svg" viewBox="0.0 0.0 24.0 24.0" height="200px" width="200px"><path fill="none" stroke="black" stroke-width=".3" stroke-opacity="1.0"  filling="0" d="M10.602392196655273 3.089552879333496 C11.733048439025879 3.089552879333496 12.687498092651367 3.089552879333496 13.77703857421875 3.089552879333496 C16.160518646240234 9.400079727172852 18.529903411865234 15.673016548156738 20.906335830688477 21.96474838256836 C18.80243492126465 22.34006690979004 18.80243492126465 22.34006690979004 17.20189666748047 18.414196014404297 C14.074827194213867 18.414194107055664 10.88079833984375 18.414194107055664 7.638606071472168 18.414194107055664 C6.065672874450684 19.53192710876465 7.124671936035156 22.811710357666016 3.5564985275268555 22.21848487854004 C5.938217639923096 15.7505464553833 8.265899658203125 9.43179702758789 10.602392196655273 3.089552879333496"></path>
<path fill="none" stroke="black" stroke-width=".3" stroke-opacity="1.0"  filling="0" d="M11.969751358032227 5.568772792816162 C12.15241813659668 5.585218906402588 12.335672378540039 5.601077079772949 12.518339157104492 5.617523193359375 C13.809343338012695 9.114625930786133 15.100346565246582 12.61172866821289 16.47945213317871 16.34729766845703 C13.566177368164062 16.34729766845703 10.979473114013672 16.34729766845703 7.978683948516846 16.34729766845703 C9.382458686828613 12.557104110717773 10.675811767578125 9.062938690185547 11.969751358032227 5.568772792816162"></path></svg>