<svg xmlns="http://www.w3.org/2000/svg" viewBox="0.0 0.0 24.0 24.0" height="200px" width="200px"><path fill="none" stroke="black" stroke-width=".3" stroke-opacity="1.0"  filling="0" d="M14.72314739227295 7.003429889678955 L14.72314739227295 7.003429889678955 C15.407875061035156 7.003429889678955 16.092601776123047 7.003429889678955 16.77733039855957 7.003429889678955 L16.77733039855957 7.003429889678955 C15.707422256469727 8.802188873291016 14.637593269348145 10.600994110107422 13.567752838134766 12.399792671203613 L13.567752838134766 12.399792671203613 C14.666399002075195 14.200993537902832 15.765010833740234 16.002216339111328 16.863636016845703 17.803428649902344 L16.863636016845703 17.803428649902344 C16.16887855529785 17.803428649902344 15.47412109375 17.803428649902344 14.779363632202148 17.803428649902344 L14.779363632202148 17.803428649902344 C13.965469360351562 16.45302963256836 13.151522636413574 15.102668762207031 12.337624549865723 13.752272605895996 L12.337624549865723 13.752272605895996 C11.529902458190918 15.092527389526367 10.722162246704102 16.43277359008789 9.914402961730957 17.773006439208984 L9.914402961730957 17.773006439208984 C9.808785438537598 17.773006439208984 7.835235118865967 17.773006439208984 7.802682399749756 17.773006439208984 L7.802682399749756 17.773006439208984 C8.906377792358398 15.973403930664062 10.009961128234863 14.173728942871094 11.113448143005371 12.373998641967773 L11.113448143005371 12.373998641967773 C10.038089752197266 10.601480484008789 8.962529182434082 8.829086303710938 7.88700532913208 7.056669235229492 L7.88700532913208 7.056669235229492 C8.591242790222168 7.056669235229492 9.295480728149414 7.056669235229492 9.999717712402344 7.056669235229492 L9.999717712402344 7.056669235229492 C10.791558265686035 8.381057739257812 11.583417892456055 9.705432891845703 12.375321388244629 11.029786109924316 L12.375321388244629 11.029786109924316 C13.157873153686523 9.687634468078613 13.940450668334961 8.34549617767334 14.72314739227295 7.003429889678955 L14.72314739227295 7.003429889678955"></path></svg>