<svg xmlns="http://www.w3.org/2000/svg" viewBox="0.0 0.0 24.0 24.0" height="200px" width="200px"><path fill="none" stroke="black" stroke-width=".3" stroke-opacity="1.0"  filling="0" d="M13.132347106933594 3.09267520904541 C15.344209671020508 3.185421943664551 17.48739242553711 3.832310676574707 18.208242416381836 6.281912326812744 C18.86452293395996 8.511972427368164 17.54550552368164 9.971872329711914 15.45221996307373 11.175834655761719 C16.30925750732422 11.674795150756836 16.94734001159668 11.989434242248535 17.52437400817871 12.390951156616211 C20.82749366760254 14.690278053283691 20.7318115234375 19.004230499267578 17.280763626098633 21.091060638427734 C16.383220672607422 21.633460998535156 15.307228088378906 22.12889862060547 14.290522575378418 22.178207397460938 C11.319066047668457 22.322025299072266 8.335868835449219 22.22927474975586 5.6949005126953125 22.22927474975586 C6.0823283195495605 20.618515014648438 6.675798416137695 19.13043785095215 6.757392883300781 17.61477279663086 C6.936431407928467 14.30871868133545 6.966368675231934 10.983880996704102 6.826660633087158 7.6766533851623535 C6.7691330909729 6.307741165161133 6.120483875274658 4.9634833335876465 5.629154682159424 3.2112512588500977 C7.9578328132629395 3.1625289916992188 10.551253318786621 2.9840774536132812 13.132347106933594 3.09267520904541"></path>
<path fill="none" stroke="black" stroke-width=".3" stroke-opacity="1.0"  filling="0" d="M9.648427963256836 4.573706150054932 C11.537434577941895 3.7008190155029297 13.2450532913208 3.794740676879883 14.692625045776367 5.297492027282715 C15.918893814086914 6.570722579956055 15.966443061828613 8.131001472473145 15.135819435119629 9.591487884521484 C13.918355941772461 11.732909202575684 11.882010459899902 11.15294075012207 9.648427963256836 11.105393409729004 C9.648427963256836 8.682206153869629 9.648427963256836 6.675798416137695 9.648427963256836 4.573706150054932"></path>
<path fill="none" stroke="black" stroke-width=".3" stroke-opacity="1.0"  filling="0" d="M9.455888748168945 12.363947868347168 C11.182878494262695 12.363947868347168 12.444368362426758 12.26063346862793 13.681790351867676 12.388014793395996 C15.583709716796875 12.584076881408691 16.599828720092773 13.905441284179688 16.997821807861328 15.62890911102295 C17.392295837402344 17.337116241455078 17.092330932617188 18.973119735717773 15.574905395507812 20.093727111816406 C14.083894729614258 21.194374084472656 12.350446701049805 21.60763168334961 10.609954833984375 20.95193862915039 C10.069903373718262 20.74883270263672 9.550984382629395 19.762653350830078 9.507545471191406 19.10284996032715 C9.368423461914062 16.98725700378418 9.455888748168945 14.856402397155762 9.455888748168945 12.363947868347168"></path></svg>