<svg xmlns="http://www.w3.org/2000/svg" viewBox="0.0 0.0 24.0 24.0" height="200px" width="200px"><path fill="none" stroke="black" stroke-width=".3" stroke-opacity="1.0"  filling="0" d="M7.972362518310547 6.983678817749023 L7.972362518310547 6.983678817749023 C9.035594940185547 6.9749345779418945 10.409273147583008 6.810275077819824 11.760648727416992 6.77824592590332 C13.112024307250977 6.746216773986816 14.441095352172852 6.846817970275879 15.415114402770996 7.368594169616699 C16.33918571472168 7.863613605499268 16.57045555114746 8.624029159545898 16.741588592529297 9.592755317687988 C16.919517517089844 10.599946975708008 17.125965118408203 12.254470825195312 17.00395965576172 13.797357559204102 C16.881954193115234 15.340243339538574 16.43149757385254 16.77149200439453 15.29561996459961 17.332128524780273 C13.301764488220215 18.316238403320312 10.11196517944336 17.738859176635742 7.972362518310547 17.72109603881836 L7.972362518310547 17.72109603881836 C7.972362518310547 15.931526184082031 7.972362518310547 14.14195728302002 7.972362518310547 12.352387428283691 C7.972362518310547 10.56281852722168 7.972362518310547 8.773248672485352 7.972362518310547 6.983678817749023 L7.972362518310547 6.983678817749023"></path>
<path fill="none" stroke="black" stroke-width=".3" stroke-opacity="1.0"  filling="0" d="M9.233814239501953 8.03740119934082 L9.233814239501953 8.03740119934082 C10.686448097229004 8.01942253112793 13.964685440063477 7.401212692260742 15.109807968139648 8.603866577148438 C16.13237190246582 9.677803993225098 15.940526962280273 13.260037422180176 15.6344575881958 14.576967239379883 C15.512289047241211 15.102625846862793 15.411094665527344 15.708175659179688 15.012126922607422 16.071584701538086 C13.764917373657227 17.20763397216797 10.73287296295166 16.70812225341797 9.233814239501953 16.707019805908203 L9.233814239501953 16.707019805908203 C9.233814239501953 15.262084007263184 9.233814239501953 13.817147254943848 9.233814239501953 12.372210502624512 C9.233814239501953 10.927274703979492 9.233814239501953 9.482337951660156 9.233814239501953 8.03740119934082 L9.233814239501953 8.03740119934082"></path></svg>