<svg xmlns="http://www.w3.org/2000/svg" viewBox="0.0 0.0 24.0 24.0" height="200px" width="200px"><path fill="none" stroke="black" stroke-width=".3" stroke-opacity="1.0"  filling="0" d="M16.623849868774414 3.671459197998047 C17.675933837890625 3.577927589416504 18.754663467407227 3.7876644134521484 19.965469360351562 3.869858741760254 C20.104915618896484 5.293236255645752 20.25513458251953 6.822048664093018 20.404781341552734 8.35029411315918 C20.26193618774414 8.40981388092041 20.11908721923828 8.468767166137695 19.976238250732422 8.528286933898926 C19.64632797241211 8.130353927612305 19.30111312866211 7.7448906898498535 18.98990821838379 7.333353519439697 C16.468530654907227 4.003637790679932 11.933677673339844 3.615907669067383 8.846576690673828 6.471731662750244 C6.250373363494873 8.873502731323242 5.257807731628418 13.287615776062012 6.555342197418213 16.66438102722168 C7.762179851531982 19.80590057373047 11.12704086303711 21.844318389892578 14.969761848449707 21.760990142822266 C17.35906410217285 21.70940589904785 17.976369857788086 21.164657592773438 18.22635269165039 18.813901901245117 C18.29607582092285 18.15974998474121 18.264331817626953 17.494827270507812 18.287572860717773 16.835006713867188 C18.342557907104492 15.298257827758789 17.848825454711914 14.256376266479492 16.083633422851562 14.237668991088867 C15.767895698547363 14.234267234802246 15.454991340637207 13.97464656829834 15.140951156616211 13.833500862121582 C15.15909194946289 13.648136138916016 15.178365707397461 13.462774276733398 15.198205947875977 13.277411460876465 C17.40838050842285 13.277411460876465 19.618553161621094 13.277411460876465 22.163171768188477 13.277411460876465 C19.636125564575195 15.852640151977539 21.35653305053711 18.993026733398438 20.374740600585938 21.8199405670166 C16.876100540161133 23.041515350341797 13.272024154663086 23.204204559326172 9.665117263793945 22.147018432617188 C5.762875556945801 21.002532958984375 3.2188234329223633 17.57248306274414 3.0810775756835938 13.526826858520508 C2.9399309158325195 9.384806632995605 5.111557483673096 5.871996879577637 9.139074325561523 4.645885944366455 C11.5147705078125 3.922576904296875 14.114376068115234 3.894801139831543 16.623849868774414 3.671459197998047"></path></svg>