<svg xmlns="http://www.w3.org/2000/svg" viewBox="0.0 0.0 24.0 24.0" height="200px" width="200px"><path fill="none" stroke="black" stroke-width=".3" stroke-opacity="1.0"  filling="0" d="M15.786442756652832 7.066216468811035 L15.786442756652832 7.066216468811035 C15.883209228515625 7.196061134338379 15.979975700378418 7.325906276702881 16.07674217224121 7.455750942230225 L16.07674217224121 7.455750942230225 C14.544124603271484 9.12671947479248 13.011415481567383 10.797605514526367 11.478687286376953 12.46847152709961 L11.478687286376953 12.46847152709961 C13.218162536621094 14.217307090759277 14.95758056640625 15.966187477111816 16.696969985961914 17.715106964111328 L16.696969985961914 17.715106964111328 C15.30422592163086 17.829479217529297 14.056886672973633 16.926593780517578 12.861372947692871 15.825849533081055 C11.66585922241211 14.725103378295898 10.522171020507812 13.426497459411621 9.336730003356934 12.74942684173584 L9.336730003356934 12.74942684173584 C9.336730003356934 14.427314758300781 9.336730003356934 16.10519790649414 9.336730003356934 17.78308868408203 L9.336730003356934 17.78308868408203 C8.938603401184082 17.7831974029541 8.540477752685547 17.78330421447754 8.142351150512695 17.78341293334961 L8.142351150512695 17.78341293334961 C8.142351150512695 16.041301727294922 8.142351150512695 14.299188613891602 8.142351150512695 12.557076454162598 C8.142351150512695 10.814964294433594 8.142351150512695 9.07285213470459 8.142351150512695 7.330739498138428 L8.142351150512695 7.330739498138428 C8.52082347869873 7.330739498138428 8.899296760559082 7.330739498138428 9.277769088745117 7.330739498138428 L9.277769088745117 7.330739498138428 C9.277769088745117 8.790929794311523 9.277769088745117 10.251121520996094 9.277769088745117 11.711312294006348 L9.277769088745117 11.711312294006348 C10.64719009399414 11.415351867675781 11.652873992919922 10.589812278747559 12.626944541931152 9.670394897460938 C13.601015090942383 8.750978469848633 14.543474197387695 7.73768424987793 15.786442756652832 7.066216468811035 L15.786442756652832 7.066216468811035"></path></svg>