<svg xmlns="http://www.w3.org/2000/svg" viewBox="0.0 0.0 24.0 24.0" height="200px" width="200px"><path fill="none" stroke="black" stroke-width=".3" stroke-opacity="1.0"  filling="0" d="M15.470311164855957 2.5830249786376953 C17.83199691772461 2.7666025161743164 19.551992416381836 4.137636661529541 19.670516967773438 6.5500407218933105 C19.859054565429688 10.366556167602539 19.83810806274414 14.210084915161133 19.602710723876953 18.02384376525879 C19.47646713256836 20.06854248046875 17.86066436767578 21.291282653808594 15.865028381347656 21.459972381591797 C13.504995346069336 21.658985137939453 11.097002029418945 21.727344512939453 8.746892929077148 21.48863983154297 C6.295899391174316 21.239459991455078 5.092453479766846 19.849132537841797 4.729712009429932 17.325918197631836 C4.470609188079834 15.518824577331543 4.413828372955322 13.68250846862793 4.257815361022949 11.759641647338867 C4.410520076751709 10.110210418701172 4.455725193023682 8.361549377441406 4.758378505706787 6.6580915451049805 C5.213736057281494 4.093533992767334 6.385758399963379 2.8548059463500977 8.893533706665039 2.5940513610839844 C11.065028190612793 2.368577003479004 13.288893699645996 2.4132308959960938 15.470311164855957 2.5830249786376953"></path>
<path fill="none" stroke="black" stroke-width=".3" stroke-opacity="1.0"  filling="0" d="M9.82023811340332 4.26884126663208 C11.453680992126465 4.1222004890441895 13.124612808227539 4.144803524017334 14.75695514678955 4.308533191680908 C16.902538299560547 4.524084568023682 17.57124137878418 5.2876081466674805 17.929574966430664 7.427127838134766 C17.9593448638916 7.607397079467773 17.974227905273438 7.792076110839844 17.974781036376953 7.975100994110107 C17.978639602661133 9.349994659423828 17.976985931396484 10.72544002532959 17.976985931396484 12.100333213806152 C17.970369338989258 12.100333213806152 17.96320152282715 12.100333213806152 17.956586837768555 12.100333213806152 C17.956586837768555 13.566740036010742 18.06574058532715 15.043620109558105 17.931228637695312 16.497346878051758 C17.7233943939209 18.748226165771484 16.868358612060547 19.65949058532715 14.67977523803711 19.832592010498047 C12.955920219421387 19.968759536743164 11.205053329467773 19.87228775024414 9.472929954528809 19.766992568969727 C7.758998394012451 19.662799835205078 6.712667942047119 18.601585388183594 6.648167610168457 16.946640014648438 C6.523027420043945 13.747559547424316 6.439784049987793 10.531389236450195 6.637142658233643 7.340576648712158 C6.771103382110596 5.1729416847229 7.641575336456299 4.464545249938965 9.82023811340332 4.26884126663208"></path></svg>