<svg xmlns="http://www.w3.org/2000/svg" viewBox="0.0 0.0 24.0 24.0" height="200px" width="200px"><path fill="none" stroke="black" stroke-width=".3" stroke-opacity="1.0"  filling="0" d="M4.935932159423828 3.52968692779541 C8.853473663330078 3.147846221923828 12.58683967590332 2.3865089416503906 16.224010467529297 3.7179689407348633 C18.46755027770996 4.539132595062256 20.04946517944336 6.114009380340576 20.176158905029297 8.653754234313965 C20.301681518554688 11.178834915161133 18.945585250854492 13.058128356933594 16.7777099609375 13.977246284484863 C14.681394577026367 14.865862846374512 12.345768928527832 15.190223693847656 10.012487411499023 15.78849983215332 C9.266401290893555 19.41863441467285 9.498086929321289 19.989343643188477 12.959295272827148 22.16484260559082 C10.241241455078125 22.16484260559082 7.818805694580078 22.16484260559082 5.396369934082031 22.16484260559082 C7.545475006103516 21.021076202392578 7.37713623046875 19.07022476196289 7.371271133422852 17.178028106689453 C7.362473011016846 14.25644302368164 7.360126495361328 11.334856033325195 7.364819049835205 8.413269996643066 C7.367165565490723 6.490572452545166 7.590639591217041 4.468748569488525 4.935932159423828 3.52968692779541"></path>
<path fill="none" stroke="black" stroke-width=".3" stroke-opacity="1.0"  filling="0" d="M10.019527435302734 4.477545261383057 C12.580973625183105 3.720900535583496 14.698405265808105 3.833517074584961 16.350704193115234 5.791408538818359 C17.59183692932129 7.261879920959473 17.615886688232422 9.994598388671875 16.53077507019043 11.842804908752441 C15.32952880859375 13.889264106750488 13.500091552734375 14.48460865020752 10.019526481628418 13.879293441772461 C10.019526481628418 10.608125686645508 10.019526481628418 7.5457682609558105 10.019527435302734 4.477545261383057"></path></svg>