<svg xmlns="http://www.w3.org/2000/svg" viewBox="0.0 0.0 24.0 24.0" height="200px" width="200px"><path fill="none" stroke="black" stroke-width=".3" stroke-opacity="1.0"  filling="0" d="M8.703429222106934 7.059541702270508 L8.703429222106934 7.059541702270508 C10.04267406463623 7.059541702270508 11.381917953491211 7.059541702270508 12.721162796020508 7.059541702270508 C14.060406684875488 7.059541702270508 15.399650573730469 7.059541702270508 16.738895416259766 7.059541702270508 L16.738895416259766 7.059541702270508 C15.515605926513672 8.757776260375977 14.292352676391602 10.456037521362305 13.069132804870605 12.154322624206543 C11.845911979675293 13.852607727050781 10.622724533081055 15.55091667175293 9.399567604064941 17.24924659729004 L9.399567604064941 17.24924659729004 C10.902921676635742 17.254728317260742 12.870320320129395 17.550457000732422 14.345636367797852 17.224069595336914 C15.337315559387207 17.00467872619629 16.33290672302246 15.887094497680664 17.131099700927734 15.315528869628906 L17.131099700927734 15.315528869628906 C16.812917709350586 16.163537979125977 16.494728088378906 17.01154136657715 16.176525115966797 17.859542846679688 L16.176525115966797 17.859542846679688 C14.687789916992188 17.859542846679688 13.199054718017578 17.859542846679688 11.710320472717285 17.859542846679688 C10.221586227416992 17.859542846679688 8.732851028442383 17.859542846679688 7.24411678314209 17.859542846679688 L7.24411678314209 17.859542846679688 C8.475112915039062 16.174697875976562 9.706136703491211 14.489873886108398 10.937154769897461 12.805046081542969 C12.168172836303711 11.120217323303223 13.399185180664062 9.435384750366211 14.630158424377441 7.750523567199707 L14.630158424377441 7.750523567199707 C13.482921600341797 7.742027282714844 11.63705825805664 7.427815914154053 10.526128768920898 7.783889293670654 C9.496094703674316 8.114034652709961 8.738178253173828 9.228636741638184 8.066137313842773 10.000005722045898 L8.066137313842773 10.000005722045898 C7.958455562591553 9.932666778564453 7.850773811340332 9.865327835083008 7.743092060089111 9.797988891601562 L7.743092060089111 9.797988891601562 C8.063223838806152 8.88517951965332 8.383336067199707 7.97236442565918 8.703429222106934 7.059541702270508 L8.703429222106934 7.059541702270508"></path></svg>