<svg xmlns="http://www.w3.org/2000/svg" viewBox="0.0 0.0 24.0 24.0" height="200px" width="200px"><path fill="none" stroke="black" stroke-width=".3" stroke-opacity="1.0"  filling="0" d="M7.1382293701171875 7.444831371307373 L7.1382293701171875 7.444831371307373 C8.003905296325684 7.444831371307373 8.86958122253418 7.444831371307373 9.735257148742676 7.444831371307373 L9.735257148742676 7.444831371307373 C9.854635238647461 8.932106971740723 10.263967514038086 10.310428619384766 10.791214942932129 11.656691551208496 C11.318462371826172 13.00295352935791 11.963624954223633 14.317157745361328 12.554659843444824 15.676197052001953 L12.554659843444824 15.676197052001953 C12.678024291992188 15.690129280090332 12.801387786865234 15.704060554504395 12.924752235412598 15.717992782592773 L12.924752235412598 15.717992782592773 C13.45080852508545 14.461221694946289 13.976875305175781 13.204456329345703 14.502933502197266 11.947686195373535 C15.02899169921875 10.690916061401367 15.555042266845703 9.43414306640625 16.081066131591797 8.177358627319336 L16.081066131591797 8.177358627319336 C15.757660865783691 8.00635051727295 15.43425464630127 7.8353424072265625 15.110849380493164 7.664334297180176 L15.110849380493164 7.664334297180176 C15.1228666305542 7.5925493240356445 15.13488483428955 7.520763874053955 15.146902084350586 7.448978900909424 L15.146902084350586 7.448978900909424 C16.077451705932617 7.448978900909424 17.007999420166016 7.448978900909424 17.938549041748047 7.448978900909424 L17.938549041748047 7.448978900909424 C16.544025421142578 8.786462783813477 15.605978965759277 10.59665584564209 14.796608924865723 12.500272750854492 C13.987237930297852 14.403888702392578 13.306543350219727 16.400928497314453 12.42672348022461 18.11210823059082 L12.42672348022461 18.11210823059082 C12.307613372802734 18.092966079711914 12.188502311706543 18.073822021484375 12.069392204284668 18.05467987060547 L12.069392204284668 18.05467987060547 C11.313015937805176 16.255191802978516 10.601940155029297 14.430814743041992 9.819101333618164 12.642266273498535 C9.036262512207031 10.853718757629395 8.181659698486328 9.101000785827637 7.1382293701171875 7.444831371307373 L7.1382293701171875 7.444831371307373"></path></svg>