<svg xmlns="http://www.w3.org/2000/svg" viewBox="0.0 0.0 24.0 24.0" height="200px" width="200px"><path fill="none" stroke="black" stroke-width=".3" stroke-opacity="1.0"  filling="0" d="M7.126608848571777 3.09869384765625 C9.406379699707031 2.722301483154297 8.765159606933594 4.358597278594971 8.836719512939453 5.352545738220215 C8.922929763793945 6.551031589508057 8.857004165649414 7.760786533355713 8.857004165649414 8.866864204406738 C10.56824016571045 8.57724380493164 12.096352577209473 8.126473426818848 13.631224632263184 8.10224437713623 C16.2276611328125 8.061675071716309 17.501651763916016 9.057877540588379 17.95636558532715 11.585572242736816 C18.2843017578125 13.40781021118164 18.33670425415039 15.32020378112793 18.21893882751465 17.173995971679688 C17.965381622314453 21.176273345947266 15.003820419311523 23.063873291015625 11.120997428894043 21.90652084350586 C9.94617748260498 21.55661392211914 8.725717544555664 21.358272552490234 7.126608848571777 21.001602172851562 C7.126608848571777 15.298792839050293 7.126608848571777 9.239313125610352 7.126608848571777 3.09869384765625"></path>
<path fill="none" stroke="black" stroke-width=".3" stroke-opacity="1.0"  filling="0" d="M12.626569747924805 9.714876174926758 C15.049461364746094 9.67768669128418 15.7706937789917 10.193255424499512 16.143142700195312 12.354700088500977 C16.301475524902344 13.271453857421875 16.326831817626953 14.210746765136719 16.388813018798828 14.878450393676758 C16.329647064208984 15.704485893249512 16.30598258972168 16.265132904052734 16.2468204498291 16.822397232055664 C15.912686347961426 19.96990203857422 14.710256576538086 20.87369728088379 11.603885650634766 20.41729164123535 C10.205933570861816 20.211627960205078 9.325803756713867 19.47292709350586 9.236777305603027 18.09018898010254 C9.11732292175293 16.234142303466797 9.022661209106445 14.352739334106445 9.19508171081543 12.508524894714355 C9.390603065490723 10.417513847351074 10.371591567993164 9.749246597290039 12.626569747924805 9.714876174926758"></path></svg>