<svg xmlns="http://www.w3.org/2000/svg" viewBox="0.0 0.0 24.0 24.0" height="200px" width="200px"><path fill="none" stroke="black" stroke-width=".3" stroke-opacity="1.0"  filling="0" d="M11.92685317993164 11.135114669799805 L11.92685317993164 11.135114669799805 C14.661005020141602 10.247407913208008 15.701574325561523 12.145933151245117 17.494266510009766 14.099628448486328 L17.494266510009766 14.099628448486328 C15.2879638671875 14.666603088378906 13.081737518310547 15.233861923217773 10.875494003295898 15.801068305969238 L10.875494003295898 15.801068305969238 C10.906954765319824 16.480327606201172 10.827568054199219 17.17391586303711 10.969876289367676 17.838844299316406 C11.622045516967773 20.88607406616211 14.881027221679688 19.67242431640625 16.868911743164062 19.087017059326172 L16.868911743164062 19.087017059326172 C15.776017189025879 20.326398849487305 15.546592712402344 20.972999572753906 13.83962631225586 21.387771606445312 C12.007526397705078 21.832948684692383 10.545751571655273 21.168806076049805 9.620348930358887 19.989646911621094 C8.694945335388184 18.810489654541016 8.305913925170898 17.116315841674805 8.619301795959473 15.501429557800293 C9.032801628112793 13.370667457580566 10.235387802124023 12.287830352783203 11.92685317993164 11.135114669799805 L11.92685317993164 11.135114669799805"></path>
<path fill="none" stroke="black" stroke-width=".3" stroke-opacity="1.0"  filling="0" d="M12.416731834411621 11.918611526489258 L12.416731834411621 11.918611526489258 C12.859370231628418 12.01678466796875 13.415953636169434 11.900836944580078 13.744646072387695 12.213130950927734 C14.194767951965332 12.640796661376953 14.256718635559082 13.344419479370117 14.512754440307617 13.910063743591309 L14.512754440307617 13.910063743591309 C14.246528625488281 13.97899341583252 11.223069190979004 14.761669158935547 10.954821586608887 14.831097602844238 L10.954821586608887 14.831097602844238 C10.819173812866211 14.632776260375977 10.683525085449219 14.434455871582031 10.547877311706543 14.23613452911377 L10.547877311706543 14.23613452911377 C11.084785461425781 13.401528358459473 11.704651832580566 12.609827041625977 12.416731834411621 11.918611526489258 L12.416731834411621 11.918611526489258"></path></svg>