<svg xmlns="http://www.w3.org/2000/svg" viewBox="0.0 0.0 24.0 24.0" height="200px" width="200px"><path fill="none" stroke="black" stroke-width=".3" stroke-opacity="1.0"  filling="0" d="M7.023735523223877 3.3075876235961914 C8.041633605957031 2.835991859436035 8.784046173095703 2.839493751525879 8.827821731567383 4.13638162612915 C8.883268356323242 5.7776265144348145 8.8412446975708 7.422373294830322 8.8412446975708 9.048443794250488 C10.593385696411133 8.776459693908691 12.241050720214844 8.29961109161377 13.885213851928711 8.313619613647461 C16.906225204467773 8.338716506958008 18.160503387451172 9.57548713684082 18.27490234375 12.535799026489258 C18.39455223083496 15.62568187713623 18.30175018310547 18.72315216064453 18.30175018310547 22.007394790649414 C17.62529182434082 22.079185485839844 17.102916717529297 22.134632110595703 16.294551849365234 22.22101593017578 C16.294551849365234 19.200000762939453 16.321985244750977 16.30739402770996 16.286380767822266 13.415371894836426 C16.25369644165039 10.767316818237305 15.676458358764648 10.105449676513672 13.45038890838623 9.973543167114258 C10.537353515625 9.801363945007324 9.213034629821777 10.69435977935791 9.022762298583984 13.252531051635742 C8.842996597290039 15.664789199829102 8.923540115356445 18.095138549804688 8.851750373840332 20.516735076904297 C8.814396858215332 21.78093719482422 8.777626037597656 21.779766082763672 7.023735523223877 22.184242248535156 C7.023735523223877 15.712644577026367 7.023735523223877 9.536964416503906 7.023735523223877 3.3075876235961914"></path></svg>