<svg xmlns="http://www.w3.org/2000/svg" viewBox="0.0 0.0 24.0 24.0" height="200px" width="200px"><path fill="none" stroke="black" stroke-width=".3" stroke-opacity="1.0"  filling="0" d="M13.60359001159668 9.766983032226562 C18.246578216552734 9.868755340576172 22.06072425842285 14.181673049926758 22.05980682373047 19.327098846435547 C22.05889129638672 24.772342681884766 17.915590286254883 29.0054931640625 12.625299453735352 28.964231491088867 C7.366181373596191 28.92388916015625 3.5969629287719727 24.96304702758789 3.6501407623291016 19.531558990478516 C3.703319549560547 14.077150344848633 8.21794605255127 9.648707389831543 13.60359001159668 9.766983032226562"></path>
<path fill="none" stroke="black" stroke-width=".3" stroke-opacity="1.0"  filling="0" d="M14.764337539672852 12.583582878112793 C18.245662689208984 14.998597145080566 19.466922760009766 22.005252838134766 17.00514793395996 25.444400787353516 C15.610601425170898 27.39273452758789 13.624679565429688 27.77139663696289 11.395788192749023 26.38693618774414 C8.338054656982422 24.487197875976562 7.577059268951416 21.45146942138672 7.433112144470215 17.57497787475586 C7.606399059295654 16.902917861938477 7.7906880378723145 15.688992500305176 8.231698989868164 14.5768404006958 C9.507970809936523 11.364156723022461 11.971578598022461 10.64625358581543 14.764337539672852 12.583582878112793"></path></svg>