<svg xmlns="http://www.w3.org/2000/svg" viewBox="0.0 0.0 24.0 24.0" height="200px" width="200px"><path fill="none" stroke="black" stroke-width=".3" stroke-opacity="1.0"  filling="0" d="M15.153464317321777 10.842531204223633 L15.153464317321777 10.842531204223633 C15.61392593383789 11.27558708190918 16.37531089782715 11.53005313873291 16.534849166870117 12.141698837280273 C16.66082000732422 12.624656677246094 16.070297241210938 13.025247573852539 15.838020324707031 13.467021942138672 L15.838020324707031 13.467021942138672 C15.343144416809082 13.484095573425293 13.257678985595703 13.413704872131348 12.690457344055176 13.895673751831055 C11.295989990234375 15.080554962158203 11.830485343933105 18.726594924926758 11.858366966247559 20.27288246154785 L11.858366966247559 20.27288246154785 C12.548238754272461 20.452613830566406 13.73056697845459 20.76072883605957 14.390582084655762 20.93276023864746 L14.390582084655762 20.93276023864746 C12.43666934967041 21.606006622314453 11.111199378967285 21.62093162536621 9.069713592529297 21.551326751708984 L9.069713592529297 21.551326751708984 C9.533838272094727 19.89811134338379 9.797266006469727 18.46480941772461 9.773852348327637 17.045303344726562 C9.750438690185547 15.625798225402832 9.440183639526367 14.220088958740234 8.756942749023438 12.622056007385254 L8.756942749023438 12.622056007385254 C9.716190338134766 12.053041458129883 10.67542552947998 11.48400592803955 11.634653091430664 10.914957046508789 L11.634653091430664 10.914957046508789 C11.825420379638672 11.81688404083252 11.914194107055664 12.236433029174805 12.1046142578125 13.136009216308594 L12.1046142578125 13.136009216308594 C13.120927810668945 12.371556282043457 14.137212753295898 11.607067108154297 15.153464317321777 10.842531204223633 L15.153464317321777 10.842531204223633"></path></svg>