<svg xmlns="http://www.w3.org/2000/svg" viewBox="0.0 0.0 24.0 24.0" height="200px" width="200px"><path fill="none" stroke="black" stroke-width=".3" stroke-opacity="1.0"  filling="0" d="M12.26087760925293 9.956422805786133 L12.26087760925293 9.956422805786133 C12.440587997436523 10.499059677124023 12.620298385620117 11.04169750213623 12.800008773803711 11.584334373474121 L12.800008773803711 11.584334373474121 C13.862113952636719 11.641338348388672 14.924219131469727 11.698346138000488 15.986324310302734 11.755355834960938 L15.986324310302734 11.755355834960938 C14.778901100158691 13.090269088745117 14.006929397583008 12.889616012573242 12.350961685180664 13.468320846557617 L12.350961685180664 13.468320846557617 C12.337942123413086 14.982101440429688 11.926359176635742 17.27610969543457 12.593624114990234 18.697704315185547 C13.110894203186035 19.79973793029785 14.69571304321289 19.282299041748047 15.64016342163086 19.76595687866211 L15.64016342163086 19.76595687866211 C15.216976165771484 19.944149017333984 13.511941909790039 20.712953567504883 13.017215728759766 20.720754623413086 C11.305888175964355 20.747739791870117 10.803059577941895 19.658920288085938 10.696593284606934 18.299068450927734 C10.590126991271973 16.93921661376953 10.880023002624512 15.308329582214355 10.754145622253418 14.251180648803711 C10.686802864074707 13.685622215270996 10.215033531188965 12.818419456481934 9.995977401733398 12.355762481689453 L9.995977401733398 12.355762481689453 C10.750929832458496 11.55596923828125 11.505899429321289 10.75619125366211 12.26087760925293 9.956422805786133 L12.26087760925293 9.956422805786133"></path></svg>