<svg xmlns="http://www.w3.org/2000/svg" viewBox="0.0 0.0 24.0 24.0" height="200px" width="200px"><path fill="none" stroke="black" stroke-width=".3" stroke-opacity="1.0"  filling="0" d="M16.44258689880371 5.441429138183594 C16.650415420532227 6.125247955322266 16.842041015625 6.404585361480713 16.78505516052246 6.617440700531006 C15.443676948547363 11.640493392944336 14.101737976074219 16.66410255432129 12.697786331176758 21.670394897460938 C12.23743724822998 23.311782836914062 11.15248966217041 24.4509220123291 9.382046699523926 24.636959075927734 C8.922815322875977 24.685565948486328 8.41553783416748 24.281084060668945 7.930607318878174 24.08498764038086 C11.064218521118164 22.093311309814453 11.617307662963867 20.537399291992188 10.469228744506836 17.616085052490234 C8.978683471679688 13.822678565979004 7.616631984710693 9.9795503616333 6.195361614227295 6.148712158203125 C7.755742073059082 5.251479148864746 8.212738990783691 6.1297173500061035 8.623924255371094 7.330869674682617 C9.673116683959961 10.39855670928955 10.790468215942383 13.442778587341309 12.064248085021973 17.012157440185547 C12.755887985229492 14.515995025634766 13.245845794677734 12.485210418701172 13.88888168334961 10.504146575927734 C14.439735412597656 8.8063325881958 14.018494606018066 6.507940769195557 16.44258689880371 5.441429138183594"></path></svg>