<svg xmlns="http://www.w3.org/2000/svg" viewBox="0.0 0.0 24.0 24.0" height="200px" width="200px"><path fill="none" stroke="black" stroke-width=".3" stroke-opacity="1.0"  filling="0" d="M8.988224029541016 3.7476377487182617 C11.792352676391602 3.7476377487182617 14.42077922821045 3.7476377487182617 17.119014739990234 3.7476377487182617 C15.84887409210205 7.39182186126709 12.549585342407227 5.8566508293151855 9.546682357788086 6.234083652496338 C9.062171936035156 7.804750919342041 8.542757987976074 9.4866361618042 7.886094570159912 11.613396644592285 C9.190546989440918 11.364337921142578 9.937723159790039 11.24720287322998 10.673067092895508 11.076826095581055 C13.388458251953125 10.447376251220703 15.404589653015137 11.078008651733398 16.652250289916992 12.969908714294434 C17.893993377685547 14.852934837341309 17.64079475402832 17.90079689025879 16.078411102294922 19.885574340820312 C14.129717826843262 22.360782623291016 10.81800651550293 23.507280349731445 7.1519341468811035 22.682605743408203 C8.087235450744629 22.44951820373535 9.05921459197998 22.30872344970703 9.948371887207031 21.95909309387207 C11.030386924743652 21.53314971923828 12.154996871948242 21.075851440429688 13.061309814453125 20.374229431152344 C14.767450332641602 19.053802490234375 15.3543062210083 16.772045135498047 14.646766662597656 15.082469940185547 C13.956974983215332 13.435487747192383 11.878133773803711 12.391335487365723 9.694581031799316 12.652816772460938 C8.739757537841797 12.766993522644043 7.797357082366943 12.988840103149414 6.518934726715088 13.222516059875488 C6.677480220794678 9.733328819274902 7.568411827087402 6.733976364135742 8.988224029541016 3.7476377487182617"></path></svg>