<svg xmlns="http://www.w3.org/2000/svg" viewBox="0.0 0.0 24.0 24.0" height="200px" width="200px"><path fill="none" stroke="black" stroke-width=".3" stroke-opacity="1.0"  filling="0" d="M14.767663955688477 6.924844264984131 L14.767663955688477 6.924844264984131 C16.869831085205078 7.310204982757568 17.329177856445312 8.014604568481445 16.849454879760742 10.182551383972168 L16.849454879760742 10.182551383972168 C16.53169059753418 10.198152542114258 16.213924407958984 10.213752746582031 15.896160125732422 10.229353904724121 L15.896160125732422 10.229353904724121 C15.865132331848145 9.802830696105957 15.780525207519531 8.399674415588379 15.643363952636719 8.24282455444336 C14.860406875610352 7.347481727600098 11.870383262634277 7.662569046020508 11.008832931518555 8.323881149291992 C9.546099662780762 9.446650505065918 9.164735794067383 13.237601280212402 9.137499809265137 14.953025817871094 C9.130753517150879 15.377957344055176 9.058112144470215 15.887508392333984 9.331137657165527 16.213191986083984 C10.065447807312012 17.089126586914062 13.421870231628418 16.888460159301758 14.207110404968262 16.2370548248291 C14.907222747802734 15.656268119812012 15.245936393737793 14.703657150268555 15.971905708312988 14.155534744262695 L15.971905708312988 14.155534744262695 C15.823610305786133 15.36159896850586 16.019479751586914 16.377500534057617 14.853160858154297 17.135229110717773 C13.57638931274414 17.96471405029297 9.472023010253906 18.241539001464844 8.337238311767578 16.993207931518555 C7.3589701652526855 15.917055130004883 8.181703567504883 13.427157402038574 8.407480239868164 12.243517875671387 C8.664507865905762 10.896039962768555 8.802391052246094 8.96379566192627 9.827359199523926 7.91797399520874 C11.041313171386719 6.679320812225342 13.206914901733398 6.892827033996582 14.767663955688477 6.924844264984131 L14.767663955688477 6.924844264984131"></path></svg>