<svg xmlns="http://www.w3.org/2000/svg" viewBox="0.0 0.0 24.0 24.0" height="200px" width="200px"><path fill="none" stroke="black" stroke-width=".3" stroke-opacity="1.0"  filling="0" d="M2.593280792236328 4.9115400314331055 C7.497162342071533 3.668301582336426 12.296883583068848 3.0968141555786133 16.886056900024414 5.232933044433594 C20.03258514404297 6.697301864624023 21.831157684326172 9.494585990905762 21.792724609375 13.022662162780762 C21.75150489807129 16.80919075012207 19.54075050354004 19.420434951782227 16.266666412353516 21.02349853515625 C14.893091201782227 21.696359634399414 13.278329849243164 22.084590911865234 11.747119903564453 22.180953979492188 C8.897476196289062 22.360870361328125 6.028893947601318 22.232757568359375 3.247762680053711 22.232757568359375 C3.6137161254882812 20.600173950195312 4.114464282989502 19.261688232421875 4.1779632568359375 17.902591705322266 C4.325012683868408 14.764419555664062 4.235891819000244 11.615107536315918 4.292149066925049 8.471365928649902 C4.317771911621094 7.044315814971924 4.2687554359436035 5.703045845031738 2.593280792236328 4.9115400314331055"></path>
<path fill="none" stroke="black" stroke-width=".3" stroke-opacity="1.0"  filling="0" d="M7.7394609451293945 5.568249225616455 C11.616780281066895 4.491556644439697 14.663045883178711 5.4117302894592285 16.511749267578125 7.981756687164307 C18.5693302154541 10.84253978729248 18.518085479736328 15.208910942077637 16.39255142211914 18.13653564453125 C14.552759170532227 20.67035675048828 11.554952621459961 21.626733779907227 7.975630760192871 20.6124267578125 C7.186910152435303 15.490756034851074 7.421410083770752 10.473245620727539 7.7394609451293945 5.568249225616455"></path></svg>