<svg xmlns="http://www.w3.org/2000/svg" viewBox="0.0 0.0 24.0 24.0" height="200px" width="200px"><path fill="none" stroke="black" stroke-width=".3" stroke-opacity="1.0"  filling="0" d="M12.495701789855957 5.732914447784424 C16.123126983642578 5.877190589904785 18.387866973876953 7.887132167816162 19.246906280517578 11.765384674072266 C19.41236114501953 12.512577056884766 19.524869918823242 13.279624938964844 19.56722640991211 14.042699813842773 C19.602964401245117 14.676060676574707 19.49972152709961 15.31670093536377 19.429569244384766 16.369653701782227 C15.444101333618164 16.369653701782227 11.832559585571289 16.369653701782227 7.979455471038818 16.369653701782227 C7.8987135887146 18.661527633666992 8.426182746887207 20.40277099609375 10.367956161499023 21.47028350830078 C12.626078605651855 22.71185302734375 14.976194381713867 22.177766799926758 18.268739700317383 19.729040145874023 C19.29323387145996 21.443809509277344 18.57516098022461 22.610595703125 17.141664505004883 23.5523624420166 C13.55262565612793 25.90975570678711 6.387784004211426 25.665546417236328 4.892075061798096 19.346508026123047 C4.283865451812744 16.7760066986084 4.396374225616455 13.847463607788086 4.933769702911377 11.236593246459961 C5.70544958114624 7.488717555999756 8.745841979980469 5.584005832672119 12.495701789855957 5.732914447784424"></path>
<path fill="none" stroke="black" stroke-width=".3" stroke-opacity="1.0"  filling="0" d="M12.228326797485352 8.979795455932617 C14.760442733764648 8.95266056060791 15.877591133117676 10.041349411010742 16.6102237701416 13.427210807800293 C13.718740463256836 13.427210807800293 10.872923851013184 13.427210807800293 8.001957893371582 13.427210807800293 C8.674365043640137 10.0393648147583 9.677019119262695 9.006928443908691 12.228326797485352 8.979795455932617"></path></svg>