<svg xmlns="http://www.w3.org/2000/svg" viewBox="0.0 0.0 24.0 24.0" height="200px" width="200px"><path fill="none" stroke="black" stroke-width=".3" stroke-opacity="1.0"  filling="0" d="M12.632993698120117 3.8690919876098633 C17.855941772460938 3.8402318954467773 22.09659194946289 7.762888431549072 22.140697479248047 12.664031982421875 C22.188072204589844 17.916927337646484 18.096071243286133 22.322566986083984 13.14864444732666 22.34543800354004 C7.454694747924805 22.37265968322754 2.937432289123535 18.18482780456543 2.941788673400879 12.884014129638672 C2.9456005096435547 7.980693340301514 7.334358215332031 3.898495674133301 12.632993698120117 3.8690919876098633"></path>
<path fill="none" stroke="black" stroke-width=".3" stroke-opacity="1.0"  filling="0" d="M8.127711296081543 7.0256218910217285 C10.26763916015625 4.188719749450684 14.069413185119629 4.218123435974121 16.51862335205078 7.090418338775635 C17.78134536743164 8.570943832397461 18.634592056274414 11.212366104125977 18.90467071533203 13.747608184814453 C18.426044464111328 15.375696182250977 18.171215057373047 17.115407943725586 17.421422958374023 18.60736656188965 C16.009504318237305 21.41758918762207 13.20527458190918 22.013282775878906 10.54261589050293 20.322032928466797 C6.562241554260254 17.793869018554688 5.289719104766846 10.787646293640137 8.127711296081543 7.0256218910217285"></path></svg>