<svg xmlns="http://www.w3.org/2000/svg" viewBox="0.0 0.0 24.0 24.0" height="200px" width="200px"><path fill="none" stroke="black" stroke-width=".3" stroke-opacity="1.0"  filling="0" d="M14.246826171875 7.736451148986816 L14.246826171875 7.736451148986816 C14.685940742492676 8.19311809539795 15.250862121582031 8.555811882019043 15.564168930053711 9.106452941894531 C17.043241500854492 11.705945014953613 15.108837127685547 13.806638717651367 13.083701133728027 15.133346557617188 L13.083701133728027 15.133346557617188 C14.500216484069824 16.854360580444336 15.197221755981445 17.14446449279785 17.410093307495117 17.322378158569336 L17.410093307495117 17.322378158569336 C15.823092460632324 17.88848876953125 14.678787231445312 17.787029266357422 13.615601539611816 17.31706428527832 C12.55241584777832 16.84709930419922 11.570350646972656 16.008628845214844 10.307830810546875 15.10071849822998 C9.400700569152832 14.44837760925293 8.274843215942383 13.88414478302002 7.761999130249023 12.796512603759766 C6.673369407653809 10.487761497497559 8.418641090393066 7.855809688568115 10.6975679397583 7.259594917297363 C12.32479190826416 6.833878993988037 12.749350547790527 7.2235798835754395 14.246826171875 7.736451148986816 L14.246826171875 7.736451148986816"></path>
<path fill="none" stroke="black" stroke-width=".3" stroke-opacity="1.0"  filling="0" d="M10.110762596130371 8.213475227355957 L10.110762596130371 8.213475227355957 C10.682982444763184 8.007975578308105 11.221145629882812 7.551220417022705 11.827423095703125 7.596977233886719 C13.351075172424316 7.71196985244751 14.168017387390137 8.913735389709473 14.388357162475586 10.297696113586426 C14.608696937561035 11.681655883789062 14.232434272766113 13.247810363769531 13.369675636291504 14.091581344604492 C12.03520393371582 15.396683692932129 10.314169883728027 14.49388599395752 9.561335563659668 13.046534538269043 C8.676031112670898 11.344505310058594 9.254083633422852 9.7081880569458 10.110762596130371 8.213475227355957 L10.110762596130371 8.213475227355957"></path></svg>