<svg xmlns="http://www.w3.org/2000/svg" viewBox="0.0 0.0 24.0 24.0" height="200px" width="200px"><path fill="none" stroke="black" stroke-width=".3" stroke-opacity="1.0"  filling="0" d="M15.374094009399414 7.091310501098633 L15.374094009399414 7.091310501098633 C15.374094009399414 8.017099380493164 15.374094009399414 8.942889213562012 15.374094009399414 9.868678092956543 L15.374094009399414 9.868678092956543 C15.30003547668457 9.894309997558594 15.22597599029541 9.919941902160645 15.151917457580566 9.945573806762695 L15.151917457580566 9.945573806762695 C14.584319114685059 9.105305671691895 13.75821304321289 8.171313285827637 12.697257041931152 7.930224895477295 C11.525081634521484 7.663863658905029 10.393773078918457 8.703987121582031 10.748680114746094 9.940412521362305 C11.34943962097168 12.033340454101562 14.896343231201172 11.730112075805664 15.834875106811523 13.754212379455566 C16.828290939331055 15.89668083190918 15.674850463867188 16.9461727142334 13.981430053710938 17.438846588134766 C12.288009643554688 17.931522369384766 10.054609298706055 17.867382049560547 8.888106346130371 17.78258514404297 L8.888106346130371 17.78258514404297 C8.779544830322266 16.81751251220703 8.671032905578613 15.852436065673828 8.562561988830566 14.887353897094727 L8.562561988830566 14.887353897094727 C8.660046577453613 14.852897644042969 8.757532119750977 14.818442344665527 8.855016708374023 14.78398609161377 L8.855016708374023 14.78398609161377 C9.507732391357422 15.621040344238281 10.576286315917969 16.92578887939453 11.662322998046875 17.1979923248291 C12.968475341796875 17.525365829467773 14.81361198425293 16.37648582458496 14.144715309143066 14.837915420532227 C13.439528465270996 13.215872764587402 10.871726036071777 13.10020637512207 9.757590293884277 11.908607482910156 C8.237876892089844 10.283231735229492 8.876718521118164 8.569832801818848 10.646297454833984 7.601844310760498 C11.86308479309082 6.936241149902344 14.042522430419922 7.155154228210449 15.374094009399414 7.091310501098633 L15.374094009399414 7.091310501098633"></path></svg>