<svg xmlns="http://www.w3.org/2000/svg" viewBox="0.0 0.0 24.0 24.0" height="200px" width="200px"><path fill="none" stroke="black" stroke-width=".3" stroke-opacity="1.0"  filling="0" d="M9.3284330368042 6.932980060577393 L9.3284330368042 6.932980060577393 C10.618772506713867 6.933074951171875 11.909112930297852 6.9330902099609375 13.199453353881836 6.9330735206604 C14.48979377746582 6.9330573081970215 15.780133247375488 6.933009624481201 17.070472717285156 6.932980060577393 L17.070472717285156 6.932980060577393 C15.647127151489258 8.304399490356445 14.92414665222168 7.956585884094238 13.098703384399414 8.477575302124023 L13.098703384399414 8.477575302124023 C12.627944946289062 10.667888641357422 12.153732299804688 12.857481956481934 11.689796447753906 15.04925537109375 C11.336553573608398 16.71808433532715 11.636651992797852 17.483491897583008 9.931939125061035 17.653762817382812 L9.931939125061035 17.653762817382812 C10.261335372924805 16.071691513061523 10.590727806091309 14.489617347717285 10.92013931274414 12.907547950744629 C11.249550819396973 11.325478553771973 11.578981399536133 9.743412971496582 11.908454895019531 8.161357879638672 L11.908454895019531 8.161357879638672 C11.865957260131836 8.161357879638672 8.671152114868164 8.161357879638672 8.584239959716797 8.161357879638672 L8.584239959716797 8.161357879638672 C8.832304000854492 7.751898765563965 9.080368995666504 7.3424391746521 9.3284330368042 6.932980060577393 L9.3284330368042 6.932980060577393"></path></svg>