<svg xmlns="http://www.w3.org/2000/svg" viewBox="0.0 0.0 24.0 24.0" height="200px" width="200px"><path fill="none" stroke="black" stroke-width=".3" stroke-opacity="1.0"  filling="0" d="M11.13390827178955 7.048033237457275 L11.13390827178955 7.048033237457275 C11.172599792480469 7.172292232513428 11.21129035949707 7.29655122756958 11.249981880187988 7.420810222625732 L11.249981880187988 7.420810222625732 C10.956289291381836 7.6265974044799805 10.662595748901367 7.8323845863342285 10.368903160095215 8.038171768188477 L10.368903160095215 8.038171768188477 C10.439413070678711 8.141077995300293 12.594117164611816 11.285841941833496 12.604287147521973 11.300684928894043 L12.604287147521973 11.300684928894043 C13.368422508239746 10.277898788452148 14.132576942443848 9.255126953125 14.896753311157227 8.232372283935547 L14.896753311157227 8.232372283935547 C14.609331130981445 7.987468719482422 14.321908950805664 7.742564678192139 14.034486770629883 7.497661113739014 L14.034486770629883 7.497661113739014 C15.140486717224121 7.497661113739014 16.24648666381836 7.497661113739014 17.35248565673828 7.497661113739014 L17.35248565673828 7.497661113739014 C15.61681079864502 8.815789222717285 14.3592529296875 10.317754745483398 13.032548904418945 12.036033630371094 L13.032548904418945 12.036033630371094 C14.48447322845459 14.058320999145508 15.69678020477295 15.904579162597656 17.660846710205078 17.46728515625 L17.660846710205078 17.46728515625 C16.18185806274414 17.46728515625 14.702869415283203 17.46728515625 13.223880767822266 17.46728515625 L13.223880767822266 17.46728515625 C13.510663986206055 17.16189956665039 13.79744815826416 16.85651397705078 14.08423137664795 16.551128387451172 L14.08423137664795 16.551128387451172 C13.302124977111816 15.426836967468262 12.51999568939209 14.302563667297363 11.737875938415527 13.1782808303833 L11.737875938415527 13.1782808303833 C10.908208847045898 14.318910598754883 10.078638076782227 15.459601402282715 9.248977661132812 16.600236892700195 L9.248977661132812 16.600236892700195 C9.597837448120117 16.834192276000977 9.946698188781738 17.068147659301758 10.295557975769043 17.30210304260254 L10.295557975769043 17.30210304260254 C10.269515991210938 17.375234603881836 10.243474006652832 17.4483642578125 10.217432022094727 17.521495819091797 L10.217432022094727 17.521495819091797 C10.208719253540039 17.521495819091797 6.996508598327637 17.521495819091797 6.994142055511475 17.521495819091797 L6.994142055511475 17.521495819091797 C8.436356544494629 15.926861763000488 9.878561019897461 14.3322172164917 11.32077407836914 12.737581253051758 L11.32077407836914 12.737581253051758 C10.066441535949707 10.644824981689453 8.806692123413086 9.039301872253418 6.861166954040527 7.5579304695129395 L6.861166954040527 7.5579304695129395 C8.28542709350586 7.3880720138549805 9.709677696228027 7.218144416809082 11.13390827178955 7.048033237457275 L11.13390827178955 7.048033237457275"></path></svg>