<svg xmlns="http://www.w3.org/2000/svg" viewBox="0.0 0.0 24.0 24.0" height="200px" width="200px"><path fill="none" stroke="black" stroke-width=".3" stroke-opacity="1.0"  filling="0" d="M16.82005500793457 6.93055534362793 L16.82005500793457 6.93055534362793 C16.67701530456543 8.558531761169434 15.904497146606445 8.909295082092285 14.715816497802734 10.09003734588623 C13.62086009979248 11.177680969238281 12.51738166809082 12.256685256958008 11.422992706298828 13.344582557678223 C10.328603744506836 14.432479858398438 9.243303298950195 15.52927017211914 8.18470287322998 16.65248680114746 L8.18470287322998 16.65248680114746 C10.408699035644531 16.65248680114746 12.632689476013184 16.65248680114746 14.85668659210205 16.65248680114746 L14.85668659210205 16.65248680114746 C14.921924591064453 16.790163040161133 14.987163543701172 16.927839279174805 15.052401542663574 17.065515518188477 L15.052401542663574 17.065515518188477 C14.07364559173584 17.79500961303711 12.562247276306152 17.959674835205078 10.99399185180664 17.941577911376953 C9.425736427307129 17.923480987548828 7.800622940063477 17.722620010375977 6.594436168670654 17.7210636138916 L6.594436168670654 17.7210636138916 C6.860851287841797 16.003734588623047 7.6518049240112305 15.600470542907715 8.910806655883789 14.348118782043457 C9.971233367919922 13.293293952941895 11.060699462890625 12.26028823852539 12.13019847869873 11.208508491516113 C13.199697494506836 10.156729698181152 14.249229431152344 9.086176872253418 15.229788780212402 7.956259250640869 L15.229788780212402 7.956259250640869 C13.100924491882324 7.956259250640869 10.972060203552246 7.956259250640869 8.843195915222168 7.956259250640869 L8.843195915222168 7.956259250640869 C8.794539451599121 7.815309524536133 8.74588394165039 7.6743597984313965 8.697227478027344 7.53341007232666 L8.697227478027344 7.53341007232666 C9.768877029418945 6.895566940307617 11.182755470275879 6.74388313293457 12.63713550567627 6.752145290374756 C14.09151554107666 6.760407447814941 15.586397171020508 6.928615093231201 16.82005500793457 6.93055534362793 L16.82005500793457 6.93055534362793"></path></svg>