<svg xmlns="http://www.w3.org/2000/svg" viewBox="0.0 0.0 24.0 24.0" height="200px" width="200px"><path fill="none" stroke="black" stroke-width=".3" stroke-opacity="1.0"  filling="0" d="M11.05053997039795 3.224663734436035 C10.681211471557617 5.170803546905518 10.3388671875 6.975845813751221 10.001018524169922 8.75502872467041 C11.694193840026855 8.494194984436035 13.14115047454834 8.088327407836914 14.588107109069824 8.088327407836914 C17.344858169555664 8.088327407836914 18.578197479248047 9.398683547973633 18.389318466186523 12.12451457977295 C18.274080276489258 13.787897109985352 17.929485321044922 15.463083267211914 17.466279983520508 17.06856346130371 C15.997400283813477 22.164955139160156 12.004496574401855 23.582679748535156 7.812594413757324 20.85122299194336 C7.039085865020752 21.14297866821289 6.445462226867676 21.366710662841797 5.648905277252197 21.666894912719727 C5.612366199493408 20.995697021484375 5.515115261077881 20.62468147277832 5.585383415222168 20.289642333984375 C6.7017998695373535 14.983573913574219 7.862063407897949 9.686498641967773 8.95599365234375 4.375370025634766 C9.194905281066895 3.2190427780151367 9.653051376342773 2.6940011978149414 11.05053997039795 3.224663734436035"></path>
<path fill="none" stroke="black" stroke-width=".3" stroke-opacity="1.0"  filling="0" d="M13.597611427307129 9.703364372253418 C15.929380416870117 9.724164009094238 16.55560874938965 10.22784423828125 16.313323974609375 12.482036590576172 C16.105892181396484 14.406816482543945 15.683161735534668 16.347896575927734 15.03219985961914 18.16642951965332 C14.733702659606934 18.99952507019043 13.774685859680176 19.84836196899414 12.917417526245117 20.182838439941406 C9.826192855834961 21.388635635375977 8.03520393371582 19.924814224243164 8.425893783569336 16.604795455932617 C8.577110290527344 15.319737434387207 8.869424819946289 14.034677505493164 9.25449275970459 12.797962188720703 C9.977408409118652 10.474624633789062 11.165779113769531 9.682002067565918 13.597611427307129 9.703364372253418"></path></svg>