<svg xmlns="http://www.w3.org/2000/svg" viewBox="0.0 0.0 24.0 24.0" height="200px" width="200px"><path fill="none" stroke="black" stroke-width=".3" stroke-opacity="1.0"  filling="0" d="M15.915435791015625 3.153329849243164 C17.699390411376953 3.153329849243164 19.56502342224121 3.153329849243164 21.43065643310547 3.153329849243164 C19.1566219329834 4.0330810546875 19.534847259521484 5.9444966316223145 19.51559829711914 7.681107044219971 C19.487504959106445 10.190295219421387 19.542131423950195 12.703646659851074 19.41935157775879 15.208152770996094 C19.134252548217773 21.001190185546875 13.43590259552002 24.122718811035156 8.345730781555176 21.298255920410156 C6.4629292488098145 20.253582000732422 5.485890865325928 18.543506622314453 5.326693058013916 16.442718505859375 C5.149806022644043 14.116659164428711 5.104544162750244 11.779153823852539 5.045754909515381 9.44581127166748 C5.003615379333496 7.808048248291016 5.036911487579346 6.168205261230469 5.036911487579346 4.383211612701416 C4.157160758972168 4.046606540679932 3.5838403701782227 3.827058792114258 3.010519027709961 3.6080322265625 C3.033930778503418 3.46444034576416 3.057342529296875 3.3208513259887695 3.081273078918457 3.177781105041504 C5.828218936920166 3.177781105041504 8.575163841247559 3.177781105041504 11.694089889526367 3.177781105041504 C11.270604133605957 3.562769889831543 11.076547622680664 3.8946924209594727 10.865324020385742 3.906137466430664 C9.402888298034668 3.985736846923828 8.982002258300781 4.81658411026001 9.006975173950195 6.151556968688965 C9.068365097045898 9.439046859741211 8.98304271697998 12.731218338012695 9.11987018585205 16.014545440673828 C9.239527702331543 18.893115997314453 10.760232925415039 20.49706268310547 13.098257064819336 20.539201736450195 C15.422235488891602 20.581344604492188 17.633317947387695 18.76773452758789 17.753498077392578 16.19559669494629 C17.914775848388672 12.749427795410156 17.779508590698242 9.277769088745117 17.537071228027344 5.833162784576416 C17.475160598754883 4.949770450592041 16.532978057861328 4.128807544708252 15.915435791015625 3.153329849243164"></path></svg>