<svg xmlns="http://www.w3.org/2000/svg" viewBox="0.0 0.0 24.0 24.0" height="200px" width="200px"><path fill="none" stroke="black" stroke-width=".3" stroke-opacity="1.0"  filling="0" d="M12.304126739501953 8.188546180725098 L12.304126739501953 8.188546180725098 C12.92800521850586 8.222539901733398 13.593025207519531 8.065142631530762 14.175762176513672 8.290526390075684 C15.814555168151855 8.924358367919922 15.38565444946289 10.971711158752441 15.088472366333008 12.25070571899414 C14.73848819732666 13.756949424743652 14.051006317138672 14.901683807373047 13.080157279968262 15.475605010986328 C12.109308242797852 16.04952621459961 10.855093002319336 16.052631378173828 9.371641159057617 15.275618553161621 L9.371641159057617 15.275618553161621 C8.958076477050781 16.682634353637695 8.754691123962402 17.717050552368164 7.894054412841797 18.91705894470215 L7.894054412841797 18.91705894470215 C8.014328956604004 17.184478759765625 8.279142379760742 15.486459732055664 8.59290885925293 13.79585075378418 C8.906675338745117 12.105241775512695 9.269393920898438 10.422040939331055 9.585477828979492 8.719097137451172 L9.585477828979492 8.719097137451172 C10.490222930908203 8.534870147705078 11.39639949798584 8.357471466064453 12.304126739501953 8.188546180725098 L12.304126739501953 8.188546180725098"></path>
<path fill="none" stroke="black" stroke-width=".3" stroke-opacity="1.0"  filling="0" d="M11.729440689086914 9.187175750732422 L11.729440689086914 9.187175750732422 C12.221294403076172 9.13265323638916 12.723023414611816 8.911405563354492 13.205001831054688 9.023609161376953 C15.113253593444824 9.46784496307373 13.978899002075195 13.809242248535156 12.915371894836426 14.609281539916992 C11.081884384155273 15.98852252960205 9.83724308013916 14.529224395751953 9.81361198425293 12.724806785583496 C9.79345703125 11.185844421386719 10.680938720703125 10.134069442749023 11.729440689086914 9.187175750732422 L11.729440689086914 9.187175750732422"></path></svg>