<svg xmlns="http://www.w3.org/2000/svg" viewBox="0.0 0.0 24.0 24.0" height="200px" width="200px"><path fill="none" stroke="black" stroke-width=".3" stroke-opacity="1.0"  filling="0" d="M19.351909637451172 10.511368751525879 C19.351909637451172 14.397111892700195 19.3280029296875 17.805503845214844 19.361473083496094 21.21469497680664 C19.379802703857422 23.061935424804688 18.961421966552734 25.228740692138672 22.626422882080078 24.925912857055664 C22.418426513671875 25.279743194580078 22.209636688232422 25.63357162475586 22.00164222717285 25.98740005493164 C20.04123878479004 26.426498413085938 18.093585968017578 26.968399047851562 16.109275817871094 27.217830657958984 C15.721975326538086 27.266443252563477 15.192028999328613 26.184236526489258 14.562469482421875 25.423982620239258 C14.243704795837402 25.57699203491211 13.68586540222168 25.82323455810547 13.147153854370117 26.106937408447266 C7.850876808166504 28.895334243774414 5.1469550132751465 27.20189666748047 5.2027387619018555 21.125442504882812 C5.2601165771484375 14.935823440551758 5.2601165771484375 14.935823440551758 3.4264230728149414 12.0430326461792 C5.47607946395874 11.549744606018066 7.105764865875244 11.156867027282715 9.263005256652832 10.637280464172363 C9.263005256652832 12.776192665100098 9.28691291809082 14.56765079498291 9.255036354064941 16.35831069946289 C9.231925010681152 17.684371948242188 9.081308364868164 19.008840560913086 9.083700180053711 20.3341064453125 C9.090871810913086 24.682056427001953 10.64405345916748 25.594520568847656 15.090024948120117 23.557613372802734 C14.910719871520996 19.726858139038086 17.0050048828125 15.482503890991211 13.076229095458984 11.499539375305176 C15.037429809570312 11.190337181091309 16.977113723754883 10.885119438171387 19.351909637451172 10.511368751525879"></path></svg>