<svg xmlns="http://www.w3.org/2000/svg" viewBox="0.0 0.0 24.0 24.0" height="200px" width="200px"><path fill="none" stroke="black" stroke-width=".3" stroke-opacity="1.0"  filling="0" d="M21.646141052246094 10.179647445678711 C21.73753547668457 10.381070137023926 21.828927993774414 10.582493782043457 21.919437408447266 10.783917427062988 C19.460651397705078 13.124689102172852 17.00186538696289 15.465459823608398 14.131360054016113 18.198429107666016 C16.68863868713379 21.499290466308594 18.974395751953125 24.449655532836914 21.359535217285156 27.52690887451172 C18.66915512084961 27.52690887451172 15.630945205688477 27.52690887451172 13.086976051330566 27.52690887451172 C12.738256454467773 25.620925903320312 12.390423774719238 23.716720581054688 11.905055046081543 21.06183624267578 C9.221776008605957 23.337833404541016 7.795839786529541 24.936798095703125 9.595341682434082 27.811738967895508 C7.490599632263184 27.811738967895508 5.662703990936279 27.811738967895508 2.719437599182129 27.811738967895508 C5.5926055908203125 24.65995216369629 7.880136489868164 22.150585174560547 10.457822799682617 19.32356071472168 C8.547407150268555 16.685535430908203 6.6893415451049805 14.120270729064941 4.725685119628906 11.410371780395508 C6.977723598480225 11.410371780395508 9.24750804901123 11.410371780395508 11.26174259185791 11.410371780395508 C11.813660621643066 13.165505409240723 12.365577697753906 14.918865203857422 13.000017166137695 16.934873580932617 C15.486310005187988 15.437065124511719 16.729455947875977 14.129144668579102 14.774673461914062 11.471596717834473 C17.269840240478516 11.002199172973633 19.457988739013672 10.591367721557617 21.646141052246094 10.179647445678711"></path></svg>