<svg xmlns="http://www.w3.org/2000/svg" viewBox="0.0 0.0 24.0 24.0" height="200px" width="200px"><path fill="none" stroke="black" stroke-width=".3" stroke-opacity="1.0"  filling="0" d="M19.702957153320312 3.26229190826416 C18.8528995513916 7.339540481567383 18.012163162231445 11.370759963989258 17.14462661743164 15.531906127929688 C18.071008682250977 15.716015815734863 18.802791595458984 15.861091613769531 19.63653564453125 16.026559829711914 C19.804332733154297 18.45554542541504 17.612478256225586 17.08578109741211 16.683765411376953 18.086740493774414 C15.415960311889648 18.8861083984375 17.179000854492188 22.20477294921875 13.693123817443848 22.186126708984375 C13.918601036071777 20.584476470947266 14.102129936218262 19.279382705688477 14.327024459838867 17.680063247680664 C10.849305152893066 17.680063247680664 7.496849536895752 17.680063247680664 4.144395351409912 17.680063247680664 C3.9451351165771484 17.440603256225586 3.7464590072631836 17.200557708740234 3.547199249267578 16.960514068603516 C4.143812656402588 15.948486328125 4.571463108062744 14.772154808044434 5.367336273193359 13.95297622680664 C8.473339080810547 10.753171920776367 11.758208274841309 7.725823879241943 14.847314834594727 4.50970458984375 C16.22232437133789 3.078763961791992 17.646270751953125 2.63887882232666 19.702957153320312 3.26229190826416"></path>
<path fill="none" stroke="black" stroke-width=".3" stroke-opacity="1.0"  filling="0" d="M17.187158584594727 4.937355041503906 C16.40701675415039 8.605012893676758 15.679893493652344 12.02330493927002 14.915482521057129 15.615221977233887 C12.120022773742676 15.615221977233887 9.368258476257324 15.615221977233887 6.503465175628662 15.615221977233887 C10.054597854614258 12.06641960144043 13.49502944946289 8.62773609161377 17.187158584594727 4.937355041503906"></path></svg>