<svg xmlns="http://www.w3.org/2000/svg" viewBox="0.0 0.0 24.0 24.0" height="200px" width="200px"><path fill="none" stroke="black" stroke-width=".3" stroke-opacity="1.0"  filling="0" d="M15.743155479431152 7.286595344543457 L15.743155479431152 7.286595344543457 C16.798717498779297 8.280733108520508 16.66864776611328 8.711575508117676 15.763701438903809 9.79562759399414 L15.763701438903809 9.79562759399414 C15.528997421264648 9.269999504089355 15.485047340393066 8.606499671936035 15.059588432312012 8.218742370605469 C14.175314903259277 7.41282844543457 11.174531936645508 7.778543949127197 10.58642864227295 8.75631332397461 C10.235143661499023 9.340353965759277 9.934015274047852 11.121073722839355 9.806974411010742 11.74747085571289 L9.806974411010742 11.74747085571289 C10.753180503845215 11.427200317382812 11.741217613220215 11.141876220703125 12.740117073059082 11.13298511505127 C13.359441757202148 11.127472877502441 14.932954788208008 11.158210754394531 15.441064834594727 11.725774765014648 C16.499467849731445 12.908020973205566 15.33163833618164 16.279050827026367 14.303613662719727 17.05359649658203 C13.490625381469727 17.666128158569336 12.169107437133789 17.647809982299805 11.200672149658203 17.638460159301758 C10.337156295776367 17.630123138427734 8.932549476623535 17.66157341003418 8.308516502380371 16.89739418029785 C7.3923163414001465 15.775433540344238 8.321602821350098 13.192434310913086 8.574230194091797 12.003411293029785 C8.60273265838623 11.8692626953125 9.237820625305176 9.008244514465332 9.297623634338379 8.880882263183594 C10.513273239135742 6.291923999786377 13.49071216583252 6.78925895690918 15.743155479431152 7.286595344543457 L15.743155479431152 7.286595344543457"></path>
<path fill="none" stroke="black" stroke-width=".3" stroke-opacity="1.0"  filling="0" d="M12.377949714660645 12.124960899353027 L12.377949714660645 12.124960899353027 C12.96141529083252 12.184542655944824 13.584566116333008 12.083965301513672 14.128345489501953 12.303705215454102 C15.16098403930664 12.720991134643555 14.645011901855469 14.203557014465332 14.45950698852539 14.798357009887695 C14.00212287902832 16.264902114868164 13.15794563293457 16.79871940612793 11.635236740112305 16.66740608215332 C10.950638771057129 16.608367919921875 10.203347206115723 16.726316452026367 9.5888671875 16.418787002563477 C8.679591178894043 15.963719367980957 9.103174209594727 14.043848991394043 9.288866996765137 13.581242561340332 C9.82238483428955 12.252120971679688 11.152827262878418 12.127425193786621 12.377949714660645 12.124960899353027 L12.377949714660645 12.124960899353027"></path></svg>