<svg xmlns="http://www.w3.org/2000/svg" viewBox="0.0 0.0 24.0 24.0" height="200px" width="200px"><path fill="none" stroke="black" stroke-width=".3" stroke-opacity="1.0"  filling="0" d="M14.939643859863281 3.6597280502319336 C17.48371696472168 3.6597280502319336 19.582422256469727 3.6597280502319336 21.708545684814453 3.6597280502319336 C18.97927474975586 6.287167072296143 16.374216079711914 8.794312477111816 13.520177841186523 11.540925979614258 C16.249446868896484 15.155893325805664 18.038745880126953 19.103206634521484 21.870243072509766 21.652873992919922 C19.16950798034668 21.652873992919922 16.468774795532227 21.652873992919922 13.22587776184082 21.652873992919922 C13.986806869506836 20.871803283691406 14.480849266052246 20.364330291748047 15.099662780761719 19.7298526763916 C13.942604064941406 18.043500900268555 12.75477409362793 16.311830520629883 11.325236320495605 14.228791236877441 C9.754144668579102 16.27602195739746 8.425317764282227 18.006572723388672 6.992424011230469 19.87308692932129 C7.650402545928955 20.452173233032227 8.13829231262207 20.88187599182129 8.585896492004395 21.275766372680664 C8.183610916137695 22.196155548095703 4.205524921417236 22.09152603149414 2.6696815490722656 21.403894424438477 C5.301036834716797 18.624267578125 7.830002784729004 15.952629089355469 10.525701522827148 13.104744911193848 C8.001771926879883 9.878634452819824 6.539783000946045 6.107006072998047 3.043992042541504 3.6636438369750977 C5.509173393249512 3.6636438369750977 7.974355697631836 3.6636438369750977 11.107587814331055 3.6636438369750977 C10.162582397460938 4.417298793792725 9.727287292480469 4.7641921043396 9.076581954956055 5.283413410186768 C10.227484703063965 6.904301643371582 11.387899398803711 8.539177894592285 12.80848503112793 10.539411544799805 C14.231307983398438 8.773611068725586 15.471173286437988 7.23552942276001 16.747406005859375 5.6510090827941895 C16.13866424560547 4.9807209968566895 15.690500259399414 4.486677646636963 14.939643859863281 3.6597280502319336"></path></svg>