<svg xmlns="http://www.w3.org/2000/svg" viewBox="0.0 0.0 24.0 24.0" height="200px" width="200px"><path fill="none" stroke="black" stroke-width=".3" stroke-opacity="1.0"  filling="0" d="M4.813956260681152 2.8250160217285156 C6.264911651611328 3.274258613586426 7.380908489227295 3.8862409591674805 8.515338897705078 3.9225807189941406 C12.435285568237305 4.046873569488525 16.361553192138672 3.9705066680908203 20.9698486328125 3.9705066680908203 C16.526926040649414 9.389862060546875 12.467413902282715 14.34153938293457 8.155630111694336 19.600788116455078 C11.393549919128418 20.19328498840332 14.232786178588867 20.11797332763672 17.00250244140625 19.557077407836914 C17.85306167602539 19.384857177734375 18.565109252929688 18.280973434448242 19.227651596069336 17.507305145263672 C19.754314422607422 16.892166137695312 20.109283447265625 16.130084991455078 20.797103881835938 15.544962882995605 C21.030418395996094 17.943910598754883 20.199871063232422 20.046344757080078 19.54891586303711 22.025543212890625 C18.305465698242188 21.778011322021484 17.26109504699707 21.4119815826416 16.2093505859375 21.389862060546875 C12.792366027832031 21.317180633544922 9.372747421264648 21.377748489379883 5.9541826248168945 21.370376586914062 C5.103622913360596 21.368267059326172 4.253590106964111 21.30138397216797 2.6915102005004883 21.232913970947266 C7.152337074279785 15.876233100891113 11.232389450073242 10.978800773620605 15.3124418258667 6.081368923187256 C15.212903022766113 5.863857746124268 15.112836837768555 5.646345615386963 15.013298034667969 5.428308010101318 C13.794075012207031 5.428308010101318 12.56853199005127 5.505727291107178 11.356155395507812 5.4135613441467285 C8.115076065063477 5.166557312011719 5.460171222686768 5.944436550140381 4.067676544189453 9.221857070922852 C3.9618167877197266 9.470440864562988 3.606320381164551 9.613166809082031 3.367215156555176 9.804871559143066 C3.182356834411621 9.715338706970215 2.99697208404541 9.62580680847168 2.8121137619018555 9.536273956298828 C3.5083608627319336 7.203160285949707 4.2040815353393555 4.8695197105407715 4.813956260681152 2.8250160217285156"></path></svg>