<svg xmlns="http://www.w3.org/2000/svg" viewBox="0.0 0.0 24.0 24.0" height="200px" width="200px"><path fill="none" stroke="black" stroke-width=".3" stroke-opacity="1.0"  filling="0" d="M10.77987003326416 6.508675575256348 L10.77987003326416 6.508675575256348 C10.77987003326416 8.192049026489258 10.77987003326416 9.875423431396484 10.77987003326416 11.558795928955078 L10.77987003326416 11.558795928955078 C11.568479537963867 11.263367652893066 13.213048934936523 10.384241104125977 14.179628372192383 10.982644081115723 C15.490374565124512 11.794118881225586 15.265055656433105 15.781134605407715 15.585966110229492 17.17435646057129 L15.585966110229492 17.17435646057129 C14.501025199890137 17.273588180541992 13.404253005981445 17.24881935119629 12.317560195922852 17.17109489440918 L12.317560195922852 17.17109489440918 C12.98013973236084 16.208141326904297 14.684611320495605 13.212865829467773 12.77029037475586 12.151996612548828 C12.18592643737793 11.828156471252441 11.440180778503418 12.27937126159668 10.775126457214355 12.343058586120605 L10.775126457214355 12.343058586120605 C10.719545364379883 14.403935432434082 10.676628112792969 15.351716995239258 11.731067657470703 17.166648864746094 L11.731067657470703 17.166648864746094 C11.166976928710938 17.166732788085938 9.09638500213623 17.16693115234375 8.465034484863281 17.166946411132812 L8.465034484863281 17.166946411132812 C8.897077560424805 15.586847305297852 9.093851089477539 13.98144245147705 9.106947898864746 12.370203018188477 C9.120043754577637 10.758962631225586 8.949461936950684 9.141887664794922 8.646793365478516 7.53844690322876 L8.646793365478516 7.53844690322876 C9.06692886352539 7.335672378540039 10.442283630371094 6.671682357788086 10.77987003326416 6.508675575256348 L10.77987003326416 6.508675575256348"></path></svg>