<svg xmlns="http://www.w3.org/2000/svg" viewBox="0.0 0.0 24.0 24.0" height="200px" width="200px"><path fill="none" stroke="black" stroke-width=".3" stroke-opacity="1.0"  filling="0" d="M10.989625930786133 2.776310920715332 C12.024479866027832 2.776310920715332 12.876458168029785 2.776310920715332 13.975151062011719 2.776310920715332 C14.024589538574219 3.5342111587524414 14.07162857055664 4.263792991638184 14.12874698638916 5.143610954284668 C12.982535362243652 5.143610954284668 12.010080337524414 5.143610954284668 10.989145278930664 5.143610954284668 C10.989625930786133 4.309872150421143 10.989625930786133 3.5836496353149414 10.989625930786133 2.776310920715332"></path>
<path fill="none" stroke="black" stroke-width=".3" stroke-opacity="1.0"  filling="0" d="M10.7952299118042 6.786610126495361 C12.021120071411133 6.786610126495361 12.889898300170898 6.786610126495361 14.122507095336914 6.786610126495361 C14.122507095336914 8.197774887084961 14.122987747192383 9.596460342407227 14.122507095336914 10.995625495910645 C14.121546745300293 13.465164184570312 14.131627082824707 15.935182571411133 14.115307807922363 18.404720306396484 C14.09418773651123 21.645599365234375 13.357885360717773 22.281105041503906 9.686457633972168 21.85967445373535 C9.925971984863281 20.98369598388672 10.189004898071289 20.154754638671875 10.373800277709961 19.309017181396484 C10.555715560913086 18.476238250732422 10.764511108398438 17.627620697021484 10.776510238647461 16.783321380615234 C10.822588920593262 13.532842636108398 10.7952299118042 10.281403541564941 10.7952299118042 6.786610126495361"></path></svg>