<svg xmlns="http://www.w3.org/2000/svg" viewBox="0.0 0.0 24.0 24.0" height="200px" width="200px"><path fill="none" stroke="black" stroke-width=".3" stroke-opacity="1.0"  filling="0" d="M11.225240707397461 7.982056617736816 L11.225240707397461 7.982056617736816 C12.394718170166016 8.14158821105957 13.571261405944824 8.255327224731445 14.749500274658203 8.325189590454102 L14.749500274658203 8.325189590454102 C14.749360084533691 10.051090240478516 14.749279022216797 11.77699089050293 14.749232292175293 13.502891540527344 C14.749185562133789 15.228792190551758 14.749173164367676 16.954692840576172 14.749171257019043 18.680593490600586 L14.749171257019043 18.680593490600586 C14.053163528442383 18.680593490600586 13.357154846191406 18.680593490600586 12.661147117614746 18.680593490600586 L12.661147117614746 18.680593490600586 C12.622724533081055 17.8551025390625 12.584306716918945 17.029613494873047 12.545894622802734 16.20412254333496 L12.545894622802734 16.20412254333496 C11.541139602661133 15.734451293945312 10.240696907043457 17.21097183227539 9.516578674316406 15.758298873901367 C8.886778831481934 14.49483871459961 8.961936950683594 11.103105545043945 9.260022163391113 9.720379829406738 C9.373870849609375 9.19227123260498 9.450845718383789 8.570947647094727 9.855498313903809 8.213014602661133 C10.202315330505371 7.9062395095825195 10.768659591674805 8.059042930603027 11.225240707397461 7.982056617736816 L11.225240707397461 7.982056617736816"></path>
<path fill="none" stroke="black" stroke-width=".3" stroke-opacity="1.0"  filling="0" d="M11.934821128845215 9.89408016204834 L11.934821128845215 9.89408016204834 C12.102283477783203 9.922975540161133 12.269745826721191 9.951870918273926 12.43720817565918 9.980766296386719 L12.43720817565918 9.980766296386719 C12.43720817565918 11.457719802856445 12.43720817565918 12.93466567993164 12.43720817565918 14.411620140075684 L12.43720817565918 14.411620140075684 C12.303675651550293 14.454962730407715 12.170144081115723 14.498306274414062 12.036611557006836 14.541648864746094 L12.036611557006836 14.541648864746094 C11.244210243225098 12.90472412109375 11.537813186645508 11.61589527130127 11.934821128845215 9.89408016204834 L11.934821128845215 9.89408016204834"></path></svg>