<svg xmlns="http://www.w3.org/2000/svg" viewBox="0.0 0.0 24.0 24.0" height="200px" width="200px"><path fill="none" stroke="black" stroke-width=".3" stroke-opacity="1.0"  filling="0" d="M15.132786750793457 7.097902297973633 C15.989893913269043 7.395533084869385 17.0378475189209 7.141638278961182 17.69956398010254 7.141638278961182 C17.69956398010254 11.049456596374512 17.639354705810547 15.088482856750488 17.72512435913086 19.124099731445312 C17.767154693603516 21.11095428466797 16.808944702148438 23.585716247558594 20.50149154663086 24.20880889892578 C20.281108856201172 24.405902862548828 20.06015968322754 24.602998733520508 19.83977699279785 24.800661087036133 C17.383758544921875 25.179515838623047 14.927741050720215 25.558368682861328 12.471721649169922 25.93722152709961 C12.396745681762695 25.79863166809082 12.321770668029785 25.660608291625977 12.24736213684082 25.522018432617188 C12.938614845275879 25.068187713623047 13.6304349899292 24.613792419433594 14.5210542678833 24.02875518798828 C14.520486831665039 22.306018829345703 14.520486831665039 20.452646255493164 14.520486831665039 18.4442081451416 C14.000201225280762 18.573143005371094 13.531036376953125 18.616878509521484 13.127190589904785 18.801477432250977 C11.023897171020508 19.765369415283203 9.07282829284668 19.597808837890625 7.3898539543151855 17.966522216796875 C5.66995906829834 16.29945182800293 5.342792987823486 14.166624069213867 5.860806465148926 11.953140258789062 C6.758241653442383 8.119161605834961 11.403887748718262 5.804005146026611 15.132786750793457 7.097902297973633"></path>
<path fill="none" stroke="black" stroke-width=".3" stroke-opacity="1.0"  filling="0" d="M12.472289085388184 8.292400360107422 C13.623619079589844 8.34351921081543 14.601140975952148 9.114291191101074 14.693157196044922 10.464420318603516 C14.757340431213379 11.404455184936523 14.705652236938477 12.351873397827148 14.705652236938477 13.29588508605957 C14.715876579284668 13.29588508605957 14.726669311523438 13.29588508605957 14.736892700195312 13.29588508605957 C14.736892700195312 13.767889022827148 14.845949172973633 14.273975372314453 14.713604927062988 14.70451831817627 C14.457438468933105 15.537200927734375 14.160375595092773 16.937881469726562 13.708818435668945 17.008880615234375 C12.73697566986084 17.161670684814453 11.436263084411621 16.904369354248047 10.664922714233398 16.305700302124023 C8.91435718536377 14.947619438171387 8.445191383361816 10.959145545959473 9.832240104675293 9.277307510375977 C10.362180709838867 8.634334564208984 11.587918281555176 8.25320816040039 12.472289085388184 8.292400360107422"></path></svg>