<svg xmlns="http://www.w3.org/2000/svg" viewBox="0.0 0.0 24.0 24.0" height="200px" width="200px"><path fill="none" stroke="black" stroke-width=".3" stroke-opacity="1.0"  filling="0" d="M15.265472412109375 9.955317497253418 L15.265472412109375 9.955317497253418 C15.47486400604248 11.005434036254883 15.684341430664062 12.055534362792969 15.89390754699707 13.105616569519043 L15.89390754699707 13.105616569519043 C15.731900215148926 13.203585624694824 15.569893836975098 13.301553726196289 15.407886505126953 13.39952278137207 L15.407886505126953 13.39952278137207 C15.170641899108887 13.116715431213379 14.144351959228516 11.812076568603516 13.750537872314453 11.659976959228516 C13.055451393127441 11.391518592834473 11.263578414916992 10.84661865234375 11.527837753295898 12.448447227478027 C11.794770240783691 14.066479682922363 14.941596984863281 14.766664505004883 15.855746269226074 16.04477310180664 C16.74108123779297 17.282596588134766 16.61600112915039 19.10906410217285 15.365592002868652 20.105792999267578 C13.814027786254883 21.342578887939453 10.684537887573242 20.700029373168945 8.883153915405273 20.635841369628906 L8.883153915405273 20.635841369628906 C8.883153915405273 19.241174697875977 8.883153915405273 17.846519470214844 8.883153915405273 16.451852798461914 L8.883153915405273 16.451852798461914 C9.667637825012207 17.506309509277344 10.501883506774902 19.012556076049805 11.788590431213379 19.566247940063477 C12.441116333007812 19.847042083740234 13.459269523620605 20.03207778930664 13.764456748962402 18.97007179260254 C14.077115058898926 17.882068634033203 13.017638206481934 17.258710861206055 12.3650541305542 16.801374435424805 C10.60798454284668 15.570005416870117 7.591087341308594 13.643831253051758 9.877729415893555 11.212541580200195 C10.231003761291504 10.836919784545898 10.68577766418457 10.547607421875 11.162334442138672 10.350662231445312 C11.711984634399414 10.123510360717773 12.315024375915527 10.046680450439453 12.903703689575195 9.962007522583008 C13.175713539123535 9.922883033752441 15.074182510375977 9.953413963317871 15.265472412109375 9.955317497253418 L15.265472412109375 9.955317497253418"></path></svg>