<svg xmlns="http://www.w3.org/2000/svg" viewBox="0.0 0.0 24.0 24.0" height="200px" width="200px"><path fill="none" stroke="black" stroke-width=".3" stroke-opacity="1.0"  filling="0" d="M15.082836151123047 10.99283218383789 L15.082836151123047 10.99283218383789 C15.927472114562988 10.99283218383789 16.77210807800293 10.99283218383789 17.616743087768555 10.99283218383789 L17.616743087768555 10.99283218383789 C17.039325714111328 12.196784019470215 16.51556396484375 13.490178108215332 15.914859771728516 14.733376502990723 C15.314155578613281 15.976573944091797 14.63650894165039 17.16957664489746 13.751321792602539 18.172744750976562 L13.751321792602539 18.172744750976562 C13.236265182495117 16.72942352294922 12.721236228942871 15.286089897155762 12.206137657165527 13.842784881591797 L12.206137657165527 13.842784881591797 C11.540242195129395 15.301848411560059 10.874465942382812 16.760963439941406 10.208710670471191 18.220090866088867 L10.208710670471191 18.220090866088867 C9.53823471069336 17.048927307128906 9.064181327819824 15.814083099365234 8.570777893066406 14.589810371398926 C8.077374458312988 13.365537643432617 7.5646209716796875 12.151836395263672 6.816743850708008 11.022961616516113 L6.816743850708008 11.022961616516113 C7.89206075668335 11.022961616516113 8.967377662658691 11.022961616516113 10.042694091796875 11.022961616516113 L10.042694091796875 11.022961616516113 C9.579297065734863 12.872061729431152 9.93995189666748 13.584553718566895 10.68185806274414 15.306806564331055 L10.68185806274414 15.306806564331055 C11.698762893676758 13.438312530517578 12.012690544128418 13.180660247802734 10.803604125976562 11.30980110168457 L10.803604125976562 11.30980110168457 C11.879740715026855 11.30980110168457 12.955876350402832 11.30980110168457 14.032012939453125 11.30980110168457 L14.032012939453125 11.30980110168457 C13.446747779846191 13.11720085144043 13.844261169433594 13.663161277770996 14.673943519592285 15.32586669921875 L14.673943519592285 15.32586669921875 C15.533304214477539 13.433877944946289 15.900983810424805 12.979947090148926 15.082836151123047 10.99283218383789 L15.082836151123047 10.99283218383789"></path></svg>