<svg xmlns="http://www.w3.org/2000/svg" viewBox="0.0 0.0 24.0 24.0" height="200px" width="200px"><path fill="none" stroke="black" stroke-width=".3" stroke-opacity="1.0"  filling="0" d="M11.027827262878418 2.977931022644043 C11.844277381896973 2.9346132278442383 12.67827320098877 2.925291061401367 13.484304428100586 3.040438652038574 C15.80370044708252 3.3721723556518555 16.615215301513672 4.302124500274658 16.761615753173828 6.646196365356445 C16.945302963256836 9.58629322052002 16.814804077148438 10.057299613952637 15.296504020690918 11.918848991394043 C17.0758056640625 13.781494140625 17.657573699951172 18.442768096923828 16.29060935974121 20.469364166259766 C15.957778930664062 20.963401794433594 15.406717300415039 21.41521644592285 14.856203079223633 21.631805419921875 C14.111034393310547 21.925155639648438 13.274846076965332 22.066621780395508 12.4688138961792 22.111583709716797 C7.331596851348877 22.397808074951172 6.171898365020752 21.049488067626953 7.06182336807251 15.726936340332031 C8.094860076904297 15.726936340332031 9.154214859008789 15.726936340332031 10.453187942504883 15.726936340332031 C10.570528030395508 16.64318084716797 10.692803382873535 17.597806930541992 10.813433647155762 18.552982330322266 C13.034132957458496 19.165456771850586 13.272104263305664 18.61768341064453 12.630021095275879 14.037559509277344 C11.782865524291992 13.831392288208008 10.841946601867676 13.602192878723145 9.70692253112793 13.325291633605957 C9.646059036254883 12.623440742492676 9.578615188598633 11.842083930969238 9.49801254272461 10.915421485900879 C10.458669662475586 10.707059860229492 11.30747127532959 10.52282428741455 12.105278015136719 10.349554061889648 C13.228787422180176 7.395201683044434 13.054969787597656 6.684030055999756 10.99328327178955 6.098423480987549 C10.802467346191406 6.846333026885986 10.612749099731445 7.589855670928955 10.406579971313477 8.399177551269531 C9.245784759521484 8.399177551269531 8.179849624633789 8.399177551269531 7.13639497756958 8.399177551269531 C6.351747989654541 4.600959777832031 7.392460346221924 3.1714868545532227 11.027827262878418 2.977931022644043"></path></svg>