<svg xmlns="http://www.w3.org/2000/svg" viewBox="0.0 0.0 24.0 24.0" height="200px" width="200px"><path fill="none" stroke="black" stroke-width=".3" stroke-opacity="1.0"  filling="0" d="M9.872554779052734 7.459831237792969 L9.872554779052734 7.459831237792969 C11.20873737335205 6.989432334899902 12.720617294311523 6.838678359985352 13.771812438964844 7.274020671844482 C14.823007583618164 7.7093634605407715 15.413517951965332 8.730803489685059 14.906961441040039 10.604793548583984 C14.756173133850098 11.162630081176758 14.402449607849121 11.644574165344238 14.150193214416504 12.164464950561523 L14.150193214416504 12.164464950561523 C14.473462104797363 12.571324348449707 14.927526473999023 12.902352333068848 15.120000839233398 13.38504409790039 C16.139968872070312 15.942946434020996 14.245391845703125 17.449974060058594 12.307908058166504 17.610021591186523 C10.370424270629883 17.770069122314453 8.390033721923828 16.5831356048584 9.238375663757324 13.753113746643066 C9.411383628845215 13.175969123840332 9.821426391601562 12.69852352142334 10.112951278686523 12.171228408813477 L10.112951278686523 12.171228408813477 C9.231839179992676 10.283027648925781 8.946662902832031 9.360002517700195 9.872554779052734 7.459831237792969 L9.872554779052734 7.459831237792969"></path>
<path fill="none" stroke="black" stroke-width=".3" stroke-opacity="1.0"  filling="0" d="M11.583610534667969 8.789081573486328 L11.583610534667969 8.789081573486328 C13.190402030944824 9.741833686828613 13.498821258544922 10.682890892028809 11.583610534667969 11.423910140991211 L11.583610534667969 11.423910140991211 C11.583610534667969 10.545634269714355 11.583610534667969 9.667357444763184 11.583610534667969 8.789081573486328 L11.583610534667969 8.789081573486328"></path>
<path fill="none" stroke="black" stroke-width=".3" stroke-opacity="1.0"  filling="0" d="M11.66015625 13.180768966674805 L11.66015625 13.180768966674805 C13.115910530090332 14.256041526794434 13.47867488861084 15.084223747253418 11.66015625 15.92626667022705 L11.66015625 15.92626667022705 C11.66015625 15.011100769042969 11.66015625 14.095934867858887 11.66015625 13.180768966674805 L11.66015625 13.180768966674805"></path></svg>