<svg xmlns="http://www.w3.org/2000/svg" viewBox="0.0 0.0 24.0 24.0" height="200px" width="200px"><path fill="none" stroke="black" stroke-width=".3" stroke-opacity="1.0"  filling="0" d="M8.578166007995605 7.792680740356445 L8.578166007995605 7.792680740356445 C9.685701370239258 7.792680740356445 10.79323673248291 7.792680740356445 11.900772094726562 7.792680740356445 L11.900772094726562 7.792680740356445 C11.785799026489258 9.802349090576172 11.670763969421387 11.81200885772705 11.555837631225586 13.821680068969727 L11.555837631225586 13.821680068969727 C11.642558097839355 13.849103927612305 11.729277610778809 13.8765287399292 11.815998077392578 13.903952598571777 L11.815998077392578 13.903952598571777 C12.570747375488281 11.873355865478516 13.325480461120605 9.842754364013672 14.08017349243164 7.812136650085449 L14.08017349243164 7.812136650085449 C15.195862770080566 7.812136650085449 16.311552047729492 7.812136650085449 17.4272403717041 7.812136650085449 L17.4272403717041 7.812136650085449 C17.10399627685547 9.318300247192383 16.78074836730957 10.824462890625 16.45749282836914 12.3306245803833 C16.134239196777344 13.836785316467285 15.810977935791016 15.342945098876953 15.487709045410156 16.849103927612305 L15.487709045410156 16.849103927612305 C14.844812393188477 16.849103927612305 14.201915740966797 16.849103927612305 13.559019088745117 16.849103927612305 L13.559019088745117 16.849103927612305 C13.95556640625 14.995647430419922 14.35213565826416 13.142193794250488 14.748641967773438 11.288726806640625 L14.748641967773438 11.288726806640625 C14.657567024230957 11.26259994506836 14.566493034362793 11.236472129821777 14.475418090820312 11.210345268249512 L14.475418090820312 11.210345268249512 C13.718101501464844 13.087244033813477 12.960823059082031 14.964164733886719 12.203459739685059 16.84104347229004 L12.203459739685059 16.84104347229004 C12.179367065429688 16.84104347229004 9.768473625183105 16.84104347229004 9.76445484161377 16.84104347229004 L9.76445484161377 16.84104347229004 C9.886150360107422 14.658681869506836 10.007847785949707 12.47631549835205 10.129402160644531 10.293946266174316 L10.129402160644531 10.293946266174316 C10.08326244354248 10.28588581085205 10.037121772766113 10.277825355529785 9.990982055664062 10.26976490020752 L9.990982055664062 10.26976490020752 C9.495406150817871 12.468550682067871 8.999670028686523 14.667306900024414 8.503952980041504 16.866058349609375 L8.503952980041504 16.866058349609375 C7.878474235534668 16.866058349609375 7.25299596786499 16.866058349609375 6.627517223358154 16.866058349609375 L6.627517223358154 16.866058349609375 C6.952662944793701 15.353836059570312 7.2777886390686035 13.8416109085083 7.602895736694336 12.329380989074707 C7.928003311157227 10.81715202331543 8.253092765808105 9.30491828918457 8.578166007995605 7.792680740356445 L8.578166007995605 7.792680740356445"></path></svg>