<svg xmlns="http://www.w3.org/2000/svg" viewBox="0.0 0.0 24.0 24.0" height="200px" width="200px"><path fill="none" stroke="black" stroke-width=".3" stroke-opacity="1.0"  filling="0" d="M11.786913871765137 10.60122013092041 L11.786913871765137 10.60122013092041 C11.948100090026855 11.201719284057617 12.10928726196289 11.802217483520508 12.27047348022461 12.402716636657715 L12.27047348022461 12.402716636657715 C12.84608268737793 11.950910568237305 14.079024314880371 10.910006523132324 14.744163513183594 10.762406349182129 C14.922784805297852 10.722768783569336 17.190776824951172 10.831535339355469 16.371000289916992 12.054393768310547 C15.45302677154541 13.423731803894043 13.209809303283691 12.041797637939453 12.468754768371582 13.633508682250977 C11.653990745544434 15.383541107177734 12.183209419250488 18.320518493652344 12.197615623474121 20.193069458007812 L12.197615623474121 20.193069458007812 C12.664259910583496 20.395845413208008 13.658095359802246 20.82756996154785 14.144827842712402 21.038921356201172 L14.144827842712402 21.038921356201172 C14.113722801208496 21.159521102905273 14.082616806030273 21.280120849609375 14.051511764526367 21.400720596313477 L14.051511764526367 21.400720596313477 C12.180981636047363 21.400720596313477 10.310452461242676 21.400720596313477 8.439922332763672 21.400720596313477 L8.439922332763672 21.400720596313477 C9.023431777954102 20.92142105102539 9.720871925354004 20.564708709716797 10.44202995300293 20.340782165527344 L10.44202995300293 20.340782165527344 C10.394445419311523 18.75679588317871 10.501508712768555 17.379425048828125 10.390093803405762 16.052684783935547 C10.278677940368652 14.725943565368652 9.948783874511719 13.449832916259766 9.027280807495117 12.068367004394531 L9.027280807495117 12.068367004394531 C9.94715690612793 11.579314231872559 10.867034912109375 11.090265274047852 11.786913871765137 10.60122013092041 L11.786913871765137 10.60122013092041"></path></svg>