<svg xmlns="http://www.w3.org/2000/svg" viewBox="0.0 0.0 24.0 24.0" height="200px" width="200px"><path fill="none" stroke="black" stroke-width=".3" stroke-opacity="1.0"  filling="0" d="M10.984085083007812 7.588592529296875 L10.984085083007812 7.588592529296875 C9.465252876281738 9.088385581970215 8.548147201538086 11.171371459960938 9.469079971313477 13.34737777709961 C9.880788803100586 14.320175170898438 10.895816802978516 15.524758338928223 12.14521598815918 15.411481857299805 C13.576299667358398 15.281733512878418 14.306543350219727 14.069287300109863 14.528532028198242 12.677577018737793 C14.750520706176758 11.285866737365723 14.464254379272461 9.714892387390137 13.86231803894043 8.868086814880371 C13.025641441345215 7.691046714782715 12.237759590148926 7.845664024353027 10.940367698669434 7.625602722167969 L10.940367698669434 7.625602722167969 C12.486227035522461 7.411645412445068 14.150285720825195 7.945990085601807 15.17310905456543 8.967794418334961 C16.195932388305664 9.989599227905273 16.5775203704834 11.49886417388916 15.558436393737793 13.234746932983398 C14.85900592803955 14.426138877868652 14.20372486114502 14.73852825164795 13.171159744262695 15.438712120056152 L13.171159744262695 15.438712120056152 C14.129514694213867 17.25505256652832 14.668554306030273 17.427379608154297 16.68712043762207 17.841388702392578 L16.68712043762207 17.841388702392578 C13.81423282623291 18.48490333557129 13.374855041503906 17.457799911499023 11.260139465332031 15.851442337036133 C10.376290321350098 15.180062294006348 9.466612815856934 15.12865924835205 8.654121398925781 14.275068283081055 C7.420953750610352 12.979522705078125 7.3427653312683105 11.547786712646484 7.9032087326049805 10.319995880126953 C8.463651657104492 9.092205047607422 9.662727355957031 8.068359375 10.984085083007812 7.588592529296875 L10.984085083007812 7.588592529296875"></path></svg>