<svg xmlns="http://www.w3.org/2000/svg" viewBox="0.0 0.0 24.0 24.0" height="200px" width="200px"><path fill="none" stroke="black" stroke-width=".3" stroke-opacity="1.0"  filling="0" d="M14.021868705749512 6.986556529998779 L14.021868705749512 6.986556529998779 C14.88158130645752 6.986556529998779 15.741294860839844 6.986556529998779 16.60100746154785 6.986556529998779 L16.60100746154785 6.986556529998779 C15.97372055053711 8.786535263061523 15.346458435058594 10.586523056030273 14.719229698181152 12.38652229309082 C14.092000007629395 14.186521530151367 13.464803695678711 15.986532211303711 12.837647438049316 17.786556243896484 L12.837647438049316 17.786556243896484 C11.38842487335205 17.786319732666016 9.93919849395752 17.786235809326172 8.489974975585938 17.786224365234375 L8.489974975585938 17.786224365234375 C8.626541137695312 15.996844291687012 8.763096809387207 14.207464218139648 8.899637222290039 12.418082237243652 C9.036178588867188 10.628700256347656 9.17270278930664 8.839317321777344 9.309207916259766 7.04993200302124 L9.309207916259766 7.04993200302124 C10.17577838897705 7.04993200302124 11.042348861694336 7.04993200302124 11.908919334411621 7.04993200302124 L11.908919334411621 7.04993200302124 C11.782384872436523 8.31782341003418 11.65587043762207 9.585715293884277 11.529348373413086 10.853607177734375 C11.402828216552734 12.121500015258789 11.276300430297852 13.38939094543457 11.149744033813477 14.657279968261719 L11.149744033813477 14.657279968261719 C11.262227058410645 14.680838584899902 11.374709129333496 14.704397201538086 11.487192153930664 14.72795581817627 L11.487192153930664 14.72795581817627 C11.90966796875 13.437732696533203 12.33210563659668 12.147496223449707 12.75454044342041 10.857259750366211 C13.17697525024414 9.567022323608398 13.599407196044922 8.276784896850586 14.021868705749512 6.986556529998779 L14.021868705749512 6.986556529998779"></path></svg>