<svg xmlns="http://www.w3.org/2000/svg" viewBox="0.0 0.0 24.0 24.0" height="200px" width="200px"><path fill="none" stroke="black" stroke-width=".3" stroke-opacity="1.0"  filling="0" d="M11.733511924743652 6.930313587188721 L11.733511924743652 6.930313587188721 C11.733511924743652 8.32175350189209 11.733511924743652 9.713193893432617 11.733511924743652 11.104633331298828 L11.733511924743652 11.104633331298828 C11.836816787719727 11.135778427124023 11.940122604370117 11.166923522949219 12.043427467346191 11.198068618774414 L12.043427467346191 11.198068618774414 C12.666799545288086 9.797820091247559 13.290250778198242 8.397608757019043 13.913778305053711 6.997429370880127 L13.913778305053711 6.997429370880127 C14.701178550720215 6.997429370880127 15.488579750061035 6.997429370880127 16.27597999572754 6.997429370880127 L16.27597999572754 6.997429370880127 C15.433099746704102 8.796287536621094 14.487039566040039 10.483896255493164 13.668066024780273 12.218732833862305 C12.849092483520508 13.953569412231445 12.157205581665039 15.735633850097656 11.822669982910156 17.723403930664062 L11.822669982910156 17.723403930664062 C10.959381103515625 17.723403930664062 10.096091270446777 17.723403930664062 9.232802391052246 17.723403930664062 L9.232802391052246 17.723403930664062 C9.760492324829102 15.912812232971191 9.857260704040527 14.174973487854004 9.796422958374023 12.428400993347168 C9.73558521270752 10.681828498840332 9.517141342163086 8.926522254943848 9.414408683776855 7.080995082855225 L9.414408683776855 7.080995082855225 C10.18235969543457 6.979232311248779 10.958855628967285 6.9338531494140625 11.733511924743652 6.930313587188721 L11.733511924743652 6.930313587188721"></path></svg>