<svg xmlns="http://www.w3.org/2000/svg" viewBox="0.0 0.0 24.0 24.0" height="200px" width="200px"><path fill="none" stroke="black" stroke-width=".3" stroke-opacity="1.0"  filling="0" d="M12.575292587280273 9.391794204711914 L12.575292587280273 9.391794204711914 C13.436370849609375 9.479159355163574 14.294986724853516 9.594079971313477 15.149313926696777 9.732696533203125 L15.149313926696777 9.732696533203125 C13.730708122253418 10.65162467956543 14.72673511505127 11.669058799743652 13.861352920532227 12.877737998962402 C13.550668716430664 13.311671257019043 13.020228385925293 13.5348539352417 12.599665641784668 13.863411903381348 L12.636699676513672 13.899179458618164 C13.340255737304688 11.666982650756836 13.027215003967285 10.91921615600586 11.027462005615234 9.741876602172852 L11.058797836303711 9.79347038269043 C11.564295768737793 9.659578323364258 12.069794654846191 9.525686264038086 12.575292587280273 9.391794204711914 L12.575292587280273 9.391794204711914"></path>
<path fill="none" stroke="black" stroke-width=".3" stroke-opacity="1.0"  filling="0" d="M11.027462005615234 9.742508888244629 L11.027462005615234 9.742508888244629 C10.288759231567383 12.182861328125 10.352970123291016 12.717914581298828 12.636699676513672 13.899812698364258 L12.599665641784668 13.864044189453125 C12.31382942199707 14.08600902557373 10.971515655517578 15.128339767456055 10.78246784210205 15.275135040283203 L10.78246784210205 15.275135040283203 C12.005840301513672 15.389838218688965 16.670272827148438 15.374395370483398 14.93894100189209 18.072032928466797 C14.613051414489746 18.579811096191406 14.00910758972168 18.84117317199707 13.544191360473633 19.225744247436523 L13.587555885314941 19.283037185668945 C15.340536117553711 16.794639587402344 12.215880393981934 16.686294555664062 10.389654159545898 17.02902603149414 L10.430170059204102 17.068275451660156 C10.11469554901123 16.574277877807617 9.799220085144043 16.08028221130371 9.483745574951172 15.586284637451172 L9.483745574951172 15.586284637451172 C9.987449645996094 15.17817211151123 10.491154670715332 14.770058631896973 10.994858741760254 14.361946105957031 L10.994858741760254 14.361946105957031 C8.738981246948242 12.890103340148926 8.703499794006348 11.17565631866455 11.059115409851074 9.793787002563477 L11.027462005615234 9.742508888244629"></path>
<path fill="none" stroke="black" stroke-width=".3" stroke-opacity="1.0"  filling="0" d="M10.389654159545898 17.028711318969727 L10.389654159545898 17.028711318969727 C10.177032470703125 19.56886863708496 11.279191970825195 19.72247314453125 13.587555885314941 19.28272247314453 L13.544191360473633 19.225112915039062 C12.322608947753906 20.090734481811523 12.372443199157715 20.39510154724121 10.784683227539062 20.172801971435547 C8.332908630371094 19.829532623291016 8.521973609924316 17.904726028442383 10.430170059204102 17.06827735900879 L10.389654159545898 17.028711318969727"></path></svg>