<svg xmlns="http://www.w3.org/2000/svg" viewBox="0.0 0.0 24.0 24.0" height="200px" width="200px"><path fill="none" stroke="black" stroke-width=".3" stroke-opacity="1.0"  filling="0" d="M15.790767669677734 8.838874816894531 L15.790767669677734 8.838874816894531 C16.221343994140625 10.529369354248047 16.035146713256836 11.381153106689453 15.58198070526123 13.042619705200195 L15.58198070526123 13.042619705200195 C14.870851516723633 13.042619705200195 14.159722328186035 13.042619705200195 13.448593139648438 13.042619705200195 L13.448593139648438 13.042619705200195 C13.375641822814941 12.397875785827637 13.302690505981445 11.753132820129395 13.22973918914795 11.108388900756836 L13.22973918914795 11.108388900756836 C12.190671920776367 11.994392395019531 11.66886043548584 13.469782829284668 11.3401517868042 15.05223274230957 C11.011444091796875 16.63468360900879 10.875839233398438 18.324193954467773 10.609184265136719 19.638437271118164 L10.609184265136719 19.638437271118164 C9.613545417785645 19.638437271118164 8.617905616760254 19.638437271118164 7.62226676940918 19.638437271118164 L7.62226676940918 19.638437271118164 C7.976944446563721 17.93321418762207 8.331564903259277 16.227977752685547 8.68616771697998 14.52273941040039 C9.040770530700684 12.817500114440918 9.395356178283691 11.11225700378418 9.749963760375977 9.40701961517334 L9.749963760375977 9.40701961517334 C11.763566970825195 9.217650413513184 13.777168273925781 9.028286933898926 15.790767669677734 8.838874816894531 L15.790767669677734 8.838874816894531"></path></svg>