<svg xmlns="http://www.w3.org/2000/svg" viewBox="0.0 0.0 24.0 24.0" height="200px" width="200px"><path fill="none" stroke="black" stroke-width=".3" stroke-opacity="1.0"  filling="0" d="M6.831074237823486 12.076085090637207 L6.831074237823486 12.076085090637207 C7.655552387237549 12.076085090637207 8.480030059814453 12.076085090637207 9.304508209228516 12.076085090637207 L9.304508209228516 12.076085090637207 C9.328189849853516 14.194454193115234 9.860861778259277 15.416984558105469 10.770234107971191 17.319782257080078 L10.770234107971191 17.319782257080078 C10.454809188842773 18.0621280670166 10.139296531677246 18.80443572998047 9.823768615722656 19.546737670898438 L9.823768615722656 19.546737670898438 C9.324981689453125 18.3016300201416 8.826165199279785 17.056535720825195 8.327367782592773 15.811432838439941 C7.8285698890686035 14.566330909729004 7.329790115356445 13.321221351623535 6.831074237823486 12.076085090637207 L6.831074237823486 12.076085090637207"></path>
<path fill="none" stroke="black" stroke-width=".3" stroke-opacity="1.0"  filling="0" d="M15.886181831359863 12.08096981048584 L15.886181831359863 12.08096981048584 C16.467937469482422 12.08096981048584 17.049694061279297 12.08096981048584 17.631450653076172 12.08096981048584 L17.631450653076172 12.08096981048584 C16.940439224243164 13.175445556640625 16.249467849731445 14.26994800567627 15.558544158935547 15.364479064941406 L15.610771179199219 15.409943580627441 C15.871654510498047 14.327488899230957 15.928719520568848 13.193605422973633 15.886181831359863 12.08096981048584 L15.886181831359863 12.08096981048584"></path>
<path fill="none" stroke="black" stroke-width=".3" stroke-opacity="1.0"  filling="0" d="M10.696966171264648 12.082097053527832 L10.696966171264648 12.082097053527832 C11.328080177307129 12.082097053527832 12.84046459197998 12.082097053527832 13.519454956054688 12.082097053527832 L13.519454956054688 12.082097053527832 C13.411182403564453 14.030986785888672 13.922537803649902 15.22118854522705 14.552713394165039 17.055267333984375 L14.552713394165039 17.055267333984375 C14.905524253845215 16.50670051574707 15.258336067199707 15.958133697509766 15.611146926879883 15.409566879272461 L15.558168411254883 15.364479064941406 C15.55816650390625 15.364485740661621 14.309993743896484 19.137935638427734 14.309991836547852 19.137941360473633 L14.309991836547852 19.137941360473633 C14.143668174743652 19.13355827331543 13.97734546661377 19.129175186157227 13.81102180480957 19.124792098999023 L13.81102180480957 19.124792098999023 C13.397730827331543 17.926042556762695 12.927644729614258 16.719039916992188 12.40666675567627 15.534890174865723 C11.885688781738281 14.350739479064941 11.313820838928223 13.18943977355957 10.696966171264648 12.082097053527832 L10.696966171264648 12.082097053527832"></path></svg>