<svg xmlns="http://www.w3.org/2000/svg" viewBox="0.0 0.0 24.0 24.0" height="200px" width="200px"><path fill="none" stroke="black" stroke-width=".3" stroke-opacity="1.0"  filling="0" d="M12.05447769165039 4.215331077575684 C13.809675216674805 4.343934535980225 15.051054000854492 5.286429405212402 15.67680549621582 6.882659435272217 C16.674671173095703 9.430315017700195 14.652742385864258 10.634184837341309 13.046390533447266 12.108359336853027 C13.310742378234863 12.322103500366211 13.473877906799316 12.528701782226562 13.685834884643555 12.61384105682373 C15.657752990722656 13.406299591064453 17.108707427978516 14.57087516784668 17.135501861572266 16.941699981689453 C17.162887573242188 19.37801742553711 15.998908996582031 21.12964630126953 14.017465591430664 22.329345703125 C11.873480796813965 23.6260986328125 9.515752792358398 23.657054901123047 7.112776279449463 22.905681610107422 C8.439295768737793 22.613941192626953 9.803324699401855 22.433542251586914 11.082808494567871 22.00188636779785 C12.673084259033203 21.465442657470703 13.766212463378906 20.313369750976562 14.134160995483398 18.628429412841797 C14.698587417602539 16.0450496673584 13.467924118041992 14.480377197265625 10.742843627929688 14.261275291442871 C10.257604598999023 14.222574234008789 9.767006874084473 14.255916595458984 9.087671279907227 13.836766242980957 C9.78070068359375 13.43249797821045 10.472538948059082 13.025850296020508 11.166757583618164 12.623964309692383 C13.265493392944336 11.40997314453125 14.000795364379883 9.749442100524902 13.208931922912598 8.003175735473633 C12.455172538757324 6.337881565093994 11.178070068359375 5.987794399261475 8.633987426757812 6.751674175262451 C8.374399185180664 6.829670429229736 8.119573593139648 6.923145771026611 7.7831807136535645 7.036268711090088 C8.968594551086426 4.946465015411377 10.27546501159668 4.084941864013672 12.05447769165039 4.215331077575684"></path></svg>