<svg xmlns="http://www.w3.org/2000/svg" viewBox="0.0 0.0 24.0 24.0" height="200px" width="200px"><path fill="none" stroke="black" stroke-width=".3" stroke-opacity="1.0"  filling="0" d="M12.326184272766113 3.127866744995117 C14.65252685546875 3.127866744995117 16.774194717407227 3.127866744995117 19.140056610107422 3.127866744995117 C18.48710060119629 6.245779991149902 17.82352638244629 9.176713943481445 17.28087043762207 12.130061149597168 C17.091529846191406 13.161698341369629 16.17609214782715 14.243471145629883 17.516216278076172 15.352376937866211 C17.858915328979492 15.636091232299805 17.596435546875 17.51238441467285 17.143436431884766 17.745372772216797 C15.199312210083008 18.74456787109375 15.835752487182617 20.867412567138672 14.8070650100708 22.327869415283203 C13.621479988098145 22.327869415283203 12.382806777954102 22.327869415283203 10.977800369262695 22.327869415283203 C11.140007972717285 20.988922119140625 11.28451919555664 19.789180755615234 11.460883140563965 18.33108901977539 C9.224786758422852 18.33108901977539 7.193953990936279 18.33108901977539 4.967294216156006 18.33108901977539 C5.40023946762085 12.032146453857422 9.883050918579102 8.072525978088379 12.326184272766113 3.127866744995117"></path>
<path fill="none" stroke="black" stroke-width=".3" stroke-opacity="1.0"  filling="0" d="M13.330686569213867 7.374151706695557 C13.541261672973633 7.449061870574951 13.751245498657227 7.523382663726807 13.961230278015137 7.598292350769043 C13.466351509094238 9.925226211547852 12.97147274017334 12.251568794250488 12.4299955368042 14.798513412475586 C11.361199378967285 14.798513412475586 10.605020523071289 14.798513412475586 9.207680702209473 14.798513412475586 C10.71119213104248 12.091131210327148 12.021234512329102 9.732935905456543 13.330686569213867 7.374151706695557"></path></svg>