<svg xmlns="http://www.w3.org/2000/svg" viewBox="0.0 0.0 24.0 24.0" height="200px" width="200px"><path fill="none" stroke="black" stroke-width=".3" stroke-opacity="1.0"  filling="0" d="M13.5024995803833 2.9497385025024414 C18.721534729003906 2.7806711196899414 19.377885818481445 3.5054025650024414 18.40762710571289 8.499374389648438 C17.846580505371094 11.38914680480957 17.318376541137695 14.291841506958008 16.59149169921875 17.14177131652832 C15.532392501831055 21.294708251953125 10.637495040893555 23.384906768798828 6.81084680557251 21.327552795410156 C6.2616448402404785 21.032489776611328 5.782977104187012 20.08538818359375 5.771131992340088 19.431190490722656 C5.7522873878479 18.406551361083984 6.159881114959717 17.373836517333984 6.416175365447998 16.212434768676758 C7.683109283447266 16.212434768676758 8.8095121383667 16.212434768676758 10.078062057495117 16.212434768676758 C10.078062057495117 16.944704055786133 10.078062057495117 17.693126678466797 10.078062057495117 18.438318252563477 C12.351865768432617 18.726381301879883 12.438015937805176 18.589078903198242 13.045907020568848 13.477191925048828 C12.40786361694336 13.730255126953125 12.026652336120605 13.943475723266602 11.619058609008789 14.033393859863281 C8.250080108642578 14.776970863342285 6.389791965484619 13.299508094787598 7.456966876983643 10.172286987304688 C7.799949645996094 9.16649341583252 7.866715431213379 8.06916618347168 8.156930923461914 7.041296005249023 C9.07172966003418 3.7999258041381836 10.06352424621582 3.0611953735351562 13.5024995803833 2.9497385025024414"></path>
<path fill="none" stroke="black" stroke-width=".3" stroke-opacity="1.0"  filling="0" d="M14.549213409423828 6.27241325378418 C12.177952766418457 6.114113807678223 11.970117568969727 6.467864990234375 11.648672103881836 10.881942749023438 C13.840635299682617 11.26584529876709 14.098005294799805 10.871712684631348 14.549213409423828 6.27241325378418"></path></svg>