<svg xmlns="http://www.w3.org/2000/svg" viewBox="0.0 0.0 24.0 24.0" height="200px" width="200px"><path fill="none" stroke="black" stroke-width=".3" stroke-opacity="1.0"  filling="0" d="M13.74975299835205 7.1439995765686035 L13.74975299835205 7.1439995765686035 C14.104877471923828 7.292613983154297 14.638382911682129 7.247847080230713 14.815125465393066 7.589843273162842 C15.063821792602539 8.071070671081543 14.818193435668945 8.673221588134766 14.819992065429688 9.214909553527832 C14.825386047363281 10.83974552154541 14.836590766906738 12.464784622192383 14.807211875915527 14.089496612548828 C14.792726516723633 14.890558242797852 14.917915344238281 16.470840454101562 14.225434303283691 17.15345573425293 C13.312509536743164 18.053373336791992 10.664661407470703 18.019744873046875 9.774884223937988 17.10541343688965 C9.023844718933105 16.333648681640625 9.206220626831055 14.828277587890625 9.202720642089844 13.92311954498291 L9.202720642089844 13.92311954498291 C9.542759895324707 14.308094024658203 9.961963653564453 14.635577201843262 10.22283935546875 15.078042984008789 C10.455412864685059 15.472505569458008 10.334809303283691 16.0533504486084 10.652908325195312 16.382749557495117 C11.93320083618164 17.708526611328125 13.522672653198242 16.382678985595703 13.739873886108398 15.044580459594727 C13.942091941833496 13.798792839050293 13.944561958312988 12.454893112182617 13.896476745605469 11.106817245483398 C13.848392486572266 9.75874137878418 13.74975299835205 8.406490325927734 13.74975299835205 7.1439995765686035 L13.74975299835205 7.1439995765686035"></path></svg>