<svg xmlns="http://www.w3.org/2000/svg" viewBox="0.0 0.0 24.0 24.0" height="200px" width="200px"><path fill="none" stroke="black" stroke-width=".3" stroke-opacity="1.0"  filling="0" d="M17.022207260131836 6.920780181884766 L17.022207260131836 6.920780181884766 C17.022207260131836 8.709365844726562 17.022207260131836 10.497952461242676 17.022207260131836 12.286539077758789 C17.022207260131836 14.075125694274902 17.022207260131836 15.863712310791016 17.022207260131836 17.652297973632812 L17.022207260131836 17.652297973632812 C15.99134635925293 16.590198516845703 15.903602600097656 15.080549240112305 15.965412139892578 13.49166202545166 C16.0272216796875 11.902775764465332 16.238584518432617 10.23465347290039 15.80593490600586 8.855612754821777 L15.80593490600586 8.855612754821777 C15.281232833862305 10.311750411987305 14.756511688232422 11.7678804397583 14.231765747070312 13.22400188446045 C13.707019805908203 14.680122375488281 13.182249069213867 16.136234283447266 12.657449722290039 17.592336654663086 L12.657449722290039 17.592336654663086 C10.979063034057617 17.63741683959961 11.106274604797363 16.759401321411133 10.574217796325684 15.226001739501953 C9.817544937133789 13.04525375366211 9.105740547180176 10.915218353271484 7.976171970367432 8.899518013000488 L7.976171970367432 8.899518013000488 C7.976171970367432 10.340238571166992 7.976171970367432 11.780960083007812 7.976171970367432 13.221680641174316 C7.976171970367432 14.66240119934082 7.976171970367432 16.10312271118164 7.976171970367432 17.543842315673828 L7.976171970367432 17.543842315673828 C7.623172760009766 17.31022071838379 7.088986396789551 17.229848861694336 6.917174816131592 16.842979431152344 C6.462833404541016 15.819934844970703 6.919509410858154 14.604187965393066 6.919140815734863 13.48479175567627 C6.918430328369141 11.327367782592773 6.917006015777588 9.169949531555176 6.917174816131592 7.0125250816345215 L6.917174816131592 7.0125250816345215 C7.508382320404053 7.0125250816345215 8.099590301513672 7.0125250816345215 8.690797805786133 7.0125250816345215 L8.690797805786133 7.0125250816345215 C9.247791290283203 8.580641746520996 9.804771423339844 10.148763656616211 10.361740112304688 11.716889381408691 C10.918707847595215 13.285016059875488 11.475662231445312 14.85314655303955 12.032602310180664 16.421281814575195 L12.032602310180664 16.421281814575195 C12.59057331085205 14.850269317626953 13.148542404174805 13.279254913330078 13.706497192382812 11.708236694335938 C14.26445198059082 10.137216567993164 14.822391510009766 8.566192626953125 15.380304336547852 6.995159149169922 L15.380304336547852 6.995159149169922 C15.927605628967285 6.97036600112915 16.47490692138672 6.945573329925537 17.022207260131836 6.920780181884766 L17.022207260131836 6.920780181884766"></path></svg>