<svg xmlns="http://www.w3.org/2000/svg" viewBox="0.0 0.0 24.0 24.0" height="200px" width="200px"><path fill="none" stroke="black" stroke-width=".3" stroke-opacity="1.0"  filling="0" d="M21.25766944885254 5.162347316741943 C21.466564178466797 5.265415191650391 21.675920486450195 5.368022918701172 21.884815216064453 5.471089839935303 C20.590492248535156 10.426151275634766 19.296165466308594 15.380752563476562 17.98757553100586 20.390567779541016 C17.18926239013672 20.390567779541016 16.52668571472168 20.390567779541016 15.762422561645508 20.390567779541016 C14.656288146972656 16.052989959716797 13.56441593170166 11.77016830444336 12.472545623779297 7.48734712600708 C12.359354972839355 7.476304054260254 12.246164321899414 7.465260982513428 12.132513999938965 7.45421838760376 C11.032821655273438 11.75222396850586 9.934049606323242 16.050228118896484 8.822392463684082 20.397010803222656 C8.105981826782227 20.397010803222656 7.50828218460083 20.397010803222656 6.654754638671875 20.397010803222656 C5.343404293060303 15.501764297485352 4.014110565185547 10.539800643920898 2.6838951110839844 5.573696613311768 C4.0973920822143555 5.0178680419921875 4.176534175872803 5.868635177612305 4.3716254234313965 6.6016106605529785 C5.235735893249512 9.849617004394531 6.106748580932617 13.09624195098877 6.9800615310668945 16.341947555541992 C7.1572089195251465 16.999923706054688 7.355982303619385 17.65191650390625 7.860276222229004 18.343942642211914 C8.963190078735352 14.043635368347168 10.065644264221191 9.74378776550293 11.181442260742188 5.392868518829346 C11.892332077026367 5.392868518829346 12.491411209106445 5.392868518829346 13.385429382324219 5.392868518829346 C14.46901798248291 9.618175506591797 15.579294204711914 13.947009086608887 16.689571380615234 18.276302337646484 C16.80874252319336 18.28780746459961 16.927913665771484 18.29977035522461 17.04754638671875 18.3112735748291 C17.841716766357422 15.353604316711426 18.634048461914062 12.395015716552734 19.43052101135254 9.437807083129883 C19.728219985961914 8.331212997436523 19.98358726501465 7.208513259887695 20.36457061767578 6.130905628204346 C20.498926162719727 5.750384330749512 20.950767517089844 5.482132434844971 21.25766944885254 5.162347316741943"></path></svg>