<svg xmlns="http://www.w3.org/2000/svg" viewBox="0.0 0.0 24.0 24.0" height="200px" width="200px"><path fill="none" stroke="black" stroke-width=".3" stroke-opacity="1.0"  filling="0" d="M13.655529975891113 8.77812385559082 L13.655529975891113 8.77812385559082 C15.496259689331055 9.847087860107422 15.200859069824219 10.547591209411621 14.881134033203125 12.618132591247559 L14.881134033203125 12.618132591247559 C14.711027145385742 12.308570861816406 13.576982498168945 10.152826309204102 13.264763832092285 9.964775085449219 C11.77914810180664 9.06998062133789 10.340534210205078 10.166622161865234 10.136580467224121 11.56884479522705 C9.946600914001465 12.874991416931152 9.512018203735352 16.598079681396484 10.533395767211914 17.65237808227539 C11.990118980407715 19.156051635742188 13.660074234008789 17.857879638671875 14.357925415039062 16.565160751342773 C14.619386672973633 16.080821990966797 14.826462745666504 15.56904125213623 15.060730934143066 15.070981979370117 L15.060730934143066 15.070981979370117 C15.168986320495605 15.810949325561523 15.461973190307617 16.546960830688477 15.385496139526367 17.290884017944336 C15.142936706542969 19.650371551513672 11.260276794433594 19.96380043029785 9.780770301818848 18.732982635498047 C8.152843475341797 17.378692626953125 8.62217903137207 14.073942184448242 8.814966201782227 12.247503280639648 C8.928393363952637 11.172913551330566 8.969181060791016 9.96947193145752 9.932867050170898 9.211064338684082 C11.160819053649902 8.244684219360352 12.263258934020996 8.649648666381836 13.655529975891113 8.77812385559082 L13.655529975891113 8.77812385559082"></path></svg>