<svg xmlns="http://www.w3.org/2000/svg" viewBox="0.0 0.0 24.0 24.0" height="200px" width="200px"><path fill="none" stroke="black" stroke-width=".3" stroke-opacity="1.0"  filling="0" d="M11.855536460876465 9.340120315551758 L11.855536460876465 9.340120315551758 C12.977492332458496 9.518807411193848 14.07371711730957 9.889952659606934 15.106861114501953 10.362528800964355 L15.106861114501953 10.362528800964355 C14.788274765014648 10.443954467773438 14.469688415527344 10.525381088256836 14.151102066040039 10.606806755065918 L14.151102066040039 10.606806755065918 C13.550463676452637 13.009679794311523 12.9150972366333 13.880325317382812 10.89168930053711 15.308591842651367 L10.89168930053711 15.308591842651367 C11.965127944946289 16.24135971069336 13.038570404052734 17.17411994934082 14.111953735351562 18.106950759887695 L14.111953735351562 18.106950759887695 C12.965127944946289 19.389015197753906 13.008431434631348 19.765430450439453 11.158738136291504 20.054096221923828 C10.19996166229248 20.203723907470703 6.661552906036377 19.927934646606445 7.968443393707275 17.869144439697266 C8.283369064331055 17.373031616210938 8.936280250549316 17.202421188354492 9.420198440551758 16.86905860900879 L9.420198440551758 16.86905860900879 C9.55432415008545 16.45697784423828 9.948391914367676 15.246530532836914 10.088645935058594 14.815829277038574 L10.088645935058594 14.815829277038574 C8.023138999938965 12.423736572265625 9.372918128967285 10.542116165161133 11.855536460876465 9.340120315551758 L11.855536460876465 9.340120315551758"></path>
<path fill="none" stroke="black" stroke-width=".3" stroke-opacity="1.0"  filling="0" d="M11.639083862304688 10.110485076904297 L11.639083862304688 10.110485076904297 C11.965937614440918 10.647223472595215 13.680694580078125 14.13499641418457 11.457249641418457 14.034463882446289 C8.985390663146973 13.922698974609375 11.149346351623535 10.6668701171875 11.639083862304688 10.110485076904297 L11.639083862304688 10.110485076904297"></path>
<path fill="none" stroke="black" stroke-width=".3" stroke-opacity="1.0"  filling="0" d="M10.095440864562988 16.815998077392578 L10.095440864562988 16.815998077392578 C11.12779426574707 17.454898834228516 12.018656730651855 18.357763290405273 12.698052406311035 19.363929748535156 L12.698052406311035 19.363929748535156 C11.745599746704102 19.403440475463867 9.640557289123535 19.68912124633789 9.302103042602539 18.22957420349121 C9.180045127868652 17.70321273803711 9.830994606018066 17.287189483642578 10.095440864562988 16.815998077392578 L10.095440864562988 16.815998077392578"></path></svg>