<svg xmlns="http://www.w3.org/2000/svg" viewBox="0.0 0.0 24.0 24.0" height="200px" width="200px"><path fill="none" stroke="black" stroke-width=".3" stroke-opacity="1.0"  filling="0" d="M11.29053020477295 8.34959602355957 L11.29053020477295 8.34959602355957 C12.271465301513672 8.268961906433105 13.326911926269531 8.559103012084961 14.144408226013184 9.107221603393555 L14.144408226013184 9.107221603393555 C14.338363647460938 8.829771995544434 14.636153221130371 8.532983779907227 14.974501609802246 8.522140502929688 L14.974501609802246 8.522140502929688 C15.445253372192383 9.047126770019531 15.192679405212402 9.920269966125488 15.201348304748535 10.625353813171387 C15.21378231048584 11.63671875 15.403109550476074 13.078105926513672 15.407899856567383 14.477680206298828 C15.412690162658691 15.877254486083984 15.232942581176758 17.235015869140625 14.507226943969727 18.079126358032227 C13.616132736206055 19.115596771240234 10.65871810913086 19.475753784179688 10.16640567779541 17.77822494506836 C10.045626640319824 17.36176872253418 10.278768539428711 16.918302536010742 10.334949493408203 16.488340377807617 L10.334949493408203 16.488340377807617 C10.8084135055542 16.918432235717773 11.15937328338623 17.546300888061523 11.755340576171875 17.778615951538086 C14.241291046142578 18.747665405273438 14.18870735168457 16.52939224243164 14.215621948242188 15.033638000488281 L14.215621948242188 15.033638000488281 C13.286222457885742 15.497136116027832 12.749217987060547 15.945287704467773 11.5911283493042 15.6627197265625 C9.497220039367676 15.151817321777344 9.189011573791504 10.801775932312012 10.144485473632812 9.266706466674805 C10.403033256530762 8.851323127746582 10.908514976501465 8.655299186706543 11.29053020477295 8.34959602355957 L11.29053020477295 8.34959602355957"></path>
<path fill="none" stroke="black" stroke-width=".3" stroke-opacity="1.0"  filling="0" d="M12.224777221679688 9.10784912109375 L12.224777221679688 9.10784912109375 C12.63971996307373 9.17983341217041 13.11519718170166 9.096306800842285 13.4696044921875 9.323802947998047 C15.201621055603027 10.435592651367188 14.7119140625 14.995298385620117 12.212542533874512 14.760076522827148 C10.410219192504883 14.590455055236816 10.222349166870117 10.56130599975586 11.220649719238281 9.522110939025879 C11.47148609161377 9.26099967956543 11.890068054199219 9.245936393737793 12.224777221679688 9.10784912109375 L12.224777221679688 9.10784912109375"></path></svg>