<svg xmlns="http://www.w3.org/2000/svg" viewBox="0.0 0.0 24.0 24.0" height="200px" width="200px"><path fill="none" stroke="black" stroke-width=".3" stroke-opacity="1.0"  filling="0" d="M12.349067687988281 2.674213409423828 C11.705370903015137 7.0011444091796875 11.142326354980469 10.785696029663086 10.498629570007324 15.11161994934082 C12.336970329284668 13.46734619140625 13.817422866821289 12.143156051635742 15.255027770996094 10.857275009155273 C17.42101287841797 12.551955223083496 17.94222068786621 14.574281692504883 17.08782386779785 17.256938934326172 C16.435558319091797 19.30497169494629 14.21563720703125 21.23958969116211 12.37880802154541 21.360061645507812 C12.486679077148438 19.29690933227539 12.500792503356934 19.283802032470703 14.785235404968262 19.147197723388672 C15.545875549316406 16.36574363708496 15.436492919921875 15.313247680664062 14.121879577636719 13.448694229125977 C12.099554061889648 13.93310546875 11.517858505249023 15.76086139678955 10.614564895629883 17.29071044921875 C9.798981666564941 18.672365188598633 10.299522399902344 20.8197021484375 7.7474188804626465 21.874717712402344 C7.739858150482178 20.490543365478516 7.618881702423096 19.487445831298828 7.7494354248046875 18.51862335205078 C8.285261154174805 14.535467147827148 8.900729179382324 10.562896728515625 9.473352432250977 6.584782123565674 C9.506620407104492 6.350390911102295 9.420425415039062 6.099868297576904 9.376570701599121 5.745507717132568 C8.831168174743652 5.69812536239624 8.307944297790527 5.652254581451416 7.784216403961182 5.606888294219971 C7.737841606140137 5.471294403076172 7.691467761993408 5.33569860458374 7.645092964172363 5.200104236602783 C9.050437927246094 4.445512294769287 10.456287384033203 3.6904163360595703 12.349067687988281 2.674213409423828"></path></svg>