<svg xmlns="http://www.w3.org/2000/svg" viewBox="0.0 0.0 24.0 24.0" height="200px" width="200px"><path fill="none" stroke="black" stroke-width=".3" stroke-opacity="1.0"  filling="0" d="M14.03732681274414 10.819217681884766 L14.03732681274414 10.819217681884766 C14.459855079650879 11.028082847595215 15.084511756896973 11.029186248779297 15.304911613464355 11.44581413269043 C15.559813499450684 11.927661895751953 15.257024765014648 12.534996032714844 15.233081817626953 13.07958698272705 L15.233081817626953 13.07958698272705 C14.82786750793457 12.995417594909668 12.141318321228027 12.437643051147461 11.818778038024902 12.370704650878906 L11.818778038024902 12.370704650878906 C11.901902198791504 12.904388427734375 11.821520805358887 13.491233825683594 12.068151473999023 13.971755981445312 C12.837117195129395 15.469968795776367 16.280542373657227 16.141145706176758 15.260961532592773 18.387168884277344 C14.62890338897705 19.779521942138672 11.409051895141602 22.144969940185547 9.765426635742188 21.52825164794922 C8.722383499145508 21.136882781982422 9.026366233825684 19.774654388427734 9.010096549987793 19.056812286376953 L9.010096549987793 19.056812286376953 C11.137239456176758 19.423904418945312 11.719796180725098 19.909605026245117 13.797762870788574 19.02789878845215 L13.797762870788574 19.02789878845215 C12.839546203613281 18.1660099029541 10.439461708068848 16.5640926361084 10.05302619934082 15.248634338378906 C9.333943367004395 12.800817489624023 12.258501052856445 11.242379188537598 14.03732681274414 10.819217681884766 L14.03732681274414 10.819217681884766"></path></svg>