<svg xmlns="http://www.w3.org/2000/svg" viewBox="0.0 0.0 24.0 24.0" height="200px" width="200px"><path fill="none" stroke="black" stroke-width=".3" stroke-opacity="1.0"  filling="0" d="M14.864056587219238 7.39367151260376 L14.864056587219238 7.39367151260376 C15.75846004486084 9.192522048950195 15.484062194824219 10.081672668457031 14.67292594909668 11.886947631835938 L14.67292594909668 11.886947631835938 C15.324899673461914 13.27225399017334 16.493305206298828 15.659703254699707 14.99290943145752 17.056699752807617 C13.409183502197266 18.531282424926758 9.44853687286377 17.942033767700195 9.100627899169922 15.591733932495117 C8.843545913696289 13.855011940002441 9.367544174194336 13.402434349060059 10.122586250305176 11.960270881652832 L10.122586250305176 11.960270881652832 C9.880538940429688 11.447708129882812 9.544386863708496 10.969776153564453 9.396443367004395 10.42258358001709 C8.869134902954102 8.472251892089844 9.577293395996094 7.516213893890381 10.746651649475098 7.147164344787598 C11.916008949279785 6.778114318847656 13.546566009521484 6.9960527420043945 14.864056587219238 7.39367151260376 L14.864056587219238 7.39367151260376"></path>
<path fill="none" stroke="black" stroke-width=".3" stroke-opacity="1.0"  filling="0" d="M12.5161771774292 7.8262481689453125 L12.5161771774292 7.8262481689453125 C13.031466484069824 7.9068169593811035 13.60595417022705 7.814981460571289 14.062045097351074 8.067955017089844 C15.417984962463379 8.820035934448242 14.532604217529297 11.157061576843262 13.323385238647461 11.540233612060547 C13.251381874084473 11.563050270080566 11.039175033569336 11.541693687438965 10.687965393066406 11.268915176391602 C9.826799392700195 10.600062370300293 9.739873886108398 8.467705726623535 10.892804145812988 8.00464153289795 C11.397963523864746 7.801748752593994 11.975052833557129 7.885712623596191 12.5161771774292 7.8262481689453125 L12.5161771774292 7.8262481689453125"></path>
<path fill="none" stroke="black" stroke-width=".3" stroke-opacity="1.0"  filling="0" d="M12.37904167175293 12.429048538208008 L12.37904167175293 12.429048538208008 C12.994363784790039 12.559396743774414 13.7733154296875 12.382389068603516 14.225008964538574 12.820093154907227 C15.824908256530762 14.370441436767578 14.249130249023438 16.698408126831055 12.435798645019531 16.689163208007812 C11.79147720336914 16.68587875366211 11.02579402923584 16.708202362060547 10.547340393066406 16.276643753051758 C9.948238372802734 15.736262321472168 9.932868957519531 13.36449909210205 10.513324737548828 12.821589469909668 C10.977466583251953 12.387470245361328 11.757136344909668 12.559895515441895 12.37904167175293 12.429048538208008 L12.37904167175293 12.429048538208008"></path></svg>