<svg xmlns="http://www.w3.org/2000/svg" viewBox="0.0 0.0 24.0 24.0" height="200px" width="200px"><path fill="none" stroke="black" stroke-width=".3" stroke-opacity="1.0"  filling="0" d="M10.325335502624512 7.050082683563232 L10.325335502624512 7.050082683563232 C12.224213600158691 7.050082683563232 14.123095512390137 7.050082683563232 16.02197265625 7.050082683563232 L16.02197265625 7.050082683563232 C16.091419219970703 7.127135753631592 16.16086769104004 7.204188823699951 16.230314254760742 7.2812418937683105 L16.230314254760742 7.2812418937683105 C14.833490371704102 8.361917495727539 12.996512413024902 7.964206218719482 11.278081893920898 7.9552083015441895 L11.278081893920898 7.9552083015441895 C10.984661102294922 9.147607803344727 10.691218376159668 10.340001106262207 10.397758483886719 11.532390594482422 L10.397758483886719 11.532390594482422 C11.884363174438477 11.532390594482422 13.370973587036133 11.532390594482422 14.85757827758789 11.532390594482422 L14.85757827758789 11.532390594482422 C14.875656127929688 11.705456733703613 14.8937349319458 11.878522872924805 14.911812782287598 12.051589012145996 L14.911812782287598 12.051589012145996 C13.26424789428711 12.750894546508789 11.893381118774414 12.579500198364258 10.139481544494629 12.914054870605469 L10.139481544494629 12.914054870605469 C9.881072044372559 14.211606979370117 9.622689247131348 15.509163856506348 9.364320755004883 16.806724548339844 L9.364320755004883 16.806724548339844 C10.908468246459961 16.806724548339844 12.452618598937988 16.806724548339844 13.99676513671875 16.806724548339844 L13.99676513671875 16.806724548339844 C14.051441192626953 16.93900489807129 14.10611629486084 17.0712833404541 14.160792350769043 17.203563690185547 L14.160792350769043 17.203563690185547 C12.427927017211914 18.31841468811035 10.033580780029297 17.848222732543945 8.016057968139648 17.841154098510742 L8.016057968139648 17.841154098510742 C8.401002883911133 16.04265594482422 8.785916328430176 14.24415111541748 9.170796394348145 12.445639610290527 C9.55567741394043 10.647128105163574 9.940524101257324 8.84860897064209 10.325335502624512 7.050082683563232 L10.325335502624512 7.050082683563232"></path></svg>