<svg xmlns="http://www.w3.org/2000/svg" viewBox="0.0 0.0 24.0 24.0" height="200px" width="200px"><path fill="none" stroke="black" stroke-width=".3" stroke-opacity="1.0"  filling="0" d="M22.10159683227539 5.593414306640625 C22.083932876586914 5.902551651000977 22.102991104125977 6.168920993804932 22.063013076782227 6.178218364715576 C20.163558959960938 6.617519855499268 19.6350040435791 7.941929817199707 19.4941463470459 9.729814529418945 C19.3244686126709 11.879831314086914 18.998132705688477 14.0275239944458 18.577892303466797 16.14406967163086 C18.215295791625977 17.969608306884766 18.178569793701172 19.491125106811523 20.42760467529297 20.23212432861328 C18.13161849975586 20.23212432861328 15.835166931152344 20.23212432861328 12.976225852966309 20.23212432861328 C16.648221969604492 18.83565902709961 15.643176078796387 15.791234016418457 16.470178604125977 13.195874214172363 C13.829259872436523 13.195874214172363 11.404504776000977 13.195874214172363 8.639001846313477 13.195874214172363 C8.703152656555176 15.536952018737793 6.43180513381958 18.038410186767578 9.64265251159668 20.254905700683594 C7.229519367218018 20.254905700683594 5.065091609954834 20.254905700683594 2.9011287689208984 20.254905700683594 C5.301245212554932 19.352127075195312 5.325882434844971 17.261615753173828 5.623863220214844 15.360766410827637 C6.062234401702881 12.561328887939453 6.448075294494629 9.753522872924805 6.862738132476807 6.903878211975098 C6.005520343780518 6.612870216369629 5.450467586517334 6.424133777618408 4.917728424072266 6.243299961090088 C4.977695941925049 5.442331790924072 8.334977149963379 5.309844017028809 11.54024600982666 5.994130611419678 C8.61575698852539 7.048452377319336 9.442293167114258 9.483899116516113 8.738947868347168 11.634381294250488 C11.406363487243652 11.634381294250488 13.827398300170898 11.634381294250488 16.50876235961914 11.634381294250488 C16.75839614868164 10.15330982208252 17.00802993774414 8.67270278930664 17.276723861694336 7.079598426818848 C16.611034393310547 6.742569446563721 16.03506088256836 6.450631618499756 15.458623886108398 6.158693790435791 C15.459554672241211 6.00156831741333 15.460482597351074 5.843977928161621 15.461877822875977 5.686852931976318 C17.658382415771484 5.487423419952393 19.87347984313965 5.628279209136963 22.10159683227539 5.593414306640625"></path></svg>