<svg xmlns="http://www.w3.org/2000/svg" viewBox="0.0 0.0 24.0 24.0" height="200px" width="200px"><path fill="none" stroke="black" stroke-width=".3" stroke-opacity="1.0"  filling="0" d="M16.07996368408203 8.00145435333252 L16.07996368408203 8.00145435333252 C16.02295684814453 8.020902633666992 14.124831199645996 8.668503761291504 14.117522239685059 8.670997619628906 L14.117522239685059 8.670997619628906 C13.788785934448242 10.519264221191406 13.413107872009277 12.368242263793945 13.137818336486816 14.225234985351562 C13.084150314331055 14.587259292602539 12.818855285644531 16.86823272705078 12.954123497009277 17.138427734375 C13.176619529724121 17.58285903930664 13.780067443847656 17.69152069091797 14.193038940429688 17.968067169189453 L14.193038940429688 17.968067169189453 C12.28761100769043 18.460636138916016 10.820459365844727 18.341053009033203 8.885244369506836 18.004138946533203 L8.885244369506836 18.004138946533203 C9.431326866149902 17.720766067504883 10.127257347106934 17.624664306640625 10.523490905761719 17.154020309448242 C10.908331871032715 16.696908950805664 10.914884567260742 16.02212905883789 11.044906616210938 15.438907623291016 C11.531362533569336 13.25688362121582 11.923008918762207 10.80314826965332 11.93661880493164 8.569520950317383 L11.93661880493164 8.569520950317383 C11.465534210205078 8.425790786743164 10.994449615478516 8.282059669494629 10.523365020751953 8.13832950592041 L10.523365020751953 8.13832950592041 C12.425583839416504 7.283055782318115 14.077312469482422 7.656041622161865 16.07996368408203 8.00145435333252 L16.07996368408203 8.00145435333252"></path></svg>