<svg xmlns="http://www.w3.org/2000/svg" viewBox="0.0 0.0 24.0 24.0" height="200px" width="200px"><path fill="none" stroke="black" stroke-width=".3" stroke-opacity="1.0"  filling="0" d="M17.147974014282227 2.623931884765625 C17.53217124938965 3.1815671920776367 17.740734100341797 3.3489675521850586 17.71603775024414 3.4686174392700195 C16.740175247192383 8.29194450378418 15.863107681274414 13.139970779418945 14.708867073059082 17.920486450195312 C13.896014213562012 21.287155151367188 9.103972434997559 22.915603637695312 6.198889255523682 21.01986312866211 C4.602822780609131 19.978137969970703 4.88822603225708 15.867772102355957 6.636325836181641 14.927037239074707 C6.740609169006348 14.870505332946777 6.9585041999816895 15.024733543395996 7.376730442047119 15.165788650512695 C7.324040412902832 15.747024536132812 7.3427019119262695 16.211355209350586 7.2312846183776855 16.64165687561035 C6.897581577301025 17.925426483154297 6.485392093658447 19.19437599182129 8.290023803710938 19.750911712646484 C10.197290420532227 20.338733673095703 12.413561820983887 19.617542266845703 12.893808364868164 17.985797882080078 C13.56066608428955 15.718484878540039 13.97834300994873 13.377074241638184 14.478349685668945 11.062009811401367 C14.959144592285156 8.834211349487305 15.35377025604248 6.58555793762207 15.908660888671875 4.376421928405762 C16.05794906616211 3.7814645767211914 16.654003143310547 3.298473358154297 17.147974014282227 2.623931884765625"></path></svg>