<svg xmlns="http://www.w3.org/2000/svg" viewBox="0.0 0.0 24.0 24.0" height="200px" width="200px"><path fill="none" stroke="black" stroke-width=".3" stroke-opacity="1.0"  filling="0" d="M8.106101989746094 8.589662551879883 L8.106101989746094 8.589662551879883 C8.450506210327148 8.621110916137695 10.184588432312012 8.779540061950684 10.493338584899902 8.807762145996094 L10.493338584899902 8.807762145996094 C10.970083236694336 10.431966781616211 11.471490859985352 12.045660972595215 11.990707397460938 13.656801223754883 L11.990707397460938 13.656801223754883 C12.753066062927246 12.456205368041992 13.798200607299805 9.741409301757812 15.02877426147461 8.98471736907959 C15.25404167175293 8.846198081970215 17.17702865600586 8.64388656616211 17.495389938354492 8.606232643127441 L17.495389938354492 8.606232643127441 C17.07869529724121 9.06983757019043 16.331607818603516 9.26017951965332 16.082887649536133 9.831759452819824 C15.491490364074707 11.19084358215332 15.728066444396973 13.806514739990234 15.603693962097168 15.287851333618164 L15.603693962097168 15.287851333618164 C15.98428726196289 15.370777130126953 16.364879608154297 15.453703880310059 16.745473861694336 15.536629676818848 L16.745473861694336 15.536629676818848 C15.633342742919922 15.856335639953613 14.433080673217773 15.846441268920898 13.280275344848633 15.745996475219727 L13.280275344848633 15.745996475219727 C13.590855598449707 15.560738563537598 13.901435852050781 15.375479698181152 14.212016105651855 15.190221786499023 L14.212016105651855 15.190221786499023 C14.437438011169434 13.581938743591309 14.662857055664062 11.973651885986328 14.888261795043945 10.365365982055664 L14.888261795043945 10.365365982055664 C14.831684112548828 10.333718299865723 14.775106430053711 10.302070617675781 14.718528747558594 10.27042293548584 L14.718528747558594 10.27042293548584 C13.570062637329102 12.094535827636719 12.719169616699219 14.136373519897461 11.389026641845703 15.833327293395996 L11.389026641845703 15.833327293395996 C11.292441368103027 15.820340156555176 11.195857048034668 15.807352066040039 11.099271774291992 15.794364929199219 L11.099271774291992 15.794364929199219 C10.66223430633545 14.002989768981934 10.22524356842041 12.211601257324219 9.788206100463867 10.42022705078125 L9.788206100463867 10.42022705078125 C9.71274471282959 10.43142318725586 9.637282371520996 10.442619323730469 9.561820983886719 10.453815460205078 L9.561820983886719 10.453815460205078 C9.252179145812988 12.025313377380371 8.9425048828125 13.59679889678955 8.632767677307129 15.168277740478516 L8.632767677307129 15.168277740478516 C8.926628112792969 15.318305015563965 9.220489501953125 15.46833324432373 9.514349937438965 15.61836051940918 L9.514349937438965 15.61836051940918 C8.622453689575195 15.918871879577637 7.631921291351318 15.865200996398926 6.695167541503906 15.774211883544922 L6.695167541503906 15.774211883544922 C6.75850772857666 15.34096622467041 7.832489967346191 15.021441459655762 8.08975601196289 14.232954025268555 C8.590361595153809 12.698663711547852 9.011781692504883 10.905342102050781 9.165926933288574 9.300392150878906 L9.165926933288574 9.300392150878906 C8.80182933807373 9.148348808288574 8.43773078918457 8.996305465698242 8.073633193969727 8.84426212310791 L8.073633193969727 8.84426212310791 C8.084456443786621 8.759395599365234 8.0952787399292 8.674529075622559 8.106101989746094 8.589662551879883 L8.106101989746094 8.589662551879883"></path></svg>