<svg xmlns="http://www.w3.org/2000/svg" viewBox="0.0 0.0 24.0 24.0" height="200px" width="200px"><path fill="none" stroke="black" stroke-width=".3" stroke-opacity="1.0"  filling="0" d="M8.960047721862793 3.6276445388793945 C12.059765815734863 3.6276445388793945 15.024360656738281 3.5110015869140625 17.97452163696289 3.6686439514160156 C19.939559936523438 3.773737907409668 20.881372451782227 4.822376251220703 20.735279083251953 6.646520614624023 C20.512386322021484 9.4263334274292 20.19363784790039 12.247724533081055 17.81918716430664 13.924042701721191 C18.00281524658203 15.219825744628906 18.41799545288086 16.397233963012695 18.26786231994629 17.497262954711914 C18.038616180419922 19.173004150390625 17.441539764404297 20.801973342895508 16.92241859436035 22.42632293701172 C16.877954483032227 22.56490707397461 16.249696731567383 22.516979217529297 15.635296821594238 22.583385467529297 C15.896878242492676 20.300750732421875 16.139982223510742 18.178646087646484 16.382509231567383 16.05942726135254 C13.678339958190918 14.512455940246582 11.102364540100098 15.245233535766602 8.66901683807373 15.203656196594238 C7.283152103424072 17.630651473999023 7.962803363800049 20.773677825927734 6.073985576629639 22.786067962646484 C5.71250581741333 22.662494659423828 5.3504486083984375 22.539499282836914 4.988968372344971 22.41592788696289 C6.300343036651611 16.214183807373047 7.61113977432251 10.012438774108887 8.960047721862793 3.6276445388793945"></path>
<path fill="none" stroke="black" stroke-width=".3" stroke-opacity="1.0"  filling="0" d="M10.426177024841309 5.691428184509277 C13.43812370300293 5.691428184509277 15.965017318725586 5.691428184509277 19.029510498046875 5.691429138183594 C18.622989654541016 7.747705936431885 18.396053314208984 9.403814315795898 17.949111938476562 10.998712539672852 C17.5489444732666 12.427886009216309 16.408493041992188 13.192420959472656 14.94351863861084 13.25074291229248 C13.051814079284668 13.326388359069824 11.154911041259766 13.269220352172852 8.889022827148438 13.269220352172852 C9.443944931030273 10.532715797424316 9.94516658782959 8.061834335327148 10.426177024841309 5.691428184509277"></path></svg>