<svg xmlns="http://www.w3.org/2000/svg" viewBox="0.0 0.0 24.0 24.0" height="200px" width="200px"><path fill="none" stroke="black" stroke-width=".3" stroke-opacity="1.0"  filling="0" d="M16.76451301574707 6.862056732177734 L16.76451301574707 6.862056732177734 C16.853940963745117 6.947661876678467 16.94336700439453 7.033267021179199 17.032794952392578 7.118872165679932 L17.032794952392578 7.118872165679932 C16.120223999023438 8.876033782958984 15.207685470581055 10.633212089538574 14.295182228088379 12.390408515930176 C13.382678031921387 14.147605895996094 12.470209121704102 15.904820442199707 11.557780265808105 17.66205596923828 L11.557780265808105 17.66205596923828 C11.049281120300293 17.66205596923828 10.540782928466797 17.66205596923828 10.032283782958984 17.66205596923828 L10.032283782958984 17.66205596923828 C9.870695114135742 15.906719207763672 9.709128379821777 14.151378631591797 9.547581672668457 12.396038055419922 C9.386035919189453 10.64069652557373 9.224509239196777 8.885353088378906 9.063002586364746 7.130008697509766 L9.063002586364746 7.130008697509766 C9.45302963256836 7.395450115203857 10.01335620880127 7.508840560913086 10.233084678649902 7.926332950592041 C10.234580993652344 7.929175853729248 10.504188537597656 11.294475555419922 10.504434585571289 11.297470092773438 C10.644564628601074 13.001031875610352 10.834053039550781 14.58957290649414 11.221036911010742 16.255468368530273 L11.221036911010742 16.255468368530273 C12.261890411376953 14.258008003234863 13.302591323852539 12.260473251342773 14.34340763092041 10.262993812561035 C15.04379653930664 8.918845176696777 15.402978897094727 7.596697807312012 16.76451301574707 6.862056732177734 L16.76451301574707 6.862056732177734"></path></svg>