<svg xmlns="http://www.w3.org/2000/svg" viewBox="0.0 0.0 24.0 24.0" height="200px" width="200px"><path fill="none" stroke="black" stroke-width=".3" stroke-opacity="1.0"  filling="0" d="M16.511669158935547 7.258313179016113 L16.511669158935547 7.258313179016113 C15.575336456298828 9.094522476196289 14.245620727539062 10.743743896484375 12.820832252502441 12.327198028564453 C11.39604377746582 13.910652160644531 9.87618350982666 15.428339004516602 8.559561729431152 17.001480102539062 L8.559561729431152 17.001480102539062 C10.457283020019531 17.001480102539062 12.355005264282227 17.001480102539062 14.252725601196289 17.001480102539062 L14.252725601196289 17.001480102539062 C14.300060272216797 17.150680541992188 14.347393989562988 17.29987907409668 14.394728660583496 17.449079513549805 L14.394728660583496 17.449079513549805 C13.429847717285156 18.08026885986328 12.092808723449707 18.230436325073242 10.713418006896973 18.22236442565918 C9.334027290344238 18.214290618896484 7.9122843742370605 18.047977447509766 6.777993202209473 18.046207427978516 L6.777993202209473 18.046207427978516 C7.900739669799805 16.273910522460938 9.238819122314453 14.632206916809082 10.642454147338867 13.041155815124512 C12.046088218688965 11.450103759765625 13.515276908874512 9.909704208374023 14.90024185180664 8.340014457702637 L14.90024185180664 8.340014457702637 C13.118673324584961 8.340014457702637 11.337105751037598 8.340014457702637 9.555538177490234 8.340014457702637 L9.555538177490234 8.340014457702637 C9.49980640411377 8.183942794799805 9.444073677062988 8.027872085571289 9.388341903686523 7.871800899505615 L9.388341903686523 7.871800899505615 C11.248799324035645 6.656367301940918 14.327180862426758 7.254012107849121 16.511669158935547 7.258313179016113 L16.511669158935547 7.258313179016113"></path></svg>