<svg xmlns="http://www.w3.org/2000/svg" viewBox="0.0 0.0 24.0 24.0" height="200px" width="200px"><path fill="none" stroke="black" stroke-width=".3" stroke-opacity="1.0"  filling="0" d="M12.377046585083008 6.774310111999512 L12.377046585083008 6.774310111999512 C12.26968002319336 8.865945816040039 11.80064582824707 10.85890007019043 11.518195152282715 12.929123878479004 L11.518195152282715 12.929123878479004 C12.417917251586914 12.225517272949219 13.317651748657227 11.521927833557129 14.217401504516602 10.818357467651367 L14.217401504516602 10.818357467651367 C14.992215156555176 11.958113670349121 15.567480087280273 12.330825805664062 15.340838432312012 13.824551582336426 C15.096853256225586 15.432586669921875 12.377002716064453 18.536191940307617 10.517355918884277 17.28744888305664 C9.697200775146484 16.736719131469727 9.734343528747559 16.12672996520996 9.797605514526367 15.265279769897461 C9.964613914489746 12.991090774536133 10.465110778808594 10.701896667480469 10.768719673156738 8.438911437988281 L10.768719673156738 8.438911437988281 C10.452614784240723 8.402068138122559 10.13650894165039 8.365224838256836 9.820404052734375 8.328381538391113 L9.820404052734375 8.328381538391113 C9.786831855773926 8.250557899475098 9.75325870513916 8.172733306884766 9.719686508178711 8.09490966796875 L9.719686508178711 8.09490966796875 C10.605456352233887 7.65467643737793 11.49124526977539 7.214480876922607 12.377046585083008 6.774310111999512 L12.377046585083008 6.774310111999512"></path>
<path fill="none" stroke="black" stroke-width=".3" stroke-opacity="1.0"  filling="0" d="M13.30891227722168 12.298260688781738 L13.30891227722168 12.298260688781738 C13.495162010192871 12.936531066894531 13.856439590454102 13.548276901245117 13.86766242980957 14.213071823120117 C13.899646759033203 16.10759925842285 11.105921745300293 17.549436569213867 11.2443208694458 14.86355972290039 C11.27238655090332 14.318902015686035 11.63478946685791 13.825374603271484 11.97673225402832 13.400504112243652 C12.338093757629395 12.951504707336426 12.864851951599121 12.665675163269043 13.30891227722168 12.298260688781738 L13.30891227722168 12.298260688781738"></path></svg>