<svg xmlns="http://www.w3.org/2000/svg" viewBox="0.0 0.0 24.0 24.0" height="200px" width="200px"><path fill="none" stroke="black" stroke-width=".3" stroke-opacity="1.0"  filling="0" d="M16.454471588134766 8.42280387878418 C18.54277992248535 8.164708137512207 20.131710052490234 9.1231107711792 20.670602798461914 11.049163818359375 C21.206972122192383 12.962606430053711 21.197723388671875 15.103879928588867 18.781539916992188 15.943743705749512 C16.429248809814453 16.760908126831055 13.9945707321167 17.342676162719727 11.348033905029297 18.099308013916016 C11.109273910522461 23.404993057250977 11.109273910522461 23.404993057250977 20.091358184814453 24.20450210571289 C17.50787353515625 25.311710357666016 14.99500846862793 26.65515899658203 12.319887161254883 27.450462341308594 C10.236623764038086 28.0700626373291 8.184463500976562 26.402942657470703 7.271459102630615 23.999370574951172 C4.821647644042969 17.55789566040039 9.705297470092773 9.257623672485352 16.454471588134766 8.42280387878418"></path>
<path fill="none" stroke="black" stroke-width=".3" stroke-opacity="1.0"  filling="0" d="M14.521692276000977 10.951642036437988 C14.690673828125 10.804518699645996 16.326684951782227 12.339644432067871 18.014820098876953 13.67384147644043 C15.436378479003906 14.785252571105957 13.784395217895508 15.496488571166992 12.133252143859863 16.20772361755371 C11.77006721496582 15.787371635437012 11.406883239746094 15.367019653320312 11.043699264526367 14.94666862487793 C12.166879653930664 13.573799133300781 13.203468322753906 12.100884437561035 14.521692276000977 10.951642036437988"></path></svg>