<svg xmlns="http://www.w3.org/2000/svg" viewBox="0.0 0.0 24.0 24.0" height="200px" width="200px"><path fill="none" stroke="black" stroke-width=".3" stroke-opacity="1.0"  filling="0" d="M15.010507583618164 7.073337554931641 L15.010507583618164 7.073337554931641 C14.490288734436035 7.66489315032959 13.543595314025879 7.798534393310547 13.078445434570312 8.43430233001709 C12.762369155883789 8.866315841674805 12.86864948272705 9.48413372039795 12.763751029968262 10.009049415588379 L12.763751029968262 10.009049415588379 C13.222415924072266 10.072734832763672 13.68108081817627 10.136421203613281 14.139745712280273 10.200106620788574 L14.139745712280273 10.200106620788574 C13.70968246459961 10.723267555236816 13.055904388427734 11.088091850280762 12.396946907043457 11.244382858276367 L12.396946907043457 11.244382858276367 C11.93264102935791 13.417988777160645 11.761614799499512 15.924667358398438 10.581743240356445 17.82517433166504 L10.581743240356445 17.82517433166504 C10.431406021118164 17.759681701660156 10.2810697555542 17.69418716430664 10.130732536315918 17.628694534301758 L10.130732536315918 17.628694534301758 C10.550292015075684 15.507697105407715 10.96999740600586 13.386727333068848 11.389669418334961 11.265752792358398 L11.389669418334961 11.265752792358398 C11.142155647277832 11.060661315917969 10.89464282989502 10.855569839477539 10.64712905883789 10.65047836303711 L10.64712905883789 10.65047836303711 C10.867973327636719 9.957919120788574 11.563187599182129 9.518600463867188 11.963479042053223 8.911825180053711 C12.217520713806152 8.526741027832031 12.222441673278809 8.000298500061035 12.512031555175781 7.641181468963623 C13.16954231262207 6.825810432434082 14.124890327453613 7.082120895385742 15.010507583618164 7.073337554931641 L15.010507583618164 7.073337554931641"></path></svg>