<svg xmlns="http://www.w3.org/2000/svg" viewBox="0.0 0.0 24.0 24.0" height="200px" width="200px"><path fill="none" stroke="black" stroke-width=".3" stroke-opacity="1.0"  filling="0" d="M11.565677642822266 7.3830976486206055 L11.565677642822266 7.3830976486206055 C11.493424415588379 7.753893852233887 11.071770668029785 9.918062210083008 11.002876281738281 10.271717071533203 L11.002876281738281 10.271717071533203 C11.927163124084473 10.06643009185791 13.790725708007812 9.383099555969238 14.622856140136719 10.261104583740234 C15.194208145141602 10.863954544067383 14.778484344482422 12.46057415008545 14.681703567504883 13.03844928741455 C14.384119987487793 14.815319061279297 14.459366798400879 17.10906982421875 12.872342109680176 18.092082977294922 L12.872342109680176 18.092082977294922 C13.12105655670166 16.374235153198242 14.754337310791016 12.369658470153809 13.418098449707031 10.865069389343262 C12.840094566345215 10.21424388885498 11.588539123535156 10.938363075256348 11.210309028625488 11.304054260253906 C9.793649673461914 12.673748970031738 9.726492881774902 16.089458465576172 9.354028701782227 17.881755828857422 L9.354028701782227 17.881755828857422 C9.063408851623535 17.82290267944336 8.772789001464844 17.76405143737793 8.482169151306152 17.705198287963867 L8.482169151306152 17.705198287963867 C8.791877746582031 16.231882095336914 8.967334747314453 14.1239595413208 9.36307430267334 12.148064613342285 C9.758813858032227 10.172168731689453 10.374835968017578 8.328302383422852 11.565677642822266 7.3830976486206055 L11.565677642822266 7.3830976486206055"></path></svg>