<svg xmlns="http://www.w3.org/2000/svg" viewBox="0.0 0.0 24.0 24.0" height="200px" width="200px"><path fill="none" stroke="black" stroke-width=".3" stroke-opacity="1.0"  filling="0" d="M11.442702293395996 8.381635665893555 L11.442702293395996 8.381635665893555 C11.361825942993164 9.359879493713379 11.280963897705078 10.338125228881836 11.200115203857422 11.31637191772461 L11.200115203857422 11.31637191772461 C11.651847839355469 10.909850120544434 13.328286170959473 9.401082992553711 13.824140548706055 8.954780578613281 L13.824140548706055 8.954780578613281 C14.220935821533203 9.389131546020508 14.799257278442383 9.710323333740234 15.0145263671875 10.257832527160645 C15.635955810546875 11.838361740112305 15.104571342468262 13.071447372436523 14.129671096801758 14.002096176147461 C13.15477180480957 14.932744979858398 11.736356735229492 15.560957908630371 10.583725929260254 15.931740760803223 L10.583725929260254 15.931740760803223 C10.465235710144043 16.771167755126953 10.346756935119629 17.610593795776367 10.228286743164062 18.450023651123047 L10.228286743164062 18.450023651123047 C10.67712688446045 18.61214256286621 11.125967025756836 18.774263381958008 11.574807167053223 18.936382293701172 L11.574807167053223 18.936382293701172 C11.561379432678223 19.01813316345215 11.547951698303223 19.099882125854492 11.534523963928223 19.18163299560547 L11.534523963928223 19.18163299560547 C10.228879928588867 19.18163299560547 8.923234939575195 19.18163299560547 7.617591381072998 19.18163299560547 L7.617591381072998 19.18163299560547 C8.714508056640625 18.227313995361328 9.203725814819336 16.73395538330078 9.47100830078125 15.13454818725586 C9.738290786743164 13.535140991210938 9.783637046813965 11.829686164855957 9.992809295654297 10.451176643371582 L9.992809295654297 10.451176643371582 C9.58089542388916 10.64419937133789 9.16898250579834 10.8372220993042 8.757068634033203 11.030244827270508 L8.757068634033203 11.030244827270508 C9.428284645080566 9.967074394226074 10.409061431884766 9.097491264343262 11.442702293395996 8.381635665893555 L11.442702293395996 8.381635665893555"></path>
<path fill="none" stroke="black" stroke-width=".3" stroke-opacity="1.0"  filling="0" d="M13.053430557250977 10.429553985595703 L13.053430557250977 10.429553985595703 C13.854040145874023 12.596818923950195 13.863229751586914 15.162277221679688 10.908062934875488 14.439493179321289 L10.908062934875488 14.439493179321289 C11.116230964660645 12.405119895935059 11.521278381347656 11.770366668701172 13.053430557250977 10.429553985595703 L13.053430557250977 10.429553985595703"></path></svg>