<svg xmlns="http://www.w3.org/2000/svg" viewBox="0.0 0.0 24.0 24.0" height="200px" width="200px"><path fill="none" stroke="black" stroke-width=".3" stroke-opacity="1.0"  filling="0" d="M14.765107154846191 5.370754718780518 C14.999746322631836 5.517066955566406 15.233713150024414 5.6640543937683105 15.468351364135742 5.810366153717041 C15.198651313781738 7.032111167907715 14.928950309753418 8.253181457519531 14.686893463134766 9.347493171691895 C15.764348983764648 9.876106262207031 16.781795501708984 10.375052452087402 17.798564910888672 10.874673843383789 C17.733837127685547 11.138980865478516 17.669784545898438 11.402612686157227 17.605056762695312 11.666919708251953 C16.475683212280273 11.923810005187988 15.345637321472168 12.180025100708008 13.86093521118164 12.517826080322266 C13.538642883300781 15.278213500976562 13.20960807800293 18.097261428833008 12.837420463562012 21.289844512939453 C14.492034912109375 21.05655288696289 15.616686820983887 20.897430419921875 17.045427322387695 20.69582748413086 C15.758279800415039 23.133922576904297 13.638432502746582 23.946399688720703 11.565107345581055 24.486473083496094 C9.73316478729248 24.96316909790039 9.253771781921387 23.3321533203125 9.348166465759277 21.95330810546875 C9.506616592407227 19.625789642333984 10.066919326782227 17.325916290283203 10.232786178588867 14.997724533081055 C10.312347412109375 13.876443862915039 9.878129005432129 12.71807861328125 9.62393569946289 11.27855110168457 C11.149093627929688 9.525495529174805 12.957437515258789 7.448124885559082 14.765107154846191 5.370754718780518"></path></svg>