<svg xmlns="http://www.w3.org/2000/svg" viewBox="0.0 0.0 24.0 24.0" height="200px" width="200px"><path fill="none" stroke="black" stroke-width=".3" stroke-opacity="1.0"  filling="0" d="M13.55537223815918 8.271049499511719 L13.55537223815918 8.271049499511719 C13.687231063842773 8.353476524353027 13.81908893585205 8.435904502868652 13.950947761535645 8.518331527709961 L13.950947761535645 8.518331527709961 C13.866310119628906 8.90160846710205 13.599347114562988 10.10998821258545 13.511377334594727 10.507965087890625 L13.511377334594727 10.507965087890625 C14.094816207885742 10.7943115234375 14.678254127502441 11.080657005310059 15.261693000793457 11.367003440856934 L15.261693000793457 11.367003440856934 C15.225410461425781 11.515549659729004 15.189126968383789 11.664095878601074 15.152844429016113 11.812642097473145 L15.152844429016113 11.812642097473145 C14.242330551147461 12.019538879394531 13.989234924316406 12.077061653137207 13.046775817871094 12.291276931762695 L13.046775817871094 12.291276931762695 C12.85477066040039 13.936018943786621 12.662858009338379 15.58077335357666 12.471049308776855 17.225536346435547 L12.471049308776855 17.225536346435547 C13.260053634643555 17.11418342590332 14.049055099487305 17.0028076171875 14.838052749633789 16.891403198242188 L14.838052749633789 16.891403198242188 C14.37955093383789 17.380229949951172 14.01374626159668 17.97662925720215 13.462547302246094 18.357885360717773 C12.261899948120117 19.188352584838867 10.48960018157959 19.506914138793945 10.508343696594238 17.598735809326172 C10.529430389404297 15.451972961425781 11.127372741699219 13.731237411499023 10.663463592529297 11.594184875488281 L10.663463592529297 11.594184875488281 C11.627381324768066 10.486427307128906 12.591390609741211 9.378753662109375 13.55537223815918 8.271049499511719 L13.55537223815918 8.271049499511719"></path></svg>