<svg xmlns="http://www.w3.org/2000/svg" viewBox="0.0 0.0 24.0 24.0" height="200px" width="200px"><path fill="none" stroke="black" stroke-width=".3" stroke-opacity="1.0"  filling="0" d="M16.510520935058594 9.263532638549805 L16.510520935058594 9.263532638549805 C15.53243350982666 10.588071823120117 13.199079513549805 12.727102279663086 12.910557746887207 14.388301849365234 C12.643224716186523 15.927501678466797 13.980650901794434 18.227636337280273 14.43759536743164 19.64645004272461 L14.43759536743164 19.64645004272461 C13.997185707092285 19.683120727539062 13.503464698791504 19.969676971435547 13.11636734008789 19.75646209716797 C12.440370559692383 19.38412094116211 11.950742721557617 16.614660263061523 11.744620323181152 15.958274841308594 L11.744620323181152 15.958274841308594 C9.972902297973633 17.649826049804688 9.30685806274414 19.222013473510742 6.897534370422363 20.063533782958984 L6.897534370422363 20.063533782958984 C8.300747871398926 18.188369750976562 9.703974723815918 16.313215255737305 11.10717487335205 14.438039779663086 L11.10717487335205 14.438039779663086 C10.594820022583008 12.80988883972168 10.082606315612793 11.181693077087402 9.570435523986816 9.553483963012695 L9.570435523986816 9.553483963012695 C11.591495513916016 9.449371337890625 11.483208656311035 11.126396179199219 12.141183853149414 12.808516502380371 L12.141183853149414 12.808516502380371 C13.74336051940918 11.195558547973633 14.3546142578125 10.139115333557129 16.510520935058594 9.263532638549805 L16.510520935058594 9.263532638549805"></path></svg>