<svg xmlns="http://www.w3.org/2000/svg" viewBox="0.0 0.0 24.0 24.0" height="200px" width="200px"><path fill="none" stroke="black" stroke-width=".3" stroke-opacity="1.0"  filling="0" d="M16.3892765045166 2.4620065689086914 C18.97104263305664 2.675461769104004 19.96478843688965 3.83547306060791 19.537328720092773 6.458942413330078 C18.9523868560791 10.048173904418945 18.27470588684082 13.633015632629395 17.4022274017334 17.16188621520996 C16.52865219116211 20.696243286132812 14.949414253234863 21.612071990966797 10.287968635559082 21.602741241455078 C10.00427532196045 21.59012222290039 9.360068321228027 21.612070083618164 8.730677604675293 21.524822235107422 C6.409008502960205 21.203819274902344 5.405384540557861 20.128311157226562 5.791689395904541 17.816518783569336 C6.435895919799805 13.961703300476074 7.290266036987305 10.139811515808105 8.145732879638672 6.3245038986206055 C8.693912506103516 3.8804683685302734 10.387288093566895 2.6496706008911133 12.837907791137695 2.4812116622924805 C14.017125129699707 2.3999996185302734 15.213351249694824 2.3648815155029297 16.3892765045166 2.4620065689086914"></path>
<path fill="none" stroke="black" stroke-width=".3" stroke-opacity="1.0"  filling="0" d="M14.210277557373047 4.129591464996338 C15.277005195617676 4.141663074493408 16.342086791992188 4.364447116851807 17.977296829223633 4.558696746826172 C17.660680770874023 6.661423206329346 17.457651138305664 8.345470428466797 17.145973205566406 10.0092134475708 C16.710830688476562 12.330333709716797 16.255935668945312 14.652002334594727 15.694587707519531 16.945138931274414 C15.124459266662598 19.276134490966797 14.476959228515625 19.73651695251465 12.10261344909668 19.875347137451172 C7.584933280944824 20.139286041259766 7.032912731170654 19.53513526916504 7.9130730628967285 15.234204292297363 C8.404733657836914 12.83077335357666 8.919988632202148 10.432831764221191 9.434696197509766 8.034340858459473 C10.154078483581543 4.68161153793335 10.839988708496094 4.091728687286377 14.210277557373047 4.129591464996338"></path></svg>