<svg xmlns="http://www.w3.org/2000/svg" viewBox="0.0 0.0 24.0 24.0" height="200px" width="200px"><path fill="none" stroke="black" stroke-width=".3" stroke-opacity="1.0"  filling="0" d="M12.574458122253418 7.697685718536377 L12.574458122253418 7.697685718536377 C15.608997344970703 7.591919898986816 16.75727081298828 9.934996604919434 16.535411834716797 12.452425956726074 C16.313552856445312 14.969855308532715 14.721559524536133 17.661638259887695 12.275564193725586 18.253284454345703 C9.733192443847656 18.868242263793945 8.2990140914917 15.981678009033203 8.465968132019043 13.815553665161133 C8.576234817504883 12.384915351867676 8.949091911315918 11.11339282989502 9.621515274047852 10.070557594299316 C10.293938636779785 9.027722358703613 11.265928268432617 8.213574409484863 12.574458122253418 7.697685718536377 L12.574458122253418 7.697685718536377"></path>
<path fill="none" stroke="black" stroke-width=".3" stroke-opacity="1.0"  filling="0" d="M13.191497802734375 8.394670486450195 L13.191497802734375 8.394670486450195 C14.614744186401367 9.314282417297363 14.432522773742676 10.008674621582031 14.544352531433105 11.718073844909668 L14.544352531433105 11.718073844909668 C14.595364570617676 11.731887817382812 14.646376609802246 11.74570083618164 14.697388648986816 11.759514808654785 L14.697388648986816 11.759514808654785 C14.624616622924805 12.10482120513916 14.149807929992676 14.365848541259766 14.070524215698242 14.709928512573242 C13.808978080749512 15.845005989074707 12.827791213989258 18.83350372314453 11.097566604614258 16.917804718017578 C10.63597297668457 16.40673065185547 10.573923110961914 14.727421760559082 10.562015533447266 14.297856330871582 C10.502555847167969 12.15283203125 10.802475929260254 8.958932876586914 13.191497802734375 8.394670486450195 L13.191497802734375 8.394670486450195"></path></svg>