<svg xmlns="http://www.w3.org/2000/svg" viewBox="0.0 0.0 24.0 24.0" height="200px" width="200px"><path fill="none" stroke="black" stroke-width=".3" stroke-opacity="1.0"  filling="0" d="M14.203168869018555 7.573873519897461 L14.203168869018555 7.573873519897461 C16.19871711730957 9.316154479980469 15.26294231414795 10.325494766235352 13.399468421936035 11.735177993774414 L13.399468421936035 11.735177993774414 C14.304750442504883 12.441213607788086 15.486328125 13.029441833496094 15.653096199035645 14.355697631835938 C15.872343063354492 16.099302291870117 14.47804069519043 17.271759033203125 12.78759479522705 17.744293212890625 C11.097148895263672 18.216827392578125 9.11056137084961 17.989437103271484 8.14523696899414 16.933345794677734 L8.14523696899414 16.933345794677734 C8.376200675964355 16.641149520874023 8.607163429260254 16.348955154418945 8.838127136230469 16.056758880615234 L8.838127136230469 16.056758880615234 C9.178468704223633 16.180326461791992 11.176534652709961 16.937585830688477 11.599798202514648 16.9719295501709 C12.922906875610352 17.079288482666016 14.328290939331055 16.1467342376709 13.720684051513672 14.624394416809082 C13.25699520111084 13.462636947631836 11.313091278076172 13.004749298095703 10.322516441345215 12.594283103942871 L10.322516441345215 12.594283103942871 C11.107151985168457 11.991056442260742 12.207894325256348 11.824679374694824 12.89587688446045 11.113191604614258 C14.236239433288574 9.727033615112305 13.648061752319336 8.940969467163086 11.961248397827148 8.706376075744629 C11.560309410095215 8.650615692138672 9.78725528717041 9.635662078857422 9.559380531311035 9.752803802490234 L9.559380531311035 9.752803802490234 C10.419822692871094 7.563321113586426 12.05012321472168 7.1270623207092285 14.203168869018555 7.573873519897461 L14.203168869018555 7.573873519897461"></path></svg>