<svg xmlns="http://www.w3.org/2000/svg" viewBox="0.0 0.0 24.0 24.0" height="200px" width="200px"><path fill="none" stroke="black" stroke-width=".3" stroke-opacity="1.0"  filling="0" d="M11.449742317199707 6.979339122772217 L11.449742317199707 6.979339122772217 C12.63970947265625 6.995724678039551 14.23481273651123 6.91862678527832 15.148682594299316 7.894795894622803 C16.556007385253906 9.39805793762207 15.595184326171875 11.079341888427734 14.250774383544922 12.062603950500488 L14.250774383544922 12.062603950500488 C14.557588577270508 12.763043403625488 15.454758644104004 13.075333595275879 15.792458534240723 13.7614164352417 C16.035507202148438 14.255202293395996 15.992012977600098 14.869195938110352 15.888378143310547 15.409711837768555 C15.482599258422852 17.526081085205078 13.16313362121582 18.076810836791992 11.214985847473145 17.601743698120117 C9.266838073730469 17.126676559448242 7.690007209777832 15.625813484191895 8.769498825073242 13.638998031616211 C9.119452476501465 12.994905471801758 9.8267822265625 12.623398780822754 10.355423927307129 12.115599632263184 L10.355423927307129 12.115599632263184 C9.876291275024414 11.625581741333008 9.220647811889648 11.260449409484863 8.9180269241333 10.645545959472656 C7.87139892578125 8.51887321472168 9.92226791381836 7.475405693054199 11.449742317199707 6.979339122772217 L11.449742317199707 6.979339122772217"></path>
<path fill="none" stroke="black" stroke-width=".3" stroke-opacity="1.0"  filling="0" d="M12.24312973022461 8.46632194519043 L12.24312973022461 8.46632194519043 C12.71960163116455 8.595661163330078 13.280632019042969 8.554076194763184 13.67254638671875 8.854338645935059 C15.118285179138184 9.961982727050781 13.483854293823242 11.524520874023438 12.271332740783691 11.550310134887695 C11.024744033813477 11.576824188232422 9.433152198791504 9.991974830627441 10.827234268188477 8.871268272399902 C11.209823608398438 8.563703536987305 11.771164894104004 8.601304054260254 12.24312973022461 8.46632194519043 L12.24312973022461 8.46632194519043"></path>
<path fill="none" stroke="black" stroke-width=".3" stroke-opacity="1.0"  filling="0" d="M10.69261360168457 13.418492317199707 L10.69261360168457 13.418492317199707 C11.235498428344727 13.269460678100586 11.758345603942871 12.96414852142334 12.321268081665039 12.971397399902344 C13.584556579589844 12.987666130065918 15.058465957641602 14.03947925567627 14.118440628051758 15.392355918884277 C13.874760627746582 15.743058204650879 12.73527717590332 16.282312393188477 12.398399353027344 16.458782196044922 L12.398399353027344 16.458782196044922 C10.632244110107422 15.977761268615723 9.549921989440918 15.18924331665039 10.69261360168457 13.418492317199707 L10.69261360168457 13.418492317199707"></path></svg>