<svg xmlns="http://www.w3.org/2000/svg" viewBox="0.0 0.0 24.0 24.0" height="200px" width="200px"><path fill="none" stroke="black" stroke-width=".3" stroke-opacity="1.0"  filling="0" d="M12.022168159484863 3.5100603103637695 C14.882709503173828 3.4356184005737305 16.956684112548828 4.585636615753174 17.736133575439453 7.211357593536377 C19.018068313598633 11.528443336486816 18.929943084716797 15.88548755645752 16.74868392944336 19.932170867919922 C15.076476097106934 23.034648895263672 9.936697959899902 23.6805419921875 7.496534824371338 21.127620697021484 C6.893337249755859 20.496509552001953 6.8807477951049805 19.30105972290039 6.4357380867004395 17.833566665649414 C12.257535934448242 21.853981018066406 14.984519958496094 20.55945587158203 15.856475830078125 13.719006538391113 C15.231382369995117 14.205615997314453 14.821404457092285 14.55921459197998 14.377490043640137 14.865193367004395 C12.63631534576416 16.065021514892578 9.916447639465332 15.9856538772583 8.221250534057617 14.701530456542969 C6.362391948699951 13.2931547164917 5.558309078216553 10.128824234008789 6.376075744628906 7.439609050750732 C7.094221591949463 5.077720642089844 9.243185043334961 3.58231258392334 12.022168159484863 3.5100603103637695"></path>
<path fill="none" stroke="black" stroke-width=".3" stroke-opacity="1.0"  filling="0" d="M12.167767524719238 6.276453495025635 C14.039762496948242 6.2945170402526855 15.422961235046387 7.639945983886719 15.527508735656738 9.543688774108887 C15.639719009399414 11.595221519470215 14.088479995727539 13.283302307128906 12.055009841918945 13.32161808013916 C10.093793869018555 13.35883903503418 8.760406494140625 11.909958839416504 8.783395767211914 9.76701545715332 C8.805837631225586 7.667314052581787 10.172613143920898 6.257296085357666 12.167767524719238 6.276453495025635"></path></svg>