<svg xmlns="http://www.w3.org/2000/svg" viewBox="0.0 0.0 24.0 24.0" height="200px" width="200px"><path fill="none" stroke="black" stroke-width=".3" stroke-opacity="1.0"  filling="0" d="M15.93609619140625 2.928866386413574 C17.826892852783203 2.928866386413574 19.556400299072266 2.928866386413574 21.512847900390625 2.928866386413574 C21.512847900390625 7.490890026092529 21.679798126220703 12.073853492736816 21.449462890625 16.637008666992188 C21.313636779785156 19.330303192138672 19.430194854736328 21.075092315673828 16.584095001220703 21.282791137695312 C13.40578842163086 21.51482582092285 10.169757843017578 21.5482177734375 7.00503396987915 21.219970703125 C3.102893829345703 20.81419563293457 1.9195184707641602 18.60760498046875 2.5182809829711914 13.423616409301758 C4.152709007263184 13.423616409301758 5.632635593414307 13.423616409301758 6.955231666564941 13.423616409301758 C7.700005531311035 14.554925918579102 8.183881759643555 16.188220977783203 9.093343734741211 16.475717544555664 C10.716453552246094 16.98845672607422 12.60385513305664 16.8039608001709 14.366186141967773 16.69020652770996 C15.654260635375977 16.60701560974121 15.914026260375977 15.509096145629883 15.915722846984863 14.385708808898926 C15.920249938964844 11.6561918258667 15.92987060546875 8.927240371704102 15.935531616210938 6.197722434997559 C15.93779468536377 5.172809600830078 15.93609619140625 4.148462772369385 15.93609619140625 2.928866386413574"></path></svg>