<svg xmlns="http://www.w3.org/2000/svg" viewBox="0.0 0.0 24.0 24.0" height="200px" width="200px"><path fill="none" stroke="black" stroke-width=".3" stroke-opacity="1.0"  filling="0" d="M11.764893531799316 7.563843250274658 L11.794459342956543 7.596956253051758 C12.408105850219727 7.566740036010742 13.054204940795898 7.307085037231445 13.635397911071777 7.506307601928711 C14.946645736694336 7.955780029296875 15.477545738220215 9.179506301879883 15.471197128295898 10.474618911743164 C15.464847564697266 11.769731521606445 14.921250343322754 13.13623046875 14.083503723144531 13.871248245239258 C13.561735153198242 14.329034805297852 12.847139358520508 14.502631187438965 12.228957176208496 14.818323135375977 L12.228957176208496 14.818323135375977 C12.820688247680664 14.082954406738281 13.650994300842285 12.82003402709961 14.0722074508667 11.513284683227539 C14.493420600891113 10.206535339355469 14.50554084777832 8.85595703125 13.46090030670166 7.945270538330078 C13.024116516113281 7.56449556350708 12.330228805541992 7.690985679626465 11.764893531799316 7.563843250274658 L11.764893531799316 7.563843250274658"></path>
<path fill="none" stroke="black" stroke-width=".3" stroke-opacity="1.0"  filling="0" d="M11.764657020568848 7.564079284667969 L11.764657020568848 7.564079284667969 C10.832447052001953 8.64441204071045 10.017483711242676 10.14802360534668 9.855472564697266 11.554028511047363 C9.693461418151855 12.960034370422363 10.184402465820312 14.268434524536133 11.863997459411621 14.958344459533691 L11.863997459411621 14.958344459533691 C9.299768447875977 15.597681045532227 8.146915435791016 12.729511260986328 8.724355697631836 10.517574310302734 C9.18687915802002 8.745835304260254 10.175691604614258 8.094873428344727 11.794459342956543 7.596956253051758 L11.764657020568848 7.564079284667969"></path>
<path fill="none" stroke="black" stroke-width=".3" stroke-opacity="1.0"  filling="0" d="M10.466367721557617 15.72989273071289 L10.466367721557617 15.72989273071289 C12.4815034866333 16.239221572875977 13.603128433227539 17.58934211730957 15.6682767868042 16.94019317626953 L15.6682767868042 16.94019317626953 C15.221390724182129 17.32801628112793 14.894083976745605 17.932689666748047 14.327619552612305 18.10366439819336 C12.487905502319336 18.658939361572266 11.642141342163086 16.321781158447266 9.99160099029541 16.354734420776367 C9.451414108276367 16.36551856994629 8.556449890136719 17.075950622558594 8.054515838623047 17.44683265686035 L8.054515838623047 17.44683265686035 C8.660042762756348 16.667591094970703 9.524816513061523 16.025463104248047 10.466367721557617 15.72989273071289 L10.466367721557617 15.72989273071289"></path></svg>