<svg xmlns="http://www.w3.org/2000/svg" viewBox="0.0 0.0 24.0 24.0" height="200px" width="200px"><path fill="none" stroke="black" stroke-width=".3" stroke-opacity="1.0"  filling="0" d="M13.180096626281738 3.2599077224731445 C14.032620429992676 5.774656772613525 14.869392395019531 8.215572357177734 15.687461853027344 10.662886619567871 C16.438095092773438 12.90937614440918 17.163135528564453 15.164725303649902 17.910816192626953 17.41219711303711 C18.455211639404297 19.048336029052734 18.934635162353516 20.75092315673828 21.20720863342285 21.087600708007812 C18.686059951782227 21.65463638305664 16.277631759643555 21.489742279052734 13.733842849731445 21.097444534301758 C14.197513580322266 20.78734588623047 14.661676406860352 20.477249145507812 15.337986946105957 20.02440643310547 C14.841829299926758 18.31985092163086 14.324014663696289 16.541461944580078 13.800785064697266 14.742400169372559 C11.665044784545898 14.742400169372559 9.955567359924316 14.742400169372559 8.031481742858887 14.742400169372559 C7.484133720397949 16.4863338470459 6.938262939453125 18.2258358001709 6.354490280151367 20.084949493408203 C7.262634754180908 20.422611236572266 7.907934665679932 20.662322998046875 8.605409622192383 20.921722412109375 C7.226210594177246 21.66546630859375 5.264224052429199 21.758987426757812 2.006716728210449 21.116641998291016 C5.243551731109619 20.503829956054688 5.536421298980713 18.09096908569336 6.320034503936768 16.07631492614746 C7.768636226654053 12.35415267944336 9.133068084716797 8.599011421203613 10.63286018371582 4.589392185211182 C11.208757400512695 4.288646697998047 12.073095321655273 3.837773323059082 13.180096626281738 3.2599077224731445"></path>
<path fill="none" stroke="black" stroke-width=".3" stroke-opacity="1.0"  filling="0" d="M11.409090042114258 6.873781681060791 C12.060297012329102 9.004107475280762 12.711503028869629 11.134432792663574 13.434080123901367 13.499547004699707 C11.7487211227417 13.499547004699707 10.269601821899414 13.499547004699707 8.50154972076416 13.499547004699707 C9.288609504699707 11.274223327636719 10.056962966918945 9.10107421875 10.825318336486816 6.928418159484863 C11.02023696899414 6.910206317901611 11.2146635055542 6.891993522644043 11.409090042114258 6.873781681060791"></path></svg>