<svg xmlns="http://www.w3.org/2000/svg" viewBox="0.0 0.0 24.0 24.0" height="200px" width="200px"><path fill="none" stroke="black" stroke-width=".3" stroke-opacity="1.0"  filling="0" d="M18.447072982788086 4.217761993408203 C19.261127471923828 4.217761993408203 20.59979248046875 4.217761993408203 21.59183120727539 4.217761993408203 C19.75247573852539 7.119178295135498 17.83201026916504 10.147808074951172 15.912126541137695 13.176438331604004 C15.825177192687988 13.130338668823242 15.738227844238281 13.083654403686523 15.651278495788574 13.037553787231445 C16.630477905273438 10.97586727142334 17.70187759399414 8.950944900512695 18.536937713623047 6.8326544761657715 C18.81821060180664 6.1195549964904785 18.498424530029297 5.170116901397705 18.447072982788086 4.217761993408203"></path>
<path fill="none" stroke="black" stroke-width=".3" stroke-opacity="1.0"  filling="0" d="M5.401203632354736 4.231184482574463 C6.785970211029053 4.231184482574463 8.429250717163086 4.231184482574463 10.09528923034668 4.231184482574463 C9.82977294921875 4.905185699462891 9.237467765808105 5.640460014343262 9.354762077331543 6.235098361968994 C10.141973495483398 10.216668128967285 11.080323219299316 14.168475151062012 12.117293357849121 18.787282943725586 C13.034052848815918 17.48421287536621 13.556914329528809 16.741352081298828 14.079193115234375 15.998492240905762 C14.210492134094238 16.07435417175293 14.341791152954102 16.150217056274414 14.473089218139648 16.226078033447266 C13.355005264282227 18.396886825561523 12.236921310424805 20.568283081054688 10.76928997039795 23.418346405029297 C10.290779113769531 22.042917251586914 9.965156555175781 21.315811157226562 9.785423278808594 20.553691864013672 C8.76187515258789 16.216157913208008 7.811853408813477 11.861114501953125 6.744537830352783 7.534082889556885 C6.462099552154541 6.387989044189453 5.854622840881348 5.321840763092041 5.401203632354736 4.231184482574463"></path></svg>