<svg xmlns="http://www.w3.org/2000/svg" viewBox="0.0 0.0 24.0 24.0" height="200px" width="200px"><path fill="none" stroke="black" stroke-width=".3" stroke-opacity="1.0"  filling="0" d="M15.100378036499023 8.684247970581055 L15.100378036499023 8.684247970581055 C15.927218437194824 8.684247970581055 16.754058837890625 8.684247970581055 17.580900192260742 8.684247970581055 L17.580900192260742 8.684247970581055 C16.912822723388672 9.883715629577637 16.244747161865234 11.083183288574219 15.576674461364746 12.28265380859375 C14.908602714538574 13.482123374938965 14.240533828735352 14.681594848632812 13.572468757629395 15.88106918334961 L13.572468757629395 15.88106918334961 C12.602339744567871 15.880938529968262 11.632211685180664 15.880866050720215 10.66208267211914 15.880847930908203 L10.66208267211914 15.880847930908203 C10.015193939208984 14.683940887451172 9.368309020996094 13.487031936645508 8.721441268920898 12.29011344909668 C8.074573516845703 11.093194961547852 7.427721977233887 9.89626693725586 6.7809014320373535 8.699322700500488 L6.7809014320373535 8.699322700500488 C7.604195594787598 8.699322700500488 8.427490234375 8.699322700500488 9.250783920288086 8.699322700500488 L9.250783920288086 8.699322700500488 C10.21387004852295 10.509456634521484 11.176965713500977 12.319592475891113 12.14011001586914 14.129693984985352 L12.14011001586914 14.129693984985352 C13.126822471618652 12.314521789550781 14.11353874206543 10.49935245513916 15.100378036499023 8.684247970581055 L15.100378036499023 8.684247970581055"></path></svg>