<svg xmlns="http://www.w3.org/2000/svg" viewBox="0.0 0.0 24.0 24.0" height="200px" width="200px"><path fill="none" stroke="black" stroke-width=".3" stroke-opacity="1.0"  filling="0" d="M12.257879257202148 3.0111494064331055 C12.387762069702148 3.3517541885375977 12.563992500305176 3.578105926513672 12.535967826843262 3.775355339050293 C11.897333145141602 8.308314323425293 11.316904067993164 12.852590560913086 10.546770095825195 17.36399269104004 C10.11292839050293 19.907215118408203 10.668028831481934 20.842262268066406 12.87010669708252 20.514053344726562 L12.828069686889648 20.483333587646484 C12.985976219177246 22.089351654052734 11.58906364440918 22.109832763671875 10.70898723602295 22.206836700439453 C10.1134672164917 22.272045135498047 9.131532669067383 21.633953094482422 8.848593711853027 21.05352210998535 C8.44924545288086 20.234344482421875 8.349003791809082 19.158098220825195 8.448166847229004 18.22628402709961 C8.788772583007812 15.029876708984375 9.322315216064453 11.853949546813965 9.676932334899902 8.65861988067627 C9.822982788085938 7.339853286743164 9.700645446777344 5.991444110870361 9.700645446777344 4.32183313369751 C10.290237426757812 4.019491672515869 11.221512794494629 3.541996955871582 12.257879257202148 3.0111494064331055"></path>
<path fill="none" stroke="black" stroke-width=".3" stroke-opacity="1.0"  filling="0" d="M15.42248821258545 10.962016105651855 C17.48444366455078 12.724325180053711 17.1303653717041 14.907000541687012 16.491191864013672 16.912368774414062 C15.94794750213623 18.615392684936523 15.261886596679688 20.55016326904297 12.828068733215332 20.483871459960938 L12.87010669708252 20.514053344726562 C15.23278522491455 18.144367218017578 15.484466552734375 14.530824661254883 12.999988555908203 12.274316787719727 C13.420355796813965 12.06089973449707 13.81970500946045 11.867961883544922 14.209352493286133 11.65723991394043 C14.591455459594727 11.450828552246094 14.963318824768066 11.226094245910645 15.42248821258545 10.962016105651855"></path></svg>