<svg xmlns="http://www.w3.org/2000/svg" viewBox="0.0 0.0 24.0 24.0" height="200px" width="200px"><path fill="none" stroke="black" stroke-width=".3" stroke-opacity="1.0"  filling="0" d="M17.721208572387695 10.437911987304688 C18.411169052124023 10.569108963012695 18.834964752197266 12.0934419631958 19.37957000732422 12.988222122192383 C19.04638671875 13.221355438232422 18.714147567749023 13.454488754272461 18.380966186523438 13.686677932739258 C16.815101623535156 13.114699363708496 15.249238967895508 12.542719841003418 13.683374404907227 11.970741271972656 C13.660722732543945 11.642277717590332 13.637125015258789 11.312870025634766 13.613529205322266 10.983463287353516 C14.991564750671387 10.756937026977539 16.432838439941406 10.193452835083008 17.721208572387695 10.437911987304688"></path>
<path fill="none" stroke="black" stroke-width=".3" stroke-opacity="1.0"  filling="0" d="M11.520048141479492 13.62910270690918 C11.282194137573242 16.105792999267578 11.048116683959961 18.212488174438477 10.881998062133789 20.324848175048828 C10.45820426940918 25.695411682128906 11.40772819519043 26.69778823852539 17.062393188476562 26.457107543945312 C15.79101276397705 27.367931365966797 14.8660306930542 28.182483673095703 13.811738967895508 28.757293701171875 C10.669629096984863 30.47039794921875 8.377936363220215 29.468963623046875 7.38405179977417 26.044639587402344 C6.171192169189453 21.87183380126953 7.803126335144043 16.546573638916016 11.520048141479492 13.62910270690918"></path></svg>