<svg xmlns="http://www.w3.org/2000/svg" viewBox="0.0 0.0 24.0 24.0" height="200px" width="200px"><path fill="none" stroke="black" stroke-width=".3" stroke-opacity="1.0"  filling="0" d="M3.412716865539551 3.1379165649414062 C4.962341785430908 3.1379165649414062 6.389767646789551 3.1379165649414062 8.059820175170898 3.1379165649414062 C8.059820175170898 5.403616428375244 8.059820175170898 7.619136810302734 8.059820175170898 10.399016380310059 C10.821990013122559 8.017022132873535 13.683335304260254 8.09140396118164 16.55294418334961 8.44088077545166 C19.94382095336914 8.854113578796387 21.616825103759766 10.63455867767334 21.760276794433594 14.05199909210205 C21.871257781982422 16.69256019592285 21.782115936279297 19.341384887695312 21.782115936279297 22.23165512084961 C20.214191436767578 22.23165512084961 18.7224178314209 22.23165512084961 16.8616886138916 22.23165512084961 C16.8616886138916 20.016725540161133 16.91836166381836 17.790578842163086 16.84693145751953 15.567973136901855 C16.765464782714844 13.02481746673584 16.194021224975586 12.479349136352539 13.696321487426758 12.32763385772705 C13.012716293334961 12.286310195922852 12.321435928344727 12.296346664428711 11.638420104980469 12.347705841064453 C9.143671035766602 12.536022186279297 8.371515274047852 13.266263961791992 8.244593620300293 15.8283109664917 C8.143056869506836 17.88149070739746 8.223933219909668 19.942935943603516 8.223933219909668 22.33791732788086 C6.447620391845703 22.33791732788086 5.024916648864746 22.33791732788086 3.412716865539551 22.33791732788086 C3.412716865539551 15.906234741210938 3.412716865539551 9.596162796020508 3.412716865539551 3.1379165649414062"></path></svg>