<svg xmlns="http://www.w3.org/2000/svg" viewBox="0.0 0.0 24.0 24.0" height="200px" width="200px"><path fill="none" stroke="black" stroke-width=".3" stroke-opacity="1.0"  filling="0" d="M12.021411895751953 11.847504615783691 L12.090869903564453 11.9305419921875 C12.555389404296875 11.6221923828125 12.951167106628418 11.168249130249023 13.484429359436035 11.0054931640625 C15.865303039550781 10.27883243560791 16.506319046020508 14.037321090698242 16.32584571838379 15.51668930053711 C16.086246490478516 17.480730056762695 15.122154235839844 18.698030471801758 13.789206504821777 20.046207427978516 L13.789206504821777 20.046207427978516 C13.844776153564453 19.153926849365234 14.129034042358398 17.672536849975586 14.237972259521484 16.22490119934082 C14.346909523010254 14.777264595031738 14.280527114868164 13.363384246826172 13.634818077087402 12.606128692626953 C13.249221801757812 12.153921127319336 12.559213638305664 12.10037899017334 12.021411895751953 11.847504615783691 L12.021411895751953 11.847504615783691"></path>
<path fill="none" stroke="black" stroke-width=".3" stroke-opacity="1.0"  filling="0" d="M12.021934509277344 11.848027229309082 L12.021934509277344 11.848027229309082 C10.980560302734375 13.455227851867676 10.341758728027344 15.03077507019043 10.330552101135254 16.554521560668945 C10.319345474243164 18.07826805114746 10.9357328414917 19.550212860107422 12.404738426208496 20.950212478637695 L12.404738426208496 20.950212478637695 C11.825809478759766 21.209354400634766 11.301758766174316 21.752180099487305 10.667951583862305 21.727638244628906 C8.221160888671875 21.632896423339844 7.861117362976074 18.256507873535156 8.150125503540039 16.565414428710938 C8.5995454788208 13.935693740844727 9.502449989318848 12.548978805541992 12.091392517089844 11.93106460571289 L12.021934509277344 11.848027229309082"></path></svg>