<svg xmlns="http://www.w3.org/2000/svg" viewBox="0.0 0.0 24.0 24.0" height="200px" width="200px"><path fill="none" stroke="black" stroke-width=".3" stroke-opacity="1.0"  filling="0" d="M18.308935165405273 4.736497402191162 C21.282302856445312 4.916000843048096 22.1090030670166 6.149903774261475 22.193099975585938 9.312609672546387 C22.287033081054688 12.843667030334473 21.52082061767578 14.10068416595459 18.4500789642334 14.553131103515625 C15.542612075805664 14.980989456176758 12.582525253295898 15.048364639282227 9.6485013961792 15.303604125976562 C8.095426559448242 15.43884563446045 8.097886085510254 15.466878890991211 7.839203834533691 17.334699630737305 C12.502364158630371 17.334699630737305 17.142898559570312 17.334699630737305 22.03965950012207 17.334699630737305 C22.10064125061035 18.461883544921875 22.15129852294922 19.39923667907715 22.21326446533203 20.54068374633789 C15.839654922485352 20.540191650390625 9.591455459594727 20.540191650390625 3.0314598083496094 20.540191650390625 C3.0314598083496094 18.972854614257812 2.984738349914551 17.589447021484375 3.0417871475219727 16.210464477539062 C3.1460466384887695 13.672334671020508 3.98061466217041 12.587442398071289 6.475961208343506 12.225484848022461 C9.143434524536133 11.838445663452148 11.848282814025879 11.708613395690918 14.53690242767334 11.467635154724121 C15.107379913330078 11.416489601135254 15.81408405303955 11.560091972351074 16.216859817504883 11.273870468139648 C16.796680450439453 10.862241744995117 17.415353775024414 10.191438674926758 17.54616928100586 9.536865234375 C17.723705291748047 8.645740509033203 17.073558807373047 7.972478866577148 16.090469360351562 7.958708763122559 C13.880853652954102 7.92821741104126 11.647632598876953 7.782155990600586 9.470475196838379 8.055099487304688 C8.604432106018066 8.163785934448242 7.861827850341797 9.25605297088623 7.317415237426758 10.300124168395996 C5.964991092681885 10.300124168395996 4.613057613372803 10.300124168395996 3.2871904373168945 10.300124168395996 C2.731466293334961 6.54235315322876 3.588658332824707 5.049276828765869 7.031192779541016 4.784693241119385 C10.772244453430176 4.496504306793213 14.561491012573242 4.510273456573486 18.308935165405273 4.736497402191162"></path></svg>