<svg xmlns="http://www.w3.org/2000/svg" viewBox="0.0 0.0 24.0 24.0" height="200px" width="200px"><path fill="none" stroke="black" stroke-width=".3" stroke-opacity="1.0"  filling="0" d="M10.034932136535645 7.697492599487305 L10.034932136535645 7.697492599487305 C11.615907669067383 7.645774841308594 13.290165901184082 7.515318393707275 14.865114212036133 7.724850654602051 C17.83009147644043 8.11931324005127 17.800968170166016 10.03668212890625 17.751680374145508 12.647677421569824 C17.736984252929688 13.426201820373535 17.79241943359375 15.424715042114258 17.123762130737305 16.160295486450195 C15.895257949829102 17.511754989624023 12.067357063293457 16.92461395263672 10.464239120483398 16.88698959350586 C9.807378768920898 16.87157440185547 7.844346523284912 16.977624893188477 7.299353122711182 16.218050003051758 C6.934195518493652 15.709117889404297 7.0722455978393555 14.986048698425293 6.9586920738220215 14.370047569274902 L6.9586920738220215 14.370047569274902 C8.165423393249512 14.467432022094727 10.202230453491211 15.06006908416748 11.945561408996582 15.152385711669922 C13.68889331817627 15.244701385498047 15.138748168945312 14.836695671081543 15.171577453613281 12.932792663574219 L15.171577453613281 12.932792663574219 C14.255624771118164 13.174554824829102 12.731361389160156 13.533622741699219 11.24533462524414 13.611397743225098 C9.759308815002441 13.689172744750977 8.311517715454102 13.48565673828125 7.54850959777832 12.602252960205078 C6.615331172943115 11.521828651428223 6.801816463470459 8.8275728225708 8.145949363708496 8.106314659118652 C8.713624000549316 7.80170202255249 9.405271530151367 7.833766460418701 10.034932136535645 7.697492599487305 L10.034932136535645 7.697492599487305"></path>
<path fill="none" stroke="black" stroke-width=".3" stroke-opacity="1.0"  filling="0" d="M10.605301856994629 9.607292175292969 L10.605301856994629 9.607292175292969 C10.770041465759277 9.605120658874512 13.998428344726562 9.545907974243164 14.163206100463867 9.610332489013672 C17.402164459228516 10.876697540283203 12.873676300048828 11.547739028930664 12.385220527648926 11.548042297363281 L12.385220527648926 11.548042297363281 C12.385220527648926 11.550806045532227 12.385220527648926 11.553568840026855 12.385220527648926 11.5563325881958 L12.385220527648926 11.5563325881958 C11.954039573669434 11.555931091308594 9.68464469909668 11.97976016998291 9.684253692626953 10.601847648620605 C9.684124946594238 10.150003433227539 10.298285484313965 9.938810348510742 10.605301856994629 9.607292175292969 L10.605301856994629 9.607292175292969"></path></svg>