<svg xmlns="http://www.w3.org/2000/svg" viewBox="0.0 0.0 24.0 24.0" height="200px" width="200px"><path fill="none" stroke="black" stroke-width=".3" stroke-opacity="1.0"  filling="0" d="M14.591829299926758 4.097617149353027 C14.83056640625 4.161360740661621 15.068702697753906 4.225104331970215 15.307439804077148 4.288847923278809 C15.8258056640625 6.978700637817383 16.341766357421875 9.669153213500977 16.862539291381836 12.359006881713867 C17.318965911865234 14.716310501098633 17.741718292236328 17.08083152770996 18.253469467163086 19.42610740661621 C18.582408905029297 20.931896209716797 18.673816680908203 22.64635467529297 20.62099838256836 23.297019958496094 C18.570383071899414 23.297019958496094 16.519168853759766 23.297019958496094 14.237031936645508 23.297019958496094 C16.422950744628906 21.088848114013672 14.737958908081055 18.827159881591797 14.698871612548828 16.609371185302734 C8.555448532104492 15.431320190429688 8.528388023376465 15.719369888305664 6.562564373016357 21.95780372619629 C7.080930709838867 22.302379608154297 7.6263580322265625 22.664995193481445 8.543420791625977 23.27476692199707 C6.203556537628174 23.27476692199707 4.297868251800537 23.27476692199707 2.7163095474243164 23.27476692199707 C3.8047590255737305 21.91210174560547 5.198696136474609 20.553646087646484 6.1271843910217285 18.928186416625977 C8.458028793334961 14.849207878112793 10.554947853088379 10.636731147766113 12.801602363586426 6.508441925048828 C13.275468826293945 5.6376824378967285 13.988672256469727 4.8974175453186035 14.591829299926758 4.097617149353027"></path>
<path fill="none" stroke="black" stroke-width=".3" stroke-opacity="1.0"  filling="0" d="M12.727036476135254 8.605361938476562 C12.902631759643555 8.617388725280762 13.078828811645508 8.630016326904297 13.255024909973145 8.642044067382812 C13.633275032043457 10.583211898803711 14.011526107788086 12.524981498718262 14.448108673095703 14.763818740844727 C12.85632610321045 14.763818740844727 11.46900463104248 14.763818740844727 9.72147274017334 14.763818740844727 C10.776247024536133 12.603157043457031 11.751641273498535 10.604259490966797 12.727036476135254 8.605361938476562"></path></svg>