<svg xmlns="http://www.w3.org/2000/svg" viewBox="0.0 0.0 24.0 24.0" height="200px" width="200px"><path fill="none" stroke="black" stroke-width=".3" stroke-opacity="1.0"  filling="0" d="M17.345745086669922 4.108344078063965 C18.857494354248047 4.108344078063965 20.370227813720703 4.108344078063965 22.07291603088379 4.108344078063965 C22.04781723022461 4.665408134460449 22.097026824951172 5.215090751647949 21.987781524658203 5.731801509857178 C21.379539489746094 8.606191635131836 20.761943817138672 11.478612899780273 20.09317398071289 14.339223861694336 C19.100597381591797 18.585113525390625 17.054912567138672 20.18839454650879 12.633832931518555 20.219398498535156 C10.916875839233398 20.231700897216797 9.19795036315918 20.21792221069336 7.481977462768555 20.15542221069336 C3.4235801696777344 20.008281707763672 2.2046337127685547 18.37596893310547 3.203608512878418 14.48341178894043 C3.302029609680176 14.101045608520508 3.4152145385742188 13.722616195678711 3.5466060638427734 13.253639221191406 C5.002254962921143 13.253639221191406 6.365388870239258 13.253639221191406 7.722124099731445 13.253639221191406 C7.943079471588135 14.105966567993164 7.983432292938232 15.035062789916992 8.428296089172363 15.690053939819336 C8.70190715789795 16.093090057373047 9.585237503051758 16.185604095458984 10.208243370056152 16.229894638061523 C14.070780754089355 16.505966186523438 14.637687683105469 16.20676612854004 15.239532470703125 13.588271141052246 C15.952593803405762 10.486528396606445 16.621858596801758 7.374942779541016 17.345745086669922 4.108344078063965"></path></svg>