<svg xmlns="http://www.w3.org/2000/svg" viewBox="0.0 0.0 24.0 24.0" height="200px" width="200px"><path fill="none" stroke="black" stroke-width=".3" stroke-opacity="1.0"  filling="0" d="M14.967660903930664 7.352623462677002 L14.967660903930664 7.352623462677002 C15.864546775817871 7.352623462677002 16.761432647705078 7.352623462677002 17.65831756591797 7.352623462677002 L17.65831756591797 7.352623462677002 C16.910621643066406 9.084349632263184 16.57883071899414 10.861294746398926 16.33310890197754 12.659104347229004 C16.087387084960938 14.456913948059082 15.927733421325684 16.275588989257812 15.524314880371094 18.09077262878418 L15.524314880371094 18.09077262878418 C15.39896011352539 18.111059188842773 15.273605346679688 18.131343841552734 15.148250579833984 18.151630401611328 L15.148250579833984 18.151630401611328 C14.17850112915039 16.820240020751953 13.208734512329102 15.488862991333008 12.238967895507812 14.157485961914062 C11.269201278686523 12.826108932495117 10.299434661865234 11.494731903076172 9.329686164855957 10.163341522216797 L9.329686164855957 10.163341522216797 C9.217671394348145 10.20203971862793 9.105657577514648 10.240736961364746 8.993642807006836 10.279435157775879 L8.993642807006836 10.279435157775879 C8.817729949951172 11.561725616455078 8.623067855834961 12.793424606323242 8.497446060180664 14.028942108154297 C8.371824264526367 15.264460563659668 8.315242767333984 16.50379753112793 8.41549015045166 17.801366806030273 L8.41549015045166 17.801366806030273 C7.896431922912598 17.801366806030273 7.377374172210693 17.801366806030273 6.858315944671631 17.801366806030273 L6.858315944671631 17.801366806030273 C7.375324249267578 15.93231201171875 7.883790016174316 14.095261573791504 8.187313079833984 12.176414489746094 C8.259356498718262 11.720962524414062 8.687847137451172 9.244059562683105 8.439594268798828 8.755666732788086 C8.17600154876709 8.23709487915039 7.505581855773926 8.061972618103027 7.038575649261475 7.71512508392334 L7.038575649261475 7.71512508392334 C8.010660171508789 7.6294474601745605 8.884977340698242 7.363460540771484 9.779077529907227 7.966716766357422 C10.529824256896973 8.473251342773438 11.347043991088867 10.019597053527832 11.802719116210938 10.677512168884277 C12.888516426086426 12.24521255493164 13.96580696105957 13.593164443969727 15.409212112426758 14.833539962768555 L15.409212112426758 14.833539962768555 C15.610200881958008 13.261004447937012 16.468292236328125 10.426046371459961 16.05781364440918 8.882014274597168 C15.896965026855469 8.2769775390625 15.331045150756836 7.862420558929443 14.967660903930664 7.352623462677002 L14.967660903930664 7.352623462677002"></path></svg>