<svg xmlns="http://www.w3.org/2000/svg" viewBox="0.0 0.0 24.0 24.0" height="200px" width="200px"><path fill="none" stroke="black" stroke-width=".3" stroke-opacity="1.0"  filling="0" d="M15.426590919494629 6.813803672790527 L15.426590919494629 6.813803672790527 C15.218799591064453 8.322698593139648 15.010978698730469 9.83159065246582 14.803153991699219 11.340481758117676 C14.595330238342285 12.849372863769531 14.387502670288086 14.35826301574707 14.17970085144043 15.867156982421875 L14.17970085144043 15.867156982421875 C14.519842147827148 15.851351737976074 14.859983444213867 15.83554744720459 15.200124740600586 15.819742202758789 L15.200124740600586 15.819742202758789 C14.544042587280273 16.53876304626465 13.733333587646484 17.133769989013672 12.8641939163208 17.571985244750977 L12.8641939163208 17.571985244750977 C12.952149391174316 16.7554874420166 13.055688858032227 15.773346900939941 12.546728134155273 15.12885856628418 L12.546728134155273 15.12885856628418 C12.659526824951172 14.840225219726562 13.468344688415527 12.770452499389648 13.579815864562988 12.485180854797363 L13.579815864562988 12.485180854797363 C13.093138694763184 12.377727508544922 12.61735725402832 12.134133338928223 12.11978530883789 12.162819862365723 C10.146661758422852 12.276577949523926 11.070098876953125 15.304553031921387 11.283935546875 16.15723419189453 L11.283935546875 16.15723419189453 C11.721161842346191 15.797164916992188 12.1583890914917 15.437095642089844 12.59561538696289 15.0770263671875 L12.59561538696289 15.0770263671875 C11.98418140411377 15.922643661499023 11.372712135314941 16.76823616027832 10.761208534240723 17.61380386352539 L10.761208534240723 17.61380386352539 C10.365297317504883 17.154356002807617 9.791023254394531 16.80159568786621 9.573474884033203 16.235458374023438 C8.527941703796387 13.514619827270508 11.811569213867188 11.819734573364258 13.681416511535645 11.141990661621094 L13.681416511535645 11.141990661621094 C13.847461700439453 9.960329055786133 13.724616050720215 8.717602729797363 13.381326675415039 7.574778079986572 L13.381326675415039 7.574778079986572 C14.063085556030273 7.32112979888916 14.74483871459961 7.067470073699951 15.426590919494629 6.813803672790527 L15.426590919494629 6.813803672790527"></path></svg>