<svg xmlns="http://www.w3.org/2000/svg" viewBox="0.0 0.0 24.0 24.0" height="200px" width="200px"><path fill="none" stroke="black" stroke-width=".3" stroke-opacity="1.0"  filling="0" d="M14.542767524719238 7.235616207122803 L14.542767524719238 7.235616207122803 C14.114666938781738 7.406958103179932 13.686565399169922 7.578299522399902 13.258464813232422 7.749641418457031 L13.258464813232422 7.749641418457031 C13.258464813232422 9.28487777709961 13.258464813232422 10.820113182067871 13.258464813232422 12.355348587036133 C13.258464813232422 13.890583992004395 13.258464813232422 15.425819396972656 13.258464813232422 16.961055755615234 L13.258464813232422 16.961055755615234 C13.677041053771973 17.14962387084961 14.095617294311523 17.33819007873535 14.514193534851074 17.526758193969727 L14.514193534851074 17.526758193969727 C14.484100341796875 17.589275360107422 14.454007148742676 17.65179443359375 14.423913955688477 17.714311599731445 L14.423913955688477 17.714311599731445 C12.910613059997559 17.714311599731445 11.397316932678223 17.714311599731445 9.884016036987305 17.714311599731445 L9.884016036987305 17.714311599731445 C9.865068435668945 17.628084182739258 9.84611988067627 17.541854858398438 9.82717227935791 17.45562744140625 L9.82717227935791 17.45562744140625 C10.24351978302002 17.303030014038086 10.659866333007812 17.150434494018555 11.076213836669922 16.99783706665039 L11.076213836669922 16.99783706665039 C11.076213836669922 15.4426908493042 11.076213836669922 13.887544631958008 11.076213836669922 12.332398414611816 C11.076213836669922 10.777251243591309 11.076213836669922 9.222105026245117 11.076213836669922 7.666959285736084 L11.076213836669922 7.666959285736084 C10.594917297363281 7.565633773803711 10.113619804382324 7.464308261871338 9.632323265075684 7.362982749938965 L9.632323265075684 7.362982749938965 C11.399503707885742 6.8530659675598145 12.733297348022461 6.930709362030029 14.542767524719238 7.235616207122803 L14.542767524719238 7.235616207122803"></path></svg>