<svg xmlns="http://www.w3.org/2000/svg" viewBox="0.0 0.0 24.0 24.0" height="200px" width="200px"><path fill="none" stroke="black" stroke-width=".3" stroke-opacity="1.0"  filling="0" d="M11.117243766784668 10.847675323486328 L11.117243766784668 10.847675323486328 C11.795700073242188 10.940918922424316 12.465988159179688 11.2825288772583 12.959270477294922 11.757575988769531 L12.959270477294922 11.757575988769531 C13.446846961975098 11.460881233215332 13.86966609954834 11.011321067810059 14.421998977661133 10.86749267578125 C18.067644119262695 9.918163299560547 17.087053298950195 13.473885536193848 16.694856643676758 15.489031791687012 L16.694856643676758 15.489031791687012 C16.127267837524414 15.489031791687012 15.559678077697754 15.489031791687012 14.992088317871094 15.489031791687012 L14.992088317871094 15.489031791687012 C15.124659538269043 14.8463716506958 15.382472038269043 14.217201232910156 15.389801025390625 13.561050415039062 C15.410183906555176 11.736172676086426 13.69865608215332 11.652748107910156 12.955925941467285 13.01267147064209 C12.861006736755371 13.186467170715332 12.425193786621094 15.314952850341797 12.392401695251465 15.469756126403809 L12.392401695251465 15.469756126403809 C11.84061336517334 15.469756126403809 11.288824081420898 15.469756126403809 10.737035751342773 15.469756126403809 L10.737035751342773 15.469756126403809 C10.907803535461426 14.608614921569824 11.567739486694336 10.590703964233398 9.127033233642578 12.395278930664062 C8.409037590026855 12.926140785217285 8.292144775390625 14.72086238861084 8.121417999267578 15.515584945678711 L8.121417999267578 15.515584945678711 C7.564384460449219 15.515584945678711 7.007350444793701 15.515584945678711 6.450316905975342 15.515584945678711 L6.450316905975342 15.515584945678711 C6.765859127044678 14.03266429901123 7.081352710723877 12.54973316192627 7.396801948547363 11.066791534423828 L7.396801948547363 11.066791534423828 C7.937575817108154 11.137404441833496 8.478349685668945 11.208016395568848 9.019123077392578 11.278629302978516 L9.019123077392578 11.278629302978516 C9.714076042175293 11.114925384521484 10.414064407348633 10.971362113952637 11.117243766784668 10.847675323486328 L11.117243766784668 10.847675323486328"></path></svg>