<svg xmlns="http://www.w3.org/2000/svg" viewBox="0.0 0.0 24.0 24.0" height="200px" width="200px"><path fill="none" stroke="black" stroke-width=".3" stroke-opacity="1.0"  filling="0" d="M15.66981315612793 11.029560089111328 L15.66981315612793 11.029560089111328 C16.348766326904297 12.50337028503418 16.317947387695312 13.875195503234863 16.221403121948242 15.258283615112305 C16.124858856201172 16.64137077331543 15.962589263916016 18.035720825195312 16.378643035888672 19.554580688476562 L16.378643035888672 19.554580688476562 C15.377378463745117 20.312942504882812 14.376083374023438 21.071264266967773 13.374768257141113 21.829559326171875 L13.374768257141113 21.829559326171875 C12.828761100769043 19.466575622558594 14.015957832336426 17.647655487060547 14.23459529876709 15.299595832824707 C14.317420959472656 14.410086631774902 14.000920295715332 13.025269508361816 13.85886001586914 12.215458869934082 L13.85886001586914 12.215458869934082 C14.462471008300781 11.820098876953125 15.06613540649414 11.424818992614746 15.66981315612793 11.029560089111328 L15.66981315612793 11.029560089111328"></path>
<path fill="none" stroke="black" stroke-width=".3" stroke-opacity="1.0"  filling="0" d="M10.020744323730469 11.119355201721191 L10.020744323730469 11.119355201721191 C10.9502534866333 12.7431640625 10.770721435546875 13.514123916625977 10.639779090881348 15.342738151550293 L10.639779090881348 15.342738151550293 C11.018691062927246 15.137898445129395 11.397603034973145 14.93305778503418 11.776515007019043 14.728218078613281 L11.776515007019043 14.728218078613281 C11.293270111083984 16.002395629882812 10.924230575561523 17.36917495727539 10.372794151306152 18.60394287109375 C9.821357727050781 19.838708877563477 9.0875244140625 20.941463470458984 7.874690055847168 21.687591552734375 L7.874690055847168 21.687591552734375 C7.721352577209473 21.55816650390625 7.5680155754089355 21.428741455078125 7.41467809677124 21.29931640625 L7.41467809677124 21.29931640625 C7.677398681640625 20.04735565185547 7.940138339996338 18.795398712158203 8.202913284301758 17.54344940185547 C8.465688705444336 16.291500091552734 8.728498458862305 15.039557456970215 8.991360664367676 13.787626266479492 L8.991360664367676 13.787626266479492 C8.399916648864746 13.701175689697266 7.808472156524658 13.614724159240723 7.2170281410217285 13.528273582458496 L7.2170281410217285 13.528273582458496 C8.1516752243042 12.725388526916504 9.086254119873047 11.922423362731934 10.020744323730469 11.119355201721191 L10.020744323730469 11.119355201721191"></path></svg>