<svg xmlns="http://www.w3.org/2000/svg" viewBox="0.0 0.0 24.0 24.0" height="200px" width="200px"><path fill="none" stroke="black" stroke-width=".3" stroke-opacity="1.0"  filling="0" d="M11.769657135009766 9.826799392700195 C11.769657135009766 15.30010986328125 11.769657135009766 19.867107391357422 11.769657135009766 25.43521499633789 C13.752381324768066 23.857362747192383 15.017498016357422 22.850940704345703 16.28261375427246 21.843629837036133 L16.45094108581543 22.003986358642578 C14.919157981872559 25.333332061767578 12.510298728942871 27.664230346679688 8.348173141479492 29.026798248291016 C8.348173141479492 24.186931610107422 8.348173141479492 19.73155975341797 8.348173141479492 15.224804878234863 C7.176966190338135 15.224804878234863 6.4106316566467285 15.224804878234863 4.642303466796875 15.224804878234863 C7.288593769073486 13.220819473266602 9.199557304382324 11.773200035095215 11.769657135009766 9.826799392700195"></path>
<path fill="none" stroke="black" stroke-width=".3" stroke-opacity="1.0"  filling="0" d="M18.982059478759766 10.076634407043457 C22.024362564086914 13.721373558044434 21.231449127197266 16.854042053222656 16.450939178466797 22.003986358642578 L16.282611846923828 21.843631744384766 C16.950607299804688 18.909412384033203 18.752599716186523 16.162126541137695 17.372314453125 12.881505966186523 C17.131338119506836 12.309191703796387 18.351272583007812 11.122037887573242 18.982059478759766 10.076634407043457"></path></svg>