<svg xmlns="http://www.w3.org/2000/svg" viewBox="0.0 0.0 24.0 24.0" height="200px" width="200px"><path fill="none" stroke="black" stroke-width=".3" stroke-opacity="1.0"  filling="0" d="M16.10077667236328 8.209006309509277 L16.10077667236328 8.209006309509277 C16.635974884033203 8.428455352783203 17.386619567871094 8.385322570800781 17.706369400024414 8.867353439331055 C18.412017822265625 9.931132316589355 17.33000946044922 11.472718238830566 16.924686431884766 12.281983375549316 L16.924686431884766 12.281983375549316 C16.978971481323242 12.680915832519531 17.183488845825195 13.926583290100098 17.093475341796875 14.325984954833984 C16.50316619873047 16.945274353027344 13.907163619995117 16.483585357666016 11.793896675109863 16.5086612701416 C10.81418228149414 16.520286560058594 7.7097392082214355 16.995868682861328 7.192264556884766 15.653914451599121 C6.947373867034912 15.01884651184082 7.3321709632873535 14.299824714660645 7.402123928070068 13.622779846191406 L7.402123928070068 13.622779846191406 C8.087047576904297 13.622779846191406 8.771970748901367 13.622779846191406 9.456893920898438 13.622779846191406 L9.456893920898438 13.622779846191406 C9.550554275512695 14.014284133911133 9.644214630126953 14.405787467956543 9.737874984741211 14.79729175567627 L9.737874984741211 14.79729175567627 C10.791125297546387 14.80479907989502 13.089980125427246 15.204903602600098 14.047256469726562 14.751213073730469 C15.22821044921875 14.191513061523438 14.915322303771973 13.413423538208008 13.954849243164062 13.092121124267578 C13.175556182861328 12.831428527832031 12.31136703491211 13.093297958374023 11.489625930786133 13.092872619628906 L11.489625930786133 13.092872619628906 C11.568761825561523 12.568891525268555 11.647896766662598 12.044910430908203 11.727032661437988 11.520929336547852 L11.727032661437988 11.520929336547852 C12.352520942687988 11.518007278442383 12.979832649230957 11.559982299804688 13.603496551513672 11.512164115905762 C14.084036827087402 11.475319862365723 16.571046829223633 10.442505836486816 14.648788452148438 9.8781156539917 C12.905359268188477 9.366230964660645 11.318477630615234 9.869481086730957 9.940973281860352 10.83525562286377 L9.940973281860352 10.83525562286377 C9.339776992797852 10.83525562286377 8.738580703735352 10.83525562286377 8.137384414672852 10.83525562286377 L8.137384414672852 10.83525562286377 C8.309919357299805 10.24112319946289 8.270842552185059 9.537825584411621 8.654989242553711 9.052858352661133 C9.300750732421875 8.237614631652832 10.722482681274414 8.014322280883789 12.202630996704102 8.001005172729492 C13.682779312133789 7.987689018249512 15.221344947814941 8.184347152709961 16.10077667236328 8.209006309509277 L16.10077667236328 8.209006309509277"></path></svg>