<svg xmlns="http://www.w3.org/2000/svg" viewBox="0.0 0.0 24.0 24.0" height="200px" width="200px"><path fill="none" stroke="black" stroke-width=".3" stroke-opacity="1.0"  filling="0" d="M16.405981063842773 7.978542327880859 L16.405981063842773 7.978542327880859 C16.85628318786621 8.18202018737793 17.520606994628906 8.154985427856445 17.756885528564453 8.588974952697754 C18.023324966430664 9.078364372253418 17.683252334594727 9.70097541809082 17.646434783935547 10.256976127624512 L17.646434783935547 10.256976127624512 C15.832447052001953 10.190610885620117 12.527544021606445 8.432075500488281 10.90810489654541 9.922101974487305 C10.441079139709473 10.351806640625 10.296971321105957 11.034555435180664 9.99140453338623 11.590782165527344 L9.99140453338623 11.590782165527344 C11.472885131835938 11.191149711608887 11.483871459960938 11.088761329650879 13.011343955993652 11.063549995422363 C13.93468952178955 11.048310279846191 16.490978240966797 10.901148796081543 17.15327262878418 11.794065475463867 C17.859325408935547 12.745979309082031 17.028621673583984 15.169411659240723 16.22054100036621 15.852954864501953 C14.93175220489502 16.94312286376953 11.761159896850586 16.413311004638672 10.207868576049805 16.37470817565918 C9.588016510009766 16.359304428100586 7.8378424644470215 16.461090087890625 7.31490421295166 15.757665634155273 C6.833835124969482 15.11056137084961 7.254817008972168 13.487785339355469 7.378699779510498 12.867142677307129 C7.629626750946045 11.610015869140625 7.786560535430908 9.513067245483398 8.84135913848877 8.600741386413574 C9.639171600341797 7.910690784454346 11.047306060791016 7.737889766693115 12.497498512268066 7.746227264404297 C13.947690963745117 7.75456428527832 15.439940452575684 7.944040298461914 16.405981063842773 7.978542327880859 L16.405981063842773 7.978542327880859"></path>
<path fill="none" stroke="black" stroke-width=".3" stroke-opacity="1.0"  filling="0" d="M14.383809089660645 12.998802185058594 L14.383809089660645 12.998802185058594 C15.469788551330566 14.768366813659668 13.065620422363281 14.776188850402832 11.904709815979004 14.798587799072266 L11.904709815979004 14.798587799072266 C11.904192924499512 14.784882545471191 11.903675079345703 14.7711763381958 11.903158187866211 14.757471084594727 L11.903158187866211 14.757471084594727 C11.40751838684082 14.757652282714844 7.7809672355651855 14.416365623474121 10.27352523803711 13.040694236755371 C11.118648529052734 12.574260711669922 13.438947677612305 12.974104881286621 14.383809089660645 12.998802185058594 L14.383809089660645 12.998802185058594"></path></svg>