<svg xmlns="http://www.w3.org/2000/svg" viewBox="0.0 0.0 24.0 24.0" height="200px" width="200px"><path fill="none" stroke="black" stroke-width=".3" stroke-opacity="1.0"  filling="0" d="M18.712268829345703 5.143210411071777 C21.53771209716797 5.3381452560424805 22.453231811523438 6.556154727935791 22.03378677368164 9.293761253356934 C21.673492431640625 11.643291473388672 21.121849060058594 13.976688385009766 20.469375610351562 16.26482391357422 C19.865299224853516 18.384016036987305 18.361385345458984 19.78799819946289 16.11313247680664 19.871349334716797 C12.543801307678223 20.003997802734375 8.953407287597656 20.095863342285156 5.396175861358643 19.84984016418457 C2.9480600357055664 19.680896759033203 2.5541553497314453 18.706218719482422 3.216935157775879 16.005807876586914 C4.734293460845947 15.942621231079102 6.325144290924072 15.21575927734375 7.720163345336914 16.662761688232422 C7.979180335998535 16.931188583374023 8.555472373962402 16.97420883178711 8.987466812133789 16.981826782226562 C10.629404067993164 17.010507583618164 12.27806282043457 17.06607437133789 13.913277626037598 16.953147888183594 C16.068767547607422 16.804819107055664 16.5052433013916 16.21956443786621 16.629823684692383 13.62266731262207 C13.811105728149414 14.71430492401123 10.908586502075195 14.400167465209961 8.04640007019043 14.276484489440918 C4.8620100021362305 14.139358520507812 3.976511001586914 12.838892936706543 4.635705471038818 9.733373641967773 C5.285938262939453 6.669082164764404 6.435831546783447 5.3932647705078125 9.548521041870117 5.152172565460205 C12.58726978302002 4.916905879974365 15.66993522644043 4.9334869384765625 18.712268829345703 5.143210411071777"></path>
<path fill="none" stroke="black" stroke-width=".3" stroke-opacity="1.0"  filling="0" d="M11.09231948852539 8.085611343383789 C12.793856620788574 8.064101219177246 14.49629020690918 8.063204765319824 16.19782829284668 8.087852478027344 C16.977569580078125 8.099055290222168 17.75103759765625 8.263070106506348 17.741626739501953 9.264633178710938 C17.732662200927734 10.208389282226562 17.436004638671875 11.075066566467285 16.317928314208984 11.193371772766113 C15.216878890991211 11.309885025024414 14.104179382324219 11.31615924835205 12.99640941619873 11.370829582214355 C12.995513916015625 11.35021686553955 12.995065689086914 11.329154014587402 12.994169235229492 11.308540344238281 C12.180371284484863 11.308540344238281 11.366124153137207 11.322880744934082 10.55322265625 11.304506301879883 C9.803954124450684 11.287477493286133 8.839137077331543 11.271345138549805 8.922937393188477 10.290395736694336 C8.98164176940918 9.6029691696167 9.576753616333008 8.921368598937988 10.049528121948242 8.330737113952637 C10.226985931396484 8.109362602233887 10.73426628112793 8.090092658996582 11.09231948852539 8.085611343383789"></path></svg>