<svg xmlns="http://www.w3.org/2000/svg" viewBox="0.0 0.0 24.0 24.0" height="200px" width="200px"><path fill="none" stroke="black" stroke-width=".3" stroke-opacity="1.0"  filling="0" d="M7.3395161628723145 7.713842868804932 L7.3395161628723145 7.713842868804932 C9.625365257263184 7.69227933883667 12.50928020477295 7.214188098907471 14.668425559997559 8.118683815002441 C16.573657989501953 8.916810989379883 17.656883239746094 10.519659996032715 17.829326629638672 12.206920623779297 C18.00177001953125 13.894182205200195 17.263431549072266 15.665855407714844 15.525530815124512 16.801631927490234 C14.296446800231934 17.604881286621094 12.895840644836426 17.894865036010742 11.454875946044922 17.98208999633789 C10.013912200927734 18.069316864013672 8.532588958740234 17.953781127929688 7.142072677612305 17.94598960876465 L7.142072677612305 17.94598960876465 C7.781538009643555 16.52366065979004 8.123117446899414 14.69196891784668 8.158720970153809 12.852685928344727 C8.194324493408203 11.01340389251709 7.923953056335449 9.166531562805176 7.3395161628723145 7.713842868804932 L7.3395161628723145 7.713842868804932"></path>
<path fill="none" stroke="black" stroke-width=".3" stroke-opacity="1.0"  filling="0" d="M9.876910209655762 8.423334121704102 L9.876910209655762 8.423334121704102 C11.396703720092773 8.151629447937012 12.050348281860352 7.768350601196289 13.512120246887207 8.501996994018555 C15.068984985351562 9.283369064331055 15.815507888793945 10.957247734069824 15.80725383758545 12.647100448608398 C15.798999786376953 14.336952209472656 15.035968780517578 16.04277801513672 13.573728561401367 16.88804817199707 C12.133340835571289 17.720685958862305 11.419435501098633 17.31157112121582 9.876585006713867 17.06157112121582 L9.876585006713867 17.06157112121582 C9.8765869140625 15.621864318847656 9.876601219177246 14.182157516479492 9.876648902893066 12.742451667785645 C9.87669563293457 11.302745819091797 9.876775741577148 9.86303997039795 9.876910209655762 8.423334121704102 L9.876910209655762 8.423334121704102"></path></svg>