<svg xmlns="http://www.w3.org/2000/svg" viewBox="0.0 0.0 24.0 24.0" height="200px" width="200px"><path fill="none" stroke="black" stroke-width=".3" stroke-opacity="1.0"  filling="0" d="M2.75301456451416 4.959359645843506 C3.9576683044433594 4.959359645843506 4.945549011230469 4.959359645843506 6.110873699188232 4.959359645843506 C6.110873699188232 6.8915791511535645 6.110873699188232 8.732970237731934 6.110873699188232 10.759295463562012 C10.27308177947998 10.759295463562012 14.257845878601074 10.759295463562012 18.46453285217285 10.759295463562012 C18.46453285217285 8.857976913452148 18.46453285217285 7.017990589141846 18.46453285217285 5.02256441116333 C19.71693992614746 5.02256441116333 20.75725746154785 5.02256441116333 21.953014373779297 5.02256441116333 C21.953014373779297 10.019556045532227 21.953014373779297 15.031996726989746 21.953014373779297 20.177406311035156 C20.86119842529297 20.177406311035156 19.81572914123535 20.177406311035156 18.52352523803711 20.177406311035156 C18.52352523803711 18.11081314086914 18.52352523803711 16.114919662475586 18.52352523803711 13.965459823608398 C14.354293823242188 13.965459823608398 10.42805290222168 13.965459823608398 6.276611804962158 13.965459823608398 C6.276611804962158 16.000213623046875 6.276611804962158 17.988147735595703 6.276611804962158 20.140884399414062 C5.016245365142822 20.140884399414062 3.972649574279785 20.140884399414062 2.75301456451416 20.140884399414062 C2.75301456451416 15.155130386352539 2.75301456451416 10.142690658569336 2.75301456451416 4.959359645843506"></path></svg>