<svg xmlns="http://www.w3.org/2000/svg" viewBox="0.0 0.0 24.0 24.0" height="200px" width="200px"><path fill="none" stroke="black" stroke-width=".3" stroke-opacity="1.0"  filling="0" d="M8.711390495300293 3.431774139404297 C10.32122802734375 3.431774139404297 11.93106460571289 3.431774139404297 13.301656723022461 3.431774139404297 C13.043488502502441 4.239170074462891 12.540667533874512 5.1240620613098145 12.511381149291992 6.024273872375488 C12.401895523071289 9.393533706665039 12.4672269821167 12.76819896697998 12.428028106689453 16.14061164855957 C12.392885208129883 19.13816261291504 10.887577056884766 21.262985229492188 8.146392822265625 22.367748260498047 C7.15471887588501 22.766490936279297 6.263518333435059 22.821908950805664 5.285361289978027 21.754993438720703 C5.695817947387695 21.287317276000977 6.025624752044678 20.91155242919922 6.40814733505249 20.47586441040039 C6.856450080871582 20.64932632446289 7.250236988067627 20.825946807861328 7.658890724182129 20.954803466796875 C9.027681350708008 21.385986328125 9.655305862426758 21.0521240234375 9.827418327331543 19.654499053955078 C9.963936805725098 18.54387855529785 9.954475402832031 17.411178588867188 9.955826759338379 16.288393020629883 C9.959431648254395 12.991673469543457 9.954925537109375 9.694953918457031 9.911672592163086 6.398684024810791 C9.89725399017334 5.311493396759033 10.118928909301758 4.0729146003723145 8.711390495300293 3.431774139404297"></path></svg>