<svg xmlns="http://www.w3.org/2000/svg" viewBox="0.0 0.0 24.0 24.0" height="200px" width="200px"><path fill="none" stroke="black" stroke-width=".3" stroke-opacity="1.0"  filling="0" d="M10.15015697479248 7.180373191833496 L10.15015697479248 7.180373191833496 C11.010831832885742 7.180373191833496 11.87150764465332 7.180373191833496 12.732182502746582 7.180373191833496 L12.732182502746582 7.180373191833496 C12.309041023254395 8.568488121032715 12.385367393493652 10.071907043457031 12.431571006774902 11.560105323791504 C12.477775573730469 13.048303604125977 12.493856430053711 14.521280288696289 11.950222969055176 15.8485107421875 C11.64937973022461 16.582992553710938 10.677855491638184 17.696983337402344 9.832345962524414 17.831859588623047 C9.290586471557617 17.91828155517578 8.759459495544434 17.602075576782227 8.223015785217285 17.4871826171875 L8.223015785217285 17.4871826171875 C8.433538436889648 17.247346878051758 8.644060134887695 17.007509231567383 8.854582786560059 16.76767349243164 L8.854582786560059 16.76767349243164 C10.777915954589844 17.50416374206543 10.821374893188477 15.908174514770508 10.850152969360352 14.41222095489502 C10.898452758789062 11.901500701904297 11.096548080444336 9.519704818725586 10.15015697479248 7.180373191833496 L10.15015697479248 7.180373191833496"></path></svg>