<svg xmlns="http://www.w3.org/2000/svg" viewBox="0.0 0.0 24.0 24.0" height="200px" width="200px"><path fill="none" stroke="black" stroke-width=".3" stroke-opacity="1.0"  filling="0" d="M7.299256801605225 8.330826759338379 L7.299256801605225 8.330826759338379 C7.9086480140686035 8.330826759338379 8.51803970336914 8.330826759338379 9.12743091583252 8.330826759338379 L9.12743091583252 8.330826759338379 C9.12743091583252 9.36329460144043 9.12743091583252 10.395763397216797 9.12743091583252 11.428231239318848 L9.12743091583252 11.428231239318848 C11.779985427856445 11.752251625061035 12.597620010375977 9.384394645690918 14.845427513122559 8.489076614379883 C15.806811332702637 8.10615062713623 16.690357208251953 8.300132751464844 17.678062438964844 8.37674331665039 L17.678062438964844 8.37674331665039 C15.928126335144043 9.71352481842041 14.178196907043457 11.050312042236328 12.428251266479492 12.387079238891602 L12.428251266479492 12.387079238891602 C14.318670272827148 13.808086395263672 16.20909309387207 15.229077339172363 18.09951400756836 16.650081634521484 L18.09951400756836 16.650081634521484 C17.099769592285156 16.70747184753418 16.082550048828125 16.88656997680664 15.107935905456543 16.498207092285156 C12.84225845336914 15.59538459777832 11.833192825317383 13.09369945526123 9.183350563049316 13.287443161010742 L9.183350563049316 13.287443161010742 C9.183350563049316 13.292888641357422 9.183350563049316 16.639253616333008 9.183350563049316 16.645721435546875 L9.183350563049316 16.645721435546875 C8.555318832397461 16.645721435546875 7.927288055419922 16.645721435546875 7.299256801605225 16.645721435546875 L7.299256801605225 16.645721435546875 C7.299256801605225 15.259905815124512 7.299256801605225 13.874090194702148 7.299256801605225 12.488273620605469 C7.299256801605225 11.102458000183105 7.299256801605225 9.716642379760742 7.299256801605225 8.330826759338379 L7.299256801605225 8.330826759338379"></path></svg>