<svg xmlns="http://www.w3.org/2000/svg" viewBox="0.0 0.0 24.0 24.0" height="200px" width="200px"><path fill="none" stroke="black" stroke-width=".3" stroke-opacity="1.0"  filling="0" d="M12.84961223602295 3.6489362716674805 C18.160667419433594 3.7704687118530273 22.26030921936035 7.964203357696533 22.11301612854004 13.12572193145752 C21.956199645996094 18.631118774414062 17.718219757080078 22.837175369262695 12.539339065551758 22.62659454345703 C6.890566349029541 22.397525787353516 2.8166847229003906 18.242996215820312 2.91861629486084 12.815448760986328 C3.015507698059082 7.631527423858643 7.4640679359436035 3.525162696838379 12.84961223602295 3.6489362716674805"></path>
<path fill="none" stroke="black" stroke-width=".3" stroke-opacity="1.0"  filling="0" d="M15.506540298461914 5.750843524932861 C18.039133071899414 7.809066295623779 18.689922332763672 10.650254249572754 18.986196517944336 13.817956924438477 C18.53814697265625 15.500378608703613 18.3118839263916 17.28529167175293 17.59500503540039 18.843379974365234 C16.205495834350586 21.861549377441406 13.10275936126709 22.59634780883789 10.3584623336792 20.78567123413086 C6.245377063751221 18.071617126464844 5.022764682769775 10.366862297058105 8.094137191772461 6.517566680908203 C9.975379943847656 4.15971040725708 13.117321968078613 3.8096723556518555 15.506540298461914 5.750843524932861"></path></svg>