<svg xmlns="http://www.w3.org/2000/svg" viewBox="0.0 0.0 24.0 24.0" height="200px" width="200px"><path fill="none" stroke="black" stroke-width=".3" stroke-opacity="1.0"  filling="0" d="M15.484079360961914 7.9351396560668945 L15.484079360961914 7.9351396560668945 C15.983830451965332 8.129780769348145 16.612260818481445 8.131841659545898 16.983333587646484 8.519063949584961 C18.09333038330078 9.677366256713867 18.04648208618164 14.315753936767578 16.944181442260742 15.467632293701172 C16.22777557373047 16.21626091003418 14.63471794128418 16.499061584472656 12.995160102844238 16.53458023071289 C11.35560131072998 16.570098876953125 9.669541358947754 16.35833740234375 8.767128944396973 16.11783790588379 C6.628885269165039 15.547983169555664 6.7989277839660645 13.892589569091797 6.799514293670654 12.019622802734375 C6.799755096435547 11.250152587890625 6.7004499435424805 9.296028137207031 7.374955654144287 8.572619438171387 C8.058710098266602 7.839291572570801 9.649423599243164 7.92645788192749 10.473087310791016 7.896929740905762 C12.147337913513184 7.836908340454102 13.810892105102539 7.871335029602051 15.484079360961914 7.9351396560668945 L15.484079360961914 7.9351396560668945"></path>
<path fill="none" stroke="black" stroke-width=".3" stroke-opacity="1.0"  filling="0" d="M9.921124458312988 9.415778160095215 L9.921124458312988 9.415778160095215 C11.38957405090332 9.401823043823242 11.611555099487305 9.391690254211426 13.080110549926758 9.409791946411133 C13.606517791748047 9.416280746459961 14.173352241516113 9.236899375915527 14.659168243408203 9.439702033996582 C16.45216941833496 10.188187599182129 16.051694869995117 13.840644836425781 14.561762809753418 14.640128135681152 C13.28386116027832 15.32583999633789 11.442261695861816 15.207175254821777 10.114594459533691 14.483519554138184 C8.786928176879883 13.75986385345459 7.97319221496582 12.431217193603516 8.751016616821289 10.696964263916016 C8.987703323364258 10.169242858886719 9.531088829040527 9.842840194702148 9.921124458312988 9.415778160095215 L9.921124458312988 9.415778160095215"></path></svg>