<svg xmlns="http://www.w3.org/2000/svg" viewBox="0.0 0.0 24.0 24.0" height="200px" width="200px"><path fill="none" stroke="black" stroke-width=".3" stroke-opacity="1.0"  filling="0" d="M5.422552585601807 3.6250553131103516 C7.679744243621826 3.6250553131103516 10.37342357635498 3.5177431106567383 13.055647850036621 3.6503772735595703 C17.0256290435791 3.846917152404785 19.9423770904541 6.301251411437988 20.082244873046875 9.35545539855957 C20.22030258178711 12.372279167175293 17.470556259155273 15.031595230102539 13.54096794128418 15.632667541503906 C12.460000038146973 15.797256469726562 11.362752914428711 15.850308418273926 9.777774810791016 16.002838134765625 C9.87061882019043 17.839218139648438 9.949596405029297 19.405508041381836 10.032793998718262 21.054391860961914 C10.913002967834473 21.575885772705078 11.72026252746582 22.05457305908203 12.950143814086914 22.783456802368164 C9.97913932800293 22.783456802368164 7.521186351776123 22.783456802368164 5.449681758880615 22.783456802368164 C5.842761039733887 21.350404739379883 6.528238773345947 19.872739791870117 6.60540771484375 18.364328384399414 C6.783257961273193 14.868814468383789 6.783257961273193 11.352804183959961 6.613245487213135 7.857291221618652 C6.544516563415527 6.441723346710205 5.845172882080078 5.057505130767822 5.422552585601807 3.6250553131103516"></path>
<path fill="none" stroke="black" stroke-width=".3" stroke-opacity="1.0"  filling="0" d="M10.113580703735352 5.0080695152282715 C12.304455757141113 3.968097686767578 14.008201599121094 4.5372185707092285 15.379156112670898 6.11375617980957 C16.74709701538086 7.686676502227783 16.761568069458008 11.034482955932617 15.548566818237305 12.925725936889648 C14.43564510345459 14.66142463684082 12.985713005065918 15.15217113494873 10.113580703735352 14.629472732543945 C10.113580703735352 11.443840980529785 10.113580703735352 8.208773612976074 10.113580703735352 5.0080695152282715"></path></svg>