<svg xmlns="http://www.w3.org/2000/svg" viewBox="0.0 0.0 24.0 24.0" height="200px" width="200px"><path fill="none" stroke="black" stroke-width=".3" stroke-opacity="1.0"  filling="0" d="M14.91356372833252 7.925874710083008 L14.91356372833252 7.925874710083008 C16.837068557739258 8.378752708435059 16.919391632080078 8.693800926208496 17.174741744995117 10.645362854003906 L17.174741744995117 10.645362854003906 C16.562440872192383 10.71917724609375 15.944520950317383 10.752473831176758 15.327791213989258 10.755035400390625 L15.327791213989258 10.755035400390625 C14.273456573486328 8.98834228515625 12.463800430297852 9.213346481323242 10.515128135681152 9.430907249450684 C9.819350242614746 9.508587837219238 8.69728946685791 9.723566055297852 8.859833717346191 10.856374740600586 C8.99229621887207 11.779540061950684 10.252503395080566 11.65915584564209 10.781848907470703 11.687280654907227 C11.847434997558594 11.743896484375 13.506278991699219 11.537564277648926 14.916565895080566 11.719283103942871 C16.326852798461914 11.901002883911133 17.488582611083984 12.47077465057373 17.559938430786133 14.07960033416748 C17.58711814880371 14.69239330291748 17.523401260375977 15.37385368347168 17.175785064697266 15.879241943359375 C16.876419067382812 16.31447982788086 16.300670623779297 16.51008415222168 15.791479110717773 16.650707244873047 C14.001596450805664 17.14501953125 10.518199920654297 17.128385543823242 8.705541610717773 16.733768463134766 C8.15758228302002 16.614477157592773 7.473111629486084 16.539169311523438 7.157129287719727 16.07587242126465 C6.786108016967773 15.531876564025879 6.998602390289307 14.768500328063965 6.919338703155518 14.114813804626465 L6.919338703155518 14.114813804626465 C7.50909423828125 14.114813804626465 8.09885025024414 14.114813804626465 8.688605308532715 14.114813804626465 L8.688605308532715 14.114813804626465 C9.722274780273438 15.903621673583984 11.94409465789795 15.549490928649902 13.880819320678711 15.298625946044922 C14.547650337219238 15.212250709533691 15.514355659484863 15.079663276672363 15.412732124328613 14.082557678222656 C15.325372695922852 13.225412368774414 13.757326126098633 13.265277862548828 13.416325569152832 13.236632347106934 C11.77930736541748 13.099115371704102 8.751449584960938 13.812562942504883 7.382284641265869 12.63236141204834 C6.379086494445801 11.767618179321289 6.503207683563232 9.258255004882812 7.570610523223877 8.484658241271973 C9.247004508972168 7.269696235656738 12.979246139526367 7.854087829589844 14.91356372833252 7.925874710083008 L14.91356372833252 7.925874710083008"></path></svg>