<svg xmlns="http://www.w3.org/2000/svg" viewBox="0.0 0.0 24.0 24.0" height="200px" width="200px"><path fill="none" stroke="black" stroke-width=".3" stroke-opacity="1.0"  filling="0" d="M21.44507598876953 5.954344749450684 C19.17384147644043 8.069804191589355 17.026126861572266 10.06981372833252 14.661938667297363 12.271435737609863 C17.33555030822754 14.896235466003418 19.660686492919922 17.17892837524414 22.111465454101562 19.585134506225586 C19.45313262939453 20.100418090820312 17.35422706604004 19.894983291625977 15.745559692382812 17.677656173706055 C14.81007194519043 16.388601303100586 13.555397987365723 15.33087158203125 12.106749534606934 13.816009521484375 C10.758272171020508 15.33087158203125 9.526941299438477 16.593610763549805 8.43907642364502 17.968830108642578 C7.284996509552002 19.428089141845703 5.8860087394714355 20.069435119628906 4.045593738555908 19.794815063476562 C3.6338768005371094 19.7332706451416 3.2051820755004883 19.785900115966797 2.954331398010254 19.785900115966797 C5.1279401779174805 17.563480377197266 7.3520588874816895 15.290550231933594 9.849947929382324 12.73705768585205 C7.290089130401611 10.315145492553711 5.148737907409668 8.290094375610352 2.91146183013916 6.173361301422119 C6.019285678863525 5.360538959503174 6.7675909996032715 5.532016754150391 8.666581153869629 7.462416172027588 C9.800287246704102 8.614373207092285 10.896217346191406 9.802833557128906 12.18060302734375 11.155556678771973 C13.408536911010742 9.915738105773926 14.618220329284668 8.937379837036133 15.520176887512207 7.729395389556885 C17.04904556274414 5.680998802185059 19.005762100219727 5.496363162994385 21.44507598876953 5.954344749450684"></path></svg>