<svg xmlns="http://www.w3.org/2000/svg" viewBox="0.0 0.0 24.0 24.0" height="200px" width="200px"><path fill="none" stroke="black" stroke-width=".3" stroke-opacity="1.0"  filling="0" d="M8.229484558105469 3.4237184524536133 C11.438508033752441 7.510073184967041 14.817985534667969 11.813505172729492 18.197460174560547 16.117435455322266 C18.386966705322266 16.091869354248047 18.576467514038086 16.066802978515625 18.765972137451172 16.04123306274414 C18.765972137451172 14.771862983703613 18.789535522460938 13.501989364624023 18.75995445251465 12.233118057250977 C18.724361419677734 10.733133316040039 18.636629104614258 9.23465347290039 18.58248519897461 7.734669208526611 C18.519817352294922 6.007582187652588 18.64164161682129 4.180728912353516 16.28688621520996 3.5375213623046875 C18.03202247619629 3.5375213623046875 19.777156829833984 3.5375213623046875 21.927370071411133 3.5375213623046875 C19.64982032775879 4.815414905548096 19.983205795288086 6.818736553192139 19.942598342895508 8.687701225280762 C19.86689567565918 12.188499450683594 19.82779312133789 15.689801216125488 19.778661727905273 19.19110107421875 C19.76763343811035 19.982702255249023 19.777158737182617 20.77480697631836 19.777158737182617 21.566410064697266 C19.534513473510742 21.663169860839844 19.2918701171875 21.760425567626953 19.049224853515625 21.85718536376953 C15.076170921325684 16.979225158691406 11.103117942810059 12.100767135620117 6.943568706512451 6.993200302124023 C6.943568706512451 11.225943565368652 6.856337070465088 15.040576934814453 7.0217766761779785 18.843677520751953 C7.052357196807861 19.550556182861328 8.100642204284668 20.213314056396484 8.81403636932373 21.056055068969727 C7.084943771362305 21.056055068969727 5.312736511230469 21.056055068969727 3.5405282974243164 21.056055068969727 C5.877737522125244 20.174713134765625 5.446091175079346 18.13028335571289 5.503744602203369 16.329999923706055 C5.594986438751221 13.496475219726562 5.674196720123291 10.660441398620605 5.656650543212891 7.826414108276367 C5.640608310699463 5.310230255126953 5.2901763916015625 4.89312219619751 2.7273693084716797 3.888453483581543 C4.623405456542969 3.7285280227661133 6.246717929840088 3.5911636352539062 8.229484558105469 3.4237184524536133"></path></svg>