<svg xmlns="http://www.w3.org/2000/svg" viewBox="0.0 0.0 24.0 24.0" height="200px" width="200px"><path fill="none" stroke="black" stroke-width=".3" stroke-opacity="1.0"  filling="0" d="M18.699665069580078 7.998912811279297 C20.52438735961914 8.432339668273926 21.508350372314453 9.859277725219727 21.529354095458984 11.771193504333496 C21.566904067993164 15.25133991241455 21.540172576904297 18.73276138305664 21.540172576904297 22.49358558654785 C19.977035522460938 22.296283721923828 18.378890991210938 23.550739288330078 17.309642791748047 21.48480224609375 C13.506175994873047 23.524011611938477 9.376206398010254 22.899646759033203 5.327702045440674 22.463037490844727 C3.198117256164551 22.2332763671875 2.4050912857055664 20.790428161621094 2.3535385131835938 18.265602111816406 C2.294984817504883 15.377996444702148 2.881161689758301 14.219008445739746 5.197228908538818 13.655744552612305 C9.145808219909668 12.694692611694336 13.126847267150879 12.696602821350098 17.54131507873535 14.033162117004395 C17.259363174438477 12.711240768432617 17.067153930664062 11.809381484985352 16.836755752563477 10.72740364074707 C13.443802833557129 10.248151779174805 10.244970321655273 9.254643440246582 7.040408134460449 11.427507400512695 C6.13663911819458 12.040414810180664 4.625690460205078 11.75719165802002 3.2299394607543945 11.902303695678711 C2.881161689758301 9.540410995483398 4.149620532989502 8.442523002624512 5.813318729400635 8.010369300842285 C10.081399917602539 6.901660919189453 14.424583435058594 6.983763694763184 18.699665069580078 7.998912811279297"></path>
<path fill="none" stroke="black" stroke-width=".3" stroke-opacity="1.0"  filling="0" d="M15.70068073272705 16.013816833496094 C16.265853881835938 16.052005767822266 17.226266860961914 17.099613189697266 17.183624267578125 17.615144729614258 C17.121889114379883 18.359161376953125 16.4478816986084 19.43795394897461 15.790420532226562 19.664535522460938 C14.534689903259277 20.09732437133789 13.105844497680664 20.029224395751953 12.065874099731445 20.136150360107422 C10.579109191894531 20.049591064453125 9.346292495727539 20.20361328125 8.293593406677246 19.838924407958984 C7.578215599060059 19.59134292602539 6.683356761932373 18.63156509399414 6.661080837249756 17.96328353881836 C6.639441013336182 17.31346321105957 7.5782151222229 16.105464935302734 8.177757263183594 16.051368713378906 C10.670124053955078 15.826062202453613 13.200677871704102 15.843246459960938 15.70068073272705 16.013816833496094"></path></svg>