<svg xmlns="http://www.w3.org/2000/svg" viewBox="0.0 0.0 24.0 24.0" height="200px" width="200px"><path fill="none" stroke="black" stroke-width=".3" stroke-opacity="1.0"  filling="0" d="M10.722602844238281 6.864811420440674 L10.722602844238281 6.864811420440674 C10.719949722290039 8.79487419128418 10.458041191101074 10.600751876831055 11.290705680847168 12.363433837890625 L11.265557289123535 12.332831382751465 C10.548521995544434 14.363410949707031 10.650925636291504 15.415374755859375 11.465529441833496 17.40393829345703 L11.465529441833496 17.40393829345703 C10.601814270019531 17.490816116333008 9.738097190856934 17.577674865722656 8.874378204345703 17.664508819580078 L8.874378204345703 17.664508819580078 C9.186020851135254 15.98822021484375 9.290410995483398 14.3510103225708 9.28980541229248 12.709757804870605 C9.289199829101562 11.06850528717041 9.183598518371582 9.423210144042969 9.0752592086792 7.730750560760498 L9.0752592086792 7.730750560760498 C9.624373435974121 7.442104339599609 10.17348861694336 7.1534576416015625 10.722602844238281 6.864811420440674 L10.722602844238281 6.864811420440674"></path>
<path fill="none" stroke="black" stroke-width=".3" stroke-opacity="1.0"  filling="0" d="M12.225120544433594 11.712615966796875 L12.225120544433594 11.712615966796875 C12.780660629272461 11.686495780944824 13.407301902770996 11.361078262329102 13.891741752624512 11.634255409240723 C15.211319923400879 12.378369331359863 14.928197860717773 16.168548583984375 15.148346900939941 17.469688415527344 L15.148346900939941 17.469688415527344 C14.341590881347656 17.469688415527344 13.534835815429688 17.469688415527344 12.728079795837402 17.469688415527344 L12.728079795837402 17.469688415527344 C13.647393226623535 15.416172981262207 14.049861907958984 12.705698013305664 11.265254974365234 12.3334379196167 L11.29040241241455 12.363433837890625 C11.601975440979004 12.14649486541748 11.91354751586914 11.92955493927002 12.225120544433594 11.712615966796875 L12.225120544433594 11.712615966796875"></path></svg>