<svg xmlns="http://www.w3.org/2000/svg" viewBox="0.0 0.0 24.0 24.0" height="200px" width="200px"><path fill="none" stroke="black" stroke-width=".3" stroke-opacity="1.0"  filling="0" d="M9.746076583862305 10.883487701416016 L9.746076583862305 10.883487701416016 C10.237964630126953 11.44784927368164 10.729828834533691 12.01223087310791 11.221665382385254 12.576637268066406 L11.179361343383789 12.515701293945312 C10.61446762084961 14.020130157470703 10.377636909484863 15.354781150817871 10.400507926940918 16.69307518005371 C10.423379898071289 18.031370162963867 10.705952644348145 19.373308181762695 11.179864883422852 20.892311096191406 L11.179864883422852 20.892311096191406 C9.86492919921875 20.892311096191406 8.549993515014648 20.892311096191406 7.235057353973389 20.892311096191406 L7.235057353973389 20.892311096191406 C7.745611190795898 19.303741455078125 8.017655372619629 17.90774917602539 8.009797096252441 16.51776885986328 C8.001938819885254 15.127785682678223 7.714178085327148 13.743814468383789 7.1051249504089355 12.179286003112793 L7.1051249504089355 12.179286003112793 C7.985439777374268 11.747347831726074 8.86575698852539 11.315415382385254 9.746076583862305 10.883487701416016 L9.746076583862305 10.883487701416016"></path>
<path fill="none" stroke="black" stroke-width=".3" stroke-opacity="1.0"  filling="0" d="M14.678974151611328 11.128747940063477 L14.678974151611328 11.128747940063477 C15.175285339355469 11.491266250610352 15.820446968078613 11.709335327148438 16.16790771484375 12.216301918029785 C16.778112411499023 13.10662841796875 16.909107208251953 14.473260879516602 16.886232376098633 15.870875358581543 C16.863357543945312 17.268489837646484 16.686614990234375 18.697086334228516 16.68134307861328 19.71133804321289 L16.68134307861328 19.71133804321289 C17.08070945739746 19.91630744934082 17.480073928833008 20.121278762817383 17.879440307617188 20.326248168945312 L17.879440307617188 20.326248168945312 C17.887666702270508 20.46608543395996 17.895891189575195 20.60592269897461 17.904117584228516 20.745759963989258 L17.904117584228516 20.745759963989258 C17.841203689575195 20.75048065185547 14.089004516601562 21.032062530517578 13.924560546875 21.044404983520508 L13.924560546875 21.044404983520508 C14.077715873718262 19.225095748901367 14.37239933013916 17.3314266204834 14.309320449829102 15.502132415771484 C14.273137092590332 14.452816009521484 14.433387756347656 13.233551979064941 13.202228546142578 12.769411087036133 C12.566012382507324 12.529561042785645 11.852978706359863 12.599936485290527 11.178353309631348 12.515198707580566 L11.221160888671875 12.576637268066406 C12.386631965637207 11.15676498413086 12.8538818359375 10.962316513061523 14.678974151611328 11.128747940063477 L14.678974151611328 11.128747940063477"></path></svg>