<svg xmlns="http://www.w3.org/2000/svg" viewBox="0.0 0.0 24.0 24.0" height="200px" width="200px"><path fill="none" stroke="black" stroke-width=".3" stroke-opacity="1.0"  filling="0" d="M12.502211570739746 7.936323642730713 C12.794102668762207 9.20944595336914 13.002023696899414 10.115506172180176 13.264326095581055 11.257478713989258 C14.838135719299316 11.257478713989258 16.395151138305664 11.257478713989258 18.18328094482422 11.257478713989258 C17.605897903442383 14.80894660949707 14.4158935546875 12.334673881530762 12.673347473144531 13.847707748413086 C12.673347473144531 16.06767463684082 12.638160705566406 18.289241790771484 12.681344985961914 20.50840950012207 C12.758115768432617 24.492515563964844 13.245133399963379 24.90995979309082 17.625890731811523 25.339397430419922 C16.121654510498047 25.943172454833984 14.663002014160156 26.8420352935791 13.10278606414795 27.081146240234375 C10.713282585144043 27.44820785522461 9.129877090454102 25.96556282043457 8.98992919921875 23.388927459716797 C8.868374824523926 21.148170471191406 9.157865524291992 18.88581657409668 9.069099426269531 16.64105987548828 C9.016319274902344 15.315954208374023 8.580482482910156 14.006047248840332 8.163039207458496 11.92442798614502 C9.24183464050293 10.933599472045898 10.686092376708984 9.605298042297363 12.502211570739746 7.936323642730713"></path></svg>