<svg xmlns="http://www.w3.org/2000/svg" viewBox="0.0 0.0 24.0 24.0" height="200px" width="200px"><path fill="none" stroke="black" stroke-width=".3" stroke-opacity="1.0"  filling="0" d="M14.736337661743164 7.1042866706848145 L14.736337661743164 7.1042866706848145 C14.736337661743164 8.866336822509766 14.736337661743164 10.628386497497559 14.736337661743164 12.390436172485352 C14.736337661743164 14.152485847473145 14.736337661743164 15.914535522460938 14.736337661743164 17.676586151123047 L14.736337661743164 17.676586151123047 C14.622415542602539 17.676586151123047 12.56164264678955 17.676586151123047 12.47213363647461 17.676586151123047 L12.47213363647461 17.676586151123047 C12.47213363647461 16.207908630371094 12.47213363647461 14.73923397064209 12.47213363647461 13.270559310913086 C12.47213363647461 11.801883697509766 12.47213363647461 10.333208084106445 12.47213363647461 8.864531517028809 L12.47213363647461 8.864531517028809 C11.092692375183105 9.839187622070312 9.713247299194336 10.813843727111816 8.333833694458008 11.78853988647461 L8.333833694458008 11.78853988647461 C7.943068981170654 11.250897407531738 7.552304744720459 10.71325397491455 7.1615400314331055 10.17561149597168 L7.1615400314331055 10.17561149597168 C8.4815673828125 9.275951385498047 9.535823822021484 8.414730072021484 10.679795265197754 7.825119972229004 C11.823766708374023 7.235508918762207 13.057453155517578 6.917508125305176 14.736337661743164 7.1042866706848145 L14.736337661743164 7.1042866706848145"></path></svg>