<svg xmlns="http://www.w3.org/2000/svg" viewBox="0.0 0.0 24.0 24.0" height="200px" width="200px"><path fill="none" stroke="black" stroke-width=".3" stroke-opacity="1.0"  filling="0" d="M11.418073654174805 3.053715705871582 C15.864233016967773 2.197371482849121 18.980567932128906 4.672721862792969 19.036571502685547 9.186086654663086 C19.090030670166016 13.49528980255127 17.494441986083984 17.095291137695312 13.99626636505127 19.935171127319336 C15.159101486206055 20.48094940185547 16.165634155273438 20.95392608642578 17.172168731689453 21.4263916015625 C17.11565589904785 21.646331787109375 17.05863380432129 21.86627197265625 17.002120971679688 22.086212158203125 C15.22935962677002 21.78226661682129 13.446924209594727 21.522104263305664 11.686890602111816 21.15655517578125 C10.698684692382812 20.951379776000977 9.760374069213867 20.51455307006836 8.776241302490234 20.282394409179688 C6.423079967498779 19.72796058654785 5.130419731140137 18.170047760009766 4.759270191192627 15.896820068359375 C4.240475177764893 12.718372344970703 4.695120811462402 9.649895668029785 6.24692440032959 6.786594867706299 C7.370047092437744 4.71396017074585 9.113279342651367 3.4976682662963867 11.418073654174805 3.053715705871582"></path>
<path fill="none" stroke="black" stroke-width=".3" stroke-opacity="1.0"  filling="0" d="M11.814680099487305 6.0183281898498535 C14.486041069030762 5.960288047790527 15.8677978515625 6.994314670562744 16.12592124938965 8.92032241821289 C16.52965545654297 11.93075942993164 15.585744857788086 14.592957496643066 13.463215827941895 16.747051239013672 C12.303436279296875 17.92363166809082 10.75977897644043 18.1817569732666 9.244633674621582 17.52651596069336 C7.7666521072387695 16.887569427490234 7.059991359710693 15.517011642456055 7.335935592651367 14.012048721313477 C7.707594394683838 11.983708381652832 8.16325855255127 9.879507064819336 9.106152534484863 8.082307815551758 C9.675350189208984 6.997368812561035 11.23631763458252 6.432243824005127 11.814680099487305 6.0183281898498535"></path></svg>