<svg xmlns="http://www.w3.org/2000/svg" viewBox="0.0 0.0 24.0 24.0" height="200px" width="200px"><path fill="none" stroke="black" stroke-width=".3" stroke-opacity="1.0"  filling="0" d="M19.415822982788086 4.6582512855529785 C19.415822982788086 7.945724964141846 19.415822982788086 11.162050247192383 19.415822982788086 14.5104398727417 C20.332963943481445 14.657124519348145 21.091236114501953 14.77895450592041 21.944538116455078 14.915403366088867 C21.944538116455078 15.674163818359375 21.944538116455078 16.35885238647461 21.944538116455078 17.163421630859375 C21.140945434570312 17.277942657470703 20.443096160888672 17.377355575561523 19.620983123779297 17.494800567626953 C19.526931762695312 18.480165481567383 19.43775177001953 19.41192626953125 19.336875915527344 20.46308135986328 C18.27402687072754 20.46308135986328 17.2677059173584 20.46308135986328 16.122013092041016 20.46308135986328 C16.059146881103516 19.51816177368164 16.002132415771484 18.660476684570312 15.926595687866211 17.519166946411133 C11.565552711486816 17.519166946411133 7.309280872344971 17.519166946411133 3.0305938720703125 17.519166946411133 C2.46091365814209 14.71560287475586 2.525728225708008 12.62109375 5.269838809967041 11.13963508605957 C7.822431564331055 9.76148796081543 10.227852821350098 8.026620864868164 12.460275650024414 6.163588523864746 C14.557709693908691 4.4136152267456055 16.78623390197754 4.313714504241943 19.415822982788086 4.6582512855529785"></path>
<path fill="none" stroke="black" stroke-width=".3" stroke-opacity="1.0"  filling="0" d="M15.88176441192627 7.38920259475708 C15.88176441192627 9.95885181427002 15.88176441192627 12.167394638061523 15.88176441192627 14.625448226928711 C12.531425476074219 14.625448226928711 9.343851089477539 14.625448226928711 5.523246765136719 14.625448226928711 C9.20301628112793 12.054823875427246 12.40325927734375 9.818990707397461 15.88176441192627 7.38920259475708"></path></svg>