<svg xmlns="http://www.w3.org/2000/svg" viewBox="0.0 0.0 24.0 24.0" height="200px" width="200px"><path fill="none" stroke="black" stroke-width=".3" stroke-opacity="1.0"  filling="0" d="M15.52463150024414 7.380934715270996 L15.52463150024414 7.380934715270996 C13.229317665100098 8.663650512695312 11.665124893188477 9.264236450195312 11.204168319702148 11.927501678466797 L11.204168319702148 11.927501678466797 C11.92452621459961 11.681775093078613 13.289886474609375 11.159603118896484 13.9423246383667 11.320941925048828 C16.142019271850586 11.86489486694336 16.42540168762207 14.018693923950195 15.637733459472656 15.779549598693848 C14.850065231323242 17.5404052734375 12.99134635925293 18.90831756591797 10.906841278076172 17.8804931640625 C9.450201034545898 17.162256240844727 8.907215118408203 15.607870101928711 8.938082695007324 13.979696273803711 C8.968949317932129 12.351522445678711 9.573667526245117 10.649561882019043 10.412434577941895 9.636176109313965 C11.8075590133667 7.950606346130371 13.482950210571289 7.646634578704834 15.52463150024414 7.380934715270996 L15.52463150024414 7.380934715270996"></path>
<path fill="none" stroke="black" stroke-width=".3" stroke-opacity="1.0"  filling="0" d="M10.894641876220703 12.740877151489258 L10.894641876220703 12.740877151489258 C11.503653526306152 12.612845420837402 12.11220932006836 12.230941772460938 12.72167682647705 12.356782913208008 C14.350772857666016 12.693155288696289 14.684685707092285 14.576406478881836 14.297797203063965 15.970489501953125 C13.910909652709961 17.364572525024414 12.803220748901367 18.269487380981445 11.549117088317871 16.649188995361328 C11.279272079467773 16.30055046081543 11.14059066772461 15.861966133117676 11.014039039611816 15.439651489257812 C10.676168441772461 14.312148094177246 10.81363582611084 13.904060363769531 10.894641876220703 12.740877151489258 L10.894641876220703 12.740877151489258"></path></svg>