<svg xmlns="http://www.w3.org/2000/svg" viewBox="0.0 0.0 24.0 24.0" height="200px" width="200px"><path fill="none" stroke="black" stroke-width=".3" stroke-opacity="1.0"  filling="0" d="M5.265884876251221 4.359857082366943 C9.75316047668457 4.244078636169434 14.247332572937012 4.270683288574219 18.734607696533203 4.403705596923828 C19.391342163085938 4.423412322998047 20.214599609375 5.1358184814453125 20.630416870117188 5.750675678253174 C21.784751892089844 7.457791328430176 21.226058959960938 10.450785636901855 19.628808975219727 11.96723747253418 C21.385684967041016 13.731502532958984 22.065082550048828 16.31951904296875 20.938339233398438 18.377910614013672 C20.4604434967041 19.251422882080078 19.267187118530273 20.23578643798828 18.353771209716797 20.282588958740234 C14.106427192687988 20.499858856201172 9.82164192199707 20.674264907836914 5.593021392822266 20.33382797241211 C2.5625839233398438 20.089954376220703 1.2707910537719727 15.673624038696289 3.2040443420410156 13.087085723876953 C3.491765022277832 12.702799797058105 3.899700164794922 12.408181190490723 4.253439903259277 12.070205688476562 C2.604952812194824 10.469015121459961 2.007338523864746 7.538097381591797 3.1468944549560547 5.788119316101074 C3.5848817825317383 5.115619659423828 4.5327863693237305 4.3785786628723145 5.265884876251221 4.359857082366943"></path>
<path fill="none" stroke="black" stroke-width=".3" stroke-opacity="1.0"  filling="0" d="M7.99185037612915 6.708927631378174 C10.685298919677734 6.6685285568237305 13.380719184875488 6.670499324798584 16.073183059692383 6.736517906188965 C17.156078338623047 6.763121604919434 17.623626708984375 7.540562152862549 17.6536808013916 8.564830780029297 C17.687673568725586 9.72458553314209 17.08316421508789 10.512371063232422 15.96922779083252 10.617803573608398 C14.59023380279541 10.748854637145996 13.189068794250488 10.649334907531738 11.797758102416992 10.649334907531738 C11.797758102416992 10.66510009765625 11.797758102416992 10.68037223815918 11.797758102416992 10.695646286010742 C10.569520950317383 10.695646286010742 9.334386825561523 10.775459289550781 8.114526748657227 10.672983169555664 C6.920776844024658 10.572477340698242 6.177331924438477 9.9398832321167 6.204921245574951 8.587986946105957 C6.230047702789307 7.365169525146484 6.841948986053467 6.726171493530273 7.99185037612915 6.708927631378174"></path>
<path fill="none" stroke="black" stroke-width=".3" stroke-opacity="1.0"  filling="0" d="M7.756845474243164 13.462503433227539 C10.528136253356934 13.379241943359375 13.307311058044434 13.348695755004883 16.075647354125977 13.466937065124512 C17.322111129760742 13.520146369934082 17.79507827758789 14.47642707824707 17.764039993286133 15.734222412109375 C17.731029510498047 17.060501098632812 17.078237533569336 17.671417236328125 15.826353073120117 17.762561798095703 C14.442431449890137 17.86355972290039 13.058016777038574 17.953227996826172 11.893828392028809 18.032546997070312 C10.360628128051758 17.91282844543457 9.057011604309082 17.820697784423828 7.755367755889893 17.706890106201172 C6.371446132659912 17.586185455322266 6.038891315460205 16.58802604675293 6.023618221282959 15.452905654907227 C6.008837699890137 14.328130722045898 6.617290496826172 13.496990203857422 7.756845474243164 13.462503433227539"></path></svg>