<svg xmlns="http://www.w3.org/2000/svg" viewBox="0.0 0.0 24.0 24.0" height="200px" width="200px"><path fill="none" stroke="black" stroke-width=".3" stroke-opacity="1.0"  filling="0" d="M11.536321640014648 3.072641372680664 C17.558032989501953 3.339599609375 21.67373275756836 7.261202335357666 21.708126068115234 12.45639419555664 C21.740764617919922 17.411441802978516 17.31322479248047 21.778362274169922 11.64940071105957 22.150821685791016 C8.767651557922363 22.34025764465332 5.863170623779297 22.184045791625977 2.8689260482788086 22.184045791625977 C5.0518035888671875 19.479490280151367 5.02091121673584 6.037158489227295 2.6252822875976562 3.4311113357543945 C5.78739595413208 3.28830623626709 8.67205810546875 2.9455738067626953 11.536321640014648 3.072641372680664"></path>
<path fill="none" stroke="black" stroke-width=".3" stroke-opacity="1.0"  filling="0" d="M6.9852094650268555 4.489035129547119 C11.700109481811523 3.198542594909668 15.252751350402832 4.190601348876953 17.341785430908203 7.236721515655518 C19.446557998657227 10.304408073425293 19.297340393066406 15.179598808288574 17.007795333862305 18.1662654876709 C14.761967658996582 21.09697723388672 11.037960052490234 22.12109375 6.9852094650268555 20.62601089477539 C6.9852094650268555 15.183096885681152 6.9852094650268555 9.800801277160645 6.9852094650268555 4.489035129547119"></path></svg>