<svg xmlns="http://www.w3.org/2000/svg" viewBox="0.0 0.0 24.0 24.0" height="200px" width="200px"><path fill="none" stroke="black" stroke-width=".3" stroke-opacity="1.0"  filling="0" d="M6.5857954025268555 7.813941955566406 L6.5857954025268555 7.813941955566406 C6.928564071655273 7.813941955566406 7.27133321762085 7.813941955566406 7.614101886749268 7.813941955566406 L7.614101886749268 7.813941955566406 C7.614101886749268 9.148808479309082 7.614101886749268 10.483675956726074 7.614101886749268 11.81854248046875 L7.614101886749268 11.81854248046875 C9.057406425476074 11.81854248046875 10.500711441040039 11.81854248046875 11.944016456604004 11.81854248046875 C13.387321472167969 11.81854248046875 14.830626487731934 11.81854248046875 16.2739315032959 11.81854248046875 L16.2739315032959 11.81854248046875 C16.2739315032959 10.484047889709473 16.2739315032959 9.149550437927246 16.2739315032959 7.815055847167969 L16.2739315032959 7.815055847167969 C16.64455223083496 7.815055847167969 17.015174865722656 7.815055847167969 17.38579559326172 7.815055847167969 L17.38579559326172 7.815055847167969 C17.38579559326172 9.317361831665039 17.38579559326172 10.819665908813477 17.38579559326172 12.321971893310547 C17.38579559326172 13.8242769241333 17.38579559326172 15.326581954956055 17.38579559326172 16.828887939453125 L17.38579559326172 16.828887939453125 C17.042375564575195 16.828887939453125 16.698957443237305 16.828887939453125 16.35553741455078 16.828887939453125 L16.35553741455078 16.828887939453125 C16.35553741455078 15.504140853881836 16.35553741455078 14.179393768310547 16.35553741455078 12.854646682739258 L16.35553741455078 12.854646682739258 C14.908287048339844 12.854646682739258 13.461036682128906 12.854646682739258 12.013785362243652 12.854646682739258 C10.566534996032715 12.854646682739258 9.119283676147461 12.854646682739258 7.672033786773682 12.854646682739258 L7.672033786773682 12.854646682739258 C7.672033786773682 14.183756828308105 7.672033786773682 15.51286792755127 7.672033786773682 16.841978073120117 L7.672033786773682 16.841978073120117 C7.3099541664123535 16.862125396728516 6.947875022888184 16.88227081298828 6.5857954025268555 16.90241813659668 L6.5857954025268555 16.90241813659668 C6.5857954025268555 15.387672424316406 6.5857954025268555 13.872926712036133 6.5857954025268555 12.358180046081543 C6.5857954025268555 10.843433380126953 6.5857954025268555 9.32868766784668 6.5857954025268555 7.813941955566406 L6.5857954025268555 7.813941955566406"></path></svg>