<svg xmlns="http://www.w3.org/2000/svg" viewBox="0.0 0.0 24.0 24.0" height="200px" width="200px"><path fill="none" stroke="black" stroke-width=".3" stroke-opacity="1.0"  filling="0" d="M19.75995635986328 6.686458110809326 C20.528663635253906 6.686458110809326 21.19269561767578 6.686458110809326 21.98453712463379 6.686458110809326 C21.98453712463379 10.67579174041748 21.98453712463379 14.610769271850586 21.98453712463379 18.6390323638916 C21.598899841308594 18.66878318786621 21.254396438598633 18.695592880249023 20.72956085205078 18.735992431640625 C20.72956085205078 15.286920547485352 20.72956085205078 11.897344589233398 20.72956085205078 8.036190032958984 C20.12539291381836 8.713077545166016 19.79741859436035 9.018281936645508 19.542530059814453 9.375639915466309 C17.592304229736328 12.110732078552246 15.660074234008789 14.858678817749023 13.715354919433594 17.597442626953125 C12.570561408996582 19.20941162109375 12.196309089660645 19.227039337158203 11.074285507202148 17.66318702697754 C9.18686294555664 15.033502578735352 7.325516223907471 12.385087013244629 5.450581073760986 9.746587753295898 C5.140233516693115 9.311367988586426 4.8170318603515625 8.88496208190918 4.177607536315918 8.497488021850586 C4.177607536315918 11.856578826904297 4.177607536315918 15.215670585632324 4.177607536315918 18.6386661529541 C3.590703010559082 18.668415069580078 3.2480363845825195 18.68567657470703 2.7845354080200195 18.709182739257812 C2.7845354080200195 14.697077751159668 2.7845354080200195 10.761734008789062 2.7845354080200195 6.790029525756836 C4.446819305419922 6.265928745269775 5.309547424316406 6.941713809967041 6.120855808258057 8.154821395874023 C8.082100868225098 11.088608741760254 10.181808471679688 13.929475784301758 12.381781578063965 17.027435302734375 C14.936175346374512 13.447244644165039 17.360919952392578 10.04885482788086 19.75995635986328 6.686458110809326"></path></svg>