<svg xmlns="http://www.w3.org/2000/svg" viewBox="0.0 0.0 24.0 24.0" height="200px" width="200px"><path fill="none" stroke="black" stroke-width=".3" stroke-opacity="1.0"  filling="0" d="M15.430163383483887 3.1053600311279297 C18.229028701782227 3.729776382446289 19.309919357299805 4.91528844833374 18.1189022064209 7.2846598625183105 C16.60686492919922 6.887103080749512 15.16530990600586 6.3337178230285645 13.680253982543945 6.168528079986572 C12.334508895874023 6.019306659698486 11.122015953063965 6.640970230102539 10.701333999633789 8.088032722473145 C10.238251686096191 9.681012153625488 11.324098587036133 10.424365043640137 12.52943229675293 11.037219047546387 C12.773913383483887 11.161111831665039 13.040419578552246 11.240403175354004 13.288204193115234 11.358237266540527 C16.460397720336914 12.864767074584961 17.373897552490234 14.303570747375488 16.87942886352539 17.00717544555664 C16.37394905090332 19.771900177001953 14.089924812316895 21.965621948242188 11.205162048339844 22.127506256103516 C9.976150512695312 22.196334838867188 8.638113975524902 21.91000747680664 7.488393306732178 21.442520141601562 C5.823281288146973 20.766342163085938 5.5716423988342285 19.40407943725586 6.507717132568359 17.64480972290039 C7.971848487854004 19.048370361328125 9.516923904418945 19.752628326416016 11.383016586303711 19.40407943725586 C12.737571716308594 19.150787353515625 13.758443832397461 18.465801239013672 14.005678176879883 16.979093551635742 C14.248507499694824 15.519918441772461 13.409894943237305 14.778767585754395 12.215022087097168 14.271084785461426 C11.711193084716797 14.056888580322266 11.197453498840332 13.864167213439941 10.706289291381836 13.623540878295898 C6.895362377166748 11.755243301391602 6.267641544342041 7.80886173248291 9.348979949951172 4.884453296661377 C11.053738594055176 3.266695022583008 13.153299331665039 2.597126007080078 15.430163383483887 3.1053600311279297"></path></svg>