<svg xmlns="http://www.w3.org/2000/svg" viewBox="0.0 0.0 24.0 24.0" height="200px" width="200px"><path fill="none" stroke="black" stroke-width=".3" stroke-opacity="1.0"  filling="0" d="M9.60978889465332 2.9207544326782227 C9.60978889465332 6.1925787925720215 9.60978889465332 9.117782592773438 9.60978889465332 12.318422317504883 C10.590514183044434 12.023820877075195 11.253092765808105 11.84037971496582 11.905815124511719 11.62682056427002 C15.070313453674316 10.591336250305176 18.222217559814453 13.198392868041992 17.852596282958984 16.551259994506836 C17.528972625732422 19.482486724853516 14.960247993469238 21.94005012512207 11.996713638305664 22.089542388916016 C10.735624313354492 22.15306282043457 9.469606399536133 22.099946975708008 7.69761848449707 22.099946975708008 C7.69761848449707 17.313499450683594 7.739234924316406 12.955812454223633 7.671881675720215 8.59921932220459 C7.6521687507629395 7.306368350982666 7.326902866363525 6.018446445465088 7.087608337402344 4.355976581573486 C7.577696800231934 4.0772552490234375 8.413312911987305 3.60140323638916 9.60978889465332 2.9207544326782227"></path>
<path fill="none" stroke="black" stroke-width=".3" stroke-opacity="1.0"  filling="0" d="M10.888400077819824 12.759228706359863 C12.583725929260254 12.336492538452148 14.33216667175293 13.104755401611328 15.277847290039062 14.726704597473145 C16.282669067382812 16.451053619384766 16.21148109436035 18.828121185302734 14.827733039855957 20.038288116455078 C14.090682029724121 20.682247161865234 12.796736717224121 21.324565887451172 11.999452590942383 21.099510192871094 C11.062533378601074 20.83502197265625 10.191324234008789 19.739303588867188 9.669474601745605 18.79526710510254 C9.269189834594727 18.070262908935547 9.453178405761719 17.02218246459961 9.37761116027832 16.120309829711914 C9.671117782592773 14.888788223266602 8.923115730285645 13.248769760131836 10.888400077819824 12.759228706359863"></path></svg>