<svg xmlns="http://www.w3.org/2000/svg" viewBox="0.0 0.0 24.0 24.0" height="200px" width="200px"><path fill="none" stroke="black" stroke-width=".3" stroke-opacity="1.0"  filling="0" d="M10.655506134033203 6.8929243087768555 L10.655506134033203 6.8929243087768555 C10.655506134033203 8.654984474182129 10.655506134033203 10.41705322265625 10.655506134033203 12.179112434387207 L10.655506134033203 12.179112434387207 C11.61719036102295 11.889437675476074 12.602375030517578 11.446697235107422 13.651586532592773 11.830254554748535 C16.191265106201172 12.758678436279297 15.438304901123047 16.0958194732666 13.55256462097168 17.196731567382812 C12.359179496765137 17.89344024658203 10.88277816772461 17.69158172607422 9.579910278320312 17.68121910095215 L9.579910278320312 17.68121910095215 C9.582490921020508 16.016162872314453 9.63316822052002 14.344537734985352 9.614969253540039 12.677366256713867 C9.596771240234375 11.010193824768066 9.509698867797852 9.347476959228516 9.236780166625977 7.700237274169922 L9.236780166625977 7.700237274169922 C9.709689140319824 7.431132793426514 10.182597160339355 7.162028789520264 10.655506134033203 6.8929243087768555 L10.655506134033203 6.8929243087768555"></path>
<path fill="none" stroke="black" stroke-width=".3" stroke-opacity="1.0"  filling="0" d="M11.374725341796875 12.4270658493042 L11.374725341796875 12.4270658493042 C12.55610466003418 12.530601501464844 13.149520874023438 12.298211097717285 13.843789100646973 13.533771514892578 C14.507567405700684 14.715068817138672 14.117513656616211 17.62881851196289 11.9996919631958 17.118473052978516 C9.779626846313477 16.58348846435547 10.322668075561523 13.494335174560547 11.374725341796875 12.4270658493042 L11.374725341796875 12.4270658493042"></path></svg>