<svg xmlns="http://www.w3.org/2000/svg" viewBox="0.0 0.0 24.0 24.0" height="200px" width="200px"><path fill="none" stroke="black" stroke-width=".3" stroke-opacity="1.0"  filling="0" d="M20.563608169555664 2.466952323913574 C20.563608169555664 8.655668258666992 20.563608169555664 14.734076499938965 20.563608169555664 21.01169776916504 C18.853574752807617 20.5490665435791 17.29391098022461 20.909622192382812 15.65302562713623 21.31627655029297 C13.924882888793945 21.74488067626953 12.007408142089844 21.741588592529297 10.224386215209961 21.517135620117188 C8.667466163635254 21.321216583251953 7.068838596343994 20.750473022460938 5.711129665374756 19.9624080657959 C4.982334613800049 19.539291381835938 4.453848838806152 18.352256774902344 4.307871341705322 17.43467903137207 C4.038414478302002 15.746049880981445 3.9264612197875977 13.982234954833984 4.0932936668396 12.283727645874023 C4.409397602081299 9.061226844787598 5.519601345062256 7.853886604309082 8.682284355163574 7.531197547912598 C11.920699119567871 7.201371669769287 15.234848022460938 6.8452067375183105 18.70155906677246 8.767621040344238 C18.70155906677246 6.521420001983643 18.70155906677246 4.6286396980285645 18.70155906677246 2.5849428176879883 C19.39632797241211 2.54103946685791 19.89902114868164 2.509209632873535 20.563608169555664 2.466952323913574"></path>
<path fill="none" stroke="black" stroke-width=".3" stroke-opacity="1.0"  filling="0" d="M15.895591735839844 9.271410942077637 C17.55403709411621 9.379522323608398 18.4743595123291 10.485885620117188 18.578630447387695 12.1876859664917 C18.600582122802734 12.550985336303711 18.63241195678711 12.913736343383789 18.652170181274414 13.27758502960205 C18.952356338500977 18.772079467773438 17.84599494934082 19.959115982055664 12.421745300292969 19.9613094329834 C12.330646514892578 19.9613094329834 12.239546775817871 19.9613094329834 12.148447036743164 19.9613094329834 C6.558463096618652 19.94484519958496 4.222259998321533 16.422157287597656 6.469009876251221 11.15980052947998 C6.82352876663208 10.32838249206543 7.9743428230285645 9.403669357299805 8.842530250549316 9.309277534484863 C11.169404029846191 9.05573558807373 13.550058364868164 9.118846893310547 15.895591735839844 9.271410942077637"></path></svg>