<svg xmlns="http://www.w3.org/2000/svg" viewBox="0.0 0.0 24.0 24.0" height="200px" width="200px"><path fill="none" stroke="black" stroke-width=".3" stroke-opacity="1.0"  filling="0" d="M14.545336723327637 7.163366794586182 L14.545336723327637 7.163366794586182 C14.545336723327637 8.795124053955078 14.545336723327637 10.4268798828125 14.545336723327637 12.058635711669922 C14.545336723327637 13.690391540527344 14.545336723327637 15.322147369384766 14.545336723327637 16.95390510559082 L14.545336723327637 16.95390510559082 C14.9412841796875 17.087568283081055 15.33723258972168 17.221233367919922 15.733180046081543 17.354896545410156 L15.733180046081543 17.354896545410156 C15.112293243408203 17.557720184326172 14.491405487060547 17.760543823242188 13.870518684387207 17.963367462158203 L13.870518684387207 17.963367462158203 C13.681662559509277 17.65597915649414 13.492806434631348 17.348590850830078 13.303950309753418 17.041202545166016 L13.303950309753418 17.041202545166016 C12.640432357788086 17.210124969482422 12.014656066894531 17.664201736450195 11.3317289352417 17.615192413330078 C9.378009796142578 17.47498321533203 8.967945098876953 15.17257022857666 9.508207321166992 13.704069137573242 C10.160778999328613 11.930296897888184 11.79378890991211 11.754802703857422 13.381645202636719 11.619959831237793 L13.381645202636719 11.619959831237793 C13.481050491333008 10.42102336883545 13.412639617919922 9.12719440460205 12.88753604888916 8.044791221618652 L12.88753604888916 8.044791221618652 C13.440135955810547 7.750983238220215 13.99273681640625 7.457174777984619 14.545336723327637 7.163366794586182 L14.545336723327637 7.163366794586182"></path>
<path fill="none" stroke="black" stroke-width=".3" stroke-opacity="1.0"  filling="0" d="M12.460063934326172 12.263351440429688 L12.460063934326172 12.263351440429688 C13.764506340026855 13.776445388793945 13.486726760864258 14.466388702392578 13.490478515625 16.398395538330078 L13.490478515625 16.398395538330078 C12.933647155761719 16.52600860595703 12.386876106262207 16.85179901123047 11.81998348236084 16.781234741210938 C10.263091087341309 16.587440490722656 9.683850288391113 13.626312255859375 10.737080574035645 12.66987133026123 C11.173932075500488 12.273165702819824 11.885736465454102 12.398858070373535 12.460063934326172 12.263351440429688 L12.460063934326172 12.263351440429688"></path></svg>