<svg xmlns="http://www.w3.org/2000/svg" viewBox="0.0 0.0 24.0 24.0" height="200px" width="200px"><path fill="none" stroke="black" stroke-width=".3" stroke-opacity="1.0"  filling="0" d="M11.814023971557617 5.012554168701172 C13.980964660644531 5.007853031158447 16.161487579345703 4.924267292022705 17.664451599121094 6.2412543296813965 C18.5572452545166 5.907436847686768 19.20868492126465 5.663995265960693 20.118194580078125 5.323386192321777 C20.118194580078125 10.352069854736328 20.252452850341797 15.026561737060547 20.068567276000977 19.688514709472656 C19.955204010009766 22.55913734436035 18.7312068939209 23.856273651123047 15.879913330078125 24.09031105041504 C13.140414237976074 24.314945220947266 10.32986831665039 24.216211318969727 7.602384090423584 23.860973358154297 C5.449024677276611 23.580440521240234 4.819003105163574 22.39092254638672 4.738029956817627 19.488433837890625 C5.485071659088135 19.95546531677246 6.095764636993408 20.223983764648438 6.554437160491943 20.654443740844727 C7.0324387550354 21.103191375732422 7.262297630310059 22.031505584716797 7.775300979614258 22.19188690185547 C10.734732627868652 23.116024017333984 13.833646774291992 23.265430450439453 16.713672637939453 22.183528900146484 C18.68575668334961 21.44275665283203 18.148723602294922 19.291484832763672 18.233875274658203 17.263505935668945 C15.481317520141602 18.897069931030273 12.653532028198242 18.669300079345703 9.855001449584961 18.542877197265625 C5.947401523590088 18.3668270111084 4.643997669219971 17.25619125366211 4.345180988311768 13.428520202636719 C3.722993850708008 5.45816707611084 6.2394256591796875 5.024569511413574 11.814023971557617 5.012554168701172"></path>
<path fill="none" stroke="black" stroke-width=".3" stroke-opacity="1.0"  filling="0" d="M10.213892936706543 6.618954181671143 C11.602449417114258 6.549474239349365 13.003021240234375 6.541115760803223 14.389487266540527 6.634626865386963 C17.05167007446289 6.813811302185059 17.946029663085938 7.740560531616211 18.14767837524414 10.340054512023926 C18.154468536376953 10.426774024963379 18.15081214904785 10.514537811279297 18.155513763427734 10.60125732421875 C18.45589828491211 16.11316680908203 17.585046768188477 17.038349151611328 12.10448169708252 17.028945922851562 C6.678769588470459 17.019542694091797 5.891502857208252 16.201976776123047 6.106734752655029 10.800294876098633 C6.228977680206299 7.7400383949279785 7.148413181304932 6.772019386291504 10.213892936706543 6.618954181671143"></path></svg>