<svg xmlns="http://www.w3.org/2000/svg" viewBox="0.0 0.0 24.0 24.0" height="200px" width="200px"><path fill="none" stroke="black" stroke-width=".3" stroke-opacity="1.0"  filling="0" d="M14.06153678894043 7.02963399887085 L14.06153678894043 7.02963399887085 C15.255425453186035 7.02963399887085 16.44931411743164 7.02963399887085 17.643203735351562 7.02963399887085 L17.643203735351562 7.02963399887085 C16.21673583984375 8.126113891601562 16.13541030883789 9.689136505126953 16.18426513671875 11.342382431030273 C16.23311996459961 12.995628356933594 16.412155151367188 14.739097595214844 15.50640869140625 16.19647216796875 C14.784647941589355 17.357807159423828 13.307249069213867 17.923721313476562 11.872387886047363 17.87282943725586 C10.437525749206543 17.82193374633789 9.045202255249023 17.154232025146484 8.493590354919434 15.848337173461914 C8.006820678710938 14.69594955444336 7.906308650970459 13.289233207702637 7.927422523498535 11.864702224731445 C7.948535919189453 10.440170288085938 8.091275215148926 8.997824668884277 8.0910062789917 7.774176597595215 L8.0910062789917 7.774176597595215 C7.693601608276367 7.610267162322998 7.296197414398193 7.446357250213623 6.898792743682861 7.282447814941406 L6.898792743682861 7.282447814941406 C6.911310195922852 7.2031049728393555 6.923827648162842 7.1237616539001465 6.936345100402832 7.044418811798096 L6.936345100402832 7.044418811798096 C8.486044883728027 7.044418811798096 10.035746574401855 7.044418811798096 11.585445404052734 7.044418811798096 L11.585445404052734 7.044418811798096 C10.950254440307617 7.4335479736328125 10.23871898651123 7.76837682723999 9.963301658630371 8.568985939025879 C9.627267837524414 9.545801162719727 9.972710609436035 10.635014533996582 9.99002456665039 11.667868614196777 C10.022734642028809 13.619129180908203 9.608728408813477 17.017608642578125 12.513609886169434 16.999046325683594 C15.667486190795898 16.978893280029297 15.28429889678955 13.752861022949219 15.263100624084473 11.572693824768066 C15.262019157409668 11.461494445800781 15.197793960571289 8.441436767578125 15.153807640075684 8.330957412719727 C14.944324493408203 7.804802894592285 14.425626754760742 7.463408470153809 14.06153678894043 7.02963399887085 L14.06153678894043 7.02963399887085"></path></svg>