<svg xmlns="http://www.w3.org/2000/svg" viewBox="0.0 0.0 24.0 24.0" height="200px" width="200px"><path fill="none" stroke="black" stroke-width=".3" stroke-opacity="1.0"  filling="0" d="M5.721339702606201 10.507549285888672 C6.042016506195068 11.223464965820312 6.292981147766113 11.785407066345215 6.544551849365234 12.347349166870117 C11.189821243286133 10.305079460144043 11.189821243286133 10.305079460144043 13.924970626831055 12.595283508300781 C14.724540710449219 12.167916297912598 15.57988166809082 11.673261642456055 16.46674346923828 11.244682312011719 C19.057010650634766 9.991678237915039 20.87741470336914 10.909456253051758 21.21082305908203 13.725835800170898 C21.387828826904297 15.221925735473633 21.210216522216797 16.760446548461914 21.39267921447754 18.25592803955078 C21.57271957397461 19.73443603515625 22.00493621826172 21.182029724121094 22.331069946289062 22.665386199951172 C21.590906143188477 22.736312866210938 20.39488410949707 22.851490020751953 19.331012725830078 22.953935623168945 C19.331012725830078 20.417617797851562 19.471044540405273 17.766122817993164 19.29039764404297 15.137056350708008 C19.122482299804688 12.693487167358398 17.42816734313965 11.695690155029297 15.263447761535645 12.613469123840332 C14.71605396270752 12.84564208984375 14.028023719787598 13.539128303527832 13.996500968933105 14.056818008422852 C13.861319541931152 16.26821517944336 13.858288764953613 18.499011993408203 14.00983715057373 20.709197998046875 C14.053483963012695 21.348125457763672 14.773036003112793 21.940982818603516 15.251928329467773 22.659324645996094 C13.630966186523438 22.65871810913086 12.134271621704102 22.65871810913086 10.592719078063965 22.65871810913086 C12.399179458618164 19.927814483642578 11.988179206848145 16.9853458404541 11.596577644348145 14.134411811828613 C11.507467269897461 13.485177040100098 10.295683860778809 12.647416114807129 9.498538970947266 12.51587200164795 C8.154605865478516 12.294610977172852 6.577286720275879 12.892924308776855 6.451198577880859 14.34779167175293 C6.2159953117370605 17.072031021118164 5.448553562164307 19.96600341796875 7.520525932312012 22.625377655029297 C6.285101413726807 22.625377655029297 5.152123928070068 22.625377655029297 4.116744041442871 22.625377655029297 C3.91487979888916 19.1737060546875 5.188494682312012 15.689906120300293 3.1304636001586914 12.32734489440918 C3.9245786666870117 11.769645690917969 4.728392601013184 11.205278396606445 5.721339702606201 10.507549285888672"></path></svg>