<svg xmlns="http://www.w3.org/2000/svg" viewBox="0.0 0.0 24.0 24.0" height="200px" width="200px"><path fill="none" stroke="black" stroke-width=".3" stroke-opacity="1.0"  filling="0" d="M18.134836196899414 13.989152908325195 C19.146739959716797 14.438043594360352 20.021697998046875 15.528569221496582 20.55850601196289 16.53878402709961 C20.753787994384766 16.906518936157227 19.781612396240234 17.89475440979004 19.248188018798828 18.75111198425293 C18.54230499267578 18.095104217529297 18.08749771118164 17.8702392578125 17.97421646118164 17.531246185302734 C17.547306060791016 16.255584716796875 17.645368576049805 14.257134437561035 15.80584716796875 14.501446723937988 C14.328143119812012 14.697572708129883 12.373652458190918 15.582672119140625 11.700738906860352 16.768722534179688 C9.507009506225586 20.63797378540039 9.521380424499512 24.841142654418945 11.397252082824707 28.911590576171875 C12.72701644897461 31.794294357299805 15.416976928710938 31.49503517150879 17.896442413330078 31.4874267578125 C13.290876388549805 33.559425354003906 9.431772232055664 32.621063232421875 6.921873092651367 29.17365837097168 C4.427191734313965 25.747377395629883 4.558223724365234 20.912715911865234 7.241422176361084 17.366397857666016 C9.780062675476074 14.011133193969727 14.583444595336914 12.41423225402832 18.134836196899414 13.989152908325195"></path></svg>