<svg xmlns="http://www.w3.org/2000/svg" viewBox="0.0 0.0 24.0 24.0" height="200px" width="200px"><path fill="none" stroke="black" stroke-width=".3" stroke-opacity="1.0"  filling="0" d="M15.273724555969238 5.336321830749512 C17.977584838867188 5.987213611602783 19.162473678588867 7.5513482093811035 19.1279354095459 10.327604293823242 C19.11863899230957 11.098047256469727 19.039602279663086 11.875798225402832 18.904773712158203 12.634950637817383 C18.253881454467773 16.299875259399414 17.572437286376953 19.959484100341797 16.856454849243164 23.871482849121094 C15.519468307495117 23.57724952697754 14.480697631835938 23.348773956298828 13.441926956176758 23.119632720947266 C13.465837478637695 22.90643310546875 13.490411758422852 22.693897247314453 13.514322280883789 22.480697631835938 C12.44300651550293 22.97882843017578 11.404897689819336 23.57061004638672 10.294397354125977 23.955829620361328 C7.903363227844238 24.78538703918457 5.634538173675537 23.90203094482422 4.634953022003174 21.86301040649414 C3.631382942199707 19.816020965576172 4.156082630157471 17.30942153930664 6.130677223205566 15.97442626953125 C7.2909932136535645 15.190034866333008 8.7056884765625 14.766289710998535 10.030055046081543 14.241591453552246 C11.462682723999023 13.673721313476562 13.060689926147461 13.388789176940918 14.319303512573242 12.569860458374023 C15.056538581848145 12.090325355529785 15.65894603729248 10.776585578918457 15.583894729614258 9.900537490844727 C15.536073684692383 9.337316513061523 14.167871475219727 8.519050598144531 13.355585098266602 8.47388744354248 C12.085016250610352 8.403484344482422 10.748029708862305 8.780072212219238 9.508012771606445 9.179905891418457 C8.585472106933594 9.477457046508789 7.771193027496338 10.110416412353516 6.768951416015625 10.672308921813965 C6.116729259490967 8.596761703491211 6.820091724395752 7.2850141525268555 8.550270080566406 6.304026126861572 C10.681611061096191 5.0952253341674805 12.922540664672852 4.770444393157959 15.273724555969238 5.336321830749512"></path>
<path fill="none" stroke="black" stroke-width=".3" stroke-opacity="1.0"  filling="0" d="M15.208633422851562 15.521461486816406 C14.629472732543945 18.562057495117188 13.72619342803955 20.823577880859375 11.090742111206055 21.56413459777832 C10.172186851501465 21.822498321533203 8.46126937866211 21.3947696685791 8.0029878616333 20.696056365966797 C7.154171466827393 19.40290641784668 8.064756393432617 18.13034439086914 9.444913864135742 17.559154510498047 C11.164464950561523 16.847820281982422 12.95442008972168 16.307846069335938 15.208633422851562 15.521461486816406"></path></svg>