<svg xmlns="http://www.w3.org/2000/svg" viewBox="0.0 0.0 24.0 24.0" height="200px" width="200px"><path fill="none" stroke="black" stroke-width=".3" stroke-opacity="1.0"  filling="0" d="M13.022336959838867 5.041429042816162 C17.126953125 5.016146659851074 17.23440170288086 5.041428089141846 19.052589416503906 6.37188720703125 C20.003292083740234 5.9821248054504395 20.636920928955078 5.7219319343566895 21.77460479736328 5.255797386169434 C21.03668975830078 9.04175853729248 20.439407348632812 12.279943466186523 19.764169692993164 15.501276016235352 C19.40653419494629 17.20780372619629 18.987804412841797 18.909587860107422 18.46109962463379 20.57029151916504 C17.829578399658203 22.560710906982422 16.448556900024414 23.99282455444336 14.337520599365234 24.108173370361328 C11.308436393737793 24.274085998535156 8.241429328918457 24.313587188720703 5.228672504425049 24.017578125 C3.399423599243164 23.837974548339844 2.5993576049804688 22.141979217529297 3.1250104904174805 20.493389129638672 C3.2208709716796875 20.192115783691406 3.7086000442504883 20.016197204589844 4.144185543060303 19.684371948242188 C5.061707019805908 20.91265106201172 5.157041072845459 22.85250473022461 7.023158550262451 22.795623779296875 C9.706724166870117 22.7139835357666 12.486676216125488 22.853561401367188 15.03329849243164 22.176742553710938 C16.919429779052734 21.67531967163086 17.0432071685791 19.378883361816406 17.464570999145508 17.2357177734375 C14.183195114135742 19.20981216430664 10.939741134643555 18.855863571166992 7.758439540863037 18.561962127685547 C4.7762322425842285 18.286495208740234 3.97774600982666 17.206748962402344 4.077293395996094 14.265097618103027 C4.089407920837402 13.915365219116211 4.119956970214844 13.565633773803711 4.152613162994385 13.216954231262207 C4.742523193359375 6.974438190460205 6.7987823486328125 5.079351902008057 13.022336959838867 5.041429042816162"></path>
<path fill="none" stroke="black" stroke-width=".3" stroke-opacity="1.0"  filling="0" d="M11.794585227966309 6.633659839630127 C13.276208877563477 6.597317218780518 14.77258014678955 6.567295074462891 16.24103546142578 6.729520320892334 C18.149288177490234 6.939675807952881 18.803457260131836 7.818747043609619 18.740253448486328 9.712254524230957 C18.73182487487793 9.972973823547363 18.67652130126953 10.231586456298828 18.64386558532715 10.491251945495605 C17.9201717376709 16.211801528930664 16.85622787475586 17.155658721923828 11.140417098999023 17.147756576538086 C5.951838970184326 17.140911102294922 5.15282678604126 16.129108428955078 6.337387561798096 11.067995071411133 C7.116385459899902 7.741848468780518 8.345190048217773 6.718459606170654 11.794585227966309 6.633659839630127"></path></svg>