<svg xmlns="http://www.w3.org/2000/svg" viewBox="0.0 0.0 24.0 24.0" height="200px" width="200px"><path fill="none" stroke="black" stroke-width=".3" stroke-opacity="1.0"  filling="0" d="M12.370490074157715 6.7007527351379395 C12.847761154174805 6.612849712371826 13.532106399536133 7.640547275543213 14.493139266967773 8.498337745666504 C13.407626152038574 9.177372932434082 12.69909381866455 9.97321891784668 12.096162796020508 9.89947509765625 C11.488511085510254 9.825139999389648 10.986461639404297 8.888296127319336 10.437806129455566 8.329021453857422 C11.074954986572266 7.747328281402588 11.650157928466797 6.83408260345459 12.370490074157715 6.7007527351379395"></path>
<path fill="none" stroke="black" stroke-width=".3" stroke-opacity="1.0"  filling="0" d="M14.054803848266602 13.227986335754395 C14.054803848266602 15.613754272460938 13.936814308166504 17.8160457611084 14.089612007141113 19.998870849609375 C14.228840827941895 21.993499755859375 13.109110832214355 24.366289138793945 15.877166748046875 25.896038055419922 C13.624138832092285 25.896038055419922 11.70030403137207 25.896038055419922 9.49388313293457 25.896038055419922 C11.702664375305176 24.22588348388672 10.922746658325195 21.988780975341797 10.875551223754883 19.994152069091797 C10.830714225769043 18.093914031982422 11.871980667114258 15.782480239868164 9.128110885620117 14.309959411621094 C10.939265251159668 13.912331581115723 12.265478134155273 13.620895385742188 14.054803848266602 13.227986335754395"></path></svg>