<svg xmlns="http://www.w3.org/2000/svg" viewBox="0.0 0.0 24.0 24.0" height="200px" width="200px"><path fill="none" stroke="black" stroke-width=".3" stroke-opacity="1.0"  filling="0" d="M12.605265617370605 9.648649215698242 C12.747331619262695 10.969528198242188 12.866270065307617 12.082265853881836 13.010316848754883 13.423628807067871 C13.875926971435547 13.543889045715332 14.800344467163086 13.67273998260498 15.724761962890625 13.800928115844727 C15.728726387023926 13.915242195129395 15.732690811157227 14.02889347076416 15.736654281616211 14.143206596374512 C14.939105033874512 14.283950805664062 14.142216682434082 14.42469596862793 12.98851203918457 14.628211975097656 C12.98851203918457 18.227428436279297 12.813407897949219 21.925758361816406 13.057232856750488 25.596336364746094 C13.194672584533691 27.661903381347656 14.234064102172852 27.899120330810547 17.17317008972168 26.96215057373047 C15.971227645874023 29.090490341186523 14.13428783416748 29.029037475585938 12.330385208129883 28.6292724609375 C10.377148628234863 28.197128295898438 9.393261909484863 26.788368225097656 9.356919288635254 24.796144485473633 C9.309343338012695 22.158349990844727 9.406476974487305 19.515268325805664 9.262429237365723 16.884082794189453 C9.207585334777832 15.86980152130127 8.660467147827148 14.881948471069336 8.261362075805664 13.645648002624512 C9.479162216186523 12.524981498718262 10.903782844543457 11.21467399597168 12.605265617370605 9.648649215698242"></path></svg>