<svg xmlns="http://www.w3.org/2000/svg" viewBox="0.0 0.0 24.0 24.0" height="200px" width="200px"><path fill="none" stroke="black" stroke-width=".3" stroke-opacity="1.0"  filling="0" d="M20.13823699951172 7.263468265533447 C19.885690689086914 8.321495056152344 19.66238784790039 9.257238388061523 19.434432983398438 10.21092414855957 C18.087310791015625 9.725774765014648 16.916301727294922 9.220685958862305 15.698774337768555 8.884403228759766 C13.930965423583984 8.395929336547852 12.4203519821167 9.023966789245605 11.224091529846191 10.323904037475586 C9.304755210876465 12.410052299499512 8.68735122680664 14.986665725708008 9.052210807800293 17.69553565979004 C9.516759872436523 21.14010238647461 12.43364429473877 22.36361312866211 15.437591552734375 20.496116638183594 C16.267663955688477 19.98039436340332 16.99273109436035 19.295867919921875 17.808181762695312 18.655866622924805 C17.8460636138916 22.14828872680664 16.555431365966797 23.68016815185547 13.179313659667969 24.243738174438477 C10.044443130493164 24.766769409179688 7.095658302307129 23.285400390625 6.3047966957092285 20.417694091796875 C5.208888053894043 16.44344711303711 5.5239033699035645 12.499772071838379 7.814080238342285 8.956178665161133 C10.61864948272705 4.617072105407715 15.498067855834961 3.8926687240600586 20.13823699951172 7.263468265533447"></path></svg>