<svg xmlns="http://www.w3.org/2000/svg" viewBox="0.0 0.0 24.0 24.0" height="200px" width="200px"><path fill="none" stroke="black" stroke-width=".3" stroke-opacity="1.0"  filling="0" d="M11.266763687133789 7.668785572052002 C10.06981086730957 7.57346773147583 9.089788436889648 8.068682670593262 8.904630661010742 9.415185928344727 C8.6729097366333 11.104066848754883 9.500094413757324 11.96631145477295 11.565864562988281 11.91810417175293 C10.286741256713867 13.461817741394043 9.11882209777832 13.70449447631836 7.779987812042236 12.867997169494629 C6.675613880157471 12.17831039428711 6.419241428375244 10.493265151977539 7.124813556671143 9.18455982208252 C8.561704635620117 6.520038604736328 13.87376594543457 5.920740127563477 15.79382038116455 8.206180572509766 C16.87354278564453 9.491877555847168 16.77767562866211 11.466712951660156 15.455276489257812 12.952905654907227 C14.808320045471191 13.679841995239258 13.999212265014648 14.262158393859863 13.267346382141113 14.9069242477417 C13.426756858825684 15.096464157104492 13.518239974975586 15.315587043762207 13.640400886535645 15.334211349487305 C15.741230964660645 15.655774116516113 17.26412582397461 16.750286102294922 17.67552947998047 18.860977172851562 C18.113773345947266 21.109169006347656 17.251529693603516 23.007308959960938 15.397756576538086 24.359291076660156 C13.105743408203125 26.030641555786133 10.56119155883789 26.460121154785156 7.891740322113037 25.455995559692383 C6.081794261932373 24.775623321533203 5.918548583984375 24.008697509765625 7.183976650238037 21.876094818115234 C7.696722030639648 22.512643814086914 8.231379508972168 22.878578186035156 8.30533218383789 23.32175064086914 C8.558418273925781 24.833141326904297 9.650192260742188 25.451614379882812 10.834546089172363 25.193050384521484 C11.86113166809082 24.968997955322266 13.06411075592041 24.214672088623047 13.594385147094727 23.335994720458984 C14.679586410522461 21.538646697998047 14.437456130981445 19.44219970703125 13.832132339477539 17.491466522216797 C13.35608959197998 15.957067489624023 12.247881889343262 15.685903549194336 10.827425003051758 16.6138858795166 C10.194162368774414 17.027477264404297 9.61020278930664 17.5161190032959 9.003235816955566 17.97024917602539 C8.832868576049805 17.775230407714844 8.662501335144043 17.580211639404297 8.492681503295898 17.385194778442383 C9.181272506713867 16.839033126831055 9.844663619995117 16.257265090942383 10.562834739685059 15.75383186340332 C12.411675453186035 14.458273887634277 13.500162124633789 12.761724472045898 13.319387435913086 10.448892593383789 C13.216947555541992 9.139093399047852 12.9178466796875 7.800806522369385 11.266763687133789 7.668785572052002"></path></svg>