<svg xmlns="http://www.w3.org/2000/svg" viewBox="0.0 0.0 24.0 24.0" height="200px" width="200px"><path fill="none" stroke="black" stroke-width=".3" stroke-opacity="1.0"  filling="0" d="M6.308871746063232 3.227163314819336 C9.578386306762695 3.227163314819336 12.901642799377441 2.7890472412109375 16.053157806396484 3.3381528854370117 C19.98451805114746 4.023366451263428 20.832712173461914 8.374152183532715 17.87396812438965 11.168747901916504 C17.59357452392578 11.433954238891602 17.285724639892578 11.669952392578125 17.232566833496094 11.714932441711426 C18.21862030029297 13.038626670837402 19.527711868286133 14.16838264465332 20.0178165435791 15.582036972045898 C21.09908676147461 18.70083999633789 18.809200286865234 21.70865249633789 15.286163330078125 22.194671630859375 C14.616137504577637 22.286968231201172 13.926835060119629 22.256006240844727 13.246294021606445 22.257761001586914 C11.025337219238281 22.264766693115234 8.805548667907715 22.26068115234375 6.308871746063232 22.26068115234375 C6.308871746063232 15.700620651245117 6.308871746063232 9.587441444396973 6.308871746063232 3.227163314819336"></path>
<path fill="none" stroke="black" stroke-width=".3" stroke-opacity="1.0"  filling="0" d="M8.664182662963867 5.132091999053955 C10.640378952026367 5.132091999053955 12.53537654876709 5.036290645599365 14.415771484375 5.161299228668213 C16.038555145263672 5.269368648529053 17.151952743530273 6.1526103019714355 17.236072540283203 7.919094562530518 C17.30792236328125 9.429718971252441 16.14954376220703 10.837531089782715 14.354435920715332 11.033807754516602 C12.55582332611084 11.230084419250488 10.718656539916992 11.077035903930664 8.66476821899414 11.077035903930664 C8.66476821899414 8.921504020690918 8.66476821899414 7.184812068939209 8.664182662963867 5.132091999053955"></path>
<path fill="none" stroke="black" stroke-width=".3" stroke-opacity="1.0"  filling="0" d="M8.716758728027344 13.029864311218262 C10.664915084838867 13.029864311218262 12.487478256225586 12.894923210144043 14.28083324432373 13.064329147338867 C16.51522445678711 13.275793075561523 17.9218692779541 14.969841957092285 17.78751564025879 16.95071029663086 C17.664840698242188 18.759254455566406 16.45680809020996 19.8638916015625 14.194377899169922 20.00525665283203 C12.468199729919434 20.113327026367188 10.729755401611328 20.026870727539062 8.717341423034668 20.026870727539062 C8.717341423034668 17.531946182250977 8.717341423034668 15.440088272094727 8.716758728027344 13.029864311218262"></path></svg>