<svg xmlns="http://www.w3.org/2000/svg" viewBox="0.0 0.0 24.0 24.0" height="200px" width="200px"><path fill="none" stroke="black" stroke-width=".3" stroke-opacity="1.0"  filling="0" d="M9.445852279663086 7.015257358551025 L9.445852279663086 7.015257358551025 C11.616071701049805 7.015257358551025 13.78628921508789 7.015257358551025 15.956509590148926 7.015257358551025 L15.956509590148926 7.015257358551025 C15.715019226074219 7.399681568145752 15.63231372833252 7.9543352127075195 15.232038497924805 8.168530464172363 C14.421037673950195 8.602513313293457 11.770573616027832 8.168071746826172 10.838963508605957 8.168200492858887 L10.838963508605957 8.168200492858887 C10.838963508605957 9.286125183105469 10.838963508605957 10.40404987335205 10.838963508605957 11.521974563598633 L10.838963508605957 11.521974563598633 C12.247489929199219 11.521974563598633 13.656021118164062 11.521974563598633 15.064547538757324 11.521974563598633 L15.064547538757324 11.521974563598633 C15.13920783996582 11.638589859008789 15.213868141174316 11.755206108093262 15.288528442382812 11.871821403503418 L15.288528442382812 11.871821403503418 C14.15731143951416 13.117316246032715 12.371667861938477 12.651775360107422 10.766615867614746 12.720176696777344 L10.766615867614746 12.720176696777344 C10.766615867614746 14.377680778503418 10.766615867614746 16.03519058227539 10.766615867614746 17.69269561767578 L10.766615867614746 17.69269561767578 C10.326361656188965 17.733549118041992 9.886106491088867 17.774404525756836 9.445852279663086 17.815258026123047 L9.445852279663086 17.815258026123047 C9.445852279663086 16.0152587890625 9.445852279663086 14.21525764465332 9.445852279663086 12.415257453918457 C9.445852279663086 10.61525821685791 9.445852279663086 8.815258026123047 9.445852279663086 7.015257358551025 L9.445852279663086 7.015257358551025"></path></svg>