<svg xmlns="http://www.w3.org/2000/svg" viewBox="0.0 0.0 24.0 24.0" height="200px" width="200px"><path fill="none" stroke="black" stroke-width=".3" stroke-opacity="1.0"  filling="0" d="M8.071992874145508 3.5495758056640625 C10.984021186828613 8.360252380371094 13.837763786315918 13.0751314163208 16.692081451416016 17.790584564208984 C16.886564254760742 17.743263244628906 17.080469131469727 17.695941925048828 17.274951934814453 17.64862060546875 C17.274951934814453 13.024346351623535 17.274951934814453 8.399495124816895 17.274951934814453 3.690387725830078 C18.074230194091797 3.690387725830078 18.53302001953125 3.690387725830078 19.159748077392578 3.690387725830078 C19.159748077392578 9.962849617004395 19.159748077392578 16.16317367553711 19.159748077392578 22.31098175048828 C17.587160110473633 22.982723236083984 16.75325584411621 22.37619400024414 16.014572143554688 21.105426788330078 C13.747736930847168 17.204254150390625 11.392606735229492 13.35444450378418 9.056519508361816 9.493669509887695 C8.585031509399414 8.714588165283203 8.046600341796875 7.975904941558838 7.016483783721924 7.338790416717529 C7.016483783721924 11.325372695922852 7.018791675567627 15.3119535446167 7.01475191116333 19.298538208007812 C7.0141754150390625 20.066654205322266 7.120360851287842 20.870548248291016 6.92472505569458 21.59018898010254 C6.801804065704346 22.042633056640625 6.209702014923096 22.367538452148438 5.82824182510376 22.750152587890625 C5.619909763336182 22.59202766418457 5.4121551513671875 22.43448257446289 5.203823089599609 22.276935577392578 C5.203823089599609 16.164905548095703 5.203823089599609 10.052299499511719 5.203823089599609 3.724437713623047 C6.172191143035889 3.665572166442871 7.082272052764893 3.610171318054199 8.071992874145508 3.5495758056640625"></path></svg>