<svg xmlns="http://www.w3.org/2000/svg" viewBox="0.0 0.0 24.0 24.0" height="200px" width="200px"><path fill="none" stroke="black" stroke-width=".3" stroke-opacity="1.0"  filling="0" d="M8.519723892211914 9.309324264526367 L8.519723892211914 9.309324264526367 C9.364511489868164 9.309324264526367 10.209299087524414 9.309324264526367 11.054086685180664 9.309324264526367 L11.054086685180664 9.309324264526367 C11.709512710571289 10.542036056518555 12.364946365356445 11.77474594116211 13.02037239074707 13.00745964050293 C13.675800323486328 14.240172386169434 14.331220626831055 15.472888946533203 14.986624717712402 16.705612182617188 L14.986624717712402 16.705612182617188 C15.313274383544922 15.508411407470703 15.769431114196777 14.276809692382812 16.0700740814209 13.038690567016602 C16.370718002319336 11.800572395324707 16.515850067138672 10.555936813354492 16.22045135498047 9.332672119140625 L16.22045135498047 9.332672119140625 C16.782127380371094 9.332672119140625 17.343801498413086 9.332672119140625 17.90547752380371 9.332672119140625 L17.90547752380371 9.332672119140625 C17.06459617614746 10.898883819580078 16.488422393798828 12.590263366699219 16.00893211364746 14.317152976989746 C15.529441833496094 16.044042587280273 15.146636962890625 17.80644416809082 14.692495346069336 19.514698028564453 L14.692495346069336 19.514698028564453 C14.552607536315918 19.552095413208008 14.412718772888184 19.589494705200195 14.272830963134766 19.62689208984375 L14.272830963134766 19.62689208984375 C13.578851699829102 18.284759521484375 12.884860038757324 16.942636489868164 12.190872192382812 15.60051155090332 C11.496883392333984 14.25838565826416 10.802898406982422 12.916257858276367 10.108931541442871 11.574119567871094 L10.108931541442871 11.574119567871094 C9.787800788879395 12.766530990600586 9.284704208374023 14.072072982788086 8.957277297973633 15.378833770751953 C8.629850387573242 16.68559455871582 8.478092193603516 17.993572235107422 8.859640121459961 19.190853118896484 L8.859640121459961 19.190853118896484 C8.275020599365234 19.190853118896484 7.690401077270508 19.190853118896484 7.105781555175781 19.190853118896484 L7.105781555175781 19.190853118896484 C8.093648910522461 17.526609420776367 8.491032600402832 15.885701179504395 8.988993644714355 14.022871017456055 C9.180312156677246 13.307165145874023 9.82089900970459 11.513486862182617 9.588708877563477 10.729369163513184 C9.420487403869629 10.161275863647461 8.876051902770996 9.782672882080078 8.519723892211914 9.309324264526367 L8.519723892211914 9.309324264526367"></path></svg>