<svg xmlns="http://www.w3.org/2000/svg" viewBox="0.0 0.0 24.0 24.0" height="200px" width="200px"><path fill="none" stroke="black" stroke-width=".3" stroke-opacity="1.0"  filling="0" d="M5.895945072174072 3.102688789367676 C8.923044204711914 3.102688789367676 11.909904479980469 2.8915910720825195 14.85069751739502 3.1691675186157227 C17.236337661743164 3.394261360168457 18.982269287109375 4.895854949951172 19.453449249267578 7.395208358764648 C19.88614273071289 9.692793846130371 19.14204978942871 11.596174240112305 17.138370513916016 12.927491188049316 C16.828720092773438 13.133340835571289 16.545894622802734 13.380010604858398 16.130115509033203 13.700738906860352 C17.312728881835938 16.494579315185547 18.46677017211914 19.221359252929688 19.622562408447266 21.952219009399414 C17.99325942993164 22.575599670410156 17.087636947631836 22.132410049438477 16.503910064697266 20.65414047241211 C15.651354789733887 18.494176864624023 14.654762268066406 16.39078140258789 13.68207836151123 14.178915023803711 C11.925065994262695 14.178915023803711 10.197794914245605 14.178915023803711 8.159126281738281 14.178915023803711 C8.159708023071289 16.763408660888672 8.159708023071289 19.333322525024414 8.159708023071289 22.205886840820312 C7.119380950927734 22.151657104492188 6.567143440246582 22.12308120727539 5.895945072174072 22.088092803955078 C5.895945072174072 15.75340461730957 5.895945072174072 9.572083473205566 5.895945072174072 3.102688789367676"></path>
<path fill="none" stroke="black" stroke-width=".3" stroke-opacity="1.0"  filling="0" d="M8.145712852478027 5.2614850997924805 C10.162806510925293 5.2614850997924805 12.141995429992676 5.140190601348877 14.099608421325684 5.295307636260986 C16.007070541381836 5.446925163269043 16.987335205078125 6.5531487464904785 17.090551376342773 8.224437713623047 C17.199016571044922 9.973285675048828 16.210588455200195 11.565850257873535 14.448911666870117 11.838762283325195 C12.482551574707031 12.143744468688965 10.459043502807617 12.079015731811523 8.145712852478027 12.189813613891602 C8.145712852478027 9.681714057922363 8.145712852478027 7.67103385925293 8.145712852478027 5.2614850997924805"></path></svg>