<svg xmlns="http://www.w3.org/2000/svg" viewBox="0.0 0.0 24.0 24.0" height="200px" width="200px"><path fill="none" stroke="black" stroke-width=".3" stroke-opacity="1.0"  filling="0" d="M11.375970840454102 6.972265243530273 L11.375970840454102 6.972265243530273 C13.715791702270508 7.016953945159912 14.33800220489502 7.338720321655273 15.687302589416504 9.25135326385498 L15.687302589416504 9.25135326385498 C14.68620491027832 9.075722694396973 13.863840103149414 8.321041107177734 12.883323669433594 8.0534029006958 C10.851188659667969 7.498717784881592 8.91098403930664 9.322002410888672 11.118675231933594 10.894424438476562 C12.0701322555542 11.572097778320312 13.561723709106445 11.744928359985352 14.690543174743652 12.223402976989746 C15.81936264038086 12.701878547668457 16.58540916442871 13.485997200012207 16.085777282714844 15.386245727539062 C15.494726181030273 17.634191513061523 12.270498275756836 18.206186294555664 10.453953742980957 17.263858795166016 C9.030858993530273 16.525632858276367 8.987846374511719 15.781509399414062 8.355733871459961 14.401588439941406 L8.355733871459961 14.401588439941406 C10.036806106567383 15.279219627380371 10.896747589111328 16.702552795410156 12.984305381774902 16.475330352783203 C14.176023483276367 16.345617294311523 15.521778106689453 15.062280654907227 14.579344749450684 13.807262420654297 C13.837872505187988 12.819859504699707 12.325614929199219 12.670977592468262 11.024589538574219 12.310211181640625 C9.723563194274902 11.949443817138672 8.633768081665039 11.376791954040527 8.737220764160156 9.541849136352539 C8.771533966064453 8.933223724365234 9.062042236328125 8.30446720123291 9.498774528503418 7.879181861877441 C9.996646881103516 7.394359588623047 10.750238418579102 7.274570941925049 11.375970840454102 6.972265243530273 L11.375970840454102 6.972265243530273"></path></svg>