<svg xmlns="http://www.w3.org/2000/svg" viewBox="0.0 0.0 24.0 24.0" height="200px" width="200px"><path fill="none" stroke="black" stroke-width=".3" stroke-opacity="1.0"  filling="0" d="M6.597495079040527 7.76753044128418 L6.597495079040527 7.76753044128418 C6.988620281219482 7.76753044128418 7.379745006561279 7.76753044128418 7.770870208740234 7.76753044128418 L7.770870208740234 7.76753044128418 C8.350885391235352 10.016195297241211 8.930827140808105 12.264875411987305 9.510614395141602 14.513599395751953 L9.510614395141602 14.513599395751953 C9.603014945983887 14.515918731689453 9.695415496826172 14.518238067626953 9.787816047668457 14.520557403564453 L9.787816047668457 14.520557403564453 C10.396614074707031 12.289966583251953 11.005293846130371 10.059343338012695 11.614116668701172 7.828759670257568 L11.614116668701172 7.828759670257568 C12.691971778869629 8.41030216217041 13.205733299255371 9.545530319213867 13.592183113098145 10.803607940673828 C13.978633880615234 12.061684608459473 14.237773895263672 13.442609786987305 14.806385040283203 14.515546798706055 L14.806385040283203 14.515546798706055 C15.340022087097168 12.275395393371582 15.87366771697998 10.035246849060059 16.407251358032227 7.795083522796631 L16.407251358032227 7.795083522796631 C16.737239837646484 7.795083522796631 17.06722640991211 7.795083522796631 17.397214889526367 7.795083522796631 L17.397214889526367 7.795083522796631 C17.032926559448242 9.2990083694458 16.66862678527832 10.802931785583496 16.30431365966797 12.306851387023926 C15.940000534057617 13.810770988464355 15.575674057006836 15.314687728881836 15.211332321166992 16.818599700927734 L15.211332321166992 16.818599700927734 C14.81686782836914 16.818599700927734 14.422404289245605 16.818599700927734 14.027939796447754 16.818599700927734 L14.027939796447754 16.818599700927734 C13.355548858642578 14.499306678771973 12.683100700378418 12.180030822753906 12.010714530944824 9.860734939575195 L12.010714530944824 9.860734939575195 C11.382036209106445 12.177250862121582 10.75339412689209 14.4937744140625 10.124576568603516 16.810253143310547 L10.124576568603516 16.810253143310547 C9.727977752685547 16.830013275146484 9.331379890441895 16.849773406982422 8.934781074523926 16.86953353881836 L8.934781074523926 16.86953353881836 C8.545318603515625 15.352511405944824 8.155771255493164 13.83551025390625 7.766202449798584 12.31851577758789 C7.376633644104004 10.801520347595215 6.987043380737305 9.284530639648438 6.597495079040527 7.76753044128418 L6.597495079040527 7.76753044128418"></path></svg>