<svg xmlns="http://www.w3.org/2000/svg" viewBox="0.0 0.0 24.0 24.0" height="200px" width="200px"><path fill="none" stroke="black" stroke-width=".3" stroke-opacity="1.0"  filling="0" d="M10.234476089477539 8.94800853729248 L10.234476089477539 8.94800853729248 C12.62153148651123 8.94800853729248 15.008586883544922 8.94800853729248 17.39564323425293 8.94800853729248 L17.39564323425293 8.94800853729248 C16.199920654296875 10.658571243286133 15.004202842712402 12.369139671325684 13.808475494384766 14.079700469970703 C12.612748146057129 15.790262222290039 11.417010307312012 17.500816345214844 10.221244812011719 19.211349487304688 L10.221244812011719 19.211349487304688 C12.893549919128418 19.471845626831055 14.34422492980957 19.42890167236328 16.302961349487305 17.492616653442383 L16.302961349487305 17.492616653442383 C16.1685791015625 17.83370590209961 15.542454719543457 19.423242568969727 15.414551734924316 19.748008728027344 L15.414551734924316 19.748008728027344 C14.082422256469727 19.748008728027344 12.75029182434082 19.748008728027344 11.418161392211914 19.748008728027344 C10.086030960083008 19.748008728027344 8.753900527954102 19.748008728027344 7.4217705726623535 19.748008728027344 L7.4217705726623535 19.748008728027344 C8.631452560424805 18.02341079711914 9.841075897216797 16.29877281188965 11.050674438476562 14.574117660522461 C12.260272979736328 12.849462509155273 13.469846725463867 11.124788284301758 14.679427146911621 9.40011978149414 L14.679427146911621 9.40011978149414 C12.169344902038574 9.27418327331543 11.434954643249512 9.355393409729004 9.77332878112793 11.2656831741333 L9.77332878112793 11.2656831741333 C9.685660362243652 11.202970504760742 9.597991943359375 11.140257835388184 9.510323524475098 11.077545166015625 L9.510323524475098 11.077545166015625 C9.75174617767334 10.36771297454834 9.99312973022461 9.657867431640625 10.234476089477539 8.94800853729248 L10.234476089477539 8.94800853729248"></path></svg>