<svg xmlns="http://www.w3.org/2000/svg" viewBox="0.0 0.0 24.0 24.0" height="200px" width="200px"><path fill="none" stroke="black" stroke-width=".3" stroke-opacity="1.0"  filling="0" d="M15.588241577148438 6.501800537109375 C15.12268352508545 8.280800819396973 14.638813018798828 9.886672973632812 14.30199146270752 11.521955490112305 C14.139961242675781 12.308798789978027 13.155017852783203 13.206622123718262 14.394659042358398 13.964057922363281 C12.88644790649414 17.431612014770508 10.594167709350586 20.69385528564453 11.180139541625977 24.9288272857666 C14.695412635803223 23.775196075439453 17.155271530151367 17.98151206970215 16.06378746032715 13.898579597473145 C15.493354797363281 13.95240592956543 14.892956733703613 14.008450508117676 14.292558670043945 14.064494132995605 C16.419479370117188 12.301031112670898 18.525869369506836 12.929174423217773 19.13847541809082 15.510000228881836 C20.027976989746094 19.256113052368164 16.09597396850586 25.074764251708984 12.28826904296875 25.64630889892578 C9.595907211303711 26.05082893371582 7.844651699066162 24.213008880615234 8.521626472473145 21.39801788330078 C9.274621963500977 18.26673126220703 10.311724662780762 15.203699111938477 11.231189727783203 12.112920761108398 C11.494211196899414 11.229524612426758 11.947007179260254 10.363329887390137 12.005826950073242 9.469390869140625 C12.059651374816895 8.649252891540527 11.699522972106934 7.8013691902160645 11.50641918182373 6.895222187042236 C12.36983871459961 6.81198787689209 13.733221054077148 6.680477142333984 15.588241577148438 6.501800537109375"></path></svg>