<svg xmlns="http://www.w3.org/2000/svg" viewBox="0.0 0.0 24.0 24.0" height="200px" width="200px"><path fill="none" stroke="black" stroke-width=".3" stroke-opacity="1.0"  filling="0" d="M15.045650482177734 3.0206212997436523 C15.694147109985352 3.0524768829345703 16.32045555114746 3.530315399169922 16.9097900390625 4.071865558624268 C15.100260734558105 5.055416584014893 12.297511100769043 4.567907810211182 12.819151878356934 7.911069393157959 C13.809529304504395 8.016307830810547 14.812420845031738 8.12268352508545 15.813036918640137 8.228490829467773 C15.679356575012207 9.70808219909668 15.679356575012207 9.70808219909668 12.758853912353516 9.966912269592285 C12.758853912353516 13.938090324401855 12.758853912353516 17.950225830078125 12.758853912353516 21.955535888671875 C11.045461654663086 22.633609771728516 10.696184158325195 21.892959594726562 10.695047378540039 20.640342712402344 C10.693339347839355 17.715856552124023 10.679118156433105 14.790803909301758 10.658639907836914 11.865750312805176 C10.654657363891602 11.309410095214844 10.59834098815918 10.753639221191406 10.578431129455566 10.412324905395508 C9.450390815734863 9.776914596557617 8.722256660461426 9.366201400756836 7.994121551513672 8.956056594848633 C8.067503929138184 8.758094787597656 8.141454696655273 8.560701370239258 8.214837074279785 8.362739562988281 C8.921924591064453 8.211424827575684 9.6295804977417 8.06010913848877 10.482863426208496 7.8769378662109375 C10.889595031738281 5.2914910316467285 11.671770095825195 2.8562211990356445 15.045650482177734 3.0206212997436523"></path></svg>