<svg xmlns="http://www.w3.org/2000/svg" viewBox="0.0 0.0 24.0 24.0" height="200px" width="200px"><path fill="none" stroke="black" stroke-width=".3" stroke-opacity="1.0"  filling="0" d="M15.526351928710938 7.121243000030518 C16.33917808532715 8.18356704711914 17.143587112426758 8.78657341003418 17.07264518737793 9.258516311645508 C16.989078521728516 9.815832138061523 16.216533660888672 10.440481185913086 15.605710983276367 10.666532516479492 C15.349599838256836 10.76152229309082 14.404508590698242 9.927053451538086 14.378656387329102 9.48036003112793 C14.344989776611328 8.902605056762695 14.91733455657959 8.28937816619873 15.526351928710938 7.121243000030518"></path>
<path fill="none" stroke="black" stroke-width=".3" stroke-opacity="1.0"  filling="0" d="M11.74418830871582 13.617837905883789 C12.742785453796387 13.617837905883789 14.203706741333008 13.217436790466309 14.631762504577637 13.712226867675781 C15.267834663391113 14.44749641418457 15.57264518737793 15.92284870147705 15.309316635131836 16.890182495117188 C14.738776206970215 18.98537254333496 13.727554321289062 20.962127685546875 12.879258155822754 22.979761123657227 C12.445189476013184 24.01202392578125 12.105510711669922 24.996192932128906 13.515329360961914 25.56072235107422 C13.448596954345703 25.813827514648438 13.381863594055176 26.067535400390625 13.314529418945312 26.321243286132812 C12.340581893920898 26.175151824951172 11.011322975158691 26.358516693115234 10.487675666809082 25.79458999633789 C9.905110359191895 25.167537689208984 9.686272621154785 23.743289947509766 9.959819793701172 22.86974334716797 C10.669839859008789 20.602006912231445 11.68406867980957 18.42264747619629 12.681463241577148 16.25591468811035 C13.230961799621582 15.062527656555176 12.910520553588867 14.41443157196045 11.74418830871582 13.617837905883789"></path></svg>