<svg xmlns="http://www.w3.org/2000/svg" viewBox="0.0 0.0 24.0 24.0" height="200px" width="200px"><path fill="none" stroke="black" stroke-width=".3" stroke-opacity="1.0"  filling="0" d="M9.451227188110352 7.021855354309082 L9.451227188110352 7.021855354309082 C9.83877944946289 7.021855354309082 10.226330757141113 7.021855354309082 10.613883018493652 7.021855354309082 L10.613883018493652 7.021855354309082 C10.613883018493652 9.174223899841309 10.613883018493652 11.326597213745117 10.613883018493652 13.478964805603027 L10.613883018493652 13.478964805603027 C12.366155624389648 12.219619750976562 13.289605140686035 10.707489967346191 15.421506881713867 10.106438636779785 L15.421506881713867 10.106438636779785 C15.390098571777344 10.143065452575684 13.265049934387207 12.621095657348633 13.263089179992676 12.623382568359375 L13.263089179992676 12.623382568359375 C14.154217720031738 14.273404121398926 15.045302391052246 15.923439979553223 15.936371803283691 17.57349395751953 L15.936371803283691 17.57349395751953 C13.797011375427246 16.93292236328125 13.53248405456543 15.462919235229492 12.510743141174316 13.563072204589844 L12.510743141174316 13.563072204589844 C10.872725486755371 14.881877899169922 10.688515663146973 15.473881721496582 10.684137344360352 17.562936782836914 L10.684137344360352 17.562936782836914 C10.292729377746582 17.699840545654297 9.863618850708008 17.77182388305664 9.451227188110352 17.728513717651367 L9.451227188110352 17.728513717651367 C9.451227188110352 15.944069862365723 9.451227188110352 14.159626960754395 9.451227188110352 12.375184059143066 C9.451227188110352 10.590741157531738 9.451227188110352 8.80629825592041 9.451227188110352 7.021855354309082 L9.451227188110352 7.021855354309082"></path></svg>