<svg xmlns="http://www.w3.org/2000/svg" viewBox="0.0 0.0 24.0 24.0" height="200px" width="200px"><path fill="none" stroke="black" stroke-width=".3" stroke-opacity="1.0"  filling="0" d="M14.042616844177246 8.933157920837402 L14.042616844177246 8.933157920837402 C13.667549133300781 10.481561660766602 13.292465209960938 12.029958724975586 12.917341232299805 13.578349113464355 L12.917341232299805 13.578349113464355 C13.488018989562988 13.300682067871094 14.007291793823242 12.870983123779297 14.629375457763672 12.745348930358887 C17.613088607788086 12.142767906188965 14.883611679077148 15.478738784790039 14.340252876281738 16.11014175415039 L14.340252876281738 16.11014175415039 C14.665679931640625 17.271663665771484 14.991053581237793 18.43320083618164 15.31639575958252 19.594745635986328 L15.31639575958252 19.594745635986328 C13.07807731628418 19.68085289001465 13.388289451599121 18.446319580078125 13.363478660583496 16.465791702270508 L13.363478660583496 16.465791702270508 C12.953954696655273 16.659473419189453 12.395903587341309 16.67656135559082 12.134905815124512 17.04683494567871 C11.653749465942383 17.729442596435547 11.572346687316895 18.619535446166992 11.291067123413086 19.405885696411133 L11.291067123413086 19.405885696411133 C10.82086181640625 19.451602935791016 10.35065746307373 19.4973201751709 9.880452156066895 19.54303741455078 L9.880452156066895 19.54303741455078 C9.900099754333496 17.297815322875977 10.948862075805664 14.837542533874512 11.521307945251465 12.66727066040039 C11.928483009338379 11.123576164245605 12.442225456237793 10.4796142578125 11.537625312805176 9.159221649169922 L11.537625312805176 9.159221649169922 C12.372623443603516 9.083873748779297 13.207619667053223 9.00851821899414 14.042616844177246 8.933157920837402 L14.042616844177246 8.933157920837402"></path>
<path fill="none" stroke="black" stroke-width=".3" stroke-opacity="1.0"  filling="0" d="M14.478981018066406 13.546820640563965 L14.478981018066406 13.546820640563965 C13.977496147155762 13.800117492675781 13.323750495910645 13.866610527038574 12.974527359008789 14.30671215057373 C12.604020118713379 14.773636817932129 12.662520408630371 15.457290649414062 12.506516456604004 16.03257942199707 L12.506516456604004 16.03257942199707 C13.08414363861084 15.722647666931152 13.83193302154541 15.61628532409668 14.239398956298828 15.102785110473633 C14.565587997436523 14.69171142578125 14.399120330810547 14.065475463867188 14.478981018066406 13.546820640563965 L14.478981018066406 13.546820640563965"></path></svg>