<svg xmlns="http://www.w3.org/2000/svg" viewBox="0.0 0.0 24.0 24.0" height="200px" width="200px"><path fill="none" stroke="black" stroke-width=".3" stroke-opacity="1.0"  filling="0" d="M8.958433151245117 7.567491054534912 C10.31911849975586 7.62741756439209 11.620465278625488 9.036279678344727 13.120980262756348 9.955153465270996 C13.249058723449707 9.814149856567383 13.675007820129395 9.29008674621582 14.156769752502441 8.823598861694336 C15.446365356445312 7.576303958892822 16.950992584228516 7.038727283477783 18.713537216186523 7.639755725860596 C20.469623565673828 8.238433837890625 21.54653549194336 9.566218376159668 21.613513946533203 11.341689109802246 C21.752168655395508 15.0306978225708 21.655227661132812 18.729106903076172 21.655227661132812 22.520343780517578 C20.90085792541504 22.520343780517578 20.348007202148438 22.520343780517578 19.769304275512695 22.520343780517578 C19.668838500976562 22.187808990478516 19.51725959777832 21.91520118713379 19.514909744262695 21.64200782775879 C19.487884521484375 18.903011322021484 19.503158569335938 16.16342544555664 19.470256805419922 13.424430847167969 C19.440296173095703 10.948640823364258 18.56254768371582 9.546241760253906 16.989768981933594 9.35941219329834 C15.348838806152344 9.16435718536377 13.317797660827637 10.927490234375 13.112167358398438 13.053121566772461 C12.905949592590332 15.186976432800293 13.024040222167969 17.352558135986328 13.005826950073242 19.504039764404297 C12.997602462768555 20.468738555908203 13.00465202331543 21.43285369873047 13.00465202331543 22.506242752075195 C12.223257064819336 22.506242752075195 11.68097972869873 22.506242752075195 10.812044143676758 22.506242752075195 C10.812044143676758 20.582130432128906 10.814981460571289 18.74379539489746 10.810869216918945 16.905460357666016 C10.807931900024414 15.535962104797363 10.847295761108398 14.163525581359863 10.774442672729492 12.796964645385742 C10.65987777709961 10.64137077331543 9.579437255859375 9.298898696899414 8.017821311950684 9.245434761047363 C6.61130952835083 9.197257995605469 5.015030384063721 10.62374496459961 4.7336106300354 12.483230590820312 C4.485679626464844 14.117111206054688 4.499779224395752 15.794466972351074 4.457478046417236 17.453609466552734 C4.415764331817627 19.099239349365234 4.448078155517578 20.74663543701172 4.448078155517578 22.498605728149414 C3.6502323150634766 22.498605728149414 3.1144180297851562 22.498605728149414 2.4893016815185547 22.498605728149414 C2.4893016815185547 17.619876861572266 2.4893016815185547 12.864526748657227 2.4893016815185547 8.10917854309082 C2.656155586242676 7.995789527893066 2.8230104446411133 7.88357400894165 2.989865303039551 7.770771503448486 C3.523916244506836 8.317748069763184 4.0579681396484375 8.864725112915039 4.387564182281494 9.202547073364258 C5.822864055633545 8.640294075012207 7.417380332946777 7.4993391036987305 8.958433151245117 7.567491054534912"></path></svg>