<svg xmlns="http://www.w3.org/2000/svg" viewBox="0.0 0.0 24.0 24.0" height="200px" width="200px"><path fill="none" stroke="black" stroke-width=".3" stroke-opacity="1.0"  filling="0" d="M16.863849639892578 13.13813591003418 L16.863849639892578 13.13813591003418 C17.244409561157227 13.266852378845215 17.828834533691406 13.163490295410156 18.00552749633789 13.524285316467285 C18.231184005737305 13.985058784484863 17.86850929260254 14.541220664978027 17.799999237060547 15.049688339233398 L17.799999237060547 15.049688339233398 C17.404306411743164 14.78037166595459 17.0858097076416 14.315763473510742 16.612918853759766 14.241738319396973 C16.14654541015625 14.168733596801758 15.709233283996582 14.515029907226562 15.257390975952148 14.6516752243042 L15.257390975952148 14.6516752243042 C15.181697845458984 14.581613540649414 15.106003761291504 14.511552810668945 15.03031063079834 14.44149112701416 L15.03031063079834 14.44149112701416 C15.599063873291016 13.952810287475586 16.212499618530273 13.509661674499512 16.863849639892578 13.13813591003418 L16.863849639892578 13.13813591003418"></path>
<path fill="none" stroke="black" stroke-width=".3" stroke-opacity="1.0"  filling="0" d="M11.055154800415039 13.410932540893555 L11.055154800415039 13.410932540893555 C12.994869232177734 12.889238357543945 13.092192649841309 13.374403953552246 14.062360763549805 15.116273880004883 L14.062360763549805 15.116273880004883 C14.385010719299316 14.891511917114258 14.707659721374512 14.666749954223633 15.030309677124023 14.441987991333008 L15.030309677124023 14.441987991333008 C15.106003761291504 14.512049674987793 15.181696891784668 14.582111358642578 15.257390975952148 14.652173042297363 L15.257390975952148 14.652173042297363 C14.65527057647705 16.188749313354492 14.053098678588867 17.725305557250977 13.450928688049316 19.261863708496094 C12.848758697509766 20.798419952392578 12.246588706970215 22.334976196289062 11.644472122192383 23.87155532836914 L11.644472122192383 23.87155532836914 C11.539496421813965 23.87155532836914 9.51669692993164 23.87155532836914 9.50136661529541 23.87155532836914 L9.50136661529541 23.87155532836914 C9.906438827514648 22.214576721191406 10.443458557128906 20.676677703857422 10.856165885925293 19.119489669799805 C11.26887321472168 17.562301635742188 11.557268142700195 15.985820770263672 11.465093612670898 14.251678466796875 L11.465093612670898 14.251678466796875 C10.9279203414917 14.258020401000977 10.390380859375 14.284083366394043 9.85565185546875 14.335653305053711 L9.85565185546875 14.335653305053711 C10.255486488342285 14.027413368225098 10.655320167541504 13.719172477722168 11.055154800415039 13.410932540893555 L11.055154800415039 13.410932540893555"></path></svg>