<svg xmlns="http://www.w3.org/2000/svg" viewBox="0.0 0.0 24.0 24.0" height="200px" width="200px"><path fill="none" stroke="black" stroke-width=".3" stroke-opacity="1.0"  filling="0" d="M12.268598556518555 7.260005474090576 L12.268598556518555 7.260005474090576 C12.3211669921875 7.849883556365967 12.131415367126465 8.51606273651123 12.426302909851074 9.02963924407959 C12.599726676940918 9.331674575805664 13.136178970336914 9.119185447692871 13.436946868896484 9.294798851013184 C13.766616821289062 9.487287521362305 13.98186206817627 9.82959270477295 14.25432014465332 10.096989631652832 L14.25432014465332 10.096989631652832 C13.626749992370605 10.211297035217285 12.99917984008789 10.325603485107422 12.371609687805176 10.439910888671875 L12.371609687805176 10.439910888671875 C12.368559837341309 11.809652328491211 11.688511848449707 15.483796119689941 12.704673767089844 16.570966720581055 C13.16801643371582 17.066686630249023 14.515206336975098 17.0521183013916 15.030086517333984 17.097679138183594 L15.030086517333984 17.097679138183594 C13.506138801574707 18.532438278198242 11.895895957946777 18.180458068847656 11.219032287597656 15.985366821289062 C10.73450756072998 14.414034843444824 11.091552734375 12.073553085327148 11.08951473236084 10.44494342803955 L11.08951473236084 10.44494342803955 C10.649175643920898 10.35155200958252 10.20883560180664 10.258159637451172 9.7684965133667 10.16476821899414 L9.7684965133667 10.16476821899414 C9.897064208984375 9.871898651123047 9.923673629760742 9.507879257202148 10.154199600219727 9.28615951538086 C10.40222454071045 9.047609329223633 10.90869140625 9.164262771606445 11.103607177734375 8.880660057067871 C11.3009614944458 8.59350872039795 10.947208404541016 8.119339942932129 11.150582313537598 7.836420059204102 C11.395313262939453 7.495966911315918 11.895926475524902 7.452143669128418 12.268598556518555 7.260005474090576 L12.268598556518555 7.260005474090576"></path></svg>