<svg xmlns="http://www.w3.org/2000/svg" viewBox="0.0 0.0 24.0 24.0" height="200px" width="200px"><path fill="none" stroke="black" stroke-width=".3" stroke-opacity="1.0"  filling="0" d="M18.960063934326172 6.1619157791137695 C18.960063934326172 12.309294700622559 18.960063934326172 18.308507919311523 18.960063934326172 24.30624008178711 C17.16948890686035 24.435144424438477 17.16948890686035 24.435144424438477 16.551639556884766 22.577152252197266 C16.32346534729004 22.640121459960938 16.016761779785156 22.629749298095703 15.878969192504883 22.777175903320312 C13.867624282836914 24.930757522583008 11.55846881866455 26.075334548950195 8.607015609741211 24.87889862060547 C5.616299152374268 23.665424346923828 4.943627834320068 21.109573364257812 4.9295525550842285 18.235166549682617 C4.910290241241455 14.304341316223145 4.925106525421143 10.373515129089355 4.925106525421143 6.292302131652832 C5.921518802642822 6.292302131652832 6.609005451202393 6.292302131652832 7.779510974884033 6.292302131652832 C7.779510974884033 9.534158706665039 7.779510974884033 12.710822105407715 7.779510974884033 15.886746406555176 C7.779510974884033 16.503854751586914 7.76765775680542 17.1217041015625 7.786919116973877 17.738811492919922 C7.895080089569092 21.193286895751953 8.947794914245605 22.7919921875 11.23176383972168 22.986827850341797 C13.392012596130371 23.171295166015625 15.753026962280273 21.098461151123047 16.08047103881836 18.26998519897461 C16.390878677368164 15.584487915039062 16.27234649658203 12.849357604980469 16.324203491210938 10.135709762573242 C16.347909927368164 8.924458503723145 16.32790756225586 7.712466239929199 16.32790756225586 6.341196060180664 C17.360620498657227 6.270817756652832 18.050329208374023 6.224145412445068 18.960063934326172 6.1619157791137695"></path></svg>