<svg xmlns="http://www.w3.org/2000/svg" viewBox="0.0 0.0 24.0 24.0" height="200px" width="200px"><path fill="none" stroke="black" stroke-width=".3" stroke-opacity="1.0"  filling="0" d="M18.819246292114258 6.694666862487793 C19.113754272460938 6.881391525268555 19.40902328491211 7.068116188049316 19.70353126525879 7.254840850830078 C19.20560073852539 8.855663299560547 18.738788604736328 10.466352462768555 18.20442008972168 12.05502986907959 C16.875335693359375 16.00357437133789 15.409624099731445 19.909610748291016 14.213372230529785 23.896862030029297 C13.628907203674316 25.850643157958984 12.539680480957031 26.211946487426758 10.374128341674805 25.661640167236328 C8.227555274963379 19.565763473510742 6.099197864532471 13.520742416381836 3.8797550201416016 7.217648029327393 C5.006935119628906 7.127321720123291 5.8380866050720215 7.061285018920898 6.948566913604736 6.9717183113098145 C8.598727226257324 11.784052848815918 10.226116180419922 16.526554107666016 12.11233901977539 22.028100967407227 C13.033059120178223 19.553619384765625 13.760221481323242 17.68561363220215 14.422866821289062 15.79407787322998 C15.257055282592773 13.412199020385742 15.943231582641602 10.973394393920898 16.896587371826172 8.642372131347656 C17.216144561767578 7.861316204071045 18.160396575927734 7.336817264556885 18.819246292114258 6.694666862487793"></path></svg>