<svg xmlns="http://www.w3.org/2000/svg" viewBox="0.0 0.0 24.0 24.0" height="200px" width="200px"><path fill="none" stroke="black" stroke-width=".3" stroke-opacity="1.0"  filling="0" d="M18.0078125 13.362130165100098 L18.0078125 13.362130165100098 C18.010990142822266 14.181158065795898 17.95713996887207 15.1224946975708 17.431644439697266 15.750722885131836 L17.431644439697266 15.750722885131836 C17.431644439697266 15.127516746520996 17.431644439697266 14.504310607910156 17.431644439697266 13.881104469299316 L17.431644439697266 13.881104469299316 C16.72799301147461 14.439501762390137 16.024314880371094 14.997865676879883 15.320587158203125 15.55616569519043 L15.177600860595703 15.427711486816406 C16.095600128173828 13.961443901062012 16.216733932495117 13.823780059814453 18.0078125 13.362130165100098 L18.0078125 13.362130165100098"></path>
<path fill="none" stroke="black" stroke-width=".3" stroke-opacity="1.0"  filling="0" d="M9.842063903808594 14.383671760559082 L9.842063903808594 14.383671760559082 C10.22203254699707 14.020428657531738 10.52477741241455 13.553359031677246 10.981969833374023 13.29394245147705 C12.593420028686523 12.379587173461914 13.65279483795166 15.717494010925293 13.996198654174805 16.390182495117188 L13.996198654174805 16.390182495117188 C14.390155792236328 16.069204330444336 14.784113883972168 15.748225212097168 15.178071022033691 15.42724609375 L15.178071022033691 15.42724609375 C15.225732803344727 15.470376014709473 15.273395538330078 15.513504981994629 15.321057319641113 15.556634902954102 L15.321057319641113 15.556634902954102 C14.617626190185547 16.95380401611328 14.439196586608887 18.240415573120117 14.740321159362793 19.41421127319336 C15.0414457321167 20.5880069732666 15.822124481201172 21.64898681640625 17.036907196044922 22.594894409179688 L17.036907196044922 22.594894409179688 C16.809650421142578 22.928903579711914 16.693172454833984 23.375694274902344 16.355138778686523 23.596920013427734 C13.939214706420898 25.17801856994629 13.525964736938477 21.255218505859375 12.630083084106445 20.277563095092773 C12.387741088867188 20.013099670410156 11.980311393737793 19.973461151123047 11.655425071716309 19.821409225463867 L11.655425071716309 19.821409225463867 C12.179242134094238 17.480880737304688 11.597221374511719 15.990924835205078 9.842063903808594 14.383671760559082 L9.842063903808594 14.383671760559082"></path>
<path fill="none" stroke="black" stroke-width=".3" stroke-opacity="1.0"  filling="0" d="M8.46938419342041 21.011249542236328 L8.46938419342041 21.011249542236328 C8.571741104125977 21.426929473876953 8.674098014831543 21.842609405517578 8.77645492553711 22.258289337158203 L8.77645492553711 22.258289337158203 C9.178226470947266 22.229536056518555 9.579997062683105 22.200780868530273 9.981768608093262 22.172027587890625 L9.981768608093262 22.172027587890625 C10.03568172454834 22.357208251953125 10.089594841003418 22.542388916015625 10.143507957458496 22.727569580078125 L10.143507957458496 22.727569580078125 C9.47480583190918 22.984281539916992 7.516124725341797 24.03241539001465 7.738917827606201 22.165931701660156 C7.792899131774902 21.71369743347168 8.225895881652832 21.396142959594727 8.46938419342041 21.011249542236328 L8.46938419342041 21.011249542236328"></path></svg>