<svg xmlns="http://www.w3.org/2000/svg" viewBox="0.0 0.0 24.0 24.0" height="200px" width="200px"><path fill="none" stroke="black" stroke-width=".3" stroke-opacity="1.0"  filling="0" d="M10.889616012573242 3.1022462844848633 C13.656262397766113 2.525320053100586 16.742984771728516 3.725461006164551 18.0786075592041 5.8976826667785645 C19.383747100830078 8.020227432250977 19.225683212280273 10.681876182556152 17.130800247192383 12.904903411865234 C14.827049255371094 15.35034465789795 12.182899475097656 17.47402000427246 9.307867050170898 20.082040786743164 C11.239044189453125 20.144699096679688 12.938209533691406 20.045345306396484 14.582052230834961 20.299373626708984 C16.033397674560547 20.524049758911133 18.113605499267578 19.247699737548828 19.192378997802734 22.158296585083008 C16.64984130859375 22.158296585083008 14.52052116394043 22.158296585083008 12.391202926635742 22.158296585083008 C10.238739013671875 22.158296585083008 8.086275100708008 22.158296585083008 6.0354228019714355 22.158296585083008 C5.246242523193359 20.62114715576172 6.024132251739502 19.910995483398438 6.979842662811279 19.161895751953125 C9.19835376739502 17.421520233154297 11.392026901245117 15.646146774291992 13.525860786437988 13.804727554321289 C14.368104934692383 13.078207015991211 15.150510787963867 12.21677017211914 15.740984916687012 11.278559684753418 C17.06362533569336 9.179723739624023 16.705726623535156 7.0515336990356445 14.967045783996582 5.746959209442139 C13.080465316772461 4.3317413330078125 10.432929039001465 4.620203971862793 8.904245376586914 6.493801593780518 C8.38546371459961 7.130001068115234 8.077808380126953 7.938374042510986 7.568623065948486 8.857955932617188 C7.092178821563721 8.75747299194336 6.506221294403076 8.633281707763672 5.927602291107178 8.511348724365234 C6.407997131347656 5.423496723175049 8.025873184204102 3.699493408203125 10.889616012573242 3.1022462844848633"></path></svg>