<svg xmlns="http://www.w3.org/2000/svg" viewBox="0.0 0.0 24.0 24.0" height="200px" width="200px"><path fill="none" stroke="black" stroke-width=".3" stroke-opacity="1.0"  filling="0" d="M12.3264741897583 6.904709339141846 L12.3264741897583 6.904709339141846 C12.632174491882324 7.021780490875244 12.937874794006348 7.138851165771484 13.243575096130371 7.255922317504883 L13.243575096130371 7.255922317504883 C13.249432563781738 7.380743980407715 13.255290985107422 7.505565643310547 13.261148452758789 7.630387306213379 L13.261148452758789 7.630387306213379 C12.701652526855469 7.914146900177002 11.905956268310547 7.928234100341797 11.379631996154785 7.586856842041016 L11.379631996154785 7.586856842041016 C11.695245742797852 7.359474182128906 12.010860443115234 7.132091999053955 12.3264741897583 6.904709339141846 L12.3264741897583 6.904709339141846"></path>
<path fill="none" stroke="black" stroke-width=".3" stroke-opacity="1.0"  filling="0" d="M11.357461929321289 8.884370803833008 L11.357461929321289 8.884370803833008 C11.84782600402832 8.884370803833008 12.338190078735352 8.884370803833008 12.828554153442383 8.884370803833008 L12.828554153442383 8.884370803833008 C12.432989120483398 11.103992462158203 12.340707778930664 13.809510231018066 11.538610458374023 15.917010307312012 C10.92524528503418 17.52861785888672 9.724342346191406 18.284069061279297 8.456912994384766 16.968215942382812 L8.456912994384766 16.968215942382812 C8.910202980041504 16.77901268005371 9.474626541137695 16.753023147583008 9.816781997680664 16.400604248046875 C10.200912475585938 16.00494956970215 10.45727252960205 13.992599487304688 10.528831481933594 13.579360008239746 C10.799985885620117 12.013490676879883 11.080678939819336 10.449251174926758 11.357461929321289 8.884370803833008 L11.357461929321289 8.884370803833008"></path></svg>