<svg xmlns="http://www.w3.org/2000/svg" viewBox="0.0 0.0 24.0 24.0" height="200px" width="200px"><path fill="none" stroke="black" stroke-width=".3" stroke-opacity="1.0"  filling="0" d="M17.26236915588379 7.074373245239258 C20.39414405822754 8.038291931152344 21.082969665527344 11.302133560180664 18.613718032836914 13.440946578979492 C17.799400329589844 14.146211624145508 16.80753517150879 14.646529197692871 15.854028701782227 15.268499374389648 C16.29077911376953 15.882800102233887 16.747257232666016 16.44449234008789 17.117698669433594 17.05879020690918 C18.59782600402832 19.51215171813965 18.235055923461914 22.41925048828125 16.244747161865234 24.293384552001953 C14.279099464416504 26.143953323364258 10.828940391540527 26.517135620117188 8.643548011779785 25.115921020507812 C6.458703994750977 23.714702606201172 6.052093505859375 20.772533416748047 7.928966522216797 18.721948623657227 C8.884117126464844 17.67637825012207 10.157102584838867 16.922887802124023 11.435019493103027 15.922253608703613 C11.185683250427246 15.511260986328125 10.889219284057617 15.083277702331543 10.653035163879395 14.624061584472656 C9.46005630493164 12.308246612548828 9.622810363769531 10.282867431640625 11.248703002929688 8.584092140197754 C12.91350269317627 6.844764709472656 14.997516632080078 6.376779556274414 17.26236915588379 7.074373245239258"></path>
<path fill="none" stroke="black" stroke-width=".3" stroke-opacity="1.0"  filling="0" d="M16.63656234741211 7.919924736022949 C17.93804359436035 8.791232109069824 18.195051193237305 10.212724685668945 17.67171859741211 11.554208755493164 C17.235517501831055 12.672112464904785 16.376264572143555 13.625070571899414 15.405771255493164 15.106842041015625 C14.249506950378418 13.830568313598633 13.412176132202148 13.122014045715332 12.853771209716797 12.237554550170898 C12.057538986206055 10.9771728515625 12.080554962158203 9.57814884185791 13.17599105834961 8.481616973876953 C14.132784843444824 7.523726463317871 15.390426635742188 7.085332870483398 16.63656234741211 7.919924736022949"></path>
<path fill="none" stroke="black" stroke-width=".3" stroke-opacity="1.0"  filling="0" d="M12.562788009643555 16.572172164916992 C13.48889446258545 17.78268814086914 14.486787796020508 18.833187103271484 15.179450035095215 20.056304931640625 C16.050758361816406 21.593971252441406 15.51208209991455 23.107524871826172 14.359106063842773 24.279682159423828 C13.406695365905762 25.2474365234375 12.14576530456543 25.491840362548828 10.834421157836914 24.92959976196289 C9.216748237609863 24.236391067504883 8.983851432800293 22.8242130279541 9.037554740905762 21.307918548583984 C9.112629890441895 19.177875518798828 10.319856643676758 17.79967498779297 12.562788009643555 16.572172164916992"></path></svg>