<svg xmlns="http://www.w3.org/2000/svg" viewBox="0.0 0.0 24.0 24.0" height="200px" width="200px"><path fill="none" stroke="black" stroke-width=".3" stroke-opacity="1.0"  filling="0" d="M9.766256332397461 7.256339073181152 L9.766256332397461 7.256339073181152 C11.468449592590332 7.251161575317383 14.112992286682129 6.83040189743042 15.665091514587402 7.743075370788574 C16.63941764831543 8.316003799438477 17.08926773071289 9.735061645507812 16.570295333862305 10.755833625793457 C16.252477645874023 11.380950927734375 15.576385498046875 11.745410919189453 15.07943058013916 12.240199089050293 L15.07943058013916 12.240199089050293 C15.313855171203613 12.58057689666748 16.20152473449707 13.781896591186523 16.276996612548828 14.23243522644043 C16.676000595092773 16.61434555053711 15.296332359313965 17.567352294921875 13.463455200195312 17.92133903503418 C11.630578994750977 18.275325775146484 9.344493865966797 18.030290603637695 7.930665016174316 18.016115188598633 L7.930665016174316 18.016115188598633 C8.236587524414062 16.222816467285156 8.542529106140137 14.429523468017578 8.848468780517578 12.636228561401367 C9.154407501220703 10.842933654785156 9.460344314575195 9.049638748168945 9.766256332397461 7.256339073181152 L9.766256332397461 7.256339073181152"></path>
<path fill="none" stroke="black" stroke-width=".3" stroke-opacity="1.0"  filling="0" d="M10.910516738891602 8.289084434509277 L10.910516738891602 8.289084434509277 C11.888416290283203 8.278796195983887 13.98817253112793 7.928136825561523 14.850921630859375 8.614433288574219 C16.12689781188965 9.629443168640137 15.23484992980957 11.32876968383789 13.934843063354492 11.683930397033691 C13.410179138183594 11.827268600463867 10.843050003051758 11.729551315307617 10.374849319458008 11.71924877166748 L10.374849319458008 11.71924877166748 C10.390286445617676 11.620404243469238 10.904488563537598 8.327690124511719 10.910516738891602 8.289084434509277 L10.910516738891602 8.289084434509277"></path>
<path fill="none" stroke="black" stroke-width=".3" stroke-opacity="1.0"  filling="0" d="M10.113883972167969 12.882803916931152 L10.113883972167969 12.882803916931152 C11.323599815368652 12.867459297180176 13.563460350036621 12.459102630615234 14.576507568359375 13.406493186950684 C15.801334381103516 14.551937103271484 14.797578811645508 16.330520629882812 13.53194808959961 16.795658111572266 C12.410673141479492 17.20774269104004 10.638049125671387 17.0008487701416 9.461468696594238 17.050081253051758 L9.461468696594238 17.050081253051758 C9.678925514221191 15.660987854003906 9.896381378173828 14.271890640258789 10.113883972167969 12.882803916931152 L10.113883972167969 12.882803916931152"></path></svg>