<svg xmlns="http://www.w3.org/2000/svg" viewBox="0.0 0.0 24.0 24.0" height="200px" width="200px"><path fill="none" stroke="black" stroke-width=".3" stroke-opacity="1.0"  filling="0" d="M14.36668586730957 6.997666835784912 C15.436531066894531 6.782389163970947 16.743999481201172 6.100042819976807 17.61873435974121 7.521417140960693 L17.684133529663086 7.456561088562012 C15.362956047058105 6.873950481414795 13.54100227355957 7.862045764923096 12.147968292236328 9.529217720031738 C9.352090835571289 12.875005722045898 8.081682205200195 16.789236068725586 8.629958152770996 21.148189544677734 C9.06432819366455 24.6046142578125 12.036787033081055 26.199848175048828 15.240330696105957 24.79264259338379 C16.052387237548828 24.435665130615234 16.828475952148438 23.92226791381836 17.499378204345703 23.34020233154297 C18.1539306640625 22.772308349609375 18.653156280517578 22.025104522705078 19.504451751708984 21.022296905517578 C19.18507957458496 22.467105865478516 18.95726776123047 23.497711181640625 18.750164031982422 24.43511962890625 C17.62908935546875 24.770301818847656 16.611562728881836 25.059696197509766 15.602758407592773 25.377979278564453 C9.674188613891602 27.24789047241211 4.959345817565918 23.294967651367188 5.758869647979736 17.118419647216797 C6.397070407867432 12.186119079589844 9.996831893920898 7.87730598449707 14.36668586730957 6.997666835784912"></path>
<path fill="none" stroke="black" stroke-width=".3" stroke-opacity="1.0"  filling="0" d="M17.683589935302734 7.456561088562012 L17.61873435974121 7.521417140960693 C18.77796173095703 7.693093776702881 19.93718719482422 7.864770889282227 21.24302101135254 8.057703018188477 C21.127479553222656 8.833246231079102 21.01575469970703 9.58262825012207 20.892038345336914 10.410490989685059 C19.748071670532227 9.356996536254883 18.715829849243164 8.406505584716797 17.683589935302734 7.456561088562012"></path></svg>