<svg xmlns="http://www.w3.org/2000/svg" viewBox="0.0 0.0 24.0 24.0" height="200px" width="200px"><path fill="none" stroke="black" stroke-width=".3" stroke-opacity="1.0"  filling="0" d="M9.890204429626465 2.912931442260742 C9.890204429626465 7.268552303314209 9.890204429626465 11.387063026428223 9.890204429626465 15.60504150390625 C12.71133041381836 14.360886573791504 13.416746139526367 13.308675765991211 12.995755195617676 11.204794883728027 C14.630792617797852 11.204794883728027 16.258840560913086 11.204794883728027 18.122386932373047 11.204794883728027 C16.128726959228516 12.579065322875977 14.371100425720215 13.789886474609375 12.168289184570312 15.308250427246094 C14.645848274230957 17.750324249267578 16.7991943359375 19.872486114501953 18.986949920654297 22.028518676757812 C17.320728302001953 22.028518676757812 15.462559700012207 22.028518676757812 13.604391098022461 22.028518676757812 C13.845803260803223 19.612255096435547 11.696220397949219 18.579938888549805 10.319799423217773 16.687898635864258 C9.534271240234375 18.789630889892578 9.402006149291992 20.48004913330078 11.483842849731445 22.112934112548828 C9.310602188110352 22.112934112548828 7.584698677062988 22.112934112548828 5.948047637939453 22.112934112548828 C6.34376859664917 21.038681030273438 6.931436061859131 20.157447814941406 6.953480243682861 19.262775421142578 C7.050259590148926 15.328145027160645 7.065314292907715 11.385988235473633 6.917994499206543 7.454047203063965 C6.881433010101318 6.48571252822876 6.124401569366455 5.544261932373047 5.613620281219482 4.399036407470703 C6.794869422912598 3.988798141479492 8.192259788513184 3.5032873153686523 9.890204429626465 2.912931442260742"></path></svg>