<svg xmlns="http://www.w3.org/2000/svg" viewBox="0.0 0.0 24.0 24.0" height="200px" width="200px"><path fill="none" stroke="black" stroke-width=".3" stroke-opacity="1.0"  filling="0" d="M10.813240051269531 6.888524055480957 L10.813240051269531 6.888524055480957 C10.813240051269531 9.268295288085938 10.813240051269531 11.648064613342285 10.813240051269531 14.027835845947266 L10.813240051269531 14.027835845947266 C11.33234691619873 13.675762176513672 12.008882522583008 13.484076499938965 12.370560646057129 12.971614837646484 C12.645709037780762 12.581757545471191 12.496928215026855 12.025670051574707 12.560111999511719 11.55269718170166 L12.560111999511719 11.55269718170166 C13.521355628967285 11.55269718170166 14.482599258422852 11.55269718170166 15.443842887878418 11.55269718170166 L15.443842887878418 11.55269718170166 C14.327469825744629 12.322122573852539 13.211044311523438 13.09148120880127 12.0946626663208 13.860891342163086 L12.0946626663208 13.860891342163086 C13.373122215270996 15.120984077453613 14.65162181854248 16.381027221679688 15.930159568786621 17.641040802001953 L15.930159568786621 17.641040802001953 C14.920929908752441 17.641040802001953 13.911700248718262 17.641040802001953 12.902470588684082 17.641040802001953 L12.902470588684082 17.641040802001953 C12.503069877624512 16.53537368774414 11.845704078674316 15.506786346435547 11.054886817932129 14.636942863464355 L11.054886817932129 14.636942863464355 C10.962404251098633 15.178505897521973 10.662178039550781 15.724454879760742 10.77743911743164 16.26163101196289 C10.896632194519043 16.817129135131836 11.398921012878418 17.212892532348633 11.709661483764648 17.68852424621582 L11.709661483764648 17.68852424621582 C10.671699523925781 17.68852424621582 9.633737564086914 17.68852424621582 8.595776557922363 17.68852424621582 L8.595776557922363 17.68852424621582 C9.120922088623047 16.19986343383789 9.383249282836914 14.433396339416504 9.359611511230469 12.67681884765625 C9.335973739624023 10.920241355895996 9.026371002197266 9.173554420471191 8.407661437988281 7.72445821762085 L8.407661437988281 7.72445821762085 C9.209547996520996 7.445891857147217 10.01140308380127 7.167233943939209 10.813240051269531 6.888524055480957 L10.813240051269531 6.888524055480957"></path></svg>