<svg xmlns="http://www.w3.org/2000/svg" viewBox="0.0 0.0 24.0 24.0" height="200px" width="200px"><path fill="none" stroke="black" stroke-width=".3" stroke-opacity="1.0"  filling="0" d="M9.790312767028809 9.007307052612305 L9.790312767028809 9.007307052612305 C9.920243263244629 9.007307052612305 12.432162284851074 9.007307052612305 12.438084602355957 9.007307052612305 L12.438084602355957 9.007307052612305 C11.362994194030762 10.642849922180176 11.015839576721191 12.151162147521973 10.440962791442871 14.015887260437012 L10.440962791442871 14.015887260437012 C10.94314956665039 13.804760932922363 11.44533634185791 13.593634605407715 11.94752311706543 13.382508277893066 L11.94752311706543 13.382508277893066 C12.618476867675781 14.482800483703613 13.305679321289062 15.562586784362793 14.013453483581543 16.628721237182617 C14.72122859954834 17.694856643676758 15.449576377868652 18.747339248657227 16.202823638916016 19.793025970458984 L16.202823638916016 19.793025970458984 C16.136255264282227 19.793025970458984 13.454870223999023 19.793025970458984 13.446111679077148 19.793025970458984 L13.446111679077148 19.793025970458984 C13.005391120910645 17.662464141845703 11.821414947509766 16.355348587036133 10.64389705657959 14.572212219238281 L10.64389705657959 14.572212219238281 C9.917131423950195 16.496952056884766 9.46229362487793 17.73818016052246 9.579739570617676 19.806976318359375 L9.579739570617676 19.806976318359375 C9.517607688903809 19.806976318359375 6.900493144989014 19.806976318359375 6.893440246582031 19.806976318359375 L6.893440246582031 19.806976318359375 C7.736623764038086 18.258487701416016 8.429288864135742 16.43887710571289 8.926935195922852 14.56623363494873 C9.424580574035645 12.693591117858887 9.72720718383789 10.76791763305664 9.790312767028809 9.007307052612305 L9.790312767028809 9.007307052612305"></path></svg>