<svg xmlns="http://www.w3.org/2000/svg" viewBox="0.0 0.0 24.0 24.0" height="200px" width="200px"><path fill="none" stroke="black" stroke-width=".3" stroke-opacity="1.0"  filling="0" d="M13.970325469970703 8.814691543579102 L13.970325469970703 8.814691543579102 C14.126391410827637 8.957484245300293 14.28245735168457 9.100276947021484 14.438523292541504 9.243069648742676 L14.468389511108398 9.215693473815918 C14.085144996643066 9.21289348602295 13.677764892578125 9.073407173156738 13.318656921386719 9.207293510437012 C11.631773948669434 9.83621597290039 11.960258483886719 11.061219215393066 12.785055160522461 12.285285949707031 C13.609851837158203 13.50935173034668 14.930961608886719 14.732481956481934 15.229329109191895 15.357656478881836 C15.478982925415039 15.88076114654541 15.653552055358887 16.471895217895508 15.625354766845703 17.05083465576172 C15.563286781311035 18.32520866394043 14.737421035766602 19.20848274230957 13.508231163024902 19.514129638671875 C12.874631881713867 19.67167854309082 11.722677230834961 19.914979934692383 11.563377380371094 19.281818389892578 L11.563377380371094 19.281818389892578 C11.551348686218262 19.294675827026367 11.539319038391113 19.30753517150879 11.527290344238281 19.320392608642578 L11.527290344238281 19.320392608642578 C13.86398696899414 19.18927001953125 14.888731956481934 17.589214324951172 13.449861526489258 15.475872993469238 C12.850654602050781 14.595787048339844 11.686809539794922 13.449585914611816 11.113718032836914 12.300943374633789 C10.540627479553223 11.152300834655762 10.558290481567383 10.001214981079102 12.322100639343262 9.111359596252441 C12.820501327514648 8.859912872314453 13.420917510986328 8.913580894470215 13.970325469970703 8.814691543579102 L13.970325469970703 8.814691543579102"></path>
<path fill="none" stroke="black" stroke-width=".3" stroke-opacity="1.0"  filling="0" d="M14.46807861328125 9.215693473815918 L14.438213348388672 9.243069648742676 C14.651504516601562 9.268122673034668 16.346290588378906 9.46702766418457 16.521621704101562 9.487590789794922 L16.521621704101562 9.487590789794922 C16.484384536743164 9.629583358764648 16.033349990844727 11.349249839782715 16.00333595275879 11.46367073059082 L16.00333595275879 11.46367073059082 C15.729700088500977 10.598509788513184 15.192521095275879 9.762102127075195 14.46807861328125 9.215693473815918 L14.46807861328125 9.215693473815918"></path>
<path fill="none" stroke="black" stroke-width=".3" stroke-opacity="1.0"  filling="0" d="M9.480279922485352 17.263429641723633 L9.480279922485352 17.263429641723633 C9.601442337036133 17.385169982910156 11.386579513549805 19.178985595703125 11.527290344238281 19.320392608642578 L11.527290344238281 19.320392608642578 C11.539319038391113 19.30753517150879 11.551348686218262 19.294675827026367 11.563377380371094 19.281818389892578 L11.563377380371094 19.281818389892578 C11.001751899719238 19.123281478881836 9.8211030960083 18.78995132446289 9.268113136291504 18.633806228637695 L9.268113136291504 18.633806228637695 C9.338835716247559 18.177013397216797 9.409557342529297 17.72022247314453 9.480279922485352 17.263429641723633 L9.480279922485352 17.263429641723633"></path></svg>