<svg xmlns="http://www.w3.org/2000/svg" viewBox="0.0 0.0 24.0 24.0" height="200px" width="200px"><path fill="none" stroke="black" stroke-width=".3" stroke-opacity="1.0"  filling="0" d="M16.626708984375 6.843684196472168 L16.626708984375 6.843684196472168 C16.7347354888916 6.910885810852051 16.84276008605957 6.978087902069092 16.950786590576172 7.045289516448975 L16.950786590576172 7.045289516448975 C16.746337890625 8.387845993041992 16.681777954101562 10.282232284545898 16.39328956604004 12.09119701385498 C16.104799270629883 13.900160789489746 15.592379570007324 15.623703002929688 14.492208480834961 16.624568939208984 C12.863971710205078 18.105836868286133 9.579432487487793 18.054702758789062 8.630887985229492 15.781742095947266 C8.240994453430176 14.847455978393555 8.605470657348633 13.430551528930664 8.741508483886719 12.555827140808105 C9.029759407043457 10.702366828918457 9.35708999633789 8.854692459106445 9.668824195861816 7.005094528198242 L9.668824195861816 7.005094528198242 C10.087212562561035 7.005094528198242 10.505599975585938 7.005094528198242 10.923988342285156 7.005094528198242 L10.923988342285156 7.005094528198242 C10.578829765319824 9.12928581237793 9.933906555175781 11.418994903564453 9.861007690429688 13.568248748779297 C9.838629722595215 14.22800350189209 9.684356689453125 14.963580131530762 9.999140739440918 15.543828964233398 C10.738472938537598 16.906660079956055 13.075623512268066 16.73953628540039 13.975489616394043 15.753500938415527 C15.031490325927734 14.596380233764648 15.08890151977539 12.844672203063965 15.185009002685547 11.14437198638916 C15.281116485595703 9.444070816040039 15.415922164916992 7.795176982879639 16.626708984375 6.843684196472168 L16.626708984375 6.843684196472168"></path></svg>