<svg xmlns="http://www.w3.org/2000/svg" viewBox="0.0 0.0 24.0 24.0" height="200px" width="200px"><path fill="none" stroke="black" stroke-width=".3" stroke-opacity="1.0"  filling="0" d="M8.216036796569824 7.012844085693359 L8.216036796569824 7.012844085693359 C8.703963279724121 7.012844085693359 9.191890716552734 7.012844085693359 9.679817199707031 7.012844085693359 L9.679817199707031 7.012844085693359 C10.43460464477539 8.694936752319336 11.189400672912598 10.377022743225098 11.944183349609375 12.05911922454834 L11.944183349609375 12.05911922454834 C13.216975212097168 10.342693328857422 14.602188110351562 7.010441303253174 16.921100616455078 7.112917423248291 L16.921100616455078 7.112917423248291 C15.589459419250488 8.961943626403809 13.843033790588379 10.782905578613281 12.776806831359863 12.795167922973633 C11.981212615966797 14.296670913696289 11.875349998474121 16.10289192199707 11.564366340637207 17.74612808227539 L11.564366340637207 17.74612808227539 C11.128072738647461 17.74612808227539 10.691780090332031 17.74612808227539 10.255486488342285 17.74612808227539 L10.255486488342285 17.74612808227539 C10.497001647949219 16.320301055908203 10.89795207977295 14.780074119567871 10.741485595703125 13.319862365722656 C10.510242462158203 11.16180419921875 9.09776782989502 8.959014892578125 8.216036796569824 7.012844085693359 L8.216036796569824 7.012844085693359"></path></svg>