<svg xmlns="http://www.w3.org/2000/svg" viewBox="0.0 0.0 24.0 24.0" height="200px" width="200px"><path fill="none" stroke="black" stroke-width=".3" stroke-opacity="1.0"  filling="0" d="M17.24264907836914 5.633093357086182 C19.398731231689453 6.671078681945801 20.131343841552734 8.59778881072998 19.922515869140625 10.718265533447266 C19.57811737060547 14.21564769744873 18.916025161743164 17.681535720825195 18.365535736083984 21.15769386291504 C18.224491119384766 22.05120849609375 18.00196647644043 22.931716918945312 17.75274085998535 24.125812530517578 C16.74967384338379 24.186748504638672 15.682931900024414 24.251110076904297 14.18552017211914 24.34148597717285 C14.668225288391113 21.267925262451172 15.106424331665039 18.51137351989746 15.530929565429688 15.753454208374023 C15.73838996887207 14.40735912322998 16.051977157592773 13.060579299926758 16.086212158203125 11.708322525024414 C16.153310775756836 9.043519973754883 14.510746002197266 8.052777290344238 12.058197021484375 9.161970138549805 C9.704242706298828 10.226659774780273 8.936022758483887 12.358091354370117 8.491661071777344 14.635360717773438 C7.885027885437012 17.74041748046875 7.3893141746521 20.867385864257812 6.820339202880859 24.128549575805664 C5.6002278327941895 24.128551483154297 4.530062198638916 24.128551483154297 3.1702728271484375 24.128551483154297 C4.214420795440674 18.001283645629883 5.2215962409973145 12.093118667602539 6.259582042694092 6.002139091491699 C7.355766296386719 5.93846321105957 8.341031074523926 5.8809494972229 9.559774398803711 5.810426235198975 C9.494729042053223 6.805277347564697 9.442008018493652 7.617316246032715 9.374908447265625 8.65187931060791 C10.220497131347656 7.843947887420654 10.82302188873291 7.148305416107178 11.541258811950684 6.607402801513672 C13.256400108337402 5.3174519538879395 15.103687286376953 4.602638244628906 17.24264907836914 5.633093357086182"></path></svg>