<svg xmlns="http://www.w3.org/2000/svg" viewBox="0.0 0.0 24.0 24.0" height="200px" width="200px"><path fill="none" stroke="black" stroke-width=".3" stroke-opacity="1.0"  filling="0" d="M10.594945907592773 7.940335273742676 C11.597148895263672 7.963766574859619 12.572725296020508 9.133712768554688 13.787402153015137 9.942609786987305 C14.07229995727539 9.694988250732422 14.614938735961914 9.142765998840332 15.235855102539062 8.700241088867188 C16.536800384521484 7.774189472198486 17.93466567993164 7.3747992515563965 19.456607818603516 8.201803207397461 C21.053634643554688 9.069276809692383 21.681476593017578 10.466609954833984 21.42746353149414 12.20102596282959 C20.9796142578125 15.254495620727539 20.438575744628906 18.294116973876953 19.897533416748047 21.576038360595703 C19.1046142578125 21.537696838378906 18.599782943725586 21.51266860961914 17.933603286743164 21.480716705322266 C18.367605209350586 18.786697387695312 18.773386001586914 16.276931762695312 19.175439834594727 13.767167091369629 C19.259044647216797 13.244232177734375 19.529565811157227 12.638757705688477 19.360755920410156 12.210611343383789 C19.001306533813477 11.297340393066406 18.583276748657227 10.016097068786621 17.86490821838379 9.744512557983398 C17.14121437072754 9.470796585083008 15.787549018859863 9.991601943969727 15.140536308288574 10.612520217895508 C14.366786003112793 11.355384826660156 13.8470458984375 12.52266788482666 13.577591896057129 13.596760749816895 C13.040811538696289 15.734827041625977 12.731950759887695 17.932003021240234 12.364511489868164 20.11054229736328 C12.1712064743042 21.25545883178711 11.735074043273926 21.95465850830078 10.147099494934082 21.33054542541504 C10.484716415405273 19.089702606201172 10.848428726196289 16.771642684936523 11.178058624267578 14.448259353637695 C11.314383506774902 13.487593650817871 11.585968971252441 12.475274085998535 11.406509399414062 11.563067436218262 C11.259000778198242 10.815409660339355 10.670567512512207 9.897344589233398 10.022490501403809 9.585821151733398 C9.499024391174316 9.334471702575684 8.253459930419922 9.638008117675781 7.924895286560059 10.110885620117188 C6.989258289337158 11.454432487487793 6.119653224945068 12.941228866577148 5.664881706237793 14.499914169311523 C5.026923179626465 16.68857192993164 4.786223411560059 18.992782592773438 4.34689474105835 21.40563201904297 C3.7478103637695312 21.45355987548828 3.1876001358032227 21.498821258544922 2.2828493118286133 21.571245193481445 C3.0390233993530273 17.01873207092285 3.754730224609375 12.713310241699219 4.48907470703125 8.297656059265137 C5.172831058502197 8.358896255493164 5.653696060180664 8.285941123962402 5.990780353546143 8.472855567932129 C6.211243152618408 8.595335006713867 6.222959041595459 9.09377384185791 6.244259834289551 9.159806251525879 C7.702299118041992 8.710359573364258 9.158740043640137 7.906786918640137 10.594945907592773 7.940335273742676"></path></svg>