<svg xmlns="http://www.w3.org/2000/svg" viewBox="0.0 0.0 24.0 24.0" height="200px" width="200px"><path fill="none" stroke="black" stroke-width=".3" stroke-opacity="1.0"  filling="0" d="M13.300569534301758 14.610315322875977 C17.12186622619629 12.69005298614502 20.146038055419922 14.121728897094727 21.48594093322754 18.16939926147461 C23.546920776367188 24.390804290771484 17.88315200805664 33.000083923339844 11.753521919250488 32.96687316894531 C8.10091495513916 32.94676971435547 5.524250030517578 30.393701553344727 5.708672046661377 26.476261138916016 C5.9595208168029785 21.154239654541016 8.493358612060547 17.02703285217285 13.300569534301758 14.610315322875977"></path>
<path fill="none" stroke="black" stroke-width=".3" stroke-opacity="1.0"  filling="0" d="M17.062429428100586 15.055201530456543 C17.827213287353516 15.072683334350586 18.53605842590332 17.425594329833984 18.953847885131836 18.165904998779297 C18.383102416992188 23.109466552734375 17.656776428222656 27.168498992919922 14.79692268371582 30.29668617248535 C13.899285316467285 31.279102325439453 11.944934844970703 31.938129425048828 10.674957275390625 31.695148468017578 C9.915417671203613 31.549182891845703 8.862201690673828 29.203262329101562 9.122664451599121 28.133441925048828 C10.036035537719727 24.38294219970703 11.202876091003418 20.636810302734375 12.835580825805664 17.152019500732422 C13.38709831237793 15.974690437316895 15.622014999389648 15.02111530303955 17.062429428100586 15.055201530456543"></path></svg>