<svg xmlns="http://www.w3.org/2000/svg" viewBox="0.0 0.0 24.0 24.0" height="200px" width="200px"><path fill="none" stroke="black" stroke-width=".3" stroke-opacity="1.0"  filling="0" d="M12.073623657226562 8.919464111328125 L12.073623657226562 8.919464111328125 C13.089278221130371 9.888190269470215 12.159648895263672 10.52395248413086 12.517850875854492 11.764849662780762 L12.517850875854492 11.764849662780762 C11.805835723876953 13.503950119018555 11.347249031066895 14.167349815368652 11.702400207519531 16.059125900268555 L11.702400207519531 16.059125900268555 C11.46120834350586 16.017244338989258 11.220016479492188 15.975362777709961 10.978824615478516 15.933481216430664 L10.978824615478516 15.933481216430664 C10.6692476272583 17.160127639770508 10.507723808288574 18.43214225769043 10.489405632019043 19.69711685180664 L10.489405632019043 19.69711685180664 C10.006938934326172 19.69711685180664 9.5244722366333 19.69711685180664 9.04200553894043 19.69711685180664 L9.04200553894043 19.69711685180664 C9.410512924194336 18.41751480102539 9.771894454956055 17.136966705322266 10.12208366394043 15.85336685180664 C10.472272872924805 14.569767951965332 10.811270713806152 13.283117294311523 11.135011672973633 11.99130916595459 L11.135011672973633 11.99130916595459 C11.035439491271973 11.981873512268066 10.935866355895996 11.972436904907227 10.836294174194336 11.963001251220703 L10.836294174194336 11.963001251220703 C11.248780250549316 10.948506355285645 11.661222457885742 9.933993339538574 12.073623657226562 8.919464111328125 L12.073623657226562 8.919464111328125"></path>
<path fill="none" stroke="black" stroke-width=".3" stroke-opacity="1.0"  filling="0" d="M13.152530670166016 11.102110862731934 L13.152530670166016 11.102110862731934 C15.16348934173584 10.829798698425293 15.445484161376953 12.380501747131348 14.89561653137207 13.838375091552734 C14.345748901367188 15.296248435974121 12.964017868041992 16.661291122436523 11.647523880004883 16.017658233642578 L11.647523880004883 16.017658233642578 C13.058863639831543 15.746903419494629 14.906121253967285 13.19970703125 14.19915771484375 11.6618013381958 C14.033914566040039 11.302336692810059 13.5014066696167 11.288674354553223 13.152530670166016 11.102110862731934 L13.152530670166016 11.102110862731934"></path></svg>