<svg xmlns="http://www.w3.org/2000/svg" viewBox="0.0 0.0 24.0 24.0" height="200px" width="200px"><path fill="none" stroke="black" stroke-width=".3" stroke-opacity="1.0"  filling="0" d="M17.372838973999023 5.072506427764893 C17.488082885742188 5.5688934326171875 17.61007308959961 5.775206089019775 17.552169799804688 5.891010761260986 C14.946558952331543 11.066252708435059 12.361749649047852 16.252737045288086 9.685307502746582 21.391437530517578 C8.776294708251953 23.13750457763672 7.318052768707275 24.335468292236328 5.216700077056885 24.269695281982422 C4.722561359405518 24.25395393371582 4.244163990020752 23.722152709960938 3.758458137512207 23.42814064025879 C3.88887882232666 23.186416625976562 4.020425319671631 22.945247650146484 4.1514081954956055 22.703521728515625 C4.857480525970459 22.55173683166504 5.592223167419434 22.47809600830078 6.264004230499268 22.23242950439453 C8.273162841796875 21.49712562561035 9.262001991271973 19.679101943969727 8.826327323913574 17.567066192626953 C7.999952793121338 13.563365936279297 7.147718906402588 9.564724922180176 6.2651286125183105 5.368765354156494 C7.008865833282471 5.313673973083496 7.541792869567871 5.2748847007751465 8.327130317687988 5.216981410980225 C9.052316665649414 8.473573684692383 9.773567199707031 11.710488319396973 10.494817733764648 14.947964668273926 C10.666276931762695 14.999120712280273 10.837173461914062 15.050277709960938 11.008630752563477 15.101996421813965 C12.143631935119629 12.947800636291504 13.281442642211914 10.795854568481445 14.411382675170898 8.638847351074219 C14.888093948364258 7.729273319244385 15.263055801391602 6.7516770362854 15.849949836730957 5.921929836273193 C16.137775421142578 5.514363765716553 16.802810668945312 5.373824119567871 17.372838973999023 5.072506427764893"></path></svg>