<svg xmlns="http://www.w3.org/2000/svg" viewBox="0.0 0.0 24.0 24.0" height="200px" width="200px"><path fill="none" stroke="black" stroke-width=".3" stroke-opacity="1.0"  filling="0" d="M12.759992599487305 8.011883735656738 L12.759992599487305 8.011883735656738 C13.271052360534668 7.982913970947266 13.797226905822754 7.798243999481201 14.293170928955078 7.924973964691162 C16.03179168701172 8.369248390197754 16.332605361938477 10.234161376953125 15.935824394226074 12.133437156677246 C15.539043426513672 14.032713890075684 14.444665908813477 15.966352462768555 13.392904281616211 16.548080444335938 C11.879496574401855 17.385143280029297 11.079570770263672 16.539987564086914 9.756999015808105 15.892864227294922 L9.756999015808105 15.892864227294922 C9.554723739624023 16.81146240234375 9.352413177490234 17.73005485534668 9.150070190429688 18.648637771606445 L9.150070190429688 18.648637771606445 C8.604660034179688 18.648637771606445 8.059249877929688 18.648637771606445 7.513839244842529 18.648637771606445 L7.513839244842529 18.648637771606445 C7.81390380859375 16.908920288085938 8.113900184631348 15.169189453125 8.41385555267334 13.429451942443848 C8.713811874389648 11.689714431762695 9.013727188110352 9.949970245361328 9.313630104064941 8.210224151611328 L9.313630104064941 8.210224151611328 C9.800237655639648 8.210224151611328 10.286846160888672 8.210224151611328 10.773453712463379 8.210224151611328 L10.773453712463379 8.210224151611328 C10.773453712463379 8.542776107788086 10.773453712463379 8.875328063964844 10.773453712463379 9.207880020141602 L10.773453712463379 9.207880020141602 C11.46336841583252 8.859407424926758 12.105693817138672 8.423356056213379 12.759992599487305 8.011883735656738 L12.759992599487305 8.011883735656738"></path>
<path fill="none" stroke="black" stroke-width=".3" stroke-opacity="1.0"  filling="0" d="M13.355326652526855 9.548161506652832 L13.355326652526855 9.548161506652832 C14.587467193603516 10.657071113586426 14.704306602478027 11.75942325592041 13.984110832214355 13.410317420959473 C13.484710693359375 14.555084228515625 12.208088874816895 16.10541534423828 10.768440246582031 15.28374195098877 C10.392839431762695 15.069369316101074 9.846696853637695 13.850860595703125 9.699030876159668 13.561657905578613 L9.699030876159668 13.561657905578613 C10.512195587158203 11.39946460723877 10.773508071899414 9.542153358459473 13.355326652526855 9.548161506652832 L13.355326652526855 9.548161506652832"></path></svg>