<svg xmlns="http://www.w3.org/2000/svg" viewBox="0.0 0.0 24.0 24.0" height="200px" width="200px"><path fill="none" stroke="black" stroke-width=".3" stroke-opacity="1.0"  filling="0" d="M20.263259887695312 6.8964128494262695 C19.85208511352539 7.088181972503662 19.449369430541992 7.302511692047119 19.02804183959961 7.468899250030518 C13.271032333374023 9.741358757019043 9.227531433105469 15.806892395019531 9.332440376281738 21.969436645507812 C9.357821464538574 23.4477481842041 9.492623329162598 24.90519142150879 11.136758804321289 25.4066104888916 C12.723362922668457 25.891109466552734 13.959707260131836 24.949748992919922 14.672636032104492 23.709457397460938 C15.450427055358887 22.355796813964844 16.052242279052734 20.827850341796875 16.374866485595703 19.30046844482422 C17.0985107421875 15.877395629882812 15.853141784667969 14.750473022460938 12.405252456665039 15.658554077148438 C13.743684768676758 14.365808486938477 15.10919189453125 13.823779106140137 16.753890991210938 14.625259399414062 C18.362491607666016 15.40869140625 18.99138069152832 16.779836654663086 19.008865356445312 18.522113800048828 C19.043834686279297 22.03768539428711 16.059574127197266 25.561717987060547 12.60548210144043 26.04001235961914 C10.326253890991211 26.355300903320312 8.547316551208496 25.348514556884766 7.661795616149902 23.21367835998535 C6.661777973175049 20.801904678344727 6.967480182647705 18.3901309967041 7.951704502105713 16.09792709350586 C10.265902519226074 10.705842971801758 14.637666702270508 7.9330925941467285 20.263259887695312 6.8964128494262695"></path></svg>