<svg xmlns="http://www.w3.org/2000/svg" viewBox="0.0 0.0 24.0 24.0" height="200px" width="200px"><path fill="none" stroke="black" stroke-width=".3" stroke-opacity="1.0"  filling="0" d="M16.550718307495117 6.345694541931152 C18.052715301513672 6.6069111824035645 19.342885971069336 7.296721935272217 19.792333602905273 8.917803764343262 C20.25714874267578 10.595410346984863 19.71221351623535 11.985458374023438 18.389116287231445 13.057765007019043 C17.930889129638672 13.42873764038086 17.365100860595703 13.667454719543457 16.654438018798828 14.079035758972168 C17.213090896606445 12.60008716583252 17.887535095214844 11.428451538085938 18.073570251464844 10.183829307556152 C18.37923812866211 8.140739440917969 17.23613929748535 6.829715251922607 15.467985153198242 6.795691013336182 C13.56483268737793 6.759472370147705 11.824117660522461 8.505125999450684 12.308686256408691 10.378095626831055 C12.651121139526367 11.701742172241211 13.627942085266113 12.8980712890625 14.463726997375488 14.04775619506836 C15.2490234375 15.12774658203125 16.3641357421875 15.97944450378418 17.082481384277344 17.09400749206543 C18.599843978881836 19.448253631591797 18.113630294799805 22.27718734741211 16.069442749023438 24.002540588378906 C13.8842191696167 25.846973419189453 10.134438514709473 25.924898147583008 8.21646785736084 24.166072845458984 C6.807213306427002 22.87371063232422 6.496606826782227 20.655559539794922 7.582083702087402 18.898929595947266 C8.521587371826172 17.37772560119629 9.795843124389648 16.24834632873535 11.676495552062988 16.02718734741211 C9.979683876037598 17.613147735595703 8.428296089172363 19.25837516784668 8.78554916381836 21.875484466552734 C8.977071762084961 23.276508331298828 9.66468620300293 24.2862548828125 10.998209953308105 24.73130989074707 C12.314722061157227 25.170330047607422 13.552759170532227 24.886066436767578 14.514762878417969 23.86424446105957 C15.659507751464844 22.64815902709961 16.175907135009766 21.187868118286133 15.463046073913574 19.595870971679688 C14.701894760131836 17.893571853637695 14.080132484436035 15.917981147766113 11.574424743652344 16.1171875 C12.307588577270508 15.204572677612305 11.482778549194336 14.659090995788574 11.055283546447754 14.055438041687012 C9.739320755004883 12.198381423950195 9.659747123718262 10.277669906616211 10.97845458984375 8.464515686035156 C12.331186294555664 6.604716777801514 14.30787467956543 5.9549665451049805 16.550718307495117 6.345694541931152"></path></svg>