<svg xmlns="http://www.w3.org/2000/svg" viewBox="0.0 0.0 24.0 24.0" height="200px" width="200px"><path fill="none" stroke="black" stroke-width=".3" stroke-opacity="1.0"  filling="0" d="M17.277997970581055 5.3252692222595215 C18.06659698486328 5.3252692222595215 18.86020278930664 5.3252692222595215 19.90239906311035 5.3252692222595215 C18.844074249267578 11.480013847351074 17.81633758544922 17.457908630371094 16.74355125427246 23.69774055480957 C15.815362930297852 23.77393341064453 14.958915710449219 23.844003677368164 13.786026954650879 23.940216064453125 C14.054083824157715 22.04323959350586 14.280430793762207 20.441017150878906 14.56016731262207 18.45783805847168 C13.64643669128418 19.116857528686523 13.006326675415039 19.68411636352539 12.275564193725586 20.08731460571289 C9.413138389587402 21.667850494384766 6.592422008514404 20.433229446411133 5.886130332946777 17.23600959777832 C5.182064056396484 14.049356460571289 5.58414888381958 10.943343162536621 7.211400032043457 8.105386734008789 C9.549947738647461 4.02446985244751 13.158706665039062 3.591240882873535 16.73409652709961 7.157177448272705 C16.957107543945312 6.40639591217041 17.10782241821289 5.89864444732666 17.277997970581055 5.3252692222595215"></path>
<path fill="none" stroke="black" stroke-width=".3" stroke-opacity="1.0"  filling="0" d="M14.26652717590332 7.788947105407715 C15.865971565246582 8.380118370056152 16.078414916992188 9.73486328125 16.066736221313477 11.552867889404297 C15.892109870910645 13.483768463134766 15.155787467956543 15.617101669311523 13.425095558166504 17.11588478088379 C12.632603645324707 17.802154541015625 11.258394241333008 18.187000274658203 10.197844505310059 18.100799560546875 C8.815849304199219 17.988460540771484 8.403197288513184 16.580326080322266 8.301980972290039 15.357942581176758 C8.105109214782715 12.97045612335205 8.669586181640625 10.728120803833008 10.26124382019043 8.891762733459473 C11.298991203308105 7.694404125213623 12.68043041229248 7.2027812004089355 14.26652717590332 7.788947105407715"></path></svg>