<svg xmlns="http://www.w3.org/2000/svg" viewBox="0.0 0.0 24.0 24.0" height="200px" width="200px"><path fill="none" stroke="black" stroke-width=".3" stroke-opacity="1.0"  filling="0" d="M6.448234558105469 9.103358268737793 L6.448234558105469 9.103358268737793 C7.1881585121154785 9.103358268737793 7.92808198928833 9.103358268737793 8.66800594329834 9.103358268737793 L8.66800594329834 9.103358268737793 C9.24880313873291 10.472190856933594 9.835350036621094 11.83806324005127 10.427425384521484 13.201536178588867 C11.019500732421875 14.565009117126465 11.617104530334473 15.926082611083984 12.220014572143555 17.28531837463379 L12.220014572143555 17.28531837463379 C11.940932273864746 17.97138786315918 11.661666870117188 18.657381057739258 11.382341384887695 19.343351364135742 L11.382341384887695 19.343351364135742 C10.771089553833008 17.94529914855957 10.159826278686523 16.547252655029297 9.548554420471191 15.149209022521973 C8.93728256225586 13.751166343688965 8.32600212097168 12.353126525878906 7.71471643447876 10.955089569091797 L7.71471643447876 10.955089569091797 C7.486572265625 12.328023910522461 7.321134090423584 13.743582725524902 7.344961643218994 15.144780158996582 C7.3687896728515625 16.545978546142578 7.581883430480957 17.93281364440918 8.110803604125977 19.248302459716797 L8.110803604125977 19.248302459716797 C7.55879545211792 19.248199462890625 7.006787300109863 19.24809455871582 6.454779148101807 19.24799156188965 L6.454779148101807 19.24799156188965 C7.094386100769043 17.720073699951172 7.412297248840332 15.947508811950684 7.4105329513549805 14.175127029418945 C7.408768653869629 12.402745246887207 7.087329387664795 10.630546569824219 6.448234558105469 9.103358268737793 L6.448234558105469 9.103358268737793"></path>
<path fill="none" stroke="black" stroke-width=".3" stroke-opacity="1.0"  filling="0" d="M15.174930572509766 9.17690372467041 L15.174930572509766 9.17690372467041 C15.866031646728516 9.17690372467041 16.557132720947266 9.17690372467041 17.248233795166016 9.17690372467041 L17.248233795166016 9.17690372467041 C16.812950134277344 10.668863296508789 16.61181640625 12.442961692810059 16.619407653808594 14.218594551086426 C16.626998901367188 15.994226455688477 16.84331512451172 17.771394729614258 17.242935180664062 19.269495010375977 L17.242935180664062 19.269495010375977 C16.411495208740234 19.269495010375977 15.58005428314209 19.269495010375977 14.748614311218262 19.269495010375977 L14.748614311218262 19.269495010375977 C15.143815994262695 17.835208892822266 15.267866134643555 16.36090660095215 15.292287826538086 14.874778747558594 C15.316709518432617 13.388651847839355 15.241503715515137 11.890697479248047 15.238192558288574 10.409106254577637 L15.238192558288574 10.409106254577637 C14.913262367248535 10.80612850189209 14.58833122253418 11.203150749206543 14.26340103149414 11.600172996520996 L14.26340103149414 11.600172996520996 C14.528909683227539 10.894437789916992 14.904438972473145 9.896125793457031 15.174930572509766 9.17690372467041 L15.174930572509766 9.17690372467041"></path></svg>