<svg xmlns="http://www.w3.org/2000/svg" viewBox="0.0 0.0 24.0 24.0" height="200px" width="200px"><path fill="none" stroke="black" stroke-width=".3" stroke-opacity="1.0"  filling="0" d="M14.000646591186523 7.459550857543945 L14.000646591186523 7.459550857543945 C15.19107723236084 7.459550857543945 16.381507873535156 7.459550857543945 17.57193946838379 7.459550857543945 L17.57193946838379 7.459550857543945 C17.57193946838379 9.093281745910645 17.57193946838379 10.727012634277344 17.57193946838379 12.360743522644043 C17.57193946838379 13.994474411010742 17.57193946838379 15.628205299377441 17.57193946838379 17.26193618774414 L17.57193946838379 17.26193618774414 C17.432172775268555 17.26193618774414 15.490732192993164 17.26193618774414 15.362916946411133 17.26193618774414 L15.362916946411133 17.26193618774414 C15.362916946411133 14.906471252441406 15.362916946411133 12.55099868774414 15.362916946411133 10.195533752441406 L15.362916946411133 10.195533752441406 C15.258930206298828 10.171142578125 15.154943466186523 10.14675235748291 15.050956726074219 10.122361183166504 L15.050956726074219 10.122361183166504 C14.666851997375488 11.312984466552734 14.282754898071289 12.503610610961914 13.898673057556152 13.694242477416992 C13.5145902633667 14.884873390197754 13.130523681640625 16.07550811767578 12.746478080749512 17.266151428222656 L12.746478080749512 17.266151428222656 C12.21198844909668 17.266151428222656 11.677499771118164 17.266151428222656 11.143010139465332 17.266151428222656 L11.143010139465332 17.266151428222656 C10.40815544128418 14.900017738342285 9.673179626464844 12.533926963806152 8.938203811645508 10.167831420898438 L8.938203811645508 10.167831420898438 C8.86131763458252 10.178370475769043 8.784431457519531 10.188909530639648 8.707545280456543 10.199448585510254 L8.707545280456543 10.199448585510254 C8.707545280456543 12.546686172485352 8.707545280456543 14.893921852111816 8.707545280456543 17.241159439086914 L8.707545280456543 17.241159439086914 C8.06234359741211 17.241159439086914 7.417141914367676 17.241159439086914 6.771940231323242 17.241159439086914 L6.771940231323242 17.241159439086914 C6.771940231323242 15.612045288085938 6.771940231323242 13.982932090759277 6.771940231323242 12.3538179397583 C6.771940231323242 10.72470474243164 6.771940231323242 9.09559154510498 6.771940231323242 7.466476917266846 L6.771940231323242 7.466476917266846 C7.96648645401001 7.466476917266846 9.161032676696777 7.466476917266846 10.355579376220703 7.466476917266846 L10.355579376220703 7.466476917266846 C10.943497657775879 9.388521194458008 11.531368255615234 11.310582160949707 12.119243621826172 13.23263931274414 L12.119243621826172 13.23263931274414 C12.746312141418457 11.30825424194336 13.37344741821289 9.383893013000488 14.000646591186523 7.459550857543945 L14.000646591186523 7.459550857543945"></path></svg>