<svg xmlns="http://www.w3.org/2000/svg" viewBox="0.0 0.0 24.0 24.0" height="200px" width="200px"><path fill="none" stroke="black" stroke-width=".3" stroke-opacity="1.0"  filling="0" d="M6.813345432281494 9.812067985534668 L6.813345432281494 9.812067985534668 C7.5058770179748535 9.812067985534668 8.198408126831055 9.812067985534668 8.890939712524414 9.812067985534668 L8.890939712524414 9.812067985534668 C8.769266128540039 11.310361862182617 9.233576774597168 12.65837287902832 9.665449142456055 14.015371322631836 C10.097321510314941 15.372368812561035 10.496755599975586 16.738353729248047 10.245331764221191 18.272594451904297 L10.245331764221191 18.272594451904297 C10.099815368652344 18.284223556518555 9.95429801940918 18.29585075378418 9.808781623840332 18.307479858398438 L9.808781623840332 18.307479858398438 C9.345187187194824 16.876821517944336 8.899606704711914 15.441919326782227 8.418286323547363 14.020206451416016 C7.936964988708496 12.598492622375488 7.419902801513672 11.189969062805176 6.813345432281494 9.812067985534668 L6.813345432281494 9.812067985534668"></path>
<path fill="none" stroke="black" stroke-width=".3" stroke-opacity="1.0"  filling="0" d="M11.223841667175293 9.815607070922852 L11.223841667175293 9.815607070922852 C12.027342796325684 9.815607070922852 12.83084487915039 9.815607070922852 13.634346008300781 9.815607070922852 L13.634346008300781 9.815607070922852 C13.26671028137207 11.632165908813477 13.660066604614258 14.975343704223633 15.229637145996094 16.230390548706055 L15.229637145996094 16.230390548706055 C15.20044231414795 16.31767463684082 14.572253227233887 18.19571876525879 14.548397064208984 18.26703453063965 L14.548397064208984 18.26703453063965 C14.460007667541504 18.25818634033203 14.37161922454834 18.249340057373047 14.28322982788086 18.24049186706543 L14.28322982788086 18.24049186706543 C13.819462776184082 16.855228424072266 13.420038223266602 15.379947662353516 12.953843116760254 13.935511589050293 C12.487648963928223 12.49107551574707 11.95468521118164 11.077486038208008 11.223841667175293 9.815607070922852 L11.223841667175293 9.815607070922852"></path>
<path fill="none" stroke="black" stroke-width=".3" stroke-opacity="1.0"  filling="0" d="M16.212696075439453 9.827993392944336 L16.212696075439453 9.827993392944336 C16.67957878112793 9.827993392944336 17.14646339416504 9.827993392944336 17.613346099853516 9.827993392944336 L17.613346099853516 9.827993392944336 C17.3602294921875 10.220643997192383 17.107112884521484 10.61329460144043 16.85399627685547 11.005945205688477 L16.85399627685547 11.005945205688477 C16.640230178833008 10.61329460144043 16.426462173461914 10.220643997192383 16.212696075439453 9.827993392944336 L16.212696075439453 9.827993392944336"></path></svg>