<svg xmlns="http://www.w3.org/2000/svg" viewBox="0.0 0.0 24.0 24.0" height="200px" width="200px"><path fill="none" stroke="black" stroke-width=".3" stroke-opacity="1.0"  filling="0" d="M17.32021713256836 6.321259021759033 C17.32021713256836 11.254950523376465 17.26531410217285 15.874590873718262 17.357004165649414 20.490936279296875 C17.381160736083984 21.724634170532227 17.85223960876465 22.948997497558594 18.127857208251953 24.221675872802734 C17.433868408203125 24.168420791625977 16.266056060791016 25.502044677734375 15.15479564666748 23.995471954345703 C15.113067626953125 23.938919067382812 14.44158935546875 24.3474063873291 14.063848495483398 24.539573669433594 C15.266799926757812 20.999347686767578 15.572616577148438 17.459125518798828 14.061653137207031 13.918902397155762 C14.237345695495605 13.883764266967773 14.516260147094727 13.906824111938477 14.573360443115234 13.80470085144043 C15.402963638305664 12.331072807312012 15.113069534301758 9.130157470703125 13.911764144897461 7.391341686248779 C14.975809097290039 7.0569748878479 15.978360176086426 6.742373943328857 17.32021713256836 6.321259021759033"></path>
<path fill="none" stroke="black" stroke-width=".3" stroke-opacity="1.0"  filling="0" d="M12.265735626220703 12.928427696228027 C12.58527946472168 12.967411994934082 12.87627124786377 13.24687385559082 13.179891586303711 13.414880752563477 C10.011369705200195 13.441783905029297 8.884736061096191 14.381195068359375 8.622842788696289 17.44210433959961 C8.508092880249023 18.78615951538086 8.499307632446289 20.178531646728516 8.717826843261719 21.503368377685547 C9.149374008178711 24.119552612304688 10.245261192321777 24.87338638305664 13.036591529846191 24.795421600341797 C11.72822380065918 26.025827407836914 10.332559585571289 25.44658660888672 9.053291320800781 24.84868049621582 C6.505736351013184 23.658357620239258 5.241292476654053 20.160959243774414 6.134583473205566 17.11103057861328 C6.981755256652832 14.21977424621582 9.362951278686523 12.577589988708496 12.265735626220703 12.928427696228027"></path></svg>