<svg xmlns="http://www.w3.org/2000/svg" viewBox="0.0 0.0 24.0 24.0" height="200px" width="200px"><path fill="none" stroke="black" stroke-width=".3" stroke-opacity="1.0"  filling="0" d="M6.670948505401611 9.801675796508789 L6.670948505401611 9.801675796508789 C9.198067665100098 10.005195617675781 10.788140296936035 9.017523765563965 12.942625999450684 10.64190673828125 L12.942625999450684 10.64190673828125 C13.287248611450195 10.374428749084473 13.57525634765625 10.010696411132812 13.976493835449219 9.839473724365234 C16.27838134765625 8.857175827026367 17.145652770996094 10.186241149902344 17.438879013061523 12.051056861877441 C17.732105255126953 13.915872573852539 17.451290130615234 16.316438674926758 17.457006454467773 17.477144241333008 L17.457006454467773 17.477144241333008 C17.1573429107666 17.477144241333008 15.528661727905273 17.477144241333008 15.2681303024292 17.477144241333008 L15.2681303024292 17.477144241333008 C15.268394470214844 16.13411521911621 15.76233959197998 13.56545352935791 15.22134780883789 12.306875228881836 C15.061753273010254 11.935589790344238 14.772527694702148 11.48510456085205 14.370583534240723 11.443099021911621 C13.964808464050293 11.4006929397583 13.544347763061523 11.754922866821289 13.344770431518555 12.110759735107422 C12.646688461303711 13.355405807495117 13.142366409301758 16.153186798095703 13.145556449890137 17.506576538085938 L13.145556449890137 17.506576538085938 C12.877725601196289 17.506576538085938 11.160439491271973 17.506576538085938 10.928177833557129 17.506576538085938 L10.928177833557129 17.506576538085938 C10.928770065307617 16.05367088317871 11.323678970336914 13.758363723754883 10.873029708862305 12.37193775177002 C10.744728088378906 11.977217674255371 10.481748580932617 11.462493896484375 10.06873893737793 11.421411514282227 C9.61740493774414 11.376516342163086 9.1864013671875 11.799507141113281 8.938826560974121 12.179539680480957 C8.23787784576416 13.255512237548828 8.777299880981445 16.244789123535156 8.77927017211914 17.485198974609375 L8.77927017211914 17.485198974609375 C8.076496124267578 17.484838485717773 7.373722553253174 17.48463249206543 6.670948505401611 17.484580993652344 L6.670948505401611 17.484580993652344 C6.670948505401611 16.204097747802734 6.670948505401611 14.923612594604492 6.670948505401611 13.64312744140625 C6.670948505401611 12.362642288208008 6.670948505401611 11.082158088684082 6.670948505401611 9.801675796508789 L6.670948505401611 9.801675796508789"></path></svg>