<svg xmlns="http://www.w3.org/2000/svg" viewBox="0.0 0.0 24.0 24.0" height="200px" width="200px"><path fill="none" stroke="black" stroke-width=".3" stroke-opacity="1.0"  filling="0" d="M2.5261306762695312 8.091867446899414 C3.990682601928711 8.209736824035645 5.295504570007324 8.314937591552734 6.60087776184082 8.420138359069824 C9.809782028198242 6.967704772949219 10.98902416229248 7.064092636108398 13.675779342651367 9.585611343383789 C14.27448844909668 9.114133834838867 14.843454360961914 8.54957389831543 15.513766288757324 8.159063339233398 C17.97910499572754 6.722602367401123 21.826374053955078 8.137582778930664 21.72447967529297 11.427453994750977 C21.619827270507812 14.800493240356445 21.701343536376953 18.17959213256836 21.701343536376953 21.737146377563477 C20.43728256225586 21.737146377563477 19.29990005493164 21.737146377563477 17.810009002685547 21.737146377563477 C17.810009002685547 19.41611671447754 17.812213897705078 17.067546844482422 17.808908462524414 14.719526290893555 C17.80780601501465 13.986974716186523 17.9901180267334 13.170703887939453 17.72684097290039 12.545557022094727 C17.455852508544922 11.90168285369873 16.77617645263672 11.058423042297363 16.214370727539062 11.009953498840332 C15.621170043945312 10.95872974395752 14.680418968200684 11.608112335205078 14.390703201293945 12.196906089782715 C14.01451301574707 12.96085262298584 14.065736770629883 13.966045379638672 14.049764633178711 14.869340896606445 C14.010107040405273 17.13529396057129 14.036544799804688 19.402896881103516 14.036544799804688 21.789470672607422 C12.6975736618042 21.789470672607422 11.624634742736816 21.789470672607422 10.094538688659668 21.789470672607422 C10.094538688659668 19.78183937072754 10.098394393920898 17.72408676147461 10.092885971069336 15.666885375976562 C10.090132713317871 14.659488677978516 10.246557235717773 13.605276107788086 9.996498107910156 12.661222457885742 C9.8213472366333 11.999722480773926 9.186836242675781 11.215948104858398 8.566646575927734 10.971397399902344 C7.5217976570129395 10.559957504272461 6.842672824859619 11.3723726272583 6.5579142570495605 12.319181442260742 C6.352469444274902 13.003263473510742 6.296288967132568 13.75068473815918 6.286374568939209 14.471670150756836 C6.254429340362549 16.83951759338379 6.274257183074951 19.207916259765625 6.274257183074951 21.751466751098633 C4.962276458740234 21.7503662109375 3.8326053619384766 21.7503662109375 2.5261306762695312 21.7503662109375 C2.5261306762695312 17.136943817138672 2.5261306762695312 12.76862907409668 2.5261306762695312 8.091867446899414"></path></svg>