<svg xmlns="http://www.w3.org/2000/svg" viewBox="0.0 0.0 24.0 24.0" height="200px" width="200px"><path fill="none" stroke="black" stroke-width=".3" stroke-opacity="1.0"  filling="0" d="M14.15024185180664 9.004558563232422 L14.15024185180664 9.004558563232422 C15.415132522583008 9.853904724121094 16.318782806396484 11.004732131958008 16.743953704833984 12.314726829528809 C17.169124603271484 13.62472152709961 17.115819931030273 15.093881607055664 16.466800689697266 16.579893112182617 C15.927288055419922 17.815176010131836 14.839332580566406 18.72635269165039 13.594683647155762 19.138362884521484 C12.350034713745117 19.550373077392578 10.948691368103027 19.463214874267578 9.782400131225586 18.701824188232422 C8.208521842956543 17.67435073852539 7.482299327850342 15.6279935836792 7.587736129760742 13.641094207763672 C7.693173408508301 11.654193878173828 8.630270004272461 9.726750373840332 10.383028984069824 8.937101364135742 C11.94113826751709 8.235145568847656 12.561680793762207 8.655647277832031 14.15024185180664 9.004558563232422 L14.15024185180664 9.004558563232422"></path>
<path fill="none" stroke="black" stroke-width=".3" stroke-opacity="1.0"  filling="0" d="M12.438333511352539 10.63282299041748 L12.438333511352539 10.63282299041748 C12.80888843536377 10.919601440429688 13.346253395080566 11.071208953857422 13.54999828338623 11.493158340454102 C13.879286766052246 12.175105094909668 13.90742015838623 15.684752464294434 13.560354232788086 16.360427856445312 C13.323100090026855 16.82231903076172 12.84335708618164 17.3365535736084 12.324816703796387 17.309186935424805 C10.219109535217285 17.198055267333984 10.033796310424805 12.559256553649902 11.049050331115723 11.40871810913086 C11.400002479553223 11.011000633239746 11.975238800048828 10.891454696655273 12.438333511352539 10.63282299041748 L12.438333511352539 10.63282299041748"></path></svg>