<svg xmlns="http://www.w3.org/2000/svg" viewBox="0.0 0.0 24.0 24.0" height="200px" width="200px"><path fill="none" stroke="black" stroke-width=".3" stroke-opacity="1.0"  filling="0" d="M15.044171333312988 8.337014198303223 L15.044171333312988 8.337014198303223 C15.09073257446289 9.341552734375 15.138070106506348 10.360952377319336 15.184866905212402 11.366053581237793 L15.184866905212402 11.366053581237793 C14.627498626708984 11.638769149780273 13.968788146972656 11.763400077819824 13.512762069702148 12.184200286865234 C11.941743850708008 13.633865356445312 12.630806922912598 17.277828216552734 12.626993179321289 19.137014389038086 L12.626993179321289 19.137014389038086 C11.712610244750977 19.137014389038086 10.798227310180664 19.137014389038086 9.883844375610352 19.137014389038086 L9.883844375610352 19.137014389038086 C9.883844375610352 17.45453453063965 9.883844375610352 15.772052764892578 9.883844375610352 14.089570999145508 C9.883844375610352 12.407089233398438 9.883844375610352 10.724607467651367 9.883844375610352 9.042126655578613 L9.883844375610352 9.042126655578613 C10.859841346740723 9.030431747436523 11.879955291748047 9.277453422546387 12.71820068359375 9.777504920959473 L12.71820068359375 9.777504920959473 C13.493415832519531 9.29716682434082 14.268762588500977 8.817039489746094 15.044171333312988 8.337014198303223 L15.044171333312988 8.337014198303223"></path></svg>