<svg xmlns="http://www.w3.org/2000/svg" viewBox="0.0 0.0 24.0 24.0" height="200px" width="200px"><path fill="none" stroke="black" stroke-width=".3" stroke-opacity="1.0"  filling="0" d="M15.500539779663086 6.6426777839660645 C15.670385360717773 6.702555179595947 15.840230941772461 6.76243257522583 16.010074615478516 6.822309970855713 C16.010074615478516 10.762144088745117 16.010074615478516 14.701979637145996 16.010074615478516 18.783447265625 C17.042388916015625 18.975746154785156 17.840373992919922 19.12428855895996 19.16056251525879 19.370132446289062 C17.934223175048828 19.591794967651367 17.200143814086914 19.72421646118164 16.285282135009766 19.889455795288086 C16.326736450195312 21.87923812866211 15.438359260559082 23.973804473876953 17.319324493408203 25.84210205078125 C15.516660690307617 25.84210205078125 13.782511711120605 25.84210205078125 11.990213394165039 25.84210205078125 C14.483771324157715 24.286434173583984 13.339762687683105 22.01223373413086 13.462396621704102 19.710399627685547 C11.037927627563477 19.710399627685547 8.786758422851562 19.710399627685547 6.5361647605896 19.710399627685547 C6.3185319900512695 19.40640640258789 6.100900173187256 19.10298728942871 5.883267879486084 18.798992156982422 C6.309896469116211 18.695358276367188 6.737100124359131 18.59114646911621 7.163728713989258 18.48751449584961 C9.189205169677734 18.759841918945312 11.214106559753418 19.032745361328125 13.540699005126953 19.34537696838379 C13.540699005126953 16.44476318359375 13.586758613586426 14.094566345214844 13.494063377380371 11.75012493133545 C13.478517532348633 11.371284484863281 12.843469619750977 11.016624450683594 12.495718002319336 10.651025772094727 C13.497517585754395 9.314718246459961 14.499316215515137 7.97898530960083 15.500539779663086 6.6426777839660645"></path></svg>