<svg xmlns="http://www.w3.org/2000/svg" viewBox="0.0 0.0 24.0 24.0" height="200px" width="200px"><path fill="none" stroke="black" stroke-width=".3" stroke-opacity="1.0"  filling="0" d="M11.980490684509277 9.048239707946777 L12.015483856201172 9.090354919433594 C13.857170104980469 8.477919578552246 14.085356712341309 8.759050369262695 14.568700790405273 10.644270896911621 L14.568700790405273 10.644270896911621 C13.831772804260254 9.948363304138184 12.9346923828125 9.390070915222168 11.980490684509277 9.048239707946777 L11.980490684509277 9.048239707946777"></path>
<path fill="none" stroke="black" stroke-width=".3" stroke-opacity="1.0"  filling="0" d="M11.981110572814941 9.048858642578125 L11.981110572814941 9.048858642578125 C10.733591079711914 10.747745513916016 10.563958168029785 11.521716117858887 10.601537704467773 13.636287689208984 L10.601537704467773 13.636287689208984 C10.88860034942627 13.55732250213623 11.175662994384766 13.478357315063477 11.462725639343262 13.399392127990723 L11.462725639343262 13.399392127990723 C10.820283889770508 14.612014770507812 10.41240406036377 16.034408569335938 10.599313735961914 17.177061080932617 C10.786223411560059 18.319713592529297 11.56792163848877 19.18262481689453 13.304634094238281 19.276281356811523 L13.304634094238281 19.276281356811523 C12.188813209533691 19.468799591064453 11.669267654418945 19.78896141052246 10.638456344604492 19.111469268798828 C9.40291976928711 18.299421310424805 8.832118034362793 16.507545471191406 8.823309898376465 14.681707382202148 C8.814501762390137 12.855867385864258 9.367687225341797 10.996064186096191 10.38012409210205 10.048158645629883 C10.841374397277832 9.616308212280273 11.470776557922363 9.409829139709473 12.01610279083252 9.09066390991211 L11.981110572814941 9.048858642578125"></path>
<path fill="none" stroke="black" stroke-width=".3" stroke-opacity="1.0"  filling="0" d="M11.69621467590332 13.272737503051758 L11.69621467590332 13.272737503051758 C12.166962623596191 13.12267780303955 12.614934921264648 12.798979759216309 13.108458518981934 12.82255744934082 C15.729889869689941 12.947793006896973 16.379356384277344 16.751888275146484 14.88947868347168 18.425119400024414 C14.473090171813965 18.892749786376953 13.787291526794434 19.01960563659668 13.236197471618652 19.316848754882812 L13.236197471618652 19.316848754882812 C13.9142427444458 17.95505714416504 15.234882354736328 14.578654289245605 13.30432415008545 13.413134574890137 C12.8436861038208 13.135037422180176 12.232251167297363 13.319536209106445 11.69621467590332 13.272737503051758 L11.69621467590332 13.272737503051758"></path></svg>