<svg xmlns="http://www.w3.org/2000/svg" viewBox="0.0 0.0 24.0 24.0" height="200px" width="200px"><path fill="none" stroke="black" stroke-width=".3" stroke-opacity="1.0"  filling="0" d="M11.894308090209961 6.929093837738037 L11.894308090209961 6.929093837738037 C13.741701126098633 7.039323806762695 16.83536148071289 7.945589065551758 15.6624755859375 10.596152305603027 C15.432516098022461 11.11583137512207 14.891765594482422 11.431493759155273 14.506410598754883 11.849164962768555 L14.506410598754883 11.849164962768555 C15.27851676940918 12.49881362915039 15.934896469116211 12.920571327209473 16.180707931518555 14.105891227722168 C16.728965759277344 16.749629974365234 14.198432922363281 17.85371971130371 11.814177513122559 17.69762420654297 C9.429922103881836 17.541528701782227 7.191944599151611 16.125246047973633 8.32531452178955 13.728240966796875 C8.610905647277832 13.124234199523926 9.26750373840332 12.780518531799316 9.726850509643555 12.2953519821167 L9.726850509643555 12.2953519821167 C9.341983795166016 11.786600112915039 8.758040428161621 11.379368782043457 8.572250366210938 10.769096374511719 C7.8189697265625 8.294767379760742 10.03072452545166 7.256036281585693 11.894308090209961 6.929093837738037 L11.894308090209961 6.929093837738037"></path>
<path fill="none" stroke="black" stroke-width=".3" stroke-opacity="1.0"  filling="0" d="M12.378704071044922 8.485816955566406 L12.378704071044922 8.485816955566406 C13.262657165527344 8.93425178527832 15.088611602783203 10.554116249084473 12.558658599853516 11.082204818725586 C11.841635704040527 11.23187255859375 10.75777816772461 10.234662055969238 10.763434410095215 9.513155937194824 C10.770877838134766 8.563652038574219 11.825356483459473 8.603527069091797 12.378704071044922 8.485816955566406 L12.378704071044922 8.485816955566406"></path>
<path fill="none" stroke="black" stroke-width=".3" stroke-opacity="1.0"  filling="0" d="M11.609586715698242 13.282632827758789 L11.609586715698242 13.282632827758789 C12.091132164001465 13.449798583984375 12.634827613830566 13.494410514831543 13.054224014282227 13.784131050109863 C14.921806335449219 15.074262619018555 13.620794296264648 15.818390846252441 12.2037992477417 15.857179641723633 C10.78680419921875 15.89596939086914 9.253824234008789 15.229419708251953 10.657472610473633 13.698198318481445 C10.891468048095703 13.442935943603516 11.292215347290039 13.421154975891113 11.609586715698242 13.282632827758789 L11.609586715698242 13.282632827758789"></path></svg>