<svg xmlns="http://www.w3.org/2000/svg" viewBox="0.0 0.0 24.0 24.0" height="200px" width="200px"><path fill="none" stroke="black" stroke-width=".3" stroke-opacity="1.0"  filling="0" d="M7.096177101135254 6.592735767364502 C9.848573684692383 6.592735767364502 11.864694595336914 6.592735767364502 13.880228042602539 6.592735767364502 C11.985941886901855 7.401643753051758 11.617510795593262 9.102048873901367 11.161218643188477 10.794255256652832 C10.124457359313965 14.637886047363281 9.001592636108398 18.45808982849121 7.9613165855407715 22.300548553466797 C7.427706241607666 24.271564483642578 7.473394393920898 24.28386688232422 9.126355171203613 25.721858978271484 C6.906397342681885 25.721858978271484 4.793630123138428 25.721858978271484 2.155453681945801 25.721858978271484 C4.385368347167969 24.875465393066406 5.005081653594971 23.314464569091797 5.4619598388671875 21.575401306152344 C6.45186185836792 17.810260772705078 7.495651721954346 14.058588027954102 8.593916893005371 10.323319435119629 C9.013307571411133 8.897040367126465 9.55921745300293 7.548664569854736 7.096177101135254 6.592735767364502"></path>
<path fill="none" stroke="black" stroke-width=".3" stroke-opacity="1.0"  filling="0" d="M12.124177932739258 14.842308044433594 C15.189945220947266 18.295251846313477 16.697643280029297 22.827713012695312 20.840587615966797 25.79214859008789 C19.57831382751465 25.79214859008789 18.51402473449707 25.79214859008789 17.449146270751953 25.79214859008789 C16.391300201416016 25.79214859008789 15.334035873413086 25.79214859008789 14.033105850219727 25.79214859008789 C14.5725736618042 25.199378967285156 14.970292091369629 24.760658264160156 15.49628734588623 24.18136215209961 C13.722664833068848 21.479339599609375 11.981256484985352 18.825931549072266 10.152573585510254 16.03839111328125 C10.849604606628418 15.615486145019531 11.482205390930176 15.23182487487793 12.124177932739258 14.842308044433594"></path></svg>