<svg xmlns="http://www.w3.org/2000/svg" viewBox="0.0 0.0 24.0 24.0" height="200px" width="200px"><path fill="none" stroke="black" stroke-width=".3" stroke-opacity="1.0"  filling="0" d="M8.119916915893555 8.941485404968262 L8.119916915893555 8.941485404968262 C8.26218032836914 8.941485404968262 10.127405166625977 8.941485404968262 10.18252182006836 8.941485404968262 L10.18252182006836 8.941485404968262 C10.983325958251953 10.4787015914917 12.22476863861084 12.277276992797852 13.182241439819336 14.135746955871582 C14.139713287353516 15.994217872619629 14.813216209411621 17.912582397460938 14.478140830993652 19.689380645751953 L14.478140830993652 19.689380645751953 C14.36376953125 19.706748962402344 14.249399185180664 19.724117279052734 14.135027885437012 19.741485595703125 L14.135027885437012 19.741485595703125 C13.09249496459961 17.949886322021484 12.20811653137207 16.08722686767578 11.27467155456543 14.253798484802246 C10.341226577758789 12.420370101928711 9.358716011047363 10.616169929504395 8.119916915893555 8.941485404968262 L8.119916915893555 8.941485404968262"></path>
<path fill="none" stroke="black" stroke-width=".3" stroke-opacity="1.0"  filling="0" d="M7.373722553253174 18.7370548248291 L7.373722553253174 18.7370548248291 C7.706129550933838 19.043354034423828 8.038536071777344 19.349653244018555 8.370943069458008 19.65595245361328 L8.370943069458008 19.65595245361328 C7.558223247528076 19.65595245361328 6.745502948760986 19.65595245361328 5.932783126831055 19.65595245361328 L5.932783126831055 19.65595245361328 C6.4130964279174805 19.349653244018555 6.893409252166748 19.043354034423828 7.373722553253174 18.7370548248291 L7.373722553253174 18.7370548248291"></path></svg>