<svg xmlns="http://www.w3.org/2000/svg" viewBox="0.0 0.0 24.0 24.0" height="200px" width="200px"><path fill="none" stroke="black" stroke-width=".3" stroke-opacity="1.0"  filling="0" d="M8.748098373413086 7.994594097137451 L8.748098373413086 7.994594097137451 C9.334303855895996 7.994594097137451 9.92050838470459 7.994594097137451 10.5067138671875 7.994594097137451 L10.5067138671875 7.994594097137451 C10.728608131408691 9.858564376831055 10.950494766235352 11.722538948059082 11.172269821166992 13.586523056030273 L11.172269821166992 13.586523056030273 C11.27597713470459 13.617822647094727 11.379684448242188 13.64912223815918 11.483391761779785 13.680421829223633 L11.483391761779785 13.680421829223633 C12.45945930480957 11.79167366027832 13.43545150756836 9.902888298034668 14.411441802978516 8.014101028442383 L14.411441802978516 8.014101028442383 C15.056719779968262 8.014101028442383 15.701998710632324 8.014101028442383 16.34727668762207 8.014101028442383 L16.34727668762207 8.014101028442383 C15.367753982543945 9.810861587524414 14.388218879699707 11.607614517211914 13.408673286437988 13.404361724853516 C12.429128646850586 15.201109886169434 11.449573516845703 16.997852325439453 10.470013618469238 18.794591903686523 L10.470013618469238 18.794591903686523 C10.20667552947998 18.794591903686523 8.531454086303711 18.794591903686523 8.401928901672363 18.794591903686523 L8.401928901672363 18.794591903686523 C9.525486946105957 17.19112205505371 9.725263595581055 15.404949188232422 9.587533950805664 13.56273078918457 C9.449804306030273 11.720512390136719 8.974567413330078 9.822248458862305 8.748098373413086 7.994594097137451 L8.748098373413086 7.994594097137451"></path></svg>