<svg xmlns="http://www.w3.org/2000/svg" viewBox="0.0 0.0 24.0 24.0" height="200px" width="200px"><path fill="none" stroke="black" stroke-width=".3" stroke-opacity="1.0"  filling="0" d="M4.158748626708984 2.970001220703125 C5.861294746398926 2.970001220703125 7.563842296600342 2.957216262817383 9.265856742858887 2.9731979370117188 C11.21185302734375 2.9913101196289062 13.172765731811523 2.8959550857543945 15.099584579467773 3.1031789779663086 C17.49465560913086 3.3610124588012695 18.824838638305664 4.506875514984131 19.125288009643555 6.338338375091553 C19.45983123779297 8.37702751159668 18.72788429260254 9.976759910583496 16.90334701538086 11.029398918151855 C16.5458984375 11.235557556152344 16.2049617767334 11.470483779907227 15.746297836303711 11.762410163879395 C16.602365493774414 12.188578605651855 17.32845115661621 12.509804725646973 18.015649795532227 12.899749755859375 C19.962711334228516 14.005659103393555 20.54443359375 15.760945320129395 20.254638671875 17.869951248168945 C19.970703125 19.936872482299805 18.875980377197266 21.140270233154297 16.701984405517578 21.621841430664062 C12.626737594604492 22.52478790283203 8.522725105285645 22.009124755859375 4.430965900421143 22.089561462402344 C4.404327869415283 21.850908279418945 4.377692222595215 21.611186981201172 4.351589679718018 21.37146759033203 C4.9061431884765625 21.180755615234375 5.460696220397949 20.990577697753906 6.45473575592041 20.648578643798828 C6.45473575592041 19.316797256469727 6.45473575592041 17.83745765686035 6.45473575592041 16.35811424255371 C6.4542036056518555 13.524087905883789 6.444614410400391 10.690061569213867 6.455801486968994 7.8565673828125 C6.463259696960449 5.970234394073486 6.78661584854126 3.9390039443969727 3.814084053039551 3.5714330673217773 C3.9291486740112305 3.3711328506469727 4.044215202331543 3.1703004837036133 4.158748626708984 2.970001220703125"></path>
<path fill="none" stroke="black" stroke-width=".3" stroke-opacity="1.0"  filling="0" d="M10.531047821044922 4.241583824157715 C12.173931121826172 3.609254837036133 13.453505516052246 4.080172538757324 14.427302360534668 5.226036071777344 C15.513501167297363 6.50347900390625 15.46342658996582 8.040885925292969 14.786882400512695 9.488264083862305 C13.999001502990723 11.17323112487793 12.530847549438477 11.603129386901855 10.531046867370605 11.345296859741211 C10.531046867370605 8.871915817260742 10.531046867370605 6.591908931732178 10.531047821044922 4.241583824157715"></path>
<path fill="none" stroke="black" stroke-width=".3" stroke-opacity="1.0"  filling="0" d="M10.477775573730469 12.591310501098633 C15.037256240844727 12.4602632522583 17.277843475341797 15.597935676574707 15.606191635131836 19.232629776000977 C14.95308780670166 20.652841567993164 13.68256950378418 21.315532684326172 12.190977096557617 21.079540252685547 C10.655168533325195 20.83609390258789 10.551822662353516 19.62204360961914 10.501214981079102 18.4969539642334 C10.41598129272461 16.58664894104004 10.477775573730469 14.66942024230957 10.477775573730469 12.591310501098633"></path></svg>