<svg xmlns="http://www.w3.org/2000/svg" viewBox="0.0 0.0 24.0 24.0" height="200px" width="200px"><path fill="none" stroke="black" stroke-width=".3" stroke-opacity="1.0"  filling="0" d="M5.525282382965088 3.0788774490356445 C9.250638008117676 3.0788774490356445 12.905946731567383 2.9627151489257812 16.54783058166504 3.1296615600585938 C18.27041244506836 3.208465576171875 19.736738204956055 4.213645935058594 20.15585708618164 6.045385837554932 C20.579059600830078 7.897556781768799 20.49441909790039 9.760233879089355 19.014083862304688 11.212552070617676 C18.47296714782715 11.74316120147705 17.76840591430664 12.107992172241211 17.32827377319336 12.415616989135742 C18.280336380004883 13.239842414855957 19.499160766601562 13.919885635375977 20.126087188720703 14.957754135131836 C20.610580444335938 15.7592134475708 20.53820037841797 17.03582763671875 20.388765335083008 18.053266525268555 C20.02218246459961 20.555713653564453 18.343379974365234 22.033130645751953 15.508793830871582 22.162715911865234 C12.236410140991211 22.312732696533203 8.952352523803711 22.197738647460938 5.525282382965088 22.197738647460938 C5.525282382965088 15.75220775604248 5.525282382965088 9.565852165222168 5.525282382965088 3.0788774490356445"></path>
<path fill="none" stroke="black" stroke-width=".3" stroke-opacity="1.0"  filling="0" d="M10.47413444519043 7.411893367767334 C11.719810485839844 7.468514919281006 12.859832763671875 7.389127731323242 13.928640365600586 7.629040241241455 C14.40379524230957 7.735863208770752 15.014959335327148 8.464356422424316 15.054067611694336 8.95118522644043 C15.095512390136719 9.467785835266113 14.637869834899902 10.378985404968262 14.211164474487305 10.510324478149414 C13.083984375 10.857644081115723 11.85523509979248 10.875739097595215 10.474717140197754 11.04910659790039 C10.474717140197754 9.67442512512207 10.474717140197754 8.683838844299316 10.47413444519043 7.411893367767334"></path>
<path fill="none" stroke="black" stroke-width=".3" stroke-opacity="1.0"  filling="0" d="M10.442028999328613 14.69799518585205 C11.572128295898438 14.69799518585205 12.649106979370117 14.500694274902344 13.598249435424805 14.763956069946289 C14.282963752746582 14.953083992004395 14.798396110534668 15.755126953125 15.389129638671875 16.283985137939453 C14.773295402526855 16.881139755249023 14.252609252929688 17.7409725189209 13.517110824584961 18.007152557373047 C12.685881614685059 18.3083553314209 11.66143798828125 18.076616287231445 10.442612648010254 18.076616287231445 C10.442612648010254 16.804670333862305 10.442612648010254 15.884130477905273 10.442028999328613 14.69799518585205"></path></svg>