<svg xmlns="http://www.w3.org/2000/svg" viewBox="0.0 0.0 24.0 24.0" height="200px" width="200px"><path fill="none" stroke="black" stroke-width=".3" stroke-opacity="1.0"  filling="0" d="M7.342809200286865 7.1207499504089355 C9.238492965698242 7.1207499504089355 11.069300651550293 7.1207499504089355 13.185989379882812 7.1207499504089355 C12.515063285827637 7.644515037536621 12.028746604919434 8.023757934570312 11.3040189743042 8.589192390441895 C13.895947456359863 13.81524658203125 14.999917984008789 19.687437057495117 18.637794494628906 24.372318267822266 C17.091815948486328 24.372318267822266 15.296348571777344 24.372318267822266 13.171220779418945 24.372318267822266 C14.421296119689941 23.707725524902344 14.837986946105957 22.92814064025879 14.3247709274292 21.732919692993164 C12.568862915039062 17.645645141601562 10.912117958068848 13.51512336730957 9.128782272338867 9.439982414245605 C8.772747993469238 8.626642227172852 8.02323055267334 7.9847259521484375 7.342809200286865 7.1207499504089355"></path>
<path fill="none" stroke="black" stroke-width=".3" stroke-opacity="1.0"  filling="0" d="M17.92519760131836 7.184044361114502 C19.4121036529541 7.184044361114502 20.707542419433594 7.184044361114502 22.526742935180664 7.184044361114502 C21.242908477783203 7.821741580963135 20.422710418701172 8.228939056396484 19.608318328857422 8.633499145507812 C19.08613395690918 8.184104919433594 18.583993911743164 7.751589298248291 17.92519760131836 7.184044361114502"></path>
<path fill="none" stroke="black" stroke-width=".3" stroke-opacity="1.0"  filling="0" d="M6.160776138305664 22.654388427734375 C6.601730823516846 23.17340850830078 7.042158603668213 23.691898345947266 7.580165386199951 24.325374603271484 C6.306354522705078 24.325374603271484 5.080013751983643 24.325374603271484 3.3267440795898438 24.325374603271484 C4.535677909851074 23.612777709960938 5.327392578125 23.145977020263672 6.160776138305664 22.654388427734375"></path></svg>