<svg xmlns="http://www.w3.org/2000/svg" viewBox="0.0 0.0 24.0 24.0" height="200px" width="200px"><path fill="none" stroke="black" stroke-width=".3" stroke-opacity="1.0"  filling="0" d="M17.464244842529297 12.655525207519531 L17.464244842529297 12.655525207519531 C17.10769271850586 14.49853515625 16.526193618774414 16.246179580688477 16.060890197753906 18.00925064086914 C15.595588684082031 19.772319793701172 15.246484756469727 21.55081558227539 15.35472297668457 23.45552635192871 L15.35472297668457 23.45552635192871 C14.454898834228516 23.041650772094727 13.744843482971191 22.99905776977539 13.518003463745117 21.86521339416504 C13.334650993347168 20.94873809814453 13.864971160888672 19.57246971130371 14.120678901672363 18.768003463745117 C14.894326210021973 16.334081649780273 15.288209915161133 14.114673614501953 17.464244842529297 12.655525207519531 L17.464244842529297 12.655525207519531"></path>
<path fill="none" stroke="black" stroke-width=".3" stroke-opacity="1.0"  filling="0" d="M14.839387893676758 13.140573501586914 L14.839387893676758 13.140573501586914 C12.496886253356934 14.533637046813965 11.008379936218262 15.992175102233887 10.082487106323242 18.615093231201172 C9.824565887451172 19.345745086669922 9.19292163848877 21.088022232055664 9.711912155151367 21.947956085205078 C10.003390312194824 22.43091583251953 10.639063835144043 22.590784072875977 11.102639198303223 22.912199020385742 L11.102639198303223 22.912199020385742 C10.540820121765137 22.861295700073242 9.958723068237305 22.917495727539062 9.417182922363281 22.759490966796875 C7.254929065704346 22.12860870361328 8.016304016113281 18.707786560058594 8.691947937011719 17.3205623626709 C9.325828552246094 16.019084930419922 10.189664840698242 15.100508689880371 11.231542587280273 14.444089889526367 C12.273420333862305 13.78767204284668 13.493340492248535 13.393413543701172 14.839387893676758 13.140573501586914 L14.839387893676758 13.140573501586914"></path></svg>