<svg xmlns="http://www.w3.org/2000/svg" viewBox="0.0 0.0 24.0 24.0" height="200px" width="200px"><path fill="none" stroke="black" stroke-width=".3" stroke-opacity="1.0"  filling="0" d="M11.579811096191406 8.918817520141602 L11.579811096191406 8.918817520141602 C12.259092330932617 8.808223724365234 12.93020248413086 8.554450035095215 13.617655754089355 8.587035179138184 C16.028087615966797 8.701290130615234 16.57565689086914 10.641891479492188 17.20945930480957 12.536907196044922 L17.20945930480957 12.536907196044922 C16.422956466674805 12.574373245239258 15.63645076751709 12.61175537109375 14.849939346313477 12.64903736114502 L14.849939346313477 12.64903736114502 C14.716526985168457 12.327811241149902 14.695271492004395 11.931693077087402 14.449702262878418 11.685358047485352 C12.723335266113281 9.953604698181152 11.472635269165039 11.852821350097656 11.21707534790039 13.803650856018066 C10.961516380310059 15.75447940826416 11.70109748840332 17.756919860839844 13.955292701721191 16.231613159179688 C14.259121894836426 16.026025772094727 14.37960433959961 15.63305377960205 14.591760635375977 15.33377456665039 L14.591760635375977 15.33377456665039 C15.224637031555176 15.390837669372559 15.857512474060059 15.44789981842041 16.490388870239258 15.504962921142578 L16.490388870239258 15.504962921142578 C16.13814353942871 16.81573486328125 16.184001922607422 17.547161102294922 15.069010734558105 18.43967628479004 C13.882852554321289 19.389156341552734 12.412405967712402 19.593339920043945 11.11868953704834 19.206707000732422 C9.824973106384277 18.8200740814209 8.707986831665039 17.842628479003906 8.22874927520752 16.428850173950195 C7.650613784790039 14.723318099975586 8.01984977722168 12.688575744628906 8.939471244812012 11.176494598388672 C9.825576782226562 9.719521522521973 10.17228889465332 9.74559497833252 11.579811096191406 8.918817520141602 L11.579811096191406 8.918817520141602"></path></svg>