<svg xmlns="http://www.w3.org/2000/svg" viewBox="0.0 0.0 24.0 24.0" height="200px" width="200px"><path fill="none" stroke="black" stroke-width=".3" stroke-opacity="1.0"  filling="0" d="M14.446516990661621 13.299995422363281 L14.446516990661621 13.299995422363281 C15.284661293029785 13.324430465698242 16.867477416992188 13.000943183898926 16.90366554260254 13.838662147521973 C16.927976608276367 14.401450157165527 16.626867294311523 14.930755615234375 16.488468170166016 15.476801872253418 L16.488468170166016 15.476801872253418 C16.082841873168945 14.867864608764648 15.67713737487793 14.258978843688965 15.271247863769531 13.650217056274414 L15.271247863769531 13.650217056274414 C13.737640380859375 14.910208702087402 12.258598327636719 16.635540008544922 11.558673858642578 18.478294372558594 C10.858750343322754 20.32105255126953 10.937942504882812 22.281234741210938 12.520803451538086 24.010929107666016 L12.520803451538086 24.010929107666016 C11.960285186767578 23.918621063232422 11.363524436950684 23.952722549438477 10.839248657226562 23.734006881713867 C9.257854461669922 23.07428741455078 8.927400588989258 21.23477554321289 9.184647560119629 19.735614776611328 C9.440136909484863 18.246694564819336 10.091560363769531 16.93551254272461 11.011134147644043 15.847698211669922 C11.930706977844238 14.75988483428955 13.118429183959961 13.895440101623535 14.446516990661621 13.299995422363281 L14.446516990661621 13.299995422363281"></path></svg>