<svg xmlns="http://www.w3.org/2000/svg" viewBox="0.0 0.0 24.0 24.0" height="200px" width="200px"><path fill="none" stroke="black" stroke-width=".3" stroke-opacity="1.0"  filling="0" d="M15.885096549987793 6.2485222816467285 C18.954540252685547 6.999903678894043 20.895492553710938 9.464975357055664 21.29745864868164 12.971895217895508 C21.416061401367188 14.005932807922363 21.31592559814453 15.065537452697754 21.31592559814453 16.59244728088379 C17.34169578552246 16.59244728088379 13.81915283203125 16.59244728088379 10.099174499511719 16.59244728088379 C9.739818572998047 18.649158477783203 9.674481391906738 20.397647857666016 11.755338668823242 21.1951904296875 C13.984626770019531 22.050262451171875 15.249476432800293 20.49352264404297 16.409215927124023 18.625011444091797 C17.672645568847656 18.907669067382812 18.88210105895996 19.177539825439453 20.149789810180664 19.460906982421875 C18.341646194458008 23.81792640686035 15.213966369628906 25.670814514160156 11.148836135864258 25.03661346435547 C7.424597263336182 24.45638656616211 4.922596454620361 21.729965209960938 4.660536289215088 17.704605102539062 C4.454580783843994 14.538576126098633 5.257095813751221 11.544412612915039 7.286820411682129 9.080761909484863 C9.501904487609863 6.391980171203613 12.474051475524902 5.4133381843566895 15.885096549987793 6.2485222816467285"></path>
<path fill="none" stroke="black" stroke-width=".3" stroke-opacity="1.0"  filling="0" d="M14.308473587036133 9.437277793884277 C16.438335418701172 9.861261367797852 16.6173038482666 11.435754776000977 16.344589233398438 13.474000930786133 C14.437017440795898 13.474000930786133 12.52802562713623 13.474000930786133 10.430123329162598 13.474000930786133 C11.42297077178955 10.107697486877441 12.44564437866211 9.065847396850586 14.308473587036133 9.437277793884277"></path></svg>