<svg xmlns="http://www.w3.org/2000/svg" viewBox="0.0 0.0 24.0 24.0" height="200px" width="200px"><path fill="none" stroke="black" stroke-width=".3" stroke-opacity="1.0"  filling="0" d="M7.3598313331604 5.469767093658447 C11.656780242919922 5.469767093658447 15.82905387878418 5.469767093658447 20.04409408569336 5.469767093658447 C20.022350311279297 8.019086837768555 19.197463989257812 9.973299980163574 17.531017303466797 11.747749328613281 C14.757716178894043 14.702264785766602 12.186650276184082 17.8474178314209 9.058894157409668 21.457202911376953 C12.16707992553711 21.457202911376953 14.61854362487793 21.457202911376953 17.374448776245117 21.457202911376953 C17.2519474029541 22.734399795532227 17.167865753173828 23.61147689819336 17.06638526916504 24.66976547241211 C12.703473091125488 24.66976547241211 8.543521881103516 24.66976547241211 3.360072135925293 24.66976547241211 C4.538689136505127 22.457504272460938 5.177288055419922 20.654787063598633 6.310963153839111 19.253637313842773 C9.016128540039062 15.909875869750977 11.954696655273438 12.75529956817627 15.399213790893555 8.84324836730957 C12.148232460021973 8.84324836730957 9.631531715393066 8.84324836730957 6.860404968261719 8.84324836730957 C7.078587055206299 7.36961555480957 7.214134693145752 6.45557165145874 7.3598313331604 5.469767093658447"></path></svg>