<svg xmlns="http://www.w3.org/2000/svg" viewBox="0.0 0.0 24.0 24.0" height="200px" width="200px"><path fill="none" stroke="black" stroke-width=".3" stroke-opacity="1.0"  filling="0" d="M13.465669631958008 5.950470447540283 C13.651451110839844 5.879675388336182 14.097673416137695 6.494518756866455 14.602677345275879 6.961764335632324 C14.066781997680664 7.380527019500732 13.69736099243164 7.890249729156494 13.371705055236816 7.863219261169434 C13.034034729003906 7.835330486297607 12.43292236328125 7.207186698913574 12.491703033447266 6.9857916831970215 C12.60325813293457 6.565313339233398 13.050338745117188 6.10879373550415 13.465669631958008 5.950470447540283"></path>
<path fill="none" stroke="black" stroke-width=".3" stroke-opacity="1.0"  filling="0" d="M11.74814224243164 9.794417381286621 C13.049051284790039 9.55586051940918 13.585375785827637 10.342756271362305 13.315497398376465 11.362630844116211 C12.279747009277344 15.274370193481445 11.207097053527832 19.184823989868164 9.910049438476562 23.015039443969727 C9.350555419921875 24.6682071685791 7.8724446296691895 25.331531524658203 6.548794746398926 25.099842071533203 C5.69796895980835 24.951385498046875 5.072828769683838 24.61800765991211 5.818106174468994 23.101709365844727 C6.23343563079834 23.843982696533203 6.45440149307251 24.239147186279297 6.680087089538574 24.64246368408203 C7.797358989715576 24.790061950683594 8.227705955505371 23.93494415283203 8.462830543518066 23.162635803222656 C9.642745018005371 19.28607940673828 10.751007080078125 15.387212753295898 11.830521583557129 11.481051445007324 C11.967391967773438 10.986345291137695 11.78632926940918 10.404111862182617 11.74814224243164 9.794417381286621"></path></svg>