<svg xmlns="http://www.w3.org/2000/svg" viewBox="0.0 0.0 24.0 24.0" height="200px" width="200px"><path fill="none" stroke="black" stroke-width=".3" stroke-opacity="1.0"  filling="0" d="M9.60078239440918 8.017414093017578 L9.60078239440918 8.017414093017578 C10.009150505065918 7.978245735168457 10.446615219116211 7.743537425994873 10.825886726379395 7.899909019470215 C11.206284523010254 8.056744575500488 11.352633476257324 8.532155990600586 11.616006851196289 8.84827995300293 L11.616006851196289 8.84827995300293 C14.1033353805542 6.979393005371094 15.520069122314453 8.471155166625977 15.866259574890137 10.584111213684082 C16.21245002746582 12.697067260742188 15.488096237182617 15.431217193603516 13.693248748779297 16.04710578918457 C12.53721809387207 16.443788528442383 11.722511291503906 15.86491584777832 10.685662269592285 15.456100463867188 L10.685662269592285 15.456100463867188 C10.484591484069824 16.5366153717041 10.283445358276367 17.617115020751953 10.082221031188965 18.697601318359375 L10.082221031188965 18.697601318359375 C9.351459503173828 18.697601318359375 8.620697975158691 18.697601318359375 7.889936923980713 18.697601318359375 L7.889936923980713 18.697601318359375 C8.175034523010254 16.917564392089844 8.460136413574219 15.13752555847168 8.745268821716309 13.35749340057373 C9.030401229858398 11.577461242675781 9.315564155578613 9.797432899475098 9.60078239440918 8.017414093017578 L9.60078239440918 8.017414093017578"></path>
<path fill="none" stroke="black" stroke-width=".3" stroke-opacity="1.0"  filling="0" d="M12.785662651062012 9.540250778198242 L12.785662651062012 9.540250778198242 C13.65983772277832 10.689759254455566 14.012283325195312 12.248140335083008 13.188895225524902 13.65766429901123 C12.096007347106934 15.528534889221191 11.100255012512207 14.30421257019043 11.09734058380127 12.86214828491211 L11.09734058380127 12.86214828491211 C11.06407642364502 12.854223251342773 11.030813217163086 12.846298217773438 10.997549057006836 12.838373184204102 L10.997549057006836 12.838373184204102 C11.353165626525879 11.164453506469727 11.329105377197266 10.524065017700195 12.785662651062012 9.540250778198242 L12.785662651062012 9.540250778198242"></path></svg>