<svg xmlns="http://www.w3.org/2000/svg" viewBox="0.0 0.0 24.0 24.0" height="200px" width="200px"><path fill="none" stroke="black" stroke-width=".3" stroke-opacity="1.0"  filling="0" d="M17.544626235961914 13.745187759399414 C16.99449920654297 14.03938102722168 16.77342987060547 14.222188949584961 16.525999069213867 14.274907112121582 C16.116168975830078 14.361635208129883 15.65532112121582 14.274056434631348 15.27354907989502 14.416051864624023 C12.751641273498535 15.349650382995605 12.078226089477539 16.973670959472656 13.332376480102539 19.37398910522461 C13.845941543579102 20.35690689086914 14.632444381713867 21.206329345703125 15.34582233428955 22.07445526123047 C17.181560516357422 24.307270050048828 18.95693016052246 26.583450317382812 17.34991455078125 29.669086456298828 C15.731844902038574 32.77257537841797 12.939550399780273 33.24873352050781 9.6387939453125 32.2581672668457 C10.446552276611328 32.20289993286133 11.280670166015625 32.2581672668457 12.058669090270996 32.07365798950195 C15.148558616638184 31.341571807861328 16.16633415222168 29.12406349182129 14.594182014465332 26.39213752746582 C13.827235221862793 25.05976104736328 12.812860488891602 23.865127563476562 11.865656852722168 22.643287658691406 C10.290952682495117 20.61198616027832 9.414321899414062 18.37832260131836 10.847031593322754 16.023067474365234 C12.23637580871582 13.73753547668457 14.510004043579102 13.13894271850586 17.544626235961914 13.745187759399414"></path></svg>