<svg xmlns="http://www.w3.org/2000/svg" viewBox="0.0 0.0 24.0 24.0" height="200px" width="200px"><path fill="none" stroke="black" stroke-width=".3" stroke-opacity="1.0"  filling="0" d="M14.485815048217773 7.229766368865967 L14.485815048217773 7.229766368865967 C14.974710464477539 7.565451622009277 15.557792663574219 7.7942070960998535 15.952502250671387 8.236822128295898 C17.508880615234375 9.982094764709473 16.837631225585938 11.461526870727539 15.517351150512695 12.707845687866211 C14.19707202911377 13.954164505004883 12.227762222290039 14.967370986938477 11.188017845153809 15.780191421508789 L11.188017845153809 15.780191421508789 C12.76019287109375 15.780191421508789 14.33237075805664 15.780191421508789 15.904545783996582 15.780191421508789 L15.904545783996582 15.780191421508789 C15.820576667785645 16.422103881835938 15.736608505249023 17.06401824951172 15.652639389038086 17.705930709838867 L15.652639389038086 17.705930709838867 C14.369558334350586 17.705810546875 13.086478233337402 17.705732345581055 11.803398132324219 17.7056827545166 C10.520317077636719 17.70563507080078 9.237236976623535 17.705615997314453 7.954155921936035 17.705612182617188 L7.954155921936035 17.705612182617188 C7.986003875732422 17.10411262512207 7.8007121086120605 16.449583053588867 8.049699783325195 15.901110649108887 C8.562784194946289 14.770885467529297 9.779377937316895 14.163046836853027 11.00170612335205 13.553162574768066 C12.22403335571289 12.943277359008789 13.452095985412598 12.33134651184082 13.988116264343262 11.192934036254883 C14.647354125976562 9.792830467224121 13.083107948303223 8.481405258178711 11.800241470336914 9.335165023803711 C11.697186470031738 9.403749465942383 10.968975067138672 10.5185546875 10.752296447753906 10.846921920776367 L10.752296447753906 10.846921920776367 C10.104522705078125 10.694755554199219 9.456748962402344 10.54258918762207 8.808975219726562 10.390422821044922 L8.808975219726562 10.390422821044922 C10.17270565032959 7.585777282714844 11.35593318939209 6.680667877197266 14.485815048217773 7.229766368865967 L14.485815048217773 7.229766368865967"></path></svg>