<svg xmlns="http://www.w3.org/2000/svg" viewBox="0.0 0.0 24.0 24.0" height="200px" width="200px"><path fill="none" stroke="black" stroke-width=".3" stroke-opacity="1.0"  filling="0" d="M12.761505126953125 8.920106887817383 L12.761505126953125 8.920106887817383 C14.034948348999023 8.806253433227539 17.56155014038086 8.81273365020752 16.407024383544922 11.317253112792969 C16.10987663269043 11.9618558883667 15.46596622467041 12.380101203918457 14.995437622070312 12.91152572631836 L14.995437622070312 12.91152572631836 C15.143792152404785 12.287629127502441 15.553406715393066 11.671112060546875 15.44050121307373 11.039836883544922 C15.153260231018066 9.433828353881836 12.571330070495605 10.15564250946045 11.954416275024414 10.179289817810059 L11.954416275024414 10.179289817810059 C12.223445892333984 9.759562492370605 12.492475509643555 9.339834213256836 12.761505126953125 8.920106887817383 L12.761505126953125 8.920106887817383"></path>
<path fill="none" stroke="black" stroke-width=".3" stroke-opacity="1.0"  filling="0" d="M12.800532341003418 13.64461898803711 L12.800532341003418 13.64461898803711 C14.679544448852539 13.146629333496094 16.701248168945312 14.428510665893555 15.342938423156738 16.608522415161133 C14.602792739868164 17.79641342163086 13.569439888000488 18.492185592651367 12.404562950134277 18.913312911987305 C11.23968505859375 19.334442138671875 9.943284034729004 19.480924606323242 8.677042961120605 19.570240020751953 L8.677042961120605 19.570240020751953 C9.466787338256836 19.377483367919922 11.35654354095459 18.843931198120117 12.769826889038086 17.999889373779297 C14.183111190795898 17.155847549438477 15.119922637939453 16.001314163208008 14.00378131866455 14.5665922164917 C13.693521499633789 14.16777515411377 13.201615333557129 13.951943397521973 12.800532341003418 13.64461898803711 L12.800532341003418 13.64461898803711"></path></svg>