<svg xmlns="http://www.w3.org/2000/svg" viewBox="0.0 0.0 24.0 24.0" height="200px" width="200px"><path fill="none" stroke="black" stroke-width=".3" stroke-opacity="1.0"  filling="0" d="M19.190622329711914 5.956275463104248 C18.164859771728516 10.03654670715332 17.230226516723633 13.752299308776855 16.252248764038086 17.64197540283203 C16.956836700439453 17.8170108795166 17.535287857055664 17.960927963256836 18.522708892822266 18.207088470458984 C17.473608016967773 18.43157958984375 16.790136337280273 18.577720642089844 15.994420051574707 18.74831199645996 C15.537104606628418 20.4119815826416 15.060896873474121 22.083431243896484 14.621919631958008 23.76488494873047 C14.312968254089355 24.948455810546875 13.718958854675293 25.54191017150879 12.238103866577148 24.88399887084961 C12.73098087310791 22.90915298461914 13.231637954711914 20.902080535888672 13.816200256347656 18.559940338134766 C11.73689079284668 18.559940338134766 9.86039924621582 18.559940338134766 7.984464168548584 18.559940338134766 C8.031696319580078 18.349895477294922 8.078927993774414 18.139854431152344 8.125604629516602 17.929811477661133 C10.040436744689941 17.929811477661133 11.955268859863281 17.929811477661133 13.767301559448242 17.929811477661133 C15.890508651733398 14.090145111083984 14.884750366210938 9.083020210266113 19.190622329711914 5.956275463104248"></path></svg>