<svg xmlns="http://www.w3.org/2000/svg" viewBox="0.0 0.0 24.0 24.0" height="200px" width="200px"><path fill="none" stroke="black" stroke-width=".3" stroke-opacity="1.0"  filling="0" d="M13.485167503356934 6.087827205657959 C17.351436614990234 4.455814838409424 20.573951721191406 6.385232925415039 21.012004852294922 10.587324142456055 C21.528743743896484 15.54655933380127 19.31679344177246 19.36635971069336 15.786343574523926 22.562850952148438 C14.897224426269531 23.36770248413086 13.851348876953125 23.99907112121582 12.877345085144043 24.710365295410156 C16.32415199279785 20.684856414794922 18.31304931640625 16.14694595336914 18.707731246948242 10.926241874694824 C18.91715431213379 8.155414581298828 18.135845184326172 6.621918201446533 16.674840927124023 6.202452182769775 C15.170465469360352 5.771214008331299 13.229894638061523 6.95092248916626 12.23234748840332 9.314056396484375 C11.568761825561523 10.886587142944336 11.227984428405762 12.638801574707031 11.012365341186523 14.345165252685547 C10.802942276000977 16.00320053100586 11.117076873779297 17.61166763305664 13.884187698364258 18.305614471435547 C9.757686614990234 18.319244384765625 7.8629655838012695 16.557117462158203 8.181437492370605 13.4932222366333 C8.535225868225098 10.0891695022583 10.232295989990234 7.460848331451416 13.485167503356934 6.087827205657959"></path></svg>