<svg xmlns="http://www.w3.org/2000/svg" viewBox="0.0 0.0 24.0 24.0" height="200px" width="200px"><path fill="none" stroke="black" stroke-width=".3" stroke-opacity="1.0"  filling="0" d="M7.944228649139404 7.000157833099365 L7.944228649139404 7.000157833099365 C10.164881706237793 6.9566521644592285 12.970039367675781 6.49038028717041 15.012336730957031 7.622293472290039 C16.716609954833984 8.566862106323242 17.55141830444336 10.502870559692383 17.524173736572266 12.423832893371582 C17.49692726135254 14.344795227050781 16.607629776000977 16.250713348388672 14.863690376281738 17.135099411010742 C12.842270851135254 18.160202026367188 10.115787506103516 17.722043991088867 7.943901538848877 17.686527252197266 L7.943901538848877 17.686527252197266 C7.944038391113281 15.905466079711914 7.944119453430176 14.124403953552246 7.944166660308838 12.343342781066895 C7.9442138671875 10.562280654907227 7.94422721862793 8.781219482421875 7.944228649139404 7.000157833099365 L7.944228649139404 7.000157833099365"></path>
<path fill="none" stroke="black" stroke-width=".3" stroke-opacity="1.0"  filling="0" d="M11.267960548400879 9.568109512329102 L11.267960548400879 9.568109512329102 C12.475005149841309 9.534158706665039 12.821523666381836 9.210417747497559 13.556587219238281 10.388727188110352 C14.234667778015137 11.475693702697754 14.387154579162598 14.604528427124023 12.712064743041992 15.069704055786133 C12.247963905334473 15.198586463928223 11.74932861328125 15.035921096801758 11.267960548400879 15.01902961730957 L11.267960548400879 15.01902961730957 C11.267960548400879 13.202056884765625 11.267960548400879 11.38508415222168 11.267960548400879 9.568109512329102 L11.267960548400879 9.568109512329102"></path></svg>