<svg xmlns="http://www.w3.org/2000/svg" viewBox="0.0 0.0 24.0 24.0" height="200px" width="200px"><path fill="none" stroke="black" stroke-width=".3" stroke-opacity="1.0"  filling="0" d="M9.118510246276855 8.94216537475586 L9.118510246276855 8.94216537475586 C11.269806861877441 8.94216537475586 13.421107292175293 8.94216537475586 15.572403907775879 8.94216537475586 L15.572403907775879 8.94216537475586 C15.607662200927734 9.327435493469238 15.642921447753906 9.712705612182617 15.678179740905762 10.097975730895996 L15.678179740905762 10.097975730895996 C14.07102108001709 9.236862182617188 13.255697250366211 9.130610466003418 11.451030731201172 9.36397933959961 L11.451030731201172 9.36397933959961 C11.451030731201172 10.9057035446167 11.451030731201172 12.447427749633789 11.451030731201172 13.989151954650879 L11.451030731201172 13.989151954650879 C11.610879898071289 13.97218132019043 13.606598854064941 13.760255813598633 13.71571159362793 13.748666763305664 L13.71571159362793 13.748666763305664 C13.71571159362793 14.041129112243652 13.71571159362793 14.333592414855957 13.71571159362793 14.626054763793945 L13.71571159362793 14.626054763793945 C12.933699607849121 14.488264083862305 12.151692390441895 14.350442886352539 11.36968994140625 14.21259880065918 L11.36968994140625 14.21259880065918 C11.365884780883789 15.527872085571289 10.894867897033691 16.93448257446289 11.37644100189209 18.158430099487305 C12.392725944519043 20.741378784179688 15.2459716796875 19.15622901916504 16.530488967895508 18.053298950195312 L16.530488967895508 18.053298950195312 C16.492658615112305 18.616361618041992 16.4548282623291 19.17942237854004 16.4169979095459 19.74248504638672 L16.4169979095459 19.74248504638672 C13.96434211730957 19.74248504638672 11.511688232421875 19.74248504638672 9.059032440185547 19.74248504638672 L9.059032440185547 19.74248504638672 C9.68520736694336 18.199371337890625 10.014568328857422 16.273231506347656 10.030139923095703 14.34589958190918 C10.045711517333984 12.418567657470703 9.747493743896484 10.490044593811035 9.118510246276855 8.94216537475586 L9.118510246276855 8.94216537475586"></path></svg>