<svg xmlns="http://www.w3.org/2000/svg" viewBox="0.0 0.0 24.0 24.0" height="200px" width="200px"><path fill="none" stroke="black" stroke-width=".3" stroke-opacity="1.0"  filling="0" d="M13.849554061889648 6.869801044464111 C14.13199520111084 6.909758567810059 14.372289657592773 7.244747638702393 14.632288932800293 7.442346572875977 C14.632288932800293 7.442346572875977 14.693046569824219 7.372831344604492 14.693046569824219 7.372831344604492 C10.104467391967773 7.285252094268799 7.534030914306641 9.170385360717773 6.739800930023193 13.68452262878418 C6.388391017913818 15.683507919311523 6.419590950012207 17.869144439697266 6.82519006729126 19.858278274536133 C7.765567302703857 24.46929931640625 10.734487533569336 26.026559829711914 14.118858337402344 25.305675506591797 L14.0570068359375 25.235065460205078 C11.438949584960938 26.772071838378906 9.067207336425781 25.696495056152344 6.9390435218811035 24.27826690673828 C3.635133743286133 22.076210021972656 2.468693733215332 16.854873657226562 4.101490497589111 12.704188346862793 C5.651634693145752 8.76533317565918 9.75853157043457 6.2901387214660645 13.849554061889648 6.869801044464111"></path>
<path fill="none" stroke="black" stroke-width=".3" stroke-opacity="1.0"  filling="0" d="M14.693593978881836 7.372283458709717 L14.632288932800293 7.441799640655518 C15.393129348754883 7.581377983093262 16.151233673095703 7.739019870758057 16.91535758972168 7.855608940124512 C17.539356231689453 7.950850486755371 18.171016693115234 7.996829986572266 18.972362518310547 8.083861351013184 C18.899015426635742 8.834848403930664 18.807605743408203 9.775774002075195 18.723312377929688 10.642803192138672 C17.33245086669922 9.514131546020508 16.01274871826172 8.442934036254883 14.693593978881836 7.372283458709717"></path>
<path fill="none" stroke="black" stroke-width=".3" stroke-opacity="1.0"  filling="0" d="M14.979867935180664 18.434574127197266 C17.29249382019043 18.434574127197266 19.367015838623047 18.434574127197266 21.95113754272461 18.434574127197266 C19.021625518798828 19.362361907958984 19.925329208374023 21.5228214263916 19.651098251342773 23.80643653869629 C17.913209915161133 24.250350952148438 15.984834671020508 24.742435455322266 14.057004928588867 25.235065460205078 L14.118858337402344 25.305130004882812 C14.834267616271973 24.767616271972656 15.665719985961914 24.331363677978516 16.242643356323242 23.672332763671875 C17.74407196044922 21.95524024963379 17.28318977355957 19.86812973022461 14.979867935180664 18.434574127197266"></path></svg>