<svg xmlns="http://www.w3.org/2000/svg" viewBox="0.0 0.0 24.0 24.0" height="200px" width="200px"><path fill="none" stroke="black" stroke-width=".3" stroke-opacity="1.0"  filling="0" d="M6.118463039398193 6.4281206130981445 C9.026023864746094 6.4281206130981445 11.71219539642334 6.2714457511901855 14.372255325317383 6.468424320220947 C17.63062858581543 6.709680557250977 19.387540817260742 8.434234619140625 19.499935150146484 11.061368942260742 C19.603818893432617 13.490959167480469 18.505393981933594 15.279090881347656 16.122920989990234 15.985827445983887 C14.526090621948242 16.459257125854492 12.814024925231934 16.54440689086914 10.765336990356445 16.864002227783203 C11.208681106567383 19.652921676635742 9.418845176696777 22.87950897216797 12.36557388305664 25.56908416748047 C10.176104545593262 25.56908416748047 8.240381240844727 25.56908416748047 6.304089069366455 25.56908416748047 C8.055322647094727 24.75505828857422 8.053620338439941 23.270057678222656 8.037725448608398 21.715232849121094 C7.997989177703857 17.853435516357422 8.034319877624512 13.990501403808594 8.01331615447998 10.128134727478027 C8.001962661743164 8.026654243469238 7.978121280670166 8.026654243469238 6.118463039398193 6.4281206130981445"></path>
<path fill="none" stroke="black" stroke-width=".3" stroke-opacity="1.0"  filling="0" d="M10.86184024810791 7.561740875244141 C12.642592430114746 6.436069011688232 14.06799030303955 7.011109828948975 15.300381660461426 8.165732383728027 C16.569103240966797 9.354413986206055 16.84271812438965 12.29149341583252 15.896993637084961 14.000720024108887 C14.823546409606934 15.94041919708252 13.058688163757324 16.22027587890625 10.861272811889648 15.8842191696167 C10.861272811889648 12.935220718383789 10.861272811889648 10.23542594909668 10.86184024810791 7.561740875244141"></path></svg>