<svg xmlns="http://www.w3.org/2000/svg" viewBox="0.0 0.0 24.0 24.0" height="200px" width="200px"><path fill="none" stroke="black" stroke-width=".3" stroke-opacity="1.0"  filling="0" d="M14.456611633300781 6.990549087524414 L14.456611633300781 6.990549087524414 C14.646339416503906 6.990549087524414 17.05364990234375 6.990549087524414 17.179506301879883 6.990549087524414 L17.179506301879883 6.990549087524414 C16.62171173095703 8.790562629699707 16.063892364501953 10.590569496154785 15.50605297088623 12.390569686889648 C14.948211669921875 14.190569877624512 14.390348434448242 15.990562438964844 13.832462310791016 17.79054832458496 L13.832462310791016 17.79054832458496 C12.655505180358887 17.79054832458496 11.478549003601074 17.79054832458496 10.301591873168945 17.79054832458496 L10.301591873168945 17.79054832458496 C9.714668273925781 15.993330001831055 9.127790451049805 14.196096420288086 8.540926933288574 12.398858070373535 C7.954063415527344 10.601619720458984 7.367212772369385 8.804376602172852 6.780343055725098 7.007140159606934 L6.780343055725098 7.007140159606934 C6.922260284423828 7.007140159606934 10.177753448486328 7.007140159606934 10.31718635559082 7.007140159606934 L10.31718635559082 7.007140159606934 C10.952908515930176 9.124667167663574 11.588495254516602 11.242238998413086 12.224143028259277 13.35978889465332 L12.224143028259277 13.35978889465332 C12.316498756408691 13.373282432556152 12.408854484558105 13.3867769241333 12.50121021270752 13.400270462036133 L12.50121021270752 13.400270462036133 C13.152922630310059 11.263669967651367 13.80480670928955 9.127120971679688 14.456611633300781 6.990549087524414 L14.456611633300781 6.990549087524414"></path></svg>