<svg xmlns="http://www.w3.org/2000/svg" viewBox="0.0 0.0 24.0 24.0" height="200px" width="200px"><path fill="none" stroke="black" stroke-width=".3" stroke-opacity="1.0"  filling="0" d="M17.41204261779785 2.934175491333008 C17.491422653198242 3.3884172439575195 17.626483917236328 3.903850555419922 17.659557342529297 4.425346851348877 C17.68822479248047 4.874627590179443 17.601123809814453 5.331074237823486 17.566394805908203 5.773740291595459 C16.4296875 6.74286413192749 14.242819786071777 5.1298627853393555 13.588468551635742 7.65134859085083 C14.698716163635254 7.806253910064697 15.716351509094238 7.948479652404785 16.8977108001709 8.113859176635742 C16.8977108001709 9.074713706970215 16.8977108001709 10.032259941101074 16.8977108001709 11.199838638305664 C15.903780937194824 11.31395149230957 14.941823959350586 11.42475414276123 13.656825065612793 11.571942329406738 C13.656825065612793 13.259364128112793 13.656825065612793 14.880634307861328 13.656825065612793 16.50245475769043 C13.656825065612793 18.136404037475586 13.656825065612793 19.770902633666992 13.656825065612793 21.549835205078125 C11.930264472961426 21.549835205078125 10.428068161010742 21.549835205078125 8.716390609741211 21.549835205078125 C8.71694278717041 18.260990142822266 8.71694278717041 15.076333999633789 8.71694278717041 11.791345596313477 C7.768215656280518 11.4396390914917 7.1954522132873535 11.226850509643555 6.628751754760742 11.016819953918457 C6.628751754760742 10.012414932250977 6.628751754760742 9.118814468383789 6.628751754760742 8.144179344177246 C7.2990899085998535 7.983760833740234 7.8894944190979 7.842637062072754 8.43690013885498 7.7114362716674805 C9.17724895477295 2.7577714920043945 11.66235065460205 1.4319782257080078 17.41204261779785 2.934175491333008"></path></svg>