<svg xmlns="http://www.w3.org/2000/svg" viewBox="0.0 0.0 24.0 24.0" height="200px" width="200px"><path fill="none" stroke="black" stroke-width=".3" stroke-opacity="1.0"  filling="0" d="M14.339273452758789 6.330456733703613 C16.815275192260742 6.330456733703613 18.975351333618164 6.330456733703613 21.35523223876953 6.330456733703613 C21.35523223876953 12.470911026000977 21.35523223876953 18.48618507385254 21.35523223876953 24.49401092529297 C16.95907974243164 25.72716522216797 15.800433158874512 25.496925354003906 14.59857177734375 23.188575744628906 C13.547221183776855 23.817447662353516 12.558460235595703 24.61322784423828 11.430363655090332 25.04538917541504 C7.525240421295166 26.543807983398438 3.954671859741211 24.459733963012695 3.7348642349243164 20.323627471923828 C3.4919586181640625 15.766530990600586 3.678980827331543 11.186339378356934 3.678980827331543 6.3714375495910645 C6.001490116119385 6.3714375495910645 8.155603408813477 6.3714375495910645 10.481837272644043 6.3714375495910645 C11.247065544128418 10.966531753540039 10.011672973632812 15.700963020324707 11.287302017211914 20.12542724609375 C14.14777946472168 20.164173126220703 14.333312034606934 18.577831268310547 14.337038040161133 16.867061614990234 C14.343744277954102 13.422415733337402 14.339273452758789 9.977770805358887 14.339273452758789 6.330456733703613"></path></svg>