<svg xmlns="http://www.w3.org/2000/svg" viewBox="0.0 0.0 24.0 24.0" height="200px" width="200px"><path fill="none" stroke="black" stroke-width=".3" stroke-opacity="1.0"  filling="0" d="M8.194707870483398 3.352283477783203 C11.626006126403809 4.812562465667725 15.197345733642578 3.536259651184082 18.66763687133789 4.238116264343262 C17.116191864013672 7.7506937980651855 15.562553405761719 11.125425338745117 14.137422561645508 14.553977966308594 C13.369664192199707 16.400882720947266 12.847939491271973 18.348834991455078 12.163656234741211 20.23253631591797 C11.919819831848145 20.904186248779297 11.64907169342041 21.655467987060547 11.154807090759277 22.118431091308594 C10.781362533569336 22.46826171875 9.905414581298828 22.67694854736328 9.487485885620117 22.471553802490234 C9.070655822753906 22.266708374023438 8.620325088500977 21.365501403808594 8.751580238342285 20.94866943359375 C9.186532974243164 19.57296371459961 9.781847953796387 18.224170684814453 10.489195823669434 16.962697982788086 C12.310837745666504 13.713727951049805 14.225290298461914 10.516382217407227 16.102397918701172 7.2987165451049805 C16.014530181884766 7.102657318115234 15.926661491394043 6.906599044799805 15.83879280090332 6.710540294647217 C12.845743179321289 7.287731647491455 9.518789291381836 5.477623462677002 6.518050670623779 8.113154411315918 C7.076021671295166 6.5293097496032715 7.633442401885986 4.945465087890625 8.194707870483398 3.352283477783203"></path></svg>