<svg xmlns="http://www.w3.org/2000/svg" viewBox="0.0 0.0 24.0 24.0" height="200px" width="200px"><path fill="none" stroke="black" stroke-width=".3" stroke-opacity="1.0"  filling="0" d="M14.238726615905762 6.776883125305176 L14.238726615905762 6.776883125305176 C14.238726615905762 8.181981086730957 14.238726615905762 9.587079048156738 14.238726615905762 10.992176055908203 C14.238726615905762 12.397274017333984 14.238726615905762 13.802371978759766 14.238726615905762 15.207469940185547 L14.238726615905762 15.207469940185547 C15.069565773010254 15.288423538208008 15.900400161743164 15.369426727294922 16.731229782104492 15.450486183166504 L16.731229782104492 15.450486183166504 C16.731229782104492 16.159284591674805 16.731229782104492 16.868083953857422 16.731229782104492 17.576881408691406 L16.731229782104492 17.576881408691406 C15.395904541015625 17.576751708984375 14.060578346252441 17.576671600341797 12.725253105163574 17.57662582397461 C11.389927864074707 17.576580047607422 10.054601669311523 17.576566696166992 8.719276428222656 17.57656478881836 L8.719276428222656 17.57656478881836 C8.719276428222656 17.54294776916504 8.719276428222656 15.456754684448242 8.719276428222656 15.453651428222656 L8.719276428222656 15.453651428222656 C8.968587875366211 15.43334674835205 10.932863235473633 15.273482322692871 11.145328521728516 15.256200790405273 L11.145328521728516 15.256200790405273 C11.145328521728516 13.664989471435547 11.145328521728516 12.07378101348877 11.145328521728516 10.482569694519043 L11.145328521728516 10.482569694519043 C10.739096641540527 10.589079856872559 9.465625762939453 10.922802925109863 9.079370498657227 11.023978233337402 L9.079370498657227 11.023978233337402 C9.079370498657227 10.317816734313965 9.079370498657227 9.611655235290527 9.079370498657227 8.90549373626709 L9.079370498657227 8.90549373626709 C10.851703643798828 7.74667501449585 12.146467208862305 7.068631172180176 14.238726615905762 6.776883125305176 L14.238726615905762 6.776883125305176"></path></svg>