<svg xmlns="http://www.w3.org/2000/svg" viewBox="0.0 0.0 24.0 24.0" height="200px" width="200px"><path fill="none" stroke="black" stroke-width=".3" stroke-opacity="1.0"  filling="0" d="M13.615301132202148 7.0043559074401855 L13.615301132202148 7.0043559074401855 C14.49251651763916 7.0043559074401855 15.369732856750488 7.0043559074401855 16.2469482421875 7.0043559074401855 L16.2469482421875 7.0043559074401855 C16.2469482421875 8.739336967468262 16.2469482421875 10.474318504333496 16.2469482421875 12.209300994873047 C16.2469482421875 13.944282531738281 16.2469482421875 15.679264068603516 16.2469482421875 17.41424560546875 L16.2469482421875 17.41424560546875 C15.488655090332031 17.41424560546875 14.730360984802246 17.41424560546875 13.972067832946777 17.41424560546875 L13.972067832946777 17.41424560546875 C13.895379066467285 17.134065628051758 13.81869125366211 16.8538875579834 13.742002487182617 16.573707580566406 L13.742002487182617 16.573707580566406 C13.655614852905273 16.500858306884766 13.56922721862793 16.428009033203125 13.482839584350586 16.355159759521484 L13.482839584350586 16.355159759521484 C12.316157341003418 18.632333755493164 9.615898132324219 17.925567626953125 8.50204849243164 15.984752655029297 C7.808666229248047 14.776576042175293 7.7012810707092285 12.752152442932129 8.2422456741333 11.161349296569824 C8.783209800720215 9.570545196533203 9.972522735595703 8.413361549377441 11.872539520263672 8.93966293334961 C12.49748420715332 9.112771987915039 13.034380912780762 9.516042709350586 13.615301132202148 9.804232597351074 L13.615301132202148 9.804232597351074 C13.615301132202148 8.870940208435059 13.615301132202148 7.937647819519043 13.615301132202148 7.0043559074401855 L13.615301132202148 7.0043559074401855"></path>
<path fill="none" stroke="black" stroke-width=".3" stroke-opacity="1.0"  filling="0" d="M12.185203552246094 11.448633193969727 L12.185203552246094 11.448633193969727 C12.56955337524414 11.604964256286621 13.057927131652832 11.611717224121094 13.33825397491455 11.917627334594727 C14.313337326049805 12.98169994354248 13.815345764160156 15.299123764038086 12.185203552246094 15.406712532043457 C10.47234058380127 15.519761085510254 10.385351181030273 12.991168975830078 11.069246292114258 12.04921817779541 C11.317435264587402 11.707379341125488 11.813218116760254 11.648828506469727 12.185203552246094 11.448633193969727 L12.185203552246094 11.448633193969727"></path></svg>