<svg xmlns="http://www.w3.org/2000/svg" viewBox="0.0 0.0 24.0 24.0" height="200px" width="200px"><path fill="none" stroke="black" stroke-width=".3" stroke-opacity="1.0"  filling="0" d="M7.234568119049072 3.1634292602539062 C10.805052757263184 3.1634292602539062 14.38667106628418 2.976527214050293 17.936649322509766 3.2325658798217773 C20.100971221923828 3.3890018463134766 21.768447875976562 4.788135528564453 22.124675750732422 7.113579273223877 C22.54300880432129 9.847982406616211 21.022594451904297 11.507257461547852 18.89166831970215 12.489229202270508 C19.646896362304688 13.780556678771973 20.768314361572266 14.98048210144043 21.067123413085938 16.358524322509766 C21.6782169342041 19.173782348632812 19.440658569335938 21.958572387695312 16.267414093017578 22.16422462463379 C12.302033424377441 22.421436309814453 8.307939529418945 22.226329803466797 3.9939451217651367 22.226329803466797 C5.105987548828125 15.682393074035645 6.149477958679199 9.546243667602539 7.234568119049072 3.1634292602539062"></path>
<path fill="none" stroke="black" stroke-width=".3" stroke-opacity="1.0"  filling="0" d="M12.371755599975586 6.883906841278076 C13.704095840454102 7.242478370666504 14.958510398864746 7.492072105407715 16.121524810791016 7.966652870178223 C16.352956771850586 8.061569213867188 16.477169036865234 9.17068099975586 16.235774993896484 9.543900489807129 C15.167092323303223 11.195556640625 13.493170738220215 10.394628524780273 11.58957576751709 10.687580108642578 C11.887800216674805 9.236886978149414 12.080560684204102 8.300616264343262 12.371755599975586 6.883906841278076"></path>
<path fill="none" stroke="black" stroke-width=".3" stroke-opacity="1.0"  filling="0" d="M11.015976905822754 14.842796325683594 C12.256330490112305 14.842796325683594 13.34727954864502 14.686360359191895 14.353858947753906 14.909588813781738 C14.843672752380371 15.017980575561523 15.488751411437988 15.832969665527344 15.492266654968262 16.332157135009766 C15.495782852172852 16.81494140625 14.845430374145508 17.590675354003906 14.342142105102539 17.729534149169922 C13.256465911865234 18.028928756713867 12.081148147583008 18.003149032592773 10.37675952911377 18.163686752319336 C10.6544771194458 16.721195220947266 10.831418991088867 15.800745010375977 11.015976905822754 14.842796325683594"></path></svg>