<svg xmlns="http://www.w3.org/2000/svg" viewBox="0.0 0.0 24.0 24.0" height="200px" width="200px"><path fill="none" stroke="black" stroke-width=".3" stroke-opacity="1.0"  filling="0" d="M14.618499755859375 7.170257091522217 L14.618499755859375 7.170257091522217 C15.644533157348633 7.170257091522217 16.67056655883789 7.170257091522217 17.69659996032715 7.170257091522217 L17.69659996032715 7.170257091522217 C17.402191162109375 8.917913436889648 17.107833862304688 10.66557788848877 16.81346321105957 12.413240432739258 C16.519092559814453 14.16090202331543 16.22471046447754 15.908562660217285 15.930255889892578 17.656211853027344 L15.930255889892578 17.656211853027344 C14.902176856994629 17.656211853027344 13.874096870422363 17.656211853027344 12.846017837524414 17.656211853027344 L12.846017837524414 17.656211853027344 C13.051192283630371 16.299551010131836 13.256343841552734 14.942882537841797 13.461508750915527 13.586220741271973 L13.461508750915527 13.586220741271973 C12.554697036743164 13.586220741271973 11.647884368896484 13.586220741271973 10.741072654724121 13.586220741271973 L10.741072654724121 13.586220741271973 C10.487176895141602 14.929410934448242 10.233344078063965 16.27261734008789 9.979544639587402 17.615825653076172 L9.979544639587402 17.615825653076172 C9.152559280395508 17.61566925048828 7.710186958312988 17.615524291992188 6.896598815917969 17.615503311157227 L6.896598815917969 17.615503311157227 C7.190784454345703 15.87743091583252 7.484945774078369 14.139354705810547 7.779111862182617 12.401278495788574 C8.073277473449707 10.663202285766602 8.367447853088379 8.925127029418945 8.661651611328125 7.187057971954346 L8.661651611328125 7.187057971954346 C9.691776275634766 7.187057971954346 10.721901893615723 7.187057971954346 11.752026557922363 7.187057971954346 L11.752026557922363 7.187057971954346 C11.561203002929688 8.406608581542969 11.37047290802002 9.626173973083496 11.179830551147461 10.845752716064453 L11.179830551147461 10.845752716064453 C12.089765548706055 10.845752716064453 12.999701499938965 10.845752716064453 13.909636497497559 10.845752716064453 L13.909636497497559 10.845752716064453 C14.145846366882324 9.620572090148926 14.382137298583984 8.395407676696777 14.618499755859375 7.170257091522217 L14.618499755859375 7.170257091522217"></path></svg>