<svg xmlns="http://www.w3.org/2000/svg" viewBox="0.0 0.0 24.0 24.0" height="200px" width="200px"><path fill="none" stroke="black" stroke-width=".3" stroke-opacity="1.0"  filling="0" d="M12.374702453613281 6.983819007873535 L12.374702453613281 6.983819007873535 C13.438092231750488 6.983819007873535 14.501481056213379 6.983819007873535 15.564870834350586 6.983819007873535 L15.564870834350586 6.983819007873535 C15.155829429626465 9.255064964294434 14.767877578735352 11.53080940246582 14.326765060424805 13.79613971710205 C14.128096580505371 14.816399574279785 14.052911758422852 16.028715133666992 13.225178718566895 16.818836212158203 C11.797652244567871 18.181495666503906 9.756425857543945 17.731185913085938 8.081377983093262 17.41631317138672 L8.081377983093262 17.41631317138672 C8.178399085998535 16.77576446533203 8.275419235229492 16.13521385192871 8.372440338134766 15.494664192199707 L8.372440338134766 15.494664192199707 C8.983041763305664 15.074280738830566 9.866310119628906 15.309592247009277 10.541484832763672 15.003495216369629 C11.3081636428833 14.655913352966309 11.319534301757812 13.20886516571045 11.413558006286621 12.674880981445312 C11.74731159210205 10.77941608428955 12.066678047180176 8.88373851776123 12.374702453613281 6.983819007873535 L12.374702453613281 6.983819007873535"></path></svg>