<svg xmlns="http://www.w3.org/2000/svg" viewBox="0.0 0.0 24.0 24.0" height="200px" width="200px"><path fill="none" stroke="black" stroke-width=".3" stroke-opacity="1.0"  filling="0" d="M14.609762191772461 5.069530963897705 C16.870946884155273 5.069530963897705 19.04544448852539 5.069530963897705 21.6091251373291 5.069530963897705 C20.143184661865234 5.741134166717529 19.936960220336914 6.712951183319092 19.97574234008789 7.94300651550293 C20.073837280273438 11.053277015686035 20.06745147705078 14.169477462768555 19.998098373413086 17.28066062927246 C19.972549438476562 18.430871963500977 20.096649169921875 19.350677490234375 21.29568099975586 19.87673568725586 C18.700063705444336 19.87673568725586 16.10444450378418 19.87673568725586 13.508828163146973 19.87673568725586 C13.490577697753906 19.78959083557129 13.47232723236084 19.70199203491211 13.454076766967773 19.61484718322754 C13.89299201965332 19.435083389282227 14.33190631866455 19.25577735900879 14.887165069580078 19.028560638427734 C14.887165069580078 15.32105827331543 14.887165069580078 11.569753646850586 14.887165069580078 7.8184494972229 C14.767170906066895 7.781949043273926 14.64763355255127 7.744993209838867 14.52763843536377 7.708492755889893 C13.113714218139648 11.83392333984375 11.699789047241211 15.959810256958008 10.286319732666016 20.085243225097656 C10.061843872070312 20.08570098876953 9.83691120147705 20.08615493774414 9.612435340881348 20.086612701416016 C7.6774678230285645 16.16603660583496 6.941076755523682 11.770960807800293 4.865585803985596 7.79198694229126 C4.865585803985596 11.12901496887207 4.785742282867432 14.469691276550293 4.9317426681518555 17.80033302307129 C4.961855411529541 18.48379898071289 5.837403297424316 19.12939453125 6.427337169647217 19.934223175048828 C5.155306339263916 19.934223175048828 3.881450653076172 19.934223175048828 2.6075944900512695 19.934223175048828 C4.374659061431885 19.11798667907715 4.177557945251465 17.58041763305664 4.167520999908447 16.086650848388672 C4.144251823425293 12.748252868652344 4.160221099853516 9.409400939941406 4.160221099853516 6.080129623413086 C3.649674415588379 5.786758899688721 3.22353458404541 5.541751861572266 2.409125328063965 5.07363748550415 C5.09325647354126 5.07363748550415 7.317941188812256 5.07363748550415 9.622014999389648 5.07363748550415 C10.401748657226562 7.349878311157227 11.180571556091309 9.624751091003418 12.123188018798828 12.377320289611816 C13.052574157714844 9.645283699035645 13.817708969116211 7.396872520446777 14.609762191772461 5.069530963897705"></path></svg>