<svg xmlns="http://www.w3.org/2000/svg" viewBox="0.0 0.0 24.0 24.0" height="200px" width="200px"><path fill="none" stroke="black" stroke-width=".3" stroke-opacity="1.0"  filling="0" d="M9.496509552001953 7.0249924659729 L9.496509552001953 7.0249924659729 C9.533794403076172 7.0249924659729 12.549247741699219 7.0249924659729 12.557385444641113 7.0249924659729 L12.557385444641113 7.0249924659729 C12.520421028137207 7.28060245513916 12.163080215454102 9.750475883483887 12.126730918884277 10.001604080200195 L12.126730918884277 10.001604080200195 C12.847696304321289 9.84788703918457 13.473455429077148 9.298495292663574 14.209518432617188 9.25811767578125 C16.30289649963379 9.143282890319824 16.767637252807617 10.75219440460205 16.66753578186035 12.655760765075684 C16.567434310913086 14.559326171875 15.902490615844727 16.757545471191406 15.73650074005127 17.821327209472656 L15.73650074005127 17.821327209472656 C15.019399642944336 17.821191787719727 13.409500122070312 17.821016311645508 12.686615943908691 17.820995330810547 L12.686615943908691 17.820995330810547 C12.96822452545166 15.841909408569336 13.249948501586914 13.862839698791504 13.531604766845703 11.883759498596191 L13.531604766845703 11.883759498596191 C13.050129890441895 11.874947547912598 12.506667137145996 11.620835304260254 12.087180137634277 11.857322692871094 C11.726398468017578 12.060714721679688 11.688437461853027 12.590598106384277 11.572509765625 12.98820686340332 C11.127692222595215 14.513846397399902 11.024255752563477 16.257156372070312 10.773151397705078 17.824993133544922 L10.773151397705078 17.824993133544922 C10.673755645751953 17.824993133544922 7.718888759613037 17.824993133544922 7.683297634124756 17.824993133544922 L7.683297634124756 17.824993133544922 C7.985442161560059 16.02498435974121 8.287615776062012 14.22497844696045 8.589818000793457 12.424978256225586 C8.892020225524902 10.624978065490723 9.19425106048584 8.824982643127441 9.496509552001953 7.0249924659729 L9.496509552001953 7.0249924659729"></path></svg>