<svg xmlns="http://www.w3.org/2000/svg" viewBox="0.0 0.0 24.0 24.0" height="200px" width="200px"><path fill="none" stroke="black" stroke-width=".3" stroke-opacity="1.0"  filling="0" d="M10.879693031311035 3.255434036254883 C10.879693031311035 7.196541786193848 10.879693031311035 11.197022438049316 10.879693031311035 15.95033073425293 C12.764068603515625 14.391641616821289 14.152132034301758 13.243377685546875 15.769041061401367 11.905464172363281 C14.80235481262207 11.535390853881836 14.209775924682617 11.30885124206543 13.616621971130371 11.081734657287598 C13.620656967163086 10.967599868774414 13.625268936157227 10.852888107299805 13.629302978515625 10.738753318786621 C15.580546379089355 10.738753318786621 17.531789779663086 10.738753318786621 19.64328384399414 10.738753318786621 C18.242538452148438 11.60456371307373 16.940940856933594 12.4098482131958 15.500421524047852 13.300444602966309 C17.596349716186523 16.48699378967285 18.77286148071289 19.829181671142578 21.425628662109375 22.45543670654297 C18.74692153930664 22.45543670654297 16.19214630126953 22.45543670654297 14.05183219909668 22.45543670654297 C13.214844703674316 20.65522003173828 12.439535140991211 18.98873519897461 11.664225578308105 17.322830200195312 C11.403099060058594 17.40237808227539 11.141396522521973 17.48192596435547 10.880270004272461 17.56089973449707 C11.077411651611328 19.129962921142578 11.273977279663086 20.69902801513672 11.487259864807129 22.400096893310547 C9.221857070922852 22.400096893310547 6.614050388336182 22.400096893310547 4.38035249710083 22.400096893310547 C4.685865879058838 21.419574737548828 5.265185356140137 20.384292602539062 5.290548801422119 19.335174560546875 C5.394307613372803 15.12141227722168 5.3845086097717285 10.901885986328125 5.279019832611084 6.688122749328613 C5.254809379577637 5.730082988739014 4.680100917816162 4.785877227783203 4.30887508392334 3.688915252685547 C6.20362663269043 3.563828468322754 8.433289527893066 3.416836738586426 10.879693031311035 3.255434036254883"></path></svg>