<svg xmlns="http://www.w3.org/2000/svg" viewBox="0.0 0.0 24.0 24.0" height="200px" width="200px"><path fill="none" stroke="black" stroke-width=".3" stroke-opacity="1.0"  filling="0" d="M17.140743255615234 4.1227850914001465 C20.06139373779297 6.016937255859375 20.458782196044922 10.417839050292969 17.692989349365234 13.015680313110352 C16.353931427001953 14.273324966430664 14.527528762817383 15.023698806762695 12.891282081604004 15.949424743652344 C12.20239543914795 16.339412689208984 11.434942245483398 16.5893497467041 10.795018196105957 17.298160552978516 C13.276716232299805 17.298160552978516 15.758415222167969 17.298160552978516 18.215633392333984 17.298160552978516 C18.631811141967773 16.39577865600586 18.96942138671875 15.661913871765137 19.307601928710938 14.928620338439941 C19.43342399597168 14.95822525024414 19.559246063232422 14.98783016204834 19.685068130493164 15.017435073852539 C19.54842758178711 17.343708038330078 19.41179084777832 19.669979095458984 19.266042709350586 22.155094146728516 C14.523544311523438 22.154525756835938 10.025287628173828 22.154525756835938 5.4712371826171875 22.154525756835938 C4.837575435638428 20.059402465820312 5.551512241363525 18.91448402404785 7.082433223724365 17.846426010131836 C8.932178497314453 16.55575942993164 10.680583000183105 15.04931926727295 12.214351654052734 13.39599323272705 C14.02765941619873 11.440922737121582 14.582185745239258 8.973457336425781 13.232309341430664 6.572603225708008 C12.730731964111328 5.679897785186768 11.427541732788086 4.979055881500244 10.363469123840332 4.730259418487549 C9.16161823272705 4.449009418487549 7.9944963455200195 5.033139705657959 7.486656188964844 6.615300178527832 C7.961475372314453 6.755354881286621 8.284852981567383 6.877191543579102 8.618478775024414 6.94494104385376 C10.768259048461914 7.380476951599121 11.551653861999512 8.167287826538086 11.40419864654541 9.76197338104248 C11.251049995422363 11.4164400100708 9.943873405456543 12.593238830566406 8.360004425048828 12.503286361694336 C6.681057453155518 12.407639503479004 5.422843933105469 11.120389938354492 5.330612659454346 9.325300216674805 C5.2184553146362305 7.143636703491211 6.239828586578369 5.476076602935791 7.933008670806885 4.240635395050049 C10.24732494354248 2.5520105361938477 14.702312469482422 2.541762351989746 17.140743255615234 4.1227850914001465"></path></svg>