<svg xmlns="http://www.w3.org/2000/svg" viewBox="0.0 0.0 24.0 24.0" height="200px" width="200px"><path fill="none" stroke="black" stroke-width=".3" stroke-opacity="1.0"  filling="0" d="M12.79604434967041 6.915951728820801 L12.79604434967041 6.915951728820801 C14.71122932434082 6.974454879760742 17.449325561523438 8.085822105407715 16.31763458251953 10.5969820022583 C16.08004379272461 11.12418270111084 15.51524543762207 11.429887771606445 15.11405086517334 11.84634017944336 L15.11405086517334 11.84634017944336 C15.33521556854248 12.198068618774414 16.10063362121582 13.333992958068848 16.181196212768555 13.777806282043457 C16.485816955566406 15.455936431884766 15.573873519897461 16.59303855895996 14.27379035949707 17.196489334106445 C12.97370719909668 17.799938201904297 11.285486221313477 17.869735717773438 10.037553787231445 17.41325569152832 C8.55387020111084 16.870540618896484 7.340972423553467 15.505475044250488 8.129244804382324 13.805780410766602 C8.42951774597168 13.158324241638184 9.15359115600586 12.705788612365723 9.731466293334961 12.305008888244629 L9.731466293334961 12.305008888244629 C9.453751564025879 11.604671478271484 8.9603271484375 10.954832077026367 8.898322105407715 10.203997611999512 C8.699929237365723 7.8016157150268555 11.085400581359863 7.269122123718262 12.79604434967041 6.915951728820801 L12.79604434967041 6.915951728820801"></path>
<path fill="none" stroke="black" stroke-width=".3" stroke-opacity="1.0"  filling="0" d="M13.28399658203125 9.126380920410156 L13.28399658203125 9.126380920410156 C14.642413139343262 10.893768310546875 12.811975479125977 11.29418659210205 11.690983772277832 9.936450004577637 L11.690983772277832 9.936450004577637 C12.057811737060547 9.467072486877441 12.688472747802734 9.111241340637207 13.28399658203125 9.126380920410156 L13.28399658203125 9.126380920410156"></path>
<path fill="none" stroke="black" stroke-width=".3" stroke-opacity="1.0"  filling="0" d="M11.56891918182373 13.422399520874023 L11.56891918182373 13.422399520874023 C11.916171073913574 13.532057762145996 12.317170143127441 13.535819053649902 12.610673904418945 13.751374244689941 C15.017777442932129 15.519203186035156 10.074551582336426 16.300064086914062 10.594862937927246 14.54780387878418 C10.736088752746582 14.072196960449219 11.244234085083008 13.797533988952637 11.56891918182373 13.422399520874023 L11.56891918182373 13.422399520874023"></path></svg>