<svg xmlns="http://www.w3.org/2000/svg" viewBox="0.0 0.0 24.0 24.0" height="200px" width="200px"><path fill="none" stroke="black" stroke-width=".3" stroke-opacity="1.0"  filling="0" d="M9.649770736694336 2.8160104751586914 C11.70081901550293 2.598525047302246 13.860052108764648 2.744072914123535 15.886563301086426 3.1533899307250977 C17.621421813964844 3.503596305847168 18.70438575744629 4.970782279968262 18.930233001708984 6.759175777435303 C19.15441131591797 8.53195571899414 18.104907989501953 9.71027660369873 16.646085739135742 10.562929153442383 C16.342166900634766 10.740819931030273 16.04995346069336 10.938786506652832 15.453824043273926 11.316875457763672 C16.267438888549805 11.765229225158691 16.89145278930664 12.057438850402832 17.46249008178711 12.432182312011719 C20.19554901123047 14.226152420043945 20.493892669677734 17.488981246948242 18.153423309326172 19.794876098632812 C15.322774887084961 22.583702087402344 9.244356155395508 22.62942886352539 6.394747257232666 19.883543014526367 C4.081601619720459 17.6540470123291 4.336449146270752 14.286378860473633 6.970245838165283 12.500772476196289 C7.501132011413574 12.14220142364502 8.085553169250488 11.862817764282227 8.807156562805176 11.45517349243164 C8.570711135864258 11.125600814819336 8.501562118530273 10.924844741821289 8.365495681762695 10.855695724487305 C6.586023807525635 9.94727897644043 5.286134243011475 8.712077140808105 5.662550449371338 6.510462284088135 C6.040638446807861 4.300482749938965 7.617681980133057 3.0318222045898438 9.649770736694336 2.8160104751586914"></path>
<path fill="none" stroke="black" stroke-width=".3" stroke-opacity="1.0"  filling="0" d="M13.52155590057373 3.950833320617676 C13.52155590057373 5.653906345367432 13.592935562133789 7.5571770668029785 13.469694137573242 9.44762134552002 C13.440138816833496 9.907685279846191 12.622061729431152 10.751972198486328 12.419633865356445 10.682265281677246 C11.842462539672852 10.484298706054688 11.024385452270508 9.951739311218262 10.9652738571167 9.469369888305664 C10.777345657348633 7.933592796325684 10.762845993041992 6.347627639770508 10.928468704223633 4.807388782501221 C11.06286334991455 3.5582456588745117 11.918303489685059 3.126622200012207 13.52155590057373 3.950833320617676"></path>
<path fill="none" stroke="black" stroke-width=".3" stroke-opacity="1.0"  filling="0" d="M12.309218406677246 12.025094985961914 C12.707383155822754 11.962636947631836 13.603532791137695 12.656357765197754 13.633087158203125 13.059540748596191 C13.793691635131836 15.240522384643555 13.840534210205078 17.442138671875 13.708928108215332 19.623119354248047 C13.682718276977539 20.064781188964844 12.600871086120605 20.872262954711914 12.213859558105469 20.76407814025879 C11.602113723754883 20.592876434326172 10.88664436340332 19.86513900756836 10.72102165222168 19.239452362060547 C10.470636367797852 18.29367446899414 10.655776977539062 17.233016967773438 10.655776977539062 16.220874786376953 C10.61729907989502 16.220317840576172 10.579378128051758 16.21920394897461 10.540899276733398 16.218088150024414 C10.6016845703125 15.20873737335205 10.49628734588623 14.14752197265625 10.787940979003906 13.210664749145508 C10.952447891235352 12.68200969696045 11.733720779418945 12.115434646606445 12.309218406677246 12.025094985961914"></path></svg>