<svg xmlns="http://www.w3.org/2000/svg" viewBox="0.0 0.0 24.0 24.0" height="200px" width="200px"><path fill="none" stroke="black" stroke-width=".3" stroke-opacity="1.0"  filling="0" d="M10.028972625732422 7.6412577629089355 L10.028972625732422 7.6412577629089355 C12.500457763671875 7.6412577629089355 14.971939086914062 7.6412577629089355 17.443424224853516 7.6412577629089355 L17.443424224853516 7.6412577629089355 C17.490419387817383 8.00289535522461 17.70602035522461 9.662908554077148 17.750782012939453 10.007722854614258 L17.750782012939453 10.007722854614258 C17.66855239868164 10.035543441772461 17.58632469177246 10.063363075256348 17.50409507751465 10.09118366241455 L17.50409507751465 10.09118366241455 C16.02518081665039 8.093132019042969 15.108586311340332 8.072563171386719 12.650439262390137 8.188834190368652 L12.650439262390137 8.188834190368652 C12.536285400390625 8.551441192626953 11.553319931030273 11.674443244934082 11.455812454223633 11.984293937683105 L11.455812454223633 11.984293937683105 C13.526341438293457 12.221579551696777 13.962767601013184 12.133058547973633 15.139785766601562 10.384681701660156 L15.139785766601562 10.384681701660156 C15.249218940734863 10.486620903015137 15.358652114868164 10.5885591506958 15.468085289001465 10.690498352050781 L15.468085289001465 10.690498352050781 C15.154688835144043 11.9835786819458 14.841275215148926 13.276655197143555 14.527843475341797 14.569726943969727 L14.527843475341797 14.569726943969727 C13.589629173278809 12.6524658203125 13.370321273803711 12.783172607421875 11.200502395629883 12.822903633117676 L11.200502395629883 12.822903633117676 C10.788864135742188 14.219464302062988 10.377169609069824 15.616008758544922 9.965530395507812 17.012569427490234 L9.965530395507812 17.012569427490234 C10.356451034545898 17.196224212646484 10.747370719909668 17.379878997802734 11.138291358947754 17.563533782958984 L11.138291358947754 17.563533782958984 C11.122790336608887 17.660442352294922 11.107288360595703 17.75735092163086 11.091787338256836 17.854259490966797 L11.091787338256836 17.854259490966797 C9.711450576782227 17.854259490966797 8.331117630004883 17.854259490966797 6.950781345367432 17.854259490966797 L6.950781345367432 17.854259490966797 C7.953351974487305 17.04148292541504 8.530688285827637 15.947298049926758 8.949387550354004 14.755428314208984 C9.368085861206055 13.563558578491211 9.62814712524414 12.274005889892578 9.996167182922363 11.070491790771484 C10.474470138549805 9.506327629089355 11.040377616882324 8.905590057373047 10.028972625732422 7.6412577629089355 L10.028972625732422 7.6412577629089355"></path></svg>