<svg xmlns="http://www.w3.org/2000/svg" viewBox="0.0 0.0 24.0 24.0" height="200px" width="200px"><path fill="none" stroke="black" stroke-width=".3" stroke-opacity="1.0"  filling="0" d="M4.824066162109375 3.216315269470215 C8.845219612121582 3.216315269470215 12.415562629699707 3.216315269470215 15.985905647277832 3.216315269470215 C15.998346328735352 3.3484182357788086 16.011377334594727 3.4805221557617188 16.02381706237793 3.612031936645508 C15.207501411437988 3.776124954223633 14.391778945922852 3.940810203552246 13.32251262664795 4.155848026275635 C12.103370666503906 9.797784805297852 10.86408805847168 15.52917194366455 9.593999862670898 21.405696868896484 C14.570089340209961 22.22675323486328 17.630382537841797 19.911685943603516 19.718563079833984 15.683786392211914 C19.922937393188477 15.88105297088623 20.127906799316406 16.077728271484375 20.33228302001953 16.274991989135742 C19.778987884521484 18.296825408935547 19.225692749023438 20.318063735961914 18.651073455810547 22.415721893310547 C12.782252311706543 22.416316986083984 7.084039211273193 22.416316986083984 1.4290704727172852 22.416316986083984 C2.1434946060180664 21.52239990234375 3.0836191177368164 20.85418128967285 3.28621768951416 20.009429931640625 C4.524908542633057 14.849700927734375 5.5965447425842285 9.650280952453613 6.7363057136535645 4.4070234298706055 C6.171756744384766 4.054549217224121 5.710283279418945 3.767831802368164 4.824066162109375 3.216315269470215"></path></svg>