<svg xmlns="http://www.w3.org/2000/svg" viewBox="0.0 0.0 24.0 24.0" height="200px" width="200px"><path fill="none" stroke="black" stroke-width=".3" stroke-opacity="1.0"  filling="0" d="M13.226603507995605 6.8529863357543945 L13.226603507995605 6.8529863357543945 C14.796411514282227 7.181344032287598 15.599574089050293 7.043915748596191 16.66153335571289 8.390920639038086 C18.130664825439453 10.254388809204102 17.68340301513672 12.486766815185547 16.377330780029297 14.233073234558105 C15.071260452270508 15.97938060760498 12.90638256072998 17.2396183013916 10.940286636352539 17.1588077545166 C9.080924987792969 17.082386016845703 7.787285804748535 16.171428680419922 7.164970397949219 14.889552116394043 C6.542654991149902 13.60767650604248 6.591662406921387 11.95488166809082 7.4175920486450195 10.394783020019531 C8.660541534423828 8.046975135803223 10.756266593933105 7.205447673797607 13.226603507995605 6.8529863357543945 L13.226603507995605 6.8529863357543945"></path>
<path fill="none" stroke="black" stroke-width=".3" stroke-opacity="1.0"  filling="0" d="M12.078727722167969 7.707480430603027 L12.078727722167969 7.707480430603027 C12.609260559082031 7.632808208465576 13.189669609069824 7.246796607971191 13.67032527923584 7.483463287353516 C14.108274459838867 7.699102401733398 14.247444152832031 8.318659782409668 14.304598808288574 8.803462028503418 C14.475634574890137 10.254231452941895 13.59822940826416 12.41562557220459 13.265630722045898 13.820462226867676 C13.112533569335938 14.467119216918945 13.208224296569824 15.27751636505127 12.732423782348633 15.741433143615723 C12.453612327575684 16.013280868530273 12.201177597045898 16.349685668945312 11.84004020690918 16.495344161987305 C9.143575668334961 17.58291244506836 9.852359771728516 13.909344673156738 10.120454788208008 12.796527862548828 C10.27627944946289 12.149726867675781 10.427486419677734 11.501765251159668 10.591209411621094 10.856918334960938 C10.876920700073242 9.731603622436523 11.353792190551758 8.614360809326172 12.078727722167969 7.707480430603027 L12.078727722167969 7.707480430603027"></path></svg>