<svg xmlns="http://www.w3.org/2000/svg" viewBox="0.0 0.0 24.0 24.0" height="200px" width="200px"><path fill="none" stroke="black" stroke-width=".3" stroke-opacity="1.0"  filling="0" d="M20.17978858947754 4.71274995803833 C20.751434326171875 4.939293384552002 21.490625381469727 4.743363857269287 22.545970916748047 4.743363857269287 C22.021081924438477 6.510627746582031 21.480602264404297 8.331883430480957 20.939571380615234 10.153139114379883 C20.738632202148438 10.131431579589844 20.53824806213379 10.109166145324707 20.337310791015625 10.087457656860352 C20.238788604736328 9.511358261108398 20.16086196899414 8.930804252624512 20.038406372070312 8.360271453857422 C19.407756805419922 5.425777912139893 17.088882446289062 4.057053089141846 14.184446334838867 4.950982570648193 C10.434511184692383 6.104296684265137 8.90937614440918 9.157905578613281 8.061089515686035 12.583892822265625 C7.692051410675049 14.074517250061035 7.579057693481445 15.798921585083008 7.960897922515869 17.25670623779297 C8.329936027526855 18.665508270263672 9.21440315246582 20.226821899414062 10.351574897766113 21.08624267578125 C12.647069931030273 22.82010841369629 15.246478080749512 21.591094970703125 15.891042709350586 18.7512264251709 C16.073055267333984 17.952478408813477 16.159889221191406 17.131465911865234 16.317968368530273 16.14736557006836 C15.3989896774292 15.835101127624512 14.823448181152344 15.639727592468262 14.24846076965332 15.443799018859863 C14.257367134094238 15.250653266906738 14.266271591186523 15.05750560760498 14.275178909301758 14.864358901977539 C16.659732818603516 14.527048110961914 19.05764389038086 14.646720886230469 21.61753273010254 15.085893630981445 C19.481786727905273 15.929170608520508 19.139469146728516 17.696990966796875 18.958011627197266 19.524368286132812 C18.798259735107422 21.135223388671875 17.900434494018555 22.010784149169922 16.375858306884766 22.339746475219727 C16.194955825805664 22.378707885742188 16.009601593017578 22.40041732788086 15.830370903015137 22.446060180664062 C11.210436820983887 23.63332748413086 7.397043228149414 22.536231994628906 5.386536121368408 19.438650131225586 C3.4656457901000977 16.480222702026367 3.9871978759765625 11.605914115905762 6.586606502532959 8.225569725036621 C9.949139595031738 3.8522167205810547 14.866308212280273 2.6104021072387695 20.17978858947754 4.71274995803833"></path></svg>