<svg xmlns="http://www.w3.org/2000/svg" viewBox="0.0 0.0 24.0 24.0" height="200px" width="200px"><path fill="none" stroke="black" stroke-width=".3" stroke-opacity="1.0"  filling="0" d="M10.840384483337402 8.749774932861328 L10.840384483337402 8.749774932861328 C12.107646942138672 8.749774932861328 13.374910354614258 8.749774932861328 14.642173767089844 8.749774932861328 L14.642173767089844 8.749774932861328 C14.423663139343262 8.905190467834473 14.20515251159668 9.060606956481934 13.986641883850098 9.216022491455078 L13.986641883850098 9.216022491455078 C14.165446281433105 10.355447769165039 14.34422779083252 11.494877815246582 14.52298641204834 12.634310722351074 L14.52298641204834 12.634310722351074 C14.587010383605957 12.657962799072266 14.65103530883789 12.68161392211914 14.715059280395508 12.705265998840332 L14.715059280395508 12.705265998840332 C14.7778959274292 12.589286804199219 16.487491607666016 9.433619499206543 16.535459518432617 9.345070838928223 L16.535459518432617 9.345070838928223 C16.302085876464844 9.151569366455078 16.06871223449707 8.958067893981934 15.835338592529297 8.764566421508789 L15.835338592529297 8.764566421508789 C16.492013931274414 8.764566421508789 17.148691177368164 8.764566421508789 17.80536651611328 8.764566421508789 L17.80536651611328 8.764566421508789 C16.754247665405273 9.494691848754883 15.960302352905273 10.68156623840332 15.276928901672363 11.963041305541992 C14.593555450439453 13.244515419006348 14.020753860473633 14.620591163635254 13.411925315856934 15.729120254516602 L13.411925315856934 15.729120254516602 C13.11595630645752 15.729120254516602 12.819988250732422 15.729120254516602 12.524019241333008 15.729120254516602 L12.524019241333008 15.729120254516602 C12.287748336791992 14.478499412536621 12.051445960998535 13.227885246276855 11.815109252929688 11.977276802062988 L11.815109252929688 11.977276802062988 C11.749369621276855 11.970060348510742 11.68363094329834 11.96284294128418 11.617891311645508 11.955626487731934 L11.617891311645508 11.955626487731934 C10.642923355102539 13.609905242919922 10.310270309448242 14.940096855163574 8.487282752990723 15.663524627685547 L8.487282752990723 15.663524627685547 C8.08626937866211 13.349637031555176 7.870772361755371 10.942636489868164 7.005367279052734 8.753204345703125 L7.005367279052734 8.753204345703125 C8.087775230407715 8.753204345703125 9.170183181762695 8.753204345703125 10.252591133117676 8.753204345703125 L10.252591133117676 8.753204345703125 C9.978440284729004 10.192913055419922 10.252586364746094 11.389267921447754 10.486250877380371 12.829384803771973 L10.486250877380371 12.829384803771973 C11.737085342407227 11.167946815490723 11.85550308227539 10.573714256286621 10.840384483337402 8.749774932861328 L10.840384483337402 8.749774932861328"></path></svg>