<svg xmlns="http://www.w3.org/2000/svg" viewBox="0.0 0.0 24.0 24.0" height="200px" width="200px"><path fill="none" stroke="black" stroke-width=".3" stroke-opacity="1.0"  filling="0" d="M12.174572944641113 6.7701849937438965 L12.174572944641113 6.7701849937438965 C11.8931884765625 8.207418441772461 11.611680030822754 9.644627571105957 11.330229759216309 11.08184814453125 L11.330229759216309 11.08184814453125 C12.232772827148438 10.692442893981934 12.959092140197754 10.201415061950684 14.008485794067383 10.44178295135498 C16.63994026184082 11.044527053833008 15.755151748657227 14.604537010192871 14.584543228149414 16.051998138427734 C13.021390914916992 17.984840393066406 11.972526550292969 17.283836364746094 9.920659065246582 17.152957916259766 C8.725829124450684 17.076745986938477 7.5244526863098145 17.254169464111328 6.329052448272705 17.187503814697266 L6.329052448272705 17.187503814697266 C7.122927665710449 15.790605545043945 7.792719841003418 14.039770126342773 8.207969665527344 12.237542152404785 C8.62321949005127 10.435315132141113 8.783926963806152 8.581696510314941 8.559633255004883 6.979233264923096 L8.559633255004883 6.979233264923096 C9.764610290527344 6.909497261047363 10.969590187072754 6.839823246002197 12.174572944641113 6.7701849937438965 L12.174572944641113 6.7701849937438965"></path>
<path fill="none" stroke="black" stroke-width=".3" stroke-opacity="1.0"  filling="0" d="M12.207795143127441 11.686114311218262 L12.207795143127441 11.686114311218262 C12.310026168823242 13.66950798034668 12.133401870727539 14.762054443359375 11.239652633666992 16.537479400634766 L11.239652633666992 16.537479400634766 C11.103943824768066 16.554298400878906 10.96823501586914 16.57111930847168 10.832526206970215 16.58793830871582 L10.832526206970215 16.58793830871582 C10.202436447143555 14.557478904724121 10.6493501663208 13.097396850585938 12.207795143127441 11.686114311218262 L12.207795143127441 11.686114311218262"></path></svg>