<svg xmlns="http://www.w3.org/2000/svg" viewBox="0.0 0.0 24.0 24.0" height="200px" width="200px"><path fill="none" stroke="black" stroke-width=".3" stroke-opacity="1.0"  filling="0" d="M14.321433067321777 8.554975509643555 L14.321433067321777 8.554975509643555 C14.774234771728516 8.959776878356934 15.396320343017578 9.232247352600098 15.679839134216309 9.769379615783691 C15.988153457641602 10.353487968444824 15.88995361328125 11.073531150817871 15.995010375976562 11.725606918334961 L15.995010375976562 11.725606918334961 C15.8614501953125 11.786182403564453 15.727889060974121 11.846758842468262 15.594328880310059 11.907334327697754 L15.594328880310059 11.907334327697754 C15.073014259338379 11.00256061553955 14.599833488464355 9.903395652770996 13.548563957214355 9.433979988098145 C12.310011863708496 8.880938529968262 11.270758628845215 9.533740997314453 10.531566619873047 10.487936019897461 C9.814057350158691 11.414142608642578 9.541836738586426 13.044283866882324 9.765621185302734 14.550068855285645 C9.989405632019043 16.05585289001465 10.709196090698242 17.43728256225586 11.975708961486816 17.866060256958008 C14.431595802307129 18.69750213623047 14.576059341430664 15.164416313171387 16.267202377319336 15.532686233520508 L16.267202377319336 15.532686233520508 C15.98320484161377 16.930038452148438 15.052034378051758 18.175277709960938 13.881302833557129 18.749319076538086 C12.7105712890625 19.323360443115234 11.300277709960938 19.226207733154297 10.058032989501953 17.938779830932617 C8.318534851074219 16.136011123657227 8.052641868591309 13.47321891784668 8.887495040893555 11.419538497924805 C9.722349166870117 9.365859031677246 11.657947540283203 7.921291828155518 14.321433067321777 8.554975509643555 L14.321433067321777 8.554975509643555"></path></svg>