<svg xmlns="http://www.w3.org/2000/svg" viewBox="0.0 0.0 24.0 24.0" height="200px" width="200px"><path fill="none" stroke="black" stroke-width=".3" stroke-opacity="1.0"  filling="0" d="M17.9793701171875 9.449941635131836 C20.241153717041016 10.589715957641602 21.020492553710938 12.508087158203125 20.60232925415039 16.355192184448242 C17.12824058532715 16.355192184448242 13.609004020690918 16.355192184448242 9.965431213378906 16.355192184448242 C9.63386058807373 17.569717407226562 9.115041732788086 18.514841079711914 9.19127368927002 19.408897399902344 C9.318572998046875 20.89652442932129 9.403684616088867 23.17237091064453 10.277758598327637 23.623836517333984 C11.524847984313965 24.268474578857422 13.49872875213623 23.71487045288086 15.101812362670898 23.380340576171875 C15.975146293640137 23.197532653808594 16.722660064697266 22.41079330444336 17.900178909301758 22.1843204498291 C17.429468154907227 22.723861694335938 17.054229736328125 23.418827056884766 16.471759796142578 23.776302337646484 C13.748146057128906 25.450439453125 10.741068840026855 25.95075225830078 7.611873149871826 25.466720581054688 C2.6442365646362305 24.697002410888672 0.5267744064331055 21.234752655029297 1.9411296844482422 16.35371208190918 C3.694456100463867 10.307732582092285 12.315288543701172 6.596067905426025 17.9793701171875 9.449941635131836"></path>
<path fill="none" stroke="black" stroke-width=".3" stroke-opacity="1.0"  filling="0" d="M13.591981887817383 10.099020957946777 C10.305142402648926 10.083477973937988 10.895751953125 12.91884994506836 9.901041030883789 14.974142074584961 C14.196654319763184 15.21911907196045 14.783563613891602 14.352448463439941 13.591981887817383 10.099020957946777"></path></svg>