<svg xmlns="http://www.w3.org/2000/svg" viewBox="0.0 0.0 24.0 24.0" height="200px" width="200px"><path fill="none" stroke="black" stroke-width=".3" stroke-opacity="1.0"  filling="0" d="M10.652536392211914 10.284971237182617 C16.060705184936523 8.702316284179688 20.058555603027344 11.870956420898438 20.02109146118164 18.157451629638672 C16.625165939331055 18.157451629638672 13.215089797973633 18.157451629638672 9.817501068115234 18.157451629638672 C9.788362503051758 25.441329956054688 13.585569381713867 27.28290557861328 20.756221771240234 23.29088592529297 C20.19925308227539 24.570497512817383 20.042736053466797 25.545398712158203 19.479106903076172 26.1190185546875 C16.705089569091797 28.942157745361328 13.359950065612793 29.782184600830078 9.583556175231934 28.490087509155273 C6.379116535186768 27.393634796142578 4.4609479904174805 24.367355346679688 4.303598880767822 20.340370178222656 C4.108786106109619 15.380938529968262 6.572266578674316 11.479663848876953 10.652536392211914 10.284971237182617"></path>
<path fill="none" stroke="black" stroke-width=".3" stroke-opacity="1.0"  filling="0" d="M13.00695514678955 11.886775016784668 C15.04833984375 12.080756187438965 14.796913146972656 14.236197471618652 14.532999038696289 16.223466873168945 C12.977816581726074 16.223466873168945 11.428462982177734 16.223466873168945 9.696783065795898 16.223466873168945 C10.20629596710205 14.218714714050293 10.278727531433105 11.628687858581543 13.00695514678955 11.886775016784668"></path></svg>