<svg xmlns="http://www.w3.org/2000/svg" viewBox="0.0 0.0 24.0 24.0" height="200px" width="200px"><path fill="none" stroke="black" stroke-width=".3" stroke-opacity="1.0"  filling="0" d="M11.528853416442871 11.120501518249512 L11.528853416442871 11.120501518249512 C12.024962425231934 11.392735481262207 12.521071434020996 11.664969444274902 13.017180442810059 11.937203407287598 L13.017180442810059 11.937203407287598 C13.341216087341309 11.79251766204834 13.65849494934082 11.631634712219238 13.989288330078125 11.50314712524414 C17.534744262695312 10.126016616821289 15.74791145324707 14.351576805114746 16.024822235107422 16.167903900146484 L16.024822235107422 16.167903900146484 C15.036203384399414 16.167903900146484 14.047585487365723 16.167903900146484 13.058966636657715 16.167903900146484 L13.058966636657715 16.167903900146484 C13.630748748779297 14.853507995605469 13.864392280578613 13.692390441894531 14.082719802856445 12.279472351074219 L14.082719802856445 12.279472351074219 C13.992105484008789 12.21984577178955 13.901491165161133 12.160218238830566 13.810876846313477 12.100591659545898 L13.810876846313477 12.100591659545898 C12.473726272583008 13.255913734436035 12.554945945739746 14.498115539550781 12.533123016357422 16.187389373779297 L12.533123016357422 16.187389373779297 C12.531152725219727 16.187389373779297 9.672808647155762 16.187389373779297 9.660932540893555 16.187389373779297 L9.660932540893555 16.187389373779297 C10.205324172973633 14.84225845336914 10.445356369018555 13.658073425292969 10.628345489501953 12.220314025878906 L10.628345489501953 12.220314025878906 C9.068020820617676 13.42182731628418 9.01889419555664 14.264636039733887 9.104804039001465 16.19748306274414 L9.104804039001465 16.19748306274414 C7.931279182434082 16.19748306274414 6.757753372192383 16.19748306274414 5.584228515625 16.19748306274414 L5.584228515625 16.19748306274414 C6.952519416809082 14.87856674194336 7.456780433654785 13.291583061218262 6.859636306762695 11.455022811889648 L6.859636306762695 11.455022811889648 C7.8149518966674805 11.369547843933105 8.89360237121582 11.300228118896484 9.71727180480957 11.791657447814941 L9.71727180480957 11.791657447814941 C10.32113265991211 11.567938804626465 10.924992561340332 11.344220161437988 11.528853416442871 11.120501518249512 L11.528853416442871 11.120501518249512"></path></svg>