<svg xmlns="http://www.w3.org/2000/svg" viewBox="0.0 0.0 24.0 24.0" height="200px" width="200px"><path fill="none" stroke="black" stroke-width=".3" stroke-opacity="1.0"  filling="0" d="M19.55129623413086 6.763237476348877 C18.986814498901367 7.954554557800293 18.213388442993164 9.066559791564941 17.922943115234375 10.292882919311523 C16.81531524658203 14.975008964538574 15.863574028015137 19.693782806396484 14.819395065307617 24.55805206298828 C15.44732666015625 24.781219482421875 15.82145881652832 24.914134979248047 16.19559097290039 25.04705047607422 C16.17644691467285 25.181060791015625 16.157848358154297 25.31507110595703 16.13870620727539 25.449081420898438 C13.411476135253906 25.449081420898438 10.684247016906738 25.449081420898438 7.846528053283691 25.449081420898438 C10.990553855895996 23.696563720703125 9.630768775939941 20.372583389282227 10.656351089477539 17.77444076538086 C10.12031364440918 17.97517967224121 9.585369110107422 18.179750442504883 9.047690391540527 18.376115798950195 C5.7384772300720215 19.58384132385254 3.1890153884887695 17.856487274169922 3.116814613342285 14.321371078491211 C3.0610227584838867 11.587031364440918 4.2031121253967285 9.359193801879883 6.278891086578369 7.655357837677002 C8.514933586120605 5.820249557495117 10.187044143676758 5.829548358917236 12.5494384765625 7.401013374328613 C14.954497337341309 5.850880146026611 17.471141815185547 7.261534214019775 19.55129623413086 6.763237476348877"></path>
<path fill="none" stroke="black" stroke-width=".3" stroke-opacity="1.0"  filling="0" d="M11.092290878295898 7.85938024520874 C13.47492504119873 9.709257125854492 12.017777442932129 11.736355781555176 11.772184371948242 13.454412460327148 C11.550111770629883 15.007281303405762 11.314363479614258 16.97640037536621 8.665352821350098 17.132287979125977 C8.681761741638184 13.840032577514648 8.903834342956543 10.767660140991211 11.092290878295898 7.85938024520874"></path></svg>