<svg xmlns="http://www.w3.org/2000/svg" viewBox="0.0 0.0 24.0 24.0" height="200px" width="200px"><path fill="none" stroke="black" stroke-width=".3" stroke-opacity="1.0"  filling="0" d="M16.118160247802734 9.095412254333496 L16.118160247802734 9.095412254333496 C16.2791690826416 9.148938179016113 16.440176010131836 9.202465057373047 16.601184844970703 9.255990982055664 L16.601184844970703 9.255990982055664 C16.45720100402832 10.581331253051758 16.0704288482666 11.897315979003906 15.61176586151123 13.196673393249512 C15.153101921081543 14.496030807495117 14.622547149658203 15.77876091003418 14.190997123718262 17.037593841552734 C14.117775917053223 17.251178741455078 13.491680145263672 19.503841400146484 12.967283248901367 19.75275993347168 C12.546751976013184 19.952375411987305 12.037764549255371 19.700162887573242 11.573005676269531 19.673864364624023 L11.573005676269531 19.673864364624023 C10.965782165527344 17.971128463745117 10.358627319335938 16.268367767333984 9.751472473144531 14.5656099319458 C9.144316673278809 12.862850189208984 8.537158966064453 11.1600923538208 7.929927825927734 9.457359313964844 L7.929927825927734 9.457359313964844 C8.092653274536133 9.339859008789062 8.255378723144531 9.222358703613281 8.41810417175293 9.1048583984375 L8.41810417175293 9.1048583984375 C9.512537002563477 10.318598747253418 10.186271667480469 11.847100257873535 10.755149841308594 13.441144943237305 C11.324028968811035 15.03519058227539 11.78805160522461 16.694778442382812 12.463059425354004 18.170692443847656 L12.463059425354004 18.170692443847656 C13.136524200439453 16.668964385986328 13.650580406188965 15.122450828552246 14.196130752563477 13.590215682983398 C14.741680145263672 12.057979583740234 15.318723678588867 10.540023803710938 16.118160247802734 9.095412254333496 L16.118160247802734 9.095412254333496"></path></svg>