<svg xmlns="http://www.w3.org/2000/svg" viewBox="0.0 0.0 24.0 24.0" height="200px" width="200px"><path fill="none" stroke="black" stroke-width=".3" stroke-opacity="1.0"  filling="0" d="M12.882745742797852 2.489044189453125 C15.310022354125977 2.5143280029296875 17.18709373474121 3.9566221237182617 17.761484146118164 5.833694934844971 C18.406230926513672 7.941621780395508 17.70322036743164 9.501543045043945 15.252859115600586 11.368721008300781 C15.322115898132324 11.486347198486328 15.3622407913208 11.660038948059082 15.46722412109375 11.719400405883789 C18.181421279907227 13.264482498168945 19.046579360961914 14.624876976013184 18.704692840576172 16.822948455810547 C18.29904556274414 19.430511474609375 16.62150001525879 20.74528694152832 14.191474914550781 21.357051849365234 C10.169098854064941 22.368417739868164 7.023422718048096 21.058589935302734 5.213408470153809 17.48583221435547 C5.561890125274658 17.251129150390625 5.923013687133789 17.007633209228516 6.459476947784424 16.646509170532227 C7.798986434936523 18.9935359954834 9.570524215698242 20.575992584228516 12.395751953125 20.149459838867188 C13.194400787353516 20.02908706665039 13.987552642822266 19.783390045166016 14.744977951049805 19.494272232055664 C16.29390525817871 18.902294158935547 17.031543731689453 17.663372039794922 17.005708694458008 16.071020126342773 C16.979324340820312 14.43139934539795 16.047658920288086 13.25513744354248 14.484441757202148 12.865982055664062 C12.821185111999512 12.452091217041016 11.09087085723877 12.307531356811523 8.85212516784668 11.962347984313965 C9.547988891601562 11.449520111083984 9.915159225463867 10.980114936828613 10.355432510375977 10.895467758178711 C11.335467338562012 10.70693588256836 12.372666358947754 10.810820579528809 13.350502967834473 10.615694046020508 C15.241315841674805 10.238630294799805 16.284011840820312 8.90077018737793 16.206510543823242 7.153416156768799 C16.13725471496582 5.594595432281494 15.014859199523926 4.316097259521484 13.270803451538086 4.020931720733643 C11.18871021270752 3.66805362701416 9.264917373657227 3.86592960357666 7.929255485534668 5.862826347351074 C7.628593444824219 6.31299352645874 6.992092609405518 6.538902759552002 6.0307464599609375 7.194090843200684 C6.222575664520264 4.7970452308654785 7.3609113693237305 3.823056221008301 8.649852752685547 3.2975854873657227 C9.960229873657227 2.7633209228515625 11.46683406829834 2.474203109741211 12.882745742797852 2.489044189453125"></path></svg>