<svg xmlns="http://www.w3.org/2000/svg" viewBox="0.0 0.0 24.0 24.0" height="200px" width="200px"><path fill="none" stroke="black" stroke-width=".3" stroke-opacity="1.0"  filling="0" d="M13.300357818603516 7.415218830108643 L13.300357818603516 7.415218830108643 C13.572291374206543 9.149250030517578 13.84424114227295 10.883278846740723 14.11620044708252 12.61730670928955 C14.38815975189209 14.351333618164062 14.66012954711914 16.085359573364258 14.932101249694824 17.819385528564453 L14.932101249694824 17.819385528564453 C14.7872896194458 17.89756965637207 14.642478942871094 17.97575569152832 14.49766731262207 18.053939819335938 L14.49766731262207 18.053939819335938 C13.907075881958008 17.06730842590332 13.488116264343262 15.96729850769043 13.223153114318848 14.84835433959961 L13.223153114318848 14.84835433959961 C11.994983673095703 14.84835433959961 10.766814231872559 14.84835433959961 9.538644790649414 14.84835433959961 L9.538644790649414 14.84835433959961 C8.759090423583984 16.058902740478516 8.389591217041016 17.086992263793945 7.331798553466797 18.085346221923828 L7.331798553466797 18.085346221923828 C7.208360195159912 18.00181770324707 7.084921836853027 17.918291091918945 6.961483478546143 17.834762573242188 L6.961483478546143 17.834762573242188 C7.600616455078125 16.512439727783203 8.245107650756836 15.192798614501953 8.891671180725098 13.87416934967041 C9.53823471069336 12.555540084838867 10.186869621276855 11.237923622131348 10.834288597106934 9.919649124145508 C11.62131404876709 8.317109107971191 11.541783332824707 7.468076705932617 13.300357818603516 7.415218830108643 L13.300357818603516 7.415218830108643"></path>
<path fill="none" stroke="black" stroke-width=".3" stroke-opacity="1.0"  filling="0" d="M12.226049423217773 9.063318252563477 L12.226049423217773 9.063318252563477 C12.329315185546875 9.08163833618164 12.43257999420166 9.099957466125488 12.535845756530762 9.118277549743652 L12.535845756530762 9.118277549743652 C12.780689239501953 10.648603439331055 13.025442123413086 12.178942680358887 13.27026081085205 13.709274291992188 L13.27026081085205 13.709274291992188 C13.246479988098145 13.709274291992188 9.970780372619629 13.709274291992188 9.967844009399414 13.709274291992188 L9.967844009399414 13.709274291992188 C10.720513343811035 12.160591125488281 11.473296165466309 10.611961364746094 12.226049423217773 9.063318252563477 L12.226049423217773 9.063318252563477"></path></svg>