<svg xmlns="http://www.w3.org/2000/svg" viewBox="0.0 0.0 24.0 24.0" height="200px" width="200px"><path fill="none" stroke="black" stroke-width=".3" stroke-opacity="1.0"  filling="0" d="M7.372768878936768 3.407525062561035 C10.237703323364258 3.634392738342285 13.123577117919922 3.654752731323242 15.926849365234375 4.144554615020752 C18.718486785888672 4.6320295333862305 20.14019203186035 6.761678695678711 20.55844497680664 9.456171035766602 C20.999963760375977 12.298998832702637 20.5654239654541 15.074348449707031 19.27169418334961 17.651334762573242 C17.93143081665039 20.320812225341797 15.773859024047852 22.167749404907227 12.786184310913086 22.467914581298828 C10.032358169555664 22.7436466217041 7.230249881744385 22.526084899902344 4.162298679351807 22.526084899902344 C5.216361045837402 16.247081756591797 6.252390384674072 10.07744026184082 7.372768878936768 3.407525062561035"></path>
<path fill="none" stroke="black" stroke-width=".3" stroke-opacity="1.0"  filling="0" d="M8.95619010925293 5.314959526062012 C10.776368141174316 5.314959526062012 12.412725448608398 5.214323997497559 14.031630516052246 5.337646484375 C16.740665435791016 5.544155120849609 18.393310546875 7.027521133422852 18.74233627319336 9.633010864257812 C19.140811920166016 12.609633445739746 18.55560874938965 15.446063041687012 16.855844497680664 17.950916290283203 C15.598182678222656 19.80425262451172 13.812326431274414 20.928123474121094 11.518632888793945 21.015960693359375 C9.890420913696289 21.078784942626953 8.25697135925293 21.028175354003906 6.271587371826172 21.028175354003906 C7.2069807052612305 15.556007385253906 8.067914962768555 10.516633987426758 8.95619010925293 5.314959526062012"></path></svg>