<svg xmlns="http://www.w3.org/2000/svg" viewBox="0.0 0.0 24.0 24.0" height="200px" width="200px"><path fill="none" stroke="black" stroke-width=".3" stroke-opacity="1.0"  filling="0" d="M3.049557685852051 3.15411376953125 C9.279146194458008 3.15411376953125 15.50932788848877 3.15411376953125 21.88938331604004 3.15411376953125 C21.88938331604004 5.05035924911499 21.88938331604004 6.791398048400879 21.88938331604004 8.787164688110352 C20.762062072753906 7.3458757400512695 19.961742401123047 5.730424880981445 18.664403915405273 4.832358360290527 C17.400239944458008 3.9573965072631836 15.62780475616455 3.815814971923828 13.662841796875 3.2281627655029297 C13.662841796875 6.579914093017578 13.662841796875 9.362969398498535 13.662841796875 12.15491008758545 C16.188207626342773 12.263910293579102 16.65797233581543 11.837388038635254 17.919767379760742 8.47201156616211 C17.919767379760742 11.210046768188477 17.919767379760742 13.947486877441406 17.919767379760742 17.244144439697266 C17.085086822509766 15.048149108886719 16.407392501831055 13.202850341796875 13.611305236816406 13.322514533996582 C13.219141006469727 16.032705307006836 13.4596529006958 18.808650970458984 13.473870277404785 21.649761199951172 C14.27478313446045 21.81503677368164 14.915750503540039 21.94773292541504 15.556718826293945 22.079837799072266 C15.551386833190918 22.17165756225586 15.546055793762207 22.26348114013672 15.540132522583008 22.35470962524414 C11.44078254699707 22.35470962524414 7.340841770172119 22.35470962524414 3.24149227142334 22.35470962524414 C3.179290771484375 22.27591896057129 3.117682456970215 22.198318481445312 3.05548095703125 22.120712280273438 C3.599888801574707 21.999271392822266 4.144296169281006 21.877832412719727 4.814883232116699 21.72854995727539 C4.814883232116699 15.861505508422852 4.814883232116699 9.976095199584961 4.814883232116699 3.948512077331543 C4.21182918548584 3.7565765380859375 3.6075897216796875 3.564640998840332 3.0039424896240234 3.372706413269043 C3.019345283508301 3.2998428344726562 3.0341548919677734 3.226978302001953 3.049557685852051 3.15411376953125"></path></svg>