<svg xmlns="http://www.w3.org/2000/svg" viewBox="0.0 0.0 24.0 24.0" height="200px" width="200px"><path fill="none" stroke="black" stroke-width=".3" stroke-opacity="1.0"  filling="0" d="M8.84585952758789 3.597569465637207 C11.02156925201416 3.597569465637207 13.1299409866333 3.50759220123291 15.227864265441895 3.620208740234375 C17.930667877197266 3.7647523880004883 19.65997314453125 5.11731481552124 20.212608337402344 7.286639213562012 C20.852317810058594 9.797296524047852 19.87533950805664 12.658576011657715 17.643320083618164 13.820154190063477 C16.321521759033203 14.508044242858887 14.745468139648438 14.81454849243164 13.246040344238281 15.025270462036133 C11.842974662780762 15.222639083862305 10.389986038208008 15.067646026611328 9.170358657836914 15.067646026611328 C7.632036209106445 17.624744415283203 8.800000190734863 20.88714599609375 6.528507709503174 22.763900756835938 C6.238258361816406 22.6118106842041 5.9480085372924805 22.460298538208008 5.657179355621338 22.309368133544922 C6.705559730529785 16.156082153320312 7.753941059112549 10.003374099731445 8.84585952758789 3.597569465637207"></path>
<path fill="none" stroke="black" stroke-width=".3" stroke-opacity="1.0"  filling="0" d="M10.478803634643555 5.271147727966309 C12.058919906616211 5.271147727966309 13.397550582885742 5.249669551849365 14.734439849853516 5.276371479034424 C16.5752010345459 5.312942981719971 17.87319564819336 6.101841449737549 18.330049514770508 7.990204334259033 C18.77471351623535 9.830385208129883 18.072307586669922 12.01712417602539 16.269859313964844 12.606911659240723 C14.156262397766113 13.298285484313965 11.83833122253418 13.363301277160645 9.006657600402832 13.790548324584961 C9.583673477172852 10.450939178466797 10.02078914642334 7.922285556793213 10.478803634643555 5.271147727966309"></path></svg>