<svg xmlns="http://www.w3.org/2000/svg" viewBox="0.0 0.0 24.0 24.0" height="200px" width="200px"><path fill="none" stroke="black" stroke-width=".3" stroke-opacity="1.0"  filling="0" d="M11.433891296386719 7.156600475311279 L11.433891296386719 7.156600475311279 C12.048992156982422 7.067307472229004 12.665060997009277 6.793000221252441 13.279194831848145 6.888721942901611 C15.35757064819336 7.212667942047119 15.892051696777344 9.507726669311523 15.739764213562012 11.241144180297852 C15.537091255187988 13.548077583312988 14.251444816589355 14.829353332519531 12.413467407226562 15.94143009185791 L12.413467407226562 15.94143009185791 C12.66464614868164 16.621477127075195 13.5993013381958 16.886491775512695 14.316083908081055 16.995012283325195 L14.316083908081055 16.995012283325195 C12.618202209472656 17.976608276367188 12.215356826782227 17.58330535888672 11.43260669708252 15.856115341186523 L11.43260669708252 15.856115341186523 C10.881063461303711 15.582913398742676 10.256274223327637 15.423898696899414 9.777976036071777 15.03650951385498 C8.434571266174316 13.948444366455078 8.291646003723145 12.344015121459961 8.76302433013916 10.828828811645508 C9.234402656555176 9.313641548156738 10.320083618164062 7.887697219848633 11.433891296386719 7.156600475311279 L11.433891296386719 7.156600475311279"></path>
<path fill="none" stroke="black" stroke-width=".3" stroke-opacity="1.0"  filling="0" d="M13.295392990112305 7.654354095458984 L13.295392990112305 7.654354095458984 C14.533499717712402 8.587380409240723 14.915641784667969 8.974433898925781 14.917911529541016 10.67222785949707 L14.917911529541016 10.67222785949707 C14.986780166625977 10.697839736938477 15.055647850036621 10.723450660705566 15.124516487121582 10.749062538146973 L15.124516487121582 10.749062538146973 C14.966863632202148 11.217491149902344 14.271814346313477 13.397945404052734 13.97559642791748 13.81987190246582 C13.032002449035645 15.163905143737793 11.174551010131836 15.691374778747559 10.037347793579102 14.198165893554688 C8.701676368713379 12.444356918334961 9.700757026672363 8.760281562805176 11.635196685791016 7.818109035491943 C12.135135650634766 7.574612617492676 12.74199390411377 7.708939075469971 13.295392990112305 7.654354095458984 L13.295392990112305 7.654354095458984"></path></svg>