<svg xmlns="http://www.w3.org/2000/svg" viewBox="0.0 0.0 24.0 24.0" height="200px" width="200px"><path fill="none" stroke="black" stroke-width=".3" stroke-opacity="1.0"  filling="0" d="M2.4719953536987305 3.9172487258911133 C5.707549095153809 3.9172487258911133 9.151091575622559 3.9172487258911133 13.001543998718262 3.9172487258911133 C12.336515426635742 4.309760093688965 12.004266738891602 4.506015777587891 11.486429214477539 4.811598777770996 C12.653829574584961 8.071684837341309 13.835098266601562 11.368568420410156 15.015832901000977 14.665986061096191 C15.208888053894043 14.77157974243164 15.401945114135742 14.877174377441406 15.594467163085938 14.982768058776855 C15.774724960327148 14.612122535705566 15.954447746276855 14.240942001342773 16.13470458984375 13.870295524597168 C16.210433959960938 13.933225631713867 16.285629272460938 13.996688842773438 16.359760284423828 14.061219215393066 C15.4110107421875 16.439754486083984 14.462797164916992 18.81882095336914 13.475652694702148 21.293350219726562 C12.06879711151123 21.293350219726562 10.765935897827148 21.293350219726562 9.262553215026855 21.293350219726562 C7.527714729309082 16.436553955078125 5.7992777824401855 11.509893417358398 3.9908447265625 6.613098621368408 C3.630864143371582 5.637153148651123 2.964235305786133 4.774800777435303 2.4719953536987305 3.9172487258911133"></path>
<path fill="none" stroke="black" stroke-width=".3" stroke-opacity="1.0"  filling="0" d="M16.404556274414062 4.013243198394775 C18.37031364440918 4.013243198394775 20.134483337402344 4.013243198394775 21.672531127929688 4.013243198394775 C19.927560806274414 7.313859462738037 18.143657684326172 10.687540054321289 16.360292434692383 14.060686111450195 C16.285629272460938 13.996688842773438 16.210433959960938 13.933225631713867 16.135236740112305 13.869763374328613 C16.75440216064453 12.214921951293945 17.408231735229492 10.572345733642578 17.984201431274414 8.903104782104492 C18.852420806884766 6.384311199188232 18.66576385498047 5.8147430419921875 16.404556274414062 4.013243198394775"></path></svg>