<svg xmlns="http://www.w3.org/2000/svg" viewBox="0.0 0.0 24.0 24.0" height="200px" width="200px"><path fill="none" stroke="black" stroke-width=".3" stroke-opacity="1.0"  filling="0" d="M12.441272735595703 7.576755046844482 L12.441272735595703 7.576755046844482 C12.593252182006836 7.603121757507324 12.745230674743652 7.629488468170166 12.897210121154785 7.655855178833008 L12.897210121154785 7.655855178833008 C13.070157051086426 8.971373558044434 13.24308967590332 10.286893844604492 13.41600513458252 11.6024169921875 C13.588920593261719 12.917940139770508 13.761818885803223 14.233466148376465 13.934697151184082 15.548994064331055 L13.934697151184082 15.548994064331055 C14.88488483428955 13.428841590881348 15.834197998046875 11.30828857421875 16.790205001831055 9.190751075744629 C17.042396545410156 8.632152557373047 17.34427833557129 7.655333995819092 17.947776794433594 7.762211322784424 L17.947776794433594 7.762211322784424 C17.13909339904785 9.896989822387695 16.340890884399414 12.036840438842773 15.4678316116333 14.146454811096191 C14.924234390258789 15.459973335266113 14.74325180053711 17.120513916015625 13.261011123657227 17.469026565551758 L13.261011123657227 17.469026565551758 C12.959877967834473 15.076372146606445 12.658736228942871 12.683719635009766 12.357728004455566 10.291049003601074 L12.357728004455566 10.291049003601074 C12.253347396850586 10.268631935119629 12.148966789245605 10.2462158203125 12.044586181640625 10.223798751831055 L12.044586181640625 10.223798751831055 C11.52598762512207 11.416996002197266 11.079811096191406 12.886751174926758 10.466962814331055 14.203912734985352 C9.854113578796387 15.521073341369629 9.074592590332031 16.685640335083008 7.889305114746094 17.268461227416992 L7.889305114746094 17.268461227416992 C7.765607833862305 15.698562622070312 7.641967296600342 14.128658294677734 7.518380165100098 12.55875015258789 C7.394792556762695 10.988842010498047 7.271259307861328 9.418930053710938 7.147776126861572 7.8490142822265625 L7.147776126861572 7.8490142822265625 C7.471089839935303 8.040493965148926 7.948220252990723 8.088092803955078 8.117717742919922 8.423454284667969 C8.357019424438477 8.896926879882812 8.198420524597168 9.481403350830078 8.240113258361816 10.010272979736328 C8.389311790466309 11.902863502502441 8.514657020568848 13.801077842712402 8.738077163696289 15.686456680297852 L8.738077163696289 15.686456680297852 C9.378705024719238 14.344881057739258 9.980367660522461 12.986404418945312 10.583942413330078 11.6288480758667 C11.187516212463379 10.27129077911377 11.793001174926758 8.914652824401855 12.441272735595703 7.576755046844482 L12.441272735595703 7.576755046844482"></path></svg>