<svg xmlns="http://www.w3.org/2000/svg" viewBox="0.0 0.0 24.0 24.0" height="200px" width="200px"><path fill="none" stroke="black" stroke-width=".3" stroke-opacity="1.0"  filling="0" d="M6.28338098526001 3.4802331924438477 C6.774083137512207 3.81636905670166 7.486577987670898 4.042758941650391 7.71526575088501 4.507604122161865 C8.555319786071777 6.2141432762146 9.232189178466797 8.00112533569336 9.976861000061035 9.755355834960938 C10.378500938415527 10.70113468170166 10.793355941772461 11.641166687011719 11.232344627380371 12.652449607849121 C13.88006591796875 9.50425910949707 16.361730575561523 6.541660785675049 18.877294540405273 3.6083669662475586 C18.975549697875977 3.494023323059082 19.405345916748047 3.6635284423828125 20.064979553222656 3.753164291381836 C18.055627822875977 6.401460647583008 16.310590744018555 8.979655265808105 14.275384902954102 11.30330753326416 C12.34935188293457 13.502846717834473 11.458734512329102 15.983362197875977 11.197869300842285 18.80748176574707 C11.110530853271484 19.752685546875 10.966882705688477 20.720300674438477 10.645685195922852 21.604595184326172 C10.484225273132324 22.048181533813477 9.867688179016113 22.326858520507812 9.457429885864258 22.680233001708984 C9.251150131225586 22.499237060546875 9.045446395874023 22.31766700744629 8.839167594909668 22.136669158935547 C9.126463890075684 20.269817352294922 9.52638053894043 18.41158676147461 9.661409378051758 16.5338191986084 C9.75277042388916 15.262247085571289 9.721166610717773 13.87690544128418 9.308034896850586 12.69554328918457 C8.276067733764648 9.74099063873291 6.995301246643066 6.873199939727783 5.81451416015625 3.9709348678588867 C5.970803260803223 3.807750701904297 6.1270928382873535 3.643991470336914 6.28338098526001 3.4802331924438477"></path></svg>