<svg xmlns="http://www.w3.org/2000/svg" viewBox="0.0 0.0 24.0 24.0" height="200px" width="200px"><path fill="none" stroke="black" stroke-width=".3" stroke-opacity="1.0"  filling="0" d="M17.542621612548828 3.840730667114258 C16.105270385742188 4.212605953216553 14.810470581054688 4.218803405761719 13.999670028686523 4.848172664642334 C13.149992942810059 5.507968902587891 12.765159606933594 6.766144752502441 12.019156455993652 8.030518531799316 C13.475102424621582 8.36295223236084 14.460569381713867 8.587767601013184 15.446037292480469 8.812582015991211 C15.451672554016113 9.014860153198242 15.457305908203125 9.217137336730957 15.46294116973877 9.419414520263672 C14.438594818115234 9.578306198120117 13.41368579864502 9.737197875976562 12.134099006652832 9.936094284057617 C11.508110046386719 13.427209854125977 10.900151252746582 17.002277374267578 10.198097229003906 20.55875015258789 C10.078083038330078 21.16614532470703 9.55689525604248 21.694093704223633 9.220518112182617 22.2586669921875 C8.957952499389648 22.090763092041016 8.696514129638672 21.922290802001953 8.435074806213379 21.754383087158203 C9.069515228271484 17.897594451904297 9.70395565032959 14.040239334106445 10.359243392944336 10.05554485321045 C9.576053619384766 9.824532508850098 8.922455787658691 9.631269454956055 8.269421577453613 9.438570976257324 C8.24406623840332 9.280805587768555 8.218147277832031 9.122477531433105 8.192792892456055 8.964712142944336 C8.977109909057617 8.685243606567383 9.761991500854492 8.40633773803711 10.546308517456055 8.125741004943848 C12.051836967468262 3.2739038467407227 13.828947067260742 2.051224708557129 17.542621612548828 3.840730667114258"></path></svg>