<svg xmlns="http://www.w3.org/2000/svg" viewBox="0.0 0.0 24.0 24.0" height="200px" width="200px"><path fill="none" stroke="black" stroke-width=".3" stroke-opacity="1.0"  filling="0" d="M15.3817720413208 3.278902053833008 C17.07280158996582 3.92038631439209 17.940858840942383 5.399109363555908 17.396968841552734 6.828180313110352 C16.854217529296875 8.253255844116211 15.6585693359375 8.472981452941895 14.349348068237305 8.2429838180542 C12.841519355773926 7.9781718254089355 12.471124649047852 7.142643928527832 12.774744987487793 4.996755123138428 C12.796432495117188 4.844945430755615 12.695416450500488 4.676012992858887 12.596112251281738 4.3124680519104 C11.393044471740723 5.557197570800781 11.391902923583984 6.903514862060547 11.972890853881836 8.211023330688477 C12.887746810913086 10.269593238830566 14.792795181274414 10.509862899780273 16.83481216430664 10.723311424255371 C16.357694625854492 10.890531539916992 15.881147384643555 11.058320999145508 15.318994522094727 11.255218505859375 C15.318994522094727 14.629857063293457 15.318994522094727 18.0341739654541 15.318994522094727 21.540077209472656 C15.826929092407227 21.69873809814453 16.33030128479004 21.85625457763672 17.47686767578125 22.214092254638672 C13.702157974243164 22.214662551879883 10.578063011169434 22.214662551879883 6.885535717010498 22.214662551879883 C7.797538757324219 21.86424446105957 8.21872615814209 21.70273208618164 8.734082221984863 21.50469398498535 C8.734082221984863 18.13747215270996 8.734082221984863 14.740575790405273 8.734082221984863 11.306583404541016 C8.18391227722168 11.087428092956543 7.690814971923828 10.890531539916992 7.097841739654541 10.653684616088867 C7.644016265869141 10.476192474365234 8.084037780761719 10.333513259887695 8.688995361328125 10.136616706848145 C8.766042709350586 9.185235023498535 8.781452178955078 8.16080093383789 8.942964553833008 7.159765720367432 C9.411520957946777 4.253684043884277 12.733654022216797 2.2738733291625977 15.3817720413208 3.278902053833008"></path></svg>