<svg xmlns="http://www.w3.org/2000/svg" viewBox="0.0 0.0 24.0 24.0" height="200px" width="200px"><path fill="none" stroke="black" stroke-width=".3" stroke-opacity="1.0"  filling="0" d="M16.21351432800293 8.906126976013184 L16.21351432800293 8.906126976013184 C16.281246185302734 10.716636657714844 16.096542358398438 12.456792831420898 15.799308776855469 14.183470726013184 C15.502076148986816 15.910148620605469 15.092317581176758 17.623348236083984 14.709942817687988 19.37994384765625 L14.709942817687988 19.37994384765625 C14.357953071594238 19.02583885192871 14.005962371826172 18.67173194885254 13.653972625732422 18.317626953125 L13.653972625732422 18.317626953125 C13.019357681274414 18.7899112701416 12.500359535217285 19.20801544189453 11.68429183959961 19.493104934692383 C11.222256660461426 19.65451431274414 10.717254638671875 19.738513946533203 10.2298583984375 19.694076538085938 C8.305559158325195 19.518634796142578 7.727540016174316 18.18855094909668 7.680334568023682 16.612733840942383 C7.633129119873047 15.036916732788086 8.116737365722656 13.21536636352539 8.315692901611328 12.056988716125488 C8.610932350158691 10.338013648986816 8.255931854248047 9.35964298248291 10.043959617614746 9.30253791809082 L10.043959617614746 9.30253791809082 C9.76041030883789 11.087907791137695 9.480416297912598 12.873896598815918 9.192329406738281 14.658540725708008 C9.093040466308594 15.273619651794434 8.773371696472168 16.766666412353516 8.991903305053711 17.363140106201172 C9.651253700256348 19.162811279296875 11.711769104003906 18.838626861572266 12.820534706115723 17.779489517211914 C14.046515464782715 16.608383178710938 14.481139183044434 15.068578720092773 14.816078186035156 13.482282638549805 C15.151017189025879 11.895986557006836 15.386272430419922 10.263198852539062 16.21351432800293 8.906126976013184 L16.21351432800293 8.906126976013184"></path></svg>