<svg xmlns="http://www.w3.org/2000/svg" viewBox="0.0 0.0 24.0 24.0" height="200px" width="200px"><path fill="none" stroke="black" stroke-width=".3" stroke-opacity="1.0"  filling="0" d="M17.630874633789062 6.767765045166016 C17.970205307006836 7.044034957885742 18.308786392211914 7.3203043937683105 18.648117065429688 7.596574306488037 C16.63164710998535 10.238405227661133 14.615179061889648 12.880234718322754 12.344209671020508 15.856890678405762 C13.77360725402832 18.858322143554688 15.290087699890137 22.04142951965332 17.16016387939453 25.96776580810547 C12.486099243164062 24.815391540527344 13.169265747070312 20.31999969482422 10.604010581970215 18.34406852722168 C7.591318607330322 20.228408813476562 6.604104995727539 24.427261352539062 3.1259584426879883 25.844646453857422 C2.8789682388305664 25.62693214416504 2.633477210998535 25.407718658447266 2.3879880905151367 25.189254760742188 C4.778322696685791 22.175811767578125 7.168656826019287 19.162370681762695 9.728656768798828 15.935717582702637 C8.486944198608398 13.248093605041504 7.2084455490112305 10.482393264770508 5.869887828826904 7.586063861846924 C7.851072788238525 7.662639141082764 7.851072788238525 7.662639141082764 11.375014305114746 13.624211311340332 C13.504094123840332 11.290182113647461 15.567858695983887 9.028973579406738 17.630874633789062 6.767765045166016"></path></svg>