<svg xmlns="http://www.w3.org/2000/svg" viewBox="0.0 0.0 24.0 24.0" height="200px" width="200px"><path fill="none" stroke="black" stroke-width=".3" stroke-opacity="1.0"  filling="0" d="M15.660799026489258 7.815662860870361 L15.660799026489258 7.815662860870361 C16.89141845703125 9.84177017211914 16.153085708618164 11.569852828979492 14.749494552612305 13.040719032287598 C13.345903396606445 14.511585235595703 11.277052879333496 15.725235939025879 9.846635818481445 16.72248077392578 L9.846635818481445 16.72248077392578 C11.752524375915527 16.867422103881836 13.614439964294434 16.865798950195312 15.511261940002441 17.11013412475586 L15.511261940002441 17.11013412475586 C14.226167678833008 17.560962677001953 12.961654663085938 17.696834564208984 11.685943603515625 17.678415298461914 C10.410233497619629 17.659996032714844 9.123324394226074 17.487285614013672 7.79343843460083 17.320945739746094 L7.79343843460083 17.320945739746094 C8.769218444824219 16.40066146850586 10.19225025177002 15.581818580627441 11.525731086730957 14.686729431152344 C12.859210968017578 13.791641235351562 14.103140830993652 12.820307731628418 14.72071647644043 11.595044136047363 C15.932552337646484 9.190774917602539 14.571720123291016 6.907588005065918 11.768110275268555 7.9986653327941895 C10.815023422241211 8.369576454162598 10.128091812133789 9.372349739074707 9.50755786895752 10.09014892578125 L9.50755786895752 10.09014892578125 C9.260488510131836 8.317103385925293 10.287668228149414 7.4858078956604 11.632180213928223 7.2291107177734375 C12.976692199707031 6.972414016723633 14.638537406921387 7.290315628051758 15.660799026489258 7.815662860870361 L15.660799026489258 7.815662860870361"></path></svg>