<svg xmlns="http://www.w3.org/2000/svg" viewBox="0.0 0.0 24.0 24.0" height="200px" width="200px"><path fill="none" stroke="black" stroke-width=".3" stroke-opacity="1.0"  filling="0" d="M9.963769912719727 6.9877777099609375 L9.963769912719727 6.9877777099609375 C11.939678192138672 6.9877777099609375 13.915589332580566 6.9877777099609375 15.891498565673828 6.9877777099609375 L15.891498565673828 6.9877777099609375 C15.942351341247559 7.088737964630127 15.993203163146973 7.189698219299316 16.044055938720703 7.290658473968506 L16.044055938720703 7.290658473968506 C14.448575019836426 8.205761909484863 12.484161376953125 7.8506598472595215 10.676131248474121 7.843441486358643 L10.676131248474121 7.843441486358643 C10.447884559631348 8.813458442687988 10.219682693481445 9.783486366271973 9.991537094116211 10.75352668762207 L9.991537094116211 10.75352668762207 C10.468371391296387 10.681787490844727 12.682305335998535 10.299613952636719 13.201950073242188 10.412027359008789 C15.498149871826172 10.908758163452148 16.179351806640625 13.017569541931152 15.418978691101074 15.097860336303711 C14.70230484008789 17.058595657348633 12.66768741607666 18.027427673339844 10.671981811523438 17.72298812866211 C8.975829124450684 17.464244842529297 8.948315620422363 16.864824295043945 8.062224388122559 15.587818145751953 L8.062224388122559 15.587818145751953 C9.833893775939941 15.785645484924316 10.310362815856934 17.32597541809082 12.270326614379883 16.831897735595703 C13.75090503692627 16.45866584777832 14.631999969482422 14.931693077087402 14.675041198730469 13.542291641235352 C14.718080520629883 12.152889251708984 13.923066139221191 10.901058197021484 12.051424026489258 11.078109741210938 C10.745415687561035 11.201654434204102 10.11273193359375 11.975778579711914 9.231939315795898 12.753052711486816 L9.231939315795898 12.753052711486816 C9.112360954284668 12.685497283935547 8.992783546447754 12.617942810058594 8.873205184936523 12.550387382507324 L8.873205184936523 12.550387382507324 C9.236635208129883 10.696167945861816 9.600127220153809 8.84195613861084 9.963769912719727 6.9877777099609375 L9.963769912719727 6.9877777099609375"></path></svg>