<svg xmlns="http://www.w3.org/2000/svg" viewBox="0.0 0.0 24.0 24.0" height="200px" width="200px"><path fill="none" stroke="black" stroke-width=".3" stroke-opacity="1.0"  filling="0" d="M16.7928409576416 7.253414630889893 L16.7928409576416 7.253414630889893 C16.005451202392578 8.363470077514648 15.123045921325684 9.459686279296875 14.278754234313965 10.579954147338867 C13.434463500976562 11.70022201538086 12.628284454345703 12.844541549682617 11.993346214294434 14.05080509185791 C11.283679008483887 15.399039268493652 11.170000076293945 16.77860450744629 10.315177917480469 18.053089141845703 L10.315177917480469 18.053089141845703 C10.173544883728027 17.945972442626953 10.031912803649902 17.838855743408203 9.890279769897461 17.731739044189453 L9.890279769897461 17.731739044189453 C10.24610424041748 15.78101921081543 10.937398910522461 14.14302921295166 11.855375289916992 12.622430801391602 C12.773351669311523 11.101831436157227 13.918010711669922 9.698623657226562 15.18056583404541 8.21746826171875 L15.18056583404541 8.21746826171875 C13.422224044799805 8.21746826171875 11.66387939453125 8.21746826171875 9.905536651611328 8.21746826171875 L9.905536651611328 8.21746826171875 C10.09953784942627 7.896441459655762 10.147154808044434 7.411972522735596 10.487539291381836 7.254388332366943 C10.941564559936523 7.044193267822266 11.488181114196777 7.253381252288818 11.988502502441406 7.253140449523926 C13.589948654174805 7.252368927001953 15.191394805908203 7.253211498260498 16.7928409576416 7.253414630889893 L16.7928409576416 7.253414630889893"></path></svg>