<svg xmlns="http://www.w3.org/2000/svg" viewBox="0.0 0.0 24.0 24.0" height="200px" width="200px"><path fill="none" stroke="black" stroke-width=".3" stroke-opacity="1.0"  filling="0" d="M3.4314327239990234 3.2714529037475586 C8.191366195678711 3.2714529037475586 12.837968826293945 3.158121109008789 17.47541046142578 3.316099166870117 C20.03853988647461 3.4036731719970703 21.501550674438477 4.983449459075928 21.881610870361328 7.388600826263428 C22.35382843017578 10.378155708312988 21.437440872192383 12.574958801269531 19.211444854736328 13.718579292297363 C18.651653289794922 14.005915641784668 18.051225662231445 14.214834213256836 17.229856491088867 14.560553550720215 C19.0202693939209 17.02122688293457 20.723106384277344 19.360553741455078 22.631431579589844 21.98263931274414 C19.617835998535156 21.98263931274414 17.082752227783203 21.98263931274414 14.425753593444824 21.98263931274414 C13.30044937133789 20.272361755371094 12.161408424377441 18.54090118408203 10.616547584533691 16.19241714477539 C10.616551399230957 18.453899383544922 10.616551399230957 20.06572914123535 10.616551399230957 21.978059768676758 C7.938373565673828 21.978059768676758 5.775912284851074 21.978059768676758 3.4314327239990234 21.978059768676758 C3.4314327239990234 15.7539701461792 3.4314327239990234 9.608872413635254 3.4314327239990234 3.2714529037475586"></path>
<path fill="none" stroke="black" stroke-width=".3" stroke-opacity="1.0"  filling="0" d="M10.609109878540039 8.205389976501465 C11.976531982421875 8.557405471801758 13.226043701171875 8.726258277893066 14.299261093139648 9.253994941711426 C14.59689998626709 9.400525093078613 14.644979476928711 11.0632963180542 14.334749221801758 11.252182960510254 C13.31075668334961 11.874361991882324 12.070404052734375 12.140520095825195 10.609110832214355 12.648796081542969 C10.609110832214355 10.969426155090332 10.609110832214355 9.869878768920898 10.609109878540039 8.205389976501465"></path></svg>