<svg xmlns="http://www.w3.org/2000/svg" viewBox="0.0 0.0 24.0 24.0" height="200px" width="200px"><path fill="none" stroke="black" stroke-width=".3" stroke-opacity="1.0"  filling="0" d="M5.328153133392334 4.4440388679504395 C10.450650215148926 4.4440388679504395 15.573145866394043 4.4440388679504395 20.938053131103516 4.4440388679504395 C20.60657501220703 6.034128665924072 20.293315887451172 7.5366668701171875 19.97954750061035 9.039205551147461 C18.992698669433594 6.176841735839844 17.233579635620117 4.647987365722656 13.883359909057617 4.9906005859375 C13.404107093811035 7.238588809967041 12.924346923828125 9.486576080322266 12.407137870788574 11.911184310913086 C15.194602012634277 12.165740013122559 15.823147773742676 10.137895584106445 17.09187889099121 8.678373336791992 C16.545318603515625 11.15713119506836 15.998756408691406 13.635889053344727 15.382356643676758 16.430944442749023 C14.616157531738281 13.244186401367188 14.552898406982422 13.176878929138184 12.204708099365234 12.97697925567627 C11.693571090698242 15.311505317687988 11.176362037658691 17.672348022460938 10.589820861816406 20.353538513183594 C14.544801712036133 20.169832229614258 17.03418731689453 18.322654724121094 19.097965240478516 15.328710556030273 C18.937538146972656 16.212825775146484 18.791284561157227 17.099470138549805 18.613143920898438 17.979534149169922 C18.429943084716797 18.884902954101562 18.216381072998047 19.783695220947266 17.9815616607666 20.842910766601562 C12.5640230178833 20.842910766601562 7.151039123535156 20.842910766601562 1.7380542755126953 20.842910766601562 C3.175309181213379 20.709308624267578 3.511343002319336 19.68754005432129 3.7598257064819336 18.484094619750977 C4.57663106918335 14.535185813903809 5.4683356285095215 10.60196590423584 6.297287464141846 6.6555891036987305 C6.482511520385742 5.772993564605713 6.931400775909424 4.672279357910156 5.328153133392334 4.4440388679504395"></path></svg>