<svg xmlns="http://www.w3.org/2000/svg" viewBox="0.0 0.0 24.0 24.0" height="200px" width="200px"><path fill="none" stroke="black" stroke-width=".3" stroke-opacity="1.0"  filling="0" d="M7.097475528717041 3.1964950561523438 C11.1143159866333 3.1964950561523438 15.102117538452148 3.1964950561523438 19.25526237487793 3.1964950561523438 C19.25526237487793 4.0089898109436035 19.25526237487793 4.757479667663574 19.25526237487793 5.916662693023682 C16.50783348083496 5.916662693023682 13.710624694824219 5.916662693023682 10.756368637084961 5.916662693023682 C10.756368637084961 7.849226474761963 10.756368637084961 9.378802299499512 10.756368637084961 11.233139038085938 C12.918871879577637 11.233139038085938 15.037521362304688 11.233139038085938 17.323291778564453 11.233139038085938 C17.323291778564453 12.375728607177734 17.323291778564453 13.195334434509277 17.323291778564453 14.218805313110352 C15.094414710998535 14.218805313110352 13.050436019897461 14.218805313110352 10.658584594726562 14.218805313110352 C10.658583641052246 17.00771713256836 10.658583641052246 19.617061614990234 10.658583641052246 22.396493911743164 C9.149157524108887 22.396493911743164 8.19443130493164 22.396493911743164 7.097475528717041 22.396493911743164 C7.097475528717041 15.965875625610352 7.097475528717041 9.682821273803711 7.097475528717041 3.1964950561523438"></path></svg>