<svg xmlns="http://www.w3.org/2000/svg" viewBox="0.0 0.0 24.0 24.0" height="200px" width="200px"><path fill="none" stroke="black" stroke-width=".3" stroke-opacity="1.0"  filling="0" d="M16.426467895507812 3.072300910949707 C17.471416473388672 3.072300910949707 18.43924903869629 3.072300910949707 19.911596298217773 3.072300910949707 C18.734188079833984 4.713609218597412 17.817577362060547 6.15946626663208 16.729650497436523 7.461091995239258 C15.666450500488281 8.73269271850586 15.484540939331055 9.891851425170898 16.19746208190918 11.45191764831543 C17.77695655822754 14.90820026397705 19.160411834716797 18.45396614074707 20.73284149169922 22.225793838500977 C19.349384307861328 22.225791931152344 18.243207931518555 22.225791931152344 16.86151885986328 22.225791931152344 C15.533991813659668 19.12508773803711 14.238253593444824 16.09914779663086 12.894830703735352 12.961355209350586 C9.56924057006836 15.379162788391113 8.491323471069336 18.50930404663086 8.975826263427734 22.272890090942383 C7.679499626159668 22.272890090942383 6.74169397354126 22.272890090942383 5.639050006866455 22.272890090942383 C5.639050006866455 15.91076374053955 5.639050006866455 9.680505752563477 5.639050006866455 3.221242904663086 C6.613356113433838 3.221242904663086 7.620040416717529 3.221242904663086 8.911657333374023 3.221242904663086 C8.911657333374023 6.112369060516357 8.911657333374023 9.015859603881836 8.911657333374023 11.919938087463379 C9.118881225585938 12.014130592346191 9.325516700744629 12.108323097229004 9.532740592956543 12.203104972839355 C11.828686714172363 9.161858558654785 14.124634742736816 6.121201038360596 16.426467895507812 3.072300910949707"></path></svg>