<svg xmlns="http://www.w3.org/2000/svg" viewBox="0.0 0.0 24.0 24.0" height="200px" width="200px"><path fill="none" stroke="black" stroke-width=".3" stroke-opacity="1.0"  filling="0" d="M7.7111616134643555 8.588106155395508 L7.7111616134643555 8.588106155395508 C9.286500930786133 8.588106155395508 10.861845016479492 8.588106155395508 12.437183380126953 8.588106155395508 L12.437183380126953 8.588106155395508 C12.447637557983398 8.618498802185059 12.45809268951416 8.64889144897461 12.468546867370605 8.67928409576416 L12.468546867370605 8.67928409576416 C12.204049110412598 8.764861106872559 11.939550399780273 8.850439071655273 11.675052642822266 8.936016082763672 L11.675052642822266 8.936016082763672 C11.484859466552734 9.815910339355469 11.294662475585938 10.695804595947266 11.104461669921875 11.57569694519043 L11.104461669921875 11.57569694519043 C12.225691795349121 10.965764999389648 13.254897117614746 10.147222518920898 14.100565910339355 9.191179275512695 L14.100565910339355 9.191179275512695 C13.782600402832031 9.000161170959473 13.464634895324707 8.80914306640625 13.146669387817383 8.618124961853027 L13.146669387817383 8.618124961853027 C14.387167930603027 8.618124961853027 15.627667427062988 8.618124961853027 16.868165969848633 8.618124961853027 L16.868165969848633 8.618124961853027 C16.510276794433594 8.803008079528809 14.122570037841797 10.036518096923828 13.792756080627441 10.206907272338867 L13.792756080627441 10.206907272338867 C14.391186714172363 12.1058931350708 14.989665985107422 14.004862785339355 15.588088989257812 15.903850555419922 L15.588088989257812 15.903850555419922 C14.175464630126953 15.903850555419922 12.762840270996094 15.903850555419922 11.35021686553955 15.903850555419922 L11.35021686553955 15.903850555419922 C11.58253002166748 15.780189514160156 11.814844131469727 15.656527519226074 12.047157287597656 15.532866477966309 L12.047157287597656 15.532866477966309 C12.0123291015625 15.42326831817627 11.119450569152832 12.613903999328613 11.084747314453125 12.504727363586426 L11.084747314453125 12.504727363586426 C11.023364067077637 12.515256881713867 10.961981773376465 12.525785446166992 10.900598526000977 12.536314964294434 L10.900598526000977 12.536314964294434 C10.840469360351562 12.818479537963867 10.31164264678955 15.30036449432373 10.252943992614746 15.57588005065918 L10.252943992614746 15.57588005065918 C10.532302856445312 15.687444686889648 10.811660766601562 15.7990083694458 11.091019630432129 15.91057300567627 L11.091019630432129 15.91057300567627 C9.416810035705566 15.91057300567627 7.7426018714904785 15.91057300567627 6.068390369415283 15.91057300567627 L6.068390369415283 15.91057300567627 C6.386654376983643 15.80109977722168 6.704918384552002 15.691625595092773 7.023182392120361 15.582152366638184 L7.023182392120361 15.582152366638184 C7.494256019592285 13.388195991516113 7.965406894683838 11.194252014160156 8.436553955078125 9.000310897827148 L8.436553955078125 9.000310897827148 C8.194756507873535 8.862909317016602 7.952959060668945 8.725507736206055 7.7111616134643555 8.588106155395508 L7.7111616134643555 8.588106155395508"></path></svg>