<svg xmlns="http://www.w3.org/2000/svg" viewBox="0.0 0.0 24.0 24.0" height="200px" width="200px"><path fill="none" stroke="black" stroke-width=".3" stroke-opacity="1.0"  filling="0" d="M22.316551208496094 5.081821441650391 C20.97095489501953 10.102144241333008 19.683391571044922 14.904152870178223 18.38556480407715 19.743663787841797 C17.256940841674805 19.743663787841797 16.456457138061523 19.743663787841797 15.540789604187012 19.743663787841797 C14.614853858947754 16.43056297302246 13.70588207244873 13.179965019226074 12.796911239624023 9.928921699523926 C12.660299301147461 9.927136421203613 12.524131774902344 9.925349235534668 12.387517929077148 9.923117637634277 C11.562032699584961 13.14826774597168 10.736102104187012 16.373865127563477 9.879812240600586 19.71910858154297 C9.021736145019531 19.71910858154297 8.161428451538086 19.71910858154297 7.110039710998535 19.71910858154297 C5.801496982574463 14.982281684875488 4.4853644371032715 10.219560623168945 3.116997718811035 5.268436908721924 C4.0866851806640625 5.268436908721924 4.863954067230225 5.268436908721924 5.916234493255615 5.268436908721924 C6.788150310516357 8.433316230773926 7.69980001449585 11.740166664123535 8.611002922058105 15.047462463378906 C8.726633071899414 15.037640571594238 8.842264175415039 15.02781867980957 8.95744800567627 15.017996788024902 C9.790075302124023 11.766952514648438 10.623149871826172 8.515909194946289 11.47095775604248 5.206380367279053 C12.367427825927734 5.206380367279053 13.167912483215332 5.206380367279053 14.160367965698242 5.206380367279053 C15.071572303771973 8.392242431640625 15.9930419921875 11.614267349243164 16.9140682220459 14.835845947265625 C17.06496810913086 14.837185859680176 17.215421676635742 14.83852481842041 17.366321563720703 14.839864730834961 C18.22439956665039 11.677217483520508 19.0820255279541 8.515016555786133 19.972246170043945 5.23272180557251 C20.631206512451172 5.190308094024658 21.271860122680664 5.149235248565674 22.316551208496094 5.081821441650391"></path></svg>