<svg xmlns="http://www.w3.org/2000/svg" viewBox="0.0 0.0 24.0 24.0" height="200px" width="200px"><path fill="none" stroke="black" stroke-width=".3" stroke-opacity="1.0"  filling="0" d="M3.5150327682495117 3.1412086486816406 C5.126840114593506 3.1412086486816406 6.33759880065918 3.1412086486816406 7.681258678436279 3.1412086486816406 C9.136159896850586 5.587900638580322 10.61447811126709 8.074989318847656 12.2584867477417 10.839007377624512 C13.807063102722168 8.122998237609863 15.194047927856445 5.690943241119385 16.647192001342773 3.1417932510375977 C17.631372451782227 3.1417932510375977 18.63370132446289 3.1417932510375977 19.96682357788086 3.1417932510375977 C18.401269912719727 5.919863224029541 17.071659088134766 8.501214027404785 15.529523849487305 10.948490142822266 C14.185277938842773 13.081953048706055 13.456950187683105 15.270451545715332 13.7122163772583 17.811405181884766 C13.846874237060547 19.152721405029297 13.736220359802246 20.51804542541504 13.736220359802246 22.162639617919922 C12.612112045288086 22.218257904052734 11.599828720092773 22.267436981201172 10.074087142944336 22.341211318969727 C10.074087142944336 21.036190032958984 9.964017868041992 20.073673248291016 10.093406677246094 19.144527435302734 C10.578763961791992 15.665061950683594 9.454656600952148 12.701983451843262 7.5173258781433105 9.874734878540039 C6.106921672821045 7.815624713897705 4.951197624206543 5.581460475921631 3.5150327682495117 3.1412086486816406"></path></svg>