<svg xmlns="http://www.w3.org/2000/svg" viewBox="0.0 0.0 24.0 24.0" height="200px" width="200px"><path fill="none" stroke="black" stroke-width=".3" stroke-opacity="1.0"  filling="0" d="M15.383456230163574 6.9102864265441895 L15.383456230163574 6.9102864265441895 C15.383456230163574 8.648568153381348 15.383456230163574 10.386849403381348 15.383456230163574 12.125130653381348 C15.383456230163574 13.863411903381348 15.383456230163574 15.601693153381348 15.383456230163574 17.339975357055664 L15.383456230163574 17.339975357055664 C15.028244018554688 17.407489776611328 14.645532608032227 17.695287704467773 14.317819595336914 17.542518615722656 C13.952315330505371 17.372133255004883 13.87369441986084 16.869279861450195 13.651632308959961 16.53265953063965 L13.651632308959961 16.53265953063965 C13.196709632873535 16.87564468383789 12.825194358825684 17.37508201599121 12.286864280700684 17.561614990234375 C10.21280288696289 18.28028106689453 8.960169792175293 16.574947357177734 8.61630916595459 14.528192520141602 C8.272449493408203 12.481437683105469 8.837360382080078 10.093262672424316 10.398387908935547 9.446250915527344 C11.655874252319336 8.925049781799316 12.5709810256958 9.564385414123535 13.720867156982422 9.990283966064453 L13.720867156982422 9.990283966064453 C13.720867156982422 8.996753692626953 13.720867156982422 8.003222465515137 13.720867156982422 7.009692192077637 L13.720867156982422 7.009692192077637 C14.275063514709473 6.976556777954102 14.829259872436523 6.943421840667725 15.383456230163574 6.9102864265441895 L15.383456230163574 6.9102864265441895"></path>
<path fill="none" stroke="black" stroke-width=".3" stroke-opacity="1.0"  filling="0" d="M12.097341537475586 10.7197904586792 L12.097341537475586 10.7197904586792 C13.930429458618164 11.476509094238281 14.124373435974121 13.310612678527832 13.466476440429688 15.152091026306152 C13.29159927368164 15.641578674316406 12.597715377807617 16.4946231842041 11.900435447692871 16.204269409179688 C9.591073989868164 15.242630958557129 10.072232246398926 11.444513320922852 12.097341537475586 10.7197904586792 L12.097341537475586 10.7197904586792"></path></svg>