<svg xmlns="http://www.w3.org/2000/svg" viewBox="0.0 0.0 24.0 24.0" height="200px" width="200px"><path fill="none" stroke="black" stroke-width=".3" stroke-opacity="1.0"  filling="0" d="M10.713712692260742 8.335780143737793 C16.793588638305664 6.682844638824463 20.254114151000977 9.056251525878906 21.105098724365234 16.082923889160156 C17.758493423461914 16.082923889160156 14.652543067932129 16.082923889160156 11.293863296508789 16.082923889160156 C11.003410339355469 17.376754760742188 10.725783348083496 18.434452056884766 10.53189754486084 19.507238388061523 C9.751072883605957 23.822521209716797 10.442876815795898 24.39739227294922 14.7649507522583 23.083946228027344 C14.98448657989502 23.01755714416504 15.242497444152832 23.075647354125977 15.508054733276367 23.075647354125977 C12.485092163085938 25.81192970275879 7.437264919281006 25.884353637695312 4.25134801864624 23.259723663330078 C1.4320793151855469 20.93686294555664 1.1197481155395508 17.082530975341797 3.4961729049682617 13.383606910705566 C5.204935550689697 10.724275588989258 7.685469150543213 9.15960693359375 10.713712692260742 8.335780143737793"></path>
<path fill="none" stroke="black" stroke-width=".3" stroke-opacity="1.0"  filling="0" d="M14.789846420288086 8.706199645996094 C15.105947494506836 9.54813289642334 15.692886352539062 10.396856307983398 15.673273086547852 11.231245040893555 C15.645358085632324 12.435300827026367 15.177618026733398 13.628793716430664 14.824549674987793 15.13763427734375 C13.847575187683105 15.21081256866455 12.817036628723145 15.287763595581055 11.311967849731445 15.400927543640137 C11.74500560760498 13.35644817352295 11.831764221191406 11.808377265930176 12.438318252563477 10.503229141235352 C12.806475639343262 9.711087226867676 13.978845596313477 9.292384147644043 14.789846420288086 8.706199645996094"></path></svg>