<svg xmlns="http://www.w3.org/2000/svg" viewBox="0.0 0.0 24.0 24.0" height="200px" width="200px"><path fill="none" stroke="black" stroke-width=".3" stroke-opacity="1.0"  filling="0" d="M11.536713600158691 2.743032455444336 C12.574782371520996 2.301319122314453 13.661550521850586 2.1650466918945312 14.543695449829102 2.9630355834960938 C14.86109733581543 3.250105857849121 15.05162239074707 4.044676780700684 14.885446548461914 4.428292751312256 C14.414685249328613 5.515915393829346 13.399256706237793 5.877316951751709 12.005766868591309 6.1464457511901855 C11.404711723327637 5.662868499755859 10.511887550354004 5.2912139892578125 10.271380424499512 4.668373107910156 C9.922367095947266 3.76401424407959 10.68489933013916 3.105715751647949 11.536713600158691 2.743032455444336"></path>
<path fill="none" stroke="black" stroke-width=".3" stroke-opacity="1.0"  filling="0" d="M8.625848770141602 7.960289478302002 C10.20644760131836 7.960289478302002 12.103592872619629 7.960289478302002 14.30019760131836 7.960289478302002 C13.475296020507812 11.560636520385742 12.767870903015137 15.13877010345459 11.805841445922852 18.64727210998535 C11.2902250289917 20.528610229492188 9.326865196228027 21.781982421875 7.594614505767822 21.562408447265625 C6.9299092292785645 21.478252410888672 5.9114909172058105 20.95623016357422 5.805975437164307 20.4700870513916 C5.661585807800293 19.80580711364746 6.02854061126709 18.725021362304688 6.558254718780518 18.30509376525879 C7.098221302032471 17.877050399780273 8.473770141601562 17.669864654541016 8.814665794372559 18.018878936767578 C9.332419395446777 18.54901695251465 9.271759033203125 19.643047332763672 9.41871166229248 20.322277069091797 C10.937368392944336 18.512706756591797 10.575538635253906 17.572036743164062 7.722344875335693 16.710397720336914 C7.690732955932617 13.814057350158691 9.525936126708984 11.042028427124023 8.625848770141602 7.960289478302002"></path></svg>