<svg xmlns="http://www.w3.org/2000/svg" viewBox="0.0 0.0 24.0 24.0" height="200px" width="200px"><path fill="none" stroke="black" stroke-width=".3" stroke-opacity="1.0"  filling="0" d="M10.136758804321289 5.896416664123535 C12.073203086853027 5.409600734710693 14.544782638549805 5.4810004234313965 16.32832908630371 6.286589622497559 C20.04759979248047 7.967726230621338 20.983009338378906 11.590353965759277 20.82794952392578 15.368762016296387 C20.673608779907227 19.137075424194336 19.496597290039062 22.490692138671875 15.617940902709961 24.091053009033203 C9.702592849731445 26.53234100341797 4.4731125831604 22.36087417602539 4.423348903656006 15.196393966674805 C4.388731479644775 10.270543098449707 6.223484516143799 6.880144119262695 10.136758804321289 5.896416664123535"></path>
<path fill="none" stroke="black" stroke-width=".3" stroke-opacity="1.0"  filling="0" d="M12.59103012084961 8.781248092651367 C14.167590141296387 8.40405559539795 15.357583999633789 9.495244026184082 15.917963027954102 10.926119804382324 C16.90890121459961 13.458282470703125 16.927654266357422 16.070497512817383 16.04273223876953 18.656028747558594 C15.438360214233398 20.422988891601562 14.259904861450195 21.455759048461914 12.298940658569336 21.345413208007812 C10.466351509094238 21.242280960083008 9.52156925201416 20.03569984436035 9.065044403076172 18.45481300354004 C8.771512985229492 17.43718910217285 8.76718521118164 16.33590316772461 8.571738243103027 14.790353775024414 C8.806130409240723 13.717917442321777 8.835700035095215 12.051206588745117 9.558350563049316 10.77827262878418 C10.100698471069336 9.824113845825195 11.457291603088379 9.052422523498535 12.59103012084961 8.781248092651367"></path></svg>