<svg xmlns="http://www.w3.org/2000/svg" viewBox="0.0 0.0 24.0 24.0" height="200px" width="200px"><path fill="none" stroke="black" stroke-width=".3" stroke-opacity="1.0"  filling="0" d="M16.60863494873047 3.7349634170532227 C18.672319412231445 3.7349634170532227 20.594600677490234 3.7349634170532227 22.671091079711914 3.7349634170532227 C16.412120819091797 8.298785209655762 12.869842529296875 14.979177474975586 7.9770121574401855 20.47769546508789 C7.291715621948242 21.24761199951172 6.57301664352417 21.987464904785156 5.869349002838135 22.741235733032227 C5.660586357116699 22.634347915649414 5.451824188232422 22.527462005615234 5.243618488311768 22.420578002929688 C5.536442279815674 19.977222442626953 5.809225559234619 17.53164291381836 6.128213882446289 15.092187881469727 C6.451655864715576 12.618215560913086 6.720541954040527 10.130884170532227 7.2043137550354 7.686973571777344 C7.548353672027588 5.949513912200928 7.604580402374268 4.561106204986572 5.0699286460876465 4.284426689147949 C7.047881126403809 3.4415836334228516 9.982799530029297 3.329130172729492 13.458272933959961 3.87636661529541 C12.924398422241211 4.229869842529297 12.588708877563477 4.3946533203125 12.325390815734863 4.637930870056152 C11.709680557250977 5.2068772315979 11.10120964050293 5.789185047149658 10.551746368408203 6.419924736022949 C10.401437759399414 6.591945648193359 10.483272552490234 6.95713996887207 10.43651008605957 7.2304792404174805 C9.875913619995117 10.498861312866211 9.310864448547363 13.766128540039062 8.746927261352539 17.033954620361328 C9.001338958740234 17.247169494628906 9.255193710327148 17.460384368896484 9.509605407714844 17.674158096313477 C9.766800880432129 17.120800018310547 9.942161560058594 16.507314682006836 10.29566478729248 16.02410125732422 C12.425039291381836 13.114233016967773 14.618433952331543 10.252243041992188 16.742799758911133 7.3384785652160645 C17.99759864807129 5.617164611816406 17.958072662353516 5.588216304779053 16.60863494873047 3.7349634170532227"></path></svg>