<svg xmlns="http://www.w3.org/2000/svg" viewBox="0.0 0.0 24.0 24.0" height="200px" width="200px"><path fill="none" stroke="black" stroke-width=".3" stroke-opacity="1.0"  filling="0" d="M19.63715171813965 6.059460163116455 C19.63715171813965 12.287622451782227 19.63715171813965 18.251026153564453 19.63715171813965 24.379623413085938 C17.802997589111328 25.257247924804688 16.215166091918945 25.345745086669922 15.606729507446289 22.676742553710938 C14.575708389282227 23.39801788330078 13.767412185668945 24.131824493408203 12.825628280639648 24.5935001373291 C9.290803909301758 26.32293128967285 5.401981830596924 24.564739227294922 5.080433368682861 20.682552337646484 C4.6888227462768555 15.959622383117676 4.987509250640869 11.179165840148926 4.987509250640869 6.262272357940674 C6.398340702056885 6.262272357940674 7.5621113777160645 6.262272357940674 9.065868377685547 6.262272357940674 C9.065868377685547 10.064069747924805 9.061443328857422 13.722055435180664 9.068079948425293 17.380041122436523 C9.07103157043457 19.254756927490234 8.967781066894531 21.244525909423828 11.527632713317871 21.5778751373291 C13.460613250732422 21.829360961914062 15.372942924499512 20.165569305419922 15.532241821289062 17.622676849365234 C15.761604309082031 13.966903686523438 15.590505599975586 10.28679370880127 15.590505599975586 6.3256964683532715 C17.0544376373291 6.229084491729736 18.205669403076172 6.153859615325928 19.63715171813965 6.059460163116455"></path></svg>