<svg xmlns="http://www.w3.org/2000/svg" viewBox="0.0 0.0 24.0 24.0" height="200px" width="200px"><path fill="none" stroke="black" stroke-width=".3" stroke-opacity="1.0"  filling="0" d="M14.056286811828613 8.243565559387207 C14.839960098266602 11.073244094848633 15.60364055633545 13.829237937927246 16.36732292175293 16.58523178100586 C16.546676635742188 16.59265899658203 16.72660255432129 16.59951400756836 16.905956268310547 16.606937408447266 C17.698196411132812 13.937192916870117 18.491008758544922 11.267449378967285 19.328947067260742 8.443482398986816 C20.149749755859375 8.443482398986816 20.943132400512695 8.443482398986816 21.935861587524414 8.443482398986816 C20.57471466064453 13.16494369506836 19.264972686767578 17.70705223083496 17.918106079101562 22.379390716552734 C17.020193099975586 22.440509796142578 16.19996452331543 22.495914459228516 15.122697830200195 22.569026947021484 C14.2950439453125 19.522296905517578 13.48452377319336 16.539539337158203 12.674003601074219 13.5562105178833 C12.546628952026367 13.543643951416016 12.4192533493042 13.531648635864258 12.291876792907715 13.519083023071289 C11.521912574768066 16.42987060546875 10.752518653869629 19.340085983276367 9.951138496398926 22.369110107421875 C9.062365531921387 22.436511993408203 8.236995697021484 22.499343872070312 7.076907157897949 22.587875366210938 C5.644933700561523 17.904109954833984 4.223239898681641 13.253477096557617 2.735288619995117 8.386362075805664 C4.010186672210693 8.386362075805664 4.931517124176025 8.386362075805664 6.01963472366333 8.386362075805664 C6.9072651863098145 11.250311851501465 7.7926106452941895 14.105693817138672 8.86759090423584 17.572250366210938 C9.775784492492676 14.099981307983398 10.507479667663574 11.301719665527344 11.267733573913574 8.394930839538574 C12.195347785949707 8.344666481018066 13.024145126342773 8.299542427062988 14.056286811828613 8.243565559387207"></path></svg>