<svg xmlns="http://www.w3.org/2000/svg" viewBox="0.0 0.0 24.0 24.0" height="200px" width="200px"><path fill="none" stroke="black" stroke-width=".3" stroke-opacity="1.0"  filling="0" d="M10.88710880279541 11.144214630126953 L10.88710880279541 11.144214630126953 C12.19674301147461 11.144214630126953 13.506378173828125 11.144214630126953 14.81601333618164 11.144214630126953 L14.81601333618164 11.144214630126953 C14.636689186096191 12.150537490844727 14.833968162536621 13.27461051940918 15.332599639892578 14.166915893554688 L15.332599639892578 14.166915893554688 C14.8612060546875 14.981613159179688 14.379327774047852 15.79035472869873 13.886054039001465 16.59199333190918 L13.886054039001465 16.59199333190918 C13.32890510559082 16.59199333190918 12.77175521850586 16.59199333190918 12.214606285095215 16.59199333190918 L12.214606285095215 16.59199333190918 C11.990344047546387 15.657276153564453 11.766057014465332 14.722563743591309 11.54175090789795 13.787857055664062 L11.54175090789795 13.787857055664062 C11.312714576721191 13.962428092956543 11.083677291870117 14.136998176574707 10.85464096069336 14.311569213867188 L10.813990592956543 14.26801586151123 C11.129874229431152 13.275519371032715 11.14833927154541 12.152475357055664 10.88710880279541 11.144214630126953 L10.88710880279541 11.144214630126953"></path>
<path fill="none" stroke="black" stroke-width=".3" stroke-opacity="1.0"  filling="0" d="M15.23546028137207 11.165860176086426 L15.23546028137207 11.165860176086426 C16.00739097595215 11.165860176086426 16.77932357788086 11.165860176086426 17.551254272460938 11.165860176086426 L17.551254272460938 11.165860176086426 C17.125343322753906 11.685178756713867 15.971837043762207 13.091827392578125 15.561724662780762 13.59199333190918 L15.561724662780762 13.59199333190918 C15.814661979675293 12.816194534301758 15.671426773071289 11.855624198913574 15.23546028137207 11.165860176086426 L15.23546028137207 11.165860176086426"></path>
<path fill="none" stroke="black" stroke-width=".3" stroke-opacity="1.0"  filling="0" d="M6.7515177726745605 11.174043655395508 L6.7515177726745605 11.174043655395508 C7.888957500457764 11.174043655395508 9.026396751403809 11.174043655395508 10.163836479187012 11.174043655395508 L10.163836479187012 11.174043655395508 C10.211905479431152 12.22688102722168 10.436372756958008 13.284317016601562 10.813990592956543 14.268279075622559 L10.813990592956543 14.268279075622559 C10.827629089355469 14.282710075378418 10.841266632080078 14.297140121459961 10.854905128479004 14.31157112121582 L10.854905128479004 14.31157112121582 C10.459919929504395 15.077078819274902 10.064935684204102 15.8425874710083 9.669951438903809 16.608095169067383 L9.669951438903809 16.608095169067383 C9.106290817260742 16.608095169067383 8.542631149291992 16.608095169067383 7.978970527648926 16.608095169067383 L7.978970527648926 16.608095169067383 C7.56993293762207 14.79671859741211 7.160762786865234 12.985372543334961 6.7515177726745605 11.174043655395508 L6.7515177726745605 11.174043655395508"></path></svg>