<svg xmlns="http://www.w3.org/2000/svg" viewBox="0.0 0.0 24.0 24.0" height="200px" width="200px"><path fill="none" stroke="black" stroke-width=".3" stroke-opacity="1.0"  filling="0" d="M3.47794246673584 6.706368446350098 C6.388089656829834 6.706368446350098 9.25379753112793 6.706368446350098 11.827048301696777 6.706368446350098 C12.14772891998291 8.18486213684082 12.461203575134277 9.630327224731445 12.813111305236816 11.254148483276367 C13.593193054199219 10.800751686096191 14.076616287231445 10.519705772399902 14.560040473937988 10.238659858703613 C14.560040473937988 10.238658905029297 14.500588417053223 10.182209014892578 14.500588417053223 10.182209014892578 C11.896709442138672 13.782358169555664 9.292831420898438 17.382511138916016 6.688952445983887 20.9826602935791 L6.749605655670166 21.03911018371582 C7.921230792999268 19.287376403808594 7.515876293182373 17.585487365722656 6.7838358879089355 15.768898010253906 C5.597197532653809 12.822720527648926 4.596121788024902 9.802077293395996 3.47794246673584 6.706368446350098"></path>
<path fill="none" stroke="black" stroke-width=".3" stroke-opacity="1.0"  filling="0" d="M13.862228393554688 6.718979358673096 C15.21100902557373 6.718979358673096 16.559188842773438 6.718979358673096 18.377578735351562 6.718979358673096 C16.924306869506836 8.017314910888672 15.712448120117188 9.099462509155273 14.500587463378906 10.182209968566895 L14.560040473937988 10.238658905029297 C14.48797607421875 9.07183837890625 15.67881965637207 7.64799165725708 13.862228393554688 6.718979358673096"></path>
<path fill="none" stroke="black" stroke-width=".3" stroke-opacity="1.0"  filling="0" d="M6.688952445983887 20.9826602935791 C5.574977874755859 22.419116973876953 4.585912227630615 23.982284545898438 3.3049917221069336 25.2499942779541 C2.385586738586426 26.160388946533203 1.0151872634887695 26.13216781616211 0.07476425170898438 25.108871459960938 C-0.9539356231689453 23.989490509033203 -0.6560745239257812 22.683948516845703 0.1492290496826172 21.550758361816406 C1.501011848449707 19.64769172668457 3.5572118759155273 19.734167098999023 5.276515960693359 21.776554107666016 C5.7545342445373535 21.536945343017578 6.2523698806762695 21.288326263427734 6.749605655670166 21.039108276367188 L6.688952445983887 20.9826602935791"></path></svg>