<svg xmlns="http://www.w3.org/2000/svg" viewBox="0.0 0.0 24.0 24.0" height="200px" width="200px"><path fill="none" stroke="black" stroke-width=".3" stroke-opacity="1.0"  filling="0" d="M11.675869941711426 7.24733304977417 L11.712861061096191 7.28679084777832 C12.886826515197754 7.01262092590332 15.199699401855469 6.443336486816406 16.117507934570312 7.745473384857178 C17.521615982055664 9.73754596710205 15.765950202941895 11.029353141784668 14.137897491455078 11.658453941345215 L14.137897491455078 11.658453941345215 C15.030476570129395 12.449427604675293 15.900683403015137 12.84476089477539 15.959141731262207 14.1753511428833 C16.02875328063965 15.759786605834961 14.417856216430664 16.99005699157715 12.55704116821289 17.541757583618164 C10.6962251663208 18.09345817565918 8.585490226745605 17.966588973999023 7.655424118041992 16.836742401123047 C5.364433288574219 14.053641319274902 11.816202163696289 12.668929100036621 9.963825225830078 15.93209171295166 C9.691585540771484 16.411670684814453 9.061461448669434 16.566272735595703 8.61028003692627 16.883363723754883 L8.61028003692627 16.883363723754883 C9.168966293334961 17.000701904296875 9.716253280639648 17.265403747558594 10.286338806152344 17.235380172729492 C11.980243682861328 17.146169662475586 12.097708702087402 13.449813842773438 12.34293270111084 12.274961471557617 L12.34293270111084 12.274961471557617 C11.8383207321167 12.085898399353027 11.333707809448242 11.896836280822754 10.829095840454102 11.707773208618164 L10.829095840454102 11.707773208618164 C11.39124870300293 11.59310245513916 11.953402519226074 11.478432655334473 12.515555381774902 11.363761901855469 L12.515555381774902 11.363761901855469 C12.785799026489258 10.103619575500488 13.056034088134766 8.843475341796875 13.326263427734375 7.583330154418945 L13.326263427734375 7.583330154418945 C12.776132583618164 7.4713311195373535 12.226000785827637 7.359332084655762 11.675869941711426 7.24733304977417 L11.675869941711426 7.24733304977417"></path>
<path fill="none" stroke="black" stroke-width=".3" stroke-opacity="1.0"  filling="0" d="M11.675869941711426 7.2473344802856445 L11.675869941711426 7.2473344802856445 C11.705947875976562 8.270405769348145 11.360204696655273 11.737425804138184 9.378450393676758 10.11132526397705 C7.577655792236328 8.633708000183105 10.767230033874512 7.334939002990723 11.712861061096191 7.28679084777832 L11.675869941711426 7.2473344802856445"></path></svg>