<svg xmlns="http://www.w3.org/2000/svg" viewBox="0.0 0.0 24.0 24.0" height="200px" width="200px"><path fill="none" stroke="black" stroke-width=".3" stroke-opacity="1.0"  filling="0" d="M14.423629760742188 3.8007326126098633 C14.636110305786133 4.419647693634033 15.11119270324707 5.082693576812744 15.015849113464355 5.649851322174072 C14.639925003051758 7.8797993659973145 14.079849243164062 10.077603340148926 13.598228454589844 12.289571762084961 C13.335081100463867 13.4979829788208 12.6251802444458 13.93710708618164 10.902460098266602 13.494169235229492 C11.516471862792969 10.580471992492676 12.011713027954102 7.838392734527588 12.727605819702148 5.154609680175781 C12.876886367797852 4.592355251312256 13.836858749389648 4.246395111083984 14.423629760742188 3.8007326126098633"></path>
<path fill="none" stroke="black" stroke-width=".3" stroke-opacity="1.0"  filling="0" d="M17.77263832092285 3.868833541870117 C19.43978500366211 4.891460418701172 20.23141098022461 6.525375843048096 20.5599365234375 8.352701187133789 C21.965572357177734 16.168689727783203 13.299668312072754 23.90949249267578 5.658567428588867 21.703516006469727 C4.37224817276001 21.33194923400879 3.25482177734375 20.79203224182129 3.164381980895996 19.233301162719727 C3.0875625610351562 17.911022186279297 3.6830501556396484 16.822473526000977 4.870213031768799 16.41603660583496 C5.7043328285217285 16.130550384521484 7.049492835998535 16.04229164123535 7.576333999633789 16.518463134765625 C8.104264259338379 16.99627113342285 8.0541410446167 18.300024032592773 7.955528736114502 19.20932960510254 C7.899412631988525 19.727453231811523 7.239634990692139 20.17965316772461 6.854447364807129 20.658550262451172 C10.880666732788086 22.0244140625 12.50804328918457 20.41229248046875 12.911211013793945 14.558746337890625 C11.408597946166992 14.558746337890625 10.0438232421875 14.728730201721191 8.737890243530273 14.525511741638184 C5.418302059173584 14.007932662963867 4.019204616546631 11.478878021240234 5.17095422744751 8.33581256866455 C6.813586235046387 3.854123115539551 13.7344331741333 1.3926277160644531 17.77263832092285 3.868833541870117"></path></svg>