<svg xmlns="http://www.w3.org/2000/svg" viewBox="0.0 0.0 24.0 24.0" height="200px" width="200px"><path fill="none" stroke="black" stroke-width=".3" stroke-opacity="1.0"  filling="0" d="M7.723588943481445 7.139595031738281 L7.723588943481445 7.139595031738281 C9.433331489562988 7.279265880584717 11.14307689666748 7.418943405151367 12.852818489074707 7.558631896972656 L12.852818489074707 7.558631896972656 C12.018850326538086 7.558631896972656 11.184882164001465 7.558631896972656 10.350914001464844 7.558631896972656 L10.350914001464844 7.558631896972656 C10.350914001464844 9.237372398376465 10.350914001464844 10.91611099243164 10.350914001464844 12.594850540161133 C10.350914001464844 14.273590087890625 10.350914001464844 15.9523286819458 10.350914001464844 17.63106918334961 L10.350914001464844 17.63106918334961 C11.729272842407227 17.630107879638672 13.647093772888184 17.874832153320312 14.47795295715332 16.42965316772461 C15.00329303741455 15.515887260437012 14.983595848083496 13.821990966796875 15.005810737609863 12.861245155334473 C15.064300537109375 10.331746101379395 15.0221529006958 8.901738166809082 12.796428680419922 7.522010326385498 L12.796428680419922 7.522010326385498 C14.83653450012207 8.020661354064941 16.289548873901367 9.643892288208008 16.781169891357422 11.501916885375977 C17.272789001464844 13.359941482543945 16.803016662597656 15.452759742736816 14.997546195983887 16.89058494567871 C13.042072296142578 18.44786834716797 10.074995040893555 17.963285446166992 7.775765895843506 17.78209114074707 L7.775765895843506 17.78209114074707 C8.065818786621094 17.68583869934082 8.355871200561523 17.589588165283203 8.645923614501953 17.493335723876953 L8.645923614501953 17.493335723876953 C8.645923614501953 15.866394996643066 8.645923614501953 14.23945426940918 8.645923614501953 12.612513542175293 C8.645923614501953 10.985572814941406 8.645923614501953 9.358631134033203 8.645923614501953 7.731690406799316 L8.645923614501953 7.731690406799316 C8.331025123596191 7.626688480377197 8.01612663269043 7.52168607711792 7.70122766494751 7.416684150695801 L7.70122766494751 7.416684150695801 C7.708681583404541 7.324321269989014 7.716135025024414 7.231957912445068 7.723588943481445 7.139595031738281 L7.723588943481445 7.139595031738281"></path></svg>