<svg xmlns="http://www.w3.org/2000/svg" viewBox="0.0 0.0 24.0 24.0" height="200px" width="200px"><path fill="none" stroke="black" stroke-width=".3" stroke-opacity="1.0"  filling="0" d="M11.10421371459961 6.965662956237793 L11.10421371459961 6.965662956237793 C12.189445495605469 6.965662956237793 13.274677276611328 6.965662956237793 14.359909057617188 6.965662956237793 L14.359909057617188 6.965662956237793 C14.364710807800293 6.997898578643799 14.369511604309082 7.030134201049805 14.374313354492188 7.0623698234558105 L14.374313354492188 7.0623698234558105 C14.056464195251465 7.138206958770752 13.738615989685059 7.214043617248535 13.420766830444336 7.289880752563477 L13.420766830444336 7.289880752563477 C13.423717498779297 9.514949798583984 13.467855453491211 11.745458602905273 13.410772323608398 13.969996452331543 C13.383333206176758 15.039290428161621 13.369550704956055 16.383750915527344 12.482726097106934 17.17208480834961 C11.117131233215332 18.386016845703125 9.199888229370117 17.694334030151367 10.105987548828125 15.89884090423584 L10.105987548828125 15.89884090423584 C10.454526901245117 16.321331024169922 10.696205139160156 16.927997589111328 10.597457885742188 17.466724395751953 L10.597457885742188 17.466724395751953 C12.329132080078125 16.880949020385742 11.986197471618652 16.265745162963867 11.989828109741211 14.438748359680176 C11.99455451965332 12.060599327087402 11.990452766418457 9.682435035705566 11.989564895629883 7.304283618927002 L11.989564895629883 7.304283618927002 C11.690234184265137 7.2277607917785645 11.390904426574707 7.151238441467285 11.091573715209961 7.074715614318848 L11.091573715209961 7.074715614318848 C11.095787048339844 7.038364887237549 11.100000381469727 7.002013683319092 11.10421371459961 6.965662956237793 L11.10421371459961 6.965662956237793"></path></svg>