<svg xmlns="http://www.w3.org/2000/svg" viewBox="0.0 0.0 24.0 24.0" height="200px" width="200px"><path fill="none" stroke="black" stroke-width=".3" stroke-opacity="1.0"  filling="0" d="M16.517070770263672 7.027272701263428 L16.517070770263672 7.027272701263428 C15.834704399108887 7.369085311889648 15.152352333068848 7.710926055908203 14.470012664794922 8.0527925491333 L14.470012664794922 8.0527925491333 C14.530102729797363 7.824382781982422 14.590193748474121 7.595973014831543 14.650283813476562 7.367563247680664 L14.650283813476562 7.367563247680664 C14.36499309539795 7.293307781219482 14.079702377319336 7.219052791595459 13.794411659240723 7.144797325134277 L13.794411659240723 7.144797325134277 C13.795296669006348 7.1057329177856445 13.796182632446289 7.06666898727417 13.797067642211914 7.027604579925537 L13.797067642211914 7.027604579925537 C14.7037353515625 7.027413845062256 15.610403060913086 7.027300834655762 16.517070770263672 7.027272701263428 L16.517070770263672 7.027272701263428"></path>
<path fill="none" stroke="black" stroke-width=".3" stroke-opacity="1.0"  filling="0" d="M7.756158351898193 7.0309247970581055 L7.756158351898193 7.0309247970581055 C7.90785026550293 7.0309247970581055 11.6594820022583 7.0309247970581055 11.665352821350098 7.0309247970581055 L11.665352821350098 7.0309247970581055 C11.228784561157227 7.158298492431641 10.792216300964355 7.285672187805176 10.355648040771484 7.413045883178711 L10.355648040771484 7.413045883178711 C10.355648040771484 9.078922271728516 10.355648040771484 10.744796752929688 10.355648040771484 12.410672187805176 C10.355648040771484 14.076547622680664 10.355648040771484 15.742422103881836 10.355648040771484 17.40829849243164 L10.355648040771484 17.40829849243164 C10.697155952453613 17.507896423339844 11.038664817810059 17.607494354248047 11.380172729492188 17.70709228515625 L11.380172729492188 17.70709228515625 C11.374528884887695 17.747041702270508 11.368885040283203 17.7869930267334 11.363241195678711 17.826942443847656 L11.363241195678711 17.826942443847656 C10.158113479614258 17.826942443847656 8.952985763549805 17.826942443847656 7.74785852432251 17.826942443847656 L7.74785852432251 17.826942443847656 C7.739116191864014 17.783782958984375 7.730373382568359 17.740623474121094 7.721631050109863 17.697463989257812 L7.721631050109863 17.697463989257812 C8.027505874633789 17.61800765991211 8.333379745483398 17.538551330566406 8.639254570007324 17.459095001220703 L8.639254570007324 17.459095001220703 C8.639396667480469 15.776123046875 8.63947868347168 14.093149185180664 8.639525413513184 12.410175323486328 C8.639572143554688 10.727202415466309 8.6395845413208 9.044228553771973 8.639586448669434 7.361255645751953 L8.639586448669434 7.361255645751953 C8.344335556030273 7.291205406188965 8.04908561706543 7.221155643463135 7.7538347244262695 7.1511054039001465 L7.7538347244262695 7.1511054039001465 C7.754609107971191 7.1110453605651855 7.7553839683532715 7.070984840393066 7.756158351898193 7.0309247970581055 L7.756158351898193 7.0309247970581055"></path>
<path fill="none" stroke="black" stroke-width=".3" stroke-opacity="1.0"  filling="0" d="M13.144372940063477 9.272195816040039 L13.144372940063477 9.272195816040039 C13.220398902893066 9.329962730407715 13.296424865722656 9.387728691101074 13.372450828552246 9.44549560546875 L13.372450828552246 9.44549560546875 C12.905780792236328 10.055583953857422 12.439112663269043 10.665672302246094 11.972444534301758 11.275761604309082 L11.972444534301758 11.275761604309082 C12.79679012298584 12.362261772155762 13.62109088897705 13.448796272277832 14.44536304473877 14.53535270690918 C15.269636154174805 15.621908187866211 16.093881607055664 16.708484649658203 16.918115615844727 17.79507064819336 L16.918115615844727 17.79507064819336 C15.869134902954102 17.79507064819336 14.82015323638916 17.79507064819336 13.771172523498535 17.79507064819336 L13.771172523498535 17.79507064819336 C13.759774208068848 17.754789352416992 13.748374938964844 17.714506149291992 13.736976623535156 17.674224853515625 L13.736976623535156 17.674224853515625 C14.018062591552734 17.587465286254883 14.299149513244629 17.500703811645508 14.580235481262207 17.413944244384766 L14.580235481262207 17.413944244384766 C13.253883361816406 15.640843391418457 11.927413940429688 13.867830276489258 10.600990295410156 12.094782829284668 L10.600990295410156 12.094782829284668 C10.627951622009277 12.064861297607422 13.096131324768066 9.325732231140137 13.144372940063477 9.272195816040039 L13.144372940063477 9.272195816040039"></path></svg>