<svg xmlns="http://www.w3.org/2000/svg" viewBox="0.0 0.0 24.0 24.0" height="200px" width="200px"><path fill="none" stroke="black" stroke-width=".3" stroke-opacity="1.0"  filling="0" d="M8.991440773010254 7.0179572105407715 L8.991440773010254 7.0179572105407715 C10.244369506835938 7.0179572105407715 11.497297286987305 7.0179572105407715 12.750226974487305 7.0179572105407715 C14.003154754638672 7.0179572105407715 15.256084442138672 7.0179572105407715 16.50901222229004 7.0179572105407715 L16.50901222229004 7.0179572105407715 C16.46863555908203 7.534968376159668 16.428260803222656 8.051979064941406 16.38788414001465 8.568990707397461 L16.38788414001465 8.568990707397461 C16.36236000061035 8.570629119873047 13.601551055908203 8.747767448425293 13.57166576385498 8.74968433380127 L13.57166576385498 8.74968433380127 C13.308451652526855 10.26107406616211 13.045211791992188 11.77245807647705 12.781939506530762 13.283836364746094 C12.518667221069336 14.795215606689453 12.255361557006836 16.30658721923828 11.992013931274414 17.817955017089844 L11.992013931274414 17.817955017089844 C11.325811386108398 17.817955017089844 10.659608840942383 17.817955017089844 9.993406295776367 17.817955017089844 L9.993406295776367 17.817955017089844 C10.240140914916992 16.305086135864258 10.486839294433594 14.792211532592773 10.733524322509766 13.279335021972656 C10.980209350585938 11.766457557678223 11.22688102722168 10.253578186035156 11.473560333251953 8.740699768066406 L11.473560333251953 8.740699768066406 C10.585952758789062 8.683075904846191 9.698348045349121 8.625395774841309 8.810747146606445 8.567659378051758 L8.810747146606445 8.567659378051758 C8.870978355407715 8.051092147827148 8.931209564208984 7.534524440765381 8.991440773010254 7.0179572105407715 L8.991440773010254 7.0179572105407715"></path></svg>