<svg xmlns="http://www.w3.org/2000/svg" viewBox="0.0 0.0 24.0 24.0" height="200px" width="200px"><path fill="none" stroke="black" stroke-width=".3" stroke-opacity="1.0"  filling="0" d="M11.608159065246582 5.206509113311768 C12.488059997558594 5.206509113311768 13.294222831726074 5.206509113311768 14.255504608154297 5.206509113311768 C14.654765129089355 8.645630836486816 15.0477294921875 12.027650833129883 15.440694808959961 15.40967082977295 C15.547253608703613 15.424059867858887 15.654263496398926 15.437997817993164 15.760823249816895 15.452384948730469 C17.154186248779297 12.08745002746582 18.547100067138672 8.722515106201172 19.98317527770996 5.253718376159668 C20.696269989013672 5.253718376159668 21.400819778442383 5.253718376159668 22.34726333618164 5.253718376159668 C20.24170684814453 10.212995529174805 18.205841064453125 15.007713317871094 16.14614486694336 19.85908317565918 C15.265344619750977 19.85908317565918 14.463227272033691 19.85908317565918 13.43899917602539 19.85908317565918 C13.024002075195312 16.463125228881836 12.609905242919922 13.075709342956543 12.196256637573242 9.688294410705566 C12.068567276000977 9.641083717346191 11.940425872802734 9.593423843383789 11.812734603881836 9.545764923095703 C10.383401870727539 12.958807945251465 8.954069137573242 16.37185287475586 7.4964094161987305 19.850988388061523 C6.6389899253845215 19.850988388061523 5.844516277313232 19.850988388061523 4.8652496337890625 19.850988388061523 C4.295135974884033 15.008163452148438 3.7304162979125977 10.213895797729492 3.147263526916504 5.260912895202637 C4.162498950958252 5.260912895202637 4.948429584503174 5.260912895202637 5.979401111602783 5.260912895202637 C6.30987024307251 8.604266166687012 6.643935203552246 11.980441093444824 6.977551460266113 15.356165885925293 C7.080963611602783 15.385391235351562 7.183926105499268 15.414616584777832 7.287337779998779 15.443392753601074 C8.722965240478516 12.041589736938477 10.158594131469727 8.639785766601562 11.608159065246582 5.206509113311768"></path></svg>