<svg xmlns="http://www.w3.org/2000/svg" viewBox="0.0 0.0 24.0 24.0" height="200px" width="200px"><path fill="none" stroke="black" stroke-width=".3" stroke-opacity="1.0"  filling="0" d="M15.57465934753418 10.345511436462402 L15.57465934753418 10.345511436462402 C16.72854232788086 12.168010711669922 17.26961898803711 12.302408218383789 16.108142852783203 14.202276229858398 L16.108142852783203 14.202276229858398 C14.742992401123047 12.603931427001953 15.095758438110352 12.362467765808105 15.57465934753418 10.345511436462402 L15.57465934753418 10.345511436462402"></path>
<path fill="none" stroke="black" stroke-width=".3" stroke-opacity="1.0"  filling="0" d="M11.627303123474121 10.701520919799805 L11.627303123474121 10.701520919799805 C11.02705192565918 12.569780349731445 10.719914436340332 14.256644248962402 10.733161926269531 15.93851089477539 C10.74640941619873 17.620376586914062 11.08004379272461 19.297245025634766 11.761336326599121 21.145511627197266 L11.761336326599121 21.145511627197266 C10.30776596069336 20.309162139892578 9.08400821685791 19.07534408569336 8.486193656921387 17.637439727783203 C7.888378143310547 16.199535369873047 7.916505813598633 14.557546615600586 8.966705322265625 12.904855728149414 C9.753405570983887 11.666831970214844 10.398250579833984 11.469484329223633 11.627303123474121 10.701520919799805 L11.627303123474121 10.701520919799805"></path></svg>