<svg xmlns="http://www.w3.org/2000/svg" viewBox="0.0 0.0 24.0 24.0" height="200px" width="200px"><path fill="none" stroke="black" stroke-width=".3" stroke-opacity="1.0"  filling="0" d="M14.046611785888672 8.299007415771484 L14.046611785888672 8.299007415771484 C15.994157791137695 9.11752986907959 16.34857177734375 9.684971809387207 16.98715591430664 11.698221206665039 L16.98715591430664 11.698221206665039 C16.523414611816406 11.82322883605957 16.059673309326172 11.948236465454102 15.595932006835938 12.073244094848633 L15.595932006835938 12.073244094848633 C14.58458423614502 11.388208389282227 14.73812484741211 9.885263442993164 13.059226989746094 10.256567001342773 C11.019462585449219 10.70767879486084 9.949888229370117 14.761098861694336 11.078703880310059 16.332717895507812 C11.954545974731445 17.552127838134766 13.336772918701172 17.077369689941406 14.155076026916504 16.185279846191406 C14.434089660644531 15.881107330322266 14.631359100341797 15.511013984680176 14.869500160217285 15.173880577087402 L14.869500160217285 15.173880577087402 C15.378201484680176 15.36052417755127 15.88690185546875 15.547168731689453 16.39560317993164 15.73381233215332 L16.39560317993164 15.73381233215332 C16.236644744873047 17.046260833740234 15.313387870788574 18.061031341552734 14.14790153503418 18.591886520385742 C12.982415199279785 19.12274169921875 11.574700355529785 19.1696834564209 10.446828842163086 18.546478271484375 C8.7404146194458 17.603599548339844 8.180834770202637 15.645662307739258 8.397995948791504 13.691692352294922 C8.615158081054688 11.73772144317627 9.609060287475586 9.78771686553955 11.009612083435059 8.860702514648438 C12.230337142944336 8.052713394165039 12.645142555236816 8.276346206665039 14.046611785888672 8.299007415771484 L14.046611785888672 8.299007415771484"></path></svg>