<svg xmlns="http://www.w3.org/2000/svg" viewBox="0.0 0.0 24.0 24.0" height="200px" width="200px"><path fill="none" stroke="black" stroke-width=".3" stroke-opacity="1.0"  filling="0" d="M10.581984519958496 7.025055408477783 L10.581984519958496 7.025055408477783 C11.401386260986328 7.025055408477783 12.220787048339844 7.025055408477783 13.040188789367676 7.025055408477783 L13.040188789367676 7.025055408477783 C13.040188789367676 8.752161979675293 13.040188789367676 10.479269027709961 13.040188789367676 12.206375122070312 C13.040188789367676 13.93348217010498 13.040188789367676 15.660589218139648 13.040188789367676 17.3876953125 L13.040188789367676 17.3876953125 C13.485199928283691 17.533370971679688 13.93021011352539 17.679046630859375 14.375221252441406 17.824722290039062 L14.375221252441406 17.824722290039062 C13.353270530700684 17.824722290039062 12.331318855285645 17.824722290039062 11.309368133544922 17.824722290039062 L11.309368133544922 17.824722290039062 C11.908510208129883 16.313983917236328 12.037028312683105 14.53006649017334 12.015359878540039 12.719132423400879 C11.993690490722656 10.908198356628418 11.821836471557617 9.070247650146484 11.820232391357422 7.451440811157227 L11.820232391357422 7.451440811157227 C11.407483100891113 7.309312343597412 10.994733810424805 7.167183876037598 10.581984519958496 7.025055408477783 L10.581984519958496 7.025055408477783"></path></svg>