<svg xmlns="http://www.w3.org/2000/svg" viewBox="0.0 0.0 24.0 24.0" height="200px" width="200px"><path fill="none" stroke="black" stroke-width=".3" stroke-opacity="1.0"  filling="0" d="M14.142924308776855 3.5050315856933594 C14.142924308776855 4.930354118347168 14.142924308776855 6.1295552253723145 14.142924308776855 7.490354061126709 C14.992189407348633 7.576966285705566 15.816457748413086 7.661253452301025 16.80813980102539 7.7623982429504395 C16.68548583984375 8.566903114318848 16.588409423828125 9.200509071350098 16.46982765197754 9.977693557739258 C15.495004653930664 10.125341415405273 14.572497367858887 10.264850616455078 13.424449920654297 10.4386568069458 C13.023941040039062 12.925413131713867 12.631570816040039 15.382525444030762 12.23222541809082 17.83847427368164 C11.886938095092773 19.961345672607422 13.57558536529541 19.762542724609375 15.006139755249023 20.061908721923828 C14.927083969116211 20.847232818603516 14.853841781616211 21.57965850830078 14.756184577941895 22.554481506347656 C13.856928825378418 22.606796264648438 13.01231575012207 22.764904022216797 12.192115783691406 22.681781768798828 C9.939618110656738 22.45333480834961 8.841561317443848 21.307613372802734 9.024085998535156 19.044652938842773 C9.240326881408691 16.356185913085938 9.739072799682617 13.690972328186035 10.103541374206543 11.097838401794434 C9.429245948791504 10.191607475280762 8.511970520019531 9.494641304016113 8.555566787719727 8.863943099975586 C8.598001480102539 8.252426147460938 9.628046989440918 7.709500789642334 10.667974472045898 7.475822448730469 C10.978963851928711 6.379509925842285 11.28995418548584 5.283196926116943 11.679999351501465 3.9090280532836914 C12.347320556640625 3.799745559692383 13.149499893188477 3.667792320251465 14.142924308776855 3.5050315856933594"></path></svg>