<svg xmlns="http://www.w3.org/2000/svg" viewBox="0.0 0.0 24.0 24.0" height="200px" width="200px"><path fill="none" stroke="black" stroke-width=".3" stroke-opacity="1.0"  filling="0" d="M15.6616792678833 10.531896591186523 C16.809255599975586 10.531896591186523 18.383899688720703 10.531896591186523 20.38019561767578 10.531896591186523 C20.38019561767578 15.689214706420898 20.38019561767578 20.877235412597656 20.38019561767578 25.905441284179688 C21.487140655517578 26.410158157348633 22.18868637084961 26.729782104492188 22.890235900878906 27.04940414428711 C22.844186782836914 27.237207412719727 22.799043655395508 27.425010681152344 22.752994537353516 27.612810134887695 C20.872272491455078 27.38437843322754 18.99515724182129 27.03586196899414 17.109920501708984 26.978981018066406 C16.213348388671875 26.951892852783203 15.300524711608887 27.480987548828125 14.394923210144043 27.7581787109375 L14.498754501342773 27.85568618774414 C17.80243682861328 23.52361297607422 17.257991790771484 18.45296859741211 17.11533546447754 13.5087308883667 C17.086444854736328 12.497491836547852 16.163686752319336 11.51333999633789 15.6616792678833 10.531896591186523"></path>
<path fill="none" stroke="black" stroke-width=".3" stroke-opacity="1.0"  filling="0" d="M3.6902332305908203 10.58787727355957 C4.942544460296631 10.58787727355957 6.598448276519775 10.58787727355957 8.757264137268066 10.58787727355957 C8.757264137268066 14.067623138427734 8.743721008300781 17.474233627319336 8.75997257232666 20.88084602355957 C8.787961959838867 26.64761734008789 8.912561416625977 26.789371490478516 14.499658584594727 27.856590270996094 L14.39401912689209 27.759078979492188 C7.629551410675049 29.303028106689453 5.353360652923584 27.605587005615234 5.259459495544434 20.909740447998047 C5.223344326019287 18.362682342529297 5.371418476104736 15.804788589477539 5.170073509216309 13.273077011108398 C5.097842216491699 12.372894287109375 4.237386226654053 11.53501033782959 3.6902332305908203 10.58787727355957"></path></svg>