<svg xmlns="http://www.w3.org/2000/svg" viewBox="0.0 0.0 24.0 24.0" height="200px" width="200px"><path fill="none" stroke="black" stroke-width=".3" stroke-opacity="1.0"  filling="0" d="M8.658864974975586 8.302999496459961 L8.658864974975586 8.302999496459961 C9.261167526245117 8.302999496459961 9.863469123840332 8.302999496459961 10.465771675109863 8.302999496459961 L10.465771675109863 8.302999496459961 C10.844690322875977 9.920352935791016 11.223548889160156 11.537720680236816 11.602378845214844 13.155094146728516 L11.602378845214844 13.155094146728516 C11.692580223083496 13.184205055236816 11.782782554626465 13.213316917419434 11.872983932495117 13.242427825927734 L11.872983932495117 13.242427825927734 C12.787590026855469 11.356725692749023 13.319799423217773 8.264047622680664 15.691424369812012 8.350809097290039 L15.691424369812012 8.350809097290039 C15.162697792053223 9.49285888671875 14.60806655883789 10.621395111083984 14.048554420471191 11.747566223144531 C13.489042282104492 12.873738288879395 12.924650192260742 13.997546195983887 12.3764009475708 15.130142211914062 C12.011002540588379 15.88499927520752 11.3438081741333 17.534847259521484 10.671000480651855 18.177026748657227 C9.647765159606934 19.1536808013916 9.04388427734375 18.901029586791992 7.710311412811279 18.93885040283203 L7.710311412811279 18.93885040283203 C7.710311412811279 18.482316970825195 7.710311412811279 18.025781631469727 7.710311412811279 17.56924819946289 L7.710311412811279 17.56924819946289 C8.500153541564941 17.48383331298828 9.614450454711914 17.4503231048584 10.127992630004883 16.71308708190918 C10.475996971130371 16.2134952545166 10.341216087341309 15.502266883850098 10.300985336303711 14.894747734069824 C10.159908294677734 12.764373779296875 9.177205085754395 10.377243995666504 8.658864974975586 8.302999496459961 L8.658864974975586 8.302999496459961"></path></svg>