<svg xmlns="http://www.w3.org/2000/svg" viewBox="0.0 0.0 24.0 24.0" height="200px" width="200px"><path fill="none" stroke="black" stroke-width=".3" stroke-opacity="1.0"  filling="0" d="M9.354531288146973 5.5383148193359375 C13.05437183380127 4.410175323486328 16.653736114501953 4.884578704833984 20.36248207092285 6.372018814086914 C20.36248207092285 8.502384185791016 20.36248207092285 10.378377914428711 20.36248207092285 12.440699577331543 C18.38155746459961 12.321145057678223 16.528459548950195 12.070588111877441 14.688712120056152 12.145627975463867 C13.34689998626709 12.200318336486816 12.285531997680664 12.979331970214844 12.160890579223633 14.51255989074707 C12.053418159484863 15.839746475219727 12.181239128112793 17.188552856445312 13.673131942749023 17.631160736083984 C14.752941131591797 17.951669692993164 15.944674491882324 17.986644744873047 17.086170196533203 17.984737396240234 C18.10301971435547 17.982830047607422 19.119237899780273 17.753894805908203 20.319873809814453 17.602542877197266 C20.319873809814453 19.393321990966797 20.319873809814453 20.940540313720703 20.319873809814453 22.692527770996094 C16.516376495361328 24.32495880126953 12.59968090057373 24.60413360595703 8.677901268005371 23.260414123535156 C5.517964839935303 22.17742347717285 3.840381622314453 18.398090362548828 4.087122440338135 13.636247634887695 C4.328775882720947 8.984419822692871 5.851192474365234 6.605405330657959 9.354531288146973 5.5383148193359375"></path></svg>