<svg xmlns="http://www.w3.org/2000/svg" viewBox="0.0 0.0 24.0 24.0" height="200px" width="200px"><path fill="none" stroke="black" stroke-width=".3" stroke-opacity="1.0"  filling="0" d="M10.511923789978027 8.365302085876465 L10.511923789978027 8.365302085876465 C12.80285358428955 7.904646396636963 14.492928504943848 8.10128402709961 16.703895568847656 8.834260940551758 L16.703895568847656 8.834260940551758 C16.703895568847656 9.972138404846191 16.703895568847656 11.110015869140625 16.703895568847656 12.247893333435059 L16.703895568847656 12.247893333435059 C15.667625427246094 12.16882038116455 13.44440746307373 11.593297958374023 12.54470443725586 12.435736656188965 C11.797228813171387 13.135637283325195 11.836858749389648 14.801398277282715 12.941136360168457 15.167527198791504 C14.187353134155273 15.580717086791992 15.437591552734375 15.298262596130371 16.679927825927734 15.151430130004883 L16.679927825927734 15.151430130004883 C16.679927825927734 16.105802536010742 16.679927825927734 17.0601749420166 16.679927825927734 18.01454734802246 L16.679927825927734 18.01454734802246 C15.526280403137207 18.402706146240234 14.102673530578613 18.787866592407227 12.714097023010254 18.83255958557129 C11.325521469116211 18.877254486083984 9.971975326538086 18.58148193359375 8.95844841003418 17.607778549194336 C7.537433624267578 16.242595672607422 7.157900810241699 14.344167709350586 7.517572402954102 12.580940246582031 C7.877243995666504 10.81771183013916 8.976119995117188 9.18968391418457 10.511923789978027 8.365302085876465 L10.511923789978027 8.365302085876465"></path></svg>