<svg xmlns="http://www.w3.org/2000/svg" viewBox="0.0 0.0 24.0 24.0" height="200px" width="200px"><path fill="none" stroke="black" stroke-width=".3" stroke-opacity="1.0"  filling="0" d="M12.048749923706055 6.693412780761719 L12.048749923706055 6.693412780761719 C13.193221092224121 6.700093746185303 14.767072677612305 6.604379653930664 15.671788215637207 7.508295059204102 C17.235441207885742 9.070564270019531 15.89378547668457 10.755617141723633 14.520878791809082 11.676043510437012 L14.520878791809082 11.676043510437012 C14.882725715637207 13.242111206054688 16.25063133239746 13.180920600891113 15.879253387451172 15.023955345153809 C15.474797248840332 17.031143188476562 12.999613761901855 17.777202606201172 10.905279159545898 17.479522705078125 C8.810943603515625 17.181842803955078 7.097458362579346 15.840425491333008 8.216398239135742 13.672658920288086 C8.700592994689941 12.734609603881836 9.471755981445312 12.477802276611328 10.31008243560791 12.052209854125977 L10.31008243560791 12.052209854125977 C9.911808013916016 11.559120178222656 9.326194763183594 11.170659065246582 9.115259170532227 10.572941780090332 C8.306936264038086 8.282434463500977 10.406050682067871 7.278223037719727 12.048749923706055 6.693412780761719 L12.048749923706055 6.693412780761719"></path>
<path fill="none" stroke="black" stroke-width=".3" stroke-opacity="1.0"  filling="0" d="M12.77655029296875 7.973824977874756 L12.77655029296875 7.973824977874756 C13.236405372619629 8.10216236114502 13.769291877746582 8.079007148742676 14.156115531921387 8.358837127685547 C15.426054000854492 9.277515411376953 14.15178108215332 11.044928550720215 12.947649955749512 11.057697296142578 C11.804648399353027 11.069817543029785 10.050293922424316 9.471303939819336 11.420103073120117 8.391154289245605 C11.791571617126465 8.098236083984375 12.324400901794434 8.112935066223145 12.77655029296875 7.973824977874756 L12.77655029296875 7.973824977874756"></path>
<path fill="none" stroke="black" stroke-width=".3" stroke-opacity="1.0"  filling="0" d="M11.83110237121582 12.861784934997559 L11.83110237121582 12.861784934997559 C12.339314460754395 13.071216583251953 12.930323600769043 13.141995429992676 13.35573959350586 13.490078926086426 C15.308760643005371 15.088079452514648 13.590841293334961 15.949182510375977 11.870694160461426 15.977310180664062 C10.15054702758789 16.00543785095215 8.428171157836914 15.200589179992676 10.372278213500977 13.466686248779297 C10.76514720916748 13.11629581451416 11.344827651977539 13.0634183883667 11.83110237121582 12.861784934997559 L11.83110237121582 12.861784934997559"></path></svg>