<svg xmlns="http://www.w3.org/2000/svg" viewBox="0.0 0.0 24.0 24.0" height="200px" width="200px"><path fill="none" stroke="black" stroke-width=".3" stroke-opacity="1.0"  filling="0" d="M12.934697151184082 7.266366958618164 L12.934697151184082 7.266366958618164 C14.537303924560547 7.418577194213867 17.26644515991211 8.207008361816406 15.913971900939941 10.496906280517578 C15.324073791503906 11.495675086975098 14.365289688110352 11.802922248840332 13.413313865661621 12.257467269897461 L13.413313865661621 12.257467269897461 C15.301823616027832 13.321893692016602 16.537784576416016 15.360328674316406 14.275249481201172 17.035358428955078 C13.340376853942871 17.727476119995117 11.959938049316406 17.95440673828125 10.538132667541504 18.023029327392578 C9.116327285766602 18.091651916503906 7.653156280517578 18.00196647644043 6.552820682525635 18.060855865478516 L6.552820682525635 18.060855865478516 C6.543416500091553 17.948984146118164 6.534012317657471 17.83711051940918 6.524608135223389 17.725238800048828 L6.524608135223389 17.725238800048828 C6.920320510864258 17.667951583862305 7.316033363342285 17.61066436767578 7.711745738983154 17.553377151489258 L7.711745738983154 17.553377151489258 C8.06106948852539 15.921180725097656 8.410383224487305 14.288982391357422 8.759716033935547 12.656787872314453 C9.109048843383789 11.024593353271484 9.45840072631836 9.392402648925781 9.80780029296875 7.760223388671875 L9.80780029296875 7.760223388671875 C9.4180326461792 7.631597995758057 9.028265953063965 7.502972602844238 8.638498306274414 7.37434720993042 L8.638498306274414 7.37434720993042 C10.032011985778809 7.124773979187012 11.523469924926758 7.262985706329346 12.934697151184082 7.266366958618164 L12.934697151184082 7.266366958618164"></path>
<path fill="none" stroke="black" stroke-width=".3" stroke-opacity="1.0"  filling="0" d="M12.190505981445312 7.561123847961426 L12.190505981445312 7.561123847961426 C12.79110050201416 7.6660237312316895 13.470696449279785 7.5601372718811035 13.992289543151855 7.875823974609375 C15.252605438232422 8.63861083984375 14.49208927154541 10.769067764282227 13.68297004699707 11.478412628173828 C12.74336051940918 12.302156448364258 11.517749786376953 12.097981452941895 10.39310073852539 12.065177917480469 L10.39310073852539 12.065177917480469 C10.7217435836792 10.58513355255127 11.050344467163086 9.10507583618164 11.37886905670166 7.625004768371582 L11.37886905670166 7.625004768371582 C11.649415016174316 7.603711128234863 11.919960021972656 7.5824174880981445 12.190505981445312 7.561123847961426 L12.190505981445312 7.561123847961426"></path>
<path fill="none" stroke="black" stroke-width=".3" stroke-opacity="1.0"  filling="0" d="M11.03611946105957 12.425761222839355 L11.03611946105957 12.425761222839355 C11.70217514038086 12.542780876159668 12.453147888183594 12.430985450744629 13.034286499023438 12.776819229125977 C14.519716262817383 13.660794258117676 13.588174819946289 16.201303482055664 12.612159729003906 17.004840850830078 C11.552152633666992 17.877527236938477 10.483158111572266 17.621280670166016 9.21893310546875 17.62828254699707 L9.21893310546875 17.62828254699707 C9.583133697509766 15.925575256347656 9.947257995605469 14.222846031188965 10.311385154724121 12.520122528076172 L10.311385154724121 12.520122528076172 C10.552963256835938 12.488668441772461 10.794541358947754 12.457215309143066 11.03611946105957 12.425761222839355 L11.03611946105957 12.425761222839355"></path></svg>