<svg xmlns="http://www.w3.org/2000/svg" viewBox="0.0 0.0 24.0 24.0" height="200px" width="200px"><path fill="none" stroke="black" stroke-width=".3" stroke-opacity="1.0"  filling="0" d="M12.978910446166992 3.3567428588867188 C8.918771743774414 6.128452777862549 8.788505554199219 10.69651985168457 7.760608673095703 14.84259033203125 C7.520874977111816 15.808090209960938 7.378567695617676 16.82230567932129 7.3736419677734375 17.81517219543457 C7.3670735359191895 19.202669143676758 7.571230411529541 20.554588317871094 9.078593254089355 21.248065948486328 C10.487436294555664 21.8961124420166 11.92747688293457 21.65966033935547 12.90556812286377 20.709484100341797 C14.01501750946045 19.63178062438965 14.727649688720703 18.14521598815918 15.825604438781738 16.52181625366211 C14.559069633483887 16.196697235107422 13.838773727416992 16.011699676513672 13.119028091430664 15.827245712280273 C13.129426956176758 15.768133163452148 13.13927936553955 15.709022521972656 13.149679183959961 15.649909973144531 C15.347780227661133 15.649909973144531 17.545881271362305 15.649909973144531 19.51519775390625 15.649909973144531 C18.967315673828125 16.250885009765625 18.344446182250977 16.89455223083496 17.767553329467773 17.576534271240234 C16.95311737060547 18.53874969482422 16.31711196899414 19.716617584228516 15.346685409545898 20.46975326538086 C13.207695960998535 22.12982177734375 10.718412399291992 22.724777221679688 8.179320335388184 21.496009826660156 C5.690582752227783 20.29132080078125 4.905703067779541 17.993057250976562 4.890377521514893 15.369674682617188 C4.858085632324219 9.821876525878906 8.251568794250488 4.848780632019043 13.044590950012207 3.416950225830078 L12.978910446166992 3.3567428588867188"></path>
<path fill="none" stroke="black" stroke-width=".3" stroke-opacity="1.0"  filling="0" d="M12.978910446166992 3.3567428588867188 L13.044590950012207 3.416950225830078 C14.551406860351562 2.6068925857543945 16.002941131591797 2.9834604263305664 17.491695404052734 3.5351743698120117 C18.242094039916992 3.8137683868408203 19.0767822265625 3.8657655715942383 20.106319427490234 4.065543174743652 C19.847978591918945 5.240126609802246 19.52997589111328 6.685093879699707 19.112905502319336 8.582160949707031 C17.709537506103516 4.008620262145996 17.367998123168945 3.7393312454223633 12.978910446166992 3.3567428588867188"></path></svg>