<svg xmlns="http://www.w3.org/2000/svg" viewBox="0.0 0.0 24.0 24.0" height="200px" width="200px"><path fill="none" stroke="black" stroke-width=".3" stroke-opacity="1.0"  filling="0" d="M10.797794342041016 6.9820990562438965 L10.797794342041016 6.9820990562438965 C10.802807807922363 6.9820990562438965 14.239622116088867 6.9820990562438965 14.294909477233887 6.9820990562438965 L14.294909477233887 6.9820990562438965 C13.181774139404297 8.151890754699707 12.59282398223877 9.949666976928711 12.197676658630371 11.846186637878418 C11.802530288696289 13.742706298828125 11.601184844970703 15.737970352172852 11.263259887695312 17.302738189697266 L11.263259887695312 17.302738189697266 C11.622642517089844 17.4625244140625 11.982025146484375 17.622312545776367 12.341407775878906 17.7820987701416 L12.341407775878906 17.7820987701416 C11.071383476257324 17.7820987701416 9.801360130310059 17.7820987701416 8.531335830688477 17.7820987701416 L8.531335830688477 17.7820987701416 C8.527145385742188 17.73975372314453 8.522954940795898 17.69740867614746 8.51876449584961 17.65506362915039 L8.51876449584961 17.65506362915039 C8.90880298614502 17.571916580200195 9.298842430114746 17.488771438598633 9.688880920410156 17.405624389648438 L9.688880920410156 17.405624389648438 C10.047457695007324 15.737926483154297 10.405949592590332 14.070209503173828 10.764385223388672 12.402481079101562 C11.122821807861328 10.734752655029297 11.481201171875 9.067011833190918 11.83955192565918 7.399264812469482 L11.83955192565918 7.399264812469482 C11.48491096496582 7.303877830505371 11.130270004272461 7.208491325378418 10.775629043579102 7.113104343414307 L10.775629043579102 7.113104343414307 C10.7830171585083 7.069436073303223 10.790406227111816 7.0257673263549805 10.797794342041016 6.9820990562438965 L10.797794342041016 6.9820990562438965"></path></svg>