<svg xmlns="http://www.w3.org/2000/svg" viewBox="0.0 0.0 24.0 24.0" height="200px" width="200px"><path fill="none" stroke="black" stroke-width=".3" stroke-opacity="1.0"  filling="0" d="M13.97651195526123 8.216787338256836 L13.97651195526123 8.216787338256836 C14.598679542541504 8.399650573730469 15.280730247497559 8.442316055297852 15.84301471710205 8.765376091003418 C17.84705924987793 9.916799545288086 17.51451301574707 12.737650871276855 17.474674224853516 14.659880638122559 L17.474674224853516 14.659880638122559 C15.398656845092773 14.659880638122559 13.322641372680664 14.659880638122559 11.246624946594238 14.659880638122559 L11.246624946594238 14.659880638122559 C12.483291625976562 16.898530960083008 14.728161811828613 16.015169143676758 16.97098731994629 15.74479866027832 L16.97098731994629 15.74479866027832 C16.96051597595215 16.460756301879883 17.28632354736328 17.763689041137695 16.356287002563477 18.24032211303711 C15.364948272705078 18.748371124267578 13.796236038208008 19.00860595703125 12.252297401428223 18.95084571838379 C10.708359718322754 18.893085479736328 9.18919563293457 18.517332077026367 8.296951293945312 17.753408432006836 C6.495571613311768 16.21109962463379 6.412919998168945 13.136512756347656 6.974545001983643 11.030036926269531 C7.403479099273682 9.421241760253906 8.471151351928711 8.620912551879883 10.063338279724121 8.307615280151367 C11.61712646484375 8.001873970031738 12.41386604309082 8.13802719116211 13.97651195526123 8.216787338256836 L13.97651195526123 8.216787338256836"></path>
<path fill="none" stroke="black" stroke-width=".3" stroke-opacity="1.0"  filling="0" d="M12.551613807678223 10.938057899475098 L12.551613807678223 10.938057899475098 C13.176026344299316 11.110530853271484 13.730132102966309 11.663578987121582 13.971844673156738 12.264588356018066 L13.971844673156738 12.264588356018066 C12.986729621887207 12.264588356018066 12.001615524291992 12.264588356018066 11.016500473022461 12.264588356018066 L11.016500473022461 12.264588356018066 C11.313770294189453 11.657140731811523 11.895977020263672 11.10389518737793 12.551613807678223 10.938057899475098 L12.551613807678223 10.938057899475098"></path></svg>