<svg xmlns="http://www.w3.org/2000/svg" viewBox="0.0 0.0 24.0 24.0" height="200px" width="200px"><path fill="none" stroke="black" stroke-width=".3" stroke-opacity="1.0"  filling="0" d="M9.409040451049805 6.980482578277588 L9.409040451049805 6.980482578277588 C10.581642150878906 6.980482578277588 11.754244804382324 6.980482578277588 12.926846504211426 6.980482578277588 L12.926846504211426 6.980482578277588 C11.792022705078125 8.14756965637207 11.196868896484375 9.953433990478516 10.801520347595215 11.861814498901367 C10.406172752380371 13.770194053649902 10.210630416870117 15.781089782714844 9.875032424926758 17.358240127563477 L9.875032424926758 17.358240127563477 C12.871323585510254 17.734838485717773 13.76038932800293 17.52065658569336 15.681034088134766 15.182065963745117 L15.681034088134766 15.182065963745117 C15.444602966308594 16.04831314086914 15.208183288574219 16.914562225341797 14.971773147583008 17.78081512451172 L14.971773147583008 17.78081512451172 C13.679579734802246 17.78081512451172 12.387386322021484 17.78081512451172 11.095193862915039 17.78081512451172 C9.803001403808594 17.78081512451172 8.510808944702148 17.78081512451172 7.218615531921387 17.78081512451172 L7.218615531921387 17.78081512451172 C7.183483600616455 17.742368698120117 7.148352146148682 17.70392417907715 7.11322021484375 17.665477752685547 L7.11322021484375 17.665477752685547 C7.507401943206787 17.589248657226562 7.901583194732666 17.513019561767578 8.295764923095703 17.436790466308594 L8.295764923095703 17.436790466308594 C8.65234375 15.767862319946289 9.008942604064941 14.098938941955566 9.365561485290527 12.43001937866211 C9.72218132019043 10.761099815368652 10.078821182250977 9.092185020446777 10.435482025146484 7.423274993896484 L10.435482025146484 7.423274993896484 C10.085269927978516 7.317879676818848 9.735057830810547 7.212483882904053 9.384845733642578 7.107088565826416 L9.384845733642578 7.107088565826416 C9.392910957336426 7.064886569976807 9.400975227355957 7.022684574127197 9.409040451049805 6.980482578277588 L9.409040451049805 6.980482578277588"></path></svg>