<svg xmlns="http://www.w3.org/2000/svg" viewBox="0.0 0.0 24.0 24.0" height="200px" width="200px"><path fill="none" stroke="black" stroke-width=".3" stroke-opacity="1.0"  filling="0" d="M7.3938493728637695 3.076413154602051 C9.538575172424316 3.076413154602051 11.683300018310547 3.076413154602051 13.647726058959961 3.076413154602051 C13.064408302307129 3.6508922576904297 12.0203275680542 4.188251972198486 11.844743728637695 4.930656909942627 C10.541410446166992 10.436826705932617 9.409538269042969 15.984827995300293 8.22227954864502 21.525760650634766 C14.206296920776367 22.558643341064453 15.232111930847168 22.138538360595703 18.5440616607666 17.657007217407227 C18.135738372802734 19.153011322021484 17.7274169921875 20.649017333984375 17.283153533935547 22.27700424194336 C12.651960372924805 22.27700424194336 8.075566291809082 22.27700424194336 3.499760627746582 22.27700424194336 C3.4373035430908203 22.208656311035156 3.374847412109375 22.14030647277832 3.3123903274536133 22.07196044921875 C3.9534521102905273 21.947635650634766 4.594512939453125 21.823902130126953 5.414692401885986 21.6654052734375 C6.664997100830078 15.813369750976562 7.927673816680908 9.904180526733398 9.218633651733398 3.8635988235473633 C8.48801326751709 3.6432323455810547 7.919425010681152 3.4723615646362305 7.350837230682373 3.3014907836914062 C7.364978313446045 3.2266616821289062 7.379708290100098 3.151242256164551 7.3938493728637695 3.076413154602051"></path></svg>