<svg xmlns="http://www.w3.org/2000/svg" viewBox="0.0 0.0 24.0 24.0" height="200px" width="200px"><path fill="none" stroke="black" stroke-width=".3" stroke-opacity="1.0"  filling="0" d="M6.189344882965088 3.670651435852051 C7.189267158508301 3.670651435852051 8.012901306152344 3.670651435852051 8.987068176269531 3.670651435852051 C10.164423942565918 8.337719917297363 11.323464393615723 12.932096481323242 12.482503890991211 17.52647590637207 C12.66451644897461 17.561962127685547 12.846529006958008 17.597448348999023 13.028541564941406 17.632936477661133 C14.229364395141602 13.034551620483398 15.429614067077637 8.43559455871582 16.663063049316406 3.7118616104125977 C17.560531616210938 3.7118616104125977 18.375579833984375 3.7118616104125977 19.364627838134766 3.7118616104125977 C19.364627838134766 9.899133682250977 19.364627838134766 16.045764923095703 19.364627838134766 22.288558959960938 C18.688663482666016 22.288558959960938 18.16094207763672 22.288558959960938 17.478683471679688 22.288558959960938 C17.478683471679688 17.72165298461914 17.478683471679688 13.265214920043945 17.478683471679688 8.80935001373291 C17.318994522094727 8.779586791992188 17.15873146057129 8.749252319335938 16.999042510986328 8.719489097595215 C16.197729110717773 11.837736129760742 15.39470100402832 14.955411911010742 14.596822738647461 18.074230194091797 C14.31407356262207 19.179468154907227 14.153239250183105 20.33221435546875 13.72453784942627 21.376209259033203 C13.513906478881836 21.89019203186035 12.820199966430664 22.206710815429688 12.042927742004395 22.870655059814453 C10.708171844482422 17.667278289794922 9.515933990478516 13.020244598388672 8.32426929473877 8.372635841369629 C8.200637817382812 8.404115676879883 8.077579498291016 8.435596466064453 7.953948497772217 8.466503143310547 C7.953948497772217 12.989336013793945 7.953948497772217 17.5115966796875 7.953948497772217 22.229034423828125 C7.365556716918945 22.266237258911133 6.855579376220703 22.29886245727539 6.189345359802246 22.34064483642578 C6.189344882965088 16.139062881469727 6.189344882965088 10.070842742919922 6.189344882965088 3.670651435852051"></path></svg>