<svg xmlns="http://www.w3.org/2000/svg" viewBox="0.0 0.0 24.0 24.0" height="200px" width="200px"><path fill="none" stroke="black" stroke-width=".3" stroke-opacity="1.0"  filling="0" d="M12.230024337768555 6.615458011627197 L12.230024337768555 6.615458011627197 C13.800276756286621 7.047173500061035 14.67098617553711 8.12481689453125 15.081792831420898 9.457979202270508 C15.492599487304688 10.79114055633545 15.443503379821777 12.379819869995117 15.174144744873047 13.83360767364502 C14.872969627380371 15.459114074707031 14.301243782043457 17.381250381469727 12.271452903747559 17.4117488861084 C10.43056869506836 17.439409255981445 9.719788551330566 15.878188133239746 9.414393424987793 14.355274200439453 C9.111011505126953 12.842397689819336 9.008776664733887 11.185680389404297 9.385458946228027 9.76806354522705 C9.762140274047852 8.350447654724121 10.6177396774292 7.171931266784668 12.230024337768555 6.615458011627197 L12.230024337768555 6.615458011627197"></path>
<path fill="none" stroke="black" stroke-width=".3" stroke-opacity="1.0"  filling="0" d="M12.284748077392578 7.637581825256348 L12.284748077392578 7.637581825256348 C14.42975902557373 8.566207885742188 14.315044403076172 11.54224967956543 13.977078437805176 13.584429740905762 C13.803271293640137 14.634674072265625 13.743590354919434 16.3908748626709 12.217657089233398 16.387460708618164 C10.825847625732422 16.38434600830078 10.632345199584961 14.54660415649414 10.496278762817383 13.602941513061523 C10.197222709655762 11.528895378112793 10.035873413085938 8.468708038330078 12.284748077392578 7.637581825256348 L12.284748077392578 7.637581825256348"></path></svg>