<svg xmlns="http://www.w3.org/2000/svg" viewBox="0.0 0.0 24.0 24.0" height="200px" width="200px"><path fill="none" stroke="black" stroke-width=".3" stroke-opacity="1.0"  filling="0" d="M12.886204719543457 2.3575639724731445 C14.658613204956055 2.644698143005371 16.43102264404297 2.9323835372924805 18.416717529296875 3.254239082336426 C18.21886444091797 4.262241840362549 17.978023529052734 5.491245269775391 17.7371826171875 6.720247745513916 C16.864757537841797 4.398368835449219 15.508443832397461 2.733980178833008 12.886204719543457 2.3575639724731445"></path>
<path fill="none" stroke="black" stroke-width=".3" stroke-opacity="1.0"  filling="0" d="M10.964441299438477 3.797093391418457 C10.665733337402344 4.164692401885986 10.33065128326416 4.508041858673096 10.073827743530273 4.903196811676025 C8.734048843383789 6.9643940925598145 9.113222122192383 8.224810600280762 11.364556312561035 9.142430305480957 C12.207221984863281 9.48577880859375 13.090120315551758 9.729375839233398 13.943808555603027 10.049026489257812 C16.690052032470703 11.077971458435059 17.56082534790039 12.521912574768066 16.839956283569336 15.332635879516602 C16.47015380859375 16.775474548339844 15.717318534851074 18.119661331176758 15.13753890991211 19.50848960876465 C14.957322120666504 19.383386611938477 14.777655601501465 19.258281707763672 14.597990989685059 19.133174896240234 C14.805212020874023 18.448131561279297 15.075815200805664 17.775211334228516 15.20698070526123 17.075836181640625 C15.571271896362305 15.135885238647461 15.057626724243164 14.208346366882324 13.178850173950195 13.461575508117676 C12.335082054138184 13.12594223022461 11.422975540161133 12.96501350402832 10.5648775100708 12.660243034362793 C7.835719585418701 11.691370010375977 7.0586371421813965 10.136653900146484 7.886422634124756 7.317112445831299 C8.357081413269043 5.714448928833008 9.216280937194824 4.401675224304199 10.964441299438477 3.797093391418457"></path>
<path fill="none" stroke="black" stroke-width=".3" stroke-opacity="1.0"  filling="0" d="M5.73429012298584 15.979101181030273 C6.382961750030518 19.064836502075195 7.60259485244751 21.36301612854004 11.25157642364502 21.27373504638672 C8.911510467529297 21.769744873046875 8.911510467529297 21.769744873046875 6.38461446762085 20.00119400024414 C5.933796405792236 20.26187515258789 5.469751834869385 20.530269622802734 4.718571186065674 20.964004516601562 C5.1214423179626465 18.986026763916016 5.427866458892822 17.482563018798828 5.73429012298584 15.979101181030273"></path></svg>