<svg xmlns="http://www.w3.org/2000/svg" viewBox="0.0 0.0 24.0 24.0" height="200px" width="200px"><path fill="none" stroke="black" stroke-width=".3" stroke-opacity="1.0"  filling="0" d="M13.170103073120117 2.459315299987793 C15.058302879333496 2.7037153244018555 16.714733123779297 4.084990501403809 17.00252342224121 5.871037006378174 C17.07611846923828 6.32853364944458 16.560955047607422 6.881042957305908 16.04908561706543 7.9443230628967285 C15.476804733276367 6.848639965057373 15.347738265991211 6.278555393218994 14.99129867553711 5.984724998474121 C14.194387435913086 5.328962802886963 13.331571578979492 4.487565517425537 12.403398513793945 4.353557586669922 C11.798163414001465 4.265682220458984 10.737081527709961 5.1449761390686035 10.404256820678711 5.841928958892822 C9.849000930786133 7.0057148933410645 9.78089714050293 8.450150489807129 10.966103553771973 9.358002662658691 C12.113962173461914 10.237295150756836 13.42768383026123 10.914477348327637 14.713945388793945 11.595502853393555 C17.050304412841797 12.832883834838867 17.845020294189453 14.782596588134766 17.522079467773438 17.307336807250977 C17.200790405273438 19.816699981689453 15.4773530960083 21.44676971435547 12.965794563293457 21.606592178344727 C10.53442096710205 21.761470794677734 8.38973617553711 20.300010681152344 7.729031085968018 18.039440155029297 C7.432455539703369 17.025041580200195 7.432455539703369 17.025041580200195 9.133922576904297 16.327537536621094 C9.361846923828125 16.796016693115234 9.59691047668457 17.272737503051758 9.826482772827148 17.751102447509766 C10.480597496032715 19.113155364990234 11.559255599975586 20.108333587646484 13.049275398254395 19.684886932373047 C13.926370620727539 19.435543060302734 14.871569633483887 18.493640899658203 15.249429702758789 17.62862777709961 C15.86894416809082 16.209457397460938 15.574564933776855 14.694173812866211 14.155393600463867 13.74787712097168 C13.019618034362793 12.991058349609375 11.750932693481445 12.437450408935547 10.588244438171387 11.717429161071777 C8.053617477416992 10.146674156188965 7.307783603668213 7.44673490524292 8.630842208862305 4.8242340087890625 C9.500249862670898 3.1007986068725586 11.217094421386719 2.2066774368286133 13.170103073120117 2.459315299987793"></path></svg>