<svg xmlns="http://www.w3.org/2000/svg" viewBox="0.0 0.0 24.0 24.0" height="200px" width="200px"><path fill="none" stroke="black" stroke-width=".3" stroke-opacity="1.0"  filling="0" d="M15.227770805358887 3.0251502990722656 C15.990081787109375 3.0693578720092773 16.503009796142578 3.0993967056274414 17.048812866210938 3.131135940551758 C17.048812866210938 8.334112167358398 17.195606231689453 13.415231704711914 16.98703384399414 18.48161506652832 C16.882183074951172 21.030960083007812 14.965922355651855 22.279560089111328 12.230110168457031 22.22344970703125 C9.442720413208008 22.166772842407227 7.933970928192139 20.937440872192383 7.858590126037598 18.151185989379883 C7.723698139190674 13.186822891235352 7.820616245269775 8.21622371673584 7.820616245269775 3.3028688430786133 C9.587814331054688 2.6136741638183594 9.794686317443848 3.508607864379883 9.791285514831543 4.70959997177124 C9.781084060668945 8.198654174804688 9.773149490356445 11.687707901000977 9.802621841430664 15.176762580871582 C9.81112289428711 16.208288192749023 9.94261360168457 17.239248275756836 10.023662567138672 18.27020835876465 C10.131349563598633 19.64463233947754 11.006446838378906 20.288490295410156 12.257882118225098 20.370101928710938 C13.643074989318848 20.460220336914062 14.667799949645996 19.794261932373047 14.959121704101562 18.398866653442383 C15.168827056884766 17.39567756652832 15.209634780883789 16.344881057739258 15.216436386108398 15.314488410949707 C15.24364185333252 11.275097846984863 15.227770805358887 7.2351393699646 15.227770805358887 3.0251502990722656"></path></svg>