<svg xmlns="http://www.w3.org/2000/svg" viewBox="0.0 0.0 24.0 24.0" height="200px" width="200px"><path fill="none" stroke="black" stroke-width=".3" stroke-opacity="1.0"  filling="0" d="M9.626083374023438 7.0135931968688965 L9.626083374023438 7.0135931968688965 C11.444717407226562 7.0135931968688965 13.263347625732422 7.0135931968688965 15.081982612609863 7.0135931968688965 L15.081982612609863 7.0135931968688965 C14.4713134765625 8.647381782531738 13.760197639465332 10.23266315460205 13.029417991638184 11.809514045715332 C12.298639297485352 13.386363983154297 11.548196792602539 14.954782485961914 10.85887622833252 16.554845809936523 L10.85887622833252 16.554845809936523 C11.920560836791992 16.755952835083008 15.0283842086792 16.322750091552734 14.952548027038574 17.813922882080078 L14.952548027038574 17.813922882080078 C13.03575611114502 17.81392478942871 11.118966102600098 17.81392478942871 9.20217514038086 17.81392478942871 L9.20217514038086 17.81392478942871 C9.75723648071289 16.111797332763672 10.466325759887695 14.482816696166992 11.20562744140625 12.865972518920898 C11.944928169250488 11.249128341674805 12.714439392089844 9.644420623779297 13.390344619750977 7.990843772888184 L13.390344619750977 7.990843772888184 C11.820045471191406 8.007649421691895 10.376579284667969 8.502969741821289 9.626083374023438 7.0135931968688965 L9.626083374023438 7.0135931968688965"></path></svg>