<svg xmlns="http://www.w3.org/2000/svg" viewBox="0.0 0.0 24.0 24.0" height="200px" width="200px"><path fill="none" stroke="black" stroke-width=".3" stroke-opacity="1.0"  filling="0" d="M14.562273025512695 3.0986709594726562 C16.198047637939453 3.0986709594726562 17.418285369873047 3.0986709594726562 18.8695068359375 3.0986709594726562 C17.703144073486328 8.64792251586914 16.58664321899414 14.039560317993164 15.423718452453613 19.420879364013672 C15.217384338378906 20.37517547607422 14.779497146606445 21.30081558227539 16.295482635498047 21.652156829833984 C14.755425453186035 21.85906410217285 13.254342079162598 22.31185531616211 12.113197326660156 20.841148376464844 C13.599952697753906 18.083141326904297 14.306075096130371 15.172106742858887 13.83265209197998 12.03123664855957 C14.229846000671387 11.60767650604248 14.855154037475586 11.244298934936523 14.984685897827148 10.750242233276367 C15.564715385437012 8.541316986083984 16.003177642822266 6.295709609985352 16.524171829223633 3.9222888946533203 C15.965349197387695 3.687870979309082 15.431170463562012 3.4631948471069336 14.562273025512695 3.0986709594726562"></path>
<path fill="none" stroke="black" stroke-width=".3" stroke-opacity="1.0"  filling="0" d="M12.612985610961914 10.660258293151855 C12.773468017578125 10.692355155944824 12.901281356811523 10.890665054321289 13.04456901550293 11.01159954071045 C9.820018768310547 11.092988014221191 9.411934852600098 11.405927658081055 8.65766716003418 14.590930938720703 C8.309191703796387 16.063358306884766 7.967593193054199 17.546100616455078 7.765270709991455 19.043170928955078 C7.480413913726807 21.14950180053711 8.094832420349121 21.702594757080078 10.471118927001953 21.70718002319336 C8.714982986450195 22.658611297607422 7.509645462036133 22.472335815429688 6.388560771942139 21.075565338134766 C4.968864440917969 19.306819915771484 5.0898003578186035 16.117233276367188 6.673990726470947 13.559831619262695 C8.124063491821289 11.21908187866211 10.222371101379395 10.186262130737305 12.612985610961914 10.660258293151855"></path></svg>