<svg xmlns="http://www.w3.org/2000/svg" viewBox="0.0 0.0 24.0 24.0" height="200px" width="200px"><path fill="none" stroke="black" stroke-width=".3" stroke-opacity="1.0"  filling="0" d="M9.422693252563477 7.025403022766113 L9.422693252563477 7.025403022766113 C10.002285957336426 7.025403022766113 10.581878662109375 7.025403022766113 11.161471366882324 7.025403022766113 L11.161471366882324 7.025403022766113 C10.830770492553711 8.695056915283203 10.5 10.364689826965332 10.169305801391602 12.034344673156738 L10.169305801391602 12.034344673156738 C10.328030586242676 12.034344673156738 10.486754417419434 12.034344673156738 10.645479202270508 12.034344673156738 L10.645479202270508 12.034344673156738 C9.770872116088867 14.0509033203125 8.861775398254395 15.685771942138672 9.64900016784668 17.789897918701172 L9.64900016784668 17.789897918701172 C9.20849895477295 17.789798736572266 7.748503684997559 17.78958511352539 7.256521701812744 17.789566040039062 L7.256521701812744 17.789566040039062 C7.970409393310547 16.377607345581055 8.642702102661133 14.469743728637695 9.071147918701172 12.523280143737793 C9.499593734741211 10.576817512512207 9.684192657470703 8.591755867004395 9.422693252563477 7.025403022766113 L9.422693252563477 7.025403022766113"></path>
<path fill="none" stroke="black" stroke-width=".3" stroke-opacity="1.0"  filling="0" d="M11.846695899963379 11.458954811096191 L11.846695899963379 11.458954811096191 C12.455059051513672 11.456013679504395 13.08507251739502 11.289251327514648 13.671785354614258 11.450130462646484 C14.816007614135742 11.763880729675293 14.430506706237793 13.057319641113281 14.334409713745117 13.802987098693848 C14.133077621459961 15.365224838256836 13.703348159790039 16.24072265625 14.038749694824219 17.825401306152344 L14.038749694824219 17.825401306152344 C13.224886894226074 17.825401306152344 12.41102409362793 17.825401306152344 11.597161293029785 17.825401306152344 L11.597161293029785 17.825401306152344 C12.535242080688477 16.506132125854492 12.843253135681152 15.25741958618164 13.081426620483398 13.647027015686035 C13.151474952697754 13.173397064208984 13.43303108215332 12.632370948791504 13.197732925415039 12.215397834777832 C12.944080352783203 11.765898704528809 12.297041893005371 11.711102485656738 11.846695899963379 11.458954811096191 L11.846695899963379 11.458954811096191"></path></svg>