<svg xmlns="http://www.w3.org/2000/svg" viewBox="0.0 0.0 24.0 24.0" height="200px" width="200px"><path fill="none" stroke="black" stroke-width=".3" stroke-opacity="1.0"  filling="0" d="M12.151422500610352 7.10805082321167 L12.151422500610352 7.10805082321167 C12.40955638885498 7.377282619476318 12.66769027709961 7.646513938903809 12.925824165344238 7.915745735168457 L12.925824165344238 7.915745735168457 C12.571117401123047 8.239827156066895 12.216409683227539 8.563907623291016 11.861702919006348 8.887989044189453 L11.861702919006348 8.887989044189453 C11.861702919006348 8.35582160949707 11.861702919006348 7.8236541748046875 11.861702919006348 7.291486740112305 L11.861702919006348 7.291486740112305 C11.95827579498291 7.23034143447876 12.054849624633789 7.169196128845215 12.151422500610352 7.10805082321167 L12.151422500610352 7.10805082321167"></path>
<path fill="none" stroke="black" stroke-width=".3" stroke-opacity="1.0"  filling="0" d="M12.21576976776123 9.68960189819336 L12.21576976776123 9.68960189819336 C12.796077728271484 10.447242736816406 13.101336479187012 12.141485214233398 13.103766441345215 13.826501846313477 C13.106196403503418 15.511518478393555 12.805797576904297 17.18730926513672 12.174792289733887 17.908050537109375 L12.174792289733887 17.908050537109375 C12.07651138305664 17.848825454711914 11.978231430053711 17.789600372314453 11.879950523376465 17.730375289916992 L11.879950523376465 17.730375289916992 C11.879950523376465 16.438745498657227 11.879950523376465 15.147117614746094 11.879950523376465 13.855487823486328 C11.879950523376465 12.563859939575195 11.879950523376465 11.27223014831543 11.879950523376465 9.98060131072998 L11.879950523376465 9.98060131072998 C11.991889953613281 9.883601188659668 12.103830337524414 9.786602020263672 12.21576976776123 9.68960189819336 L12.21576976776123 9.68960189819336"></path></svg>