<svg xmlns="http://www.w3.org/2000/svg" viewBox="0.0 0.0 24.0 24.0" height="200px" width="200px"><path fill="none" stroke="black" stroke-width=".3" stroke-opacity="1.0"  filling="0" d="M12.018048286437988 3.898289680480957 C12.225446701049805 3.9814929962158203 12.432846069335938 4.064697265625 12.64024543762207 4.147902011871338 C12.721002578735352 5.2154860496521 12.802370071411133 6.2830705642700195 12.897810935974121 7.5445942878723145 C13.646037101745605 7.7642292976379395 14.452384948730469 8.001605987548828 15.259344100952148 8.238370895385742 C15.324806213378906 8.453723907470703 15.389657974243164 8.669075965881348 15.455118179321289 8.884428024291992 C14.623687744140625 9.304120063781738 13.792257308959961 9.723812103271484 12.793806076049805 10.227320671081543 C12.793806076049805 12.564993858337402 12.77545166015625 14.994436264038086 12.798700332641602 17.423877716064453 C12.8280668258667 20.514673233032227 12.842748641967773 20.514673233032227 16.179485321044922 21.749277114868164 C15.475919723510742 22.346393585205078 14.903279304504395 23.173538208007812 14.520906448364258 23.092782974243164 C13.417838096618652 22.86029815673828 12.244413375854492 22.441829681396484 11.392792701721191 21.73948860168457 C10.908249855041504 21.339374542236328 10.88255500793457 20.24609375 10.853799819946289 19.457489013671875 C10.776713371276855 17.32537841796875 10.814644813537598 15.18959903717041 10.79506778717041 13.055041313171387 C10.77977180480957 11.417264938354492 11.410534858703613 9.512130737304688 7.8419270515441895 9.083873748779297 C10.392505645751953 7.948991298675537 11.046515464782715 6.826345920562744 10.88989543914795 5.176331043243408 C10.853188514709473 4.789675712585449 11.620380401611328 4.325935363769531 12.018048286437988 3.898289680480957"></path></svg>