<svg xmlns="http://www.w3.org/2000/svg" viewBox="0.0 0.0 24.0 24.0" height="200px" width="200px"><path fill="none" stroke="black" stroke-width=".3" stroke-opacity="1.0"  filling="0" d="M8.99613094329834 5.811666965484619 C9.307806015014648 6.041781425476074 9.620207786560059 6.271895408630371 9.932610511779785 6.502010345458984 C9.932610511779785 10.123401641845703 9.927513122558594 13.74552059173584 9.936251640319824 17.366912841796875 C9.938436508178711 18.33616065979004 9.732352256774902 19.407358169555664 10.075339317321777 20.246986389160156 C10.43798828125 21.135400772094727 11.276887893676758 22.331851959228516 12.025487899780273 22.422149658203125 C12.798118591308594 22.515361785888672 14.050641059875488 21.621849060058594 14.477373123168945 20.82882308959961 C15.012606620788574 19.834089279174805 15.05193042755127 18.504375457763672 15.07377815246582 17.31447982788086 C15.141500473022461 13.693089485168457 15.098536491394043 10.070241928100586 15.098536491394043 6.273351669311523 C16.052494049072266 6.273351669311523 16.713708877563477 6.273351669311523 17.51546859741211 6.273351669311523 C17.51546859741211 12.241037368774414 17.51546859741211 18.116241455078125 17.51546859741211 24.175682067871094 C15.633044242858887 24.079559326171875 14.068119049072266 23.64627456665039 12.317501068115234 24.61115264892578 C10.17656135559082 25.791580200195312 7.831723690032959 24.228113174438477 7.703558444976807 21.669910430908203 C7.467617511749268 16.95110511779785 7.513494968414307 12.214822769165039 7.586315631866455 7.487278938293457 C7.5950541496276855 6.921459674835205 8.503861427307129 6.370203971862793 8.99613094329834 5.811666965484619"></path></svg>