<svg xmlns="http://www.w3.org/2000/svg" viewBox="0.0 0.0 24.0 24.0" height="200px" width="200px"><path fill="none" stroke="black" stroke-width=".3" stroke-opacity="1.0"  filling="0" d="M10.310323715209961 8.519062995910645 L10.310323715209961 8.519062995910645 C10.485913276672363 8.648502349853516 10.661503791809082 8.777941703796387 10.837093353271484 8.907381057739258 L10.837093353271484 8.907381057739258 C10.836599349975586 10.942266464233398 10.78703784942627 12.984691619873047 10.839141845703125 15.018888473510742 C10.858123779296875 15.759958267211914 10.643278121948242 17.68124008178711 12.014336585998535 17.862459182739258 C13.162064552307129 18.01416015625 13.544393539428711 16.756481170654297 13.669553756713867 16.018970489501953 C14.061327934265137 13.710424423217773 13.747611999511719 11.11386775970459 13.742926597595215 8.77876091003418 L13.742926597595215 8.77876091003418 C14.196101188659668 8.77876091003418 14.649275779724121 8.77876091003418 15.102450370788574 8.77876091003418 L15.102450370788574 8.77876091003418 C15.102450370788574 10.457103729248047 15.102450370788574 12.13544750213623 15.102450370788574 13.813791275024414 C15.102450370788574 15.492134094238281 15.102450370788574 17.17047882080078 15.102450370788574 18.84882164001465 L15.102450370788574 18.84882164001465 C14.048853874206543 18.777156829833984 11.322420120239258 19.607257843017578 10.456353187561035 19.055166244506836 C9.331572532653809 18.338153839111328 9.535652160644531 16.440820693969727 9.511197090148926 15.446965217590332 C9.45681381225586 13.236812591552734 8.84843635559082 10.256564140319824 10.310323715209961 8.519062995910645 L10.310323715209961 8.519062995910645"></path></svg>