<svg xmlns="http://www.w3.org/2000/svg" viewBox="0.0 0.0 24.0 24.0" height="200px" width="200px"><path fill="none" stroke="black" stroke-width=".3" stroke-opacity="1.0"  filling="0" d="M8.38975715637207 9.27910041809082 L8.38975715637207 9.27910041809082 C8.479035377502441 9.27910041809082 10.703577041625977 9.27910041809082 10.741073608398438 9.27910041809082 L10.741073608398438 9.27910041809082 C10.75605297088623 9.327672958374023 10.771032333374023 9.376245498657227 10.786011695861816 9.42481803894043 L10.786011695861816 9.42481803894043 C10.5216703414917 9.523065567016602 10.257328987121582 9.621312141418457 9.992987632751465 9.719559669494629 L9.992987632751465 9.719559669494629 C10.352521896362305 11.293045043945312 10.712004661560059 12.86654281616211 11.071500778198242 14.440035820007324 L11.071500778198242 14.440035820007324 C10.741734504699707 14.994492530822754 10.411969184875488 15.548948287963867 10.082202911376953 16.103404998779297 L10.082202911376953 16.103404998779297 C9.518097877502441 13.828624725341797 8.9539155960083 11.553866386413574 8.38975715637207 9.27910041809082 L8.38975715637207 9.27910041809082"></path>
<path fill="none" stroke="black" stroke-width=".3" stroke-opacity="1.0"  filling="0" d="M7.164864540100098 18.606056213378906 L7.164864540100098 18.606056213378906 C7.646076202392578 18.71344566345215 8.127287864685059 18.820833206176758 8.608499526977539 18.92822265625 L8.608499526977539 18.92822265625 C8.140945434570312 19.297969818115234 7.758535385131836 19.814205169677734 7.205837726593018 20.037466049194336 C6.468469619750977 20.335325241088867 5.977822780609131 19.547082901000977 6.359284400939941 18.960933685302734 C6.519336223602295 18.71500015258789 6.896337985992432 18.724348068237305 7.164864540100098 18.606056213378906 L7.164864540100098 18.606056213378906"></path></svg>