<svg xmlns="http://www.w3.org/2000/svg" viewBox="0.0 0.0 24.0 24.0" height="200px" width="200px"><path fill="none" stroke="black" stroke-width=".3" stroke-opacity="1.0"  filling="0" d="M13.137755393981934 6.935730934143066 L13.137755393981934 6.935730934143066 C13.137755393981934 8.55543041229248 13.137755393981934 10.175130844116211 13.137755393981934 11.794830322265625 C13.137755393981934 13.414530754089355 13.137755393981934 15.034231185913086 13.137755393981934 16.6539306640625 L13.137755393981934 16.6539306640625 C13.77602767944336 16.817657470703125 14.396382331848145 17.208993911743164 14.792293548583984 17.73573112487793 L14.792293548583984 17.73573112487793 C13.335634231567383 17.73573112487793 11.878978729248047 17.73573112487793 10.422320365905762 17.73573112487793 L10.422320365905762 17.73573112487793 C10.782806396484375 17.17144203186035 11.661136627197266 17.02522850036621 11.935361862182617 16.414350509643555 C12.165600776672363 15.901457786560059 11.935361862182617 15.289950370788574 11.935361862182617 14.727749824523926 C11.935361862182617 12.859113693237305 11.935361862182617 10.990478515625 11.935361862182617 9.121843338012695 L11.935361862182617 9.121843338012695 C11.409683227539062 9.447927474975586 10.884004592895508 9.774011611938477 10.358325958251953 10.100095748901367 L10.358325958251953 10.100095748901367 C10.899293899536133 8.378928184509277 11.573765754699707 7.812915802001953 13.137755393981934 6.935730934143066 L13.137755393981934 6.935730934143066"></path></svg>