<svg xmlns="http://www.w3.org/2000/svg" viewBox="0.0 0.0 24.0 24.0" height="200px" width="200px"><path fill="none" stroke="black" stroke-width=".3" stroke-opacity="1.0"  filling="0" d="M11.45530891418457 6.722517013549805 L11.45530891418457 6.722517013549805 C11.960433959960938 6.718710899353027 12.49108600616455 6.5525054931640625 12.970683097839355 6.711098670959473 C15.535222053527832 7.559140682220459 14.636301040649414 10.095975875854492 13.629752159118652 11.629672050476074 L13.629752159118652 11.629672050476074 C14.385392189025879 12.569957733154297 15.009925842285156 12.995859146118164 15.047056198120117 14.27001953125 C15.098119735717773 16.02229881286621 13.80029582977295 17.338592529296875 12.064189910888672 17.393211364746094 C11.27877426147461 17.41792106628418 9.896199226379395 16.91771125793457 9.718779563903809 15.952016830444336 C9.633363723754883 15.487099647521973 10.049400329589844 15.066316604614258 10.214710235595703 14.623466491699219 L10.214710235595703 14.623466491699219 C10.84979248046875 15.485419273376465 10.900571823120117 16.573328018188477 12.324654579162598 16.428197860717773 C13.820481300354004 16.275754928588867 14.167807579040527 14.240313529968262 13.547122955322266 13.172552108764648 C13.089383125305176 12.385104179382324 11.819907188415527 12.023417472839355 11.098868370056152 11.721637725830078 L11.098868370056152 11.721637725830078 C11.517772674560547 11.467577934265137 13.376797676086426 10.347763061523438 13.421635627746582 10.26771354675293 C13.877279281616211 9.454238891601562 13.399916648864746 7.804698944091797 12.310149192810059 7.6471028327941895 C10.968132019042969 7.453027725219727 10.951451301574707 9.269057273864746 9.991278648376465 8.990776062011719 L9.991278648376465 8.990776062011719 C10.168468475341797 8.108492851257324 10.719902992248535 7.241167068481445 11.45530891418457 6.722517013549805 L11.45530891418457 6.722517013549805"></path></svg>