<svg xmlns="http://www.w3.org/2000/svg" viewBox="0.0 0.0 24.0 24.0" height="200px" width="200px"><path fill="none" stroke="black" stroke-width=".3" stroke-opacity="1.0"  filling="0" d="M10.265897750854492 7.000189781188965 L10.265897750854492 7.000189781188965 C11.682784080505371 7.000189781188965 13.099666595458984 7.000189781188965 14.516552925109863 7.000189781188965 L14.516552925109863 7.000189781188965 C13.511011123657227 8.427220344543457 12.817896842956543 7.999106407165527 11.14311408996582 8.00002384185791 L11.14311408996582 8.00002384185791 C11.1179838180542 8.575453758239746 11.057538986206055 9.958383560180664 11.029780387878418 10.592613220214844 L11.029780387878418 10.592613220214844 C11.502724647521973 10.605000495910645 13.399918556213379 10.574925422668457 13.891936302185059 10.882349967956543 C15.442258834838867 11.851030349731445 15.51539134979248 14.161734580993652 14.771045684814453 15.882365226745605 C14.026700019836426 17.602994918823242 12.464876174926758 18.733551025390625 10.745285987854004 17.34193229675293 C10.191949844360352 16.894132614135742 9.998398780822754 16.12991714477539 9.624955177307129 15.523909568786621 L9.624955177307129 15.523909568786621 C9.689412117004395 15.394248008728027 9.75386905670166 15.26458740234375 9.818325996398926 15.134925842285156 L9.818325996398926 15.134925842285156 C10.65219783782959 15.59648323059082 11.422870635986328 16.977924346923828 12.481348037719727 16.796833038330078 C14.303961753845215 16.485008239746094 14.574782371520996 12.027259826660156 12.732027053833008 11.609735488891602 C12.16508960723877 11.481281280517578 11.617451667785645 11.972855567932129 11.118142127990723 12.270527839660645 C10.897238731384277 12.402223587036133 10.790306091308594 12.666875839233398 10.626388549804688 12.865049362182617 L10.626388549804688 12.865049362182617 C9.309767723083496 11.235408782958984 10.018123626708984 8.901467323303223 10.265897750854492 7.000189781188965 L10.265897750854492 7.000189781188965"></path></svg>