<svg xmlns="http://www.w3.org/2000/svg" viewBox="0.0 0.0 24.0 24.0" height="200px" width="200px"><path fill="none" stroke="black" stroke-width=".3" stroke-opacity="1.0"  filling="0" d="M12.384735107421875 2.972658157348633 C9.935302734375 5.098361968994141 9.278645515441895 8.045038223266602 8.786919593811035 11.0291166305542 C8.256567001342773 14.243730545043945 9.072023391723633 15.133373260498047 12.42888069152832 15.251093864440918 C9.243698120117188 16.554597854614258 6.309896469116211 14.71522331237793 6.136382102966309 11.30563735961914 C5.946926116943359 7.585195064544678 8.574165344238281 4.081800937652588 12.384735107421875 2.972658157348633"></path>
<path fill="none" stroke="black" stroke-width=".3" stroke-opacity="1.0"  filling="0" d="M12.255979537963867 3.048685073852539 C16.23147964477539 1.640951156616211 19.20758628845215 3.964080810546875 18.93474769592285 8.401264190673828 C18.722604751586914 11.855608940124512 17.503713607788086 14.999098777770996 15.095359802246094 17.52640151977539 C13.512272834777832 19.18796730041504 11.707845687866211 20.638010025024414 9.698637008666992 21.83850860595703 C11.01807975769043 20.055538177490234 12.394545555114746 18.30936050415039 13.61405086517334 16.46017837524414 C13.890569686889648 16.041412353515625 13.620794296264648 15.26274299621582 13.602400779724121 14.649618148803711 C15.294626235961914 12.648992538452148 15.945764541625977 10.260871887207031 16.31977081298828 7.724374771118164 C16.88323211669922 3.902768135070801 16.196533203125 3.0591087341308594 12.255979537963867 3.048685073852539"></path></svg>