<svg xmlns="http://www.w3.org/2000/svg" viewBox="0.0 0.0 24.0 24.0" height="200px" width="200px"><path fill="none" stroke="black" stroke-width=".3" stroke-opacity="1.0"  filling="0" d="M11.87608528137207 6.921980381011963 L11.87608528137207 6.921980381011963 C12.01889419555664 6.933844566345215 12.161704063415527 6.945708274841309 12.304512977600098 6.9575724601745605 L12.304512977600098 6.9575724601745605 C12.943434715270996 8.743721961975098 13.493684768676758 10.657893180847168 14.162575721740723 12.511314392089844 C14.831465721130371 14.36473560333252 15.618995666503906 16.157407760620117 16.73247528076172 17.700559616088867 L16.73247528076172 17.700559616088867 C15.231329917907715 17.700559616088867 13.73018741607666 17.700559616088867 12.229043006896973 17.700559616088867 L12.229043006896973 17.700559616088867 C12.694491386413574 17.54522705078125 13.15993881225586 17.389894485473633 13.625387191772461 17.234561920166016 L13.625387191772461 17.234561920166016 C13.367131233215332 16.490633010864258 13.108865737915039 15.746706008911133 12.850592613220215 15.002782821655273 L12.850592613220215 15.002782821655273 C12.759390830993652 15.002782821655273 9.4442777633667 15.002782821655273 9.408012390136719 15.002782821655273 L9.408012390136719 15.002782821655273 C9.138006210327148 15.706727981567383 8.867985725402832 16.410667419433594 8.597954750061035 17.11460304260254 L8.597954750061035 17.11460304260254 C9.109651565551758 17.316951751708984 9.621347427368164 17.51930046081543 10.133044242858887 17.721649169921875 L10.133044242858887 17.721649169921875 C9.772065162658691 17.721649169921875 7.42524528503418 17.721649169921875 6.9620208740234375 17.721649169921875 L6.9620208740234375 17.721649169921875 C8.534588813781738 16.62371063232422 8.650711059570312 15.600956916809082 9.302616119384766 13.793207168579102 C10.132447242736816 11.492063522338867 10.941569328308105 9.182854652404785 11.87608528137207 6.921980381011963 L11.87608528137207 6.921980381011963"></path>
<path fill="none" stroke="black" stroke-width=".3" stroke-opacity="1.0"  filling="0" d="M11.234103202819824 10.640401840209961 L11.234103202819824 10.640401840209961 C11.697395324707031 11.896010398864746 12.160652160644531 13.151627540588379 12.623856544494629 14.407269477844238 L12.623856544494629 14.407269477844238 C12.613548278808594 14.407269477844238 9.622366905212402 14.407269477844238 9.61860179901123 14.407269477844238 L9.61860179901123 14.407269477844238 C10.04295539855957 13.174235343933105 10.467424392700195 11.941241264343262 10.892021179199219 10.708291053771973 L10.892021179199219 10.708291053771973 C11.006048202514648 10.685661315917969 11.120076179504395 10.663031578063965 11.234103202819824 10.640401840209961 L11.234103202819824 10.640401840209961"></path></svg>