<svg xmlns="http://www.w3.org/2000/svg" viewBox="0.0 0.0 24.0 24.0" height="200px" width="200px"><path fill="none" stroke="black" stroke-width=".3" stroke-opacity="1.0"  filling="0" d="M14.062700271606445 3.1356048583984375 C16.658536911010742 3.1356048583984375 18.5452938079834 3.1356048583984375 19.948719024658203 3.1356048583984375 C17.790828704833984 5.173254489898682 15.37122917175293 7.457284450531006 12.809578895568848 9.875704765319824 C15.902891159057617 14.20445728302002 18.5146427154541 18.49843406677246 21.671024322509766 22.335603713989258 C19.319799423217773 22.335603713989258 16.709226608276367 22.335603713989258 13.525732040405273 22.335603713989258 C14.45172119140625 21.915340423583984 14.906759262084961 21.709041595458984 15.704843521118164 21.34713363647461 C13.771522521972656 18.53792381286621 11.87651538848877 15.783531188964844 9.980916976928711 13.0297269821167 C9.82236099243164 13.085721969604492 9.66380500793457 13.141717910766602 9.5052490234375 13.198302268981934 C9.5052490234375 15.881963729858398 9.5052490234375 18.56621551513672 9.5052490234375 21.41668701171875 C10.048111915588379 21.603534698486328 10.651095390319824 21.810420989990234 11.254668235778809 22.017902374267578 C11.245826721191406 22.102191925048828 11.23698616027832 22.18706703186035 11.228143692016602 22.2713565826416 C8.664135932922363 22.2713565826416 6.100128173828125 22.2713565826416 3.8732728958129883 22.2713565826416 C4.254631519317627 21.53339385986328 5.0603790283203125 20.682260513305664 5.083956241607666 19.809907913208008 C5.213039875030518 15.1015625 5.201840877532959 10.386735916137695 5.099870204925537 5.677213191986084 C5.082188129425049 4.844353199005127 4.406704425811768 4.026228904724121 4.02475643157959 3.17922306060791 C6.050027847290039 3.17922306060791 8.579259872436523 3.17922306060791 11.603610038757324 3.17922306060791 C10.685282707214355 3.5199108123779297 10.158334732055664 3.7156009674072266 9.464579582214355 3.9731807708740234 C9.464579582214355 6.49062442779541 9.464579582214355 9.067599296569824 9.464579582214355 12.36485481262207 C12.212488174438477 9.417718887329102 14.50300407409668 6.961576461791992 17.035181045532227 4.2454962730407715 C16.037281036376953 3.8729782104492188 15.385963439941406 3.629544258117676 14.062700271606445 3.1356048583984375"></path></svg>