<svg xmlns="http://www.w3.org/2000/svg" viewBox="0.0 0.0 24.0 24.0" height="200px" width="200px"><path fill="none" stroke="black" stroke-width=".3" stroke-opacity="1.0"  filling="0" d="M10.82030963897705 2.8192338943481445 C10.985308647155762 3.021834373474121 11.150308609008789 3.2249975204467773 11.315308570861816 3.4275989532470703 C10.664850234985352 7.477384567260742 10.007097244262695 11.525486946105957 9.371792793273926 15.577516555786133 C9.256742477416992 16.312158584594727 9.140568733215332 17.06924819946289 9.19612979888916 17.802764892578125 C9.276384353637695 18.865161895751953 9.640057563781738 20.074596405029297 10.85735034942627 20.031944274902344 C11.827142715454102 19.99770736694336 13.010763168334961 19.489242553710938 13.66065788269043 18.78546714782715 C14.288105964660645 18.106388092041016 14.460962295532227 16.92837905883789 14.647289276123047 15.934453964233398 C15.351061820983887 12.178189277648926 15.968969345092773 8.405647277832031 16.643558502197266 4.643208026885986 C16.801822662353516 3.759842872619629 16.799579620361328 2.622804641723633 18.61569595336914 3.209282875061035 C18.428808212280273 4.565759181976318 18.269420623779297 6.0030517578125 18.026973724365234 7.4263129234313965 C17.44891357421875 10.826763153076172 16.947742462158203 14.245733261108398 16.195140838623047 17.60858154296875 C15.540194511413574 20.53592300415039 13.8413724899292 21.961990356445312 11.498266220092773 22.016990661621094 C8.791487693786621 22.080406188964844 6.778380393981934 20.423675537109375 7.055063247680664 17.77638816833496 C7.538837909698486 13.144052505493164 8.37225341796875 8.545391082763672 9.19051742553711 3.956270217895508 C9.273017883300781 3.4949464797973633 10.255719184875488 3.1941308975219727 10.82030963897705 2.8192338943481445"></path></svg>