<svg xmlns="http://www.w3.org/2000/svg" viewBox="0.0 0.0 24.0 24.0" height="200px" width="200px"><path fill="none" stroke="black" stroke-width=".3" stroke-opacity="1.0"  filling="0" d="M9.715316772460938 11.203526496887207 L9.715316772460938 11.203526496887207 C10.17321491241455 12.067239761352539 10.250693321228027 13.1304349899292 10.1542387008667 14.103249549865723 L10.128135681152344 14.070378303527832 C9.49942684173584 15.440759658813477 8.870677947998047 16.811120986938477 8.24193000793457 18.181486129760742 L8.24193000793457 18.181486129760742 C7.812675952911377 18.181486129760742 7.383421421051025 18.181486129760742 6.954167366027832 18.181486129760742 L6.954167366027832 18.181486129760742 C7.638397693634033 16.174739837646484 8.32276439666748 14.168044090270996 9.006982803344727 12.161293029785156 L9.006982803344727 12.161293029785156 C8.492006301879883 12.468409538269043 7.977029800415039 12.77552604675293 7.462053298950195 13.082642555236816 L7.462053298950195 13.082642555236816 C8.014910697937012 12.275906562805176 8.813336372375488 11.58155632019043 9.715316772460938 11.203526496887207 L9.715316772460938 11.203526496887207"></path>
<path fill="none" stroke="black" stroke-width=".3" stroke-opacity="1.0"  filling="0" d="M13.602130889892578 11.466815948486328 L13.602130889892578 11.466815948486328 C13.796740531921387 12.555739402770996 13.584906578063965 13.416647911071777 13.71524429321289 14.471273422241211 L13.71524429321289 14.471273422241211 C12.82958698272705 16.435077667236328 12.908456802368164 17.481754302978516 10.755904197692871 18.10382080078125 L10.755904197692871 18.10382080078125 C11.357965469360352 16.274751663208008 11.960026741027832 14.445684432983398 12.562188148498535 12.616649627685547 L12.562188148498535 12.616649627685547 C12.434464454650879 12.533827781677246 12.306741714477539 12.451006889343262 12.179018020629883 12.368185043334961 L12.179018020629883 12.368185043334961 C12.179010391235352 12.36819076538086 10.127820014953613 14.070050239562988 10.127813339233398 14.070055961608887 L10.127813339233398 14.070055961608887 C10.136622428894043 14.081120491027832 10.145430564880371 14.092185020446777 10.154239654541016 14.103249549865723 L10.154239654541016 14.103249549865723 C11.310046195983887 12.548686981201172 11.602593421936035 11.600358963012695 13.602130889892578 11.466815948486328 L13.602130889892578 11.466815948486328"></path>
<path fill="none" stroke="black" stroke-width=".3" stroke-opacity="1.0"  filling="0" d="M17.36261749267578 11.470038414001465 L17.36261749267578 11.470038414001465 C17.788333892822266 13.439047813415527 16.72295379638672 15.355218887329102 16.48992919921875 17.35391616821289 L16.48992919921875 17.35391616821289 C16.911340713500977 17.004154205322266 17.332754135131836 16.654390335083008 17.754165649414062 16.304628372192383 L17.754165649414062 16.304628372192383 C16.89742088317871 17.8428955078125 16.39516258239746 18.16400718688965 14.693957328796387 18.634267807006836 L14.693957328796387 18.634267807006836 C14.91309642791748 16.474050521850586 15.722391128540039 14.573358535766602 16.200536727905273 12.467443466186523 L16.200536727905273 12.467443466186523 C15.282462120056152 13.005574226379395 14.429357528686523 13.682295799255371 13.71524429321289 14.471275329589844 L13.71524429321289 14.471275329589844 C13.695263862609863 14.309606552124023 13.675284385681152 14.147936820983887 13.655303955078125 13.986268043518066 L13.655303955078125 13.986268043518066 C14.82999038696289 12.493684768676758 15.391769409179688 11.481277465820312 17.36261749267578 11.470038414001465 L17.36261749267578 11.470038414001465"></path></svg>