<svg xmlns="http://www.w3.org/2000/svg" viewBox="0.0 0.0 24.0 24.0" height="200px" width="200px"><path fill="none" stroke="black" stroke-width=".3" stroke-opacity="1.0"  filling="0" d="M8.055068969726562 6.725316047668457 L8.055068969726562 6.725316047668457 C8.979270935058594 6.725316047668457 9.903471946716309 6.725316047668457 10.82767391204834 6.725316047668457 L10.82767391204834 6.725316047668457 C10.82767391204834 7.767940521240234 10.82767391204834 8.810564994812012 10.82767391204834 9.853189468383789 L10.82767391204834 9.853189468383789 C11.5418062210083 9.301334381103516 12.296221733093262 8.622512817382812 13.242737770080566 8.493947982788086 C15.488719940185547 8.188876152038574 16.272687911987305 9.808588981628418 16.495424270629883 11.818151473999023 C16.71816062927246 13.827714920043945 16.37966537475586 16.227127075195312 16.380714416503906 17.481456756591797 L16.380714416503906 17.481456756591797 C15.411712646484375 17.481456756591797 14.442710876464844 17.481456756591797 13.473709106445312 17.481456756591797 L13.473709106445312 17.481456756591797 C13.473841667175293 16.20579719543457 13.952322959899902 13.68960189819336 13.46462345123291 12.493586540222168 C13.270746231079102 12.018128395080566 12.991318702697754 11.358512878417969 12.480270385742188 11.30872917175293 C11.914678573608398 11.253632545471191 11.417604446411133 11.813865661621094 11.065459251403809 12.259873390197754 C10.354301452636719 13.160588264465332 10.910400390625 16.49968147277832 10.913515090942383 17.52531623840332 L10.913515090942383 17.52531623840332 C9.960700035095215 17.52531623840332 9.00788402557373 17.52531623840332 8.055068969726562 17.52531623840332 L8.055068969726562 17.52531623840332 C8.055068969726562 15.725316047668457 8.055068969726562 13.925315856933594 8.055068969726562 12.125316619873047 C8.055068969726562 10.325316429138184 8.055068969726562 8.52531623840332 8.055068969726562 6.725316047668457 L8.055068969726562 6.725316047668457"></path></svg>