<svg xmlns="http://www.w3.org/2000/svg" viewBox="0.0 0.0 24.0 24.0" height="200px" width="200px"><path fill="none" stroke="black" stroke-width=".3" stroke-opacity="1.0"  filling="0" d="M14.59169864654541 7.229020118713379 L14.59169864654541 7.229020118713379 C14.381047248840332 7.8031206130981445 13.679136276245117 8.104924201965332 13.467155456542969 8.678535461425781 C12.951051712036133 10.075090408325195 14.808943748474121 11.60709285736084 12.772703170776367 12.814854621887207 C12.203160285949707 13.152669906616211 11.453607559204102 12.93309211730957 10.794059753417969 12.992210388183594 L10.794059753417969 12.992210388183594 C10.929709434509277 13.425140380859375 10.900856971740723 13.950797080993652 11.201007843017578 14.291000366210938 C11.381135940551758 14.49516487121582 11.751405715942383 14.300820350646973 12.013537406921387 14.374414443969727 C13.13961410522461 14.69056224822998 13.949850082397461 15.6969633102417 13.329830169677734 16.928747177124023 C12.007613182067871 19.555572509765625 6.655358791351318 16.93208122253418 9.732382774353027 15.103802680969238 L9.732382774353027 15.103802680969238 C9.612630844116211 14.210203170776367 9.816214561462402 13.196718215942383 10.350737571716309 12.470670700073242 L10.350737571716309 12.470670700073242 C9.955073356628418 9.809285163879395 10.162429809570312 9.152899742126465 12.816768646240234 8.504289627075195 L12.816768646240234 8.504289627075195 C13.205485343933105 7.888138294219971 13.893091201782227 7.435637474060059 14.59169864654541 7.229020118713379 L14.59169864654541 7.229020118713379"></path>
<path fill="none" stroke="black" stroke-width=".3" stroke-opacity="1.0"  filling="0" d="M12.098044395446777 9.400506973266602 L12.098044395446777 9.400506973266602 C12.426867485046387 9.794692993164062 12.75568962097168 10.188878059387207 13.084512710571289 10.583064079284668 L13.084512710571289 10.583064079284668 C12.744295120239258 11.137969017028809 12.542963027954102 11.807180404663086 12.063858985900879 12.24777889251709 C11.545483589172363 12.724493026733398 10.89206314086914 11.062385559082031 11.073015213012695 10.3817777633667 C11.194549560546875 9.92465591430664 11.756367683410645 9.7275972366333 12.098044395446777 9.400506973266602 L12.098044395446777 9.400506973266602"></path>
<path fill="none" stroke="black" stroke-width=".3" stroke-opacity="1.0"  filling="0" d="M11.037189483642578 15.333805084228516 L11.037189483642578 15.333805084228516 C11.767297744750977 15.384961128234863 13.469869613647461 16.060714721679688 12.081192016601562 17.03697967529297 C11.536272048950195 17.420068740844727 9.643064498901367 17.620662689208984 9.703940391540527 16.222637176513672 C9.727176666259766 15.689021110534668 10.5927734375 15.630082130432129 11.037189483642578 15.333805084228516 L11.037189483642578 15.333805084228516"></path></svg>