<svg xmlns="http://www.w3.org/2000/svg" viewBox="0.0 0.0 24.0 24.0" height="200px" width="200px"><path fill="none" stroke="black" stroke-width=".3" stroke-opacity="1.0"  filling="0" d="M12.296990394592285 4.083765983581543 C12.987909317016602 4.070799827575684 13.697967529296875 5.093902587890625 14.806894302368164 5.990429401397705 C13.60473346710205 6.845587253570557 12.919989585876465 7.624800205230713 12.084589004516602 7.852019309997559 C11.08495044708252 8.124311447143555 9.787702560424805 6.642448902130127 10.233495712280273 5.718136787414551 C10.592229843139648 4.973501682281494 11.575199127197266 4.097350120544434 12.296990394592285 4.083765983581543"></path>
<path fill="none" stroke="black" stroke-width=".3" stroke-opacity="1.0"  filling="0" d="M14.084486961364746 11.070131301879883 C14.084486961364746 14.770464897155762 14.084486961364746 18.391765594482422 14.084486961364746 22.030357360839844 C14.898893356323242 22.45701026916504 15.476202011108398 22.75893783569336 16.47954750061035 23.284381866455078 C13.669565200805664 23.284381866455078 11.351685523986816 23.284381866455078 9.116541862487793 23.284381866455078 C12.061126708984375 20.794235229492188 10.130383491516113 17.476715087890625 10.553949356079102 14.604372024536133 C10.820066452026367 12.79835319519043 10.574941635131836 12.761923789978027 8.551582336425781 11.444918632507324 C10.737329483032227 11.296732902526855 12.251916885375977 11.194236755371094 14.084486961364746 11.070131301879883"></path></svg>