<svg xmlns="http://www.w3.org/2000/svg" viewBox="0.0 0.0 24.0 24.0" height="200px" width="200px"><path fill="none" stroke="black" stroke-width=".3" stroke-opacity="1.0"  filling="0" d="M10.491796493530273 10.531746864318848 L10.491796493530273 10.531746864318848 C10.662930488586426 10.887700080871582 10.834065437316895 11.243654251098633 11.005199432373047 11.599607467651367 L11.005199432373047 11.599607467651367 C11.96138858795166 11.264867782592773 12.996807098388672 10.611836433410645 14.026021003723145 10.564414024353027 C16.014144897460938 10.472807884216309 16.6520938873291 11.658401489257812 16.832988739013672 13.171174049377441 C17.013883590698242 14.683947563171387 16.73772430419922 16.523900985717773 16.897634506225586 17.741016387939453 C16.98190689086914 18.38243293762207 17.349489212036133 19.071157455444336 17.60968780517578 19.643653869628906 L17.60968780517578 19.643653869628906 C16.263126373291016 19.644004821777344 14.916565895080566 19.644081115722656 13.570005416870117 19.64409637451172 L13.570005416870117 19.64409637451172 C14.489317893981934 17.848987579345703 14.600172996520996 14.76622486114502 14.14344596862793 12.76546859741211 C14.036638259887695 12.29758071899414 13.923622131347656 11.678457260131836 13.484199523925781 11.485493659973145 C12.065926551818848 10.862686157226562 11.10504150390625 12.92045783996582 10.9215726852417 13.75288200378418 C10.453397750854492 15.87705135345459 10.826756477355957 17.753938674926758 11.644414901733398 19.697952270507812 L11.644414901733398 19.697952270507812 C10.032837867736816 19.697952270507812 8.4212646484375 19.697952270507812 6.809687614440918 19.697952270507812 L6.809687614440918 19.697952270507812 C7.234877109527588 19.272096633911133 7.812530994415283 18.956819534301758 8.085256576538086 18.420387268066406 C8.473875045776367 17.656002044677734 8.090888023376465 16.1207218170166 8.08326244354248 15.358968734741211 C8.061765670776367 13.211475372314453 8.414423942565918 12.71835994720459 6.997302532196045 10.928607940673828 L6.997302532196045 10.928607940673828 C8.16213607788086 10.79633903503418 9.326967239379883 10.66405200958252 10.491796493530273 10.531746864318848 L10.491796493530273 10.531746864318848"></path></svg>