<svg xmlns="http://www.w3.org/2000/svg" viewBox="0.0 0.0 24.0 24.0" height="200px" width="200px"><path fill="none" stroke="black" stroke-width=".3" stroke-opacity="1.0"  filling="0" d="M13.134166717529297 8.238996505737305 L13.134166717529297 8.238996505737305 C14.93797492980957 9.095514297485352 15.15877628326416 10.3234281539917 15.162693977355957 12.26762866973877 L15.162693977355957 12.26762866973877 C15.268383979797363 12.299789428710938 15.37407398223877 12.331949234008789 15.479763984680176 12.364109992980957 L15.479763984680176 12.364109992980957 C15.390166282653809 12.6716890335083 14.622922897338867 15.317031860351562 14.520873069763184 15.621521949768066 C13.93376350402832 17.373308181762695 11.434579849243164 20.92609405517578 9.433813095092773 18.09364128112793 C8.652419090270996 16.98743438720703 8.881715774536133 15.448357582092285 9.033072471618652 14.243147850036621 C9.213798522949219 12.804084777832031 9.416248321533203 11.379924774169922 9.984928131103516 10.277091979980469 C10.553607940673828 9.174259185791016 11.488517761230469 8.392753601074219 13.134166717529297 8.238996505737305 L13.134166717529297 8.238996505737305"></path>
<path fill="none" stroke="black" stroke-width=".3" stroke-opacity="1.0"  filling="0" d="M12.872743606567383 9.517285346984863 L12.872743606567383 9.517285346984863 C14.205574035644531 11.04421615600586 13.711671829223633 12.698930740356445 13.357986450195312 14.584075927734375 C13.273123741149902 15.036393165588379 12.973621368408203 16.92184829711914 12.468999862670898 17.359766006469727 C10.550055503845215 19.02505111694336 10.232762336730957 16.1061954498291 10.228891372680664 15.001956939697266 L10.228891372680664 15.001956939697266 C10.174979209899902 14.98687744140625 10.121066093444824 14.97179889678955 10.067153930664062 14.956719398498535 L10.067153930664062 14.956719398498535 C10.542559623718262 12.97677230834961 10.537487030029297 9.86367130279541 12.872743606567383 9.517285346984863 L12.872743606567383 9.517285346984863"></path></svg>