<svg xmlns="http://www.w3.org/2000/svg" viewBox="0.0 0.0 24.0 24.0" height="200px" width="200px"><path fill="none" stroke="black" stroke-width=".3" stroke-opacity="1.0"  filling="0" d="M9.465252876281738 8.997858047485352 L9.465252876281738 8.997858047485352 C11.54479694366455 8.997858047485352 13.624344825744629 8.997858047485352 15.703889846801758 8.997858047485352 L15.703889846801758 8.997858047485352 C14.908074378967285 10.629939079284668 13.960311889648438 12.165971755981445 13.000007629394531 13.695110321044922 C12.039703369140625 15.224247932434082 11.066859245300293 16.746490478515625 10.220880508422852 18.350994110107422 L10.220880508422852 18.350994110107422 C10.299243927001953 18.356107711791992 13.690967559814453 18.577295303344727 13.834752082824707 18.5866641998291 L13.834752082824707 18.5866641998291 C12.570549964904785 20.531213760375977 9.864980697631836 19.715999603271484 7.88697624206543 19.55605697631836 L7.88697624206543 19.55605697631836 C8.735128402709961 17.967411041259766 9.680594444274902 16.442852020263672 10.644954681396484 14.929563522338867 C11.609314918518066 13.416275024414062 12.592567443847656 11.91425609588623 13.516292572021484 10.370691299438477 L13.516292572021484 10.370691299438477 C11.786316871643066 9.96449089050293 10.946318626403809 10.08238410949707 9.465252876281738 8.997858047485352 L9.465252876281738 8.997858047485352"></path></svg>