<svg xmlns="http://www.w3.org/2000/svg" viewBox="0.0 0.0 24.0 24.0" height="200px" width="200px"><path fill="none" stroke="black" stroke-width=".3" stroke-opacity="1.0"  filling="0" d="M10.083523750305176 7.4536309242248535 L10.083523750305176 7.4536309242248535 C11.216650009155273 6.978503227233887 12.824823379516602 7.071857929229736 13.830327033996582 7.669790744781494 C14.835829734802246 8.267723083496094 15.238662719726562 9.370233535766602 13.961104393005371 10.913415908813477 C13.598949432373047 11.350869178771973 13.014102935791016 11.54053020477295 12.54060173034668 11.854087829589844 L12.54060173034668 11.854087829589844 C13.931072235107422 12.246820449829102 14.897954940795898 13.242311477661133 15.130472183227539 14.320433616638184 C15.36298942565918 15.39855670928955 14.861143112182617 16.559310913085938 13.314155578613281 17.282573699951172 C11.8692626953125 17.95810317993164 9.100868225097656 17.824188232421875 8.870019912719727 15.673113822937012 C8.802539825439453 15.044329643249512 9.65023136138916 13.86952018737793 10.402251243591309 14.738455772399902 C11.071407318115234 15.511646270751953 10.433146476745605 16.194459915161133 10.092702865600586 16.80211067199707 L10.092702865600586 16.80211067199707 C10.685013771057129 16.887041091918945 11.298354148864746 17.234895706176758 11.869636535644531 17.056901931762695 C13.573201179504395 16.526123046875 13.339315414428711 13.620014190673828 12.159873008728027 12.750425338745117 C11.531086921691895 12.286828994750977 10.72225570678711 12.138518333435059 10.003446578979492 11.832565307617188 L10.003446578979492 11.832565307617188 C10.87004280090332 11.654511451721191 11.507890701293945 11.629082679748535 12.17549991607666 10.807936668395996 C13.483569145202637 9.199036598205566 12.530974388122559 6.852494716644287 10.495621681213379 7.74545431137085 L10.495621681213379 7.74545431137085 C10.635576248168945 8.082202911376953 11.541281700134277 9.572766304016113 10.354774475097656 9.806575775146484 C9.927922248840332 9.890689849853516 9.356629371643066 9.460789680480957 9.306804656982422 9.02859115600586 C9.239768028259277 8.447084426879883 9.824617385864258 7.9786176681518555 10.083523750305176 7.4536309242248535 L10.083523750305176 7.4536309242248535"></path></svg>