<svg xmlns="http://www.w3.org/2000/svg" viewBox="0.0 0.0 24.0 24.0" height="200px" width="200px"><path fill="none" stroke="black" stroke-width=".3" stroke-opacity="1.0"  filling="0" d="M17.737110137939453 4.30509614944458 C19.8828067779541 4.81823205947876 21.013408660888672 6.407675266265869 21.162452697753906 8.528351783752441 C21.309898376464844 10.62401008605957 21.31841468811035 12.74734878540039 21.16085433959961 14.841409683227539 C20.980937957763672 17.23089599609375 19.8178653717041 19.091812133789062 17.35226058959961 19.70235824584961 C15.023454666137695 20.27883529663086 12.78620433807373 20.16013526916504 10.916772842407227 17.45126724243164 C10.916240692138672 19.609737396240234 10.916240692138672 21.235376358032227 10.916240692138672 23.153247833251953 C8.80461311340332 23.153247833251953 7.127873420715332 23.162296295166016 5.451133728027344 23.145793914794922 C5.1184468269348145 23.142601013183594 4.786293029785156 23.042530059814453 4.334903717041016 22.96747589111328 C4.334903717041016 16.902999877929688 4.334903717041016 10.922096252441406 4.334903717041016 4.734661102294922 C6.4113993644714355 4.734661102294922 8.480443000793457 4.734661102294922 10.685223579406738 4.734661102294922 C10.802328109741211 5.103011131286621 10.954565048217773 5.5804829597473145 11.106802940368652 6.057954788208008 C11.242006301879883 5.988223075866699 11.423521041870117 5.952559471130371 11.503897666931152 5.842906475067139 C13.15349006652832 3.5891542434692383 15.4439697265625 3.7562971115112305 17.737110137939453 4.30509614944458"></path>
<path fill="none" stroke="black" stroke-width=".3" stroke-opacity="1.0"  filling="0" d="M12.775026321411133 9.788832664489746 C14.115885734558105 9.796285629272461 14.727497100830078 10.58887767791748 14.729625701904297 12.320976257324219 C14.73228645324707 14.176568984985352 14.052541732788086 15.145883560180664 12.730844497680664 15.171966552734375 C11.464507102966309 15.196452140808105 10.859816551208496 14.3788423538208 10.819361686706543 12.588722229003906 C10.775712966918945 10.631993293762207 11.370290756225586 9.780848503112793 12.775026321411133 9.788832664489746"></path></svg>