<svg xmlns="http://www.w3.org/2000/svg" viewBox="0.0 0.0 24.0 24.0" height="200px" width="200px"><path fill="none" stroke="black" stroke-width=".3" stroke-opacity="1.0"  filling="0" d="M16.627635955810547 2.581639289855957 C16.9366455078125 6.00176477432251 16.306446075439453 6.73219633102417 13.01756477355957 6.75324010848999 C11.648628234863281 6.762100696563721 10.279138565063477 6.75490140914917 8.716933250427246 6.75490140914917 C8.592333793640137 8.083412170410156 8.484901428222656 9.226408004760742 8.355871200561523 10.599221229553223 C9.352668762207031 10.439179420471191 10.120203971862793 10.263078689575195 10.896599769592285 10.200501441955566 C13.704801559448242 9.974560737609863 16.320842742919922 11.409950256347656 17.267248153686523 13.653300285339355 C18.18375015258789 15.825213432312012 17.617788314819336 18.433502197265625 15.893327713012695 19.98297119140625 C13.822202682495117 21.844215393066406 10.289105415344238 22.410728454589844 8.186967849731445 20.965927124023438 C7.37568473815918 20.408273696899414 6.732749938964844 19.326745986938477 6.4674906730651855 18.35874366760254 C6.3118791580200195 17.791122436523438 6.90885066986084 16.822011947631836 7.442691802978516 16.33469009399414 C7.752806663513184 16.051708221435547 8.934566497802734 16.143634796142578 9.146108627319336 16.457073211669922 C9.551473617553711 17.0573673248291 9.678289413452148 17.940088272094727 9.657245635986328 18.69820785522461 C9.645062446594238 19.147876739501953 9.129495620727539 19.583698272705078 8.788923263549805 20.104801177978516 C9.861589431762695 21.398426055908203 11.081560134887695 21.42611312866211 12.360784530639648 20.496322631835938 C14.031529426574707 19.281888961791992 14.548203468322754 16.06278419494629 13.530915260314941 13.58906364440918 C12.596694946289062 11.315808296203613 11.769351959228516 11.022859573364258 7.441030979156494 11.659149169921875 C7.647590160369873 9.04864501953125 7.846395969390869 6.533944129943848 8.04243278503418 4.050254821777344 C10.887185096740723 2.638676643371582 14.104628562927246 4.629505634307861 16.627635955810547 2.581639289855957"></path></svg>