<svg xmlns="http://www.w3.org/2000/svg" viewBox="0.0 0.0 24.0 24.0" height="200px" width="200px"><path fill="none" stroke="black" stroke-width=".3" stroke-opacity="1.0"  filling="0" d="M11.505850791931152 7.508999347686768 L11.505850791931152 7.508999347686768 C12.114653587341309 7.313543319702148 12.6949462890625 6.8708953857421875 13.332258224487305 6.92263126373291 C16.92064666748047 7.213931083679199 14.88259506225586 10.665184020996094 13.7363862991333 11.950631141662598 L13.7363862991333 11.950631141662598 C14.092781066894531 12.508275985717773 14.59470272064209 12.996253967285156 14.805571556091309 13.623564720153809 C14.99587631225586 14.189699172973633 15.062933921813965 14.838188171386719 14.900205612182617 15.412857055664062 C14.328245162963867 17.432716369628906 12.507339477539062 17.920696258544922 11.109413146972656 17.446002960205078 C9.71148681640625 16.971309661865234 8.73653793334961 15.533944129943848 9.85649299621582 13.703113555908203 C10.251139640808105 13.05797004699707 10.881189346313477 12.590537071228027 11.393537521362305 12.034249305725098 L11.393537521362305 12.034249305725098 C10.400073051452637 10.007575035095215 10.183452606201172 9.363369941711426 11.505850791931152 7.508999347686768 L11.505850791931152 7.508999347686768"></path>
<path fill="none" stroke="black" stroke-width=".3" stroke-opacity="1.0"  filling="0" d="M13.194873809814453 7.8539628982543945 L13.194873809814453 7.8539628982543945 C14.594805717468262 9.63455867767334 14.567112922668457 10.0853853225708 12.745311737060547 11.406651496887207 L12.745311737060547 11.406651496887207 C11.117764472961426 9.6475191116333 11.167524337768555 9.160578727722168 13.194873809814453 7.8539628982543945 L13.194873809814453 7.8539628982543945"></path>
<path fill="none" stroke="black" stroke-width=".3" stroke-opacity="1.0"  filling="0" d="M12.27846908569336 12.72448444366455 L12.27846908569336 12.72448444366455 C12.640801429748535 12.970542907714844 13.104996681213379 13.11054515838623 13.365466117858887 13.462660789489746 C13.669157028198242 13.873205184936523 13.891351699829102 14.391599655151367 13.889429092407227 14.902257919311523 C13.881109237670898 17.111953735351562 10.3500394821167 17.49404525756836 10.491943359375 15.113924026489258 C10.525718688964844 14.547426223754883 10.747664451599121 13.973481178283691 11.08749008178711 13.51897144317627 C11.373252868652344 13.136770248413086 11.881476402282715 12.989313125610352 12.27846908569336 12.72448444366455 L12.27846908569336 12.72448444366455"></path></svg>