<svg xmlns="http://www.w3.org/2000/svg" viewBox="0.0 0.0 24.0 24.0" height="200px" width="200px"><path fill="none" stroke="black" stroke-width=".3" stroke-opacity="1.0"  filling="0" d="M10.691330909729004 6.993662357330322 L10.691330909729004 6.993662357330322 C11.48197078704834 6.993662357330322 12.272611618041992 6.993662357330322 13.063251495361328 6.993662357330322 L13.063251495361328 6.993662357330322 C13.474597930908203 8.793663024902344 13.885972023010254 10.593657493591309 14.297334671020508 12.393654823303223 C14.708698272705078 14.193652153015137 15.120049476623535 15.99365234375 15.531349182128906 17.793663024902344 L15.531349182128906 17.793663024902344 C14.79653549194336 17.793663024902344 14.061722755432129 17.793663024902344 13.326909065246582 17.793663024902344 L13.326909065246582 17.793663024902344 C13.15267276763916 17.085824966430664 12.978450775146484 16.37798500061035 12.804237365722656 15.67014217376709 L12.804237365722656 15.67014217376709 C12.727814674377441 15.67014217376709 10.712091445922852 15.67014217376709 10.693984031677246 15.67014217376709 L10.693984031677246 15.67014217376709 C10.5822172164917 16.08921241760254 10.239470481872559 17.374940872192383 10.13416862487793 17.77011489868164 L10.13416862487793 17.77011489868164 C9.489672660827637 17.770004272460938 8.84517765045166 17.769893646240234 8.200681686401367 17.76978302001953 L8.200681686401367 17.76978302001953 C8.615741729736328 15.97375202178955 9.03084945678711 14.17773151397705 9.44597053527832 12.3817138671875 C9.861090660095215 10.585697174072266 10.276223182678223 8.789682388305664 10.691330909729004 6.993662357330322 L10.691330909729004 6.993662357330322"></path>
<path fill="none" stroke="black" stroke-width=".3" stroke-opacity="1.0"  filling="0" d="M11.853744506835938 10.344928741455078 L11.853744506835938 10.344928741455078 C12.129353523254395 11.723652839660645 12.233718872070312 12.245858192443848 12.51272201538086 13.64213752746582 L12.51272201538086 13.64213752746582 C11.969157218933105 13.692215919494629 11.425591468811035 13.742294311523438 10.882026672363281 13.792372703552246 L10.882026672363281 13.792372703552246 C11.10866641998291 12.646544456481934 11.335291862487793 11.500713348388672 11.561898231506348 10.354878425598145 L11.561898231506348 10.354878425598145 C11.659180641174316 10.351561546325684 11.756462097167969 10.348245620727539 11.853744506835938 10.344928741455078 L11.853744506835938 10.344928741455078"></path></svg>