<svg xmlns="http://www.w3.org/2000/svg" viewBox="0.0 0.0 24.0 24.0" height="200px" width="200px"><path fill="none" stroke="black" stroke-width=".3" stroke-opacity="1.0"  filling="0" d="M7.960383415222168 7.274306297302246 L7.960383415222168 7.274306297302246 C9.006345748901367 7.270169734954834 10.488142013549805 7.085984230041504 11.937705993652344 7.058570861816406 C13.387269973754883 7.031157493591309 14.804601669311523 7.160516262054443 15.721635818481445 7.783468723297119 C17.3035945892334 8.858112335205078 16.389446258544922 10.645026206970215 15.2717866897583 11.557876586914062 C14.86604118347168 11.889269828796387 14.356362342834473 12.067584037780762 13.898650169372559 12.322437286376953 L13.898650169372559 12.322437286376953 C14.39830207824707 12.61955738067627 15.031909942626953 12.76191520690918 15.39760684967041 13.213798522949219 C16.88463592529297 15.051284790039062 15.13886833190918 17.131444931030273 13.404857635498047 17.70510482788086 C11.180801391601562 18.440887451171875 8.406671524047852 18.055866241455078 6.107516288757324 18.04520034790039 L6.107516288757324 18.04520034790039 C7.545366287231445 17.131746292114258 7.447879314422607 16.28875160217285 7.791946887969971 14.627950668334961 C8.253091812133789 12.402022361755371 8.743403434753418 10.182125091552734 9.222661972045898 7.960056781768799 L9.222661972045898 7.960056781768799 C8.801902770996094 7.731473445892334 8.381142616271973 7.502889633178711 7.960383415222168 7.274306297302246 L7.960383415222168 7.274306297302246"></path>
<path fill="none" stroke="black" stroke-width=".3" stroke-opacity="1.0"  filling="0" d="M11.952910423278809 7.686344623565674 L11.952910423278809 7.686344623565674 C12.539480209350586 7.7395524978637695 13.178263664245605 7.598260402679443 13.712618827819824 7.845968723297119 C15.073159217834473 8.476667404174805 14.057124137878418 10.887529373168945 13.353551864624023 11.532913208007812 C12.467886924743652 12.345330238342285 11.701473236083984 12.124695777893066 10.608223915100098 12.130478858947754 L10.608223915100098 12.130478858947754 C10.923361778259277 10.729328155517578 11.238527297973633 9.32818603515625 11.553625106811523 7.927027702331543 L11.553625106811523 7.927027702331543 C11.68671989440918 7.846799850463867 11.819815635681152 7.76657247543335 11.952910423278809 7.686344623565674 L11.952910423278809 7.686344623565674"></path>
<path fill="none" stroke="black" stroke-width=".3" stroke-opacity="1.0"  filling="0" d="M10.547072410583496 12.572930335998535 L10.547072410583496 12.572930335998535 C11.113462448120117 12.57652759552002 11.729312896728516 12.352217674255371 12.24624252319336 12.583721160888672 C13.966233253479004 13.354007720947266 13.86988639831543 15.634629249572754 12.6627779006958 16.76436424255371 C11.673413276672363 17.690311431884766 10.789852142333984 17.46235466003418 9.53626823425293 17.50954818725586 L9.53626823425293 17.50954818725586 C9.848800659179688 15.857804298400879 10.184621810913086 14.214442253112793 10.547072410583496 12.572930335998535 L10.547072410583496 12.572930335998535"></path></svg>