<svg xmlns="http://www.w3.org/2000/svg" viewBox="0.0 0.0 24.0 24.0" height="200px" width="200px"><path fill="none" stroke="black" stroke-width=".3" stroke-opacity="1.0"  filling="0" d="M9.379667282104492 7.289681911468506 L9.379667282104492 7.289681911468506 C10.706268310546875 7.268614768981934 12.617757797241211 7.197694301605225 13.981470108032227 7.676296710968018 C15.345181465148926 8.154898643493652 16.161113739013672 9.183023452758789 15.296601295471191 11.360048294067383 C15.141093254089355 11.7516508102417 14.777921676635742 12.024210929870605 14.518582344055176 12.356291770935059 L14.518582344055176 12.356291770935059 C14.888792991638184 12.790860176086426 15.388040542602539 13.142560005187988 15.6292142868042 13.65999698638916 C15.867311477661133 14.170830726623535 15.915640830993652 14.764863014221191 15.90383529663086 15.328336715698242 C15.867929458618164 17.042123794555664 14.806836128234863 17.72237205505371 13.469744682312012 17.971242904663086 C12.13265323638916 18.220111846923828 10.519563674926758 18.03760528564453 9.379667282104492 18.0258846282959 L9.379667282104492 18.0258846282959 C9.379667282104492 16.23651695251465 9.379667282104492 14.447151184082031 9.379667282104492 12.657783508300781 C9.379667282104492 10.868416786193848 9.379667282104492 9.079050064086914 9.379667282104492 7.289681911468506 L9.379667282104492 7.289681911468506"></path>
<path fill="none" stroke="black" stroke-width=".3" stroke-opacity="1.0"  filling="0" d="M11.45950984954834 9.055765151977539 L11.45950984954834 9.055765151977539 C12.00047779083252 9.185734748840332 12.643670082092285 9.103559494018555 13.082412719726562 9.445673942565918 C14.697476387023926 10.705038070678711 12.104804039001465 11.426285743713379 11.45950984954834 11.407488822937012 L11.45950984954834 11.407488822937012 C11.45950984954834 10.623580932617188 11.45950984954834 9.839673042297363 11.45950984954834 9.055765151977539 L11.45950984954834 9.055765151977539"></path>
<path fill="none" stroke="black" stroke-width=".3" stroke-opacity="1.0"  filling="0" d="M11.455910682678223 13.424186706542969 L11.455910682678223 13.424186706542969 C12.942548751831055 13.15463924407959 13.973286628723145 13.628515243530273 13.356134414672852 15.629990577697754 C13.111857414245605 16.42220115661621 11.915945053100586 16.173921585083008 11.455910682678223 16.16295623779297 L11.455910682678223 16.16295623779297 C11.455910682678223 15.250033378601074 11.455910682678223 14.337109565734863 11.455910682678223 13.424186706542969 L11.455910682678223 13.424186706542969"></path></svg>