<svg xmlns="http://www.w3.org/2000/svg" viewBox="0.0 0.0 24.0 24.0" height="200px" width="200px"><path fill="none" stroke="black" stroke-width=".3" stroke-opacity="1.0"  filling="0" d="M17.029212951660156 8.083142280578613 L17.029212951660156 8.083142280578613 C17.029212951660156 9.82492733001709 17.029212951660156 11.56671142578125 17.029212951660156 13.308494567871094 C17.029212951660156 15.050278663635254 17.029212951660156 16.792062759399414 17.029212951660156 18.53384780883789 L17.029212951660156 18.53384780883789 C15.81313705444336 18.53384780883789 14.597062110900879 18.53384780883789 13.380986213684082 18.53384780883789 L13.380986213684082 18.53384780883789 C13.330842971801758 17.641036987304688 13.280698776245117 16.74822425842285 13.23055362701416 15.855413436889648 L13.23055362701416 15.855413436889648 C12.710142135620117 16.151134490966797 12.244378089904785 16.57648468017578 11.669319152832031 16.742576599121094 C9.52852725982666 17.360897064208984 8.143377304077148 16.080156326293945 7.534440517425537 14.309391975402832 C6.925503253936768 12.538627624511719 7.092778205871582 10.277837753295898 8.056836128234863 8.93605899810791 C9.146617889404297 7.419297218322754 11.733672142028809 7.296947002410889 12.857346534729004 8.81200122833252 L12.857346534729004 8.81200122833252 C14.394407272338867 8.086009979248047 15.356148719787598 8.127301216125488 17.029212951660156 8.083142280578613 L17.029212951660156 8.083142280578613"></path>
<path fill="none" stroke="black" stroke-width=".3" stroke-opacity="1.0"  filling="0" d="M12.237756729125977 11.125097274780273 L12.237756729125977 11.125097274780273 C13.391940116882324 11.578241348266602 14.201949119567871 14.115889549255371 12.272868156433105 14.137085914611816 C10.36812973022461 14.158015251159668 11.075154304504395 11.591912269592285 12.237756729125977 11.125097274780273 L12.237756729125977 11.125097274780273"></path></svg>