<svg xmlns="http://www.w3.org/2000/svg" viewBox="0.0 0.0 24.0 24.0" height="200px" width="200px"><path fill="none" stroke="black" stroke-width=".3" stroke-opacity="1.0"  filling="0" d="M13.132898330688477 7.023985385894775 L13.132898330688477 7.023985385894775 C13.135899543762207 7.023985385894775 15.271842956542969 7.023985385894775 15.316622734069824 7.023985385894775 L15.316622734069824 7.023985385894775 C15.316622734069824 8.815899848937988 15.316622734069824 10.60781478881836 15.316622734069824 12.399728775024414 C15.316622734069824 14.191643714904785 15.316622734069824 15.983558654785156 15.316622734069824 17.77547264099121 L15.316622734069824 17.77547264099121 C15.202862739562988 17.77547264099121 13.243452072143555 17.77547264099121 13.229259490966797 17.77547264099121 L13.229259490966797 17.77547264099121 C13.229259490966797 16.289751052856445 13.229259490966797 14.80402946472168 13.229259490966797 13.318307876586914 L13.229259490966797 13.318307876586914 C12.650100708007812 13.318307876586914 12.070941925048828 13.318307876586914 11.491783142089844 13.318307876586914 L11.491783142089844 13.318307876586914 C11.491782188415527 14.820089340209961 11.491782188415527 16.321874618530273 11.491782188415527 17.823654174804688 L11.491782188415527 17.823654174804688 C11.283761024475098 17.823654174804688 9.591450691223145 17.823654174804688 9.339956283569336 17.823654174804688 L9.339956283569336 17.823654174804688 C9.339956283569336 16.024208068847656 9.339956283569336 14.224761962890625 9.339956283569336 12.425314903259277 C9.339956283569336 10.625868797302246 9.339956283569336 8.826421737670898 9.339956283569336 7.026976108551025 L9.339956283569336 7.026976108551025 C10.030538558959961 7.026976108551025 10.721120834350586 7.026976108551025 11.411703109741211 7.026976108551025 L11.411703109741211 7.026976108551025 C11.411703109741211 8.395735740661621 11.411703109741211 9.764496803283691 11.411703109741211 11.133255958557129 L11.411703109741211 11.133255958557129 C11.985434532165527 11.181214332580566 12.55916690826416 11.229172706604004 13.132898330688477 11.277131080627441 L13.132898330688477 11.277131080627441 C13.132898330688477 9.859416007995605 13.132898330688477 8.441699981689453 13.132898330688477 7.023985385894775 L13.132898330688477 7.023985385894775"></path></svg>