<svg xmlns="http://www.w3.org/2000/svg" viewBox="0.0 0.0 24.0 24.0" height="200px" width="200px"><path fill="none" stroke="black" stroke-width=".3" stroke-opacity="1.0"  filling="0" d="M12.960384368896484 7.940382957458496 L12.960384368896484 7.940382957458496 C14.202919960021973 7.940382957458496 15.445454597473145 7.940382957458496 16.687990188598633 7.940382957458496 L16.687990188598633 7.940382957458496 C16.703628540039062 7.980237007141113 16.71926498413086 8.02009105682373 16.73490333557129 8.059945106506348 L16.73490333557129 8.059945106506348 C16.42107391357422 8.172179222106934 16.10724639892578 8.284414291381836 15.793417930603027 8.396648406982422 L15.793417930603027 8.396648406982422 C15.51026725769043 9.710676193237305 15.22708797454834 11.024698257446289 14.943902015686035 12.33871841430664 C14.66071605682373 13.652738571166992 14.377523422241211 14.966757774353027 14.094347953796387 16.280780792236328 L14.094347953796387 16.280780792236328 C14.358314514160156 16.37201690673828 14.62228012084961 16.4632511138916 14.886246681213379 16.554487228393555 L14.886246681213379 16.554487228393555 C14.881331443786621 16.594341278076172 14.87641716003418 16.63419532775879 14.871501922607422 16.674049377441406 L14.871501922607422 16.674049377441406 C13.620209693908691 16.674049377441406 12.368918418884277 16.674049377441406 11.117626190185547 16.674049377441406 L11.117626190185547 16.674049377441406 C11.110209465026855 16.63723373413086 11.102791786193848 16.600418090820312 11.095375061035156 16.563602447509766 L11.095375061035156 16.563602447509766 C11.464070320129395 16.479515075683594 11.832764625549316 16.395429611206055 12.201459884643555 16.311342239379883 L12.201459884643555 16.311342239379883 C12.481740951538086 15.05166244506836 12.761969566345215 13.791970252990723 13.042147636413574 12.532266616821289 L13.042147636413574 12.532266616821289 C12.006746292114258 12.532266616821289 10.971345901489258 12.532266616821289 9.935944557189941 12.532266616821289 L9.935944557189941 12.532266616821289 C9.657793045043945 13.784368515014648 9.379618644714355 15.036463737487793 9.101422309875488 16.288555145263672 L9.101422309875488 16.288555145263672 C9.410157203674316 16.368263244628906 9.718892097473145 16.44797134399414 10.027626991271973 16.527679443359375 L10.027626991271973 16.527679443359375 C10.023337364196777 16.57048225402832 10.019048690795898 16.613285064697266 10.014759063720703 16.65608787536621 L10.014759063720703 16.65608787536621 C8.654807090759277 16.65608787536621 7.294854164123535 16.65608787536621 5.934901714324951 16.65608787536621 L5.934901714324951 16.65608787536621 C7.180209159851074 16.11862564086914 7.783423900604248 14.68366813659668 8.142678260803223 13.076234817504883 C8.501933097839355 11.468801498413086 8.617227554321289 9.688892364501953 8.886693000793457 8.46152400970459 L8.886693000793457 8.46152400970459 C8.57197093963623 8.29906940460205 8.257248878479004 8.136614799499512 7.9425272941589355 7.974160671234131 L7.9425272941589355 7.974160671234131 C9.215533256530762 7.974160671234131 10.488539695739746 7.974160671234131 11.76154613494873 7.974160671234131 L11.76154613494873 7.974160671234131 C10.272688865661621 8.897039413452148 10.401656150817871 10.421353340148926 10.02923583984375 12.049996376037598 L10.02923583984375 12.049996376037598 C10.032880783081055 12.049996376037598 13.119589805603027 12.049996376037598 13.119890213012695 12.049996376037598 L13.119890213012695 12.049996376037598 C13.381073951721191 10.835070610046387 13.6422700881958 9.620147705078125 13.903478622436523 8.405227661132812 L13.903478622436523 8.405227661132812 C13.578927040100098 8.290669441223145 13.254375457763672 8.176112174987793 12.929823875427246 8.061553955078125 L12.929823875427246 8.061553955078125 C12.940011024475098 8.021163940429688 12.950197219848633 7.980773448944092 12.960384368896484 7.940382957458496 L12.960384368896484 7.940382957458496"></path></svg>