<svg xmlns="http://www.w3.org/2000/svg" viewBox="0.0 0.0 24.0 24.0" height="200px" width="200px"><path fill="none" stroke="black" stroke-width=".3" stroke-opacity="1.0"  filling="0" d="M11.335062026977539 2.972564697265625 C13.00236988067627 2.972564697265625 15.027975082397461 2.972564697265625 16.940088272094727 2.972564697265625 C16.521224975585938 3.77059268951416 15.901837348937988 4.548262596130371 15.689605712890625 5.424159049987793 C14.794368743896484 9.12470817565918 14.017208099365234 12.853248596191406 13.203911781311035 16.573646545410156 C12.558058738708496 19.527063369750977 10.703458786010742 21.342472076416016 7.827911853790283 22.040239334106445 C6.976444721221924 22.246871948242188 5.892388820648193 22.229568481445312 5.1381306648254395 21.86007308959961 C4.571163654327393 21.58218765258789 3.9965639114379883 20.519508361816406 4.091737270355225 19.910297393798828 C4.191490650177002 19.272079467773438 4.989518642425537 18.503570556640625 5.656237602233887 18.25062370300293 C6.575395107269287 17.90250587463379 7.351028919219971 18.383459091186523 7.187148571014404 19.559123992919922 C7.110807418823242 20.108787536621094 6.858879089355469 20.634021759033203 6.613058090209961 21.39794921875 C8.371467590332031 21.31244659423828 8.818323135375977 20.242639541625977 9.062616348266602 19.180978775024414 C10.125296592712402 14.563308715820312 11.159984588623047 9.936986923217773 12.063872337341309 5.2862348556518555 C12.20026969909668 4.584906578063965 11.593606948852539 3.73903751373291 11.335062026977539 2.972564697265625"></path></svg>