<svg xmlns="http://www.w3.org/2000/svg" viewBox="0.0 0.0 24.0 24.0" height="200px" width="200px"><path fill="none" stroke="black" stroke-width=".3" stroke-opacity="1.0"  filling="0" d="M6.346024513244629 3.1670522689819336 C9.443257331848145 3.1670522689819336 12.118760108947754 3.1670522689819336 14.793669700622559 3.1670522689819336 C13.202702522277832 3.594113349914551 12.444535255432129 4.493253231048584 12.147783279418945 6.280869960784912 C11.455955505371094 10.452568054199219 10.376751899719238 14.55970287322998 9.485312461853027 18.699417114257812 C9.283924102783203 19.633502960205078 9.20692253112793 20.594242095947266 9.062990188598633 21.611251831054688 C13.63864803314209 22.576732635498047 16.31711196899414 20.279720306396484 18.82735824584961 16.930160522460938 C18.621231079101562 17.765329360961914 18.441165924072266 18.607606887817383 18.20186996459961 19.43270492553711 C17.92940330505371 20.370346069335938 17.603628158569336 21.2919921875 17.25297737121582 22.367050170898438 C12.423803329467773 22.367050170898438 7.6183247566223145 22.367050170898438 2.8128461837768555 22.367050170898438 C4.771642208099365 22.22311782836914 4.964738368988037 20.723960876464844 5.2875518798828125 19.084423065185547 C6.256584644317627 14.160480499267578 7.3819899559021 9.267338752746582 8.48073959350586 4.203609466552734 C7.850513458251953 3.897380828857422 7.304987907409668 3.632615089416504 6.346024513244629 3.1670522689819336"></path></svg>