<svg xmlns="http://www.w3.org/2000/svg" viewBox="0.0 0.0 24.0 24.0" height="200px" width="200px"><path fill="none" stroke="black" stroke-width=".3" stroke-opacity="1.0"  filling="0" d="M12.994304656982422 9.945281028747559 C12.994304656982422 11.472919464111328 12.994304656982422 13.00770378112793 12.994304656982422 14.91323184967041 C14.613958358764648 13.208708763122559 15.839642524719238 11.585481643676758 17.404800415039062 10.4187593460083 C18.142711639404297 9.868452072143555 19.61496353149414 9.933667182922363 20.594974517822266 10.236515045166016 C21.07560157775879 10.38481330871582 21.650028228759766 12.129534721374512 21.382022857666016 12.425236701965332 C20.71647071838379 13.159574508666992 19.440759658813477 14.050250053405762 18.676048278808594 13.85192584991455 C16.326522827148438 13.241764068603516 15.163373947143555 14.67470645904541 14.407594680786133 16.193410873413086 C12.701285362243652 19.621217727661133 11.232608795166016 23.178558349609375 9.865774154663086 26.75823402404785 C9.115354537963867 28.720935821533203 8.20055866241455 29.815298080444336 5.479397296905518 28.6592960357666 C6.914125919342041 23.261638641357422 8.303295135498047 18.033723831176758 9.691569328308105 12.805806159973145 C9.410161972045898 12.653936386108398 9.127861976623535 12.502065658569336 8.846454620361328 12.350194931030273 C7.677052021026611 13.125627517700195 6.50675630569458 13.900166511535645 5.336460113525391 14.67470645904541 C6.374539375305176 11.06108283996582 8.336348533630371 9.788944244384766 12.994304656982422 9.945281028747559"></path></svg>