<svg xmlns="http://www.w3.org/2000/svg" viewBox="0.0 0.0 24.0 24.0" height="200px" width="200px"><path fill="none" stroke="black" stroke-width=".3" stroke-opacity="1.0"  filling="0" d="M4.6248321533203125 3.05539608001709 C7.237354755401611 3.05539608001709 9.849309921264648 3.05539608001709 12.461832046508789 3.05539608001709 C12.48616886138916 3.1419897079467773 12.510505676269531 3.2285823822021484 12.534842491149902 3.3151769638061523 C11.868128776550293 3.499683380126953 11.200848579406738 3.684189796447754 10.469614028930664 3.886807441711426 C10.382454872131348 4.102442741394043 10.242094039916992 4.346375942230225 10.184365272521973 4.608420372009277 C9.321259498596191 8.546446800231934 8.441174507141113 12.481077194213867 7.6227803230285645 16.42872428894043 C6.844004154205322 20.18337631225586 8.455323219299316 21.76809310913086 12.226954460144043 21.00403594970703 C12.863106727600098 20.87499237060547 13.476053237915039 20.63445472717285 14.099752426147461 20.44542121887207 L14.239547729492188 20.600496292114258 C11.504776000976562 22.802688598632812 8.493809700012207 22.534984588623047 5.512274742126465 21.373613357543945 C3.574955940246582 20.61917495727539 3.071807861328125 19.151042938232422 3.586275100708008 16.66813087463379 C4.348072528839111 12.99554443359375 5.165335178375244 9.334278106689453 5.949770450592041 5.6667866706848145 C6.064662456512451 5.129680633544922 6.128050804138184 4.581253528594971 6.227662086486816 3.960383415222168 C5.618677139282227 3.7226762771606445 5.089494228363037 3.51666259765625 4.560311794281006 3.31008243560791 C4.581818103790283 3.225187301635742 4.603325366973877 3.140291213989258 4.6248321533203125 3.05539608001709"></path>
<path fill="none" stroke="black" stroke-width=".3" stroke-opacity="1.0"  filling="0" d="M16.95394515991211 3.0576581954956055 C18.7718448638916 3.0576581954956055 20.243370056152344 3.0576581954956055 21.714893341064453 3.0576581954956055 C19.92529296875 3.6728687286376953 19.371206283569336 5.009692192077637 19.076335906982422 6.786841869354248 C18.525646209716797 10.106827735900879 17.742908477783203 13.392289161682129 16.956207275390625 16.668128967285156 C16.567386627197266 18.286808013916016 16.139511108398438 19.98019027709961 14.239547729492188 20.601062774658203 C14.239547729492188 20.600496292114258 14.099187850952148 20.445985794067383 14.099187850952148 20.445985794067383 C14.87852954864502 18.681285858154297 15.896145820617676 16.979978561401367 16.386842727661133 15.138309478759766 C17.324655532836914 11.619100570678711 17.962505340576172 8.020092010498047 18.742412567138672 4.372408866882324 C18.18946075439453 3.9660415649414062 17.705554962158203 3.61004638671875 16.95394515991211 3.0576581954956055"></path></svg>