<svg xmlns="http://www.w3.org/2000/svg" viewBox="0.0 0.0 24.0 24.0" height="200px" width="200px"><path fill="none" stroke="black" stroke-width=".3" stroke-opacity="1.0"  filling="0" d="M11.543715476989746 7.012031555175781 L11.543715476989746 7.012031555175781 C11.597417831420898 7.012031555175781 13.538337707519531 7.012031555175781 13.54586410522461 7.012031555175781 L13.54586410522461 7.012031555175781 C13.887582778930664 8.937724113464355 14.229305267333984 10.863419532775879 14.571136474609375 12.789091110229492 L14.571136474609375 12.789091110229492 C14.637874603271484 12.802239418029785 14.704612731933594 12.815388679504395 14.771350860595703 12.828536987304688 L14.771350860595703 12.828536987304688 C15.067549705505371 10.89081859588623 15.363629341125488 8.953081130981445 15.659721374511719 7.015346050262451 L15.659721374511719 7.015346050262451 C16.28920555114746 7.015346050262451 16.91868782043457 7.015346050262451 17.548171997070312 7.015346050262451 L17.548171997070312 7.015346050262451 C17.223421096801758 8.810151100158691 16.898672103881836 10.604955673217773 16.573928833007812 12.399762153625488 C16.249187469482422 14.194568634033203 15.924449920654297 15.989376068115234 15.599723815917969 17.7841854095459 L15.599723815917969 17.7841854095459 C14.938197135925293 17.7841854095459 14.276670455932617 17.7841854095459 13.615143775939941 17.7841854095459 L13.615143775939941 17.7841854095459 C13.220440864562988 15.690441131591797 12.82569408416748 13.596707344055176 12.43109130859375 11.50294303894043 L12.43109130859375 11.50294303894043 C12.37584400177002 11.503384590148926 12.320597648620605 11.503827095031738 12.265350341796875 11.504268646240234 L12.265350341796875 11.504268646240234 C11.885443687438965 13.606853485107422 11.505538940429688 15.709431648254395 11.125717163085938 17.812030792236328 L11.125717163085938 17.812030792236328 C10.47148323059082 17.812030792236328 9.817249298095703 17.812030792236328 9.163015365600586 17.812030792236328 L9.163015365600586 17.812030792236328 C8.827139854431152 16.02109718322754 8.491250991821289 14.230165481567383 8.155389785766602 12.439229011535645 C7.819530010223389 10.648292541503906 7.483698844909668 8.857349395751953 7.147939205169678 7.066394805908203 L7.147939205169678 7.066394805908203 C7.942500591278076 7.066394805908203 8.737061500549316 7.066394805908203 9.531622886657715 7.066394805908203 L9.531622886657715 7.066394805908203 C9.773573875427246 9.069984436035156 10.015571594238281 11.073562622070312 10.257567405700684 13.0771484375 L10.257567405700684 13.0771484375 C10.329277992248535 13.092728614807129 10.40098762512207 13.108307838439941 10.472698211669922 13.12388801574707 L10.472698211669922 13.12388801574707 C10.829716682434082 11.0866060256958 11.186726570129395 9.04931926727295 11.543715476989746 7.012031555175781 L11.543715476989746 7.012031555175781"></path></svg>