<svg xmlns="http://www.w3.org/2000/svg" viewBox="0.0 0.0 24.0 24.0" height="200px" width="200px"><path fill="none" stroke="black" stroke-width=".3" stroke-opacity="1.0"  filling="0" d="M15.846595764160156 9.179662704467773 C16.708354949951172 9.28654670715332 17.82145881652832 9.790074348449707 18.220605850219727 10.464784622192383 C18.571321487426758 11.05849552154541 18.086164474487305 12.147382736206055 17.96925926208496 13.017492294311523 C17.266159057617188 12.800381660461426 16.470369338989258 12.721054077148438 15.888348579406738 12.326081275939941 C15.369791030883789 11.974531173706055 15.088383674621582 11.273099899291992 14.599886894226074 10.582524299621582 C12.022128105163574 12.243412971496582 12.990771293640137 14.098028182983398 13.861715316772461 15.980201721191406 C14.665019989013672 17.717912673950195 15.756413459777832 19.424728393554688 16.086252212524414 21.258468627929688 C16.893733978271484 25.757648468017578 12.637550354003906 29.414270401000977 8.29786491394043 28.043975830078125 C7.388509273529053 27.756725311279297 6.601069927215576 26.795597076416016 6.0081939697265625 25.965572357177734 C5.829495429992676 25.71506118774414 6.495020389556885 24.861652374267578 6.7747578620910645 24.2838077545166 C7.640690326690674 24.724708557128906 8.532509803771973 25.12218475341797 9.362536430358887 25.623207092285156 C9.807611465454102 25.893760681152344 10.147470474243164 26.33883285522461 10.7846040725708 26.939224243164062 C13.410794258117676 25.15892791748047 12.79954719543457 23.210784912109375 11.949480056762695 21.28017807006836 C11.282285690307617 19.76458740234375 10.327003479003906 18.359222412109375 9.796754837036133 16.803546905517578 C8.441490173339844 12.822927474975586 11.744895935058594 8.668620109558105 15.846595764160156 9.179662704467773"></path></svg>