<svg xmlns="http://www.w3.org/2000/svg" viewBox="0.0 0.0 24.0 24.0" height="200px" width="200px"><path fill="none" stroke="black" stroke-width=".3" stroke-opacity="1.0"  filling="0" d="M11.659943580627441 2.97145938873291 C11.659943580627441 5.97676420211792 11.659943580627441 8.827016830444336 11.659943580627441 11.677268028259277 C11.857870101928711 11.738935470581055 12.055795669555664 11.800603866577148 12.253721237182617 11.862273216247559 C13.08947467803955 10.512030601501465 13.925814628601074 9.161787033081055 14.786821365356445 7.7716064453125 C15.791722297668457 7.7716064453125 16.75198745727539 7.7716064453125 17.714014053344727 7.7716064453125 C17.732807159423828 8.016517639160156 17.829126358032227 8.2743501663208 17.74748992919922 8.35892391204834 C14.701661109924316 11.494024276733398 14.935413360595703 14.844671249389648 16.94580078125 18.40851402282715 C17.554262161254883 19.48682975769043 17.854381561279297 20.73899269104004 18.394126892089844 22.172046661376953 C17.017454147338867 22.172046661376953 15.916821479797363 22.172046661376953 14.673469543457031 22.172046661376953 C14.0262451171875 20.3431396484375 13.357877731323242 18.454326629638672 12.689510345458984 16.56610107421875 C12.485712051391602 16.580196380615234 12.281911849975586 16.59429168701172 12.077526092529297 16.608386993408203 C11.919537544250488 18.392070770263672 11.76154899597168 20.17575454711914 11.58535385131836 22.163238525390625 C10.579278945922852 22.163238525390625 9.552647590637207 22.163238525390625 8.312232971191406 22.163238525390625 C8.312232971191406 15.953527450561523 8.312232971191406 9.667469024658203 8.312232971191406 3.1200523376464844 C9.291292190551758 3.076589584350586 10.31146240234375 3.0313663482666016 11.659943580627441 2.97145938873291"></path></svg>