<svg xmlns="http://www.w3.org/2000/svg" viewBox="0.0 0.0 24.0 24.0" height="200px" width="200px"><path fill="none" stroke="black" stroke-width=".3" stroke-opacity="1.0"  filling="0" d="M10.975682258605957 9.225239753723145 C11.558454513549805 10.108330726623535 12.056150436401367 10.862105369567871 12.552995681762695 11.615880012512207 L12.722296714782715 11.80815315246582 C11.134775161743164 16.24402618408203 9.547252655029297 20.679901123046875 7.934208393096924 25.18893814086914 C9.402624130249023 25.849979400634766 10.16490650177002 26.19283676147461 11.706487655639648 26.886211395263672 C7.587948322296143 26.886211395263672 4.363560199737549 26.886211395263672 0.005955696105957031 26.886211395263672 C4.8204193115234375 25.41949462890625 4.14746618270874 21.829280853271484 4.5311598777771 19.10769271850586 C4.934420585632324 16.24913215637207 7.507125377655029 13.228926658630371 4.524353504180908 9.878625869750977 C6.764410018920898 9.651471138000488 8.903225898742676 9.434526443481445 10.975682258605957 9.225239753723145"></path>
<path fill="none" stroke="black" stroke-width=".3" stroke-opacity="1.0"  filling="0" d="M14.264728546142578 9.973910331726074 C15.656575202941895 9.704218864440918 17.273021697998047 9.501737594604492 18.506628036499023 9.996881484985352 C19.07748794555664 10.226587295532227 19.410137176513672 12.311803817749023 19.068130493164062 13.279120445251465 C18.429208755493164 15.086990356445312 16.851045608520508 15.65870189666748 14.394043922424316 14.614816665649414 C13.493937492370605 14.352782249450684 15.613184928894043 11.199007034301758 12.722295761108398 11.807302474975586 L12.552995681762695 11.615880966186523 C13.118751525878906 11.043317794799805 13.613044738769531 10.099822998046875 14.264728546142578 9.973910331726074"></path></svg>