<svg xmlns="http://www.w3.org/2000/svg" viewBox="0.0 0.0 24.0 24.0" height="200px" width="200px"><path fill="none" stroke="black" stroke-width=".3" stroke-opacity="1.0"  filling="0" d="M17.364110946655273 10.105813980102539 L17.364110946655273 10.105813980102539 C16.954843521118164 11.876532554626465 16.6850643157959 13.626917839050293 16.34823226928711 15.401976585388184 C16.270174026489258 15.813333511352539 15.519185066223145 18.104026794433594 15.682427406311035 18.56472396850586 C15.912946701049805 19.215290069580078 16.59109115600586 19.603872299194336 17.04542350769043 20.12344741821289 L17.04542350769043 20.12344741821289 C14.87702751159668 20.16643714904785 13.724720001220703 20.275827407836914 11.849268913269043 19.157331466674805 L11.880372047424316 19.19369888305664 C12.325586318969727 17.908721923828125 12.770811080932617 16.623748779296875 13.21606159210205 15.338786125183105 C13.661311149597168 14.05382251739502 14.106586456298828 12.768867492675781 14.551900863647461 11.483925819396973 L14.551900863647461 11.483925819396973 C13.962215423583984 11.173531532287598 13.372529983520508 10.863137245178223 12.782844543457031 10.552742958068848 L12.782844543457031 10.552742958068848 C14.309930801391602 10.403752326965332 15.837024688720703 10.254796981811523 17.364110946655273 10.105813980102539 L17.364110946655273 10.105813980102539"></path>
<path fill="none" stroke="black" stroke-width=".3" stroke-opacity="1.0"  filling="0" d="M10.95253849029541 10.121125221252441 L10.95253849029541 10.121125221252441 C10.64846420288086 11.690851211547852 10.360861778259277 13.26014232635498 10.089591979980469 14.832245826721191 C9.818323135375977 16.40435028076172 9.563386917114258 17.979265213012695 9.3246431350708 19.560237884521484 L9.3246431350708 19.560237884521484 C10.176542282104492 19.43814468383789 11.028449058532715 19.316104888916016 11.880372047424316 19.194177627563477 L11.849268913269043 19.157333374023438 C11.494290351867676 19.441791534423828 10.503002166748047 20.309293746948242 10.01274299621582 20.419645309448242 C7.288774013519287 21.032777786254883 6.615241527557373 19.476715087890625 6.695089817047119 17.422216415405273 C6.774938106536865 15.367716789245605 7.60816764831543 12.814779281616211 7.8977227210998535 11.434161186218262 L7.8977227210998535 11.434161186218262 C7.45334529876709 11.13541030883789 7.008967876434326 10.83665943145752 6.5645904541015625 10.537908554077148 L6.5645904541015625 10.537908554077148 C8.02722454071045 10.398833274841309 9.489876747131348 10.25991439819336 10.95253849029541 10.121125221252441 L10.95253849029541 10.121125221252441"></path></svg>