<svg xmlns="http://www.w3.org/2000/svg" viewBox="0.0 0.0 24.0 24.0" height="200px" width="200px"><path fill="none" stroke="black" stroke-width=".3" stroke-opacity="1.0"  filling="0" d="M21.536197662353516 8.632556915283203 C20.82162094116211 12.119522094726562 19.803348541259766 15.072256088256836 19.73019027709961 18.047958374023438 C19.663837432861328 20.735279083251953 16.273849487304688 23.759469985961914 20.969642639160156 26.441682815551758 C17.275108337402344 26.27495002746582 14.17265510559082 27.373184204101562 11.732034683227539 24.724145889282227 L11.787328720092773 24.788799285888672 C13.372157096862793 20.214656829833984 14.956987380981445 15.640515327453613 16.536712646484375 11.082535743713379 C15.276845932006836 10.419000625610352 14.667753219604492 10.099141120910645 13.3917236328125 9.427099227905273 C16.355514526367188 9.13786506652832 18.54603385925293 8.92434310913086 21.536197662353516 8.632556915283203"></path>
<path fill="none" stroke="black" stroke-width=".3" stroke-opacity="1.0"  filling="0" d="M10.137845993041992 8.659778594970703 C9.55767822265625 11.696730613708496 9.008134841918945 14.378946304321289 8.541107177734375 17.07562255859375 C8.094496726989746 19.656604766845703 7.733806133270264 22.252052307128906 7.243810176849365 25.440425872802734 C9.214851379394531 25.157997131347656 10.501089096069336 24.973398208618164 11.787328720092773 24.789649963378906 L11.732034683227539 24.72414779663086 C10.6499605178833 25.49231719970703 9.671670913696289 26.59821319580078 8.467098236083984 26.968257904052734 C4.204306602478027 28.2783145904541 1.8291902542114258 26.175418853759766 2.5463180541992188 21.751850128173828 C3.131589889526367 18.144084930419922 3.9771738052368164 14.578007698059082 4.707062244415283 10.994063377380371 C4.000992298126221 10.518528938293457 3.385946273803711 10.105094909667969 2.3370485305786133 9.400726318359375 C5.082214832305908 9.139566421508789 7.294851779937744 8.92944622039795 10.137845993041992 8.659778594970703"></path></svg>