<svg xmlns="http://www.w3.org/2000/svg" viewBox="0.0 0.0 24.0 24.0" height="200px" width="200px"><path fill="none" stroke="black" stroke-width=".3" stroke-opacity="1.0"  filling="0" d="M13.318745613098145 9.254842758178711 L13.318745613098145 9.254842758178711 C13.6566801071167 11.068482398986816 13.994514465332031 12.8821439743042 14.33226490020752 14.695817947387695 L14.33226490020752 14.695817947387695 C14.630763053894043 12.921618461608887 14.92914867401123 11.147401809692383 15.227457046508789 9.373169898986816 L15.227457046508789 9.373169898986816 C15.933938026428223 9.373169898986816 16.640419006347656 9.373169898986816 17.346899032592773 9.373169898986816 L17.346899032592773 9.373169898986816 C16.981525421142578 11.078269958496094 16.616100311279297 12.78335952758789 16.250654220581055 14.488443374633789 C15.885209083557129 16.193527221679688 15.519742965698242 17.898609161376953 15.15428638458252 19.60369110107422 L15.15428638458252 19.60369110107422 C14.481802940368652 19.643543243408203 13.809329986572266 19.68355369567871 13.136863708496094 19.72369384765625 L13.136863708496094 19.72369384765625 C12.775276184082031 17.850252151489258 12.413797378540039 15.976797103881836 12.052265167236328 14.103343963623047 L12.052265167236328 14.103343963623047 C11.965157508850098 14.10431957244873 11.87804889678955 14.10529613494873 11.79094123840332 14.106271743774414 L11.79094123840332 14.106271743774414 C11.488628387451172 15.9434814453125 11.186326026916504 17.78069496154785 10.884041786193848 19.617908477783203 L10.884041786193848 19.617908477783203 C10.832818031311035 19.620281219482422 8.782554626464844 19.71521759033203 8.762090682983398 19.71616554260254 L8.762090682983398 19.71616554260254 C8.393051147460938 17.991981506347656 8.024011611938477 16.26779556274414 7.654957294464111 14.54361343383789 C7.285902500152588 12.81943130493164 6.916833400726318 11.095251083374023 6.547735691070557 9.371079444885254 L6.547735691070557 9.371079444885254 C7.398188591003418 9.371079444885254 8.248641967773438 9.371079444885254 9.09909439086914 9.371079444885254 L9.09909439086914 9.371079444885254 C9.454071044921875 11.070868492126465 9.809054374694824 12.770666122436523 10.164041519165039 14.470451354980469 L10.164041519165039 14.470451354980469 C10.414852142333984 12.775688171386719 10.665594100952148 11.08091926574707 10.916236877441406 9.386131286621094 L10.916236877441406 9.386131286621094 C11.205544471740723 9.370344161987305 13.109654426574707 9.26628303527832 13.318745613098145 9.254842758178711 L13.318745613098145 9.254842758178711"></path></svg>