<svg xmlns="http://www.w3.org/2000/svg" viewBox="0.0 0.0 24.0 24.0" height="200px" width="200px"><path fill="none" stroke="black" stroke-width=".3" stroke-opacity="1.0"  filling="0" d="M17.032943725585938 3.2781200408935547 C16.09044075012207 7.942944049835205 15.24272346496582 12.138007164001465 14.253721237182617 17.0323486328125 C15.730966567993164 16.47852897644043 16.75990867614746 16.092824935913086 17.96531105041504 15.6415433883667 C17.760833740234375 16.712217330932617 17.502107620239258 18.069042205810547 17.119979858398438 20.072084426879883 C16.584047317504883 17.900333404541016 15.820385932922363 17.016847610473633 14.025398254394531 18.113155364990234 C13.792306900024414 19.159387588500977 13.537752151489258 20.30100440979004 13.256969451904297 21.56005859375 C13.786344528198242 21.809844970703125 14.275182723999023 22.040552139282227 15.203378677368164 22.478717803955078 C12.389580726623535 22.478717803955078 10.011563301086426 22.478717803955078 7.330704212188721 22.478717803955078 C7.803446292877197 22.241451263427734 8.055615425109863 22.08645248413086 8.328052520751953 21.985706329345703 C8.598701477050781 21.885555267333984 8.889023780822754 21.83965301513672 9.334939956665039 21.7293643951416 C9.622281074523926 20.55734634399414 9.9203519821167 19.343597412109375 10.320960998535156 17.70956802368164 C8.003154754638672 17.70956802368164 5.99653434753418 17.70956802368164 3.4945192337036133 17.70956802368164 C4.676672458648682 15.147937774658203 6.249896049499512 13.620617866516113 7.894655704498291 12.147546768188477 C7.052304744720459 13.596177101135254 6.210549831390381 15.045401573181152 5.341372489929199 16.539934158325195 C7.116092205047607 16.539934158325195 8.752507209777832 16.539934158325195 10.527227401733398 16.539934158325195 C11.064949035644531 13.904382705688477 11.575247764587402 11.405348777770996 12.157679557800293 8.551012992858887 C11.280157089233398 8.974868774414062 10.928431510925293 9.145365715026855 10.57611083984375 9.315267562866211 C11.984798431396484 6.816828727722168 13.227161407470703 4.141932010650635 17.032943725585938 3.2781200408935547"></path></svg>