<svg xmlns="http://www.w3.org/2000/svg" viewBox="0.0 0.0 24.0 24.0" height="200px" width="200px"><path fill="none" stroke="black" stroke-width=".3" stroke-opacity="1.0"  filling="0" d="M18.647472381591797 2.8760242462158203 C18.331623077392578 6.006429672241211 17.581899642944336 6.758400917053223 14.505449295043945 6.793245792388916 C13.017242431640625 6.810105800628662 11.528473854064941 6.796055316925049 9.857050895690918 6.796055316925049 C9.431608200073242 8.07688045501709 9.035951614379883 9.266658782958984 8.573416709899902 10.658199310302734 C9.884027481079102 10.515447616577148 10.964776992797852 10.280527114868164 12.04046630859375 10.301321029663086 C16.183053970336914 10.38056468963623 18.259124755859375 13.763313293457031 16.512392044067383 17.497880935668945 C15.128719329833984 20.455745697021484 11.360431671142578 22.491912841796875 8.172140121459961 22.003528594970703 C6.026941776275635 21.675315856933594 4.616854190826416 20.197784423828125 5.128846645355225 18.465103149414062 C5.372759819030762 17.639507293701172 6.2843427658081055 16.941490173339844 7.038000583648682 16.378917694091797 C7.264491081237793 16.20975112915039 8.40087890625 16.7054443359375 8.395820617675781 16.874610900878906 C8.369967460632324 17.736175537109375 8.171015739440918 18.612350463867188 7.8961920738220215 19.438507080078125 C7.773672580718994 19.80774688720703 7.332493305206299 20.070205688476562 6.867710590362549 20.556907653808594 C7.636541843414307 20.87444305419922 8.195743560791016 21.26897621154785 8.783045768737793 21.316186904907227 C10.400514602661133 21.44713592529297 12.177034378051758 19.897106170654297 12.904838562011719 17.670978546142578 C13.555648803710938 15.682581901550293 14.13339614868164 13.408121109008789 12.222557067871094 11.975553512573242 C11.26713752746582 11.259551048278809 9.501858711242676 11.623735427856445 7.653402805328369 11.459628105163574 C8.276111602783203 9.281832695007324 8.873529434204102 6.8876633644104 9.69350528717041 4.572176456451416 C9.868290901184082 4.07816743850708 10.825395584106445 3.653848648071289 11.467775344848633 3.576852798461914 C12.758153915405273 3.4211769104003906 14.087311744689941 3.611135482788086 15.386682510375977 3.499296188354492 C16.498903274536133 3.403754234313965 17.59201431274414 3.086216926574707 18.647472381591797 2.8760242462158203"></path></svg>