<svg xmlns="http://www.w3.org/2000/svg" viewBox="0.0 0.0 24.0 24.0" height="200px" width="200px"><path fill="none" stroke="black" stroke-width=".3" stroke-opacity="1.0"  filling="0" d="M9.674935340881348 7.05497407913208 L9.674935340881348 7.05497407913208 C11.332448959350586 7.05497407913208 12.989959716796875 7.05497407913208 14.647473335266113 7.05497407913208 L14.647473335266113 7.05497407913208 C14.584943771362305 7.653883457183838 14.522414207458496 8.252793312072754 14.459884643554688 8.851702690124512 L14.459884643554688 8.851702690124512 C13.420695304870605 8.90833854675293 12.381505966186523 8.96496868133545 11.342315673828125 9.021594047546387 L11.342315673828125 9.021594047546387 C11.31335735321045 9.632301330566406 11.284398078918457 10.243009567260742 11.255439758300781 10.853716850280762 L11.255439758300781 10.853716850280762 C11.939751625061035 10.809460639953613 12.641521453857422 10.561110496520996 13.308375358581543 10.720947265625 C14.776451110839844 11.07282829284668 14.952974319458008 12.385744094848633 15.12271785736084 13.622493743896484 C15.324934005737305 15.095832824707031 14.407336235046387 16.70134162902832 13.21080207824707 17.499698638916016 C12.01426887512207 18.29805564880371 10.538797378540039 18.289260864257812 9.625265121459961 16.53399085998535 C9.355303764343262 16.015283584594727 9.305726051330566 15.40898609161377 9.145956039428711 14.84648323059082 L9.145956039428711 14.84648323059082 C9.634285926818848 14.731614112854004 10.1226167678833 14.616744041442871 10.610946655273438 14.501874923706055 L10.610946655273438 14.501874923706055 C11.154696464538574 14.93295669555664 11.510956764221191 16.009563446044922 12.188553810119629 15.860039710998535 C13.12639331817627 15.65308952331543 13.277408599853516 12.912535667419434 12.318788528442383 12.5087890625 C11.47808837890625 12.154707908630371 10.54153823852539 12.930596351623535 9.674935340881348 13.215462684631348 L9.674935340881348 13.215462684631348 C9.674935340881348 11.161964416503906 9.674935340881348 9.108470916748047 9.674935340881348 7.05497407913208 L9.674935340881348 7.05497407913208"></path></svg>