<svg xmlns="http://www.w3.org/2000/svg" viewBox="0.0 0.0 24.0 24.0" height="200px" width="200px"><path fill="none" stroke="black" stroke-width=".3" stroke-opacity="1.0"  filling="0" d="M12.854483604431152 6.634890079498291 L12.854483604431152 6.634890079498291 C13.319689750671387 6.878653526306152 13.917086601257324 6.960054397583008 14.250102043151855 7.366179943084717 C14.659958839416504 7.8660173416137695 14.710124015808105 8.574344635009766 14.94013500213623 9.178426742553711 L14.94013500213623 9.178426742553711 C14.541838645935059 9.341964721679688 14.143543243408203 9.50550365447998 13.745246887207031 9.669041633605957 L13.745246887207031 9.669041633605957 C13.168566703796387 9.33310604095459 12.934345245361328 8.496159553527832 12.302735328674316 8.280563354492188 C11.140776634216309 7.883935928344727 11.326507568359375 10.802730560302734 11.324594497680664 11.067708969116211 L11.324594497680664 11.067708969116211 C11.93204116821289 10.94961929321289 12.532112121582031 10.643219947814941 13.146933555603027 10.713438987731934 C14.926891326904297 10.916729927062988 15.395872116088867 13.138944625854492 14.90590763092041 14.991022109985352 C14.415942192077637 16.84309959411621 12.967031478881836 18.325040817260742 10.911208152770996 17.04778480529785 C9.923452377319336 16.434104919433594 9.609182357788086 14.946601867675781 9.424100875854492 13.967571258544922 C9.231608390808105 12.949337005615234 9.132547378540039 11.484334945678711 9.350543022155762 10.12228012084961 C9.568538665771484 8.760226249694824 10.10359001159668 7.501117706298828 11.179325103759766 6.894670009613037 C11.671554565429688 6.6171746253967285 12.296097755432129 6.72148323059082 12.854483604431152 6.634890079498291 L12.854483604431152 6.634890079498291"></path>
<path fill="none" stroke="black" stroke-width=".3" stroke-opacity="1.0"  filling="0" d="M12.16780948638916 11.837748527526855 L12.16780948638916 11.837748527526855 C12.333456993103027 12.169108390808105 13.786863327026367 14.954254150390625 12.677566528320312 15.491266250610352 C11.265551567077637 16.174823760986328 11.303926467895508 14.20360279083252 11.396072387695312 13.738493919372559 C11.528964042663574 13.067717552185059 11.910563468933105 12.471330642700195 12.16780948638916 11.837748527526855 L12.16780948638916 11.837748527526855"></path></svg>