<svg xmlns="http://www.w3.org/2000/svg" viewBox="0.0 0.0 24.0 24.0" height="200px" width="200px"><path fill="none" stroke="black" stroke-width=".3" stroke-opacity="1.0"  filling="0" d="M10.206277847290039 6.938339710235596 L10.206277847290039 6.938339710235596 C11.622961044311523 6.924453258514404 13.846942901611328 6.56378698348999 15.090703964233398 7.482941627502441 C17.005666732788086 8.898122787475586 15.71579647064209 11.13778305053711 14.261109352111816 12.123151779174805 L14.261109352111816 12.123151779174805 C14.642778396606445 12.619129180908203 15.20533275604248 13.01833438873291 15.406115531921387 13.611083030700684 C16.167417526245117 15.858589172363281 15.032186508178711 16.88544464111328 13.397736549377441 17.3465576171875 C11.763286590576172 17.807668685913086 9.629619598388672 17.70303726196289 8.394050598144531 17.687570571899414 L8.394050598144531 17.687570571899414 C8.695958137512207 15.896011352539062 8.997949600219727 14.104464530944824 9.299996376037598 12.31292724609375 C9.602043151855469 10.521389961242676 9.904146194458008 8.729862213134766 10.206277847290039 6.938339710235596 L10.206277847290039 6.938339710235596"></path>
<path fill="none" stroke="black" stroke-width=".3" stroke-opacity="1.0"  filling="0" d="M12.11217975616455 8.717159271240234 L12.11217975616455 8.717159271240234 C12.943790435791016 8.779877662658691 14.909116744995117 9.649346351623535 13.313725471496582 10.809630393981934 C12.859269142150879 11.140144348144531 12.230362892150879 11.108638763427734 11.688681602478027 11.258143424987793 L11.688681602478027 11.258143424987793 C11.829874038696289 10.411152839660645 11.971041679382324 9.56415843963623 12.11217975616455 8.717159271240234 L12.11217975616455 8.717159271240234"></path>
<path fill="none" stroke="black" stroke-width=".3" stroke-opacity="1.0"  filling="0" d="M11.337569236755371 13.035325050354004 L11.337569236755371 13.035325050354004 C12.164534568786621 13.131622314453125 14.759371757507324 14.066390037536621 12.796186447143555 15.406401634216309 C12.26512336730957 15.768889427185059 11.5497407913208 15.722742080688477 10.926517486572266 15.880912780761719 L10.926517486572266 15.880912780761719 C10.982534408569336 15.492999076843262 11.281952857971191 13.42021656036377 11.337569236755371 13.035325050354004 L11.337569236755371 13.035325050354004"></path></svg>