<svg xmlns="http://www.w3.org/2000/svg" viewBox="0.0 0.0 24.0 24.0" height="200px" width="200px"><path fill="none" stroke="black" stroke-width=".3" stroke-opacity="1.0"  filling="0" d="M14.161811828613281 7.061698913574219 L14.161811828613281 7.061698913574219 C15.71088981628418 8.23228645324707 15.775671005249023 8.906822204589844 15.791733741760254 10.822561264038086 L15.791733741760254 10.822561264038086 C15.245047569274902 10.849286079406738 14.69836139678955 10.876011848449707 14.1516752243042 10.90273666381836 L14.1516752243042 10.90273666381836 C13.910018920898438 10.141226768493652 13.668366432189941 9.379715919494629 13.426718711853027 8.618203163146973 L13.426718711853027 8.618203163146973 C12.577646255493164 9.761735916137695 12.067625999450684 10.868409156799316 11.856585502624512 12.033072471618652 C11.64554500579834 13.197735786437988 11.733484268188477 14.420389175415039 12.080328941345215 15.795881271362305 L12.080328941345215 15.795881271362305 C12.745490074157715 15.365270614624023 13.273042678833008 14.68582820892334 13.58983325958252 13.959529876708984 L13.58983325958252 13.959529876708984 C14.118395805358887 14.048920631408691 14.64695930480957 14.138312339782715 15.175521850585938 14.227703094482422 L15.175521850585938 14.227703094482422 C14.747742652893066 16.251022338867188 12.69997501373291 19.360130310058594 10.285118103027344 16.975345611572266 C9.376096725463867 16.07764434814453 9.31408405303955 14.773537635803223 9.315422058105469 13.617183685302734 C9.317314147949219 11.98300838470459 9.598712921142578 10.284120559692383 10.344738960266113 9.023784637451172 C11.090764045715332 7.763448715209961 12.301416397094727 6.9416656494140625 14.161811828613281 7.061698913574219 L14.161811828613281 7.061698913574219"></path></svg>