<svg xmlns="http://www.w3.org/2000/svg" viewBox="0.0 0.0 24.0 24.0" height="200px" width="200px"><path fill="none" stroke="black" stroke-width=".3" stroke-opacity="1.0"  filling="0" d="M12.063956260681152 7.195434093475342 L12.063956260681152 7.195434093475342 C12.428934097290039 7.679477691650391 13.154214859008789 8.041358947753906 13.158889770507812 8.647564888000488 C13.17273235321045 10.442617416381836 10.899374008178711 9.705395698547363 10.891315460205078 8.660355567932129 C10.886491775512695 8.034889221191406 11.673075675964355 7.683741092681885 12.063956260681152 7.195434093475342 L12.063956260681152 7.195434093475342"></path>
<path fill="none" stroke="black" stroke-width=".3" stroke-opacity="1.0"  filling="0" d="M13.315583229064941 10.967264175415039 L13.315583229064941 10.967264175415039 C13.31882095336914 13.237176895141602 12.634925842285156 16.254796981811523 14.219926834106445 17.995433807373047 L14.219926834106445 17.995433807373047 C12.900186538696289 17.995433807373047 11.580446243286133 17.995433807373047 10.260705947875977 17.995433807373047 L10.260705947875977 17.995433807373047 C11.692235946655273 15.962026596069336 11.513078689575195 14.048262596130371 9.946680068969727 12.165487289428711 L9.946680068969727 12.165487289428711 C11.06965446472168 11.766098022460938 12.192622184753418 11.366690635681152 13.315583229064941 10.967264175415039 L13.315583229064941 10.967264175415039"></path></svg>