<svg xmlns="http://www.w3.org/2000/svg" viewBox="0.0 0.0 24.0 24.0" height="200px" width="200px"><path fill="none" stroke="black" stroke-width=".3" stroke-opacity="1.0"  filling="0" d="M8.998156547546387 3.1428632736206055 C12.296496391296387 3.1428632736206055 15.498069763183594 3.1428632736206055 18.96221160888672 3.1428632736206055 C18.890817642211914 4.125874996185303 18.824142456054688 5.034541130065918 18.736225128173828 6.2447190284729 C16.629772186279297 6.338536262512207 14.713902473449707 6.4240922927856445 12.522481918334961 6.522039413452148 C12.245752334594727 7.816593647003174 11.969022750854492 9.108198165893555 11.609095573425293 10.789819717407227 C13.370964050292969 10.900748252868652 14.868494033813477 10.995155334472656 16.63744354248047 11.106673240661621 C16.461610794067383 12.216543197631836 16.317638397216797 13.12462043762207 16.166589736938477 14.077539443969727 C14.375218391418457 14.16368579864502 12.827534675598145 14.23744010925293 11.047965049743652 14.322997093200684 C10.81076717376709 15.795743942260742 10.583600997924805 17.206539154052734 10.308051109313965 18.91943359375 C12.402113914489746 18.91943359375 14.328015327453613 18.91943359375 16.620922088623047 18.91943359375 C16.407917022705078 20.24289894104004 16.247425079345703 21.243614196777344 16.070411682128906 22.34227180480957 C12.70539665222168 22.342864990234375 9.496152877807617 22.342864990234375 5.757639408111572 22.342864990234375 C6.861610412597656 15.80164623260498 7.91837739944458 9.538339614868164 8.998156547546387 3.1428632736206055"></path></svg>