<svg xmlns="http://www.w3.org/2000/svg" viewBox="0.0 0.0 24.0 24.0" height="200px" width="200px"><path fill="none" stroke="black" stroke-width=".3" stroke-opacity="1.0"  filling="0" d="M2.821314811706543 6.467441082000732 C5.765920162200928 6.467441082000732 8.305879592895508 6.467441082000732 11.040689468383789 6.467441082000732 C11.489594459533691 7.314094066619873 11.972410202026367 8.22569751739502 12.522476196289062 9.263177871704102 C13.038630485534668 8.380887985229492 13.545012474060059 7.515267372131348 14.141061782836914 6.4973297119140625 C16.572961807250977 6.4973297119140625 19.092227935791016 6.4973297119140625 22.021316528320312 6.4973297119140625 C20.22742462158203 9.25168228149414 18.585845947265625 11.772673606872559 16.90288734436035 14.356891632080078 C18.5783748626709 17.00950813293457 20.187763214111328 19.557514190673828 21.948894500732422 22.345779418945312 C19.113494873046875 22.345779418945312 16.660903930664062 22.345779418945312 14.014609336853027 22.345779418945312 C13.490983963012695 21.246795654296875 13.044378280639648 20.308753967285156 12.544893264770508 19.260927200317383 C11.989080429077148 20.384624481201172 11.502815246582031 21.36807632446289 11.009653091430664 22.36474609375 C8.415663719177246 22.36474609375 5.94755220413208 22.36474609375 3.0477800369262695 22.36474609375 C4.734764099121094 19.596023559570312 6.288397312164307 17.045143127441406 7.92997407913208 14.351142883300781 C6.261956691741943 11.777846336364746 4.62670373916626 9.254556655883789 2.821314811706543 6.467441082000732"></path></svg>