<svg xmlns="http://www.w3.org/2000/svg" viewBox="0.0 0.0 24.0 24.0" height="200px" width="200px"><path fill="none" stroke="black" stroke-width=".3" stroke-opacity="1.0"  filling="0" d="M10.683955192565918 9.002326965332031 L10.683955192565918 9.002326965332031 C11.654840469360352 10.901784896850586 11.628193855285645 12.601820945739746 11.760210037231445 14.709216117858887 L11.760210037231445 14.709216117858887 C12.25020694732666 13.811322212219238 12.96496868133545 12.700000762939453 13.139066696166992 11.650003433227539 C13.142253875732422 11.630780220031738 12.850726127624512 9.021531105041504 13.702421188354492 9.005571365356445 C14.829147338867188 8.984457969665527 14.313070297241211 10.728120803833008 14.208842277526855 11.051604270935059 C13.783977508544922 12.370222091674805 13.186396598815918 13.693094253540039 12.460561752319336 14.941158294677734 C11.73472785949707 16.18922233581543 10.88063907623291 17.36248016357422 9.942758560180664 18.38187026977539 C9.4049654006958 18.966402053833008 8.053800582885742 20.286502838134766 7.103028774261475 19.676679611206055 C6.283847332000732 19.15125846862793 6.994507789611816 18.48881721496582 7.500024795532227 18.449708938598633 C8.897196769714355 18.341617584228516 9.450057029724121 18.806053161621094 10.263843536376953 17.000385284423828 C11.109358787536621 15.124317169189453 10.236539840698242 12.20627498626709 10.048938751220703 10.242276191711426 L10.048938751220703 10.242276191711426 C9.930764198303223 10.20884895324707 9.812589645385742 10.175421714782715 9.694415092468262 10.14199447631836 L9.694415092468262 10.14199447631836 C9.418543815612793 10.437726020812988 9.142671585083008 10.733457565307617 8.866800308227539 11.029189109802246 L8.866800308227539 11.029189109802246 C8.803288459777832 10.993795394897461 8.739777565002441 10.958402633666992 8.676265716552734 10.923008918762207 L8.676265716552734 10.923008918762207 C9.095292091369629 10.097068786621094 9.880370140075684 9.462773323059082 10.683955192565918 9.002326965332031 L10.683955192565918 9.002326965332031"></path></svg>