<svg xmlns="http://www.w3.org/2000/svg" viewBox="0.0 0.0 24.0 24.0" height="200px" width="200px"><path fill="none" stroke="black" stroke-width=".3" stroke-opacity="1.0"  filling="0" d="M9.660365104675293 6.670803546905518 C10.1196928024292 7.531256198883057 10.854825973510742 8.35238265991211 10.983816146850586 9.260026931762695 C11.311532974243164 11.563481330871582 11.367637634277344 13.90573787689209 11.573705673217773 16.81638526916504 C13.24322509765625 13.908358573913574 14.641134262084961 11.527300834655762 13.993565559387207 8.575754165649414 C13.765474319458008 7.537024021148682 13.877161026000977 6.72481107711792 15.026527404785156 6.676571369171143 C16.201587677001953 6.626758098602295 16.366756439208984 7.59942102432251 16.288105010986328 8.532757759094238 C16.237768173217773 9.133659362792969 16.129230499267578 9.74871826171875 15.926831245422363 10.313962936401367 C14.204876899719238 15.124319076538086 11.718950271606445 19.510478973388672 8.342681884765625 23.345550537109375 C7.501106262207031 24.30143165588379 6.365371227264404 25.05282211303711 5.243269920349121 25.681514739990234 C4.7357025146484375 25.96623420715332 3.841691017150879 25.90855598449707 3.2942733764648438 25.647432327270508 C2.9518747329711914 25.484359741210938 2.7426605224609375 24.619712829589844 2.829178810119629 24.13311767578125 C2.8826608657836914 23.83214569091797 3.749405860900879 23.34607696533203 4.000044345855713 23.466150283813477 C5.2312092781066895 24.057090759277344 6.2730865478515625 24.194992065429688 7.2793073654174805 23.050867080688477 C8.506803512573242 21.65505599975586 9.684484481811523 20.292278289794922 9.454821586608887 18.223731994628906 C9.109277725219727 15.111735343933105 8.83556842803955 11.991872787475586 8.531447410583496 8.875157356262207 C8.321184158325195 8.81590461730957 8.110920906066895 8.756129264831543 7.901182651519775 8.696878433227539 C7.41091775894165 9.222798347473145 6.920654296875 9.748193740844727 6.429865837097168 10.274113655090332 C6.317131519317627 10.211191177368164 6.203872203826904 10.148269653320312 6.091137886047363 10.085348129272461 C6.405745983123779 9.427818298339844 6.566720008850098 8.59567928314209 7.070617198944092 8.154704093933105 C7.8047027587890625 7.512379169464111 8.78523063659668 7.1516289710998535 9.660365104675293 6.670803546905518"></path></svg>