<svg xmlns="http://www.w3.org/2000/svg" viewBox="0.0 0.0 24.0 24.0" height="200px" width="200px"><path fill="none" stroke="black" stroke-width=".3" stroke-opacity="1.0"  filling="0" d="M4.733404636383057 3.0984058380126953 C6.674726963043213 3.0984058380126953 8.870389938354492 3.0984058380126953 11.06663703918457 3.0984058380126953 C11.089545249938965 3.1730051040649414 11.113041877746582 3.247015953063965 11.135950088500977 3.3216142654418945 C10.578516960144043 3.48138427734375 10.021084785461426 3.641153335571289 9.201676368713379 3.876110076904297 C10.401712417602539 5.920225143432617 11.572380065917969 7.914412498474121 12.833505630493164 10.061908721923828 C13.365679740905762 9.683629989624023 13.79741096496582 9.377599716186523 14.310201644897461 9.013418197631836 C14.310201644897461 9.324734687805176 14.319601058959961 9.578487396240234 14.308439254760742 9.830476760864258 C14.273783683776855 10.639900207519531 13.919000625610352 11.614378929138184 14.245001792907715 12.229963302612305 C15.796298027038574 15.158686637878418 17.49796485900879 18.01046371459961 19.230175018310547 20.838157653808594 C19.583782196044922 21.41556167602539 20.300399780273438 21.76975440979004 20.935955047607422 22.298992156982422 C18.62398910522461 22.298992156982422 16.397785186767578 22.298992156982422 14.171578407287598 22.298992156982422 C14.114603042602539 22.193851470947266 14.058212280273438 22.088708877563477 14.001235961914062 21.983566284179688 C14.519312858581543 21.844940185546875 15.03797721862793 21.706905364990234 15.815683364868164 21.499553680419922 C14.461161613464355 19.161746978759766 13.169492721557617 16.932601928710938 11.548297882080078 14.134866714477539 C10.93330192565918 15.089961051940918 10.52917766571045 15.716707229614258 10.125640869140625 16.344036102294922 C10.017560958862305 16.280012130737305 9.9094820022583 16.215986251831055 9.801989555358887 16.151962280273438 C10.1826171875 15.3225679397583 10.56324577331543 14.493173599243164 11.084848403930664 13.357749938964844 C9.035445213317871 10.026077270507812 7.276213645935059 6.297329425811768 4.733404636383057 3.0984058380126953"></path></svg>