<svg xmlns="http://www.w3.org/2000/svg" viewBox="0.0 0.0 24.0 24.0" height="200px" width="200px"><path fill="none" stroke="black" stroke-width=".3" stroke-opacity="1.0"  filling="0" d="M7.414365768432617 7.017207622528076 L7.414365768432617 7.017207622528076 C7.511798858642578 7.017207622528076 10.881786346435547 7.017207622528076 10.929642677307129 7.017207622528076 L10.929642677307129 7.017207622528076 C10.937596321105957 7.057415008544922 10.945549011230469 7.097622394561768 10.953502655029297 7.137829780578613 L10.953502655029297 7.137829780578613 C10.599146842956543 7.234923839569092 10.244791984558105 7.33201789855957 9.890436172485352 7.429111957550049 L9.890436172485352 7.429111957550049 C10.77462100982666 8.937912940979004 11.658864974975586 10.446677207946777 12.543131828308105 11.955430030822754 L12.543131828308105 11.955430030822754 C12.751368522644043 11.595870971679688 14.206045150756836 9.084298133850098 14.446908950805664 8.668473243713379 L14.446908950805664 8.668473243713379 C14.522353172302246 8.704814910888672 14.597797393798828 8.741155624389648 14.67324161529541 8.777497291564941 L14.67324161529541 8.777497291564941 C13.874598503112793 10.310340881347656 13.363511085510254 11.60268783569336 13.066549301147461 12.94350528717041 C12.769586563110352 14.284322738647461 12.686750411987305 15.673609733581543 12.744610786437988 17.400333404541016 L12.744610786437988 17.400333404541016 C13.17540454864502 17.489253997802734 13.60619831085205 17.57817268371582 14.036992073059082 17.66709327697754 L14.036992073059082 17.66709327697754 C14.028486251831055 17.717241287231445 14.019981384277344 17.767391204833984 14.011475563049316 17.81753921508789 L14.011475563049316 17.81753921508789 C12.58753776550293 17.81753921508789 11.163596153259277 17.81753921508789 9.73965835571289 17.81753921508789 L9.73965835571289 17.81753921508789 C9.720327377319336 17.758663177490234 9.700997352600098 17.69978904724121 9.681666374206543 17.640913009643555 L9.681666374206543 17.640913009643555 C10.044858932495117 17.576404571533203 10.408051490783691 17.51189613342285 10.771244049072266 17.4473876953125 L10.771244049072266 17.4473876953125 C11.111543655395508 15.304344177246094 10.875812530517578 13.55144214630127 10.25326156616211 11.90697956085205 C9.630711555480957 10.262516975402832 8.621341705322266 8.726493835449219 7.414365768432617 7.017207622528076 L7.414365768432617 7.017207622528076"></path></svg>