<svg xmlns="http://www.w3.org/2000/svg" viewBox="0.0 0.0 24.0 24.0" height="200px" width="200px"><path fill="none" stroke="black" stroke-width=".3" stroke-opacity="1.0"  filling="0" d="M13.25487232208252 7.09576416015625 L13.25487232208252 7.09576416015625 C12.152247428894043 8.633381843566895 12.292621612548828 9.38228988647461 12.220623016357422 11.224791526794434 L12.220623016357422 11.224791526794434 C12.73381519317627 11.331595420837402 13.247008323669434 11.438400268554688 13.760200500488281 11.545204162597656 L13.760200500488281 11.545204162597656 C13.296637535095215 11.634261131286621 12.833073616027832 11.723318099975586 12.369510650634766 11.81237506866455 L12.369510650634766 11.81237506866455 C12.369510650634766 13.639955520629883 12.369510650634766 15.467528343200684 12.369510650634766 17.295108795166016 L12.369510650634766 17.295108795166016 C12.696300506591797 17.3966007232666 13.023090362548828 17.498090744018555 13.34988021850586 17.59958267211914 L13.34988021850586 17.59958267211914 C13.342122077941895 17.63858413696289 13.334364891052246 17.67758560180664 13.326606750488281 17.71658706665039 L13.326606750488281 17.71658706665039 C12.325833320617676 17.71658706665039 11.32505989074707 17.71658706665039 10.324286460876465 17.71658706665039 L10.324286460876465 17.71658706665039 C11.05553150177002 15.663614273071289 11.164905548095703 13.604514122009277 10.420570373535156 11.52862548828125 L10.420570373535156 11.52862548828125 C10.998868942260742 10.124961853027344 10.82551383972168 7.533844947814941 12.640308380126953 6.988002777099609 C13.031050682067871 6.870477676391602 14.806381225585938 7.06621789932251 14.454270362854004 8.13638973236084 C14.343509674072266 8.47302532196045 13.867855072021484 8.534488677978516 13.574647903442383 8.733537673950195 L13.574647903442383 8.733537673950195 C13.468055725097656 8.187613487243652 13.361464500427246 7.641688823699951 13.25487232208252 7.09576416015625 L13.25487232208252 7.09576416015625"></path></svg>