<svg xmlns="http://www.w3.org/2000/svg" viewBox="0.0 0.0 24.0 24.0" height="200px" width="200px"><path fill="none" stroke="black" stroke-width=".3" stroke-opacity="1.0"  filling="0" d="M12.30982494354248 7.028170585632324 L12.30982494354248 7.028170585632324 C12.733895301818848 7.334671497344971 13.157965660095215 7.641172409057617 13.582036018371582 7.947673320770264 L13.582036018371582 7.947673320770264 C13.175362586975098 8.20586109161377 12.84228515625 8.7594633102417 12.362016677856445 8.722236633300781 C10.136761665344238 8.549752235412598 12.154760360717773 7.172889232635498 12.30982494354248 7.028170585632324 L12.30982494354248 7.028170585632324"></path>
<path fill="none" stroke="black" stroke-width=".3" stroke-opacity="1.0"  filling="0" d="M10.48544692993164 11.315526008605957 L10.48544692993164 11.315526008605957 C10.684767723083496 11.315526008605957 12.642674446105957 11.315526008605957 12.936789512634277 11.315526008605957 L12.936789512634277 11.315526008605957 C13.26685905456543 13.598989486694336 12.896645545959473 15.63612174987793 13.721989631652832 17.826841354370117 L13.721989631652832 17.826841354370117 C12.862324714660645 17.826841354370117 12.00265884399414 17.826841354370117 11.142993927001953 17.826841354370117 L11.142993927001953 17.826841354370117 C11.91478443145752 15.814363479614258 11.586739540100098 13.96044921875 11.828798294067383 11.851404190063477 L11.828798294067383 11.851404190063477 C11.381014823913574 11.672778129577637 10.93323040008545 11.494152069091797 10.48544692993164 11.315526008605957 L10.48544692993164 11.315526008605957"></path></svg>