<svg xmlns="http://www.w3.org/2000/svg" viewBox="0.0 0.0 24.0 24.0" height="200px" width="200px"><path fill="none" stroke="black" stroke-width=".3" stroke-opacity="1.0"  filling="0" d="M14.09025764465332 3.131805419921875 C15.435243606567383 3.131805419921875 16.54355239868164 3.131805419921875 17.90630340576172 3.131805419921875 C17.43524169921875 6.024641513824463 16.896560668945312 8.719198226928711 16.596847534179688 11.439541816711426 C16.452434539794922 12.74899673461914 15.363037109375 14.26189136505127 17.42263412475586 15.394268989562988 C18.308595657348633 15.881375312805176 17.2467041015625 17.659597396850586 15.428365707397461 18.62578773498535 C15.188824653625488 19.830944061279297 14.950429916381836 21.036102294921875 14.694269180297852 22.331802368164062 C13.553295135498047 22.331802368164062 12.537248611450195 22.331802368164062 11.396275520324707 22.331802368164062 C11.533238410949707 21.022920608520508 11.65701961517334 19.84412384033203 11.800859451293945 18.4670467376709 C9.855300903320312 18.363895416259766 8.089685440063477 18.270484924316406 6.000287055969238 18.15988540649414 C7.1985673904418945 12.064756393432617 11.673639297485352 8.101432800292969 14.09025764465332 3.131805419921875"></path>
<path fill="none" stroke="black" stroke-width=".3" stroke-opacity="1.0"  filling="0" d="M13.095415115356445 9.084240913391113 C13.242692947387695 9.14842414855957 13.389398574829102 9.212034225463867 13.536676406860352 9.276217460632324 C13.193982124328613 11.104870796203613 12.851289749145508 12.933524131774902 12.48853874206543 14.869340896606445 C11.463896751403809 14.869340896606445 10.572778701782227 14.869340896606445 9.309168815612793 14.869340896606445 C10.684527397155762 12.768481254577637 11.890256881713867 10.926647186279297 13.095415115356445 9.084240913391113"></path></svg>