<svg xmlns="http://www.w3.org/2000/svg" viewBox="0.0 0.0 24.0 24.0" height="200px" width="200px"><path fill="none" stroke="black" stroke-width=".3" stroke-opacity="1.0"  filling="0" d="M10.291138648986816 6.995858192443848 L10.291138648986816 6.995858192443848 C12.128414154052734 6.995858192443848 13.96568489074707 6.995858192443848 15.802961349487305 6.995858192443848 L15.802961349487305 6.995858192443848 C15.763928413391113 9.202425003051758 14.369114875793457 10.586333274841309 13.497498512268066 12.56385326385498 C12.74521541595459 14.270630836486816 12.385602951049805 15.966188430786133 12.090253829956055 17.79585838317871 L12.090253829956055 17.79585838317871 C11.291126251220703 17.79585838317871 10.491999626159668 17.79585838317871 9.692872047424316 17.79585838317871 L9.692872047424316 17.79585838317871 C10.058027267456055 16.07670021057129 10.577142715454102 14.564172744750977 11.271674156188965 13.133782386779785 C11.966205596923828 11.70339298248291 12.836153030395508 10.355140686035156 13.902974128723145 8.964531898498535 L13.902974128723145 8.964531898498535 C12.541525840759277 8.964531898498535 11.180079460144043 8.964531898498535 9.818631172180176 8.964531898498535 L9.818631172180176 8.964531898498535 C9.976130485534668 8.308306694030762 10.133631706237793 7.6520819664001465 10.291138648986816 6.995858192443848 L10.291138648986816 6.995858192443848"></path></svg>