<svg xmlns="http://www.w3.org/2000/svg" viewBox="0.0 0.0 24.0 24.0" height="200px" width="200px"><path fill="none" stroke="black" stroke-width=".3" stroke-opacity="1.0"  filling="0" d="M12.990612983703613 6.943465232849121 L12.990612983703613 6.943465232849121 C13.577529907226562 7.137939929962158 14.293975830078125 7.1108503341674805 14.751363754272461 7.526889324188232 C15.641098976135254 8.336191177368164 15.540397644042969 9.560403823852539 15.238771438598633 10.54084587097168 C14.864921569824219 11.756050109863281 13.966489791870117 12.839158058166504 12.920438766479492 13.80419635772705 C11.874387741088867 14.769234657287598 10.680719375610352 15.616203308105469 9.716398239135742 16.359127044677734 L9.716398239135742 16.359127044677734 C11.93079662322998 16.464582443237305 12.736117362976074 16.529953002929688 14.418170928955078 15.045183181762695 L14.418170928955078 15.045183181762695 C14.491840362548828 15.134350776672363 14.565510749816895 15.223518371582031 14.639180183410645 15.3126859664917 L14.639180183410645 15.3126859664917 C14.293829917907715 16.122058868408203 13.948506355285645 16.93144416809082 13.603218078613281 17.7408447265625 L13.603218078613281 17.7408447265625 C11.544937133789062 17.7408447265625 9.486658096313477 17.7408447265625 7.428376197814941 17.7408447265625 L7.428376197814941 17.7408447265625 C7.389413356781006 17.636070251464844 7.350450038909912 17.531295776367188 7.311487197875977 17.42652130126953 L7.311487197875977 17.42652130126953 C8.278353691101074 16.57518768310547 9.376972198486328 15.73574447631836 10.39761734008789 14.826116561889648 C11.418262481689453 13.916489601135254 12.36093521118164 12.936678886413574 13.015907287597656 11.804611206054688 C13.646195411682129 10.715208053588867 14.382335662841797 7.803906440734863 11.93574333190918 8.214515686035156 C11.203338623046875 8.337434768676758 10.300310134887695 9.489718437194824 9.905647277832031 9.905320167541504 L9.905647277832031 9.905320167541504 C10.635065078735352 8.030214309692383 11.054231643676758 7.503468036651611 12.990612983703613 6.943465232849121 L12.990612983703613 6.943465232849121"></path></svg>