<svg xmlns="http://www.w3.org/2000/svg" viewBox="0.0 0.0 24.0 24.0" height="200px" width="200px"><path fill="none" stroke="black" stroke-width=".3" stroke-opacity="1.0"  filling="0" d="M10.522470474243164 7.022623062133789 L10.522470474243164 7.022623062133789 C12.454540252685547 7.022623062133789 14.38661003112793 7.022623062133789 16.318679809570312 7.022623062133789 L16.318679809570312 7.022623062133789 C15.146435737609863 8.480073928833008 13.515848159790039 8.0209321975708 11.68963623046875 7.9804582595825195 L11.68963623046875 7.9804582595825195 C11.626709938049316 8.328680038452148 11.098000526428223 11.255146026611328 11.044806480407715 11.549642562866211 L11.044806480407715 11.549642562866211 C12.282959938049316 11.549642562866211 13.521113395690918 11.549642562866211 14.75926685333252 11.549642562866211 L14.75926685333252 11.549642562866211 C14.781388282775879 11.701632499694824 14.803510665893555 11.853623390197754 14.825632095336914 12.005613327026367 L14.825632095336914 12.005613327026367 C13.444503784179688 12.760580062866211 12.388362884521484 12.578557014465332 10.85429573059082 12.871000289916992 L10.85429573059082 12.871000289916992 C10.61739444732666 14.167034149169922 10.3805570602417 15.463079452514648 10.143759727478027 16.759132385253906 L10.143759727478027 16.759132385253906 C11.75324821472168 16.759132385253906 13.362739562988281 16.759132385253906 14.97222900390625 16.759132385253906 L14.97222900390625 16.759132385253906 C15.024836540222168 16.90231704711914 15.077445030212402 17.045503616333008 15.13005256652832 17.188688278198242 L15.13005256652832 17.188688278198242 C13.456258773803711 18.381437301635742 10.718805313110352 17.820960998535156 8.71179485321045 17.815689086914062 L8.71179485321045 17.815689086914062 C9.013545989990234 16.0168399810791 9.315289497375488 14.217988967895508 9.617057800292969 12.419143676757812 C9.918827056884766 10.6202974319458 10.220621109008789 8.821455955505371 10.522470474243164 7.022623062133789 L10.522470474243164 7.022623062133789"></path></svg>