<svg xmlns="http://www.w3.org/2000/svg" viewBox="0.0 0.0 24.0 24.0" height="200px" width="200px"><path fill="none" stroke="black" stroke-width=".3" stroke-opacity="1.0"  filling="0" d="M12.296608924865723 6.881584167480469 L12.296608924865723 6.881584167480469 C13.896717071533203 6.580008029937744 14.950904846191406 6.8989081382751465 16.540218353271484 7.226984977722168 L16.540218353271484 7.226984977722168 C16.379838943481445 8.023816108703613 16.19970703125 8.919034004211426 16.039932250976562 9.713240623474121 L16.039932250976562 9.713240623474121 C15.403162002563477 9.279239654541016 15.543305397033691 8.217202186584473 15.05306625366211 7.622645378112793 C14.728262901306152 7.228726863861084 14.173846244812012 7.055259704589844 13.672321319580078 6.959649085998535 C12.220067977905273 6.682791709899902 11.366549491882324 7.701131820678711 10.830789566040039 9.012811660766602 C10.295028686523438 10.324491500854492 10.077027320861816 11.929510116577148 9.895806312561035 12.826009750366211 C9.73906421661377 13.601409912109375 9.279516220092773 15.407222747802734 9.689658164978027 16.256698608398438 C11.027809143066406 19.02824592590332 13.411737442016602 15.351984977722168 13.8355712890625 14.19754409790039 L13.8355712890625 14.19754409790039 C13.406533241271973 14.103785514831543 12.977494239807129 14.010025978088379 12.548456192016602 13.916267395019531 L12.548456192016602 13.916267395019531 C12.55620002746582 13.867426872253418 12.563944816589355 13.818585395812988 12.571688652038574 13.769744873046875 L12.571688652038574 13.769744873046875 C12.599349021911621 13.769744873046875 16.254520416259766 13.769744873046875 16.318729400634766 13.769744873046875 L16.318729400634766 13.769744873046875 C15.35997486114502 14.940316200256348 14.61563491821289 16.317373275756836 13.176645278930664 16.96603775024414 C11.641424179077148 17.6580810546875 10.253753662109375 17.433876037597656 9.284337043762207 16.63947296142578 C8.314921379089355 15.845069885253906 7.763760566711426 14.480470657348633 7.901559352874756 12.891727447509766 C8.02617073059082 11.45503044128418 8.535660743713379 10.285226821899414 9.308633804321289 9.308231353759766 C10.081607818603516 8.331235885620117 11.118064880371094 7.547048568725586 12.296608924865723 6.881584167480469 L12.296608924865723 6.881584167480469"></path></svg>