<svg xmlns="http://www.w3.org/2000/svg" viewBox="0.0 0.0 24.0 24.0" height="200px" width="200px"><path fill="none" stroke="black" stroke-width=".3" stroke-opacity="1.0"  filling="0" d="M10.460294723510742 2.993803024291992 C12.537300109863281 2.993803024291992 14.614828109741211 2.993803024291992 16.691831588745117 2.993803024291992 C16.712236404418945 3.056584358215332 16.73263931274414 3.119889259338379 16.752521514892578 3.1826696395874023 C16.19167709350586 3.3453779220581055 15.630833625793457 3.508607864379883 14.873799324035645 3.728342056274414 C14.098453521728516 7.361268997192383 13.346651077270508 11.098831176757812 12.486551284790039 14.810758590698242 C12.136024475097656 16.32221031188965 11.722192764282227 17.866100311279297 11.028463363647461 19.23943519592285 C10.065298080444336 21.145362854003906 8.334111213684082 22.217872619628906 6.1718292236328125 22.193283081054688 C5.5293707847595215 22.185958862304688 4.737806797027588 21.612558364868164 4.316650390625 21.065841674804688 C4.071804523468018 20.748275756835938 4.2491607666015625 19.820159912109375 4.565158843994141 19.439289093017578 C4.8617987632751465 19.081958770751953 5.590057849884033 19.083005905151367 6.128929138183594 18.92605209350586 C6.255013465881348 19.3759822845459 6.4606218338012695 19.821727752685547 6.482594966888428 20.27688980102539 C6.501429557800293 20.661949157714844 6.307854652404785 21.05694580078125 6.208451271057129 21.447757720947266 C6.437080383300781 21.59581756591797 6.665707588195801 21.743873596191406 6.894858360290527 21.892452239990234 C7.47662878036499 21.11292266845703 8.37753677368164 20.40977668762207 8.586806297302246 19.540782928466797 C9.843996047973633 14.317402839660645 10.942140579223633 9.055832862854004 12.112482070922852 3.7194480895996094 C11.422937393188477 3.512269973754883 10.91964340209961 3.360548973083496 10.416348457336426 3.2093515396118164 C10.430997848510742 3.1376771926879883 10.445646286010742 3.065479278564453 10.460294723510742 2.993803024291992"></path></svg>