<svg xmlns="http://www.w3.org/2000/svg" viewBox="0.0 0.0 24.0 24.0" height="200px" width="200px"><path fill="none" stroke="black" stroke-width=".3" stroke-opacity="1.0"  filling="0" d="M15.936470031738281 4.083682060241699 C17.298583984375 4.083682060241699 18.66069984436035 4.083682060241699 20.022293090820312 4.083682060241699 C20.03580093383789 4.156931400299072 20.04930877685547 4.230699062347412 20.062814712524414 4.303947925567627 C19.47007179260254 4.444211483001709 18.87732696533203 4.584475517272949 18.30380630493164 4.72006368637085 C17.50741958618164 7.815731525421143 16.722463607788086 10.865684509277344 15.938028335571289 13.915637016296387 L15.994134902954102 13.961352348327637 C16.38115882873535 11.515571594238281 16.764026641845703 9.0692720413208 17.15728187561035 6.624011039733887 C17.250791549682617 6.041657447814941 17.377029418945312 5.464498996734619 17.50897979736328 4.778246879577637 C16.9105224609375 4.597981929779053 16.40349578857422 4.445250511169434 15.896469116210938 4.291999816894531 C15.9099760055542 4.222387790679932 15.923482894897461 4.153295040130615 15.936470031738281 4.083682060241699"></path>
<path fill="none" stroke="black" stroke-width=".3" stroke-opacity="1.0"  filling="0" d="M4.311220645904541 4.098747253417969 C6.475434303283691 4.098747253417969 8.0718412399292 4.098747253417969 9.819421768188477 4.098747253417969 C11.527000427246094 7.861446857452393 13.226785659790039 11.608041763305664 14.957223892211914 15.420613288879395 C15.366584777832031 14.843973159790039 15.680360794067383 14.402922630310059 15.994134902954102 13.961352348327637 L15.93751049041748 13.916155815124512 C15.553085327148438 16.26479148864746 15.168658256530762 18.613426208496094 14.783712387084961 20.962581634521484 C14.559290885925293 21.01297378540039 14.334869384765625 21.06284523010254 14.110447883605957 21.113235473632812 C11.815320014953613 16.021146774291992 9.519673347473145 10.929061889648438 7.16168737411499 5.697751045227051 C6.649466037750244 6.455174446105957 6.285819053649902 6.991812705993652 5.922173500061035 7.528969764709473 L5.978278636932373 7.577802658081055 C6.048410892486572 6.719597339630127 6.118542194366455 5.861392498016357 6.203219890594482 4.829676151275635 C5.789182662963867 4.66967248916626 5.307610988616943 4.483692646026611 4.311220645904541 4.098747253417969"></path>
<path fill="none" stroke="black" stroke-width=".3" stroke-opacity="1.0"  filling="0" d="M5.922173500061035 7.528969764709473 C5.636970520019531 9.854227066040039 5.351768493652344 12.178966522216797 5.06656551361084 14.504223823547363 C4.814091205596924 14.45954704284668 4.562136650085449 14.415390014648438 4.309662342071533 14.370713233947754 C4.8660407066345215 12.10623550415039 5.421900272369385 9.842279434204102 5.978278636932373 7.577801704406738 L5.922173500061035 7.528969764709473"></path>
<path fill="none" stroke="black" stroke-width=".3" stroke-opacity="1.0"  filling="0" d="M3.670163154602051 17.84977149963379 C3.759516716003418 17.86275863647461 3.848870277404785 17.875225067138672 3.9387426376342773 17.888212203979492 C3.8857545852661133 18.698104858398438 3.833285331726074 19.50799560546875 3.7714662551879883 20.455554962158203 C4.3434295654296875 20.595298767089844 4.726296901702881 20.68880844116211 5.109164237976074 20.782318115234375 C5.095137596130371 20.864917755126953 5.081631183624268 20.94751739501953 5.0676045417785645 21.03011703491211 C3.8509483337402344 21.03011703491211 2.6348114013671875 21.03011703491211 0.8622961044311523 21.03011703491211 C1.8342695236206055 20.725692749023438 2.3376598358154297 20.568286895751953 2.912740707397461 20.388023376464844 C3.1574230194091797 19.56825828552246 3.4135332107543945 18.709014892578125 3.670163154602051 17.84977149963379"></path></svg>