<svg xmlns="http://www.w3.org/2000/svg" viewBox="0.0 0.0 24.0 24.0" height="200px" width="200px"><path fill="none" stroke="black" stroke-width=".3" stroke-opacity="1.0"  filling="0" d="M10.408313751220703 6.941805362701416 L10.408313751220703 6.941805362701416 C11.725386619567871 6.933787822723389 14.051644325256348 6.568085670471191 15.246410369873047 7.279943943023682 C17.727426528930664 8.758169174194336 16.107566833496094 11.658880233764648 14.40977668762207 12.806884765625 L14.40977668762207 12.806884765625 C14.818077087402344 14.445287704467773 15.226475715637207 16.083662033081055 15.634937286376953 17.722028732299805 L15.634937286376953 17.722028732299805 C15.19139289855957 17.722028732299805 14.747847557067871 17.722028732299805 14.304303169250488 17.722028732299805 L14.304303169250488 17.722028732299805 C13.890381813049316 16.145925521850586 13.47636604309082 14.569849014282227 13.062333106994629 12.993773460388184 L13.062333106994629 12.993773460388184 C12.276762962341309 12.993773460388184 11.491191864013672 12.993773460388184 10.705621719360352 12.993773460388184 L10.705621719360352 12.993773460388184 C10.312082290649414 15.240488052368164 10.604673385620117 16.45911407470703 8.617212295532227 17.731258392333984 L8.617212295532227 17.731258392333984 C8.915687561035156 15.933008193969727 9.214216232299805 14.13476848602295 9.512749671936035 12.336529731750488 C9.811283111572266 10.538290023803711 10.109821319580078 8.740052223205566 10.408313751220703 6.941805362701416 L10.408313751220703 6.941805362701416"></path>
<path fill="none" stroke="black" stroke-width=".3" stroke-opacity="1.0"  filling="0" d="M11.513825416564941 8.00644588470459 L11.513825416564941 8.00644588470459 C11.936849594116211 8.00820255279541 13.981291770935059 7.856097221374512 14.570752143859863 8.320812225341797 C15.803804397583008 9.29291820526123 15.090185165405273 11.073551177978516 13.878117561340332 11.60446834564209 C13.453804016113281 11.790328979492188 11.233226776123047 11.941450119018555 10.885588645935059 11.971653938293457 L10.885588645935059 11.971653938293457 C11.095137596130371 10.649940490722656 11.304580688476562 9.328207015991211 11.513825416564941 8.00644588470459 L11.513825416564941 8.00644588470459"></path></svg>