<svg xmlns="http://www.w3.org/2000/svg" viewBox="0.0 0.0 24.0 24.0" height="200px" width="200px"><path fill="none" stroke="black" stroke-width=".3" stroke-opacity="1.0"  filling="0" d="M7.11095666885376 7.367762565612793 L7.11095666885376 7.367762565612793 C8.434270858764648 7.367762565612793 9.757584571838379 7.367762565612793 11.08089828491211 7.367762565612793 C12.404211044311523 7.367762565612793 13.727524757385254 7.367762565612793 15.0508394241333 7.367762565612793 L15.0508394241333 7.367762565612793 C14.986677169799805 7.449766159057617 13.337563514709473 9.557628631591797 13.289338111877441 9.619274139404297 L13.289338111877441 9.619274139404297 C13.532964706420898 8.950961112976074 13.776647567749023 8.282668113708496 14.02037239074707 7.6143903732299805 L14.02037239074707 7.6143903732299805 C13.434287071228027 7.645759582519531 12.848200798034668 7.67712926864624 12.262115478515625 7.708498477935791 L12.262115478515625 7.708498477935791 C12.564704895019531 8.406487464904785 12.867287635803223 9.10447883605957 13.169859886169434 9.802474975585938 L13.169859886169434 9.802474975585938 C13.050204277038574 11.707306861877441 13.00467300415039 12.98759651184082 13.959010124206543 14.659509658813477 L13.959010124206543 14.659509658813477 C13.911173820495605 14.750255584716797 12.611214637756348 17.216102600097656 12.565975189208984 17.301908493041992 L12.565975189208984 17.301908493041992 C12.46399974822998 17.291288375854492 12.362025260925293 17.280668258666992 12.260049819946289 17.270048141479492 L12.260049819946289 17.270048141479492 C12.03203296661377 15.930326461791992 11.804121971130371 14.590579986572266 11.576218605041504 13.250840187072754 L11.576218605041504 13.250840187072754 C11.269113540649414 13.600425720214844 10.96200942993164 13.95001220703125 10.65490436553955 14.29959774017334 L10.65490436553955 14.29959774017334 C11.578180313110352 11.914278984069824 11.236690521240234 10.173084259033203 10.80388355255127 7.704663276672363 L10.80388355255127 7.704663276672363 C10.253986358642578 7.704663276672363 9.70408821105957 7.704663276672363 9.154191017150879 7.704663276672363 L9.154191017150879 7.704663276672363 C9.368549346923828 9.434678077697754 9.1469087600708 13.448376655578613 10.483208656311035 14.582511901855469 L10.483208656311035 14.582511901855469 C10.047708511352539 15.494203567504883 9.612175941467285 16.405881881713867 9.17661190032959 17.317543029785156 L9.17661190032959 17.317543029785156 C9.058706283569336 17.304367065429688 8.940800666809082 17.291189193725586 8.822895050048828 17.278013229370117 L8.822895050048828 17.278013229370117 C8.570272445678711 15.653671264648438 8.430404663085938 13.945425987243652 8.209633827209473 12.258606910705566 C7.988863468170166 10.571788787841797 7.687190055847168 8.906396865844727 7.11095666885376 7.367762565612793 L7.11095666885376 7.367762565612793"></path>
<path fill="none" stroke="black" stroke-width=".3" stroke-opacity="1.0"  filling="0" d="M16.27247428894043 7.398148059844971 L16.27247428894043 7.398148059844971 C16.81873321533203 7.398148059844971 17.364992141723633 7.398148059844971 17.911251068115234 7.398148059844971 L17.911251068115234 7.398148059844971 C17.158599853515625 8.722061157226562 16.405929565429688 10.0459623336792 15.653249740600586 11.36985969543457 L15.653249740600586 11.36985969543457 C15.591002464294434 11.3174467086792 15.528754234313965 11.265032768249512 15.466506958007812 11.21261978149414 L15.466506958007812 11.21261978149414 C15.527854919433594 11.091404914855957 17.17472267150879 7.837096214294434 17.216209411621094 7.7551093101501465 L17.216209411621094 7.7551093101501465 C16.899860382080078 7.676636695861816 16.583513259887695 7.5981645584106445 16.26716423034668 7.5196919441223145 L16.26716423034668 7.5196919441223145 C16.26893424987793 7.479177474975586 16.27070426940918 7.438662528991699 16.27247428894043 7.398148059844971 L16.27247428894043 7.398148059844971"></path></svg>