<svg xmlns="http://www.w3.org/2000/svg" viewBox="0.0 0.0 24.0 24.0" height="200px" width="200px"><path fill="none" stroke="black" stroke-width=".3" stroke-opacity="1.0"  filling="0" d="M10.135496139526367 7.268526554107666 L10.135496139526367 7.268526554107666 C10.595733642578125 8.534603118896484 11.05604076385498 9.800655364990234 11.51638126373291 11.066692352294922 L11.51638126373291 11.066692352294922 C12.983731269836426 9.48536205291748 13.53111743927002 8.34375 15.529489517211914 7.435414791107178 L15.529489517211914 7.435414791107178 C14.634554862976074 8.76215934753418 12.509976387023926 10.823554039001465 12.317745208740234 12.450743675231934 C12.134942054748535 13.998125076293945 13.59875774383545 16.391197204589844 14.115486145019531 17.818519592285156 L14.115486145019531 17.818519592285156 C13.677377700805664 17.870037078857422 13.239269256591797 17.921552658081055 12.80116081237793 17.97307014465332 L12.80116081237793 17.97307014465332 C12.28332805633545 16.559309005737305 11.765603065490723 15.14550495147705 11.2478666305542 13.731707572937012 L11.2478666305542 13.731707572937012 C9.92409896850586 15.343135833740234 9.076958656311035 16.80413055419922 7.4068427085876465 18.068849563598633 L7.4068427085876465 18.068849563598633 C7.277185440063477 17.965274810791016 7.147527694702148 17.86170196533203 7.0178704261779785 17.758127212524414 L7.0178704261779785 17.758127212524414 C8.236647605895996 15.964902877807617 9.455347061157227 14.171627044677734 10.674148559570312 12.378418922424316 L10.674148559570312 12.378418922424316 C10.064064025878906 10.712567329406738 9.454007148742676 9.046710968017578 8.84389877319336 7.3808674812316895 L8.84389877319336 7.3808674812316895 C9.274431228637695 7.343420505523682 9.704963684082031 7.305973529815674 10.135496139526367 7.268526554107666 L10.135496139526367 7.268526554107666"></path></svg>