<svg xmlns="http://www.w3.org/2000/svg" viewBox="0.0 0.0 24.0 24.0" height="200px" width="200px"><path fill="none" stroke="black" stroke-width=".3" stroke-opacity="1.0"  filling="0" d="M14.225728988647461 8.419870376586914 L14.225728988647461 8.419870376586914 C15.776508331298828 9.340606689453125 15.775408744812012 9.874802589416504 15.937182426452637 11.67955207824707 L15.937182426452637 11.67955207824707 C15.590614318847656 11.656064987182617 15.190099716186523 11.796266555786133 14.897479057312012 11.609091758728027 C14.10550308227539 11.10250473022461 14.081718444824219 9.516518592834473 13.149370193481445 9.395764350891113 C12.528823852539062 9.315393447875977 11.979628562927246 9.917985916137695 11.541731834411621 10.364957809448242 C10.338628768920898 11.592992782592773 9.861815452575684 14.976675033569336 10.739612579345703 16.477462768554688 C11.598503112792969 17.945926666259766 12.839835166931152 17.975034713745117 13.803266525268555 16.709096908569336 C14.101303100585938 16.317480087280273 14.244399070739746 15.82923412322998 14.464964866638184 15.389303207397461 L14.464964866638184 15.389303207397461 C14.83808708190918 15.54572582244873 15.21120834350586 15.702149391174316 15.584330558776855 15.858572006225586 L15.584330558776855 15.858572006225586 C15.205414772033691 16.967039108276367 14.362287521362305 18.153608322143555 13.3258638381958 18.751155853271484 C12.289440155029297 19.348703384399414 11.059720993041992 19.35723114013672 9.907623291015625 18.109615325927734 C8.824478149414062 16.936668395996094 8.530014038085938 14.956778526306152 8.845600128173828 13.073651313781738 C9.161184310913086 11.190524101257324 10.08681869506836 9.40416145324707 11.443865776062012 8.618269920349121 C12.568286895751953 7.967097282409668 13.037874221801758 8.243427276611328 14.225728988647461 8.419870376586914 L14.225728988647461 8.419870376586914"></path></svg>