<svg xmlns="http://www.w3.org/2000/svg" viewBox="0.0 0.0 24.0 24.0" height="200px" width="200px"><path fill="none" stroke="black" stroke-width=".3" stroke-opacity="1.0"  filling="0" d="M19.760486602783203 4.097923755645752 C19.229745864868164 5.0192341804504395 18.69900131225586 5.941110134124756 18.09364891052246 6.991856575012207 C16.096723556518555 6.991856575012207 14.136536598205566 6.991856575012207 11.967782974243164 6.991856575012207 C11.536519050598145 8.084428787231445 11.139168739318848 9.090522766113281 10.660990715026855 10.30179214477539 C12.793004989624023 11.171102523803711 15.44276237487793 11.117406845092773 16.363506317138672 13.532596588134766 C16.807771682739258 14.697517395019531 16.97055435180664 16.125829696655273 16.765380859375 17.351795196533203 C16.20241928100586 20.7120361328125 12.642656326293945 23.262880325317383 8.833065032958984 23.29679298400879 C6.657529354095459 23.316577911376953 6.1256561279296875 22.97405433654785 5.575130462646484 20.74142837524414 C6.5603108406066895 21.108257293701172 7.1611409187316895 21.282344818115234 7.718449115753174 21.549129486083984 C9.473462104797363 22.388484954833984 11.024428367614746 21.96343994140625 12.413176536560059 20.777603149414062 C13.911578178405762 19.497941970825195 14.516365051269531 17.77175521850586 13.88105583190918 15.955134391784668 C13.555488586425781 15.024215698242188 12.587264060974121 14.184297561645508 11.706649780273438 13.621336936950684 C10.96790599822998 13.14937686920166 9.935247421264648 13.139203071594238 8.599063873291016 12.821548461914062 C9.49946117401123 10.157094955444336 10.38007640838623 7.550295352935791 11.257299423217773 4.952538013458252 C13.99297046661377 4.072489261627197 16.921947479248047 5.548846244812012 19.760486602783203 4.097923755645752"></path></svg>