<svg xmlns="http://www.w3.org/2000/svg" viewBox="0.0 0.0 24.0 24.0" height="200px" width="200px"><path fill="none" stroke="black" stroke-width=".3" stroke-opacity="1.0"  filling="0" d="M8.21112060546875 7.344561576843262 L8.21112060546875 7.344561576843262 C9.533172607421875 7.344561576843262 10.855224609375 7.344561576843262 12.177276611328125 7.344561576843262 C13.49932861328125 7.344561576843262 14.821380615234375 7.344561576843262 16.1434326171875 7.344561576843262 L16.1434326171875 7.344561576843262 C16.1434326171875 8.362771987915039 16.1434326171875 9.380983352661133 16.1434326171875 10.399194717407227 L16.1434326171875 10.399194717407227 C14.712005615234375 10.399194717407227 13.280580520629883 10.399194717407227 11.849154472351074 10.399194717407227 L11.849154472351074 10.399194717407227 C11.849154472351074 10.838518142700195 11.849154472351074 11.277840614318848 11.849154472351074 11.717164039611816 L11.849154472351074 11.717164039611816 C13.060563087463379 11.705037117004395 14.92305850982666 11.463653564453125 15.934488296508789 12.301370620727539 C17.141292572021484 13.30090618133545 17.091136932373047 15.866270065307617 16.11684799194336 16.976375579833984 C15.248140335083008 17.966182708740234 13.788079261779785 18.247371673583984 12.2670259475708 18.239961624145508 C10.745972633361816 18.23255157470703 9.16392707824707 17.93654441833496 8.051249504089355 17.771957397460938 L8.051249504089355 17.771957397460938 C8.051249504089355 16.966800689697266 8.051249504089355 16.161643981933594 8.051249504089355 15.356486320495605 L8.051249504089355 15.356486320495605 C8.905522346496582 15.45441722869873 12.458484649658203 16.314828872680664 12.37356948852539 14.48299789428711 C12.313691139221191 13.191277503967285 8.808334350585938 13.725830078125 8.21112060546875 13.731990814208984 L8.21112060546875 13.731990814208984 C8.21112060546875 11.602848052978516 8.21112060546875 9.47370433807373 8.21112060546875 7.344561576843262 L8.21112060546875 7.344561576843262"></path></svg>