<svg xmlns="http://www.w3.org/2000/svg" viewBox="0.0 0.0 24.0 24.0" height="200px" width="200px"><path fill="none" stroke="black" stroke-width=".3" stroke-opacity="1.0"  filling="0" d="M17.326793670654297 3.3309402465820312 C16.559185028076172 4.00043249130249 16.17018699645996 4.626638889312744 15.6899995803833 4.706862449645996 C13.953936576843262 4.996013641357422 13.195563316345215 5.962160587310791 13.198450088500977 7.881179332733154 C13.93258285522461 8.05778694152832 14.70134449005127 8.243051528930664 15.464335441589355 8.427162170410156 C15.586690902709961 10.572999954223633 13.769826889038086 9.43082332611084 12.611490249633789 10.405050277709961 C12.083398818969727 13.507800102233887 11.480855941772461 17.071115493774414 10.869078636169434 20.633277893066406 C10.58742904663086 22.271800994873047 10.57934856414795 22.270648956298828 8.550094604492188 22.385498046875 C9.209197998046875 18.258310317993164 9.827901840209961 14.385066032409668 10.44891357421875 10.495084762573242 C9.781728744506836 10.00566291809082 9.185534477233887 9.567606925964355 8.223428726196289 8.861177444458008 C9.374262809753418 8.405230522155762 10.103200912475586 8.11607837677002 10.83213996887207 7.826927661895752 C12.136495590209961 3.4781131744384766 12.969897270202637 2.823049545288086 17.326793670654297 3.3309402465820312"></path></svg>