<svg xmlns="http://www.w3.org/2000/svg" viewBox="0.0 0.0 24.0 24.0" height="200px" width="200px"><path fill="none" stroke="black" stroke-width=".3" stroke-opacity="1.0"  filling="0" d="M9.34371566772461 7.006904125213623 L9.34371566772461 7.006904125213623 C10.045909881591797 7.006904125213623 10.748104095458984 7.006904125213623 11.450298309326172 7.006904125213623 L11.450298309326172 7.006904125213623 C11.186147689819336 8.2395658493042 10.949470520019531 9.476686477661133 10.708245277404785 10.712930679321289 C10.467020034790039 11.949174880981445 10.221248626708984 13.18454360961914 9.938907623291016 14.413703918457031 C9.591431617736816 15.92642879486084 8.977505683898926 16.54480743408203 9.859701156616211 17.7708740234375 L9.859701156616211 17.7708740234375 C8.943862915039062 17.7708740234375 8.028023719787598 17.7708740234375 7.112185001373291 17.7708740234375 L7.112185001373291 17.7708740234375 C8.39263916015625 15.975308418273926 8.58454418182373 13.704708099365234 9.042961120605469 11.566485404968262 C9.401427268981934 9.894471168518066 9.927696228027344 8.639968872070312 9.34371566772461 7.006904125213623 L9.34371566772461 7.006904125213623"></path>
<path fill="none" stroke="black" stroke-width=".3" stroke-opacity="1.0"  filling="0" d="M12.664071083068848 10.934807777404785 L12.664071083068848 10.934807777404785 C13.2273530960083 11.068735122680664 13.958395957946777 10.91375732421875 14.35391616821289 11.336588859558105 C15.407013893127441 12.462406158447266 14.030065536499023 16.052722930908203 13.766118049621582 17.308767318725586 L13.766118049621582 17.308767318725586 C14.11870288848877 17.47481346130371 14.471287727355957 17.640857696533203 14.823872566223145 17.806903839111328 L14.823872566223145 17.806903839111328 C13.782315254211426 17.806903839111328 12.740758895874023 17.806903839111328 11.699201583862305 17.806903839111328 L11.699201583862305 17.806903839111328 C12.731823921203613 15.794666290283203 12.980120658874512 13.874408721923828 13.303351402282715 11.655403137207031 L13.303351402282715 11.655403137207031 C12.682472229003906 11.550289154052734 12.061592102050781 11.445174217224121 11.440712928771973 11.340060234069824 L11.440712928771973 11.340060234069824 C11.848499298095703 11.204976081848145 12.256284713745117 11.069891929626465 12.664071083068848 10.934807777404785 L12.664071083068848 10.934807777404785"></path></svg>