<svg xmlns="http://www.w3.org/2000/svg" viewBox="0.0 0.0 24.0 24.0" height="200px" width="200px"><path fill="none" stroke="black" stroke-width=".3" stroke-opacity="1.0"  filling="0" d="M12.432183265686035 8.656116485595703 L12.432183265686035 8.656116485595703 C14.568406105041504 8.857975959777832 15.45209789276123 9.086042404174805 15.741930961608887 11.314294815063477 L15.741930961608887 11.314294815063477 C15.499322891235352 11.448575019836426 15.2567138671875 11.582854270935059 15.014105796813965 11.717134475708008 L15.014105796813965 11.717134475708008 C14.699234008789062 11.235776901245117 14.491020202636719 10.664421081542969 14.069490432739258 10.273061752319336 C13.11872673034668 9.39034652709961 11.151055335998535 9.952640533447266 11.36739444732666 11.46810531616211 C11.740907669067383 14.08458137512207 16.214069366455078 13.373804092407227 15.71877384185791 16.7747802734375 C15.347567558288574 19.323688507080078 11.949474334716797 20.168169021606445 10.177967071533203 18.499744415283203 C9.646328926086426 17.999042510986328 9.358497619628906 17.290679931640625 8.948762893676758 16.686147689819336 L8.948762893676758 16.686147689819336 C9.301962852478027 16.50741958618164 9.65516185760498 16.328689575195312 10.00836181640625 16.149961471557617 L10.00836181640625 16.149961471557617 C10.513203620910645 16.8740234375 11.297245979309082 18.01188087463379 12.31161117553711 18.078718185424805 C13.238649368286133 18.139801025390625 14.507755279541016 17.133155822753906 14.245758056640625 16.103849411010742 C13.634968757629395 13.704246520996094 9.130988121032715 14.191217422485352 10.010357856750488 10.778508186340332 C10.149879455566406 10.237044334411621 10.48888874053955 9.730859756469727 10.909409523010254 9.362332344055176 C11.330208778381348 8.993560791015625 11.924592018127441 8.891521453857422 12.432183265686035 8.656116485595703 L12.432183265686035 8.656116485595703"></path></svg>