<svg xmlns="http://www.w3.org/2000/svg" viewBox="0.0 0.0 24.0 24.0" height="200px" width="200px"><path fill="none" stroke="black" stroke-width=".3" stroke-opacity="1.0"  filling="0" d="M15.548251152038574 2.7447118759155273 C15.746027946472168 2.8737707138061523 15.943804740905762 3.002828598022461 16.141021728515625 3.1318864822387695 C15.262201309204102 8.667962074279785 14.383378982543945 14.204038619995117 13.476621627807617 19.917219161987305 C14.522493362426758 20.070858001708984 15.403549194335938 20.200477600097656 16.33321189880371 20.337356567382812 C16.834918975830078 21.317859649658203 16.600826263427734 21.920129776000977 15.418634414672852 21.931861877441406 C12.927428245544434 21.956445693969727 10.436222076416016 21.939125061035156 7.900879383087158 21.939125061035156 C7.891939640045166 19.293161392211914 10.038434028625488 20.6893310546875 11.276494026184082 19.68312644958496 C11.941896438598633 15.754966735839844 12.663724899291992 11.497735977172852 13.41628360748291 7.055578231811523 C11.951394081115723 7.435488224029541 10.782610893249512 7.737740516662598 9.613268852233887 8.04055118560791 C9.49761962890625 7.811487674713135 9.382529258728027 7.582424640655518 9.26688003540039 7.353360176086426 C11.068660736083984 5.421963214874268 13.573835372924805 4.4425764083862305 15.548251152038574 2.7447118759155273"></path></svg>