<svg xmlns="http://www.w3.org/2000/svg" viewBox="0.0 0.0 24.0 24.0" height="200px" width="200px"><path fill="none" stroke="black" stroke-width=".3" stroke-opacity="1.0"  filling="0" d="M12.507281303405762 6.978137969970703 L12.507281303405762 6.978137969970703 C13.032240867614746 7.009477615356445 13.58127498626709 6.91191291809082 14.082160949707031 7.0721564292907715 C15.663158416748047 7.577949047088623 16.253843307495117 9.224634170532227 15.753498077392578 10.711127281188965 C15.34048080444336 11.938178062438965 14.537067413330078 12.994965553283691 13.602030754089355 13.946914672851562 C12.666994094848633 14.89886474609375 11.600332260131836 15.745976448059082 10.660815238952637 16.55367660522461 L10.660815238952637 16.55367660522461 C12.055439949035645 16.55367660522461 13.45005989074707 16.55367660522461 14.844685554504395 16.55367660522461 L14.844685554504395 16.55367660522461 C14.87192440032959 16.941640853881836 14.899162292480469 17.329607009887695 14.926401138305664 17.717571258544922 L14.926401138305664 17.717571258544922 C12.773259162902832 17.717571258544922 10.620118141174316 17.717571258544922 8.466975212097168 17.717571258544922 L8.466975212097168 17.717571258544922 C9.231229782104492 16.520862579345703 10.298766136169434 15.590591430664062 11.34246826171875 14.648252487182617 C12.38616943359375 13.705913543701172 13.406036376953125 12.751509666442871 14.074951171875 11.506538391113281 C14.74997329711914 10.250200271606445 14.957188606262207 7.02290153503418 12.432254791259766 8.066645622253418 C11.06697940826416 8.63101577758789 11.397841453552246 9.778446197509766 9.953569412231445 10.233648300170898 L9.953569412231445 10.233648300170898 C10.48953628540039 8.367010116577148 10.723821640014648 7.750150203704834 12.507281303405762 6.978137969970703 L12.507281303405762 6.978137969970703"></path></svg>