<svg xmlns="http://www.w3.org/2000/svg" viewBox="0.0 0.0 24.0 24.0" height="200px" width="200px"><path fill="none" stroke="black" stroke-width=".3" stroke-opacity="1.0"  filling="0" d="M11.482229232788086 3.171820640563965 C13.924278259277344 2.864147186279297 15.903938293457031 2.895793914794922 17.20730209350586 4.7998528480529785 C18.491912841796875 6.676368236541748 18.038312911987305 8.787887573242188 16.57613182067871 10.169195175170898 C13.368123054504395 13.19963264465332 9.873537063598633 15.92650032043457 6.496160984039307 18.777606964111328 L6.554764747619629 18.8338680267334 C8.13005256652832 17.28788185119629 9.773322105407715 15.80401611328125 11.258359909057617 14.176568984985352 C12.358366012573242 12.971076011657715 13.518735885620117 11.700530052185059 14.18448257446289 10.244794845581055 C15.67127799987793 6.993418216705322 14.895354270935059 5.020206451416016 11.482229232788086 3.171820640563965"></path>
<path fill="none" stroke="black" stroke-width=".3" stroke-opacity="1.0"  filling="0" d="M7.12791633605957 7.086014270782471 C8.280080795288086 7.369659423828125 9.161492347717285 7.587082386016846 10.13901424407959 7.827946662902832 C10.468371391296387 9.147719383239746 9.960856437683105 10.01154899597168 8.682106971740723 9.968182563781738 C6.832550048828125 9.905475616455078 7.158977031707764 8.440949440002441 7.12791633605957 7.086014270782471"></path>
<path fill="none" stroke="black" stroke-width=".3" stroke-opacity="1.0"  filling="0" d="M15.062376976013184 17.231033325195312 C15.25987434387207 17.41680908203125 15.456785202026367 17.602001190185547 15.654281616210938 17.787776947021484 C15.296795845031738 19.246440887451172 14.939308166503906 20.70452117919922 14.565997123718262 22.22648048400879 C10.810035705566406 22.22648048400879 7.220511436462402 22.22648048400879 3.4985408782958984 22.22648048400879 C3.6057863235473633 20.155397415161133 5.03808069229126 19.456832885742188 6.554764747619629 18.833866119384766 L6.49616003036499 18.777021408081055 C6.470959663391113 19.13568115234375 6.446346282958984 19.49492645263672 6.412355899810791 19.982515335083008 C8.042732238769531 19.982515335083008 9.59868049621582 19.93914794921875 11.151700019836426 19.993648529052734 C13.017666816711426 20.058700561523438 14.80686092376709 20.071008682250977 15.062376976013184 17.231033325195312"></path></svg>