<svg xmlns="http://www.w3.org/2000/svg" viewBox="0.0 0.0 24.0 24.0" height="200px" width="200px"><path fill="none" stroke="black" stroke-width=".3" stroke-opacity="1.0"  filling="0" d="M8.81589412689209 3.1108036041259766 C12.505558967590332 3.1108036041259766 16.12532615661621 3.1108036041259766 20.20001220703125 3.1108036041259766 C18.498821258544922 5.700500011444092 16.949268341064453 8.04970645904541 15.409785270690918 10.406022071838379 C13.421903610229492 13.448854446411133 11.124822616577148 16.36018943786621 11.397297859191895 20.33358383178711 C11.42691421508789 20.768951416015625 11.194718360900879 21.431774139404297 10.865379333496094 21.63553810119629 C10.27245044708252 22.002193450927734 9.514259338378906 22.099929809570312 8.824780464172363 22.310211181640625 C8.641748428344727 21.702472686767578 8.154254913330078 20.979228973388672 8.331955909729004 20.507137298583984 C8.916592597961426 18.955806732177734 9.608441352844238 17.409215927124023 10.504054069519043 16.018409729003906 C12.369914054870605 13.1218843460083 14.399259567260742 10.330202102661133 16.34686279296875 7.485208034515381 C16.717071533203125 6.946183681488037 17.020349502563477 6.360954761505127 17.679027557373047 5.248546600341797 C13.92065143585205 5.856284141540527 10.450151443481445 4.112444877624512 7.140766143798828 6.703325271606445 C7.683938980102539 5.538199424743652 8.22711181640625 4.3736653327941895 8.81589412689209 3.1108036041259766"></path></svg>