<svg xmlns="http://www.w3.org/2000/svg" viewBox="0.0 0.0 24.0 24.0" height="200px" width="200px"><path fill="none" stroke="black" stroke-width=".3" stroke-opacity="1.0"  filling="0" d="M14.966264724731445 3.1531505584716797 C16.192197799682617 3.1531505584716797 17.512571334838867 3.1531505584716797 19.264999389648438 3.1531505584716797 C18.09809112548828 4.847147464752197 17.20151138305664 6.35639762878418 16.098939895629883 7.695658206939697 C14.768532752990723 9.311741828918457 14.504693984985352 10.801514625549316 15.526403427124023 12.752856254577637 C16.8426456451416 15.266698837280273 17.831302642822266 17.953481674194336 18.937414169311523 20.575931549072266 C19.155805587768555 21.09357452392578 19.26736068725586 21.656665802001953 19.473947525024414 22.352561950683594 C18.041427612304688 22.352561950683594 16.784212112426758 22.352561950683594 15.345199584960938 22.352561950683594 C14.269187927246094 19.675220489501953 13.17841911315918 16.963054656982422 11.960158348083496 13.933340072631836 C8.896209716796875 16.252405166625977 10.955565452575684 19.597309112548828 9.848270416259766 22.293537139892578 C8.698477745056152 22.29412841796875 7.473724842071533 22.29412841796875 5.966245174407959 22.29412841796875 C5.966245174407959 15.835101127624512 5.966245174407959 9.658803939819336 5.966245174407959 3.237555503845215 C7.290159702301025 3.237555503845215 8.579249382019043 3.237555503845215 10.12568473815918 3.237555503845215 C10.12568473815918 5.4981842041015625 10.12568473815918 7.713954925537109 10.12568473815918 9.929725646972656 C10.326367378234863 10.003506660461426 10.527639389038086 10.077877044677734 10.728322982788086 10.151657104492188 C12.10890007019043 7.872140884399414 13.488886833190918 5.592623710632324 14.966264724731445 3.1531505584716797"></path></svg>