<svg xmlns="http://www.w3.org/2000/svg" viewBox="0.0 0.0 24.0 24.0" height="200px" width="200px"><path fill="none" stroke="black" stroke-width=".3" stroke-opacity="1.0"  filling="0" d="M14.343647003173828 4.5670857429504395 C16.76987075805664 4.5670857429504395 19.133604049682617 4.5670857429504395 21.610910415649414 4.5670857429504395 C21.610910415649414 5.201416015625 21.610910415649414 5.743001461029053 21.610910415649414 6.344101428985596 C20.965173721313477 6.547940254211426 20.35614013671875 6.740868091583252 19.472837448120117 7.020091533660889 C19.472837448120117 11.502554893493652 19.472837448120117 15.999897956848145 19.472837448120117 20.653961181640625 C17.643747329711914 20.653961181640625 16.107271194458008 20.653961181640625 14.307937622070312 20.653961181640625 C12.302781105041504 17.100427627563477 10.207857131958008 13.387689590454102 8.112933158874512 9.674952507019043 C7.990927696228027 9.702230453491211 7.868426322937012 9.729012489318848 7.746420383453369 9.7562894821167 C7.746420383453369 12.5599365234375 7.746420383453369 15.363088607788086 7.746420383453369 18.260967254638672 C8.505731582641602 18.515392303466797 9.179242134094238 18.740558624267578 9.883005142211914 18.976139068603516 C9.883005142211914 19.551448822021484 9.883005142211914 20.032032012939453 9.883005142211914 20.66338539123535 C7.472156047821045 20.66338539123535 5.110903263092041 20.66338539123535 2.735762596130371 20.66338539123535 C2.6524410247802734 20.55675506591797 2.4877843856811523 20.442684173583984 2.476872444152832 20.314727783203125 C2.441164016723633 19.91200828552246 2.4634828567504883 19.503835678100586 2.4634828567504883 18.905712127685547 C3.2396554946899414 18.69393539428711 3.860097885131836 18.524816513061523 4.650654315948486 18.30907440185547 C4.650654315948486 14.59782600402832 4.650654315948486 10.925260543823242 4.650654315948486 7.066215515136719 C4.027235984802246 6.846010208129883 3.353726387023926 6.607950687408447 2.5398597717285156 6.320295333862305 C2.5066308975219727 5.8739333152771 2.464970588684082 5.320940971374512 2.411407470703125 4.605274200439453 C5.028574466705322 4.605274200439453 7.558948516845703 4.605274200439453 10.349702835083008 4.605274200439453 C12.221445083618164 7.937612056732178 14.18394947052002 11.43064022064209 16.14595603942871 14.923173904418945 C16.260522842407227 14.892919540405273 16.37508773803711 14.862667083740234 16.489158630371094 14.832412719726562 C16.489158630371094 12.283687591552734 16.489158630371094 9.734962463378906 16.489158630371094 7.058776378631592 C15.80126667022705 6.810797691345215 15.12626838684082 6.567778587341309 14.343647003173828 6.285578727722168 C14.343647003173828 5.780198097229004 14.343647003173828 5.233157157897949 14.343647003173828 4.5670857429504395"></path></svg>