<svg xmlns="http://www.w3.org/2000/svg" viewBox="0.0 0.0 24.0 24.0" height="200px" width="200px"><path fill="none" stroke="black" stroke-width=".3" stroke-opacity="1.0"  filling="0" d="M18.305110931396484 4.017549991607666 C19.329504013061523 4.017549991607666 20.332733154296875 4.017549991607666 21.486766815185547 4.017549991607666 C20.224266052246094 9.827921867370605 18.996152877807617 15.480615615844727 17.745819091796875 21.232784271240234 C16.421937942504883 21.232784271240234 15.468976020812988 21.232784271240234 14.317059516906738 21.232784271240234 C13.609613418579102 17.789207458496094 12.91063404083252 14.385316848754883 12.211652755737305 10.981954574584961 C12.03333568572998 10.958673477172852 11.855019569396973 10.935920715332031 11.67617416381836 10.912638664245605 C10.962907791137695 14.249859809875488 10.249110221862793 17.587080001831055 9.475522994995117 21.205799102783203 C8.514623641967773 21.249187469482422 7.502927780151367 21.29522132873535 6.149942874908447 21.35660171508789 C4.869449615478516 15.610252380371094 3.600067138671875 9.91417121887207 2.28676700592041 4.0212531089782715 C3.5926589965820312 4.0212531089782715 4.702244281768799 4.0212531089782715 6.185394763946533 4.0212531089782715 C6.744154930114746 7.384930610656738 7.320376873016357 10.860254287719727 7.896599292755127 14.335577964782715 C8.03628921508789 14.353569030761719 8.175979614257812 14.372088432312012 8.315670013427734 14.3900785446167 C9.001951217651367 10.986186981201172 9.688232421875 7.5817670822143555 10.405732154846191 4.023899078369141 C11.5153169631958 4.023899078369141 12.61431884765625 4.023899078369141 13.918095588684082 4.023899078369141 C14.550405502319336 7.432552337646484 15.186418533325195 10.863958358764648 15.822961807250977 14.295365333557129 C15.977996826171875 14.32975959777832 16.133031845092773 14.364151954650879 16.287538528442383 14.39854621887207 C16.950536727905273 10.986188888549805 17.614065170288086 7.573830604553223 18.305110931396484 4.017549991607666"></path></svg>