<svg xmlns="http://www.w3.org/2000/svg" viewBox="0.0 0.0 24.0 24.0" height="200px" width="200px"><path fill="none" stroke="black" stroke-width=".3" stroke-opacity="1.0"  filling="0" d="M14.92493724822998 9.747617721557617 L14.92493724822998 9.747617721557617 C15.589493751525879 10.283440589904785 16.45945167541504 10.826887130737305 16.75710678100586 11.705742835998535 C16.928478240966797 12.211735725402832 17.049293518066406 12.793105125427246 16.889673233032227 13.302927017211914 C16.20706558227539 15.483149528503418 12.355956077575684 15.041559219360352 13.156282424926758 12.591522216796875 C13.320159912109375 12.08984375 13.888591766357422 11.831341743469238 14.254746437072754 11.451251983642578 L14.254746437072754 11.451251983642578 C13.632505416870117 11.366277694702148 12.990717887878418 11.019795417785645 12.38802433013916 11.196330070495605 C10.809730529785156 11.6586275100708 10.650264739990234 15.6510648727417 11.27258014678955 16.753883361816406 C11.825409889221191 17.733564376831055 12.978632926940918 18.246917724609375 13.996976852416992 17.50602149963379 C14.414042472839355 17.202585220336914 14.488944053649902 16.59935760498047 14.734928131103516 16.146026611328125 L14.734928131103516 16.146026611328125 C15.419161796569824 16.146026611328125 16.103395462036133 16.146026611328125 16.787628173828125 16.146026611328125 L16.787628173828125 16.146026611328125 C16.393749237060547 17.966598510742188 15.119560241699219 19.296375274658203 13.57446575164795 19.810964584350586 C12.029372215270996 20.32555389404297 10.213375091552734 20.024951934814453 8.735883712768555 18.584762573242188 C7.264792442321777 17.15081214904785 6.883007526397705 15.057268142700195 7.36971378326416 13.208656311035156 C7.856420516967773 11.360045433044434 9.211618423461914 9.756366729736328 11.214492797851562 9.302149772644043 C12.951889038085938 8.908138275146484 13.294952392578125 9.245948791503906 14.92493724822998 9.747617721557617 L14.92493724822998 9.747617721557617"></path></svg>