<svg xmlns="http://www.w3.org/2000/svg" viewBox="0.0 0.0 24.0 24.0" height="200px" width="200px"><path fill="none" stroke="black" stroke-width=".3" stroke-opacity="1.0"  filling="0" d="M11.876569747924805 7.028961181640625 L11.876569747924805 7.028961181640625 C13.105317115783691 7.028961181640625 14.334064483642578 7.028961181640625 15.562810897827148 7.028961181640625 L15.562810897827148 7.028961181640625 C15.692445755004883 8.752464294433594 15.65455150604248 10.463749885559082 15.661436080932617 12.191427230834961 C15.665781021118164 13.281699180603027 15.26233196258545 14.454646110534668 15.678866386413574 15.462223052978516 C15.965251922607422 16.15497589111328 16.676132202148438 16.690383911132812 16.757360458374023 17.435585021972656 L16.757360458374023 17.435585021972656 C15.209970474243164 17.506866455078125 14.264784812927246 17.547176361083984 12.810153007507324 16.972320556640625 L12.810153007507324 16.972320556640625 C12.256845474243164 17.244112014770508 11.756539344787598 17.676300048828125 11.150229454040527 17.787696838378906 C8.985337257385254 18.185447692871094 7.795559883117676 16.317951202392578 7.632241249084473 14.294488906860352 C7.4689226150512695 12.271026611328125 8.332063674926758 10.09160041809082 10.273008346557617 9.865497589111328 C11.42792797088623 9.730958938598633 12.043254852294922 10.148270606994629 12.920759201049805 10.603633880615234 L12.920759201049805 10.603633880615234 C12.920759201049805 9.879936218261719 12.920759201049805 9.156238555908203 12.920759201049805 8.432540893554688 L12.920759201049805 8.432540893554688 C12.378386497497559 8.218361854553223 11.940173149108887 7.608612060546875 11.876569747924805 7.028961181640625 L11.876569747924805 7.028961181640625"></path>
<path fill="none" stroke="black" stroke-width=".3" stroke-opacity="1.0"  filling="0" d="M11.774940490722656 11.42180061340332 L11.774940490722656 11.42180061340332 C12.108256340026855 11.685439109802246 12.576827049255371 11.836715698242188 12.774887084960938 12.212717056274414 C13.189006805419922 12.998892784118652 13.377568244934082 16.230812072753906 11.820144653320312 16.32150650024414 C10.212030410766602 16.415151596069336 10.445165634155273 12.884862899780273 10.776276588439941 12.172000885009766 C10.951667785644531 11.794395446777344 11.442052841186523 11.671867370605469 11.774940490722656 11.42180061340332 L11.774940490722656 11.42180061340332"></path></svg>