<svg xmlns="http://www.w3.org/2000/svg" viewBox="0.0 0.0 24.0 24.0" height="200px" width="200px"><path fill="none" stroke="black" stroke-width=".3" stroke-opacity="1.0"  filling="0" d="M13.353928565979004 7.015072822570801 L13.353928565979004 7.015072822570801 C14.01309871673584 7.015072822570801 14.672268867492676 7.015072822570801 15.331439018249512 7.015072822570801 L15.331439018249512 7.015072822570801 C15.331439018249512 8.763769149780273 15.331439018249512 10.512465476989746 15.331439018249512 12.261161804199219 C15.331439018249512 14.009859085083008 15.331439018249512 15.75855541229248 15.331439018249512 17.507251739501953 L15.331439018249512 17.507251739501953 C14.639924049377441 17.608915328979492 13.852109909057617 17.350801467895508 13.328006744384766 16.888368606567383 L13.328006744384766 16.888368606567383 C12.717251777648926 17.192325592041016 12.1723051071167 17.71263885498047 11.495742797851562 17.800241470336914 C9.938583374023438 18.00186538696289 9.249008178710938 16.45053482055664 9.09190559387207 14.665044784545898 C8.93480396270752 12.879554748535156 9.310173034667969 10.859907150268555 9.882902145385742 10.124898910522461 C10.855755805969238 8.876392364501953 12.097566604614258 9.465697288513184 13.353928565979004 9.629287719726562 L13.353928565979004 9.629287719726562 C13.353928565979004 8.757883071899414 13.353928565979004 7.886477947235107 13.353928565979004 7.015072822570801 L13.353928565979004 7.015072822570801"></path>
<path fill="none" stroke="black" stroke-width=".3" stroke-opacity="1.0"  filling="0" d="M12.314787864685059 10.81942367553711 L12.314787864685059 10.81942367553711 C13.519054412841797 11.763266563415527 13.15100383758545 12.851302146911621 13.121052742004395 14.313480377197266 C13.115825653076172 14.568634033203125 13.422481536865234 16.332162857055664 12.39320182800293 16.26980972290039 C11.433269500732422 16.211658477783203 11.496500968933105 15.141263961791992 11.429557800292969 14.566744804382324 C11.2581205368042 13.095439910888672 11.188483238220215 11.832125663757324 12.314787864685059 10.81942367553711 L12.314787864685059 10.81942367553711"></path></svg>