<svg xmlns="http://www.w3.org/2000/svg" viewBox="0.0 0.0 24.0 24.0" height="200px" width="200px"><path fill="none" stroke="black" stroke-width=".3" stroke-opacity="1.0"  filling="0" d="M9.333263397216797 7.038177013397217 L9.333263397216797 7.038177013397217 C10.009979248046875 7.038177013397217 10.686695098876953 7.038177013397217 11.363410949707031 7.038177013397217 L11.363410949707031 7.038177013397217 C11.363410949707031 8.749420166015625 11.363410949707031 10.460660934448242 11.363410949707031 12.171903610229492 L11.363410949707031 12.171903610229492 C11.481569290161133 12.237818717956543 11.59972858428955 12.30373477935791 11.717886924743652 12.369649887084961 L11.717886924743652 12.369649887084961 C13.05656909942627 10.581058502197266 13.330595970153809 9.72704792022705 15.606447219848633 9.708248138427734 L15.606447219848633 9.708248138427734 C15.219584465026855 10.422098159790039 14.595510482788086 11.003568649291992 14.282088279724121 11.752574920654297 C13.523272514343262 13.565972328186035 15.38687515258789 16.191349029541016 15.998604774475098 17.83850860595703 L15.998604774475098 17.83850860595703 C15.200395584106445 17.83850860595703 14.402185440063477 17.83850860595703 13.603976249694824 17.83850860595703 L13.603976249694824 17.83850860595703 C13.192756652832031 16.674243927001953 12.781478881835938 15.50999927520752 12.370148658752441 14.345773696899414 L12.370148658752441 14.345773696899414 C11.774858474731445 15.395648956298828 11.405996322631836 16.608028411865234 11.324396133422852 17.812166213989258 L11.324396133422852 17.812166213989258 C10.660685539245605 17.812166213989258 9.996973991394043 17.812166213989258 9.333263397216797 17.812166213989258 L9.333263397216797 17.812166213989258 C9.333263397216797 16.01650047302246 9.333263397216797 14.22083568572998 9.333263397216797 12.4251708984375 C9.333263397216797 10.62950611114502 9.333263397216797 8.833842277526855 9.333263397216797 7.038177013397217 L9.333263397216797 7.038177013397217"></path></svg>