<svg xmlns="http://www.w3.org/2000/svg" viewBox="0.0 0.0 24.0 24.0" height="200px" width="200px"><path fill="none" stroke="black" stroke-width=".3" stroke-opacity="1.0"  filling="0" d="M13.192672729492188 6.690351963043213 C18.902008056640625 6.8026204109191895 22.422828674316406 10.202642440795898 22.429931640625 15.611413955688477 C22.43703842163086 21.099056243896484 18.71371078491211 24.494815826416016 12.7556791305542 24.43583869934082 C6.909914493560791 24.377573013305664 3.103451728820801 20.745201110839844 3.232773780822754 15.347796440124512 C3.3606748580932617 10.015765190124512 7.318485736846924 6.575241565704346 13.192672729492188 6.690351963043213"></path>
<path fill="none" stroke="black" stroke-width=".3" stroke-opacity="1.0"  filling="0" d="M13.268702507019043 9.919839859008789 C14.111425399780273 9.92268180847168 15.297348022460938 11.036127090454102 15.702364921569824 11.939247131347656 C16.20401954650879 13.057666778564453 16.056222915649414 14.467413902282715 16.173465728759766 15.599334716796875 C16.034194946289062 16.932340621948242 16.199045181274414 18.246164321899414 15.70378589630127 19.226022720336914 C15.25329303741455 20.11919593811035 14.179638862609863 20.990341186523438 13.21114730834961 21.258220672607422 C11.913667678833008 21.617053985595703 10.374597549438477 21.052162170410156 10.238170623779297 19.52303695678711 C10.003686904907227 16.891130447387695 9.950394630432129 14.19313907623291 10.312067985534668 11.591073989868164 C10.413678169250488 10.863462448120117 12.23839282989502 9.91557788848877 13.268702507019043 9.919839859008789"></path></svg>