<svg xmlns="http://www.w3.org/2000/svg" viewBox="0.0 0.0 24.0 24.0" height="200px" width="200px"><path fill="none" stroke="black" stroke-width=".3" stroke-opacity="1.0"  filling="0" d="M12.560492515563965 5.273372650146484 C15.972622871398926 5.309717655181885 18.577327728271484 7.196080684661865 19.064064025878906 10.6609468460083 C19.45387840270996 13.435261726379395 19.45387840270996 16.355669021606445 19.048385620117188 19.126420974731445 C18.539560317993164 22.604827880859375 15.949106216430664 24.45555877685547 12.527711868286133 24.472660064697266 C9.067834854125977 24.490478515625 6.626323699951172 22.66326332092285 5.827452182769775 19.26752281188965 C5.477543354034424 17.776676177978516 5.424095630645752 16.21527671813965 5.275154113769531 15.00877571105957 C5.4518890380859375 13.373974800109863 5.489658832550049 12.05416202545166 5.751911163330078 10.78138256072998 C6.492346286773682 7.186816215515137 8.959512710571289 5.234889984130859 12.560492515563965 5.273372650146484"></path>
<path fill="none" stroke="black" stroke-width=".3" stroke-opacity="1.0"  filling="0" d="M12.616079330444336 8.980535507202148 C12.92750358581543 8.87791633605957 14.057754516601562 9.951154708862305 14.094812393188477 10.535520553588867 C14.27368450164795 13.342617988586426 14.315017700195312 16.17251968383789 14.14612102508545 18.978191375732422 C14.10621452331543 19.6523494720459 13.077871322631836 20.267358779907227 12.504194259643555 20.90945053100586 C11.903436660766602 20.298715591430664 10.968450546264648 19.778488159179688 10.773900032043457 19.058006286621094 C10.411877632141113 17.71966552734375 10.48171615600586 16.26445198059082 10.372682571411133 14.86268424987793 C10.48670482635498 13.438824653625488 10.414728164672852 11.980758666992188 10.786726951599121 10.645980834960938 C10.983417510986328 9.94260311126709 11.880633354187012 9.224260330200195 12.616079330444336 8.980535507202148"></path></svg>