<svg xmlns="http://www.w3.org/2000/svg" viewBox="0.0 0.0 24.0 24.0" height="200px" width="200px"><path fill="none" stroke="black" stroke-width=".3" stroke-opacity="1.0"  filling="0" d="M16.821208953857422 7.476911544799805 C19.65697479248047 6.688390731811523 22.276222229003906 8.927919387817383 22.108177185058594 11.865483283996582 C21.985374450683594 14.004830360412598 20.430145263671875 15.482501029968262 18.466114044189453 15.325764656066895 C16.446338653564453 15.164990425109863 15.72729778289795 13.81739616394043 16.270214080810547 11.21511459350586 C16.342117309570312 10.870136260986328 16.40190315246582 10.522733688354492 16.140140533447266 10.103428840637207 C11.434060096740723 13.38273811340332 13.644503593444824 18.260095596313477 13.095932006835938 22.464466094970703 C14.603492736816406 23.629474639892578 17.688095092773438 23.17138671875 16.07550621032715 26.51775360107422 C11.914765357971191 26.51775360107422 7.907527446746826 26.51775360107422 3.535921096801758 26.51775360107422 C3.582779884338379 25.28165054321289 2.440394401550293 23.86780548095703 4.620945453643799 23.414569854736328 C6.4484405517578125 23.03485107421875 6.463790416717529 21.72684097290039 6.469446182250977 20.350971221923828 C6.480756759643555 17.669513702392578 6.472677707672119 14.988866806030273 6.472677707672119 12.514235496520996 C5.364223957061768 11.010713577270508 2.050980567932129 11.438097953796387 3.580357551574707 8.530426979064941 C6.883904457092285 8.530426979064941 10.22704029083252 8.530426979064941 13.569366455078125 8.530426979064941 C13.567750930786133 8.688777923583984 13.56613540649414 8.847936630249023 13.565327644348145 9.00628662109375 C14.647119522094727 8.485183715820312 15.682052612304688 7.7944207191467285 16.821208953857422 7.476911544799805"></path></svg>