<svg xmlns="http://www.w3.org/2000/svg" viewBox="0.0 0.0 24.0 24.0" height="200px" width="200px"><path fill="none" stroke="black" stroke-width=".3" stroke-opacity="1.0"  filling="0" d="M14.711929321289062 9.45576286315918 L14.711929321289062 9.45576286315918 C15.212250709533691 9.480987548828125 15.745077133178711 9.352254867553711 16.212892532348633 9.531436920166016 C17.679136276245117 10.093037605285645 18.24420738220215 12.247173309326172 17.049903869628906 13.381868362426758 C16.452852249145508 13.94912052154541 14.981612205505371 14.170454025268555 14.479024887084961 13.22962760925293 C14.117572784423828 12.553001403808594 14.417977333068848 11.695099830627441 14.328828811645508 10.933178901672363 L14.328828811645508 10.933178901672363 C12.31917953491211 13.229230880737305 12.657215118408203 14.967555046081543 12.616461753845215 17.886260986328125 L12.616461753845215 17.886260986328125 C13.115181922912598 18.11288070678711 13.78817081451416 18.124746322631836 14.11262321472168 18.566118240356445 C14.430522918701172 18.998577117919922 14.232522964477539 19.632863998413086 14.292472839355469 20.166236877441406 L14.292472839355469 20.166236877441406 C11.941303253173828 20.166236877441406 9.590126991271973 20.166236877441406 7.238955974578857 20.166236877441406 L7.238955974578857 20.166236877441406 C7.190651893615723 19.820268630981445 6.9787468910217285 19.458080291748047 7.094043254852295 19.12833023071289 C7.335814476013184 18.436861038208008 8.414207458496094 18.33145523071289 8.753467559814453 17.769184112548828 C9.463292121887207 16.592761993408203 8.891769409179688 13.632756233215332 8.890881538391113 12.289258003234863 L8.890881538391113 12.289258003234863 C8.434253692626953 12.014505386352539 7.834090232849121 11.89624309539795 7.520998954772949 11.464999198913574 C7.239041328430176 11.076637268066406 7.349633693695068 10.520576477050781 7.263951301574707 10.048365592956543 L7.263951301574707 10.048365592956543 C9.13689136505127 10.048365592956543 11.009827613830566 10.048365592956543 12.882768630981445 10.048365592956543 L12.882768630981445 10.048365592956543 C12.882011413574219 10.137589454650879 12.881254196166992 10.226812362670898 12.880496978759766 10.316036224365234 L12.880496978759766 10.316036224365234 C13.478031158447266 10.00320053100586 14.089483261108398 9.715518951416016 14.711929321289062 9.45576286315918 L14.711929321289062 9.45576286315918"></path></svg>