<svg xmlns="http://www.w3.org/2000/svg" viewBox="0.0 0.0 24.0 24.0" height="200px" width="200px"><path fill="none" stroke="black" stroke-width=".3" stroke-opacity="1.0"  filling="0" d="M6.92956018447876 7.976149559020996 L6.92956018447876 7.976149559020996 C8.240350723266602 7.821008682250977 9.664306640625 7.613045692443848 11.07058048248291 7.600035190582275 C12.47685432434082 7.587024211883545 13.865445137023926 7.768965721130371 15.105506896972656 8.393632888793945 C17.000629425048828 9.34827995300293 17.791959762573242 11.104555130004883 17.653169631958008 12.828972816467285 C17.514381408691406 14.553390502929688 16.445470809936523 16.24595069885254 14.620110511779785 17.073165893554688 C13.511724472045898 17.575462341308594 12.17314624786377 17.691516876220703 10.815049171447754 17.681232452392578 C9.456952095031738 17.670948028564453 8.079336166381836 17.53432846069336 6.8928751945495605 17.53127670288086 L6.8928751945495605 17.53127670288086 C7.220187187194824 17.23440933227539 7.664009094238281 17.02903938293457 7.874810695648193 16.640676498413086 C8.138080596923828 16.155651092529297 8.049074172973633 13.933063507080078 8.048385620117188 13.63196849822998 C8.043482780456543 11.487211227416992 8.5708589553833 9.514769554138184 6.92956018447876 7.976149559020996 L6.92956018447876 7.976149559020996"></path>
<path fill="none" stroke="black" stroke-width=".3" stroke-opacity="1.0"  filling="0" d="M10.216068267822266 8.648004531860352 L10.216068267822266 8.648004531860352 C11.671835899353027 8.521491050720215 12.461576461791992 8.163290023803711 13.7321195602417 9.103116035461426 C14.793842315673828 9.888477325439453 15.316688537597656 11.251482963562012 15.319555282592773 12.617663383483887 C15.32242202758789 13.983844757080078 14.805309295654297 15.353200912475586 13.787114143371582 16.151262283325195 C12.043606758117676 17.517824172973633 10.621891021728516 17.171966552734375 10.220009803771973 14.91844367980957 C10.210243225097656 14.863679885864258 10.211518287658691 11.821807861328125 10.21155834197998 11.764009475708008 C10.21226978302002 10.725339889526367 10.214853286743164 9.686673164367676 10.216068267822266 8.648004531860352 L10.216068267822266 8.648004531860352"></path></svg>