<svg xmlns="http://www.w3.org/2000/svg" viewBox="0.0 0.0 24.0 24.0" height="200px" width="200px"><path fill="none" stroke="black" stroke-width=".3" stroke-opacity="1.0"  filling="0" d="M3.90438175201416 6.401586055755615 C5.988687038421631 6.401586055755615 7.651936054229736 6.401586055755615 9.415399551391602 6.401586055755615 C10.047760963439941 7.570754528045654 10.655261993408203 8.694865226745605 11.474844932556152 10.210512161254883 C12.46378231048584 8.854120254516602 13.319878578186035 7.680291175842285 14.248998641967773 6.406247138977051 C15.451571464538574 6.406247138977051 16.724838256835938 6.406247138977051 18.616483688354492 6.406247138977051 C17.36807632446289 8.593097686767578 16.448278427124023 10.537569046020508 15.220845222473145 12.262188911437988 C13.902520179748535 14.114991188049316 14.024487495422363 15.693562507629395 15.150152206420898 17.579769134521484 C16.595882415771484 20.002784729003906 17.77048683166504 22.586605072021484 19.245737075805664 25.457866668701172 C17.257762908935547 25.45864486694336 15.663653373718262 25.45864486694336 13.646934509277344 25.45864486694336 C12.801714897155762 23.86764144897461 11.968149185180664 22.29839324951172 10.884434700012207 20.25836944580078 C9.62825870513916 22.25644302368164 8.58571720123291 23.91425323486328 7.524531841278076 25.60236358642578 C6.172025203704834 25.60236358642578 4.895651340484619 25.60236358642578 3.151608467102051 25.60236358642578 C5.037815093994141 22.213714599609375 6.774865627288818 19.093860626220703 8.626113891601562 15.769693374633789 C7.114351749420166 12.771029472351074 5.56607723236084 9.698564529418945 3.90438175201416 6.401586055755615"></path></svg>