<svg xmlns="http://www.w3.org/2000/svg" viewBox="0.0 0.0 24.0 24.0" height="200px" width="200px"><path fill="none" stroke="black" stroke-width=".3" stroke-opacity="1.0"  filling="0" d="M14.74837875366211 8.001991271972656 L14.74837875366211 8.001991271972656 C15.143797874450684 8.38266658782959 15.649038314819336 8.675291061401367 15.934637069702148 9.14401626586914 C17.05901336669922 10.989344596862793 16.114944458007812 12.253332138061523 14.613537788391113 13.162565231323242 C13.11213207244873 14.071800231933594 11.053388595581055 14.626280784606934 9.948416709899902 15.052597045898438 L9.948416709899902 15.052597045898438 C10.18009090423584 15.083714485168457 13.442224502563477 15.548583030700684 13.786504745483398 15.49573802947998 C14.75005054473877 15.34783935546875 15.557190895080566 14.667325019836426 16.485328674316406 14.369239807128906 L16.485328674316406 14.369239807128906 C16.415761947631836 15.00583267211914 16.478015899658203 15.671125411987305 16.276630401611328 16.27901840209961 C15.240948677062988 19.4052791595459 12.420999526977539 17.183361053466797 10.443548202514648 17.146848678588867 C9.481651306152344 17.129087448120117 8.567220687866211 17.650442123413086 7.605381965637207 17.671125411987305 L7.605381965637207 17.671125411987305 C7.754870891571045 15.769670486450195 8.035503387451172 14.805514335632324 9.588932037353516 13.588788032531738 C10.487679481506348 12.884841918945312 12.083625793457031 12.475424766540527 12.730602264404297 11.484625816345215 C13.660221099853516 10.060978889465332 12.043815612792969 8.475784301757812 10.56722640991211 8.879242897033691 C10.088179588317871 9.010135650634766 9.755109786987305 9.451030731201172 9.349051475524902 9.736924171447754 L9.349051475524902 9.736924171447754 C9.714289665222168 9.8916654586792 10.171784400939941 9.91335391998291 10.4447660446167 10.201147079467773 C12.081697463989258 11.926896095275879 7.666505813598633 13.650375366210938 7.5751447677612305 10.611783027648926 C7.517817497253418 8.705124855041504 8.742749214172363 7.817234992980957 10.26620101928711 7.523730754852295 C11.789653778076172 7.230226516723633 13.611625671386719 7.531107425689697 14.74837875366211 8.001991271972656 L14.74837875366211 8.001991271972656"></path></svg>