<svg xmlns="http://www.w3.org/2000/svg" viewBox="0.0 0.0 24.0 24.0" height="200px" width="200px"><path fill="none" stroke="black" stroke-width=".3" stroke-opacity="1.0"  filling="0" d="M7.7296342849731445 3.1329240798950195 C11.084128379821777 3.1329240798950195 14.254823684692383 3.1329240798950195 17.740766525268555 3.1329240798950195 C17.645736694335938 4.231173038482666 17.554122924804688 5.287311553955078 17.434621810913086 6.666666507720947 C15.200569152832031 6.666666507720947 13.167387008666992 6.666666507720947 10.920246124267578 6.666666507720947 C10.77001953125 7.962940692901611 10.655641555786133 8.945673942565918 10.493465423583984 10.342668533325195 C12.63135051727295 9.141993522644043 14.638357162475586 8.697003364562988 16.280038833618164 10.12870979309082 C17.336177825927734 11.049985885620117 18.263713836669922 12.437875747680664 18.619365692138672 13.783088684082031 C19.746633529663086 18.051462173461914 17.362354278564453 21.765588760375977 13.448492050170898 22.26464080810547 C9.651285171508789 22.74889373779297 6.801529407501221 20.625802993774414 6.523268222808838 16.882654190063477 C7.49746561050415 16.73697853088379 8.49044132232666 16.589027404785156 9.59381103515625 16.424007415771484 C9.836222648620605 16.735271453857422 10.068391799926758 17.005565643310547 10.270970344543457 17.29691505432129 C11.43465805053711 18.970462799072266 12.490228652954102 19.324975967407227 13.705129623413086 18.43954849243164 C14.926859855651855 17.548431396484375 15.211950302124023 15.218777656555176 14.275877952575684 13.774553298950195 C13.496293067932129 12.571600914001465 12.261474609375 12.264887809753418 10.929919242858887 13.373948097229004 C9.569343566894531 14.50690746307373 8.493287086486816 13.643104553222656 7.049061298370361 13.495722770690918 C7.278954029083252 9.988725662231445 7.499172687530518 6.637075901031494 7.7296342849731445 3.1329240798950195"></path></svg>