<svg xmlns="http://www.w3.org/2000/svg" viewBox="0.0 0.0 24.0 24.0" height="200px" width="200px"><path fill="none" stroke="black" stroke-width=".3" stroke-opacity="1.0"  filling="0" d="M4.841025352478027 3.7739295959472656 C9.733163833618164 3.7739295959472656 14.388501167297363 3.7739295959472656 19.407052993774414 3.7739295959472656 C19.518035888671875 5.176346302032471 19.6331729888916 6.62683629989624 19.74771499633789 8.076733589172363 C19.574417114257812 8.226886749267578 19.40171241760254 8.377633094787598 19.228412628173828 8.527786254882812 C17.738750457763672 4.73716402053833 14.919673919677734 4.5377516746521 11.564674377441406 5.163883686065674 C11.564674377441406 7.395406723022461 11.564674377441406 9.51476001739502 11.564674377441406 11.622243881225586 C15.033623695373535 12.413365364074707 15.342832565307617 12.316625595092773 17.256837844848633 9.527816772460938 C17.256837844848633 11.93085765838623 17.256837844848633 13.884034156799316 17.256837844848633 15.837209701538086 C16.037216186523438 13.220510482788086 13.955845832824707 13.422891616821289 11.4329195022583 13.954657554626465 C11.4329195022583 15.754119873046875 11.428171157836914 17.598094940185547 11.434700012207031 19.442068099975586 C11.439447402954102 20.888996124267578 12.265585899353027 21.60059356689453 13.618149757385254 21.752525329589844 C16.0965633392334 22.03146743774414 18.390403747558594 21.82967758178711 19.687774658203125 19.229005813598633 C19.812999725341797 18.97795867919922 20.04327392578125 18.774391174316406 20.245059967041016 18.568450927734375 C20.297286987304688 18.515628814697266 20.42548370361328 18.536996841430664 21.04686737060547 18.45271873474121 C20.798194885253906 20.01181983947754 20.5738525390625 21.41839027404785 20.325775146484375 22.97393035888672 C14.91967487335205 22.97393035888672 9.703489303588867 22.97393035888672 4.487898349761963 22.97393035888672 C7.429235935211182 22.033248901367188 7.21439266204834 19.757211685180664 7.16216516494751 17.48651885986328 C7.096287727355957 14.625897407531738 7.154449939727783 11.762900352478027 7.147921085357666 8.900497436523438 C7.140206336975098 5.741349220275879 7.134271144866943 5.741349220275879 4.841025352478027 3.7739295959472656"></path></svg>