<svg xmlns="http://www.w3.org/2000/svg" viewBox="0.0 0.0 24.0 24.0" height="200px" width="200px"><path fill="none" stroke="black" stroke-width=".3" stroke-opacity="1.0"  filling="0" d="M14.342284202575684 7.154240131378174 L14.342284202575684 7.154240131378174 C15.96553897857666 8.259439468383789 15.994667053222656 8.885677337646484 16.04318618774414 10.84517765045166 L16.04318618774414 10.84517765045166 C15.37214469909668 10.84517765045166 14.701102256774902 10.84517765045166 14.030060768127441 10.84517765045166 L14.030060768127441 10.84517765045166 C13.773164749145508 9.71211051940918 13.179813385009766 7.797054290771484 11.822643280029297 9.620305061340332 C11.156852722167969 10.514741897583008 10.991695404052734 12.481755256652832 10.983083724975586 13.569156646728516 C10.973345756530762 14.798839569091797 11.451055526733398 16.677648544311523 13.028732299804688 15.102055549621582 C13.358094215393066 14.773128509521484 13.447287559509277 14.270488739013672 13.656564712524414 13.854705810546875 L13.656564712524414 13.854705810546875 C14.256274223327637 13.939278602600098 14.855982780456543 14.023852348327637 15.455692291259766 14.10842514038086 L15.455692291259766 14.10842514038086 C15.22586441040039 15.375733375549316 14.413657188415527 16.698347091674805 13.339829444885254 17.38311195373535 C12.266000747680664 18.0678768157959 10.930551528930664 18.114791870117188 9.654237747192383 16.830703735351562 C8.52259349822998 15.692167282104492 8.25157356262207 13.690086364746094 8.601561546325684 11.786259651184082 C8.951549530029297 9.882433891296387 9.92254638671875 8.076863288879395 11.27493667602539 7.33134651184082 C12.516779899597168 6.6467695236206055 13.048102378845215 6.950760841369629 14.342284202575684 7.154240131378174 L14.342284202575684 7.154240131378174"></path></svg>