<svg xmlns="http://www.w3.org/2000/svg" viewBox="0.0 0.0 24.0 24.0" height="200px" width="200px"><path fill="none" stroke="black" stroke-width=".3" stroke-opacity="1.0"  filling="0" d="M10.107394218444824 7.020874500274658 L10.107394218444824 7.020874500274658 C12.167619705200195 7.020874500274658 14.227845191955566 7.020874500274658 16.288070678710938 7.020874500274658 L16.288070678710938 7.020874500274658 C16.181081771850586 7.632380962371826 16.074092864990234 8.243887901306152 15.967103958129883 8.85539436340332 L15.967103958129883 8.85539436340332 C15.937087059020996 8.85539436340332 12.213565826416016 8.85539436340332 12.204131126403809 8.85539436340332 L12.204131126403809 8.85539436340332 C12.009855270385742 9.74040412902832 11.815570831298828 10.625411987304688 11.621280670166016 11.510418891906738 L11.621280670166016 11.510418891906738 C12.741288185119629 11.510418891906738 13.861295700073242 11.510418891906738 14.981302261352539 11.510418891906738 L14.981302261352539 11.510418891906738 C14.859703063964844 12.181891441345215 14.738109588623047 12.853364944458008 14.616522789001465 13.524839401245117 L14.616522789001465 13.524839401245117 C14.58944320678711 13.524839401245117 11.389968872070312 13.524839401245117 11.386944770812988 13.524839401245117 L11.386944770812988 13.524839401245117 C11.1085205078125 14.956839561462402 10.830177307128906 16.388856887817383 10.551834106445312 17.820873260498047 L10.551834106445312 17.820873260498047 C10.477710723876953 17.820873260498047 8.306963920593262 17.820873260498047 8.287479400634766 17.820873260498047 L8.287479400634766 17.820873260498047 C8.590768814086914 16.020870208740234 8.894063949584961 14.220865249633789 9.197378158569336 12.42086410522461 C9.500692367553711 10.620863914489746 9.80402660369873 8.820865631103516 10.107394218444824 7.020874500274658 L10.107394218444824 7.020874500274658"></path></svg>