<svg xmlns="http://www.w3.org/2000/svg" viewBox="0.0 0.0 24.0 24.0" height="200px" width="200px"><path fill="none" stroke="black" stroke-width=".3" stroke-opacity="1.0"  filling="0" d="M4.2396039962768555 5.692845344543457 C6.755291938781738 5.692845344543457 9.188261985778809 5.692845344543457 11.919182777404785 5.692845344543457 C11.700573921203613 6.271862506866455 11.657105445861816 6.9846625328063965 11.284879684448242 7.272904872894287 C9.456247329711914 8.689640998840332 9.425439834594727 8.649548530578613 9.279841423034668 11.16143798828125 C10.659017562866211 11.16143798828125 12.033551216125488 11.16143798828125 13.597150802612305 11.16143798828125 C13.830530166625977 10.065862655639648 14.05842399597168 8.997296333312988 14.307840347290039 7.828289031982422 C13.472654342651367 7.390227794647217 12.336141586303711 7.117177963256836 13.249825477600098 5.7185893058776855 C15.532977104187012 5.7185893058776855 17.96257209777832 5.7185893058776855 20.579124450683594 5.7185893058776855 C20.540298461914062 6.171421527862549 20.497249603271484 6.670254230499268 20.444076538085938 7.29400634765625 C18.701114654541016 7.19187593460083 18.095088958740234 8.099228858947754 17.84693717956543 9.65776538848877 C17.451923370361328 12.14306640625 16.813400268554688 14.589542388916016 16.25252914428711 17.17022132873535 C16.853492736816406 17.447912216186523 17.389041900634766 17.695219039916992 18.042335510253906 17.996967315673828 C17.97312355041504 18.420257568359375 17.899269104003906 18.870136260986328 17.812755584716797 19.39724349975586 C15.262883186340332 19.39724349975586 12.831600189208984 19.39724349975586 10.180865287780762 19.39724349975586 C10.381749153137207 18.779821395874023 10.482613563537598 17.882596969604492 10.713882446289062 17.84756851196289 C13.062026023864746 17.49306869506836 12.488495826721191 15.475370407104492 12.967071533203125 14.072561264038086 C13.031219482421875 13.884760856628418 12.975934028625488 13.656023025512695 12.975934028625488 13.30616569519043 C11.586207389831543 13.30616569519043 10.219270706176758 13.30616569519043 8.643009185791016 13.30616569519043 C8.370803833007812 14.517374992370605 8.084248542785645 15.791467666625977 7.780813217163086 17.139835357666016 C8.567045211791992 17.686779022216797 9.753777503967285 18.038745880126953 8.820260047912598 19.394710540771484 C6.455654621124268 19.395557403564453 4.0201520919799805 19.395557403564453 1.3787012100219727 19.395557403564453 C1.4875831604003906 18.79163932800293 1.5610151290893555 18.383541107177734 1.6589250564575195 17.840396881103516 C3.360105514526367 17.867828369140625 4.022683620452881 16.928401947021484 4.2716779708862305 15.293057441711426 C4.6498122215271 12.811975479125977 5.295931339263916 10.372251510620117 5.855113983154297 7.789884567260742 C5.2313618659973145 7.563257694244385 4.727464199066162 7.379676818847656 4.106245517730713 7.153471946716309 C4.145493030548096 6.725961208343506 4.187273979187012 6.266798973083496 4.2396039962768555 5.692845344543457"></path></svg>