<svg xmlns="http://www.w3.org/2000/svg" viewBox="0.0 0.0 24.0 24.0" height="200px" width="200px"><path fill="none" stroke="black" stroke-width=".3" stroke-opacity="1.0"  filling="0" d="M16.99601173400879 2.9614830017089844 C18.2903995513916 2.9603586196899414 19.584787368774414 2.9614830017089844 20.867935180664062 2.9614830017089844 C21.01181983947754 4.318820953369141 20.918519973754883 5.293967247009277 19.475189208984375 5.389515399932861 C18.061084747314453 5.482813835144043 17.6980037689209 6.427049160003662 17.452953338623047 7.6331963539123535 C16.877981185913086 10.463089942932129 16.294580459594727 13.296917915344238 15.543126106262207 16.08297348022461 C14.239745140075684 20.916553497314453 9.574776649475098 23.256908416748047 4.80639123916626 21.634845733642578 C3.25795841217041 21.108211517333984 2.2119932174682617 20.181400299072266 1.9186067581176758 18.552593231201172 C1.5903730392456055 16.732694625854492 2.23166561126709 15.223605155944824 3.6468935012817383 14.090524673461914 C4.985121250152588 13.018705368041992 6.912933826446533 13.198559761047363 7.607058525085449 14.370421409606934 C8.2725191116333 15.49450969696045 7.674503803253174 16.944583892822266 6.160356521606445 17.800016403198242 C5.717467308044434 18.050689697265625 5.229612827301025 18.219303131103516 4.6434006690979 18.47784423828125 C7.414278984069824 19.857101440429688 9.443260192871094 19.151735305786133 10.155932426452637 16.433124542236328 C11.049020767211914 13.026012420654297 11.666707992553711 9.546395301818848 12.431650161743164 5.964486598968506 C11.525634765625 5.628945827484131 10.775304794311523 5.350733757019043 10.032281875610352 5.0753326416015625 C9.541617393493652 4.187864780426025 10.230122566223145 3.0390453338623047 11.395801544189453 2.990147590637207 C13.259541511535645 2.912022590637207 15.128900527954102 2.963730812072754 16.99601173400879 2.9614830017089844"></path></svg>