<svg xmlns="http://www.w3.org/2000/svg" viewBox="0.0 0.0 24.0 24.0" height="200px" width="200px"><path fill="none" stroke="black" stroke-width=".3" stroke-opacity="1.0"  filling="0" d="M12.95869255065918 8.349818229675293 L12.95869255065918 8.349818229675293 C12.999794006347656 8.349818229675293 16.89285659790039 8.349818229675293 16.89970588684082 8.349818229675293 L16.89970588684082 8.349818229675293 C16.0654296875 9.857091903686523 14.704572677612305 10.266060829162598 13.243608474731445 11.146097183227539 L13.243608474731445 11.146097183227539 C13.96881103515625 12.78358268737793 14.511794090270996 14.136713027954102 15.62169075012207 15.55215072631836 L15.62169075012207 15.55215072631836 C15.570422172546387 15.7760591506958 15.519152641296387 15.999968528747559 15.467884063720703 16.223876953125 L15.467884063720703 16.223876953125 C14.075258255004883 16.223876953125 12.682629585266113 16.223876953125 11.290003776550293 16.223876953125 L11.290003776550293 16.223876953125 C11.645746231079102 15.803183555603027 12.00148868560791 15.382489204406738 12.357231140136719 14.961795806884766 L12.357231140136719 14.961795806884766 C12.058260917663574 14.195408821105957 11.759259223937988 13.429033279418945 11.46022891998291 12.662670135498047 L11.46022891998291 12.662670135498047 C10.663301467895508 13.210716247558594 10.031098365783691 14.093437194824219 9.77825927734375 15.026988983154297 L9.77825927734375 15.026988983154297 C9.94349479675293 15.424985885620117 10.108729362487793 15.822982788085938 10.273964881896973 16.220979690551758 L10.273964881896973 16.220979690551758 C8.882627487182617 16.220808029174805 7.491286277770996 16.220746994018555 6.099948406219482 16.22073745727539 L6.099948406219482 16.22073745727539 C6.1182990074157715 15.93590259552002 6.1366496086120605 15.651066780090332 6.15500020980835 15.366231918334961 L6.15500020980835 15.366231918334961 C8.275335311889648 14.432153701782227 8.123719215393066 11.749006271362305 8.577508926391602 9.631214141845703 L8.577508926391602 9.631214141845703 C8.237702369689941 9.47845458984375 7.8978962898254395 9.32569408416748 7.558089733123779 9.172934532165527 L7.558089733123779 9.172934532165527 C7.6058173179626465 8.903149604797363 7.6535444259643555 8.633365631103516 7.701272010803223 8.363580703735352 L7.701272010803223 8.363580703735352 C9.115549087524414 8.363580703735352 10.529825210571289 8.363580703735352 11.944103240966797 8.363580703735352 L11.944103240966797 8.363580703735352 C11.570493698120117 8.784193992614746 11.196883201599121 9.204806327819824 10.823273658752441 9.625419616699219 L10.823273658752441 9.625419616699219 C10.819005012512207 9.645064353942871 10.354548454284668 11.783051490783691 10.354127883911133 11.784985542297363 L10.354127883911133 11.784985542297363 C10.41408920288086 11.834161758422852 10.474050521850586 11.883337020874023 10.534011840820312 11.932513236999512 L10.534011840820312 11.932513236999512 C11.618371963500977 11.153892517089844 12.702712059020996 10.375236511230469 13.787121772766113 9.596686363220215 L13.787121772766113 9.596686363220215 C13.456151962280273 9.454916954040527 13.123381614685059 9.316417694091797 12.78436279296875 9.195148468017578 L12.78436279296875 9.195148468017578 C12.842473030090332 8.913372039794922 12.900582313537598 8.63159465789795 12.95869255065918 8.349818229675293 L12.95869255065918 8.349818229675293"></path></svg>