<svg xmlns="http://www.w3.org/2000/svg" viewBox="0.0 0.0 24.0 24.0" height="200px" width="200px"><path fill="none" stroke="black" stroke-width=".3" stroke-opacity="1.0"  filling="0" d="M14.618566513061523 7.5086669921875 L14.618566513061523 7.5086669921875 C14.684117317199707 7.5086669921875 17.626346588134766 7.5086669921875 17.659576416015625 7.5086669921875 L17.659576416015625 7.5086669921875 C17.391765594482422 9.117926597595215 17.123992919921875 10.727192878723145 16.856231689453125 12.336461067199707 C16.588470458984375 13.945728302001953 16.32071876525879 15.554998397827148 16.05294418334961 17.164264678955078 L16.05294418334961 17.164264678955078 C15.367096900939941 17.164264678955078 14.68125057220459 17.164264678955078 13.995403289794922 17.164264678955078 L13.995403289794922 17.164264678955078 C14.395424842834473 14.847757339477539 14.795347213745117 12.531230926513672 15.19523811340332 10.214701652526855 L15.19523811340332 10.214701652526855 C15.137124061584473 10.195826530456543 15.079010009765625 10.176952362060547 15.020895957946777 10.158077239990234 L15.020895957946777 10.158077239990234 C14.507556915283203 11.333823204040527 13.99423599243164 12.509576797485352 13.480903625488281 13.685325622558594 C12.967571258544922 14.861074447631836 12.454227447509766 16.03681755065918 11.940844535827637 17.212543487548828 L11.940844535827637 17.212543487548828 C11.52619743347168 17.212543487548828 11.111550331115723 17.212543487548828 10.696903228759766 17.212543487548828 L10.696903228759766 17.212543487548828 C10.44143295288086 14.954033851623535 10.1859130859375 12.695528030395508 9.930391311645508 10.43702507019043 L9.930391311645508 10.43702507019043 C9.845952033996582 10.440999031066895 9.761512756347656 10.444972038269043 9.67707347869873 10.448945999145508 L9.67707347869873 10.448945999145508 C9.309988021850586 12.70079231262207 8.942989349365234 14.952653884887695 8.575882911682129 17.204498291015625 L8.575882911682129 17.204498291015625 C8.00378131866455 17.204498291015625 7.4316792488098145 17.204498291015625 6.859577178955078 17.204498291015625 L6.859577178955078 17.204498291015625 C7.130865097045898 15.59518051147461 7.402149200439453 13.985861778259277 7.673443794250488 12.376544952392578 C7.944737911224365 10.767228126525879 8.216042518615723 9.157913208007812 8.487370491027832 7.5486016273498535 L8.487370491027832 7.5486016273498535 C9.508193016052246 7.5486016273498535 10.529016494750977 7.5486016273498535 11.54983901977539 7.5486016273498535 L11.54983901977539 7.5486016273498535 C11.71140193939209 9.359187126159668 11.873044967651367 11.169767379760742 12.034720420837402 12.980340957641602 L12.034720420837402 12.980340957641602 C12.1099214553833 13.01441478729248 12.185121536254883 13.04848861694336 12.260322570800781 13.082562446594238 L12.260322570800781 13.082562446594238 C13.046370506286621 11.224583625793457 13.832438468933105 9.366613388061523 14.618566513061523 7.5086669921875 L14.618566513061523 7.5086669921875"></path></svg>