<svg xmlns="http://www.w3.org/2000/svg" viewBox="0.0 0.0 24.0 24.0" height="200px" width="200px"><path fill="none" stroke="black" stroke-width=".3" stroke-opacity="1.0"  filling="0" d="M9.867898941040039 6.938492774963379 L9.867898941040039 6.938492774963379 C11.420476913452148 6.930031776428223 13.486440658569336 6.614967346191406 14.965083122253418 7.24532413482666 C16.970996856689453 8.100460052490234 16.949556350708008 11.285712242126465 15.628499984741211 12.698334693908691 C14.48408317565918 13.922075271606445 12.549803733825684 13.837160110473633 11.04237174987793 13.994918823242188 L11.04237174987793 13.994918823242188 C11.023589134216309 14.089653968811035 10.30540943145752 17.71198844909668 10.302251815795898 17.727914810180664 L10.302251815795898 17.727914810180664 C10.2426118850708 17.727914810180664 8.034553527832031 17.727914810180664 8.029664993286133 17.727914810180664 L8.029664993286133 17.727914810180664 C8.336095809936523 15.9296875 8.642488479614258 14.131454467773438 8.948856353759766 12.333216667175293 C9.255224227905273 10.534978866577148 9.561567306518555 8.736736297607422 9.867898941040039 6.938492774963379 L9.867898941040039 6.938492774963379"></path>
<path fill="none" stroke="black" stroke-width=".3" stroke-opacity="1.0"  filling="0" d="M11.840009689331055 9.00811767578125 L11.840009689331055 9.00811767578125 C13.279279708862305 8.846722602844238 14.841793060302734 9.124068260192871 13.78699779510498 11.288639068603516 C13.357650756835938 12.169711112976074 11.958066940307617 11.881503105163574 11.328967094421387 11.860835075378418 L11.328967094421387 11.860835075378418 C11.49928092956543 10.909923553466797 11.669626235961914 9.959016799926758 11.840009689331055 9.00811767578125 L11.840009689331055 9.00811767578125"></path></svg>