<svg xmlns="http://www.w3.org/2000/svg" viewBox="0.0 0.0 24.0 24.0" height="200px" width="200px"><path fill="none" stroke="black" stroke-width=".3" stroke-opacity="1.0"  filling="0" d="M13.573217391967773 2.965447425842285 C16.46352767944336 2.987934112548828 18.01069450378418 4.287203311920166 18.921663284301758 7.608044147491455 C17.931716918945312 7.925045490264893 16.930803298950195 8.24588680267334 15.811973571777344 8.604570388793945 C15.464807510375977 8.084095001220703 15.183454513549805 7.6491780281066895 14.889488220214844 7.223034858703613 C14.125502586364746 6.116271018981934 13.18162727355957 5.8782453536987305 12.1346435546875 6.785374641418457 C11.175959587097168 7.61572265625 11.29716682434082 8.972578048706055 12.476325035095215 9.812797546386719 C13.43391227722168 10.495064735412598 14.546709060668945 10.954662322998047 15.553655624389648 11.573309898376465 C18.79277992248535 13.563072204589844 19.509048461914062 17.035831451416016 17.20722007751465 19.960147857666016 C15.400639533996582 22.255395889282227 12.850364685058594 22.43747901916504 10.245245933532715 21.93729591369629 C7.644515037536621 21.437110900878906 6.481809616088867 19.97440528869629 5.927330493927002 16.638757705688477 C7.160785675048828 16.40950584411621 8.200091361999512 16.215906143188477 9.163162231445312 16.037113189697266 C9.719286918640137 16.908044815063477 10.062066078186035 17.67203140258789 10.605576515197754 18.24460792541504 C11.433180809020996 19.116636276245117 13.009963989257812 19.0349178314209 13.81837272644043 18.20950698852539 C14.624040603637695 17.387386322021484 14.54122543334961 15.873126029968262 13.490402221679688 15.08336353302002 C12.62660026550293 14.434003829956055 11.589488983154297 14.019927024841309 10.651097297668457 13.465447425842285 C7.867184638977051 11.820108413696289 7.005576133728027 9.867093086242676 7.814533710479736 7.097439765930176 C8.568647384643555 4.51480770111084 10.75859260559082 2.943509101867676 13.573217391967773 2.965447425842285"></path></svg>