<svg xmlns="http://www.w3.org/2000/svg" viewBox="0.0 0.0 24.0 24.0" height="200px" width="200px"><path fill="none" stroke="black" stroke-width=".3" stroke-opacity="1.0"  filling="0" d="M8.289530754089355 7.528213024139404 L8.289530754089355 7.528213024139404 C9.709939956665039 7.528213024139404 11.130349159240723 7.528213024139404 12.550758361816406 7.528213024139404 C13.971168518066406 7.528213024139404 15.39157772064209 7.528213024139404 16.811986923217773 7.528213024139404 L16.811986923217773 7.528213024139404 C16.578603744506836 9.13981819152832 15.342028617858887 10.641414642333984 13.892915725708008 12.029622077941895 C12.443801879882812 13.417828559875488 10.782150268554688 14.692646026611328 9.698614120483398 15.850692749023438 L9.698614120483398 15.850692749023438 C10.358867645263672 15.905343055725098 11.022294998168945 16.099308013916016 11.679374694824219 16.0146427154541 C12.733321189880371 15.8788423538208 13.185188293457031 14.5033597946167 14.04001235961914 13.872074127197266 C14.48757553100586 13.541549682617188 15.11609935760498 13.588746070861816 15.654142379760742 13.44708251953125 L15.654142379760742 13.44708251953125 C15.639670372009277 13.51628589630127 14.876035690307617 17.16755485534668 14.867342948913574 17.2091121673584 L14.867342948913574 17.2091121673584 C13.40406608581543 17.2091121673584 11.940790176391602 17.2091121673584 10.477514266967773 17.2091121673584 C9.014238357543945 17.2091121673584 7.550962448120117 17.2091121673584 6.087686061859131 17.2091121673584 L6.087686061859131 17.2091121673584 C6.189114093780518 15.59940242767334 6.974686622619629 15.168787002563477 8.145349502563477 14.006526947021484 C9.798501968383789 12.365241050720215 11.48615837097168 10.74928092956543 13.050256729125977 9.022533416748047 L13.050256729125977 9.022533416748047 C12.43061637878418 8.958475112915039 11.811359405517578 8.770122528076172 11.191335678100586 8.83035945892334 C9.715636253356934 8.97372817993164 9.059504508972168 10.622272491455078 7.833545207977295 11.328986167907715 L7.833545207977295 11.328986167907715 C7.73539400100708 11.251001358032227 7.637242794036865 11.173017501831055 7.53909158706665 11.095032691955566 L7.53909158706665 11.095032691955566 C7.789220809936523 9.906088829040527 8.03936767578125 8.71714973449707 8.289530754089355 7.528213024139404 L8.289530754089355 7.528213024139404"></path></svg>