<svg xmlns="http://www.w3.org/2000/svg" viewBox="0.0 0.0 24.0 24.0" height="200px" width="200px"><path fill="none" stroke="black" stroke-width=".3" stroke-opacity="1.0"  filling="0" d="M5.806974411010742 3.1622886657714844 C7.719521999359131 3.1622886657714844 9.845965385437012 3.1622886657714844 12.237504005432129 3.1622886657714844 C11.851240158081055 5.2631330490112305 11.482610702514648 7.268407344818115 11.046854972839355 9.641741752624512 C11.859773635864258 9.233290672302246 12.44514274597168 8.902776718139648 13.058955192565918 8.637113571166992 C16.582548141479492 7.113105297088623 19.548078536987305 8.897088050842285 19.44852638244629 12.692602157592773 C19.40017318725586 14.530057907104492 18.912078857421875 16.432933807373047 18.245361328125 18.160600662231445 C16.84195327758789 21.793418884277344 12.140796661376953 24.012584686279297 8.660436630249023 20.840557098388672 C7.106277942657471 21.2421817779541 5.665894031524658 21.615360260009766 3.726040840148926 22.11710548400879 C4.934893608093262 16.338504791259766 6.010630130767822 11.193055152893066 7.069870471954346 6.130094051361084 C6.678486347198486 5.037859916687012 4.159520626068115 5.197144031524658 5.806974411010742 3.1622886657714844"></path>
<path fill="none" stroke="black" stroke-width=".3" stroke-opacity="1.0"  filling="0" d="M14.089750289916992 11.162904739379883 C14.906083106994629 13.882681846618652 14.232538223266602 16.370359420776367 12.834249496459961 18.654949188232422 C12.486669540405273 19.22382164001465 11.354044914245605 19.772783279418945 10.780622482299805 19.61349868774414 C10.203216552734375 19.453075408935547 9.445479393005371 18.35173988342285 9.514312744140625 17.748737335205078 C9.724226951599121 15.910711288452148 10.137228012084961 14.056188583374023 10.77550220489502 12.319990158081055 C11.292607307434082 10.914308547973633 12.517389297485352 10.459779739379883 14.089750289916992 11.162904739379883"></path></svg>