<svg xmlns="http://www.w3.org/2000/svg" viewBox="0.0 0.0 24.0 24.0" height="200px" width="200px"><path fill="none" stroke="black" stroke-width=".3" stroke-opacity="1.0"  filling="0" d="M17.466938018798828 9.55723762512207 C19.304275512695312 9.42283821105957 20.174705505371094 10.524989128112793 19.881893157958984 12.345053672790527 C19.615623474121094 14.001649856567383 19.23981475830078 15.640129089355469 18.897708892822266 17.36076545715332 C19.102888107299805 18.040761947631836 20.916213989257812 17.97124481201172 19.763925552368164 19.45510482788086 C18.012954711914062 19.45510482788086 16.08503532409668 19.45510482788086 13.788467407226562 19.45510482788086 C15.533538818359375 17.057422637939453 16.494970321655273 14.584322929382324 16.216064453125 11.722355842590332 C15.003530502319336 11.26439094543457 14.071589469909668 11.615763664245605 13.817538261413574 12.707802772521973 C13.396648406982422 14.516913414001465 12.080892562866211 16.27757453918457 13.292584419250488 18.28217315673828 C13.444256782531738 18.533275604248047 13.159871101379395 19.04811668395996 13.063390731811523 19.50650405883789 C11.298517227172852 19.50650405883789 9.63770866394043 19.50650405883789 7.544633388519287 19.50650405883789 C9.294760704040527 17.054893493652344 10.201844215393066 14.568314552307129 10.017309188842773 11.817151069641113 C8.675854682922363 11.157377243041992 7.818065166473389 11.766172409057617 7.5619072914123535 12.760466575622559 C7.094673156738281 14.57379150390625 5.9074177742004395 16.371105194091797 7.046643257141113 18.369384765625 C7.179356098175049 18.60236930847168 6.975441932678223 19.02747344970703 6.911823749542236 19.474905014038086 C4.979689598083496 19.474905014038086 3.1141223907470703 19.474905014038086 0.9447908401489258 19.474905014038086 C1.1992626190185547 18.894760131835938 1.339980125427246 18.10269546508789 1.5986652374267578 18.06224822998047 C3.037022590637207 17.83600425720215 3.0256471633911133 16.71615982055664 3.2489423751831055 15.717229843139648 C3.508049964904785 14.557780265808105 3.7570438385009766 13.396225929260254 4.011937618255615 12.230035781860352 C3.782322883605957 11.479259490966797 2.016606330871582 11.447660446166992 3.1908016204833984 10.017309188842773 C4.742069721221924 10.042165756225586 6.490511417388916 9.39081859588623 8.200193405151367 10.494234085083008 C10.95683479309082 9.02764892578125 11.892144203186035 9.067251205444336 13.767823219299316 10.615992546081543 C15.100008964538574 10.216168403625488 16.265777587890625 9.645291328430176 17.466938018798828 9.55723762512207"></path></svg>