<svg xmlns="http://www.w3.org/2000/svg" viewBox="0.0 0.0 24.0 24.0" height="200px" width="200px"><path fill="none" stroke="black" stroke-width=".3" stroke-opacity="1.0"  filling="0" d="M21.36797332763672 5.599907398223877 C20.64046859741211 6.707144260406494 20.270654678344727 7.342606544494629 19.828641891479492 7.9224042892456055 C19.36844253540039 8.526451110839844 18.541736602783203 9.008146286010742 18.386865615844727 9.663450241088867 C17.44607162475586 13.658649444580078 16.65077781677246 17.687469482421875 15.801475524902344 21.728965759277344 C16.445756912231445 22.119720458984375 16.95004653930664 22.425052642822266 17.8643856048584 22.97949981689453 C17.04374122619629 23.570316314697266 16.49370574951172 24.29892349243164 15.903436660766602 24.333093643188477 C13.546769142150879 24.469226837158203 11.177977561950684 24.38930892944336 8.533065795898438 24.38930892944336 C8.782732009887695 23.4920597076416 8.890203475952148 22.437728881835938 9.110658645629883 22.41347885131836 C12.126485824584961 22.08445167541504 11.3074951171875 19.527721405029297 12.209708213806152 17.414106369018555 C11.155932426452637 17.898006439208984 10.497873306274414 18.237506866455078 9.812808990478516 18.50811767578125 C6.660849094390869 19.752033233642578 3.9586191177368164 18.107437133789062 3.79217529296875 14.771947860717773 C3.6604537963867188 12.128690719604492 4.392364978790283 9.675023078918457 6.000034809112549 7.5630621910095215 C8.148921966552734 4.740132808685303 11.303086280822754 4.453540802001953 14.078065872192383 6.738559246063232 C16.03074836730957 4.784224033355713 18.4166259765625 6.061761379241943 21.36797332763672 5.599907398223877"></path>
<path fill="none" stroke="black" stroke-width=".3" stroke-opacity="1.0"  filling="0" d="M12.199235916137695 7.840283393859863 C12.745965003967285 7.953818321228027 13.530234336853027 9.026884078979492 13.465750694274902 9.592903137207031 C13.262380599975586 11.384101867675781 12.894221305847168 13.213329315185547 12.204195976257324 14.866743087768555 C11.921463012695312 15.544092178344727 10.594322204589844 16.230810165405273 9.849184036254883 16.12885093688965 C9.259466171264648 16.047832489013672 8.832884788513184 14.770845413208008 8.34182071685791 14.03728199005127 C9.021374702453613 12.055388450622559 9.45291519165039 10.360639572143555 10.207422256469727 8.826269149780273 C10.482439994812012 8.266864776611328 11.604557037353516 7.7168288230896 12.199235916137695 7.840283393859863"></path></svg>