<svg xmlns="http://www.w3.org/2000/svg" viewBox="0.0 0.0 24.0 24.0" height="200px" width="200px"><path fill="none" stroke="black" stroke-width=".3" stroke-opacity="1.0"  filling="0" d="M17.26948356628418 8.399948120117188 L17.26948356628418 8.399948120117188 C16.7474308013916 9.187606811523438 15.97867488861084 9.823193550109863 15.592611312866211 10.685690879821777 C14.714700698852539 12.647014617919922 14.576066017150879 15.368231773376465 14.138330459594727 17.47254180908203 L14.138330459594727 17.47254180908203 C14.525126457214355 17.70701789855957 14.911921501159668 17.941492080688477 15.298717498779297 18.175968170166016 L15.298717498779297 18.175968170166016 C13.661886215209961 19.305830001831055 11.996236801147461 18.980892181396484 10.049849510192871 18.96898651123047 L10.049849510192871 18.96898651123047 C10.302227020263672 18.105653762817383 11.218291282653809 17.592443466186523 11.692193984985352 16.827945709228516 C12.01405143737793 16.308727264404297 11.976038932800293 15.639605522155762 12.117960929870605 15.045434951782227 L12.117960929870605 15.045434951782227 C11.172051429748535 15.477173805236816 10.250642776489258 16.067201614379883 9.12451171875 15.843873023986816 C6.830304145812988 15.388896942138672 7.209320545196533 12.278908729553223 7.884657382965088 10.753101348876953 C9.039838790893555 8.143167495727539 10.843280792236328 7.874301433563232 13.168911933898926 9.04043960571289 L13.168911933898926 9.04043960571289 C14.62045669555664 8.307640075683594 15.651126861572266 8.438643455505371 17.26948356628418 8.399948120117188 L17.26948356628418 8.399948120117188"></path>
<path fill="none" stroke="black" stroke-width=".3" stroke-opacity="1.0"  filling="0" d="M12.112070083618164 9.660160064697266 L12.112070083618164 9.660160064697266 C12.349541664123535 9.988776206970215 12.75102424621582 10.247279167175293 12.824484825134277 10.646007537841797 C12.988532066345215 11.536420822143555 12.33231258392334 14.653661727905273 10.790165901184082 14.322479248046875 C10.317540168762207 14.220980644226074 10.224905014038086 13.538140296936035 9.94227409362793 13.145971298217773 L9.94227409362793 13.145971298217773 C10.486719131469727 11.476982116699219 10.502007484436035 10.457171440124512 12.112070083618164 9.660160064697266 L12.112070083618164 9.660160064697266"></path></svg>