<svg xmlns="http://www.w3.org/2000/svg" viewBox="0.0 0.0 24.0 24.0" height="200px" width="200px"><path fill="none" stroke="black" stroke-width=".3" stroke-opacity="1.0"  filling="0" d="M11.916839599609375 5.9922261238098145 C14.850893020629883 5.794632434844971 16.65056037902832 6.9709553718566895 17.880901336669922 9.902877807617188 C17.96974754333496 10.113975524902344 17.981121063232422 10.35705852508545 18.079204559326172 10.829008102416992 C17.1409912109375 11.158805847167969 16.1750545501709 11.498553276062012 15.348431587219238 11.789258003234863 C14.944714546203613 11.517032623291016 14.7506742477417 11.391226768493652 14.561609268188477 11.258313179016113 C13.685232162475586 10.645630836486816 12.858607292175293 9.922779083251953 11.898359298706055 9.499871253967285 C11.684417724609375 9.405339241027832 10.540079116821289 10.674060821533203 10.616131782531738 10.787784576416016 C11.223128318786621 11.69827938079834 11.966592788696289 12.54054069519043 12.779001235961914 13.283293724060059 C13.289334297180176 13.749558448791504 14.010053634643555 13.974872589111328 14.601412773132324 14.362951278686523 C17.074888229370117 15.985638618469238 18.02163314819336 18.159168243408203 17.38407325744629 20.683818817138672 C16.755752563476562 23.171510696411133 14.780527114868164 24.791351318359375 11.99715518951416 25.100536346435547 C7.765239238739014 25.571063995361328 5.263332366943359 23.701744079589844 4.9712066650390625 19.694429397583008 C5.994002819061279 19.57217788696289 7.024617671966553 19.449214935302734 8.216577529907227 19.30634880065918 C8.905312538146973 20.062606811523438 9.466819763183594 21.114547729492188 10.319031715393066 21.469932556152344 C10.94450855255127 21.731494903564453 11.950957298278809 21.081140518188477 12.788243293762207 20.83663558959961 C12.531655311584473 20.037731170654297 12.479768753051758 19.051183700561523 11.964461326599121 18.490386962890625 C11.361729621887207 17.834346771240234 10.341065406799316 17.572782516479492 9.525102615356445 17.100122451782227 C6.883884906768799 15.571260452270508 5.744522571563721 13.232829093933105 6.347254276275635 10.627861022949219 C6.967045307159424 7.948262691497803 9.087979316711426 6.182712078094482 11.916839599609375 5.9922261238098145"></path></svg>