<svg xmlns="http://www.w3.org/2000/svg" viewBox="0.0 0.0 24.0 24.0" height="200px" width="200px"><path fill="none" stroke="black" stroke-width=".3" stroke-opacity="1.0"  filling="0" d="M15.342936515808105 6.500493049621582 C16.565656661987305 6.500493049621582 17.921283721923828 6.500493049621582 19.77803611755371 6.500493049621582 C17.605440139770508 9.709744453430176 15.657217025756836 12.589079856872559 13.626124382019043 15.589593887329102 C14.679978370666504 18.863733291625977 15.74321460723877 22.163673400878906 16.87993812561035 25.695022583007812 C15.041166305541992 25.694236755371094 13.508073806762695 25.694236755371094 11.642721176147461 25.694236755371094 C11.017288208007812 23.8148136138916 10.459089279174805 22.13787269592285 9.695280075073242 19.844097137451172 C8.131698608398438 22.06516456604004 6.907413959503174 23.804649353027344 5.573678493499756 25.70049476623535 C4.300923824310303 25.70049476623535 2.939826011657715 25.70049476623535 1.1135625839233398 25.70049476623535 C3.51131534576416 22.166797637939453 5.6854753494262695 18.962238311767578 7.9518866539001465 15.622428894042969 C6.970739841461182 12.743873596191406 5.97551965713501 9.826231002807617 4.869286060333252 6.580235481262207 C6.751056671142578 6.580235481262207 8.349037170410156 6.580235481262207 10.233152389526367 6.580235481262207 C10.679555892944336 7.860808849334717 11.173646926879883 9.27819538116455 11.899930953979492 11.36245059967041 C13.19926643371582 9.527586936950684 14.203085899353027 8.110200881958008 15.342936515808105 6.500493049621582"></path></svg>