<svg xmlns="http://www.w3.org/2000/svg" viewBox="0.0 0.0 24.0 24.0" height="200px" width="200px"><path fill="none" stroke="black" stroke-width=".3" stroke-opacity="1.0"  filling="0" d="M17.098295211791992 4.3574957847595215 C19.73324966430664 5.572844505310059 20.56344985961914 8.391687393188477 19.122879028320312 11.190764427185059 C17.814088821411133 13.732873916625977 15.3785982131958 14.630160331726074 12.902976989746094 15.456766128540039 C11.073663711547852 16.06773567199707 9.229375839233398 16.633779525756836 7.534835338592529 17.65146255493164 C9.434828758239746 17.861705780029297 11.342010498046875 18.02822494506836 13.23361873626709 18.298370361328125 C14.483110427856445 18.476869583129883 15.247419357299805 18.034814834594727 15.972198486328125 17.002756118774414 C16.41065788269043 16.378009796142578 17.336694717407227 16.095287322998047 18.265727996826172 15.522054672241211 C18.52329444885254 20.632030487060547 14.974281311035156 23.643749237060547 10.68012809753418 22.558382034301758 C9.9152193069458 22.36490821838379 9.201224327087402 21.975566864013672 8.459675788879395 21.685054779052734 C7.048457145690918 21.13218879699707 5.709716320037842 20.663780212402344 4.232608795166016 21.744953155517578 C3.637810707092285 22.180419921875 2.632706642150879 22.052234649658203 1.6737260818481445 22.201984405517578 C1.824070930480957 19.07645606994629 3.359879493713379 17.170475006103516 5.465925693511963 15.720321655273438 C7.098171710968018 14.596617698669434 8.932275772094727 13.770610809326172 10.605253219604492 12.700217247009277 C11.675047874450684 12.016172409057617 12.841878890991211 11.293191909790039 13.56425952911377 10.296473503112793 C14.879040718078613 8.482734680175781 13.964384078979492 6.645035266876221 11.705595970153809 6.544405460357666 C10.448317527770996 6.488100528717041 9.165283203125 6.996642112731934 7.83612585067749 7.58245325088501 C8.959829330444336 8.489922523498535 10.307555198669434 8.972108840942383 9.619915962219238 10.626516342163086 C9.058064460754395 11.978434562683105 8.023609161376953 12.601384162902832 6.594420909881592 12.615758895874023 C4.849565029144287 12.633729934692383 3.8456592559814453 11.745428085327148 4.196068286895752 10.023933410644531 C4.457827091217041 8.738502502441406 5.119709491729736 7.368614196777344 6.005614280700684 6.406637668609619 C8.556709289550781 3.636312484741211 13.710412979125977 2.794732093811035 17.098295211791992 4.3574957847595215"></path></svg>