<svg xmlns="http://www.w3.org/2000/svg" viewBox="0.0 0.0 24.0 24.0" height="200px" width="200px"><path fill="none" stroke="black" stroke-width=".3" stroke-opacity="1.0"  filling="0" d="M15.935032844543457 7.08925199508667 L15.935032844543457 7.08925199508667 C15.591679573059082 9.162263870239258 15.248466491699219 11.235296249389648 14.905304908752441 13.308340072631836 L14.905304908752441 13.308340072631836 C15.334795951843262 13.430598258972168 15.764287948608398 13.552857398986816 16.19377899169922 13.675115585327148 L16.19377899169922 13.675115585327148 C16.095380783081055 14.230148315429688 15.996983528137207 14.785181999206543 15.89858627319336 15.340214729309082 L15.89858627319336 15.340214729309082 C15.454865455627441 15.424492835998535 15.01114559173584 15.508771896362305 14.567424774169922 15.593050003051758 L14.567424774169922 15.593050003051758 C14.39578628540039 16.38930892944336 14.284978866577148 16.903526306152344 14.111665725708008 17.707998275756836 L14.111665725708008 17.707998275756836 C13.417299270629883 17.707998275756836 12.722933769226074 17.707998275756836 12.02856731414795 17.707998275756836 L12.02856731414795 17.707998275756836 C12.050978660583496 17.47307586669922 12.230581283569336 15.589509010314941 12.246268272399902 15.424930572509766 L12.246268272399902 15.424930572509766 C10.975634574890137 15.424930572509766 9.705001831054688 15.424930572509766 8.434368133544922 15.424930572509766 L8.434368133544922 15.424930572509766 C8.489311218261719 12.843766212463379 9.96103286743164 11.744420051574707 11.461153030395508 9.759745597839355 C12.085874557495117 8.933232307434082 12.92385196685791 7.391580104827881 14.021449089050293 7.016233921051025 C14.625434875488281 6.809688568115234 15.297171592712402 7.064912796020508 15.935032844543457 7.08925199508667 L15.935032844543457 7.08925199508667"></path>
<path fill="none" stroke="black" stroke-width=".3" stroke-opacity="1.0"  filling="0" d="M13.102952003479004 9.853363990783691 L13.102952003479004 9.853363990783691 C13.177927017211914 9.89090633392334 13.252902030944824 9.928447723388672 13.327877044677734 9.96599006652832 L13.327877044677734 9.96599006652832 C13.232902526855469 10.458269119262695 12.709952354431152 13.168203353881836 12.618953704833984 13.639652252197266 L12.618953704833984 13.639652252197266 C11.847423553466797 13.639652252197266 11.07589340209961 13.639652252197266 10.304363250732422 13.639652252197266 L10.304363250732422 13.639652252197266 C11.237174987792969 12.377517700195312 12.170042991638184 11.115425109863281 13.102952003479004 9.853363990783691 L13.102952003479004 9.853363990783691"></path></svg>