<svg xmlns="http://www.w3.org/2000/svg" viewBox="0.0 0.0 24.0 24.0" height="200px" width="200px"><path fill="none" stroke="black" stroke-width=".3" stroke-opacity="1.0"  filling="0" d="M9.538657188415527 6.998231887817383 L9.538657188415527 6.998231887817383 C10.999612808227539 6.998231887817383 12.460569381713867 6.998231887817383 13.921525955200195 6.998231887817383 L13.921525955200195 6.998231887817383 C13.6315336227417 8.222707748413086 13.341551780700684 9.447187423706055 13.051581382751465 10.671669006347656 C12.761610984802246 11.896150588989258 12.47165298461914 13.120635032653809 12.181708335876465 14.345122337341309 L12.181708335876465 14.345122337341309 C13.384360313415527 14.345122337341309 14.587013244628906 14.345122337341309 15.789665222167969 14.345122337341309 L15.789665222167969 14.345122337341309 C15.53677749633789 15.496159553527832 15.283889770507812 16.64719581604004 15.031002044677734 17.798233032226562 L15.031002044677734 17.798233032226562 C13.6773681640625 17.798233032226562 12.323735237121582 17.798233032226562 10.970102310180664 17.798233032226562 C9.61646842956543 17.798233032226562 8.262835502624512 17.798233032226562 6.909201622009277 17.798233032226562 L6.909201622009277 17.798233032226562 C7.347372055053711 15.998214721679688 7.785591125488281 14.198208808898926 8.223840713500977 12.398210525512695 C8.662089347839355 10.598211288452148 9.10036849975586 8.79822063446045 9.538657188415527 6.998231887817383 L9.538657188415527 6.998231887817383"></path></svg>