<svg xmlns="http://www.w3.org/2000/svg" viewBox="0.0 0.0 24.0 24.0" height="200px" width="200px"><path fill="none" stroke="black" stroke-width=".3" stroke-opacity="1.0"  filling="0" d="M5.0701680183410645 6.198209285736084 C7.18032693862915 6.198209285736084 9.137304306030273 6.198209285736084 11.251665115356445 6.198209285736084 C11.464437484741211 7.904978275299072 11.672626495361328 9.57354736328125 11.932385444641113 11.65620231628418 C13.138736724853516 9.61021900177002 14.129639625549316 7.929808139801025 15.142316818237305 6.21196174621582 C17.09967613220215 6.21196174621582 19.053598403930664 6.21196174621582 21.239776611328125 6.21196174621582 C20.24237823486328 10.37574291229248 19.27439308166504 14.416903495788574 18.273176193237305 18.59634780883789 C16.84564971923828 18.59634780883789 15.418502807617188 18.59634780883789 13.710588455200195 18.59634780883789 C14.115888595581055 16.852523803710938 14.52004337310791 15.115196228027344 14.92381477355957 13.378250122070312 C14.854291915893555 13.340814590454102 14.784768104553223 13.303760528564453 14.71562671661377 13.266324996948242 C13.653288841247559 15.070884704589844 12.591333389282227 16.875446319580078 11.522884368896484 18.69070053100586 C10.708463668823242 18.69070053100586 9.952107429504395 18.69070053100586 8.967315673828125 18.69070053100586 C8.749958038330078 16.945350646972656 8.529163360595703 15.172114372253418 8.308368682861328 13.39887809753418 C8.214396476745605 13.388946533203125 8.12004280090332 13.37901496887207 8.026071548461914 13.369463920593262 C7.602435111999512 15.101826667785645 7.178417205810547 16.83418846130371 6.7368268966674805 18.64065933227539 C5.158792018890381 18.640277862548828 3.6647958755493164 18.640277862548828 2.0397748947143555 18.640277862548828 C3.0642948150634766 14.434093475341797 4.064748287200928 10.325319290161133 5.0701680183410645 6.198209285736084"></path></svg>