<svg xmlns="http://www.w3.org/2000/svg" viewBox="0.0 0.0 24.0 24.0" height="200px" width="200px"><path fill="none" stroke="black" stroke-width=".3" stroke-opacity="1.0"  filling="0" d="M6.632784843444824 7.368269920349121 L6.632784843444824 7.368269920349121 C8.820158004760742 7.355556964874268 11.010089874267578 7.2980637550354 13.197294235229492 7.348237991333008 C14.115511894226074 7.369301795959473 15.356389045715332 7.309058666229248 16.214216232299805 7.795693397521973 C17.87161636352539 8.735916137695312 17.816970825195312 11.407105445861816 16.1943302154541 12.34693431854248 C14.80896282196045 13.149335861206055 12.853381156921387 12.847713470458984 11.345703125 12.824095726013184 L11.345703125 12.824095726013184 C11.345703125 12.845317840576172 11.345703125 15.63187313079834 11.345703125 15.77191162109375 L11.345703125 15.77191162109375 C11.778395652770996 15.895111083984375 12.211089134216309 16.018310546875 12.643781661987305 16.141510009765625 L12.643781661987305 16.141510009765625 C12.675844192504883 16.55760383605957 12.707907676696777 16.97369956970215 12.739970207214355 17.389793395996094 L12.739970207214355 17.389793395996094 C10.705375671386719 17.389793395996094 8.670782089233398 17.389793395996094 6.6361870765686035 17.389793395996094 L6.6361870765686035 17.389793395996094 C6.6361870765686035 16.979576110839844 6.6361870765686035 16.56935691833496 6.6361870765686035 16.15913963317871 L6.6361870765686035 16.15913963317871 C7.024755001068115 16.031404495239258 7.413322925567627 15.903668403625488 7.801890850067139 15.775932312011719 L7.801890850067139 15.775932312011719 C7.801890850067139 13.524114608764648 7.801890850067139 11.272298812866211 7.801890850067139 9.020482063293457 L7.801890850067139 9.020482063293457 C7.41218900680542 8.878107070922852 7.022486686706543 8.73573112487793 6.632784843444824 8.593356132507324 L6.632784843444824 8.593356132507324 C6.632784843444824 8.184993743896484 6.632784843444824 7.776631832122803 6.632784843444824 7.368269920349121 L6.632784843444824 7.368269920349121"></path>
<path fill="none" stroke="black" stroke-width=".3" stroke-opacity="1.0"  filling="0" d="M11.351888656616211 8.920890808105469 L11.351888656616211 8.920890808105469 C11.963912010192871 8.86842155456543 13.2224760055542 8.510172843933105 13.640613555908203 9.39997673034668 C14.140801429748535 10.464385986328125 13.712285995483398 11.335731506347656 12.668214797973633 11.597346305847168 C12.242066383361816 11.704127311706543 11.790663719177246 11.553504943847656 11.351888656616211 11.531583786010742 L11.351888656616211 11.531583786010742 C11.351888656616211 11.41834831237793 11.351888656616211 9.082315444946289 11.351888656616211 8.920890808105469 L11.351888656616211 8.920890808105469"></path></svg>