<svg xmlns="http://www.w3.org/2000/svg" viewBox="0.0 0.0 24.0 24.0" height="200px" width="200px"><path fill="none" stroke="black" stroke-width=".3" stroke-opacity="1.0"  filling="0" d="M13.421494483947754 8.632649421691895 L13.421494483947754 8.632649421691895 C15.398787498474121 9.378429412841797 15.508648872375488 10.115120887756348 16.070497512817383 12.15358829498291 L16.070497512817383 12.15358829498291 C15.528271675109863 12.243715286254883 14.986044883728027 12.333841323852539 14.443819046020508 12.423968315124512 L14.443819046020508 12.423968315124512 C14.011024475097656 11.125762939453125 13.009913444519043 9.009671211242676 11.4374418258667 11.03152084350586 C10.6105375289917 12.094736099243164 10.520219802856445 14.843085289001465 10.680097579956055 16.09369659423828 C10.914485931396484 17.927148818969727 12.542546272277832 18.232608795166016 13.451091766357422 16.731647491455078 C13.658541679382324 16.38892936706543 13.809199333190918 16.014902114868164 13.988252639770508 15.65652847290039 L13.988252639770508 15.65652847290039 C14.455818176269531 15.734122276306152 14.923383712768555 15.81171703338623 15.390949249267578 15.889310836791992 L15.390949249267578 15.889310836791992 C15.43861198425293 17.35525131225586 14.424664497375488 18.597755432128906 13.14775562286377 19.155235290527344 C11.87084674835205 19.71271514892578 10.330976486206055 19.585166931152344 9.326789855957031 18.310998916625977 C8.439848899841309 17.185598373413086 8.2186279296875 15.424203872680664 8.479284286499023 13.72343921661377 C8.739940643310547 12.022675514221191 9.482474327087402 10.382542610168457 10.523042678833008 9.499666213989258 C11.63283634185791 8.55805492401123 12.070151329040527 8.73556900024414 13.421494483947754 8.632649421691895 L13.421494483947754 8.632649421691895"></path></svg>