<svg xmlns="http://www.w3.org/2000/svg" viewBox="0.0 0.0 24.0 24.0" height="200px" width="200px"><path fill="none" stroke="black" stroke-width=".3" stroke-opacity="1.0"  filling="0" d="M12.357029914855957 7.002073287963867 L12.357029914855957 7.002073287963867 C12.92028522491455 7.002073287963867 13.483541488647461 7.002073287963867 14.046796798706055 7.002073287963867 L14.046796798706055 7.002073287963867 C13.982986450195312 7.527241230010986 13.919175148010254 8.052409172058105 13.855364799499512 8.577576637268066 L13.855364799499512 8.577576637268066 C13.313416481018066 8.602416038513184 12.771468162536621 8.627256393432617 12.229519844055176 8.652095794677734 L12.229519844055176 8.652095794677734 C12.27202320098877 8.10208797454834 12.314526557922363 7.5520806312561035 12.357029914855957 7.002073287963867 L12.357029914855957 7.002073287963867"></path>
<path fill="none" stroke="black" stroke-width=".3" stroke-opacity="1.0"  filling="0" d="M11.919519424438477 9.667214393615723 L11.919519424438477 9.667214393615723 C12.472728729248047 9.667214393615723 13.0259370803833 9.667214393615723 13.579146385192871 9.667214393615723 L13.579146385192871 9.667214393615723 C13.357601165771484 11.023017883300781 13.136098861694336 12.378829956054688 12.914596557617188 13.73464298248291 C12.693095207214355 15.090455055236816 12.471593856811523 16.44626808166504 12.250053405761719 17.802072525024414 L12.250053405761719 17.802072525024414 C11.699714660644531 17.802072525024414 11.149375915527344 17.802072525024414 10.599037170410156 17.802072525024414 L10.599037170410156 17.802072525024414 C10.819067001342773 16.44625473022461 11.039129257202148 15.090441703796387 11.2592134475708 13.73463249206543 C11.479297637939453 12.378823280334473 11.699403762817383 11.023017883300781 11.919519424438477 9.667214393615723 L11.919519424438477 9.667214393615723"></path></svg>