<svg xmlns="http://www.w3.org/2000/svg" viewBox="0.0 0.0 24.0 24.0" height="200px" width="200px"><path fill="none" stroke="black" stroke-width=".3" stroke-opacity="1.0"  filling="0" d="M18.102718353271484 4.995421409606934 C18.309682846069336 5.121159076690674 18.5172061920166 5.246897220611572 18.724172592163086 5.3726348876953125 C17.737743377685547 11.321240425109863 16.751317977905273 17.269847869873047 15.739298820495605 23.375347137451172 C14.909765243530273 23.532798767089844 14.140874862670898 23.67800521850586 13.087684631347656 23.87774085998535 C13.28797435760498 22.043975830078125 13.462671279907227 20.446109771728516 13.655172348022461 18.690792083740234 C13.177258491516113 18.898313522338867 12.865139961242676 19.052982330322266 12.539669036865234 19.17259979248047 C9.559802055358887 20.269187927246094 7.586391925811768 19.210988998413086 7.11515474319458 16.12763786315918 C6.6572699546813965 13.131081581115723 7.101802349090576 10.220759391784668 8.581720352172852 7.553566932678223 C10.511735916137695 4.076314449310303 13.649052619934082 3.7502870559692383 16.306228637695312 6.586056232452393 C16.905986785888672 6.054732322692871 17.504629135131836 5.525077819824219 18.102718353271484 4.995421409606934"></path>
<path fill="none" stroke="black" stroke-width=".3" stroke-opacity="1.0"  filling="0" d="M13.698568344116211 6.9999895095825195 C14.293317794799805 7.137967109680176 15.081680297851562 8.347495079040527 15.027156829833984 9.023472785949707 C14.852459907531738 11.191610336303711 14.421836853027344 13.35473918914795 13.8994140625 15.472803115844727 C13.602317810058594 16.679548263549805 12.79170036315918 17.71994400024414 11.308443069458008 17.370548248291016 C9.921993255615234 17.043964385986328 10.00822925567627 15.767674446105957 9.918655395507812 14.676095008850098 C9.888611793518066 14.310565948486328 9.913647651672363 13.94058609008789 9.913647651672363 13.572832107543945 C9.808496475219727 13.534998893737793 9.703900337219238 13.497167587280273 9.59930419921875 13.459333419799805 C10.202398300170898 11.657838821411133 10.660284042358398 9.78624153137207 11.484808921813965 8.092124938964844 C11.787469863891602 7.470670223236084 13.05207633972168 6.849771976470947 13.698568344116211 6.9999895095825195"></path></svg>