<svg xmlns="http://www.w3.org/2000/svg" viewBox="0.0 0.0 24.0 24.0" height="200px" width="200px"><path fill="none" stroke="black" stroke-width=".3" stroke-opacity="1.0"  filling="0" d="M10.927214622497559 7.028257846832275 L10.927214622497559 7.028257846832275 C11.534790992736816 7.028257846832275 12.14236831665039 7.028257846832275 12.749944686889648 7.028257846832275 L12.749944686889648 7.028257846832275 C12.76653003692627 7.279214382171631 12.91826057434082 9.57706069946289 12.932778358459473 9.797107696533203 L12.932778358459473 9.797107696533203 C13.624470710754395 9.854413032531738 14.316162109375 9.911734580993652 15.007851600646973 9.969070434570312 L15.007851600646973 9.969070434570312 C15.007851600646973 10.369545936584473 15.007851600646973 10.77002239227295 15.007851600646973 11.17049789428711 L15.007851600646973 11.17049789428711 C14.314077377319336 11.243881225585938 13.620299339294434 11.317230224609375 12.926519393920898 11.390556335449219 L12.926519393920898 11.390556335449219 C12.837295532226562 13.14114761352539 12.831894874572754 14.590113639831543 13.183144569396973 16.313213348388672 L13.183144569396973 16.313213348388672 C13.743878364562988 15.721708297729492 14.061348915100098 14.895145416259766 14.208656311035156 14.093522071838379 L14.208656311035156 14.093522071838379 C14.560338020324707 13.947080612182617 14.965673446655273 13.947502136230469 15.345515251159668 13.976573944091797 L15.345515251159668 13.976573944091797 C15.448657035827637 15.106626510620117 15.814736366271973 16.117542266845703 14.836217880249023 17.06134796142578 C13.712151527404785 18.145538330078125 11.213876724243164 18.132898330688477 10.190528869628906 16.877567291259766 C8.994523048400879 15.410438537597656 10.363906860351562 13.349122047424316 9.640176773071289 11.873827934265137 C9.317520141601562 11.216105461120605 8.642152786254883 10.717863082885742 8.489439964294434 10.001354217529297 L8.489439964294434 10.001354217529297 C10.21962833404541 9.278388023376465 10.44056510925293 8.814568519592285 10.927214622497559 7.028257846832275 L10.927214622497559 7.028257846832275"></path></svg>