<svg xmlns="http://www.w3.org/2000/svg" viewBox="0.0 0.0 24.0 24.0" height="200px" width="200px"><path fill="none" stroke="black" stroke-width=".3" stroke-opacity="1.0"  filling="0" d="M13.140501022338867 8.661774635314941 C15.42150592803955 8.661774635314941 17.703088760375977 8.661774635314941 20.33919906616211 8.661774635314941 C20.33919906616211 11.330272674560547 20.33515167236328 13.898716926574707 20.34093475341797 16.466581344604492 C20.343826293945312 17.69499397277832 20.1026554107666 18.9575252532959 21.70757293701172 19.605854034423828 C22.106632232666016 19.767213821411133 22.133235931396484 20.84930419921875 22.450172424316406 21.904212951660156 C19.498859405517578 21.564720153808594 16.87142562866211 22.524776458740234 13.97852897644043 20.885162353515625 C13.626893043518066 21.069656372070312 12.75358772277832 21.645111083984375 11.79931354522705 22.00542449951172 C8.000144004821777 23.440303802490234 5.280172824859619 21.63007354736328 5.156985282897949 17.630218505859375 C5.124019622802734 16.571264266967773 5.154093265533447 15.509994506835938 5.132115840911865 14.450460433959961 C5.102620601654053 13.03986930847168 5.424181938171387 11.53385066986084 3.645761489868164 10.731103897094727 C3.3218860626220703 10.584782600402832 3.3964929580688477 9.555322647094727 3.250171661376953 8.724815368652344 C5.749213695526123 8.724815368652344 8.009976387023926 8.724815368652344 10.683679580688477 8.724815368652344 C10.683679580688477 10.659967422485352 10.673847198486328 12.545961380004883 10.687726974487305 14.431953430175781 C10.695245742797852 15.4909086227417 10.64840030670166 16.562009811401367 10.795878410339355 17.603612899780273 C10.936996459960938 18.60126304626465 11.473703384399414 19.668893814086914 12.626928329467773 19.345600128173828 C13.380516052246094 19.134502410888672 14.355611801147461 18.24673843383789 14.475908279418945 17.5347900390625 C14.75987720489502 15.847749710083008 14.637845993041992 14.08378791809082 14.575384140014648 12.353948593139648 C14.561503410339355 11.966455459594727 14.126585006713867 11.591107368469238 13.877317428588867 11.215181350708008 C13.42794132232666 10.536200523376465 12.972203254699707 9.861268997192383 12.519357681274414 9.185179710388184 C12.726984024047852 9.011096954345703 12.933452606201172 8.836435317993164 13.140501022338867 8.661774635314941"></path></svg>