<svg xmlns="http://www.w3.org/2000/svg" viewBox="0.0 0.0 24.0 24.0" height="200px" width="200px"><path fill="none" stroke="black" stroke-width=".3" stroke-opacity="1.0"  filling="0" d="M6.9765095710754395 9.254602432250977 L6.9765095710754395 9.254602432250977 C7.574839115142822 9.254602432250977 8.173168182373047 9.254602432250977 8.77149772644043 9.254602432250977 L8.77149772644043 9.254602432250977 C8.930144309997559 11.1371488571167 9.088763236999512 13.019698143005371 9.247368812561035 14.902246475219727 L9.247368812561035 14.902246475219727 C9.338228225708008 14.920646667480469 9.429088592529297 14.939046859741211 9.51994800567627 14.957447052001953 L9.51994800567627 14.957447052001953 C10.199468612670898 13.06651496887207 10.879069328308105 11.17561149597168 11.558581352233887 9.284677505493164 L11.558581352233887 9.284677505493164 C12.145236015319824 9.284677505493164 12.731889724731445 9.284677505493164 13.318544387817383 9.284677505493164 L13.318544387817383 9.284677505493164 C13.466246604919434 11.157453536987305 13.613954544067383 13.030233383178711 13.761675834655762 14.903007507324219 L13.761675834655762 14.903007507324219 C13.866747856140137 14.918743133544922 13.971820831298828 14.934477806091309 14.076892852783203 14.950213432312012 L14.076892852783203 14.950213432312012 C14.78332233428955 13.065374374389648 15.489763259887695 11.180540084838867 16.19623565673828 9.2957181930542 L16.19623565673828 9.2957181930542 C16.722993850708008 9.2957181930542 17.2497501373291 9.2957181930542 17.776508331298828 9.2957181930542 L17.776508331298828 9.2957181930542 C16.856149673461914 11.58464527130127 15.924700736999512 13.86933708190918 15.021588325500488 16.16515350341797 C14.356081008911133 17.856950759887695 14.3533353805542 18.75374412536621 12.468828201293945 18.533716201782227 L12.468828201293945 18.533716201782227 C12.303377151489258 16.633285522460938 12.137998580932617 14.7328462600708 11.972779273986816 12.832395553588867 L11.972779273986816 12.832395553588867 C11.860600471496582 12.821481704711914 11.748421669006348 12.810568809509277 11.636242866516113 12.799654960632324 L11.636242866516113 12.799654960632324 C10.936717987060547 14.744490623474121 10.23732852935791 16.689369201660156 9.537839889526367 18.634220123291016 L9.537839889526367 18.634220123291016 C9.009051322937012 18.634220123291016 8.480262756347656 18.634220123291016 7.951474189758301 18.634220123291016 L7.951474189758301 18.634220123291016 C7.788839340209961 17.070964813232422 7.626276969909668 15.507702827453613 7.4637837409973145 13.944433212280273 C7.301290988922119 12.381163597106934 7.138867378234863 10.817886352539062 6.9765095710754395 9.254602432250977 L6.9765095710754395 9.254602432250977"></path></svg>