<svg xmlns="http://www.w3.org/2000/svg" viewBox="0.0 0.0 24.0 24.0" height="200px" width="200px"><path fill="none" stroke="black" stroke-width=".3" stroke-opacity="1.0"  filling="0" d="M9.277195930480957 7.2607574462890625 L9.277195930480957 7.2607574462890625 C10.351974487304688 7.2531657218933105 12.14311408996582 7.127068042755127 13.534710884094238 7.485429286956787 C14.926307678222656 7.8437910079956055 15.918359756469727 8.68661117553711 15.394963264465332 10.61685562133789 C15.247857093811035 11.159370422363281 14.746628761291504 11.68460464477539 14.33341121673584 12.127999305725098 L14.33341121673584 12.127999305725098 C14.633727073669434 12.552488327026367 15.66486930847168 13.897751808166504 15.77981948852539 14.478412628173828 C16.174320220947266 16.47119903564453 15.161434173583984 17.36454200744629 13.743537902832031 17.754680633544922 C12.325641632080078 18.144817352294922 10.502735137939453 18.031749725341797 9.277195930480957 18.011714935302734 L9.277195930480957 18.011714935302734 C9.277195930480957 16.219886779785156 9.277195930480957 14.428061485290527 9.277195930480957 12.636236190795898 C9.277195930480957 10.844409942626953 9.277195930480957 9.052583694458008 9.277195930480957 7.2607574462890625 L9.277195930480957 7.2607574462890625"></path>
<path fill="none" stroke="black" stroke-width=".3" stroke-opacity="1.0"  filling="0" d="M10.629443168640137 8.488438606262207 L10.629443168640137 8.488438606262207 C11.858983993530273 8.342924118041992 12.650081634521484 7.942147731781006 13.663172721862793 8.965453147888184 C14.781111717224121 10.0946626663208 13.480969429016113 11.567414283752441 12.390047073364258 11.84204387664795 C11.820921897888184 11.985316276550293 11.21631145477295 11.833897590637207 10.629444122314453 11.829824447631836 L10.629444122314453 11.829824447631836 C10.629444122314453 10.716029167175293 10.629444122314453 9.60223388671875 10.629443168640137 8.488438606262207 L10.629443168640137 8.488438606262207"></path>
<path fill="none" stroke="black" stroke-width=".3" stroke-opacity="1.0"  filling="0" d="M10.648078918457031 12.950267791748047 L10.648078918457031 12.950267791748047 C12.2261323928833 12.942728042602539 12.934090614318848 12.60614013671875 14.144110679626465 13.874870300292969 C15.367667198181152 15.157793045043945 13.717538833618164 16.64528465270996 12.580451011657715 16.933856964111328 C11.95606517791748 17.092313766479492 11.292202949523926 16.91701889038086 10.648078918457031 16.908599853515625 L10.648078918457031 16.908599853515625 C10.648078918457031 15.589156150817871 10.648078918457031 14.2697114944458 10.648078918457031 12.950267791748047 L10.648078918457031 12.950267791748047"></path></svg>