<svg xmlns="http://www.w3.org/2000/svg" viewBox="0.0 0.0 24.0 24.0" height="200px" width="200px"><path fill="none" stroke="black" stroke-width=".3" stroke-opacity="1.0"  filling="0" d="M5.779226779937744 4.610143184661865 C9.843478202819824 4.610143184661865 13.785024642944336 4.4792256355285645 17.713043212890625 4.653138637542725 C20.63188362121582 4.782124042510986 21.704830169677734 6.69130277633667 20.88888931274414 9.531882286071777 C20.163284301757812 12.056520462036133 18.424636840820312 13.386954307556152 15.664251327514648 13.948307991027832 C16.74686050415039 16.14202880859375 17.754589080810547 18.18309211730957 18.852657318115234 20.407245635986328 C16.34782600402832 20.407245635986328 14.125603675842285 20.407245635986328 11.771980285644531 20.407245635986328 C11.123188018798828 18.938161849975586 10.45893669128418 17.435264587402344 9.560869216918945 15.402414321899414 C9.095169067382812 17.376327514648438 8.76038646697998 18.795650482177734 8.393719673156738 20.350242614746094 C6.279710292816162 20.350242614746094 4.2236714363098145 20.350242614746094 1.9536218643188477 20.350242614746094 C3.2323665618896484 15.089371681213379 4.494686126708984 9.893718719482422 5.779226779937744 4.610143184661865"></path>
<path fill="none" stroke="black" stroke-width=".3" stroke-opacity="1.0"  filling="0" d="M12.569082260131836 8.925121307373047 C13.386473655700684 8.911111831665039 14.456038475036621 8.923189163208008 14.348309516906738 9.984540939331055 C14.275845527648926 10.699033737182617 13.578744888305664 11.506763458251953 12.938647270202637 11.957488059997559 C12.427053451538086 12.318357467651367 11.580193519592285 12.203865051269531 10.40096664428711 12.366666793823242 C10.70676326751709 11.022705078125 10.916908264160156 10.100000381469727 11.148309707641602 9.081644058227539 C11.642512321472168 9.024638175964355 12.104829788208008 8.933334350585938 12.569082260131836 8.925121307373047"></path></svg>