<svg xmlns="http://www.w3.org/2000/svg" viewBox="0.0 0.0 24.0 24.0" height="200px" width="200px"><path fill="none" stroke="black" stroke-width=".3" stroke-opacity="1.0"  filling="0" d="M10.023555755615234 7.06306266784668 L10.023555755615234 7.06306266784668 C11.939237594604492 7.06306266784668 13.854920387268066 7.06306266784668 15.770602226257324 7.06306266784668 L15.770602226257324 7.06306266784668 C14.759736061096191 8.556014060974121 13.163743019104004 8.064041137695312 11.413410186767578 8.027247428894043 L11.413410186767578 8.027247428894043 C11.413410186767578 9.233479499816895 11.413410186767578 10.43971061706543 11.413410186767578 11.645942687988281 L11.413410186767578 11.645942687988281 C11.4163818359375 11.645942687988281 14.927043914794922 11.645942687988281 14.950645446777344 11.645942687988281 L14.950645446777344 11.645942687988281 C14.227685928344727 13.19499683380127 12.966323852539062 12.722543716430664 11.363999366760254 12.699602127075195 L11.363999366760254 12.699602127075195 C11.363999366760254 14.420865058898926 11.363999366760254 16.142133712768555 11.363999366760254 17.86339569091797 L11.363999366760254 17.86339569091797 C10.917184829711914 17.863285064697266 10.470370292663574 17.863174438476562 10.023555755615234 17.86306381225586 L10.023555755615234 17.86306381225586 C10.023555755615234 16.063064575195312 10.023555755615234 14.263063430786133 10.023555755615234 12.46306324005127 C10.023555755615234 10.663063049316406 10.023555755615234 8.863062858581543 10.023555755615234 7.06306266784668 L10.023555755615234 7.06306266784668"></path></svg>