<svg xmlns="http://www.w3.org/2000/svg" viewBox="0.0 0.0 24.0 24.0" height="200px" width="200px"><path fill="none" stroke="black" stroke-width=".3" stroke-opacity="1.0"  filling="0" d="M13.470667839050293 5.934606075286865 C15.962839126586914 5.934606075286865 18.373306274414062 5.934606075286865 20.951244354248047 5.934606075286865 C20.858566284179688 6.4691362380981445 20.76426124572754 7.016267776489258 20.6695499420166 7.563398838043213 C20.580528259277344 7.47234582901001 20.491914749145508 7.380886554718018 20.402894973754883 7.289833068847656 C18.49321937561035 8.486936569213867 16.583545684814453 9.684041023254395 14.603139877319336 10.925857543945312 C15.477493286132812 12.815614700317383 16.155920028686523 14.506600379943848 17.038402557373047 16.083768844604492 C17.41521644592285 16.7573184967041 18.218029022216797 17.19266700744629 19.019214630126953 17.906864166259766 C18.997669219970703 18.061735153198242 18.93466567993164 18.512121200561523 18.85458755493164 19.084861755371094 C16.114459991455078 19.084861755371094 13.437743186950684 19.084861755371094 10.759401321411133 19.084861755371094 C10.745986938476562 17.58370590209961 10.745986938476562 17.58370590209961 12.628833770751953 16.923572540283203 C12.159341812133789 15.832155227661133 11.695133209228516 14.753337860107422 11.199219703674316 13.600541114807129 C9.738712310791016 14.359453201293945 8.204630851745605 14.910242080688477 8.573314666748047 17.009746551513672 C8.906634330749512 17.176000595092773 9.254993438720703 17.350383758544922 9.698063850402832 17.57151222229004 C9.577743530273438 18.08327865600586 9.458642959594727 18.58772850036621 9.328160285949707 19.1425838470459 C6.81973123550415 19.142990112304688 4.401541233062744 19.142990112304688 1.751246452331543 19.142990112304688 C1.870347023010254 18.50074005126953 1.9553031921386719 18.04262924194336 2.05367374420166 17.510540008544922 C2.6451120376586914 17.35160255432129 3.212160110473633 17.199169158935547 3.9210739135742188 17.008527755737305 C4.545437335968018 14.115155220031738 5.1689887046813965 11.225439071655273 5.8173346519470215 8.221095085144043 C5.294998645782471 7.94874906539917 4.8588385581970215 7.721522808074951 4.360485553741455 7.461777210235596 C4.406012058258057 7.003260135650635 4.451539516448975 6.541897773742676 4.510886192321777 5.943955421447754 C6.881924152374268 5.943955421447754 9.2212553024292 5.943955421447754 11.815454483032227 5.943955421447754 C11.68659782409668 6.490273475646973 11.714239120483398 7.364626884460449 11.410593032836914 7.500800132751465 C9.461894989013672 8.374746322631836 10.05211353302002 10.197840690612793 9.83586311340332 11.87053394317627 C11.507743835449219 10.702290534973145 13.1796236038208 9.53364086151123 15.153116226196289 8.154430389404297 C14.379571914672852 7.898344039916992 13.92918586730957 7.749569892883301 13.356039047241211 7.5597405433654785 C13.389777183532715 7.081305027008057 13.42554759979248 6.571164131164551 13.470667839050293 5.934606075286865"></path></svg>