<svg xmlns="http://www.w3.org/2000/svg" viewBox="0.0 0.0 24.0 24.0" height="200px" width="200px"><path fill="none" stroke="black" stroke-width=".3" stroke-opacity="1.0"  filling="0" d="M15.165678024291992 7.742144584655762 L15.165678024291992 7.742144584655762 C15.669795036315918 8.006963729858398 16.250606536865234 8.160341262817383 16.678030014038086 8.536602973937988 C18.539819717407227 10.175542831420898 17.682676315307617 13.303031921386719 16.2965030670166 14.924524307250977 C14.686302185058594 16.808074951171875 11.791805267333984 17.493825912475586 9.449666976928711 16.79364585876465 C7.9988579750061035 16.359928131103516 7.240049362182617 15.318769454956055 7.015470504760742 14.103028297424316 C6.790891647338867 12.887287139892578 7.100542068481445 11.49696159362793 7.786651134490967 10.364907264709473 C8.591955184936523 9.036184310913086 9.74224853515625 8.271130561828613 11.038446426391602 7.89293909072876 C12.33464527130127 7.514747619628906 13.776750564575195 7.523417949676514 15.165678024291992 7.742144584655762 L15.165678024291992 7.742144584655762"></path>
<path fill="none" stroke="black" stroke-width=".3" stroke-opacity="1.0"  filling="0" d="M13.515669822692871 8.977397918701172 L13.515669822692871 8.977397918701172 C14.897077560424805 10.424199104309082 14.367385864257812 12.405295372009277 13.485907554626465 14.110633850097656 C13.112865447998047 14.832334518432617 12.164122581481934 16.099035263061523 11.045129776000977 15.540056228637695 C10.061400413513184 15.048645973205566 10.50312614440918 13.565171241760254 10.629539489746094 12.90132999420166 C11.006052017211914 10.924134254455566 11.132567405700684 9.007061958312988 13.515669822692871 8.977397918701172 L13.515669822692871 8.977397918701172"></path></svg>