<svg xmlns="http://www.w3.org/2000/svg" viewBox="0.0 0.0 24.0 24.0" height="200px" width="200px"><path fill="none" stroke="black" stroke-width=".3" stroke-opacity="1.0"  filling="0" d="M8.142952919006348 7.060786724090576 L8.142952919006348 7.060786724090576 C10.421340942382812 7.060786724090576 12.699732780456543 7.060786724090576 14.978120803833008 7.060786724090576 L14.978120803833008 7.060786724090576 C14.226849555969238 7.701016426086426 13.267339706420898 8.147310256958008 12.29403018951416 8.311541557312012 L12.29403018951416 8.311541557312012 C12.294170379638672 9.903026580810547 12.2942533493042 11.494512557983398 12.29430103302002 13.085997581481934 C12.29434871673584 14.677482604980469 12.294361114501953 16.26896858215332 12.294363975524902 17.86045265197754 L12.294363975524902 17.86045265197754 C11.83168888092041 17.86045265197754 11.369014739990234 17.86045265197754 10.906339645385742 17.86045265197754 L10.906339645385742 17.86045265197754 C10.906339645385742 16.290180206298828 10.906339645385742 14.7199068069458 10.906339645385742 13.14963436126709 C10.906339645385742 11.579360961914062 10.906339645385742 10.009088516235352 10.906339645385742 8.43881607055664 L10.906339645385742 8.43881607055664 C9.906614303588867 8.193817138671875 8.941173553466797 7.710647106170654 8.142952919006348 7.060786724090576 L8.142952919006348 7.060786724090576"></path></svg>