<svg xmlns="http://www.w3.org/2000/svg" viewBox="0.0 0.0 24.0 24.0" height="200px" width="200px"><path fill="none" stroke="black" stroke-width=".3" stroke-opacity="1.0"  filling="0" d="M17.494821548461914 3.3279809951782227 C16.400920867919922 5.520436763763428 15.389691352844238 7.759466171264648 14.182268142700195 9.887301445007324 C13.42660903930664 11.219308853149414 13.446403503417969 12.299818992614746 14.168294906616211 13.650455474853516 C15.576566696166992 16.283615112304688 16.782825469970703 19.02447509765625 18.129968643188477 21.841018676757812 C16.268768310546875 22.65081787109375 15.361745834350586 21.990055084228516 14.72834300994873 20.37511444091797 C13.955221176147461 18.403881072998047 13.02665901184082 16.493196487426758 12.006695747375488 14.200023651123047 C10.348089218139648 17.093997955322266 8.944475173950195 19.606063842773438 7.443056583404541 22.058168411254883 C7.303335189819336 22.286964416503906 6.546513080596924 22.13792610168457 5.612710475921631 22.190322875976562 C7.011667728424072 19.36562728881836 8.159708976745605 16.769725799560547 9.561576843261719 14.31878662109375 C10.43949031829834 12.783601760864258 10.381855964660645 11.499332427978516 9.59068489074707 10.004318237304688 C8.461273193359375 7.87240743637085 7.476822376251221 5.663650989532471 6.396895408630371 3.41879940032959 C8.014166831970215 2.550199508666992 8.906052589416504 3.038641929626465 9.519659996032715 4.564511775970459 C10.197307586669922 6.249314308166504 11.005942344665527 7.881722450256348 11.769169807434082 9.561868667602539 C14.19041919708252 7.825833797454834 13.572153091430664 3.7343358993530273 17.494821548461914 3.3279809951782227"></path></svg>