<svg xmlns="http://www.w3.org/2000/svg" viewBox="0.0 0.0 24.0 24.0" height="200px" width="200px"><path fill="none" stroke="black" stroke-width=".3" stroke-opacity="1.0"  filling="0" d="M14.546333312988281 4.181259632110596 C16.961116790771484 4.181259632110596 19.44623374938965 4.181259632110596 22.047008514404297 4.181259632110596 C21.86414337158203 4.95596981048584 21.70836639404297 5.617105007171631 21.575515747070312 6.18081521987915 C17.92234230041504 7.6072821617126465 16.260908126831055 10.94786262512207 14.022741317749023 13.618451118469238 C13.053180694580078 14.775568008422852 12.873960494995117 16.594860076904297 12.299309730529785 18.216699600219727 C13.201662063598633 18.595455169677734 13.809135437011719 18.85074234008789 14.48537826538086 19.134679794311523 C14.41452407836914 19.7661190032959 14.34887981414795 20.352752685546875 14.266042709350586 21.093597412109375 C10.859294891357422 21.094642639160156 7.508815765380859 21.094642639160156 4.051012992858887 21.094642639160156 C3.423222541809082 18.811145782470703 5.073714256286621 18.773635864257812 6.32200288772583 18.53971290588379 C8.046476364135742 14.424942970275879 6.322523593902588 8.210066795349121 2.9110898971557617 6.237082004547119 C2.891813278198242 5.976067066192627 2.826169013977051 5.640549659729004 2.8548221588134766 5.313889980316162 C2.8839988708496094 4.982019901275635 3.0059099197387695 4.657965183258057 3.117921829223633 4.205746173858643 C6.414218425750732 4.205746173858643 9.677692413330078 4.205746173858643 12.931788444519043 4.205746173858643 C13.283976554870605 5.903128147125244 12.381103515625 6.626260757446289 10.61286735534668 6.878940582275391 C11.129688262939453 8.237157821655273 11.573570251464844 9.404172897338867 12.20032024383545 11.051539421081543 C13.440794944763184 9.579745292663574 14.445261001586914 8.387723922729492 15.665937423706055 6.939374923706055 C13.573125839233398 6.543423175811768 13.741405487060547 5.503008842468262 14.546333312988281 4.181259632110596"></path></svg>