<svg xmlns="http://www.w3.org/2000/svg" viewBox="0.0 0.0 24.0 24.0" height="200px" width="200px"><path fill="none" stroke="black" stroke-width=".3" stroke-opacity="1.0"  filling="0" d="M13.233434677124023 8.64979362487793 L13.233434677124023 8.64979362487793 C15.164154052734375 9.376590728759766 15.301724433898926 9.925870895385742 15.74428939819336 11.939218521118164 L15.74428939819336 11.939218521118164 C15.262299537658691 11.761537551879883 14.692100524902344 11.736055374145508 14.298318862915039 11.40617561340332 C13.701444625854492 10.906160354614258 13.315229415893555 9.78622055053711 12.540840148925781 9.867431640625 C11.280492782592773 9.999605178833008 11.083332061767578 10.761698722839355 10.9069242477417 11.807657241821289 C10.622160911560059 13.496081352233887 10.130605697631836 17.987327575683594 12.707590103149414 18.1453800201416 C13.429797172546387 18.189674377441406 13.773526191711426 17.166584014892578 14.301117897033691 16.671415328979492 C14.688115119934082 16.30820083618164 15.24537181854248 16.186492919921875 15.717498779296875 15.944031715393066 L15.717498779296875 15.944031715393066 C15.523412704467773 17.191389083862305 14.852188110351562 18.453231811523438 13.904720306396484 19.101160049438477 C12.957252502441406 19.749088287353516 11.733543395996094 19.783103942871094 10.434486389160156 18.57480812072754 C9.406533241271973 17.618675231933594 8.90353012084961 15.85651969909668 8.899276733398438 14.08670425415039 C8.895023345947266 12.316888809204102 9.389520645141602 10.539411544799805 10.356568336486816 9.552637100219727 C11.353771209716797 8.5350923538208 11.934852600097656 8.73766803741455 13.233434677124023 8.64979362487793 L13.233434677124023 8.64979362487793"></path></svg>