<svg xmlns="http://www.w3.org/2000/svg" viewBox="0.0 0.0 24.0 24.0" height="200px" width="200px"><path fill="none" stroke="black" stroke-width=".3" stroke-opacity="1.0"  filling="0" d="M10.860836029052734 6.981258392333984 L10.860836029052734 6.981258392333984 C10.860836029052734 9.06731128692627 10.860836029052734 11.153365135192871 10.860836029052734 13.23941707611084 L10.860836029052734 13.23941707611084 C12.328511238098145 11.712699890136719 12.906914710998535 10.599199295043945 14.886430740356445 9.760028839111328 L14.886430740356445 9.760028839111328 C14.63815975189209 10.114805221557617 13.274006843566895 11.964568138122559 13.216041564941406 12.443442344665527 C13.035768508911133 13.93273639678955 14.68830680847168 16.269752502441406 15.242666244506836 17.577457427978516 L15.242666244506836 17.577457427978516 C13.219599723815918 17.85260772705078 12.94543743133545 15.203681945800781 12.251867294311523 13.623309135437012 L12.251867294311523 13.623309135437012 C11.033902168273926 14.990656852722168 11.022244453430176 15.830747604370117 10.71761703491211 17.71343421936035 L10.71761703491211 17.71343421936035 C10.386404037475586 17.713653564453125 10.055190086364746 17.7138729095459 9.723977088928223 17.714092254638672 L9.723977088928223 17.714092254638672 C9.723977088928223 15.93598747253418 9.723977088928223 14.157881736755371 9.723977088928223 12.379776000976562 C9.723977088928223 10.601670265197754 9.723977088928223 8.823564529418945 9.723977088928223 7.045459747314453 L9.723977088928223 7.045459747314453 C10.102930068969727 7.024059295654297 10.48188304901123 7.002658843994141 10.860836029052734 6.981258392333984 L10.860836029052734 6.981258392333984"></path></svg>