<svg xmlns="http://www.w3.org/2000/svg" viewBox="0.0 0.0 24.0 24.0" height="200px" width="200px"><path fill="none" stroke="black" stroke-width=".3" stroke-opacity="1.0"  filling="0" d="M10.000643730163574 7.003679275512695 L10.000643730163574 7.003679275512695 C11.421855926513672 7.003679275512695 12.843070030212402 7.003679275512695 14.264281272888184 7.003679275512695 L14.264281272888184 7.003679275512695 C13.880450248718262 8.879063606262207 13.513507843017578 10.759278297424316 13.107552528381348 12.630024909973145 C12.890542030334473 13.630064010620117 12.291054725646973 14.629033088684082 12.47901725769043 15.634937286376953 C12.615697860717773 16.366397857666016 13.039762496948242 17.05984115600586 13.009530067443848 17.803348541259766 L13.009530067443848 17.803348541259766 C11.163224220275879 17.803348541259766 9.316915512084961 17.803348541259766 7.470609664916992 17.803348541259766 L7.470609664916992 17.803348541259766 C7.900051593780518 17.083335876464844 8.60396671295166 16.560523986816406 9.078621864318848 15.86948013305664 C9.592257499694824 15.121685028076172 9.523271560668945 14.11005687713623 9.716315269470215 13.223628997802734 C10.13431167602539 11.304247856140137 11.14796257019043 9.515572547912598 9.70458984375 7.990194320678711 L9.70458984375 7.990194320678711 C9.803274154663086 7.661355972290039 9.901959419250488 7.332517623901367 10.000643730163574 7.003679275512695 L10.000643730163574 7.003679275512695"></path></svg>