<svg xmlns="http://www.w3.org/2000/svg" viewBox="0.0 0.0 24.0 24.0" height="200px" width="200px"><path fill="none" stroke="black" stroke-width=".3" stroke-opacity="1.0"  filling="0" d="M15.767130851745605 8.815252304077148 C18.43050193786621 8.742948532104492 19.45066261291504 10.187891006469727 18.999893188476562 12.842788696289062 C18.65475845336914 14.875198364257812 18.19947052001953 16.888965606689453 17.76451873779297 19.054121017456055 C18.54799461364746 19.830820083618164 20.082752227783203 20.513751983642578 18.58188819885254 22.145099639892578 C16.004940032958984 22.144535064697266 13.305418014526367 22.144535064697266 10.248896598815918 22.144535064697266 C10.3799467086792 21.413028717041016 10.294651985168457 20.564590454101562 10.600811958312988 20.386089324951172 C13.173238754272461 18.886354446411133 12.672761917114258 16.174968719482422 13.220123291015625 13.909832000732422 C13.361906051635742 13.323494911193848 13.032020568847656 12.115797996520996 12.698182106018066 12.02711296081543 C12.01638126373291 11.846354484558105 11.023900985717773 12.011297225952148 10.447731971740723 12.430432319641113 C9.110679626464844 13.402576446533203 8.26224136352539 18.163883209228516 8.876822471618652 19.79353904724121 C9.138358116149902 20.48776626586914 9.177899360656738 21.266159057617188 9.349055290222168 22.166566848754883 C6.121942043304443 22.166566848754883 3.230362892150879 22.166566848754883 0.01624011993408203 22.166566848754883 C0.39357566833496094 21.307960510253906 0.593541145324707 20.153926849365234 0.9799127578735352 20.088401794433594 C3.2185001373291016 19.705982208251953 2.9106454849243164 17.81705093383789 3.3868322372436523 16.40543556213379 C3.595269203186035 15.786901473999023 3.6291627883911133 15.111879348754883 3.7991886138916016 14.477527618408203 C4.182737827301025 13.047272682189941 4.622772216796875 11.618711471557617 2.4124279022216797 11.326107025146484 C2.6971216201782227 10.499700546264648 2.878446578979492 9.974934577941895 3.1173877716064453 9.283530235290527 C5.607908248901367 9.401023864746094 8.128366470336914 8.971720695495605 10.407060623168945 10.018994331359863 C12.193185806274414 9.593645095825195 13.97083854675293 8.86383056640625 15.767130851745605 8.815252304077148"></path></svg>