<svg xmlns="http://www.w3.org/2000/svg" viewBox="0.0 0.0 24.0 24.0" height="200px" width="200px"><path fill="none" stroke="black" stroke-width=".3" stroke-opacity="1.0"  filling="0" d="M16.599966049194336 4.838510036468506 C16.82149887084961 5.783432960510254 17.0375919342041 6.28311014175415 17.040313720703125 6.783875465393066 C17.065351486206055 11.940126419067383 17.055009841918945 17.096378326416016 17.056644439697266 22.252084732055664 C17.057186126708984 23.31185531616211 17.055009841918945 24.359657287597656 15.134683609008789 23.94597816467285 C15.134683609008789 22.065383911132812 15.134683609008789 20.27188491821289 15.134683609008789 18.126211166381836 C14.395509719848633 18.630786895751953 13.954618453979492 18.994386672973633 13.460928916931152 19.25783348083496 C11.498146057128906 20.304542541503906 9.48637580871582 19.801599502563477 8.225752830505371 17.982513427734375 C6.368021488189697 15.301241874694824 6.532402992248535 9.468957901000977 8.538186073303223 6.891104221343994 C10.35672664642334 4.554379940032959 12.505119323730469 4.57724142074585 15.244633674621582 6.99887752532959 C15.618574142456055 6.402313709259033 15.993060111999512 5.805205345153809 16.599966049194336 4.838510036468506"></path>
<path fill="none" stroke="black" stroke-width=".3" stroke-opacity="1.0"  filling="0" d="M12.063684463500977 6.954244613647461 C12.828984260559082 6.94009256362915 13.967137336730957 7.749481678009033 14.308963775634766 8.489744186401367 C14.893552780151367 9.755265235900879 14.984453201293945 11.249397277832031 15.308862686157227 12.769655227661133 C14.95832633972168 14.044973373413086 14.808095932006836 15.443852424621582 14.17778491973877 16.574928283691406 C13.777173042297363 17.293962478637695 12.672767639160156 17.98088264465332 11.86609935760498 18.00210952758789 C11.206396102905273 18.019527435302734 10.203231811523438 17.16604995727539 9.902772903442383 16.46334457397461 C8.798911094665527 13.881136894226074 8.750467300415039 11.14924430847168 9.863581657409668 8.568668365478516 C10.189079284667969 7.8142547607421875 11.298383712768555 6.9689412117004395 12.063684463500977 6.954244613647461"></path></svg>