<svg xmlns="http://www.w3.org/2000/svg" viewBox="0.0 0.0 24.0 24.0" height="200px" width="200px"><path fill="none" stroke="black" stroke-width=".3" stroke-opacity="1.0"  filling="0" d="M20.91009521484375 5.686192035675049 C20.610544204711914 6.6136345863342285 20.499805450439453 7.721028804779053 20.195825576782227 7.776952743530273 C18.18202781677246 8.146821975708008 18.262868881225586 9.804038047790527 17.950029373168945 11.165578842163086 C17.31106185913086 13.943476676940918 16.764562606811523 16.742416381835938 16.202560424804688 19.537479400634766 C15.992156982421875 20.582305908203125 15.476110458374023 21.671981811523438 16.96112632751465 22.3829288482666 C17.252925872802734 22.5224609375 17.089584350585938 23.612689971923828 17.14716911315918 24.41610336303711 C13.919668197631836 24.41610336303711 11.01884937286377 24.41610336303711 7.891568183898926 24.41610336303711 C8.438067436218262 21.86577796936035 11.992249488830566 20.829254150390625 10.785743713378906 17.739070892333984 C10.042681694030762 18.06852149963379 9.253664016723633 18.514801025390625 8.408167839050293 18.775039672851562 C5.4403510093688965 19.689193725585938 2.9071874618530273 18.04471206665039 2.788142204284668 14.957296371459961 C2.729450225830078 13.431307792663574 2.974184989929199 11.806760787963867 3.4730653762817383 10.361611366271973 C5.23492956161499 5.251539707183838 9.069281578063965 3.907716751098633 13.30229663848877 6.506771087646484 C15.744100570678711 5.114776611328125 18.18368911743164 5.9813127517700195 20.91009521484375 5.686192035675049"></path>
<path fill="none" stroke="black" stroke-width=".3" stroke-opacity="1.0"  filling="0" d="M11.53101921081543 8.025009155273438 C12.999423027038574 10.117429733276367 12.436867713928223 14.551990509033203 10.668912887573242 15.828816413879395 C9.719876289367676 16.514293670654297 8.859430313110352 16.267345428466797 8.531087875366211 15.214765548706055 C7.917038440704346 13.248587608337402 9.512792587280273 9.272488594055176 11.53101921081543 8.025009155273438"></path></svg>