<svg xmlns="http://www.w3.org/2000/svg" viewBox="0.0 0.0 24.0 24.0" height="200px" width="200px"><path fill="none" stroke="black" stroke-width=".3" stroke-opacity="1.0"  filling="0" d="M9.55079460144043 6.999798774719238 L9.55079460144043 6.999798774719238 C11.290935516357422 6.999798774719238 13.031078338623047 6.999798774719238 14.771220207214355 6.999798774719238 L14.771220207214355 6.999798774719238 C14.230484962463379 8.602203369140625 12.131453514099121 8.008027076721191 10.643598556518555 8.007137298583984 L10.643598556518555 8.007137298583984 C10.614474296569824 8.365765571594238 10.413969993591309 10.836413383483887 10.385281562805176 11.190159797668457 L10.385281562805176 11.190159797668457 C11.285359382629395 10.746286392211914 11.858528137207031 10.304662704467773 12.94796085357666 10.459583282470703 C15.827005386352539 10.86899185180664 16.026378631591797 13.600271224975586 15.016496658325195 15.662837028503418 C14.00661563873291 17.72540283203125 11.787479400634766 19.11925506591797 9.829503059387207 16.853809356689453 C9.463427543640137 16.430248260498047 9.298635482788086 15.867989540100098 9.033201217651367 15.375079154968262 L9.033201217651367 15.375079154968262 C9.320859909057617 15.219940185546875 9.608518600463867 15.064800262451172 9.896177291870117 14.909661293029785 L9.896177291870117 14.909661293029785 C10.250550270080566 15.381077766418457 10.496628761291504 15.958189010620117 10.959295272827148 16.323911666870117 C12.811691284179688 17.788169860839844 13.97962760925293 16.059158325195312 14.134300231933594 14.278576850891113 C14.288973808288574 12.497995376586914 13.430383682250977 10.665843963623047 11.229727745056152 11.923816680908203 C10.664154052734375 12.247118949890137 10.20838737487793 12.732802391052246 9.697717666625977 13.137295722961426 L9.697717666625977 13.137295722961426 C8.962672233581543 11.327080726623535 9.472862243652344 8.932433128356934 9.55079460144043 6.999798774719238 L9.55079460144043 6.999798774719238"></path></svg>