<svg xmlns="http://www.w3.org/2000/svg" viewBox="0.0 0.0 24.0 24.0" height="200px" width="200px"><path fill="none" stroke="black" stroke-width=".3" stroke-opacity="1.0"  filling="0" d="M6.0013298988342285 4.08251953125 C7.381521701812744 4.297841548919678 8.577061653137207 4.484371185302734 10.317792892456055 4.755402088165283 C11.801891326904297 3.5129165649414062 14.090943336486816 3.375210762023926 16.463245391845703 4.380465507507324 C17.95547866821289 5.012662410736084 19.339426040649414 5.432665824890137 20.8416748046875 4.318498134613037 C21.213481903076172 4.04308557510376 22.00466537475586 4.332894802093506 23.34104347229004 4.3992438316345215 C22.11545753479004 6.323374271392822 21.27419662475586 7.928277969360352 20.168167114257812 9.323492050170898 C17.652523040771484 12.497620582580566 14.829548835754395 15.452044486999512 13.555766105651855 19.4323787689209 C13.182706832885742 20.598499298095703 12.804640769958496 21.76274299621582 12.433460235595703 22.91321563720703 C10.330938339233398 22.914466857910156 8.381769180297852 22.914466857910156 6.3049092292785645 22.914466857910156 C7.024737358093262 16.262004852294922 11.858850479125977 13.252498626708984 16.252931594848633 9.794822692871094 C9.400794982910156 8.447805404663086 9.054025650024414 7.875072956085205 7.391536712646484 12.828741073608398 C6.582825660705566 12.866923332214355 5.692116737365723 12.909486770629883 4.586711883544922 12.96143913269043 C4.2349348068237305 9.85366153717041 5.4736647605896 7.20657205581665 6.0013298988342285 4.08251953125"></path></svg>