<svg xmlns="http://www.w3.org/2000/svg" viewBox="0.0 0.0 24.0 24.0" height="200px" width="200px"><path fill="none" stroke="black" stroke-width=".3" stroke-opacity="1.0"  filling="0" d="M18.210041046142578 5.0359039306640625 C19.263683319091797 5.902976989746094 20.100261688232422 7.405107498168945 20.397457122802734 8.756546020507812 C21.994667053222656 16.017837524414062 14.964195251464844 23.58649444580078 7.626957893371582 22.63092041015625 C6.753904819488525 22.517303466796875 5.844972610473633 22.292461395263672 5.069988250732422 21.891815185546875 C3.4691905975341797 21.06540298461914 2.9716691970825195 19.330657958984375 3.7610063552856445 17.835105895996094 C4.486357688903809 16.462139129638672 6.464481353759766 15.7086820602417 7.873326301574707 16.268991470336914 C9.110551834106445 16.76053237915039 9.224166870117188 17.467945098876953 8.440811157226562 19.78990936279297 C11.403214454650879 19.914287567138672 12.814451217651367 18.59454345703125 13.423794746398926 14.96838092803955 C12.226037979125977 15.160931587219238 11.089273452758789 15.447364807128906 9.94114875793457 15.508956909179688 C5.702653884887695 15.734992980957031 3.4835433959960938 12.57765007019043 5.056235313415527 8.632165908813477 C6.915360450744629 3.96671199798584 14.332128524780273 1.8444738388061523 18.210041046142578 5.0359039306640625"></path>
<path fill="none" stroke="black" stroke-width=".3" stroke-opacity="1.0"  filling="0" d="M12.780366897583008 6.372392654418945 C13.22107982635498 6.1924004554748535 14.320169448852539 6.552982807159424 14.477439880371094 6.9315056800842285 C15.124455451965332 8.487454414367676 14.850579261779785 10.103200912475586 13.768232345581055 11.372716903686523 C13.272504806518555 11.954553604125977 12.211088180541992 12.542966842651367 11.59337329864502 12.386894226074219 C11.027083396911621 12.243975639343262 10.712545394897461 11.10362434387207 10.46916675567627 10.70237922668457 C10.711946487426758 8.613031387329102 11.117977142333984 7.052896022796631 12.780366897583008 6.372392654418945"></path></svg>