<svg xmlns="http://www.w3.org/2000/svg" viewBox="0.0 0.0 24.0 24.0" height="200px" width="200px"><path fill="none" stroke="black" stroke-width=".3" stroke-opacity="1.0"  filling="0" d="M8.91616153717041 6.967342376708984 L8.91616153717041 6.967342376708984 C10.022574424743652 6.9574737548828125 12.05655574798584 6.796050548553467 13.618415832519531 7.171156883239746 C15.180276870727539 7.546263694763184 16.270017623901367 8.457900047302246 15.487948417663574 10.594151496887207 C15.273279190063477 11.18052864074707 14.672725677490234 11.540246963500977 14.265114784240723 12.01329517364502 L14.265114784240723 12.01329517364502 C15.821335792541504 13.29488754272461 16.871795654296875 15.616464614868164 14.810794830322266 17.174062728881836 C13.382222175598145 18.253704071044922 10.563389778137207 17.732864379882812 8.91616153717041 17.71383285522461 L8.91616153717041 17.71383285522461 C8.91616153717041 15.922750473022461 8.91616153717041 14.131669044494629 8.91616153717041 12.340587615966797 C8.91616153717041 10.549506187438965 8.91616153717041 8.758424758911133 8.91616153717041 6.967342376708984 L8.91616153717041 6.967342376708984"></path>
<path fill="none" stroke="black" stroke-width=".3" stroke-opacity="1.0"  filling="0" d="M10.771586418151855 8.354971885681152 L10.771586418151855 8.354971885681152 C11.607080459594727 8.332074165344238 12.926816940307617 8.02257251739502 13.501541137695312 9.036147117614746 C14.157294273376465 10.19262409210205 13.467140197753906 11.061726570129395 12.420441627502441 11.412424087524414 C11.898517608642578 11.587295532226562 11.321422576904297 11.476410865783691 10.771913528442383 11.508404731750488 L10.771913528442383 11.508404731750488 C10.77187442779541 9.955459594726562 10.771870613098145 9.887197494506836 10.771586418151855 8.354971885681152 L10.771586418151855 8.354971885681152"></path>
<path fill="none" stroke="black" stroke-width=".3" stroke-opacity="1.0"  filling="0" d="M10.777494430541992 12.90194320678711 L10.777494430541992 12.90194320678711 C11.653279304504395 12.867260932922363 13.175349235534668 12.502762794494629 13.762849807739258 13.637612342834473 C14.4580659866333 14.980530738830566 13.720301628112793 15.96712589263916 12.485810279846191 16.3071231842041 C11.936734199523926 16.45834732055664 11.346933364868164 16.287891387939453 10.777494430541992 16.278276443481445 L10.777494430541992 16.278276443481445 C10.777494430541992 15.15283203125 10.777494430541992 14.027387619018555 10.777494430541992 12.90194320678711 L10.777494430541992 12.90194320678711"></path></svg>