<svg xmlns="http://www.w3.org/2000/svg" viewBox="0.0 0.0 24.0 24.0" height="200px" width="200px"><path fill="none" stroke="black" stroke-width=".3" stroke-opacity="1.0"  filling="0" d="M18.980335235595703 2.922008514404297 C18.980335235595703 9.348254203796387 18.980335235595703 15.612942695617676 18.980335235595703 22.052021026611328 C18.085046768188477 22.052021026611328 17.17342758178711 22.052021026611328 16.121828079223633 22.052021026611328 C13.962636947631836 17.456010818481445 11.798779487609863 12.850669860839844 9.634922981262207 8.245328903198242 C9.450033187866211 8.28382396697998 9.265142440795898 8.322318077087402 9.079668998718262 8.36081314086914 C9.079668045043945 12.868167877197266 9.079668045043945 17.37552261352539 9.079668045043945 22.12200927734375 C7.917834758758545 22.12200927734375 7.265761375427246 22.12200927734375 6.471958637237549 22.12200927734375 C6.471958637237549 15.761670112609863 6.471958637237549 9.496400833129883 6.471958637237549 3.1086483001708984 C7.744026184082031 3.1086483001708984 8.873197555541992 3.1086483001708984 10.148765563964844 3.1086483001708984 C12.058908462524414 7.226975440979004 13.96788501739502 11.341802597045898 15.8762788772583 15.456047058105469 C16.018009185791016 15.45196533203125 16.159738540649414 15.447881698608398 16.301467895507812 15.443799018859863 C16.301467895507812 11.445622444152832 16.301467895507812 7.446860313415527 16.301467895507812 3.263209342956543 C17.336734771728516 3.131394386291504 18.054134368896484 3.0398244857788086 18.980335235595703 2.922008514404297"></path></svg>