<svg xmlns="http://www.w3.org/2000/svg" viewBox="0.0 0.0 24.0 24.0" height="200px" width="200px"><path fill="none" stroke="black" stroke-width=".3" stroke-opacity="1.0"  filling="0" d="M12.366612434387207 6.872599124908447 L12.366612434387207 6.872599124908447 C14.479377746582031 7.447759628295898 15.370994567871094 9.036097526550293 15.427044868469238 10.815797805786133 C15.483095169067383 12.595497131347656 14.703579902648926 14.566559791564941 13.474079132080078 15.907169342041016 L13.474079132080078 15.907169342041016 C13.944619178771973 16.150888442993164 14.41515827178955 16.39460563659668 14.885698318481445 16.638324737548828 L14.885698318481445 16.638324737548828 C14.860007286071777 16.93764877319336 14.83431625366211 17.236974716186523 14.808625221252441 17.536298751831055 L14.808625221252441 17.536298751831055 C14.241809844970703 17.529693603515625 13.595574378967285 17.805910110473633 13.10817813873291 17.516481399536133 C12.609148025512695 17.220144271850586 12.527244567871094 16.51154136657715 12.236778259277344 16.009071350097656 L12.236778259277344 16.009071350097656 C11.037727355957031 15.440207481384277 10.103981971740723 15.312931060791016 9.560079574584961 13.979644775390625 C8.870495796203613 12.28924560546875 8.989826202392578 8.323030471801758 10.773012161254883 7.22741174697876 C11.23669147491455 6.942519664764404 11.83541202545166 6.990869998931885 12.366612434387207 6.872599124908447 L12.366612434387207 6.872599124908447"></path>
<path fill="none" stroke="black" stroke-width=".3" stroke-opacity="1.0"  filling="0" d="M12.274022102355957 8.077829360961914 L12.274022102355957 8.077829360961914 C12.692059516906738 8.381205558776855 13.252477645874023 8.551145553588867 13.528133392333984 8.987958908081055 C14.204462051391602 10.059690475463867 14.381953239440918 14.73890209197998 12.230830192565918 14.654092788696289 C10.282530784606934 14.577280044555664 10.300137519836426 10.068055152893066 11.04085922241211 9.007356643676758 C11.335577011108398 8.585326194763184 11.862967491149902 8.38767147064209 12.274022102355957 8.077829360961914 L12.274022102355957 8.077829360961914"></path></svg>