<svg xmlns="http://www.w3.org/2000/svg" viewBox="0.0 0.0 24.0 24.0" height="200px" width="200px"><path fill="none" stroke="black" stroke-width=".3" stroke-opacity="1.0"  filling="0" d="M6.836556434631348 7.160272121429443 L6.836556434631348 7.160272121429443 C9.216094970703125 7.187860012054443 11.941362380981445 6.790266513824463 14.264653205871582 7.42703914642334 C15.619237899780273 7.798306465148926 17.0642147064209 9.159628868103027 16.071714401245117 10.730891227722168 C15.746408462524414 11.245895385742188 14.693624496459961 11.797130584716797 14.086102485656738 12.140332221984863 L14.086102485656738 12.140332221984863 C15.733438491821289 13.529208183288574 15.626108169555664 14.359574317932129 15.986404418945312 16.42462158203125 L15.986404418945312 16.42462158203125 C16.132930755615234 16.431772232055664 16.279455184936523 16.438920974731445 16.425981521606445 16.44607162475586 L16.425981521606445 16.44607162475586 C16.643505096435547 15.830059051513672 16.861026763916016 15.2140474319458 17.078550338745117 14.598034858703613 L17.078550338745117 14.598034858703613 C17.427019119262695 15.512643814086914 17.774173736572266 17.796188354492188 15.631420135498047 17.391691207885742 C13.377046585083008 16.966123580932617 14.786128997802734 14.121164321899414 13.593353271484375 12.913443565368652 C12.73546314239502 12.044804573059082 11.027684211730957 12.311883926391602 9.961329460144043 12.327341079711914 L9.961329460144043 12.327341079711914 C9.961329460144043 13.560874938964844 9.961329460144043 14.79440975189209 9.961329460144043 16.027944564819336 L9.961329460144043 16.027944564819336 C10.561933517456055 16.228145599365234 11.162537574768066 16.428346633911133 11.763141632080078 16.62854766845703 L11.763141632080078 16.62854766845703 C11.731419563293457 16.75583839416504 11.699697494506836 16.88313102722168 11.667975425720215 17.010421752929688 L11.667975425720215 17.010421752929688 C10.054380416870117 17.010421752929688 8.440783500671387 17.010421752929688 6.827189922332764 17.010421752929688 L6.827189922332764 17.010421752929688 C7.211546421051025 16.518339157104492 7.7481279373168945 16.129898071289062 8.319637298583984 15.878397941589355 L8.319637298583984 15.878397941589355 C8.319637298583984 14.622657775878906 8.319637298583984 13.366917610168457 8.319637298583984 12.111178398132324 C8.319637298583984 10.855438232421875 8.319637298583984 9.599699020385742 8.319637298583984 8.343957901000977 L8.319637298583984 8.343957901000977 C7.785095691680908 8.10478401184082 7.250554084777832 7.865609645843506 6.716012477874756 7.626435279846191 L6.716012477874756 7.626435279846191 C6.7561936378479 7.471047401428223 6.796375274658203 7.315659999847412 6.836556434631348 7.160272121429443 L6.836556434631348 7.160272121429443"></path>
<path fill="none" stroke="black" stroke-width=".3" stroke-opacity="1.0"  filling="0" d="M9.978248596191406 8.089576721191406 L9.978248596191406 8.089576721191406 C11.066326141357422 8.075873374938965 13.39539623260498 7.625948905944824 14.30921459197998 8.497772216796875 C15.324562072753906 9.466458320617676 14.698799133300781 10.923473358154297 13.503928184509277 11.274168968200684 C12.969321250915527 11.431077003479004 10.481911659240723 11.51893424987793 9.97824764251709 11.543655395507812 L9.97824764251709 11.543655395507812 C9.97824764251709 11.493786811828613 9.978248596191406 8.232061386108398 9.978248596191406 8.089576721191406 L9.978248596191406 8.089576721191406"></path></svg>