<svg xmlns="http://www.w3.org/2000/svg" viewBox="0.0 0.0 24.0 24.0" height="200px" width="200px"><path fill="none" stroke="black" stroke-width=".3" stroke-opacity="1.0"  filling="0" d="M15.931024551391602 6.995505332946777 L15.931024551391602 6.995505332946777 C15.931024551391602 8.273504257202148 15.931024551391602 9.55150318145752 15.931024551391602 10.82950210571289 L15.931024551391602 10.82950210571289 C14.824150085449219 9.887906074523926 14.37344741821289 8.350704193115234 12.86940860748291 7.925811767578125 C11.55596923828125 7.554763317108154 8.203243255615234 8.462614059448242 9.885980606079102 10.467763900756836 C11.288458824157715 12.138957023620605 14.53036117553711 11.031893730163574 16.084728240966797 12.838946342468262 C17.634052276611328 14.640137672424316 15.919811248779297 16.991600036621094 14.111516952514648 17.501338958740234 C12.281435012817383 18.01721954345703 11.066465377807617 17.361417770385742 9.565671920776367 16.429718017578125 L9.565671920776367 16.429718017578125 C9.191420555114746 16.776554107666016 8.817169189453125 17.12339210510254 8.442917823791504 17.47022819519043 L8.442917823791504 17.47022819519043 C8.340550422668457 17.40800666809082 8.238183975219727 17.345787048339844 8.13581657409668 17.283565521240234 L8.13581657409668 17.283565521240234 C8.082633018493652 15.892751693725586 8.081280708312988 14.565929412841797 8.206046104431152 13.179121971130371 L8.206046104431152 13.179121971130371 C8.360982894897461 13.142569541931152 8.51591968536377 13.106016159057617 8.670856475830078 13.069463729858398 L8.670856475830078 13.069463729858398 C9.400946617126465 14.654658317565918 10.093527793884277 16.30984878540039 12.056721687316895 16.644479751586914 C13.320782661437988 16.859941482543945 15.16611099243164 16.40616798400879 15.161884307861328 14.803033828735352 C15.157731056213379 13.227550506591797 13.260110855102539 13.125262260437012 12.182119369506836 12.855424880981445 C10.525350570678711 12.44071102142334 8.075905799865723 12.089287757873535 8.141977310180664 9.787141799926758 C8.195562362670898 7.920063495635986 9.322410583496094 7.177811622619629 10.693981170654297 7.03908634185791 C12.0655517578125 6.900361061096191 13.681845664978027 7.365161895751953 14.714323043823242 7.912189960479736 L14.714323043823242 7.912189960479736 C15.119890213012695 7.60662841796875 15.525457382202148 7.301066875457764 15.931024551391602 6.995505332946777 L15.931024551391602 6.995505332946777"></path></svg>