<svg xmlns="http://www.w3.org/2000/svg" viewBox="0.0 0.0 24.0 24.0" height="200px" width="200px"><path fill="none" stroke="black" stroke-width=".3" stroke-opacity="1.0"  filling="0" d="M6.152338027954102 7.268200874328613 L6.152338027954102 7.268200874328613 C7.751338481903076 7.268200874328613 9.350341796875 7.268200874328613 10.949342727661133 7.268200874328613 L10.949342727661133 7.268200874328613 C10.593613624572754 7.794312953948975 9.943998336791992 8.098498344421387 9.335816383361816 8.281396865844727 L9.335816383361816 8.281396865844727 C10.145598411560059 9.649646759033203 10.955345153808594 11.017915725708008 11.765040397644043 12.386218070983887 L11.765040397644043 12.386218070983887 C12.613618850708008 11.04624080657959 13.462210655212402 9.706271171569824 14.310882568359375 8.366352081298828 L14.310882568359375 8.366352081298828 C13.745871543884277 8.133116722106934 13.18086051940918 7.899880886077881 12.615849494934082 7.666645526885986 L12.615849494934082 7.666645526885986 C12.651378631591797 7.54448938369751 12.686906814575195 7.422333240509033 12.72243595123291 7.300177097320557 L12.72243595123291 7.300177097320557 C14.132303237915039 7.300177097320557 15.542160034179688 7.300177097320557 16.9520263671875 7.300177097320557 L16.9520263671875 7.300177097320557 C16.65361213684082 7.8629655838012695 15.966574668884277 8.10765266418457 15.475258827209473 8.513104438781738 C14.376729965209961 9.419650077819824 13.523614883422852 10.721132278442383 12.993023872375488 12.132643699645996 C12.462433815002441 13.54415512084961 12.25436782836914 15.065694808959961 12.445939064025879 16.412355422973633 L12.445939064025879 16.412355422973633 C13.102060317993164 16.597248077392578 13.75819206237793 16.7821044921875 14.414335250854492 16.966917037963867 L14.414335250854492 16.966917037963867 C14.388106346130371 17.119794845581055 14.36187744140625 17.272672653198242 14.335648536682129 17.42555046081543 L14.335648536682129 17.42555046081543 C12.476581573486328 17.53160858154297 10.666890144348145 17.5286865234375 8.806648254394531 17.45063018798828 L8.806648254394531 17.45063018798828 C8.771014213562012 17.303186416625977 8.735381126403809 17.15574073791504 8.699747085571289 17.008296966552734 L8.699747085571289 17.008296966552734 C9.348031997680664 16.794570922851562 9.99632740020752 16.58087921142578 10.644631385803223 16.367210388183594 L10.644631385803223 16.367210388183594 C10.710896492004395 14.347018241882324 10.262852668762207 12.770161628723145 9.46072769165039 11.349405288696289 C8.65860366821289 9.928648948669434 7.502397537231445 8.663991928100586 6.152338027954102 7.268200874328613 L6.152338027954102 7.268200874328613"></path></svg>