<svg xmlns="http://www.w3.org/2000/svg" viewBox="0.0 0.0 24.0 24.0" height="200px" width="200px"><path fill="none" stroke="black" stroke-width=".3" stroke-opacity="1.0"  filling="0" d="M6.593791961669922 10.611733436584473 C6.889885425567627 11.097460746765137 7.155561923980713 11.532808303833008 7.422189235687256 11.967681884765625 C10.330848693847656 10.163077354431152 11.166850090026855 10.168305397033691 13.583603858947754 12.007128715515137 C13.731412887573242 11.962928771972656 13.907262802124023 11.953898429870605 14.02132797241211 11.865498542785645 C15.333551406860352 10.851269721984863 16.723243713378906 10.16450309753418 18.38431739807129 10.985771179199219 C20.100521087646484 11.83365535736084 20.178939819335938 13.437219619750977 20.16183090209961 15.060745239257812 C20.151376724243164 16.009387969970703 20.1162052154541 16.9585018157959 20.11573028564453 17.90714454650879 C20.115257263183594 18.985057830810547 19.719829559326172 20.249755859375 21.89657211303711 20.36762237548828 C21.704086303710938 20.52826690673828 21.511127471923828 20.688907623291016 21.31864356994629 20.84954833984375 C19.675628662109375 20.84954833984375 18.032617568969727 20.84954833984375 16.26318359375 20.84954833984375 C17.690898895263672 18.680410385131836 17.056411743164062 16.232288360595703 17.017436981201172 13.872093200683594 C17.007932662963867 13.308897018432617 16.226112365722656 12.486202239990234 15.636775016784668 12.300371170043945 C15.242774963378906 12.176325798034668 14.126363754272461 12.920125007629395 14.078836441040039 13.35689926147461 C13.808881759643555 15.83686351776123 13.11974048614502 18.39572525024414 14.72520637512207 20.912757873535156 C13.03894329071045 20.912757873535156 11.434904098510742 20.912757873535156 9.858904838562012 20.912757873535156 C11.31371021270752 18.24601173400879 10.803744316101074 15.449518203735352 10.427804946899414 12.690093040466309 C8.503907203674316 12.139729499816895 7.776742458343506 12.319381713867188 7.633686065673828 13.69624137878418 C7.386545181274414 16.074974060058594 6.885134220123291 18.52737045288086 8.248211860656738 20.940799713134766 C6.4802021980285645 20.94127655029297 4.781582355499268 20.94127655029297 2.6960926055908203 20.94127655029297 C4.84812068939209 19.290658950805664 4.879964351654053 14.710470199584961 2.8705177307128906 12.310827255249023 C4.10907506942749 11.745729446411133 5.276340484619141 11.21295166015625 6.593791961669922 10.611733436584473"></path></svg>