<svg xmlns="http://www.w3.org/2000/svg" viewBox="0.0 0.0 24.0 24.0" height="200px" width="200px"><path fill="none" stroke="black" stroke-width=".3" stroke-opacity="1.0"  filling="0" d="M15.485191345214844 7.993399620056152 L15.485191345214844 7.993399620056152 C16.18544578552246 9.325445175170898 16.211780548095703 9.80515193939209 16.173734664916992 11.263132095336914 L16.173734664916992 11.263132095336914 C15.191104888916016 10.703282356262207 14.212608337402344 9.830098152160645 12.955039024353027 10.084951400756836 C10.514209747314453 10.579599380493164 10.4938325881958 15.222040176391602 12.981224060058594 15.64588451385498 C14.205277442932129 15.854459762573242 15.19157886505127 14.953322410583496 16.12110137939453 14.3937406539917 L16.12110137939453 14.3937406539917 C16.207332611083984 15.959325790405273 15.58649730682373 17.07540512084961 14.59306526184082 17.623449325561523 C13.59963321685791 18.171493530273438 12.233603477478027 18.151500701904297 10.829445838928223 17.44493865966797 C8.931814193725586 16.49006462097168 8.152246475219727 14.182130813598633 8.372537612915039 12.000642776489258 C8.592828750610352 9.819153785705566 9.81297779083252 7.7641096115112305 11.914778709411621 7.315013885498047 C13.639982223510742 6.946386337280273 13.989781379699707 7.356083393096924 15.485191345214844 7.993399620056152 L15.485191345214844 7.993399620056152"></path></svg>