<svg xmlns="http://www.w3.org/2000/svg" viewBox="0.0 0.0 24.0 24.0" height="200px" width="200px"><path fill="none" stroke="black" stroke-width=".3" stroke-opacity="1.0"  filling="0" d="M7.607999801635742 7.121030807495117 L7.607999801635742 7.121030807495117 C7.732318878173828 7.121030807495117 10.305207252502441 7.121030807495117 10.364571571350098 7.121030807495117 L10.364571571350098 7.121030807495117 C10.364571571350098 8.448506355285645 10.364571571350098 9.775980949401855 10.364571571350098 11.103456497192383 L10.364571571350098 11.103456497192383 C10.644318580627441 10.960503578186035 12.065677642822266 10.200345993041992 12.4368896484375 10.134575843811035 C14.584686279296875 9.754037857055664 15.49850082397461 10.701298713684082 15.871366500854492 12.099918365478516 C16.244232177734375 13.498538970947266 16.076152801513672 15.348518371582031 16.060157775878906 16.773414611816406 L16.060157775878906 16.773414611816406 C16.539596557617188 17.063213348388672 17.019033432006836 17.353012084960938 17.498472213745117 17.642810821533203 L17.498472213745117 17.642810821533203 C17.47104263305664 17.735549926757812 17.443614959716797 17.828290939331055 17.41618537902832 17.921030044555664 L17.41618537902832 17.921030044555664 C15.991249084472656 17.921030044555664 14.566312789916992 17.921030044555664 13.141376495361328 17.921030044555664 L13.141376495361328 17.921030044555664 C13.106978416442871 17.82469367980957 13.072580337524414 17.728355407714844 13.038182258605957 17.63201904296875 L13.038182258605957 17.63201904296875 C13.563821792602539 17.365489959716797 14.089461326599121 17.098960876464844 14.615100860595703 16.83243179321289 L14.615100860595703 16.83243179321289 C14.62353229522705 15.544008255004883 15.130807876586914 12.848021507263184 14.367021560668945 11.696276664733887 C13.366369247436523 10.187352180480957 11.306488990783691 11.055033683776855 10.664037704467773 12.361011505126953 C10.07886791229248 13.550546646118164 10.397215843200684 15.553982734680176 10.404365539550781 16.827709197998047 L10.404365539550781 16.827709197998047 C10.954848289489746 17.090303421020508 11.505330085754395 17.3528995513916 12.05581283569336 17.615493774414062 L12.05581283569336 17.615493774414062 C12.032880783081055 17.713518142700195 12.00994873046875 17.811540603637695 11.987016677856445 17.909564971923828 L11.987016677856445 17.909564971923828 C10.542520523071289 17.909564971923828 9.098023414611816 17.909564971923828 7.65352725982666 17.909564971923828 L7.65352725982666 17.909564971923828 C7.619578838348389 17.814687728881836 7.585630416870117 17.719812393188477 7.551681995391846 17.624935150146484 L7.551681995391846 17.624935150146484 C8.014595031738281 17.350648880004883 8.477508544921875 17.076364517211914 8.940422058105469 16.802078247070312 L8.940422058105469 16.802078247070312 C8.940422058105469 15.367025375366211 8.940422058105469 13.931971549987793 8.940422058105469 12.496917724609375 C8.940422058105469 11.061863899230957 8.940422058105469 9.626810073852539 8.940422058105469 8.191757202148438 L8.940422058105469 8.191757202148438 C8.477846145629883 7.927475929260254 8.01526927947998 7.663194179534912 7.5526933670043945 7.3989129066467285 L7.5526933670043945 7.3989129066467285 C7.571128845214844 7.306285381317139 7.589564323425293 7.213658332824707 7.607999801635742 7.121030807495117 L7.607999801635742 7.121030807495117"></path></svg>