<svg xmlns="http://www.w3.org/2000/svg" viewBox="0.0 0.0 24.0 24.0" height="200px" width="200px"><path fill="none" stroke="black" stroke-width=".3" stroke-opacity="1.0"  filling="0" d="M11.336194038391113 2.525174140930176 C11.807310104370117 2.5573244094848633 12.241559982299805 3.1300363540649414 12.991314888000488 3.697175979614258 C12.243273735046387 4.191868305206299 11.733577728271484 4.771868705749512 11.417642593383789 4.680560111999512 C10.940096855163574 4.542526721954346 10.59758472442627 3.9368057250976562 10.19762897491455 3.5295629501342773 C10.57872200012207 3.1694746017456055 10.981249809265137 2.500739097595215 11.336194038391113 2.525174140930176"></path>
<path fill="none" stroke="black" stroke-width=".3" stroke-opacity="1.0"  filling="0" d="M8.862730026245117 7.34392786026001 C10.03387451171875 7.34392786026001 11.205018997192383 7.34392786026001 12.54334831237793 7.34392786026001 C12.54334831237793 11.231168746948242 12.692526817321777 15.131269454956055 12.487192153930664 19.01250648498535 C12.365447044372559 21.31578826904297 9.584193229675293 22.46078109741211 7.618282318115234 21.212045669555664 C7.1857476234436035 20.937265396118164 6.755784511566162 20.40142059326172 6.664047718048096 19.92129898071289 C6.577455520629883 19.467330932617188 6.830803394317627 18.84146499633789 7.142879962921143 18.461658477783203 C7.31006383895874 18.25803565979004 8.143839836120605 18.25460433959961 8.274157524108887 18.44108009338379 C8.542080879211426 18.825603485107422 8.561800003051758 19.395742416381836 8.635960578918457 19.89643669128418 C8.659538269042969 20.055904388427734 8.531792640686035 20.2376651763916 8.446914672851562 20.48586654663086 C9.861547470092773 20.86310577392578 10.6730318069458 20.322113037109375 10.700895309448242 19.007360458374023 C10.773770332336426 15.534223556518555 10.725330352783203 12.058942794799805 10.725330352783203 8.62567138671875 C9.980290412902832 8.279728889465332 9.387430191040039 8.004518508911133 8.794569969177246 7.729736804962158 C8.817289352416992 7.601133823394775 8.840009689331055 7.472530841827393 8.862730026245117 7.34392786026001"></path></svg>