<svg xmlns="http://www.w3.org/2000/svg" viewBox="0.0 0.0 24.0 24.0" height="200px" width="200px"><path fill="none" stroke="black" stroke-width=".3" stroke-opacity="1.0"  filling="0" d="M10.005966186523438 7.117792129516602 L10.005966186523438 7.117792129516602 C10.966802597045898 7.117792129516602 11.927639961242676 7.117792129516602 12.888476371765137 7.117792129516602 L12.888476371765137 7.117792129516602 C12.888476371765137 8.709819793701172 12.888476371765137 10.301847457885742 12.888476371765137 11.893876075744629 C12.888476371765137 13.485904693603516 12.888476371765137 15.077932357788086 12.888476371765137 16.669960021972656 L12.888476371765137 16.669960021972656 C13.537209510803223 17.00628089904785 14.18595027923584 17.342588424682617 14.834695816040039 17.67888832092285 L14.834695816040039 17.67888832092285 C13.0330810546875 17.912986755371094 11.698867797851562 17.890073776245117 9.924332618713379 17.51728630065918 L9.924332618713379 17.51728630065918 C10.409582138061523 17.265499114990234 10.894831657409668 17.013710021972656 11.380081176757812 16.76192283630371 L11.380081176757812 16.76192283630371 C11.380081176757812 15.319169044494629 11.380081176757812 13.87641429901123 11.380081176757812 12.433659553527832 C11.380082130432129 10.99090576171875 11.380082130432129 9.548151016235352 11.380082130432129 8.105396270751953 L11.380082130432129 8.105396270751953 C10.909493446350098 7.869046688079834 10.43890380859375 7.632696628570557 9.968315124511719 7.3963470458984375 L9.968315124511719 7.3963470458984375 C9.980865478515625 7.303495407104492 9.993415832519531 7.210643768310547 10.005966186523438 7.117792129516602 L10.005966186523438 7.117792129516602"></path></svg>