<svg xmlns="http://www.w3.org/2000/svg" viewBox="0.0 0.0 24.0 24.0" height="200px" width="200px"><path fill="none" stroke="black" stroke-width=".3" stroke-opacity="1.0"  filling="0" d="M11.070014953613281 9.102246284484863 L11.070014953613281 9.102246284484863 C11.740281105041504 9.400215148925781 12.369839668273926 9.794332504272461 12.958155632019043 10.232426643371582 L12.958155632019043 10.232426643371582 C14.067044258117676 9.01038646697998 16.038307189941406 8.30240535736084 17.157033920288086 10.07692813873291 C17.611892700195312 10.798425674438477 17.48845863342285 12.533258438110352 17.489215850830078 13.254385948181152 C17.4910888671875 15.036768913269043 17.488853454589844 16.81915855407715 17.488265991210938 18.601543426513672 L17.488265991210938 18.601543426513672 C16.94902992248535 18.660011291503906 16.409793853759766 18.718481063842773 15.870556831359863 18.776948928833008 L15.870556831359863 18.776948928833008 C15.438627243041992 17.645023345947266 15.59607982635498 16.313806533813477 15.724664688110352 14.9935884475708 C15.853248596191406 13.673370361328125 15.952964782714844 12.364151000976562 15.405564308166504 11.276217460632324 C14.518696784973145 9.513608932495117 13.387333869934082 11.229878425598145 13.172575950622559 12.185544967651367 C12.715099334716797 14.221298217773438 13.011048316955566 16.56441307067871 13.021632194519043 18.633846282958984 L13.021632194519043 18.633846282958984 C12.44245719909668 18.633846282958984 11.863282203674316 18.633846282958984 11.284107208251953 18.633846282958984 L11.284107208251953 18.633846282958984 C10.705552101135254 16.551616668701172 12.062006950378418 13.107832908630371 10.983299255371094 11.251616477966309 C9.972912788391113 9.512967109680176 8.689324378967285 11.32259750366211 8.552370071411133 12.389871597290039 C8.291024208068848 14.426513671875 8.496681213378906 16.586204528808594 8.496028900146484 18.636472702026367 L8.496028900146484 18.636472702026367 C7.893942356109619 18.673030853271484 7.291855335235596 18.709590911865234 6.6897687911987305 18.74614906311035 L6.6897687911987305 18.74614906311035 C6.6897687911987305 17.183528900146484 6.6897687911987305 15.620908737182617 6.6897687911987305 14.058286666870117 C6.6897687911987305 12.495665550231934 6.6897687911987305 10.93304443359375 6.6897687911987305 9.370424270629883 L6.6897687911987305 9.370424270629883 C8.445371627807617 9.62946605682373 9.364057540893555 9.439826965332031 11.070014953613281 9.102246284484863 L11.070014953613281 9.102246284484863"></path></svg>