<svg xmlns="http://www.w3.org/2000/svg" viewBox="0.0 0.0 24.0 24.0" height="200px" width="200px"><path fill="none" stroke="black" stroke-width=".3" stroke-opacity="1.0"  filling="0" d="M11.668764114379883 8.614396095275879 C15.851667404174805 7.006833553314209 19.064199447631836 9.10573959350586 19.226253509521484 13.560243606567383 C19.315706253051758 16.035112380981445 19.24245834350586 18.516460418701172 19.24245834350586 21.108657836914062 C20.184307098388672 21.663524627685547 21.061336517333984 22.18014907836914 21.938365936279297 22.696773529052734 C21.9234561920166 22.92429542541504 21.90854835510254 23.1524658203125 21.893640518188477 23.379989624023438 C19.141984939575195 23.868091583251953 16.36310577392578 23.720947265625 13.370965003967285 22.817989349365234 C14.315408706665039 22.34868621826172 15.260499954223633 21.879379272460938 16.556270599365234 21.23635482788086 C16.556270599365234 18.929372787475586 16.63211441040039 16.468116760253906 16.536176681518555 14.013343811035156 C16.428573608398438 11.277894973754883 15.607290267944336 10.199920654296875 13.737203598022461 9.967211723327637 C11.312246322631836 9.665794372558594 9.145278930664062 11.004997253417969 8.757648468017578 13.510980606079102 C8.367425918579102 16.031871795654297 8.455582618713379 18.626659393310547 8.334366798400879 21.194869995117188 C9.607452392578125 21.83205795288086 10.570693969726562 22.313682556152344 11.533287048339844 22.795299530029297 C8.580039024353027 23.910869598388672 5.738931655883789 23.665847778320312 2.898472785949707 23.508981704711914 C2.8530988693237305 23.234786987304688 2.8077239990234375 22.960594177246094 2.7623491287231445 22.687049865722656 C3.61474609375 22.303958892822266 4.467791557312012 21.921512603759766 5.491963863372803 21.46128273010254 C5.491963863372803 18.100311279296875 5.491963863372803 14.680999755859375 5.491963863372803 11.001108169555664 C4.670681476593018 10.622552871704102 3.7443885803222656 10.195382118225098 2.73836612701416 9.731910705566406 C4.961080074310303 8.174261093139648 7.3419575691223145 8.393356323242188 8.620229721069336 10.24205207824707 C9.625604629516602 9.696907997131348 10.597272872924805 9.026009559631348 11.668764114379883 8.614396095275879"></path></svg>