<svg xmlns="http://www.w3.org/2000/svg" viewBox="0.0 0.0 24.0 24.0" height="200px" width="200px"><path fill="none" stroke="black" stroke-width=".3" stroke-opacity="1.0"  filling="0" d="M15.865966796875 8.944202423095703 L15.865966796875 8.944202423095703 C15.865966796875 10.435789108276367 15.865966796875 11.927372932434082 15.865966796875 13.418959617614746 L15.865966796875 13.418959617614746 C14.908493995666504 12.330352783203125 13.891366958618164 10.615050315856934 12.324240684509277 10.330225944519043 C11.555996894836426 10.190598487854004 9.825068473815918 10.38943099975586 9.693873405456543 11.570589065551758 C9.529031753540039 13.054670333862305 11.876922607421875 13.280193328857422 12.538455963134766 13.462959289550781 C14.22367000579834 13.928544998168945 16.302616119384766 14.227418899536133 16.47602653503418 16.435413360595703 C16.6411075592041 18.53734588623047 15.400961875915527 19.367706298828125 13.852609634399414 19.526153564453125 C12.304258346557617 19.684600830078125 10.447700500488281 19.171138763427734 9.379959106445312 18.58542823791504 L9.379959106445312 18.58542823791504 C8.816719055175781 18.87424087524414 8.25347900390625 19.16305160522461 7.6902384757995605 19.45186424255371 L7.6902384757995605 19.45186424255371 C7.6902384757995605 18.0460205078125 7.6902384757995605 16.640174865722656 7.6902384757995605 15.234331130981445 L7.6902384757995605 15.234331130981445 C7.818850040435791 15.159730911254883 7.94746208190918 15.08513069152832 8.07607364654541 15.010530471801758 L8.07607364654541 15.010530471801758 C9.367696762084961 16.74490737915039 10.385664939880371 18.759140014648438 12.901128768920898 18.49277687072754 C13.718521118164062 18.40622329711914 14.655223846435547 18.089908599853516 14.644155502319336 17.04631805419922 C14.633244514465332 16.01749038696289 12.946308135986328 15.451810836791992 12.209734916687012 15.280656814575195 C10.444450378417969 14.870466232299805 7.624954700469971 14.46767807006836 7.755813121795654 11.96530818939209 C7.849818229675293 10.167673110961914 8.967316627502441 9.451958656311035 10.32383918762207 9.296863555908203 C11.6803617477417 9.141767501831055 13.275908470153809 9.54729175567627 14.326011657714844 9.992134094238281 L14.326011657714844 9.992134094238281 C14.839329719543457 9.642823219299316 15.352648735046387 9.293513298034668 15.865966796875 8.944202423095703 L15.865966796875 8.944202423095703"></path></svg>