<svg xmlns="http://www.w3.org/2000/svg" viewBox="0.0 0.0 24.0 24.0" height="200px" width="200px"><path fill="none" stroke="black" stroke-width=".3" stroke-opacity="1.0"  filling="0" d="M18.87282943725586 6.567470550537109 C18.87282943725586 9.204386711120605 18.87282943725586 11.338890075683594 18.87282943725586 14.522595405578613 C17.789031982421875 13.301912307739258 17.18508529663086 12.75512409210205 16.742088317871094 12.100030899047852 C15.043059349060059 9.58495807647705 12.679913520812988 8.398872375488281 10.050517082214355 9.18182373046875 C9.161517143249512 9.446569442749023 7.997242450714111 10.452146530151367 7.900219440460205 11.236603736877441 C7.806957721710205 11.989471435546875 8.761391639709473 13.343278884887695 9.5548734664917 13.644124984741211 C11.750297546386719 14.475963592529297 14.159323692321777 14.735445022583008 16.374303817749023 15.528173446655273 C18.31551170349121 16.223129272460938 19.848323822021484 17.56039047241211 19.957380294799805 19.885177612304688 C20.06192398071289 22.112192153930664 19.051834106445312 23.79843521118164 17.10686492919922 24.7596378326416 C14.78132438659668 25.90886878967285 12.312129020690918 26.151050567626953 9.859481811523438 25.08831214904785 C8.953932762145996 24.69721221923828 8.121341705322266 24.140647888183594 7.3421502113342285 23.707427978515625 C6.228267192840576 24.279033660888672 5.447571277618408 24.679161071777344 4.33820104598999 25.247760772705078 C4.33820104598999 22.420557022094727 4.33820104598999 20.08523941040039 4.33820104598999 17.749921798706055 C4.5668439865112305 17.617549896240234 4.795486927032471 17.484424591064453 5.024130344390869 17.352054595947266 C5.649138450622559 18.179380416870117 6.380194664001465 18.947290420532227 6.8803510665893555 19.844562530517578 C8.430460929870605 22.627389907836914 10.62287712097168 23.840553283691406 13.602006912231445 23.542713165283203 C15.282232284545898 23.3749942779541 16.813539505004883 22.61686134338379 16.700721740722656 20.97123146057129 C16.63528823852539 20.021310806274414 15.192730903625488 18.930744171142578 14.126230239868164 18.351613998413086 C13.076277732849121 17.781511306762695 11.708931922912598 17.81761360168457 10.5010347366333 17.50924301147461 C9.539079666137695 17.264053344726562 8.567346572875977 16.987276077270508 7.671576499938965 16.570606231689453 C5.7220940589904785 15.664306640625 4.366029262542725 14.172861099243164 4.454779148101807 11.938325881958008 C4.55029821395874 9.539077758789062 6.128988742828369 8.14465618133545 8.2868070602417 7.351926326751709 C11.105735778808594 6.316263675689697 13.680978775024414 7.195486545562744 16.1351318359375 8.430459976196289 C16.953433990478516 7.873895168304443 17.695018768310547 7.369225025177002 18.87282943725586 6.567470550537109"></path></svg>