<svg xmlns="http://www.w3.org/2000/svg" viewBox="0.0 0.0 24.0 24.0" height="200px" width="200px"><path fill="none" stroke="black" stroke-width=".3" stroke-opacity="1.0"  filling="0" d="M12.76255989074707 6.951394081115723 L12.76255989074707 6.951394081115723 C12.840631484985352 7.658350467681885 12.918683052062988 8.36530876159668 12.996713638305664 9.072269439697266 L12.996713638305664 9.072269439697266 C13.451186180114746 9.17227554321289 13.905659675598145 9.272281646728516 14.360132217407227 9.37228775024414 L14.360132217407227 9.37228775024414 C14.360132217407227 9.727523803710938 14.360132217407227 10.082758903503418 14.360132217407227 10.437994956970215 L14.360132217407227 10.437994956970215 C13.91784381866455 10.522083282470703 13.475556373596191 10.606172561645508 13.033267974853516 10.690260887145996 L13.033267974853516 10.690260887145996 C13.033267974853516 12.465888977050781 13.033267974853516 14.241519927978516 13.033267974853516 16.017148971557617 L13.033267974853516 16.017148971557617 C13.586430549621582 16.210464477539062 14.139592170715332 16.40378189086914 14.692754745483398 16.597097396850586 L14.692754745483398 16.597097396850586 C14.678264617919922 16.905128479003906 14.663773536682129 17.21316146850586 14.649283409118652 17.52119255065918 L14.649283409118652 17.52119255065918 C14.01396369934082 17.586387634277344 13.371904373168945 17.829776763916016 12.743325233459473 17.716777801513672 C10.487687110900879 17.3112850189209 11.273186683654785 12.726520538330078 11.28288745880127 11.13748836517334 L11.28288745880127 11.13748836517334 C10.940056800842285 10.742074966430664 10.246198654174805 10.474523544311523 10.25439453125 9.951247215270996 C10.262899398803711 9.408257484436035 10.965304374694824 9.130121231079102 11.320759773254395 8.719558715820312 L11.320759773254395 8.719558715820312 C11.369609832763672 8.226663589477539 11.418460845947266 7.733768463134766 11.467310905456543 7.240873336791992 L11.467310905456543 7.240873336791992 C11.899060249328613 7.14438009262085 12.330810546875 7.047887325286865 12.76255989074707 6.951394081115723 L12.76255989074707 6.951394081115723"></path></svg>