<svg xmlns="http://www.w3.org/2000/svg" viewBox="0.0 0.0 24.0 24.0" height="200px" width="200px"><path fill="none" stroke="black" stroke-width=".3" stroke-opacity="1.0"  filling="0" d="M9.983863830566406 8.772093772888184 L9.983863830566406 8.772093772888184 C10.620704650878906 11.113715171813965 11.257484436035156 13.455350875854492 11.894505500793457 15.79692268371582 L11.894505500793457 15.79692268371582 C12.000652313232422 15.793732643127441 12.106799125671387 15.790542602539062 12.212945938110352 15.787352561950684 L12.212945938110352 15.787352561950684 C12.815279006958008 13.49460220336914 13.4176664352417 11.201865196228027 14.020051956176758 8.909128189086914 L14.020051956176758 8.909128189086914 C14.647797584533691 8.874470710754395 15.275542259216309 8.839814186096191 15.903287887573242 8.805156707763672 L15.903287887573242 8.805156707763672 C15.409123420715332 10.5996732711792 14.9148588180542 12.394163131713867 14.42056941986084 14.188645362854004 C13.92628002166748 15.98312759399414 13.431966781616211 17.777603149414062 12.937703132629395 19.572093963623047 L12.937703132629395 19.572093963623047 C12.265584945678711 19.572093963623047 11.593466758728027 19.572093963623047 10.921348571777344 19.572093963623047 L10.921348571777344 19.572093963623047 C10.417815208435059 17.78999900817871 9.914298057556152 16.00790023803711 9.410764694213867 14.225805282592773 C8.907231330871582 12.443710327148438 8.403680801391602 10.66162109375 7.900081157684326 8.879545211791992 L7.900081157684326 8.879545211791992 C7.90212869644165 8.879439353942871 9.969563484191895 8.772830963134766 9.983863830566406 8.772093772888184 L9.983863830566406 8.772093772888184"></path></svg>