<svg xmlns="http://www.w3.org/2000/svg" viewBox="0.0 0.0 24.0 24.0" height="200px" width="200px"><path fill="none" stroke="black" stroke-width=".3" stroke-opacity="1.0"  filling="0" d="M20.534542083740234 9.051603317260742 C20.600624084472656 9.37110424041748 20.728694915771484 9.758047103881836 20.678966522216797 9.782571792602539 C17.998977661132812 11.102128982543945 17.374963760375977 13.841385841369629 16.23457145690918 16.21004867553711 C15.302639961242676 18.146808624267578 14.508996963500977 20.153053283691406 13.517797470092773 22.05779457092285 C13.037524223327637 22.98086929321289 12.2445650100708 23.74181365966797 11.593301773071289 24.575647354125977 C10.850751876831055 23.694808959960938 9.944025039672852 22.903209686279297 9.403121948242188 21.912010192871094 C8.484813690185547 20.228668212890625 7.848537921905518 18.394779205322266 7.001078128814697 16.669204711914062 C5.7550950050354 14.132956504821777 5.167186737060547 11.157991409301758 1.4905471801757812 9.499177932739258 C5.060913562774658 8.654443740844727 7.718421936035156 8.839059829711914 10.600737571716309 9.76962947845459 C9.761453628540039 10.25330924987793 8.922849655151367 10.736987113952637 7.785864353179932 11.391656875610352 C9.125859260559082 14.308713912963867 10.469259262084961 17.233266830444336 12.13692855834961 20.865625381469727 C13.727618217468262 17.297985076904297 15.006982803344727 14.42793083190918 16.367414474487305 11.374624252319336 C15.141868591308594 10.833040237426758 14.186773300170898 10.410673141479492 13.231677055358887 9.98898696899414 C13.239171028137207 9.72330379486084 13.246664047241211 9.457621574401855 13.253477096557617 9.191938400268555 C15.64189624786377 8.690547943115234 18.101844787597656 8.974623680114746 20.534542083740234 9.051603317260742"></path></svg>