<svg xmlns="http://www.w3.org/2000/svg" viewBox="0.0 0.0 24.0 24.0" height="200px" width="200px"><path fill="none" stroke="black" stroke-width=".3" stroke-opacity="1.0"  filling="0" d="M9.354201316833496 3.596503257751465 C11.826172828674316 2.2771682739257812 15.40746021270752 2.996058464050293 16.760793685913086 5.083633899688721 C18.28302001953125 7.4311299324035645 17.709989547729492 9.865813255310059 15.145349502563477 11.944616317749023 C17.91617202758789 14.189022064208984 18.626834869384766 16.07370948791504 17.666122436523438 18.62957763671875 C16.77834129333496 20.9924259185791 14.655122756958008 22.251991271972656 11.777369499206543 22.122581481933594 C8.719758033752441 21.984943389892578 7.16517972946167 20.68260955810547 6.231884479522705 17.37933349609375 C6.883874893188477 17.135866165161133 7.545736312866211 16.888559341430664 8.270657539367676 16.617671966552734 C10.261175155639648 19.5316162109375 12.490775108337402 22.098453521728516 14.719278335571289 17.135318756103516 C15.684926986694336 14.985228538513184 14.065093994140625 13.734437942504883 10.171793937683105 13.117541313171387 C10.121893882751465 12.81978702545166 10.024287223815918 12.479260444641113 10.01990032196045 12.13708782196045 C10.016611099243164 11.882652282714844 10.13340950012207 11.626572608947754 10.225532531738281 11.253692626953125 C12.030159950256348 10.970743179321289 14.26195240020752 11.203245162963867 14.399588584899902 8.457097053527832 C14.469229698181152 7.0664753913879395 14.15995979309082 5.813491344451904 12.650894165039062 5.447192192077637 C10.802398681640625 4.998091697692871 9.77149772644043 6.125504016876221 9.100314140319824 7.913680076599121 C8.28656005859375 7.742594242095947 7.542446136474609 7.585765361785889 6.9414520263671875 7.4590959548950195 C6.542799949645996 6.396937847137451 7.979482650756836 4.330199241638184 9.354201316833496 3.596503257751465"></path></svg>