<svg xmlns="http://www.w3.org/2000/svg" viewBox="0.0 0.0 24.0 24.0" height="200px" width="200px"><path fill="none" stroke="black" stroke-width=".3" stroke-opacity="1.0"  filling="0" d="M16.86708641052246 4.393435478210449 C17.7044734954834 4.789966583251953 18.51670265197754 5.551881313323975 18.960556030273438 6.355724811553955 C19.254058837890625 6.887627124786377 19.124677658081055 8.040680885314941 18.716167449951172 8.463567733764648 C18.30466079711914 8.889449119567871 17.168378829956055 9.049379348754883 16.623897552490234 8.777438163757324 C16.177051544189453 8.554015159606934 16.075820922851562 7.536931037902832 15.935060501098633 6.848692417144775 C15.872164726257324 6.5456037521362305 16.090198516845703 6.1850128173828125 16.181243896484375 5.851375579833984 C10.967641830444336 4.337730407714844 8.328495979309082 6.426405429840088 8.351856231689453 12.040132522583008 C10.663355827331543 10.61573600769043 12.981443405151367 9.632195472717285 15.702651977539062 10.628912925720215 C18.425655364990234 11.626230239868164 20.026756286621094 13.66279411315918 20.014175415039062 16.40376853942871 C20.001598358154297 19.14833641052246 18.426855087280273 21.304100036621094 15.750570297241211 22.239723205566406 C10.943083763122559 23.921083450317383 6.536320209503174 21.680267333984375 5.31737756729126 16.791912078857422 C4.630336761474609 14.037761688232422 4.751332759857178 11.261445999145508 5.922356605529785 8.601934432983398 C7.81935453414917 4.290409564971924 12.634629249572754 2.388019561767578 16.86708641052246 4.393435478210449"></path>
<path fill="none" stroke="black" stroke-width=".3" stroke-opacity="1.0"  filling="0" d="M12.758020401000977 12.00119686126709 C15.274972915649414 12.047919273376465 17.035402297973633 14.029375076293945 16.973705291748047 16.746389389038086 C16.91440773010254 19.39571762084961 15.019804000854492 21.1507568359375 12.351306915283203 21.027963638305664 C9.834354400634766 20.91236114501953 8.12603759765625 18.894365310668945 8.246434211730957 16.178546905517578 C8.35125732421875 13.81074333190918 10.353677749633789 11.956273078918457 12.758020401000977 12.00119686126709"></path></svg>