<svg xmlns="http://www.w3.org/2000/svg" viewBox="0.0 0.0 24.0 24.0" height="200px" width="200px"><path fill="none" stroke="black" stroke-width=".3" stroke-opacity="1.0"  filling="0" d="M9.510468482971191 7.025760173797607 L9.510468482971191 7.025760173797607 C11.623857498168945 7.025760173797607 13.737244606018066 7.025760173797607 15.850632667541504 7.025760173797607 L15.850632667541504 7.025760173797607 C15.538859367370605 8.949894905090332 14.498818397521973 10.226325988769531 13.859932899475098 12.057188987731934 C13.2042236328125 13.93626594543457 12.975592613220215 15.860960006713867 12.762542724609375 17.825759887695312 L12.762542724609375 17.825759887695312 C12.162598609924316 17.825759887695312 11.562653541564941 17.825759887695312 10.962709426879883 17.825759887695312 L10.962709426879883 17.825759887695312 C11.02743148803711 16.042617797851562 11.356584548950195 14.464263916015625 11.90442180633545 12.957267761230469 C12.452259063720703 11.450271606445312 13.218778610229492 10.014632225036621 14.158236503601074 8.516918182373047 L14.158236503601074 8.516918182373047 C12.608977317810059 8.516918182373047 11.05972671508789 8.516918182373047 9.510468482971191 8.516918182373047 L9.510468482971191 8.516918182373047 C9.510468482971191 8.019865036010742 9.510468482971191 7.522812843322754 9.510468482971191 7.025760173797607 L9.510468482971191 7.025760173797607"></path></svg>