<svg xmlns="http://www.w3.org/2000/svg" viewBox="0.0 0.0 24.0 24.0" height="200px" width="200px"><path fill="none" stroke="black" stroke-width=".3" stroke-opacity="1.0"  filling="0" d="M16.91266632080078 7.76314640045166 L16.91266632080078 7.76314640045166 C16.911462783813477 7.768464088439941 16.166980743408203 11.05673599243164 16.16383934020996 11.0706148147583 L16.16383934020996 11.0706148147583 C16.026111602783203 11.065897941589355 15.888381958007812 11.06118106842041 15.750653266906738 11.056464195251465 L15.750653266906738 11.056464195251465 C15.694973945617676 10.585268020629883 15.571368217468262 9.13797664642334 15.285287857055664 8.834918022155762 C14.474848747253418 7.97637939453125 11.813825607299805 8.428141593933105 10.824400901794434 8.43669605255127 L10.824400901794434 8.43669605255127 C10.797174453735352 8.557229042053223 10.08311653137207 11.718761444091797 10.082365036010742 11.722089767456055 L10.082365036010742 11.722089767456055 C12.023825645446777 11.560219764709473 12.096210479736328 11.519341468811035 13.452942848205566 9.908883094787598 L13.452942848205566 9.908883094787598 C13.260140419006348 11.616411209106445 13.006786346435547 12.842899322509766 12.236309051513672 14.384026527404785 L12.236309051513672 14.384026527404785 C12.056412696838379 13.814716339111328 12.140353202819824 13.075568199157715 11.696619987487793 12.67609691619873 C11.266510963439941 12.28888988494873 10.558378219604492 12.466107368469238 9.989256858825684 12.361112594604492 L9.989256858825684 12.361112594604492 C9.705307960510254 13.605481147766113 9.42136001586914 14.849849700927734 9.137414932250977 16.094219207763672 L9.137414932250977 16.094219207763672 C10.439607620239258 16.10955047607422 12.914816856384277 16.625938415527344 14.005897521972656 15.609149932861328 C14.340185165405273 15.297623634338379 15.117633819580078 13.40847396850586 15.221153259277344 13.175314903259277 L15.221153259277344 13.175314903259277 C15.383597373962402 13.225406646728516 15.546041488647461 13.27549934387207 15.70848560333252 13.325591087341309 L15.70848560333252 13.325591087341309 C15.456815719604492 14.514117240905762 15.205130577087402 15.70263957977295 14.953431129455566 16.891159057617188 L14.953431129455566 16.891159057617188 C13.479923248291016 16.891159057617188 12.006415367126465 16.891159057617188 10.532907485961914 16.891159057617188 C9.05940055847168 16.891159057617188 7.585892677307129 16.891159057617188 6.11238431930542 16.891159057617188 L6.11238431930542 16.891159057617188 C6.5411376953125 16.43521499633789 7.160686016082764 16.13352394104004 7.7764482498168945 16.021488189697266 L7.7764482498168945 16.021488189697266 C8.298160552978516 13.592169761657715 8.819969177246094 11.162872314453125 9.341743469238281 8.733567237854004 L9.341743469238281 8.733567237854004 C8.839034080505371 8.50395679473877 8.336324691772461 8.274345397949219 7.833615303039551 8.044734954833984 L7.833615303039551 8.044734954833984 C9.313604354858398 7.700788497924805 10.831416130065918 7.571614742279053 12.355206489562988 7.557816028594971 C13.878995895385742 7.544017314910889 15.408763885498047 7.645593643188477 16.91266632080078 7.76314640045166 L16.91266632080078 7.76314640045166"></path></svg>