<svg xmlns="http://www.w3.org/2000/svg" viewBox="0.0 0.0 24.0 24.0" height="200px" width="200px"><path fill="none" stroke="black" stroke-width=".3" stroke-opacity="1.0"  filling="0" d="M10.442840576171875 8.542490005493164 L10.442840576171875 8.542490005493164 C11.455117225646973 10.535868644714355 12.467421531677246 12.529234886169434 13.479783058166504 14.522570610046387 L13.479783058166504 14.522570610046387 C13.547476768493652 14.508444786071777 13.615171432495117 14.494318008422852 13.682865142822266 14.480192184448242 L13.682865142822266 14.480192184448242 C14.041034698486328 12.791181564331055 14.399151802062988 11.10215950012207 14.757317543029785 9.41314697265625 L14.757317543029785 9.41314697265625 C14.276476860046387 9.247284889221191 13.795635223388672 9.081422805786133 13.314794540405273 8.915560722351074 L13.314794540405273 8.915560722351074 C14.49880599975586 8.576271057128906 15.767800331115723 8.57288646697998 16.99835968017578 8.625103950500488 L16.99835968017578 8.625103950500488 C15.903422355651855 9.683420181274414 15.33173942565918 10.879459381103516 14.953346252441406 12.173789978027344 C14.574953079223633 13.468119621276855 14.389851570129395 14.860738754272461 14.068077087402344 16.312213897705078 L14.068077087402344 16.312213897705078 C13.729686737060547 16.33030891418457 13.39129638671875 16.34840202331543 13.052906036376953 16.366497039794922 L13.052906036376953 16.366497039794922 C11.976341247558594 14.196981430053711 10.899839401245117 12.027435302734375 9.823358535766602 9.857879638671875 L9.823358535766602 9.857879638671875 C9.748204231262207 9.862879753112793 9.673050880432129 9.867878913879395 9.597896575927734 9.872879028320312 L9.597896575927734 9.872879028320312 C9.202526092529297 11.748644828796387 8.807049751281738 13.624388694763184 8.41154670715332 15.500125885009766 L8.41154670715332 15.500125885009766 C8.90453052520752 15.669717788696289 9.397513389587402 15.839309692382812 9.890497207641602 16.008901596069336 L9.890497207641602 16.008901596069336 C8.6953125 16.319400787353516 7.432554721832275 16.352684020996094 6.198359966278076 16.312213897705078 L6.198359966278076 16.312213897705078 C6.668646335601807 15.99302864074707 7.138932704925537 15.673844337463379 7.609219074249268 15.354659080505371 L7.609219074249268 15.354659080505371 C8.03724479675293 13.380732536315918 8.46536922454834 11.406827926635742 8.89341926574707 9.432908058166504 L8.89341926574707 9.432908058166504 C8.442065238952637 9.273873329162598 8.00255012512207 9.059462547302246 7.616600036621094 8.776522636413574 L7.616600036621094 8.776522636413574 C8.547215461730957 8.610523223876953 9.497658729553223 8.527280807495117 10.442840576171875 8.542490005493164 L10.442840576171875 8.542490005493164"></path></svg>