<svg xmlns="http://www.w3.org/2000/svg" viewBox="0.0 0.0 24.0 24.0" height="200px" width="200px"><path fill="none" stroke="black" stroke-width=".3" stroke-opacity="1.0"  filling="0" d="M12.3750638961792 2.419234275817871 C14.030843734741211 2.447260856628418 15.232696533203125 3.435892105102539 15.640460014343262 5.550540924072266 C16.0537166595459 7.692117691040039 16.173519134521484 9.890846252441406 16.41421890258789 11.996152877807617 C16.160329818725586 14.281160354614258 16.03668212890625 16.478240966796875 15.642107963562012 18.625864028930664 C15.273364067077637 20.632801055908203 13.987977981567383 21.625831604003906 12.270650863647461 21.618684768676758 C10.63630485534668 21.611541748046875 9.500944137573242 20.75425148010254 9.077795028686523 18.78523063659668 C8.125433921813965 14.354799270629883 8.139172554016113 9.879305839538574 9.032732009887695 5.442830562591553 C9.444341659545898 3.3996219635009766 10.72697925567627 2.391757011413574 12.3750638961792 2.419234275817871"></path>
<path fill="none" stroke="black" stroke-width=".3" stroke-opacity="1.0"  filling="0" d="M12.18712043762207 4.438812255859375 C12.761394500732422 5.033968925476074 13.725296020507812 5.5648298263549805 13.83575439453125 6.236373424530029 C14.158886909484863 8.202644348144531 14.142400741577148 10.225520133972168 14.253408432006836 12.129143714904785 C14.132509231567383 14.14487361907959 14.128662109375 16.071029663085938 13.84289836883545 17.95431900024414 C13.742881774902344 18.611024856567383 12.94714069366455 19.161670684814453 12.469037055969238 19.761220932006836 C11.906851768493652 19.149578094482422 10.884698867797852 18.55716896057129 10.857770919799805 17.92299461364746 C10.692907333374023 14.019027709960938 10.691808700561523 10.103520393371582 10.803365707397461 6.196805953979492 C10.820402145385742 5.598351001739502 11.704070091247559 5.024626731872559 12.18712043762207 4.438812255859375"></path></svg>