<svg xmlns="http://www.w3.org/2000/svg" viewBox="0.0 0.0 24.0 24.0" height="200px" width="200px"><path fill="none" stroke="black" stroke-width=".3" stroke-opacity="1.0"  filling="0" d="M9.912425994873047 6.978449821472168 L9.912425994873047 6.978449821472168 C10.286480903625488 6.978449821472168 10.660534858703613 6.978449821472168 11.034589767456055 6.978449821472168 L11.034589767456055 6.978449821472168 C11.390511512756348 9.411359786987305 11.746496200561523 11.844257354736328 12.102688789367676 14.277127265930176 L12.102688789367676 14.277127265930176 C12.163346290588379 14.279215812683105 12.224004745483398 14.281303405761719 12.284662246704102 14.283391952514648 L12.284662246704102 14.283391952514648 C12.490352630615234 12.748489379882812 12.688639640808105 11.212388038635254 12.906606674194336 9.679161071777344 C13.021759033203125 8.869153022766113 12.702323913574219 7.791510105133057 13.324822425842285 7.260598182678223 C13.598597526550293 7.027102947235107 14.033756256103516 7.136892795562744 14.388223648071289 7.075040340423584 L14.388223648071289 7.075040340423584 C14.10655403137207 8.8368501663208 13.82490348815918 10.598662376403809 13.543266296386719 12.360477447509766 C13.261629104614258 14.122291564941406 12.98000431060791 15.88410758972168 12.698385238647461 17.645925521850586 L12.698385238647461 17.645925521850586 C12.282464027404785 17.439119338989258 11.706396102905273 17.413240432739258 11.450620651245117 17.02550506591797 C10.837801933288574 16.096519470214844 11.118104934692383 14.824668884277344 10.949928283691406 13.724543571472168 C10.606122016906738 11.475537300109863 10.258310317993164 9.227139472961426 9.912425994873047 6.978449821472168 L9.912425994873047 6.978449821472168"></path></svg>