<svg xmlns="http://www.w3.org/2000/svg" viewBox="0.0 0.0 24.0 24.0" height="200px" width="200px"><path fill="none" stroke="black" stroke-width=".3" stroke-opacity="1.0"  filling="0" d="M15.48996353149414 7.1495537757873535 L15.48996353149414 7.1495537757873535 C15.597268104553223 7.212507247924805 15.704571723937988 7.275460243225098 15.81187629699707 7.338413715362549 L15.81187629699707 7.338413715362549 C15.613834381103516 9.031846046447754 15.415751457214355 10.725274085998535 15.217679023742676 12.418703079223633 C15.019607543945312 14.112133026123047 14.821544647216797 15.805562973022461 14.623541831970215 17.499000549316406 L14.623541831970215 17.499000549316406 C12.734253883361816 15.970582962036133 12.931142807006836 13.128339767456055 12.430373191833496 10.800946235656738 L12.430373191833496 10.800946235656738 C12.054309844970703 13.183810234069824 11.678266525268555 15.566679000854492 11.302260398864746 17.949552536010742 L11.302260398864746 17.949552536010742 C10.237800598144531 16.77426528930664 9.787740707397461 14.89736557006836 9.554205894470215 12.92461109161377 C9.320672035217285 10.95185661315918 9.30366325378418 8.883247375488281 9.105307579040527 7.324540138244629 L9.105307579040527 7.324540138244629 C9.462742805480957 7.324540138244629 9.820178985595703 7.324540138244629 10.177614212036133 7.324540138244629 L10.177614212036133 7.324540138244629 C10.427351951599121 9.494994163513184 10.67697811126709 11.66545581817627 10.926431655883789 13.835943222045898 L10.926431655883789 13.835943222045898 C10.98223876953125 13.836468696594238 11.038044929504395 13.836993217468262 11.093852043151855 13.837518692016602 L11.093852043151855 13.837518692016602 C11.403759956359863 11.482629776000977 11.105263710021973 8.85150146484375 12.983394622802734 7.282607078552246 L12.983394622802734 7.282607078552246 C13.280000686645508 9.233626365661621 13.57654094696045 11.184661865234375 13.873147964477539 13.135680198669434 L13.873147964477539 13.135680198669434 C13.968260765075684 13.141144752502441 14.063373565673828 13.146610260009766 14.158486366271973 13.152074813842773 L14.158486366271973 13.152074813842773 C14.364625930786133 11.389749526977539 14.095353126525879 8.300640106201172 15.48996353149414 7.1495537757873535 L15.48996353149414 7.1495537757873535"></path></svg>