<svg xmlns="http://www.w3.org/2000/svg" viewBox="0.0 0.0 24.0 24.0" height="200px" width="200px"><path fill="none" stroke="black" stroke-width=".3" stroke-opacity="1.0"  filling="0" d="M14.731267929077148 7.5241312980651855 C17.549673080444336 8.421032905578613 18.31812286376953 9.651455879211426 17.773521423339844 12.552488327026367 C17.31380271911621 15.002817153930664 16.695587158203125 17.422348022460938 16.22685432434082 19.871173858642578 C16.00300407409668 21.040000915527344 15.9631929397583 22.24413299560547 15.830235481262207 23.533145904541016 C19.070798873901367 23.572208404541016 18.09126853942871 20.340660095214844 19.74760627746582 19.361879348754883 C20.590423583984375 21.865541458129883 19.652957916259766 24.39549446105957 17.562442779541016 25.408077239990234 C15.519248962402344 26.396621704101562 14.206197738647461 25.91436767578125 12.48600959777832 23.666854858398438 C10.09277057647705 24.482629776000977 8.153990745544434 25.39004898071289 6.116807460784912 25.769390106201172 C4.049577236175537 26.15399169921875 2.0897645950317383 25.510986328125 1.1417837142944336 23.34986114501953 C0.35906028747558594 21.565820693969727 1.2108917236328125 19.12074851989746 3.308168411254883 17.876806259155273 C4.88413143157959 16.94159507751465 6.7305169105529785 16.447322845458984 8.482254028320312 15.829858779907227 C9.772019386291504 15.375399589538574 11.12413215637207 15.096713066101074 12.411643028259277 14.63624382019043 C14.123568534851074 14.023285865783691 15.420845031738281 12.665163040161133 14.671175003051758 10.98103141784668 C14.204694747924805 9.933144569396973 12.483004570007324 9.13164234161377 11.190986633300781 8.86121940612793 C10.119813919067383 8.637369155883789 8.851831436157227 9.351736068725586 7.4869489669799805 9.696524620056152 C7.933897495269775 11.476054191589355 8.576150894165039 13.281876564025879 6.312864303588867 13.768636703491211 C5.666854381561279 13.90760612487793 4.388356685638428 13.401315689086914 4.184789180755615 12.883005142211914 C3.4538965225219727 11.020845413208008 4.763192653656006 9.764131546020508 6.14234733581543 8.905539512634277 C8.77070426940918 7.2694830894470215 11.64544677734375 6.541595935821533 14.731267929077148 7.5241312980651855"></path>
<path fill="none" stroke="black" stroke-width=".3" stroke-opacity="1.0"  filling="0" d="M13.329577445983887 16.182910919189453 C13.234930038452148 20.492395401000977 11.390798568725586 23.092958450317383 7.956431865692139 23.456527709960938 C6.934084415435791 23.564697265625 5.185352325439453 23.02159881591797 4.905914783477783 22.32300567626953 C4.572394371032715 21.48920440673828 5.127511501312256 19.682628631591797 5.889952659606934 19.158309936523438 C7.4711737632751465 18.07061195373535 9.436244010925293 17.535022735595703 11.257841110229492 16.809391021728516 C11.906854629516602 16.55098533630371 12.598686218261719 16.399999618530273 13.329577445983887 16.182910919189453"></path></svg>