<svg xmlns="http://www.w3.org/2000/svg" viewBox="0.0 0.0 24.0 24.0" height="200px" width="200px"><path fill="none" stroke="black" stroke-width=".3" stroke-opacity="1.0"  filling="0" d="M10.818452835083008 2.8856687545776367 C10.818452835083008 6.012033939361572 10.818452835083008 8.89128589630127 10.818452835083008 12.109113693237305 C11.92137336730957 11.69511890411377 12.684109687805176 11.335144996643066 13.486427307128906 11.12226390838623 C15.70831298828125 10.532293319702148 17.442922592163086 11.544817924499512 17.805038452148438 13.825004577636719 C18.054290771484375 15.393267631530762 17.851037979125977 17.028926849365234 18.032896041870117 18.613239288330078 C18.157522201538086 19.69904136657715 18.59665870666504 20.748470306396484 18.934165954589844 21.954090118408203 C17.37606430053711 21.954090118408203 15.427502632141113 21.954090118408203 13.350568771362305 21.954090118408203 C15.204458236694336 19.57280921936035 14.316024780273438 16.891998291015625 14.270560264587402 14.342233657836914 C14.262537002563477 13.896678924560547 13.183152198791504 13.128593444824219 12.604413986206055 13.133407592773438 C12.057767868041992 13.138221740722656 11.05219554901123 13.966748237609863 11.053266525268555 14.430486679077148 C11.060218811035156 16.972766876220703 9.934834480285645 19.692623138427734 12.341253280639648 22.085670471191406 C10.00329875946045 22.085670471191406 8.059550285339355 22.085670471191406 5.503900051116943 22.085670471191406 C7.701181411743164 20.879520416259766 7.437486171722412 19.198932647705078 7.43106746673584 17.584667205810547 C7.419300079345703 14.55511474609375 7.48562479019165 11.523423194885254 7.395765781402588 8.496545791625977 C7.358858585357666 7.249208927154541 7.001025199890137 6.010964393615723 6.736260414123535 4.458212375640869 C7.769645690917969 4.060263156890869 9.138400077819824 3.532872200012207 10.818452835083008 2.8856687545776367"></path></svg>