<svg xmlns="http://www.w3.org/2000/svg" viewBox="0.0 0.0 24.0 24.0" height="200px" width="200px"><path fill="none" stroke="black" stroke-width=".3" stroke-opacity="1.0"  filling="0" d="M10.445033073425293 9.405059814453125 L10.445033073425293 9.405059814453125 C10.109416961669922 11.165040016174316 9.797412872314453 12.932368278503418 9.433316230773926 14.686721801757812 C9.310137748718262 15.280241012573242 8.941256523132324 16.519262313842773 9.06948471069336 17.089920043945312 C9.49044418334961 18.963333129882812 11.550241470336914 18.72549819946289 12.710665702819824 17.784757614135742 C14.738849639892578 16.140535354614258 15.014975547790527 13.371171951293945 15.436054229736328 11.004429817199707 L15.436054229736328 11.004429817199707 C14.795151710510254 10.691679954528809 14.154242515563965 10.378944396972656 13.513325691223145 10.06622314453125 L13.513325691223145 10.06622314453125 C13.533013343811035 9.942856788635254 13.552700996398926 9.819491386413574 13.572388648986816 9.696125030517578 L13.572388648986816 9.696125030517578 C14.892733573913574 9.696125030517578 16.213077545166016 9.696125030517578 17.533422470092773 9.696125030517578 L17.533422470092773 9.696125030517578 C17.255393981933594 11.023992538452148 16.977317810058594 12.351849555969238 16.699207305908203 13.679699897766113 C16.42109489440918 15.007549285888672 16.14295196533203 16.335391998291016 15.864790916442871 17.663232803344727 L15.864790916442871 17.663232803344727 C16.437997817993164 18.002737045288086 17.01120376586914 18.342243194580078 17.58441162109375 18.681747436523438 L17.58441162109375 18.681747436523438 C17.56316566467285 18.841089248657227 17.541919708251953 19.00043296813965 17.520673751831055 19.159774780273438 L17.520673751831055 19.159774780273438 C16.254621505737305 19.1661376953125 14.436513900756836 19.705265045166016 13.734704971313477 18.485864639282227 L13.734704971313477 18.485864639282227 C13.020026206970215 18.740480422973633 10.968560218811035 19.54137420654297 10.131022453308105 19.583412170410156 C7.785055160522461 19.701160430908203 7.213766574859619 18.197546005249023 7.289304733276367 16.339574813842773 C7.364842414855957 14.481603622436523 8.087206840515137 12.26927375793457 8.328544616699219 10.969587326049805 L8.328544616699219 10.969587326049805 C7.813692092895508 10.666199684143066 7.298839092254639 10.362812995910645 6.783986568450928 10.059425354003906 L6.783986568450928 10.059425354003906 C6.799000263214111 9.907023429870605 6.814013957977295 9.754620552062988 6.8290276527404785 9.602218627929688 L6.8290276527404785 9.602218627929688 C7.571228504180908 9.561752319335938 9.760039329528809 9.44240951538086 10.445033073425293 9.405059814453125 L10.445033073425293 9.405059814453125"></path></svg>