<svg xmlns="http://www.w3.org/2000/svg" viewBox="0.0 0.0 24.0 24.0" height="200px" width="200px"><path fill="none" stroke="black" stroke-width=".3" stroke-opacity="1.0"  filling="0" d="M12.87917423248291 6.9422712326049805 C15.063002586364746 10.275964736938477 14.5460205078125 14.16705322265625 15.731722831726074 17.868274688720703 C16.640636444091797 14.129690170288086 17.499984741210938 10.593168258666992 18.389070510864258 7.065034866333008 C18.391357421875 7.055122375488281 18.838951110839844 7.1580610275268555 19.558761596679688 7.3082756996154785 C18.721525192260742 13.533406257629395 17.880475997924805 19.78446388244629 17.0394287109375 26.036285400390625 C16.637584686279297 26.07212257385254 16.23650550842285 26.107196807861328 15.834661483764648 26.143035888671875 C13.600507736206055 23.20050811767578 14.581095695495605 19.16530418395996 12.919587135314941 15.162127494812012 C11.61417007446289 19.265193939208984 12.297379493713379 23.019794464111328 10.564956665039062 26.119396209716797 C10.134138107299805 26.105670928955078 9.702557563781738 26.092708587646484 9.27173900604248 26.078983306884766 C8.302589416503906 19.93848991394043 7.334201812744141 13.797235488891602 6.3513264656066895 7.569817066192627 C8.347578048706055 6.298713207244873 8.8088960647583 7.52406644821167 9.009435653686523 9.067387580871582 C9.39984130859375 12.073202133178711 9.740682601928711 15.085116386413574 10.160062789916992 18.575122833251953 C11.698808670043945 14.554408073425293 10.946210861206055 10.487943649291992 12.87917423248291 6.9422712326049805"></path></svg>