<svg xmlns="http://www.w3.org/2000/svg" viewBox="0.0 0.0 24.0 24.0" height="200px" width="200px"><path fill="none" stroke="black" stroke-width=".3" stroke-opacity="1.0"  filling="0" d="M11.77852725982666 10.589300155639648 L11.77852725982666 10.589300155639648 C11.318191528320312 10.96914005279541 10.857856750488281 11.348978996276855 10.397521018981934 11.728818893432617 L10.397521018981934 11.728818893432617 C10.739847183227539 12.264290809631348 11.082172393798828 12.799762725830078 11.424498558044434 13.335234642028809 L11.424498558044434 13.335234642028809 C11.84249210357666 13.000073432922363 13.152962684631348 11.949249267578125 13.567371368408203 11.616933822631836 L13.567371368408203 11.616933822631836 C13.221982955932617 11.411538124084473 12.876594543457031 11.206143379211426 12.531206130981445 11.000747680664062 L12.531206130981445 11.000747680664062 C12.538206100463867 10.884378433227539 12.545205116271973 10.768010139465332 12.552205085754395 10.651640892028809 L12.552205085754395 10.651640892028809 C13.831498146057129 10.560821533203125 15.128052711486816 10.6287841796875 16.39598846435547 10.821599960327148 L16.39598846435547 10.821599960327148 C14.708329200744629 11.757575988769531 13.33771800994873 12.808571815490723 11.892380714416504 14.089554786682129 L11.892380714416504 14.089554786682129 C12.949378967285156 15.381053924560547 14.006354331970215 16.672569274902344 15.063215255737305 17.964181900024414 L15.063215255737305 17.964181900024414 C13.617955207824707 18.067550659179688 12.198274612426758 18.052148818969727 10.749908447265625 18.042598724365234 L10.749908447265625 18.042598724365234 C10.706598281860352 17.91496467590332 10.663288116455078 17.787330627441406 10.619977951049805 17.659696578979492 L10.619977951049805 17.659696578979492 C11.155012130737305 17.41438102722168 11.690047264099121 17.1690673828125 12.225081443786621 16.923751831054688 L12.225081443786621 16.923751831054688 C11.77877140045166 16.254722595214844 11.33243179321289 15.585711479187012 10.886073112487793 14.916714668273926 L10.886073112487793 14.916714668273926 C10.824925422668457 14.968130111694336 8.546140670776367 16.884075164794922 8.49777603149414 16.92473602294922 L8.49777603149414 16.92473602294922 C8.998578071594238 17.20176887512207 9.499380111694336 17.47879981994629 10.000182151794434 17.75583267211914 L10.000182151794434 17.75583267211914 C8.447319984436035 18.051956176757812 7.169375419616699 18.059879302978516 5.596646308898926 17.94154167175293 L5.596646308898926 17.94154167175293 C7.176105499267578 16.7679386138916 8.75561237335205 15.594399452209473 10.335180282592773 14.420944213867188 L10.335180282592773 14.420944213867188 C9.368062019348145 12.6070556640625 8.707850456237793 11.912246704101562 6.991105079650879 10.774024963378906 L6.991105079650879 10.774024963378906 C8.641951560974121 10.50915813446045 10.110162734985352 10.516469955444336 11.77852725982666 10.589300155639648 L11.77852725982666 10.589300155639648"></path></svg>