<svg xmlns="http://www.w3.org/2000/svg" viewBox="0.0 0.0 24.0 24.0" height="200px" width="200px"><path fill="none" stroke="black" stroke-width=".3" stroke-opacity="1.0"  filling="0" d="M12.750890731811523 6.92176628112793 L12.750890731811523 6.92176628112793 C13.168292999267578 7.14226770401001 13.732451438903809 7.196493148803711 14.003096580505371 7.583270072937012 C14.375151634216309 8.114971160888672 14.351702690124512 8.83346939086914 14.526005744934082 9.458569526672363 L14.526005744934082 9.458569526672363 C14.171126365661621 9.534872055053711 13.816247940063477 9.611174583435059 13.461368560791016 9.687477111816406 L13.461368560791016 9.687477111816406 C13.194001197814941 9.15860366821289 12.926633834838867 8.629730224609375 12.659266471862793 8.10085678100586 L12.659266471862793 8.10085678100586 C12.149675369262695 9.450796127319336 11.892579078674316 10.85580825805664 11.886685371398926 12.262173652648926 C11.880791664123535 13.668539047241211 12.126100540161133 15.07625961303711 12.621320724487305 16.431615829467773 L12.621320724487305 16.431615829467773 C12.955158233642578 16.043594360351562 13.202546119689941 15.575504302978516 13.374371528625488 15.093338012695312 L13.374371528625488 15.093338012695312 C13.768532752990723 15.161722183227539 14.162694931030273 15.230107307434082 14.556856155395508 15.298491477966309 L14.556856155395508 15.298491477966309 C14.332507133483887 16.545570373535156 13.693404197692871 18.425132751464844 11.821879386901855 17.57546043395996 C10.755167961120605 17.09117317199707 10.677279472351074 15.772470474243164 10.540425300598145 14.8514404296875 C10.331807136535645 13.44743537902832 10.083892822265625 11.735594749450684 10.288398742675781 10.239466667175293 C10.492903709411621 8.743337631225586 11.149829864501953 7.462922096252441 12.750890731811523 6.92176628112793 L12.750890731811523 6.92176628112793"></path></svg>