<svg xmlns="http://www.w3.org/2000/svg" viewBox="0.0 0.0 24.0 24.0" height="200px" width="200px"><path fill="none" stroke="black" stroke-width=".3" stroke-opacity="1.0"  filling="0" d="M19.3258056640625 3.052640914916992 C19.3258056640625 5.538914203643799 19.3258056640625 7.61794900894165 19.3258056640625 9.873102188110352 C18.675281524658203 9.925990104675293 18.106733322143555 9.97253131866455 17.513856887817383 10.021188735961914 C17.184892654418945 9.179208755493164 16.919921875 8.446178436279297 16.614229202270508 7.730600833892822 C15.91716194152832 6.099529266357422 14.598658561706543 5.289810657501221 12.89460277557373 5.212594509124756 C11.105924606323242 5.13114595413208 9.556300163269043 5.767920017242432 8.732301712036133 7.453995227813721 C7.152002811431885 10.688636779785156 7.3043212890625 13.938087463378906 9.04857349395752 17.05796241760254 C9.78953742980957 18.38334083557129 11.098520278930664 18.93707847595215 12.618526458740234 18.900585174560547 C14.727706909179688 18.849285125732422 15.599835395812988 17.961292266845703 15.637384414672852 15.814030647277832 C15.647961616516113 15.203701972961426 15.576562881469727 14.592313766479492 15.533724784851074 13.81591510772705 C14.717130661010742 13.590082168579102 13.911643981933594 13.366894721984863 13.01941967010498 13.119906425476074 C13.01941967010498 12.615882873535156 13.01941967010498 12.110799789428711 13.01941967010498 11.442822456359863 C15.901296615600586 11.442822456359863 18.77206802368164 11.442822456359863 22.05166244506836 11.442822456359863 C21.833236694335938 12.13830280303955 21.7301025390625 13.23996353149414 21.428638458251953 13.296553611755371 C19.75155258178711 13.614412307739258 19.971040725708008 14.830841064453125 19.950942993164062 15.94678020477295 C19.92291259765625 17.517032623291016 19.944067001342773 19.08833885192871 19.944067001342773 21.209156036376953 C18.591716766357422 20.68767738342285 17.6402587890625 20.320632934570312 16.589900970458984 19.914981842041016 C12.066902160644531 22.193405151367188 7.519047260284424 21.55028533935547 4.82492208480835 18.140583038330078 C2.201138496398926 14.819734573364258 2.1932058334350586 9.305611610412598 4.807997703552246 6.086836338043213 C7.573522567749023 2.681365966796875 11.893430709838867 2.0022811889648438 16.16150665283203 4.088191986083984 C17.464672088623047 3.661383628845215 18.268043518066406 3.398529052734375 19.3258056640625 3.052640914916992"></path></svg>