<svg xmlns="http://www.w3.org/2000/svg" viewBox="0.0 0.0 24.0 24.0" height="200px" width="200px"><path fill="none" stroke="black" stroke-width=".3" stroke-opacity="1.0"  filling="0" d="M11.623202323913574 6.959911823272705 L11.623202323913574 6.959911823272705 C11.623202323913574 8.023201942443848 11.623202323913574 9.086492538452148 11.623202323913574 10.149782180786133 L11.623202323913574 10.149782180786133 C11.708517074584961 10.167330741882324 11.793831825256348 10.184879302978516 11.879146575927734 10.202427864074707 L11.879146575927734 10.202427864074707 C11.942007064819336 10.043050765991211 13.085386276245117 7.143861770629883 13.138340950012207 7.009578227996826 L13.138340950012207 7.009578227996826 C13.57087516784668 7.009578227996826 14.003409385681152 7.009578227996826 14.435943603515625 7.009578227996826 L14.435943603515625 7.009578227996826 C14.738515853881836 8.060893058776855 13.271744728088379 9.700395584106445 13.111536979675293 10.884132385253906 C12.779218673706055 13.339555740356445 14.051582336425781 15.459543228149414 14.774001121520996 17.71223258972168 L14.774001121520996 17.71223258972168 C14.22469711303711 17.71223258972168 13.675394058227539 17.71223258972168 13.126090049743652 17.71223258972168 L13.126090049743652 17.71223258972168 C12.716819763183594 16.363506317138672 12.30746078491211 15.014798164367676 11.898019790649414 13.666122436523438 L11.898019790649414 13.666122436523438 C11.817892074584961 13.674510955810547 11.737764358520508 13.68289852142334 11.657636642456055 13.69128704071045 L11.657636642456055 13.69128704071045 C11.657636642456055 15.047605514526367 11.657636642456055 16.4039249420166 11.657636642456055 17.760242462158203 L11.657636642456055 17.760242462158203 C11.134600639343262 17.760242462158203 10.611563682556152 17.760242462158203 10.08852767944336 17.760242462158203 L10.08852767944336 17.760242462158203 C10.08852767944336 15.971776962280273 10.08852767944336 14.183310508728027 10.08852767944336 12.394844055175781 C10.08852767944336 10.606377601623535 10.08852767944336 8.817910194396973 10.08852767944336 7.029444217681885 L10.08852767944336 7.029444217681885 C10.600086212158203 7.0062665939331055 11.11164379119873 6.983089447021484 11.623202323913574 6.959911823272705 L11.623202323913574 6.959911823272705"></path></svg>