<svg xmlns="http://www.w3.org/2000/svg" viewBox="0.0 0.0 24.0 24.0" height="200px" width="200px"><path fill="none" stroke="black" stroke-width=".3" stroke-opacity="1.0"  filling="0" d="M2.9900684356689453 3.153416633605957 C6.5434980392456055 3.153416633605957 10.046028137207031 3.153416633605957 13.752153396606445 3.153416633605957 C13.806602478027344 3.746443748474121 13.85690975189209 4.296267509460449 13.92260456085205 5.012397766113281 C12.960858345031738 5.261563777923584 12.055929183959961 5.495342254638672 10.911895751953125 5.791264057159424 C10.911895751953125 10.482808113098145 10.911895751953125 15.13765811920166 10.911895751953125 20.11565399169922 C12.117480278015137 20.11565399169922 13.270984649658203 20.152347564697266 14.420936584472656 20.108552932739258 C17.29492950439453 19.99846839904785 18.27798080444336 19.223154067993164 18.797027587890625 16.36040687561035 C19.03435707092285 15.050657272338867 19.183502197265625 13.96107292175293 21.173870086669922 14.51503849029541 C21.173870086669922 17.007883071899414 21.173870086669922 19.591873168945312 21.173870086669922 22.353416442871094 C15.173169136047363 22.353416442871094 9.209753036499023 22.353416442871094 2.961660385131836 22.353416442871094 C2.961660385131836 21.673389434814453 2.961660385131836 21.185115814208984 2.961660385131836 20.49384307861328 C3.7807722091674805 20.24053382873535 4.657291889190674 19.9688777923584 5.684140682220459 19.651058197021484 C5.684140682220459 15.09622859954834 5.684140682220459 10.601177215576172 5.684140682220459 5.9108171463012695 C4.825376033782959 5.634425640106201 3.9352426528930664 5.347380638122559 2.9900684356689453 5.043765068054199 C2.9900684356689453 4.454881191253662 2.9900684356689453 3.884343147277832 2.9900684356689453 3.153416633605957"></path></svg>