<svg xmlns="http://www.w3.org/2000/svg" viewBox="0.0 0.0 24.0 24.0" height="200px" width="200px"><path fill="none" stroke="black" stroke-width=".3" stroke-opacity="1.0"  filling="0" d="M16.2582950592041 7.098985195159912 L16.2582950592041 7.098985195159912 C16.2582950592041 8.357673645019531 16.2582950592041 9.616361618041992 16.2582950592041 10.875049591064453 L16.2582950592041 10.875049591064453 C15.87429428100586 10.905282020568848 15.4902925491333 10.935514450073242 15.106291770935059 10.965746879577637 L15.106291770935059 10.965746879577637 C14.5458345413208 9.75429630279541 13.938679695129395 8.299642562866211 12.309446334838867 8.326622009277344 C11.641398429870605 8.337684631347656 9.081470489501953 8.941119194030762 10.495084762573242 10.278182029724121 C12.056351661682129 11.754901885986328 14.979525566101074 10.862300872802734 16.377046585083008 12.709088325500488 C17.634437561035156 14.370697975158691 16.554861068725586 16.43311882019043 14.92428207397461 17.222911834716797 C13.073846817016602 18.11919593811035 11.489564895629883 17.571218490600586 9.773929595947266 16.801401138305664 L9.773929595947266 16.801401138305664 C9.169488906860352 17.03444480895996 8.565048217773438 17.26749038696289 7.960607051849365 17.500534057617188 L7.960607051849365 17.500534057617188 C7.960607051849365 16.14018440246582 7.960607051849365 14.779830932617188 7.960607051849365 13.419482231140137 L7.960607051849365 13.419482231140137 C8.331183433532715 13.383613586425781 8.701759338378906 13.347744941711426 9.072335243225098 13.31187629699707 L9.072335243225098 13.31187629699707 C9.726945877075195 14.412474632263184 10.076255798339844 15.543935775756836 11.384132385253906 16.023149490356445 C12.343789100646973 16.374773025512695 15.592411041259766 15.799418449401855 14.129609107971191 14.162081718444824 C12.73780632019043 12.604214668273926 9.752433776855469 13.59691047668457 8.293994903564453 11.750236511230469 C6.823563575744629 9.88837718963623 8.496071815490723 7.917569637298584 10.156394004821777 7.17769193649292 C11.695581436157227 6.491794586181641 13.113338470458984 7.13449764251709 14.521834373474121 7.722487926483154 L14.521834373474121 7.722487926483154 C15.100654602050781 7.51465368270874 15.679474830627441 7.306819438934326 16.2582950592041 7.098985195159912 L16.2582950592041 7.098985195159912"></path></svg>