<svg xmlns="http://www.w3.org/2000/svg" viewBox="0.0 0.0 24.0 24.0" height="200px" width="200px"><path fill="none" stroke="black" stroke-width=".3" stroke-opacity="1.0"  filling="0" d="M10.201499938964844 7.051208019256592 L10.201499938964844 7.051208019256592 C11.484365463256836 7.051208019256592 12.767230987548828 7.051208019256592 14.05009651184082 7.051208019256592 L14.05009651184082 7.051208019256592 C13.79989242553711 8.655993461608887 13.399869918823242 10.213396072387695 12.968408584594727 11.76365852355957 C12.536947250366211 13.313920974731445 12.07404613494873 14.857043266296387 11.698083877563477 16.43326759338379 L11.698083877563477 16.43326759338379 C12.474203109741211 16.505117416381836 13.250320434570312 16.576988220214844 14.026436805725098 16.648874282836914 L14.026436805725098 16.648874282836914 C14.026436805725098 17.049652099609375 14.026436805725098 17.450429916381836 14.026436805725098 17.851207733154297 L14.026436805725098 17.851207733154297 C12.676480293273926 17.851207733154297 11.326519012451172 17.851207733154297 9.9765625 17.851207733154297 L9.9765625 17.851207733154297 C10.204850196838379 16.22417449951172 10.605965614318848 14.652713775634766 11.042745590209961 13.089113235473633 C11.479524612426758 11.525511741638184 11.951967239379883 9.969770431518555 12.32291030883789 8.374174118041992 L12.32291030883789 8.374174118041992 C11.676200866699219 8.339738845825195 11.029491424560547 8.305304527282715 10.382781982421875 8.270869255065918 L10.382781982421875 8.270869255065918 C10.322354316711426 7.864315509796143 10.261927604675293 7.457761764526367 10.201499938964844 7.051208019256592 L10.201499938964844 7.051208019256592"></path></svg>