<svg xmlns="http://www.w3.org/2000/svg" viewBox="0.0 0.0 24.0 24.0" height="200px" width="200px"><path fill="none" stroke="black" stroke-width=".3" stroke-opacity="1.0"  filling="0" d="M12.189228057861328 3.116506576538086 C14.083219528198242 3.116506576538086 16.04550552368164 3.116506576538086 18.335596084594727 3.116506576538086 C18.335596084594727 8.42856216430664 18.335596084594727 13.783868789672852 18.335596084594727 18.712345123291016 C19.473241806030273 19.67812156677246 20.21706771850586 20.308692932128906 20.9603214263916 20.939834594726562 C20.845932006835938 21.18000030517578 20.73211097717285 21.420162200927734 20.617717742919922 21.660892486572266 C18.436328887939453 21.538536071777344 16.15591049194336 22.373985290527344 13.746877670288086 20.82999610900879 C13.487933158874512 20.991622924804688 12.885248184204102 21.457725524902344 12.211992263793945 21.77130126953125 C9.380109786987305 23.091064453125 6.363837242126465 21.947725296020508 5.1379780769348145 19.062915802001953 C4.089111804962158 16.594694137573242 4.122689723968506 14.03598403930664 5.023587703704834 11.560933113098145 C6.238633632659912 8.22368335723877 9.901982307434082 7.126442909240723 12.952970504760742 9.071653366088867 C13.330289840698242 9.312955856323242 13.682568550109863 9.592957496643066 14.26305866241455 10.010113716125488 C14.26305866241455 8.421163558959961 14.26305866241455 7.1372551918029785 14.26305866241455 6.124243259429932 C13.733787536621094 4.782286643981934 11.066946983337402 5.467492580413818 12.189228057861328 3.116506576538086"></path>
<path fill="none" stroke="black" stroke-width=".3" stroke-opacity="1.0"  filling="0" d="M11.560364723205566 10.81027889251709 C12.833459854125977 10.846701622009277 13.715578079223633 11.456786155700684 14.039968490600586 12.705978393554688 C14.250537872314453 13.518664360046387 14.345579147338867 14.3615140914917 14.492979049682617 15.191843032836914 C14.284685134887695 16.23558807373047 14.320539474487305 17.394861221313477 13.81175708770752 18.217220306396484 C13.342242240905762 18.975841522216797 12.318986892700195 19.745845794677734 11.483534812927246 19.812429428100586 C10.821662902832031 19.8653564453125 9.581575393676758 18.95364761352539 9.460925102233887 18.309415817260742 C9.124582290649414 16.51160430908203 9.093850135803223 14.619890213012695 9.224176406860352 12.78508472442627 C9.310110092163086 11.57516098022461 10.199057579040527 10.77157974243164 11.560364723205566 10.81027889251709"></path></svg>