<svg xmlns="http://www.w3.org/2000/svg" viewBox="0.0 0.0 24.0 24.0" height="200px" width="200px"><path fill="none" stroke="black" stroke-width=".3" stroke-opacity="1.0"  filling="0" d="M17.35036849975586 5.790865898132324 C18.85293197631836 5.377851963043213 20.563369750976562 6.194605350494385 20.87490463256836 7.545496463775635 C21.01784896850586 8.163655281066895 20.907642364501953 9.096075057983398 20.51535987854004 9.508543968200684 C20.1285343170166 9.915011405944824 19.11972999572754 10.121790885925293 18.608509063720703 9.899188995361328 C18.16439437866211 9.706048965454102 17.985984802246094 8.806364059448242 17.78684425354004 8.188206672668457 C17.692455291748047 7.894131183624268 17.822853088378906 7.527491569519043 17.873046875 6.947525501251221 C17.19214630126953 7.261241912841797 16.739303588867188 7.4702043533325195 16.315921783447266 7.66552734375 C17.634077072143555 13.411177635192871 15.216005325317383 16.074222564697266 9.45889663696289 15.410234451293945 C8.414084434509277 15.289657592773438 8.414084434509277 15.289657592773438 7.14339542388916 16.372116088867188 C8.458822250366211 16.47250747680664 9.384150505065918 16.57180404663086 10.311660766601562 16.607812881469727 C12.125215530395508 16.67819595336914 13.958410263061523 16.570165634155273 15.748504638671875 16.805864334106445 C17.3803768157959 17.020828247070312 18.594324111938477 17.989803314208984 18.856754302978516 19.772258758544922 C19.083175659179688 21.30974578857422 18.16766929626465 23.121116638183594 16.61600112915039 23.76055335998535 C13.118196487426758 25.20310401916504 9.492724418640137 25.232563018798828 5.9676408767700195 23.983699798583984 C3.7377967834472656 23.192588806152344 3.7574377059936523 21.447778701782227 5.932721138000488 19.22884750366211 C3.9734926223754883 16.84023666381836 4.017686367034912 16.402124404907227 6.394294261932373 14.153731346130371 C4.9621100425720215 11.998634338378906 4.313944339752197 9.720234870910645 6.216976165771484 7.482753276824951 C7.949782848358154 5.444960117340088 11.283907890319824 5.18743896484375 15.219822883605957 6.717284679412842 C15.874536514282227 6.425392150878906 16.583263397216797 6.001465320587158 17.35036849975586 5.790865898132324"></path>
<path fill="none" stroke="black" stroke-width=".3" stroke-opacity="1.0"  filling="0" d="M11.142053604125977 7.639883518218994 C11.634180068969727 7.582050800323486 12.564962387084961 8.459911346435547 12.731369018554688 9.073705673217773 C13.00089168548584 10.068323135375977 13.037992477416992 11.265901565551758 12.721548080444336 12.22996711730957 C12.506585121154785 12.883587837219238 11.488505363464355 13.717801094055176 10.885624885559082 13.67524528503418 C10.27292251586914 13.632143020629883 9.655309677124023 12.664259910583496 9.187190055847168 11.998089790344238 C8.966224670410156 11.683828353881836 9.09007453918457 11.126775741577148 9.054064750671387 10.631376266479492 C9.097712516784668 10.141433715820312 8.956403732299805 9.45671272277832 9.235201835632324 9.10371208190918 C9.732783317565918 8.473551750183105 10.44587516784668 7.721722602844238 11.142053604125977 7.639883518218994"></path>
<path fill="none" stroke="black" stroke-width=".3" stroke-opacity="1.0"  filling="0" d="M8.696701049804688 20.13835334777832 C10.983285903930664 19.800630569458008 13.317336082458496 19.422534942626953 15.900179862976074 21.00312042236328 C15.343127250671387 21.68893051147461 15.009769439697266 22.48822784423828 14.612577438354492 22.522052764892578 C12.597699165344238 22.690643310546875 10.563178062438965 22.73210906982422 8.543389320373535 22.637720108032227 C8.166383743286133 22.620262145996094 7.535131931304932 21.767498016357422 7.554773330688477 21.323383331298828 C7.573322772979736 20.896183013916016 8.240038871765137 20.206008911132812 8.696701049804688 20.13835334777832"></path></svg>