<svg xmlns="http://www.w3.org/2000/svg" viewBox="0.0 0.0 24.0 24.0" height="200px" width="200px"><path fill="none" stroke="black" stroke-width=".3" stroke-opacity="1.0"  filling="0" d="M12.416016578674316 6.695756912231445 L12.416016578674316 6.695756912231445 C12.390515327453613 7.142451763153076 12.365015029907227 7.589146137237549 12.339513778686523 8.03584098815918 L12.339513778686523 8.03584098815918 C12.018270492553711 8.03584098815918 11.697026252746582 8.03584098815918 11.37578296661377 8.03584098815918 L11.37578296661377 8.03584098815918 C11.359613418579102 7.470592021942139 11.905237197875977 6.938392639160156 12.416016578674316 6.695756912231445 L12.416016578674316 6.695756912231445"></path>
<path fill="none" stroke="black" stroke-width=".3" stroke-opacity="1.0"  filling="0" d="M11.282849311828613 8.951565742492676 L11.282849311828613 8.951565742492676 C11.605034828186035 8.951565742492676 11.92721939086914 8.951565742492676 12.249404907226562 8.951565742492676 L12.249404907226562 8.951565742492676 C12.788846015930176 10.394786834716797 12.40170669555664 12.734768867492676 12.398651123046875 14.27895736694336 C12.398014068603516 14.600751876831055 12.526596069335938 16.73816680908203 12.060009002685547 17.155120849609375 C11.699337005615234 17.477426528930664 11.119682312011719 17.382383346557617 10.649518966674805 17.496013641357422 L10.649518966674805 17.496013641357422 C10.703067779541016 16.701486587524414 11.1262845993042 15.972692489624023 11.275147438049316 15.190400123596191 C11.640231132507324 13.271836280822754 11.284730911254883 10.906282424926758 11.282849311828613 8.951565742492676 L11.282849311828613 8.951565742492676"></path></svg>