<svg xmlns="http://www.w3.org/2000/svg" viewBox="0.0 0.0 24.0 24.0" height="200px" width="200px"><path fill="none" stroke="black" stroke-width=".3" stroke-opacity="1.0"  filling="0" d="M2.6067466735839844 9.967556953430176 C3.97489070892334 9.967556953430176 5.391604423522949 9.967556953430176 6.920933723449707 9.967556953430176 C7.044724464416504 10.268866539001465 7.189146518707275 10.619176864624023 7.333999156951904 10.970346450805664 C10.44036865234375 8.852582931518555 11.614229202270508 8.877511978149414 13.486989974975586 11.190848350524902 C14.038461685180664 10.793256759643555 14.568868637084961 10.34107780456543 15.161602020263672 9.99549674987793 C17.449146270751953 8.663457870483398 19.75259780883789 9.817547798156738 19.934844970703125 12.450675010681152 C20.053049087524414 14.157953262329102 19.957195281982422 15.880276679992676 19.957195281982422 17.431095123291016 C20.39389991760254 18.348779678344727 22.170379638671875 17.982995986938477 21.428497314453125 19.622360229492188 C19.630956649780273 19.622360229492188 17.73756217956543 19.622360229492188 15.453023910522461 19.622360229492188 C17.35372543334961 16.8400821685791 17.336532592773438 14.074566841125488 16.319988250732422 11.178382873535156 C13.853202819824219 11.922845840454102 13.809789657592773 12.33591079711914 13.514497756958008 15.124207496643066 C13.32838249206543 16.881343841552734 14.316126823425293 18.057785034179688 15.141827583312988 19.63396453857422 C13.021055221557617 19.63396453857422 11.26950454711914 19.63396453857422 9.406198501586914 19.63396453857422 C9.406198501586914 19.23895263671875 9.238565444946289 18.643640518188477 9.431987762451172 18.483745574951172 C11.663656234741211 16.63462257385254 10.355259895324707 14.249075889587402 10.327749252319336 12.130882263183594 C10.313565254211426 11.051583290100098 8.447251319885254 10.965618133544922 7.873000144958496 12.145496368408203 C7.397610187530518 13.123355865478516 7.262644290924072 14.329883575439453 7.232555866241455 15.442280769348145 C7.205906391143799 16.412403106689453 6.738253593444824 17.621938705444336 8.119722366333008 18.266252517700195 C8.380197525024414 18.387893676757812 8.361715316772461 19.106996536254883 8.503558158874512 19.677377700805664 C6.384937763214111 19.678237915039062 4.474781036376953 19.678237915039062 2.6054582595825195 19.678237915039062 C1.9065561294555664 18.14805030822754 3.2721214294433594 18.23960304260254 4.034206867218018 17.783985137939453 C4.034206867218018 15.877267837524414 4.034206867218018 13.960232734680176 4.034206867218018 11.959381103515625 C3.598790168762207 11.342147827148438 1.8171520233154297 11.643457412719727 2.6067466735839844 9.967556953430176"></path></svg>