<svg xmlns="http://www.w3.org/2000/svg" viewBox="0.0 0.0 24.0 24.0" height="200px" width="200px"><path fill="none" stroke="black" stroke-width=".3" stroke-opacity="1.0"  filling="0" d="M10.294355392456055 8.243688583374023 L10.294355392456055 8.243688583374023 C11.531574249267578 8.192366600036621 12.992265701293945 7.881962776184082 13.612628936767578 9.406210899353027 C14.081319808959961 10.557798385620117 13.953939437866211 13.925468444824219 13.656400680541992 15.124520301818848 C13.561339378356934 15.507606506347656 13.381540298461914 15.966552734375 13.018896102905273 16.12237548828125 C12.580597877502441 16.310705184936523 12.067668914794922 16.048484802246094 11.592055320739746 16.011539459228516 L11.592055320739746 16.011539459228516 C11.592055320739746 16.96915054321289 11.592055320739746 17.926761627197266 11.592055320739746 18.88437271118164 L11.592055320739746 18.88437271118164 C11.159488677978516 18.920312881469727 10.726922035217285 18.95625114440918 10.294355392456055 18.992191314697266 L10.294355392456055 18.992191314697266 C10.294355392456055 17.200775146484375 10.294355392456055 15.409357070922852 10.294355392456055 13.617939949035645 C10.294355392456055 11.826522827148438 10.294355392456055 10.035104751586914 10.294355392456055 8.243688583374023 L10.294355392456055 8.243688583374023"></path>
<path fill="none" stroke="black" stroke-width=".3" stroke-opacity="1.0"  filling="0" d="M11.685391426086426 9.190893173217773 L11.685391426086426 9.190893173217773 C11.5818452835083 11.14082145690918 11.59933853149414 12.966224670410156 11.790314674377441 14.908881187438965 L11.790314674377441 14.908881187438965 C12.617889404296875 12.665508270263672 12.514677047729492 11.426389694213867 11.685391426086426 9.190893173217773 L11.685391426086426 9.190893173217773"></path></svg>