<svg xmlns="http://www.w3.org/2000/svg" viewBox="0.0 0.0 24.0 24.0" height="200px" width="200px"><path fill="none" stroke="black" stroke-width=".3" stroke-opacity="1.0"  filling="0" d="M12.286802291870117 7.2403564453125 L12.286802291870117 7.2403564453125 C12.309871673583984 7.628265380859375 12.433550834655762 9.70537281036377 12.456953048706055 10.097908973693848 L12.456953048706055 10.097908973693848 C13.08836555480957 10.16433334350586 13.719778060913086 10.230757713317871 14.351190567016602 10.297182083129883 L14.351190567016602 10.297182083129883 C14.368314743041992 10.64359188079834 14.385437965393066 10.990001678466797 14.402562141418457 11.336411476135254 L14.402562141418457 11.336411476135254 C13.74105167388916 11.434499740600586 13.079535484313965 11.532553672790527 12.418014526367188 11.630576133728027 L12.418014526367188 11.630576133728027 C12.354249000549316 13.320996284484863 12.342903137207031 14.801848411560059 12.637574195861816 16.470714569091797 L12.637574195861816 16.470714569091797 C13.260490417480469 15.871145248413086 13.734541893005371 15.071574211120605 13.952316284179688 14.234865188598633 L13.952316284179688 14.234865188598633 C14.283892631530762 14.208688735961914 14.615468978881836 14.182511329650879 14.94704532623291 14.15633487701416 L14.94704532623291 14.15633487701416 C14.899101257324219 14.554579734802246 14.706735610961914 16.497943878173828 14.500072479248047 16.91048812866211 C13.657330513000488 18.592784881591797 11.005985260009766 18.406375885009766 10.32712173461914 16.697799682617188 C9.76805305480957 15.290725708007812 10.024234771728516 13.241093635559082 10.039175033569336 11.747063636779785 L10.039175033569336 11.747063636779785 C9.669833183288574 11.471304893493652 9.046734809875488 11.365989685058594 8.93114948272705 10.919787406921387 C8.840222358703613 10.568777084350586 9.368156433105469 10.340523719787598 9.603326797485352 10.064533233642578 C10.266825675964355 9.28586483001709 10.805535316467285 8.364043235778809 11.096728324890137 7.38334846496582 L11.096728324890137 7.38334846496582 C11.493419647216797 7.335684299468994 11.890110969543457 7.288020610809326 12.286802291870117 7.2403564453125 L12.286802291870117 7.2403564453125"></path></svg>