<svg xmlns="http://www.w3.org/2000/svg" viewBox="0.0 0.0 24.0 24.0" height="200px" width="200px"><path fill="none" stroke="black" stroke-width=".3" stroke-opacity="1.0"  filling="0" d="M12.464160919189453 2.425297737121582 C14.114023208618164 2.4384965896606445 15.364068984985352 3.469111442565918 15.73363971710205 5.521540641784668 C16.119155883789062 7.66361141204834 16.231897354125977 9.855178833007812 16.471675872802734 12.096242904663086 C16.23409652709961 14.232264518737793 16.115856170654297 16.422733306884766 15.717140197753906 18.56040382385254 C15.31622314453125 20.709625244140625 14.164070129394531 21.645095825195312 12.465810775756836 21.6247501373291 C10.781850814819336 21.604400634765625 9.535104751586914 20.585336685180664 9.153436660766602 18.57415199279785 C8.329606056213379 14.23336410522461 8.335655212402344 9.86232852935791 9.17818546295166 5.523190021514893 C9.564252853393555 3.534555435180664 10.877543449401855 2.412649154663086 12.464160919189453 2.425297737121582"></path>
<path fill="none" stroke="black" stroke-width=".3" stroke-opacity="1.0"  filling="0" d="M12.79853343963623 4.582218170166016 C13.035563468933105 5.524839878082275 13.435930252075195 6.459211826324463 13.483776092529297 7.411182403564453 C13.897891998291016 15.656095504760742 13.697708129882812 17.656280517578125 12.120439529418945 19.6317138671875 C11.821264266967773 18.462512969970703 11.381301879882812 17.5732364654541 11.406599044799805 16.697710037231445 C11.520990371704102 12.697891235351562 10.7345552444458 8.620532035827637 11.971952438354492 4.705957889556885 C12.247479438781738 4.6647114753723145 12.523006439208984 4.623465061187744 12.79853343963623 4.582218170166016"></path></svg>