<svg xmlns="http://www.w3.org/2000/svg" viewBox="0.0 0.0 24.0 24.0" height="200px" width="200px"><path fill="none" stroke="black" stroke-width=".3" stroke-opacity="1.0"  filling="0" d="M10.75228214263916 9.19031047821045 L10.75228214263916 9.19031047821045 C10.906414985656738 9.425028800964355 11.060546875 9.659748077392578 11.214679718017578 9.894466400146484 L11.214679718017578 9.894466400146484 C12.496682167053223 9.8768892288208 13.505353927612305 9.07396125793457 14.719139099121094 9.945470809936523 C16.21445083618164 11.019118309020996 16.11751937866211 13.514074325561523 15.120237350463867 14.85666561126709 C14.141592025756836 16.17416763305664 12.773685455322266 16.257183074951172 11.331619262695312 16.497583389282227 L11.331619262695312 16.497583389282227 C10.87192440032959 18.366539001464844 10.880810737609863 18.71928596496582 12.330171585083008 19.989994049072266 L12.330171585083008 19.989994049072266 C10.89979362487793 19.989994049072266 9.469420433044434 19.989994049072266 8.039043426513672 19.989994049072266 L8.039043426513672 19.989994049072266 C8.954160690307617 18.802148818969727 9.257076263427734 17.06214714050293 9.246932029724121 15.259592056274414 C9.236786842346191 13.457036972045898 8.913581848144531 11.591930389404297 8.576459884643555 10.153875350952148 L8.576459884643555 10.153875350952148 C8.762951850891113 10.071300506591797 10.630090713500977 9.244430541992188 10.75228214263916 9.19031047821045 L10.75228214263916 9.19031047821045"></path>
<path fill="none" stroke="black" stroke-width=".3" stroke-opacity="1.0"  filling="0" d="M12.720704078674316 10.871270179748535 L12.720704078674316 10.871270179748535 C13.131338119506836 11.528639793395996 13.502166748046875 12.212723731994629 13.827369689941406 12.916284561157227 L13.827369689941406 12.916284561157227 C13.720307350158691 13.29377555847168 13.628480911254883 13.675924301147461 13.506181716918945 14.048757553100586 C13.210515975952148 14.950100898742676 11.974742889404297 16.617101669311523 11.182845115661621 14.742867469787598 C10.546675682067871 13.237205505371094 10.526741981506348 10.134784698486328 12.720704078674316 10.871270179748535 L12.720704078674316 10.871270179748535"></path></svg>