<svg xmlns="http://www.w3.org/2000/svg" viewBox="0.0 0.0 24.0 24.0" height="200px" width="200px"><path fill="none" stroke="black" stroke-width=".3" stroke-opacity="1.0"  filling="0" d="M10.388840675354004 7.0151286125183105 L10.388840675354004 7.0151286125183105 C11.740362167358398 7.0151286125183105 13.091889381408691 7.0151286125183105 14.443410873413086 7.0151286125183105 L14.443410873413086 7.0151286125183105 C14.228906631469727 8.712368965148926 13.513213157653809 10.12809944152832 13.131976127624512 11.79300594329834 C12.672113418579102 13.801279067993164 12.732319831848145 15.783636093139648 12.556551933288574 17.815462112426758 L12.556551933288574 17.815462112426758 C12.045036315917969 17.815462112426758 11.533519744873047 17.815462112426758 11.022004127502441 17.815462112426758 L11.022004127502441 17.815462112426758 C10.995927810668945 16.09978675842285 11.15711498260498 14.529582023620605 11.49001407623291 12.993946075439453 C11.822914123535156 11.458309173583984 12.327526092529297 9.957240104675293 12.988299369812012 8.379836082458496 L12.988299369812012 8.379836082458496 C12.121813774108887 8.328863143920898 11.255327224731445 8.277899742126465 10.388840675354004 8.226946830749512 L10.388840675354004 8.226946830749512 C10.388840675354004 7.823007583618164 10.388840675354004 7.419067859649658 10.388840675354004 7.0151286125183105 L10.388840675354004 7.0151286125183105"></path></svg>