<svg xmlns="http://www.w3.org/2000/svg" viewBox="0.0 0.0 24.0 24.0" height="200px" width="200px"><path fill="none" stroke="black" stroke-width=".3" stroke-opacity="1.0"  filling="0" d="M8.301087379455566 7.313814640045166 L8.301087379455566 7.313814640045166 C10.153763771057129 7.280301570892334 12.174391746520996 7.051101207733154 13.954977989196777 7.722867965698242 C15.785816192626953 8.413593292236328 16.93775749206543 10.05992317199707 17.241849899291992 11.844347953796387 C17.545944213867188 13.628772735595703 17.00218963623047 15.551291465759277 15.441638946533203 16.794395446777344 C13.418952941894531 18.40562629699707 10.700601577758789 18.070680618286133 8.301087379455566 18.02758026123047 L8.301087379455566 18.02758026123047 C8.301087379455566 16.24195098876953 8.301087379455566 14.456324577331543 8.301087379455566 12.670697212219238 C8.301087379455566 10.885069847106934 8.301087379455566 9.099442481994629 8.301087379455566 7.313814640045166 L8.301087379455566 7.313814640045166"></path>
<path fill="none" stroke="black" stroke-width=".3" stroke-opacity="1.0"  filling="0" d="M9.871673583984375 8.820463180541992 L9.871673583984375 8.820463180541992 C11.362462997436523 8.659133911132812 12.187824249267578 8.326384544372559 13.58094596862793 9.059385299682617 C14.869300842285156 9.737262725830078 15.577840805053711 11.086036682128906 15.653738021850586 12.465414047241211 C15.729635238647461 13.844791412353516 15.17288875579834 15.254772186279297 13.930669784545898 16.05506134033203 C12.57106876373291 16.930973052978516 11.405740737915039 16.635208129882812 9.871673583984375 16.601591110229492 L9.871673583984375 16.601591110229492 C9.871673583984375 15.304737091064453 9.871673583984375 14.007882118225098 9.871673583984375 12.711027145385742 C9.871673583984375 11.414172172546387 9.871673583984375 10.117317199707031 9.871673583984375 8.820463180541992 L9.871673583984375 8.820463180541992"></path></svg>