<svg xmlns="http://www.w3.org/2000/svg" viewBox="0.0 0.0 24.0 24.0" height="200px" width="200px"><path fill="none" stroke="black" stroke-width=".3" stroke-opacity="1.0"  filling="0" d="M15.074485778808594 8.644956588745117 L15.074485778808594 8.644956588745117 C16.055570602416992 8.644956588745117 17.03665542602539 8.644956588745117 18.01774024963379 8.644956588745117 L18.01774024963379 8.644956588745117 C17.232513427734375 9.83791732788086 16.50004005432129 10.99810791015625 15.801997184753418 12.183034896850586 C15.10395336151123 13.367960929870605 14.440337181091309 14.577624320983887 13.792820930480957 15.86953067779541 L13.792820930480957 15.86953067779541 C13.216975212097168 15.86953067779541 12.641128540039062 15.86953067779541 12.065282821655273 15.86953067779541 L12.065282821655273 15.86953067779541 C11.985513687133789 14.893921852111816 11.90572452545166 13.918313980102539 11.82591438293457 12.942708015441895 L11.82591438293457 12.942708015441895 C11.758633613586426 12.9185791015625 11.691352844238281 12.894449234008789 11.624072074890137 12.870320320129395 L11.624072074890137 12.870320320129395 C11.061279296875 13.875614166259766 10.49860954284668 14.880976676940918 9.936058044433594 15.886404991149902 L9.936058044433594 15.886404991149902 C9.379234313964844 15.886404991149902 8.822410583496094 15.886404991149902 8.265586853027344 15.886404991149902 L8.265586853027344 15.886404991149902 C8.129717826843262 14.28874397277832 8.250249862670898 12.31747055053711 7.898651599884033 10.766936302185059 C7.738111972808838 10.058964729309082 7.228772163391113 9.388864517211914 7.316772937774658 8.668272018432617 L7.316772937774658 8.668272018432617 C7.317305564880371 8.668272018432617 10.482325553894043 8.668272018432617 10.485184669494629 8.668272018432617 L10.485184669494629 8.668272018432617 C10.168617248535156 9.01622200012207 9.852049827575684 9.364171981811523 9.535482406616211 9.712121963500977 L9.535482406616211 9.712121963500977 C9.610547065734863 11.021690368652344 9.685599327087402 12.331259727478027 9.760639190673828 13.640829086303711 L9.760639190673828 13.640829086303711 C11.195385932922363 11.658354759216309 11.939729690551758 10.872357368469238 10.859780311584473 8.659168243408203 L10.859780311584473 8.659168243408203 C12.034565925598145 8.659168243408203 13.2093505859375 8.659168243408203 14.384136199951172 8.659168243408203 L14.384136199951172 8.659168243408203 C14.048990249633789 8.99298095703125 13.713845252990723 9.326794624328613 13.37869930267334 9.66060733795166 L13.37869930267334 9.66060733795166 C13.383600234985352 9.764899253845215 13.55673599243164 13.446858406066895 13.562111854553223 13.561113357543945 L13.562111854553223 13.561113357543945 C13.647600173950195 13.57791519165039 13.733089447021484 13.59471607208252 13.818577766418457 13.611517906188965 L13.818577766418457 13.611517906188965 C14.4491605758667 12.31214714050293 15.079815864562988 11.012810707092285 15.710431098937988 9.713455200195312 L15.710431098937988 9.713455200195312 C15.433388710021973 9.597175598144531 15.156346321105957 9.48089599609375 14.879303932189941 9.364616394042969 L14.879303932189941 9.364616394042969 C14.944364547729492 9.124730110168457 15.009425163269043 8.884842872619629 15.074485778808594 8.644956588745117 L15.074485778808594 8.644956588745117"></path></svg>