<svg xmlns="http://www.w3.org/2000/svg" viewBox="0.0 0.0 24.0 24.0" height="200px" width="200px"><path fill="none" stroke="black" stroke-width=".3" stroke-opacity="1.0"  filling="0" d="M18.291576385498047 11.28980827331543 C19.1833438873291 12.264307022094727 19.184213638305664 14.053938865661621 19.782499313354492 16.15359878540039 C16.877288818359375 14.969220161437988 15.874051094055176 9.992216110229492 11.915960311889648 14.321294784545898 C13.50355052947998 15.570989608764648 14.813333511352539 16.778881072998047 16.291194915771484 17.723772048950195 C18.387371063232422 19.064035415649414 19.78859519958496 20.82928466796875 19.955801010131836 23.306900024414062 C20.202259063720703 26.95844268798828 16.843324661254883 29.461313247680664 12.005659103393555 29.379453659057617 C7.411838054656982 29.30281639099121 6.3598313331604 28.04615592956543 6.945053577423096 22.200027465820312 C8.114627838134766 23.77542495727539 8.71030044555664 24.712478637695312 9.440086364746094 25.530221939086914 C10.63143253326416 26.865259170532227 12.1136474609375 28.364892959594727 13.788324356079102 26.610095977783203 C15.344563484191895 24.97983169555664 14.304749488830566 23.417497634887695 12.657068252563477 22.309757232666016 C11.815811157226562 21.74456214904785 10.92752742767334 21.243816375732422 10.125459671020508 20.62811279296875 C7.076554298400879 18.288963317871094 6.428629398345947 15.269668579101562 8.395917892456055 12.755475997924805 C10.33533763885498 10.277860641479492 16.38089370727539 9.200597763061523 18.291576385498047 11.28980827331543"></path></svg>