<svg xmlns="http://www.w3.org/2000/svg" viewBox="0.0 0.0 24.0 24.0" height="200px" width="200px"><path fill="none" stroke="black" stroke-width=".3" stroke-opacity="1.0"  filling="0" d="M3.9724130630493164 3.2163143157958984 C6.819428443908691 3.2163143157958984 8.838264465332031 3.2163143157958984 11.174489974975586 3.2163143157958984 C10.744382858276367 5.621950149536133 10.322580337524414 7.984279155731201 9.934000015258789 10.156766891479492 C11.59510612487793 9.548090934753418 13.170782089233398 8.642195701599121 14.83366584777832 8.433371543884277 C17.687801361083984 8.075047492980957 19.100927352905273 9.739118576049805 18.62335968017578 12.577829360961914 C18.231813430786133 14.903968811035156 17.679494857788086 17.20281982421875 17.25235366821289 19.253097534179688 C17.567964553833008 20.57723617553711 20.321247100830078 20.23493194580078 18.664886474609375 22.398517608642578 C16.083648681640625 22.398517608642578 13.36062240600586 22.398517608642578 10.310121536254883 22.398517608642578 C10.602594375610352 21.67593765258789 10.70404052734375 20.73741340637207 11.090248107910156 20.600372314453125 C12.219799995422363 20.19814682006836 13.002298355102539 19.636337280273438 13.206971168518066 18.427288055419922 C13.567667961120605 16.295143127441406 14.000741958618164 14.167741775512695 14.178123474121094 12.020170211791992 C14.207193374633789 11.669559478759766 12.951278686523438 10.78324031829834 12.515238761901855 10.91197681427002 C11.539933204650879 11.19911003112793 10.249017715454102 11.774564743041992 9.906710624694824 12.58138656616211 C9.034631729125977 14.635224342346191 8.558250427246094 16.867631912231445 8.062291145324707 19.059696197509766 C7.97982931137085 19.423954010009766 8.662662506103516 19.91694450378418 8.869112968444824 20.402225494384766 C9.109973907470703 20.967594146728516 9.21675968170166 21.59050941467285 9.444567680358887 22.41631507873535 C6.478902339935303 22.41631507873535 3.8418970108032227 22.41631507873535 1.2048940658569336 22.41631507873535 C1.027510643005371 22.24724006652832 0.8501291275024414 22.078163146972656 0.6727466583251953 21.909679412841797 C1.1793832778930664 21.3721923828125 1.6800880432128906 20.82877540588379 2.19503116607666 20.298999786376953 C2.7046337127685547 19.775157928466797 3.5523910522460938 19.342084884643555 3.695958137512207 18.736968994140625 C4.696773529052734 14.52250862121582 5.552835941314697 10.273045539855957 6.3976263999938965 6.307157516479492 C5.6002960205078125 5.290915489196777 4.998738765716553 4.524434566497803 3.9724130630493164 3.2163143157958984"></path></svg>