<svg xmlns="http://www.w3.org/2000/svg" viewBox="0.0 0.0 24.0 24.0" height="200px" width="200px"><path fill="none" stroke="black" stroke-width=".3" stroke-opacity="1.0"  filling="0" d="M12.665510177612305 3.066391944885254 C13.932950973510742 3.000459671020508 14.680582046508789 3.62093448638916 14.68175983428955 4.934882164001465 C14.682348251342773 6.185251712799072 13.29716968536377 7.548649311065674 11.553481101989746 7.595154762268066 C11.202035903930664 7.153640270233154 10.41084098815918 6.548470973968506 10.181253433227539 5.776703357696533 C9.86689567565918 4.715891361236572 11.431623458862305 3.130558967590332 12.665510177612305 3.066391944885254"></path>
<path fill="none" stroke="black" stroke-width=".3" stroke-opacity="1.0"  filling="0" d="M13.92176628112793 9.106901168823242 C13.222406387329102 12.519514083862305 12.52775764465332 15.90857982635498 11.813680648803711 19.39183807373047 C12.041501998901367 20.414974212646484 14.677638053894043 20.180675506591797 13.23947811126709 22.261682510375977 C10.59392261505127 22.261682510375977 7.7853007316589355 22.261682510375977 4.8948516845703125 22.261682510375977 C4.256126880645752 20.140644073486328 6.068691730499268 20.296648025512695 7.3997111320495605 19.861608505249023 C7.988986492156982 17.213699340820312 8.577083587646484 14.568142890930176 9.218751907348633 11.681225776672363 C8.304522514343262 11.23205852508545 7.732907772064209 10.951254844665527 7.254894733428955 10.71636962890625 C6.892263889312744 8.854354858398438 8.306288719177246 8.529399871826172 13.92176628112793 9.106901168823242"></path></svg>