<svg xmlns="http://www.w3.org/2000/svg" viewBox="0.0 0.0 24.0 24.0" height="200px" width="200px"><path fill="none" stroke="black" stroke-width=".3" stroke-opacity="1.0"  filling="0" d="M10.386884689331055 7.020116806030273 L10.386884689331055 7.020116806030273 C11.583550453186035 7.020116806030273 12.780217170715332 7.020116806030273 13.976882934570312 7.020116806030273 L13.976882934570312 7.020116806030273 C13.66488265991211 8.53264331817627 13.352895736694336 10.045171737670898 13.04092025756836 11.557703018188477 C12.728944778442383 13.070234298706055 12.416980743408203 14.582767486572266 12.105029106140137 16.095304489135742 L12.105029106140137 16.095304489135742 C12.493025779724121 16.564102172851562 12.881022453308105 17.03289794921875 13.26901912689209 17.50169563293457 L13.26901912689209 17.50169563293457 C13.195220947265625 17.60783576965332 13.12142276763916 17.713977813720703 13.047624588012695 17.820117950439453 L13.047624588012695 17.820117950439453 C11.267685890197754 17.820117950439453 9.487747192382812 17.820117950439453 7.707808017730713 17.820117950439453 L7.707808017730713 17.820117950439453 C8.37649917602539 17.149105072021484 9.303277969360352 16.66103172302246 9.714365005493164 15.8075590133667 C10.694352149963379 13.772972106933594 10.838857650756836 10.768086433410645 11.312142372131348 8.559877395629883 L11.312142372131348 8.559877395629883 C10.793231010437012 8.261075019836426 10.38569450378418 7.618907451629639 10.386884689331055 7.020116806030273 L10.386884689331055 7.020116806030273"></path></svg>