<svg xmlns="http://www.w3.org/2000/svg" viewBox="0.0 0.0 24.0 24.0" height="200px" width="200px"><path fill="none" stroke="black" stroke-width=".3" stroke-opacity="1.0"  filling="0" d="M14.047561645507812 10.755804061889648 L14.047561645507812 10.755804061889648 C14.656006813049316 10.784758567810059 15.389507293701172 10.472021102905273 15.872896194458008 10.842667579650879 C16.812744140625 11.563312530517578 15.815858840942383 14.266225814819336 15.634504318237305 15.109343528747559 L15.634504318237305 15.109343528747559 C15.809195518493652 15.502801895141602 15.983887672424316 15.896260261535645 16.158578872680664 16.289718627929688 L16.158578872680664 16.289718627929688 C15.104557037353516 16.289718627929688 14.050536155700684 16.289718627929688 12.996514320373535 16.289718627929688 L12.996514320373535 16.289718627929688 C13.277442932128906 15.442521095275879 13.91742992401123 14.74651050567627 14.21296215057373 13.904295921325684 C14.669397354125977 12.603535652160645 14.284658432006836 10.373687744140625 12.762707710266113 12.478591918945312 C12.178973197937012 13.285914421081543 12.599397659301758 15.858202934265137 11.595602989196777 16.328807830810547 C11.108102798461914 16.55735969543457 10.088546752929688 16.356006622314453 9.449356079101562 16.246288299560547 L9.449356079101562 16.246288299560547 C9.72239875793457 15.415884971618652 10.345728874206543 14.731815338134766 10.633259773254395 13.906316757202148 C11.171623229980469 12.36068344116211 10.665380477905273 10.497325897216797 9.132787704467773 12.591273307800293 C8.27475357055664 13.76358699798584 8.6437406539917 15.064370155334473 9.11227798461914 16.23639488220215 L9.11227798461914 16.23639488220215 C7.937532901763916 16.236392974853516 6.762787818908691 16.236392974853516 5.588042736053467 16.236392974853516 L5.588042736053467 16.236392974853516 C5.769989013671875 15.649166107177734 6.456087112426758 15.355111122131348 6.796648979187012 14.843294143676758 C7.326629638671875 14.046807289123535 7.196822643280029 12.972111701965332 7.380321502685547 12.03317642211914 L7.380321502685547 12.03317642211914 C7.192600250244141 11.635213851928711 7.004879474639893 11.237252235412598 6.817158222198486 10.839289665222168 L6.817158222198486 10.839289665222168 C7.606568336486816 10.839289665222168 8.395978927612305 10.839289665222168 9.185388565063477 10.839289665222168 L9.185388565063477 10.839289665222168 C9.245549201965332 11.024839401245117 9.305710792541504 11.21038818359375 9.36587142944336 11.3959379196167 L9.36587142944336 11.3959379196167 C11.010254859924316 10.481629371643066 11.330810546875 10.243612289428711 12.820616722106934 11.494141578674316 L12.820616722106934 11.494141578674316 C13.229598045349121 11.248028755187988 13.638580322265625 11.001916885375977 14.047561645507812 10.755804061889648 L14.047561645507812 10.755804061889648"></path></svg>