<svg xmlns="http://www.w3.org/2000/svg" viewBox="0.0 0.0 24.0 24.0" height="200px" width="200px"><path fill="none" stroke="black" stroke-width=".3" stroke-opacity="1.0"  filling="0" d="M12.510881423950195 8.995495796203613 C14.117354393005371 8.224576950073242 15.775421142578125 8.113683700561523 17.305395126342773 9.141969680786133 C18.946264266967773 10.24438190460205 18.495573043823242 11.939214706420898 18.245914459228516 13.46800422668457 C17.899595260620117 15.58862018585205 17.399091720581055 17.68373680114746 16.956703186035156 19.826887130737305 C17.753713607788086 20.24081039428711 18.318262100219727 20.53435516357422 19.398733139038086 21.09534454345703 C18.521074295043945 21.76011085510254 17.959489822387695 22.544076919555664 17.351057052612305 22.582622528076172 C15.001538276672363 22.73206329345703 12.636007308959961 22.643108367919922 9.858924865722656 22.643108367919922 C10.281744003295898 21.6593017578125 10.353498458862305 20.976741790771484 10.67194652557373 20.829675674438477 C14.476720809936523 19.07554054260254 13.084918022155762 15.220359802246094 14.058647155761719 12.347801208496094 C14.139296531677246 12.110002517700195 12.73029613494873 10.907964706420898 12.297989845275879 11.046136856079102 C11.251320838928223 11.380597114562988 9.916447639465332 12.038841247558594 9.52031421661377 12.931920051574707 C8.65570068359375 14.880563735961914 8.250079154968262 17.045063018798828 7.79286527633667 19.150854110717773 C7.716366767883301 19.503103256225586 8.400111198425293 19.97277069091797 8.59758472442627 20.444808959960938 C8.85020923614502 21.049089431762695 8.966440200805664 21.710893630981445 9.197714805603027 22.553565979003906 C6.097439765930176 22.553565979003906 3.457343101501465 22.553565979003906 0.1993274688720703 22.553565979003906 C0.829106330871582 21.621347427368164 1.1570444107055664 20.596622467041016 1.642721176147461 20.515377044677734 C3.1845569610595703 20.256824493408203 3.45674991607666 19.251665115356445 3.6933631896972656 18.02709197998047 C4.082972526550293 16.005508422851562 4.5437445640563965 13.997564315795898 4.908447742462158 12.295022964477539 C4.064589500427246 11.271480560302734 3.4425172805786133 10.516573905944824 2.3661985397338867 9.211944580078125 C5.250616550445557 9.211944580078125 7.283466815948486 9.211944580078125 9.412979125976562 9.211944580078125 C9.500151634216309 9.60511302947998 9.600964546203613 10.063512802124023 9.714822769165039 10.579434394836426 C9.985237121582031 10.461423873901367 10.260395050048828 10.374251365661621 10.501158714294434 10.230149269104004 C11.17660140991211 9.826899528503418 11.805788040161133 9.333513259887695 12.510881423950195 8.995495796203613"></path></svg>