<svg xmlns="http://www.w3.org/2000/svg" viewBox="0.0 0.0 24.0 24.0" height="200px" width="200px"><path fill="none" stroke="black" stroke-width=".3" stroke-opacity="1.0"  filling="0" d="M12.037408828735352 9.854314804077148 L12.037408828735352 9.854314804077148 C13.798051834106445 10.113846778869629 15.261242866516113 10.40511703491211 16.392316818237305 11.940037727355957 C17.71390151977539 13.733490943908691 17.67151641845703 15.810193061828613 16.76642608642578 17.435894012451172 C15.861336708068848 19.061594009399414 14.093544960021973 20.23629379272461 11.96432113647461 20.225740432739258 C9.85400390625 20.215280532836914 8.103151321411133 19.01460075378418 7.213744163513184 17.375959396362305 C6.324337005615234 15.737318992614746 6.296375274658203 13.660715103149414 7.631838798522949 11.898406982421875 C8.785378456115723 10.376169204711914 10.272011756896973 10.101663589477539 12.037408828735352 9.854314804077148 L12.037408828735352 9.854314804077148"></path>
<path fill="none" stroke="black" stroke-width=".3" stroke-opacity="1.0"  filling="0" d="M12.229424476623535 11.591967582702637 L12.229424476623535 11.591967582702637 C13.568914413452148 12.03858470916748 14.21262264251709 11.951057434082031 14.896400451660156 13.362422943115234 C16.00724220275879 15.655277252197266 14.564234733581543 18.561853408813477 11.8609619140625 18.47554588317871 C9.187798500061035 18.390199661254883 7.906895637512207 15.271728515625 9.222433090209961 13.108197212219238 C10.072099685668945 11.710837364196777 10.798172950744629 11.881050109863281 12.229424476623535 11.591967582702637 L12.229424476623535 11.591967582702637"></path></svg>