<svg xmlns="http://www.w3.org/2000/svg" viewBox="0.0 0.0 24.0 24.0" height="200px" width="200px"><path fill="none" stroke="black" stroke-width=".3" stroke-opacity="1.0"  filling="0" d="M13.01034164428711 8.190776824951172 L13.01034164428711 8.190776824951172 C15.004804611206055 8.59292221069336 15.542046546936035 10.40675163269043 15.1456880569458 12.171265602111816 C14.74932861328125 13.935779571533203 13.419368743896484 15.650979995727539 11.679428100585938 15.855866432189941 C10.423540115356445 16.003753662109375 10.11745834350586 15.523767471313477 9.109902381896973 14.860827445983887 L9.109902381896973 14.860827445983887 C9.039896011352539 15.203353881835938 8.665037155151367 17.036937713623047 8.585528373718262 17.425708770751953 L8.585528373718262 17.425708770751953 C8.977027893066406 17.617843627929688 9.36852741241455 17.809980392456055 9.760026931762695 18.00211524963379 L9.760026931762695 18.00211524963379 C8.393117904663086 19.4647216796875 6.6754326820373535 18.956005096435547 4.7361955642700195 18.96073341369629 L4.7361955642700195 18.96073341369629 C5.133663177490234 18.299081802368164 5.861069202423096 17.89349365234375 6.327088356018066 17.2781982421875 C6.852428913116455 16.584579467773438 6.744893550872803 15.588631629943848 6.929422855377197 14.738314628601074 C7.270020484924316 13.168828010559082 7.59680700302124 11.596301078796387 7.92889928817749 10.025002479553223 L7.92889928817749 10.025002479553223 C7.691542148590088 9.5244779586792 7.454185485839844 9.02395248413086 7.216828346252441 8.523427963256836 L7.216828346252441 8.523427963256836 C8.233158111572266 8.523427963256836 9.24948787689209 8.523427963256836 10.265817642211914 8.523427963256836 L10.265817642211914 8.523427963256836 C10.341598510742188 8.750460624694824 10.417379379272461 8.977493286132812 10.493160247802734 9.2045259475708 L10.493160247802734 9.2045259475708 C11.312793731689453 8.772321701049805 12.127888679504395 8.469022750854492 13.01034164428711 8.190776824951172 L13.01034164428711 8.190776824951172"></path>
<path fill="none" stroke="black" stroke-width=".3" stroke-opacity="1.0"  filling="0" d="M12.118316650390625 9.7276611328125 L12.118316650390625 9.7276611328125 C12.419684410095215 10.126181602478027 12.721053123474121 10.524701118469238 13.022420883178711 10.923221588134766 L13.022420883178711 10.923221588134766 C12.846687316894531 11.425527572631836 12.684045791625977 11.93260669708252 12.495220184326172 12.43013858795166 C12.323383331298828 12.882908821105957 12.204548835754395 13.366868019104004 11.940840721130371 13.773053169250488 C11.082204818725586 15.095595359802246 9.757867813110352 14.34956169128418 9.608879089355469 12.928728103637695 C9.570413589477539 12.561904907226562 10.242514610290527 10.491007804870605 10.546433448791504 10.237787246704102 C10.969648361206055 9.885170936584473 11.594355583190918 9.897703170776367 12.118316650390625 9.7276611328125 L12.118316650390625 9.7276611328125"></path></svg>