<svg xmlns="http://www.w3.org/2000/svg" viewBox="0.0 0.0 24.0 24.0" height="200px" width="200px"><path fill="none" stroke="black" stroke-width=".3" stroke-opacity="1.0"  filling="0" d="M3.0775985717773438 9.591611862182617 C5.232119083404541 9.591611862182617 7.065428733825684 9.591611862182617 9.137102127075195 9.591611862182617 C8.615480422973633 10.810270309448242 7.91844367980957 11.851659774780273 7.75830078125 12.969881057739258 C7.577330112457275 14.233434677124023 7.8795647621154785 15.565488815307617 8.30954360961914 17.026676177978516 C9.257902145385742 15.348417282104492 10.20672607421875 13.669695854187012 11.116206169128418 12.06040096282959 C10.749637603759766 11.310600280761719 10.42564868927002 10.646886825561523 9.953551292419434 9.680476188659668 C12.179349899291992 9.680476188659668 13.985815048217773 9.680476188659668 16.289371490478516 9.680476188659668 C15.635839462280273 10.579312324523926 15.135510444641113 11.26801872253418 14.414868354797363 12.25895881652832 C14.550017356872559 13.553986549377441 14.724508285522461 15.225764274597168 14.89946174621582 16.89754295349121 C15.013320922851562 16.9322566986084 15.127180099487305 16.967432022094727 15.24103832244873 17.002145767211914 C16.17690086364746 15.27806568145752 17.11322593688965 13.553986549377441 17.852846145629883 12.191847801208496 C17.536725997924805 11.159714698791504 17.326133728027344 10.472859382629395 17.06509017944336 9.620307922363281 C18.923856735229492 9.620307922363281 20.441974639892578 9.620307922363281 22.278522491455078 9.620307922363281 C20.972389221191406 11.400854110717773 19.730125427246094 12.920358657836914 18.685956954956055 14.564828872680664 C17.57513999938965 16.313440322875977 16.652236938476562 18.180999755859375 15.59094524383545 20.099472045898438 C14.393115043640137 20.099472045898438 13.405876159667969 20.099472045898438 12.276082992553711 20.099472045898438 C12.053457260131836 18.492029190063477 11.835922241210938 16.924850463867188 11.552202224731445 14.878171920776367 C10.404358863830566 16.82857894897461 9.480992317199707 18.3980712890625 8.506250381469727 20.054115295410156 C7.45652961730957 20.054115295410156 6.409121990203857 20.054115295410156 5.106689929962158 20.054115295410156 C4.9451584815979 18.047237396240234 4.8405561447143555 16.069984436035156 4.606359958648682 14.108004570007324 C4.479078769683838 13.041158676147461 4.79056978225708 11.714658737182617 3.2395925521850586 11.215253829956055 C3.0442733764648438 11.151845932006836 3.129899024963379 10.21690845489502 3.0775985717773438 9.591611862182617"></path></svg>