<svg xmlns="http://www.w3.org/2000/svg" viewBox="0.0 0.0 24.0 24.0" height="200px" width="200px"><path fill="none" stroke="black" stroke-width=".3" stroke-opacity="1.0"  filling="0" d="M9.99524974822998 8.830876350402832 L9.99524974822998 8.830876350402832 C10.734939575195312 10.829757690429688 11.474569320678711 12.828667640686035 12.2142915725708 14.827536582946777 L12.2142915725708 14.827536582946777 C12.921142578125 12.866461753845215 13.628151893615723 10.905441284179688 14.33514404296875 8.944418907165527 L14.33514404296875 8.944418907165527 C14.814369201660156 8.944418907165527 15.293594360351562 8.944418907165527 15.772819519042969 8.944418907165527 L15.772819519042969 8.944418907165527 C14.905162811279297 11.285638809204102 14.056509017944336 13.634469032287598 13.161654472351074 15.965502738952637 C12.903867721557617 16.63701820373535 12.339701652526855 18.338443756103516 11.751023292541504 18.938982009887695 C10.956053733825684 19.74996566772461 10.105212211608887 19.558652877807617 9.070915222167969 19.612966537475586 L9.070915222167969 19.612966537475586 C9.051831245422363 19.270631790161133 9.032748222351074 18.928298950195312 9.013664245605469 18.58596420288086 L9.013664245605469 18.58596420288086 C9.666040420532227 18.36241912841797 10.853487968444824 17.982622146606445 11.120283126831055 17.54976463317871 C11.434957504272461 17.039226531982422 11.229255676269531 16.340654373168945 11.122041702270508 15.750591278076172 C10.713921546936035 13.504461288452148 9.327092170715332 11.07635498046875 8.50000286102295 8.946978569030762 L8.50000286102295 8.946978569030762 C8.998418807983398 8.90827751159668 9.496833801269531 8.869577407836914 9.99524974822998 8.830876350402832 L9.99524974822998 8.830876350402832"></path></svg>