<svg xmlns="http://www.w3.org/2000/svg" viewBox="0.0 0.0 24.0 24.0" height="200px" width="200px"><path fill="none" stroke="black" stroke-width=".3" stroke-opacity="1.0"  filling="0" d="M11.06796932220459 5.801109313964844 C11.211054801940918 6.0264410972595215 11.35301399230957 6.2512102127075195 11.495537757873535 6.475979328155518 C10.770530700683594 7.159298896789551 10.044960975646973 7.842055797576904 9.038289070129395 8.790704727172852 C9.326150894165039 10.266631126403809 9.673726081848145 12.049572944641113 10.020737648010254 13.831952095031738 C10.215085983276367 13.880961418151855 10.408872604370117 13.929408073425293 10.603221893310547 13.978418350219727 C11.694955825805664 12.215192794799805 12.786128044128418 10.451967239379883 13.695343971252441 8.983365058898926 C13.173135757446289 7.855013370513916 12.804154396057129 7.057337284088135 12.287016868591309 5.938562870025635 C14.737505912780762 5.938562870025635 16.677616119384766 5.938562870025635 19.111766815185547 5.938562870025635 C18.66560935974121 6.7238450050354 18.40816879272461 7.410545349121094 17.954687118530273 7.92430305480957 C17.119266510009766 8.871261596679688 15.992042541503906 9.5979585647583 15.299710273742676 10.62660026550293 C13.051457405090332 13.968278884887695 10.964879989624023 17.418678283691406 8.775213241577148 20.800350189208984 C7.58376932144165 22.63962745666504 6.153472423553467 24.267650604248047 3.906346321105957 24.812957763671875 C2.4456300735473633 25.167293548583984 0.9009771347045898 24.990970611572266 0.21483993530273438 23.559547424316406 C-0.19526386260986328 22.70384979248047 -0.2003345489501953 21.271297454833984 0.26554012298583984 20.484325408935547 C0.7325410842895508 19.694534301757812 1.9758119583129883 19.29062843322754 2.956570625305176 18.92840576171875 C3.2089433670043945 18.8354549407959 3.964932441711426 19.45680809020996 4.124355316162109 19.88606834411621 C4.566570281982422 21.075820922851562 3.7908639907836914 21.795757293701172 2.8619308471679688 22.384441375732422 C2.7216615676879883 22.473445892333984 2.657442092895508 22.68244171142578 2.5560426712036133 22.839611053466797 C5.124267578125 22.886367797851562 7.297033786773682 20.620088577270508 6.849749565124512 18.146503448486328 C6.334301471710205 15.294919967651367 5.6521077156066895 12.469817161560059 4.920341491699219 9.665557861328125 C4.756412506103516 9.038006782531738 4.050559043884277 8.565936088562012 3.661860466003418 7.977255344390869 C3.3897714614868164 7.564897060394287 2.9695262908935547 6.978470325469971 3.0928964614868164 6.647231578826904 C3.2359819412231445 6.263603687286377 3.8933897018432617 5.854625225067139 4.341237545013428 5.8382887840271 C6.581039905548096 5.757169246673584 8.825349807739258 5.801109313964844 11.06796932220459 5.801109313964844"></path></svg>