<svg xmlns="http://www.w3.org/2000/svg" viewBox="0.0 0.0 24.0 24.0" height="200px" width="200px"><path fill="none" stroke="black" stroke-width=".3" stroke-opacity="1.0"  filling="0" d="M10.34145450592041 7.907743453979492 L10.34145450592041 7.907743453979492 C11.676857948303223 7.635953426361084 12.204941749572754 7.28143835067749 13.503480911254883 7.972476959228516 C14.897621154785156 8.714391708374023 15.59732437133789 10.462111473083496 15.693586349487305 12.28463363647461 C15.789848327636719 14.107155799865723 15.282670974731445 16.004478454589844 14.263050079345703 17.04560089111328 C12.664989471435547 18.677358627319336 11.073371887207031 18.387779235839844 9.057577133178711 17.99959945678711 L9.057577133178711 17.99959945678711 C9.083622932434082 17.586679458618164 9.109668731689453 17.17376136779785 9.135714530944824 16.760841369628906 L9.135714530944824 16.760841369628906 C12.096583366394043 16.979351043701172 13.391752243041992 16.849824905395508 13.829206466674805 13.737337112426758 L13.829206466674805 13.737337112426758 C12.539812088012695 14.216958045959473 11.901104927062988 14.738091468811035 10.525821685791016 14.28381633758545 C8.853778839111328 13.731517791748047 8.314801216125488 12.53617000579834 8.440277099609375 11.279561996459961 C8.565752983093262 10.022953987121582 9.355682373046875 8.705084800720215 10.34145450592041 7.907743453979492 L10.34145450592041 7.907743453979492"></path>
<path fill="none" stroke="black" stroke-width=".3" stroke-opacity="1.0"  filling="0" d="M12.0 8.908166885375977 L12.0 8.908166885375977 C12.45201587677002 9.145794868469238 13.027957916259766 9.229717254638672 13.356048583984375 9.621050834655762 C14.405492782592773 10.872787475585938 13.76754379272461 13.156973838806152 11.924477577209473 13.125312805175781 C10.072155952453613 13.09349250793457 9.395200729370117 10.682474136352539 10.584816932678223 9.453864097595215 C10.936508178710938 9.090645790100098 11.52827262878418 9.090065956115723 12.0 8.908166885375977 L12.0 8.908166885375977"></path></svg>