<svg xmlns="http://www.w3.org/2000/svg" viewBox="0.0 0.0 24.0 24.0" height="200px" width="200px"><path fill="none" stroke="black" stroke-width=".3" stroke-opacity="1.0"  filling="0" d="M10.668990135192871 9.809523582458496 L10.668990135192871 9.809523582458496 C11.67521858215332 9.809523582458496 12.68144702911377 9.809523582458496 13.687675476074219 9.809523582458496 L13.687675476074219 9.809523582458496 C14.331809997558594 11.501026153564453 14.975976943969727 13.192516326904297 15.620173454284668 14.883995056152344 C16.26436996459961 16.57547378540039 16.908599853515625 18.26694107055664 17.5528564453125 19.958396911621094 L17.5528564453125 19.958396911621094 C16.625608444213867 19.958396911621094 15.69836139678955 19.958396911621094 14.771114349365234 19.958396911621094 L14.771114349365234 19.958396911621094 C14.498223304748535 19.430641174316406 14.22533130645752 18.902883529663086 13.95244026184082 18.3751277923584 L13.95244026184082 18.3751277923584 C11.688714981079102 18.359407424926758 10.777621269226074 17.948362350463867 9.621811866760254 19.982778549194336 L9.621811866760254 19.982778549194336 C9.621737480163574 19.982778549194336 6.752932548522949 19.982778549194336 6.752544403076172 19.982778549194336 L6.752544403076172 19.982778549194336 C7.405239105224609 18.287220001220703 8.057977676391602 16.5916748046875 8.710729598999023 14.896137237548828 C9.363480567932129 13.20059871673584 10.016244888305664 11.505064010620117 10.668990135192871 9.809523582458496 L10.668990135192871 9.809523582458496"></path>
<path fill="none" stroke="black" stroke-width=".3" stroke-opacity="1.0"  filling="0" d="M12.135976791381836 13.032955169677734 L12.135976791381836 13.032955169677734 C12.527629852294922 14.09618854522705 12.919303894042969 15.159414291381836 13.311004638671875 16.22262954711914 L13.311004638671875 16.22262954711914 C12.561100006103516 16.22262954711914 11.811195373535156 16.22262954711914 11.061290740966797 16.22262954711914 L11.061290740966797 16.22262954711914 C11.096963882446289 16.11675453186035 12.135188102722168 13.035297393798828 12.135976791381836 13.032955169677734 L12.135976791381836 13.032955169677734"></path></svg>