<svg xmlns="http://www.w3.org/2000/svg" viewBox="0.0 0.0 24.0 24.0" height="200px" width="200px"><path fill="none" stroke="black" stroke-width=".3" stroke-opacity="1.0"  filling="0" d="M15.89822006225586 6.956578731536865 L15.89822006225586 6.956578731536865 C15.89822006225586 8.259154319763184 15.89822006225586 9.56173038482666 15.89822006225586 10.86430549621582 L15.89822006225586 10.86430549621582 C15.63212776184082 10.86430549621582 15.366035461425781 10.86430549621582 15.099943161010742 10.86430549621582 L15.099943161010742 10.86430549621582 C14.340472221374512 9.732460975646973 13.677197456359863 8.444629669189453 12.104228019714355 8.295620918273926 C10.641138076782227 8.157020568847656 9.738631248474121 9.183789253234863 9.331279754638672 10.485467910766602 C8.923927307128906 11.78714656829834 9.011730194091797 13.36373519897461 9.52925968170166 14.324773788452148 C10.45809268951416 16.049592971801758 13.568276405334473 17.089630126953125 14.21760368347168 14.465987205505371 C14.329157829284668 14.015247344970703 14.159173011779785 13.539148330688477 14.129958152770996 13.075729370117188 L14.129958152770996 13.075729370117188 C13.606060981750488 12.99577522277832 13.082164764404297 12.915821075439453 12.558267593383789 12.835866928100586 L12.558267593383789 12.835866928100586 C12.53593921661377 12.523459434509277 12.513609886169434 12.211050987243652 12.491281509399414 11.898643493652344 L12.491281509399414 11.898643493652344 C14.172959327697754 11.898643493652344 15.854635238647461 11.898643493652344 17.536312103271484 11.898643493652344 L17.536312103271484 11.898643493652344 C17.398550033569336 12.49654769897461 16.849918365478516 13.034135818481445 16.270008087158203 13.234565734863281 L16.270008087158203 13.234565734863281 C16.270008087158203 14.583748817443848 16.270008087158203 15.932933807373047 16.270008087158203 17.282115936279297 L16.270008087158203 17.282115936279297 C15.664109230041504 17.037670135498047 15.058210372924805 16.793224334716797 14.452311515808105 16.548778533935547 L14.452311515808105 16.548778533935547 C12.697023391723633 17.14780044555664 11.047713279724121 17.761301040649414 9.27907657623291 16.74297523498535 C7.477828025817871 15.705873489379883 6.698229789733887 13.581686019897461 6.904768943786621 11.598724365234375 C7.1113080978393555 9.615762710571289 8.303985595703125 7.774024963378906 10.447286605834961 7.301820755004883 C11.971494674682617 6.966012954711914 12.81662368774414 7.380363941192627 14.30488395690918 7.750760555267334 L14.30488395690918 7.750760555267334 C14.8359956741333 7.4860334396362305 15.367108345031738 7.221305847167969 15.89822006225586 6.956578731536865 L15.89822006225586 6.956578731536865"></path></svg>