<svg xmlns="http://www.w3.org/2000/svg" viewBox="0.0 0.0 24.0 24.0" height="200px" width="200px"><path fill="none" stroke="black" stroke-width=".3" stroke-opacity="1.0"  filling="0" d="M14.286492347717285 9.700515747070312 L14.286492347717285 9.700515747070312 C15.231826782226562 9.700515747070312 16.177162170410156 9.700515747070312 17.122495651245117 9.700515747070312 L17.122495651245117 9.700515747070312 C17.122495651245117 11.495685577392578 17.122495651245117 13.290855407714844 17.122495651245117 15.086024284362793 C17.122495651245117 16.881193161010742 17.122495651245117 18.676362991333008 17.122495651245117 20.471532821655273 L17.122495651245117 20.471532821655273 C16.214027404785156 20.471532821655273 15.305561065673828 20.471532821655273 14.397093772888184 20.471532821655273 L14.397093772888184 20.471532821655273 C14.397093772888184 19.044368743896484 14.397093772888184 17.61720848083496 14.397093772888184 16.19004249572754 L14.397093772888184 16.19004249572754 C12.975482940673828 16.19004249572754 11.553874015808105 16.19004249572754 10.132262229919434 16.19004249572754 L10.132262229919434 16.19004249572754 C10.132262229919434 17.626869201660156 10.132262229919434 19.063688278198242 10.132262229919434 20.50051498413086 L10.132262229919434 20.50051498413086 C9.212357521057129 20.50051498413086 8.292451858520508 20.50051498413086 7.372547149658203 20.50051498413086 L7.372547149658203 20.50051498413086 C7.372547149658203 18.705345153808594 7.372547149658203 16.910175323486328 7.372547149658203 15.115007400512695 C7.372547149658203 13.319838523864746 7.372547149658203 11.524669647216797 7.372547149658203 9.729498863220215 L7.372547149658203 9.729498863220215 C7.484426498413086 9.729498863220215 10.096549987792969 9.729498863220215 10.128597259521484 9.729498863220215 L10.128597259521484 9.729498863220215 C10.128597259521484 9.848918914794922 10.128597259521484 13.436895370483398 10.128597259521484 13.508282661437988 L10.128597259521484 13.508282661437988 C11.51456069946289 13.508282661437988 12.900529861450195 13.508282661437988 14.286492347717285 13.508282661437988 L14.286492347717285 13.508282661437988 C14.286492347717285 12.23902702331543 14.286492347717285 10.969771385192871 14.286492347717285 9.700515747070312 L14.286492347717285 9.700515747070312"></path></svg>