<svg xmlns="http://www.w3.org/2000/svg" viewBox="0.0 0.0 24.0 24.0" height="200px" width="200px"><path fill="none" stroke="black" stroke-width=".3" stroke-opacity="1.0"  filling="0" d="M2.7054529190063477 4.581739902496338 C5.337204456329346 4.581739902496338 8.017966270446777 4.581739902496338 10.662095069885254 4.581739902496338 C11.399242401123047 6.570899486541748 9.889302253723145 6.407033920288086 8.638280868530273 6.505055904388428 C8.638280868530273 8.369461059570312 8.638280868530273 10.063069343566895 8.638280868530273 12.171043395996094 C10.624470710754395 10.376937866210938 12.458675384521484 8.719964027404785 14.42852783203125 6.940710544586182 C13.704747200012207 6.119897842407227 11.554691314697266 6.607534408569336 12.60768985748291 4.587680816650391 C15.162705421447754 4.587680816650391 17.844951629638672 4.587680816650391 20.61136245727539 4.587680816650391 C20.61136245727539 5.124327659606934 20.61136245727539 5.589685916900635 20.61136245727539 6.180790424346924 C17.542470932006836 6.4803032875061035 15.783514022827148 8.724420547485352 13.555238723754883 10.656648635864258 C15.361721992492676 13.176019668579102 16.999385833740234 15.633013725280762 18.842504501342773 17.92465591430664 C19.378658294677734 18.59101104736328 20.49997329711914 18.78656005859375 21.60247802734375 19.31875228881836 C21.61931037902832 19.50737190246582 21.660400390625 19.97372055053711 21.71782875061035 20.618785858154297 C18.726167678833008 20.618785858154297 15.814706802368164 20.618785858154297 12.898789405822754 20.618785858154297 C12.060150146484375 18.642993927001953 13.75029182434082 18.99201011657715 15.156269073486328 18.51279067993164 C13.770094871520996 16.530067443847656 12.564123153686523 14.805765151977539 11.363597869873047 13.088395118713379 C8.234309196472168 14.986958503723145 8.164011001586914 15.131516456604004 8.722440719604492 18.490018844604492 C9.310574531555176 19.10538101196289 11.565582275390625 18.484573364257812 10.526447296142578 20.677698135375977 C7.953608512878418 20.677698135375977 5.347105979919434 20.677698135375977 2.7396135330200195 20.677698135375977 C1.851470947265625 18.41922378540039 4.010437488555908 19.16280746459961 4.884718418121338 18.4345703125 C4.884718418121338 14.600809097290039 4.884718418121338 10.690807342529297 4.884718418121338 6.822885990142822 C4.099053859710693 6.044153213500977 1.8608770370483398 6.917442798614502 2.7054529190063477 4.581739902496338"></path></svg>