<svg xmlns="http://www.w3.org/2000/svg" viewBox="0.0 0.0 24.0 24.0" height="200px" width="200px"><path fill="none" stroke="black" stroke-width=".3" stroke-opacity="1.0"  filling="0" d="M7.36225700378418 7.028779983520508 L7.36225700378418 7.028779983520508 C8.551107406616211 7.021997451782227 10.252328872680664 6.804645538330078 11.91646671295166 6.7629828453063965 C13.580604553222656 6.721320629119873 15.207658767700195 6.855347633361816 16.2481746673584 7.551324844360352 C17.64012908935547 8.482370376586914 18.123746871948242 10.603655815124512 16.864042282104492 11.863374710083008 C15.56881046295166 13.158621788024902 13.065483093261719 12.927946090698242 11.406561851501465 13.051325798034668 L11.406561851501465 13.051325798034668 C11.406561851501465 13.08503246307373 11.406561851501465 16.406883239746094 11.406561851501465 16.42335319519043 L11.406561851501465 16.42335319519043 C11.972280502319336 16.545988082885742 12.537999153137207 16.668624877929688 13.103717803955078 16.791259765625 L13.103717803955078 16.791259765625 C13.103717803955078 17.128450393676758 13.103717803955078 17.46564292907715 13.103717803955078 17.802833557128906 L13.103717803955078 17.802833557128906 C11.166279792785645 17.802833557128906 9.228842735290527 17.802833557128906 7.291403770446777 17.802833557128906 L7.291403770446777 17.802833557128906 C7.291403770446777 17.458324432373047 7.291403770446777 17.113813400268555 7.291403770446777 16.769304275512695 L7.291403770446777 16.769304275512695 C7.803123474121094 16.663301467895508 8.31484317779541 16.557296752929688 8.826562881469727 16.4512939453125 L8.826562881469727 16.4512939453125 C8.826562881469727 15.132798194885254 8.826562881469727 13.814302444458008 8.826562881469727 12.495807647705078 C8.826562881469727 11.177311897277832 8.826562881469727 9.858816146850586 8.826562881469727 8.54032039642334 L8.826562881469727 8.54032039642334 C8.159481048583984 8.32327938079834 7.549653053283691 7.704788684844971 7.36225700378418 7.028779983520508 L7.36225700378418 7.028779983520508"></path>
<path fill="none" stroke="black" stroke-width=".3" stroke-opacity="1.0"  filling="0" d="M11.307099342346191 8.27320671081543 L11.307099342346191 8.27320671081543 C12.29247760772705 8.254890441894531 13.957043647766113 7.960482597351074 14.74341106414795 8.808931350708008 C16.88993263244629 11.124914169311523 12.772972106933594 11.600041389465332 11.540948867797852 11.57271671295166 L11.540948867797852 11.57271671295166 C11.330705642700195 10.490351676940918 11.264693260192871 9.37498664855957 11.307099342346191 8.27320671081543 L11.307099342346191 8.27320671081543"></path></svg>