<svg xmlns="http://www.w3.org/2000/svg" viewBox="0.0 0.0 24.0 24.0" height="200px" width="200px"><path fill="none" stroke="black" stroke-width=".3" stroke-opacity="1.0"  filling="0" d="M8.805547714233398 10.250351905822754 L8.805547714233398 10.250351905822754 C10.394861221313477 9.444820404052734 12.451318740844727 9.125465393066406 14.149805068969727 9.584193229675293 C15.848289489746094 10.04292106628418 17.18880271911621 11.279731750488281 17.34622573852539 13.586528778076172 C17.461559295654297 15.27657699584961 16.93345832824707 15.978778839111328 16.28516387939453 17.513723373413086 L16.28516387939453 17.513723373413086 C16.76807975769043 18.046817779541016 17.23980712890625 18.5902042388916 17.7015380859375 19.14175033569336 L17.7015380859375 19.14175033569336 C16.74420738220215 19.32748031616211 15.651076316833496 19.184118270874023 14.81135368347168 18.68829345703125 L14.81135368347168 18.68829345703125 C13.088321685791016 19.108694076538086 11.468628883361816 19.498842239379883 9.7617826461792 18.70574188232422 C7.902392864227295 17.841760635375977 7.081421852111816 16.36469268798828 7.016254901885986 14.785228729248047 C6.951087474822998 13.205765724182129 7.6417236328125 11.523908615112305 8.805547714233398 10.250351905822754 L8.805547714233398 10.250351905822754"></path>
<path fill="none" stroke="black" stroke-width=".3" stroke-opacity="1.0"  filling="0" d="M13.801627159118652 12.165846824645996 L13.801627159118652 12.165846824645996 C14.36650562286377 13.00291633605957 14.637984275817871 14.111133575439453 14.506081581115723 15.112319946289062 L14.506081581115723 15.112319946289062 C13.507363319396973 15.112319946289062 12.508645057678223 15.112319946289062 11.509926795959473 15.112319946289062 L11.509926795959473 15.112319946289062 C11.88967514038086 15.581764221191406 12.269423484802246 16.05120849609375 12.649171829223633 16.520652770996094 L12.649171829223633 16.520652770996094 C11.305438995361328 16.504383087158203 10.465523719787598 16.89844512939453 9.75841236114502 15.40064811706543 C8.94168472290039 13.67066478729248 10.201016426086426 11.594971656799316 12.13982105255127 11.590085983276367 C12.726059913635254 11.588608741760254 13.247692108154297 11.973926544189453 13.801627159118652 12.165846824645996 L13.801627159118652 12.165846824645996"></path></svg>