<svg xmlns="http://www.w3.org/2000/svg" viewBox="0.0 0.0 24.0 24.0" height="200px" width="200px"><path fill="none" stroke="black" stroke-width=".3" stroke-opacity="1.0"  filling="0" d="M5.699214935302734 7.7201433181762695 C8.73879623413086 7.7201433181762695 11.650899887084961 7.566936492919922 14.539026260375977 7.764000415802002 C17.327159881591797 7.954046726226807 19.21125602722168 9.862703323364258 19.74338722229004 12.522774696350098 C20.255638122558594 15.085775375366211 19.2937068939209 17.24997329711914 16.990924835205078 18.71070098876953 C16.684511184692383 18.905426025390625 16.37400245666504 19.094303131103516 15.8588285446167 19.414165496826172 C17.710763931274414 21.833904266357422 19.462703704833984 24.12323760986328 21.559650421142578 26.863422393798828 C19.24985122680664 26.863422393798828 17.421892166137695 26.863422393798828 15.4266939163208 26.863422393798828 C14.003972053527832 24.802143096923828 12.53447151184082 22.67303466796875 10.645112991333008 19.935190200805664 C10.645112991333008 22.613975524902344 10.645112991333008 24.581689834594727 10.645112991333008 26.75290298461914 C8.892003059387207 26.75290298461914 7.3897552490234375 26.75290298461914 5.699214935302734 26.75290298461914 C5.699214935302734 20.47492218017578 5.699214935302734 14.195772171020508 5.699214935302734 7.7201433181762695"></path>
<path fill="none" stroke="black" stroke-width=".3" stroke-opacity="1.0"  filling="0" d="M10.67844295501709 11.938600540161133 C13.330327987670898 11.712298393249512 14.377634048461914 12.226886749267578 14.561246871948242 13.767728805541992 C14.756556510925293 15.40739631652832 13.656039237976074 16.184539794921875 10.67844295501709 16.305585861206055 C10.67844295501709 14.719717979431152 10.67844295501709 13.32272720336914 10.67844295501709 11.938600540161133"></path></svg>