<svg xmlns="http://www.w3.org/2000/svg" viewBox="0.0 0.0 24.0 24.0" height="200px" width="200px"><path fill="none" stroke="black" stroke-width=".3" stroke-opacity="1.0"  filling="0" d="M6.235222339630127 7.6274919509887695 L6.235222339630127 7.6274919509887695 C7.930792331695557 7.6274919509887695 9.626358032226562 7.6274919509887695 11.321928977966309 7.6274919509887695 L11.321928977966309 7.6274919509887695 C11.248419761657715 8.217460632324219 10.597221374511719 8.68128490447998 10.028970718383789 8.856093406677246 L10.028970718383789 8.856093406677246 C10.507429122924805 10.859146118164062 11.210226058959961 12.548702239990234 12.082200050354004 14.412010192871094 L12.082200050354004 14.412010192871094 C12.769254684448242 12.563454627990723 13.456299781799316 10.714898109436035 14.143325805664062 8.866332054138184 L14.143325805664062 8.866332054138184 C13.604593276977539 8.761900901794434 13.065861701965332 8.657469749450684 12.527129173278809 8.553038597106934 L12.527129173278809 8.553038597106934 C12.507627487182617 8.246376037597656 12.488125801086426 7.9397125244140625 12.468624114990234 7.633049488067627 L12.468624114990234 7.633049488067627 C13.990826606750488 7.633049488067627 15.513022422790527 7.633049488067627 17.03522300720215 7.633049488067627 L17.03522300720215 7.633049488067627 C17.03522300720215 7.957751750946045 17.03522300720215 8.282453536987305 17.03522300720215 8.607155799865723 L17.03522300720215 8.607155799865723 C15.73189926147461 9.116662979125977 14.883888244628906 10.625391960144043 14.242422103881836 12.31899642944336 C13.600956916809082 14.012600898742676 13.166036605834961 15.891081809997559 12.688895225524902 17.140092849731445 L12.688895225524902 17.140092849731445 C12.681981086730957 17.140092849731445 10.661022186279297 17.140092849731445 10.655558586120605 17.140092849731445 L10.655558586120605 17.140092849731445 C10.068483352661133 15.488699913024902 9.487887382507324 13.834842681884766 8.89064884185791 12.18708324432373 C8.539776802062988 11.219040870666504 8.47431755065918 10.080431938171387 7.810977935791016 9.292905807495117 C7.318632125854492 8.708386421203613 6.529884338378906 8.332645416259766 6.235222339630127 7.6274919509887695 L6.235222339630127 7.6274919509887695"></path></svg>