<svg xmlns="http://www.w3.org/2000/svg" viewBox="0.0 0.0 24.0 24.0" height="200px" width="200px"><path fill="none" stroke="black" stroke-width=".3" stroke-opacity="1.0"  filling="0" d="M10.743640899658203 9.28125 C11.590978622436523 9.28125 12.343196868896484 9.28125 13.32446575164795 9.28125 C14.090381622314453 11.680583953857422 14.885973930358887 14.172375679016113 15.681185722351074 16.664167404174805 C15.789243698120117 16.667591094970703 15.896921157836914 16.671016693115234 16.00497817993164 16.674442291259766 C16.73855209350586 14.254560470581055 17.472126007080078 11.834680557250977 18.23233413696289 9.32690715789795 C19.320138931274414 9.32690715789795 20.3660888671875 9.32690715789795 21.632722854614258 9.32690715789795 C20.286569595336914 13.518322944641113 18.977703094482422 17.594451904296875 17.6585636138916 21.702159881591797 C16.48819351196289 21.702159881591797 15.426261901855469 21.702159881591797 14.2745361328125 21.702159881591797 C13.556562423706055 19.50448226928711 12.844295501708984 17.324687957763672 12.13240909576416 15.144513130187988 C12.022448539733887 15.136902809143066 11.912107467651367 15.128911972045898 11.801767349243164 15.120923042297363 C11.048027992248535 17.298816680908203 10.29390811920166 19.477087020874023 9.524188041687012 21.701019287109375 C8.414315223693848 21.701019287109375 7.351622104644775 21.701019287109375 6.162989139556885 21.701019287109375 C4.927176475524902 17.58608055114746 3.696690559387207 13.490926742553711 2.4331016540527344 9.285054206848145 C3.603470802307129 9.285054206848145 4.605286121368408 9.285054206848145 5.821314334869385 9.285054206848145 C6.497054576873779 11.702271461486816 7.1853508949279785 14.165526390075684 7.8736467361450195 16.628782272338867 C7.98094367980957 16.65579605102539 8.088621139526367 16.683191299438477 8.195917129516602 16.710206985473633 C9.042494773864746 14.242384910583496 9.888691902160645 11.77418327331543 10.743640899658203 9.28125"></path></svg>