<svg xmlns="http://www.w3.org/2000/svg" viewBox="0.0 0.0 24.0 24.0" height="200px" width="200px"><path fill="none" stroke="black" stroke-width=".3" stroke-opacity="1.0"  filling="0" d="M13.655174255371094 7.8757004737854 L13.655174255371094 7.8757004737854 C14.875614166259766 7.8757004737854 16.096054077148438 7.8757004737854 17.31649398803711 7.8757004737854 L17.31649398803711 7.8757004737854 C16.338367462158203 10.062427520751953 15.026293754577637 12.079514503479004 13.88636589050293 14.184617042541504 C12.98005199432373 15.858304977416992 12.247401237487793 17.848142623901367 10.219663619995117 18.45759391784668 C9.456023216247559 18.687110900878906 7.345387935638428 18.627342224121094 6.516494274139404 18.624547958374023 L6.516494274139404 18.624547958374023 C6.652963161468506 17.827898025512695 6.789464473724365 17.031251907348633 6.9260125160217285 16.234615325927734 L6.9260125160217285 16.234615325927734 C7.590259552001953 16.192913055419922 8.254507064819336 16.151212692260742 8.918753623962402 16.10951042175293 L8.918753623962402 16.10951042175293 C8.50040054321289 14.76699447631836 8.291393280029297 13.420509338378906 8.143455505371094 12.063260078430176 C7.995517730712891 10.706010818481445 7.908649444580078 9.337997436523438 7.734571933746338 7.952426910400391 L7.734571933746338 7.952426910400391 C8.979765892028809 7.952426910400391 10.224960327148438 7.952426910400391 11.47015380859375 7.952426910400391 L11.47015380859375 7.952426910400391 C11.47015380859375 9.250004768371582 11.47015380859375 10.547582626342773 11.47015380859375 11.845160484313965 L11.47015380859375 11.845160484313965 C11.551605224609375 11.865394592285156 11.633056640625 11.885629653930664 11.714508056640625 11.905863761901855 L11.714508056640625 11.905863761901855 C12.361406326293945 10.562480926513672 13.008318901062012 9.219104766845703 13.655174255371094 7.8757004737854 L13.655174255371094 7.8757004737854"></path></svg>