<svg xmlns="http://www.w3.org/2000/svg" viewBox="0.0 0.0 24.0 24.0" height="200px" width="200px"><path fill="none" stroke="black" stroke-width=".3" stroke-opacity="1.0"  filling="0" d="M12.962644577026367 6.903815269470215 C16.529178619384766 7.250179290771484 17.688552856445312 8.779107093811035 17.841445922851562 12.385493278503418 C17.92767333984375 14.431792259216309 17.834924697875977 16.48606300354004 17.902313232421875 18.533809661865234 C17.936370849609375 19.55623435974121 18.150131225585938 20.572139739990234 18.900102615356445 21.641664505004883 C19.593555450439453 20.306930541992188 20.287006378173828 18.972925186157227 20.981182098388672 17.638193130493164 C21.278274536132812 17.85050392150879 21.57463836669922 18.062091827392578 21.871728897094727 18.2736759185791 C22.107952117919922 20.5837345123291 22.196353912353516 22.864084243774414 19.731952667236328 24.227075576782227 C17.77985382080078 25.306743621826172 16.05745506286621 24.827775955200195 13.98724365234375 22.936542510986328 C11.738778114318848 23.573474884033203 9.748272895812988 24.47271728515625 7.699799060821533 24.63213348388672 C5.183952331542969 24.827775955200195 3.368803024291992 23.201026916503906 2.9079513549804688 21.08226776123047 C2.4224624633789062 18.849740982055664 3.3572092056274414 16.986042022705078 5.808566570281982 15.890432357788086 C7.444736480712891 15.159300804138184 9.212785720825195 14.714391708374023 10.938806533813477 14.19701862335205 C12.560484886169434 13.710805892944336 13.942317008972168 12.99778938293457 13.57638931274414 10.994241714477539 C13.219881057739258 9.043590545654297 11.667765617370605 8.698675155639648 9.992466926574707 8.732731819152832 C9.280899047851562 8.747224807739258 8.571504592895508 8.892870903015137 7.75486946105957 8.991418838500977 C7.870808124542236 9.427633285522461 7.854141712188721 9.859500885009766 8.059930801391602 10.050073623657227 C9.182352066040039 11.089164733886719 9.254814147949219 12.252889633178711 8.091814041137695 13.110103607177734 C7.4302449226379395 13.598490715026855 6.031022071838379 13.94195556640625 5.513650417327881 13.57530403137207 C4.685420989990234 12.98836898803711 3.702848434448242 11.610159873962402 3.889798164367676 10.831928253173828 C4.182541370391846 9.610960006713867 5.196995258331299 7.9907307624816895 6.261448383331299 7.648714542388916 C8.369339942932129 6.971928596496582 10.755481719970703 6.6893310546875 12.962644577026367 6.903815269470215"></path>
<path fill="none" stroke="black" stroke-width=".3" stroke-opacity="1.0"  filling="0" d="M13.316254615783691 15.396974563598633 C13.666966438293457 18.28961753845215 13.610445976257324 20.48373794555664 11.097497940063477 21.357616424560547 C10.223617553710938 21.661231994628906 8.999751091003418 20.959083557128906 7.9360222816467285 20.716339111328125 C8.207751274108887 19.67217445373535 8.153406143188477 18.254837036132812 8.825119972229004 17.667179107666016 C9.933773040771484 16.696199417114258 11.511250495910645 16.26143455505371 13.316254615783691 15.396974563598633"></path></svg>