<svg xmlns="http://www.w3.org/2000/svg" viewBox="0.0 0.0 24.0 24.0" height="200px" width="200px"><path fill="none" stroke="black" stroke-width=".3" stroke-opacity="1.0"  filling="0" d="M14.021743774414062 10.804423332214355 L14.021743774414062 10.804423332214355 C14.596650123596191 10.800642967224121 15.242302894592285 10.51675796508789 15.746461868286133 10.793082237243652 C17.029510498046875 11.496307373046875 16.48876953125 13.992513656616211 16.508686065673828 15.099571228027344 L16.508686065673828 15.099571228027344 C16.87431526184082 15.415738105773926 17.239946365356445 15.731904029846191 17.605575561523438 16.048070907592773 L17.605575561523438 16.048070907592773 C17.559167861938477 16.12681007385254 17.51276206970215 16.205551147460938 17.466354370117188 16.284290313720703 L17.466354370117188 16.284290313720703 C16.423995971679688 16.284290313720703 15.381636619567871 16.284290313720703 14.339277267456055 16.284290313720703 L14.339277267456055 16.284290313720703 C14.433321952819824 15.39086627960205 16.393075942993164 12.37439250946045 14.56777572631836 11.614423751831055 C13.093297958374023 11.000520706176758 12.71944808959961 13.861144065856934 12.91580581665039 14.571756362915039 C13.084208488464355 15.181199073791504 13.759794235229492 15.633734703063965 13.768875122070312 16.26595115661621 L13.768875122070312 16.26595115661621 C12.760215759277344 16.26595115661621 11.751555442810059 16.26595115661621 10.74289608001709 16.26595115661621 L10.74289608001709 16.26595115661621 C10.880356788635254 15.571428298950195 11.40451717376709 14.993391990661621 11.546140670776367 14.299705505371094 C11.742759704589844 13.336645126342773 11.685126304626465 10.638221740722656 9.877400398254395 11.958740234375 C8.50652027130127 12.960149765014648 9.777985572814941 15.320727348327637 10.347667694091797 16.295629501342773 L10.347667694091797 16.295629501342773 C9.217962265014648 16.295629501342773 8.088257789611816 16.295629501342773 6.958552837371826 16.295629501342773 L6.958552837371826 16.295629501342773 C6.911260604858398 16.223886489868164 6.8639678955078125 16.152145385742188 6.816675662994385 16.080402374267578 L6.816675662994385 16.080402374267578 C8.218521118164062 14.826053619384766 7.989227294921875 13.781444549560547 7.987640857696533 11.994450569152832 L7.987640857696533 11.994450569152832 C7.593619346618652 11.713431358337402 7.1995978355407715 11.432413101196289 6.805576324462891 11.15139389038086 L6.805576324462891 11.15139389038086 C6.855040073394775 11.045146942138672 6.90450382232666 10.9389009475708 6.953967571258545 10.832653999328613 L6.953967571258545 10.832653999328613 C7.865361213684082 10.79773235321045 8.801895141601562 10.98184585571289 9.644315719604492 11.33139419555664 L9.644315719604492 11.33139419555664 C10.238273620605469 11.067194938659668 10.777362823486328 10.498647689819336 11.426189422607422 10.538796424865723 C12.037989616394043 10.576653480529785 12.455700874328613 11.20440673828125 12.97045612335205 11.537211418151855 L12.97045612335205 11.537211418151855 C13.32088565826416 11.292948722839355 13.671314239501953 11.048686027526855 14.021743774414062 10.804423332214355 L14.021743774414062 10.804423332214355"></path></svg>