<svg xmlns="http://www.w3.org/2000/svg" viewBox="0.0 0.0 24.0 24.0" height="200px" width="200px"><path fill="none" stroke="black" stroke-width=".3" stroke-opacity="1.0"  filling="0" d="M12.902680397033691 10.514467239379883 C15.074453353881836 9.677682876586914 17.809194564819336 11.396696090698242 19.04193115234375 13.583806991577148 C20.482017517089844 16.13846778869629 20.268985748291016 19.431631088256836 18.523841857910156 21.589202880859375 C16.855955123901367 23.651338577270508 14.174613952636719 24.41881561279297 11.667104721069336 23.54624366760254 C11.13822078704834 23.36219024658203 10.61672306060791 23.1605167388916 9.663482666015625 22.8094425201416 C9.663482666015625 25.230606079101562 9.663482666015625 27.2830810546875 9.663482666015625 29.49859619140625 C8.166589736938477 29.49859619140625 6.887838840484619 29.49859619140625 5.390377521514893 29.49859619140625 C5.390377521514893 23.438308715820312 5.390377521514893 17.360408782958984 5.390377521514893 11.113224029541016 C5.811893939971924 11.051871299743652 6.253860950469971 10.947912216186523 6.699804782867432 10.929734230041504 C8.761370658874512 10.84622573852539 10.752493858337402 11.342161178588867 12.902680397033691 10.514467239379883"></path>
<path fill="none" stroke="black" stroke-width=".3" stroke-opacity="1.0"  filling="0" d="M12.43969440460205 14.3172025680542 C13.916705131530762 14.316635131835938 15.337475776672363 15.709568977355957 15.3425874710083 17.163854598999023 C15.34826946258545 18.626094818115234 13.946245193481445 20.020166397094727 12.46298599243164 20.027551651000977 C10.870086669921875 20.034936904907227 9.662347793579102 18.81072235107422 9.657234191894531 17.183738708496094 C9.652688980102539 15.552778244018555 10.8507719039917 14.318339347839355 12.43969440460205 14.3172025680542"></path></svg>