<svg xmlns="http://www.w3.org/2000/svg" viewBox="0.0 0.0 24.0 24.0" height="200px" width="200px"><path fill="none" stroke="black" stroke-width=".3" stroke-opacity="1.0"  filling="0" d="M12.947540283203125 8.208431243896484 L12.947540283203125 8.208431243896484 C13.567407608032227 8.348061561584473 14.278329849243164 8.27505874633789 14.80714225769043 8.62732219696045 C16.100906372070312 9.489151954650879 16.531375885009766 11.314716339111328 16.213111877441406 12.930444717407227 C15.89484691619873 14.546173095703125 14.82784652709961 15.952065467834473 13.12667179107666 15.974550247192383 C11.921048164367676 15.990485191345215 11.591174125671387 15.46771240234375 10.68025016784668 14.768617630004883 L10.68025016784668 14.768617630004883 C10.68025016784668 15.668540000915527 10.252335548400879 16.676708221435547 10.68025016784668 17.4683837890625 C11.011685371398926 18.08156394958496 11.793596267700195 18.369741439819336 12.118188858032227 18.986572265625 L12.118188858032227 18.986572265625 C10.588134765625 18.986572265625 9.058080673217773 18.986572265625 7.528025150299072 18.986572265625 L7.528025150299072 18.986572265625 C7.671941757202148 18.364633560180664 8.180366516113281 17.819002151489258 8.731459617614746 17.496797561645508 L8.731459617614746 17.496797561645508 C8.734210968017578 15.28862476348877 9.246719360351562 12.308300971984863 8.702108383178711 10.175955772399902 C8.6328763961792 9.904890060424805 7.462927341461182 8.911057472229004 7.297267436981201 8.76268482208252 L7.297267436981201 8.76268482208252 C8.41552448272705 8.610647201538086 9.693558692932129 8.480250358581543 10.671194076538086 9.044027328491211 L10.671194076538086 9.044027328491211 C11.412498474121094 8.721850395202637 12.173157691955566 8.440082550048828 12.947540283203125 8.208431243896484 L12.947540283203125 8.208431243896484"></path>
<path fill="none" stroke="black" stroke-width=".3" stroke-opacity="1.0"  filling="0" d="M12.586572647094727 9.433723449707031 L12.586572647094727 9.433723449707031 C14.057038307189941 10.221866607666016 15.363037109375 14.518714904785156 12.448243141174316 14.580327987670898 C10.971431732177734 14.61154556274414 10.848749160766602 13.1741361618042 10.781342506408691 12.243638038635254 C10.658514022827148 10.548084259033203 10.98483943939209 9.833081245422363 12.586572647094727 9.433723449707031 L12.586572647094727 9.433723449707031"></path></svg>