<svg xmlns="http://www.w3.org/2000/svg" viewBox="0.0 0.0 24.0 24.0" height="200px" width="200px"><path fill="none" stroke="black" stroke-width=".3" stroke-opacity="1.0"  filling="0" d="M12.395237922668457 7.604865550994873 L12.395237922668457 7.604865550994873 C13.018620491027832 7.795469760894775 13.729939460754395 7.804882049560547 14.265386581420898 8.176678657531738 C16.184185028076172 9.509027481079102 16.47238540649414 12.760725021362305 15.927433013916016 14.725482940673828 C15.406258583068848 16.604511260986328 14.695564270019531 18.38726043701172 12.372879028320312 18.4045352935791 C10.237998008728027 18.420412063598633 9.20861530303955 16.5905704498291 8.77515697479248 14.786035537719727 C8.287981033325195 12.757867813110352 8.596940040588379 9.468412399291992 10.518843650817871 8.166690826416016 C11.059419631958008 7.800554275512695 11.769773483276367 7.792140483856201 12.395237922668457 7.604865550994873 L12.395237922668457 7.604865550994873"></path>
<path fill="none" stroke="black" stroke-width=".3" stroke-opacity="1.0"  filling="0" d="M12.466262817382812 8.420001983642578 L12.466262817382812 8.420001983642578 C13.413930892944336 9.567403793334961 13.915678024291992 11.311728477478027 13.919811248779297 13.043460845947266 C13.923944473266602 14.77519416809082 13.430463790893555 16.494335174560547 12.387675285339355 17.59136962890625 L12.387675285339355 17.59136962890625 C11.33098316192627 16.475994110107422 10.824110984802246 14.7298002243042 10.844671249389648 12.989126205444336 C10.86523151397705 11.248451232910156 11.413224220275879 9.513298034667969 12.466262817382812 8.420001983642578 L12.466262817382812 8.420001983642578"></path></svg>