<svg xmlns="http://www.w3.org/2000/svg" viewBox="0.0 0.0 24.0 24.0" height="200px" width="200px"><path fill="none" stroke="black" stroke-width=".3" stroke-opacity="1.0"  filling="0" d="M9.299448013305664 10.148405075073242 C10.668252944946289 10.148405075073242 12.280492782592773 10.148405075073242 14.096048355102539 10.148405075073242 C14.221845626831055 11.456692695617676 14.349681854248047 12.780619621276855 14.495198249816895 14.294261932373047 C15.269018173217773 14.47785758972168 16.101316452026367 14.675732612609863 17.123332977294922 14.919166564941406 C17.123332977294922 16.06561851501465 17.123332977294922 17.263748168945312 17.123332977294922 18.72231101989746 C16.319591522216797 18.963024139404297 15.415895462036133 19.233659744262695 14.317042350769043 19.56277084350586 C14.317042350769043 22.825328826904297 14.317042350769043 25.96480941772461 14.317042350769043 29.348407745361328 C12.466808319091797 29.348407745361328 10.86408805847168 29.348407745361328 8.868337631225586 29.348407745361328 C8.868337631225586 26.810710906982422 8.973735809326172 24.348491668701172 8.815979957580566 21.902591705322266 C8.753421783447266 20.933616638183594 7.9605607986450195 20.031959533691406 7.758606433868408 19.045984268188477 C7.483212947845459 17.700298309326172 7.005865097045898 15.268678665161133 7.3954949378967285 15.098681449890137 C9.841394424438477 14.035868644714355 8.313472747802734 11.855162620544434 9.299448013305664 10.148405075073242"></path></svg>