<svg xmlns="http://www.w3.org/2000/svg" viewBox="0.0 0.0 24.0 24.0" height="200px" width="200px"><path fill="none" stroke="black" stroke-width=".3" stroke-opacity="1.0"  filling="0" d="M6.994934558868408 13.294483184814453 L6.994934558868408 13.294483184814453 C7.087381362915039 13.294483184814453 10.569356918334961 13.294483184814453 10.614343643188477 13.294483184814453 L10.614343643188477 13.294483184814453 C10.60772705078125 14.108943939208984 10.388452529907227 15.659488677978516 10.408470153808594 17.12580680847168 C10.428487777709961 18.592124938964844 10.687798500061035 19.974218368530273 11.638352394104004 20.45177459716797 C12.844456672668457 21.057720184326172 13.574462890625 20.246137619018555 13.924405097961426 19.379356384277344 C14.634101867675781 17.621490478515625 14.210342407226562 15.142498970031738 14.193580627441406 13.29628849029541 L14.193580627441406 13.29628849029541 C14.248665809631348 13.29628849029541 17.627586364746094 13.29628849029541 17.70376205444336 13.29628849029541 L17.70376205444336 13.29628849029541 C17.720951080322266 14.489160537719727 17.928421020507812 16.086196899414062 17.951515197753906 17.647212982177734 C17.974607467651367 19.208229064941406 17.813322067260742 20.733224868774414 17.093002319335938 21.782020568847656 C16.16257095336914 23.136741638183594 14.084863662719727 23.785579681396484 12.062128067016602 23.702863693237305 C10.039393424987793 23.620147705078125 8.07162857055664 22.805879592895508 7.361082077026367 21.23438835144043 C6.864139080047607 20.135316848754883 6.769659042358398 18.737430572509766 6.800886154174805 17.32076644897461 C6.832113742828369 15.904104232788086 6.989048004150391 14.468663215637207 6.994934558868408 13.294483184814453 L6.994934558868408 13.294483184814453"></path></svg>