<svg xmlns="http://www.w3.org/2000/svg" viewBox="0.0 0.0 24.0 24.0" height="200px" width="200px"><path fill="none" stroke="black" stroke-width=".3" stroke-opacity="1.0"  filling="0" d="M13.438989639282227 9.102718353271484 C16.412277221679688 9.102718353271484 18.83904457092285 9.102718353271484 21.707374572753906 9.102718353271484 C21.3231201171875 9.803060531616211 21.16929817199707 10.47927474975586 20.747644424438477 10.783902168273926 C18.826980590820312 12.171316146850586 16.831518173217773 13.45437240600586 14.368556022644043 15.10660171508789 C17.21094512939453 17.685382843017578 19.64253807067871 19.890766143798828 22.073528289794922 22.096755981445312 C21.94504165649414 22.264453887939453 21.81595230102539 22.432147979736328 21.68746566772461 22.5992431640625 C18.9156551361084 22.5992431640625 16.143844604492188 22.5992431640625 12.785697937011719 22.5992431640625 C13.437782287597656 21.502580642700195 13.88115119934082 20.757600784301758 14.463865280151367 19.777965545654297 C13.887786865234375 19.165693283081055 13.158490180969238 18.391155242919922 12.277180671691895 17.454952239990234 C11.255922317504883 18.383312225341797 10.386075019836426 19.174739837646484 9.500542640686035 19.979442596435547 C10.226823806762695 20.713565826416016 10.824617385864258 21.317995071411133 11.422411918640137 21.92242431640625 C11.31805419921875 22.114852905273438 11.214300155639648 22.306678771972656 11.109942436218262 22.499107360839844 C8.48531723022461 22.499107360839844 5.861294746398926 22.499107360839844 3.2366695404052734 22.499107360839844 C3.115422248840332 22.34588623046875 2.9941749572753906 22.193269729614258 2.872926712036133 22.04065704345703 C5.408878326416016 20.070526123046875 7.944830417633057 18.101001739501953 10.871670722961426 15.82745361328125 C8.184309959411621 13.53520393371582 5.861899375915527 11.554219245910645 3.0020179748535156 9.115386009216309 C6.599039554595947 9.115386009216309 9.411267280578613 9.115386009216309 12.710295677185059 9.115386009216309 C12.153520584106445 10.079940795898438 11.747551918029785 10.783902168273926 11.244462966918945 11.656163215637207 C11.690847396850586 12.203287124633789 12.239781379699707 12.87588119506836 12.910565376281738 13.697471618652344 C13.747236251831055 13.036941528320312 14.499456405639648 12.443368911743164 15.272789001464844 11.832907676696777 C14.69731330871582 10.976330757141113 14.211718559265137 10.253066062927246 13.438989639282227 9.102718353271484"></path></svg>