<svg xmlns="http://www.w3.org/2000/svg" viewBox="0.0 0.0 24.0 24.0" height="200px" width="200px"><path fill="none" stroke="black" stroke-width=".3" stroke-opacity="1.0"  filling="0" d="M9.619919776916504 9.708226203918457 L9.619919776916504 9.708226203918457 C11.029471397399902 9.708226203918457 12.439024925231934 9.708226203918457 13.848576545715332 9.708226203918457 L13.848576545715332 9.708226203918457 C13.848576545715332 11.50822639465332 13.848576545715332 13.308226585388184 13.848576545715332 15.108226776123047 C13.848576545715332 16.908226013183594 13.848576545715332 18.70822525024414 13.848576545715332 20.50822639465332 L13.848576545715332 20.50822639465332 C12.96318244934082 20.50843048095703 12.077789306640625 20.508533477783203 11.192395210266113 20.508560180664062 L11.192395210266113 20.508560180664062 C11.192395210266113 19.137737274169922 11.192395210266113 17.766910552978516 11.192395210266113 16.396087646484375 C11.192395210266113 15.025261878967285 11.192395210266113 13.654437065124512 11.192395210266113 12.283613204956055 L11.192395210266113 12.283613204956055 C10.66823673248291 12.151071548461914 10.144078254699707 12.018528938293457 9.619919776916504 11.885987281799316 L9.619919776916504 11.885987281799316 C9.619919776916504 11.696151733398438 9.619919776916504 9.845698356628418 9.619919776916504 9.708226203918457 L9.619919776916504 9.708226203918457"></path></svg>