<svg xmlns="http://www.w3.org/2000/svg" viewBox="0.0 0.0 24.0 24.0" height="200px" width="200px"><path fill="none" stroke="black" stroke-width=".3" stroke-opacity="1.0"  filling="0" d="M11.495004653930664 7.619225025177002 C13.270978927612305 7.619225025177002 14.92353630065918 7.619225025177002 16.958234786987305 7.619225025177002 C15.322662353515625 9.65788745880127 13.892599105834961 11.440655708312988 12.311942100524902 13.411381721496582 C13.547821044921875 13.411381721496582 14.482515335083008 13.290227890014648 15.374181747436523 13.434027671813965 C17.993135452270508 13.856367111206055 19.955936431884766 15.899557113647461 20.386199951171875 18.500961303710938 C20.849300384521484 21.302780151367188 19.653051376342773 24.120445251464844 17.189220428466797 25.502954483032227 C13.98148250579834 27.303272247314453 10.656556129455566 27.255151748657227 7.529210090637207 25.36029052734375 C5.121992588043213 23.90191650390625 4.127853870391846 21.525272369384766 4.756832599639893 18.795352935791016 C5.149166584014893 17.093542098999023 5.902130603790283 15.397395133972168 6.839654922485352 13.917509078979492 C8.24254322052002 11.703344345092773 9.949448585510254 9.680532455444336 11.495004653930664 7.619225025177002"></path>
<path fill="none" stroke="black" stroke-width=".3" stroke-opacity="1.0"  filling="0" d="M12.386672019958496 17.1003360748291 C14.063006401062012 17.07316017150879 15.340779304504395 18.229780197143555 15.371917724609375 19.803075790405273 C15.406451225280762 21.537723541259766 14.099238395690918 22.81493377685547 12.323831558227539 22.78152847290039 C10.71656608581543 22.752090454101562 9.456342697143555 21.48507308959961 9.454645156860352 19.897056579589844 C9.453512191772461 18.328289031982422 10.712037086486816 17.12751007080078 12.386672019958496 17.1003360748291"></path></svg>