<svg xmlns="http://www.w3.org/2000/svg" viewBox="0.0 0.0 24.0 24.0" height="200px" width="200px"><path fill="none" stroke="black" stroke-width=".3" stroke-opacity="1.0"  filling="0" d="M8.571297645568848 9.698531150817871 L8.571297645568848 9.698531150817871 C10.75071907043457 9.651694297790527 13.351089477539062 9.260014533996582 15.348661422729492 10.397379875183105 C17.08712387084961 11.387214660644531 17.706281661987305 13.221704483032227 17.515262603759766 15.034319877624512 C17.32424545288086 16.846935272216797 16.323049545288086 18.637676239013672 14.820804595947266 19.54001235961914 C13.722365379333496 20.199800491333008 12.436713218688965 20.422225952148438 11.122016906738281 20.476184844970703 C9.807320594787598 20.53014373779297 8.463579177856445 20.415637969970703 7.248963356018066 20.40155792236328 L7.248963356018066 20.40155792236328 C7.469228744506836 18.61770248413086 7.689581871032715 16.8338623046875 7.9099836349487305 15.050025939941406 C8.130386352539062 13.266190528869629 8.350836753845215 11.48236083984375 8.571297645568848 9.698531150817871 L8.571297645568848 9.698531150817871"></path>
<path fill="none" stroke="black" stroke-width=".3" stroke-opacity="1.0"  filling="0" d="M11.08337116241455 12.078996658325195 L11.08337116241455 12.078996658325195 C12.448070526123047 12.122220993041992 13.382204055786133 11.780962944030762 14.219173431396484 13.193201065063477 C15.170660018920898 14.798667907714844 14.385799407958984 17.29941749572754 12.497855186462402 17.817371368408203 C11.814553260803223 18.004833221435547 11.081433296203613 17.773530960083008 10.373222351074219 17.751609802246094 L10.373222351074219 17.751609802246094 C10.610054969787598 15.86075210571289 10.846762657165527 13.969884872436523 11.08337116241455 12.078996658325195 L11.08337116241455 12.078996658325195"></path></svg>