<svg xmlns="http://www.w3.org/2000/svg" viewBox="0.0 0.0 24.0 24.0" height="200px" width="200px"><path fill="none" stroke="black" stroke-width=".3" stroke-opacity="1.0"  filling="0" d="M11.02155590057373 9.710752487182617 L11.02155590057373 9.710752487182617 C12.623758316040039 9.446513175964355 13.801828384399414 9.43896484375 14.798150062561035 9.844198226928711 C15.79447078704834 10.249432563781738 16.60904312133789 11.067448616027832 17.48424530029297 12.454338073730469 L17.48424530029297 12.454338073730469 C16.78821563720703 12.744309425354004 16.092182159423828 13.034265518188477 15.396138191223145 13.324202537536621 L15.396138191223145 13.324202537536621 C14.85599136352539 12.652297019958496 14.40572452545166 11.81909465789795 13.45226764678955 11.630767822265625 C11.096181869506836 11.165393829345703 10.071366310119629 13.145572662353516 10.15445327758789 15.017894744873047 C10.237540245056152 16.890216827392578 11.428529739379883 18.654682159423828 13.50405216217041 17.757884979248047 C14.05783748626709 17.518604278564453 14.378767967224121 16.92685890197754 14.816125869750977 16.51134490966797 L14.816125869750977 16.51134490966797 C14.11136245727539 16.441118240356445 13.406599998474121 16.370887756347656 12.701837539672852 16.300655364990234 L12.701837539672852 16.300655364990234 C12.731782913208008 15.634085655212402 12.761768341064453 14.967517852783203 12.791780471801758 14.300951957702637 L12.791780471801758 14.300951957702637 C14.368974685668945 14.300951957702637 15.946170806884766 14.300951957702637 17.523365020751953 14.300951957702637 L17.523365020751953 14.300951957702637 C17.46551513671875 15.97038745880127 17.69756507873535 16.67977523803711 16.692424774169922 18.100486755371094 C15.741442680358887 19.44464874267578 14.158112525939941 20.133808135986328 12.563170433044434 20.16071128845215 C10.968229293823242 20.18761444091797 9.361675262451172 19.552265167236328 8.36424732208252 18.247407913208008 C6.922985076904297 16.361919403076172 7.1084065437316895 13.549453735351562 8.432823181152344 11.665833473205566 C9.311057090759277 10.416786193847656 9.71724796295166 10.399433135986328 11.02155590057373 9.710752487182617 L11.02155590057373 9.710752487182617"></path></svg>