<svg xmlns="http://www.w3.org/2000/svg" viewBox="0.0 0.0 24.0 24.0" height="200px" width="200px"><path fill="none" stroke="black" stroke-width=".3" stroke-opacity="1.0"  filling="0" d="M8.15192985534668 6.64697265625 C8.639824867248535 6.645866870880127 9.12771987915039 6.64697265625 9.842242240905762 6.64697265625 C10.196003913879395 9.140618324279785 10.543868064880371 11.591148376464844 10.948114395141602 14.438554763793945 C12.618528366088867 11.676641464233398 14.097322463989258 9.233111381530762 15.607070922851562 6.737623691558838 C17.395404815673828 6.737623691558838 19.153522491455078 6.737623691558838 21.021453857421875 6.737623691558838 C20.93338394165039 7.17650842666626 20.854522705078125 7.567856311798096 20.757976531982422 8.048749923706055 C19.260021209716797 7.852339267730713 18.70284652709961 8.589709281921387 18.477691650390625 9.987064361572266 C18.099241256713867 12.333309173583984 17.51148223876953 14.646020889282227 17.043487548828125 16.82386016845703 C17.527698516845703 17.611347198486328 19.230173110961914 17.054540634155273 18.439739227294922 18.686264038085938 C16.525007247924805 18.686264038085938 14.526259422302246 18.686264038085938 12.52640438079834 18.686264038085938 C12.52087688446045 17.4893741607666 12.52087688446045 17.4893741607666 14.501937866210938 17.197153091430664 C15.038106918334961 14.833218574523926 15.598965644836426 12.360946655273438 16.159454345703125 9.888673782348633 C16.064380645751953 9.837821960449219 15.968940734863281 9.787336349487305 15.873866081237793 9.736483573913574 C15.644658088684082 10.019124031066895 15.37860107421875 10.279653549194336 15.192508697509766 10.588088989257812 C13.76604175567627 12.948336601257324 12.357263565063477 15.3192720413208 10.938535690307617 17.683940887451172 C10.563032150268555 18.309656143188477 10.278550148010254 19.092721939086914 9.091608047485352 18.633935928344727 C8.662673950195312 15.698458671569824 8.214207649230957 12.631425857543945 7.766110897064209 9.564393997192383 C7.638609409332275 9.54449462890625 7.511107921600342 9.524226188659668 7.383606910705566 9.504327774047852 C6.832329273223877 11.990602493286133 6.280683994293213 14.47687816619873 5.70987606048584 17.051225662231445 C6.094222068786621 17.185359954833984 6.359543323516846 17.297752380371094 6.635918617248535 17.36813735961914 C6.863652229309082 17.426359176635742 7.103914737701416 17.434833526611328 7.298483371734619 17.460262298583984 C7.373289108276367 17.641931533813477 7.457675933837891 17.749534606933594 7.454359531402588 17.85418701171875 C7.432249546051025 18.52191162109375 7.103546619415283 18.824817657470703 6.407448768615723 18.811920166015625 C4.880381107330322 18.783178329467773 3.35257625579834 18.803077697753906 1.821824073791504 18.803077697753906 C1.881150245666504 17.54722785949707 1.881150245666504 17.54722785949707 3.798092842102051 17.060806274414062 C4.407960414886475 14.166601181030273 5.010091304779053 11.30850887298584 5.631752014160156 8.359027862548828 C5.017829895019531 8.1895170211792 4.569732666015625 8.066069602966309 4.127162933349609 7.943727493286133 C4.079257965087891 7.8276495933532715 3.967233657836914 7.667351245880127 4.002241611480713 7.622763156890869 C4.265350341796875 7.287426948547363 4.531407833099365 6.732833385467529 4.844635009765625 6.699667930603027 C5.936502933502197 6.583221912384033 7.047901153564453 6.649183750152588 8.15192985534668 6.64697265625"></path></svg>