<svg xmlns="http://www.w3.org/2000/svg" viewBox="0.0 0.0 24.0 24.0" height="200px" width="200px"><path fill="none" stroke="black" stroke-width=".3" stroke-opacity="1.0"  filling="0" d="M9.461445808410645 9.593836784362793 L9.461445808410645 9.593836784362793 C11.331354141235352 9.576407432556152 13.911384582519531 9.150928497314453 15.639739990234375 10.061224937438965 C17.6658992767334 11.128369331359863 17.875873565673828 14.397547721862793 16.107261657714844 15.796539306640625 C14.812942504882812 16.82036018371582 12.965446472167969 16.808448791503906 11.421899795532227 16.973438262939453 L11.421899795532227 16.973438262939453 C11.207456588745117 18.098175048828125 11.032903671264648 19.231340408325195 10.901247024536133 20.368743896484375 L10.901247024536133 20.368743896484375 C9.978026390075684 20.368743896484375 9.054804801940918 20.368743896484375 8.131584167480469 20.368743896484375 L8.131584167480469 20.368743896484375 C8.353363037109375 18.57294273376465 8.5750732421875 16.77713394165039 8.796716690063477 14.981315612792969 C9.018360137939453 13.185498237609863 9.239936828613281 11.389671325683594 9.461445808410645 9.593836784362793 L9.461445808410645 9.593836784362793"></path>
<path fill="none" stroke="black" stroke-width=".3" stroke-opacity="1.0"  filling="0" d="M12.001319885253906 12.021459579467773 L12.001319885253906 12.021459579467773 C12.616782188415527 12.055465698242188 13.286147117614746 11.86931037902832 13.84770679473877 12.1234769821167 C14.627518653869629 12.476426124572754 14.430042266845703 13.876540184020996 13.797028541564941 14.196309089660645 C13.158409118652344 14.51891040802002 12.375825881958008 14.36306381225586 11.665224075317383 14.446441650390625 L11.665224075317383 14.446441650390625 C11.67674732208252 14.3633394241333 11.980978965759277 12.168294906616211 12.001319885253906 12.021459579467773 L12.001319885253906 12.021459579467773"></path></svg>