<svg xmlns="http://www.w3.org/2000/svg" viewBox="0.0 0.0 24.0 24.0" height="200px" width="200px"><path fill="none" stroke="black" stroke-width=".3" stroke-opacity="1.0"  filling="0" d="M8.901317596435547 7.41085958480835 L8.901317596435547 7.41085958480835 C10.314645767211914 7.41085958480835 11.727974891662598 7.41085958480835 13.141304969787598 7.41085958480835 C14.554634094238281 7.41085958480835 15.967964172363281 7.41085958480835 17.38129234313965 7.41085958480835 L17.38129234313965 7.41085958480835 C16.46708869934082 9.14159107208252 15.14229965209961 10.631734848022461 13.71182632446289 12.040769577026367 C12.281352996826172 13.449804306030273 10.745197296142578 14.777728080749512 9.408257484436035 16.184019088745117 L9.408257484436035 16.184019088745117 C10.893028259277344 16.218048095703125 12.708731651306152 16.595165252685547 13.855175971984863 15.317191123962402 C14.228941917419434 14.900544166564941 14.183287620544434 14.20490550994873 14.564754486083984 13.795297622680664 C14.927838325500488 13.405427932739258 15.50441837310791 13.29295825958252 15.974249839782715 13.041788101196289 L15.974249839782715 13.041788101196289 C15.677200317382812 14.480318069458008 15.380086898803711 15.918840408325195 15.08304214477539 17.357372283935547 L15.08304214477539 17.357372283935547 C13.680907249450684 17.357372283935547 12.278772354125977 17.357372283935547 10.876636505126953 17.357372283935547 C9.47450065612793 17.357372283935547 8.072364807128906 17.357372283935547 6.670229434967041 17.357372283935547 L6.670229434967041 17.357372283935547 C6.764224529266357 15.818625450134277 7.475498676300049 15.45073413848877 8.581014633178711 14.35133171081543 C9.502840995788574 13.434602737426758 10.40864372253418 12.491401672363281 11.334280967712402 11.569878578186035 C12.259918212890625 10.648355484008789 13.205389022827148 9.748509407043457 14.206554412841797 8.918492317199707 L14.206554412841797 8.918492317199707 C14.151351928710938 8.789278030395508 14.096149444580078 8.660063743591309 14.040946960449219 8.53084945678711 L14.040946960449219 8.53084945678711 C13.115175247192383 8.531878471374512 11.3023099899292 8.406888008117676 10.492290496826172 8.982511520385742 C9.957523345947266 9.362532615661621 9.884037017822266 10.167380332946777 9.425125122070312 10.636199951171875 C9.055764198303223 11.013534545898438 8.52185344696045 11.183314323425293 8.070218086242676 11.45687198638916 L8.070218086242676 11.45687198638916 C8.347160339355469 10.108183860778809 8.624229431152344 8.75951862335205 8.901317596435547 7.41085958480835 L8.901317596435547 7.41085958480835"></path></svg>