<svg xmlns="http://www.w3.org/2000/svg" viewBox="0.0 0.0 24.0 24.0" height="200px" width="200px"><path fill="none" stroke="black" stroke-width=".3" stroke-opacity="1.0"  filling="0" d="M16.59457015991211 7.160140037536621 C17.213924407958984 7.272819995880127 17.8271484375 7.482848644256592 18.410476684570312 7.72660493850708 C20.769847869873047 8.711593627929688 21.63602638244629 10.21782112121582 21.18914222717285 12.482912063598633 C20.726924896240234 14.828489303588867 19.624656677246094 15.469305038452148 15.324434280395508 15.24011516571045 C15.906994819641113 13.439538955688477 16.3592472076416 12.04062557220459 16.839859008789062 10.553560256958008 C14.619993209838867 9.114019393920898 12.147173881530762 9.284189224243164 10.50450325012207 11.74244499206543 C9.34627914428711 13.475564956665039 8.625741958618164 15.610346794128418 8.164292335510254 17.667709350585938 C7.748834133148193 19.518108367919922 7.82472038269043 21.608430862426758 10.201725006103516 22.39795684814453 C12.380965232849121 23.121559143066406 14.167741775512695 22.411752700805664 15.642541885375977 20.691661834716797 C16.553176879882812 19.629253387451172 16.788501739501953 17.627849578857422 19.21839714050293 18.268667221069336 C19.891408920288086 20.754520416259766 18.286298751831055 22.466943740844727 16.666624069213867 23.86279296875 C13.9945068359375 26.166210174560547 10.781987190246582 26.73190689086914 7.35790491104126 25.705524444580078 C4.610668182373047 24.882274627685547 3.148898124694824 22.938358306884766 2.803959846496582 20.173492431640625 C1.8833589553833008 12.801788330078125 9.286489486694336 5.83098030090332 16.59457015991211 7.160140037536621"></path></svg>