<svg xmlns="http://www.w3.org/2000/svg" viewBox="0.0 0.0 24.0 24.0" height="200px" width="200px"><path fill="none" stroke="black" stroke-width=".3" stroke-opacity="1.0"  filling="0" d="M14.006685256958008 7.2673773765563965 L14.006685256958008 7.2673773765563965 C13.676565170288086 8.818031311035156 13.346455574035645 10.36868667602539 13.016347885131836 11.919342041015625 C12.686241149902344 13.46999740600586 12.356134414672852 15.02065372467041 12.026019096374512 16.571308135986328 L12.026019096374512 16.571308135986328 C12.416297912597656 16.75463104248047 12.806577682495117 16.937952041625977 13.196856498718262 17.121274948120117 L13.196856498718262 17.121274948120117 C12.693422317504883 18.7764835357666 9.385863304138184 17.924081802368164 8.29234790802002 17.86800765991211 L8.29234790802002 17.86800765991211 C8.49946117401123 17.63800048828125 10.158196449279785 15.804064750671387 10.201788902282715 15.714969635009766 C11.14210319519043 13.793112754821777 11.269865036010742 10.814239501953125 11.734935760498047 8.714337348937988 L11.734935760498047 8.714337348937988 C11.229849815368652 8.462823867797852 10.724762916564941 8.211311340332031 10.219676971435547 7.9597978591918945 L10.219676971435547 7.9597978591918945 C11.416022300720215 7.495553970336914 12.723628044128418 7.244379043579102 14.006685256958008 7.2673773765563965 L14.006685256958008 7.2673773765563965"></path></svg>