<svg xmlns="http://www.w3.org/2000/svg" viewBox="0.0 0.0 24.0 24.0" height="200px" width="200px"><path fill="none" stroke="black" stroke-width=".3" stroke-opacity="1.0"  filling="0" d="M10.67747688293457 12.9495849609375 C11.793378829956055 12.596071243286133 13.299212455749512 13.471600532531738 14.544767379760742 14.225732803344727 C15.401361465454102 13.807148933410645 16.22201919555664 13.272505760192871 17.121341705322266 12.990859985351562 C20.039291381835938 12.07745361328125 22.196796417236328 13.73333740234375 21.971481323242188 16.747432708740234 C21.79812240600586 19.067615509033203 21.446063995361328 21.37419891357422 21.161020278930664 23.793926239013672 C19.8367977142334 23.793926239013672 18.66311264038086 23.793926239013672 17.232059478759766 23.793926239013672 C17.445722579956055 21.983135223388672 17.661327362060547 20.25052833557129 17.851194381713867 18.515491485595703 C17.958995819091797 17.531673431396484 18.052717208862305 16.455591201782227 16.765888214111328 16.20162582397461 C15.402331352233887 15.932119369506836 14.849721908569336 16.947500228881836 14.651114463806152 18.020183563232422 C14.313624382019043 19.841655731201172 14.143179893493652 21.69420623779297 13.865418434143066 23.81480598449707 C12.530028343200684 23.81480598449707 11.35294246673584 23.81480598449707 9.93791389465332 23.81480598449707 C10.158374786376953 21.9578857421875 10.390005111694336 20.222848892211914 10.560934066772461 18.481985092163086 C10.65368366241455 17.539928436279297 10.923189163208008 16.402175903320312 9.511560440063477 16.193368911743164 C8.27474594116211 16.010299682617188 7.752243995666504 16.914966583251953 7.562861919403076 17.916751861572266 C7.20449161529541 19.816402435302734 6.964606761932373 21.738880157470703 6.645084381103516 23.85511016845703 C5.522871494293213 23.85511016845703 4.358410358428955 23.85511016845703 2.787506103515625 23.85511016845703 C3.1856956481933594 20.397178649902344 3.5838842391967773 16.936817169189453 3.9951839447021484 13.364768981933594 C4.699299335479736 13.31620979309082 5.245595455169678 13.266193389892578 5.792862415313721 13.243370056152344 C7.414268970489502 13.176358222961426 8.98420238494873 13.48616886138916 10.67747688293457 12.9495849609375"></path></svg>