<svg xmlns="http://www.w3.org/2000/svg" viewBox="0.0 0.0 24.0 24.0" height="200px" width="200px"><path fill="none" stroke="black" stroke-width=".3" stroke-opacity="1.0"  filling="0" d="M12.46045207977295 12.845975875854492 L12.46045207977295 12.845975875854492 C14.110369682312012 13.08290958404541 14.988276481628418 12.943570137023926 16.289669036865234 14.08984375 C18.149879455566406 15.728326797485352 18.23483657836914 17.863704681396484 17.328170776367188 19.595428466796875 C16.421504974365234 21.327152252197266 14.523214340209961 22.655223846435547 12.41693115234375 22.679088592529297 C10.389350891113281 22.702062606811523 8.573741912841797 21.64316177368164 7.613289833068848 20.12702178955078 C6.652837753295898 18.610881805419922 6.547541618347168 16.637502670288086 7.940587997436523 14.831524848937988 C9.112309455871582 13.312477111816406 10.695755958557129 13.086654663085938 12.46045207977295 12.845975875854492 L12.46045207977295 12.845975875854492"></path>
<path fill="none" stroke="black" stroke-width=".3" stroke-opacity="1.0"  filling="0" d="M12.708024978637695 15.594731330871582 L12.708024978637695 15.594731330871582 C13.12671947479248 15.814915657043457 13.677823066711426 15.87868595123291 13.964107513427734 16.255285263061523 C15.028291702270508 17.65519142150879 13.927000999450684 19.980892181396484 12.14226245880127 19.970157623291016 C10.1116943359375 19.957944869995117 9.996358871459961 17.30745506286621 11.11240291595459 16.20473289489746 C11.517451286315918 15.804519653320312 12.176151275634766 15.798065185546875 12.708024978637695 15.594731330871582 L12.708024978637695 15.594731330871582"></path></svg>