<svg xmlns="http://www.w3.org/2000/svg" viewBox="0.0 0.0 24.0 24.0" height="200px" width="200px"><path fill="none" stroke="black" stroke-width=".3" stroke-opacity="1.0"  filling="0" d="M8.010918617248535 13.227737426757812 L8.010918617248535 13.227737426757812 C9.160840034484863 13.227737426757812 10.310760498046875 13.227737426757812 11.460681915283203 13.227737426757812 L11.460681915283203 13.227737426757812 C11.294352531433105 14.600055694580078 10.369010925292969 17.633920669555664 10.886963844299316 18.930625915527344 C11.235050201416016 19.802066802978516 12.484375 20.43178367614746 13.317197799682617 19.647106170654297 C14.637784957885742 18.402862548828125 14.488837242126465 14.887929916381836 14.697019577026367 13.231571197509766 L14.697019577026367 13.231571197509766 C15.872784614562988 13.231571197509766 17.04854965209961 13.231571197509766 18.224313735961914 13.231571197509766 L18.224313735961914 13.231571197509766 C18.052589416503906 14.372173309326172 18.00729751586914 16.04654312133789 17.786293029785156 17.652225494384766 C17.565288543701172 19.25790786743164 17.16857147216797 20.794906616210938 16.293994903564453 21.660764694213867 C15.382209777832031 22.563465118408203 13.654446601867676 23.043529510498047 11.980696678161621 23.00499725341797 C10.30694580078125 22.966463088989258 8.687207221984863 22.409330368041992 7.991469383239746 21.23763084411621 C7.3387932777404785 20.138450622558594 7.2671990394592285 18.725608825683594 7.397002220153809 17.29274559020996 C7.526805400848389 15.859882354736328 7.858005523681641 14.406999588012695 8.010918617248535 13.227737426757812 L8.010918617248535 13.227737426757812"></path></svg>