<svg xmlns="http://www.w3.org/2000/svg" viewBox="0.0 0.0 24.0 24.0" height="200px" width="200px"><path fill="none" stroke="black" stroke-width=".3" stroke-opacity="1.0"  filling="0" d="M12.229423522949219 8.754396438598633 C12.37044620513916 9.010480880737305 12.511467933654785 9.266565322875977 12.651787757873535 9.523350715637207 C11.873712539672852 10.34773063659668 11.094935417175293 11.171409606933594 9.994124412536621 12.33676815032959 C10.253015518188477 14.560140609741211 10.556808471679688 17.163780212402344 10.859899520874023 19.7667179107666 C11.056347846984863 19.827756881713867 11.252094268798828 19.88809585571289 11.448542594909668 19.949132919311523 C12.949968338012695 17.407236099243164 14.452095031738281 14.86603832244873 15.897392272949219 12.418855667114258 C15.127035140991211 11.339093208312988 14.506818771362305 10.469808578491211 13.484587669372559 9.037140846252441 C16.862092971801758 9.037140846252441 19.365402221679688 9.037140846252441 22.385093688964844 9.037140846252441 C21.88835906982422 9.879762649536133 21.629467010498047 10.541372299194336 21.183250427246094 11.033193588256836 C19.97298812866211 12.366937637329102 18.436485290527344 13.469852447509766 17.475292205810547 14.952335357666016 C15.395047187805176 18.160755157470703 13.592634201049805 21.550186157226562 11.679369926452637 24.861042022705078 C10.23828125 24.86033821105957 8.9782075881958 24.86033821105957 7.640254020690918 24.86033821105957 C5.400745391845703 20.08875274658203 7.6655120849609375 14.322999954223633 3.185091018676758 10.015172958374023 C5.915719985961914 7.478184223175049 9.27849292755127 9.517035484313965 12.229423522949219 8.754396438598633"></path></svg>