<svg xmlns="http://www.w3.org/2000/svg" viewBox="0.0 0.0 24.0 24.0" height="200px" width="200px"><path fill="none" stroke="black" stroke-width=".3" stroke-opacity="1.0"  filling="0" d="M6.905022144317627 13.141627311706543 L6.905022144317627 13.141627311706543 C7.618555068969727 13.141627311706543 8.332088470458984 13.141627311706543 9.045620918273926 13.141627311706543 L9.045620918273926 13.141627311706543 C9.356285095214844 14.057405471801758 9.667017936706543 14.973159790039062 9.977804183959961 15.888896942138672 L9.977804183959961 15.888896942138672 C10.497583389282227 14.978412628173828 11.017365455627441 14.067930221557617 11.537150382995605 13.157448768615723 L11.537150382995605 13.157448768615723 C12.017594337463379 13.157448768615723 12.498037338256836 13.157448768615723 12.97848129272461 13.157448768615723 L12.97848129272461 13.157448768615723 C13.060110092163086 13.395942687988281 13.826981544494629 15.636220932006836 13.885247230529785 15.806417465209961 L13.885247230529785 15.806417465209961 C13.898138999938965 15.78427505493164 15.380149841308594 13.238903999328613 15.436034202575684 13.142924308776855 L15.436034202575684 13.142924308776855 C16.192363739013672 13.142924308776855 16.948692321777344 13.142924308776855 17.705020904541016 13.142924308776855 L17.705020904541016 13.142924308776855 C16.61431121826172 15.011587142944336 15.523660659790039 16.880281448364258 14.433040618896484 18.74899673461914 L14.433040618896484 18.74899673461914 C13.92129898071289 18.74899673461914 13.409558296203613 18.74899673461914 12.89781665802002 18.74899673461914 L12.89781665802002 18.74899673461914 C12.59877872467041 17.75801658630371 12.299721717834473 16.76704216003418 12.000648498535156 15.776071548461914 L12.000648498535156 15.776071548461914 C11.451372146606445 16.758047103881836 10.902107238769531 17.74003028869629 10.352856636047363 18.722021102905273 L10.352856636047363 18.722021102905273 C9.817512512207031 18.722021102905273 9.2821683883667 18.722021102905273 8.746824264526367 18.722021102905273 L8.746824264526367 18.722021102905273 C8.132917404174805 16.861879348754883 7.518975734710693 15.001752853393555 6.905022144317627 13.141627311706543 L6.905022144317627 13.141627311706543"></path></svg>