<svg xmlns="http://www.w3.org/2000/svg" viewBox="0.0 0.0 24.0 24.0" height="200px" width="200px"><path fill="none" stroke="black" stroke-width=".3" stroke-opacity="1.0"  filling="0" d="M4.079685211181641 14.525670051574707 C6.361232280731201 14.525670051574707 8.23682975769043 14.525670051574707 10.175683975219727 14.525670051574707 C10.789213180541992 15.401440620422363 11.426695823669434 16.311603546142578 12.325189590454102 17.59332275390625 C14.337740898132324 13.737722396850586 17.642452239990234 14.096383094787598 21.188522338867188 14.570502281188965 C19.034103393554688 16.552959442138672 16.970577239990234 18.452510833740234 14.88371467590332 20.372940063476562 C16.96443748474121 23.080703735351562 18.615257263183594 25.22898292541504 20.533845901489258 27.725479125976562 C18.19763946533203 27.725479125976562 16.403722763061523 27.725479125976562 14.383188247680664 27.725479125976562 C13.625947952270508 26.712757110595703 12.779043197631836 25.57965850830078 11.859053611755371 24.34891128540039 C10.49565315246582 25.512102127075195 9.304826736450195 27.103965759277344 7.735073566436768 27.701526641845703 C6.222435474395752 28.2775936126709 4.319201469421387 27.82619857788086 2.5879287719726562 27.82619857788086 C2.3871021270751953 27.560274124145508 2.1875057220458984 27.294349670410156 1.9879083633422852 27.028423309326172 C4.300163269042969 25.05947494506836 6.611802577972412 23.091144561767578 8.971346855163574 21.082277297973633 C7.187256813049316 18.6914119720459 5.746473789215088 16.75992774963379 4.079685211181641 14.525670051574707"></path></svg>