<svg xmlns="http://www.w3.org/2000/svg" viewBox="0.0 0.0 24.0 24.0" height="200px" width="200px"><path fill="none" stroke="black" stroke-width=".3" stroke-opacity="1.0"  filling="0" d="M4.879347801208496 8.312715530395508 C10.006336212158203 8.312715530395508 14.877195358276367 8.312715530395508 19.898632049560547 8.312715530395508 C20.52603530883789 10.361001968383789 19.21808433532715 11.420942306518555 17.918254852294922 12.542886734008789 C14.31917667388916 15.65037727355957 10.753314018249512 18.796985626220703 7.047947406768799 22.0388126373291 C11.977118492126465 23.37112045288086 13.282116889953613 22.737071990966797 15.562171936035156 18.44563865661621 C15.940089225769043 17.73482894897461 16.901123046875 17.33329200744629 17.592004776000977 16.788558959960938 C17.84001350402832 16.97161293029785 18.088022232055664 17.154666900634766 18.336769104003906 17.338459014892578 C17.839275360107422 19.781639099121094 17.34178352355957 22.22481918334961 16.801477432250977 24.87836456298828 C11.444195747375488 24.879100799560547 6.2345380783081055 24.879100799560547 1.0396432876586914 24.879100799560547 C0.4011688232421875 22.948177337646484 1.582900047302246 21.91997528076172 2.850253105163574 20.85043716430664 C6.561525821685791 17.719329833984375 10.229248046875 14.53581428527832 14.101430892944336 11.21131706237793 C9.335383415222168 10.008918762207031 8.338920593261719 10.479101181030273 6.192465305328369 14.310687065124512 C5.8270955085754395 14.963186264038086 4.976041316986084 15.34257984161377 4.348639488220215 15.848193168640137 C4.085130214691162 15.680639266967773 3.820882797241211 15.513824462890625 3.5573740005493164 15.346270561218262 C3.990650177001953 13.042594909667969 4.423189640045166 10.738919258117676 4.879347801208496 8.312715530395508"></path></svg>