<svg xmlns="http://www.w3.org/2000/svg" viewBox="0.0 0.0 24.0 24.0" height="200px" width="200px"><path fill="none" stroke="black" stroke-width=".3" stroke-opacity="1.0"  filling="0" d="M13.842178344726562 3.6193056106567383 C17.319210052490234 3.563417434692383 19.713953018188477 5.535699367523193 20.3587589263916 8.985690116882324 C21.41280746459961 14.626103401184082 17.649127960205078 20.87887191772461 12.265314102172852 22.431697845458984 C7.1038498878479 23.920223236083984 3.2025537490844727 20.988243103027344 3.258441925048828 15.660919189453125 C3.3263473510742188 9.14674186706543 8.103211402893066 3.711850166320801 13.842178344726562 3.6193056106567383"></path>
<path fill="none" stroke="black" stroke-width=".3" stroke-opacity="1.0"  filling="0" d="M14.372807502746582 6.1498589515686035 C16.09630012512207 6.870384693145752 16.080074310302734 8.419004440307617 16.318647384643555 10.010891914367676 C15.739944458007812 12.314291000366211 15.291043281555176 14.663360595703125 14.52424430847168 16.903060913085938 C14.15887451171875 17.970928192138672 13.350610733032227 19.034591674804688 12.460620880126953 19.7467041015625 C10.404808044433594 21.3914737701416 7.811155796051025 20.316394805908203 7.6777472496032715 17.707117080688477 C7.50287389755249 14.27876091003418 8.2864990234375 10.969388961791992 10.0592679977417 7.991737365722656 C11.074854850769043 6.285671234130859 12.947381019592285 5.554327964782715 14.372807502746582 6.1498589515686035"></path></svg>