<svg xmlns="http://www.w3.org/2000/svg" viewBox="0.0 0.0 24.0 24.0" height="200px" width="200px"><path fill="none" stroke="black" stroke-width=".3" stroke-opacity="1.0"  filling="0" d="M17.33719253540039 4.0132293701171875 C18.83780288696289 4.41818380355835 20.23357582092285 5.03460168838501 20.60019302368164 6.699947834014893 C20.98178482055664 8.4299898147583 20.190444946289062 9.791620254516602 18.824621200561523 10.838750839233398 C18.28727912902832 11.250894546508789 17.740947723388672 11.650457382202148 17.17844581604004 12.0709867477417 C20.65171241760254 15.378913879394531 20.112571716308594 19.399707794189453 15.936025619506836 21.455028533935547 C13.086966514587402 22.856796264648438 10.054600715637207 23.1988525390625 6.946753025054932 22.31705665588379 C5.254450798034668 21.836624145507812 3.702324867248535 21.105188369750977 3.368655204772949 19.173864364624023 C3.023606300354004 17.176050186157227 4.082118988037109 15.744331359863281 5.640834331512451 14.646879196166992 C6.205135345458984 14.250313758850098 6.832334995269775 13.94480037689209 7.571557521820068 13.51528549194336 C4.954329013824463 9.702362060546875 5.840916156768799 6.45493745803833 9.777242660522461 4.630245685577393 C12.218950271606445 3.4986486434936523 14.740930557250977 3.312345504760742 17.33719253540039 4.0132293701171875"></path>
<path fill="none" stroke="black" stroke-width=".3" stroke-opacity="1.0"  filling="0" d="M14.252110481262207 5.417391777038574 C15.247125625610352 5.957729816436768 16.518299102783203 6.291398525238037 17.13531494140625 7.115086078643799 C17.513912200927734 7.620081424713135 17.12752914428711 9.024842262268066 16.663867950439453 9.759870529174805 C15.933629989624023 10.917825698852539 14.716371536254883 11.434202194213867 13.292440414428711 10.838750839233398 C11.920027732849121 10.264266967773438 9.89405632019043 10.454763412475586 9.883273124694824 8.208942413330078 C9.876684188842773 6.817959308624268 11.59055233001709 5.78879976272583 13.79084587097168 5.70792818069458 C13.890286445617676 5.704334735870361 13.989727973937988 5.7157158851623535 14.089170455932617 5.719909191131592 C14.143083572387695 5.619269847869873 14.197596549987793 5.518031120300293 14.252110481262207 5.417391777038574"></path>
<path fill="none" stroke="black" stroke-width=".3" stroke-opacity="1.0"  filling="0" d="M10.678805351257324 14.627713203430176 C11.918230056762695 14.940414428710938 13.136688232421875 15.432230949401855 14.280265808105469 16.011507034301758 C15.9839506149292 16.874731063842773 16.133710861206055 18.496347427368164 14.509698867797852 19.45841407775879 C13.451186180114746 20.085613250732422 12.114117622375488 20.2431640625 11.525256156921387 20.422279357910156 C10.433795928955078 20.373157501220703 10.0336332321167 20.38214111328125 9.64125919342041 20.332422256469727 C7.593721866607666 20.07543182373047 6.662206649780273 19.151702880859375 6.856297492980957 17.594783782958984 C7.066562175750732 15.9066743850708 9.108707427978516 14.231744766235352 10.678805351257324 14.627713203430176"></path></svg>