<svg xmlns="http://www.w3.org/2000/svg" viewBox="0.0 0.0 24.0 24.0" height="200px" width="200px"><path fill="none" stroke="black" stroke-width=".3" stroke-opacity="1.0"  filling="0" d="M15.839285850524902 9.595965385437012 L15.839285850524902 9.595965385437012 C16.087533950805664 10.119138717651367 16.33578109741211 10.642313003540039 16.584028244018555 11.165486335754395 L16.584028244018555 11.165486335754395 C15.309364318847656 10.731464385986328 14.161913871765137 10.153770446777344 12.77614688873291 10.284929275512695 C10.861223220825195 10.466171264648438 9.770103454589844 12.005084991455078 9.53589916229248 13.723374366760254 C9.3016939163208 15.44166374206543 9.92440414428711 17.339330673217773 11.43713665008545 18.238080978393555 C13.108599662780762 19.231136322021484 14.9644775390625 18.34726905822754 16.58217430114746 17.796783447265625 L16.58217430114746 17.796783447265625 C16.38429832458496 18.293689727783203 16.3864688873291 18.930112838745117 15.988543510437012 19.28750228881836 C14.260183334350586 20.839799880981445 10.78319263458252 19.55504608154297 9.534934043884277 18.049562454223633 C8.71963119506836 17.066253662109375 8.301668167114258 15.820381164550781 8.284616470336914 14.569089889526367 C8.267563819885254 13.317798614501953 8.651420593261719 12.06108570098877 9.4397554397583 11.056093215942383 C10.176644325256348 10.11668586730957 11.275093078613281 9.47730827331543 12.428960800170898 9.215173721313477 C14.018774032592773 8.854001998901367 14.34585189819336 9.155632019042969 15.839285850524902 9.595965385437012 L15.839285850524902 9.595965385437012"></path></svg>