<svg xmlns="http://www.w3.org/2000/svg" viewBox="0.0 0.0 24.0 24.0" height="200px" width="200px"><path fill="none" stroke="black" stroke-width=".3" stroke-opacity="1.0"  filling="0" d="M8.237452507019043 7.976898670196533 C11.635939598083496 7.976898670196533 14.932110786437988 7.976898670196533 18.2663516998291 7.976898670196533 C18.7541446685791 9.307621002197266 18.211624145507812 9.834080696105957 16.937414169311523 9.834675788879395 C14.874406814575195 9.83586597442627 12.8114013671875 9.834675788879395 10.574098587036133 9.834675788879395 C10.574098587036133 11.744206428527832 10.574098587036133 13.389019012451172 10.574098587036133 15.40562629699707 C13.031502723693848 15.40562629699707 15.543635368347168 15.40562629699707 17.936199188232422 15.40562629699707 C18.423992156982422 17.098623275756836 17.822580337524414 17.59593391418457 16.550155639648438 17.584035873413086 C14.590655326843262 17.56618881225586 12.630560874938965 17.57927894592285 10.538406372070312 17.57927894592285 C10.538406372070312 20.24310302734375 10.538406372070312 22.577964782714844 10.538406372070312 25.029420852661133 C13.086231231689453 25.95206069946289 16.264617919921875 24.362573623657227 18.585796356201172 25.999652862548828 C18.501325607299805 26.39226722717285 18.416854858398438 26.784286499023438 18.33238410949707 27.17630386352539 C15.03978157043457 27.176898956298828 11.746585845947266 27.176898956298828 8.237452507019043 27.176898956298828 C8.237452507019043 20.63274383544922 8.237452507019043 14.415764808654785 8.237452507019043 7.976898670196533"></path></svg>