<svg xmlns="http://www.w3.org/2000/svg" viewBox="0.0 0.0 24.0 24.0" height="200px" width="200px"><path fill="none" stroke="black" stroke-width=".3" stroke-opacity="1.0"  filling="0" d="M15.81039810180664 7.028690338134766 L15.81039810180664 7.028690338134766 C15.81039810180664 8.38662052154541 15.81039810180664 9.74455451965332 15.81039810180664 11.102485656738281 L15.81039810180664 11.102485656738281 C15.429680824279785 11.137235641479492 15.048964500427246 11.17198657989502 14.66824722290039 11.20673656463623 L14.66824722290039 11.20673656463623 C14.513152122497559 10.697986602783203 14.429052352905273 10.161905288696289 14.202960968017578 9.680486679077148 C13.712738037109375 8.636650085449219 12.462060928344727 7.99910306930542 11.419083595275879 8.791428565979004 C10.2801513671875 9.656648635864258 10.320028305053711 11.96847915649414 10.437238693237305 13.188387870788574 C10.49239730834961 13.762472152709961 10.675503730773926 15.408830642700195 11.384678840637207 15.88182258605957 C13.22830867767334 17.111452102661133 13.466996192932129 14.830960273742676 13.385558128356934 13.709691047668457 L13.385558128356934 13.709691047668457 C12.87887954711914 13.36348819732666 12.462098121643066 12.769670486450195 12.391633987426758 12.16006851196289 L12.391633987426758 12.16006851196289 C14.023879051208496 12.16006851196289 15.656123161315918 12.16006851196289 17.288368225097656 12.16006851196289 L17.288368225097656 12.16006851196289 C17.197240829467773 12.840266227722168 16.63758087158203 13.370894432067871 16.371788024902344 14.003608703613281 C16.042699813842773 14.786996841430664 16.337993621826172 16.656492233276367 16.343341827392578 17.48733901977539 L16.343341827392578 17.48733901977539 C15.719781875610352 17.364124298095703 15.096220970153809 17.240907669067383 14.472661018371582 17.117692947387695 L14.472661018371582 17.117692947387695 C14.480246543884277 17.014057159423828 14.487833023071289 16.910419464111328 14.495418548583984 16.80678367614746 L14.495418548583984 16.80678367614746 C13.541166305541992 17.252058029174805 12.986656188964844 17.58836555480957 11.818255424499512 17.658403396606445 C8.97274112701416 17.8289737701416 7.401035785675049 15.544928550720215 7.160802841186523 13.032917976379395 C6.920569896697998 10.520907402038574 8.011809349060059 7.7809319496154785 10.49218463897705 7.039641380310059 C12.09231185913086 6.5614237785339355 12.559377670288086 7.02389669418335 14.046430587768555 7.578239440917969 L14.046430587768555 7.578239440917969 C14.634419441223145 7.395056247711182 15.22240924835205 7.211873531341553 15.81039810180664 7.028690338134766 L15.81039810180664 7.028690338134766"></path></svg>