<svg xmlns="http://www.w3.org/2000/svg" viewBox="0.0 0.0 24.0 24.0" height="200px" width="200px"><path fill="none" stroke="black" stroke-width=".3" stroke-opacity="1.0"  filling="0" d="M6.998006820678711 7.4451189041137695 L6.998006820678711 7.4451189041137695 C8.53824234008789 7.4451189041137695 10.078479766845703 7.4451189041137695 11.6187162399292 7.4451189041137695 L11.6187162399292 7.4451189041137695 C11.589665412902832 8.142181396484375 11.09713077545166 8.7400541305542 10.87226390838623 9.400489807128906 C10.612171173095703 10.164384841918945 10.877184867858887 11.014410972595215 10.875 11.821368217468262 L10.875 11.821368217468262 C11.801742553710938 10.807639122009277 12.728540420532227 9.793961524963379 13.65527057647705 8.780220031738281 L13.65527057647705 8.780220031738281 C13.42935848236084 8.347450256347656 13.203445434570312 7.914679527282715 12.977533340454102 7.481909275054932 L12.977533340454102 7.481909275054932 C14.392096519470215 7.481909275054932 15.806652069091797 7.481909275054932 17.221216201782227 7.481909275054932 L17.221216201782227 7.481909275054932 C16.535146713256836 9.252614974975586 15.357672691345215 9.802580833435059 13.911588668823242 11.008024215698242 L13.911588668823242 11.008024215698242 C14.707939147949219 12.328417778015137 15.307401657104492 13.931085586547852 16.273603439331055 15.135287284851074 C16.81310272216797 15.80767822265625 17.46360969543457 16.47024154663086 17.682466506958008 17.3040714263916 L17.682466506958008 17.3040714263916 C16.094390869140625 17.3040714263916 14.506319046020508 17.3040714263916 12.918244361877441 17.3040714263916 L12.918244361877441 17.3040714263916 C12.89074420928955 16.707624435424805 13.245326042175293 16.059917449951172 13.725507736206055 15.70505142211914 L13.725507736206055 15.70505142211914 C13.232197761535645 14.786014556884766 12.738922119140625 13.866960525512695 12.24567699432373 12.94788932800293 L12.24567699432373 12.94788932800293 C10.282431602478027 14.489225387573242 11.086318016052246 15.321938514709473 11.992399215698242 17.298599243164062 L11.992399215698242 17.298599243164062 C10.334797859191895 17.29859733581543 8.67719554901123 17.29859733581543 7.019594192504883 17.29859733581543 L7.019594192504883 17.29859733581543 C7.067080020904541 16.701515197753906 7.49002742767334 16.083221435546875 8.021452903747559 15.80690860748291 L8.021452903747559 15.80690860748291 C8.021452903747559 13.589138984680176 8.021452903747559 11.371366500854492 8.021452903747559 9.153597831726074 L8.021452903747559 9.153597831726074 C7.4987406730651855 8.744359016418457 7.067311763763428 8.105347633361816 6.998006820678711 7.4451189041137695 L6.998006820678711 7.4451189041137695"></path></svg>