<svg xmlns="http://www.w3.org/2000/svg" viewBox="0.0 0.0 24.0 24.0" height="200px" width="200px"><path fill="none" stroke="black" stroke-width=".3" stroke-opacity="1.0"  filling="0" d="M10.2837553024292 9.903836250305176 L10.2837553024292 9.903836250305176 C10.2837553024292 11.28549575805664 10.2837553024292 12.667157173156738 10.2837553024292 14.048816680908203 L10.2837553024292 14.048816680908203 C10.377360343933105 14.113360404968262 10.470966339111328 14.177905082702637 10.564571380615234 14.242448806762695 L10.564571380615234 14.242448806762695 C11.759078979492188 13.062325477600098 12.907913208007812 11.793367385864258 14.145306587219238 10.660408020019531 C14.574013710021973 10.26788330078125 15.594010353088379 9.348458290100098 16.242938995361328 10.0602445602417 L16.242938995361328 10.0602445602417 C14.653740882873535 11.655373573303223 13.06447696685791 13.250434875488281 11.475265502929688 14.845549583435059 L11.475265502929688 14.845549583435059 C13.136302947998047 16.68132781982422 14.797417640686035 18.517030715942383 16.458450317382812 20.352813720703125 L16.458450317382812 20.352813720703125 C15.274524688720703 20.637439727783203 14.175275802612305 19.903573989868164 13.230937957763672 18.870464324951172 C12.286601066589355 17.837352752685547 11.497175216674805 16.5049991607666 10.932897567749023 15.5926513671875 L10.932897567749023 15.5926513671875 C10.742965698242188 15.713250160217285 10.553033828735352 15.83384895324707 10.363101959228516 15.954447746276855 L10.363101959228516 15.954447746276855 C10.363101959228516 17.509822845458984 10.363101959228516 19.065195083618164 10.363101959228516 20.62057113647461 L10.363101959228516 20.62057113647461 C9.96495246887207 20.596515655517578 9.566802978515625 20.57246208190918 9.16865348815918 20.54840660095215 L9.16865348815918 20.54840660095215 C9.16865348815918 18.787647247314453 9.16865348815918 17.026884078979492 9.16865348815918 15.266121864318848 C9.16865348815918 13.505359649658203 9.16865348815918 11.744597434997559 9.16865348815918 9.98383617401123 L9.16865348815918 9.98383617401123 C9.540353775024414 9.957169532775879 9.912055015563965 9.930502891540527 10.2837553024292 9.903836250305176 L10.2837553024292 9.903836250305176"></path></svg>