<svg xmlns="http://www.w3.org/2000/svg" viewBox="0.0 0.0 24.0 24.0" height="200px" width="200px"><path fill="none" stroke="black" stroke-width=".3" stroke-opacity="1.0"  filling="0" d="M3.7251100540161133 3.2347564697265625 C9.210060119628906 3.2347564697265625 14.780447006225586 3.2347564697265625 20.588146209716797 3.2347564697265625 C20.588146209716797 5.525443077087402 20.588146209716797 7.922922134399414 20.588146209716797 10.517372131347656 C20.004352569580078 10.55356216430664 19.447845458984375 10.587973594665527 18.783363342285156 10.628910064697266 C17.90351676940918 8.837179183959961 18.64809226989746 5.706989765167236 15.034967422485352 5.944897174835205 C15.034967422485352 10.426599502563477 15.034967422485352 14.83829116821289 15.034967422485352 19.339569091796875 C15.848958015441895 20.21170425415039 18.320003509521484 19.998119354248047 17.097829818725586 22.434162139892578 C13.862628936767578 22.434757232666016 10.538434028625488 22.434757232666016 7.279500484466553 22.434757232666016 C6.257857799530029 20.279342651367188 7.9540696144104 20.090675354003906 9.306173324584961 19.55315589904785 C9.306173324584961 15.039417266845703 9.306173324584961 10.535764694213867 9.306173324584961 6.029738426208496 C6.757999897003174 6.163228988647461 6.678499221801758 6.258747577667236 5.582695484161377 10.543477058410645 C5.037463188171387 10.543477058410645 4.469093322753906 10.543477058410645 3.7251100540161133 10.543477058410645 C3.7251100540161133 8.163797378540039 3.7251100540161133 5.822087287902832 3.7251100540161133 3.2347564697265625"></path></svg>