<svg xmlns="http://www.w3.org/2000/svg" viewBox="0.0 0.0 24.0 24.0" height="200px" width="200px"><path fill="none" stroke="black" stroke-width=".3" stroke-opacity="1.0"  filling="0" d="M3.492023468017578 3.0981922149658203 C7.0945353507995605 3.0981922149658203 10.085493087768555 3.0981922149658203 13.006235122680664 3.0981922149658203 C14.080419540405273 5.162190914154053 12.281428337097168 5.275441646575928 11.065679550170898 6.021765232086182 C11.065679550170898 9.499135971069336 10.998295783996582 13.072202682495117 11.092860221862793 16.6407413482666 C11.143823623657227 18.551284790039062 12.194225311279297 19.422183990478516 13.95641040802002 19.375751495361328 C15.732183456420898 19.328750610351562 16.762203216552734 18.477670669555664 16.822792053222656 16.571657180786133 C16.93377685546875 13.093721389770508 16.854501724243164 9.610121726989746 16.854501724243164 6.255062580108643 C15.908289909362793 5.264682769775391 13.740666389465332 5.345091342926025 14.959813117980957 3.133866310119629 C17.178966522216797 3.133866310119629 19.582149505615234 3.133866310119629 21.947397232055664 3.133866310119629 C23.10085678100586 5.188804626464844 21.160303115844727 5.257887840270996 20.047611236572266 6.124258041381836 C20.047611236572266 9.088035583496094 20.030624389648438 12.192809104919434 20.05270767211914 15.297584533691406 C20.07196044921875 18.0405216217041 19.35055160522461 20.47088623046875 16.581567764282227 21.508834838867188 C13.446782112121582 22.68381118774414 10.280284881591797 22.710426330566406 7.482420444488525 20.467491149902344 C6.207214832305908 19.44540023803711 5.853872299194336 17.99125862121582 5.854438304901123 16.417070388793945 C5.855003833770752 13.7760591506958 5.871992588043213 11.134480476379395 5.817065238952637 8.494600296020508 C5.789318084716797 7.204105377197266 5.915026664733887 5.8507561683654785 4.257033348083496 5.194467067718506 C3.8481969833374023 5.0325188636779785 3.791571617126465 3.980417251586914 3.492023468017578 3.0981922149658203"></path></svg>