<svg xmlns="http://www.w3.org/2000/svg" viewBox="0.0 0.0 24.0 24.0" height="200px" width="200px"><path fill="none" stroke="black" stroke-width=".3" stroke-opacity="1.0"  filling="0" d="M12.615942001342773 7.025304317474365 C17.836475372314453 7.166441440582275 20.465919494628906 10.229268074035645 20.73822021484375 16.85503578186035 C17.21133041381836 16.85503578186035 13.68980884552002 16.85503578186035 9.596837043762207 16.85503578186035 C9.948144912719727 18.488082885742188 9.991867065429688 19.739139556884766 10.486612319946289 20.774654388427734 C11.514458656311035 22.925460815429688 14.406232833862305 23.210033416748047 15.753938674926758 21.0369873046875 C17.004226684570312 19.021183013916016 18.360370635986328 19.03192138671875 20.182109832763672 19.53280258178711 C19.077560424804688 24.460323333740234 15.837547302246094 26.799827575683594 11.146276473999023 26.099510192871094 C6.309265613555908 25.377716064453125 3.2011842727661133 20.773120880126953 3.8033180236816406 15.2219877243042 C4.368633270263672 10.013727188110352 7.722937107086182 6.893372058868408 12.615942001342773 7.025304317474365"></path>
<path fill="none" stroke="black" stroke-width=".3" stroke-opacity="1.0"  filling="0" d="M12.583724021911621 10.417962074279785 C14.167680740356445 10.463217735290527 15.045184135437012 11.599983215332031 14.894842147827148 13.607351303100586 C13.356142044067383 13.607351303100586 11.800566673278809 13.607351303100586 9.945075988769531 13.607351303100586 C9.9328031539917 11.650609970092773 10.761216163635254 10.365802764892578 12.583724021911621 10.417962074279785"></path></svg>