<svg xmlns="http://www.w3.org/2000/svg" viewBox="0.0 0.0 24.0 24.0" height="200px" width="200px"><path fill="none" stroke="black" stroke-width=".3" stroke-opacity="1.0"  filling="0" d="M14.772035598754883 8.275636672973633 L14.772035598754883 8.275636672973633 C15.169097900390625 8.291324615478516 15.61395263671875 8.133188247680664 15.96322250366211 8.322700500488281 C18.415307998657227 9.653193473815918 14.506645202636719 12.038152694702148 15.126765251159668 9.136948585510254 L15.126765251159668 9.136948585510254 C15.016508102416992 9.083635330200195 14.906251907348633 9.030322074890137 14.795994758605957 8.977008819580078 L14.795994758605957 8.977008819580078 C13.884291648864746 10.446340560913086 15.264460563659668 11.503777503967285 13.791857719421387 12.967418670654297 C12.676573753356934 14.075915336608887 11.380166053771973 13.645465850830078 10.03015422821045 13.815350532531738 L10.03015422821045 13.815350532531738 C10.001526832580566 13.922910690307617 9.972900390625 14.030470848083496 9.944272994995117 14.138031005859375 L9.944272994995117 14.138031005859375 C11.285499572753906 14.579955101013184 12.364755630493164 14.35784912109375 13.693840026855469 14.632476806640625 C15.195728302001953 14.942811012268066 16.418073654174805 16.358097076416016 15.321712493896484 17.95076560974121 C14.45944881439209 19.2033634185791 11.036266326904297 19.224544525146484 9.76939582824707 18.814254760742188 C9.223587989807129 18.637489318847656 8.451494216918945 18.51915740966797 8.266029357910156 17.97624397277832 C8.074277877807617 17.41492462158203 8.700289726257324 16.87224769592285 8.91741943359375 16.320249557495117 L8.91741943359375 16.320249557495117 C8.739120483398438 15.75050163269043 8.339056968688965 15.206417083740234 8.382523536682129 14.611006736755371 C8.428457260131836 13.98179817199707 8.90611457824707 13.463006019592285 9.167909622192383 12.889005661010742 L9.167909622192383 12.889005661010742 C8.176304817199707 11.113007545471191 8.497929573059082 8.748815536499023 10.807023048400879 8.194732666015625 C12.187419891357422 7.863497257232666 13.356471061706543 8.593734741210938 14.772035598754883 8.275636672973633 L14.772035598754883 8.275636672973633"></path>
<path fill="none" stroke="black" stroke-width=".3" stroke-opacity="1.0"  filling="0" d="M11.439743041992188 9.211006164550781 L11.439743041992188 9.211006164550781 C11.171087265014648 10.434979438781738 11.20479965209961 11.745409965515137 11.46961498260498 12.970220565795898 L11.46961498260498 12.970220565795898 C12.114928245544434 11.326606750488281 12.268962860107422 10.767803192138672 11.439743041992188 9.211006164550781 L11.439743041992188 9.211006164550781"></path>
<path fill="none" stroke="black" stroke-width=".3" stroke-opacity="1.0"  filling="0" d="M14.514699935913086 17.440141677856445 L14.514699935913086 17.440141677856445 C12.388340950012207 16.62993812561035 11.559957504272461 16.467697143554688 9.562158584594727 17.576120376586914 L9.562158584594727 17.576120376586914 C11.483698844909668 17.979230880737305 12.615642547607422 17.961462020874023 14.514699935913086 17.440141677856445 L14.514699935913086 17.440141677856445"></path></svg>