<svg xmlns="http://www.w3.org/2000/svg" viewBox="0.0 0.0 24.0 24.0" height="200px" width="200px"><path fill="none" stroke="black" stroke-width=".3" stroke-opacity="1.0"  filling="0" d="M12.240957260131836 9.145278930664062 L12.240957260131836 9.145278930664062 C12.432679176330566 9.319816589355469 12.799098014831543 9.410181045532227 12.816122055053711 9.668890953063965 C12.839566230773926 10.025171279907227 12.497709274291992 10.308074951171875 12.338502883911133 10.627666473388672 L12.338502883911133 10.627666473388672 C12.134145736694336 10.365102767944336 11.747279167175293 10.171975135803223 11.725432395935059 9.839974403381348 C11.706498146057129 9.55223560333252 12.06911563873291 9.37684440612793 12.240957260131836 9.145278930664062 L12.240957260131836 9.145278930664062"></path>
<path fill="none" stroke="black" stroke-width=".3" stroke-opacity="1.0"  filling="0" d="M11.882364273071289 11.702688217163086 L11.882364273071289 11.702688217163086 C12.13431453704834 11.702688217163086 12.38626480102539 11.702688217163086 12.638215065002441 11.702688217163086 L12.638215065002441 11.702688217163086 C12.638215065002441 13.076494216918945 12.638215065002441 14.450302124023438 12.638215065002441 15.82411003112793 C12.638215065002441 17.197917938232422 12.638215065002441 18.57172393798828 12.638215065002441 19.945531845092773 L12.638215065002441 19.945531845092773 C12.38626480102539 19.945531845092773 12.13431453704834 19.945531845092773 11.882364273071289 19.945531845092773 L11.882364273071289 19.945531845092773 C11.882364273071289 18.57172393798828 11.882364273071289 17.197917938232422 11.882364273071289 15.82411003112793 C11.882364273071289 14.450302124023438 11.882364273071289 13.076495170593262 11.882364273071289 11.702688217163086 L11.882364273071289 11.702688217163086"></path></svg>