<svg xmlns="http://www.w3.org/2000/svg" viewBox="0.0 0.0 24.0 24.0" height="200px" width="200px"><path fill="none" stroke="black" stroke-width=".3" stroke-opacity="1.0"  filling="0" d="M16.322893142700195 8.441580772399902 L16.322893142700195 8.441580772399902 C16.30868911743164 9.208938598632812 15.756731033325195 9.86980152130127 15.526728630065918 10.60201644897461 C15.100390434265137 11.959266662597656 15.525649070739746 14.242496490478516 15.531512260437012 15.656719207763672 C15.53335952758789 16.102283477783203 15.388917922973633 16.57009506225586 15.527935028076172 16.99342155456543 C15.750356674194336 17.67072868347168 16.333328247070312 18.257205963134766 16.344669342041016 18.970008850097656 L16.344669342041016 18.970008850097656 C14.913918495178223 18.970008850097656 13.48316764831543 18.970008850097656 12.052416801452637 18.970008850097656 L12.052416801452637 18.970008850097656 C12.597517013549805 17.391712188720703 13.180599212646484 16.960399627685547 12.68950366973877 15.306135177612305 L12.68950366973877 15.306135177612305 C9.738173484802246 17.004568099975586 8.367705345153809 14.369189262390137 8.45584487915039 11.840913772583008 C8.543984413146973 9.312639236450195 10.090730667114258 6.8914690017700195 12.973830223083496 9.018319129943848 L12.973830223083496 9.018319129943848 C14.035341262817383 8.622844696044922 15.19016170501709 8.430436134338379 16.322893142700195 8.441580772399902 L16.322893142700195 8.441580772399902"></path>
<path fill="none" stroke="black" stroke-width=".3" stroke-opacity="1.0"  filling="0" d="M12.392424583435059 9.486180305480957 L12.392424583435059 9.486180305480957 C12.56704330444336 9.97697639465332 12.811842918395996 10.448211669921875 12.916279792785645 10.958569526672363 C13.012237548828125 11.427490234375 13.018058776855469 11.915088653564453 12.987205505371094 12.392730712890625 C12.956273078918457 12.87159538269043 12.92722225189209 13.371129035949707 12.732121467590332 13.809539794921875 C12.522534370422363 14.280502319335938 11.868888854980469 14.723830223083496 11.510519027709961 14.028850555419922 C10.798155784606934 12.647378921508789 10.898404121398926 10.148032188415527 12.392424583435059 9.486180305480957 L12.392424583435059 9.486180305480957"></path></svg>