<svg xmlns="http://www.w3.org/2000/svg" viewBox="0.0 0.0 24.0 24.0" height="200px" width="200px"><path fill="none" stroke="black" stroke-width=".3" stroke-opacity="1.0"  filling="0" d="M13.289600372314453 8.58176040649414 L13.289600372314453 8.58176040649414 C14.24938678741455 8.58176040649414 15.209174156188965 8.58176040649414 16.168960571289062 8.58176040649414 L16.168960571289062 8.58176040649414 C16.15033721923828 9.467517852783203 15.450796127319336 10.20603084564209 15.000344276428223 10.968924522399902 C13.761567115783691 13.066940307617188 13.519702911376953 15.746063232421875 12.292800903320312 17.884479522705078 C12.03911304473877 18.326642990112305 11.125045776367188 19.28926658630371 10.528640747070312 19.310400009155273 C8.753534317016602 19.373302459716797 6.891168117523193 16.83464813232422 9.17280101776123 15.973121643066406 C11.105783462524414 15.243242263793945 10.017577171325684 17.96615219116211 9.618240356445312 18.49728012084961 L9.618240356445312 18.49728012084961 C10.174360275268555 18.085186004638672 10.945097923278809 17.863052368164062 11.286600112915039 17.26099967956543 C11.72372055053711 16.490379333496094 10.92691421508789 14.790655136108398 10.685036659240723 14.14659595489502 C9.945539474487305 12.177504539489746 8.829782485961914 10.523998260498047 8.069439888000488 8.604480743408203 L8.069439888000488 8.604480743408203 C9.457066535949707 8.604491233825684 10.844694137573242 8.60456371307373 12.232319831848145 8.6048002243042 L12.232319831848145 8.6048002243042 C12.044266700744629 9.18122673034668 11.856213569641113 9.757654190063477 11.668160438537598 10.334080696105957 L11.668160438537598 10.334080696105957 C12.038240432739258 11.313154220581055 12.408256530761719 12.292250633239746 12.778240203857422 13.271360397338867 L12.778240203857422 13.271360397338867 C12.810173988342285 13.186079025268555 13.823482513427734 10.479731559753418 13.907840728759766 10.254400253295898 L13.907840728759766 10.254400253295898 C13.481081008911133 9.840633392333984 13.243189811706543 9.174359321594238 13.289600372314453 8.58176040649414 L13.289600372314453 8.58176040649414"></path></svg>