<svg xmlns="http://www.w3.org/2000/svg" viewBox="0.0 0.0 24.0 24.0" height="200px" width="200px"><path fill="none" stroke="black" stroke-width=".3" stroke-opacity="1.0"  filling="0" d="M14.747620582580566 10.451709747314453 L14.747620582580566 10.451709747314453 C15.51268196105957 11.774683952331543 15.974616050720215 13.054817199707031 16.029895782470703 14.34650993347168 C16.085174560546875 15.638202667236328 15.733797073364258 16.941455841064453 14.872238159179688 18.3106689453125 C13.601757049560547 20.329753875732422 11.181809425354004 20.298791885375977 9.744665145874023 18.480743408203125 C8.972413063049316 17.50381088256836 8.55388069152832 15.975447654724121 8.54293441772461 14.452410697937012 C8.531988143920898 12.929372787475586 8.928628921508789 11.411663055419922 9.786720275878906 10.456039428710938 C10.672837257385254 9.469204902648926 11.758820533752441 8.733053207397461 13.15264892578125 9.23592758178711 C13.781476974487305 9.462800025939941 14.215963363647461 10.046448707580566 14.747620582580566 10.451709747314453 L14.747620582580566 10.451709747314453"></path>
<path fill="none" stroke="black" stroke-width=".3" stroke-opacity="1.0"  filling="0" d="M10.538756370544434 11.273012161254883 L10.538756370544434 11.273012161254883 C10.920222282409668 10.941156387329102 11.216224670410156 10.47140884399414 11.68315315246582 10.277443885803223 C14.052391052246094 9.29324722290039 14.657547950744629 13.20075511932373 15.019120216369629 14.55048942565918 L15.019120216369629 14.55048942565918 C14.829617500305176 15.213519096374512 14.336043357849121 17.144878387451172 13.935286521911621 17.75808334350586 C13.012308120727539 19.17034912109375 11.541139602661133 19.103878021240234 10.581119537353516 17.757465362548828 C9.205340385437012 15.827956199645996 9.730502128601074 13.25638484954834 10.538756370544434 11.273012161254883 L10.538756370544434 11.273012161254883"></path></svg>