<svg xmlns="http://www.w3.org/2000/svg" viewBox="0.0 0.0 24.0 24.0" height="200px" width="200px"><path fill="none" stroke="black" stroke-width=".3" stroke-opacity="1.0"  filling="0" d="M8.16079044342041 4.1677093505859375 C12.599117279052734 4.1677093505859375 17.038009643554688 4.1677093505859375 21.80440902709961 4.1677093505859375 C21.292251586914062 5.691195964813232 20.823009490966797 7.0887603759765625 20.200740814208984 8.93975830078125 C18.707744598388672 5.069491386413574 18.34804916381836 4.893877983093262 13.771942138671875 5.532523155212402 C13.135555267333984 7.464268207550049 12.452866554260254 9.534358024597168 11.739120483398438 11.701006889343262 C14.404375076293945 12.457669258117676 16.296592712402344 12.054491996765137 17.46828842163086 9.55694580078125 C17.659147262573242 9.698678970336914 17.850008010864258 9.840411186218262 18.040302276611328 9.982144355773926 C17.463207244873047 11.9449462890625 16.886112213134766 13.907748222351074 16.309017181396484 15.871114730834961 C16.076372146606445 15.847396850585938 15.841468811035156 15.823681831359863 15.60656452178955 15.799398422241211 C15.457491874694824 15.188423156738281 15.308418273925781 14.577447891235352 15.114734649658203 13.785211563110352 C13.835186004638672 13.785211563110352 12.57314395904541 13.785211563110352 11.088618278503418 13.785211563110352 C10.423998832702637 15.983482360839844 9.758813858032227 18.183446884155273 9.050149917602539 20.52740478515625 C13.132169723510742 22.365978240966797 15.979812622070312 20.96728515625 18.35030746459961 17.702911376953125 C18.523662567138672 17.914663314819336 18.697582244873047 18.126415252685547 18.87093734741211 18.33816909790039 C18.31360626220703 19.716533660888672 17.75627326965332 21.09490203857422 17.20741081237793 22.451244354248047 C12.198765754699707 22.451244354248047 7.4018707275390625 22.451244354248047 2.604975700378418 22.451244354248047 C5.275312900543213 21.633033752441406 5.5503082275390625 19.274394989013672 6.2154927253723145 17.22689437866211 C7.17035436630249 14.287772178649902 8.069877624511719 11.330581665039062 8.993117332458496 8.381296157836914 C9.462361335754395 6.8832197189331055 10.088582992553711 5.353521823883057 8.16079044342041 4.1677093505859375"></path></svg>