<svg xmlns="http://www.w3.org/2000/svg" viewBox="0.0 0.0 24.0 24.0" height="200px" width="200px"><path fill="none" stroke="black" stroke-width=".3" stroke-opacity="1.0"  filling="0" d="M21.331995010375977 3.1503076553344727 C20.741722106933594 5.905457019805908 20.257226943969727 8.166248321533203 19.75848388671875 10.494998931884766 C18.990636825561523 10.494998931884766 18.375701904296875 10.494998931884766 17.700481414794922 10.494998931884766 C17.597990036010742 10.241789817810059 17.452205657958984 10.011052131652832 17.414386749267578 9.763873100280762 C17.33163070678711 9.22457218170166 17.477415084838867 8.565242767333984 17.215986251831055 8.15528678894043 C16.66572380065918 7.292623996734619 16.008586883544922 6.0490522384643555 15.22046184539795 5.902169704437256 C14.247089385986328 5.721306324005127 12.705915451049805 6.17236852645874 12.088788032531738 6.914455890655518 C9.507925033569336 10.018725395202637 8.839279174804688 13.784517288208008 9.340763092041016 17.70595932006836 C9.420781135559082 18.330211639404297 10.534460067749023 19.264673233032227 11.171318054199219 19.26576805114746 C11.990135192871094 19.26686668395996 13.062708854675293 18.653573989868164 13.561452865600586 17.967391967773438 C14.104042053222656 17.22092056274414 14.113907814025879 16.087509155273438 14.396711349487305 14.959033012390137 C13.781229019165039 14.64663314819336 13.259466171264648 14.381915092468262 12.626444816589355 14.060745239257812 C12.6998872756958 13.502809524536133 12.77880859375 12.903768539428711 12.877461433410645 12.152364730834961 C15.896232604980469 12.152364730834961 18.7686710357666 12.152364730834961 21.83019256591797 12.152364730834961 C21.65042495727539 12.860471725463867 21.655902862548828 13.71984577178955 21.368167877197266 13.83220100402832 C18.525875091552734 14.948071479797363 19.1983585357666 17.67417335510254 18.524778366088867 19.77328109741211 C18.334049224853516 20.366844177246094 18.146060943603516 20.960952758789062 17.855037689208984 21.874034881591797 C16.78520393371582 21.58794403076172 15.857319831848145 21.33966827392578 14.539212226867676 20.987258911132812 C13.224390983581543 21.284311294555664 11.392190933227539 21.988033294677734 9.536425590515137 22.056543350219727 C5.750355243682861 22.196300506591797 3.337749481201172 19.750263214111328 3.287327766418457 15.982279777526855 C3.228135108947754 11.537428855895996 4.728204250335693 7.682301998138428 8.319708824157715 4.9600372314453125 C11.294633865356445 2.7052736282348633 14.584700584411621 2.035531997680664 17.632518768310547 4.106690883636475 C18.909523010253906 3.776752471923828 19.88344383239746 3.5246400833129883 21.331995010375977 3.1503076553344727"></path></svg>