<svg xmlns="http://www.w3.org/2000/svg" viewBox="0.0 0.0 24.0 24.0" height="200px" width="200px"><path fill="none" stroke="black" stroke-width=".3" stroke-opacity="1.0"  filling="0" d="M13.888455390930176 9.076956748962402 L13.888455390930176 9.076956748962402 C15.922382354736328 9.408525466918945 16.52079200744629 9.889032363891602 17.86647605895996 11.462162971496582 L17.86647605895996 11.462162971496582 C17.57464599609375 11.656785011291504 17.282814025878906 11.851408004760742 16.990983963012695 12.046030044555664 L16.990983963012695 12.046030044555664 C16.156936645507812 11.194620132446289 15.860712051391602 10.6531982421875 14.65970230102539 10.332917213439941 C13.083780288696289 9.9126558303833 11.555825233459473 10.420364379882812 10.475744247436523 11.426187515258789 C9.395662307739258 12.432010650634766 8.76345443725586 13.935949325561523 8.97902774810791 15.508146286010742 C9.319896697998047 17.994140625 11.92313289642334 19.493776321411133 14.279541969299316 18.52471351623535 C15.75011157989502 17.91994857788086 15.879672050476074 16.887670516967773 16.49732208251953 15.559429168701172 L16.49732208251953 15.559429168701172 C15.573742866516113 15.559429168701172 14.650157928466797 15.559429168701172 13.726578712463379 15.559429168701172 L13.726578712463379 15.559429168701172 C14.675945281982422 13.880523681640625 15.875693321228027 14.47484302520752 17.678958892822266 14.480355262756348 L17.678958892822266 14.480355262756348 C17.553882598876953 15.907630920410156 17.689075469970703 16.402719497680664 16.902589797973633 17.64049530029297 C16.106046676635742 18.894100189208984 14.73979663848877 19.65081787109375 13.297789573669434 19.838972091674805 C11.855782508850098 20.027128219604492 10.338018417358398 19.64672088623047 9.238447189331055 18.626083374023438 C8.010295867919922 17.486095428466797 7.602919101715088 15.815742492675781 7.825255393981934 14.20397663116455 C8.047591209411621 12.59221076965332 8.899641036987305 11.039032936096191 10.190342903137207 10.133394241333008 C11.597101211547852 9.146323204040527 12.224738121032715 9.283455848693848 13.888455390930176 9.076956748962402 L13.888455390930176 9.076956748962402"></path></svg>