<svg xmlns="http://www.w3.org/2000/svg" viewBox="0.0 0.0 24.0 24.0" height="200px" width="200px"><path fill="none" stroke="black" stroke-width=".3" stroke-opacity="1.0"  filling="0" d="M12.864842414855957 7.568811893463135 C14.915731430053711 7.0221638679504395 16.84952163696289 7.2558159828186035 18.380573272705078 8.924215316772461 C19.240764617919922 9.862653732299805 18.948562622070312 10.5346097946167 17.496307373046875 11.097126960754395 C16.508617401123047 9.43638801574707 14.959507942199707 8.871682167053223 13.300958633422852 9.557317733764648 C12.448427200317383 9.909711837768555 11.540629386901855 10.956498146057129 11.355130195617676 11.836387634277344 C11.203009605407715 12.557592391967773 11.883721351623535 13.74172306060791 12.550752639770508 14.283446311950684 C13.658276557922363 15.18358325958252 15.10670280456543 15.649246215820312 16.311626434326172 16.448152542114258 C18.572641372680664 17.947467803955078 19.206838607788086 20.270858764648438 18.208208084106445 22.90451431274414 C17.26101303100586 25.40355682373047 14.53105354309082 26.84322738647461 11.509439468383789 26.436662673950195 C9.049247741699219 26.105609893798828 7.758412837982178 24.683448791503906 7.374828338623047 21.868675231933594 C8.5425443649292 21.02216339111328 9.092475891113281 21.587963104248047 9.598084449768066 22.7086181640625 C10.430368423461914 24.554309844970703 12.056634902954102 24.594802856445312 13.779206275939941 24.360055923461914 C15.423528671264648 24.135705947875977 16.03255844116211 22.952125549316406 16.380573272705078 21.58194351196289 C16.795894622802734 19.947471618652344 16.0533504486084 18.731054306030273 14.70396614074707 17.899866104125977 C13.702051162719727 17.28262710571289 12.603282928466797 16.825172424316406 11.567441940307617 16.261014938354492 C9.79945182800293 15.298497200012207 8.852256774902344 13.806295394897461 9.126401901245117 11.786596298217773 C9.42243480682373 9.604927062988281 10.72859001159668 8.138442993164062 12.864842414855957 7.568811893463135"></path></svg>