<svg xmlns="http://www.w3.org/2000/svg" viewBox="0.0 0.0 24.0 24.0" height="200px" width="200px"><path fill="none" stroke="black" stroke-width=".3" stroke-opacity="1.0"  filling="0" d="M4.1586594581604 3.1505584716796875 C7.493854999542236 3.1505584716796875 10.44525146484375 3.1505584716796875 14.063128471374512 3.1505584716796875 C13.353631973266602 4.141061305999756 13.02122974395752 5.13212251663208 12.448044776916504 5.299720764160156 C11.094412803649902 5.695809841156006 10.77877140045166 6.655028343200684 10.531285285949707 7.758379936218262 C9.942458152770996 10.383520126342773 9.370950698852539 13.01257038116455 8.808380126953125 15.64329719543457 C8.506704330444336 17.05335235595703 8.255308151245117 18.493576049804688 10.042458534240723 19.138269424438477 C11.381564140319824 19.621509552001953 13.401118278503418 18.800281524658203 14.0877103805542 17.40642547607422 C14.530726432800293 16.50698471069336 14.739107131958008 15.48072624206543 14.97150993347168 14.491899490356445 C15.437990188598633 12.504749298095703 15.927375793457031 10.517598152160645 16.253074645996094 8.505308151245117 C16.44357681274414 7.328212738037109 17.105030059814453 5.899162769317627 15.212292671203613 5.225977897644043 C14.93854808807373 5.128771781921387 15.026816368103027 4.014804840087891 14.925140380859375 3.1907825469970703 C17.568716049194336 3.1907825469970703 19.858102798461914 3.1907825469970703 22.66983413696289 3.1907825469970703 C22.20111846923828 4.0483245849609375 21.939109802246094 5.204190731048584 21.439666748046875 5.317598819732666 C19.743017196655273 5.703632354736328 19.607263565063477 7.023184776306152 19.316761016845703 8.239944458007812 C18.73519515991211 10.675699234008789 18.329608917236328 13.153910636901855 17.72458267211914 15.583520889282227 C16.42178726196289 20.817041397094727 11.336872100830078 23.435474395751953 6.253073215484619 21.559497833251953 C4.191061973571777 20.798606872558594 3.2312850952148438 19.574581146240234 3.5201120376586914 17.304189682006836 C3.8581008911132812 14.646648406982422 4.617318630218506 12.045531272888184 5.0491623878479 9.396369934082031 C5.2966485023498535 7.87737512588501 6.3223466873168945 6.122626304626465 4.189944267272949 4.960615634918213 C3.963128089904785 4.836592197418213 4.1586594581604 3.939385414123535 4.1586594581604 3.1505584716796875"></path></svg>