<svg xmlns="http://www.w3.org/2000/svg" viewBox="0.0 0.0 24.0 24.0" height="200px" width="200px"><path fill="none" stroke="black" stroke-width=".3" stroke-opacity="1.0"  filling="0" d="M8.684062957763672 8.607558250427246 L8.684062957763672 8.607558250427246 C9.55035400390625 8.607558250427246 11.547574043273926 8.607558250427246 12.448774337768555 8.607558250427246 L12.448774337768555 8.607558250427246 C11.41120719909668 9.898017883300781 11.117460250854492 10.443044662475586 10.699653625488281 11.961191177368164 L10.699653625488281 11.961191177368164 C11.755651473999023 11.961191177368164 12.811649322509766 11.961191177368164 13.867647171020508 11.961191177368164 L13.867647171020508 11.961191177368164 C14.144479751586914 11.294230461120605 14.677014350891113 10.682129859924316 14.698145866394043 9.960308074951172 C14.71313762664795 9.448204040527344 14.209903717041016 9.059463500976562 13.965782165527344 8.609041213989258 L13.965782165527344 8.609041213989258 C15.182618141174316 8.609041213989258 16.39945411682129 8.609041213989258 17.616291046142578 8.609041213989258 L17.616291046142578 8.609041213989258 C16.832584381103516 9.383417129516602 15.877875328063965 10.899572372436523 15.324228286743164 12.456957817077637 C14.770580291748047 14.014344215393066 14.617996215820312 15.612960815429688 15.438542366027832 16.552261352539062 L15.438542366027832 16.552261352539062 C15.21064281463623 16.552261352539062 11.681962966918945 16.552261352539062 11.588797569274902 16.552261352539062 L11.588797569274902 16.552261352539062 C13.079991340637207 15.353998184204102 13.265176773071289 14.56546688079834 13.852073669433594 12.783100128173828 L13.852073669433594 12.783100128173828 C12.714338302612305 12.783100128173828 11.576602935791016 12.783100128173828 10.438867568969727 12.783100128173828 L10.438867568969727 12.783100128173828 C9.979330062866211 14.236396789550781 8.953558921813965 15.496030807495117 10.545159339904785 16.314956665039062 L10.545159339904785 16.314956665039062 C10.489953994750977 16.403615951538086 10.434747695922852 16.49227523803711 10.379542350769043 16.580934524536133 L10.379542350769043 16.580934524536133 C9.191627502441406 16.580934524536133 8.00371265411377 16.580934524536133 6.815797805786133 16.580934524536133 L6.815797805786133 16.580934524536133 C7.729013442993164 15.668317794799805 8.280808448791504 14.489786148071289 8.699064254760742 13.235915184020996 C9.11732006072998 11.982043266296387 9.402036666870117 10.652832984924316 9.781094551086426 9.438859939575195 L9.781094551086426 9.438859939575195 C9.415417671203613 9.161759376525879 9.049739837646484 8.884658813476562 8.684062957763672 8.607558250427246 L8.684062957763672 8.607558250427246"></path></svg>