<svg xmlns="http://www.w3.org/2000/svg" viewBox="0.0 0.0 24.0 24.0" height="200px" width="200px"><path fill="none" stroke="black" stroke-width=".3" stroke-opacity="1.0"  filling="0" d="M12.410985946655273 10.919435501098633 C13.139436721801758 10.822534561157227 14.04478931427002 10.704788208007812 14.616056442260742 11.033802032470703 C16.090984344482422 11.883943557739258 17.558027267456055 11.973520278930664 19.467323303222656 11.285633087158203 C19.116901397705078 14.558308601379395 18.839717864990234 17.516620635986328 18.46957778930664 20.463661193847656 C18.22507095336914 22.408449172973633 18.03521156311035 24.392112731933594 17.48309898376465 26.258590698242188 C16.69887351989746 28.9092960357666 14.002535820007324 30.3132381439209 10.968732833862305 29.964502334594727 C8.186760902404785 29.644506454467773 7.007606029510498 28.324506759643555 7.066197395324707 24.510986328125 C7.561972141265869 24.82986068725586 8.269577980041504 25.03211212158203 8.518028259277344 25.486194610595703 C9.844789505004883 27.91098403930664 10.739999771118164 28.53464698791504 12.722536087036133 28.150421142578125 C14.67126750946045 27.77239227294922 15.679153442382812 26.538028717041016 15.968731880187988 24.140281677246094 C16.01211166381836 23.781970977783203 15.97492790222168 23.414085388183594 15.97492790222168 22.775211334228516 C15.241971015930176 23.03323745727539 14.689858436584473 23.237743377685547 14.130985260009766 23.423099517822266 C10.696056365966797 24.560562133789062 7.914648532867432 22.968448638916016 7.1681694984436035 19.442251205444336 C6.310705184936523 15.392112731933594 8.738873481750488 11.409013748168945 12.410985946655273 10.919435501098633"></path>
<path fill="none" stroke="black" stroke-width=".3" stroke-opacity="1.0"  filling="0" d="M13.433521270751953 12.646759986877441 C15.389013290405273 12.658590316772461 16.938308715820312 14.549294471740723 16.94169044494629 16.927322387695312 C16.945632934570312 19.64901351928711 15.049295425415039 21.969013214111328 12.78225326538086 22.01633644104004 C10.649859428405762 22.06084442138672 9.206480026245117 20.430984497070312 9.161409378051758 17.928449630737305 C9.110140800476074 15.049575805664062 11.065071105957031 12.632675170898438 13.433521270751953 12.646759986877441"></path></svg>