<svg xmlns="http://www.w3.org/2000/svg" viewBox="0.0 0.0 24.0 24.0" height="200px" width="200px"><path fill="none" stroke="black" stroke-width=".3" stroke-opacity="1.0"  filling="0" d="M16.08666229248047 9.44560718536377 C18.44449234008789 8.651130676269531 20.045330047607422 10.02706527709961 19.65129280090332 12.472662925720215 C19.4945011138916 13.446331024169922 19.133373260498047 14.392572402954102 19.03692054748535 15.368524551391602 C18.92401123046875 16.50995635986328 17.86440658569336 17.835607528686523 19.531982421875 18.77864646911621 C19.641233444213867 18.84035873413086 19.352792739868164 19.60512351989746 19.21291160583496 20.195724487304688 C17.60201644897461 20.195724487304688 16.01260757446289 20.248748779296875 14.431882858276367 20.155954360961914 C14.068014144897461 20.134469985961914 13.733858108520508 19.611522674560547 13.38553237915039 19.318965911865234 C15.505203247070312 17.12889862060547 15.562342643737793 14.380229949951172 15.484174728393555 11.46653938293457 C14.788436889648438 11.64527416229248 13.996703147888184 11.899434089660645 13.864137649536133 12.348325729370117 C13.187601089477539 14.637130737304688 11.758183479309082 16.927764892578125 13.445874214172363 19.367420196533203 C12.95263957977295 19.64535140991211 12.463977813720703 20.155040740966797 11.965715408325195 20.16463851928711 C8.346688270568848 20.233665466308594 4.725831508636475 20.20166778564453 0.511174201965332 20.20166778564453 C3.139164924621582 16.93416404724121 4.309851169586182 13.650206565856934 2.7364397048950195 9.768792152404785 C4.718517780303955 9.79713249206543 6.326212406158447 9.299785614013672 8.103499412536621 10.280767440795898 C9.779762268066406 9.389381408691406 11.784695625305176 8.192638397216797 13.70048999786377 10.643264770507812 C14.483537673950195 10.242368698120117 15.24647331237793 9.729022026062012 16.08666229248047 9.44560718536377"></path>
<path fill="none" stroke="black" stroke-width=".3" stroke-opacity="1.0"  filling="0" d="M9.697938919067383 11.682757377624512 C9.2842435836792 14.222065925598145 9.708452224731445 16.986276626586914 7.239084243774414 18.933612823486328 C6.134222507476807 18.048625946044922 6.497176647186279 16.990848541259766 6.770078182220459 15.931241035461426 C7.051207065582275 14.840551376342773 7.221713542938232 13.715574264526367 7.578725337982178 12.651854515075684 C7.851626396179199 11.839093208312988 8.389657974243164 11.191352844238281 9.697938919067383 11.682757377624512"></path></svg>