<svg xmlns="http://www.w3.org/2000/svg" viewBox="0.0 0.0 24.0 24.0" height="200px" width="200px"><path fill="none" stroke="black" stroke-width=".3" stroke-opacity="1.0"  filling="0" d="M19.656078338623047 11.283818244934082 C18.930545806884766 17.466157913208008 18.248090744018555 23.16216278076172 17.603612899780273 28.86213493347168 C17.450002670288086 30.222509384155273 16.725038528442383 30.317737579345703 15.501266479492188 29.922094345092773 C15.707590103149414 27.612855911254883 15.912778854370117 25.31949234008789 16.12930679321289 22.899723052978516 C11.713754653930664 24.418807983398438 9.458932876586914 24.0435733795166 7.992560863494873 21.702592849731445 C6.499548435211182 19.31966781616211 7.035196781158447 14.827028274536133 9.066690444946289 12.694639205932617 C11.144662857055664 10.513505935668945 13.862013816833496 10.38767147064209 16.954601287841797 12.107412338256836 C17.911964416503906 11.815499305725098 18.5887508392334 11.609174728393555 19.656078338623047 11.283818244934082"></path>
<path fill="none" stroke="black" stroke-width=".3" stroke-opacity="1.0"  filling="0" d="M13.486776351928711 12.717316627502441 C15.584020614624023 12.719015121459961 17.09233856201172 14.494305610656738 17.06513023376465 16.92994499206543 C17.032821655273438 19.846248626708984 15.02400016784668 22.19176483154297 12.617836952209473 22.123178482055664 C10.558568954467773 22.064228057861328 9.193092346191406 20.4510498046875 9.21406364440918 18.101001739501953 C9.240138053894043 15.150120735168457 11.17243766784668 12.715048789978027 13.486776351928711 12.717316627502441"></path></svg>