<svg xmlns="http://www.w3.org/2000/svg" viewBox="0.0 0.0 24.0 24.0" height="200px" width="200px"><path fill="none" stroke="black" stroke-width=".3" stroke-opacity="1.0"  filling="0" d="M7.474069118499756 8.610919952392578 L7.474069118499756 8.610919952392578 C8.91317367553711 8.610919952392578 10.352272033691406 8.610919952392578 11.791377067565918 8.610919952392578 L11.791377067565918 8.610919952392578 C11.720134735107422 9.203736305236816 11.263168334960938 9.78271198272705 10.731919288635254 10.055256843566895 L10.731919288635254 10.055256843566895 C10.877532958984375 10.977126121520996 11.023131370544434 11.89899730682373 11.168712615966797 12.820871353149414 L11.168712615966797 12.820871353149414 C11.272971153259277 12.84875202178955 11.377228736877441 12.876631736755371 11.481487274169922 12.904512405395508 L11.481487274169922 12.904512405395508 C12.202447891235352 11.668149948120117 12.219934463500977 11.638161659240723 12.933195114135742 10.414817810058594 L12.933195114135742 10.414817810058594 C12.720620155334473 9.819713592529297 12.508044242858887 9.224610328674316 12.295469284057617 8.62950611114502 L12.295469284057617 8.62950611114502 C13.45170783996582 8.62950611114502 14.607946395874023 8.62950611114502 15.764184951782227 8.62950611114502 L15.764184951782227 8.62950611114502 C15.177897453308105 9.793706893920898 14.443942070007324 10.419361114501953 13.722501754760742 11.46434211730957 C12.423738479614258 13.345555305480957 11.486658096313477 15.465865135192871 10.205395698547363 17.35801887512207 C9.486954689025879 18.419004440307617 8.180560111999512 19.96238899230957 6.6465888023376465 19.303203582763672 C3.130903959274292 17.79242515563965 9.16727352142334 13.996521949768066 7.799983501434326 17.68777847290039 C7.7097883224487305 17.931278228759766 7.386368751525879 18.001832962036133 7.179561614990234 18.15886116027832 L7.179561614990234 18.15886116027832 C7.747612953186035 17.870990753173828 8.492952346801758 17.798095703125 8.883715629577637 17.29524803161621 C9.474772453308105 16.534656524658203 9.086149215698242 14.860957145690918 8.959888458251953 14.0549955368042 C8.6510009765625 12.083272933959961 7.949747085571289 10.497175216674805 7.474069118499756 8.610919952392578 L7.474069118499756 8.610919952392578"></path></svg>