<svg xmlns="http://www.w3.org/2000/svg" viewBox="0.0 0.0 24.0 24.0" height="200px" width="200px"><path fill="none" stroke="black" stroke-width=".3" stroke-opacity="1.0"  filling="0" d="M8.225975036621094 7.866543292999268 C11.64825439453125 7.866543292999268 14.946388244628906 7.866543292999268 18.352706909179688 7.866543292999268 C18.352706909179688 8.839608192443848 18.352706909179688 9.699759483337402 18.352706909179688 10.91283893585205 C16.22390365600586 11.018067359924316 14.134712219238281 11.120930671691895 11.926694869995117 11.229705810546875 C11.926694869995117 12.627821922302246 11.926694869995117 13.773508071899414 11.926694869995117 15.261482238769531 C13.859818458557129 15.261482238769531 15.763975143432617 15.261482238769531 17.931201934814453 15.261482238769531 C17.99209213256836 16.50589370727539 18.03702163696289 17.423389434814453 18.09554672241211 18.606319427490234 C15.957287788391113 18.706817626953125 14.038352012634277 18.797266006469727 11.813780784606934 18.901905059814453 C11.813780784606934 21.704044342041016 11.813780784606934 24.308738708496094 11.813780784606934 27.066545486450195 C10.468279838562012 27.066545486450195 9.43846321105957 27.066545486450195 8.22656536102295 27.066545486450195 C8.225975036621094 20.66654396057129 8.225975036621094 14.338665962219238 8.225975036621094 7.866543292999268"></path></svg>