<svg xmlns="http://www.w3.org/2000/svg" viewBox="0.0 0.0 24.0 24.0" height="200px" width="200px"><path fill="none" stroke="black" stroke-width=".3" stroke-opacity="1.0"  filling="0" d="M2.836188316345215 4.312317371368408 C6.188028812408447 4.312317371368408 8.888681411743164 4.312317371368408 11.791960716247559 4.312317371368408 C11.3650541305542 6.454071521759033 10.956707954406738 8.501989364624023 10.498350143432617 10.803060531616211 C12.06470775604248 10.803060531616211 13.133007049560547 10.803060531616211 14.153356552124023 10.803060531616211 C15.454187393188477 8.508691787719727 13.484122276306152 6.606170177459717 13.288714408874512 4.323659420013428 C16.273456573486328 4.323659420013428 18.974624633789062 4.323659420013428 21.73302459716797 4.323659420013428 C22.590965270996094 5.887955188751221 21.480384826660156 6.541205406188965 20.253799438476562 7.127945423126221 C20.253799438476562 10.461740493774414 20.214614868164062 13.720776557922363 20.29092025756836 16.97723388671875 C20.30432891845703 17.54180335998535 20.676584243774414 18.423974990844727 21.105552673339844 18.592056274414062 C22.48630142211914 19.132909774780273 21.79180145263672 20.09293556213379 21.98514747619629 21.04419708251953 C19.16023826599121 21.04419708251953 16.521970748901367 21.04419708251953 13.50474739074707 21.04419708251953 C13.592397689819336 18.58844566345215 15.422221183776855 16.217769622802734 14.203370094299316 13.558364868164062 C13.200035095214844 13.558364868164062 12.125547409057617 13.558364868164062 11.091793060302734 13.558364868164062 C9.878613471984863 16.173429489135742 11.588820457458496 18.484298706054688 11.84919261932373 21.04368019104004 C8.957254409790039 21.043163299560547 6.32414436340332 21.043163299560547 3.5420284271240234 21.043163299560547 C3.1965837478637695 19.602092742919922 3.346620559692383 18.60391616821289 5.036203861236572 18.38943099975586 C5.036203861236572 15.81561279296875 4.788721561431885 13.304697036743164 5.105808258056641 10.86699390411377 C5.42392635345459 8.419495582580566 4.152485370635986 6.565954685211182 2.836188316345215 4.312317371368408"></path></svg>