<svg xmlns="http://www.w3.org/2000/svg" viewBox="0.0 0.0 24.0 24.0" height="200px" width="200px"><path fill="none" stroke="black" stroke-width=".3" stroke-opacity="1.0"  filling="0" d="M14.629941940307617 8.996061325073242 L14.629941940307617 8.996061325073242 C15.409049987792969 8.996061325073242 16.18815803527832 8.996061325073242 16.967266082763672 8.996061325073242 L16.967266082763672 8.996061325073242 C15.264456748962402 10.733672142028809 14.333788871765137 13.653107643127441 15.342267990112305 15.896322250366211 L15.342267990112305 15.896322250366211 C14.224754333496094 15.947288513183594 13.101491928100586 15.931386947631836 11.986757278442383 15.837583541870117 L11.986757278442383 15.837583541870117 C13.600404739379883 14.523284912109375 13.768497467041016 12.75484848022461 14.361672401428223 10.801969528198242 L14.361672401428223 10.801969528198242 C14.283427238464355 10.760461807250977 14.205182075500488 10.718953132629395 14.126936912536621 10.677445411682129 L14.126936912536621 10.677445411682129 C12.928643226623535 12.408729553222656 11.730452537536621 14.140081405639648 10.532418251037598 15.87154483795166 L10.532418251037598 15.87154483795166 C10.440004348754883 15.838153839111328 10.347591400146484 15.80476188659668 10.25517749786377 15.771370887756348 L10.25517749786377 15.771370887756348 C10.105877876281738 14.042356491088867 9.95657730102539 12.313336372375488 9.80727767944336 10.584321022033691 L9.80727767944336 10.584321022033691 C9.73636531829834 10.574851989746094 9.665453910827637 10.56538200378418 9.594541549682617 10.555912971496582 L9.594541549682617 10.555912971496582 C9.040085792541504 12.139601707458496 8.485665321350098 13.723299026489258 7.931311130523682 15.307024002075195 L7.931311130523682 15.307024002075195 C8.251981735229492 15.473197937011719 8.572652816772461 15.639371871948242 8.89332389831543 15.805545806884766 L8.89332389831543 15.805545806884766 C7.990634918212891 15.910826683044434 7.071063995361328 15.927403450012207 6.167051792144775 15.834166526794434 L6.167051792144775 15.834166526794434 C7.105334281921387 15.031200408935547 7.864467620849609 13.931838989257812 8.311161041259766 12.73302173614502 C8.757854461669922 11.534205436706543 8.892107009887695 10.235933303833008 8.580626487731934 9.035147666931152 L8.580626487731934 9.035147666931152 C9.39867877960205 9.035147666931152 10.216731071472168 9.035147666931152 11.034783363342285 9.035147666931152 L11.034783363342285 9.035147666931152 C11.160066604614258 10.397215843200684 11.285406112670898 11.759285926818848 11.410703659057617 13.12135124206543 L11.410703659057617 13.12135124206543 C11.495498657226562 13.151752471923828 11.580294609069824 13.18215274810791 11.66508960723877 13.212553977966309 L11.66508960723877 13.212553977966309 C12.65334701538086 11.807039260864258 13.641627311706543 10.401535987854004 14.629941940307617 8.996061325073242 L14.629941940307617 8.996061325073242"></path></svg>