<svg xmlns="http://www.w3.org/2000/svg" viewBox="0.0 0.0 24.0 24.0" height="200px" width="200px"><path fill="none" stroke="black" stroke-width=".3" stroke-opacity="1.0"  filling="0" d="M6.9204936027526855 7.004676818847656 L6.9204936027526855 7.004676818847656 C8.904854774475098 6.9899163246154785 10.892791748046875 6.935385704040527 12.877110481262207 6.973916053771973 C13.869417190551758 6.9931840896606445 15.364426612854004 6.909102916717529 16.294776916503906 7.498741626739502 C17.98186492919922 8.567985534667969 17.818500518798828 11.472358703613281 16.1219425201416 12.431928634643555 C14.872453689575195 13.138636589050293 13.187853813171387 12.902077674865723 11.830307960510254 12.882599830627441 L11.830307960510254 12.882599830627441 C11.830307960510254 13.920199394226074 11.830307960510254 14.95779800415039 11.830307960510254 15.995397567749023 L11.830307960510254 15.995397567749023 C12.135872840881348 16.17479705810547 12.586836814880371 16.217527389526367 12.747003555297852 16.533597946166992 C12.932503700256348 16.899660110473633 12.733552932739258 17.354248046875 12.726827621459961 17.76457405090332 L12.726827621459961 17.76457405090332 C10.785416603088379 17.76481819152832 8.84400749206543 17.764892578125 6.9025959968566895 17.76490592956543 L6.9025959968566895 17.76490592956543 C7.107105731964111 16.9929141998291 7.70708703994751 16.381568908691406 8.032939910888672 15.652449607849121 C8.572443008422852 14.445274353027344 8.051401138305664 11.83409309387207 8.045038223266602 10.511877059936523 C8.04304027557373 10.096717834472656 8.204148292541504 9.652434349060059 8.051376342773438 9.266401290893555 C7.741206645965576 8.482646942138672 7.081405162811279 7.832073211669922 6.9204936027526855 7.004676818847656 L6.9204936027526855 7.004676818847656"></path>
<path fill="none" stroke="black" stroke-width=".3" stroke-opacity="1.0"  filling="0" d="M11.772969245910645 8.777499198913574 L11.772969245910645 8.777499198913574 C12.260918617248535 8.801569938659668 12.81062126159668 8.6108980178833 13.23681640625 8.849710464477539 C13.835294723510742 9.185059547424316 13.759564399719238 10.745522499084473 13.360482215881348 11.094283103942871 C12.949492454528809 11.453450202941895 12.302141189575195 11.36180305480957 11.772970199584961 11.495562553405762 L11.772970199584961 11.495562553405762 C11.772970199584961 10.5895414352417 11.772970199584961 9.683520317077637 11.772969245910645 8.777499198913574 L11.772969245910645 8.777499198913574"></path></svg>