<svg xmlns="http://www.w3.org/2000/svg" viewBox="0.0 0.0 24.0 24.0" height="200px" width="200px"><path fill="none" stroke="black" stroke-width=".3" stroke-opacity="1.0"  filling="0" d="M14.286530494689941 3.7220373153686523 C15.759271621704102 3.7220373153686523 16.90401268005371 3.7220373153686523 18.282787322998047 3.7220373153686523 C18.282787322998047 10.053876876831055 18.282787322998047 16.38453483581543 18.282787322998047 22.909034729003906 C16.974933624267578 22.909034729003906 15.644027709960938 22.909034729003906 14.030041694641113 22.909034729003906 C12.868751525878906 19.214181900024414 11.674956321716309 15.416494369506836 10.39015007019043 11.328043937683105 C10.39015007019043 15.332575798034668 10.39015007019043 19.061115264892578 10.39015007019043 22.92203712463379 C8.983009338378906 22.92144775390625 7.760847091674805 22.92144775390625 6.3909382820129395 22.92144775390625 C6.3909382820129395 16.505096435546875 6.3909382820129395 10.248903274536133 6.3909382820129395 3.7858638763427734 C8.19167709350586 3.7858638763427734 9.900221824645996 3.7858638763427734 11.76124095916748 3.7858638763427734 C12.472789764404297 6.406893253326416 13.185521125793457 9.03028678894043 13.897661209106445 11.653679847717285 C14.02708625793457 11.658408164978027 14.157103538513184 11.662545204162598 14.286530494689941 11.667272567749023 C14.286530494689941 9.059245109558105 14.286530494689941 6.450626850128174 14.286530494689941 3.7220373153686523"></path></svg>