<svg xmlns="http://www.w3.org/2000/svg" viewBox="0.0 0.0 24.0 24.0" height="200px" width="200px"><path fill="none" stroke="black" stroke-width=".3" stroke-opacity="1.0"  filling="0" d="M15.111105918884277 6.17271614074707 C16.13656234741211 6.17271614074707 16.978134155273438 6.17271614074707 18.02971076965332 6.17271614074707 C18.02971076965332 12.298808097839355 18.02971076965332 18.401391983032227 18.02971076965332 24.68942642211914 C17.571048736572266 24.74323272705078 17.075822830200195 24.887935638427734 16.599924087524414 24.840396881103516 C15.198868751525879 24.70092010498047 13.785274505615234 24.19733428955078 12.496011734008789 25.258834838867188 C12.327801704406738 25.397266387939453 11.993470191955566 25.345027923583984 11.734363555908203 25.361743927001953 C9.452032089233398 25.50958251953125 7.342091083526611 24.175912857055664 6.365739822387695 21.972986221313477 C5.248866081237793 19.453487396240234 5.752974033355713 16.276302337646484 7.560972690582275 14.4442720413208 C9.165761947631836 12.818066596984863 11.258463859558105 12.448734283447266 13.544974327087402 13.398443222045898 C13.929977416992188 13.558295249938965 14.299308776855469 13.757848739624023 15.111105918884277 14.148076057434082 C15.111105918884277 11.263426780700684 15.111105918884277 8.77109432220459 15.111105918884277 6.17271614074707"></path>
<path fill="none" stroke="black" stroke-width=".3" stroke-opacity="1.0"  filling="0" d="M12.051456451416016 15.727267265319824 C13.832813262939453 15.644729614257812 15.253196716308594 17.100112915039062 15.273048400878906 19.028263092041016 C15.292898178100586 20.94074249267578 13.915349960327148 22.51470947265625 12.203994750976562 22.535079956054688 C10.515623092651367 22.55545425415039 9.056059837341309 20.936561584472656 9.081657409667969 19.0721435546875 C9.105687141418457 17.28556251525879 10.422115325927734 15.803013801574707 12.051456451416016 15.727267265319824"></path></svg>