<svg xmlns="http://www.w3.org/2000/svg" viewBox="0.0 0.0 24.0 24.0" height="200px" width="200px"><path fill="none" stroke="black" stroke-width=".3" stroke-opacity="1.0"  filling="0" d="M15.840845108032227 6.434603691101074 C15.926373481750488 7.176903247833252 16.020875930786133 7.997339248657227 16.114322662353516 8.813551902770996 C12.994660377502441 9.260726928710938 12.895933151245117 9.430727005004883 13.185251235961914 13.772069931030273 C14.04633903503418 13.915143966674805 14.949663162231445 14.0656099319458 15.9591064453125 14.234025955200195 C15.9591064453125 14.957847595214844 15.9591064453125 15.625178337097168 15.9591064453125 16.4725399017334 C15.115968704223633 16.600303649902344 14.280749320983887 16.726484298706055 13.139318466186523 16.8996524810791 C13.139846801757812 19.673503875732422 13.139846801757812 22.519691467285156 13.139846801757812 25.503671646118164 C11.808881759643555 25.503671646118164 10.959936141967773 25.503671646118164 9.869189262390137 25.503671646118164 C9.869189262390137 23.472116470336914 9.920400619506836 21.55987548828125 9.849655151367188 19.6518611907959 C9.807947158813477 18.518878936767578 10.30897331237793 17.251266479492188 8.954777717590332 16.3489990234375 C8.625336647033691 16.129369735717773 8.596299171447754 14.63051700592041 8.884032249450684 14.451013565063477 C10.37707805633545 13.522348403930664 9.78735637664795 12.139116287231445 9.85387897491455 10.93538761138916 C10.052388191223145 7.349014759063721 11.923974990844727 5.823763847351074 15.840845108032227 6.434603691101074"></path></svg>