<svg xmlns="http://www.w3.org/2000/svg" viewBox="0.0 0.0 24.0 24.0" height="200px" width="200px"><path fill="none" stroke="black" stroke-width=".3" stroke-opacity="1.0"  filling="0" d="M12.367731094360352 3.0250282287597656 C13.7156982421875 2.894672393798828 14.924771308898926 4.116268157958984 14.921924591064453 5.490420341491699 C14.918508529663086 6.869696617126465 13.746438026428223 8.054291725158691 12.39960765838623 8.039490699768066 C11.096040725708008 8.025259971618652 9.816951751708984 6.706323623657227 9.965524673461914 5.412434101104736 C10.125482559204102 4.022911548614502 10.960561752319336 3.1610774993896484 12.367731094360352 3.0250282287597656"></path>
<path fill="none" stroke="black" stroke-width=".3" stroke-opacity="1.0"  filling="0" d="M8.430276870727539 9.396566390991211 C10.86948299407959 9.396566390991211 12.995606422424316 9.396566390991211 15.344873428344727 9.396566390991211 C16.07748794555664 13.541794776916504 14.479053497314453 18.018892288208008 17.385608673095703 22.21592140197754 C13.97868824005127 22.21592140197754 11.452387809753418 22.21592140197754 8.751898765563965 22.21592140197754 C8.326105117797852 19.790945053100586 10.785234451293945 18.401992797851562 10.553552627563477 15.863737106323242 C10.338948249816895 13.515609741210938 9.051321029663086 11.729325294494629 8.430276870727539 9.396566390991211"></path></svg>