<svg xmlns="http://www.w3.org/2000/svg" viewBox="0.0 0.0 24.0 24.0" height="200px" width="200px"><path fill="none" stroke="black" stroke-width=".3" stroke-opacity="1.0"  filling="0" d="M10.44213581085205 12.950791358947754 L10.44213581085205 12.950791358947754 C11.403337478637695 12.957021713256836 12.394087791442871 13.33651065826416 13.15812873840332 13.919768333435059 L13.15812873840332 13.919768333435059 C13.523659706115723 13.666158676147461 13.84177017211914 13.324474334716797 14.254722595214844 13.158939361572266 C16.47067642211914 12.270660400390625 17.355010986328125 13.427433013916016 17.681241989135742 15.106551170349121 C18.00747299194336 16.78567123413086 17.775602340698242 18.987136840820312 17.759143829345703 20.188241958618164 L17.759143829345703 20.188241958618164 C17.125606536865234 20.188241958618164 16.4920711517334 20.188241958618164 15.85853385925293 20.188241958618164 L15.85853385925293 20.188241958618164 C15.861047744750977 19.19149398803711 16.519107818603516 14.766253471374512 14.770058631896973 14.603635787963867 C12.707235336303711 14.411844253540039 13.3729887008667 19.218582153320312 13.37796688079834 20.218442916870117 L13.37796688079834 20.218442916870117 C12.716937065124512 20.218442916870117 12.055906295776367 20.218442916870117 11.394876480102539 20.218442916870117 L11.394876480102539 20.218442916870117 C11.402791976928711 18.814651489257812 11.86389446258545 16.233549118041992 11.043240547180176 14.959251403808594 C10.593986511230469 14.26165771484375 9.616690635681152 14.502800941467285 9.246257781982422 15.084026336669922 C8.432744979858398 16.360462188720703 8.869863510131836 18.785999298095703 8.876965522766113 20.187593460083008 L8.876965522766113 20.187593460083008 C8.252196311950684 20.187593460083008 7.627426624298096 20.187593460083008 7.002657413482666 20.187593460083008 L7.002657413482666 20.187593460083008 C7.002657413482666 17.86635971069336 7.002657413482666 15.545117378234863 7.002657413482666 13.223884582519531 L7.002657413482666 13.223884582519531 C8.202466011047363 13.128073692321777 9.244988441467285 13.192146301269531 10.44213581085205 12.950791358947754 L10.44213581085205 12.950791358947754"></path></svg>