<svg xmlns="http://www.w3.org/2000/svg" viewBox="0.0 0.0 24.0 24.0" height="200px" width="200px"><path fill="none" stroke="black" stroke-width=".3" stroke-opacity="1.0"  filling="0" d="M12.904297828674316 5.750484466552734 C15.47467041015625 4.4641876220703125 18.30341148376465 5.473222255706787 19.2585506439209 8.182502746582031 C20.169239044189453 10.765654563903809 20.2503604888916 13.436595916748047 19.180204391479492 16.030303955078125 C17.89446449279785 19.145755767822266 15.513565063476562 19.740285873413086 11.761910438537598 17.797780990600586 C11.761910438537598 19.046295166015625 11.580217361450195 20.24813461303711 11.818585395812988 21.360519409179688 C12.014723777770996 22.27676010131836 12.708158493041992 23.086322784423828 13.431039810180664 24.396514892578125 C10.243912696838379 24.396514892578125 7.717991352081299 24.396514892578125 4.963703632354736 24.396514892578125 C6.742294788360596 18.198951721191406 6.9412126541137695 12.094736099243164 4.934811115264893 6.026636123657227 C8.702022552490234 5.442107200622559 9.917754173278809 5.558234214782715 11.395746231079102 6.678396701812744 C11.865814208984375 6.386131763458252 12.361440658569336 6.021635055541992 12.904297828674316 5.750484466552734"></path>
<path fill="none" stroke="black" stroke-width=".3" stroke-opacity="1.0"  filling="0" d="M12.852067947387695 8.158055305480957 C11.192383766174316 10.403935432434082 11.205718040466309 13.981119155883789 12.881516456604004 16.006969451904297 C14.476747512817383 13.924444198608398 14.46285629272461 10.241689682006836 12.852067947387695 8.158055305480957"></path></svg>