<svg xmlns="http://www.w3.org/2000/svg" viewBox="0.0 0.0 24.0 24.0" height="200px" width="200px"><path fill="none" stroke="black" stroke-width=".3" stroke-opacity="1.0"  filling="0" d="M16.379283905029297 3.9298315048217773 C19.70864486694336 4.19202184677124 21.63003158569336 5.932069778442383 21.88587188720703 8.447138786315918 C22.14055633544922 10.95296859741211 20.565677642822266 13.196606636047363 17.58513069152832 14.185309410095215 C16.171955108642578 14.654251098632812 14.627107620239258 14.728172302246094 12.988703727722168 14.732792854309082 C15.860097885131836 12.974264144897461 18.32723617553711 11.070781707763672 17.668869018554688 7.298465728759766 C17.396862030029297 5.739757537841797 16.24876594543457 5.134524345397949 14.405344009399414 5.131636619567871 C14.093485832214355 5.793466567993164 13.660351753234863 6.50784969329834 13.409711837768555 7.281717777252197 C12.168058395385742 11.115827560424805 11.061543464660645 14.995560646057129 9.724599838256836 18.795597076416016 C9.127450942993164 20.492332458496094 9.327848434448242 21.56130599975586 11.363004684448242 22.058544158935547 C11.235950469970703 22.242197036743164 11.10889720916748 22.426422119140625 10.982422828674316 22.61064910888672 C8.2259521484375 22.61064910888672 5.468904972076416 22.61064910888672 2.7124338150024414 22.61064910888672 C5.18707799911499 21.671035766601562 5.618480205535889 19.46320152282715 6.2687602043151855 17.434398651123047 C7.467100143432617 13.695000648498535 8.633676528930664 9.945785522460938 9.850497245788574 6.082800388336182 C9.273561477661133 5.552643299102783 8.74167251586914 5.0646443367004395 8.151453971862793 4.522360324859619 C8.459268569946289 4.3046369552612305 8.67525863647461 4.019345760345459 8.899333000183105 4.012993335723877 C11.393034934997559 3.9454240798950195 13.90290641784668 3.7346315383911133 16.379283905029297 3.9298315048217773"></path></svg>