<svg xmlns="http://www.w3.org/2000/svg" viewBox="0.0 0.0 24.0 24.0" height="200px" width="200px"><path fill="none" stroke="black" stroke-width=".3" stroke-opacity="1.0"  filling="0" d="M7.648125648498535 3.6342973709106445 C9.818463325500488 3.6342973709106445 11.949895858764648 3.5040292739868164 14.05775260925293 3.6731996536254883 C15.948102951049805 3.824687957763672 17.32799530029297 4.89158296585083 17.922744750976562 6.796670436859131 C18.68195152282715 9.228132247924805 18.61593246459961 11.634836196899414 17.628023147583008 13.979649543762207 C16.61299705505371 16.388713836669922 14.402578353881836 16.906246185302734 11.972885131835938 17.189180374145508 C11.972885131835938 19.048290252685547 11.972885131835938 20.795997619628906 11.972885131835938 22.78655242919922 C10.504576683044434 22.78655242919922 9.196598052978516 22.78655242919922 7.648125648498535 22.78655242919922 C7.648125648498535 16.55434799194336 7.648125648498535 10.249641418457031 7.648125648498535 3.6342973709106445"></path>
<path fill="none" stroke="black" stroke-width=".3" stroke-opacity="1.0"  filling="0" d="M11.860891342163086 7.936069011688232 C13.609186172485352 7.7987284660339355 13.980535507202148 8.890970230102539 14.046553611755371 10.082828521728516 C14.11905574798584 11.393754959106445 13.82315444946289 12.597990989685059 11.860891342163086 12.959321975708008 C11.860891342163086 11.083706855773926 11.860891342163086 9.558222770690918 11.860891342163086 7.936069011688232"></path></svg>