<svg xmlns="http://www.w3.org/2000/svg" viewBox="0.0 0.0 24.0 24.0" height="200px" width="200px"><path fill="none" stroke="black" stroke-width=".3" stroke-opacity="1.0"  filling="0" d="M13.582966804504395 9.70328426361084 C13.706807136535645 11.234650611877441 13.818663597106934 12.612879753112793 13.94117259979248 14.122940063476562 C14.69487190246582 14.282733917236328 15.411283493041992 14.434539794921875 16.350078582763672 14.63361644744873 C16.392690658569336 15.525138854980469 16.437297821044922 16.455942153930664 16.486568450927734 17.488615036010742 C15.601040840148926 17.687694549560547 14.883296012878418 17.848819732666016 13.814668655395508 18.08917808532715 C13.814668655395508 21.621307373046875 13.814668655395508 25.208698272705078 13.814668655395508 28.903284072875977 C12.388501167297363 28.90461540222168 11.319208145141602 28.90461540222168 9.765871047973633 28.90461540222168 C9.765871047973633 26.128185272216797 9.822463989257812 23.60808563232422 9.74256706237793 21.0926513671875 C9.701286315917969 19.79698371887207 10.364435195922852 18.251636505126953 8.471532821655273 17.42403221130371 C8.094683647155762 17.2589111328125 7.973505973815918 15.196227073669434 8.246488571166992 15.06373119354248 C10.535548210144043 13.952491760253906 9.442285537719727 11.842535972595215 10.001566886901855 9.864410400390625 C11.021590232849121 9.818469047546387 12.174776077270508 9.766535758972168 13.582966804504395 9.70328426361084"></path></svg>