<svg xmlns="http://www.w3.org/2000/svg" viewBox="0.0 0.0 24.0 24.0" height="200px" width="200px"><path fill="none" stroke="black" stroke-width=".3" stroke-opacity="1.0"  filling="0" d="M7.318063735961914 9.58700942993164 L7.318063735961914 9.58700942993164 C8.916080474853516 9.58700942993164 10.514097213745117 9.58700942993164 12.112114906311035 9.58700942993164 C13.710131645202637 9.58700942993164 15.308148384094238 9.58700942993164 16.906166076660156 9.58700942993164 L16.906166076660156 9.58700942993164 C16.686424255371094 11.465874671936035 15.884766578674316 12.890722274780273 14.919899940490723 14.242216110229492 C13.955033302307129 15.593708038330078 12.826958656311035 16.871845245361328 11.954386711120605 18.457290649414062 L11.954386711120605 18.457290649414062 C12.780075073242188 18.359912872314453 13.6057710647583 18.262596130371094 14.431476593017578 18.165359497070312 L14.431476593017578 18.165359497070312 C14.69505500793457 17.33533477783203 14.958657264709473 16.50531578063965 15.222283363342285 15.675304412841797 L15.222283363342285 15.675304412841797 C15.742124557495117 15.701231956481934 16.261966705322266 15.727160453796387 16.78180694580078 15.753087997436523 L16.78180694580078 15.753087997436523 C16.78180694580078 17.2977294921875 16.78180694580078 18.842369079589844 16.78180694580078 20.387008666992188 L16.78180694580078 20.387008666992188 C15.159782409667969 20.387203216552734 13.537757873535156 20.3873233795166 11.915733337402344 20.387393951416016 C10.293708801269531 20.38746452331543 8.671684265136719 20.38748550415039 7.0496602058410645 20.387489318847656 L7.0496602058410645 20.387489318847656 C7.020811080932617 19.726043701171875 6.801533222198486 19.045207977294922 6.963113307952881 18.403152465820312 C7.186175346374512 17.516794204711914 8.392391204833984 16.29106903076172 8.974714279174805 15.597023010253906 C10.101696968078613 14.25382137298584 11.178010940551758 12.866161346435547 12.276086807250977 11.499444007873535 L12.276086807250977 11.499444007873535 C11.424141883850098 11.61020278930664 10.572196960449219 11.720959663391113 9.720251083374023 11.831707000732422 L9.720251083374023 11.831707000732422 C9.491419792175293 12.359731674194336 9.485163688659668 13.05884075164795 9.033757209777832 13.415780067443848 C8.577640533447266 13.776443481445312 7.8899617195129395 13.626045227050781 7.318063735961914 13.731178283691406 L7.318063735961914 13.731178283691406 C7.318063735961914 12.3497896194458 7.318063735961914 10.968398094177246 7.318063735961914 9.58700942993164 L7.318063735961914 9.58700942993164"></path></svg>