<svg xmlns="http://www.w3.org/2000/svg" viewBox="0.0 0.0 24.0 24.0" height="200px" width="200px"><path fill="none" stroke="black" stroke-width=".3" stroke-opacity="1.0"  filling="0" d="M6.088349342346191 3.9682788848876953 C10.29438304901123 3.9682788848876953 14.180669784545898 3.9682788848876953 18.06513023376465 3.9682788848876953 C17.701534271240234 7.134071350097656 16.858013153076172 7.534211158752441 8.966066360473633 8.129852294921875 C8.966066360473633 8.576888084411621 8.966066360473633 9.030623435974121 8.966066360473633 9.363160133361816 C10.872363090515137 9.363160133361816 12.722627639770508 9.037931442260742 14.407842636108398 9.428327560424805 C18.422637939453125 10.357723236083984 20.372787475585938 14.617960929870605 18.838003158569336 18.5523624420166 C17.02184295654297 23.209693908691406 9.547089576721191 24.767620086669922 5.978722095489502 21.241886138916016 C4.802055358886719 20.079227447509766 4.21676778793335 18.62422752380371 4.69608211517334 17.10589027404785 C4.985985279083252 16.187458038330078 5.873357772827148 15.053424835205078 6.711397171020508 14.826251983642578 C7.528120517730713 14.604561805725098 9.011134147644043 15.150261878967285 9.488012313842773 15.847004890441895 C9.950883865356445 16.52364730834961 9.565360069274902 17.82821273803711 9.428326606750488 18.840436935424805 C9.38569450378418 19.15470314025879 8.938657760620117 19.414154052734375 8.526947021484375 19.861190795898438 C10.806585311889648 20.731510162353516 11.843172073364258 19.817338943481445 12.468048095703125 18.205209732055664 C13.271371841430664 16.133861541748047 12.813982009887695 13.290861129760742 11.443641662597656 12.637361526489258 C10.83642864227295 12.347457885742188 9.947837829589844 12.560622215270996 9.203591346740723 12.665987014770508 C8.173094749450684 12.812155723571777 7.158432483673096 13.07160758972168 6.088349342346191 13.292688369750977 C6.088349342346191 10.012396812438965 6.088349342346191 7.138943672180176 6.088349342346191 3.9682788848876953"></path></svg>