<svg xmlns="http://www.w3.org/2000/svg" viewBox="0.0 0.0 24.0 24.0" height="200px" width="200px"><path fill="none" stroke="black" stroke-width=".3" stroke-opacity="1.0"  filling="0" d="M16.9854793548584 10.121028900146484 L16.9854793548584 10.121028900146484 C16.89983367919922 10.756697654724121 16.81418800354004 11.392366409301758 16.72854232788086 12.028035163879395 L16.72854232788086 12.028035163879395 C15.353070259094238 11.594664573669434 14.157600402832031 10.896332740783691 12.688150405883789 11.462493896484375 C11.3799409866333 11.966531753540039 10.603907585144043 13.399557113647461 10.517258644104004 14.829095840454102 C10.430610656738281 16.258634567260742 11.033346176147461 17.684688568115234 12.482673645019531 18.174781799316406 C13.781557083129883 18.614002227783203 14.70648193359375 18.026840209960938 15.909669876098633 17.612573623657227 L15.909669876098633 17.612573623657227 C15.82131576538086 18.259462356567383 16.058645248413086 19.048419952392578 15.644606590270996 19.553237915039062 C14.098522186279297 21.438304901123047 10.101614952087402 19.62724494934082 9.138819694519043 18.040531158447266 C8.328559875488281 16.7052001953125 8.248112678527832 15.025531768798828 8.711617469787598 13.505245208740234 C9.175122261047363 11.98495864868164 10.182578086853027 10.624053001403809 11.548125267028809 9.926246643066406 C13.461335182189941 8.948579788208008 15.100125312805176 9.473088264465332 16.9854793548584 10.121028900146484 L16.9854793548584 10.121028900146484"></path></svg>