<svg xmlns="http://www.w3.org/2000/svg" viewBox="0.0 0.0 24.0 24.0" height="200px" width="200px"><path fill="none" stroke="black" stroke-width=".3" stroke-opacity="1.0"  filling="0" d="M11.254136085510254 6.986850738525391 L11.254136085510254 6.986850738525391 C13.111507415771484 6.986850738525391 14.968875885009766 6.986850738525391 16.82624626159668 6.986850738525391 L16.82624626159668 6.986850738525391 C16.51947593688965 7.778764247894287 15.819708824157715 8.357217788696289 15.372931480407715 9.079453468322754 C14.529218673706055 10.443350791931152 14.528538703918457 12.1028470993042 14.273164749145508 13.628665924072266 C14.017791748046875 15.154485702514648 13.50772476196289 16.546628952026367 11.645240783691406 17.37582015991211 C11.063404083251953 17.634857177734375 10.416096687316895 17.7855281829834 9.779203414916992 17.786441802978516 C7.396721839904785 17.789859771728516 5.361692428588867 15.603540420532227 7.232171535491943 13.411438941955566 C8.375714302062988 12.071267127990723 10.832895278930664 12.574104309082031 9.462089538574219 14.8412504196167 C9.221397399902344 15.239325523376465 8.684146881103516 15.35153579711914 8.295175552368164 15.60667896270752 L8.295175552368164 15.60667896270752 C8.703155517578125 15.728404998779297 9.100495338439941 16.049461364746094 9.51911449432373 15.971857070922852 C10.461233139038086 15.79720687866211 10.730445861816406 14.095268249511719 10.869830131530762 13.573805809020996 C11.295504570007324 11.981279373168945 11.560098648071289 10.322102546691895 11.894857406616211 8.708589553833008 L11.894857406616211 8.708589553833008 C11.604865074157715 8.492775917053223 11.150956153869629 8.399933815002441 11.024881362915039 8.061147689819336 C10.897174835205078 7.717977523803711 11.177718162536621 7.344949722290039 11.254136085510254 6.986850738525391 L11.254136085510254 6.986850738525391"></path></svg>