<svg xmlns="http://www.w3.org/2000/svg" viewBox="0.0 0.0 24.0 24.0" height="200px" width="200px"><path fill="none" stroke="black" stroke-width=".3" stroke-opacity="1.0"  filling="0" d="M11.162911415100098 9.664334297180176 L11.162911415100098 9.664334297180176 C11.868633270263672 9.664334297180176 12.57435417175293 9.664334297180176 13.280076026916504 9.664334297180176 L13.280076026916504 9.664334297180176 C13.10325813293457 11.154826164245605 12.926416397094727 12.64531421661377 12.749545097351074 14.135799407958984 C12.572673797607422 15.626283645629883 12.395771980285645 17.116764068603516 12.218833923339844 18.607242584228516 L12.218833923339844 18.607242584228516 C13.282403945922852 18.607242584228516 14.345974922180176 18.607242584228516 15.4095458984375 18.607242584228516 L15.4095458984375 18.607242584228516 C15.4095458984375 19.226272583007812 15.4095458984375 19.845304489135742 15.4095458984375 20.46433448791504 L15.4095458984375 20.46433448791504 C13.54391860961914 20.46433448791504 11.678289413452148 20.46433448791504 9.812662124633789 20.46433448791504 L9.812662124633789 20.46433448791504 C10.037745475769043 18.66434097290039 10.262825012207031 16.86434555053711 10.487875938415527 15.064346313476562 C10.712925910949707 13.264347076416016 10.937946319580078 11.464344024658203 11.162911415100098 9.664334297180176 L11.162911415100098 9.664334297180176"></path></svg>