<svg xmlns="http://www.w3.org/2000/svg" viewBox="0.0 0.0 24.0 24.0" height="200px" width="200px"><path fill="none" stroke="black" stroke-width=".3" stroke-opacity="1.0"  filling="0" d="M4.3442840576171875 3.949932098388672 C8.274721145629883 3.949932098388672 11.839327812194824 3.913296699523926 15.402888298034668 3.960923194885254 C18.511127471923828 4.0022687911987305 19.900646209716797 4.897215366363525 20.22774887084961 6.910059452056885 C20.63178253173828 9.395498275756836 19.0826358795166 12.085046768188477 16.571552276611328 12.848105430603027 C15.265768051147461 13.245336532592773 13.833854675292969 13.240102767944336 12.455846786499023 13.383503913879395 C11.76867389678955 13.455204010009766 11.074174880981445 13.452587127685547 10.152013778686523 13.49445629119873 C9.810258865356445 15.00278091430664 9.471644401550293 16.499067306518555 9.101106643676758 18.13456916809082 C9.649587631225586 18.45538902282715 10.1342191696167 18.739049911499023 10.74864387512207 19.099123001098633 C10.606813430786133 19.708837509155273 10.455039024353027 20.36199188232422 10.283900260925293 21.100452423095703 C7.153158664703369 21.100452423095703 4.137032985687256 21.100452423095703 1.0910758972167969 21.100452423095703 C1.188420295715332 19.85904312133789 1.1455049514770508 18.733295440673828 2.728670120239258 18.475276947021484 C3.0740880966186523 18.41875457763672 3.4043283462524414 17.55206871032715 3.5335988998413086 17.008821487426758 C4.218677520751953 14.132955551147461 4.863980770111084 11.246623039245605 5.461134910583496 8.350871086120605 C5.6050591468811035 7.653231143951416 5.881916522979736 6.921573638916016 4.857700347900391 6.348493576049805 C4.43011474609375 6.109317779541016 4.52798318862915 4.9307098388671875 4.3442840576171875 3.949932098388672"></path>
<path fill="none" stroke="black" stroke-width=".3" stroke-opacity="1.0"  filling="0" d="M11.651440620422363 6.48142671585083 C12.510798454284668 6.691816806793213 13.717144966125488 6.669312953948975 13.918638229370117 7.108412265777588 C14.25463581085205 7.8395466804504395 14.143683433532715 8.933370590209961 13.864209175109863 9.752429008483887 C13.41307258605957 11.072867393493652 12.289941787719727 11.411481857299805 10.623038291931152 11.085428237915039 C10.979446411132812 9.489179611206055 11.276716232299805 8.158796310424805 11.651440620422363 6.48142671585083"></path></svg>