<svg xmlns="http://www.w3.org/2000/svg" viewBox="0.0 0.0 24.0 24.0" height="200px" width="200px"><path fill="none" stroke="black" stroke-width=".3" stroke-opacity="1.0"  filling="0" d="M7.975735187530518 7.236795902252197 L7.975735187530518 7.236795902252197 C9.647418975830078 7.236795902252197 11.31910228729248 7.236795902252197 12.990784645080566 7.236795902252197 C14.662467956542969 7.236795902252197 16.334152221679688 7.236795902252197 18.005834579467773 7.236795902252197 L18.005834579467773 7.236795902252197 C17.61648178100586 9.297581672668457 17.925748825073242 10.032933235168457 15.947978019714355 10.989903450012207 L15.947978019714355 10.989903450012207 C15.891865730285645 10.526337623596191 16.04826545715332 9.981152534484863 15.779641151428223 9.59920597076416 C15.484460830688477 9.179499626159668 14.885546684265137 9.095487594604492 14.438499450683594 8.843628883361816 L14.438499450683594 8.843628883361816 C13.93075942993164 11.180143356323242 13.423062324523926 13.5166654586792 12.915295600891113 15.853174209594727 L12.915295600891113 15.853174209594727 C13.341848373413086 16.01734733581543 13.768400192260742 16.181522369384766 14.194952964782715 16.34569549560547 L14.194952964782715 16.34569549560547 C14.1108980178833 16.762672424316406 14.026843070983887 17.17964744567871 13.942788124084473 17.59662437438965 L13.942788124084473 17.59662437438965 C11.877906799316406 17.59637451171875 9.813028335571289 17.5963134765625 7.748148441314697 17.59630584716797 L7.748148441314697 17.59630584716797 C7.820074081420898 17.16836929321289 7.8919997215271 16.740434646606445 7.963925361633301 16.312498092651367 L7.963925361633301 16.312498092651367 C8.427504539489746 16.19088363647461 8.891082763671875 16.069271087646484 9.35466194152832 15.947656631469727 L9.35466194152832 15.947656631469727 C9.861665725708008 13.58401107788086 10.368714332580566 11.220379829406738 10.875631332397461 8.85671615600586 L10.875631332397461 8.85671615600586 C10.415257453918457 8.997588157653809 9.88620376586914 8.999393463134766 9.49450969696045 9.27933120727539 C8.90466022491455 9.700887680053711 8.922157287597656 10.792089462280273 8.249605178833008 11.06283950805664 C7.925734519958496 11.193221092224121 7.553758144378662 11.004852294921875 7.20583438873291 10.975858688354492 L7.20583438873291 10.975858688354492 C7.462489128112793 9.729508399963379 7.719121932983398 8.483154296875 7.975735187530518 7.236795902252197 L7.975735187530518 7.236795902252197"></path></svg>