<svg xmlns="http://www.w3.org/2000/svg" viewBox="0.0 0.0 24.0 24.0" height="200px" width="200px"><path fill="none" stroke="black" stroke-width=".3" stroke-opacity="1.0"  filling="0" d="M13.084745407104492 3.086503028869629 C15.093236923217773 3.086503028869629 17.40898323059082 3.086503028869629 19.976993560791016 3.086503028869629 C19.053531646728516 7.355186939239502 18.114192962646484 11.449833869934082 17.30637550354004 15.570556640625 C17.039369583129883 16.933361053466797 16.118173599243164 18.413509368896484 17.61929702758789 19.749670028686523 C17.860225677490234 19.96395492553711 17.554672241210938 20.79104995727539 17.483243942260742 21.52347183227539 C15.223620414733887 21.474151611328125 12.978169441223145 22.407251358032227 10.767297744750977 20.74399757385254 C10.814349174499512 20.733224868774414 10.594963073730469 20.719621658325195 10.475349426269531 20.822229385375977 C8.727060317993164 22.32108497619629 6.751448154449463 22.847726821899414 4.771300315856934 21.550682067871094 C2.8433074951171875 20.288217544555664 2.868250846862793 18.189022064208984 3.3234634399414062 16.202072143554688 C3.697610855102539 14.56999683380127 4.1307148933410645 12.887466430664062 4.907921314239502 11.42375659942627 C6.7089314460754395 8.030919075012207 9.555286407470703 7.376161098480225 13.029189109802246 9.471954345703125 C13.304131507873535 8.240669250488281 13.528051376342773 7.24010705947876 13.780319213867188 6.110295295715332 C12.974767684936523 5.339324951171875 11.524096488952637 4.677196979522705 13.084745407104492 3.086503028869629"></path>
<path fill="none" stroke="black" stroke-width=".3" stroke-opacity="1.0"  filling="0" d="M11.318881034851074 10.8217191696167 C9.320027351379395 13.356851577758789 9.004836082458496 16.07282066345215 9.23045825958252 19.40500259399414 C11.857427597045898 17.364765167236328 12.71456527709961 13.610250473022461 11.318881034851074 10.8217191696167"></path></svg>