<svg xmlns="http://www.w3.org/2000/svg" viewBox="0.0 0.0 24.0 24.0" height="200px" width="200px"><path fill="none" stroke="black" stroke-width=".3" stroke-opacity="1.0"  filling="0" d="M13.765254020690918 10.016368865966797 L13.765254020690918 10.016368865966797 C14.351587295532227 10.17695140838623 15.103985786437988 10.058859825134277 15.52425479888916 10.498117446899414 C16.86577033996582 11.900245666503906 15.162947654724121 14.569221496582031 15.30927562713623 16.143770217895508 C15.373889923095703 16.839048385620117 15.687682151794434 17.536436080932617 15.5619535446167 18.223297119140625 L15.5619535446167 18.223297119140625 C13.875398635864258 18.22303581237793 12.188840866088867 18.222963333129883 10.502286911010742 18.222951889038086 L10.502286911010742 18.222951889038086 C11.746758460998535 16.04277229309082 12.340837478637695 14.275343894958496 12.417469024658203 11.759212493896484 L12.417469024658203 11.759212493896484 C11.848884582519531 12.145642280578613 11.1131591796875 12.3604154586792 10.711716651916504 12.918501853942871 C9.8838472366333 14.069408416748047 10.288078308105469 16.897356033325195 10.320915222167969 18.19550132751465 L10.320915222167969 18.19550132751465 C8.608648300170898 18.19550132751465 6.896380424499512 18.19550132751465 5.184113025665283 18.19550132751465 L5.184113025665283 18.19550132751465 C5.724485397338867 16.98484230041504 6.782903671264648 15.687034606933594 7.083659648895264 14.397451400756836 C7.404891490936279 13.020072937011719 6.835814476013184 11.684087753295898 7.044744491577148 10.2620210647583 L7.044744491577148 10.2620210647583 C8.628092765808105 10.337903022766113 9.638640403747559 10.205927848815918 11.095396041870117 10.877715110778809 L11.095396041870117 10.877715110778809 C11.96829605102539 10.542309761047363 12.861143112182617 10.255187034606934 13.765254020690918 10.016368865966797 L13.765254020690918 10.016368865966797"></path></svg>