<svg xmlns="http://www.w3.org/2000/svg" viewBox="0.0 0.0 24.0 24.0" height="200px" width="200px"><path fill="none" stroke="black" stroke-width=".3" stroke-opacity="1.0"  filling="0" d="M7.19968843460083 8.512022972106934 L7.19968843460083 8.512022972106934 C8.470393180847168 8.4603910446167 9.766616821289062 8.613848686218262 10.987276077270508 8.970708847045898 L10.987276077270508 8.970708847045898 C12.553969383239746 8.697457313537598 12.606281280517578 7.319691181182861 14.323344230651855 8.591483116149902 C15.321390151977539 9.33071517944336 15.397449493408203 10.793835639953613 15.014729499816895 12.206604957580566 C14.632009506225586 13.619375228881836 13.790510177612305 14.981794357299805 12.953437805175781 15.519622802734375 C11.746487617492676 16.295101165771484 11.033411979675293 15.687128067016602 9.866424560546875 15.261749267578125 L9.866424560546875 15.261749267578125 C9.735238075256348 15.299661636352539 9.604050636291504 15.33757495880127 9.472864151000977 15.375487327575684 L9.472864151000977 15.375487327575684 C9.542319297790527 16.564685821533203 9.611809730529785 17.753883361816406 9.681329727172852 18.943078994750977 L9.681329727172852 18.943078994750977 C8.156011581420898 18.943078994750977 6.630692958831787 18.943078994750977 5.105374813079834 18.943078994750977 L5.105374813079834 18.943078994750977 C5.341680526733398 18.20905113220215 5.908993721008301 17.625173568725586 6.261944770812988 16.93956184387207 C6.884156227111816 15.730908393859863 7.185883045196533 14.272098541259766 7.2984113693237305 12.791414260864258 C7.4109392166137695 11.31072998046875 7.3342695236206055 9.808172225952148 7.19968843460083 8.512022972106934 L7.19968843460083 8.512022972106934"></path>
<path fill="none" stroke="black" stroke-width=".3" stroke-opacity="1.0"  filling="0" d="M11.696182250976562 9.583017349243164 L11.696182250976562 9.583017349243164 C11.859983444213867 11.48971176147461 11.638405799865723 12.537013053894043 10.890989303588867 14.285796165466309 L10.890989303588867 14.285796165466309 C10.766035079956055 14.306674003601074 10.641079902648926 14.327550888061523 10.516125679016113 14.348428726196289 L10.516125679016113 14.348428726196289 C9.869929313659668 12.504989624023438 10.535916328430176 11.054434776306152 11.696182250976562 9.583017349243164 L11.696182250976562 9.583017349243164"></path></svg>