<svg xmlns="http://www.w3.org/2000/svg" viewBox="0.0 0.0 24.0 24.0" height="200px" width="200px"><path fill="none" stroke="black" stroke-width=".3" stroke-opacity="1.0"  filling="0" d="M14.489583969116211 7.475036144256592 L14.489583969116211 7.475036144256592 C15.821122169494629 7.475036144256592 17.152660369873047 7.475036144256592 18.48419952392578 7.475036144256592 L18.48419952392578 7.475036144256592 C17.323368072509766 8.428594589233398 16.34926986694336 9.45429515838623 15.463223457336426 10.55534553527832 C14.577176094055176 11.656394958496094 13.779178619384766 12.832794189453125 12.970549583435059 14.087747573852539 C11.962597846984863 15.652039527893066 11.243302345275879 17.584640502929688 9.36658763885498 17.94977569580078 L9.36658763885498 17.94977569580078 C9.242546081542969 16.32514762878418 9.316842079162598 14.379385948181152 9.174663543701172 12.505748748779297 C9.03248405456543 10.632110595703125 8.673830032348633 8.830596923828125 7.6838860511779785 7.494463920593262 L7.6838860511779785 7.494463920593262 C9.01009750366211 7.494463920593262 10.336308479309082 7.494463920593262 11.662519454956055 7.494463920593262 L11.662519454956055 7.494463920593262 C10.848485946655273 8.464886665344238 10.69904899597168 9.692715644836426 10.811622619628906 10.971884727478027 C10.924196243286133 12.251052856445312 11.298781394958496 13.581562042236328 11.532792091369629 14.757343292236328 L11.532792091369629 14.757343292236328 C12.238659858703613 13.7003812789917 12.944498062133789 12.643400192260742 13.650320053100586 11.586407661437988 C14.356142044067383 10.52941608428955 15.061946868896484 9.472412109375 15.76774787902832 8.415406227111816 L15.76774787902832 8.415406227111816 C15.341692924499512 8.101949691772461 14.91563892364502 7.788492679595947 14.489583969116211 7.475036144256592 L14.489583969116211 7.475036144256592"></path></svg>