<svg xmlns="http://www.w3.org/2000/svg" viewBox="0.0 0.0 24.0 24.0" height="200px" width="200px"><path fill="none" stroke="black" stroke-width=".3" stroke-opacity="1.0"  filling="0" d="M12.774231910705566 14.013483047485352 C15.46606731414795 13.089038848876953 17.943769454956055 13.681097030639648 20.68035125732422 15.19120979309082 C19.874958038330078 16.328189849853516 19.23415756225586 17.231861114501953 18.585369110107422 18.14671516418457 C17.65772819519043 17.823118209838867 16.9266414642334 17.34931182861328 16.215532302856445 17.376476287841797 C15.406143188476562 17.407638549804688 14.6127347946167 17.885440826416016 13.812934875488281 18.169086456298828 C14.337080001831055 18.936925888061523 14.786917686462402 19.773479461669922 15.415731430053711 20.44304656982422 C15.740925788879395 20.789810180664062 16.386518478393555 20.828960418701172 16.879501342773438 21.027915954589844 C19.202199935913086 21.964344024658203 20.530139923095703 23.621471405029297 20.549312591552734 26.188663482666016 C20.569290161132812 28.7997989654541 19.082347869873047 31.122495651245117 16.547117233276367 32.069313049316406 C12.893282890319824 33.43321228027344 9.584619522094727 32.85792922973633 6.595555782318115 29.921598434448242 C7.499226093292236 28.93403434753418 8.285443305969238 28.075103759765625 8.986166954040527 27.31045913696289 C10.403595924377441 27.856979370117188 11.591710090637207 28.609638214111328 12.820573806762695 28.683944702148438 C13.618776321411133 28.73188591003418 14.720599174499512 27.95125961303711 15.199200630187988 27.221771240234375 C15.4213228225708 26.88299560546875 14.622322082519531 25.64374542236328 14.035056114196777 25.07006072998047 C13.498926162719727 24.547515869140625 12.624818801879883 24.367740631103516 11.896129608154297 24.04574203491211 C9.694881439208984 23.070960998535156 8.64179801940918 21.393856048583984 8.832758903503418 18.9832706451416 C9.033308029174805 16.454431533813477 10.424369812011719 14.820473670959473 12.774231910705566 14.013483047485352"></path></svg>