<svg xmlns="http://www.w3.org/2000/svg" viewBox="0.0 0.0 24.0 24.0" height="200px" width="200px"><path fill="none" stroke="black" stroke-width=".3" stroke-opacity="1.0"  filling="0" d="M13.03036117553711 4.027681827545166 C14.763132095336914 3.6435604095458984 16.846805572509766 3.8966217041015625 18.53428077697754 4.5054168701171875 C20.486896514892578 5.209639072418213 20.847461700439453 7.910562992095947 19.26145362854004 9.250154495239258 C18.486568450927734 9.904850006103516 16.938610076904297 10.34514045715332 16.051990509033203 10.023831367492676 C14.150110244750977 9.333500862121582 15.229393005371094 7.752325057983398 15.875030517578125 6.084781169891357 C12.559873580932617 6.674853801727295 11.475759506225586 8.699943542480469 10.621755599975586 11.483007431030273 C11.788613319396973 11.268599510192871 12.69576644897461 11.05479621887207 13.614394187927246 10.940648078918457 C17.29736328125 10.483447074890137 19.591217041015625 12.99472713470459 18.83867835998535 16.63239860534668 C17.79563331604004 21.67790985107422 11.828474044799805 24.630084991455078 7.318679332733154 22.153228759765625 C6.209198474884033 21.54383087158203 5.142599582672119 20.248931884765625 4.754854679107666 19.044025421142578 C3.3639259338378906 14.71662712097168 5.7562255859375 5.64026403427124 13.03036117553711 4.027681827545166"></path>
<path fill="none" stroke="black" stroke-width=".3" stroke-opacity="1.0"  filling="0" d="M12.242189407348633 14.001534461975098 C10.01356315612793 16.054407119750977 9.635482788085938 18.178546905517578 11.134519577026367 20.227794647216797 C13.306976318359375 18.284238815307617 13.685056686401367 16.159496307373047 12.242189407348633 14.001534461975098"></path></svg>