<svg xmlns="http://www.w3.org/2000/svg" viewBox="0.0 0.0 24.0 24.0" height="200px" width="200px"><path fill="none" stroke="black" stroke-width=".3" stroke-opacity="1.0"  filling="0" d="M7.858935356140137 9.606499671936035 L7.858935356140137 9.606499671936035 C9.04906940460205 9.596174240112305 11.585395812988281 9.33237361907959 13.641759872436523 9.671110153198242 C15.698124885559082 10.009847640991211 17.27452850341797 10.951120376586914 16.544815063476562 13.35094165802002 C16.36286163330078 13.949333190917969 15.796303749084473 14.35316276550293 15.422048568725586 14.854273796081543 L15.422048568725586 14.854273796081543 C15.79499340057373 15.176422119140625 16.25766372680664 15.417414665222168 16.540882110595703 15.820718765258789 C17.714330673217773 17.491714477539062 17.039947509765625 19.034936904907227 15.366008758544922 19.951622009277344 C14.395811080932617 20.48292350769043 13.04501724243164 20.588642120361328 11.673785209655762 20.560293197631836 C10.302553176879883 20.531944274902344 8.910883903503418 20.369525909423828 7.858935356140137 20.364551544189453 L7.858935356140137 20.364551544189453 C7.858935356140137 18.571542739868164 7.858935356140137 16.778533935546875 7.858935356140137 14.985525131225586 C7.858935356140137 13.192517280578613 7.858935356140137 11.399508476257324 7.858935356140137 9.606499671936035 L7.858935356140137 9.606499671936035"></path>
<path fill="none" stroke="black" stroke-width=".3" stroke-opacity="1.0"  filling="0" d="M11.936422348022461 12.020153999328613 L11.936422348022461 12.020153999328613 C12.260318756103516 12.328537940979004 12.987959861755371 12.505268096923828 12.908110618591309 12.945306777954102 C12.817317008972168 13.445657730102539 12.04948616027832 13.490412712097168 11.620173454284668 13.76296615600586 L11.620173454284668 13.76296615600586 C11.620173454284668 13.24997615814209 11.620173454284668 12.73698616027832 11.620173454284668 12.22399616241455 L11.620173454284668 12.22399616241455 C11.725589752197266 12.156048774719238 11.831006050109863 12.088101387023926 11.936422348022461 12.020153999328613 L11.936422348022461 12.020153999328613"></path>
<path fill="none" stroke="black" stroke-width=".3" stroke-opacity="1.0"  filling="0" d="M11.488429069519043 16.135658264160156 L11.488429069519043 16.135658264160156 C13.584548950195312 16.3309383392334 13.806502342224121 16.673534393310547 11.930850982666016 17.94040870666504 L11.930850982666016 17.94040870666504 C11.805662155151367 17.823631286621094 11.680473327636719 17.70685386657715 11.55528450012207 17.590076446533203 L11.55528450012207 17.590076446533203 C11.532999038696289 17.105270385742188 11.510714530944824 16.620464324951172 11.488429069519043 16.135658264160156 L11.488429069519043 16.135658264160156"></path></svg>