<svg xmlns="http://www.w3.org/2000/svg" viewBox="0.0 0.0 24.0 24.0" height="200px" width="200px"><path fill="none" stroke="black" stroke-width=".3" stroke-opacity="1.0"  filling="0" d="M3.1831045150756836 3.854180335998535 C5.79636812210083 3.854180335998535 8.409085273742676 3.854180335998535 11.022348403930664 3.854180335998535 C11.09940242767334 4.036704063415527 11.177002906799316 4.219228267669678 11.254055976867676 4.401752471923828 C10.42668628692627 4.810519218444824 9.59931755065918 5.219285488128662 8.566471099853516 5.729696750640869 C8.566471099853516 7.527613162994385 8.566471099853516 9.491113662719727 8.566471099853516 11.640962600708008 C11.223453521728516 11.640962600708008 13.890271186828613 11.640962600708008 16.691524505615234 11.640962600708008 C16.691524505615234 9.594398498535156 16.691524505615234 7.629258632659912 16.691524505615234 5.717674732208252 C15.678352355957031 5.258631706237793 14.80781078338623 4.864620685577393 13.93726921081543 4.470609188079834 C13.994102478027344 4.268411159515381 14.050936698913574 4.066761016845703 14.107770919799805 3.8645639419555664 C16.720487594604492 3.8645639419555664 19.333751678466797 3.8645639419555664 21.946468353271484 3.8645639419555664 C22.02789306640625 4.031239032745361 22.109865188598633 4.19736909866333 22.19129180908203 4.3640456199646 C21.460102081298828 4.769532680511475 20.728912353515625 5.175020694732666 19.694427490234375 5.748823642730713 C19.694427490234375 10.173120498657227 19.694427490234375 14.84715747833252 19.694427490234375 19.60480308532715 C20.523433685302734 19.993350982666016 21.342063903808594 20.37697982788086 22.16014289855957 20.760608673095703 C22.118610382080078 20.994503021240234 22.07707977294922 21.227848052978516 22.036090850830078 21.461742401123047 C19.415721893310547 21.851383209228516 16.782238006591797 21.64699935913086 14.152034759521484 21.577049255371094 C14.08536434173584 21.303810119628906 14.018147468566895 21.03057098388672 13.95147705078125 20.75733184814453 C14.750975608825684 20.44091796875 15.55047607421875 20.123958587646484 16.60408592224121 19.70699691772461 C16.60408592224121 17.79978370666504 16.60408592224121 15.75267219543457 16.60408592224121 13.50718879699707 C13.997381210327148 13.50718879699707 11.335480690002441 13.50718879699707 8.533135414123535 13.50718879699707 C8.533135414123535 15.5849027633667 8.533135414123535 17.551136016845703 8.533135414123535 19.638137817382812 C9.43919849395752 20.00592041015625 10.332144737243652 20.36878204345703 11.225637435913086 20.731096267700195 C11.183012962341309 21.002147674560547 11.139841079711914 21.273204803466797 11.09721565246582 21.54425811767578 C8.505264282226562 21.791812896728516 5.896372318267822 21.632240295410156 3.293492317199707 21.616390228271484 C3.2142534255981445 21.355724334716797 3.1361074447631836 21.095600128173828 3.057413101196289 20.83492660522461 C3.85308837890625 20.440370559692383 4.649307727813721 20.045814514160156 5.579962253570557 19.584583282470703 C5.579962253570557 15.036783218383789 5.579962253570557 10.423406600952148 5.579962253570557 5.746636390686035 C4.706688404083252 5.306175708770752 3.8487157821655273 4.873910427093506 2.991291046142578 4.441645622253418 C3.055227279663086 4.246006011962891 3.119166374206543 4.0498199462890625 3.1831045150756836 3.854180335998535"></path></svg>