<svg xmlns="http://www.w3.org/2000/svg" viewBox="0.0 0.0 24.0 24.0" height="200px" width="200px"><path fill="none" stroke="black" stroke-width=".3" stroke-opacity="1.0"  filling="0" d="M3.757823944091797 3.15732479095459 C6.678769111633301 3.15732479095459 9.336248397827148 3.15732479095459 11.99429702758789 3.15732479095459 C12.075276374816895 3.364903450012207 12.155683517456055 3.573054313659668 12.236662864685059 3.7806339263916016 C11.356160163879395 4.207199573516846 10.476225852966309 4.63376522064209 9.334535598754883 5.186360836029053 C9.334535598754883 9.080194473266602 9.200521469116211 13.139978408813477 9.387571334838867 17.1849365234375 C9.490791320800781 19.4135684967041 10.958107948303223 20.41326141357422 13.29110050201416 20.456600189208984 C15.55109691619873 20.498802185058594 17.311534881591797 19.2345027923584 17.405059814453125 17.025829315185547 C17.5721492767334 13.064131736755371 17.452392578125 9.089889526367188 17.452392578125 5.09112548828125 C16.42989158630371 4.678816795349121 15.502054214477539 4.3041462898254395 14.573648452758789 3.9300460815429688 C14.624972343444824 3.7047882080078125 14.676297187805176 3.47952938079834 14.727622032165527 3.2537012100219727 C17.082284927368164 3.2537012100219727 19.436948776245117 3.2537012100219727 22.577449798583984 3.2537012100219727 C21.41238021850586 4.10398006439209 20.725200653076172 4.6058220863342285 19.6028995513916 5.4253058433532715 C19.6028995513916 7.518213748931885 19.623428344726562 10.057075500488281 19.59491539001465 12.59593677520752 C19.578948974609375 14.015350341796875 19.60746192932129 15.453582763671875 19.397029876708984 16.85018539428711 C18.818771362304688 20.686424255371094 16.380847930908203 22.555213928222656 12.42314338684082 22.341358184814453 C8.628538131713867 22.136058807373047 6.60064172744751 20.065393447875977 6.493430137634277 16.153881072998047 C6.41758394241333 13.40572738647461 6.459213733673096 10.654153823852539 6.452370643615723 7.903719902038574 C6.447807788848877 6.3012471199035645 6.7614593505859375 4.532256126403809 4.340643882751465 4.318973541259766 C4.1621479988098145 4.303005695343018 4.033266544342041 3.7281694412231445 3.757823944091797 3.15732479095459"></path></svg>