<svg xmlns="http://www.w3.org/2000/svg" viewBox="0.0 0.0 24.0 24.0" height="200px" width="200px"><path fill="none" stroke="black" stroke-width=".3" stroke-opacity="1.0"  filling="0" d="M2.5605621337890625 3.4382247924804688 C5.231259822845459 3.4382247924804688 7.9019575119018555 3.4382247924804688 10.572084426879883 3.4382247924804688 C10.64750862121582 3.656497001647949 10.722932815551758 3.874770164489746 10.798357009887695 4.093042850494385 C9.916694641113281 4.489590167999268 9.035604476928711 4.886709690093994 7.723682880401611 5.477531433105469 C9.04988956451416 9.548717498779297 10.399523735046387 13.690185546875 11.748586654663086 17.832225799560547 C11.963430404663086 17.829938888549805 12.178275108337402 17.828224182128906 12.393118858337402 17.825939178466797 C13.770179748535156 13.753610610961914 15.146669387817383 9.681282043457031 16.562585830688477 5.493530750274658 C15.384939193725586 4.968418598175049 14.49013614654541 4.56958532333374 13.595332145690918 4.1701812744140625 C13.651901245117188 3.950765609741211 13.707897186279297 3.731350898742676 13.76446533203125 3.5113630294799805 C16.135751724243164 3.5113630294799805 18.50704002380371 3.5113630294799805 21.038888931274414 3.5113630294799805 C20.915470123291016 3.8793411254882812 20.844043731689453 4.475877285003662 20.689197540283203 4.498732566833496 C18.373905181884766 4.835284233093262 17.86936378479004 6.620320796966553 17.26597023010254 8.459639549255371 C15.790629386901855 12.959942817687988 14.210153579711914 17.425392150878906 12.714813232421875 21.778274536132812 C11.100624084472656 22.54680061340332 10.478375434875488 21.79827308654785 10.072684288024902 20.530349731445312 C9.002462387084961 17.185976028442383 8.017377853393555 13.807319641113281 6.7694525718688965 10.529800415039062 C5.8232245445251465 8.044236183166504 6.07292366027832 4.689006805419922 1.839461326599121 4.285602569580078 C2.080018997192383 4.0027618408203125 2.320004463195801 3.7204933166503906 2.5605621337890625 3.4382247924804688"></path></svg>