<svg xmlns="http://www.w3.org/2000/svg" viewBox="0.0 0.0 24.0 24.0" height="200px" width="200px"><path fill="none" stroke="black" stroke-width=".3" stroke-opacity="1.0"  filling="0" d="M2.2749128341674805 8.041694641113281 C5.00625467300415 8.041694641113281 7.303404808044434 8.041694641113281 9.744544982910156 8.041694641113281 C10.448923110961914 9.404308319091797 11.15608024597168 10.77081298828125 12.017789840698242 12.438081741333008 C12.787769317626953 10.815288543701172 13.430994033813477 9.45879077911377 14.093119621276855 8.063377380371094 C16.479778289794922 8.063377380371094 18.77414894104004 8.063377380371094 21.474910736083984 8.063377380371094 C20.051700592041016 10.45948600769043 18.877552032470703 12.739957809448242 17.414871215820312 14.81806755065918 C15.680331230163574 17.281444549560547 14.896453857421875 19.886587142944336 15.228907585144043 22.874774932861328 C15.340097427368164 23.87435531616211 15.246698379516602 24.89673614501953 15.246698379516602 26.111465454101562 C13.063515663146973 26.111465454101562 11.002083778381348 26.111465454101562 8.605419158935547 26.111465454101562 C8.605419158935547 24.24517059326172 8.543709754943848 22.418344497680664 8.624321937561035 20.597637176513672 C8.692702293395996 19.0571231842041 8.317997932434082 17.747879028320312 7.452396869659424 16.443084716796875 C5.7245306968688965 13.837386131286621 4.159554958343506 11.123279571533203 2.2749128341674805 8.041694641113281"></path></svg>