<svg xmlns="http://www.w3.org/2000/svg" viewBox="0.0 0.0 24.0 24.0" height="200px" width="200px"><path fill="none" stroke="black" stroke-width=".3" stroke-opacity="1.0"  filling="0" d="M8.42719554901123 7.028243541717529 L8.42719554901123 7.028243541717529 C9.751886367797852 7.028243541717529 11.076579093933105 7.028243541717529 12.40127182006836 7.028243541717529 C13.725963592529297 7.028243541717529 15.050655364990234 7.028243541717529 16.375347137451172 7.028243541717529 L16.375347137451172 7.028243541717529 C15.597845077514648 8.816927909851074 14.528973579406738 10.464508056640625 13.396280288696289 12.0767822265625 C12.263586044311523 13.689056396484375 11.067070007324219 15.266023635864258 10.03427505493164 16.913480758666992 L10.03427505493164 16.913480758666992 C11.311094284057617 17.014986038208008 13.26440715789795 17.427471160888672 14.40828800201416 16.657276153564453 C15.684146881103516 15.798219680786133 14.856630325317383 14.251482009887695 15.714997291564941 13.218463897705078 L15.714997291564941 13.218463897705078 C16.36711883544922 14.864633560180664 16.228418350219727 16.06456184387207 16.03168487548828 17.827911376953125 L16.03168487548828 17.827911376953125 C14.664533615112305 17.828052520751953 13.297384262084961 17.828134536743164 11.930235862731934 17.828182220458984 C10.56308650970459 17.828227996826172 9.195937156677246 17.8282413482666 7.828786373138428 17.828243255615234 L7.828786373138428 17.828243255615234 C8.756962776184082 16.091171264648438 9.834909439086914 14.427899360656738 10.96219539642334 12.794877052307129 C12.089481353759766 11.16185474395752 13.266105651855469 9.55908203125 14.391637802124023 7.94300651550293 L14.391637802124023 7.94300651550293 C13.237642288208008 7.928972244262695 10.65601634979248 7.395304203033447 9.74593448638916 8.461119651794434 C9.106420516967773 9.210067749023438 9.097742080688477 10.321463584899902 8.80482292175293 11.26172924041748 L8.80482292175293 11.26172924041748 C8.4080228805542 9.776611328125 8.390510559082031 8.560397148132324 8.42719554901123 7.028243541717529 L8.42719554901123 7.028243541717529"></path></svg>