<svg xmlns="http://www.w3.org/2000/svg" viewBox="0.0 0.0 24.0 24.0" height="200px" width="200px"><path fill="none" stroke="black" stroke-width=".3" stroke-opacity="1.0"  filling="0" d="M16.741506576538086 13.019335746765137 L16.741506576538086 13.019335746765137 C16.741506576538086 14.183213233947754 16.741506576538086 15.347089767456055 16.741506576538086 16.510967254638672 L16.741506576538086 16.510967254638672 C15.742826461791992 16.30940055847168 12.141387939453125 16.03656578063965 13.875248908996582 18.57317352294922 C14.048975944519043 18.827333450317383 16.75929832458496 19.213699340820312 16.84391975402832 19.227745056152344 L16.84391975402832 19.227745056152344 C16.839683532714844 19.285884857177734 16.610509872436523 22.431468963623047 16.61033058166504 22.433929443359375 L16.61033058166504 22.433929443359375 C15.386377334594727 22.814903259277344 14.100489616394043 23.098773956298828 12.885723114013672 23.005573272705078 C11.670957565307617 22.912372589111328 10.527313232421875 22.442100524902344 9.587846755981445 21.31479263305664 C8.34330940246582 19.8214168548584 8.125901222229004 17.755239486694336 8.710746765136719 15.979744911193848 C9.295591354370117 14.20425033569336 10.682689666748047 12.719436645507812 12.647163391113281 12.388788223266602 C14.374983787536621 12.09797191619873 15.087409019470215 12.529325485229492 16.741506576538086 13.019335746765137 L16.741506576538086 13.019335746765137"></path></svg>