<svg xmlns="http://www.w3.org/2000/svg" viewBox="0.0 0.0 24.0 24.0" height="200px" width="200px"><path fill="none" stroke="black" stroke-width=".3" stroke-opacity="1.0"  filling="0" d="M16.426372528076172 7.989999771118164 C19.5741024017334 9.951482772827148 20.527240753173828 12.978824615478516 20.086328506469727 16.887224197387695 C16.121185302734375 16.887224197387695 12.209718704223633 16.887224197387695 8.071279525756836 16.887224197387695 C7.676375389099121 19.599409103393555 7.983097076416016 21.972667694091797 10.184591293334961 23.104469299316406 C11.543367385864258 23.803028106689453 13.761731147766113 23.818363189697266 15.155012130737305 23.180383682250977 C16.54062843322754 22.54700469970703 17.377979278564453 20.71280860900879 18.455337524414062 19.405406951904297 C19.71366310119629 22.652053833007812 18.145549774169922 24.19793128967285 16.141122817993164 25.324365615844727 C13.051671981811523 27.059642791748047 8.67475414276123 26.058197021484375 6.424952983856201 23.279300689697266 C3.666759490966797 19.872390747070312 3.7810134887695312 13.00949764251709 6.651926517486572 9.668533325195312 C8.972274780273438 6.967850208282471 13.412836074829102 6.112097263336182 16.426372528076172 7.989999771118164"></path>
<path fill="none" stroke="black" stroke-width=".3" stroke-opacity="1.0"  filling="0" d="M12.602323532104492 9.007548332214355 C15.233227729797363 9.003714561462402 16.263044357299805 10.246703147888184 16.934764862060547 14.644323348999023 C13.81694221496582 14.644323348999023 10.97286605834961 14.644323348999023 8.1027193069458 14.644323348999023 C8.577370643615723 10.474444389343262 9.792755126953125 9.0121488571167 12.602323532104492 9.007548332214355"></path></svg>