<svg xmlns="http://www.w3.org/2000/svg" viewBox="0.0 0.0 24.0 24.0" height="200px" width="200px"><path fill="none" stroke="black" stroke-width=".3" stroke-opacity="1.0"  filling="0" d="M17.47525405883789 5.341375827789307 C19.047119140625 4.838289737701416 20.65475845336914 6.021100997924805 20.512775421142578 7.594083309173584 C20.4619083404541 8.156421661376953 20.041553497314453 8.771305084228516 19.61336898803711 9.174891471862793 C19.41996192932129 9.357121467590332 18.517202377319336 9.202840805053711 18.421615600585938 8.987072944641113 C18.20528793334961 8.49740219116211 18.26062774658203 7.874693393707275 18.267894744873047 7.306765079498291 C18.270689010620117 7.071432590484619 18.433914184570312 6.838335990905762 18.728496551513672 6.074203968048096 C17.652450561523438 6.630394458770752 16.992849349975586 6.9724931716918945 16.322628021240234 7.319063663482666 C16.479143142700195 8.079282760620117 16.630069732666016 8.607522964477539 16.692115783691406 9.146384239196777 C17.134830474853516 13.00281810760498 14.740701675415039 15.388565063476562 10.878676414489746 14.949762344360352 C10.236403465270996 14.876534461975098 9.568975448608398 14.609899520874023 8.96806812286377 14.723932266235352 C8.547711372375488 14.803308486938477 7.956864356994629 15.36005687713623 7.930592060089111 15.737930297851562 C7.905996799468994 16.090089797973633 8.498520851135254 16.77652359008789 8.868568420410156 16.81341552734375 C10.34205150604248 16.958751678466797 11.835100173950195 16.893909454345703 13.319761276245117 16.930801391601562 C16.505414962768555 17.0107364654541 18.161685943603516 18.162803649902344 18.220378875732422 20.318809509277344 C18.28019142150879 22.525676727294922 16.701618194580078 24.005870819091797 13.69763469696045 24.256853103637695 C11.954721450805664 24.402748107910156 10.168766021728516 24.348526000976562 8.430883407592773 24.140583038330078 C7.018329620361328 23.971210479736328 5.524163722991943 23.298751831054688 5.381622314453125 21.735271453857422 C5.29050874710083 20.74419593811035 6.085384845733643 19.671504974365234 6.587912082672119 18.360126495361328 C4.947851657867432 15.6948881149292 5.586770534515381 15.487504959106445 7.458809852600098 13.716641426086426 C5.97861909866333 11.3118896484375 5.262559413909912 8.720438003540039 7.73494815826416 6.5208330154418945 C10.093304634094238 4.422405242919922 12.71438217163086 4.973564147949219 15.337138175964355 6.45934534072876 C16.029720306396484 6.088179111480713 16.711122512817383 5.586211204528809 17.47525405883789 5.341375827789307"></path>
<path fill="none" stroke="black" stroke-width=".3" stroke-opacity="1.0"  filling="0" d="M11.401327133178711 6.551577091217041 C13.019587516784668 6.50015115737915 14.139233589172363 7.881401538848877 14.1951322555542 9.998275756835938 C14.250472068786621 12.092791557312012 13.203493118286133 13.500872611999512 11.55616569519043 13.549505233764648 C9.832258224487305 13.600372314453125 8.830557823181152 12.358308792114258 8.82552719116211 10.163176536560059 C8.820496559143066 7.947921276092529 9.77971363067627 6.6035637855529785 11.401327133178711 6.551577091217041"></path>
<path fill="none" stroke="black" stroke-width=".3" stroke-opacity="1.0"  filling="0" d="M11.712122917175293 19.004077911376953 C13.12355899810791 19.175125122070312 14.346616744995117 19.205310821533203 15.493093490600586 19.517223358154297 C15.979410171508789 19.6502628326416 16.59317398071289 20.355701446533203 16.623361587524414 20.834192276000977 C16.654104232788086 21.317153930664062 16.143192291259766 22.122650146484375 15.681472778320312 22.302085876464844 C13.099522590637207 23.305461883544922 10.424222946166992 23.4614200592041 7.7975544929504395 22.49102210998535 C7.314591407775879 22.312705993652344 6.764551639556885 21.549692153930664 6.762874126434326 21.05499267578125 C6.761197090148926 20.58264923095703 7.352602958679199 19.823549270629883 7.8260626792907715 19.688274383544922 C9.141912460327148 19.312076568603516 10.531548500061035 19.194690704345703 11.712122917175293 19.004077911376953"></path></svg>