<svg xmlns="http://www.w3.org/2000/svg" viewBox="0.0 0.0 24.0 24.0" height="200px" width="200px"><path fill="none" stroke="black" stroke-width=".3" stroke-opacity="1.0"  filling="0" d="M16.520936965942383 10.98009967803955 L16.520936965942383 10.98009967803955 C16.520936965942383 12.747425079345703 16.520936965942383 14.514750480651855 16.520936965942383 16.282075881958008 C16.520936965942383 18.049402236938477 16.520936965942383 19.816728591918945 16.520936965942383 21.584054946899414 L16.520936965942383 21.584054946899414 C15.373424530029297 21.584054946899414 14.225913047790527 21.584054946899414 13.078400611877441 21.584054946899414 L13.078400611877441 21.584054946899414 C13.078400611877441 20.278034210205078 13.078400611877441 18.972013473510742 13.078400611877441 17.665992736816406 L13.078400611877441 17.665992736816406 C11.793702125549316 18.100000381469727 10.868897438049316 18.749868392944336 9.517216682434082 18.086782455444336 C8.333395004272461 17.50604248046875 7.751936435699463 15.978096008300781 7.7777862548828125 14.467883110046387 C7.803636074066162 12.957671165466309 8.43679428100586 11.465194702148438 9.682208061218262 10.955397605895996 C11.015527725219727 10.40961742401123 11.785009384155273 11.141291618347168 12.92752456665039 11.699346542358398 L12.92752456665039 11.699346542358398 C14.039667129516602 11.194023132324219 15.299695014953613 10.952129364013672 16.520936965942383 10.98009967803955 L16.520936965942383 10.98009967803955"></path>
<path fill="none" stroke="black" stroke-width=".3" stroke-opacity="1.0"  filling="0" d="M12.231489181518555 13.533379554748535 L12.231489181518555 13.533379554748535 C12.664250373840332 13.93927001953125 13.097010612487793 14.345159530639648 13.52977180480957 14.751049995422363 L13.52977180480957 14.751049995422363 C13.084568977355957 15.093055725097656 12.754292488098145 15.814851760864258 12.194162368774414 15.777067184448242 C9.891798973083496 15.621755599975586 12.144439697265625 13.637242317199707 12.231489181518555 13.533379554748535 L12.231489181518555 13.533379554748535"></path></svg>