<svg xmlns="http://www.w3.org/2000/svg" viewBox="0.0 0.0 24.0 24.0" height="200px" width="200px"><path fill="none" stroke="black" stroke-width=".3" stroke-opacity="1.0"  filling="0" d="M14.684285163879395 10.5853910446167 L14.684285163879395 10.5853910446167 C15.583664894104004 10.5853910446167 16.483043670654297 10.5853910446167 17.382423400878906 10.5853910446167 L17.382423400878906 10.5853910446167 C16.616939544677734 11.67744255065918 16.066362380981445 12.821784973144531 15.58775520324707 14.001404762268066 C15.109148025512695 15.181025505065918 14.702512741088867 16.395923614501953 14.22491455078125 17.62908935546875 L14.22491455078125 17.62908935546875 C14.049149513244629 17.546369552612305 13.873384475708008 17.463651657104492 13.697619438171387 17.380931854248047 L13.697619438171387 17.380931854248047 C13.149120330810547 16.016799926757812 12.60058307647705 14.652688026428223 12.051984786987305 13.288593292236328 L12.051984786987305 13.288593292236328 C11.466790199279785 14.755999565124512 10.88185977935791 16.223506927490234 10.297018051147461 17.691055297851562 L10.297018051147461 17.691055297851562 C9.56676197052002 16.523658752441406 9.08584976196289 15.284270286560059 8.563558578491211 14.070601463317871 C8.041268348693848 12.856931686401367 7.477598190307617 11.668981552124023 6.581827640533447 10.60445785522461 L6.581827640533447 10.60445785522461 C7.706821918487549 10.60445785522461 8.831815719604492 10.60445785522461 9.956809997558594 10.60445785522461 L9.956809997558594 10.60445785522461 C9.585618019104004 10.927984237670898 9.21442699432373 11.251509666442871 8.84323501586914 11.57503604888916 L8.84323501586914 11.57503604888916 C9.328449249267578 12.937056541442871 9.813636779785156 14.29908275604248 10.298805236816406 15.66111946105957 L10.298805236816406 15.66111946105957 C11.024763107299805 13.66733455657959 12.23733901977539 12.286334037780762 10.476655960083008 10.654803276062012 L10.476655960083008 10.654803276062012 C11.637471199035645 10.51368522644043 12.81963062286377 10.511622428894043 13.984502792358398 10.61398983001709 L13.984502792358398 10.61398983001709 C13.539729118347168 10.920138359069824 13.094954490661621 11.226286888122559 12.65018081665039 11.532435417175293 L12.65018081665039 11.532435417175293 C13.140957832336426 12.913122177124023 13.63169002532959 14.293827056884766 14.122432708740234 15.67452621459961 L14.122432708740234 15.67452621459961 C14.63516902923584 14.303773880004883 15.147891998291016 12.933016777038574 15.660524368286133 11.562226295471191 L15.660524368286133 11.562226295471191 C15.312172889709473 11.312183380126953 14.963820457458496 11.062141418457031 14.615468978881836 10.812098503112793 L14.615468978881836 10.812098503112793 C14.638407707214355 10.736529350280762 14.661346435546875 10.66096019744873 14.684285163879395 10.5853910446167 L14.684285163879395 10.5853910446167"></path></svg>