<svg xmlns="http://www.w3.org/2000/svg" viewBox="0.0 0.0 24.0 24.0" height="200px" width="200px"><path fill="none" stroke="black" stroke-width=".3" stroke-opacity="1.0"  filling="0" d="M11.766838073730469 8.243782043457031 L11.766838073730469 8.243782043457031 C14.24530029296875 8.014301300048828 15.125904083251953 8.874473571777344 14.972320556640625 11.433852195739746 L14.972320556640625 11.433852195739746 C14.434836387634277 11.295425415039062 13.9140043258667 10.98719310760498 13.359868049621582 11.018571853637695 C11.672250747680664 11.114136695861816 12.001381874084473 14.697245597839355 12.565377235412598 15.60187816619873 C13.171211242675781 16.573619842529297 14.39199447631836 15.748318672180176 15.009239196777344 15.542590141296387 L15.009239196777344 15.542590141296387 C15.086424827575684 17.678604125976562 13.9755220413208 19.746868133544922 11.474355697631836 18.42189598083496 C10.297189712524414 17.798301696777344 9.963760375976562 16.24372100830078 9.78820514678955 15.084527015686035 C9.592035293579102 13.789214134216309 9.520322799682617 12.468003273010254 9.780837059020996 11.276132583618164 C10.041352272033691 10.08426284790039 10.634095191955566 9.021732330322266 11.766838073730469 8.243782043457031 L11.766838073730469 8.243782043457031"></path></svg>