<svg xmlns="http://www.w3.org/2000/svg" viewBox="0.0 0.0 24.0 24.0" height="200px" width="200px"><path fill="none" stroke="black" stroke-width=".3" stroke-opacity="1.0"  filling="0" d="M9.168148040771484 7.032378673553467 L9.168148040771484 7.032378673553467 C11.06400203704834 7.0129828453063965 14.005023956298828 6.524271488189697 15.736288070678711 7.464145183563232 C18.222240447998047 8.813725471496582 15.619105339050293 11.29743480682373 14.250884056091309 12.064170837402344 L14.250884056091309 12.064170837402344 C14.71746826171875 12.558356285095215 15.360820770263672 12.931968688964844 15.650636672973633 13.54672622680664 C16.267078399658203 14.854320526123047 15.570323944091797 16.03082847595215 14.550675392150879 16.823604583740234 C13.529399871826172 17.617645263671875 12.002939224243164 17.81678581237793 10.429919242858887 17.81618309020996 C8.85689926147461 17.815580368041992 7.2373199462890625 17.615236282348633 6.029808044433594 17.610309600830078 L6.029808044433594 17.610309600830078 C5.991164207458496 17.478702545166016 5.952520370483398 17.347095489501953 5.913876533508301 17.21548843383789 L5.913876533508301 17.21548843383789 C6.490381717681885 17.01007652282715 7.066886901855469 16.804662704467773 7.643392086029053 16.59925079345703 L7.643392086029053 16.59925079345703 C7.944143295288086 15.224344253540039 8.244842529296875 13.849425315856934 8.545541763305664 12.474506378173828 C8.846240997314453 11.099587440490723 9.146940231323242 9.724668502807617 9.447691917419434 8.349761962890625 L9.447691917419434 8.349761962890625 C8.895570755004883 8.002944946289062 8.343449592590332 7.656127452850342 7.791328430175781 7.309309959411621 L7.791328430175781 7.309309959411621 C8.25026798248291 7.216999530792236 8.709208488464355 7.124689102172852 9.168148040771484 7.032378673553467 L9.168148040771484 7.032378673553467"></path>
<path fill="none" stroke="black" stroke-width=".3" stroke-opacity="1.0"  filling="0" d="M11.119077682495117 7.963429927825928 L11.119077682495117 7.963429927825928 C12.492568016052246 7.94023323059082 15.585511207580566 7.496789932250977 14.963460922241211 9.929708480834961 C14.850441932678223 10.371739387512207 14.576991081237793 10.790609359741211 14.227249145507812 11.083602905273438 C13.219841957092285 11.9275484085083 11.514496803283691 11.63377571105957 10.337922096252441 11.613504409790039 L10.337922096252441 11.613504409790039 C10.598321914672852 10.39681625366211 10.858707427978516 9.180124282836914 11.119077682495117 7.963429927825928 L11.119077682495117 7.963429927825928"></path>
<path fill="none" stroke="black" stroke-width=".3" stroke-opacity="1.0"  filling="0" d="M10.127937316894531 12.597132682800293 L10.127937316894531 12.597132682800293 C11.612711906433105 12.571769714355469 14.671391487121582 12.123207092285156 14.219207763671875 14.63852310180664 C14.12081241607666 15.185857772827148 13.873513221740723 15.744598388671875 13.473484992980957 16.13090705871582 C12.386317253112793 17.1807861328125 10.530606269836426 16.85506820678711 9.20341682434082 16.83372688293457 L9.20341682434082 16.83372688293457 C9.511465072631836 15.421501159667969 9.819623947143555 14.00930118560791 10.127937316894531 12.597132682800293 L10.127937316894531 12.597132682800293"></path></svg>