<svg xmlns="http://www.w3.org/2000/svg" viewBox="0.0 0.0 24.0 24.0" height="200px" width="200px"><path fill="none" stroke="black" stroke-width=".3" stroke-opacity="1.0"  filling="0" d="M20.481914520263672 3.022496223449707 C20.350631713867188 5.9276580810546875 19.84246253967285 8.088342666625977 19.00718116760254 10.162052154541016 C18.740787506103516 10.141265869140625 18.474395751953125 10.120478630065918 18.207454681396484 10.099692344665527 C18.012718200683594 9.36396598815918 17.81907844543457 8.627693176269531 17.62270164489746 7.891966342926025 C16.8175048828125 4.876308441162109 14.251487731933594 3.5908384323120117 11.561300277709961 5.160205841064453 C10.222223281860352 5.941334247589111 9.047248840332031 7.242120742797852 8.193915367126465 8.56369400024414 C6.788650035858154 10.740240097045898 6.332992076873779 13.2734375 6.4358296394348145 15.873916625976562 C6.5348381996154785 18.39288902282715 7.460377216339111 19.803625106811523 9.302154541015625 20.307968139648438 C11.344684600830078 20.867557525634766 14.226873397827148 19.752756118774414 15.172651290893555 17.827831268310547 C15.704890251159668 16.74530029296875 15.861335754394531 15.478428840637207 16.177505493164062 14.330257415771484 C15.081300735473633 13.86584758758545 14.3143949508667 13.541471481323242 13.385026931762695 13.147624969482422 C15.0528564453125 12.101197242736816 17.44656753540039 11.94311237335205 21.830293655395508 12.479726791381836 C21.574295043945312 12.898187637329102 21.36588478088379 13.546394348144531 21.14598846435547 13.550222396850586 C18.914737701416016 13.589608192443848 18.646703720092773 15.212034225463867 18.31412124633789 16.848684310913086 C18.007797241210938 18.354598999023438 17.63637924194336 19.84738540649414 17.284652709960938 21.344003677368164 C17.26824188232422 21.413471221923828 17.16048240661621 21.46160888671875 16.788516998291016 21.79309844970703 C16.210329055786133 21.386123657226562 15.553918838500977 20.923898696899414 14.852105140686035 20.429405212402344 C13.810052871704102 20.865371704101562 12.676652908325195 21.473094940185547 11.468857765197754 21.819353103637695 C7.6780877113342285 22.905712127685547 4.433780670166016 20.984619140625 3.582087516784668 17.244720458984375 C2.542771339416504 12.682123184204102 5.5753865242004395 6.073164463043213 9.781335830688477 3.9835920333862305 C12.680479049682617 2.5427684783935547 15.548993110656738 2.2725467681884766 18.025846481323242 5.051350116729736 C18.861675262451172 4.361025810241699 19.45025634765625 3.874734878540039 20.481914520263672 3.022496223449707"></path></svg>