<svg xmlns="http://www.w3.org/2000/svg" viewBox="0.0 0.0 24.0 24.0" height="200px" width="200px"><path fill="none" stroke="black" stroke-width=".3" stroke-opacity="1.0"  filling="0" d="M11.099836349487305 5.355496883392334 C11.16695499420166 5.506171226501465 11.234073638916016 5.656845569610596 11.301191329956055 5.80706262588501 C10.95875072479248 6.073254108428955 10.616765975952148 6.565456390380859 10.273411750793457 6.56636905670166 C8.86985969543457 6.570022106170654 8.477648735046387 7.393251419067383 8.295013427734375 8.572162628173828 C8.12151050567627 9.691717147827148 7.83522891998291 10.793465614318848 7.5649285316467285 12.059584617614746 C9.914532661437988 12.059584617614746 12.154556274414062 12.059584617614746 14.61739444732666 12.059584617614746 C14.97170639038086 10.427281379699707 15.333781242370605 8.760276794433594 15.6922025680542 7.107882976531982 C14.906414985656738 6.728914737701416 14.28271484375 6.4284796714782715 13.65855884552002 6.12758731842041 C13.680475234985352 5.930341720581055 13.702847480773926 5.733551502227783 13.724763870239258 5.536304950714111 C15.852009773254395 5.172405242919922 18.010303497314453 5.4070916175842285 20.155811309814453 5.392480373382568 C20.220191955566406 5.585160732269287 20.28502655029297 5.777840614318848 20.34940528869629 5.970520973205566 C19.65767478942871 6.3198113441467285 18.9659423828125 6.668644905090332 17.939531326293945 7.186872959136963 C17.14872169494629 10.80853271484375 16.2962703704834 14.710538864135742 15.4205322265625 18.71847152709961 C16.17938232421875 19.013885498046875 16.762903213500977 19.24081039428711 17.607135772705078 19.56955337524414 C17.193466186523438 19.9471492767334 16.962888717651367 20.34255599975586 16.722265243530273 20.348949432373047 C14.75574016571045 20.39963150024414 12.787843704223633 20.37725830078125 10.789812088012695 20.37725830078125 C11.126775741577148 19.290119171142578 11.126775741577148 19.290119171142578 13.136220932006836 18.853164672851562 C13.522037506103516 17.1491756439209 13.9019193649292 15.470300674438477 14.323806762695312 13.606963157653809 C11.90343189239502 13.606963157653809 9.662038803100586 13.606963157653809 7.223856449127197 13.606963157653809 C6.873652935028076 15.305015563964844 6.528472423553467 16.980239868164062 6.16731071472168 18.730798721313477 C6.973189353942871 19.0467586517334 7.616522312164307 19.299251556396484 8.370349884033203 19.59466552734375 C7.09464168548584 20.535694122314453 4.639109134674072 20.702804565429688 1.1494035720825195 20.101022720336914 C1.7566661834716797 19.666349411010742 2.0904321670532227 19.22985076904297 2.4538774490356445 19.204280853271484 C3.4752655029296875 19.131229400634766 3.954226493835449 18.58697509765625 4.148733615875244 17.67608070373535 C4.892059326171875 14.195962905883789 5.628536701202393 10.714475631713867 6.378711223602295 7.1772847175598145 C5.697937488555908 6.7686381340026855 5.1107659339904785 6.4156951904296875 4.524049282073975 6.063209056854248 C4.549160480499268 5.891531467437744 4.574273586273193 5.720310688018799 4.599385738372803 5.548633575439453 C6.7485480308532715 5.145922660827637 8.934237480163574 5.444075107574463 11.099836349487305 5.355496883392334"></path></svg>