<svg xmlns="http://www.w3.org/2000/svg" viewBox="0.0 0.0 24.0 24.0" height="200px" width="200px"><path fill="none" stroke="black" stroke-width=".3" stroke-opacity="1.0"  filling="0" d="M15.865928649902344 8.470073699951172 C18.117931365966797 8.470073699951172 20.02405548095703 8.470073699951172 22.096786499023438 8.470073699951172 C21.403512954711914 14.024370193481445 20.72998809814453 19.419147491455078 20.043298721313477 24.918750762939453 C18.05006980895996 24.918750762939453 16.218387603759766 24.918750762939453 14.070707321166992 24.918750762939453 C12.73176097869873 22.258075714111328 11.308244705200195 19.42978286743164 9.750531196594238 16.33460807800293 C9.502896308898926 19.33103370666504 9.27602481842041 22.08184814453125 9.041050910949707 24.926347732543945 C6.934388160705566 24.926347732543945 5.032314777374268 24.926347732543945 2.896786689758301 24.926347732543945 C3.586517333984375 19.390789031982422 4.258522033691406 13.994492530822754 4.9467315673828125 8.4705810546875 C6.95008659362793 8.4705810546875 8.863301277160645 8.4705810546875 11.134039878845215 8.4705810546875 C12.467414855957031 11.280645370483398 13.889918327331543 14.280107498168945 15.3266019821167 17.30792808532715 C15.506884574890137 14.354042053222656 15.686152458190918 11.415349960327148 15.865928649902344 8.470073699951172"></path></svg>