<svg xmlns="http://www.w3.org/2000/svg" viewBox="0.0 0.0 24.0 24.0" height="200px" width="200px"><path fill="none" stroke="black" stroke-width=".3" stroke-opacity="1.0"  filling="0" d="M16.817062377929688 12.636478424072266 L16.817062377929688 12.636478424072266 C16.783788681030273 12.876405715942383 16.355548858642578 15.96532917022705 16.326059341430664 16.1780948638916 L16.326059341430664 16.1780948638916 C15.811968803405762 16.04642105102539 15.313166618347168 15.745856285095215 14.783787727355957 15.783071517944336 C13.655054092407227 15.862420082092285 12.495138168334961 17.406286239624023 13.43358039855957 18.431812286376953 C13.823295593261719 18.857690811157227 15.472928047180176 19.087799072265625 15.888181686401367 19.171016693115234 L15.888181686401367 19.171016693115234 C15.78227424621582 19.85369873046875 15.581572532653809 21.467761993408203 15.261903762817383 22.0417423248291 C14.316374778747559 23.739484786987305 11.002933502197266 22.558204650878906 9.953754425048828 21.635786056518555 C8.853738784790039 20.668670654296875 8.328313827514648 19.220535278320312 8.317436218261719 17.753799438476562 C8.306560516357422 16.287063598632812 8.810232162475586 14.801729202270508 9.76840877532959 13.76021671295166 C10.610426902770996 12.844966888427734 11.777015686035156 12.286136627197266 12.991291999816895 12.078036308288574 C14.653579711914062 11.793156623840332 15.235244750976562 12.169729232788086 16.817062377929688 12.636478424072266 L16.817062377929688 12.636478424072266"></path></svg>