<svg xmlns="http://www.w3.org/2000/svg" viewBox="0.0 0.0 24.0 24.0" height="200px" width="200px"><path fill="none" stroke="black" stroke-width=".3" stroke-opacity="1.0"  filling="0" d="M13.622663497924805 8.755998611450195 L13.622663497924805 8.755998611450195 C13.633342742919922 8.755998611450195 17.02174949645996 8.755998611450195 17.023353576660156 8.755998611450195 L17.023353576660156 8.755998611450195 C16.805530548095703 10.493024826049805 16.587738037109375 12.23005485534668 16.369951248168945 13.967085838317871 C16.152164459228516 15.704116821289062 15.934381484985352 17.44114875793457 15.716573715209961 19.178176879882812 L15.716573715209961 19.178176879882812 C14.509291648864746 19.244802474975586 13.282587051391602 19.146638870239258 12.10048770904541 18.892454147338867 L12.10048770904541 18.892454147338867 C11.654459953308105 19.105260848999023 11.254006385803223 19.480316162109375 10.762405395507812 19.53087615966797 C8.762993812561035 19.736509323120117 7.819924354553223 18.108186721801758 7.791778087615967 16.3397216796875 C7.763631820678711 14.571256637573242 8.650408744812012 12.662651062011719 10.310688972473145 12.307716369628906 C11.564517974853516 12.0396728515625 12.110729217529297 12.683576583862305 13.103599548339844 13.300749778747559 L13.103599548339844 13.300749778747559 C13.276619911193848 11.785832405090332 13.449609756469727 10.270912170410156 13.622663497924805 8.755998611450195 L13.622663497924805 8.755998611450195"></path>
<path fill="none" stroke="black" stroke-width=".3" stroke-opacity="1.0"  filling="0" d="M12.09489631652832 14.918557167053223 L12.09489631652832 14.918557167053223 C12.435053825378418 15.201826095581055 12.775212287902832 15.48509407043457 13.11536979675293 15.768362998962402 L13.11536979675293 15.768362998962402 C12.740097999572754 16.108421325683594 12.495521545410156 16.766939163208008 11.989554405212402 16.78853988647461 C11.583768844604492 16.805864334106445 11.19017505645752 16.255088806152344 11.213018417358398 15.849576950073242 C11.237060546875 15.422792434692383 11.800936698913574 15.228897094726562 12.09489631652832 14.918557167053223 L12.09489631652832 14.918557167053223"></path></svg>