<svg xmlns="http://www.w3.org/2000/svg" viewBox="0.0 0.0 24.0 24.0" height="200px" width="200px"><path fill="none" stroke="black" stroke-width=".3" stroke-opacity="1.0"  filling="0" d="M14.901122093200684 9.730392456054688 L14.901122093200684 9.730392456054688 C16.394248962402344 11.528703689575195 16.202865600585938 12.531272888183594 15.859175682067871 14.831241607666016 L15.859175682067871 14.831241607666016 C13.625007629394531 14.831241607666016 11.390848159790039 14.831241607666016 9.156681060791016 14.831241607666016 L9.156681060791016 14.831241607666016 C9.038326263427734 15.5806245803833 8.697916984558105 16.327838897705078 8.801616668701172 17.079389572143555 C9.159831047058105 19.675504684448242 12.16706371307373 18.56651496887207 13.381004333496094 17.657955169677734 C13.898811340332031 17.270408630371094 14.363081932067871 16.300518035888672 14.964963912963867 16.537277221679688 L14.964963912963867 16.537277221679688 C14.406710624694824 17.85932159423828 14.412796974182129 18.38560676574707 13.169044494628906 19.231401443481445 C11.28391170501709 20.51335906982422 8.08247184753418 20.226242065429688 7.21047306060791 17.818086624145508 C6.326549530029297 15.376999855041504 7.089838027954102 12.982830047607422 8.653793334960938 11.385054588317871 C10.21774959564209 9.78727912902832 12.58237361907959 8.985898971557617 14.901122093200684 9.730392456054688 L14.901122093200684 9.730392456054688"></path>
<path fill="none" stroke="black" stroke-width=".3" stroke-opacity="1.0"  filling="0" d="M13.068266868591309 10.348963737487793 L13.068266868591309 10.348963737487793 C13.478940963745117 10.657872200012207 14.129199028015137 10.791122436523438 14.300289154052734 11.275690078735352 C14.549331665039062 11.981037139892578 14.224621772766113 12.769818305969238 14.186787605285645 13.51688289642334 L14.186787605285645 13.51688289642334 C12.652864456176758 13.51688289642334 11.11894416809082 13.51688289642334 9.58502197265625 13.51688289642334 L9.58502197265625 13.51688289642334 C10.36925220489502 11.255094528198242 10.642833709716797 10.544323921203613 13.068266868591309 10.348963737487793 L13.068266868591309 10.348963737487793"></path></svg>