<svg xmlns="http://www.w3.org/2000/svg" viewBox="0.0 0.0 24.0 24.0" height="200px" width="200px"><path fill="none" stroke="black" stroke-width=".3" stroke-opacity="1.0"  filling="0" d="M5.1227569580078125 3.268927574157715 C7.256809711456299 3.268927574157715 8.717385292053223 3.268927574157715 10.411087036132812 3.268927574157715 C9.589845657348633 7.20618200302124 8.778020858764648 11.097517013549805 7.817844867706299 15.700006484985352 C10.20504093170166 13.951555252075195 12.095958709716797 12.566922187805176 14.169374465942383 11.048654556274414 C13.188005447387695 10.474078178405762 12.512762069702148 10.079057693481445 11.836928367614746 9.684038162231445 C11.868719100952148 9.462095260620117 11.901098251342773 9.240155220031738 11.932887077331543 9.018213272094727 C14.405444145202637 8.717385292053223 16.89507484436035 8.911657333374023 19.54189109802246 9.422063827514648 C16.983970642089844 11.004500389099121 14.426640510559082 12.58693790435791 11.445440292358398 14.43075942993164 C13.508848190307617 17.154695510864258 15.3297119140625 19.559551239013672 17.315410614013672 22.183406829833984 C15.090697288513184 22.6231689453125 12.659936904907227 22.52250099182129 10.100839614868164 21.655925750732422 C10.875574111938477 21.235004425048828 11.650308609008789 20.8140811920166 12.595179557800293 20.300729751586914 C11.657373428344727 18.820728302001953 10.78432559967041 17.44257164001465 9.933059692382812 16.09914779663086 C7.8690619468688965 16.796762466430664 6.900054931640625 18.094266891479492 6.99307107925415 20.337230682373047 C7.439897060394287 20.696929931640625 8.010939598083496 21.15729522705078 8.539008140563965 21.583515167236328 C8.271147727966309 22.61021614074707 5.380020618438721 22.755626678466797 1.7023849487304688 21.966175079345703 C2.1586313247680664 21.57586669921875 2.435910224914551 21.13963508605957 2.777359962463379 21.08135223388672 C4.087814807891846 20.858821868896484 4.513448238372803 19.93455696105957 4.747164249420166 18.832500457763672 C5.699686527252197 14.339510917663574 6.637492656707764 9.844165802001953 7.6000237464904785 5.2581586837768555 C6.924191951751709 4.715962886810303 6.300164699554443 4.214386463165283 5.1227569580078125 3.268927574157715"></path></svg>