<svg xmlns="http://www.w3.org/2000/svg" viewBox="0.0 0.0 24.0 24.0" height="200px" width="200px"><path fill="none" stroke="black" stroke-width=".3" stroke-opacity="1.0"  filling="0" d="M19.65085792541504 13.275561332702637 C20.949222564697266 13.858844757080078 21.694854736328125 14.892701148986816 21.589054107666016 16.32514190673828 C21.40618133544922 18.80147361755371 21.111572265625 21.270050048828125 20.857555389404297 23.80475616455078 C19.04477310180664 23.80475616455078 17.478710174560547 23.80475616455078 15.769449234008789 23.80475616455078 C15.740717887878418 21.556903839111328 16.593524932861328 19.381107330322266 15.847433090209961 17.19938087463379 C14.233942031860352 19.087411880493164 14.822240829467773 21.485759735107422 14.020967483520508 23.73133087158203 C12.539273262023926 23.73133087158203 10.929430961608887 23.73133087158203 9.15221881866455 23.73133087158203 C9.256196975708008 22.578445434570312 9.353792190551758 21.53911590576172 9.443632125854492 20.499330520629883 C9.532105445861816 19.473682403564453 9.612825393676758 18.44757843017578 9.393467903137207 17.35306739807129 C7.354941368103027 19.047279357910156 8.329511642456055 21.695995330810547 7.326210021972656 23.80384063720703 C5.796631336212158 23.802928924560547 4.22965669631958 23.802928924560547 2.398632049560547 23.802928924560547 C2.8505735397338867 20.26401138305664 3.2719602584838867 16.965431213378906 3.6878738403320312 13.708805084228516 C6.561420917510986 13.127801895141602 7.951905727386475 13.257319450378418 8.987586975097656 14.164851188659668 C11.628549575805664 12.39995288848877 13.387063980102539 12.51396369934082 14.837746620178223 14.925992012023926 C15.240434646606445 14.500044822692871 15.572893142700195 14.031685829162598 16.011608123779297 13.707893371582031 C17.125272750854492 12.88609790802002 18.367542266845703 12.699119567871094 19.65085792541504 13.275561332702637"></path></svg>