<svg xmlns="http://www.w3.org/2000/svg" viewBox="0.0 0.0 24.0 24.0" height="200px" width="200px"><path fill="none" stroke="black" stroke-width=".3" stroke-opacity="1.0"  filling="0" d="M16.303607940673828 12.717503547668457 L16.303607940673828 12.717503547668457 C18.093631744384766 14.161284446716309 17.196762084960938 16.58114242553711 16.982376098632812 18.640174865722656 L16.982376098632812 18.640174865722656 C16.936906814575195 18.640174865722656 14.193095207214355 18.640174865722656 14.120314598083496 18.640174865722656 L14.120314598083496 18.640174865722656 C14.234474182128906 17.40685272216797 14.250883102416992 16.160207748413086 14.164180755615234 14.924651145935059 L14.164180755615234 14.924651145935059 C13.703298568725586 16.10991859436035 13.360885620117188 17.34705352783203 13.136794090270996 18.598873138427734 L13.136794090270996 18.598873138427734 C12.22390365600586 18.598873138427734 11.311013221740723 18.598873138427734 10.398122787475586 18.598873138427734 L10.398122787475586 18.598873138427734 C10.505594253540039 17.40692901611328 10.552905082702637 16.207727432250977 10.533825874328613 15.011099815368652 L10.533825874328613 15.011099815368652 C10.000093460083008 16.163623809814453 9.609185218811035 17.3920841217041 9.370992660522461 18.639659881591797 L9.370992660522461 18.639659881591797 C8.053682327270508 18.63921546936035 7.954377174377441 18.639209747314453 6.599230766296387 18.639148712158203 L6.599230766296387 18.639148712158203 C6.840953826904297 16.746496200561523 7.082696437835693 14.853852272033691 7.324429035186768 12.961202621459961 L7.324429035186768 12.961202621459961 C8.316956520080566 12.863058090209961 9.379803657531738 12.846516609191895 10.305517196655273 13.217728614807129 L10.305517196655273 13.217728614807129 C10.937661170959473 12.99539566040039 11.537446975708008 12.464273452758789 12.201950073242188 12.550728797912598 C12.787994384765625 12.62697696685791 13.131471633911133 13.28082275390625 13.596232414245605 13.645870208740234 L13.596232414245605 13.645870208740234 C14.525045394897461 12.682055473327637 14.974928855895996 12.500079154968262 16.303607940673828 12.717503547668457 L16.303607940673828 12.717503547668457"></path></svg>