<svg xmlns="http://www.w3.org/2000/svg" viewBox="0.0 0.0 24.0 24.0" height="200px" width="200px"><path fill="none" stroke="black" stroke-width=".3" stroke-opacity="1.0"  filling="0" d="M9.689120292663574 6.957174301147461 L9.689120292663574 6.957174301147461 C10.427987098693848 6.957174301147461 11.166852951049805 6.957174301147461 11.905719757080078 6.957174301147461 L11.905719757080078 6.957174301147461 C11.949875831604004 7.845330715179443 11.99402904510498 8.733487129211426 12.038180351257324 9.621644020080566 L12.038180351257324 9.621644020080566 C13.342443466186523 8.68862533569336 14.62960433959961 8.41816520690918 15.14023494720459 10.374639511108398 C15.702141761779785 12.527576446533203 15.182107925415039 15.511106491088867 15.169843673706055 17.731306076049805 L15.169843673706055 17.731306076049805 C14.408848762512207 17.731306076049805 13.647852897644043 17.731306076049805 12.886857986450195 17.731306076049805 L12.886857986450195 17.731306076049805 C12.886857986450195 15.606026649475098 12.886857986450195 13.480744361877441 12.886857986450195 11.35546588897705 L12.886857986450195 11.35546588897705 C12.725516319274902 11.323363304138184 12.564175605773926 11.291261672973633 12.402833938598633 11.259159088134766 L12.402833938598633 11.259159088134766 C11.641196250915527 13.229317665100098 12.000588417053223 15.660240173339844 12.00015640258789 17.757173538208008 L12.00015640258789 17.757173538208008 C11.22981071472168 17.757173538208008 10.459465980529785 17.757173538208008 9.689120292663574 17.757173538208008 L9.689120292663574 17.757173538208008 C9.689120292663574 15.957172393798828 9.689120292663574 14.157173156738281 9.689120292663574 12.357173919677734 C9.689120292663574 10.557174682617188 9.689120292663574 8.75717544555664 9.689120292663574 6.957174301147461 L9.689120292663574 6.957174301147461"></path></svg>