<svg xmlns="http://www.w3.org/2000/svg" viewBox="0.0 0.0 24.0 24.0" height="200px" width="200px"><path fill="none" stroke="black" stroke-width=".3" stroke-opacity="1.0"  filling="0" d="M13.647442817687988 9.105767250061035 L13.647442817687988 9.105767250061035 C14.456717491149902 9.245129585266113 15.275132179260254 9.335493087768555 16.094449996948242 9.390859603881836 L16.094449996948242 9.390859603881836 C15.961992263793945 10.971983909606934 15.693194389343262 11.846488952636719 14.85962963104248 13.21762752532959 L14.85962963104248 13.21762752532959 C14.48319149017334 11.974979400634766 14.284708023071289 10.471719741821289 12.729978561401367 10.034004211425781 C11.597101211547852 9.715056419372559 9.921104431152344 10.412354469299316 10.110555648803711 11.917953491210938 C10.30635929107666 13.47403621673584 13.900938987731934 13.423335075378418 14.798049926757812 14.438858032226562 C16.19339370727539 16.01837730407715 14.413105964660645 18.586864471435547 12.894648551940918 19.256921768188477 C11.170071601867676 20.017934799194336 9.694973945617676 19.307861328125 8.133623123168945 18.595211029052734 L8.133623123168945 18.595211029052734 C7.5302534103393555 18.942758560180664 6.926832675933838 19.290218353271484 6.323395252227783 19.637649536132812 L6.323395252227783 19.637649536132812 C6.62501335144043 18.196369171142578 6.926719665527344 16.755109786987305 7.2282915115356445 15.313819885253906 L7.2282915115356445 15.313819885253906 C7.3957200050354 15.262168884277344 7.563148498535156 15.210518836975098 7.730576992034912 15.158867835998535 L7.730576992034912 15.158867835998535 C8.349336624145508 16.439373016357422 8.94497013092041 18.274410247802734 10.640776634216309 18.465925216674805 C11.276544570922852 18.5377254486084 13.62152099609375 17.73491859436035 13.184765815734863 16.5390625 C12.450159072875977 14.527671813964844 9.730836868286133 15.2520112991333 8.503719329833984 13.757489204406738 C6.731739521026611 11.599372863769531 9.613490104675293 9.019962310791016 11.651649475097656 8.854061126708984 C12.319973945617676 8.799661636352539 12.982178688049316 9.021864891052246 13.647442817687988 9.105767250061035 L13.647442817687988 9.105767250061035"></path></svg>