<svg xmlns="http://www.w3.org/2000/svg" viewBox="0.0 0.0 24.0 24.0" height="200px" width="200px"><path fill="none" stroke="black" stroke-width=".3" stroke-opacity="1.0"  filling="0" d="M15.36571979522705 7.703332901000977 L15.36571979522705 7.703332901000977 C15.913280487060547 8.216943740844727 17.067710876464844 9.880901336669922 15.451070785522461 10.271771430969238 C15.049829483032227 10.368782997131348 14.650534629821777 10.069869995117188 14.250266075134277 9.968918800354004 L14.250266075134277 9.968918800354004 C14.43163013458252 9.489696502685547 14.612993240356445 9.010475158691406 14.794357299804688 8.53125286102295 L14.794357299804688 8.53125286102295 C11.845770835876465 8.147202491760254 11.06586742401123 9.106797218322754 10.252410888671875 11.873235702514648 L10.252410888671875 11.873235702514648 C10.861371040344238 11.620269775390625 11.430238723754883 11.230768203735352 12.079290390014648 11.114336967468262 C15.341300964355469 10.529172897338867 15.94226360321045 13.055525779724121 15.083939552307129 15.271343231201172 C14.225615501403809 17.48716163635254 11.908004760742188 19.392444610595703 9.332868576049805 17.56514549255371 C7.6697282791137695 16.384992599487305 7.900121688842773 13.949828147888184 8.369255065917969 12.266951560974121 C8.849624633789062 10.543767929077148 9.722007751464844 9.19028377532959 10.912664413452148 8.373886108398438 C12.103321075439453 7.557487964630127 13.612251281738281 7.278175354003906 15.36571979522705 7.703332901000977 L15.36571979522705 7.703332901000977"></path>
<path fill="none" stroke="black" stroke-width=".3" stroke-opacity="1.0"  filling="0" d="M13.038856506347656 12.282987594604492 L13.038856506347656 12.282987594604492 C13.738556861877441 13.736441612243652 14.239879608154297 13.925325393676758 13.494684219360352 15.50467300415039 C12.983940124511719 16.58713150024414 11.283241271972656 17.720365524291992 10.139830589294434 16.7054500579834 C7.968481063842773 14.778112411499023 10.988950729370117 12.02096176147461 13.038856506347656 12.282987594604492 L13.038856506347656 12.282987594604492"></path></svg>