<svg xmlns="http://www.w3.org/2000/svg" viewBox="0.0 0.0 24.0 24.0" height="200px" width="200px"><path fill="none" stroke="black" stroke-width=".3" stroke-opacity="1.0"  filling="0" d="M15.11130428314209 3.7025880813598633 C17.2579402923584 4.109645843505859 18.789798736572266 5.603790760040283 19.05977439880371 7.992866516113281 C19.632049560546875 13.053564071655273 18.195972442626953 17.48750877380371 14.259474754333496 20.842151641845703 C11.996109008789062 22.770891189575195 9.305930137634277 23.392253875732422 6.458315372467041 22.106430053710938 C4.774409294128418 21.34558868408203 4.080015659332275 19.738903045654297 4.978537082672119 18.497974395751953 C5.408343315124512 17.90414810180664 6.4864501953125 17.321096420288086 7.135948181152344 17.44441032409668 C8.324798583984375 17.670089721679688 8.111692428588867 18.688335418701172 7.622024059295654 19.573087692260742 C7.449024200439453 19.885562896728516 7.340075969696045 20.23455810546875 7.192217826843262 20.589534759521484 C11.677644729614258 21.789161682128906 14.105031967163086 20.05677032470703 15.517166137695312 14.529151916503906 C14.512089729309082 14.969732284545898 13.696775436401367 15.34745979309082 12.865896224975586 15.68627643585205 C10.847963333129883 16.508773803710938 8.963521003723145 16.266334533691406 7.2688398361206055 14.881736755371094 C5.6561689376831055 13.56358528137207 5.651978492736816 11.749778747558594 5.956674575805664 9.946748733520508 C6.637899875640869 5.916268348693848 11.065260887145996 2.9351625442504883 15.11130428314209 3.7025880813598633"></path>
<path fill="none" stroke="black" stroke-width=".3" stroke-opacity="1.0"  filling="0" d="M13.345987319946289 5.360153675079346 C14.670125007629395 5.294306755065918 15.630903244018555 5.771402835845947 16.103809356689453 7.094343662261963 C16.90715217590332 9.343342781066895 15.680587768554688 12.682421684265137 13.597406387329102 13.826375961303711 C11.166426658630371 15.161290168762207 8.93658447265625 13.87486457824707 8.913237571716309 11.123625755310059 C8.887497901916504 8.107800483703613 10.938953399658203 5.440967559814453 13.345987319946289 5.360153675079346"></path></svg>