<svg xmlns="http://www.w3.org/2000/svg" viewBox="0.0 0.0 24.0 24.0" height="200px" width="200px"><path fill="none" stroke="black" stroke-width=".3" stroke-opacity="1.0"  filling="0" d="M10.72606086730957 7.943131446838379 C12.096668243408203 7.943131446838379 13.321122169494629 7.943131446838379 14.846511840820312 7.943131446838379 C17.272403717041016 14.008440017700195 19.739727020263672 20.17789649963379 22.31694984436035 26.62124252319336 C20.674753189086914 26.62124252319336 19.315080642700195 26.62124252319336 17.8443546295166 26.62124252319336 C17.310955047607422 25.567108154296875 16.76202392578125 24.481325149536133 16.230928421020508 23.430641174316406 C13.610549926757812 23.430641174316406 11.422872543334961 23.430641174316406 9.122992515563965 23.430641174316406 C8.63217544555664 24.49053192138672 8.159194946289062 25.510719299316406 7.629825115203857 26.654041290283203 C6.212610721588135 26.654041290283203 4.820139408111572 26.654041290283203 3.116374969482422 26.654041290283203 C5.69072151184082 20.32347297668457 8.198321342468262 14.15861988067627 10.72606086730957 7.943131446838379"></path>
<path fill="none" stroke="black" stroke-width=".3" stroke-opacity="1.0"  filling="0" d="M13.039175033569336 14.346200942993164 C13.695134162902832 16.10175132751465 14.350515365600586 17.857301712036133 15.078398704528809 19.80618667602539 C13.461520195007324 19.80618667602539 12.142699241638184 19.80618667602539 10.455046653747559 19.80618667602539 C11.166818618774414 17.908512115478516 11.811843872070312 16.188636779785156 12.456869125366211 14.468185424804688 C12.650779724121094 14.427332878112793 12.84526538848877 14.387053489685059 13.039175033569336 14.346200942993164"></path></svg>