<svg xmlns="http://www.w3.org/2000/svg" viewBox="0.0 0.0 24.0 24.0" height="200px" width="200px"><path fill="none" stroke="black" stroke-width=".3" stroke-opacity="1.0"  filling="0" d="M16.274057388305664 9.788078308105469 L16.274057388305664 9.788078308105469 C16.274057388305664 10.4600191116333 16.274057388305664 11.13196086883545 16.274057388305664 11.803901672363281 L16.274057388305664 11.803901672363281 C15.885581970214844 11.760015487670898 13.29413890838623 11.422391891479492 12.882755279541016 11.5535888671875 C11.583778381347656 11.967854499816895 10.879877090454102 13.215529441833496 10.830830574035645 14.472562789916992 C10.781784057617188 15.729595184326172 11.387590408325195 16.995986938476562 12.70803165435791 17.44768524169922 C14.008641242980957 17.89259910583496 15.069929122924805 17.299297332763672 16.286758422851562 16.92292022705078 L16.286758422851562 16.92292022705078 C16.31732940673828 17.670137405395508 16.32319450378418 18.419246673583984 16.292024612426758 19.166439056396484 L16.292024612426758 19.166439056396484 C14.841289520263672 19.733442306518555 14.531383514404297 20.071125030517578 12.920045852661133 19.83264923095703 C10.001060485839844 19.400644302368164 8.51655101776123 17.028343200683594 8.480653762817383 14.620997428894043 C8.444755554199219 12.213652610778809 9.85746955871582 9.77126407623291 12.732931137084961 9.199085235595703 C14.476020812988281 8.852232933044434 14.728856086730957 9.191012382507324 16.274057388305664 9.788078308105469 L16.274057388305664 9.788078308105469"></path></svg>