<svg xmlns="http://www.w3.org/2000/svg" viewBox="0.0 0.0 24.0 24.0" height="200px" width="200px"><path fill="none" stroke="black" stroke-width=".3" stroke-opacity="1.0"  filling="0" d="M10.743910789489746 7.027659893035889 L10.743910789489746 7.027659893035889 C12.410479545593262 7.027659893035889 14.077052116394043 7.027659893035889 15.743619918823242 7.027659893035889 L15.743619918823242 7.027659893035889 C15.743086814880371 7.363049030303955 15.938075065612793 7.761709213256836 15.742019653320312 8.033827781677246 C15.51716136932373 8.34592342376709 15.03736400604248 8.342568397521973 14.685035705566406 8.496938705444336 L14.685035705566406 8.496938705444336 C14.6857328414917 9.95169448852539 14.991981506347656 12.192659378051758 14.768885612487793 14.114035606384277 C14.545790672302246 16.035411834716797 13.793350219726562 17.63719940185547 11.676671028137207 17.8135986328125 C10.204404830932617 17.936294555664062 7.240885257720947 16.691537857055664 8.033906936645508 14.653505325317383 C9.093965530395508 11.929200172424316 11.699315071105957 14.150491714477539 9.6337890625 16.01395034790039 L9.6337890625 16.01395034790039 C10.209282875061035 16.078250885009766 10.825456619262695 16.428890228271484 11.360271453857422 16.206851959228516 C11.758584022521973 16.041484832763672 11.850119590759277 15.473922729492188 11.94686222076416 15.05363655090332 C12.396066665649414 13.102132797241211 11.992074012756348 10.60387134552002 11.978232383728027 8.606413841247559 L11.978232383728027 8.606413841247559 C11.374013900756836 8.32155704498291 10.870698928833008 7.683516979217529 10.743910789489746 7.027659893035889 L10.743910789489746 7.027659893035889"></path></svg>