<svg xmlns="http://www.w3.org/2000/svg" viewBox="0.0 0.0 24.0 24.0" height="200px" width="200px"><path fill="none" stroke="black" stroke-width=".3" stroke-opacity="1.0"  filling="0" d="M18.860586166381836 3.217278480529785 C18.860586166381836 4.763641834259033 18.860586166381836 5.843850612640381 18.860586166381836 6.9240593910217285 C18.860586166381836 7.912242889404297 18.860586166381836 8.900973320007324 18.860586166381836 9.763169288635254 C17.195903778076172 10.711912155151367 16.650869369506836 9.848073959350586 16.329875946044922 8.66269302368164 C15.613935470581055 6.020781993865967 13.180726051330566 5.276905536651611 11.537406921386719 5.511900901794434 C10.461579322814941 5.665823936462402 9.615269660949707 6.097469806671143 9.48818588256836 7.3310546875 C9.369318962097168 8.481378555297852 9.824518203735352 9.2811279296875 10.940332412719727 9.642658233642578 C12.496557235717773 10.147157669067383 14.073596000671387 10.591949462890625 15.618864059448242 11.126575469970703 C18.61189842224121 12.161867141723633 19.827953338623047 13.78382396697998 19.718948364257812 16.49091911315918 C19.610488891601562 19.181034088134766 17.946901321411133 21.095500946044922 15.088621139526367 21.857454299926758 C12.536543846130371 22.53833770751953 10.23808765411377 21.90018081665039 8.341148376464844 20.647422790527344 C7.3014750480651855 21.051132202148438 6.4644775390625 21.376510620117188 5.381529808044434 21.797199249267578 C5.381529808044434 19.154193878173828 5.381529808044434 16.903942108154297 5.381529808044434 14.498666763305664 C6.055838584899902 14.468539237976074 6.643599033355713 14.44169807434082 7.248341083526611 14.414857864379883 C7.5989155769348145 15.298416137695312 7.8448662757873535 16.080089569091797 8.208587646484375 16.803150177001953 C9.200605392456055 18.774036407470703 11.04112434387207 19.69210433959961 13.156623840332031 19.433557510375977 C14.405547142028809 19.28072738647461 15.421117782592773 18.634357452392578 15.353741645812988 17.45609474182129 C15.309371948242188 16.678804397583008 14.502501487731934 15.674736022949219 13.763555526733398 15.269383430480957 C12.591869354248047 14.625202178955078 11.185735702514648 14.415952682495117 9.889703750610352 13.988690376281738 C5.926563739776611 12.6817045211792 4.348429203033447 10.167425155639648 5.419325828552246 6.897218704223633 C6.408056735992432 3.8773441314697266 10.139488220214844 2.184724807739258 13.553211212158203 3.2594566345214844 C14.41211986541748 3.5300559997558594 15.21351146697998 3.9836130142211914 16.063655853271484 4.363219261169434 C16.8228702545166 4.052084445953369 17.65603256225586 3.7108211517333984 18.860586166381836 3.217278480529785"></path></svg>