<svg xmlns="http://www.w3.org/2000/svg" viewBox="0.0 0.0 24.0 24.0" height="200px" width="200px"><path fill="none" stroke="black" stroke-width=".3" stroke-opacity="1.0"  filling="0" d="M10.521834373474121 7.730381965637207 C13.234955787658691 6.839702606201172 15.713628768920898 7.412125587463379 18.22133445739746 9.209369659423828 C17.651103973388672 10.144418716430664 17.11154556274414 11.029072761535645 16.618549346923828 11.83758544921875 C15.34826374053955 11.515495300292969 14.302017211914062 11.01318645477295 13.288637161254883 11.072346687316895 C12.557907104492188 11.115072250366211 11.871546745300293 11.906057357788086 11.16491985321045 12.363447189331055 C11.588895797729492 12.985170364379883 11.884145736694336 13.807926177978516 12.4669771194458 14.182601928710938 C13.368611335754395 14.762693405151367 14.48168659210205 15.00426197052002 15.479730606079102 15.446863174438477 C18.107946395874023 16.61307144165039 19.029300689697266 17.968263626098633 18.92686653137207 20.433242797851562 C18.808000564575195 23.299190521240234 17.505395889282227 25.212017059326172 14.946746826171875 26.03805923461914 C11.609711647033691 27.11498260498047 8.67802906036377 26.389728546142578 5.9846272468566895 23.689208984375 C6.678656101226807 22.71691131591797 7.253818511962891 21.911136627197266 7.939082622528076 20.951984405517578 C8.674741744995117 21.388561248779297 9.300298690795898 21.92428207397461 10.022812843322754 22.14832305908203 C10.948001861572266 22.43535614013672 11.99863052368164 22.712528228759766 12.90410041809082 22.533409118652344 C13.540064811706543 22.407419204711914 14.374871253967285 21.56822967529297 14.474566459655762 20.944316864013672 C14.568235397338867 20.358745574951172 13.967875480651855 19.39630889892578 13.397096633911133 19.030397415161133 C12.420415878295898 18.403743743896484 11.220792770385742 18.132049560546875 10.128533363342285 17.67794418334961 C7.696419715881348 16.6667537689209 6.67263126373291 15.205296516418457 6.756989002227783 12.915603637695312 C6.847370624542236 10.455554008483887 8.233785629272461 8.481926918029785 10.521834373474121 7.730381965637207"></path></svg>