<svg xmlns="http://www.w3.org/2000/svg" viewBox="0.0 0.0 24.0 24.0" height="200px" width="200px"><path fill="none" stroke="black" stroke-width=".3" stroke-opacity="1.0"  filling="0" d="M12.31861686706543 7.215051174163818 L12.31861686706543 7.215051174163818 C13.876578330993652 7.215051174163818 15.434539794921875 7.215051174163818 16.99250030517578 7.215051174163818 L16.99250030517578 7.215051174163818 C16.704334259033203 8.097672462463379 15.852815628051758 8.693078994750977 15.16667652130127 9.318597793579102 C14.310676574707031 10.098970413208008 13.708584785461426 11.118833541870117 12.977080345153809 12.016952514648438 L12.977080345153809 12.016952514648438 C14.35295581817627 13.777119636535645 15.268298149108887 15.364246368408203 17.207658767700195 16.549827575683594 L17.207658767700195 16.549827575683594 C17.207658767700195 16.863109588623047 17.207658767700195 17.176393508911133 17.207658767700195 17.489675521850586 L17.207658767700195 17.489675521850586 C15.49305534362793 17.489675521850586 13.77845287322998 17.489675521850586 12.063850402832031 17.489675521850586 L12.063850402832031 17.489675521850586 C12.063530921936035 16.87401580810547 12.494526863098145 16.23137664794922 13.01890754699707 15.908792495727539 L13.01890754699707 15.908792495727539 C12.523995399475098 15.177946090698242 12.029037475585938 14.447132110595703 11.534038543701172 13.716344833374023 L11.534038543701172 13.716344833374023 C11.016669273376465 14.425915718078613 10.499319076538086 15.135499954223633 9.9819917678833 15.845101356506348 L9.9819917678833 15.845101356506348 C10.469806671142578 16.261005401611328 10.859189987182617 16.909574508666992 10.870821952819824 17.550514221191406 L10.870821952819824 17.550514221191406 C9.39788818359375 17.550514221191406 7.924955368041992 17.550514221191406 6.452020168304443 17.550514221191406 L6.452020168304443 17.550514221191406 C6.437127113342285 17.21146011352539 6.422234058380127 16.872406005859375 6.407341003417969 16.53335189819336 L6.407341003417969 16.53335189819336 C8.324783325195312 15.415921211242676 9.272717475891113 14.178483963012695 10.688936233520508 12.489411354064941 L10.688936233520508 12.489411354064941 C9.417887687683105 10.773904800415039 8.547898292541504 9.455940246582031 6.790441036224365 8.221441268920898 L6.790441036224365 8.221441268920898 C6.790441036224365 7.889569282531738 6.790441036224365 7.557697296142578 6.790441036224365 7.225825309753418 L6.790441036224365 7.225825309753418 C8.488248825073242 7.225825309753418 10.186057090759277 7.225825309753418 11.883865356445312 7.225825309753418 L11.883865356445312 7.225825309753418 C11.826321601867676 7.354071140289307 11.075839042663574 9.026907920837402 11.023237228393555 9.144177436828613 L11.023237228393555 9.144177436828613 C11.359439849853516 9.679376602172852 11.695643424987793 10.21457576751709 12.031846046447754 10.749774932861328 L12.031846046447754 10.749774932861328 C12.470417022705078 10.188182830810547 12.908974647521973 9.626582145690918 13.347504615783691 9.064958572387695 L13.347504615783691 9.064958572387695 C13.004505157470703 8.448343276977539 12.661544799804688 7.831706523895264 12.31861686706543 7.215051174163818 L12.31861686706543 7.215051174163818"></path></svg>