<svg xmlns="http://www.w3.org/2000/svg" viewBox="0.0 0.0 24.0 24.0" height="200px" width="200px"><path fill="none" stroke="black" stroke-width=".3" stroke-opacity="1.0"  filling="0" d="M6.178837299346924 6.160049915313721 C7.382783889770508 6.160049915313721 8.397293090820312 6.160049915313721 9.604891777038574 6.160049915313721 C9.604891777038574 8.743289947509766 9.604891777038574 11.23259449005127 9.604891777038574 13.624310493469238 C11.409507751464844 13.394166946411133 13.045038223266602 12.946405410766602 14.646123886108398 13.046603202819824 C16.36463165283203 13.154630661010742 17.643726348876953 14.335092544555664 18.483409881591797 15.86207389831543 C19.803735733032227 18.26214027404785 19.253164291381836 21.94338607788086 17.318082809448242 23.846637725830078 C15.444059371948242 25.689346313476562 13.053387641906738 25.807811737060547 10.573476791381836 24.427474975585938 C8.924378395080566 24.632043838500977 7.6510233879089355 24.789649963378906 6.178837299346924 24.972301483154297 C6.178837299346924 18.613357543945312 6.178837299346924 12.494990348815918 6.178837299346924 6.160049915313721"></path>
<path fill="none" stroke="black" stroke-width=".3" stroke-opacity="1.0"  filling="0" d="M12.419320106506348 16.09743881225586 C13.971351623535156 16.07291030883789 15.366823196411133 17.50960922241211 15.362648010253906 19.126873016357422 C15.35847282409668 20.717002868652344 13.89620304107666 22.185012817382812 12.37913703918457 22.123435974121094 C10.915300369262695 22.063941955566406 9.631507873535156 20.710739135742188 9.615851402282715 19.210895538330078 C9.598108291625977 17.457422256469727 10.799445152282715 16.12300682067871 12.419320106506348 16.09743881225586"></path></svg>