<svg xmlns="http://www.w3.org/2000/svg" viewBox="0.0 0.0 24.0 24.0" height="200px" width="200px"><path fill="none" stroke="black" stroke-width=".3" stroke-opacity="1.0"  filling="0" d="M12.03543472290039 6.98626184463501 L12.03543472290039 6.98626184463501 C13.44068431854248 6.98626184463501 14.088217735290527 6.98626184463501 15.518172264099121 6.98626184463501 L15.518172264099121 6.98626184463501 C15.518172264099121 9.051856994628906 15.519108772277832 11.117451667785645 15.518850326538086 13.183046340942383 C15.518829345703125 13.348899841308594 15.496460914611816 15.481322288513184 15.575552940368652 15.675788879394531 C15.810249328613281 16.25284767150879 16.401304244995117 16.688697814941406 16.490848541259766 17.30518913269043 L16.490848541259766 17.30518913269043 C15.351078033447266 17.42527198791504 14.167773246765137 17.30185317993164 13.068124771118164 16.97894287109375 L13.068124771118164 16.97894287109375 C12.583353996276855 17.228193283081055 12.145818710327148 17.607955932617188 11.613813400268555 17.726696014404297 C9.322341918945312 18.238136291503906 8.20444107055664 16.05357551574707 8.182234764099121 13.849665641784668 C8.160028457641602 11.645753860473633 9.233516693115234 9.422491073608398 11.324820518493652 9.856523513793945 C11.995563507080078 9.99573040008545 12.540865898132324 10.48766040802002 13.14888858795166 10.803228378295898 L13.14888858795166 10.803228378295898 C13.14888858795166 10.04507064819336 13.14888858795166 9.286911964416504 13.14888858795166 8.528754234313965 L13.14888858795166 8.528754234313965 C12.589579582214355 8.229936599731445 12.142884254455566 7.611219882965088 12.03543472290039 6.98626184463501 L12.03543472290039 6.98626184463501"></path>
<path fill="none" stroke="black" stroke-width=".3" stroke-opacity="1.0"  filling="0" d="M11.940625190734863 11.39315414428711 L11.940625190734863 11.39315414428711 C12.31773567199707 11.674497604370117 12.83657169342041 11.829801559448242 13.071956634521484 12.237183570861816 C13.525018692016602 13.02130126953125 13.633058547973633 16.372695922851562 12.070549011230469 16.3548583984375 C10.490865707397461 16.336824417114258 10.660625457763672 13.005416870117188 10.989336013793945 12.190896034240723 C11.144208908081055 11.80713176727295 11.623528480529785 11.65906810760498 11.940625190734863 11.39315414428711 L11.940625190734863 11.39315414428711"></path></svg>