<svg xmlns="http://www.w3.org/2000/svg" viewBox="0.0 0.0 24.0 24.0" height="200px" width="200px"><path fill="none" stroke="black" stroke-width=".3" stroke-opacity="1.0"  filling="0" d="M14.639763832092285 8.252235412597656 L14.639763832092285 8.252235412597656 C15.054723739624023 8.287705421447754 15.518916130065918 8.159414291381836 15.8846435546875 8.35864543914795 C18.2797794342041 9.66340160369873 14.305644989013672 12.120637893676758 15.084465026855469 9.012882232666016 L15.084465026855469 9.012882232666016 C14.959877967834473 8.966630935668945 14.835290908813477 8.920379638671875 14.71070384979248 8.874128341674805 L14.71070384979248 8.874128341674805 C14.021239280700684 10.610936164855957 14.92966079711914 13.212899208068848 12.399913787841797 13.689033508300781 C12.333587646484375 13.701517105102539 10.64533519744873 13.691949844360352 10.004317283630371 13.688642501831055 L10.004317283630371 13.688642501831055 C9.941607475280762 13.808958053588867 9.878896713256836 13.929274559020996 9.816186904907227 14.049590110778809 L9.816186904907227 14.049590110778809 C11.356311798095703 14.73929214477539 13.437461853027344 13.862553596496582 14.84058952331543 14.948132514953613 C15.652320861816406 15.576156616210938 15.70014762878418 17.059797286987305 15.173295021057129 17.838685989379883 C14.29539966583252 19.136547088623047 10.943886756896973 19.352249145507812 9.612743377685547 18.85004234313965 C9.02733039855957 18.629180908203125 8.205080032348633 18.45361328125 8.020666122436523 17.855716705322266 C7.831751346588135 17.243228912353516 8.512451171875 16.6718807220459 8.758343696594238 16.07996368408203 L8.758343696594238 16.07996368408203 C8.573546409606934 15.517030715942383 8.14123821258545 14.980324745178223 8.20395278930664 14.39116382598877 C8.26309585571289 13.835556030273438 8.794386863708496 13.442386627197266 9.089603424072266 12.967998504638672 L9.089603424072266 12.967998504638672 C8.880233764648438 12.463242530822754 8.586281776428223 11.985747337341309 8.461494445800781 11.453729629516602 C7.664911270141602 8.057575225830078 11.563332557678223 8.174588203430176 13.592233657836914 8.754437446594238 L13.592233657836914 8.754437446594238 C13.941410064697266 8.587037086486816 14.290587425231934 8.419635772705078 14.639763832092285 8.252235412597656 L14.639763832092285 8.252235412597656"></path>
<path fill="none" stroke="black" stroke-width=".3" stroke-opacity="1.0"  filling="0" d="M10.921218872070312 9.575398445129395 L10.921218872070312 9.575398445129395 C13.133384704589844 9.753228187561035 12.14876937866211 11.393156051635742 11.4981107711792 12.882681846618652 L11.4981107711792 12.882681846618652 C11.03626537322998 11.86335563659668 10.78413200378418 10.686043739318848 10.921218872070312 9.575398445129395 L10.921218872070312 9.575398445129395"></path>
<path fill="none" stroke="black" stroke-width=".3" stroke-opacity="1.0"  filling="0" d="M10.116508483886719 16.428409576416016 L10.116508483886719 16.428409576416016 C11.69005298614502 16.24752426147461 12.711394309997559 16.351713180541992 14.23537826538086 16.81467056274414 L14.23537826538086 16.81467056274414 C13.974432945251465 17.15509796142578 13.845335960388184 17.66362762451172 13.45254135131836 17.83595085144043 C12.432703971862793 18.28336524963379 8.139957427978516 18.370223999023438 10.116508483886719 16.428409576416016 L10.116508483886719 16.428409576416016"></path></svg>