<svg xmlns="http://www.w3.org/2000/svg" viewBox="0.0 0.0 24.0 24.0" height="200px" width="200px"><path fill="none" stroke="black" stroke-width=".3" stroke-opacity="1.0"  filling="0" d="M6.583397388458252 10.091765403747559 L6.583397388458252 10.091765403747559 C8.54330825805664 10.13566780090332 9.458144187927246 9.894376754760742 11.045127868652344 11.085692405700684 L11.045127868652344 11.085692405700684 C11.41379451751709 10.791614532470703 11.72259521484375 10.4003267288208 12.151126861572266 10.203458786010742 C12.7062349319458 9.948441505432129 13.320725440979004 9.70956039428711 13.929471015930176 9.76062297821045 C15.631933212280273 9.90342903137207 16.06060028076172 11.084692001342773 16.144207000732422 12.468705177307129 C16.227813720703125 13.852718353271484 15.966358184814453 15.439481735229492 16.288576126098633 16.39328956604004 C16.5596866607666 17.195812225341797 17.332914352416992 17.856582641601562 17.347171783447266 18.703540802001953 L17.347171783447266 18.703540802001953 C15.77804183959961 18.703275680541992 14.208919525146484 18.703176498413086 12.639789581298828 18.703163146972656 L12.639789581298828 18.703163146972656 C12.600740432739258 17.848424911499023 13.265911102294922 17.10605812072754 13.479605674743652 16.277544021606445 C13.922367095947266 14.560911178588867 13.507147789001465 12.784789085388184 12.586960792541504 11.383794784545898 L12.586960792541504 11.383794784545898 C11.140623092651367 12.478936195373535 10.25739860534668 13.988127708435059 10.768045425415039 15.97079086303711 C11.015077590942383 16.929929733276367 11.736346244812012 17.758129119873047 11.836044311523438 18.74353790283203 L11.836044311523438 18.74353790283203 C10.101011276245117 18.74353790283203 8.365976333618164 18.74353790283203 6.6309428215026855 18.74353790283203 L6.6309428215026855 18.74353790283203 C7.6519575119018555 17.2005615234375 8.129146575927734 15.80927562713623 8.106544494628906 14.417903900146484 C8.083942413330078 13.026533126831055 7.561548233032227 11.635077476501465 6.583397388458252 10.091765403747559 L6.583397388458252 10.091765403747559"></path></svg>