<svg xmlns="http://www.w3.org/2000/svg" viewBox="0.0 0.0 24.0 24.0" height="200px" width="200px"><path fill="none" stroke="black" stroke-width=".3" stroke-opacity="1.0"  filling="0" d="M7.843158721923828 14.163799285888672 L7.843158721923828 14.163799285888672 C9.513291358947754 14.163799285888672 11.18342399597168 14.163799285888672 12.853557586669922 14.163799285888672 C14.523691177368164 14.163799285888672 16.193824768066406 14.163799285888672 17.863956451416016 14.163799285888672 L17.863956451416016 14.163799285888672 C17.009113311767578 15.373604774475098 16.154260635375977 16.58340072631836 15.299379348754883 17.793176651000977 C14.444498062133789 19.002952575683594 13.58958911895752 20.212711334228516 12.734636306762695 21.42243766784668 L12.734636306762695 21.42243766784668 C14.284601211547852 21.49211311340332 15.834558486938477 21.56184959411621 17.384519577026367 21.631664276123047 L17.384519577026367 21.631664276123047 C17.384519577026367 22.48138999938965 17.384519577026367 23.331117630004883 17.384519577026367 24.180843353271484 L17.384519577026367 24.180843353271484 C15.664424896240234 24.18063735961914 13.944331169128418 24.18052101135254 12.224237442016602 24.180456161499023 C10.504143714904785 24.180389404296875 8.784049987792969 24.180376052856445 7.063956260681152 24.180374145507812 L7.063956260681152 24.180374145507812 C7.924993991851807 22.966907501220703 8.786049842834473 21.753454208374023 9.647115707397461 20.540008544921875 C10.50818157196045 19.326562881469727 11.369257926940918 18.11312484741211 12.23033618927002 16.899686813354492 L12.23033618927002 16.899686813354492 C10.7679443359375 16.899686813354492 9.305550575256348 16.899686813354492 7.843158721923828 16.899686813354492 L7.843158721923828 16.899686813354492 C7.843158721923828 15.987724304199219 7.843158721923828 15.075761795043945 7.843158721923828 14.163799285888672 L7.843158721923828 14.163799285888672"></path></svg>