<svg xmlns="http://www.w3.org/2000/svg" viewBox="0.0 0.0 24.0 24.0" height="200px" width="200px"><path fill="none" stroke="black" stroke-width=".3" stroke-opacity="1.0"  filling="0" d="M12.869190216064453 9.426292419433594 L12.869190216064453 9.426292419433594 C15.5711669921875 10.387248039245605 16.210739135742188 12.035083770751953 16.527576446533203 14.73994255065918 L16.527576446533203 14.73994255065918 C16.578474044799805 14.759849548339844 16.629369735717773 14.779756546020508 16.680267333984375 14.799663543701172 L16.680267333984375 14.799663543701172 C16.479169845581055 15.584064483642578 16.07353401184082 17.402179718017578 15.649921417236328 18.124658584594727 C14.507161140441895 20.073654174804688 11.9291353225708 20.885095596313477 10.02262020111084 19.453243255615234 C8.678304672241211 18.443620681762695 7.986538887023926 16.606033325195312 7.969454765319824 14.764440536499023 C7.952370643615723 12.922849655151367 8.609968185424805 11.077255249023438 9.964376449584961 10.051620483398438 C10.99492359161377 9.271231651306152 11.656726837158203 9.455068588256836 12.869190216064453 9.426292419433594 L12.869190216064453 9.426292419433594"></path>
<path fill="none" stroke="black" stroke-width=".3" stroke-opacity="1.0"  filling="0" d="M13.530741691589355 12.294450759887695 L13.530741691589355 12.294450759887695 C14.054418563842773 13.875304222106934 14.61264419555664 15.745268821716309 13.488259315490723 17.286712646484375 C12.647370338439941 18.43950653076172 11.8945894241333 18.306427001953125 11.063700675964355 17.27994155883789 C10.827136993408203 16.987689971923828 10.377848625183105 15.104129791259766 10.295329093933105 14.787349700927734 L10.295329093933105 14.787349700927734 C10.53293514251709 13.822413444519043 10.747330665588379 11.425822257995605 12.27609634399414 11.423566818237305 C12.785187721252441 11.422815322875977 13.112526893615723 12.004156112670898 13.530741691589355 12.294450759887695 L13.530741691589355 12.294450759887695"></path></svg>