<svg xmlns="http://www.w3.org/2000/svg" viewBox="0.0 0.0 24.0 24.0" height="200px" width="200px"><path fill="none" stroke="black" stroke-width=".3" stroke-opacity="1.0"  filling="0" d="M4.744085788726807 5.0047478675842285 C6.926655292510986 5.0047478675842285 9.229780197143555 5.0047478675842285 11.732589721679688 5.0047478675842285 C11.635772705078125 5.554927825927734 11.630187034606934 6.422556400299072 11.454240798950195 6.458862781524658 C8.724284172058105 7.019749164581299 9.604945182800293 9.399210929870605 8.68797779083252 11.183806419372559 C10.502828598022461 11.183806419372559 11.944375991821289 11.183806419372559 13.607951164245605 11.183806419372559 C13.909107208251953 9.982439041137695 14.221900939941406 8.734991073608398 14.521659851074219 7.539208889007568 C14.231675148010254 6.619448661804199 12.262754440307617 6.700439929962158 13.456674575805664 5.064327239990234 C15.632261276245117 5.064327239990234 18.001018524169922 5.064327239990234 20.4847412109375 5.064327239990234 C20.646259307861328 5.927301406860352 20.69699478149414 6.586400508880615 19.469562530517578 6.8465962409973145 C18.96546173095703 6.953653335571289 18.346858978271484 7.657902717590332 18.215129852294922 8.19691276550293 C17.44525146484375 11.346719741821289 16.804304122924805 14.528178215026855 16.094003677368164 17.817625045776367 C16.70376205444336 18.153226852416992 17.20134735107422 18.426921844482422 17.7529239654541 18.730403900146484 C17.665416717529297 19.159564971923828 17.576045989990234 19.598033905029297 17.466196060180664 20.136112213134766 C15.071374893188477 20.136112213134766 12.771042823791504 20.136112213134766 10.1085786819458 20.136112213134766 C10.325950622558594 19.541711807250977 10.484209060668945 18.53304672241211 10.737887382507324 18.508377075195312 C12.513174057006836 18.336620330810547 12.436838150024414 16.97280502319336 12.690516471862793 15.799830436706543 C12.852499008178711 15.050431251525879 12.997724533081055 14.296842575073242 13.18018627166748 13.400354385375977 C11.588293075561523 13.400354385375977 10.139297485351562 13.400354385375977 8.429641723632812 13.400354385375977 C8.104281425476074 14.802803039550781 7.763560771942139 16.271814346313477 7.41771936416626 17.762699127197266 C8.009326934814453 18.465553283691406 9.681280136108398 18.573076248168945 8.482239723205566 20.11609649658203 C6.239161968231201 20.11609649658203 3.8727331161499023 20.11609649658203 1.3694581985473633 20.11609649658203 C1.4020404815673828 19.656681060791016 1.4327621459960938 19.220073699951172 1.4769811630249023 18.596349716186523 C3.3248796463012695 18.61869239807129 3.785691261291504 17.36612319946289 4.0677642822265625 15.811933517456055 C4.577914237976074 13.002382278442383 5.221188068389893 10.217034339904785 5.810467720031738 7.411671161651611 C5.28961181640625 6.6413254737854 3.301607131958008 6.623637676239014 4.744085788726807 5.0047478675842285"></path></svg>