<svg xmlns="http://www.w3.org/2000/svg" viewBox="0.0 0.0 24.0 24.0" height="200px" width="200px"><path fill="none" stroke="black" stroke-width=".3" stroke-opacity="1.0"  filling="0" d="M12.794557571411133 9.170809745788574 L12.794557571411133 9.170809745788574 C14.46808910369873 9.364816665649414 15.986442565917969 9.53177261352539 17.083099365234375 10.996027946472168 C18.467220306396484 12.844104766845703 18.360322952270508 14.991012573242188 17.378215789794922 16.68045997619629 C16.39611053466797 18.36990737915039 14.538792610168457 19.60189437866211 12.42207145690918 19.620128631591797 C10.268050193786621 19.638683319091797 8.58211898803711 18.46482276916504 7.754455089569092 16.846139907836914 C6.926792144775391 15.227456092834473 6.957396507263184 13.163949966430664 8.236448287963867 11.403216361999512 C9.414521217346191 9.781488418579102 10.944482803344727 9.457779884338379 12.794557571411133 9.170809745788574 L12.794557571411133 9.170809745788574"></path>
<path fill="none" stroke="black" stroke-width=".3" stroke-opacity="1.0"  filling="0" d="M12.914338111877441 11.29460620880127 L12.914338111877441 11.29460620880127 C14.061752319335938 11.603059768676758 14.70703411102295 11.506075859069824 15.315532684326172 12.684871673583984 C16.38713264465332 14.760795593261719 14.999823570251465 17.457645416259766 12.607269287109375 17.505292892456055 C10.139172554016113 17.554445266723633 8.843158721923828 14.92739486694336 10.037980079650879 12.862744331359863 C10.83119010925293 11.492077827453613 11.534784317016602 11.626716613769531 12.914338111877441 11.29460620880127 L12.914338111877441 11.29460620880127"></path></svg>