<svg xmlns="http://www.w3.org/2000/svg" viewBox="0.0 0.0 24.0 24.0" height="200px" width="200px"><path fill="none" stroke="black" stroke-width=".3" stroke-opacity="1.0"  filling="0" d="M11.652151107788086 2.700307846069336 C17.64948844909668 1.2351350784301758 21.939533233642578 5.196298122406006 20.582950592041016 11.196232795715332 C20.06806182861328 13.474004745483398 18.782657623291016 15.577723503112793 17.783016204833984 17.913166046142578 C19.700210571289062 19.309757232666016 19.14583396911621 15.988179206848145 20.456695556640625 16.23756980895996 C21.00847625732422 17.766130447387695 20.23224639892578 19.91297149658203 18.747325897216797 20.965091705322266 C17.262413024902344 22.0172119140625 16.29758071899414 21.79431915283203 14.320116996765137 19.962329864501953 C12.531254768371582 20.18314552307129 10.996460914611816 20.558792114257812 9.471017837524414 20.525020599365234 C5.477642059326172 20.437213897705078 3.111543655395508 17.906932830810547 3.070497512817383 13.913557052612305 C3.0154237747192383 8.53138542175293 6.517291069030762 3.954538345336914 11.652151107788086 2.700307846069336"></path>
<path fill="none" stroke="black" stroke-width=".3" stroke-opacity="1.0"  filling="0" d="M14.143983840942383 4.85858154296875 C15.680337905883789 5.347492218017578 16.140670776367188 6.749797821044922 16.06637191772461 8.170807838439941 C15.959863662719727 10.19399356842041 15.6138334274292 12.20470905303955 15.322357177734375 14.618087768554688 C11.737878799438477 12.213022232055664 11.037505149841309 12.235363960266113 7.744503021240234 14.689268112182617 C7.92219352722168 11.548498153686523 8.570091247558594 8.798961639404297 10.37350082397461 6.421951770782471 C11.29832649230957 5.203571796417236 12.541645050048828 4.348888397216797 14.143983840942383 4.85858154296875"></path>
<path fill="none" stroke="black" stroke-width=".3" stroke-opacity="1.0"  filling="0" d="M10.80162239074707 15.560579299926758 C11.599674224853516 15.860366821289062 12.236660957336426 16.58931541442871 12.941190719604492 17.137975692749023 C12.880922317504883 17.356714248657227 12.821170806884766 17.575969696044922 12.76090145111084 17.794706344604492 C11.969605445861816 18.026952743530273 11.187140464782715 18.39272689819336 10.38545036315918 18.44208335876465 C9.891864776611328 18.47273826599121 9.14732837677002 18.148530960083008 8.919239044189453 17.751583099365234 C8.688552856445312 17.350997924804688 8.750900268554688 16.461503982543945 9.056404113769531 16.151323318481445 C9.456469535827637 15.743985176086426 10.336092948913574 15.386004447937012 10.80162239074707 15.560579299926758"></path></svg>