<svg xmlns="http://www.w3.org/2000/svg" viewBox="0.0 0.0 24.0 24.0" height="200px" width="200px"><path fill="none" stroke="black" stroke-width=".3" stroke-opacity="1.0"  filling="0" d="M8.288211822509766 7.032291412353516 L8.288211822509766 7.032291412353516 C9.868654251098633 7.032291412353516 11.4490966796875 7.032291412353516 13.029539108276367 7.032291412353516 C14.609981536865234 7.032291412353516 16.1904239654541 7.032291412353516 17.77086639404297 7.032291412353516 L17.77086639404297 7.032291412353516 C17.40287208557129 8.936548233032227 17.48299217224121 10.23503303527832 15.92941951751709 11.46847152709961 L15.92941951751709 11.46847152709961 C15.724639892578125 9.584578514099121 15.973943710327148 9.092803001403809 14.168224334716797 8.277645111083984 L14.168224334716797 8.277645111083984 C13.879671096801758 9.59151840209961 13.591157913208008 10.905400276184082 13.30264663696289 12.219282150268555 C13.014135360717773 13.533164978027344 12.725625991821289 14.847047805786133 12.437079429626465 16.16092300415039 L12.437079429626465 16.16092300415039 C12.84713363647461 16.32780647277832 13.257187843322754 16.494691848754883 13.667242050170898 16.661575317382812 L13.667242050170898 16.661575317382812 C12.262317657470703 18.478635787963867 10.167901992797852 17.830202102661133 7.976130962371826 17.823373794555664 L7.976130962371826 17.823373794555664 C8.062324523925781 17.402751922607422 8.148518562316895 16.98213005065918 8.234712600708008 16.561508178710938 L8.234712600708008 16.561508178710938 C8.655238151550293 16.431970596313477 9.171520233154297 16.469789505004883 9.496289253234863 16.172893524169922 C9.977904319763184 15.732613563537598 10.249837875366211 13.779878616333008 10.345364570617676 13.316306114196777 C10.677067756652832 11.70661449432373 11.037520408630371 10.102653503417969 11.386240005493164 8.496597290039062 L11.386240005493164 8.496597290039062 C10.87764835357666 8.570406913757324 10.275825500488281 8.415389060974121 9.860466003417969 8.718027114868164 C9.121926307678223 9.256139755249023 9.29627799987793 10.662116050720215 8.490074157714844 11.092281341552734 C8.187987327575684 11.25346565246582 7.805531024932861 11.07359504699707 7.463259696960449 11.064251899719238 L7.463259696960449 11.064251899719238 C7.7381367683410645 9.720243453979492 8.013155937194824 8.376263618469238 8.288211822509766 7.032291412353516 L8.288211822509766 7.032291412353516"></path></svg>