<svg xmlns="http://www.w3.org/2000/svg" viewBox="0.0 0.0 24.0 24.0" height="200px" width="200px"><path fill="none" stroke="black" stroke-width=".3" stroke-opacity="1.0"  filling="0" d="M4.803016662597656 4.995611667633057 C7.115536689758301 4.995611667633057 9.407637596130371 4.995611667633057 11.729440689086914 4.995611667633057 C12.394933700561523 6.441226482391357 11.030069351196289 6.690438270568848 10.157594680786133 7.375423431396484 C10.547422409057617 8.246969223022461 10.912191390991211 9.062826156616211 11.405046463012695 10.165484428405762 C12.266846656799316 9.099023818969727 12.981532096862793 8.214947700500488 13.721280097961426 7.299314022064209 C13.516619682312012 6.805994987487793 13.196402549743652 6.035154819488525 12.766663551330566 4.9997878074646 C15.308904647827148 4.9997878074646 17.363393783569336 4.9997878074646 19.851802825927734 4.9997878074646 C19.311147689819336 5.769236087799072 19.066112518310547 6.534042835235596 18.589963912963867 6.726172924041748 C15.957690238952637 7.788456439971924 14.512540817260742 10.137639045715332 12.328569412231445 11.99303913116455 C13.991839408874512 14.240124702453613 14.052170753479004 17.369428634643555 17.134138107299805 18.705984115600586 C17.027864456176758 19.084674835205078 16.891422271728516 19.571033477783203 16.735492706298828 20.127002716064453 C14.15612506866455 20.127002716064453 11.628734588623047 20.127002716064453 9.119443893432617 20.127002716064453 C8.70687484741211 18.544017791748047 9.962217330932617 18.37880516052246 11.147017478942871 17.920757293701172 C10.664836883544922 16.79396629333496 10.229528427124023 15.777627944946289 9.804429054260254 14.784027099609375 C8.635869979858398 15.762310981750488 7.590757846832275 16.637569427490234 6.402708053588867 17.633026123046875 C7.45199728012085 18.37555694580078 8.623340606689453 18.782556533813477 7.559664249420166 20.10611915588379 C5.5098137855529785 20.106582641601562 3.373180389404297 20.106582641601562 0.6518030166625977 20.106582641601562 C1.1725034713745117 19.301401138305664 1.3831968307495117 18.543554306030273 1.7869482040405273 18.420574188232422 C4.887943744659424 17.477094650268555 6.2857584953308105 14.593754768371582 8.828463554382324 12.735106468200684 C7.222740173339844 10.530716896057129 7.110432147979736 7.605144023895264 4.3301167488098145 6.3660454750061035 C4.478622913360596 5.935841083526611 4.627129077911377 5.505173206329346 4.803016662597656 4.995611667633057"></path></svg>