<svg xmlns="http://www.w3.org/2000/svg" viewBox="0.0 0.0 24.0 24.0" height="200px" width="200px"><path fill="none" stroke="black" stroke-width=".3" stroke-opacity="1.0"  filling="0" d="M3.9399309158325195 5.212713718414307 C5.79863977432251 5.212713718414307 7.637362957000732 5.212713718414307 9.932435989379883 5.212713718414307 C9.932435989379883 8.138681411743164 9.929104804992676 10.97671127319336 9.93443489074707 13.81540584564209 C9.935766220092773 14.5895357131958 10.005718231201172 15.365663528442383 9.973073959350586 16.138460159301758 C9.905120849609375 17.7673282623291 10.743871688842773 18.74464988708496 12.272144317626953 18.792613983154297 C13.811741828918457 18.84124755859375 14.719778060913086 17.82595443725586 14.77307415008545 16.277029037475586 C14.868341445922852 13.514280319213867 14.859014511108398 10.748201370239258 14.926300048828125 7.984120845794678 C14.946952819824219 7.118721961975098 15.072198867797852 6.255987644195557 15.163469314575195 5.236694812774658 C17.13943099975586 5.236694812774658 18.972824096679688 5.236694812774658 21.0427188873291 5.236694812774658 C21.042720794677734 11.317140579223633 21.042720794677734 17.330965042114258 21.042720794677734 23.64657974243164 C19.073421478271484 23.64657974243164 17.423900604248047 23.64657974243164 15.585177421569824 23.64657974243164 C15.431951522827148 22.824485778808594 15.282720565795898 22.021041870117188 15.063539505004883 20.843860626220703 C14.352032661437988 21.671287536621094 13.86170768737793 22.413436889648438 13.211492538452148 22.967052459716797 C9.828508377075195 25.849716186523438 4.509535312652588 24.226177215576172 4.052518367767334 19.83456039428711 C3.5555315017700195 15.061206817626953 3.9399309158325195 10.195253372192383 3.9399309158325195 5.212713718414307"></path></svg>