<svg xmlns="http://www.w3.org/2000/svg" viewBox="0.0 0.0 24.0 24.0" height="200px" width="200px"><path fill="none" stroke="black" stroke-width=".3" stroke-opacity="1.0"  filling="0" d="M16.691875457763672 11.283143043518066 L16.691875457763672 11.283143043518066 C16.560062408447266 12.55105209350586 16.571714401245117 14.422554016113281 16.383499145507812 16.224437713623047 C16.195283889770508 18.026321411132812 15.80720329284668 19.758586883544922 14.875922203063965 20.748022079467773 C13.741395950317383 21.95339584350586 12.360175132751465 22.188718795776367 11.111732482910156 21.82386016845703 C9.863290786743164 21.459001541137695 8.747627258300781 20.49395751953125 8.144218444824219 19.29859733581543 L8.144218444824219 19.29859733581543 C9.090535163879395 19.252147674560547 11.8289794921875 20.272411346435547 12.540857315063477 19.895065307617188 C13.096622467041016 19.60047149658203 13.17790412902832 18.81025505065918 13.496427536010742 18.26784896850586 L13.496427536010742 18.26784896850586 C12.294315338134766 18.478384017944336 10.848321914672852 18.969881057739258 9.720746994018555 18.192272186279297 C7.780198574066162 16.854013442993164 8.104780197143555 13.692955017089844 9.507753372192383 12.131304740905762 C11.02016544342041 10.447837829589844 12.408573150634766 11.323776245117188 14.236623764038086 11.548928260803223 C15.053648948669434 11.649557113647461 15.873456001281738 11.37171745300293 16.691875457763672 11.283143043518066 L16.691875457763672 11.283143043518066"></path>
<path fill="none" stroke="black" stroke-width=".3" stroke-opacity="1.0"  filling="0" d="M12.539031028747559 13.033448219299316 L12.539031028747559 13.033448219299316 C12.925521850585938 13.199801445007324 13.41769790649414 13.219145774841309 13.698504447937012 13.532508850097656 C14.736809730529785 14.69119644165039 13.816974639892578 16.730762481689453 12.246573448181152 16.683937072753906 C10.649541854858398 16.636316299438477 10.340625762939453 14.45915412902832 11.288382530212402 13.51659107208252 C11.60526180267334 13.201448440551758 12.122148513793945 13.194496154785156 12.539031028747559 13.033448219299316 L12.539031028747559 13.033448219299316"></path></svg>