<svg xmlns="http://www.w3.org/2000/svg" viewBox="0.0 0.0 24.0 24.0" height="200px" width="200px"><path fill="none" stroke="black" stroke-width=".3" stroke-opacity="1.0"  filling="0" d="M12.007465362548828 2.937053680419922 C12.582723617553711 2.9937000274658203 13.110994338989258 3.532071113586426 13.467126846313477 3.7406578063964844 C13.5382661819458 5.093611717224121 12.568670272827148 6.2147064208984375 11.603906631469727 6.235784530639648 C10.778345108032227 6.253788948059082 10.20308780670166 5.877455711364746 10.14995288848877 4.96494722366333 C10.091987609863281 3.9747133255004883 11.01415729522705 2.839127540588379 12.007465362548828 2.937053680419922"></path>
<path fill="none" stroke="black" stroke-width=".3" stroke-opacity="1.0"  filling="0" d="M12.820730209350586 7.450851917266846 C11.9547700881958 11.357336044311523 11.165216445922852 15.273040771484375 10.198256492614746 19.144834518432617 C9.632659912109375 21.409420013427734 7.141924858093262 22.646442413330078 5.062653064727783 21.92539405822754 C3.6486597061157227 21.434886932373047 3.209092140197754 20.108722686767578 4.200205326080322 19.01309585571289 C4.514181613922119 18.66618537902832 5.179461479187012 18.637643814086914 5.6835808753967285 18.463308334350586 C5.752962589263916 18.968307495117188 5.875040531158447 19.47418212890625 5.867136478424072 19.978302001953125 C5.863623142242432 20.19523048400879 5.59092378616333 20.40777015686035 5.440303802490234 20.62206268310547 C5.619906902313232 20.732723236083984 5.7999491691589355 20.843822479248047 5.979991912841797 20.954483032226562 C6.365546226501465 20.33135986328125 6.940365314483643 19.753904342651367 7.104159832000732 19.07676887512207 C7.872634410858154 15.899238586425781 8.528252601623535 12.694042205810547 9.248422622680664 9.387845993041992 C8.670530319213867 9.103730201721191 8.182219505310059 8.86396598815918 7.694347858428955 8.624202728271484 C8.030720710754395 7.0156755447387695 8.729373931884766 6.848367691040039 12.820730209350586 7.450851917266846"></path></svg>