<svg xmlns="http://www.w3.org/2000/svg" viewBox="0.0 0.0 24.0 24.0" height="200px" width="200px"><path fill="none" stroke="black" stroke-width=".3" stroke-opacity="1.0"  filling="0" d="M12.434248924255371 10.238107681274414 L12.434248924255371 10.238107681274414 C13.7279634475708 10.238107681274414 15.021677017211914 10.238107681274414 16.315391540527344 10.238107681274414 L16.315391540527344 10.238107681274414 C15.41934871673584 12.058182716369629 13.7142972946167 12.661659240722656 12.015242576599121 13.734794616699219 L12.015242576599121 13.734794616699219 C12.921295166015625 15.032358169555664 13.52612018585205 15.959956169128418 14.850055694580078 16.837543487548828 L14.850055694580078 16.837543487548828 C13.460511207580566 18.48161506652832 12.299942016601562 17.943368911743164 10.231163024902344 17.9556827545166 L10.231163024902344 17.9556827545166 C10.47668743133545 17.1080265045166 10.493252754211426 16.15139389038086 10.232856750488281 15.308185577392578 L10.232856750488281 15.308185577392578 C9.860594749450684 15.591475486755371 9.488332748413086 15.874764442443848 9.116070747375488 16.15805435180664 L9.116070747375488 16.15805435180664 C9.206171989440918 16.72768211364746 9.296274185180664 17.29730796813965 9.386375427246094 17.86693572998047 L9.386375427246094 17.86693572998047 C8.13127613067627 17.86693572998047 6.876175880432129 17.86693572998047 5.6210761070251465 17.86693572998047 L5.6210761070251465 17.86693572998047 C6.362773418426514 16.249324798583984 8.089630126953125 15.384316444396973 9.543207168579102 14.266937255859375 L9.543207168579102 14.266937255859375 C8.894259452819824 12.765876770019531 7.932746410369873 11.722061157226562 7.200564384460449 10.261140823364258 L7.200564384460449 10.261140823364258 C8.750246047973633 10.261140823364258 10.299921035766602 10.261140823364258 11.849604606628418 10.261140823364258 L11.849604606628418 10.261140823364258 C11.482112884521484 11.05107593536377 11.263026237487793 11.933860778808594 11.24937915802002 12.804986953735352 L11.24937915802002 12.804986953735352 C11.916279792785645 12.139155387878418 12.385122299194336 11.17920970916748 12.434248924255371 10.238107681274414 L12.434248924255371 10.238107681274414"></path></svg>