<svg xmlns="http://www.w3.org/2000/svg" viewBox="0.0 0.0 24.0 24.0" height="200px" width="200px"><path fill="none" stroke="black" stroke-width=".3" stroke-opacity="1.0"  filling="0" d="M13.603267669677734 9.661312103271484 L13.603267669677734 9.661312103271484 C14.599446296691895 9.661312103271484 15.595623970031738 9.661312103271484 16.5918025970459 9.661312103271484 L16.5918025970459 9.661312103271484 C16.33711814880371 11.894376754760742 16.082500457763672 14.127446174621582 15.827804565429688 16.360509872436523 L15.827804565429688 16.360509872436523 C16.247854232788086 16.487897872924805 16.667903900146484 16.61528778076172 17.087953567504883 16.74267578125 L17.087953567504883 16.74267578125 C17.00166130065918 17.308612823486328 16.91537094116211 17.874549865722656 16.829078674316406 18.440486907958984 L16.829078674316406 18.440486907958984 C16.422985076904297 18.516035079956055 16.01689338684082 18.591581344604492 15.610800743103027 18.667129516601562 L15.610800743103027 18.667129516601562 C15.48906135559082 19.26519012451172 15.367321968078613 19.863250732421875 15.245582580566406 20.46131134033203 L15.245582580566406 20.46131134033203 C14.46186637878418 20.46131134033203 13.678149223327637 20.46131134033203 12.89443302154541 20.46131134033203 L12.89443302154541 20.46131134033203 C12.922348022460938 19.851064682006836 12.950263023376465 19.240819931030273 12.978178024291992 18.630573272705078 L12.978178024291992 18.630573272705078 C11.1466646194458 18.630573272705078 9.315146446228027 18.630573272705078 7.483633518218994 18.630573272705078 L7.483633518218994 18.630573272705078 C8.071630477905273 16.927207946777344 9.054835319519043 15.389748573303223 10.164392471313477 13.925702095031738 C11.27394962310791 12.46165657043457 12.509859085083008 11.071023941040039 13.603267669677734 9.661312103271484 L13.603267669677734 9.661312103271484"></path>
<path fill="none" stroke="black" stroke-width=".3" stroke-opacity="1.0"  filling="0" d="M13.48030948638916 12.804708480834961 L13.48030948638916 12.804708480834961 C13.570921897888184 12.833951950073242 13.661534309387207 12.86319637298584 13.75214672088623 12.892439842224121 L13.75214672088623 12.892439842224121 C13.606762886047363 14.083364486694336 13.46131706237793 15.27428150177002 13.315813064575195 16.465190887451172 L13.315813064575195 16.465190887451172 C12.444696426391602 16.465190887451172 11.573580741882324 16.465190887451172 10.70246410369873 16.465190887451172 L10.70246410369873 16.465190887451172 C11.628467559814453 15.245071411132812 12.5543794631958 14.024883270263672 13.48030948638916 12.804708480834961 L13.48030948638916 12.804708480834961"></path></svg>