<svg xmlns="http://www.w3.org/2000/svg" viewBox="0.0 0.0 24.0 24.0" height="200px" width="200px"><path fill="none" stroke="black" stroke-width=".3" stroke-opacity="1.0"  filling="0" d="M17.254932403564453 6.309885501861572 C18.891674041748047 6.309885501861572 20.29006576538086 6.309885501861572 21.875492095947266 6.309885501861572 C21.214447021484375 12.547606468200684 20.577709197998047 18.55507469177246 19.918691635131836 24.779970169067383 C17.755273818969727 24.779970169067383 15.68706226348877 24.779970169067383 13.369691848754883 24.779970169067383 C13.024652481079102 20.89067840576172 12.68028736114502 17.012189865112305 12.33659839630127 13.134377479553223 C12.258272171020508 13.136404037475586 12.180622100830078 13.138428688049316 12.102295875549316 13.140454292297363 C11.834906578063965 17.004764556884766 11.56751823425293 20.8697452545166 11.291351318359375 24.861671447753906 C9.056360244750977 24.861671447753906 7.058371543884277 24.861671447753906 4.619461536407471 24.861671447753906 C3.967869758605957 18.66446304321289 3.3365354537963867 12.664421081542969 2.6754913330078125 6.377407550811768 C4.308858394622803 6.377407550811768 5.790976047515869 6.377407550811768 7.5681657791137695 6.377407550811768 C7.71941614151001 9.717066764831543 7.87066650390625 13.054699897766113 8.021917343139648 16.392333984375 C8.102943420410156 16.39841079711914 8.184646606445312 16.405162811279297 8.26567268371582 16.411239624023438 C8.618814468383789 13.140454292297363 8.97263240814209 9.869668006896973 9.352783203125 6.349723815917969 C11.269744873046875 6.349723815917969 13.219117164611816 6.349723815917969 15.402117729187012 6.349723815917969 C15.660052299499512 9.954745292663574 15.915964126586914 13.52735710144043 16.171871185302734 17.0999698638916 C16.224538803100586 17.104021072387695 16.27720832824707 17.108745574951172 16.329875946044922 17.112796783447266 C16.63642692565918 13.530733108520508 16.943653106689453 9.948668479919434 17.254932403564453 6.309885501861572"></path></svg>