<svg xmlns="http://www.w3.org/2000/svg" viewBox="0.0 0.0 24.0 24.0" height="200px" width="200px"><path fill="none" stroke="black" stroke-width=".3" stroke-opacity="1.0"  filling="0" d="M11.754561424255371 6.925575256347656 C12.319429397583008 7.627933502197266 12.675578117370605 7.864261150360107 12.67668342590332 8.103349685668945 C12.709813117980957 12.973475456237793 12.742390632629395 17.844152450561523 12.678339004516602 22.71372413635254 C12.659565925598145 24.144393920898438 12.136662483215332 25.45745086669922 10.572368621826172 25.947223663330078 C9.094766616821289 26.40993881225586 7.8557000160217285 25.956056594848633 6.9010009765625 24.768898010253906 C6.770689010620117 24.606555938720703 6.853514194488525 24.271392822265625 6.806027889251709 23.530933380126953 C7.447647571563721 23.988128662109375 7.723731517791748 24.22832489013672 8.036811828613281 24.40060043334961 C10.073208808898926 25.521501541137695 11.162636756896973 25.004119873046875 11.392890930175781 22.730844497680664 C11.512711524963379 21.546993255615234 11.460807800292969 20.344924926757812 11.463567733764648 19.151134490966797 C11.471299171447754 16.025861740112305 11.451420783996582 12.900588989257812 11.47681999206543 9.77531623840332 C11.482894897460938 9.00780200958252 11.621488571166992 8.240839958190918 11.754561424255371 6.925575256347656"></path></svg>