<svg xmlns="http://www.w3.org/2000/svg" viewBox="0.0 0.0 24.0 24.0" height="200px" width="200px"><path fill="none" stroke="black" stroke-width=".3" stroke-opacity="1.0"  filling="0" d="M10.367171287536621 9.861783027648926 L10.367171287536621 9.861783027648926 C11.603394508361816 9.838484764099121 13.028462409973145 9.649110794067383 14.154136657714844 10.325431823730469 C15.81456184387207 11.323038101196289 15.774385452270508 13.849679946899414 14.125497817993164 14.83120346069336 C13.10949420928955 15.435994148254395 11.936905860900879 15.325987815856934 10.82253646850586 15.37877082824707 L10.82253646850586 15.37877082824707 C10.82253646850586 17.131492614746094 10.82253646850586 18.88421058654785 10.82253646850586 20.636932373046875 L10.82253646850586 20.636932373046875 C10.263723373413086 18.970945358276367 10.048076629638672 17.138195037841797 10.023035049438477 15.291421890258789 C9.997994422912598 13.444649696350098 10.163558959960938 11.583856582641602 10.367171287536621 9.861783027648926 L10.367171287536621 9.861783027648926"></path>
<path fill="none" stroke="black" stroke-width=".3" stroke-opacity="1.0"  filling="0" d="M10.995194435119629 10.546929359436035 L10.995194435119629 10.546929359436035 C12.4878568649292 10.533312797546387 13.13492488861084 10.202740669250488 14.256978988647461 11.446364402770996 C15.402345657348633 12.715826988220215 14.050115585327148 14.267623901367188 12.809596061706543 14.613912582397461 C12.227066040039062 14.776524543762207 11.599994659423828 14.61369800567627 10.995194435119629 14.613590240478516 L10.995194435119629 14.613590240478516 C10.995194435119629 13.258035659790039 10.995194435119629 11.902483940124512 10.995194435119629 10.546929359436035 L10.995194435119629 10.546929359436035"></path></svg>