<svg xmlns="http://www.w3.org/2000/svg" viewBox="0.0 0.0 24.0 24.0" height="200px" width="200px"><path fill="none" stroke="black" stroke-width=".3" stroke-opacity="1.0"  filling="0" d="M7.0839433670043945 6.979126930236816 L7.0839433670043945 6.979126930236816 C8.15678596496582 6.971900463104248 9.796177864074707 6.755082607269287 11.388169288635254 6.729208946228027 C12.980161666870117 6.703334808349609 14.52475357055664 6.868405342102051 15.407995223999023 7.624955654144287 C17.381418228149414 9.315313339233398 15.510028839111328 11.324446678161621 13.951543807983398 12.15690803527832 L13.951543807983398 12.15690803527832 C15.450407028198242 13.52609920501709 15.385660171508789 14.517333030700684 15.885087966918945 16.452821731567383 L15.885087966918945 16.452821731567383 C16.090740203857422 15.739212989807129 16.341293334960938 15.02461051940918 16.727449417114258 14.390249252319336 L16.727449417114258 14.390249252319336 C16.96187973022461 15.656139373779297 17.20665740966797 18.578231811523438 14.655556678771973 17.646831512451172 C12.40731430053711 16.826004028320312 14.433959007263184 13.267256736755371 12.294988632202148 12.747309684753418 C11.759261131286621 12.617083549499512 11.19235610961914 12.754712104797363 10.641039848327637 12.758413314819336 L10.641039848327637 12.758413314819336 C10.641039848327637 12.771419525146484 10.641039848327637 15.876617431640625 10.641039848327637 15.877124786376953 L10.641039848327637 15.877124786376953 C11.24184799194336 16.10834312438965 11.75733757019043 16.73505973815918 11.866988182067871 17.369417190551758 L11.866988182067871 17.369417190551758 C10.297704696655273 17.369417190551758 8.728415489196777 17.369417190551758 7.1591315269470215 17.369417190551758 L7.1591315269470215 17.369417190551758 C7.176238059997559 16.77470588684082 7.685456275939941 16.195608139038086 8.21972942352295 15.933833122253418 L8.21972942352295 15.933833122253418 C8.21972942352295 14.67947769165039 8.21972942352295 13.425121307373047 8.21972942352295 12.170766830444336 C8.21972942352295 10.916410446166992 8.21972942352295 9.662055969238281 8.21972942352295 8.407699584960938 L8.21972942352295 8.407699584960938 C7.651160717010498 8.191316604614258 7.174920082092285 7.5806379318237305 7.0839433670043945 6.979126930236816 L7.0839433670043945 6.979126930236816"></path>
<path fill="none" stroke="black" stroke-width=".3" stroke-opacity="1.0"  filling="0" d="M10.637853622436523 8.256686210632324 L10.637853622436523 8.256686210632324 C12.033595085144043 8.120365142822266 14.747429847717285 8.013172149658203 13.588985443115234 10.617145538330078 C13.128583908081055 11.652044296264648 11.361416816711426 11.410456657409668 10.637853622436523 11.424142837524414 L10.637853622436523 11.424142837524414 C10.637853622436523 10.368324279785156 10.637853622436523 9.312504768371582 10.637853622436523 8.256686210632324 L10.637853622436523 8.256686210632324"></path></svg>