<svg xmlns="http://www.w3.org/2000/svg" viewBox="0.0 0.0 24.0 24.0" height="200px" width="200px"><path fill="none" stroke="black" stroke-width=".3" stroke-opacity="1.0"  filling="0" d="M15.033646583557129 6.8137664794921875 C17.65140724182129 7.6732611656188965 18.375354766845703 8.807701110839844 18.49781036376953 12.47441577911377 C18.602550506591797 15.610493659973145 18.633358001708984 18.748882293701172 18.697280883789062 21.885726928710938 C18.99764060974121 21.928085327148438 19.29877281188965 21.971214294433594 19.599132537841797 22.013572692871094 C20.094345092773438 20.746665954589844 20.589553833007812 19.47975730895996 21.151771545410156 18.041105270385742 C22.675140380859375 20.608806610107422 22.42483901977539 23.12028694152832 20.687366485595703 24.573572158813477 C18.82820701599121 26.129289627075195 16.536991119384766 25.666423797607422 14.02705192565918 23.228111267089844 C13.052034378051758 23.828060150146484 12.129386901855469 24.54892921447754 11.090446472167969 25.004859924316406 C8.486547470092773 26.147769927978516 5.5938401222229 25.161972045898438 4.495596885681152 22.87152862548828 C3.3080148696899414 20.39624786376953 4.052755832672119 17.632923126220703 6.519566535949707 16.23971176147461 C7.951287746429443 15.431047439575195 9.586329460144043 14.973573684692383 11.147436141967773 14.405967712402344 C12.791720390319824 13.80832576751709 14.320481300354004 13.135210037231445 13.987772941589355 10.951815605163574 C13.622718811035156 8.553549766540527 11.887557029724121 8.343297004699707 9.95600414276123 8.509651184082031 C9.578628540039062 8.541997909545898 9.208183288574219 8.656750679016113 8.681396484375 8.765342712402344 C8.653670310974121 9.172755241394043 8.58743667602539 9.34142017364502 8.645198822021484 9.421515464782715 C9.61328411102295 10.760047912597656 10.418098449707031 12.263392448425293 8.586666107177734 13.329290390014648 C7.865029811859131 13.749025344848633 6.228447437286377 13.562647819519043 5.606161117553711 12.99581241607666 C4.137472629547119 11.659590721130371 4.655788421630859 9.921346664428711 5.693188667297363 8.488086700439453 C7.194223880767822 6.414055347442627 11.5925874710083 5.6839470863342285 15.033646583557129 6.8137664794921875"></path>
<path fill="none" stroke="black" stroke-width=".3" stroke-opacity="1.0"  filling="0" d="M13.158315658569336 15.762983322143555 C13.444043159484863 15.940119743347168 13.730541229248047 16.118026733398438 14.01626968383789 16.295162200927734 C13.712057113647461 17.83855628967285 13.668928146362305 19.51210594177246 12.994271278381348 20.87066078186035 C12.652321815490723 21.55841064453125 10.959518432617188 22.214584350585938 10.24327278137207 21.938098907470703 C8.8993501663208 21.41901397705078 8.615161895751953 19.86714744567871 9.57015609741211 18.748882293701172 C10.56596851348877 17.58286476135254 11.946088790893555 16.74493408203125 13.158315658569336 15.762983322143555"></path></svg>