<svg xmlns="http://www.w3.org/2000/svg" viewBox="0.0 0.0 24.0 24.0" height="200px" width="200px"><path fill="none" stroke="black" stroke-width=".3" stroke-opacity="1.0"  filling="0" d="M12.311408996582031 3.072183609008789 C13.160392761230469 3.266777992248535 13.872756958007812 4.057785511016846 14.377900123596191 4.4016265869140625 C14.375604629516602 6.223008632659912 13.787801742553711 6.989332675933838 12.534131050109863 7.0708441734313965 C11.326955795288086 7.150059223175049 10.528486251831055 6.563405990600586 10.337909698486328 5.333270072937012 C10.163980484008789 4.211050510406494 11.243147850036621 2.8276491165161133 12.311408996582031 3.072183609008789"></path>
<path fill="none" stroke="black" stroke-width=".3" stroke-opacity="1.0"  filling="0" d="M8.864961624145508 9.414589881896973 C10.51815414428711 9.414589881896973 12.213251113891602 9.414589881896973 14.21545124053955 9.414589881896973 C14.21545124053955 12.903515815734863 14.21545124053955 16.393014907836914 14.21545124053955 19.61100196838379 C15.229179382324219 20.451950073242188 15.928915023803711 21.03286361694336 16.629226684570312 21.61377716064453 C16.526477813720703 21.823869705200195 16.423725128173828 22.033960342407227 16.321548461914062 22.244056701660156 C13.823965072631836 22.244056701660156 11.32695484161377 22.244056701660156 8.820186614990234 22.244056701660156 C8.011959075927734 20.279739379882812 10.122650146484375 20.884761810302734 10.832719802856445 19.870458602905273 C10.832719802856445 17.383209228515625 10.832719802856445 14.644533157348633 10.832719802856445 11.943170547485352 C10.111743927001953 10.895574569702148 8.017699241638184 11.465581893920898 8.864961624145508 9.414589881896973"></path></svg>