<svg xmlns="http://www.w3.org/2000/svg" viewBox="0.0 0.0 24.0 24.0" height="200px" width="200px"><path fill="none" stroke="black" stroke-width=".3" stroke-opacity="1.0"  filling="0" d="M6.766568183898926 9.751928329467773 L6.766568183898926 9.751928329467773 C8.0576753616333 9.751928329467773 9.348783493041992 9.751928329467773 10.639890670776367 9.751928329467773 L10.639890670776367 9.751928329467773 C10.635498046875 11.64289665222168 10.603561401367188 13.537470817565918 10.649145126342773 15.428133010864258 C10.660154342651367 15.884766578674316 10.508088111877441 16.38774871826172 10.710853576660156 16.797042846679688 C11.169122695922852 17.722087860107422 12.164271354675293 18.029197692871094 12.873881340026855 17.146827697753906 C13.979764938354492 15.771705627441406 13.509446144104004 13.301125526428223 13.485236167907715 11.703274726867676 L13.485236167907715 11.703274726867676 C12.702153205871582 11.255525588989258 12.002907752990723 10.585500717163086 11.564065933227539 9.797391891479492 L11.564065933227539 9.797391891479492 C13.028448104858398 9.797391891479492 14.492827415466309 9.797391891479492 15.957210540771484 9.797391891479492 L15.957210540771484 9.797391891479492 C15.955682754516602 11.497153282165527 15.925488471984863 13.200791358947754 15.959624290466309 14.900263786315918 C15.971220970153809 15.47760009765625 15.782150268554688 16.106971740722656 16.0237979888916 16.631431579589844 C16.39421272277832 17.435359954833984 17.330062866210938 17.998512268066406 17.441843032836914 18.876585006713867 L17.441843032836914 18.876585006713867 C15.549714088439941 18.90345001220703 14.7918119430542 19.120914459228516 13.217278480529785 17.993852615356445 L13.217278480529785 17.993852615356445 C12.737228393554688 18.33500862121582 11.628633499145508 19.135786056518555 11.348259925842285 19.2026309967041 C9.530996322631836 19.63589859008789 8.75028133392334 18.64764404296875 8.42457389831543 17.29257583618164 C8.098867416381836 15.937509536743164 8.228168487548828 14.215631484985352 8.230935096740723 13.181648254394531 C8.232160568237305 12.723725318908691 8.438793182373047 12.218212127685547 8.235509872436523 11.807881355285645 C8.031603813171387 11.396293640136719 7.404754161834717 11.348725318908691 7.137726783752441 10.974989891052246 C6.890047550201416 10.628334045410156 6.89028787612915 10.159615516662598 6.766568183898926 9.751928329467773 L6.766568183898926 9.751928329467773"></path></svg>