<svg xmlns="http://www.w3.org/2000/svg" viewBox="0.0 0.0 24.0 24.0" height="200px" width="200px"><path fill="none" stroke="black" stroke-width=".3" stroke-opacity="1.0"  filling="0" d="M13.423140525817871 7.359545707702637 L13.423140525817871 7.359545707702637 C16.364582061767578 8.081250190734863 16.294645309448242 10.189417839050293 14.520784378051758 12.044195175170898 L14.520784378051758 12.044195175170898 C14.900221824645996 12.368738174438477 15.371084213256836 12.609964370727539 15.659095764160156 13.01782512664795 C16.90311050415039 14.779504776000977 16.271005630493164 16.306190490722656 14.962291717529297 17.20973777770996 C13.65357780456543 18.113285064697266 11.668252944946289 18.393693923950195 10.205825805664062 17.662818908691406 C9.085283279418945 17.102807998657227 7.938144683837891 16.3104190826416 8.356403350830078 14.818343162536621 C8.625372886657715 13.858832359313965 9.251775741577148 13.390456199645996 9.907720565795898 12.841718673706055 L9.907720565795898 12.841718673706055 C9.571721076965332 12.321596145629883 9.152809143066406 11.846479415893555 8.899723052978516 11.281351089477539 C7.501298904418945 8.158740997314453 11.23342227935791 7.285128593444824 13.423140525817871 7.359545707702637 L13.423140525817871 7.359545707702637"></path>
<path fill="none" stroke="black" stroke-width=".3" stroke-opacity="1.0"  filling="0" d="M11.801207542419434 8.619181632995605 L11.801207542419434 8.619181632995605 C13.979264259338379 8.81930923461914 14.59170150756836 9.604080200195312 13.304502487182617 11.539063453674316 L13.304502487182617 11.539063453674316 C12.624266624450684 11.308390617370605 10.53545093536377 11.062929153442383 10.749606132507324 9.618017196655273 C10.820486068725586 9.139788627624512 11.450674057006836 8.952126502990723 11.801207542419434 8.619181632995605 L11.801207542419434 8.619181632995605"></path>
<path fill="none" stroke="black" stroke-width=".3" stroke-opacity="1.0"  filling="0" d="M11.30346965789795 13.36398983001709 L11.30346965789795 13.36398983001709 C11.660374641418457 13.484405517578125 12.0242280960083 13.585911750793457 12.374185562133789 13.725235939025879 C12.727859497070312 13.866040229797363 13.145575523376465 13.930678367614746 13.411376953125 14.203186988830566 C16.2945613861084 17.159130096435547 9.133208274841309 17.612648010253906 10.26354694366455 14.637447357177734 C10.458185195922852 14.125134468078613 10.956829071044922 13.78847599029541 11.30346965789795 13.36398983001709 L11.30346965789795 13.36398983001709"></path></svg>