<svg xmlns="http://www.w3.org/2000/svg" viewBox="0.0 0.0 24.0 24.0" height="200px" width="200px"><path fill="none" stroke="black" stroke-width=".3" stroke-opacity="1.0"  filling="0" d="M16.00493049621582 4.274481296539307 C19.78226661682129 4.836523532867432 21.700214385986328 8.363325119018555 19.71344566345215 11.643214225769043 C18.716739654541016 13.288894653320312 17.048725128173828 14.58080768585205 15.526802062988281 15.843137741088867 C13.79298210144043 17.281749725341797 11.884090423583984 18.50906753540039 9.783223152160645 20.02072525024414 C13.907684326171875 20.87737464904785 15.243667602539062 20.713167190551758 18.806692123413086 18.786165237426758 C17.975399017333984 20.704715728759766 17.391624450683594 22.051563262939453 16.80905532836914 23.395999908447266 C12.204050064086914 23.395999908447266 7.854408264160156 23.395999908447266 2.885373115539551 23.395999908447266 C6.441755294799805 20.476516723632812 9.504918098449707 18.06112289428711 12.440698623657227 15.4996337890625 C13.553314208984375 14.528888702392578 14.499911308288574 13.302778244018555 15.291963577270508 12.047087669372559 C16.379825592041016 10.3223237991333 16.197509765625 8.291484832763672 15.11085319519043 7.332812786102295 C13.918550491333008 6.2811713218688965 12.144887924194336 6.384403705596924 10.422537803649902 7.638887882232666 C9.762697219848633 8.119430541992188 9.14571762084961 8.657929420471191 7.994466304779053 9.58339786529541 C9.704137802124023 5.576656341552734 12.705119132995605 3.7836742401123047 16.00493049621582 4.274481296539307"></path></svg>