<svg xmlns="http://www.w3.org/2000/svg" viewBox="0.0 0.0 24.0 24.0" height="200px" width="200px"><path fill="none" stroke="black" stroke-width=".3" stroke-opacity="1.0"  filling="0" d="M6.832972049713135 8.326180458068848 L6.832972049713135 8.326180458068848 C8.051309585571289 8.326180458068848 9.269647598266602 8.326180458068848 10.487984657287598 8.326180458068848 L10.487984657287598 8.326180458068848 C11.086950302124023 10.626996040344238 11.685839653015137 12.92782974243164 12.284978866577148 15.22860050201416 L12.284978866577148 15.22860050201416 C12.874259948730469 12.930898666381836 13.46340560913086 10.633163452148438 14.05241870880127 8.335391998291016 L14.05241870880127 8.335391998291016 C15.245936393737793 8.335391998291016 16.439455032348633 8.335391998291016 17.632972717285156 8.335391998291016 L17.632972717285156 8.335391998291016 C17.080896377563477 10.098472595214844 16.52882194519043 11.861554145812988 15.976770401000977 13.624642372131348 C15.424718856811523 15.387731552124023 14.872689247131348 17.15082550048828 14.320701599121094 18.9139347076416 L14.320701599121094 18.9139347076416 C12.9584379196167 18.9139347076416 11.59616756439209 18.9139347076416 10.233902931213379 18.9139347076416 L10.233902931213379 18.9139347076416 C9.66706657409668 17.14931297302246 9.100238800048828 15.384689331054688 8.533417701721191 13.620063781738281 C7.966597080230713 11.855438232421875 7.399783134460449 10.090810775756836 6.832972049713135 8.326180458068848 L6.832972049713135 8.326180458068848"></path></svg>