<svg xmlns="http://www.w3.org/2000/svg" viewBox="0.0 0.0 24.0 24.0" height="200px" width="200px"><path fill="none" stroke="black" stroke-width=".3" stroke-opacity="1.0"  filling="0" d="M20.825763702392578 7.7128005027771 C21.108951568603516 7.728565692901611 21.392723083496094 7.744914531707764 21.675905227661133 7.760679244995117 C22.277313232421875 9.807208061218262 21.304553985595703 11.889937400817871 21.2263126373291 13.935881614685059 C21.141063690185547 16.15932846069336 20.704315185546875 18.371097564697266 20.400691986083984 20.584619522094727 C20.11050033569336 22.695960998535156 19.79461669921875 24.803211212158203 19.48982810974121 26.912803649902344 C19.148252487182617 26.87134552001953 18.807262420654297 26.82988929748535 18.465686798095703 26.788433074951172 C18.8020076751709 23.629013061523438 19.13832664489746 20.469009399414062 19.491580963134766 17.14960479736328 C15.603466987609863 17.14960479736328 11.844393730163574 17.14960479736328 7.869281768798828 17.14960479736328 C7.386406421661377 20.384929656982422 6.902946949005127 23.621423721313477 6.420070648193359 26.857332229614258 C6.112361907958984 26.80361557006836 5.8040690422058105 26.749897003173828 5.496359348297119 26.696762084960938 C5.9447855949401855 20.334131240844727 6.761061668395996 14.018210411071777 7.838919639587402 7.7361555099487305 C8.173487663269043 7.769437313079834 8.507472038269043 7.80330228805542 8.842040061950684 7.836584568023682 C8.57753849029541 10.342048645019531 8.313036918640137 12.847513198852539 8.023428916931152 15.589454650878906 C11.855487823486328 15.589454650878906 15.664190292358398 15.589454650878906 19.66849708557129 15.589454650878906 C20.050945281982422 12.985312461853027 20.438648223876953 10.349056243896484 20.825763702392578 7.7128005027771"></path></svg>