<svg xmlns="http://www.w3.org/2000/svg" viewBox="0.0 0.0 24.0 24.0" height="200px" width="200px"><path fill="none" stroke="black" stroke-width=".3" stroke-opacity="1.0"  filling="0" d="M20.093769073486328 8.0266752243042 C20.22134780883789 8.18643569946289 20.348926544189453 8.345621109008789 20.476503372192383 8.505382537841797 C17.238765716552734 11.363831520080566 14.001029014587402 14.222280502319336 10.5811185836792 17.24221420288086 C13.35566520690918 20.488571166992188 16.003782272338867 23.5866641998291 18.651901245117188 26.68475341796875 C18.501333236694336 26.866352081298828 18.350194931030273 27.04680061340332 18.199626922607422 27.227249145507812 C16.17618751525879 26.398563385009766 15.16992473602295 24.38603973388672 13.7412748336792 22.873485565185547 C12.326991081237793 21.376449584960938 10.965004920959473 19.82999038696289 9.143274307250977 17.824939727783203 C8.624340057373047 21.343120574951172 8.200801849365234 24.2119140625 7.77726411819458 27.081279754638672 C7.4657883644104 27.031282424926758 7.154312610626221 26.981285095214844 6.842836856842041 26.931865692138672 C7.242238521575928 20.65465545654297 8.153103828430176 14.439509391784668 9.463945388793945 8.25597095489502 C10.347799301147461 11.012702941894531 9.246716499328613 13.707368850708008 9.292116165161133 16.658342361450195 C13.240156173706055 14.038384437561035 16.072744369506836 10.225969314575195 20.093769073486328 8.0266752243042"></path></svg>