<svg xmlns="http://www.w3.org/2000/svg" viewBox="0.0 0.0 24.0 24.0" height="200px" width="200px"><path fill="none" stroke="black" stroke-width=".3" stroke-opacity="1.0"  filling="0" d="M8.174581527709961 8.639607429504395 L8.174581527709961 8.639607429504395 C9.063396453857422 8.6412935256958 9.952215194702148 8.641704559326172 10.841032028198242 8.640976905822754 L10.841032028198242 8.640976905822754 C10.993711471557617 10.12228775024414 11.146369934082031 11.60360050201416 11.29909610748291 13.084906578063965 L11.29909610748291 13.084906578063965 C11.374337196350098 13.101719856262207 11.449577331542969 13.118534088134766 11.524818420410156 13.135347366333008 L11.524818420410156 13.135347366333008 C12.356050491333008 11.654648780822754 13.187261581420898 10.17393970489502 14.018495559692383 8.693242073059082 L14.018495559692383 8.693242073059082 C15.018765449523926 8.693242073059082 16.01903533935547 8.693242073059082 17.019306182861328 8.693242073059082 L17.019306182861328 8.693242073059082 C16.651775360107422 9.021289825439453 16.284242630004883 9.349336624145508 15.916711807250977 9.677384376525879 L15.916711807250977 9.677384376525879 C15.526273727416992 11.488565444946289 15.135848999023438 13.299753189086914 14.745418548583984 15.110934257507324 L14.745418548583984 15.110934257507324 C15.0340576171875 15.209454536437988 15.3226957321167 15.307975769042969 15.611334800720215 15.406496047973633 L15.611334800720215 15.406496047973633 C15.558612823486328 15.644999504089355 15.505890846252441 15.883503913879395 15.453168869018555 16.122007369995117 L15.453168869018555 16.122007369995117 C14.338401794433594 16.122007369995117 13.223633766174316 16.122007369995117 12.108866691589355 16.122007369995117 L12.108866691589355 16.122007369995117 C12.485603332519531 15.794112205505371 12.862340927124023 15.466217041015625 13.2390775680542 15.138321876525879 L13.2390775680542 15.138321876525879 C13.56505012512207 13.663867950439453 13.890948295593262 12.18940544128418 14.216829299926758 10.714932441711426 L14.216829299926758 10.714932441711426 C14.15969467163086 10.685490608215332 14.102560043334961 10.656047821044922 14.045425415039062 10.626605987548828 L14.045425415039062 10.626605987548828 C12.750638008117676 12.444175720214844 12.073945999145508 14.619617462158203 10.558706283569336 16.277433395385742 L10.558706283569336 16.277433395385742 C10.464293479919434 16.236351013183594 10.369881629943848 16.195270538330078 10.275468826293945 16.15418815612793 L10.275468826293945 16.15418815612793 C10.081934928894043 14.261454582214355 9.888453483581543 12.368721961975098 9.69507122039795 10.475972175598145 L9.69507122039795 10.475972175598145 C9.620363235473633 10.467527389526367 9.545654296875 10.45908260345459 9.470946311950684 10.450637817382812 L9.470946311950684 10.450637817382812 C9.136256217956543 11.992044448852539 8.801591873168945 13.533456802368164 8.466948509216309 15.074872970581055 L8.466948509216309 15.074872970581055 C8.75961971282959 15.195837020874023 9.052290916442871 15.316800117492676 9.344962120056152 15.437764167785645 L9.344962120056152 15.437764167785645 C9.30859661102295 15.665008544921875 9.272232055664062 15.892252922058105 9.23586654663086 16.119497299194336 L9.23586654663086 16.119497299194336 C8.237041473388672 16.119497299194336 7.238216876983643 16.119497299194336 6.239392280578613 16.119497299194336 L6.239392280578613 16.119497299194336 C6.576568603515625 15.765811920166016 6.913745403289795 15.412125587463379 7.250921726226807 15.058440208435059 L7.250921726226807 15.058440208435059 C7.639842987060547 13.289573669433594 8.028671264648438 11.52069091796875 8.4174222946167 9.751788139343262 L8.4174222946167 9.751788139343262 C8.140118598937988 9.629075050354004 7.8628153800964355 9.50636100769043 7.585512161254883 9.383647918701172 L7.585512161254883 9.383647918701172 C7.7818684577941895 9.135634422302246 7.978225231170654 8.88762092590332 8.174581527709961 8.639607429504395 L8.174581527709961 8.639607429504395"></path></svg>