<svg xmlns="http://www.w3.org/2000/svg" viewBox="0.0 0.0 24.0 24.0" height="200px" width="200px"><path fill="none" stroke="black" stroke-width=".3" stroke-opacity="1.0"  filling="0" d="M13.469156265258789 6.934590816497803 L13.469156265258789 6.934590816497803 C14.162946701049805 7.0634074211120605 14.925108909606934 6.994251728057861 15.550527572631836 7.321040153503418 C18.2373104095459 8.724916458129883 15.089265823364258 11.570487022399902 13.672792434692383 12.158506393432617 L13.672792434692383 12.158506393432617 C14.723925590515137 13.583980560302734 14.502291679382324 14.258523941040039 14.503488540649414 15.982305526733398 L14.503488540649414 15.982305526733398 C15.034546852111816 15.439292907714844 15.668923377990723 14.988404273986816 16.341598510742188 14.635709762573242 L16.341598510742188 14.635709762573242 C15.921281814575195 15.823148727416992 13.638998031616211 19.829256057739258 12.341438293457031 16.771949768066406 C11.927371978759766 15.796326637268066 12.763294219970703 14.362939834594727 12.523569107055664 13.383901596069336 C12.260273933410645 12.308606147766113 10.717312812805176 12.746622085571289 10.16157341003418 12.757380485534668 L10.16157341003418 12.757380485534668 C9.92375659942627 13.780609130859375 9.686027526855469 14.803858757019043 9.448372840881348 15.827125549316406 L9.448372840881348 15.827125549316406 C10.0050048828125 16.07060432434082 10.486912727355957 16.682947158813477 10.537809371948242 17.28836441040039 L10.537809371948242 17.28836441040039 C8.943769454956055 17.28836441040039 7.349727630615234 17.28836441040039 5.755686283111572 17.28836441040039 L5.755686283111572 17.28836441040039 C5.83978271484375 16.948904037475586 5.754054069519043 16.510461807250977 6.007975101470947 16.26998519897461 C6.3024702072143555 15.991082191467285 6.788817405700684 16.05011749267578 7.179238796234131 15.940184593200684 L7.179238796234131 15.940184593200684 C7.452940940856934 14.696246147155762 7.726658821105957 13.452310562133789 8.000391006469727 12.20837688446045 C8.274123191833496 10.964444160461426 8.547869682312012 9.720514297485352 8.821629524230957 8.476588249206543 L8.821629524230957 8.476588249206543 C8.417312622070312 8.308422088623047 8.012996673583984 8.14025592803955 7.60867977142334 7.972089767456055 L7.60867977142334 7.972089767456055 C7.659034729003906 7.683156490325928 7.7093892097473145 7.394223690032959 7.759744167327881 7.105290412902832 L7.759744167327881 7.105290412902832 C9.447732925415039 6.579471111297607 11.70488452911377 6.92824125289917 13.469156265258789 6.934590816497803 L13.469156265258789 6.934590816497803"></path>
<path fill="none" stroke="black" stroke-width=".3" stroke-opacity="1.0"  filling="0" d="M12.398721694946289 8.169392585754395 L12.398721694946289 8.169392585754395 C14.33720874786377 8.336969375610352 14.707409858703613 10.461958885192871 12.730619430541992 11.236918449401855 C12.429605484008789 11.354924201965332 10.723299980163574 11.270928382873535 10.46085262298584 11.263204574584961 L10.46085262298584 11.263204574584961 C10.59175968170166 10.664525985717773 10.988838195800781 8.848113059997559 11.12021541595459 8.246983528137207 L11.12021541595459 8.246983528137207 C11.54638385772705 8.22111988067627 11.972553253173828 8.195256233215332 12.398721694946289 8.169392585754395 L12.398721694946289 8.169392585754395"></path></svg>