<svg xmlns="http://www.w3.org/2000/svg" viewBox="0.0 0.0 24.0 24.0" height="200px" width="200px"><path fill="none" stroke="black" stroke-width=".3" stroke-opacity="1.0"  filling="0" d="M14.086616516113281 7.16066312789917 L14.086616516113281 7.16066312789917 C15.394830703735352 7.161752223968506 16.703046798706055 7.161976337432861 18.011260986328125 7.161606788635254 L18.011260986328125 7.161606788635254 C17.530506134033203 7.858758449554443 16.78752899169922 8.332601547241211 16.183408737182617 8.926054000854492 C15.502939224243164 9.594508171081543 15.22512149810791 10.57574462890625 14.759350776672363 11.408166885375977 C13.631998062133789 13.422962188720703 12.513814926147461 15.442892074584961 11.392353057861328 17.460968017578125 L11.392353057861328 17.460968017578125 C10.742541313171387 17.460968017578125 10.092728614807129 17.460968017578125 9.442916870117188 17.460968017578125 L9.442916870117188 17.460968017578125 C9.185769081115723 15.262916564941406 8.899303436279297 13.066024780273438 8.664383888244629 10.865631103515625 C8.625423431396484 10.500706672668457 8.574485778808594 9.067971229553223 8.290201187133789 8.737883567810059 C8.046958923339844 8.455451011657715 7.61281156539917 8.42662239074707 7.274116516113281 8.270991325378418 L7.274116516113281 8.270991325378418 C7.253269672393799 8.130406379699707 7.232422828674316 7.989820957183838 7.211575984954834 7.849236011505127 L7.211575984954834 7.849236011505127 C8.734911918640137 6.805163383483887 10.486442565917969 7.150887489318848 12.291802406311035 7.161920547485352 L12.291802406311035 7.161920547485352 C12.260270118713379 7.527315616607666 12.228737831115723 7.892711162567139 12.197205543518066 8.258106231689453 L12.197205543518066 8.258106231689453 C11.661055564880371 8.357416152954102 11.124905586242676 8.456727027893066 10.58875560760498 8.556036949157715 L10.58875560760498 8.556036949157715 C10.762202262878418 10.461258888244629 10.935559272766113 12.36649227142334 11.108878135681152 14.271723747253418 L11.108878135681152 14.271723747253418 C11.23898696899414 14.309436798095703 11.369095802307129 14.347148895263672 11.499204635620117 14.384861946105957 L11.499204635620117 14.384861946105957 C12.558568000793457 12.473108291625977 13.617927551269531 10.561354637145996 14.677450180053711 8.649689674377441 L14.677450180053711 8.649689674377441 C14.215991973876953 8.513190269470215 13.754534721374512 8.376691818237305 13.293076515197754 8.240192413330078 L13.293076515197754 8.240192413330078 C13.557589530944824 7.880349159240723 13.822103500366211 7.520506381988525 14.086616516113281 7.16066312789917 L14.086616516113281 7.16066312789917"></path></svg>