<svg xmlns="http://www.w3.org/2000/svg" viewBox="0.0 0.0 24.0 24.0" height="200px" width="200px"><path fill="none" stroke="black" stroke-width=".3" stroke-opacity="1.0"  filling="0" d="M10.038108825683594 9.748964309692383 L10.038108825683594 9.748964309692383 C11.452792167663574 10.948972702026367 11.870667457580566 12.424896240234375 12.585550308227539 14.124534606933594 L12.585550308227539 14.124534606933594 C13.784005165100098 12.706979751586914 14.741948127746582 11.185526847839355 15.934268951416016 9.763809204101562 L15.934268951416016 9.763809204101562 C16.05678939819336 9.848896026611328 16.179309844970703 9.933982849121094 16.301830291748047 10.01906967163086 L16.301830291748047 10.01906967163086 C15.218923568725586 11.698853492736816 14.136064529418945 13.378667831420898 13.053150177001953 15.058445930480957 L13.053150177001953 15.058445930480957 C13.764932632446289 16.804500579833984 14.476751327514648 18.550540924072266 15.188495635986328 20.296607971191406 L15.188495635986328 20.296607971191406 C15.05780029296875 20.36147117614746 14.927103996276855 20.42633628845215 14.796408653259277 20.491199493408203 L14.796408653259277 20.491199493408203 C13.907426834106445 19.015932083129883 13.323127746582031 17.478757858276367 12.548761367797852 15.942014694213867 L12.548761367797852 15.942014694213867 C11.354215621948242 17.46826934814453 10.360910415649414 19.06644058227539 9.11097526550293 20.54896354675293 L9.11097526550293 20.54896354675293 C8.989638328552246 20.450109481811523 8.868300437927246 20.351253509521484 8.746963500976562 20.252399444580078 L8.746963500976562 20.252399444580078 C9.64727783203125 18.879653930664062 11.777414321899414 16.744138717651367 11.965913772583008 15.075992584228516 C12.14075756072998 13.528688430786133 10.595049858093262 11.149730682373047 10.038108825683594 9.748964309692383 L10.038108825683594 9.748964309692383"></path></svg>