<svg xmlns="http://www.w3.org/2000/svg" viewBox="0.0 0.0 24.0 24.0" height="200px" width="200px"><path fill="none" stroke="black" stroke-width=".3" stroke-opacity="1.0"  filling="0" d="M8.651910781860352 7.026914119720459 L8.651910781860352 7.026914119720459 C10.038772583007812 7.026914119720459 11.42563533782959 7.026914119720459 12.812498092651367 7.026914119720459 C14.199360847473145 7.026914119720459 15.586223602294922 7.026914119720459 16.973085403442383 7.026914119720459 L16.973085403442383 7.026914119720459 C15.99942684173584 8.812421798706055 14.70692253112793 10.37875747680664 13.324273109436035 11.877819061279297 C11.941624641418457 13.376879692077637 10.468832015991211 14.808667182922363 9.13459587097168 16.3250789642334 L9.13459587097168 16.3250789642334 C10.170616149902344 16.502059936523438 11.210444450378418 16.893518447875977 12.24167537689209 16.390228271484375 C14.063939094543457 15.500877380371094 13.341764450073242 13.094655990600586 15.425771713256836 13.128865242004395 L15.425771713256836 13.128865242004395 C15.092374801635742 14.689462661743164 14.758941650390625 16.25004768371582 14.425543785095215 17.810646057128906 L14.425543785095215 17.810646057128906 C13.060481071472168 17.810646057128906 11.695417404174805 17.810646057128906 10.330354690551758 17.810646057128906 C8.965291023254395 17.810646057128906 7.6002278327941895 17.810646057128906 6.235164642333984 17.810646057128906 L6.235164642333984 17.810646057128906 C6.429245471954346 16.146228790283203 7.136164665222168 15.656540870666504 8.281956672668457 14.423489570617676 C9.232672691345215 13.400370597839355 10.191669464111328 12.384109497070312 11.140064239501953 11.358357429504395 C12.088458061218262 10.332605361938477 13.026250839233398 9.29736328125 13.934558868408203 8.236282348632812 L13.934558868408203 8.236282348632812 C12.687719345092773 8.23725414276123 10.783634185791016 7.9064531326293945 9.864156723022461 9.049758911132812 C9.354180335998535 9.683878898620605 9.51810359954834 10.800195693969727 8.855823516845703 11.273025512695312 C8.561604499816895 11.483080863952637 8.136719703674316 11.34813404083252 7.777167797088623 11.385687828063965 L7.777167797088623 11.385687828063965 C8.068711280822754 9.932756423950195 8.360281944274902 8.479827880859375 8.651910781860352 7.026914119720459 L8.651910781860352 7.026914119720459"></path></svg>