<svg xmlns="http://www.w3.org/2000/svg" viewBox="0.0 0.0 24.0 24.0" height="200px" width="200px"><path fill="none" stroke="black" stroke-width=".3" stroke-opacity="1.0"  filling="0" d="M12.003046035766602 2.5070409774780273 C12.52084732055664 2.505300521850586 13.041259765625 3.148418426513672 13.362383842468262 3.3655471801757812 C13.381964683532715 4.7405500411987305 12.3772554397583 5.838812351226807 11.472189903259277 5.7852911949157715 C10.588010787963867 5.732641220092773 10.220328330993652 5.166975498199463 10.261665344238281 4.3263092041015625 C10.316057205200195 3.2241315841674805 10.97353458404541 2.51052188873291 12.003046035766602 2.5070409774780273"></path>
<path fill="none" stroke="black" stroke-width=".3" stroke-opacity="1.0"  filling="0" d="M7.913717269897461 7.3252081871032715 C9.33310317993164 7.3252081871032715 10.816887855529785 7.3252081871032715 12.617010116577148 7.3252081871032715 C11.67844009399414 11.397130966186523 10.86518669128418 15.398999214172363 9.800865173339844 19.33298683166504 C9.303949356079102 21.169227600097656 7.206634998321533 22.05384063720703 5.399985313415527 21.58216094970703 C4.064579010009766 21.233623504638672 3.4802026748657227 19.971317291259766 4.30520486831665 18.940502166748047 C4.621107578277588 18.545841217041016 5.36474084854126 18.492755889892578 5.913000583648682 18.28432846069336 C5.947811126708984 18.790380477905273 6.040058612823486 19.30165672302246 5.992193698883057 19.799442291259766 C5.970003128051758 20.033977508544922 5.678467750549316 20.243274688720703 5.361259460449219 20.656211853027344 C6.7358269691467285 20.545686721801758 7.163992404937744 19.875591278076172 7.3689374923706055 18.954425811767578 C8.088203430175781 15.720993041992188 8.818346977233887 12.489736557006836 9.461030960083008 9.628338813781738 C9.229978561401367 8.330787658691406 7.210551738739014 9.06180191040039 7.913717269897461 7.3252081871032715"></path></svg>