<svg xmlns="http://www.w3.org/2000/svg" viewBox="0.0 0.0 24.0 24.0" height="200px" width="200px"><path fill="none" stroke="black" stroke-width=".3" stroke-opacity="1.0"  filling="0" d="M13.64206600189209 13.99827766418457 L13.64206600189209 13.99827766418457 C15.296492576599121 14.230973243713379 16.74345588684082 14.444950103759766 17.751998901367188 15.958377838134766 C18.997543334960938 17.82745361328125 18.890174865722656 20.064395904541016 17.918434143066406 21.820524215698242 C16.94669532775879 23.57665252685547 15.110584259033203 24.851966857910156 12.89864730834961 24.79778480529785 C10.694662094116211 24.743797302246094 9.1653413772583 23.468547821044922 8.477124214172363 21.779878616333008 C7.788907051086426 20.091209411621094 7.941793441772461 17.989118576049805 9.10222339630127 16.281448364257812 C10.25101089477539 14.590910911560059 11.762238502502441 14.271026611328125 13.64206600189209 13.99827766418457 L13.64206600189209 13.99827766418457"></path>
<path fill="none" stroke="black" stroke-width=".3" stroke-opacity="1.0"  filling="0" d="M13.474292755126953 14.958179473876953 L13.474292755126953 14.958179473876953 C14.811802864074707 15.185405731201172 15.437623977661133 15.063806533813477 16.439050674438477 16.0813045501709 C17.827472686767578 17.492008209228516 17.919919967651367 19.4196720123291 17.196044921875 20.999723434448242 C16.47216796875 22.579776763916016 14.931970596313477 23.81221580505371 13.05510425567627 23.832473754882812 C11.432329177856445 23.84998893737793 10.268643379211426 23.011016845703125 9.641618728637695 21.823684692382812 C9.014593124389648 20.636354446411133 8.92422866821289 19.100662231445312 9.44809341430664 17.7247371673584 C10.18912410736084 15.778425216674805 11.636505126953125 15.335434913635254 13.474292755126953 14.958179473876953 L13.474292755126953 14.958179473876953"></path></svg>