<svg xmlns="http://www.w3.org/2000/svg" viewBox="0.0 0.0 24.0 24.0" height="200px" width="200px"><path fill="none" stroke="black" stroke-width=".3" stroke-opacity="1.0"  filling="0" d="M15.344558715820312 14.49583911895752 L15.344558715820312 14.49583911895752 C15.473365783691406 14.683226585388184 15.602173805236816 14.870614051818848 15.73098087310791 15.058001518249512 L15.73098087310791 15.058001518249512 C15.025386810302734 15.294110298156738 14.247222900390625 15.375314712524414 13.614198684692383 15.766327857971191 C12.370136260986328 16.534772872924805 11.81825065612793 18.26992416381836 11.51781940460205 20.136577606201172 C11.217388153076172 22.00322914123535 11.168413162231445 24.001384735107422 10.930169105529785 25.295839309692383 L10.930169105529785 25.295839309692383 C10.662298202514648 25.255163192749023 10.394428253173828 25.214488983154297 10.126557350158691 25.173812866210938 L10.126557350158691 25.173812866210938 C10.321451187133789 23.52330780029297 10.516332626342773 21.872802734375 10.711196899414062 20.22229766845703 C10.906060218811035 18.57179069519043 11.100906372070312 16.921281814575195 11.295731544494629 15.270769119262695 L11.295731544494629 15.270769119262695 C12.645352363586426 15.012523651123047 13.99496078491211 14.754206657409668 15.344558715820312 14.49583911895752 L15.344558715820312 14.49583911895752"></path></svg>