<svg xmlns="http://www.w3.org/2000/svg" viewBox="0.0 0.0 24.0 24.0" height="200px" width="200px"><path fill="none" stroke="black" stroke-width=".3" stroke-opacity="1.0"  filling="0" d="M13.51472282409668 11.413687705993652 L13.51472282409668 11.413687705993652 C13.51472282409668 12.352363586425781 13.51472282409668 13.291038513183594 13.51472282409668 14.229714393615723 L13.51472282409668 14.229714393615723 C14.04251480102539 14.414755821228027 14.570307731628418 14.599796295166016 15.098099708557129 14.78483772277832 L15.098099708557129 14.78483772277832 C14.53042221069336 14.99603271484375 13.96274471282959 15.207228660583496 13.39506721496582 15.418423652648926 L13.39506721496582 15.418423652648926 C13.078798294067383 17.683652877807617 12.762514114379883 19.94887351989746 12.446060180664062 22.21407699584961 L12.446060180664062 22.21407699584961 C12.293450355529785 22.210546493530273 12.140840530395508 22.20701789855957 11.98823070526123 22.203487396240234 L11.98823070526123 22.203487396240234 C11.809075355529785 20.897836685180664 12.118948936462402 19.58445167541504 12.26576042175293 18.324975967407227 C12.412572860717773 17.065502166748047 12.396324157714844 15.85993766784668 11.564924240112305 14.769929885864258 L11.564924240112305 14.769929885864258 C12.886880874633789 13.729022026062012 12.879924774169922 12.938989639282227 13.51472282409668 11.413687705993652 L13.51472282409668 11.413687705993652"></path></svg>