<svg xmlns="http://www.w3.org/2000/svg" viewBox="0.0 0.0 24.0 24.0" height="200px" width="200px"><path fill="none" stroke="black" stroke-width=".3" stroke-opacity="1.0"  filling="0" d="M11.069786071777344 9.245615005493164 L11.069786071777344 9.245615005493164 C10.960761070251465 10.726716995239258 10.652631759643555 12.155436515808105 10.371955871582031 13.586438179016113 C10.091279029846191 15.017440795898438 9.838056564331055 16.450725555419922 9.83884334564209 17.940956115722656 L9.83884334564209 17.940956115722656 C11.666290283203125 17.73040008544922 12.59035873413086 16.81216812133789 13.106348991394043 15.556388854980469 C13.62233829498291 14.300609588623047 13.730249404907227 12.707280158996582 13.92537784576416 11.146525382995605 L13.92537784576416 11.146525382995605 C13.349128723144531 10.92735481262207 12.772879600524902 10.708185195922852 12.196630477905273 10.489014625549316 L12.196630477905273 10.489014625549316 C11.902318000793457 8.566975593566895 16.21303367614746 9.257823944091797 17.19469451904297 9.248285293579102 L17.19469451904297 9.248285293579102 C16.908199310302734 10.605718612670898 16.621707916259766 11.963151931762695 16.335216522216797 13.320585250854492 C16.048725128173828 14.678018569946289 15.762232780456543 16.035449981689453 15.475732803344727 17.39288330078125 L15.475732803344727 17.39288330078125 C15.937207221984863 17.77353858947754 16.398681640625 18.15419578552246 16.86015510559082 18.53485107421875 L16.86015510559082 18.53485107421875 C15.514063835144043 19.780311584472656 14.534415245056152 19.472610473632812 12.635712623596191 19.45794677734375 L12.635712623596191 19.45794677734375 C12.491872787475586 19.134084701538086 12.34803295135498 18.810222625732422 12.204193115234375 18.486360549926758 L12.204193115234375 18.486360549926758 C11.99491024017334 18.625930786132812 10.726155281066895 19.498764038085938 10.444305419921875 19.586069107055664 C7.7981276512146 20.405746459960938 7.096379280090332 19.016460418701172 7.1149396896362305 17.081363677978516 C7.133500099182129 15.146265029907227 7.872368812561035 12.66535472869873 8.107426643371582 11.301783561706543 L8.107426643371582 11.301783561706543 C7.54926872253418 10.941591262817383 6.9911112785339355 10.581398010253906 6.432953357696533 10.221205711364746 L6.432953357696533 10.221205711364746 C8.151602745056152 9.131874084472656 9.07254695892334 9.272392272949219 11.069786071777344 9.245615005493164 L11.069786071777344 9.245615005493164"></path></svg>