<svg xmlns="http://www.w3.org/2000/svg" viewBox="0.0 0.0 24.0 24.0" height="200px" width="200px"><path fill="none" stroke="black" stroke-width=".3" stroke-opacity="1.0"  filling="0" d="M9.989974021911621 7.6499152183532715 L9.989974021911621 7.6499152183532715 C11.257867813110352 7.6499152183532715 12.525762557983398 7.6499152183532715 13.793657302856445 7.6499152183532715 C15.061552047729492 7.6499152183532715 16.32944679260254 7.6499152183532715 17.597341537475586 7.6499152183532715 L17.597341537475586 7.6499152183532715 C16.55140495300293 8.946513175964355 15.505633354187012 10.243245124816895 14.459203720092773 11.539445877075195 C13.412775039672852 12.835646629333496 12.36568832397461 14.131317138671875 11.317123413085938 15.425790786743164 C10.50684642791748 16.42609405517578 9.563037872314453 18.66814422607422 8.155202865600586 18.20903968811035 L8.155202865600586 18.20903968811035 C9.270526885986328 16.77782440185547 10.385860443115234 15.346616744995117 11.501185417175293 13.915403366088867 C12.616510391235352 12.4841890335083 13.731827735900879 11.052968978881836 14.84712028503418 9.621729850769043 L14.84712028503418 9.621729850769043 C14.765109062194824 9.480279922485352 14.683097839355469 9.338829040527344 14.601086616516113 9.197379112243652 L14.601086616516113 9.197379112243652 C12.512335777282715 9.195834159851074 11.132118225097656 9.171151161193848 9.160941123962402 9.926128387451172 L9.160941123962402 9.926128387451172 C9.181028366088867 9.870979309082031 9.980443954467773 7.676083087921143 9.989974021911621 7.6499152183532715 L9.989974021911621 7.6499152183532715"></path></svg>