<svg xmlns="http://www.w3.org/2000/svg" viewBox="0.0 0.0 24.0 24.0" height="200px" width="200px"><path fill="none" stroke="black" stroke-width=".3" stroke-opacity="1.0"  filling="0" d="M15.19890308380127 6.89766788482666 C17.901235580444336 7.375583171844482 19.073251724243164 9.404664993286133 19.58793067932129 11.895198822021484 C19.7903995513916 12.87462329864502 19.917694091796875 13.869409561157227 20.04993438720703 14.674897193908691 C19.726749420166016 17.8968448638916 19.24883460998535 20.853771209716797 17.294925689697266 23.338272094726562 C15.696571350097656 25.370643615722656 13.614266395568848 26.394512176513672 11.050206184387207 25.859535217285156 C8.478464126586914 25.322908401489258 7.387654781341553 23.292728424072266 6.880659103393555 20.944856643676758 C6.009327411651611 16.909191131591797 6.73086404800415 13.139094352722168 9.10452651977539 9.747050285339355 C10.568449020385742 7.654869556427002 12.586008071899414 6.435665607452393 15.19890308380127 6.89766788482666"></path>
<path fill="none" stroke="black" stroke-width=".3" stroke-opacity="1.0"  filling="0" d="M10.843896865844727 9.381070137023926 C13.283951759338379 6.9547319412231445 16.612895965576172 7.537447452545166 17.896846771240234 10.731961250305176 C18.4279842376709 12.05377197265625 18.552539825439453 13.538545608520508 18.90699577331543 15.155555725097656 C18.370920181274414 17.0754451751709 17.947874069213867 19.133607864379883 17.1950626373291 21.063922882080078 C16.78573226928711 22.113033294677734 15.95829963684082 23.117149353027344 15.072702407836914 23.83978271484375 C12.684774398803711 25.788204193115234 9.816736221313477 25.02112579345703 8.53113842010498 22.233196258544922 C6.889986515045166 18.67270278930664 8.064197540283203 12.144856452941895 10.843896865844727 9.381070137023926"></path></svg>