<svg xmlns="http://www.w3.org/2000/svg" viewBox="0.0 0.0 24.0 24.0" height="200px" width="200px"><path fill="none" stroke="black" stroke-width=".3" stroke-opacity="1.0"  filling="0" d="M15.529766082763672 9.628769874572754 L15.529766082763672 9.628769874572754 C15.609797477722168 9.67280387878418 15.68982982635498 9.716836929321289 15.769861221313477 9.760870933532715 L15.769861221313477 9.760870933532715 C15.611371040344238 11.073968887329102 15.45284652709961 12.387063026428223 15.294315338134766 13.700155258178711 C15.135784149169922 15.013248443603516 14.977246284484863 16.326339721679688 14.818727493286133 17.639434814453125 L14.818727493286133 17.639434814453125 C15.268204689025879 17.753482818603516 15.717680931091309 17.867530822753906 16.167158126831055 17.981578826904297 L16.167158126831055 17.981578826904297 C16.180917739868164 18.072839736938477 16.194679260253906 18.164100646972656 16.208438873291016 18.255361557006836 L16.208438873291016 18.255361557006836 C15.724946022033691 18.391096115112305 15.241453170776367 18.526830673217773 14.757960319519043 18.662565231323242 L14.757960319519043 18.662565231323242 C14.605822563171387 19.251190185546875 14.453685760498047 19.839813232421875 14.30154800415039 20.428438186645508 L14.30154800415039 20.428438186645508 C14.190582275390625 20.42524528503418 14.07961654663086 20.422054290771484 13.968650817871094 20.418861389160156 L13.968650817871094 20.418861389160156 C13.906783103942871 19.780479431152344 13.844915390014648 19.1420955657959 13.783047676086426 18.503713607788086 L13.783047676086426 18.503713607788086 C11.872190475463867 18.503713607788086 9.961337089538574 18.503713607788086 8.050480842590332 18.503713607788086 L8.050480842590332 18.503713607788086 C9.297042846679688 17.024568557739258 10.543622970581055 15.545438766479492 11.790183067321777 14.066291809082031 C13.0367431640625 12.587145805358887 14.283283233642578 11.107982635498047 15.529766082763672 9.628769874572754 L15.529766082763672 9.628769874572754"></path>
<path fill="none" stroke="black" stroke-width=".3" stroke-opacity="1.0"  filling="0" d="M14.531734466552734 11.808120727539062 L14.531734466552734 11.808120727539062 C14.613858222961426 11.838724136352539 14.695981979370117 11.869328498840332 14.778105735778809 11.899931907653809 L14.778105735778809 11.899931907653809 C14.543770790100098 13.838201522827148 14.309407234191895 15.776473999023438 14.074993133544922 17.714733123779297 L14.074993133544922 17.714733123779297 C12.564626693725586 17.714733123779297 11.05426025390625 17.714733123779297 9.543893814086914 17.714733123779297 L9.543893814086914 17.714733123779297 C10.375139236450195 16.73024559020996 11.206402778625488 15.745774269104004 12.037703514099121 14.761333465576172 C12.869003295898438 13.776893615722656 13.70034122467041 12.792484283447266 14.531734466552734 11.808120727539062 L14.531734466552734 11.808120727539062"></path></svg>