<svg xmlns="http://www.w3.org/2000/svg" viewBox="0.0 0.0 24.0 24.0" height="200px" width="200px"><path fill="none" stroke="black" stroke-width=".3" stroke-opacity="1.0"  filling="0" d="M13.927935600280762 8.443510055541992 C15.966703414916992 8.362507820129395 17.330078125 9.672245025634766 17.383169174194336 11.763009071350098 C17.443920135498047 14.14494800567627 15.899930953979492 15.983396530151367 13.776328086853027 16.05892562866211 C11.762736320495605 16.130626678466797 10.307411193847656 14.752473831176758 10.26034164428711 12.730123519897461 C10.206705093383789 10.40620231628418 11.814184188842773 8.52779769897461 13.927935600280762 8.443510055541992"></path>
<path fill="none" stroke="black" stroke-width=".3" stroke-opacity="1.0"  filling="0" d="M10.80711555480957 8.589646339416504 C12.767616271972656 6.9099202156066895 15.848483085632324 6.922508716583252 17.52985191345215 8.617012023925781 C19.50458335876465 10.606522560119629 19.025676727294922 13.695051193237305 16.094778060913086 16.7381534576416 C17.97591781616211 18.085107803344727 18.496967315673828 20.07406997680664 17.859886169433594 22.16647720336914 C17.487707138061523 23.38754653930664 16.718175888061523 24.68634033203125 15.745587348937988 25.485427856445312 C13.591333389282227 27.254913330078125 9.977376937866211 26.68460464477539 8.407662391662598 24.593294143676758 C6.640365123748779 22.238174438476562 7.429601192474365 19.208209991455078 10.671926498413086 16.44205093383789 C8.509464263916016 13.502941131591797 8.588825225830078 10.48994255065918 10.80711555480957 8.589646339416504"></path>
<path fill="none" stroke="black" stroke-width=".3" stroke-opacity="1.0"  filling="0" d="M13.184675216674805 17.166704177856445 C15.50695514678955 17.20611000061035 16.857742309570312 18.622028350830078 16.818334579467773 20.97605323791504 C16.774002075195312 23.65026092529297 14.91749095916748 25.466815948486328 12.328118324279785 25.371034622192383 C10.29755973815918 25.296052932739258 8.779840469360352 23.71703338623047 8.757946968078613 21.656917572021484 C8.730033874511719 19.042917251586914 10.623215675354004 17.1229190826416 13.184675216674805 17.166704177856445"></path></svg>