<svg xmlns="http://www.w3.org/2000/svg" viewBox="0.0 0.0 24.0 24.0" height="200px" width="200px"><path fill="none" stroke="black" stroke-width=".3" stroke-opacity="1.0"  filling="0" d="M13.679488182067871 7.955741882324219 C16.639455795288086 7.980058193206787 18.667110443115234 10.039766311645508 18.645557403564453 13.000840187072754 C18.62124252319336 16.411212921142578 16.043704986572266 19.051753997802734 12.820125579833984 18.969961166381836 C9.877842903137207 18.89590835571289 8.026481628417969 16.867700576782227 8.073455810546875 13.771227836608887 C8.125957489013672 10.339853286743164 10.450383186340332 7.929214954376221 13.679488182067871 7.955741882324219"></path>
<path fill="none" stroke="black" stroke-width=".3" stroke-opacity="1.0"  filling="0" d="M9.744102478027344 8.012664794921875 C12.118266105651855 6.3994927406311035 15.594404220581055 6.441494464874268 17.75082778930664 8.109930038452148 C19.628713607788086 9.562281608581543 20.423973083496094 12.29842758178711 19.60992431640625 14.8378324508667 C19.333602905273438 15.698854446411133 18.965539932250977 16.59634780883789 18.406816482543945 17.289365768432617 C16.025468826293945 20.241043090820312 13.557354927062988 23.122535705566406 11.12074089050293 26.029449462890625 C10.849392890930176 25.818893432617188 10.57914924621582 25.60723114013672 10.30835247039795 25.39556884765625 C11.620332717895508 23.7337646484375 12.932312965393066 22.072511672973633 14.428875923156738 20.176937103271484 C13.683357238769531 20.119464874267578 13.341269493103027 20.085750579833984 12.998629570007324 20.068065643310547 C9.686075210571289 19.897851943969727 7.774474620819092 18.537792205810547 7.025087833404541 15.814355850219727 C6.230384349822998 12.926233291625977 7.383754730224609 9.616440773010254 9.744102478027344 8.012664794921875"></path></svg>