<svg xmlns="http://www.w3.org/2000/svg" viewBox="0.0 0.0 24.0 24.0" height="200px" width="200px"><path fill="none" stroke="black" stroke-width=".3" stroke-opacity="1.0"  filling="0" d="M7.559395790100098 8.351659774780273 C9.354496955871582 8.351659774780273 11.082490921020508 8.12257194519043 12.726602554321289 8.396783828735352 C16.807376861572266 9.077104568481445 18.298763275146484 12.542348861694336 16.203418731689453 16.113460540771484 C16.067468643188477 16.345439910888672 15.953503608703613 16.589570999145508 15.771273612976074 16.938987731933594 C16.19936752319336 17.236339569091797 16.588123321533203 17.483938217163086 16.952003479003906 17.763935089111328 C18.63834571838379 19.063257217407227 19.233627319335938 20.818443298339844 18.87784767150879 22.856515884399414 C18.51338768005371 24.946075439453125 17.207124710083008 26.40853500366211 15.154009819030762 26.764896392822266 C12.74280071258545 27.183731079101562 10.266798973083496 27.231746673583984 7.559395790100098 27.462570190429688 C7.559395790100098 20.740345001220703 7.559395790100098 14.628438949584961 7.559395790100098 8.351659774780273"></path>
<path fill="none" stroke="black" stroke-width=".3" stroke-opacity="1.0"  filling="0" d="M10.514399528503418 11.262117385864258 C13.4346923828125 11.042284965515137 14.275259971618652 11.526493072509766 14.375920295715332 13.384073257446289 C14.482942581176758 15.359089851379395 13.536508560180664 16.087427139282227 10.514399528503418 16.156848907470703 C10.514399528503418 14.385465621948242 10.514399528503418 12.816560745239258 10.514399528503418 11.262117385864258"></path>
<path fill="none" stroke="black" stroke-width=".3" stroke-opacity="1.0"  filling="0" d="M10.497044563293457 18.823755264282227 C12.538009643554688 18.613758087158203 14.460959434509277 18.357479095458984 15.52888011932373 20.20059585571289 C15.950610160827637 20.927776336669922 15.904909133911133 22.33932876586914 15.462930679321289 23.07171630859375 C14.331375122070312 24.9443359375 12.393383979797363 24.405170440673828 10.497044563293457 24.360626220703125 C10.497044563293457 22.471229553222656 10.497044563293457 20.794143676757812 10.497044563293457 18.823755264282227"></path></svg>