<svg xmlns="http://www.w3.org/2000/svg" viewBox="0.0 0.0 24.0 24.0" height="200px" width="200px"><path fill="none" stroke="black" stroke-width=".3" stroke-opacity="1.0"  filling="0" d="M9.336894989013672 9.809703826904297 L9.336894989013672 9.809703826904297 C10.841733932495117 9.85885238647461 13.12700080871582 9.59001350402832 14.35197639465332 10.743985176086426 C16.378847122192383 12.653369903564453 14.872875213623047 14.99622917175293 12.985438346862793 16.044147491455078 L12.985438346862793 16.044147491455078 C14.048086166381836 17.522109985351562 15.110766410827637 19.00005340576172 16.173362731933594 20.478050231933594 L16.173362731933594 20.478050231933594 C15.552811622619629 20.51315689086914 14.932259559631348 20.54826545715332 14.311708450317383 20.583372116088867 L14.311708450317383 20.583372116088867 C13.281256675720215 19.13833999633789 12.250771522521973 17.69332504272461 11.220328330993652 16.248289108276367 L11.220328330993652 16.248289108276367 C11.12215805053711 16.289030075073242 11.023988723754883 16.32977294921875 10.92581844329834 16.370513916015625 L10.92581844329834 16.370513916015625 C10.92581844329834 17.729507446289062 10.92581844329834 19.0885009765625 10.92581844329834 20.447494506835938 L10.92581844329834 20.447494506835938 C10.396068572998047 20.501455307006836 9.86631965637207 20.555418014526367 9.336569786071777 20.609378814697266 L9.336569786071777 20.609378814697266 C9.336708068847656 18.809432983398438 9.336788177490234 17.00948715209961 9.336834907531738 15.209541320800781 C9.336880683898926 13.409595489501953 9.336893081665039 11.609649658203125 9.336894989013672 9.809703826904297 L9.336894989013672 9.809703826904297"></path>
<path fill="none" stroke="black" stroke-width=".3" stroke-opacity="1.0"  filling="0" d="M10.955399513244629 11.513700485229492 L10.955399513244629 11.513700485229492 C11.734414100646973 11.479107856750488 12.913265228271484 11.150558471679688 13.394696235656738 12.18171215057373 C13.903800964355469 13.272139549255371 13.480618476867676 14.254888534545898 12.40019702911377 14.618246078491211 C11.94367504119873 14.771780014038086 11.43699836730957 14.632006645202637 10.955399513244629 14.638887405395508 L10.955399513244629 14.638887405395508 C10.955399513244629 13.597158432006836 10.955399513244629 12.555429458618164 10.955399513244629 11.513700485229492 L10.955399513244629 11.513700485229492"></path></svg>