<svg xmlns="http://www.w3.org/2000/svg" viewBox="0.0 0.0 24.0 24.0" height="200px" width="200px"><path fill="none" stroke="black" stroke-width=".3" stroke-opacity="1.0"  filling="0" d="M6.722114086151123 8.9583740234375 L6.722114086151123 8.9583740234375 C7.861775875091553 8.9583740234375 9.00143814086914 8.9583740234375 10.14109992980957 8.9583740234375 L10.14109992980957 8.9583740234375 C9.937307357788086 9.282393455505371 9.733513832092285 9.606413841247559 9.5297212600708 9.93043327331543 L9.5297212600708 9.93043327331543 C9.92824935913086 11.24094009399414 10.326828002929688 12.551437377929688 10.725385665893555 13.861932754516602 L10.725385665893555 13.861932754516602 C11.491185188293457 11.791126251220703 11.721702575683594 10.9895601272583 10.606911659240723 8.961406707763672 L10.606911659240723 8.961406707763672 C11.786537170410156 8.961406707763672 12.966161727905273 8.961406707763672 14.145787239074707 8.961406707763672 L14.145787239074707 8.961406707763672 C13.908230781555176 9.299983024597168 13.670675277709961 9.638559341430664 13.43311882019043 9.97713565826416 L13.43311882019043 9.97713565826416 C13.818608283996582 11.278265953063965 14.204086303710938 12.579399108886719 14.589561462402344 13.880533218383789 L14.589561462402344 13.880533218383789 C14.967310905456543 12.616046905517578 15.345105171203613 11.351573944091797 15.722955703735352 10.087118148803711 L15.722955703735352 10.087118148803711 C15.525498390197754 9.711139678955078 15.32804012298584 9.335161209106445 15.130582809448242 8.959182739257812 L15.130582809448242 8.959182739257812 C15.927760124206543 8.959182739257812 16.724937438964844 8.959182739257812 17.522113800048828 8.959182739257812 L17.522113800048828 8.959182739257812 C16.753463745117188 11.171530723571777 15.929028511047363 13.225210189819336 15.32002067565918 15.533113479614258 L15.32002067565918 15.533113479614258 C14.61301326751709 15.533113479614258 13.906006813049316 15.533113479614258 13.198999404907227 15.533113479614258 L13.198999404907227 15.533113479614258 C12.93106460571289 14.723530769348145 12.663115501403809 13.91395378112793 12.395151138305664 13.104381561279297 L12.395151138305664 13.104381561279297 C12.336385726928711 13.099596977233887 12.277620315551758 13.094812393188477 12.218854904174805 13.090027809143066 L12.218854904174805 13.090027809143066 C11.934475898742676 13.907764434814453 11.6500825881958 14.725496292114258 11.36567497253418 15.543222427368164 L11.36567497253418 15.543222427368164 C11.320978164672852 15.543222427368164 9.321798324584961 15.543222427368164 9.319459915161133 15.543222427368164 L9.319459915161133 15.543222427368164 C8.560461044311523 13.198600769042969 7.78632926940918 11.14923095703125 6.722114086151123 8.9583740234375 L6.722114086151123 8.9583740234375"></path></svg>