<svg xmlns="http://www.w3.org/2000/svg" viewBox="0.0 0.0 24.0 24.0" height="200px" width="200px"><path fill="none" stroke="black" stroke-width=".3" stroke-opacity="1.0"  filling="0" d="M7.529722690582275 7.609635829925537 C9.039356231689453 10.090497970581055 10.536157608032227 12.550945281982422 12.156038284301758 15.213804244995117 C13.700088500976562 12.626193046569824 15.13214111328125 10.225245475769043 16.605609893798828 7.756049633026123 C17.56633758544922 7.756049633026123 18.51481819152832 7.756049633026123 19.86637306213379 7.756049633026123 C18.428485870361328 10.27424430847168 17.23326301574707 12.658859252929688 15.765626907348633 14.862062454223633 C14.146912574768066 17.29159164428711 13.233431816101074 19.79987144470215 13.58400821685791 22.752056121826172 C13.73042106628418 23.9846134185791 13.60850715637207 25.24808692932129 13.60850715637207 26.80963897705078 C12.522363662719727 26.80963897705078 11.77396297454834 26.80963897705078 10.663904190063477 26.80963897705078 C10.663904190063477 25.147174835205078 10.534406661987305 23.51737403869629 10.694236755371094 21.91732406616211 C10.929315567016602 19.56479263305664 10.203081130981445 17.588504791259766 8.96410846710205 15.643712043762207 C7.410141468048096 13.20543098449707 6.031171798706055 10.655736923217773 4.3972907066345215 7.844714164733887 C5.579681396484375 7.756049156188965 6.470411777496338 7.688967227935791 7.529722690582275 7.609635829925537"></path></svg>