<svg xmlns="http://www.w3.org/2000/svg" viewBox="0.0 0.0 24.0 24.0" height="200px" width="200px"><path fill="none" stroke="black" stroke-width=".3" stroke-opacity="1.0"  filling="0" d="M11.075008392333984 9.474299430847168 L11.075008392333984 9.474299430847168 C12.223661422729492 9.293521881103516 13.84538459777832 9.214305877685547 15.199267387390137 9.593430519104004 C16.553150177001953 9.972554206848145 17.639192581176758 10.810018539428711 17.71648406982422 12.462601661682129 C17.876985549926758 15.894339561462402 12.489340782165527 14.908319473266602 13.723856925964355 12.451276779174805 C13.959233283996582 11.982810020446777 14.52811050415039 11.7785005569458 14.93023681640625 11.442112922668457 L14.93023681640625 11.442112922668457 C13.856446266174316 11.279022216796875 12.734920501708984 10.769640922546387 11.796344757080078 11.681303024291992 C10.756775856018066 12.691062927246094 10.51237678527832 15.44820499420166 11.26286792755127 16.65547752380371 C11.866500854492188 17.626508712768555 13.306217193603516 18.239503860473633 14.388673782348633 17.571056365966797 C14.878809928894043 17.268383026123047 14.994734764099121 16.59122657775879 15.297765731811523 16.10131072998047 L15.297765731811523 16.10131072998047 C16.185678482055664 16.10131072998047 17.073589324951172 16.10131072998047 17.961502075195312 16.10131072998047 L17.961502075195312 16.10131072998047 C17.24555778503418 17.46885871887207 16.744565963745117 18.783662796020508 15.214877128601074 19.43364715576172 C12.687633514404297 20.507503509521484 9.992646217346191 19.605539321899414 8.41242790222168 17.85172462463379 C6.832210063934326 16.097909927368164 6.366762161254883 13.492244720458984 8.298599243164062 11.15870189666748 C9.19655990600586 10.074019432067871 9.80538272857666 10.008432388305664 11.075008392333984 9.474299430847168 L11.075008392333984 9.474299430847168"></path></svg>