<svg xmlns="http://www.w3.org/2000/svg" viewBox="0.0 0.0 24.0 24.0" height="200px" width="200px"><path fill="none" stroke="black" stroke-width=".3" stroke-opacity="1.0"  filling="0" d="M12.20549201965332 9.70001220703125 L12.20549201965332 9.70001220703125 C12.714900970458984 9.977216720581055 13.224309921264648 10.25442123413086 13.733718872070312 10.531625747680664 L13.733718872070312 10.531625747680664 C13.310873985290527 10.88076400756836 13.0121488571167 11.539981842041016 12.465185165405273 11.579039573669434 C9.975295066833496 11.756837844848633 12.105269432067871 9.822998046875 12.20549201965332 9.70001220703125 L12.20549201965332 9.70001220703125"></path>
<path fill="none" stroke="black" stroke-width=".3" stroke-opacity="1.0"  filling="0" d="M11.616613388061523 13.68882942199707 L11.616613388061523 13.68882942199707 C12.102191925048828 13.68882942199707 12.58777141571045 13.68882942199707 13.073349952697754 13.68882942199707 L13.073349952697754 13.68882942199707 C13.073349952697754 15.959001541137695 13.073349952697754 18.229175567626953 13.073349952697754 20.499347686767578 L13.073349952697754 20.499347686767578 C12.58777141571045 20.499347686767578 12.102191925048828 20.499347686767578 11.616613388061523 20.499347686767578 L11.616613388061523 20.499347686767578 C11.616613388061523 18.229175567626953 11.616613388061523 15.959001541137695 11.616613388061523 13.68882942199707 L11.616613388061523 13.68882942199707"></path></svg>