<svg xmlns="http://www.w3.org/2000/svg" viewBox="0.0 0.0 24.0 24.0" height="200px" width="200px"><path fill="none" stroke="black" stroke-width=".3" stroke-opacity="1.0"  filling="0" d="M16.265037536621094 11.044240951538086 C17.935415267944336 11.044240951538086 19.405731201171875 11.044240951538086 20.997150421142578 11.044240951538086 C17.810575485229492 14.326845169067383 17.464336395263672 18.90958023071289 14.737103462219238 23.012699127197266 C13.603424072265625 20.221981048583984 12.682076454162598 17.954086303710938 11.526522636413574 15.109484672546387 C10.27173900604248 17.81911277770996 9.197811126708984 20.138221740722656 7.993709564208984 22.73794937133789 C5.1949872970581055 19.126178741455078 5.17578125 14.380727767944336 1.7976818084716797 11.073049545288086 C3.8804521560668945 11.073049545288086 5.734352111816406 11.073049545288086 7.640534400939941 11.073049545288086 C6.491383075714111 13.50525951385498 8.320209503173828 15.315945625305176 8.920926094055176 17.42485809326172 C9.511507034301758 15.400772094726562 12.026941299438477 13.579950332641602 9.090044021606445 11.12053108215332 C11.150940895080566 11.12053108215332 12.832521438598633 11.12053108215332 14.611198425292969 11.12053108215332 C13.533002853393555 13.481252670288086 15.159632682800293 15.309544563293457 16.07777976989746 17.9743595123291 C16.42241859436035 15.314346313476562 18.815683364868164 13.456178665161133 16.265037536621094 11.044240951538086"></path></svg>