<svg xmlns="http://www.w3.org/2000/svg" viewBox="0.0 0.0 24.0 24.0" height="200px" width="200px"><path fill="none" stroke="black" stroke-width=".3" stroke-opacity="1.0"  filling="0" d="M12.045782089233398 10.719883918762207 C13.814821243286133 10.878357887268066 15.563316345214844 11.259868621826172 17.578868865966797 11.590903282165527 C17.578868865966797 17.422740936279297 17.578868865966797 23.528099060058594 17.578868865966797 29.894641876220703 C16.686134338378906 29.894641876220703 16.01584815979004 29.894641876220703 15.035656929016113 29.894641876220703 C15.035656929016113 27.62083625793457 15.035656929016113 25.418048858642578 15.035656929016113 22.878944396972656 C14.151137351989746 23.237564086914062 13.654585838317871 23.602054595947266 13.151577949523926 23.611446380615234 C11.654878616333008 23.638446807861328 9.98503303527832 23.93015480041504 8.693764686584473 23.383712768554688 C6.0654449462890625 22.2708740234375 5.224359035491943 19.802200317382812 5.315921783447266 17.087600708007812 C5.408071994781494 14.358327865600586 6.469847202301025 12.116802215576172 9.196772575378418 11.099634170532227 C10.077183723449707 10.77153491973877 11.110198974609375 10.635951042175293 12.045782089233398 10.719883918762207"></path>
<path fill="none" stroke="black" stroke-width=".3" stroke-opacity="1.0"  filling="0" d="M11.581511497497559 13.29302978515625 C13.609391212463379 13.263094902038574 15.177108764648438 15.087306022644043 15.138371467590332 17.432720184326172 C15.09963321685791 19.782245635986328 13.453265190124512 21.61760711669922 11.475275039672852 21.51665496826172 C9.735584259033203 21.427438735961914 8.197213172912598 19.4400577545166 8.232429504394531 17.32765769958496 C8.270580291748047 15.082024574279785 9.732648849487305 13.320028305053711 11.581511497497559 13.29302978515625"></path></svg>