<svg xmlns="http://www.w3.org/2000/svg" viewBox="0.0 0.0 24.0 24.0" height="200px" width="200px"><path fill="none" stroke="black" stroke-width=".3" stroke-opacity="1.0"  filling="0" d="M7.083562850952148 9.96432113647461 L7.083562850952148 9.96432113647461 C8.820188522338867 10.108705520629883 10.773826599121094 10.496565818786621 12.515127182006836 10.379705429077148 C13.446004867553711 10.317233085632324 14.350250244140625 9.940529823303223 15.282937049865723 9.963584899902344 C16.385723114013672 9.9908447265625 17.506820678710938 10.012687683105469 17.840213775634766 11.456518173217773 C18.367023468017578 13.7379789352417 14.563854217529297 14.91605281829834 14.253418922424316 12.84050178527832 C14.170646667480469 12.287091255187988 14.481417655944824 11.744839668273926 14.595417022705078 11.19700813293457 L14.595417022705078 11.19700813293457 C11.792930603027344 12.653749465942383 12.420049667358398 14.932392120361328 12.70114517211914 17.788450241088867 L12.70114517211914 17.788450241088867 C13.30437183380127 17.95005989074707 13.907599449157715 18.11166763305664 14.510826110839844 18.273277282714844 L14.510826110839844 18.273277282714844 C14.510826110839844 18.74197006225586 14.510826110839844 19.210662841796875 14.510826110839844 19.67935562133789 L14.510826110839844 19.67935562133789 C12.047136306762695 19.67935562133789 9.583444595336914 19.67935562133789 7.119756698608398 19.67935562133789 L7.119756698608398 19.67935562133789 C7.119756698608398 19.24433135986328 7.119756698608398 18.80930519104004 7.119756698608398 18.37428092956543 L7.119756698608398 18.37428092956543 C7.6741814613342285 18.114192962646484 8.42226791381836 18.088871002197266 8.783031463623047 17.59401512145996 C9.526917457580566 16.573631286621094 9.030570030212402 13.364890098571777 9.029600143432617 12.169605255126953 L9.029600143432617 12.169605255126953 C8.40799617767334 11.973627090454102 7.7863922119140625 11.777647972106934 7.164788246154785 11.581669807434082 L7.164788246154785 11.581669807434082 C7.1377129554748535 11.042553901672363 7.11063814163208 10.503437042236328 7.083562850952148 9.96432113647461 L7.083562850952148 9.96432113647461"></path></svg>