<svg xmlns="http://www.w3.org/2000/svg" viewBox="0.0 0.0 24.0 24.0" height="200px" width="200px"><path fill="none" stroke="black" stroke-width=".3" stroke-opacity="1.0"  filling="0" d="M12.797393798828125 13.307563781738281 C14.010557174682617 16.074195861816406 14.987858772277832 18.303112030029297 16.205612182617188 21.08179473876953 C17.408447265625 18.46723747253418 18.342134475708008 16.437456130981445 19.31771469116211 14.316429138183594 C20.26403045654297 14.316429138183594 21.185665130615234 14.316429138183594 22.397682189941406 14.316429138183594 C20.37191390991211 18.572256088256836 18.4356746673584 22.64215087890625 16.218812942504883 27.299686431884766 C14.995319366455078 24.556583404541016 14.043267250061035 22.421207427978516 12.850189208984375 19.74582290649414 C11.655963897705078 22.32709503173828 10.647098541259766 24.506656646728516 9.402372360229492 27.196962356567383 C7.290527820587158 22.803409576416016 5.346252918243408 18.757617950439453 3.1976804733276367 14.287736892700195 C4.542259693145752 14.287736892700195 5.3778157234191895 14.287736892700195 6.274775981903076 14.287736892700195 C7.280197620391846 16.446063995361328 8.269551277160645 18.57168197631836 9.4459867477417 21.097862243652344 C10.596024513244629 18.425344467163086 11.553815841674805 16.198152542114258 12.797393798828125 13.307563781738281"></path></svg>