<svg xmlns="http://www.w3.org/2000/svg" viewBox="0.0 0.0 24.0 24.0" height="200px" width="200px"><path fill="none" stroke="black" stroke-width=".3" stroke-opacity="1.0"  filling="0" d="M16.052108764648438 8.725127220153809 L16.052108764648438 8.725127220153809 C16.292509078979492 9.182392120361328 16.659141540527344 9.593087196350098 16.773311614990234 10.09692096710205 C17.15561294555664 11.784011840820312 15.923337936401367 12.860164642333984 14.327123641967773 13.598163604736328 C12.73090934753418 14.336164474487305 10.770755767822266 14.736011505126953 9.697301864624023 15.070489883422852 L9.697301864624023 15.070489883422852 C11.850040435791016 15.30651569366455 14.565735816955566 16.4487361907959 15.689882278442383 14.150758743286133 L15.689882278442383 14.150758743286133 C16.130578994750977 14.195165634155273 16.57127571105957 14.23957347869873 17.011972427368164 14.283980369567871 L17.011972427368164 14.283980369567871 C16.96129035949707 14.885592460632324 17.026155471801758 15.508408546447754 16.859928131103516 16.088817596435547 C16.32198715209961 17.96712875366211 15.164645195007324 18.19444465637207 13.861893653869629 17.966224670410156 C12.559141159057617 17.738004684448242 11.110980033874512 17.054248809814453 9.991399765014648 17.11041259765625 C9.032120704650879 17.15853500366211 8.132438659667969 17.601287841796875 7.188364505767822 17.778078079223633 L7.188364505767822 17.778078079223633 C7.401272773742676 15.864341735839844 7.681907653808594 14.87820816040039 9.334738731384277 13.749073028564453 C10.397104263305664 13.0233154296875 12.66199779510498 12.505936622619629 13.315008163452148 11.298019409179688 C14.89067268371582 8.383406639099121 10.417924880981445 9.06049633026123 9.186003684997559 9.349747657775879 L9.186003684997559 9.349747657775879 C9.429996490478516 10.0707426071167 11.059492111206055 10.03642463684082 10.69527816772461 11.020573616027832 C9.579292297363281 14.036097526550293 5.736470699310303 11.313176155090332 7.88954496383667 8.789545059204102 C8.934690475463867 7.564524173736572 10.417387962341309 7.1639251708984375 11.917771339416504 7.261828422546387 C13.4181547164917 7.359732151031494 14.936223030090332 7.9561381340026855 16.052108764648438 8.725127220153809 L16.052108764648438 8.725127220153809"></path></svg>