<svg xmlns="http://www.w3.org/2000/svg" viewBox="0.0 0.0 24.0 24.0" height="200px" width="200px"><path fill="none" stroke="black" stroke-width=".3" stroke-opacity="1.0"  filling="0" d="M6.226511478424072 5.013995170593262 C11.723091125488281 1.7243661880493164 19.159221649169922 4.09235143661499 20.643001556396484 9.751749992370605 C21.727462768554688 13.889337539672852 20.824832916259766 17.803497314453125 17.5369873046875 20.567237854003906 C14.428598403930664 23.18004608154297 10.578020095825195 23.147361755371094 6.834997653961182 21.860271453857422 C4.8734612464904785 21.18582534790039 3.9494409561157227 19.536258697509766 4.406400203704834 17.97879409790039 C4.885345458984375 16.344675064086914 6.17719030380249 15.956052780151367 7.6734490394592285 16.09866714477539 C9.689653396606445 16.290599822998047 10.184643745422363 17.35604476928711 9.561895370483398 19.978954315185547 C13.486750602722168 20.437103271484375 15.246249198913574 18.457738876342773 14.751855850219727 14.01293659210205 C12.18539810180664 15.0991792678833 9.599925994873047 15.2857666015625 6.96572732925415 14.302918434143066 C4.900796413421631 13.532208442687988 3.7141284942626953 12.100126266479492 3.5364551544189453 9.908031463623047 C3.358187675476074 7.708804607391357 4.360645294189453 6.129949569702148 6.226511478424072 5.013995170593262"></path>
<path fill="none" stroke="black" stroke-width=".3" stroke-opacity="1.0"  filling="0" d="M12.484888076782227 6.0295257568359375 C14.324607849121094 6.273752212524414 15.479782104492188 7.71950101852417 15.2991361618042 9.552684783935547 C15.12384033203125 11.33120059967041 13.629959106445312 12.588579177856445 11.825892448425293 12.47627067565918 C9.938633918762207 12.358614921569824 8.740081787109375 10.795804023742676 8.953409194946289 8.729682922363281 C9.144749641418457 6.872136116027832 10.578020095825195 5.776385307312012 12.484888076782227 6.0295257568359375"></path></svg>