<svg xmlns="http://www.w3.org/2000/svg" viewBox="0.0 0.0 24.0 24.0" height="200px" width="200px"><path fill="none" stroke="black" stroke-width=".3" stroke-opacity="1.0"  filling="0" d="M22.327552795410156 3.6276206970214844 C21.800704956054688 6.178872108459473 21.3896484375 8.168540000915527 20.96025848388672 10.24842643737793 C20.128978729248047 10.289436340332031 19.42844581604004 10.324172973632812 18.7988338470459 10.355051040649414 C18.621288299560547 10.141321182250977 18.450496673583984 10.031320571899414 18.433130264282227 9.901055335998535 C17.935712814331055 6.204442024230957 15.054458618164062 4.818333148956299 11.862981796264648 6.751070499420166 C9.21958065032959 8.351391792297363 7.575355052947998 13.021127700805664 8.638216018676758 15.907690048217773 C9.332959175109863 17.793628692626953 11.399820327758789 18.590652465820312 13.677034378051758 17.846216201782227 C15.575515747070312 17.225772857666016 16.714122772216797 15.834836959838867 17.480270385742188 13.939249992370605 C18.254619598388672 13.939249992370605 19.025592803955078 13.939249992370605 19.80042266845703 13.939249992370605 C19.535552978515625 16.8663387298584 17.615360260009766 19.156579971313477 14.527128219604492 19.950227737426758 C13.148738861083984 20.30483627319336 11.674339294433594 20.46501350402832 10.250116348266602 20.432205200195312 C4.6477837562561035 20.304351806640625 1.8596429824829102 16.200542449951172 3.683344841003418 10.89830207824707 C5.811960697174072 4.710262298583984 12.94513988494873 1.8791847229003906 18.56098175048828 4.788420677185059 C19.904634475708008 4.374469757080078 20.877273559570312 4.074862003326416 22.327552795410156 3.6276206970214844"></path></svg>