<svg xmlns="http://www.w3.org/2000/svg" viewBox="0.0 0.0 24.0 24.0" height="200px" width="200px"><path fill="none" stroke="black" stroke-width=".3" stroke-opacity="1.0"  filling="0" d="M7.870407581329346 2.989900588989258 C11.540250778198242 2.989900588989258 15.21009349822998 2.989900588989258 19.04764747619629 2.989900588989258 C18.903812408447266 3.914639472961426 18.80423355102539 4.551126956939697 18.66855239868164 5.422874450683594 C15.23163890838623 4.883055210113525 14.67609691619873 7.141912460327148 14.238767623901367 9.719886779785156 C13.708847045898438 12.84117603302002 12.95356559753418 15.923446655273438 12.2664155960083 19.160619735717773 C13.486396789550781 19.496623992919922 14.377943992614746 19.741785049438477 15.419149398803711 20.028289794921875 C15.369653701782227 21.127731323242188 15.4220609664917 22.188152313232422 13.84860610961914 22.188732147216797 C10.17759895324707 22.19048309326172 6.506008625030518 22.189319610595703 2.8681936264038086 22.189319610595703 C2.181044578552246 18.66738510131836 5.493337154388428 20.34915542602539 6.78727388381958 18.52646255493164 C7.581571578979492 14.801880836486816 8.501070022583008 10.48856258392334 9.448521614074707 6.043056488037109 C8.208741188049316 5.680263996124268 7.318358421325684 5.4199628829956055 6.303940296173096 5.123557090759277 C6.2736592292785645 3.9880142211914062 6.326068878173828 2.989900588989258 7.870407581329346 2.989900588989258"></path></svg>