<svg xmlns="http://www.w3.org/2000/svg" viewBox="0.0 0.0 24.0 24.0" height="200px" width="200px"><path fill="none" stroke="black" stroke-width=".3" stroke-opacity="1.0"  filling="0" d="M9.381446838378906 9.673505783081055 L9.381446838378906 9.673505783081055 C9.922019958496094 9.673505783081055 10.462592124938965 9.673505783081055 11.003165245056152 9.673505783081055 L11.003165245056152 9.673505783081055 C10.984532356262207 9.854079246520996 10.596447944641113 13.615936279296875 10.593234062194824 13.647093772888184 L10.593234062194824 13.647093772888184 C11.673959732055664 12.716506958007812 12.596266746520996 11.712393760681152 13.62195873260498 10.94919204711914 C14.647651672363281 10.185989379882812 15.776729583740234 9.663698196411133 17.27099609375 9.696752548217773 L17.27099609375 9.696752548217773 C15.497984886169434 11.278841018676758 13.724834442138672 12.860771179199219 11.951705932617188 14.442728042602539 L11.951705932617188 14.442728042602539 C13.28926944732666 16.343589782714844 14.626742362976074 18.244531631469727 15.964256286621094 20.145427703857422 L15.964256286621094 20.145427703857422 C15.390218734741211 20.177474975585938 14.783370018005371 20.435523986816406 14.242142677307129 20.241567611694336 C12.875027656555176 19.75164222717285 11.576295852661133 16.90553855895996 10.762510299682617 15.771405220031738 L10.762510299682617 15.771405220031738 C10.63830852508545 15.776753425598145 10.514107704162598 15.782100677490234 10.38990592956543 15.78744888305664 L10.38990592956543 15.78744888305664 C10.149971961975098 17.287939071655273 9.909781455993652 18.78839111328125 9.669577598571777 20.28883934020996 L9.669577598571777 20.28883934020996 C9.13828182220459 20.28883934020996 8.606985092163086 20.28883934020996 8.075689315795898 20.28883934020996 L8.075689315795898 20.28883934020996 C8.293328285217285 18.51961898803711 8.510981559753418 16.75040054321289 8.728617668151855 14.981179237365723 C8.94625473022461 13.211957931518555 9.163873672485352 11.442733764648438 9.381446838378906 9.673505783081055 L9.381446838378906 9.673505783081055"></path></svg>