<svg xmlns="http://www.w3.org/2000/svg" viewBox="0.0 0.0 24.0 24.0" height="200px" width="200px"><path fill="none" stroke="black" stroke-width=".3" stroke-opacity="1.0"  filling="0" d="M10.760239601135254 9.596665382385254 L10.760239601135254 9.596665382385254 C12.153762817382812 9.574078559875488 13.889973640441895 9.323786735534668 15.181591987609863 10.022048950195312 C16.9879093170166 10.998562812805176 16.975038528442383 13.720297813415527 15.573700904846191 15.026947021484375 C14.528158187866211 16.001842498779297 12.990486145019531 16.040672302246094 11.67282772064209 16.24137306213379 L11.67282772064209 16.24137306213379 C11.461886405944824 17.617443084716797 11.251066207885742 18.9935302734375 11.04024887084961 20.36962127685547 L11.04024887084961 20.36962127685547 C10.501117706298828 20.36962127685547 9.96198558807373 20.36962127685547 9.42285442352295 20.36962127685547 L9.42285442352295 20.36962127685547 C9.645831108093262 18.574138641357422 9.868728637695312 16.77864646911621 10.091606140136719 14.983150482177734 C10.314483642578125 13.187655448913574 10.537342071533203 11.392158508300781 10.760239601135254 9.596665382385254 L10.760239601135254 9.596665382385254"></path>
<path fill="none" stroke="black" stroke-width=".3" stroke-opacity="1.0"  filling="0" d="M12.21635627746582 11.331802368164062 L12.21635627746582 11.331802368164062 C13.643442153930664 11.149307250976562 15.621429443359375 11.330803871154785 14.59825325012207 13.628937721252441 C14.102038383483887 14.743475914001465 12.702441215515137 14.45284652709961 11.864447593688965 14.461051940917969 L11.864447593688965 14.461051940917969 C11.976263999938965 13.467745780944824 12.104243278503418 12.329835891723633 12.21635627746582 11.331802368164062 L12.21635627746582 11.331802368164062"></path></svg>