<svg xmlns="http://www.w3.org/2000/svg" viewBox="0.0 0.0 24.0 24.0" height="200px" width="200px"><path fill="none" stroke="black" stroke-width=".3" stroke-opacity="1.0"  filling="0" d="M4.0245513916015625 5.091245174407959 C8.257452964782715 5.091245174407959 12.412073135375977 4.994053363800049 16.55789566040039 5.135223388671875 C18.434005737304688 5.1989922523498535 19.395370483398438 6.166952133178711 19.607784271240234 7.461670398712158 C19.856700897216797 8.980237007141113 19.102476119995117 10.311456680297852 17.468685150146484 11.172989845275879 C17.02142906188965 11.408712387084961 16.533710479736328 11.567914009094238 15.899543762207031 11.830464363098145 C18.87027359008789 13.155527114868164 16.636178970336914 15.693948745727539 17.282657623291016 17.577533721923828 C17.45725440979004 17.642621994018555 17.632726669311523 17.708589553833008 17.80820083618164 17.774555206298828 C18.215436935424805 17.050235748291016 18.622236251831055 16.32591438293457 19.058059692382812 15.551019668579102 C19.445947647094727 15.568170547485352 19.865497589111328 15.587081909179688 20.304840087890625 15.60687255859375 C19.58139991760254 18.995391845703125 17.900554656982422 20.322654724121094 15.012504577636719 19.886388778686523 C13.105170249938965 19.59833335876465 12.344347953796387 18.61629867553711 12.578751564025879 16.698410034179688 C12.715963363647461 15.57520580291748 12.894075393676758 14.457281112670898 13.0919771194458 13.069330215454102 C11.533829689025879 12.995447158813477 10.329266548156738 12.938714027404785 9.000246047973633 12.875825881958008 C8.679204940795898 14.366246223449707 8.392026901245117 15.700103759765625 8.077583312988281 17.161060333251953 C8.880624771118164 17.423171997070312 9.543815612792969 17.639984130859375 10.22547721862793 17.862512588500977 C10.48362922668457 18.925907135009766 10.213603019714355 19.521371841430664 8.96858024597168 19.502901077270508 C6.411688327789307 19.46463966369629 3.8539161682128906 19.491466522216797 1.1048393249511719 19.491466522216797 C1.1400213241577148 18.905675888061523 1.1677274703979492 18.44478416442871 1.2024707794189453 17.87042808532715 C1.8199243545532227 17.743331909179688 2.424624443054199 17.73365592956543 2.90926456451416 17.4869384765625 C3.3758726119995117 17.24945640563965 3.9673805236816406 16.82770538330078 4.07424783706665 16.383525848388672 C4.78757381439209 13.414558410644531 5.3861165046691895 10.418323516845703 6.048867702484131 7.303348541259766 C5.182497501373291 7.06322717666626 4.514908313751221 6.878519058227539 3.715825080871582 6.657308578491211 C3.8134565353393555 6.16211462020874 3.90625 5.690228462219238 4.0245513916015625 5.091245174407959"></path>
<path fill="none" stroke="black" stroke-width=".3" stroke-opacity="1.0"  filling="0" d="M10.323991775512695 7.015291690826416 C11.454231262207031 7.015291690826416 12.464410781860352 6.976150989532471 13.469751358032227 7.026725769042969 C14.396371841430664 7.073342800140381 15.24822998046875 7.316102504730225 15.256146430969238 8.499995231628418 C15.26362133026123 9.555471420288086 14.834835052490234 10.436355590820312 13.769681930541992 10.649209976196289 C12.43846321105957 10.914838790893555 11.064583778381348 10.967172622680664 9.328324317932129 11.151880264282227 C9.739960670471191 9.43980884552002 10.025379180908203 8.255475997924805 10.323991775512695 7.015291690826416"></path></svg>