<svg xmlns="http://www.w3.org/2000/svg" viewBox="0.0 0.0 24.0 24.0" height="200px" width="200px"><path fill="none" stroke="black" stroke-width=".3" stroke-opacity="1.0"  filling="0" d="M7.633401393890381 7.748128414154053 L7.633401393890381 7.748128414154053 C9.310032844543457 7.748128414154053 10.986665725708008 7.748128414154053 12.663297653198242 7.748128414154053 C14.339929580688477 7.748128414154053 16.01656150817871 7.748128414154053 17.693193435668945 7.748128414154053 L17.693193435668945 7.748128414154053 C17.46014976501465 8.897201538085938 17.22710609436035 10.046274185180664 16.994062423706055 11.19534683227539 L16.994062423706055 11.19534683227539 C16.56886100769043 11.235950469970703 16.143659591674805 11.2765531539917 15.71845817565918 11.317156791687012 L15.71845817565918 11.317156791687012 C15.607117652893066 10.754648208618164 15.759040832519531 10.063779830932617 15.384437561035156 9.629630088806152 C14.99930477142334 9.183277130126953 14.280052185058594 9.216632843017578 13.727859497070312 9.01013469696045 L13.727859497070312 9.01013469696045 C13.254926681518555 11.178056716918945 12.782097816467285 13.346000671386719 12.309199333190918 15.513930320739746 L12.309199333190918 15.513930320739746 C12.85970401763916 15.684464454650879 13.410209655761719 15.854997634887695 13.960714340209961 16.025531768798828 L13.960714340209961 16.025531768798828 C13.870914459228516 16.341575622558594 13.781115531921387 16.657621383666992 13.691315650939941 16.973665237426758 L13.691315650939941 16.973665237426758 C11.720829963684082 16.973464965820312 9.750341415405273 16.973392486572266 7.779855728149414 16.97338104248047 L7.779855728149414 16.97338104248047 C8.135085105895996 16.292217254638672 8.901323318481445 15.766670227050781 9.658843040466309 15.63885498046875 L9.658843040466309 15.63885498046875 C10.135797500610352 13.436271667480469 10.612747192382812 11.233685493469238 11.089683532714844 9.031097412109375 L11.089683532714844 9.031097412109375 C9.276436805725098 9.297507286071777 8.976564407348633 9.620975494384766 8.20760726928711 11.257667541503906 L8.20760726928711 11.257667541503906 C7.769374847412109 11.257667541503906 7.331142425537109 11.257667541503906 6.892910003662109 11.257667541503906 L6.892910003662109 11.257667541503906 C7.139716148376465 10.08781623840332 7.3865461349487305 8.917969703674316 7.633401393890381 7.748128414154053 L7.633401393890381 7.748128414154053"></path></svg>