<svg xmlns="http://www.w3.org/2000/svg" viewBox="0.0 0.0 24.0 24.0" height="200px" width="200px"><path fill="none" stroke="black" stroke-width=".3" stroke-opacity="1.0"  filling="0" d="M7.720221519470215 7.650270938873291 C8.65858268737793 7.650270938873291 9.383679389953613 7.650270938873291 10.185551643371582 7.650270938873291 C10.270288467407227 7.868652820587158 10.472177505493164 8.12855052947998 10.446017265319824 8.363993644714355 C10.115032196044922 11.367886543273926 9.7431001663208 14.367796897888184 9.400739669799805 17.37055206298828 C9.314866065979004 18.121240615844727 9.268232345581055 18.878753662109375 9.248896598815918 19.634559631347656 C9.177240371704102 22.416088104248047 10.043943405151367 23.732070922851562 12.133359909057617 24.057937622070312 C14.548075675964355 24.434986114501953 16.71483612060547 23.08374786376953 17.175487518310547 20.580883026123047 C17.739070892333984 17.518413543701172 18.016597747802734 14.403623580932617 18.426633834838867 11.31272029876709 C18.585302352905273 10.113893508911133 18.767288208007812 8.917909622192383 18.945293426513672 7.669605731964111 C19.922893524169922 7.669605731964111 20.733295440673828 7.669605731964111 21.790515899658203 7.669605731964111 C21.19565200805664 12.216390609741211 20.767419815063477 16.61758804321289 20.005924224853516 20.961345672607422 C19.38376235961914 24.5123291015625 16.813222885131836 26.559097290039062 13.304891586303711 26.821834564208984 C8.718297004699707 27.165332794189453 5.850325107574463 24.3724308013916 6.275146961212158 19.78697395324707 C6.641391277313232 15.836758613586426 7.205544948577881 11.90531063079834 7.720221519470215 7.650270938873291"></path></svg>