<svg xmlns="http://www.w3.org/2000/svg" viewBox="0.0 0.0 24.0 24.0" height="200px" width="200px"><path fill="none" stroke="black" stroke-width=".3" stroke-opacity="1.0"  filling="0" d="M12.169916152954102 2.976140022277832 C11.751314163208008 5.301520347595215 11.380537033081055 7.3613362312316895 11.044641494750977 9.227041244506836 C12.719613075256348 8.820817947387695 14.300061225891113 8.206417083740234 15.913142204284668 8.10345458984375 C18.087173461914062 7.965045928955078 19.50727081298828 9.134769439697266 20.164432525634766 11.066865921020508 C21.27564239501953 14.335789680480957 19.35085678100586 19.443410873413086 16.301925659179688 21.101503372192383 C13.588888168334961 22.577301025390625 10.938865661621094 22.563798904418945 8.764272689819336 20.65139389038086 C6.952579975128174 21.100379943847656 5.587622165679932 21.437959671020508 3.7202281951904297 21.900447845458984 C4.908518314361572 16.189115524291992 5.980905532836914 11.038734436035156 7.084799766540527 5.735313892364502 C6.2841668128967285 5.444430351257324 5.628131866455078 5.205872058868408 4.97153377532959 4.96787691116333 C4.4240875244140625 4.248826503753662 4.990663051605225 3.052096366882324 6.035480976104736 3.0025835037231445 C7.981081485748291 2.9097490310668945 9.933996200561523 2.976140022277832 12.169916152954102 2.976140022277832"></path>
<path fill="none" stroke="black" stroke-width=".3" stroke-opacity="1.0"  filling="0" d="M14.260676383972168 10.931833267211914 C14.979165077209473 11.349309921264648 15.289176940917969 12.471208572387695 15.75560474395752 13.233019828796387 C15.13276481628418 15.06440544128418 14.752985000610352 16.61897087097168 14.07781982421875 18.03231430053711 C13.525309562683105 19.187973022460938 12.445046424865723 19.87270164489746 11.052518844604492 19.49911117553711 C9.548588752746582 19.095699310302734 9.257705688476562 17.821889877319336 9.509203910827637 16.595340728759766 C9.84228515625 14.97156810760498 10.311525344848633 13.315727233886719 11.074460983276367 11.858495712280273 C11.676483154296875 10.708465576171875 13.10895824432373 10.262857437133789 14.260676383972168 10.931833267211914"></path></svg>