<svg xmlns="http://www.w3.org/2000/svg" viewBox="0.0 0.0 24.0 24.0" height="200px" width="200px"><path fill="none" stroke="black" stroke-width=".3" stroke-opacity="1.0"  filling="0" d="M12.425240516662598 9.033679962158203 L12.425240516662598 9.033679962158203 C12.182680130004883 11.129286766052246 11.940125465393066 13.224897384643555 11.697629928588867 15.320510864257812 L11.697629928588867 15.320510864257812 C13.231301307678223 14.224010467529297 13.694332122802734 13.62783145904541 15.626485824584961 13.688945770263672 L15.626485824584961 13.688945770263672 C14.705403327941895 14.514588356018066 13.784324645996094 15.340235710144043 12.863248825073242 16.16588592529297 L12.863248825073242 16.16588592529297 C13.629236221313477 17.328786849975586 14.395241737365723 18.491674423217773 15.161140441894531 19.654630661010742 L15.161140441894531 19.654630661010742 C13.04909896850586 19.75730323791504 12.903888702392578 18.99642562866211 11.796767234802246 17.26661491394043 L11.796767234802246 17.26661491394043 C11.695927619934082 17.291349411010742 11.595087051391602 17.316085815429688 11.494247436523438 17.3408203125 L11.494247436523438 17.3408203125 C11.349055290222168 18.13983154296875 11.203853607177734 18.938840866088867 11.058642387390137 19.73784828186035 L11.058642387390137 19.73784828186035 C10.591593742370605 19.760879516601562 10.124545097351074 19.783912658691406 9.657496452331543 19.806943893432617 L9.657496452331543 19.806943893432617 C9.877862930297852 18.02286148071289 10.098252296447754 16.238780975341797 10.318659782409668 14.454702377319336 C10.539066314697266 12.670625686645508 10.759492874145508 10.886549949645996 10.97993278503418 9.102476119995117 L10.97993278503418 9.102476119995117 C11.461702346801758 9.079544067382812 11.94347095489502 9.056612014770508 12.425240516662598 9.033679962158203 L12.425240516662598 9.033679962158203"></path></svg>