<svg xmlns="http://www.w3.org/2000/svg" viewBox="0.0 0.0 24.0 24.0" height="200px" width="200px"><path fill="none" stroke="black" stroke-width=".3" stroke-opacity="1.0"  filling="0" d="M18.53396987915039 15.846502304077148 C19.12933349609375 16.183374404907227 19.673831939697266 16.611967086791992 20.340904235839844 17.065576553344727 C19.059289932250977 19.21688461303711 18.117883682250977 20.35507583618164 15.923215866088867 18.887516021728516 C15.445426940917969 18.568157196044922 14.283053398132324 19.272750854492188 13.435037612915039 19.50539207458496 C13.435038566589355 19.82725715637207 13.434205055236816 20.148284912109375 13.433370590209961 20.47014808654785 C14.433145523071289 21.128883361816406 15.3787202835083 21.896015167236328 16.442699432373047 22.42466926574707 C19.251907348632812 23.82135009765625 20.636917114257812 25.937637329101562 20.15829086303711 29.12457275390625 C19.768054962158203 31.7244873046875 17.996976852416992 33.44720458984375 15.170259475708008 33.975852966308594 C11.999166488647461 34.5687141418457 10.085503578186035 33.59062194824219 7.818292140960693 29.900043487548828 C8.861425399780273 29.2896728515625 9.658576965332031 28.823556900024414 11.24537467956543 27.89466094970703 C11.387961387634277 28.302404403686523 11.434656143188477 28.961139678955078 11.784869194030762 29.33636474609375 C13.002276420593262 30.640491485595703 14.500685691833496 31.044904708862305 15.592183113098145 29.36305046081543 C16.5144100189209 27.943023681640625 15.713923454284668 26.740623474121094 14.29973030090332 25.974327087402344 C13.811933517456055 25.709999084472656 13.334978103637695 25.424823760986328 12.867193222045898 25.12714385986328 C9.670249938964844 23.089237213134766 8.753026008605957 20.195812225341797 10.435715675354004 17.478328704833984 C12.045860290527344 14.87841510772705 15.556325912475586 14.1613130569458 18.53396987915039 15.846502304077148"></path></svg>