<svg xmlns="http://www.w3.org/2000/svg" viewBox="0.0 0.0 24.0 24.0" height="200px" width="200px"><path fill="none" stroke="black" stroke-width=".3" stroke-opacity="1.0"  filling="0" d="M11.675766944885254 9.927593231201172 C12.825535774230957 9.927593231201172 13.683662414550781 9.927593231201172 14.760184288024902 9.927593231201172 C14.654683113098145 11.567912101745605 14.556571960449219 13.08189868927002 14.450398445129395 14.734984397888184 C15.166064262390137 15.003778457641602 15.854177474975586 15.261151313781738 16.61553955078125 15.547414779663086 C16.553043365478516 16.320873260498047 16.491222381591797 17.082233428955078 16.424022674560547 17.92020034790039 C15.58605670928955 18.11709213256836 14.857622146606445 18.287778854370117 13.96522331237793 18.4974365234375 C13.477361679077148 22.01461410522461 12.991515159606934 25.517681121826172 12.490213394165039 29.126922607421875 C11.418395042419434 29.126922607421875 10.57236385345459 29.126922607421875 9.773371696472168 29.126922607421875 C9.634943008422852 28.83595085144043 9.45149040222168 28.637042999267578 9.470306396484375 28.460309982299805 C9.710205078125 26.241409301757812 9.979000091552734 24.02587127685547 10.240403175354004 21.80965805053711 C10.292818069458008 21.366146087646484 10.53406047821045 20.82990264892578 10.369424819946289 20.492565155029297 C8.542964935302734 16.754976272583008 11.625367164611816 13.704829216003418 11.675766944885254 9.927593231201172"></path></svg>