<svg xmlns="http://www.w3.org/2000/svg" viewBox="0.0 0.0 24.0 24.0" height="200px" width="200px"><path fill="none" stroke="black" stroke-width=".3" stroke-opacity="1.0"  filling="0" d="M11.335393905639648 15.586153984069824 C11.504390716552734 16.14743423461914 11.75832462310791 16.552852630615234 11.718046188354492 16.925872802734375 C11.389684677124023 19.96869468688965 10.963251113891602 23.001014709472656 10.653276443481445 26.046463012695312 C10.433492660522461 28.20139503479004 10.626132011413574 30.26175880432129 13.302064895629883 30.781885147094727 C15.541058540344238 31.216196060180664 17.12858009338379 29.87647819519043 17.62331199645996 26.990394592285156 C18.25726890563965 23.288217544555664 18.713476181030273 19.556270599365234 19.26337242126465 15.71574592590332 C20.6608829498291 15.71574592590332 21.769433975219727 15.71574592590332 22.795677185058594 15.71574592590332 C23.001449584960938 16.131671905517578 23.25100326538086 16.390857696533203 23.225610733032227 16.61852264404297 C22.799179077148438 20.38286781311035 22.465560913085938 24.163848876953125 21.852617263793945 27.89842414855957 C21.084686279296875 32.576927185058594 18.33344841003418 34.79753494262695 13.734625816345215 34.78615188598633 C8.641945838928223 34.773887634277344 5.849552631378174 31.82563591003418 6.318892002105713 26.741710662841797 C6.65163516998291 23.13235855102539 7.214666843414307 19.544889450073242 7.698891639709473 15.764782905578613 C9.037734031677246 15.69911003112793 10.154165267944336 15.643945693969727 11.335393905639648 15.586153984069824"></path></svg>