<svg xmlns="http://www.w3.org/2000/svg" viewBox="0.0 0.0 24.0 24.0" height="200px" width="200px"><path fill="none" stroke="black" stroke-width=".3" stroke-opacity="1.0"  filling="0" d="M11.895735740661621 7.322175025939941 L11.895735740661621 7.322175025939941 C12.412153244018555 7.322175025939941 12.928571701049805 7.322175025939941 13.444989204406738 7.322175025939941 L13.444989204406738 7.322175025939941 C13.45904541015625 9.62228775024414 13.52255630493164 11.925378799438477 13.466727256774902 14.22529125213623 C13.443984985351562 15.162184715270996 13.544153213500977 16.486757278442383 12.899833679199219 17.320030212402344 C12.24563217163086 18.16608238220215 10.024958610534668 18.608354568481445 9.400466918945312 17.436420440673828 C9.212993621826172 17.084604263305664 9.388072967529297 16.639219284057617 9.381875991821289 16.240617752075195 L9.381875991821289 16.240617752075195 C9.98659610748291 16.350238800048828 11.20087718963623 16.936063766479492 11.666571617126465 16.002925872802734 C11.965680122375488 15.403587341308594 11.90031623840332 13.2806396484375 11.902482032775879 12.756086349487305 C11.90995979309082 10.944831848144531 11.898832321166992 9.133430480957031 11.895735740661621 7.322175025939941 L11.895735740661621 7.322175025939941"></path></svg>