<svg xmlns="http://www.w3.org/2000/svg" viewBox="0.0 0.0 24.0 24.0" height="200px" width="200px"><path fill="none" stroke="black" stroke-width=".3" stroke-opacity="1.0"  filling="0" d="M16.586084365844727 6.706542015075684 C17.275089263916016 7.216639518737793 17.765483856201172 7.579245090484619 18.50986671447754 8.130342483520508 C16.94655990600586 9.892786979675293 15.451944351196289 11.577493667602539 13.898221969604492 13.328224182128906 C18.388996124267578 14.486859321594238 19.84101676940918 16.210966110229492 19.56892967224121 19.873233795166016 C19.227088928222656 24.477951049804688 14.2576322555542 27.289878845214844 10.135322570800781 25.210620880126953 C7.062491416931152 23.66115951538086 6.0699849128723145 19.50956153869629 8.112504005432129 16.197124481201172 C8.894689559936523 14.928271293640137 9.963337898254395 13.82394790649414 10.97394847869873 12.7105712890625 C12.759288787841797 10.742061614990234 14.600006103515625 8.824670791625977 16.586084365844727 6.706542015075684"></path>
<path fill="none" stroke="black" stroke-width=".3" stroke-opacity="1.0"  filling="0" d="M13.624537467956543 15.787127494812012 C15.590914726257324 15.819607734680176 16.89810562133789 17.147031784057617 16.92685890197754 19.141098022460938 C16.95987319946289 21.426952362060547 15.227777481079102 23.352863311767578 13.120829582214355 23.37150001525879 C11.205568313598633 23.389602661132812 9.922338485717773 22.064842224121094 9.853117942810059 19.998891830444336 C9.774847030639648 17.649675369262695 11.474461555480957 15.751985549926758 13.624537467956543 15.787127494812012"></path></svg>