<svg xmlns="http://www.w3.org/2000/svg" viewBox="0.0 0.0 24.0 24.0" height="200px" width="200px"><path fill="none" stroke="black" stroke-width=".3" stroke-opacity="1.0"  filling="0" d="M8.366929054260254 5.246561527252197 C10.309220314025879 5.246561527252197 12.23484992980957 5.246561527252197 14.384744644165039 5.246561527252197 C15.60064697265625 8.74250602722168 16.873743057250977 12.309603691101074 18.072982788085938 15.9019193649292 C18.491342544555664 17.155200958251953 19.07632827758789 18.060373306274414 20.67636489868164 17.874835968017578 C20.758777618408203 18.539527893066406 20.829029083251953 19.106048583984375 20.920448303222656 19.84054183959961 C17.552846908569336 19.84054183959961 14.309088706970215 19.84054183959961 10.989675521850586 19.84054183959961 C10.989675521850586 19.26276397705078 10.989675521850586 18.756587982177734 10.989675521850586 18.130624771118164 C11.592672348022461 17.94328498840332 12.196571350097656 17.755496978759766 12.946377754211426 17.5222225189209 C12.7076997756958 16.806640625 12.502798080444336 16.191486358642578 12.282585144042969 15.530393600463867 C10.760905265808105 15.530393600463867 9.357213973999023 15.530393600463867 7.819772243499756 15.530393600463867 C7.592804431915283 16.16086196899414 7.373941898345947 16.769262313842773 7.112297534942627 17.496103286743164 C7.795454502105713 17.71406364440918 8.335855484008789 17.88654327392578 8.97938346862793 18.092344284057617 C8.97938346862793 18.652563095092773 8.97938346862793 19.210527420043945 8.97938346862793 19.880172729492188 C6.530465126037598 19.880172729492188 4.167110919952393 19.880172729492188 1.720444679260254 19.880172729492188 C1.720444679260254 19.2636661529541 1.720444679260254 18.761093139648438 1.720444679260254 18.104503631591797 C3.429464340209961 17.93743133544922 4.041017055511475 16.645421981811523 4.5751142501831055 15.188140869140625 C5.783361434936523 11.888991355895996 7.074469566345215 8.620015144348145 8.366929054260254 5.246561527252197"></path>
<path fill="none" stroke="black" stroke-width=".3" stroke-opacity="1.0"  filling="0" d="M9.925535202026367 8.832124710083008 C10.528532028198242 10.52132797241211 10.954549789428711 11.715614318847656 11.447665214538574 13.09723949432373 C10.446572303771973 13.09723949432373 9.622011184692383 13.09723949432373 8.649288177490234 13.09723949432373 C9.041979789733887 11.784515380859375 9.397293090820312 10.596983909606934 9.925535202026367 8.832124710083008"></path></svg>