<svg xmlns="http://www.w3.org/2000/svg" viewBox="0.0 0.0 24.0 24.0" height="200px" width="200px"><path fill="none" stroke="black" stroke-width=".3" stroke-opacity="1.0"  filling="0" d="M14.903766632080078 9.488470077514648 L14.903766632080078 9.488470077514648 C14.903766632080078 9.976489067077637 14.903766632080078 10.464509010314941 14.903766632080078 10.95252799987793 L14.903766632080078 10.95252799987793 C14.421399116516113 11.058311462402344 13.09638786315918 11.249741554260254 12.677711486816406 11.689239501953125 C11.580263137817383 12.841267585754395 11.490850448608398 15.887422561645508 12.280983924865723 17.17638397216797 C12.900266647338867 18.186634063720703 13.909872055053711 17.838359832763672 14.85662841796875 17.821109771728516 L14.85662841796875 17.821109771728516 C14.85662841796875 18.374475479125977 14.85662841796875 18.92784309387207 14.85662841796875 19.48120880126953 L14.85662841796875 19.48120880126953 C13.615135192871094 19.900405883789062 13.141319274902344 20.349349975585938 11.849617004394531 19.666797637939453 C10.263789176940918 18.828824996948242 9.51685619354248 16.777055740356445 9.531757354736328 14.707966804504395 C9.546659469604492 12.638877868652344 10.323394775390625 10.552471160888672 11.784905433654785 9.645223617553711 C12.985095977783203 8.900193214416504 13.605791091918945 9.268948554992676 14.903766632080078 9.488470077514648 L14.903766632080078 9.488470077514648"></path></svg>