<svg xmlns="http://www.w3.org/2000/svg" viewBox="0.0 0.0 24.0 24.0" height="200px" width="200px"><path fill="none" stroke="black" stroke-width=".3" stroke-opacity="1.0"  filling="0" d="M8.772112846374512 7.8825907707214355 C11.317410469055176 7.8825907707214355 13.717854499816895 7.8825907707214355 16.293895721435547 7.8825907707214355 C16.293895721435547 9.013636589050293 16.293895721435547 10.027617454528809 16.293895721435547 11.17285442352295 C15.009127616882324 11.284599304199219 13.87512493133545 11.383337020874023 12.604545593261719 11.493898391723633 C12.604545593261719 12.783398628234863 12.604545593261719 13.91148853302002 12.604545593261719 15.22936725616455 C13.584234237670898 15.331652641296387 14.531404495239258 15.430981636047363 15.788976669311523 15.562828063964844 C15.833910942077637 16.53837776184082 15.881210327148438 17.5635929107666 15.936787605285645 18.77386474609375 C14.80278491973877 18.9719295501709 13.789395332336426 19.148120880126953 12.609867095947266 19.353872299194336 C12.609867095947266 20.695404052734375 12.609867095947266 22.003822326660156 12.609867095947266 23.48725128173828 C13.86803150177002 23.585987091064453 15.007353782653809 23.675264358520508 16.312816619873047 23.777549743652344 C16.312816619873047 24.89263343811035 16.312816619873047 25.909568786621094 16.312816619873047 27.08318519592285 C13.818365097045898 27.082592010498047 11.414374351501465 27.082592010498047 8.772112846374512 27.082592010498047 C8.772112846374512 20.536357879638672 8.772112846374512 14.288700103759766 8.772112846374512 7.8825907707214355"></path></svg>