<svg xmlns="http://www.w3.org/2000/svg" viewBox="0.0 0.0 24.0 24.0" height="200px" width="200px"><path fill="none" stroke="black" stroke-width=".3" stroke-opacity="1.0"  filling="0" d="M11.606071472167969 4.260875701904297 C14.067716598510742 4.126544952392578 16.4364013671875 5.5995354652404785 19.101634979248047 4.332921504974365 C19.101634979248047 6.615614414215088 19.101634979248047 8.51669692993164 19.101634979248047 10.669707298278809 C18.332836151123047 10.707357406616211 17.526386260986328 10.746866226196289 16.593971252441406 10.792882919311523 C16.28905487060547 10.044534683227539 16.058507919311523 9.322681427001953 15.712687492370605 8.660789489746094 C14.921113014221191 7.145966053009033 13.479265213012695 6.422718048095703 11.880311012268066 6.664420127868652 C10.192577362060547 6.919601917266846 9.162553787231445 7.881298542022705 8.935259819030762 9.741012573242188 C8.758631706237793 11.187508583068848 8.711685180664062 12.675838470458984 8.830677032470703 14.126981735229492 C9.110494613647461 17.5387020111084 10.721068382263184 18.611024856567383 14.468851089477539 17.772502899169922 C14.539036750793457 16.765254974365234 14.615732192993164 15.668298721313477 14.698468208312988 14.481633186340332 C13.93431568145752 14.239001274108887 13.368639945983887 14.05958366394043 12.666772842407227 13.83647346496582 C12.666772842407227 13.31030559539795 12.666772842407227 12.7325439453125 12.666772842407227 12.018592834472656 C15.678291320800781 12.018592834472656 18.667034149169922 12.018592834472656 21.791969299316406 12.018592834472656 C21.828224182128906 12.598678588867188 21.864479064941406 13.1810884475708 21.90166473388672 13.771400451660156 C21.15749740600586 14.007060050964355 20.517452239990234 14.210183143615723 19.671960830688477 14.477914810180664 C19.67149543762207 16.324613571166992 19.67149543762207 18.145748138427734 19.67149543762207 20.703144073486328 C16.38387680053711 18.829952239990234 13.651710510253906 20.681299209594727 10.807060241699219 20.554405212402344 C5.088008880615234 20.299224853515625 1.7153310775756836 16.066179275512695 2.9573097229003906 10.487966537475586 C3.617342948913574 7.522463321685791 5.519354820251465 5.5995354652404785 8.4109525680542 4.738702297210693 C9.434003829956055 4.434250354766846 10.533750534057617 4.319441795349121 11.606071472167969 4.260875701904297"></path></svg>