<svg xmlns="http://www.w3.org/2000/svg" viewBox="0.0 0.0 24.0 24.0" height="200px" width="200px"><path fill="none" stroke="black" stroke-width=".3" stroke-opacity="1.0"  filling="0" d="M13.183976173400879 9.010188102722168 L13.183976173400879 9.010188102722168 C14.554301261901855 9.010188102722168 15.924631118774414 9.010188102722168 17.29495620727539 9.010188102722168 L17.29495620727539 9.010188102722168 C17.32047462463379 9.276657104492188 17.34599494934082 9.543126106262207 17.37151336669922 9.809595108032227 L17.37151336669922 9.809595108032227 C17.040620803833008 9.893735885620117 16.709726333618164 9.977876663208008 16.378833770751953 10.062017440795898 L16.378833770751953 10.062017440795898 C16.378833770751953 11.517670631408691 16.378833770751953 12.973326683044434 16.378833770751953 14.428980827331543 L16.378833770751953 14.428980827331543 C16.693967819213867 14.497692108154297 17.00909996032715 14.566402435302734 17.324234008789062 14.635113716125488 L17.324234008789062 14.635113716125488 C17.337488174438477 14.905275344848633 17.350740432739258 15.175436019897461 17.363994598388672 15.445597648620605 L17.363994598388672 15.445597648620605 C16.080448150634766 15.445597648620605 14.796900749206543 15.445597648620605 13.51335334777832 15.445597648620605 L13.51335334777832 15.445597648620605 C13.769007682800293 15.107912063598633 14.024662017822266 14.77022647857666 14.280316352844238 14.432540893554688 L14.280316352844238 14.432540893554688 C14.280316352844238 13.198976516723633 14.280316352844238 11.965413093566895 14.280316352844238 10.73184871673584 L14.280316352844238 10.73184871673584 C14.240026473999023 10.71444034576416 14.199735641479492 10.69703197479248 14.159445762634277 10.6796236038208 L14.159445762634277 10.6796236038208 C13.576831817626953 12.269193649291992 12.994243621826172 13.858782768249512 12.41167163848877 15.44836711883545 L12.41167163848877 15.44836711883545 C11.8408842086792 15.44836711883545 11.270095825195312 15.44836711883545 10.699308395385742 15.44836711883545 L10.699308395385742 15.44836711883545 C10.152095794677734 13.842641830444336 9.604911804199219 12.23690414428711 9.057765007019043 10.631156921386719 L9.057765007019043 10.631156921386719 C9.016353607177734 10.648829460144043 8.974942207336426 10.66650104522705 8.933530807495117 10.684173583984375 L8.933530807495117 10.684173583984375 C8.933530807495117 10.702034950256348 8.933530807495117 14.414600372314453 8.933530807495117 14.425618171691895 L8.933530807495117 14.425618171691895 C9.19848346710205 14.50131893157959 9.463435173034668 14.577019691467285 9.728387832641602 14.65272045135498 L9.728387832641602 14.65272045135498 C9.728387832641602 14.922683715820312 9.728387832641602 15.192646980285645 9.728387832641602 15.462610244750977 L9.728387832641602 15.462610244750977 C8.704846382141113 15.462610244750977 7.681305408477783 15.462610244750977 6.657764434814453 15.462610244750977 L6.657764434814453 15.462610244750977 C6.629014015197754 15.206296920776367 6.600263595581055 14.949982643127441 6.5715131759643555 14.693669319152832 L6.5715131759643555 14.693669319152832 C6.877415180206299 14.597724914550781 7.183316707611084 14.50178050994873 7.489218711853027 14.40583610534668 L7.489218711853027 14.40583610534668 C7.489218711853027 12.958028793334961 7.489218711853027 11.510220527648926 7.489218711853027 10.062413215637207 L7.489218711853027 10.062413215637207 C7.205935001373291 9.988822937011719 6.9226508140563965 9.91523265838623 6.63936710357666 9.841642379760742 L6.63936710357666 9.841642379760742 C6.623409271240234 9.56594181060791 6.607451915740967 9.290240287780762 6.591494083404541 9.01453971862793 L6.591494083404541 9.01453971862793 C7.930629253387451 9.01453971862793 9.269767761230469 9.01453971862793 10.608901977539062 9.01453971862793 L10.608901977539062 9.01453971862793 C11.02176284790039 10.277315139770508 11.43462085723877 11.540091514587402 11.847477912902832 12.802867889404297 L11.847477912902832 12.802867889404297 C12.292997360229492 11.538646697998047 12.738475799560547 10.274415016174316 13.183976173400879 9.010188102722168 L13.183976173400879 9.010188102722168"></path></svg>