<svg xmlns="http://www.w3.org/2000/svg" viewBox="0.0 0.0 24.0 24.0" height="200px" width="200px"><path fill="none" stroke="black" stroke-width=".3" stroke-opacity="1.0"  filling="0" d="M13.557816505432129 7.060143947601318 L13.557816505432129 7.060143947601318 C14.539434432983398 7.060143947601318 15.521052360534668 7.060143947601318 16.502670288085938 7.060143947601318 L16.502670288085938 7.060143947601318 C16.502670288085938 8.835589408874512 16.502670288085938 10.611035346984863 16.502670288085938 12.386481285095215 C16.502670288085938 14.16192626953125 16.502670288085938 15.937372207641602 16.502670288085938 17.712818145751953 L16.502670288085938 17.712818145751953 C15.978883743286133 17.712818145751953 15.455097198486328 17.712818145751953 14.931310653686523 17.712818145751953 L14.931310653686523 17.712818145751953 C14.931310653686523 15.35726547241211 14.931310653686523 13.001712799072266 14.931310653686523 10.646159172058105 L14.931310653686523 10.646159172058105 C14.809420585632324 10.657720565795898 14.687529563903809 10.669282913208008 14.56563949584961 10.6808443069458 L14.56563949584961 10.6808443069458 C14.13614559173584 13.028255462646484 13.70662784576416 15.375662803649902 13.277039527893066 17.72305679321289 L13.277039527893066 17.72305679321289 C12.69137191772461 17.768753051757812 12.105704307556152 17.8144474029541 11.520036697387695 17.860143661499023 L11.520036697387695 17.860143661499023 C11.279353141784668 16.56719207763672 11.038681030273438 15.274236679077148 10.797992706298828 13.981285095214844 C10.557304382324219 12.688333511352539 10.31659984588623 11.395383834838867 10.075852394104004 10.10244369506836 L10.075852394104004 10.10244369506836 C10.007915496826172 10.100682258605957 9.93997859954834 10.098920822143555 9.872041702270508 10.097159385681152 L9.872041702270508 10.097159385681152 C9.872041702270508 11.367757797241211 9.872041702270508 12.638355255126953 9.872041702270508 13.908952713012695 C9.872041702270508 15.179550170898438 9.872041702270508 16.45014762878418 9.872041702270508 17.720745086669922 L9.872041702270508 17.720745086669922 C9.329206466674805 17.749814987182617 8.786371231079102 17.77888298034668 8.243535995483398 17.807952880859375 L8.243535995483398 17.807952880859375 C8.243535995483398 16.016925811767578 8.243535995483398 14.225900650024414 8.243535995483398 12.434873580932617 C8.243535995483398 10.643847465515137 8.243535995483398 8.852821350097656 8.243535995483398 7.061795234680176 L8.243535995483398 7.061795234680176 C8.442583084106445 7.061795234680176 11.088726997375488 7.061795234680176 11.168900489807129 7.061795234680176 L11.168900489807129 7.061795234680176 C11.37237548828125 8.317703247070312 11.57590103149414 9.573603630065918 11.779446601867676 10.829500198364258 C11.982992172241211 12.085396766662598 12.18655776977539 13.341290473937988 12.390114784240723 14.597186088562012 L12.390114784240723 14.597186088562012 C12.58469295501709 13.3410062789917 12.779279708862305 12.08482837677002 12.973892211914062 10.828653335571289 C13.168503761291504 9.572479248046875 13.363140106201172 8.316308975219727 13.557816505432129 7.060143947601318 L13.557816505432129 7.060143947601318"></path></svg>