<svg xmlns="http://www.w3.org/2000/svg" viewBox="0.0 0.0 24.0 24.0" height="200px" width="200px"><path fill="none" stroke="black" stroke-width=".3" stroke-opacity="1.0"  filling="0" d="M9.310606002807617 10.14915657043457 C9.861143112182617 12.042054176330566 10.36920166015625 13.786273002624512 10.975812911987305 15.872029304504395 C13.575572967529297 14.347855567932129 14.559404373168945 12.917137145996094 12.27739143371582 10.478798866271973 C15.002042770385742 10.478798866271973 17.1778564453125 10.478798866271973 19.365564346313477 10.478798866271973 C16.957813262939453 12.869559288024902 14.748014450073242 15.063213348388672 12.291834831237793 17.50155258178711 C14.976555824279785 21.01717758178711 17.39450454711914 24.183618545532227 19.90845489501953 27.475799560546875 C17.204193115234375 27.476648330688477 14.239956855773926 27.476648330688477 11.848347663879395 27.476648330688477 C11.171219825744629 25.560810089111328 10.508535385131836 23.68405532836914 9.643648147583008 21.23807144165039 C7.416009426116943 23.418132781982422 5.788185119628906 24.84885025024414 7.573184013366699 27.4927921295166 C5.146740436553955 27.4927921295166 2.9343948364257812 27.4927921295166 0.7093057632446289 27.4927921295166 C3.3642892837524414 24.95250129699707 5.82556676864624 22.597423553466797 8.66661262512207 19.879568099975586 C6.063453197479248 16.571245193481445 3.707526206970215 13.578970909118652 1.2445497512817383 10.449063301086426 C3.6684446334838867 9.481374740600586 6.687905788421631 10.4533109664917 9.310606002807617 10.14915657043457"></path></svg>