<svg xmlns="http://www.w3.org/2000/svg" viewBox="0.0 0.0 24.0 24.0" height="200px" width="200px"><path fill="none" stroke="black" stroke-width=".3" stroke-opacity="1.0"  filling="0" d="M10.528203964233398 2.4460887908935547 C13.735154151916504 2.4411516189575195 16.94265365600586 2.639767646789551 20.38827133178711 2.7654123306274414 C20.38827133178711 4.502487659454346 20.38827133178711 6.521576881408691 20.38827133178711 8.675637245178223 C19.37543296813965 8.675637245178223 18.491535186767578 8.675637245178223 17.606536865234375 8.67728328704834 C14.598752975463867 4.727989196777344 9.724958419799805 4.139271259307861 8.082801818847656 7.900921821594238 C9.067107200622559 8.26797866821289 10.014104843139648 8.704168319702148 11.006640434265137 8.97465991973877 C13.289088249206543 9.596298217773438 15.659322738647461 9.95512580871582 17.87209129333496 10.75727367401123 C20.527084350585938 11.719633102416992 21.723724365234375 13.596616744995117 21.5997257232666 15.90869426727295 C21.45816993713379 18.55161476135254 19.797359466552734 20.05002212524414 17.513263702392578 20.863143920898438 C14.971845626831055 21.768442153930664 12.338251113891602 21.909448623657227 9.696427345275879 21.179176330566406 C8.097066879272461 20.736949920654297 6.536113739013672 19.831653594970703 4.829215049743652 21.006893157958984 C4.463255882263184 21.259281158447266 3.7746810913085938 21.043651580810547 3.027947425842285 21.043651580810547 C3.027947425842285 18.692073822021484 3.027947425842285 16.702062606811523 3.027947425842285 14.46954345703125 C3.9475107192993164 14.409738540649414 4.79849100112915 14.35487174987793 5.685682773590088 14.297262191772461 C6.82471227645874 16.576419830322266 8.387311935424805 18.14395523071289 10.837102890014648 18.584535598754883 C11.284265518188477 18.66518783569336 11.734170913696289 18.801807403564453 12.180784225463867 18.795223236083984 C13.560129165649414 18.775470733642578 15.223134994506836 18.781505584716797 15.486493110656738 17.113563537597656 C15.757534980773926 15.401178359985352 14.065449714660645 15.30186939239502 12.866616249084473 14.97596263885498 C10.755899429321289 14.402606964111328 8.607325553894043 13.948312759399414 6.5306267738342285 13.272356033325195 C3.763707160949707 12.37199592590332 2.421670913696289 10.678265571594238 2.422220230102539 8.417764663696289 C2.422220230102539 6.104590892791748 3.9409255981445312 4.019662380218506 6.511972427368164 3.1549644470214844 C7.789814472198486 2.724811553955078 9.185620307922363 2.4482851028442383 10.528203964233398 2.4460887908935547"></path></svg>