<svg xmlns="http://www.w3.org/2000/svg" viewBox="0.0 0.0 24.0 24.0" height="200px" width="200px"><path fill="none" stroke="black" stroke-width=".3" stroke-opacity="1.0"  filling="0" d="M6.721719741821289 7.790831089019775 L6.721719741821289 7.790831089019775 C8.521719932556152 7.790831089019775 10.321720123291016 7.790831089019775 12.121720314025879 7.790831089019775 C13.921720504760742 7.790831089019775 15.721720695495605 7.790831089019775 17.52172088623047 7.790831089019775 L17.52172088623047 7.790831089019775 C17.52172088623047 8.919851303100586 17.52172088623047 10.048871994018555 17.52172088623047 11.177892684936523 L17.52172088623047 11.177892684936523 C17.099075317382812 11.23015308380127 16.676427841186523 11.282414436340332 16.253782272338867 11.334674835205078 L16.253782272338867 11.334674835205078 C16.001802444458008 10.802482604980469 15.945326805114746 10.120827674865723 15.497843742370605 9.738099098205566 C15.046124458312988 9.351747512817383 14.358917236328125 9.39733600616455 13.789453506469727 9.226954460144043 L13.789453506469727 9.226954460144043 C13.789453506469727 11.336004257202148 13.789453506469727 13.44505500793457 13.789453506469727 15.554105758666992 L13.789453506469727 15.554105758666992 C14.342941284179688 15.642093658447266 14.896430015563965 15.730081558227539 15.449917793273926 15.818069458007812 L15.449917793273926 15.818069458007812 C15.492201805114746 16.214111328125 15.53448486328125 16.610151290893555 15.57676887512207 17.006193161010742 L15.57676887512207 17.006193161010742 C13.299345016479492 17.006193161010742 11.021917343139648 17.006193161010742 8.744492530822754 17.006193161010742 L8.744492530822754 17.006193161010742 C8.766536712646484 16.610437393188477 8.788581848144531 16.21468162536621 8.810626029968262 15.818924903869629 L8.810626029968262 15.818924903869629 C9.362214088439941 15.74737548828125 9.913801193237305 15.675825119018555 10.465389251708984 15.604275703430176 L10.465389251708984 15.604275703430176 C10.58211898803711 13.502269744873047 10.546866416931152 11.407371520996094 10.562593460083008 9.303064346313477 L10.562593460083008 9.303064346313477 C10.00326156616211 9.38937759399414 9.338542938232422 9.224015235900879 8.884598731994629 9.562004089355469 C8.390775680541992 9.92968463897705 8.309256553649902 10.650665283203125 8.021585464477539 11.194995880126953 L8.021585464477539 11.194995880126953 C7.588296890258789 11.239654541015625 7.155008316040039 11.284314155578613 6.721719741821289 11.328972816467285 L6.721719741821289 11.328972816467285 C6.721719741821289 10.149592399597168 6.721719741821289 8.97021198272705 6.721719741821289 7.790831089019775 L6.721719741821289 7.790831089019775"></path></svg>