<svg xmlns="http://www.w3.org/2000/svg" viewBox="0.0 0.0 24.0 24.0" height="200px" width="200px"><path fill="none" stroke="black" stroke-width=".3" stroke-opacity="1.0"  filling="0" d="M2.6163902282714844 4.517032623291016 C8.872467994689941 4.517032623291016 15.238008499145508 4.517032623291016 21.816390991210938 4.517032623291016 C21.816390991210938 6.402724266052246 21.816390991210938 8.364431381225586 21.816390991210938 10.53847599029541 C21.117555618286133 10.624626159667969 20.40554428100586 10.712804794311523 19.562280654907227 10.817198753356934 C18.92983055114746 8.607681274414062 18.071361541748047 6.706786632537842 15.181251525878906 7.070140838623047 C15.181251525878906 10.759934425354004 15.181251525878906 14.438578605651855 15.181251525878906 18.318408966064453 C16.083301544189453 18.46182632446289 16.96761703491211 18.60270881652832 18.133188247680664 18.78767967224121 C18.196027755737305 19.373506546020508 18.268495559692383 20.054100036621094 18.358699798583984 20.899898529052734 C14.269570350646973 20.899898529052734 10.419130325317383 20.899898529052734 6.21243143081665 20.899898529052734 C6.256012916564941 20.114404678344727 6.290980339050293 19.488544464111328 6.3300018310546875 18.789199829101562 C7.304014205932617 18.663013458251953 8.122954368591309 18.556591033935547 9.27180290222168 18.407602310180664 C9.61032485961914 14.65800952911377 9.346298217773438 10.926155090332031 9.444610595703125 7.205448627471924 C6.416659832000732 7.108147621154785 6.0234055519104 7.4091691970825195 4.927261829376221 10.568881034851074 C4.285690784454346 10.634761810302734 3.562530517578125 10.709257125854492 2.6163902282714844 10.807063102722168 C2.6163902282714844 8.673561096191406 2.6163902282714844 6.697157859802246 2.6163902282714844 4.517032623291016"></path></svg>