<svg xmlns="http://www.w3.org/2000/svg" viewBox="0.0 0.0 24.0 24.0" height="200px" width="200px"><path fill="none" stroke="black" stroke-width=".3" stroke-opacity="1.0"  filling="0" d="M12.809775352478027 8.150581359863281 L12.809775352478027 8.150581359863281 C14.183076858520508 8.150581359863281 15.556374549865723 8.150581359863281 16.929676055908203 8.150581359863281 L16.929676055908203 8.150581359863281 C16.979080200195312 8.483482360839844 17.028484344482422 8.81638240814209 17.07788848876953 9.149283409118652 L17.07788848876953 9.149283409118652 C15.860485076904297 9.763587951660156 15.133649826049805 10.99329662322998 14.597162246704102 12.374449729919434 C14.060674667358398 13.75560188293457 13.714534759521484 15.288200378417969 13.258522987365723 16.508283615112305 L13.258522987365723 16.508283615112305 C12.17813777923584 16.508283615112305 11.097752571105957 16.508283615112305 10.017367362976074 16.508283615112305 L10.017367362976074 16.508283615112305 C9.627298355102539 15.391096115112305 9.310723304748535 13.799619674682617 8.795361518859863 12.381476402282715 C8.279999732971191 10.963333129882812 7.565851211547852 9.718523025512695 6.3806352615356445 9.294670104980469 L6.3806352615356445 9.294670104980469 C6.346471786499023 8.915533065795898 6.312308311462402 8.536396980285645 6.278144836425781 8.157259941101074 L6.278144836425781 8.157259941101074 C8.114492416381836 8.157259941101074 9.950836181640625 8.157259941101074 11.787185668945312 8.157259941101074 L11.787185668945312 8.157259941101074 C11.829568862915039 8.472949981689453 11.871952056884766 8.788640975952148 11.914335250854492 9.104331016540527 L11.914335250854492 9.104331016540527 C11.47903060913086 9.246807098388672 11.04372501373291 9.389283180236816 10.608420372009277 9.531759262084961 L10.608420372009277 9.531759262084961 C11.092143058776855 10.970832824707031 11.575918197631836 12.409887313842773 12.059721946716309 13.848934173583984 L12.059721946716309 13.848934173583984 C12.148512840270996 13.870511054992676 12.237302780151367 13.89208698272705 12.326093673706055 13.913663864135742 L12.326093673706055 13.913663864135742 C12.852776527404785 12.455517768859863 13.379420280456543 10.997359275817871 13.906086921691895 9.539207458496094 L13.906086921691895 9.539207458496094 C13.35588550567627 9.326895713806152 12.869635581970215 8.737279891967773 12.809775352478027 8.150581359863281 L12.809775352478027 8.150581359863281"></path></svg>