<svg xmlns="http://www.w3.org/2000/svg" viewBox="0.0 0.0 24.0 24.0" height="200px" width="200px"><path fill="none" stroke="black" stroke-width=".3" stroke-opacity="1.0"  filling="0" d="M17.205780029296875 6.71415376663208 C18.60660743713379 6.71415376663208 19.939306259155273 6.71415376663208 21.537843704223633 6.71415376663208 C21.447242736816406 7.249691963195801 21.521339416503906 8.070382118225098 21.24566650390625 8.212606430053711 C20.226215362548828 8.738311767578125 20.187585830688477 9.686125755310059 19.938602447509766 10.55879020690918 C19.220455169677734 13.078100204467773 18.51740837097168 15.601625442504883 17.80207061767578 18.14481544494629 C16.34154510498047 18.14481544494629 14.956521034240723 18.14481544494629 13.500910758972168 18.14481544494629 C13.120240211486816 16.820545196533203 12.755020141601562 15.5489501953125 12.389450073242188 14.277704238891602 C12.274617195129395 14.267168998718262 12.15908145904541 14.257336616516113 12.043545722961426 14.247503280639648 C11.660416603088379 15.511021614074707 11.277639389038086 16.774188995361328 10.869576454162598 18.1202335357666 C9.508783340454102 18.1202335357666 8.187320709228516 18.1202335357666 6.6927313804626465 18.1202335357666 C5.991791248321533 15.929267883300781 5.306654453277588 13.65472412109375 4.529509544372559 11.412137985229492 C4.128822326660156 10.255375862121582 4.180796146392822 8.816973686218262 2.6528444290161133 8.246317863464355 C2.4129934310913086 8.156768798828125 2.44986629486084 7.326597690582275 2.3378419876098633 6.726444244384766 C4.411515712738037 6.726444244384766 6.316977500915527 6.726444244384766 8.32568359375 6.726444244384766 C8.343944549560547 7.108168601989746 8.510400772094727 7.58751916885376 8.351670265197754 7.750813961029053 C7.1320481300354 9.004148483276367 8.06089973449707 10.206913948059082 8.388543128967285 11.403006553649902 C8.676153182983398 12.453363418579102 9.068060874938965 13.475625991821289 9.540037155151367 14.888041496276855 C10.027463912963867 13.19890308380127 10.410593032836914 11.927659034729004 10.760010719299316 10.646932601928711 C11.180012702941895 9.109148979187012 11.031466484069824 8.822240829467773 9.510890007019043 8.103391647338867 C9.510890007019043 7.677770614624023 9.510890007019043 7.233537197113037 9.510890007019043 6.714504718780518 C11.613008499145508 6.714504718780518 13.638921737670898 6.714504718780518 15.6300687789917 6.714504718780518 C16.285709381103516 7.93447732925415 15.439733505249023 8.279328346252441 14.420631408691406 8.639632225036621 C14.99620246887207 10.64482593536377 15.552810668945312 12.584351539611816 16.109420776367188 14.5242280960083 C16.200021743774414 14.520715713500977 16.29097557067871 14.517556190490723 16.381580352783203 14.514043807983398 C16.77243423461914 13.182397842407227 16.90798568725586 11.690266609191895 17.617355346679688 10.558438301086426 C18.55674171447754 9.0596342086792 16.780160903930664 8.07775592803955 17.205780029296875 6.71415376663208"></path></svg>