<svg xmlns="http://www.w3.org/2000/svg" viewBox="0.0 0.0 24.0 24.0" height="200px" width="200px"><path fill="none" stroke="black" stroke-width=".3" stroke-opacity="1.0"  filling="0" d="M10.915596961975098 2.4573793411254883 C11.908320426940918 2.3374414443969727 12.899319648742676 3.285297393798828 12.917008399963379 4.286650657653809 C12.933834075927734 5.232348442077637 11.944129943847656 6.235426425933838 10.990666389465332 6.23974084854126 C10.022101402282715 6.244055271148682 9.038437843322754 5.248310565948486 9.116094589233398 4.2680983543396 C9.201519012451172 3.18520450592041 9.873258590698242 2.582925796508789 10.915596961975098 2.4573793411254883"></path>
<path fill="none" stroke="black" stroke-width=".3" stroke-opacity="1.0"  filling="0" d="M7.6953911781311035 7.247134685516357 C9.839606285095215 7.247134685516357 11.611063957214355 7.247134685516357 13.6392240524292 7.247134685516357 C13.6392240524292 9.362443923950195 13.644401550292969 11.426412582397461 13.63749885559082 13.490381240844727 C13.632322311401367 15.1427640914917 13.67546558380127 16.799030303955078 13.582707405090332 18.447097778320312 C13.479595184326172 20.274211883544922 12.87904167175293 21.128877639770508 11.077383041381836 21.44080352783203 C9.562627792358398 21.703113555908203 7.942601680755615 21.71346664428711 6.422236442565918 21.4835147857666 C4.955800533294678 21.262187957763672 4.2124433517456055 20.16074562072754 4.369485378265381 19.148174285888672 C4.534291744232178 18.087284088134766 5.74186897277832 17.357303619384766 7.040478229522705 17.53375816345215 C8.290766716003418 17.7037410736084 8.645834922790527 18.23699188232422 8.658778190612793 19.962718963623047 C8.802876472473145 19.99852752685547 8.946542739868164 20.033905029296875 9.0902099609375 20.069713592529297 C9.211010932922363 19.566232681274414 9.42888355255127 19.063613891601562 9.436217308044434 18.55841064453125 C9.473320960998535 15.971977233886719 9.4491605758667 13.384249687194824 9.462102890014648 10.797386169433594 C9.466418266296387 9.966879844665527 9.391348838806152 9.293415069580078 8.431413650512695 8.901243209838867 C8.078502655029297 8.7567138671875 7.992216110229492 7.959427833557129 7.6953911781311035 7.247134685516357"></path></svg>