<svg xmlns="http://www.w3.org/2000/svg" viewBox="0.0 0.0 24.0 24.0" height="200px" width="200px"><path fill="none" stroke="black" stroke-width=".3" stroke-opacity="1.0"  filling="0" d="M8.885368347167969 13.635170936584473 L8.885368347167969 13.635170936584473 C9.907848358154297 13.7355375289917 10.930331230163574 13.835884094238281 11.952816009521484 13.936206817626953 L11.952816009521484 13.936206817626953 C11.949356079101562 14.05432415008545 11.945895195007324 14.172442436218262 11.942435264587402 14.290559768676758 L11.942435264587402 14.290559768676758 C12.665244102478027 13.873841285705566 13.573274612426758 13.303293228149414 14.383135795593262 13.286303520202637 C15.832161903381348 13.255905151367188 15.983725547790527 14.764226913452148 16.16872787475586 15.753271102905273 C16.40842056274414 17.034698486328125 16.424116134643555 18.427343368530273 16.379589080810547 19.82467269897461 C16.335063934326172 21.222000122070312 16.230316162109375 22.624011993408203 16.229124069213867 23.924165725708008 L16.229124069213867 23.924165725708008 C15.210264205932617 23.978206634521484 14.191397666931152 24.032142639160156 13.172528266906738 24.086008071899414 L13.172528266906738 24.086008071899414 C13.172528266906738 22.80290985107422 13.172528266906738 21.519813537597656 13.172528266906738 20.236717224121094 C13.172528266906738 18.95362091064453 13.172528266906738 17.67052459716797 13.172528266906738 16.387426376342773 L13.172528266906738 16.387426376342773 C12.903105735778809 16.371383666992188 12.633684158325195 16.3553409576416 12.364261627197266 16.339298248291016 L12.364261627197266 16.339298248291016 C11.885058403015137 17.605918884277344 11.750663757324219 18.833393096923828 11.69350528717041 20.075515747070312 C11.636346817016602 21.317638397216797 11.656423568725586 22.57440948486328 11.486164093017578 23.899627685546875 L11.486164093017578 23.899627685546875 C11.187904357910156 23.899627685546875 9.087638854980469 23.899627685546875 8.885368347167969 23.899627685546875 L8.885368347167969 23.899627685546875 C8.885368347167969 22.188884735107422 8.885368347167969 20.47814178466797 8.885368347167969 18.767398834228516 C8.885368347167969 17.056655883789062 8.885368347167969 15.34591293334961 8.885368347167969 13.635170936584473 L8.885368347167969 13.635170936584473"></path></svg>