<svg xmlns="http://www.w3.org/2000/svg" viewBox="0.0 0.0 24.0 24.0" height="200px" width="200px"><path fill="none" stroke="black" stroke-width=".3" stroke-opacity="1.0"  filling="0" d="M12.466139793395996 9.525954246520996 L12.466139793395996 9.525954246520996 C13.873629570007324 9.840778350830078 15.516176223754883 10.031152725219727 16.636945724487305 11.053297996520996 C18.4351806640625 12.693294525146484 18.267742156982422 14.528373718261719 17.203134536743164 15.950608253479004 C16.138526916503906 17.37284278869629 14.176748275756836 18.382232666015625 12.386308670043945 18.370849609375 C10.602701187133789 18.359512329101562 8.656928062438965 17.357378005981445 7.602627754211426 15.944235801696777 C6.548327445983887 14.531092643737793 6.385500431060791 12.706939697265625 8.167783737182617 11.05156135559082 C9.319181442260742 9.982148170471191 11.010981559753418 9.824283599853516 12.466139793395996 9.525954246520996 L12.466139793395996 9.525954246520996"></path>
<path fill="none" stroke="black" stroke-width=".3" stroke-opacity="1.0"  filling="0" d="M11.884420394897461 11.382877349853516 L11.884420394897461 11.382877349853516 C12.360568046569824 11.41910457611084 12.902329444885254 11.247651100158691 13.312862396240234 11.491559028625488 C14.639673233032227 12.279850006103516 14.634417533874512 15.763227462768555 13.319682121276855 16.50284194946289 C12.178275108337402 17.144948959350586 11.113804817199707 16.366289138793945 10.728919982910156 15.275256156921387 C10.176939010620117 13.710555076599121 10.781691551208496 12.316633224487305 11.884420394897461 11.382877349853516 L11.884420394897461 11.382877349853516"></path></svg>