<svg xmlns="http://www.w3.org/2000/svg" viewBox="0.0 0.0 24.0 24.0" height="200px" width="200px"><path fill="none" stroke="black" stroke-width=".3" stroke-opacity="1.0"  filling="0" d="M12.340982437133789 11.692511558532715 L12.340982437133789 11.692511558532715 C13.198257446289062 11.754833221435547 14.060552597045898 11.760347366333008 14.91938304901123 11.72549819946289 L14.91938304901123 11.72549819946289 C14.91938304901123 13.49206256866455 14.91938304901123 15.258626937866211 14.91938304901123 17.025190353393555 C14.91938304901123 18.7917537689209 14.91938304901123 20.558319091796875 14.91938304901123 22.32488250732422 L14.91938304901123 22.32488250732422 C14.264908790588379 22.32488250732422 13.610435485839844 22.32488250732422 12.955961227416992 22.32488250732422 L12.955961227416992 22.32488250732422 C12.955961227416992 21.256271362304688 12.955961227416992 20.187658309936523 12.955961227416992 19.119047164916992 L12.955961227416992 19.119047164916992 C10.111421585083008 19.34000587463379 9.463890075683594 17.703062057495117 9.539115905761719 14.94765853881836 C9.55921745300293 14.211370468139648 9.635756492614746 12.163708686828613 10.542160034179688 11.667014122009277 C11.068045616149902 11.378837585449219 11.741374969482422 11.684012413024902 12.340982437133789 11.692511558532715 L12.340982437133789 11.692511558532715"></path>
<path fill="none" stroke="black" stroke-width=".3" stroke-opacity="1.0"  filling="0" d="M12.168302536010742 13.350631713867188 L12.168302536010742 13.350631713867188 C11.494612693786621 15.07099437713623 11.414177894592285 15.709622383117676 12.290491104125977 17.340421676635742 L12.290491104125977 17.340421676635742 C13.164041519165039 15.581335067749023 13.224335670471191 15.014278411865234 12.168302536010742 13.350631713867188 L12.168302536010742 13.350631713867188"></path></svg>