<svg xmlns="http://www.w3.org/2000/svg" viewBox="0.0 0.0 24.0 24.0" height="200px" width="200px"><path fill="none" stroke="black" stroke-width=".3" stroke-opacity="1.0"  filling="0" d="M8.82889461517334 13.328381538391113 L8.82889461517334 13.328381538391113 C9.711639404296875 13.328381538391113 10.59438419342041 13.328381538391113 11.477128982543945 13.328381538391113 L11.477128982543945 13.328381538391113 C11.706840515136719 14.72050666809082 11.730384826660156 16.096723556518555 11.784412384033203 17.469572067260742 C11.838438987731934 18.84242057800293 11.92294692993164 20.211898803710938 12.274584770202637 21.590551376342773 L12.274584770202637 21.590551376342773 C12.988780975341797 20.382427215576172 13.227093696594238 19.023239135742188 13.282842636108398 17.62084197998047 C13.338590621948242 16.218446731567383 13.211773872375488 14.772839546203613 13.195709228515625 13.391874313354492 L13.195709228515625 13.391874313354492 C14.156003952026367 13.391874313354492 15.11629867553711 13.391874313354492 16.07659339904785 13.391874313354492 L16.07659339904785 13.391874313354492 C16.097671508789062 15.553838729858398 16.190773010253906 17.722272872924805 16.110496520996094 19.883827209472656 C16.069381713867188 20.990915298461914 16.153879165649414 22.078556060791016 15.340507507324219 22.995140075683594 C13.841362953186035 24.68451690673828 10.477066993713379 24.49320411682129 9.30784797668457 22.510604858398438 C8.637325286865234 21.373626708984375 8.514447212219238 19.710205078125 8.560770034790039 18.014963150024414 C8.60709285736084 16.319719314575195 8.822615623474121 14.592653274536133 8.82889461517334 13.328381538391113 L8.82889461517334 13.328381538391113"></path></svg>