<svg xmlns="http://www.w3.org/2000/svg" viewBox="0.0 0.0 24.0 24.0" height="200px" width="200px"><path fill="none" stroke="black" stroke-width=".3" stroke-opacity="1.0"  filling="0" d="M10.48418140411377 7.7649712562561035 C12.406976699829102 6.9022345542907715 14.75291919708252 7.39937686920166 15.940689086914062 8.921499252319336 C17.4825439453125 10.8974609375 17.232601165771484 13.830986022949219 15.5010986328125 16.165416717529297 C16.200496673583984 17.75769805908203 17.108728408813477 19.13785743713379 17.363052368164062 20.629283905029297 C17.558731079101562 21.77594757080078 17.160799026489258 23.17803192138672 16.618709564208984 24.26275634765625 C15.720893859863281 26.05948257446289 13.049369812011719 26.90906524658203 10.86512279510498 26.395479202270508 C8.709378242492676 25.887374877929688 7.746883869171143 24.57518196105957 7.471729278564453 21.53148651123047 C8.503833770751953 21.53148651123047 9.30627727508545 21.53148651123047 10.123520851135254 21.53148651123047 C10.264387130737305 21.624664306640625 10.444717407226562 21.695919036865234 10.555437088012695 21.826372146606445 C11.042713165283203 22.399154663085938 11.509160995483398 22.988380432128906 11.983830451965332 23.572124481201172 C12.477684020996094 23.116640090942383 13.376596450805664 22.669376373291016 13.386462211608887 22.203475952148438 C13.411128044128418 21.01296615600586 13.165571212768555 19.768739700317383 12.757772445678711 18.644550323486328 C12.618001937866211 18.259225845336914 11.675787925720215 18.164400100708008 10.992286682128906 17.894725799560547 C10.992286682128906 17.024864196777344 10.992286682128906 16.146230697631836 10.992286682128906 15.267051696777344 C11.132604598999023 15.366259574890137 11.27292251586914 15.465469360351562 11.413788795471191 15.565228462219238 C12.148265838623047 14.690431594848633 13.149675369262695 13.919231414794922 13.539935111999512 12.91124439239502 C13.911559104919434 11.950394630432129 13.68189811706543 10.721515655517578 12.02000617980957 10.375654220581055 C11.636872291564941 11.157269477844238 11.260315895080566 11.92408561706543 10.84703540802002 12.767637252807617 C10.063776016235352 12.767637252807617 9.264619827270508 12.767637252807617 8.47697639465332 12.767637252807617 C7.996824741363525 10.06213092803955 8.588791847229004 8.615649223327637 10.48418140411377 7.7649712562561035"></path></svg>