<svg xmlns="http://www.w3.org/2000/svg" viewBox="0.0 0.0 24.0 24.0" height="200px" width="200px"><path fill="none" stroke="black" stroke-width=".3" stroke-opacity="1.0"  filling="0" d="M9.78077507019043 7.7101640701293945 C12.22819709777832 7.7101640701293945 14.538130760192871 7.7101640701293945 16.951324462890625 7.7101640701293945 C16.951324462890625 8.727927207946777 16.951324462890625 9.619610786437988 16.951324462890625 10.669890403747559 C15.417263984680176 10.785700798034668 14.033243179321289 10.89067268371582 12.471227645874023 11.008764266967773 C12.334309577941895 11.881051063537598 12.207659721374512 12.684877395629883 12.073022842407227 13.541191101074219 C18.35188865661621 15.717058181762695 18.98798942565918 19.917041778564453 16.022558212280273 24.94538116455078 C14.631692886352539 27.30380630493164 11.486555099487305 27.433311462402344 7.820555210113525 25.898109436035156 C7.967172622680664 25.049781799316406 8.122346878051758 24.152963638305664 8.231311798095703 23.520854949951172 C9.69234848022461 23.381084442138672 11.018749237060547 23.475788116455078 12.154033660888672 23.054759979248047 C12.751912117004395 22.832839965820312 13.23340892791748 21.75460433959961 13.389724731445312 20.985576629638672 C13.932836532592773 18.317373275756836 12.853460311889648 17.34981346130371 8.442394256591797 16.463834762573242 C8.879964828491211 13.603375434875488 9.31867504119873 10.732645034790039 9.78077507019043 7.7101640701293945"></path></svg>