<svg xmlns="http://www.w3.org/2000/svg" viewBox="0.0 0.0 24.0 24.0" height="200px" width="200px"><path fill="none" stroke="black" stroke-width=".3" stroke-opacity="1.0"  filling="0" d="M13.25973129272461 7.5238728523254395 L13.25973129272461 7.5238728523254395 C15.07441520690918 7.995683670043945 16.251909255981445 7.5444183349609375 18.06085968017578 7.7000322341918945 L18.06085968017578 7.7000322341918945 C17.075096130371094 9.912364959716797 15.521824836730957 11.794971466064453 14.564291000366211 13.991334915161133 C14.00429630279541 15.275835037231445 13.80959701538086 16.726186752319336 13.517141342163086 18.08537483215332 L13.517141342163086 18.08537483215332 C11.775690078735352 18.08477020263672 11.646013259887695 18.08475685119629 9.867877960205078 18.084674835205078 L9.867877960205078 18.084674835205078 C9.889213562011719 16.201377868652344 10.367166519165039 14.883575439453125 11.181950569152832 13.747329711914062 C11.996734619140625 12.611083984375 13.14834976196289 11.656393051147461 14.517011642456055 10.499319076538086 L14.517011642456055 10.499319076538086 C13.336566925048828 10.416894912719727 10.318487167358398 9.522222518920898 9.589143753051758 10.707257270812988 C9.2794189453125 11.210497856140137 9.218354225158691 11.829414367675781 9.032958984375 12.39049243927002 L9.032958984375 12.39049243927002 C8.508216857910156 12.39049243927002 7.983475208282471 12.39049243927002 7.458733081817627 12.39049243927002 L7.458733081817627 12.39049243927002 C7.458733081817627 10.770386695861816 7.458733081817627 9.15028190612793 7.458733081817627 7.530177116394043 L7.458733081817627 7.530177116394043 C8.278129577636719 7.645717144012451 9.09752082824707 7.761292934417725 9.916908264160156 7.876892566680908 L9.916908264160156 7.876892566680908 C10.963367462158203 7.476421356201172 12.14680004119873 7.394109725952148 13.25973129272461 7.5238728523254395 L13.25973129272461 7.5238728523254395"></path></svg>