<svg xmlns="http://www.w3.org/2000/svg" viewBox="0.0 0.0 24.0 24.0" height="200px" width="200px"><path fill="none" stroke="black" stroke-width=".3" stroke-opacity="1.0"  filling="0" d="M11.451664924621582 9.729663848876953 L11.451664924621582 9.729663848876953 C12.168049812316895 9.729663848876953 12.88443374633789 9.729663848876953 13.600818634033203 9.729663848876953 L13.600818634033203 9.729663848876953 C13.431724548339844 11.182798385620117 13.262601852416992 12.635931015014648 13.09348201751709 14.08906364440918 C12.924362182617188 15.542195320129395 12.755245208740234 16.995328903198242 12.586163520812988 18.44846534729004 L12.586163520812988 18.44846534729004 C13.28971004486084 18.531091690063477 13.99326229095459 18.613664627075195 14.696820259094238 18.69618797302246 L14.696820259094238 18.69618797302246 C14.668030738830566 19.307233810424805 14.639240264892578 19.91828155517578 14.610450744628906 20.529327392578125 L14.610450744628906 20.529327392578125 C13.111623764038086 20.529327392578125 11.612793922424316 20.529327392578125 10.113966941833496 20.529327392578125 L10.113966941833496 20.529327392578125 C10.336943626403809 18.729385375976562 10.55988597869873 16.929441452026367 10.782825469970703 15.129496574401855 C11.005764961242676 13.329551696777344 11.228700637817383 11.529605865478516 11.451664924621582 9.729663848876953 L11.451664924621582 9.729663848876953"></path></svg>