<svg xmlns="http://www.w3.org/2000/svg" viewBox="0.0 0.0 24.0 24.0" height="200px" width="200px"><path fill="none" stroke="black" stroke-width=".3" stroke-opacity="1.0"  filling="0" d="M16.06879425048828 7.925588607788086 C17.233165740966797 7.925588607788086 18.356142044067383 7.925588607788086 19.883010864257812 7.925588607788086 C19.10361099243164 14.311594009399414 18.326574325561523 20.679859161376953 17.540077209472656 27.125587463378906 C16.2266845703125 27.125587463378906 15.171714782714844 27.125587463378906 13.951164245605469 27.125587463378906 C13.002636909484863 23.89444351196289 12.0683012008667 20.71356201171875 11.134557723999023 17.532093048095703 C10.975483894348145 17.5167179107666 10.815818786621094 17.500751495361328 10.656744956970215 17.485374450683594 C10.212640762329102 20.591747283935547 9.767943382263184 23.698707580566406 9.28658390045166 27.05758285522461 C7.928249359130859 27.05758285522461 6.7916717529296875 27.05758285522461 5.516717433929443 27.05758285522461 C6.317407608032227 20.63846206665039 7.094443321228027 14.410348892211914 7.899272918701172 7.956929683685303 C9.044129371643066 7.956929683685303 10.168879508972168 7.956929683685303 11.56506061553955 7.956929683685303 C12.491117477416992 11.152593612670898 13.457977294921875 14.488998413085938 14.424837112426758 17.82599449157715 C14.532461166381836 17.800567626953125 14.639497756958008 17.774547576904297 14.747122764587402 17.74911880493164 C15.17880916595459 14.53867244720459 15.61108684539795 11.32763385772705 16.06879425048828 7.925588607788086"></path></svg>