<svg xmlns="http://www.w3.org/2000/svg" viewBox="0.0 0.0 24.0 24.0" height="200px" width="200px"><path fill="none" stroke="black" stroke-width=".3" stroke-opacity="1.0"  filling="0" d="M13.429985046386719 8.67699909210205 L13.429985046386719 8.67699909210205 C14.588611602783203 8.67699909210205 15.747238159179688 8.67699909210205 16.905864715576172 8.67699909210205 L16.905864715576172 8.67699909210205 C16.837209701538086 8.981584548950195 16.768556594848633 9.28617000579834 16.699901580810547 9.590755462646484 L16.699901580810547 9.590755462646484 C16.360218048095703 9.674210548400879 16.020536422729492 9.757665634155273 15.680853843688965 9.841120719909668 L15.680853843688965 9.841120719909668 C15.23852252960205 11.841846466064453 14.796195030212402 13.842571258544922 14.353851318359375 15.843294143676758 L14.353851318359375 15.843294143676758 C13.458045959472656 15.843294143676758 12.562241554260254 15.843294143676758 11.666436195373535 15.843294143676758 L11.666436195373535 15.843294143676758 C11.016242980957031 14.249879837036133 10.366022109985352 12.65646743774414 9.715828895568848 11.063053131103516 L9.715828895568848 11.063053131103516 C9.652669906616211 11.061294555664062 9.589510917663574 11.05953598022461 9.526351928710938 11.057777404785156 L9.526351928710938 11.057777404785156 C9.26291561126709 12.244623184204102 8.999433517456055 13.431458473205566 8.735909461975098 14.618285179138184 L8.735909461975098 14.618285179138184 C9.050386428833008 14.744236946105957 9.364863395690918 14.87018871307373 9.679340362548828 14.996140480041504 L9.679340362548828 14.996140480041504 C9.650252342224121 15.279478073120117 9.621163368225098 15.562814712524414 9.59207534790039 15.846152305603027 L9.59207534790039 15.846152305603027 C8.430078506469727 15.846152305603027 7.268080711364746 15.846152305603027 6.106083393096924 15.846152305603027 L6.106083393096924 15.846152305603027 C6.143158435821533 15.538196563720703 6.180233478546143 15.230239868164062 6.217308521270752 14.922284126281738 L6.217308521270752 14.922284126281738 C6.598461627960205 14.857439994812012 6.979614734649658 14.792594909667969 7.360767841339111 14.727750778198242 L7.360767841339111 14.727750778198242 C7.714529991149902 13.121809005737305 8.068258285522461 11.515865325927734 8.422018051147461 9.90992259979248 L8.422018051147461 9.90992259979248 C8.096990585327148 9.785069465637207 7.7719621658325195 9.660215377807617 7.446934223175049 9.535362243652344 L7.446934223175049 9.535362243652344 C7.4875993728637695 9.25114631652832 7.528264045715332 8.966930389404297 7.568929195404053 8.682714462280273 L7.568929195404053 8.682714462280273 C8.899521827697754 8.682714462280273 10.230113983154297 8.682714462280273 11.560707092285156 8.682714462280273 L11.560707092285156 8.682714462280273 C12.174759864807129 10.175466537475586 12.788835525512695 11.668209075927734 13.402947425842285 13.160934448242188 L13.402947425842285 13.160934448242188 C13.465960502624512 13.158296585083008 13.528972625732422 13.155658721923828 13.591985702514648 13.153020858764648 L13.591985702514648 13.153020858764648 C13.834014892578125 12.063712120056152 14.076026916503906 10.97439956665039 14.318023681640625 9.885083198547363 L14.318023681640625 9.885083198547363 C13.95020580291748 9.777009010314941 13.58238697052002 9.668935775756836 13.214569091796875 9.560861587524414 L13.214569091796875 9.560861587524414 C13.28637409210205 9.266241073608398 13.358180046081543 8.971619606018066 13.429985046386719 8.67699909210205 L13.429985046386719 8.67699909210205"></path></svg>