<svg xmlns="http://www.w3.org/2000/svg" viewBox="0.0 0.0 24.0 24.0" height="200px" width="200px"><path fill="none" stroke="black" stroke-width=".3" stroke-opacity="1.0"  filling="0" d="M16.087997436523438 4.7232537269592285 C20.309280395507812 5.686778545379639 22.08498764038086 8.64141845703125 20.64249610900879 12.717377662658691 C20.090435028076172 14.277678489685059 19.032318115234375 15.658258438110352 18.193479537963867 17.140737533569336 C19.034900665283203 17.636043548583984 19.620925903320312 17.300251007080078 19.989826202392578 16.429595947265625 C20.415481567382812 15.425222396850586 21.039344787597656 15.808313369750977 21.696311950683594 16.031457901000977 C20.84844398498535 20.09021759033203 18.050737380981445 21.507347106933594 14.795559883117676 19.529129028320312 C13.954571723937988 19.01791763305664 13.241708755493164 18.966320037841797 12.38137149810791 19.174846649169922 C10.385527610778809 19.659404754638672 8.398283004760742 19.576425552368164 6.4531731605529785 18.940954208374023 C3.5944128036499023 18.006664276123047 2.120962142944336 15.580438613891602 2.5788631439208984 12.599570274353027 C3.158008575439453 8.828018188476562 5.401504993438721 6.401361465454102 8.900465965270996 5.157936096191406 C11.220925331115723 4.333284854888916 13.644572257995605 4.1656036376953125 16.087997436523438 4.7232537269592285"></path>
<path fill="none" stroke="black" stroke-width=".3" stroke-opacity="1.0"  filling="0" d="M12.646221160888672 6.61934757232666 C14.247797012329102 6.533787250518799 15.309351921081543 7.392403602600098 15.303332328796387 9.003009796142578 C15.29731273651123 10.528913497924805 14.995916366577148 12.053529739379883 14.783089637756348 13.945324897766113 C12.562808990478516 12.038050651550293 10.574274063110352 11.658401489257812 8.5001802444458 13.740666389465332 C8.2877836227417 11.594768524169922 8.82221508026123 9.867646217346191 9.788320541381836 8.25575065612793 C10.425081253051758 7.193335056304932 11.437621116638184 6.68427038192749 12.646221160888672 6.61934757232666"></path>
<path fill="none" stroke="black" stroke-width=".3" stroke-opacity="1.0"  filling="0" d="M10.755285263061523 15.260551452636719 C11.496524810791016 15.482406616210938 12.11995792388916 16.09939193725586 12.794984817504883 16.541812896728516 C12.74252986907959 16.755069732666016 12.690075874328613 16.9687557220459 12.637621879577637 17.1820125579834 C11.907130241394043 17.342815399169922 11.181798934936523 17.60293960571289 10.445718765258789 17.6373348236084 C9.689431190490723 17.672590255737305 8.961519241333008 17.31443977355957 9.062989234924316 16.4162654876709 C9.166177749633789 15.5034761428833 9.931924819946289 15.014188766479492 10.755285263061523 15.260551452636719"></path></svg>