<svg xmlns="http://www.w3.org/2000/svg" viewBox="0.0 0.0 24.0 24.0" height="200px" width="200px"><path fill="none" stroke="black" stroke-width=".3" stroke-opacity="1.0"  filling="0" d="M9.654571533203125 6.869053840637207 C10.81822395324707 6.869053840637207 11.760074615478516 6.869053840637207 12.923185348510742 6.869053840637207 C12.522859573364258 10.418437957763672 12.139843940734863 13.819051742553711 11.756287574768066 17.219125747680664 C11.905057907104492 17.265649795532227 12.053827285766602 17.312715530395508 12.202597618103027 17.359241485595703 C12.779284477233887 16.389801025390625 13.355971336364746 15.42035961151123 13.964576721191406 14.397904396057129 C14.97026252746582 14.397904396057129 15.94078540802002 14.397904396057129 17.416584014892578 14.397904396057129 C16.6099796295166 15.700589179992676 16.00786590576172 16.831783294677734 15.253194808959961 17.8493709564209 C14.41845989227295 18.975154876708984 14.255624771118164 20.031692504882812 14.8388032913208 21.34844398498535 C15.487981796264648 22.81450653076172 15.917521476745605 24.377941131591797 16.500699996948242 26.069053649902344 C15.283490180969238 26.069053649902344 14.249673843383789 26.069053649902344 13.121725082397461 26.069053649902344 C12.607792854309082 24.379024505615234 12.119285583496094 22.773387908935547 11.630778312683105 21.16775131225586 C11.523663520812988 21.169918060302734 11.417089462280273 21.172622680664062 11.309975624084473 21.174785614013672 C11.05517292022705 22.73281478881836 10.800910949707031 24.290842056274414 10.517977714538574 26.02036476135254 C9.577750205993652 26.02036476135254 8.639687538146973 26.02036476135254 7.287773132324219 26.02036476135254 C8.078149795532227 19.62811851501465 8.862032890319824 13.28077507019043 9.654571533203125 6.869053840637207"></path></svg>