<svg xmlns="http://www.w3.org/2000/svg" viewBox="0.0 0.0 24.0 24.0" height="200px" width="200px"><path fill="none" stroke="black" stroke-width=".3" stroke-opacity="1.0"  filling="0" d="M9.826714515686035 6.987312316894531 L9.826714515686035 6.987312316894531 C11.335871696472168 6.987312316894531 12.8450288772583 6.987312316894531 14.354185104370117 6.987312316894531 L14.354185104370117 6.987312316894531 C14.036406517028809 8.497895240783691 13.718660354614258 10.008485794067383 13.400931358337402 11.519081115722656 C13.083202362060547 13.029674530029297 12.76548957824707 14.54027271270752 12.44777774810791 16.05086898803711 L12.44777774810791 16.05086898803711 C12.822720527648926 16.275724411010742 13.197662353515625 16.500577926635742 13.57260513305664 16.725433349609375 L13.57260513305664 16.725433349609375 C13.478289604187012 17.079282760620117 13.383974075317383 17.433130264282227 13.289658546447754 17.78697967529297 L13.289658546447754 17.78697967529297 C11.23934555053711 17.78697967529297 9.189037322998047 17.78697967529297 7.1387248039245605 17.78697967529297 L7.1387248039245605 17.78697967529297 C7.791665554046631 16.98822593688965 8.675446510314941 16.33845329284668 9.115041732788086 15.405128479003906 C10.001357078552246 13.523351669311523 10.14573860168457 10.831212043762207 10.583114624023438 8.797637939453125 L10.583114624023438 8.797637939453125 C10.234126091003418 8.548707008361816 9.885136604309082 8.299776077270508 9.536148071289062 8.0508451461792 L9.536148071289062 8.0508451461792 C9.633003234863281 7.696334362030029 9.729859352111816 7.341823101043701 9.826714515686035 6.987312316894531 L9.826714515686035 6.987312316894531"></path></svg>