<svg xmlns="http://www.w3.org/2000/svg" viewBox="0.0 0.0 24.0 24.0" height="200px" width="200px"><path fill="none" stroke="black" stroke-width=".3" stroke-opacity="1.0"  filling="0" d="M14.728887557983398 8.999216079711914 C17.823266983032227 8.733072280883789 19.046274185180664 10.227974891662598 18.544313430786133 13.258562088012695 C18.360260009765625 14.369672775268555 18.045490264892578 15.458824157714844 17.825881958007812 16.564706802368164 C17.598430633544922 17.708759307861328 16.934900283813477 18.99294090270996 18.845489501953125 19.4724178314209 C19.059345245361328 19.526273727416992 19.038951873779297 20.51241683959961 19.162874221801758 21.288888931274414 C16.025619506835938 21.28836441040039 13.119476318359375 21.28836441040039 9.934640884399414 21.28836441040039 C10.212809562683105 20.589282989501953 10.293333053588867 19.6439208984375 10.711111068725586 19.457778930664062 C13.618823051452637 18.163660049438477 12.746665954589844 15.339085578918457 13.290979385375977 13.160262107849121 C13.583788871765137 11.988497734069824 12.269804000854492 11.428497314453125 11.361567497253418 11.781438827514648 C10.419344902038574 12.147451400756836 9.418038368225098 12.953725814819336 8.964704513549805 13.835817337036133 C8.39111042022705 14.953203201293945 8.269280433654785 16.33150291442871 8.107711791992188 17.61725425720215 C8.043920516967773 18.124967575073242 8.420391082763672 18.679738998413086 8.558953285217285 19.223007202148438 C8.730978965759277 19.89594841003418 8.863790512084961 20.579345703125 9.041044235229492 21.38248634338379 C5.7024827003479 21.38248634338379 2.849148750305176 21.38248634338379 -0.03451061248779297 21.38248634338379 C-0.05699443817138672 20.275554656982422 0.06588077545166016 19.52732276916504 1.321828842163086 19.184314727783203 C1.9665346145629883 19.008106231689453 2.6661434173583984 18.158954620361328 2.8847055435180664 17.469280242919922 C3.4039201736450195 15.830587387084961 3.6507177352905273 14.106144905090332 4.040783405303955 12.260915756225586 C3.3871889114379883 11.93777847290039 2.7994766235351562 11.647582054138184 2.0371227264404297 11.270588874816895 C2.1730709075927734 10.756078720092773 2.319477081298828 10.202353477478027 2.4585609436035156 9.675817489624023 C7.043135643005371 9.080263137817383 9.016992568969727 9.30666732788086 9.810194969177246 10.388497352600098 C11.4833984375 9.895425796508789 13.079737663269043 9.141438484191895 14.728887557983398 8.999216079711914"></path></svg>