<svg xmlns="http://www.w3.org/2000/svg" viewBox="0.0 0.0 24.0 24.0" height="200px" width="200px"><path fill="none" stroke="black" stroke-width=".3" stroke-opacity="1.0"  filling="0" d="M10.259064674377441 14.278565406799316 L10.259064674377441 14.278565406799316 C12.0772123336792 14.278565406799316 13.89536190032959 14.278565406799316 15.713508605957031 14.278565406799316 L15.713508605957031 14.278565406799316 C15.713508605957031 15.004984855651855 15.713508605957031 15.731403350830078 15.713508605957031 16.457822799682617 L15.713508605957031 16.457822799682617 C15.104696273803711 16.659198760986328 14.410480499267578 16.691478729248047 13.887070655822754 17.061948776245117 C12.953180313110352 17.722957611083984 12.553668975830078 19.21575355529785 12.351469993591309 20.798913955688477 C12.149271965026855 22.38207244873047 12.144386291503906 24.05559730529785 11.999748229980469 25.078060150146484 L11.999748229980469 25.078060150146484 C10.980443000793457 25.07838249206543 9.961136817932129 25.07852554321289 8.941831588745117 25.078563690185547 L8.941831588745117 25.078563690185547 C9.161483764648438 23.27857780456543 9.381058692932129 21.47858238220215 9.600586891174316 19.67858123779297 C9.820115089416504 17.878582000732422 10.039596557617188 16.078575134277344 10.259064674377441 14.278565406799316 L10.259064674377441 14.278565406799316"></path></svg>