<svg xmlns="http://www.w3.org/2000/svg" viewBox="0.0 0.0 24.0 24.0" height="200px" width="200px"><path fill="none" stroke="black" stroke-width=".3" stroke-opacity="1.0"  filling="0" d="M13.501378059387207 14.104907989501953 L13.501378059387207 14.104907989501953 C14.490715980529785 14.104907989501953 15.48005485534668 14.104907989501953 16.469392776489258 14.104907989501953 L16.469392776489258 14.104907989501953 C15.395012855529785 15.761798858642578 14.320673942565918 17.41871452331543 13.246268272399902 19.07558822631836 L13.246268272399902 19.07558822631836 C14.012385368347168 21.00028419494629 14.77841567993164 22.925006866455078 15.544245719909668 24.849815368652344 L15.544245719909668 24.849815368652344 C14.528437614440918 24.849815368652344 13.512628555297852 24.849815368652344 12.496820449829102 24.849815368652344 L12.496820449829102 24.849815368652344 C12.300108909606934 24.421316146850586 11.3779935836792 22.412891387939453 11.228713989257812 22.08777618408203 L11.228713989257812 22.08777618408203 C10.540797233581543 23.026975631713867 9.85289192199707 23.966184616088867 9.165000915527344 24.90540313720703 L9.165000915527344 24.90540313720703 C8.17020320892334 24.90540313720703 7.175405025482178 24.90540313720703 6.180607318878174 24.90540313720703 L6.180607318878174 24.90540313720703 C7.2024407386779785 23.270381927490234 9.907366752624512 20.51929473876953 9.648841857910156 18.46259117126465 C9.476696014404297 17.093074798583984 8.471489906311035 15.489740371704102 8.000624656677246 14.199209213256836 L8.000624656677246 14.199209213256836 C8.97325325012207 14.199209213256836 9.945882797241211 14.199209213256836 10.918511390686035 14.199209213256836 L10.918511390686035 14.199209213256836 C11.262589454650879 14.839653015136719 11.606714248657227 15.480072021484375 11.9508638381958 16.1204776763916 L11.9508638381958 16.1204776763916 C12.467690467834473 15.448612213134766 12.984526634216309 14.776754379272461 13.501378059387207 14.104907989501953 L13.501378059387207 14.104907989501953"></path></svg>