<svg xmlns="http://www.w3.org/2000/svg" viewBox="0.0 0.0 24.0 24.0" height="200px" width="200px"><path fill="none" stroke="black" stroke-width=".3" stroke-opacity="1.0"  filling="0" d="M13.819382667541504 7.10842752456665 C15.34747314453125 7.10842752456665 16.767135620117188 7.10842752456665 18.13230323791504 7.10842752456665 C14.75365161895752 11.959550857543945 12.934550285339355 17.608989715576172 10.250280380249023 22.820785522460938 C9.740730285644531 23.81011390686035 9.274438858032227 24.91516876220703 8.485673904418945 25.635955810546875 C7.9058990478515625 26.165733337402344 6.808708190917969 26.378089904785156 5.990730285644531 26.289325714111328 C5.604213714599609 26.2471923828125 5.085674285888672 25.165729522705078 5.091292381286621 24.559551239013672 C5.095224857330322 24.16179847717285 5.878370761871338 23.56348419189453 6.405336856842041 23.43427276611328 C6.969381809234619 23.29606819152832 7.642415523529053 23.60280990600586 8.189044952392578 23.70168685913086 C10.216573715209961 21.337078094482422 10.727808952331543 18.962921142578125 9.328932762145996 16.181461334228516 C8.36994457244873 14.274157524108887 7.80140495300293 12.173595428466797 6.924437999725342 10.219663619995117 C6.4609551429748535 9.186517715454102 5.7109551429748535 8.282022476196289 4.973875999450684 7.139887809753418 C7.13455057144165 7.139887809753418 9.259831428527832 7.139887809753418 11.425000190734863 7.139887809753418 C9.712640762329102 9.939326286315918 12.10252857208252 12.131461143493652 12.402528762817383 14.661236763000488 C13.302528381347656 12.250000953674316 15.831741333007812 10.232023239135742 13.819382667541504 7.10842752456665"></path></svg>