<svg xmlns="http://www.w3.org/2000/svg" viewBox="0.0 0.0 24.0 24.0" height="200px" width="200px"><path fill="none" stroke="black" stroke-width=".3" stroke-opacity="1.0"  filling="0" d="M11.148538589477539 8.170130729675293 C12.972124099731445 7.169548988342285 16.042734146118164 7.341434955596924 17.32903480529785 8.64025592803955 C18.983577728271484 10.311305046081543 18.675094604492188 12.423453330993652 17.895347595214844 14.229394912719727 C16.890213012695312 16.557254791259766 15.411539077758789 18.681922912597656 14.129223823547363 20.889122009277344 C13.70861530303955 21.61309051513672 13.262964248657227 22.323402404785156 12.664209365844727 23.312030792236328 C13.972136497497559 23.458871841430664 15.035894393920898 23.578393936157227 16.30170249938965 23.720684051513672 C16.30170249938965 24.661502838134766 16.30170249938965 25.619966506958008 16.30170249938965 26.726409912109375 C13.113274574279785 26.72641372680664 10.114946365356445 26.72641372680664 6.951562404632568 26.72641372680664 C9.315279006958008 21.10483169555664 14.646018981933594 17.22146224975586 14.884496688842773 10.802490234375 C12.434837341308594 10.405217170715332 12.434837341308594 10.405217170715332 11.502555847167969 14.219718933105469 C11.110404968261719 14.273788452148438 10.660200119018555 14.370545387268066 10.206581115722656 14.388189315795898 C9.743855476379395 14.406402587890625 9.278284072875977 14.34607219696045 8.833770751953125 14.3215970993042 C8.352262496948242 11.453038215637207 9.203722953796387 9.237302780151367 11.148538589477539 8.170130729675293"></path></svg>