<svg xmlns="http://www.w3.org/2000/svg" viewBox="0.0 0.0 24.0 24.0" height="200px" width="200px"><path fill="none" stroke="black" stroke-width=".3" stroke-opacity="1.0"  filling="0" d="M11.157577514648438 7.776710033416748 C13.479326248168945 7.776710033416748 15.802221298217773 7.776710033416748 18.37162208557129 7.776710033416748 C18.24263572692871 8.75069808959961 18.124542236328125 9.643854141235352 17.98294448852539 10.717592239379883 C16.411035537719727 10.820207595825195 15.017412185668945 10.911356925964355 13.440343856811523 11.014545440673828 C13.189250946044922 11.828591346740723 12.943890571594238 12.62486457824707 12.668720245361328 13.517447471618652 C19.182228088378906 15.756645202636719 18.322895050048828 20.136436462402344 15.621068000793457 24.617698669433594 C14.034826278686523 27.250160217285156 10.630167961120605 27.592403411865234 6.994482517242432 26.077247619628906 C7.2358293533325195 25.200716018676758 7.481762409210205 24.306411743164062 7.660049915313721 23.65861701965332 C9.215909004211426 23.45166778564453 10.682336807250977 23.55944061279297 11.819132804870605 22.99820899963379 C12.567824363708496 22.62902069091797 13.095234870910645 21.344894409179688 13.277534484863281 20.386384963989258 C13.739591598510742 17.95686149597168 12.788534164428711 17.171480178833008 8.769903182983398 16.45030403137207 C9.550125122070312 13.615477561950684 10.325761795043945 10.797849655151367 11.157577514648438 7.776710033416748"></path></svg>