<svg xmlns="http://www.w3.org/2000/svg" viewBox="0.0 0.0 24.0 24.0" height="200px" width="200px"><path fill="none" stroke="black" stroke-width=".3" stroke-opacity="1.0"  filling="0" d="M15.335704803466797 7.367459774017334 L15.335704803466797 7.367459774017334 C15.65876293182373 7.456362724304199 16.0168399810791 7.462985038757324 16.30487823486328 7.6341681480407715 C16.75000762939453 7.89871072769165 17.25741195678711 8.179397583007812 17.48473358154297 8.644637107849121 C18.570680618286133 10.86716079711914 14.295095443725586 12.043527603149414 14.189440727233887 9.96529769897461 C14.166788101196289 9.51972484588623 14.538738250732422 9.144209861755371 14.713386535644531 8.73366641998291 L14.713386535644531 8.73366641998291 C12.54852294921875 9.332646369934082 12.163142204284668 9.511042594909668 11.479548454284668 11.641189575195312 L11.479548454284668 11.641189575195312 C11.834343910217285 11.58942699432373 13.571653366088867 11.317096710205078 13.945589065551758 11.33676528930664 C16.68946075439453 11.481086730957031 17.995555877685547 13.915925979614258 16.205875396728516 16.214630126953125 C15.401888847351074 17.24728775024414 13.946308135986328 17.891849517822266 12.436700820922852 18.071178436279297 C10.927093505859375 18.250507354736328 9.363460540771484 17.964601516723633 8.343368530273438 17.136322021484375 C6.945573329925537 16.001359939575195 6.919618129730225 14.131875038146973 7.327495098114014 12.533950805664062 C7.815399169921875 10.622506141662598 8.916533470153809 9.292739868164062 10.346150398254395 8.459907531738281 C11.77576732635498 7.627074241638184 13.533867835998535 7.291173934936523 15.335704803466797 7.367459774017334 L15.335704803466797 7.367459774017334"></path>
<path fill="none" stroke="black" stroke-width=".3" stroke-opacity="1.0"  filling="0" d="M12.436264038085938 12.994600296020508 L12.436264038085938 12.994600296020508 C14.351784706115723 13.813785552978516 13.834819793701172 16.443323135375977 11.61795425415039 16.636919021606445 C9.815125465393066 16.794357299804688 10.454656600952148 14.25716781616211 11.051198959350586 13.6085844039917 C11.393075942993164 13.236882209777832 11.974575996398926 13.199261665344238 12.436264038085938 12.994600296020508 L12.436264038085938 12.994600296020508"></path></svg>