<svg xmlns="http://www.w3.org/2000/svg" viewBox="0.0 0.0 24.0 24.0" height="200px" width="200px"><path fill="none" stroke="black" stroke-width=".3" stroke-opacity="1.0"  filling="0" d="M13.661245346069336 7.001041412353516 L13.661245346069336 7.001041412353516 C14.265786170959473 7.001041412353516 14.870326042175293 7.001041412353516 15.47486686706543 7.001041412353516 L15.47486686706543 7.001041412353516 C14.838553428649902 8.489812850952148 13.309222221374512 10.692527770996094 13.325844764709473 12.337427139282227 C13.34266185760498 14.001618385314941 14.9082612991333 16.23686981201172 15.569170951843262 17.735855102539062 L15.569170951843262 17.735855102539062 C14.932092666625977 17.735855102539062 14.295014381408691 17.735855102539062 13.657936096191406 17.735855102539062 L13.657936096191406 17.735855102539062 C13.144710540771484 16.51850700378418 12.631497383117676 15.301153182983398 12.118293762207031 14.083795547485352 L12.118293762207031 14.083795547485352 C11.588958740234375 15.322916984558105 11.059513092041016 16.561992645263672 10.530009269714355 17.801042556762695 L10.530009269714355 17.801042556762695 C9.919512748718262 17.801042556762695 9.309017181396484 17.801042556762695 8.69852066040039 17.801042556762695 L8.69852066040039 17.801042556762695 C9.367594718933105 16.30267333984375 11.021174430847168 13.980391502380371 11.001739501953125 12.302642822265625 C10.982866287231445 10.673388481140137 9.389006614685059 8.471548080444336 8.73028564453125 7.013284683227539 L8.73028564453125 7.013284683227539 C9.365930557250977 7.013284683227539 10.001574516296387 7.013284683227539 10.637219429016113 7.013284683227539 L10.637219429016113 7.013284683227539 C10.775955200195312 7.336084842681885 12.012928009033203 10.214720726013184 12.11697006225586 10.45688247680664 L12.11697006225586 10.45688247680664 C12.60678482055664 9.361019134521484 13.171223640441895 8.097900390625 13.661245346069336 7.001041412353516 L13.661245346069336 7.001041412353516"></path></svg>