<svg xmlns="http://www.w3.org/2000/svg" viewBox="0.0 0.0 24.0 24.0" height="200px" width="200px"><path fill="none" stroke="black" stroke-width=".3" stroke-opacity="1.0"  filling="0" d="M17.09044647216797 6.954437255859375 L17.09044647216797 6.954437255859375 C17.212053298950195 8.387797355651855 17.237747192382812 9.704168319702148 17.11080551147461 11.135808944702148 L17.11080551147461 11.135808944702148 C16.9788818359375 11.179509162902832 16.846956253051758 11.223210334777832 16.71503257751465 11.266910552978516 L16.71503257751465 11.266910552978516 C16.218063354492188 10.496129035949707 15.887362480163574 9.603501319885254 15.268927574157715 8.926286697387695 C13.808850288391113 7.327434539794922 12.184521675109863 7.3782548904418945 10.893325805664062 8.241576194763184 C9.602130889892578 9.104897499084473 8.644068717956543 10.780719757080078 8.516524314880371 12.431870460510254 C8.388978958129883 14.08302116394043 9.091951370239258 15.709501266479492 11.122825622558594 16.474138259887695 C12.047980308532715 16.822463989257812 13.323456764221191 16.848478317260742 14.26038646697998 16.48512077331543 C15.701133728027344 15.926375389099121 15.863086700439453 14.58060073852539 17.152141571044922 13.779126167297363 L17.152141571044922 13.779126167297363 C17.010211944580078 14.386713981628418 16.994779586791992 15.038636207580566 16.726354598999023 15.601889610290527 C15.685042381286621 17.786941528320312 12.51599407196045 18.083559036254883 10.499040603637695 17.38762092590332 C8.477985382080078 16.69026756286621 7.260843276977539 14.958581924438477 6.986131191253662 13.088297843933105 C6.711419105529785 11.218012809753418 7.37913703918457 9.209128379821777 9.127802848815918 7.957374572753906 C10.14987564086914 7.225740432739258 11.498518943786621 6.8469672203063965 12.751357078552246 6.9265875816345215 C14.172554969787598 7.016907691955566 14.671113014221191 7.400895595550537 15.807191848754883 7.997389316558838 L15.807191848754883 7.997389316558838 C16.234943389892578 7.649738788604736 16.662694931030273 7.302087783813477 17.09044647216797 6.954437255859375 L17.09044647216797 6.954437255859375"></path></svg>