<svg xmlns="http://www.w3.org/2000/svg" viewBox="0.0 0.0 24.0 24.0" height="200px" width="200px"><path fill="none" stroke="black" stroke-width=".3" stroke-opacity="1.0"  filling="0" d="M11.149210929870605 7.0585503578186035 L11.149210929870605 7.0585503578186035 C12.94498348236084 7.0585503578186035 14.740754127502441 7.0585503578186035 16.536527633666992 7.0585503578186035 L16.536527633666992 7.0585503578186035 C16.573991775512695 7.175756454467773 16.611454010009766 7.292963027954102 16.64891815185547 7.4101691246032715 L16.64891815185547 7.4101691246032715 C16.042869567871094 7.657961368560791 15.436821937561035 7.905753135681152 14.83077335357666 8.153545379638672 L14.83077335357666 8.153545379638672 C14.664642333984375 10.38779067993164 14.895127296447754 12.660194396972656 14.675997734069824 14.88343620300293 C14.582120895385742 15.835884094238281 14.473258018493652 16.579490661621094 13.642773628234863 17.1713809967041 C12.185484886169434 18.209999084472656 8.838349342346191 18.25231170654297 7.9831953048706055 16.33101463317871 C6.986717224121094 14.092201232910156 11.092863082885742 13.554423332214355 9.708697319030762 15.998340606689453 C9.601630210876465 16.187381744384766 9.342842102050781 16.23275375366211 9.159914016723633 16.349960327148438 L9.159914016723633 16.349960327148438 C9.884888648986816 16.52887535095215 10.589015007019043 16.923416137695312 11.334837913513184 16.886707305908203 C12.90772533416748 16.809289932250977 12.974306106567383 15.444540023803711 13.14203929901123 14.278458595275879 C13.423720359802246 12.320207595825195 13.156253814697266 10.122958183288574 13.15038776397705 8.14455509185791 L13.15038776397705 8.14455509185791 C13.040214538574219 8.108903884887695 11.251070022583008 7.530001640319824 11.047417640686035 7.46411657333374 L11.047417640686035 7.46411657333374 C11.081348419189453 7.328927993774414 11.115280151367188 7.19373893737793 11.149210929870605 7.0585503578186035 L11.149210929870605 7.0585503578186035"></path></svg>