<svg xmlns="http://www.w3.org/2000/svg" viewBox="0.0 0.0 24.0 24.0" height="200px" width="200px"><path fill="none" stroke="black" stroke-width=".3" stroke-opacity="1.0"  filling="0" d="M15.559659004211426 8.004498481750488 C15.794520378112793 8.07972240447998 16.029382705688477 8.154372215270996 16.264240264892578 8.229597091674805 C17.03658103942871 14.354349136352539 17.808923721313477 20.478525161743164 18.58126449584961 26.6072998046875 C17.249622344970703 27.586936950683594 16.877519607543945 26.81574249267578 16.745447158813477 25.690250396728516 C16.422727584838867 22.94140625 16.13561248779297 20.187965393066406 15.815191268920898 17.438547134399414 C15.733650207519531 16.74028205871582 15.580904960632324 16.0500545501709 15.349489212036133 14.708650588989258 C13.62794303894043 19.152053833007812 14.259598731994629 23.534013748168945 12.29515266418457 27.152244567871094 C11.977030754089355 27.080463409423828 11.660055160522461 27.009258270263672 11.343079566955566 26.938629150390625 C10.65687370300293 22.818519592285156 9.9700927734375 18.69783592224121 9.283885955810547 14.577726364135742 C9.163297653198242 14.559350967407227 9.042708396911621 14.540400505065918 8.922120094299316 14.522025108337402 C8.548295021057129 17.289819717407227 8.17849063873291 20.058765411376953 7.800072193145752 22.825984954833984 C7.645029544830322 23.96066665649414 7.561766147613525 25.118316650390625 7.257997512817383 26.212800979614258 C7.144874095916748 26.619930267333984 6.495418071746826 26.87833595275879 6.091159343719482 27.2050724029541 C5.911999225616455 27.07529640197754 5.733413219451904 26.9449462890625 5.554253101348877 26.815170288085938 C6.4534993171691895 20.59164810180664 7.352745532989502 14.368705749511719 8.25256633758545 8.145185470581055 C8.57183837890625 8.104414939880371 8.89053726196289 8.064218521118164 9.209810256958008 8.023448944091797 C9.487737655639648 8.687833786010742 9.903481483459473 9.32925033569336 10.020624160766602 10.020625114440918 C10.714869499206543 14.122934341430664 11.339059829711914 18.236726760864258 12.273908615112305 22.366024017333984 C13.027299880981445 18.156335830688477 13.752553939819336 13.940900802612305 14.565091133117676 9.742696762084961 C14.685105323791504 9.122526168823242 15.217991828918457 8.582175254821777 15.559659004211426 8.004498481750488"></path></svg>