<svg xmlns="http://www.w3.org/2000/svg" viewBox="0.0 0.0 24.0 24.0" height="200px" width="200px"><path fill="none" stroke="black" stroke-width=".3" stroke-opacity="1.0"  filling="0" d="M12.575186729431152 4.856906890869141 C16.785558700561523 4.834878444671631 19.522472381591797 7.608015537261963 19.545480728149414 11.919716835021973 C19.568485260009766 16.384151458740234 16.820316314697266 19.215051651000977 12.514486312866211 19.162181854248047 C8.279150009155273 19.109806060791016 5.674896717071533 16.371423721313477 5.689581871032715 11.983845710754395 C5.7037787437438965 7.61242151260376 8.345234870910645 4.87893533706665 12.575186729431152 4.856906890869141"></path>
<path fill="none" stroke="black" stroke-width=".3" stroke-opacity="1.0"  filling="0" d="M18.606576919555664 5.2201313972473145 C21.444820404052734 7.188496112823486 22.76261329650879 10.655285835266113 21.95196533203125 14.02319049835205 C21.121248245239258 17.476272583007812 17.940338134765625 20.048707962036133 13.92675495147705 20.50347137451172 C13.522900581359863 20.548999786376953 13.11414909362793 20.548507690429688 12.562949180603027 20.576412200927734 C9.838274002075195 20.50640869140625 7.241364002227783 19.745203018188477 5.215236663818359 17.59033203125 C1.9427871704101562 14.109346389770508 2.3265724182128906 8.658039093017578 6.033716201782227 5.674897193908691 C9.478476524353027 2.9032278060913086 14.978246688842773 2.7039928436279297 18.606576919555664 5.2201313972473145"></path></svg>