<svg xmlns="http://www.w3.org/2000/svg" viewBox="0.0 0.0 24.0 24.0" height="200px" width="200px"><path fill="none" stroke="black" stroke-width=".3" stroke-opacity="1.0"  filling="0" d="M14.243539810180664 7.962411880493164 L14.243539810180664 7.962411880493164 C15.591296195983887 8.910728454589844 16.507843017578125 10.166653633117676 16.73151206970215 11.488186836242676 C16.955183029174805 12.809720039367676 16.485977172851562 14.19686222076416 15.06222915649414 15.407612800598145 L15.06222915649414 15.407612800598145 C15.39880084991455 15.620063781738281 15.674093246459961 16.056398391723633 16.071943283081055 16.044965744018555 C17.025592803955078 16.017560958862305 16.792404174804688 14.789593696594238 17.69358253479004 14.776119232177734 L17.69358253479004 14.776119232177734 C17.191667556762695 16.818572998046875 15.973747253417969 17.5640811920166 14.092569351196289 16.336490631103516 L14.092569351196289 16.336490631103516 C12.288479804992676 16.241609573364258 10.067070960998535 16.432716369628906 8.52404499053955 15.258161544799805 C7.1955742835998535 14.246927261352539 6.74979305267334 12.778568267822266 6.978716850280762 11.387920379638672 C7.207640647888184 9.997272491455078 8.1112699508667 8.684335708618164 9.481620788574219 7.983942985534668 C11.1242094039917 7.144408702850342 12.590229034423828 7.472772121429443 14.243539810180664 7.962411880493164 L14.243539810180664 7.962411880493164"></path>
<path fill="none" stroke="black" stroke-width=".3" stroke-opacity="1.0"  filling="0" d="M11.10506534576416 8.223065376281738 L11.10506534576416 8.223065376281738 C11.65576171875 8.230551719665527 12.218152046203613 8.132391929626465 12.757153511047363 8.245525360107422 C14.446405410766602 8.600090026855469 15.182073593139648 9.658369064331055 15.317889213562012 10.898853302001953 C15.453704833984375 12.139337539672852 14.989667892456055 13.562026977539062 14.279510498046875 14.64541244506836 L14.279510498046875 14.64541244506836 C12.832845687866211 13.298585891723633 10.23294448852539 11.919403076171875 9.839797019958496 14.848564147949219 L9.839797019958496 14.848564147949219 C8.58035659790039 13.730384826660156 8.13438606262207 12.371054649353027 8.384418487548828 11.142745971679688 C8.634451866149902 9.914438247680664 9.580488204956055 8.817152976989746 11.10506534576416 8.223065376281738 L11.10506534576416 8.223065376281738"></path>
<path fill="none" stroke="black" stroke-width=".3" stroke-opacity="1.0"  filling="0" d="M11.591161727905273 13.868013381958008 L11.591161727905273 13.868013381958008 C12.285530090332031 14.239848136901855 12.869224548339844 14.831331253051758 13.324289321899414 15.474233627319336 L13.324289321899414 15.474233627319336 C12.896734237670898 15.485379219055176 10.136899948120117 15.899881362915039 10.53841781616211 14.493427276611328 C10.650465965270996 14.100939750671387 11.240246772766113 14.076484680175781 11.591161727905273 13.868013381958008 L11.591161727905273 13.868013381958008"></path></svg>