<svg xmlns="http://www.w3.org/2000/svg" viewBox="0.0 0.0 24.0 24.0" height="200px" width="200px"><path fill="none" stroke="black" stroke-width=".3" stroke-opacity="1.0"  filling="0" d="M8.396038055419922 8.587358474731445 C12.908622741699219 7.798819065093994 15.15037727355957 8.582706451416016 15.945314407348633 11.10359001159668 C16.95773696899414 14.31357192993164 15.90984058380127 16.654184341430664 12.602744102478027 18.46270751953125 C13.96815013885498 21.323200225830078 15.335299491882324 24.187175750732422 16.705358505249023 27.056392669677734 C15.220159530639648 27.837953567504883 14.669462203979492 27.039527893066406 14.172263145446777 25.95964813232422 C13.131925582885742 23.699283599853516 12.034019470214844 21.464508056640625 10.415071487426758 19.281484603881836 C10.415071487426758 21.882617950439453 10.415071487426758 24.484333038330078 10.415071487426758 27.085464477539062 C10.20746898651123 27.221542358398438 9.99986743927002 27.357614517211914 9.792264938354492 27.493690490722656 C9.337516784667969 27.149433135986328 8.570494651794434 26.865650177001953 8.490243911743164 26.449283599853516 C8.291364669799805 25.422901153564453 8.399527549743652 24.335464477539062 8.398365020751953 23.273029327392578 C8.394293785095215 18.362688064575195 8.396038055419922 13.452343940734863 8.396038055419922 8.587358474731445"></path>
<path fill="none" stroke="black" stroke-width=".3" stroke-opacity="1.0"  filling="0" d="M10.447054862976074 10.190606117248535 C11.8682861328125 9.747488021850586 13.277887344360352 9.735276222229004 13.719260215759277 11.132084846496582 C14.120508193969727 12.40153980255127 14.150164604187012 13.987340927124023 13.761129379272461 15.25505256652832 C13.319757461547852 16.69430923461914 11.85084056854248 16.497756958007812 10.447053909301758 16.259334564208984 C10.447053909301758 14.168191909790039 10.447053909301758 12.19451904296875 10.447054862976074 10.190606117248535"></path></svg>