<svg xmlns="http://www.w3.org/2000/svg" viewBox="0.0 0.0 24.0 24.0" height="200px" width="200px"><path fill="none" stroke="black" stroke-width=".3" stroke-opacity="1.0"  filling="0" d="M14.382955551147461 10.398979187011719 L14.382955551147461 10.398979187011719 C15.05807876586914 11.48621940612793 15.248226165771484 12.738764762878418 15.30263900756836 14.029231071472168 C15.357051849365234 15.319698333740234 15.27573013305664 16.648086547851562 15.407916069030762 17.88701057434082 L15.407916069030762 17.88701057434082 C16.18166732788086 17.355321884155273 16.855838775634766 16.603200912475586 17.236833572387695 15.74516487121582 L17.236833572387695 15.74516487121582 C17.56758689880371 16.960548400878906 17.835493087768555 19.63964080810547 15.402697563171387 19.012943267822266 C14.70256233215332 18.83258628845215 14.208601951599121 18.19746208190918 13.611554145812988 17.789722442626953 L13.611554145812988 17.789722442626953 C11.994680404663086 18.64800453186035 9.907548904418945 19.809429168701172 8.09071159362793 18.596363067626953 C7.222341060638428 18.016569137573242 6.587982177734375 17.193084716796875 6.98202657699585 16.08015251159668 C7.913895606994629 13.448197364807129 11.598772048950195 14.487825393676758 13.284503936767578 12.89272403717041 C14.186795234680176 12.03894329071045 13.21013069152832 10.880581855773926 12.450861930847168 10.588000297546387 C11.10466480255127 10.069247245788574 10.50094223022461 10.442230224609375 9.389148712158203 10.839069366455078 L9.389148712158203 10.839069366455078 C9.479540824890137 10.948229789733887 9.569933891296387 11.057389259338379 9.66032600402832 11.166549682617188 L9.66032600402832 11.166549682617188 C9.50098991394043 11.714139938354492 9.651947021484375 12.485761642456055 9.182316780090332 12.809319496154785 C8.236556053161621 13.46091365814209 7.302143096923828 12.304878234863281 7.406830310821533 11.558378219604492 C7.616211891174316 10.065326690673828 8.968369483947754 9.575845718383789 10.464118957519531 9.559443473815918 C11.959867477416992 9.543041229248047 13.599207878112793 9.999717712402344 14.382955551147461 10.398979187011719 L14.382955551147461 10.398979187011719"></path>
<path fill="none" stroke="black" stroke-width=".3" stroke-opacity="1.0"  filling="0" d="M13.398978233337402 14.079413414001465 L13.398978233337402 14.079413414001465 C13.290851593017578 15.383293151855469 13.57408332824707 16.678634643554688 12.251054763793945 17.49850082397461 C11.890378952026367 17.722007751464844 8.444337844848633 18.578350067138672 8.797382354736328 16.80497932434082 C8.921164512634277 16.183212280273438 9.417984962463379 15.689395904541016 9.831151962280273 15.208553314208984 C10.360113143920898 14.592949867248535 12.672286987304688 14.296515464782715 13.398978233337402 14.079413414001465 L13.398978233337402 14.079413414001465"></path></svg>