<svg xmlns="http://www.w3.org/2000/svg" viewBox="0.0 0.0 24.0 24.0" height="200px" width="200px"><path fill="none" stroke="black" stroke-width=".3" stroke-opacity="1.0"  filling="0" d="M11.875625610351562 5.0321173667907715 C15.056663513183594 4.769227504730225 17.294124603271484 6.30286169052124 17.445175170898438 9.397769927978516 C17.668214797973633 13.978105545043945 17.50302505493164 18.57772445678711 17.50302505493164 23.606708526611328 C16.225208282470703 23.42544937133789 15.106157302856445 23.267330169677734 13.655439376831055 23.0616455078125 C11.07667064666748 24.701335906982422 9.102099418640137 24.615848541259766 7.56589412689209 22.541650772094727 C5.87156867980957 20.254695892333984 6.453269958496094 16.97467041015625 8.966476440429688 15.189072608947754 C10.093884468078613 14.388188362121582 11.383268356323242 13.819984436035156 12.55824089050293 13.081449508666992 C13.936969757080078 12.214361190795898 14.888259887695312 11.074098587036133 14.037882804870605 9.355348587036133 C13.434328079223633 8.136024475097656 11.706578254699707 7.911057472229004 10.034106254577637 8.792929649353027 C9.19722843170166 9.233865737915039 8.440694808959961 9.826494216918945 7.374992370605469 10.530962944030762 C7.244511604309082 6.912201881408691 8.647665023803711 5.298222064971924 11.875625610351562 5.0321173667907715"></path>
<path fill="none" stroke="black" stroke-width=".3" stroke-opacity="1.0"  filling="0" d="M13.977462768554688 15.622296333312988 C14.187646865844727 15.74377727508545 14.397188186645508 15.864618301391602 14.606729507446289 15.985456466674805 C14.374691009521484 17.390539169311523 14.354764938354492 18.87725257873535 13.852124214172363 20.177562713623047 C13.31541633605957 21.56786346435547 11.666084289550781 21.926523208618164 10.650517463684082 21.178346633911133 C9.5816011428833 20.390960693359375 9.467188835144043 18.928030014038086 10.641518592834473 17.848186492919922 C11.614020347595215 16.9541015625 12.855196952819824 16.353116989135742 13.977462768554688 15.622296333312988"></path></svg>