<svg xmlns="http://www.w3.org/2000/svg" viewBox="0.0 0.0 24.0 24.0" height="200px" width="200px"><path fill="none" stroke="black" stroke-width=".3" stroke-opacity="1.0"  filling="0" d="M11.29994010925293 2.5460691452026367 C11.753185272216797 2.5228700637817383 12.233926773071289 3.0311059951782227 13.057930946350098 3.522158622741699 C12.336175918579102 4.112022399902344 11.888944625854492 4.731100559234619 11.583916664123535 4.667945861816406 C11.107900619506836 4.56913423538208 10.55455493927002 4.072926998138428 10.38012981414795 3.6136674880981445 C10.292058944702148 3.382533073425293 10.951090812683105 2.564542770385742 11.29994010925293 2.5460691452026367"></path>
<path fill="none" stroke="black" stroke-width=".3" stroke-opacity="1.0"  filling="0" d="M12.361522674560547 7.082391738891602 C12.52735424041748 7.413626194000244 12.697912216186523 7.596213340759277 12.698771476745605 7.780088901519775 C12.720682144165039 11.287050247192383 12.711660385131836 14.794440269470215 12.731851577758789 18.301403045654297 C12.752043724060059 21.832422256469727 8.98387622833252 22.38190460205078 7.166167736053467 21.145465850830078 C6.636450290679932 20.785015106201172 6.192226886749268 19.87895393371582 6.211559295654297 19.2383975982666 C6.2356181144714355 18.44231605529785 7.080673694610596 18.11151123046875 7.859139442443848 18.3559627532959 C9.111042976379395 18.748632431030273 8.501846313476562 19.664148330688477 8.299925804138184 20.558177947998047 C10.440276145935059 20.51177978515625 10.784829139709473 20.346805572509766 10.814902305603027 18.87837791442871 C10.885788917541504 15.452183723449707 10.837671279907227 12.023842811584473 10.837671279907227 8.565858840942383 C9.991327285766602 8.281881332397461 9.297066688537598 8.049029350280762 8.602806091308594 7.8161773681640625 C8.610539436340332 7.640034198760986 8.617842674255371 7.463461399078369 8.62557601928711 7.287319183349609 C9.878767013549805 7.218580722808838 11.131959915161133 7.149841785430908 12.361522674560547 7.082391738891602"></path></svg>