<svg xmlns="http://www.w3.org/2000/svg" viewBox="0.0 0.0 24.0 24.0" height="200px" width="200px"><path fill="none" stroke="black" stroke-width=".3" stroke-opacity="1.0"  filling="0" d="M12.820667266845703 10.121562004089355 L12.820667266845703 10.121562004089355 C13.399320602416992 10.147852897644043 14.009385108947754 10.010549545288086 14.556628227233887 10.200433731079102 C16.914756774902344 11.018665313720703 16.224468231201172 14.83728313446045 16.225711822509766 16.66802215576172 L16.225711822509766 16.66802215576172 C16.757526397705078 16.9171142578125 17.28934097290039 17.16620445251465 17.821155548095703 17.41529655456543 L17.821155548095703 17.41529655456543 C17.796527862548828 17.514781951904297 17.771900177001953 17.61426544189453 17.747272491455078 17.7137508392334 L17.747272491455078 17.7137508392334 C16.217357635498047 17.7137508392334 14.687439918518066 17.7137508392334 13.157525062561035 17.7137508392334 L13.157525062561035 17.7137508392334 C13.123024940490723 17.594629287719727 13.088525772094727 17.475509643554688 13.054025650024414 17.356388092041016 L13.054025650024414 17.356388092041016 C13.61665153503418 17.161758422851562 14.179276466369629 16.967126846313477 14.741902351379395 16.772497177124023 L14.741902351379395 16.772497177124023 C14.752063751220703 15.478386878967285 15.372214317321777 12.268290519714355 14.226727485656738 11.30756664276123 C13.914928436279297 11.046059608459473 13.46243953704834 10.951199531555176 13.05565357208252 10.962570190429688 C9.824121475219727 11.052897453308105 10.324349403381348 14.358570098876953 10.250446319580078 16.66118812561035 L10.250446319580078 16.66118812561035 C10.881874084472656 16.918909072875977 11.513283729553223 17.176673889160156 12.144669532775879 17.434497833251953 L12.144669532775879 17.434497833251953 C10.283254623413086 17.894258499145508 8.90943431854248 17.840633392333984 7.021481037139893 17.50675392150879 L7.021481037139893 17.50675392150879 C7.587469577789307 17.233144760131836 8.153458595275879 16.95953369140625 8.719447135925293 16.685924530029297 L8.719447135925293 16.685924530029297 C8.719447135925293 14.972336769104004 8.719447135925293 13.258747100830078 8.719447135925293 11.545159339904785 L8.719447135925293 11.545159339904785 C8.158990859985352 11.280119895935059 7.598535537719727 11.015080451965332 7.038079738616943 10.750041007995605 L7.038079738616943 10.750041007995605 C8.159560203552246 10.54761791229248 9.436371803283691 10.496988296508789 10.445728302001953 11.026037216186523 L10.445728302001953 11.026037216186523 C11.222444534301758 10.687935829162598 12.01551342010498 10.384864807128906 12.820667266845703 10.121562004089355 L12.820667266845703 10.121562004089355"></path></svg>