<svg xmlns="http://www.w3.org/2000/svg" viewBox="0.0 0.0 24.0 24.0" height="200px" width="200px"><path fill="none" stroke="black" stroke-width=".3" stroke-opacity="1.0"  filling="0" d="M12.776201248168945 13.055088996887207 L12.776201248168945 13.055088996887207 C14.3081693649292 13.412792205810547 15.078659057617188 14.552311897277832 15.414315223693848 15.936666488647461 C15.749970436096191 17.321020126342773 15.65079116821289 18.950210571289062 15.443422317504883 20.28725242614746 C15.2174711227417 21.744102478027344 14.832690238952637 23.933231353759766 12.8357515335083 23.78008270263672 C10.962610244750977 23.636428833007812 10.356658935546875 21.874217987060547 10.0066499710083 20.380762100219727 C9.654895782470703 18.879863739013672 9.610095977783203 17.37361717224121 10.021828651428223 16.08000946044922 C10.433561325073242 14.786401748657227 11.301826477050781 13.705432891845703 12.776201248168945 13.055088996887207 L12.776201248168945 13.055088996887207"></path>
<path fill="none" stroke="black" stroke-width=".3" stroke-opacity="1.0"  filling="0" d="M12.73210620880127 14.371108055114746 L12.73210620880127 14.371108055114746 C14.462273597717285 15.755523681640625 14.503096580505371 17.798547744750977 14.194013595581055 19.943822860717773 C14.120085716247559 20.456937789916992 13.915616989135742 22.485126495361328 12.81165885925293 22.46951675415039 C11.404747009277344 22.449623107910156 11.365947723388672 20.723493576049805 11.248231887817383 19.91543960571289 C10.937244415283203 17.780668258666992 10.986719131469727 15.743927001953125 12.73210620880127 14.371108055114746 L12.73210620880127 14.371108055114746"></path></svg>