<svg xmlns="http://www.w3.org/2000/svg" viewBox="0.0 0.0 24.0 24.0" height="200px" width="200px"><path fill="none" stroke="black" stroke-width=".3" stroke-opacity="1.0"  filling="0" d="M16.087650299072266 14.586756706237793 C16.499061584472656 14.914763450622559 16.548782348632812 15.69508171081543 16.7548885345459 16.240421295166016 C16.367536544799805 16.453746795654297 16.168649673461914 16.65584373474121 15.966550827026367 16.6590518951416 C14.644100189208984 16.6831111907959 12.719368934631348 16.114511489868164 12.117890357971191 16.770524978637695 C10.690381050109863 18.329557418823242 11.890130996704102 19.91986656188965 13.175691604614258 21.243120193481445 C14.286421775817871 22.386730194091797 15.475744247436523 23.506282806396484 16.336261749267578 24.82793426513672 C17.63385009765625 26.819229125976562 17.177528381347656 29.897192001342773 15.549527168273926 31.46504783630371 C13.915109634399414 33.03932189941406 12.030475616455078 33.346473693847656 10.093714714050293 32.14030838012695 C9.548373222351074 31.801074981689453 9.310188293457031 30.9686279296875 8.930855751037598 30.361536026000977 C9.117714881896973 30.1859073638916 9.30377197265625 30.01027488708496 9.489829063415527 29.834644317626953 C9.837082862854004 29.95654296875 10.19957447052002 30.21477699279785 10.527580261230469 30.17628288269043 C11.735349655151367 30.035139083862305 13.342500686645508 30.20595359802246 14.04181957244873 29.504230499267578 C15.29850959777832 28.24273109436035 14.826950073242188 26.524904251098633 13.68895149230957 25.182403564453125 C12.484391212463379 23.761310577392578 11.072920799255371 22.49981117248535 9.989458084106445 20.99691390991211 C8.6309175491333 19.111480712890625 9.012656211853027 16.189096450805664 10.564470291137695 14.774418830871582 C12.0457124710083 13.423898696899414 14.444409370422363 13.276335716247559 16.087650299072266 14.586756706237793"></path></svg>