<svg xmlns="http://www.w3.org/2000/svg" viewBox="0.0 0.0 24.0 24.0" height="200px" width="200px"><path fill="none" stroke="black" stroke-width=".3" stroke-opacity="1.0"  filling="0" d="M12.364851951599121 8.083494186401367 L12.364851951599121 8.083494186401367 C14.409662246704102 8.177617073059082 14.556622505187988 8.512648582458496 14.701706886291504 10.535737037658691 L14.701706886291504 10.535737037658691 C11.619752883911133 9.27345085144043 11.392922401428223 11.680148124694824 11.492228507995605 14.205565452575684 C11.520261764526367 14.918456077575684 11.489834785461426 16.644868850708008 12.541168212890625 16.942541122436523 C13.230246543884277 17.137645721435547 13.93982982635498 16.633792877197266 14.63916015625 16.479419708251953 L14.63916015625 16.479419708251953 C14.57210636138916 17.070987701416016 14.799849510192871 17.781352996826172 14.437997817993164 18.25412368774414 C13.743523597717285 19.16147804260254 11.807409286499023 18.820913314819336 11.107547760009766 18.298202514648438 C10.04417610168457 17.50399398803711 9.478702545166016 15.55274772644043 9.425986289978027 13.583518981933594 C9.373270034790039 11.614289283752441 9.833311080932617 9.627079010009766 10.820967674255371 8.760943412780762 C11.243498802185059 8.390399932861328 11.850223541259766 8.309310913085938 12.364851951599121 8.083494186401367 L12.364851951599121 8.083494186401367"></path></svg>