<svg xmlns="http://www.w3.org/2000/svg" viewBox="0.0 0.0 24.0 24.0" height="200px" width="200px"><path fill="none" stroke="black" stroke-width=".3" stroke-opacity="1.0"  filling="0" d="M9.402155876159668 14.315855026245117 L9.402155876159668 14.315855026245117 C11.384653091430664 14.315855026245117 13.367149353027344 14.315855026245117 15.349647521972656 14.315855026245117 L15.349647521972656 14.315855026245117 C14.651845932006836 15.84650707244873 13.95406436920166 17.377166748046875 13.256296157836914 18.907835006713867 C12.558526992797852 20.438501358032227 11.860773086547852 21.969173431396484 11.163025856018066 23.49985122680664 L11.163025856018066 23.49985122680664 C12.373244285583496 23.685306549072266 13.583456993103027 23.870798110961914 14.793663024902344 24.05633544921875 L14.793663024902344 24.05633544921875 C14.778011322021484 24.31276512145996 14.762358665466309 24.569194793701172 14.74670696258545 24.825624465942383 L14.74670696258545 24.825624465942383 C12.801593780517578 25.13109016418457 11.005962371826172 25.07477569580078 9.038991928100586 25.030433654785156 L9.038991928100586 25.030433654785156 C9.715669631958008 23.502918243408203 10.392385482788086 21.975419998168945 11.069104194641113 20.44792366027832 C11.74582290649414 18.920427322387695 12.4225435256958 17.392932891845703 13.099231719970703 15.865421295166016 L13.099231719970703 15.865421295166016 C11.463150978088379 15.29896354675293 10.719050407409668 15.538625717163086 9.402155876159668 14.315855026245117 L9.402155876159668 14.315855026245117"></path></svg>