<svg xmlns="http://www.w3.org/2000/svg" viewBox="0.0 0.0 24.0 24.0" height="200px" width="200px"><path fill="none" stroke="black" stroke-width=".3" stroke-opacity="1.0"  filling="0" d="M11.148599624633789 7.108906269073486 C12.98200511932373 6.2638163566589355 15.265393257141113 7.163782119750977 15.797691345214844 9.135475158691406 C16.38925552368164 11.32612419128418 16.36785316467285 13.501955032348633 14.381341934204102 15.216279983520508 C16.585710525512695 17.38003921508789 16.754179000854492 20.03384017944336 16.161518096923828 22.79410171508789 C15.680256843566895 25.036333084106445 14.328661918640137 26.08391571044922 12.372333526611328 25.985139846801758 C10.495575904846191 25.89020538330078 9.343180656433105 24.828353881835938 8.933805465698242 22.704654693603516 C8.818567276000977 22.10595703125 8.91624641418457 21.46555519104004 8.91624641418457 20.123836517333984 C9.678472518920898 20.811983108520508 10.291986465454102 21.099533081054688 10.41929817199707 21.53085708618164 C10.811661720275879 22.86104965209961 11.0048246383667 24.51995086669922 12.82505989074707 24.226913452148438 C14.615663528442383 23.93881607055664 14.691391944885254 22.223941802978516 14.746816635131836 20.741191864013672 C14.859861373901367 17.758684158325195 14.156900405883789 16.83402442932129 10.393506050109863 15.497245788574219 C11.2479248046875 14.998422622680664 11.623276710510254 14.677947044372559 12.05624771118164 14.544050216674805 C14.112449645996094 13.908037185668945 15.201738357543945 11.534103393554688 14.168972969055176 9.631006240844727 C13.905019760131836 9.144804000854492 13.215228080749512 8.586715698242188 12.734514236450195 8.59878921508789 C12.134720802307129 8.614154815673828 11.435051918029785 9.077306747436523 10.990556716918945 9.54759407043457 C10.558134078979492 10.004711151123047 10.39295768737793 10.715354919433594 10.013765335083008 11.520934104919434 C9.006242752075195 9.492717742919922 9.528112411499023 7.856316089630127 11.148599624633789 7.108906269073486"></path></svg>