<svg xmlns="http://www.w3.org/2000/svg" viewBox="0.0 0.0 24.0 24.0" height="200px" width="200px"><path fill="none" stroke="black" stroke-width=".3" stroke-opacity="1.0"  filling="0" d="M10.067483901977539 3.7809677124023438 C12.552746772766113 3.321643829345703 15.035613059997559 3.558791160583496 17.332834243774414 4.7517170906066895 C20.58823013305664 6.442294120788574 20.716983795166016 9.402451515197754 17.637054443359375 11.434976577758789 C17.224441528320312 11.707456588745117 16.781885147094727 11.933226585388184 16.207578659057617 12.264395713806152 C17.1262264251709 12.830316543579102 17.97960090637207 13.274670600891113 18.74254608154297 13.84118938446045 C21.309852600097656 15.747357368469238 21.40267562866211 18.590734481811523 19.004247665405273 20.665184020996094 C15.880602836608887 23.36663246154785 8.433198928833008 23.48041534423828 5.217928409576416 20.875980377197266 C2.9398698806762695 19.030895233154297 2.9153175354003906 16.352203369140625 5.206549644470215 14.53466796875 C5.891045093536377 13.992700576782227 6.692318439483643 13.599251747131348 7.7391228675842285 12.953083038330078 C5.496397972106934 11.766744613647461 3.8968467712402344 10.283970832824707 4.5927205085754395 7.744811534881592 C5.335903167724609 5.033779621124268 7.675044536590576 4.2235236167907715 10.067483901977539 3.7809677124023438"></path>
<path fill="none" stroke="black" stroke-width=".3" stroke-opacity="1.0"  filling="0" d="M15.977618217468262 6.037466526031494 C17.511295318603516 6.729147434234619 17.86941146850586 8.544886589050293 16.658519744873047 9.747993469238281 C15.744662284851074 10.655862808227539 14.41878890991211 11.149321556091309 13.34084415435791 11.788902282714844 C11.412519454956055 11.140936851501465 9.720146179199219 10.804977416992188 8.267315864562988 10.022868156433105 C6.567755222320557 9.107812881469727 6.586319923400879 7.167511940002441 8.261326789855957 6.203349590301514 C10.749584197998047 4.77147912979126 13.426481246948242 4.887058734893799 15.977618217468262 6.037466526031494"></path>
<path fill="none" stroke="black" stroke-width=".3" stroke-opacity="1.0"  filling="0" d="M7.840328693389893 14.925124168395996 C9.805782318115234 13.431571960449219 15.60692310333252 14.361598014831543 17.222043991088867 16.212669372558594 C18.294601440429688 17.441526412963867 18.108356475830078 19.231515884399414 16.554317474365234 19.980087280273438 C15.171553611755371 20.646018981933594 13.571405410766602 20.86160659790039 12.231758117675781 21.23050308227539 C10.70826244354248 20.901729583740234 9.327295303344727 20.875980377197266 8.25413990020752 20.287302017211914 C7.326508045196533 19.779470443725586 6.230597496032715 18.671581268310547 6.162327289581299 17.75772476196289 C6.093458652496338 16.840871810913086 6.99833345413208 15.564704895019531 7.840328693389893 14.925124168395996"></path></svg>