<svg xmlns="http://www.w3.org/2000/svg" viewBox="0.0 0.0 24.0 24.0" height="200px" width="200px"><path fill="none" stroke="black" stroke-width=".3" stroke-opacity="1.0"  filling="0" d="M15.047030448913574 3.0948009490966797 C16.76059913635254 3.181328773498535 18.436054229736328 4.026010036468506 20.369033813476562 4.594624042510986 C20.70330047607422 4.353065490722656 21.367713928222656 3.8735551834106445 22.032642364501953 3.393528938293457 C22.187156677246094 3.523322105407715 22.3416690826416 3.6531143188476562 22.496700286865234 3.7823915481567383 C21.855979919433594 5.90851354598999 22.015644073486328 8.273619651794434 20.405601501464844 10.716497421264648 C20.04918670654297 9.800740242004395 19.857074737548828 9.452052116394043 19.77672576904297 9.079671859741211 C18.986125946044922 5.4130377769470215 16.400577545166016 3.788057327270508 12.775663375854492 4.698664665222168 C8.629518508911133 5.74009370803833 5.317752838134766 11.16356086730957 6.254626750946045 15.37666130065918 C6.805728912353516 17.854045867919922 8.310702323913574 19.263221740722656 10.88079833984375 19.436279296875 C13.922677993774414 19.641267776489258 16.425302505493164 18.622501373291016 18.036373138427734 15.861322402954102 C18.47262191772461 15.113471984863281 18.675548553466797 13.928342819213867 20.036827087402344 14.508804321289062 C19.15042495727539 18.78216552734375 15.579591751098633 21.232769012451172 10.540350914001465 21.030872344970703 C5.247706413269043 20.819183349609375 2.278963088989258 16.819828033447266 3.6155166625976562 11.702816009521484 C4.9221954345703125 6.700144290924072 9.87336254119873 2.8336706161499023 15.047030448913574 3.0948009490966797"></path></svg>