<svg xmlns="http://www.w3.org/2000/svg" viewBox="0.0 0.0 24.0 24.0" height="200px" width="200px"><path fill="none" stroke="black" stroke-width=".3" stroke-opacity="1.0"  filling="0" d="M11.75056266784668 9.618192672729492 L11.75056266784668 9.618192672729492 C11.637706756591797 11.04434871673584 11.524961471557617 12.470518112182617 11.412222862243652 13.896682739257812 L11.412222862243652 13.896682739257812 C12.12343978881836 13.896682739257812 12.83465576171875 13.896682739257812 13.545872688293457 13.896682739257812 L13.545872688293457 13.896682739257812 C13.988582611083984 12.361653327941895 13.963034629821777 11.17116641998291 14.750846862792969 9.763697624206543 L14.750846862792969 9.763697624206543 C14.919696807861328 9.804631233215332 15.088546752929688 9.845563888549805 15.257396697998047 9.886497497558594 L15.257396697998047 9.886497497558594 C15.057914733886719 11.320067405700684 14.858986854553223 12.75372314453125 14.658201217651367 14.187116622924805 C14.457416534423828 15.62051010131836 14.254773139953613 17.05364227294922 14.047859191894531 18.486164093017578 C13.965093612670898 19.05916976928711 14.076227188110352 19.69742202758789 13.797548294067383 20.204891204833984 C13.66304874420166 20.449811935424805 13.257100105285645 20.347091674804688 12.986876487731934 20.41819190979004 L12.986876487731934 20.41819190979004 C13.18165397644043 18.60540008544922 13.376389503479004 16.792613983154297 13.571135520935059 14.979818344116211 L13.571135520935059 14.979818344116211 C12.834015846252441 14.979818344116211 12.09689712524414 14.979818344116211 11.359777450561523 14.979818344116211 L11.359777450561523 14.979818344116211 C11.099567413330078 16.25736427307129 10.965375900268555 20.29690170288086 9.56414794921875 20.30530548095703 L9.56414794921875 20.30530548095703 C9.86519718170166 18.01695442199707 10.164590835571289 15.728372573852539 10.472071647644043 13.440874099731445 C10.66940689086914 11.972800254821777 10.343137741088867 10.348705291748047 11.75056266784668 9.618192672729492 L11.75056266784668 9.618192672729492"></path></svg>