<svg xmlns="http://www.w3.org/2000/svg" viewBox="0.0 0.0 24.0 24.0" height="200px" width="200px"><path fill="none" stroke="black" stroke-width=".3" stroke-opacity="1.0"  filling="0" d="M13.17965030670166 9.538949966430664 L13.17965030670166 9.538949966430664 C13.32352352142334 9.60601806640625 13.467395782470703 9.67308521270752 13.611268997192383 9.740153312683105 L13.611268997192383 9.740153312683105 C13.389583587646484 11.205902099609375 13.168237686157227 12.671708106994629 12.944985389709473 14.137223243713379 C12.721732139587402 15.602737426757812 12.496572494506836 17.067960739135742 12.267260551452637 18.532541275024414 C12.175537109375 19.118366241455078 12.293741226196289 19.780363082885742 11.990153312683105 20.289714813232422 C11.853440284729004 20.519088745117188 11.457111358642578 20.322538375854492 11.190590858459473 20.338951110839844 L11.190590858459473 20.338951110839844 C11.389342308044434 18.867435455322266 11.587379455566406 17.39581298828125 11.78726577758789 15.924443244934082 C11.987152099609375 14.453073501586914 12.188886642456055 12.981956481933594 12.395034790039062 11.511452674865723 C12.49327278137207 10.810696601867676 12.529132843017578 9.817403793334961 13.17965030670166 9.538949966430664 L13.17965030670166 9.538949966430664"></path></svg>