<svg xmlns="http://www.w3.org/2000/svg" viewBox="0.0 0.0 24.0 24.0" height="200px" width="200px"><path fill="none" stroke="black" stroke-width=".3" stroke-opacity="1.0"  filling="0" d="M12.290019989013672 9.751699447631836 L12.290019989013672 9.751699447631836 C12.431037902832031 9.806293487548828 12.572054862976074 9.860888481140137 12.713072776794434 9.915482521057129 L12.713072776794434 9.915482521057129 C12.528608322143555 11.507676124572754 12.344179153442383 13.099873542785645 12.159747123718262 14.692070960998535 C11.97531509399414 16.28426742553711 11.79088020324707 17.87646484375 11.606401443481445 19.468656539916992 L11.606401443481445 19.468656539916992 C12.067399024963379 19.51698112487793 13.29969310760498 19.646089553833008 13.778312683105469 19.696205139160156 L13.778312683105469 19.696205139160156 C12.940773010253906 20.4274959564209 11.609291076660156 20.412364959716797 10.501348495483398 20.3189697265625 L10.501348495483398 20.3189697265625 C10.660494804382324 19.00404930114746 10.818330764770508 17.68895149230957 10.978104591369629 16.374094009399414 C11.13787841796875 15.059235572814941 11.299592018127441 13.74461555480957 11.466493606567383 12.43065071105957 C11.584214210510254 11.503872871398926 11.704059600830078 10.479315757751465 12.290019989013672 9.751699447631836 L12.290019989013672 9.751699447631836"></path></svg>