<svg xmlns="http://www.w3.org/2000/svg" viewBox="0.0 0.0 24.0 24.0" height="200px" width="200px"><path fill="none" stroke="black" stroke-width=".3" stroke-opacity="1.0"  filling="0" d="M17.12715721130371 7.998589992523193 C17.305164337158203 8.095632553100586 17.483745574951172 8.19267463684082 17.661752700805664 8.289716720581055 C17.661752700805664 14.45505428314209 17.661752700805664 20.620391845703125 17.661752700805664 26.83281707763672 C16.462217330932617 27.301376342773438 16.067157745361328 26.834537506103516 16.087831497192383 25.732620239257812 C16.134342193603516 23.250293731689453 16.167072296142578 20.767967224121094 16.197505950927734 18.28506088256836 C16.2089900970459 17.3467960357666 16.199228286743164 16.407955169677734 16.199228286743164 15.469690322875977 C16.008014678955078 15.431218147277832 15.816801071166992 15.392170906066895 15.625589370727539 15.35369873046875 C14.987062454223633 17.475419998168945 14.346813201904297 19.595993041992188 13.711158752441406 21.71886444091797 C13.301169395446777 23.088363647460938 12.950325012207031 24.477962493896484 12.466836929321289 25.820476531982422 C12.281939506530762 26.33439826965332 11.801897048950195 26.74266242980957 11.456219673156738 27.19916534423828 C11.218494415283203 27.141742706298828 10.980195999145508 27.085468292236328 10.74189567565918 27.029193878173828 C10.538050651550293 22.891407012939453 10.333629608154297 18.754192352294922 10.101648330688477 14.046211242675781 C8.73903751373291 18.703088760375977 7.534335613250732 22.83742904663086 6.288290977478027 26.959138870239258 C6.259006500244141 27.055606842041016 5.759439945220947 27.00967025756836 5.043968677520752 27.062496185302734 C6.555300712585449 20.686426162719727 8.05687141418457 14.476872444152832 10.066620826721191 8.395944595336914 C10.123468399047852 8.22368049621582 10.737876892089844 8.235738754272461 11.327020645141602 8.112857818603516 C11.520530700683594 12.60206413269043 11.708298683166504 16.952884674072266 11.896066665649414 21.3037052154541 C12.049955368041992 21.342178344726562 12.20442008972168 21.380075454711914 12.358308792114258 21.418548583984375 C12.799880027770996 20.090967178344727 13.274181365966797 18.773143768310547 13.676704406738281 17.434078216552734 C14.471991539001465 14.78867244720459 15.192056655883789 12.120299339294434 16.029260635375977 9.488676071166992 C16.206119537353516 8.93168830871582 16.75162124633789 8.491840362548828 17.12715721130371 7.998589992523193"></path></svg>