<svg xmlns="http://www.w3.org/2000/svg" viewBox="0.0 0.0 24.0 24.0" height="200px" width="200px"><path fill="none" stroke="black" stroke-width=".3" stroke-opacity="1.0"  filling="0" d="M10.54832649230957 8.8317289352417 L10.54832649230957 8.8317289352417 C11.666387557983398 10.731584548950195 12.78448486328125 12.631415367126465 13.902521133422852 14.53128433227539 L13.902521133422852 14.53128433227539 C14.251437187194824 12.891454696655273 14.600327491760254 11.251615524291992 14.94923210144043 9.611783981323242 L14.94923210144043 9.611783981323242 C14.441532135009766 9.490360260009766 13.933832168579102 9.368936538696289 13.426132202148438 9.247512817382812 L13.426132202148438 9.247512817382812 C14.65365982055664 8.878031730651855 15.979326248168945 8.88692569732666 17.25996208190918 8.94449520111084 L17.25996208190918 8.94449520111084 C16.044511795043945 9.762784957885742 15.457502365112305 10.832775115966797 15.101776123046875 12.036458015441895 C14.746050834655762 13.240140914916992 14.62160873413086 14.57751750946045 14.331292152404785 15.930578231811523 L14.331292152404785 15.930578231811523 C14.004610061645508 15.930578231811523 13.677927017211914 15.930578231811523 13.351244926452637 15.930578231811523 L13.351244926452637 15.930578231811523 C12.216634750366211 13.960179328918457 11.082109451293945 11.989734649658203 9.947484970092773 10.019343376159668 L9.947484970092773 10.019343376159668 C9.875337600708008 10.027063369750977 9.803191184997559 10.034782409667969 9.731043815612793 10.042502403259277 L9.731043815612793 10.042502403259277 C9.368108749389648 11.763509750366211 9.005136489868164 13.48450756072998 8.642126083374023 15.205498695373535 L8.642126083374023 15.205498695373535 C9.139580726623535 15.317543983459473 9.637035369873047 15.429588317871094 10.134490013122559 15.541633605957031 L10.134490013122559 15.541633605957031 C8.954936027526855 15.889026641845703 7.68784236907959 15.933263778686523 6.459962844848633 15.867378234863281 L6.459962844848633 15.867378234863281 C6.923797130584717 15.681021690368652 7.387630939483643 15.49466609954834 7.851465225219727 15.308309555053711 L7.851465225219727 15.308309555053711 C8.266324996948242 13.41408920288086 8.681200981140137 11.51987075805664 9.096004486083984 9.62563705444336 L9.096004486083984 9.62563705444336 C8.60844612121582 9.49933910369873 8.132508277893066 9.314825057983398 7.687186241149902 9.079554557800293 L7.687186241149902 9.079554557800293 C8.631559371948242 8.922861099243164 9.591043472290039 8.833396911621094 10.54832649230957 8.8317289352417 L10.54832649230957 8.8317289352417"></path></svg>