<svg xmlns="http://www.w3.org/2000/svg" viewBox="0.0 0.0 24.0 24.0" height="200px" width="200px"><path fill="none" stroke="black" stroke-width=".3" stroke-opacity="1.0"  filling="0" d="M11.054128646850586 6.0467658042907715 C10.835371971130371 6.9110188484191895 10.835371971130371 6.9110188484191895 8.954400062561035 7.501411437988281 C9.669086456298828 8.707470893859863 10.356013298034668 9.86671257019043 11.185464859008789 11.265840530395508 C12.629753112792969 10.008407592773438 13.942289352416992 8.865737915039062 15.442924499511719 7.5590009689331055 C14.635017395019531 7.167891025543213 14.05746841430664 6.8878173828125 13.479504585266113 6.608157157897949 C13.506019592285156 6.437046527862549 13.532949447631836 6.265936374664307 13.559466361999512 6.0948262214660645 C15.650079727172852 5.747633457183838 17.76596450805664 5.989590644836426 20.012775421142578 6.329326152801514 C18.634363174438477 7.1455183029174805 17.177230834960938 7.856061935424805 15.899495124816895 8.807319641113281 C14.523983001708984 9.831082344055176 13.316266059875488 11.080229759216309 11.85374927520752 12.394423484802246 C13.772008895874023 14.749781608581543 14.120859146118164 18.282611846923828 18.16619110107422 18.82950210571289 C18.009166717529297 19.02215576171875 17.852144241333008 19.215225219726562 17.695117950439453 19.407878875732422 C15.144620895385742 19.407878875732422 12.594121932983398 19.407878875732422 9.972362518310547 19.407878875732422 C10.191118240356445 17.98845100402832 11.628362655639648 18.78475570678711 12.497173309326172 17.869958877563477 C11.746027946472168 16.644426345825195 11.003582954406738 15.433395385742188 10.096654891967773 13.953062057495117 C8.57654857635498 15.338104248046875 7.193992614746094 16.5980224609375 5.544620513916016 18.10072898864746 C6.49587869644165 18.361743927001953 7.090414524078369 18.52457046508789 7.734253883361816 18.701065063476562 C6.913504123687744 19.724414825439453 4.616563320159912 19.934885025024414 0.8127756118774414 19.327503204345703 C2.4758195877075195 18.30208396911621 3.968167304992676 17.528566360473633 5.288576602935791 16.527591705322266 C6.709663391113281 15.4503812789917 7.968754291534424 14.15980339050293 9.441629409790039 12.833593368530273 C7.740468978881836 10.56855583190918 7.167891025543213 7.518812656402588 3.860032081604004 6.578741073608398 C5.2931342124938965 5.803979873657227 6.998852252960205 5.706615924835205 11.054128646850586 6.0467658042907715"></path></svg>