<svg xmlns="http://www.w3.org/2000/svg" viewBox="0.0 0.0 24.0 24.0" height="200px" width="200px"><path fill="none" stroke="black" stroke-width=".3" stroke-opacity="1.0"  filling="0" d="M15.022468566894531 8.574338912963867 L15.022468566894531 8.574338912963867 C16.885753631591797 9.38022518157959 16.53780174255371 10.157369613647461 14.626399993896484 10.355531692504883 L14.626399993896484 10.355531692504883 C14.834210395812988 9.910676002502441 15.042020797729492 9.465819358825684 15.249831199645996 9.020963668823242 L15.249831199645996 9.020963668823242 C14.808234214782715 9.199912071228027 14.366636276245117 9.378859519958496 13.925039291381836 9.557807922363281 L13.925039291381836 9.557807922363281 C13.808900833129883 10.21909236907959 13.840508460998535 10.924287796020508 13.576623916625977 11.541661262512207 C12.330300331115723 14.457514762878418 9.0723237991333 12.357351303100586 7.385992527008057 14.1461181640625 L7.385992527008057 14.1461181640625 C8.321465492248535 14.326085090637207 9.278875350952148 14.399526596069336 10.23141098022461 14.412723541259766 C11.000283241271973 14.423376083374023 12.313936233520508 14.321361541748047 13.035351753234863 14.809770584106445 C14.22350788116455 15.614169120788574 13.339637756347656 17.075815200805664 12.413665771484375 17.544546127319336 C11.09009838104248 18.214542388916016 9.382087707519531 18.343589782714844 7.937543869018555 18.134235382080078 C5.871893882751465 17.83486557006836 4.684222221374512 16.727785110473633 6.782671928405762 15.34521770477295 L6.782671928405762 15.34521770477295 C6.653419017791748 14.894112586975098 6.235412120819092 14.433219909667969 6.3949127197265625 13.991901397705078 C6.59617280960083 13.435039520263672 7.2684712409973145 13.192337989807129 7.705250263214111 12.792556762695312 L7.705250263214111 12.792556762695312 C7.564428806304932 12.254374504089355 7.222620964050293 11.731048583984375 7.282785892486572 11.178010940551758 C7.667545795440674 7.641273498535156 11.355744361877441 9.069599151611328 13.353561401367188 9.03499984741211 C13.930580139160156 9.025007247924805 14.460142135620117 8.704106330871582 15.022468566894531 8.574338912963867 L15.022468566894531 8.574338912963867"></path>
<path fill="none" stroke="black" stroke-width=".3" stroke-opacity="1.0"  filling="0" d="M10.892515182495117 9.204753875732422 L10.892515182495117 9.204753875732422 C11.307158470153809 9.327047348022461 11.80958080291748 9.288714408874512 12.136445999145508 9.571634292602539 C14.732503890991211 11.818666458129883 8.328134536743164 14.316001892089844 8.55660343170166 11.476424217224121 C8.602534294128418 10.905557632446289 8.802942276000977 10.288114547729492 9.213517189025879 9.88883113861084 C9.64676284790039 9.467499732971191 10.332849502563477 9.432779312133789 10.892515182495117 9.204753875732422 L10.892515182495117 9.204753875732422"></path>
<path fill="none" stroke="black" stroke-width=".3" stroke-opacity="1.0"  filling="0" d="M9.764920234680176 15.396612167358398 L9.764920234680176 15.396612167358398 C9.773113250732422 15.431619644165039 9.781306266784668 15.46662712097168 9.789499282836914 15.50163459777832 L9.789499282836914 15.50163459777832 C10.296642303466797 15.536083221435547 10.82256031036377 15.463995933532715 11.310929298400879 15.604981422424316 C13.293277740478516 16.17725944519043 10.748775482177734 17.323396682739258 10.230279922485352 17.423860549926758 C9.587791442871094 17.548349380493164 8.203596115112305 17.565980911254883 7.588496208190918 17.280872344970703 C6.866174697875977 16.94606590270996 6.7822418212890625 16.320154190063477 7.484591007232666 15.880664825439453 C7.671200275421143 15.763895988464355 9.56418514251709 15.433802604675293 9.764920234680176 15.396612167358398 L9.764920234680176 15.396612167358398"></path></svg>