<svg xmlns="http://www.w3.org/2000/svg" viewBox="0.0 0.0 24.0 24.0" height="200px" width="200px"><path fill="none" stroke="black" stroke-width=".3" stroke-opacity="1.0"  filling="0" d="M9.573270797729492 3.5057191848754883 C9.109076499938965 6.064869403839111 8.69414234161377 8.347589492797852 8.282105445861816 10.618719100952148 C9.971399307250977 9.98472785949707 11.432363510131836 9.197742462158203 12.986629486083984 8.90160846710205 C16.75697135925293 8.183586120605469 18.682708740234375 10.153367042541504 18.11188316345215 13.94804859161377 C17.93976593017578 15.090277671813965 17.65928077697754 16.215702056884766 17.437904357910156 17.35039710998535 C17.237390518188477 18.379039764404297 17.04962730407715 19.410003662109375 16.831729888916016 20.573097229003906 C17.725345611572266 21.024539947509766 18.50595474243164 21.418611526489258 19.28656578063965 21.81268310546875 C19.265705108642578 22.03753662109375 19.245420455932617 22.262969970703125 19.224557876586914 22.487823486328125 C16.474166870117188 22.88247299194336 13.681471824645996 22.608362197875977 10.91021728515625 22.66399574279785 C10.831403732299805 22.451313018798828 10.752588272094727 22.239208221435547 10.674354553222656 22.026527404785156 C11.663591384887695 21.615070343017578 12.652827262878418 21.204193115234375 14.166526794433594 20.57483673095703 C14.65100383758545 18.266616821289062 15.3255615234375 15.578813552856445 15.742236137390137 12.852182388305664 C15.963032722473145 11.405706405639648 15.075790405273438 10.571200370788574 13.53137493133545 10.424002647399902 C10.745634078979492 10.159163475036621 8.158087730407715 11.785290718078613 7.3722615242004395 14.58320140838623 C6.829833030700684 16.51531410217285 6.519211292266846 18.512910842895508 6.07877779006958 20.603809356689453 C7.108581066131592 21.051197052001953 8.009151458740234 21.442951202392578 8.909722328186035 21.834129333496094 C8.888859748840332 22.062458038330078 8.867417335510254 22.290786743164062 8.84655475616455 22.518535614013672 C6.100220203399658 22.851757049560547 3.3220129013061523 22.627483367919922 0.3421335220336914 22.65935707092285 C0.5803155899047852 22.020729064941406 0.631312370300293 21.7037353515625 0.7107067108154297 21.696779251098633 C3.597283363342285 21.429622650146484 3.937459945678711 19.262805938720703 4.363985538482666 17.025287628173828 C5.08316707611084 13.255525588989258 5.947807788848877 9.513578414916992 6.770143032073975 5.670797824859619 C5.804666519165039 5.177048206329346 5.0240559577941895 4.777761936187744 4.243446350097656 4.378472805023193 C4.266047477722168 4.1686882972717285 4.2892279624938965 3.958902359008789 4.311829090118408 3.749116897583008 C5.928104400634766 3.6743593215942383 7.54379940032959 3.5996017456054688 9.573270797729492 3.5057191848754883"></path></svg>