<svg xmlns="http://www.w3.org/2000/svg" viewBox="0.0 0.0 24.0 24.0" height="200px" width="200px"><path fill="none" stroke="black" stroke-width=".3" stroke-opacity="1.0"  filling="0" d="M12.199508666992188 2.519275665283203 C12.327795028686523 2.4441919326782227 12.840080261230469 3.021693229675293 13.424448013305664 3.505232810974121 C12.710936546325684 4.0990376472473145 12.24927806854248 4.57614278793335 11.689796447753906 4.8614606857299805 C11.589828491210938 4.912517547607422 10.744170188903809 3.961742401123047 10.825689315795898 3.8274497985839844 C11.147047996520996 3.297572135925293 11.659334182739258 2.8372011184692383 12.199508666992188 2.519275665283203"></path>
<path fill="none" stroke="black" stroke-width=".3" stroke-opacity="1.0"  filling="0" d="M8.313599586486816 7.346949577331543 C9.648374557495117 7.346949577331543 10.98315143585205 7.346949577331543 12.474529266357422 7.346949577331543 C11.648179054260254 11.098136901855469 10.756182670593262 14.833877563476562 10.020791053771973 18.600082397460938 C9.568572044372559 20.917383193969727 6.737268924713135 22.244007110595703 4.655516624450684 21.509902954101562 C3.440445899963379 21.081279754638672 2.959052085876465 20.20816421508789 3.3915348052978516 19.229501724243164 C3.8167238235473633 18.26628303527832 4.387360095977783 18.1534423828125 6.005737781524658 18.826622009277344 C5.76203727722168 19.354782104492188 5.5217695236206055 19.876506805419922 5.289224147796631 20.380212783813477 C7.047043323516846 20.72216796875 7.757121562957764 20.435131072998047 8.12524700164795 18.886688232421875 C8.930574417114258 15.497617721557617 9.614051818847656 12.079374313354492 10.373041152954102 8.553868293762207 C9.477184295654297 8.232938766479492 8.859781265258789 8.011977195739746 8.242378234863281 7.791016578674316 C8.265974998474121 7.642994403839111 8.289572715759277 7.494972229003906 8.313599586486816 7.346949577331543"></path></svg>