<svg xmlns="http://www.w3.org/2000/svg" viewBox="0.0 0.0 24.0 24.0" height="200px" width="200px"><path fill="none" stroke="black" stroke-width=".3" stroke-opacity="1.0"  filling="0" d="M12.991509437561035 9.805867195129395 C15.8030424118042 9.805867195129395 17.96314239501953 9.805867195129395 20.46889877319336 9.805867195129395 C17.66534423828125 11.62456226348877 15.155330657958984 13.252347946166992 12.365601539611816 15.062002182006836 C14.42147159576416 17.384828567504883 15.365384101867676 20.16870880126953 18.90865135192871 20.941919326782227 C16.557109832763672 21.961877822875977 13.052132606506348 22.045368194580078 9.847612380981445 21.2593936920166 C11.19727611541748 20.733993530273438 12.067272186279297 20.39577865600586 13.177633285522461 19.96343994140625 C12.334226608276367 18.89455795288086 11.58335018157959 17.943199157714844 10.692083358764648 16.814224243164062 C9.899726867675781 17.38003921508789 9.192988395690918 17.854923248291016 8.519752502441406 18.373943328857422 C7.898630142211914 18.8525447845459 7.313138008117676 19.377948760986328 6.501106262207031 20.0596923828125 C7.388119220733643 20.406946182250977 8.050188064575195 20.665924072265625 8.712257385253906 20.924903869628906 C8.702154159545898 21.126445770263672 8.692049980163574 21.327463150024414 8.68194580078125 21.529006958007812 C6.42186975479126 22.092164993286133 4.107021331787109 21.75926971435547 1.2688989639282227 21.691730499267578 C4.451084613800049 19.509830474853516 7.102019309997559 17.692195892333984 9.890153884887695 15.780439376831055 C8.197490692138672 13.455488204956055 6.961628437042236 11.106073379516602 3.761362075805664 10.557806015014648 C5.613560676574707 9.429896354675293 8.23577880859375 9.284719467163086 11.777449607849121 9.964337348937988 C10.995729446411133 10.518986701965332 10.434167861938477 10.91782283782959 9.761995315551758 11.394831657409668 C10.00289249420166 11.825044631958008 10.219327926635742 12.288758277893066 10.505958557128906 12.703548431396484 C10.803756713867188 13.1348237991333 11.169622421264648 13.518770217895508 11.625360488891602 14.067037582397461 C12.215106010437012 13.680964469909668 12.787837028503418 13.336369514465332 13.32706356048584 12.944445610046387 C13.893412590026855 12.532846450805664 14.427321434020996 12.07551383972168 15.187238693237305 11.469282150268555 C14.552289962768555 10.988550186157227 14.034866333007812 10.596095085144043 12.991509437561035 9.805867195129395"></path></svg>