<svg xmlns="http://www.w3.org/2000/svg" viewBox="0.0 0.0 24.0 24.0" height="200px" width="200px"><path fill="none" stroke="black" stroke-width=".3" stroke-opacity="1.0"  filling="0" d="M14.387762069702148 9.480829238891602 L14.387762069702148 9.480829238891602 C14.394220352172852 10.807488441467285 14.244462013244629 12.052536010742188 14.159663200378418 13.295039176940918 C14.07486343383789 14.537542343139648 14.055024147033691 15.77750015258789 14.321321487426758 17.09398078918457 L14.321321487426758 17.09398078918457 C13.336052894592285 18.219919204711914 13.418638229370117 19.093564987182617 12.310437202453613 20.24384307861328 L12.310437202453613 20.24384307861328 C12.430706024169922 19.03931999206543 12.464383125305176 18.701942443847656 12.584708213806152 17.49622344970703 L12.584708213806152 17.49622344970703 C11.599778175354004 17.427900314331055 10.614845275878906 17.359607696533203 9.629911422729492 17.291337966918945 L9.629911422729492 17.291337966918945 C10.11608600616455 16.1856746673584 10.735458374023438 14.472515106201172 11.518332481384277 12.916036605834961 C12.301206588745117 11.359559059143066 13.247581481933594 9.959762573242188 14.387762069702148 9.480829238891602 L14.387762069702148 9.480829238891602"></path>
<path fill="none" stroke="black" stroke-width=".3" stroke-opacity="1.0"  filling="0" d="M12.94538402557373 12.435953140258789 L12.94538402557373 12.435953140258789 C13.034953117370605 12.461263656616211 13.12452220916748 12.48657512664795 13.214091300964355 12.511885643005371 L13.214091300964355 12.511885643005371 C13.207353591918945 12.567366600036621 12.74962043762207 16.337249755859375 12.748026847839355 16.350372314453125 L12.748026847839355 16.350372314453125 C12.147772789001465 16.350372314453125 11.547517776489258 16.350372314453125 10.947263717651367 16.350372314453125 L10.947263717651367 16.350372314453125 C11.613242149353027 15.0455322265625 12.27927303314209 13.740724563598633 12.94538402557373 12.435953140258789 L12.94538402557373 12.435953140258789"></path></svg>