<svg xmlns="http://www.w3.org/2000/svg" viewBox="0.0 0.0 24.0 24.0" height="200px" width="200px"><path fill="none" stroke="black" stroke-width=".3" stroke-opacity="1.0"  filling="0" d="M9.223297119140625 4.914505481719971 C10.624994277954102 4.914505481719971 12.021495819091797 4.914505481719971 13.693422317504883 4.914505481719971 C14.60946273803711 7.250668048858643 15.579360961914062 9.712969779968262 16.539337158203125 12.17905044555664 C17.109560012817383 13.64405345916748 17.644821166992188 15.122756958007812 18.230632781982422 16.58067512512207 C18.580703735351562 17.45136260986328 18.91423988342285 18.286617279052734 20.076416015625 18.51102066040039 C20.49357032775879 18.59133529663086 20.775611877441406 19.37225914001465 21.119068145751953 19.833824157714844 C20.96930694580078 19.98263931274414 20.81954574584961 20.131454467773438 20.669788360595703 20.280742645263672 C17.780879974365234 20.280742645263672 14.892449378967285 20.280742645263672 11.889215469360352 20.280742645263672 C11.85803508758545 19.744060516357422 11.832052230834961 19.297143936157227 11.7999267578125 18.743457794189453 C12.556757926940918 18.5450382232666 13.285244941711426 18.354175567626953 14.283015251159668 18.092449188232422 C14.010896682739258 17.148061752319336 13.764760971069336 16.294384002685547 13.493586540222168 15.353776931762695 C11.703079223632812 15.353776931762695 10.071781158447266 15.353776931762695 8.17639446258545 15.353776931762695 C7.882543563842773 16.13422966003418 7.545701026916504 17.028064727783203 7.155002593994141 18.065994262695312 C8.077656745910645 18.3154354095459 8.729137420654297 18.491653442382812 9.492582321166992 18.698102951049805 C9.492582321166992 19.17903709411621 9.492582321166992 19.68311882019043 9.492582321166992 20.28641128540039 C6.96225118637085 20.28641128540039 4.546247959136963 20.28641128540039 2.0036325454711914 20.28641128540039 C1.9767045974731445 19.758708953857422 1.9540271759033203 19.312734603881836 1.9190683364868164 18.621570587158203 C4.101691246032715 18.6650333404541 4.646874904632568 17.029010772705078 5.254418849945068 15.371256828308105 C6.524307727813721 11.906458854675293 7.868842124938965 8.469535827636719 9.223297119140625 4.914505481719971"></path>
<path fill="none" stroke="black" stroke-width=".3" stroke-opacity="1.0"  filling="0" d="M10.744519233703613 8.408592224121094 C11.448911666870117 10.190123558044434 11.985591888427734 11.547884941101074 12.609197616577148 13.124382019042969 C11.366235733032227 13.124382019042969 10.32641887664795 13.124382019042969 8.927556991577148 13.124382019042969 C9.494943618774414 11.650875091552734 10.030206680297852 10.262877464294434 10.744519233703613 8.408592224121094"></path></svg>