<svg xmlns="http://www.w3.org/2000/svg" viewBox="0.0 0.0 24.0 24.0" height="200px" width="200px"><path fill="none" stroke="black" stroke-width=".3" stroke-opacity="1.0"  filling="0" d="M17.26856231689453 7.0040178298950195 L17.26856231689453 7.0040178298950195 C17.26856231689453 8.373342514038086 17.26856231689453 9.742668151855469 17.26856231689453 11.111992835998535 L17.26856231689453 11.111992835998535 C16.88118553161621 11.150720596313477 16.493810653686523 11.189447402954102 16.106433868408203 11.228175163269043 L16.106433868408203 11.228175163269043 C15.743667602539062 10.581421852111816 15.524785041809082 9.841917991638184 15.056687355041504 9.266788482666016 C14.386822700500488 8.443756103515625 13.53044605255127 8.208152770996094 12.501709938049316 8.31468677520752 C10.944927215576172 8.47590446472168 9.994612693786621 9.641321182250977 9.637335777282715 11.041213989257812 C9.280057907104492 12.441107749938965 9.515817642211914 14.075477600097656 10.331185340881348 15.174599647521973 C11.386260986328125 16.596853256225586 13.957155227661133 16.798215866088867 15.055625915527344 15.322134971618652 C15.446205139160156 14.79728889465332 15.60559368133545 14.134202003479004 15.911359786987305 13.555822372436523 L15.911359786987305 13.555822372436523 C16.3610897064209 13.555822372436523 16.810821533203125 13.555822372436523 17.26055145263672 13.555822372436523 L17.26055145263672 13.555822372436523 C16.989992141723633 14.947818756103516 17.11528968811035 15.812827110290527 15.910948753356934 16.742582321166992 C14.242122650146484 18.030921936035156 12.301505088806152 18.107379913330078 10.627276420593262 17.457735061645508 C8.953047752380371 16.808090209960938 7.545207977294922 15.432343482971191 6.941938400268555 13.816274642944336 C6.338668346405029 12.20020580291748 6.539968013763428 10.343814849853516 8.084017753601074 8.732880592346191 C8.863593101501465 7.919536113739014 9.783281326293945 7.332381248474121 10.883288383483887 7.062609672546387 C12.422279357910156 6.685179233551025 13.81943416595459 7.05107307434082 15.224128723144531 7.646255016326904 L15.224128723144531 7.646255016326904 C15.385698318481445 7.5955095291137695 17.06722068786621 7.0672807693481445 17.26856231689453 7.0040178298950195 L17.26856231689453 7.0040178298950195"></path></svg>