<svg xmlns="http://www.w3.org/2000/svg" viewBox="0.0 0.0 24.0 24.0" height="200px" width="200px"><path fill="none" stroke="black" stroke-width=".3" stroke-opacity="1.0"  filling="0" d="M12.464073181152344 8.20303726196289 L12.464073181152344 8.20303726196289 C13.936513900756836 8.20303726196289 15.408955574035645 8.20303726196289 16.88139533996582 8.20303726196289 L16.88139533996582 8.20303726196289 C16.900033950805664 8.3895902633667 16.918672561645508 8.576142311096191 16.93731117248535 8.7626953125 L16.93731117248535 8.7626953125 C15.685835838317871 9.588647842407227 14.434369087219238 10.414623260498047 13.182914733886719 11.240607261657715 L13.182914733886719 11.240607261657715 C14.596977233886719 12.905555725097656 15.487642288208008 14.518378257751465 17.411081314086914 15.632742881774902 L17.411081314086914 15.632742881774902 C17.411081314086914 15.888812065124512 17.411081314086914 16.144882202148438 17.411081314086914 16.400951385498047 L17.411081314086914 16.400951385498047 C15.762831687927246 16.400951385498047 14.114590644836426 16.400951385498047 12.466340065002441 16.400951385498047 L12.466340065002441 16.400951385498047 C12.452654838562012 16.118938446044922 12.438970565795898 15.836926460266113 12.425285339355469 15.554914474487305 L12.425285339355469 15.554914474487305 C12.859763145446777 15.465499877929688 13.294241905212402 15.376086235046387 13.728719711303711 15.28667163848877 L13.728719711303711 15.28667163848877 C13.094084739685059 14.390515327453613 12.459452629089355 13.494356155395508 11.824823379516602 12.59819507598877 L11.824823379516602 12.59819507598877 C11.301308631896973 12.953627586364746 10.572000503540039 13.117270469665527 10.254278182983398 13.664493560791016 C9.986623764038086 14.125483512878418 10.26964282989502 14.730498313903809 10.277324676513672 15.263500213623047 L10.277324676513672 15.263500213623047 C10.642958641052246 15.359967231750488 11.008591651916504 15.456433296203613 11.374225616455078 15.552900314331055 L11.374225616455078 15.552900314331055 C11.374225616455078 15.836506843566895 11.374225616455078 16.120113372802734 11.374225616455078 16.40372085571289 L11.374225616455078 16.40372085571289 C9.803133964538574 16.403900146484375 8.232043266296387 16.403963088989258 6.660953521728516 16.403972625732422 L6.660953521728516 16.403972625732422 C6.64785623550415 16.133211135864258 6.634758949279785 15.862448692321777 6.62166166305542 15.591687202453613 L6.62166166305542 15.591687202453613 C7.085608959197998 15.486908912658691 7.549555778503418 15.38213062286377 8.013503074645996 15.277352333068848 L8.013503074645996 15.277352333068848 C8.013503074645996 13.29881763458252 8.013503074645996 11.320282936096191 8.013503074645996 9.341748237609863 L8.013503074645996 9.341748237609863 C7.576925754547119 9.254852294921875 7.1403489112854 9.167956352233887 6.703771591186523 9.081060409545898 L6.703771591186523 9.081060409545898 C6.67287540435791 8.79552173614502 6.641979217529297 8.509984016418457 6.611083030700684 8.224445343017578 L6.611083030700684 8.224445343017578 C8.199971199035645 8.224445343017578 9.788862228393555 8.224445343017578 11.377751350402832 8.224445343017578 L11.377751350402832 8.224445343017578 C11.419646263122559 8.491681098937988 11.461540222167969 8.758916854858398 11.503435134887695 9.026152610778809 L11.503435134887695 9.026152610778809 C11.074917793273926 9.145959854125977 10.646400451660156 9.265766143798828 10.217883110046387 9.385573387145996 L10.217883110046387 9.385573387145996 C10.217883110046387 10.266956329345703 10.217883110046387 11.148338317871094 10.217883110046387 12.0297212600708 L10.217883110046387 12.0297212600708 C11.35063362121582 11.145231246948242 12.483394622802734 10.260759353637695 13.616132736206055 9.376254081726074 L13.616132736206055 9.376254081726074 C13.232112884521484 9.272147178649902 12.848093032836914 9.168041229248047 12.464073181152344 9.063934326171875 L12.464073181152344 9.063934326171875 C12.464073181152344 8.776968955993652 12.464073181152344 8.490002632141113 12.464073181152344 8.20303726196289 L12.464073181152344 8.20303726196289"></path></svg>