<svg xmlns="http://www.w3.org/2000/svg" viewBox="0.0 0.0 24.0 24.0" height="200px" width="200px"><path fill="none" stroke="black" stroke-width=".3" stroke-opacity="1.0"  filling="0" d="M2.564589500427246 3.654146194458008 C6.23797082901001 3.654146194458008 9.936153411865234 3.654146194458008 13.836690902709961 3.654146194458008 C13.875582695007324 4.217808246612549 13.916730880737305 4.809089660644531 13.967459678649902 5.537903308868408 C13.360960006713867 5.620760917663574 12.915103912353516 5.745893955230713 12.473756790161133 5.731239318847656 C10.851539611816406 5.677127361297607 10.367354393005371 6.576731204986572 10.376373291015625 8.02872371673584 C10.40061092376709 11.771998405456543 10.38426399230957 15.515838623046875 10.38426399230957 19.21627426147461 C15.837689399719238 21.01660919189453 18.41869354248047 19.676786422729492 19.49923324584961 14.541267395019531 C19.721879959106445 14.45559024810791 19.972145080566406 14.285364151000977 20.228046417236328 14.276910781860352 C20.680103302001953 14.261127471923828 21.136104583740234 14.343984603881836 21.764589309692383 14.401479721069336 C21.764589309692383 16.878772735595703 21.764589309692383 19.271514892578125 21.764589309692383 21.863229751586914 C15.379432678222656 21.863229751586914 9.06755256652832 21.863229751586914 2.5679712295532227 21.863229751586914 C2.5679712295532227 21.153018951416016 2.5679712295532227 20.61810302734375 2.5679712295532227 20.06571388244629 C3.6468191146850586 19.813756942749023 4.612371921539307 19.58772850036621 5.672618389129639 19.339717864990234 C5.672618389129639 14.89975643157959 5.672618389129639 10.622130393981934 5.672618389129639 6.18611478805542 C4.605607509613037 5.941484451293945 3.638364791870117 5.71940279006958 2.564589500427246 5.4725189208984375 C2.564589500427246 4.9195661544799805 2.564589500427246 4.384088039398193 2.564589500427246 3.654146194458008"></path></svg>