<svg xmlns="http://www.w3.org/2000/svg" viewBox="0.0 0.0 24.0 24.0" height="200px" width="200px"><path fill="none" stroke="black" stroke-width=".3" stroke-opacity="1.0"  filling="0" d="M2.613649368286133 3.713412284851074 C8.930532455444336 3.713412284851074 15.273076057434082 3.713412284851074 21.813648223876953 3.713412284851074 C21.813648223876953 5.951431751251221 21.813648223876953 8.211206436157227 21.813648223876953 10.698019027709961 C21.121936798095703 10.731489181518555 20.435806274414062 10.764959335327148 19.619140625 10.8045654296875 C19.182357788085938 7.993652820587158 18.448810577392578 5.516323566436768 14.742578506469727 5.873335361480713 C14.742578506469727 10.310327529907227 14.742578506469727 14.717752456665039 14.742578506469727 19.285274505615234 C15.811941146850586 19.496135711669922 16.776432037353516 19.685800552368164 17.878705978393555 19.902795791625977 C17.878705978393555 20.49242401123047 17.878705978393555 21.083724975585938 17.878705978393555 21.799423217773438 C14.10609245300293 21.79998207092285 10.432214736938477 21.79998207092285 6.548592567443848 21.79998207092285 C6.548592567443848 21.0045166015625 6.548592567443848 20.477922439575195 6.548592567443848 19.84255027770996 C7.555478096008301 19.72261619567871 8.449682235717773 19.616628646850586 9.767837524414062 19.45987892150879 C10.283273696899414 14.949810981750488 9.93630313873291 10.472098350524902 9.955827713012695 6.008330821990967 C6.4693803787231445 5.860506057739258 5.7614922523498535 6.525998115539551 4.9046630859375 10.66287612915039 C4.60510778427124 10.717543601989746 4.2575788497924805 10.81739616394043 3.906702995300293 10.834131240844727 C3.5424394607543945 10.851423263549805 3.174269676208496 10.788389205932617 2.613649368286133 10.745992660522461 C2.613649368286133 8.449958801269531 2.613649368286133 6.183489799499512 2.613649368286133 3.713412284851074"></path></svg>