<svg xmlns="http://www.w3.org/2000/svg" viewBox="0.0 0.0 24.0 24.0" height="200px" width="200px"><path fill="none" stroke="black" stroke-width=".3" stroke-opacity="1.0"  filling="0" d="M10.321897506713867 7.305288791656494 C13.828191757202148 6.547978401184082 17.327592849731445 6.815985202789307 19.814693450927734 9.680593490600586 C20.731277465820312 10.735774993896484 21.04676055908203 12.702943801879883 20.872173309326172 14.162431716918945 C20.774158477783203 14.98482894897461 19.181432723999023 16.075233459472656 18.14922523498535 16.215362548828125 C17.110124588012695 16.356258392333984 15.299165725708008 15.742138862609863 14.966071128845215 14.968748092651367 C14.498208045959473 13.881406784057617 15.082463264465332 12.341516494750977 15.241735458374023 10.747259140014648 C11.87480640411377 9.027421951293945 9.027809143066406 10.219669342041016 8.298830032348633 14.38372802734375 C8.043841361999512 15.837855339050293 8.288875579833984 17.40531349182129 8.461166381835938 18.903087615966797 C8.706966400146484 21.045608520507812 9.924482345581055 22.387176513671875 12.119840621948242 22.664371490478516 C14.381051063537598 22.949989318847656 16.11467170715332 22.229434967041016 16.956979751586914 19.94601821899414 C17.086387634277344 19.5960750579834 17.2724609375 19.26681137084961 17.483802795410156 18.818857192993164 C18.545106887817383 18.818857192993164 19.62632179260254 18.818857192993164 20.709835052490234 18.818857192993164 C21.239723205566406 21.31438446044922 20.163101196289062 22.9882755279541 18.533620834350586 24.322946548461914 C15.531181335449219 26.782485961914062 9.49949836730957 26.72275733947754 5.916632652282715 24.3015079498291 C2.6530771255493164 22.096195220947266 1.2747573852539062 17.989566802978516 2.5405139923095703 13.798707962036133 C3.6960058212280273 9.973869323730469 6.651737213134766 8.097822189331055 10.321897506713867 7.305288791656494"></path></svg>