<svg xmlns="http://www.w3.org/2000/svg" viewBox="0.0 0.0 24.0 24.0" height="200px" width="200px"><path fill="none" stroke="black" stroke-width=".3" stroke-opacity="1.0"  filling="0" d="M3.1728105545043945 3.755864143371582 C5.070358753204346 3.755864143371582 7.127325057983398 3.755864143371582 9.496503829956055 3.755864143371582 C9.496503829956055 7.426850318908691 9.496503829956055 11.029987335205078 9.496503829956055 15.203493118286133 C11.345510482788086 13.866933822631836 12.71902847290039 12.874582290649414 14.314844131469727 11.721158981323242 C13.416817665100098 10.902013778686523 11.125967979431152 11.640623092651367 12.04495620727539 9.310057640075684 C14.728553771972656 9.310057640075684 17.518062591552734 9.310057640075684 20.498428344726562 9.310057640075684 C20.660602569580078 10.165058135986328 20.91213607788086 10.847955703735352 19.599849700927734 11.319584846496582 C18.18220329284668 11.828722953796387 16.904117584228516 12.727852821350098 15.112476348876953 13.703104019165039 C17.327754974365234 15.853845596313477 18.016719818115234 18.711200714111328 20.909378051757812 19.750438690185547 C21.365562438964844 19.914270401000977 21.570764541625977 20.778648376464844 22.088726043701172 21.650196075439453 C18.775737762451172 21.650196075439453 15.970234870910645 21.650196075439453 13.19837760925293 21.650196075439453 C12.266151428222656 20.088027954101562 13.587265014648438 19.823253631591797 14.704833030700684 19.22585678100586 C13.89616870880127 18.158485412597656 13.147628784179688 17.171096801757812 12.308625221252441 16.064008712768555 C11.5380220413208 16.552186965942383 10.906976699829102 16.890878677368164 10.345434188842773 17.321134567260742 C9.350323677062988 18.084016799926758 9.19421672821045 18.81104278564453 10.375221252441406 19.653356552124023 C10.89042854309082 20.02073097229004 11.14637565612793 20.751617431640625 11.75535774230957 21.67391586303711 C8.521251678466797 21.67446517944336 5.883988857269287 21.67446517944336 3.0999975204467773 21.67446517944336 C2.3950347900390625 19.648942947387695 3.9985742568969727 19.722858428955078 5.118349552154541 19.393545150756836 C5.118349552154541 14.959127426147461 5.118349552154541 10.671438217163086 5.118349552154541 6.405813694000244 C4.641756534576416 5.357748985290527 2.037590980529785 6.148210525512695 3.1728105545043945 3.755864143371582"></path></svg>