<svg xmlns="http://www.w3.org/2000/svg" viewBox="0.0 0.0 24.0 24.0" height="200px" width="200px"><path fill="none" stroke="black" stroke-width=".3" stroke-opacity="1.0"  filling="0" d="M7.034706115722656 7.362674236297607 L7.034706115722656 7.362674236297607 C7.199758052825928 7.362674236297607 10.547677993774414 7.362674236297607 10.59178352355957 7.362674236297607 L10.59178352355957 7.362674236297607 C10.59178352355957 9.509103775024414 10.59178352355957 11.655534744262695 10.59178352355957 13.80196475982666 L10.59178352355957 13.80196475982666 C11.49521255493164 13.14901351928711 12.398650169372559 12.496075630187988 13.302099227905273 11.843152046203613 L13.302099227905273 11.843152046203613 C12.716365814208984 11.637160301208496 12.17922306060791 11.088422775268555 12.025287628173828 10.486907958984375 L12.025287628173828 10.486907958984375 C13.610312461853027 10.486907958984375 15.19533920288086 10.486907958984375 16.780364990234375 10.486907958984375 L16.780364990234375 10.486907958984375 C16.10106658935547 12.006051063537598 15.181337356567383 12.137946128845215 13.750767707824707 12.957996368408203 L13.750767707824707 12.957996368408203 C15.002381324768066 14.513659477233887 16.660709381103516 15.794511795043945 17.674907684326172 17.42823600769043 L17.674907684326172 17.42823600769043 C16.00796890258789 17.42823600769043 14.341024398803711 17.42823600769043 12.674087524414062 17.42823600769043 L12.674087524414062 17.42823600769043 C12.956547737121582 16.97367286682129 13.239008903503418 16.519107818603516 13.521469116210938 16.064544677734375 L13.521469116210938 16.064544677734375 C13.0722017288208 15.471681594848633 12.622912406921387 14.878835678100586 12.173601150512695 14.286005020141602 L12.173601150512695 14.286005020141602 C10.545251846313477 15.328715324401855 10.833443641662598 15.935174942016602 11.862388610839844 17.441577911376953 L11.862388610839844 17.441577911376953 C10.239508628845215 17.441781997680664 8.61662769317627 17.441875457763672 6.993748664855957 17.44188690185547 L6.993748664855957 17.44188690185547 C7.096484184265137 16.8801326751709 7.581761837005615 16.321882247924805 8.129072189331055 16.15886878967285 L8.129072189331055 16.15886878967285 C8.129072189331055 14.324663162231445 8.129072189331055 12.490459442138672 8.129072189331055 10.656253814697266 C8.129072189331055 10.055259704589844 8.348283767700195 9.412859916687012 8.129072189331055 8.853270530700684 C8.007472038269043 8.542858123779297 7.439194202423096 8.660262107849121 7.241897106170654 8.391530990600586 C7.034861087799072 8.10953426361084 7.103769779205322 7.705626487731934 7.034706115722656 7.362674236297607 L7.034706115722656 7.362674236297607"></path></svg>