<svg xmlns="http://www.w3.org/2000/svg" viewBox="0.0 0.0 24.0 24.0" height="200px" width="200px"><path fill="none" stroke="black" stroke-width=".3" stroke-opacity="1.0"  filling="0" d="M12.388459205627441 10.389739036560059 L12.388459205627441 10.389739036560059 C13.007671356201172 10.282217025756836 13.625235557556152 9.969620704650879 14.24609661102295 10.067172050476074 C16.879179000854492 10.480888366699219 16.266550064086914 14.115161895751953 16.25518798828125 15.927619934082031 L16.25518798828125 15.927619934082031 C16.90215301513672 16.300220489501953 17.444549560546875 16.988893508911133 17.59925079345703 17.71927833557129 L17.59925079345703 17.71927833557129 C16.00981903076172 17.71927833557129 14.420387268066406 17.71927833557129 12.830953598022461 17.71927833557129 L12.830953598022461 17.71927833557129 C12.736801147460938 17.56710433959961 12.642648696899414 17.41493034362793 12.54849624633789 17.26275634765625 L12.54849624633789 17.26275634765625 C13.026908874511719 16.81813621520996 13.505322456359863 16.373516082763672 13.983735084533691 15.928895950317383 L13.983735084533691 15.928895950317383 C13.980015754699707 14.927023887634277 14.390424728393555 12.913992881774902 13.840832710266113 12.027575492858887 C13.369544982910156 11.267451286315918 12.352810859680176 11.242521286010742 11.67697525024414 11.711685180664062 C10.406950950622559 12.593334197998047 10.769523620605469 14.779804229736328 10.732928276062012 16.05960464477539 L10.732928276062012 16.05960464477539 C11.292932510375977 16.42204475402832 11.808591842651367 16.97327995300293 11.992827415466309 17.61439323425293 L11.992827415466309 17.61439323425293 C10.372577667236328 17.61439323425293 8.752328872680664 17.61439323425293 7.132077693939209 17.61439323425293 L7.132077693939209 17.61439323425293 C7.199149131774902 16.979276657104492 7.8234357833862305 16.45195960998535 8.400585174560547 16.178516387939453 L8.400585174560547 16.178516387939453 C8.400585174560547 15.290396690368652 8.814867973327637 12.791531562805176 8.400585174560547 12.028053283691406 C8.225143432617188 11.704733848571777 7.639472961425781 11.841870307922363 7.39995002746582 11.562685012817383 C7.15317964553833 11.275052070617676 7.17886209487915 10.837679862976074 7.068317890167236 10.475177764892578 L7.068317890167236 10.475177764892578 C8.253511428833008 10.475177764892578 9.438705444335938 10.475177764892578 10.62389850616455 10.475177764892578 L10.62389850616455 10.475177764892578 C10.746636390686035 10.753808975219727 10.869375228881836 11.032440185546875 10.99211311340332 11.311071395874023 L10.99211311340332 11.311071395874023 C11.457561492919922 11.003960609436035 11.92301082611084 10.696849822998047 12.388459205627441 10.389739036560059 L12.388459205627441 10.389739036560059"></path></svg>