<svg xmlns="http://www.w3.org/2000/svg" viewBox="0.0 0.0 24.0 24.0" height="200px" width="200px"><path fill="none" stroke="black" stroke-width=".3" stroke-opacity="1.0"  filling="0" d="M4.046442985534668 6.002879619598389 C8.560436248779297 5.238162040710449 9.781543731689453 5.4361348152160645 10.799688339233398 7.109750270843506 C14.159119606018066 4.673080921173096 17.060497283935547 4.558290958404541 19.227102279663086 6.776468753814697 C21.475780487060547 9.078384399414062 21.7591552734375 14.189066886901855 19.784420013427734 16.82814598083496 C17.83186912536621 19.43949317932129 14.550628662109375 19.657428741455078 10.148098945617676 17.32390594482422 C10.224625587463379 18.976449966430664 10.294498443603516 20.48813819885254 10.364925384521484 22.022010803222656 C11.423551559448242 22.271554946899414 12.206013679504395 22.455665588378906 13.088293075561523 22.663619995117188 C13.088293075561523 23.20984649658203 13.088293075561523 23.721689224243164 13.088293075561523 24.393795013427734 C10.09597110748291 24.393795013427734 7.182947635650635 24.393795013427734 4.241087913513184 24.393795013427734 C3.038280487060547 22.336437225341797 5.006359577178955 22.521656036376953 6.064985275268555 22.019792556762695 C6.064985275268555 17.484725952148438 6.064985275268555 12.995132446289062 6.064985275268555 8.42180347442627 C5.534841060638428 7.544513702392578 3.0976171493530273 8.159503936767578 4.046442985534668 6.002879619598389"></path>
<path fill="none" stroke="black" stroke-width=".3" stroke-opacity="1.0"  filling="0" d="M13.686647415161133 7.50846529006958 C15.160072326660156 7.540073871612549 16.264726638793945 8.584836959838867 16.589134216308594 10.31612491607666 C16.68950653076172 10.853479385375977 16.671207427978516 11.412460327148438 16.685625076293945 11.636495590209961 C16.685070037841797 15.359708786010742 15.458416938781738 16.915205001831055 12.986257553100586 16.315744400024414 C12.08734130859375 16.097251892089844 10.942760467529297 15.198890686035156 10.695988655090332 14.375391006469727 C10.295052528381348 13.035612106323242 10.344961166381836 11.47235107421875 10.563451766967773 10.058816909790039 C10.822978973388672 8.38076400756836 12.148895263671875 7.475747108459473 13.686647415161133 7.50846529006958"></path></svg>