<svg xmlns="http://www.w3.org/2000/svg" viewBox="0.0 0.0 24.0 24.0" height="200px" width="200px"><path fill="none" stroke="black" stroke-width=".3" stroke-opacity="1.0"  filling="0" d="M9.980743408203125 14.236333847045898 C13.004449844360352 12.602519035339355 16.052701950073242 12.719110488891602 19.239023208618164 14.836934089660645 C18.63458824157715 16.246768951416016 18.052396774291992 17.605979919433594 17.401941299438477 19.124736785888672 C16.28281593322754 18.680614471435547 15.291021347045898 18.287887573242188 13.710134506225586 17.66044044494629 C14.038431167602539 18.779563903808594 14.062976837158203 19.49982261657715 14.428092002868652 19.93320655822754 C14.807781219482422 20.38346290588379 15.524972915649414 20.541473388671875 16.079547882080078 20.85366439819336 C18.91225814819336 22.449127197265625 20.087379455566406 24.448055267333984 19.66550064086914 26.929458618164062 C19.2144775390625 29.580381393432617 17.188701629638672 31.5908145904541 14.226358413696289 32.1423225402832 C11.473421096801758 32.653175354003906 8.929120063781738 32.04644012451172 6.338796138763428 30.289899826049805 C7.047548770904541 28.785715103149414 7.736359119415283 27.324485778808594 8.352299690246582 26.01743507385254 C9.942392349243164 26.43777847290039 11.333050727844238 26.805194854736328 12.722944259643555 27.171844482421875 C12.86101245880127 26.825904846191406 12.998313903808594 26.47996711730957 13.136382102966309 26.13479232788086 C12.0364351272583 25.45212173461914 10.939554214477539 24.764846801757812 9.836538314819336 24.08831024169922 C5.795724868774414 21.612274169921875 5.823339462280273 16.483020782470703 9.980743408203125 14.236333847045898"></path></svg>