<svg xmlns="http://www.w3.org/2000/svg" viewBox="0.0 0.0 24.0 24.0" height="200px" width="200px"><path fill="none" stroke="black" stroke-width=".3" stroke-opacity="1.0"  filling="0" d="M3.0092973709106445 8.85441780090332 C5.005843162536621 8.85441780090332 6.8751912117004395 8.85441780090332 9.213579177856445 8.85441780090332 C9.213579177856445 10.274032592773438 9.213579177856445 11.73793888092041 9.213579177856445 13.202412605285645 C9.213579177856445 14.336968421936035 9.24254035949707 15.472091674804688 9.2073335647583 16.604944229125977 C9.160202026367188 18.100082397460938 9.234590530395508 19.51004409790039 11.072138786315918 19.9166202545166 C12.687091827392578 20.27379608154297 14.627420425415039 19.203405380249023 14.971535682678223 17.43115997314453 C15.307701110839844 15.698094367980957 15.274765014648438 13.87360668182373 15.206624031066895 12.096817016601562 C15.190156936645508 11.66695785522461 14.350879669189453 11.304672241210938 13.975534439086914 10.842445373535156 C13.576906204223633 10.351259231567383 13.279923439025879 9.777734756469727 12.70185661315918 8.867478370666504 C15.2117338180542 8.867478370666504 17.14468002319336 8.867478370666504 19.3564395904541 8.867478370666504 C19.3564395904541 12.346101760864258 19.3564395904541 15.707748413085938 19.3564395904541 18.784902572631836 C20.327457427978516 20.02167510986328 22.99008560180664 18.91834831237793 21.988407135009766 21.893291473388672 C19.48193359375 21.148279190063477 16.664852142333984 22.989234924316406 14.775629043579102 20.783153533935547 C12.954546928405762 21.307275772094727 11.21296501159668 22.157909393310547 9.436742782592773 22.23910903930664 C6.627610206604004 22.36687660217285 5.341439723968506 20.884798049926758 5.216513633728027 18.06998634338379 C5.162001132965088 16.84343910217285 5.208563804626465 15.612350463867188 5.183578968048096 14.384099960327148 C5.150643825531006 12.7452974319458 5.649779796600342 10.85550594329834 3.2307567596435547 10.309806823730469 C3.075167655944824 10.2746000289917 3.0939064025878906 9.46428394317627 3.0092973709106445 8.85441780090332"></path></svg>