<svg xmlns="http://www.w3.org/2000/svg" viewBox="0.0 0.0 24.0 24.0" height="200px" width="200px"><path fill="none" stroke="black" stroke-width=".3" stroke-opacity="1.0"  filling="0" d="M9.981182098388672 9.750516891479492 L9.981182098388672 9.750516891479492 C11.31633186340332 9.750516891479492 12.651482582092285 9.750516891479492 13.98663330078125 9.750516891479492 L13.98663330078125 9.750516891479492 C13.98663330078125 11.550517082214355 13.98663330078125 13.350516319274902 13.98663330078125 15.15051555633545 C13.98663330078125 16.950515747070312 13.98663330078125 18.75051498413086 13.98663330078125 20.55051612854004 L13.98663330078125 20.55051612854004 C13.022177696228027 20.55051612854004 12.057722091674805 20.55051612854004 11.093266487121582 20.55051612854004 L11.093266487121582 20.55051612854004 C11.093266487121582 19.21346664428711 11.093266487121582 17.876415252685547 11.093266487121582 16.539365768432617 C11.093266487121582 15.202316284179688 11.093266487121582 13.865265846252441 11.093266487121582 12.528215408325195 L11.093266487121582 12.528215408325195 C10.72257137298584 12.371756553649902 10.351877212524414 12.215298652648926 9.981182098388672 12.058839797973633 L9.981182098388672 12.058839797973633 C9.981182098388672 11.87237548828125 9.981182098388672 9.893775939941406 9.981182098388672 9.750516891479492 L9.981182098388672 9.750516891479492"></path></svg>