<svg xmlns="http://www.w3.org/2000/svg" viewBox="0.0 0.0 24.0 24.0" height="200px" width="200px"><path fill="none" stroke="black" stroke-width=".3" stroke-opacity="1.0"  filling="0" d="M14.571821212768555 7.63115119934082 L14.571821212768555 7.63115119934082 C15.862059593200684 8.327239036560059 17.493022918701172 9.504982948303223 16.211864471435547 11.227226257324219 C15.848649978637695 11.715490341186523 15.114943504333496 11.826638221740723 14.737680435180664 12.304131507873535 L14.737680435180664 12.304131507873535 C16.532814025878906 13.353667259216309 17.925640106201172 15.18252182006836 15.929306030273438 16.984176635742188 C15.04155158996582 17.785358428955078 13.544323921203613 18.150354385375977 12.040704727172852 18.139202117919922 C10.537086486816406 18.128047943115234 9.027076721191406 17.740745544433594 8.11375617980957 17.037330627441406 C7.784104824066162 16.7834415435791 7.478315353393555 16.456356048583984 7.325716972351074 16.069259643554688 C7.175111770629883 15.687219619750977 7.160590648651123 15.241147994995117 7.24745512008667 14.839786529541016 C7.704599380493164 12.727531433105469 11.273721694946289 13.778641700744629 10.315885543823242 15.467937469482422 C10.110485076904297 15.830193519592285 9.633469581604004 15.945412635803223 9.292262077331543 16.18415069580078 L9.292262077331543 16.18415069580078 C10.936880111694336 16.69903564453125 11.095675468444824 17.027252197265625 12.794473648071289 16.496692657470703 C13.934552192687988 16.140628814697266 14.619678497314453 14.815314292907715 13.74631118774414 13.791182518005371 C13.193862915039062 13.1433687210083 11.762625694274902 13.02032470703125 11.122428894042969 12.883459091186523 L11.122428894042969 12.883459091186523 C11.122428894042969 12.530771255493164 11.122428894042969 12.178082466125488 11.122428894042969 11.825394630432129 L11.122428894042969 11.825394630432129 C12.716736793518066 11.43970775604248 15.488009452819824 10.390316009521484 12.50413703918457 8.678450584411621 C12.142439842224121 8.470942497253418 10.275650978088379 8.604673385620117 9.922390937805176 8.619239807128906 L9.922390937805176 8.619239807128906 C9.931960105895996 9.530535697937012 11.204397201538086 9.833379745483398 10.434770584106445 10.832260131835938 C9.71971607208252 11.7603120803833 7.911250114440918 11.518736839294434 7.594564914703369 10.332286834716797 C7.391611576080322 9.571928024291992 8.076085090637207 8.86014175415039 8.550481796264648 8.444212913513184 C10.275358200073242 6.931922435760498 12.523795127868652 7.198748588562012 14.571821212768555 7.63115119934082 L14.571821212768555 7.63115119934082"></path></svg>