<svg xmlns="http://www.w3.org/2000/svg" viewBox="0.0 0.0 24.0 24.0" height="200px" width="200px"><path fill="none" stroke="black" stroke-width=".3" stroke-opacity="1.0"  filling="0" d="M12.005559921264648 5.836703777313232 C12.159126281738281 6.219030380249023 12.408538818359375 6.840178966522217 12.716730117797852 7.607479572296143 C13.07310962677002 7.66308069229126 13.695846557617188 7.695383548736572 14.279928207397461 7.863246440887451 C16.226511001586914 8.422438621520996 16.96468734741211 9.625020980834961 16.657554626464844 11.63197135925293 C16.063411712646484 15.509249687194824 13.098527908325195 18.198774337768555 8.445474624633789 19.03809356689453 C6.4443488121032715 23.584178924560547 6.4443488121032715 23.584178924560547 8.241601943969727 25.036705017089844 C6.419460773468018 25.036705017089844 4.773126125335693 25.036705017089844 3.2374649047851562 25.036705017089844 C3.8697338104248047 24.28740692138672 4.772067070007324 23.631839752197266 5.100910186767578 22.75916290283203 C6.767897129058838 18.33169174194336 8.286612510681152 13.84861946105957 9.972661972045898 9.054709434509277 C9.0004301071167 9.290882110595703 8.307794570922852 9.458745956420898 7.46476936340332 9.66314697265625 C8.96918773651123 8.394903182983398 10.335395812988281 7.244216442108154 12.005559921264648 5.836703777313232"></path>
<path fill="none" stroke="black" stroke-width=".3" stroke-opacity="1.0"  filling="0" d="M11.874765396118164 8.76611042022705 C13.711732864379883 8.389608383178711 14.708324432373047 9.129373550415039 14.684494972229004 10.705808639526367 C14.645838737487793 13.22852897644043 13.78004264831543 15.5330810546875 11.747674942016602 17.159292221069336 C11.200132369995117 17.597219467163086 10.285619735717773 17.575510025024414 9.53950023651123 17.765085220336914 C9.380109786987305 17.531028747558594 9.220189094543457 17.296972274780273 9.060797691345215 17.062915802001953 C10.000727653503418 14.290782928466797 10.941187858581543 11.518649101257324 11.874765396118164 8.76611042022705"></path></svg>