<svg xmlns="http://www.w3.org/2000/svg" viewBox="0.0 0.0 24.0 24.0" height="200px" width="200px"><path fill="none" stroke="black" stroke-width=".3" stroke-opacity="1.0"  filling="0" d="M10.420631408691406 7.833028316497803 C14.130867004394531 6.720925331115723 17.806385040283203 8.769835472106934 18.20193862915039 12.627479553222656 C18.433578491210938 14.88355827331543 17.99932289123535 17.34054183959961 17.297571182250977 19.52547836303711 C16.499065399169922 22.01205825805664 15.069379806518555 24.296024322509766 13.882719993591309 26.731950759887695 C12.090493202209473 26.731950759887695 10.437135696411133 26.731950759887695 8.369443893432617 26.731950759887695 C9.539030075073242 24.622713088989258 10.57373046875 22.75763702392578 11.625505447387695 20.86182403564453 C7.590857982635498 20.157794952392578 5.908474922180176 18.390039443969727 5.7519612312316895 14.797616958618164 C5.605122089385986 11.423744201660156 7.406456470489502 8.736825942993164 10.420631408691406 7.833028316497803"></path>
<path fill="none" stroke="black" stroke-width=".3" stroke-opacity="1.0"  filling="0" d="M11.90324592590332 11.617820739746094 C13.614655494689941 13.0503511428833 14.055740356445312 14.712244987487793 13.119501113891602 16.044605255126953 C12.89469051361084 16.363893508911133 12.362543106079102 16.668954849243164 12.00341510772705 16.635944366455078 C11.634611129760742 16.601795196533203 11.178728103637695 16.215347290039062 10.98237419128418 15.860773086547852 C10.391605377197266 14.794200897216797 10.748456954956055 13.215970993041992 11.90324592590332 11.617820739746094"></path></svg>