<svg xmlns="http://www.w3.org/2000/svg" viewBox="0.0 0.0 24.0 24.0" height="200px" width="200px"><path fill="none" stroke="black" stroke-width=".3" stroke-opacity="1.0"  filling="0" d="M9.619105339050293 9.858170509338379 L9.619105339050293 9.858170509338379 C11.066797256469727 9.849075317382812 13.546348571777344 9.460598945617676 14.876617431640625 10.192105293273926 C16.352783203125 11.003838539123535 16.69037628173828 12.70755672454834 15.762410163879395 14.02227783203125 C15.435392379760742 14.485589027404785 14.963180541992188 14.827028274536133 14.563566207885742 15.229403495788574 L14.563566207885742 15.229403495788574 C14.97181224822998 15.605877876281738 15.56256103515625 15.851442337036133 15.788305282592773 16.35882568359375 C16.007076263427734 16.850534439086914 15.91623306274414 17.45157814025879 15.784404754638672 17.973363876342773 C15.372319221496582 19.60442352294922 14.13381576538086 20.249910354614258 12.67879867553711 20.498985290527344 C11.223780632019043 20.748062133789062 9.552248001098633 20.600725173950195 8.274103164672852 20.646141052246094 L8.274103164672852 20.646141052246094 C8.498298645019531 18.848148345947266 8.722482681274414 17.050155639648438 8.946651458740234 15.252161026000977 C9.170820236206055 13.454166412353516 9.394973754882812 11.656169891357422 9.619105339050293 9.858170509338379 L9.619105339050293 9.858170509338379"></path>
<path fill="none" stroke="black" stroke-width=".3" stroke-opacity="1.0"  filling="0" d="M12.309110641479492 11.862997055053711 L12.309110641479492 11.862997055053711 C12.650615692138672 12.229963302612305 13.40531063079834 12.46776008605957 13.333626747131348 12.963896751403809 C13.252979278564453 13.522077560424805 12.44432544708252 13.657742500305176 11.999674797058105 14.00466537475586 L11.999674797058105 14.00466537475586 C12.102599143981934 13.290743827819824 12.205781936645508 12.576860427856445 12.309110641479492 11.862997055053711 L12.309110641479492 11.862997055053711"></path>
<path fill="none" stroke="black" stroke-width=".3" stroke-opacity="1.0"  filling="0" d="M11.672688484191895 16.495746612548828 L11.672688484191895 16.495746612548828 C13.33598804473877 17.2352352142334 13.161598205566406 17.750638961791992 11.52154541015625 18.18951416015625 L11.52154541015625 18.18951416015625 C11.57192611694336 17.62492561340332 11.622307777404785 17.060335159301758 11.672688484191895 16.495746612548828 L11.672688484191895 16.495746612548828"></path></svg>