<svg xmlns="http://www.w3.org/2000/svg" viewBox="0.0 0.0 24.0 24.0" height="200px" width="200px"><path fill="none" stroke="black" stroke-width=".3" stroke-opacity="1.0"  filling="0" d="M21.14004135131836 3.710759162902832 C20.684852600097656 5.826562881469727 20.388858795166016 7.35467004776001 20.020893096923828 8.865617752075195 C19.733478546142578 10.0457763671875 19.69344139099121 10.03624439239502 18.003276824951172 10.086767196655273 C17.913190841674805 9.963318824768066 17.7625732421875 9.849401473999023 17.741601943969727 9.71498966217041 C17.200138092041016 6.2579216957092285 14.666322708129883 4.9037885665893555 11.356535911560059 6.312258720397949 C8.234546661376953 7.640653133392334 6.107303619384766 12.656332015991211 7.32368803024292 15.823602676391602 C7.911861419677734 17.355045318603516 9.503837585449219 18.30117416381836 11.332704544067383 18.20632553100586 C13.55575180053711 18.09097671508789 14.62485408782959 17.277355194091797 15.060979843139648 15.31169319152832 C15.17823314666748 14.784051895141602 15.184430122375488 14.231626510620117 15.25878620147705 13.525247573852539 C14.353170394897461 13.357470512390137 13.534303665161133 13.206375122070312 12.5624361038208 13.026681900024414 C12.703044891357422 12.480453491210938 12.832213401794434 11.979982376098633 12.979971885681152 11.404677391052246 C15.934184074401855 11.404677391052246 18.844547271728516 11.404677391052246 21.794946670532227 11.404677391052246 C21.920303344726562 12.479023933410645 21.755382537841797 13.0819730758667 20.56283187866211 13.314573287963867 C19.985143661499023 13.427536010742188 19.300691604614258 14.200645446777344 19.103361129760742 14.815987586975098 C18.59859848022461 16.386991500854492 18.340259552001953 18.037118911743164 17.99755859375 19.589534759521484 C16.71444320678711 20.719646453857422 16.027605056762695 19.376951217651367 15.18156909942627 19.357410430908203 C13.337926864624023 19.689151763916016 11.492855072021484 20.308780670166016 9.65112018585205 20.29924964904785 C4.188353061676025 20.270652770996094 1.425271987915039 16.050006866455078 3.1321182250976562 10.841288566589355 C4.915228366851807 5.399971008300781 12.668248176574707 1.5758905410766602 18.03377914428711 4.919517517089844 C18.956079483032227 4.56060791015625 19.805450439453125 4.230297088623047 21.14004135131836 3.710759162902832"></path></svg>