<svg xmlns="http://www.w3.org/2000/svg" viewBox="0.0 0.0 24.0 24.0" height="200px" width="200px"><path fill="none" stroke="black" stroke-width=".3" stroke-opacity="1.0"  filling="0" d="M10.450592041015625 3.510972023010254 C14.012782096862793 3.510972023010254 17.469318389892578 3.510972023010254 21.073341369628906 3.510972023010254 C20.900650024414062 4.218904972076416 20.760135650634766 4.795440673828125 20.62659454345703 5.343553066253662 C17.52134132385254 5.861094951629639 17.53474998474121 5.864312171936035 16.901363372802734 8.903596878051758 C16.375240325927734 11.427485466003418 15.905430793762207 13.968536376953125 15.2446928024292 16.458101272583008 C14.006346702575684 21.123485565185547 7.516424655914307 23.330413818359375 3.48549747467041 20.52496337890625 C2.0905466079711914 19.554235458374023 1.542435646057129 18.021991729736328 2.072848320007324 16.578235626220703 C2.6375856399536133 15.04277229309082 4.248133659362793 13.860738754272461 5.779306888580322 14.061856269836426 C6.410010814666748 14.144447326660156 7.337831974029541 14.535419464111328 7.497653007507324 15.002548217773438 C7.710032939910889 15.6235990524292 7.492826461791992 16.579309463500977 7.111507892608643 17.163888931274414 C6.711418628692627 17.775285720825195 5.8983683586120605 18.11691665649414 5.074591636657715 18.716514587402344 C8.535419464111328 19.83901596069336 10.256982803344727 19.003978729248047 10.974570274353027 15.96898365020752 C11.744715690612793 12.710882186889648 12.395263671875 9.424893379211426 13.13376522064209 5.984982967376709 C11.901318550109863 5.729161739349365 10.985832214355469 5.538771152496338 9.928223609924316 5.319418907165527 C10.115933418273926 4.6683349609375 10.278435707092285 4.106815338134766 10.450592041015625 3.510972023010254"></path></svg>