<svg xmlns="http://www.w3.org/2000/svg" viewBox="0.0 0.0 24.0 24.0" height="200px" width="200px"><path fill="none" stroke="black" stroke-width=".3" stroke-opacity="1.0"  filling="0" d="M8.155168533325195 9.094385147094727 L8.155168533325195 9.094385147094727 C9.117799758911133 9.099231719970703 10.08045482635498 9.100412368774414 11.043095588684082 9.098336219787598 L11.043095588684082 9.098336219787598 C11.124462127685547 9.636305809020996 11.515677452087402 12.223333358764648 11.598553657531738 12.771469116210938 L11.598553657531738 12.771469116210938 C11.65788745880127 12.785079956054688 11.717222213745117 12.798689842224121 11.776556015014648 12.812300682067871 L11.776556015014648 12.812300682067871 C12.50502872467041 11.585206031799316 13.233538627624512 10.358135223388672 13.96207046508789 9.13107681274414 L13.96207046508789 9.13107681274414 C15.049089431762695 9.13107681274414 16.1361083984375 9.13107681274414 17.223127365112305 9.13107681274414 L17.223127365112305 9.13107681274414 C17.186874389648438 9.343199729919434 17.15062141418457 9.55532169342041 17.114368438720703 9.767444610595703 L17.114368438720703 9.767444610595703 C15.25594711303711 10.341413497924805 15.414026260375977 12.664892196655273 15.036483764648438 14.400585174560547 L15.036483764648438 14.400585174560547 C15.355921745300293 14.474783897399902 15.675359725952148 14.548983573913574 15.994797706604004 14.62318229675293 L15.994797706604004 14.62318229675293 C15.984637260437012 14.833988189697266 15.974475860595703 15.044793128967285 15.964315414428711 15.255599021911621 L15.964315414428711 15.255599021911621 C14.78917407989502 15.255599021911621 13.614031791687012 15.255599021911621 12.43889045715332 15.255599021911621 L12.43889045715332 15.255599021911621 C12.450430870056152 15.04178237915039 12.4619722366333 14.827966690063477 12.473512649536133 14.614150047302246 L12.473512649536133 14.614150047302246 C14.222044944763184 14.004084587097168 14.034396171569824 12.428714752197266 14.187491416931152 10.731592178344727 L14.187491416931152 10.731592178344727 C13.279014587402344 12.246603012084961 12.370555877685547 13.761629104614258 11.462135314941406 15.276673316955566 L11.462135314941406 15.276673316955566 C11.083990097045898 15.276673316955566 10.705845832824707 15.276673316955566 10.3277006149292 15.276673316955566 L10.3277006149292 15.276673316955566 C10.079429626464844 13.737627983093262 9.831154823303223 12.198583602905273 9.582950592041016 10.659525871276855 L9.582950592041016 10.659525871276855 C9.536286354064941 10.645037651062012 9.48962116241455 10.630548477172852 9.442956924438477 10.616060256958008 L9.442956924438477 10.616060256958008 C9.173196792602539 11.872739791870117 8.903432846069336 13.12941837310791 8.6336669921875 14.386096954345703 L8.6336669921875 14.386096954345703 C8.943195343017578 14.472024917602539 9.252723693847656 14.557952880859375 9.562252044677734 14.643880844116211 L9.562252044677734 14.643880844116211 C9.50649356842041 14.853117942810059 9.45073413848877 15.062355995178223 9.394975662231445 15.27159309387207 L9.394975662231445 15.27159309387207 C9.300786972045898 15.27159309387207 6.495279312133789 15.27159309387207 6.4235029220581055 15.27159309387207 L6.4235029220581055 15.27159309387207 C6.436862468719482 15.041594505310059 6.450222015380859 14.811596870422363 6.463581562042236 14.581598281860352 L6.463581562042236 14.581598281860352 C8.377436637878418 14.048903465270996 8.146657943725586 11.760164260864258 8.527167320251465 10.002836227416992 L8.527167320251465 10.002836227416992 C8.213436126708984 9.931020736694336 7.89970588684082 9.85920524597168 7.585975170135498 9.787389755249023 L7.585975170135498 9.787389755249023 C7.7757062911987305 9.556387901306152 7.965437412261963 9.325387001037598 8.155168533325195 9.094385147094727 L8.155168533325195 9.094385147094727"></path></svg>