<svg xmlns="http://www.w3.org/2000/svg" viewBox="0.0 0.0 24.0 24.0" height="200px" width="200px"><path fill="none" stroke="black" stroke-width=".3" stroke-opacity="1.0"  filling="0" d="M4.769252777099609 4.795856952667236 C7.399888038635254 4.82712984085083 10.031457901000977 4.80565881729126 12.876802444458008 4.80565881729126 C12.785317420959473 5.449781894683838 12.715303421020508 5.942675590515137 12.632688522338867 6.52658748626709 C11.799995422363281 6.6600799560546875 10.988306999206543 6.789837837219238 9.79294490814209 6.981207370758057 C10.2517671585083 9.950242042541504 10.690983772277832 12.792784690856934 11.13020133972168 15.635793685913086 C11.286097526550293 15.66473388671875 11.441993713378906 15.693204879760742 11.598357200622559 15.722143173217773 C13.288012504577637 12.93140983581543 14.977669715881348 10.14021110534668 16.802684783935547 7.1254353523254395 C15.78142261505127 6.837913513183594 15.152702331542969 6.66054630279541 14.386289596557617 6.444438934326172 C14.478707313537598 5.933341026306152 14.569257736206055 5.430178165435791 14.670077323913574 4.871004581451416 C17.205028533935547 4.871004581451416 19.676965713500977 4.871004581451416 22.633399963378906 4.871004581451416 C22.104564666748047 5.644419193267822 21.809106826782227 6.554126262664795 21.371292114257812 6.628340244293213 C19.927146911621094 6.873854160308838 19.305896759033203 7.871310710906982 18.651037216186523 8.94018268585205 C16.38540267944336 12.637354850769043 14.108102798461914 16.32706069946289 11.76965618133545 20.125986099243164 C10.341850280761719 20.125986099243164 9.113348007202148 20.125986099243164 7.686476230621338 20.125986099243164 C7.033484935760498 16.449817657470703 6.397296905517578 12.81098747253418 5.7382378578186035 9.176826477050781 C5.3802361488342285 7.201516628265381 5.362499237060547 7.204783916473389 3.451601028442383 6.40103006362915 C3.36245059967041 5.443247318267822 3.566422462463379 4.7813873291015625 4.769252777099609 4.795856952667236"></path></svg>