<svg xmlns="http://www.w3.org/2000/svg" viewBox="0.0 0.0 24.0 24.0" height="200px" width="200px"><path fill="none" stroke="black" stroke-width=".3" stroke-opacity="1.0"  filling="0" d="M13.05873966217041 6.061550140380859 C12.7905912399292 8.561125755310059 12.544397354125977 10.851096153259277 12.263181686401367 13.47298526763916 C12.730480194091797 13.24613094329834 12.974061012268066 13.131135940551758 13.215027809143066 13.010391235351562 C15.835870742797852 11.701014518737793 17.69931411743164 12.576545715332031 18.0573673248291 15.451423645019531 C18.39398765563965 18.149627685546875 18.303037643432617 20.841033935546875 16.7767391204834 23.26377296447754 C15.426069259643555 25.407909393310547 14.163213729858398 25.741395950317383 11.807905197143555 24.634830474853516 C11.530348777770996 24.504154205322266 11.140933990478516 24.580989837646484 10.806925773620605 24.606605529785156 C9.463050842285156 24.70957374572754 8.120222091674805 24.829795837402344 6.346161365509033 24.979812622070312 C7.16105842590332 18.44913673400879 7.913230895996094 12.423914909362793 8.684743881225586 6.240838050842285 C9.429075241088867 6.176545143127441 10.09447956085205 6.096048831939697 10.762495994567871 6.0678229331970215 C11.443580627441406 6.039074420928955 12.12623405456543 6.061550140380859 13.05873966217041 6.061550140380859"></path>
<path fill="none" stroke="black" stroke-width=".3" stroke-opacity="1.0"  filling="0" d="M12.465991020202637 16.0870304107666 C11.47337532043457 17.823457717895508 10.825220108032227 19.461091995239258 12.063508987426758 21.621431350708008 C13.944724082946777 19.245737075805664 14.019471168518066 17.780595779418945 12.465991020202637 16.0870304107666"></path></svg>