<svg xmlns="http://www.w3.org/2000/svg" viewBox="0.0 0.0 24.0 24.0" height="200px" width="200px"><path fill="none" stroke="black" stroke-width=".3" stroke-opacity="1.0"  filling="0" d="M11.884543418884277 2.919774055480957 C12.460508346557617 3.0549850463867188 12.930234909057617 3.6419248580932617 13.256410598754883 3.884251594543457 C13.23314380645752 5.231095790863037 12.152331352233887 6.306201457977295 11.213754653930664 6.233327388763428 C10.387561798095703 6.16967248916626 9.840570449829102 5.713993072509766 9.843204498291016 4.825901508331299 C9.846277236938477 3.919370651245117 11.027181625366211 2.71871280670166 11.884543418884277 2.919774055480957"></path>
<path fill="none" stroke="black" stroke-width=".3" stroke-opacity="1.0"  filling="0" d="M12.809511184692383 7.237314701080322 C11.925809860229492 11.256776809692383 10.998208045959473 15.062448501586914 10.2738618850708 18.906309127807617 C9.724675178527832 21.822132110595703 5.5546369552612305 22.67905616760254 3.684067726135254 21.724674224853516 C2.707737922668457 21.22641372680664 2.355661392211914 20.3062744140625 2.8275833129882812 19.38569450378418 C3.2801904678344727 18.50199317932129 4.681031703948975 17.97607421875 5.462447166442871 18.442289352416992 C6.660032749176025 19.156538009643555 5.794768810272217 19.916006088256836 5.457179069519043 20.65703582763672 C5.616535663604736 20.752735137939453 5.775452613830566 20.848434448242188 5.93480920791626 20.944137573242188 C6.3119072914123535 20.401973724365234 6.891384601593018 19.907663345336914 7.032742023468018 19.309749603271484 C7.800987720489502 16.052825927734375 8.461679458618164 12.770002365112305 9.168904304504395 9.451180458068848 C8.827802658081055 9.220267295837402 8.581525802612305 9.09339714050293 8.386171340942383 8.911212921142578 C8.112675666809082 8.656155586242676 7.877373218536377 8.360271453857422 7.625827312469482 8.081507682800293 C7.974830627441406 7.800110340118408 8.30759048461914 7.3044819831848145 8.676349639892578 7.275946617126465 C9.97578239440918 7.176294326782227 11.287067413330078 7.237314701080322 12.809511184692383 7.237314701080322"></path></svg>