<svg xmlns="http://www.w3.org/2000/svg" viewBox="0.0 0.0 24.0 24.0" height="200px" width="200px"><path fill="none" stroke="black" stroke-width=".3" stroke-opacity="1.0"  filling="0" d="M11.93505573272705 6.892373085021973 L11.93505573272705 6.892373085021973 C12.192280769348145 7.073212623596191 12.449505805969238 7.25405216217041 12.706730842590332 7.434891700744629 L12.706730842590332 7.434891700744629 C12.32373332977295 7.875343322753906 12.120399475097656 8.601016998291016 11.557737350463867 8.756246566772461 C11.202658653259277 8.854207038879395 10.71371841430664 8.325590133666992 10.786802291870117 7.964570045471191 C10.890706062316895 7.4513092041015625 11.5523042678833 7.249772071838379 11.93505573272705 6.892373085021973 L11.93505573272705 6.892373085021973"></path>
<path fill="none" stroke="black" stroke-width=".3" stroke-opacity="1.0"  filling="0" d="M12.455349922180176 9.320989608764648 L12.455349922180176 9.320989608764648 C12.086365699768066 10.968308448791504 11.699931144714355 12.612627029418945 11.35389518737793 14.264983177185059 C11.127998352050781 15.343666076660156 11.156670570373535 16.392656326293945 10.164560317993164 17.14406394958496 C9.695348739624023 17.49943733215332 5.708621978759766 18.243606567382812 6.840515613555908 16.15445327758789 C7.090490818023682 15.693069458007812 7.850194931030273 15.395380020141602 8.322627067565918 15.623787879943848 C8.696490287780762 15.804540634155273 8.32065200805664 16.454317092895508 8.319664001464844 16.86958122253418 L8.319664001464844 16.86958122253418 C8.409219741821289 16.92341423034668 8.498774528503418 16.977245330810547 8.588330268859863 17.031078338623047 L8.588330268859863 17.031078338623047 C9.815454483032227 15.204373359680176 9.957352638244629 12.700944900512695 10.407508850097656 10.566288948059082 L10.407508850097656 10.566288948059082 C10.089066505432129 10.346611976623535 9.80090045928955 10.081063270568848 9.539527893066406 9.79584789276123 L9.539527893066406 9.79584789276123 C10.447911262512207 9.099282264709473 11.33518123626709 9.31158447265625 12.455349922180176 9.320989608764648 L12.455349922180176 9.320989608764648"></path></svg>