<svg xmlns="http://www.w3.org/2000/svg" viewBox="0.0 0.0 24.0 24.0" height="200px" width="200px"><path fill="none" stroke="black" stroke-width=".3" stroke-opacity="1.0"  filling="0" d="M17.136825561523438 8.16362476348877 C18.14832305908203 8.12942886352539 19.688480377197266 8.963111877441406 20.09198760986328 9.827569961547852 C20.50369644165039 10.708441734313965 20.190467834472656 12.459242820739746 19.50861167907715 13.182133674621582 C18.709810256958008 14.02949333190918 17.13408851623535 14.624492645263672 15.960504531860352 14.528745651245117 C14.111905097961426 14.378286361694336 14.197393417358398 12.604915618896484 16.128061294555664 10.431459426879883 C12.004788398742676 10.490275382995605 9.819021224975586 14.320837020874023 9.95033073425293 21.494335174560547 C10.840093612670898 21.698143005371094 11.785253524780273 21.914939880371094 12.895235061645508 22.16935157775879 C12.762556076049805 22.949691772460938 12.654499053955078 23.585723876953125 12.52934455871582 24.319557189941406 C8.69946575164795 24.318872451782227 4.979696750640869 24.318872451782227 1.168283462524414 24.318872451782227 C0.5664453506469727 21.29326820373535 3.0975847244262695 22.129688262939453 4.501645565032959 21.14691162109375 C5.157512664794922 18.2792911529541 5.859884738922119 15.208549499511719 6.594400405883789 11.99760627746582 C5.6047868728637695 11.583158493041992 4.805983543395996 11.248727798461914 3.812267303466797 10.832913398742676 C3.986663818359375 10.220132827758789 4.058474063873291 9.155289649963379 4.341611385345459 9.095788955688477 C7.032100677490234 8.53019905090332 9.742424011230469 8.361957550048828 12.813848495483398 9.325582504272461 C13.916306495666504 9.000042915344238 15.514596939086914 8.218337059020996 17.136825561523438 8.16362476348877"></path></svg>