<svg xmlns="http://www.w3.org/2000/svg" viewBox="0.0 0.0 24.0 24.0" height="200px" width="200px"><path fill="none" stroke="black" stroke-width=".3" stroke-opacity="1.0"  filling="0" d="M16.599857330322266 13.234478950500488 L16.599857330322266 13.234478950500488 C16.454483032226562 13.50595474243164 15.526176452636719 15.23921012878418 15.38901424407959 15.49526596069336 L15.38901424407959 15.49526596069336 C14.714491844177246 15.335963249206543 14.039970397949219 15.176657676696777 13.365449905395508 15.017348289489746 L13.365449905395508 15.017348289489746 C13.27596664428711 15.181714057922363 13.186484336853027 15.346078872680664 13.097001075744629 15.510444641113281 L13.097001075744629 15.510444641113281 C13.637846946716309 15.973825454711914 15.35645866394043 17.396242141723633 15.66546630859375 17.906448364257812 C17.091106414794922 20.260345458984375 14.873626708984375 22.528472900390625 12.650395393371582 22.99453353881836 C11.016463279724121 23.33705711364746 9.756753921508789 22.685094833374023 8.358583450317383 21.96190643310547 L8.358583450317383 21.96190643310547 C8.826384544372559 21.1710147857666 9.294183731079102 20.380123138427734 9.761980056762695 19.589229583740234 L9.761980056762695 19.589229583740234 C10.574838638305664 19.79641342163086 11.387704849243164 20.003570556640625 12.200578689575195 20.210697174072266 L12.200578689575195 20.210697174072266 C12.296133041381836 20.00426483154297 12.391688346862793 19.79783058166504 12.487242698669434 19.591398239135742 L12.487242698669434 19.591398239135742 C11.73059368133545 19.08442497253418 10.457366943359375 18.346647262573242 9.91643238067627 17.54819107055664 C9.110978126525879 16.35928726196289 9.360435485839844 15.079556465148926 10.110906600952148 14.080471992492676 C10.861376762390137 13.081388473510742 12.112859725952148 12.36295223236084 13.311456680297852 12.296639442443848 C14.731842994689941 12.218056678771973 15.31850814819336 12.67201042175293 16.599857330322266 13.234478950500488 L16.599857330322266 13.234478950500488"></path></svg>