<svg xmlns="http://www.w3.org/2000/svg" viewBox="0.0 0.0 24.0 24.0" height="200px" width="200px"><path fill="none" stroke="black" stroke-width=".3" stroke-opacity="1.0"  filling="0" d="M11.039247512817383 9.821440696716309 C12.630023002624512 9.821440696716309 14.317071914672852 9.821440696716309 16.281147003173828 9.821440696716309 C16.200593948364258 11.096551895141602 16.121349334716797 12.346118927001953 16.03359031677246 13.719465255737305 C16.512331008911133 14.001077651977539 17.04280662536621 14.313468933105469 17.68985939025879 14.69462776184082 C17.19081687927246 16.29522705078125 18.001596450805664 18.418445587158203 15.522761344909668 19.184688568115234 C15.21888256072998 19.27899742126465 15.182208061218262 20.358287811279297 15.08790111541748 20.99093246459961 C14.687750816345215 23.668861389160156 14.311833381652832 26.350717544555664 13.928709983825684 29.021442413330078 C12.024231910705566 29.021442413330078 10.34111213684082 29.021442413330078 8.51391315460205 29.021442413330078 C8.788320541381836 26.509204864501953 9.105297088623047 24.245182037353516 9.25723648071289 21.97002410888672 C9.340410232543945 20.729623794555664 10.233052253723145 19.388368606567383 8.483787536621094 18.246204376220703 C7.992605209350586 17.9252986907959 8.289934158325195 14.948078155517578 8.845297813415527 14.724098205566406 C11.274359703063965 13.743043899536133 10.085698127746582 11.483602523803711 11.039247512817383 9.821440696716309"></path></svg>