<svg xmlns="http://www.w3.org/2000/svg" viewBox="0.0 0.0 24.0 24.0" height="200px" width="200px"><path fill="none" stroke="black" stroke-width=".3" stroke-opacity="1.0"  filling="0" d="M11.459576606750488 10.774560928344727 L11.459576606750488 10.774560928344727 C12.44243335723877 10.774560928344727 13.425289154052734 10.774560928344727 14.408145904541016 10.774560928344727 L14.408145904541016 10.774560928344727 C14.361865997314453 11.505449295043945 14.315443992614746 12.236328125 14.26889419555664 12.967199325561523 L14.26889419555664 12.967199325561523 C14.579444885253906 13.150042533874512 14.889994621276855 13.332884788513184 15.200545310974121 13.515727996826172 L15.200545310974121 13.515727996826172 C15.076971054077148 14.442338943481445 14.46530818939209 15.241476058959961 13.981553077697754 16.0413875579834 C13.171178817749023 17.381380081176758 13.303403854370117 20.04464340209961 13.08489990234375 21.574562072753906 L13.08489990234375 21.574562072753906 C12.069624900817871 21.574562072753906 11.054350852966309 21.574562072753906 10.03907585144043 21.574562072753906 L10.03907585144043 21.574562072753906 C10.193169593811035 20.24073600769043 10.90066146850586 17.861541748046875 10.626193046569824 16.54009246826172 C10.479625701904297 15.834434509277344 9.829461097717285 15.219404220581055 9.90304946899414 14.502452850341797 C10.044261932373047 13.12664794921875 11.170075416564941 12.215921401977539 11.459576606750488 10.774560928344727 L11.459576606750488 10.774560928344727"></path></svg>