<svg xmlns="http://www.w3.org/2000/svg" viewBox="0.0 0.0 24.0 24.0" height="200px" width="200px"><path fill="none" stroke="black" stroke-width=".3" stroke-opacity="1.0"  filling="0" d="M14.035056114196777 13.37572193145752 L14.035056114196777 13.37572193145752 C15.327305793762207 13.37572193145752 16.619556427001953 13.37572193145752 17.911806106567383 13.37572193145752 L17.911806106567383 13.37572193145752 C17.17374038696289 15.175661087036133 16.4356632232666 16.97559356689453 15.697556495666504 18.775516510009766 C14.959450721740723 20.575439453125 14.221317291259766 22.375350952148438 13.48314380645752 24.175243377685547 L13.48314380645752 24.175243377685547 C12.051004409790039 24.175243377685547 10.618867874145508 24.175243377685547 9.186729431152344 24.175243377685547 L9.186729431152344 24.175243377685547 C8.915586471557617 22.387493133544922 8.644399642944336 20.599746704101562 8.373204231262207 18.81200408935547 C8.102009773254395 17.024259567260742 7.830808639526367 15.236516952514648 7.5596394538879395 13.448769569396973 L7.5596394538879395 13.448769569396973 C7.586500644683838 13.448769569396973 11.481565475463867 13.448769569396973 11.541903495788574 13.448769569396973 L11.541903495788574 13.448769569396973 C11.716833114624023 15.006644248962402 11.891845703125 16.56451416015625 12.067079544067383 18.12235450744629 L12.067079544067383 18.12235450744629 C12.154767990112305 18.13938331604004 12.24245548248291 18.15641212463379 12.330143928527832 18.17344093322754 L12.330143928527832 18.17344093322754 C12.898407936096191 16.574186325073242 13.466704368591309 14.974943161010742 14.035056114196777 13.37572193145752 L14.035056114196777 13.37572193145752"></path></svg>