<svg xmlns="http://www.w3.org/2000/svg" viewBox="0.0 0.0 24.0 24.0" height="200px" width="200px"><path fill="none" stroke="black" stroke-width=".3" stroke-opacity="1.0"  filling="0" d="M16.779216766357422 9.872987747192383 C18.786792755126953 9.872987747192383 20.364471435546875 9.872987747192383 22.123931884765625 9.872987747192383 C21.903949737548828 10.401538848876953 21.797313690185547 11.138320922851562 21.54080581665039 11.19499683380127 C19.817447662353516 11.57409381866455 19.458921432495117 13.119027137756348 18.706607818603516 14.3134126663208 C17.6679744720459 15.961621284484863 16.682239532470703 17.644676208496094 15.649065971374512 19.353757858276367 C14.541583061218262 19.353757858276367 13.442497253417969 19.353757858276367 12.229220390319824 19.353757858276367 C11.997480392456055 17.876834869384766 11.774557113647461 16.4553279876709 11.487401008605957 14.623659133911133 C10.373620986938477 16.338619232177734 9.442462921142578 17.771881103515625 8.439515113830566 19.315975189208984 C7.347985744476318 19.315975189208984 6.1926445960998535 19.315975189208984 4.869795322418213 19.315975189208984 C4.720759391784668 17.4599552154541 4.60824728012085 15.662710189819336 4.420168876647949 13.873441696166992 C4.322770595550537 12.946062088012695 4.4806227684021 11.904491424560547 3.328219413757324 11.344873428344727 C3.0607948303222656 11.21514892578125 3.080106735229492 10.494739532470703 2.923933982849121 9.875506401062012 C4.965513706207275 9.875506401062012 6.682153224945068 9.875506401062012 8.52431869506836 9.875506401062012 C8.093165397644043 10.975851058959961 7.505418300628662 11.945213317871094 7.3660383224487305 12.975449562072754 C7.213644504547119 14.10350227355957 7.475611209869385 15.287391662597656 7.898368835449219 16.58757209777832 C8.914751052856445 15.066987991333008 9.931551933288574 13.546403884887695 10.878663063049316 12.12951374053955 C10.46262264251709 11.368382453918457 10.144819259643555 10.78651237487793 9.670003890991211 9.91790771484375 C11.925271987915039 9.91790771484375 13.776673316955566 9.91790771484375 15.666277885437012 9.91790771484375 C16.27837371826172 11.20759105682373 15.008840560913086 11.272663116455078 14.247709274291992 11.833121299743652 C14.449222564697266 13.340271949768066 14.65493392944336 14.878488540649414 14.86064624786377 16.416706085205078 C14.989110946655273 16.430561065673828 15.117995262145996 16.444412231445312 15.2464599609375 16.457847595214844 C16.12346076965332 14.970429420471191 17.000041961669922 13.483430862426758 17.8170108795166 12.098028182983398 C17.476116180419922 11.366703033447266 17.184343338012695 10.741172790527344 16.779216766357422 9.872987747192383"></path></svg>