<svg xmlns="http://www.w3.org/2000/svg" viewBox="0.0 0.0 24.0 24.0" height="200px" width="200px"><path fill="none" stroke="black" stroke-width=".3" stroke-opacity="1.0"  filling="0" d="M13.584162712097168 8.263801574707031 L13.584162712097168 8.263801574707031 C13.743400573730469 8.263801574707031 15.59278392791748 8.263801574707031 15.704617500305176 8.263801574707031 L15.704617500305176 8.263801574707031 C15.344194412231445 10.063810348510742 14.983765602111816 11.863819122314453 14.62330436706543 13.66382122039795 C14.262842178344727 15.463823318481445 13.902347564697266 17.263818740844727 13.541791915893555 19.063800811767578 L13.541791915893555 19.063800811767578 C12.818445205688477 19.06398582458496 11.506936073303223 19.06416893005371 10.792851448059082 19.064193725585938 L10.792851448059082 19.064193725585938 C10.425210952758789 17.26773452758789 10.057632446289062 15.471260070800781 9.690054893493652 13.674787521362305 C9.322476387023926 11.878314018249512 8.954899787902832 10.081840515136719 8.587264060974121 8.285379409790039 L8.587264060974121 8.285379409790039 C8.594972610473633 8.285379409790039 10.756071090698242 8.285379409790039 10.756758689880371 8.285379409790039 L10.756758689880371 8.285379409790039 C10.989264488220215 9.670116424560547 11.221794128417969 11.054849624633789 11.454316139221191 12.439583778381348 C11.686838150024414 13.824317932128906 11.919351577758789 15.209053039550781 12.151825904846191 16.593795776367188 L12.151825904846191 16.593795776367188 C12.390631675720215 15.205477714538574 12.62939739227295 13.817152976989746 12.868121147155762 12.428820610046387 C13.106844902038574 11.040488243103027 13.345525741577148 9.652149200439453 13.584162712097168 8.263801574707031 L13.584162712097168 8.263801574707031"></path></svg>