<svg xmlns="http://www.w3.org/2000/svg" viewBox="0.0 0.0 24.0 24.0" height="200px" width="200px"><path fill="none" stroke="black" stroke-width=".3" stroke-opacity="1.0"  filling="0" d="M9.963693618774414 5.039193630218506 C11.100776672363281 5.039193630218506 12.242036819458008 5.039193630218506 13.608858108520508 5.039193630218506 C14.791888236999512 7.846165180206299 16.01436996459961 10.745495796203613 17.23592185974121 13.645289421081543 C17.6851863861084 14.711828231811523 18.146053314208984 15.773260116577148 18.575359344482422 16.847688674926758 C18.901168823242188 17.66313934326172 19.254825592041016 18.321720123291016 20.294443130493164 18.49483299255371 C20.707969665527344 18.56352424621582 21.01103973388672 19.297290802001953 21.669618606567383 20.101139068603516 C18.334484100341797 20.101139068603516 15.585990905761719 20.101139068603516 12.682019233703613 20.101139068603516 C12.682019233703613 19.637950897216797 12.682019233703613 19.16640853881836 12.682019233703613 18.628963470458984 C13.497005462646484 18.485088348388672 14.23541259765625 18.354671478271484 15.256467819213867 18.174129486083984 C14.878678321838379 17.15493392944336 14.618309020996094 16.452260971069336 14.332878112792969 15.682757377624512 C12.484768867492676 15.682757377624512 10.721129417419434 15.682757377624512 8.656743049621582 15.682757377624512 C8.388020515441895 16.372432708740234 8.070565223693848 17.18695640563965 7.694631576538086 18.150461196899414 C8.6474609375 18.33749771118164 9.375194549560547 18.479982376098633 10.221277236938477 18.646137237548828 C10.253765106201172 19.104217529296875 10.28439712524414 19.54141616821289 10.324774742126465 20.11320686340332 C7.735937595367432 20.11320686340332 5.219966888427734 20.11320686340332 2.5754356384277344 20.11320686340332 C2.4515161514282227 19.29868507385254 2.2129602432250977 18.492977142333984 3.4154844284057617 18.437747955322266 C4.7934441566467285 18.374629974365234 5.177731990814209 17.373065948486328 5.574550628662109 16.352476119995117 C7.029089450836182 12.61448860168457 8.476666450500488 8.873716354370117 9.963693618774414 5.039193630218506"></path>
<path fill="none" stroke="black" stroke-width=".3" stroke-opacity="1.0"  filling="0" d="M11.40477180480957 8.386394500732422 C12.18494987487793 10.343106269836426 12.802223205566406 11.890932083129883 13.491435050964355 13.618834495544434 C12.102801322937012 13.618834495544434 10.918378829956055 13.618834495544434 9.400720596313477 13.618834495544434 C10.080185890197754 11.844057083129883 10.671468734741211 10.299943923950195 11.40477180480957 8.386394500732422"></path></svg>