<svg xmlns="http://www.w3.org/2000/svg" viewBox="0.0 0.0 24.0 24.0" height="200px" width="200px"><path fill="none" stroke="black" stroke-width=".3" stroke-opacity="1.0"  filling="0" d="M17.180959701538086 6.8984246253967285 L17.180959701538086 6.8984246253967285 C17.180959701538086 8.304121971130371 17.180959701538086 9.709817886352539 17.180959701538086 11.115516662597656 L17.180959701538086 11.115516662597656 C16.797447204589844 11.148503303527832 16.413936614990234 11.181490898132324 16.030424118041992 11.2144775390625 L16.030424118041992 11.2144775390625 C15.767817497253418 10.48082160949707 15.58050537109375 9.814123153686523 15.035150527954102 9.19047737121582 C13.812263488769531 7.792032241821289 11.30711555480957 7.79720401763916 10.117132186889648 9.25211238861084 C9.192764282226562 10.382270812988281 9.077009201049805 12.392341613769531 9.35965347290039 13.754475593566895 C9.834070205688477 16.04080581665039 13.039422988891602 17.220870971679688 14.800861358642578 15.498207092285156 C15.43095874786377 14.881980895996094 15.599468231201172 14.272583961486816 15.887685775756836 13.519558906555176 L15.887685775756836 13.519558906555176 C16.266162872314453 13.519558906555176 16.644638061523438 13.519558906555176 17.023115158081055 13.519558906555176 L17.023115158081055 13.519558906555176 C17.550949096679688 14.669816970825195 16.358280181884766 16.222036361694336 15.479738235473633 16.84737205505371 C13.597224235534668 18.18732261657715 10.653130531311035 17.898632049560547 8.871631622314453 16.532163619995117 C7.256814956665039 15.293545722961426 6.632378578186035 13.418217658996582 6.870894908905029 11.648795127868652 C7.109411239624023 9.879372596740723 8.2108793258667 8.215855598449707 10.047872543334961 7.400859355926514 C11.945104598999023 6.559138298034668 13.524040222167969 7.006669044494629 15.338005065917969 7.706451416015625 L15.338005065917969 7.706451416015625 C15.952326774597168 7.437118053436279 16.5666446685791 7.167775630950928 17.180959701538086 6.8984246253967285 L17.180959701538086 6.8984246253967285"></path></svg>