<svg xmlns="http://www.w3.org/2000/svg" viewBox="0.0 0.0 24.0 24.0" height="200px" width="200px"><path fill="none" stroke="black" stroke-width=".3" stroke-opacity="1.0"  filling="0" d="M9.658853530883789 9.551738739013672 L9.658853530883789 9.551738739013672 C11.080840110778809 9.554296493530273 12.92741584777832 9.307147026062012 13.923299789428711 10.63737964630127 C14.654754638671875 11.614405632019043 15.09842300415039 13.61363410949707 15.040266036987305 15.532674789428711 C14.982109069824219 17.451717376708984 14.422126770019531 19.290571212768555 13.146278381347656 19.946849822998047 C12.093279838562012 20.48849868774414 10.78966236114502 20.342395782470703 9.658853530883789 20.323238372802734 L9.658853530883789 20.323238372802734 C9.658853530883789 18.52798843383789 9.658853530883789 16.732738494873047 9.658853530883789 14.937488555908203 C9.658853530883789 13.14223861694336 9.658853530883789 11.346988677978516 9.658853530883789 9.551738739013672 L9.658853530883789 9.551738739013672"></path>
<path fill="none" stroke="black" stroke-width=".3" stroke-opacity="1.0"  filling="0" d="M11.091647148132324 10.932120323181152 L11.091647148132324 10.932120323181152 C13.639904022216797 11.392768859863281 13.146100997924805 13.595873832702637 13.095990180969238 15.831470489501953 C13.08749771118164 16.210329055786133 13.18031120300293 18.186782836914062 12.545896530151367 18.635883331298828 C12.140351295471191 18.9229679107666 11.576396942138672 18.85407066345215 11.091647148132324 18.963165283203125 L11.091647148132324 18.963165283203125 C11.091647148132324 17.624656677246094 11.091647148132324 16.286149978637695 11.091647148132324 14.94764232635498 C11.091647148132324 13.609134674072266 11.091647148132324 12.270627975463867 11.091647148132324 10.932120323181152 L11.091647148132324 10.932120323181152"></path></svg>