<svg xmlns="http://www.w3.org/2000/svg" viewBox="0.0 0.0 24.0 24.0" height="200px" width="200px"><path fill="none" stroke="black" stroke-width=".3" stroke-opacity="1.0"  filling="0" d="M11.97016716003418 9.583569526672363 L11.97016716003418 9.583569526672363 C12.434656143188477 9.583569526672363 12.899144172668457 9.583569526672363 13.363633155822754 9.583569526672363 L13.363633155822754 9.583569526672363 C13.364389419555664 10.97244930267334 13.485382080078125 12.4791898727417 13.541399002075195 13.978957176208496 C13.597415924072266 15.478724479675293 13.588456153869629 16.971519470214844 13.329309463500977 18.33250617980957 C13.157294273376465 19.235897064208984 11.539044380187988 21.605627059936523 10.354883193969727 20.135086059570312 C10.099745750427246 19.81824493408203 10.2356595993042 19.330276489257812 10.176048278808594 18.927871704101562 L10.176048278808594 18.927871704101562 C10.660078048706055 18.858837127685547 11.264511108398438 19.047611236572266 11.62813663482666 18.720767974853516 C12.096905708312988 18.299415588378906 11.974883079528809 15.6721773147583 11.97598648071289 15.407354354858398 C11.984076499938965 13.466144561767578 11.973158836364746 11.52478313446045 11.97016716003418 9.583569526672363 L11.97016716003418 9.583569526672363"></path></svg>