<svg xmlns="http://www.w3.org/2000/svg" viewBox="0.0 0.0 24.0 24.0" height="200px" width="200px"><path fill="none" stroke="black" stroke-width=".3" stroke-opacity="1.0"  filling="0" d="M14.035348892211914 8.764781951904297 L14.035348892211914 8.764781951904297 C15.185996055603027 8.764781951904297 16.33664321899414 8.764781951904297 17.48729133605957 8.764781951904297 L17.48729133605957 8.764781951904297 C17.48729133605957 8.995697975158691 17.48729133605957 9.226613998413086 17.48729133605957 9.45753002166748 L17.48729133605957 9.45753002166748 C17.0918025970459 9.520155906677246 16.69631576538086 9.582782745361328 16.300827026367188 9.645408630371094 L16.300827026367188 9.645408630371094 C16.239835739135742 11.374481201171875 16.246990203857422 13.094139099121094 16.261363983154297 14.824071884155273 L16.261363983154297 14.824071884155273 C16.66228485107422 14.89527702331543 17.06320571899414 14.966482162475586 17.464126586914062 15.037687301635742 L17.464126586914062 15.037687301635742 C17.464126586914062 15.27267837524414 17.464126586914062 15.507669448852539 17.464126586914062 15.742660522460938 L17.464126586914062 15.742660522460938 C16.154769897460938 15.742660522460938 14.845412254333496 15.742660522460938 13.536054611206055 15.742660522460938 L13.536054611206055 15.742660522460938 C13.523972511291504 15.512030601501465 13.51189136505127 15.281400680541992 13.499809265136719 15.05077075958252 L13.499809265136719 15.05077075958252 C13.920533180236816 14.98514175415039 14.34125804901123 14.919513702392578 14.761981964111328 14.85388469696045 L14.761981964111328 14.85388469696045 C14.761981964111328 13.304532051086426 14.761981964111328 11.755178451538086 14.761981964111328 10.205826759338379 L14.761981964111328 10.205826759338379 C13.706414222717285 12.07302188873291 13.451233863830566 14.71696662902832 11.464674949645996 15.668024063110352 L11.464674949645996 15.668024063110352 C10.731413841247559 13.850143432617188 9.998115539550781 12.032276153564453 9.264826774597168 10.21440601348877 L9.264826774597168 10.21440601348877 C9.213639259338379 10.225486755371094 9.162450790405273 10.236568450927734 9.111263275146484 10.247649192810059 L9.111263275146484 10.247649192810059 C9.111263275146484 11.769621849060059 9.111263275146484 13.291590690612793 9.111263275146484 14.813563346862793 L9.111263275146484 14.813563346862793 C9.491952896118164 14.883624076843262 9.872642517089844 14.953685760498047 10.253332138061523 15.023746490478516 L10.253332138061523 15.023746490478516 C10.284287452697754 15.26052474975586 10.3152437210083 15.497303009033203 10.346199035644531 15.734081268310547 L10.346199035644531 15.734081268310547 C10.307347297668457 15.734081268310547 6.783305644989014 15.734081268310547 6.735976219177246 15.734081268310547 L6.735976219177246 15.734081268310547 C6.735976219177246 15.502379417419434 6.735976219177246 15.270676612854004 6.735976219177246 15.03897476196289 L6.735976219177246 15.03897476196289 C7.100508689880371 14.974775314331055 7.465041160583496 14.910576820373535 7.829573631286621 14.8463773727417 L7.829573631286621 14.8463773727417 C7.829573631286621 12.592719078063965 8.47551441192627 10.344959259033203 6.722892761230469 8.791377067565918 L6.722892761230469 8.791377067565918 C6.772294044494629 8.791377067565918 10.355716705322266 8.791377067565918 10.357137680053711 8.791377067565918 L10.357137680053711 8.791377067565918 C10.93264102935791 10.283320426940918 11.508136749267578 11.775270462036133 12.08364486694336 13.267212867736816 L12.08364486694336 13.267212867736816 C12.734185218811035 11.766390800476074 13.384773254394531 10.265588760375977 14.035348892211914 8.764781951904297 L14.035348892211914 8.764781951904297"></path></svg>