<svg xmlns="http://www.w3.org/2000/svg" viewBox="0.0 0.0 24.0 24.0" height="200px" width="200px"><path fill="none" stroke="black" stroke-width=".3" stroke-opacity="1.0"  filling="0" d="M10.359882354736328 9.74042797088623 L10.359882354736328 9.74042797088623 C11.47003173828125 9.672100067138672 13.139039993286133 9.203964233398438 14.122224807739258 10.210951805114746 C15.27407455444336 11.390687942504883 15.216400146484375 13.94472885131836 13.784629821777344 14.88345718383789 C13.171574592590332 15.285401344299316 12.402667999267578 15.373112678527832 11.711687088012695 15.617939949035645 L11.711687088012695 15.617939949035645 C11.711687088012695 17.161190032958984 11.711687088012695 18.70443344116211 11.711687088012695 20.247684478759766 L11.711687088012695 20.247684478759766 C11.261085510253906 20.286081314086914 10.810483932495117 20.324480056762695 10.359882354736328 20.362876892089844 L10.359882354736328 20.362876892089844 C10.359882354736328 18.59246826171875 10.359882354736328 16.82206153869629 10.359882354736328 15.051652908325195 C10.359882354736328 13.281244277954102 10.359882354736328 11.510835647583008 10.359882354736328 9.74042797088623 L10.359882354736328 9.74042797088623"></path>
<path fill="none" stroke="black" stroke-width=".3" stroke-opacity="1.0"  filling="0" d="M11.771745681762695 10.941595077514648 L11.771745681762695 10.941595077514648 C12.762632369995117 11.222444534301758 14.2175874710083 12.255736351013184 13.077152252197266 13.5852689743042 C12.768423080444336 13.945188522338867 12.206881523132324 13.962164878845215 11.771745681762695 14.150612831115723 L11.771745681762695 14.150612831115723 C11.771745681762695 13.080940246582031 11.771745681762695 12.01126766204834 11.771745681762695 10.941595077514648 L11.771745681762695 10.941595077514648"></path></svg>