<svg xmlns="http://www.w3.org/2000/svg" viewBox="0.0 0.0 24.0 24.0" height="200px" width="200px"><path fill="none" stroke="black" stroke-width=".3" stroke-opacity="1.0"  filling="0" d="M2.6759138107299805 3.1134634017944336 C4.74200963973999 3.1134634017944336 6.588054180145264 3.1134634017944336 8.769279479980469 3.1134634017944336 C8.769279479980469 5.360476493835449 8.769279479980469 7.4725117683410645 8.769279479980469 9.73370361328125 C13.52305793762207 7.4243035316467285 16.724002838134766 7.719217777252197 18.764577865600586 10.45850944519043 C20.767719268798828 13.146759033203125 20.60948944091797 17.790512084960938 18.431665420532227 20.24566650390625 C16.17728042602539 22.786460876464844 12.754014015197754 22.88287353515625 8.621255874633789 20.522432327270508 C7.5822529792785645 21.0941104888916 6.758196830749512 21.546688079833984 5.365297794342041 22.312896728515625 C5.365297794342041 20.08062744140625 5.365297794342041 18.505107879638672 5.365297794342041 16.92959213256836 C5.365865230560303 14.189165115356445 5.368133544921875 11.449305534362793 5.365865230560303 8.708879470825195 C5.364729881286621 6.947338581085205 5.797459125518799 4.961777210235596 3.1063737869262695 4.636805057525635 C2.922053337097168 4.614686489105225 2.841519355773926 3.7339162826538086 2.6759138107299805 3.1134634017944336"></path>
<path fill="none" stroke="black" stroke-width=".3" stroke-opacity="1.0"  filling="0" d="M12.852697372436523 10.557191848754883 C14.225746154785156 10.653606414794922 15.531305313110352 11.201464653015137 15.815442085266113 12.728776931762695 C16.068954467773438 14.089348793029785 16.247604370117188 15.537259101867676 16.057044982910156 16.889892578125 C15.77971363067627 18.857303619384766 14.329533576965332 19.936006546020508 12.554380416870117 19.915590286254883 C10.670336723327637 19.894039154052734 9.284811019897461 18.64179039001465 8.928646087646484 16.608022689819336 C8.848112106323242 16.145801544189453 8.848679542541504 15.669970512390137 8.773249626159668 14.714337348937988 C8.934317588806152 14.168180465698242 9.114102363586426 13.141655921936035 9.536623001098633 12.226856231689453 C10.168985366821289 10.85777759552002 11.484752655029297 10.46077823638916 12.852697372436523 10.557191848754883"></path></svg>