<svg xmlns="http://www.w3.org/2000/svg" viewBox="0.0 0.0 24.0 24.0" height="200px" width="200px"><path fill="none" stroke="black" stroke-width=".3" stroke-opacity="1.0"  filling="0" d="M7.060308933258057 7.215915203094482 L7.060308933258057 7.215915203094482 C8.208259582519531 7.215915203094482 9.356209754943848 7.215915203094482 10.504159927368164 7.215915203094482 L10.504159927368164 7.215915203094482 C10.504159927368164 8.608451843261719 10.504159927368164 10.000990867614746 10.504159927368164 11.393525123596191 L10.504159927368164 11.393525123596191 C10.969785690307617 11.081878662109375 11.396217346191406 10.701665878295898 11.901037216186523 10.458584785461426 C12.391339302062988 10.222494125366211 12.915948867797852 10.0060396194458 13.458984375 9.970717430114746 C15.417703628540039 9.843311309814453 15.90396499633789 10.974163055419922 16.010671615600586 12.37110710144043 C16.117380142211914 13.768051147460938 15.844533920288086 15.431087493896484 16.285037994384766 16.36804962158203 C16.430906295776367 16.678312301635742 16.98583221435547 16.53139305114746 17.231576919555664 16.77045440673828 C17.47788429260254 17.01006507873535 17.518346786499023 17.395023345947266 17.661731719970703 17.707307815551758 L17.661731719970703 17.707307815551758 C16.078536987304688 17.707307815551758 14.49534797668457 17.707307815551758 12.912154197692871 17.707307815551758 L12.912154197692871 17.707307815551758 C13.010628700256348 17.385812759399414 12.99839973449707 17.006072998046875 13.207578659057617 16.74282455444336 C13.462462425231934 16.422056198120117 14.053646087646484 16.426061630249023 14.22569465637207 16.05423355102539 C14.442216873168945 15.586289405822754 14.244043350219727 15.023093223571777 14.241889953613281 14.507487297058105 C14.23937702178955 13.905965805053711 14.323328971862793 13.29423713684082 14.21169662475586 12.703160285949707 C13.90728759765625 11.091363906860352 12.197800636291504 10.777366638183594 11.151206016540527 12.034100532531738 C10.576793670654297 12.723845481872559 10.135597229003906 15.167814254760742 10.575127601623535 16.014192581176758 C10.91213321685791 16.663145065307617 11.669411659240723 17.048023223876953 11.950845718383789 17.72293472290039 L11.950845718383789 17.72293472290039 C10.361141204833984 17.72293472290039 8.771439552307129 17.72293472290039 7.181735038757324 17.72293472290039 L7.181735038757324 17.72293472290039 C7.098071575164795 17.58219337463379 7.014408588409424 17.44145393371582 6.9307451248168945 17.30071258544922 L6.9307451248168945 17.30071258544922 C7.448239803314209 16.973331451416016 7.965734004974365 16.64594841003418 8.48322868347168 16.318567276000977 L8.48322868347168 16.318567276000977 C8.48322868347168 15.02748966217041 8.48322868347168 13.736412048339844 8.48322868347168 12.445334434509277 C8.48322868347168 11.154256820678711 8.48322868347168 9.863178253173828 8.48322868347168 8.572100639343262 L8.48322868347168 8.572100639343262 C7.960742950439453 8.245478630065918 7.438256740570068 7.918857097625732 6.915771007537842 7.592235088348389 L6.915771007537842 7.592235088348389 C6.963950157165527 7.466794967651367 7.012129783630371 7.341355323791504 7.060308933258057 7.215915203094482 L7.060308933258057 7.215915203094482"></path></svg>