<svg xmlns="http://www.w3.org/2000/svg" viewBox="0.0 0.0 24.0 24.0" height="200px" width="200px"><path fill="none" stroke="black" stroke-width=".3" stroke-opacity="1.0"  filling="0" d="M21.621978759765625 5.776649475097656 C22.48269271850586 8.081161499023438 20.149250030517578 7.244370460510254 19.55559539794922 8.772737503051758 C19.55559539794922 12.816483497619629 19.55559539794922 17.506181716918945 19.55559539794922 21.828113555908203 C20.15536880493164 23.23574447631836 22.405914306640625 22.153594970703125 22.03258514404297 24.423057556152344 C19.007007598876953 24.423057556152344 15.946380615234375 24.423057556152344 12.867948532104492 24.423057556152344 C12.31157112121582 22.038982391357422 14.704547882080078 23.26634979248047 15.529653549194336 21.946624755859375 C15.529653549194336 20.744293212890625 15.529653549194336 19.129688262939453 15.529653549194336 17.493940353393555 C11.394105911254883 19.741146087646484 8.059741973876953 19.53139305114746 6.081266403198242 16.91530990600586 C4.14841365814209 14.359871864318848 4.280831813812256 9.251778602600098 6.337199687957764 7.04296350479126 C8.590524673461914 4.620499134063721 11.87759780883789 4.623281002044678 15.268156051635742 7.00791072845459 C17.08083152770996 4.587672233581543 19.516647338867188 6.203390598297119 21.621978759765625 5.776649475097656"></path>
<path fill="none" stroke="black" stroke-width=".3" stroke-opacity="1.0"  filling="0" d="M12.235347747802734 7.439659118652344 C14.086969375610352 7.55705451965332 15.2998685836792 8.777745246887207 15.61589241027832 10.855255126953125 C15.671529769897461 11.219125747680664 15.68543815612793 11.589673042297363 15.754986763000488 12.363035202026367 C15.588628768920898 12.963922500610352 15.396122932434082 13.954273223876953 15.038372993469238 14.881752967834473 C14.49423599243164 16.292722702026367 13.212345123291016 16.690532684326172 11.883161544799805 16.68830680847168 C10.487768173217773 16.686080932617188 9.275423049926758 16.003406524658203 8.955507278442383 14.591323852539062 C8.658401489257812 13.278831481933594 8.513744354248047 11.847830772399902 8.704581260681152 10.526992797851562 C9.029505729675293 8.282012939453125 10.306389808654785 7.317255973815918 12.235347747802734 7.439659118652344"></path></svg>