<svg xmlns="http://www.w3.org/2000/svg" viewBox="0.0 0.0 24.0 24.0" height="200px" width="200px"><path fill="none" stroke="black" stroke-width=".3" stroke-opacity="1.0"  filling="0" d="M12.060494422912598 2.9664363861083984 C14.410380363464355 2.970836639404297 16.036548614501953 3.87823486328125 16.67007827758789 6.085137367248535 C17.26565933227539 8.160605430603027 17.416893005371094 10.364209175109863 17.709461212158203 12.174606323242188 C17.391597747802734 14.466750144958496 17.275009155273438 16.393184661865234 16.830659866333008 18.240427017211914 C16.23837661743164 20.701400756835938 14.434577941894531 22.089996337890625 12.179281234741211 22.16313934326172 C10.042769432067871 22.232980728149414 8.208174705505371 21.08030891418457 7.46190881729126 18.69962501525879 C6.153055191040039 14.523942947387695 6.017770290374756 10.247072219848633 7.388216495513916 6.04829216003418 C8.080589294433594 3.9271793365478516 9.763951301574707 2.9620370864868164 12.060494422912598 2.9664363861083984"></path>
<path fill="none" stroke="black" stroke-width=".3" stroke-opacity="1.0"  filling="0" d="M12.143533706665039 6.144530773162842 C13.604169845581055 6.178626537322998 14.302592277526855 7.09977388381958 14.498370170593262 8.36683177947998 C14.720544815063477 9.806020736694336 14.744192123413086 11.276006698608398 14.88332748413086 13.124349594116211 C14.689748764038086 14.373259544372559 14.511018753051758 15.999977111816406 14.166208267211914 17.59095001220703 C13.907186508178711 18.784317016601562 13.011887550354004 19.68896484375 11.80752182006836 19.327655792236328 C11.009012222290039 19.08788299560547 9.917933464050293 18.124940872192383 9.859089851379395 17.411121368408203 C9.606118202209473 14.347412109375 9.593469619750977 11.252908706665039 9.68860912322998 8.175453186035156 C9.729854583740234 6.832503318786621 10.724693298339844 6.111534595489502 12.143533706665039 6.144530773162842"></path></svg>