<svg xmlns="http://www.w3.org/2000/svg" viewBox="0.0 0.0 24.0 24.0" height="200px" width="200px"><path fill="none" stroke="black" stroke-width=".3" stroke-opacity="1.0"  filling="0" d="M13.51616382598877 7.132233142852783 L13.51616382598877 7.132233142852783 C13.51616382598877 8.795353889465332 13.51616382598877 10.458476066589355 13.51616382598877 12.121598243713379 C13.51616382598877 13.784721374511719 13.51616382598877 15.447843551635742 13.51616382598877 17.110963821411133 L13.51616382598877 17.110963821411133 C14.031949996948242 17.31882667541504 14.547736167907715 17.526691436767578 15.063522338867188 17.734554290771484 L15.063522338867188 17.734554290771484 C15.028188705444336 17.800447463989258 14.992855072021484 17.8663387298584 14.957521438598633 17.932231903076172 L14.957521438598633 17.932231903076172 C13.13375473022461 17.932231903076172 11.309986114501953 17.932231903076172 9.486218452453613 17.932231903076172 L9.486218452453613 17.932231903076172 C9.667325019836426 17.358322143554688 10.655682563781738 17.46725845336914 11.029876708984375 16.995929718017578 C11.343918800354004 16.600366592407227 11.204428672790527 15.999238014221191 11.240804672241211 15.4954833984375 C11.383777618408203 13.515515327453613 11.243276596069336 11.46833324432373 11.242396354675293 9.483034133911133 L11.242396354675293 9.483034133911133 C10.58166790008545 9.53725528717041 9.920938491821289 9.591475486755371 9.260210037231445 9.645696640014648 L9.260210037231445 9.645696640014648 C9.216069221496582 9.541181564331055 9.171929359436035 9.436665534973145 9.127788543701172 9.33215045928955 L9.127788543701172 9.33215045928955 C10.561217308044434 8.519814491271973 12.023473739624023 7.829188346862793 13.51616382598877 7.132233142852783 L13.51616382598877 7.132233142852783"></path></svg>