<svg xmlns="http://www.w3.org/2000/svg" viewBox="0.0 0.0 24.0 24.0" height="200px" width="200px"><path fill="none" stroke="black" stroke-width=".3" stroke-opacity="1.0"  filling="0" d="M14.832033157348633 13.732239723205566 L14.832033157348633 13.732239723205566 C14.610599517822266 14.301385879516602 14.514108657836914 14.9367036819458 14.167732238769531 15.439679145812988 C13.800714492797852 15.972628593444824 13.044783592224121 16.18751335144043 12.745940208435059 16.761472702026367 C12.263235092163086 17.688556671142578 12.20041275024414 19.123502731323242 12.259442329406738 20.580549240112305 C12.318472862243652 22.03759765625 12.49935531616211 23.516746520996094 12.504061698913574 24.53223991394043 L12.504061698913574 24.53223991394043 C11.870560646057129 24.503385543823242 11.237058639526367 24.474529266357422 10.603557586669922 24.445674896240234 L10.603557586669922 24.445674896240234 C10.603557586669922 22.726646423339844 10.603557586669922 21.007617950439453 10.603557586669922 19.288589477539062 C10.603557586669922 17.569561004638672 10.603557586669922 15.850530624389648 10.603557586669922 14.131502151489258 L10.603557586669922 14.131502151489258 C12.013056755065918 13.998515129089355 13.422553062438965 13.865448951721191 14.832033157348633 13.732239723205566 L14.832033157348633 13.732239723205566"></path></svg>