<svg xmlns="http://www.w3.org/2000/svg" viewBox="0.0 0.0 24.0 24.0" height="200px" width="200px"><path fill="none" stroke="black" stroke-width=".3" stroke-opacity="1.0"  filling="0" d="M9.371750831604004 14.375353813171387 L9.371750831604004 14.375353813171387 C11.491429328918457 14.375353813171387 13.611104965209961 14.375353813171387 15.730785369873047 14.375353813171387 L15.730785369873047 14.375353813171387 C15.145252227783203 15.8385009765625 14.559698104858398 17.301637649536133 13.97414779663086 18.7647762298584 C13.388596534729004 20.227914810180664 12.803049087524414 21.691055297851562 12.21752643585205 23.154205322265625 L12.21752643585205 23.154205322265625 C12.324579238891602 23.16595458984375 15.3272066116333 23.495372772216797 15.423065185546875 23.50588607788086 L15.423065185546875 23.50588607788086 C15.509637832641602 24.062376022338867 15.596210479736328 24.618864059448242 15.682783126831055 25.17535400390625 L15.682783126831055 25.17535400390625 C13.4761962890625 25.17535400390625 11.269607543945312 25.17535400390625 9.063020706176758 25.17535400390625 L9.063020706176758 25.17535400390625 C9.6829195022583 23.684707641601562 10.30272102355957 22.194021224975586 10.92251205444336 20.703327178955078 C11.542301177978516 19.212635040283203 12.162079811096191 17.72193717956543 12.781930923461914 16.231271743774414 L12.781930923461914 16.231271743774414 C10.941906929016113 16.154882431030273 10.599483489990234 16.117834091186523 9.094854354858398 14.907925605773926 L9.094854354858398 14.907925605773926 C9.187152862548828 14.730401992797852 9.279452323913574 14.552877426147461 9.371750831604004 14.375353813171387 L9.371750831604004 14.375353813171387"></path></svg>