<svg xmlns="http://www.w3.org/2000/svg" viewBox="0.0 0.0 24.0 24.0" height="200px" width="200px"><path fill="none" stroke="black" stroke-width=".3" stroke-opacity="1.0"  filling="0" d="M5.250814914703369 4.0405097007751465 C6.313191890716553 4.711907863616943 6.99694299697876 5.14365291595459 7.869080543518066 5.695224285125732 C9.710329055786133 4.117717742919922 12.043235778808594 3.881153106689453 14.549087524414062 4.758232116699219 C16.799846649169922 5.545750141143799 19.048131942749023 6.144264221191406 21.2105655670166 4.460519313812256 C21.3760986328125 4.331428527832031 21.784988403320312 4.514873504638672 22.562625885009766 4.6155524253845215 C22.00364112854004 5.897817611694336 21.61636734008789 7.10349178314209 20.98202896118164 8.162163734436035 C20.19451141357422 9.477163314819336 19.23713493347168 10.696428298950195 18.29273223876953 11.909513473510742 C15.730056762695312 15.202264785766602 14.74056339263916 18.980499267578125 15.035187721252441 23.240509033203125 C13.36873722076416 23.240509033203125 11.98455810546875 23.240509033203125 10.456464767456055 23.240509033203125 C9.469441413879395 16.876127243041992 12.982081413269043 12.75385570526123 17.743633270263672 8.855796813964844 C15.096953392028809 8.517317771911621 13.044466018676758 8.178839683532715 10.978387832641602 8.010218620300293 C8.706012725830078 7.824919700622559 7.739989757537842 8.621086120605469 7.216830730438232 11.1022310256958 C6.996325969696045 12.14916706085205 7.084033489227295 13.270222663879395 5.250814914703369 12.72791576385498 C5.250814914703369 10.106561660766602 5.250814914703369 7.401822090148926 5.250814914703369 4.0405097007751465"></path></svg>