<svg xmlns="http://www.w3.org/2000/svg" viewBox="0.0 0.0 24.0 24.0" height="200px" width="200px"><path fill="none" stroke="black" stroke-width=".3" stroke-opacity="1.0"  filling="0" d="M13.518378257751465 9.749670028686523 L13.518378257751465 9.749670028686523 C13.678993225097656 11.526010513305664 13.839606285095215 13.302349090576172 14.000224113464355 15.078686714172363 C14.160842895507812 16.855024337768555 14.321464538574219 18.631362915039062 14.482097625732422 20.40770149230957 L14.482097625732422 20.40770149230957 C14.048165321350098 20.40770149230957 13.614233016967773 20.40770149230957 13.18030071258545 20.40770149230957 L13.18030071258545 20.40770149230957 C13.062455177307129 19.745738983154297 12.944587707519531 19.08378028869629 12.826705932617188 18.421825408935547 L12.826705932617188 18.421825408935547 C12.148789405822754 18.421825408935547 11.470873832702637 18.421825408935547 10.792957305908203 18.421825408935547 L10.792957305908203 18.421825408935547 C10.620180130004883 18.869773864746094 10.201855659484863 19.95395851135254 10.037564277648926 20.379638671875 L10.037564277648926 20.379638671875 C9.59174633026123 20.379638671875 9.145928382873535 20.379638671875 8.70011043548584 20.379638671875 L8.70011043548584 20.379638671875 C9.461684226989746 18.13772201538086 10.225194931030273 15.89645767211914 10.98462963104248 13.653814315795898 C11.358837127685547 12.548765182495117 11.333176612854004 11.213708877563477 12.103338241577148 10.337343215942383 C12.44049072265625 9.95369815826416 13.046698570251465 9.945561408996582 13.518378257751465 9.749670028686523 L13.518378257751465 9.749670028686523"></path>
<path fill="none" stroke="black" stroke-width=".3" stroke-opacity="1.0"  filling="0" d="M12.423256874084473 12.783454895019531 L12.423256874084473 12.783454895019531 C12.518891334533691 12.806015968322754 12.614526748657227 12.82857608795166 12.710161209106445 12.851137161254883 L12.710161209106445 12.851137161254883 C12.710161209106445 14.25044059753418 12.710161209106445 15.649741172790527 12.710161209106445 17.04904556274414 L12.710161209106445 17.04904556274414 C12.172340393066406 17.09636878967285 11.63451862335205 17.14369010925293 11.096697807312012 17.19101333618164 L11.096697807312012 17.19101333618164 C11.538873672485352 15.721822738647461 11.981060981750488 14.252638816833496 12.423256874084473 12.783454895019531 L12.423256874084473 12.783454895019531"></path></svg>