<svg xmlns="http://www.w3.org/2000/svg" viewBox="0.0 0.0 24.0 24.0" height="200px" width="200px"><path fill="none" stroke="black" stroke-width=".3" stroke-opacity="1.0"  filling="0" d="M15.881525993347168 7.846529483795166 C16.619831085205078 7.846529483795166 17.260631561279297 7.846529483795166 18.341949462890625 7.846529483795166 C17.58426284790039 14.169977188110352 16.83538818359375 20.414722442626953 16.06477928161621 26.84506607055664 C15.240135192871094 26.909677505493164 14.524739265441895 26.966064453125 13.498044967651367 27.046527862548828 C13.850457191467285 23.881868362426758 14.178787231445312 20.929241180419922 14.5282621383667 17.789836883544922 C13.262516021728516 17.789836883544922 12.147130966186523 17.789836883544922 10.844968795776367 17.789836883544922 C10.423250198364258 20.838790893554688 10.011514663696289 23.81315040588379 9.584508895874023 26.90145492553711 C8.734020233154297 26.90145492553711 8.011575698852539 26.90145492553711 7.057126045227051 26.90145492553711 C7.849466323852539 20.45407485961914 8.619486808776855 14.189947128295898 9.397729873657227 7.8565144538879395 C10.271712303161621 7.8565144538879395 10.995331764221191 7.8565144538879395 11.936860084533691 7.8565144538879395 C11.669027328491211 10.336320877075195 11.419988632202148 12.642858505249023 11.150980949401855 15.136175155639648 C12.3709135055542 15.136175155639648 13.496870994567871 15.136175155639648 14.811955451965332 15.136175155639648 C15.163192749023438 12.740945816040039 15.51325511932373 10.356290817260742 15.881525993347168 7.846529483795166"></path></svg>