<svg xmlns="http://www.w3.org/2000/svg" viewBox="0.0 0.0 24.0 24.0" height="200px" width="200px"><path fill="none" stroke="black" stroke-width=".3" stroke-opacity="1.0"  filling="0" d="M18.31532859802246 7.703357219696045 C17.5357666015625 14.179853439331055 16.787738800048828 20.39124298095703 16.02219009399414 26.748615264892578 C15.144525527954102 26.748615264892578 14.429780960083008 26.748615264892578 13.579561233520508 26.748615264892578 C12.756204605102539 22.94948959350586 11.95036506652832 19.23094940185547 11.144525527954102 15.512994766235352 C11.011969566345215 15.542190551757812 10.879415512084961 15.570805549621582 10.74686050415039 15.600001335144043 C10.387736320495605 19.239126205444336 10.02861213684082 22.878833770751953 9.659561157226562 26.617813110351562 C9.207006454467773 26.73401641845703 8.860145568847656 26.87708282470703 8.505693435668945 26.89927101135254 C8.13839340209961 26.922630310058594 7.764087200164795 26.828615188598633 7.1001458168029785 26.752702713012695 C7.868613243103027 20.44321060180664 8.62423324584961 14.234160423278809 9.410219192504883 7.775181770324707 C10.334599494934082 7.775181770324707 10.993284225463867 7.775181770324707 11.847591400146484 7.775181770324707 C12.645256042480469 11.600584030151367 13.431241035461426 15.36817455291748 14.312408447265625 19.59649658203125 C14.832117080688477 15.447006225585938 15.294013977050781 11.757079124450684 15.782190322875977 7.862189292907715 C16.51386833190918 7.816641807556152 17.218685150146484 7.772262096405029 18.31532859802246 7.703357219696045"></path></svg>