<svg xmlns="http://www.w3.org/2000/svg" viewBox="0.0 0.0 24.0 24.0" height="200px" width="200px"><path fill="none" stroke="black" stroke-width=".3" stroke-opacity="1.0"  filling="0" d="M13.764819145202637 7.672492027282715 L13.764819145202637 7.672492027282715 C14.727493286132812 7.814211368560791 15.53622055053711 7.811005115509033 16.360851287841797 8.435404777526855 C18.693756103515625 10.201850891113281 18.250511169433594 12.42385196685791 16.72922134399414 14.141969680786133 C15.207930564880371 15.860087394714355 12.608595848083496 17.074321746826172 10.62932300567627 16.825233459472656 C8.933552742004395 16.61182403564453 7.7997331619262695 15.686105728149414 7.319037914276123 14.4700345993042 C6.838342666625977 13.253962516784668 7.010772705078125 11.747537612915039 7.927501201629639 10.372710227966309 C9.298699378967285 8.31631088256836 11.487244606018066 7.89100980758667 13.764819145202637 7.672492027282715 L13.764819145202637 7.672492027282715"></path>
<path fill="none" stroke="black" stroke-width=".3" stroke-opacity="1.0"  filling="0" d="M12.923628807067871 8.716628074645996 L12.923628807067871 8.716628074645996 C14.090030670166016 8.971086502075195 15.012235641479492 8.837069511413574 15.567988395690918 10.109977722167969 C16.115442276000977 11.363877296447754 15.791126251220703 12.802860260009766 15.002195358276367 13.920332908630371 C14.213264465332031 15.037806510925293 12.95971965789795 15.833770751953125 11.64871597290039 15.801633834838867 C8.95781421661377 15.735671043395996 8.60564136505127 13.192399024963379 9.524056434631348 11.146023750305176 C10.204866409301758 9.629070281982422 11.388275146484375 9.036711692810059 12.923628807067871 8.716628074645996 L12.923628807067871 8.716628074645996"></path></svg>