<svg xmlns="http://www.w3.org/2000/svg" viewBox="0.0 0.0 24.0 24.0" height="200px" width="200px"><path fill="none" stroke="black" stroke-width=".3" stroke-opacity="1.0"  filling="0" d="M13.360060691833496 9.417190551757812 L13.360060691833496 9.417190551757812 C14.984026908874512 10.417819023132324 14.977887153625488 11.258747100830078 14.98752498626709 13.109858512878418 L14.98752498626709 13.109858512878418 C15.0404634475708 13.118049621582031 15.093401908874512 13.126241683959961 15.146340370178223 13.134432792663574 L15.146340370178223 13.134432792663574 C15.084891319274902 13.498213768005371 14.717408180236816 15.686651229858398 14.64742660522461 16.049205780029297 C14.336387634277344 17.66060447692871 13.068174362182617 21.66750144958496 10.505359649658203 19.806324005126953 C9.499906539916992 19.076139450073242 9.504173278808594 17.528852462768555 9.475576400756836 16.50335693359375 C9.43344497680664 14.992511749267578 9.543721199035645 13.308842658996582 10.094953536987305 11.958948135375977 C10.646184921264648 10.609054565429688 11.638371467590332 9.592935562133789 13.360060691833496 9.417190551757812 L13.360060691833496 9.417190551757812"></path>
<path fill="none" stroke="black" stroke-width=".3" stroke-opacity="1.0"  filling="0" d="M12.89897632598877 10.65422248840332 L12.89897632598877 10.65422248840332 C13.981807708740234 12.605372428894043 13.607003211975098 14.714162826538086 13.11892032623291 16.86457633972168 C12.983978271484375 17.459108352661133 12.682963371276855 18.914594650268555 11.600198745727539 18.74577522277832 C10.562342643737793 18.58395767211914 11.088138580322266 16.549528121948242 11.112706184387207 16.294340133666992 C11.325471878051758 14.084339141845703 11.074668884277344 12.055658340454102 12.89897632598877 10.65422248840332 L12.89897632598877 10.65422248840332"></path></svg>