<svg xmlns="http://www.w3.org/2000/svg" viewBox="0.0 0.0 24.0 24.0" height="200px" width="200px"><path fill="none" stroke="black" stroke-width=".3" stroke-opacity="1.0"  filling="0" d="M14.450410842895508 6.651095867156982 C16.1463680267334 7.0210280418396 17.312435150146484 8.295990943908691 17.20041275024414 10.535383224487305 C17.02378273010254 14.060681343078613 16.662187576293945 17.606298446655273 15.971821784973145 21.061777114868164 C15.706095695495605 22.39301300048828 15.42265510559082 23.477798461914062 16.34644317626953 24.71160125732422 C15.858235359191895 25.08257484436035 15.466421127319336 25.380083084106445 14.972482681274414 25.755226135253906 C14.637980461120605 25.313392639160156 14.342035293579102 24.922096252441406 14.023685455322266 24.501625061035156 C13.894990921020508 24.474010467529297 13.705856323242188 24.36667823791504 13.569345474243164 24.413570404052734 C9.607945442199707 25.77659034729004 7.833834171295166 23.30898666381836 7.970865726470947 20.00773048400879 C8.088618278503418 17.16550636291504 8.508569717407227 14.331616401672363 8.892569541931152 11.507627487182617 C9.006155014038086 10.672935485839844 9.370355606079102 9.840848922729492 9.762170791625977 9.081185340881348 C10.760466575622559 7.1465959548950195 12.57990837097168 6.243649005889893 14.450410842895508 6.651095867156982"></path>
<path fill="none" stroke="black" stroke-width=".3" stroke-opacity="1.0"  filling="0" d="M13.604254722595215 8.847241401672363 C14.240955352783203 9.127555847167969 14.866713523864746 10.294665336608887 14.849519729614258 11.048077583312988 C14.784391403198242 13.888738632202148 14.454057693481445 16.723669052124023 14.233660697937012 19.43355369567871 C13.287988662719727 19.499723434448242 12.606480598449707 19.547658920288086 11.676959991455078 19.6127872467041 C12.022403717041016 20.73300552368164 12.262078285217285 21.51090431213379 12.52415657043457 22.36174964904785 C11.200737953186035 22.830154418945312 10.548927307128906 22.198665618896484 10.458268165588379 21.135761260986328 C10.146692276000977 17.483854293823242 10.487966537475586 13.871545791625977 11.59255313873291 10.369173049926758 C11.875473022460938 9.472478866577148 12.521031379699707 8.37101936340332 13.604254722595215 8.847241401672363"></path></svg>