<svg xmlns="http://www.w3.org/2000/svg" viewBox="0.0 0.0 24.0 24.0" height="200px" width="200px"><path fill="none" stroke="black" stroke-width=".3" stroke-opacity="1.0"  filling="0" d="M13.378355979919434 8.991241455078125 L13.378355979919434 8.991241455078125 C15.151140213012695 10.062941551208496 15.134681701660156 11.803388595581055 14.816571235656738 13.675565719604492 C14.49846076965332 15.547743797302246 13.878698348999023 17.551651000976562 14.444873809814453 19.1502742767334 L14.444873809814453 19.1502742767334 C14.187256813049316 19.34595489501953 13.929638862609863 19.54163360595703 13.672021865844727 19.737314224243164 L13.672021865844727 19.737314224243164 C13.494122505187988 19.50226402282715 13.316222190856934 19.267213821411133 13.138322830200195 19.032163619995117 L13.138322830200195 19.032163619995117 C11.768661499023438 18.76671600341797 10.847757339477539 19.758586883544922 10.020624160766602 18.142559051513672 C9.569665908813477 17.261489868164062 9.762663841247559 15.822043418884277 9.849465370178223 14.90719223022461 C9.980794906616211 13.523037910461426 10.052433013916016 12.146247863769531 10.496530532836914 11.064397811889648 C10.940629005432129 9.982547760009766 11.757186889648438 9.195636749267578 13.378355979919434 8.991241455078125 L13.378355979919434 8.991241455078125"></path>
<path fill="none" stroke="black" stroke-width=".3" stroke-opacity="1.0"  filling="0" d="M12.902393341064453 10.22657299041748 L12.902393341064453 10.22657299041748 C13.979241371154785 12.129755973815918 13.444873809814453 14.052334785461426 13.256434440612793 16.181373596191406 L13.256434440612793 16.181373596191406 C12.777052879333496 16.21497917175293 12.2976713180542 16.248586654663086 11.818289756774902 16.28219223022461 L11.818289756774902 16.28219223022461 C11.977139472961426 16.797622680664062 12.135988235473633 17.313053131103516 12.294837951660156 17.82848358154297 L12.294837951660156 17.82848358154297 C11.90748405456543 17.59861183166504 11.349801063537598 17.53356170654297 11.132776260375977 17.138866424560547 C10.885909080505371 16.689897537231445 11.067756652832031 16.11536407470703 11.071155548095703 15.603012084960938 C11.07918643951416 14.392267227172852 11.085465431213379 12.141180038452148 11.770811080932617 11.082659721374512 C12.027867317199707 10.68563461303711 12.525198936462402 10.511935234069824 12.902393341064453 10.22657299041748 L12.902393341064453 10.22657299041748"></path></svg>