<svg xmlns="http://www.w3.org/2000/svg" viewBox="0.0 0.0 24.0 24.0" height="200px" width="200px"><path fill="none" stroke="black" stroke-width=".3" stroke-opacity="1.0"  filling="0" d="M16.252286911010742 7.498000144958496 C16.209243774414062 8.051506996154785 16.162334442138672 8.653024673461914 16.099424362182617 9.460382461547852 C14.514509201049805 8.981374740600586 12.989744186401367 8.766153335571289 12.151483535766602 10.348861694335938 C11.266313552856445 12.020418167114258 11.93791675567627 13.462957382202148 13.005197525024414 14.903841018676758 C13.97038459777832 16.206209182739258 14.97309684753418 17.630535125732422 15.3947114944458 19.157506942749023 C16.418947219848633 22.86318588256836 13.497447967529297 26.563350677490234 10.172545433044434 26.0716495513916 C8.597562789916992 25.838768005371094 7.7979302406311035 25.116395950317383 8.760358810424805 23.124765396118164 C10.22828197479248 23.74283790588379 11.719935417175293 24.17052459716797 12.652563095092773 22.52600860595703 C13.492480278015137 21.04428482055664 13.286088943481445 19.539941787719727 12.24308967590332 18.155899047851562 C11.416417121887207 17.058818817138672 10.510278701782227 15.995402336120605 9.85964584350586 14.796781539916992 C8.74049186706543 12.735066413879395 9.138928413391113 10.061347961425781 10.631685256958008 8.356679916381836 C12.019038200378418 6.772867679595947 13.599538803100586 6.50632381439209 16.252286911010742 7.498000144958496"></path></svg>