<svg xmlns="http://www.w3.org/2000/svg" viewBox="0.0 0.0 24.0 24.0" height="200px" width="200px"><path fill="none" stroke="black" stroke-width=".3" stroke-opacity="1.0"  filling="0" d="M17.26412010192871 9.092828750610352 C18.002059936523438 9.851446151733398 18.274747848510742 11.420374870300293 18.168773651123047 12.564116477966309 C17.972335815429688 14.688116073608398 17.31387710571289 16.766237258911133 16.90549087524414 18.87472915649414 C16.773021697998047 19.559036254882812 16.82148551940918 20.278236389160156 16.7872371673584 20.97611427307129 C19.340301513671875 21.306312561035156 17.967166900634766 16.929075241088867 21.038467407226562 17.96942901611328 C20.880802154541016 20.480491638183594 20.137691497802734 22.569599151611328 17.58979606628418 23.554378509521484 C15.419271469116211 24.39312171936035 13.62805461883545 23.76697540283203 12.567670822143555 22.252967834472656 C10.242063522338867 22.83970069885254 8.22339153289795 23.566009521484375 6.148500919342041 23.805095672607422 C4.3908867835998535 24.00735092163086 2.6972436904907227 23.39606475830078 2.0116453170776367 21.433609008789062 C1.467559814453125 19.876956939697266 2.2126073837280273 17.920318603515625 4.173122882843018 16.85024070739746 C5.83574914932251 15.942355155944824 7.75103235244751 15.486798286437988 9.569387435913086 14.87486457824707 C10.684051513671875 14.500079154968262 11.971245765686035 14.428352355957031 12.91273307800293 13.811248779296875 C13.689443588256836 13.302057266235352 14.565666198730469 12.136345863342285 14.478431701660156 11.365450859069824 C14.404120445251465 10.706991195678711 13.09430980682373 9.980684280395508 12.198701858520508 9.682793617248535 C11.337986946105957 9.397180557250977 10.307327270507812 9.622051239013672 8.896711349487305 9.622051239013672 C9.247589111328125 10.564184188842773 9.712193489074707 11.180642127990723 9.56033992767334 11.526350021362305 C9.171984672546387 12.411619186401367 8.666025161743164 13.595422744750977 7.913868427276611 13.877159118652344 C7.110018253326416 14.178279876708984 5.6147541999816895 13.892667770385742 5.085530757904053 13.285256385803223 C4.621572017669678 12.752801895141602 4.736592769622803 11.206489562988281 5.188919544219971 10.475658416748047 C7.01373815536499 7.530360221862793 14.832537651062012 6.594043254852295 17.26412010192871 9.092828750610352"></path>
<path fill="none" stroke="black" stroke-width=".3" stroke-opacity="1.0"  filling="0" d="M13.335981369018555 15.656744003295898 C13.599623680114746 17.970073699951172 12.823559761047363 19.53835678100586 11.06723690032959 20.421688079833984 C9.579726219177246 21.169967651367188 7.899007320404053 21.987388610839844 6.162069797515869 19.884065628051758 C7.475111961364746 16.524564743041992 10.614263534545898 16.709373474121094 13.335981369018555 15.656744003295898"></path></svg>