<svg xmlns="http://www.w3.org/2000/svg" viewBox="0.0 0.0 24.0 24.0" height="200px" width="200px"><path fill="none" stroke="black" stroke-width=".3" stroke-opacity="1.0"  filling="0" d="M11.06260871887207 3.2595090866088867 C10.678797721862793 5.337122917175293 10.294988632202148 7.415857791900635 9.846744537353516 9.839741706848145 C10.924212455749512 9.287839889526367 11.620112419128418 8.866490364074707 12.363637924194336 8.562804222106934 C14.481034278869629 7.698252201080322 16.584423065185547 7.702174186706543 18.480497360229492 9.086690902709961 C20.327266693115234 10.435346603393555 20.299251556396484 12.453008651733398 20.012935638427734 14.433690071105957 C19.262683868408203 19.632205963134766 14.208725929260254 24.740516662597656 7.241881847381592 20.368450164794922 C6.278716087341309 20.848628997802734 5.368218898773193 21.302478790283203 3.8200931549072266 22.074020385742188 C5.063412189483643 16.121891021728516 6.156009674072266 10.892556190490723 7.278302192687988 5.52090311050415 C6.493313312530518 5.128129482269287 5.792370796203613 4.777377128601074 5.132330894470215 4.446796894073486 C4.717703819274902 2.8566484451293945 6.5846428871154785 2.4952516555786133 11.06260871887207 3.2595090866088867"></path>
<path fill="none" stroke="black" stroke-width=".3" stroke-opacity="1.0"  filling="0" d="M12.27454948425293 10.660028457641602 C14.843551635742188 9.966370582580566 16.258323669433594 11.061768531799316 16.223026275634766 13.986004829406738 C16.129453659057617 15.63554573059082 15.678407669067383 17.40891456604004 14.121316909790039 18.6987361907959 C12.773221969604492 19.815425872802734 10.974638938903809 20.01657485961914 9.714510917663574 19.148101806640625 C8.378742218017578 18.227519989013672 8.227459907531738 16.870458602905273 8.54459285736084 15.417025566101074 C9.019732475280762 13.238556861877441 9.845063209533691 11.316146850585938 12.27454948425293 10.660028457641602"></path></svg>