<svg xmlns="http://www.w3.org/2000/svg" viewBox="0.0 0.0 24.0 24.0" height="200px" width="200px"><path fill="none" stroke="black" stroke-width=".3" stroke-opacity="1.0"  filling="0" d="M13.203256607055664 8.387725830078125 L13.203256607055664 8.387725830078125 C13.752755165100098 8.598738670349121 14.445724487304688 8.594598770141602 14.851751327514648 9.020764350891113 C15.833395957946777 10.051097869873047 15.758862495422363 11.564345359802246 15.148974418640137 12.885601997375488 C14.539085388183594 14.206857681274414 13.393840789794922 15.336124420166016 12.234064102172852 15.598494529724121 C10.726083755493164 15.939638137817383 10.19747257232666 15.316123962402344 8.956727981567383 14.616262435913086 L8.956727981567383 14.616262435913086 C8.773092269897461 15.506612777709961 8.58946418762207 16.39696502685547 8.405842781066895 17.28731918334961 L8.405842781066895 17.28731918334961 C8.868547439575195 17.453468322753906 9.33125114440918 17.619617462158203 9.79395580291748 17.7857666015625 L9.79395580291748 17.7857666015625 C8.404728889465332 19.20932388305664 6.5050811767578125 18.608388900756836 4.649513244628906 18.469806671142578 L4.649513244628906 18.469806671142578 C6.426568031311035 16.68031883239746 6.774516582489014 15.592166900634766 7.2973713874816895 13.155092239379883 C7.508848190307617 12.169378280639648 8.121739387512207 11.190321922302246 7.937443733215332 10.199166297912598 C7.8291473388671875 9.616740226745605 7.171550750732422 9.241375923156738 7.043948650360107 8.662873268127441 L7.043948650360107 8.662873268127441 C8.107004165649414 8.597949028015137 9.198904037475586 8.726547241210938 10.216693878173828 9.040244102478027 L10.216693878173828 9.040244102478027 C11.199288368225098 8.770284652709961 12.197571754455566 8.551945686340332 13.203256607055664 8.387725830078125 L13.203256607055664 8.387725830078125"></path>
<path fill="none" stroke="black" stroke-width=".3" stroke-opacity="1.0"  filling="0" d="M11.187664985656738 9.709260940551758 L11.187664985656738 9.709260940551758 C11.73875904083252 9.713605880737305 12.380244255065918 9.419845581054688 12.840947151184082 9.722296714782715 C14.291945457458496 10.674877166748047 12.87544059753418 14.112223625183105 11.47467041015625 14.397381782531738 C9.398801803588867 14.819972038269043 9.133639335632324 12.147671699523926 9.899640083312988 10.866376876831055 C10.195792198181152 10.371001243591309 10.758323669433594 10.094965934753418 11.187664985656738 9.709260940551758 L11.187664985656738 9.709260940551758"></path></svg>