<svg xmlns="http://www.w3.org/2000/svg" viewBox="0.0 0.0 24.0 24.0" height="200px" width="200px"><path fill="none" stroke="black" stroke-width=".3" stroke-opacity="1.0"  filling="0" d="M14.650002479553223 11.783117294311523 L14.650002479553223 11.783117294311523 C14.424224853515625 13.546849250793457 14.19845962524414 15.310583114624023 13.972722053527832 17.074321746826172 C13.746984481811523 18.838058471679688 13.52127456665039 20.60179901123047 13.29560661315918 22.36554527282715 L13.29560661315918 22.36554527282715 C12.845635414123535 22.36554527282715 12.39566421508789 22.36554527282715 11.945693016052246 22.36554527282715 L11.945693016052246 22.36554527282715 C11.96434211730957 22.186758041381836 12.200655937194824 19.922685623168945 12.226019859313965 19.679853439331055 L12.226019859313965 19.679853439331055 C11.847148895263672 19.652353286743164 10.576140403747559 19.656187057495117 10.192011833190918 19.306774139404297 C8.91627025604248 18.146329879760742 9.586424827575684 15.592791557312012 9.8949556350708 14.208057403564453 C10.046499252319336 13.527905464172363 10.34007740020752 11.936114311218262 11.205825805664062 11.619420051574707 C12.285228729248047 11.224571228027344 13.501708030700684 11.832476615905762 14.650002479553223 11.783117294311523 L14.650002479553223 11.783117294311523"></path>
<path fill="none" stroke="black" stroke-width=".3" stroke-opacity="1.0"  filling="0" d="M12.364631652832031 12.840635299682617 L12.364631652832031 12.840635299682617 C10.768610000610352 14.634486198425293 10.700459480285645 16.22118377685547 11.553994178771973 18.417865753173828 L11.553994178771973 18.417865753173828 C12.89737319946289 16.52874183654785 13.125391006469727 15.033154487609863 12.364631652832031 12.840635299682617 L12.364631652832031 12.840635299682617"></path></svg>