<svg xmlns="http://www.w3.org/2000/svg" viewBox="0.0 0.0 24.0 24.0" height="200px" width="200px"><path fill="none" stroke="black" stroke-width=".3" stroke-opacity="1.0"  filling="0" d="M14.202548027038574 13.684304237365723 C16.054920196533203 13.74687671661377 16.924549102783203 14.627735137939453 16.26029396057129 16.804210662841797 C15.255086898803711 16.804210662841797 14.440011978149414 16.675052642822266 13.682697296142578 16.829883575439453 C11.789411544799805 17.215761184692383 11.074616432189941 18.788951873779297 12.140792846679688 20.416696548461914 C12.862809181213379 21.51897430419922 13.942623138427734 22.37897491455078 14.783370018005371 23.411457061767578 C16.30441665649414 25.280677795410156 16.20654296875 27.400192260742188 15.337717056274414 29.452322006225586 C14.50178337097168 31.426633834838867 12.879655838012695 32.595497131347656 10.722433090209961 32.83216094970703 C8.400752067565918 33.08727264404297 7.856832981109619 32.3901252746582 8.007654190063477 29.377716064453125 C8.617356300354004 29.48040199279785 9.26075267791748 29.773218154907227 9.7950439453125 29.63763999938965 C10.732060432434082 29.399377822875977 12.025270462036133 29.12501335144043 12.387882232666016 28.447118759155273 C12.78579330444336 27.703439712524414 12.589244842529297 26.3251953125 12.132770538330078 25.514930725097656 C11.426799774169922 24.261032104492188 10.19215202331543 23.31839942932129 9.342580795288086 22.12787628173828 C8.040546417236328 20.304384231567383 8.249128341674805 18.353336334228516 9.26075267791748 16.463260650634766 C10.309280395507812 14.502588272094727 12.014841079711914 13.610498428344727 14.202548027038574 13.684304237365723"></path></svg>