<svg xmlns="http://www.w3.org/2000/svg" viewBox="0.0 0.0 24.0 24.0" height="200px" width="200px"><path fill="none" stroke="black" stroke-width=".3" stroke-opacity="1.0"  filling="0" d="M14.758328437805176 3.0062379837036133 C14.374905586242676 5.223080158233643 14.110240936279297 6.7539448738098145 13.816736221313477 8.450508117675781 C15.048440933227539 8.55795669555664 16.2337703704834 8.660881042480469 17.62325668334961 8.781903266906738 C17.11937713623047 11.676804542541504 14.636740684509277 9.895978927612305 12.978632926940918 11.119200706481934 C12.467402458190918 13.462153434753418 11.861729621887207 16.237728118896484 11.232870101928711 19.119060516357422 C13.334346771240234 19.818042755126953 13.828611373901367 18.684173583984375 14.224475860595703 17.343889236450195 C14.50723648071289 16.387592315673828 14.623734474182129 15.181337356567383 16.16873550415039 15.656939506530762 C16.40512466430664 19.1580810546875 14.707996368408203 21.68878936767578 11.843633651733398 22.13045883178711 C9.111600875854492 22.551204681396484 7.601095199584961 21.201873779296875 8.009966850280762 18.46927833557129 C8.383776664733887 15.9736328125 9.016593933105469 13.516444206237793 9.582681655883789 10.813254356384277 C8.719696044921875 10.600052833557129 8.103278160095215 10.447361946105957 7.269700050354004 10.240946769714355 C7.50552225112915 9.662984848022461 7.5931782722473145 8.885958671569824 7.8985595703125 8.788689613342285 C10.225112915039062 8.044464111328125 11.754846572875977 6.596729755401611 12.619527816772461 4.297888278961182 C12.79427433013916 3.8330297470092773 13.674790382385254 3.6339664459228516 14.758328437805176 3.0062379837036133"></path></svg>