<svg xmlns="http://www.w3.org/2000/svg" viewBox="0.0 0.0 24.0 24.0" height="200px" width="200px"><path fill="none" stroke="black" stroke-width=".3" stroke-opacity="1.0"  filling="0" d="M9.142487525939941 7.038440227508545 L9.142487525939941 7.038440227508545 C11.11690902709961 7.038440227508545 13.09133529663086 7.038440227508545 15.065755844116211 7.038440227508545 L15.065755844116211 7.038440227508545 C15.025245666503906 8.906551361083984 14.495506286621094 10.747068405151367 13.807812690734863 12.550298690795898 C13.120119094848633 14.35352897644043 12.274471282958984 16.11947250366211 11.602144241333008 17.83843994140625 L11.602144241333008 17.83843994140625 C11.031085014343262 17.83843994140625 10.460025787353516 17.83843994140625 9.88896656036377 17.83843994140625 L9.88896656036377 17.83843994140625 C10.426021575927734 16.333797454833984 10.963035583496094 14.829137802124023 11.500041007995605 13.32447624206543 C12.037046432495117 11.819814682006836 12.574045181274414 10.31515121459961 13.111069679260254 8.810497283935547 L13.111069679260254 8.810497283935547 C11.788208961486816 8.810497283935547 10.465348243713379 8.810497283935547 9.142487525939941 8.810497283935547 L9.142487525939941 8.810497283935547 C9.142487525939941 8.21981143951416 9.142487525939941 7.629126071929932 9.142487525939941 7.038440227508545 L9.142487525939941 7.038440227508545"></path></svg>