<svg xmlns="http://www.w3.org/2000/svg" viewBox="0.0 0.0 24.0 24.0" height="200px" width="200px"><path fill="none" stroke="black" stroke-width=".3" stroke-opacity="1.0"  filling="0" d="M15.486162185668945 7.9312334060668945 L15.486162185668945 7.9312334060668945 C15.851712226867676 8.345376968383789 16.38755989074707 8.656926155090332 16.582813262939453 9.173664093017578 C16.998483657836914 10.273733139038086 16.39958953857422 11.659947395324707 15.634602546691895 12.412607192993164 C14.774017333984375 13.259323120117188 13.50766372680664 13.68256950378418 12.195394515991211 14.060282707214355 C10.883126258850098 14.437995910644531 9.524944305419922 14.770177841186523 8.480701446533203 15.434765815734863 L8.480701446533203 15.434765815734863 C9.814336776733398 15.574328422546387 12.536345481872559 16.433685302734375 13.813032150268555 15.885201454162598 C14.649216651916504 15.52596378326416 15.077353477478027 14.559563636779785 15.821928977966309 14.036243438720703 L15.821928977966309 14.036243438720703 C15.772110939025879 14.597196578979492 15.841065406799316 15.181770324707031 15.672473907470703 15.719103813171387 C15.516399383544922 16.2165470123291 15.232361793518066 16.685937881469727 14.87228012084961 17.062965393066406 C12.429975509643555 19.620206832885742 10.660840034484863 16.43940544128418 8.242402076721191 16.781639099121094 C7.397007942199707 16.90127182006836 6.748980522155762 17.64401626586914 5.928466320037842 17.880149841308594 L5.928466320037842 17.880149841308594 C6.301515102386475 16.567302703857422 6.273322582244873 16.02007293701172 7.222943305969238 15.017632484436035 C8.875537872314453 13.27311897277832 11.969047546386719 13.376667976379395 13.457695960998535 11.563130378723145 C14.525528907775879 10.262248992919922 14.00478458404541 9.113761901855469 12.409141540527344 8.58011245727539 C11.132072448730469 8.153007507324219 10.566852569580078 8.797372817993164 9.563068389892578 9.391633987426758 L9.563068389892578 9.391633987426758 C9.886338233947754 9.563645362854004 10.307039260864258 9.619418144226074 10.532878875732422 9.907668113708496 C12.105955123901367 11.91546630859375 7.267200946807861 13.142119407653809 7.736806869506836 10.498684883117676 C8.053838729858398 8.71409797668457 9.36875057220459 7.860575199127197 10.915617942810059 7.559029579162598 C12.462485313415527 7.257483959197998 14.241308212280273 7.5079145431518555 15.486162185668945 7.9312334060668945 L15.486162185668945 7.9312334060668945"></path></svg>