<svg xmlns="http://www.w3.org/2000/svg" viewBox="0.0 0.0 24.0 24.0" height="200px" width="200px"><path fill="none" stroke="black" stroke-width=".3" stroke-opacity="1.0"  filling="0" d="M15.217601776123047 7.543758392333984 L15.217601776123047 7.543758392333984 C18.114532470703125 8.875212669372559 17.03863525390625 11.07564640045166 14.55474853515625 12.15207290649414 L14.55474853515625 12.15207290649414 C15.192145347595215 13.367960929870605 16.846200942993164 13.481684684753418 16.253673553466797 15.24343204498291 C15.765087127685547 16.69613265991211 14.302473068237305 17.56173324584961 12.669389724731445 17.9154109954834 C11.03630542755127 18.269088745117188 9.232751846313477 18.11084747314453 8.062286376953125 17.515865325927734 C7.670261383056641 17.316587448120117 7.284220218658447 17.032581329345703 7.06640625 16.650543212890625 C5.292881965637207 13.539852142333984 11.121593475341797 12.811918258666992 9.445589065551758 15.635086059570312 C9.248648643493652 15.966825485229492 8.807660102844238 16.069128036499023 8.48869514465332 16.286149978637695 L8.48869514465332 16.286149978637695 C9.867362976074219 16.820796966552734 11.061443328857422 17.190702438354492 12.482994079589844 16.44580078125 C13.594757080078125 15.86323070526123 14.512992858886719 14.269329071044922 13.159445762634277 13.288447380065918 C12.793913841247559 13.023555755615234 11.536378860473633 12.955764770507812 11.04984188079834 12.9119291305542 L11.04984188079834 12.9119291305542 C11.358590126037598 12.493491172790527 11.540769577026367 11.941072463989258 11.976085662841797 11.6566162109375 C12.6586275100708 11.210611343383789 13.782021522521973 11.481365203857422 14.280369758605957 10.83604907989502 C16.234832763671875 8.305194854736328 12.0045166015625 8.46526050567627 10.830239295959473 8.654912948608398 L10.830239295959473 8.654912948608398 C10.864173889160156 9.277531623840332 11.179158210754395 9.95028305053711 10.932042121887207 10.522768020629883 C10.358663558959961 11.851094245910645 7.725618362426758 11.229837417602539 8.502504348754883 9.566673278808594 C9.095171928405762 8.29788589477539 10.220405578613281 7.708392143249512 11.474242210388184 7.477978229522705 C12.728078842163086 7.247564315795898 14.110519409179688 7.376229286193848 15.217601776123047 7.543758392333984 L15.217601776123047 7.543758392333984"></path></svg>