<svg xmlns="http://www.w3.org/2000/svg" viewBox="0.0 0.0 24.0 24.0" height="200px" width="200px"><path fill="none" stroke="black" stroke-width=".3" stroke-opacity="1.0"  filling="0" d="M3.2063217163085938 2.7596616744995117 C6.487307071685791 2.999436378479004 9.768823623657227 3.238679885864258 13.049809455871582 3.477924346923828 C11.600552558898926 3.477924346923828 10.15129566192627 3.477924346923828 8.658540725708008 3.477924346923828 C8.658540725708008 9.645753860473633 8.658540725708008 15.505376815795898 8.658540725708008 21.341659545898438 C13.884245872497559 22.033397674560547 16.827850341796875 19.78683853149414 17.280345916748047 14.830613136291504 C17.400232315063477 13.52087116241455 17.339757919311523 12.192031860351562 17.326496124267578 10.87274169921875 C17.294137954711914 7.560987949371338 16.204011917114258 4.856097221374512 12.965463638305664 3.413736343383789 C17.69570541381836 3.720881462097168 21.049898147583008 6.6040120124816895 21.569232940673828 10.809615135192871 C22.224369049072266 16.116483688354492 19.85208511352539 19.93961524963379 14.9780855178833 21.38091278076172 C14.136752128601074 21.62970733642578 13.264122009277344 21.903961181640625 12.400507926940918 21.922527313232422 C9.329590797424316 21.987777709960938 6.256550312042236 21.94799041748047 2.613250732421875 21.94799041748047 C3.584549903869629 21.658884048461914 3.9940757751464844 21.53687286376953 4.524020195007324 21.378793716430664 C4.524020195007324 15.52129077911377 4.524020195007324 9.645753860473633 4.524020195007324 3.6524505615234375 C4.108128070831299 3.497551918029785 3.64237117767334 3.3235559463500977 3.176083564758301 3.14955997467041 C3.1861629486083984 3.0195932388305664 3.1962413787841797 2.8896284103393555 3.2063217163085938 2.7596616744995117"></path></svg>