<svg xmlns="http://www.w3.org/2000/svg" viewBox="0.0 0.0 24.0 24.0" height="200px" width="200px"><path fill="none" stroke="black" stroke-width=".3" stroke-opacity="1.0"  filling="0" d="M6.80988883972168 7.1291375160217285 L6.80988883972168 7.1291375160217285 C8.235445022583008 7.1291375160217285 9.660999298095703 7.1291375160217285 11.086557388305664 7.1291375160217285 L11.086557388305664 7.1291375160217285 C10.76264762878418 7.237369060516357 10.438737869262695 7.345600605010986 10.114828109741211 7.453832149505615 L10.114828109741211 7.453832149505615 C10.114828109741211 8.989681243896484 10.114828109741211 10.525527954101562 10.114828109741211 12.06137752532959 L10.114828109741211 12.06137752532959 C11.492989540100098 12.06137752532959 12.8711519241333 12.06137752532959 14.249313354492188 12.06137752532959 L14.249313354492188 12.06137752532959 C14.254441261291504 10.504897117614746 14.74068832397461 8.325910568237305 13.6484956741333 7.141206741333008 L13.6484956741333 7.141206741333008 C14.96886157989502 7.141206741333008 16.289228439331055 7.141206741333008 17.609594345092773 7.141206741333008 L17.609594345092773 7.141206741333008 C17.19884490966797 7.242177486419678 16.78809356689453 7.3431477546691895 16.377344131469727 7.444118499755859 L16.377344131469727 7.444118499755859 C16.377344131469727 8.998883247375488 16.198490142822266 10.812248229980469 16.167936325073242 12.599102020263672 C16.13738441467285 14.385956764221191 16.25513458251953 16.14630126953125 16.848342895507812 17.595022201538086 L16.848342895507812 17.595022201538086 C15.645726203918457 17.595022201538086 14.443109512329102 17.595022201538086 13.240492820739746 17.595022201538086 L13.240492820739746 17.595022201538086 C13.560477256774902 17.491107940673828 13.880461692810059 17.38719367980957 14.200446128845215 17.283279418945312 L14.200446128845215 17.283279418945312 C14.200446128845215 15.64950180053711 14.200446128845215 14.015728950500488 14.200446128845215 12.381950378417969 L14.200446128845215 12.381950378417969 C12.847796440124512 12.381950378417969 11.495148658752441 12.381950378417969 10.142498970031738 12.381950378417969 L10.142498970031738 12.381950378417969 C10.142498970031738 14.011116981506348 10.142498970031738 15.640277862548828 10.142498970031738 17.269445419311523 L10.142498970031738 17.269445419311523 C10.467193603515625 17.373947143554688 10.791888236999512 17.478450775146484 11.116582870483398 17.58295249938965 L11.116582870483398 17.58295249938965 C11.047713279724121 17.58295249938965 7.571459770202637 17.58295249938965 7.2817702293396 17.58295249938965 L7.2817702293396 17.58295249938965 C8.005733489990234 16.313655853271484 8.148641586303711 14.517404556274414 8.110233306884766 12.674732208251953 C8.071824073791504 10.832058906555176 7.852099418640137 8.942964553833008 7.850796222686768 7.487979412078857 L7.850796222686768 7.487979412078857 C7.503827095031738 7.368365287780762 7.156857967376709 7.248751640319824 6.80988883972168 7.1291375160217285 L6.80988883972168 7.1291375160217285"></path></svg>