<svg xmlns="http://www.w3.org/2000/svg" viewBox="0.0 0.0 24.0 24.0" height="200px" width="200px"><path fill="none" stroke="black" stroke-width=".3" stroke-opacity="1.0"  filling="0" d="M14.767095565795898 7.594234943389893 L14.767095565795898 7.594234943389893 C15.701836585998535 7.594234943389893 16.636577606201172 7.594234943389893 17.571319580078125 7.594234943389893 L17.571319580078125 7.594234943389893 C17.283931732177734 7.694657325744629 16.99654197692871 7.795079708099365 16.70915412902832 7.895502090454102 L16.70915412902832 7.895502090454102 C16.70915412902832 9.372930526733398 16.70915412902832 10.850358963012695 16.70915412902832 12.327787399291992 C16.70915412902832 13.805215835571289 16.70915412902832 15.282644271850586 16.70915412902832 16.760072708129883 L16.70915412902832 16.760072708129883 C16.994773864746094 16.849445343017578 17.280393600463867 16.938817977905273 17.56601333618164 17.02819061279297 L17.56601333618164 17.02819061279297 C16.44740104675293 17.02819061279297 15.328787803649902 17.02819061279297 14.210175514221191 17.02819061279297 L14.210175514221191 17.02819061279297 C14.7326078414917 16.408615112304688 14.753314018249512 15.470076560974121 14.75911808013916 14.659660339355469 C14.775983810424805 12.304583549499512 14.768404006958008 9.949347496032715 14.767095565795898 7.594234943389893 L14.767095565795898 7.594234943389893"></path>
<path fill="none" stroke="black" stroke-width=".3" stroke-opacity="1.0"  filling="0" d="M6.771054267883301 7.600600242614746 L6.771054267883301 7.600600242614746 C7.821687698364258 7.600600242614746 8.872321128845215 7.600600242614746 9.922954559326172 7.600600242614746 L9.922954559326172 7.600600242614746 C10.733939170837402 9.911816596984863 11.544886589050293 12.223042488098145 12.3558988571167 14.534250259399414 L12.3558988571167 14.534250259399414 C12.066923141479492 15.344879150390625 11.777942657470703 16.155506134033203 11.488960266113281 16.96613311767578 L11.488960266113281 16.96613311767578 C11.397908210754395 16.95879554748535 11.306856155395508 16.951459884643555 11.215804100036621 16.944122314453125 L11.215804100036621 16.944122314453125 C10.707006454467773 15.507329940795898 10.198158264160156 14.070556640625 9.689276695251465 12.633793830871582 C9.18039608001709 11.197031021118164 8.671483993530273 9.76028060913086 8.162557601928711 8.32353401184082 L8.162557601928711 8.32353401184082 C8.069826126098633 8.345545768737793 7.977095127105713 8.367557525634766 7.884363651275635 8.389569282531738 L7.884363651275635 8.389569282531738 C7.88319206237793 9.625699996948242 7.69274377822876 11.242243766784668 7.660035133361816 12.817729949951172 C7.627326011657715 14.393217086791992 7.75235652923584 15.927645683288574 8.382143020629883 16.999547958374023 L8.382143020629883 16.999547958374023 C7.870837688446045 16.999547958374023 7.359532833099365 16.999547958374023 6.848227500915527 16.999547958374023 L6.848227500915527 16.999547958374023 C7.117847442626953 16.917070388793945 7.387466907501221 16.8345947265625 7.6570868492126465 16.752117156982422 L7.6570868492126465 16.752117156982422 C7.6570868492126465 15.277782440185547 7.6570868492126465 13.803448677062988 7.6570868492126465 12.329113960266113 C7.6570868492126465 10.854779243469238 7.6570868492126465 9.38044548034668 7.6570868492126465 7.906110763549805 L7.6570868492126465 7.906110763549805 C7.3617424964904785 7.804274082183838 7.066398620605469 7.702436923980713 6.771054267883301 7.600600242614746 L6.771054267883301 7.600600242614746"></path></svg>