<svg xmlns="http://www.w3.org/2000/svg" viewBox="0.0 0.0 24.0 24.0" height="200px" width="200px"><path fill="none" stroke="black" stroke-width=".3" stroke-opacity="1.0"  filling="0" d="M10.767908096313477 7.208948612213135 L10.767908096313477 7.208948612213135 C9.757196426391602 8.924079895019531 9.251852035522461 10.69151496887207 9.279885292053223 12.444628715515137 C9.3079195022583 14.19774341583252 9.869331359863281 15.936537742614746 10.992135047912598 17.594388961791992 L10.992135047912598 17.594388961791992 C9.583821296691895 16.84491729736328 8.863561630249023 16.67617416381836 7.89868688583374 15.382894515991211 C6.687461853027344 13.759414672851562 6.643006324768066 12.090591430664062 7.282237529754639 10.640305519104004 C7.921468734741211 9.190019607543945 9.244386672973633 7.958272933959961 10.767908096313477 7.208948612213135 L10.767908096313477 7.208948612213135"></path>
<path fill="none" stroke="black" stroke-width=".3" stroke-opacity="1.0"  filling="0" d="M13.798455238342285 7.223144054412842 L13.798455238342285 7.223144054412842 C15.435810089111328 7.775596618652344 16.746923446655273 8.968879699707031 17.375789642333984 10.425826072692871 C18.004655838012695 11.882772445678711 17.951274871826172 13.603382110595703 16.859638214111328 15.21048641204834 C15.895341873168945 16.6301212310791 15.154536247253418 16.770784378051758 13.66693115234375 17.55238151550293 L13.66693115234375 17.55238151550293 C14.782909393310547 15.940057754516602 15.388181686401367 14.169857025146484 15.428263664245605 12.396681785583496 C15.468345642089844 10.623507499694824 14.9432373046875 8.847360610961914 13.798455238342285 7.223144054412842 L13.798455238342285 7.223144054412842"></path></svg>