<svg xmlns="http://www.w3.org/2000/svg" viewBox="0.0 0.0 24.0 24.0" height="200px" width="200px"><path fill="none" stroke="black" stroke-width=".3" stroke-opacity="1.0"  filling="0" d="M7.538668632507324 4.301102161407471 C9.957167625427246 2.4683027267456055 14.498186111450195 2.551974296569824 16.957096099853516 4.310778617858887 C19.298185348510742 5.985342979431152 20.077411651611328 9.530843734741211 18.47797966003418 12.513980865478516 C17.692495346069336 13.97965145111084 16.431163787841797 15.203984260559082 15.309286117553711 16.47043800354004 C14.775952339172363 17.072072982788086 14.065031051635742 17.51604461669922 13.02454662322998 18.366987228393555 C15.226753234863281 18.366987228393555 16.877410888671875 18.366987228393555 18.77566909790039 18.366987228393555 C18.77566909790039 19.676128387451172 18.77566909790039 20.831592559814453 18.77566909790039 22.15838050842285 C14.758875846862793 22.15838050842285 10.71988582611084 22.15838050842285 6.487370014190674 22.15838050842285 C5.831660747528076 20.006832122802734 6.5551042556762695 18.655569076538086 8.235929489135742 17.452865600585938 C9.839914321899414 16.30537223815918 11.296478271484375 14.902313232421875 12.628389358520508 13.438920021057129 C14.256848335266113 11.649948120117188 14.353042602539062 9.693633079528809 13.120739936828613 8.642904281616211 C11.898683547973633 7.600712299346924 9.3538236618042 7.906937599182129 7.938811302185059 9.315119743347168 C7.362219333648682 9.888866424560547 6.875559329986572 10.55311393737793 6.047384738922119 11.531556129455566 C5.932407855987549 9.61906909942627 5.617075443267822 8.122661590576172 5.839060306549072 6.7104949951171875 C5.9773736000061035 5.8293843269348145 6.7770891189575195 4.8782639503479 7.538668632507324 4.301102161407471"></path></svg>