<svg xmlns="http://www.w3.org/2000/svg" viewBox="0.0 0.0 24.0 24.0" height="200px" width="200px"><path fill="none" stroke="black" stroke-width=".3" stroke-opacity="1.0"  filling="0" d="M15.920599937438965 10.57129192352295 L15.920599937438965 10.57129192352295 C16.286394119262695 10.573454856872559 16.65218734741211 10.575617790222168 17.017982482910156 10.577780723571777 L17.017982482910156 10.577780723571777 C15.859325408935547 12.05394172668457 14.700688362121582 13.530123710632324 13.541987419128418 15.006248474121094 L13.541987419128418 15.006248474121094 C14.846991539001465 16.59623908996582 16.152023315429688 18.186206817626953 17.457046508789062 19.77617835998535 L17.457046508789062 19.77617835998535 C14.531131744384766 19.82021713256836 13.880400657653809 19.01049041748047 12.03311824798584 16.76763153076172 L12.03311824798584 16.76763153076172 C11.344640731811523 17.574628829956055 10.470354080200195 19.16335678100586 9.483505249023438 19.62518310546875 C8.995985984802246 19.85333251953125 7.126088619232178 19.78228759765625 6.656774997711182 19.779693603515625 L6.656774997711182 19.779693603515625 C7.949637413024902 18.189184188842773 9.242486953735352 16.598663330078125 10.535334587097168 15.00814151763916 L10.535334587097168 15.00814151763916 C9.354016304016113 13.564091682434082 8.172755241394043 12.120004653930664 6.991478443145752 10.675920486450195 L6.991478443145752 10.675920486450195 C9.736473083496094 10.387287139892578 10.411949157714844 11.179682731628418 12.023116111755371 13.28460693359375 L12.023116111755371 13.28460693359375 C13.332537651062012 11.581637382507324 13.738238334655762 10.791351318359375 15.920599937438965 10.57129192352295 L15.920599937438965 10.57129192352295"></path></svg>