<svg xmlns="http://www.w3.org/2000/svg" viewBox="0.0 0.0 24.0 24.0" height="200px" width="200px"><path fill="none" stroke="black" stroke-width=".3" stroke-opacity="1.0"  filling="0" d="M15.010599136352539 9.303504943847656 C16.334056854248047 9.303504943847656 17.508773803710938 9.303504943847656 18.873926162719727 9.303504943847656 C18.872798919677734 15.495981216430664 18.872798919677734 21.712684631347656 18.872798919677734 28.503507614135742 C15.629789352416992 28.28095817565918 12.522565841674805 28.372228622436523 9.548870086669922 27.78684425354004 C5.834848880767822 27.056095123291016 4.26010799407959 23.919010162353516 4.9970526695251465 19.759328842163086 C5.602159023284912 16.34504508972168 8.636703491210938 14.096463203430176 12.145078659057617 14.484090805053711 C12.95301342010498 14.573110580444336 13.753061294555664 14.731428146362305 14.73959732055664 14.886931419372559 C14.833686828613281 12.946535110473633 14.91819953918457 11.20671558380127 15.010599136352539 9.303504943847656"></path>
<path fill="none" stroke="black" stroke-width=".3" stroke-opacity="1.0"  filling="0" d="M10.348352432250977 18.500099182128906 C11.743364334106445 17.32087516784668 13.215563774108887 17.34341049194336 14.772838592529297 18.542919158935547 C14.772838592529297 20.517681121826172 14.772838592529297 22.545970916748047 14.772838592529297 24.852022171020508 C12.624544143676758 25.044147491455078 10.715699195861816 25.361351013183594 9.644085884094238 23.223758697509766 C8.975314140319824 21.89072036743164 9.334772109985352 19.357051849365234 10.348352432250977 18.500099182128906"></path></svg>