<svg xmlns="http://www.w3.org/2000/svg" viewBox="0.0 0.0 24.0 24.0" height="200px" width="200px"><path fill="none" stroke="black" stroke-width=".3" stroke-opacity="1.0"  filling="0" d="M2.9789247512817383 14.250401496887207 C4.30869722366333 14.372454643249512 5.704481601715088 13.471059799194336 6.611100673675537 15.297595024108887 C9.123418807983398 13.650579452514648 11.656158447265625 13.119619369506836 13.912020683288574 15.922113418579102 C14.525140762329102 15.469517707824707 15.045650482177734 15.009320259094238 15.633125305175781 14.663579940795898 C18.61988639831543 12.90543270111084 21.721576690673828 14.31024169921875 22.056396484375 17.74722671508789 C22.2995548248291 20.24054718017578 22.10388946533203 22.776611328125 22.10388946533203 25.47272491455078 C20.99542999267578 25.47272491455078 19.943008422851562 25.47272491455078 18.602313995361328 25.47272491455078 C18.602313995361328 23.598697662353516 18.62083625793457 21.724191665649414 18.597564697265625 19.85016441345215 C18.57049560546875 17.675989151000977 18.052358627319336 16.813535690307617 16.80569839477539 16.764144897460938 C15.326802253723145 16.70525550842285 14.299552917480469 18.03692626953125 14.273908615112305 20.063404083251953 C14.25253677368164 21.723718643188477 14.244462966918945 23.384506225585938 14.2278413772583 25.04529571533203 C14.228316307067871 25.12128448486328 14.200296401977539 25.197269439697266 14.130483627319336 25.5401611328125 C13.033422470092773 25.5401611328125 12.043691635131836 25.5401611328125 10.749065399169922 25.5401611328125 C10.749065399169922 23.804336547851562 10.753339767456055 22.169666290283203 10.7462158203125 20.534523010253906 C10.744316101074219 20.06055450439453 10.720094680786133 19.585636138916016 10.685426712036133 19.11309051513672 C10.599466323852539 17.939090728759766 10.338735580444336 16.860553741455078 8.894033432006836 16.743247985839844 C7.7262091636657715 16.648263931274414 6.382190227508545 17.965686798095703 6.332798480987549 19.347225189208984 C6.262510776519775 21.32003402709961 6.314751625061035 23.297595977783203 6.314751625061035 25.462749481201172 C5.173048496246338 25.462749481201172 4.13297700881958 25.462749481201172 2.9789247512817383 25.462749481201172 C2.9789247512817383 21.74936294555664 2.9789247512817383 18.07586669921875 2.9789247512817383 14.250401496887207"></path></svg>