<svg xmlns="http://www.w3.org/2000/svg" viewBox="0.0 0.0 24.0 24.0" height="200px" width="200px"><path fill="none" stroke="black" stroke-width=".3" stroke-opacity="1.0"  filling="0" d="M14.318840980529785 14.211030960083008 L14.318840980529785 14.211030960083008 C15.379499435424805 14.205170631408691 16.442216873168945 14.307217597961426 17.490291595458984 14.47022819519043 L17.490291595458984 14.47022819519043 C17.358245849609375 14.81937313079834 16.586894989013672 16.85913848876953 16.3834285736084 17.39730453491211 L16.3834285736084 17.39730453491211 C15.5523042678833 17.459226608276367 13.727952003479004 17.47980308532715 12.905165672302246 17.944446563720703 C10.884658813476562 19.085466384887695 11.677650451660156 23.101341247558594 11.666683197021484 24.93286895751953 L11.666683197021484 24.93286895751953 C11.656109809875488 24.93286895751953 8.616273880004883 24.93286895751953 8.544647216796875 24.93286895751953 L8.544647216796875 24.93286895751953 C8.544647216796875 23.169029235839844 8.544647216796875 21.405193328857422 8.544647216796875 19.641353607177734 C8.544647216796875 17.87751579284668 8.544647216796875 16.113677978515625 8.544647216796875 14.349838256835938 L8.544647216796875 14.349838256835938 C8.598495483398438 14.349838256835938 11.524637222290039 14.349838256835938 11.526528358459473 14.349838256835938 L11.526528358459473 14.349838256835938 C11.60573959350586 14.86673355102539 11.684951782226562 15.383628845214844 11.76416301727295 15.900524139404297 L11.76416301727295 15.900524139404297 C12.570211410522461 15.273951530456543 13.423613548278809 14.701820373535156 14.318840980529785 14.211030960083008 L14.318840980529785 14.211030960083008"></path></svg>