<svg xmlns="http://www.w3.org/2000/svg" viewBox="0.0 0.0 24.0 24.0" height="200px" width="200px"><path fill="none" stroke="black" stroke-width=".3" stroke-opacity="1.0"  filling="0" d="M18.400907516479492 10.401816368103027 C18.400907516479492 11.745743751525879 18.400907516479492 13.058797836303711 18.400907516479492 15.166402816772461 C17.029739379882812 13.474688529968262 16.028148651123047 12.23882007598877 14.811349868774414 10.735982894897461 C16.16798973083496 10.609762191772461 17.192279815673828 10.514415740966797 18.400907516479492 10.401816368103027"></path>
<path fill="none" stroke="black" stroke-width=".3" stroke-opacity="1.0"  filling="0" d="M8.321453094482422 11.032010078430176 C7.781157493591309 14.919410705566406 8.057208061218262 15.406129837036133 11.739387512207031 16.90715217590332 C13.402044296264648 17.584564208984375 15.140068054199219 18.1066951751709 16.732805252075195 18.91759490966797 C18.920318603515625 20.03087615966797 20.033599853515625 21.875144958496094 19.846538543701172 24.421340942382812 C19.658571243286133 26.97661781311035 18.892166137695312 27.90374755859375 15.656753540039062 29.29852294921875 C16.38592529296875 25.026107788085938 15.973666191101074 24.26243019104004 11.97638988494873 22.62973976135254 C10.866742134094238 22.176616668701172 9.679001808166504 21.89330291748047 8.612031936645508 21.361183166503906 C3.6740055084228516 18.900341033935547 3.557774543762207 14.243815422058105 8.321453094482422 11.032010078430176"></path>
<path fill="none" stroke="black" stroke-width=".3" stroke-opacity="1.0"  filling="0" d="M4.476730823516846 23.37253189086914 C6.088535785675049 25.691713333129883 7.246310710906982 27.358001708984375 8.804540634155273 29.601816177368164 C7.035641193389893 29.421112060546875 5.77071475982666 29.29216957092285 4.476730823516846 29.160497665405273 C4.476730823516846 27.279001235961914 4.476730823516846 25.80340576171875 4.476730823516846 23.37253189086914"></path></svg>