<svg xmlns="http://www.w3.org/2000/svg" viewBox="0.0 0.0 24.0 24.0" height="200px" width="200px"><path fill="none" stroke="black" stroke-width=".3" stroke-opacity="1.0"  filling="0" d="M14.514328002929688 14.069209098815918 L14.514328002929688 14.069209098815918 C14.818659782409668 14.069209098815918 17.285429000854492 14.069209098815918 17.47644805908203 14.069209098815918 L17.47644805908203 14.069209098815918 C16.752466201782227 15.698781967163086 16.028459548950195 17.32834243774414 15.304461479187012 18.95790672302246 C14.580463409423828 20.58747100830078 13.856473922729492 22.217039108276367 13.132526397705078 23.84662628173828 L13.132526397705078 23.84662628173828 C12.432861328125 23.882322311401367 11.733192443847656 23.91793441772461 11.033519744873047 23.9534854888916 L11.033519744873047 23.9534854888916 C10.30735969543457 22.306821823120117 9.581138610839844 20.660184860229492 8.854883193969727 19.013561248779297 C8.12862777709961 17.366939544677734 7.402337074279785 15.720333099365234 6.676036834716797 14.073729515075684 L6.676036834716797 14.073729515075684 C7.755748748779297 14.073729515075684 8.835460662841797 14.073729515075684 9.915172576904297 14.073729515075684 L9.915172576904297 14.073729515075684 C10.656961441040039 15.792801856994629 11.398666381835938 17.51191520690918 12.140357971191406 19.231029510498047 L12.140357971191406 19.231029510498047 C12.931600570678711 17.510387420654297 13.72285270690918 15.789746284484863 14.514328002929688 14.069209098815918 L14.514328002929688 14.069209098815918"></path></svg>