<svg xmlns="http://www.w3.org/2000/svg" viewBox="0.0 0.0 24.0 24.0" height="200px" width="200px"><path fill="none" stroke="black" stroke-width=".3" stroke-opacity="1.0"  filling="0" d="M12.70669937133789 13.274369239807129 L12.70669937133789 13.274369239807129 C13.183013916015625 14.406621932983398 13.659309387207031 15.5388822555542 14.135591506958008 16.6711483001709 L14.135591506958008 16.6711483001709 C14.574931144714355 15.564351081848145 15.014262199401855 14.457551956176758 15.453585624694824 13.350748062133789 L15.453585624694824 13.350748062133789 C16.12078285217285 13.350748062133789 16.787979125976562 13.350748062133789 17.455175399780273 13.350748062133789 L17.455175399780273 13.350748062133789 C16.599945068359375 15.5006742477417 15.744661331176758 17.650588989257812 14.889312744140625 19.80046844482422 L14.889312744140625 19.80046844482422 C14.491386413574219 19.8195858001709 14.093461036682129 19.838701248168945 13.695534706115723 19.857818603515625 L13.695534706115723 19.857818603515625 C13.154011726379395 18.602243423461914 12.612488746643066 17.34667205810547 12.070940971374512 16.091110229492188 L12.070940971374512 16.091110229492188 C11.550217628479004 17.33306121826172 11.029342651367188 18.574951171875 10.508319854736328 19.816776275634766 L10.508319854736328 19.816776275634766 C10.10667896270752 19.816776275634766 9.705038070678711 19.816776275634766 9.303397178649902 19.816776275634766 L9.303397178649902 19.816776275634766 C8.420694351196289 17.664501190185547 7.538008213043213 15.512211799621582 6.655176162719727 13.359989166259766 L6.655176162719727 13.359989166259766 C7.323822498321533 13.359989166259766 7.992469310760498 13.359989166259766 8.661115646362305 13.359989166259766 L8.661115646362305 13.359989166259766 C9.115657806396484 14.458276748657227 9.570212364196777 15.556560516357422 10.024774551391602 16.65484046936035 L10.024774551391602 16.65484046936035 C10.480813980102539 15.556662559509277 10.93681812286377 14.458470344543457 11.392782211303711 13.360260963439941 L11.392782211303711 13.360260963439941 C11.830754280090332 13.33163070678711 12.26872730255127 13.302999496459961 12.70669937133789 13.274369239807129 L12.70669937133789 13.274369239807129"></path></svg>