<svg xmlns="http://www.w3.org/2000/svg" viewBox="0.0 0.0 24.0 24.0" height="200px" width="200px"><path fill="none" stroke="black" stroke-width=".3" stroke-opacity="1.0"  filling="0" d="M8.007465362548828 10.890539169311523 L8.007465362548828 10.890539169311523 C9.534097671508789 10.890539169311523 11.06072998046875 10.890539169311523 12.587361335754395 10.890539169311523 C14.113993644714355 10.890539169311523 15.640625953674316 10.890539169311523 17.16725730895996 10.890539169311523 L17.16725730895996 10.890539169311523 C16.171167373657227 12.607697486877441 15.175108909606934 14.324875831604004 14.179059028625488 16.04205894470215 C13.183008193969727 17.759241104125977 12.186965942382812 19.476428985595703 11.190905570983887 21.193603515625 L11.190905570983887 21.193603515625 C14.205133438110352 21.53653335571289 15.680800437927246 21.469724655151367 17.64742088317871 19.040729522705078 L17.64742088317871 19.040729522705078 C17.54347801208496 19.924001693725586 17.439512252807617 20.80727195739746 17.335525512695312 21.69053840637207 L17.335525512695312 21.69053840637207 C15.658186912536621 21.69053840637207 13.98084831237793 21.69053840637207 12.303510665893555 21.69053840637207 C10.626172065734863 21.69053840637207 8.948834419250488 21.69053840637207 7.271495342254639 21.69053840637207 L7.271495342254639 21.69053840637207 C8.276532173156738 19.991172790527344 9.281599044799805 18.291824340820312 10.286665916442871 16.59247589111328 C11.291732788085938 14.89312744140625 12.29680061340332 13.193778991699219 13.301839828491211 11.494413375854492 L13.301839828491211 11.494413375854492 C10.894655227661133 11.07968807220459 9.663978576660156 11.24061107635498 7.854400157928467 12.924418449401855 L7.854400157928467 12.924418449401855 C7.905313014984131 12.246450424194336 7.95634126663208 11.568490982055664 8.007465362548828 10.890539169311523 L8.007465362548828 10.890539169311523"></path></svg>