<svg xmlns="http://www.w3.org/2000/svg" viewBox="0.0 0.0 24.0 24.0" height="200px" width="200px"><path fill="none" stroke="black" stroke-width=".3" stroke-opacity="1.0"  filling="0" d="M12.477993965148926 10.174750328063965 L12.477993965148926 10.174750328063965 C13.069379806518555 10.3462553024292 13.733979225158691 10.356626510620117 14.252151489257812 10.689266204833984 C15.483856201171875 11.479957580566406 16.123851776123047 13.011350631713867 16.27945327758789 14.625020027160645 C16.43505096435547 16.238689422607422 16.10625457763672 17.934635162353516 15.400371551513672 19.054428100585938 C13.898329734802246 21.437227249145508 10.946502685546875 21.6025447845459 9.403497695922852 19.141925811767578 C8.9434175491333 18.408239364624023 8.493352890014648 16.31987953186035 8.293229103088379 15.517087936401367 L8.293229103088379 15.517087936401367 C8.723575592041016 13.898685455322266 8.973504066467285 11.590051651000977 10.599061965942383 10.621903419494629 C11.152194023132324 10.29246997833252 11.851683616638184 10.323801040649414 12.477993965148926 10.174750328063965 L12.477993965148926 10.174750328063965"></path>
<path fill="none" stroke="black" stroke-width=".3" stroke-opacity="1.0"  filling="0" d="M12.360196113586426 12.220600128173828 L12.360196113586426 12.220600128173828 C13.779025077819824 13.231742858886719 13.860164642333984 14.7599458694458 13.667791366577148 16.457523345947266 C13.613208770751953 16.939186096191406 13.49616527557373 18.88732147216797 12.373799324035645 18.902000427246094 C11.27830982208252 18.91632843017578 11.269044876098633 17.45056915283203 11.159839630126953 16.871919631958008 C10.828575134277344 15.1166410446167 10.869453430175781 13.334078788757324 12.360196113586426 12.220600128173828 L12.360196113586426 12.220600128173828"></path></svg>