<svg xmlns="http://www.w3.org/2000/svg" viewBox="0.0 0.0 24.0 24.0" height="200px" width="200px"><path fill="none" stroke="black" stroke-width=".3" stroke-opacity="1.0"  filling="0" d="M7.701771259307861 9.10667610168457 C9.883145332336426 9.10667610168457 11.914253234863281 9.00500774383545 13.930837631225586 9.13460636138916 C16.016130447387695 9.268671989440918 18.098072052001953 9.763601303100586 18.87453842163086 12.039938926696777 C19.647098541259766 14.305105209350586 18.93598747253418 16.240131378173828 16.947893142700195 17.645036697387695 C17.04509162902832 17.812061309814453 17.089221954345703 18.007015228271484 17.207088470458984 18.07404899597168 C19.362207412719727 19.304668426513672 20.528587341308594 21.086078643798828 19.946514129638672 23.59758949279785 C19.38064193725586 26.038715362548828 17.629955291748047 27.429656982421875 15.212289810180664 27.66874122619629 C11.920397758483887 27.994415283203125 8.603368759155273 28.06591796875 4.890284538269043 28.268692016601562 C5.872880935668945 21.572071075439453 6.7716851234436035 15.444669723510742 7.701771259307861 9.10667610168457"></path>
<path fill="none" stroke="black" stroke-width=".3" stroke-opacity="1.0"  filling="0" d="M11.397539138793945 11.628804206848145 C14.5587158203125 11.905316352844238 15.243014335632324 12.476216316223145 15.085484504699707 14.341974258422852 C14.92907428741455 16.195444107055664 13.764930725097656 16.81159210205078 10.69648265838623 16.528934478759766 C10.925512313842773 14.929075241088867 11.152308464050293 13.341503143310547 11.397539138793945 11.628804206848145"></path>
<path fill="none" stroke="black" stroke-width=".3" stroke-opacity="1.0"  filling="0" d="M10.269702911376953 19.40801429748535 C12.362257957458496 19.073406219482422 14.274940490722656 19.10189437866211 15.342445373535156 20.91123390197754 C15.807209968566895 21.699434280395508 15.825643539428711 23.248462677001953 15.343562126159668 24.002586364746094 C14.027475357055664 26.062740325927734 11.76622200012207 25.297443389892578 9.339058876037598 25.519771575927734 C9.693217277526855 23.196510314941406 9.978668212890625 21.322372436523438 10.269702911376953 19.40801429748535"></path></svg>