<svg xmlns="http://www.w3.org/2000/svg" viewBox="0.0 0.0 24.0 24.0" height="200px" width="200px"><path fill="none" stroke="black" stroke-width=".3" stroke-opacity="1.0"  filling="0" d="M8.874483108520508 8.920991897583008 L8.874483108520508 8.920991897583008 C10.161752700805664 8.920991897583008 11.449021339416504 8.920991897583008 12.73629093170166 8.920991897583008 C14.023560523986816 8.920991897583008 15.310829162597656 8.920991897583008 16.598098754882812 8.920991897583008 L16.598098754882812 8.920991897583008 C16.35203742980957 9.581290245056152 16.10593032836914 10.241572380065918 15.85976791381836 10.901833534240723 L15.85976791381836 10.901833534240723 C14.935138702392578 8.760787963867188 13.976506233215332 9.187005996704102 11.777362823486328 8.995641708374023 L11.777362823486328 8.995641708374023 C11.254782676696777 10.469376564025879 10.732219696044922 11.943120956420898 10.209720611572266 13.416885375976562 L10.209720611572266 13.416885375976562 C11.29814338684082 13.352230072021484 12.409772872924805 12.939435005187988 13.275605201721191 12.276728630065918 L13.275605201721191 12.276728630065918 C12.84995174407959 13.483657836914062 12.424314498901367 14.690591812133789 11.998687744140625 15.897529602050781 L11.998687744140625 15.897529602050781 C11.852340698242188 15.343416213989258 11.948393821716309 14.656301498413086 11.559647560119629 14.235189437866211 C11.21094799041748 13.857458114624023 10.570466995239258 13.954815864562988 10.075876235961914 13.814628601074219 L10.075876235961914 13.814628601074219 C9.463787078857422 15.53879165649414 8.851633071899414 17.26293182373047 8.23937702178955 18.98703384399414 L8.23937702178955 18.98703384399414 C10.91103744506836 19.243642807006836 12.237686157226562 19.089645385742188 13.980986595153809 16.962451934814453 L13.980986595153809 16.962451934814453 C14.062634468078613 17.03632354736328 14.144283294677734 17.110197067260742 14.225931167602539 17.18406867980957 L14.225931167602539 17.18406867980957 C13.98141860961914 17.886743545532227 13.736861228942871 18.58940315246582 13.492263793945312 19.29204750061035 L13.492263793945312 19.29204750061035 C12.209903717041016 19.29204750061035 10.927542686462402 19.29204750061035 9.645181655883789 19.29204750061035 C8.362821578979492 19.29204750061035 7.080460548400879 19.29204750061035 5.798099517822266 19.29204750061035 L5.798099517822266 19.29204750061035 C6.786015510559082 17.85028076171875 7.489785671234131 16.16555404663086 8.092489242553711 14.430407524108887 C8.69519329071045 12.695261001586914 9.196831703186035 10.90969467163086 9.780484199523926 9.266246795654297 L9.780484199523926 9.266246795654297 C9.478484153747559 9.151162147521973 9.176483154296875 9.036076545715332 8.874483108520508 8.920991897583008 L8.874483108520508 8.920991897583008"></path></svg>