<svg xmlns="http://www.w3.org/2000/svg" viewBox="0.0 0.0 24.0 24.0" height="200px" width="200px"><path fill="none" stroke="black" stroke-width=".3" stroke-opacity="1.0"  filling="0" d="M13.257734298706055 9.35824966430664 L13.257734298706055 9.35824966430664 C14.25139331817627 9.35824966430664 15.245051383972168 9.35824966430664 16.238710403442383 9.35824966430664 L16.238710403442383 9.35824966430664 C15.300511360168457 10.457117080688477 14.666762351989746 11.902755737304688 14.146880149841309 13.41267204284668 C13.626996994018555 14.922588348388672 13.22098159790039 16.496780395507812 12.738248825073242 17.852754592895508 L12.738248825073242 17.852754592895508 C12.999394416809082 17.964921951293945 13.260540962219238 18.077089309692383 13.521686553955078 18.18925666809082 L13.521686553955078 18.18925666809082 C12.465217590332031 18.18925666809082 11.408748626708984 18.18925666809082 10.352279663085938 18.18925666809082 L10.352279663085938 18.18925666809082 C11.859654426574707 17.058237075805664 12.008156776428223 15.57717514038086 12.538675308227539 13.77734375 L12.538675308227539 13.77734375 C11.393562316894531 13.77734375 10.248449325561523 13.77734375 9.103336334228516 13.77734375 L9.103336334228516 13.77734375 C8.612380027770996 15.14004135131836 8.121347427368164 16.502716064453125 7.63030481338501 17.86538314819336 L7.63030481338501 17.86538314819336 C7.8711466789245605 17.970947265625 8.11198902130127 18.07651138305664 8.35283088684082 18.18207550048828 L8.35283088684082 18.18207550048828 C7.381457328796387 18.18207550048828 6.410083293914795 18.18207550048828 5.438709735870361 18.18207550048828 L5.438709735870361 18.18207550048828 C6.319851398468018 17.283843994140625 7.118390083312988 15.720619201660156 7.712089538574219 14.06646728515625 C8.30578899383545 12.412315368652344 8.694649696350098 10.667236328125 8.756434440612793 9.405296325683594 L8.756434440612793 9.405296325683594 C9.502978324890137 9.405296325683594 10.24952220916748 9.405296325683594 10.996066093444824 9.405296325683594 L10.996066093444824 9.405296325683594 C10.086682319641113 10.722027778625488 9.72325325012207 11.995773315429688 9.170685768127441 13.492591857910156 L9.170685768127441 13.492591857910156 C9.172444343566895 13.492591857910156 12.691152572631836 13.492591857910156 12.724382400512695 13.492591857910156 L12.724382400512695 13.492591857910156 C13.180458068847656 12.222346305847168 13.636560440063477 10.952108383178711 14.092676162719727 9.681876182556152 L14.092676162719727 9.681876182556152 C13.814362525939941 9.574000358581543 13.53604793548584 9.46612548828125 13.257734298706055 9.35824966430664 L13.257734298706055 9.35824966430664"></path></svg>