<svg xmlns="http://www.w3.org/2000/svg" viewBox="0.0 0.0 24.0 24.0" height="200px" width="200px"><path fill="none" stroke="black" stroke-width=".3" stroke-opacity="1.0"  filling="0" d="M10.173760414123535 10.515296936035156 L10.173760414123535 10.515296936035156 C10.21414852142334 10.515296936035156 12.459516525268555 10.515296936035156 12.47230339050293 10.515296936035156 L12.47230339050293 10.515296936035156 C12.262157440185547 11.998176574707031 12.052030563354492 13.481058120727539 11.84190845489502 14.963940620422363 C11.631786346435547 16.446823120117188 11.421669006347656 17.929706573486328 11.211542129516602 19.41259002685547 L11.211542129516602 19.41259002685547 C12.805486679077148 19.41259002685547 14.39942741394043 19.41259002685547 15.993371963500977 19.41259002685547 L15.993371963500977 19.41259002685547 C15.884346008300781 20.046825408935547 15.775320053100586 20.681060791015625 15.66629409790039 21.315296173095703 L15.66629409790039 21.315296173095703 C13.30734920501709 21.315547943115234 10.948402404785156 21.315610885620117 8.589456558227539 21.31561851501465 L8.589456558227539 21.31561851501465 C8.853463172912598 19.51555824279785 9.117497444152832 17.71550178527832 9.381551742553711 15.915449142456055 C9.645605087280273 14.115396499633789 9.909677505493164 12.315345764160156 10.173760414123535 10.515296936035156 L10.173760414123535 10.515296936035156"></path></svg>