<svg xmlns="http://www.w3.org/2000/svg" viewBox="0.0 0.0 24.0 24.0" height="200px" width="200px"><path fill="none" stroke="black" stroke-width=".3" stroke-opacity="1.0"  filling="0" d="M15.521801948547363 7.725070476531982 C17.948225021362305 8.336310386657715 19.486255645751953 9.918031692504883 19.984073638916016 12.366964340209961 C20.894977569580078 16.849096298217773 18.55769920349121 21.217369079589844 14.813909530639648 22.39836311340332 C14.539844512939453 22.48486328125 14.290493965148926 22.649921417236328 14.032316207885742 22.7774658203125 C14.973670959472656 25.25243377685547 16.373565673828125 25.54415512084961 18.970783233642578 23.773544311523438 C19.364892959594727 25.098854064941406 18.266864776611328 25.7652587890625 17.781404495239258 26.673072814941406 C15.869128227233887 26.673072814941406 13.95641040802002 26.673072814941406 12.044133186340332 26.673072814941406 C11.274015426635742 25.612560272216797 10.512722969055176 24.545867919921875 9.728482246398926 23.495506286621094 C9.429702758789062 23.095218658447266 9.138867378234863 22.64904022216797 8.7425537109375 22.367469787597656 C5.102475643157959 19.782608032226562 4.207020282745361 15.291648864746094 6.589311599731445 11.401337623596191 C8.469812393188477 8.330573081970215 12.016770362854004 6.8419718742370605 15.521801948547363 7.725070476531982"></path>
<path fill="none" stroke="black" stroke-width=".3" stroke-opacity="1.0"  filling="0" d="M14.612665176391602 10.456894874572754 C15.991816520690918 10.950740814208984 16.95302963256836 12.740328788757324 16.84225845336914 14.720569610595703 C16.618946075439453 16.400707244873047 16.10435676574707 18.047306060791016 14.612665176391602 19.21108627319336 C13.42460823059082 20.13875961303711 12.090031623840332 20.366044998168945 10.701169967651367 19.807323455810547 C9.327314376831055 19.254779815673828 8.748732566833496 18.04421615600586 8.671500205993652 16.67080307006836 C8.574849128723145 14.954916000366211 9.01308822631836 13.338329315185547 10.131855964660645 11.975065231323242 C11.311528205871582 10.537657737731934 13.139951705932617 9.9295072555542 14.612665176391602 10.456894874572754"></path></svg>