<svg xmlns="http://www.w3.org/2000/svg" viewBox="0.0 0.0 24.0 24.0" height="200px" width="200px"><path fill="none" stroke="black" stroke-width=".3" stroke-opacity="1.0"  filling="0" d="M12.153112411499023 10.246058464050293 L12.153112411499023 10.246058464050293 C13.305208206176758 10.2647066116333 14.46618366241455 10.489256858825684 15.552385330200195 10.87375545501709 L15.552385330200195 10.87375545501709 C15.442115783691406 11.421473503112793 15.331846237182617 11.969191551208496 15.221576690673828 12.5169095993042 L15.221576690673828 12.5169095993042 C14.513448715209961 12.30276107788086 12.599794387817383 11.352977752685547 11.925932884216309 12.60311222076416 C11.136463165283203 14.067719459533691 14.151603698730469 15.636674880981445 14.688496589660645 16.655925750732422 C15.568244934082031 18.326061248779297 14.67223834991455 20.40974235534668 12.84211540222168 20.88946533203125 C11.404553413391113 21.266286849975586 9.798047065734863 20.689722061157227 8.418360710144043 20.36234474182129 L8.418360710144043 20.36234474182129 C8.558195114135742 19.73039436340332 8.698028564453125 19.09844398498535 8.837862968444824 18.466493606567383 L8.837862968444824 18.466493606567383 C9.781023979187012 18.816551208496094 13.297187805175781 20.226511001586914 12.650726318359375 17.65094566345215 C12.093742370605469 15.431867599487305 8.475516319274902 15.1588716506958 9.555187225341797 12.141597747802734 C9.743892669677734 11.614236831665039 10.111444473266602 11.127881050109863 10.563913345336914 10.797743797302246 C11.016898155212402 10.467229843139648 11.623379707336426 10.429953575134277 12.153112411499023 10.246058464050293 L12.153112411499023 10.246058464050293"></path></svg>