<svg xmlns="http://www.w3.org/2000/svg" viewBox="0.0 0.0 24.0 24.0" height="200px" width="200px"><path fill="none" stroke="black" stroke-width=".3" stroke-opacity="1.0"  filling="0" d="M13.011824607849121 13.432855606079102 L13.011824607849121 13.432855606079102 C11.38931941986084 14.670855522155762 10.053524017333984 16.14545440673828 9.28579044342041 17.824748992919922 C8.518057823181152 19.504045486450195 8.31838607788086 21.388038635253906 8.96812915802002 23.444828033447266 L8.96812915802002 23.444828033447266 C8.395858764648438 23.353384017944336 7.78066873550415 23.40638542175293 7.251318454742432 23.170495986938477 C5.064577102661133 22.1960391998291 6.182074546813965 18.71149444580078 7.0587897300720215 17.28105354309082 C8.454333305358887 15.004096031188965 10.505922317504883 13.982098579406738 13.011824607849121 13.432855606079102 L13.011824607849121 13.432855606079102"></path>
<path fill="none" stroke="black" stroke-width=".3" stroke-opacity="1.0"  filling="0" d="M16.837575912475586 13.913775444030762 L16.837575912475586 13.913775444030762 C16.41015625 15.553895950317383 15.821306228637695 17.080894470214844 15.326519966125488 18.627546310424805 C14.831733703613281 20.174198150634766 14.431009292602539 21.740503311157227 14.379837036132812 23.459238052368164 L14.379837036132812 23.459238052368164 C13.802196502685547 23.358154296875 13.162018775939941 23.436260223388672 12.6469144821167 23.15598487854004 C10.709535598754883 22.10182762145996 12.902878761291504 18.648035049438477 13.352018356323242 17.316593170166016 C13.454873085021973 17.011686325073242 14.165470123291016 14.55387020111084 14.367128372192383 14.256103515625 C14.974859237670898 13.358732223510742 16.027212142944336 13.822515487670898 16.837575912475586 13.913775444030762 L16.837575912475586 13.913775444030762"></path></svg>