<svg xmlns="http://www.w3.org/2000/svg" viewBox="0.0 0.0 24.0 24.0" height="200px" width="200px"><path fill="none" stroke="black" stroke-width=".3" stroke-opacity="1.0"  filling="0" d="M17.388629913330078 14.430203437805176 L17.388629913330078 14.430203437805176 C17.311689376831055 15.247066497802734 17.234737396240234 16.063928604125977 17.157773971557617 16.880788803100586 L17.157773971557617 16.880788803100586 C15.791838645935059 16.762470245361328 13.717595100402832 16.527217864990234 12.51491928100586 17.51242446899414 C11.071792602539062 18.694602966308594 10.577585220336914 21.159990310668945 12.671916007995605 22.059913635253906 C13.838558197021484 22.561214447021484 15.642120361328125 21.871519088745117 16.781452178955078 21.59058380126953 L16.781452178955078 21.59058380126953 C16.66309928894043 22.47007179260254 16.518829345703125 23.34644889831543 16.349349975585938 24.217531204223633 L16.349349975585938 24.217531204223633 C14.170628547668457 24.90955352783203 11.660116195678711 25.297590255737305 9.712804794311523 23.677087783813477 C8.02912712097168 22.27597427368164 7.818037509918213 20.287782669067383 8.45376968383789 18.494062423706055 C9.089502334594727 16.70034408569336 10.57205581665039 15.10109806060791 12.275662422180176 14.477873802185059 C14.0214262008667 13.839227676391602 15.624221801757812 14.102513313293457 17.388629913330078 14.430203437805176 L17.388629913330078 14.430203437805176"></path></svg>