<svg xmlns="http://www.w3.org/2000/svg" viewBox="0.0 0.0 24.0 24.0" height="200px" width="200px"><path fill="none" stroke="black" stroke-width=".3" stroke-opacity="1.0"  filling="0" d="M14.963626861572266 5.958084583282471 C15.700010299682617 6.893215656280518 16.55258560180664 7.502707004547119 16.536279678344727 8.086718559265137 C16.519460678100586 8.685508728027344 15.758105278015137 9.48304557800293 15.126702308654785 9.786262512207031 C14.389299392700195 10.140439987182617 13.131586074829102 8.992802619934082 13.37059211730957 8.185583114624023 C13.575963973999023 7.493025302886963 14.23692512512207 6.935003757476807 14.963626861572266 5.958084583282471"></path>
<path fill="none" stroke="black" stroke-width=".3" stroke-opacity="1.0"  filling="0" d="M11.505425453186035 13.801974296569824 C12.15160846710205 13.842233657836914 13.137190818786621 13.90389633178711 14.213993072509766 13.97116470336914 C13.711009979248047 17.921138763427734 11.108440399169922 21.183143615722656 11.473320007324219 25.15298843383789 C9.007835388183594 25.226882934570312 8.368276596069336 24.542987823486328 9.072555541992188 22.134578704833984 C9.712623596191406 19.94428253173828 10.520861625671387 17.802907943725586 11.212400436401367 15.62688159942627 C11.388724327087402 15.071917533874512 11.404012680053711 14.465484619140625 11.505425453186035 13.801974296569824"></path></svg>