<svg xmlns="http://www.w3.org/2000/svg" viewBox="0.0 0.0 24.0 24.0" height="200px" width="200px"><path fill="none" stroke="black" stroke-width=".3" stroke-opacity="1.0"  filling="0" d="M12.597677230834961 6.82363224029541 C13.168510437011719 7.697706699371338 13.838132858276367 8.274123191833496 13.76425552368164 8.72984504699707 C13.682217597961426 9.234960556030273 12.920248031616211 9.629690170288086 12.454647064208984 10.072525978088379 C12.009234428405762 9.598764419555664 11.248124122619629 9.148197174072266 11.211185455322266 8.64479923248291 C11.177252769470215 8.180058479309082 11.921182632446289 7.659049987792969 12.597677230834961 6.82363224029541"></path>
<path fill="none" stroke="black" stroke-width=".3" stroke-opacity="1.0"  filling="0" d="M10.694042205810547 11.5328950881958 C11.587874412536621 11.5328950881958 12.467962265014648 11.5328950881958 13.560233116149902 11.5328950881958 C12.989830017089844 15.597018241882324 12.479558944702148 19.588125228881836 11.832701683044434 23.55646514892578 C11.692248344421387 24.420230865478516 11.0599946975708 25.203248977661133 10.654096603393555 26.023632049560547 C9.365534782409668 26.023632049560547 8.076972961425781 26.023632049560547 6.788411617279053 26.023632049560547 C6.760063171386719 25.13538360595703 6.797431468963623 24.355377197265625 7.923634052276611 24.055999755859375 C9.140896797180176 23.73257064819336 9.100521087646484 22.535926818847656 9.25171184539795 21.599140167236328 C9.637422561645508 19.21401023864746 9.911026000976562 16.811275482177734 10.2417573928833 14.417125701904297 C10.368036270141602 13.50181770324707 10.526959419250488 12.59123420715332 10.694042205810547 11.5328950881958"></path></svg>