<svg xmlns="http://www.w3.org/2000/svg" viewBox="0.0 0.0 24.0 24.0" height="200px" width="200px"><path fill="none" stroke="black" stroke-width=".3" stroke-opacity="1.0"  filling="0" d="M9.464811325073242 13.686624526977539 L9.464811325073242 13.686624526977539 C10.398653984069824 13.736701011657715 11.332500457763672 13.786705017089844 12.266348838806152 13.83668041229248 L12.266348838806152 13.83668041229248 C12.139053344726562 15.756256103515625 11.585114479064941 17.497926712036133 10.950636863708496 19.220048904418945 C10.316160202026367 20.942171096801758 9.601143836975098 22.644744873046875 9.151695251464844 24.486125946044922 L9.151695251464844 24.486125946044922 C9.132901191711426 24.486125946044922 6.7682037353515625 24.486125946044922 6.710791110992432 24.486125946044922 L6.710791110992432 24.486125946044922 C6.649852275848389 22.677330017089844 7.326895713806152 20.912425994873047 8.024904251098633 19.13223648071289 C8.72291374206543 17.352046966552734 9.441887855529785 15.55656909942627 9.464811325073242 13.686624526977539 L9.464811325073242 13.686624526977539"></path>
<path fill="none" stroke="black" stroke-width=".3" stroke-opacity="1.0"  filling="0" d="M15.264460563659668 13.903705596923828 L15.264460563659668 13.903705596923828 C16.257707595825195 14.156580924987793 18.601558685302734 15.62488842010498 16.452898025512695 16.872304916381836 C15.967254638671875 17.154247283935547 15.329816818237305 16.879640579223633 14.76827621459961 16.88330841064453 L14.76827621459961 16.88330841064453 C14.791513442993164 16.74382209777832 15.226868629455566 14.129547119140625 15.264460563659668 13.903705596923828 L15.264460563659668 13.903705596923828"></path></svg>