<svg xmlns="http://www.w3.org/2000/svg" viewBox="0.0 0.0 24.0 24.0" height="200px" width="200px"><path fill="none" stroke="black" stroke-width=".3" stroke-opacity="1.0"  filling="0" d="M11.574798583984375 14.327921867370605 L11.574798583984375 14.327921867370605 C13.498737335205078 14.110907554626465 14.421530723571777 14.302027702331543 16.14167022705078 15.196033477783203 L16.14167022705078 15.196033477783203 C16.059898376464844 15.843302726745605 15.978124618530273 16.490571975708008 15.89635181427002 17.137840270996094 L15.89635181427002 17.137840270996094 C14.182243347167969 16.652389526367188 13.536508560180664 16.345685958862305 11.802838325500488 16.921459197998047 L11.802838325500488 16.921459197998047 C12.970510482788086 18.129898071289062 15.103458404541016 19.514789581298828 15.529441833496094 21.260263442993164 C16.06894874572754 23.470903396606445 14.850418090820312 24.39554214477539 13.222213745117188 24.636146545410156 C11.594008445739746 24.876750946044922 9.556129455566406 24.433319091796875 8.456938743591309 23.907814025878906 L8.456938743591309 23.907814025878906 C8.528489112854004 23.272926330566406 8.600040435791016 22.638038635253906 8.671590805053711 22.003150939941406 L8.671590805053711 22.003150939941406 C10.476369857788086 22.391630172729492 11.225327491760254 22.716279983520508 13.019923210144043 22.11544418334961 L13.019923210144043 22.11544418334961 C12.28565502166748 21.262344360351562 10.831313133239746 20.11106300354004 9.92273235321045 18.867080688476562 C9.014152526855469 17.623096466064453 8.65133285522461 16.286413192749023 10.100109100341797 15.062509536743164 C10.519623756408691 14.708109855651855 11.083235740661621 14.572784423828125 11.574798583984375 14.327921867370605 L11.574798583984375 14.327921867370605"></path></svg>