<svg xmlns="http://www.w3.org/2000/svg" viewBox="0.0 0.0 24.0 24.0" height="200px" width="200px"><path fill="none" stroke="black" stroke-width=".3" stroke-opacity="1.0"  filling="0" d="M11.244085311889648 16.13852882385254 C14.098055839538574 15.436744689941406 16.769287109375 15.86518383026123 19.36296844482422 17.68183708190918 C19.22015380859375 18.812829971313477 19.081180572509766 19.912342071533203 18.926847457885742 21.13393783569336 C16.55276107788086 20.91971778869629 14.475820541381836 18.67769432067871 11.649491310119629 20.7492618560791 C12.55397891998291 21.69137191772461 13.268815040588379 22.493738174438477 14.046611785888672 23.230073928833008 C14.970293998718262 24.1046142578125 16.06443214416504 24.823291778564453 16.880619049072266 25.783061981201172 C19.789104461669922 29.20368003845215 18.38323402404785 33.585601806640625 14.0404691696167 34.69970703125 C11.182660102844238 35.43373489379883 8.509125709533691 34.89472961425781 5.701223850250244 33.16944885253906 C5.842502117156982 31.917139053344727 5.9538350105285645 30.930496215820312 6.082828521728516 29.78338050842285 C8.602031707763672 29.766489028930664 10.879373550415039 32.178199768066406 13.813196182250977 29.98301124572754 C12.916387557983398 28.965656280517578 12.18082046508789 28.029687881469727 11.337759017944336 27.20351791381836 C10.430968284606934 26.315156936645508 9.29920768737793 25.635639190673828 8.483019828796387 24.678939819335938 C5.639030933380127 21.34585189819336 7.000367641448975 17.181987762451172 11.244085311889648 16.13852882385254"></path></svg>