<svg xmlns="http://www.w3.org/2000/svg" viewBox="0.0 0.0 24.0 24.0" height="200px" width="200px"><path fill="none" stroke="black" stroke-width=".3" stroke-opacity="1.0"  filling="0" d="M12.629589080810547 11.59351921081543 L12.629589080810547 11.59351921081543 C13.058144569396973 11.59351921081543 13.486699104309082 11.59351921081543 13.915254592895508 11.59351921081543 L13.915254592895508 11.59351921081543 C13.884922981262207 12.309313774108887 14.096930503845215 13.071435928344727 14.504908561706543 13.660364151000977 L14.504908561706543 13.660364151000977 C13.304676055908203 14.544160842895508 12.481412887573242 16.00931167602539 11.954289436340332 17.61258316040039 C11.427165985107422 19.21585464477539 11.196184158325195 20.957244873046875 11.18051528930664 22.393516540527344 L11.18051528930664 22.393516540527344 C10.655352592468262 22.30535125732422 10.082145690917969 22.365509033203125 9.605026245117188 22.12902069091797 C8.602275848388672 21.631999969482422 9.054978370666504 20.48485565185547 9.248960494995117 19.7410945892334 C9.743553161621094 17.844743728637695 10.586772918701172 15.972249031066895 11.261200904846191 14.134286880493164 L11.261200904846191 14.134286880493164 C11.068045616149902 14.015704154968262 10.874889373779297 13.897122383117676 10.681734085083008 13.778539657592773 L10.681734085083008 13.778539657592773 C11.330982208251953 13.050166130065918 11.980274200439453 12.321832656860352 12.629589080810547 11.59351921081543 L12.629589080810547 11.59351921081543"></path></svg>