<svg xmlns="http://www.w3.org/2000/svg" viewBox="0.0 0.0 24.0 24.0" height="200px" width="200px"><path fill="none" stroke="black" stroke-width=".3" stroke-opacity="1.0"  filling="0" d="M4.148061275482178 15.590907096862793 C5.928999423980713 15.590907096862793 7.381170749664307 15.590907096862793 8.903292655944824 15.590907096862793 C9.651762008666992 16.956340789794922 10.370153427124023 18.2672119140625 11.326375961303711 20.011775970458984 C13.62075138092041 17.269718170166016 15.57586669921875 13.893908500671387 20.103759765625 15.879101753234863 C17.966073989868164 18.510639190673828 15.80670166015625 21.16875648498535 13.557095527648926 23.937395095825195 C15.047740936279297 26.603206634521484 16.49851417541504 29.196969985961914 18.124860763549805 32.10411071777344 C16.269775390625 32.10411071777344 14.906440734863281 32.10411071777344 13.310172080993652 32.10411071777344 C12.472864151000977 30.59317970275879 11.588690757751465 28.999011993408203 10.544330596923828 27.113845825195312 C9.011716842651367 28.933958053588867 7.6805596351623535 30.514135360717773 6.308831214904785 32.14258575439453 C4.708364963531494 32.14258575439453 3.107198715209961 32.14258575439453 0.9037590026855469 32.14258575439453 C3.505915641784668 29.07105827331543 5.807985782623291 26.35418128967285 8.32480239868164 23.383386611938477 C6.991547107696533 20.895950317382812 5.644301414489746 18.38193130493164 4.148061275482178 15.590907096862793"></path></svg>