<svg xmlns="http://www.w3.org/2000/svg" viewBox="0.0 0.0 24.0 24.0" height="200px" width="200px"><path fill="none" stroke="black" stroke-width=".3" stroke-opacity="1.0"  filling="0" d="M12.788334846496582 9.04593276977539 L12.788334846496582 9.04593276977539 C13.329408645629883 9.338421821594238 14.030288696289062 9.440755844116211 14.4115571975708 9.923399925231934 C15.960625648498535 11.88435173034668 13.34109115600586 12.883406639099121 12.101418495178223 13.307902336120605 L12.101418495178223 13.307902336120605 C12.387229919433594 12.636234283447266 14.161528587341309 9.583827018737793 12.240406036376953 9.247879981994629 C10.16137409210205 8.884319305419922 11.379928588867188 10.505594253540039 10.78727912902832 11.049958229064941 C10.471266746520996 11.340224266052246 9.413773536682129 11.060266494750977 9.561342239379883 10.657350540161133 C10.207533836364746 8.893009185791016 11.201696395874023 9.259444236755371 12.788334846496582 9.04593276977539 L12.788334846496582 9.04593276977539"></path>
<path fill="none" stroke="black" stroke-width=".3" stroke-opacity="1.0"  filling="0" d="M11.464395523071289 14.07678508758545 L11.464395523071289 14.07678508758545 C11.859688758850098 14.095259666442871 12.27816104888916 13.997568130493164 12.650276184082031 14.132209777832031 C15.757416725158691 15.256461143493652 12.693870544433594 18.299409866333008 11.258587837219238 19.0179500579834 L11.258587837219238 19.0179500579834 C12.173014640808105 16.902341842651367 12.408884048461914 16.219196319580078 11.464395523071289 14.07678508758545 L11.464395523071289 14.07678508758545"></path>
<path fill="none" stroke="black" stroke-width=".3" stroke-opacity="1.0"  filling="0" d="M7.610179901123047 18.022768020629883 L7.610179901123047 18.022768020629883 C8.282593727111816 18.338611602783203 8.665457725524902 19.111587524414062 8.967975616455078 19.79010009765625 L8.967975616455078 19.79010009765625 C8.053221702575684 19.419322967529297 6.5033488273620605 19.083269119262695 7.610179901123047 18.022768020629883 L7.610179901123047 18.022768020629883"></path></svg>