<svg xmlns="http://www.w3.org/2000/svg" viewBox="0.0 0.0 24.0 24.0" height="200px" width="200px"><path fill="none" stroke="black" stroke-width=".3" stroke-opacity="1.0"  filling="0" d="M13.45904541015625 10.448022842407227 L13.45904541015625 10.448022842407227 C15.361165046691895 10.707499504089355 15.936827659606934 10.484766960144043 16.773361206054688 12.318907737731934 L16.773361206054688 12.318907737731934 C14.542570114135742 11.522895812988281 12.094866752624512 10.8529052734375 10.202296257019043 12.812196731567383 C9.029703140258789 14.026128768920898 8.787893295288086 15.697114944458008 9.258807182312012 17.128305435180664 C9.729721069335938 18.55949592590332 10.913360595703125 19.750892639160156 12.591665267944336 20.00564193725586 C14.060302734375 20.228567123413086 15.381708145141602 19.697872161865234 16.738452911376953 19.255573272705078 L16.738452911376953 19.255573272705078 C16.83480453491211 19.313650131225586 16.931156158447266 19.371726989746094 17.027507781982422 19.4298038482666 L17.027507781982422 19.4298038482666 C16.266765594482422 20.733928680419922 14.937881469726562 21.273229598999023 13.542150497436523 21.254714965820312 C12.146419525146484 21.23619842529297 10.683843612670898 20.659870147705078 9.655717849731445 19.732738494873047 C8.456157684326172 18.651012420654297 7.847275257110596 17.124069213867188 7.864940643310547 15.614618301391602 C7.882606506347656 14.105168342590332 8.526820182800293 12.613210678100586 9.833455085754395 11.601458549499512 C11.203497886657715 10.540608406066895 11.794059753417969 10.684627532958984 13.45904541015625 10.448022842407227 L13.45904541015625 10.448022842407227"></path></svg>