<svg xmlns="http://www.w3.org/2000/svg" viewBox="0.0 0.0 24.0 24.0" height="200px" width="200px"><path fill="none" stroke="black" stroke-width=".3" stroke-opacity="1.0"  filling="0" d="M12.02630615234375 3.0157251358032227 C13.105127334594727 3.0157251358032227 14.6517333984375 3.0157251358032227 15.699819564819336 3.0157251358032227 C16.284290313720703 3.1188669204711914 16.369199752807617 3.1339731216430664 16.454631805419922 3.1490793228149414 C16.386911392211914 3.1944007873535156 16.272830963134766 3.229302406311035 16.259286880493164 3.287123680114746 C16.09623908996582 3.9966135025024414 15.825881958007812 4.707667350769043 15.815984725952148 5.42184591293335 C15.769102096557617 8.796354293823242 15.841509819030762 12.172945022583008 15.768060684204102 15.546931266784668 C15.742016792297363 16.737751007080078 15.610743522644043 17.99159812927246 15.201823234558105 19.095947265625 C14.08810043334961 22.10529327392578 9.828554153442383 23.253395080566406 7.431288242340088 21.124401092529297 C6.732737064361572 20.503990173339844 6.3352766036987305 19.211071014404297 6.334234714508057 18.226015090942383 C6.332151412963867 17.029987335205078 7.68914270401001 16.338729858398438 8.825265884399414 16.694515228271484 C10.129644393920898 17.102914810180664 10.319257736206055 17.961387634277344 9.743643760681152 19.1272029876709 C9.480058670043945 19.660619735717773 9.31909465789795 20.246652603149414 9.063323974609375 20.937911987304688 C11.06677532196045 22.16571807861328 11.80439567565918 22.00735855102539 12.315936088562012 20.301353454589844 C12.534722328186035 19.57102394104004 12.584209442138672 18.768810272216797 12.588897705078125 17.998891830444336 C12.61546516418457 13.758098602294922 12.632134437561035 9.517305374145508 12.581083297729492 5.277030944824219 C12.57222843170166 4.532118320465088 12.225296974182129 3.791372299194336 12.02630615234375 3.0157251358032227"></path></svg>