<svg xmlns="http://www.w3.org/2000/svg" viewBox="0.0 0.0 24.0 24.0" height="200px" width="200px"><path fill="none" stroke="black" stroke-width=".3" stroke-opacity="1.0"  filling="0" d="M12.243512153625488 8.200786590576172 C16.3304500579834 8.269303321838379 19.552595138549805 10.782668113708496 20.30628204345703 14.48998737335205 C21.12570571899414 18.521371841430664 19.159088134765625 22.093971252441406 15.21751594543457 23.743005752563477 C14.874467849731445 23.886520385742188 14.543920516967773 24.058738708496094 14.161985397338867 24.65918731689453 C15.850369453430176 25.14667510986328 17.538755416870117 25.63416290283203 19.26880645751953 26.133224487304688 C19.140106201171875 26.348960876464844 18.8271484375 26.874412536621094 18.51419448852539 27.399398803710938 C18.05124282836914 27.399398803710938 17.58829116821289 27.399398803710938 17.12533950805664 27.399398803710938 C14.343924522399902 26.134613037109375 11.565287590026855 24.862884521484375 8.780170440673828 23.607357025146484 C4.871004581451416 21.84536361694336 3.171971321105957 18.371374130249023 4.168243408203125 14.150179862976074 C5.006186485290527 10.602117538452148 8.353791236877441 8.135510444641113 12.243512153625488 8.200786590576172"></path>
<path fill="none" stroke="black" stroke-width=".3" stroke-opacity="1.0"  filling="0" d="M11.994443893432617 9.831302642822266 C15.85777759552002 9.75954532623291 18.605396270751953 12.428461074829102 18.62576675415039 16.272350311279297 C18.645671844482422 19.988927841186523 15.969347953796387 22.6893253326416 12.227771759033203 22.728214263916016 C8.584341049194336 22.76571273803711 5.722373008728027 20.011611938476562 5.63857889175415 16.38762664794922 C5.555710315704346 12.788639068603516 8.35703182220459 9.898430824279785 11.994443893432617 9.831302642822266"></path></svg>