<svg xmlns="http://www.w3.org/2000/svg" viewBox="0.0 0.0 24.0 24.0" height="200px" width="200px"><path fill="none" stroke="black" stroke-width=".3" stroke-opacity="1.0"  filling="0" d="M16.61615562438965 10.445230484008789 L16.61615562438965 10.445230484008789 C15.736299514770508 11.901531219482422 14.441810607910156 11.455486297607422 12.805368423461914 11.420409202575684 L12.805368423461914 11.420409202575684 C12.805368423461914 13.042570114135742 12.805368423461914 14.664734840393066 12.805368423461914 16.28689956665039 C12.805368423461914 17.9090633392334 12.805368423461914 19.531227111816406 12.805368423461914 21.15338897705078 L12.805368423461914 21.15338897705078 C12.405900001525879 21.1834716796875 12.006431579589844 21.213552474975586 11.606963157653809 21.243635177612305 L11.606963157653809 21.243635177612305 C11.606831550598145 19.606962203979492 11.606752395629883 17.97028923034668 11.606706619262695 16.333616256713867 C11.606659889221191 14.696944236755371 11.606645584106445 13.060271263122559 11.606643676757812 11.423598289489746 L11.606643676757812 11.423598289489746 C10.252511024475098 11.423598289489746 8.898377418518066 11.423598289489746 7.544246673583984 11.423598289489746 L7.544246673583984 11.423598289489746 C7.753015995025635 11.107680320739746 7.821380615234375 10.622357368469238 8.170555114746094 10.475844383239746 C8.686521530151367 10.259346961975098 9.289557456970215 10.461318969726562 9.849082946777344 10.456496238708496 C12.104693412780762 10.437052726745605 14.360490798950195 10.444096565246582 16.61615562438965 10.445230484008789 L16.61615562438965 10.445230484008789"></path></svg>