<svg xmlns="http://www.w3.org/2000/svg" viewBox="0.0 0.0 24.0 24.0" height="200px" width="200px"><path fill="none" stroke="black" stroke-width=".3" stroke-opacity="1.0"  filling="0" d="M6.3003153800964355 9.152257919311523 C6.3003153800964355 12.238572120666504 6.277913570404053 15.198880195617676 6.31095552444458 18.158626556396484 C6.325516223907471 19.45621109008789 6.299194812774658 20.784038543701172 6.559607982635498 22.042980194091797 C7.235561847686768 25.31522560119629 9.361988067626953 26.73993682861328 12.912565231323242 26.484004974365234 C15.959676742553711 26.264474868774414 17.846973419189453 24.46958351135254 18.008258819580078 21.271265029907227 C18.176828384399414 17.926218032836914 18.092823028564453 14.568849563598633 18.118024826049805 11.216522216796875 C18.121944427490234 10.666573524475098 18.118026733398438 10.116065979003906 18.118026733398438 9.228981971740723 C18.936786651611328 9.228981971740723 19.461532592773438 9.228981971740723 20.14980697631836 9.228981971740723 C20.14980697631836 13.465032577514648 20.42870330810547 17.65908432006836 20.073646545410156 21.79936981201172 C19.698984146118164 26.164226531982422 16.698354721069336 28.38641929626465 12.16996955871582 28.352258682250977 C7.583339214324951 28.317535400390625 4.784879207611084 26.122787475585938 4.444942474365234 21.662723541259766 C4.135807037353516 17.609241485595703 4.379418849945068 13.513195991516113 4.379418849945068 9.295624732971191 C4.960728168487549 9.25250244140625 5.476513385772705 9.213860511779785 6.3003153800964355 9.152257919311523"></path></svg>