<svg xmlns="http://www.w3.org/2000/svg" viewBox="0.0 0.0 24.0 24.0" height="200px" width="200px"><path fill="none" stroke="black" stroke-width=".3" stroke-opacity="1.0"  filling="0" d="M11.82178020477295 10.310389518737793 C13.020301818847656 9.783055305480957 13.32227897644043 10.527482986450195 13.637402534484863 11.33163070678711 C14.683431625366211 14.000226974487305 15.753877639770508 16.659059524536133 16.815303802490234 19.321645736694336 C16.945636749267578 19.315635681152344 17.075969696044922 19.310001373291016 17.206676483154297 19.303993225097656 C18.241811752319336 16.645160675048828 19.287466049194336 13.990086555480957 20.305328369140625 11.324493408203125 C20.582141876220703 10.59997272491455 20.78083038330078 9.851037979125977 22.112686157226562 10.3239107131958 C20.454437255859375 14.527562141418457 18.809335708618164 18.697406768798828 17.164234161376953 22.86725616455078 C17.037656784057617 22.860118865966797 16.911083221435547 22.852983474731445 16.78450584411621 22.845848083496094 C15.409832954406738 19.419677734375 14.03553295135498 15.993505477905273 12.495972633361816 12.156435012817383 C10.980825424194336 15.984115600585938 9.638075828552246 19.376108169555664 8.295327186584473 22.768474578857422 C8.165746688842773 22.797021865844727 8.036542892456055 22.825565338134766 7.9069623947143555 22.854110717773438 C6.152561664581299 18.728206634521484 4.558539390563965 14.534321784973145 2.912686347961426 10.35959243774414 C3.898244857788086 9.825872421264648 4.313652038574219 10.269824981689453 4.632906913757324 11.110029220581055 C5.497149467468262 13.384252548217773 6.405336380004883 15.641949653625488 7.307137966156006 17.901899337768555 C7.505451679229736 18.39881134033203 7.750339508056641 18.877317428588867 8.124055862426758 19.692733764648438 C9.453283309936523 16.319896697998047 10.652555465698242 13.277959823608398 11.82178020477295 10.310389518737793"></path></svg>