<svg xmlns="http://www.w3.org/2000/svg" viewBox="0.0 0.0 24.0 24.0" height="200px" width="200px"><path fill="none" stroke="black" stroke-width=".3" stroke-opacity="1.0"  filling="0" d="M21.293704986572266 9.274965286254883 C18.75943946838379 12.333986282348633 16.339860916137695 15.2548246383667 13.812867164611816 18.30545425415039 C16.463497161865234 21.503215789794922 19.05874252319336 24.63440704345703 21.706573486328125 27.828811645507812 C20.180419921875 28.498462677001953 19.294265747070312 27.953006744384766 18.447830200195312 26.91020965576172 C16.572025299072266 24.598602294921875 14.612306594848633 22.355243682861328 12.697341918945312 20.095664978027344 C9.131467819213867 22.26573371887207 8.085314750671387 27.130630493164062 3.8352441787719727 28.305456161499023 C3.633286476135254 28.11524772644043 3.431887626647949 27.92503547668457 3.2299299240112305 27.735383987426758 C5.802237033843994 24.66293716430664 8.373985290527344 21.589929580688477 11.128671646118164 18.299299240112305 C8.714125633239746 15.399160385131836 6.302377700805664 12.50181770324707 3.7972021102905273 9.493146896362305 C5.301537990570068 8.664615631103516 6.118880271911621 9.274405479431152 6.949650287628174 10.289231300354004 C8.706852912902832 12.43580436706543 10.549090385437012 14.51244831085205 12.503776550292969 16.78993034362793 C14.422099113464355 14.518041610717773 16.147974014282227 12.450349807739258 17.90125846862793 10.406713485717773 C18.963077545166016 9.168671607971191 18.982656478881836 9.185454368591309 21.293704986572266 9.274965286254883"></path></svg>