<svg xmlns="http://www.w3.org/2000/svg" viewBox="0.0 0.0 24.0 24.0" height="200px" width="200px"><path fill="none" stroke="black" stroke-width=".3" stroke-opacity="1.0"  filling="0" d="M2.5834741592407227 5.164342403411865 C5.222329616546631 5.164342403411865 7.753819465637207 5.164342403411865 10.355981826782227 5.164342403411865 C11.627614974975586 6.972808837890625 12.912386894226074 8.80075454711914 14.197611808776855 10.628700256347656 C14.316304206848145 10.600613594055176 14.435449600219727 10.572525978088379 14.5541410446167 10.544438362121582 C14.5541410446167 8.80075454711914 14.5541410446167 7.057070732116699 14.5541410446167 5.177027702331543 C17.067508697509766 5.177027702331543 19.358444213867188 5.177027702331543 21.78347396850586 5.177027702331543 C21.78347396850586 10.071030616760254 21.78347396850586 14.921995162963867 21.78347396850586 19.977725982666016 C19.755292892456055 19.977725982666016 17.80865478515625 20.053834915161133 15.875155448913574 19.929706573486328 C15.318391799926758 19.893917083740234 14.680535316467285 19.3810977935791 14.282781600952148 18.914030075073242 C12.926885604858398 17.320751190185547 11.661593437194824 15.650456428527832 9.948262214660645 14.124676704406738 C9.948262214660645 15.964401245117188 9.948262214660645 17.804126739501953 9.948262214660645 19.8155460357666 C7.401368141174316 19.815998077392578 5.104997158050537 19.815998077392578 2.5834741592407227 19.815998077392578 C2.5834741592407227 14.879410743713379 2.5834741592407227 10.086885452270508 2.5834741592407227 5.164342403411865"></path></svg>