<svg xmlns="http://www.w3.org/2000/svg" viewBox="0.0 0.0 24.0 24.0" height="200px" width="200px"><path fill="none" stroke="black" stroke-width=".3" stroke-opacity="1.0"  filling="0" d="M8.704313278198242 7.001894474029541 L8.704313278198242 7.001894474029541 C9.957341194152832 7.001894474029541 11.210369110107422 7.001894474029541 12.463397026062012 7.001894474029541 C13.716424942016602 7.001894474029541 14.969451904296875 7.001894474029541 16.22248077392578 7.001894474029541 L16.22248077392578 7.001894474029541 C15.212181091308594 8.743193626403809 14.20186996459961 10.484487533569336 13.19155216217041 12.225775718688965 C12.181233406066895 13.967063903808594 11.170906066894531 15.70834732055664 10.160572052001953 17.449626922607422 L10.160572052001953 17.449626922607422 C13.381744384765625 17.8351993560791 14.524280548095703 17.290876388549805 16.38567352294922 14.641237258911133 L16.38567352294922 14.641237258911133 C16.38567352294922 14.755305290222168 16.38567352294922 17.779010772705078 16.38567352294922 17.801589965820312 L16.38567352294922 17.801589965820312 C14.971990585327148 17.801589965820312 13.558305740356445 17.801589965820312 12.144621849060059 17.801589965820312 C10.730937957763672 17.801589965820312 9.317253112792969 17.801589965820312 7.90356969833374 17.801589965820312 L7.90356969833374 17.801589965820312 C8.907156944274902 16.06241226196289 9.9107666015625 14.323249816894531 10.914388656616211 12.58409309387207 C11.918011665344238 10.844937324523926 12.921648025512695 9.105789184570312 13.925288200378418 7.366643905639648 L13.925288200378418 7.366643905639648 C11.153124809265137 6.879701137542725 10.317488670349121 7.439128875732422 8.704313278198242 9.71255111694336 L8.704313278198242 9.71255111694336 C8.704313278198242 8.808999061584473 8.704313278198242 7.905446529388428 8.704313278198242 7.001894474029541 L8.704313278198242 7.001894474029541"></path></svg>