<svg xmlns="http://www.w3.org/2000/svg" viewBox="0.0 0.0 24.0 24.0" height="200px" width="200px"><path fill="none" stroke="black" stroke-width=".3" stroke-opacity="1.0"  filling="0" d="M7.380228042602539 2.4666738510131836 C8.181877136230469 2.4666738510131836 8.951231002807617 2.4666738510131836 10.156570434570312 2.4666738510131836 C10.156570434570312 8.793401718139648 10.156570434570312 15.09148120880127 10.156570434570312 21.55364227294922 C10.051351547241211 21.56406021118164 9.495561599731445 21.64739990234375 8.938209533691406 21.66407012939453 C8.424091339111328 21.679176330566406 7.907888889312744 21.622920989990234 7.380748748779297 21.597396850585938 C7.380228042602539 15.257123947143555 7.380228042602539 8.972587585449219 7.380228042602539 2.4666738510131836"></path>
<path fill="none" stroke="black" stroke-width=".3" stroke-opacity="1.0"  filling="0" d="M14.002300262451172 9.951860427856445 C16.157222747802734 10.199284553527832 17.028148651123047 10.772783279418945 17.415172576904297 12.96364688873291 C17.71259880065918 14.647162437438965 17.652175903320312 16.396831512451172 17.71259880065918 18.118371963500977 C17.751144409179688 19.214847564697266 17.719890594482422 20.31340217590332 17.719890594482422 21.540618896484375 C16.811981201171875 21.540618896484375 15.721237182617188 21.540618896484375 15.069604873657227 21.540618896484375 C14.814888954162598 17.572479248046875 16.06294059753418 13.591839790344238 14.002300262451172 9.951860427856445"></path></svg>