<svg xmlns="http://www.w3.org/2000/svg" viewBox="0.0 0.0 24.0 24.0" height="200px" width="200px"><path fill="none" stroke="black" stroke-width=".3" stroke-opacity="1.0"  filling="0" d="M9.624549865722656 10.6350736618042 L9.624549865722656 10.6350736618042 C10.008538246154785 10.833772659301758 10.600824356079102 10.836125373840332 10.776515007019043 11.231171607971191 C11.343029975891113 12.504996299743652 10.775876998901367 15.678145408630371 10.775876998901367 17.101152420043945 L10.775876998901367 17.101152420043945 C12.237600326538086 16.049362182617188 13.222952842712402 14.91920280456543 14.848305702209473 14.129284858703613 L14.848305702209473 14.129284858703613 C14.936001777648926 14.22379207611084 15.023696899414062 14.318300247192383 15.111392974853516 14.41280746459961 L15.111392974853516 14.41280746459961 C14.100037574768066 15.48231029510498 13.088663101196289 16.551799774169922 12.077265739440918 17.621261596679688 L12.077265739440918 17.621261596679688 C13.316061019897461 18.769512176513672 14.554744720458984 19.91787338256836 15.793376922607422 21.066303253173828 L15.793376922607422 21.066303253173828 C13.581890106201172 20.629085540771484 12.57520866394043 19.24728775024414 10.80301570892334 17.96225357055664 L10.80301570892334 17.96225357055664 C10.80301570892334 18.471635818481445 10.80301570892334 20.559383392333984 10.80301570892334 21.097591400146484 L10.80301570892334 21.097591400146484 C10.412109375 20.923158645629883 9.81143569946289 20.962135314941406 9.63029670715332 20.574291229248047 C9.348154067993164 19.970184326171875 9.625753402709961 19.240808486938477 9.62442684173584 18.574064254760742 C9.621793746948242 17.25090217590332 9.621582984924316 15.927736282348633 9.622150421142578 14.604569435119629 C9.622718811035156 13.281402587890625 9.624065399169922 11.958236694335938 9.624549865722656 10.6350736618042 L9.624549865722656 10.6350736618042"></path></svg>