<svg xmlns="http://www.w3.org/2000/svg" viewBox="0.0 0.0 24.0 24.0" height="200px" width="200px"><path fill="none" stroke="black" stroke-width=".3" stroke-opacity="1.0"  filling="0" d="M7.634208679199219 14.715034484863281 L7.634208679199219 14.715034484863281 C7.950859069824219 14.87055492401123 9.477215766906738 15.620016098022461 9.86978530883789 15.812698364257812 L9.86978530883789 15.812698364257812 C10.306546211242676 15.5778226852417 10.713517189025879 15.276169776916504 11.180068016052246 15.108071327209473 C14.28103256225586 13.990795135498047 15.593331336975098 15.649476051330566 16.147907257080078 18.037933349609375 C16.702484130859375 20.4263916015625 16.49933624267578 23.54462432861328 16.569414138793945 25.346454620361328 L16.569414138793945 25.346454620361328 C15.958706855773926 25.401859283447266 15.347999572753906 25.457263946533203 14.737292289733887 25.51266860961914 L14.737292289733887 25.51266860961914 C14.737651824951172 24.317638397216797 14.904609680175781 22.810043334960938 14.93640422821045 21.327350616455078 C14.968199729919434 19.84465980529785 14.864831924438477 18.386871337890625 14.324542045593262 17.291454315185547 C13.418190956115723 15.453864097595215 10.668453216552734 15.881534576416016 9.752506256103516 17.4674015045166 C9.178691864013672 18.46090316772461 9.071697235107422 19.889362335205078 9.109130859375 21.345190048217773 C9.146563529968262 22.80101776123047 9.328424453735352 24.284212112426758 9.332319259643555 25.38718032836914 L9.332319259643555 25.38718032836914 C8.766282081604004 25.38718032836914 8.20024585723877 25.38718032836914 7.634208679199219 25.38718032836914 L7.634208679199219 25.38718032836914 C7.634208679199219 23.608489990234375 7.634208679199219 21.829797744750977 7.634208679199219 20.05110740661621 C7.634208679199219 18.272417068481445 7.634208679199219 16.493724822998047 7.634208679199219 14.715034484863281 L7.634208679199219 14.715034484863281"></path></svg>