<svg xmlns="http://www.w3.org/2000/svg" viewBox="0.0 0.0 24.0 24.0" height="200px" width="200px"><path fill="none" stroke="black" stroke-width=".3" stroke-opacity="1.0"  filling="0" d="M13.437628746032715 8.939054489135742 L13.437628746032715 8.939054489135742 C14.798152923583984 9.93778133392334 15.496520042419434 11.115446090698242 15.512965202331543 12.296165466308594 C15.529411315917969 13.476884841918945 14.863935470581055 14.66065788269043 13.496772766113281 15.671603202819824 L13.496772766113281 15.671603202819824 C14.005012512207031 13.251395225524902 14.034492492675781 11.344255447387695 13.437628746032715 8.939054489135742 L13.437628746032715 8.939054489135742"></path>
<path fill="none" stroke="black" stroke-width=".3" stroke-opacity="1.0"  filling="0" d="M9.305929183959961 9.065149307250977 L9.305929183959961 9.065149307250977 C9.878559112548828 9.065149307250977 10.451188087463379 9.065149307250977 11.023818016052246 9.065149307250977 L11.023818016052246 9.065149307250977 C10.925405502319336 10.8447265625 10.926965713500977 12.622925758361816 10.942554473876953 14.401406288146973 C10.95814323425293 16.179887771606445 10.987760543823242 17.958648681640625 10.945459365844727 19.739355087280273 L10.945459365844727 19.739355087280273 C10.420665740966797 19.739355087280273 9.895872116088867 19.739355087280273 9.371078491210938 19.739355087280273 L9.371078491210938 19.739355087280273 C9.424129486083984 17.966659545898438 9.494353294372559 16.180988311767578 9.508058547973633 14.397048950195312 C9.521764755249023 12.61311149597168 9.478951454162598 10.830906867980957 9.305929183959961 9.065149307250977 L9.305929183959961 9.065149307250977"></path></svg>