<svg xmlns="http://www.w3.org/2000/svg" viewBox="0.0 0.0 24.0 24.0" height="200px" width="200px"><path fill="none" stroke="black" stroke-width=".3" stroke-opacity="1.0"  filling="0" d="M8.980822563171387 9.079708099365234 L8.980822563171387 9.079708099365234 C9.775744438171387 9.079708099365234 10.570667266845703 9.079708099365234 11.365589141845703 9.079708099365234 L11.365589141845703 9.079708099365234 C11.398706436157227 9.441678047180176 11.127362251281738 9.805715560913086 11.211801528930664 10.159253120422363 C11.5213623046875 11.455341339111328 12.38111400604248 12.841614723205566 12.925605773925781 14.056110382080078 L12.925605773925781 14.056110382080078 C12.67125415802002 14.756307601928711 12.416854858398438 15.456486701965332 12.162432670593262 16.156658172607422 L12.162432670593262 16.156658172607422 C11.632182121276855 14.97715950012207 11.101905822753906 13.797670364379883 10.57162857055664 12.618182182312012 C10.041352272033691 11.43869400024414 9.511075019836426 10.25920581817627 8.980822563171387 9.079708099365234 L8.980822563171387 9.079708099365234"></path>
<path fill="none" stroke="black" stroke-width=".3" stroke-opacity="1.0"  filling="0" d="M9.865327835083008 18.270551681518555 L9.865327835083008 18.270551681518555 C9.948439598083496 18.805217742919922 10.0315523147583 19.339885711669922 10.114664077758789 19.87455177307129 L10.114664077758789 19.87455177307129 C9.551365852355957 19.81753158569336 9.038887023925781 19.348827362060547 8.751810073852539 18.860828399658203 L8.751810073852539 18.860828399658203 C9.1229829788208 18.66407012939453 9.494154930114746 18.467309951782227 9.865327835083008 18.270551681518555 L9.865327835083008 18.270551681518555"></path></svg>