<svg xmlns="http://www.w3.org/2000/svg" viewBox="0.0 0.0 24.0 24.0" height="200px" width="200px"><path fill="none" stroke="black" stroke-width=".3" stroke-opacity="1.0"  filling="0" d="M15.220903396606445 12.101634979248047 L15.220903396606445 12.101634979248047 C15.343886375427246 12.180925369262695 15.466869354248047 12.260215759277344 15.589852333068848 12.339506149291992 L15.589852333068848 12.339506149291992 C14.761608123779297 14.099825859069824 13.933395385742188 15.860158920288086 13.105225563049316 17.62051010131836 C12.277054786682129 19.380863189697266 11.44892692565918 21.1412353515625 10.620848655700684 22.901634216308594 L10.620848655700684 22.901634216308594 C10.177267074584961 22.901634216308594 9.733684539794922 22.901634216308594 9.2901029586792 22.901634216308594 L9.2901029586792 22.901634216308594 C10.081514358520508 21.30476951599121 10.872812271118164 19.707849502563477 11.664153099060059 18.11094856262207 L11.664153099060059 18.11094856262207 C10.722269058227539 16.212940216064453 9.78057861328125 14.314838409423828 8.838979721069336 12.416688919067383 L8.838979721069336 12.416688919067383 C10.92856502532959 13.06786060333252 11.178336143493652 14.59668254852295 12.141225814819336 16.478790283203125 L12.141225814819336 16.478790283203125 C13.265922546386719 14.840005874633789 13.72087287902832 13.429254531860352 15.220903396606445 12.101634979248047 L15.220903396606445 12.101634979248047"></path></svg>