<svg xmlns="http://www.w3.org/2000/svg" viewBox="0.0 0.0 24.0 24.0" height="200px" width="200px"><path fill="none" stroke="black" stroke-width=".3" stroke-opacity="1.0"  filling="0" d="M12.364055633544922 8.831744194030762 C14.622587203979492 8.888221740722656 16.08822250366211 10.220417022705078 16.94700813293457 12.244733810424805 C18.686723709106445 16.34652328491211 18.6158504486084 20.4859619140625 16.95974349975586 24.565048217773438 C16.111478805541992 26.654701232910156 14.546730995178223 28.05555534362793 12.123198509216309 28.028980255126953 C9.720152854919434 28.002399444580078 8.077333450317383 26.651378631591797 7.337040424346924 24.5124454498291 C6.628307342529297 22.462661743164062 6.33429479598999 20.268360137939453 5.83153772354126 18.017580032348633 C6.407382011413574 15.964471817016602 6.786110877990723 13.876479148864746 7.586203575134277 11.964563369750977 C8.417856216430664 9.977343559265137 10.119921684265137 8.775821685791016 12.364055633544922 8.831744194030762"></path>
<path fill="none" stroke="black" stroke-width=".3" stroke-opacity="1.0"  filling="0" d="M12.11046314239502 10.715975761413574 C13.571115493774414 10.702134132385254 14.556142807006836 11.599677085876465 15.055578231811523 12.842172622680664 C16.554988861083984 16.572429656982422 16.539485931396484 20.359718322753906 15.040074348449707 24.08776092529297 C14.533994674682617 25.34520721435547 13.468128204345703 26.404430389404297 12.088869094848633 26.08993148803711 C11.073942184448242 25.858484268188477 9.821478843688965 25.026277542114258 9.41340446472168 24.12652015686035 C8.637674331665039 22.416706085205078 8.390725135803223 20.46713638305664 7.919529438018799 18.599515914916992 C8.35916519165039 16.638320922851562 8.650409698486328 14.7308349609375 9.238988876342773 12.920245170593262 C9.646510124206543 11.666121482849121 10.643165588378906 10.730372428894043 12.11046314239502 10.715975761413574"></path></svg>