<svg xmlns="http://www.w3.org/2000/svg" viewBox="0.0 0.0 24.0 24.0" height="200px" width="200px"><path fill="none" stroke="black" stroke-width=".3" stroke-opacity="1.0"  filling="0" d="M13.931816101074219 10.22189998626709 L13.931816101074219 10.22189998626709 C14.048752784729004 10.251448631286621 14.165690422058105 10.280997276306152 14.28262710571289 10.310545921325684 L14.28262710571289 10.310545921325684 C14.28262710571289 12.220094680786133 14.28262710571289 14.129648208618164 14.28262710571289 16.039196014404297 L14.28262710571289 16.039196014404297 C14.749326705932617 16.20663833618164 15.216025352478027 16.37407875061035 15.682724952697754 16.541521072387695 L15.682724952697754 16.541521072387695 C15.37997055053711 17.057964324951172 14.626148223876953 17.232288360595703 14.380388259887695 17.778160095214844 C13.962142944335938 18.7071475982666 14.380388259887695 19.815752029418945 14.380388259887695 20.834548950195312 L14.380388259887695 20.834548950195312 C12.731205940246582 20.00090217590332 13.293153762817383 19.078121185302734 13.29306411743164 17.339332580566406 L13.29306411743164 17.339332580566406 C11.632476806640625 17.339332580566406 9.97188949584961 17.339332580566406 8.311302185058594 17.339332580566406 L8.311302185058594 17.339332580566406 C9.178449630737305 16.092483520507812 10.100698471069336 14.89813232421875 11.047599792480469 13.722990036010742 C11.994501113891602 12.547847747802734 12.966054916381836 11.391914367675781 13.931816101074219 10.22189998626709 L13.931816101074219 10.22189998626709"></path>
<path fill="none" stroke="black" stroke-width=".3" stroke-opacity="1.0"  filling="0" d="M12.984062194824219 12.797968864440918 L12.984062194824219 12.797968864440918 C13.070297241210938 12.848264694213867 13.156533241271973 12.8985595703125 13.242768287658691 12.94885540008545 L13.242768287658691 12.94885540008545 C13.242768287658691 14.025596618652344 13.242768287658691 15.102337837219238 13.242768287658691 16.179079055786133 L13.242768287658691 16.179079055786133 C13.127571105957031 16.179079055786133 10.261667251586914 16.179079055786133 10.243274688720703 16.179079055786133 L10.243274688720703 16.179079055786133 C11.156859397888184 15.052034378051758 12.07045841217041 13.924997329711914 12.984062194824219 12.797968864440918 L12.984062194824219 12.797968864440918"></path></svg>