<svg xmlns="http://www.w3.org/2000/svg" viewBox="0.0 0.0 24.0 24.0" height="200px" width="200px"><path fill="none" stroke="black" stroke-width=".3" stroke-opacity="1.0"  filling="0" d="M11.754077911376953 3.293179512023926 L11.82544994354248 3.331968307495117 C13.079107284545898 2.9440793991088867 14.379312515258789 2.641007423400879 15.470057487487793 3.596249580383301 C15.913803100585938 3.9851741790771484 16.133089065551758 4.702509880065918 16.269107818603516 5.311755180358887 C16.29703712463379 5.437948703765869 15.299901962280273 6.0373663902282715 15.127679824829102 5.916345119476318 C14.667384147644043 5.593620777130127 14.371554374694824 5.013856410980225 14.06693172454834 4.502359867095947 C13.947979927062988 4.302208423614502 13.980562210083008 4.0115509033203125 13.907121658325195 3.5109148025512695 C13.215644836425781 3.441094398498535 12.484861373901367 3.367137908935547 11.754077911376953 3.293179512023926"></path>
<path fill="none" stroke="black" stroke-width=".3" stroke-opacity="1.0"  filling="0" d="M11.754077911376953 3.2936973571777344 C10.21545124053955 6.234931468963623 9.66775131225586 9.353044509887695 9.879796981811523 12.664066314697266 C9.954272270202637 13.82618236541748 9.437603950500488 15.024500846862793 9.501734733581543 16.189205169677734 C9.607757568359375 18.10434341430664 9.967202186584473 20.0049991607666 10.221656799316406 21.926860809326172 C8.52735710144043 21.11953353881836 7.758818626403809 19.454715728759766 7.456782341003418 17.710763931274414 C6.754444122314453 13.656545639038086 7.06423807144165 9.6509428024292 9.201766967773438 6.023919582366943 C9.819803237915039 4.975584506988525 10.936924934387207 4.221527576446533 11.825448989868164 3.3324851989746094 L11.754077911376953 3.2936973571777344"></path>
<path fill="none" stroke="black" stroke-width=".3" stroke-opacity="1.0"  filling="0" d="M13.3247709274292 11.613662719726562 C15.969141006469727 12.35427188873291 17.18918228149414 14.058916091918945 17.454498291015625 16.281261444091797 C17.750329971313477 18.762203216552734 16.649240493774414 20.727508544921875 14.143993377685547 22.160629272460938 C15.374377250671387 18.480335235595703 15.293179512023926 15.136213302612305 13.3247709274292 11.613662719726562"></path></svg>