<svg xmlns="http://www.w3.org/2000/svg" viewBox="0.0 0.0 24.0 24.0" height="200px" width="200px"><path fill="none" stroke="black" stroke-width=".3" stroke-opacity="1.0"  filling="0" d="M14.112470626831055 8.883146286010742 C14.514554977416992 9.37648868560791 14.835891723632812 9.771384239196777 15.228574752807617 10.252559661865234 C12.938291549682617 12.45545768737793 10.215502738952637 14.187687873840332 9.488762855529785 17.664871215820312 C10.379213333129883 17.526601791381836 11.072216987609863 17.382802963256836 11.772409439086914 17.31643295288086 C14.867417335510254 17.021644592285156 17.14664077758789 18.57965660095215 17.750043869018555 21.376558303833008 C18.304779052734375 23.947803497314453 16.826961517333984 26.735301971435547 14.405046463012695 27.68659210205078 C11.718761444091797 28.741302490234375 8.617670059204102 27.632389068603516 7.299691677093506 25.056167602539062 C5.842892169952393 22.208383560180664 6.262123107910156 19.295888900756836 7.400904178619385 16.499542236328125 C8.719988822937012 13.25796890258789 11.081066131591797 10.859835624694824 14.112470626831055 8.883146286010742"></path>
<path fill="none" stroke="black" stroke-width=".3" stroke-opacity="1.0"  filling="0" d="M12.185003280639648 19.057514190673828 C14.41002368927002 19.175317764282227 15.77667236328125 20.603357315063477 15.710856437683105 22.74209976196289 C15.649465560913086 24.73649024963379 14.150632858276367 26.187755584716797 12.198830604553223 26.144065856933594 C10.088296890258789 26.096500396728516 8.374317169189453 24.1192569732666 8.496545791625977 21.87211036682129 C8.590568542480469 20.136009216308594 10.145262718200684 18.95021629333496 12.185003280639648 19.057514190673828"></path></svg>