<svg xmlns="http://www.w3.org/2000/svg" viewBox="0.0 0.0 24.0 24.0" height="200px" width="200px"><path fill="none" stroke="black" stroke-width=".3" stroke-opacity="1.0"  filling="0" d="M13.567183494567871 6.592372894287109 L13.567183494567871 6.592372894287109 C13.681000709533691 6.6304097175598145 13.794816970825195 6.668447017669678 13.908634185791016 6.706483840942383 L13.908634185791016 6.706483840942383 C13.954631805419922 8.432952880859375 14.000631332397461 10.159421920776367 14.046636581420898 11.885890007019043 C14.09264087677002 13.612358093261719 14.138650894165039 15.338825225830078 14.184669494628906 17.06529426574707 L14.184669494628906 17.06529426574707 C14.59446907043457 17.174320220947266 15.00426959991455 17.28334617614746 15.414069175720215 17.392372131347656 L15.414069175720215 17.392372131347656 C15.312125205993652 17.392372131347656 11.931732177734375 17.392372131347656 11.716190338134766 17.392372131347656 L11.716190338134766 17.392372131347656 C11.711692810058594 17.36323356628418 11.707194328308105 17.334095001220703 11.702696800231934 17.304956436157227 L11.702696800231934 17.304956436157227 C12.039356231689453 17.23817253112793 12.376016616821289 17.17138671875 12.712676048278809 17.104602813720703 L12.712676048278809 17.104602813720703 C12.712676048278809 15.755812644958496 12.712676048278809 14.407024383544922 12.712676048278809 13.058234214782715 L12.712676048278809 13.058234214782715 C11.497063636779785 13.058234214782715 10.281451225280762 13.058234214782715 9.065838813781738 13.058234214782715 L9.065838813781738 13.058234214782715 C9.27949047088623 12.85993480682373 9.493141174316406 12.66163444519043 9.706792831420898 12.463335037231445 L9.706792831420898 12.463335037231445 C10.669677734375 12.734689712524414 11.70656967163086 12.811065673828125 12.699475288391113 12.688915252685547 L12.699475288391113 12.688915252685547 C12.691243171691895 11.275142669677734 12.569265365600586 10.03679084777832 12.347757339477539 8.6492919921875 L12.347757339477539 8.6492919921875 C12.347758293151855 8.649290084838867 13.567182540893555 6.592373847961426 13.567183494567871 6.592372894287109 L13.567183494567871 6.592372894287109"></path></svg>