<svg xmlns="http://www.w3.org/2000/svg" viewBox="0.0 0.0 24.0 24.0" height="200px" width="200px"><path fill="none" stroke="black" stroke-width=".3" stroke-opacity="1.0"  filling="0" d="M9.156189918518066 6.949686527252197 L9.156189918518066 6.949686527252197 C9.266403198242188 6.949686527252197 12.824382781982422 6.949686527252197 13.06419563293457 6.949686527252197 L13.06419563293457 6.949686527252197 C11.659904479980469 7.905444145202637 10.756240844726562 9.734183311462402 10.061431884765625 11.72313117980957 C9.366622924804688 13.712078094482422 8.880668640136719 15.861234664916992 8.311796188354492 17.45782470703125 L8.311796188354492 17.45782470703125 C11.247685432434082 17.668947219848633 12.701753616333008 17.73776626586914 14.592519760131836 15.322470664978027 L14.592519760131836 15.322470664978027 C14.674971580505371 15.406132698059082 14.75742244720459 15.489795684814453 14.839874267578125 15.573457717895508 L14.839874267578125 15.573457717895508 C14.804075241088867 15.674307823181152 14.099114418029785 17.660188674926758 14.067234992980957 17.749988555908203 L14.067234992980957 17.749988555908203 C12.699321746826172 17.749988555908203 11.331409454345703 17.749988555908203 9.963495254516602 17.749988555908203 C8.595582008361816 17.749988555908203 7.227668762207031 17.749988555908203 5.859755992889404 17.749988555908203 L5.859755992889404 17.749988555908203 C5.855820178985596 17.715574264526367 5.851884365081787 17.681161880493164 5.8479485511779785 17.646747589111328 L5.8479485511779785 17.646747589111328 C6.210451126098633 17.586700439453125 6.572953701019287 17.526653289794922 6.935456275939941 17.46660614013672 L6.935456275939941 17.46660614013672 C7.53460693359375 15.778807640075684 8.133798599243164 14.091024398803711 8.733014106750488 12.40324878692627 C9.332229614257812 10.715474128723145 9.93146800994873 9.02770709991455 10.530713081359863 7.33994197845459 L10.530713081359863 7.33994197845459 C10.072538375854492 7.209856986999512 9.614364624023438 7.079771518707275 9.156189918518066 6.949686527252197 L9.156189918518066 6.949686527252197"></path></svg>