<svg xmlns="http://www.w3.org/2000/svg" viewBox="0.0 0.0 24.0 24.0" height="200px" width="200px"><path fill="none" stroke="black" stroke-width=".3" stroke-opacity="1.0"  filling="0" d="M12.014172554016113 10.528141975402832 L12.014172554016113 10.528141975402832 C11.78689193725586 12.146236419677734 11.559619903564453 13.764333724975586 11.332337379455566 15.382429122924805 C11.10505485534668 17.000524520874023 10.877761840820312 18.61861801147461 10.650437355041504 20.23670768737793 L10.650437355041504 20.23670768737793 C12.09846305847168 20.23670768737793 13.546489715576172 20.23670768737793 14.994514465332031 20.23670768737793 L14.994514465332031 20.23670768737793 C15.057361602783203 20.347856521606445 15.120207786560059 20.459007263183594 15.18305492401123 20.57015609741211 L15.18305492401123 20.57015609741211 C13.857954025268555 21.836088180541992 11.163708686828613 21.24519920349121 9.394031524658203 21.240558624267578 L9.394031524658203 21.240558624267578 C9.70244312286377 18.986434936523438 10.011892318725586 16.732452392578125 10.31901741027832 14.47815227508545 C10.468968391418457 13.377511024475098 10.167728424072266 12.11142635345459 10.766683578491211 11.175931930541992 C11.019329071044922 10.781330108642578 11.598342895507812 10.744071960449219 12.014172554016113 10.528141975402832 L12.014172554016113 10.528141975402832"></path></svg>