<svg xmlns="http://www.w3.org/2000/svg" viewBox="0.0 0.0 24.0 24.0" height="200px" width="200px"><path fill="none" stroke="black" stroke-width=".3" stroke-opacity="1.0"  filling="0" d="M8.609797477722168 9.510296821594238 C9.515867233276367 13.62291431427002 10.458563804626465 17.899547576904297 11.535551071166992 22.785533905029297 C12.501602172851562 20.98931884765625 13.22348690032959 19.678247451782227 13.916707992553711 18.35178565979004 C15.223001480102539 15.85119915008545 16.501689910888672 13.336280822753906 17.81594467163086 10.83994197845459 C18.250137329101562 10.015083312988281 18.550569534301758 8.925355911254883 20.37651252746582 9.547981262207031 C20.37651252746582 15.241312980651855 20.384471893310547 21.092823028564453 20.328739166259766 26.94327163696289 C20.327678680419922 27.08127784729004 19.615346908569336 27.212387084960938 18.829769134521484 27.489459991455078 C18.829769134521484 22.73882484436035 18.829769134521484 18.229171752929688 18.829769134521484 13.719517707824707 C18.62222671508789 13.674400329589844 18.414684295654297 13.629812240600586 18.207143783569336 13.584695816040039 C15.886497497558594 17.97969627380371 13.56638240814209 22.374168395996094 10.923542976379395 27.37905502319336 C9.797191619873047 22.345504760742188 8.808316230773926 17.92767906188965 7.819440841674805 13.510383605957031 C7.656485080718994 13.508790969848633 7.493530750274658 13.506669044494629 7.330575942993164 13.505075454711914 C6.034368991851807 17.52586555480957 4.748777866363525 21.550371170043945 3.433992385864258 25.564790725708008 C3.123476028442383 26.513324737548828 3.014131546020508 27.815902709960938 1.1765117645263672 27.056331634521484 C1.5937185287475586 25.68475341796875 1.9955320358276367 24.2818546295166 2.446709632873535 22.895410537719727 C3.7556562423706055 18.873027801513672 5.08636474609375 14.857547760009766 6.404334545135498 10.837820053100586 C6.714850902557373 9.890347480773926 6.954771041870117 8.8643159866333 8.609797477722168 9.510296821594238"></path></svg>