<svg xmlns="http://www.w3.org/2000/svg" viewBox="0.0 0.0 24.0 24.0" height="200px" width="200px"><path fill="none" stroke="black" stroke-width=".3" stroke-opacity="1.0"  filling="0" d="M13.871864318847656 7.604565620422363 L13.871864318847656 7.604565620422363 C14.27822494506836 7.7297258377075195 14.684585571289062 7.854886054992676 15.090946197509766 7.980046272277832 L15.090946197509766 7.980046272277832 C15.14470386505127 8.606258392333984 15.198461532592773 9.23246955871582 15.252219200134277 9.858681678771973 L15.252219200134277 9.858681678771973 C14.611056327819824 9.006275177001953 14.231887817382812 8.192527770996094 12.960131645202637 8.05310344696045 C11.852291107177734 7.931649684906006 10.85660171508789 8.685033798217773 11.02840518951416 9.884380340576172 C11.408536911010742 12.538057327270508 15.455551147460938 12.414090156555176 15.458322525024414 15.496138572692871 C15.460541725158691 17.964427947998047 12.07126235961914 19.03223991394043 10.217697143554688 17.9161319732666 C9.228265762329102 17.320354461669922 9.557256698608398 16.498363494873047 9.612310409545898 15.602001190185547 L9.612310409545898 15.602001190185547 C10.08916187286377 16.35701560974121 10.49341869354248 17.249248504638672 11.41015625 17.615055084228516 C13.02945613861084 18.26120376586914 14.81001091003418 16.802268981933594 14.123274803161621 15.084329605102539 C13.740925788879395 14.12784481048584 12.020386695861816 13.09864616394043 10.855026245117188 11.960219383239746 C9.689666748046875 10.821792602539062 9.079484939575195 9.574136734008789 10.917853355407715 8.180736541748047 C11.302131652832031 7.889471054077148 11.771841049194336 7.697775840759277 12.245111465454102 7.605465888977051 C12.77733325958252 7.501657485961914 13.32961368560791 7.604865550994873 13.871864318847656 7.604565620422363 L13.871864318847656 7.604565620422363"></path></svg>