<svg xmlns="http://www.w3.org/2000/svg" viewBox="0.0 0.0 24.0 24.0" height="200px" width="200px"><path fill="none" stroke="black" stroke-width=".3" stroke-opacity="1.0"  filling="0" d="M9.17182445526123 9.165617942810059 C10.804125785827637 9.165617942810059 12.196632385253906 9.11878776550293 13.585188865661621 9.175209999084473 C16.45427131652832 9.292004585266113 18.04764175415039 10.455434799194336 18.62540626525879 12.771013259887695 C19.232513427734375 15.203950881958008 18.31564712524414 17.135854721069336 15.848292350769043 18.597196578979492 C15.612447738647461 18.737125396728516 15.341054916381836 18.816680908203125 14.974308967590332 18.97127914428711 C16.524234771728516 21.94812774658203 18.057231903076172 24.89337921142578 19.61336326599121 27.882080078125 C18.240039825439453 28.84126091003418 17.57256317138672 28.194095611572266 17.015674591064453 27.0549259185791 C16.1935977935791 25.371841430664062 15.31792163848877 23.71471405029297 14.47327709197998 22.042354583740234 C13.583495140075684 20.28253936767578 12.27787971496582 19.291759490966797 9.749588966369629 19.748781204223633 C9.454499244689941 21.888320922851562 9.11878490447998 24.154247283935547 8.83836555480957 26.426380157470703 C8.689411163330078 27.63156509399414 8.545533180236816 28.745344161987305 6.561155796051025 28.06545066833496 C7.419342517852783 21.85446548461914 8.28260612487793 15.601728439331055 9.17182445526123 9.165617942810059"></path>
<path fill="none" stroke="black" stroke-width=".3" stroke-opacity="1.0"  filling="0" d="M10.992013931274414 11.020788192749023 C13.096571922302246 10.727391242980957 15.137372970581055 10.531041145324707 16.182315826416016 12.421194076538086 C16.697452545166016 13.352727890014648 16.649494171142578 15.093925476074219 16.09881019592285 16.016433715820312 C14.806172370910645 18.18136215209961 12.488901138305664 17.79768943786621 10.005184173583984 17.660018920898438 C10.366287231445312 15.23103141784668 10.677175521850586 13.136630058288574 10.992013931274414 11.020788192749023"></path></svg>