<svg xmlns="http://www.w3.org/2000/svg" viewBox="0.0 0.0 24.0 24.0" height="200px" width="200px"><path fill="none" stroke="black" stroke-width=".3" stroke-opacity="1.0"  filling="0" d="M14.67812728881836 10.48154354095459 L14.67812728881836 10.48154354095459 C14.802823066711426 10.789779663085938 14.927518844604492 11.098015785217285 15.052214622497559 11.406251907348633 L15.052214622497559 11.406251907348633 C14.66158676147461 11.353114128112793 14.273579597473145 11.274576187133789 13.880331039428711 11.24683952331543 C11.974566459655762 11.112421989440918 10.829747200012207 12.139274597167969 11.705831527709961 14.11977767944336 C12.489916801452637 15.892304420471191 15.066752433776855 16.131866455078125 14.660606384277344 18.66753387451172 C14.195886611938477 21.568893432617188 10.400341033935547 21.513137817382812 9.29528522491455 19.29424285888672 L9.29528522491455 19.29424285888672 C9.718040466308594 19.41508674621582 10.138082504272461 19.54585838317871 10.563549995422363 19.656776428222656 C10.916297912597656 19.748737335205078 11.265496253967285 19.877439498901367 11.629158973693848 19.90267562866211 C13.225038528442383 20.0134220123291 14.099074363708496 18.394615173339844 13.149932861328125 17.08218002319336 C12.904393196105957 16.742656707763672 10.897971153259277 14.946550369262695 10.731966972351074 14.731301307678223 C10.451582908630371 14.367742538452148 10.229393005371094 13.941231727600098 10.127907752990723 13.49346923828125 C9.476862907409668 10.621001243591309 12.654930114746094 9.933842658996582 14.67812728881836 10.48154354095459 L14.67812728881836 10.48154354095459"></path></svg>