<svg xmlns="http://www.w3.org/2000/svg" viewBox="0.0 0.0 24.0 24.0" height="200px" width="200px"><path fill="none" stroke="black" stroke-width=".3" stroke-opacity="1.0"  filling="0" d="M8.818614959716797 6.950339317321777 L8.818614959716797 6.950339317321777 C9.9205322265625 6.950339317321777 11.022448539733887 6.950339317321777 12.12436580657959 6.950339317321777 L12.12436580657959 6.950339317321777 C12.128281593322754 6.979803085327148 12.132196426391602 7.009267330169678 12.136112213134766 7.038731098175049 L12.136112213134766 7.038731098175049 C11.781075477600098 7.107056140899658 11.426037788391113 7.175381660461426 11.071001052856445 7.243706703186035 L11.071001052856445 7.243706703186035 C10.269598007202148 9.535468101501465 9.209854125976562 11.883134841918945 8.676189422607422 14.254000663757324 C8.439950942993164 15.303516387939453 8.082010269165039 16.387466430664062 9.156293869018555 17.14032554626465 C9.655951499938965 17.49048614501953 10.30688190460205 17.546804428100586 10.882176399230957 17.750043869018555 L10.882176399230957 17.750043869018555 C9.642549514770508 17.59580421447754 8.21329116821289 17.755502700805664 7.5038909912109375 16.34090805053711 C6.928094863891602 15.192728996276855 7.587513446807861 13.632230758666992 7.92482852935791 12.578746795654297 C8.493995666503906 10.801154136657715 9.12437915802002 9.040454864501953 9.726911544799805 7.273954391479492 L9.726911544799805 7.273954391479492 C9.420621871948242 7.197993755340576 9.114333152770996 7.122033596038818 8.808043479919434 7.046072959899902 L8.808043479919434 7.046072959899902 C8.811567306518555 7.014161586761475 8.815091133117676 6.982250690460205 8.818614959716797 6.950339317321777 L8.818614959716797 6.950339317321777"></path></svg>