<svg xmlns="http://www.w3.org/2000/svg" viewBox="0.0 0.0 24.0 24.0" height="200px" width="200px"><path fill="none" stroke="black" stroke-width=".3" stroke-opacity="1.0"  filling="0" d="M15.083059310913086 10.964217185974121 L15.083059310913086 10.964217185974121 C15.56961727142334 11.192222595214844 16.19706916809082 11.236844062805176 16.542734146118164 11.648233413696289 C18.619943618774414 14.12039852142334 13.830464363098145 15.124543190002441 12.707624435424805 15.334383010864258 L12.707624435424805 15.334383010864258 C14.877826690673828 13.960331916809082 15.311565399169922 13.552995681762695 15.083059310913086 10.964217185974121 L15.083059310913086 10.964217185974121"></path>
<path fill="none" stroke="black" stroke-width=".3" stroke-opacity="1.0"  filling="0" d="M12.151439666748047 11.38011646270752 L12.151439666748047 11.38011646270752 C11.340201377868652 12.706512451171875 10.528874397277832 14.032851219177246 9.717511177062988 15.359169006347656 L9.717511177062988 15.359169006347656 C10.238100051879883 15.481715202331543 10.856057167053223 15.46452808380127 11.253711700439453 15.822160720825195 L11.253711700439453 15.822160720825195 C10.746686935424805 15.986123085021973 10.100064277648926 15.841690063476562 9.698426246643066 16.191896438598633 C9.336822509765625 16.50719451904297 9.256393432617188 17.058589935302734 9.169258117675781 17.530372619628906 C8.689623832702637 20.127286911010742 9.634819030761719 21.223899841308594 12.013136863708496 21.727535247802734 L12.013136863708496 21.727535247802734 C11.344490051269531 21.69948387145996 10.662734031677246 21.778087615966797 10.007195472717285 21.643383026123047 C7.9925761222839355 21.229406356811523 7.2893452644348145 19.787944793701172 7.337935924530029 18.170555114746094 C7.386527061462402 16.553165435791016 8.186939239501953 14.759846687316895 9.179605484008789 13.642158508300781 C10.159140586853027 12.53925609588623 10.897705078125 12.19334602355957 12.151439666748047 11.38011646270752 L12.151439666748047 11.38011646270752"></path></svg>