<svg xmlns="http://www.w3.org/2000/svg" viewBox="0.0 0.0 24.0 24.0" height="200px" width="200px"><path fill="none" stroke="black" stroke-width=".3" stroke-opacity="1.0"  filling="0" d="M14.43255615234375 15.17745590209961 L14.43255615234375 15.17745590209961 C16.348974227905273 16.57675552368164 16.33498191833496 17.49989891052246 16.530378341674805 19.871532440185547 L16.530378341674805 19.871532440185547 C14.385173797607422 19.871532440185547 12.239969253540039 19.871532440185547 10.094765663146973 19.871532440185547 L10.094765663146973 19.871532440185547 C10.080527305603027 20.57978057861328 9.950605392456055 21.295185089111328 10.052051544189453 21.996274948120117 C10.518826484680176 25.222126007080078 14.004253387451172 23.987829208374023 16.024608612060547 23.430721282958984 L16.024608612060547 23.430721282958984 C15.775604248046875 23.91790008544922 15.655673027038574 24.496780395507812 15.277594566345215 24.89225959777832 C13.655922889709473 26.588563919067383 10.138984680175781 25.555532455444336 9.060298919677734 23.818187713623047 C8.205774307250977 22.441879272460938 8.04850959777832 20.61428451538086 8.487435340881348 18.963781356811523 C8.926361083984375 17.313278198242188 9.961477279663086 15.839863777160645 11.491716384887695 15.171918869018555 C12.812361717224121 14.595460891723633 13.074990272521973 14.882355690002441 14.43255615234375 15.17745590209961 L14.43255615234375 15.17745590209961"></path>
<path fill="none" stroke="black" stroke-width=".3" stroke-opacity="1.0"  filling="0" d="M13.157355308532715 16.150936126708984 L13.157355308532715 16.150936126708984 C13.66581916809082 16.433244705200195 14.33681869506836 16.53034782409668 14.682746887207031 16.997859954833984 C15.046126365661621 17.48895835876465 14.963488578796387 18.187007904052734 15.103858947753906 18.78158187866211 L15.103858947753906 18.78158187866211 C13.500631332397461 18.967262268066406 11.935552597045898 18.953712463378906 10.322200775146484 18.949405670166016 L10.322200775146484 18.949405670166016 C11.06108283996582 17.16234016418457 11.228313446044922 16.446924209594727 13.157355308532715 16.150936126708984 L13.157355308532715 16.150936126708984"></path></svg>