<svg xmlns="http://www.w3.org/2000/svg" viewBox="0.0 0.0 24.0 24.0" height="200px" width="200px"><path fill="none" stroke="black" stroke-width=".3" stroke-opacity="1.0"  filling="0" d="M14.654437065124512 3.0836029052734375 C15.052986145019531 3.065126419067383 15.481094360351562 3.670602798461914 16.191619873046875 4.238600730895996 C15.448895454406738 4.723721027374268 14.967996597290039 5.282216548919678 14.586869239807129 5.220455169677734 C14.176179885864258 5.154470920562744 13.571229934692383 4.497788906097412 13.583372116088867 4.115604877471924 C13.594985008239746 3.735531806945801 14.254833221435547 3.1026058197021484 14.654437065124512 3.0836029052734375"></path>
<path fill="none" stroke="black" stroke-width=".3" stroke-opacity="1.0"  filling="0" d="M10.440910339355469 10.541998863220215 C11.37736701965332 10.541998863220215 12.314352035522461 10.541998863220215 13.616100311279297 10.541998863220215 C12.590959548950195 13.682876586914062 11.592741012573242 16.611019134521484 10.69798755645752 19.5703067779541 C10.454635620117188 20.375320434570312 10.524843215942383 21.275354385375977 10.437743186950684 22.28360366821289 C8.67304515838623 21.950510025024414 8.26235580444336 21.41154670715332 8.864665031433105 19.401386260986328 C9.564104080200195 17.06710433959961 10.439327239990234 14.785615921020508 11.229561805725098 12.477729797363281 C11.52464485168457 11.615175247192383 11.832926750183105 10.72886848449707 10.440910339355469 10.541998863220215"></path></svg>