<svg xmlns="http://www.w3.org/2000/svg" viewBox="0.0 0.0 24.0 24.0" height="200px" width="200px"><path fill="none" stroke="black" stroke-width=".3" stroke-opacity="1.0"  filling="0" d="M18.881628036499023 10.873703002929688 C20.31369972229004 11.406103134155273 20.675273895263672 12.452112197875977 20.21575927734375 13.885891914367676 C19.55353355407715 15.952856063842773 18.787105560302734 17.989643096923828 18.196056365966797 20.075969696044922 C17.92330551147461 21.03599739074707 17.960317611694336 22.084285736083984 17.838464736938477 23.278911590576172 C15.829580307006836 22.848434448242188 15.486224174499512 22.484580993652344 16.019763946533203 20.428436279296875 C16.51629066467285 18.513504028320312 17.269052505493164 16.665760040283203 17.854408264160156 14.771897315979004 C18.230789184570312 13.55335521697998 18.508663177490234 12.30406665802002 18.881628036499023 10.873703002929688"></path>
<path fill="none" stroke="black" stroke-width=".3" stroke-opacity="1.0"  filling="0" d="M12.150038719177246 10.91697883605957 C13.539973258972168 11.79899787902832 13.754642486572266 13.206583976745605 13.255836486816406 14.644918441772461 C12.456952095031738 16.94989776611328 11.37905502319336 19.156938552856445 10.547143936157227 21.451669692993164 C10.110404968261719 22.657114028930664 9.549534797668457 23.205455780029297 8.248428344726562 22.61896514892578 C9.520495414733887 18.803903579711914 10.787436485290527 15.004786491394043 12.150038719177246 10.91697883605957"></path>
<path fill="none" stroke="black" stroke-width=".3" stroke-opacity="1.0"  filling="0" d="M3.5359764099121094 11.065595626831055 C4.766475677490234 11.065595626831055 5.733906269073486 11.065595626831055 7.241709232330322 11.065595626831055 C6.718419075012207 12.73681926727295 6.312998294830322 14.200778007507324 5.800527572631836 15.625447273254395 C5.0990118980407715 17.574542999267578 4.2727952003479 19.478656768798828 3.584376335144043 21.431739807128906 C3.1743993759155273 22.594478607177734 2.641429901123047 23.26467514038086 1.2030954360961914 22.535259246826172 C2.4529542922973633 18.990671157836914 3.700535774230957 15.452914237976074 4.990824222564697 11.795581817626953 C4.561487674713135 11.580343246459961 4.1811203956604 11.3895902633667 3.5359764099121094 11.065595626831055"></path></svg>