<svg xmlns="http://www.w3.org/2000/svg" viewBox="0.0 0.0 24.0 24.0" height="200px" width="200px"><path fill="none" stroke="black" stroke-width=".3" stroke-opacity="1.0"  filling="0" d="M13.755910873413086 17.309497833251953 C15.572006225585938 17.687782287597656 18.347734451293945 17.442142486572266 18.10618782043457 20.87454605102539 C16.04690933227539 20.384902954101562 14.360185623168945 19.751972198486328 12.648897171020508 19.67746353149414 C11.816999435424805 19.641433715820312 10.613365173339844 20.474971771240234 10.195777893066406 21.248737335205078 C9.904285430908203 21.789142608642578 10.425041198730469 23.130334854125977 10.994924545288086 23.701854705810547 C12.332840919494629 25.043048858642578 13.967981338500977 26.07964515686035 15.390233993530273 27.344690322875977 C17.167842864990234 28.926605224609375 17.912132263183594 30.961322784423828 17.102340698242188 33.24822235107422 C16.254064559936523 35.64402770996094 14.078518867492676 36.41533660888672 11.844837188720703 36.394046783447266 C9.582497596740723 36.37275695800781 7.177687168121338 36.08863830566406 5.942938804626465 33.661720275878906 C5.792280197143555 33.36613464355469 6.01663064956665 32.880584716796875 6.100966930389404 32.219810485839844 C7.758214950561523 32.860931396484375 9.286911010742188 33.787811279296875 10.896668434143066 33.95976257324219 C12.020059585571289 34.07930374145508 13.603614807128906 33.45537567138672 14.308600425720215 32.604652404785156 C14.740925788879395 32.08307647705078 14.211163520812988 30.25469970703125 13.563493728637695 29.4637393951416 C12.552278518676758 28.228992462158203 11.093179702758789 27.3496036529541 9.788834571838379 26.366226196289062 C7.723824501037598 24.809688568115234 6.78875732421875 22.83147430419922 7.628844261169434 20.300567626953125 C8.305171966552734 18.262577056884766 11.085810661315918 16.75598907470703 13.755910873413086 17.309497833251953"></path></svg>