<svg xmlns="http://www.w3.org/2000/svg" viewBox="0.0 0.0 24.0 24.0" height="200px" width="200px"><path fill="none" stroke="black" stroke-width=".3" stroke-opacity="1.0"  filling="0" d="M12.511537551879883 12.643972396850586 L12.511537551879883 12.643972396850586 C12.64552116394043 12.698830604553223 12.779504776000977 12.753689765930176 12.913488388061523 12.808547973632812 L12.913488388061523 12.808547973632812 C13.009652137756348 13.347708702087402 13.105815887451172 13.886870384216309 13.201979637145996 14.426031112670898 L13.201979637145996 14.426031112670898 C13.827752113342285 14.561046600341797 14.45352554321289 14.696063041687012 15.07929801940918 14.83107852935791 L15.07929801940918 14.83107852935791 C14.40123176574707 15.314600944519043 13.55986499786377 15.608508110046387 12.730326652526855 15.682222366333008 L12.730326652526855 15.682222366333008 C12.447122573852539 17.241451263427734 11.928717613220215 18.974864959716797 11.917519569396973 20.564876556396484 C11.913894653320312 21.079580307006836 11.739389419555664 21.751867294311523 12.122754096984863 22.095327377319336 C12.139013290405273 22.109893798828125 13.91344928741455 22.19373321533203 14.368720054626465 22.215660095214844 L14.368720054626465 22.215660095214844 C13.550745964050293 23.68412971496582 11.2118501663208 24.20329475402832 10.713216781616211 21.96744155883789 C10.308658599853516 20.15342140197754 11.055087089538574 17.682697296142578 11.373453140258789 15.894815444946289 L11.373453140258789 15.894815444946289 C11.1451416015625 15.79786205291748 9.589778900146484 15.137202262878418 9.489938735961914 15.094786643981934 L9.489938735961914 15.094786643981934 C10.1238431930542 14.859477043151855 10.7577486038208 14.624167442321777 11.391653060913086 14.388856887817383 L11.391653060913086 14.388856887817383 C11.489972114562988 14.235681533813477 12.392940521240234 12.828776359558105 12.511537551879883 12.643972396850586 L12.511537551879883 12.643972396850586"></path></svg>