<svg xmlns="http://www.w3.org/2000/svg" viewBox="0.0 0.0 24.0 24.0" height="200px" width="200px"><path fill="none" stroke="black" stroke-width=".3" stroke-opacity="1.0"  filling="0" d="M11.12257194519043 9.860615730285645 C13.929792404174805 7.610658645629883 17.62489128112793 8.839608192443848 18.385147094726562 12.324565887451172 C19.380847930908203 16.890493392944336 18.573833465576172 21.25012969970703 15.96905517578125 25.15481948852539 C14.394636154174805 27.514801025390625 11.964792251586914 28.440637588500977 9.833108901977539 27.64407730102539 C7.394463539123535 26.732540130615234 6.875709056854248 24.621212005615234 6.775588035583496 22.31899642944336 C6.755784511566162 21.862953186035156 6.7728376388549805 21.405261993408203 6.7728376388549805 20.948665618896484 C6.628708839416504 20.909059524536133 6.485130310058594 20.86890411376953 6.341550827026367 20.82819366455078 C7.077049732208252 18.22066307067871 7.658518314361572 15.554821968078613 8.61571216583252 13.030909538269043 C9.073955535888672 11.82231330871582 10.088361740112305 10.68908405303955 11.12257194519043 9.860615730285645"></path>
<path fill="none" stroke="black" stroke-width=".3" stroke-opacity="1.0"  filling="0" d="M12.138078689575195 11.287605285644531 C14.022211074829102 9.827058792114258 15.93549919128418 10.457487106323242 16.53512191772461 12.758054733276367 C16.78487205505371 13.716898918151855 16.777170181274414 14.742856979370117 16.842632293701172 15.3369779586792 C16.724910736083984 18.810382843017578 16.14674186706543 21.741378784179688 14.362180709838867 24.305999755859375 C13.551315307617188 25.47168731689453 12.520406723022461 26.398624420166016 10.933333396911621 26.080659866333008 C9.247241020202637 25.742891311645508 8.896820068359375 24.296648025512695 8.742238998413086 22.956575393676758 C8.334606170654297 19.42595863342285 8.961732864379883 16.040571212768555 10.706137657165527 12.918136596679688 C11.052157402038574 12.298160552978516 11.574213981628418 11.724393844604492 12.138078689575195 11.287605285644531"></path></svg>