<svg xmlns="http://www.w3.org/2000/svg" viewBox="0.0 0.0 24.0 24.0" height="200px" width="200px"><path fill="none" stroke="black" stroke-width=".3" stroke-opacity="1.0"  filling="0" d="M10.235285758972168 10.11807918548584 C12.357675552368164 8.227903366088867 15.954236030578613 8.319798469543457 17.668325424194336 10.30792236328125 C19.521081924438477 12.456724166870117 18.880016326904297 15.325830459594727 15.750085830688477 18.01829719543457 C17.382183074951172 19.07921600341797 18.492076873779297 20.632076263427734 17.930253982543945 22.514549255371094 C17.486186981201172 24.00192642211914 16.670137405395508 25.609813690185547 15.53217887878418 26.610206604003906 C13.093385696411133 28.753503799438477 9.185922622680664 28.219741821289062 7.487240314483643 25.8453311920166 C5.520027160644531 23.09563446044922 6.661285877227783 19.80116844177246 10.367901802062988 17.530757904052734 C8.06667423248291 14.888364791870117 8.016599655151367 12.094097137451172 10.235285758972168 10.11807918548584"></path>
<path fill="none" stroke="black" stroke-width=".3" stroke-opacity="1.0"  filling="0" d="M13.803783416748047 10.558844566345215 C15.5927095413208 10.537384033203125 16.817058563232422 11.639022827148438 16.880340576171875 13.32559871673584 C16.951873779296875 15.23613452911377 15.431478500366211 16.794498443603516 13.468668937683105 16.821460723876953 C11.694600105285645 16.846223831176758 10.430081367492676 15.718721389770508 10.382759094238281 14.069563865661621 C10.32773208618164 12.144721031188965 11.85087776184082 10.581955909729004 13.803783416748047 10.558844566345215"></path>
<path fill="none" stroke="black" stroke-width=".3" stroke-opacity="1.0"  filling="0" d="M12.754419326782227 18.780420303344727 C14.885613441467285 18.841501235961914 16.226619720458984 20.25019073486328 16.089054107666016 22.28508758544922 C15.943780899047852 24.447093963623047 14.035447120666504 26.177692413330078 11.847575187683105 26.132020950317383 C9.732339859008789 26.087997436523438 8.483778953552246 24.743690490722656 8.565217971801758 22.598739624023438 C8.649410247802734 20.396011352539062 10.492812156677246 18.71548843383789 12.754419326782227 18.780420303344727"></path></svg>