<svg xmlns="http://www.w3.org/2000/svg" viewBox="0.0 0.0 24.0 24.0" height="200px" width="200px"><path fill="none" stroke="black" stroke-width=".3" stroke-opacity="1.0"  filling="0" d="M19.251489639282227 3.1096954345703125 C19.251489639282227 4.6055474281311035 19.251489639282227 6.0502448081970215 19.251489639282227 7.700098037719727 C18.392641067504883 6.229014873504639 17.650638580322266 4.9571638107299805 16.86771011352539 3.6158504486083984 C17.606483459472656 3.4591569900512695 18.347408294677734 3.3013877868652344 19.251489639282227 3.1096954345703125"></path>
<path fill="none" stroke="black" stroke-width=".3" stroke-opacity="1.0"  filling="0" d="M9.414834976196289 3.5216188430786133 C7.132287502288818 6.276937961578369 6.8679022789001465 9.518489837646484 6.9163641929626465 12.851041793823242 C6.965902328491211 16.298824310302734 7.148980140686035 19.683605194091797 10.1072998046875 22.15192413330078 C6.315438747406006 20.474071502685547 4.173968315124512 17.494213104248047 3.8638124465942383 13.383581161499023 C3.5321197509765625 8.992410659790039 5.455512046813965 5.685705184936523 9.414834976196289 3.5216188430786133"></path>
<path fill="none" stroke="black" stroke-width=".3" stroke-opacity="1.0"  filling="0" d="M15.377243041992188 14.9903564453125 C17.33778953552246 14.9903564453125 19.29887580871582 14.9903564453125 21.228191375732422 14.9903564453125 C19.413028717041016 16.711286544799805 21.076881408691406 19.074066162109375 20.134033203125 20.99315071105957 C18.484180450439453 21.462692260742188 16.994251251220703 21.886463165283203 15.504321098327637 22.31023406982422 C17.709869384765625 20.46599578857422 18.090023040771484 18.16029167175293 17.66356086730957 15.409280776977539 C16.888172149658203 15.303204536437988 16.13324546813965 15.199819564819336 15.378321647644043 15.096433639526367 C15.377782821655273 15.060895919799805 15.377782821655273 15.025357246398926 15.377243041992188 14.9903564453125"></path></svg>