<svg xmlns="http://www.w3.org/2000/svg" viewBox="0.0 0.0 24.0 24.0" height="200px" width="200px"><path fill="none" stroke="black" stroke-width=".3" stroke-opacity="1.0"  filling="0" d="M9.564127922058105 9.60246753692627 C11.347526550292969 7.418676853179932 14.040072441101074 7.470103740692139 15.80418586730957 9.692464828491211 C18.120676040649414 12.61137866973877 18.200571060180664 18.89597511291504 15.950658798217773 22.018299102783203 C15.641181945800781 22.448078155517578 15.279818534851074 22.840206146240234 14.741217613220215 23.49405860900879 C15.711894035339355 23.907764434814453 16.557674407958984 24.26866912841797 17.52651596069336 24.68191909790039 C17.16010093688965 25.398218154907227 16.70093536376953 26.296344757080078 16.242229461669922 27.194931030273438 C15.783063888549805 27.194931030273438 15.323898315429688 27.194931030273438 14.86473274230957 27.194931030273438 C13.147455215454102 25.6181583404541 11.409972190856934 24.062965393066406 9.727590560913086 22.450374603271484 C9.301485061645508 22.042177200317383 8.962162017822266 21.48888397216797 8.732579231262207 20.939720153808594 C7.3780412673950195 17.701684951782227 7.394571304321289 14.423704147338867 8.618706703186035 11.155364990234375 C8.828085899353027 10.59656047821045 9.183480262756348 10.068520545959473 9.564127922058105 9.60246753692627"></path>
<path fill="none" stroke="black" stroke-width=".3" stroke-opacity="1.0"  filling="0" d="M12.630434036254883 10.283869743347168 C13.216329574584961 11.163171768188477 13.842171669006348 11.674680709838867 13.867425918579102 12.214658737182617 C13.983135223388672 14.621603012084961 13.995991706848145 17.040027618408203 13.876150131225586 19.44559669494629 C13.851354598999023 19.939197540283203 13.097405433654785 20.396068572998047 12.679564476013184 20.86992835998535 C12.240143775939941 20.41489601135254 11.447624206542969 19.979604721069336 11.420533180236816 19.501155853271484 C11.28462028503418 17.090078353881836 11.285538673400879 14.665225982666016 11.389309883117676 12.25139331817627 C11.413187026977539 11.705904960632324 12.038569450378418 11.186129570007324 12.630434036254883 10.283869743347168"></path></svg>