<svg xmlns="http://www.w3.org/2000/svg" viewBox="0.0 0.0 24.0 24.0" height="200px" width="200px"><path fill="none" stroke="black" stroke-width=".3" stroke-opacity="1.0"  filling="0" d="M9.427140235900879 10.777958869934082 L9.427140235900879 10.777958869934082 C10.725117683410645 10.770537376403809 12.715751647949219 10.459016799926758 13.874777793884277 11.22981071472168 C15.659178733825684 12.416501998901367 15.425288200378418 14.78700065612793 13.974749565124512 16.075984954833984 L13.974749565124512 16.075984954833984 C14.639850616455078 17.906972885131836 15.305121421813965 19.737890243530273 15.970416069030762 21.568805694580078 L15.970416069030762 21.568805694580078 C15.160405158996582 21.568805694580078 14.350393295288086 21.568805694580078 13.540382385253906 21.568805694580078 L13.540382385253906 21.568805694580078 C13.003630638122559 19.863563537597656 12.65304946899414 18.604476928710938 11.600278854370117 17.144086837768555 L11.600278854370117 17.144086837768555 C11.600278854370117 18.605377197265625 11.600278854370117 20.066659927368164 11.600278854370117 21.527950286865234 L11.600278854370117 21.527950286865234 C11.593202590942383 21.527950286865234 9.455422401428223 21.527950286865234 9.427140235900879 21.527950286865234 L9.427140235900879 21.527950286865234 C9.427140235900879 19.736284255981445 9.427140235900879 17.944618225097656 9.427140235900879 16.1529541015625 C9.427140235900879 14.361289024353027 9.427140235900879 12.569623947143555 9.427140235900879 10.777958869934082 L9.427140235900879 10.777958869934082"></path>
<path fill="none" stroke="black" stroke-width=".3" stroke-opacity="1.0"  filling="0" d="M11.632962226867676 12.493851661682129 L11.632962226867676 12.493851661682129 C13.198575019836426 13.805678367614746 13.41053295135498 14.285510063171387 11.632962226867676 15.409235954284668 L11.632962226867676 15.409235954284668 C11.632962226867676 15.400407791137695 11.632962226867676 12.523822784423828 11.632962226867676 12.493851661682129 L11.632962226867676 12.493851661682129"></path></svg>