<svg xmlns="http://www.w3.org/2000/svg" viewBox="0.0 0.0 24.0 24.0" height="200px" width="200px"><path fill="none" stroke="black" stroke-width=".3" stroke-opacity="1.0"  filling="0" d="M9.382652282714844 10.80109691619873 L9.382652282714844 10.80109691619873 C10.096866607666016 10.80109691619873 10.811081886291504 10.80109691619873 11.525296211242676 10.80109691619873 L11.525296211242676 10.80109691619873 C11.524033546447754 12.963800430297852 11.430265426635742 15.152141571044922 11.530476570129395 17.312570571899414 C11.547468185424805 17.678884506225586 11.368151664733887 19.518871307373047 12.416418075561523 19.56304359436035 C13.479192733764648 19.60782814025879 13.357481002807617 17.97850227355957 13.381368637084961 17.54798126220703 C13.504890441894531 15.321781158447266 13.388874053955078 13.053977012634277 13.387521743774414 10.824411392211914 L13.387521743774414 10.824411392211914 C14.066117286682129 10.824411392211914 14.744711875915527 10.824411392211914 15.423307418823242 10.824411392211914 L15.423307418823242 10.824411392211914 C15.721747398376465 12.847357749938965 15.625733375549316 14.955337524414062 15.566866874694824 16.998065948486328 C15.537861824035645 18.004587173461914 15.571159362792969 19.42366600036621 15.029052734375 20.346372604370117 C13.995282173156738 22.105928421020508 10.775721549987793 22.052953720092773 9.812682151794434 20.251510620117188 C9.166770935058594 19.04328155517578 9.055548667907715 17.342437744140625 9.107661247253418 15.612770080566406 C9.159773826599121 13.883103370666504 9.375221252441406 12.124614715576172 9.382652282714844 10.80109691619873 L9.382652282714844 10.80109691619873"></path></svg>