<svg xmlns="http://www.w3.org/2000/svg" viewBox="0.0 0.0 24.0 24.0" height="200px" width="200px"><path fill="none" stroke="black" stroke-width=".3" stroke-opacity="1.0"  filling="0" d="M13.5499906539917 9.668513298034668 C14.27045726776123 12.856647491455078 14.963800430297852 15.924420356750488 15.657142639160156 18.991628646850586 C15.814233779907227 19.015926361083984 15.971323013305664 19.039657592773438 16.12784767150879 19.06395721435547 C16.727954864501953 16.103548049926758 17.328060150146484 13.142572402954102 17.973369598388672 9.957830429077148 C19.124988555908203 9.957830429077148 20.266998291015625 9.957830429077148 21.821510314941406 9.957830429077148 C20.43256378173828 16.199045181274414 19.078086853027344 22.284862518310547 17.709484100341797 28.4356689453125 C16.613811492919922 28.4356689453125 15.698394775390625 28.4356689453125 14.60328483581543 28.4356689453125 C13.872082710266113 25.11022186279297 13.151052474975586 21.82998275756836 12.430020332336426 18.550308227539062 C12.282537460327148 18.515838623046875 12.135618209838867 18.481369018554688 11.988134384155273 18.446334838867188 C11.24958610534668 21.711883544921875 10.511037826538086 24.977996826171875 9.731239318847656 28.426061630249023 C8.794916152954102 28.469009399414062 7.889106273651123 28.5102596282959 6.679853439331055 28.565637588500977 C5.340067386627197 22.376972198486328 4.019495487213135 16.280981063842773 2.622073173522949 9.828994750976562 C4.199188232421875 9.828994750976562 5.205015659332275 9.828994750976562 6.4809465408325195 9.828994750976562 C7.061275482177734 12.893941879272461 7.631432056427002 15.906903266906738 8.201589584350586 18.919864654541016 C8.34907341003418 18.96055030822754 8.497121810913086 19.00123405456543 8.64460563659668 19.041919708251953 C9.37128734588623 16.069080352783203 10.097970008850098 13.096238136291504 10.873812675476074 9.922231674194336 C11.678474426269531 9.845946311950684 12.476920127868652 9.770227432250977 13.5499906539917 9.668513298034668"></path></svg>