<svg xmlns="http://www.w3.org/2000/svg" viewBox="0.0 0.0 24.0 24.0" height="200px" width="200px"><path fill="none" stroke="black" stroke-width=".3" stroke-opacity="1.0"  filling="0" d="M9.672140121459961 10.794883728027344 L9.672140121459961 10.794883728027344 C10.276752471923828 10.794883728027344 10.881364822387695 10.794883728027344 11.485977172851562 10.794883728027344 L11.485977172851562 10.794883728027344 C11.485977172851562 11.89070987701416 11.485977172851562 12.986536026000977 11.485977172851562 14.082362174987793 L11.485977172851562 14.082362174987793 C11.765867233276367 14.114263534545898 13.590137481689453 14.265583992004395 13.902047157287598 14.505904197692871 C15.762239456176758 15.939146995544434 15.793340682983398 19.465435028076172 14.069389343261719 21.008541107177734 C12.855987548828125 22.094654083251953 10.980690002441406 21.44805145263672 9.672140121459961 21.10713005065918 L9.672140121459961 21.10713005065918 C9.672140121459961 19.388423919677734 9.672140121459961 17.669715881347656 9.672140121459961 15.951007843017578 C9.672140121459961 14.2322998046875 9.672140121459961 12.513591766357422 9.672140121459961 10.794883728027344 L9.672140121459961 10.794883728027344"></path>
<path fill="none" stroke="black" stroke-width=".3" stroke-opacity="1.0"  filling="0" d="M12.087238311767578 15.58227252960205 L12.087238311767578 15.58227252960205 C12.700430870056152 16.555635452270508 13.968635559082031 17.824787139892578 13.058530807495117 19.19924545288086 C12.763822555541992 19.644319534301758 12.056428909301758 19.56743812561035 11.555377960205078 19.751535415649414 L11.555377960205078 19.751535415649414 C11.534656524658203 18.147520065307617 11.520001411437988 17.10243797302246 12.087238311767578 15.58227252960205 L12.087238311767578 15.58227252960205"></path></svg>