<svg xmlns="http://www.w3.org/2000/svg" viewBox="0.0 0.0 24.0 24.0" height="200px" width="200px"><path fill="none" stroke="black" stroke-width=".3" stroke-opacity="1.0"  filling="0" d="M12.750570297241211 17.30974006652832 C15.296195983886719 17.50650405883789 17.07608413696289 19.018301010131836 17.74262046813965 21.480302810668945 C18.258304595947266 23.39300537109375 18.429651260375977 25.399169921875 18.82809829711914 27.802141189575195 C16.07341194152832 27.802141189575195 13.810632705688477 27.802141189575195 11.594586372375488 27.802141189575195 C11.057586669921875 32.57857131958008 12.511175155639648 33.45252990722656 18.686264038085938 31.74397087097168 C18.097614288330078 33.22706985473633 17.982013702392578 34.67000198364258 17.215457916259766 35.24800109863281 C13.902456283569336 37.746070861816406 8.481626510620117 36.29494094848633 6.799300193786621 32.52118682861328 C5.034989833831787 28.56378173828125 5.242411136627197 24.544891357421875 7.153474807739258 20.687511444091797 C8.26354694366455 18.446868896484375 10.18936824798584 17.111339569091797 12.750570297241211 17.30974006652832"></path>
<path fill="none" stroke="black" stroke-width=".3" stroke-opacity="1.0"  filling="0" d="M12.895683288574219 20.862957000732422 C13.184268951416016 22.007465362548828 13.68437671661377 23.159347534179688 13.64912223815918 24.294837951660156 C13.636005401611328 24.705581665039062 12.339006423950195 25.075332641601562 11.628199577331543 25.463939666748047 C11.330595016479492 25.223724365234375 11.03381061553955 24.983509063720703 10.7362060546875 24.74329376220703 C11.052667617797852 23.456134796142578 11.368308067321777 22.168975830078125 11.684769630432129 20.88181495666504 C12.088134765625 20.876075744628906 12.492319107055664 20.869516372680664 12.895683288574219 20.862957000732422"></path></svg>