<svg xmlns="http://www.w3.org/2000/svg" viewBox="0.0 0.0 24.0 24.0" height="200px" width="200px"><path fill="none" stroke="black" stroke-width=".3" stroke-opacity="1.0"  filling="0" d="M12.422196388244629 14.98672866821289 L12.422196388244629 14.98672866821289 C13.022324562072754 15.218443870544434 13.728889465332031 15.269425392150879 14.222580909729004 15.681875228881836 C15.617050170898438 16.846872329711914 15.601672172546387 19.285091400146484 15.840805053710938 20.888704299926758 L15.840805053710938 20.888704299926758 C14.48452377319336 20.888704299926758 13.128235816955566 20.888704299926758 11.771954536437988 20.888704299926758 L11.771954536437988 20.888704299926758 C11.774421691894531 21.427061080932617 11.656854629516602 21.97953224182129 11.7793550491333 22.503772735595703 C12.202657699584961 24.315296173095703 14.741720199584961 23.314910888671875 15.76102352142334 23.10598373413086 L15.76102352142334 23.10598373413086 C14.954267501831055 25.62923812866211 12.505746841430664 26.798463821411133 10.127249717712402 24.875959396362305 C8.900153160095215 23.884117126464844 8.293627738952637 21.949277877807617 8.34897232055664 20.048105239868164 C8.404316902160645 18.146930694580078 9.121530532836914 16.279422760009766 10.541914939880371 15.4222412109375 C11.092737197875977 15.089827537536621 11.795435905456543 15.1318998336792 12.422196388244629 14.98672866821289 L12.422196388244629 14.98672866821289"></path>
<path fill="none" stroke="black" stroke-width=".3" stroke-opacity="1.0"  filling="0" d="M12.503822326660156 16.98541259765625 L12.503822326660156 16.98541259765625 C12.645092010498047 17.628890991210938 13.102601051330566 18.280702590942383 12.927631378173828 18.91584587097168 C12.81136703491211 19.3378849029541 12.169785499572754 19.354259490966797 11.790862083435059 19.57346534729004 L11.790862083435059 19.57346534729004 C11.623613357543945 19.438344955444336 11.456364631652832 19.30322265625 11.289115905761719 19.168102264404297 L11.289115905761719 19.168102264404297 C11.466971397399902 18.444074630737305 11.644826889038086 17.720048904418945 11.82268238067627 16.996021270751953 L11.82268238067627 16.996021270751953 C12.049729347229004 16.99248504638672 12.276775360107422 16.988948822021484 12.503822326660156 16.98541259765625 L12.503822326660156 16.98541259765625"></path></svg>