<svg xmlns="http://www.w3.org/2000/svg" viewBox="0.0 0.0 24.0 24.0" height="200px" width="200px"><path fill="none" stroke="black" stroke-width=".3" stroke-opacity="1.0"  filling="0" d="M15.726926803588867 9.535122871398926 C15.773279190063477 10.36943244934082 15.809328079223633 11.013762474060059 15.84308910369873 11.620898246765137 C13.00883960723877 13.125288009643555 12.927583694458008 13.604243278503418 14.54527473449707 16.197011947631836 C14.846839904785156 16.680545806884766 14.755854606628418 18.029861450195312 14.490341186523438 18.14259147644043 C13.119852066040039 18.725120544433594 13.466623306274414 19.8341007232666 13.451745986938477 20.808032989501953 C13.412261009216309 23.362464904785156 13.438584327697754 25.918039321899414 13.438584327697754 28.590347290039062 C12.195130348205566 28.590347290039062 11.280136108398438 28.590347290039062 9.974309921264648 28.590347290039062 C9.974309921264648 26.078834533691406 10.047555923461914 23.63541603088379 9.939404487609863 21.200008392333984 C9.894197463989258 20.175148010253906 10.526510238647461 18.865886688232422 9.06389331817627 18.16604995727539 C8.859607696533203 18.068201065063477 8.746306419372559 17.430164337158203 8.839579582214355 17.1165828704834 C9.4192476272583 15.171005249023438 9.878747940063477 13.154470443725586 10.750252723693848 11.33993148803711 C11.644073486328125 9.477900505065918 13.464334487915039 9.145435333251953 15.726926803588867 9.535122871398926"></path></svg>