<svg xmlns="http://www.w3.org/2000/svg" viewBox="0.0 0.0 24.0 24.0" height="200px" width="200px"><path fill="none" stroke="black" stroke-width=".3" stroke-opacity="1.0"  filling="0" d="M12.103578567504883 10.558640480041504 L12.103578567504883 10.558640480041504 C12.606149673461914 10.847257614135742 13.108721733093262 11.13587474822998 13.611292839050293 11.424491882324219 L13.611292839050293 11.424491882324219 C13.14173698425293 11.773530006408691 12.786626815795898 12.436223030090332 12.202625274658203 12.47160530090332 C11.744434356689453 12.499364852905273 11.182806968688965 12.031478881835938 11.159071922302246 11.5730619430542 C11.13518238067627 11.111661911010742 11.788743019104004 10.896780967712402 12.103578567504883 10.558640480041504 L12.103578567504883 10.558640480041504"></path>
<path fill="none" stroke="black" stroke-width=".3" stroke-opacity="1.0"  filling="0" d="M12.971695899963379 14.275489807128906 L12.971695899963379 14.275489807128906 C12.971695899963379 16.635026931762695 12.971695899963379 18.99457359313965 12.971695899963379 21.354110717773438 L12.971695899963379 21.354110717773438 C12.391548156738281 21.354110717773438 11.811400413513184 21.354110717773438 11.231252670288086 21.354110717773438 L11.231252670288086 21.354110717773438 C11.231252670288086 19.03244400024414 11.231252670288086 16.710769653320312 11.231252670288086 14.3891019821167 L11.231252670288086 14.3891019821167 C11.811400413513184 14.351231575012207 12.391548156738281 14.313360214233398 12.971695899963379 14.275489807128906 L12.971695899963379 14.275489807128906"></path></svg>