<svg xmlns="http://www.w3.org/2000/svg" viewBox="0.0 0.0 24.0 24.0" height="200px" width="200px"><path fill="none" stroke="black" stroke-width=".3" stroke-opacity="1.0"  filling="0" d="M12.119888305664062 6.965527534484863 C12.680925369262695 7.855886459350586 13.228804588317871 8.357933044433594 13.294160842895508 8.916847229003906 C13.388373374938965 9.720207214355469 12.727182388305664 10.331320762634277 11.95183277130127 10.096211433410645 C11.429839134216309 9.93791675567627 10.760160446166992 9.23768138885498 10.738092422485352 8.753459930419922 C10.716874122619629 8.287485122680664 11.443843841552734 7.787984848022461 12.119888305664062 6.965527534484863"></path>
<path fill="none" stroke="black" stroke-width=".3" stroke-opacity="1.0"  filling="0" d="M13.123982429504395 12.481252670288086 C13.123982429504395 16.43906021118164 13.188488960266113 20.22372055053711 13.067963600158691 24.00244140625 C13.044198036193848 24.7353515625 12.29770565032959 25.444923400878906 11.88477897644043 26.16552734375 C11.17733097076416 26.16552734375 10.470306396484375 26.16552734375 9.762857437133789 26.16552734375 C9.686468124389648 25.430917739868164 9.48658275604248 24.781185150146484 10.19233512878418 24.076705932617188 C10.63581657409668 23.633647918701172 10.665522575378418 22.660110473632812 10.677406311035156 21.920833587646484 C10.72663402557373 18.899642944335938 10.698201179504395 15.876751899719238 10.698201179504395 12.62257194519043 C11.540179252624512 12.573344230651855 12.257389068603516 12.531753540039062 13.123982429504395 12.481252670288086"></path></svg>