<svg xmlns="http://www.w3.org/2000/svg" viewBox="0.0 0.0 24.0 24.0" height="200px" width="200px"><path fill="none" stroke="black" stroke-width=".3" stroke-opacity="1.0"  filling="0" d="M9.380277633666992 6.664458751678467 L9.380277633666992 6.664458751678467 C9.943449020385742 6.664458751678467 10.506620407104492 6.664458751678467 11.069791793823242 6.664458751678467 L11.069791793823242 6.664458751678467 C11.069791793823242 9.082723617553711 11.069791793823242 11.500991821289062 11.069791793823242 13.919257164001465 L11.069791793823242 13.919257164001465 C11.42352294921875 13.718786239624023 11.777255058288574 13.518315315246582 12.130986213684082 13.31784439086914 L12.130986213684082 13.31784439086914 C13.275093078613281 14.700029373168945 14.419126510620117 16.082277297973633 15.563237190246582 17.464458465576172 L15.563237190246582 17.464458465576172 C14.928807258605957 17.464555740356445 14.294376373291016 17.46465492248535 13.65994644165039 17.464752197265625 L13.65994644165039 17.464752197265625 C12.940690040588379 16.25325584411621 12.111713409423828 15.27749252319336 11.193977355957031 14.210205078125 L11.193977355957031 14.210205078125 C11.193977355957031 15.289238929748535 11.193977355957031 16.36827278137207 11.193977355957031 17.447307586669922 L11.193977355957031 17.447307586669922 C10.531851768493652 17.447307586669922 9.869725227355957 17.447307586669922 9.207599639892578 17.447307586669922 L9.207599639892578 17.447307586669922 C9.880891799926758 16.03428840637207 10.14344596862793 14.044328689575195 10.127985000610352 12.054747581481934 C10.112523078918457 10.065166473388672 9.819046020507812 8.075963020324707 9.380277633666992 6.664458751678467 L9.380277633666992 6.664458751678467"></path></svg>