<svg xmlns="http://www.w3.org/2000/svg" viewBox="0.0 0.0 24.0 24.0" height="200px" width="200px"><path fill="none" stroke="black" stroke-width=".3" stroke-opacity="1.0"  filling="0" d="M12.395098686218262 8.803560256958008 L12.395098686218262 8.803560256958008 C12.402108192443848 8.943655014038086 12.509946823120117 11.095693588256836 12.517560958862305 11.247394561767578 L12.517560958862305 11.247394561767578 C12.720418930053711 11.260784149169922 14.43667221069336 11.373930931091309 14.675003051757812 11.389622688293457 L14.675003051757812 11.389622688293457 C14.67539119720459 11.422563552856445 14.67577838897705 11.455504417419434 14.676166534423828 11.488445281982422 L14.676166534423828 11.488445281982422 C13.940096855163574 11.54516887664795 13.20402717590332 11.601877212524414 12.467955589294434 11.658576011657715 L12.467955589294434 11.658576011657715 C12.466445922851562 12.807326316833496 12.206480979919434 14.52083683013916 12.248412132263184 16.07989501953125 C12.290342330932617 17.638952255249023 12.63416862487793 19.043556213378906 13.840240478515625 19.574493408203125 L13.840240478515625 19.574493408203125 C13.218547821044922 19.54252815246582 12.568217277526855 19.667831420898438 11.9751615524292 19.478599548339844 C10.793217658996582 19.101465225219727 10.894993782043457 17.924245834350586 10.81586742401123 16.957427978515625 C10.64604377746582 14.882403373718262 11.032818794250488 13.283072471618652 10.157822608947754 11.3280029296875 L10.157822608947754 11.3280029296875 C10.359343528747559 11.259796142578125 10.56086540222168 11.191588401794434 10.762386322021484 11.123381614685059 L10.762386322021484 11.123381614685059 C10.79699420928955 10.434332847595215 10.831615447998047 9.745284080505371 10.86624813079834 9.056236267089844 L10.86624813079834 9.056236267089844 C11.37586498260498 8.972010612487793 11.885481834411621 8.887785911560059 12.395098686218262 8.803560256958008 L12.395098686218262 8.803560256958008"></path></svg>