<svg xmlns="http://www.w3.org/2000/svg" viewBox="0.0 0.0 24.0 24.0" height="200px" width="200px"><path fill="none" stroke="black" stroke-width=".3" stroke-opacity="1.0"  filling="0" d="M3.064652442932129 10.713814735412598 C4.14394998550415 10.713814735412598 5.697127819061279 10.713814735412598 7.848754405975342 10.713814735412598 C7.848754405975342 14.795806884765625 7.79910135269165 18.778493881225586 7.862691879272461 22.75943946838379 C7.92976713180542 26.979936599731445 8.341798782348633 27.6411075592041 11.444670677185059 29.26397132873535 C6.3086419105529785 29.67426109313965 4.3207831382751465 27.987804412841797 4.182277679443359 22.96153450012207 C4.098651885986328 19.9344482421875 4.2537078857421875 16.898653030395508 4.109976291656494 13.87505054473877 C4.05771017074585 12.814046859741211 3.434000015258789 11.780046463012695 3.064652442932129 10.713814735412598"></path>
<path fill="none" stroke="black" stroke-width=".3" stroke-opacity="1.0"  filling="0" d="M16.189571380615234 10.75475788116455 C17.328975677490234 10.75475788116455 19.00236701965332 10.75475788116455 21.266366958618164 10.75475788116455 C21.266366958618164 15.47962474822998 21.20364761352539 20.179229736328125 21.309921264648438 24.874481201171875 C21.336925506591797 26.07921600341797 21.897918701171875 27.272628784179688 22.263782501220703 28.662036895751953 C21.239360809326172 28.662036895751953 19.680957794189453 28.662036895751953 17.515392303466797 28.662036895751953 C17.419570922851562 26.72470474243164 17.25406265258789 24.836151123046875 17.24796485900879 22.94759750366211 C17.237512588500977 19.782878875732422 17.41521644592285 16.615543365478516 17.32200813293457 13.455179214477539 C17.295873641967773 12.561426162719727 16.60073471069336 11.688580513000488 16.189571380615234 10.75475788116455"></path></svg>