<svg xmlns="http://www.w3.org/2000/svg" viewBox="0.0 0.0 24.0 24.0" height="200px" width="200px"><path fill="none" stroke="black" stroke-width=".3" stroke-opacity="1.0"  filling="0" d="M4.913054466247559 10.692975997924805 L4.913054466247559 10.692975997924805 C6.050074577331543 10.692975997924805 7.187094688415527 10.692975997924805 8.324114799499512 10.692975997924805 L8.324114799499512 10.692975997924805 C8.336363792419434 10.747039794921875 8.348611831665039 10.801102638244629 8.360860824584961 10.8551664352417 L8.360860824584961 10.8551664352417 C8.040563583374023 10.955409049987793 7.720265865325928 11.05565071105957 7.39996862411499 11.155893325805664 L7.39996862411499 11.155893325805664 C8.21938705444336 13.400501251220703 9.038716316223145 15.6451416015625 9.858161926269531 17.889738082885742 L9.858161926269531 17.889738082885742 C9.659975051879883 18.337905883789062 8.979005813598633 19.87749671936035 8.84489631652832 20.18067169189453 L8.84489631652832 20.18067169189453 C8.207826614379883 18.59234619140625 7.657465934753418 16.95944595336914 7.050073146820068 15.354116439819336 C6.4426798820495605 13.748786926269531 5.778254508972168 12.171026229858398 4.913054466247559 10.692975997924805 L4.913054466247559 10.692975997924805"></path>
<path fill="none" stroke="black" stroke-width=".3" stroke-opacity="1.0"  filling="0" d="M11.146812438964844 10.708603858947754 L11.146812438964844 10.708603858947754 C12.004364013671875 10.708603858947754 12.861916542053223 10.708603858947754 13.719468116760254 10.708603858947754 L13.719468116760254 10.708603858947754 C13.581419944763184 13.292354583740234 15.464688301086426 15.105965614318848 15.702290534973145 17.54743003845215 C15.807454109191895 18.628034591674805 15.320720672607422 19.182037353515625 14.837059020996094 20.090286254882812 L14.837059020996094 20.090286254882812 C14.222082138061523 18.526647567749023 13.607068061828613 16.963024139404297 12.992024421691895 15.399410247802734 C12.37697982788086 13.835798263549805 11.761906623840332 12.272196769714355 11.146812438964844 10.708603858947754 L11.146812438964844 10.708603858947754"></path></svg>