<svg xmlns="http://www.w3.org/2000/svg" viewBox="0.0 0.0 24.0 24.0" height="200px" width="200px"><path fill="none" stroke="black" stroke-width=".3" stroke-opacity="1.0"  filling="0" d="M12.614416122436523 9.222671508789062 C14.511686325073242 9.239465713500977 16.186702728271484 10.501887321472168 16.973268508911133 12.574385643005371 C17.235828399658203 13.265218734741211 17.46535873413086 13.991320610046387 17.554933547973633 14.720781326293945 C17.72344398498535 16.100767135620117 17.7794246673584 17.494190216064453 17.882434844970703 18.881454467773438 C17.95241355895996 18.899370193481445 18.02127456665039 18.916723251342773 18.0906925201416 18.93463897705078 C17.70888900756836 21.01889419555664 17.512386322021484 23.159692764282227 16.895450592041016 25.17172622680664 C16.209657669067383 27.409378051757812 14.597341537475586 28.420434951782227 12.537717819213867 28.422672271728516 C10.474737167358398 28.424911499023438 9.001259803771973 27.4345703125 8.224212646484375 25.117982864379883 C6.82463264465332 20.946115493774414 6.866060256958008 16.7048282623291 8.26172161102295 12.539676666259766 C8.9928617477417 10.358011245727539 10.690832138061523 9.205876350402832 12.614416122436523 9.222671508789062"></path>
<path fill="none" stroke="black" stroke-width=".3" stroke-opacity="1.0"  filling="0" d="M12.564590454101562 12.37116813659668 C10.385724067687988 15.36291217803955 10.541357040405273 23.172008514404297 12.68327522277832 25.095592498779297 C14.469698905944824 22.726940155029297 14.485374450683594 15.035408973693848 12.564590454101562 12.37116813659668"></path></svg>