<svg xmlns="http://www.w3.org/2000/svg" viewBox="0.0 0.0 24.0 24.0" height="200px" width="200px"><path fill="none" stroke="black" stroke-width=".3" stroke-opacity="1.0"  filling="0" d="M14.756274223327637 6.605261325836182 L14.756274223327637 6.605261325836182 C14.756274223327637 8.976849555969238 14.754229545593262 11.348458290100098 14.75816535949707 13.720044136047363 C14.761028289794922 15.44489860534668 14.319195747375488 16.18163299560547 15.938472747802734 16.83608627319336 L15.938472747802734 16.83608627319336 C15.157883644104004 17.126174926757812 14.185125350952148 17.285751342773438 13.441354751586914 16.911216735839844 L13.441354751586914 16.911216735839844 C12.819961547851562 17.074533462524414 12.217032432556152 17.45934295654297 11.57717514038086 17.401168823242188 C8.568583488464355 17.12763786315918 8.520292282104492 13.112051963806152 10.514113426208496 11.628604888916016 C11.514060020446777 10.884622573852539 12.43846321105957 11.066880226135254 13.59161376953125 11.04874324798584 L13.59161376953125 11.04874324798584 C13.670379638671875 9.766426086425781 13.529472351074219 8.455322265625 13.194332122802734 7.215071201324463 L13.194332122802734 7.215071201324463 C13.71497917175293 7.011801242828369 14.235627174377441 6.808531284332275 14.756274223327637 6.605261325836182 L14.756274223327637 6.605261325836182"></path>
<path fill="none" stroke="black" stroke-width=".3" stroke-opacity="1.0"  filling="0" d="M12.79909610748291 11.597747802734375 L12.79909610748291 11.597747802734375 C13.308918952941895 12.366829872131348 13.673810958862305 13.301071166992188 13.674636840820312 14.223787307739258 L13.674636840820312 14.223787307739258 C13.688279151916504 14.223787307739258 13.701921463012695 14.223787307739258 13.715563774108887 14.223787307739258 L13.715563774108887 14.223787307739258 C13.7142972946167 14.514172554016113 13.790928840637207 14.81555461883545 13.711763381958008 15.09494400024414 C13.136062622070312 17.126693725585938 11.81760025024414 16.82223892211914 10.971957206726074 15.776044845581055 C10.126314163208008 14.729852676391602 9.753488540649414 12.941923141479492 11.069061279296875 12.00672435760498 C11.552037239074707 11.663392066955566 12.222417831420898 11.734073638916016 12.79909610748291 11.597747802734375 L12.79909610748291 11.597747802734375"></path></svg>