<svg xmlns="http://www.w3.org/2000/svg" viewBox="0.0 0.0 24.0 24.0" height="200px" width="200px"><path fill="none" stroke="black" stroke-width=".3" stroke-opacity="1.0"  filling="0" d="M14.261449813842773 9.192997932434082 C16.92236328125 9.192997932434082 19.619274139404297 9.192997932434082 22.316654205322266 9.192997932434082 C22.343767166137695 10.418272018432617 22.343767166137695 10.418272018432617 20.651947021484375 10.957280158996582 C20.651947021484375 14.783161163330078 20.651947021484375 18.650650024414062 20.651947021484375 22.47980499267578 C21.055383682250977 23.331092834472656 23.06229019165039 22.431652069091797 22.43259048461914 24.373111724853516 C19.7239933013916 24.373111724853516 16.95929718017578 24.373111724853516 14.23433780670166 24.373111724853516 C13.587340354919434 22.57797622680664 15.216052055358887 23.19365119934082 15.940650939941406 22.59293556213379 C15.940650939941406 21.05257797241211 15.940650939941406 19.391143798828125 15.940650939941406 17.606292724609375 C13.970209121704102 17.606292724609375 12.05773639678955 17.606292724609375 9.996603012084961 17.606292724609375 C9.996603012084961 19.259780883789062 9.996603012084961 20.86371612548828 9.996603012084961 22.652305603027344 C10.227070808410645 23.43253517150879 12.292879104614258 22.333480834960938 11.79781436920166 24.39695167541504 C9.005069732666016 24.39695167541504 6.3062896728515625 24.39695167541504 3.6084442138671875 24.39695167541504 C3.546269416809082 23.147836685180664 3.546269416809082 23.147836685180664 5.362908840179443 22.532161712646484 C5.362908840179443 18.704875946044922 5.362908840179443 14.843465805053711 5.362908840179443 11.150349617004395 C4.787905216217041 10.268209457397461 2.8389673233032227 11.191020965576172 3.483626365661621 9.200944900512695 C6.201106071472168 9.200944900512695 8.969074249267578 9.200944900512695 11.712732315063477 9.200944900512695 C12.377493858337402 11.131182670593262 10.40611743927002 10.261197090148926 9.933491706848145 11.088642120361328 C9.933491706848145 12.455095291137695 9.933491706848145 13.915513038635254 9.933491706848145 15.536275863647461 C11.919360160827637 15.536275863647461 13.823885917663574 15.536275863647461 15.918210983276367 15.536275863647461 C15.918210983276367 14.038460731506348 15.918210983276367 12.530359268188477 15.918210983276367 11.009637832641602 C15.531135559082031 10.278493881225586 13.524697303771973 11.140066146850586 14.261449813842773 9.192997932434082"></path></svg>