<svg xmlns="http://www.w3.org/2000/svg" viewBox="0.0 0.0 24.0 24.0" height="200px" width="200px"><path fill="none" stroke="black" stroke-width=".3" stroke-opacity="1.0"  filling="0" d="M10.051005363464355 10.809998512268066 L10.051005363464355 10.809998512268066 C10.685237884521484 10.809998512268066 11.31947135925293 10.809998512268066 11.953703880310059 10.809998512268066 L11.953703880310059 10.809998512268066 C12.359781265258789 12.385919570922852 12.765912055969238 13.96182918548584 13.172070503234863 15.537729263305664 L13.172070503234863 15.537729263305664 C13.24716567993164 15.542728424072266 13.322260856628418 15.54772663116455 13.397356033325195 15.552725791931152 L13.397356033325195 15.552725791931152 C13.6524019241333 13.988547325134277 13.907510757446289 12.424386978149414 14.162543296813965 10.860206604003906 L14.162543296813965 10.860206604003906 C14.846006393432617 10.860206604003906 15.52946949005127 10.860206604003906 16.212932586669922 10.860206604003906 L16.212932586669922 10.860206604003906 C15.966147422790527 12.637822151184082 15.71934700012207 14.415434837341309 15.472539901733398 16.19304656982422 C15.225733757019043 17.970659255981445 14.978921890258789 19.748271942138672 14.732112884521484 21.5258846282959 L14.732112884521484 21.5258846282959 C14.128744125366211 21.553922653198242 13.525375366210938 21.581960678100586 12.922006607055664 21.60999870300293 L12.922006607055664 21.60999870300293 C12.487720489501953 19.957883834838867 12.053325653076172 18.305795669555664 11.618873596191406 16.653722763061523 L11.618873596191406 16.653722763061523 C11.533997535705566 16.648723602294922 11.449121475219727 16.64372444152832 11.364245414733887 16.63872528076172 L11.364245414733887 16.63872528076172 C11.113584518432617 18.25431251525879 10.862879753112793 19.86988639831543 10.612099647521973 21.485454559326172 L10.612099647521973 21.485454559326172 C9.926898002624512 21.485454559326172 9.241695404052734 21.485454559326172 8.556493759155273 21.485454559326172 L8.556493759155273 21.485454559326172 C8.805639266967773 19.706220626831055 9.054771423339844 17.926984786987305 9.303864479064941 16.147743225097656 C9.552957534790039 14.368500709533691 9.802013397216797 12.589254379272461 10.051005363464355 10.809998512268066 L10.051005363464355 10.809998512268066"></path></svg>