<svg xmlns="http://www.w3.org/2000/svg" viewBox="0.0 0.0 24.0 24.0" height="200px" width="200px"><path fill="none" stroke="black" stroke-width=".3" stroke-opacity="1.0"  filling="0" d="M16.744380950927734 9.934629440307617 C16.744380950927734 10.794849395751953 16.744380950927734 11.688133239746094 16.744380950927734 12.87843132019043 C16.208633422851562 12.73720932006836 15.832043647766113 12.589823722839355 15.443120956420898 12.543310165405273 C13.280523300170898 12.286645889282227 12.45224666595459 13.207387924194336 13.106237411499023 15.283685684204102 C13.495158195495605 16.518815994262695 14.137941360473633 17.672687530517578 14.621009826660156 18.880916595458984 C14.999842643737793 19.828001022338867 15.444803237915039 20.779006958007812 15.621891975402832 21.77092170715332 C16.015295028686523 23.974987030029297 15.894807815551758 26.158321380615234 13.77760124206543 27.50889778137207 C11.718116760253906 28.823606491088867 9.571209907531738 28.62017822265625 7.267949104309082 27.319480895996094 C7.503318786621094 26.243507385253906 7.679285526275635 25.437644958496094 7.910171985626221 24.379039764404297 C8.319267272949219 24.579105377197266 8.591623306274414 24.804386138916016 8.885835647583008 24.838571548461914 C9.663115501403809 24.928796768188477 10.825393676757812 25.26616096496582 11.145944595336914 24.900775909423828 C11.648066520690918 24.329164505004883 11.807221412658691 23.23077392578125 11.700183868408203 22.409221649169922 C11.572412490844727 21.427955627441406 11.013128280639648 20.502166748046875 10.636537551879883 19.553964614868164 C10.258825302124023 18.602956771850586 9.846368789672852 17.664281845092773 9.500598907470703 16.702068328857422 C8.682409286499023 14.427388191223145 8.754701614379883 12.227241516113281 10.623087882995605 10.507922172546387 C12.39004135131836 8.881630897521973 14.474184036254883 8.869301795959473 16.744380950927734 9.934629440307617"></path></svg>