<svg xmlns="http://www.w3.org/2000/svg" viewBox="0.0 0.0 24.0 24.0" height="200px" width="200px"><path fill="none" stroke="black" stroke-width=".3" stroke-opacity="1.0"  filling="0" d="M16.41167640686035 3.2766876220703125 C17.474456787109375 3.6935176849365234 17.877304077148438 4.435206413269043 17.111949920654297 5.308128833770752 C15.528533935546875 4.886996269226074 14.162943840026855 4.523413181304932 12.796817779541016 4.159829616546631 C12.7139892578125 4.066244602203369 12.630084991455078 3.9731969833374023 12.54564380645752 3.8801498413085938 C13.677807807922363 2.68613338470459 15.052002906799316 2.743682861328125 16.41167640686035 3.2766876220703125"></path>
<path fill="none" stroke="black" stroke-width=".3" stroke-opacity="1.0"  filling="0" d="M12.546182632446289 3.880685806274414 C12.630084991455078 3.9731969833374023 12.7139892578125 4.066244602203369 12.797355651855469 4.160367488861084 C11.041291236877441 6.29453706741333 11.388200759887695 8.790139198303223 11.309675216674805 11.334146499633789 C12.63277530670166 11.502492904663086 13.700397491455078 11.638030052185059 14.768558502197266 11.774105072021484 C14.7771635055542 11.975797653198242 14.785768508911133 12.17695140838623 14.794374465942383 12.378643035888672 C13.740198135375977 12.53354263305664 12.68602180480957 12.687904357910156 11.315053939819336 12.889058113098145 C11.315053939819336 15.244282722473145 11.215015411376953 17.64522361755371 11.376906394958496 20.028953552246094 C11.424775123596191 20.73406982421875 12.210566520690918 21.388626098632812 12.690324783325195 22.114715576171875 C11.298380851745605 22.114715576171875 9.719266891479492 22.114715576171875 8.103580474853516 22.114715576171875 C10.432988166809082 19.555648803710938 9.021682739257812 16.501224517822266 9.279848098754883 13.696900367736816 C9.320186614990234 13.255330085754395 8.548378944396973 12.738997459411621 8.41445541381836 12.576030731201172 C8.785568237304688 11.343289375305176 9.196481704711914 10.250388145446777 9.436899185180664 9.121450424194336 C9.886537551879883 7.008794784545898 10.268945693969727 4.893986225128174 12.546182632446289 3.880685806274414"></path></svg>