<svg xmlns="http://www.w3.org/2000/svg" viewBox="0.0 0.0 24.0 24.0" height="200px" width="200px"><path fill="none" stroke="black" stroke-width=".3" stroke-opacity="1.0"  filling="0" d="M7.199217319488525 9.481752395629883 L7.199217319488525 9.481752395629883 C8.877904891967773 9.845016479492188 10.452848434448242 10.019295692443848 12.028820991516113 10.019530296325684 C13.604793548583984 10.019763946533203 15.181795120239258 9.845952987670898 16.86459732055664 9.51303482055664 L16.86459732055664 9.51303482055664 C16.866365432739258 10.782722473144531 17.4644718170166 12.425660133361816 16.08785057067871 12.901252746582031 L16.08785057067871 12.901252746582031 C15.992334365844727 12.37476634979248 15.896819114685059 11.848280906677246 15.801302909851074 11.321794509887695 L15.801302909851074 11.321794509887695 C15.779773712158203 11.321794509887695 13.54842758178711 11.321794509887695 13.545515060424805 11.321794509887695 L13.545515060424805 11.321794509887695 C13.545515060424805 13.252886772155762 13.545515060424805 15.183982849121094 13.545515060424805 17.115076065063477 C13.545515060424805 17.754785537719727 13.310990333557129 18.43903350830078 13.545515060424805 19.034202575683594 C13.660056114196777 19.324880599975586 14.19633674621582 19.141843795776367 14.42713737487793 19.35242462158203 C14.685453414916992 19.588111877441406 14.75117301940918 19.972185134887695 14.913190841674805 20.28206443786621 L14.913190841674805 20.28206443786621 C12.988059997558594 20.28206443786621 11.0629301071167 20.28206443786621 9.137799263000488 20.28206443786621 L9.137799263000488 20.28206443786621 C9.35374641418457 19.7221736907959 9.905409812927246 19.243858337402344 10.484827041625977 19.087696075439453 L10.484827041625977 19.087696075439453 C10.484827041625977 17.79833221435547 10.484827041625977 16.508968353271484 10.484827041625977 15.2196044921875 C10.484827041625977 13.9302396774292 10.484827041625977 12.640875816345215 10.484827041625977 11.35151195526123 L10.484827041625977 11.35151195526123 C10.484670639038086 11.35151195526123 8.342596054077148 11.35151195526123 8.342596054077148 11.35151195526123 C8.083745956420898 11.536168098449707 8.313675880432129 12.029485702514648 8.11521053314209 12.27790641784668 C7.897608280181885 12.550281524658203 7.5045485496521 12.614428520202637 7.199217319488525 12.782690048217773 L7.199217319488525 12.782690048217773 C7.199217319488525 12.756958961486816 7.199217319488525 9.500588417053223 7.199217319488525 9.481752395629883 L7.199217319488525 9.481752395629883"></path></svg>