<svg xmlns="http://www.w3.org/2000/svg" viewBox="0.0 0.0 24.0 24.0" height="200px" width="200px"><path fill="none" stroke="black" stroke-width=".3" stroke-opacity="1.0"  filling="0" d="M13.022595405578613 10.508581161499023 L13.022595405578613 10.508581161499023 C13.496996879577637 10.837326049804688 13.971397399902344 11.166070938110352 14.445798873901367 11.494815826416016 L14.445798873901367 11.494815826416016 C13.96378231048584 11.806184768676758 13.573538780212402 12.436415672302246 12.999749183654785 12.428923606872559 C10.401590347290039 12.394997596740723 13.014967918395996 10.515924453735352 13.022595405578613 10.508581161499023 L13.022595405578613 10.508581161499023"></path>
<path fill="none" stroke="black" stroke-width=".3" stroke-opacity="1.0"  filling="0" d="M11.671148300170898 14.353772163391113 L11.671148300170898 14.353772163391113 C12.307616233825684 14.353772163391113 12.944083213806152 14.353772163391113 13.580551147460938 14.353772163391113 L13.580551147460938 14.353772163391113 C13.257694244384766 16.66658592224121 12.934760093688965 18.979389190673828 12.61169147491455 21.292171478271484 L12.61169147491455 21.292171478271484 C11.975008964538574 21.292171478271484 11.338327407836914 21.292171478271484 10.701644897460938 21.292171478271484 L10.701644897460938 21.292171478271484 C11.024848937988281 18.9793758392334 11.347942352294922 16.666568756103516 11.671148300170898 14.353772163391113 L11.671148300170898 14.353772163391113"></path></svg>