<svg xmlns="http://www.w3.org/2000/svg" viewBox="0.0 0.0 24.0 24.0" height="200px" width="200px"><path fill="none" stroke="black" stroke-width=".3" stroke-opacity="1.0"  filling="0" d="M2.909358024597168 3.9910240173339844 C5.314444541931152 3.9910240173339844 7.734371185302734 3.9910240173339844 10.423337936401367 3.9910240173339844 C10.423337936401367 5.406597137451172 10.423337936401367 6.866692066192627 10.423337936401367 8.762420654296875 C12.652734756469727 6.956690788269043 14.841917991638184 6.483716011047363 17.198654174804688 6.693873882293701 C20.333786010742188 6.973445892333984 21.962390899658203 8.614017486572266 22.062923431396484 11.753938674926758 C22.144304275512695 14.299288749694824 22.094520568847656 16.849428176879883 22.0902099609375 19.397172927856445 C22.089731216430664 19.69924545288086 22.008346557617188 20.000839233398438 21.958084106445312 20.345035552978516 C19.396455764770508 20.344558715820312 16.919559478759766 20.344558715820312 14.377080917358398 20.344558715820312 C14.377080917358398 18.152023315429688 14.356496810913086 16.1619873046875 14.384740829467773 14.172906875610352 C14.40197467803955 12.933502197265625 13.869638442993164 12.187658309936523 12.619223594665527 12.076595306396484 C11.385564804077148 11.966968536376953 10.586103439331055 12.694622039794922 10.537752151489258 14.110673904418945 C10.46738052368164 16.161508560180664 10.519560813903809 18.21712875366211 10.519560813903809 20.407272338867188 C7.895699501037598 20.407272338867188 5.475772857666016 20.407272338867188 2.909358024597168 20.407272338867188 C2.909358024597168 14.93981647491455 2.909358024597168 9.558052062988281 2.909358024597168 3.9910240173339844"></path></svg>