<svg xmlns="http://www.w3.org/2000/svg" viewBox="0.0 0.0 24.0 24.0" height="200px" width="200px"><path fill="none" stroke="black" stroke-width=".3" stroke-opacity="1.0"  filling="0" d="M14.075979232788086 14.813758850097656 L14.075979232788086 14.813758850097656 C14.573221206665039 14.951708793640137 15.225847244262695 14.841069221496582 15.567705154418945 15.227609634399414 C16.481321334838867 16.260639190673828 16.19735336303711 17.68827247619629 16.09181785583496 18.86271858215332 C15.895689964294434 21.045307159423828 15.595816612243652 23.218791961669922 15.33912467956543 25.394737243652344 L15.33912467956543 25.394737243652344 C14.403565406799316 25.394737243652344 13.468006134033203 25.394737243652344 12.53244686126709 25.394737243652344 L12.53244686126709 25.394737243652344 C12.67969799041748 24.080059051513672 12.826969146728516 22.765380859375 12.974246978759766 21.450706481933594 C13.121524810791016 20.136030197143555 13.268808364868164 18.82135581970215 13.416083335876465 17.50667953491211 L13.416083335876465 17.50667953491211 C12.884638786315918 17.608795166015625 12.258037567138672 17.492847442626953 11.821749687194824 17.813024520874023 C11.327654838562012 18.17562484741211 11.120928764343262 20.1544132232666 11.05491828918457 20.572463989257812 C10.803126335144043 22.167083740234375 10.574398040771484 23.7654972076416 10.336100578308105 25.36216926574707 L10.336100578308105 25.36216926574707 C9.409196853637695 25.407363891601562 8.482291221618652 25.4525146484375 7.555384635925293 25.49764060974121 L7.555384635925293 25.49764060974121 C7.793038368225098 23.784053802490234 8.03055477142334 22.070446014404297 8.267972946166992 20.35682487487793 C8.505390167236328 18.643203735351562 8.742708206176758 16.929569244384766 8.979965209960938 15.215926170349121 L8.979965209960938 15.215926170349121 C10.750895500183105 15.031460762023926 12.3345947265625 15.181220054626465 14.075979232788086 14.813758850097656 L14.075979232788086 14.813758850097656"></path></svg>