<svg xmlns="http://www.w3.org/2000/svg" viewBox="0.0 0.0 24.0 24.0" height="200px" width="200px"><path fill="none" stroke="black" stroke-width=".3" stroke-opacity="1.0"  filling="0" d="M13.896285057067871 12.587566375732422 L13.896285057067871 12.587566375732422 C14.51445484161377 12.7568998336792 15.273857116699219 12.667387008666992 15.750794410705566 13.09556770324707 C17.071653366088867 14.28139877319336 16.473840713500977 17.636032104492188 16.462127685546875 19.186195373535156 L16.462127685546875 19.186195373535156 C16.89228630065918 19.577030181884766 17.322446823120117 19.967866897583008 17.752605438232422 20.358701705932617 L17.752605438232422 20.358701705932617 C17.687978744506836 20.462215423583984 17.623350143432617 20.565731048583984 17.55872344970703 20.66924476623535 L17.55872344970703 20.66924476623535 C15.876642227172852 20.66924476623535 14.194561004638672 20.66924476623535 12.512479782104492 20.66924476623535 L12.512479782104492 20.66924476623535 C13.654294967651367 18.46748161315918 13.498178482055664 16.79530143737793 13.428006172180176 14.37392807006836 L13.428006172180176 14.37392807006836 C12.817544937133789 14.388168334960938 12.11267375946045 14.090217590332031 11.596623420715332 14.416648864746094 C11.199590682983398 14.667794227600098 11.291193962097168 15.309861183166504 11.21542739868164 15.773508071899414 C10.917703628540039 17.59540557861328 11.258118629455566 19.10582160949707 12.209494590759277 20.633098602294922 L12.209494590759277 20.633098602294922 C10.554576873779297 20.633098602294922 8.899664878845215 20.633098602294922 7.244747638702393 20.633098602294922 L7.244747638702393 20.633098602294922 C7.147476673126221 20.537033081054688 7.050206184387207 20.440967559814453 6.952935218811035 20.34490203857422 L6.952935218811035 20.34490203857422 C7.370497703552246 19.9899959564209 7.788060188293457 19.635087966918945 8.205622673034668 19.280181884765625 L8.205622673034668 19.280181884765625 C8.205622673034668 17.654294967651367 8.205622673034668 16.028406143188477 8.205622673034668 14.402518272399902 L8.205622673034668 14.402518272399902 C7.797699451446533 14.029866218566895 7.389776229858398 13.657215118408203 6.981853008270264 13.284563064575195 L6.981853008270264 13.284563064575195 C7.053053379058838 13.11762523651123 7.12425422668457 12.950688362121582 7.1954545974731445 12.783750534057617 L7.1954545974731445 12.783750534057617 C9.647476196289062 13.028214454650879 11.493556022644043 13.175386428833008 13.896285057067871 12.587566375732422 L13.896285057067871 12.587566375732422"></path></svg>