<svg xmlns="http://www.w3.org/2000/svg" viewBox="0.0 0.0 24.0 24.0" height="200px" width="200px"><path fill="none" stroke="black" stroke-width=".3" stroke-opacity="1.0"  filling="0" d="M7.435458660125732 13.477066993713379 L7.435458660125732 13.477066993713379 C9.303438186645508 13.477066993713379 11.171412467956543 13.477066993713379 13.039392471313477 13.477066993713379 L13.039392471313477 13.477066993713379 C13.18431282043457 14.0775146484375 13.329233169555664 14.677963256835938 13.474153518676758 15.278410911560059 L13.474153518676758 15.278410911560059 C15.098189353942871 13.457865715026855 15.50100326538086 13.116331100463867 17.91006088256836 13.72134017944336 L17.91006088256836 13.72134017944336 C17.578996658325195 14.835288047790527 17.247920989990234 15.94923210144043 16.916833877563477 17.063173294067383 L16.916833877563477 17.063173294067383 C13.91612720489502 16.837162017822266 13.222797393798828 17.71135711669922 13.21660327911377 20.657176971435547 C13.215720176696777 21.077362060546875 12.969048500061035 21.584434509277344 13.22495174407959 21.917705535888672 C13.559375762939453 22.353235244750977 14.31701946258545 22.23823356628418 14.718377113342285 22.61298370361328 C15.099228858947754 22.96858787536621 15.205727577209473 23.53412437438965 15.449402809143066 23.994693756103516 L15.449402809143066 23.994693756103516 C14.118375778198242 23.994693756103516 12.78735065460205 23.994693756103516 11.45632553100586 23.994693756103516 C10.125300407409668 23.994693756103516 8.794275283813477 23.994693756103516 7.463248252868652 23.994693756103516 L7.463248252868652 23.994693756103516 C7.345519065856934 23.806745529174805 7.227789402008057 23.618799209594727 7.110060214996338 23.430850982666016 L7.110060214996338 23.430850982666016 C7.587894439697266 23.09880256652832 8.62548542022705 22.377887725830078 9.085309028625488 22.058441162109375 L9.085309028625488 22.058441162109375 C9.085309028625488 20.39886474609375 9.085309028625488 18.73928451538086 9.085309028625488 17.0797061920166 C9.085309028625488 16.522151947021484 9.338580131530762 15.903755187988281 9.085309028625488 15.4070463180542 C8.8838529586792 15.011956214904785 8.200467109680176 15.11632251739502 7.912294864654541 14.779220581054688 C7.611937999725342 14.427865982055664 7.594404220581055 13.911118507385254 7.435458660125732 13.477066993713379 L7.435458660125732 13.477066993713379"></path></svg>