<svg xmlns="http://www.w3.org/2000/svg" viewBox="0.0 0.0 24.0 24.0" height="200px" width="200px"><path fill="none" stroke="black" stroke-width=".3" stroke-opacity="1.0"  filling="0" d="M14.286398887634277 15.262906074523926 L14.286398887634277 15.262906074523926 C14.572333335876465 15.372179985046387 14.858268737792969 15.481452941894531 15.144203186035156 15.590726852416992 L15.144203186035156 15.590726852416992 C15.187943458557129 16.24667739868164 15.231684684753418 16.90262794494629 15.27542495727539 17.558578491210938 L15.27542495727539 17.558578491210938 C14.21823501586914 17.42583465576172 13.16104793548584 17.29306411743164 12.103863716125488 17.1602783203125 L12.103863716125488 17.1602783203125 C12.883712768554688 18.728626251220703 14.847355842590332 20.72815704345703 14.865360260009766 22.516807556152344 C14.883974075317383 24.365894317626953 13.952378273010254 25.20222282409668 12.716068267822266 25.496992111206055 C11.479757308959961 25.791759490966797 9.938732147216797 25.544971466064453 8.738485336303711 25.227821350097656 L8.738485336303711 25.227821350097656 C8.832159996032715 24.533233642578125 8.925826072692871 23.838642120361328 9.019474029541016 23.14405059814453 L9.019474029541016 23.14405059814453 C10.068460464477539 23.34039306640625 11.117456436157227 23.53667640686035 12.166460990905762 23.732921600341797 L12.166460990905762 23.732921600341797 C11.757548332214355 22.46645164489746 10.613513946533203 20.862163543701172 10.0566987991333 19.324831008911133 C9.499883651733398 17.787498474121094 9.530288696289062 16.317121505737305 11.470255851745605 15.31847858428955 C11.876680374145508 15.109262466430664 12.346908569335938 15.008315086364746 12.803933143615723 14.999296188354492 C13.305742263793945 14.98939323425293 13.792243957519531 15.175036430358887 14.286398887634277 15.262906074523926 L14.286398887634277 15.262906074523926"></path></svg>