<svg xmlns="http://www.w3.org/2000/svg" viewBox="0.0 0.0 24.0 24.0" height="200px" width="200px"><path fill="none" stroke="black" stroke-width=".3" stroke-opacity="1.0"  filling="0" d="M12.823965072631836 10.07077693939209 L12.823965072631836 10.07077693939209 C12.875007629394531 10.864811897277832 12.926010131835938 11.658849716186523 12.976975440979004 12.452890396118164 L12.976975440979004 12.452890396118164 C13.728416442871094 12.533231735229492 14.479859352111816 12.61355209350586 15.231304168701172 12.693856239318848 L15.231304168701172 12.693856239318848 C14.651442527770996 13.368511199951172 13.811304092407227 13.857539176940918 12.949426651000977 14.077919006347656 L12.949426651000977 14.077919006347656 C12.925902366638184 16.422367095947266 12.121020317077637 19.731800079345703 15.4301176071167 18.9022216796875 L15.4301176071167 18.9022216796875 C15.538995742797852 21.118562698364258 11.704873085021973 21.42021942138672 10.501927375793457 20.005903244018555 C9.354872703552246 18.657299041748047 9.91816520690918 15.601876258850098 9.928055763244629 13.991621971130371 L9.928055763244629 13.991621971130371 C9.51162052154541 13.818254470825195 9.095184326171875 13.644887924194336 8.678749084472656 13.47152042388916 L8.678749084472656 13.47152042388916 C9.58801555633545 11.855443954467773 11.305366516113281 11.051863670349121 12.823965072631836 10.07077693939209 L12.823965072631836 10.07077693939209"></path></svg>