<svg xmlns="http://www.w3.org/2000/svg" viewBox="0.0 0.0 24.0 24.0" height="200px" width="200px"><path fill="none" stroke="black" stroke-width=".3" stroke-opacity="1.0"  filling="0" d="M13.464826583862305 8.570269584655762 C13.556285858154297 9.99113655090332 13.639485359191895 11.288091659545898 13.736845016479492 12.80513858795166 C15.016687393188477 12.942032814025879 16.325443267822266 13.081876754760742 17.74454116821289 13.233522415161133 C17.616497039794922 16.29475975036621 15.043829917907715 14.216565132141113 13.68786907196045 15.69407844543457 C13.68786907196045 17.701465606689453 13.586379051208496 20.209815979003906 13.72563362121582 22.705184936523438 C13.810011863708496 24.218692779541016 14.878023147583008 24.903162002563477 16.400970458984375 24.69605255126953 C16.93674659729004 24.622882843017578 17.45718002319336 24.434654235839844 18.09798812866211 24.270614624023438 C18.131031036376953 24.779247283935547 18.257892608642578 25.109683990478516 18.149322509765625 25.31561279296875 C17.202863693237305 27.109989166259766 14.411285400390625 28.146728515625 11.992033958435059 27.64281463623047 C9.687254905700684 27.162506103515625 8.433965682983398 25.794742584228516 8.338375091552734 23.347171783447266 C8.239245414733887 20.804595947265625 8.316543579101562 18.254352569580078 8.316543579101562 15.540661811828613 C7.531761646270752 15.213766098022461 6.785924434661865 14.903395652770996 6.095552921295166 14.616036415100098 C6.025335788726807 13.567497253417969 8.44576644897461 11.610264778137207 13.464826583862305 8.570269584655762"></path></svg>