<svg xmlns="http://www.w3.org/2000/svg" viewBox="0.0 0.0 24.0 24.0" height="200px" width="200px"><path fill="none" stroke="black" stroke-width=".3" stroke-opacity="1.0"  filling="0" d="M11.518339157104492 13.705926895141602 C12.57960319519043 13.705926895141602 13.605188369750977 13.705926895141602 14.87282943725586 13.705926895141602 C15.035831451416016 14.588796615600586 15.213525772094727 15.55072021484375 15.410807609558105 16.621780395507812 C16.153762817382812 16.806468963623047 16.910709381103516 16.994657516479492 17.54732894897461 17.15276336669922 C18.519046783447266 18.616287231445312 17.510250091552734 19.618087768554688 14.483162879943848 20.22882080078125 C14.12217903137207 22.876033782958984 13.748601913452148 25.606502532958984 13.32255744934082 28.727331161499023 C14.589498519897461 28.922515869140625 15.357638359069824 29.04144287109375 16.75260353088379 29.256916046142578 C16.053020477294922 30.45039939880371 15.724218368530273 31.821578979492188 14.888919830322266 32.29029846191406 C11.978662490844727 33.92451858520508 9.134166717529297 32.15108108520508 9.160051345825195 28.802885055541992 C9.174042701721191 26.951095581054688 9.507741928100586 25.10000228881836 9.716217994689941 23.25101089477539 C9.871524810791016 21.870037078857422 10.874723434448242 20.35474395751953 8.855732917785645 19.359939575195312 C8.630468368530273 19.249404907226562 8.945978164672852 17.245807647705078 9.127870559692383 17.22621726989746 C11.299369812011719 16.995357513427734 10.725712776184082 14.921796798706055 11.518339157104492 13.705926895141602"></path></svg>