<svg xmlns="http://www.w3.org/2000/svg" viewBox="0.0 0.0 24.0 24.0" height="200px" width="200px"><path fill="none" stroke="black" stroke-width=".3" stroke-opacity="1.0"  filling="0" d="M9.212240219116211 15.490093231201172 L9.212240219116211 15.490093231201172 C11.461786270141602 15.490093231201172 13.711329460144043 15.490093231201172 15.96087646484375 15.490093231201172 L15.96087646484375 15.490093231201172 C15.241409301757812 16.87883758544922 14.521936416625977 18.267578125 13.802427291870117 19.656299591064453 C13.082917213439941 21.045021057128906 12.363369941711426 22.43372344970703 11.643752098083496 23.8223876953125 L11.643752098083496 23.8223876953125 C12.68795394897461 23.937742233276367 13.732155799865723 24.053104400634766 14.77635669708252 24.16847038269043 L14.77635669708252 24.16847038269043 C14.70871353149414 24.875524520874023 14.640949249267578 25.582569122314453 14.573070526123047 26.289600372314453 L14.573070526123047 26.289600372314453 C12.12122917175293 26.289987564086914 9.669387817382812 26.29008674621582 7.217546463012695 26.290096282958984 L7.217546463012695 26.290096282958984 C7.9355387687683105 24.903839111328125 8.653543472290039 23.51758575439453 9.371573448181152 22.13134765625 C10.089603424072266 20.745107650756836 10.807657241821289 19.358882904052734 11.52574634552002 17.972675323486328 L11.52574634552002 17.972675323486328 C10.60170841217041 17.806354522705078 9.677661895751953 17.640085220336914 8.7536039352417 17.473876953125 L8.7536039352417 17.473876953125 C8.90652847290039 16.812625885009766 9.059410095214844 16.151365280151367 9.212240219116211 15.490093231201172 L9.212240219116211 15.490093231201172"></path></svg>