<svg xmlns="http://www.w3.org/2000/svg" viewBox="0.0 0.0 24.0 24.0" height="200px" width="200px"><path fill="none" stroke="black" stroke-width=".3" stroke-opacity="1.0"  filling="0" d="M12.127701759338379 7.367178440093994 L12.127701759338379 7.367178440093994 C12.406002044677734 7.568244457244873 12.684301376342773 7.76931095123291 12.962601661682129 7.970376968383789 L12.962601661682129 7.970376968383789 C12.656810760498047 8.137340545654297 12.392788887023926 8.495488166809082 12.045228004455566 8.471267700195312 C11.771105766296387 8.452164649963379 11.671152114868164 8.068652153015137 11.484113693237305 7.867344379425049 L11.484113693237305 7.867344379425049 C11.69864273071289 7.70062255859375 11.913172721862793 7.533900260925293 12.127701759338379 7.367178440093994 L12.127701759338379 7.367178440093994"></path>
<path fill="none" stroke="black" stroke-width=".3" stroke-opacity="1.0"  filling="0" d="M12.476705551147461 9.890984535217285 L12.476705551147461 9.890984535217285 C12.488811492919922 11.509740829467773 12.676064491271973 13.04328727722168 12.512712478637695 14.439834594726562 C12.349360466003418 15.836382865905762 11.835402488708496 17.095932006835938 10.445084571838379 18.16669464111328 L10.445084571838379 18.16669464111328 C11.206228256225586 16.82807159423828 11.526350975036621 15.596227645874023 11.633110046386719 14.326058387756348 C11.7398681640625 13.055889129638672 11.633262634277344 11.747394561767578 11.540950775146484 10.255467414855957 L11.540950775146484 10.255467414855957 C11.842225074768066 10.109564781188965 12.146198272705078 9.944076538085938 12.476705551147461 9.890984535217285 L12.476705551147461 9.890984535217285"></path></svg>