<svg xmlns="http://www.w3.org/2000/svg" viewBox="0.0 0.0 24.0 24.0" height="200px" width="200px"><path fill="none" stroke="black" stroke-width=".3" stroke-opacity="1.0"  filling="0" d="M8.094308853149414 10.124069213867188 L8.094308853149414 10.124069213867188 C9.147148132324219 10.122041702270508 10.579015731811523 9.944192886352539 11.979815483093262 9.912724494934082 C13.380615234375 9.881256103515625 14.750345230102539 9.996166229248047 15.67890739440918 10.579656600952148 C17.201719284057617 11.536561012268066 17.466955184936523 12.942571640014648 16.33061408996582 14.349716186523438 C16.032052993774414 14.719428062438965 15.592642784118652 14.948630332946777 15.22365665435791 15.248087882995605 L15.22365665435791 15.248087882995605 C17.501066207885742 16.68888282775879 18.6103572845459 19.489198684692383 15.312406539916992 20.66788673400879 C14.174653053283691 21.074520111083984 12.806922912597656 21.123977661132812 11.429920196533203 21.04806900024414 C10.05291748046875 20.97216033935547 8.666643142700195 20.77088737487793 7.491799831390381 20.676057815551758 L7.491799831390381 20.676057815551758 C7.965921878814697 20.305387496948242 8.440043449401855 19.934715270996094 8.914165496826172 19.564044952392578 L8.914165496826172 19.564044952392578 C8.97160530090332 18.205013275146484 9.038741111755371 16.847549438476562 9.115360260009766 15.490621566772461 C9.191980361938477 14.13369369506836 9.278083801269531 12.777299880981445 9.37346076965332 11.420406341552734 L9.37346076965332 11.420406341552734 C8.892038345336914 11.086353302001953 8.410614967346191 10.752300262451172 7.929192066192627 10.41824722290039 L7.929192066192627 10.41824722290039 C7.984230995178223 10.32018756866455 8.03926944732666 10.222128868103027 8.094308853149414 10.124069213867188 L8.094308853149414 10.124069213867188"></path>
<path fill="none" stroke="black" stroke-width=".3" stroke-opacity="1.0"  filling="0" d="M12.448680877685547 11.391426086425781 L12.448680877685547 11.391426086425781 C14.882116317749023 11.586043357849121 13.771976470947266 13.675678253173828 12.44867992401123 14.699494361877441 L12.44867992401123 14.699494361877441 C12.44867992401123 13.59680461883545 12.44867992401123 12.494115829467773 12.448680877685547 11.391426086425781 L12.448680877685547 11.391426086425781"></path>
<path fill="none" stroke="black" stroke-width=".3" stroke-opacity="1.0"  filling="0" d="M12.207743644714355 16.218908309936523 L12.207743644714355 16.218908309936523 C13.266566276550293 16.50661849975586 15.482881546020508 17.538471221923828 13.846151351928711 19.164730072021484 C13.375173568725586 19.6326961517334 12.624931335449219 19.686140060424805 12.014321327209473 19.94684600830078 L12.014321327209473 19.94684600830078 C12.014753341674805 19.93852424621582 12.203766822814941 16.295576095581055 12.207743644714355 16.218908309936523 L12.207743644714355 16.218908309936523"></path></svg>