<svg xmlns="http://www.w3.org/2000/svg" viewBox="0.0 0.0 24.0 24.0" height="200px" width="200px"><path fill="none" stroke="black" stroke-width=".3" stroke-opacity="1.0"  filling="0" d="M13.870705604553223 10.724295616149902 L13.870705604553223 10.724295616149902 C14.065462112426758 11.032371520996094 14.260218620300293 11.340447425842285 14.454975128173828 11.648523330688477 L14.454975128173828 11.648523330688477 C13.755297660827637 11.601014137268066 12.552699089050293 11.204646110534668 12.017097473144531 12.060154914855957 C11.556401252746582 12.796018600463867 11.311245918273926 14.348835945129395 11.308080673217773 15.897645950317383 C11.304914474487305 17.446456909179688 11.543739318847656 18.99125862121582 12.051000595092773 19.711090087890625 C12.661437034606934 20.57733154296875 14.036447525024414 19.95244789123535 14.671512603759766 19.829565048217773 L14.671512603759766 19.829565048217773 C13.762317657470703 21.3880558013916 12.314665794372559 21.853822708129883 11.131170272827148 20.003173828125 C10.485904693603516 18.994163513183594 10.105010986328125 16.915372848510742 10.22619342803955 14.948741912841797 C10.347376823425293 12.982110977172852 10.970638275146484 11.12763786315918 12.3336820602417 10.567259788513184 C12.810006141662598 10.371432304382324 13.35836410522461 10.671950340270996 13.870705604553223 10.724295616149902 L13.870705604553223 10.724295616149902"></path></svg>