<svg xmlns="http://www.w3.org/2000/svg" viewBox="0.0 0.0 24.0 24.0" height="200px" width="200px"><path fill="none" stroke="black" stroke-width=".3" stroke-opacity="1.0"  filling="0" d="M13.440641403198242 9.540857315063477 L13.440641403198242 9.540857315063477 C14.498617172241211 9.711255073547363 15.556798934936523 9.880370140075684 16.615140914916992 10.048479080200195 L16.615140914916992 10.048479080200195 C16.575923919677734 10.810558319091797 16.496501922607422 12.3554105758667 16.461551666259766 13.035567283630371 L16.461551666259766 13.035567283630371 C15.350165367126465 12.24485969543457 14.836742401123047 10.648335456848145 13.288602828979492 10.659114837646484 C11.585058212280273 10.670975685119629 10.552350044250488 12.121588706970215 10.177556037902832 13.82700252532959 C9.80276107788086 15.532415390014648 10.085880279541016 17.492630004882812 11.013991355895996 18.523693084716797 C11.724258422851562 19.312747955322266 12.569778442382812 19.1181697845459 13.516039848327637 19.1633358001709 L13.516039848327637 19.1633358001709 C13.623170852661133 18.186277389526367 13.730114936828613 17.209197998046875 13.836872100830078 16.232097625732422 L13.836872100830078 16.232097625732422 C13.282184600830078 16.047468185424805 12.748211860656738 15.599542617797852 12.537408828735352 15.054265022277832 L12.537408828735352 15.054265022277832 C14.181699752807617 15.054265022277832 15.825987815856934 15.054265022277832 17.470279693603516 15.054265022277832 L17.470279693603516 15.054265022277832 C17.6357364654541 15.715086936950684 16.839384078979492 16.26776123046875 16.620376586914062 16.912817001342773 C16.34504508972168 17.723766326904297 16.49529457092285 18.621896743774414 16.387083053588867 19.471446990966797 L16.387083053588867 19.471446990966797 C14.117796897888184 20.25785255432129 11.735678672790527 20.734451293945312 9.462055206298828 19.551898956298828 C7.8862624168396 18.7322998046875 7.140745639801025 17.13868522644043 7.082669734954834 15.471179962158203 C7.024593353271484 13.803674697875977 7.653958320617676 12.062278747558594 8.827929496765137 10.94711971282959 C10.193083763122559 9.650354385375977 11.672431945800781 9.53158187866211 13.440641403198242 9.540857315063477 L13.440641403198242 9.540857315063477"></path></svg>