<svg xmlns="http://www.w3.org/2000/svg" viewBox="0.0 0.0 24.0 24.0" height="200px" width="200px"><path fill="none" stroke="black" stroke-width=".3" stroke-opacity="1.0"  filling="0" d="M12.174909591674805 9.909612655639648 L12.174909591674805 9.909612655639648 C13.958038330078125 10.752429008483887 14.535061836242676 12.403285026550293 14.464130401611328 14.181466102600098 C14.393198013305664 15.959647178649902 13.674310684204102 17.865154266357422 12.865617752075195 19.217269897460938 L12.865617752075195 19.217269897460938 C13.34349536895752 19.50098419189453 13.82137393951416 19.784698486328125 14.299251556396484 20.06841278076172 L14.299251556396484 20.06841278076172 C11.947513580322266 20.669384002685547 10.419027328491211 18.51134490966797 9.977174758911133 16.01223373413086 C9.535323143005371 13.513120651245117 10.180106163024902 10.672935485839844 12.174909591674805 9.909612655639648 L12.174909591674805 9.909612655639648"></path>
<path fill="none" stroke="black" stroke-width=".3" stroke-opacity="1.0"  filling="0" d="M12.150018692016602 10.815677642822266 L12.150018692016602 10.815677642822266 C13.67103385925293 12.071891784667969 13.74071979522705 14.168928146362305 13.36061954498291 16.017467498779297 C13.251253128051758 16.549346923828125 13.147314071655273 18.205739974975586 12.089686393737793 18.219219207763672 C11.199045181274414 18.23056983947754 10.96072769165039 16.298961639404297 10.909978866577148 15.993460655212402 C10.601022720336914 14.133577346801758 10.664216041564941 12.069622039794922 12.150018692016602 10.815677642822266 L12.150018692016602 10.815677642822266"></path></svg>