<svg xmlns="http://www.w3.org/2000/svg" viewBox="0.0 0.0 24.0 24.0" height="200px" width="200px"><path fill="none" stroke="black" stroke-width=".3" stroke-opacity="1.0"  filling="0" d="M12.540884971618652 10.454751014709473 L12.540884971618652 10.454751014709473 C12.837971687316895 10.753838539123535 13.13505744934082 11.052925109863281 13.432144165039062 11.352012634277344 L13.432144165039062 11.352012634277344 C12.891891479492188 11.503557205200195 12.247090339660645 11.453092575073242 11.811385154724121 11.806646347045898 C11.439352989196777 12.108531951904297 11.663186073303223 13.57266902923584 11.764310836791992 13.879826545715332 C12.272429466247559 15.423195838928223 13.660422325134277 16.878610610961914 13.754874229431152 18.550920486450195 C13.877105712890625 20.715085983276367 11.613204002380371 22.28006935119629 10.379873275756836 20.15402603149414 L10.379873275756836 20.15402603149414 C10.942838668823242 20.109073638916016 11.542024612426758 20.22286033630371 12.068769454956055 20.019166946411133 C13.126211166381836 19.610252380371094 12.669445037841797 18.4950008392334 12.429990768432617 17.794288635253906 C12.018573760986328 16.59036636352539 11.029619216918945 15.032421112060547 10.651857376098633 13.636987686157227 C10.27409553527832 12.24155330657959 10.507528305053711 11.008630752563477 12.540884971618652 10.454751014709473 L12.540884971618652 10.454751014709473"></path></svg>