<svg xmlns="http://www.w3.org/2000/svg" viewBox="0.0 0.0 24.0 24.0" height="200px" width="200px"><path fill="none" stroke="black" stroke-width=".3" stroke-opacity="1.0"  filling="0" d="M13.279279708862305 9.782501220703125 L13.279279708862305 9.782501220703125 C13.915431022644043 9.910962104797363 14.551582336425781 10.039423942565918 15.18773365020752 10.167884826660156 L15.18773365020752 10.167884826660156 C15.26294231414795 11.030445098876953 15.11182689666748 11.975329399108887 14.653366088867188 12.709822654724121 L14.653366088867188 12.709822654724121 C14.378670692443848 12.237625122070312 13.74128246307373 10.483142852783203 12.615323066711426 11.034692764282227 C11.31113052368164 11.673550605773926 12.647869110107422 13.13057804107666 12.984085083007812 13.530765533447266 C14.220649719238281 15.002612113952637 16.97195053100586 16.96023178100586 15.01843547821045 19.22041893005371 C13.19554328918457 21.329477310180664 11.231919288635254 19.678464889526367 9.110539436340332 20.16571807861328 L9.110539436340332 20.16571807861328 C9.110539436340332 19.869544982910156 9.110539436340332 17.010953903198242 9.110539436340332 16.816999435424805 L9.110539436340332 16.816999435424805 C9.795598030090332 17.3582763671875 10.14896297454834 18.287431716918945 10.903870582580566 18.7260684967041 C12.177695274353027 19.466218948364258 12.820454597473145 18.726158142089844 12.52513313293457 17.40677261352539 C12.325804710388184 16.516246795654297 10.353127479553223 15.432462692260742 9.877961158752441 14.675914764404297 C8.953794479370117 13.204479217529297 9.116392135620117 11.962307929992676 9.853897094726562 11.097404479980469 C10.591402053833008 10.232500076293945 11.903815269470215 9.744865417480469 13.279279708862305 9.782501220703125 L13.279279708862305 9.782501220703125"></path></svg>