<svg xmlns="http://www.w3.org/2000/svg" viewBox="0.0 0.0 24.0 24.0" height="200px" width="200px"><path fill="none" stroke="black" stroke-width=".3" stroke-opacity="1.0"  filling="0" d="M11.64616584777832 17.021728515625 C14.122576713562012 16.77484893798828 16.404525756835938 18.431142807006836 16.662397384643555 21.0986328125 C16.932106018066406 23.89209747314453 16.6556339263916 26.734603881835938 16.84164047241211 29.540746688842773 C16.96761703491211 31.442230224609375 17.479129791259766 33.31835174560547 17.936534881591797 35.86578369140625 C15.28764820098877 35.92750549316406 12.071442604064941 36.556541442871094 9.141855239868164 35.902137756347656 C6.6443071365356445 35.344120025634766 6.512412071228027 30.49444580078125 8.803662300109863 28.28436279296875 C10.300163269042969 26.840282440185547 12.144999504089355 25.758071899414062 14.661147117614746 23.905624389648438 C14.071002006530762 22.5190372467041 13.73957347869873 20.159303665161133 12.790946006774902 19.877758026123047 C11.347711563110352 19.449100494384766 9.476665496826172 20.46029281616211 7.887163162231445 20.836532592773438 C7.931128025054932 18.631521224975586 9.141009330749512 17.27114486694336 11.64616584777832 17.021728515625"></path>
<path fill="none" stroke="black" stroke-width=".3" stroke-opacity="1.0"  filling="0" d="M13.218759536743164 26.656814575195312 C13.53581428527832 26.822528839111328 13.852869033813477 26.989089965820312 14.169923782348633 27.154802322387695 C14.169923782348633 28.762060165405273 14.548698425292969 30.506284713745117 14.03718376159668 31.9309139251709 C13.694765090942383 32.885459899902344 12.089198112487793 33.385986328125 11.048413276672363 34.09027099609375 C10.646810531616211 33.01482391357422 9.63646125793457 31.665435791015625 9.971271514892578 30.919721603393555 C10.683164596557617 29.3319091796875 12.094270706176758 28.058618545532227 13.218759536743164 26.656814575195312"></path></svg>