<svg xmlns="http://www.w3.org/2000/svg" viewBox="0.0 0.0 24.0 24.0" height="200px" width="200px"><path fill="none" stroke="black" stroke-width=".3" stroke-opacity="1.0"  filling="0" d="M13.739226341247559 10.605835914611816 L13.739226341247559 10.605835914611816 C13.844696044921875 12.394044876098633 13.867735862731934 14.181461334228516 13.872989654541016 15.969301223754883 C13.878242492675781 17.75714111328125 13.86570930480957 19.54540252685547 13.900030136108398 21.335302352905273 L13.900030136108398 21.335302352905273 C12.620109558105469 21.303035736083984 11.1421480178833 21.692331314086914 10.280233383178711 20.36688995361328 C9.35677719116211 18.94681167602539 9.316661834716797 17.54616355895996 9.857196807861328 16.423986434936523 C10.397732734680176 15.301809310913086 11.518918991088867 14.458105087280273 12.918065071105957 14.151910781860352 L12.918065071105957 14.151910781860352 C12.924737930297852 12.42340087890625 12.567708015441895 11.779732704162598 13.739226341247559 10.605835914611816 L13.739226341247559 10.605835914611816"></path>
<path fill="none" stroke="black" stroke-width=".3" stroke-opacity="1.0"  filling="0" d="M12.802558898925781 15.196643829345703 L12.802558898925781 15.196643829345703 C12.802558898925781 16.89796257019043 12.802558898925781 18.599281311035156 12.802558898925781 20.30059814453125 L12.802558898925781 20.30059814453125 C12.358638763427734 20.29497718811035 11.86798095703125 20.48208236694336 11.47079849243164 20.283733367919922 C10.407333374023438 19.752647399902344 10.475738525390625 15.841188430786133 11.485923767089844 15.286792755126953 C11.871570587158203 15.07514762878418 12.363680839538574 15.226693153381348 12.802558898925781 15.196643829345703 L12.802558898925781 15.196643829345703"></path></svg>