<svg xmlns="http://www.w3.org/2000/svg" viewBox="0.0 0.0 24.0 24.0" height="200px" width="200px"><path fill="none" stroke="black" stroke-width=".3" stroke-opacity="1.0"  filling="0" d="M12.804573059082031 15.15027141571045 L12.804573059082031 15.15027141571045 C15.19952392578125 16.27972412109375 15.03372859954834 18.29161834716797 15.374825477600098 20.723114013671875 L15.374825477600098 20.723114013671875 C14.114157676696777 20.829025268554688 12.853489875793457 20.934934616088867 11.592822074890137 21.04084014892578 L11.592822074890137 21.04084014892578 C11.84341812133789 24.013874053955078 11.72256851196289 24.6323184967041 14.740299224853516 24.30199432373047 L14.740299224853516 24.30199432373047 C13.654129981994629 26.387556076049805 11.690065383911133 26.421932220458984 10.566957473754883 24.08582878112793 C9.889974594116211 22.67768096923828 9.63034725189209 20.691932678222656 9.949481010437012 18.93415069580078 C10.26861572265625 17.17637062072754 11.166510581970215 15.646554946899414 12.804573059082031 15.15027141571045 L12.804573059082031 15.15027141571045"></path>
<path fill="none" stroke="black" stroke-width=".3" stroke-opacity="1.0"  filling="0" d="M12.262290000915527 16.32847785949707 L12.262290000915527 16.32847785949707 C12.505012512207031 16.332050323486328 12.747735977172852 16.335622787475586 12.990458488464355 16.339195251464844 L12.990458488464355 16.339195251464844 C13.207459449768066 16.971487045288086 13.894865989685059 18.975311279296875 14.091794967651367 19.549564361572266 L14.091794967651367 19.549564361572266 C13.063135147094727 19.549564361572266 12.034475326538086 19.549564361572266 11.005815505981445 19.549564361572266 L11.005815505981445 19.549564361572266 C11.424771308898926 18.475919723510742 11.84363079071045 17.402236938476562 12.262290000915527 16.32847785949707 L12.262290000915527 16.32847785949707"></path></svg>