<svg xmlns="http://www.w3.org/2000/svg" viewBox="0.0 0.0 24.0 24.0" height="200px" width="200px"><path fill="none" stroke="black" stroke-width=".3" stroke-opacity="1.0"  filling="0" d="M5.62806510925293 6.758110523223877 C7.600844383239746 6.758110523223877 9.573098182678223 6.758110523223877 11.723737716674805 6.758110523223877 C12.281525611877441 13.07321548461914 10.415567398071289 19.379901885986328 11.865289688110352 25.958114624023438 C9.549943923950195 25.958114624023438 7.387200832366943 25.958114624023438 5.1007981300354 25.958114624023438 C5.066067218780518 25.595550537109375 4.9197797775268555 25.03618621826172 5.021339416503906 24.986719131469727 C6.690492630004883 24.175296783447266 6.469482421875 22.633487701416016 6.537364482879639 21.210601806640625 C6.733642101287842 17.097179412841797 6.916764736175537 12.983232498168945 7.10357141494751 8.904014587402344 C6.493162155151367 8.319916725158691 5.920114040374756 7.771600723266602 5.347591876983643 7.22381067276001 C5.441258907318115 7.068577289581299 5.534398555755615 6.913343906402588 5.62806510925293 6.758110523223877"></path>
<path fill="none" stroke="black" stroke-width=".3" stroke-opacity="1.0"  filling="0" d="M13.672837257385254 13.673627853393555 C16.000812530517578 13.673627853393555 17.838354110717773 13.673627853393555 19.675369262695312 13.673627853393555 C19.782718658447266 13.800971984863281 19.889537811279297 13.928315162658691 19.99688720703125 14.055659294128418 C18.57926368713379 15.203333854675293 17.161113739013672 16.351009368896484 15.5298490524292 17.67180824279785 C17.33108139038086 19.118371963500977 18.057785034179688 20.861194610595703 18.29668617248535 22.946060180664062 C18.40140151977539 23.86009407043457 19.253345489501953 24.68783187866211 19.945316314697266 25.85918426513672 C17.44632339477539 25.85918426513672 15.257795333862305 25.85918426513672 12.834575653076172 25.85918426513672 C14.131696701049805 23.26599884033203 13.704936027526855 21.0069580078125 11.284348487854004 18.903675079345703 C12.781954765319824 17.622343063354492 13.96278190612793 16.612010955810547 15.178338050842285 15.572210311889648 C14.761575698852539 15.046521186828613 14.371650695800781 14.554510116577148 13.672837257385254 13.673627853393555"></path></svg>