<svg xmlns="http://www.w3.org/2000/svg" viewBox="0.0 0.0 24.0 24.0" height="200px" width="200px"><path fill="none" stroke="black" stroke-width=".3" stroke-opacity="1.0"  filling="0" d="M14.504181861877441 13.726434707641602 C17.576183319091797 12.37912654876709 20.201168060302734 13.813468933105469 20.444171905517578 17.152841567993164 C20.61963653564453 19.565462112426758 20.46088409423828 22.010807037353516 20.336246490478516 24.435264587402344 C20.245033264160156 26.217750549316406 19.832138061523438 28.021820068359375 21.822114944458008 29.145618438720703 C21.95510482788086 29.2208194732666 21.806100845336914 29.79524803161621 21.77685546875 30.35297203063965 C19.286251068115234 30.35297203063965 16.81653594970703 30.35297203063965 14.062042236328125 30.35297203063965 C14.062042236328125 26.2337646484375 14.062042236328125 22.16189956665039 14.062042236328125 18.01971435546875 C10.99979019165039 18.87753677368164 10.60290813446045 23.021114349365234 12.672957420349121 30.391965866088867 C9.539685249328613 30.391965866088867 6.456543445587158 30.391965866088867 3.373403549194336 30.391965866088867 C3.1422367095947266 30.225555419921875 2.910374641418457 30.05914306640625 2.677816390991211 29.89203453063965 C5.859133243560791 27.8707275390625 5.148228168487549 24.837718963623047 5.238048553466797 22.04422950744629 C5.323691368103027 19.39556884765625 6.347227573394775 16.55682373046875 3.5913400650024414 14.26675033569336 C6.800507545471191 14.055776596069336 9.694259643554688 13.099780082702637 12.612380981445312 14.782694816589355 C13.094904899597168 14.50975227355957 13.76960277557373 14.049509048461914 14.504181861877441 13.726434707641602"></path></svg>