<svg xmlns="http://www.w3.org/2000/svg" viewBox="0.0 0.0 24.0 24.0" height="200px" width="200px"><path fill="none" stroke="black" stroke-width=".3" stroke-opacity="1.0"  filling="0" d="M12.0857515335083 15.304475784301758 L12.0857515335083 15.304475784301758 C12.838640213012695 15.342434883117676 13.591140747070312 15.864336013793945 14.011645317077637 16.490001678466797 L14.011645317077637 16.490001678466797 C13.272021293640137 16.7229061126709 12.223919868469238 16.435985565185547 11.75457763671875 17.05324363708496 C11.14468765258789 17.855342864990234 12.516477584838867 19.49964714050293 12.79841423034668 19.958192825317383 C13.556344032287598 21.190898895263672 14.500794410705566 22.89793586730957 14.139101028442383 24.441926956176758 C13.822408676147461 25.79381561279297 11.740368843078613 26.757160186767578 10.639691352844238 25.607540130615234 C10.297199249267578 25.249818801879883 10.3260498046875 24.66802406311035 10.169229507446289 24.198265075683594 L10.169229507446289 24.198265075683594 C10.817302703857422 24.383140563964844 11.465361595153809 24.56806755065918 12.113398551940918 24.753070831298828 L12.113398551940918 24.753070831298828 C12.386350631713867 24.304672241210938 12.867584228515625 23.928817749023438 12.932254791259766 23.407873153686523 C13.025259017944336 22.658689498901367 11.948440551757812 21.278751373291016 11.630753517150879 20.74418830871582 C10.400308609008789 18.673749923706055 9.812076568603516 16.709373474121094 12.0857515335083 15.304475784301758 L12.0857515335083 15.304475784301758"></path></svg>