<svg xmlns="http://www.w3.org/2000/svg" viewBox="0.0 0.0 24.0 24.0" height="200px" width="200px"><path fill="none" stroke="black" stroke-width=".3" stroke-opacity="1.0"  filling="0" d="M12.520940780639648 12.317907333374023 C12.826826095581055 14.006957054138184 12.996465682983398 14.944650650024414 13.20884895324707 16.11409568786621 C13.905440330505371 16.2817325592041 14.684846878051758 16.46873664855957 15.464922904968262 16.656408309936523 C15.5143461227417 16.890830993652344 15.56376838684082 17.125255584716797 15.613189697265625 17.359676361083984 C14.850480079650879 17.739030838012695 14.087101936340332 18.11838150024414 13.214192390441895 18.55249786376953 C13.160094261169434 18.74217414855957 12.997133255004883 19.052734375 12.99312686920166 19.365299224853516 C12.963739395141602 21.696842193603516 12.942368507385254 24.029054641723633 12.964407920837402 26.360595703125 C12.98845100402832 28.988676071166992 13.0091552734375 28.988676071166992 15.542396545410156 30.124725341796875 C15.179073333740234 31.537277221679688 14.027661323547363 31.746320724487305 13.037874221801758 31.323556900024414 C12.264477729797363 30.99295997619629 11.314763069152832 30.066619873046875 11.22994327545166 29.316598892211914 C10.945428848266602 26.79137420654297 11.029581069946289 24.22607421875 10.940086364746094 21.67680549621582 C10.880645751953125 19.987756729125977 11.621316909790039 17.96877670288086 9.170891761779785 17.56938934326172 C10.31295394897461 15.778823852539062 11.235285758972168 14.333547592163086 12.520940780639648 12.317907333374023"></path></svg>