<svg xmlns="http://www.w3.org/2000/svg" viewBox="0.0 0.0 24.0 24.0" height="200px" width="200px"><path fill="none" stroke="black" stroke-width=".3" stroke-opacity="1.0"  filling="0" d="M11.179153442382812 15.100221633911133 L11.179153442382812 15.100221633911133 C11.175079345703125 17.331846237182617 11.15378475189209 19.56403923034668 11.189002990722656 21.795516967773438 C11.205636024475098 22.849422454833984 10.841717720031738 24.30776596069336 12.43059253692627 24.67598533630371 C13.972529411315918 25.033327102661133 13.998597145080566 22.202390670776367 14.040390968322754 21.83960723876953 C14.304927825927734 19.543371200561523 13.692731857299805 17.555395126342773 14.691908836364746 15.39244270324707 L14.691908836364746 15.39244270324707 C14.882501602172852 15.450918197631836 15.073095321655273 15.509393692016602 15.263688087463379 15.567869186401367 L15.263688087463379 15.567869186401367 C15.263688087463379 17.242786407470703 15.263688087463379 18.917705535888672 15.263688087463379 20.59262466430664 C15.263688087463379 22.26754379272461 15.263688087463379 23.942462921142578 15.263688087463379 25.617380142211914 L15.263688087463379 25.617380142211914 C14.133979797363281 25.703001022338867 11.851322174072266 26.26548957824707 10.850639343261719 25.594161987304688 C9.968029975891113 25.002046585083008 9.71041488647461 23.564468383789062 9.674843788146973 22.056203842163086 C9.639272689819336 20.54793930053711 9.82574462890625 18.96898651123047 9.831308364868164 18.0941219329834 C9.835509300231934 17.433542251586914 9.580074310302734 16.714807510375977 9.85125732421875 16.112443923950195 C10.07973575592041 15.604935646057129 10.73652172088623 15.437628746032715 11.179153442382812 15.100221633911133 L11.179153442382812 15.100221633911133"></path></svg>