<svg xmlns="http://www.w3.org/2000/svg" viewBox="0.0 0.0 24.0 24.0" height="200px" width="200px"><path fill="none" stroke="black" stroke-width=".3" stroke-opacity="1.0"  filling="0" d="M15.206868171691895 15.482645034790039 L15.206868171691895 15.482645034790039 C15.019746780395508 17.339771270751953 14.664484024047852 19.139360427856445 14.232426643371582 20.922897338867188 C13.800368309020996 22.706436157226562 13.29151439666748 24.473922729492188 12.797211647033691 26.266845703125 L12.797211647033691 26.266845703125 C12.581428527832031 26.271947860717773 12.365646362304688 26.277048110961914 12.149863243103027 26.282150268554688 L12.149863243103027 26.282150268554688 C11.664846420288086 24.514068603515625 11.179781913757324 22.746004104614258 10.694708824157715 20.97793960571289 C10.209636688232422 19.209875106811523 9.724556922912598 17.44181251525879 9.239511489868164 15.673738479614258 L9.239511489868164 15.673738479614258 C9.700230598449707 15.82487678527832 10.317572593688965 15.749488830566406 10.62166976928711 16.127153396606445 C11.61662483215332 17.362808227539062 11.92093276977539 20.613903045654297 12.292566299438477 22.131420135498047 L12.292566299438477 22.131420135498047 C13.347152709960938 19.810501098632812 13.59786605834961 17.49832534790039 15.206868171691895 15.482645034790039 L15.206868171691895 15.482645034790039"></path></svg>