<svg xmlns="http://www.w3.org/2000/svg" viewBox="0.0 0.0 24.0 24.0" height="200px" width="200px"><path fill="none" stroke="black" stroke-width=".3" stroke-opacity="1.0"  filling="0" d="M11.977004051208496 13.017837524414062 L11.977004051208496 13.017837524414062 C12.504109382629395 13.017837524414062 13.031213760375977 13.017837524414062 13.558319091796875 13.017837524414062 L13.558319091796875 13.017837524414062 C13.813920021057129 14.07723331451416 14.069563865661621 15.136619567871094 14.325249671936035 16.195995330810547 L14.325249671936035 16.195995330810547 C14.402586936950684 16.208982467651367 14.479924201965332 16.22197151184082 14.55726146697998 16.23495864868164 L14.55726146697998 16.23495864868164 C14.820631980895996 15.5459566116333 15.083990097045898 14.856950759887695 15.347334861755371 14.167939186096191 L15.347334861755371 14.167939186096191 C15.063080787658691 13.804101943969727 14.778825759887695 13.440263748168945 14.494571685791016 13.07642650604248 L14.494571685791016 13.07642650604248 C15.42711353302002 13.07642650604248 16.359655380249023 13.07642650604248 17.29219627380371 13.07642650604248 L17.29219627380371 13.07642650604248 C16.61251449584961 14.162934303283691 16.08614730834961 15.287202835083008 15.602315902709961 16.43222999572754 C15.118483543395996 17.57725715637207 14.677186965942383 18.743045806884766 14.167645454406738 19.91259002685547 L14.167645454406738 19.91259002685547 C13.62901782989502 19.91259002685547 13.0903902053833 19.91259002685547 12.551762580871582 19.91259002685547 L12.551762580871582 19.91259002685547 C12.275762557983398 18.836322784423828 11.999813079833984 17.760040283203125 11.723899841308594 16.68375015258789 L11.723899841308594 16.68375015258789 C11.268896102905273 17.7648868560791 10.813949584960938 18.84604835510254 10.359068870544434 19.927236557006836 L10.359068870544434 19.927236557006836 C9.845243453979492 19.927236557006836 9.33141803741455 19.927236557006836 8.81759262084961 19.927236557006836 L8.81759262084961 19.927236557006836 C8.0652494430542 17.533872604370117 7.716835021972656 15.261370658874512 6.492196559906006 13.044788360595703 L6.492196559906006 13.044788360595703 C7.923426628112793 13.044788360595703 9.354660034179688 13.044788360595703 10.785889625549316 13.044788360595703 L10.785889625549316 13.044788360595703 C10.0458984375 14.648714065551758 10.130115509033203 14.867751121520996 10.521360397338867 16.513256072998047 L10.521360397338867 16.513256072998047 C10.725924491882324 16.02199935913086 11.747049331665039 13.56997299194336 11.977004051208496 13.017837524414062 L11.977004051208496 13.017837524414062"></path></svg>