<svg xmlns="http://www.w3.org/2000/svg" viewBox="0.0 0.0 24.0 24.0" height="200px" width="200px"><path fill="none" stroke="black" stroke-width=".3" stroke-opacity="1.0"  filling="0" d="M15.362250328063965 15.586400032043457 L15.362250328063965 15.586400032043457 C14.744272232055664 17.041654586791992 13.290611267089844 19.166240692138672 13.305344581604004 20.804916381835938 C13.32066535949707 22.509014129638672 14.841814994812012 24.640506744384766 15.521965980529785 26.141103744506836 L15.521965980529785 26.141103744506836 C13.533437728881836 26.13894271850586 13.29024600982666 24.514055252075195 12.372422218322754 22.815921783447266 L12.372422218322754 22.815921783447266 C11.70079517364502 23.6872501373291 11.528316497802734 24.933034896850586 10.707629203796387 25.665678024291992 C10.204329490661621 26.1149845123291 9.445465087890625 26.142841339111328 8.814382553100586 26.381423950195312 L8.814382553100586 26.381423950195312 C9.946744918823242 24.457576751708984 10.646932601928711 22.786638259887695 10.728737831115723 21.126537322998047 C10.810543060302734 19.4664363861084 10.273966789245605 17.817174911499023 8.932802200317383 15.936680793762207 L8.932802200317383 15.936680793762207 C10.865533828735352 15.884055137634277 11.116080284118652 17.07911491394043 12.198775291442871 18.70459747314453 L12.198775291442871 18.70459747314453 C13.459346771240234 17.084346771240234 13.337053298950195 16.395090103149414 15.362250328063965 15.586400032043457 L15.362250328063965 15.586400032043457"></path></svg>