<svg xmlns="http://www.w3.org/2000/svg" viewBox="0.0 0.0 24.0 24.0" height="200px" width="200px"><path fill="none" stroke="black" stroke-width=".3" stroke-opacity="1.0"  filling="0" d="M7.775737762451172 13.464375495910645 L7.775737762451172 13.464375495910645 C9.65911865234375 13.464375495910645 11.542497634887695 13.464375495910645 13.425877571105957 13.464375495910645 L13.425877571105957 13.464375495910645 C13.425877571105957 13.466974258422852 13.425877571105957 16.00218391418457 13.425877571105957 16.015880584716797 L13.425877571105957 16.015880584716797 C13.77501392364502 15.651331901550293 14.308889389038086 15.399481773376465 14.473285675048828 14.922233581542969 C14.63109016418457 14.46412181854248 14.357585906982422 13.960105895996094 14.299736022949219 13.479042053222656 L14.299736022949219 13.479042053222656 C15.48742389678955 13.479042053222656 16.675111770629883 13.479042053222656 17.8627986907959 13.479042053222656 L17.8627986907959 13.479042053222656 C16.654277801513672 14.855031967163086 15.44579792022705 16.23105812072754 14.237404823303223 17.607160568237305 L14.237404823303223 17.607160568237305 C15.269923210144043 19.38445472717285 16.302349090576172 21.161802291870117 17.33481788635254 22.939125061035156 L17.33481788635254 22.939125061035156 C15.470993995666504 22.939125061035156 13.607166290283203 22.939125061035156 11.743343353271484 22.939125061035156 L11.743343353271484 22.939125061035156 C11.747637748718262 22.88538360595703 11.941834449768066 20.454530715942383 11.942558288574219 20.445470809936523 L11.942558288574219 20.445470809936523 C11.55000114440918 20.81881332397461 10.946484565734863 21.055097579956055 10.764885902404785 21.56549644470215 C10.602160453796387 22.022850036621094 10.94488525390625 22.51954460144043 11.03488540649414 22.99656867980957 L11.03488540649414 22.99656867980957 C9.710856437683105 22.996826171875 8.38682746887207 22.9969425201416 7.062798976898193 22.99697494506836 L7.062798976898193 22.99697494506836 C8.388707160949707 21.610185623168945 9.714662551879883 20.223445892333984 11.04058837890625 18.836673736572266 L11.04058837890625 18.836673736572266 C9.952347755432129 17.045883178710938 8.864045143127441 15.255125999450684 7.775737762451172 13.464375495910645 L7.775737762451172 13.464375495910645"></path></svg>