<svg xmlns="http://www.w3.org/2000/svg" viewBox="0.0 0.0 24.0 24.0" height="200px" width="200px"><path fill="none" stroke="black" stroke-width=".3" stroke-opacity="1.0"  filling="0" d="M13.175682067871094 10.79154109954834 L13.175682067871094 10.79154109954834 C14.012285232543945 10.79154109954834 14.848889350891113 10.79154109954834 15.685492515563965 10.79154109954834 L15.685492515563965 10.79154109954834 C15.820509910583496 11.603653907775879 14.393939018249512 13.630187034606934 14.069258689880371 14.450194358825684 C13.610414505004883 15.60904312133789 13.155060768127441 16.791213989257812 12.735467910766602 17.985294342041016 C12.315874099731445 19.179372787475586 11.93204116821289 20.385356903076172 11.616238594055176 21.591833114624023 L11.616238594055176 21.591833114624023 C10.832351684570312 21.591833114624023 10.04846477508545 21.591833114624023 9.264577865600586 21.591833114624023 L9.264577865600586 21.591833114624023 C9.956023216247559 20.5552978515625 11.051661491394043 19.36376190185547 11.192939758300781 18.064048767089844 C11.314962387084961 16.941478729248047 10.872196197509766 15.61758041381836 10.286556243896484 14.332869529724121 C9.70091438293457 13.048158645629883 8.97239875793457 11.802633285522461 8.522923469543457 10.836809158325195 L8.522923469543457 10.836809158325195 C9.972525596618652 10.836809158325195 11.422128677368164 10.836809158325195 12.87173080444336 10.836809158325195 L12.87173080444336 10.836809158325195 C12.621768951416016 11.251485824584961 12.371807098388672 11.66616153717041 12.121845245361328 12.080838203430176 L12.121845245361328 12.080838203430176 C12.391982078552246 12.939099311828613 12.662131309509277 13.797356605529785 12.932286262512207 14.655611991882324 L12.932286262512207 14.655611991882324 C13.277800559997559 13.795303344726562 13.62330150604248 12.934988021850586 13.968780517578125 12.074665069580078 L13.968780517578125 12.074665069580078 C13.704414367675781 11.646957397460938 13.440048217773438 11.21924877166748 13.175682067871094 10.79154109954834 L13.175682067871094 10.79154109954834"></path></svg>