<svg xmlns="http://www.w3.org/2000/svg" viewBox="0.0 0.0 24.0 24.0" height="200px" width="200px"><path fill="none" stroke="black" stroke-width=".3" stroke-opacity="1.0"  filling="0" d="M15.118904113769531 15.23568344116211 L15.118904113769531 15.23568344116211 C14.53708553314209 16.777849197387695 13.955243110656738 18.32000732421875 13.373392105102539 19.862159729003906 C12.791542053222656 21.404314041137695 12.20968246459961 22.94646453857422 11.62783145904541 24.488618850708008 L11.62783145904541 24.488618850708008 C13.270040512084961 25.004661560058594 14.003442764282227 24.817466735839844 15.30584716796875 26.035682678222656 L15.30584716796875 26.035682678222656 C13.399946212768555 26.035682678222656 11.494043350219727 26.035682678222656 9.588142395019531 26.035682678222656 L9.588142395019531 26.035682678222656 C10.15513801574707 24.505918502807617 10.722038269042969 22.976116180419922 11.288899421691895 21.446300506591797 C11.85576057434082 19.916484832763672 12.422582626342773 18.386655807495117 12.989423751831055 16.856834411621094 L12.989423751831055 16.856834411621094 C11.900651931762695 16.711679458618164 10.811869621276855 16.566600799560547 9.723074913024902 16.421615600585938 L9.723074913024902 16.421615600585938 C11.635554313659668 15.373063087463379 12.965359687805176 15.433363914489746 15.118904113769531 15.23568344116211 L15.118904113769531 15.23568344116211"></path></svg>