<svg xmlns="http://www.w3.org/2000/svg" viewBox="0.0 0.0 24.0 24.0" height="200px" width="200px"><path fill="none" stroke="black" stroke-width=".3" stroke-opacity="1.0"  filling="0" d="M8.159432411193848 8.221057891845703 C11.450779914855957 8.221057891845703 14.534820556640625 8.221057891845703 17.811969757080078 8.221057891845703 C17.811969757080078 9.398445129394531 17.811969757080078 10.558794021606445 17.811969757080078 12.017891883850098 C15.243639945983887 12.017891883850098 12.736648559570312 12.017891883850098 9.99622631072998 12.017891883850098 C9.791191101074219 13.35090160369873 9.624777793884277 14.432303428649902 9.418039321899414 15.77894401550293 C10.607922554016113 15.893106460571289 11.61435317993164 15.946493148803711 12.607721328735352 16.09189224243164 C16.09671974182129 16.603628158569336 17.984060287475586 18.518798828125 18.026660919189453 21.541500091552734 C18.070392608642578 24.644853591918945 16.03481101989746 26.800844192504883 12.577051162719727 27.31314468383789 C9.51061725616455 27.766944885253906 7.058719158172607 26.82299041748047 5.020298480987549 23.89059829711914 C8.313349723815918 24.5903263092041 11.778493881225586 26.736663818359375 12.453234672546387 21.798789978027344 C12.815595626831055 19.144695281982422 11.484289169311523 18.116682052612305 7.171743869781494 17.488513946533203 C7.49605131149292 14.446503639221191 7.821494102478027 11.39256477355957 8.159432411193848 8.221057891845703"></path></svg>