<svg xmlns="http://www.w3.org/2000/svg" viewBox="0.0 0.0 24.0 24.0" height="200px" width="200px"><path fill="none" stroke="black" stroke-width=".3" stroke-opacity="1.0"  filling="0" d="M12.360011100769043 10.531615257263184 L12.360011100769043 10.531615257263184 C14.301998138427734 11.365205764770508 14.662667274475098 13.585235595703125 14.216032981872559 15.836773872375488 C13.76939868927002 18.08831214904785 12.515460968017578 20.371356964111328 11.228230476379395 21.330978393554688 L11.228230476379395 21.330978393554688 C11.152650833129883 21.2498779296875 11.077072143554688 21.168779373168945 11.001492500305176 21.087678909301758 L11.001492500305176 21.087678909301758 C11.538908958435059 19.840818405151367 12.076362609863281 18.59398078918457 12.61381721496582 17.347137451171875 L12.61381721496582 17.347137451171875 C11.69749641418457 17.003738403320312 10.898636817932129 16.966127395629883 10.482662200927734 15.956512451171875 C9.656378746032715 13.951033592224121 10.272134780883789 11.160806655883789 12.360011100769043 10.531615257263184 L12.360011100769043 10.531615257263184"></path>
<path fill="none" stroke="black" stroke-width=".3" stroke-opacity="1.0"  filling="0" d="M12.269570350646973 11.58633041381836 L12.269570350646973 11.58633041381836 C12.511597633361816 12.003786087036133 12.847635269165039 12.37941837310791 12.99565315246582 12.83869743347168 C13.168743133544922 13.375772476196289 13.247176170349121 13.95405387878418 13.214194297790527 14.517367362976074 C13.184432029724121 15.025688171386719 12.87125301361084 16.863693237304688 11.644447326660156 15.799138069152832 C10.97225284576416 15.215845108032227 11.235296249389648 13.422857284545898 11.45665454864502 12.82311725616455 C11.62747859954834 12.360294342041016 11.998598098754883 11.998592376708984 12.269570350646973 11.58633041381836 L12.269570350646973 11.58633041381836"></path></svg>