<svg xmlns="http://www.w3.org/2000/svg" viewBox="0.0 0.0 24.0 24.0" height="200px" width="200px"><path fill="none" stroke="black" stroke-width=".3" stroke-opacity="1.0"  filling="0" d="M7.646933555603027 9.964729309082031 L7.646933555603027 9.964729309082031 C8.660138130187988 9.954655647277832 10.07286548614502 9.78515625 11.45700740814209 9.766593933105469 C12.84114933013916 9.748032569885254 14.19670581817627 9.880409240722656 15.095568656921387 10.47408676147461 C16.28755760192871 11.261367797851562 16.758399963378906 12.568517684936523 16.061328887939453 13.872138977050781 C15.749628067016602 14.455063819885254 15.089425086975098 14.768376350402832 14.603473663330078 15.2164945602417 L14.603473663330078 15.2164945602417 C16.51727294921875 16.23429298400879 18.50275993347168 18.42505645751953 15.79930591583252 20.146894454956055 C14.781917572021484 20.794872283935547 13.327350616455078 20.940275192260742 11.839890480041504 20.922775268554688 C10.35243034362793 20.9052734375 8.832077980041504 20.724872589111328 7.6831207275390625 20.72123908996582 L7.6831207275390625 20.72123908996582 C7.6343183517456055 20.567636489868164 7.58551549911499 20.41403579711914 7.536713123321533 20.260433197021484 L7.536713123321533 20.260433197021484 C8.0509672164917 20.074186325073242 8.565221786499023 19.887941360473633 9.079475402832031 19.70169448852539 L9.079475402832031 19.70169448852539 C9.079475402832031 18.284645080566406 9.079475402832031 16.867597579956055 9.079475402832031 15.450549125671387 C9.079475402832031 14.033500671386719 9.079475402832031 12.61645221710205 9.079475402832031 11.199403762817383 L9.079475402832031 11.199403762817383 C8.55714225769043 10.930933952331543 8.034810066223145 10.662463188171387 7.512477397918701 10.393993377685547 L7.512477397918701 10.393993377685547 C7.557296276092529 10.25090503692627 7.602114677429199 10.107817649841309 7.646933555603027 9.964729309082031 L7.646933555603027 9.964729309082031"></path>
<path fill="none" stroke="black" stroke-width=".3" stroke-opacity="1.0"  filling="0" d="M11.633150100708008 11.13698959350586 L11.633150100708008 11.13698959350586 C12.181336402893066 11.197619438171387 12.811278343200684 11.024554252624512 13.277709007263184 11.318879127502441 C14.062423706054688 11.814045906066895 14.013294219970703 13.60092544555664 13.472172737121582 14.151800155639648 C13.0157470703125 14.616453170776367 12.2461576461792 14.592020988464355 11.633150100708008 14.81213092803955 L11.633150100708008 14.81213092803955 C11.633150100708008 13.58708381652832 11.633150100708008 12.36203670501709 11.633150100708008 11.13698959350586 L11.633150100708008 11.13698959350586"></path>
<path fill="none" stroke="black" stroke-width=".3" stroke-opacity="1.0"  filling="0" d="M11.683612823486328 15.988374710083008 L11.683612823486328 15.988374710083008 C12.40086555480957 16.140592575073242 13.23892879486084 16.018556594848633 13.835371017456055 16.44502830505371 C14.640348434448242 17.02060890197754 14.784209251403809 18.829734802246094 13.847821235656738 19.41460418701172 C13.228405952453613 19.80149269104004 12.40501594543457 19.642072677612305 11.683612823486328 19.755807876586914 L11.683612823486328 19.755807876586914 C11.683612823486328 18.499996185302734 11.683612823486328 17.244186401367188 11.683612823486328 15.988374710083008 L11.683612823486328 15.988374710083008"></path></svg>