<svg xmlns="http://www.w3.org/2000/svg" viewBox="0.0 0.0 24.0 24.0" height="200px" width="200px"><path fill="none" stroke="black" stroke-width=".3" stroke-opacity="1.0"  filling="0" d="M14.289518356323242 6.111861705780029 C16.62343978881836 6.111861705780029 18.954544067382812 6.111861705780029 21.450576782226562 6.111861705780029 C21.450576782226562 11.468559265136719 21.450576782226562 16.74631690979004 21.450576782226562 22.23740005493164 C19.095977783203125 22.23740005493164 16.72446632385254 22.23740005493164 14.125997543334961 22.23740005493164 C14.047526359558105 20.946624755859375 13.964826583862305 19.596643447875977 13.879776954650879 18.201549530029297 C8.891000747680664 20.34423065185547 5.043575286865234 20.021419525146484 3.287142753601074 17.390527725219727 C1.7144355773925781 15.034521102905273 1.9799203872680664 9.269493103027344 3.749509811401367 7.355648040771484 C5.889370918273926 5.041931629180908 10.037991523742676 4.995882987976074 13.768415451049805 7.3114800453186035 C13.942743301391602 6.9106669425964355 14.110491752624512 6.523951053619385 14.289518356323242 6.111861705780029"></path>
<path fill="none" stroke="black" stroke-width=".3" stroke-opacity="1.0"  filling="0" d="M11.823087692260742 10.26330280303955 C13.191394805908203 10.201746940612793 14.135395050048828 11.285303115844727 14.115190505981445 12.895602226257324 C14.096395492553711 14.404874801635742 13.254829406738281 15.458358764648438 12.020910263061523 15.518033981323242 C10.632867813110352 15.585227966308594 9.779085159301758 14.581552505493164 9.76968765258789 12.871637344360352 C9.761229515075684 11.326653480529785 10.55345630645752 10.32062816619873 11.823087692260742 10.26330280303955"></path></svg>