<svg xmlns="http://www.w3.org/2000/svg" viewBox="0.0 0.0 24.0 24.0" height="200px" width="200px"><path fill="none" stroke="black" stroke-width=".3" stroke-opacity="1.0"  filling="0" d="M8.278076171875 8.637982368469238 C11.53816032409668 8.637982368469238 14.797646522521973 8.637982368469238 18.061315536499023 8.637982368469238 C18.369808197021484 10.971395492553711 16.25221824645996 9.601120948791504 15.486968994140625 10.66529655456543 C15.486968994140625 15.57544994354248 15.486968994140625 20.721755981445312 15.486968994140625 25.874635696411133 C16.44233512878418 26.297914505004883 17.362428665161133 26.70505142211914 18.281925201416016 27.11219024658203 C18.215564727783203 27.35431671142578 18.149202346801758 27.595849990844727 18.082839965820312 27.837982177734375 C14.824549674987793 27.837982177734375 11.566259384155273 27.837982177734375 8.307969093322754 27.837982177734375 C8.223671913146973 27.64128875732422 8.139374732971191 27.445789337158203 8.055675506591797 27.250293731689453 C8.940495491027832 26.813264846801758 9.825913429260254 26.376235961914062 10.893675804138184 25.84893035888672 C10.893675804138184 20.87301254272461 10.893675804138184 15.723716735839844 10.893675804138184 10.597738265991211 C9.916189193725586 10.179243087768555 8.991312980651855 9.783465385437012 8.065838813781738 9.387687683105469 C8.136384963989258 9.137784957885742 8.20753002166748 8.887884140014648 8.278076171875 8.637982368469238"></path></svg>