<svg xmlns="http://www.w3.org/2000/svg" viewBox="0.0 0.0 24.0 24.0" height="200px" width="200px"><path fill="none" stroke="black" stroke-width=".3" stroke-opacity="1.0"  filling="0" d="M12.461760520935059 7.61068058013916 C12.610482215881348 7.7001848220825195 12.75920295715332 7.7901411056518555 12.90792465209961 7.879645347595215 C12.770956039428711 8.966804504394531 12.641672134399414 10.0548677444458 12.495210647583008 11.140670776367188 C11.993897438049316 14.86277961730957 11.54502010345459 18.593929290771484 10.95284652709961 22.30156898498535 C10.708744049072266 23.829919815063477 10.150925636291504 25.308547973632812 9.73595142364502 26.81022834777832 C8.681339263916016 26.81022834777832 7.626274585723877 26.81022834777832 6.571662425994873 26.81022834777832 C6.746150970458984 26.523635864257812 6.905269145965576 25.999717712402344 7.09829044342041 25.987060546875 C8.8070068359375 25.874954223632812 9.105354309082031 24.655799865722656 9.292498588562012 23.333580017089844 C9.903206825256348 19.019750595092773 10.502161026000977 14.703660011291504 11.115129470825195 10.39028263092041 C11.210058212280273 9.721713066101074 11.26837158203125 9.025569915771484 11.512473106384277 8.409438133239746 C11.646730422973633 8.0708589553833 12.133578300476074 7.87241268157959 12.461760520935059 7.61068058013916"></path></svg>