<svg xmlns="http://www.w3.org/2000/svg" viewBox="0.0 0.0 24.0 24.0" height="200px" width="200px"><path fill="none" stroke="black" stroke-width=".3" stroke-opacity="1.0"  filling="0" d="M12.176289558410645 9.529760360717773 L12.176289558410645 9.529760360717773 C13.933097839355469 9.747971534729004 15.457140922546387 9.976831436157227 16.632780075073242 11.47109603881836 C18.030364990234375 13.247456550598145 17.981550216674805 15.311954498291016 17.060928344726562 16.935285568237305 C16.140304565429688 18.558616638183594 14.347871780395508 19.740779876708984 12.25821590423584 19.752470016479492 C10.171426773071289 19.764144897460938 8.408224105834961 18.61219024658203 7.49289083480835 17.00996208190918 C6.5775580406188965 15.407733917236328 6.510095596313477 13.355232238769531 7.814789295196533 11.565813064575195 C8.930513381958008 10.035571098327637 10.436441421508789 9.781688690185547 12.176289558410645 9.529760360717773 L12.176289558410645 9.529760360717773"></path>
<path fill="none" stroke="black" stroke-width=".3" stroke-opacity="1.0"  filling="0" d="M12.192967414855957 10.319768905639648 L12.192967414855957 10.319768905639648 C14.690922737121582 10.966287612915039 15.73908519744873 12.925639152526855 15.294915199279785 15.5716552734375 C15.023368835449219 17.189315795898438 14.144852638244629 18.929676055908203 12.253827095031738 18.93056869506836 C10.414341926574707 18.93143653869629 9.821784019470215 17.505043029785156 9.389607429504395 16.02088737487793 C8.638982772827148 13.443136215209961 9.632034301757812 11.116700172424316 12.192967414855957 10.319768905639648 L12.192967414855957 10.319768905639648"></path></svg>