<svg xmlns="http://www.w3.org/2000/svg" viewBox="0.0 0.0 24.0 24.0" height="200px" width="200px"><path fill="none" stroke="black" stroke-width=".3" stroke-opacity="1.0"  filling="0" d="M7.359106540679932 9.941398620605469 L7.359106540679932 9.941398620605469 C9.576680183410645 9.928051948547363 12.144920349121094 9.550664901733398 14.285425186157227 10.300360679626465 C17.005447387695312 11.25302791595459 16.131391525268555 14.017739295959473 14.184255599975586 15.168240547180176 L14.184255599975586 15.168240547180176 C15.38321304321289 17.025842666625977 16.90236473083496 18.680702209472656 18.034263610839844 20.51311492919922 L18.034263610839844 20.51311492919922 C16.958349227905273 20.51311492919922 15.88243579864502 20.51311492919922 14.806522369384766 20.51311492919922 L14.806522369384766 20.51311492919922 C13.606796264648438 18.399246215820312 13.532381057739258 16.910568237304688 11.237975120544434 15.735705375671387 L11.237975120544434 15.735705375671387 C11.237975120544434 16.94521713256836 11.237975120544434 18.154727935791016 11.237975120544434 19.364240646362305 L11.237975120544434 19.364240646362305 C11.766636848449707 19.625274658203125 12.295297622680664 19.886308670043945 12.823959350585938 20.147342681884766 L12.823959350585938 20.147342681884766 C12.779967308044434 20.271860122680664 12.735976219177246 20.396379470825195 12.691984176635742 20.520896911621094 L12.691984176635742 20.520896911621094 C10.915763854980469 20.520896911621094 9.139542579650879 20.520896911621094 7.3633222579956055 20.520896911621094 L7.3633222579956055 20.520896911621094 C7.320194721221924 20.396703720092773 7.2770676612854 20.27250862121582 7.233940124511719 20.1483154296875 L7.233940124511719 20.1483154296875 C7.748117923736572 19.900684356689453 8.262295722961426 19.653053283691406 8.776473045349121 19.40542221069336 L8.776473045349121 19.40542221069336 C8.776473045349121 18.027130126953125 8.776473045349121 16.64883804321289 8.776473045349121 15.270545959472656 C8.776473045349121 13.892253875732422 8.776473045349121 12.513961791992188 8.776473045349121 11.135669708251953 L8.776473045349121 11.135669708251953 C8.265105247497559 10.914520263671875 7.753737926483154 10.693371772766113 7.24237060546875 10.472222328186035 L7.24237060546875 10.472222328186035 C7.281282424926758 10.295281410217285 7.320194721221924 10.118339538574219 7.359106540679932 9.941398620605469 L7.359106540679932 9.941398620605469"></path>
<path fill="none" stroke="black" stroke-width=".3" stroke-opacity="1.0"  filling="0" d="M11.26229476928711 11.1544771194458 L11.26229476928711 11.1544771194458 C11.814992904663086 11.205224990844727 12.441603660583496 11.025979042053223 12.920388221740723 11.306719779968262 C13.802346229553223 11.823864936828613 13.815132141113281 13.474800109863281 13.125770568847656 14.103959083557129 C12.646902084350586 14.541007995605469 11.883453369140625 14.47537899017334 11.26229476928711 14.661088943481445 L11.26229476928711 14.661088943481445 C11.26229476928711 13.492218017578125 11.26229476928711 12.323348045349121 11.26229476928711 11.1544771194458 L11.26229476928711 11.1544771194458"></path></svg>