<svg xmlns="http://www.w3.org/2000/svg" viewBox="0.0 0.0 24.0 24.0" height="200px" width="200px"><path fill="none" stroke="black" stroke-width=".3" stroke-opacity="1.0"  filling="0" d="M14.574908256530762 10.708721160888672 L14.574908256530762 10.708721160888672 C14.705235481262207 10.776651382446289 14.835562705993652 10.844582557678223 14.965889930725098 10.91251277923584 L14.965889930725098 10.91251277923584 C14.21312141418457 12.87033748626709 13.183403015136719 14.735885620117188 12.635710716247559 16.76591682434082 C12.220683097839355 18.304224014282227 12.264666557312012 18.620851516723633 12.049320220947266 20.19807243347168 C12.00562572479248 20.518098831176758 12.137458801269531 20.935914993286133 11.900667190551758 21.15558624267578 C11.596847534179688 21.43743896484375 11.096269607543945 21.355417251586914 10.694070816040039 21.455331802368164 L10.694070816040039 21.455331802368164 C11.125587463378906 19.645259857177734 11.272571563720703 17.92000961303711 11.227238655090332 16.193639755249023 C11.181905746459961 14.467267990112305 10.944253921508789 12.739774703979492 10.606498718261719 10.925209999084473 L10.606498718261719 10.925209999084473 C10.820056915283203 10.860642433166504 11.033616065979004 10.796075820922852 11.247174263000488 10.731508255004883 L11.247174263000488 10.731508255004883 C11.910645484924316 12.077126502990723 11.962221145629883 13.258740425109863 12.281108856201172 14.715219497680664 L12.281108856201172 14.715219497680664 C13.063468933105469 13.194572448730469 13.395846366882324 11.968420028686523 14.574908256530762 10.708721160888672 L14.574908256530762 10.708721160888672"></path></svg>