<svg xmlns="http://www.w3.org/2000/svg" viewBox="0.0 0.0 24.0 24.0" height="200px" width="200px"><path fill="none" stroke="black" stroke-width=".3" stroke-opacity="1.0"  filling="0" d="M14.771878242492676 12.86817455291748 L14.771878242492676 12.86817455291748 C15.54997444152832 13.027142524719238 16.330326080322266 13.175348281860352 17.112268447875977 13.314168930053711 L17.112268447875977 13.314168930053711 C17.112268447875977 14.332595825195312 17.112268447875977 15.351022720336914 17.112268447875977 16.369449615478516 L17.112268447875977 16.369449615478516 C16.909320831298828 16.160707473754883 15.122344970703125 14.207480430603027 14.602898597717285 14.053579330444336 C13.544421195983887 13.739975929260254 12.523061752319336 14.437017440795898 11.975278854370117 15.253805160522461 C10.775030136108398 17.043472290039062 10.853569030761719 20.369718551635742 12.931897163391113 21.54949951171875 C14.357939720153809 22.359004974365234 16.03234100341797 21.653676986694336 17.450443267822266 21.288379669189453 L17.450443267822266 21.288379669189453 C17.14979362487793 21.746355056762695 16.973388671875 22.316476821899414 16.54849624633789 22.662303924560547 C14.596996307373047 24.250659942626953 12.542981147766113 24.041231155395508 10.940766334533691 22.947601318359375 C9.33855152130127 21.853973388671875 8.188138008117676 19.876142501831055 8.043842315673828 17.92769432067871 C7.899546146392822 15.979246139526367 8.761367797851562 14.0601806640625 11.183624267578125 13.084080696105957 C12.670639038085938 12.484855651855469 13.216833114624023 12.726580619812012 14.771878242492676 12.86817455291748 L14.771878242492676 12.86817455291748"></path></svg>