<svg xmlns="http://www.w3.org/2000/svg" viewBox="0.0 0.0 24.0 24.0" height="200px" width="200px"><path fill="none" stroke="black" stroke-width=".3" stroke-opacity="1.0"  filling="0" d="M15.853347778320312 13.43826675415039 C18.2061767578125 12.770797729492188 19.83762550354004 13.92132568359375 19.949298858642578 16.35031509399414 C20.034015655517578 18.196123123168945 19.965984344482422 20.048776626586914 19.965984344482422 21.83510971069336 C20.636878967285156 22.227462768554688 21.200374603271484 22.55691909790039 21.763874053955078 22.886375427246094 C21.70311737060547 23.046823501586914 21.642358779907227 23.207271575927734 21.58160400390625 23.367721557617188 C19.662200927734375 23.367721557617188 17.742801666259766 23.367721557617188 15.403665542602539 23.367721557617188 C17.685894012451172 21.64299964904785 16.882366180419922 19.46730613708496 16.92001724243164 17.500843048095703 C16.965797424316406 15.118919372558594 16.125041961669922 14.716726303100586 13.610054969787598 15.976359367370605 C13.610054969787598 17.675411224365234 13.513785362243652 19.51694107055664 13.66439437866211 21.337932586669922 C13.714454650878906 21.94207763671875 14.397754669189453 22.493595123291016 14.917181015014648 23.252626419067383 C13.032010078430176 23.728412628173828 11.290600776672363 23.563257217407227 9.174810409545898 23.344615936279297 C11.460890769958496 21.21128273010254 10.368551254272461 18.754911422729492 10.453269958496094 16.4927921295166 C10.47038459777832 16.040111541748047 9.667283058166504 15.213476181030273 9.17994499206543 15.162988662719727 C8.361011505126953 15.07784366607666 7.429550647735596 15.494155883789062 7.376494884490967 16.560823440551758 C7.295628547668457 18.196548461914062 7.235727310180664 19.84682273864746 7.378633975982666 21.47228240966797 C7.429977893829346 22.056316375732422 8.093168258666992 22.586441040039062 8.648109436035156 23.387832641601562 C6.478834629058838 23.387832641601562 4.6176228523254395 23.387832641601562 2.756840705871582 23.387832641601562 C2.6922311782836914 23.19272804260254 2.6280517578125 22.998046875 2.563871383666992 22.803369522094727 C3.0512094497680664 22.545795440673828 3.538119316101074 22.287792205810547 4.1358466148376465 21.971599578857422 C4.1358466148376465 19.801898956298828 4.1358466148376465 17.53678321838379 4.1358466148376465 15.287069320678711 C3.6035823822021484 14.953763961791992 3.0978469848632812 14.637144088745117 2.5916833877563477 14.320524215698242 C2.6567182540893555 14.163925170898438 2.7221813201904297 14.007326126098633 2.787217140197754 13.850728988647461 C4.440914154052734 13.76130485534668 6.1215667724609375 13.20508098602295 7.782965183258057 14.314105987548828 C9.60352897644043 13.399331092834473 11.504532814025879 12.394704818725586 13.332797050476074 14.51220703125 C14.178257942199707 14.145098686218262 14.985211372375488 13.684289932250977 15.853347778320312 13.43826675415039"></path></svg>