<svg xmlns="http://www.w3.org/2000/svg" viewBox="0.0 0.0 24.0 24.0" height="200px" width="200px"><path fill="none" stroke="black" stroke-width=".3" stroke-opacity="1.0"  filling="0" d="M11.190255165100098 15.253336906433105 L11.190255165100098 15.253336906433105 C11.547545433044434 15.324243545532227 11.904836654663086 15.395150184631348 12.262126922607422 15.466056823730469 L12.262126922607422 15.466056823730469 C12.262126922607422 15.931735038757324 12.262126922607422 16.39741325378418 12.262126922607422 16.86309051513672 L12.262126922607422 16.86309051513672 C12.740987777709961 16.427288055419922 13.092763900756836 15.783849716186523 13.698710441589355 15.555683135986328 C14.270133018493652 15.340516090393066 14.918803215026855 15.607239723205566 15.528849601745605 15.633018493652344 L15.528849601745605 15.633018493652344 C14.887306213378906 17.132305145263672 13.445243835449219 16.82040786743164 12.599702835083008 18.352670669555664 C11.895364761352539 19.629047393798828 11.777460098266602 21.041929244995117 11.564043998718262 22.38960838317871 C11.350627899169922 23.737285614013672 11.04170036315918 25.019760131835938 9.955316543579102 26.03532600402832 L9.955316543579102 26.03532600402832 C10.0145263671875 24.21065330505371 10.147798538208008 22.41082000732422 10.353999137878418 20.61932373046875 C10.560199737548828 18.82782554626465 10.83932876586914 17.04466438293457 11.190255165100098 15.253336906433105 L11.190255165100098 15.253336906433105"></path></svg>