<svg xmlns="http://www.w3.org/2000/svg" viewBox="0.0 0.0 24.0 24.0" height="200px" width="200px"><path fill="none" stroke="black" stroke-width=".3" stroke-opacity="1.0"  filling="0" d="M13.059514045715332 12.714194297790527 L13.059514045715332 12.714194297790527 C14.000489234924316 12.90527629852295 14.939017295837402 13.10866928100586 15.875232696533203 13.321854591369629 L15.875232696533203 13.321854591369629 C15.875232696533203 13.659395217895508 15.875232696533203 15.971510887145996 15.875232696533203 16.110776901245117 L15.875232696533203 16.110776901245117 C15.278584480285645 15.589906692504883 12.915692329406738 12.818528175354004 11.985089302062988 14.37985610961914 C11.436148643493652 15.300846099853516 12.88849925994873 16.17238426208496 13.286846160888672 16.468198776245117 C14.445600509643555 17.328699111938477 15.112689971923828 17.417381286621094 15.926359176635742 18.697946548461914 C17.177915573120117 20.667665481567383 15.893729209899902 22.889339447021484 13.747672080993652 23.352794647216797 C13.175808906555176 23.47629165649414 12.575884819030762 23.435829162597656 11.992868423461914 23.387130737304688 C11.765331268310547 23.36812400817871 9.265385627746582 22.79432487487793 9.071695327758789 22.750513076782227 L9.071695327758789 22.750513076782227 C9.071695327758789 21.74884033203125 9.071695327758789 20.747167587280273 9.071695327758789 19.745494842529297 L9.071695327758789 19.745494842529297 C9.519439697265625 20.137117385864258 11.059778213500977 21.99221420288086 11.74565601348877 22.064197540283203 C13.34745979309082 22.232309341430664 13.652310371398926 21.530305862426758 12.868053436279297 20.227821350097656 C12.080845832824707 18.92043685913086 10.143765449523926 18.65834617614746 9.301973342895508 17.187971115112305 C7.563845634460449 14.151947975158691 10.60239028930664 12.789545059204102 13.059514045715332 12.714194297790527 L13.059514045715332 12.714194297790527"></path></svg>