<svg xmlns="http://www.w3.org/2000/svg" viewBox="0.0 0.0 24.0 24.0" height="200px" width="200px"><path fill="none" stroke="black" stroke-width=".3" stroke-opacity="1.0"  filling="0" d="M9.835030555725098 15.184131622314453 L9.835030555725098 15.184131622314453 C11.411330223083496 16.916751861572266 11.151471138000488 19.429080963134766 11.377405166625977 21.701473236083984 L11.377405166625977 21.701473236083984 C12.79315185546875 19.478843688964844 13.159415245056152 17.11756134033203 15.02468490600586 15.20873737335205 L15.02468490600586 15.20873737335205 C15.203028678894043 15.308924674987793 15.381372451782227 15.409112930297852 15.55971622467041 15.509300231933594 L15.55971622467041 15.509300231933594 C14.844491958618164 17.25502586364746 14.129268646240234 19.000749588012695 13.414044380187988 20.746475219726562 C12.698821067810059 22.492198944091797 11.983596801757812 24.23792266845703 11.268372535705566 25.98365020751953 L11.268372535705566 25.98365020751953 C11.06413745880127 25.942964553833008 10.859903335571289 25.90227699279785 10.655668258666992 25.861591339111328 L10.655668258666992 25.861591339111328 C10.431357383728027 24.138465881347656 10.207115173339844 22.415334701538086 9.982880592346191 20.692201614379883 C9.758645057678223 18.96906852722168 9.534416198730469 17.245935440063477 9.310131072998047 15.522808074951172 L9.310131072998047 15.522808074951172 C9.485097885131836 15.409915924072266 9.660063743591309 15.29702377319336 9.835030555725098 15.184131622314453 L9.835030555725098 15.184131622314453"></path></svg>