<svg xmlns="http://www.w3.org/2000/svg" viewBox="0.0 0.0 24.0 24.0" height="200px" width="200px"><path fill="none" stroke="black" stroke-width=".3" stroke-opacity="1.0"  filling="0" d="M15.070232391357422 15.274638175964355 L15.070232391357422 15.274638175964355 C15.102401733398438 16.129289627075195 14.344719886779785 16.824695587158203 13.938521385192871 17.577335357666016 C13.331808090209961 18.701507568359375 12.922298431396484 19.91129493713379 12.907635688781738 21.20269775390625 C12.886792182922363 23.038522720336914 13.962459564208984 24.306352615356445 13.984087944030762 26.07463836669922 L13.984087944030762 26.07463836669922 C12.317892074584961 24.9400634765625 12.318188667297363 24.12132453918457 11.462491989135742 22.37594223022461 L11.462491989135742 22.37594223022461 C9.992403030395508 24.15253448486328 9.752460479736328 25.042356491088867 7.546566486358643 26.009323120117188 L7.546566486358643 26.009323120117188 C8.40605640411377 24.774452209472656 9.387609481811523 23.422191619873047 9.98884391784668 21.981510162353516 C10.590078353881836 20.540828704833984 10.810993194580078 19.01172637939453 10.149208068847656 17.42317008972168 C9.871047019958496 16.755470275878906 9.405916213989258 16.18208122253418 9.034270286560059 15.561535835266113 L9.034270286560059 15.561535835266113 C11.051284790039062 15.718060493469238 11.023804664611816 16.49991226196289 11.908560752868652 18.388896942138672 L11.908560752868652 18.388896942138672 C13.125946044921875 17.00381851196289 13.349237442016602 16.074800491333008 15.070232391357422 15.274638175964355 L15.070232391357422 15.274638175964355"></path></svg>