<svg xmlns="http://www.w3.org/2000/svg" viewBox="0.0 0.0 24.0 24.0" height="200px" width="200px"><path fill="none" stroke="black" stroke-width=".3" stroke-opacity="1.0"  filling="0" d="M12.64020824432373 9.447129249572754 C14.20617389678955 9.503442764282227 15.529821395874023 10.38340950012207 15.617419242858887 11.961888313293457 C15.724926948547363 13.89815616607666 15.686816215515137 15.984025955200195 15.067937850952148 17.783775329589844 C14.311975479125977 19.981700897216797 12.897315979003906 21.95494270324707 11.74772834777832 24.014644622802734 C11.300065994262695 24.81725311279297 10.798364639282227 25.58971405029297 10.182900428771973 26.605060577392578 C11.76593017578125 26.738162994384766 13.027576446533203 26.84453582763672 14.327333450317383 26.954315185546875 C13.701629638671875 28.796728134155273 13.569093704223633 28.82232666015625 7.159614086151123 28.432111740112305 C7.549256801605225 27.71426010131836 7.858127117156982 27.105052947998047 8.20283317565918 26.516891479492188 C9.73182487487793 23.91054916381836 11.309735298156738 21.331514358520508 12.784688949584961 18.6944580078125 C13.238609313964844 17.883319854736328 13.488889694213867 16.937368392944336 13.715280532836914 16.02384376525879 C14.589559555053711 12.494305610656738 13.71755599975586 11.366901397705078 9.882562637329102 11.304899215698242 C10.112935066223145 9.323694229125977 11.497446060180664 9.406173706054688 12.64020824432373 9.447129249572754"></path></svg>