<svg xmlns="http://www.w3.org/2000/svg" viewBox="0.0 0.0 24.0 24.0" height="200px" width="200px"><path fill="none" stroke="black" stroke-width=".3" stroke-opacity="1.0"  filling="0" d="M14.000295639038086 9.769429206848145 L14.000295639038086 9.769429206848145 C14.000295639038086 11.875447273254395 14.000295639038086 13.981468200683594 14.000295639038086 16.087486267089844 L14.000295639038086 16.087486267089844 C14.694369316101074 16.15345001220703 15.388445854187012 16.219379425048828 16.0825252532959 16.285274505615234 L16.0825252532959 16.285274505615234 C16.121570587158203 16.65354347229004 16.16061782836914 17.02181053161621 16.199663162231445 17.390079498291016 L16.199663162231445 17.390079498291016 C15.31728458404541 17.473413467407227 14.974459648132324 17.505840301513672 14.07774829864502 17.590747833251953 L14.07774829864502 17.590747833251953 C14.045209884643555 18.184329986572266 14.01267147064209 18.777910232543945 13.980133056640625 19.371492385864258 L13.980133056640625 19.371492385864258 C14.403769493103027 19.66561508178711 14.827404975891113 19.959739685058594 15.251041412353516 20.253862380981445 L15.251041412353516 20.253862380981445 C15.205488204956055 20.359050750732422 15.159934997558594 20.46424102783203 15.114381790161133 20.569429397583008 L15.114381790161133 20.569429397583008 C13.66232681274414 20.569429397583008 12.210270881652832 20.569429397583008 10.75821590423584 20.569429397583008 L10.75821590423584 20.569429397583008 C10.696233749389648 20.48995018005371 10.63425064086914 20.410472869873047 10.57226848602295 20.33099365234375 L10.57226848602295 20.33099365234375 C10.943416595458984 20.031856536865234 11.314565658569336 19.73271942138672 11.685713768005371 19.433582305908203 L11.685713768005371 19.433582305908203 C11.685713768005371 18.80010223388672 11.685713768005371 18.1666202545166 11.685713768005371 17.533140182495117 L11.685713768005371 17.533140182495117 C11.675670623779297 17.533140182495117 7.833943843841553 17.533140182495117 7.832342624664307 17.533140182495117 L7.832342624664307 17.533140182495117 C7.934820175170898 16.42333984375 8.657495498657227 15.287578582763672 9.526860237121582 14.213532447814941 C10.396224975585938 13.139485359191895 11.412280082702637 12.127151489257812 12.101518630981445 11.264202117919922 C12.60422134399414 10.634801864624023 13.211824417114258 9.934256553649902 14.000295639038086 9.769429206848145 L14.000295639038086 9.769429206848145"></path>
<path fill="none" stroke="black" stroke-width=".3" stroke-opacity="1.0"  filling="0" d="M11.634825706481934 13.236823081970215 L11.634825706481934 13.236823081970215 C11.634825706481934 14.190991401672363 11.634825706481934 15.145158767700195 11.634825706481934 16.099327087402344 L11.634825706481934 16.099327087402344 C11.492833137512207 16.099327087402344 9.419593811035156 16.099327087402344 9.397054672241211 16.099327087402344 L9.397054672241211 16.099327087402344 C10.142984390258789 15.145164489746094 10.888908386230469 14.190995216369629 11.634825706481934 13.236823081970215 L11.634825706481934 13.236823081970215"></path></svg>