<svg xmlns="http://www.w3.org/2000/svg" viewBox="0.0 0.0 24.0 24.0" height="200px" width="200px"><path fill="none" stroke="black" stroke-width=".3" stroke-opacity="1.0"  filling="0" d="M14.5654878616333 9.44554328918457 C15.906930923461914 9.783308982849121 16.640735626220703 10.890522956848145 16.682037353515625 12.158980369567871 C16.745967864990234 14.11371898651123 17.010183334350586 16.27609634399414 16.313154220581055 17.995471954345703 C14.945119857788086 21.36972999572754 13.004526138305664 24.51654815673828 11.215559005737305 27.70919418334961 C10.979066848754883 28.13125991821289 10.240169525146484 28.271570205688477 9.734370231628418 28.542011260986328 C9.578217506408691 28.368316650390625 9.421499252319336 28.19349479675293 9.264780044555664 28.0186710357666 C10.472135543823242 25.90890884399414 11.68005657196045 23.799150466918945 12.859123229980469 21.739177703857422 C11.87977409362793 21.05233383178711 10.696746826171875 20.592926025390625 10.141160011291504 19.72956085205078 C9.577651977539062 18.854312896728516 9.310042381286621 17.524185180664062 9.487695693969727 16.492786407470703 C9.815841674804688 14.591794967651367 10.384441375732422 12.679490089416504 11.19971752166748 10.934086799621582 C11.773408889770508 9.706363677978516 13.117115020751953 9.081186294555664 14.5654878616333 9.44554328918457"></path>
<path fill="none" stroke="black" stroke-width=".3" stroke-opacity="1.0"  filling="0" d="M14.146817207336426 11.220932960510254 C15.6947660446167 13.252050399780273 15.080339431762695 15.414993286132812 14.50721263885498 17.538896560668945 C14.196039199829102 18.693069458007812 13.604243278503418 19.635644912719727 12.149645805358887 19.29278564453125 C10.594907760620117 15.883451461791992 11.32984447479248 12.644978523254395 14.146817207336426 11.220932960510254"></path></svg>