<svg xmlns="http://www.w3.org/2000/svg" viewBox="0.0 0.0 24.0 24.0" height="200px" width="200px"><path fill="none" stroke="black" stroke-width=".3" stroke-opacity="1.0"  filling="0" d="M9.299089431762695 10.606489181518555 L9.299089431762695 10.606489181518555 C11.255027770996094 10.606489181518555 13.210966110229492 10.606489181518555 15.16690444946289 10.606489181518555 L15.16690444946289 10.606489181518555 C15.16690444946289 11.32982349395752 15.16690444946289 12.053156852722168 15.16690444946289 12.776491165161133 L15.16690444946289 12.776491165161133 C14.279074668884277 12.823050498962402 13.39124584197998 12.869641304016113 12.503418922424316 12.916255950927734 L12.503418922424316 12.916255950927734 C12.503418922424316 13.464055061340332 12.503418922424316 14.011855125427246 12.503418922424316 14.559654235839844 L12.503418922424316 14.559654235839844 C12.562004089355469 14.56453800201416 14.87589168548584 14.757362365722656 14.903934478759766 14.759698867797852 L14.903934478759766 14.759698867797852 C14.903934478759766 15.502683639526367 14.903934478759766 16.245668411254883 14.903934478759766 16.9886531829834 L14.903934478759766 16.9886531829834 C14.10111141204834 17.055315017700195 13.298290252685547 17.121997833251953 12.495471000671387 17.188695907592773 L12.495471000671387 17.188695907592773 C12.495471000671387 17.815542221069336 12.495471000671387 18.442386627197266 12.495471000671387 19.069232940673828 L12.495471000671387 19.069232940673828 C13.459035873413086 19.120515823364258 14.422598838806152 19.17185401916504 15.386157989501953 19.22323989868164 L15.386157989501953 19.22323989868164 C15.386157989501953 19.951099395751953 15.386157989501953 20.6789608001709 15.386157989501953 21.40682029724121 L15.386157989501953 21.40682029724121 C13.357135772705078 21.406558990478516 11.32811164855957 21.406496047973633 9.299089431762695 21.4064884185791 L9.299089431762695 21.4064884185791 C9.299089431762695 19.606487274169922 9.299089431762695 17.806488037109375 9.299089431762695 16.006488800048828 C9.299089431762695 14.206489562988281 9.299089431762695 12.406489372253418 9.299089431762695 10.606489181518555 L9.299089431762695 10.606489181518555"></path></svg>