<svg xmlns="http://www.w3.org/2000/svg" viewBox="0.0 0.0 24.0 24.0" height="200px" width="200px"><path fill="none" stroke="black" stroke-width=".3" stroke-opacity="1.0"  filling="0" d="M5.807397365570068 9.449949264526367 C7.498634338378906 9.449949264526367 9.103668212890625 9.449949264526367 11.03885555267334 9.449949264526367 C11.03885555267334 11.652544975280762 11.03885555267334 13.842239379882812 11.03885555267334 16.226627349853516 C12.066851615905762 16.33804702758789 12.795186042785645 16.4166259765625 13.844292640686035 16.530391693115234 C13.844292640686035 14.178845405578613 13.844292640686035 11.985045433044434 13.844292640686035 9.520905494689941 C15.900283813476562 9.520905494689941 17.655441284179688 9.520905494689941 19.564239501953125 9.520905494689941 C19.564239501953125 15.8706693649292 19.564239501953125 22.08731460571289 19.564239501953125 28.633529663085938 C17.67361831665039 28.633529663085938 15.968894958496094 28.633529663085938 14.009663581848145 28.633529663085938 C14.009663581848145 26.182876586914062 14.009663581848145 23.875900268554688 14.009663581848145 21.364845275878906 C13.037964820861816 21.317928314208984 12.311388969421387 21.282745361328125 11.194844245910645 21.228797912597656 C11.194844245910645 23.764480590820312 11.194844245910645 26.144760131835938 11.194844245910645 28.649951934814453 C9.204532623291016 28.649951934814453 7.593048572540283 28.649951934814453 5.807397365570068 28.649951934814453 C5.807397365570068 22.246238708496094 5.807397365570068 15.955114364624023 5.807397365570068 9.449949264526367"></path></svg>