<svg xmlns="http://www.w3.org/2000/svg" viewBox="0.0 0.0 24.0 24.0" height="200px" width="200px"><path fill="none" stroke="black" stroke-width=".3" stroke-opacity="1.0"  filling="0" d="M15.17623519897461 10.515950202941895 L15.17623519897461 10.515950202941895 C16.030176162719727 10.515950202941895 16.884119033813477 10.515950202941895 17.738059997558594 10.515950202941895 L17.738059997558594 10.515950202941895 C17.77437400817871 10.606400489807129 17.810686111450195 10.696849822998047 17.847000122070312 10.787300109863281 L17.847000122070312 10.787300109863281 C17.48936653137207 10.983441352844238 17.131731033325195 11.179581642150879 16.774097442626953 11.375722885131836 L16.774097442626953 11.375722885131836 C16.66199493408203 13.503293991088867 16.549896240234375 15.630857467651367 16.43778419494629 17.758426666259766 L16.43778419494629 17.758426666259766 C16.757522583007812 17.951902389526367 17.07726287841797 18.1453800201416 17.397001266479492 18.338855743408203 L17.397001266479492 18.338855743408203 C17.368267059326172 18.4213924407959 17.33953285217285 18.503931045532227 17.31079864501953 18.586467742919922 L17.31079864501953 18.586467742919922 C16.103219985961914 18.586467742919922 14.89564037322998 18.586467742919922 13.688060760498047 18.586467742919922 L13.688060760498047 18.586467742919922 C13.64949893951416 18.51625633239746 13.610937118530273 18.446046829223633 13.572375297546387 18.375835418701172 L13.572375297546387 18.375835418701172 C13.9166841506958 18.17877769470215 14.260993003845215 17.981719970703125 14.605301856994629 17.7846622467041 L14.605301856994629 17.7846622467041 C14.689484596252441 16.403926849365234 14.773693084716797 15.023197174072266 14.857912063598633 13.642464637756348 L14.857912063598633 13.642464637756348 C14.779539108276367 13.617895126342773 14.701166152954102 13.5933256149292 14.622793197631836 13.568756103515625 L14.622793197631836 13.568756103515625 C13.832990646362305 15.254487991333008 13.043146133422852 16.94020652770996 12.2533597946167 18.625946044921875 L12.2533597946167 18.625946044921875 C11.91063404083252 18.625946044921875 11.567907333374023 18.625946044921875 11.225181579589844 18.625946044921875 L11.225181579589844 18.625946044921875 C10.579546928405762 16.904150009155273 9.933893203735352 15.182360649108887 9.288257598876953 13.460565567016602 L9.288257598876953 13.460565567016602 C9.23237133026123 13.47447395324707 9.176486015319824 13.488382339477539 9.120599746704102 13.502290725708008 L9.120599746704102 13.502290725708008 C9.029096603393555 14.930741310119629 8.93763256072998 16.359201431274414 8.84625244140625 17.78765869140625 L8.84625244140625 17.78765869140625 C9.186813354492188 17.96206283569336 9.527374267578125 18.136465072631836 9.867935180664062 18.310869216918945 L9.867935180664062 18.310869216918945 C9.843698501586914 18.399320602416992 9.819461822509766 18.487770080566406 9.795225143432617 18.576221466064453 L9.795225143432617 18.576221466064453 C8.922043800354004 18.576221466064453 8.04886245727539 18.576221466064453 7.175680637359619 18.576221466064453 L7.175680637359619 18.576221466064453 C7.132787704467773 18.515838623046875 7.089894771575928 18.455455780029297 7.047001838684082 18.39507293701172 L7.047001838684082 18.39507293701172 C7.386396884918213 18.179943084716797 7.7257914543151855 17.964811325073242 8.065186500549316 17.74968147277832 L8.065186500549316 17.74968147277832 C8.179248809814453 15.631609916687012 8.293203353881836 13.513534545898438 8.407246589660645 11.395462036132812 L8.407246589660645 11.395462036132812 C8.068851470947266 11.200237274169922 7.7304558753967285 11.005012512207031 7.392060279846191 10.80978775024414 L7.392060279846191 10.80978775024414 C7.410383224487305 10.73024845123291 7.428706645965576 10.65070915222168 7.4470295906066895 10.57116985321045 L7.4470295906066895 10.57116985321045 C7.5345683097839355 10.57116985321045 10.091679573059082 10.57116985321045 10.136285781860352 10.57116985321045 L10.136285781860352 10.57116985321045 C10.886101722717285 12.574199676513672 11.63581371307373 14.577266693115234 12.38553524017334 16.580331802368164 L12.38553524017334 16.580331802368164 C13.315725326538086 14.558852195739746 14.245989799499512 12.537403106689453 15.17623519897461 10.515950202941895 L15.17623519897461 10.515950202941895"></path></svg>