<svg xmlns="http://www.w3.org/2000/svg" viewBox="0.0 0.0 24.0 24.0" height="200px" width="200px"><path fill="none" stroke="black" stroke-width=".3" stroke-opacity="1.0"  filling="0" d="M3.857436180114746 11.520418167114258 C6.0531840324401855 11.520418167114258 8.422072410583496 11.520418167114258 10.046256065368652 11.520418167114258 C11.068380355834961 13.87946891784668 11.982291221618652 15.988645553588867 13.142141342163086 18.665451049804688 C15.41167163848877 16.152935028076172 17.260150909423828 14.544489860534668 15.692042350769043 11.523369789123535 C17.941896438598633 11.523369789123535 20.077632904052734 11.523369789123535 22.023508071899414 11.523369789123535 C19.53165054321289 14.15984058380127 17.055530548095703 16.77860450744629 14.214439392089844 19.78496742248535 C17.28769874572754 23.754432678222656 20.00188636779785 27.26152801513672 22.672786712646484 30.711566925048828 C20.297998428344727 30.711566925048828 17.57790756225586 30.711566925048828 14.857816696166992 30.711566925048828 C14.714187622070312 30.513830184936523 14.572526931762695 30.31707763671875 14.430865287780762 30.120325088500977 C15.141138076782227 29.764204025268555 15.851411819458008 29.4080867767334 16.775157928466797 28.943750381469727 C15.267059326171875 26.773584365844727 14.106224060058594 25.103164672851562 12.730931282043457 23.12384033203125 C10.757513046264648 25.5517578125 8.404364585876465 27.293006896972656 10.111184120178223 30.720417022705078 C7.945932865142822 30.720417022705078 5.865285396575928 30.720417022705078 3.848581314086914 30.720417022705078 C6.470297336578369 27.78095245361328 9.090044021606445 24.845417022705078 11.973438262939453 21.612789154052734 C9.084141731262207 18.019123077392578 6.490955829620361 14.795347213745117 3.857436180114746 11.520418167114258"></path></svg>