<svg xmlns="http://www.w3.org/2000/svg" viewBox="0.0 0.0 24.0 24.0" height="200px" width="200px"><path fill="none" stroke="black" stroke-width=".3" stroke-opacity="1.0"  filling="0" d="M13.1762113571167 10.563104629516602 L13.1762113571167 10.563104629516602 C14.201762199401855 10.563104629516602 15.227313995361328 10.563104629516602 16.252864837646484 10.563104629516602 L16.252864837646484 10.563104629516602 C16.252864837646484 12.362278938293457 16.252864837646484 14.161453247070312 16.252864837646484 15.960626602172852 C16.252864837646484 17.75979995727539 16.252864837646484 19.558975219726562 16.252864837646484 21.3581485748291 L16.252864837646484 21.3581485748291 C16.083730697631836 21.3581485748291 13.749809265136719 21.3581485748291 13.655616760253906 21.3581485748291 L13.655616760253906 21.3581485748291 C13.03243350982666 20.077287673950195 12.409163475036621 18.79646110534668 11.785902976989746 17.515636444091797 L11.785902976989746 17.515636444091797 C11.674779891967773 17.522356033325195 11.5636568069458 17.52907371520996 11.452533721923828 17.53579330444336 L11.452533721923828 17.53579330444336 C11.452533721923828 18.81156349182129 11.452533721923828 20.08733558654785 11.452533721923828 21.36310577392578 L11.452533721923828 21.36310577392578 C10.480066299438477 21.36310577392578 9.507599830627441 21.36310577392578 8.53513240814209 21.36310577392578 L8.53513240814209 21.36310577392578 C8.53513240814209 19.56668472290039 8.53513240814209 17.770263671875 8.53513240814209 15.973843574523926 C8.53513240814209 14.177422523498535 8.53513240814209 12.381000518798828 8.53513240814209 10.584580421447754 L8.53513240814209 10.584580421447754 C9.443502426147461 10.584580421447754 10.351872444152832 10.584580421447754 11.260242462158203 10.584580421447754 L11.260242462158203 10.584580421447754 C11.805994033813477 11.735051155090332 12.351810455322266 12.885490417480469 12.897686958312988 14.03590202331543 L12.897686958312988 14.03590202331543 C12.990528106689453 14.038764953613281 13.083370208740234 14.04162883758545 13.1762113571167 14.0444917678833 L13.1762113571167 14.0444917678833 C13.1762113571167 12.884029388427734 13.1762113571167 11.723567008972168 13.1762113571167 10.563104629516602 L13.1762113571167 10.563104629516602"></path></svg>