<svg xmlns="http://www.w3.org/2000/svg" viewBox="0.0 0.0 24.0 24.0" height="200px" width="200px"><path fill="none" stroke="black" stroke-width=".3" stroke-opacity="1.0"  filling="0" d="M9.995864868164062 10.574459075927734 L9.995864868164062 10.574459075927734 C10.543901443481445 10.21607494354248 11.005274772644043 9.660361289978027 11.639975547790527 9.499306678771973 C13.453872680664062 9.039031982421875 14.552298545837402 10.111591339111328 15.077374458312988 11.584344863891602 C15.602450370788574 13.057099342346191 15.554178237915039 14.930047035217285 15.074679374694824 16.07054901123047 C14.79624080657959 16.732824325561523 14.269791603088379 17.261184692382812 13.889325141906738 17.870595932006836 L13.889325141906738 17.870595932006836 C14.472125053405762 18.03427505493164 15.054924011230469 18.197952270507812 15.637723922729492 18.361631393432617 L15.637723922729492 18.361631393432617 C15.177306175231934 18.9830379486084 14.716886520385742 19.60444450378418 14.256465911865234 20.22585105895996 L14.256465911865234 20.22585105895996 C13.920024871826172 20.22585105895996 13.583584785461426 20.22585105895996 13.247143745422363 20.22585105895996 L13.247143745422363 20.22585105895996 C11.720975875854492 18.755836486816406 10.379046440124512 17.440208435058594 9.683215141296387 15.943475723266602 C8.987382888793945 14.446742057800293 8.937646865844727 12.768901824951172 9.995864868164062 10.574459075927734 L9.995864868164062 10.574459075927734"></path>
<path fill="none" stroke="black" stroke-width=".3" stroke-opacity="1.0"  filling="0" d="M12.301156997680664 11.523221969604492 L12.301156997680664 11.523221969604492 C12.957202911376953 13.214838981628418 12.996213912963867 14.118019104003906 12.628177642822266 15.888540267944336 L12.628177642822266 15.888540267944336 C12.520095825195312 15.935894012451172 12.41201400756836 15.983247756958008 12.303932189941406 16.030601501464844 L12.303932189941406 16.030601501464844 C11.101072311401367 14.469420433044434 11.652908325195312 13.213727951049805 12.301156997680664 11.523221969604492 L12.301156997680664 11.523221969604492"></path></svg>