<svg xmlns="http://www.w3.org/2000/svg" viewBox="0.0 0.0 24.0 24.0" height="200px" width="200px"><path fill="none" stroke="black" stroke-width=".3" stroke-opacity="1.0"  filling="0" d="M13.91651439666748 5.694071292877197 C16.346288681030273 5.694071292877197 18.698749542236328 5.694071292877197 21.24427032470703 5.694071292877197 C21.012779235839844 6.325982093811035 20.858154296875 6.880133628845215 20.615039825439453 7.391829967498779 C18.98923110961914 10.81416130065918 17.369678497314453 14.239619255065918 15.697395324707031 17.63916015625 C14.455022811889648 20.165462493896484 12.422539710998535 21.352867126464844 9.56017017364502 21.20539093017578 C7.572822570800781 21.103496551513672 5.5760908126831055 21.186174392700195 3.397918701171875 21.186174392700195 C3.397918701171875 19.71097183227539 3.397918701171875 18.608922958374023 3.397918701171875 17.284770965576172 C4.840946197509766 17.284770965576172 6.2187275886535645 17.284770965576172 7.9602813720703125 17.284770965576172 C5.913944244384766 13.291306495666504 4.032064914703369 9.617819786071777 2.0447168350219727 5.738760948181152 C4.6273298263549805 5.738760948181152 7.01643705368042 5.738760948181152 9.480175971984863 5.738760948181152 C10.209063529968262 7.537965297698975 10.948676109313965 9.36443042755127 11.8674955368042 11.632428169250488 C12.65671443939209 9.345659255981445 13.273430824279785 7.557628631591797 13.91651439666748 5.694071292877197"></path></svg>