<svg xmlns="http://www.w3.org/2000/svg" viewBox="0.0 0.0 24.0 24.0" height="200px" width="200px"><path fill="none" stroke="black" stroke-width=".3" stroke-opacity="1.0"  filling="0" d="M8.728988647460938 9.031030654907227 L8.728988647460938 9.031030654907227 C9.668065071105957 9.031030654907227 10.60714054107666 9.031030654907227 11.54621696472168 9.031030654907227 L11.54621696472168 9.031030654907227 C11.54621696472168 10.383395195007324 11.54621696472168 11.735762596130371 11.54621696472168 13.088127136230469 L11.54621696472168 13.088127136230469 C12.748085021972656 13.315446853637695 13.856788635253906 12.00094985961914 14.776030540466309 13.47999382019043 C16.059656143188477 15.545324325561523 14.714926719665527 18.57368278503418 12.641302108764648 19.47146224975586 C11.160898208618164 20.11240577697754 10.655571937561035 19.771465301513672 9.13363265991211 19.484603881835938 L9.13363265991211 19.484603881835938 C9.210626602172852 17.902294158935547 9.287643432617188 16.319984436035156 9.3646879196167 14.737678527832031 C9.441733360290527 13.155370712280273 9.518807411193848 11.573064804077148 9.595916748046875 9.990760803222656 L9.595916748046875 9.990760803222656 C9.28311538696289 9.747801780700684 8.970314979553223 9.504843711853027 8.657513618469238 9.261884689331055 L8.657513618469238 9.261884689331055 C8.6813383102417 9.18493366241455 8.705163955688477 9.10798168182373 8.728988647460938 9.031030654907227 L8.728988647460938 9.031030654907227"></path>
<path fill="none" stroke="black" stroke-width=".3" stroke-opacity="1.0"  filling="0" d="M12.259531021118164 13.853318214416504 L12.259531021118164 13.853318214416504 C11.19299030303955 15.664369583129883 11.295188903808594 16.8829288482666 11.118228912353516 18.952573776245117 L11.118228912353516 18.952573776245117 C13.156364440917969 17.465974807739258 13.430229187011719 16.07445526123047 12.259531021118164 13.853318214416504 L12.259531021118164 13.853318214416504"></path></svg>