<svg xmlns="http://www.w3.org/2000/svg" viewBox="0.0 0.0 24.0 24.0" height="200px" width="200px"><path fill="none" stroke="black" stroke-width=".3" stroke-opacity="1.0"  filling="0" d="M15.974166870117188 15.79436206817627 L15.974166870117188 15.79436206817627 C15.974166870117188 16.545963287353516 15.974166870117188 17.297565460205078 15.974166870117188 18.04916763305664 L15.974166870117188 18.04916763305664 C15.393287658691406 18.192859649658203 13.38769817352295 18.57082748413086 12.863299369812012 19.116323471069336 C11.774689674377441 20.24873161315918 12.798667907714844 22.353967666625977 14.124855995178223 22.697662353515625 C14.744386672973633 22.858219146728516 15.398828506469727 22.573627471923828 16.03581428527832 22.51161003112793 L16.03581428527832 22.51161003112793 C16.03581428527832 23.360509872436523 16.03581428527832 24.209407806396484 16.03581428527832 25.058307647705078 L16.03581428527832 25.058307647705078 C14.26551628112793 25.724550247192383 12.64279556274414 26.33365249633789 10.821953773498535 25.338808059692383 C8.897205352783203 24.287193298339844 8.07200813293457 21.92790985107422 8.306526184082031 19.736881256103516 C8.541044235229492 17.545852661132812 9.835277557373047 15.523082733154297 12.14939022064209 15.144493103027344 C13.717037200927734 14.888025283813477 14.479766845703125 15.332918167114258 15.974166870117188 15.79436206817627 L15.974166870117188 15.79436206817627"></path></svg>