<svg xmlns="http://www.w3.org/2000/svg" viewBox="0.0 0.0 24.0 24.0" height="200px" width="200px"><path fill="none" stroke="black" stroke-width=".3" stroke-opacity="1.0"  filling="0" d="M10.059309959411621 15.568942070007324 L10.059309959411621 15.568942070007324 C10.623143196105957 15.3677978515625 11.159860610961914 15.061138153076172 11.750810623168945 14.965510368347168 C13.721014022827148 14.646690368652344 14.937026023864746 15.449456214904785 15.690225601196289 16.70270347595215 C16.443424224853516 17.955949783325195 16.73381233215332 19.65967559814453 16.852767944335938 21.142776489257812 L16.852767944335938 21.142776489257812 C15.129101753234863 21.142776489257812 13.40543270111084 21.142776489257812 11.681766510009766 21.142776489257812 L11.681766510009766 21.142776489257812 C12.920482635498047 23.763452529907227 13.481338500976562 23.326984405517578 16.32477569580078 22.736492156982422 L16.32477569580078 22.736492156982422 C16.720577239990234 23.418481826782227 16.550168991088867 24.30239486694336 16.554237365722656 25.09090805053711 L16.554237365722656 25.09090805053711 C14.648286819458008 25.446399688720703 12.623729705810547 26.03936767578125 10.684267044067383 25.502470016479492 C8.288814544677734 24.839340209960938 7.430150032043457 22.956491470336914 7.5215606689453125 20.939159393310547 C7.612972259521484 18.921825408935547 8.654458999633789 16.770008087158203 10.059309959411621 15.568942070007324 L10.059309959411621 15.568942070007324"></path>
<path fill="none" stroke="black" stroke-width=".3" stroke-opacity="1.0"  filling="0" d="M12.597295761108398 17.249343872070312 L12.597295761108398 17.249343872070312 C12.260210990905762 17.788423538208008 11.411829948425293 18.255125045776367 11.586041450500488 18.86658477783203 C11.746182441711426 19.428661346435547 12.68266773223877 19.271194458007812 13.23098087310791 19.473499298095703 L13.23098087310791 19.473499298095703 C13.00462532043457 18.67941665649414 12.822046279907227 18.038625717163086 12.597295761108398 17.249343872070312 L12.597295761108398 17.249343872070312"></path></svg>