<svg xmlns="http://www.w3.org/2000/svg" viewBox="0.0 0.0 24.0 24.0" height="200px" width="200px"><path fill="none" stroke="black" stroke-width=".3" stroke-opacity="1.0"  filling="0" d="M7.329558849334717 8.953021049499512 L7.329558849334717 8.953021049499512 C9.04356575012207 8.953021049499512 10.757572174072266 8.953021049499512 12.471579551696777 8.953021049499512 C14.185585975646973 8.953021049499512 15.899592399597168 8.953021049499512 17.61359977722168 8.953021049499512 L17.61359977722168 8.953021049499512 C17.976163864135742 12.115965843200684 16.31182861328125 12.816242218017578 14.128365516662598 14.697480201721191 L14.128365516662598 14.697480201721191 C15.373883247375488 14.753045082092285 16.619400024414062 14.808635711669922 17.864913940429688 14.864264488220215 L17.864913940429688 14.864264488220215 C17.864913940429688 14.871356964111328 17.864913940429688 17.829999923706055 17.864913940429688 17.8319149017334 L17.864913940429688 17.8319149017334 C16.09699249267578 17.832054138183594 14.329071044921875 17.832134246826172 12.561148643493652 17.83218002319336 C10.79322624206543 17.832225799560547 9.025304794311523 17.832237243652344 7.257383346557617 17.832239151000977 L7.257383346557617 17.832239151000977 C7.221390247344971 17.29262924194336 6.9757890701293945 16.72559356689453 7.149404048919678 16.213409423828125 C7.591265678405762 14.909866333007812 9.958331108093262 13.527626991271973 10.874613761901855 12.531562805175781 L10.874613761901855 12.531562805175781 C9.6929292678833 12.531562805175781 8.51124382019043 12.531562805175781 7.329558849334717 12.531562805175781 L7.329558849334717 12.531562805175781 C7.329558849334717 11.338715553283691 7.329558849334717 10.145868301391602 7.329558849334717 8.953021049499512 L7.329558849334717 8.953021049499512"></path></svg>