<svg xmlns="http://www.w3.org/2000/svg" viewBox="0.0 0.0 24.0 24.0" height="200px" width="200px"><path fill="none" stroke="black" stroke-width=".3" stroke-opacity="1.0"  filling="0" d="M6.151546955108643 6.861013889312744 C7.798310279846191 6.861013889312744 9.444549560546875 6.861013889312744 11.288169860839844 6.861013889312744 C11.288169860839844 9.338770866394043 11.288169860839844 11.91259479522705 11.288169860839844 14.479069709777832 C11.638835906982422 14.496917724609375 11.835165977478027 14.56988525390625 11.955904960632324 14.503742218017578 C15.754434585571289 12.432820320129395 17.710918426513672 13.618678092956543 17.684146881103516 17.975753784179688 C17.671546936035156 19.984207153320312 17.68204689025879 21.993186950683594 17.68204689025879 24.236291885375977 C17.909873962402344 24.453094482421875 18.373403549194336 24.894052505493164 18.789688110351562 25.289865493774414 C18.457395553588867 26.18857765197754 15.735536575317383 26.294090270996094 12.64306354522705 25.64263153076172 C14.513455390930176 23.270912170410156 13.839946746826172 20.505481719970703 13.947561264038086 17.874439239501953 C13.972234725952148 17.273372650146484 13.337045669555664 16.645009994506836 13.005804061889648 16.029245376586914 C12.370615005493164 16.512197494506836 11.235151290893555 16.948429107666016 11.1847562789917 17.485977172851562 C10.933828353881836 20.18368911743164 10.07606315612793 22.962242126464844 11.840940475463867 25.84421157836914 C9.528541564941406 25.84421157836914 7.582556247711182 25.84421157836914 4.928940296173096 25.84421157836914 C7.680722236633301 24.03313636779785 7.090155124664307 21.722312927246094 7.208268165588379 19.593645095825195 C7.411947727203369 15.930027961730957 7.617727756500244 12.266935348510742 7.819833278656006 8.656338691711426 C7.152099132537842 8.146087646484375 6.59880256652832 7.723504066467285 6.046031951904297 7.301445484161377 C6.081202983856201 7.1544599533081055 6.116374969482422 7.007998943328857 6.151546955108643 6.861013889312744"></path></svg>