<svg xmlns="http://www.w3.org/2000/svg" viewBox="0.0 0.0 24.0 24.0" height="200px" width="200px"><path fill="none" stroke="black" stroke-width=".3" stroke-opacity="1.0"  filling="0" d="M8.981905937194824 10.590213775634766 L8.981905937194824 10.590213775634766 C9.151534080505371 10.590213775634766 11.579498291015625 10.590213775634766 11.693137168884277 10.590213775634766 L11.693137168884277 10.590213775634766 C11.693137168884277 12.661073684692383 11.693137168884277 14.731927871704102 11.693137168884277 16.80278968811035 L11.693137168884277 16.80278968811035 C11.785515785217285 16.816112518310547 11.877893447875977 16.829435348510742 11.970272064208984 16.842758178710938 L11.970272064208984 16.842758178710938 C12.34598159790039 15.924162864685059 12.721658706665039 15.005555152893066 13.097308158874512 14.086935043334961 L13.097308158874512 14.086935043334961 C13.995105743408203 14.086935043334961 14.892904281616211 14.086935043334961 15.790701866149902 14.086935043334961 L15.790701866149902 14.086935043334961 C15.469861030578613 15.019350051879883 14.901097297668457 15.875537872314453 14.7212495803833 16.845069885253906 C14.402427673339844 18.56379508972168 15.509819030761719 19.885250091552734 16.107805252075195 21.381296157836914 L16.107805252075195 21.381296157836914 C15.161890983581543 21.381296157836914 14.215977668762207 21.381296157836914 13.270063400268555 21.381296157836914 L13.270063400268555 21.381296157836914 C12.843284606933594 20.420303344726562 12.41651725769043 19.459304809570312 11.989760398864746 18.498302459716797 L11.989760398864746 18.498302459716797 C11.914889335632324 18.508211135864258 11.840017318725586 18.51812171936035 11.765146255493164 18.528030395507812 L11.765146255493164 18.528030395507812 C11.765349388122559 19.482091903686523 11.765450477600098 20.4361515045166 11.76547622680664 21.390213012695312 L11.76547622680664 21.390213012695312 C10.83761978149414 21.390213012695312 9.909762382507324 21.390213012695312 8.981905937194824 21.390213012695312 L8.981905937194824 21.390213012695312 C8.981905937194824 19.590213775634766 8.981905937194824 17.79021453857422 8.981905937194824 15.990214347839355 C8.981905937194824 14.190214157104492 8.981905937194824 12.390214920043945 8.981905937194824 10.590213775634766 L8.981905937194824 10.590213775634766"></path></svg>