<svg xmlns="http://www.w3.org/2000/svg" viewBox="0.0 0.0 24.0 24.0" height="200px" width="200px"><path fill="none" stroke="black" stroke-width=".3" stroke-opacity="1.0"  filling="0" d="M8.383617401123047 4.6131391525268555 C11.413309097290039 3.838566780090332 14.411262512207031 3.738224983215332 17.394367218017578 4.918771266937256 C19.62030601501465 5.799829483032227 21.059383392333984 7.36331033706665 21.702388763427734 9.620989799499512 C22.369964599609375 11.965700149536133 22.307506561279297 14.333447456359863 21.543174743652344 16.65665626525879 C20.678497314453125 19.28447151184082 18.97832489013672 21.03122901916504 16.176448822021484 21.520137786865234 C14.926279067993164 21.73822784423828 13.662797927856445 21.879009246826172 12.48071575164795 22.04385757446289 C11.195734024047852 21.87389373779297 10.012115478515625 21.759727478027344 8.844880104064941 21.553924560546875 C6.0670647621154785 21.06399154663086 4.099658012390137 19.410409927368164 3.472012519836426 16.73958969116211 C2.9795217514038086 14.642662048339844 2.8064842224121094 12.336860656738281 3.1197948455810547 10.21638298034668 C3.546245574951172 7.331057548522949 5.446074485778809 5.364163875579834 8.383617401123047 4.6131391525268555"></path>
<path fill="none" stroke="black" stroke-width=".3" stroke-opacity="1.0"  filling="0" d="M12.43412971496582 10.211774826049805 C13.994539260864258 10.201024055480957 15.031229019165039 11.425597190856934 15.06706428527832 13.321331024169922 C15.104948043823242 15.308191299438477 14.19880485534668 16.409896850585938 12.511433601379395 16.427814483642578 C10.77440357208252 16.446247100830078 9.928156852722168 15.454095840454102 9.925597190856934 13.397099494934082 C9.923036575317383 11.412798881530762 10.8604097366333 10.222525596618652 12.43412971496582 10.211774826049805"></path></svg>