<svg xmlns="http://www.w3.org/2000/svg" viewBox="0.0 0.0 24.0 24.0" height="200px" width="200px"><path fill="none" stroke="black" stroke-width=".3" stroke-opacity="1.0"  filling="0" d="M12.024856567382812 17.313079833984375 C16.704509735107422 17.216968536376953 18.207500457763672 18.59650421142578 17.86448097229004 22.929821014404297 C15.996098518371582 22.657230377197266 14.117775917053223 22.383808135986328 12.23945140838623 22.10955810546875 C12.096940994262695 22.457550048828125 11.953600883483887 22.80636978149414 11.811090469360352 23.154361724853516 C13.017460823059082 23.865257263183594 14.237086296081543 24.555438995361328 15.427713394165039 25.29201889038086 C18.24478530883789 27.034461975097656 19.273014068603516 29.331201553344727 18.56626319885254 32.23444366455078 C17.96970558166504 34.686126708984375 15.774876594543457 36.47993850708008 12.700124740600586 36.50728225708008 C10.43818187713623 36.527992248535156 8.172924995422363 36.02009582519531 5.630932331085205 35.71435546875 C5.630932331085205 33.582496643066406 5.630932331085205 32.37446975708008 5.630932331085205 31.030561447143555 C7.694023609161377 31.3553524017334 9.641117095947266 31.662744522094727 11.589038848876953 31.969308853149414 C11.726577758789062 31.568288803100586 11.863288879394531 31.167272567749023 12.00082778930664 30.766254425048828 C10.925370216369629 30.09512710571289 9.844111442565918 29.433115005493164 8.774452209472656 28.75204849243164 C5.985551834106445 26.978120803833008 4.749354362487793 24.454355239868164 5.386509418487549 21.858509063720703 C6.039407730102539 19.19720458984375 8.69076919555664 17.38102149963379 12.024856567382812 17.313079833984375"></path></svg>