<svg xmlns="http://www.w3.org/2000/svg" viewBox="0.0 0.0 24.0 24.0" height="200px" width="200px"><path fill="none" stroke="black" stroke-width=".3" stroke-opacity="1.0"  filling="0" d="M12.809491157531738 11.299539566040039 L12.809491157531738 11.299539566040039 C12.812005996704102 11.321401596069336 13.085618019104004 13.699081420898438 13.10783576965332 13.892086029052734 L13.10783576965332 13.892086029052734 C13.697162628173828 14.007076263427734 14.28648853302002 14.122066497802734 14.875815391540527 14.237056732177734 L14.875815391540527 14.237056732177734 C14.905381202697754 14.749606132507324 14.93494701385498 15.26215648651123 14.964512825012207 15.77470588684082 L14.964512825012207 15.77470588684082 C14.307879447937012 15.891828536987305 13.651241302490234 16.008920669555664 12.994598388671875 16.125988006591797 L12.994598388671875 16.125988006591797 C13.013503074645996 16.527475357055664 13.139418601989746 19.19903564453125 13.157618522644043 19.584819793701172 L13.157618522644043 19.584819793701172 C13.757696151733398 19.584819793701172 14.35777473449707 19.584819793701172 14.957852363586426 19.584819793701172 L14.957852363586426 19.584819793701172 C14.957852363586426 20.271141052246094 14.957852363586426 20.957462310791016 14.957852363586426 21.643783569335938 L14.957852363586426 21.643783569335938 C14.456454277038574 21.773555755615234 13.29405689239502 22.110124588012695 12.773031234741211 22.097434997558594 C11.059341430664062 22.05569839477539 10.423523902893066 20.987947463989258 10.114961624145508 19.636476516723633 C9.806400299072266 18.285005569458008 9.825093269348145 16.649816513061523 9.420424461364746 15.473206520080566 L9.420424461364746 15.473206520080566 C9.290008544921875 15.407063484191895 9.159592628479004 15.340920448303223 9.029176712036133 15.27477741241455 L9.029176712036133 15.27477741241455 C10.289257049560547 13.949676513671875 11.549389839172363 12.624621391296387 12.809491157531738 11.299539566040039 L12.809491157531738 11.299539566040039"></path></svg>