<svg xmlns="http://www.w3.org/2000/svg" viewBox="0.0 0.0 24.0 24.0" height="200px" width="200px"><path fill="none" stroke="black" stroke-width=".3" stroke-opacity="1.0"  filling="0" d="M13.13502311706543 15.162092208862305 L13.13502311706543 15.162092208862305 C14.489811897277832 15.162092208862305 15.844596862792969 15.162092208862305 17.199386596679688 15.162092208862305 L17.199386596679688 15.162092208862305 C16.58800506591797 16.65861701965332 15.219696044921875 18.75848388671875 15.22520923614502 20.422710418701172 C15.230948448181152 22.155208587646484 16.716367721557617 24.3907527923584 17.385879516601562 25.96209144592285 L17.385879516601562 25.96209144592285 C15.997329711914062 25.96175765991211 14.608782768249512 25.961624145507812 13.220233917236328 25.961605072021484 L13.220233917236328 25.961605072021484 C12.938648223876953 25.26074981689453 12.657039642333984 24.559904098510742 12.375419616699219 23.85906219482422 L12.375419616699219 23.85906219482422 C12.287092208862305 24.008190155029297 11.251121520996094 25.757104873657227 11.130838394165039 25.96014404296875 L11.130838394165039 25.96014404296875 C9.877330780029297 25.96014404296875 8.623823165893555 25.96014404296875 7.370316028594971 25.96014404296875 L7.370316028594971 25.96014404296875 C7.269191741943359 24.099546432495117 9.154814720153809 22.404502868652344 9.156356811523438 20.403839111328125 C9.15772533416748 18.628517150878906 7.9344353675842285 16.803146362304688 7.213525772094727 15.26045036315918 L7.213525772094727 15.26045036315918 C8.532118797302246 15.26045036315918 9.850712776184082 15.26045036315918 11.169305801391602 15.26045036315918 L11.169305801391602 15.26045036315918 C11.473877906799316 15.887083053588867 11.77834701538086 16.51376724243164 12.08277702331543 17.14046859741211 L12.08277702331543 17.14046859741211 C12.433611869812012 16.481056213378906 12.784357070922852 15.821595191955566 13.13502311706543 15.162092208862305 L13.13502311706543 15.162092208862305"></path></svg>