<svg xmlns="http://www.w3.org/2000/svg" viewBox="0.0 0.0 24.0 24.0" height="200px" width="200px"><path fill="none" stroke="black" stroke-width=".3" stroke-opacity="1.0"  filling="0" d="M17.65453338623047 10.442172050476074 L17.65453338623047 10.442172050476074 C17.681541442871094 10.548012733459473 17.70854949951172 10.653852462768555 17.735557556152344 10.759693145751953 L17.735557556152344 10.759693145751953 C17.297117233276367 10.918214797973633 16.858678817749023 11.076736450195312 16.420238494873047 11.235258102416992 L16.420238494873047 11.235258102416992 C16.420238494873047 12.546331405639648 16.420238494873047 13.857404708862305 16.420238494873047 15.168478012084961 C16.420238494873047 16.479551315307617 16.420238494873047 17.790626525878906 16.420238494873047 19.10169792175293 L16.420238494873047 19.10169792175293 C16.844648361206055 19.211259841918945 17.269060134887695 19.320823669433594 17.693470001220703 19.43038558959961 L17.693470001220703 19.43038558959961 C17.68879508972168 19.542810440063477 17.684118270874023 19.655237197875977 17.679443359375 19.767662048339844 L17.679443359375 19.767662048339844 C16.386625289916992 19.838300704956055 15.08993911743164 19.857027053833008 13.795611381530762 19.824066162109375 L13.795611381530762 19.824066162109375 C13.769556999206543 19.71450424194336 13.743501663208008 19.60494041442871 13.717447280883789 19.495378494262695 L13.717447280883789 19.495378494262695 C14.101201057434082 19.360715866088867 14.484955787658691 19.226055145263672 14.868709564208984 19.091392517089844 L14.868709564208984 19.091392517089844 C14.868709564208984 17.909685134887695 14.868709564208984 16.727975845336914 14.868709564208984 15.546268463134766 L14.868709564208984 15.546268463134766 C13.223747253417969 15.546268463134766 11.578786849975586 15.546268463134766 9.93382453918457 15.546268463134766 L9.93382453918457 15.546268463134766 C9.93382453918457 15.628094673156738 9.93382453918457 19.09222984313965 9.93382453918457 19.149513244628906 L9.93382453918457 19.149513244628906 C10.352986335754395 19.23139762878418 10.772148132324219 19.313283920288086 11.191309928894043 19.39516830444336 L11.191309928894043 19.39516830444336 C9.637868881225586 19.97983741760254 8.568106651306152 19.839664459228516 6.935558319091797 19.556364059448242 L6.935558319091797 19.556364059448242 C7.39155912399292 19.400800704956055 7.847559452056885 19.245235443115234 8.303560256958008 19.089672088623047 L8.303560256958008 19.089672088623047 C8.303560256958008 17.777835845947266 8.303560256958008 16.46599769592285 8.303560256958008 15.154162406921387 C8.303560256958008 13.842325210571289 8.303560256958008 12.530488967895508 8.303560256958008 11.218652725219727 L8.303560256958008 11.218652725219727 C7.922668933868408 11.08208179473877 7.541777610778809 10.945509910583496 7.160886287689209 10.808938980102539 L7.160886287689209 10.808938980102539 C7.17157506942749 10.709683418273926 7.18226432800293 10.610428810119629 7.192953109741211 10.511173248291016 L7.192953109741211 10.511173248291016 C8.491056442260742 10.43653392791748 9.79318904876709 10.413938522338867 11.093104362487793 10.443317413330078 L11.093104362487793 10.443317413330078 C11.12087631225586 10.558320045471191 11.148649215698242 10.673321723937988 11.176421165466309 10.788324356079102 L11.176421165466309 10.788324356079102 C10.75601863861084 10.921077728271484 10.335616111755371 11.053832054138184 9.915213584899902 11.186585426330566 L9.915213584899902 11.186585426330566 C9.915213584899902 12.328685760498047 9.915213584899902 13.470787048339844 9.915213584899902 14.61288833618164 L9.915213584899902 14.61288833618164 C11.552444458007812 14.61288833618164 13.189676284790039 14.61288833618164 14.82690715789795 14.61288833618164 L14.82690715789795 14.61288833618164 C14.82690715789795 13.465347290039062 14.82690715789795 12.317806243896484 14.82690715789795 11.170265197753906 L14.82690715789795 11.170265197753906 C14.465676307678223 11.061561584472656 14.104445457458496 10.952858924865723 13.74321460723877 10.844155311584473 L13.74321460723877 10.844155311584473 C13.746936798095703 10.734020233154297 13.75065803527832 10.623885154724121 13.754380226135254 10.513750076293945 L13.754380226135254 10.513750076293945 C15.052422523498535 10.437664985656738 16.354570388793945 10.41391372680664 17.65453338623047 10.442172050476074 L17.65453338623047 10.442172050476074"></path></svg>