<svg xmlns="http://www.w3.org/2000/svg" viewBox="0.0 0.0 24.0 24.0" height="200px" width="200px"><path fill="none" stroke="black" stroke-width=".3" stroke-opacity="1.0"  filling="0" d="M15.919134140014648 7.052209377288818 C14.906455993652344 7.426735877990723 14.349130630493164 7.632560729980469 13.726486206054688 7.86282205581665 C13.680903434753418 8.021655082702637 13.564833641052246 8.24063777923584 13.563894271850586 8.460090637207031 C13.548386573791504 12.137685775756836 13.550736427307129 15.814811706542969 13.539928436279297 19.492406845092773 C13.53804874420166 20.195880889892578 13.563894271850586 20.90874671936035 13.465681076049805 21.601409912109375 C12.967096328735352 25.109832763671875 10.658846855163574 26.53463363647461 6.786705017089844 25.48107147216797 C7.273071765899658 25.229663848876953 7.535757541656494 25.000812530517578 7.825697898864746 24.958518981933594 C10.200675010681152 24.611719131469727 11.110441207885742 23.850448608398438 11.15931224822998 21.570865631103516 C11.25611686706543 17.04177474975586 11.18797779083252 12.508922576904297 11.18797779083252 7.835096836090088 C10.301708221435547 7.634440898895264 9.656038284301758 7.488295555114746 8.858583450317383 7.307846546173096 C10.308756828308105 6.500993251800537 12.856194496154785 6.390562057495117 15.919134140014648 7.052209377288818"></path></svg>