<svg xmlns="http://www.w3.org/2000/svg" viewBox="0.0 0.0 24.0 24.0" height="200px" width="200px"><path fill="none" stroke="black" stroke-width=".3" stroke-opacity="1.0"  filling="0" d="M6.008846759796143 9.3656005859375 C7.435423374176025 9.3656005859375 8.670736312866211 9.3656005859375 10.030049324035645 9.3656005859375 C11.091062545776367 11.819265365600586 12.127508163452148 14.215609550476074 13.163370132446289 16.612537384033203 C13.31836986541748 16.615463256835938 13.472784042358398 16.61838722229004 13.627782821655273 16.62131118774414 C13.627782821655273 14.301005363464355 13.627782821655273 11.980697631835938 13.627782821655273 9.445146560668945 C15.345640182495117 9.445146560668945 16.644123077392578 9.445146560668945 18.154338836669922 9.445146560668945 C18.154338836669922 15.743374824523926 18.154338836669922 22.014110565185547 18.154338836669922 28.503015518188477 C16.990385055541992 28.503015518188477 15.784317016601562 28.503015518188477 14.386985778808594 28.503015518188477 C13.300237655639648 26.075084686279297 12.170791625976562 23.553573608398438 11.041929244995117 21.03147315979004 C10.854761123657227 21.058963775634766 10.667007446289062 21.08645248413086 10.479838371276855 21.11394500732422 C10.479838371276855 23.551233291625977 10.479838371276855 25.989105224609375 10.479838371276855 28.56501579284668 C8.817546844482422 28.56501579284668 7.505026340484619 28.56501579284668 6.008846759796143 28.56501579284668 C6.008846759796143 22.224090576171875 6.008846759796143 15.955694198608398 6.008846759796143 9.3656005859375"></path></svg>