<svg xmlns="http://www.w3.org/2000/svg" viewBox="0.0 0.0 24.0 24.0" height="200px" width="200px"><path fill="none" stroke="black" stroke-width=".3" stroke-opacity="1.0"  filling="0" d="M8.963522911071777 10.612288475036621 L8.963522911071777 10.612288475036621 C10.642900466918945 10.575299263000488 13.277771949768066 10.039602279663086 14.688638687133789 11.240150451660156 C16.197052001953125 12.523704528808594 16.19808578491211 15.189589500427246 14.641005516052246 16.426969528198242 C13.647089958190918 17.216814041137695 12.773406982421875 17.140239715576172 11.573062896728516 17.2893009185791 L11.573062896728516 17.2893009185791 C11.573062896728516 18.644357681274414 11.573062896728516 19.999404907226562 11.573062896728516 21.354459762573242 L11.573062896728516 21.354459762573242 C10.703216552734375 21.354459762573242 9.833369255065918 21.354459762573242 8.963522911071777 21.354459762573242 L8.963522911071777 21.354459762573242 C8.963522911071777 19.564098358154297 8.963522911071777 17.77373504638672 8.963522911071777 15.983373641967773 C8.963522911071777 14.193012237548828 8.963522911071777 12.402650833129883 8.963522911071777 10.612288475036621 L8.963522911071777 10.612288475036621"></path>
<path fill="none" stroke="black" stroke-width=".3" stroke-opacity="1.0"  filling="0" d="M11.602141380310059 12.564899444580078 L11.602141380310059 12.564899444580078 C13.455049514770508 13.092707633972168 13.589106559753418 14.694530487060547 11.602141380310059 15.130820274353027 L11.602141380310059 15.130820274353027 C11.602141380310059 14.275513648986816 11.602141380310059 13.420206069946289 11.602141380310059 12.564899444580078 L11.602141380310059 12.564899444580078"></path></svg>