<svg xmlns="http://www.w3.org/2000/svg" viewBox="0.0 0.0 24.0 24.0" height="200px" width="200px"><path fill="none" stroke="black" stroke-width=".3" stroke-opacity="1.0"  filling="0" d="M6.6416497230529785 9.950732231140137 C9.239813804626465 9.950732231140137 11.740823745727539 9.769803047180176 14.201690673828125 10.007163047790527 C16.23263168334961 10.20263671875 17.735332489013672 11.409799575805664 18.347932815551758 13.53033447265625 C18.975074768066406 15.702064514160156 18.53933334350586 17.527061462402344 16.810909271240234 19.012310028076172 C16.534570693969727 19.249670028686523 16.239614486694336 19.4666690826416 16.239032745361328 19.467248916625977 C17.4764461517334 22.690227508544922 18.635324478149414 25.70901107788086 19.930334091186523 29.08441162109375 C17.841796875 29.08441162109375 16.404834747314453 29.08441162109375 14.870138168334961 29.08441162109375 C13.30402660369873 26.745134353637695 13.914299011230469 23.443614959716797 11.309735298156738 20.917591094970703 C11.309735298156738 23.854339599609375 11.309735298156738 26.285537719726562 11.309735298156738 28.940134048461914 C9.644722938537598 28.940134048461914 8.256630897521973 28.940134048461914 6.6416497230529785 28.940134048461914 C6.6416497230529785 22.68383026123047 6.6416497230529785 16.380985260009766 6.6416497230529785 9.950732231140137"></path>
<path fill="none" stroke="black" stroke-width=".3" stroke-opacity="1.0"  filling="0" d="M11.474956512451172 12.975912094116211 C13.15916633605957 12.749605178833008 13.693809509277344 13.832269668579102 13.81772518157959 15.020235061645508 C13.967239379882812 16.453123092651367 13.503572463989258 17.69344711303711 11.474956512451172 18.07450294494629 C11.474956512451172 16.358877182006836 11.474956512451172 14.743314743041992 11.474956512451172 12.975912094116211"></path></svg>