<svg xmlns="http://www.w3.org/2000/svg" viewBox="0.0 0.0 24.0 24.0" height="200px" width="200px"><path fill="none" stroke="black" stroke-width=".3" stroke-opacity="1.0"  filling="0" d="M14.159507751464844 9.51327896118164 C14.684063911437988 9.669015884399414 15.188380241394043 9.893342971801758 15.818072319030762 10.130040168762207 C15.818072319030762 11.267984390258789 15.818072319030762 12.341273307800293 15.818072319030762 13.357213973999023 C14.649206161499023 13.24870491027832 13.606277465820312 13.152002334594727 11.85325813293457 12.9889554977417 C12.453715324401855 14.510337829589844 12.725831985473633 15.520657539367676 13.230710983276367 16.397729873657227 C13.832292556762695 17.44290542602539 14.693059921264648 18.335155487060547 15.33568286895752 19.360095977783203 C17.102195739746094 22.17797088623047 17.088703155517578 24.96042251586914 15.369977951049805 26.880985260009766 C13.678242683410645 28.772308349609375 11.056023597717285 28.946035385131836 7.785557746887207 27.29253387451172 C7.785557746887207 26.292896270751953 7.785557746887207 25.21117401123047 7.785557746887207 23.842716217041016 C8.523198127746582 24.17892837524414 9.064058303833008 24.587665557861328 9.640901565551758 24.64557647705078 C10.313885688781738 24.713043212890625 11.31464672088623 24.705169677734375 11.62668228149414 24.304306030273438 C11.960644721984863 23.87588882446289 11.847637176513672 22.870067596435547 11.588451385498047 22.26230239868164 C11.192644119262695 21.33462905883789 10.478617668151855 20.547515869140625 9.944503784179688 19.673816680908203 C9.267022132873535 18.564544677734375 8.518699645996094 17.477201461791992 8.007637023925781 16.29146957397461 C7.17385721206665 14.357975959777832 7.265499591827393 12.385687828063965 8.744152069091797 10.793466567993164 C10.203689575195312 9.22148323059082 12.114693641662598 8.90776252746582 14.159507751464844 9.51327896118164"></path></svg>