<svg xmlns="http://www.w3.org/2000/svg" viewBox="0.0 0.0 24.0 24.0" height="200px" width="200px"><path fill="none" stroke="black" stroke-width=".3" stroke-opacity="1.0"  filling="0" d="M7.925535202026367 9.632972717285156 L7.925535202026367 9.632972717285156 C9.440587997436523 9.919654846191406 10.882059097290039 10.06451416015625 12.324936866760254 10.075677871704102 C13.767815589904785 10.08684253692627 15.212100982666016 9.964311599731445 16.732784271240234 9.716215133666992 L16.732784271240234 9.716215133666992 C16.732784271240234 10.565485954284668 16.732784271240234 11.414755821228027 16.732784271240234 12.264026641845703 L16.732784271240234 12.264026641845703 C16.628782272338867 12.291986465454102 16.524782180786133 12.319945335388184 16.420780181884766 12.347905158996582 L16.420780181884766 12.347905158996582 C16.271663665771484 11.893244743347168 16.12254524230957 11.43858528137207 15.973428726196289 10.983924865722656 L15.973428726196289 10.983924865722656 C15.869057655334473 10.983924865722656 13.405850410461426 10.983924865722656 13.376688003540039 10.983924865722656 L13.376688003540039 10.983924865722656 C13.376688003540039 12.440996170043945 13.376688003540039 13.898069381713867 13.376688003540039 15.355142593383789 C13.376688003540039 16.81221580505371 13.376688003540039 18.269287109375 13.376688003540039 19.72635841369629 L13.376688003540039 19.72635841369629 C13.787925720214844 19.865520477294922 14.199163436889648 20.004682540893555 14.610401153564453 20.143844604492188 L14.610401153564453 20.143844604492188 C14.592079162597656 20.240325927734375 14.57375717163086 20.336807250976562 14.555435180664062 20.43328857421875 L14.555435180664062 20.43328857421875 C13.111388206481934 20.43328857421875 11.66734504699707 20.43328857421875 10.223298072814941 20.43328857421875 L10.223298072814941 20.43328857421875 C10.198939323425293 20.338712692260742 10.174581527709961 20.244138717651367 10.150222778320312 20.14956283569336 L10.150222778320312 20.14956283569336 C10.627653121948242 20.012413024902344 11.105083465576172 19.87526512145996 11.582513809204102 19.738115310668945 L11.582513809204102 19.738115310668945 C11.582513809204102 18.282791137695312 11.582513809204102 16.827465057373047 11.582513809204102 15.372140884399414 C11.582513809204102 13.916815757751465 11.582513809204102 12.461490631103516 11.582513809204102 11.006166458129883 L11.582513809204102 11.006166458129883 C10.691198348999023 11.006166458129883 9.799881935119629 11.006166458129883 8.90856647491455 11.006166458129883 L8.90856647491455 11.006166458129883 C8.75457763671875 11.514945030212402 8.600587844848633 12.023723602294922 8.446599006652832 12.532502174377441 L8.446599006652832 12.532502174377441 C8.141864776611328 11.598989486694336 7.944347381591797 10.614785194396973 7.925535202026367 9.632972717285156 L7.925535202026367 9.632972717285156"></path></svg>