<svg xmlns="http://www.w3.org/2000/svg" viewBox="0.0 0.0 24.0 24.0" height="200px" width="200px"><path fill="none" stroke="black" stroke-width=".3" stroke-opacity="1.0"  filling="0" d="M15.465289115905762 2.9143285751342773 C15.718704223632812 3.0777359008789062 15.97211742401123 3.2416772842407227 16.22553253173828 3.4050846099853516 C15.359746932983398 5.616161823272705 13.596563339233398 7.3091607093811035 12.283952713012695 9.255574226379395 C10.906516075134277 11.298423767089844 9.441751480102539 13.282339096069336 7.786254405975342 15.61449909210205 C9.850534439086914 15.61449909210205 11.48192024230957 15.61449909210205 13.149203300476074 15.61449909210205 C14.567358016967773 13.847029685974121 12.069112777709961 10.755163192749023 15.453503608703613 8.953941345214844 C15.453503608703613 11.45593547821045 15.453503608703613 13.44788932800293 15.453503608703613 15.514846801757812 C16.400190353393555 15.721115112304688 17.058101654052734 15.864163398742676 17.716014862060547 16.00774574279785 C17.756196975708008 16.156686782836914 17.795841217041016 16.305627822875977 17.83602523803711 16.45456886291504 C17.19900894165039 16.68387222290039 16.56199073791504 16.913179397583008 15.873539924621582 17.16069984436035 C15.09508228302002 18.147567749023438 15.639411926269531 20.687602996826172 17.047924041748047 22.114328384399414 C15.2129487991333 22.114328384399414 13.4594087600708 22.114328384399414 11.314229011535645 22.114328384399414 C12.179479598999023 21.600000381469727 12.744169235229492 21.26461410522461 13.406367301940918 20.871368408203125 C13.406367301940918 19.50625228881836 13.406367301940918 18.368837356567383 13.406367301940918 16.940502166748047 C10.938125610351562 16.940502166748047 8.576498985290527 16.940502166748047 6.21487283706665 16.940502166748047 C6.088969707489014 16.751379013061523 5.963066101074219 16.56171989440918 5.837162494659424 16.37259864807129 C9.04636001586914 11.886686325073242 12.255556106567383 7.400240421295166 15.465289115905762 2.9143285751342773"></path></svg>