<svg xmlns="http://www.w3.org/2000/svg" viewBox="0.0 0.0 24.0 24.0" height="200px" width="200px"><path fill="none" stroke="black" stroke-width=".3" stroke-opacity="1.0"  filling="0" d="M2.855945587158203 9.371337890625 C4.378907680511475 9.371337890625 5.9014763832092285 9.371337890625 7.4244384765625 9.371337890625 C7.457033634185791 9.452630996704102 7.4900221824646 9.534316062927246 7.522617816925049 9.615609169006348 C7.1452155113220215 9.839851379394531 6.767813205718994 10.064092636108398 6.256886005401611 10.368057250976562 C7.225329399108887 13.230189323425293 8.203591346740723 16.121381759643555 9.181852340698242 19.0125732421875 C9.315377235412598 19.0271053314209 9.449295043945312 19.042423248291016 9.583211898803711 19.05734634399414 C10.31641674041748 16.917423248291016 11.111671447753906 14.795564651489258 11.758478164672852 12.62972354888916 C12.117815971374512 11.426434516906738 11.392071723937988 10.346458435058594 9.56789493560791 9.409040451049805 C11.594321250915527 9.048917770385742 13.211535453796387 9.220535278320312 14.950492858886719 9.577909469604492 C14.465486526489258 9.824143409729004 13.980085372924805 10.070378303527832 13.37647819519043 10.377090454101562 C14.330391883850098 13.256109237670898 15.289802551269531 16.152408599853516 16.24921226501465 19.048702239990234 C16.35524559020996 19.06912612915039 16.461673736572266 19.089153289794922 16.567707061767578 19.109575271606445 C17.527904510498047 16.247051239013672 18.488100051879883 13.384134292602539 19.498958587646484 10.371198654174805 C18.907917022705078 10.136746406555176 18.422908782958984 9.944314002990723 17.588775634765625 9.613252639770508 C19.25979232788086 8.941703796386719 20.596214294433594 9.202468872070312 22.055553436279297 9.432994842529297 C19.886178970336914 10.24670696258545 20.005565643310547 12.333219528198242 19.385854721069336 13.953575134277344 C18.478675842285156 16.327165603637695 17.772174835205078 18.77655029296875 16.939611434936523 21.17959213256836 C16.75699806213379 21.707012176513672 16.402767181396484 22.174739837646484 16.127470016479492 22.670352935791016 C15.938966751098633 22.648361206054688 15.750068664550781 22.62676239013672 15.561563491821289 22.60477066040039 C14.58251667022705 19.826679229736328 13.603861808776855 17.0485897064209 12.482258796691895 13.865999221801758 C11.37007999420166 17.019527435302734 10.395353317260742 19.783872604370117 9.45832633972168 22.441791534423828 C8.125833511352539 22.691165924072266 8.174922943115234 21.72429656982422 7.961284160614014 21.134431838989258 C6.89544677734375 18.190616607666016 5.882626056671143 15.227946281433105 4.852525234222412 12.271170616149902 C4.466091156005859 11.161741256713867 4.2995781898498535 9.892476081848145 2.855945587158203 9.371337890625"></path></svg>