<svg xmlns="http://www.w3.org/2000/svg" viewBox="0.0 0.0 24.0 24.0" height="200px" width="200px"><path fill="none" stroke="black" stroke-width=".3" stroke-opacity="1.0"  filling="0" d="M16.096858978271484 15.285248756408691 L16.096858978271484 15.285248756408691 C16.096858978271484 15.927763938903809 16.096858978271484 16.570280075073242 16.096858978271484 17.21279525756836 L16.096858978271484 17.21279525756836 C15.652341842651367 17.331382751464844 13.586694717407227 17.726869583129883 13.162736892700195 18.33272933959961 C12.286783218383789 19.584518432617188 12.514952659606934 22.277589797973633 14.290431022644043 22.71562957763672 C14.932526588439941 22.87404441833496 15.599763870239258 22.528072357177734 16.254430770874023 22.434293746948242 L16.254430770874023 22.434293746948242 C16.254430770874023 23.23469352722168 16.254430770874023 24.03509521484375 16.254430770874023 24.835494995117188 L16.254430770874023 24.835494995117188 C14.629107475280762 25.376630783081055 13.063982963562012 25.9869441986084 11.429567337036133 25.034061431884766 C9.676606178283691 24.012065887451172 8.858759880065918 21.693185806274414 9.023049354553223 19.515125274658203 C9.187338829040527 17.337066650390625 10.333763122558594 15.299825668334961 12.509343147277832 14.841108322143555 C13.910097122192383 14.545762062072754 14.730315208435059 14.940851211547852 16.096858978271484 15.285248756408691 L16.096858978271484 15.285248756408691"></path></svg>