<svg xmlns="http://www.w3.org/2000/svg" viewBox="0.0 0.0 24.0 24.0" height="200px" width="200px"><path fill="none" stroke="black" stroke-width=".3" stroke-opacity="1.0"  filling="0" d="M12.147073745727539 5.530505180358887 C12.477411270141602 5.930144786834717 13.048378944396973 6.3186187744140625 13.068399429321289 6.733273029327393 C13.08687973022461 7.118666648864746 12.518220901489258 7.532551288604736 11.949178695678711 8.269843101501465 C11.497564315795898 7.453624725341797 11.003982543945312 6.964278697967529 11.07443904876709 6.578114986419678 C11.147590637207031 6.17693567276001 11.766684532165527 5.875473976135254 12.147073745727539 5.530505180358887"></path>
<path fill="none" stroke="black" stroke-width=".3" stroke-opacity="1.0"  filling="0" d="M9.99179458618164 10.682307243347168 C10.999747276306152 10.682307243347168 12.007699966430664 10.682307243347168 13.294784545898438 10.682307243347168 C13.294784545898438 11.604403495788574 13.299405097961426 12.60581111907959 13.294014930725098 13.607603073120117 C13.281309127807617 15.970785140991211 13.282849311828613 18.3343563079834 13.242423057556152 20.697153091430664 C13.213162422180176 22.394657135009766 12.578668594360352 23.79840087890625 11.08868408203125 24.730506896972656 C10.703676223754883 24.730506896972656 10.318666458129883 24.730506896972656 9.9336576461792 24.730506896972656 C11.256933212280273 23.3521728515625 11.538759231567383 21.678539276123047 11.48447322845459 19.83242416381836 C11.404006004333496 17.091548919677734 11.463682174682617 14.346820831298828 11.463682174682617 11.517776489257812 C10.928135871887207 11.342597007751465 10.445719718933105 11.185129165649414 9.962919235229492 11.027275085449219 C9.972543716430664 10.91215705871582 9.982169151306152 10.797425270080566 9.99179458618164 10.682307243347168"></path></svg>