<svg xmlns="http://www.w3.org/2000/svg" viewBox="0.0 0.0 24.0 24.0" height="200px" width="200px"><path fill="none" stroke="black" stroke-width=".3" stroke-opacity="1.0"  filling="0" d="M12.370500564575195 12.684019088745117 L12.370500564575195 12.684019088745117 C14.127734184265137 12.947236061096191 15.564501762390137 13.24243450164795 16.651840209960938 14.81348705291748 C17.876806259155273 16.583391189575195 17.91204833984375 18.74877166748047 17.09113311767578 20.472801208496094 C16.27021598815918 22.19683074951172 14.5931396484375 23.479511260986328 12.393467903137207 23.484018325805664 C10.189949035644531 23.48853302001953 8.512483596801758 22.21240234375 7.689239978790283 20.49091148376465 C6.865996837615967 18.769418716430664 6.896975994110107 16.602563858032227 8.110346794128418 14.825624465942383 C9.187649726867676 13.24795150756836 10.61430549621582 12.947883605957031 12.370500564575195 12.684019088745117 L12.370500564575195 12.684019088745117"></path>
<path fill="none" stroke="black" stroke-width=".3" stroke-opacity="1.0"  filling="0" d="M10.420928955078125 14.525691032409668 L10.420928955078125 14.525691032409668 C10.865814208984375 14.210721015930176 11.2378511428833 13.751315116882324 11.755583763122559 13.580780982971191 C14.375609397888184 12.717778205871582 15.11362361907959 16.364627838134766 15.6443452835083 18.018367767333984 L15.6443452835083 18.018367767333984 C15.462506294250488 18.641826629638672 14.90341567993164 20.767091751098633 14.502074241638184 21.358943939208984 C12.864771842956543 23.773448944091797 10.30799674987793 22.349721908569336 9.626667022705078 20.0208683013916 C9.028975486755371 17.9778995513916 9.523012161254883 16.335329055786133 10.420928955078125 14.525691032409668 L10.420928955078125 14.525691032409668"></path></svg>