<svg xmlns="http://www.w3.org/2000/svg" viewBox="0.0 0.0 24.0 24.0" height="200px" width="200px"><path fill="none" stroke="black" stroke-width=".3" stroke-opacity="1.0"  filling="0" d="M12.322038650512695 14.888467788696289 L12.322038650512695 14.888467788696289 C13.935352325439453 15.270214080810547 14.555704116821289 15.12647819519043 15.651078224182129 16.54645347595215 C16.782411575317383 18.013046264648438 17.094694137573242 20.186065673828125 16.59993553161621 22.04511833190918 C16.10517692565918 23.904170989990234 14.80337905883789 25.449256896972656 12.706554412841797 25.659984588623047 C10.391489028930664 25.892642974853516 8.843138694763184 24.392545700073242 8.172773361206055 22.44076919555664 C7.502408027648926 20.488990783691406 7.710028171539307 18.085533142089844 8.906904220581055 16.511470794677734 C9.965580940246582 15.119160652160645 10.764018058776855 15.232857704162598 12.322038650512695 14.888467788696289 L12.322038650512695 14.888467788696289"></path>
<path fill="none" stroke="black" stroke-width=".3" stroke-opacity="1.0"  filling="0" d="M12.056506156921387 17.529090881347656 L12.056506156921387 17.529090881347656 C11.162257194519043 19.68678092956543 10.531864166259766 21.358745574951172 12.646373748779297 22.857654571533203 L12.646373748779297 22.857654571533203 C13.511370658874512 20.33072280883789 13.679076194763184 19.65261459350586 12.056506156921387 17.529090881347656 L12.056506156921387 17.529090881347656"></path></svg>