<svg xmlns="http://www.w3.org/2000/svg" viewBox="0.0 0.0 24.0 24.0" height="200px" width="200px"><path fill="none" stroke="black" stroke-width=".3" stroke-opacity="1.0"  filling="0" d="M9.33305549621582 15.216836929321289 L9.33305549621582 15.216836929321289 C10.3121976852417 15.216836929321289 11.291340827941895 15.216836929321289 12.270483016967773 15.216836929321289 L12.270483016967773 15.216836929321289 C12.356244087219238 15.879889488220215 12.441977500915527 16.542945861816406 12.527694702148438 17.206005096435547 L12.527694702148438 17.206005096435547 C13.890307426452637 15.375212669372559 13.997013092041016 14.893611907958984 16.30093765258789 15.545951843261719 L16.30093765258789 15.545951843261719 C16.206035614013672 16.348312377929688 16.111129760742188 17.150672912597656 16.016220092773438 17.953031539916992 L16.016220092773438 17.953031539916992 C15.377959251403809 18.138452529907227 14.684466361999512 18.19017791748047 14.101438522338867 18.509296417236328 C13.134564399719238 19.038511276245117 12.77044677734375 20.382373809814453 12.63453483581543 21.83402442932129 C12.49862289428711 23.285675048828125 12.590916633605957 24.845111846923828 12.536863327026367 25.80547332763672 L12.536863327026367 25.80547332763672 C11.468766212463379 25.80547332763672 10.40066909790039 25.80547332763672 9.332572937011719 25.80547332763672 L9.332572937011719 25.80547332763672 C9.332778930664062 24.040699005126953 9.332898139953613 22.27592658996582 9.332966804504395 20.511154174804688 C9.333035469055176 18.746381759643555 9.333053588867188 16.981609344482422 9.33305549621582 15.216836929321289 L9.33305549621582 15.216836929321289"></path></svg>