<svg xmlns="http://www.w3.org/2000/svg" viewBox="0.0 0.0 24.0 24.0" height="200px" width="200px"><path fill="none" stroke="black" stroke-width=".3" stroke-opacity="1.0"  filling="0" d="M13.421966552734375 13.675692558288574 L13.421966552734375 13.675692558288574 C14.685202598571777 13.675692558288574 15.948437690734863 13.675692558288574 17.211673736572266 13.675692558288574 L17.211673736572266 13.675692558288574 C15.928776741027832 15.010324478149414 14.64582347869873 16.34489631652832 13.362778663635254 17.679386138916016 L13.362778663635254 17.679386138916016 C14.768814086914062 19.778432846069336 15.71837043762207 21.363250732421875 17.95628547668457 22.637130737304688 L17.95628547668457 22.637130737304688 C16.10404396057129 23.0415096282959 14.774572372436523 22.94432258605957 12.906242370605469 22.691768646240234 L12.906242370605469 22.691768646240234 C13.25419807434082 22.40713882446289 13.602153778076172 22.12251091003418 13.950109481811523 21.837881088256836 L13.950109481811523 21.837881088256836 C13.741628646850586 21.546525955200195 12.399584770202637 19.67087173461914 12.219989776611328 19.41985321044922 L12.219989776611328 19.41985321044922 C11.57258129119873 20.235885620117188 10.92523193359375 21.05196189880371 10.27795124053955 21.86809539794922 L10.27795124053955 21.86809539794922 C10.66467571258545 22.09615707397461 11.051400184631348 22.324216842651367 11.438124656677246 22.552278518676758 L11.438124656677246 22.552278518676758 C9.906278610229492 23.344863891601562 8.766561508178711 22.923852920532227 7.155458927154541 22.476123809814453 L7.155458927154541 22.476123809814453 C9.356767654418945 21.688875198364258 10.139359474182129 20.35752296447754 11.613205909729004 18.63591957092285 L11.613205909729004 18.63591957092285 C10.320165634155273 16.758188247680664 9.359151840209961 15.090594291687012 7.502310752868652 13.718324661254883 L7.502310752868652 13.718324661254883 C8.99898910522461 13.718324661254883 10.495662689208984 13.718324661254883 11.992341995239258 13.718324661254883 L11.992341995239258 13.718324661254883 C11.750484466552734 14.073868751525879 11.508625984191895 14.429411888122559 11.266768455505371 14.784955978393555 L11.266768455505371 14.784955978393555 C11.780267715454102 15.532065391540527 12.29378890991211 16.279159545898438 12.807319641113281 17.026247024536133 L12.807319641113281 17.026247024536133 C12.8681001663208 16.950977325439453 14.532386779785156 14.890103340148926 14.636362075805664 14.76136302947998 L14.636362075805664 14.76136302947998 C14.231563568115234 14.399473190307617 13.826765060424805 14.037582397460938 13.421966552734375 13.675692558288574 L13.421966552734375 13.675692558288574"></path></svg>