<svg xmlns="http://www.w3.org/2000/svg" viewBox="0.0 0.0 24.0 24.0" height="200px" width="200px"><path fill="none" stroke="black" stroke-width=".3" stroke-opacity="1.0"  filling="0" d="M9.03791618347168 12.201165199279785 L9.03791618347168 12.201165199279785 C9.770277976989746 12.201165199279785 10.502640724182129 12.201165199279785 11.235002517700195 12.201165199279785 L11.235002517700195 12.201165199279785 C11.553764343261719 13.23176097869873 11.872527122497559 14.262356758117676 12.191290855407715 15.292952537536621 L12.191290855407715 15.292952537536621 C12.523355484008789 14.267273902893066 12.855398178100586 13.241588592529297 13.187411308288574 12.215892791748047 L13.187411308288574 12.215892791748047 C13.967191696166992 12.215892791748047 14.74697208404541 12.215892791748047 15.526752471923828 12.215892791748047 L15.526752471923828 12.215892791748047 C14.891277313232422 14.013452529907227 14.255796432495117 15.811012268066406 13.62028694152832 17.60856056213379 C12.984777450561523 19.406110763549805 12.349239349365234 21.20364761352539 11.713648796081543 23.00116729736328 L11.713648796081543 23.00116729736328 C10.93264102935791 23.00116729736328 10.151633262634277 23.00116729736328 9.370625495910645 23.00116729736328 L9.370625495910645 23.00116729736328 C10.443697929382324 20.60248374938965 11.034412384033203 18.41687774658203 10.178177833557129 15.817899703979492 C9.843913078308105 14.803287506103516 8.728569984436035 13.354991912841797 9.03791618347168 12.201165199279785 L9.03791618347168 12.201165199279785"></path></svg>