<svg xmlns="http://www.w3.org/2000/svg" viewBox="0.0 0.0 24.0 24.0" height="200px" width="200px"><path fill="none" stroke="black" stroke-width=".3" stroke-opacity="1.0"  filling="0" d="M16.900720596313477 10.74183177947998 C19.027677536010742 12.734869003295898 18.839740753173828 15.593881607055664 16.395992279052734 18.43094825744629 C19.23418426513672 21.513347625732422 19.520029067993164 24.83769989013672 17.13592529296875 27.03386688232422 C14.969017028808594 29.02971839904785 10.403376579284668 29.001020431518555 8.347881317138672 26.978160858154297 C6.112326145172119 24.779178619384766 6.441498279571533 21.43569564819336 9.275752067565918 18.455142974853516 C6.880394458770752 15.632707595825195 6.693019390106201 12.77988338470459 8.677616119384766 10.84142780303955 C10.720731735229492 8.84614086151123 14.824969291687012 8.796624183654785 16.900720596313477 10.74183177947998"></path>
<path fill="none" stroke="black" stroke-width=".3" stroke-opacity="1.0"  filling="0" d="M12.717706680297852 12.451274871826172 C11.16019058227539 14.734095573425293 11.2665376663208 15.754246711730957 13.051942825317383 16.96458625793457 C14.393388748168945 14.96367073059082 14.364690780639648 14.250747680664062 12.717706680297852 12.451274871826172"></path>
<path fill="none" stroke="black" stroke-width=".3" stroke-opacity="1.0"  filling="0" d="M12.713205337524414 20.315948486328125 C14.059715270996094 21.614627838134766 14.52055549621582 23.44617462158203 13.772181510925293 24.46463966369629 C13.545419692993164 24.7735538482666 12.99679946899414 25.061649322509766 12.651872634887695 25.006507873535156 C12.301881790161133 24.950237274169922 11.828661918640137 24.50290298461914 11.745946884155273 24.148408889770508 C11.433655738830566 22.813152313232422 11.173694610595703 21.426128387451172 12.713205337524414 20.315948486328125"></path></svg>