<svg xmlns="http://www.w3.org/2000/svg" viewBox="0.0 0.0 24.0 24.0" height="200px" width="200px"><path fill="none" stroke="black" stroke-width=".3" stroke-opacity="1.0"  filling="0" d="M10.68254280090332 7.834232807159424 C12.092443466186523 7.45504903793335 13.837244033813477 7.497118949890137 15.211163520812988 7.975942611694336 C18.33320426940918 9.063674926757812 18.848011016845703 12.20176887512207 16.494300842285156 14.586477279663086 C15.987798690795898 15.099068641662598 15.397157669067383 15.52862548828125 14.707430839538574 16.113178253173828 C16.59394073486328 17.662572860717773 18.83195686340332 19.039260864257812 18.446130752563477 21.827510833740234 C18.282278060913086 23.013221740722656 17.751422882080078 24.36112403869629 16.939910888671875 25.204185485839844 C14.745626449584961 27.483165740966797 9.865499496459961 27.209156036376953 7.9114556312561035 24.90692901611328 C5.926412105560303 22.567611694335938 6.714672088623047 20.0013370513916 10.30114459991455 17.0924129486084 C9.573775291442871 16.28533363342285 8.705803871154785 15.564053535461426 8.143393516540527 14.654010772705078 C6.4290385246276855 11.879602432250977 7.543341159820557 8.678401947021484 10.68254280090332 7.834232807159424"></path>
<path fill="none" stroke="black" stroke-width=".3" stroke-opacity="1.0"  filling="0" d="M12.099085807800293 8.516765594482422 C13.528914451599121 8.350698471069336 14.58011245727539 8.92418098449707 15.102113723754883 10.320241928100586 C15.753644943237305 12.062275886535645 15.123701095581055 13.611671447753906 13.142534255981445 15.152209281921387 C10.488245010375977 13.952105522155762 9.481332778930664 12.679486274719238 9.79464340209961 10.851099967956543 C10.016618728637695 9.554677963256836 10.74454116821289 8.673974990844727 12.099085807800293 8.516765594482422"></path>
<path fill="none" stroke="black" stroke-width=".3" stroke-opacity="1.0"  filling="0" d="M12.162744522094727 17.888423919677734 C13.144747734069824 18.63405990600586 14.23414134979248 19.316593170166016 15.143075942993164 20.18622589111328 C16.35480308532715 21.346473693847656 16.475479125976562 22.77353286743164 15.534991264343262 24.176239013671875 C14.674215316772461 25.45992660522461 13.392740249633789 25.896682739257812 11.926931381225586 25.478748321533203 C10.337678909301758 25.025386810302734 9.52174186706543 23.87289047241211 9.480778694152832 22.22330093383789 C9.432619094848633 20.290292739868164 10.407426834106445 18.9495849609375 12.162744522094727 17.888423919677734"></path></svg>