<svg xmlns="http://www.w3.org/2000/svg" viewBox="0.0 0.0 24.0 24.0" height="200px" width="200px"><path fill="none" stroke="black" stroke-width=".3" stroke-opacity="1.0"  filling="0" d="M13.153708457946777 9.32807445526123 L13.153708457946777 9.32807445526123 C13.967897415161133 11.540389060974121 14.52471923828125 13.81401252746582 15.156628608703613 16.08368682861328 C15.43862247467041 17.096546173095703 15.289947509765625 18.347213745117188 15.999395370483398 19.12315559387207 C16.354001998901367 19.51099967956543 16.95981216430664 19.550094604492188 17.440019607543945 19.763565063476562 L17.440019607543945 19.763565063476562 C17.31810188293457 19.884965896606445 17.196186065673828 20.006364822387695 17.074268341064453 20.127765655517578 L17.074268341064453 20.127765655517578 C15.767415046691895 20.127765655517578 14.460561752319336 20.127765655517578 13.153708457946777 20.127765655517578 L13.153708457946777 20.127765655517578 C13.590911865234375 19.872039794921875 14.028115272521973 19.616315841674805 14.46531867980957 19.3605899810791 L14.46531867980957 19.3605899810791 C14.191823959350586 18.330890655517578 14.014503479003906 17.662891387939453 13.738472938537598 16.622589111328125 L13.738472938537598 16.622589111328125 C11.002005577087402 16.574541091918945 10.20935344696045 16.872278213500977 9.190027236938477 19.438766479492188 L9.190027236938477 19.438766479492188 C9.533233642578125 19.576709747314453 9.87644100189209 19.71465492248535 10.219647407531738 19.852598190307617 L10.219647407531738 19.852598190307617 C10.206514358520508 19.936668395996094 10.193382263183594 20.020736694335938 10.180249214172363 20.104806900024414 L10.180249214172363 20.104806900024414 C10.180083274841309 20.104806900024414 7.3414387702941895 20.104806900024414 7.341426372528076 20.104806900024414 L7.341426372528076 20.104806900024414 C8.817614555358887 18.730379104614258 9.685966491699219 16.858577728271484 10.477630615234375 14.919191360473633 C11.269295692443848 12.979805946350098 11.984272003173828 10.972837448120117 13.153708457946777 9.32807445526123 L13.153708457946777 9.32807445526123"></path>
<path fill="none" stroke="black" stroke-width=".3" stroke-opacity="1.0"  filling="0" d="M12.456954002380371 11.821623802185059 L12.456954002380371 11.821623802185059 C12.819272994995117 13.147305488586426 13.181595802307129 14.472978591918945 13.543965339660645 15.79864501953125 L13.543965339660645 15.79864501953125 C13.497869491577148 15.79864501953125 10.784786224365234 15.79864501953125 10.754157066345215 15.79864501953125 L10.754157066345215 15.79864501953125 C11.321626663208008 14.472914695739746 11.889226913452148 13.14724349975586 12.456954002380371 11.821623802185059 L12.456954002380371 11.821623802185059"></path></svg>