<svg xmlns="http://www.w3.org/2000/svg" viewBox="0.0 0.0 24.0 24.0" height="200px" width="200px"><path fill="none" stroke="black" stroke-width=".3" stroke-opacity="1.0"  filling="0" d="M7.534374713897705 9.373659133911133 C9.845718383789062 9.373659133911133 11.88023567199707 9.202319145202637 13.873376846313477 9.417367935180664 C16.316431045532227 9.681371688842773 17.916187286376953 11.275883674621582 18.656911849975586 13.559252738952637 C19.80792236328125 17.106109619140625 19.621429443359375 20.647722244262695 18.05255889892578 24.044803619384766 C16.912038803100586 26.514080047607422 14.855375289916992 28.045068740844727 12.221750259399414 28.363855361938477 C9.856208801269531 28.65058708190918 7.429472923278809 28.424463272094727 4.8302321434021 28.424463272094727 C5.740549564361572 22.009700775146484 6.6327996253967285 15.724899291992188 7.534374713897705 9.373659133911133"></path>
<path fill="none" stroke="black" stroke-width=".3" stroke-opacity="1.0"  filling="0" d="M11.774751663208008 13.273687362670898 C14.078518867492676 14.053461074829102 14.774370193481445 15.85136604309082 14.314549446105957 19.432607650756836 C13.856475830078125 23.00102996826172 12.979960441589355 24.116485595703125 10.194226264953613 24.369998931884766 C10.724565505981445 20.64422607421875 11.24732780456543 16.976730346679688 11.774751663208008 13.273687362670898"></path></svg>