<svg xmlns="http://www.w3.org/2000/svg" viewBox="0.0 0.0 24.0 24.0" height="200px" width="200px"><path fill="none" stroke="black" stroke-width=".3" stroke-opacity="1.0"  filling="0" d="M10.15576457977295 10.56080150604248 L10.15576457977295 10.56080150604248 C11.933316230773926 10.56080150604248 13.710868835449219 10.56080150604248 15.488421440124512 10.56080150604248 L15.488421440124512 10.56080150604248 C15.438258171081543 11.191627502441406 15.38809585571289 11.822452545166016 15.337932586669922 12.453278541564941 L15.337932586669922 12.453278541564941 C14.434118270874023 12.493782997131348 13.530303955078125 12.534286499023438 12.626489639282227 12.574790000915527 L12.626489639282227 12.574790000915527 C12.502121925354004 13.268950462341309 12.37775707244873 13.96311092376709 12.25339412689209 14.657272338867188 L12.25339412689209 14.657272338867188 C12.3976469039917 14.668907165527344 14.4762544631958 14.836627960205078 14.64080810546875 14.8499116897583 L14.64080810546875 14.8499116897583 C14.582741737365723 15.476017951965332 14.524675369262695 16.102123260498047 14.466609001159668 16.728229522705078 L14.466609001159668 16.728229522705078 C13.639739990234375 16.780677795410156 12.812871932983398 16.833147048950195 11.986004829406738 16.885635375976562 L11.986004829406738 16.885635375976562 C11.874836921691895 17.680126190185547 11.763639450073242 18.474613189697266 11.652424812316895 19.26909637451172 L11.652424812316895 19.26909637451172 C11.874065399169922 19.282323837280273 14.29765510559082 19.426977157592773 14.482744216918945 19.438026428222656 L14.482744216918945 19.438026428222656 C14.368368148803711 20.078950881958008 14.253992080688477 20.719877243041992 14.139616012573242 21.360801696777344 L14.139616012573242 21.360801696777344 C12.307290077209473 21.360801696777344 10.474964141845703 21.360801696777344 8.642638206481934 21.360801696777344 L8.642638206481934 21.360801696777344 C8.894853591918945 19.560806274414062 9.147041320800781 17.760805130004883 9.399223327636719 15.96080493927002 C9.65140438079834 14.16080379486084 9.903578758239746 12.360801696777344 10.15576457977295 10.56080150604248 L10.15576457977295 10.56080150604248"></path></svg>