<svg xmlns="http://www.w3.org/2000/svg" viewBox="0.0 0.0 24.0 24.0" height="200px" width="200px"><path fill="none" stroke="black" stroke-width=".3" stroke-opacity="1.0"  filling="0" d="M8.721358299255371 9.441424369812012 C11.860377311706543 9.441424369812012 14.833136558532715 9.441424369812012 18.20163917541504 9.441424369812012 C18.11675453186035 10.50747299194336 18.031282424926758 11.582887649536133 17.93410301208496 12.805829048156738 C16.259801864624023 12.880763053894043 14.827281951904297 12.945159912109375 13.113759994506836 13.021848678588867 C12.902422904968262 14.201468467712402 12.692842483520508 15.371136665344238 12.450479507446289 16.724040985107422 C14.002426147460938 16.849321365356445 15.232391357421875 16.94825553894043 16.69476890563965 17.066509246826172 C16.592321395874023 18.173538208007812 16.49806785583496 19.190998077392578 16.385082244873047 20.405742645263672 C14.97890567779541 20.494728088378906 13.646491050720215 20.579612731933594 11.975118637084961 20.68557357788086 C11.799492835998535 21.941295623779297 11.618597984313965 23.233318328857422 11.382089614868164 24.922840118408203 C13.071023941040039 25.02353286743164 14.559160232543945 25.11251449584961 16.413768768310547 25.223159790039062 C16.194822311401367 26.45078468322754 16.00397491455078 27.518001556396484 15.803762435913086 28.64142417907715 C12.53536605834961 28.64142417907715 9.444352149963379 28.64142417907715 6.031356334686279 28.64142417907715 C6.9329023361206055 22.207664489746094 7.813958644866943 15.917920112609863 8.721358299255371 9.441424369812012"></path></svg>