<svg xmlns="http://www.w3.org/2000/svg" viewBox="0.0 0.0 24.0 24.0" height="200px" width="200px"><path fill="none" stroke="black" stroke-width=".3" stroke-opacity="1.0"  filling="0" d="M11.913105010986328 7.7133469581604 C13.370401382446289 7.391225337982178 14.984330177307129 7.687887668609619 16.515790939331055 7.822381019592285 C17.592296600341797 7.917025089263916 18.651092529296875 8.218667984008789 19.99049949645996 8.481568336486816 C19.919654846191406 9.699210166931152 19.83220672607422 11.191374778747559 19.745309829711914 12.682987213134766 C19.5654296875 12.721177101135254 19.38555335998535 12.759366989135742 19.205120086669922 12.79810905456543 C18.89960289001465 12.313820838928223 18.57028579711914 11.84226131439209 18.29299545288086 11.342473983764648 C16.774263381958008 8.604439735412598 13.951547622680664 7.871088027954102 11.287679672241211 9.534276008605957 C7.229056358337402 12.068632125854492 6.19074010848999 20.402284622192383 9.4971923828125 23.900238037109375 C11.21130084991455 25.71341896057129 13.364866256713867 26.002883911132812 16.620952606201172 24.689491271972656 C16.747142791748047 22.880184173583984 16.867801666259766 21.15058135986328 17.002294540405273 19.220617294311523 C16.143856048583984 19.06509017944336 15.392794609069824 18.928936004638672 14.656120300292969 18.795551300048828 C14.741353988647461 17.714616775512695 17.977514266967773 17.531970977783203 21.189876556396484 18.277498245239258 C18.415313720703125 19.99603271484375 19.968914031982422 23.000843048095703 18.97100257873535 25.607704162597656 C17.889514923095703 25.91598892211914 16.613203048706055 26.43071937561035 15.29040241241455 26.629417419433594 C10.036275863647461 27.41811752319336 5.748516082763672 24.779155731201172 4.8712592124938965 20.320924758911133 C3.710625648498535 14.420340538024902 6.7292704582214355 8.858484268188477 11.913105010986328 7.7133469581604"></path></svg>