<svg xmlns="http://www.w3.org/2000/svg" viewBox="0.0 0.0 24.0 24.0" height="200px" width="200px"><path fill="none" stroke="black" stroke-width=".3" stroke-opacity="1.0"  filling="0" d="M11.329965591430664 10.02666187286377 L11.329965591430664 10.02666187286377 C11.354683876037598 10.139554023742676 11.379401206970215 10.252447128295898 11.404119491577148 10.365339279174805 L11.404119491577148 10.365339279174805 C10.984225273132324 10.52507209777832 10.5643310546875 10.68480396270752 10.144436836242676 10.844536781311035 L10.144436836242676 10.844536781311035 C10.144436836242676 12.088434219360352 10.144436836242676 13.332330703735352 10.144436836242676 14.576228141784668 L10.144436836242676 14.576228141784668 C11.65992259979248 14.576228141784668 13.175400733947754 14.576228141784668 14.690886497497559 14.576228141784668 L14.690886497497559 14.576228141784668 C14.789983749389648 13.333889961242676 14.889062881469727 12.091550827026367 14.988125801086426 10.849209785461426 L14.988125801086426 10.849209785461426 C14.584744453430176 10.702771186828613 14.181363105773926 10.556333541870117 13.777981758117676 10.409894943237305 L13.777981758117676 10.409894943237305 C13.79117202758789 10.321512222290039 13.804362297058105 10.233129501342773 13.81755256652832 10.144746780395508 L13.81755256652832 10.144746780395508 C15.100604057312012 10.144746780395508 16.383655548095703 10.144746780395508 17.666706085205078 10.144746780395508 L17.666706085205078 10.144746780395508 C17.69713592529297 10.204672813415527 17.72756576538086 10.26459789276123 17.75799560546875 10.32452392578125 L17.75799560546875 10.32452392578125 C17.326364517211914 10.507935523986816 16.89473533630371 10.691347122192383 16.463104248046875 10.87475872039795 L16.463104248046875 10.87475872039795 C16.383529663085938 12.303728103637695 16.30399513244629 13.732699394226074 16.224454879760742 15.161670684814453 C16.144916534423828 16.59064292907715 16.065372467041016 18.01961326599121 15.9857759475708 19.44858169555664 L15.9857759475708 19.44858169555664 C16.381576538085938 19.582557678222656 16.777376174926758 19.716533660888672 17.173175811767578 19.850509643554688 L17.173175811767578 19.850509643554688 C15.651267051696777 20.26027488708496 14.764989852905273 20.250778198242188 13.23678207397461 19.86951446533203 L13.23678207397461 19.86951446533203 C13.637566566467285 19.73927879333496 14.038352012634277 19.609041213989258 14.439136505126953 19.478805541992188 L14.439136505126953 19.478805541992188 C14.52932071685791 18.148597717285156 14.619576454162598 16.818395614624023 14.709892272949219 15.488197326660156 L14.709892272949219 15.488197326660156 C13.128978729248047 15.488197326660156 11.548067092895508 15.488197326660156 9.967151641845703 15.488197326660156 L9.967151641845703 15.488197326660156 C9.8694486618042 16.815279006958008 9.77182388305664 18.142364501953125 9.674274444580078 19.469457626342773 L9.674274444580078 19.469457626342773 C10.090534210205078 19.59284019470215 10.506793022155762 19.71622085571289 10.923052787780762 19.839603424072266 L10.923052787780762 19.839603424072266 C10.90498161315918 19.942628860473633 10.886911392211914 20.045656204223633 10.868840217590332 20.148681640625 L10.868840217590332 20.148681640625 C9.582569122314453 20.148681640625 8.29629898071289 20.148681640625 7.010027885437012 20.148681640625 L7.010027885437012 20.148681640625 C6.9926838874816895 20.05811882019043 6.975339412689209 19.96755599975586 6.957995414733887 19.87699317932129 L6.957995414733887 19.87699317932129 C7.360545635223389 19.748729705810547 7.763096332550049 19.620466232299805 8.16564655303955 19.492202758789062 L8.16564655303955 19.492202758789062 C8.251276016235352 18.05170440673828 8.336899757385254 16.611204147338867 8.422527313232422 15.17070484161377 C8.508153915405273 13.730206489562988 8.593785285949707 12.28970718383789 8.679428100585938 10.849209785461426 L8.679428100585938 10.849209785461426 C8.290482521057129 10.705056190490723 7.901537895202637 10.56090259552002 7.512592792510986 10.416749000549316 L7.512592792510986 10.416749000549316 C8.76347541809082 10.149638175964355 10.050955772399902 10.012887001037598 11.329965591430664 10.02666187286377 L11.329965591430664 10.02666187286377"></path></svg>