<svg xmlns="http://www.w3.org/2000/svg" viewBox="0.0 0.0 24.0 24.0" height="200px" width="200px"><path fill="none" stroke="black" stroke-width=".3" stroke-opacity="1.0"  filling="0" d="M8.403597831726074 9.823610305786133 C10.519230842590332 9.823610305786133 12.429638862609863 9.743962287902832 14.330743789672852 9.841633796691895 C17.58355140686035 10.008488655090332 19.252105712890625 11.404958724975586 19.616628646850586 14.093831062316895 C20.069522857666016 17.43210220336914 18.69398307800293 20.05527687072754 15.798139572143555 21.04187774658203 C14.544690132141113 21.46860694885254 13.180778503417969 21.573253631591797 11.54536247253418 21.886035919189453 C11.143630981445312 24.287126541137695 10.750619888305664 26.63414764404297 10.3564453125 28.9927978515625 C8.729750633239746 28.9927978515625 7.317002296447754 28.9927978515625 5.681005954742432 28.9927978515625 C6.594350337982178 22.561595916748047 7.482114315032959 16.31120491027832 8.403597831726074 9.823610305786133"></path>
<path fill="none" stroke="black" stroke-width=".3" stroke-opacity="1.0"  filling="0" d="M12.723234176635742 13.238042831420898 C14.63829231262207 13.193277359008789 14.978398323059082 14.2484769821167 14.881889343261719 15.664131164550781 C14.773171424865723 17.251873016357422 13.945871353149414 18.05126953125 12.007558822631836 18.141963958740234 C12.263945579528809 16.38446044921875 12.491264343261719 14.828692436218262 12.723234176635742 13.238042831420898"></path></svg>