<svg xmlns="http://www.w3.org/2000/svg" viewBox="0.0 0.0 24.0 24.0" height="200px" width="200px"><path fill="none" stroke="black" stroke-width=".3" stroke-opacity="1.0"  filling="0" d="M7.808513164520264 9.860620498657227 L7.808513164520264 9.860620498657227 C8.990077018737793 9.769001007080078 10.1908540725708 9.858144760131836 11.358059883117676 10.063370704650879 L11.358059883117676 10.063370704650879 C10.992147445678711 10.239798545837402 10.626235961914062 10.41622543334961 10.260323524475098 10.592653274536133 L10.260323524475098 10.592653274536133 C10.830554962158203 12.976485252380371 11.400857925415039 15.36030387878418 11.971325874328613 17.74407958984375 L11.971325874328613 17.74407958984375 C12.056771278381348 17.755361557006836 12.142217636108398 17.766643524169922 12.227663040161133 17.777925491333008 L12.227663040161133 17.777925491333008 C12.746232032775879 16.575050354003906 13.264791488647461 15.372170448303223 13.783361434936523 14.169295310974121 C14.301931381225586 12.96642017364502 14.820510864257812 11.763548851013184 15.339118957519531 10.560689926147461 L15.339118957519531 10.560689926147461 C14.962238311767578 10.420195579528809 14.585358619689941 10.279701232910156 14.208477973937988 10.139206886291504 L14.208477973937988 10.139206886291504 C14.224250793457031 10.052821159362793 14.240023612976074 9.966434478759766 14.255796432495117 9.880048751831055 L14.255796432495117 9.880048751831055 C15.245002746582031 9.880048751831055 16.234209060668945 9.880048751831055 17.22341537475586 9.880048751831055 L17.22341537475586 9.880048751831055 C15.676313400268555 11.085982322692871 14.823287963867188 12.948713302612305 14.07396125793457 14.907169342041016 C13.32463550567627 16.865625381469727 12.679009437561035 18.919803619384766 11.546709060668945 20.508634567260742 L11.546709060668945 20.508634567260742 C11.393366813659668 20.44794464111328 11.240023612976074 20.387256622314453 11.086681365966797 20.326566696166992 L11.086681365966797 20.326566696166992 C10.634642601013184 18.567216873168945 10.279736518859863 16.73757553100586 9.805521965026855 14.954350471496582 C9.331307411193848 13.171124458312988 8.737785339355469 11.43431282043457 7.808513164520264 9.860620498657227 L7.808513164520264 9.860620498657227"></path></svg>