<svg xmlns="http://www.w3.org/2000/svg" viewBox="0.0 0.0 24.0 24.0" height="200px" width="200px"><path fill="none" stroke="black" stroke-width=".3" stroke-opacity="1.0"  filling="0" d="M16.351797103881836 15.413930892944336 L16.351797103881836 15.413930892944336 C16.25893211364746 16.13786506652832 16.16613006591797 16.861806869506836 16.073394775390625 17.585756301879883 L16.073394775390625 17.585756301879883 C14.898957252502441 17.889877319335938 13.886246681213379 17.943803787231445 13.004497528076172 18.860393524169922 C12.260046005249023 19.634260177612305 11.795247077941895 21.64716339111328 12.558832168579102 22.56827163696289 C13.124829292297363 23.25102996826172 15.06552505493164 22.886831283569336 15.453737258911133 22.87122917175293 L15.453737258911133 22.87122917175293 C15.374968528747559 23.70612335205078 15.23249626159668 24.53835105895996 15.017509460449219 25.348926544189453 L15.017509460449219 25.348926544189453 C13.614425659179688 25.618276596069336 12.454681396484375 26.059627532958984 11.038740158081055 25.616912841796875 C9.521902084350586 25.142650604248047 8.834636688232422 23.819374084472656 8.673447608947754 22.339082717895508 C8.512258529663086 20.858789443969727 8.877144813537598 19.221481323242188 9.464609146118164 18.119157791137695 C10.191448211669922 16.755308151245117 11.21879768371582 15.900426864624023 12.411660194396973 15.47579574584961 C13.604522705078125 15.051164627075195 14.962900161743164 15.056782722473145 16.351797103881836 15.413930892944336 L16.351797103881836 15.413930892944336"></path></svg>