<svg xmlns="http://www.w3.org/2000/svg" viewBox="0.0 0.0 24.0 24.0" height="200px" width="200px"><path fill="none" stroke="black" stroke-width=".3" stroke-opacity="1.0"  filling="0" d="M13.749319076538086 10.819307327270508 L13.749319076538086 10.819307327270508 C14.50100326538086 10.819307327270508 15.252687454223633 10.819307327270508 16.004371643066406 10.819307327270508 L16.004371643066406 10.819307327270508 C15.755654335021973 12.595316886901855 15.506967544555664 14.371329307556152 15.25827407836914 16.147340774536133 C15.009580612182617 17.923351287841797 14.760879516601562 19.699363708496094 14.51213264465332 21.47536849975586 L14.51213264465332 21.47536849975586 C12.772441864013672 21.564037322998047 10.660812377929688 22.08500099182129 9.299838066101074 20.591955184936523 C7.840778350830078 18.991304397583008 8.7903413772583 15.60326099395752 10.450249671936035 14.521906852722168 C11.492283821105957 13.843070030212402 11.987991333007812 14.171183586120605 13.12655258178711 14.372732162475586 L13.12655258178711 14.372732162475586 C13.334181785583496 13.188264846801758 13.54177188873291 12.003789901733398 13.749319076538086 10.819307327270508 L13.749319076538086 10.819307327270508"></path>
<path fill="none" stroke="black" stroke-width=".3" stroke-opacity="1.0"  filling="0" d="M12.901243209838867 15.982325553894043 L12.901243209838867 15.982325553894043 C12.753511428833008 17.148536682128906 12.605789184570312 18.31475067138672 12.458077430725098 19.48096466064453 L12.458077430725098 19.48096466064453 C12.036849021911621 19.29120635986328 11.380671501159668 19.334468841552734 11.194392204284668 18.91168975830078 C10.411731719970703 17.135366439819336 11.874445915222168 16.69356346130371 12.901243209838867 15.982325553894043 L12.901243209838867 15.982325553894043"></path></svg>