<svg xmlns="http://www.w3.org/2000/svg" viewBox="0.0 0.0 24.0 24.0" height="200px" width="200px"><path fill="none" stroke="black" stroke-width=".3" stroke-opacity="1.0"  filling="0" d="M14.182411193847656 9.652670860290527 L14.182411193847656 9.652670860290527 C14.13054084777832 10.021803855895996 14.078669548034668 10.390936851501465 14.026799201965332 10.760069847106934 L14.026799201965332 10.760069847106934 C12.659073829650879 10.937941551208496 13.344367980957031 12.298412322998047 12.97995662689209 13.296019554138184 C12.159732818603516 15.541455268859863 11.87939453125 17.7993106842041 11.55488109588623 20.250152587890625 L11.55488109588623 20.250152587890625 C10.975783348083496 20.250152587890625 10.396686553955078 20.250152587890625 9.817588806152344 20.250152587890625 L9.817588806152344 20.250152587890625 C10.055779457092285 18.43509292602539 10.861111640930176 15.906072616577148 10.640290260314941 14.10448169708252 C10.597867012023926 13.758370399475098 10.277812004089355 13.489679336547852 10.222626686096191 13.14537239074707 C10.069896697998047 12.192479133605957 11.460176467895508 9.942078590393066 12.281193733215332 9.602754592895508 C12.867083549499512 9.360608100891113 13.54867172241211 9.636032104492188 14.182411193847656 9.652670860290527 L14.182411193847656 9.652670860290527"></path></svg>