<svg xmlns="http://www.w3.org/2000/svg" viewBox="0.0 0.0 24.0 24.0" height="200px" width="200px"><path fill="none" stroke="black" stroke-width=".3" stroke-opacity="1.0"  filling="0" d="M12.897628784179688 10.397696495056152 L12.897628784179688 10.397696495056152 C13.305171966552734 10.795328140258789 14.114259719848633 11.021235466003418 14.120258331298828 11.590591430664062 C14.126148223876953 12.149608612060547 13.481607437133789 12.76156234741211 12.922567367553711 12.764622688293457 C12.366654396057129 12.76766586303711 11.731053352355957 12.159591674804688 11.72519588470459 11.603700637817383 C11.71928882598877 11.043072700500488 12.506817817687988 10.799697875976562 12.897628784179688 10.397696495056152 L12.897628784179688 10.397696495056152"></path>
<path fill="none" stroke="black" stroke-width=".3" stroke-opacity="1.0"  filling="0" d="M11.402913093566895 14.215536117553711 L11.402913093566895 14.215536117553711 C12.163113594055176 14.215536117553711 12.92331314086914 14.215536117553711 13.683513641357422 14.215536117553711 L13.683513641357422 14.215536117553711 C13.3563871383667 16.542491912841797 13.02933406829834 18.86945343017578 12.702276229858398 21.19641876220703 L12.702276229858398 21.19641876220703 C11.945380210876465 21.19641876220703 11.188483238220215 21.19641876220703 10.431587219238281 21.19641876220703 L10.431587219238281 21.19641876220703 C10.755334854125977 18.86945343017578 11.079078674316406 16.542490005493164 11.402913093566895 14.215536117553711 L11.402913093566895 14.215536117553711"></path></svg>