<svg xmlns="http://www.w3.org/2000/svg" viewBox="0.0 0.0 24.0 24.0" height="200px" width="200px"><path fill="none" stroke="black" stroke-width=".3" stroke-opacity="1.0"  filling="0" d="M13.274798393249512 15.359518051147461 C17.031635284423828 13.659250259399414 20.054157257080078 15.341824531555176 20.27533721923828 19.493566513061523 C20.48847198486328 23.493297576904297 20.321178436279297 27.512331008911133 20.321178436279297 31.84906005859375 C20.84075164794922 32.108848571777344 21.67319107055664 32.52386474609375 22.505630493164062 32.93968200683594 C22.44369888305664 33.156028747558594 22.382572174072266 33.37238311767578 22.320642471313477 33.58954620361328 C19.646381378173828 33.58954620361328 16.9713134765625 33.58954620361328 14.285791397094727 33.58954620361328 C17.74664878845215 29.218229293823242 16.430830001831055 24.077213287353516 16.496784210205078 19.209651947021484 C16.505630493164062 18.532438278198242 14.6058988571167 17.088741302490234 14.080698013305664 17.28900718688965 C12.724665641784668 17.805362701416016 10.823324203491211 18.887130737304688 10.60697078704834 20.022789001464844 C9.936193466186523 23.545578002929688 9.82118034362793 27.197052001953125 9.793834686279297 30.801071166992188 C9.78820514678955 31.5820369720459 11.045309066772461 32.37345886230469 12.017695426940918 33.5067024230957 C9.063539505004883 33.5067024230957 6.291153907775879 33.5067024230957 3.517963409423828 33.5067024230957 C3.448793411254883 33.30804443359375 3.3780155181884766 33.1077766418457 3.3072385787963867 32.90830993652344 C4.06809663772583 32.58015823364258 4.828954219818115 32.25120544433594 5.983109951019287 31.752546310424805 C6.184986591339111 27.15683364868164 6.394102096557617 22.384986877441406 6.600804328918457 17.679088592529297 C5.594637870788574 17.16916847229004 4.855495929718018 16.794368743896484 4.196783542633057 16.460590362548828 C4.506434440612793 14.870509147644043 8.907506942749023 15.199464797973633 10.888471603393555 16.694637298583984 C11.661394119262695 16.257909774780273 12.436729431152344 15.739143371582031 13.274798393249512 15.359518051147461"></path></svg>