<svg xmlns="http://www.w3.org/2000/svg" viewBox="0.0 0.0 24.0 24.0" height="200px" width="200px"><path fill="none" stroke="black" stroke-width=".3" stroke-opacity="1.0"  filling="0" d="M15.90560531616211 13.78104019165039 L15.90560531616211 13.78104019165039 C15.788482666015625 14.182174682617188 15.834447860717773 14.674428939819336 15.554238319396973 14.984444618225098 C14.871513366699219 15.739791870117188 13.444550514221191 15.442534446716309 12.744037628173828 16.181415557861328 C11.428693771362305 17.568803787231445 11.870061874389648 21.321104049682617 11.764814376831055 23.06926727294922 L11.764814376831055 23.06926727294922 C12.350895881652832 23.2158260345459 12.936978340148926 23.362382888793945 13.523059844970703 23.508941650390625 L13.523059844970703 23.508941650390625 C13.52035140991211 23.681379318237305 13.5176420211792 23.853818893432617 13.514933586120605 24.026256561279297 L13.514933586120605 24.026256561279297 C11.73769760131836 24.227136611938477 10.152276039123535 24.215534210205078 8.372464179992676 24.044315338134766 L8.372464179992676 24.044315338134766 C8.345078468322754 23.892189025878906 8.317692756652832 23.740062713623047 8.29030704498291 23.587936401367188 L8.29030704498291 23.587936401367188 C8.777077674865723 23.392475128173828 9.263849258422852 23.1970157623291 9.750619888305664 23.001554489135742 L9.750619888305664 23.001554489135742 C9.811761856079102 21.684490203857422 9.872848510742188 20.36742401123047 9.933924674987793 19.050357818603516 C9.995000839233398 17.733291625976562 10.056066513061523 16.41622543334961 10.117165565490723 15.099159240722656 L10.117165565490723 15.099159240722656 C9.651008605957031 14.859911918640137 9.184852600097656 14.620664596557617 8.718695640563965 14.381417274475098 L8.718695640563965 14.381417274475098 C9.741808891296387 12.753026008605957 11.510133743286133 14.203299522399902 12.529053688049316 14.850883483886719 L12.529053688049316 14.850883483886719 C12.998821258544922 14.473616600036621 13.363993644714355 13.901067733764648 13.93835735321045 13.719083786010742 C14.563788414001465 13.520918846130371 15.249855995178223 13.760388374328613 15.90560531616211 13.78104019165039 L15.90560531616211 13.78104019165039"></path></svg>