<svg xmlns="http://www.w3.org/2000/svg" viewBox="0.0 0.0 24.0 24.0" height="200px" width="200px"><path fill="none" stroke="black" stroke-width=".3" stroke-opacity="1.0"  filling="0" d="M13.607634544372559 13.892268180847168 C14.382744789123535 17.216262817382812 15.041801452636719 20.04611587524414 15.701469421386719 22.87596893310547 C15.876157760620117 22.889404296875 16.05023765563965 22.902843475341797 16.22492790222168 22.916282653808594 C17.08005142211914 20.622102737426758 17.935176849365234 18.327312469482422 18.828784942626953 15.930521011352539 C18.285778045654297 15.651382446289062 17.786754608154297 15.394844055175781 17.2871150970459 15.137697219848633 C17.417827606201172 14.919639587402344 17.548538208007812 14.701581954956055 17.679861068725586 14.483526229858398 C19.04561996459961 14.483526229858398 20.411376953125 14.483526229858398 21.590227127075195 14.483526229858398 C20.78091049194336 15.967779159545898 19.891582489013672 17.319486618041992 19.27589225769043 18.786027908325195 C18.17766761779785 21.4014892578125 17.290781021118164 24.105514526367188 16.210269927978516 26.729530334472656 C15.934796333312988 27.398361206054688 15.263525009155273 27.90471649169922 14.358312606811523 28.9791202545166 C13.444551467895508 25.34239387512207 12.719526290893555 22.455734252929688 11.904104232788086 19.210535049438477 C10.388700485229492 22.43802261352539 9.045543670654297 25.310020446777344 7.673678398132324 28.16796875 C7.636419773101807 28.24615478515625 7.293758869171143 28.177743911743164 6.907120227813721 28.177743911743164 C4.8645920753479 23.992517471313477 5.601831912994385 18.749990463256836 2.389615058898926 14.414506912231445 C4.320976734161377 14.414506912231445 6.161328315734863 14.414506912231445 8.57339096069336 14.414506912231445 C7.713991165161133 15.168848991394043 7.254666805267334 15.572588920593262 6.7049431800842285 16.055736541748047 C7.183813571929932 18.263790130615234 7.675510406494141 20.528650283813477 8.231341361999512 23.090972900390625 C10.77717113494873 20.45901870727539 9.992288589477539 16.058788299560547 13.607634544372559 13.892268180847168"></path></svg>