<svg xmlns="http://www.w3.org/2000/svg" viewBox="0.0 0.0 24.0 24.0" height="200px" width="200px"><path fill="none" stroke="black" stroke-width=".3" stroke-opacity="1.0"  filling="0" d="M13.239079475402832 15.278450012207031 L13.239079475402832 15.278450012207031 C14.410164833068848 15.278450012207031 15.581249237060547 15.278450012207031 16.752334594726562 15.278450012207031 L16.752334594726562 15.278450012207031 C15.842864990234375 17.056602478027344 13.99769401550293 19.160362243652344 14.139143943786621 21.26451873779297 C14.243144989013672 22.811594009399414 15.08887004852295 24.54871368408203 15.509340286254883 26.032468795776367 L15.509340286254883 26.032468795776367 C14.317384719848633 26.032468795776367 13.125428199768066 26.032468795776367 11.933472633361816 26.032468795776367 L11.933472633361816 26.032468795776367 C11.701212882995605 25.196441650390625 11.46883487701416 24.36044692993164 11.236398696899414 23.52446937561035 L11.236398696899414 23.52446937561035 C10.716309547424316 24.3757381439209 10.196301460266113 25.227054595947266 9.676420211791992 26.078449249267578 L9.676420211791992 26.078449249267578 C8.495878219604492 26.078449249267578 7.315336227416992 26.078449249267578 6.134794235229492 26.078449249267578 L6.134794235229492 26.078449249267578 C7.09261417388916 24.309581756591797 9.122138977050781 22.015262603759766 8.994057655334473 19.87600326538086 C8.90738296508789 18.4283390045166 8.097164154052734 16.7576961517334 7.72559118270874 15.360630989074707 L7.72559118270874 15.360630989074707 C7.7263407707214355 15.360630989074707 11.243725776672363 15.360630989074707 11.247159957885742 15.360630989074707 L11.247159957885742 15.360630989074707 C11.460262298583984 16.1219539642334 11.673381805419922 16.883272171020508 11.886510848999023 17.644588470458984 L11.886510848999023 17.644588470458984 C12.013083457946777 17.423171997070312 13.08570671081543 15.546760559082031 13.239079475402832 15.278450012207031 L13.239079475402832 15.278450012207031"></path></svg>