<svg xmlns="http://www.w3.org/2000/svg" viewBox="0.0 0.0 24.0 24.0" height="200px" width="200px"><path fill="none" stroke="black" stroke-width=".3" stroke-opacity="1.0"  filling="0" d="M13.136075019836426 9.028596878051758 C14.36579418182373 15.567474365234375 15.528785705566406 21.753082275390625 16.692337036132812 27.938129425048828 C16.365421295166016 28.03401756286621 16.038503646850586 28.12934684753418 15.711588859558105 28.22523307800293 C15.334205627441406 26.79981231689453 14.956822395324707 25.374391555786133 14.541308403015137 23.804298400878906 C13.335700988769531 23.804298400878906 12.158692359924316 23.804298400878906 10.763551712036133 23.804298400878906 C10.325608253479004 25.201122283935547 9.851215362548828 26.715137481689453 9.376822471618652 28.228595733642578 C8.731963157653809 24.334205627441406 11.521682739257812 10.709158897399902 13.136075019836426 9.028596878051758"></path>
<path fill="none" stroke="black" stroke-width=".3" stroke-opacity="1.0"  filling="0" d="M12.75981330871582 13.054765701293945 C13.30822467803955 16.05588722229004 13.856074333190918 19.057008743286133 14.448785781860352 22.30149269104004 C13.226354598999023 22.30149269104004 12.187849998474121 22.30149269104004 10.819066047668457 22.30149269104004 C11.326541900634766 19.17868995666504 11.81383228302002 16.178129196166992 12.301121711730957 13.177569389343262 C12.454205513000488 13.136634826660156 12.606729507446289 13.09570026397705 12.75981330871582 13.054765701293945"></path></svg>