<svg xmlns="http://www.w3.org/2000/svg" viewBox="0.0 0.0 24.0 24.0" height="200px" width="200px"><path fill="none" stroke="black" stroke-width=".3" stroke-opacity="1.0"  filling="0" d="M7.315095901489258 10.293792724609375 L7.315095901489258 10.293792724609375 C8.695552825927734 10.284029006958008 10.22834587097168 10.147459983825684 11.722841262817383 10.213767051696777 C13.217336654663086 10.280074119567871 14.673534393310547 10.549256324768066 15.900798797607422 11.350994110107422 C17.244094848632812 12.228531837463379 18.00223159790039 13.786348342895508 18.072641372680664 15.353789329528809 C18.143051147460938 16.92123031616211 17.52573585510254 18.49829864501953 16.118125915527344 19.414337158203125 C14.90099048614502 20.2064208984375 13.385931015014648 20.451494216918945 11.833456039428711 20.49831771850586 C10.280981063842773 20.545141220092773 8.69109058380127 20.393714904785156 7.324291229248047 20.39279556274414 L7.324291229248047 20.39279556274414 C7.543736934661865 19.861135482788086 8.04752254486084 19.386417388916016 8.601839065551758 19.23295021057129 L8.601839065551758 19.23295021057129 C8.601839065551758 17.303436279296875 8.601839065551758 15.373929023742676 8.601839065551758 13.444416046142578 C8.601839065551758 12.792471885681152 8.828241348266602 12.099952697753906 8.601839065551758 11.488582611083984 C8.499398231506348 11.211953163146973 7.9840617179870605 11.393172264099121 7.767892837524414 11.192451477050781 C7.522088527679443 10.964213371276855 7.466028213500977 10.593345642089844 7.315095901489258 10.293792724609375 L7.315095901489258 10.293792724609375"></path>
<path fill="none" stroke="black" stroke-width=".3" stroke-opacity="1.0"  filling="0" d="M11.27371597290039 11.41164779663086 L11.27371597290039 11.41164779663086 C12.67165756225586 11.497519493103027 13.325870513916016 11.263235092163086 14.380114555358887 12.363256454467773 C15.8069486618042 13.852046966552734 16.100317001342773 17.237619400024414 14.35137939453125 18.632835388183594 C13.344108581542969 19.436386108398438 12.48426628112793 19.223430633544922 11.273716926574707 19.248275756835938 L11.273716926574707 19.248275756835938 C11.273716926574707 17.942169189453125 11.273716926574707 16.636066436767578 11.273716926574707 15.329961776733398 C11.273716926574707 14.023857116699219 11.27371597290039 12.717752456665039 11.27371597290039 11.41164779663086 L11.27371597290039 11.41164779663086"></path></svg>