<svg xmlns="http://www.w3.org/2000/svg" viewBox="0.0 0.0 24.0 24.0" height="200px" width="200px"><path fill="none" stroke="black" stroke-width=".3" stroke-opacity="1.0"  filling="0" d="M9.585345268249512 10.038854598999023 L9.585345268249512 10.038854598999023 C11.460233688354492 10.038854598999023 13.335121154785156 10.038854598999023 15.210010528564453 10.038854598999023 L15.210010528564453 10.038854598999023 C14.768145561218262 10.394575119018555 14.326281547546387 10.750296592712402 13.884416580200195 11.106017112731934 L13.884416580200195 11.106017112731934 C13.884416580200195 13.39536190032959 13.884416580200195 15.684711456298828 13.884416580200195 17.974056243896484 C13.884416580200195 18.542287826538086 13.661375045776367 19.1561222076416 13.884416580200195 19.678749084472656 C14.003971099853516 19.958887100219727 14.512531280517578 19.790552139282227 14.744088172912598 19.988418579101562 C14.993951797485352 20.201929092407227 15.076322555541992 20.55559730529785 15.242440223693848 20.839187622070312 L15.242440223693848 20.839187622070312 C13.353287696838379 20.838951110839844 11.464134216308594 20.8388671875 9.574981689453125 20.838855743408203 L9.574981689453125 20.838855743408203 C9.84831714630127 20.292341232299805 10.395845413208008 19.842449188232422 10.979142189025879 19.660362243652344 L10.979142189025879 19.660362243652344 C10.979142189025879 18.24962615966797 10.979142189025879 16.838890075683594 10.979142189025879 15.428155899047852 C10.979142189025879 14.017420768737793 10.979142189025879 12.60668659210205 10.979142189025879 11.195950508117676 L10.979142189025879 11.195950508117676 C10.408955574035645 10.997198104858398 9.799453735351562 10.60345458984375 9.585345268249512 10.038854598999023 L9.585345268249512 10.038854598999023"></path></svg>