<svg xmlns="http://www.w3.org/2000/svg" viewBox="0.0 0.0 24.0 24.0" height="200px" width="200px"><path fill="none" stroke="black" stroke-width=".3" stroke-opacity="1.0"  filling="0" d="M12.983915328979492 7.649782657623291 C18.77580451965332 7.679100036621094 22.560256958007812 11.274792671203613 22.530426025390625 16.720020294189453 C22.501625061035156 22.00066375732422 18.456918716430664 25.689449310302734 12.764810562133789 25.625675201416016 C7.196142196655273 25.563953399658203 3.3479127883911133 21.902942657470703 3.330939292907715 16.651100158691406 C3.31345272064209 11.310795783996582 7.270205497741699 7.620980262756348 12.983915328979492 7.649782657623291"></path>
<path fill="none" stroke="black" stroke-width=".3" stroke-opacity="1.0"  filling="0" d="M13.143872261047363 9.149574279785156 C14.923460006713867 9.23392391204834 16.30855369567871 10.077428817749023 16.956098556518555 11.696030616760254 C17.57689666748047 13.247255325317383 17.880352020263672 14.925518035888672 18.346338272094727 16.632585525512695 C17.877267837524414 18.311363220214844 17.678220748901367 20.06317901611328 16.920608520507812 21.525423049926758 C15.107075691223145 25.027507781982422 10.868983268737793 25.069683074951172 8.997330665588379 21.610803604125977 C7.223400592803955 18.332965850830078 7.3370680809021 14.889514923095703 8.980871200561523 11.564360618591309 C9.800716400146484 9.907184600830078 11.239816665649414 9.059052467346191 13.143872261047363 9.149574279785156"></path></svg>