<svg xmlns="http://www.w3.org/2000/svg" viewBox="0.0 0.0 24.0 24.0" height="200px" width="200px"><path fill="none" stroke="black" stroke-width=".3" stroke-opacity="1.0"  filling="0" d="M3.2186079025268555 8.980079650878906 C6.592006206512451 8.980079650878906 9.340155601501465 8.980079650878906 12.08830451965332 8.980079650878906 C12.18726921081543 9.128271102905273 12.286232948303223 9.276463508605957 12.3851957321167 9.424147605895996 C11.835058212280273 9.890039443969727 11.284921646118164 10.356437683105469 10.550559043884277 10.97864055633545 C11.31080436706543 12.039837837219238 12.233451843261719 13.327890396118164 13.409852027893066 14.971197128295898 C14.56341552734375 13.503488540649414 15.605833053588867 12.177371978759766 16.64114761352539 10.860899925231934 C15.856542587280273 10.381306648254395 15.237892150878906 10.003213882446289 14.618733406066895 9.625120162963867 C14.69841194152832 9.42922306060791 14.77808952331543 9.232817649841309 14.857769966125488 9.036920547485352 C16.986759185791016 9.036920547485352 19.115243911743164 9.036920547485352 21.839035034179688 9.036920547485352 C21.230026245117188 9.714948654174805 20.884414672851562 10.36861801147461 20.633705139160156 10.334107398986816 C19.25734519958496 10.143792152404785 18.669652938842773 11.096382141113281 17.986042022705078 11.939352035522461 C16.871049880981445 13.314695358276367 15.769760131835938 14.700695991516113 14.487289428710938 16.301372528076172 C17.01974868774414 19.266735076904297 18.282426834106445 23.246604919433594 22.418609619140625 24.892955780029297 C22.305435180664062 25.05789566040039 22.1922607421875 25.222328186035156 22.079593658447266 25.38726806640625 C19.274097442626953 25.38726806640625 16.468090057373047 25.38726806640625 13.650412559509277 25.38726806640625 C12.992683410644531 23.74243927001953 14.499978065490723 24.22660255432129 15.433283805847168 23.74650001525879 C14.291393280029297 22.183887481689453 13.304292678833008 20.832901000976562 12.116726875305176 19.208370208740234 C10.834256172180176 20.718713760375977 9.665468215942383 22.09507179260254 8.47384262084961 23.498329162597656 C9.253373146057129 24.013446807861328 9.91262435913086 24.44888687133789 10.572382926940918 24.88483428955078 C10.497272491455078 25.06804656982422 10.422162055969238 25.25125503540039 10.347050666809082 25.434465408325195 C8.119095802307129 25.434465408325195 5.891140460968018 25.434465408325195 3.662677764892578 25.434465408325195 C3.5738649368286133 25.277645111083984 3.4855575561523438 25.120826721191406 3.3967437744140625 24.964008331298828 C3.810361862182617 24.66457748413086 4.202664852142334 24.329116821289062 4.6421661376953125 24.07485580444336 C5.3267927169799805 23.67798614501953 6.217974662780762 23.49325180053711 6.713301181793213 22.941593170166016 C8.17542839050293 21.313003540039062 9.485811233520508 19.548908233642578 10.914949417114258 17.763500213623047 C9.365023612976074 15.583250045776367 7.904926776885986 13.420763969421387 6.308817386627197 11.363839149475098 C5.917530059814453 10.859376907348633 5.047155857086182 10.751277923583984 4.461493015289307 10.363542556762695 C4.094057559967041 10.120447158813477 3.8469018936157227 9.695663452148438 3.2186079025268555 8.980079650878906"></path></svg>