<svg xmlns="http://www.w3.org/2000/svg" viewBox="0.0 0.0 24.0 24.0" height="200px" width="200px"><path fill="none" stroke="black" stroke-width=".3" stroke-opacity="1.0"  filling="0" d="M12.37483024597168 16.894542694091797 C14.693254470825195 16.981555938720703 16.285444259643555 18.444900512695312 16.399232864379883 20.872928619384766 C16.5623836517334 24.336761474609375 16.41010856628418 27.814815521240234 16.584136962890625 31.27781105041504 C16.651071548461914 32.61565399169922 17.243436813354492 33.926719665527344 17.643367767333984 35.4268798828125 C15.493951797485352 35.6795539855957 13.349555015563965 36.16649627685547 11.229422569274902 36.07948303222656 C10.207006454467773 36.03765106201172 8.511905670166016 35.03782653808594 8.378037452697754 34.256370544433594 C8.075998306274414 32.4918212890625 7.953843593597412 30.182605743408203 8.863308906555176 28.84894371032715 C10.115809440612793 27.01244354248047 12.389053344726562 25.87205696105957 14.642217636108398 24.10750961303711 C14.818756103515625 22.65253448486328 15.640368461608887 20.226177215576172 13.433222770690918 19.083282470703125 C12.159804344177246 18.42398452758789 10.155133247375488 19.177827835083008 8.109464645385742 19.321735382080078 C8.776293754577637 17.46097183227539 10.578490257263184 16.826770782470703 12.37483024597168 16.894542694091797"></path>
<path fill="none" stroke="black" stroke-width=".3" stroke-opacity="1.0"  filling="0" d="M14.81206226348877 26.234338760375977 C14.81206226348877 28.250722885131836 14.986089706420898 30.017780303955078 14.764371871948242 31.734638214111328 C14.529266357421875 33.56779479980469 13.331149101257324 34.90898132324219 11.369148254394531 34.51490783691406 C9.18793773651123 34.07649230957031 9.218058586120605 32.14042663574219 9.663168907165527 30.508909225463867 C10.2948579788208 28.1929931640625 12.091197967529297 26.984834671020508 14.81206226348877 26.234338760375977"></path></svg>