<svg xmlns="http://www.w3.org/2000/svg" viewBox="0.0 0.0 24.0 24.0" height="200px" width="200px"><path fill="none" stroke="black" stroke-width=".3" stroke-opacity="1.0"  filling="0" d="M7.755527973175049 9.025412559509277 L7.755527973175049 9.025412559509277 C8.823343276977539 9.025412559509277 9.891159057617188 9.025412559509277 10.95897388458252 9.025412559509277 L10.95897388458252 9.025412559509277 C10.95897388458252 10.326743125915527 10.95897388458252 11.628074645996094 10.95897388458252 12.929405212402344 L10.95897388458252 12.929405212402344 C11.841955184936523 12.643144607543945 12.74670124053955 12.241511344909668 13.717888832092285 12.420371055603027 C16.1484317779541 12.867995262145996 16.545061111450195 16.421964645385742 15.373398780822754 18.146419525146484 C13.869342803955078 20.36009407043457 11.016161918640137 19.80521583557129 8.789353370666504 19.58863067626953 L8.789353370666504 19.58863067626953 C8.789466857910156 18.011154174804688 8.78953742980957 16.43367576599121 8.789581298828125 14.856196403503418 C8.789624214172363 13.278718948364258 8.78963851928711 11.701240539550781 8.789640426635742 10.123762130737305 L8.789640426635742 10.123762130737305 C8.40009593963623 9.868642807006836 8.010551452636719 9.61352252960205 7.621006965637207 9.358403205871582 L7.621006965637207 9.358403205871582 C7.665847301483154 9.247406005859375 7.710687637329102 9.136409759521484 7.755527973175049 9.025412559509277 L7.755527973175049 9.025412559509277"></path>
<path fill="none" stroke="black" stroke-width=".3" stroke-opacity="1.0"  filling="0" d="M11.995966911315918 13.648963928222656 L11.995966911315918 13.648963928222656 C12.377158164978027 13.839847564697266 12.871679306030273 13.889961242675781 13.139540672302246 14.221614837646484 C13.858309745788574 15.11156177520752 13.969768524169922 18.559886932373047 12.4666109085083 18.915414810180664 C12.0001859664917 19.025733947753906 11.509720802307129 18.8584041595459 11.031275749206543 18.829898834228516 L11.031275749206543 18.829898834228516 C11.034708023071289 16.827539443969727 10.552678108215332 15.12569808959961 11.995966911315918 13.648963928222656 L11.995966911315918 13.648963928222656"></path></svg>