<svg xmlns="http://www.w3.org/2000/svg" viewBox="0.0 0.0 24.0 24.0" height="200px" width="200px"><path fill="none" stroke="black" stroke-width=".3" stroke-opacity="1.0"  filling="0" d="M17.665470123291016 7.041925430297852 C17.665470123291016 7.943632125854492 17.665470123291016 8.872647285461426 17.665470123291016 9.98914623260498 C16.188182830810547 9.62153148651123 15.545382499694824 7.450503349304199 13.965688705444336 8.744507789611816 C12.565601348876953 9.89146614074707 12.839736938476562 11.518949508666992 12.881224632263184 12.866520881652832 C13.540830612182617 13.991947174072266 15.675097465515137 12.606039047241211 15.496017456054688 14.834835052490234 C14.662581443786621 14.949846267700195 13.908445358276367 15.053303718566895 12.840261459350586 15.200347900390625 C12.840261459350586 16.63877296447754 12.840261459350586 18.094528198242188 12.840261459350586 19.55080795288086 C12.840261459350586 21.029144287109375 12.840261459350586 22.50748062133789 12.840261459350586 23.684371948242188 C13.27772331237793 25.058204650878906 15.550107955932617 23.61715316772461 15.1173734664917 25.85540008544922 C12.41855525970459 25.85540008544922 9.695579528808594 25.85540008544922 6.9726033210754395 25.85540008544922 C6.878074645996094 25.675796508789062 6.78302001953125 25.496192932128906 6.688490390777588 25.31711196899414 C7.236761569976807 24.910633087158203 7.785558223724365 24.50415802001953 8.546521186828613 23.940654754638672 C8.546521186828613 21.299081802368164 8.546521186828613 18.3544864654541 8.546521186828613 15.646215438842773 C7.914748191833496 15.056456565856934 7.417418003082275 14.59221076965332 6.920087814331055 14.127965927124023 C7.436323642730713 13.762452125549316 7.952034950256348 13.396937370300293 8.554923057556152 12.969453811645508 C9.636761665344238 7.590721607208252 12.314047813415527 5.774179458618164 17.665470123291016 7.041925430297852"></path></svg>