<svg xmlns="http://www.w3.org/2000/svg" viewBox="0.0 0.0 24.0 24.0" height="200px" width="200px"><path fill="none" stroke="black" stroke-width=".3" stroke-opacity="1.0"  filling="0" d="M9.402235984802246 9.531163215637207 C9.633252143859863 9.535829544067383 9.86368465423584 9.539913177490234 10.094700813293457 9.544580459594727 C10.094700813293457 13.409433364868164 10.094700813293457 17.27486801147461 10.094700813293457 21.139719009399414 C10.329800605773926 21.241809844970703 10.564316749572754 21.344486236572266 10.799416542053223 21.446575164794922 C12.193679809570312 19.516773223876953 13.587943077087402 17.586971282958984 14.982789993286133 15.657755851745605 C15.230140686035156 15.826934814453125 15.477490425109863 15.996111869812012 15.724841117858887 16.16529083251953 C14.45250415802002 18.032087326049805 13.18016529083252 19.898300170898438 11.801069259643555 21.92144203186035 C13.26067066192627 24.057754516601562 14.699271202087402 26.164318084716797 16.13787078857422 28.270299911499023 C15.94360637664795 28.423725128173828 15.748761177062988 28.5771541595459 15.554496765136719 28.730581283569336 C13.485269546508789 27.167720794677734 12.689547538757324 24.44861602783203 10.238794326782227 22.130870819091797 C10.238794326782227 24.700050354003906 10.238794326782227 26.591930389404297 10.238794326782227 28.484394073486328 C9.996694564819336 28.502477645874023 9.75517749786377 28.52056312561035 9.513076782226562 28.53864860534668 C8.8019437789917 26.542343139648438 9.283811569213867 24.381526947021484 9.195721626281738 22.310550689697266 C9.10529899597168 20.183570861816406 9.125133514404297 18.04900550842285 9.177637100219727 15.919690132141113 C9.230140686035156 13.791542053222656 8.928536415100098 11.622557640075684 9.402235984802246 9.531163215637207"></path></svg>