<svg xmlns="http://www.w3.org/2000/svg" viewBox="0.0 0.0 24.0 24.0" height="200px" width="200px"><path fill="none" stroke="black" stroke-width=".3" stroke-opacity="1.0"  filling="0" d="M8.691823959350586 18.265613555908203 C8.881386756896973 19.096370697021484 9.219454765319824 19.923633575439453 9.236052513122559 20.757884979248047 C9.313799858093262 24.534290313720703 9.248282432556152 28.31331443786621 9.341753005981445 32.088844299316406 C9.391546249389648 34.10502624511719 9.95499324798584 36.053062438964844 12.491814613342285 35.86525344848633 C14.77879810333252 35.6966552734375 15.576359748840332 33.994956970214844 15.574612617492676 31.857351303100586 C15.569371223449707 27.401321411132812 15.57286548614502 22.945281982421875 15.57286548614502 18.48837661743164 C16.02886390686035 18.4726505279541 16.485736846923828 18.456050872802734 16.942607879638672 18.44032859802246 C16.942607879638672 24.537784576416016 16.942607879638672 30.635242462158203 16.942607879638672 36.74055862426758 C15.726611137390137 36.92662811279297 14.44422435760498 37.09260559082031 13.17494010925293 37.3240966796875 C10.314900398254395 37.845611572265625 8.242813110351562 36.967681884765625 8.025297164916992 34.13909149169922 C7.624331951141357 28.914325714111328 7.910860538482666 23.637142181396484 8.691823959350586 18.265613555908203"></path></svg>