<svg xmlns="http://www.w3.org/2000/svg" viewBox="0.0 0.0 24.0 24.0" height="200px" width="200px"><path fill="none" stroke="black" stroke-width=".3" stroke-opacity="1.0"  filling="0" d="M12.41345500946045 7.516360759735107 L12.41345500946045 7.516360759735107 C14.172780990600586 7.516360759735107 15.932110786437988 7.516360759735107 17.691436767578125 7.516360759735107 L17.691436767578125 7.516360759735107 C17.248517990112305 9.450175285339355 16.828445434570312 11.390701293945312 16.352705001831055 13.316819190979004 C16.044057846069336 14.566426277160645 15.90658950805664 15.855498313903809 14.834632873535156 16.764564514160156 C13.798754692077637 17.643035888671875 12.405842781066895 17.903820037841797 10.975419044494629 17.891788482666016 C9.544995307922363 17.879756927490234 8.077058792114258 17.594907760620117 6.89113187789917 17.382108688354492 L6.89113187789917 17.382108688354492 C7.120186805725098 16.32900047302246 7.349238872528076 15.275891304016113 7.578287601470947 14.222782135009766 L7.578287601470947 14.222782135009766 C8.252059936523438 14.223376274108887 10.101984977722168 14.315302848815918 10.648853302001953 13.890480995178223 C11.977339744567871 12.858476638793945 12.099477767944336 9.0369234085083 12.41345500946045 7.516360759735107 L12.41345500946045 7.516360759735107"></path></svg>