<svg xmlns="http://www.w3.org/2000/svg" viewBox="0.0 0.0 24.0 24.0" height="200px" width="200px"><path fill="none" stroke="black" stroke-width=".3" stroke-opacity="1.0"  filling="0" d="M8.709823608398438 15.559879302978516 L8.709823608398438 15.559879302978516 C9.21465015411377 17.989280700683594 9.719693183898926 20.418643951416016 10.224518775939941 22.848045349121094 L10.224518775939941 22.848045349121094 C10.332498550415039 22.86736297607422 10.440479278564453 22.886680603027344 10.54845905303955 22.90599822998047 L10.54845905303955 22.90599822998047 C10.7841796875 21.62812614440918 11.013880729675293 20.40506935119629 11.32030963897705 19.204587936401367 C11.626738548278809 18.004106521606445 12.009896278381348 16.826202392578125 12.552531242370605 15.638635635375977 L12.552531242370605 15.638635635375977 C13.040423393249512 17.9423770904541 13.528316497802734 20.246122360229492 14.016207695007324 22.549861907958984 L14.016207695007324 22.549861907958984 C14.14482593536377 22.55729103088379 14.273445129394531 22.564722061157227 14.402063369750977 22.57215118408203 L14.402063369750977 22.57215118408203 C14.904200553894043 20.242332458496094 15.406198501586914 17.91248321533203 15.908336639404297 15.582662582397461 L15.908336639404297 15.582662582397461 C16.13420295715332 15.633020401000977 16.360071182250977 15.683378219604492 16.5859375 15.733736038208008 L16.5859375 15.733736038208008 C16.369543075561523 17.52554702758789 16.03167724609375 19.288776397705078 15.660143852233887 21.045936584472656 C15.288609504699707 22.803098678588867 14.883405685424805 24.5541934967041 14.532333374023438 26.321735382080078 L14.532333374023438 26.321735382080078 C14.36689567565918 26.334613800048828 14.201457977294922 26.347492218017578 14.036020278930664 26.360370635986328 L14.036020278930664 26.360370635986328 C13.772555351257324 25.133628845214844 13.50914478302002 23.906879425048828 13.245734214782715 22.680130004882812 C12.98232364654541 21.453378677368164 12.718913078308105 20.226627349853516 12.455448150634766 18.999887466430664 L12.455448150634766 18.999887466430664 C12.360345840454102 18.98717498779297 12.265244483947754 18.97446060180664 12.17014217376709 18.961748123168945 L12.17014217376709 18.961748123168945 C11.64399242401123 21.40534782409668 11.117703437805176 23.848913192749023 10.591551780700684 26.292510986328125 L10.591551780700684 26.292510986328125 C10.42578411102295 26.30406951904297 10.260016441345215 26.31562614440918 10.09424877166748 26.327184677124023 L10.09424877166748 26.327184677124023 C9.724560737609863 24.565757751464844 9.354937553405762 22.804317474365234 8.985353469848633 21.04286766052246 C8.61577033996582 19.281417846679688 8.246225357055664 17.519962310791016 7.876692771911621 15.758502960205078 L7.876692771911621 15.758502960205078 C8.154402732849121 15.69229507446289 8.432113647460938 15.626087188720703 8.709823608398438 15.559879302978516 L8.709823608398438 15.559879302978516"></path></svg>