<svg xmlns="http://www.w3.org/2000/svg" viewBox="0.0 0.0 24.0 24.0" height="200px" width="200px"><path fill="none" stroke="black" stroke-width=".3" stroke-opacity="1.0"  filling="0" d="M10.203145980834961 15.232353210449219 L10.203145980834961 15.232353210449219 C10.929240226745605 16.509159088134766 11.655364990234375 17.785951614379883 12.381443977355957 19.062767028808594 L12.381443977355957 19.062767028808594 C13.050810813903809 17.81342887878418 13.720181465148926 16.564090728759766 14.389348983764648 15.314643859863281 L14.389348983764648 15.314643859863281 C14.579264640808105 15.39112663269043 14.769179344177246 15.467608451843262 14.959095001220703 15.54409122467041 L14.959095001220703 15.54409122467041 C14.4876708984375 16.866207122802734 13.56534481048584 18.304195404052734 13.2865571975708 19.670413970947266 C12.88427448272705 21.641830444335938 14.619467735290527 23.993305206298828 15.33327865600586 25.725452423095703 L15.33327865600586 25.725452423095703 C15.144493103027344 25.827590942382812 14.955706596374512 25.929729461669922 14.766921043395996 26.03186798095703 L14.766921043395996 26.03186798095703 C13.950536727905273 24.54897689819336 13.134087562561035 23.066110610961914 12.317546844482422 21.583301544189453 L12.317546844482422 21.583301544189453 C11.647534370422363 23.063867568969727 10.977649688720703 24.544496536254883 10.307703971862793 26.02509117126465 L10.307703971862793 26.02509117126465 C10.060023307800293 25.915369033813477 9.81234359741211 25.805648803710938 9.56466293334961 25.695926666259766 L9.56466293334961 25.695926666259766 C10.16533374786377 24.188465118408203 11.594011306762695 22.04247283935547 11.582250595092773 20.3754940032959 C11.571378707885742 18.834503173828125 10.221012115478516 16.919374465942383 9.62807559967041 15.543606758117676 L9.62807559967041 15.543606758117676 C9.8197660446167 15.439855575561523 10.011455535888672 15.336104393005371 10.203145980834961 15.232353210449219 L10.203145980834961 15.232353210449219"></path></svg>