<svg xmlns="http://www.w3.org/2000/svg" viewBox="0.0 0.0 24.0 24.0" height="200px" width="200px"><path fill="none" stroke="black" stroke-width=".3" stroke-opacity="1.0"  filling="0" d="M11.975358009338379 10.60647201538086 L11.975358009338379 10.60647201538086 C13.89407730102539 11.361772537231445 14.033415794372559 13.263969421386719 13.531082153320312 15.292753219604492 C13.02874755859375 17.321537017822266 11.884740829467773 19.476909637451172 11.236769676208496 20.738563537597656 L11.236769676208496 20.738563537597656 C12.153358459472656 20.81162452697754 13.069948196411133 20.884685516357422 13.98653793334961 20.957740783691406 L13.98653793334961 20.957740783691406 C13.98059368133545 21.098997116088867 13.974650382995605 21.240251541137695 13.968706130981445 21.381507873535156 L13.968706130981445 21.381507873535156 C12.726052284240723 21.381507873535156 11.4833984375 21.381507873535156 10.240744590759277 21.381507873535156 L10.240744590759277 21.381507873535156 C10.811042785644531 20.244037628173828 11.433342933654785 19.072072982788086 11.950867652893066 17.86258316040039 C12.468392372131348 16.653093338012695 12.881141662597656 15.406076431274414 13.03233814239502 14.118498802185059 C13.136749267578125 13.229347229003906 13.344924926757812 12.021681785583496 12.25023078918457 11.576703071594238 C11.699254035949707 11.352737426757812 11.06944465637207 11.432866096496582 10.47905158996582 11.360947608947754 L10.47905158996582 11.360947608947754 C10.97782039642334 11.109456062316895 11.47658920288086 10.857963562011719 11.975358009338379 10.60647201538086 L11.975358009338379 10.60647201538086"></path></svg>