<svg xmlns="http://www.w3.org/2000/svg" viewBox="0.0 0.0 24.0 24.0" height="200px" width="200px"><path fill="none" stroke="black" stroke-width=".3" stroke-opacity="1.0"  filling="0" d="M11.956192970275879 9.52261734008789 C13.541879653930664 9.640779495239258 14.8560791015625 10.66850757598877 14.888934135437012 12.18214225769043 C14.944269180297852 14.710824012756348 14.65087890625 17.275819778442383 14.21338939666748 19.77452850341797 C13.973028182983398 21.14636993408203 13.167793273925781 22.42829132080078 12.563722610473633 23.725772857666016 C12.006340026855469 24.92296600341797 11.377484321594238 26.08672332763672 10.643145561218262 27.53522491455078 C12.470345497131348 27.681055068969727 14.000696182250977 27.802677154541016 15.531623840332031 27.92487335205078 C15.521249771118164 28.1767635345459 15.510296821594238 28.4274959564209 15.499921798706055 28.67823600769043 C13.381063461303711 28.67823600769043 11.261627197265625 28.67823600769043 8.872434616088867 28.67823600769043 C9.908807754516602 26.538623809814453 11.06276798248291 24.484323501586914 11.911233901977539 22.310707092285156 C12.736642837524414 20.195880889892578 13.541879653930664 17.996898651123047 13.835268020629883 15.766220092773438 C14.367288589477539 11.722173690795898 13.466946601867676 10.88926887512207 9.296091079711914 10.863907814025879 C9.660378456115723 9.285139083862305 10.944604873657227 9.447684288024902 11.956192970275879 9.52261734008789"></path></svg>