<svg xmlns="http://www.w3.org/2000/svg" viewBox="0.0 0.0 24.0 24.0" height="200px" width="200px"><path fill="none" stroke="black" stroke-width=".3" stroke-opacity="1.0"  filling="0" d="M14.835334777832031 8.743121147155762 L14.835334777832031 8.743121147155762 C15.854103088378906 8.759956359863281 16.873153686523438 8.764161109924316 17.892030715942383 8.756185531616211 L17.892030715942383 8.756185531616211 C16.73488998413086 9.920960426330566 15.577688217163086 11.085678100585938 14.420428276062012 12.250334739685059 L14.420428276062012 12.250334739685059 C14.430274963378906 12.26680850982666 16.420923233032227 15.597074508666992 16.442279815673828 15.632802963256836 L16.442279815673828 15.632802963256836 C15.090935707092285 15.632802963256836 13.739594459533691 15.632802963256836 12.388250350952148 15.632802963256836 L12.388250350952148 15.632802963256836 C11.988197326660156 14.952230453491211 11.588107109069824 14.271679878234863 11.187993049621582 13.591142654418945 L11.187993049621582 13.591142654418945 C11.177639961242676 13.631279945373535 10.682963371276855 15.549277305603027 10.657402038574219 15.648396492004395 L10.657402038574219 15.648396492004395 C9.469015121459961 15.648395538330078 8.280627250671387 15.648395538330078 7.092240333557129 15.648395538330078 L7.092240333557129 15.648395538330078 C7.579044342041016 13.372535705566406 8.065984725952148 11.096702575683594 8.552947044372559 8.820877075195312 L8.552947044372559 8.820877075195312 C9.740912437438965 8.820877075195312 10.928878784179688 8.820877075195312 12.116844177246094 8.820877075195312 L12.116844177246094 8.820877075195312 C12.083390235900879 9.007895469665527 11.690629005432129 11.203239440917969 11.673279762268066 11.300201416015625 L11.673279762268066 11.300201416015625 C12.820555686950684 10.046874046325684 13.239810943603516 9.459823608398438 14.835334777832031 8.743121147155762 L14.835334777832031 8.743121147155762"></path></svg>