<svg xmlns="http://www.w3.org/2000/svg" viewBox="0.0 0.0 24.0 24.0" height="200px" width="200px"><path fill="none" stroke="black" stroke-width=".3" stroke-opacity="1.0"  filling="0" d="M9.811088562011719 9.947614669799805 L9.811088562011719 9.947614669799805 C11.610339164733887 9.947614669799805 13.409588813781738 9.947614669799805 15.208839416503906 9.947614669799805 L15.208839416503906 9.947614669799805 C15.208839416503906 10.586448669433594 15.208839416503906 11.225282669067383 15.208839416503906 11.864116668701172 L15.208839416503906 11.864116668701172 C13.739178657531738 11.864116668701172 12.269516944885254 11.864116668701172 10.799857139587402 11.864116668701172 L10.799857139587402 11.864116668701172 C10.799857139587402 12.623200416564941 10.799857139587402 13.382285118103027 10.799857139587402 14.141368865966797 L10.799857139587402 14.141368865966797 C12.209718704223633 14.383519172668457 14.036116600036621 14.455573081970215 14.994694709777832 15.745548248291016 C16.2905330657959 17.489381790161133 15.198596954345703 19.675582885742188 13.425650596618652 20.4376220703125 C11.429784774780273 21.295475006103516 9.97655200958252 20.37093734741211 8.454824447631836 19.219810485839844 L8.454824447631836 19.219810485839844 C9.372407913208008 19.27118682861328 10.296876907348633 19.64449691772461 11.200078964233398 19.474712371826172 C12.237238883972168 19.279747009277344 13.148658752441406 17.615814208984375 12.561522483825684 16.637062072753906 C11.73782730102539 15.263967514038086 10.868756294250488 15.402559280395508 9.517156600952148 15.159369468688965 L9.517156600952148 15.159369468688965 C9.615184783935547 13.42212200164795 9.713141441345215 11.684866905212402 9.811088562011719 9.947614669799805 L9.811088562011719 9.947614669799805"></path></svg>