<svg xmlns="http://www.w3.org/2000/svg" viewBox="0.0 0.0 24.0 24.0" height="200px" width="200px"><path fill="none" stroke="black" stroke-width=".3" stroke-opacity="1.0"  filling="0" d="M10.966041564941406 9.421095848083496 C14.60667610168457 9.225236892700195 16.156005859375 9.915127754211426 16.810230255126953 11.764969825744629 C17.590742111206055 13.973203659057617 16.79210662841797 15.99376392364502 14.353520393371582 17.981584548950195 C17.043506622314453 21.093692779541016 17.508892059326172 23.16570281982422 16.1086483001709 25.793716430664062 C14.844629287719727 28.16682243347168 12.331790924072266 29.029184341430664 8.285992622375488 28.378467559814453 C9.174665451049805 22.09344482421875 10.063921928405762 15.80492115020752 10.966041564941406 9.421095848083496"></path>
<path fill="none" stroke="black" stroke-width=".3" stroke-opacity="1.0"  filling="0" d="M12.060511589050293 10.753520011901855 C14.765700340270996 10.713178634643555 15.6520357131958 11.393714904785156 15.747917175292969 13.406675338745117 C15.860170364379883 15.76048755645752 14.465188980102539 16.99761390686035 11.182363510131836 17.237319946289062 C11.481705665588379 15.029670715332031 11.773447036743164 12.875225067138672 12.060511589050293 10.753520011901855"></path>
<path fill="none" stroke="black" stroke-width=".3" stroke-opacity="1.0"  filling="0" d="M10.92102336883545 18.970232009887695 C13.914445877075195 18.86557960510254 15.342752456665039 20.106212615966797 15.468452453613281 22.699731826782227 C15.615200996398926 25.728235244750977 13.869427680969238 27.30387306213379 9.747625350952148 27.429574966430664 C10.16623592376709 24.412765502929688 10.546260833740234 21.671329498291016 10.92102336883545 18.970232009887695"></path></svg>