<svg xmlns="http://www.w3.org/2000/svg" viewBox="0.0 0.0 24.0 24.0" height="200px" width="200px"><path fill="none" stroke="black" stroke-width=".3" stroke-opacity="1.0"  filling="0" d="M12.671832084655762 9.392708778381348 L12.671832084655762 9.392708778381348 C14.341205596923828 9.617270469665527 15.753722190856934 9.85399055480957 16.809146881103516 11.333928108215332 C18.11332893371582 13.162679672241211 18.034862518310547 15.350119590759277 17.093046188354492 17.093883514404297 C16.151229858398438 18.837648391723633 14.346065521240234 20.137737274169922 12.196852684020996 20.191781997680664 C9.949195861816406 20.248302459716797 8.310428619384766 18.98822593688965 7.541992664337158 17.2792911529541 C6.773556709289551 15.570358276367188 6.875452041625977 13.412568092346191 8.10911750793457 11.673666000366211 C9.282205581665039 10.020150184631348 10.80146312713623 9.684691429138184 12.671832084655762 9.392708778381348 L12.671832084655762 9.392708778381348"></path>
<path fill="none" stroke="black" stroke-width=".3" stroke-opacity="1.0"  filling="0" d="M12.845816612243652 10.336179733276367 L12.845816612243652 10.336179733276367 C14.766814231872559 11.415474891662598 14.763083457946777 12.260702133178711 15.09648609161377 14.418472290039062 L15.09648609161377 14.418472290039062 C15.158600807189941 14.450302124023438 15.22071647644043 14.482132911682129 15.282831192016602 14.513962745666504 L15.282831192016602 14.513962745666504 C15.098073959350586 15.082521438598633 14.332365989685059 17.532848358154297 14.03743839263916 18.065650939941406 C13.407363891601562 19.20391845703125 11.971305847167969 19.656604766845703 10.90811824798584 18.754287719726562 C9.571048736572266 17.619529724121094 9.290642738342285 15.700496673583984 9.726919174194336 13.972405433654785 C10.16319465637207 12.244314193725586 11.316154479980469 10.70716667175293 12.845816612243652 10.336179733276367 L12.845816612243652 10.336179733276367"></path></svg>