<svg xmlns="http://www.w3.org/2000/svg" viewBox="0.0 0.0 24.0 24.0" height="200px" width="200px"><path fill="none" stroke="black" stroke-width=".3" stroke-opacity="1.0"  filling="0" d="M13.30209732055664 9.773343086242676 L13.30209732055664 9.773343086242676 C13.952668190002441 9.921693801879883 14.605009078979492 10.06239128112793 15.25847053527832 10.197439193725586 L15.25847053527832 10.197439193725586 C15.306793212890625 11.036377906799316 15.083986282348633 11.897103309631348 14.743101119995117 12.66518497467041 L14.743101119995117 12.66518497467041 C14.35777473449707 12.015300750732422 12.039133071899414 9.230741500854492 11.787914276123047 11.812268257141113 C11.627884864807129 13.456730842590332 14.158740997314453 14.396757125854492 14.893186569213867 15.578807830810547 C15.986650466918945 17.338680267333984 15.333573341369629 19.976055145263672 13.099994659423828 20.393869400024414 C11.894725799560547 20.619327545166016 10.416829109191895 20.105344772338867 9.233851432800293 19.884033203125 L9.233851432800293 19.884033203125 C9.233851432800293 19.02918243408203 9.233851432800293 18.174333572387695 9.233851432800293 17.319482803344727 L9.233851432800293 17.319482803344727 C9.333318710327148 17.261093139648438 9.432785987854004 17.20270347595215 9.53225326538086 17.14431381225586 L9.53225326538086 17.14431381225586 C10.277671813964844 17.792888641357422 10.408014297485352 18.95484161376953 11.497077941894531 19.186887741088867 C12.85634994506836 19.47650718688965 13.26547622680664 18.054973602294922 12.680397033691406 17.104976654052734 C11.430914878845215 15.076186180114746 8.02931022644043 14.216170310974121 9.878438949584961 11.060359001159668 C10.190486907958984 10.527802467346191 10.715972900390625 10.083471298217773 11.293742179870605 9.866277694702148 C11.921051025390625 9.630460739135742 12.632645606994629 9.8043212890625 13.30209732055664 9.773343086242676 L13.30209732055664 9.773343086242676"></path></svg>