<svg xmlns="http://www.w3.org/2000/svg" viewBox="0.0 0.0 24.0 24.0" height="200px" width="200px"><path fill="none" stroke="black" stroke-width=".3" stroke-opacity="1.0"  filling="0" d="M15.844429016113281 9.771387100219727 C16.130266189575195 9.836952209472656 16.415529251098633 9.901941299438477 16.701366424560547 9.967504501342773 C16.90496063232422 11.563478469848633 15.965780258178711 13.01107120513916 15.581596374511719 14.516176223754883 C15.15772819519043 16.175989151000977 14.58317756652832 17.796693801879883 14.082242965698242 19.436952590942383 C13.581308364868164 21.076637268066406 13.120057106018066 22.728973388671875 12.586339950561523 24.357154846191406 C12.07792854309082 25.90769386291504 11.497627258300781 27.434078216552734 10.948957443237305 28.97138786315918 C10.66887092590332 28.91847801208496 10.388784408569336 28.86614418029785 10.108697891235352 28.8132266998291 C10.108697891235352 22.55010986328125 10.108697891235352 16.28756332397461 10.108697891235352 10.024442672729492 C10.324946403503418 10.022717475891113 10.541193008422852 10.020417213439941 10.757440567016602 10.018692016601562 C10.757440567016602 14.719195365905762 10.757440567016602 19.41912269592285 10.757440567016602 24.119625091552734 C10.980588912963867 24.150110244750977 11.20373821258545 24.180015563964844 11.427461624145508 24.210498809814453 C12.899784088134766 19.397268295288086 14.372106552124023 14.584615707397461 15.844429016113281 9.771387100219727"></path></svg>