<svg xmlns="http://www.w3.org/2000/svg" viewBox="0.0 0.0 24.0 24.0" height="200px" width="200px"><path fill="none" stroke="black" stroke-width=".3" stroke-opacity="1.0"  filling="0" d="M7.030909538269043 9.917243957519531 L7.030909538269043 9.917243957519531 C8.671625137329102 9.917243957519531 10.312338829040527 9.917243957519531 11.95305347442627 9.917243957519531 L11.95305347442627 9.917243957519531 C12.014680862426758 10.000166893005371 12.076308250427246 10.083090782165527 12.137935638427734 10.166013717651367 L12.137935638427734 10.166013717651367 C11.733430862426758 10.507062911987305 11.328925132751465 10.848112106323242 10.924420356750488 11.18916130065918 L10.924420356750488 11.18916130065918 C11.410380363464355 13.167930603027344 11.89649772644043 15.146663665771484 12.382511138916016 17.12541961669922 L12.382511138916016 17.12541961669922 C12.474145889282227 17.11842918395996 12.565780639648438 17.11143684387207 12.657415390014648 17.104446411132812 L12.657415390014648 17.104446411132812 C13.545988082885742 15.102344512939453 14.434576034545898 13.100248336791992 15.323213577270508 11.098173141479492 L15.323213577270508 11.098173141479492 C14.926774978637695 10.81208324432373 14.530335426330566 10.525993347167969 14.133896827697754 10.239903450012207 L14.133896827697754 10.239903450012207 C14.186920166015625 10.133318901062012 14.239943504333496 10.0267333984375 14.292966842651367 9.920148849487305 L14.292966842651367 9.920148849487305 C15.393445014953613 9.920148849487305 16.49392318725586 9.920148849487305 17.594402313232422 9.920148849487305 L17.594402313232422 9.920148849487305 C17.265207290649414 11.078373908996582 16.518335342407227 10.877382278442383 15.993051528930664 12.025491714477539 C15.33448314666748 13.464920043945312 14.695402145385742 14.914095878601074 14.060872077941895 16.365337371826172 C13.426342964172363 17.816577911376953 12.796365737915039 19.269882202148438 12.156005859375 20.717567443847656 L12.156005859375 20.717567443847656 C11.648035049438477 20.717567443847656 11.140064239501953 20.717567443847656 10.63209342956543 20.717567443847656 L10.63209342956543 20.717567443847656 C10.21435546875 19.112468719482422 9.796649932861328 17.50735855102539 9.3789701461792 15.902243614196777 C8.96129035949707 14.297128677368164 8.543638229370117 12.69200611114502 8.126009941101074 11.086878776550293 L8.126009941101074 11.086878776550293 C7.710211753845215 10.8062744140625 7.294413089752197 10.52566909790039 6.878614902496338 10.245064735412598 L6.878614902496338 10.245064735412598 C6.929379940032959 10.135790824890137 6.980144500732422 10.026517868041992 7.030909538269043 9.917243957519531 L7.030909538269043 9.917243957519531"></path></svg>