<svg xmlns="http://www.w3.org/2000/svg" viewBox="0.0 0.0 24.0 24.0" height="200px" width="200px"><path fill="none" stroke="black" stroke-width=".3" stroke-opacity="1.0"  filling="0" d="M14.121054649353027 10.637899398803711 L14.121054649353027 10.637899398803711 C14.284744262695312 10.719368934631348 14.448434829711914 10.8008394241333 14.6121244430542 10.882308959960938 L14.6121244430542 10.882308959960938 C13.893839836120605 12.436254501342773 12.763544082641602 13.939393043518066 12.520214080810547 15.663567543029785 C12.259559631347656 17.510498046875 13.080700874328613 19.431140899658203 13.321257591247559 21.257164001464844 L13.321257591247559 21.257164001464844 C13.139237403869629 21.299293518066406 12.957216262817383 21.34142303466797 12.775196075439453 21.38355255126953 L12.775196075439453 21.38355255126953 C12.427155494689941 19.87002944946289 12.079042434692383 18.356525421142578 11.730989456176758 16.84300422668457 L11.730989456176758 16.84300422668457 C10.80855941772461 18.369239807128906 10.113900184631348 19.944215774536133 9.141535758972168 21.438220977783203 L9.141535758972168 21.438220977783203 C9.014400482177734 21.380334854125977 8.887264251708984 21.322446823120117 8.76012897491455 21.26456069946289 L8.76012897491455 21.26456069946289 C9.67563247680664 19.22218132019043 10.967730522155762 17.35797119140625 11.127874374389648 15.055158615112305 C11.23237133026123 13.552533149719238 10.740440368652344 12.25761604309082 10.511514663696289 10.805127143859863 L10.511514663696289 10.805127143859863 C11.391464233398438 12.296480178833008 11.585122108459473 13.060973167419434 11.929089546203613 14.69702434539795 L11.929089546203613 14.69702434539795 C12.659713745117188 13.343966484069824 13.390371322631836 11.990924835205078 14.121054649353027 10.637899398803711 L14.121054649353027 10.637899398803711"></path></svg>