<svg xmlns="http://www.w3.org/2000/svg" viewBox="0.0 0.0 24.0 24.0" height="200px" width="200px"><path fill="none" stroke="black" stroke-width=".3" stroke-opacity="1.0"  filling="0" d="M15.723382949829102 15.229458808898926 L15.723382949829102 15.229458808898926 C15.48830795288086 16.948993682861328 15.253129005432129 18.66851234436035 15.017940521240234 20.388031005859375 C14.782751083374023 22.107547760009766 14.547552108764648 23.827064514160156 14.312437057495117 25.546592712402344 L14.312437057495117 25.546592712402344 C13.872241973876953 25.216995239257812 13.432045936584473 24.887399673461914 12.991850852966309 24.557802200317383 L12.991850852966309 24.557802200317383 C13.53731918334961 23.103654861450195 13.881818771362305 21.661479949951172 14.123307228088379 20.19830322265625 C14.364795684814453 18.73512840270996 14.503273963928223 17.25094985961914 14.636699676513672 15.712794303894043 L14.636699676513672 15.712794303894043 C13.976093292236328 15.791860580444336 13.253393173217773 15.659416198730469 12.65488052368164 15.949992179870605 C11.74675178527832 16.390886306762695 11.031208038330078 17.889110565185547 10.638358116149902 19.491661071777344 C10.245508193969727 21.09421157836914 10.175352096557617 22.80108642578125 10.558000564575195 23.659282684326172 C11.002034187316895 24.6551513671875 12.30780029296875 24.421024322509766 13.074682235717773 24.476852416992188 L13.074682235717773 24.476852416992188 C10.984457969665527 25.897424697875977 9.65772819519043 25.225383758544922 9.368412971496582 22.55525016784668 C9.142136573791504 20.46691131591797 9.582995414733887 18.30232048034668 10.654365539550781 16.826385498046875 C11.725735664367676 15.350449562072754 13.427616119384766 14.563170433044434 15.723382949829102 15.229458808898926 L15.723382949829102 15.229458808898926"></path></svg>