<svg xmlns="http://www.w3.org/2000/svg" viewBox="0.0 0.0 24.0 24.0" height="200px" width="200px"><path fill="none" stroke="black" stroke-width=".3" stroke-opacity="1.0"  filling="0" d="M14.719135284423828 12.55057430267334 L14.719135284423828 12.55057430267334 C14.44462776184082 14.300495147705078 14.170097351074219 16.0504150390625 13.895581245422363 17.800336837768555 C13.621065139770508 19.550256729125977 13.346563339233398 21.300180435180664 13.072111129760742 23.05010986328125 L13.072111129760742 23.05010986328125 C12.848299980163574 23.05010986328125 12.624488830566406 23.05010986328125 12.400677680969238 23.05010986328125 L12.400677680969238 23.05010986328125 C12.613775253295898 21.895586013793945 12.826842308044434 20.741056442260742 13.039881706237793 19.58652114868164 L13.039881706237793 19.58652114868164 C12.239877700805664 19.653038024902344 11.087065696716309 20.080415725708008 10.50395393371582 19.138973236083984 C9.549903869628906 17.59864616394043 10.203123092651367 14.004016876220703 11.494268417358398 12.80338191986084 C12.496254920959473 11.871634483337402 13.572930335998535 12.374540328979492 14.719135284423828 12.55057430267334 L14.719135284423828 12.55057430267334"></path>
<path fill="none" stroke="black" stroke-width=".3" stroke-opacity="1.0"  filling="0" d="M13.913080215454102 13.032328605651855 L13.913080215454102 13.032328605651855 C13.866436004638672 13.383218765258789 13.53173542022705 15.904289245605469 13.481697082519531 16.267915725708008 C13.385631561279297 16.966018676757812 12.792718887329102 20.788053512573242 11.107791900634766 18.72725486755371 C10.29428768157959 17.732275009155273 11.046900749206543 13.479982376098633 12.346039772033691 12.987720489501953 C12.834694862365723 12.802562713623047 13.39073371887207 13.01745891571045 13.913080215454102 13.032328605651855 L13.913080215454102 13.032328605651855"></path></svg>