<svg xmlns="http://www.w3.org/2000/svg" viewBox="0.0 0.0 24.0 24.0" height="200px" width="200px"><path fill="none" stroke="black" stroke-width=".3" stroke-opacity="1.0"  filling="0" d="M10.889972686767578 15.09422492980957 L10.889972686767578 15.09422492980957 C11.26821517944336 15.40401840209961 11.646456718444824 15.713811874389648 12.024699211120605 16.023605346679688 L12.024699211120605 16.023605346679688 C13.550298690795898 15.401402473449707 13.858810424804688 14.959025382995605 15.325237274169922 15.887999534606934 L15.325237274169922 15.887999534606934 C14.631266593933105 16.107585906982422 13.872276306152344 16.180381774902344 13.243324279785156 16.54676055908203 C11.931743621826172 17.3107852935791 11.28398323059082 18.991912841796875 10.91736888885498 20.809843063354492 C10.55075454711914 22.62777328491211 10.465288162231445 24.58250617980957 10.278295516967773 25.893741607666016 L10.278295516967773 25.893741607666016 C9.991425514221191 25.84950828552246 9.704556465148926 25.805274963378906 9.417686462402344 25.76104164123535 L9.417686462402344 25.76104164123535 C9.663076400756836 23.983240127563477 9.908455848693848 22.20543670654297 10.153834342956543 20.42763328552246 C10.399211883544922 18.649829864501953 10.644588470458984 16.872028350830078 10.889972686767578 15.09422492980957 L10.889972686767578 15.09422492980957"></path></svg>