<svg xmlns="http://www.w3.org/2000/svg" viewBox="0.0 0.0 24.0 24.0" height="200px" width="200px"><path fill="none" stroke="black" stroke-width=".3" stroke-opacity="1.0"  filling="0" d="M13.815160751342773 15.408525466918945 L13.815160751342773 15.408525466918945 C14.030391693115234 15.645170211791992 14.245623588562012 15.881814956665039 14.460854530334473 16.118459701538086 L14.460854530334473 16.118459701538086 C13.772745132446289 16.2227783203125 13.016154289245605 16.1144962310791 12.396526336669922 16.431415557861328 C11.089137077331543 17.1001033782959 11.975659370422363 18.725814819335938 12.272907257080078 19.518077850341797 C12.820455551147461 20.97747230529785 14.2720308303833 22.600677490234375 13.651627540588379 24.306440353393555 C13.05871868133545 25.936607360839844 10.656999588012695 26.836835861206055 9.741247177124023 25.077510833740234 L9.741247177124023 25.077510833740234 C10.142626762390137 25.030031204223633 11.974700927734375 24.916610717773438 12.367158889770508 24.502622604370117 C13.452857971191406 23.35736083984375 12.314179420471191 21.50935935974121 11.446405410766602 19.73656463623047 C10.578632354736328 17.963769912719727 9.981761932373047 16.26618194580078 12.151076316833496 15.42174243927002 C12.668004989624023 15.22052001953125 13.260465621948242 15.412931442260742 13.815160751342773 15.408525466918945 L13.815160751342773 15.408525466918945"></path></svg>