<svg xmlns="http://www.w3.org/2000/svg" viewBox="0.0 0.0 24.0 24.0" height="200px" width="200px"><path fill="none" stroke="black" stroke-width=".3" stroke-opacity="1.0"  filling="0" d="M13.681632995605469 12.888969421386719 L13.681632995605469 12.888969421386719 C14.00450611114502 14.245465278625488 14.32729434967041 15.601984977722168 14.65017318725586 16.958480834960938 L14.65017318725586 16.958480834960938 C15.004534721374512 16.037538528442383 15.358835220336914 15.116573333740234 15.713041305541992 14.195570945739746 L15.713041305541992 14.195570945739746 C15.447806358337402 13.804361343383789 15.182570457458496 13.413151741027832 14.917335510253906 13.021942138671875 L14.917335510253906 13.021942138671875 C15.799661636352539 13.021942138671875 16.681987762451172 13.021942138671875 17.564313888549805 13.021942138671875 L17.564313888549805 13.021942138671875 C16.900726318359375 14.15312671661377 16.37363052368164 15.319233894348145 15.887290954589844 16.504390716552734 C15.400952339172363 17.68954849243164 14.95537281036377 18.893756866455078 14.454822540283203 20.10114097595215 L14.454822540283203 20.10114097595215 C13.965937614440918 20.10114097595215 13.477051734924316 20.10114097595215 12.988166809082031 20.10114097595215 L12.988166809082031 20.10114097595215 C12.675415992736816 18.868289947509766 12.36271858215332 17.635425567626953 12.050055503845215 16.40255355834961 L12.050055503845215 16.40255355834961 C11.947677612304688 16.657367706298828 10.709249496459961 19.740304946899414 10.569706916809082 20.087753295898438 L10.569706916809082 20.087753295898438 C10.12413215637207 20.13532257080078 9.678556442260742 20.182893753051758 9.23298168182373 20.2304630279541 L9.23298168182373 20.2304630279541 C8.822592735290527 18.96493911743164 8.542156219482422 17.733383178710938 8.195951461791992 16.527101516723633 C7.849747180938721 15.320819854736328 7.437774658203125 14.139812469482422 6.7643141746521 12.975386619567871 L6.7643141746521 12.975386619567871 C8.124673843383789 12.975386619567871 9.485031127929688 12.975386619567871 10.845389366149902 12.975386619567871 L10.845389366149902 12.975386619567871 C10.178238868713379 14.760645866394043 10.262900352478027 15.116392135620117 10.685335159301758 16.90249252319336 L10.685335159301758 16.90249252319336 C11.220726013183594 15.596418380737305 11.756101608276367 14.290343284606934 12.291352272033691 12.984210968017578 L12.291352272033691 12.984210968017578 C12.754778861999512 12.95246410369873 13.218206405639648 12.920716285705566 13.681632995605469 12.888969421386719 L13.681632995605469 12.888969421386719"></path></svg>