<svg xmlns="http://www.w3.org/2000/svg" viewBox="0.0 0.0 24.0 24.0" height="200px" width="200px"><path fill="none" stroke="black" stroke-width=".3" stroke-opacity="1.0"  filling="0" d="M15.817846298217773 17.579864501953125 C16.122350692749023 17.797977447509766 16.42685317993164 18.01523780822754 16.73135757446289 18.233348846435547 C15.651908874511719 20.135644912719727 14.701617240905762 22.127750396728516 13.457085609436035 23.915428161621094 C12.109912872314453 25.85022735595703 11.883245468139648 27.6695499420166 12.793335914611816 29.8652286529541 C13.63328742980957 31.89069175720215 14.107150077819824 34.06755828857422 14.742673873901367 36.178550720214844 C14.351780891418457 36.31883239746094 13.960886001586914 36.4591064453125 13.569992065429688 36.599388122558594 C12.63338565826416 34.15309143066406 11.696779251098633 31.7059383392334 10.625883102416992 28.908950805664062 C8.894659042358398 31.688831329345703 7.30884313583374 34.234352111816406 5.723883152008057 36.77986526489258 C5.358649253845215 36.52753448486328 4.9942708015441895 36.27691650390625 4.629892826080322 36.02544403076172 C5.7940216064453125 33.95465087890625 6.819583892822266 31.789764404296875 8.158204078674316 29.838714599609375 C9.680723190307617 27.61908721923828 9.87916374206543 25.513221740722656 8.771488189697266 23.061792373657227 C8.065826416015625 21.50078010559082 7.786983013153076 19.748172760009766 7.3165411949157715 18.081098556518555 C7.724542617797852 17.94167709350586 8.13339900970459 17.801401138305664 8.541399955749512 17.661977767944336 C9.347137451171875 19.764423370361328 10.153730392456055 21.866016387939453 11.166462898254395 24.50733184814453 C12.897687911987305 21.928455352783203 14.357767105102539 19.754159927368164 15.817846298217773 17.579864501953125"></path></svg>