<svg xmlns="http://www.w3.org/2000/svg" viewBox="0.0 0.0 24.0 24.0" height="200px" width="200px"><path fill="none" stroke="black" stroke-width=".3" stroke-opacity="1.0"  filling="0" d="M14.391755104064941 13.419134140014648 L14.391755104064941 13.419134140014648 C14.600637435913086 13.419134140014648 17.922489166259766 13.419134140014648 18.002683639526367 13.419134140014648 L18.002683639526367 13.419134140014648 C16.74321174621582 14.880733489990234 15.483742713928223 16.342334747314453 14.224367141723633 17.804018020629883 L14.224367141723633 17.804018020629883 C15.248167991638184 19.6165771484375 16.272064208984375 21.4290828704834 17.29602813720703 23.241552352905273 L17.29602813720703 23.241552352905273 C15.418704986572266 23.806882858276367 14.014437675476074 23.67891502380371 12.06428050994873 23.429649353027344 L12.06428050994873 23.429649353027344 C12.166263580322266 22.4638614654541 12.268217086791992 21.498069763183594 12.370152473449707 20.532276153564453 L12.370152473449707 20.532276153564453 C11.871420860290527 20.961856842041016 11.123095512390137 21.21175193786621 10.873956680297852 21.821016311645508 C10.661096572875977 22.341562271118164 11.066978454589844 22.929100036621094 11.16348934173584 23.483142852783203 L11.16348934173584 23.483142852783203 C9.843220710754395 23.483142852783203 8.522953033447266 23.483142852783203 7.20268440246582 23.483142852783203 L7.20268440246582 23.483142852783203 C8.569592475891113 22.028179168701172 9.936422348022461 20.573129653930664 11.303267478942871 19.11810302734375 L11.303267478942871 19.11810302734375 C10.18714714050293 17.229263305664062 9.071069717407227 15.340400695800781 7.955069065093994 13.45149040222168 L7.955069065093994 13.45149040222168 C9.79404354095459 13.45149040222168 11.633008003234863 13.45149040222168 13.471982955932617 13.45149040222168 L13.471982955932617 13.45149040222168 C13.283082008361816 14.345004081726074 13.342550277709961 15.340851783752441 13.698473930358887 16.181903839111328 L13.698473930358887 16.181903839111328 C14.2720947265625 15.425291061401367 14.519579887390137 14.359966278076172 14.391755104064941 13.419134140014648 L14.391755104064941 13.419134140014648"></path></svg>