<svg xmlns="http://www.w3.org/2000/svg" viewBox="0.0 0.0 24.0 24.0" height="200px" width="200px"><path fill="none" stroke="black" stroke-width=".3" stroke-opacity="1.0"  filling="0" d="M15.422712326049805 9.287430763244629 C15.626502990722656 9.337952613830566 15.82972526550293 9.389041900634766 16.03351593017578 9.439563751220703 C16.085172653198242 9.909019470214844 16.232765197753906 10.391530990600586 16.172025680541992 10.845660209655762 C15.784879684448242 13.740163803100586 15.340970039367676 16.627288818359375 14.938497543334961 19.519521713256836 C14.78863525390625 20.59467315673828 14.361754417419434 21.77767562866211 15.449960708618164 22.17276954650879 C14.998669624328613 23.31036376953125 14.52978229522705 24.28787612915039 14.225515365600586 25.314205169677734 C13.919546127319336 26.346782684326172 13.7781982421875 27.427608489990234 13.56475830078125 28.4874324798584 C13.287172317504883 28.46018409729004 13.010152816772461 28.4323673248291 12.732566833496094 28.405120849609375 C12.844964027404785 26.693622589111328 12.957928657531738 24.98212432861328 13.083381652832031 23.073646545410156 C11.548425674438477 22.976009368896484 10.169576644897461 22.88858985900879 8.161760330200195 22.760866165161133 C10.75029468536377 17.9578857421875 13.086786270141602 13.622659683227539 15.422712326049805 9.287430763244629"></path>
<path fill="none" stroke="black" stroke-width=".3" stroke-opacity="1.0"  filling="0" d="M14.084734916687012 13.627767562866211 C14.231191635131836 13.682831764221191 14.377647399902344 13.737894058227539 14.524104118347168 13.79295825958252 C14.182940483093262 16.373544692993164 13.841207504272461 18.954700469970703 13.45746898651123 21.852609634399414 C12.206344604492188 21.852609634399414 11.203287124633789 21.852609634399414 9.727935791015625 21.852609634399414 C11.270271301269531 18.94107437133789 12.67750358581543 16.284421920776367 14.084734916687012 13.627767562866211"></path></svg>