<svg xmlns="http://www.w3.org/2000/svg" viewBox="0.0 0.0 24.0 24.0" height="200px" width="200px"><path fill="none" stroke="black" stroke-width=".3" stroke-opacity="1.0"  filling="0" d="M14.434588432312012 9.757356643676758 L14.434588432312012 9.757356643676758 C14.339212417602539 11.845144271850586 14.243738174438477 13.932928085327148 14.148334503173828 16.020715713500977 L14.148334503173828 16.020715713500977 C14.747788429260254 16.07587432861328 15.347241401672363 16.131032943725586 15.946695327758789 16.18619155883789 L15.946695327758789 16.18619155883789 C15.946695327758789 16.60093879699707 15.946695327758789 17.015684127807617 15.946695327758789 17.430431365966797 L15.946695327758789 17.430431365966797 C15.338683128356934 17.49995994567871 14.730669975280762 17.569490432739258 14.122657775878906 17.639019012451172 L14.122657775878906 17.639019012451172 C14.081130027770996 18.180461883544922 14.039602279663086 18.721904754638672 13.998074531555176 19.263347625732422 L13.998074531555176 19.263347625732422 C14.47527027130127 19.61374282836914 14.95246696472168 19.96413803100586 15.429662704467773 20.314533233642578 L15.429662704467773 20.314533233642578 C13.698873519897461 20.52657699584961 12.074045181274414 20.544628143310547 10.33382797241211 20.518047332763672 L10.33382797241211 20.518047332763672 C10.284903526306152 20.381418228149414 10.235980033874512 20.24479103088379 10.187055587768555 20.10816192626953 L10.187055587768555 20.10816192626953 C10.615433692932129 19.851388931274414 11.043810844421387 19.594615936279297 11.472188949584961 19.33784294128418 L11.472188949584961 19.33784294128418 C11.47208309173584 18.727928161621094 11.471977233886719 18.118013381958008 11.471871376037598 17.508098602294922 L11.471871376037598 17.508098602294922 C10.343127250671387 17.508098602294922 9.21438217163086 17.508098602294922 8.085638046264648 17.508098602294922 L8.085638046264648 17.508098602294922 C8.100923538208008 16.691722869873047 8.66537094116211 15.95372200012207 9.169374465942383 15.311317443847656 C9.810816764831543 14.493733406066895 10.60495376586914 13.177766799926758 11.499813079833984 12.02993392944336 C12.394672393798828 10.882102012634277 13.390254974365234 9.902403831481934 14.434588432312012 9.757356643676758 L14.434588432312012 9.757356643676758"></path>
<path fill="none" stroke="black" stroke-width=".3" stroke-opacity="1.0"  filling="0" d="M11.498183250427246 13.67362117767334 L11.498183250427246 13.67362117767334 C11.594869613647461 13.722439765930176 11.69155502319336 13.771259307861328 11.788241386413574 13.820077896118164 L11.788241386413574 13.820077896118164 C11.726850509643555 14.555103302001953 11.665457725524902 15.290128707885742 11.6040620803833 16.02515411376953 L11.6040620803833 16.02515411376953 C10.945857048034668 16.02515411376953 10.287651062011719 16.02515411376953 9.629446029663086 16.02515411376953 L9.629446029663086 16.02515411376953 C10.252431869506836 15.241368293762207 10.875354766845703 14.457531929016113 11.498183250427246 13.67362117767334 L11.498183250427246 13.67362117767334"></path></svg>