<svg xmlns="http://www.w3.org/2000/svg" viewBox="0.0 0.0 24.0 24.0" height="200px" width="200px"><path fill="none" stroke="black" stroke-width=".3" stroke-opacity="1.0"  filling="0" d="M10.109095573425293 9.899120330810547 L10.109095573425293 9.899120330810547 C11.898802757263184 9.899120330810547 13.68850040435791 9.899120330810547 15.4782075881958 9.899120330810547 L15.4782075881958 9.899120330810547 C15.432969093322754 10.538543701171875 15.38772964477539 11.17796802520752 15.342491149902344 11.817391395568848 L15.342491149902344 11.817391395568848 C13.912885665893555 11.817391395568848 12.483274459838867 11.817391395568848 11.053668022155762 11.817391395568848 L11.053668022155762 11.817391395568848 C10.949004173278809 12.580475807189941 10.84433650970459 13.343559265136719 10.739664077758789 14.10664176940918 L10.739664077758789 14.10664176940918 C11.890348434448242 14.361242294311523 13.372041702270508 14.532059669494629 14.407002449035645 15.242864608764648 C16.037935256958008 16.362979888916016 15.629563331604004 18.93033790588379 14.128372192382812 19.96609115600586 C11.926752090454102 21.485107421875 9.852789878845215 20.56195640563965 8.481462478637695 18.668819427490234 L8.481462478637695 18.668819427490234 C9.116911888122559 18.919260025024414 9.706724166870117 19.368785858154297 10.387810707092285 19.42013931274414 C11.774824142456055 19.524721145629883 13.377312660217285 18.222122192382812 12.600960731506348 16.720138549804688 C11.775287628173828 15.122735977172852 11.141877174377441 15.418830871582031 9.559829711914062 15.172205924987793 L9.559829711914062 15.172205924987793 C9.742928504943848 13.414512634277344 9.92600154876709 11.656814575195312 10.109095573425293 9.899120330810547 L10.109095573425293 9.899120330810547"></path></svg>