<svg xmlns="http://www.w3.org/2000/svg" viewBox="0.0 0.0 24.0 24.0" height="200px" width="200px"><path fill="none" stroke="black" stroke-width=".3" stroke-opacity="1.0"  filling="0" d="M13.876760482788086 10.720295906066895 L13.876760482788086 10.720295906066895 C13.954269409179688 10.79512882232666 14.031778335571289 10.869961738586426 14.10928726196289 10.944794654846191 L14.10928726196289 10.944794654846191 C13.414875984191895 12.20232105255127 12.720373153686523 13.459796905517578 12.025854110717773 14.717263221740723 L12.025854110717773 14.717263221740723 C14.069561004638672 15.568764686584473 14.3638916015625 16.335607528686523 13.93208122253418 18.561553955078125 C13.709538459777832 19.708742141723633 13.127217292785645 21.87782096862793 11.431046485900879 21.48849868774414 C9.777392387390137 21.10893440246582 10.062416076660156 19.041446685791016 10.251267433166504 17.858430862426758 C10.413270950317383 16.843591690063477 10.891746520996094 15.35161304473877 11.543668746948242 13.967065811157227 C12.195591926574707 12.58251953125 13.020963668823242 11.305404663085938 13.876760482788086 10.720295906066895 L13.876760482788086 10.720295906066895"></path>
<path fill="none" stroke="black" stroke-width=".3" stroke-opacity="1.0"  filling="0" d="M12.540369033813477 15.60754680633545 L12.540369033813477 15.60754680633545 C13.401603698730469 16.64872169494629 13.603859901428223 18.444509506225586 12.888839721679688 19.73073387145996 C12.632997512817383 20.190959930419922 12.215249061584473 20.828310012817383 11.692800521850586 20.76265525817871 C11.183003425598145 20.698589324951172 11.032641410827637 19.953153610229492 10.846837043762207 19.474119186401367 C10.266931533813477 17.97902488708496 11.307331085205078 16.20862579345703 12.540369033813477 15.60754680633545 L12.540369033813477 15.60754680633545"></path></svg>