<svg xmlns="http://www.w3.org/2000/svg" viewBox="0.0 0.0 24.0 24.0" height="200px" width="200px"><path fill="none" stroke="black" stroke-width=".3" stroke-opacity="1.0"  filling="0" d="M16.103012084960938 9.798852920532227 L16.103012084960938 9.798852920532227 C13.909577369689941 11.086629867553711 12.595965385437012 12.200000762939453 11.438098907470703 14.491579055786133 L11.438098907470703 14.491579055786133 C12.280187606811523 14.144211769104004 12.71328067779541 13.897075653076172 13.794076919555664 13.971054077148438 C16.20017433166504 14.135746002197266 17.01551055908203 16.91661834716797 15.815285682678223 18.77812385559082 C14.536273956298828 20.76182746887207 11.602970123291016 21.045555114746094 9.801065444946289 19.683629989624023 C7.88322639465332 18.23407745361328 8.135457992553711 15.615484237670898 9.148113250732422 13.709512710571289 C9.827527046203613 12.43075180053711 10.88188648223877 11.47603988647461 12.108574867248535 10.829541206359863 C13.335264205932617 10.183042526245117 14.734281539916992 9.844758033752441 16.103012084960938 9.798852920532227 L16.103012084960938 9.798852920532227"></path>
<path fill="none" stroke="black" stroke-width=".3" stroke-opacity="1.0"  filling="0" d="M12.39914608001709 15.163140296936035 L12.39914608001709 15.163140296936035 C12.739286422729492 15.351704597473145 13.19050121307373 15.414539337158203 13.41956615447998 15.728833198547363 C14.120641708374023 16.690759658813477 14.268302917480469 19.570728302001953 12.436120986938477 19.581867218017578 C10.695937156677246 19.59244728088379 10.83894157409668 16.70277976989746 11.419018745422363 15.795082092285156 C11.628347396850586 15.46752643585205 12.072437286376953 15.373787879943848 12.39914608001709 15.163140296936035 L12.39914608001709 15.163140296936035"></path></svg>