<svg xmlns="http://www.w3.org/2000/svg" viewBox="0.0 0.0 24.0 24.0" height="200px" width="200px"><path fill="none" stroke="black" stroke-width=".3" stroke-opacity="1.0"  filling="0" d="M14.526496887207031 9.637094497680664 C15.894932746887207 9.59404468536377 16.751352310180664 10.882118225097656 16.70772933959961 12.210947036743164 C16.63081169128418 14.556344985961914 16.737003326416016 17.069353103637695 15.925355911254883 19.1903133392334 C14.710753440856934 22.364578247070312 12.778642654418945 25.266761779785156 11.116314888000488 28.264806747436523 C10.968793869018555 28.53057289123535 10.557229995727539 28.64881706237793 10.26850414276123 28.8359432220459 C10.122706413269043 28.709665298461914 9.977482795715332 28.58395767211914 9.832258224487305 28.45767593383789 C11.068098068237305 26.22593116760254 12.303937911987305 23.994186401367188 13.518538475036621 21.800331115722656 C12.53870677947998 21.36924934387207 11.40848445892334 21.19474983215332 10.841938018798828 20.535789489746094 C10.217991828918457 19.81024169921875 9.732380867004395 18.5870304107666 9.857514381408691 17.67263412475586 C10.160017013549805 15.456390380859375 10.619797706604004 13.193076133728027 11.501474380493164 11.15821647644043 C11.857358932495117 10.336236953735352 13.465729713439941 9.670387268066406 14.526496887207031 9.637094497680664"></path>
<path fill="none" stroke="black" stroke-width=".3" stroke-opacity="1.0"  filling="0" d="M14.132153511047363 10.808645248413086 C15.423672676086426 10.798887252807617 15.518383979797363 12.126568794250488 15.633758544921875 13.1798734664917 C15.675086975097656 13.556997299194336 15.67279052734375 13.938713073730469 15.690585136413574 14.318132400512695 C15.765780448913574 14.341093063354492 15.840975761413574 14.364625930786133 15.916171073913574 14.38758659362793 C15.485090255737305 15.924779891967773 15.199808120727539 17.52741050720215 14.552328109741211 18.967025756835938 C14.28598690032959 19.55940055847168 13.246458053588867 20.081172943115234 12.546168327331543 20.097820281982422 C12.125420570373535 20.10757827758789 11.293683052062988 19.064605712890625 11.315495491027832 18.521595001220703 C11.397578239440918 16.47066307067871 11.596758842468262 14.391605377197266 12.092702865600586 12.408407211303711 C12.266053199768066 11.715578079223633 13.419809341430664 10.813811302185059 14.132153511047363 10.808645248413086"></path></svg>