<svg xmlns="http://www.w3.org/2000/svg" viewBox="0.0 0.0 24.0 24.0" height="200px" width="200px"><path fill="none" stroke="black" stroke-width=".3" stroke-opacity="1.0"  filling="0" d="M15.629565238952637 8.707002639770508 C17.82052993774414 8.707002639770508 20.011493682861328 8.707002639770508 22.202455520629883 8.707002639770508 C22.237224578857422 8.845505714416504 22.271991729736328 8.983438491821289 22.306758880615234 9.121940612792969 C21.610824584960938 9.367597579956055 20.914894104003906 9.613253593444824 20.111236572265625 9.896529197692871 C19.831951141357422 15.095792770385742 19.55266571044922 20.29448699951172 19.26426124572754 25.653911590576172 C20.006362915039062 25.96169662475586 20.70685577392578 26.25181007385254 21.4073486328125 26.54192352294922 C21.386829376220703 26.689544677734375 21.366878509521484 26.836597442626953 21.346363067626953 26.984222412109375 C19.12860870361328 26.984222412109375 16.910858154296875 26.984222412109375 14.69310474395752 26.984222412109375 C14.654346466064453 26.872507095336914 14.615018844604492 26.760791778564453 14.576261520385742 26.649078369140625 C15.255094528198242 26.369220733642578 15.933929443359375 26.088794708251953 16.812252044677734 25.72686767578125 C16.947906494140625 23.39398193359375 17.088687896728516 20.975597381591797 17.239160537719727 18.389076232910156 C14.123135566711426 18.389076232910156 11.31945514678955 18.389076232910156 8.241618156433105 18.389076232910156 C8.076897621154785 20.837665557861328 7.914455413818359 23.253198623657227 7.744034290313721 25.786144256591797 C8.474165916442871 26.023820877075195 9.13818073272705 26.24040985107422 9.802764892578125 26.45699691772461 C9.76685905456543 26.65306854248047 9.730380058288574 26.84856605529785 9.693902969360352 27.044635772705078 C7.533717155456543 27.044635772705078 5.373531818389893 27.044635772705078 3.213346481323242 27.044635772705078 C3.1780080795288086 26.891315460205078 3.1426706314086914 26.737995147705078 3.1067628860473633 26.584671020507812 C3.7308788299560547 26.369792938232422 4.355565547943115 26.15491485595703 5.3045654296875 25.828323364257812 C5.613489151000977 20.656986236572266 5.933241844177246 15.300982475280762 6.25755500793457 9.873159408569336 C5.458456993103027 9.63890266418457 4.795012474060059 9.44397258758545 4.130998134613037 9.249043464660645 C6.343620300292969 8.242476463317871 8.547693252563477 8.39123821258545 10.882859230041504 9.035874366760254 C10.20744514465332 9.318009376525879 9.53203010559082 9.600144386291504 8.708423614501953 9.944406509399414 C8.539142608642578 12.116560935974121 8.36473274230957 14.359960556030273 8.174932479858398 16.802852630615234 C11.236810684204102 16.802852630615234 14.123706817626953 16.802852630615234 17.21636199951172 16.802852630615234 C17.411861419677734 14.526392936706543 17.603940963745117 12.28983211517334 17.80742073059082 9.91476821899414 C16.988374710083008 9.655431747436523 16.273632049560547 9.429153442382812 15.558319091796875 9.202876091003418 C15.582258224487305 9.037585258483887 15.605627059936523 8.872293472290039 15.629565238952637 8.707002639770508"></path></svg>