<svg xmlns="http://www.w3.org/2000/svg" viewBox="0.0 0.0 24.0 24.0" height="200px" width="200px"><path fill="none" stroke="black" stroke-width=".3" stroke-opacity="1.0"  filling="0" d="M9.031102180480957 9.898021697998047 C9.812085151672363 9.898021697998047 10.37067699432373 9.898021697998047 11.181854248046875 9.898021697998047 C11.181854248046875 12.440717697143555 11.181854248046875 14.915477752685547 11.181854248046875 17.39023780822754 C11.39437484741211 17.433786392211914 11.607476234436035 17.477914810180664 11.81999683380127 17.521465301513672 C12.441880226135254 15.43864917755127 13.031827926635742 13.345380783081055 13.696098327636719 11.275920867919922 C14.142622947692871 9.884666442871094 14.189657211303711 9.899763107299805 16.480348587036133 10.086735725402832 C15.691815376281738 12.58007526397705 14.833024978637695 15.003156661987305 14.187914848327637 17.481399536132812 C13.943458557128906 18.419740676879883 13.964361190795898 19.558408737182617 14.257593154907227 20.480493545532227 C15.131482124328613 23.22641944885254 16.200471878051758 25.910213470458984 17.285137176513672 28.869821548461914 C16.40544319152832 28.95343589782715 15.709234237670898 29.019628524780273 14.892251014709473 29.097436904907227 C13.835454940795898 26.19415283203125 12.823370933532715 23.41396713256836 11.811285972595215 20.63436508178711 C11.673089981079102 20.64133071899414 11.534893035888672 20.648880004882812 11.396116256713867 20.65584945678711 C11.396116256713867 23.35706329345703 11.396116256713867 26.05828094482422 11.396116256713867 28.918018341064453 C10.47925853729248 28.918018341064453 9.863762855529785 28.918018341064453 9.03052043914795 28.918018341064453 C9.031102180480957 22.671890258789062 9.031102180480957 16.443185806274414 9.031102180480957 9.898021697998047"></path></svg>