<svg xmlns="http://www.w3.org/2000/svg" viewBox="0.0 0.0 24.0 24.0" height="200px" width="200px"><path fill="none" stroke="black" stroke-width=".3" stroke-opacity="1.0"  filling="0" d="M15.141240119934082 8.491192817687988 C16.99820327758789 8.491192817687988 18.855754852294922 8.491192817687988 20.712718963623047 8.491192817687988 C17.02704429626465 10.118611335754395 15.237767219543457 13.661849975585938 12.224247932434082 16.386966705322266 C15.070022583007812 20.055572509765625 16.427282333374023 24.645889282226562 20.94991683959961 27.459293365478516 C18.366647720336914 27.459293365478516 16.16301155090332 27.459293365478516 13.959375381469727 27.459293365478516 C13.913466453552246 27.336870193481445 13.86755657196045 27.21385955810547 13.82105827331543 27.091434478759766 C14.32723617553711 26.822452545166016 14.83282470703125 26.554061889648438 15.546180725097656 26.175018310546875 C13.792219161987305 23.547603607177734 12.019421577453613 20.89311981201172 9.826969146728516 17.610031127929688 C9.609196662902832 20.840736389160156 9.437331199645996 23.388690948486328 9.250164031982422 26.155006408691406 C10.03591537475586 26.48343276977539 10.616253852844238 26.725929260253906 11.777517318725586 27.211502075195312 C8.983537673950195 27.98430633544922 6.801090717315674 27.747695922851562 4.502105712890625 27.03139877319336 C5.150129795074463 26.81009292602539 5.798153877258301 26.588787078857422 6.748707294464111 26.263893127441406 C7.042407989501953 20.983169555664062 7.346113681793213 15.523521423339844 7.659237384796143 9.890829086303711 C6.957063674926758 9.583592414855957 6.251358985900879 9.275177955627441 5.545065402984619 8.96676254272461 C5.583910942077637 8.81608772277832 5.622757434844971 8.665999412536621 5.6616034507751465 8.515323638916016 C7.891725540161133 8.515323638916016 10.121847152709961 8.515323638916016 12.352557182312012 8.515323638916016 C12.399055480957031 8.658348083496094 12.445552825927734 8.800783157348633 12.492051124572754 8.943807601928711 C11.791054725646973 9.209257125854492 11.090058326721191 9.474116325378418 10.226613998413086 9.800777435302734 C10.057692527770996 11.948498725891113 9.882884979248047 14.170379638671875 9.708077430725098 16.392850875854492 C9.86699390411377 16.501737594604492 10.025320053100586 16.610624313354492 10.184236526489258 16.719511032104492 C12.344318389892578 14.445836067199707 14.504987716674805 12.172159194946289 16.706857681274414 9.854338645935059 C16.018810272216797 9.476471900939941 15.5191068649292 9.202195167541504 15.019404411315918 8.92791748046875 C15.060016632080078 8.782538414001465 15.100628852844238 8.636570930480957 15.141240119934082 8.491192817687988"></path></svg>