<svg xmlns="http://www.w3.org/2000/svg" viewBox="0.0 0.0 24.0 24.0" height="200px" width="200px"><path fill="none" stroke="black" stroke-width=".3" stroke-opacity="1.0"  filling="0" d="M10.66070556640625 10.614397048950195 L10.66070556640625 10.614397048950195 C11.09347152709961 10.614397048950195 11.526237487792969 10.614397048950195 11.959003448486328 10.614397048950195 L11.959003448486328 10.614397048950195 C11.959003448486328 12.198457717895508 11.959003448486328 13.782516479492188 11.959003448486328 15.366576194763184 C11.959003448486328 16.95063591003418 11.959003448486328 18.53469467163086 11.959003448486328 20.118755340576172 L11.959003448486328 20.118755340576172 C12.83847427368164 20.17245864868164 13.717947959899902 20.22612762451172 14.597423553466797 20.279754638671875 L14.597423553466797 20.279754638671875 C14.597423553466797 20.658079147338867 14.597423553466797 21.03640365600586 14.597423553466797 21.41472816467285 L14.597423553466797 21.41472816467285 C13.52076530456543 21.41457176208496 11.740118026733398 21.41442108154297 10.66070556640625 21.414398193359375 L10.66070556640625 21.414398193359375 C10.66070556640625 19.614398956298828 10.66070556640625 17.81439781188965 10.66070556640625 16.01439666748047 C10.66070556640625 14.214397430419922 10.66070556640625 12.414396286010742 10.66070556640625 10.614397048950195 L10.66070556640625 10.614397048950195"></path></svg>