<svg xmlns="http://www.w3.org/2000/svg" viewBox="0.0 0.0 24.0 24.0" height="200px" width="200px"><path fill="none" stroke="black" stroke-width=".3" stroke-opacity="1.0"  filling="0" d="M15.172174453735352 7.776771545410156 C15.83228588104248 7.9663190841674805 16.53207015991211 8.01811408996582 17.48476791381836 8.179560661315918 C17.415342330932617 9.353766441345215 17.340953826904297 10.615583419799805 17.26656723022461 11.877950668334961 C17.079225540161133 11.898338317871094 16.892431259155273 11.918725967407227 16.705089569091797 11.939112663269043 C16.449970245361328 11.413447380065918 16.21689224243164 10.87566089630127 15.935876846313477 10.3643217086792 C14.956177711486816 8.584003448486328 12.884374618530273 8.063848495483398 11.283685684204102 9.181851387023926 C9.866483688354492 10.171467781066895 9.625140190124512 12.344106674194336 10.899629592895508 13.7965726852417 C11.550925254821777 14.538785934448242 12.427034378051758 15.08869457244873 13.22545051574707 15.694256782531738 C14.026070594787598 16.30202293395996 14.917607307434082 16.80234146118164 15.662023544311523 17.469066619873047 C17.65227699279785 19.2526912689209 18.136066436767578 22.061195373535156 16.901248931884766 24.200775146484375 C15.730900764465332 26.229049682617188 13.195144653320312 27.10901641845703 10.65828800201416 26.396556854248047 C9.673628807067871 26.119396209716797 8.670236587524414 25.906707763671875 7.64149808883667 25.65599822998047 C7.64149808883667 24.315387725830078 7.64149808883667 22.817184448242188 7.64149808883667 21.318984985351562 C7.82608699798584 21.27600860595703 8.010676383972168 21.23247528076172 8.194713592529297 21.189498901367188 C8.42448616027832 21.775772094726562 8.628911018371582 22.373620986938477 8.888437271118164 22.946121215820312 C9.53532600402832 24.372692108154297 10.523839950561523 25.45212173461914 12.203874588012695 25.369470596313477 C13.535118103027344 25.30390167236328 14.751200675964355 24.76886749267578 15.206888198852539 23.363239288330078 C15.707757949829102 21.817100524902344 15.284579277038574 20.45003890991211 14.010641098022461 19.4317684173584 C12.797313690185547 18.461437225341797 11.475987434387207 17.623348236083984 10.286905288696289 16.62546730041504 C7.9456562995910645 14.660009384155273 7.3803181648254395 12.086234092712402 8.687317848205566 9.780801773071289 C9.885767936706543 7.669323444366455 12.281015396118164 6.945845603942871 15.172174453735352 7.776771545410156"></path></svg>