<svg xmlns="http://www.w3.org/2000/svg" viewBox="0.0 0.0 24.0 24.0" height="200px" width="200px"><path fill="none" stroke="black" stroke-width=".3" stroke-opacity="1.0"  filling="0" d="M12.41069221496582 10.460416793823242 L12.41069221496582 10.460416793823242 C12.97481632232666 10.564626693725586 13.497479438781738 11.059040069580078 13.706136703491211 11.593416213989258 L13.706136703491211 11.593416213989258 C13.16592025756836 11.758599281311035 12.50637149810791 11.71216869354248 12.085488319396973 12.08896541595459 C11.756611824035645 12.383392333984375 12.15160083770752 13.926112174987793 12.243191719055176 14.171030044555664 C12.858410835266113 15.816141128540039 14.510699272155762 17.83968162536621 13.836977005004883 19.755756378173828 C13.540971755981445 20.59760093688965 12.52129077911377 21.760229110717773 11.392099380493164 21.179195404052734 C10.940203666687012 20.94666862487793 10.931735038757324 20.273006439208984 10.701553344726562 19.81991195678711 L10.701553344726562 19.81991195678711 C11.310178756713867 19.723730087280273 12.13454818725586 20.00604820251465 12.527429580688477 19.531368255615234 C13.136070251464844 18.79600715637207 11.88252067565918 16.72295570373535 11.642480850219727 16.20545196533203 C10.605990409851074 13.970870018005371 9.723164558410645 11.677351951599121 12.41069221496582 10.460416793823242 L12.41069221496582 10.460416793823242"></path></svg>