<svg xmlns="http://www.w3.org/2000/svg" viewBox="0.0 0.0 24.0 24.0" height="200px" width="200px"><path fill="none" stroke="black" stroke-width=".3" stroke-opacity="1.0"  filling="0" d="M7.972496032714844 9.831520080566406 C8.91630744934082 9.831520080566406 9.542083740234375 9.831520080566406 10.443567276000977 9.831520080566406 C10.946362495422363 13.273859977722168 11.455449104309082 16.75395393371582 11.963963508605957 20.234619140625 C12.139570236206055 20.24605941772461 12.315176010131836 20.25749969482422 12.490209579467773 20.268939971923828 C13.012453079223633 16.86835479736328 13.534695625305176 13.467769622802734 14.084966659545898 9.887004852294922 C14.836584091186523 9.887004852294922 15.516128540039062 9.887004852294922 16.511423110961914 9.887004852294922 C15.800989151000977 13.957982063293457 15.127163887023926 17.853351593017578 14.43903923034668 21.745288848876953 C14.108991622924805 23.612319946289062 13.821270942687988 25.491365432739258 13.369385719299316 27.329797744750977 C13.216087341308594 27.953285217285156 12.617767333984375 28.46809196472168 12.22251033782959 29.032093048095703 C11.930787086486816 28.905105590820312 11.639062881469727 28.7786922454834 11.347339630126953 28.65227699279785 C10.234785079956055 22.4471435546875 9.122230529785156 16.24143409729004 7.972496032714844 9.831520080566406"></path></svg>