<svg xmlns="http://www.w3.org/2000/svg" viewBox="0.0 0.0 24.0 24.0" height="200px" width="200px"><path fill="none" stroke="black" stroke-width=".3" stroke-opacity="1.0"  filling="0" d="M10.623336791992188 9.837003707885742 C11.174699783325195 11.715594291687012 11.68535041809082 13.456924438476562 12.200071334838867 15.211631774902344 C14.307232856750488 14.025153160095215 12.220428466796875 9.550271987915039 16.751726150512695 9.877135276794434 C15.974699020385742 12.370482444763184 15.1430025100708 14.5922212600708 14.623044967651367 16.88491439819336 C14.341547966003418 18.12489891052246 14.33747673034668 19.55099868774414 14.655034065246582 20.777606964111328 C15.352961540222168 23.472190856933594 16.334712982177734 26.09349250793457 17.271682739257812 28.9631404876709 C16.29690933227539 28.9631404876709 15.5035982131958 28.9631404876709 14.694583892822266 28.9631404876709 C13.951871871948242 26.782115936279297 13.251035690307617 24.72380828857422 12.375136375427246 22.150781631469727 C11.547510147094727 24.770339965820312 10.912395477294922 26.78095245361328 10.199926376342773 29.037586212158203 C9.369974136352539 29.037586212158203 8.72148323059082 29.037586212158203 8.013086318969727 29.037586212158203 C7.963068008422852 28.677570343017578 7.832787990570068 28.384443283081055 7.9049072265625 28.15412712097168 C8.680770874023438 25.66891860961914 9.61134147644043 23.223262786865234 10.235404968261719 20.70199966430664 C10.537839889526367 19.479461669921875 10.515157699584961 18.064992904663086 10.230171203613281 16.831987380981445 C9.714284896850586 14.59803581237793 8.892475128173828 12.43445873260498 8.11952018737793 9.994619369506836 C9.08207893371582 9.93413257598877 9.795710563659668 9.889348983764648 10.623336791992188 9.837003707885742"></path></svg>