<svg xmlns="http://www.w3.org/2000/svg" viewBox="0.0 0.0 24.0 24.0" height="200px" width="200px"><path fill="none" stroke="black" stroke-width=".3" stroke-opacity="1.0"  filling="0" d="M11.599181175231934 16.82695770263672 C14.350995063781738 16.63469886779785 16.46584701538086 18.218746185302734 16.754234313964844 21.132728576660156 C17.02674102783203 23.887048721313477 16.766773223876953 26.691524505615234 16.96237564086914 29.4583797454834 C17.053489685058594 30.749860763549805 15.974329948425293 32.59638977050781 18.264720916748047 33.26344299316406 C18.424381256103516 33.31024932861328 18.511314392089844 34.80652618408203 18.197011947631836 35.0380744934082 C17.483144760131836 35.563865661621094 16.13900375366211 36.24345779418945 15.688448905944824 35.93333435058594 C14.060096740722656 34.81321716308594 12.815427780151367 35.34234619140625 11.183732986450195 35.889869689941406 C10.19401741027832 36.222557067871094 8.317400932312012 35.60231399536133 7.618580341339111 34.76222610473633 C6.200878143310547 33.059478759765625 6.228463172912598 30.7707576751709 7.5007171630859375 28.949316024780273 C8.422724723815918 27.629413604736328 9.7952880859375 26.51514434814453 11.182897567749023 25.65750503540039 C13.038617134094238 24.510635375976562 14.533221244812012 23.143089294433594 13.197439193725586 21.04495620727539 C11.781408309936523 18.819766998291016 10.084512710571289 20.379573822021484 8.60328197479248 21.405235290527344 C8.265575408935547 21.63928985595703 7.901118755340576 21.834054946899414 7.184744358062744 22.26789093017578 C7.203970432281494 18.80221176147461 8.726161003112793 17.027576446533203 11.599181175231934 16.82695770263672"></path>
<path fill="none" stroke="black" stroke-width=".3" stroke-opacity="1.0"  filling="0" d="M13.05867862701416 27.08941650390625 C9.55036735534668 29.74008560180664 9.447550773620605 30.0460262298584 11.065871238708496 33.03273010253906 C13.99489688873291 31.414411544799805 13.99489688873291 31.414411544799805 13.05867862701416 27.08941650390625"></path></svg>