<svg xmlns="http://www.w3.org/2000/svg" viewBox="0.0 0.0 24.0 24.0" height="200px" width="200px"><path fill="none" stroke="black" stroke-width=".3" stroke-opacity="1.0"  filling="0" d="M14.316849708557129 10.756131172180176 L14.316849708557129 10.756131172180176 C14.316849708557129 12.546011924743652 14.316849708557129 14.335892677307129 14.316849708557129 16.12577247619629 C14.316849708557129 17.915653228759766 14.316849708557129 19.705533981323242 14.316849708557129 21.49541473388672 L14.316849708557129 21.49541473388672 C13.231986045837402 21.501779556274414 12.025795936584473 21.726839065551758 11.045676231384277 21.04857063293457 C9.528851509094238 19.99888801574707 9.530348777770996 16.77891731262207 10.526037216186523 15.414478302001953 C11.236750602722168 14.44055461883545 11.975053787231445 14.492642402648926 13.067269325256348 14.228387832641602 L13.067269325256348 14.228387832641602 C13.067269325256348 12.695745468139648 13.067269325256348 12.534810066223145 13.067269325256348 10.977778434753418 L13.067269325256348 10.977778434753418 C13.483796119689941 10.90389633178711 13.900322914123535 10.830013275146484 14.316849708557129 10.756131172180176 L14.316849708557129 10.756131172180176"></path>
<path fill="none" stroke="black" stroke-width=".3" stroke-opacity="1.0"  filling="0" d="M13.034626007080078 15.461320877075195 L13.034626007080078 15.461320877075195 C13.034626007080078 17.042232513427734 13.034626007080078 18.623140335083008 13.034626007080078 20.204050064086914 L13.034626007080078 20.204050064086914 C12.589835166931152 20.102842330932617 12.035383224487305 20.20989418029785 11.700254440307617 19.900426864624023 C10.055086135864258 18.381227493286133 11.578474044799805 16.068069458007812 13.034626007080078 15.461320877075195 L13.034626007080078 15.461320877075195"></path></svg>