<svg xmlns="http://www.w3.org/2000/svg" viewBox="0.0 0.0 24.0 24.0" height="200px" width="200px"><path fill="none" stroke="black" stroke-width=".3" stroke-opacity="1.0"  filling="0" d="M12.200511932373047 13.022439002990723 L12.200511932373047 13.022439002990723 C13.510331153869629 12.808828353881836 16.80006217956543 12.745119094848633 15.364736557006836 15.432366371154785 C14.524237632751465 17.005966186523438 12.17208480834961 17.165678024291992 10.68241024017334 17.497663497924805 L10.68241024017334 17.497663497924805 C10.585001945495605 18.61639976501465 10.380730628967285 23.230852127075195 13.109136581420898 21.98703956604004 C13.892765045166016 21.629802703857422 14.464430809020996 20.92405128479004 15.142077445983887 20.39255714416504 L15.142077445983887 20.39255714416504 C14.596832275390625 21.578693389892578 14.447751998901367 22.507869720458984 13.216341018676758 23.148128509521484 C11.179235458374023 24.207298278808594 9.44083309173584 22.583507537841797 8.955585479736328 20.70931625366211 C8.543323516845703 19.117019653320312 8.715350151062012 17.632261276245117 9.31004524230957 16.327096939086914 C9.904740333557129 15.021931648254395 10.922102928161621 13.896361351013184 12.200511932373047 13.022439002990723 L12.200511932373047 13.022439002990723"></path>
<path fill="none" stroke="black" stroke-width=".3" stroke-opacity="1.0"  filling="0" d="M13.591565132141113 13.638668060302734 L13.591565132141113 13.638668060302734 C11.52161979675293 13.904536247253418 11.499991416931152 14.258105278015137 10.822422981262207 16.253969192504883 L10.822422981262207 16.253969192504883 C13.179840087890625 16.107959747314453 13.599276542663574 16.03363800048828 13.591565132141113 13.638668060302734 L13.591565132141113 13.638668060302734"></path></svg>