<svg xmlns="http://www.w3.org/2000/svg" viewBox="0.0 0.0 24.0 24.0" height="200px" width="200px"><path fill="none" stroke="black" stroke-width=".3" stroke-opacity="1.0"  filling="0" d="M13.16357135772705 7.404001235961914 C13.492873191833496 7.3024702072143555 14.104742050170898 8.122772216796875 14.962648391723633 8.83993148803711 C14.06498908996582 9.457708358764648 13.508989334106445 10.137802124023438 13.050760269165039 10.077098846435547 C12.5382719039917 10.009411811828613 12.115497589111328 9.269689559936523 11.653507232666016 8.822741508483887 C12.147729873657227 8.31938648223877 12.57104206085205 7.585036754608154 13.16357135772705 7.404001235961914"></path>
<path fill="none" stroke="black" stroke-width=".3" stroke-opacity="1.0"  filling="0" d="M13.857093811035156 14.217284202575684 C13.857093811035156 18.00614356994629 13.857093811035156 21.54574203491211 13.857093811035156 25.251873016357422 C14.228835105895996 25.413570404052734 14.754215240478516 25.642417907714844 15.731378555297852 26.06841468811035 C13.459031105041504 26.88495635986328 11.600862503051758 26.528793334960938 9.761495590209961 26.451974868774414 C9.722816467285156 26.26449203491211 9.684675216674805 26.077547073364258 9.645998001098633 25.890602111816406 C10.174062728881836 25.691303253173828 10.701592445373535 25.492000579833984 11.521356582641602 25.18311309814453 C11.521356582641602 22.109262466430664 11.521356582641602 18.917768478393555 11.521356582641602 15.509246826171875 C11.240939140319824 15.38085651397705 10.722005844116211 15.143415451049805 10.203608512878418 14.905973434448242 C10.210592269897461 14.732995986938477 10.217039108276367 14.559480667114258 10.22402286529541 14.386502265930176 C11.426809310913086 14.330633163452148 12.629058837890625 14.274765014648438 13.857093811035156 14.217284202575684"></path></svg>