<svg xmlns="http://www.w3.org/2000/svg" viewBox="0.0 0.0 24.0 24.0" height="200px" width="200px"><path fill="none" stroke="black" stroke-width=".3" stroke-opacity="1.0"  filling="0" d="M11.925868034362793 9.146215438842773 L11.925868034362793 9.146215438842773 C12.19481372833252 9.448275566101074 12.282033920288086 10.014946937561035 12.058844566345215 10.352228164672852 L12.058844566345215 10.352228164672852 C11.746274948120117 10.095572471618652 11.758273124694824 9.514297485351562 11.925868034362793 9.146215438842773 L11.925868034362793 9.146215438842773"></path>
<path fill="none" stroke="black" stroke-width=".3" stroke-opacity="1.0"  filling="0" d="M12.346395492553711 12.165371894836426 L12.346395492553711 12.165371894836426 C12.704767227172852 13.252802848815918 12.76297664642334 14.658208847045898 12.658445358276367 16.061660766601562 C12.553915023803711 17.465110778808594 12.286643981933594 18.866605758666992 11.994054794311523 19.94621467590332 L11.994054794311523 19.94621467590332 C11.670510292053223 19.94621467590332 11.346965789794922 19.94621467590332 11.023421287536621 19.94621467590332 L11.023421287536621 19.94621467590332 C11.399694442749023 18.701738357543945 11.528470993041992 17.437665939331055 11.562701225280762 16.161069869995117 C11.596931457519531 14.88447380065918 11.536615371704102 13.595352172851562 11.53470230102539 12.300775527954102 L11.53470230102539 12.300775527954102 C11.805266380310059 12.255640983581543 12.075831413269043 12.210506439208984 12.346395492553711 12.165371894836426 L12.346395492553711 12.165371894836426"></path></svg>