<svg xmlns="http://www.w3.org/2000/svg" viewBox="0.0 0.0 24.0 24.0" height="200px" width="200px"><path fill="none" stroke="black" stroke-width=".3" stroke-opacity="1.0"  filling="0" d="M14.035883903503418 17.730527877807617 C15.752504348754883 17.977783203125 16.87471580505371 18.84857940673828 16.12047004699707 20.98061752319336 C15.137285232543945 20.98061752319336 14.034219741821289 20.98061752319336 12.136114120483398 20.98061752319336 C12.882036209106445 22.76799964904785 13.40068531036377 24.19657325744629 14.065021514892578 25.554384231567383 C14.909178733825684 27.27849769592285 16.137950897216797 28.856922149658203 16.724864959716797 30.654294967651367 C17.77798080444336 33.87940979003906 15.750005722045898 36.89723205566406 12.67890453338623 36.87641906738281 C10.389524459838867 36.86060333251953 8.52804946899414 36.13133239746094 9.099145889282227 32.69642639160156 C9.964116096496582 33.09185791015625 10.670909881591797 33.57887649536133 11.445137023925781 33.73622131347656 C13.164255142211914 34.08503723144531 14.219035148620605 33.026092529296875 13.581337928771973 31.38689613342285 C12.941976547241211 29.744373321533203 11.867216110229492 28.262516021728516 10.919828414916992 26.749858856201172 C9.633611679077148 24.697742462158203 8.67623519897461 22.569034576416016 9.703542709350586 20.148948669433594 C10.491089820861816 18.294132232666016 12.053696632385254 17.44498062133789 14.035883903503418 17.730527877807617"></path></svg>