<svg xmlns="http://www.w3.org/2000/svg" viewBox="0.0 0.0 24.0 24.0" height="200px" width="200px"><path fill="none" stroke="black" stroke-width=".3" stroke-opacity="1.0"  filling="0" d="M13.07811164855957 12.304305076599121 C13.327574729919434 13.866629600524902 13.484074592590332 14.850438117980957 13.641912460327148 15.832242012023926 C14.40501594543457 16.314449310302734 15.168120384216309 16.797992706298828 15.93055534362793 17.281536102294922 C15.217611312866211 17.936296463012695 14.504667282104492 18.59038734436035 13.461335182189941 19.548110961914062 C13.461335182189941 21.424774169921875 13.579713821411133 23.74618911743164 13.425219535827637 26.050216674804688 C13.293465614318848 28.012481689453125 13.874654769897461 29.227697372436523 16.221485137939453 29.303272247314453 C16.228174209594727 29.54471206665039 16.234861373901367 29.78681755065918 16.242218017578125 30.02825355529785 C15.479782104492188 30.530527114868164 14.764833450317383 31.33576774597168 13.94354248046875 31.46484375 C12.686861038208008 31.662139892578125 11.449575424194336 31.137128829956055 11.206130981445312 29.657068252563477 C10.974725723266602 28.247228622436523 10.913195610046387 26.803956985473633 10.86169719696045 25.372718811035156 C10.806187629699707 23.823101043701172 10.966699600219727 22.257431030273438 10.804181098937988 20.722530364990234 C10.70452880859375 19.78219223022461 10.174837112426758 18.8873348236084 9.577595710754395 17.261474609375 C10.417612075805664 16.072341918945312 11.553239822387695 14.46387004852295 13.07811164855957 12.304305076599121"></path></svg>