<svg xmlns="http://www.w3.org/2000/svg" viewBox="0.0 0.0 24.0 24.0" height="200px" width="200px"><path fill="none" stroke="black" stroke-width=".3" stroke-opacity="1.0"  filling="0" d="M12.606437683105469 12.171172142028809 L12.606437683105469 12.171172142028809 C12.712010383605957 12.832682609558105 12.817683219909668 13.494176864624023 12.923575401306152 14.155635833740234 L12.923575401306152 14.155635833740234 C13.352696418762207 14.42737865447998 13.781816482543945 14.699121475219727 14.2109375 14.970864295959473 L14.2109375 14.970864295959473 C13.747958183288574 15.395846366882324 13.284979820251465 15.820829391479492 12.822000503540039 16.245811462402344 L12.822000503540039 16.245811462402344 C12.836552619934082 17.373720169067383 12.264297485351562 20.284278869628906 13.065309524536133 21.216140747070312 C13.371169090270996 21.571964263916016 13.93816089630127 21.560773849487305 14.37458610534668 21.733089447021484 L14.37458610534668 21.733089447021484 C14.378473281860352 21.8690242767334 14.382360458374023 22.00495719909668 14.386247634887695 22.140892028808594 L14.386247634887695 22.140892028808594 C13.955245971679688 22.410253524780273 13.581767082214355 22.808753967285156 13.093242645263672 22.948974609375 C12.26435661315918 23.1868896484375 11.781888961791992 22.61403465270996 11.553448677062988 21.932100296020508 C11.030821800231934 20.371971130371094 11.53676986694336 18.509244918823242 11.327351570129395 16.906423568725586 C11.261452674865723 16.402057647705078 10.795455932617188 15.352331161499023 10.637397766113281 14.959579467773438 L10.637397766113281 14.959579467773438 C11.293790817260742 14.030142784118652 11.950125694274902 13.100665092468262 12.606437683105469 12.171172142028809 L12.606437683105469 12.171172142028809"></path></svg>