<svg xmlns="http://www.w3.org/2000/svg" viewBox="0.0 0.0 24.0 24.0" height="200px" width="200px"><path fill="none" stroke="black" stroke-width=".3" stroke-opacity="1.0"  filling="0" d="M7.123394966125488 13.666972160339355 L7.123394966125488 13.666972160339355 C7.3733649253845215 13.666972160339355 10.006824493408203 13.666972160339355 10.202752113342285 13.666972160339355 L10.202752113342285 13.666972160339355 C10.205643653869629 15.592870712280273 10.187018394470215 17.514711380004883 10.154816627502441 19.440135955810547 C10.147534370422363 19.875547409057617 10.02598762512207 21.92852020263672 10.399713516235352 22.45791244506836 C11.651491165161133 24.231094360351562 13.489829063415527 22.49901580810547 13.900457382202148 21.144493103027344 C14.471426010131836 19.261062622070312 14.207626342773438 16.69458770751953 14.324769973754883 14.730733871459961 L14.324769973754883 14.730733871459961 C13.879663467407227 14.497859001159668 13.434556007385254 14.264984130859375 12.989449501037598 14.032109260559082 L12.989449501037598 14.032109260559082 C13.004281044006348 13.920794486999512 13.019113540649414 13.809479713439941 13.033945083618164 13.698164939880371 L13.033945083618164 13.698164939880371 C13.1797456741333 13.698164939880371 16.07355499267578 13.698164939880371 16.12476921081543 13.698164939880371 L16.12476921081543 13.698164939880371 C16.05022430419922 15.219108581542969 15.975730895996094 16.740055084228516 15.90127182006836 18.261003494262695 C15.826813697814941 19.781951904296875 15.752389907836914 21.302902221679688 15.67798137664795 22.8238525390625 L15.67798137664795 22.8238525390625 C16.1356258392334 23.0411319732666 16.593271255493164 23.25840950012207 17.05091667175293 23.475688934326172 L17.05091667175293 23.475688934326172 C16.207468032836914 24.8338565826416 14.688774108886719 23.8469295501709 13.679357528686523 23.34816551208496 L13.679357528686523 23.34816551208496 C12.66936206817627 23.627212524414062 12.017450332641602 24.51744842529297 10.871916770935059 24.46800994873047 C9.617353439331055 24.41386604309082 8.83536434173584 23.686777114868164 8.419783592224121 22.484289169311523 C8.051462173461914 21.41854476928711 8.025301933288574 20.01927947998047 8.091163635253906 18.606395721435547 C8.157026290893555 17.193510055541992 8.314910888671875 15.767007827758789 8.314679145812988 14.646788597106934 L8.314679145812988 14.646788597106934 C7.893578052520752 14.440214157104492 7.472477436065674 14.233638763427734 7.0513763427734375 14.027064323425293 L7.0513763427734375 14.027064323425293 C7.075382709503174 13.907033920288086 7.099388599395752 13.787002563476562 7.123394966125488 13.666972160339355 L7.123394966125488 13.666972160339355"></path></svg>