<svg xmlns="http://www.w3.org/2000/svg" viewBox="0.0 0.0 24.0 24.0" height="200px" width="200px"><path fill="none" stroke="black" stroke-width=".3" stroke-opacity="1.0"  filling="0" d="M7.204472064971924 14.016045570373535 L7.204472064971924 14.016045570373535 C8.682526588439941 14.016045570373535 10.160579681396484 14.016045570373535 11.63863468170166 14.016045570373535 L11.63863468170166 14.016045570373535 C11.186985969543457 14.404169082641602 10.735337257385254 14.792292594909668 10.28368854522705 15.180416107177734 L10.28368854522705 15.180416107177734 C10.750327110290527 17.111791610717773 11.21699047088623 19.043163299560547 11.683663368225098 20.974529266357422 L11.683663368225098 20.974529266357422 C11.838458061218262 20.99181365966797 11.993252754211426 21.009096145629883 12.14804744720459 21.02638053894043 L12.14804744720459 21.02638053894043 C12.932636260986328 19.074995040893555 13.717291831970215 17.12364387512207 14.501806259155273 15.172229766845703 L14.501806259155273 15.172229766845703 C14.049854278564453 14.791535377502441 13.597902297973633 14.410840034484863 13.145950317382812 14.030145645141602 L13.145950317382812 14.030145645141602 C13.151130676269531 14.030145645141602 16.264789581298828 14.030145645141602 16.43621063232422 14.030145645141602 L16.43621063232422 14.030145645141602 C15.280008316040039 15.67844009399414 14.442739486694336 17.478857040405273 13.66990852355957 19.315114974975586 C12.897077560424805 21.15137481689453 12.188684463500977 23.023475646972656 11.290233612060547 24.815135955810547 L11.290233612060547 24.815135955810547 C10.482419967651367 23.009729385375977 10.040470123291016 21.130229949951172 9.510726928710938 19.291946411132812 C8.980984687805176 17.453662872314453 8.36345100402832 15.656593322753906 7.204472064971924 14.016045570373535 L7.204472064971924 14.016045570373535"></path></svg>