<svg xmlns="http://www.w3.org/2000/svg" viewBox="0.0 0.0 24.0 24.0" height="200px" width="200px"><path fill="none" stroke="black" stroke-width=".3" stroke-opacity="1.0"  filling="0" d="M15.464127540588379 15.672513961791992 L15.464127540588379 15.672513961791992 C14.919342041015625 17.400379180908203 13.649441719055176 18.991960525512695 13.70910930633545 20.854846954345703 C13.77025032043457 22.76371955871582 15.136777877807617 24.507736206054688 15.856647491455078 26.22997283935547 L15.856647491455078 26.22997283935547 C15.246500968933105 26.26709747314453 14.636353492736816 26.30422019958496 14.026206970214844 26.341344833374023 L14.026206970214844 26.341344833374023 C13.780412673950195 25.845901489257812 12.714402198791504 23.697437286376953 12.453155517578125 23.170989990234375 L12.453155517578125 23.170989990234375 C11.847848892211914 24.052906036376953 11.71939468383789 25.3524112701416 10.821953773498535 25.934452056884766 C10.277545928955078 26.28753089904785 9.536810874938965 26.11496925354004 8.89423942565918 26.20522689819336 L8.89423942565918 26.20522689819336 C9.511399269104004 24.72925567626953 10.648215293884277 23.039567947387695 10.935084342956543 21.45501708984375 C11.286492347717285 19.513978958129883 9.648224830627441 17.354570388793945 8.892753601074219 15.678948402404785 L8.892753601074219 15.678948402404785 C11.289508819580078 15.932154655456543 11.054452896118164 16.436769485473633 12.255658149719238 18.327594757080078 L12.255658149719238 18.327594757080078 C13.476471900939941 16.546476364135742 13.149645805358887 15.950235366821289 15.464127540588379 15.672513961791992 L15.464127540588379 15.672513961791992"></path></svg>