<svg xmlns="http://www.w3.org/2000/svg" viewBox="0.0 0.0 24.0 24.0" height="200px" width="200px"><path fill="none" stroke="black" stroke-width=".3" stroke-opacity="1.0"  filling="0" d="M6.055143356323242 10.653409957885742 C7.83642053604126 10.653409957885742 9.61823558807373 10.653409957885742 12.07132625579834 10.653409957885742 C11.099672317504883 11.270316123962402 10.659332275390625 11.549699783325195 9.978365898132324 11.981966018676758 C10.616805076599121 14.270333290100098 11.295080184936523 16.70296859741211 12.149381637573242 19.764892578125 C13.287374496459961 16.75141716003418 14.185818672180176 14.372612953186035 15.116561889648438 11.907678604125977 C14.598166465759277 11.628832817077637 14.128758430480957 11.376363754272461 13.65934944152832 11.123895645141602 C13.684111595153809 10.988779067993164 13.708335876464844 10.853124618530273 13.733098983764648 10.718008041381836 C15.093953132629395 10.718008041381836 16.45480728149414 10.718008041381836 17.815662384033203 10.718008041381836 C16.081756591796875 11.455496788024902 15.882580757141113 13.101118087768555 15.351266860961914 14.515804290771484 C13.689496040344238 18.943965911865234 12.026647567749023 23.37212562561035 10.390714645385742 27.809974670410156 C10.14954948425293 28.464563369750977 10.052114486694336 29.171369552612305 9.887929916381836 29.85394859313965 C9.170358657836914 29.85394859313965 8.452249526977539 29.85394859313965 7.734678745269775 29.85394859313965 C8.722482681274414 27.405166625976562 10.40040397644043 24.985450744628906 10.506451606750488 22.498443603515625 C10.614652633666992 19.96783447265625 9.164976119995117 17.374242782592773 8.41672134399414 14.802724838256836 C7.970998287200928 13.27230167388916 7.89886474609375 11.53139877319336 6.055143356323242 10.653409957885742"></path></svg>