<svg xmlns="http://www.w3.org/2000/svg" viewBox="0.0 0.0 24.0 24.0" height="200px" width="200px"><path fill="none" stroke="black" stroke-width=".3" stroke-opacity="1.0"  filling="0" d="M16.357666015625 9.296597480773926 C17.558368682861328 9.109671592712402 17.69308853149414 9.521693229675293 17.62404441833496 11.0137300491333 C16.094961166381836 11.470659255981445 14.21953010559082 11.49030590057373 13.289393424987793 12.43728256225586 C11.924219131469727 13.827715873718262 10.930651664733887 15.787347793579102 10.34573745727539 17.679616928100586 C9.784960746765137 19.494422912597656 9.71760082244873 21.549480438232422 9.856812477111816 23.46869659423828 C10.002199172973633 25.474916458129883 10.74204158782959 25.85831069946289 13.333738327026367 25.990787506103516 C13.54592514038086 24.829940795898438 13.76933765411377 23.837495803833008 13.898445129394531 22.833261489868164 C14.030359268188477 21.808258056640625 14.59338092803955 20.63506317138672 12.991884231567383 20.08214569091797 C12.804397583007812 20.017589569091797 12.966623306274414 18.939821243286133 12.966623306274414 18.2645320892334 C14.301485061645508 18.2645320892334 15.476926803588867 18.2645320892334 16.891498565673828 18.2645320892334 C16.49407196044922 21.17001724243164 16.174108505249023 23.921695709228516 15.693603515625 26.644746780395508 C15.606035232543945 27.139286041259766 14.935796737670898 27.675926208496094 14.40757942199707 27.924034118652344 C11.638498306274414 29.224655151367188 8.93621826171875 28.067174911499023 7.836557388305664 25.18919563293457 C6.236744403839111 21.00273895263672 8.120594024658203 13.454426765441895 11.712034225463867 10.835225105285645 C12.975045204162598 9.914069175720215 14.755608558654785 9.546392440795898 16.357666015625 9.296597480773926"></path></svg>