<svg xmlns="http://www.w3.org/2000/svg" viewBox="0.0 0.0 24.0 24.0" height="200px" width="200px"><path fill="none" stroke="black" stroke-width=".3" stroke-opacity="1.0"  filling="0" d="M15.513078689575195 10.464583396911621 L15.513078689575195 10.464583396911621 C15.264785766601562 12.262402534484863 15.016498565673828 14.060222625732422 14.768193244934082 15.858039855957031 C14.519887924194336 17.65585708618164 14.271564483642578 19.453670501708984 14.023198127746582 21.251480102539062 L14.023198127746582 21.251480102539062 C13.579421997070312 21.251480102539062 13.13564682006836 21.251480102539062 12.69187068939209 21.251480102539062 L12.69187068939209 21.251480102539062 C12.853813171386719 19.69510269165039 13.015774726867676 18.138713836669922 13.17768669128418 16.582334518432617 L13.17768669128418 16.582334518432617 C12.55777645111084 16.552413940429688 11.937867164611816 16.52249526977539 11.317956924438477 16.49257469177246 L11.317956924438477 16.49257469177246 C11.064833641052246 18.074176788330078 10.81169319152832 19.655786514282227 10.558602333068848 21.23739242553711 L10.558602333068848 21.23739242553711 C10.110676765441895 21.23739242553711 9.662752151489258 21.23739242553711 9.214826583862305 21.23739242553711 L9.214826583862305 21.23739242553711 C9.392728805541992 19.92744255065918 9.571163177490234 18.617565155029297 9.749114990234375 17.307621002197266 C9.927066802978516 15.997676849365234 10.104536056518555 14.687667846679688 10.280506134033203 13.377457618713379 C10.51422119140625 11.637303352355957 10.187845230102539 10.466014862060547 12.078293800354004 10.627068519592285 L12.078293800354004 10.627068519592285 C11.880361557006836 12.111372947692871 11.682504653930664 13.595682144165039 11.484700202941895 15.080004692077637 L11.484700202941895 15.080004692077637 C12.126777648925781 15.080004692077637 12.768854141235352 15.080004692077637 13.410931587219238 15.080004692077637 L13.410931587219238 15.080004692077637 C13.663966178894043 13.565558433532715 13.916918754577637 12.051097869873047 14.169958114624023 10.536653518676758 L14.169958114624023 10.536653518676758 C14.61766529083252 10.512630462646484 15.0653715133667 10.488606452941895 15.513078689575195 10.464583396911621 L15.513078689575195 10.464583396911621"></path></svg>