<svg xmlns="http://www.w3.org/2000/svg" viewBox="0.0 0.0 24.0 24.0" height="200px" width="200px"><path fill="none" stroke="black" stroke-width=".3" stroke-opacity="1.0"  filling="0" d="M15.27000617980957 10.86391544342041 L15.27000617980957 10.86391544342041 C14.608762741088867 12.388973236083984 13.357818603515625 14.262982368469238 13.18402099609375 15.934329986572266 C13.003047943115234 17.674680709838867 13.861587524414062 19.865766525268555 14.180713653564453 21.57327651977539 L14.180713653564453 21.57327651977539 C13.72217845916748 21.57327651977539 13.263643264770508 21.57327651977539 12.805108070373535 21.57327651977539 L12.805108070373535 21.57327651977539 C12.483304023742676 20.01400375366211 12.161596298217773 18.454713821411133 11.839829444885254 16.895435333251953 L11.839829444885254 16.895435333251953 C11.747337341308594 16.894235610961914 11.654845237731934 16.893037796020508 11.562353134155273 16.89183807373047 L11.562353134155273 16.89183807373047 C11.320265769958496 18.453834533691406 11.07828426361084 20.01584815979004 10.83626651763916 21.577857971191406 L10.83626651763916 21.577857971191406 C10.447973251342773 21.577857971191406 10.059679985046387 21.577857971191406 9.67138671875 21.577857971191406 L9.67138671875 21.577857971191406 C9.333229064941406 20.942354202270508 9.675674438476562 20.133935928344727 9.77256965637207 19.42061424255371 C10.026814460754395 17.548921585083008 10.285782814025879 15.67786979675293 10.538507461547852 13.8059720993042 C10.670147895812988 12.83092975616455 10.339778900146484 11.440924644470215 11.177058219909668 10.92420482635498 C11.510300636291504 10.718546867370605 11.959643363952637 10.95490837097168 12.350935935974121 10.970259666442871 L12.350935935974121 10.970259666442871 C12.164904594421387 12.344655990600586 11.978955268859863 13.719060897827148 11.793037414550781 15.093473434448242 L11.793037414550781 15.093473434448242 C11.859243392944336 15.11616039276123 11.925450325012207 15.138846397399902 11.991656303405762 15.16153335571289 L11.991656303405762 15.16153335571289 C12.829237937927246 13.212198257446289 12.976723670959473 11.040282249450684 15.27000617980957 10.86391544342041 L15.27000617980957 10.86391544342041"></path></svg>