<svg xmlns="http://www.w3.org/2000/svg" viewBox="0.0 0.0 24.0 24.0" height="200px" width="200px"><path fill="none" stroke="black" stroke-width=".3" stroke-opacity="1.0"  filling="0" d="M10.712987899780273 9.925580978393555 C13.128664016723633 9.696727752685547 15.263473510742188 9.382343292236328 16.518701553344727 11.747740745544434 C17.753122329711914 14.072683334350586 17.137065887451172 16.63283920288086 15.131132125854492 18.855491638183594 C15.653564453125 22.27846908569336 16.123409271240234 25.357589721679688 16.640640258789062 28.74936294555664 C15.746030807495117 28.828536987304688 14.976251602172852 28.897308349609375 14.150413513183594 28.970703125 C13.661499977111816 25.999073028564453 13.20783805847168 23.241275787353516 12.754176139831543 20.483470916748047 C12.434590339660645 20.486942291259766 12.11500358581543 20.490985870361328 11.795995712280273 20.49445343017578 C11.353315353393555 23.227405548095703 10.91063404083252 25.96035385131836 10.435011863708496 28.89557456970215 C9.54387092590332 28.89557456970215 8.985028266906738 28.89557456970215 8.055166244506836 28.89557456970215 C8.947463989257812 22.52581787109375 9.827047348022461 16.247371673583984 10.712987899780273 9.925580978393555"></path>
<path fill="none" stroke="black" stroke-width=".3" stroke-opacity="1.0"  filling="0" d="M12.90385627746582 12.249368667602539 C12.631080627441406 14.1703519821167 12.371598243713379 15.99308967590332 12.081485748291016 18.0360107421875 C15.035776138305664 16.29418182373047 15.379633903503418 13.713800430297852 12.90385627746582 12.249368667602539"></path></svg>