<svg xmlns="http://www.w3.org/2000/svg" viewBox="0.0 0.0 24.0 24.0" height="200px" width="200px"><path fill="none" stroke="black" stroke-width=".3" stroke-opacity="1.0"  filling="0" d="M13.630829811096191 10.471620559692383 L13.630829811096191 10.471620559692383 C13.853965759277344 10.843793869018555 14.077101707458496 11.215968132019043 14.300237655639648 11.588141441345215 L14.300237655639648 11.588141441345215 C13.754888534545898 11.766692161560059 13.002790451049805 11.660505294799805 12.664190292358398 12.123793601989746 C11.429483413696289 13.813176155090332 13.784218788146973 17.219318389892578 13.648537635803223 19.07683753967285 C13.571564674377441 20.130617141723633 12.106629371643066 22.032394409179688 10.780237197875977 21.175495147705078 C10.37648868560791 20.914657592773438 10.402688026428223 20.291383743286133 10.213912963867188 19.849328994750977 L10.213912963867188 19.849328994750977 C10.722156524658203 19.84687042236328 11.255291938781738 19.999074935913086 11.73864459991455 19.841951370239258 C12.735163688659668 19.51801109313965 12.246797561645508 18.173694610595703 12.135494232177734 17.62387466430664 C11.742729187011719 15.683682441711426 9.69096565246582 12.157918930053711 12.180418014526367 10.733871459960938 C12.606884002685547 10.489919662475586 13.147358894348145 10.559037208557129 13.630829811096191 10.471620559692383 L13.630829811096191 10.471620559692383"></path></svg>