<svg xmlns="http://www.w3.org/2000/svg" viewBox="0.0 0.0 24.0 24.0" height="200px" width="200px"><path fill="none" stroke="black" stroke-width=".3" stroke-opacity="1.0"  filling="0" d="M14.899252891540527 9.282880783081055 C16.11235809326172 9.491997718811035 16.203989028930664 9.656705856323242 16.089311599731445 11.267807960510254 C15.04372501373291 11.572489738464355 13.576531410217285 11.56967830657959 13.180782318115234 12.220078468322754 C12.636065483093262 13.113885879516602 12.652929306030273 14.550724029541016 12.874414443969727 15.66657829284668 C13.252737045288086 17.573930740356445 14.041422843933105 19.395835876464844 14.530488014221191 21.286325454711914 C14.806500434875488 22.351587295532227 15.00268840789795 23.49386215209961 14.930733680725098 24.58104705810547 C14.751972198486328 27.295074462890625 12.498339653015137 28.876941680908203 9.831533432006836 28.31199073791504 C8.3930082321167 28.006183624267578 8.357593536376953 27.92354965209961 8.82473373413086 25.954362869262695 C12.457864761352539 26.42881202697754 13.186964988708496 25.6058349609375 12.240878105163574 21.997997283935547 C11.603970527648926 19.569538116455078 10.692173957824707 17.19504737854004 10.264383316040039 14.733983039855957 C9.692121505737305 11.441510200500488 12.08741283416748 8.79831314086914 14.899252891540527 9.282880783081055"></path></svg>