<svg xmlns="http://www.w3.org/2000/svg" viewBox="0.0 0.0 24.0 24.0" height="200px" width="200px"><path fill="none" stroke="black" stroke-width=".3" stroke-opacity="1.0"  filling="0" d="M4.858832359313965 9.708333015441895 C5.874837398529053 9.708333015441895 6.422438621520996 9.708333015441895 7.257984638214111 9.708333015441895 C7.405632972717285 13.340154647827148 7.552716255187988 16.947084426879883 7.699799060821533 20.554012298583984 C7.9006242752075195 20.579469680786133 8.100883483886719 20.60436248779297 8.301709175109863 20.629817962646484 C9.325067520141602 17.591419219970703 10.314484596252441 14.541142463684082 11.39215087890625 11.521979331970215 C11.705551147460938 10.644572257995605 11.767778396606445 9.315732955932617 13.77206802368164 9.797147750854492 C13.954790115356445 13.444808006286621 14.14430046081543 17.23332977294922 14.333812713623047 21.021286010742188 C14.482027053833008 21.06371307373047 14.630241394042969 21.106142044067383 14.77845573425293 21.148569107055664 C15.838586807250977 17.903688430786133 16.956981658935547 14.675779342651367 17.93112564086914 11.404878616333008 C18.350311279296875 9.99797248840332 18.938079833984375 9.206552505493164 20.500553131103516 9.732656478881836 C20.583145141601562 9.7603759765625 20.644241333007812 9.85145378112793 20.898242950439453 10.071513175964355 C18.892822265625 15.80888557434082 16.876651763916016 21.639596939086914 14.789769172668457 27.444290161132812 C14.600824356079102 27.969829559326172 13.95592212677002 28.33131217956543 13.523157119750977 28.7691650390625 C13.281035423278809 28.67412757873535 13.038348197937012 28.579090118408203 12.79622745513916 28.484052658081055 C12.555803298950195 24.809803009033203 12.315378189086914 21.135555267333984 12.033092498779297 16.818099975585938 C9.78498363494873 21.055225372314453 9.605655670166016 25.406620025634766 6.692278861999512 28.64527702331543 C5.453388214111328 22.41631317138672 5.3153557777404785 16.20770835876465 4.858832359313965 9.708333015441895"></path></svg>