<svg xmlns="http://www.w3.org/2000/svg" viewBox="0.0 0.0 24.0 24.0" height="200px" width="200px"><path fill="none" stroke="black" stroke-width=".3" stroke-opacity="1.0"  filling="0" d="M12.026713371276855 13.596185684204102 L12.026713371276855 13.596185684204102 C13.447931289672852 13.648344039916992 14.77996826171875 13.869159698486328 16.18122673034668 14.10579776763916 L16.18122673034668 14.10579776763916 C16.18122673034668 14.791367530822754 16.18122673034668 15.476936340332031 16.18122673034668 16.162506103515625 L16.18122673034668 16.162506103515625 C14.937933921813965 15.317519187927246 14.175087928771973 14.024155616760254 12.46017837524414 14.163675308227539 C10.830927848815918 14.296225547790527 9.870555877685547 15.647939682006836 9.47826099395752 17.24839973449707 C9.085966110229492 18.848859786987305 9.261747360229492 20.69806671142578 9.904805183410645 21.82560157775879 C11.262868881225586 24.206829071044922 14.041933059692383 23.56953239440918 16.17711639404297 22.998409271240234 L16.17711639404297 22.998409271240234 C14.938950538635254 23.783315658569336 14.544246673583984 24.258203506469727 13.050044059753418 24.371583938598633 C10.870370864868164 24.536975860595703 9.391947746276855 23.340356826782227 8.635587692260742 21.682384490966797 C7.879227638244629 20.024410247802734 7.844930648803711 17.90508460998535 8.553506851196289 16.22506332397461 C9.253252029418945 14.5659818649292 10.419179916381836 14.034639358520508 12.026713371276855 13.596185684204102 L12.026713371276855 13.596185684204102"></path></svg>