<svg xmlns="http://www.w3.org/2000/svg" viewBox="0.0 0.0 24.0 24.0" height="200px" width="200px"><path fill="none" stroke="black" stroke-width=".3" stroke-opacity="1.0"  filling="0" d="M11.038884162902832 15.808961868286133 L11.038884162902832 15.808961868286133 C11.529258728027344 15.591309547424316 11.9762544631958 15.21028995513916 12.510008811950684 15.156003952026367 C15.367867469787598 14.865344047546387 14.889327049255371 19.25200653076172 14.936599731445312 20.919809341430664 L14.936599731445312 20.919809341430664 C13.715373992919922 20.98680877685547 12.494146347045898 21.053773880004883 11.27291488647461 21.12067413330078 L11.27291488647461 21.12067413330078 C11.053991317749023 24.0902156829834 11.079907417297363 24.365419387817383 14.028970718383789 23.78610610961914 L14.028970718383789 23.78610610961914 C13.928616523742676 24.261077880859375 14.021605491638184 24.82448387145996 13.727907180786133 25.211021423339844 C12.72685432434082 26.52851104736328 10.429155349731445 26.00272560119629 9.637500762939453 24.807716369628906 C8.796365737915039 23.538013458251953 8.765830993652344 21.82908821105957 9.136019706726074 20.167207717895508 C9.506209373474121 18.505325317382812 10.277122497558594 16.890487670898438 11.038884162902832 15.808961868286133 L11.038884162902832 15.808961868286133"></path>
<path fill="none" stroke="black" stroke-width=".3" stroke-opacity="1.0"  filling="0" d="M12.299195289611816 16.626903533935547 L12.299195289611816 16.626903533935547 C13.490875244140625 18.301454544067383 13.799332618713379 19.041330337524414 11.664368629455566 19.69920539855957 L11.664368629455566 19.69920539855957 C11.50445556640625 19.54645347595215 11.344541549682617 19.39370346069336 11.1846284866333 19.240951538085938 L11.1846284866333 19.240951538085938 C11.556220054626465 18.369632720947266 11.92773723602295 17.498279571533203 12.299195289611816 16.626903533935547 L12.299195289611816 16.626903533935547"></path></svg>