<svg xmlns="http://www.w3.org/2000/svg" viewBox="0.0 0.0 24.0 24.0" height="200px" width="200px"><path fill="none" stroke="black" stroke-width=".3" stroke-opacity="1.0"  filling="0" d="M12.331984519958496 7.448988437652588 C12.721284866333008 7.484699726104736 13.076635360717773 7.903097629547119 13.783811569213867 8.393359184265137 C13.029901504516602 8.791476249694824 12.631343841552734 9.160054206848145 12.240721702575684 9.151678085327148 C11.991622924804688 9.146387100219727 11.54765510559082 8.567948341369629 11.569257736206055 8.273880004882812 C11.592184066772461 7.9621758460998535 12.08597183227539 7.4265031814575195 12.331984519958496 7.448988437652588"></path>
<path fill="none" stroke="black" stroke-width=".3" stroke-opacity="1.0"  filling="0" d="M12.357556343078613 12.555292129516602 C11.855390548706055 17.37017250061035 11.759718894958496 22.117595672607422 10.216188430786133 26.648548126220703 C9.334423065185547 26.648548126220703 8.452657699584961 26.648548126220703 7.570892810821533 26.648548126220703 C10.624005317687988 23.264331817626953 9.667730331420898 18.829492568969727 10.641199111938477 14.900787353515625 C10.781400680541992 14.334693908691406 10.69675064086914 13.677338600158691 10.95422649383545 13.187517166137695 C11.147773742675781 12.819380760192871 11.723125457763672 12.6522855758667 12.357556343078613 12.555292129516602"></path></svg>