<svg xmlns="http://www.w3.org/2000/svg" viewBox="0.0 0.0 24.0 24.0" height="200px" width="200px"><path fill="none" stroke="black" stroke-width=".3" stroke-opacity="1.0"  filling="0" d="M8.787871360778809 7.9622483253479 L8.787871360778809 7.9622483253479 C10.077497482299805 7.9622483253479 11.367122650146484 7.9622483253479 12.65674877166748 7.9622483253479 L12.65674877166748 7.9622483253479 C12.51968002319336 8.755402565002441 12.382665634155273 9.548565864562988 12.245691299438477 10.341736793518066 L12.245691299438477 10.341736793518066 C13.628851890563965 9.654542922973633 15.93005084991455 8.493142127990723 17.327205657958984 10.082134246826172 C18.153369903564453 11.021736145019531 18.072908401489258 12.445858001708984 17.536983489990234 13.72177505493164 C17.001056671142578 14.997692108154297 16.009666442871094 16.125404357910156 15.013978958129883 16.472187042236328 C13.394749641418457 17.03614044189453 12.79234504699707 16.445404052734375 11.327767372131348 15.831859588623047 L11.327767372131348 15.831859588623047 C9.788643836975098 16.44622802734375 8.64995002746582 16.352148056030273 7.006218910217285 16.403324127197266 L7.006218910217285 16.403324127197266 C7.303153038024902 14.996477127075195 7.600108623504639 13.58963394165039 7.897059440612793 12.18278980255127 C8.194010734558105 10.775945663452148 8.490957260131836 9.369100570678711 8.787871360778809 7.9622483253479 L8.787871360778809 7.9622483253479"></path>
<path fill="none" stroke="black" stroke-width=".3" stroke-opacity="1.0"  filling="0" d="M13.010223388671875 11.873465538024902 L13.010223388671875 11.873465538024902 C13.286520004272461 12.236456871032715 13.774981498718262 12.510787963867188 13.83911418914795 12.962440490722656 C14.169939041137695 15.292251586914062 10.005918502807617 14.394922256469727 11.99513053894043 12.301217079162598 C12.248037338256836 12.035024642944336 12.671858787536621 12.0160493850708 13.010223388671875 11.873465538024902 L13.010223388671875 11.873465538024902"></path></svg>