<svg xmlns="http://www.w3.org/2000/svg" viewBox="0.0 0.0 24.0 24.0" height="200px" width="200px"><path fill="none" stroke="black" stroke-width=".3" stroke-opacity="1.0"  filling="0" d="M14.785298347473145 14.903494834899902 L14.785298347473145 14.903494834899902 C14.987238883972168 15.058060646057129 15.189180374145508 15.212627410888672 15.391120910644531 15.367193222045898 L15.391120910644531 15.367193222045898 C15.098896980285645 15.895174026489258 14.923125267028809 16.507129669189453 14.514448165893555 16.951135635375977 C14.103423118591309 17.397693634033203 13.390782356262207 17.498319625854492 13.001209259033203 17.96371078491211 C12.276195526123047 18.829822540283203 11.876192092895508 20.210968017578125 11.599529266357422 21.64279556274414 C11.322867393493652 23.074623107910156 11.169546127319336 24.557132720947266 10.937896728515625 25.625972747802734 L10.937896728515625 25.625972747802734 C10.388701438903809 25.651653289794922 9.839505195617676 25.677335739135742 9.29030990600586 25.70301628112793 L9.29030990600586 25.70301628112793 C9.520709991455078 23.9657039642334 9.751096725463867 22.2283878326416 9.981499671936035 20.491073608398438 C10.211902618408203 18.753759384155273 10.442322731018066 17.016447067260742 10.67279052734375 15.279143333435059 L10.67279052734375 15.279143333435059 C11.22868537902832 15.279143333435059 11.784581184387207 15.279143333435059 12.340476036071777 15.279143333435059 L12.340476036071777 15.279143333435059 C12.384501457214355 15.694509506225586 12.428525924682617 16.109874725341797 12.472551345825195 16.52524185180664 L12.472551345825195 16.52524185180664 C13.243465423583984 15.984657287597656 14.014381408691406 15.444074630737305 14.785298347473145 14.903494834899902 L14.785298347473145 14.903494834899902"></path></svg>