<svg xmlns="http://www.w3.org/2000/svg" viewBox="0.0 0.0 24.0 24.0" height="200px" width="200px"><path fill="none" stroke="black" stroke-width=".3" stroke-opacity="1.0"  filling="0" d="M12.383820533752441 12.858979225158691 L12.383820533752441 12.858979225158691 C12.768312454223633 13.65188217163086 13.309357643127441 14.401119232177734 13.994529724121094 14.955257415771484 L13.994529724121094 14.955257415771484 C13.82852840423584 15.54352855682373 13.299657821655273 16.115739822387695 12.70556926727295 16.259540557861328 L12.70556926727295 16.259540557861328 C12.44448471069336 18.10987663269043 12.18347454071045 19.960224151611328 11.922607421875 21.810592651367188 L11.922607421875 21.810592651367188 C12.333534240722656 22.057174682617188 12.744462013244629 22.303756713867188 13.155388832092285 22.550338745117188 L13.155388832092285 22.550338745117188 C12.551047325134277 23.780885696411133 11.119384765625 24.456968307495117 10.47414779663086 22.320127487182617 C10.285594940185547 21.695693969726562 10.599848747253418 21.02163314819336 10.659133911132812 20.372053146362305 C10.829559326171875 18.504718780517578 10.750103950500488 16.91836166381836 10.549182891845703 15.05858039855957 L10.549182891845703 15.05858039855957 C11.16076374053955 14.325408935546875 11.77230453491211 13.592205047607422 12.383820533752441 12.858979225158691 L12.383820533752441 12.858979225158691"></path></svg>