<svg xmlns="http://www.w3.org/2000/svg" viewBox="0.0 0.0 24.0 24.0" height="200px" width="200px"><path fill="none" stroke="black" stroke-width=".3" stroke-opacity="1.0"  filling="0" d="M13.94768238067627 9.443506240844727 C16.685636520385742 10.27007007598877 17.576906204223633 14.221139907836914 15.543416023254395 16.700267791748047 C15.020132064819336 17.337772369384766 14.32861042022705 17.83686065673828 13.7141752243042 18.398967742919922 C15.916467666625977 20.845458984375 16.21693229675293 23.40279769897461 14.62345027923584 26.02596664428711 C13.22859001159668 28.32053565979004 11.379655838012695 28.93328285217285 8.184250831604004 28.065082550048828 C8.21013355255127 27.484970092773438 8.237142562866211 26.870532989501953 8.278217315673828 25.942127227783203 C10.240811347961426 26.265663146972656 11.941762924194336 26.38607406616211 12.647913932800293 24.482559204101562 C13.278104782104492 22.783855438232422 13.569568634033203 21.07896614074707 11.792655944824219 19.659912109375 C10.791102409362793 18.859792709350586 11.312135696411133 17.835735321044922 12.023350715637207 17.02155113220215 C12.193839073181152 16.826305389404297 12.543257713317871 16.798171997070312 12.751445770263672 16.623180389404297 C13.88578987121582 15.665514945983887 14.637516975402832 13.515552520751953 13.841900825500488 12.650164604187012 C13.222400665283203 11.976085662841797 12.021100044250488 11.835980415344238 10.949775695800781 11.4072265625 C10.972845077514648 9.610620498657227 11.958081245422363 8.843137741088867 13.94768238067627 9.443506240844727"></path></svg>