<svg xmlns="http://www.w3.org/2000/svg" viewBox="0.0 0.0 24.0 24.0" height="200px" width="200px"><path fill="none" stroke="black" stroke-width=".3" stroke-opacity="1.0"  filling="0" d="M13.058124542236328 9.999285697937012 L13.058124542236328 9.999285697937012 C13.168312072753906 10.019810676574707 13.278499603271484 10.040336608886719 13.388687133789062 10.060861587524414 L13.388687133789062 10.060861587524414 C13.388687133789062 12.23587703704834 13.388687133789062 14.410892486572266 13.388687133789062 16.585906982421875 L13.388687133789062 16.585906982421875 C14.323567390441895 16.650379180908203 14.946239471435547 16.693347930908203 15.86790657043457 16.757022857666016 L15.86790657043457 16.757022857666016 C15.86941909790039 16.906965255737305 15.870931625366211 17.05690574645996 15.872444152832031 17.20684814453125 L15.872444152832031 17.20684814453125 C15.092599868774414 17.26014518737793 14.312752723693848 17.313398361206055 13.532902717590332 17.366619110107422 L13.532902717590332 17.366619110107422 C13.490421295166016 17.97890281677246 13.24279499053955 18.611661911010742 13.405457496643066 19.20347023010254 C13.575210571289062 19.82107925415039 14.119354248046875 20.267131805419922 14.476303100585938 20.798961639404297 L14.476303100585938 20.798961639404297 C14.471689224243164 20.798961639404297 11.712660789489746 20.798961639404297 11.651288032531738 20.798961639404297 L11.651288032531738 20.798961639404297 C11.623525619506836 20.742464065551758 11.595762252807617 20.685964584350586 11.567999839782715 20.629467010498047 L11.567999839782715 20.629467010498047 C11.882790565490723 20.503292083740234 12.19758129119873 20.37711524963379 12.512372016906738 20.250940322875977 L12.512372016906738 20.250940322875977 C12.512372016906738 19.280534744262695 12.512372016906738 18.31012725830078 12.512372016906738 17.3397216796875 L12.512372016906738 17.3397216796875 C11.060918807983398 17.3397216796875 9.609472274780273 17.3397216796875 8.158019065856934 17.3397216796875 L8.158019065856934 17.3397216796875 C8.081860542297363 17.209440231323242 8.005702018737793 17.079160690307617 7.9295430183410645 16.94887924194336 L7.9295430183410645 16.94887924194336 C8.784306526184082 15.790613174438477 9.639070510864258 14.63234806060791 10.493833541870117 13.474082946777344 C11.348596572875977 12.315816879272461 12.203360557556152 11.157551765441895 13.058124542236328 9.999285697937012 L13.058124542236328 9.999285697937012"></path>
<path fill="none" stroke="black" stroke-width=".3" stroke-opacity="1.0"  filling="0" d="M12.270607948303223 11.822566032409668 L12.270607948303223 11.822566032409668 C12.352168083190918 11.861239433288574 12.43372917175293 11.89991283416748 12.515289306640625 11.938586235046387 L12.515289306640625 11.938586235046387 C12.515289306640625 13.48758602142334 12.515289306640625 15.036585807800293 12.515289306640625 16.58558464050293 L12.515289306640625 16.58558464050293 C12.398665428161621 16.58558464050293 8.79080867767334 16.58558464050293 8.7617826461792 16.58558464050293 L8.7617826461792 16.58558464050293 C9.931357383728027 14.99788761138916 11.100950241088867 13.410201072692871 12.270607948303223 11.822566032409668 L12.270607948303223 11.822566032409668"></path></svg>