<svg xmlns="http://www.w3.org/2000/svg" viewBox="0.0 0.0 24.0 24.0" height="200px" width="200px"><path fill="none" stroke="black" stroke-width=".3" stroke-opacity="1.0"  filling="0" d="M9.31665325164795 9.8988676071167 C11.564282417297363 9.8988676071167 13.651201248168945 9.8988676071167 15.935381889343262 9.8988676071167 C15.935381889343262 10.69429874420166 15.935381889343262 11.39225959777832 15.935381889343262 12.212057113647461 C14.734403610229492 12.330995559692383 13.616390228271484 12.441810607910156 12.368996620178223 12.565969467163086 C12.368996620178223 14.232255935668945 12.368996620178223 15.733189582824707 12.368996620178223 17.42790412902832 C13.419708251953125 17.563085556030273 14.429807662963867 17.69304847717285 15.585531234741211 17.84157371520996 C15.585531234741211 18.66949462890625 15.585531234741211 19.387182235717773 15.585531234741211 20.265579223632812 C14.521475791931152 20.372333526611328 13.505575180053711 20.474445343017578 12.252959251403809 20.59976577758789 C12.252959251403809 23.403209686279297 12.252959251403809 26.07147216796875 12.252959251403809 28.920751571655273 C11.190645217895508 28.985151290893555 10.37142562866211 29.03504753112793 9.31665325164795 29.098865509033203 C9.31665325164795 22.71453285217285 9.31665325164795 16.490327835083008 9.31665325164795 9.8988676071167"></path></svg>