<svg xmlns="http://www.w3.org/2000/svg" viewBox="0.0 0.0 24.0 24.0" height="200px" width="200px"><path fill="none" stroke="black" stroke-width=".3" stroke-opacity="1.0"  filling="0" d="M14.709104537963867 8.466435432434082 C17.15524673461914 8.900070190429688 18.984294891357422 10.997637748718262 19.437942504882812 13.933565139770508 C19.550243377685547 14.660736083984375 19.570812225341797 15.401806831359863 19.596942901611328 15.7081298828125 C19.631412506103516 18.588464736938477 19.186656951904297 20.920639038085938 17.71396827697754 22.940929412841797 C16.317441940307617 24.858375549316406 14.423905372619629 25.940235137939453 12.020013809204102 25.67782974243164 C9.587769508361816 25.412090301513672 7.99332857131958 23.90549087524414 7.213898181915283 21.650590896606445 C6.078665256500244 18.368310928344727 6.276580810546875 15.106602668762207 7.851564884185791 11.998332977294922 C9.23307991027832 9.270883560180664 11.871578216552734 7.963863849639893 14.709104537963867 8.466435432434082"></path>
<path fill="none" stroke="black" stroke-width=".3" stroke-opacity="1.0"  filling="0" d="M8.232383728027344 9.483808517456055 C12.727727890014648 5.4654622077941895 19.635303497314453 7.4851975440979 20.871715545654297 13.327032089233398 C21.314247131347656 15.417928695678711 21.22974395751953 17.792911529541016 20.723838806152344 19.87769317626953 C19.594161987304688 24.5325927734375 15.805419921875 27.078248977661133 11.550799369812012 26.508407592773438 C7.405142307281494 25.95357894897461 4.932313442230225 22.666297912597656 4.915635585784912 17.691173553466797 C4.910076141357422 14.506739616394043 5.799026966094971 11.658651351928711 8.232383728027344 9.483808517456055"></path></svg>