<svg xmlns="http://www.w3.org/2000/svg" viewBox="0.0 0.0 24.0 24.0" height="200px" width="200px"><path fill="none" stroke="black" stroke-width=".3" stroke-opacity="1.0"  filling="0" d="M9.887899398803711 10.79602336883545 L9.887899398803711 10.79602336883545 C12.124659538269043 10.667156219482422 15.680708885192871 11.341283798217773 14.464155197143555 14.561424255371094 C14.27966022491455 15.049771308898926 13.924152374267578 15.455001831054688 13.65415096282959 15.901790618896484 L13.65415096282959 15.901790618896484 C14.260799407958984 17.743968963623047 14.867527961730957 19.586118698120117 15.474285125732422 21.428260803222656 L15.474285125732422 21.428260803222656 C14.85764217376709 21.428260803222656 14.240998268127441 21.428260803222656 13.62435531616211 21.428260803222656 L13.62435531616211 21.428260803222656 C13.011513710021973 19.630918502807617 12.659680366516113 18.253463745117188 11.599861145019531 16.650896072387695 L11.599861145019531 16.650896072387695 C11.599861145019531 18.232337951660156 11.599861145019531 19.81378173828125 11.599861145019531 21.395225524902344 L11.599861145019531 21.395225524902344 C11.029207229614258 21.43149757385254 10.458553314208984 21.467771530151367 9.887899398803711 21.504043579101562 L9.887899398803711 21.504043579101562 C9.887899398803711 19.719371795654297 9.887899398803711 17.934703826904297 9.887899398803711 16.150033950805664 C9.887899398803711 14.365363121032715 9.887899398803711 12.580694198608398 9.887899398803711 10.79602336883545 L9.887899398803711 10.79602336883545"></path>
<path fill="none" stroke="black" stroke-width=".3" stroke-opacity="1.0"  filling="0" d="M11.604720115661621 12.172459602355957 L11.604720115661621 12.172459602355957 C13.162321090698242 13.063359260559082 13.25514030456543 14.436637878417969 11.604720115661621 15.26603889465332 L11.604720115661621 15.26603889465332 C11.604720115661621 14.234846115112305 11.604720115661621 13.203652381896973 11.604720115661621 12.172459602355957 L11.604720115661621 12.172459602355957"></path></svg>