<svg xmlns="http://www.w3.org/2000/svg" viewBox="0.0 0.0 24.0 24.0" height="200px" width="200px"><path fill="none" stroke="black" stroke-width=".3" stroke-opacity="1.0"  filling="0" d="M18.004858016967773 8.97453498840332 C19.808048248291016 8.97453498840332 21.063358306884766 8.97453498840332 22.049448013305664 8.97453498840332 C21.476402282714844 9.75882339477539 20.65570831298828 10.550302505493164 20.235923767089844 11.516167640686035 C18.718135833740234 15.01063060760498 17.33922576904297 18.565319061279297 15.897395133972168 22.092594146728516 C15.623682022094727 22.76272201538086 15.300976753234863 23.41262435913086 15.000744819641113 24.07196807861328 C14.80927848815918 24.068370819091797 14.616464614868164 24.06522560119629 14.424100875854492 24.06252670288086 C13.690600395202637 20.813465118408203 12.957100868225098 17.564847946166992 12.110339164733887 13.814199447631836 C10.48063850402832 17.527544021606445 9.03341293334961 20.8247013092041 7.586188316345215 24.121856689453125 C7.4239373207092285 24.14208221435547 7.2616868019104 24.16275405883789 7.099435806274414 24.182979583740234 C6.887295722961426 23.469257354736328 6.631109714508057 22.764972686767578 6.470207691192627 22.039560317993164 C5.676930904388428 18.4650936126709 4.953318119049072 14.874448776245117 4.097568511962891 11.315264701843262 C3.8993616104125977 10.491425514221191 3.279571533203125 9.769610404968262 2.849898338317871 8.994311332702637 C3.8602590560913086 8.994311332702637 5.0859055519104 8.994311332702637 6.694482803344727 8.994311332702637 C6.003680229187012 9.374995231628418 5.58704137802124 9.60421371459961 5.047253131866455 9.901748657226562 C5.857609272003174 13.684309005737305 6.66976261138916 17.473609924316406 7.559671401977539 21.627864837646484 C7.980355262756348 21.016613006591797 8.301711082458496 20.676830291748047 8.476996421813965 20.27322769165039 C9.458592414855957 18.009801864624023 10.424906730651855 15.73963737487793 11.357512474060059 13.45553970336914 C12.147643089294434 11.521562576293945 11.692352294921875 10.166475296020508 9.817252159118652 8.976783752441406 C11.273466110229492 8.976783752441406 12.595744132995605 8.976783752441406 14.352638244628906 8.976783752441406 C13.59936237335205 9.38353443145752 13.185869216918945 9.606461524963379 12.563383102416992 9.94219970703125 C13.364750862121582 13.707231521606445 14.179600715637207 17.53653335571289 14.994451522827148 21.366283416748047 C15.117151260375977 21.373926162719727 15.239400863647461 21.381118774414062 15.362100601196289 21.388757705688477 C16.908203125 17.60574722290039 18.453859329223633 13.82228946685791 20.05524444580078 9.903995513916016 C19.460174560546875 9.634325981140137 18.974769592285156 9.414095878601074 18.004858016967773 8.97453498840332"></path></svg>