<svg xmlns="http://www.w3.org/2000/svg" viewBox="0.0 0.0 24.0 24.0" height="200px" width="200px"><path fill="none" stroke="black" stroke-width=".3" stroke-opacity="1.0"  filling="0" d="M11.928923606872559 15.064414024353027 L11.928923606872559 15.064414024353027 C13.058582305908203 15.130965232849121 13.813929557800293 14.940177917480469 14.667767524719238 15.860607147216797 C15.657916069030762 16.927978515625 15.384808540344238 18.70180892944336 15.440413475036621 20.004886627197266 C15.510115623474121 21.638330459594727 15.844260215759277 22.921415328979492 16.42136001586914 24.44611358642578 L16.42136001586914 24.44611358642578 C16.108922958374023 24.850793838500977 15.961593627929688 25.47757911682129 15.484047889709473 25.660152435302734 C14.571070671081543 26.009197235107422 13.545681953430176 25.143169403076172 12.57718276977539 25.274959564208984 C12.022662162780762 25.350418090820312 11.540438652038574 25.875394821166992 10.984953880310059 25.80739974975586 C9.702777862548828 25.650449752807617 8.992949485778809 24.331375122070312 9.045732498168945 23.181140899658203 C9.17349910736084 20.396892547607422 12.117098808288574 20.807748794555664 13.046475410461426 18.870275497436523 C13.456015586853027 18.01650619506836 12.929543495178223 17.133298873901367 12.013891220092773 17.01011848449707 C11.335073471069336 16.918798446655273 9.876269340515137 17.96619987487793 9.468316078186035 18.21634292602539 L9.468316078186035 18.21634292602539 C9.772198677062988 16.116823196411133 9.912738800048828 15.722649574279785 11.928923606872559 15.064414024353027 L11.928923606872559 15.064414024353027"></path>
<path fill="none" stroke="black" stroke-width=".3" stroke-opacity="1.0"  filling="0" d="M12.71377944946289 20.658430099487305 L12.71377944946289 20.658430099487305 C12.853618621826172 20.728349685668945 12.993456840515137 20.798267364501953 13.133296012878418 20.868186950683594 L13.133296012878418 20.868186950683594 C13.115082740783691 21.50811195373535 13.34365177154541 22.205196380615234 13.078657150268555 22.787960052490234 C12.86147689819336 23.265573501586914 12.243946075439453 23.423871994018555 11.826590538024902 23.7418270111084 L11.826590538024902 23.7418270111084 C11.395926475524902 22.03564453125 11.642308235168457 21.937870025634766 12.71377944946289 20.658430099487305 L12.71377944946289 20.658430099487305"></path></svg>