<svg xmlns="http://www.w3.org/2000/svg" viewBox="0.0 0.0 24.0 24.0" height="200px" width="200px"><path fill="none" stroke="black" stroke-width=".3" stroke-opacity="1.0"  filling="0" d="M10.952779769897461 9.663981437683105 C10.952779769897461 11.882941246032715 10.952779769897461 13.933198928833008 10.952779769897461 16.01386833190918 C15.031488418579102 15.566289901733398 16.307662963867188 16.523420333862305 16.9968204498291 20.338172912597656 C17.115026473999023 20.99060821533203 17.216018676757812 21.65738296508789 17.215444564819336 22.31785011291504 C17.211429595947266 28.03079605102539 14.108213424682617 30.139007568359375 8.382641792297363 28.10940933227539 C8.382641792297363 22.01200294494629 8.382641792297363 16.044281005859375 8.382641792297363 9.911871910095215 C9.223287582397461 9.830963134765625 9.939414024353027 9.761530876159668 10.952779769897461 9.663981437683105"></path>
<path fill="none" stroke="black" stroke-width=".3" stroke-opacity="1.0"  filling="0" d="M12.349455833435059 18.36136245727539 C12.86474609375 18.823862075805664 13.772527694702148 19.246768951416016 13.824746131896973 19.757465362548828 C14.004925727844238 21.51220703125 14.030747413635254 23.315147399902344 13.82589340209961 25.065872192382812 C13.700799942016602 26.137187957763672 13.307734489440918 26.193424224853516 11.088200569152832 26.41836166381836 C11.088200569152832 24.135135650634766 10.999258041381836 22.055614471435547 11.14558219909668 19.993305206298828 C11.186323165893555 19.424076080322266 11.92884635925293 18.90419578552246 12.349455833435059 18.36136245727539"></path></svg>