<svg xmlns="http://www.w3.org/2000/svg" viewBox="0.0 0.0 24.0 24.0" height="200px" width="200px"><path fill="none" stroke="black" stroke-width=".3" stroke-opacity="1.0"  filling="0" d="M8.78964900970459 19.16636085510254 C11.30278205871582 16.5430965423584 15.18964958190918 17.02005386352539 16.585742950439453 20.41423225402832 C17.48831558227539 22.606910705566406 17.637365341186523 25.108448028564453 18.225282669067383 27.962738037109375 C15.395833969116211 27.962738037109375 13.248700141906738 27.962738037109375 11.109018325805664 27.962738037109375 C11.056851387023926 33.306976318359375 12.087774276733398 34.01496124267578 17.348377227783203 32.61968994140625 C18.086997985839844 34.37764358520508 17.426212310791016 35.50462341308594 15.759347915649414 36.20183563232422 C13.480554580688477 37.1557502746582 10.295044898986816 36.6622314453125 8.761495590209961 35.10466766357422 C5.688601016998291 31.983747482299805 5.705162525177002 22.385818481445312 8.78964900970459 19.16636085510254"></path>
<path fill="none" stroke="black" stroke-width=".3" stroke-opacity="1.0"  filling="0" d="M11.485780715942383 20.654367446899414 C14.33344554901123 21.39133071899414 13.369595527648926 23.42502212524414 14.315228462219238 25.499290466308594 C12.447147369384766 25.351898193359375 11.583490371704102 25.28399658203125 10.328166961669922 25.183801651000977 C10.74964427947998 23.535152435302734 11.096597671508789 22.177978515625 11.485780715942383 20.654367446899414"></path></svg>