<svg xmlns="http://www.w3.org/2000/svg" viewBox="0.0 0.0 24.0 24.0" height="200px" width="200px"><path fill="none" stroke="black" stroke-width=".3" stroke-opacity="1.0"  filling="0" d="M13.437691688537598 10.256590843200684 L13.437691688537598 10.256590843200684 C13.594185829162598 10.391165733337402 13.750680923461914 10.525739669799805 13.907175064086914 10.660314559936523 L13.907175064086914 10.660314559936523 C13.568732261657715 11.448217391967773 12.726346015930176 12.04380989074707 12.635342597961426 12.896483421325684 C12.584537506103516 13.372512817382812 13.08942985534668 13.754558563232422 13.183506965637207 14.223957061767578 C13.379518508911133 15.201964378356934 12.768392562866211 15.655759811401367 12.598313331604004 16.5972957611084 C12.351485252380371 17.963706970214844 12.593231201171875 19.66781234741211 12.59451961517334 21.056907653808594 L12.59451961517334 21.056907653808594 C12.134627342224121 21.056907653808594 11.674734115600586 21.056907653808594 11.214841842651367 21.056907653808594 L11.214841842651367 21.056907653808594 C10.89652156829834 19.65922737121582 11.196136474609375 18.243022918701172 11.026732444763184 16.826820373535156 C10.943543434143066 16.131366729736328 10.396138191223145 15.483383178710938 10.504768371582031 14.791446685791016 C10.848624229431152 12.601205825805664 11.442325592041016 11.150540351867676 13.437691688537598 10.256590843200684 L13.437691688537598 10.256590843200684"></path></svg>