<svg xmlns="http://www.w3.org/2000/svg" viewBox="0.0 0.0 24.0 24.0" height="200px" width="200px"><path fill="none" stroke="black" stroke-width=".3" stroke-opacity="1.0"  filling="0" d="M13.557478904724121 14.053303718566895 L13.557478904724121 14.053303718566895 C13.46828842163086 15.663145065307617 13.083819389343262 17.73282814025879 12.996801376342773 19.7152099609375 C12.909784317016602 21.69759178161621 13.120217323303223 23.592670440673828 14.220830917358398 24.853302001953125 L14.220830917358398 24.853302001953125 C12.96911907196045 24.853300094604492 11.7174072265625 24.853300094604492 10.46569538116455 24.853300094604492 L10.46569538116455 24.853300094604492 C10.914508819580078 24.4689998626709 11.535845756530762 24.222686767578125 11.812134742736816 23.70039939880371 C12.039019584655762 23.271503448486328 11.986553192138672 20.755325317382812 11.98681354522705 20.297225952148438 C11.98781681060791 18.534719467163086 11.986377716064453 16.772214889526367 11.98599910736084 15.009708404541016 L11.98599910736084 15.009708404541016 C11.609423637390137 14.860365867614746 11.232847213745117 14.71102237701416 10.856271743774414 14.56167984008789 L10.856271743774414 14.56167984008789 C10.846938133239746 14.451281547546387 10.837603569030762 14.3408842086792 10.828269958496094 14.230485916137695 L10.828269958496094 14.230485916137695 C11.738007545471191 14.171440124511719 12.647743225097656 14.112377166748047 13.557478904724121 14.053303718566895 L13.557478904724121 14.053303718566895"></path></svg>