<svg xmlns="http://www.w3.org/2000/svg" viewBox="0.0 0.0 24.0 24.0" height="200px" width="200px"><path fill="none" stroke="black" stroke-width=".3" stroke-opacity="1.0"  filling="0" d="M12.802022933959961 11.31418228149414 L12.802022933959961 11.31418228149414 C12.70728588104248 13.067718505859375 12.730700492858887 14.930797576904297 12.641674041748047 16.77395248413086 C12.552648544311523 18.617107391357422 12.351181030273438 20.440338134765625 11.806680679321289 22.114181518554688 L11.806680679321289 22.114181518554688 C11.401081085205078 22.114181518554688 10.995482444763184 22.114181518554688 10.589882850646973 22.114181518554688 L10.589882850646973 22.114181518554688 C11.453024864196777 20.695518493652344 11.765711784362793 18.981874465942383 11.886774063110352 17.21086311340332 C12.00783634185791 15.439852714538574 11.937273979187012 13.611474990844727 12.033918380737305 11.96334457397461 L12.033918380737305 11.96334457397461 C11.731949806213379 11.853325843811035 11.429980278015137 11.743307113647461 11.128011703491211 11.633288383483887 L11.128011703491211 11.633288383483887 C11.131560325622559 11.551762580871582 11.135109901428223 11.470237731933594 11.13865852355957 11.388711929321289 L11.13865852355957 11.388711929321289 C11.693113327026367 11.363868713378906 12.247568130493164 11.339025497436523 12.802022933959961 11.31418228149414 L12.802022933959961 11.31418228149414"></path></svg>