<svg xmlns="http://www.w3.org/2000/svg" viewBox="0.0 0.0 24.0 24.0" height="200px" width="200px"><path fill="none" stroke="black" stroke-width=".3" stroke-opacity="1.0"  filling="0" d="M9.586280822753906 9.055566787719727 L9.586280822753906 9.055566787719727 C10.08786392211914 9.055566787719727 10.589446067810059 9.055566787719727 11.091029167175293 9.055566787719727 L11.091029167175293 9.055566787719727 C11.098591804504395 10.710949897766113 10.847859382629395 12.676288604736328 10.783300399780273 14.591710090637207 C10.718741416931152 16.50713348388672 10.840354919433594 18.372638702392578 11.592611312866211 19.828357696533203 L11.592611312866211 19.828357696533203 C10.842899322509766 19.828357696533203 10.093186378479004 19.828357696533203 9.343474388122559 19.828357696533203 L9.343474388122559 19.828357696533203 C10.184253692626953 18.601518630981445 10.441171646118164 16.78322410583496 10.507122993469238 14.90235710144043 C10.573074340820312 13.021490097045898 10.448060035705566 11.07805061340332 10.52497386932373 9.600919723510742 L10.52497386932373 9.600919723510742 C10.205273628234863 9.469707489013672 9.885574340820312 9.338496208190918 9.565874099731445 9.207283973693848 L9.565874099731445 9.207283973693848 C9.572676658630371 9.15671157836914 9.57947826385498 9.106139183044434 9.586280822753906 9.055566787719727 L9.586280822753906 9.055566787719727"></path>
<path fill="none" stroke="black" stroke-width=".3" stroke-opacity="1.0"  filling="0" d="M12.59843921661377 13.173514366149902 L12.59843921661377 13.173514366149902 C13.344306945800781 13.173514366149902 14.090174674987793 13.173514366149902 14.836042404174805 13.173514366149902 L14.836042404174805 13.173514366149902 C13.868780136108398 13.920491218566895 12.901496887207031 14.667441368103027 11.934197425842285 15.4143705368042 L11.934197425842285 15.4143705368042 C13.473731994628906 16.7625732421875 13.77050495147705 18.390533447265625 15.089494705200195 19.855566024780273 L15.089494705200195 19.855566024780273 C14.850099563598633 19.855566024780273 12.832284927368164 19.855566024780273 12.65936279296875 19.855566024780273 L12.65936279296875 19.855566024780273 C13.863106727600098 17.965164184570312 12.583723068237305 17.076738357543945 11.210509300231934 15.62582778930664 L11.210509300231934 15.62582778930664 C11.827089309692383 15.04207706451416 12.44372272491455 14.458381652832031 13.060391426086426 13.874724388122559 L13.060391426086426 13.874724388122559 C12.906407356262207 13.640987396240234 12.752423286437988 13.407251358032227 12.59843921661377 13.173514366149902 L12.59843921661377 13.173514366149902"></path></svg>