<svg xmlns="http://www.w3.org/2000/svg" viewBox="0.0 0.0 24.0 24.0" height="200px" width="200px"><path fill="none" stroke="black" stroke-width=".3" stroke-opacity="1.0"  filling="0" d="M8.802889823913574 7.873294353485107 L8.802889823913574 7.873294353485107 C10.102959632873535 7.873294353485107 11.403029441833496 7.873294353485107 12.703099250793457 7.873294353485107 L12.703099250793457 7.873294353485107 C12.557366371154785 8.673391342163086 12.411643028259277 9.473490715026855 12.265929222106934 10.273591995239258 L12.265929222106934 10.273591995239258 C12.826469421386719 10.0028657913208 13.350371360778809 9.637129783630371 13.947549819946289 9.461414337158203 C14.505767822265625 9.297162055969238 15.105002403259277 9.196824073791504 15.682477951049805 9.268295288085938 C17.447898864746094 9.486791610717773 17.873525619506836 10.664207458496094 17.799856185913086 12.06940746307373 C17.72618865966797 13.47460651397705 17.153221130371094 15.107588768005371 16.921451568603516 16.237215042114258 L16.921451568603516 16.237215042114258 C15.612537384033203 16.237215042114258 14.30362319946289 16.237215042114258 12.994709014892578 16.237215042114258 L12.994709014892578 16.237215042114258 C13.235868453979492 14.94437026977539 13.477009773254395 13.651521682739258 13.718132972717285 12.35866928100586 L13.718132972717285 12.35866928100586 C13.258426666259766 12.279154777526855 12.779169082641602 11.965476036071777 12.339015007019043 12.120124816894531 C11.26667308807373 12.496893882751465 11.131678581237793 15.40393352508545 10.942492485046387 16.26837158203125 L10.942492485046387 16.26837158203125 C10.871137619018555 16.26837158203125 7.063355922698975 16.26837158203125 7.02913761138916 16.26837158203125 L7.02913761138916 16.26837158203125 C7.324760437011719 14.869192123413086 7.620393753051758 13.470014572143555 7.9160237312316895 12.07083511352539 C8.211653709411621 10.671656608581543 8.507280349731445 9.272477149963379 8.802889823913574 7.873294353485107 L8.802889823913574 7.873294353485107"></path></svg>