<svg xmlns="http://www.w3.org/2000/svg" viewBox="0.0 0.0 24.0 24.0" height="200px" width="200px"><path fill="none" stroke="black" stroke-width=".3" stroke-opacity="1.0"  filling="0" d="M6.316247940063477 4.663634300231934 C8.606279373168945 4.663634300231934 10.809330940246582 4.663634300231934 13.249955177307129 4.663634300231934 C12.999834060668945 6.036701679229736 12.764426231384277 7.32927942276001 12.472764015197754 8.930830001831055 C14.478921890258789 7.590219020843506 16.41411018371582 7.016845226287842 18.546627044677734 7.143636703491211 C21.46845245361328 7.317162990570068 22.66929054260254 8.515838623046875 22.297138214111328 11.38659954071045 C21.94748878479004 14.081670761108398 21.293193817138672 16.737361907958984 20.74924659729004 19.532827377319336 C18.374399185180664 19.532827377319336 16.113361358642578 19.532827377319336 13.76837158203125 19.532827377319336 C14.206731796264648 17.18307876586914 14.636004447937012 14.881363868713379 15.054458618164062 12.637635231018066 C12.781304359436035 11.71071720123291 12.001083374023438 12.00800609588623 11.419920921325684 13.914634704589844 C11.127392768859863 14.87444019317627 10.942614555358887 15.867566108703613 10.719756126403809 16.84770965576172 C10.515073776245117 17.747798919677734 10.32466983795166 18.651348114013672 10.119985580444336 19.58821678161621 C7.815239906311035 19.58821678161621 5.605264663696289 19.58821678161621 3.1629114151000977 19.58821678161621 C4.226572513580322 14.553783416748047 5.261240482330322 9.657391548156738 6.316247940063477 4.663634300231934"></path></svg>