<svg xmlns="http://www.w3.org/2000/svg" viewBox="0.0 0.0 24.0 24.0" height="200px" width="200px"><path fill="none" stroke="black" stroke-width=".3" stroke-opacity="1.0"  filling="0" d="M13.852365493774414 13.731576919555664 L13.852365493774414 13.731576919555664 C14.195829391479492 13.95033073425293 14.697007179260254 14.025461196899414 14.882758140563965 14.387839317321777 C15.048612594604492 14.711400985717773 14.789779663085938 15.10905647277832 14.743289947509766 15.46966552734375 L14.743289947509766 15.46966552734375 C14.577245712280273 15.370304107666016 12.799346923828125 14.211352348327637 12.418231010437012 14.319938659667969 C11.307652473449707 14.63636302947998 10.469038963317871 15.648693084716797 10.84829330444336 16.810590744018555 C11.567662239074707 19.014476776123047 15.522807121276855 19.36153793334961 14.599922180175781 22.394826889038086 C14.017428398132324 24.309337615966797 10.767597198486328 25.20500373840332 9.314895629882812 23.742591857910156 C8.840180397033691 23.26470375061035 9.193131446838379 22.186542510986328 9.27532958984375 21.723819732666016 L9.27532958984375 21.723819732666016 C9.746807098388672 22.565282821655273 10.096573829650879 23.5269832611084 11.242086410522461 23.76848602294922 C12.308821678161621 23.993379592895508 13.557241439819336 23.10804557800293 13.585007667541504 21.975582122802734 C13.620170593261719 20.541391372680664 12.20661449432373 19.667837142944336 11.040892601013184 18.728307723999023 C9.875170707702637 17.78877830505371 8.957283020019531 16.783273696899414 9.983785629272461 15.085184097290039 C10.22323989868164 14.689067840576172 10.573236465454102 14.347990989685059 10.966890335083008 14.104510307312012 C11.380813598632812 13.848493576049805 11.863069534301758 13.686659812927246 12.345754623413086 13.624275207519531 C12.845077514648438 13.55974006652832 13.3501615524292 13.695809364318848 13.852365493774414 13.731576919555664 L13.852365493774414 13.731576919555664"></path></svg>