<svg xmlns="http://www.w3.org/2000/svg" viewBox="0.0 0.0 24.0 24.0" height="200px" width="200px"><path fill="none" stroke="black" stroke-width=".3" stroke-opacity="1.0"  filling="0" d="M12.015604972839355 10.275100708007812 C12.350292205810547 11.90005874633789 12.527596473693848 12.760018348693848 12.746736526489258 13.824506759643555 C13.737516403198242 13.950678825378418 14.784075736999512 14.084155082702637 15.830636978149414 14.217630386352539 C15.853215217590332 14.398920059204102 15.87579345703125 14.580207824707031 15.898370742797852 14.761496543884277 C14.843177795410156 14.910910606384277 13.78864860534668 15.060988426208496 12.282557487487793 15.274151802062988 C12.159042358398438 18.893285751342773 11.874824523925781 22.607379913330078 11.964472770690918 26.31283950805664 C12.01693344116211 28.47369384765625 12.963220596313477 28.64701271057129 15.733683586120605 27.327524185180664 C14.568921089172363 29.25861167907715 13.798609733581543 29.735410690307617 12.383495330810547 29.350919723510742 C10.701428413391113 28.89404296875 10.14494514465332 27.593812942504883 10.195413589477539 26.052528381347656 C10.293030738830566 23.069564819335938 10.539397239685059 20.091251373291016 10.677522659301758 17.108951568603516 C10.743928909301758 15.670598030090332 10.696115493774414 15.668606758117676 9.470922470092773 14.932825088500977 C10.299671173095703 13.416109085083008 10.979005813598633 12.17298698425293 12.015604972839355 10.275100708007812"></path></svg>