<svg xmlns="http://www.w3.org/2000/svg" viewBox="0.0 0.0 24.0 24.0" height="200px" width="200px"><path fill="none" stroke="black" stroke-width=".3" stroke-opacity="1.0"  filling="0" d="M13.38880729675293 12.416247367858887 C13.595287322998047 14.132528305053711 13.717597007751465 15.147172927856445 13.860949516296387 16.337392807006836 C14.60335636138916 16.56951904296875 15.388506889343262 16.814794540405273 16.154586791992188 17.054153442382812 C15.993478775024414 18.897348403930664 15.993478775024414 18.897348403930664 13.692609786987305 19.85017967224121 C13.692609786987305 21.925500869750977 13.692609786987305 24.09617042541504 13.692609786987305 26.2668399810791 C13.692609786987305 27.898292541503906 14.135817527770996 29.128625869750977 16.142093658447266 28.688047409057617 C16.51691246032715 30.073566436767578 16.671443939208984 31.113855361938477 15.12547492980957 31.423574447631836 C13.576218605041504 31.733295440673828 11.978301048278809 31.87270164489746 11.121475219726562 30.19587516784668 C10.694705963134766 29.361408233642578 10.538202285766602 28.329008102416992 10.488883972167969 27.374858856201172 C10.387617111206055 25.41724395751953 10.554641723632812 23.441879272460938 10.38564395904541 21.492813110351562 C10.297527313232422 20.48540496826172 9.7267484664917 19.520076751708984 9.13032341003418 17.851139068603516 C10.215987205505371 16.464962005615234 11.592958450317383 14.707910537719727 13.38880729675293 12.416247367858887"></path></svg>