<svg xmlns="http://www.w3.org/2000/svg" viewBox="0.0 0.0 24.0 24.0" height="200px" width="200px"><path fill="none" stroke="black" stroke-width=".3" stroke-opacity="1.0"  filling="0" d="M12.008777618408203 11.029744148254395 L12.008777618408203 11.029744148254395 C12.14587688446045 11.695255279541016 12.282967567443848 12.36076831817627 12.420039176940918 13.026285171508789 L12.420039176940918 13.026285171508789 C12.998270034790039 13.099995613098145 13.576501846313477 13.173707008361816 14.154732704162598 13.247417449951172 L14.154732704162598 13.247417449951172 C14.16743278503418 13.34939193725586 14.180132865905762 13.451367378234863 14.192832946777344 13.55334186553955 L14.192832946777344 13.55334186553955 C13.514871597290039 13.649492263793945 12.836906433105469 13.745610237121582 12.15893840789795 13.841710090637207 L12.15893840789795 13.841710090637207 C12.077954292297363 15.774396896362305 11.618412017822266 18.144397735595703 11.980015754699707 20.05097198486328 C12.050189018249512 20.420961380004883 12.103137969970703 20.97259521484375 12.466777801513672 21.07048797607422 C13.012014389038086 21.217267990112305 13.555724143981934 20.771316528320312 14.100196838378906 20.62173080444336 L14.100196838378906 20.62173080444336 C13.803719520568848 20.974239349365234 13.605042457580566 21.441123962402344 13.21076488494873 21.67925453186035 C12.55174446105957 22.077280044555664 11.598562240600586 21.609216690063477 11.234861373901367 21.06096076965332 C10.149524688720703 19.42488670349121 11.615665435791016 16.653589248657227 11.25610637664795 14.873785018920898 C11.16372013092041 14.416476249694824 10.803631782531738 14.057738304138184 10.577394485473633 13.649714469909668 L10.577394485473633 13.649714469909668 C11.05456829071045 12.776415824890137 11.53169059753418 11.90308952331543 12.008777618408203 11.029744148254395 L12.008777618408203 11.029744148254395"></path></svg>