<svg xmlns="http://www.w3.org/2000/svg" viewBox="0.0 0.0 24.0 24.0" height="200px" width="200px"><path fill="none" stroke="black" stroke-width=".3" stroke-opacity="1.0"  filling="0" d="M18.35080337524414 17.91714096069336 C18.35080337524414 24.419878005981445 18.35080337524414 30.5588436126709 18.35080337524414 37.110198974609375 C17.02594566345215 37.00688552856445 15.8104829788208 36.916595458984375 14.59588623046875 36.81501770019531 C13.932589530944824 36.75944900512695 13.201574325561523 36.464263916015625 12.619887351989746 36.650062561035156 C8.581071853637695 37.94105529785156 6.177056312561035 36.58494567871094 5.887949466705322 32.216217041015625 C5.587555408477783 27.64520263671875 5.821966648101807 23.039459228515625 5.821966648101807 18.1315860748291 C7.467185020446777 18.1315860748291 8.568917274475098 18.1315860748291 9.75052261352539 18.1315860748291 C10.725499153137207 23.32769775390625 9.12716293334961 28.57763671875 10.769776344299316 33.59490203857422 C14.019407272338867 33.45338821411133 14.315461158752441 31.531217575073242 14.318933486938477 29.3980770111084 C14.325010299682617 25.80203628540039 14.320669174194336 22.206863403320312 14.320669174194336 18.22100830078125 C15.694143295288086 18.117694854736328 16.871408462524414 18.028270721435547 18.35080337524414 17.91714096069336"></path></svg>