<svg xmlns="http://www.w3.org/2000/svg" viewBox="0.0 0.0 24.0 24.0" height="200px" width="200px"><path fill="none" stroke="black" stroke-width=".3" stroke-opacity="1.0"  filling="0" d="M5.797706604003906 18.074087142944336 C7.486415386199951 18.074087142944336 8.708916664123535 18.074087142944336 9.96767807006836 18.074087142944336 C10.758504867553711 19.6220703125 11.525158882141113 21.12084197998047 12.41181755065918 22.85703468322754 C14.020235061645508 20.510454177856445 13.846701622009277 16.311992645263672 18.698719024658203 18.319276809692383 C17.496074676513672 21.23394012451172 16.276165008544922 24.190044403076172 15.045892715454102 27.17032241821289 C16.416027069091797 30.22053337097168 17.761985778808594 33.21807861328125 19.287521362304688 36.6162109375 C17.788747787475586 36.755210876464844 16.611141204833984 36.8648567199707 15.237554550170898 36.99177551269531 C14.337945938110352 35.06218719482422 13.505678176879883 33.27678298950195 12.510237693786621 31.140859603881836 C11.598542213439941 33.150733947753906 10.837931632995605 34.82908630371094 9.982354164123535 36.71636199951172 C8.834100723266602 36.71636199951172 7.590879440307617 36.71636199951172 5.718277454376221 36.71636199951172 C6.642059803009033 34.631378173828125 7.2593536376953125 32.757911682128906 8.249613761901855 31.108917236328125 C9.918466567993164 28.330657958984375 9.809683799743652 25.775150299072266 8.120111465454102 23.06423568725586 C7.227411270141602 21.632808685302734 6.6731414794921875 19.989856719970703 5.797706604003906 18.074087142944336"></path></svg>