<svg xmlns="http://www.w3.org/2000/svg" viewBox="0.0 0.0 24.0 24.0" height="200px" width="200px"><path fill="none" stroke="black" stroke-width=".3" stroke-opacity="1.0"  filling="0" d="M9.458707809448242 14.342878341674805 L9.458707809448242 14.342878341674805 C11.638900756835938 14.342878341674805 13.819096565246582 14.342878341674805 15.999289512634277 14.342878341674805 L15.999289512634277 14.342878341674805 C15.01559066772461 16.022449493408203 14.031909942626953 17.702028274536133 13.048267364501953 19.381629943847656 C12.064624786376953 21.06123161315918 11.081019401550293 22.740856170654297 10.09747314453125 24.420516967773438 L10.09747314453125 24.420516967773438 C11.557600975036621 24.420516967773438 13.017730712890625 24.420516967773438 14.47785758972168 24.420516967773438 L14.47785758972168 24.420516967773438 C14.705039978027344 23.820600509643555 14.932222366333008 23.22068214416504 15.159404754638672 22.620765686035156 L15.159404754638672 22.620765686035156 C15.247425079345703 22.642728805541992 15.33544635772705 22.664691925048828 15.423466682434082 22.686655044555664 L15.423466682434082 22.686655044555664 C15.423466682434082 23.505231857299805 15.423466682434082 24.323810577392578 15.423466682434082 25.14238739013672 L15.423466682434082 25.14238739013672 C13.049036979675293 25.14238739013672 10.674606323242188 25.14238739013672 8.300176620483398 25.14238739013672 L8.300176620483398 25.14238739013672 C9.287096977233887 23.47570037841797 10.273964881896973 21.80898094177246 11.260793685913086 20.14223861694336 C12.247621536254883 18.475496292114258 13.234411239624023 16.808731079101562 14.221172332763672 15.141948699951172 L14.221172332763672 15.141948699951172 C12.916105270385742 15.141948699951172 11.611037254333496 15.141948699951172 10.30596923828125 15.141948699951172 L10.30596923828125 15.141948699951172 C10.1318941116333 15.542878150939941 9.957819938659668 15.943806648254395 9.783744812011719 16.344736099243164 L9.783744812011719 16.344736099243164 C9.675398826599121 16.320148468017578 9.56705379486084 16.295562744140625 9.458707809448242 16.27097511291504 L9.458707809448242 16.27097511291504 C9.458707809448242 15.628275871276855 9.458707809448242 14.985577583312988 9.458707809448242 14.342878341674805 L9.458707809448242 14.342878341674805"></path></svg>