<svg xmlns="http://www.w3.org/2000/svg" viewBox="0.0 0.0 24.0 24.0" height="200px" width="200px"><path fill="none" stroke="black" stroke-width=".3" stroke-opacity="1.0"  filling="0" d="M7.482146263122559 16.165117263793945 C11.275289535522461 16.165117263793945 14.810544967651367 16.165117263793945 19.109848022460938 16.165117263793945 C15.482803344726562 22.357929229736328 12.172216415405273 28.0104923248291 8.617729187011719 34.0809211730957 C11.475481033325195 34.0809211730957 13.748394966125488 34.0809211730957 16.405080795288086 34.0809211730957 C16.850921630859375 32.902503967285156 17.23381996154785 31.891931533813477 17.616718292236328 30.88136100769043 C17.7731990814209 30.920698165893555 17.9296817779541 30.95916175842285 18.086162567138672 30.998498916625977 C18.086162567138672 32.36749267578125 18.086162567138672 33.73561477661133 18.086162567138672 35.36424255371094 C14.078841209411621 35.36424255371094 10.200900077819824 35.36424255371094 5.422536373138428 35.36424255371094 C8.989262580871582 29.341022491455078 12.334815979003906 23.690208435058594 15.948750495910645 17.58568572998047 C13.417074203491211 17.58568572998047 11.353093147277832 17.58568572998047 8.988389015197754 17.58568572998047 C8.75060749053955 18.133808135986328 8.405299186706543 18.92845344543457 8.059990882873535 19.723974227905273 C7.867667198181152 19.68026351928711 7.674469470977783 19.636554718017578 7.482146263122559 19.592845916748047 C7.482146263122559 18.5604190826416 7.482146263122559 17.527990341186523 7.482146263122559 16.165117263793945"></path></svg>