<svg xmlns="http://www.w3.org/2000/svg" viewBox="0.0 0.0 24.0 24.0" height="200px" width="200px"><path fill="none" stroke="black" stroke-width=".3" stroke-opacity="1.0"  filling="0" d="M12.339720726013184 10.486495971679688 L12.339720726013184 10.486495971679688 C13.761200904846191 10.94071102142334 14.486700057983398 12.064796447753906 14.807849884033203 13.398764610290527 C15.128999710083008 14.732732772827148 15.04580020904541 16.27658462524414 14.849881172180176 17.57033348083496 C14.616939544677734 19.108562469482422 14.340080261230469 21.31246566772461 12.237378120422363 21.28523063659668 C10.328411102294922 21.2605037689209 9.955716133117676 19.02176284790039 9.77434253692627 17.608182907104492 C9.601585388183594 16.26175880432129 9.514924049377441 14.723453521728516 9.835454940795898 13.40069580078125 C10.155984878540039 12.077938079833984 10.883708953857422 10.970727920532227 12.339720726013184 10.486495971679688 L12.339720726013184 10.486495971679688"></path>
<path fill="none" stroke="black" stroke-width=".3" stroke-opacity="1.0"  filling="0" d="M12.356778144836426 12.023847579956055 L12.356778144836426 12.023847579956055 C11.701315879821777 13.252715110778809 11.403266906738281 14.554359436035156 11.408632278442383 15.862719535827637 C11.413996696472168 17.171077728271484 11.72277545928955 18.48615264892578 12.28096866607666 19.741878509521484 L12.28096866607666 19.741878509521484 C12.906259536743164 18.509519577026367 13.213306427001953 17.20460319519043 13.21998405456543 15.89548110961914 C13.22666072845459 14.586359024047852 12.932968139648438 13.273030281066895 12.356778144836426 12.023847579956055 L12.356778144836426 12.023847579956055"></path></svg>