<svg xmlns="http://www.w3.org/2000/svg" viewBox="0.0 0.0 24.0 24.0" height="200px" width="200px"><path fill="none" stroke="black" stroke-width=".3" stroke-opacity="1.0"  filling="0" d="M10.690428733825684 11.177014350891113 L10.690428733825684 11.177014350891113 C12.993891716003418 10.15533447265625 14.5625 11.123234748840332 14.774672508239746 13.763137817382812 C14.879751205444336 15.070560455322266 14.50727367401123 16.37567138671875 13.97729206085205 17.638803482055664 C13.447310447692871 18.901935577392578 12.759824752807617 20.123085021972656 12.234888076782227 21.26258659362793 L12.234888076782227 21.26258659362793 C11.615994453430176 21.28969955444336 10.997100830078125 21.31681251525879 10.378207206726074 21.34392547607422 L10.378207206726074 21.34392547607422 C11.016214370727539 20.012741088867188 11.654233932495117 18.681564331054688 12.292207717895508 17.350364685058594 L12.292207717895508 17.350364685058594 C11.712529182434082 17.164325714111328 11.02858829498291 17.17253303527832 10.553171157836914 16.792247772216797 C8.778995513916016 15.373087882995605 9.73444652557373 12.610136032104492 10.690428733825684 11.177014350891113 L10.690428733825684 11.177014350891113"></path>
<path fill="none" stroke="black" stroke-width=".3" stroke-opacity="1.0"  filling="0" d="M12.112560272216797 12.10887622833252 L12.112560272216797 12.10887622833252 C11.212618827819824 13.78077507019043 11.122268676757812 14.221868515014648 12.191976547241211 15.79758071899414 L12.191976547241211 15.79758071899414 C13.159003257751465 14.176974296569824 13.213501930236816 13.652898788452148 12.112560272216797 12.10887622833252 L12.112560272216797 12.10887622833252"></path></svg>