<svg xmlns="http://www.w3.org/2000/svg" viewBox="0.0 0.0 24.0 24.0" height="200px" width="200px"><path fill="none" stroke="black" stroke-width=".3" stroke-opacity="1.0"  filling="0" d="M9.225847244262695 10.145376205444336 C13.306941986083984 9.219505310058594 15.817631721496582 9.80523681640625 16.904924392700195 11.831659317016602 C18.09137725830078 14.041412353515625 17.473936080932617 16.3209228515625 14.931539535522461 18.802785873413086 C17.251405715942383 20.517318725585938 17.531009674072266 22.873504638671875 16.594762802124023 25.35248565673828 C15.573768615722656 28.0568790435791 13.201441764831543 28.793659210205078 10.5662260055542 28.894550323486328 C9.339418411254883 28.942398071289062 8.109151840209961 28.903196334838867 6.573913097381592 28.903196334838867 C7.502666473388672 22.332740783691406 8.370309829711914 16.196971893310547 9.225847244262695 10.145376205444336"></path>
<path fill="none" stroke="black" stroke-width=".3" stroke-opacity="1.0"  filling="0" d="M12.201776504516602 12.178139686584473 C14.276627540588379 12.430649757385254 14.37982177734375 13.662646293640137 14.209176063537598 14.947681427001953 C14.024117469787598 16.34052276611328 13.534086227416992 17.55176544189453 11.36353588104248 17.442806243896484 C11.676579475402832 15.475186347961426 11.936007499694824 13.843093872070312 12.201776504516602 12.178139686584473"></path>
<path fill="none" stroke="black" stroke-width=".3" stroke-opacity="1.0"  filling="0" d="M10.891376495361328 20.295940399169922 C13.098246574401855 20.253854751586914 13.8621187210083 21.252365112304688 13.898439407348633 22.913860321044922 C13.942253112792969 24.888397216796875 13.020418167114258 25.796974182128906 10.160365104675293 26.43804931640625 C10.404228210449219 24.390872955322266 10.632524490356445 22.47225570678711 10.891376495361328 20.295940399169922"></path></svg>