<svg xmlns="http://www.w3.org/2000/svg" viewBox="0.0 0.0 24.0 24.0" height="200px" width="200px"><path fill="none" stroke="black" stroke-width=".3" stroke-opacity="1.0"  filling="0" d="M17.9786376953125 9.713584899902344 C17.8975772857666 10.599580764770508 17.831253051757812 11.317221641540527 17.754161834716797 12.157870292663574 C14.724313735961914 11.666973114013672 13.154119491577148 13.410623550415039 12.476726531982422 15.804458618164062 C11.8225736618042 18.11553382873535 11.444479942321777 20.581928253173828 11.445047378540039 22.9797306060791 C11.445613861083984 25.53795623779297 12.39056396484375 26.057762145996094 14.893802642822266 25.609943389892578 C15.227681159973145 25.550424575805664 15.546821594238281 25.40700912475586 15.927749633789062 25.284568786621094 C16.287704467773438 26.61157989501953 16.294506072998047 27.75322914123535 14.956724166870117 28.23675537109375 C13.218174934387207 28.865402221679688 11.355484008789062 29.040557861328125 9.923036575317383 27.636455535888672 C9.164583206176758 26.892738342285156 8.484922409057617 25.773765563964844 8.345475196838379 24.746055603027344 C7.778051853179932 20.560386657714844 8.181086540222168 16.468246459960938 10.515401840209961 12.795581817626953 C12.2958984375 9.994178771972656 14.5621919631958 9.042993545532227 17.9786376953125 9.713584899902344"></path></svg>