<svg xmlns="http://www.w3.org/2000/svg" viewBox="0.0 0.0 24.0 24.0" height="200px" width="200px"><path fill="none" stroke="black" stroke-width=".3" stroke-opacity="1.0"  filling="0" d="M3.4613866806030273 9.170207023620605 C8.170076370239258 8.613179206848145 12.907960891723633 8.169503211975098 17.39109230041504 10.178925514221191 C21.009769439697266 11.800775527954102 22.894390106201172 15.709701538085938 22.3774356842041 19.900293350219727 C21.892541885375977 23.828685760498047 19.60947036743164 26.256593704223633 15.489297866821289 27.225238800048828 C12.754535675048828 27.86813735961914 5.821169853210449 27.899051666259766 3.3028078079223633 26.759807586669922 C4.118027210235596 26.483871459960938 4.933818817138672 26.20793342590332 5.811437606811523 25.910812377929688 C5.811437606811523 20.866647720336914 5.811437606811523 15.835649490356445 5.811437606811523 10.604281425476074 C5.323107719421387 10.488067626953125 4.795277118682861 10.410781860351562 4.305229663848877 10.2310209274292 C3.923954963684082 10.091334342956543 3.590195655822754 9.82341194152832 3.261590003967285 9.628767013549805 C3.3863916397094727 9.33450984954834 3.4144439697265625 9.175359725952148 3.4613866806030273 9.170207023620605"></path>
<path fill="none" stroke="black" stroke-width=".3" stroke-opacity="1.0"  filling="0" d="M9.512553215026855 10.560200691223145 C13.102605819702148 10.1932373046875 16.049758911132812 10.885371208190918 17.676189422607422 13.935571670532227 C19.320938110351562 17.019550323486328 19.582563400268555 20.423545837402344 17.574859619140625 23.461151123046875 C15.700543403625488 26.2972412109375 12.694997787475586 26.31212615966797 9.512553215026855 25.89077377319336 C9.512553215026855 20.785354614257812 9.512553215026855 15.785842895507812 9.512553215026855 10.560200691223145"></path></svg>