<svg xmlns="http://www.w3.org/2000/svg" viewBox="0.0 0.0 24.0 24.0" height="200px" width="200px"><path fill="none" stroke="black" stroke-width=".3" stroke-opacity="1.0"  filling="0" d="M11.235249519348145 10.510004043579102 L11.235249519348145 10.510004043579102 C12.497653007507324 10.510004043579102 13.760055541992188 10.510004043579102 15.022459030151367 10.510004043579102 L15.022459030151367 10.510004043579102 C14.990196228027344 10.952020645141602 14.95793342590332 11.394038200378418 14.925670623779297 11.836054801940918 L14.925670623779297 11.836054801940918 C14.22347354888916 11.917070388793945 13.521272659301758 11.998054504394531 12.819068908691406 12.079010009765625 L12.819068908691406 12.079010009765625 C12.701643943786621 12.97697925567627 12.584226608276367 13.874948501586914 12.466815948486328 14.772919654846191 L12.466815948486328 14.772919654846191 C13.041723251342773 14.861257553100586 13.616629600524902 14.949594497680664 14.191536903381348 15.037932395935059 L14.191536903381348 15.037932395935059 C14.191536903381348 15.482802391052246 14.191536903381348 15.92767333984375 14.191536903381348 16.372543334960938 L14.191536903381348 16.372543334960938 C13.533669471740723 16.450565338134766 12.875802993774414 16.528587341308594 12.217935562133789 16.606609344482422 L12.217935562133789 16.606609344482422 C11.972671508789062 18.174407958984375 11.727417945861816 19.742204666137695 11.482155799865723 21.31000518798828 L11.482155799865723 21.31000518798828 C10.89342212677002 21.31000518798828 10.3046875 21.31000518798828 9.715953826904297 21.31000518798828 L9.715953826904297 21.31000518798828 C9.969108581542969 19.509998321533203 10.22230339050293 17.709993362426758 10.47552490234375 15.909994125366211 C10.728745460510254 14.109993934631348 10.9819917678833 12.30999755859375 11.235249519348145 10.510004043579102 L11.235249519348145 10.510004043579102"></path></svg>