<svg xmlns="http://www.w3.org/2000/svg" viewBox="0.0 0.0 24.0 24.0" height="200px" width="200px"><path fill="none" stroke="black" stroke-width=".3" stroke-opacity="1.0"  filling="0" d="M12.42939567565918 9.458134651184082 L12.42939567565918 9.458134651184082 C14.180075645446777 9.723902702331543 15.652435302734375 10.008879661560059 16.75994873046875 11.556134223937988 C18.057865142822266 13.369390487670898 18.000816345214844 15.484421730041504 17.08203887939453 17.137928009033203 C16.16326141357422 18.791433334350586 14.3827543258667 19.983413696289062 12.23375129699707 19.9505672454834 C10.107458114624023 19.918067932128906 8.358763694763184 18.670461654663086 7.484237194061279 16.99302101135254 C6.609710693359375 15.315579414367676 6.609353065490723 13.208304405212402 7.979735374450684 11.45647144317627 C9.15807819366455 9.950132369995117 10.658308029174805 9.690299034118652 12.42939567565918 9.458134651184082 L12.42939567565918 9.458134651184082"></path>
<path fill="none" stroke="black" stroke-width=".3" stroke-opacity="1.0"  filling="0" d="M12.402388572692871 10.158790588378906 L12.402388572692871 10.158790588378906 C13.552745819091797 10.555339813232422 14.766657829284668 11.2763090133667 15.310935020446777 12.364581108093262 C15.891925811767578 13.526260375976562 15.942327499389648 15.231470108032227 15.451173782348633 16.646556854248047 C14.960020065307617 18.0616455078125 13.927310943603516 19.186609268188477 12.34207534790039 19.18779754638672 C10.373513221740723 19.189273834228516 9.336069107055664 17.50593376159668 9.01391315460205 15.784506797790527 C8.497895240783691 13.02718734741211 9.649728775024414 10.654007911682129 12.402388572692871 10.158790588378906 L12.402388572692871 10.158790588378906"></path></svg>