<svg xmlns="http://www.w3.org/2000/svg" viewBox="0.0 0.0 24.0 24.0" height="200px" width="200px"><path fill="none" stroke="black" stroke-width=".3" stroke-opacity="1.0"  filling="0" d="M19.898326873779297 7.851370811462402 C19.898326873779297 9.69569206237793 19.898326873779297 11.393257141113281 19.898326873779297 13.091367721557617 C19.712142944335938 13.140652656555176 19.52541160583496 13.189390182495117 19.3392276763916 13.238672256469727 C19.044071197509766 12.42712688446045 18.748912811279297 11.615582466125488 18.402828216552734 10.664399147033691 C17.652067184448242 10.629351615905762 16.848735809326172 10.566377639770508 16.044857025146484 10.562544822692871 C15.428807258605957 10.559259414672852 14.81275463104248 10.630447387695312 14.079516410827637 10.6753511428833 C14.079516410827637 15.647024154663086 14.079516410827637 20.43853759765625 14.079516410827637 25.343399047851562 C14.869157791137695 25.615009307861328 15.706440925598145 25.903047561645508 16.544269561767578 26.190540313720703 C16.512508392333984 26.453935623168945 16.480749130249023 26.71733283996582 16.448986053466797 26.980728149414062 C13.672101974487305 27.117082595825195 10.889190673828125 27.006465911865234 8.013188362121582 27.038227081298828 C8.086566925048828 24.882869720458984 9.93307876586914 26.23106575012207 10.519011497497559 25.127099990844727 C10.519011497497559 20.36680030822754 10.519011497497559 15.655786514282227 10.519011497497559 10.750372886657715 C8.997227668762207 10.750372886657715 7.5898919105529785 10.750372886657715 6.027037620544434 10.750372886657715 C5.850162982940674 11.494562149047852 5.655216693878174 12.313226699829102 5.443842887878418 13.20362663269043 C4.038149833679199 12.125399589538574 3.8968677520751953 10.877416610717773 4.724842071533203 8.014555931091309 C7.634795188903809 9.390678405761719 17.34157943725586 9.37972640991211 19.898326873779297 7.851370811462402"></path></svg>