<svg xmlns="http://www.w3.org/2000/svg" viewBox="0.0 0.0 24.0 24.0" height="200px" width="200px"><path fill="none" stroke="black" stroke-width=".3" stroke-opacity="1.0"  filling="0" d="M16.661550521850586 10.238165855407715 L16.661550521850586 10.238165855407715 C16.963951110839844 10.287272453308105 17.26634979248047 10.33637809753418 17.568750381469727 10.38548469543457 L17.568750381469727 10.38548469543457 C17.568750381469727 11.847986221313477 17.568750381469727 13.310481071472168 17.568750381469727 14.772984504699707 L17.568750381469727 14.772984504699707 C16.87207794189453 15.402453422546387 15.613555908203125 15.104414939880371 14.721430778503418 15.102214813232422 L14.721430778503418 15.102214813232422 C14.895649909973145 14.177692413330078 15.069857597351074 13.253168106079102 15.244050025939941 12.328640937805176 L15.244050025939941 12.328640937805176 C13.545418739318848 13.123956680297852 13.798721313476562 13.352409362792969 13.453950881958008 15.058677673339844 L13.453950881958008 15.058677673339844 C12.571388244628906 15.058677673339844 11.688825607299805 15.058677673339844 10.806262969970703 15.058677673339844 L10.806262969970703 15.058677673339844 C10.954950332641602 14.151407241821289 11.059039115905762 13.235457420349121 11.11305046081543 12.317671775817871 L11.11305046081543 12.317671775817871 C9.61223316192627 13.155769348144531 9.787557601928711 13.517704010009766 9.430107116699219 15.11048412322998 L9.430107116699219 15.11048412322998 C8.542987823486328 15.11048412322998 7.655869007110596 15.11048412322998 6.768750190734863 15.11048412322998 L6.768750190734863 15.11048412322998 C6.768750190734863 13.575688362121582 7.397674083709717 11.93881893157959 7.726406097412109 10.434759140014648 L7.726406097412109 10.434759140014648 C8.554631233215332 10.434759140014648 9.382856369018555 10.434759140014648 10.211081504821777 10.434759140014648 L10.211081504821777 10.434759140014648 C10.221319198608398 10.604071617126465 10.231555938720703 10.773384094238281 10.241793632507324 10.942696571350098 L10.241793632507324 10.942696571350098 C12.00706672668457 10.120332717895508 12.523616790771484 9.980497360229492 14.139244079589844 11.082252502441406 L14.139244079589844 11.082252502441406 C14.884730339050293 10.602349281311035 15.777375221252441 10.303672790527344 16.661550521850586 10.238165855407715 L16.661550521850586 10.238165855407715"></path></svg>