<svg xmlns="http://www.w3.org/2000/svg" viewBox="0.0 0.0 24.0 24.0" height="200px" width="200px"><path fill="none" stroke="black" stroke-width=".3" stroke-opacity="1.0"  filling="0" d="M11.609993934631348 13.175186157226562 L11.609993934631348 13.175186157226562 C13.357898712158203 13.05024242401123 14.498636245727539 13.42196273803711 15.284390449523926 14.2296142578125 C16.070144653320312 15.037263870239258 16.500913619995117 16.280845642089844 16.828880310058594 17.899620056152344 L16.828880310058594 17.899620056152344 C14.807279586791992 17.899620056152344 12.785682678222656 17.899620056152344 10.764082908630371 17.899620056152344 L10.764082908630371 17.899620056152344 C10.730134963989258 18.52604103088379 10.579825401306152 19.156980514526367 10.662240028381348 19.77888298034668 C10.863595962524414 21.29831886291504 11.928081512451172 21.9033145904541 13.201166152954102 22.114301681518555 C14.474250793457031 22.325286865234375 15.955934524536133 22.14226531982422 16.991687774658203 22.085668563842773 L16.991687774658203 22.085668563842773 C15.755366325378418 23.017749786376953 15.442306518554688 23.49347496032715 13.881224632263184 23.762039184570312 C11.674968719482422 24.141597747802734 9.855901718139648 23.183147430419922 8.790769577026367 21.64361000061035 C7.725637435913086 20.104074478149414 7.414440155029297 17.98345184326172 8.223923683166504 16.038673400878906 C8.903189659118652 14.40674114227295 10.0724458694458 13.797483444213867 11.609993934631348 13.175186157226562 L11.609993934631348 13.175186157226562"></path>
<path fill="none" stroke="black" stroke-width=".3" stroke-opacity="1.0"  filling="0" d="M12.767306327819824 14.015066146850586 L12.767306327819824 14.015066146850586 C13.172907829284668 14.374922752380371 13.738492965698242 14.611228942871094 13.984109878540039 15.094635009765625 C14.248826026916504 15.615631103515625 14.127930641174316 16.254531860351562 14.199840545654297 16.83448028564453 L14.199840545654297 16.83448028564453 C14.132104873657227 16.83448028564453 10.677335739135742 16.83448028564453 10.658560752868652 16.83448028564453 L10.658560752868652 16.83448028564453 C10.945089340209961 16.072988510131836 11.030837059020996 15.20154094696045 11.518145561218262 14.550004959106445 C11.789443016052246 14.187277793884277 12.350919723510742 14.193379402160645 12.767306327819824 14.015066146850586 L12.767306327819824 14.015066146850586"></path></svg>