<svg xmlns="http://www.w3.org/2000/svg" viewBox="0.0 0.0 24.0 24.0" height="200px" width="200px"><path fill="none" stroke="black" stroke-width=".3" stroke-opacity="1.0"  filling="0" d="M17.975358963012695 12.410944938659668 C16.982542037963867 13.672958374023438 16.409008026123047 14.401937484741211 15.835474014282227 15.130914688110352 C15.938507080078125 15.135679244995117 16.041540145874023 15.1404447555542 16.144573211669922 15.145208358764648 C15.630597114562988 16.98909568786621 15.568061828613281 19.18794059753418 14.475191116333008 20.576213836669922 C13.387083053588867 21.958534240722656 11.265066146850586 22.526710510253906 9.513492584228516 23.49808692932129 C11.250175476074219 24.47124671936035 13.193522453308105 25.11922836303711 14.507946968078613 26.408639907836914 C16.1362361907959 28.005956649780273 14.92544174194336 29.9034423828125 14.054718017578125 31.58295249938965 C11.275190353393555 31.58295249938965 8.496258735656738 31.58295249938965 5.716731071472168 31.58295249938965 C5.065773010253906 29.387680053710938 5.329015254974365 27.470539093017578 7.678540229797363 26.044742584228516 C6.084793567657471 24.213363647460938 7.219355583190918 22.976364135742188 8.21514892578125 22.225351333618164 C7.9590535163879395 20.211727142333984 7.478428363800049 18.575695037841797 7.607667446136475 16.98969078063965 C7.8429179191589355 14.100578308105469 9.595086097717285 12.591999053955078 12.497896194458008 12.42702579498291 C14.060673713684082 12.338285446166992 15.632383346557617 12.410944938659668 17.975358963012695 12.410944938659668"></path>
<path fill="none" stroke="black" stroke-width=".3" stroke-opacity="1.0"  filling="0" d="M12.546137809753418 14.804540634155273 C9.9833984375 15.81879711151123 9.561139106750488 17.389911651611328 10.89879035949707 20.17301368713379 C13.141708374023438 19.214740753173828 13.47403621673584 18.199888229370117 12.546137809753418 14.804540634155273"></path>
<path fill="none" stroke="black" stroke-width=".3" stroke-opacity="1.0"  filling="0" d="M10.612320899963379 26.891647338867188 C11.737353324890137 26.917850494384766 12.690265655517578 27.605140686035156 12.334115028381348 28.6884822845459 C12.03990364074707 29.584814071655273 10.99705982208252 30.234582901000977 9.863092422485352 31.444782257080078 C9.035845756530762 30.207782745361328 8.19251823425293 29.51692008972168 8.193709373474121 28.827253341674805 C8.197282791137695 27.4639892578125 9.301469802856445 26.860679626464844 10.612320899963379 26.891647338867188"></path></svg>