<svg xmlns="http://www.w3.org/2000/svg" viewBox="0.0 0.0 24.0 24.0" height="200px" width="200px"><path fill="none" stroke="black" stroke-width=".3" stroke-opacity="1.0"  filling="0" d="M12.175918579101562 9.23074722290039 L12.175918579101562 9.23074722290039 C12.37865924835205 9.512153625488281 12.786920547485352 9.728144645690918 12.784139633178711 10.074966430664062 C12.78167724609375 10.382075309753418 12.370505332946777 10.529053688049316 12.163687705993652 10.756096839904785 L12.163687705993652 10.756096839904785 C11.840011596679688 10.363959312438965 11.913004875183105 9.665964126586914 12.175918579101562 9.23074722290039 L12.175918579101562 9.23074722290039"></path>
<path fill="none" stroke="black" stroke-width=".3" stroke-opacity="1.0"  filling="0" d="M11.378228187561035 12.376899719238281 L11.378228187561035 12.376899719238281 C11.70064640045166 12.376899719238281 12.023063659667969 12.376899719238281 12.345481872558594 12.376899719238281 L12.345481872558594 12.376899719238281 C12.547405242919922 13.497126579284668 12.406698226928711 14.90112018585205 12.104458808898926 16.2797908782959 C11.802220344543457 17.658462524414062 11.338448524475098 19.011810302734375 10.894241333007812 20.03074836730957 L10.894241333007812 20.03074836730957 C10.49451732635498 20.03074836730957 10.094792366027832 20.03074836730957 9.695068359375 20.03074836730957 L9.695068359375 20.03074836730957 C9.641858100891113 19.452150344848633 10.203797340393066 18.985809326171875 10.445180892944336 18.4572811126709 C11.227062225341797 16.74529266357422 10.94034481048584 14.226856231689453 11.378228187561035 12.376899719238281 L11.378228187561035 12.376899719238281"></path></svg>