<svg xmlns="http://www.w3.org/2000/svg" viewBox="0.0 0.0 24.0 24.0" height="200px" width="200px"><path fill="none" stroke="black" stroke-width=".3" stroke-opacity="1.0"  filling="0" d="M12.312745094299316 7.076884746551514 C12.855091094970703 7.790633201599121 13.46992015838623 8.269450187683105 13.394025802612305 8.577717781066895 C13.279332160949707 9.043744087219238 12.682836532592773 9.3908109664917 12.290999412536621 9.788617134094238 C11.958002090454102 9.413409233093262 11.388794898986816 9.056535720825195 11.35766887664795 8.657876014709473 C11.327396392822266 8.2596435546875 11.8347806930542 7.819626808166504 12.312745094299316 7.076884746551514"></path>
<path fill="none" stroke="black" stroke-width=".3" stroke-opacity="1.0"  filling="0" d="M10.894628524780273 12.670044898986816 C11.494961738586426 12.670044898986816 12.030912399291992 12.670044898986816 12.614191055297852 12.670044898986816 C12.663223266601562 12.925868034362793 12.755319595336914 13.127542495727539 12.730164527893066 13.313441276550293 C12.270533561706543 16.680509567260742 11.862495422363281 20.056957244873047 11.286465644836426 23.40441131591797 C11.114636421203613 24.403827667236328 10.464844703674316 25.321809768676758 10.034207344055176 26.276885986328125 C9.323443412780762 26.276885986328125 8.613106727600098 26.276885986328125 7.902342319488525 26.276885986328125 C7.861837387084961 25.894855499267578 7.6891560554504395 25.224597930908203 7.80086612701416 25.173431396484375 C9.515311241149902 24.38421630859375 9.326854705810547 22.729461669921875 9.559654235839844 21.322429656982422 C9.952770233154297 18.94881248474121 10.207315444946289 16.552597045898438 10.539885520935059 14.168745040893555 C10.606826782226562 13.689075469970703 10.76159954071045 13.221344947814941 10.894628524780273 12.670044898986816"></path></svg>