<svg xmlns="http://www.w3.org/2000/svg" viewBox="0.0 0.0 24.0 24.0" height="200px" width="200px"><path fill="none" stroke="black" stroke-width=".3" stroke-opacity="1.0"  filling="0" d="M14.11831283569336 12.876012802124023 L14.11831283569336 12.876012802124023 C14.705273628234863 12.907259941101074 15.393171310424805 12.639178276062012 15.879195213317871 12.96975326538086 C17.11380386352539 13.80948543548584 16.628711700439453 16.579708099365234 16.619773864746094 17.764577865600586 L16.619773864746094 17.764577865600586 C16.951444625854492 17.932449340820312 17.28311538696289 18.100322723388672 17.61478614807129 18.2681941986084 L17.61478614807129 18.2681941986084 C17.596378326416016 18.337753295898438 17.577970504760742 18.40731430053711 17.55956268310547 18.47687339782715 L17.55956268310547 18.47687339782715 C16.537508010864258 18.47687339782715 15.51545238494873 18.47687339782715 14.493396759033203 18.47687339782715 L14.493396759033203 18.47687339782715 C15.284994125366211 17.499832153320312 15.6182279586792 15.9208984375 15.16317367553711 14.624129295349121 C14.636119842529297 13.122184753417969 13.533830642700195 13.544147491455078 12.989392280578613 14.727490425109863 C12.963935852050781 14.782819747924805 12.982501983642578 17.672086715698242 12.982794761657715 17.741365432739258 L12.982794761657715 17.741365432739258 C13.317317008972168 17.987918853759766 13.651838302612305 18.234474182128906 13.986360549926758 18.481027603149414 L13.986360549926758 18.481027603149414 C12.901750564575195 18.481027603149414 11.817140579223633 18.481027603149414 10.73253059387207 18.481027603149414 L10.73253059387207 18.481027603149414 C11.45042610168457 17.400548934936523 12.065291404724121 15.957813262939453 11.5164213180542 14.591385841369629 C11.002358436584473 13.31161117553711 10.094687461853027 13.247282028198242 9.376849174499512 14.650764465332031 C9.339402198791504 14.723979949951172 9.365901947021484 17.61773109436035 9.366342544555664 17.692493438720703 L9.366342544555664 17.692493438720703 C9.651178359985352 17.92088508605957 9.936015129089355 18.149274826049805 10.220850944519043 18.377666473388672 L10.220850944519043 18.377666473388672 C9.151466369628906 18.504398345947266 8.036940574645996 18.505258560180664 6.993167400360107 18.240337371826172 L6.993167400360107 18.240337371826172 C7.30081033706665 18.098936080932617 7.608452796936035 17.957536697387695 7.916095733642578 17.81613540649414 L7.916095733642578 17.81613540649414 C7.916095733642578 16.46851921081543 7.916095733642578 15.120899200439453 7.916095733642578 13.773283958435059 L7.916095733642578 13.773283958435059 C7.548912048339844 13.582442283630371 7.181727886199951 13.3916015625 6.814544200897217 13.200759887695312 L6.814544200897217 13.200759887695312 C7.774270534515381 13.04296588897705 8.783343315124512 13.058893203735352 9.731409072875977 13.276021957397461 L9.731409072875977 13.276021957397461 C10.247221946716309 13.091931343078613 10.732017517089844 12.693272590637207 11.278847694396973 12.723749160766602 C11.86265754699707 12.75628662109375 12.342971801757812 13.208732604980469 12.87503433227539 13.451224327087402 L12.87503433227539 13.451224327087402 C13.289460182189941 13.25948715209961 13.703886985778809 13.067749977111816 14.11831283569336 12.876012802124023 L14.11831283569336 12.876012802124023"></path></svg>