<svg xmlns="http://www.w3.org/2000/svg" viewBox="0.0 0.0 24.0 24.0" height="200px" width="200px"><path fill="none" stroke="black" stroke-width=".3" stroke-opacity="1.0"  filling="0" d="M15.765889167785645 13.557355880737305 C18.317171096801758 12.684194564819336 20.085214614868164 13.87013053894043 20.19772720336914 16.571718215942383 C20.275489807128906 18.444454193115234 20.212932586669922 20.322837829589844 20.212932586669922 22.248138427734375 C20.84499740600586 22.56786346435547 21.413204193115234 22.85587501525879 21.981843948364258 23.143455505371094 C21.949264526367188 23.267261505126953 21.916248321533203 23.390634536743164 21.8836669921875 23.514442443847656 C20.06653594970703 23.514442443847656 18.24983787536621 23.514442443847656 16.43270492553711 23.514442443847656 C18.088237762451172 22.7529239654541 17.6529598236084 21.34543800354004 17.668598175048828 20.13213539123535 C17.683368682861328 18.976606369018555 17.66034507751465 17.820209503173828 17.62342071533203 16.665119171142578 C17.587364196777344 15.538261413574219 17.01003646850586 14.938343048095703 15.850598335266113 14.951375961303711 C14.553019523620605 14.96571159362793 13.790632247924805 15.604291915893555 13.758920669555664 16.848873138427734 C13.71330738067627 18.651668548583984 13.747190475463867 20.45663833618164 13.747190475463867 22.206871032714844 C14.25153923034668 22.578723907470703 14.670743942260742 22.887590408325195 15.5313081741333 23.521827697753906 C13.337109565734863 23.521827697753906 11.68027400970459 23.521827697753906 9.746721267700195 23.521827697753906 C12.260644912719727 21.517465591430664 10.962631225585938 18.936206817626953 11.140304565429688 16.60690689086914 C11.215890884399414 15.61341381072998 10.692862510681152 14.944859504699707 9.614660263061523 14.896639823913574 C8.493451118469238 14.846683502197266 7.375717639923096 15.674232482910156 7.336620807647705 16.71246910095215 C7.269287586212158 18.5152645111084 7.317941188812256 20.322406768798828 7.317941188812256 22.119991302490234 C7.8166422843933105 22.51964569091797 8.27407455444336 22.886287689208984 8.837068557739258 23.33807373046875 C6.460853099822998 23.935382843017578 4.4434590339660645 23.851106643676758 3.098963737487793 23.09393310546875 C3.672818183898926 22.830245971679688 4.165872097015381 22.603485107421875 4.739725589752197 22.339797973632812 C4.739725589752197 19.974008560180664 4.739725589752197 17.608219146728516 4.739725589752197 15.152504920959473 C4.221476078033447 14.883171081542969 3.693669319152832 14.608624458312988 2.7814111709594727 14.134684562683105 C4.743635654449463 13.543889045715332 6.233222961425781 13.506529808044434 7.966948986053467 14.26848316192627 C9.703280448913574 13.306702613830566 11.703733444213867 12.508258819580078 13.555617332458496 14.579954147338867 C14.33885669708252 14.212444305419922 15.026960372924805 13.810617446899414 15.765889167785645 13.557355880737305"></path></svg>