<svg xmlns="http://www.w3.org/2000/svg" viewBox="0.0 0.0 24.0 24.0" height="200px" width="200px"><path fill="none" stroke="black" stroke-width=".3" stroke-opacity="1.0"  filling="0" d="M14.323495864868164 17.396404266357422 C17.05377769470215 17.834861755371094 18.826528549194336 20.114349365234375 19.157222747802734 23.663963317871094 C19.220563888549805 24.33933448791504 19.166271209716797 25.025402069091797 19.166271209716797 25.706531524658203 C19.327505111694336 25.751773834228516 19.488740921020508 25.797840118408203 19.649974822998047 25.84390640258789 C18.878353118896484 28.27557945251465 18.36174774169922 30.829822540283203 17.269306182861328 33.107666015625 C15.97285270690918 35.811622619628906 13.430951118469238 36.8793830871582 10.870950698852539 36.449974060058594 C7.958045959472656 35.96133804321289 6.876297473907471 33.89409255981445 6.384369373321533 31.31846046447754 C5.7229814529418945 27.85357666015625 6.257686138153076 24.522777557373047 7.782004356384277 21.385295867919922 C9.108894348144531 18.655014038085938 11.949407577514648 17.014705657958984 14.323495864868164 17.396404266357422"></path>
<path fill="none" stroke="black" stroke-width=".3" stroke-opacity="1.0"  filling="0" d="M13.386529922485352 21.011003494262695 C9.77110481262207 24.208534240722656 9.233110427856445 29.766992568969727 12.039073944091797 32.838661193847656 C15.443906784057617 30.4357852935791 16.190025329589844 24.793418884277344 13.386529922485352 21.011003494262695"></path></svg>