<svg xmlns="http://www.w3.org/2000/svg" viewBox="0.0 0.0 24.0 24.0" height="200px" width="200px"><path fill="none" stroke="black" stroke-width=".3" stroke-opacity="1.0"  filling="0" d="M12.561620712280273 13.071081161499023 L12.561620712280273 13.071081161499023 C12.931256294250488 13.071081161499023 13.300891876220703 13.071081161499023 13.670527458190918 13.071081161499023 L13.670527458190918 13.071081161499023 C13.737287521362305 13.618036270141602 13.804048538208008 14.164990425109863 13.870808601379395 14.711945533752441 L13.870808601379395 14.711945533752441 C14.25836181640625 14.838563919067383 14.645915031433105 14.965182304382324 15.033468246459961 15.091800689697266 L15.033468246459961 15.091800689697266 C14.904577255249023 15.492444038391113 14.961627960205078 16.01443099975586 14.646794319152832 16.293729782104492 C14.336971282958984 16.56858253479004 13.832168579101562 16.44380760192871 13.424856185913086 16.51884651184082 L13.424856185913086 16.51884651184082 C13.1856689453125 18.281566619873047 12.946328163146973 20.044265747070312 12.706953048706055 21.806961059570312 L12.706953048706055 21.806961059570312 C13.148392677307129 21.956541061401367 13.589832305908203 22.10611915588379 14.031271934509277 22.255699157714844 L14.031271934509277 22.255699157714844 C13.896308898925781 23.523357391357422 12.781913757324219 24.762624740600586 11.31265640258789 23.515811920166016 C10.455493927001953 22.788423538208008 10.852279663085938 21.00168800354004 10.933249473571777 20.227563858032227 C11.041017532348633 19.197233200073242 11.58610725402832 18.16218376159668 11.365713119506836 17.149948120117188 C11.208752632141113 16.42905044555664 10.593720436096191 15.674263954162598 10.874171257019043 14.99185848236084 C10.995450973510742 14.696756362915039 12.472219467163086 13.166749954223633 12.561620712280273 13.071081161499023 L12.561620712280273 13.071081161499023"></path></svg>