<svg xmlns="http://www.w3.org/2000/svg" viewBox="0.0 0.0 24.0 24.0" height="200px" width="200px"><path fill="none" stroke="black" stroke-width=".3" stroke-opacity="1.0"  filling="0" d="M10.179594039916992 17.907093048095703 C10.781331062316895 19.51953887939453 11.307525634765625 20.927932739257812 12.03690242767334 22.882492065429688 C13.212590217590332 20.96961212158203 14.07568645477295 19.566425323486328 15.003039360046387 18.058177947998047 C16.131839752197266 18.058177947998047 17.25108528137207 18.058177947998047 18.344284057617188 18.058177947998047 C18.461505889892578 18.37163734436035 18.693344116210938 18.708539962768555 18.612590789794922 18.81881332397461 C14.530679702758789 24.426340103149414 13.12489128112793 30.313459396362305 17.29189682006836 36.78668975830078 C16.114471435546875 36.95861053466797 15.557887077331543 37.10014724731445 14.999565124511719 37.106224060058594 C14.294500350952148 37.114036560058594 13.587697982788086 37.01244354248047 12.750650405883789 36.94732666015625 C12.155861854553223 35.16729736328125 11.582778930664062 33.44978332519531 10.874239921569824 31.326772689819336 C9.68118667602539 33.44891357421875 8.707815170288086 35.18031692504883 7.7066569328308105 36.96208572387695 C6.373805999755859 36.96208572387695 5.118234157562256 36.96208572387695 3.113313674926758 36.96208572387695 C7.652822017669678 31.100147247314453 10.695368766784668 25.301593780517578 5.660057544708252 18.203184127807617 C7.62243127822876 18.074674606323242 8.833719253540039 17.99565887451172 10.179594039916992 17.907093048095703"></path></svg>