<svg xmlns="http://www.w3.org/2000/svg" viewBox="0.0 0.0 24.0 24.0" height="200px" width="200px"><path fill="none" stroke="black" stroke-width=".3" stroke-opacity="1.0"  filling="0" d="M10.039072036743164 10.033330917358398 L10.039072036743164 10.033330917358398 C10.652280807495117 9.813238143920898 11.22990894317627 9.43254280090332 11.878697395324707 9.373053550720215 C13.357491493225098 9.237459182739258 14.455300331115723 9.890076637268066 15.12785816192627 10.892094612121582 C15.800416946411133 11.894112586975098 16.0477237701416 13.24553108215332 15.825512886047363 14.507537841796875 C15.562540054321289 16.001049041748047 14.835334777832031 17.248126983642578 13.819950103759766 18.205209732055664 C12.8045654296875 19.16229248046875 11.50100326538086 19.829383850097656 10.085317611694336 20.162925720214844 L10.085317611694336 20.162925720214844 C10.0204496383667 20.061744689941406 9.955582618713379 19.96056365966797 9.890714645385742 19.85938262939453 L9.890714645385742 19.85938262939453 C11.798369407653809 18.41188621520996 12.880313873291016 17.482892990112305 13.724424362182617 15.180842399597168 L13.724424362182617 15.180842399597168 C12.619098663330078 15.436620712280273 11.797297477722168 15.816140174865723 10.671529769897461 15.43885326385498 C8.012791633605957 14.547810554504395 8.61416244506836 11.586990356445312 10.039072036743164 10.033330917358398 L10.039072036743164 10.033330917358398"></path>
<path fill="none" stroke="black" stroke-width=".3" stroke-opacity="1.0"  filling="0" d="M12.093421936035156 10.168962478637695 L12.093421936035156 10.168962478637695 C13.725244522094727 10.690799713134766 15.408788681030273 14.398256301879883 12.522355079650879 14.670902252197266 C10.568532943725586 14.85545539855957 10.000189781188965 11.870111465454102 11.018333435058594 10.684024810791016 C11.277155876159668 10.382509231567383 11.735058784484863 10.340649604797363 12.093421936035156 10.168962478637695 L12.093421936035156 10.168962478637695"></path></svg>