<svg xmlns="http://www.w3.org/2000/svg" viewBox="0.0 0.0 24.0 24.0" height="200px" width="200px"><path fill="none" stroke="black" stroke-width=".3" stroke-opacity="1.0"  filling="0" d="M15.613802909851074 10.628765106201172 L15.613802909851074 10.628765106201172 C15.284454345703125 11.55516242980957 14.691481590270996 13.222965240478516 14.363000869750977 14.1467866897583 L14.363000869750977 14.1467866897583 C13.901086807250977 14.104530334472656 13.426605224609375 13.904960632324219 12.977258682250977 14.02001667022705 C11.883502006530762 14.30007553100586 11.733935356140137 15.20629596710205 12.981766700744629 15.575913429260254 C13.425076484680176 15.70722484588623 13.898269653320312 15.453086853027344 14.356521606445312 15.39167308807373 L14.356521606445312 15.39167308807373 C14.76961612701416 16.60650634765625 15.182699203491211 17.82134246826172 15.595773696899414 19.036182403564453 L15.595773696899414 19.036182403564453 C14.355921745300293 19.838449478149414 13.903524398803711 20.463712692260742 12.334498405456543 20.25959014892578 C9.864272117614746 19.9382266998291 8.672101974487305 17.3085994720459 8.728103637695312 14.72819709777832 C8.78410530090332 12.147794723510742 10.088279724121094 9.616616249084473 12.610742568969727 9.492149353027344 C14.016045570373535 9.422806739807129 14.455096244812012 9.935139656066895 15.613802909851074 10.628765106201172 L15.613802909851074 10.628765106201172"></path></svg>