<svg xmlns="http://www.w3.org/2000/svg" viewBox="0.0 0.0 24.0 24.0" height="200px" width="200px"><path fill="none" stroke="black" stroke-width=".3" stroke-opacity="1.0"  filling="0" d="M4.885583400726318 8.432697296142578 C8.26738166809082 8.539786338806152 11.709454536437988 8.320926666259766 15.014007568359375 8.893824577331543 C19.025466918945312 9.58961296081543 21.241573333740234 12.626150131225586 21.60087776184082 16.76283836364746 C21.963693618774414 20.94634437561035 20.116844177246094 24.71319580078125 16.728607177734375 26.29203224182129 C12.52286434173584 28.2518253326416 8.102944374084473 27.500442504882812 3.748563766479492 27.44894790649414 C3.711697578430176 27.170398712158203 3.6754159927368164 26.891849517822266 3.6385498046875 26.613300323486328 C4.332581043243408 26.394439697265625 5.027198791503906 26.17499542236328 5.9237060546875 25.892349243164062 C6.206936836242676 20.663700103759766 6.490167140960693 15.430953979492188 6.778664588928223 10.094629287719727 C5.940676689147949 9.716012954711914 5.233184814453125 9.395915031433105 4.505796909332275 9.06704044342041 C4.708271503448486 8.718852996826172 4.801901817321777 8.4303560256958 4.885583400726318 8.432697296142578"></path>
<path fill="none" stroke="black" stroke-width=".3" stroke-opacity="1.0"  filling="0" d="M10.295056343078613 10.094043731689453 C13.242059707641602 9.50359058380127 15.478647232055664 10.421749114990234 16.777761459350586 12.699299812316895 C18.682546615600586 16.03955078125 18.6468505859375 19.66303062438965 16.76605796813965 23.009132385253906 C15.259201049804688 25.68987464904785 12.618249893188477 26.208934783935547 9.455897331237793 25.80691146850586 C9.739128112792969 20.501602172851562 10.016507148742676 15.308062553405762 10.295056343078613 10.094043731689453"></path></svg>