<svg xmlns="http://www.w3.org/2000/svg" viewBox="0.0 0.0 24.0 24.0" height="200px" width="200px"><path fill="none" stroke="black" stroke-width=".3" stroke-opacity="1.0"  filling="0" d="M8.495327949523926 9.581033706665039 L8.495327949523926 9.581033706665039 C8.524555206298828 9.581033706665039 11.66854190826416 9.581033706665039 11.684752464294434 9.581033706665039 L11.684752464294434 9.581033706665039 C11.684752464294434 10.759160041809082 11.684752464294434 11.937286376953125 11.684752464294434 13.115411758422852 L11.684752464294434 13.115411758422852 C13.119194984436035 11.968822479248047 13.159104347229004 11.326650619506836 13.56884765625 9.587831497192383 L13.56884765625 9.587831497192383 C14.62282657623291 9.587831497192383 15.676804542541504 9.587831497192383 16.730783462524414 9.587831497192383 L16.730783462524414 9.587831497192383 C16.689350128173828 11.591819763183594 16.455121994018555 12.871037483215332 15.568816184997559 14.66401195526123 L15.568816184997559 14.66401195526123 C16.134241104125977 16.567922592163086 16.699726104736328 18.471818923950195 17.26521110534668 20.375713348388672 L17.26521110534668 20.375713348388672 C16.023237228393555 20.375713348388672 14.781262397766113 20.375713348388672 13.539288520812988 20.375713348388672 L13.539288520812988 20.375713348388672 C13.170019149780273 18.590879440307617 13.064129829406738 17.821489334106445 11.764266014099121 16.481599807739258 L11.764266014099121 16.481599807739258 C11.764266014099121 16.495012283325195 11.764266014099121 20.320789337158203 11.764266014099121 20.3807373046875 L11.764266014099121 20.3807373046875 C11.680009841918945 20.3807373046875 8.600396156311035 20.3807373046875 8.495623588562012 20.3807373046875 L8.495623588562012 20.3807373046875 C8.49549674987793 18.580787658691406 8.495424270629883 16.78083610534668 8.495381355285645 14.98088550567627 C8.495339393615723 13.18093490600586 8.495328903198242 11.38098430633545 8.495327949523926 9.581033706665039 L8.495327949523926 9.581033706665039"></path></svg>