<svg xmlns="http://www.w3.org/2000/svg" viewBox="0.0 0.0 24.0 24.0" height="200px" width="200px"><path fill="none" stroke="black" stroke-width=".3" stroke-opacity="1.0"  filling="0" d="M12.67675495147705 9.638378143310547 L12.67675495147705 9.638378143310547 C13.644026756286621 9.638378143310547 14.611297607421875 9.638378143310547 15.578569412231445 9.638378143310547 L15.578569412231445 9.638378143310547 C15.578569412231445 11.429411888122559 15.578569412231445 13.22044563293457 15.578569412231445 15.011478424072266 C15.578569412231445 16.802513122558594 15.578569412231445 18.59354591369629 15.578569412231445 20.384580612182617 L15.578569412231445 20.384580612182617 C13.921605110168457 20.421804428100586 11.602388381958008 20.875513076782227 10.169628143310547 19.802932739257812 C9.089089393615723 18.994029998779297 8.500375747680664 17.321245193481445 8.535760879516602 15.704766273498535 C8.571146011352539 14.088287353515625 9.230630874633789 12.528112411499023 10.646490097045898 11.944429397583008 C11.241315841674805 11.699213981628418 11.932802200317383 11.909845352172852 12.575958251953125 11.892553329467773 L12.575958251953125 11.892553329467773 C12.6095552444458 11.14116096496582 12.64315414428711 10.389769554138184 12.67675495147705 9.638378143310547 L12.67675495147705 9.638378143310547"></path>
<path fill="none" stroke="black" stroke-width=".3" stroke-opacity="1.0"  filling="0" d="M12.545808792114258 15.173315048217773 L12.545808792114258 15.173315048217773 C12.545808792114258 15.96185302734375 12.545808792114258 16.750391006469727 12.545808792114258 17.538928985595703 L12.545808792114258 17.538928985595703 C12.213465690612793 17.186288833618164 11.54878044128418 16.965578079223633 11.54878044128418 16.481008529663086 C11.54878044128418 15.932867050170898 12.213465690612793 15.609212875366211 12.545808792114258 15.173315048217773 L12.545808792114258 15.173315048217773"></path></svg>