<svg xmlns="http://www.w3.org/2000/svg" viewBox="0.0 0.0 24.0 24.0" height="200px" width="200px"><path fill="none" stroke="black" stroke-width=".3" stroke-opacity="1.0"  filling="0" d="M15.348710060119629 10.949554443359375 L15.348710060119629 10.949554443359375 C15.351518630981445 12.740598678588867 15.591168403625488 14.745771408081055 15.502660751342773 16.64776039123535 C15.414153099060059 18.54974937438965 14.99748706817627 20.348556518554688 13.687664031982422 21.726865768432617 L13.687664031982422 21.726865768432617 C12.717992782592773 21.726865768432617 11.708624839782715 22.00147819519043 10.778651237487793 21.726865768432617 C8.515501976013184 21.05858039855957 8.875472068786621 18.910564422607422 8.953536987304688 17.073026657104492 L8.953536987304688 17.073026657104492 C10.719728469848633 18.104555130004883 11.201431274414062 18.753772735595703 12.463842391967773 17.07564353942871 L12.463842391967773 17.07564353942871 C11.850828170776367 17.1378116607666 11.21330738067627 17.44466209411621 10.624800682067871 17.262147903442383 C8.65087890625 16.649974822998047 8.284034729003906 13.177925109863281 9.532721519470215 11.810622215270996 C10.860258102416992 10.356979370117188 13.62307357788086 10.932768821716309 15.348710060119629 10.949554443359375 L15.348710060119629 10.949554443359375"></path>
<path fill="none" stroke="black" stroke-width=".3" stroke-opacity="1.0"  filling="0" d="M12.330318450927734 13.339018821716309 L12.330318450927734 13.339018821716309 C12.025198936462402 13.631119728088379 11.414960861206055 13.792923927307129 11.414960861206055 14.215322494506836 C11.414960861206055 14.742745399475098 12.025198936462402 15.075735092163086 12.330318450927734 15.505941390991211 L12.330318450927734 15.505941390991211 C12.330318450927734 14.783634185791016 12.330318450927734 14.061326026916504 12.330318450927734 13.339018821716309 L12.330318450927734 13.339018821716309"></path></svg>