<svg xmlns="http://www.w3.org/2000/svg" viewBox="0.0 0.0 24.0 24.0" height="200px" width="200px"><path fill="none" stroke="black" stroke-width=".3" stroke-opacity="1.0"  filling="0" d="M13.340902328491211 7.4050211906433105 C14.473531723022461 7.162895202636719 15.304452896118164 8.141691207885742 15.169034957885742 9.16057014465332 C15.067201614379883 9.922698974609375 14.177780151367188 10.579744338989258 13.233652114868164 11.813665390014648 C12.448773384094238 10.509326934814453 11.634644508361816 9.747739791870117 11.66497802734375 9.021361351013184 C11.689352989196777 8.434734344482422 12.66002368927002 7.5501885414123535 13.340902328491211 7.4050211906433105"></path>
<path fill="none" stroke="black" stroke-width=".3" stroke-opacity="1.0"  filling="0" d="M9.783220291137695 14.552345275878906 C11.50410270690918 14.552345275878906 12.949816703796387 14.552345275878906 14.777949333190918 14.552345275878906 C14.602449417114258 18.006027221679688 14.422073364257812 21.549625396728516 14.244405746459961 25.04068374633789 C14.868409156799316 25.458850860595703 15.388952255249023 25.8082275390625 15.90949535369873 26.157604217529297 C15.866162300109863 26.294105529785156 15.82282829284668 26.430606842041016 15.779495239257812 26.567108154296875 C13.707069396972656 26.567108154296875 11.634644508361816 26.567108154296875 9.554093360900879 26.567108154296875 C12.378897666931152 23.561927795410156 11.186683654785156 19.822784423828125 11.443976402282715 16.3880615234375 C11.480268478393555 15.904891967773438 10.532347679138184 15.348057746887207 9.783220291137695 14.552345275878906"></path></svg>