<svg xmlns="http://www.w3.org/2000/svg" viewBox="0.0 0.0 24.0 24.0" height="200px" width="200px"><path fill="none" stroke="black" stroke-width=".3" stroke-opacity="1.0"  filling="0" d="M4.66797399520874 11.973203659057617 C7.119607925415039 12.487581253051758 9.628105163574219 10.811765670776367 11.55882453918457 13.376470565795898 C12.10326862335205 13.051634788513184 12.705228805541992 12.600000381469727 13.376470565795898 12.309150695800781 C15.861437797546387 11.23267936706543 17.856210708618164 12.001307487487793 19.03464126586914 14.45751667022705 C19.267974853515625 14.943137168884277 19.563398361206055 15.471896171569824 19.567319869995117 15.983006477355957 C19.607189178466797 20.958824157714844 19.591503143310547 25.934640884399414 19.591503143310547 31.034637451171875 C17.720916748046875 31.034637451171875 15.900654792785645 31.034637451171875 13.935294151306152 31.034637451171875 C12.967320442199707 26.620258331298828 14.573202133178711 21.980388641357422 12.953595161437988 17.708494186401367 C12.640523910522461 17.65294075012207 12.328104972839355 17.598037719726562 12.015032768249512 17.542482376098633 C11.718954086303711 18.379735946655273 11.189542770385742 19.211109161376953 11.16732120513916 20.055553436279297 C11.07189655303955 23.62744903564453 11.126797676086426 27.203920364379883 11.126797676086426 30.96731948852539 C8.86535930633545 30.96731948852539 6.86274528503418 30.96731948852539 4.66797399520874 30.96731948852539 C4.66797399520874 24.729412078857422 4.66797399520874 18.580392837524414 4.66797399520874 11.973203659057617"></path></svg>