<svg xmlns="http://www.w3.org/2000/svg" viewBox="0.0 0.0 24.0 24.0" height="200px" width="200px"><path fill="none" stroke="black" stroke-width=".3" stroke-opacity="1.0"  filling="0" d="M13.783571243286133 9.929361343383789 C13.8804292678833 11.492456436157227 13.941601753234863 12.478231430053711 14.011058807373047 13.600371360778809 C15.154864311218262 13.803644180297852 16.30440330505371 14.008190155029297 17.45394515991211 14.212738037109375 C17.46668815612793 14.435127258300781 17.478796005249023 14.657514572143555 17.491540908813477 14.879904747009277 C16.366851806640625 15.123958587646484 15.242799758911133 15.368650436401367 13.785483360290527 15.684710502624512 C13.644021987915039 19.209796905517578 13.108120918273926 22.790958404541016 13.744702339172363 26.693279266357422 C15.049722671508789 26.423099517822266 16.012557983398438 26.223649978637695 16.9855899810791 26.021652221679688 C16.496206283569336 28.15760612487793 15.230692863464355 29.211563110351562 13.292914390563965 29.1242618560791 C11.383810997009277 29.038238525390625 9.889535903930664 27.782283782958984 9.814981460571289 25.713237762451172 C9.71621322631836 22.977027893066406 10.011881828308105 20.229347229003906 10.002961158752441 17.486759185791016 C9.999773979187012 16.599117279052734 9.570289611816406 15.712747573852539 9.187959671020508 14.26881217956543 C10.370635032653809 13.152406692504883 11.878292083740234 11.728226661682129 13.783571243286133 9.929361343383789"></path></svg>