<svg xmlns="http://www.w3.org/2000/svg" viewBox="0.0 0.0 24.0 24.0" height="200px" width="200px"><path fill="none" stroke="black" stroke-width=".3" stroke-opacity="1.0"  filling="0" d="M14.186599731445312 7.765627384185791 C14.309379577636719 9.444295883178711 14.386308670043945 10.496330261230469 14.470369338989258 11.645670890808105 C15.129610061645508 11.826020240783691 15.744527816772461 11.994141578674316 16.418542861938477 12.178056716918945 C16.418542861938477 13.408910751342773 16.418542861938477 14.57710075378418 16.418542861938477 15.879278182983398 C15.772547721862793 16.035682678222656 15.155082702636719 16.18546485900879 14.480049133300781 16.349510192871094 C14.480049133300781 17.758676528930664 14.480049133300781 19.08479881286621 14.480049133300781 20.578025817871094 C15.138270378112793 20.626422882080078 15.682373046875 20.666671752929688 16.52349090576172 20.728313446044922 C16.52349090576172 21.402328491210938 16.521961212158203 22.215425491333008 16.523998260498047 23.02903175354004 C16.531131744384766 25.812210083007812 16.231060028076172 26.407258987426758 14.60435676574707 26.829599380493164 C12.673505783081055 27.331417083740234 10.678971290588379 26.432222366333008 9.885233879089355 24.34751319885254 C9.357433319091797 22.962291717529297 9.249427795410156 21.398250579833984 9.08436393737793 19.89992904663086 C8.965149879455566 18.81478500366211 9.060928344726562 17.706201553344727 9.060928344726562 16.415231704711914 C8.401178359985352 16.200237274169922 7.957438945770264 16.055553436279297 7.18662691116333 15.804388046264648 C9.488874435424805 13.160294532775879 11.659172058105469 10.667509078979492 14.186599731445312 7.765627384185791"></path></svg>