<svg xmlns="http://www.w3.org/2000/svg" viewBox="0.0 0.0 24.0 24.0" height="200px" width="200px"><path fill="none" stroke="black" stroke-width=".3" stroke-opacity="1.0"  filling="0" d="M10.69429874420166 10.394291877746582 L10.69429874420166 10.394291877746582 C10.716171264648438 10.504935264587402 10.738043785095215 10.615578651428223 10.759916305541992 10.726222038269043 L10.759916305541992 10.726222038269043 C10.374388694763184 10.86041259765625 9.988861083984375 10.994604110717773 9.603333473205566 11.12879467010498 L9.603333473205566 11.12879467010498 C9.603333473205566 12.315033912658691 9.603333473205566 13.501273155212402 9.603333473205566 14.687512397766113 L9.603333473205566 14.687512397766113 C11.354907989501953 14.687512397766113 13.106484413146973 14.687512397766113 14.858057975769043 14.687512397766113 L14.858057975769043 14.687512397766113 C14.858057975769043 13.494967460632324 14.858057975769043 12.302422523498535 14.858057975769043 11.109877586364746 L14.858057975769043 11.109877586364746 C14.482284545898438 11.006722450256348 14.106510162353516 10.903566360473633 13.73073673248291 10.800411224365234 L13.73073673248291 10.800411224365234 C15.086956977844238 10.082074165344238 16.261232376098633 10.435572624206543 17.70946502685547 10.739818572998047 L17.70946502685547 10.739818572998047 C17.247283935546875 10.864452362060547 16.785104751586914 10.989087104797363 16.32292366027832 11.113720893859863 L16.32292366027832 11.113720893859863 C16.32292366027832 12.493560791015625 16.32292366027832 13.873401641845703 16.32292366027832 15.253242492675781 C16.32292366027832 16.63308334350586 16.32292366027832 18.012924194335938 16.32292366027832 19.392765045166016 L16.32292366027832 19.392765045166016 C16.723230361938477 19.4901065826416 17.123537063598633 19.58745002746582 17.52384376525879 19.684791564941406 L17.52384376525879 19.684791564941406 C17.51675033569336 19.800657272338867 17.50965690612793 19.916521072387695 17.5025634765625 20.032386779785156 L17.5025634765625 20.032386779785156 C16.232952117919922 20.08470916748047 14.94814395904541 19.969228744506836 13.704133987426758 19.7102108001709 L13.704133987426758 19.7102108001709 C14.098332405090332 19.598285675048828 14.49252986907959 19.48636245727539 14.886728286743164 19.37443733215332 L14.886728286743164 19.37443733215332 C14.886728286743164 19.328596115112305 14.886728286743164 15.5780611038208 14.886728286743164 15.57630443572998 L14.886728286743164 15.57630443572998 C13.137125968933105 15.57630443572998 11.387516021728516 15.57630443572998 9.637914657592773 15.57630443572998 L9.637914657592773 15.57630443572998 C9.637914657592773 16.856142044067383 9.637914657592773 18.1359806060791 9.637914657592773 19.41581916809082 L9.637914657592773 19.41581916809082 C10.005905151367188 19.50577163696289 10.373895645141602 19.59572410583496 10.741886138916016 19.68567657470703 L10.741886138916016 19.68567657470703 C10.726812362670898 19.78528594970703 10.711737632751465 19.8848934173584 10.696663856506348 19.9845027923584 L10.696663856506348 19.9845027923584 C9.44658088684082 19.9845027923584 8.196496963500977 19.9845027923584 6.946413516998291 19.9845027923584 L6.946413516998291 19.9845027923584 C6.933900833129883 19.899477005004883 6.921388149261475 19.814449310302734 6.908875465393066 19.72942352294922 L6.908875465393066 19.72942352294922 C7.315178871154785 19.597639083862305 7.735841751098633 19.505678176879883 8.15915584564209 19.448627471923828 L8.15915584564209 19.448627471923828 C8.15915584564209 18.06203842163086 8.15915584564209 16.67544937133789 8.15915584564209 15.288859367370605 C8.15915584564209 13.90226936340332 8.15915584564209 12.515679359436035 8.15915584564209 11.12908935546875 L8.15915584564209 11.12908935546875 C7.74594259262085 11.009578704833984 7.332729339599609 10.890068054199219 6.919516086578369 10.770557403564453 L6.919516086578369 10.770557403564453 C8.159029960632324 10.5204439163208 9.4298095703125 10.389912605285645 10.69429874420166 10.394291877746582 L10.69429874420166 10.394291877746582"></path></svg>