<svg xmlns="http://www.w3.org/2000/svg" viewBox="0.0 0.0 24.0 24.0" height="200px" width="200px"><path fill="none" stroke="black" stroke-width=".3" stroke-opacity="1.0"  filling="0" d="M11.81162166595459 8.249327659606934 C11.866941452026367 8.451972007751465 11.922843933105469 8.654617309570312 11.978163719177246 8.857260704040527 C11.214170455932617 9.148417472839355 10.45075798034668 9.438990592956543 9.561567306518555 9.777896881103516 C9.561567306518555 11.838700294494629 9.561567306518555 13.948999404907227 9.561567306518555 16.66082763671875 C12.358412742614746 14.498703002929688 14.356327056884766 12.092588424682617 16.909765243530273 9.729565620422363 C16.054931640625 9.465777397155762 15.450490951538086 9.27885627746582 14.657963752746582 9.034284591674805 C16.615116119384766 8.004756927490234 19.083538055419922 7.955259799957275 21.423851013183594 8.784472465515137 C17.973066329956055 10.251317024230957 16.11025047302246 11.799103736877441 11.950794219970703 16.740604400634766 C15.514544486999512 19.857723236083984 17.130460739135742 24.877838134765625 22.007326126098633 27.034137725830078 C19.50221824645996 27.581512451171875 16.98837661743164 27.571613311767578 14.381364822387695 26.704547882080078 C15.010261535644531 26.46987533569336 15.639158248901367 26.23578643798828 16.46021842956543 25.930072784423828 C14.301587104797363 23.303842544555664 12.186046600341797 20.730022430419922 9.623872756958008 17.612905502319336 C9.623872756958008 20.83425521850586 9.623872756958008 23.298019409179688 9.623872756958008 25.98131561279297 C10.245782852172852 26.172311782836914 10.98823070526123 26.3994140625 11.73067855834961 26.627099990844727 C11.700400352478027 26.810527801513672 11.670120239257812 26.995121002197266 11.639257431030273 27.179134368896484 C9.240714073181152 27.179134368896484 6.842169284820557 27.179134368896484 4.443625450134277 27.179134368896484 C4.415673732757568 27.005023956298828 4.3883056640625 26.83032989501953 4.360354423522949 26.656219482421875 C5.10513162612915 26.439598083496094 5.8493266105651855 26.223560333251953 6.740264892578125 25.96501350402832 C6.740264892578125 20.58794403076172 6.740264892578125 15.192819595336914 6.740264892578125 9.677157402038574 C5.927938938140869 9.467524528503418 5.156375885009766 9.2683744430542 4.3842291831970215 9.069806098937988 C6.85905647277832 7.83239221572876 9.353099822998047 8.391993522644043 11.81162166595459 8.249327659606934"></path></svg>