<svg xmlns="http://www.w3.org/2000/svg" viewBox="0.0 0.0 24.0 24.0" height="200px" width="200px"><path fill="none" stroke="black" stroke-width=".3" stroke-opacity="1.0"  filling="0" d="M19.21718978881836 7.969257831573486 C19.967981338500977 8.06197738647461 20.739986419677734 7.983400821685791 21.979522705078125 7.983400821685791 C20.086631774902344 9.985905647277832 18.497041702270508 11.668213844299316 16.79901695251465 13.464456558227539 C17.629562377929688 15.215126037597656 18.45932388305664 16.963438034057617 19.36844825744629 18.87911605834961 C17.03670883178711 18.87911605834961 14.913591384887695 18.87911605834961 12.670251846313477 18.87911605834961 C12.349268913269043 18.101215362548828 12.005499839782715 17.26909828186035 11.60397720336914 16.297115325927734 C11.242921829223633 16.632633209228516 10.828826904296875 16.869932174682617 10.630029678344727 17.227060317993164 C9.790840148925781 18.736892700195312 8.541091918945312 19.179277420043945 6.875677585601807 19.010339736938477 C5.58389139175415 18.87911605834961 4.2677459716796875 18.9840145111084 2.962601661682129 18.9840145111084 C2.9017066955566406 18.85593605041504 2.8408098220825195 18.727466583251953 2.7795209884643555 18.5989933013916 C4.300356388092041 16.92061424255371 5.821583271026611 15.242627143859863 7.416672706604004 13.482136726379395 C6.445082664489746 11.711823463439941 5.513173580169678 10.014192581176758 4.476365566253662 8.124444007873535 C6.909858703613281 8.124444007873535 9.14494800567627 8.124444007873535 11.51243782043457 8.124444007873535 C11.864850044250488 8.911774635314941 12.25301456451416 9.780036926269531 12.679287910461426 10.732769012451172 C14.206015586853027 7.987722396850586 16.559755325317383 7.64159631729126 19.21718978881836 7.969257831573486"></path></svg>