<svg xmlns="http://www.w3.org/2000/svg" viewBox="0.0 0.0 24.0 24.0" height="200px" width="200px"><path fill="none" stroke="black" stroke-width=".3" stroke-opacity="1.0"  filling="0" d="M9.838476181030273 9.266014099121094 C10.89528751373291 9.582998275756836 11.791239738464355 9.85148811340332 12.687784194946289 10.119977951049805 L12.742782592773438 10.059064865112305 C11.995268821716309 10.093365669250488 11.247754096984863 10.1270751953125 10.426316261291504 10.164923667907715 C10.426316261291504 13.046758651733398 10.426316261291504 15.750582695007324 10.426316261291504 18.72112464904785 C11.733283996582031 18.38107681274414 12.833856582641602 18.094844818115234 13.93502140045166 17.808021545410156 L13.864054679870605 17.753612518310547 C13.341268539428711 19.433155059814453 11.92725944519043 19.602291107177734 10.25540542602539 19.5449275970459 C10.25540542602539 22.644390106201172 10.25540542602539 25.55520248413086 10.25540542602539 28.46601676940918 C10.116429328918457 28.463056564331055 9.977453231811523 28.460102081298828 9.838476181030273 28.457143783569336 C9.838476181030273 22.231605529785156 9.838476181030273 16.006061553955078 9.838476181030273 9.266014099121094"></path>
<path fill="none" stroke="black" stroke-width=".3" stroke-opacity="1.0"  filling="0" d="M12.742783546447754 10.059064865112305 C15.118388175964355 12.338274002075195 15.075216293334961 14.988874435424805 13.93502140045166 17.808612823486328 L13.864054679870605 17.753612518310547 C16.446645736694336 15.034411430358887 15.88482666015625 11.392053604125977 12.687784194946289 10.119977951049805 L12.742783546447754 10.059064865112305"></path></svg>