<svg xmlns="http://www.w3.org/2000/svg" viewBox="0.0 0.0 24.0 24.0" height="200px" width="200px"><path fill="none" stroke="black" stroke-width=".3" stroke-opacity="1.0"  filling="0" d="M10.394268989562988 17.469947814941406 L10.394268989562988 17.469947814941406 C10.394268989562988 18.827503204345703 10.394268989562988 20.185054779052734 10.394268989562988 21.54261016845703 L10.394268989562988 21.54261016845703 C10.5562105178833 21.54261016845703 14.275991439819336 21.54261016845703 14.276673316955566 21.54261016845703 L14.276673316955566 21.54261016845703 C14.276673316955566 20.37177085876465 14.276673316955566 19.2009334564209 14.276673316955566 18.030094146728516 L14.276673316955566 18.030094146728516 C14.549078941345215 19.436689376831055 14.821317672729492 20.84332275390625 15.093667984008789 22.249927520751953 L15.093667984008789 22.249927520751953 C13.549400329589844 22.249927520751953 12.005128860473633 22.249927520751953 10.460860252380371 22.249927520751953 L10.460860252380371 22.249927520751953 C10.199213981628418 24.625263214111328 10.310672760009766 26.19178581237793 11.533025741577148 28.269948959350586 L11.533025741577148 28.269948959350586 C10.40346908569336 26.45984649658203 9.88741683959961 24.771984100341797 9.76943588256836 23.030580520629883 C9.65145492553711 21.28917694091797 9.931544303894043 19.49422836303711 10.394268989562988 17.469947814941406 L10.394268989562988 17.469947814941406"></path></svg>