<svg xmlns="http://www.w3.org/2000/svg" viewBox="0.0 0.0 24.0 24.0" height="200px" width="200px"><path fill="none" stroke="black" stroke-width=".3" stroke-opacity="1.0"  filling="0" d="M10.326507568359375 10.865999221801758 L10.326507568359375 10.865999221801758 C10.417448043823242 10.866116523742676 10.50838851928711 10.866233825683594 10.599328994750977 10.866351127624512 L10.599328994750977 10.866351127624512 C10.599328994750977 12.666292190551758 10.599328994750977 14.46623420715332 10.599328994750977 16.266176223754883 C10.599328994750977 18.066116333007812 10.599328994750977 19.866058349609375 10.599328994750977 21.666000366210938 L10.599328994750977 21.666000366210938 C10.50838851928711 21.6657657623291 10.417448043823242 21.665529251098633 10.326507568359375 21.665294647216797 L10.326507568359375 21.665294647216797 C10.326507568359375 19.865413665771484 10.326507568359375 18.065528869628906 10.326507568359375 16.265647888183594 C10.326507568359375 14.465764045715332 10.326507568359375 12.665881156921387 10.326507568359375 10.865999221801758 L10.326507568359375 10.865999221801758"></path>
<path fill="none" stroke="black" stroke-width=".3" stroke-opacity="1.0"  filling="0" d="M13.79091739654541 16.644819259643555 L13.79091739654541 16.644819259643555 C13.829590797424316 16.645170211791992 13.868264198303223 16.645523071289062 13.906937599182129 16.6458740234375 L13.906937599182129 16.6458740234375 C13.906937599182129 18.2495174407959 13.906937599182129 19.853168487548828 13.906937599182129 21.456809997558594 L13.906937599182129 21.456809997558594 C13.868264198303223 21.450130462646484 13.829590797424316 21.443450927734375 13.79091739654541 21.436771392822266 L13.79091739654541 21.436771392822266 C13.79091739654541 19.839452743530273 13.79091739654541 18.24213981628418 13.79091739654541 16.644819259643555 L13.79091739654541 16.644819259643555"></path></svg>