<svg xmlns="http://www.w3.org/2000/svg" viewBox="0.0 0.0 24.0 24.0" height="200px" width="200px"><path fill="none" stroke="black" stroke-width=".3" stroke-opacity="1.0"  filling="0" d="M12.228558540344238 9.390066146850586 L12.228558540344238 9.390066146850586 C12.576147079467773 9.665843963623047 12.923736572265625 9.941621780395508 13.27132511138916 10.217399597167969 L13.27132511138916 10.217399597167969 C11.989631652832031 11.032636642456055 10.848760604858398 10.79301643371582 12.228558540344238 9.390066146850586 L12.228558540344238 9.390066146850586"></path>
<path fill="none" stroke="black" stroke-width=".3" stroke-opacity="1.0"  filling="0" d="M10.533458709716797 13.380701065063477 L10.533458709716797 13.380701065063477 C10.630663871765137 13.380701065063477 12.821712493896484 13.380701065063477 12.86640739440918 13.380701065063477 L12.86640739440918 13.380701065063477 C12.86640739440918 15.390901565551758 12.86640739440918 17.40110969543457 12.86640739440918 19.41130828857422 L12.86640739440918 19.41130828857422 C13.276655197143555 19.529987335205078 13.68690299987793 19.64866828918457 14.097150802612305 19.76734733581543 L14.097150802612305 19.76734733581543 C12.947279930114746 20.0289306640625 11.751852989196777 20.142244338989258 10.57388973236084 20.087177276611328 L10.57388973236084 20.087177276611328 C10.561317443847656 19.976442337036133 10.548746109008789 19.86570930480957 10.536173820495605 19.754974365234375 L10.536173820495605 19.754974365234375 C10.906190872192383 19.65389633178711 11.276208877563477 19.552818298339844 11.646225929260254 19.451740264892578 L11.646225929260254 19.451740264892578 C11.646225929260254 17.63283348083496 11.646225929260254 15.813921928405762 11.646225929260254 13.995016098022461 L11.646225929260254 13.995016098022461 C11.264642715454102 13.88206958770752 10.883058547973633 13.769123077392578 10.50147533416748 13.656176567077637 L10.50147533416748 13.656176567077637 C10.512136459350586 13.564351081848145 10.522797584533691 13.472526550292969 10.533458709716797 13.380701065063477 L10.533458709716797 13.380701065063477"></path></svg>