<svg xmlns="http://www.w3.org/2000/svg" viewBox="0.0 0.0 24.0 24.0" height="200px" width="200px"><path fill="none" stroke="black" stroke-width=".3" stroke-opacity="1.0"  filling="0" d="M12.538961410522461 12.720346450805664 L12.538961410522461 12.720346450805664 C13.387962341308594 12.898416519165039 14.232722282409668 13.097773551940918 15.072294235229492 13.316017150878906 L15.072294235229492 13.316017150878906 C15.072294235229492 14.035209655761719 15.072294235229492 14.754401206970215 15.072294235229492 15.473593711853027 L15.072294235229492 15.473593711853027 C14.388341903686523 14.673874855041504 13.54427719116211 13.385113716125488 12.29837703704834 13.429004669189453 C11.34366226196289 13.462637901306152 10.517254829406738 14.290914535522461 10.754979133605957 15.304166793823242 C11.15843677520752 17.023828506469727 14.24304485321045 17.706111907958984 15.201410293579102 19.129886627197266 C16.41751480102539 20.936567306518555 15.059638977050781 23.091480255126953 13.086323738098145 23.42788314819336 C11.71848201751709 23.661067962646484 10.305686950683594 23.071388244628906 9.024675369262695 22.702598571777344 L9.024675369262695 22.702598571777344 C9.027301788330078 22.647308349609375 9.129079818725586 20.50669288635254 9.133333206176758 20.417316436767578 L9.133333206176758 20.417316436767578 C9.255267143249512 20.395959854125977 9.37720012664795 20.374601364135742 9.499134063720703 20.35324478149414 L9.499134063720703 20.35324478149414 C9.968769073486328 21.128734588623047 10.975794792175293 22.763309478759766 12.196969985961914 22.583118438720703 C13.653068542480469 22.368263244628906 13.97116756439209 22.004959106445312 13.684036254882812 20.864501953125 C13.362442016601562 19.587162017822266 11.854864120483398 18.864622116088867 10.632279396057129 18.006942749023438 C9.409693717956543 17.149261474609375 8.472101211547852 16.156436920166016 9.290475845336914 14.33852767944336 C9.537846565246582 13.78902816772461 10.010226249694824 13.309978485107422 10.54962158203125 13.041287422180176 C11.150845527648926 12.74179744720459 11.875847816467285 12.827326774597168 12.538961410522461 12.720346450805664 L12.538961410522461 12.720346450805664"></path></svg>