<svg xmlns="http://www.w3.org/2000/svg" viewBox="0.0 0.0 24.0 24.0" height="200px" width="200px"><path fill="none" stroke="black" stroke-width=".3" stroke-opacity="1.0"  filling="0" d="M11.984886169433594 11.268892288208008 L11.984886169433594 11.268892288208008 C12.05478572845459 11.824433326721191 12.12468433380127 12.379975318908691 12.194583892822266 12.935516357421875 L12.194583892822266 12.935516357421875 C13.160201072692871 13.003142356872559 14.125818252563477 13.070775032043457 15.091434478759766 13.138413429260254 L15.091434478759766 13.138413429260254 C14.17851448059082 13.557945251464844 13.190479278564453 13.843052864074707 12.193450927734375 13.967002868652344 L12.193450927734375 13.967002868652344 C12.183393478393555 15.378743171691895 11.39317798614502 19.8281307220459 12.730966567993164 20.78628921508789 C13.465600967407227 21.312454223632812 14.512835502624512 20.81479263305664 15.194961547851562 20.616121292114258 L15.194961547851562 20.616121292114258 C14.785264015197754 21.040191650390625 14.49268913269043 21.623477935791016 13.965868949890137 21.888334274291992 C12.202143669128418 22.77503776550293 11.363066673278809 21.8948974609375 10.961767196655273 20.5754337310791 C10.560466766357422 19.255970001220703 10.596944808959961 17.4971866607666 10.58432674407959 16.626604080200195 C10.576468467712402 16.08443260192871 10.641741752624512 15.534036636352539 10.5457181930542 15.00037956237793 C10.439173698425293 14.408252716064453 10.170655250549316 13.857053756713867 9.983123779296875 13.285390853881836 L9.983123779296875 13.285390853881836 C10.650362968444824 12.613210678100586 11.317620277404785 11.941046714782715 11.984886169433594 11.268892288208008 L11.984886169433594 11.268892288208008"></path></svg>