<svg xmlns="http://www.w3.org/2000/svg" viewBox="0.0 0.0 24.0 24.0" height="200px" width="200px"><path fill="none" stroke="black" stroke-width=".3" stroke-opacity="1.0"  filling="0" d="M6.781200885772705 8.274286270141602 C9.087372779846191 8.274286270141602 11.402299880981445 8.152877807617188 13.697964668273926 8.310474395751953 C15.74030590057373 8.4505615234375 17.505393981933594 9.324934005737305 18.156211853027344 11.480512619018555 C18.767337799072266 13.501842498779297 18.421791076660156 15.329385757446289 16.636859893798828 16.694059371948242 C16.64678192138672 16.502025604248047 16.604755401611328 16.288976669311523 16.673046112060547 16.120872497558594 C18.638925552368164 11.297233581542969 17.10556411743164 8.954873085021973 11.911279678344727 8.879575729370117 C11.334590911865234 8.871404647827148 10.757318496704102 8.937945365905762 9.950654983520508 8.982305526733398 C9.950654983520508 11.686555862426758 9.950654983520508 14.353449821472168 9.950654983520508 17.552671432495117 C11.891433715820312 17.355382919311523 13.842135429382324 17.15692710876465 15.792254447937012 16.959054946899414 C15.803929328918457 17.366474151611328 15.815603256225586 17.77447509765625 15.827276229858398 18.18189239501953 C13.906927108764648 18.18189239501953 11.985993385314941 18.18189239501953 9.885281562805176 18.18189239501953 C9.885281562805176 21.083431243896484 9.885281562805176 23.758495330810547 9.885281562805176 26.578899383544922 C12.429015159606934 27.33945083618164 14.859514236450195 26.65361213684082 17.297016143798828 26.16039276123047 C16.37594985961914 26.57656478881836 15.474142074584961 27.291004180908203 14.53031063079834 27.352294921875 C11.957391738891602 27.518646240234375 9.366961479187012 27.409494400024414 6.7596049308776855 27.09196662902832 C7.470542907714844 26.968223571777344 8.1820650100708 26.84389877319336 8.970634460449219 26.706146240234375 C8.970634460449219 20.772323608398438 8.970634460449219 14.956987380981445 8.970634460449219 9.04709529876709 C8.175060272216797 8.900004386901855 7.464122295379639 8.76809024810791 6.7531843185424805 8.636758804321289 C6.762523174285889 8.515934944152832 6.771862506866455 8.395111083984375 6.781200885772705 8.274286270141602"></path></svg>