<svg xmlns="http://www.w3.org/2000/svg" viewBox="0.0 0.0 24.0 24.0" height="200px" width="200px"><path fill="none" stroke="black" stroke-width=".3" stroke-opacity="1.0"  filling="0" d="M11.610689163208008 10.631867408752441 L11.610689163208008 10.631867408752441 C11.840599060058594 10.631867408752441 13.764205932617188 10.631867408752441 14.04921817779541 10.631867408752441 L14.04921817779541 10.631867408752441 C14.054847717285156 10.663551330566406 14.060478210449219 10.695234298706055 14.066107749938965 10.72691822052002 L14.066107749938965 10.72691822052002 C13.358471870422363 10.776927947998047 12.650836944580078 10.826936721801758 11.943201065063477 10.876945495605469 L11.943201065063477 10.876945495605469 C11.712782859802246 12.399076461791992 11.482428550720215 13.921217918395996 11.25201416015625 15.44334888458252 L11.25201416015625 15.44334888458252 C11.329949378967285 15.450396537780762 13.178715705871582 15.617654800415039 13.32027530670166 15.630468368530273 L13.32027530670166 15.630468368530273 C13.324690818786621 15.68401050567627 13.329107284545898 15.737552642822266 13.33352279663086 15.791094779968262 L13.33352279663086 15.791094779968262 C12.627100944519043 15.847390174865723 11.920679092407227 15.903692245483398 11.214258193969727 15.959999084472656 L11.214258193969727 15.959999084472656 C10.9723482131958 17.673015594482422 10.730326652526855 19.38602638244629 10.488297462463379 21.09902572631836 L10.488297462463379 21.09902572631836 C11.467432022094727 21.148290634155273 12.037184715270996 21.176912307739258 13.007304191589355 21.225540161132812 L13.007304191589355 21.225540161132812 C13.002336502075195 21.294315338134766 12.997368812561035 21.36309242248535 12.992401123046875 21.431867599487305 L12.992401123046875 21.431867599487305 C12.868453979492188 21.431867599487305 10.133688926696777 21.431867599487305 10.080938339233398 21.431867599487305 L10.080938339233398 21.431867599487305 C10.335916519165039 19.63187026977539 10.590860366821289 17.831867218017578 10.845807075500488 16.0318660736084 C11.100752830505371 14.231864929199219 11.355701446533203 12.431863784790039 11.610689163208008 10.631867408752441 L11.610689163208008 10.631867408752441"></path></svg>