<svg xmlns="http://www.w3.org/2000/svg" viewBox="0.0 0.0 24.0 24.0" height="200px" width="200px"><path fill="none" stroke="black" stroke-width=".3" stroke-opacity="1.0"  filling="0" d="M9.05439567565918 10.001124382019043 L9.05439567565918 10.001124382019043 C11.21346664428711 10.001124382019043 13.37253475189209 10.001124382019043 15.531606674194336 10.001124382019043 L15.531606674194336 10.001124382019043 C15.569012641906738 10.52138614654541 15.606419563293457 11.041648864746094 15.64382553100586 11.561910629272461 L15.64382553100586 11.561910629272461 C15.577865600585938 11.576740264892578 15.511906623840332 11.591570854187012 15.44594669342041 11.606400489807129 L15.44594669342041 11.606400489807129 C15.324209213256836 11.190611839294434 15.202471733093262 10.774822235107422 15.080734252929688 10.359033584594727 L15.080734252929688 10.359033584594727 C13.665367126464844 10.359033584594727 12.250006675720215 10.359033584594727 10.834639549255371 10.359033584594727 L10.834639549255371 10.359033584594727 C10.834639549255371 11.958000183105469 10.834639549255371 13.556967735290527 10.834639549255371 15.15593433380127 L10.834639549255371 15.15593433380127 C12.589035034179688 15.237740516662598 13.320516586303711 15.33449649810791 14.844342231750488 14.38965129852295 L14.844342231750488 14.38965129852295 C14.844342231750488 15.16600513458252 14.844342231750488 15.942358016967773 14.844342231750488 16.718711853027344 L14.844342231750488 16.718711853027344 C14.636945724487305 16.363569259643555 14.429549217224121 16.0084285736084 14.222152709960938 15.653286933898926 L14.222152709960938 15.653286933898926 C13.075495719909668 15.653286933898926 11.928838729858398 15.653286933898926 10.782181739807129 15.653286933898926 L10.782181739807129 15.653286933898926 C10.782181739807129 17.240192413330078 10.782181739807129 18.82709503173828 10.782181739807129 20.413999557495117 L10.782181739807129 20.413999557495117 C12.262953758239746 20.413528442382812 13.743722915649414 20.413360595703125 15.224495887756348 20.4133358001709 L15.224495887756348 20.4133358001709 C15.306391716003418 19.9808349609375 15.388287544250488 19.5483341217041 15.470183372497559 19.115833282470703 L15.470183372497559 19.115833282470703 C15.524633407592773 19.12125587463379 15.579083442687988 19.126680374145508 15.633533477783203 19.132102966308594 L15.633533477783203 19.132102966308594 C15.633533477783203 19.68833351135254 15.633533477783203 20.24456214904785 15.633533477783203 20.800792694091797 L15.633533477783203 20.800792694091797 C13.427316665649414 20.800792694091797 11.221102714538574 20.800792694091797 9.014885902404785 20.800792694091797 L9.014885902404785 20.800792694091797 C9.008245468139648 20.7523193359375 9.001605033874512 20.703845977783203 8.994964599609375 20.655372619628906 L8.994964599609375 20.655372619628906 C9.419275283813477 20.576242446899414 9.843585968017578 20.497114181518555 10.26789665222168 20.417984008789062 L10.26789665222168 20.417984008789062 C10.26789665222168 18.742820739746094 10.26789665222168 17.067657470703125 10.26789665222168 15.39249324798584 C10.26789665222168 13.717329025268555 10.26789665222168 12.042165756225586 10.26789665222168 10.3670015335083 L10.26789665222168 10.3670015335083 C9.858969688415527 10.298274993896484 9.450041770935059 10.229548454284668 9.041114807128906 10.160821914672852 L9.041114807128906 10.160821914672852 C9.045541763305664 10.107589721679688 9.049968719482422 10.054356575012207 9.05439567565918 10.001124382019043 L9.05439567565918 10.001124382019043"></path></svg>