<svg xmlns="http://www.w3.org/2000/svg" viewBox="0.0 0.0 24.0 24.0" height="200px" width="200px"><path fill="none" stroke="black" stroke-width=".3" stroke-opacity="1.0"  filling="0" d="M10.326261520385742 8.460546493530273 C12.076495170593262 8.460546493530273 13.827319145202637 8.460546493530273 15.577554702758789 8.460546493530273 C15.588777542114258 8.537927627563477 15.599409103393555 8.615900039672852 15.610631942749023 8.693281173706055 C14.891755104064941 8.841547012329102 14.173467636108398 8.990402221679688 13.369529724121094 9.156387329101562 C13.369529724121094 15.123602867126465 13.369529724121094 20.982131958007812 13.369529724121094 27.001916885375977 C14.132119178771973 27.134822845458984 14.852177619934082 27.260643005371094 15.571645736694336 27.38646125793457 C15.565149307250977 27.47801971435547 15.5586519241333 27.568984985351562 15.552152633666992 27.660545349121094 C13.857444763183594 27.660545349121094 12.162736892700195 27.660545349121094 9.738518714904785 27.660545349121094 C11.07703685760498 27.290767669677734 11.755156517028809 27.103517532348633 12.506522178649902 26.895593643188477 C12.506522178649902 20.993946075439453 12.506522178649902 15.131281852722168 12.506522178649902 9.093183517456055 C11.736845016479492 8.976224899291992 11.020920753479004 8.86694622039795 10.304996490478516 8.758257865905762 C10.312085151672363 8.65902042388916 10.319173812866211 8.559783935546875 10.326261520385742 8.460546493530273"></path></svg>