<svg xmlns="http://www.w3.org/2000/svg" viewBox="0.0 0.0 24.0 24.0" height="200px" width="200px"><path fill="none" stroke="black" stroke-width=".3" stroke-opacity="1.0"  filling="0" d="M9.080728530883789 9.968047142028809 L9.080728530883789 9.968047142028809 C10.0509033203125 9.968047142028809 11.021077156066895 9.968047142028809 11.991251945495605 9.968047142028809 L11.991251945495605 9.968047142028809 C12.002035140991211 10.00523853302002 12.012819290161133 10.042430877685547 12.023602485656738 10.079622268676758 L12.023602485656738 10.079622268676758 C11.625937461853027 10.180523872375488 11.228272438049316 10.281425476074219 10.830607414245605 10.38232707977295 L10.830607414245605 10.38232707977295 C10.830607414245605 10.401453018188477 10.830607414245605 14.240476608276367 10.830607414245605 14.248169898986816 L10.830607414245605 14.248169898986816 C10.903560638427734 14.315621376037598 10.976512908935547 14.383072853088379 11.049466133117676 14.45052433013916 L11.049466133117676 14.45052433013916 C11.635290145874023 13.615692138671875 12.221114158630371 12.78085994720459 12.806938171386719 11.946027755737305 L12.806938171386719 11.946027755737305 C12.988494873046875 12.11217975616455 13.170052528381348 12.278332710266113 13.351609230041504 12.44448471069336 L13.351609230041504 12.44448471069336 C12.681076049804688 13.214191436767578 12.01052474975586 13.983881950378418 11.339958190917969 14.753560066223145 L11.339958190917969 14.753560066223145 C11.365133285522461 14.787498474121094 12.663538932800293 16.53800392150879 12.694703102111816 16.58002281188965 L12.694703102111816 16.58002281188965 C12.672805786132812 16.607641220092773 12.650909423828125 16.63526153564453 12.629012107849121 16.662879943847656 L12.629012107849121 16.662879943847656 C12.629007339477539 16.662874221801758 11.340291976928711 15.020950317382812 11.340288162231445 15.020944595336914 L11.340288162231445 15.020944595336914 C11.189650535583496 15.123276710510254 11.039013862609863 15.225608825683594 10.888376235961914 15.327940940856934 L10.888376235961914 15.327940940856934 C10.888376235961914 17.00222396850586 10.888376235961914 18.6765079498291 10.888376235961914 20.35079574584961 L10.888376235961914 20.35079574584961 C11.28141975402832 20.424959182739258 11.67446231842041 20.499122619628906 12.067505836486816 20.573286056518555 L12.067505836486816 20.573286056518555 C12.063434600830078 20.62335205078125 12.05936336517334 20.673418045043945 12.055292129516602 20.72348403930664 L12.055292129516602 20.72348403930664 C11.098981857299805 20.72348403930664 10.142672538757324 20.72348403930664 9.186362266540527 20.72348403930664 L9.186362266540527 20.72348403930664 C9.172718048095703 20.68673324584961 9.159073829650879 20.649982452392578 9.145429611206055 20.613231658935547 L9.145429611206055 20.613231658935547 C9.538912773132324 20.506277084350586 9.932395935058594 20.399324417114258 10.325879096984863 20.292369842529297 L10.325879096984863 20.292369842529297 C10.326013565063477 18.636734008789062 10.326095581054688 16.98110008239746 10.326143264770508 15.325464248657227 C10.326191902160645 13.669829368591309 10.326208114624023 12.01419448852539 10.326210021972656 10.358559608459473 L10.326210021972656 10.358559608459473 C9.904337882995605 10.280875205993652 9.482464790344238 10.203190803527832 9.060592651367188 10.125506401062012 L9.060592651367188 10.125506401062012 C9.067304611206055 10.073019981384277 9.074016571044922 10.020533561706543 9.080728530883789 9.968047142028809 L9.080728530883789 9.968047142028809"></path>
<path fill="none" stroke="black" stroke-width=".3" stroke-opacity="1.0"  filling="0" d="M13.778762817382812 10.006010055541992 L13.778762817382812 10.006010055541992 C14.678404808044434 10.006010055541992 15.578047752380371 10.006010055541992 16.477689743041992 10.006010055541992 L16.477689743041992 10.006010055541992 C15.911885261535645 10.325529098510742 14.65410041809082 11.035688400268555 14.12273120880127 11.33566665649414 L14.12273120880127 11.33566665649414 C14.283712387084961 11.007433891296387 14.444692611694336 10.679200172424316 14.605673789978027 10.350967407226562 L14.605673789978027 10.350967407226562 C14.330697059631348 10.277904510498047 14.055721282958984 10.204841613769531 13.780744552612305 10.131778717041016 L13.780744552612305 10.131778717041016 C13.780083656311035 10.089856147766113 13.779423713684082 10.047932624816895 13.778762817382812 10.006010055541992 L13.778762817382812 10.006010055541992"></path>
<path fill="none" stroke="black" stroke-width=".3" stroke-opacity="1.0"  filling="0" d="M14.666742324829102 19.186189651489258 L14.666742324829102 19.186189651489258 C15.318893432617188 19.646150588989258 16.248798370361328 20.301862716674805 16.910125732421875 20.768047332763672 L16.910125732421875 20.768047332763672 C16.25229835510254 20.768047332763672 14.975241661071777 20.768047332763672 14.321454048156738 20.768047332763672 L14.321454048156738 20.768047332763672 C14.306159019470215 20.722272872924805 14.290864944458008 20.676498413085938 14.275569915771484 20.63072395324707 L14.275569915771484 20.63072395324707 C14.604243278503418 20.529382705688477 14.932915687561035 20.42803955078125 15.261589050292969 20.326698303222656 L15.261589050292969 20.326698303222656 C15.06330680847168 19.946529388427734 14.86502456665039 19.56635856628418 14.666742324829102 19.186189651489258 L14.666742324829102 19.186189651489258"></path></svg>