<svg xmlns="http://www.w3.org/2000/svg" viewBox="0.0 0.0 24.0 24.0" height="200px" width="200px"><path fill="none" stroke="black" stroke-width=".3" stroke-opacity="1.0"  filling="0" d="M16.084022521972656 10.297924041748047 L16.084022521972656 10.297924041748047 C16.612558364868164 10.297924041748047 17.141096115112305 10.297924041748047 17.669631958007812 10.297924041748047 L17.669631958007812 10.297924041748047 C17.673208236694336 10.336698532104492 17.67678451538086 10.375473022460938 17.680360794067383 10.414247512817383 L17.680360794067383 10.414247512817383 C17.366024017333984 10.489067077636719 17.051687240600586 10.563886642456055 16.737350463867188 10.63870620727539 L16.737350463867188 10.63870620727539 C16.737350463867188 12.058490753173828 16.737350463867188 13.478275299072266 16.737350463867188 14.89806079864502 C16.73735237121582 16.31784439086914 16.73735237121582 17.737628936767578 16.73735237121582 19.157413482666016 L16.73735237121582 19.157413482666016 C17.042747497558594 19.222633361816406 17.34814453125 19.28785514831543 17.653539657592773 19.35307502746582 L17.653539657592773 19.35307502746582 C17.651185989379883 19.394390106201172 17.648834228515625 19.435705184936523 17.646480560302734 19.477020263671875 L17.646480560302734 19.477020263671875 C17.51746940612793 19.477020263671875 15.106599807739258 19.477020263671875 15.102331161499023 19.477020263671875 L15.102331161499023 19.477020263671875 C15.485087394714355 19.354204177856445 15.867842674255371 19.231386184692383 16.250598907470703 19.108570098876953 L16.250598907470703 19.108570098876953 C16.26772117614746 17.63607406616211 16.275165557861328 16.168363571166992 16.2537841796875 14.701302528381348 C16.232402801513672 13.234241485595703 16.18219757080078 11.767827987670898 16.084022521972656 10.297924041748047 L16.084022521972656 10.297924041748047"></path>
<path fill="none" stroke="black" stroke-width=".3" stroke-opacity="1.0"  filling="0" d="M6.930053234100342 10.325592041015625 L6.930053234100342 10.325592041015625 C7.447673320770264 10.325592041015625 7.965292930603027 10.325592041015625 8.48291301727295 10.325592041015625 L8.48291301727295 10.325592041015625 C8.603565216064453 10.76923942565918 8.724218368530273 11.212886810302734 8.844870567321777 11.656534194946289 L8.873104095458984 11.63197135925293 C8.72167682647705 11.578516006469727 8.570249557495117 11.525059700012207 8.418822288513184 11.471604347229004 L8.418822288513184 11.471604347229004 C8.418822288513184 12.752007484436035 8.418822288513184 14.032411575317383 8.418822288513184 15.31281566619873 C8.418822288513184 16.593219757080078 8.418822288513184 17.87362289428711 8.418822288513184 19.15402603149414 L8.418822288513184 19.15402603149414 C8.753863334655762 19.219057083129883 9.088905334472656 19.284090042114258 9.423946380615234 19.34912109375 L9.423946380615234 19.34912109375 C9.419146537780762 19.391000747680664 9.414346694946289 19.43288230895996 9.409546852111816 19.474761962890625 L9.409546852111816 19.474761962890625 C8.572507858276367 19.474761962890625 7.735469818115234 19.474761962890625 6.898431301116943 19.474761962890625 L6.898431301116943 19.474761962890625 C6.8924078941345215 19.440221786499023 6.886384963989258 19.405683517456055 6.880361557006836 19.371143341064453 L6.880361557006836 19.371143341064453 C7.236578464508057 19.30055809020996 7.592794895172119 19.2299747467041 7.94901180267334 19.15938949584961 L7.94901180267334 19.15938949584961 C7.94901180267334 17.74045181274414 7.94901180267334 16.321514129638672 7.94901180267334 14.902576446533203 C7.94901180267334 13.483638763427734 7.94901180267334 12.064701080322266 7.94901180267334 10.645763397216797 L7.94901180267334 10.645763397216797 C7.610488414764404 10.57828426361084 7.2719645500183105 10.5108060836792 6.933441162109375 10.443326950073242 L6.933441162109375 10.443326950073242 C6.93231201171875 10.404082298278809 6.931182384490967 10.364836692810059 6.930053234100342 10.325592041015625 L6.930053234100342 10.325592041015625"></path>
<path fill="none" stroke="black" stroke-width=".3" stroke-opacity="1.0"  filling="0" d="M8.872822761535645 11.632253646850586 L8.872822761535645 11.632253646850586 C9.343094825744629 12.668584823608398 9.813282012939453 13.704954147338867 10.283384323120117 14.741361618041992 L10.257125854492188 14.763666152954102 C9.78637409210205 13.727861404418945 9.315622329711914 12.692056655883789 8.844870567321777 11.65625286102295 L8.872822761535645 11.632253646850586"></path>
<path fill="none" stroke="black" stroke-width=".3" stroke-opacity="1.0"  filling="0" d="M10.283666610717773 14.741362571716309 L10.25740909576416 14.763667106628418 C11.103742599487305 16.277084350585938 11.816749572753906 17.781421661376953 12.411931991577148 19.414058685302734 L12.411931991577148 19.414058685302734 C11.484137535095215 17.8580322265625 10.807787895202637 16.47772789001465 10.283666610717773 14.741362571716309 L10.283666610717773 14.741362571716309"></path></svg>