<svg xmlns="http://www.w3.org/2000/svg" viewBox="0.0 0.0 24.0 24.0" height="200px" width="200px"><path fill="none" stroke="black" stroke-width=".3" stroke-opacity="1.0"  filling="0" d="M9.461660385131836 8.98116683959961 C12.129847526550293 8.147836685180664 14.618879318237305 8.472183227539062 16.961078643798828 10.015021324157715 C17.389522552490234 10.297181129455566 17.904531478881836 10.447848320007324 18.379547119140625 10.659331321716309 C15.449468612670898 7.3966898918151855 10.999018669128418 6.958383560180664 7.156717300415039 9.553704261779785 C7.925944805145264 9.365232467651367 8.707225799560547 9.216756820678711 9.461660385131836 8.98116683959961"></path>
<path fill="none" stroke="black" stroke-width=".3" stroke-opacity="1.0"  filling="0" d="M18.283119201660156 10.56399917602539 C18.53624153137207 11.111883163452148 18.744436264038086 11.68661117553711 19.049606323242188 12.203264236450195 C20.768863677978516 15.112521171569824 20.921175003051758 18.168611526489258 19.82869529724121 21.29154396057129 C19.45339584350586 22.364845275878906 18.80251121520996 23.341720581054688 18.27709197998047 24.362422943115234 C22.190616607666016 21.265243530273438 22.193904876708984 14.068258285522461 18.283119201660156 10.56399917602539"></path>
<path fill="none" stroke="black" stroke-width=".3" stroke-opacity="1.0"  filling="0" d="M5.192009449005127 11.398425102233887 C2.752835273742676 14.713663101196289 2.505192756652832 19.412853240966797 4.587695121765137 22.862869262695312 C7.568176746368408 27.80093765258789 14.949800491333008 28.553730010986328 18.368587493896484 24.2681884765625 C18.11382293701172 24.33831787109375 17.808652877807617 24.34050941467285 17.61141586303711 24.487342834472656 C14.44355583190918 26.84707260131836 11.077913284301758 27.17361068725586 7.729802131652832 25.091659545898438 C4.416207790374756 23.031070709228516 3.6338319778442383 19.71035385131836 4.069398403167725 16.07350730895996 C4.258965015411377 14.492865562438965 4.806848049163818 12.955507278442383 5.192009449005127 11.398425102233887"></path></svg>