<svg xmlns="http://www.w3.org/2000/svg" viewBox="0.0 0.0 24.0 24.0" height="200px" width="200px"><path fill="none" stroke="black" stroke-width=".3" stroke-opacity="1.0"  filling="0" d="M11.540274620056152 10.361087799072266 L11.540274620056152 10.361087799072266 C12.150717735290527 10.538854598999023 12.761159896850586 10.716621398925781 13.371603012084961 10.894388198852539 L13.371603012084961 10.894388198852539 C12.847848892211914 10.894388198852539 12.324095726013184 10.894388198852539 11.800341606140137 10.894388198852539 L11.800341606140137 10.894388198852539 C11.582010269165039 12.47695541381836 11.36367416381836 14.059529304504395 11.14523696899414 15.642082214355469 L11.14523696899414 15.642082214355469 C11.732636451721191 15.587764739990234 12.320034980773926 15.533446311950684 12.907434463500977 15.47912883758545 L12.907434463500977 15.47912883758545 C12.791007995605469 15.694863319396973 12.674581527709961 15.910598754882812 12.558155059814453 16.126333236694336 L12.558155059814453 16.126333236694336 C12.570883750915527 16.113933563232422 12.583613395690918 16.101531982421875 12.596342086791992 16.08913230895996 L12.596342086791992 16.08913230895996 C12.090804100036621 16.112285614013672 11.585265159606934 16.135440826416016 11.079727172851562 16.158594131469727 L11.079727172851562 16.158594131469727 C10.864814758300781 17.555810928344727 10.649969100952148 18.953039169311523 10.435157775878906 20.35027313232422 L10.435157775878906 20.35027313232422 C10.336836814880371 20.33523941040039 10.238516807556152 20.320205688476562 10.140195846557617 20.305171966552734 L10.140195846557617 20.305171966552734 C10.373628616333008 18.647838592529297 10.606996536254883 16.990493774414062 10.840332984924316 15.333144187927246 C11.073668479919434 13.67579460144043 11.30697250366211 12.018440246582031 11.540274620056152 10.361087799072266 L11.540274620056152 10.361087799072266"></path>
<path fill="none" stroke="black" stroke-width=".3" stroke-opacity="1.0"  filling="0" d="M12.596013069152832 16.089134216308594 L12.596013069152832 16.089134216308594 C12.949243545532227 17.779895782470703 13.302472114562988 19.47065544128418 13.655701637268066 21.161418914794922 L13.655701637268066 21.161418914794922 C13.574396133422852 19.1390380859375 13.531061172485352 17.922164916992188 12.558155059814453 16.126333236694336 L12.596013069152832 16.089134216308594"></path></svg>