<svg xmlns="http://www.w3.org/2000/svg" viewBox="0.0 0.0 24.0 24.0" height="200px" width="200px"><path fill="none" stroke="black" stroke-width=".3" stroke-opacity="1.0"  filling="0" d="M15.155531883239746 8.300086975097656 C13.031037330627441 7.970861911773682 10.835283279418945 7.5781121253967285 9.775797843933105 10.073261260986328 C8.707474708557129 12.588296890258789 10.014983177185059 14.399585723876953 11.772138595581055 16.06117820739746 C8.767132759094238 14.305680274963379 7.915346145629883 11.834836959838867 9.257655143737793 9.515898704528809 C10.493353843688965 7.380908966064453 12.493008613586426 6.920767307281494 15.155531883239746 8.300086975097656"></path>
<path fill="none" stroke="black" stroke-width=".3" stroke-opacity="1.0"  filling="0" d="M17.09884262084961 20.86918830871582 C17.781597137451172 22.853927612304688 17.502086639404297 24.57683563232422 15.824478149414062 25.818058013916016 C14.070635795593262 27.115623474121094 12.242223739624023 26.899639129638672 10.409390449523926 25.85064697265625 C9.895666122436523 25.556222915649414 9.24881649017334 25.49380111694336 8.445640563964844 25.262351989746094 C8.44564151763916 24.488452911376953 8.44564151763916 23.287002563476562 8.44564151763916 22.08500099182129 C10.186223983764648 25.213741302490234 11.337959289550781 26.260520935058594 13.392301559448242 26.051719665527344 C16.503366470336914 25.735198974609375 16.849714279174805 23.336166381835938 17.09884262084961 20.86918830871582"></path></svg>