<svg xmlns="http://www.w3.org/2000/svg" viewBox="0.0 0.0 24.0 24.0" height="200px" width="200px"><path fill="none" stroke="black" stroke-width=".3" stroke-opacity="1.0"  filling="0" d="M13.774986267089844 9.918798446655273 L13.774986267089844 9.918798446655273 C13.19575309753418 9.886445045471191 12.588265419006348 9.640132904052734 12.037285804748535 9.821737289428711 C9.461023330688477 10.670880317687988 10.883667945861816 13.000343322753906 11.871828079223633 14.284412384033203 L11.871828079223633 14.284412384033203 C10.660472869873047 13.244725227355957 8.66141128540039 10.16958999633789 11.815237998962402 9.51944637298584 C12.468183517456055 9.384845733642578 13.121736526489258 9.785680770874023 13.774986267089844 9.918798446655273 L13.774986267089844 9.918798446655273"></path>
<path fill="none" stroke="black" stroke-width=".3" stroke-opacity="1.0"  filling="0" d="M14.868099212646484 16.98891830444336 L14.868099212646484 16.98891830444336 C14.914590835571289 17.50515365600586 15.136828422546387 18.035675048828125 15.007573127746582 18.53762435913086 C14.331487655639648 21.163135528564453 11.642139434814453 19.951818466186523 10.000673294067383 19.460073471069336 L10.000673294067383 19.460073471069336 C10.000673294067383 18.864320755004883 10.000673294067383 18.268566131591797 10.000673294067383 17.672813415527344 L10.000673294067383 17.672813415527344 C10.999002456665039 19.043773651123047 12.675874710083008 21.351808547973633 14.42932415008545 18.900115966796875 C14.809565544128418 18.368457794189453 14.721840858459473 17.62598419189453 14.868099212646484 16.98891830444336 L14.868099212646484 16.98891830444336"></path></svg>