<svg xmlns="http://www.w3.org/2000/svg" viewBox="0.0 0.0 24.0 24.0" height="200px" width="200px"><path fill="none" stroke="black" stroke-width=".3" stroke-opacity="1.0"  filling="0" d="M11.06588363647461 11.100370407104492 L11.06588363647461 11.100370407104492 C11.197527885437012 11.119158744812012 11.329171180725098 11.137948036193848 11.4608154296875 11.156736373901367 L11.4608154296875 11.156736373901367 C11.250543594360352 12.929757118225098 11.058462142944336 14.44219970703125 10.453646659851074 16.127689361572266 L10.492583274841309 16.166996002197266 C10.683578491210938 14.478110313415527 10.874645233154297 12.789228439331055 11.06588363647461 11.100370407104492 L11.06588363647461 11.100370407104492"></path>
<path fill="none" stroke="black" stroke-width=".3" stroke-opacity="1.0"  filling="0" d="M14.731891632080078 13.767738342285156 L14.731891632080078 13.767738342285156 C14.837577819824219 13.777009010314941 14.94326400756836 13.786279678344727 15.0489501953125 13.795550346374512 L15.0489501953125 13.795550346374512 C14.886524200439453 15.214834213256836 14.724106788635254 16.634117126464844 14.561681747436523 18.05340003967285 L14.561681747436523 18.05340003967285 C14.440791130065918 18.048826217651367 14.319901466369629 18.044252395629883 14.199010848999023 18.0396785736084 L14.199010848999023 18.0396785736084 C14.37663745880127 16.61569595336914 14.554264068603516 15.191720962524414 14.731891632080078 13.767738342285156 L14.731891632080078 13.767738342285156"></path>
<path fill="none" stroke="black" stroke-width=".3" stroke-opacity="1.0"  filling="0" d="M10.453646659851074 16.127689361572266 L10.492212295532227 16.16736602783203 C10.11511516571045 18.2047119140625 9.93557357788086 19.836227416992188 10.16365909576416 21.900741577148438 L10.16365909576416 21.900741577148438 C10.26034164428711 19.976396560668945 10.356951713562012 18.052032470703125 10.453646659851074 16.127689361572266 L10.453646659851074 16.127689361572266"></path></svg>