<svg xmlns="http://www.w3.org/2000/svg" viewBox="0.0 0.0 24.0 24.0" height="200px" width="200px"><path fill="none" stroke="black" stroke-width=".3" stroke-opacity="1.0"  filling="0" d="M22.232593536376953 5.189813137054443 C21.639772415161133 8.197431564331055 21.09374237060547 10.96876335144043 20.525718688964844 13.850518226623535 C21.224750518798828 14.008197784423828 21.804000854492188 14.138739585876465 22.497421264648438 14.29548454284668 C22.20592498779297 15.627575874328613 21.927995681762695 16.89884376525879 21.622928619384766 18.29363250732422 C20.94027328491211 18.450374603271484 20.286157608032227 18.6001033782959 19.552032470703125 18.768543243408203 C19.352243423461914 19.311767578125 19.144498825073242 19.875579833984375 18.906808853149414 20.52080535888672 C16.551433563232422 20.52080535888672 14.24004077911377 20.52080535888672 11.720434188842773 20.52080535888672 C11.719497680664062 19.959800720214844 11.719497680664062 19.341243743896484 11.719497680664062 18.50324821472168 C8.832128524780273 18.50324821472168 6.146420955657959 18.50324821472168 3.296483039855957 18.50324821472168 C3.8266048431396484 15.065168380737305 3.984285354614258 11.758099555969238 7.175785541534424 9.771424293518066 C7.240355014801025 9.731184959411621 7.289951801300049 9.66614818572998 7.3475022315979 9.614212036132812 C8.957523345947266 8.165145874023438 10.350441932678223 6.158819675445557 12.238390922546387 5.424227714538574 C14.13476276397705 4.686359882354736 16.524293899536133 5.211803913116455 18.69765853881836 5.191684722900391 C19.773345947265625 5.18139123916626 20.84856414794922 5.189813137054443 22.232593536376953 5.189813137054443"></path>
<path fill="none" stroke="black" stroke-width=".3" stroke-opacity="1.0"  filling="0" d="M13.7019624710083 10.70487117767334 C13.496088981628418 11.781961441040039 13.26261043548584 13.002695083618164 12.993571281433105 14.412457466125488 C11.722772598266602 14.412457466125488 10.74862003326416 14.412457466125488 9.57280445098877 14.412457466125488 C11.035438537597656 13.099081039428711 12.357236862182617 11.912035942077637 13.7019624710083 10.70487117767334"></path></svg>