<svg xmlns="http://www.w3.org/2000/svg" viewBox="0.0 0.0 24.0 24.0" height="200px" width="200px"><path fill="none" stroke="black" stroke-width=".3" stroke-opacity="1.0"  filling="0" d="M6.8038649559021 10.36762523651123 L6.8038649559021 10.36762523651123 C7.369968414306641 10.36762523651123 7.936071872711182 10.36762523651123 8.502175331115723 10.36762523651123 L8.502175331115723 10.36762523651123 C8.225911140441895 10.495697975158691 7.949646949768066 10.623769760131836 7.673382759094238 10.751842498779297 L7.673382759094238 10.751842498779297 C8.444133758544922 13.07740592956543 9.214807510375977 15.40299129486084 9.985468864440918 17.72858428955078 L9.985468864440918 17.72858428955078 C10.180203437805176 17.620147705078125 10.374938011169434 17.511709213256836 10.569672584533691 17.40327262878418 L10.569672584533691 17.40327262878418 C10.446367263793945 17.784013748168945 10.323062896728516 18.164756774902344 10.19975757598877 18.54549789428711 L10.19975757598877 18.54549789428711 C10.127923965454102 18.547842025756836 10.056090354919434 18.55018424987793 9.984256744384766 18.552528381347656 L9.984256744384766 18.552528381347656 C9.51191520690918 17.20743179321289 9.127924919128418 15.745092391967773 8.656466484069824 14.327083587646484 C8.185009002685547 12.909075736999512 7.626081466674805 11.535398483276367 6.8038649559021 10.36762523651123 L6.8038649559021 10.36762523651123"></path>
<path fill="none" stroke="black" stroke-width=".3" stroke-opacity="1.0"  filling="0" d="M11.061274528503418 10.367867469787598 L11.061274528503418 10.367867469787598 C11.575017929077148 10.367867469787598 12.088761329650879 10.367867469787598 12.60250473022461 10.367867469787598 L12.60250473022461 10.367867469787598 C12.609938621520996 10.401966094970703 12.617371559143066 10.436064720153809 12.624805450439453 10.470163345336914 L12.624805450439453 10.470163345336914 C12.372135162353516 10.55031967163086 12.119465827941895 10.630475997924805 11.866795539855957 10.71063232421875 L11.866795539855957 10.71063232421875 C12.287748336791992 11.999752044677734 12.764577865600586 13.281913757324219 13.225398063659668 14.566437721252441 C13.686219215393066 15.850960731506348 14.131032943725586 17.137845993041992 14.487953186035156 18.436412811279297 L14.487953186035156 18.436412811279297 C14.384202003479004 18.46946144104004 14.280451774597168 18.50251007080078 14.176700592041016 18.535558700561523 L14.176700592041016 18.535558700561523 C13.713558197021484 17.20248794555664 13.312451362609863 15.754924774169922 12.838255882263184 14.343449592590332 C12.364060401916504 12.931973457336426 11.81677532196045 11.556585311889648 11.061274528503418 10.367867469787598 L11.061274528503418 10.367867469787598"></path>
<path fill="none" stroke="black" stroke-width=".3" stroke-opacity="1.0"  filling="0" d="M16.000579833984375 10.38798713684082 L16.000579833984375 10.38798713684082 C16.53508949279785 10.38798713684082 17.069599151611328 10.38798713684082 17.604108810424805 10.38798713684082 L17.604108810424805 10.38798713684082 C16.42670440673828 12.120484352111816 15.9262113571167 14.066301345825195 15.267295837402344 16.044090270996094 L15.267295837402344 16.044090270996094 C15.186978340148926 16.017749786376953 15.106659889221191 15.991408348083496 15.026342391967773 15.965066909790039 L15.026342391967773 15.965066909790039 C15.598034858703613 14.210066795349121 16.1699161529541 12.45512580871582 16.741863250732422 10.70020866394043 L16.741863250732422 10.70020866394043 C16.490808486938477 10.631607055664062 16.239755630493164 10.563006401062012 15.988700866699219 10.494404792785645 L15.988700866699219 10.494404792785645 C15.992660522460938 10.458931922912598 15.996620178222656 10.423460006713867 16.000579833984375 10.38798713684082 L16.000579833984375 10.38798713684082"></path></svg>