<svg xmlns="http://www.w3.org/2000/svg" viewBox="0.0 0.0 24.0 24.0" height="200px" width="200px"><path fill="none" stroke="black" stroke-width=".3" stroke-opacity="1.0"  filling="0" d="M13.254716873168945 10.824699401855469 L13.254716873168945 10.824699401855469 C13.254716873168945 12.61434555053711 13.254716873168945 14.40399169921875 13.254716873168945 16.19363784790039 C13.254716873168945 17.98328399658203 13.254716873168945 19.772930145263672 13.254716873168945 21.562576293945312 L13.254716873168945 21.562576293945312 C13.144126892089844 21.563247680664062 13.033535957336426 21.563919067382812 12.922945976257324 21.564590454101562 L12.922945976257324 21.564590454101562 C12.87778091430664 20.134342193603516 12.83187484741211 18.704113006591797 12.78738784790039 17.273839950561523 C12.742900848388672 15.843567848205566 12.699834823608398 14.413251876831055 12.660346984863281 12.982833862304688 C12.639756202697754 12.236955642700195 12.640544891357422 11.248434066772461 13.254716873168945 10.824699401855469 L13.254716873168945 10.824699401855469"></path>
<path fill="none" stroke="black" stroke-width=".3" stroke-opacity="1.0"  filling="0" d="M9.712026596069336 11.151769638061523 L9.712026596069336 11.151769638061523 C9.712026596069336 12.59940242767334 9.712026596069336 14.047037124633789 9.712026596069336 15.494670867919922 C9.712026596069336 16.942304611206055 9.712026596069336 18.389938354492188 9.712026596069336 19.83757209777832 L9.712026596069336 19.83757209777832 C9.791387557983398 19.858951568603516 9.870748519897461 19.88033103942871 9.950109481811523 19.901710510253906 L9.950109481811523 19.901710510253906 C10.192444801330566 19.474348068237305 10.43478012084961 19.046987533569336 10.677115440368652 18.619625091552734 L10.677115440368652 18.619625091552734 C10.732522964477539 18.638877868652344 10.78792953491211 18.658130645751953 10.843337059020996 18.677383422851562 L10.843337059020996 18.677383422851562 C10.568876266479492 19.659709930419922 10.294416427612305 20.642038345336914 10.0199556350708 21.624364852905273 L10.0199556350708 21.624364852905273 C9.882725715637207 21.614402770996094 9.745494842529297 21.60443878173828 9.608264923095703 21.5944766998291 L9.608264923095703 21.5944766998291 C9.522034645080566 19.84769630432129 9.490062713623047 18.109468460083008 9.508604049682617 16.37171173095703 C9.527146339416504 14.633953094482422 9.59620189666748 12.89666748046875 9.712026596069336 11.151769638061523 L9.712026596069336 11.151769638061523"></path></svg>