<svg xmlns="http://www.w3.org/2000/svg" viewBox="0.0 0.0 24.0 24.0" height="200px" width="200px"><path fill="none" stroke="black" stroke-width=".3" stroke-opacity="1.0"  filling="0" d="M14.182432174682617 15.38148021697998 C15.091532707214355 17.106830596923828 16.05887794494629 18.18137550354004 16.195621490478516 19.35299301147461 C16.551834106445312 22.394302368164062 16.403270721435547 25.493852615356445 16.735849380493164 28.53938102722168 C16.91733169555664 30.2022705078125 17.664363861083984 31.802692413330078 18.057716369628906 33.10345458984375 C16.67422866821289 33.25286102294922 14.626431465148926 33.477394104003906 12.578634262084961 33.701927185058594 C14.850963592529297 31.627960205078125 16.87090492248535 29.469587326049805 14.877130508422852 25.527620315551758 C12.522923469543457 26.113428115844727 10.033658981323242 26.732154846191406 7.545238971710205 27.351730346679688 C8.779319763183594 26.6409912109375 9.948404312133789 25.756372451782227 11.265207290649414 25.26932144165039 C12.526300430297852 24.802532196044922 13.94017505645752 24.74850845336914 15.909469604492188 24.403268814086914 C15.343920707702637 21.44974708557129 14.845054626464844 18.842309951782227 14.182432174682617 15.38148021697998"></path>
<path fill="none" stroke="black" stroke-width=".3" stroke-opacity="1.0"  filling="0" d="M7.194091320037842 27.679241180419922 C6.290055274963379 32.32518768310547 7.243049144744873 33.33727264404297 12.760116577148438 33.59050369262695 C10.791665077209473 35.22637939453125 8.697441101074219 34.65745544433594 7.264151573181152 33.165077209472656 C6.29934024810791 32.16059112548828 6.164283752441406 30.299341201782227 5.85449743270874 28.781641006469727 C5.800474643707275 28.5165958404541 6.723081111907959 28.052331924438477 7.194091320037842 27.679241180419922"></path></svg>