<svg xmlns="http://www.w3.org/2000/svg" viewBox="0.0 0.0 24.0 24.0" height="200px" width="200px"><path fill="none" stroke="black" stroke-width=".3" stroke-opacity="1.0"  filling="0" d="M8.936410903930664 7.970953941345215 L8.936410903930664 7.970953941345215 C10.42958927154541 7.970953941345215 11.922768592834473 7.970953941345215 13.415947914123535 7.970953941345215 C14.909127235412598 7.970953941345215 16.402305603027344 7.970953941345215 17.895484924316406 7.970953941345215 L17.895484924316406 7.970953941345215 C17.717716217041016 8.842217445373535 17.539934158325195 9.713479042053223 17.362138748168945 10.584737777709961 L17.362138748168945 10.584737777709961 C15.469585418701172 10.75108814239502 13.712257385253906 10.683216094970703 11.846771240234375 11.05772590637207 L11.846771240234375 11.05772590637207 C11.854087829589844 11.1818265914917 11.861403465270996 11.305926322937012 11.868720054626465 11.43002700805664 L11.868720054626465 11.43002700805664 C12.986465454101562 11.505290031433105 14.745601654052734 11.62766170501709 15.91999340057373 12.17062759399414 C17.094385147094727 12.713592529296875 17.684032440185547 13.677152633666992 16.462800979614258 15.434791564941406 C16.20477294921875 15.806154251098633 15.827655792236328 16.096559524536133 15.433967590332031 16.319040298461914 C14.158275604248047 17.039955139160156 12.749940872192383 17.271440505981445 11.322419166564941 17.256439208984375 C9.894898414611816 17.241439819335938 8.448192596435547 16.979955673217773 7.095759868621826 16.714935302734375 L7.095759868621826 16.714935302734375 C7.234126567840576 16.07952880859375 7.372493267059326 15.444120407104492 7.510859966278076 14.80871295928955 L7.510859966278076 14.80871295928955 C9.523098945617676 14.895078659057617 10.446662902832031 15.071432113647461 12.236356735229492 14.060546875 L12.236356735229492 14.060546875 C10.672142028808594 13.361002922058105 9.541251182556152 13.401451110839844 7.8488664627075195 13.286864280700684 L7.8488664627075195 13.286864280700684 C8.211576461791992 11.514933586120605 8.574063301086426 9.742958068847656 8.936410903930664 7.970953941345215 L8.936410903930664 7.970953941345215"></path></svg>