<svg xmlns="http://www.w3.org/2000/svg" viewBox="0.0 0.0 24.0 24.0" height="200px" width="200px"><path fill="none" stroke="black" stroke-width=".3" stroke-opacity="1.0"  filling="0" d="M14.61334228515625 16.321128845214844 L14.61334228515625 16.321128845214844 C15.377692222595215 18.003131866455078 15.692660331726074 19.54926300048828 15.566949844360352 21.061782836914062 C15.441240310668945 22.57430076599121 14.87485122680664 24.053207397460938 13.87648868560791 25.600757598876953 L13.87648868560791 25.600757598876953 C14.440698623657227 23.9832763671875 14.810311317443848 22.504871368408203 14.946172714233398 21.010086059570312 C15.082033157348633 19.51529884338379 14.984142303466797 18.004131317138672 14.61334228515625 16.321128845214844 L14.61334228515625 16.321128845214844"></path>
<path fill="none" stroke="black" stroke-width=".3" stroke-opacity="1.0"  filling="0" d="M10.587057113647461 18.60860252380371 L10.587057113647461 18.60860252380371 C10.450096130371094 19.70455551147461 10.12063980102539 21.091758728027344 10.037787437438965 22.43791389465332 C9.954935073852539 23.784069061279297 10.11868667602539 25.08917236328125 10.968141555786133 26.02092742919922 C11.40704345703125 26.502351760864258 12.045241355895996 26.754053115844727 12.58379077911377 27.120615005493164 L12.58379077911377 27.120615005493164 C11.80689811706543 27.012359619140625 10.529491424560547 27.11261558532715 10.030680656433105 26.21198272705078 C9.49383544921875 25.24267578125 9.549156188964844 23.845218658447266 9.780574798583984 22.438392639160156 C10.011993408203125 21.031566619873047 10.419509887695312 19.615375518798828 10.587057113647461 18.60860252380371 L10.587057113647461 18.60860252380371"></path></svg>