<svg xmlns="http://www.w3.org/2000/svg" viewBox="0.0 0.0 24.0 24.0" height="200px" width="200px"><path fill="none" stroke="black" stroke-width=".3" stroke-opacity="1.0"  filling="0" d="M11.562829971313477 11.59359359741211 L11.562829971313477 11.59359359741211 C12.196077346801758 11.636470794677734 12.876832962036133 11.477787017822266 13.46257209777832 11.722225189208984 C15.005585670471191 12.36614990234375 15.234306335449219 13.613189697265625 14.914321899414062 14.88912582397461 C14.594338417053223 16.165061950683594 13.725650787353516 17.469894409179688 13.073847770690918 18.229400634765625 L13.073847770690918 18.229400634765625 C14.333571434020996 17.230554580688477 14.847496032714844 17.163541793823242 15.243973731994629 15.477601051330566 C15.613089561462402 13.908011436462402 15.014405250549316 11.515511512756348 13.094959259033203 11.206037521362305 C12.574880599975586 11.122184753417969 12.073539733886719 11.464407920837402 11.562829971313477 11.59359359741211 L11.562829971313477 11.59359359741211"></path>
<path fill="none" stroke="black" stroke-width=".3" stroke-opacity="1.0"  filling="0" d="M8.492541313171387 11.60595989227295 L8.492541313171387 11.60595989227295 C9.134283065795898 11.503480911254883 9.851070404052734 11.619682312011719 10.411924362182617 11.947975158691406 L10.411924362182617 11.947975158691406 C10.249935150146484 13.291877746582031 9.500548362731934 15.765987396240234 10.185535430908203 17.042341232299805 C10.488160133361816 17.606229782104492 11.180741310119629 17.847185134887695 11.678343772888184 18.24960708618164 L11.678343772888184 18.24960708618164 C11.143204689025879 18.12896728515625 10.608064651489258 18.00832748413086 10.072925567626953 17.88768768310547 L10.072925567626953 17.88768768310547 C10.072925567626953 19.2523250579834 10.072925567626953 20.61697006225586 10.072925567626953 21.98160743713379 L10.072925567626953 21.98160743713379 C9.871858596801758 21.98160743713379 9.670792579650879 21.98160743713379 9.469725608825684 21.98160743713379 L9.469725608825684 21.98160743713379 C9.469725608825684 20.29717254638672 9.469725608825684 18.612735748291016 9.469725608825684 16.92829704284668 C9.469725608825684 15.243860244750977 9.469725608825684 13.559423446655273 9.469725608825684 11.874987602233887 L9.469725608825684 11.874987602233887 C9.143997192382812 11.785311698913574 8.818269729614258 11.695635795593262 8.492541313171387 11.60595989227295 L8.492541313171387 11.60595989227295"></path></svg>