<svg xmlns="http://www.w3.org/2000/svg" viewBox="0.0 0.0 24.0 24.0" height="200px" width="200px"><path fill="none" stroke="black" stroke-width=".3" stroke-opacity="1.0"  filling="0" d="M13.602203369140625 14.543630599975586 L13.602203369140625 14.543630599975586 C12.387127876281738 16.168540954589844 12.020550727844238 17.737409591674805 11.91807746887207 19.373855590820312 C11.815604209899902 21.010303497314453 11.977235794067383 22.714324951171875 11.81857681274414 24.609542846679688 L11.81857681274414 24.609542846679688 C12.398637771606445 24.756162643432617 12.978699684143066 24.902782440185547 13.558760643005371 25.049402236938477 L13.558760643005371 25.049402236938477 C13.551684379577637 25.11736488342285 13.544609069824219 25.185325622558594 13.537532806396484 25.25328826904297 L13.537532806396484 25.25328826904297 C12.25909423828125 25.25328826904297 10.980655670166016 25.25328826904297 9.702217102050781 25.25328826904297 L9.702217102050781 25.25328826904297 C9.651863098144531 25.179073333740234 9.601508140563965 25.1048583984375 9.551154136657715 25.030643463134766 L9.551154136657715 25.030643463134766 C10.103734016418457 24.898176193237305 10.656314849853516 24.76570701599121 11.208894729614258 24.63323974609375 L11.208894729614258 24.63323974609375 C11.208894729614258 23.06435775756836 11.208894729614258 21.4954776763916 11.208894729614258 19.926597595214844 C11.208894729614258 18.357717514038086 11.208894729614258 16.788837432861328 11.208894729614258 15.219956398010254 L11.208894729614258 15.219956398010254 C10.640681266784668 15.093083381652832 10.072468757629395 14.96621036529541 9.504255294799805 14.839337348937988 L9.504255294799805 14.839337348937988 C11.235783576965332 14.44902515411377 11.908445358276367 15.16625690460205 13.602203369140625 14.543630599975586 L13.602203369140625 14.543630599975586"></path></svg>