<svg xmlns="http://www.w3.org/2000/svg" viewBox="0.0 0.0 24.0 24.0" height="200px" width="200px"><path fill="none" stroke="black" stroke-width=".3" stroke-opacity="1.0"  filling="0" d="M12.821656227111816 16.01036262512207 L12.821656227111816 16.01036262512207 C12.9429931640625 17.751232147216797 13.23629093170166 19.60341453552246 13.392115592956543 21.44428825378418 C13.547940254211426 23.285160064697266 13.566291809082031 25.114727020263672 13.137736320495605 26.81036376953125 L13.137736320495605 26.81036376953125 C13.014957427978516 26.756921768188477 12.892178535461426 26.703481674194336 12.769399642944336 26.650039672851562 L12.769399642944336 26.650039672851562 C12.6722412109375 24.459794998168945 12.576372146606445 22.269472122192383 12.464744567871094 20.079906463623047 C12.436840057373047 19.532569885253906 12.630975723266602 18.92432975769043 12.378231048583984 18.43804168701172 C12.260228157043457 18.211000442504883 11.86648178100586 18.437026977539062 11.610607147216797 18.436519622802734 L11.610607147216797 18.436519622802734 C11.837566375732422 17.646862030029297 12.078731536865234 16.80738067626953 12.305679321289062 16.016958236694336 L12.305679321289062 16.016958236694336 C12.47767162322998 16.014759063720703 12.649663925170898 16.012561798095703 12.821656227111816 16.01036262512207 L12.821656227111816 16.01036262512207"></path>
<path fill="none" stroke="black" stroke-width=".3" stroke-opacity="1.0"  filling="0" d="M8.913524627685547 16.26961898803711 L8.913524627685547 16.26961898803711 C8.913524627685547 18.691884994506836 8.913524627685547 21.114152908325195 8.913524627685547 23.536418914794922 L8.913524627685547 23.536418914794922 C8.837591171264648 23.53692626953125 8.76165771484375 23.537433624267578 8.685724258422852 23.537940979003906 L8.685724258422852 23.537940979003906 C8.685724258422852 21.116012573242188 8.685724258422852 18.6940860748291 8.685724258422852 16.27215576171875 L8.685724258422852 16.27215576171875 C8.76165771484375 16.271310806274414 8.837591171264648 16.270463943481445 8.913524627685547 16.26961898803711 L8.913524627685547 16.26961898803711"></path></svg>