<svg xmlns="http://www.w3.org/2000/svg" viewBox="0.0 0.0 24.0 24.0" height="200px" width="200px"><path fill="none" stroke="black" stroke-width=".3" stroke-opacity="1.0"  filling="0" d="M9.619245529174805 23.055831909179688 L9.619245529174805 23.055831909179688 C11.419245719909668 23.055831909179688 13.219245910644531 23.055831909179688 15.019246101379395 23.055831909179688 C16.819246292114258 23.055831909179688 18.619247436523438 23.055831909179688 20.419246673583984 23.055831909179688 L20.419246673583984 23.055831909179688 C19.760265350341797 24.339359283447266 19.101295471191406 25.622894287109375 18.44228744506836 26.906408309936523 C17.783279418945312 28.189922332763672 17.12423324584961 29.473419189453125 16.465091705322266 30.756864547729492 L16.465091705322266 30.756864547729492 C16.203704833984375 30.652502059936523 15.942317008972168 30.548141479492188 15.680929183959961 30.44377899169922 L15.680929183959961 30.44377899169922 C16.51371192932129 28.260623931884766 17.347293853759766 26.077775955200195 18.181262969970703 23.89507293701172 L18.181262969970703 23.89507293701172 C16.755226135253906 23.89507293701172 15.329190254211426 23.89507293701172 13.903153419494629 23.89507293701172 C12.477117538452148 23.89507293701172 11.051080703735352 23.89507293701172 9.625043869018555 23.89507293701172 L9.625043869018555 23.89507293701172 C9.6231107711792 23.615325927734375 9.62117862701416 23.33557891845703 9.619245529174805 23.055831909179688 L9.619245529174805 23.055831909179688"></path></svg>