<svg xmlns="http://www.w3.org/2000/svg" viewBox="0.0 0.0 24.0 24.0" height="200px" width="200px"><path fill="none" stroke="black" stroke-width=".3" stroke-opacity="1.0"  filling="0" d="M11.684961318969727 8.151518821716309 C13.313372611999512 8.118507385253906 14.909340858459473 8.323410034179688 15.428997993469238 10.303003311157227 L15.261091232299805 10.457249641418457 C12.502866744995117 8.181116104125977 11.37646770477295 8.197622299194336 8.104846954345703 10.40659236907959 C8.805501937866211 8.943242073059082 10.051427841186523 8.185100555419922 11.684961318969727 8.151518821716309"></path>
<path fill="none" stroke="black" stroke-width=".3" stroke-opacity="1.0"  filling="0" d="M15.429567337036133 10.303571701049805 C17.149045944213867 12.017927169799805 16.3778133392334 13.9810152053833 15.84449577331543 15.821728706359863 C15.479654312133789 17.08188247680664 14.73232650756836 18.230480194091797 13.872302055358887 19.328418731689453 C15.13075065612793 16.46148109436035 16.278207778930664 13.632678985595703 15.260522842407227 10.457247734069824 L15.429567337036133 10.303571701049805"></path>
<path fill="none" stroke="black" stroke-width=".3" stroke-opacity="1.0"  filling="0" d="M16.965770721435547 25.693511962890625 C16.94186782836914 26.188121795654297 16.9162540435791 26.71802520751953 16.88608741760254 27.34867286682129 C13.788634300231934 27.34867286682129 10.809568405151367 27.34867286682129 7.830503940582275 27.34867286682129 C7.800906658172607 27.206378936767578 7.770740509033203 27.0640869140625 7.741143226623535 26.921791076660156 C8.125905990600586 26.82560157775879 8.51237678527832 26.6406192779541 8.894862174987793 26.64858627319336 C10.954139709472656 26.69070816040039 13.014554977416992 26.860321044921875 15.06984806060791 26.803401947021484 C15.649269104003906 26.786897659301758 16.21161460876465 26.155113220214844 16.965770721435547 25.693511962890625"></path></svg>