<svg xmlns="http://www.w3.org/2000/svg" viewBox="0.0 0.0 24.0 24.0" height="200px" width="200px"><path fill="none" stroke="black" stroke-width=".3" stroke-opacity="1.0"  filling="0" d="M15.136222839355469 22.09373664855957 L15.136222839355469 22.09373664855957 C15.311941146850586 23.426773071289062 15.919133186340332 25.471431732177734 15.762787818908691 26.845972061157227 C15.539044380187988 28.81305694580078 14.51895523071289 30.995044708251953 13.95007038116455 32.893733978271484 L13.95007038116455 32.893733978271484 C13.8696928024292 31.330013275146484 13.789458274841309 29.766279220581055 13.70927906036377 28.202543258666992 L13.70927906036377 28.202543258666992 C11.579322814941406 27.53135108947754 9.530481338500977 27.933015823364258 7.412246227264404 27.236835479736328 L7.412246227264404 27.236835479736328 C7.539707660675049 26.939237594604492 7.667168617248535 26.641639709472656 7.79463005065918 26.34404182434082 L7.79463005065918 26.34404182434082 C9.876675605773926 26.607513427734375 11.958758354187012 26.870662689208984 14.040790557861328 27.134244918823242 L14.040790557861328 27.134244918823242 C14.406035423278809 25.4541015625 14.771084785461426 23.77390480041504 15.136222839355469 22.09373664855957 L15.136222839355469 22.09373664855957"></path></svg>