<svg xmlns="http://www.w3.org/2000/svg" viewBox="0.0 0.0 24.0 24.0" height="200px" width="200px"><path fill="none" stroke="black" stroke-width=".3" stroke-opacity="1.0"  filling="0" d="M11.532665252685547 15.796363830566406 L11.532665252685547 15.796363830566406 C11.646193504333496 15.82114028930664 11.759722709655762 15.845916748046875 11.873250961303711 15.87069320678711 L11.873250961303711 15.87069320678711 C11.918181419372559 16.307056427001953 11.963111877441406 16.74342155456543 12.008042335510254 17.179784774780273 L12.008042335510254 17.179784774780273 C12.717133522033691 17.179784774780273 13.426224708557129 17.179784774780273 14.135315895080566 17.179784774780273 L14.135315895080566 17.179784774780273 C15.193986892700195 18.377704620361328 15.732552528381348 20.244552612304688 15.67226791381836 22.055500030517578 C15.611983299255371 23.86644744873047 14.952848434448242 25.62149429321289 13.616117477416992 26.595809936523438 L13.616117477416992 26.595809936523438 C14.090472221374512 24.821889877319336 14.95383358001709 22.714778900146484 14.891925811767578 20.850231170654297 C14.842792510986328 19.370431900024414 13.883326530456543 16.752695083618164 11.83393669128418 17.775394439697266 C11.28170108795166 18.050975799560547 10.987788200378418 18.67409896850586 10.564714431762695 19.123451232910156 L10.564714431762695 19.123451232910156 C10.887364387512207 18.014421463012695 11.210015296936035 16.905393600463867 11.532665252685547 15.796363830566406 L11.532665252685547 15.796363830566406"></path></svg>