<svg xmlns="http://www.w3.org/2000/svg" viewBox="0.0 0.0 24.0 24.0" height="200px" width="200px"><path fill="none" stroke="black" stroke-width=".3" stroke-opacity="1.0"  filling="0" d="M9.506416320800781 9.981921195983887 L9.506416320800781 9.981921195983887 C11.564285278320312 9.981921195983887 13.62215518951416 9.981921195983887 15.680024147033691 9.981921195983887 L15.680024147033691 9.981921195983887 C15.680024147033691 10.528276443481445 15.680024147033691 11.07463264465332 15.680024147033691 11.620987892150879 L15.680024147033691 11.620987892150879 C15.628074645996094 11.627619743347168 15.576125144958496 11.634251594543457 15.524175643920898 11.640883445739746 L15.524175643920898 11.640883445739746 C15.436524391174316 11.214674949645996 15.348873138427734 10.788467407226562 15.261221885681152 10.362258911132812 L15.261221885681152 10.362258911132812 C13.944354057312012 10.362258911132812 12.627485275268555 10.362258911132812 11.310617446899414 10.362258911132812 L11.310617446899414 10.362258911132812 C11.230202674865723 11.933126449584961 11.149866104125977 13.503992080688477 11.069548606872559 15.074865341186523 L11.069548606872559 15.074865341186523 C12.067313194274902 15.074865341186523 13.065078735351562 15.074865341186523 14.062843322753906 15.074865341186523 L14.062843322753906 15.074865341186523 C14.19813346862793 14.795994758605957 14.333423614501953 14.517125129699707 14.468713760375977 14.23825454711914 L14.468713760375977 14.23825454711914 C14.54918098449707 14.254060745239258 14.629647254943848 14.269866943359375 14.710114479064941 14.285673141479492 L14.710114479064941 14.285673141479492 C14.640924453735352 14.996143341064453 14.566373825073242 15.762434005737305 14.497562408447266 16.4702091217041 L14.497562408447266 16.4702091217041 C13.472308158874512 15.877242088317871 12.287853240966797 15.49236011505127 11.106355667114258 15.409774780273438 L11.106355667114258 15.409774780273438 C10.980245590209961 17.082748413085938 10.854484558105469 18.75575065612793 10.729001998901367 20.428773880004883 L10.729001998901367 20.428773880004883 C10.942012786865234 20.428773880004883 14.394792556762695 20.428773880004883 14.665679931640625 20.428773880004883 L14.665679931640625 20.428773880004883 C14.79433822631836 20.004444122314453 14.922996520996094 19.580116271972656 15.051654815673828 19.155786514282227 L15.051654815673828 19.155786514282227 C15.14372730255127 19.173803329467773 15.235799789428711 19.191818237304688 15.327872276306152 19.209835052490234 L15.327872276306152 19.209835052490234 C15.278796195983887 19.73397445678711 15.229720115661621 20.258113861083984 15.180644035339355 20.78225326538086 L15.180644035339355 20.78225326538086 C13.209431648254395 20.78225326538086 11.238218307495117 20.78225326538086 9.267005920410156 20.78225326538086 L9.267005920410156 20.78225326538086 C9.631869316101074 20.62485694885254 9.996732711791992 20.467458724975586 10.36159610748291 20.310062408447266 L10.36159610748291 20.310062408447266 C10.446236610412598 18.669944763183594 10.530876159667969 17.029827117919922 10.6155366897583 15.38970947265625 C10.700196266174316 13.749592781066895 10.784875869750977 12.109476089477539 10.869597434997559 10.46936321258545 L10.869597434997559 10.46936321258545 C10.415204048156738 10.306882858276367 9.960809707641602 10.144401550292969 9.506416320800781 9.981921195983887 L9.506416320800781 9.981921195983887"></path></svg>