<svg xmlns="http://www.w3.org/2000/svg" viewBox="0.0 0.0 24.0 24.0" height="200px" width="200px"><path fill="none" stroke="black" stroke-width=".3" stroke-opacity="1.0"  filling="0" d="M9.85504150390625 9.969181060791016 L9.85504150390625 9.969181060791016 C10.618289947509766 9.969181060791016 11.381537437438965 9.969181060791016 12.14478588104248 9.969181060791016 L12.14478588104248 9.969181060791016 C11.225027084350586 11.285867691040039 10.923078536987305 13.092960357666016 10.831415176391602 14.967389106750488 C10.739750862121582 16.84181785583496 10.85837173461914 18.783580780029297 10.779752731323242 20.369609832763672 L10.779752731323242 20.369609832763672 C12.191832542419434 20.369609832763672 13.60391616821289 20.369609832763672 15.015995025634766 20.369609832763672 L15.015995025634766 20.369609832763672 C15.095842361450195 19.930280685424805 15.175690650939941 19.490951538085938 15.255537986755371 19.05162239074707 L15.255537986755371 19.05162239074707 C15.319924354553223 19.06355094909668 15.38431167602539 19.075477600097656 15.448698043823242 19.087406158447266 L15.448698043823242 19.087406158447266 C15.448698043823242 19.647886276245117 15.448698043823242 20.2083683013916 15.448698043823242 20.768848419189453 L15.448698043823242 20.768848419189453 C13.3185396194458 20.769119262695312 11.188377380371094 20.76917266845703 9.058219909667969 20.769180297851562 L9.058219909667969 20.769180297851562 C9.49423599243164 20.619535446166992 9.930251121520996 20.46988868713379 10.366267204284668 20.32024383544922 L10.366267204284668 20.32024383544922 C10.452534675598145 18.67414093017578 10.538861274719238 17.028038024902344 10.625189781188965 15.381937026977539 C10.711517333984375 13.735835075378418 10.797845840454102 12.089733123779297 10.88411808013916 10.443629264831543 L10.88411808013916 10.443629264831543 C10.53071117401123 10.330429077148438 10.177305221557617 10.217227935791016 9.823898315429688 10.10402774810791 L9.823898315429688 10.10402774810791 C9.83427906036377 10.05907917022705 9.844660758972168 10.014129638671875 9.85504150390625 9.969181060791016 L9.85504150390625 9.969181060791016"></path></svg>