<svg xmlns="http://www.w3.org/2000/svg" viewBox="0.0 0.0 24.0 24.0" height="200px" width="200px"><path fill="none" stroke="black" stroke-width=".3" stroke-opacity="1.0"  filling="0" d="M12.731439590454102 9.092732429504395 L12.731439590454102 9.092732429504395 C13.819770812988281 9.64077091217041 14.806095123291016 10.629968643188477 15.210243225097656 11.779522895812988 C15.982453346252441 13.975990295410156 13.987997055053711 17.240041732788086 11.496241569519043 16.817106246948242 C9.945707321166992 16.55392837524414 9.205998420715332 15.274324417114258 9.079309463500977 13.840120315551758 C8.952619552612305 12.405916213989258 9.438949584960938 10.817112922668457 10.340495109558105 9.93553638458252 C11.226469993591309 9.069185256958008 11.59735107421875 9.216165542602539 12.731439590454102 9.092732429504395 L12.731439590454102 9.092732429504395"></path>
<path fill="none" stroke="black" stroke-width=".3" stroke-opacity="1.0"  filling="0" d="M10.256720542907715 9.5889253616333 L10.256720542907715 9.5889253616333 C11.431620597839355 8.968728065490723 11.80884075164795 8.470329284667969 13.2000732421875 8.862738609313965 C14.502470970153809 9.230091094970703 15.248726844787598 10.34378719329834 15.512491226196289 11.615219116210938 C15.776256561279297 12.886651039123535 15.557530403137207 14.315818786621094 14.929964065551758 15.314115524291992 C14.005783081054688 16.78424835205078 13.709508895874023 16.61626625061035 12.176165580749512 17.19753646850586 L12.176165580749512 17.19753646850586 C12.44701862335205 17.76327896118164 12.482503890991211 18.524402618408203 12.988723754882812 18.89476203918457 C13.498503684997559 19.267724990844727 14.23917293548584 19.07444953918457 14.864397048950195 19.16429328918457 L14.864397048950195 19.16429328918457 C12.821920394897461 19.799436569213867 12.63586139678955 18.974056243896484 11.588227272033691 17.185527801513672 L11.588227272033691 17.185527801513672 C9.803594589233398 16.520700454711914 8.961648941040039 15.303275108337402 8.820396423339844 13.91119384765625 C8.679143905639648 12.519113540649414 9.238584518432617 10.952376365661621 10.256720542907715 9.5889253616333 L10.256720542907715 9.5889253616333"></path></svg>