<svg xmlns="http://www.w3.org/2000/svg" viewBox="0.0 0.0 24.0 24.0" height="200px" width="200px"><path fill="none" stroke="black" stroke-width=".3" stroke-opacity="1.0"  filling="0" d="M7.639044284820557 8.406265258789062 C11.178525924682617 8.406265258789062 14.582369804382324 8.406265258789062 18.539958953857422 8.406265258789062 C17.443086624145508 10.081061363220215 16.55733299255371 11.43446159362793 15.656245231628418 12.777836799621582 C15.653295516967773 12.781965255737305 15.426254272460938 12.63453483581543 15.226930618286133 12.509515762329102 C15.802495002746582 11.504637718200684 16.37982749938965 10.496811866760254 17.129947662353516 9.187051773071289 C14.129467964172363 9.187051773071289 11.377848625183105 9.187051773071289 8.358499526977539 9.187051773071289 C8.226402282714844 9.683002471923828 8.043590545654297 10.370022773742676 7.860777854919434 11.056453704833984 C7.7870635986328125 11.044658660888672 7.712759494781494 11.032864570617676 7.639044284820557 11.02107048034668 C7.639044284820557 10.185441970825195 7.639044284820557 9.349813461303711 7.639044284820557 8.406265258789062"></path>
<path fill="none" stroke="black" stroke-width=".3" stroke-opacity="1.0"  filling="0" d="M17.195995330810547 24.616403579711914 C17.31452751159668 24.633502960205078 17.433061599731445 24.650604248046875 17.552183151245117 24.667118072509766 C17.503826141357422 25.5988712310791 17.45547103881836 26.530620574951172 17.400035858154297 27.606266021728516 C13.612285614013672 27.606266021728516 10.01855182647705 27.606266021728516 6.170059680938721 27.606266021728516 C6.520351409912109 26.7989444732666 6.812851428985596 26.124897003173828 7.337109088897705 24.917747497558594 C7.498101711273193 25.98336410522461 7.572405815124512 26.474008560180664 7.656735420227051 27.028934478759766 C10.589986801147461 27.028934478759766 13.517341613769531 27.028934478759766 16.628686904907227 27.028934478759766 C16.825653076171875 26.19035530090332 17.01082420349121 25.40308380126953 17.195995330810547 24.616403579711914"></path></svg>