<svg xmlns="http://www.w3.org/2000/svg" viewBox="0.0 0.0 24.0 24.0" height="200px" width="200px"><path fill="none" stroke="black" stroke-width=".3" stroke-opacity="1.0"  filling="0" d="M3.9290828704833984 8.268013954162598 C7.6666646003723145 8.268013954162598 11.203886032104492 8.257889747619629 14.741106986999512 8.271210670471191 C17.141704559326172 8.280269622802734 19.108013153076172 9.103028297424316 20.08743667602539 11.456201553344727 C20.930444717407227 13.481657028198242 20.328296661376953 15.137298583984375 17.93941879272461 17.45050621032715 C18.331615447998047 17.67271614074707 18.66732406616211 17.857624053955078 18.99770736694336 18.051589965820312 C20.815876007080078 19.117870330810547 21.555505752563477 20.78203773498535 21.240577697753906 22.776588439941406 C20.89634132385254 24.954444885253906 19.666465759277344 26.568523406982422 17.367645263671875 26.959651947021484 C15.717864990234375 27.240474700927734 14.030786514282227 27.380088806152344 12.35649299621582 27.425384521484375 C9.619649887084961 27.499452590942383 6.8790764808654785 27.445632934570312 3.9296159744262695 27.445632934570312 C3.9290828704833984 21.058067321777344 3.9290828704833984 14.82343578338623 3.9290828704833984 8.268013954162598"></path>
<path fill="none" stroke="black" stroke-width=".3" stroke-opacity="1.0"  filling="0" d="M9.639898300170898 12.639715194702148 C10.94171142578125 12.639715194702148 12.156665802001953 12.497438430786133 13.308206558227539 12.707390785217285 C13.786727905273438 12.794781684875488 14.452287673950195 13.63885498046875 14.442696571350098 14.126968383789062 C14.433104515075684 14.631600379943848 13.773405075073242 15.451693534851074 13.280497550964355 15.55134105682373 C12.201959609985352 15.769821166992188 11.048818588256836 15.619016647338867 9.775781631469727 15.619016647338867 C9.731019973754883 14.634798049926758 9.692120552062988 13.782198905944824 9.639898300170898 12.639715194702148"></path>
<path fill="none" stroke="black" stroke-width=".3" stroke-opacity="1.0"  filling="0" d="M9.712369918823242 20.07171630859375 C11.120223999023438 20.07171630859375 12.508894920349121 19.945425033569336 13.853870391845703 20.132997512817383 C14.40219783782959 20.209728240966797 15.334729194641113 21.099632263183594 15.254796981811523 21.385250091552734 C15.076817512512207 22.022037506103516 14.436834335327148 22.88636016845703 13.867724418640137 22.986007690429688 C12.529144287109375 23.220470428466797 11.121822357177734 23.061141967773438 9.712369918823242 23.061141967773438 C9.712369918823242 21.991662979125977 9.712369918823242 21.198745727539062 9.712369918823242 20.07171630859375"></path></svg>