<svg xmlns="http://www.w3.org/2000/svg" viewBox="0.0 0.0 24.0 24.0" height="200px" width="200px"><path fill="none" stroke="black" stroke-width=".3" stroke-opacity="1.0"  filling="0" d="M7.944401741027832 10.537993431091309 L7.944401741027832 10.537993431091309 C9.010793685913086 10.537993431091309 10.077186584472656 10.537993431091309 11.14357852935791 10.537993431091309 L11.14357852935791 10.537993431091309 C11.14357852935791 11.586878776550293 11.14357852935791 12.635765075683594 11.14357852935791 13.684650421142578 L11.14357852935791 13.684650421142578 C11.662758827209473 13.460073471069336 12.151182174682617 13.143404006958008 12.701118469238281 13.010918617248535 C15.304861068725586 12.383649826049805 16.345699310302734 13.656678199768066 16.73143768310547 15.487671852111816 C17.11717414855957 17.31866455078125 16.847808837890625 19.707622528076172 16.831146240234375 21.312213897705078 L16.831146240234375 21.312213897705078 C15.695587158203125 21.312213897705078 14.560029029846191 21.312213897705078 13.424469947814941 21.312213897705078 L13.424469947814941 21.312213897705078 C13.424469947814941 19.520427703857422 13.424469947814941 17.728649139404297 13.424469947814941 15.936863899230957 L13.424469947814941 15.936863899230957 C12.851266860961914 15.908241271972656 12.212237358093262 15.582762718200684 11.704859733581543 15.850996017456055 C11.301217079162598 16.064388275146484 11.279438972473145 16.672086715698242 11.18772029876709 17.11935806274414 C10.925336837768555 18.398880004882812 11.168261528015137 20.035306930541992 11.17612075805664 21.337993621826172 L11.17612075805664 21.337993621826172 C10.983482360839844 21.337993621826172 8.17123031616211 21.337993621826172 7.944724082946777 21.337993621826172 L7.944724082946777 21.337993621826172 C7.944586753845215 19.537994384765625 7.944507122039795 17.737995147705078 7.944461345672607 15.937994003295898 C7.944415092468262 14.137993812561035 7.944403171539307 12.337993621826172 7.944401741027832 10.537993431091309 L7.944401741027832 10.537993431091309"></path></svg>