<svg xmlns="http://www.w3.org/2000/svg" viewBox="0.0 0.0 24.0 24.0" height="200px" width="200px"><path fill="none" stroke="black" stroke-width=".3" stroke-opacity="1.0"  filling="0" d="M10.074666976928711 13.437664031982422 L10.074666976928711 13.437664031982422 C12.340588569641113 12.821452140808105 13.863945960998535 13.013992309570312 16.03876304626465 13.868904113769531 L16.03876304626465 13.868904113769531 C16.03876304626465 13.905037879943848 16.03876304626465 16.323959350585938 16.03876304626465 16.326059341430664 L16.03876304626465 16.326059341430664 C14.840564727783203 15.953322410583496 13.525667190551758 15.875561714172363 12.283928871154785 16.056385040283203 L12.283928871154785 16.056385040283203 C13.415079116821289 17.445606231689453 15.422891616821289 17.615680694580078 16.29442596435547 19.26093292236328 C17.402454376220703 21.352628707885742 15.773001670837402 23.128660202026367 13.8655366897583 23.632186889648438 C11.885480880737305 24.154876708984375 10.024469375610352 23.488975524902344 8.236849784851074 22.753864288330078 L8.236849784851074 22.753864288330078 C8.236849784851074 22.739639282226562 8.236849784851074 20.255081176757812 8.236849784851074 20.183853149414062 L8.236849784851074 20.183853149414062 C10.25680160522461 20.928359985351562 10.702234268188477 21.346508026123047 12.750412940979004 20.435707092285156 L12.750412940979004 20.435707092285156 C11.835704803466797 19.885385513305664 10.313849449157715 19.155380249023438 9.262129783630371 18.20124053955078 C8.210410118103027 17.247100830078125 7.628824234008789 16.068828582763672 8.594654083251953 14.621971130371094 C8.945453643798828 14.096457481384277 9.581329345703125 13.832432746887207 10.074666976928711 13.437664031982422 L10.074666976928711 13.437664031982422"></path></svg>