<svg xmlns="http://www.w3.org/2000/svg" viewBox="0.0 0.0 24.0 24.0" height="200px" width="200px"><path fill="none" stroke="black" stroke-width=".3" stroke-opacity="1.0"  filling="0" d="M11.86477279663086 12.870877265930176 C12.029757499694824 13.57451057434082 12.178922653198242 14.209589004516602 12.368767738342285 15.017183303833008 C13.373743057250977 15.141488075256348 14.438985824584961 15.273324966430664 15.504229545593262 15.405160903930664 C15.504229545593262 15.533984184265137 15.5034761428833 15.662054061889648 15.5034761428833 15.790878295898438 C14.427685737609863 15.926481246948242 13.35264778137207 16.061330795288086 11.776629447937012 16.259464263916016 C11.644039154052734 20.59200668334961 11.418787002563477 24.938112258911133 11.414266586303711 29.284971237182617 C11.410499572753906 31.7032413482666 12.938302993774414 32.14546203613281 15.132072448730469 31.30848503112793 C11.642533302307129 32.96059036254883 10.215679168701172 31.924728393554688 10.344503402709961 28.212949752807617 C10.45750617980957 24.961467742919922 10.73926067352295 21.71451187133789 10.813089370727539 18.463029861450195 C10.834183692932129 17.531883239746094 10.38819694519043 16.590190887451172 10.09288215637207 15.395368576049805 C10.435659408569336 14.907194137573242 11.095598220825195 13.966254234313965 11.86477279663086 12.870877265930176"></path></svg>