<svg xmlns="http://www.w3.org/2000/svg" viewBox="0.0 0.0 24.0 24.0" height="200px" width="200px"><path fill="none" stroke="black" stroke-width=".3" stroke-opacity="1.0"  filling="0" d="M2.5334701538085938 15.834451675415039 C3.391190528869629 15.834451675415039 4.6345672607421875 15.834451675415039 5.693195343017578 15.834451675415039 C5.395346641540527 16.627544403076172 4.75890588760376 17.490182876586914 4.829855442047119 18.290298461914062 C5.046217441558838 20.71172523498535 5.537245750427246 23.108562469482422 5.921498775482178 25.515235900878906 L5.988935947418213 25.46184730529785 C5.301214694976807 23.185832977294922 4.661964416503906 20.892961502075195 3.903996467590332 18.640832901000977 C3.578047752380371 17.672122955322266 3.006937026977539 16.785600662231445 2.5334701538085938 15.834451675415039"></path>
<path fill="none" stroke="black" stroke-width=".3" stroke-opacity="1.0"  filling="0" d="M18.0384578704834 15.842880249023438 C19.659765243530273 15.842880249023438 20.874343872070312 15.842880249023438 21.73417091369629 15.842880249023438 C20.02364730834961 19.673465728759766 18.240066528320312 23.66773223876953 16.455785751342773 27.662696838378906 C16.4550838470459 27.662696838378906 16.52743911743164 27.7224063873291 16.52743911743164 27.7224063873291 C17.224292755126953 25.306602478027344 17.89866828918457 22.88376808166504 18.628536224365234 20.477798461914062 C18.99241828918457 19.277973175048828 19.459564208984375 18.109058380126953 19.885963439941406 16.908533096313477 C19.326793670654297 16.586095809936523 18.866674423217773 16.3205623626709 18.0384578704834 15.842880249023438"></path>
<path fill="none" stroke="black" stroke-width=".3" stroke-opacity="1.0"  filling="0" d="M11.902355194091797 16.177959442138672 C12.13627815246582 16.179365158081055 12.370203018188477 16.180068969726562 12.604827880859375 16.181472778320312 C13.47027587890625 20.052101135253906 14.335721969604492 23.922725677490234 15.211706161499023 27.84041976928711 C15.658479690551758 27.80038070678711 16.092609405517578 27.76104164123535 16.52743911743164 27.721702575683594 C16.52743911743164 27.7224063873291 16.4550838470459 27.662696838378906 16.4550838470459 27.662696838378906 C16.179012298583984 28.707977294921875 15.902236938476562 29.753259658813477 15.626165390014648 30.79853630065918 C15.43017578125 30.78519058227539 15.234889030456543 30.772546768188477 15.038897514343262 30.759199142456055 C14.124979972839355 26.839397430419922 13.21106243133545 22.919597625732422 12.1559476852417 18.395668029785156 C11.42326831817627 19.87718391418457 10.97087574005127 20.791101455688477 10.518482208251953 21.705020904541016 C10.33864974975586 21.630558013916016 10.158113479614258 21.556095123291016 9.978281021118164 21.482337951660156 C10.619638442993164 19.71421241760254 11.26099681854248 17.946086883544922 11.902355194091797 16.177959442138672"></path>
<path fill="none" stroke="black" stroke-width=".3" stroke-opacity="1.0"  filling="0" d="M9.058744430541992 24.403221130371094 C9.228742599487305 24.471359252929688 9.399443626403809 24.538799285888672 9.569442749023438 24.606937408447266 C8.79742431640625 26.708740234375 8.024703979492188 28.809839248657227 7.252685546875 30.911640167236328 C7.013142108917236 30.887754440307617 6.7735981941223145 30.86456871032715 6.534055233001709 30.840686798095703 C6.352817058563232 29.0479736328125 6.170876502990723 27.255264282226562 5.988935947418213 25.46184730529785 L5.920795917510986 25.515235900878906 C6.297321796417236 26.290767669677734 6.674549579620361 27.066997528076172 7.175413608551025 28.098230361938477 C7.854705333709717 26.765640258789062 8.456725120544434 25.584781646728516 9.058744430541992 24.403221130371094"></path></svg>