<svg xmlns="http://www.w3.org/2000/svg" viewBox="0.0 0.0 24.0 24.0" height="200px" width="200px"><path fill="none" stroke="black" stroke-width=".3" stroke-opacity="1.0"  filling="0" d="M9.343879699707031 14.58372974395752 L9.343879699707031 14.58372974395752 C9.994564056396484 14.58372974395752 10.645248413085938 14.58372974395752 11.29593276977539 14.58372974395752 L11.29593276977539 14.58372974395752 C11.641796112060547 16.075687408447266 12.146944999694824 17.499420166015625 12.705124855041504 18.914913177490234 C13.263304710388184 20.330406188964844 13.874515533447266 21.737659454345703 14.432503700256348 23.196657180786133 L14.432503700256348 23.196657180786133 C13.81235122680664 22.47216796875 12.672418594360352 21.22836685180664 12.22807788848877 20.362043380737305 C11.145761489868164 18.251867294311523 10.920733451843262 16.446659088134766 9.343879699707031 14.58372974395752 L9.343879699707031 14.58372974395752"></path>
<path fill="none" stroke="black" stroke-width=".3" stroke-opacity="1.0"  filling="0" d="M11.667303085327148 21.98635482788086 L11.667303085327148 21.98635482788086 C11.309223175048828 22.85086441040039 10.951225280761719 23.71540641784668 10.593352317810059 24.580001831054688 L10.593352317810059 24.580001831054688 C10.985382080078125 24.847911834716797 11.377412796020508 25.115819931030273 11.769442558288574 25.383729934692383 L11.769442558288574 25.383729934692383 C10.74590015411377 25.383729934692383 9.722357749938965 25.383729934692383 8.69881534576416 25.383729934692383 L8.69881534576416 25.383729934692383 C9.688451766967773 24.251394271850586 10.677948951721191 23.118938446044922 11.667303085327148 21.98635482788086 L11.667303085327148 21.98635482788086"></path></svg>