<svg xmlns="http://www.w3.org/2000/svg" viewBox="0.0 0.0 24.0 24.0" height="200px" width="200px"><path fill="none" stroke="black" stroke-width=".3" stroke-opacity="1.0"  filling="0" d="M10.005987167358398 14.829243659973145 L10.005987167358398 14.829243659973145 C11.965450286865234 14.829243659973145 13.924915313720703 14.829243659973145 15.884378433227539 14.829243659973145 L15.884378433227539 14.829243659973145 C15.603782653808594 15.417503356933594 15.323186874389648 16.00576400756836 15.042591094970703 16.594022750854492 L15.042591094970703 16.594022750854492 C14.938018798828125 16.549806594848633 14.833447456359863 16.505590438842773 14.728875160217285 16.461374282836914 L14.728875160217285 16.461374282836914 C14.728875160217285 16.04022789001465 14.728875160217285 15.6190824508667 14.728875160217285 15.197936058044434 L14.728875160217285 15.197936058044434 C12.595361709594727 15.185415267944336 11.765028953552246 14.998018264770508 10.005987167358398 16.2944278717041 L10.005987167358398 16.2944278717041 C10.005987167358398 15.80603313446045 10.005987167358398 15.317638397216797 10.005987167358398 14.829243659973145 L10.005987167358398 14.829243659973145"></path>
<path fill="none" stroke="black" stroke-width=".3" stroke-opacity="1.0"  filling="0" d="M10.020613670349121 23.512920379638672 L10.020613670349121 23.512920379638672 C10.11139965057373 23.536121368408203 10.20218563079834 23.559324264526367 10.29297161102295 23.5825252532959 L10.29297161102295 23.5825252532959 C10.229253768920898 24.08806800842285 10.165534973144531 24.593610763549805 10.10181713104248 25.099153518676758 L10.10181713104248 25.099153518676758 C11.670900344848633 25.099498748779297 13.239985466003418 25.099639892578125 14.80906867980957 25.099658966064453 L14.80906867980957 25.099658966064453 C14.93549633026123 24.577470779418945 15.061924934387207 24.05528450012207 15.188352584838867 23.533096313476562 L15.188352584838867 23.533096313476562 C15.262158393859863 23.541669845581055 15.33596420288086 23.55024528503418 15.409770011901855 23.558818817138672 L15.409770011901855 23.558818817138672 C15.409770011901855 24.248960494995117 15.409770011901855 24.939102172851562 15.409770011901855 25.629243850708008 L15.409770011901855 25.629243850708008 C13.234099388122559 25.629243850708008 11.058433532714844 25.629243850708008 8.882762908935547 25.629243850708008 L8.882762908935547 25.629243850708008 C9.262064933776855 24.923812866210938 9.641352653503418 24.218374252319336 10.020613670349121 23.512920379638672 L10.020613670349121 23.512920379638672"></path></svg>