<svg xmlns="http://www.w3.org/2000/svg" viewBox="0.0 0.0 24.0 24.0" height="200px" width="200px"><path fill="none" stroke="black" stroke-width=".3" stroke-opacity="1.0"  filling="0" d="M13.884836196899414 10.479925155639648 L13.884836196899414 10.479925155639648 C15.720399856567383 11.588642120361328 16.518037796020508 12.447118759155273 16.892995834350586 14.643709182739258 C17.222789764404297 16.57572364807129 16.567472457885742 18.490478515625 15.334559440612793 19.703094482421875 C14.101646423339844 20.915712356567383 12.291136741638184 21.426193237304688 10.310548782348633 20.54966163635254 C8.59322738647461 19.789642333984375 7.671949863433838 18.07071876525879 7.505306720733643 16.2423152923584 C7.338663578033447 14.413911819458008 7.926654815673828 12.476028442382812 9.22787094116211 11.278084754943848 C10.66264820098877 9.957180976867676 12.15229606628418 10.147680282592773 13.884836196899414 10.479925155639648 L13.884836196899414 10.479925155639648"></path>
<path fill="none" stroke="black" stroke-width=".3" stroke-opacity="1.0"  filling="0" d="M12.20466423034668 12.908876419067383 L12.20466423034668 12.908876419067383 C12.56544017791748 13.190561294555664 13.072461128234863 13.349602699279785 13.286993026733398 13.753931999206543 C13.734519958496094 14.597391128540039 14.083688735961914 18.208293914794922 12.261187553405762 18.26927947998047 C10.550046920776367 18.3265380859375 10.808612823486328 14.581729888916016 11.15494441986084 13.7980318069458 C11.340299606323242 13.37860107421875 11.854757308959961 13.20526123046875 12.20466423034668 12.908876419067383 L12.20466423034668 12.908876419067383"></path></svg>