<svg xmlns="http://www.w3.org/2000/svg" viewBox="0.0 0.0 24.0 24.0" height="200px" width="200px"><path fill="none" stroke="black" stroke-width=".3" stroke-opacity="1.0"  filling="0" d="M5.44420862197876 8.5690336227417 C10.167537689208984 8.5690336227417 14.919737815856934 8.5690336227417 19.864227294921875 8.5690336227417 C19.864227294921875 9.833890914916992 19.864227294921875 11.130885124206543 19.864227294921875 12.701879501342773 C17.10845184326172 12.701879501342773 14.34450626373291 12.701879501342773 11.432939529418945 12.701879501342773 C11.432939529418945 13.898645401000977 11.432939529418945 14.829583168029785 11.432939529418945 15.999656677246094 C13.862421989440918 15.999114990234375 16.18350601196289 15.999114990234375 18.76333236694336 15.999114990234375 C18.76333236694336 17.5957088470459 18.76333236694336 18.757612228393555 18.76333236694336 20.256702423095703 C16.35019302368164 20.256702423095703 13.968644142150879 20.256702423095703 11.380644798278809 20.256702423095703 C11.380644798278809 22.900806427001953 11.380644798278809 25.2186222076416 11.380644798278809 27.76903533935547 C9.33519458770752 27.76903533935547 7.4983744621276855 27.76903533935547 5.44420862197876 27.76903533935547 C5.44420862197876 21.480159759521484 5.44420862197876 15.113931655883789 5.44420862197876 8.5690336227417"></path></svg>