<svg xmlns="http://www.w3.org/2000/svg" viewBox="0.0 0.0 24.0 24.0" height="200px" width="200px"><path fill="none" stroke="black" stroke-width=".3" stroke-opacity="1.0"  filling="0" d="M10.122245788574219 7.355694770812988 L10.122245788574219 7.355694770812988 C11.387724876403809 7.355694770812988 12.653203964233398 7.355694770812988 13.918684005737305 7.355694770812988 C15.184164047241211 7.355694770812988 16.449642181396484 7.355694770812988 17.71512222290039 7.355694770812988 L17.71512222290039 7.355694770812988 C17.65616798400879 7.537717342376709 17.07682991027832 9.325886726379395 17.007678985595703 9.539253234863281 L17.007678985595703 9.539253234863281 C15.773615837097168 7.73187780380249 15.259291648864746 7.8902058601379395 13.141693115234375 7.941016674041748 L13.141693115234375 7.941016674041748 C12.699421882629395 9.284570693969727 12.257206916809082 10.628145217895508 11.814986228942871 11.971715927124023 L11.814986228942871 11.971715927124023 C13.91079044342041 12.240250587463379 14.260313034057617 12.123587608337402 15.90524959564209 10.791755676269531 L15.90524959564209 10.791755676269531 C15.511045455932617 12.095281600952148 15.116872787475586 13.39881706237793 14.722626686096191 14.702329635620117 L14.722626686096191 14.702329635620117 C13.797988891601562 12.855875015258789 13.498416900634766 12.849409103393555 11.499531745910645 13.008257865905762 L11.499531745910645 13.008257865905762 C11.078479766845703 14.40495491027832 10.657458305358887 15.801661491394043 10.236381530761719 17.198348999023438 L10.236381530761719 17.198348999023438 C10.750382423400879 17.517353057861328 11.264382362365723 17.83635711669922 11.778383255004883 18.15536117553711 L11.778383255004883 18.15536117553711 C10.193567276000977 18.15536117553711 8.608752250671387 18.15536117553711 7.023934841156006 18.15536117553711 L7.023934841156006 18.15536117553711 C8.085504531860352 17.32666778564453 8.696986198425293 16.210939407348633 9.138429641723633 14.98851490020752 C9.579873085021973 13.766091346740723 9.851278305053711 12.436973571777344 10.232696533203125 11.181501388549805 C10.267054557800293 11.068408966064453 11.035015106201172 8.770432472229004 10.922113418579102 8.36149787902832 C10.808114051818848 7.948586463928223 10.38886833190918 7.690962314605713 10.122245788574219 7.355694770812988 L10.122245788574219 7.355694770812988"></path></svg>