<svg xmlns="http://www.w3.org/2000/svg" viewBox="0.0 0.0 24.0 24.0" height="200px" width="200px"><path fill="none" stroke="black" stroke-width=".3" stroke-opacity="1.0"  filling="0" d="M7.313244342803955 10.456923484802246 L7.313244342803955 10.456923484802246 C8.158828735351562 10.427648544311523 9.552289009094238 10.261817932128906 10.449049949645996 10.577675819396973 C12.117831230163574 11.16545581817627 13.556072235107422 12.940074920654297 14.908403396606445 14.05953598022461 L14.908403396606445 14.05953598022461 C14.908403396606445 13.453502655029297 14.908403396606445 12.847468376159668 14.908403396606445 12.241435050964355 L14.908403396606445 12.241435050964355 C14.579026222229004 12.106791496276855 14.249650001525879 11.972148895263672 13.920272827148438 11.837505340576172 L13.920272827148438 11.837505340576172 C13.920272827148438 11.397186279296875 13.920272827148438 10.956866264343262 13.920272827148438 10.516547203063965 L13.920272827148438 10.516547203063965 C15.143070220947266 10.516547203063965 16.365869522094727 10.516547203063965 17.588666915893555 10.516547203063965 L17.588666915893555 10.516547203063965 C17.611806869506836 10.9430570602417 17.63494873046875 11.369566917419434 17.65808868408203 11.796076774597168 L17.65808868408203 11.796076774597168 C17.304079055786133 11.949381828308105 16.950069427490234 12.102685928344727 16.596059799194336 12.255990982055664 L16.596059799194336 12.255990982055664 C16.596059799194336 14.688802719116211 16.596059799194336 17.121620178222656 16.596059799194336 19.55443000793457 L16.596059799194336 19.55443000793457 C15.029565811157227 19.601890563964844 13.844204902648926 19.017351150512695 12.778114318847656 18.170480728149414 C11.712024688720703 17.3236083984375 10.765205383300781 16.214405059814453 9.675796508789062 15.212539672851562 L9.675796508789062 15.212539672851562 C9.675796508789062 16.113985061645508 9.675796508789062 17.015432357788086 9.675796508789062 17.91687774658203 L9.675796508789062 17.91687774658203 C10.20500373840332 18.242881774902344 10.526293754577637 18.96962547302246 10.497931480407715 19.590539932250977 L10.497931480407715 19.590539932250977 C9.316469192504883 19.590539932250977 8.135005950927734 19.590539932250977 6.953543663024902 19.590539932250977 L6.953543663024902 19.590539932250977 C6.921818733215332 19.15899085998535 6.89009428024292 18.72744369506836 6.85836935043335 18.295894622802734 L6.85836935043335 18.295894622802734 C7.197916507720947 18.169462203979492 7.537463188171387 18.043031692504883 7.877010345458984 17.91659927368164 L7.877010345458984 17.91659927368164 C7.877010345458984 16.010881423950195 7.877010345458984 14.105162620544434 7.877010345458984 12.199445724487305 L7.877010345458984 12.199445724487305 C7.5571513175964355 12.088223457336426 7.237292289733887 11.97700023651123 6.917433261871338 11.865777969360352 L6.917433261871338 11.865777969360352 C6.917433261871338 11.443093299865723 6.917433261871338 11.02040958404541 6.917433261871338 10.597724914550781 L6.917433261871338 10.597724914550781 C7.049370288848877 10.550790786743164 7.181307315826416 10.503857612609863 7.313244342803955 10.456923484802246 L7.313244342803955 10.456923484802246"></path></svg>