<svg xmlns="http://www.w3.org/2000/svg" viewBox="0.0 0.0 24.0 24.0" height="200px" width="200px"><path fill="none" stroke="black" stroke-width=".3" stroke-opacity="1.0"  filling="0" d="M11.280211448669434 6.939719200134277 C12.032156944274902 6.939719200134277 12.639516830444336 6.939719200134277 13.456259727478027 6.939719200134277 C13.752202987670898 9.868680953979492 14.045244216918945 12.772496223449707 14.338285446166992 15.676795959472656 C14.446120262145996 15.681631088256836 14.554439544677734 15.68695068359375 14.662274360656738 15.69178581237793 C14.911794662475586 12.83487606048584 15.160831451416016 9.978450775146484 15.422924995422363 6.976470470428467 C16.276418685913086 6.976470470428467 17.015308380126953 6.976470470428467 17.92731285095215 6.976470470428467 C17.14828872680664 13.43933391571045 16.391023635864258 19.721343994140625 15.625055313110352 26.07733917236328 C14.889551162719727 26.07733917236328 14.357626914978027 26.07733917236328 13.535564422607422 26.07733917236328 C13.19803524017334 23.228166580200195 12.861956596374512 20.393016815185547 12.525877952575684 17.558349609375 C12.421911239624023 17.545778274536133 12.317944526672363 17.533205032348633 12.213977813720703 17.520633697509766 C11.861457824707031 20.35239601135254 11.508455276489258 23.184646606445312 11.140460014343262 26.140201568603516 C10.404472351074219 26.107803344726562 9.804367065429688 26.08169174194336 9.05048656463623 26.048809051513672 C8.28306770324707 19.65557861328125 7.530638217926025 13.386625289916992 6.757899761199951 6.950842380523682 C7.749693870544434 6.950842380523682 8.423301696777344 6.950842380523682 9.269060134887695 6.950842380523682 C9.51132583618164 9.91655445098877 9.74537181854248 12.788938522338867 9.979902267456055 15.66083812713623 C10.066943168640137 15.673410415649414 10.153985977172852 15.685983657836914 10.24102783203125 15.698556900024414 C10.582908630371094 12.81650161743164 10.92479133605957 9.93396282196045 11.280211448669434 6.939719200134277"></path></svg>