<svg xmlns="http://www.w3.org/2000/svg" viewBox="0.0 0.0 24.0 24.0" height="200px" width="200px"><path fill="none" stroke="black" stroke-width=".3" stroke-opacity="1.0"  filling="0" d="M2.96999454498291 8.934581756591797 C4.859798908233643 8.934581756591797 6.69095516204834 8.934581756591797 8.52259635925293 8.934581756591797 C10.368293762207031 8.934581756591797 12.213506698608398 8.934581756591797 14.020914077758789 8.934581756591797 C14.524505615234375 11.07109260559082 14.524505615234375 11.07109260559082 13.009851455688477 12.203327178955078 C13.716043472290039 13.16301155090332 14.423689842224121 14.124151229858398 15.229728698730469 15.219549179077148 C15.998929977416992 14.20267105102539 16.672164916992188 13.313264846801758 17.22277069091797 12.585262298583984 C16.818538665771484 11.431217193603516 16.46132469177246 10.412400245666504 16.003292083740234 9.105192184448242 C18.304597854614258 9.105192184448242 20.18131446838379 9.105192184448242 22.169994354248047 9.105192184448242 C22.169994354248047 9.85355281829834 22.169994354248047 10.553444862365723 22.169994354248047 10.919869422912598 C19.023876190185547 14.033029556274414 15.725080490112305 16.728872299194336 16.053701400756836 21.663978576660156 C16.34984588623047 21.850099563598633 16.59122085571289 22.044944763183594 16.865554809570312 22.1632080078125 C17.152006149291992 22.28680419921875 17.470447540283203 22.336727142333984 17.875164031982422 22.44626808166504 C17.875164031982422 23.187843322753906 17.875164031982422 23.888702392578125 17.875164031982422 24.760173797607422 C14.370859146118164 24.760173797607422 10.873825073242188 24.760173797607422 7.223629474639893 24.760173797607422 C7.1766133308410645 24.036048889160156 7.131537914276123 23.347789764404297 7.082584381103516 22.600399017333984 C7.746124267578125 22.32267189025879 8.304486274719238 22.089534759521484 8.77511978149414 21.89226722717285 C9.46289348602295 19.433923721313477 8.774149894714355 17.483531951904297 7.224598407745361 15.751254081726074 C5.872314929962158 14.239992141723633 5.280993461608887 12.007997512817383 2.96999454498291 11.31779956817627 C2.96999454498291 10.634872436523438 2.96999454498291 9.927709579467773 2.96999454498291 8.934581756591797"></path></svg>