<svg xmlns="http://www.w3.org/2000/svg" viewBox="0.0 0.0 24.0 24.0" height="200px" width="200px"><path fill="none" stroke="black" stroke-width=".3" stroke-opacity="1.0"  filling="0" d="M14.191034317016602 11.825337409973145 C16.61759376525879 12.06446361541748 19.021106719970703 12.536954879760742 21.624849319458008 12.932378768920898 C21.624849319458008 14.697737693786621 21.624849319458008 16.5761775970459 21.624849319458008 18.660614013671875 C20.205215454101562 19.046672821044922 19.11113929748535 19.256990432739258 17.96520233154297 17.72211456298828 C16.825029373168945 16.193721771240234 15.45581340789795 16.450855255126953 14.555486679077148 17.932430267333984 C13.33464527130127 19.939800262451172 13.88204288482666 24.073375701904297 15.537923812866211 25.696847915649414 C17.340017318725586 27.463647842407227 19.32793617248535 26.55971908569336 21.33098602294922 26.097312927246094 C22.438026428222656 28.29266929626465 21.578033447265625 29.757678985595703 19.484233856201172 30.15598487854004 C16.823589324951172 30.662328720092773 13.998727798461914 31.225574493408203 11.37913703918457 30.843835830688477 C5.732287406921387 30.019855499267578 2.894458770751953 25.649309158325195 3.6550540924072266 19.867773056030273 C4.331379413604736 14.72654914855957 8.76674747467041 11.288743019104004 14.191034317016602 11.825337409973145"></path></svg>