<svg xmlns="http://www.w3.org/2000/svg" viewBox="0.0 0.0 24.0 24.0" height="200px" width="200px"><path fill="none" stroke="black" stroke-width=".3" stroke-opacity="1.0"  filling="0" d="M12.055211067199707 8.669027328491211 L12.055211067199707 8.669027328491211 C12.260682106018066 9.000292778015137 12.67361068725586 9.273015022277832 12.671623229980469 9.662824630737305 C12.669511795043945 10.076839447021484 11.42746353149414 10.071304321289062 11.429574966430664 9.657289505004883 C11.431563377380371 9.267411231994629 11.846665382385254 8.998448371887207 12.055211067199707 8.669027328491211 L12.055211067199707 8.669027328491211"></path>
<path fill="none" stroke="black" stroke-width=".3" stroke-opacity="1.0"  filling="0" d="M12.597832679748535 11.444596290588379 L12.597832679748535 11.444596290588379 C12.597832679748535 12.782001495361328 12.597832679748535 14.119406700134277 12.597832679748535 15.456812858581543 C12.597832679748535 16.794218063354492 12.597832679748535 18.131624221801758 12.597832679748535 19.46902847290039 L12.597832679748535 19.46902847290039 C12.232658386230469 19.46902847290039 11.867485046386719 19.46902847290039 11.502310752868652 19.46902847290039 L11.502310752868652 19.46902847290039 C11.502310752868652 18.145767211914062 11.502310752868652 16.8225040435791 11.502310752868652 15.499241828918457 C11.502310752868652 14.175979614257812 11.502310752868652 12.852716445922852 11.502310752868652 11.529455184936523 L11.502310752868652 11.529455184936523 C11.867485046386719 11.501169204711914 12.232658386230469 11.472882270812988 12.597832679748535 11.444596290588379 L12.597832679748535 11.444596290588379"></path></svg>