<svg xmlns="http://www.w3.org/2000/svg" viewBox="0.0 0.0 24.0 24.0" height="200px" width="200px"><path fill="none" stroke="black" stroke-width=".3" stroke-opacity="1.0"  filling="0" d="M3.5351266860961914 9.285215377807617 C6.509037971496582 9.669836044311523 9.294584274291992 8.58056926727295 12.04018783569336 9.870036125183105 C12.396208763122559 10.037199020385742 13.066831588745117 9.55247688293457 13.585577011108398 9.35276985168457 C16.976654052734375 8.049495697021484 19.529949188232422 9.25316333770752 20.273056030273438 12.793157577514648 C20.614776611328125 14.42089557647705 20.631542205810547 16.238475799560547 20.28784942626953 17.862762451171875 C19.53685188293457 21.41311264038086 16.913536071777344 22.78936767578125 13.435179710388184 21.7716007232666 C13.045133590698242 21.65769386291504 12.658047676086426 21.534908294677734 12.06977367401123 21.35492706298828 C12.06977367401123 22.79232406616211 12.06977367401123 24.10694122314453 12.06977367401123 25.52215003967285 C12.808443069458008 25.66712188720703 13.510129928588867 25.80420684814453 14.3030424118042 25.95953369140625 C14.468233108520508 26.647907257080078 14.636381149291992 27.34466552734375 14.804037094116211 28.04142189025879 C11.023407936096191 28.04142189025879 7.243270397186279 28.04142189025879 3.462639808654785 28.04142189025879 C3.667771339416504 27.15679168701172 3.250112533569336 26.044841766357422 4.572617053985596 25.56899642944336 C4.86404275894165 25.46396255493164 4.995207786560059 24.59018325805664 5.001125335693359 24.0684814453125 C5.038107872009277 20.62168312072754 5.0400800704956055 17.17389488220215 5.0001397132873535 13.72709846496582 C4.994222164154053 13.216241836547852 4.833962917327881 12.377471923828125 4.5228142738342285 12.255181312561035 C3.001093864440918 11.6570463180542 3.7175750732421875 10.549040794372559 3.5351266860961914 9.285215377807617"></path>
<path fill="none" stroke="black" stroke-width=".3" stroke-opacity="1.0"  filling="0" d="M12.060405731201172 12.36317253112793 C13.635873794555664 12.639803886413574 13.683210372924805 13.715757369995117 13.77492904663086 14.729578971862793 C13.969705581665039 16.88543128967285 13.662994384765625 17.664535522460938 12.060405731201172 18.74640464782715 C12.060405731201172 16.505741119384766 12.060405731201172 14.526418685913086 12.060405731201172 12.36317253112793"></path></svg>