<svg xmlns="http://www.w3.org/2000/svg" viewBox="0.0 0.0 24.0 24.0" height="200px" width="200px"><path fill="none" stroke="black" stroke-width=".3" stroke-opacity="1.0"  filling="0" d="M6.707657814025879 12.683732986450195 L6.707657814025879 12.683732986450195 C8.805201530456543 12.683732986450195 10.90274715423584 12.683732986450195 13.000290870666504 12.683732986450195 L13.000290870666504 12.683732986450195 C13.061487197875977 13.301398277282715 13.122682571411133 13.91906452178955 13.183878898620605 14.53672981262207 L13.183878898620605 14.53672981262207 C14.752311706542969 12.758726119995117 15.134223937988281 12.374208450317383 17.50765609741211 12.837733268737793 L17.50765609741211 12.837733268737793 C17.10157585144043 14.272324562072754 16.695554733276367 15.706933975219727 16.2895565032959 17.14154815673828 L16.2895565032959 17.14154815673828 C15.262054443359375 17.14154815673828 14.234552383422852 17.14154815673828 13.207050323486328 17.14154815673828 L13.207050323486328 17.14154815673828 C13.163084030151367 17.8059139251709 13.119117736816406 18.470277786254883 13.075151443481445 19.1346435546875 L13.075151443481445 19.1346435546875 C13.587298393249512 19.32429313659668 14.099444389343262 19.513940811157227 14.611591339111328 19.703590393066406 L14.611591339111328 19.703590393066406 C14.611591339111328 20.24972152709961 14.611591339111328 20.795854568481445 14.611591339111328 21.34198570251465 L14.611591339111328 21.34198570251465 C13.34815788269043 21.34198570251465 12.084723472595215 21.34198570251465 10.821290016174316 21.34198570251465 C9.557855606079102 21.34198570251465 8.294422149658203 21.34198570251465 7.03098726272583 21.34198570251465 L7.03098726272583 21.34198570251465 C7.177197456359863 20.27414894104004 7.869052410125732 19.350290298461914 8.16443157196045 18.313756942749023 C8.759407043457031 16.225889205932617 7.616368293762207 14.41342544555664 6.707657814025879 12.683732986450195 L6.707657814025879 12.683732986450195"></path></svg>