<svg xmlns="http://www.w3.org/2000/svg" viewBox="0.0 0.0 24.0 24.0" height="200px" width="200px"><path fill="none" stroke="black" stroke-width=".3" stroke-opacity="1.0"  filling="0" d="M10.74084186553955 9.207869529724121 L10.74084186553955 9.207869529724121 C11.225565910339355 9.208864212036133 11.740890502929688 9.041353225708008 12.195013999938965 9.210854530334473 C14.365001678466797 10.020801544189453 13.277288436889648 13.06163501739502 12.587516784667969 14.344367980957031 L12.587516784667969 14.344367980957031 C13.304643630981445 15.873458862304688 14.331459045410156 17.79928970336914 12.59885025024414 19.19083595275879 C12.13841724395752 19.560632705688477 11.51232624053955 19.653932571411133 10.969063758850098 19.885480880737305 L10.969063758850098 19.885480880737305 C11.231362342834473 18.815052032470703 12.082033157348633 17.858457565307617 12.039280891418457 16.757190704345703 C11.999091148376465 15.721931457519531 11.017837524414062 14.764537811279297 11.24206256866455 13.753053665161133 C11.373719215393066 13.159146308898926 12.001425743103027 12.692272186279297 11.980834007263184 12.084295272827148 C11.945490837097168 11.040788650512695 11.057710647583008 10.20273208618164 10.74084186553955 9.207869529724121 L10.74084186553955 9.207869529724121"></path></svg>