<svg xmlns="http://www.w3.org/2000/svg" viewBox="0.0 0.0 24.0 24.0" height="200px" width="200px"><path fill="none" stroke="black" stroke-width=".3" stroke-opacity="1.0"  filling="0" d="M8.221362113952637 10.003199577331543 L8.221362113952637 10.003199577331543 C9.718907356262207 10.003199577331543 11.216452598571777 10.003199577331543 12.713997840881348 10.003199577331543 C14.211543083190918 10.003199577331543 15.709087371826172 10.003199577331543 17.206632614135742 10.003199577331543 L17.206632614135742 10.003199577331543 C16.658905029296875 11.803194046020508 16.11117172241211 13.60318660736084 15.563457489013672 15.403183937072754 C15.015743255615234 17.203182220458984 14.468045234680176 19.003185272216797 13.920384407043457 20.803199768066406 L13.920384407043457 20.803199768066406 C12.065786361694336 20.803199768066406 10.211185455322266 20.803199768066406 8.356586456298828 20.803199768066406 L8.356586456298828 20.803199768066406 C9.294195175170898 19.644487380981445 10.231767654418945 18.485746383666992 11.169309616088867 17.326980590820312 C12.106851577758789 16.168214797973633 13.044363021850586 15.009424209594727 13.981849670410156 13.85061264038086 L13.981849670410156 13.85061264038086 C12.698824882507324 13.85061264038086 11.415800094604492 13.85061264038086 10.13277530670166 13.85061264038086 L10.13277530670166 13.85061264038086 C10.025681495666504 14.376337051391602 9.918586730957031 14.902061462402344 9.811492919921875 15.427785873413086 L9.811492919921875 15.427785873413086 C9.281449317932129 15.45458698272705 8.751405715942383 15.481388092041016 8.221362113952637 15.50818920135498 L8.221362113952637 15.50818920135498 C8.221362113952637 13.673192977905273 8.221362113952637 11.83819580078125 8.221362113952637 10.003199577331543 L8.221362113952637 10.003199577331543"></path></svg>