<svg xmlns="http://www.w3.org/2000/svg" viewBox="0.0 0.0 24.0 24.0" height="200px" width="200px"><path fill="none" stroke="black" stroke-width=".3" stroke-opacity="1.0"  filling="0" d="M8.835134506225586 10.534793853759766 L8.835134506225586 10.534793853759766 C10.106121063232422 10.534793853759766 11.37710952758789 10.534793853759766 12.648097038269043 10.534793853759766 C13.919084548950195 10.534793853759766 15.190073013305664 10.534793853759766 16.4610595703125 10.534793853759766 L16.4610595703125 10.534793853759766 C16.4610595703125 11.24359130859375 16.4610595703125 11.952387809753418 16.4610595703125 12.661185264587402 L16.4610595703125 12.661185264587402 C15.006087303161621 12.661185264587402 13.551115989685059 12.661185264587402 12.096139907836914 12.661185264587402 L12.096139907836914 12.661185264587402 C12.096139907836914 13.360072135925293 12.096139907836914 14.0589599609375 12.096139907836914 14.75784683227539 L12.096139907836914 14.75784683227539 C13.555314064025879 14.75784683227539 15.014490127563477 14.75784683227539 16.473661422729492 14.75784683227539 L16.473661422729492 14.75784683227539 C16.473661422729492 15.470414161682129 16.473661422729492 16.182981491088867 16.473661422729492 16.89554786682129 L16.473661422729492 16.89554786682129 C15.010393142700195 16.89554786682129 13.547128677368164 16.89554786682129 12.083860397338867 16.89554786682129 L12.083860397338867 16.89554786682129 C12.083860397338867 18.37529945373535 12.083860397338867 19.85504150390625 12.083860397338867 21.334793090820312 L12.083860397338867 21.334793090820312 C11.00084400177002 21.334793090820312 9.917827606201172 21.334793090820312 8.834811210632324 21.334793090820312 L8.834811210632324 21.334793090820312 C8.834949493408203 19.534793853759766 8.835029602050781 17.734792709350586 8.835075378417969 15.934793472290039 C8.835121154785156 14.134794235229492 8.835132598876953 12.334794044494629 8.835134506225586 10.534793853759766 L8.835134506225586 10.534793853759766"></path></svg>