<svg xmlns="http://www.w3.org/2000/svg" viewBox="0.0 0.0 24.0 24.0" height="200px" width="200px"><path fill="none" stroke="black" stroke-width=".3" stroke-opacity="1.0"  filling="0" d="M4.8287672996521 8.522697448730469 C10.370255470275879 8.522697448730469 15.981605529785156 8.522697448730469 21.853036880493164 8.522697448730469 C21.61937713623047 10.28982162475586 21.40802764892578 11.889039993286133 21.18317413330078 13.590408325195312 C20.219181060791016 13.590408325195312 19.46477699279785 13.590408325195312 18.54422950744629 13.590408325195312 C18.40509033203125 12.918783187866211 18.25479507446289 12.196670532226562 18.073972702026367 11.324850082397461 C17.255578994750977 11.324850082397461 16.434246063232422 11.324850082397461 15.385714530944824 11.324850082397461 C15.124462127685547 13.386690139770508 14.873777389526367 15.366337776184082 14.623092651367188 17.345399856567383 C14.86790657043457 17.4792537689209 15.113306999206543 17.61252212524414 15.358121871948242 17.74637794494629 C15.803131103515625 17.262033462524414 16.164188385009766 16.599803924560547 16.714874267578125 16.33737564086914 C17.438161849975586 15.9933443069458 18.311742782592773 15.965164184570312 19.561058044433594 15.712130546569824 C19.31624412536621 18.09334373474121 19.111352920532227 20.085906982421875 18.920551300048828 21.943443298339844 C16.664384841918945 24.0093936920166 16.081409454345703 20.734050750732422 14.349512100219727 20.69178009033203 C14.145207405090332 21.796085357666016 13.95616626739502 22.817611694335938 13.733075141906738 24.0217227935791 C14.767516136169434 24.25185775756836 15.676322937011719 24.453815460205078 16.824071884155273 24.70978546142578 C16.866928100585938 25.578670501708984 16.912134170532227 26.49217414855957 16.9649715423584 27.57123565673828 C12.190215110778809 27.57123565673828 7.635029315948486 27.57123565673828 2.880234718322754 27.57123565673828 C2.808023452758789 26.729354858398438 2.736398696899414 25.896282196044922 2.6530332565307617 24.922897338867188 C3.445596694946289 24.61467742919922 4.134834289550781 24.34638214111328 5.0618391036987305 23.985322952270508 C5.549706935882568 20.161643981933594 6.052250385284424 16.222309112548828 6.580626010894775 12.077492713928223 C4.426027774810791 11.76399040222168 4.1571431159973145 10.43952751159668 4.8287672996521 8.522697448730469"></path></svg>