<svg xmlns="http://www.w3.org/2000/svg" viewBox="0.0 0.0 24.0 24.0" height="200px" width="200px"><path fill="none" stroke="black" stroke-width=".3" stroke-opacity="1.0"  filling="0" d="M19.473041534423828 9.221878051757812 C20.00147247314453 9.314546585083008 20.56024169921875 9.235116958618164 21.6678466796875 9.235116958618164 C19.25681495666504 12.356054306030273 17.11496353149414 15.127279281616211 14.890922546386719 18.00551414489746 C17.484533309936523 21.257732391357422 19.984371185302734 24.392459869384766 22.723052978515625 27.82725715637207 C20.30099105834961 27.82725715637207 18.257320404052734 27.82725715637207 15.942819595336914 27.82725715637207 C13.87984561920166 25.238611221313477 11.671249389648438 22.466835021972656 9.462102890014648 19.694507598876953 C9.28669261932373 19.765661239624023 9.111284255981445 19.836267471313477 8.935325622558594 19.906871795654297 C8.935325622558594 22.464630126953125 8.935325622558594 25.022937774658203 8.935325622558594 27.794715881347656 C7.1045732498168945 27.794715881347656 5.422202110290527 27.794715881347656 3.5230512619018555 27.794715881347656 C3.5230512619018555 21.729900360107422 3.5230512619018555 15.640817642211914 3.5230512619018555 9.390666961669922 C5.2920241355896 9.390666961669922 6.979912281036377 9.390666961669922 8.880165100097656 9.390666961669922 C8.880165100097656 11.971590995788574 8.880165100097656 14.425095558166504 8.880165100097656 16.87860107421875 C9.045092582702637 16.96189308166504 9.210572242736816 17.045185089111328 9.375499725341797 17.128475189208984 C10.708710670471191 15.478094100952148 12.222293853759766 13.939138412475586 13.329900741577148 12.149205207824707 C14.808181762695312 9.759134292602539 16.716157913208008 8.738126754760742 19.473041534423828 9.221878051757812"></path></svg>