<svg xmlns="http://www.w3.org/2000/svg" viewBox="0.0 0.0 24.0 24.0" height="200px" width="200px"><path fill="none" stroke="black" stroke-width=".3" stroke-opacity="1.0"  filling="0" d="M16.82891273498535 9.471234321594238 C18.685733795166016 9.471234321594238 20.31232452392578 9.471234321594238 22.151477813720703 9.471234321594238 C22.151477813720703 15.329214096069336 22.151477813720703 21.235383987426758 22.151477813720703 27.248634338378906 C19.371063232421875 27.8284912109375 17.063425064086914 27.57737922668457 15.136999130249023 25.018627166748047 C13.236809730529785 22.494678497314453 10.886335372924805 20.310184478759766 8.285286903381348 17.491222381591797 C8.285286903381348 21.112773895263672 8.285286903381348 24.074691772460938 8.285286903381348 27.252382278442383 C6.412939071655273 27.252382278442383 4.786881923675537 27.252382278442383 2.95147705078125 27.252382278442383 C2.950942039489746 21.372982025146484 2.950942039489746 15.469491958618164 2.950942039489746 9.479263305664062 C6.089012145996094 8.714691162109375 8.289569854736328 9.485689163208008 10.161918640136719 11.932003021240234 C12.028911590576172 14.371356010437012 14.315136909484863 16.489994049072266 16.82891273498535 19.190631866455078 C16.82891273498535 15.631189346313477 16.82891273498535 12.665522575378418 16.82891273498535 9.471234321594238"></path></svg>