<svg xmlns="http://www.w3.org/2000/svg" viewBox="0.0 0.0 24.0 24.0" height="200px" width="200px"><path fill="none" stroke="black" stroke-width=".3" stroke-opacity="1.0"  filling="0" d="M3.8170976638793945 9.325422286987305 C7.5181193351745605 9.325422286987305 11.135862350463867 9.325422286987305 15.10373592376709 9.325422286987305 C14.862852096557617 10.392389297485352 14.659130096435547 11.293241500854492 14.455856323242188 12.194095611572266 C14.315713882446289 12.184693336486816 14.175122261047363 12.175291061401367 14.034979820251465 12.165887832641602 C14.334518432617188 12.662431716918945 14.634056091308594 13.158975601196289 15.107317924499512 13.943864822387695 C15.622220039367676 13.254344940185547 16.039066314697266 12.696012496948242 16.324275970458984 12.31453800201416 C16.08652687072754 11.341598510742188 15.86400032043457 10.43089485168457 15.595355033874512 9.33034896850586 C17.830028533935547 9.33034896850586 19.742773056030273 9.33034896850586 21.874916076660156 9.33034896850586 C21.917001724243164 10.013153076171875 21.959983825683594 10.705806732177734 22.010581970214844 11.527410507202148 C19.021913528442383 11.810831069946289 18.218666076660156 14.46010971069336 16.2911434173584 16.097944259643555 C17.97330665588379 18.06441879272461 18.215532302856445 20.95279312133789 21.133010864257812 21.76365089416504 C21.133010864257812 22.39944076538086 21.133010864257812 23.054931640625 21.133010864257812 23.84832763671875 C17.46870231628418 23.84832763671875 13.848274230957031 23.84832763671875 9.865623474121094 23.84832763671875 C10.019645690917969 22.86643409729004 10.162922859191895 21.956178665161133 10.305752754211426 21.045923233032227 C10.444551467895508 21.048608779907227 10.583351135253906 21.051742553710938 10.722150802612305 21.05443000793457 C10.416343688964844 20.561466217041016 10.11098575592041 20.068058013916016 9.6036958694458 19.250036239624023 C9.043573379516602 19.840158462524414 8.60210132598877 20.305809020996094 8.388528823852539 20.530574798583984 C8.7476167678833 21.838424682617188 8.997903823852539 22.751365661621094 9.302814483642578 23.86176300048828 C7.003220081329346 23.86176300048828 5.025103569030762 23.86176300048828 2.9108734130859375 23.86176300048828 C2.878634452819824 23.1588077545166 2.84908390045166 22.517196655273438 2.810577392578125 21.68126678466797 C5.876255512237549 21.465904235839844 6.435482978820801 18.645137786865234 8.585084915161133 17.25177001953125 C6.800839424133301 15.210969924926758 6.584580421447754 12.354833602905273 3.8170976638793945 11.397117614746094 C3.8170976638793945 10.751028060913086 3.8170976638793945 10.098222732543945 3.8170976638793945 9.325422286987305"></path></svg>