<svg xmlns="http://www.w3.org/2000/svg" viewBox="0.0 0.0 24.0 24.0" height="200px" width="200px"><path fill="none" stroke="black" stroke-width=".3" stroke-opacity="1.0"  filling="0" d="M7.397117614746094 10.495550155639648 L7.397117614746094 10.495550155639648 C9.513362884521484 10.495550155639648 11.629606246948242 10.495550155639648 13.745851516723633 10.495550155639648 L13.745851516723633 10.495550155639648 C13.624374389648438 11.033426284790039 13.502896308898926 11.57130241394043 13.38141918182373 12.10917854309082 L13.38141918182373 12.10917854309082 C13.302504539489746 12.103889465332031 13.223590850830078 12.098601341247559 13.144676208496094 12.09331226348877 L13.144676208496094 12.09331226348877 C13.345739364624023 12.426682472229004 13.54680347442627 12.760053634643555 13.7478666305542 13.093423843383789 L13.7478666305542 13.093423843383789 C13.976046562194824 12.787924766540527 14.204225540161133 12.482426643371582 14.432405471801758 12.17692756652832 L14.432405471801758 12.17692756652832 C14.295732498168945 11.617392539978027 14.15906047821045 11.057856559753418 14.022387504577637 10.498321533203125 L14.022387504577637 10.498321533203125 C15.19980525970459 10.498321533203125 16.377222061157227 10.498321533203125 17.55463981628418 10.498321533203125 L17.55463981628418 10.498321533203125 C17.580076217651367 10.910270690917969 17.605514526367188 11.322219848632812 17.630950927734375 11.734169006347656 L17.630950927734375 11.734169006347656 C16.090118408203125 12.346521377563477 15.513748168945312 13.090508460998535 14.413768768310547 14.305093765258789 L14.413768768310547 14.305093765258789 C15.293556213378906 15.709718704223633 15.7244873046875 16.588970184326172 17.137317657470703 17.492053985595703 L17.137317657470703 17.492053985595703 C17.137317657470703 17.882930755615234 17.137317657470703 18.273807525634766 17.137317657470703 18.664684295654297 L17.137317657470703 18.664684295654297 C15.024682998657227 18.664684295654297 12.91204833984375 18.664684295654297 10.799413681030273 18.664684295654297 L10.799413681030273 18.664684295654297 C10.881937980651855 18.139232635498047 10.964461326599121 17.61378288269043 11.046985626220703 17.08833122253418 L11.046985626220703 17.08833122253418 C11.125060081481934 17.08992576599121 11.20313549041748 17.091522216796875 11.281209945678711 17.093116760253906 L11.281209945678711 17.093116760253906 C11.071499824523926 16.754793167114258 10.861788749694824 16.41646957397461 10.652078628540039 16.07814598083496 L10.652078628540039 16.07814598083496 C10.424235343933105 16.318246841430664 10.196391105651855 16.558345794677734 9.968547821044922 16.798446655273438 L9.968547821044922 16.798446655273438 C10.139976501464844 17.423044204711914 10.31140422821045 18.047643661499023 10.482832908630371 18.6722412109375 L10.482832908630371 18.6722412109375 C10.459696769714355 18.6722412109375 6.960541248321533 18.6722412109375 6.88736629486084 18.6722412109375 L6.88736629486084 18.6722412109375 C6.868560791015625 18.263397216796875 6.84975528717041 17.854555130004883 6.830949783325195 17.445711135864258 L6.830949783325195 17.445711135864258 C8.345571517944336 16.851503372192383 8.927053451538086 16.07274055480957 10.079110145568848 14.954120635986328 L10.079110145568848 14.954120635986328 C9.20470905303955 13.586345672607422 8.725447654724121 12.617197036743164 7.397117614746094 11.660879135131836 L7.397117614746094 11.660879135131836 C7.397117614746094 11.272436141967773 7.397117614746094 10.883993148803711 7.397117614746094 10.495550155639648 L7.397117614746094 10.495550155639648"></path></svg>