<svg xmlns="http://www.w3.org/2000/svg" viewBox="0.0 0.0 24.0 24.0" height="200px" width="200px"><path fill="none" stroke="black" stroke-width=".3" stroke-opacity="1.0"  filling="0" d="M10.704996109008789 12.406148910522461 C14.339123725891113 11.33374309539795 17.979400634765625 11.577248573303223 22.01198959350586 12.542044639587402 C21.681167602539062 15.243967056274414 21.832435607910156 17.94035530090332 20.94757843017578 20.238277435302734 C19.869022369384766 23.037357330322266 23.107147216796875 24.798463821411133 21.806610107421875 27.82505989074707 C18.706838607788086 27.643043518066406 15.407838821411133 27.419832229614258 12.10576343536377 27.28270721435547 C11.481012344360352 27.256881713867188 10.81690788269043 27.50592041015625 10.213064193725586 27.737743377685547 C6.048268795013428 29.335285186767578 3.040121078491211 27.35034942626953 2.9239025115966797 22.90392303466797 C2.7935428619384766 17.933589935302734 5.797386646270752 13.85365104675293 10.704996109008789 12.406148910522461"></path>
<path fill="none" stroke="black" stroke-width=".3" stroke-opacity="1.0"  filling="0" d="M12.750192642211914 15.277786254882812 C11.230745315551758 18.128515243530273 10.637970924377441 20.545120239257812 11.523443222045898 23.219985961914062 C12.389238357543945 20.837818145751953 13.039200782775879 18.44089126586914 12.750192642211914 15.277786254882812"></path></svg>