<svg xmlns="http://www.w3.org/2000/svg" viewBox="0.0 0.0 24.0 24.0" height="200px" width="200px"><path fill="none" stroke="black" stroke-width=".3" stroke-opacity="1.0"  filling="0" d="M7.79156494140625 9.041910171508789 L7.79156494140625 9.041910171508789 C9.477104187011719 9.041910171508789 11.16264533996582 9.041910171508789 12.848184585571289 9.041910171508789 L12.848184585571289 9.041910171508789 C12.718131065368652 10.387361526489258 12.588143348693848 11.732815742492676 12.458282470703125 13.078285217285156 L12.458282470703125 13.078285217285156 C13.019997596740723 12.841291427612305 13.551619529724121 12.513768196105957 14.143428802490234 12.367304801940918 C18.02526092529297 11.406612396240234 16.4427433013916 15.246423721313477 16.730260848999023 17.226831436157227 C16.856962203979492 18.09954261779785 17.32990074157715 18.907060623168945 17.400590896606445 19.786083221435547 L17.400590896606445 19.786083221435547 C15.733955383300781 19.786083221435547 14.06732177734375 19.786083221435547 12.400684356689453 19.786083221435547 L12.400684356689453 19.786083221435547 C12.525835990905762 18.050575256347656 12.723002433776855 16.473796844482422 12.578207969665527 14.735960960388184 L12.578207969665527 14.735960960388184 C12.027456283569336 16.439136505126953 11.828755378723145 18.07941246032715 11.532560348510742 19.841615676879883 L11.532560348510742 19.841615676879883 C10.037243843078613 19.841615676879883 8.54193115234375 19.841615676879883 7.0466156005859375 19.841615676879883 L7.0466156005859375 19.841615676879883 C7.381043434143066 18.342636108398438 7.673281192779541 16.880596160888672 7.925058364868164 15.406673431396484 C8.176835060119629 13.932750701904297 8.388151168823242 12.446948051452637 8.560735702514648 10.900444030761719 L8.560735702514648 10.900444030761719 C8.04559326171875 10.471306800842285 7.754424571990967 9.711350440979004 7.79156494140625 9.041910171508789 L7.79156494140625 9.041910171508789"></path></svg>