<svg xmlns="http://www.w3.org/2000/svg" viewBox="0.0 0.0 24.0 24.0" height="200px" width="200px"><path fill="none" stroke="black" stroke-width=".3" stroke-opacity="1.0"  filling="0" d="M10.960322380065918 9.519659996032715 L10.960322380065918 9.519659996032715 C13.002143859863281 9.395464897155762 14.912067413330078 9.294659614562988 16.366254806518555 11.060131072998047 C17.55900764465332 12.508204460144043 17.826662063598633 14.546011924743652 17.317607879638672 16.32495880126953 C16.808551788330078 18.103904724121094 15.522787094116211 19.62398910522461 13.6087007522583 20.0366153717041 C11.004165649414062 20.598085403442383 8.806585311889648 19.23472785949707 7.72290563583374 17.254592895507812 C6.639225006103516 15.274456024169922 6.6694440841674805 12.677539825439453 8.52050495147705 10.771893501281738 C9.331014633178711 9.937482833862305 9.89637565612793 9.886629104614258 10.960322380065918 9.519659996032715 L10.960322380065918 9.519659996032715"></path>
<path fill="none" stroke="black" stroke-width=".3" stroke-opacity="1.0"  filling="0" d="M12.105912208557129 11.662534713745117 L12.105912208557129 11.662534713745117 C13.528814315795898 11.874924659729004 14.392037391662598 13.408529281616211 14.496604919433594 14.887372016906738 C14.60117244720459 16.366214752197266 13.947084426879883 17.790294647216797 12.335366249084473 17.78363609313965 C10.768428802490234 17.777162551879883 10.112833976745605 16.462656021118164 10.148089408874512 15.04188346862793 C10.183343887329102 13.621110916137695 10.909448623657227 12.094072341918945 12.105912208557129 11.662534713745117 L12.105912208557129 11.662534713745117"></path></svg>