<svg xmlns="http://www.w3.org/2000/svg" viewBox="0.0 0.0 24.0 24.0" height="200px" width="200px"><path fill="none" stroke="black" stroke-width=".3" stroke-opacity="1.0"  filling="0" d="M12.16962718963623 8.09908676147461 L12.16962718963623 8.09908676147461 C12.57037353515625 8.457496643066406 13.351322174072266 8.637070655822754 13.371866226196289 9.17431640625 C13.392419815063477 9.711797714233398 12.792792320251465 10.319219589233398 12.255290031433105 10.33923625946045 C11.71763801574707 10.359258651733398 11.075096130371094 9.798246383666992 11.054536819458008 9.260614395141602 C11.034028053283691 8.72429084777832 11.797930717468262 8.486262321472168 12.16962718963623 8.09908676147461 L12.16962718963623 8.09908676147461"></path>
<path fill="none" stroke="black" stroke-width=".3" stroke-opacity="1.0"  filling="0" d="M9.93690013885498 10.685065269470215 L9.93690013885498 10.685065269470215 C11.15433406829834 10.685065269470215 12.3717679977417 10.685065269470215 13.589201927185059 10.685065269470215 L13.589201927185059 10.685065269470215 C13.450069427490234 12.049585342407227 13.415245056152344 13.523616790771484 13.220820426940918 14.946123123168945 C13.026395797729492 16.368629455566406 12.672369003295898 17.739608764648438 11.894830703735352 18.898027420043945 L11.894830703735352 18.898027420043945 C10.83465576171875 18.898027420043945 9.774480819702148 18.898027420043945 8.714306831359863 18.898027420043945 L8.714306831359863 18.898027420043945 C8.741518020629883 18.605419158935547 8.768729209899902 18.31281089782715 8.795940399169922 18.02020263671875 L8.795940399169922 18.02020263671875 C9.963159561157227 17.384273529052734 10.309532165527344 16.1032657623291 10.33353328704834 14.704852104187012 C10.357534408569336 13.306437492370605 10.059164047241211 11.790616989135742 9.93690013885498 10.685065269470215 L9.93690013885498 10.685065269470215"></path></svg>