<svg xmlns="http://www.w3.org/2000/svg" viewBox="0.0 0.0 24.0 24.0" height="200px" width="200px"><path fill="none" stroke="black" stroke-width=".3" stroke-opacity="1.0"  filling="0" d="M10.122441291809082 7.6193037033081055 L10.122441291809082 7.6193037033081055 C11.916404724121094 7.310027122497559 14.359354972839355 6.762803077697754 16.035057067871094 7.844241142272949 C17.73088836669922 8.938669204711914 18.071605682373047 10.92086410522461 16.498106002807617 12.354204177856445 C15.297760009765625 13.447629928588867 14.309243202209473 13.268220901489258 12.825981140136719 13.382728576660156 L12.825981140136719 13.382728576660156 C14.036273002624512 12.60815715789795 17.657238006591797 9.527480125427246 14.673240661621094 8.105159759521484 C14.243733406066895 7.900435447692871 13.722989082336426 8.054387092590332 13.24786376953125 8.029000282287598 L13.24786376953125 8.029000282287598 C12.768531799316406 9.535236358642578 12.28917407989502 11.041464805603027 11.809813499450684 12.54769229888916 C11.330452919006348 14.053918838500977 10.851090431213379 15.56014633178711 10.371749877929688 17.06637954711914 L10.371749877929688 17.06637954711914 C10.8638916015625 17.390230178833008 11.356033325195312 17.714078903198242 11.848175048828125 18.03792953491211 L11.848175048828125 18.03792953491211 C10.297319412231445 18.03792953491211 8.746464729309082 18.03792953491211 7.195609092712402 18.03792953491211 L7.195609092712402 18.03792953491211 C8.193572998046875 17.08026123046875 8.775242805480957 16.013200759887695 9.213022232055664 14.862202644348145 C9.650801658630371 13.711204528808594 9.944690704345703 12.47626781463623 10.367091178894043 11.182844161987305 C10.935257911682129 9.443070411682129 11.65133285522461 8.711111068725586 10.122441291809082 7.6193037033081055 L10.122441291809082 7.6193037033081055"></path></svg>