<svg xmlns="http://www.w3.org/2000/svg" viewBox="0.0 0.0 24.0 24.0" height="200px" width="200px"><path fill="none" stroke="black" stroke-width=".3" stroke-opacity="1.0"  filling="0" d="M12.340309143066406 10.854193687438965 L12.340309143066406 10.854193687438965 C12.457725524902344 10.88393497467041 12.575141906738281 10.913675308227539 12.692558288574219 10.943416595458984 L12.692558288574219 10.943416595458984 C12.764495849609375 11.791759490966797 12.83647346496582 12.64009952545166 12.908485412597656 13.488436698913574 L12.908485412597656 13.488436698913574 C13.780596733093262 13.535635948181152 14.652708053588867 13.582846641540527 15.524818420410156 13.63006591796875 L15.524818420410156 13.63006591796875 C15.524818420410156 14.241140365600586 15.524818420410156 14.852215766906738 15.524818420410156 15.463290214538574 L15.524818420410156 15.463290214538574 C15.247276306152344 15.482980728149414 13.125951766967773 15.633307456970215 12.871005058288574 15.651355743408203 L12.871005058288574 15.651355743408203 C12.79597282409668 16.658199310302734 12.2178316116333 19.005483627319336 13.747833251953125 19.238861083984375 C14.396180152893066 19.33775520324707 15.050569534301758 19.085844039916992 15.701937675476074 19.009334564208984 L15.701937675476074 19.009334564208984 C15.701786041259766 19.528078079223633 15.701624870300293 20.613662719726562 15.701606750488281 21.11056137084961 L15.701606750488281 21.11056137084961 C15.201093673706055 21.249757766723633 14.713957786560059 21.451953887939453 14.200067520141602 21.528152465820312 C13.565348625183105 21.62226676940918 12.913074493408203 21.704320907592773 12.277205467224121 21.618318557739258 C9.480655670166016 21.240081787109375 9.915891647338867 17.813650131225586 9.923650741577148 15.762802124023438 L9.923650741577148 15.762802124023438 C9.451109886169434 15.63156509399414 8.978569984436035 15.500328063964844 8.50602912902832 15.369091033935547 L8.50602912902832 15.369091033935547 C9.617963790893555 13.60547161102295 10.898463249206543 12.349258422851562 12.340309143066406 10.854193687438965 L12.340309143066406 10.854193687438965"></path></svg>