<svg xmlns="http://www.w3.org/2000/svg" viewBox="0.0 0.0 24.0 24.0" height="200px" width="200px"><path fill="none" stroke="black" stroke-width=".3" stroke-opacity="1.0"  filling="0" d="M14.002694129943848 13.376326560974121 L14.002694129943848 13.376326560974121 C15.12464714050293 13.376326560974121 16.246601104736328 13.376326560974121 17.368553161621094 13.376326560974121 L17.368553161621094 13.376326560974121 C16.295154571533203 14.792301177978516 15.221726417541504 16.208248138427734 14.148225784301758 17.6241455078125 L14.148225784301758 17.6241455078125 C15.31004524230957 19.190977096557617 16.47187042236328 20.757789611816406 17.63365364074707 22.324649810791016 L17.63365364074707 22.324649810791016 C17.631519317626953 22.324649810791016 13.820524215698242 22.324649810791016 13.759532928466797 22.324649810791016 L13.759532928466797 22.324649810791016 C13.671465873718262 22.204362869262695 12.049088478088379 19.988515853881836 12.025229454040527 19.955930709838867 L12.025229454040527 19.955930709838867 C11.430267333984375 20.760099411010742 10.835343360900879 21.56429672241211 10.24046516418457 22.368526458740234 L10.24046516418457 22.368526458740234 C9.122047424316406 22.368526458740234 8.003628730773926 22.368526458740234 6.885210990905762 22.368526458740234 L6.885210990905762 22.368526458740234 C8.000298500061035 20.88210678100586 9.115457534790039 19.395740509033203 10.23059368133545 17.90935707092285 L10.23059368133545 17.90935707092285 C9.098350524902344 16.40401840209961 7.966062068939209 14.898727416992188 6.833653926849365 13.393512725830078 L6.833653926849365 13.393512725830078 C9.682838439941406 13.135239601135254 10.818338394165039 13.186687469482422 12.111159324645996 15.889477729797363 L12.111159324645996 15.889477729797363 C12.74163818359375 15.051735877990723 13.372140884399414 14.214012145996094 14.002694129943848 13.376326560974121 L14.002694129943848 13.376326560974121"></path></svg>