<svg xmlns="http://www.w3.org/2000/svg" viewBox="0.0 0.0 24.0 24.0" height="200px" width="200px"><path fill="none" stroke="black" stroke-width=".3" stroke-opacity="1.0"  filling="0" d="M20.52163314819336 4.603971004486084 C21.1551513671875 4.852376461029053 21.9709415435791 4.636758327484131 23.142391204833984 4.636758327484131 C22.552776336669922 6.5295281410217285 21.980388641357422 8.36672592163086 21.408000946044922 10.203924179077148 C21.192384719848633 10.188920021057129 20.976768493652344 10.174470901489258 20.76114845275879 10.159467697143555 C20.573871612548828 9.414807319641113 20.4127140045166 8.66236686706543 20.1954288482666 7.926599025726318 C19.416868209838867 5.289724826812744 17.161771774291992 4.119386196136475 14.574912071228027 5.089667320251465 C11.165037155151367 6.368370532989502 9.816868782043457 9.331449508666992 8.997742652893066 12.514593124389648 C8.617076873779297 13.993910789489746 8.650420188903809 15.653836250305176 8.838808059692383 17.189836502075195 C9.267820358276367 20.685291290283203 11.678518295288086 22.107925415039062 15.417379379272461 21.047061920166016 C15.709686279296875 19.565523147583008 16.025333404541016 17.966726303100586 16.357650756835938 16.28512954711914 C15.562420845031738 15.905573844909668 14.971138000488281 15.623270988464355 14.379301071166992 15.340411186218262 C14.409309387207031 15.199814796447754 14.43931770324707 15.058662414550781 14.469326972961426 14.918066024780273 C16.99616813659668 14.918066024780273 19.523012161254883 14.918066024780273 22.049854278564453 14.918066024780273 C20.097068786621094 15.748306274414062 19.932018280029297 17.530488967895508 19.77475357055664 19.192636489868164 C19.570247650146484 21.354373931884766 18.245975494384766 22.04790687561035 16.369321823120117 22.49803924560547 C13.957512855529785 23.076539993286133 11.617391586303711 23.141559600830078 9.295052528381348 22.267417907714844 C6.2113823890686035 21.106525421142578 4.33695125579834 18.16956329345703 4.5220046043396 14.88416862487793 C4.986025810241699 6.641782760620117 12.867751121520996 1.603102684020996 20.52163314819336 4.603971004486084"></path></svg>