<svg xmlns="http://www.w3.org/2000/svg" viewBox="0.0 0.0 24.0 24.0" height="200px" width="200px"><path fill="none" stroke="black" stroke-width=".3" stroke-opacity="1.0"  filling="0" d="M16.754764556884766 8.063401222229004 C19.835338592529297 9.114015579223633 21.55685043334961 12.042036056518555 21.059104919433594 15.304670333862305 C20.573604583740234 18.489917755126953 18.949527740478516 20.997581481933594 16.359460830688477 22.894474029541016 C13.563948631286621 24.940582275390625 10.646506309509277 26.034067153930664 6.298738956451416 26.58359146118164 C6.120017051696777 25.811359405517578 5.977485656738281 25.195581436157227 5.80767297744751 24.460651397705078 C8.26188850402832 23.13945198059082 10.709978103637695 21.822704315185547 12.021714210510254 18.80727195739746 C10.986689567565918 19.018285751342773 10.217242240905762 19.238208770751953 9.433319091796875 19.323949813842773 C5.89786958694458 19.71201515197754 3.5366334915161133 17.262252807617188 4.029926300048828 13.720678329467773 C4.380130767822266 11.20633316040039 5.865576267242432 9.528803825378418 8.098199844360352 8.472065925598145 C10.919878005981445 7.136389255523682 13.835651397705078 7.067907810211182 16.754764556884766 8.063401222229004"></path>
<path fill="none" stroke="black" stroke-width=".3" stroke-opacity="1.0"  filling="0" d="M12.645288467407227 9.980895042419434 C11.321861267089844 11.8243408203125 11.58576774597168 13.59652042388916 11.948221206665039 15.455554008483887 C13.727081298828125 14.273545265197754 13.950343132019043 12.790325164794922 12.645288467407227 9.980895042419434"></path></svg>