<svg xmlns="http://www.w3.org/2000/svg" viewBox="0.0 0.0 24.0 24.0" height="200px" width="200px"><path fill="none" stroke="black" stroke-width=".3" stroke-opacity="1.0"  filling="0" d="M7.608686447143555 7.0143513679504395 L7.608686447143555 7.0143513679504395 C9.183760643005371 7.0143513679504395 10.758834838867188 7.0143513679504395 12.33390998840332 7.0143513679504395 C13.908984184265137 7.0143513679504395 15.484058380126953 7.0143513679504395 17.059131622314453 7.0143513679504395 L17.059131622314453 7.0143513679504395 C17.059131622314453 7.058866500854492 17.059131622314453 10.2545747756958 17.059131622314453 10.255030632019043 L17.059131622314453 10.255030632019043 C16.432424545288086 10.255030632019043 15.805718421936035 10.255030632019043 15.179012298583984 10.255030632019043 L15.179012298583984 10.255030632019043 C15.097976684570312 9.804315567016602 15.01694107055664 9.353601455688477 14.935905456542969 8.902886390686035 L14.935905456542969 8.902886390686035 C14.93569278717041 8.902886390686035 11.76390266418457 8.902886390686035 11.763204574584961 8.902886390686035 L11.763204574584961 8.902886390686035 C11.763204574584961 9.62983512878418 11.763204574584961 10.35678482055664 11.763204574584961 11.083733558654785 L11.763204574584961 11.083733558654785 C11.831277847290039 11.088712692260742 14.24413013458252 11.265249252319336 14.293984413146973 11.26889705657959 L14.293984413146973 11.26889705657959 C14.331643104553223 11.84100341796875 14.369301795959473 12.413110733032227 14.406960487365723 12.985217094421387 L14.406960487365723 12.985217094421387 C14.096891403198242 13.004461288452148 12.057668685913086 13.13087272644043 11.748961448669434 13.14998722076416 L11.748961448669434 13.14998722076416 C11.748961448669434 13.182853698730469 11.748961448669434 15.89625358581543 11.748961448669434 15.902509689331055 L11.748961448669434 15.902509689331055 C12.823144912719727 15.902509689331055 13.897329330444336 15.902509689331055 14.971513748168945 15.902509689331055 L14.971513748168945 15.902509689331055 C15.029350280761719 15.431293487548828 15.087186813354492 14.960076332092285 15.145023345947266 14.488860130310059 L15.145023345947266 14.488860130310059 C15.781656265258789 14.488860130310059 16.418289184570312 14.488860130310059 17.054922103881836 14.488860130310059 L17.054922103881836 14.488860130310059 C17.054922103881836 15.597249031066895 17.054922103881836 16.705638885498047 17.054922103881836 17.814027786254883 L17.054922103881836 17.814027786254883 C15.476394653320312 17.814294815063477 13.897867202758789 17.814453125 12.319340705871582 17.81454849243164 C10.740814208984375 17.81464195251465 9.162287712097168 17.81467056274414 7.5837602615356445 17.814674377441406 L7.5837602615356445 17.814674377441406 C7.5837602615356445 17.290369033813477 7.5837602615356445 16.76606559753418 7.5837602615356445 16.24176025390625 L7.5837602615356445 16.24176025390625 C7.973617076873779 16.105260848999023 8.363473892211914 15.968762397766113 8.753331184387207 15.832263946533203 L8.753331184387207 15.832263946533203 C8.753331184387207 13.581064224243164 8.753331184387207 11.32986068725586 8.753331184387207 9.078661918640137 L8.753331184387207 9.078661918640137 C8.371783256530762 8.924359321594238 7.990234851837158 8.770055770874023 7.608686447143555 8.615753173828125 L7.608686447143555 8.615753173828125 C7.608686447143555 8.081953048706055 7.608686447143555 7.548151969909668 7.608686447143555 7.0143513679504395 L7.608686447143555 7.0143513679504395"></path></svg>