<svg xmlns="http://www.w3.org/2000/svg" viewBox="0.0 0.0 24.0 24.0" height="200px" width="200px"><path fill="none" stroke="black" stroke-width=".3" stroke-opacity="1.0"  filling="0" d="M7.623856067657471 7.047663688659668 L7.623856067657471 7.047663688659668 C9.24648666381836 7.047663688659668 10.869117736816406 7.047663688659668 12.491748809814453 7.047663688659668 C14.1143798828125 7.047663688659668 15.737010955810547 7.047663688659668 17.359642028808594 7.047663688659668 L17.359642028808594 7.047663688659668 C17.359642028808594 7.212682723999023 17.359642028808594 10.040105819702148 17.359642028808594 10.141759872436523 L17.359642028808594 10.141759872436523 C16.758543014526367 10.168557167053223 16.157445907592773 10.195353507995605 15.556346893310547 10.222150802612305 L15.556346893310547 10.222150802612305 C15.415229797363281 9.782591819763184 15.274112701416016 9.343031883239746 15.13299560546875 8.903472900390625 L15.13299560546875 8.903472900390625 C14.120323181152344 8.903472900390625 13.107651710510254 8.903472900390625 12.094979286193848 8.903472900390625 L12.094979286193848 8.903472900390625 C12.094979286193848 9.632506370544434 12.094979286193848 10.361538887023926 12.094979286193848 11.090572357177734 L12.094979286193848 11.090572357177734 C12.827685356140137 11.156174659729004 13.560392379760742 11.221762657165527 14.293100357055664 11.287337303161621 L14.293100357055664 11.287337303161621 C14.318492889404297 11.85245418548584 14.343884468078613 12.417571067810059 14.369277000427246 12.982687950134277 L14.369277000427246 12.982687950134277 C13.617448806762695 13.041194915771484 12.865615844726562 13.099651336669922 12.11378002166748 13.158058166503906 L12.11378002166748 13.158058166503906 C12.11378002166748 13.286674499511719 12.11378002166748 15.853562355041504 12.11378002166748 15.945175170898438 L12.11378002166748 15.945175170898438 C12.606825828552246 16.01919174194336 13.099871635437012 16.09320831298828 13.592917442321777 16.167224884033203 L13.592917442321777 16.167224884033203 C13.621875762939453 16.727155685424805 13.650833129882812 17.287084579467773 13.679791450500488 17.847015380859375 L13.679791450500488 17.847015380859375 C11.662983894348145 17.847518920898438 9.646174430847168 17.8476505279541 7.629366874694824 17.84766387939453 L7.629366874694824 17.84766387939453 C7.629366874694824 17.315935134887695 7.629366874694824 16.78420639038086 7.629366874694824 16.252477645874023 L7.629366874694824 16.252477645874023 C8.104043006896973 16.132322311401367 8.578720092773438 16.012168884277344 9.053396224975586 15.892013549804688 L9.053396224975586 15.892013549804688 C9.053396224975586 13.580437660217285 9.053396224975586 11.26885986328125 9.053396224975586 8.957283973693848 L9.053396224975586 8.957283973693848 C8.576883316040039 8.857659339904785 8.100369453430176 8.758033752441406 7.623856067657471 8.658409118652344 L7.623856067657471 8.658409118652344 C7.623856067657471 8.12149429321289 7.623856067657471 7.584578990936279 7.623856067657471 7.047663688659668 L7.623856067657471 7.047663688659668"></path></svg>