<svg xmlns="http://www.w3.org/2000/svg" viewBox="0.0 0.0 24.0 24.0" height="200px" width="200px"><path fill="none" stroke="black" stroke-width=".3" stroke-opacity="1.0"  filling="0" d="M11.179750442504883 9.376459121704102 L11.179750442504883 9.376459121704102 C11.888922691345215 9.376459121704102 12.59809398651123 9.376459121704102 13.307266235351562 9.376459121704102 L13.307266235351562 9.376459121704102 C13.045754432678223 11.178369522094727 12.908703804016113 13.082670211791992 12.601295471191406 14.934310913085938 C12.293886184692383 16.785953521728516 11.816119194030762 18.584936141967773 10.873174667358398 20.176212310791016 L10.873174667358398 20.176212310791016 C10.050374031066895 20.176212310791016 9.227572441101074 20.176212310791016 8.40477180480957 20.176212310791016 L8.40477180480957 20.176212310791016 C8.300440788269043 19.716596603393555 8.196109771728516 19.25697898864746 8.091778755187988 18.79736328125 L8.091778755187988 18.79736328125 C9.035614967346191 18.623703002929688 9.28695011138916 18.701988220214844 9.951720237731934 17.43011474609375 C10.425653457641602 16.523361206054688 10.24350357055664 15.404720306396484 10.39772891998291 14.393270492553711 C10.652847290039062 12.720141410827637 10.91281509399414 11.047741889953613 11.179750442504883 9.376459121704102 L11.179750442504883 9.376459121704102"></path></svg>