<svg xmlns="http://www.w3.org/2000/svg" viewBox="0.0 0.0 24.0 24.0" height="200px" width="200px"><path fill="none" stroke="black" stroke-width=".3" stroke-opacity="1.0"  filling="0" d="M4.0279364585876465 3.1779870986938477 C7.650839328765869 3.1779870986938477 11.058727264404297 3.1779870986938477 14.690877914428711 3.1779870986938477 C14.742898941040039 4.074465274810791 14.795495986938477 4.988282680511475 14.856185913085938 6.030416965484619 C13.908266067504883 6.228093147277832 13.093286514282227 6.398603439331055 12.120512008666992 6.601480960845947 C12.120512008666992 10.662508010864258 12.120512008666992 14.755325317382812 12.120512008666992 19.054489135742188 C13.931964874267578 19.054489135742188 15.686193466186523 19.054489135742188 17.73404884338379 19.054489135742188 C17.73404884338379 17.193328857421875 17.73404884338379 15.404998779296875 17.73404884338379 13.452512741088867 C19.118358612060547 13.452512741088867 20.215980529785156 13.452512741088867 21.494516372680664 13.452512741088867 C21.494516372680664 16.414762496948242 21.494516372680664 19.266035079956055 21.494516372680664 22.37740707397461 C15.876935005187988 22.377410888671875 10.172653198242188 22.377410888671875 4.14353609085083 22.377410888671875 C4.14353609085083 21.4063720703125 4.14353609085083 20.570003509521484 4.14353609085083 19.594919204711914 C4.9799017906188965 19.389150619506836 5.781587600708008 19.192052841186523 6.702341556549072 18.965478897094727 C6.702341556549072 14.944331169128418 6.702341556549072 10.926654815673828 6.702341556549072 6.696273326873779 C5.998915672302246 6.513625144958496 5.2122578620910645 6.308434963226318 4.1631879806518555 6.035040855407715 C4.1238837242126465 5.201565265655518 4.081111907958984 4.295838832855225 4.0279364585876465 3.1779870986938477"></path></svg>