<svg xmlns="http://www.w3.org/2000/svg" viewBox="0.0 0.0 24.0 24.0" height="200px" width="200px"><path fill="none" stroke="black" stroke-width=".3" stroke-opacity="1.0"  filling="0" d="M7.515714645385742 7.037618160247803 L7.515714645385742 7.037618160247803 C9.515016555786133 7.037618160247803 11.514315605163574 7.037618160247803 13.513618469238281 7.037618160247803 L13.513618469238281 7.037618160247803 C13.5446138381958 7.57244873046875 13.57560920715332 8.107278823852539 13.60660457611084 8.642109870910645 L13.60660457611084 8.642109870910645 C13.093666076660156 8.749184608459473 12.580726623535156 8.856258392333984 12.067788124084473 8.963333129882812 L12.067788124084473 8.963333129882812 C12.067788124084473 11.298272132873535 12.067788124084473 13.633212089538574 12.067788124084473 15.96815013885498 L12.067788124084473 15.96815013885498 C12.146047592163086 15.96815013885498 15.210694313049316 15.96815013885498 15.225401878356934 15.96815013885498 L15.225401878356934 15.96815013885498 C15.225401878356934 15.930320739746094 15.225401878356934 12.829801559448242 15.225401878356934 12.817038536071777 L15.225401878356934 12.817038536071777 C15.930489540100098 12.817038536071777 16.635578155517578 12.817038536071777 17.340665817260742 12.817038536071777 L17.340665817260742 12.817038536071777 C17.340665817260742 14.490455627441406 17.340665817260742 16.16387367248535 17.340665817260742 17.837291717529297 L17.340665817260742 17.837291717529297 C15.714010238647461 17.837291717529297 14.087356567382812 17.837291717529297 12.460701942443848 17.837291717529297 C10.8340482711792 17.83729362487793 9.207393646240234 17.83729362487793 7.580739498138428 17.83729362487793 L7.580739498138428 17.83729362487793 C7.580739498138428 17.315576553344727 7.580739498138428 16.793859481811523 7.580739498138428 16.27214241027832 L7.580739498138428 16.27214241027832 C8.060515403747559 16.15412139892578 8.540290832519531 16.036102294921875 9.02006721496582 15.918081283569336 L9.02006721496582 15.918081283569336 C9.02006721496582 13.617605209350586 9.02006721496582 11.317130088806152 9.02006721496582 9.016654014587402 L9.02006721496582 9.016654014587402 C8.543975830078125 8.892672538757324 8.06788444519043 8.768692016601562 7.591793537139893 8.644710540771484 L7.591793537139893 8.644710540771484 C7.566433906555176 8.109012603759766 7.541074275970459 7.573315620422363 7.515714645385742 7.037618160247803 L7.515714645385742 7.037618160247803"></path></svg>