<svg xmlns="http://www.w3.org/2000/svg" viewBox="0.0 0.0 24.0 24.0" height="200px" width="200px"><path fill="none" stroke="black" stroke-width=".3" stroke-opacity="1.0"  filling="0" d="M9.581348419189453 10.478172302246094 L9.581348419189453 10.478172302246094 C11.460399627685547 10.453720092773438 14.090173721313477 10.00155258178711 15.813246726989746 10.9716796875 C17.6995849609375 12.03372859954834 17.775672912597656 15.123220443725586 16.159013748168945 16.45134735107422 C14.878984451293945 17.5029239654541 12.913811683654785 17.455289840698242 11.37403392791748 17.6207218170166 L11.37403392791748 17.6207218170166 C11.177263259887695 18.827579498291016 10.98056697845459 20.03445053100586 10.783946990966797 21.2413330078125 L10.783946990966797 21.2413330078125 C10.687162399291992 21.2413330078125 8.032258033752441 21.2413330078125 7.9840779304504395 21.2413330078125 L7.9840779304504395 21.2413330078125 C8.250231742858887 19.447463989257812 8.51641845703125 17.653600692749023 8.782631874084473 15.859740257263184 C9.048845291137695 14.065879821777344 9.315086364746094 12.272024154663086 9.581348419189453 10.478172302246094 L9.581348419189453 10.478172302246094"></path>
<path fill="none" stroke="black" stroke-width=".3" stroke-opacity="1.0"  filling="0" d="M12.11052131652832 12.568463325500488 L12.11052131652832 12.568463325500488 C12.553053855895996 12.653833389282227 16.19356918334961 13.721664428710938 13.737905502319336 14.989036560058594 C13.133376121520996 15.301034927368164 12.389226913452148 15.168646812438965 11.714887619018555 15.258452415466309 L11.714887619018555 15.258452415466309 C11.84663200378418 14.361769676208496 11.978497505187988 13.465105056762695 12.11052131652832 12.568463325500488 L12.11052131652832 12.568463325500488"></path></svg>