<svg xmlns="http://www.w3.org/2000/svg" viewBox="0.0 0.0 24.0 24.0" height="200px" width="200px"><path fill="none" stroke="black" stroke-width=".3" stroke-opacity="1.0"  filling="0" d="M5.716242790222168 3.118191719055176 C10.670450210571289 3.118191719055176 15.510045051574707 3.118191719055176 20.365190505981445 3.118191719055176 C21.074745178222656 4.84888219833374 20.510326385498047 6.171232223510742 19.55714988708496 7.477456092834473 C17.240158081054688 10.652018547058105 14.97154426574707 13.862289428710938 12.689682960510254 17.062768936157227 C12.316476821899414 17.586294174194336 11.974946022033691 18.132858276367188 11.407072067260742 18.98812484741211 C13.519607543945312 18.98812484741211 15.26872730255127 18.98812484741211 17.259164810180664 18.98812484741211 C17.36801528930664 18.066051483154297 17.487234115600586 17.06046485900879 17.634675979614258 15.810107231140137 C18.5728759765625 15.810107231140137 19.547937393188477 15.810107231140137 20.685985565185547 15.810107231140137 C20.685985565185547 17.911123275756836 20.685985565185547 19.993709564208984 20.685985565185547 22.318191528320312 C15.642511367797852 22.318191528320312 10.531649589538574 22.318191528320312 5.2451276779174805 22.318191528320312 C4.601230621337891 20.262096405029297 5.302145481109619 18.708221435546875 6.466113090515137 17.156648635864258 C8.985260009765625 13.798361778259277 11.381731986999512 10.348501205444336 14.084026336669922 6.5795722007751465 C12.150031089782715 6.5795722007751465 10.632438659667969 6.5795722007751465 8.959918022155762 6.5795722007751465 C8.86604118347168 7.573062896728516 8.777922630310059 8.504352569580078 8.666190147399902 9.691932678222656 C7.763697624206543 9.745495796203613 6.8577494621276855 9.799057006835938 5.716242790222168 9.86701774597168 C5.716242790222168 7.532746315002441 5.716242790222168 5.3983259201049805 5.716242790222168 3.118191719055176"></path></svg>