<svg xmlns="http://www.w3.org/2000/svg" viewBox="0.0 0.0 24.0 24.0" height="200px" width="200px"><path fill="none" stroke="black" stroke-width=".3" stroke-opacity="1.0"  filling="0" d="M12.342092514038086 2.5895261764526367 C14.215127944946289 2.5895261764526367 16.110395431518555 2.5895261764526367 18.30857276916504 2.5895261764526367 C18.30857276916504 7.55668306350708 18.30857276916504 12.580530166625977 18.30857276916504 17.39150619506836 C20.401702880859375 18.847694396972656 20.401702880859375 18.847694396972656 20.191057205200195 21.43993377685547 C18.166288375854492 21.235397338867188 16.140409469604492 20.997516632080078 14.108415603637695 20.850786209106445 C13.643770217895508 20.81743812561035 13.138550758361816 21.055320739746094 12.6827974319458 21.243736267089844 C9.805437088012695 22.43369483947754 7.365488529205322 21.677255630493164 5.859835147857666 18.972192764282227 C4.37363338470459 16.30325698852539 4.278036594390869 13.488146781921387 5.57804536819458 10.735840797424316 C7.159287929534912 7.386053085327148 10.04276180267334 6.699644088745117 14.12675666809082 8.709405899047852 C14.15954875946045 8.080799102783203 14.187337875366211 7.716752052307129 14.194563865661621 7.352149486541748 C14.204012870788574 6.894172668457031 14.196786880493164 6.436196327209473 14.196786880493164 6.027130126953125 C12.148675918579102 4.9188714027404785 12.148675918579102 4.9188714027404785 12.342092514038086 2.5895261764526367"></path>
<path fill="none" stroke="black" stroke-width=".3" stroke-opacity="1.0"  filling="0" d="M13.561511039733887 12.141450881958008 C14.04116439819336 12.975702285766602 14.141206741333008 14.028380393981934 14.400764465332031 14.938776016235352 C14.0706205368042 15.863622665405273 13.917776107788086 16.709545135498047 13.4948148727417 17.387615203857422 C12.514945983886719 18.960521697998047 10.61967945098877 18.91939353942871 9.708727836608887 17.287017822265625 C8.805558204650879 15.667981147766113 8.798888206481934 13.892210006713867 9.615910530090332 12.254277229309082 C10.501850128173828 10.479063034057617 12.571081161499023 10.419036865234375 13.561511039733887 12.141450881958008"></path></svg>