<svg xmlns="http://www.w3.org/2000/svg" viewBox="0.0 0.0 24.0 24.0" height="200px" width="200px"><path fill="none" stroke="black" stroke-width=".3" stroke-opacity="1.0"  filling="0" d="M10.088850975036621 7.019107341766357 L10.088850975036621 7.019107341766357 C11.21614933013916 7.019107341766357 12.343448638916016 7.019107341766357 13.470746994018555 7.019107341766357 L13.470746994018555 7.019107341766357 C13.470746994018555 8.499480247497559 13.470746994018555 9.979852676391602 13.470746994018555 11.460226058959961 C13.470746994018555 12.940598487854004 13.470746994018555 14.420970916748047 13.470746994018555 15.901344299316406 L13.470746994018555 15.901344299316406 C13.846620559692383 16.04438018798828 14.222495079040527 16.18741798400879 14.598368644714355 16.330453872680664 L14.598368644714355 16.330453872680664 C14.598368644714355 16.826671600341797 14.598368644714355 17.32288932800293 14.598368644714355 17.819107055664062 L14.598368644714355 17.819107055664062 C13.10949993133545 17.819107055664062 11.620631217956543 17.819107055664062 10.13176155090332 17.819107055664062 L10.13176155090332 17.819107055664062 C10.096769332885742 17.404569625854492 9.848355293273926 16.9512996673584 10.02678394317627 16.575496673583984 C10.198736190795898 16.213333129882812 10.698382377624512 16.137460708618164 11.034181594848633 15.91844367980957 L11.034181594848633 15.91844367980957 C11.034181594848633 13.602437019348145 11.034181594848633 11.286431312561035 11.034181594848633 8.97042465209961 L11.034181594848633 8.97042465209961 C10.71518611907959 8.748570442199707 10.246603012084961 8.654545783996582 10.07719612121582 8.304862022399902 C9.89033031463623 7.919140338897705 10.084965705871582 7.447692394256592 10.088850975036621 7.019107341766357 L10.088850975036621 7.019107341766357"></path></svg>