<svg xmlns="http://www.w3.org/2000/svg" viewBox="0.0 0.0 24.0 24.0" height="200px" width="200px"><path fill="none" stroke="black" stroke-width=".3" stroke-opacity="1.0"  filling="0" d="M4.401698112487793 5.735161304473877 C6.758565902709961 5.918351650238037 9.103951454162598 4.9023284912109375 11.148575782775879 6.646738529205322 C15.455465316772461 4.047074794769287 19.017562866210938 5.780001640319824 19.599397659301758 10.803247451782227 C19.724077224731445 11.879424095153809 19.722436904907227 12.997159004211426 19.58681869506836 14.071693420410156 C19.011547088623047 18.629581451416016 15.592172622680664 20.29798126220703 10.652046203613281 18.21781349182129 C10.652046203613281 19.45038414001465 10.652046203613281 20.431955337524414 10.652046203613281 21.52945899963379 C11.406682014465332 21.73288345336914 12.085853576660156 21.916072845458984 12.904468536376953 22.13699722290039 C12.94165325164795 22.87303924560547 12.981573104858398 23.67032814025879 13.03078842163086 24.64698028564453 C10.133098602294922 24.64698028564453 7.356258869171143 24.64698028564453 4.367794036865234 24.64698028564453 C4.324047088623047 23.869922637939453 4.280300140380859 23.09833526611328 4.232725620269775 22.262222290039062 C4.991734981536865 21.985523223876953 5.640284061431885 21.749290466308594 6.341329574584961 21.493915557861328 C6.341329574584961 17.334672927856445 6.341329574584961 13.245969772338867 6.341329574584961 9.030949592590332 C5.734886646270752 8.826433181762695 5.1574273109436035 8.631758689880371 4.401698112487793 8.376384735107422 C4.401698112487793 7.609172344207764 4.401698112487793 6.767590045928955 4.401698112487793 5.735161304473877"></path>
<path fill="none" stroke="black" stroke-width=".3" stroke-opacity="1.0"  filling="0" d="M13.046099662780762 8.604413986206055 C14.606772422790527 8.576525688171387 15.133377075195312 9.78011417388916 15.399686813354492 11.103460311889648 C15.47022819519043 11.455623626708984 15.515615463256836 11.812707901000977 15.534754753112793 11.932465553283691 C15.565925598144531 14.52666187286377 14.590368270874023 16.068195343017578 13.075082778930664 16.063819885253906 C11.550500869750977 16.05889892578125 10.557991027832031 14.518458366394043 10.595723152160645 12.190572738647461 C10.601737976074219 11.831847190856934 10.663530349731445 11.473121643066406 10.708917617797852 11.116037368774414 C10.887187004089355 9.717774391174316 11.535736083984375 8.631755828857422 13.046099662780762 8.604413986206055"></path></svg>