<svg xmlns="http://www.w3.org/2000/svg" viewBox="0.0 0.0 24.0 24.0" height="200px" width="200px"><path fill="none" stroke="black" stroke-width=".3" stroke-opacity="1.0"  filling="0" d="M4.941303730010986 15.268061637878418 C6.968709468841553 15.268061637878418 8.620990753173828 15.268061637878418 10.68019962310791 15.268061637878418 C10.290619850158691 18.468544006347656 9.874296188354492 21.499895095825195 9.570727348327637 24.543533325195312 C9.427617073059082 25.97319793701172 8.401265144348145 27.752687454223633 10.491552352905273 28.605573654174805 C11.726788520812988 29.109350204467773 14.610692977905273 26.951120376586914 14.988706588745117 25.157175064086914 C15.506219863891602 22.69826889038086 15.764253616333008 20.18515396118164 16.135040283203125 17.69588851928711 C16.239120483398438 16.999126434326172 16.347537994384766 16.30308723449707 16.487035751342773 15.388043403625488 C18.349645614624023 15.388043403625488 20.08866310119629 15.388043403625488 22.351696014404297 15.388043403625488 C21.495197296142578 21.262100219726562 20.643035888671875 27.1029052734375 19.80027198791504 32.88227844238281 C15.67029094696045 33.3557014465332 14.667791366577148 33.84935760498047 13.491100311279297 31.833520889282227 C12.744466781616211 32.17323303222656 12.005060195922852 32.55774688720703 11.230958938598633 32.853363037109375 C6.259659767150879 34.75212097167969 2.686944007873535 32.19780349731445 3.200119972229004 26.927270889282227 C3.569462776184082 23.13121795654297 4.313928127288818 19.371299743652344 4.941303730010986 15.268061637878418"></path></svg>