<svg xmlns="http://www.w3.org/2000/svg" viewBox="0.0 0.0 24.0 24.0" height="200px" width="200px"><path fill="none" stroke="black" stroke-width=".3" stroke-opacity="1.0"  filling="0" d="M6.74906063079834 2.62429141998291 C10.349926948547363 2.62429141998291 13.693824768066406 2.62429141998291 17.263675689697266 2.62429141998291 C17.263675689697266 3.872023582458496 17.263675689697266 5.185104846954346 17.263675689697266 6.730784893035889 C14.670743942260742 7.351050853729248 12.542455673217773 3.672098159790039 9.688677787780762 6.051815509796143 C9.688677787780762 7.004366874694824 9.688677787780762 8.253205299377441 9.688677787780762 9.516443252563477 C14.941001892089844 8.635887145996094 17.665740966796875 10.10181999206543 18.32809829711914 14.114164352416992 C18.950023651123047 17.880619049072266 16.80678367614746 21.067237854003906 13.236932754516602 21.684181213378906 C9.255599975585938 22.37200927734375 6.470495223999023 20.515087127685547 5.785987377166748 16.435178756713867 C6.8747758865356445 16.320539474487305 7.7730536460876465 16.225839614868164 8.61041259765625 16.137229919433594 C10.438535690307617 18.597803115844727 11.620918273925781 19.14662742614746 12.983840942382812 18.230073928833008 C14.10142707824707 17.478553771972656 14.444234848022461 14.820825576782227 13.607430458068848 13.398090362548828 C12.740718841552734 11.924406051635742 11.592119216918945 11.918867111206055 9.045705795288086 13.42910385131836 C8.280342102050781 13.044206619262695 7.46513557434082 12.633832931518555 6.74906063079834 12.273858070373535 C6.74906063079834 9.050690650939941 6.74906063079834 5.947145462036133 6.74906063079834 2.62429141998291"></path></svg>