<svg xmlns="http://www.w3.org/2000/svg" viewBox="0.0 0.0 24.0 24.0" height="200px" width="200px"><path fill="none" stroke="black" stroke-width=".3" stroke-opacity="1.0"  filling="0" d="M5.0352888107299805 2.589291572570801 C9.774286270141602 2.589291572570801 14.082210540771484 2.589291572570801 18.559324264526367 2.589291572570801 C18.559324264526367 4.5447492599487305 18.559324264526367 6.436551094055176 18.559324264526367 8.456222534179688 C17.476062774658203 8.456222534179688 16.50782585144043 8.456222534179688 15.41004467010498 8.456222534179688 C15.324053764343262 7.4394073486328125 15.248672485351562 6.543201923370361 15.158772468566895 5.478365898132324 C14.116271018981934 5.478365898132324 13.151384353637695 5.478365898132324 11.9737548828125 5.478365898132324 C11.9737548828125 7.072549343109131 11.9737548828125 8.605311393737793 11.9737548828125 10.320104598999023 C12.644930839538574 10.531732559204102 13.391489028930664 10.76681137084961 14.210078239440918 11.02534294128418 C14.210078239440918 11.776368141174316 14.210078239440918 12.49277400970459 14.210078239440918 13.329790115356445 C13.443418502807617 13.481111526489258 12.74878978729248 13.618474960327148 12.159137725830078 13.735176086425781 C11.438823699951172 14.613512992858887 11.670552253723145 18.65676498413086 12.541070938110352 18.944332122802734 C14.251398086547852 19.509414672851562 13.414941787719727 20.661361694335938 13.546160697937012 21.789852142333984 C10.890493392944336 21.78985023498535 8.329190254211426 21.78985023498535 5.489253997802734 21.78985023498535 C5.437324523925781 20.565874099731445 4.7801079750061035 19.41448974609375 6.481500625610352 18.913618087768555 C6.801454067230225 18.81981086730957 6.994095802307129 17.81081199645996 7.002471923828125 17.22060203552246 C7.0488176345825195 13.878120422363281 7.02871561050415 10.534523010253906 7.012523174285889 7.191483497619629 C7.0086140632629395 6.384063243865967 7.083437442779541 5.662632465362549 6.04875373840332 5.13998556137085 C5.504330158233643 4.8647027015686035 5.428948879241943 3.6619462966918945 5.0352888107299805 2.589291572570801"></path></svg>