<svg xmlns="http://www.w3.org/2000/svg" viewBox="0.0 0.0 24.0 24.0" height="200px" width="200px"><path fill="none" stroke="black" stroke-width=".3" stroke-opacity="1.0"  filling="0" d="M17.25305938720703 3.734147071838379 C19.410682678222656 3.734147071838379 21.214035034179688 3.734147071838379 23.237770080566406 3.734147071838379 C17.236469268798828 8.44691276550293 12.199647903442383 13.551864624023438 10.794408798217773 21.370731353759766 C11.625585556030273 21.828083038330078 12.320504188537598 22.210792541503906 13.63450813293457 22.933555603027344 C10.16169548034668 22.933555603027344 7.4388957023620605 22.933555603027344 4.371896266937256 22.933555603027344 C7.631434917449951 21.141460418701172 9.482772827148438 17.174562454223633 8.889752388000488 13.705896377563477 C8.591760635375977 11.962972640991211 8.25644588470459 10.22301197052002 7.854187488555908 8.501416206359863 C7.450152397155762 6.77211856842041 7.680607318878174 4.66366720199585 4.7883734703063965 4.2750349044799805 C4.982689380645752 4.105007648468018 5.176413536071777 3.9355735778808594 5.370729923248291 3.7655467987060547 C7.673497676849365 3.7655467987060547 9.976858139038086 3.7655467987060547 12.661742210388184 3.7655467987060547 C11.823456764221191 4.372192859649658 11.194890975952148 4.82717752456665 10.43125057220459 5.379912376403809 C10.93244457244873 7.879366397857666 11.43067741394043 10.366379737854004 12.06872272491455 13.55127239227295 C13.466259956359863 11.875293731689453 14.502416610717773 10.666741371154785 15.500065803527832 9.42738151550293 C16.543331146240234 8.13174057006836 17.549274444580078 6.806479454040527 18.63637924194336 5.411312103271484 C18.190874099731445 4.871016502380371 17.818828582763672 4.420179843902588 17.25305938720703 3.734147071838379"></path></svg>