<svg xmlns="http://www.w3.org/2000/svg" viewBox="0.0 0.0 24.0 24.0" height="200px" width="200px"><path fill="none" stroke="black" stroke-width=".3" stroke-opacity="1.0"  filling="0" d="M5.134670734405518 2.53619384765625 C8.129273414611816 2.53619384765625 10.800000190734863 2.2898263931274414 13.405397415161133 2.5970935821533203 C16.866159439086914 3.005674362182617 18.707542419433594 5.302145481109619 18.719167709350586 8.548650741577148 C18.730241775512695 11.641799926757812 17.495084762573242 13.282768249511719 14.46228313446045 14.125951766967773 C13.504498481750488 14.392250061035156 12.519030570983887 14.559446334838867 11.354186058044434 14.814671516418457 C11.65038013458252 16.32276725769043 10.240276336669922 18.152524948120117 12.605398178100586 19.25702476501465 C12.982975959777832 19.43363380432129 12.846780776977539 20.710865020751953 12.970242500305176 21.64373779296875 C10.332179069519043 21.64263153076172 7.976470470428467 21.64263153076172 5.382144927978516 21.64263153076172 C5.303529262542725 20.386436462402344 4.78366756439209 19.27640151977539 6.299515247344971 18.660205841064453 C6.615086078643799 18.531763076782227 6.657716274261475 17.49868392944336 6.6643595695495605 16.880828857421875 C6.697577476501465 13.75390911102295 6.738546848297119 10.624773979187012 6.632248878479004 7.501175403594971 C6.60512113571167 6.718338966369629 5.9944634437561035 5.969826698303223 5.745328426361084 5.1764702796936035 C5.4967474937438965 4.385882377624512 5.365536212921143 3.5587549209594727 5.134670734405518 2.53619384765625"></path>
<path fill="none" stroke="black" stroke-width=".3" stroke-opacity="1.0"  filling="0" d="M11.516401290893555 5.438892841339111 C13.55211067199707 5.73065710067749 13.848304748535156 7.105882167816162 13.855502128601074 8.487751007080078 C13.86214542388916 9.864082336425781 13.605813980102539 11.257577896118164 11.516401290893555 11.48954963684082 C11.516401290893555 9.478754043579102 11.516401290893555 7.556540012359619 11.516401290893555 5.438892841339111"></path></svg>