<svg xmlns="http://www.w3.org/2000/svg" viewBox="0.0 0.0 24.0 24.0" height="200px" width="200px"><path fill="none" stroke="black" stroke-width=".3" stroke-opacity="1.0"  filling="0" d="M12.213239669799805 6.616659641265869 L12.213239669799805 6.616659641265869 C14.131248474121094 7.33365535736084 14.994782447814941 8.959928512573242 15.00577163696289 10.677177429199219 C15.016759872436523 12.394427299499512 14.175203323364258 14.202651977539062 12.683032035827637 15.283552169799805 L12.683032035827637 15.283552169799805 C13.335205078125 15.613166809082031 13.987378120422363 15.94278335571289 14.63955020904541 16.27239990234375 L14.63955020904541 16.27239990234375 C14.592268943786621 16.65239143371582 14.544988632202148 17.03238296508789 14.49770736694336 17.41237449645996 L14.49770736694336 17.41237449645996 C13.32735824584961 17.022523880004883 12.157002449035645 16.632694244384766 10.986637115478516 16.242891311645508 L10.986637115478516 16.242891311645508 C10.94887638092041 16.31341552734375 10.911114692687988 16.383939743041992 10.873353958129883 16.454463958740234 L10.873353958129883 16.454463958740234 C10.712552070617676 16.181171417236328 10.551749229431152 15.907879829406738 10.390947341918945 15.634587287902832 L10.390947341918945 15.634587287902832 C10.642106056213379 15.487826347351074 10.893265724182129 15.341066360473633 11.144424438476562 15.194305419921875 L11.144424438476562 15.194305419921875 C10.079357147216797 13.82843017578125 9.291605949401855 11.987152099609375 9.297598838806152 10.335775375366211 C9.303592681884766 8.684399604797363 10.1033296585083 7.222926139831543 12.213239669799805 6.616659641265869 L12.213239669799805 6.616659641265869"></path>
<path fill="none" stroke="black" stroke-width=".3" stroke-opacity="1.0"  filling="0" d="M12.309625625610352 7.981771945953369 L12.309625625610352 7.981771945953369 C12.819989204406738 9.307385444641113 13.110074043273926 11.705649375915527 12.704927444458008 13.109747886657715 C12.611257553100586 13.43437671661377 12.425248146057129 13.901900291442871 12.087580680847168 13.913679122924805 C11.776813507080078 13.924519538879395 11.630714416503906 13.450762748718262 11.551864624023438 13.149969100952148 C11.174532890319824 11.710540771484375 11.362071990966797 9.349776268005371 11.897188186645508 7.994147777557373 L11.897188186645508 7.994147777557373 C12.034667015075684 7.990022659301758 12.172146797180176 7.985897064208984 12.309625625610352 7.981771945953369 L12.309625625610352 7.981771945953369"></path></svg>