<svg xmlns="http://www.w3.org/2000/svg" viewBox="0.0 0.0 24.0 24.0" height="200px" width="200px"><path fill="none" stroke="black" stroke-width=".3" stroke-opacity="1.0"  filling="0" d="M16.187000274658203 10.437118530273438 L16.187000274658203 10.437118530273438 C16.198486328125 10.604071617126465 16.209970474243164 10.771025657653809 16.22145652770996 10.937978744506836 L16.22145652770996 10.937978744506836 C15.486352920532227 10.971831321716309 13.243611335754395 11.074965476989746 12.536569595336914 11.107439041137695 L12.536569595336914 11.107439041137695 C12.384981155395508 12.741059303283691 12.534114837646484 14.502500534057617 12.540627479553223 16.227127075195312 C12.547140121459961 17.951751708984375 12.411031723022461 19.63956069946289 11.688958168029785 21.125919342041016 L11.688958168029785 21.125919342041016 C11.580469131469727 19.432109832763672 11.564985275268555 17.738088607788086 11.557426452636719 16.043777465820312 C11.549867630004883 14.349468231201172 11.550235748291016 12.654869079589844 11.473453521728516 10.959905624389648 L11.473453521728516 10.959905624389648 C10.251631736755371 10.959905624389648 9.029809951782227 10.959905624389648 7.807987689971924 10.959905624389648 L7.807987689971924 10.959905624389648 C7.813416957855225 10.787209510803223 7.818846702575684 10.61451244354248 7.824275970458984 10.441816329956055 L7.824275970458984 10.441816329956055 C9.221294403076172 10.376984596252441 10.61336898803711 10.347625732421875 12.0054931640625 10.348567008972168 C13.397616386413574 10.349508285522461 14.789788246154785 10.380748748779297 16.187000274658203 10.437118530273438 L16.187000274658203 10.437118530273438"></path></svg>