<svg xmlns="http://www.w3.org/2000/svg" viewBox="0.0 0.0 24.0 24.0" height="200px" width="200px"><path fill="none" stroke="black" stroke-width=".3" stroke-opacity="1.0"  filling="0" d="M7.796653747558594 10.306961059570312 L7.796653747558594 10.306961059570312 C9.568737983703613 11.598930358886719 10.75726318359375 13.326568603515625 12.345508575439453 14.823821067810059 L12.345508575439453 14.823821067810059 C13.811030387878418 13.135704040527344 14.951272010803223 11.454404830932617 17.022968292236328 10.579854965209961 L17.022968292236328 10.579854965209961 C15.611339569091797 12.22609806060791 14.199812889099121 13.872430801391602 12.788098335266113 15.518601417541504 L12.788098335266113 15.518601417541504 C14.296455383300781 17.286643981933594 15.804798126220703 19.05470085144043 17.313114166259766 20.822776794433594 L17.313114166259766 20.822776794433594 C15.090311050415039 20.001188278198242 13.881139755249023 17.983930587768555 12.351154327392578 16.214950561523438 L12.351154327392578 16.214950561523438 C10.713467597961426 17.852413177490234 9.368646621704102 19.661516189575195 7.549794673919678 21.106962203979492 L7.549794673919678 21.106962203979492 C7.444924354553223 21.009201049804688 7.340053558349609 20.911439895629883 7.235183238983154 20.813678741455078 L7.235183238983154 20.813678741455078 C8.734339714050293 19.05548095703125 10.233597755432129 17.29737091064453 11.732908248901367 15.53930377960205 L11.732908248901367 15.53930377960205 C10.333192825317383 13.882942199707031 8.933362007141113 12.226670265197754 7.533483982086182 10.57044506072998 L7.533483982086182 10.57044506072998 C7.621207237243652 10.482617378234863 7.708930492401123 10.39478874206543 7.796653747558594 10.306961059570312 L7.796653747558594 10.306961059570312"></path></svg>