<svg xmlns="http://www.w3.org/2000/svg" viewBox="0.0 0.0 24.0 24.0" height="200px" width="200px"><path fill="none" stroke="black" stroke-width=".3" stroke-opacity="1.0"  filling="0" d="M18.931385040283203 8.841731071472168 C19.138931274414062 9.030359268188477 19.346477508544922 9.21843147277832 19.554025650024414 9.407059669494629 C17.972665786743164 11.348424911499023 16.4914608001709 13.384385108947754 14.779898643493652 15.203336715698242 C13.278108596801758 16.799163818359375 12.592035293579102 18.510726928710938 12.74449634552002 20.696361541748047 C12.879151344299316 22.633834838867188 12.810710906982422 24.589670181274414 12.741713523864746 26.533817291259766 C12.723909378051758 27.04239273071289 12.37057876586914 27.539278030395508 12.171934127807617 28.041730880737305 C11.868683815002441 27.985530853271484 11.564874649047852 27.92877960205078 11.261068344116211 27.872020721435547 C11.261068344116211 25.491634368896484 11.159798622131348 23.10512924194336 11.291670799255371 20.731975555419922 C11.406294822692871 18.665969848632812 10.866562843322754 17.013944625854492 9.424308776855469 15.474873542785645 C7.663223743438721 13.595270156860352 6.1363935470581055 11.495878219604492 4.722517967224121 9.280194282531738 C8.210746765136719 10.391374588012695 9.219545364379883 14.156145095825195 12.06788444519043 16.187097549438477 C14.575136184692383 14.0259428024292 16.026290893554688 10.663467407226562 18.931385040283203 8.841731071472168"></path></svg>