<svg xmlns="http://www.w3.org/2000/svg" viewBox="0.0 0.0 24.0 24.0" height="200px" width="200px"><path fill="none" stroke="black" stroke-width=".3" stroke-opacity="1.0"  filling="0" d="M11.40720272064209 17.44793128967285 C13.870420455932617 17.528352737426758 16.22585678100586 18.14602279663086 16.89824676513672 20.903566360473633 C17.347610473632812 22.747455596923828 17.376628875732422 24.71239471435547 17.438812255859375 26.628414154052734 C17.523380279541016 29.222625732421875 17.459537506103516 31.821813583374023 17.459537506103516 34.55614471435547 C18.49921226501465 34.55614471435547 19.20808219909668 34.55614471435547 20.198013305664062 34.55614471435547 C19.78512954711914 35.132362365722656 19.61599349975586 35.507110595703125 19.330787658691406 35.744224548339844 C17.52669334411621 37.24321365356445 16.06584358215332 36.47299575805664 14.934968948364258 35.048622131347656 C13.494844436645508 35.5800666809082 12.251214027404785 36.22841262817383 10.9304780960083 36.488746643066406 C8.016236305236816 37.06413269042969 5.9733662605285645 35.99958801269531 5.189878940582275 33.73285675048828 C4.384835720062256 31.403955459594727 5.135159015655518 29.08582878112793 7.613300800323486 27.807374954223633 C9.899093627929688 26.6284122467041 12.431954383850098 25.927005767822266 15.109076499938965 24.91966438293457 C15.231781005859375 18.910442352294922 13.56117057800293 18.19162368774414 5.9833149909973145 20.8438720703125 C6.840590953826904 18.4892635345459 8.542706489562988 17.355073928833008 11.40720272064209 17.44793128967285"></path>
<path fill="none" stroke="black" stroke-width=".3" stroke-opacity="1.0"  filling="0" d="M15.184523582458496 26.438549041748047 C15.219345092773438 29.992847442626953 16.427326202392578 33.053836822509766 12.74452018737793 34.66889953613281 C10.56153392791748 35.626487731933594 8.167960166931152 35.15971755981445 7.229433536529541 33.49988555908203 C6.251110553741455 31.769580841064453 7.008066654205322 29.434040069580078 9.246602058410645 28.344623565673828 C10.940427780151367 27.51968002319336 12.861421585083008 27.160686492919922 15.184523582458496 26.438549041748047"></path></svg>