<svg xmlns="http://www.w3.org/2000/svg" viewBox="0.0 0.0 24.0 24.0" height="200px" width="200px"><path fill="none" stroke="black" stroke-width=".3" stroke-opacity="1.0"  filling="0" d="M12.09183120727539 15.09334659576416 L12.09183120727539 15.09334659576416 C13.917291641235352 14.946239471435547 14.609186172485352 14.925739288330078 15.860381126403809 16.2790584564209 L15.860381126403809 16.2790584564209 C14.304094314575195 16.26888656616211 12.932648658752441 16.086193084716797 11.44955825805664 16.646522521972656 C10.196192741394043 17.120059967041016 9.433609962463379 18.34627342224121 9.216363906860352 19.683374404907227 C8.999116897583008 21.02047348022461 9.327207565307617 22.468460083007812 10.25518798828125 23.385543823242188 C11.712018013000488 24.825265884399414 14.030265808105469 24.563034057617188 15.853442192077637 24.56052017211914 L15.853442192077637 24.56052017211914 C13.738218307495117 26.330760955810547 11.493401527404785 25.9107666015625 9.975574493408203 24.476295471191406 C8.457747459411621 23.04182243347168 7.666910171508789 20.592870712280273 8.459647178649902 18.305198669433594 C9.106863975524902 16.437467575073242 10.390474319458008 15.782846450805664 12.09183120727539 15.09334659576416 L12.09183120727539 15.09334659576416"></path></svg>