<svg xmlns="http://www.w3.org/2000/svg" viewBox="0.0 0.0 24.0 24.0" height="200px" width="200px"><path fill="none" stroke="black" stroke-width=".3" stroke-opacity="1.0"  filling="0" d="M6.350067615509033 5.844738483428955 C8.362470626831055 5.653222560882568 10.395681381225586 5.847286701202393 12.550342559814453 5.891449451446533 C9.675905227661133 7.169638156890869 10.158305168151855 10.038979530334473 9.040632247924805 12.383031845092773 C11.277250289916992 12.383031845092773 13.277338027954102 12.383031845092773 15.422231674194336 12.383031845092773 C15.804840087890625 11.159198760986328 16.16748809814453 9.88143539428711 16.606998443603516 8.630424499511719 C16.95223617553711 7.647790431976318 17.14035415649414 6.745840072631836 16.106338500976562 5.902490615844727 C17.91873550415039 5.902490615844727 19.730703353881836 5.902490615844727 21.54309844970703 5.902490615844727 C19.86319351196289 6.660485744476318 19.6793212890625 8.246118545532227 19.225797653198242 9.665289878845215 C18.4516658782959 12.086203575134277 17.656726837158203 14.500748634338379 16.891511917114258 16.924633026123047 C16.32588005065918 18.716644287109375 16.340320587158203 18.721317291259766 17.789215087890625 19.996532440185547 C15.618843078613281 19.996532440185547 13.630643844604492 19.996532440185547 11.047940254211426 19.996532440185547 C14.31602668762207 18.726837158203125 14.039580345153809 15.903780937194824 15.16914176940918 13.451019287109375 C12.900676727294922 13.451019287109375 10.932011604309082 13.451019287109375 8.721723556518555 13.451019287109375 C8.15439510345459 15.204388618469238 7.577723026275635 16.98663330078125 6.984490871429443 18.819833755493164 C7.553942680358887 19.16974449157715 7.969672679901123 19.42538070678711 8.38540267944336 19.680593490600586 C8.353553771972656 19.78463363647461 8.321704864501953 19.888671875 8.28985595703125 19.99271011352539 C6.307602882385254 19.99271011352539 4.3253493309021 19.99271011352539 2.3430967330932617 19.99271011352539 C4.624301910400391 19.01517105102539 4.602644443511963 16.705516815185547 5.294394493103027 14.842164993286133 C6.006528377532959 12.924456596374512 6.578103065490723 10.953669548034668 7.192142963409424 9.00029182434082 C7.398097038269043 8.345061302185059 7.54587459564209 7.671571254730225 7.736116409301758 6.94669771194458 C7.160295009613037 6.686813831329346 6.744565010070801 6.499120235443115 6.328411102294922 6.311850547790527 C6.335629940032959 6.156004905700684 6.342849254608154 6.000584125518799 6.350067615509033 5.844738483428955"></path></svg>