<svg xmlns="http://www.w3.org/2000/svg" viewBox="0.0 0.0 24.0 24.0" height="200px" width="200px"><path fill="none" stroke="black" stroke-width=".3" stroke-opacity="1.0"  filling="0" d="M17.82059097290039 12.165517807006836 C17.856651306152344 12.421478271484375 17.892118453979492 12.677438735961914 17.928176879882812 12.933399200439453 C17.27260971069336 13.167488098144531 16.61704444885254 13.401576042175293 15.79595947265625 13.694778442382812 C16.816844940185547 15.300888061523438 17.333498001098633 16.884532928466797 16.48876953125 18.672710418701172 C15.680099487304688 20.385223388671875 14.172118186950684 20.916057586669922 12.535271644592285 21.39783477783203 C11.55990219116211 21.685123443603516 10.650739669799805 22.19586181640625 9.211921691894531 22.824237823486328 C10.140000343322754 23.556060791015625 10.562660217285156 24.09103775024414 11.103547096252441 24.271331787109375 C12.024532318115234 24.578128814697266 13.0176362991333 24.675073623657227 13.984138488769531 24.837635040283203 C18.268077850341797 25.559410095214844 19.210346221923828 27.663843154907227 16.89901351928711 31.365522384643555 C15.322463989257812 31.365522384643555 13.746502876281738 31.365522384643555 12.169950485229492 31.365522384643555 C13.112808227539062 31.12847328186035 14.165616035461426 31.07645606994629 14.966601371765137 30.6005916595459 C15.721478462219238 30.151330947875977 16.65665054321289 29.276453018188477 16.690343856811523 28.5505428314209 C16.723447799682617 27.841182708740234 15.793004989624023 26.53655242919922 15.154581069946289 26.449657440185547 C13.278916358947754 26.193696975708008 11.316946029663086 26.26285743713379 9.437143325805664 26.538326263427734 C8.883842468261719 26.61872100830078 8.126601219177246 27.812808990478516 8.130147933959961 28.492612838745117 C8.134285926818848 29.182464599609375 8.85014820098877 30.004730224609375 9.464925765991211 30.514286041259766 C10.021773338317871 30.976551055908203 10.862956047058105 31.09537124633789 11.578817367553711 31.365522384643555 C10.396551132202148 31.365522384643555 9.214285850524902 31.365522384643555 8.03201961517334 31.365522384643555 C5.890936374664307 28.48137855529785 6.142167091369629 27.110544204711914 9.370344161987305 25.132020950317383 C7.930935859680176 23.47271156311035 8.23477840423584 22.04571533203125 10.160689353942871 21.154878616333008 C9.406404495239258 20.275272369384766 8.541576385498047 19.560001373291016 8.057437896728516 18.64374351501465 C6.821970462799072 16.306995391845703 7.937438011169434 13.23310375213623 10.462167739868164 12.68630599975586 C12.840887069702148 12.171429634094238 15.362070083618164 12.31270980834961 17.82059097290039 12.165517807006836"></path>
<path fill="none" stroke="black" stroke-width=".3" stroke-opacity="1.0"  filling="0" d="M12.154581069946289 13.53872013092041 C14.128965377807617 13.476058959960938 15.624532699584961 14.845123291015625 15.63458251953125 16.723743438720703 C15.645220756530762 18.546798706054688 14.066896438598633 20.10620880126953 12.235567092895508 20.081382751464844 C10.414876937866211 20.057144165039062 8.997930526733398 18.72945785522461 8.919900894165039 16.974384307861328 C8.833596229553223 15.037832260131836 10.186699867248535 13.600788116455078 12.154581069946289 13.53872013092041"></path></svg>