<svg xmlns="http://www.w3.org/2000/svg" viewBox="0.0 0.0 24.0 24.0" height="200px" width="200px"><path fill="none" stroke="black" stroke-width=".3" stroke-opacity="1.0"  filling="0" d="M6.6949334144592285 9.846169471740723 L6.6949334144592285 9.846169471740723 C7.749184608459473 9.766003608703613 8.8510160446167 9.941133499145508 9.826852798461914 10.348091125488281 L9.826852798461914 10.348091125488281 C10.343735694885254 10.150835990905762 10.825908660888672 9.713627815246582 11.377501487731934 9.756326675415039 C11.925220489501953 9.798726081848145 12.329660415649414 10.304567337036133 12.805740356445312 10.57868766784668 L12.805740356445312 10.57868766784668 C13.529706001281738 10.399248123168945 14.173404693603516 9.861103057861328 14.919063568115234 9.843307495117188 C17.53692054748535 9.780830383300781 16.34671401977539 13.640950202941895 16.732656478881836 14.9922513961792 C16.942466735839844 15.72685718536377 17.375656127929688 16.40273666381836 17.476966857910156 17.159969329833984 L17.476966857910156 17.159969329833984 C16.475019454956055 17.159969329833984 15.47307300567627 17.159969329833984 14.471125602722168 17.159969329833984 L14.471125602722168 17.159969329833984 C14.471125602722168 15.342947959899902 14.471125602722168 13.52592945098877 14.471125602722168 11.70890998840332 L14.471125602722168 11.70890998840332 C14.04257583618164 11.944796562194824 13.411140441894531 11.982550621032715 13.185476303100586 12.416570663452148 C12.449931144714355 13.831244468688965 13.725857734680176 15.721394538879395 13.757774353027344 17.173446655273438 L13.757774353027344 17.173446655273438 C13.620638847351074 17.173446655273438 11.067818641662598 17.173446655273438 10.984627723693848 17.173446655273438 L10.984627723693848 17.173446655273438 C10.98880386352539 15.900938987731934 11.565234184265137 12.458778381347656 10.323984146118164 11.572049140930176 C9.844476699829102 11.229496955871582 9.628700256347656 12.60800838470459 9.628301620483398 13.197304725646973 C9.627290725708008 14.692267417907715 10.119465827941895 15.71016788482666 10.154181480407715 17.182729721069336 L10.154181480407715 17.182729721069336 C9.03084659576416 17.18255615234375 7.9075117111206055 17.18245506286621 6.784177303314209 17.182430267333984 L6.784177303314209 17.182430267333984 C6.965173721313477 15.929110527038574 7.584443092346191 14.734045028686523 7.579885482788086 13.467731475830078 C7.575412750244141 12.2250337600708 6.9222259521484375 11.067912101745605 6.6949334144592285 9.846169471740723 L6.6949334144592285 9.846169471740723"></path></svg>