<svg xmlns="http://www.w3.org/2000/svg" viewBox="0.0 0.0 24.0 24.0" height="200px" width="200px"><path fill="none" stroke="black" stroke-width=".3" stroke-opacity="1.0"  filling="0" d="M8.242778778076172 9.656436920166016 L8.242778778076172 9.656436920166016 C9.18551254272461 9.656436920166016 10.12824535369873 9.656436920166016 11.070979118347168 9.656436920166016 L11.070979118347168 9.656436920166016 C11.070979118347168 10.71800708770752 11.070979118347168 11.779577255249023 11.070979118347168 12.841147422790527 L11.070979118347168 12.841147422790527 C12.081096649169922 12.467222213745117 12.857996940612793 12.051336288452148 14.021422386169434 12.276374816894531 C15.697315216064453 12.60053825378418 16.556438446044922 14.348617553710938 16.608598709106445 16.14505386352539 C16.66075897216797 17.94148826599121 15.90595531463623 19.78628158569336 14.353994369506836 20.30387306213379 C12.887933731079102 20.792816162109375 12.378440856933594 20.173816680908203 11.113146781921387 19.521076202392578 L11.113146781921387 19.521076202392578 C10.23326301574707 19.9504337310791 9.221243858337402 20.177738189697266 8.242778778076172 20.143863677978516 L8.242778778076172 20.143863677978516 C8.242778778076172 18.395959854125977 8.242778778076172 16.648056030273438 8.242778778076172 14.900150299072266 C8.242778778076172 13.152246475219727 8.242778778076172 11.404340744018555 8.242778778076172 9.656436920166016 L8.242778778076172 9.656436920166016"></path>
<path fill="none" stroke="black" stroke-width=".3" stroke-opacity="1.0"  filling="0" d="M12.521201133728027 14.30463981628418 L12.521201133728027 14.30463981628418 C13.040279388427734 14.905746459960938 14.881900787353516 18.232135772705078 12.50114917755127 18.32474708557129 C11.358413696289062 18.369199752807617 10.666128158569336 16.259750366210938 11.214585304260254 15.459392547607422 C11.5431547164917 14.979915618896484 12.085662841796875 14.689557075500488 12.521201133728027 14.30463981628418 L12.521201133728027 14.30463981628418"></path></svg>