<svg xmlns="http://www.w3.org/2000/svg" viewBox="0.0 0.0 24.0 24.0" height="200px" width="200px"><path fill="none" stroke="black" stroke-width=".3" stroke-opacity="1.0"  filling="0" d="M8.827341079711914 8.010568618774414 L8.827341079711914 8.010568618774414 C8.9236421585083 8.021349906921387 11.706273078918457 8.336766242980957 11.91096019744873 8.345479011535645 C12.639586448669434 8.376493453979492 13.307394981384277 7.954853057861328 14.061944007873535 8.298826217651367 C15.020773887634277 8.735923767089844 15.516833305358887 10.406453132629395 15.509200096130371 12.05704402923584 C15.501565933227539 13.707635879516602 14.990239143371582 15.338289260864258 13.934295654296875 15.695636749267578 C13.31799602508545 15.904202461242676 12.633691787719727 15.654059410095215 11.983389854431152 15.633271217346191 L11.983389854431152 15.633271217346191 C11.872453689575195 17.01831817626953 12.640894889831543 17.399085998535156 12.984825134277344 18.810569763183594 L12.984825134277344 18.810569763183594 C11.638701438903809 18.810569763183594 10.292582511901855 18.810569763183594 8.946459770202637 18.810569763183594 L8.946459770202637 18.810569763183594 C9.415241241455078 16.920024871826172 9.650291442871094 15.159112930297852 9.63573169708252 13.401293754577637 C9.621171951293945 11.643474578857422 9.357001304626465 9.88874626159668 8.827341079711914 8.010568618774414 L8.827341079711914 8.010568618774414"></path>
<path fill="none" stroke="black" stroke-width=".3" stroke-opacity="1.0"  filling="0" d="M12.388333320617676 9.773406982421875 L12.388333320617676 9.773406982421875 C11.863120079040527 11.605447769165039 11.619424819946289 12.549026489257812 12.634950637817383 14.196962356567383 L12.634950637817383 14.196962356567383 C13.199832916259766 12.344783782958984 13.2508544921875 11.512290000915527 12.388333320617676 9.773406982421875 L12.388333320617676 9.773406982421875"></path></svg>