<svg xmlns="http://www.w3.org/2000/svg" viewBox="0.0 0.0 24.0 24.0" height="200px" width="200px"><path fill="none" stroke="black" stroke-width=".3" stroke-opacity="1.0"  filling="0" d="M15.28890323638916 12.112188339233398 L15.28890323638916 12.112188339233398 C15.28890323638916 13.912188529968262 15.28890323638916 15.712188720703125 15.28890323638916 17.512187957763672 C15.28890323638916 19.31218719482422 15.28890323638916 21.112186431884766 15.28890323638916 22.912187576293945 L15.28890323638916 22.912187576293945 C15.06696891784668 22.912187576293945 14.8450345993042 22.912187576293945 14.623100280761719 22.912187576293945 L14.623100280761719 22.912187576293945 C14.568078994750977 21.718097686767578 14.53824234008789 20.522523880004883 14.536211967468262 19.327167510986328 L14.536211967468262 19.327167510986328 C13.1816987991333 19.576156616210938 11.472498893737793 20.07259178161621 10.20340633392334 19.191734313964844 C9.031911849975586 18.378618240356445 8.509204864501953 17.043315887451172 8.590132713317871 15.743786811828613 C8.671060562133789 14.444258689880371 9.355623245239258 13.180503845214844 10.598670959472656 12.510483741760254 C11.908483505249023 11.804476737976074 13.874958038330078 12.127557754516602 15.28890323638916 12.112188339233398 L15.28890323638916 12.112188339233398"></path>
<path fill="none" stroke="black" stroke-width=".3" stroke-opacity="1.0"  filling="0" d="M14.44333267211914 13.063621520996094 L14.44333267211914 13.063621520996094 C14.44333267211914 14.806915283203125 14.44333267211914 16.55021095275879 14.44333267211914 18.293506622314453 L14.44333267211914 18.293506622314453 C13.108905792236328 18.84092140197754 11.606050491333008 19.505332946777344 10.328999519348145 18.322803497314453 C8.954925537109375 17.050434112548828 9.093509674072266 14.239421844482422 10.774261474609375 13.27869987487793 C11.99156379699707 12.582886695861816 13.140583992004395 12.94102668762207 14.44333267211914 13.063621520996094 L14.44333267211914 13.063621520996094"></path></svg>