<svg xmlns="http://www.w3.org/2000/svg" viewBox="0.0 0.0 24.0 24.0" height="200px" width="200px"><path fill="none" stroke="black" stroke-width=".3" stroke-opacity="1.0"  filling="0" d="M13.172992706298828 14.743885040283203 L13.172992706298828 14.743885040283203 C13.90903377532959 15.002193450927734 14.633272171020508 15.296632766723633 15.341556549072266 15.623453140258789 L15.341556549072266 15.623453140258789 C15.275357246398926 15.833344459533691 15.209158897399902 16.043235778808594 15.142959594726562 16.25312614440918 L15.142959594726562 16.25312614440918 C14.829316139221191 16.159015655517578 13.473628044128418 15.733572959899902 13.139578819274902 15.707691192626953 C11.760083198547363 15.600807189941406 9.758166313171387 16.343284606933594 10.764769554138184 18.201448440551758 C11.339874267578125 19.263076782226562 12.717405319213867 19.67369842529297 13.860671043395996 20.245983123779297 C15.003936767578125 20.818267822265625 15.91293716430664 21.552215576171875 15.55097770690918 23.26049041748047 C15.239477157592773 24.730628967285156 13.955131530761719 25.445877075195312 12.591740608215332 25.525325775146484 C11.228349685668945 25.604772567749023 9.785913467407227 25.048416137695312 9.158228874206543 23.975345611572266 L9.158228874206543 23.975345611572266 C9.79731559753418 24.094253540039062 10.431246757507324 24.245330810546875 11.075489044189453 24.332067489624023 C13.034812927246094 24.595857620239258 15.48338794708252 23.85099983215332 13.597010612487793 21.38935089111328 C12.728668212890625 20.25619888305664 10.871971130371094 20.13644790649414 9.904561996459961 18.966676712036133 C7.775758743286133 16.39257049560547 11.070394515991211 14.767017364501953 13.172992706298828 14.743885040283203 L13.172992706298828 14.743885040283203"></path></svg>