<svg xmlns="http://www.w3.org/2000/svg" viewBox="0.0 0.0 24.0 24.0" height="200px" width="200px"><path fill="none" stroke="black" stroke-width=".3" stroke-opacity="1.0"  filling="0" d="M10.92601490020752 12.033770561218262 C11.170770645141602 12.054502487182617 11.41552734375 12.074563980102539 11.660284042358398 12.095293998718262 C11.800718307495117 13.30837631225586 11.94115161895752 14.521458625793457 12.09897232055664 15.889688491821289 C13.428414344787598 16.096324920654297 14.780592918395996 16.30630874633789 16.132102966308594 16.51629066467285 C16.1514949798584 16.775760650634766 16.171558380126953 17.03589630126953 16.19095230102539 17.295364379882812 C14.892940521240234 17.463886260986328 13.594929695129395 17.631738662719727 11.952520370483398 17.845064163208008 C11.952520370483398 21.099788665771484 11.890996932983398 24.39931869506836 11.978601455688477 27.694839477539062 C12.021400451660156 29.30514907836914 13.02717399597168 30.048110961914062 14.661558151245117 29.873571395874023 C15.390477180480957 29.795995712280273 16.122739791870117 29.751859664916992 16.852996826171875 29.692340850830078 C13.209070205688477 32.46089553833008 10.648490905761719 31.377552032470703 10.463251113891602 27.433361053466797 C10.318136215209961 24.3458194732666 10.43382740020752 21.24624252319336 10.43382740020752 18.021608352661133 C9.230107307434082 17.715328216552734 8.263787269592285 17.46990394592285 7.296799182891846 17.22381019592285 C7.298136234283447 17.039907455444336 7.300142765045166 16.856006622314453 7.301480293273926 16.672103881835938 C8.161471366882324 16.402605056762695 9.021462440490723 16.133106231689453 10.036600112915039 15.814788818359375 C10.32014274597168 14.609062194824219 10.623078346252441 13.321081161499023 10.92601490020752 12.033770561218262"></path></svg>