<svg xmlns="http://www.w3.org/2000/svg" viewBox="0.0 0.0 24.0 24.0" height="200px" width="200px"><path fill="none" stroke="black" stroke-width=".3" stroke-opacity="1.0"  filling="0" d="M8.060257911682129 15.040059089660645 L8.060257911682129 15.040059089660645 C9.072134017944336 16.110857009887695 9.80408763885498 17.520410537719727 10.427780151367188 19.001480102539062 C11.051472663879395 20.48255157470703 11.566904067993164 22.035139083862305 12.145739555358887 23.39200782775879 L12.145739555358887 23.39200782775879 C13.186119079589844 21.165634155273438 14.224647521972656 18.938365936279297 15.274215698242188 16.71630096435547 C15.597405433654785 16.032068252563477 16.12274169921875 15.11782169342041 16.879432678222656 15.111023902893066 L16.879432678222656 15.111023902893066 C16.148204803466797 16.88570785522461 15.417000770568848 18.660400390625 14.685774803161621 20.435083389282227 C13.954549789428711 22.209766387939453 13.223302841186523 23.98444175720215 12.49199104309082 25.759090423583984 L12.49199104309082 25.759090423583984 C12.32037353515625 25.78607940673828 12.14875602722168 25.813066482543945 11.97713851928711 25.840055465698242 L11.97713851928711 25.840055465698242 C11.226278305053711 24.08769989013672 10.475319862365723 22.33538818359375 9.7243013381958 20.583101272583008 C8.973283767700195 18.830814361572266 8.22220516204834 17.078554153442383 7.47110652923584 15.326300621032715 L7.47110652923584 15.326300621032715 C7.667490482330322 15.230886459350586 7.8638739585876465 15.135473251342773 8.060257911682129 15.040059089660645 L8.060257911682129 15.040059089660645"></path></svg>