<svg xmlns="http://www.w3.org/2000/svg" viewBox="0.0 0.0 24.0 24.0" height="200px" width="200px"><path fill="none" stroke="black" stroke-width=".3" stroke-opacity="1.0"  filling="0" d="M6.685783863067627 6.571863651275635 C10.890645980834961 6.571863651275635 15.137933731079102 6.571863651275635 19.513280868530273 6.571863651275635 C20.35315704345703 8.708864212036133 19.686126708984375 10.472674369812012 18.403141021728516 12.27576732635498 C16.1577205657959 15.430984497070312 14.085930824279785 18.710336685180664 11.653522491455078 22.369163513183594 C13.281414031982422 22.51372528076172 14.370340347290039 22.610361099243164 15.640756607055664 22.72271156311035 C16.07758331298828 21.69742202758789 16.461772918701172 20.797054290771484 16.889957427978516 19.793764114379883 C17.747114181518555 19.793764114379883 18.62234115600586 19.793764114379883 19.718339920043945 19.793764114379883 C19.718339920043945 21.805843353271484 19.718339920043945 23.687503814697266 19.718339920043945 25.771865844726562 C15.079793930053711 25.771862030029297 10.577166557312012 25.771862030029297 5.7390618324279785 25.771862030029297 C5.633783340454102 19.1118106842041 11.468893051147461 15.676895141601562 13.455831527709961 10.374465942382812 C11.000638008117676 9.569162368774414 11.112987518310547 9.65479850769043 9.793862342834473 11.39582633972168 C9.246255874633789 12.118635177612305 8.103117942810059 12.389688491821289 6.685783863067627 13.164350509643555 C6.685783863067627 10.570096015930176 6.685783863067627 8.700221061706543 6.685783863067627 6.571863651275635"></path></svg>