<svg xmlns="http://www.w3.org/2000/svg" viewBox="0.0 0.0 24.0 24.0" height="200px" width="200px"><path fill="none" stroke="black" stroke-width=".3" stroke-opacity="1.0"  filling="0" d="M10.333662986755371 10.571989059448242 L10.333662986755371 10.571989059448242 C12.092618942260742 10.571989059448242 13.851574897766113 10.571989059448242 15.610530853271484 10.571989059448242 L15.610530853271484 10.571989059448242 C15.621439933776855 10.696309089660645 15.632349967956543 10.820630073547363 15.643259048461914 10.944950103759766 L15.643259048461914 10.944950103759766 C14.099517822265625 11.1809720993042 12.598843574523926 11.1481351852417 11.042646408081055 11.27481460571289 L11.042646408081055 11.27481460571289 C10.830329895019531 12.691488265991211 10.617900848388672 14.108149528503418 10.405598640441895 15.524823188781738 L10.405598640441895 15.524823188781738 C11.80941390991211 15.524823188781738 13.213232040405273 15.524823188781738 14.617047309875488 15.524823188781738 L14.617047309875488 15.524823188781738 C14.625256538391113 15.67819881439209 14.633464813232422 15.831573486328125 14.641674041748047 15.984949111938477 L14.641674041748047 15.984949111938477 C13.186683654785156 16.275541305541992 11.797999382019043 16.225265502929688 10.326534271240234 16.425634384155273 L10.326534271240234 16.425634384155273 C10.111384391784668 17.891664505004883 9.896235466003418 19.357698440551758 9.681061744689941 20.8237247467041 L9.681061744689941 20.8237247467041 C11.726461410522461 20.8237247467041 13.771862030029297 20.8237247467041 15.817262649536133 20.8237247467041 L15.817262649536133 20.8237247467041 C15.815858840942383 21.006479263305664 15.814455032348633 21.189233779907227 15.813051223754883 21.37198829650879 L15.813051223754883 21.37198829650879 C13.487253189086914 21.37198829650879 11.161458969116211 21.37198829650879 8.835661888122559 21.37198829650879 L8.835661888122559 21.37198829650879 C9.085336685180664 19.571990966796875 9.334999084472656 17.771989822387695 9.584661483764648 15.971988677978516 C9.83432388305664 14.171987533569336 10.083986282348633 12.371987342834473 10.333662986755371 10.571989059448242 L10.333662986755371 10.571989059448242"></path></svg>