<svg xmlns="http://www.w3.org/2000/svg" viewBox="0.0 0.0 24.0 24.0" height="200px" width="200px"><path fill="none" stroke="black" stroke-width=".3" stroke-opacity="1.0"  filling="0" d="M5.747675895690918 3.827357292175293 C10.911022186279297 3.827357292175293 15.91075611114502 3.827357292175293 21.2462158203125 3.827357292175293 C20.82921600341797 5.703586101531982 20.42177963256836 7.535192966461182 20.00956153869629 9.389641761779785 C18.85152816772461 9.389641761779785 17.900665283203125 9.389641761779785 16.784595489501953 9.389641761779785 C16.928552627563477 8.439841270446777 17.053918838500977 7.61062479019165 17.207969665527344 6.593891620635986 C15.601594924926758 6.593891620635986 14.140771865844727 6.593891620635986 12.508898735046387 6.593891620635986 C12.165206909179688 7.936787128448486 11.819390296936035 9.288711547851562 11.407703399658203 10.895617485046387 C12.649137496948242 11.009827613830566 13.741302490234375 11.110225677490234 15.014608383178711 11.227622985839844 C14.845684051513672 12.05152702331543 14.69482135772705 12.789376258850098 14.510492324829102 13.687649726867676 C13.37583065032959 13.786455154418945 12.252856254577637 13.884727478027344 10.83293628692627 14.008499145507812 C10.45949649810791 15.438511848449707 10.070119857788086 16.928552627563477 9.638778686523438 18.581674575805664 C10.475432395935059 18.82124900817871 11.106508255004883 19.001859664916992 11.909163475036621 19.231342315673828 C11.731209754943848 20.016998291015625 11.563879013061523 20.757503509521484 11.373705863952637 21.59787368774414 C8.32775592803955 21.59734344482422 5.343957424163818 21.59734344482422 2.046215057373047 21.59734344482422 C2.2262954711914062 20.729881286621094 2.3697214126586914 20.04143524169922 2.538114547729492 19.23080825805664 C3.269057273864746 19.077289581298828 4.023904323577881 18.918460845947266 5.026825428009033 18.708101272583008 C5.923505783081055 14.86693286895752 6.839840412139893 10.940238952636719 7.808233737945557 6.789906978607178 C7.048605442047119 6.579017639160156 6.418060779571533 6.404249668121338 5.581938743591309 6.172111988067627 C5.631341457366943 5.475697994232178 5.683399677276611 4.736255645751953 5.747675895690918 3.827357292175293"></path></svg>