<svg xmlns="http://www.w3.org/2000/svg" viewBox="0.0 0.0 24.0 24.0" height="200px" width="200px"><path fill="none" stroke="black" stroke-width=".3" stroke-opacity="1.0"  filling="0" d="M14.786428451538086 9.000207901000977 C18.12517547607422 8.548637390136719 18.68991470336914 8.608809471130371 20.42222023010254 10.109258651733398 C18.78762435913086 10.109258651733398 17.139230728149414 9.972904205322266 15.520645141601562 10.13354778289795 C9.43217945098877 10.73803424835205 5.502196311950684 15.46240520477295 6.274502277374268 21.237863540649414 C7.024174213409424 26.844947814941406 12.556734085083008 27.839174270629883 16.111330032348633 25.879426956176758 C17.862957000732422 24.91390609741211 17.287729263305664 23.058494567871094 17.34900665283203 21.423900604248047 C16.176471710205078 21.2593936920166 15.163475036621094 21.116966247558594 14.149927139282227 20.9750919342041 C14.157102584838867 20.786846160888672 14.163726806640625 20.599151611328125 14.170904159545898 20.410905838012695 C15.679632186889648 20.410905838012695 17.18836212158203 20.410905838012695 18.93833351135254 20.410905838012695 C18.81081199645996 21.37035369873047 18.675561904907227 22.339187622070312 18.554664611816406 23.309673309326172 C18.145050048828125 26.598739624023438 17.46990394592285 27.302589416503906 14.215619087219238 27.816539764404297 C8.412558555603027 28.734033584594727 4.311443328857422 24.946475982666016 4.748659610748291 19.073307037353516 C5.139504909515381 13.827258110046387 9.195353507995605 9.757608413696289 14.786428451538086 9.000207901000977"></path></svg>