<svg xmlns="http://www.w3.org/2000/svg" viewBox="0.0 0.0 24.0 24.0" height="200px" width="200px"><path fill="none" stroke="black" stroke-width=".3" stroke-opacity="1.0"  filling="0" d="M8.950023651123047 2.5037460327148438 C11.310795783996582 2.5037460327148438 13.569973945617676 2.5037460327148438 15.982833862304688 2.5037460327148438 C15.899751663208008 3.1580810546875 15.823554992675781 3.7568836212158203 15.742193222045898 4.396582126617432 C15.14253044128418 4.5760931968688965 14.615187644958496 4.734081268310547 14.13476848602295 4.877862453460693 C14.001749038696289 5.16025972366333 13.873034477233887 5.3423542976379395 13.826972961425781 5.54339075088501 C13.078791618347168 8.812052726745605 12.36978530883789 12.089755058288574 11.585444450378418 15.349377632141113 C11.320266723632812 16.4505558013916 10.993529319763184 17.570241928100586 10.481684684753418 18.571979522705078 C9.024065971374512 21.42264175415039 6.463119983673096 22.354639053344727 3.0902795791625977 21.25475311279297 C3.2943296432495117 20.517763137817383 3.4626474380493164 19.91164207458496 3.659379005432129 19.200916290283203 C6.380466938018799 19.419170379638672 7.328822135925293 17.700679779052734 7.835501194000244 15.501768112182617 C8.634909629821777 12.031209945678711 9.441636085510254 8.562372207641602 10.277204513549805 4.954489231109619 C9.695621490478516 4.770242214202881 9.194108009338379 4.610963344573975 8.550104141235352 4.406483173370361 C8.680971145629883 3.7840042114257812 8.806673049926758 3.1847705841064453 8.950023651123047 2.5037460327148438"></path></svg>