<svg xmlns="http://www.w3.org/2000/svg" viewBox="0.0 0.0 24.0 24.0" height="200px" width="200px"><path fill="none" stroke="black" stroke-width=".3" stroke-opacity="1.0"  filling="0" d="M9.395284652709961 9.038775444030762 C10.792572021484375 9.038775444030762 12.246238708496094 8.967473983764648 13.689955711364746 9.054804801940918 C16.084360122680664 9.20017147064209 17.68173599243164 10.471991539001465 18.16370964050293 12.473407745361328 C18.729700088500977 14.826356887817383 17.84368324279785 16.789636611938477 15.638864517211914 18.016132354736328 C15.180102348327637 18.2714900970459 14.68541431427002 18.46384048461914 14.284135818481445 18.649555206298828 C15.880956649780273 21.62653350830078 17.430797576904297 24.515621185302734 18.98063850402832 27.40471649169922 C18.741308212280273 27.584352493286133 18.503084182739258 27.763988494873047 18.264307022094727 27.943071365356445 C17.85252571105957 27.44119644165039 17.358388900756836 26.985198974609375 17.045547485351562 26.428050994873047 C16.14571189880371 24.825149536132812 15.354762077331543 23.161449432373047 14.455479621887207 21.558544158935547 C12.996838569641113 18.958528518676758 12.50380802154541 18.758441925048828 9.223939895629883 19.256999969482422 C8.421935081481934 22.017860412597656 8.76462459564209 25.099853515625 7.528732776641846 28.211139678955078 C6.356955528259277 25.995820999145508 8.627549171447754 13.530217170715332 9.395284652709961 9.038775444030762"></path>
<path fill="none" stroke="black" stroke-width=".3" stroke-opacity="1.0"  filling="0" d="M10.353710174560547 10.313913345336914 C12.623197555541992 10.079558372497559 14.80369758605957 9.661698341369629 16.263996124267578 11.739943504333496 C17.168254852294922 13.02668571472168 17.211366653442383 14.604162216186523 16.28721046447754 15.90527629852295 C14.63953685760498 18.223957061767578 12.143431663513184 17.800018310546875 9.330615043640137 17.78951644897461 C9.6992826461792 15.094429016113281 10.020416259765625 12.746454238891602 10.353710174560547 10.313913345336914"></path></svg>