<svg xmlns="http://www.w3.org/2000/svg" viewBox="0.0 0.0 24.0 24.0" height="200px" width="200px"><path fill="none" stroke="black" stroke-width=".3" stroke-opacity="1.0"  filling="0" d="M13.481053352355957 6.943659782409668 L13.481053352355957 6.943659782409668 C13.478508949279785 7.387190818786621 13.47596549987793 7.830721855163574 13.473421096801758 8.274252891540527 L13.473421096801758 8.274252891540527 C13.23341178894043 7.88552713394165 12.993401527404785 7.496801853179932 12.753392219543457 7.108076095581055 L12.753392219543457 7.108076095581055 C12.092304229736328 8.058950424194336 11.558160781860352 9.115317344665527 11.20495891571045 10.218244552612305 L11.20495891571045 10.218244552612305 C11.605968475341797 10.278646469116211 12.006978034973145 10.339048385620117 12.407987594604492 10.399450302124023 L12.407987594604492 10.399450302124023 C12.417000770568848 10.480277061462402 12.426013946533203 10.561104774475098 12.435027122497559 10.641931533813477 L12.435027122497559 10.641931533813477 C11.959077835083008 10.717379570007324 11.483129501342773 10.792827606201172 11.007180213928223 10.86827564239502 L11.007180213928223 10.86827564239502 C10.534870147705078 12.614690780639648 10.257880210876465 14.874398231506348 9.302617073059082 16.45536994934082 C8.629737854003906 17.568992614746094 6.111429214477539 18.408926010131836 6.840954780578613 16.389734268188477 L6.840954780578613 16.389734268188477 C6.9472222328186035 16.356008529663086 7.0534892082214355 16.322280883789062 7.159756660461426 16.288555145263672 L7.159756660461426 16.288555145263672 C7.3454694747924805 16.64508056640625 7.531182765960693 17.001605987548828 7.716895580291748 17.358131408691406 L7.716895580291748 17.358131408691406 C7.868518829345703 17.31553840637207 8.0201416015625 17.2729434967041 8.171765327453613 17.230350494384766 L8.171765327453613 17.230350494384766 C8.844822883605957 15.135770797729492 9.361224174499512 13.012027740478516 9.90467643737793 10.881141662597656 L9.90467643737793 10.881141662597656 C9.600266456604004 10.81405258178711 9.295857429504395 10.746962547302246 8.991447448730469 10.6798734664917 L8.991447448730469 10.6798734664917 C8.98119831085205 10.606460571289062 8.97095012664795 10.533047676086426 8.960700988769531 10.459634780883789 L8.960700988769531 10.459634780883789 C9.328493118286133 10.381134033203125 9.696284294128418 10.302632331848145 10.06407642364502 10.22413158416748 L10.06407642364502 10.22413158416748 C10.835440635681152 8.321024894714355 11.278916358947754 7.063260078430176 13.481053352355957 6.943659782409668 L13.481053352355957 6.943659782409668"></path></svg>