<svg xmlns="http://www.w3.org/2000/svg" viewBox="0.0 0.0 24.0 24.0" height="200px" width="200px"><path fill="none" stroke="black" stroke-width=".3" stroke-opacity="1.0"  filling="0" d="M16.077407836914062 10.945751190185547 L16.077407836914062 10.945751190185547 C15.055670738220215 11.039100646972656 14.028288841247559 11.075525283813477 13.002301216125488 11.078646659851074 L13.002301216125488 11.078646659851074 C12.756011962890625 12.770230293273926 12.509727478027344 14.461814880371094 12.263471603393555 16.153404235839844 C12.017217636108398 17.844993591308594 11.770992279052734 19.53658676147461 11.524823188781738 21.228187561035156 L11.524823188781738 21.228187561035156 C11.391926765441895 21.21437644958496 11.259029388427734 21.2005672454834 11.12613296508789 21.186756134033203 L11.12613296508789 21.186756134033203 C10.9644136428833 19.563457489013672 11.109804153442383 17.86319351196289 11.3565034866333 16.164892196655273 C11.603202819824219 14.466592788696289 11.951210021972656 12.770256996154785 12.194724082946777 11.154815673828125 L12.194724082946777 11.154815673828125 C11.107012748718262 11.100089073181152 10.019299507141113 11.045379638671875 8.931586265563965 10.990686416625977 L8.931586265563965 10.990686416625977 C11.360896110534668 10.25666618347168 13.628349304199219 10.338552474975586 16.077407836914062 10.945751190185547 L16.077407836914062 10.945751190185547"></path></svg>