<svg xmlns="http://www.w3.org/2000/svg" viewBox="0.0 0.0 24.0 24.0" height="200px" width="200px"><path fill="none" stroke="black" stroke-width=".3" stroke-opacity="1.0"  filling="0" d="M16.23834228515625 10.228017807006836 L16.23834228515625 10.228017807006836 C16.342424392700195 10.330023765563965 16.44650650024414 10.43203067779541 16.550588607788086 10.534036636352539 L16.550588607788086 10.534036636352539 C15.09814453125 12.157238960266113 13.645585060119629 13.780335426330566 12.193168640136719 15.403562545776367 L12.193168640136719 15.403562545776367 C13.318124771118164 17.16839027404785 14.443107604980469 18.933218002319336 15.568090438842773 20.698028564453125 L15.568090438842773 20.698028564453125 C15.47365951538086 20.790592193603516 15.379228591918945 20.883153915405273 15.284797668457031 20.975717544555664 L15.284797668457031 20.975717544555664 C13.775681495666504 19.521068572998047 12.88214111328125 17.730159759521484 11.591093063354492 16.09187126159668 L11.591093063354492 16.09187126159668 C10.01336669921875 17.8140811920166 8.53515625 19.607322692871094 6.675804615020752 21.028331756591797 L6.675804615020752 21.028331756591797 C6.587703704833984 20.9266357421875 6.499602317810059 20.824941635131836 6.411501407623291 20.72324562072754 L6.411501407623291 20.72324562072754 C8.0177640914917 18.94338607788086 9.624187469482422 17.163677215576172 11.230595588684082 15.383952140808105 L11.230595588684082 15.383952140808105 C10.220479965209961 13.765558242797852 9.210343360900879 12.147178649902344 8.200294494628906 10.528743743896484 L8.200294494628906 10.528743743896484 C9.886530876159668 11.027849197387695 10.773035049438477 13.257845878601074 11.72215461730957 14.679764747619629 L11.72215461730957 14.679764747619629 C13.2916841506958 13.23238468170166 14.577757835388184 11.576338768005371 16.23834228515625 10.228017807006836 L16.23834228515625 10.228017807006836"></path></svg>