<svg xmlns="http://www.w3.org/2000/svg" viewBox="0.0 0.0 24.0 24.0" height="200px" width="200px"><path fill="none" stroke="black" stroke-width=".3" stroke-opacity="1.0"  filling="0" d="M16.869892120361328 10.509057998657227 L16.869892120361328 10.509057998657227 C15.439029693603516 12.169004440307617 14.008210182189941 13.828990936279297 12.577421188354492 15.489002227783203 C11.146632194519043 17.14901351928711 9.715873718261719 18.809051513671875 8.28512954711914 20.469100952148438 L8.28512954711914 20.469100952148438 C10.675121307373047 20.469100952148438 13.065116882324219 20.469100952148438 15.455108642578125 20.469100952148438 L15.455108642578125 20.469100952148438 C15.464484214782715 20.60403823852539 15.473858833312988 20.73897361755371 15.483234405517578 20.873910903930664 L15.483234405517578 20.873910903930664 C14.945798873901367 21.23715591430664 14.199506759643555 21.102039337158203 13.550830841064453 21.103836059570312 C11.309054374694824 21.110042572021484 9.067256927490234 21.10800552368164 6.825474739074707 21.107757568359375 L6.825474739074707 21.107757568359375 C8.269804954528809 19.43058967590332 9.714173316955566 17.753454208374023 11.158561706542969 16.076335906982422 C12.602950096130371 14.399215698242188 14.047357559204102 12.722114562988281 15.491765975952148 11.045013427734375 L15.491765975952148 11.045013427734375 C13.128002166748047 11.045013427734375 10.764238357543945 11.045013427734375 8.400474548339844 11.045013427734375 L8.400474548339844 11.045013427734375 C9.699601173400879 10.461155891418457 11.127693176269531 10.277814865112305 12.575634956359863 10.265113830566406 C14.023576736450195 10.252412796020508 15.49136734008789 10.41035270690918 16.869892120361328 10.509057998657227 L16.869892120361328 10.509057998657227"></path></svg>