<svg xmlns="http://www.w3.org/2000/svg" viewBox="0.0 0.0 24.0 24.0" height="200px" width="200px"><path fill="none" stroke="black" stroke-width=".3" stroke-opacity="1.0"  filling="0" d="M19.203815460205078 10.737611770629883 C19.203815460205078 15.7493896484375 19.394765853881836 20.557281494140625 19.083242416381836 25.33257293701172 C18.99371910095215 26.706995010375977 17.45473861694336 27.9862003326416 16.5802001953125 29.308874130249023 C13.47533130645752 29.308874130249023 10.370460510253906 29.308874130249023 7.265590190887451 29.308874130249023 C5.177565097808838 27.43042755126953 5.177565097808838 27.43042755126953 5.1051177978515625 24.59775161743164 C6.805552005767822 24.892196655273438 8.5318603515625 24.940837860107422 10.046001434326172 25.5328369140625 C11.237754821777344 25.998565673828125 12.434164047241211 26.691469192504883 13.317499160766602 25.652889251708984 C13.98090648651123 24.873050689697266 13.993326187133789 23.538990020751953 14.388679504394531 22.116443634033203 C8.472350120544434 24.952743530273438 4.655429840087891 22.63961410522461 4.618170738220215 16.750192642211914 C4.602646350860596 14.291135787963867 5.12322998046875 12.04062271118164 7.469994068145752 10.817303657531738 C9.8483247756958 9.577425003051758 12.134026527404785 9.99658203125 14.116486549377441 11.832595825195312 C15.479525566101074 9.706277847290039 17.374530792236328 11.02015495300293 19.203815460205078 10.737611770629883"></path>
<path fill="none" stroke="black" stroke-width=".3" stroke-opacity="1.0"  filling="0" d="M11.790938377380371 13.810914993286133 C13.134312629699707 13.77417278289795 14.140291213989258 15.108750343322754 14.143912315368652 16.932344436645508 C14.147017478942871 18.67521095275879 13.297318458557129 19.88921546936035 12.019146919250488 19.96683692932129 C10.619885444641113 20.052223205566406 9.747934341430664 18.857881546020508 9.757765769958496 16.87024688720703 C9.767080307006836 14.983003616333008 10.523117065429688 13.84610366821289 11.790938377380371 13.810914993286133"></path></svg>