<svg xmlns="http://www.w3.org/2000/svg" viewBox="0.0 0.0 24.0 24.0" height="200px" width="200px"><path fill="none" stroke="black" stroke-width=".3" stroke-opacity="1.0"  filling="0" d="M17.13033103942871 8.121322631835938 L17.13033103942871 8.121322631835938 C16.966773986816406 9.442367553710938 16.36589813232422 9.299976348876953 15.892269134521484 10.401298522949219 C15.0359525680542 12.392478942871094 14.856703758239746 15.074787139892578 14.378668785095215 17.197980880737305 L14.378668785095215 17.197980880737305 C14.645041465759277 17.325040817260742 14.911415100097656 17.45210075378418 15.177787780761719 17.579160690307617 L15.177787780761719 17.579160690307617 C15.078116416931152 18.0143985748291 14.978446006774902 18.449634552001953 14.878774642944336 18.884872436523438 L14.878774642944336 18.884872436523438 C13.465051651000977 18.884872436523438 12.051329612731934 18.884872436523438 10.637605667114258 18.884872436523438 L10.637605667114258 18.884872436523438 C10.738718032836914 18.426467895507812 10.839831352233887 17.968063354492188 10.940943717956543 17.509658813476562 L10.940943717956543 17.509658813476562 C11.325830459594727 17.436140060424805 11.71071720123291 17.36262321472168 12.095603942871094 17.289104461669922 L12.095603942871094 17.289104461669922 C12.259651184082031 16.576894760131836 12.423673629760742 15.864678382873535 12.587677955627441 15.152458190917969 L12.587677955627441 15.152458190917969 C11.740949630737305 15.530569076538086 11.006593704223633 15.944294929504395 9.969744682312012 15.762439727783203 C8.198094367980957 15.451705932617188 7.771139621734619 13.762408256530762 8.110675811767578 12.065492630004883 C8.450212478637695 10.368577003479004 9.55624008178711 8.664043426513672 10.850552558898926 8.322840690612793 C12.105777740478516 7.991941452026367 12.693267822265625 8.506793975830078 13.802264213562012 9.002300262451172 L13.802264213562012 9.002300262451172 C14.78061294555664 8.402517318725586 15.982993125915527 8.098514556884766 17.13033103942871 8.121322631835938 L17.13033103942871 8.121322631835938"></path>
<path fill="none" stroke="black" stroke-width=".3" stroke-opacity="1.0"  filling="0" d="M12.59910774230957 10.057804107666016 L12.59910774230957 10.057804107666016 C12.942911148071289 10.478729248046875 13.286714553833008 10.899653434753418 13.630517959594727 11.320578575134277 L13.630517959594727 11.320578575134277 C13.53388500213623 11.533809661865234 12.74609661102295 13.380142211914062 12.47647476196289 13.577695846557617 C10.157377243041992 15.276911735534668 9.887054443359375 11.446223258972168 11.1361665725708 10.466167449951172 C11.534485816955566 10.153645515441895 12.11146068572998 10.193924903869629 12.59910774230957 10.057804107666016 L12.59910774230957 10.057804107666016"></path></svg>