<svg xmlns="http://www.w3.org/2000/svg" viewBox="0.0 0.0 24.0 24.0" height="200px" width="200px"><path fill="none" stroke="black" stroke-width=".3" stroke-opacity="1.0"  filling="0" d="M16.263870239257812 15.33840560913086 L16.263870239257812 15.33840560913086 C16.320953369140625 17.13806915283203 16.229345321655273 18.900516510009766 16.049047470092773 20.65573501586914 C15.868748664855957 22.410951614379883 15.599760055541992 24.158939361572266 15.302084922790527 25.929677963256836 L15.302084922790527 25.929677963256836 C15.130487442016602 25.93581199645996 14.95888900756836 25.941946029663086 14.787291526794434 25.94808006286621 L14.787291526794434 25.94808006286621 C14.526655197143555 25.270282745361328 14.380986213684082 24.51826286315918 13.940765380859375 23.94072723388672 L13.940765380859375 23.94072723388672 C14.666814804077148 22.569162368774414 14.938366889953613 21.121501922607422 15.183018684387207 19.665271759033203 C15.427671432495117 18.209041595458984 15.645421981811523 16.744243621826172 16.263870239257812 15.33840560913086 L16.263870239257812 15.33840560913086"></path>
<path fill="none" stroke="black" stroke-width=".3" stroke-opacity="1.0"  filling="0" d="M9.434025764465332 15.351964950561523 L9.434025764465332 15.351964950561523 C9.746953964233398 16.71076202392578 9.453142166137695 18.123022079467773 9.160491943359375 19.523380279541016 C8.867841720581055 20.92374038696289 8.576353073120117 22.312198638916016 8.893928527832031 23.62339973449707 C9.21567440032959 24.951818466186523 10.053512573242188 25.424894332885742 11.369220733642578 25.211668014526367 C11.571049690246582 25.178958892822266 13.564836502075195 24.135417938232422 13.940765380859375 23.941211700439453 L13.940765380859375 23.941211700439453 C13.990968704223633 24.006914138793945 14.041172981262207 24.072614669799805 14.091376304626465 24.138317108154297 L14.091376304626465 24.138317108154297 C13.20675277709961 25.020362854003906 11.709948539733887 25.879371643066406 10.395739555358887 26.010080337524414 C9.081531524658203 26.140789031982422 7.949917793273926 25.543197631835938 7.795677185058594 23.512048721313477 C7.69734001159668 22.21707534790039 7.881104946136475 20.818870544433594 8.137834548950195 19.424589157104492 C8.394563674926758 18.03030776977539 8.724258422851562 16.63995361328125 8.917779922485352 15.360681533813477 L8.917779922485352 15.360681533813477 C9.089861869812012 15.357775688171387 9.261943817138672 15.354870796203613 9.434025764465332 15.351964950561523 L9.434025764465332 15.351964950561523"></path></svg>