<svg xmlns="http://www.w3.org/2000/svg" viewBox="0.0 0.0 24.0 24.0" height="200px" width="200px"><path fill="none" stroke="black" stroke-width=".3" stroke-opacity="1.0"  filling="0" d="M14.169726371765137 9.156333923339844 C14.584348678588867 11.447966575622559 14.988950729370117 13.683775901794434 15.500429153442383 16.511219024658203 C16.38835906982422 14.767805099487305 17.061105728149414 13.447121620178223 17.788244247436523 12.019562721252441 C16.461835861206055 11.298626899719238 16.555830001831055 10.359643936157227 17.250524520874023 9.267026901245117 C18.90996551513672 9.267026901245117 20.558435440063477 9.267026901245117 22.280380249023438 9.267026901245117 C22.31139373779297 11.797699928283691 19.58319091796875 12.499551773071289 19.030202865600586 14.680490493774414 C18.51586151123047 16.709705352783203 17.27533531188965 18.555225372314453 16.3334903717041 20.524799346923828 C15.304807662963867 20.524799346923828 14.376798629760742 20.524799346923828 13.307084083557129 20.524799346923828 C12.940651893615723 18.69072914123535 12.586148262023926 16.91391372680664 12.101387977600098 14.485822677612305 C10.936726570129395 16.746442794799805 10.000606536865234 18.564767837524414 8.988622665405273 20.530048370361328 C7.929882526397705 20.530048370361328 6.994716644287109 20.530048370361328 6.06813907623291 20.530048370361328 C4.829044818878174 17.500301361083984 5.523739337921143 13.964325904846191 3.642910957336426 11.230875015258789 C3.4554004669189453 11.261887550354004 3.2678909301757812 11.292901039123535 3.080380439758301 11.32439136505127 C3.2282896041870117 10.666913032531738 3.375720977783203 10.009910583496094 3.54128360748291 9.273706436157227 C5.347679615020752 9.273706436157227 7.078213691711426 9.273706436157227 8.967630386352539 9.273706436157227 C9.142257690429688 10.572918891906738 8.897492408752441 11.563908576965332 7.37832498550415 11.814876556396484 C7.666985988616943 13.382232666015625 7.918908596038818 14.748242378234863 8.268641471862793 16.646724700927734 C9.594095230102539 13.889894485473633 10.68480396270752 11.621163368225098 11.810342788696289 9.280385971069336 C12.541775703430176 9.241739273071289 13.2398099899292 9.204999923706055 14.169726371765137 9.156333923339844"></path></svg>