<svg xmlns="http://www.w3.org/2000/svg" viewBox="0.0 0.0 24.0 24.0" height="200px" width="200px"><path fill="none" stroke="black" stroke-width=".3" stroke-opacity="1.0"  filling="0" d="M15.259986877441406 9.03715991973877 C15.3827543258667 9.160484313964844 15.505518913269043 9.2843656539917 15.62828540802002 9.408805847167969 C13.969274520874023 11.965681076049805 12.310820579528809 14.522555351257324 10.563641548156738 17.21614646911621 C11.89509105682373 17.039255142211914 12.974313735961914 16.810462951660156 14.060232162475586 16.770843505859375 C15.710314750671387 16.710575103759766 16.891098022460938 17.548171997070312 17.615413665771484 19.007410049438477 C19.310697555541992 22.42308807373047 16.645008087158203 27.545207977294922 12.867172241210938 28.154571533203125 C9.411317825317383 28.7120418548584 6.900758266448975 26.394001007080078 7.219949245452881 22.753440856933594 C7.338809013366699 21.396320343017578 7.666928291320801 19.9326171875 8.339349746704102 18.77248191833496 C10.152934074401855 15.644189834594727 12.189170837402344 12.643123626708984 14.182439804077148 9.621971130371094 C14.381096839904785 9.321195602416992 14.893363952636719 9.226888656616211 15.259986877441406 9.03715991973877"></path>
<path fill="none" stroke="black" stroke-width=".3" stroke-opacity="1.0"  filling="0" d="M13.565263748168945 17.934326171875 C15.756631851196289 17.982316970825195 16.77391242980957 19.161983489990234 16.718109130859375 21.589954376220703 C16.647798538208008 24.656864166259766 14.507210731506348 27.116085052490234 11.937501907348633 27.08148956298828 C9.799145698547363 27.0535888671875 8.515128135681152 25.421920776367188 8.59715747833252 22.838817596435547 C8.688116073608398 19.98563003540039 10.825913429260254 17.874616622924805 13.565263748168945 17.934326171875"></path></svg>