<svg xmlns="http://www.w3.org/2000/svg" viewBox="0.0 0.0 24.0 24.0" height="200px" width="200px"><path fill="none" stroke="black" stroke-width=".3" stroke-opacity="1.0"  filling="0" d="M12.599759101867676 7.379638195037842 L12.599759101867676 7.379638195037842 C12.879839897155762 7.562978267669678 13.159919738769531 7.7463178634643555 13.440000534057617 7.929657936096191 L13.440000534057617 7.929657936096191 C12.261086463928223 8.760828971862793 11.399595260620117 8.737092018127441 12.599759101867676 7.379638195037842 L12.599759101867676 7.379638195037842"></path>
<path fill="none" stroke="black" stroke-width=".3" stroke-opacity="1.0"  filling="0" d="M12.150663375854492 9.761771202087402 L12.150663375854492 9.761771202087402 C12.335290908813477 10.006600379943848 12.7020263671875 10.189627647399902 12.704546928405762 10.496258735656738 C12.709238052368164 11.067044258117676 12.349493980407715 11.581253051757812 12.17007064819336 12.123125076293945 C11.667662620544434 13.640435218811035 11.206846237182617 16.887805938720703 9.773239135742188 17.831531524658203 C8.384225845336914 18.74590301513672 7.791535377502441 18.033592224121094 7.9752912521362305 16.76040267944336 L7.9752912521362305 16.76040267944336 C8.378751754760742 17.108491897583008 8.78221321105957 17.456579208374023 9.185673713684082 17.804668426513672 L9.185673713684082 17.804668426513672 C10.076190948486328 15.516182899475098 10.77043342590332 13.19980525970459 11.440563201904297 10.838873863220215 L11.440563201904297 10.838873863220215 C11.368450164794922 10.80024242401123 11.296338081359863 10.76161003112793 11.224225044250488 10.722978591918945 L11.224225044250488 10.722978591918945 C10.898993492126465 10.939799308776855 10.573762893676758 11.156620025634766 10.248531341552734 11.373440742492676 L10.248531341552734 11.373440742492676 C10.735076904296875 10.699724197387695 11.398865699768066 10.115920066833496 12.150663375854492 9.761771202087402 L12.150663375854492 9.761771202087402"></path></svg>