<svg xmlns="http://www.w3.org/2000/svg" viewBox="0.0 0.0 24.0 24.0" height="200px" width="200px"><path fill="none" stroke="black" stroke-width=".3" stroke-opacity="1.0"  filling="0" d="M12.621156692504883 1.540853500366211 C13.789018630981445 1.4872493743896484 14.980209350585938 1.9160785675048828 16.318313598632812 2.167717933654785 C16.318313598632812 4.078089237213135 16.318313598632812 5.869837760925293 16.318313598632812 7.7514214515686035 C15.638341903686523 7.7514214515686035 15.08443832397461 7.7514214515686035 14.473457336425781 7.7514214515686035 C13.729955673217773 6.506131649017334 14.455093383789062 4.439913272857666 12.087106704711914 3.83042049407959 C11.872692108154297 4.503939151763916 11.500941276550293 5.145196437835693 11.491511344909668 5.791417121887207 C11.441878318786621 9.257781028747559 11.474139213562012 12.725137710571289 11.50391960144043 16.191997528076172 C11.507393836975098 16.592533111572266 11.573902130126953 17.05809211730957 11.78831672668457 17.373260498046875 C12.037473678588867 17.739055633544922 12.48466682434082 18.200641632080078 12.84103012084961 18.196670532226562 C13.194913864135742 18.192699432373047 13.738889694213867 17.72317123413086 13.855527877807617 17.349933624267578 C14.172185897827148 16.338415145874023 14.306194305419922 15.269322395324707 14.554855346679688 14.010629653930664 C15.183207511901855 14.16647720336914 15.76391315460205 14.309916496276855 16.695026397705078 14.54071044921875 C16.37141990661621 15.981058120727539 16.192245483398438 17.356882095336914 15.737607955932617 18.63443374633789 C15.298852920532227 19.8673152923584 14.300735473632812 20.6649169921875 12.922924995422363 20.73192024230957 C11.448826789855957 20.80388832092285 10.324641227722168 20.073787689208984 9.74691390991211 18.78084945678711 C9.24909496307373 17.66659164428711 8.753759384155273 16.43073081970215 8.741350173950195 15.243512153625488 C8.706607818603516 11.876413345336914 8.857988357543945 8.502863883972168 9.077861785888672 5.1407294273376465 C9.133947372436523 4.28704309463501 9.526046752929688 3.2775096893310547 10.11270809173584 2.685885429382324 C10.72914981842041 2.064480781555176 11.752580642700195 1.5810556411743164 12.621156692504883 1.540853500366211"></path></svg>