<svg xmlns="http://www.w3.org/2000/svg" viewBox="0.0 0.0 24.0 24.0" height="200px" width="200px"><path fill="none" stroke="black" stroke-width=".3" stroke-opacity="1.0"  filling="0" d="M5.254054069519043 8.537297248840332 C6.824324131011963 8.537297248840332 8.476757049560547 8.537297248840332 10.402702331542969 8.537297248840332 C10.402702331542969 11.335676193237305 10.402702331542969 14.160000801086426 10.402702331542969 16.984865188598633 C10.54054069519043 17.138919830322266 10.678378105163574 17.292972564697266 10.816216468811035 17.446487426757812 C13.255134582519531 13.833513259887695 16.592432022094727 13.095675468444824 20.775676727294922 14.019999504089355 C19.190811157226562 15.636215209960938 17.7221622467041 17.133514404296875 16.190811157226562 18.694595336914062 C17.904865264892578 21.70432472229004 19.536216735839844 24.568649291992188 21.340539932250977 27.73729705810547 C19.090810775756836 27.73729705810547 17.298377990722656 27.73729705810547 15.430810928344727 27.73729705810547 C14.484865188598633 25.991893768310547 13.55189323425293 24.27135467529297 12.63513469696045 22.580001831054688 C9.98432445526123 23.479461669921875 10.564865112304688 25.705406188964844 10.414594650268555 27.669189453125 C8.668107986450195 27.669189453125 7.072972774505615 27.669189453125 5.254054069519043 27.669189453125 C5.254054069519043 21.392974853515625 5.254054069519043 15.061622619628906 5.254054069519043 8.537297248840332"></path></svg>