<svg xmlns="http://www.w3.org/2000/svg" viewBox="0.0 0.0 24.0 24.0" height="200px" width="200px"><path fill="none" stroke="black" stroke-width=".3" stroke-opacity="1.0"  filling="0" d="M8.9231538772583 3.699704170227051 C11.873122215270996 3.4539690017700195 14.831682205200195 3.6286754608154297 17.9592227935791 3.9133615493774414 C14.786432266235352 4.597869873046875 14.54814338684082 7.1296868324279785 13.958148002624512 9.465032577514648 C13.188864707946777 12.511232376098633 12.31361198425293 15.530511856079102 11.527145385742188 18.57213020324707 C11.295730590820312 19.466285705566406 11.2121000289917 20.398818969726562 11.051713943481445 21.37087631225586 C11.970499992370605 21.747787475585938 12.673910140991211 22.036479949951172 13.377320289611816 22.325180053710938 C13.340086936950684 22.47754669189453 13.302854537963867 22.6304874420166 13.26562213897705 22.782854080200195 C10.160422325134277 22.782854080200195 7.055222034454346 22.782854080200195 3.9500207901000977 22.782854080200195 C3.858944892883301 22.56804847717285 3.7684412002563477 22.352672576904297 3.6779375076293945 22.137866973876953 C6.672012805938721 22.343507766723633 7.1778035163879395 20.3283634185791 7.705933570861816 18.229589462280273 C8.54166316986084 14.908439636230469 9.497109413146973 11.618223190307617 10.37178897857666 8.306238174438477 C10.632989883422852 7.3164238929748535 10.792230606079102 6.299686908721924 11.0184907913208 5.196455955505371 C10.155266761779785 4.835013389587402 9.513147354125977 4.565792560577393 8.871027946472168 4.297144412994385 C8.888212203979492 4.09780740737915 8.905396461486816 3.8984689712524414 8.9231538772583 3.699704170227051"></path></svg>