<svg xmlns="http://www.w3.org/2000/svg" viewBox="0.0 0.0 24.0 24.0" height="200px" width="200px"><path fill="none" stroke="black" stroke-width=".3" stroke-opacity="1.0"  filling="0" d="M8.127941131591797 6.4098405838012695 L8.127941131591797 6.4098405838012695 C9.244906425476074 6.4098405838012695 10.361872673034668 6.4098405838012695 11.478837966918945 6.4098405838012695 L11.478837966918945 6.4098405838012695 C11.716059684753418 7.916510581970215 11.953354835510254 9.423168182373047 12.190604209899902 10.92983341217041 L12.190604209899902 10.92983341217041 C12.232466697692871 10.941780090332031 12.27432918548584 10.953726768493652 12.316191673278809 10.965673446655273 L12.316191673278809 10.965673446655273 C12.569663047790527 9.449222564697266 12.823233604431152 7.9327874183654785 13.076830863952637 6.416357040405273 L13.076830863952637 6.416357040405273 C14.15272331237793 6.416357040405273 15.228615760803223 6.416357040405273 16.304508209228516 6.416357040405273 L16.304508209228516 6.416357040405273 C16.124378204345703 7.756463050842285 15.803970336914062 9.081554412841797 15.595015525817871 10.423591613769531 C15.38606071472168 11.765628814697266 15.288558959960938 13.124611854553223 15.554237365722656 14.532499313354492 C15.724995613098145 15.437382698059082 16.214452743530273 16.26508140563965 16.364046096801758 17.173704147338867 L16.364046096801758 17.173704147338867 C15.327350616455078 17.173704147338867 14.290654182434082 17.173704147338867 13.253958702087402 17.173704147338867 L13.253958702087402 17.173704147338867 C13.268458366394043 16.454347610473633 13.794205665588379 15.837825775146484 14.002304077148438 15.14907455444336 C14.610237121582031 13.13697624206543 13.999016761779785 9.915223121643066 13.995046615600586 7.802270889282227 L13.995046615600586 7.802270889282227 C13.733349800109863 9.367195129394531 13.471624374389648 10.932114601135254 13.209879875183105 12.497031211853027 C12.948135375976562 14.061946868896484 12.686372756958008 15.626860618591309 12.424600601196289 17.1917724609375 L12.424600601196289 17.1917724609375 C12.295063018798828 17.19335174560547 12.165525436401367 17.194931030273438 12.035987854003906 17.196510314941406 L12.035987854003906 17.196510314941406 C11.683728218078613 15.66108512878418 11.385397911071777 14.11837387084961 11.109108924865723 12.571441650390625 C10.832820892333984 11.02450942993164 10.578573226928711 9.473356246948242 10.314480781555176 7.921047210693359 L10.314480781555176 7.921047210693359 C10.312946319580078 9.558313369750977 10.228025436401367 11.125337600708008 10.306168556213379 12.660595893859863 C10.38431167602539 14.195854187011719 10.625517845153809 15.699344635009766 11.276238441467285 17.209543228149414 L11.276238441467285 17.209543228149414 C10.274099349975586 17.209543228149414 9.271960258483887 17.209543228149414 8.269821166992188 17.209543228149414 L8.269821166992188 17.209543228149414 C8.282882690429688 16.493139266967773 8.831707000732422 15.889212608337402 9.052896499633789 15.207684516906738 C9.48742961883545 13.868804931640625 9.41092586517334 12.304115295410156 9.148421287536621 10.756760597229004 C8.885917663574219 9.209405899047852 8.43741226196289 7.679384231567383 8.127941131591797 6.4098405838012695 L8.127941131591797 6.4098405838012695"></path></svg>