<svg xmlns="http://www.w3.org/2000/svg" viewBox="0.0 0.0 24.0 24.0" height="200px" width="200px"><path fill="none" stroke="black" stroke-width=".3" stroke-opacity="1.0"  filling="0" d="M7.445332050323486 10.496430397033691 L7.445332050323486 10.496430397033691 C9.76120662689209 10.49065113067627 10.991873741149902 13.13973617553711 12.373234748840332 14.797513961791992 L12.373234748840332 14.797513961791992 C13.743236541748047 13.132484436035156 14.973237991333008 10.451745986938477 17.29701042175293 10.538005828857422 L17.29701042175293 10.538005828857422 C17.29701042175293 12.298280715942383 17.29701042175293 14.058555603027344 17.29701042175293 15.818830490112305 C17.29701042175293 17.579105377197266 17.29701042175293 19.339380264282227 17.29701042175293 21.099655151367188 L17.29701042175293 21.099655151367188 C16.843902587890625 21.13372039794922 16.39079475402832 21.16778564453125 15.937686920166016 21.20185089111328 L15.937686920166016 21.20185089111328 C15.937686920166016 19.88373374938965 15.937686920166016 18.565616607666016 15.937686920166016 17.247499465942383 C15.937686920166016 15.929383277893066 15.937686920166016 14.61126708984375 15.937686920166016 13.293149948120117 L15.937686920166016 13.293149948120117 C15.822690963745117 13.240041732788086 15.707695007324219 13.186934471130371 15.59269905090332 13.13382625579834 L15.59269905090332 13.13382625579834 C14.518760681152344 14.449633598327637 13.444857597351074 15.765469551086426 12.371012687683105 17.08135414123535 L12.371012687683105 17.08135414123535 C11.318763732910156 15.81274700164795 10.266444206237793 14.544198036193848 9.214070320129395 13.2756929397583 L9.214070320129395 13.2756929397583 C9.116952896118164 13.308488845825195 9.019835472106934 13.341283798217773 8.922718048095703 13.374079704284668 L8.922718048095703 13.374079704284668 C8.922718048095703 14.65939998626709 8.922718048095703 15.944722175598145 8.922718048095703 17.230045318603516 C8.922718048095703 18.51536750793457 8.922718048095703 19.800689697265625 8.922718048095703 21.086009979248047 L8.922718048095703 21.086009979248047 C8.43046760559082 21.12441062927246 7.9382171630859375 21.162813186645508 7.445966720581055 21.201213836669922 L7.445966720581055 21.201213836669922 C7.445700645446777 19.417083740234375 7.44554328918457 17.632951736450195 7.445451736450195 15.848821640014648 C7.44536018371582 14.064691543579102 7.4453349113464355 12.280561447143555 7.445332050323486 10.496430397033691 L7.445332050323486 10.496430397033691"></path></svg>