<svg xmlns="http://www.w3.org/2000/svg" viewBox="0.0 0.0 24.0 24.0" height="200px" width="200px"><path fill="none" stroke="black" stroke-width=".3" stroke-opacity="1.0"  filling="0" d="M16.89394760131836 12.928726196289062 C19.540800094604492 12.025931358337402 21.953384399414062 13.487809181213379 22.12128448486328 16.215972900390625 C22.28610610961914 18.89974594116211 22.157325744628906 21.601978302001953 22.157325744628906 24.42420196533203 C20.739839553833008 24.42420196533203 19.45025634765625 24.42420196533203 17.802898406982422 24.42420196533203 C17.802898406982422 22.60454750061035 17.813007354736328 20.736541748046875 17.800260543823242 18.868539810180664 C17.78751564025879 16.983394622802734 17.303592681884766 16.168506622314453 16.274211883544922 16.240589141845703 C15.269006729125977 16.3109130859375 14.742888450622559 17.207115173339844 14.719592094421387 18.989410400390625 C14.696737289428711 20.73874282836914 14.714757919311523 22.488948822021484 14.714757919311523 24.394752502441406 C13.260791778564453 24.394752502441406 11.921982765197754 24.394752502441406 10.325169563293457 24.394752502441406 C10.325169563293457 22.642345428466797 10.329126358032227 20.908397674560547 10.322972297668457 19.174013137817383 C10.320775032043457 18.58943748474121 10.435491561889648 17.947723388671875 10.232868194580078 17.436548233032227 C10.04606819152832 16.965810775756836 9.544564247131348 16.38211441040039 9.109429359436035 16.314868927001953 C8.66901969909668 16.24673843383789 7.895446300506592 16.633087158203125 7.703811168670654 17.03086280822754 C7.37284517288208 17.717845916748047 7.291092395782471 18.56394386291504 7.262523174285889 19.34894371032715 C7.201868057250977 21.012569427490234 7.243623733520508 22.67926788330078 7.243623733520508 24.44573974609375 C5.739551067352295 24.44573974609375 4.450408935546875 24.44573974609375 3.0047922134399414 24.44573974609375 C3.0047922134399414 20.745773315429688 3.0047922134399414 17.06294822692871 3.0047922134399414 13.18804931640625 C4.474143028259277 13.394189834594727 6.0823845863342285 12.317339897155762 7.220327854156494 14.069747924804688 C10.453073501586914 12.086586952209473 11.748369216918945 12.138011932373047 14.389506340026855 14.294347763061523 C15.243515014648438 13.81833553314209 16.01884651184082 13.227168083190918 16.89394760131836 12.928726196289062"></path></svg>