<svg xmlns="http://www.w3.org/2000/svg" viewBox="0.0 0.0 24.0 24.0" height="200px" width="200px"><path fill="none" stroke="black" stroke-width=".3" stroke-opacity="1.0"  filling="0" d="M14.412023544311523 15.098959922790527 L14.412023544311523 15.098959922790527 C14.994065284729004 15.256185531616211 15.5761079788208 15.413410186767578 16.15814971923828 15.570635795593262 L16.15814971923828 15.570635795593262 C16.15814971923828 16.257495880126953 16.15814971923828 16.944355010986328 16.15814971923828 17.631214141845703 L16.15814971923828 17.631214141845703 C15.11927318572998 17.304441452026367 13.722890853881836 16.648101806640625 12.55868148803711 17.073286056518555 C11.193880081176758 17.571727752685547 10.460769653320312 18.824012756347656 10.378281593322754 20.121505737304688 C10.295792579650879 21.418996810913086 10.86392593383789 22.761695861816406 12.101611137390137 23.440967559814453 C13.392196655273438 24.149272918701172 15.086559295654297 23.616436004638672 16.405548095703125 23.3667049407959 L16.405548095703125 23.3667049407959 C16.44672393798828 23.811540603637695 16.70897102355957 24.29229736328125 16.529075622558594 24.701213836669922 C15.618260383605957 26.771575927734375 11.516294479370117 25.69452476501465 10.263757705688477 24.730634689331055 C8.830110549926758 23.62737274169922 8.167423248291016 21.772066116333008 8.271940231323242 19.975170135498047 C8.376457214355469 18.17827606201172 9.24817943572998 16.43979263305664 10.88335132598877 15.570176124572754 C12.283946990966797 14.825311660766602 12.870224952697754 15.053105354309082 14.412023544311523 15.098959922790527 L14.412023544311523 15.098959922790527"></path></svg>