<svg xmlns="http://www.w3.org/2000/svg" viewBox="0.0 0.0 24.0 24.0" height="200px" width="200px"><path fill="none" stroke="black" stroke-width=".3" stroke-opacity="1.0"  filling="0" d="M15.157151222229004 10.475418090820312 L15.157151222229004 10.475418090820312 C15.157151222229004 12.271005630493164 15.157151222229004 14.066591262817383 15.157151222229004 15.862177848815918 C15.157151222229004 17.657764434814453 15.157151222229004 19.453350067138672 15.157151222229004 21.248939514160156 L15.157151222229004 21.248939514160156 C13.583245277404785 21.27260971069336 11.591143608093262 21.572481155395508 10.18625259399414 20.625581741333008 C8.031243324279785 19.1731014251709 8.427499771118164 15.466355323791504 10.700484275817871 14.35477066040039 C11.912453651428223 13.762066841125488 12.664819717407227 13.99313735961914 13.852690696716309 14.136456489562988 L13.852690696716309 14.136456489562988 C13.852690696716309 12.935996055603027 13.852690696716309 11.73553466796875 13.852690696716309 10.535074234008789 L13.852690696716309 10.535074234008789 C14.287510871887207 10.515189170837402 14.722331047058105 10.4953031539917 15.157151222229004 10.475418090820312 L15.157151222229004 10.475418090820312"></path>
<path fill="none" stroke="black" stroke-width=".3" stroke-opacity="1.0"  filling="0" d="M13.776445388793945 15.659443855285645 L13.776445388793945 15.659443855285645 C13.776445388793945 17.0797061920166 13.776445388793945 18.49997329711914 13.776445388793945 19.92023468017578 L13.776445388793945 19.92023468017578 C13.15441608428955 19.924474716186523 12.504029273986816 20.11867332458496 11.910356521606445 19.932954788208008 C10.109960556030273 19.369733810424805 9.637676239013672 17.28829574584961 10.845955848693848 15.90859603881836 C11.804656028747559 14.813882827758789 12.599370956420898 15.391661643981934 13.776445388793945 15.659443855285645 L13.776445388793945 15.659443855285645"></path></svg>