<svg xmlns="http://www.w3.org/2000/svg" viewBox="0.0 0.0 24.0 24.0" height="200px" width="200px"><path fill="none" stroke="black" stroke-width=".3" stroke-opacity="1.0"  filling="0" d="M11.415321350097656 6.305380344390869 L11.415321350097656 6.305380344390869 C11.415321350097656 7.33601188659668 11.415321350097656 8.366643905639648 11.415321350097656 9.3972749710083 L11.415321350097656 9.3972749710083 C11.914127349853516 9.403313636779785 12.432965278625488 9.2753267288208 12.91174030303955 9.41539192199707 C14.753199577331543 9.954110145568848 13.676246643066406 13.791963577270508 13.936186790466309 15.119156837463379 C14.066919326782227 15.78664493560791 14.459288597106934 16.420743942260742 14.425688743591309 17.100082397460938 L14.425688743591309 17.100082397460938 C13.79426097869873 17.100082397460938 13.162834167480469 17.100082397460938 12.53140640258789 17.100082397460938 L12.53140640258789 17.100082397460938 C12.53140640258789 14.965041160583496 12.53140640258789 12.829999923706055 12.53140640258789 10.694957733154297 L12.53140640258789 10.694957733154297 C10.21435546875 12.600018501281738 12.168450355529785 14.673064231872559 11.896839141845703 17.09596061706543 L11.896839141845703 17.09596061706543 C11.482227325439453 17.09605598449707 10.038809776306152 17.096242904663086 9.629350662231445 17.096256256103516 L9.629350662231445 17.096256256103516 C9.935857772827148 15.267121315002441 10.098539352416992 13.508325576782227 10.095048904418945 11.75107479095459 C10.091558456420898 9.99382495880127 9.921895980834961 8.238119125366211 9.563715934753418 6.415163516998291 L9.563715934753418 6.415163516998291 C10.177206993103027 6.338316917419434 10.797040939331055 6.307907581329346 11.415321350097656 6.305380344390869 L11.415321350097656 6.305380344390869"></path></svg>