<svg xmlns="http://www.w3.org/2000/svg" viewBox="0.0 0.0 24.0 24.0" height="200px" width="200px"><path fill="none" stroke="black" stroke-width=".3" stroke-opacity="1.0"  filling="0" d="M12.214412689208984 11.195094108581543 L12.214412689208984 11.195094108581543 C12.621017456054688 11.520033836364746 13.02762222290039 11.844974517822266 13.434226989746094 12.169914245605469 L13.434226989746094 12.169914245605469 C12.03799057006836 12.744755744934082 10.598535537719727 12.708955764770508 12.214412689208984 11.195094108581543 L12.214412689208984 11.195094108581543"></path>
<path fill="none" stroke="black" stroke-width=".3" stroke-opacity="1.0"  filling="0" d="M12.821227073669434 14.393757820129395 L12.821227073669434 14.393757820129395 C12.821227073669434 15.660533905029297 12.821227073669434 16.92730712890625 12.821227073669434 18.194082260131836 C12.821227073669434 19.460857391357422 12.821227073669434 20.727630615234375 12.821227073669434 21.994407653808594 L12.821227073669434 21.994407653808594 C12.372129440307617 21.994407653808594 11.923030853271484 21.994407653808594 11.473933219909668 21.994407653808594 L11.473933219909668 21.994407653808594 C11.473933219909668 19.51549530029297 11.473933219909668 17.03657341003418 11.473933219909668 14.557659149169922 L11.473933219909668 14.557659149169922 C11.923030853271484 14.50302505493164 12.372129440307617 14.448391914367676 12.821227073669434 14.393757820129395 L12.821227073669434 14.393757820129395"></path></svg>