<svg xmlns="http://www.w3.org/2000/svg" viewBox="0.0 0.0 24.0 24.0" height="200px" width="200px"><path fill="none" stroke="black" stroke-width=".3" stroke-opacity="1.0"  filling="0" d="M2.6625194549560547 15.611124992370605 C3.7433433532714844 15.861227035522461 4.650337219238281 16.07171630859375 6.068180084228516 16.399866104125977 C8.186075210571289 14.86613655090332 10.755102157592773 14.651509284973145 12.920888900756836 17.367168426513672 C13.237213134765625 17.266063690185547 13.451841354370117 17.25778579711914 13.579553604125977 17.148401260375977 C15.22148323059082 15.742975234985352 16.952693939208984 14.723050117492676 19.200075149536133 15.730557441711426 C21.475244522094727 16.7504825592041 21.749591827392578 18.826990127563477 21.819358825683594 20.92241668701172 C21.904502868652344 23.461288452148438 21.839462280273438 26.005481719970703 21.839462280273438 28.7004451751709 C20.915912628173828 28.7004451751709 20.194576263427734 28.7004451751709 19.104883193969727 28.7004451751709 C19.104883193969727 25.839927673339844 19.237916946411133 23.096477508544922 19.02920150756836 20.379638671875 C18.960615158081055 19.48387908935547 18.183696746826172 18.23336410522461 17.412694931030273 17.9146728515625 C16.6180419921875 17.586523056030273 15.284158706665039 17.959609985351562 14.475313186645508 18.47696304321289 C13.914207458496094 18.835857391357422 13.625081062316895 19.949790954589844 13.591379165649414 20.742671966552734 C13.482584953308105 23.285091400146484 13.549989700317383 25.83519744873047 13.549989700317383 28.74420166015625 C12.54898452758789 28.74420166015625 11.887955665588379 28.74420166015625 10.751553535461426 28.74420166015625 C10.751553535461426 25.868900299072266 10.8810396194458 23.03972053527832 10.674689292907715 20.235374450683594 C10.61024284362793 19.363855361938477 9.792529106140137 18.114521026611328 9.033350944519043 17.844314575195312 C8.207951545715332 17.551050186157227 6.891214370727539 17.96552276611328 6.088873863220215 18.5118465423584 C5.531906604766846 18.890844345092773 5.2776641845703125 20.007144927978516 5.245145320892334 20.808303833007812 C5.142265796661377 23.348949432373047 5.20730447769165 25.896099090576172 5.20730447769165 28.646642684936523 C4.2796173095703125 28.71463966369629 3.560643196105957 28.767261505126953 2.6625194549560547 28.8328914642334 C2.6625194549560547 24.456378936767578 2.6625194549560547 20.2702579498291 2.6625194549560547 15.611124992370605"></path></svg>