<svg xmlns="http://www.w3.org/2000/svg" viewBox="0.0 0.0 24.0 24.0" height="200px" width="200px"><path fill="none" stroke="black" stroke-width=".3" stroke-opacity="1.0"  filling="0" d="M11.56430435180664 14.503231048583984 C12.150619506835938 15.176979064941406 12.706077575683594 16.276138305664062 13.586285591125488 16.697139739990234 C14.492208480834961 17.130630493164062 15.714802742004395 16.902864456176758 16.772815704345703 16.963111877441406 C17.146793365478516 19.391399383544922 17.146793365478516 19.391399383544922 12.599541664123535 20.10923194885254 C12.599541664123535 23.417726516723633 12.599541664123535 26.709321975708008 12.599541664123535 30.373432159423828 C14.722915649414062 30.276447296142578 16.354019165039062 30.202234268188477 18.575111389160156 30.101581573486328 C18.054187774658203 31.18678092956543 17.87491226196289 32.38145446777344 17.202632904052734 32.81935119628906 C13.808174133300781 35.028690338134766 9.372601509094238 32.87445831298828 9.058135986328125 28.839313507080078 C8.841389656066895 26.052474975585938 9.016256332397461 23.23624610900879 9.016256332397461 20.277484893798828 C7.9898362159729 19.87632179260254 7.343272686004639 19.62357521057129 6.7047905921936035 19.373764038085938 C8.39687728881836 17.67800521850586 9.991244316101074 16.079965591430664 11.56430435180664 14.503231048583984"></path></svg>