<svg xmlns="http://www.w3.org/2000/svg" viewBox="0.0 0.0 24.0 24.0" height="200px" width="200px"><path fill="none" stroke="black" stroke-width=".3" stroke-opacity="1.0"  filling="0" d="M11.754920959472656 13.40806770324707 L11.754920959472656 13.40806770324707 C12.134042739868164 13.819425582885742 12.386444091796875 14.403241157531738 12.892285346984863 14.64214038848877 C13.434417724609375 14.898179054260254 14.087234497070312 14.741880416870117 14.684708595275879 14.791749954223633 L14.684708595275879 14.791749954223633 C14.639488220214844 15.206965446472168 14.882562637329102 15.785966873168945 14.549047470092773 16.037395477294922 C13.94403076171875 16.493501663208008 13.07451057434082 16.386760711669922 12.337242126464844 16.561443328857422 L12.337242126464844 16.561443328857422 C12.337242126464844 18.485984802246094 12.337242126464844 20.41051483154297 12.337242126464844 22.33505630493164 L12.337242126464844 22.33505630493164 C13.242507934570312 22.29378318786621 14.798566818237305 22.222993850708008 15.69849967956543 22.182140350341797 L15.69849967956543 22.182140350341797 C15.441160202026367 22.691720962524414 15.35260009765625 23.330989837646484 14.926481246948242 23.71088409423828 C13.75450611114502 24.755725860595703 11.655509948730469 24.124853134155273 10.867143630981445 22.954242706298828 C9.763040542602539 21.314809799194336 10.298007011413574 18.503206253051758 10.321643829345703 16.656084060668945 L10.321643829345703 16.656084060668945 C9.88824462890625 16.486637115478516 9.45484447479248 16.317190170288086 9.021445274353027 16.147743225097656 L9.021445274353027 16.147743225097656 C9.035134315490723 16.134023666381836 11.708890914916992 13.454204559326172 11.754920959472656 13.40806770324707 L11.754920959472656 13.40806770324707"></path></svg>