<svg xmlns="http://www.w3.org/2000/svg" viewBox="0.0 0.0 24.0 24.0" height="200px" width="200px"><path fill="none" stroke="black" stroke-width=".3" stroke-opacity="1.0"  filling="0" d="M13.666423797607422 4.73288106918335 C15.044363021850586 4.73288106918335 16.31780433654785 4.73288106918335 18.112628936767578 4.73288106918335 C15.505159378051758 10.989473342895508 14.73364543914795 17.545665740966797 12.831543922424316 23.932880401611328 C11.565328598022461 23.932880401611328 10.39027214050293 23.932880401611328 9.010663986206055 23.932880401611328 C8.926733016967773 23.420948028564453 8.832239151000977 22.841203689575195 8.704950332641602 22.05857276916504 C9.66767406463623 21.88292694091797 10.286886215209961 21.769533157348633 11.216814041137695 21.600000381469727 C11.296300888061523 20.348793029785156 11.663713455200195 19.03032875061035 11.400243759155273 17.85304832458496 C10.674309730529785 14.617474555969238 9.73659896850586 11.425256729125977 8.771096229553223 8.249713897705078 C8.434809684753418 7.144137382507324 7.770575046539307 6.138613224029541 7.09855842590332 4.764564514160156 C9.027896881103516 4.764564514160156 10.467535018920898 4.764564514160156 12.368525505065918 4.764564514160156 C10.657633781433105 7.955114841461182 11.857704162597656 10.801042556762695 13.054994583129883 13.750911712646484 C13.441862106323242 12.229007720947266 14.036060333251953 10.723222732543945 14.155011177062988 9.180753707885742 C14.263957023620605 7.762792587280273 13.860413551330566 6.304811000823975 13.666423797607422 4.73288106918335"></path></svg>