<svg xmlns="http://www.w3.org/2000/svg" viewBox="0.0 0.0 24.0 24.0" height="200px" width="200px"><path fill="none" stroke="black" stroke-width=".3" stroke-opacity="1.0"  filling="0" d="M12.383611679077148 8.839698791503906 C14.941211700439453 8.918359756469727 16.37761116027832 10.635059356689453 17.1381893157959 12.814863204956055 C17.763599395751953 14.607455253601074 18.00290870666504 16.53521156311035 18.490386962890625 18.754344940185547 C17.92369270324707 20.742481231689453 17.514875411987305 23.01590347290039 16.616365432739258 25.076053619384766 C15.821996688842773 26.896896362304688 14.244339942932129 28.088449478149414 12.036283493041992 28.035268783569336 C9.85925006866455 27.982643127441406 8.37798023223877 26.818790435791016 7.503289222717285 24.967477798461914 C5.554483890533447 20.842193603515625 5.541188716888428 16.593929290771484 7.312175273895264 12.432636260986328 C8.216226577758789 10.309335708618164 9.8526029586792 8.761591911315918 12.383611679077148 8.839698791503906"></path>
<path fill="none" stroke="black" stroke-width=".3" stroke-opacity="1.0"  filling="0" d="M12.061212539672852 11.414472579956055 C12.835083961486816 11.396745681762695 14.0094633102417 12.225459098815918 14.356237411499023 12.982158660888672 C16.008678436279297 16.58783721923828 15.957160949707031 20.333110809326172 14.366209030151367 23.94100570678711 C14.034391403198242 24.693828582763672 12.826773643493652 25.514785766601562 12.048470497131348 25.489856719970703 C11.264073371887207 25.464929580688477 10.117945671081543 24.575836181640625 9.824904441833496 23.801963806152344 C9.15185260772705 22.025436401367188 8.901464462280273 20.088817596435547 8.488216400146484 18.2563419342041 C8.936365127563477 16.42719078063965 9.172348022460938 14.665620803833008 9.838753700256348 13.085747718811035 C10.165031433105469 12.312429428100586 11.28290843963623 11.432753562927246 12.061212539672852 11.414472579956055"></path></svg>