<svg xmlns="http://www.w3.org/2000/svg" viewBox="0.0 0.0 24.0 24.0" height="200px" width="200px"><path fill="none" stroke="black" stroke-width=".3" stroke-opacity="1.0"  filling="0" d="M12.215782165527344 10.222330093383789 L12.215782165527344 10.222330093383789 C13.717473983764648 10.812763214111328 14.685786247253418 11.8927001953125 15.166767120361328 13.202532768249512 C15.647748947143555 14.51236629486084 15.641399383544922 16.052093505859375 15.193766593933105 17.562108993530273 C14.704144477844238 19.213769912719727 14.147087097167969 21.05132484436035 12.02040958404541 21.019838333129883 C10.055240631103516 20.99074363708496 9.237244606018066 19.162307739257812 8.8512544631958 17.542726516723633 C8.375555038452148 15.546731948852539 8.560178756713867 12.10470199584961 10.446253776550293 10.768484115600586 C10.949953079223633 10.411630630493164 11.62593936920166 10.40438175201416 12.215782165527344 10.222330093383789 L12.215782165527344 10.222330093383789"></path>
<path fill="none" stroke="black" stroke-width=".3" stroke-opacity="1.0"  filling="0" d="M12.034431457519531 11.67064094543457 L12.034431457519531 11.67064094543457 C13.946014404296875 12.976404190063477 14.342119216918945 14.903543472290039 13.838367462158203 17.182680130004883 C13.665042877197266 17.966856002807617 13.295394897460938 19.626873016357422 12.027264595031738 19.588045120239258 C10.721881866455078 19.548076629638672 10.536246299743652 17.880970001220703 10.345763206481934 17.090700149536133 C9.805990219116211 14.851304054260254 10.195972442626953 13.05315113067627 12.034431457519531 11.67064094543457 L12.034431457519531 11.67064094543457"></path></svg>