<svg xmlns="http://www.w3.org/2000/svg" viewBox="0.0 0.0 24.0 24.0" height="200px" width="200px"><path fill="none" stroke="black" stroke-width=".3" stroke-opacity="1.0"  filling="0" d="M10.205775260925293 10.431633949279785 L10.205775260925293 10.431633949279785 C10.791037559509277 10.358325004577637 11.379003524780273 10.119343757629395 11.961563110351562 10.21170711517334 C14.620511054992676 10.633275032043457 14.934146881103516 12.383932113647461 14.372284889221191 14.306164741516113 C13.810422897338867 16.228397369384766 12.373064041137695 18.32220458984375 11.530020713806152 19.430072784423828 L11.530020713806152 19.430072784423828 C12.767585754394531 19.430072784423828 14.00515079498291 19.430072784423828 15.242715835571289 19.430072784423828 L15.242715835571289 19.430072784423828 C15.292871475219727 19.881166458129883 15.34302806854248 20.332258224487305 15.393183708190918 20.78335189819336 L15.393183708190918 20.78335189819336 C13.220717430114746 20.99526023864746 11.121410369873047 21.079669952392578 8.967065811157227 20.67970848083496 L8.967065811157227 20.67970848083496 C10.46442699432373 18.82454490661621 12.381918907165527 16.8767147064209 12.999739646911621 14.49646282196045 C13.809540748596191 11.376577377319336 10.834742546081543 11.573009490966797 9.047294616699219 12.747971534729004 L9.047294616699219 12.747971534729004 C9.06305980682373 12.217573165893555 8.857232093811035 11.631363868713379 9.094589233398438 11.156777381896973 C9.292428970336914 10.761204719543457 9.835379600524902 10.673348426818848 10.205775260925293 10.431633949279785 L10.205775260925293 10.431633949279785"></path></svg>