<svg xmlns="http://www.w3.org/2000/svg" viewBox="0.0 0.0 24.0 24.0" height="200px" width="200px"><path fill="none" stroke="black" stroke-width=".3" stroke-opacity="1.0"  filling="0" d="M13.883537292480469 10.057723045349121 L13.883537292480469 10.057723045349121 C14.006802558898926 10.105148315429688 14.130067825317383 10.15257453918457 14.25333309173584 10.199999809265137 L14.25333309173584 10.199999809265137 C14.25333309173584 12.064990043640137 14.25333309173584 13.929981231689453 14.25333309173584 15.794971466064453 L14.25333309173584 15.794971466064453 C14.34498119354248 15.770586967468262 14.436628341674805 15.74620246887207 14.528276443481445 15.721817970275879 L14.528276443481445 15.721817970275879 C14.840003967285156 16.102357864379883 15.494210243225098 16.372482299804688 15.463458061218262 16.863439559936523 C15.433082580566406 17.3483943939209 14.750938415527344 17.5242977142334 14.394679069519043 17.854726791381836 L14.394679069519043 17.854726791381836 C14.394679069519043 18.816049575805664 14.394679069519043 19.777372360229492 14.394679069519043 20.73869514465332 L14.394679069519043 20.73869514465332 C13.884674072265625 20.778268814086914 13.37466812133789 20.817840576171875 12.864663124084473 20.85741424560547 L12.864663124084473 20.85741424560547 C12.864663124084473 19.713726043701172 12.864663124084473 18.570035934448242 12.864663124084473 17.426347732543945 L12.864663124084473 17.426347732543945 C11.426399230957031 17.426347732543945 9.988136291503906 17.426347732543945 8.549870491027832 17.426347732543945 L8.549870491027832 17.426347732543945 C8.98033332824707 16.01765251159668 9.837827682495117 14.73563289642334 10.825667381286621 13.525718688964844 C11.813507080078125 12.315804481506348 12.931692123413086 11.177995681762695 13.883537292480469 10.057723045349121 L13.883537292480469 10.057723045349121"></path>
<path fill="none" stroke="black" stroke-width=".3" stroke-opacity="1.0"  filling="0" d="M12.789030075073242 13.142242431640625 L12.789030075073242 13.142242431640625 C12.789030075073242 14.102015495300293 12.789030075073242 15.061787605285645 12.789030075073242 16.021560668945312 L12.789030075073242 16.021560668945312 C12.022576332092285 16.021560668945312 11.256121635437012 16.021560668945312 10.489667892456055 16.021560668945312 L10.489667892456055 16.021560668945312 C11.256128311157227 15.061793327331543 12.022582054138184 14.102020263671875 12.789030075073242 13.142242431640625 L12.789030075073242 13.142242431640625"></path></svg>