<svg xmlns="http://www.w3.org/2000/svg" viewBox="0.0 0.0 24.0 24.0" height="200px" width="200px"><path fill="none" stroke="black" stroke-width=".3" stroke-opacity="1.0"  filling="0" d="M9.812444686889648 9.434671401977539 C12.953432083129883 9.434671401977539 15.92823314666748 9.434671401977539 19.06978988647461 9.434671401977539 C18.904747009277344 10.191362380981445 18.771682739257812 10.801285743713379 18.607210159301758 11.555122375488281 C16.519880294799805 11.555122375488281 14.541059494018555 11.555122375488281 12.231576919555664 11.555122375488281 C11.91405200958252 13.576204299926758 11.614801406860352 15.482500076293945 11.264723777770996 17.716026306152344 C13.346342086791992 17.716026306152344 15.20466423034668 17.716026306152344 17.31540870666504 17.716026306152344 C17.197765350341797 18.630340576171875 17.12123680114746 19.2265567779541 17.016727447509766 20.03750228881836 C15.033907890319824 20.03750228881836 13.16530704498291 20.03750228881836 11.013444900512695 20.03750228881836 C10.556573867797852 22.879810333251953 10.126543998718262 25.553077697753906 9.657679557800293 28.471912384033203 C8.899274826049805 28.51873779296875 8.125449180603027 28.56614112854004 7.02439022064209 28.634672164916992 C7.973539352416992 22.096275329589844 8.881570816040039 15.84514045715332 9.812444686889648 9.434671401977539"></path></svg>