<svg xmlns="http://www.w3.org/2000/svg" viewBox="0.0 0.0 24.0 24.0" height="200px" width="200px"><path fill="none" stroke="black" stroke-width=".3" stroke-opacity="1.0"  filling="0" d="M10.532339096069336 10.665618896484375 L10.532339096069336 10.665618896484375 C11.007502555847168 12.705307960510254 11.482640266418457 14.745000839233398 11.957632064819336 16.78472900390625 L11.957632064819336 16.78472900390625 C12.043421745300293 16.804643630981445 12.12921142578125 16.824560165405273 12.215001106262207 16.84447479248047 L12.215001106262207 16.84447479248047 C12.824281692504883 15.718877792358398 13.33061408996582 14.417644500732422 13.989246368408203 13.278943061828613 C14.647879600524902 12.140241622924805 15.458813667297363 11.164071083068848 16.67729949951172 10.6885986328125 L16.67729949951172 10.6885986328125 C16.727392196655273 12.276615142822266 16.77747344970703 13.864629745483398 16.827547073364258 15.452645301818848 C16.877620697021484 17.040660858154297 16.927688598632812 18.628677368164062 16.97775650024414 20.216693878173828 L16.97775650024414 20.216693878173828 C16.523530960083008 20.253173828125 16.069305419921875 20.289653778076172 15.615079879760742 20.326133728027344 L15.615079879760742 20.326133728027344 C15.615079879760742 18.08698844909668 15.615079879760742 15.847845077514648 15.615079879760742 13.608698844909668 L15.615079879760742 13.608698844909668 C15.49654483795166 13.586581230163574 15.378010749816895 13.56446361541748 15.259475708007812 13.542346000671387 L15.259475708007812 13.542346000671387 C14.647836685180664 14.675368309020996 14.036200523376465 15.808391571044922 13.424567222595215 16.941415786743164 C12.812932968139648 18.074440002441406 12.201302528381348 19.20746612548828 11.589675903320312 20.340496063232422 L11.589675903320312 20.340496063232422 C11.056220054626465 18.025144577026367 10.522836685180664 15.709782600402832 9.989452362060547 13.394416809082031 L9.989452362060547 13.394416809082031 C9.91055679321289 13.371054649353027 9.831661224365234 13.347692489624023 9.752765655517578 13.32433032989502 L9.752765655517578 13.32433032989502 C8.981546401977539 15.637113571166992 8.21031379699707 17.94989013671875 7.439033508300781 20.262653350830078 L7.439033508300781 20.262653350830078 C7.0186076164245605 20.262653350830078 6.59818172454834 20.262653350830078 6.177755832672119 20.262653350830078 L6.177755832672119 20.262653350830078 C6.834715843200684 18.257070541381836 7.4900407791137695 16.2512149810791 8.16479778289795 14.251546859741211 C8.490191459655762 13.2872314453125 8.428349494934082 12.109487533569336 9.100439071655273 11.345235824584961 C9.44933795928955 10.948493003845215 10.055039405822754 10.892157554626465 10.532339096069336 10.665618896484375 L10.532339096069336 10.665618896484375"></path></svg>