<svg xmlns="http://www.w3.org/2000/svg" viewBox="0.0 0.0 24.0 24.0" height="200px" width="200px"><path fill="none" stroke="black" stroke-width=".3" stroke-opacity="1.0"  filling="0" d="M12.359075546264648 11.348711967468262 L12.359075546264648 11.348711967468262 C13.194705963134766 12.799580574035645 12.58222770690918 13.329697608947754 12.567586898803711 14.897863388061523 L12.567586898803711 14.897863388061523 C13.178866386413574 14.02306079864502 14.454276084899902 11.651869773864746 15.535531044006348 11.270891189575195 C16.626537322998047 10.88647747039795 17.77762222290039 11.705562591552734 17.397214889526367 12.955945014953613 C17.18579864501953 13.65086555480957 16.496017456054688 14.095370292663574 16.045419692993164 14.665082931518555 L16.045419692993164 14.665082931518555 C15.829644203186035 14.036907196044922 15.61386775970459 13.408731460571289 15.398092269897461 12.780555725097656 L15.398092269897461 12.780555725097656 C13.639939308166504 14.319056510925293 12.822686195373535 16.804067611694336 11.794313430786133 18.882369995117188 C11.739582061767578 18.99298095703125 10.586172103881836 21.62959098815918 10.06829833984375 21.781463623046875 C9.551429748535156 21.933042526245117 9.028630256652832 21.49932098388672 8.508795738220215 21.35824966430664 L8.508795738220215 21.35824966430664 C8.958087921142578 19.91482162475586 9.407458305358887 18.471416473388672 9.856857299804688 17.02802276611328 C10.306255340576172 15.584627151489258 10.755680084228516 14.141240119934082 11.20508098602295 12.697844505310059 L11.20508098602295 12.697844505310059 C10.383526802062988 13.090173721313477 9.54937744140625 13.46199893951416 8.69056224822998 13.764175415039062 L8.69056224822998 13.764175415039062 C9.751235961914062 12.094064712524414 10.416501998901367 11.663561820983887 12.359075546264648 11.348711967468262 L12.359075546264648 11.348711967468262"></path></svg>