<svg xmlns="http://www.w3.org/2000/svg" viewBox="0.0 0.0 24.0 24.0" height="200px" width="200px"><path fill="none" stroke="black" stroke-width=".3" stroke-opacity="1.0"  filling="0" d="M8.88454532623291 13.138323783874512 L8.88454532623291 13.138323783874512 C10.570165634155273 13.081124305725098 11.472102165222168 13.030801773071289 13.01175308227539 13.772188186645508 L13.01175308227539 13.772188186645508 C14.612106323242188 12.478445053100586 15.100698471069336 12.579862594604492 16.972089767456055 13.443307876586914 L16.972089767456055 13.443307876586914 C16.66649627685547 14.215662956237793 16.360971450805664 14.988045692443848 16.055517196655273 15.760457038879395 L16.055517196655273 15.760457038879395 C15.383810043334961 15.93297290802002 14.65357780456543 15.954028129577637 14.040396690368652 16.278003692626953 C13.05666732788086 16.797758102416992 12.756004333496094 18.13739585876465 12.702521324157715 19.578567504882812 C12.64903736114502 21.01974105834961 12.842731475830078 22.56244659423828 12.84771728515625 23.488338470458984 L12.84771728515625 23.488338470458984 C11.526659965515137 23.488338470458984 10.205601692199707 23.488338470458984 8.884544372558594 23.488338470458984 L8.884544372558594 23.488338470458984 C8.884544372558594 21.763336181640625 8.884544372558594 20.038331985473633 8.884544372558594 18.313329696655273 C8.88454532623291 16.588327407836914 8.88454532623291 14.863325119018555 8.88454532623291 13.138323783874512 L8.88454532623291 13.138323783874512"></path></svg>