<svg xmlns="http://www.w3.org/2000/svg" viewBox="0.0 0.0 24.0 24.0" height="200px" width="200px"><path fill="none" stroke="black" stroke-width=".3" stroke-opacity="1.0"  filling="0" d="M7.906382083892822 7.452300071716309 L7.906382083892822 7.452300071716309 C9.033682823181152 7.444554328918457 10.496650695800781 7.270023345947266 11.939596176147461 7.236010551452637 C13.382542610168457 7.201998233795166 14.805466651916504 7.308505058288574 15.852680206298828 7.862835884094238 C18.142410278320312 9.074878692626953 18.509918212890625 12.08004093170166 15.811712265014648 13.137067794799805 C14.614728927612305 13.605988502502441 13.089038848876953 13.475316047668457 11.824954986572266 13.460226058959961 L11.824954986572266 13.460226058959961 C11.773938179016113 14.024282455444336 12.063703536987305 14.712971687316895 12.555211067199707 14.994365692138672 L12.555211067199707 14.994365692138672 C12.555211067199707 15.70198917388916 12.555211067199707 16.40961265563965 12.555211067199707 17.117237091064453 L12.555211067199707 17.117237091064453 C10.691896438598633 17.11723518371582 8.828585624694824 17.11723518371582 6.965271472930908 17.11723518371582 L6.965271472930908 17.11723518371582 C6.965271472930908 16.463088989257812 6.965271472930908 15.808943748474121 6.965271472930908 15.154797554016113 L6.965271472930908 15.154797554016113 C7.047016143798828 15.185929298400879 7.12876033782959 15.217061042785645 7.21050500869751 15.24819278717041 L7.21050500869751 15.24819278717041 C8.052803039550781 13.430794715881348 7.913565158843994 11.96033763885498 7.894063472747803 9.97166919708252 L7.894063472747803 9.97166919708252 C7.580837249755859 9.839694023132324 7.267611026763916 9.707718849182129 6.954384803771973 9.575743675231934 L6.954384803771973 9.575743675231934 C6.954384803771973 8.913576126098633 6.954384803771973 8.251408576965332 6.954384803771973 7.589241027832031 L6.954384803771973 7.589241027832031 C7.271717071533203 7.543593883514404 7.589049816131592 7.4979472160339355 7.906382083892822 7.452300071716309 L7.906382083892822 7.452300071716309"></path>
<path fill="none" stroke="black" stroke-width=".3" stroke-opacity="1.0"  filling="0" d="M11.732707023620605 9.502403259277344 L11.732707023620605 9.502403259277344 C12.353907585144043 9.66264533996582 13.068395614624023 9.618606567382812 13.596307754516602 9.983128547668457 C14.861964225769043 10.857060432434082 11.85513687133789 11.487415313720703 11.732420921325684 11.52672290802002 L11.732420921325684 11.52672290802002 C11.732443809509277 10.851949691772461 11.732532501220703 10.177176475524902 11.732707023620605 9.502403259277344 L11.732707023620605 9.502403259277344"></path></svg>