<svg xmlns="http://www.w3.org/2000/svg" viewBox="0.0 0.0 24.0 24.0" height="200px" width="200px"><path fill="none" stroke="black" stroke-width=".3" stroke-opacity="1.0"  filling="0" d="M13.437799453735352 2.4777069091796875 C17.12932777404785 3.0138072967529297 19.57670783996582 5.451679706573486 20.051219940185547 9.065500259399414 C20.541027069091797 12.797950744628906 18.483013153076172 15.475146293640137 13.159208297729492 17.583173751831055 C14.932846069335938 17.87540626525879 16.270824432373047 18.095714569091797 17.770832061767578 18.342891693115234 C17.42403793334961 19.32498550415039 17.088407516479492 20.276905059814453 16.62629508972168 21.585535049438477 C15.568974494934082 21.18996810913086 14.546374320983887 20.920886993408203 13.634135246276855 20.44182777404785 C11.936140060424805 19.549840927124023 10.238143920898438 18.96207618713379 8.211543083190918 19.78338050842285 C7.758523941040039 19.185277938842773 7.319145202636719 18.606189727783203 6.786764621734619 17.903100967407227 C7.577894687652588 17.483150482177734 8.222702980041504 17.140491485595703 9.096501350402832 16.676311492919922 C7.174476146697998 15.773580551147461 5.725723743438721 14.52653694152832 4.930872440338135 12.655351638793945 C4.109982013702393 10.723819732666016 4.090968132019043 8.7774076461792 4.901939392089844 6.851248264312744 C6.205610275268555 3.753270149230957 9.770657539367676 1.945326805114746 13.437799453735352 2.4777069091796875"></path>
<path fill="none" stroke="black" stroke-width=".3" stroke-opacity="1.0"  filling="0" d="M12.088248252868652 5.8009514808654785 C12.628894805908203 5.845179080963135 13.390678405761719 6.346972465515137 13.581228256225586 6.83677864074707 C13.943726539611816 7.767617702484131 13.967700004577637 8.8298978805542 14.140475273132324 9.886805534362793 C13.971006393432617 10.886259078979492 13.91437816619873 11.932005882263184 13.579988479614258 12.88061809539795 C13.419198989868164 13.335704803466797 12.708257675170898 13.918512344360352 12.293678283691406 13.883378982543945 C11.74765682220459 13.837084770202637 10.945779800415039 13.343145370483398 10.781684875488281 12.861604690551758 C10.103395462036133 10.872618675231934 10.131089210510254 8.797245025634766 10.781684875488281 6.8004045486450195 C10.929659843444824 6.3469719886779785 11.66746997833252 5.76664400100708 12.088248252868652 5.8009514808654785"></path></svg>