<svg xmlns="http://www.w3.org/2000/svg" viewBox="0.0 0.0 24.0 24.0" height="200px" width="200px"><path fill="none" stroke="black" stroke-width=".3" stroke-opacity="1.0"  filling="0" d="M9.893472671508789 10.412008285522461 L9.893472671508789 10.412008285522461 C11.12343978881836 10.406465530395508 12.516103744506836 10.266620635986328 13.702704429626465 10.668246269226074 C15.46546459197998 11.264883041381836 16.163677215576172 13.464654922485352 14.885040283203125 14.904375076293945 C14.501117706298828 15.336665153503418 13.971441268920898 15.613191604614258 13.514641761779785 15.967599868774414 L13.514641761779785 15.967599868774414 C14.3822660446167 17.685352325439453 15.249835014343262 19.403133392333984 16.117475509643555 21.12087631225586 L16.117475509643555 21.12087631225586 C15.612594604492188 21.14945411682129 15.107714653015137 21.17803192138672 14.60283374786377 21.20660972595215 L14.60283374786377 21.20660972595215 C13.500368118286133 19.023435592651367 13.125816345214844 16.919904708862305 10.542196273803711 16.53662109375 L10.542196273803711 16.53662109375 C10.325430870056152 18.0518856048584 10.108753204345703 19.567153930664062 9.892202377319336 21.08245086669922 L9.892202377319336 21.08245086669922 C9.397271156311035 21.120132446289062 8.902339935302734 21.157814025878906 8.407408714294434 21.19549560546875 L8.407408714294434 21.19549560546875 C8.655024528503418 19.398239135742188 8.902676582336426 17.600988388061523 9.15035629272461 15.803741455078125 C9.398036003112793 14.00649356842041 9.645744323730469 12.209249496459961 9.893472671508789 10.412008285522461 L9.893472671508789 10.412008285522461"></path>
<path fill="none" stroke="black" stroke-width=".3" stroke-opacity="1.0"  filling="0" d="M11.235057830810547 11.784075736999512 L11.235057830810547 11.784075736999512 C11.96790885925293 11.74400806427002 13.303089141845703 11.366703033447266 13.724214553833008 12.456932067871094 C14.226557731628418 13.757421493530273 13.640279769897461 14.732932090759277 12.40866756439209 15.099061965942383 C11.872772216796875 15.258371353149414 11.290521621704102 15.099961280822754 10.73144817352295 15.100411415100098 L10.73144817352295 15.100411415100098 C10.738386154174805 15.054712295532227 11.220621109008789 11.879121780395508 11.235057830810547 11.784075736999512 L11.235057830810547 11.784075736999512"></path></svg>