<svg xmlns="http://www.w3.org/2000/svg" viewBox="0.0 0.0 24.0 24.0" height="200px" width="200px"><path fill="none" stroke="black" stroke-width=".3" stroke-opacity="1.0"  filling="0" d="M14.503898620605469 10.477157592773438 L14.503898620605469 10.477157592773438 C14.926480293273926 10.477157592773438 15.3490629196167 10.477157592773438 15.771644592285156 10.477157592773438 L15.771644592285156 10.477157592773438 C15.518648147583008 12.239134788513184 15.265691757202148 14.001117706298828 15.012758255004883 15.763104438781738 C14.759825706481934 17.52509117126465 14.506916999816895 19.287080764770508 14.25401496887207 21.049072265625 L14.25401496887207 21.049072265625 C12.943450927734375 21.225780487060547 11.414838790893555 21.20951271057129 10.294140815734863 20.696006774902344 C9.173442840576172 20.18250274658203 8.460660934448242 19.17176055908203 8.781759262084961 17.359527587890625 C8.882633209228516 16.790206909179688 9.101554870605469 16.225709915161133 9.432673454284668 15.751724243164062 C10.481941223144531 14.249727249145508 12.366547584533691 14.00065803527832 13.986124038696289 13.555380821228027 L13.986124038696289 13.555380821228027 C14.1304931640625 12.524956703186035 14.305620193481445 11.498579025268555 14.503898620605469 10.477157592773438 L14.503898620605469 10.477157592773438"></path>
<path fill="none" stroke="black" stroke-width=".3" stroke-opacity="1.0"  filling="0" d="M13.766566276550293 15.158621788024902 L13.766566276550293 15.158621788024902 C13.52276611328125 16.793781280517578 13.278934478759766 18.428936004638672 13.034919738769531 20.064064025878906 L13.034919738769531 20.064064025878906 C11.900028228759766 20.054672241210938 11.181870460510254 20.348798751831055 10.451411247253418 19.206371307373047 C9.589727401733398 17.85871124267578 10.442996978759766 15.817705154418945 11.88587760925293 15.254302024841309 C12.470590591430664 15.025988578796387 13.139670372009277 15.190515518188477 13.766566276550293 15.158621788024902 L13.766566276550293 15.158621788024902"></path></svg>