<svg xmlns="http://www.w3.org/2000/svg" viewBox="0.0 0.0 24.0 24.0" height="200px" width="200px"><path fill="none" stroke="black" stroke-width=".3" stroke-opacity="1.0"  filling="0" d="M14.289876937866211 9.777016639709473 L14.289876937866211 9.777016639709473 C14.449549674987793 10.01744556427002 14.609223365783691 10.25787353515625 14.768896102905273 10.498302459716797 L14.768896102905273 10.498302459716797 C12.767740249633789 10.736048698425293 12.655590057373047 10.606623649597168 11.658522605895996 12.514345169067383 L11.658522605895996 12.514345169067383 C12.1458101272583 12.622742652893066 12.633098602294922 12.731141090393066 13.120386123657227 12.83953857421875 L13.120386123657227 12.83953857421875 C12.82214069366455 13.335447311401367 12.222002029418945 13.67477798461914 11.650005340576172 13.762503623962402 L11.650005340576172 13.762503623962402 C11.344676971435547 15.968114852905273 11.039363861083984 18.173730850219727 10.734053611755371 20.379344940185547 L10.734053611755371 20.379344940185547 C10.400009155273438 20.379344940185547 10.065964698791504 20.379344940185547 9.73192024230957 20.379344940185547 L9.73192024230957 20.379344940185547 C9.997661590576172 18.183334350585938 10.263387680053711 15.987326622009277 10.529117584228516 13.791315078735352 L10.529117584228516 13.791315078735352 C10.309566497802734 13.677238464355469 10.09001636505127 13.563162803649902 9.870465278625488 13.44908618927002 L9.870465278625488 13.44908618927002 C9.924034118652344 12.915241241455078 10.510101318359375 12.585192680358887 10.783753395080566 12.123701095581055 C11.89346981048584 10.25225830078125 11.829925537109375 9.712069511413574 14.289876937866211 9.777016639709473 L14.289876937866211 9.777016639709473"></path></svg>