<svg xmlns="http://www.w3.org/2000/svg" viewBox="0.0 0.0 24.0 24.0" height="200px" width="200px"><path fill="none" stroke="black" stroke-width=".3" stroke-opacity="1.0"  filling="0" d="M11.201923370361328 8.19615364074707 L11.201923370361328 8.19615364074707 C13.327743530273438 8.41626262664795 15.436222076416016 8.350991249084473 17.568927764892578 8.459393501281738 L17.568927764892578 8.459393501281738 C17.764202117919922 10.029219627380371 16.93301010131836 10.274770736694336 16.803977966308594 11.72392749786377 C16.65623664855957 13.38319206237793 17.171049118041992 15.363985061645508 16.413042068481445 16.937944412231445 C15.7018404006958 18.414714813232422 14.099821090698242 18.90398597717285 12.380630493164062 18.92776870727539 C10.6614408493042 18.95155143737793 8.825081825256348 18.509843826293945 7.645200252532959 18.124656677246094 L7.645200252532959 18.124656677246094 C7.877301216125488 17.69000244140625 8.109402656555176 17.255348205566406 8.341503143310547 16.820693969726562 L8.341503143310547 16.820693969726562 C9.218714714050293 16.74979591369629 11.667644500732422 16.928083419799805 12.401724815368652 16.389421463012695 C12.88226318359375 16.036806106567383 13.068280220031738 15.401127815246582 13.401557922363281 14.906980514526367 L13.401557922363281 14.906980514526367 C11.592901229858398 15.201952934265137 9.524557113647461 15.7033109664917 7.985815525054932 14.315773010253906 C6.40769100189209 12.892722129821777 6.685448169708252 10.261821746826172 8.252039909362793 8.94894027709961 C9.371438026428223 8.01082992553711 9.827811241149902 8.234647750854492 11.201923370361328 8.19615364074707 L11.201923370361328 8.19615364074707"></path>
<path fill="none" stroke="black" stroke-width=".3" stroke-opacity="1.0"  filling="0" d="M11.947173118591309 10.468314170837402 L11.947173118591309 10.468314170837402 C12.964051246643066 10.995140075683594 13.978017807006836 13.462983131408691 11.95105266571045 13.465726852416992 C9.919354438781738 13.468476295471191 10.72598934173584 10.957470893859863 11.947173118591309 10.468314170837402 L11.947173118591309 10.468314170837402"></path></svg>