<svg xmlns="http://www.w3.org/2000/svg" viewBox="0.0 0.0 24.0 24.0" height="200px" width="200px"><path fill="none" stroke="black" stroke-width=".3" stroke-opacity="1.0"  filling="0" d="M16.33736801147461 6.78209924697876 C16.047344207763672 8.682403564453125 15.894396781921387 9.68882942199707 15.734234809875488 10.737820625305176 C16.906593322753906 10.989606857299805 17.993099212646484 11.222636222839355 19.078886032104492 11.45566463470459 C19.09547996520996 11.699516296386719 19.112071990966797 11.944087982177734 19.1293888092041 12.187938690185547 C17.833660125732422 12.39427375793457 16.537931442260742 12.601330757141113 14.860556602478027 12.868268013000488 C13.8101224899292 16.060693740844727 12.707743644714355 19.411115646362305 11.605365753173828 22.761539459228516 C11.796549797058105 22.926029205322266 11.9877347946167 23.09124183654785 12.178919792175293 23.2557315826416 C13.39528751373291 22.35680389404297 14.611655235290527 21.4571533203125 16.163497924804688 20.31076431274414 C14.332453727722168 24.190011978149414 12.114710807800293 25.72021484375 7.825678825378418 25.982101440429688 C7.896381855010986 21.20248031616211 10.429399490356445 17.35209083557129 11.176823616027832 12.935361862182617 C10.468358039855957 12.70161247253418 9.739690780639648 12.461369514465332 9.119241714477539 12.257198333740234 C11.368008613586426 10.551685333251953 13.541742324829102 8.903167724609375 16.33736801147461 6.78209924697876"></path></svg>