<svg xmlns="http://www.w3.org/2000/svg" viewBox="0.0 0.0 24.0 24.0" height="200px" width="200px"><path fill="none" stroke="black" stroke-width=".3" stroke-opacity="1.0"  filling="0" d="M12.388111114501953 9.791421890258789 L12.388111114501953 9.791421890258789 C12.652896881103516 9.969673156738281 12.917682647705078 10.147923469543457 13.18246841430664 10.32617473602295 L13.18246841430664 10.32617473602295 C12.306574821472168 10.891738891601562 11.387331008911133 10.751681327819824 12.388111114501953 9.791421890258789 L12.388111114501953 9.791421890258789"></path>
<path fill="none" stroke="black" stroke-width=".3" stroke-opacity="1.0"  filling="0" d="M11.616552352905273 12.288751602172852 L11.616552352905273 12.288751602172852 C11.997581481933594 12.288751602172852 12.378610610961914 12.288751602172852 12.759639739990234 12.288751602172852 L12.759639739990234 12.288751602172852 C12.52231216430664 13.672399520874023 12.284985542297363 15.056047439575195 12.047661781311035 16.439697265625 C11.81033706665039 17.823345184326172 11.573017120361328 19.206995010375977 11.33570384979248 20.59064483642578 L11.33570384979248 20.59064483642578 C10.644807815551758 20.59064483642578 9.953911781311035 20.59064483642578 9.263015747070312 20.59064483642578 L9.263015747070312 20.59064483642578 C9.395944595336914 20.07252311706543 10.1556396484375 19.969987869262695 10.479909896850586 19.544584274291992 C10.70492172241211 19.2493953704834 10.950389862060547 16.907939910888672 10.97050666809082 16.748014450073242 C11.158740997314453 15.251608848571777 11.329412460327148 13.769742965698242 11.616552352905273 12.288751602172852 L11.616552352905273 12.288751602172852"></path></svg>