<svg xmlns="http://www.w3.org/2000/svg" viewBox="0.0 0.0 24.0 24.0" height="200px" width="200px"><path fill="none" stroke="black" stroke-width=".3" stroke-opacity="1.0"  filling="0" d="M14.39553451538086 15.007911682128906 L14.39553451538086 15.007911682128906 C15.779788970947266 15.800697326660156 16.300987243652344 15.783312797546387 16.894968032836914 17.42295265197754 C17.559162139892578 19.256410598754883 17.173086166381836 21.693283081054688 16.04341697692871 23.453222274780273 C14.913749694824219 25.21316146850586 13.040489196777344 26.29616355895996 10.730316162109375 25.4218807220459 C8.836788177490234 24.705276489257812 8.233203887939453 22.789443969726562 8.41310977935791 20.809537887573242 C8.593015670776367 18.82962989807129 9.556411743164062 16.785648345947266 10.796844482421875 15.812744140625 C12.232159614562988 14.686988830566406 12.721274375915527 14.976683616638184 14.39553451538086 15.007911682128906 L14.39553451538086 15.007911682128906"></path>
<path fill="none" stroke="black" stroke-width=".3" stroke-opacity="1.0"  filling="0" d="M13.678412437438965 16.664501190185547 L13.678412437438965 16.664501190185547 C14.879678726196289 17.3533935546875 15.309343338012695 19.359262466430664 15.008344650268555 21.103832244873047 C14.707345962524414 22.848400115966797 13.675682067871094 24.3316707611084 11.954289436340332 23.97536849975586 C10.607861518859863 23.696678161621094 10.267390251159668 22.2392578125 10.442023277282715 20.712322235107422 C10.616657257080078 19.185388565063477 11.306394577026367 17.588939666748047 12.0203857421875 17.032194137573242 C12.466809272766113 16.6840877532959 13.125737190246582 16.787065505981445 13.678412437438965 16.664501190185547 L13.678412437438965 16.664501190185547"></path></svg>