<svg xmlns="http://www.w3.org/2000/svg" viewBox="0.0 0.0 24.0 24.0" height="200px" width="200px"><path fill="none" stroke="black" stroke-width=".3" stroke-opacity="1.0"  filling="0" d="M10.747628211975098 14.964607238769531 L10.747628211975098 14.964607238769531 C10.983678817749023 15.072892189025879 12.87893009185791 15.94245719909668 13.18062973022461 16.080909729003906 L13.18062973022461 16.080909729003906 C13.650398254394531 15.707433700561523 14.004202842712402 15.091185569763184 14.589936256408691 14.960482597351074 C15.248642921447754 14.813495635986328 15.918074607849121 15.201415061950684 16.582143783569336 15.321881294250488 L16.582143783569336 15.321881294250488 C16.47919464111328 15.738700866699219 16.530733108520508 16.228736877441406 16.273296356201172 16.57234001159668 C15.295478820800781 17.87744903564453 13.584492683410645 17.091760635375977 12.631795883178711 18.746318817138672 C11.523622512817383 20.670894622802734 11.486856460571289 23.46590232849121 11.150338172912598 25.60820960998535 L11.150338172912598 25.60820960998535 C10.50450325012207 25.60820960998535 9.858668327331543 25.60820960998535 9.212833404541016 25.60820960998535 L9.212833404541016 25.60820960998535 C9.468616485595703 23.834274291992188 9.724393844604492 22.06033706665039 9.980186462402344 20.28640365600586 C10.235979080200195 18.512468338012695 10.491786003112793 16.738534927368164 10.747628211975098 14.964607238769531 L10.747628211975098 14.964607238769531"></path></svg>