<svg xmlns="http://www.w3.org/2000/svg" viewBox="0.0 0.0 24.0 24.0" height="200px" width="200px"><path fill="none" stroke="black" stroke-width=".3" stroke-opacity="1.0"  filling="0" d="M17.800355911254883 8.923246383666992 L17.800355911254883 8.923246383666992 C17.800355911254883 10.314876556396484 17.800355911254883 11.706509590148926 17.800355911254883 13.098138809204102 L17.800355911254883 13.098138809204102 C15.235845565795898 13.603715896606445 14.651211738586426 13.676576614379883 13.70413589477539 16.203521728515625 L13.70413589477539 16.203521728515625 C14.187244415283203 16.418415069580078 14.6703519821167 16.6333065032959 15.153460502624512 16.84819984436035 L15.153460502624512 16.84819984436035 C15.153460502624512 17.769542694091797 15.153460502624512 18.690887451171875 15.153460502624512 19.61223030090332 L15.153460502624512 19.61223030090332 C13.798178672790527 19.61223030090332 12.44289779663086 19.61223030090332 11.087615966796875 19.61223030090332 C9.732335090637207 19.61223030090332 8.377054214477539 19.61223030090332 7.021772384643555 19.61223030090332 L7.021772384643555 19.61223030090332 C7.021772384643555 18.70166778564453 7.021772384643555 17.791105270385742 7.021772384643555 16.880542755126953 L7.021772384643555 16.880542755126953 C7.424022674560547 16.62310791015625 7.826272964477539 16.36567497253418 8.228523254394531 16.108240127563477 L8.228523254394531 16.108240127563477 C8.228523254394531 15.048491477966309 8.228523254394531 13.988741874694824 8.228523254394531 12.928993225097656 L8.228523254394531 12.928993225097656 C7.81913423538208 12.656698226928711 7.409745693206787 12.384404182434082 7.000356674194336 12.112109184265137 L7.000356674194336 12.112109184265137 C7.000356674194336 11.200672149658203 7.000356674194336 10.289236068725586 7.000356674194336 9.377799034118652 L7.000356674194336 9.377799034118652 C9.023700714111328 9.377799034118652 11.047040939331055 9.377799034118652 13.07038402557373 9.377799034118652 L13.07038402557373 9.377799034118652 C13.183148384094238 9.92879867553711 13.29591178894043 10.479798316955566 13.408676147460938 11.030797958374023 L13.408676147460938 11.030797958374023 C14.927057266235352 9.520920753479004 15.658320426940918 9.097962379455566 17.800355911254883 8.923246383666992 L17.800355911254883 8.923246383666992"></path></svg>