<svg xmlns="http://www.w3.org/2000/svg" viewBox="0.0 0.0 24.0 24.0" height="200px" width="200px"><path fill="none" stroke="black" stroke-width=".3" stroke-opacity="1.0"  filling="0" d="M13.277941703796387 8.246379852294922 L13.277941703796387 8.246379852294922 C13.287274360656738 8.246379852294922 16.976131439208984 8.246379852294922 17.009632110595703 8.246379852294922 L17.009632110595703 8.246379852294922 C17.009632110595703 8.803318977355957 17.009632110595703 9.360257148742676 17.009632110595703 9.917196273803711 L17.009632110595703 9.917196273803711 C16.020240783691406 11.316898345947266 15.210619926452637 12.825103759765625 14.467720985412598 14.370429039001465 C13.724822044372559 15.915754318237305 13.04864501953125 17.498199462890625 12.326143264770508 19.04637908935547 L12.326143264770508 19.04637908935547 C11.265421867370605 19.04637908935547 10.204699516296387 19.04637908935547 9.143978118896484 19.04637908935547 L9.143978118896484 19.04637908935547 C9.143479347229004 18.162153244018555 9.143416404724121 17.902790069580078 9.143350601196289 16.997724533081055 L9.143350601196289 16.997724533081055 C9.601248741149902 16.781692504882812 10.293269157409668 16.803794860839844 10.517044067382812 16.34963035583496 C10.755753517150879 15.865154266357422 9.2984619140625 13.57943058013916 9.226247787475586 13.455175399780273 C8.181746482849121 11.657949447631836 7.290187358856201 10.356608390808105 7.178660869598389 8.268623352050781 L7.178660869598389 8.268623352050781 C8.850313186645508 8.268623352050781 10.521964073181152 8.268623352050781 12.193617820739746 8.268623352050781 L12.193617820739746 8.268623352050781 C12.284891128540039 9.152029991149902 12.082921981811523 10.099488258361816 11.655685424804688 10.878081321716309 L11.655685424804688 10.878081321716309 C11.79074764251709 11.180276870727539 12.510552406311035 12.790748596191406 12.648213386535645 13.098735809326172 L12.648213386535645 13.098735809326172 C13.688465118408203 11.306276321411133 13.296988487243652 10.282517433166504 13.277941703796387 8.246379852294922 L13.277941703796387 8.246379852294922"></path></svg>