<svg xmlns="http://www.w3.org/2000/svg" viewBox="0.0 0.0 24.0 24.0" height="200px" width="200px"><path fill="none" stroke="black" stroke-width=".3" stroke-opacity="1.0"  filling="0" d="M9.267803192138672 14.763200759887695 L9.267803192138672 14.763200759887695 C10.598365783691406 14.76305866241455 11.92892837524414 14.76303768157959 13.259490966796875 14.763063430786133 C14.590054512023926 14.76308822631836 15.92061710357666 14.763158798217773 17.251178741455078 14.763200759887695 L17.251178741455078 14.763200759887695 C16.101734161376953 16.267864227294922 14.952225685119629 17.77247428894043 13.80267333984375 19.277053833007812 C12.653120994567871 20.781631469726562 11.503524780273438 22.286178588867188 10.35390853881836 23.790708541870117 L10.35390853881836 23.790708541870117 C12.244059562683105 23.790708541870117 14.134209632873535 23.790708541870117 16.02436065673828 23.790708541870117 L16.02436065673828 23.790708541870117 C16.02436065673828 24.381540298461914 16.02436065673828 24.972370147705078 16.02436065673828 25.563201904296875 L16.02436065673828 25.563201904296875 C14.436302185058594 25.563201904296875 12.848245620727539 25.563201904296875 11.260188102722168 25.563201904296875 C9.672130584716797 25.563201904296875 8.084074020385742 25.563201904296875 6.496015548706055 25.563201904296875 L6.496015548706055 25.563201904296875 C7.622574806213379 24.076335906982422 8.749146461486816 22.589481353759766 9.875720024108887 21.10262680053711 C11.002293586730957 19.615774154663086 12.128870010375977 18.128921508789062 13.255436897277832 16.64206314086914 L13.255436897277832 16.64206314086914 C11.58692741394043 16.64206314086914 9.918416976928711 16.64206314086914 8.249906539916992 16.64206314086914 L8.249906539916992 16.64206314086914 C8.213913917541504 16.178428649902344 7.920413017272949 15.660041809082031 8.141928672790527 15.251161575317383 C8.336766242980957 14.891525268554688 8.892511367797852 14.925854682922363 9.267803192138672 14.763200759887695 L9.267803192138672 14.763200759887695"></path></svg>