<svg xmlns="http://www.w3.org/2000/svg" viewBox="0.0 0.0 24.0 24.0" height="200px" width="200px"><path fill="none" stroke="black" stroke-width=".3" stroke-opacity="1.0"  filling="0" d="M17.352676391601562 8.802911758422852 C17.525121688842773 8.92024040222168 17.69757080078125 9.037023544311523 17.87001609802246 9.154353141784668 C17.591154098510742 11.003792762756348 17.296466827392578 12.851048469543457 17.037796020507812 14.703761100769043 C16.788949966430664 16.4860782623291 16.577211380004883 18.273849487304688 16.33272933959961 20.188228607177734 C17.185688018798828 20.33993911743164 17.873836517333984 20.462181091308594 18.690231323242188 20.607341766357422 C18.621471405029297 21.16069984436035 18.558712005615234 21.662761688232422 18.481767654418945 22.277240753173828 C17.621170043945312 22.39402198791504 16.838064193725586 22.500436782836914 15.933809280395508 22.623767852783203 C15.588369369506836 24.359153747558594 15.256027221679688 26.031230926513672 14.888758659362793 27.87466812133789 C14.195151329040527 27.915054321289062 13.529375076293945 27.953250885009766 12.672052383422852 28.002912521362305 C12.943819046020508 26.13055419921875 13.185026168823242 24.46502113342285 13.46880054473877 22.508621215820312 C11.145132064819336 22.508621215820312 8.997185707092285 22.508621215820312 6.823590278625488 22.508621215820312 C7.074074745178223 20.541854858398438 11.48838996887207 14.379058837890625 15.756451606750488 9.889981269836426 C16.18975257873535 9.433760643005371 16.816234588623047 9.16090202331543 17.352676391601562 8.802911758422852"></path>
<path fill="none" stroke="black" stroke-width=".3" stroke-opacity="1.0"  filling="0" d="M14.307024002075195 14.99299144744873 C14.420533180236816 15.061205863952637 14.534587860107422 15.128875732421875 14.648097038269043 15.197090148925781 C14.3839693069458 16.870264053344727 14.119296073913574 18.543434143066406 13.835522651672363 20.338848114013672 C12.455946922302246 20.338848114013672 11.473654747009277 20.338848114013672 9.966926574707031 20.338848114013672 C11.574612617492676 18.358434677124023 12.940546035766602 16.67598533630371 14.307024002075195 14.99299144744873"></path></svg>