<svg xmlns="http://www.w3.org/2000/svg" viewBox="0.0 0.0 24.0 24.0" height="200px" width="200px"><path fill="none" stroke="black" stroke-width=".3" stroke-opacity="1.0"  filling="0" d="M11.090991020202637 10.868167877197266 L11.090991020202637 10.868167877197266 C12.729930877685547 10.139738082885742 15.343816757202148 9.818211555480957 15.66042709350586 12.384796142578125 C15.828301429748535 13.745661735534668 14.996663093566895 14.380084991455078 14.254354476928711 15.363062858581543 L14.254354476928711 15.363062858581543 C14.559593200683594 15.952596664428711 15.019563674926758 16.485082626342773 15.170069694519043 17.131664276123047 C15.819414138793945 19.921279907226562 13.615367889404297 21.015422821044922 11.624523162841797 20.808107376098633 C9.63367748260498 20.600791931152344 7.856032371520996 19.092018127441406 9.35818099975586 16.675798416137695 C9.732141494750977 16.074277877807617 10.35743236541748 15.671712875366211 10.857057571411133 15.169670104980469 L10.857057571411133 15.169670104980469 C9.880876541137695 13.187993049621582 9.725220680236816 12.624731063842773 11.090991020202637 10.868167877197266 L11.090991020202637 10.868167877197266"></path>
<path fill="none" stroke="black" stroke-width=".3" stroke-opacity="1.0"  filling="0" d="M12.978378295898438 11.460360527038574 L12.978378295898438 11.460360527038574 C14.504648208618164 12.14647388458252 14.951656341552734 14.619192123413086 12.641140937805176 14.683181762695312 C11.161453247070312 14.724161148071289 11.000163078308105 12.792375564575195 11.800600051879883 11.96099853515625 C12.096470832824707 11.653690338134766 12.585785865783691 11.627240180969238 12.978378295898438 11.460360527038574 L12.978378295898438 11.460360527038574"></path>
<path fill="none" stroke="black" stroke-width=".3" stroke-opacity="1.0"  filling="0" d="M12.27297306060791 15.958257675170898 L12.27297306060791 15.958257675170898 C12.673986434936523 16.11998176574707 13.169801712036133 16.138141632080078 13.47601318359375 16.443429946899414 C14.726825714111328 17.690471649169922 13.419198989868164 19.698760986328125 11.891891479492188 19.777774810791016 C10.092758178710938 19.870851516723633 10.003752708435059 17.54171371459961 10.9215087890625 16.586523056030273 C11.265700340270996 16.22829246520996 11.822484970092773 16.167678833007812 12.27297306060791 15.958257675170898 L12.27297306060791 15.958257675170898"></path></svg>