<svg xmlns="http://www.w3.org/2000/svg" viewBox="0.0 0.0 24.0 24.0" height="200px" width="200px"><path fill="none" stroke="black" stroke-width=".3" stroke-opacity="1.0"  filling="0" d="M7.238166809082031 9.413528442382812 C11.085143089294434 9.413528442382812 14.932690620422363 9.413528442382812 18.946056365966797 9.413528442382812 C18.946056365966797 10.267204284667969 18.946056365966797 11.056268692016602 18.946056365966797 12.152955055236816 C16.215778350830078 12.152955055236816 13.599286079406738 12.152955055236816 10.841562271118164 12.152955055236816 C10.841562271118164 13.935783386230469 10.841562271118164 15.413848876953125 10.841562271118164 17.245853424072266 C13.404306411743164 17.245853424072266 15.917306900024414 17.245853424072266 18.540088653564453 17.245853424072266 C18.605844497680664 18.318523406982422 18.651016235351562 19.04983901977539 18.717914581298828 20.144805908203125 C16.079692840576172 20.144805908203125 13.568410873413086 20.144805908203125 10.867864608764648 20.144805908203125 C10.867864608764648 22.147201538085938 10.867864608764648 23.794517517089844 10.867864608764648 25.721435546875 C13.642743110656738 25.721435546875 16.267810821533203 25.721435546875 19.087289810180664 25.721435546875 C19.147323608398438 26.782670974731445 19.191925048828125 27.57745361328125 19.250247955322266 28.613529205322266 C15.033895492553711 28.613529205322266 11.249245643615723 28.613529205322266 7.238166809082031 28.613529205322266 C7.238166809082031 22.219818115234375 7.238166809082031 15.91015911102295 7.238166809082031 9.413528442382812"></path></svg>