<svg xmlns="http://www.w3.org/2000/svg" viewBox="0.0 0.0 24.0 24.0" height="200px" width="200px"><path fill="none" stroke="black" stroke-width=".3" stroke-opacity="1.0"  filling="0" d="M11.120835304260254 9.401703834533691 L11.120835304260254 9.401703834533691 C11.624262809753418 9.401703834533691 12.127691268920898 9.401703834533691 12.631118774414062 9.401703834533691 L12.631118774414062 9.401703834533691 C12.981905937194824 10.704617500305176 12.744769096374512 12.423856735229492 12.741447448730469 13.767448425292969 C12.735759735107422 16.067834854125977 13.030828475952148 18.165992736816406 11.866456031799316 20.201702117919922 L11.866456031799316 20.201702117919922 C11.124545097351074 20.201702117919922 10.382633209228516 20.201702117919922 9.640722274780273 20.201702117919922 L9.640722274780273 20.201702117919922 C9.597444534301758 19.88762664794922 9.554165840148926 19.573551177978516 9.51088809967041 19.259475708007812 L9.51088809967041 19.259475708007812 C9.960816383361816 19.018272399902344 10.576472282409668 18.95994758605957 10.860671997070312 18.535865783691406 C11.191192626953125 18.04266357421875 11.120561599731445 15.480512619018555 11.1221923828125 15.025436401367188 C11.128910064697266 13.150886535644531 11.122472763061523 11.27625846862793 11.120835304260254 9.401703834533691 L11.120835304260254 9.401703834533691"></path></svg>