<svg xmlns="http://www.w3.org/2000/svg" viewBox="0.0 0.0 24.0 24.0" height="200px" width="200px"><path fill="none" stroke="black" stroke-width=".3" stroke-opacity="1.0"  filling="0" d="M11.430562019348145 6.6456618309021 L11.430562019348145 6.6456618309021 C12.218067169189453 6.6456618309021 13.005573272705078 6.6456618309021 13.793078422546387 6.6456618309021 L13.793078422546387 6.6456618309021 C13.70057201385498 7.231407642364502 13.118396759033203 7.62265157699585 12.82203483581543 8.136290550231934 C11.880060195922852 9.76887321472168 11.904370307922363 11.900720596313477 11.556259155273438 13.722169876098633 C11.208148956298828 15.543619155883789 10.487616539001465 17.054672241210938 8.055957794189453 17.445661544799805 L8.055957794189453 17.445661544799805 C8.116192817687988 17.12181854248047 8.176426887512207 16.797975540161133 8.236661911010742 16.474132537841797 L8.236661911010742 16.474132537841797 C8.74025821685791 16.203916549682617 9.373299598693848 16.09549903869629 9.74744987487793 15.663482666015625 C10.13450813293457 15.216562271118164 10.562488555908203 13.053013801574707 10.690302848815918 12.49140739440918 C11.052083969116211 10.901769638061523 11.409403800964355 9.311112403869629 11.768654823303223 7.7209014892578125 L11.768654823303223 7.7209014892578125 C11.655957221984863 7.362488269805908 11.543259620666504 7.004075050354004 11.430562019348145 6.6456618309021 L11.430562019348145 6.6456618309021"></path></svg>