<svg xmlns="http://www.w3.org/2000/svg" viewBox="0.0 0.0 24.0 24.0" height="200px" width="200px"><path fill="none" stroke="black" stroke-width=".3" stroke-opacity="1.0"  filling="0" d="M12.181567192077637 7.658673286437988 C17.86314582824707 7.446768283843994 21.643014907836914 11.462993621826172 20.82256507873535 16.902782440185547 C20.362079620361328 19.957286834716797 18.399700164794922 21.811904907226562 15.574304580688477 23.349571228027344 C17.100650787353516 23.780170440673828 18.626998901367188 24.210773468017578 20.294612884521484 24.68076515197754 C19.703725814819336 25.419715881347656 19.13140296936035 26.135120391845703 18.559078216552734 26.85052490234375 C18.408300399780273 26.85052490234375 18.257070541381836 26.85052490234375 18.106292724609375 26.85052490234375 C14.973909378051758 25.451412200927734 11.78990650177002 24.156890869140625 8.722723960876465 22.626922607421875 C4.995377063751221 20.76732635498047 3.531968116760254 17.518573760986328 4.420790195465088 13.647693634033203 C5.247580051422119 10.045768737792969 8.14542007446289 7.809451580047607 12.181567192077637 7.658673286437988"></path>
<path fill="none" stroke="black" stroke-width=".3" stroke-opacity="1.0"  filling="0" d="M12.68552017211914 10.29932975769043 C15.74998664855957 10.346420288085938 18.01618766784668 12.647485733032227 17.93695068359375 15.630902290344238 C17.855899810791016 18.683141708374023 15.567514419555664 20.81305694580078 12.467729568481445 20.720687866210938 C9.318592071533203 20.626506805419922 7.17509651184082 18.440448760986328 7.2452778816223145 15.394094467163086 C7.316366195678711 12.312875747680664 9.518271446228027 10.24997615814209 12.68552017211914 10.29932975769043"></path></svg>