<svg xmlns="http://www.w3.org/2000/svg" viewBox="0.0 0.0 24.0 24.0" height="200px" width="200px"><path fill="none" stroke="black" stroke-width=".3" stroke-opacity="1.0"  filling="0" d="M11.132433891296387 6.8607001304626465 L11.132433891296387 6.8607001304626465 C10.899914741516113 7.31897497177124 10.66739559173584 7.777250289916992 10.434876441955566 8.235525131225586 L10.434876441955566 8.235525131225586 C10.434876441955566 10.381793975830078 10.434876441955566 12.528059005737305 10.434876441955566 14.67432975769043 L10.434876441955566 14.67432975769043 C10.566250801086426 14.71870231628418 10.697626113891602 14.763073921203613 10.829000473022461 14.807446479797363 L10.829000473022461 14.807446479797363 C11.561408996582031 13.72299575805664 12.293815612792969 12.638542175292969 13.026215553283691 11.554084777832031 C13.75861644744873 10.469627380371094 14.491010665893555 9.38516616821289 15.223398208618164 8.300700187683105 L15.223398208618164 8.300700187683105 C14.86452579498291 8.199760437011719 14.50565242767334 8.098821640014648 14.146780014038086 7.997881889343262 L14.146780014038086 7.997881889343262 C14.196480751037598 7.658069610595703 14.246182441711426 7.318257808685303 14.295883178710938 6.978445529937744 L14.295883178710938 6.978445529937744 C15.558394432067871 6.978445529937744 16.820905685424805 6.978445529937744 18.083415985107422 6.978445529937744 L18.083415985107422 6.978445529937744 C17.76675796508789 7.625185966491699 17.12629508972168 8.059183120727539 16.588001251220703 8.537497520446777 C15.686742782592773 9.338333129882812 14.887094497680664 10.522151947021484 14.143999099731445 11.757810592651367 C13.400903701782227 12.99346923828125 12.714361190795898 14.280967712402344 12.039314270019531 15.289163589477539 C11.07856559753418 16.72406005859375 10.958511352539062 17.540008544921875 9.233748435974121 17.523277282714844 L9.233748435974121 17.523277282714844 C9.156713485717773 15.989303588867188 9.079634666442871 14.455329895019531 9.002519607543945 12.92136001586914 C8.925403594970703 11.387388229370117 8.848251342773438 9.85342025756836 8.77106761932373 8.319453239440918 L8.77106761932373 8.319453239440918 C8.361981391906738 8.17526912689209 7.952894687652588 8.031084060668945 7.543808460235596 7.886899948120117 L7.543808460235596 7.886899948120117 C8.900548934936523 6.701104164123535 9.411140441894531 6.96761417388916 11.132433891296387 6.8607001304626465 L11.132433891296387 6.8607001304626465"></path></svg>