<svg xmlns="http://www.w3.org/2000/svg" viewBox="0.0 0.0 24.0 24.0" height="200px" width="200px"><path fill="none" stroke="black" stroke-width=".3" stroke-opacity="1.0"  filling="0" d="M14.688794136047363 6.656030178070068 L14.688794136047363 6.656030178070068 C15.477564811706543 6.656030178070068 16.26633644104004 6.656030178070068 17.05510711669922 6.656030178070068 L17.05510711669922 6.656030178070068 C16.71343231201172 8.164947509765625 16.371715545654297 9.673855781555176 16.029979705810547 11.182760238647461 C15.688243865966797 12.691664695739746 15.346488952636719 14.200565338134766 15.004737854003906 15.709465026855469 L15.004737854003906 15.709465026855469 C15.301176071166992 15.86510181427002 15.597614288330078 16.02073860168457 15.894052505493164 16.176376342773438 L15.894052505493164 16.176376342773438 C15.791850090026855 16.508506774902344 15.689647674560547 16.840639114379883 15.587445259094238 17.17276954650879 L15.587445259094238 17.17276954650879 C13.912801742553711 17.13754653930664 10.765344619750977 17.956161499023438 9.360115051269531 16.988649368286133 C8.008445739746094 16.058013916015625 7.778352737426758 14.560348510742188 8.193197250366211 13.166008949279785 C8.608041763305664 11.771669387817383 9.667823791503906 10.480656623840332 10.895907402038574 9.963327407836914 C12.398183822631836 9.330493927001953 13.50002670288086 10.083503723144531 14.698755264282227 10.876919746398926 L14.698755264282227 10.876919746398926 C14.921306610107422 9.947864532470703 15.143867492675781 9.01881217956543 15.366439819335938 8.089762687683105 L15.366439819335938 8.089762687683105 C15.03980827331543 7.933191299438477 14.713177680969238 7.776619911193848 14.38654613494873 7.620048522949219 L14.38654613494873 7.620048522949219 C14.487295150756836 7.298708915710449 14.588045120239258 6.977369785308838 14.688794136047363 6.656030178070068 L14.688794136047363 6.656030178070068"></path>
<path fill="none" stroke="black" stroke-width=".3" stroke-opacity="1.0"  filling="0" d="M12.210733413696289 10.96096420288086 L12.210733413696289 10.96096420288086 C12.69407844543457 11.143708229064941 13.309174537658691 11.13051700592041 13.66076946258545 11.509197235107422 C15.054215431213379 13.009987831115723 13.454681396484375 16.40293312072754 11.408577919006348 16.25762176513672 C9.37747859954834 16.11337661743164 9.062286376953125 13.93120002746582 9.872941970825195 12.471270561218262 C10.55935287475586 11.235095977783203 11.003315925598145 11.339279174804688 12.210733413696289 10.96096420288086 L12.210733413696289 10.96096420288086"></path></svg>