<svg xmlns="http://www.w3.org/2000/svg" viewBox="0.0 0.0 24.0 24.0" height="200px" width="200px"><path fill="none" stroke="black" stroke-width=".3" stroke-opacity="1.0"  filling="0" d="M16.65323257446289 9.383671760559082 C16.65323257446289 10.064714431762695 16.65323257446289 10.775762557983398 16.65323257446289 11.498700141906738 C15.761591911315918 11.720619201660156 14.681999206542969 11.695710182189941 14.087005615234375 12.219938278198242 C13.49710750579834 12.73963737487793 13.395771980285645 13.813570022583008 13.018169403076172 14.808810234069824 C13.975481033325195 15.131498336791992 14.641804695129395 15.356249809265137 15.409464836120605 15.614965438842773 C15.409464836120605 16.144290924072266 15.409464836120605 16.690595626831055 15.409464836120605 17.448633193969727 C14.792959213256836 17.684139251708984 14.059832572937012 17.963802337646484 13.14101791381836 18.31479835510254 C13.141016960144043 21.624343872070312 13.141016960144043 24.89199447631836 13.141016960144043 28.294946670532227 C12.012738227844238 28.294946670532227 11.113171577453613 28.294946670532227 9.97866439819336 28.294946670532227 C9.97866439819336 25.006349563598633 9.97866439819336 21.744361877441406 9.97866439819336 19.05868148803711 C9.01172924041748 17.892473220825195 8.202176094055176 17.252756118774414 7.936099052429199 16.43640899658203 C7.824007511138916 16.091073989868164 8.856046676635742 15.373799324035645 9.668996810913086 14.502538681030273 C10.766705513000488 9.559167861938477 12.093127250671387 8.481840133666992 16.65323257446289 9.383671760559082"></path></svg>