<svg xmlns="http://www.w3.org/2000/svg" viewBox="0.0 0.0 24.0 24.0" height="200px" width="200px"><path fill="none" stroke="black" stroke-width=".3" stroke-opacity="1.0"  filling="0" d="M18.77744483947754 12.303776741027832 C18.77744483947754 12.989740371704102 18.77744483947754 13.53920841217041 18.77744483947754 14.217039108276367 C18.193126678466797 14.398839950561523 17.583833694458008 14.588191032409668 16.899032592773438 14.800775527954102 C17.981704711914062 16.797677993774414 18.256439208984375 18.875896453857422 16.28102684020996 20.26525115966797 C14.773767471313477 21.325847625732422 12.858181953430176 21.806198120117188 10.729430198669434 22.713459014892578 C11.484513282775879 23.23155975341797 11.93059253692627 23.670669555664062 12.46553897857666 23.871057510375977 C13.180543899536133 24.138240814208984 13.96989631652832 24.199810028076172 14.718587875366211 24.383934020996094 C19.117231369018555 25.466602325439453 19.91819953918457 27.831172943115234 17.116844177246094 31.441625595092773 C13.825265884399414 31.441625595092773 10.534269332885742 31.441625595092773 7.2426910400390625 31.441625595092773 C4.8612775802612305 29.00038719177246 5.464181423187256 26.498741149902344 8.461277961730957 25.019943237304688 C7.561567783355713 23.55217933654785 7.556340217590332 22.17560577392578 9.456825256347656 21.328750610351562 C9.102517127990723 20.99709701538086 8.845788955688477 20.708423614501953 8.542594909667969 20.480737686157227 C6.883155822753906 19.23659324645996 6.324394702911377 17.58877182006836 6.8796706199646 15.62671947479248 C7.444820880889893 13.629236221313477 9.010164260864258 12.531461715698242 10.912971496582031 12.360697746276855 C13.479089736938477 12.130107879638672 16.081218719482422 12.303776741027832 18.77744483947754 12.303776741027832"></path>
<path fill="none" stroke="black" stroke-width=".3" stroke-opacity="1.0"  filling="0" d="M12.038625717163086 14.659050941467285 C13.404743194580078 14.570183753967285 14.711034774780273 15.777734756469727 14.674443244934082 17.095062255859375 C14.639593124389648 18.353145599365234 13.554018020629883 19.326040267944336 12.176862716674805 19.334171295166016 C10.834559440612793 19.342304229736328 9.689738273620605 18.321781158447266 9.676959991455078 17.104938507080078 C9.66418170928955 15.928171157836914 10.812487602233887 14.739206314086914 12.038625717163086 14.659050941467285"></path>
<path fill="none" stroke="black" stroke-width=".3" stroke-opacity="1.0"  filling="0" d="M12.086834907531738 26.479576110839844 C13.452371597290039 26.830398559570312 15.225652694702148 26.418006896972656 15.605517387390137 28.347532272338867 C15.822168350219727 29.451114654541016 14.036689758300781 30.32061767578125 11.941625595092773 30.20271110534668 C11.46824836730957 30.175994873046875 10.89031982421875 30.195159912109375 10.554597854614258 29.939014434814453 C9.938335418701172 29.46854019165039 9.466699600219727 28.809295654296875 8.935236930847168 28.22846031188965 C9.525362968444824 27.70397186279297 10.066699028015137 27.101646423339844 10.725362777709961 26.685190200805664 C11.091287612915039 26.454599380493164 11.653532981872559 26.53475570678711 12.086834907531738 26.479576110839844"></path></svg>