<svg xmlns="http://www.w3.org/2000/svg" viewBox="0.0 0.0 24.0 24.0" height="200px" width="200px"><path fill="none" stroke="black" stroke-width=".3" stroke-opacity="1.0"  filling="0" d="M13.925106048583984 6.685884475708008 L13.925106048583984 6.685884475708008 C14.305848121643066 6.921833038330078 14.686591148376465 7.157781600952148 15.067333221435547 7.393730163574219 L15.067333221435547 7.393730163574219 C14.714495658874512 7.660787105560303 14.449390411376953 8.153532981872559 14.008819580078125 8.194901466369629 C13.64589786529541 8.228979110717773 13.406907081604004 7.783567428588867 13.105951309204102 7.577900409698486 L13.105951309204102 7.577900409698486 C13.379002571105957 7.280561923980713 13.652054786682129 6.983222961425781 13.925106048583984 6.685884475708008 L13.925106048583984 6.685884475708008"></path>
<path fill="none" stroke="black" stroke-width=".3" stroke-opacity="1.0"  filling="0" d="M11.873498916625977 10.064507484436035 L11.873498916625977 10.064507484436035 C12.589715957641602 10.064507484436035 13.305933952331543 10.064507484436035 14.022150993347168 10.064507484436035 L14.022150993347168 10.064507484436035 C13.590703964233398 12.04478645324707 13.159367561340332 14.025092124938965 12.727998733520508 16.005390167236328 L12.727998733520508 16.005390167236328 C12.991851806640625 16.117111206054688 13.255705833435059 16.22883415222168 13.519558906555176 16.34055519104004 L13.519558906555176 16.34055519104004 C13.350322723388672 16.694814682006836 13.385910034179688 17.284086227416992 13.011850357055664 17.403331756591797 C12.153072357177734 17.677099227905273 11.209319114685059 17.37734031677246 10.308053016662598 17.364343643188477 L10.308053016662598 17.364343643188477 C10.445052146911621 16.677719116210938 11.074501037597656 16.191707611083984 11.427840232849121 15.587247848510742 C12.037939071655273 14.543545722961426 12.118844985961914 12.547170639038086 12.346946716308594 11.371682167053223 L12.346946716308594 11.371682167053223 C12.189130783081055 10.935956954956055 12.031314849853516 10.500232696533203 11.873498916625977 10.064507484436035 L11.873498916625977 10.064507484436035"></path></svg>