<svg xmlns="http://www.w3.org/2000/svg" viewBox="0.0 0.0 24.0 24.0" height="200px" width="200px"><path fill="none" stroke="black" stroke-width=".3" stroke-opacity="1.0"  filling="0" d="M12.49941349029541 10.858580589294434 L12.49941349029541 10.858580589294434 C12.968318939208984 11.142081260681152 13.437224388122559 11.425582885742188 13.906129837036133 11.709083557128906 L13.906129837036133 11.709083557128906 C13.44902229309082 12.007529258728027 13.080602645874023 12.593223571777344 12.534808158874512 12.604419708251953 C12.09935188293457 12.613351821899414 11.8713960647583 12.03989028930664 11.539690017700195 11.757625579833984 L11.539690017700195 11.757625579833984 C11.859598159790039 11.4579439163208 12.179505348205566 11.158262252807617 12.49941349029541 10.858580589294434 L12.49941349029541 10.858580589294434"></path>
<path fill="none" stroke="black" stroke-width=".3" stroke-opacity="1.0"  filling="0" d="M11.596660614013672 14.033048629760742 L11.596660614013672 14.033048629760742 C12.1992826461792 14.033048629760742 12.80190372467041 14.033048629760742 13.404525756835938 14.033048629760742 L13.404525756835938 14.033048629760742 C13.404525756835938 15.303465843200684 13.404525756835938 16.573883056640625 13.404525756835938 17.84429931640625 C13.404525756835938 19.114715576171875 13.404525756835938 20.3851318359375 13.404525756835938 21.655548095703125 L13.404525756835938 21.655548095703125 C12.80190372467041 21.655548095703125 12.1992826461792 21.655548095703125 11.596660614013672 21.655548095703125 L11.596660614013672 21.655548095703125 C11.596660614013672 20.385129928588867 11.596660614013672 19.114713668823242 11.596660614013672 17.844297409057617 C11.596660614013672 16.573881149291992 11.596660614013672 15.303465843200684 11.596660614013672 14.033048629760742 L11.596660614013672 14.033048629760742"></path></svg>