<svg xmlns="http://www.w3.org/2000/svg" viewBox="0.0 0.0 24.0 24.0" height="200px" width="200px"><path fill="none" stroke="black" stroke-width=".3" stroke-opacity="1.0"  filling="0" d="M11.823060989379883 7.6678338050842285 C12.260763168334961 7.647897720336914 13.01065731048584 8.323934555053711 13.105356216430664 8.79924488067627 C13.189181327819824 9.218822479248047 12.558908462524414 9.780675888061523 12.014726638793945 10.642035484313965 C11.351375579833984 9.839581489562988 10.65268325805664 9.361552238464355 10.67941665649414 8.927474021911621 C10.708415031433105 8.454882621765137 11.395326614379883 7.687317848205566 11.823060989379883 7.6678338050842285"></path>
<path fill="none" stroke="black" stroke-width=".3" stroke-opacity="1.0"  filling="0" d="M13.27391242980957 11.80561637878418 C13.27391242980957 13.183065414428711 13.27436637878418 14.435003280639648 13.27391242980957 15.68694019317627 C13.273459434509277 18.09838104248047 13.424345016479492 20.522960662841797 13.211836814880371 22.91537094116211 C13.093122482299805 24.260650634765625 12.374040603637695 25.55200958251953 11.925010681152344 26.86783218383789 C11.169679641723633 26.86783218383789 10.414801597595215 26.86783218383789 9.659470558166504 26.86783218383789 C9.649954795837402 26.33905792236328 9.412527084350586 25.56378936767578 9.670797348022461 25.325454711914062 C10.649965286254883 24.421958923339844 10.581544876098633 23.314109802246094 10.584263801574707 22.19175910949707 C10.592419624328613 18.8170108795166 10.586982727050781 15.441808700561523 10.586982727050781 11.934752464294434 C11.507245063781738 11.890348434448242 12.232217788696289 11.855912208557129 13.27391242980957 11.80561637878418"></path></svg>