<svg xmlns="http://www.w3.org/2000/svg" viewBox="0.0 0.0 24.0 24.0" height="200px" width="200px"><path fill="none" stroke="black" stroke-width=".3" stroke-opacity="1.0"  filling="0" d="M8.551462173461914 8.337041854858398 L8.551462173461914 8.337041854858398 C9.361401557922363 8.243782043457031 10.25936222076416 8.449891090393066 10.92758560180664 8.916984558105469 L10.92758560180664 8.916984558105469 C11.866732597351074 8.487695693969727 12.547100067138672 8.029887199401855 13.667150497436523 8.191892623901367 C15.743277549743652 8.492185592651367 16.35982894897461 10.215154647827148 16.04961395263672 11.953369140625 C15.739397048950195 13.691583633422852 14.502410888671875 15.44504451751709 12.871461868286133 15.806320190429688 C11.300532341003418 16.154300689697266 10.799688339233398 15.524089813232422 9.515969276428223 14.782052040100098 L9.515969276428223 14.782052040100098 C9.295513153076172 15.683085441589355 9.075054168701172 16.584117889404297 8.854593276977539 17.485149383544922 L8.854593276977539 17.485149383544922 C9.180946350097656 17.643577575683594 9.507299423217773 17.802005767822266 9.83365249633789 17.960433959960938 L9.83365249633789 17.960433959960938 C9.739214897155762 18.281213760375977 9.644776344299316 18.60199546813965 9.550338745117188 18.922775268554688 L9.550338745117188 18.922775268554688 C8.472196578979492 18.922775268554688 7.394053936004639 18.922775268554688 6.315911769866943 18.922775268554688 L6.315911769866943 18.922775268554688 C6.516322135925293 18.260717391967773 7.146322727203369 17.81494140625 7.522706508636475 17.23457908630371 C8.022283554077148 16.46426010131836 7.915103435516357 15.440714836120605 8.117400169372559 14.545145034790039 C8.490151405334473 12.894969940185547 8.867597579956055 11.245850563049316 9.243182182312012 9.596319198608398 L9.243182182312012 9.596319198608398 C8.947999000549316 9.465757369995117 8.652814865112305 9.335195541381836 8.35763168334961 9.204633712768555 L8.35763168334961 9.204633712768555 C8.422242164611816 8.915436744689941 8.486851692199707 8.626238822937012 8.551462173461914 8.337041854858398 L8.551462173461914 8.337041854858398"></path>
<path fill="none" stroke="black" stroke-width=".3" stroke-opacity="1.0"  filling="0" d="M13.140843391418457 9.412086486816406 L13.140843391418457 9.412086486816406 C15.039336204528809 10.751031875610352 15.333446502685547 14.080053329467773 12.345396041870117 14.634977340698242 C10.16714859008789 15.039508819580078 9.645975112915039 12.634923934936523 10.397608757019043 11.155023574829102 C11.135944366455078 9.701306343078613 11.734718322753906 9.83436393737793 13.140843391418457 9.412086486816406 L13.140843391418457 9.412086486816406"></path></svg>