<svg xmlns="http://www.w3.org/2000/svg" viewBox="0.0 0.0 24.0 24.0" height="200px" width="200px"><path fill="none" stroke="black" stroke-width=".3" stroke-opacity="1.0"  filling="0" d="M13.537070274353027 8.035797119140625 L13.537070274353027 8.035797119140625 C16.478836059570312 7.882183074951172 17.176679611206055 10.384116172790527 16.60529136657715 13.000204086303711 C16.03390121459961 15.616292953491211 14.193277359008789 18.34653663635254 12.058109283447266 18.64954376220703 C9.858348846435547 18.96171760559082 8.95942497253418 17.22509002685547 8.965063095092773 15.354928970336914 C8.96987247467041 13.759748458862305 9.402336120605469 12.263742446899414 10.188867568969727 10.999643325805664 C10.975398063659668 9.735544204711914 12.115995407104492 8.703351020812988 13.537070274353027 8.035797119140625 L13.537070274353027 8.035797119140625"></path>
<path fill="none" stroke="black" stroke-width=".3" stroke-opacity="1.0"  filling="0" d="M14.45114517211914 8.686233520507812 L14.45114517211914 8.686233520507812 C14.718376159667969 9.059965133666992 14.985608100891113 9.433697700500488 15.252839088439941 9.807429313659668 L15.252839088439941 9.807429313659668 C15.071235656738281 10.899408340454102 14.88565731048584 12.310720443725586 14.534244537353516 13.65725326538086 C14.182832717895508 15.003785133361816 13.665584564208984 16.285537719726562 12.82064151763916 17.11839485168457 C12.403843879699707 17.52923011779785 11.811614990234375 18.097780227661133 11.255803108215332 17.914533615112305 C10.23271369934082 17.577228546142578 10.768510818481445 14.918255805969238 10.843506813049316 14.527376174926758 C11.309532165527344 12.098459243774414 12.256307601928711 9.860984802246094 14.45114517211914 8.686233520507812 L14.45114517211914 8.686233520507812"></path></svg>