<svg xmlns="http://www.w3.org/2000/svg" viewBox="0.0 0.0 24.0 24.0" height="200px" width="200px"><path fill="none" stroke="black" stroke-width=".3" stroke-opacity="1.0"  filling="0" d="M12.280718803405762 12.638843536376953 L12.280718803405762 12.638843536376953 C12.359094619750977 13.154367446899414 12.437471389770508 13.669891357421875 12.515847206115723 14.185415267944336 L12.515847206115723 14.185415267944336 C13.383931159973145 14.244180679321289 14.252017974853516 14.302894592285156 15.120107650756836 14.361566543579102 L15.120107650756836 14.361566543579102 C15.148948669433594 14.871270179748535 15.177789688110352 15.380973815917969 15.20663070678711 15.890677452087402 L15.20663070678711 15.890677452087402 C14.26818561553955 15.972404479980469 13.329741477966309 16.05414390563965 12.391298294067383 16.135894775390625 L12.391298294067383 16.135894775390625 C12.386404037475586 17.1485595703125 11.898370742797852 20.404720306396484 12.827362060546875 21.174713134765625 C13.428074836730957 21.672611236572266 14.58864974975586 21.320751190185547 15.283066749572754 21.160114288330078 L15.283066749572754 21.160114288330078 C15.35230827331543 21.665760040283203 15.707164764404297 22.21482276916504 15.490792274475098 22.677051544189453 C14.934822082519531 23.864748001098633 12.029726028442383 23.546236038208008 11.217255592346191 22.924304962158203 C9.447346687316895 21.569473266601562 10.078874588012695 18.10526466369629 10.090066909790039 16.225910186767578 L10.090066909790039 16.225910186767578 C9.589028358459473 16.077953338623047 9.087989807128906 15.9299955368042 8.58695125579834 15.782037734985352 L8.58695125579834 15.782037734985352 C9.818257331848145 14.734363555908203 11.049468994140625 13.68658447265625 12.280718803405762 12.638843536376953 L12.280718803405762 12.638843536376953"></path></svg>