<svg xmlns="http://www.w3.org/2000/svg" viewBox="0.0 0.0 24.0 24.0" height="200px" width="200px"><path fill="none" stroke="black" stroke-width=".3" stroke-opacity="1.0"  filling="0" d="M14.196481704711914 7.048216342926025 L14.196481704711914 7.048216342926025 C14.05506420135498 7.763666152954102 13.635847091674805 8.886772155761719 13.894129753112793 9.728815078735352 C14.005125999450684 10.090681076049805 14.505115509033203 10.41213607788086 14.363073348999023 10.762979507446289 C14.210142135620117 11.140718460083008 13.628417015075684 11.115939140319824 13.261089324951172 11.292418479919434 L13.261089324951172 11.292418479919434 C12.89685344696045 13.011126518249512 12.532516479492188 14.729808807373047 12.168241500854492 16.44850730895996 L12.168241500854492 16.44850730895996 C12.69255542755127 16.4895076751709 13.21686840057373 16.530508041381836 13.741182327270508 16.571508407592773 L13.741182327270508 16.571508407592773 C13.36791706085205 17.841697692871094 11.304692268371582 18.654346466064453 10.95303726196289 16.7508602142334 C10.621732711791992 14.957526206970215 12.006103515625 13.230277061462402 11.761885643005371 11.57899284362793 C11.692008018493652 11.106512069702148 11.237997055053711 10.679889678955078 11.333024978637695 10.21181869506836 C11.523542404174805 9.273397445678711 13.535019874572754 7.564150333404541 14.196481704711914 7.048216342926025 L14.196481704711914 7.048216342926025"></path></svg>