<svg xmlns="http://www.w3.org/2000/svg" viewBox="0.0 0.0 24.0 24.0" height="200px" width="200px"><path fill="none" stroke="black" stroke-width=".3" stroke-opacity="1.0"  filling="0" d="M8.28579044342041 11.850140571594238 L8.28579044342041 11.850140571594238 C8.962531089782715 11.850140571594238 9.639270782470703 11.850140571594238 10.316011428833008 11.850140571594238 L10.316011428833008 11.850140571594238 C10.955583572387695 13.158330917358398 11.59521770477295 14.466486930847168 12.23486042022705 15.774642944335938 L12.23486042022705 15.774642944335938 C12.856718063354492 14.46682357788086 13.478554725646973 13.15898609161377 14.10031795501709 11.851122856140137 L14.10031795501709 11.851122856140137 C14.71951675415039 11.851122856140137 15.338715553283691 11.851122856140137 15.957914352416992 11.851122856140137 L15.957914352416992 11.851122856140137 C15.15018367767334 13.650979995727539 14.342504501342773 15.450860023498535 13.534855842590332 17.25075340270996 C12.727208137512207 19.050647735595703 11.91958999633789 20.850555419921875 11.111983299255371 22.650466918945312 L11.111983299255371 22.650466918945312 C10.456862449645996 22.650466918945312 9.801740646362305 22.650466918945312 9.14661979675293 22.650466918945312 L9.14661979675293 22.650466918945312 C9.679424285888672 21.34677505493164 10.967151641845703 19.464826583862305 10.979116439819336 18.01937484741211 C10.994758605957031 16.129608154296875 9.0614652633667 13.528066635131836 8.28579044342041 11.850140571594238 L8.28579044342041 11.850140571594238"></path></svg>