<svg xmlns="http://www.w3.org/2000/svg" viewBox="0.0 0.0 24.0 24.0" height="200px" width="200px"><path fill="none" stroke="black" stroke-width=".3" stroke-opacity="1.0"  filling="0" d="M7.339409351348877 7.7713799476623535 C11.851558685302734 7.7713799476623535 16.227832794189453 7.7713799476623535 21.412288665771484 7.7713799476623535 C20.24439239501953 9.638287544250488 19.528888702392578 11.275070190429688 18.384553909301758 12.518365859985352 C15.14790153503418 16.034622192382812 11.735319137573242 19.389869689941406 7.913539886474609 23.298044204711914 C10.485740661621094 23.298044204711914 12.262324333190918 23.298044204711914 13.902250289916992 23.298044204711914 C15.508401870727539 22.324142456054688 14.301236152648926 18.721492767333984 18.086885452270508 19.8587589263916 C17.659626007080078 21.88824462890625 17.22294044494629 23.957786560058594 16.75719451904297 26.170269012451172 C12.117025375366211 26.17105484008789 7.721116065979004 26.17105484008789 2.211503028869629 26.17105484008789 C3.4422311782836914 24.20676040649414 4.109039783477783 22.678359985351562 5.178761005401611 21.52224349975586 C8.51516056060791 17.916452407836914 12.003141403198242 14.451247215270996 15.937234878540039 10.412696838378906 C13.522900581359863 10.412696838378906 11.892400741577148 10.412696838378906 10.307453155517578 10.412696838378906 C8.909433364868164 11.470636367797852 10.085184097290039 14.957047462463379 6.29874849319458 13.871618270874023 C6.627832889556885 11.940308570861816 6.963200569152832 9.976011276245117 7.339409351348877 7.7713799476623535"></path></svg>