<svg xmlns="http://www.w3.org/2000/svg" viewBox="0.0 0.0 24.0 24.0" height="200px" width="200px"><path fill="none" stroke="black" stroke-width=".3" stroke-opacity="1.0"  filling="0" d="M12.389055252075195 8.846552848815918 C14.89851188659668 8.910286903381348 16.536197662353516 10.407758712768555 17.380258560180664 12.5874605178833 C18.097957611083984 14.445722579956055 18.411083221435547 16.460824966430664 18.936473846435547 18.535226821899414 C18.373397827148438 20.58469009399414 18.01704216003418 22.690128326416016 17.210668563842773 24.605472564697266 C16.297332763671875 26.773536682128906 14.526636123657227 28.081470489501953 12.016626358032227 28.043781280517578 C9.637964248657227 28.00775718688965 7.999168872833252 26.767440795898438 7.039279937744141 24.700241088867188 C5.152754306793213 20.637338638305664 5.157742023468018 16.487979888916016 6.966679096221924 12.415102005004883 C7.97422981262207 10.146171569824219 9.792587280273438 8.781156539916992 12.389055252075195 8.846552848815918"></path>
<path fill="none" stroke="black" stroke-width=".3" stroke-opacity="1.0"  filling="0" d="M12.03768539428711 11.926843643188477 C12.723241806030273 11.900796890258789 13.806164741516113 12.666157722473145 14.088811874389648 13.34450912475586 C15.489850044250488 16.709110260009766 15.418357849121094 20.19452667236328 14.119293212890625 23.56855010986328 C13.859923362731934 24.24246597290039 12.74984359741211 25.000621795654297 12.054866790771484 24.979007720947266 C11.349359512329102 24.95684051513672 10.303567886352539 24.149356842041016 10.057498931884766 23.45493507385254 C9.483339309692383 21.836647033691406 9.300450325012207 20.080360412597656 8.961828231811523 18.395565032958984 C9.320956230163574 16.67031478881836 9.494977951049805 15.000484466552734 10.061932563781738 13.476409912109375 C10.322964668273926 12.7742280960083 11.337165832519531 11.953445434570312 12.03768539428711 11.926843643188477"></path></svg>