<svg xmlns="http://www.w3.org/2000/svg" viewBox="0.0 0.0 24.0 24.0" height="200px" width="200px"><path fill="none" stroke="black" stroke-width=".3" stroke-opacity="1.0"  filling="0" d="M9.456650733947754 10.792434692382812 L9.456650733947754 10.792434692382812 C10.519956588745117 10.4822416305542 12.178949356079102 10.315577507019043 13.4066162109375 10.68608283996582 C14.634283065795898 11.056588172912598 15.430624961853027 11.964262008666992 14.768627166748047 13.802745819091797 C14.57121467590332 14.350995063781738 14.188862800598145 14.813719749450684 13.898981094360352 15.319206237792969 L13.898981094360352 15.319206237792969 C14.235570907592773 15.85742473602295 14.676414489746094 16.343107223510742 14.9087495803833 16.933862686157227 C15.703842163085938 18.95553970336914 14.865967750549316 19.982460021972656 13.535430908203125 20.415939331054688 C12.204894065856934 20.849416732788086 10.381693840026855 20.689449310302734 9.206132888793945 20.337352752685547 L9.206132888793945 20.337352752685547 C9.206028938293457 19.817726135253906 9.205925941467285 19.298097610473633 9.205821990966797 18.778470993041992 L9.205821990966797 18.778470993041992 C9.942560195922852 18.960182189941406 11.5166015625 19.605192184448242 12.427287101745605 19.116880416870117 C13.099188804626465 18.75660514831543 13.322972297668457 17.583208084106445 12.80070686340332 17.006929397583008 C12.34432315826416 16.503345489501953 11.596465110778809 16.376585006713867 10.994344711303711 16.061412811279297 L10.994344711303711 16.061412811279297 C10.994344711303711 15.657800674438477 10.994344711303711 15.254188537597656 10.994344711303711 14.850576400756836 L10.994344711303711 14.850576400756836 C12.378746032714844 14.328706741333008 14.120626449584961 13.050537109375 11.794817924499512 11.861498832702637 C11.63988971710205 11.782294273376465 9.566619873046875 12.047268867492676 9.456650733947754 12.059980392456055 L9.456650733947754 12.059980392456055 C9.456650733947754 11.637465476989746 9.456650733947754 11.214949607849121 9.456650733947754 10.792434692382812 L9.456650733947754 10.792434692382812"></path></svg>