<svg xmlns="http://www.w3.org/2000/svg" viewBox="0.0 0.0 24.0 24.0" height="200px" width="200px"><path fill="none" stroke="black" stroke-width=".3" stroke-opacity="1.0"  filling="0" d="M13.1156005859375 6.635120391845703 L13.1156005859375 6.635120391845703 C13.708808898925781 6.729162693023682 14.365586280822754 6.634012222290039 14.89522647857666 6.917247295379639 C17.55719566345215 8.340785026550293 15.660202980041504 10.636200904846191 14.236454963684082 11.83025074005127 L14.236454963684082 11.83025074005127 C14.893908500671387 12.831660270690918 15.518320083618164 13.35317325592041 15.375741958618164 14.630595207214355 C15.099365234375 17.106782913208008 11.532844543457031 18.40845489501953 9.791472434997559 16.5386962890625 C9.025022506713867 15.715738296508789 9.22026252746582 14.867157936096191 9.182406425476074 13.8339204788208 L9.182406425476074 13.8339204788208 C9.468173027038574 13.8339204788208 9.75394058227539 13.8339204788208 10.03970718383789 13.8339204788208 L10.03970718383789 13.8339204788208 C10.122079849243164 14.022858619689941 10.856915473937988 15.788973808288574 11.063604354858398 15.954357147216797 C12.32010555267334 16.959753036499023 13.939142227172852 15.544381141662598 14.021529197692871 14.238555908203125 C14.121112823486328 12.660161018371582 13.011977195739746 12.684568405151367 11.864171028137207 12.179054260253906 L11.864171028137207 12.179054260253906 C12.481785774230957 11.536391258239746 13.386617660522461 11.243518829345703 14.08482837677002 10.689473152160645 C15.182204246520996 9.818681716918945 14.970300674438477 7.353053569793701 13.183177947998047 7.774772644042969 C12.389899253845215 7.961967945098877 11.286998748779297 9.361507415771484 10.63525390625 9.797765731811523 L10.63525390625 9.797765731811523 C11.06401252746582 7.893815994262695 11.297353744506836 7.356418132781982 13.1156005859375 6.635120391845703 L13.1156005859375 6.635120391845703"></path></svg>