<svg xmlns="http://www.w3.org/2000/svg" viewBox="0.0 0.0 24.0 24.0" height="200px" width="200px"><path fill="none" stroke="black" stroke-width=".3" stroke-opacity="1.0"  filling="0" d="M15.760363578796387 6.771116256713867 L15.760363578796387 6.771116256713867 C15.291579246520996 8.939738273620605 14.822754859924316 11.108351707458496 14.354024887084961 13.276985168457031 L14.354024887084961 13.276985168457031 C14.794687271118164 13.384048461914062 15.237285614013672 13.484153747558594 15.68275260925293 13.569037437438965 L15.68275260925293 13.569037437438965 C15.341923713684082 14.123376846313477 14.724750518798828 14.551681518554688 14.090960502624512 14.69921875 L14.090960502624512 14.69921875 C13.668191909790039 15.8670654296875 14.31846809387207 16.196392059326172 14.342181205749512 17.436777114868164 L14.342181205749512 17.436777114868164 C13.282441139221191 17.436777114868164 12.222701072692871 17.436777114868164 11.16296100616455 17.436777114868164 L11.16296100616455 17.436777114868164 C11.720772743225098 16.544357299804688 12.107545852661133 15.525372505187988 12.296570777893066 14.490077018737793 L12.296570777893066 14.490077018737793 C11.300311088562012 14.490077018737793 10.304052352905273 14.490077018737793 9.307792663574219 14.490077018737793 L9.307792663574219 14.490077018737793 C9.137195587158203 14.149609565734863 8.804203033447266 13.849403381347656 8.796000480651855 13.468674659729004 C8.780936241149902 12.769454956054688 10.232293128967285 11.482089042663574 10.463508605957031 11.233216285705566 C11.908251762390137 9.678139686584473 13.500381469726562 6.72055721282959 15.760363578796387 6.771116256713867 L15.760363578796387 6.771116256713867"></path>
<path fill="none" stroke="black" stroke-width=".3" stroke-opacity="1.0"  filling="0" d="M13.569817543029785 9.28612995147705 L13.569817543029785 9.28612995147705 C13.650545120239258 9.323325157165527 13.73127269744873 9.360519409179688 13.812000274658203 9.397714614868164 L13.812000274658203 9.397714614868164 C13.505227088928223 10.729982376098633 13.198430061340332 12.06224250793457 12.891584396362305 13.394493103027344 L12.891584396362305 13.394493103027344 C11.883895874023438 13.394493103027344 10.876208305358887 13.394493103027344 9.86851978302002 13.394493103027344 L9.86851978302002 13.394493103027344 C11.102301597595215 12.025053024291992 12.336041450500488 10.655577659606934 13.569817543029785 9.28612995147705 L13.569817543029785 9.28612995147705"></path></svg>