<svg xmlns="http://www.w3.org/2000/svg" viewBox="0.0 0.0 24.0 24.0" height="200px" width="200px"><path fill="none" stroke="black" stroke-width=".3" stroke-opacity="1.0"  filling="0" d="M9.923112869262695 10.985247611999512 L9.923112869262695 10.985247611999512 C10.957731246948242 10.498497009277344 12.630051612854004 10.290091514587402 13.894586563110352 10.6602783203125 C15.1591215133667 11.030464172363281 16.015871047973633 11.979242324829102 15.419349670410156 13.806859016418457 C15.21871280670166 14.421568870544434 14.771486282348633 14.926130294799805 14.447554588317871 15.48576545715332 L14.447554588317871 15.48576545715332 C14.832403182983398 16.034883499145508 15.344454765319824 16.514041900634766 15.602099418640137 17.133119583129883 C16.63926124572754 19.625244140625 14.456626892089844 20.903942108154297 12.262222290039062 20.920516967773438 C10.067817687988281 20.937091827392578 7.861641883850098 19.691543579101562 8.851720809936523 17.135177612304688 C9.0966796875 16.502696990966797 9.601195335388184 16.004499435424805 9.975932121276855 15.439160346984863 L9.975932121276855 15.439160346984863 C8.926560401916504 13.460321426391602 8.649861335754395 12.85292911529541 9.923112869262695 10.985247611999512 L9.923112869262695 10.985247611999512"></path>
<path fill="none" stroke="black" stroke-width=".3" stroke-opacity="1.0"  filling="0" d="M12.303711891174316 11.758275032043457 L12.303711891174316 11.758275032043457 C13.614810943603516 12.341431617736816 14.499526977539062 14.780207633972168 12.203975677490234 14.711185455322266 C9.915924072265625 14.642388343811035 10.955873489379883 12.245779037475586 12.303711891174316 11.758275032043457 L12.303711891174316 11.758275032043457"></path>
<path fill="none" stroke="black" stroke-width=".3" stroke-opacity="1.0"  filling="0" d="M12.098648071289062 16.253198623657227 L12.098648071289062 16.253198623657227 C12.532038688659668 16.409961700439453 13.060218811035156 16.41083335876465 13.398818969726562 16.723485946655273 C14.514204978942871 17.75339698791504 13.660704612731934 19.436532974243164 12.263319969177246 19.442554473876953 C9.692523002624512 19.45363426208496 10.599059104919434 16.930763244628906 12.098648071289062 16.253198623657227 L12.098648071289062 16.253198623657227"></path></svg>