<svg xmlns="http://www.w3.org/2000/svg" viewBox="0.0 0.0 24.0 24.0" height="200px" width="200px"><path fill="none" stroke="black" stroke-width=".3" stroke-opacity="1.0"  filling="0" d="M9.537137985229492 9.106006622314453 C12.614128112792969 8.069302558898926 15.930697441101074 9.314120292663574 17.326770782470703 12.064864158630371 C18.522457122802734 14.42090892791748 18.386106491088867 16.854238510131836 17.575733184814453 19.27597427368164 C16.369558334350586 22.879596710205078 14.123918533325195 25.69161605834961 10.726753234863281 27.94277572631836 C10.001943588256836 27.460304260253906 9.218067169189453 26.938640594482422 8.316609382629395 26.33858871459961 C10.077018737792969 24.271251678466797 12.486610412597656 22.96957778930664 13.044708251953125 20.151485443115234 C12.563342094421387 20.151485443115234 12.205629348754883 20.14651870727539 11.847917556762695 20.15203857421875 C8.337034225463867 20.21000099182129 6.2205681800842285 18.75651741027832 5.737545490264893 15.952779769897461 C5.216986179351807 12.932096481323242 6.835524559020996 10.016297340393066 9.537137985229492 9.106006622314453"></path>
<path fill="none" stroke="black" stroke-width=".3" stroke-opacity="1.0"  filling="0" d="M11.76235294342041 11.813692092895508 C13.35715389251709 11.815347671508789 14.663246154785156 13.141865730285645 14.717897415161133 14.815607070922852 C14.772547721862793 16.48493194580078 13.77172565460205 17.454288482666016 11.958873748779297 17.486305236816406 C10.222201347351074 17.517772674560547 9.143543243408203 16.56497573852539 9.043073654174805 14.911107063293457 C8.93653392791748 13.16063404083252 10.120628356933594 11.81203556060791 11.76235294342041 11.813692092895508"></path></svg>