<svg xmlns="http://www.w3.org/2000/svg" viewBox="0.0 0.0 24.0 24.0" height="200px" width="200px"><path fill="none" stroke="black" stroke-width=".3" stroke-opacity="1.0"  filling="0" d="M5.565596580505371 3.050264358520508 C8.920690536499023 3.0401124954223633 12.326542854309082 2.414663314819336 15.619598388671875 3.457455635070801 C19.3615779876709 4.642368793487549 19.7208309173584 8.796616554260254 16.101232528686523 11.95995807647705 C16.452590942382812 12.130842208862305 16.77743911743164 12.278604507446289 17.0932674407959 12.443849563598633 C19.337892532348633 13.618047714233398 19.95037078857422 15.572224617004395 19.512725830078125 17.88847541809082 C19.05421257019043 20.315263748168945 17.30306625366211 21.71843719482422 15.026860237121582 21.91469955444336 C11.900176048278809 22.184844970703125 8.732887268066406 21.982376098632812 5.583080291748047 21.982376098632812 C5.549805164337158 21.7725772857666 5.516531467437744 21.562213897705078 5.482692718505859 21.351852416992188 C6.191047191619873 21.079448699951172 6.899964809417725 20.807613372802734 7.690659046173096 20.503631591796875 C7.690659046173096 15.254140853881836 7.690659046173096 10.021571159362793 7.690659046173096 4.638420104980469 C6.964821815490723 4.333309650421143 6.210221767425537 4.015227317810059 5.45562219619751 3.697709083557129 C5.49228048324585 3.481705665588379 5.5289387702941895 3.2662668228149414 5.565596580505371 3.050264358520508"></path>
<path fill="none" stroke="black" stroke-width=".3" stroke-opacity="1.0"  filling="0" d="M9.551779747009277 4.1071553230285645 C11.344095230102539 4.269016742706299 12.99090576171875 4.298907279968262 14.588650703430176 4.5955586433410645 C16.128868103027344 4.881494045257568 17.004159927368164 6.034825325012207 17.08932113647461 7.571096420288086 C17.181249618530273 9.228057861328125 16.37081527709961 10.547761917114258 14.746000289916992 10.948184967041016 C13.155587196350098 11.340147972106934 11.478322982788086 11.37906265258789 9.551779747009277 11.606344223022461 C9.551779747009277 8.903207778930664 9.551779747009277 6.711596965789795 9.551779747009277 4.1071553230285645"></path>
<path fill="none" stroke="black" stroke-width=".3" stroke-opacity="1.0"  filling="0" d="M9.572083473205566 12.565105438232422 C11.466479301452637 12.715124130249023 13.240182876586914 12.680156707763672 14.933239936828613 13.034334182739258 C17.159252166748047 13.499613761901855 18.036800384521484 14.732465744018555 18.030597686767578 16.749807357788086 C18.02439308166504 18.717519760131836 17.092702865600586 20.049068450927734 14.946775436401367 20.514911651611328 C13.258794784545898 20.88149642944336 11.484525680541992 20.84991455078125 9.57151985168457 21.010082244873047 C9.57151985168457 18.05315589904785 9.57151985168457 15.48875617980957 9.572083473205566 12.565105438232422"></path></svg>