<svg xmlns="http://www.w3.org/2000/svg" viewBox="0.0 0.0 24.0 24.0" height="200px" width="200px"><path fill="none" stroke="black" stroke-width=".3" stroke-opacity="1.0"  filling="0" d="M15.640853881835938 8.013336181640625 C18.944137573242188 9.254252433776855 19.314167022705078 12.770265579223633 16.696006774902344 15.431370735168457 C17.574386596679688 16.713233947753906 18.804317474365234 17.850284576416016 19.154869079589844 19.213043212890625 C19.469966888427734 20.438980102539062 18.91517448425293 21.938568115234375 18.55263900756836 23.264873504638672 C18.393840789794922 23.846132278442383 17.823068618774414 24.369964599609375 17.332195281982422 24.79642105102539 C13.529048919677734 28.100204467773438 6.785154342651367 26.443817138671875 4.807178497314453 21.534082412719727 C5.607656478881836 21.39775848388672 6.372180938720703 21.252941131591797 7.141699314117432 21.141084671020508 C7.872766017913818 21.03472137451172 8.608826637268066 20.962310791015625 9.271980285644531 20.88341522216797 C10.783052444458008 22.780990600585938 11.765798568725586 23.229419708251953 13.009211540222168 22.640670776367188 C14.163240432739258 22.09436798095703 14.4478759765625 21.106128692626953 14.316044807434082 19.942615509033203 C14.142765998840332 18.420557022094727 13.543031692504883 18.058019638061523 10.475445747375488 17.70596694946289 C10.584806442260742 16.55293846130371 10.676689147949219 15.580180168151855 10.772067070007324 14.573465347290039 C12.043444633483887 14.25586986541748 13.47911262512207 14.121042251586914 13.507576942443848 12.517088890075684 C13.516565322875977 12.025217056274414 12.908841133117676 11.258694648742676 12.41197395324707 11.06993579864502 C10.828495979309082 10.469202041625977 10.03950309753418 11.66667366027832 9.375848770141602 12.860151290893555 C7.96215295791626 12.626949310302734 6.664309024810791 12.41322135925293 5.285568714141846 12.18551254272461 C5.258602619171143 9.94487190246582 6.634347915649414 8.764378547668457 8.336675643920898 8.04829216003418 C10.717637062072754 7.046570301055908 13.236922264099121 7.110488414764404 15.640853881835938 8.013336181640625"></path></svg>