<svg xmlns="http://www.w3.org/2000/svg" viewBox="0.0 0.0 24.0 24.0" height="200px" width="200px"><path fill="none" stroke="black" stroke-width=".3" stroke-opacity="1.0"  filling="0" d="M12.451211929321289 10.405973434448242 L12.451211929321289 10.405973434448242 C12.236306190490723 11.9534912109375 12.021367073059082 13.50100326538086 11.80643081665039 15.048517227172852 C11.591495513916016 16.59602928161621 11.376562118530273 18.143543243408203 11.161669731140137 19.691062927246094 L11.161669731140137 19.691062927246094 C12.601564407348633 19.691062927246094 14.041454315185547 19.691062927246094 15.481348991394043 19.691062927246094 L15.481348991394043 19.691062927246094 C15.481348991394043 20.196138381958008 15.481348991394043 20.701215744018555 15.481348991394043 21.20629119873047 L15.481348991394043 21.20629119873047 C13.350756645202637 21.20629119873047 11.220170021057129 21.20629119873047 9.089577674865723 21.20629119873047 L9.089577674865723 21.20629119873047 C9.346090316772461 19.425155639648438 9.602564811706543 17.64401626586914 9.859034538269043 15.862874984741211 C10.115503311157227 14.081733703613281 10.371968269348145 12.300592422485352 10.628461837768555 10.519454956054688 L10.628461837768555 10.519454956054688 C11.236044883728027 10.481627464294434 11.843628883361816 10.443800926208496 12.451211929321289 10.405973434448242 L12.451211929321289 10.405973434448242"></path></svg>