<svg xmlns="http://www.w3.org/2000/svg" viewBox="0.0 0.0 24.0 24.0" height="200px" width="200px"><path fill="none" stroke="black" stroke-width=".3" stroke-opacity="1.0"  filling="0" d="M6.69990873336792 2.9887733459472656 C9.141289710998535 2.9560632705688477 11.587745666503906 2.88895320892334 14.024615287780762 3.0034360885620117 C17.627187728881836 3.172060012817383 19.797868728637695 5.366990566253662 19.780385971069336 8.632880210876465 C19.76346778869629 11.837862014770508 17.49635124206543 14.046892166137695 13.966527938842773 14.223410606384277 C12.563961029052734 14.293342590332031 11.155189514160156 14.23469066619873 9.521963119506836 14.23469066619873 C9.521963119506836 16.360254287719727 9.521963119506836 18.372461318969727 9.521963119506836 20.59897232055664 C10.19645881652832 20.800872802734375 11.024351119995117 21.049015045166016 11.852807998657227 21.29715347290039 C11.842092514038086 21.507511138916016 11.831377029418945 21.718433380126953 11.821226119995117 21.928789138793945 C9.706377029418945 22.279571533203125 7.577993869781494 22.24517059326172 5.315388202667236 21.414459228515625 C6.003983020782471 21.13981056213379 6.693141460418701 20.864601135253906 7.545284748077393 20.5245304107666 C7.545283794403076 15.277450561523438 7.545283794403076 9.960440635681152 7.545283794403076 4.570680141448975 C6.805368900299072 4.307311058044434 6.074477195739746 4.0467610359191895 5.343585968017578 3.7862119674682617 C5.342457294464111 3.64070987701416 5.341330051422119 3.4957733154296875 5.340202331542969 3.350271224975586 C5.793625354766846 3.223944664001465 6.245357513427734 2.994412422180176 6.69990873336792 2.9887733459472656"></path>
<path fill="none" stroke="black" stroke-width=".3" stroke-opacity="1.0"  filling="0" d="M9.450902938842773 4.447173118591309 C11.252753257751465 4.447173118591309 13.101412773132324 4.2266645431518555 14.872810363769531 4.501875877380371 C17.22452163696289 4.866757869720459 18.18832778930664 6.272708892822266 18.219345092773438 8.627803802490234 C18.248672485351562 10.856572151184082 17.16812515258789 12.315534591674805 14.818105697631836 12.727225303649902 C13.112691879272461 13.026124954223633 11.344115257263184 12.964653015136719 9.450902938842773 13.072933197021484 C9.450902938842773 10.045598983764648 9.450902938842773 7.363407135009766 9.450902938842773 4.447173118591309"></path></svg>