<svg xmlns="http://www.w3.org/2000/svg" viewBox="0.0 0.0 24.0 24.0" height="200px" width="200px"><path fill="none" stroke="black" stroke-width=".3" stroke-opacity="1.0"  filling="0" d="M9.949914932250977 10.562249183654785 L9.949914932250977 10.562249183654785 C10.50268268585205 10.239347457885742 10.996175765991211 9.781221389770508 11.608217239379883 9.59354305267334 C14.420877456665039 8.731058120727539 16.186843872070312 11.20958423614502 15.95617961883545 13.755871772766113 C15.75381851196289 15.989712715148926 14.444818496704102 17.087554931640625 12.633419036865234 18.076953887939453 L12.633419036865234 18.076953887939453 C13.871070861816406 19.72440528869629 14.293697357177734 19.339479446411133 15.975768089294434 18.25580406188965 L15.975768089294434 18.25580406188965 C15.911866188049316 18.403968811035156 15.219047546386719 20.01056671142578 15.11872386932373 20.243255615234375 L15.11872386932373 20.243255615234375 C14.126486778259277 20.243255615234375 13.13425064086914 20.243255615234375 12.142013549804688 20.243255615234375 L12.142013549804688 20.243255615234375 C11.24272346496582 18.919429779052734 9.952847480773926 17.87087059020996 9.111598014831543 16.671491622924805 C8.270349502563477 15.472113609313965 7.877725601196289 14.121916770935059 8.77293872833252 12.194818496704102 C9.055575370788574 11.586395263671875 9.557589530944824 11.106438636779785 9.949914932250977 10.562249183654785 L9.949914932250977 10.562249183654785"></path>
<path fill="none" stroke="black" stroke-width=".3" stroke-opacity="1.0"  filling="0" d="M13.106964111328125 10.774836540222168 L13.106964111328125 10.774836540222168 C13.87705135345459 11.35588550567627 14.374648094177246 12.293789863586426 14.665023803710938 13.213753700256348 L14.665023803710938 13.213753700256348 C14.505254745483398 13.641895294189453 13.847189903259277 15.507244110107422 13.55495834350586 15.885848999023438 C12.770668029785156 16.901948928833008 10.962138175964355 17.454750061035156 10.146098136901855 16.072357177734375 C9.306001663208008 14.649213790893555 10.189536094665527 11.67725658416748 11.628097534179688 10.926121711730957 C12.067352294921875 10.696767807006836 12.614008903503418 10.825264930725098 13.106964111328125 10.774836540222168 L13.106964111328125 10.774836540222168"></path></svg>