<svg xmlns="http://www.w3.org/2000/svg" viewBox="0.0 0.0 24.0 24.0" height="200px" width="200px"><path fill="none" stroke="black" stroke-width=".3" stroke-opacity="1.0"  filling="0" d="M15.806571960449219 6.842719078063965 C17.845335006713867 7.7225751876831055 18.538911819458008 9.478605270385742 18.5227108001709 11.6152925491333 C18.49547004699707 15.154594421386719 18.515350341796875 18.693897247314453 18.515350341796875 22.401073455810547 C19.530681610107422 22.763324737548828 20.45545196533203 23.09244155883789 21.401573181152344 23.429656982421875 C21.195411682128906 23.8765811920166 21.130619049072266 24.224842071533203 21.011341094970703 24.244720458984375 C19.246479034423828 24.540706634521484 17.417556762695312 25.050212860107422 16.028194427490234 23.0858154296875 C12.822425842285156 24.82049560546875 9.859630584716797 26.538972854614258 6.7031941413879395 23.717544555664062 C5.019320011138916 22.21258544921875 4.345623016357422 19.16290855407715 5.555332183837891 17.32073402404785 C8.214778900146484 13.268980026245117 12.082463264465332 13.790266990661621 16.215944290161133 15.293752670288086 C16.755638122558594 12.573930740356445 17.435962677001953 9.873251914978027 15.104159355163574 8.362403869628906 C11.718740463256836 6.169022083282471 8.63224983215332 7.733619213104248 6.095025062561035 10.682424545288086 C5.901383399963379 10.457122802734375 5.707005500793457 10.231821060180664 5.513362884521484 10.007255554199219 C6.245962619781494 9.095739364624023 6.811426639556885 7.9257893562316895 7.743558406829834 7.322038173675537 C10.276365280151367 5.681604385375977 13.070551872253418 5.66172456741333 15.806571960449219 6.842719078063965"></path>
<path fill="none" stroke="black" stroke-width=".3" stroke-opacity="1.0"  filling="0" d="M11.712850570678711 15.674409866333008 C14.698470115661621 15.608144760131836 16.527393341064453 16.74717140197754 16.637834548950195 18.740283966064453 C16.7755184173584 21.229652404785156 14.038762092590332 23.647598266601562 11.008966445922852 23.712390899658203 C8.750055313110352 23.760982513427734 6.967519283294678 22.150737762451172 6.89241886138916 19.99343490600586 C6.807010173797607 17.539409637451172 8.817793846130371 15.738466262817383 11.712850570678711 15.674409866333008"></path></svg>