<svg xmlns="http://www.w3.org/2000/svg" viewBox="0.0 0.0 24.0 24.0" height="200px" width="200px"><path fill="none" stroke="black" stroke-width=".3" stroke-opacity="1.0"  filling="0" d="M17.150339126586914 14.683460235595703 L17.150339126586914 14.683460235595703 C17.09908103942871 15.22375774383545 17.047822952270508 15.764056205749512 16.996564865112305 16.304353713989258 L16.996564865112305 16.304353713989258 C15.457894325256348 16.73078155517578 13.889754295349121 16.148035049438477 12.513402938842773 17.298526763916016 C11.029163360595703 18.539201736450195 10.085395812988281 21.3439884185791 12.113502502441406 22.641040802001953 C13.467979431152344 23.507280349731445 15.22569465637207 22.745634078979492 16.575471878051758 22.34090805053711 L16.575471878051758 22.34090805053711 C16.413000106811523 23.124971389770508 16.250579833984375 23.90904426574707 16.088220596313477 24.693130493164062 L16.088220596313477 24.693130493164062 C14.478063583374023 25.06969451904297 13.063910484313965 25.48521614074707 11.408562660217285 24.88355827331543 C9.48375129699707 24.1839599609375 8.584087371826172 22.5338134765625 8.506149291992188 20.765819549560547 C8.428210258483887 18.99782371520996 9.171995162963867 17.11197853088379 10.53408145904541 15.940977096557617 C12.481134414672852 14.267072677612305 14.77604866027832 14.348638534545898 17.150339126586914 14.683460235595703 L17.150339126586914 14.683460235595703"></path></svg>