<svg xmlns="http://www.w3.org/2000/svg" viewBox="0.0 0.0 24.0 24.0" height="200px" width="200px"><path fill="none" stroke="black" stroke-width=".3" stroke-opacity="1.0"  filling="0" d="M15.75815486907959 8.829605102539062 L15.75815486907959 8.829605102539062 C15.934809684753418 8.953819274902344 16.111465454101562 9.078034400939941 16.28812026977539 9.202248573303223 L16.28812026977539 9.202248573303223 C16.28812026977539 10.373177528381348 16.28812026977539 11.544105529785156 16.28812026977539 12.715034484863281 L16.28812026977539 12.715034484863281 C16.19005584716797 12.755233764648438 16.091991424560547 12.795432090759277 15.993927001953125 12.835631370544434 L15.993927001953125 12.835631370544434 C15.564741134643555 12.05036449432373 14.898580551147461 10.686966896057129 14.1814603805542 10.216326713562012 C11.678255081176758 8.573493957519531 9.759139060974121 10.400711059570312 9.124512672424316 12.75851058959961 C8.489886283874512 15.11630916595459 9.139749526977539 18.004688262939453 11.774505615234375 18.484182357788086 C13.414257049560547 18.782596588134766 14.150598526000977 18.050853729248047 15.344616889953613 17.0920352935791 C15.683247566223145 16.82010841369629 15.94512939453125 16.222400665283203 16.37366485595703 16.29291534423828 L16.37366485595703 16.29291534423828 C15.940523147583008 17.874073028564453 14.823188781738281 18.973087310791016 13.492526054382324 19.375946044921875 C12.161863327026367 19.778806686401367 10.617873191833496 19.48551368713379 9.331422805786133 18.282054901123047 C8.206588745117188 17.229785919189453 7.668206214904785 15.729106903076172 7.665198802947998 14.215929985046387 C7.662191390991211 12.702752113342285 8.194558143615723 11.177075386047363 9.211222648620605 10.074810028076172 C9.91795825958252 9.308568954467773 10.855734825134277 8.793869972229004 11.908977508544922 8.73274040222168 C13.30513858795166 8.651707649230957 14.070234298706055 9.172431945800781 15.332514762878418 9.708844184875488 L15.332514762878418 9.708844184875488 C15.474394798278809 9.415764808654785 15.6162748336792 9.122684478759766 15.75815486907959 8.829605102539062 L15.75815486907959 8.829605102539062"></path></svg>