<svg xmlns="http://www.w3.org/2000/svg" viewBox="0.0 0.0 24.0 24.0" height="200px" width="200px"><path fill="none" stroke="black" stroke-width=".3" stroke-opacity="1.0"  filling="0" d="M6.990000247955322 7.735508918762207 C11.100743293762207 7.735508918762207 15.064264297485352 7.735508918762207 19.204763412475586 7.735508918762207 C19.204763412475586 9.004128456115723 19.204763412475586 10.180864334106445 19.204763412475586 11.650999069213867 C16.60801124572754 11.650999069213867 13.962705612182617 11.650999069213867 11.133633613586426 11.650999069213867 C10.933160781860352 12.677380561828613 10.780717849731445 13.459956169128418 10.575545310974121 14.510353088378906 C11.408761978149414 14.322408676147461 11.890106201171875 14.20964241027832 12.373016357421875 14.105229377746582 C15.393163681030273 13.450037956237793 18.262958526611328 14.63669204711914 19.515914916992188 17.05594253540039 C20.743289947509766 19.42559814453125 20.074005126953125 23.0784912109375 18.14444923400879 25.027360916137695 C15.200521469116211 28.00156593322754 6.163047790527344 27.924301147460938 4.834913730621338 21.72686195373535 C6.5321478843688965 21.5279541015625 8.060233116149902 21.348886489868164 9.652532577514648 21.1619873046875 C9.886940002441406 21.490886688232422 10.055567741394043 21.777503967285156 10.271181106567383 22.021827697753906 C11.456790924072266 23.364059448242188 12.732719421386719 23.63605499267578 13.889093399047852 22.8106689453125 C14.914430618286133 22.0787353515625 15.293451309204102 19.96854591369629 14.617375373840332 18.754220962524414 C14.021177291870117 17.6834659576416 12.451326370239258 17.073692321777344 11.197847366333008 17.836429595947266 C9.318411827087402 18.979755401611328 7.556962966918945 18.521381378173828 5.418582916259766 17.983652114868164 C5.93960428237915 14.586572647094727 6.458015441894531 11.207243919372559 6.990000247955322 7.735508918762207"></path></svg>