<svg xmlns="http://www.w3.org/2000/svg" viewBox="0.0 0.0 24.0 24.0" height="200px" width="200px"><path fill="none" stroke="black" stroke-width=".3" stroke-opacity="1.0"  filling="0" d="M13.150786399841309 10.892441749572754 L13.150786399841309 10.892441749572754 C13.548171997070312 11.175002098083496 13.945558547973633 11.457562446594238 14.342944145202637 11.74012279510498 L14.342944145202637 11.74012279510498 C13.935201644897461 12.012664794921875 13.60898208618164 12.591693878173828 13.11971664428711 12.557747840881348 C12.681174278259277 12.527320861816406 12.520373344421387 11.91450023651123 12.220701217651367 11.592876434326172 L12.220701217651367 11.592876434326172 C12.530729293823242 11.359397888183594 12.840758323669434 11.125920295715332 13.150786399841309 10.892441749572754 L13.150786399841309 10.892441749572754"></path>
<path fill="none" stroke="black" stroke-width=".3" stroke-opacity="1.0"  filling="0" d="M11.847856521606445 14.102485656738281 L11.847856521606445 14.102485656738281 C12.448212623596191 14.102485656738281 13.048569679260254 14.102485656738281 13.64892578125 14.102485656738281 L13.64892578125 14.102485656738281 C13.46844482421875 15.367474555969238 13.287983894348145 16.632465362548828 13.107531547546387 17.897459030151367 C12.927080154418945 19.162450790405273 12.746636390686035 20.427444458007812 12.566190719604492 21.692440032958984 L12.566190719604492 21.692440032958984 C11.967635154724121 21.692440032958984 11.36907958984375 21.692440032958984 10.770524024963379 21.692440032958984 L10.770524024963379 21.692440032958984 C10.950080871582031 20.427446365356445 11.129621505737305 19.162452697753906 11.30916976928711 17.8974609375 C11.488718032836914 16.63246726989746 11.66827392578125 15.367475509643555 11.847856521606445 14.102485656738281 L11.847856521606445 14.102485656738281"></path></svg>