<svg xmlns="http://www.w3.org/2000/svg" viewBox="0.0 0.0 24.0 24.0" height="200px" width="200px"><path fill="none" stroke="black" stroke-width=".3" stroke-opacity="1.0"  filling="0" d="M12.159280776977539 9.610655784606934 L12.159280776977539 9.610655784606934 C12.403027534484863 9.799905776977539 12.856302261352539 9.871718406677246 12.890520095825195 10.17840576171875 C12.931729316711426 10.547746658325195 12.516951560974121 10.820971488952637 12.330166816711426 11.142253875732422 L12.330166816711426 11.142253875732422 C12.107419967651367 10.85676383972168 11.702078819274902 10.645655632019043 11.66192626953125 10.285782814025879 C11.630931854248047 10.007991790771484 11.99349594116211 9.835698127746582 12.159280776977539 9.610655784606934 L12.159280776977539 9.610655784606934"></path>
<path fill="none" stroke="black" stroke-width=".3" stroke-opacity="1.0"  filling="0" d="M12.491106033325195 11.933176040649414 L12.491106033325195 11.933176040649414 C12.700661659240723 12.578757286071777 12.496695518493652 13.29467487335205 12.409173965454102 13.967748641967773 C12.121217727661133 16.1822452545166 11.962361335754395 18.30160903930664 11.104378700256348 20.372905731201172 L11.104378700256348 20.372905731201172 C10.424235343933105 20.372905731201172 9.744091033935547 20.372905731201172 9.063947677612305 20.372905731201172 L9.063947677612305 20.372905731201172 C9.310683250427246 19.82937240600586 9.914382934570312 19.528356552124023 10.268471717834473 19.047805786132812 C10.48486328125 18.754131317138672 10.713562965393066 16.716970443725586 10.724319458007812 16.637380599975586 C10.933197021484375 15.091859817504883 11.129093170166016 13.548465728759766 11.365299224853516 12.006631851196289 L11.365299224853516 12.006631851196289 C11.740568161010742 11.982146263122559 12.115837097167969 11.957661628723145 12.491106033325195 11.933176040649414 L12.491106033325195 11.933176040649414"></path></svg>