<svg xmlns="http://www.w3.org/2000/svg" viewBox="0.0 0.0 24.0 24.0" height="200px" width="200px"><path fill="none" stroke="black" stroke-width=".3" stroke-opacity="1.0"  filling="0" d="M16.857921600341797 7.519250869750977 L16.857921600341797 7.519250869750977 C15.272144317626953 8.036407470703125 13.746283531188965 8.731950759887695 12.505660057067871 9.73185920715332 C11.265035629272461 10.731768608093262 10.309650421142578 12.036044120788574 9.864822387695312 13.770666122436523 C9.649284362792969 14.611163139343262 9.474564552307129 16.141267776489258 9.910918235778809 16.9683837890625 C10.334787368774414 17.771835327148438 11.358177185058594 17.778247833251953 11.976750373840332 17.252914428710938 C12.728021621704102 16.614883422851562 13.407744407653809 14.602505683898926 12.947139739990234 13.689407348632812 C12.660379409790039 13.120935440063477 11.895164489746094 12.971831321716309 11.369176864624023 12.613042831420898 L11.369176864624023 12.613042831420898 C11.852251052856445 12.423369407653809 12.300432205200195 12.076375961303711 12.818398475646973 12.044023513793945 C14.486305236816406 11.939845085144043 14.999191284179688 13.828994750976562 14.809819221496582 15.107348442077637 C14.609281539916992 16.461082458496094 13.487773895263672 17.5683536529541 12.185243606567383 18.036041259765625 C10.882713317871094 18.50373077392578 9.399160385131836 18.331836700439453 8.474532127380371 17.12724494934082 C7.465014457702637 15.812061309814453 7.859980583190918 13.976960182189941 8.458261489868164 12.600676536560059 C9.1918306350708 10.913176536560059 10.414958000183105 9.638631820678711 11.893087387084961 8.788057327270508 C13.3712158203125 7.937481880187988 15.10434627532959 7.510875225067139 16.857921600341797 7.519250869750977 L16.857921600341797 7.519250869750977"></path></svg>