<svg xmlns="http://www.w3.org/2000/svg" viewBox="0.0 0.0 24.0 24.0" height="200px" width="200px"><path fill="none" stroke="black" stroke-width=".3" stroke-opacity="1.0"  filling="0" d="M11.712023735046387 3.882936477661133 C11.958772659301758 3.9171390533447266 12.204911231994629 3.9519529342651367 12.45166015625 3.9861555099487305 C12.5371675491333 5.1142377853393555 12.623285293579102 6.242320537567139 12.724672317504883 7.575619697570801 C13.636544227600098 7.785722732543945 14.614377975463867 8.01109504699707 15.592822074890137 8.236467361450195 C15.60870361328125 8.419085502624512 15.623971939086914 8.601703643798828 15.639851570129395 8.784322738647461 C14.764015197753906 9.015192031860352 13.888178825378418 9.245450973510742 12.81689739227295 9.527624130249023 C12.81689739227295 13.3589506149292 12.81689739227295 17.251964569091797 12.81689739227295 21.29827880859375 C13.783126831054688 21.504108428955078 14.679729461669922 21.694665908813477 15.716809272766113 21.91576385498047 C13.446596145629883 23.854942321777344 11.467718124389648 23.318078994750977 11.1024808883667 20.75286865234375 C10.86184024810791 19.062881469726562 10.986435890197754 17.319149017333984 10.97238826751709 15.599235534667969 C10.955897331237793 13.67960262298584 10.96811294555664 11.759969711303711 10.96811294555664 9.609466552734375 C9.954243659973145 9.292479515075684 9.234762191772461 9.067108154296875 8.514671325683594 8.84234619140625 C8.495737075805664 8.683547973632812 8.476192474365234 8.524138450622559 8.457259178161621 8.365339279174805 C9.20788860321045 8.115535736083984 9.957907676696777 7.865122318267822 10.638910293579102 7.638528823852539 C11.00353717803955 6.361420154571533 11.357780456542969 5.122178554534912 11.712023735046387 3.882936477661133"></path></svg>