<svg xmlns="http://www.w3.org/2000/svg" viewBox="0.0 0.0 24.0 24.0" height="200px" width="200px"><path fill="none" stroke="black" stroke-width=".3" stroke-opacity="1.0"  filling="0" d="M14.154219627380371 2.479034423828125 C16.699871063232422 2.171441078186035 18.91390037536621 2.8208045959472656 20.614208221435547 5.010802268981934 C21.079872131347656 4.248762607574463 21.490528106689453 3.576970100402832 21.900651931762695 2.9057130813598633 C22.103578567504883 2.9772701263427734 22.30596923828125 3.0488290786743164 22.508895874023438 3.1198530197143555 C22.16872787475586 4.654613971710205 21.82909393310547 6.188841342926025 21.366100311279297 8.279513359069824 C20.751983642578125 7.411203384399414 20.44866371154785 7.055549144744873 20.22597885131836 6.6550374031066895 C18.80389404296875 4.0965681076049805 16.922557830810547 3.16898250579834 14.041007995605469 3.6335763931274414 C9.773688316345215 4.320854663848877 6.23797082901001 7.816521167755127 5.49942684173584 12.076898574829102 C4.950992584228516 15.242010116577148 6.099126815795898 18.268810272216797 8.343594551086426 19.575016021728516 C10.863615036010742 21.04142189025879 13.940078735351562 20.714069366455078 16.56262969970703 18.7061710357666 C17.31292152404785 18.13157081604004 18.071224212646484 17.56764793395996 18.833797454833984 17.009069442749023 C18.857830047607422 16.991979598999023 18.969974517822266 17.095577239990234 19.344318389892578 17.34656524658203 C17.72464942932129 20.041208267211914 15.247350692749023 21.306825637817383 12.291573524475098 21.571163177490234 C7.251532077789307 22.021339416503906 3.582310676574707 18.219680786132812 3.973210334777832 13.156678199768066 C4.402024745941162 7.604517459869385 8.63943862915039 3.14601993560791 14.154219627380371 2.479034423828125"></path></svg>