<svg xmlns="http://www.w3.org/2000/svg" viewBox="0.0 0.0 24.0 24.0" height="200px" width="200px"><path fill="none" stroke="black" stroke-width=".3" stroke-opacity="1.0"  filling="0" d="M17.790483474731445 7.06870174407959 L17.790483474731445 7.06870174407959 C16.72920036315918 7.908456325531006 15.667913436889648 8.748205184936523 14.606614112854004 9.587940216064453 C13.545315742492676 10.427674293518066 12.48400592803955 11.26739501953125 11.422677993774414 12.10709285736084 L11.422677993774414 12.10709285736084 C12.951849937438965 13.938498497009277 14.206372261047363 15.773741722106934 16.061420440673828 17.298866271972656 L16.061420440673828 17.298866271972656 C15.01616096496582 17.41572380065918 13.939725875854492 17.365266799926758 12.909445762634277 17.15373420715332 L12.909445762634277 17.15373420715332 C13.219061851501465 16.98375129699707 13.528677940368652 16.813766479492188 13.83829402923584 16.643783569335938 L13.83829402923584 16.643783569335938 C12.699140548706055 15.131545066833496 11.559967041015625 13.6193265914917 10.420804977416992 12.107093811035156 L10.420804977416992 12.107093811035156 C12.121292114257812 10.711023330688477 13.821744918823242 9.314908027648926 15.522135734558105 7.9187211990356445 L15.522135734558105 7.9187211990356445 C15.04915714263916 7.755256175994873 14.576177597045898 7.591791152954102 14.103199005126953 7.42832612991333 L14.103199005126953 7.42832612991333 C15.318033218383789 7.206463813781738 16.555631637573242 7.0823445320129395 17.790483474731445 7.06870174407959 L17.790483474731445 7.06870174407959"></path>
<path fill="none" stroke="black" stroke-width=".3" stroke-opacity="1.0"  filling="0" d="M9.403655052185059 7.256304740905762 L9.403655052185059 7.256304740905762 C10.375279426574707 7.256304740905762 11.346902847290039 7.256304740905762 12.318527221679688 7.256304740905762 L12.318527221679688 7.256304740905762 C12.341238975524902 7.315885543823242 12.363951683044434 7.3754658699035645 12.386663436889648 7.435046672821045 L12.386663436889648 7.435046672821045 C11.993022918701172 7.602178573608398 11.599383354187012 7.769309997558594 11.205742835998535 7.936441898345947 L11.205742835998535 7.936441898345947 C10.874407768249512 9.379195213317871 10.543105125427246 10.821955680847168 10.211843490600586 12.264724731445312 C9.880582809448242 13.707493782043457 9.549362182617188 15.150272369384766 9.218191146850586 16.593063354492188 L9.218191146850586 16.593063354492188 C9.517826080322266 16.761518478393555 9.817461013793945 16.929975509643555 10.117095947265625 17.098430633544922 L10.117095947265625 17.098430633544922 C10.102124214172363 17.17746353149414 10.087153434753418 17.256498336791992 10.072181701660156 17.33553123474121 L10.072181701660156 17.33553123474121 C9.045050621032715 17.33553123474121 8.017919540405273 17.33553123474121 6.990787982940674 17.33553123474121 L6.990787982940674 17.33553123474121 C7.4513421058654785 17.09720802307129 7.911895751953125 16.85888671875 8.37244987487793 16.620563507080078 L8.37244987487793 16.620563507080078 C8.702592849731445 15.179259300231934 9.032771110534668 13.73796272277832 9.36296558380127 12.296670913696289 C9.693161010742188 10.855378150939941 10.023372650146484 9.414090156555176 10.353586196899414 7.972801685333252 L10.353586196899414 7.972801685333252 C10.025026321411133 7.815854549407959 9.696466445922852 7.658907890319824 9.36790657043457 7.501960754394531 L9.36790657043457 7.501960754394531 C9.379822731018066 7.420075416564941 9.391738891601562 7.338190078735352 9.403655052185059 7.256304740905762 L9.403655052185059 7.256304740905762"></path></svg>