<svg xmlns="http://www.w3.org/2000/svg" viewBox="0.0 0.0 24.0 24.0" height="200px" width="200px"><path fill="none" stroke="black" stroke-width=".3" stroke-opacity="1.0"  filling="0" d="M9.230985641479492 3.2370967864990234 C11.170713424682617 3.2370967864990234 13.110440254211426 3.2370967864990234 15.050745964050293 3.2370967864990234 C15.08140754699707 3.394449234008789 15.112646102905273 3.5523815155029297 15.14330768585205 3.7097349166870117 C14.40976333618164 3.9503936767578125 13.675641059875488 4.191051483154297 12.717058181762695 4.505757808685303 C11.47385025024414 9.960481643676758 10.204031944274902 15.532641410827637 8.882726669311523 21.329261779785156 C11.768888473510742 21.329261779785156 14.240839958190918 21.329261779785156 16.803037643432617 21.329261779785156 C17.96988296508789 19.20499038696289 17.539474487304688 16.427587509155273 19.076562881469727 14.492488861083984 C19.35887336730957 14.583892822265625 19.641183853149414 14.67529582977295 19.923494338989258 14.766700744628906 C19.366971969604492 17.3074951171875 18.809871673583984 19.84828758239746 18.242937088012695 22.437097549438477 C13.72076416015625 22.437097549438477 9.38833999633789 22.437097549438477 5.05649471282959 22.437097549438477 C5.043188571929932 22.214372634887695 5.029882907867432 21.991649627685547 5.01715612411499 21.76834487915039 C5.716568470001221 21.584957122802734 6.415980815887451 21.401575088500977 7.278532028198242 21.175376892089844 C8.543722152709961 15.717181205749512 9.818168640136719 10.217914581298828 11.105920791625977 4.661374568939209 C10.324938774108887 4.292868137359619 9.716351509094238 4.0053510665893555 9.10776424407959 3.71783447265625 C9.14883804321289 3.5575876235961914 9.189912796020508 3.3973426818847656 9.230985641479492 3.2370967864990234"></path></svg>