<svg xmlns="http://www.w3.org/2000/svg" viewBox="0.0 0.0 24.0 24.0" height="200px" width="200px"><path fill="none" stroke="black" stroke-width=".3" stroke-opacity="1.0"  filling="0" d="M13.683490753173828 6.939238548278809 L13.683490753173828 6.939238548278809 C16.016353607177734 7.50071382522583 18.07784080505371 10.007458686828613 15.778861045837402 12.262785911560059 C14.538077354431152 13.480010032653809 12.31727409362793 13.3604736328125 10.745782852172852 13.520462989807129 L10.745782852172852 13.520462989807129 C10.709126472473145 13.67068099975586 9.912989616394043 16.93291664123535 9.902349472045898 16.976512908935547 L9.902349472045898 16.976512908935547 C10.29871654510498 17.133859634399414 10.695084571838379 17.29120635986328 11.091451644897461 17.44855308532715 L11.091451644897461 17.44855308532715 C11.071944236755371 17.538694381713867 11.052436828613281 17.62883758544922 11.032929420471191 17.718978881835938 L11.032929420471191 17.718978881835938 C9.971054077148438 17.718978881835938 8.9091796875 17.718978881835938 7.847304344177246 17.718978881835938 L7.847304344177246 17.718978881835938 C7.818686008453369 17.63805389404297 7.79006814956665 17.557130813598633 7.761449813842773 17.476205825805664 L7.761449813842773 17.476205825805664 C8.187722206115723 17.309534072875977 8.613993644714355 17.142864227294922 9.040266036987305 16.976192474365234 L9.040266036987305 16.976192474365234 C9.39040470123291 15.453374862670898 9.740499496459961 13.930548667907715 10.09060001373291 12.407724380493164 C10.44070053100586 10.884899139404297 10.790807723999023 9.362075805664062 11.140972137451172 7.839264392852783 L11.140972137451172 7.839264392852783 C10.78801441192627 7.6673407554626465 10.43505573272705 7.495416641235352 10.082098007202148 7.323493003845215 L10.082098007202148 7.323493003845215 C10.93142318725586 6.5644941329956055 12.608503341674805 6.930515766143799 13.683490753173828 6.939238548278809 L13.683490753173828 6.939238548278809"></path>
<path fill="none" stroke="black" stroke-width=".3" stroke-opacity="1.0"  filling="0" d="M12.07443904876709 7.5955281257629395 L12.07443904876709 7.5955281257629395 C14.08114242553711 7.603591442108154 17.16779136657715 8.49531078338623 15.526632308959961 11.307294845581055 C14.617982864379883 12.864187240600586 12.377703666687012 12.671161651611328 10.891124725341797 12.809830665588379 L10.891124725341797 12.809830665588379 C11.285553932189941 11.07172966003418 11.679988861083984 9.333624839782715 12.07443904876709 7.5955281257629395 L12.07443904876709 7.5955281257629395"></path></svg>