<svg xmlns="http://www.w3.org/2000/svg" viewBox="0.0 0.0 24.0 24.0" height="200px" width="200px"><path fill="none" stroke="black" stroke-width=".3" stroke-opacity="1.0"  filling="0" d="M11.76080322265625 9.646696090698242 L11.76080322265625 9.646696090698242 C12.414593696594238 9.711701393127441 13.094206809997559 9.648517608642578 13.722174644470215 9.841712951660156 C15.617767333984375 10.424894332885742 16.484699249267578 11.634307861328125 16.81553077697754 13.084243774414062 C17.1463623046875 14.5341796875 16.941089630126953 16.22463607788086 16.69227409362793 17.76990509033203 L16.69227409362793 17.76990509033203 C17.12676239013672 18.3698787689209 17.561229705810547 18.969867706298828 17.995689392089844 19.569862365722656 L17.995689392089844 19.569862365722656 C16.70842170715332 19.614763259887695 15.422597885131836 19.395898818969727 14.148066520690918 19.45072364807129 C12.626667976379395 19.51616668701172 11.430529594421387 19.946083068847656 9.949101448059082 19.199073791503906 C8.424385070800781 18.43023681640625 7.505496978759766 16.952558517456055 7.2824554443359375 15.378704071044922 C7.059413909912109 13.804849624633789 7.532219409942627 12.134819984436035 8.79089069366455 10.981281280517578 C9.885855674743652 9.977775573730469 10.365553855895996 10.028862953186035 11.76080322265625 9.646696090698242 L11.76080322265625 9.646696090698242"></path>
<path fill="none" stroke="black" stroke-width=".3" stroke-opacity="1.0"  filling="0" d="M12.151881217956543 13.440438270568848 L12.151881217956543 13.440438270568848 C12.493602752685547 13.731664657592773 13.159939765930176 13.865459442138672 13.177045822143555 14.314117431640625 C13.242243766784668 16.024118423461914 11.338743209838867 15.41415786743164 11.304502487182617 14.516098976135254 C11.28711223602295 14.059983253479004 11.86942195892334 13.798992156982422 12.151881217956543 13.440438270568848 L12.151881217956543 13.440438270568848"></path></svg>