<svg xmlns="http://www.w3.org/2000/svg" viewBox="0.0 0.0 24.0 24.0" height="200px" width="200px"><path fill="none" stroke="black" stroke-width=".3" stroke-opacity="1.0"  filling="0" d="M13.0552396774292 7.542320728302002 C15.502034187316895 7.537315845489502 17.950328826904297 8.060807228088379 20.70391273498535 8.394119262695312 C20.302536010742188 9.75439453125 20.051300048828125 10.685768127441406 19.750019073486328 11.600625991821289 C19.466251373291016 12.462433815002441 19.129436492919922 13.307225227355957 18.75208282470703 14.332686424255371 C16.891338348388672 13.025461196899414 15.294340133666992 11.026086807250977 12.23747444152832 12.714670181274414 C13.168848037719727 13.426337242126465 13.715360641479492 13.976852416992188 14.370975494384766 14.315170288085938 C15.476011276245117 14.88570499420166 16.65511703491211 15.311103820800781 17.794185638427734 15.81707763671875 C19.90066146850586 16.75295639038086 21.077762603759766 18.372974395751953 21.046234130859375 20.686641693115234 C21.0122013092041 23.181482315063477 19.779043197631836 24.99418067932129 17.422836303710938 25.852989196777344 C13.86400032043457 27.15070343017578 10.215078353881836 26.82339859008789 6.587177753448486 26.167282104492188 C5.634284496307373 25.995119094848633 4.7199273109436035 25.612260818481445 3.626901626586914 25.276947021484375 C4.26950216293335 23.27707290649414 4.8500471115112305 21.472381591796875 5.549201965332031 19.29984474182129 C7.438473224639893 20.988929748535156 9.055990219116211 22.83415985107422 12.199437141418457 21.177104949951172 C11.108915328979492 20.396873474121094 10.450798034667969 19.845855712890625 9.718610763549805 19.42245864868164 C8.858804702758789 18.925495147705078 7.913919448852539 18.577667236328125 7.043603420257568 18.097217559814453 C5.1998748779296875 17.079261779785156 4.2509846687316895 15.485267639160156 4.379105091094971 13.3807954788208 C4.509727954864502 11.242289543151855 5.434595584869385 9.401063919067383 7.493025302886963 8.651361465454102 C9.256678581237793 8.009259223937988 11.193994522094727 7.5458245277404785 13.0552396774292 7.542320728302002"></path></svg>