<svg xmlns="http://www.w3.org/2000/svg" viewBox="0.0 0.0 24.0 24.0" height="200px" width="200px"><path fill="none" stroke="black" stroke-width=".3" stroke-opacity="1.0"  filling="0" d="M16.299009323120117 3.963132858276367 C17.909955978393555 3.963132858276367 19.54034423828125 3.963132858276367 21.579509735107422 3.963132858276367 C17.64041519165039 6.0070271492004395 15.779367446899414 9.625615119934082 12.744524955749512 12.456067085266113 C14.533589363098145 15.243435859680176 14.158961296081543 19.032785415649414 17.811702728271484 21.30681610107422 C15.791452407836914 21.30681610107422 14.207301139831543 21.30681610107422 11.997900009155273 21.30681610107422 C12.964152336120605 20.76563262939453 13.519523620605469 20.454578399658203 14.20625114440918 20.069971084594727 C13.452269554138184 18.089649200439453 12.681473731994629 16.065723419189453 11.77564525604248 13.6871337890625 C9.704954147338867 15.922808647155762 7.8470587730407715 17.928346633911133 5.851503372192383 20.08258056640625 C6.376400947570801 20.408344268798828 6.799891471862793 20.671579360961914 7.223382472991943 20.934818267822266 C7.1965861320495605 21.06564712524414 7.169788837432861 21.197002410888672 7.1429924964904785 21.327835083007812 C5.615063190460205 21.327835083007812 4.087658405303955 21.327835083007812 2.379509925842285 21.327835083007812 C6.106858730316162 18.97919464111328 8.26687240600586 15.393183708190918 11.200307846069336 12.432950973510742 C10.352800369262695 10.22354793548584 9.638751029968262 8.06826400756836 8.68353271484375 6.02541971206665 C8.343583106994629 5.2977070808410645 7.419889450073242 4.843741416931152 6.639111042022705 4.155962944030762 C8.171243667602539 3.193387985229492 9.853121757507324 3.988353729248047 11.611186981201172 4.140725612640381 C11.127272605895996 4.482775688171387 10.64335823059082 4.825352191925049 10.017580032348633 5.267757415771484 C10.713239669799805 7.064703464508057 11.429390907287598 8.913667678833008 12.30632209777832 11.178764343261719 C14.267724990844727 9.04081916809082 15.992162704467773 7.160856246948242 17.78595542907715 5.2057576179504395 C17.14809226989746 4.882096767425537 16.72144889831543 4.670877933502197 16.303213119506836 4.443894863128662 C16.271162033081055 4.426555633544922 16.299009323120117 4.2983527183532715 16.299009323120117 3.963132858276367"></path></svg>