<svg xmlns="http://www.w3.org/2000/svg" viewBox="0.0 0.0 24.0 24.0" height="200px" width="200px"><path fill="none" stroke="black" stroke-width=".3" stroke-opacity="1.0"  filling="0" d="M3.5331649780273438 7.6457390785217285 C6.082330703735352 7.6457390785217285 8.477316856384277 7.6457390785217285 11.06190299987793 7.6457390785217285 C11.141596794128418 9.020330429077148 11.21504020690918 10.286580085754395 11.298379898071289 11.722112655639648 C12.47191333770752 11.636167526245117 13.56471061706543 11.42885971069336 14.63875675201416 11.499698638916016 C18.521366119384766 11.757010459899902 21.23252296447754 14.439000129699707 21.634119033813477 18.297128677368164 C22.022171020507812 22.02972412109375 19.790218353271484 25.350826263427734 16.151378631591797 26.413414001464844 C15.4888277053833 26.606658935546875 14.798666000366211 26.812923431396484 14.11892318725586 26.82073974609375 C10.657703399658203 26.861888885498047 7.195442199707031 26.839488983154297 3.5331649780273438 26.839488983154297 C3.5331649780273438 20.460845947265625 3.5331649780273438 14.182729721069336 3.5331649780273438 7.6457390785217285"></path>
<path fill="none" stroke="black" stroke-width=".3" stroke-opacity="1.0"  filling="0" d="M11.312444686889648 17.79708480834961 C12.997998237609863 17.26527214050293 13.920989990234375 17.72208023071289 14.055376052856445 19.299814224243164 C14.173093795776367 20.681175231933594 13.501164436340332 21.083812713623047 11.312444686889648 21.011409759521484 C11.312444686889648 20.005077362060547 11.312444686889648 18.99405860900879 11.312444686889648 17.79708480834961"></path></svg>