<svg xmlns="http://www.w3.org/2000/svg" viewBox="0.0 0.0 24.0 24.0" height="200px" width="200px"><path fill="none" stroke="black" stroke-width=".3" stroke-opacity="1.0"  filling="0" d="M9.845569610595703 8.430872917175293 L9.845569610595703 8.430872917175293 C11.687561988830566 8.405189514160156 13.811051368713379 8.133031845092773 15.618765830993652 8.59794807434082 C18.518007278442383 9.343588829040527 17.94266700744629 12.377906799316406 15.930215835571289 13.714344024658203 L15.930215835571289 13.714344024658203 C16.35191535949707 14.1343412399292 16.94899559020996 14.43252944946289 17.195316314697266 14.974336624145508 C17.71785545349121 16.123714447021484 17.175148010253906 17.64695930480957 16.274734497070312 18.41830825805664 C15.331829071044922 19.226058959960938 13.736054420471191 19.413116455078125 12.091447830200195 19.396137237548828 C10.4468412399292 19.37915802001953 8.753402709960938 19.158143997192383 7.615167140960693 19.149757385253906 L7.615167140960693 19.149757385253906 C7.986903190612793 17.363277435302734 8.358638763427734 15.576796531677246 8.73037338256836 13.790316581726074 C9.102107048034668 12.003835678100586 9.47383975982666 10.217354774475098 9.845569610595703 8.430872917175293 L9.845569610595703 8.430872917175293"></path>
<path fill="none" stroke="black" stroke-width=".3" stroke-opacity="1.0"  filling="0" d="M11.695510864257812 10.247822761535645 L11.695510864257812 10.247822761535645 C12.70280933380127 10.222729682922363 17.63768768310547 10.426502227783203 14.605414390563965 12.66134262084961 C14.423118591308594 12.795698165893555 11.222757339477539 13.073182106018066 11.143433570861816 13.08084774017334 L11.143433570861816 13.08084774017334 C11.235499382019043 12.608637809753418 11.596776008605957 10.75475788116455 11.695510864257812 10.247822761535645 L11.695510864257812 10.247822761535645"></path>
<path fill="none" stroke="black" stroke-width=".3" stroke-opacity="1.0"  filling="0" d="M10.73875904083252 14.791255950927734 L10.73875904083252 14.791255950927734 C10.746614456176758 14.791211128234863 13.658705711364746 14.765026092529297 13.745820999145508 14.800033569335938 C15.253325462341309 15.405830383300781 15.806168556213379 16.344846725463867 14.000066757202148 17.3091983795166 C13.80423641204834 17.413759231567383 10.350031852722168 17.555665969848633 10.239347457885742 17.561023712158203 L10.239347457885742 17.561023712158203 C10.405887603759766 16.637779235839844 10.572359085083008 15.714524269104004 10.73875904083252 14.791255950927734 L10.73875904083252 14.791255950927734"></path></svg>