<svg xmlns="http://www.w3.org/2000/svg" viewBox="0.0 0.0 24.0 24.0" height="200px" width="200px"><path fill="none" stroke="black" stroke-width=".3" stroke-opacity="1.0"  filling="0" d="M12.853959083557129 9.843819618225098 L12.853959083557129 9.843819618225098 C14.258662223815918 9.843819618225098 15.66336441040039 9.843819618225098 17.06806755065918 9.843819618225098 L17.06806755065918 9.843819618225098 C17.06806755065918 11.634586334228516 17.06806755065918 13.425354957580566 17.06806755065918 15.216123580932617 C17.06806755065918 17.00689125061035 17.06806755065918 18.797658920288086 17.06806755065918 20.588424682617188 L17.06806755065918 20.588424682617188 C15.751460075378418 20.591758728027344 14.153090476989746 20.771102905273438 12.60417366027832 20.725921630859375 C11.055257797241211 20.680740356445312 9.555793762207031 20.411029815673828 8.43699836730957 19.516252517700195 C7.389142036437988 18.67820930480957 6.909876823425293 17.38033676147461 6.958598613739014 16.096134185791016 C7.007320880889893 14.811931610107422 7.5840301513671875 13.541399002075195 8.648123741149902 12.758037567138672 C9.894692420959473 11.840341567993164 11.28695011138916 11.975760459899902 12.721885681152344 12.11764144897461 L12.721885681152344 12.11764144897461 C12.765912055969238 11.359701156616211 12.8099365234375 10.601759910583496 12.853959083557129 9.843819618225098 L12.853959083557129 9.843819618225098"></path>
<path fill="none" stroke="black" stroke-width=".3" stroke-opacity="1.0"  filling="0" d="M12.709348678588867 15.496158599853516 L12.709348678588867 15.496158599853516 C12.709348678588867 16.11842918395996 12.709348678588867 16.74070167541504 12.709348678588867 17.362972259521484 L12.709348678588867 17.362972259521484 C10.870196342468262 17.223840713500977 10.76443099975586 15.566895484924316 12.709348678588867 15.496158599853516 L12.709348678588867 15.496158599853516"></path></svg>