<svg xmlns="http://www.w3.org/2000/svg" viewBox="0.0 0.0 24.0 24.0" height="200px" width="200px"><path fill="none" stroke="black" stroke-width=".3" stroke-opacity="1.0"  filling="0" d="M15.389171600341797 8.544283866882324 L15.389171600341797 8.544283866882324 C15.931594848632812 8.544283866882324 16.474018096923828 8.544283866882324 17.016441345214844 8.544283866882324 L17.016441345214844 8.544283866882324 C17.036056518554688 8.626849174499512 17.0556697845459 8.709413528442383 17.075284957885742 8.79197883605957 L17.075284957885742 8.79197883605957 C16.666669845581055 8.959573745727539 16.258056640625 9.127167701721191 15.849441528320312 9.29476261138916 L15.849441528320312 9.29476261138916 C15.56212043762207 10.575740814208984 15.3757905960083 12.21231460571289 15.041874885559082 13.787515640258789 C14.707959175109863 15.362717628479004 14.226457595825195 16.876548767089844 13.348791122436523 17.91204071044922 C11.829084396362305 19.705028533935547 8.893021583557129 19.744346618652344 7.579381942749023 17.8112850189209 L7.579381942749023 17.8112850189209 C9.07115364074707 18.342247009277344 10.350448608398438 18.578996658325195 11.376449584960938 18.26517677307129 C12.40245246887207 17.951358795166016 13.175161361694336 17.086973190307617 13.653765678405762 15.415668487548828 L13.653765678405762 15.415668487548828 C12.418375015258789 15.881251335144043 11.536396980285645 16.448684692382812 10.137334823608398 15.991238594055176 C8.777522087097168 15.546627044677734 8.189064025878906 14.368575096130371 8.151156425476074 13.098426818847656 C8.113248825073242 11.828279495239258 8.625890731811523 10.466033935546875 9.468278884887695 9.653035163879395 C11.263768196105957 7.920185089111328 13.044318199157715 8.4052152633667 14.850958824157715 9.6034574508667 L14.850958824157715 9.6034574508667 C15.030363082885742 9.250399589538574 15.20976734161377 8.89734172821045 15.389171600341797 8.544283866882324 L15.389171600341797 8.544283866882324"></path>
<path fill="none" stroke="black" stroke-width=".3" stroke-opacity="1.0"  filling="0" d="M12.217194557189941 9.0975923538208 L12.217194557189941 9.0975923538208 C13.27447509765625 9.373926162719727 14.038276672363281 9.265182495117188 14.446747779846191 10.494511604309082 C15.137845993041992 12.574432373046875 13.612970352172852 15.625849723815918 11.20176887512207 15.502159118652344 C8.572588920593262 15.367286682128906 8.437500953674316 12.303940773010254 9.589171409606934 10.60818099975586 C10.44141674041748 9.353303909301758 10.886846542358398 9.471899032592773 12.217194557189941 9.0975923538208 L12.217194557189941 9.0975923538208"></path></svg>