<svg xmlns="http://www.w3.org/2000/svg" viewBox="0.0 0.0 24.0 24.0" height="200px" width="200px"><path fill="none" stroke="black" stroke-width=".3" stroke-opacity="1.0"  filling="0" d="M3.604527473449707 7.761969089508057 C6.0324811935424805 7.761969089508057 8.508207321166992 7.761969089508057 11.285261154174805 7.761969089508057 C11.285261154174805 9.512195587158203 11.285261154174805 11.21570110321045 11.285261154174805 12.502385139465332 C13.53997802734375 12.227304458618164 15.566861152648926 11.658244132995605 17.53232192993164 11.8236083984375 C19.848983764648438 12.01889419555664 21.316781997680664 13.721874237060547 21.428598403930664 16.07895851135254 C21.596588134765625 19.634540557861328 21.471649169921875 23.204288482666016 21.471649169921875 26.961971282958984 C18.910350799560547 26.961971282958984 16.667184829711914 26.961971282958984 14.108514785766602 26.961971282958984 C14.108514785766602 25.23064422607422 14.110613822937012 23.598007202148438 14.107989311218262 21.96537208557129 C14.105890274047852 20.82935333251953 14.098540306091309 19.693857192993164 14.090665817260742 18.557836532592773 C14.0833158493042 17.4559383392334 13.990922927856445 16.289470672607422 12.545698165893555 16.31729507446289 C11.148246765136719 16.344593048095703 11.335658073425293 17.537832260131836 11.33198356628418 18.478567123413086 C11.3204345703125 21.2519474029541 11.327783584594727 24.025325775146484 11.327783584594727 26.93309783935547 C8.635248184204102 26.93309783935547 6.225142478942871 26.93309783935547 3.604527473449707 26.93309783935547 C3.604527473449707 20.603092193603516 3.604527473449707 14.283061027526855 3.604527473449707 7.761969089508057"></path></svg>