<svg xmlns="http://www.w3.org/2000/svg" viewBox="0.0 0.0 24.0 24.0" height="200px" width="200px"><path fill="none" stroke="black" stroke-width=".3" stroke-opacity="1.0"  filling="0" d="M2.7914085388183594 11.92541217803955 C4.7189741134643555 12.342039108276367 6.683478832244873 11.24879264831543 8.446595191955566 12.770742416381836 C11.051135063171387 11.38766860961914 12.275443077087402 11.50310230255127 14.712337493896484 13.510583877563477 C15.936999320983887 12.43545150756836 17.29947280883789 11.665775299072266 19.033109664916992 11.95240592956543 C20.72057342529297 12.231222152709961 21.820568084716797 13.14616870880127 21.917177200317383 14.821200370788574 C22.05889320373535 17.27940559387207 21.953760147094727 19.752172470092773 21.953760147094727 22.307342529296875 C20.29755401611328 22.307342529296875 18.73440170288086 22.307342529296875 16.9901123046875 22.307342529296875 C16.9901123046875 20.640125274658203 16.99188804626465 19.05850601196289 16.98904800415039 17.476530075073242 C16.98798179626465 17.003429412841797 17.098796844482422 16.478473663330078 16.93008804321289 16.072147369384766 C16.759244918823242 15.660845756530762 16.347946166992188 15.144060134887695 15.966836929321289 15.072312355041504 C15.370843887329102 14.960430145263672 15.059350967407227 15.458038330078125 15.067519187927246 16.099140167236328 C15.08208179473877 17.222930908203125 15.067519187927246 18.346721649169922 15.0660982131958 19.470870971679688 C15.065032958984375 20.35171890258789 15.065743446350098 21.232566833496094 15.065743446350098 22.256906509399414 C13.354127883911133 22.256906509399414 11.752263069152832 22.256906509399414 9.929830551147461 22.256906509399414 C9.929830551147461 20.264698028564453 9.978490829467773 18.3247013092041 9.913493156433105 16.388965606689453 C9.86732006072998 15.01441764831543 9.5078763961792 14.860979080200195 8.037428855895996 15.481124877929688 C8.037428855895996 17.669748306274414 8.037428855895996 19.90596580505371 8.037428855895996 22.269336700439453 C6.256198406219482 22.269336700439453 4.581521511077881 22.269336700439453 2.791055679321289 22.269336700439453 C2.7914085388183594 18.917144775390625 2.7914085388183594 15.580930709838867 2.7914085388183594 11.92541217803955"></path></svg>