<svg xmlns="http://www.w3.org/2000/svg" viewBox="0.0 0.0 24.0 24.0" height="200px" width="200px"><path fill="none" stroke="black" stroke-width=".3" stroke-opacity="1.0"  filling="0" d="M7.577059268951416 12.057522773742676 C11.948798179626465 10.67002010345459 16.255428314208984 11.050556182861328 20.815540313720703 12.837557792663574 C20.125267028808594 14.371711730957031 19.505786895751953 15.747836112976074 18.890735626220703 17.115110397338867 C15.128992080688477 15.618884086608887 15.128992080688477 15.618884086608887 12.4981107711792 16.33570671081543 C13.293949127197266 17.100574493408203 13.771832466125488 17.82118797302246 14.441878318786621 18.149890899658203 C15.845184326171875 18.838268280029297 17.44697380065918 19.150537490844727 18.794021606445312 19.91982650756836 C22.034900665283203 21.770038604736328 22.41986083984375 25.997024536132812 19.56710433959961 28.393386840820312 C18.63472557067871 29.17658042907715 17.422954559326172 29.858642578125 16.24468421936035 30.07608985900879 C11.812260627746582 30.891529083251953 7.524593353271484 30.227798461914062 3.0024099349975586 28.310583114624023 C3.72113037109375 26.570358276367188 4.276762962341309 25.22457504272461 4.829235553741455 23.887008666992188 C6.513201713562012 24.576019287109375 8.075801849365234 25.366168975830078 9.730690956115723 25.809284210205078 C10.307184219360352 25.963520050048828 11.113136291503906 25.26186752319336 11.814156532287598 24.951499938964844 C11.345124244689941 24.348459243774414 10.994297981262207 23.539344787597656 10.381141662597656 23.18851661682129 C9.395034790039062 22.62529754638672 8.207282066345215 22.4287109375 7.1548027992248535 21.963470458984375 C4.78119421005249 20.91415023803711 3.4354114532470703 18.999462127685547 3.6275758743286133 16.875537872314453 C3.84945011138916 14.409639358520508 5.286257743835449 12.784460067749023 7.577059268951416 12.057522773742676"></path></svg>