<svg xmlns="http://www.w3.org/2000/svg" viewBox="0.0 0.0 24.0 24.0" height="200px" width="200px"><path fill="none" stroke="black" stroke-width=".3" stroke-opacity="1.0"  filling="0" d="M22.443744659423828 6.225694179534912 C21.211585998535156 11.874246597290039 20.05710792541504 17.165918350219727 18.87801742553711 22.56834602355957 C19.80098533630371 22.977527618408203 20.615503311157227 23.338253021240234 21.49308967590332 23.727436065673828 C21.169281005859375 24.158924102783203 21.03929901123047 24.49503517150879 20.89316177368164 24.50196075439453 C19.266433715820312 24.58348846435547 17.414348602294922 25.502609252929688 16.275257110595703 23.235958099365234 C14.82158374786377 23.926645278930664 13.708641052246094 24.58348846435547 12.511861801147461 24.999591827392578 C8.536186218261719 26.381732940673828 5.75575065612793 24.31275177001953 6.239538669586182 20.10940933227539 C6.588727951049805 17.074390411376953 7.477851867675781 14.102439880371094 8.106237411499023 11.098954200744629 C8.28775405883789 10.229827880859375 8.401586532592773 9.346087455749512 8.554645538330078 8.41773796081543 C7.690902233123779 7.96317720413208 6.904842853546143 7.550919532775879 6.118783950805664 7.137892246246338 C6.175699710845947 6.940992832183838 6.232616424560547 6.743324279785156 6.288763523101807 6.546424865722656 C7.7101311683654785 6.546424865722656 9.130729675292969 6.546424865722656 10.935896873474121 6.546424865722656 C10.319047927856445 9.485302925109863 9.729887962341309 12.318038940429688 9.126883506774902 15.147698402404785 C8.913832664489746 16.148347854614258 8.653863906860352 17.138227462768555 8.440043449401855 18.138877868652344 C8.068550109863281 19.8732852935791 7.27018404006958 21.77536392211914 8.953058242797852 23.162120819091797 C10.78053092956543 24.66886329650879 12.565701484680176 23.410552978515625 14.313952445983887 22.644489288330078 C16.59060287475586 21.647686004638672 17.93198013305664 20.061723709106445 18.3057804107666 17.50279998779297 C18.747264862060547 14.478548049926758 19.48333168029785 11.498136520385742 20.111717224121094 8.40389347076416 C19.159523010253906 7.980867385864258 18.350391387939453 7.620911121368408 17.541255950927734 7.2609543800354 C17.575098037719727 6.988678932189941 17.608171463012695 6.717173099517822 17.642013549804688 6.44489860534668 C19.045690536499023 6.3810601234436035 20.44936752319336 6.317221164703369 22.443744659423828 6.225694179534912"></path></svg>