<svg xmlns="http://www.w3.org/2000/svg" viewBox="0.0 0.0 24.0 24.0" height="200px" width="200px"><path fill="none" stroke="black" stroke-width=".3" stroke-opacity="1.0"  filling="0" d="M15.062665939331055 11.973590850830078 L15.062665939331055 11.973590850830078 C15.902267456054688 12.010412216186523 16.743608474731445 12.011296272277832 17.583816528320312 11.992940902709961 L17.583816528320312 11.992940902709961 C16.60213851928711 13.280964851379395 15.620487213134766 14.569003105163574 14.638813018798828 15.857029914855957 L14.638813018798828 15.857029914855957 C15.60694694519043 17.10089111328125 16.575090408325195 18.344741821289062 17.54328727722168 19.588552474975586 L17.54328727722168 19.588552474975586 C16.056880950927734 19.588552474975586 14.57048511505127 19.588552474975586 13.084077835083008 19.588552474975586 L13.084077835083008 19.588552474975586 C12.727424621582031 19.0599365234375 12.370772361755371 18.53131866455078 12.014119148254395 18.002702713012695 L12.014119148254395 18.002702713012695 C11.643694877624512 18.543521881103516 11.273271560668945 19.084341049194336 10.902847290039062 19.625160217285156 L10.902847290039062 19.625160217285156 C9.529838562011719 19.625160217285156 8.156826972961426 19.625160217285156 6.783817768096924 19.625160217285156 L6.783817768096924 19.625160217285156 C7.756117820739746 18.334983825683594 8.728363990783691 17.044769287109375 9.700580596923828 15.754530906677246 L9.700580596923828 15.754530906677246 C8.736729621887207 14.523298263549805 7.7728095054626465 13.292122840881348 6.808919429779053 12.06092357635498 L6.808919429779053 12.06092357635498 C8.284863471984863 12.06092357635498 9.760807037353516 12.06092357635498 11.236751556396484 12.06092357635498 L11.236751556396484 12.06092357635498 C11.56865119934082 12.535938262939453 11.900551795959473 13.010952949523926 12.232451438903809 13.485967636108398 L12.232451438903809 13.485967636108398 C12.788074493408203 13.240253448486328 12.958880424499512 12.459439277648926 13.492602348327637 12.169207572937012 C13.95592975616455 11.917255401611328 14.539311408996582 12.038796424865723 15.062665939331055 11.973590850830078 L15.062665939331055 11.973590850830078"></path></svg>