<svg xmlns="http://www.w3.org/2000/svg" viewBox="0.0 0.0 24.0 24.0" height="200px" width="200px"><path fill="none" stroke="black" stroke-width=".3" stroke-opacity="1.0"  filling="0" d="M14.575589179992676 6.735202789306641 L14.575589179992676 6.735202789306641 C15.826009750366211 7.656894207000732 16.264644622802734 9.019371032714844 16.228538513183594 10.464672088623047 C16.192432403564453 11.909972190856934 15.681585311889648 13.438096046447754 15.033041000366211 14.691081047058105 C14.341290473937988 16.02754020690918 12.984582901000977 17.937294006347656 11.161355972290039 17.25910186767578 C9.260958671569824 16.55220603942871 9.447486877441406 14.237964630126953 9.656883239746094 12.669229507446289 C9.846490859985352 11.248739242553711 10.28085994720459 9.741169929504395 11.06548023223877 8.600753784179688 C11.850101470947266 7.460338115692139 12.984973907470703 6.687076568603516 14.575589179992676 6.735202789306641 L14.575589179992676 6.735202789306641"></path>
<path fill="none" stroke="black" stroke-width=".3" stroke-opacity="1.0"  filling="0" d="M14.154093742370605 7.304191589355469 L14.154093742370605 7.304191589355469 C15.23564624786377 8.181952476501465 15.486626625061035 8.61584186553955 15.4965238571167 10.022627830505371 L15.4965238571167 10.022627830505371 C15.575966835021973 10.04850959777832 15.65540885925293 10.074390411376953 15.734851837158203 10.100272178649902 L15.734851837158203 10.100272178649902 C15.591715812683105 10.540536880493164 14.812569618225098 12.946121215820312 14.65871810913086 13.383190155029297 C14.249956130981445 14.544419288635254 12.137350082397461 18.769990921020508 10.569283485412598 15.860610961914062 C9.839969635009766 14.507448196411133 9.994775772094727 12.483078002929688 10.702608108520508 10.739631652832031 C11.410441398620605 8.996185302734375 12.671300888061523 7.533661842346191 14.154093742370605 7.304191589355469 L14.154093742370605 7.304191589355469"></path></svg>