<svg xmlns="http://www.w3.org/2000/svg" viewBox="0.0 0.0 24.0 24.0" height="200px" width="200px"><path fill="none" stroke="black" stroke-width=".3" stroke-opacity="1.0"  filling="0" d="M6.498225212097168 8.11225700378418 C11.274096488952637 8.11225700378418 15.950887680053711 8.11225700378418 20.840213775634766 8.11225700378418 C20.840213775634766 9.073797225952148 20.840213775634766 10.028149604797363 20.840213775634766 11.270502090454102 C18.65377426147461 11.270502090454102 16.552555084228516 11.270502090454102 14.34609603881836 11.270502090454102 C14.123806953430176 12.224854469299316 13.959015846252441 12.934844017028809 13.765989303588867 13.762394905090332 C14.295272827148438 13.930779457092285 14.674653053283691 14.087870597839355 15.069947242736816 14.170522689819336 C17.749217987060547 14.731636047363281 19.61018180847168 16.204490661621094 20.061946868896484 18.989004135131836 C20.52654457092285 21.85000991821289 19.561410903930664 24.214075088500977 17.127017974853516 25.882522583007812 C13.847102165222168 28.13056755065918 7.751358985900879 27.665966033935547 4.908321857452393 24.91533660888672 C4.322054386138916 24.34857940673828 3.9241933822631836 23.585712432861328 3.309690475463867 22.731975555419922 C5.261005878448486 23.027679443359375 6.742588996887207 23.35264015197754 8.238033294677734 23.435806274414062 C8.953155517578125 23.47533416748047 9.857711791992188 23.245346069335938 10.379294395446777 22.79460906982422 C10.94913387298584 22.30228614807129 11.51794719696045 21.38027572631836 11.454289436340332 20.705196380615234 C11.392684936523438 20.051164627075195 10.578481674194336 19.01004981994629 10.005048751831055 18.945880889892578 C8.037818908691406 18.72667121887207 6.031059265136719 18.861684799194336 3.831787109375 18.861684799194336 C4.68243932723999 15.433924674987793 5.5757012367248535 11.8326416015625 6.498225212097168 8.11225700378418"></path></svg>