<svg xmlns="http://www.w3.org/2000/svg" viewBox="0.0 0.0 24.0 24.0" height="200px" width="200px"><path fill="none" stroke="black" stroke-width=".3" stroke-opacity="1.0"  filling="0" d="M17.049171447753906 9.74367618560791 L17.049171447753906 9.74367618560791 C16.718801498413086 9.961563110351562 14.088690757751465 11.695886611938477 13.73824405670166 11.926933288574219 L13.73824405670166 11.926933288574219 C14.521446228027344 12.224427223205566 15.468920707702637 12.52151107788086 16.13374900817871 13.055718421936035 C18.085649490356445 14.624123573303223 17.784549713134766 17.845762252807617 15.789728164672852 19.243408203125 C14.597358703613281 20.078826904296875 12.964799880981445 20.481943130493164 11.403543472290039 20.36004066467285 C9.842286109924316 20.238140106201172 8.352331161499023 19.591217041015625 7.445167541503906 18.326560974121094 C6.393924713134766 16.861045837402344 6.454992294311523 15.164897918701172 7.117375373840332 13.643707275390625 C7.779757976531982 12.122516632080078 9.043455123901367 10.776285171508789 10.39747142791748 10.010600090026855 C11.999621391296387 9.104598045349121 15.276473045349121 9.741731643676758 17.049171447753906 9.74367618560791 L17.049171447753906 9.74367618560791"></path>
<path fill="none" stroke="black" stroke-width=".3" stroke-opacity="1.0"  filling="0" d="M12.020132064819336 14.680078506469727 L12.020132064819336 14.680078506469727 C12.414698600769043 14.960705757141113 12.809266090393066 15.241332054138184 13.203832626342773 15.52195930480957 L13.203832626342773 15.52195930480957 C12.81226921081543 15.828302383422852 12.526269912719727 16.44669532775879 12.029142379760742 16.440988540649414 C11.598048210144043 16.436038970947266 11.145825386047363 15.929424285888672 11.143619537353516 15.498308181762695 C11.14157485961914 15.09862232208252 11.727961540222168 14.952821731567383 12.020132064819336 14.680078506469727 L12.020132064819336 14.680078506469727"></path></svg>