<svg xmlns="http://www.w3.org/2000/svg" viewBox="0.0 0.0 24.0 24.0" height="200px" width="200px"><path fill="none" stroke="black" stroke-width=".3" stroke-opacity="1.0"  filling="0" d="M12.709518432617188 2.986172676086426 C14.898048400878906 3.0155954360961914 16.90325927734375 3.6436376571655273 17.884363174438477 5.754652976989746 C18.90054702758789 7.940920829772949 18.351152420043945 9.978382110595703 16.56207847595215 11.692203521728516 C16.702964782714844 11.924748420715332 16.78670310974121 12.22292709350586 16.98360252380371 12.364377975463867 C19.057842254638672 13.856405258178711 19.810359954833984 15.8644437789917 19.10480308532715 18.28608512878418 C18.378311157226562 20.77732276916504 16.348772048950195 21.892520904541016 13.988237380981445 22.06169891357422 C11.008145332336426 22.275005340576172 8.001461029052734 22.112619400024414 5.048529624938965 22.112619400024414 C3.9638824462890625 20.010093688964844 5.517580986022949 19.874298095703125 6.89757776260376 19.634395599365234 C6.89757776260376 14.92860221862793 6.89757776260376 10.348417282104492 6.89757776260376 5.635834217071533 C6.198243141174316 5.426486968994141 5.518712520599365 5.222231388092041 4.804101467132568 5.008358001708984 C4.804101467132568 4.367300987243652 4.804101467132568 3.825826644897461 4.804101467132568 3.262850761413574 C5.128873348236084 3.160440444946289 5.38970947265625 3.009370803833008 5.652242183685303 3.007107734680176 C8.004290580749512 2.982213020324707 10.357470512390137 2.9544878005981445 12.709518432617188 2.986172676086426"></path>
<path fill="none" stroke="black" stroke-width=".3" stroke-opacity="1.0"  filling="0" d="M10.09154224395752 5.596228122711182 C11.951339721679688 5.126610279083252 13.737018585205078 5.114162921905518 14.91728687286377 6.657676696777344 C15.391996383666992 7.2783637046813965 15.376153945922852 8.73474407196045 14.972169876098633 9.478776931762695 C13.923734664916992 11.40816879272461 11.983026504516602 10.802759170532227 10.09097671508789 10.857641220092773 C10.09097671508789 9.014251708984375 10.09097671508789 7.388130187988281 10.09154224395752 5.596228122711182"></path>
<path fill="none" stroke="black" stroke-width=".3" stroke-opacity="1.0"  filling="0" d="M10.111346244812012 13.49372386932373 C12.399457931518555 13.086343765258789 14.569883346557617 12.931314468383789 15.828798294067383 14.965946197509766 C16.33745574951172 15.788058280944824 16.26955795288086 17.51602554321289 15.720728874206543 18.331350326538086 C14.453893661499023 20.212648391723633 12.303271293640137 19.823375701904297 10.111345291137695 19.775848388671875 C10.111345291137695 17.429458618164062 10.111345291137695 15.500065803527832 10.111346244812012 13.49372386932373"></path></svg>