<svg xmlns="http://www.w3.org/2000/svg" viewBox="0.0 0.0 24.0 24.0" height="200px" width="200px"><path fill="none" stroke="black" stroke-width=".3" stroke-opacity="1.0"  filling="0" d="M6.770347595214844 6.966731548309326 L6.770347595214844 6.966731548309326 C7.982940196990967 6.949261665344238 9.373552322387695 6.810891151428223 10.744745254516602 6.81414794921875 C12.115938186645508 6.817404747009277 13.467710494995117 6.9622883796691895 14.602625846862793 7.511326313018799 C16.37668800354004 8.3695650100708 17.26601791381836 10.363828659057617 17.261205673217773 12.351240158081055 C17.256393432617188 14.338651657104492 16.357440948486328 16.319210052490234 14.554939270019531 17.150035858154297 C13.415641784667969 17.6751708984375 12.068973541259766 17.812776565551758 10.704492568969727 17.815237045288086 C9.340011596679688 17.817697525024414 7.9577178955078125 17.685012817382812 6.747169017791748 17.669570922851562 L6.747169017791748 17.669570922851562 C6.747169017791748 17.289926528930664 6.747169017791748 16.9102840423584 6.747169017791748 16.5306396484375 L6.747169017791748 16.5306396484375 C7.169253826141357 16.436655044555664 7.591339111328125 16.342668533325195 8.013423919677734 16.24868392944336 L8.013423919677734 16.24868392944336 C8.013423919677734 14.942157745361328 8.013423919677734 13.635631561279297 8.013423919677734 12.329105377197266 C8.013423919677734 11.022578239440918 8.013423919677734 9.716052055358887 8.013423919677734 8.409525871276855 L8.013423919677734 8.409525871276855 C7.59906530380249 8.305804252624512 7.184706211090088 8.202081680297852 6.770347595214844 8.098360061645508 L6.770347595214844 8.098360061645508 C6.770347595214844 7.7211503982543945 6.770347595214844 7.3439412117004395 6.770347595214844 6.966731548309326 L6.770347595214844 6.966731548309326"></path>
<path fill="none" stroke="black" stroke-width=".3" stroke-opacity="1.0"  filling="0" d="M9.773098945617676 8.34634017944336 L9.773098945617676 8.34634017944336 C11.577651023864746 8.24114990234375 13.410451889038086 8.013392448425293 14.734292030334473 9.584653854370117 C16.300569534301758 11.443662643432617 15.727497100830078 14.866509437561035 13.569441795349121 16.0097713470459 C12.599757194519043 16.523475646972656 10.769777297973633 16.373876571655273 9.773098945617676 16.368070602416992 L9.773098945617676 16.368070602416992 C9.773098945617676 15.031115531921387 9.773098945617676 13.694160461425781 9.773098945617676 12.357205390930176 C9.773098945617676 11.02025032043457 9.773098945617676 9.683296203613281 9.773098945617676 8.34634017944336 L9.773098945617676 8.34634017944336"></path></svg>