<svg xmlns="http://www.w3.org/2000/svg" viewBox="0.0 0.0 24.0 24.0" height="200px" width="200px"><path fill="none" stroke="black" stroke-width=".3" stroke-opacity="1.0"  filling="0" d="M9.911386489868164 10.590847969055176 L9.911386489868164 10.590847969055176 C11.574912071228027 10.590847969055176 13.238438606262207 10.590847969055176 14.90196418762207 10.590847969055176 L14.90196418762207 10.590847969055176 C14.90723991394043 10.634562492370605 14.912515640258789 10.678277015686035 14.917791366577148 10.721991539001465 L14.917791366577148 10.721991539001465 C13.357954025268555 10.721991539001465 11.798114776611328 10.721991539001465 10.238277435302734 10.721991539001465 L10.238277435302734 10.721991539001465 C10.238277435302734 12.361614227294922 10.238277435302734 14.001238822937012 10.238277435302734 15.640860557556152 L10.238277435302734 15.640860557556152 C11.703579902648926 15.640860557556152 13.168882369995117 15.640860557556152 14.634184837341309 15.640860557556152 L14.634184837341309 15.640860557556152 C14.634077072143555 15.758545875549316 14.633970260620117 15.876230239868164 14.633862495422363 15.993915557861328 L14.633862495422363 15.993915557861328 C13.172113418579102 15.993915557861328 11.710363388061523 15.993915557861328 10.248613357543945 15.993915557861328 L10.248613357543945 15.993915557861328 C10.248613357543945 17.68069839477539 10.248613357543945 19.367483139038086 10.248613357543945 21.054264068603516 L10.248613357543945 21.054264068603516 C11.815773010253906 21.054264068603516 13.3829345703125 21.054264068603516 14.950093269348145 21.054264068603516 L14.950093269348145 21.054264068603516 C14.96613597869873 21.166458129882812 14.982179641723633 21.27865219116211 14.998222351074219 21.390846252441406 L14.998222351074219 21.390846252441406 C13.302608489990234 21.390846252441406 11.606998443603516 21.390846252441406 9.911386489868164 21.390846252441406 L9.911386489868164 21.390846252441406 C9.911386489868164 19.59084701538086 9.911386489868164 17.790847778320312 9.911386489868164 15.99084758758545 C9.911386489868164 14.190847396850586 9.911386489868164 12.390848159790039 9.911386489868164 10.590847969055176 L9.911386489868164 10.590847969055176"></path></svg>