<svg xmlns="http://www.w3.org/2000/svg" viewBox="0.0 0.0 24.0 24.0" height="200px" width="200px"><path fill="none" stroke="black" stroke-width=".3" stroke-opacity="1.0"  filling="0" d="M10.40292739868164 6.668166637420654 L10.40292739868164 6.668166637420654 C10.510116577148438 6.668166637420654 13.50241756439209 6.668166637420654 13.544618606567383 6.668166637420654 L13.544618606567383 6.668166637420654 C13.577170372009277 6.937044620513916 13.609723091125488 7.2059221267700195 13.642274856567383 7.474800109863281 L13.642274856567383 7.474800109863281 C13.325374603271484 7.5610151290893555 13.00847339630127 7.64723014831543 12.691573143005371 7.733445167541504 L12.691573143005371 7.733445167541504 C12.51078987121582 8.974555969238281 12.590826034545898 10.252660751342773 12.663470268249512 11.528389930725098 C12.736114501953125 12.804120063781738 12.801366806030273 14.077474594116211 12.591015815734863 15.309083938598633 C12.438092231750488 16.204448699951172 12.02199935913086 17.84649658203125 10.544336318969727 17.468406677246094 C10.075084686279297 17.348339080810547 9.961136817932129 16.694889068603516 9.669536590576172 16.308130264282227 L9.669536590576172 16.308130264282227 C10.465211868286133 16.273523330688477 10.8895902633667 16.383705139160156 11.337433815002441 15.19595718383789 C11.553077697753906 14.624035835266113 11.342129707336426 13.973514556884766 11.343287467956543 13.362290382385254 C11.346763610839844 11.527997016906738 11.343212127685547 9.693678855895996 11.342267990112305 7.859383583068848 L11.342267990112305 7.859383583068848 C11.029154777526855 7.462311267852783 10.71604061126709 7.065238952636719 10.40292739868164 6.668166637420654 L10.40292739868164 6.668166637420654"></path></svg>