<svg xmlns="http://www.w3.org/2000/svg" viewBox="0.0 0.0 24.0 24.0" height="200px" width="200px"><path fill="none" stroke="black" stroke-width=".3" stroke-opacity="1.0"  filling="0" d="M2.5373287200927734 2.683342933654785 C4.909374237060547 2.683342933654785 7.1343207359313965 2.683342933654785 9.299015998840332 2.683342933654785 C10.047539710998535 4.332376956939697 9.07646656036377 4.868122100830078 7.606558322906494 5.192717552185059 C9.06452465057373 9.123148918151855 10.457354545593262 12.878796577453613 11.850728988647461 16.633901596069336 C12.040166854858398 16.656156539916992 12.2290620803833 16.67841148376465 12.418499946594238 16.700664520263672 C13.793960571289062 12.960216522216797 15.168878555297852 9.219766616821289 16.607303619384766 5.307790279388428 C15.765960693359375 4.6754255294799805 13.846612930297852 4.667283535003662 14.965328216552734 2.7072248458862305 C16.99866485595703 2.7072248458862305 19.128620147705078 2.7072248458862305 21.34542465209961 2.7072248458862305 C21.77152442932129 3.5284852981567383 22.137916564941406 4.604861259460449 20.819992065429688 4.725906848907471 C19.344655990600586 4.861607074737549 19.10039710998535 5.789799213409424 18.733463287353516 6.793983459472656 C16.970983505249023 11.616781234741211 15.215560913085938 16.442291259765625 13.40965747833252 21.396448135375977 C12.601424217224121 21.45398712158203 11.820331573486328 21.50826644897461 10.800406455993652 21.57937240600586 C8.730701446533203 15.99719524383545 6.75761604309082 10.675561904907227 4.735677242279053 5.222029209136963 C4.047947406768799 5.005993366241455 3.310821533203125 4.774217128753662 2.5373287200927734 4.531041622161865 C2.5373287200927734 3.9241886138916016 2.5373287200927734 3.341218948364258 2.5373287200927734 2.683342933654785"></path></svg>