<svg xmlns="http://www.w3.org/2000/svg" viewBox="0.0 0.0 24.0 24.0" height="200px" width="200px"><path fill="none" stroke="black" stroke-width=".3" stroke-opacity="1.0"  filling="0" d="M8.036469459533691 10.59162712097168 L8.036469459533691 10.59162712097168 C9.448124885559082 10.59162712097168 10.859781265258789 10.59162712097168 12.27143669128418 10.59162712097168 C13.683093070983887 10.59162712097168 15.094749450683594 10.59162712097168 16.506404876708984 10.59162712097168 L16.506404876708984 10.59162712097168 C16.50511360168457 10.675485610961914 16.503820419311523 10.759345054626465 16.50252914428711 10.8432035446167 L16.50252914428711 10.8432035446167 C15.09835433959961 10.8432035446167 13.694180488586426 10.8432035446167 12.290006637573242 10.8432035446167 C10.885832786560059 10.8432035446167 9.481658935546875 10.8432035446167 8.077484130859375 10.8432035446167 L8.077484130859375 10.8432035446167 C8.063812255859375 10.759345054626465 8.050141334533691 10.675485610961914 8.036469459533691 10.59162712097168 L8.036469459533691 10.59162712097168"></path>
<path fill="none" stroke="black" stroke-width=".3" stroke-opacity="1.0"  filling="0" d="M8.047772407531738 20.667579650878906 L8.047772407531738 20.667579650878906 C9.368436813354492 21.13766860961914 10.838638305664062 21.259735107421875 12.328635215759277 21.260650634765625 C13.818632125854492 21.261566162109375 15.328424453735352 21.14133071899414 16.728269577026367 21.126811981201172 L16.728269577026367 21.126811981201172 C16.70577049255371 21.215190887451172 16.683273315429688 21.303571701049805 16.66077423095703 21.391950607299805 L16.66077423095703 21.391950607299805 C15.143622398376465 21.391950607299805 13.626470565795898 21.391950607299805 12.109317779541016 21.391950607299805 C10.592164993286133 21.391950607299805 9.075013160705566 21.391950607299805 7.557861328125 21.391950607299805 L7.557861328125 21.391950607299805 C7.721165180206299 21.150493621826172 7.8844685554504395 20.90903663635254 8.047772407531738 20.667579650878906 L8.047772407531738 20.667579650878906"></path></svg>