<svg xmlns="http://www.w3.org/2000/svg" viewBox="0.0 0.0 24.0 24.0" height="200px" width="200px"><path fill="none" stroke="black" stroke-width=".3" stroke-opacity="1.0"  filling="0" d="M7.6993303298950195 10.196752548217773 C7.790984630584717 10.220741271972656 7.883253574371338 10.244731903076172 7.974907398223877 10.268720626831055 C7.974907398223877 12.398295402526855 7.452663898468018 14.70994758605957 8.112696647644043 16.61008071899414 C8.866229057312012 18.779022216796875 7.899862289428711 20.574581146240234 7.949072360992432 22.534997940063477 C8.002588272094727 24.667648315429688 7.961374759674072 26.802757263183594 7.6993303298950195 28.9378662109375 C7.6993303298950195 22.690624237060547 7.6993303298950195 16.44338035583496 7.6993303298950195 10.196752548217773"></path>
<path fill="none" stroke="black" stroke-width=".3" stroke-opacity="1.0"  filling="0" d="M18.214948654174805 21.20201301574707 C18.214948654174805 23.932567596435547 18.214948654174805 26.663124084472656 18.214948654174805 29.3936767578125 C18.12883186340332 29.3942928314209 18.042713165283203 29.39552116394043 17.957210540771484 29.396137237548828 C17.957210540771484 26.68280792236328 17.957210540771484 23.96886444091797 17.957210540771484 21.25552749633789 C18.0433292388916 21.238306045532227 18.12883186340332 21.22046661376953 18.214948654174805 21.20201301574707"></path></svg>