<svg xmlns="http://www.w3.org/2000/svg" viewBox="0.0 0.0 24.0 24.0" height="200px" width="200px"><path fill="none" stroke="black" stroke-width=".3" stroke-opacity="1.0"  filling="0" d="M8.104290962219238 7.0039801597595215 L8.104290962219238 7.0039801597595215 C9.009275436401367 7.0039801597595215 9.914259910583496 7.0039801597595215 10.819244384765625 7.0039801597595215 L10.819244384765625 7.0039801597595215 C10.819244384765625 9.23829460144043 10.819244384765625 11.472606658935547 10.819244384765625 13.706920623779297 L10.819244384765625 13.706920623779297 C11.695634841918945 13.015894889831543 12.572043418884277 12.324893951416016 13.448476791381836 11.633922576904297 L13.448476791381836 11.633922576904297 C13.188005447387695 11.147205352783203 12.927535057067871 10.66048812866211 12.66706371307373 10.173770904541016 L12.66706371307373 10.173770904541016 C13.963873863220215 10.173770904541016 15.260684967041016 10.173770904541016 16.5574951171875 10.173770904541016 L16.5574951171875 10.173770904541016 C16.586708068847656 10.508981704711914 16.615922927856445 10.844193458557129 16.6451358795166 11.179404258728027 L16.6451358795166 11.179404258728027 C14.928078651428223 11.79724407196045 14.020332336425781 12.573704719543457 12.701608657836914 13.823989868164062 L12.701608657836914 13.823989868164062 C14.04737663269043 15.132094383239746 14.75310230255127 15.975334167480469 16.547578811645508 16.602914810180664 L16.547578811645508 16.602914810180664 C16.565065383911133 16.927356719970703 16.582550048828125 17.251798629760742 16.60003662109375 17.57624053955078 L16.60003662109375 17.57624053955078 C14.040374755859375 18.015827178955078 12.667303085327148 15.719965934753418 11.00924015045166 14.058765411376953 L11.00924015045166 14.058765411376953 C11.00924015045166 14.822586059570312 11.00924015045166 15.586406707763672 11.00924015045166 16.35022735595703 L11.00924015045166 16.35022735595703 C11.504806518554688 16.547395706176758 11.847739219665527 17.162918090820312 11.875415802001953 17.69554901123047 L11.875415802001953 17.69554901123047 C11.77730655670166 17.69554901123047 8.241985321044922 17.69554901123047 8.176578521728516 17.69554901123047 L8.176578521728516 17.69554901123047 C8.194890022277832 17.346290588378906 7.999780654907227 16.90972137451172 8.231513977050781 16.64777374267578 C8.473896026611328 16.373788833618164 8.947196006774902 16.495895385742188 9.305037498474121 16.41995620727539 L9.305037498474121 16.41995620727539 C9.305037498474121 15.078950881958008 9.305037498474121 13.737947463989258 9.305037498474121 12.396944046020508 C9.305037498474121 11.055939674377441 9.305037498474121 9.714936256408691 9.305037498474121 8.373931884765625 L9.305037498474121 8.373931884765625 C8.904788970947266 8.269551277160645 8.504539489746094 8.16517162322998 8.104290962219238 8.060791015625 L8.104290962219238 8.060791015625 C8.104290962219238 7.708520889282227 8.104290962219238 7.356250286102295 8.104290962219238 7.0039801597595215 L8.104290962219238 7.0039801597595215"></path></svg>