<svg xmlns="http://www.w3.org/2000/svg" viewBox="0.0 0.0 24.0 24.0" height="200px" width="200px"><path fill="none" stroke="black" stroke-width=".3" stroke-opacity="1.0"  filling="0" d="M7.964580059051514 17.097074508666992 L7.964580059051514 17.097074508666992 C8.210884094238281 17.316577911376953 8.45718765258789 17.53607940673828 8.7034912109375 17.755582809448242 L8.7034912109375 17.755582809448242 C8.596613883972168 19.42837142944336 8.48977279663086 21.101160049438477 8.382952690124512 22.773950576782227 C8.276131629943848 24.446741104125977 8.169331550598145 26.11953353881836 8.062535285949707 27.792325973510742 L8.062535285949707 27.792325973510742 C8.02988338470459 27.791759490966797 7.997231960296631 27.79119300842285 7.964580059051514 27.790626525878906 L7.964580059051514 27.790626525878906 C7.964580059051514 26.00836753845215 7.964580059051514 24.22610855102539 7.964580059051514 22.443851470947266 C7.964580059051514 20.661592483520508 7.964580059051514 18.87933349609375 7.964580059051514 17.097074508666992 L7.964580059051514 17.097074508666992"></path>
<path fill="none" stroke="black" stroke-width=".3" stroke-opacity="1.0"  filling="0" d="M17.68027687072754 20.419063568115234 L17.68027687072754 20.419063568115234 C17.68027687072754 22.909849166870117 17.68027687072754 25.400630950927734 17.68027687072754 27.891414642333984 L17.68027687072754 27.891414642333984 C17.61667251586914 27.893301010131836 17.55306625366211 27.89518928527832 17.48946189880371 27.897075653076172 L17.48946189880371 27.897075653076172 C17.48946189880371 25.405723571777344 17.48946189880371 22.91437339782715 17.48946189880371 20.423025131225586 L17.48946189880371 20.423025131225586 C17.55306625366211 20.42170524597168 17.61667251586914 20.42038345336914 17.68027687072754 20.419063568115234 L17.68027687072754 20.419063568115234"></path></svg>