<svg xmlns="http://www.w3.org/2000/svg" viewBox="0.0 0.0 24.0 24.0" height="200px" width="200px"><path fill="none" stroke="black" stroke-width=".3" stroke-opacity="1.0"  filling="0" d="M12.782222747802734 10.393121719360352 L12.782222747802734 10.393121719360352 C12.782222747802734 12.191652297973633 12.782222747802734 13.990182876586914 12.782222747802734 15.788713455200195 C12.782222747802734 17.587244033813477 12.782222747802734 19.38577651977539 12.782222747802734 21.184307098388672 L12.782222747802734 21.184307098388672 C12.714113235473633 21.187244415283203 12.646004676818848 21.190183639526367 12.577895164489746 21.1931209564209 L12.577895164489746 21.1931209564209 C12.577895164489746 19.517208099365234 12.577895164489746 17.84129524230957 12.577895164489746 16.165382385253906 C12.577895164489746 14.489470481872559 12.577895164489746 12.813558578491211 12.577895164489746 11.13764476776123 L12.577895164489746 11.13764476776123 C12.244964599609375 11.217940330505371 11.91203498840332 11.298234939575195 11.57910442352295 11.378530502319336 L11.57910442352295 11.378530502319336 C11.55810546875 11.334792137145996 11.537107467651367 11.291054725646973 11.516108512878418 11.247316360473633 L11.516108512878418 11.247316360473633 C11.938146591186523 10.962584495544434 12.360184669494629 10.67785358428955 12.782222747802734 10.393121719360352 L12.782222747802734 10.393121719360352"></path></svg>