<svg xmlns="http://www.w3.org/2000/svg" viewBox="0.0 0.0 24.0 24.0" height="200px" width="200px"><path fill="none" stroke="black" stroke-width=".3" stroke-opacity="1.0"  filling="0" d="M15.84282112121582 2.6964311599731445 C15.84282112121582 6.483117580413818 15.84282112121582 10.39036750793457 15.84282112121582 14.373937606811523 C16.9306583404541 14.490076065063477 17.72980499267578 14.57524585723877 18.70703125 14.679769515991211 C18.75625228881836 15.28148078918457 18.804367065429688 15.870471000671387 18.867412567138672 16.645286560058594 C17.857555389404297 16.735431671142578 16.98098373413086 16.81396484375 15.96227741241455 16.905216217041016 C16.014816284179688 18.024023056030273 15.3644380569458 19.12679100036621 16.97711181640625 19.671539306640625 C17.357051849365234 19.79984474182129 17.457706451416016 20.75495147705078 17.806676864624023 21.630416870117188 C15.3019437789917 21.630416870117188 13.486303329467773 21.630416870117188 11.727625846862793 21.630416870117188 C10.700624465942383 19.765554428100586 12.102036476135254 19.575307846069336 13.28167724609375 19.265050888061523 C13.28167724609375 18.47475242614746 13.28167724609375 17.76906967163086 13.28167724609375 16.824472427368164 C11.211084365844727 16.824472427368164 9.219022750854492 16.824472427368164 7.210922718048096 16.824472427368164 C6.777889728546143 16.016475677490234 6.439426898956299 15.384347915649414 6.141890048980713 14.829092025756836 C6.18613338470459 14.538190841674805 6.160693168640137 14.32526969909668 6.249180316925049 14.183691024780273 C8.443102836608887 10.681821823120117 10.672419548034668 7.201521396636963 12.83979606628418 3.683060646057129 C13.507319450378418 2.5996484756469727 14.284344673156738 2.075364112854004 15.84282112121582 2.6964311599731445"></path>
<path fill="none" stroke="black" stroke-width=".3" stroke-opacity="1.0"  filling="0" d="M12.835371971130371 7.6096673011779785 C12.958701133728027 7.650039196014404 13.082582473754883 7.69041109085083 13.205911636352539 7.730783462524414 C13.205911636352539 9.915304183959961 13.205911636352539 12.099271774291992 13.205911636352539 14.41375732421875 C11.75804328918457 14.41375732421875 10.427421569824219 14.41375732421875 8.565878868103027 14.41375732421875 C10.17302131652832 11.85261344909668 11.504197120666504 9.73114013671875 12.835371971130371 7.6096673011779785"></path></svg>