<svg xmlns="http://www.w3.org/2000/svg" viewBox="0.0 0.0 24.0 24.0" height="200px" width="200px"><path fill="none" stroke="black" stroke-width=".3" stroke-opacity="1.0"  filling="0" d="M13.798734664916992 2.50327205657959 C16.220294952392578 2.999934196472168 17.486169815063477 4.669846057891846 17.762447357177734 7.880314826965332 C16.483797073364258 8.373250007629395 15.743861198425293 8.059709548950195 15.350471496582031 6.903493404388428 C14.842630386352539 5.409781455993652 13.845048904418945 4.456915378570557 12.201752662658691 4.587335109710693 C10.546745300292969 4.718820095062256 9.788178443908691 5.9644670486450195 9.386802673339844 7.386847019195557 C9.084973335266113 8.455760955810547 8.980104446411133 9.580038070678711 8.728313446044922 11.020517349243164 C9.710989952087402 10.490318298339844 10.304003715515137 10.115026473999023 10.939070701599121 9.83661937713623 C13.665654182434082 8.64314079284668 16.407142639160156 9.69502067565918 17.490428924560547 12.467916488647461 C18.370899200439453 14.72179126739502 18.245803833007812 17.01346206665039 16.965023040771484 19.105510711669922 C14.932062149047852 22.425640106201172 10.150693893432617 22.454917907714844 8.167773246765137 18.99957847595215 C7.236732006072998 17.377574920654297 6.841744899749756 15.363247871398926 6.560675621032715 13.47348403930664 C6.16515588760376 10.820362091064453 6.4446282386779785 8.165111541748047 7.6918721199035645 5.708950519561768 C8.939115524291992 3.251725196838379 11.349495887756348 2.0007543563842773 13.798734664916992 2.50327205657959"></path>
<path fill="none" stroke="black" stroke-width=".3" stroke-opacity="1.0"  filling="0" d="M12.548830032348633 11.803571701049805 C14.370988845825195 11.72851276397705 15.652300834655762 13.121614456176758 15.72789192199707 15.260507583618164 C15.805612564086914 17.45103645324707 14.293268203735352 19.377531051635742 12.488677024841309 19.385517120361328 C10.738916397094727 19.39349937438965 9.191970825195312 17.46487808227539 9.01044750213623 15.04970645904541 C8.903449058532715 13.627326965332031 10.813441276550293 11.875435829162598 12.548830032348633 11.803571701049805"></path></svg>