<svg xmlns="http://www.w3.org/2000/svg" viewBox="0.0 0.0 24.0 24.0" height="200px" width="200px"><path fill="none" stroke="black" stroke-width=".3" stroke-opacity="1.0"  filling="0" d="M8.670205116271973 18.473918914794922 L8.670205116271973 18.473918914794922 C8.50146770477295 19.137203216552734 8.017318725585938 21.04146957397461 7.857649803161621 21.669795989990234 L7.857649803161621 21.669795989990234 C9.125003814697266 21.669795989990234 10.392356872558594 21.669795989990234 11.659709930419922 21.669795989990234 C12.92706298828125 21.669795989990234 14.194416999816895 21.669795989990234 15.461771011352539 21.669795989990234 L15.461771011352539 21.669795989990234 C15.521288871765137 20.92581558227539 15.580806732177734 20.18183708190918 15.640325546264648 19.437856674194336 L15.640325546264648 19.437856674194336 C16.16092872619629 21.24129867553711 16.681432723999023 23.04476547241211 17.202035903930664 24.848209381103516 L17.202035903930664 24.848209381103516 C16.075695037841797 23.01889419555664 14.335380554199219 22.421445846557617 12.396890640258789 22.276151657104492 C10.458399772644043 22.130857467651367 8.321733474731445 22.43771743774414 6.402684211730957 22.417011260986328 L6.402684211730957 22.417011260986328 C7.1583685874938965 21.10256004333496 7.914190292358398 19.78818130493164 8.670205116271973 18.473918914794922 L8.670205116271973 18.473918914794922"></path></svg>