<svg xmlns="http://www.w3.org/2000/svg" viewBox="0.0 0.0 24.0 24.0" height="200px" width="200px"><path fill="none" stroke="black" stroke-width=".3" stroke-opacity="1.0"  filling="0" d="M14.849553108215332 8.423786163330078 L14.849553108215332 8.423786163330078 C15.655526161193848 8.475676536560059 16.46156120300293 8.526604652404785 17.26764678955078 8.576720237731934 L17.26764678955078 8.576720237731934 C17.057411193847656 9.540188789367676 16.847190856933594 10.503660202026367 16.63698387145996 11.467135429382324 L16.63698387145996 11.467135429382324 C16.553556442260742 11.484862327575684 16.470129013061523 11.50259017944336 16.386701583862305 11.520317077636719 L16.386701583862305 11.520317077636719 C16.273427963256836 11.07894229888916 16.27410125732422 10.591178894042969 16.04688262939453 10.19619369506836 C14.934920310974121 8.263216018676758 13.3560209274292 8.4553804397583 11.946704864501953 9.926907539367676 C11.100557327270508 10.810405731201172 10.121788024902344 12.970948219299316 9.915412902832031 14.880303382873535 C9.709036827087402 16.78965950012207 10.275053977966309 18.447826385498047 12.518478393554688 18.32657814025879 C13.296277046203613 18.2845401763916 14.248247146606445 17.68646812438965 14.936686515808105 17.301448822021484 L14.936686515808105 17.301448822021484 C14.4834566116333 17.7691593170166 14.14067268371582 18.378328323364258 13.576997756958008 18.70458221435547 C11.374320030212402 19.979490280151367 8.382580757141113 18.88218879699707 7.653459548950195 16.446332931518555 C6.963046073913574 14.139793395996094 8.148531913757324 11.52069091796875 9.909481048583984 10.0368013381958 C11.420520782470703 8.763501167297363 12.957602500915527 8.542157173156738 14.849553108215332 8.423786163330078 L14.849553108215332 8.423786163330078"></path></svg>