<svg xmlns="http://www.w3.org/2000/svg" viewBox="0.0 0.0 24.0 24.0" height="200px" width="200px"><path fill="none" stroke="black" stroke-width=".3" stroke-opacity="1.0"  filling="0" d="M10.393880844116211 10.305763244628906 L10.393880844116211 10.305763244628906 C11.554936408996582 10.459139823913574 12.715986251831055 10.612558364868164 13.877030372619629 10.76602554321289 L13.877030372619629 10.76602554321289 C12.807563781738281 10.76602554321289 11.73809814453125 10.76602554321289 10.668631553649902 10.76602554321289 L10.668631553649902 10.76602554321289 C10.467489242553711 12.359726905822754 10.266334533691406 13.953432083129883 10.06507682800293 15.547119140625 L10.06507682800293 15.547119140625 C10.133883476257324 15.547119140625 13.566407203674316 15.547119140625 13.724143028259277 15.547119140625 L13.724143028259277 15.547119140625 C12.40542221069336 16.21308708190918 11.486825942993164 15.993348121643066 10.00334644317627 15.966119766235352 L10.00334644317627 15.966119766235352 C9.74064826965332 17.679332733154297 9.477952003479004 19.392553329467773 9.215240478515625 21.105762481689453 L9.215240478515625 21.105762481689453 C9.124723434448242 21.09136962890625 9.03420639038086 21.076976776123047 8.943689346313477 21.062583923339844 L8.943689346313477 21.062583923339844 C9.185402870178223 19.26978302001953 9.427107810974121 17.476980209350586 9.668806076049805 15.684176445007324 C9.910503387451172 13.891372680664062 10.15219497680664 12.098567962646484 10.393880844116211 10.305763244628906 L10.393880844116211 10.305763244628906"></path></svg>