<svg xmlns="http://www.w3.org/2000/svg" viewBox="0.0 0.0 24.0 24.0" height="200px" width="200px"><path fill="none" stroke="black" stroke-width=".3" stroke-opacity="1.0"  filling="0" d="M12.93997573852539 10.874677658081055 L12.93997573852539 10.874677658081055 C13.216019630432129 12.38232135772705 13.491975784301758 13.889986991882324 13.768020629882812 15.39763069152832 L13.768020629882812 15.39763069152832 C13.644455909729004 15.431559562683105 13.520890235900879 15.465487480163574 13.39732551574707 15.49941635131836 L13.39732551574707 15.49941635131836 C13.170422554016113 13.950787544250488 12.753137588500977 12.493179321289062 12.541770935058594 10.942076683044434 L12.541770935058594 10.942076683044434 C12.674506187438965 10.919610023498535 12.80724048614502 10.897144317626953 12.93997573852539 10.874677658081055 L12.93997573852539 10.874677658081055"></path>
<path fill="none" stroke="black" stroke-width=".3" stroke-opacity="1.0"  filling="0" d="M6.372356414794922 12.762537002563477 L6.372356414794922 12.762537002563477 C6.629061698913574 14.02546501159668 6.885760307312012 15.288394927978516 7.142458915710449 16.55132293701172 C7.399157524108887 17.814252853393555 7.655856132507324 19.07718276977539 7.912560939788818 20.340110778808594 L7.912560939788818 20.340110778808594 C7.799541473388672 20.361888885498047 7.686522006988525 20.3836669921875 7.573502540588379 20.405445098876953 L7.573502540588379 20.405445098876953 C7.31321907043457 19.13508415222168 7.052990913391113 17.86471176147461 6.7928009033203125 16.594329833984375 C6.532609939575195 15.323949813842773 6.272457122802734 14.05356216430664 6.012321949005127 12.783169746398926 L6.012321949005127 12.783169746398926 C6.132333278656006 12.776291847229004 6.252345085144043 12.769414901733398 6.372356414794922 12.762537002563477 L6.372356414794922 12.762537002563477"></path>
<path fill="none" stroke="black" stroke-width=".3" stroke-opacity="1.0"  filling="0" d="M16.181316375732422 18.224262237548828 L16.181316375732422 18.224262237548828 C16.259031295776367 18.259565353393555 16.336746215820312 18.294870376586914 16.414461135864258 18.33017349243164 L16.414461135864258 18.33017349243164 C15.905416488647461 19.44489288330078 15.396370887756348 20.559614181518555 14.887324333190918 21.674333572387695 L14.887324333190918 21.674333572387695 C14.77132511138916 21.654159545898438 14.655324935913086 21.63398551940918 14.539325714111328 21.613811492919922 L14.539325714111328 21.613811492919922 C14.452211380004883 21.0036678314209 14.365097045898438 20.393524169921875 14.277982711791992 19.78338050842285 L14.277982711791992 19.78338050842285 C14.507346153259277 20.081174850463867 14.736708641052246 20.37896728515625 14.966072082519531 20.676761627197266 L14.966072082519531 20.676761627197266 C15.082058906555176 20.44264030456543 16.057811737060547 18.473459243774414 16.181316375732422 18.224262237548828 L16.181316375732422 18.224262237548828"></path></svg>