<svg xmlns="http://www.w3.org/2000/svg" viewBox="0.0 0.0 24.0 24.0" height="200px" width="200px"><path fill="none" stroke="black" stroke-width=".3" stroke-opacity="1.0"  filling="0" d="M12.912367820739746 9.207437515258789 C14.663912773132324 9.400551795959473 16.404197692871094 9.701765060424805 18.691171646118164 10.033382415771484 C17.901260375976562 10.754043579101562 17.346689224243164 11.25963306427002 16.603506088256836 11.938067436218262 C16.378299713134766 16.047527313232422 14.878422737121582 17.472522735595703 10.412010192871094 17.62003517150879 C9.528636932373047 17.649311065673828 8.654834747314453 17.977550506591797 7.777091979980469 18.167850494384766 C7.7652692794799805 18.41444969177246 7.754571914672852 18.66217803955078 7.743311405181885 18.90990447998047 C8.358125686645508 19.213369369506836 8.950983047485352 19.57651710510254 9.592259407043457 19.8056640625 C10.382171630859375 20.08773422241211 11.234015464782715 20.198650360107422 12.021113395690918 20.486915588378906 C14.052477836608887 21.231224060058594 15.208351135253906 22.550373077392578 15.03381633758545 24.085718154907227 C14.824374198913574 25.925090789794922 13.720297813415527 27.156410217285156 11.978886604309082 27.754898071289062 C9.59225845336914 28.575214385986328 7.18873929977417 28.508214950561523 4.814497470855713 27.69521713256836 C3.5921878814697266 27.276897430419922 2.4064741134643555 26.479103088378906 2.675034523010254 25.1329288482666 C2.855762481689453 24.228160858154297 3.9131078720092773 23.4776611328125 4.636021137237549 22.712520599365234 C4.873614311218262 22.461414337158203 5.291935443878174 22.381465911865234 5.6139817237854 22.23001480102539 C5.471538543701172 21.24811553955078 4.994663238525391 20.183448791503906 5.291935443878174 19.421123504638672 C5.6235527992248535 18.570968627929688 6.659503936767578 17.99556541442871 8.041709899902344 16.890926361083984 C7.62845516204834 16.7332820892334 7.087396144866943 16.691057205200195 6.822215557098389 16.398849487304688 C5.13992166519165 14.547651290893555 5.263221740722656 12.396926879882812 7.120614051818848 10.761926651000977 C8.78432846069336 9.296956062316895 10.796551704406738 8.974348068237305 12.912367820739746 9.207437515258789"></path>
<path fill="none" stroke="black" stroke-width=".3" stroke-opacity="1.0"  filling="0" d="M12.376376152038574 9.714151382446289 C13.4461088180542 11.92117691040039 12.94446086883545 15.087020874023438 11.422063827514648 16.46359634399414 C10.45367431640625 17.338525772094727 9.440244674682617 17.076160430908203 9.092863082885742 15.861169815063477 C8.521964073181152 13.863584518432617 10.154150009155273 10.680288314819336 12.376376152038574 9.714151382446289"></path>
<path fill="none" stroke="black" stroke-width=".3" stroke-opacity="1.0"  filling="0" d="M8.283807754516602 22.805419921875 C8.99996566772461 22.97995376586914 9.694727897644043 23.25864601135254 10.379356384277344 23.53790283203125 C11.362383842468262 23.938770294189453 12.465333938598633 24.53219223022461 12.010416030883789 25.714527130126953 C11.702446937561035 26.51513671875 10.698023796081543 27.078716278076172 9.93457317352295 27.654117584228516 C9.686845779418945 27.841041564941406 9.21447467803955 27.730690002441406 8.512955665588379 27.77910804748535 C8.100264549255371 27.669883728027344 7.364964008331299 27.5533390045166 6.6932854652404785 27.279712677001953 C5.40960693359375 26.756671905517578 4.808305263519287 25.778711318969727 5.184401035308838 24.388622283935547 C5.526714324951172 23.12352180480957 6.844173908233643 22.455787658691406 8.283807754516602 22.805419921875"></path></svg>