<svg xmlns="http://www.w3.org/2000/svg" viewBox="0.0 0.0 24.0 24.0" height="200px" width="200px"><path fill="none" stroke="black" stroke-width=".3" stroke-opacity="1.0"  filling="0" d="M13.84081745147705 5.080554962158203 C12.784123420715332 9.003923416137695 11.826545715332031 12.559457778930664 10.697166442871094 16.752643585205078 C12.159688949584961 15.146404266357422 13.089181900024414 13.950395584106445 14.19983959197998 12.95867919921875 C15.139245986938477 12.119490623474121 16.3176326751709 11.196054458618164 17.628726959228516 12.150327682495117 C18.73773193359375 12.957026481628418 18.55877113342285 14.195985794067383 18.192590713500977 15.413469314575195 C17.513090133666992 17.673879623413086 16.911231994628906 19.95741844177246 16.153539657592773 22.673213958740234 C16.964092254638672 22.305932998657227 17.37763023376465 22.118709564208984 17.785661697387695 21.93424415588379 C17.804935455322266 22.06529998779297 17.910106658935547 22.302627563476562 17.839075088500977 22.38247299194336 C17.417827606201172 22.85382843017578 17.026866912841797 23.525066375732422 16.492189407348633 23.684757232666016 C15.519193649291992 23.97549819946289 14.35071849822998 24.244762420654297 13.47408676147461 23.93254852294922 C13.090285301208496 23.79598617553711 12.985662460327148 22.156707763671875 13.169577598571777 21.287235260009766 C13.632122993469238 19.098407745361328 14.330344200134277 16.95969009399414 14.64806842803955 14.68551254272461 C10.898703575134277 16.837444305419922 9.610186576843262 20.509166717529297 8.477503776550293 24.28110694885254 C7.379510879516602 24.28110694885254 6.40981912612915 24.28110694885254 5.239691734313965 24.28110694885254 C6.6719279289245605 19.2707576751709 8.021566390991211 14.437719345092773 9.447745323181152 9.6278076171875 C9.85632610321045 8.249534606933594 10.049053192138672 6.9951581954956055 8.668027877807617 5.739130020141602 C10.418539047241211 5.516117572784424 11.92566204071045 5.32449197769165 13.84081745147705 5.080554962158203"></path></svg>