<svg xmlns="http://www.w3.org/2000/svg" viewBox="0.0 0.0 24.0 24.0" height="200px" width="200px"><path fill="none" stroke="black" stroke-width=".3" stroke-opacity="1.0"  filling="0" d="M15.7901029586792 7.001112937927246 L15.7901029586792 7.001112937927246 C16.27385902404785 7.001112937927246 16.757614135742188 7.001112937927246 17.241371154785156 7.001112937927246 L17.241371154785156 7.001112937927246 C17.241371154785156 8.773490905761719 17.241371154785156 10.545869827270508 17.241371154785156 12.318248748779297 C17.241371154785156 14.090627670288086 17.241371154785156 15.863006591796875 17.241371154785156 17.635385513305664 L17.241371154785156 17.635385513305664 C16.3225040435791 16.8658504486084 16.141048431396484 15.344162940979004 16.13680076599121 13.717747688293457 C16.132551193237305 12.09133243560791 16.305511474609375 10.360189437866211 16.095476150512695 9.171743392944336 L16.095476150512695 9.171743392944336 C15.592588424682617 10.595762252807617 15.089710235595703 12.019784927368164 14.586857795715332 13.443815231323242 C14.084004402160645 14.867846488952637 13.581174850463867 16.291885375976562 13.07838249206543 17.715938568115234 L13.07838249206543 17.715938568115234 C12.654601097106934 17.744220733642578 12.230818748474121 17.77250099182129 11.807037353515625 17.800783157348633 L11.807037353515625 17.800783157348633 C11.287910461425781 16.32596206665039 10.768777847290039 14.851141929626465 10.249641418457031 13.376323699951172 C9.730504989624023 11.901506423950195 9.21136474609375 10.426690101623535 8.69222354888916 8.951873779296875 L8.69222354888916 8.951873779296875 C8.600886344909668 8.965409278869629 8.509550094604492 8.978944778442383 8.418212890625 8.992480278015137 L8.418212890625 8.992480278015137 C8.418212890625 10.446113586425781 8.418212890625 11.899748802185059 8.418212890625 13.353384017944336 C8.418212890625 14.807018280029297 8.418212890625 16.26065444946289 8.418212890625 17.71428680419922 L8.418212890625 17.71428680419922 C6.970273017883301 16.489303588867188 7.475166320800781 15.217327117919922 7.475912570953369 13.399669647216797 C7.47678804397583 11.267147064208984 7.4767537117004395 9.134625434875488 7.476670742034912 7.002103805541992 L7.476670742034912 7.002103805541992 C8.00466537475586 7.002103805541992 8.532659530639648 7.002103805541992 9.060653686523438 7.002103805541992 L9.060653686523438 7.002103805541992 C9.601911544799805 8.559930801391602 10.143150329589844 10.11776351928711 10.684354782104492 11.67560863494873 C11.225558280944824 13.233453750610352 11.766728401184082 14.79131031036377 12.307849884033203 16.349184036254883 L12.307849884033203 16.349184036254883 C12.406229972839355 16.353364944458008 12.504609107971191 16.357547760009766 12.602989196777344 16.36172866821289 L12.602989196777344 16.36172866821289 C13.134154319763184 14.801618576049805 13.665353775024414 13.241520881652832 14.196551322937012 11.681422233581543 C14.72774887084961 10.12132453918457 15.25894546508789 8.561225891113281 15.7901029586792 7.001112937927246 L15.7901029586792 7.001112937927246"></path></svg>