<svg xmlns="http://www.w3.org/2000/svg" viewBox="0.0 0.0 24.0 24.0" height="200px" width="200px"><path fill="none" stroke="black" stroke-width=".3" stroke-opacity="1.0"  filling="0" d="M14.428074836730957 6.422934055328369 C12.078550338745117 8.601393699645996 12.172228813171387 10.85898494720459 14.560736656188965 13.301606178283691 C16.47736167907715 10.711775779724121 16.477943420410156 8.427419662475586 14.428074836730957 6.422934055328369"></path>
<path fill="none" stroke="black" stroke-width=".3" stroke-opacity="1.0"  filling="0" d="M11.359960556030273 6.695241928100586 C13.711812973022461 5.271446228027344 17.07841682434082 5.803260326385498 18.415515899658203 7.810072898864746 C19.862585067749023 9.981550216674805 18.95780372619629 11.999418258666992 15.338091850280762 14.534552574157715 C15.757609367370605 15.167027473449707 16.210872650146484 15.783210754394531 16.594314575195312 16.440706253051758 C18.06524085998535 18.96245765686035 17.534008026123047 21.920021057128906 15.313074111938477 23.703399658203125 C13.125304222106934 25.459434509277344 9.460209846496582 25.567657470703125 7.495290756225586 23.93439483642578 C5.482658863067627 22.262147903442383 5.3732709884643555 19.29935073852539 7.3800835609436035 17.280317306518555 C8.246463775634766 16.40753936767578 9.364203453063965 15.784955978393555 10.549439430236816 14.91624927520752 C8.485605239868164 10.925897598266602 8.767804145812988 8.264500617980957 11.359960556030273 6.695241928100586"></path>
<path fill="none" stroke="black" stroke-width=".3" stroke-opacity="1.0"  filling="0" d="M11.512989044189453 15.98744010925293 C13.00718879699707 17.483386993408203 14.000411987304688 19.203344345092773 13.578568458557129 21.38878631591797 C13.422632217407227 22.195232391357422 13.047918319702148 23.059288024902344 12.51494026184082 23.671977996826172 C11.323305130004883 25.04166030883789 9.76859188079834 24.646583557128906 9.216995239257812 22.944080352783203 C8.597320556640625 21.03211212158203 9.766263961791992 17.467676162719727 11.512989044189453 15.98744010925293"></path></svg>