<svg xmlns="http://www.w3.org/2000/svg" viewBox="0.0 0.0 24.0 24.0" height="200px" width="200px"><path fill="none" stroke="black" stroke-width=".3" stroke-opacity="1.0"  filling="0" d="M3.804884910583496 6.02799654006958 C7.7003679275512695 6.02799654006958 11.601691246032715 5.911190509796143 15.488412857055664 6.099832534790039 C16.642457962036133 6.155899524688721 17.952436447143555 6.847391605377197 18.846004486083984 7.637000560760498 C21.005748748779297 9.545611381530762 20.6594181060791 12.444740295410156 18.252628326416016 14.0531587600708 C17.774307250976562 14.372623443603516 17.225318908691406 14.587547302246094 16.452646255493164 14.980598449707031 C17.321683883666992 15.40051555633545 18.054641723632812 15.708883285522461 18.743799209594727 16.094928741455078 C21.742212295532227 17.775768280029297 22.05875587463379 21.640296936035156 19.158458709716797 23.50510597229004 C17.75912094116211 24.40451431274414 15.93928337097168 24.954669952392578 14.270124435424805 25.066802978515625 C10.786969184875488 25.300416946411133 7.2769455909729 25.137474060058594 3.7786035537719727 25.137474060058594 C5.985070705413818 24.537673950195312 6.072674751281738 22.827049255371094 6.061578750610352 21.02706527709961 C6.038217067718506 17.233203887939453 6.035881519317627 13.438758850097656 6.044641971588135 9.644312858581543 C6.04872989654541 7.995010852813721 5.964046001434326 6.4368181228637695 3.804884910583496 6.02799654006958"></path>
<path fill="none" stroke="black" stroke-width=".3" stroke-opacity="1.0"  filling="0" d="M10.594822883605957 7.427917957305908 C13.623604774475098 7.031361103057861 15.269403457641602 8.07385540008545 15.494837760925293 10.435091018676758 C15.741299629211426 13.019425392150879 14.086156845092773 14.456724166870117 10.594822883605957 14.459644317626953 C10.594822883605957 11.974010467529297 10.594822883605957 9.692203521728516 10.594822883605957 7.427917957305908"></path>
<path fill="none" stroke="black" stroke-width=".3" stroke-opacity="1.0"  filling="0" d="M10.480352401733398 16.042949676513672 C14.534692764282227 15.836204528808594 16.24356460571289 17.111141204833984 16.126174926757812 20.0079345703125 C16.059595108032227 21.66482925415039 15.362263679504395 22.936847686767578 13.734570503234863 23.617828369140625 C11.63381290435791 24.49620819091797 10.602415084838867 23.937875747680664 10.497289657592773 21.675926208496094 C10.413189888000488 19.86484718322754 10.480352401733398 18.0467586517334 10.480352401733398 16.042949676513672"></path></svg>