<svg xmlns="http://www.w3.org/2000/svg" viewBox="0.0 0.0 24.0 24.0" height="200px" width="200px"><path fill="none" stroke="black" stroke-width=".3" stroke-opacity="1.0"  filling="0" d="M6.917863845825195 9.017528533935547 L6.917863845825195 9.017528533935547 C8.355018615722656 9.017528533935547 9.7921724319458 9.017528533935547 11.229328155517578 9.017528533935547 L11.229328155517578 9.017528533935547 C10.22154426574707 10.638079643249512 10.396056175231934 11.507389068603516 10.3563814163208 13.374612808227539 L10.3563814163208 13.374612808227539 C10.451151847839355 13.42984676361084 10.54592227935791 13.485079765319824 10.640692710876465 13.540313720703125 L10.640692710876465 13.540313720703125 C12.072708129882812 12.333661079406738 13.50479507446289 11.127099990844727 14.93685245513916 9.920495986938477 L14.93685245513916 9.920495986938477 C14.554533004760742 9.628140449523926 14.17221450805664 9.335783958435059 13.789895057678223 9.043428421020508 L13.789895057678223 9.043428421020508 C14.884267807006836 9.043428421020508 15.97864055633545 9.043428421020508 17.073013305664062 9.043428421020508 L17.073013305664062 9.043428421020508 C15.51860237121582 10.251580238342285 13.964211463928223 11.459756851196289 12.40983772277832 12.667954444885254 L12.40983772277832 12.667954444885254 C13.268598556518555 13.701923370361328 14.083284378051758 14.735034942626953 14.936017990112305 15.732866287231445 C15.788751602172852 16.730697631835938 16.679534912109375 17.693248748779297 17.69049072265625 18.586101531982422 L17.69049072265625 18.586101531982422 C16.200654983520508 18.586101531982422 14.710814476013184 18.586101531982422 13.220977783203125 18.586101531982422 L13.220977783203125 18.586101531982422 C13.53626823425293 16.769880294799805 11.794511795043945 15.507922172546387 10.594778060913086 14.260804176330566 L10.594778060913086 14.260804176330566 C10.378704071044922 16.247072219848633 10.18028736114502 16.9605770111084 11.347938537597656 18.637901306152344 L11.347938537597656 18.637901306152344 C9.861927032470703 18.637901306152344 8.375914573669434 18.637901306152344 6.889903545379639 18.637901306152344 L6.889903545379639 18.637901306152344 C7.229313373565674 18.371788024902344 7.699793338775635 18.217199325561523 7.908133506774902 17.839563369750977 C8.106493949890137 17.480016708374023 8.024043083190918 14.682991981506348 8.023921966552734 14.653368949890137 C8.01559829711914 12.616996765136719 8.68791389465332 10.318425178527832 6.917863845825195 9.017528533935547 L6.917863845825195 9.017528533935547"></path></svg>