<svg xmlns="http://www.w3.org/2000/svg" viewBox="0.0 0.0 24.0 24.0" height="200px" width="200px"><path fill="none" stroke="black" stroke-width=".3" stroke-opacity="1.0"  filling="0" d="M6.826501369476318 9.69932746887207 L6.826501369476318 9.69932746887207 C6.91339111328125 9.69932746887207 9.908116340637207 9.69932746887207 9.92939567565918 9.69932746887207 L9.92939567565918 9.69932746887207 C10.687583923339844 11.442448616027832 11.445701599121094 13.185593605041504 12.203752517700195 14.9287748336792 L12.203752517700195 14.9287748336792 C12.942845344543457 13.189640998840332 13.681986808776855 11.450523376464844 14.421053886413574 9.71137809753418 L14.421053886413574 9.71137809753418 C15.487322807312012 9.71137809753418 16.553590774536133 9.71137809753418 17.61985969543457 9.71137809753418 L17.61985969543457 9.71137809753418 C16.819894790649414 10.832754135131836 16.44779396057129 12.250621795654297 16.45220375061035 13.680943489074707 C16.456615447998047 15.111266136169434 16.83753776550293 16.55404281616211 17.543621063232422 17.725238800048828 L17.543621063232422 17.725238800048828 C16.26445960998535 17.725238800048828 14.985298156738281 17.725238800048828 13.706136703491211 17.725238800048828 L13.706136703491211 17.725238800048828 C15.15943717956543 15.707212448120117 14.64384651184082 13.356019973754883 14.645834922790527 10.9181547164917 L14.645834922790527 10.9181547164917 C14.565579414367676 10.892906188964844 14.48532485961914 10.867656707763672 14.405069351196289 10.842408180236816 L14.405069351196289 10.842408180236816 C13.911642074584961 12.012964248657227 13.418196678161621 13.183512687683105 12.924737930297852 14.354055404663086 C12.431279182434082 15.524598121643066 11.937807083129883 16.69513511657715 11.44432258605957 17.86566734313965 L11.44432258605957 17.86566734313965 C10.451180458068848 15.641267776489258 9.458135604858398 13.416828155517578 8.465131759643555 11.192366600036621 L8.465131759643555 11.192366600036621 C8.388729095458984 11.207449913024902 8.31232738494873 11.2225341796875 8.23592472076416 11.237617492675781 L8.23592472076416 11.237617492675781 C8.227422714233398 13.399173736572266 7.702735900878906 15.912604331970215 9.001749038696289 17.707042694091797 L9.001749038696289 17.707042694091797 C8.274453163146973 17.707042694091797 7.547157287597656 17.707042694091797 6.81986141204834 17.707042694091797 L6.81986141204834 17.707042694091797 C7.787540435791016 16.894176483154297 8.075801849365234 15.365522384643555 7.978842735290527 13.803447723388672 C7.88188362121582 12.241373062133789 7.3997039794921875 10.645877838134766 6.826501369476318 9.69932746887207 L6.826501369476318 9.69932746887207"></path></svg>