<svg xmlns="http://www.w3.org/2000/svg" viewBox="0.0 0.0 24.0 24.0" height="200px" width="200px"><path fill="none" stroke="black" stroke-width=".3" stroke-opacity="1.0"  filling="0" d="M7.8545684814453125 8.66127872467041 L7.8545684814453125 8.66127872467041 C9.806272506713867 8.658478736877441 12.985486030578613 8.038479804992676 14.779644012451172 8.946702003479004 C16.348407745361328 9.740827560424805 17.51230239868164 11.505727767944336 16.19362449645996 13.19900131225586 C15.158939361572266 14.527607917785645 13.059852600097656 14.516222953796387 11.584296226501465 14.732404708862305 L11.584296226501465 14.732404708862305 C11.5924072265625 16.990480422973633 11.3590726852417 17.698583602905273 12.893728256225586 19.457632064819336 L12.893728256225586 19.457632064819336 C11.142738342285156 19.457632064819336 9.391740798950195 19.457632064819336 7.640749931335449 19.457632064819336 L7.640749931335449 19.457632064819336 C8.043718338012695 19.160274505615234 8.574396133422852 18.98393440246582 8.849654197692871 18.56555938720703 C9.253405570983887 17.95188331604004 9.080742835998535 16.138622283935547 9.072019577026367 15.565074920654297 C9.036705017089844 13.243172645568848 9.904586791992188 10.146806716918945 7.8545684814453125 8.66127872467041 L7.8545684814453125 8.66127872467041"></path>
<path fill="none" stroke="black" stroke-width=".3" stroke-opacity="1.0"  filling="0" d="M11.653580665588379 9.464839935302734 L11.653580665588379 9.464839935302734 C12.241278648376465 9.55959415435791 12.944595336914062 9.38646125793457 13.41667366027832 9.749102592468262 C15.709213256835938 11.510185241699219 13.168024063110352 13.485374450683594 11.653580665588379 13.843317031860352 L11.653580665588379 13.843317031860352 C11.653580665588379 12.383822441101074 11.653580665588379 10.924333572387695 11.653580665588379 9.464839935302734 L11.653580665588379 9.464839935302734"></path></svg>