<svg xmlns="http://www.w3.org/2000/svg" viewBox="0.0 0.0 24.0 24.0" height="200px" width="200px"><path fill="none" stroke="black" stroke-width=".3" stroke-opacity="1.0"  filling="0" d="M8.356749534606934 9.278815269470215 L8.356749534606934 9.278815269470215 C8.832293510437012 9.480786323547363 9.426774978637695 9.510875701904297 9.783381462097168 9.884729385375977 C10.147408485412598 10.266362190246582 10.156326293945312 10.871420860290527 10.345490455627441 11.363738059997559 C10.918207168579102 12.85428237915039 11.506793975830078 14.338801383972168 12.089086532592773 15.825614929199219 L12.089086532592773 15.825614929199219 C12.278331756591797 15.726181030273438 12.467576026916504 15.626747131347656 12.656821250915527 15.527313232421875 L12.656821250915527 15.527313232421875 C12.58449649810791 15.961262702941895 12.512171745300293 16.395212173461914 12.439846992492676 16.829160690307617 L12.439846992492676 16.829160690307617 C12.526243209838867 16.859477996826172 12.612640380859375 16.889793395996094 12.699036598205566 16.92011070251465 L12.699036598205566 16.92011070251465 C13.50934886932373 15.052123069763184 14.238321304321289 13.15350341796875 14.95573616027832 11.24791145324707 C15.132726669311523 10.777789115905762 15.131982803344727 10.19675064086914 15.48090648651123 9.83537483215332 C15.822308540344238 9.481788635253906 16.393295288085938 9.469508171081543 16.849491119384766 9.286574363708496 L16.849491119384766 9.286574363708496 C16.173511505126953 11.053302764892578 15.497550964355469 12.820038795471191 14.821592330932617 14.586775779724121 C14.145633697509766 16.353511810302734 13.46967887878418 18.120250701904297 12.793710708618164 19.88698387145996 L12.793710708618164 19.88698387145996 C12.69313907623291 19.880361557006836 12.592567443847656 19.87373924255371 12.491995811462402 19.867116928100586 L12.491995811462402 19.867116928100586 C11.802846908569336 18.10237693786621 11.113665580749512 16.337650299072266 10.424456596374512 14.572933197021484 C9.735247611999512 12.80821704864502 9.046010971069336 11.043512344360352 8.356749534606934 9.278815269470215 L8.356749534606934 9.278815269470215"></path></svg>