<svg xmlns="http://www.w3.org/2000/svg" viewBox="0.0 0.0 24.0 24.0" height="200px" width="200px"><path fill="none" stroke="black" stroke-width=".3" stroke-opacity="1.0"  filling="0" d="M12.598128318786621 11.997977256774902 L12.598128318786621 11.997977256774902 C13.833595275878906 12.281880378723145 14.702537536621094 12.2012300491333 15.459848403930664 13.377046585083008 C16.19890785217285 14.52452564239502 16.242198944091797 15.991713523864746 16.233444213867188 17.498010635375977 C16.22469139099121 19.004308700561523 16.16389274597168 20.54971694946289 16.694774627685547 21.853633880615234 L16.694774627685547 21.853633880615234 C14.656209945678711 23.35996437072754 13.907341003417969 22.06284523010254 11.659623146057129 21.543792724609375 L11.659623146057129 21.543792724609375 C13.014503479003906 20.02720832824707 12.953998565673828 19.37748146057129 12.757091522216797 17.385181427001953 L12.757091522216797 17.385181427001953 C10.718118667602539 19.045194625854492 10.016315460205078 19.39191436767578 11.731471061706543 21.503828048706055 L11.731471061706543 21.503828048706055 C10.946674346923828 22.12093162536621 10.388443946838379 22.858417510986328 9.273892402648926 22.739967346191406 C7.860572338104248 22.589765548706055 7.195452690124512 20.969064712524414 7.740751266479492 19.76241111755371 C8.54386043548584 17.985267639160156 11.132949829101562 17.032848358154297 12.706348419189453 16.12964630126953 L12.706348419189453 16.12964630126953 C12.767095565795898 13.339899063110352 12.917121887207031 12.79468822479248 10.134214401245117 13.494197845458984 L10.134214401245117 13.494197845458984 C10.403538703918457 14.230047225952148 11.11278247833252 15.439698219299316 10.078533172607422 16.161977767944336 C8.77857494354248 17.0698184967041 7.818975925445557 15.608674049377441 7.8885369300842285 14.596156120300293 C8.041203498840332 12.373966217041016 11.1176176071167 12.191858291625977 12.598128318786621 11.997977256774902 L12.598128318786621 11.997977256774902"></path></svg>