<svg xmlns="http://www.w3.org/2000/svg" viewBox="0.0 0.0 24.0 24.0" height="200px" width="200px"><path fill="none" stroke="black" stroke-width=".3" stroke-opacity="1.0"  filling="0" d="M12.4196195602417 8.922470092773438 L12.4196195602417 8.922470092773438 C13.427218437194824 8.922470092773438 14.43481731414795 8.922470092773438 15.442416191101074 8.922470092773438 L15.442416191101074 8.922470092773438 C15.442150115966797 11.157248497009277 15.440876960754395 13.392026901245117 15.442375183105469 15.626805305480957 C15.443432807922363 17.205307006835938 15.163066864013672 17.89390754699707 16.20419692993164 19.037508010864258 L16.20419692993164 19.037508010864258 C15.288993835449219 19.25847053527832 14.373790740966797 19.479429244995117 13.458585739135742 19.70038604736328 L13.458585739135742 19.70038604736328 C13.32394027709961 19.433549880981445 13.189295768737793 19.166711807250977 13.05465030670166 18.89987564086914 L13.05465030670166 18.89987564086914 C11.933568000793457 19.51092529296875 11.532964706420898 20.098909378051758 10.226579666137695 19.496618270874023 C9.045129776000977 18.951927185058594 8.406366348266602 17.53073501586914 8.349480628967285 16.088512420654297 C8.292593955993652 14.646289825439453 8.817583084106445 13.183034896850586 9.963637351989746 12.554211616516113 C11.178508758544922 11.887629508972168 12.023488998413086 12.353437423706055 13.270061492919922 12.631829261779785 L13.270061492919922 12.631829261779785 C13.268335342407227 11.363296508789062 12.983134269714355 10.058968544006348 12.4196195602417 8.922470092773438 L12.4196195602417 8.922470092773438"></path>
<path fill="none" stroke="black" stroke-width=".3" stroke-opacity="1.0"  filling="0" d="M11.95198917388916 12.783864974975586 L11.95198917388916 12.783864974975586 C12.656861305236816 13.617097854614258 13.18741226196289 14.713696479797363 13.214688301086426 15.804740905761719 L13.214688301086426 15.804740905761719 C13.211380958557129 15.804740905761719 13.208072662353516 15.804740905761719 13.204765319824219 15.804740905761719 L13.204765319824219 15.804740905761719 C13.190042495727539 16.382797241210938 13.382088661193848 17.004770278930664 13.160595893859863 17.538911819458008 C12.642807960510254 18.787588119506836 11.615428924560547 19.183570861816406 11.010966300964355 17.75528335571289 C10.242127418518066 15.938590049743652 10.748242378234863 14.091377258300781 11.95198917388916 12.783864974975586 L11.95198917388916 12.783864974975586"></path></svg>