<svg xmlns="http://www.w3.org/2000/svg" viewBox="0.0 0.0 24.0 24.0" height="200px" width="200px"><path fill="none" stroke="black" stroke-width=".3" stroke-opacity="1.0"  filling="0" d="M12.621316909790039 11.642271041870117 L12.621316909790039 11.642271041870117 C12.621208190917969 11.65006160736084 12.621100425720215 11.657853126525879 12.620991706848145 11.665643692016602 L12.620991706848145 11.665643692016602 C13.570171356201172 11.665643692016602 14.5193510055542 11.665643692016602 15.468530654907227 11.665643692016602 L15.468530654907227 11.665643692016602 C15.468530654907227 13.412081718444824 15.468530654907227 15.158519744873047 15.468530654907227 16.904956817626953 C15.468530654907227 18.651395797729492 15.468530654907227 20.39783477783203 15.468530654907227 22.144271850585938 L15.468530654907227 22.144271850585938 C15.393218994140625 22.161584854125977 15.31790828704834 22.17889976501465 15.242596626281738 22.196212768554688 L15.242596626281738 22.196212768554688 C15.242596626281738 20.458160400390625 15.242596626281738 18.720108032226562 15.242596626281738 16.9820556640625 C15.242596626281738 15.244003295898438 15.242596626281738 13.505950927734375 15.242596626281738 11.767898559570312 L15.242596626281738 11.767898559570312 C14.689874649047852 11.741430282592773 13.199629783630371 11.670011520385742 12.621316909790039 11.642271041870117 L12.621316909790039 11.642271041870117"></path>
<path fill="none" stroke="black" stroke-width=".3" stroke-opacity="1.0"  filling="0" d="M14.525518417358398 12.408368110656738 L14.525518417358398 12.408368110656738 C14.76276683807373 14.73581314086914 14.65592098236084 17.097274780273438 14.650531768798828 19.43545913696289 C14.64903736114502 20.083900451660156 14.863658905029297 20.770553588867188 14.644328117370605 21.380775451660156 C14.481810569763184 21.832931518554688 13.945320129394531 22.04018211364746 13.595815658569336 22.369884490966797 L13.595815658569336 22.369884490966797 C13.595815658569336 21.2419490814209 13.595815658569336 20.114013671875 13.595815658569336 18.9860782623291 L13.595815658569336 18.9860782623291 C12.427804946899414 18.90695571899414 12.308858871459961 18.898944854736328 11.100486755371094 18.817602157592773 L11.100486755371094 18.817602157592773 C11.858469009399414 18.68289566040039 12.616449356079102 18.548181533813477 13.37442684173584 18.413454055786133 L13.37442684173584 18.413454055786133 C13.378539085388184 18.297025680541992 13.382650375366211 18.18059539794922 13.386762619018555 18.064167022705078 L13.386762619018555 18.064167022705078 C12.75979232788086 18.008562088012695 12.09721851348877 18.1129207611084 11.505851745605469 17.897354125976562 C9.697427749633789 17.238140106201172 8.823487281799316 14.36943244934082 10.387231826782227 12.936628341674805 C11.49521255493164 11.921424865722656 13.296993255615234 12.354369163513184 14.525518417358398 12.408368110656738 L14.525518417358398 12.408368110656738"></path>
<path fill="none" stroke="black" stroke-width=".3" stroke-opacity="1.0"  filling="0" d="M13.47668170928955 13.338069915771484 L13.47668170928955 13.338069915771484 C13.476655960083008 14.4384126663208 13.476555824279785 15.538756370544434 13.476356506347656 16.63909912109375 L13.476356506347656 16.63909912109375 C13.04797077178955 16.756542205810547 12.632499694824219 17.042034149169922 12.19119930267334 16.99142837524414 C10.171932220458984 16.759868621826172 10.300056457519531 13.825583457946777 12.06086540222168 13.301145553588867 C12.513322830200195 13.166385650634766 13.004742622375488 13.325761795043945 13.47668170928955 13.338069915771484 L13.47668170928955 13.338069915771484"></path></svg>