<svg xmlns="http://www.w3.org/2000/svg" viewBox="0.0 0.0 24.0 24.0" height="200px" width="200px"><path fill="none" stroke="black" stroke-width=".3" stroke-opacity="1.0"  filling="0" d="M3.165163993835449 4.1514387130737305 C5.314375877380371 4.1514387130737305 7.586239337921143 4.1514387130737305 10.177671432495117 4.1514387130737305 C9.581854820251465 4.7781982421875 9.173954963684082 5.207478046417236 8.60120677947998 5.809482097625732 C10.206927299499512 9.599296569824219 11.828962326049805 13.4273681640625 13.45156192779541 17.25600242614746 C13.678297996520996 17.254878997802734 13.905034065246582 17.253190994262695 14.131208419799805 17.252065658569336 C15.741991996765137 13.430181503295898 17.353336334228516 9.608860969543457 19.035573959350586 5.6176276206970215 C18.25240707397461 5.187222957611084 17.680782318115234 4.87271785736084 17.109161376953125 4.558212757110596 C17.1412296295166 4.425434112548828 17.17386245727539 4.29321813583374 17.2059326171875 4.1604390144348145 C19.00238037109375 4.1604390144348145 20.798267364501953 4.1604390144348145 22.36516571044922 4.1604390144348145 C21.328819274902344 5.695269584655762 20.16250228881836 7.07200288772583 19.386648178100586 8.641715049743652 C17.605390548706055 12.245863914489746 16.03511619567871 15.953536987304688 14.332063674926758 19.597068786621094 C13.847084999084473 20.63510513305664 13.197819709777832 21.59606170654297 12.623947143554688 22.59246253967285 C12.340385437011719 22.5255126953125 12.056824684143066 22.45800018310547 11.773263931274414 22.39048194885254 C11.243274688720703 21.115581512451172 10.730165481567383 19.833370208740234 10.179922103881836 18.567472457885742 C8.613022804260254 14.964448928833008 7.078192710876465 11.346796035766602 5.429713249206543 7.781467914581299 C4.8620285987854 6.555517673492432 3.997281074523926 5.466846466064453 3.165163993835449 4.1514387130737305"></path></svg>