<svg xmlns="http://www.w3.org/2000/svg" viewBox="0.0 0.0 24.0 24.0" height="200px" width="200px"><path fill="none" stroke="black" stroke-width=".3" stroke-opacity="1.0"  filling="0" d="M7.030405044555664 7.585184574127197 L7.030405044555664 7.585184574127197 C7.158398151397705 7.585184574127197 10.964788436889648 7.585184574127197 10.974940299987793 7.585184574127197 L10.974940299987793 7.585184574127197 C10.679352760314941 7.8960676193237305 10.383766174316406 8.206951141357422 10.088178634643555 8.517833709716797 L10.088178634643555 8.517833709716797 C10.997550964355469 10.664087295532227 11.906978607177734 12.810311317443848 12.816503524780273 14.956501007080078 L12.816503524780273 14.956501007080078 C12.943937301635742 14.95576286315918 13.071371078491211 14.955024719238281 13.19880485534668 14.954286575317383 L13.19880485534668 14.954286575317383 C14.118314743041992 12.772805213928223 15.037975311279297 10.591386795043945 15.957509994506836 8.409915924072266 L15.957509994506836 8.409915924072266 C15.596307754516602 8.211275100708008 15.235105514526367 8.012635231018066 14.873903274536133 7.813994884490967 L14.873903274536133 7.813994884490967 C14.892047882080078 7.739412307739258 14.910192489624023 7.664829730987549 14.928337097167969 7.59024715423584 L14.928337097167969 7.59024715423584 C15.895692825317383 7.59024715423584 16.863048553466797 7.59024715423584 17.83040428161621 7.59024715423584 L17.83040428161621 7.59024715423584 C16.681873321533203 9.202417373657227 15.799750328063965 10.939115524291992 14.960892677307129 12.700424194335938 C14.122035026550293 14.461732864379883 13.326441764831543 16.247650146484375 12.350970268249512 17.95825958251953 L12.350970268249512 17.95825958251953 C12.19146728515625 17.92038917541504 12.031963348388672 17.882516860961914 11.87246036529541 17.844646453857422 L11.87246036529541 17.844646453857422 C11.156270980834961 16.10663604736328 10.468320846557617 14.326212882995605 9.698135375976562 12.5880708694458 C8.927950859069824 10.84992790222168 8.075531959533691 9.154067993164062 7.030405044555664 7.585184574127197 L7.030405044555664 7.585184574127197"></path></svg>