<svg xmlns="http://www.w3.org/2000/svg" viewBox="0.0 0.0 24.0 24.0" height="200px" width="200px"><path fill="none" stroke="black" stroke-width=".3" stroke-opacity="1.0"  filling="0" d="M8.078141212463379 13.903814315795898 L8.078141212463379 13.903814315795898 C10.404658317565918 14.330998420715332 11.462053298950195 15.851156234741211 12.994865417480469 17.550352096557617 L12.994865417480469 17.550352096557617 C13.992965698242188 16.668127059936523 14.976883888244629 14.789055824279785 16.219772338867188 14.282266616821289 C16.79218292236328 14.048866271972656 17.447233200073242 14.134430885314941 18.060964584350586 14.060513496398926 L18.060964584350586 14.060513496398926 C16.72491455078125 15.755913734436035 15.388885498046875 17.451330184936523 14.052702903747559 19.14662742614746 L14.052702903747559 19.14662742614746 C15.514738082885742 20.960783004760742 16.976810455322266 22.774906158447266 18.438798904418945 24.589096069335938 L18.438798904418945 24.589096069335938 C17.79347801208496 24.490089416503906 17.103988647460938 24.54674530029297 16.50283432006836 24.292076110839844 C15.172266006469727 23.728404998779297 14.14962387084961 21.832151412963867 13.102258682250977 20.868846893310547 L13.102258682250977 20.868846893310547 C11.819596290588379 21.77998161315918 10.96259880065918 23.52773094177246 9.589926719665527 24.225074768066406 C8.994141578674316 24.527746200561523 8.289175033569336 24.53219223022461 7.638798713684082 24.68575096130371 L7.638798713684082 24.68575096130371 C9.04708194732666 22.860124588012695 10.455249786376953 21.03441619873047 11.86331558227539 19.2086238861084 L11.86331558227539 19.2086238861084 C10.553403854370117 17.579174041748047 9.24351692199707 15.94969654083252 7.933646202087402 14.320213317871094 L7.933646202087402 14.320213317871094 C7.981811046600342 14.181413650512695 8.029975891113281 14.042613983154297 8.078141212463379 13.903814315795898 L8.078141212463379 13.903814315795898"></path></svg>