<svg xmlns="http://www.w3.org/2000/svg" viewBox="0.0 0.0 24.0 24.0" height="200px" width="200px"><path fill="none" stroke="black" stroke-width=".3" stroke-opacity="1.0"  filling="0" d="M10.659339904785156 8.932727813720703 L10.659339904785156 8.932727813720703 C11.224013328552246 8.832328796386719 11.780963897705078 8.595494270324707 12.353360176086426 8.631529808044434 C14.31879997253418 8.755266189575195 15.323802947998047 10.111687660217285 15.633756637573242 11.747286796569824 C15.943709373474121 13.382885932922363 15.558614730834961 15.297661781311035 14.74385929107666 16.53810691833496 C13.3397798538208 18.675785064697266 11.205678939819336 19.227436065673828 8.824315071105957 19.419830322265625 L8.824315071105957 19.419830322265625 C11.101544380187988 18.408733367919922 12.185770988464355 17.53778076171875 13.007412910461426 15.1510009765625 L13.007412910461426 15.1510009765625 C11.788786888122559 15.156553268432617 10.450443267822266 15.405678749084473 9.461922645568848 14.46613597869873 C7.482266426086426 12.584565162658691 9.04683780670166 10.186699867248535 10.659339904785156 8.932727813720703 L10.659339904785156 8.932727813720703"></path>
<path fill="none" stroke="black" stroke-width=".3" stroke-opacity="1.0"  filling="0" d="M11.906598091125488 9.333024978637695 L11.906598091125488 9.333024978637695 C13.19930362701416 10.013611793518066 13.667739868164062 12.094630241394043 13.303632736206055 13.54614543914795 C12.746256828308105 15.768128395080566 11.339848518371582 13.683709144592285 11.105920791625977 12.74088191986084 C11.006303787231445 12.339385032653809 10.944746017456055 11.929391860961914 10.864158630371094 11.52364730834961 L10.864158630371094 11.52364730834961 C10.902297973632812 11.515863418579102 10.940437316894531 11.50808048248291 10.97857666015625 11.500296592712402 L10.97857666015625 11.500296592712402 C10.987950325012207 10.331826210021973 10.933984756469727 10.050939559936523 11.906598091125488 9.333024978637695 L11.906598091125488 9.333024978637695"></path></svg>