<svg xmlns="http://www.w3.org/2000/svg" viewBox="0.0 0.0 24.0 24.0" height="200px" width="200px"><path fill="none" stroke="black" stroke-width=".3" stroke-opacity="1.0"  filling="0" d="M6.92978048324585 9.698095321655273 L6.92978048324585 9.698095321655273 C8.372319221496582 9.722770690917969 9.99254035949707 9.57794189453125 11.560521125793457 9.66468334197998 C13.128501892089844 9.751424789428711 14.644241333007812 10.069737434387207 15.877819061279297 11.020696640014648 C17.17721176147461 12.022392272949219 17.7873477935791 13.667472839355469 17.719881057739258 15.282646179199219 C17.652414321899414 16.89781951904297 16.9073429107666 18.48308563232422 15.496319770812988 19.365148544311523 C14.352885246276855 20.079936981201172 12.855782508850098 20.326452255249023 11.322272300720215 20.411109924316406 C9.788762092590332 20.495765686035156 8.218844413757324 20.418563842773438 6.92978048324585 20.485916137695312 L6.92978048324585 20.485916137695312 C6.92978048324585 18.687946319580078 6.92978048324585 16.88997459411621 6.92978048324585 15.092005729675293 C6.92978048324585 13.294034957885742 6.92978048324585 11.496065139770508 6.92978048324585 9.698095321655273 L6.92978048324585 9.698095321655273"></path>
<path fill="none" stroke="black" stroke-width=".3" stroke-opacity="1.0"  filling="0" d="M8.265766143798828 10.884804725646973 L8.265766143798828 10.884804725646973 C10.142056465148926 10.801705360412598 12.153372764587402 10.59902286529541 13.954792022705078 11.30639934539795 C15.237407684326172 11.810052871704102 16.064680099487305 13.005091667175293 16.31285858154297 14.313831329345703 C16.56103515625 15.622570991516113 16.230117797851562 17.045011520385742 15.196351051330566 18.003469467163086 C13.396042823791504 19.67262840270996 10.458855628967285 19.259931564331055 8.265766143798828 19.069669723510742 L8.265766143798828 19.069669723510742 C8.265766143798828 17.705524444580078 8.265766143798828 16.341381072998047 8.265766143798828 14.977237701416016 C8.265766143798828 13.613093376159668 8.265766143798828 12.24894905090332 8.265766143798828 10.884804725646973 L8.265766143798828 10.884804725646973"></path>
<path fill="none" stroke="black" stroke-width=".3" stroke-opacity="1.0"  filling="0" d="M8.975918769836426 11.565288543701172 L8.975918769836426 11.565288543701172 C10.763463973999023 11.365687370300293 13.262825012207031 11.084284782409668 14.731983184814453 12.452800750732422 C16.176671981811523 13.798523902893066 15.937698364257812 16.66946792602539 14.380434036254883 17.82697868347168 C12.959918022155762 18.882843017578125 10.634233474731445 18.644563674926758 8.975918769836426 18.74051284790039 L8.975918769836426 18.74051284790039 C8.975918769836426 16.348770141601562 8.975918769836426 13.95703125 8.975918769836426 11.565288543701172 L8.975918769836426 11.565288543701172"></path>
<path fill="none" stroke="black" stroke-width=".3" stroke-opacity="1.0"  filling="0" d="M10.346881866455078 12.686418533325195 L10.346881866455078 12.686418533325195 C11.859918594360352 12.584251403808594 12.681986808776855 12.177043914794922 13.868912696838379 13.472457885742188 C14.938464164733887 14.639769554138184 14.320247650146484 16.629539489746094 13.019847869873047 17.292543411254883 C12.326604843139648 17.6459903717041 11.048486709594727 17.506908416748047 10.346880912780762 17.48634910583496 L10.346880912780762 17.48634910583496 C10.346880912780762 15.886371612548828 10.346880912780762 14.286395072937012 10.346881866455078 12.686418533325195 L10.346881866455078 12.686418533325195"></path></svg>