<svg xmlns="http://www.w3.org/2000/svg" viewBox="0.0 0.0 24.0 24.0" height="200px" width="200px"><path fill="none" stroke="black" stroke-width=".3" stroke-opacity="1.0"  filling="0" d="M18.516382217407227 5.76650333404541 C19.858871459960938 5.76650333404541 21.260860443115234 5.76650333404541 23.087448120117188 5.76650333404541 C21.93589210510254 7.371326446533203 20.946062088012695 8.726799011230469 19.980571746826172 10.100120544433594 C16.79743003845215 14.628457069396973 12.707215309143066 18.711641311645508 13.128568649291992 24.967044830322266 C11.522664070129395 24.966503143310547 10.317018508911133 24.966503143310547 8.943696975708008 24.966503143310547 C9.177903175354004 23.66079330444336 9.238482475280762 22.477867126464844 9.612237930297852 21.403114318847656 C10.571237564086914 18.64457130432129 10.021151542663574 16.180273056030273 8.703001022338867 13.667295455932617 C7.416762351989746 11.215978622436523 6.418819904327393 8.613211631774902 5.187210559844971 5.835737705230713 C6.6627607345581055 5.835737705230713 7.9343953132629395 5.835737705230713 9.36505126953125 5.835737705230713 C10.470090866088867 8.249732971191406 11.614615440368652 10.749730110168457 12.881922721862793 13.516927719116211 C14.87077808380127 10.781102180480957 16.65463638305664 8.327080726623535 18.516382217407227 5.76650333404541"></path></svg>