<svg xmlns="http://www.w3.org/2000/svg" viewBox="0.0 0.0 24.0 24.0" height="200px" width="200px"><path fill="none" stroke="black" stroke-width=".3" stroke-opacity="1.0"  filling="0" d="M3.509796142578125 8.25246524810791 C6.122813701629639 7.854832649230957 8.14358901977539 8.60854721069336 9.858250617980957 10.787114143371582 C11.660748481750488 13.077186584472656 13.85246467590332 15.061670303344727 16.38237953186035 16.98882293701172 C16.38237953186035 14.162261962890625 16.38237953186035 11.335174560546875 16.38237953186035 8.390795707702637 C17.250755310058594 8.390795707702637 17.816699981689453 8.390795707702637 18.531490325927734 8.390795707702637 C18.531490325927734 13.119263648986816 18.531490325927734 17.788822174072266 18.531490325927734 22.798160552978516 C17.7956600189209 22.117029190063477 17.221302032470703 21.635766983032227 16.704273223876953 21.09927749633789 C13.611570358276367 17.888757705688477 10.549901008605957 14.64720630645752 7.4324774742126465 11.460881233215332 C6.827612400054932 10.842866897583008 6.020248889923096 10.422616958618164 4.760551452636719 9.520578384399414 C4.760551452636719 15.398290634155273 4.760551452636719 20.5775146484375 4.760551452636719 25.903484344482422 C3.8916501998901367 25.98974609375 3.327810287475586 26.045495986938477 2.568309783935547 26.121238708496094 C2.568309783935547 20.1925048828125 2.568309783935547 14.38264274597168 2.568309783935547 8.382905960083008 C3.001708984375 8.322945594787598 3.2562789916992188 8.291387557983398 3.509796142578125 8.25246524810791"></path>
<path fill="none" stroke="black" stroke-width=".3" stroke-opacity="1.0"  filling="0" d="M21.768306732177734 8.27192497253418 C21.768306732177734 14.195396423339844 21.768306732177734 20.01314926147461 21.768306732177734 26.008676528930664 C20.883628845214844 26.049701690673828 20.025245666503906 26.027610778808594 19.185272216796875 26.141220092773438 C17.543720245361328 26.362655639648438 16.430767059326172 25.696250915527344 15.357789993286133 24.46074867248535 C13.197630882263184 21.97238540649414 10.863377571105957 19.634449005126953 8.601181983947754 17.233922958374023 C8.394476890563965 17.317554473876953 8.18777084350586 17.401708602905273 7.981064319610596 17.48533821105957 C7.981064319610596 20.269296646118164 7.981064319610596 23.05377960205078 7.981064319610596 25.9676513671875 C7.205259323120117 26.00341796875 6.629848480224609 26.02971649169922 5.866140365600586 26.064956665039062 C5.866140365600586 21.33911895751953 5.866140365600586 16.730045318603516 5.866140365600586 11.807494163513184 C6.4383955001831055 12.259828567504883 6.971728801727295 12.591714859008789 7.395134449005127 13.030374526977539 C10.557790756225586 16.30874252319336 13.696778297424316 19.61025619506836 16.848388671875 22.899669647216797 C17.564233779907227 23.64654541015625 18.205915451049805 24.60118293762207 19.696514129638672 23.91531753540039 C19.696514129638672 18.86968994140625 19.696514129638672 13.727808952331543 19.696514129638672 8.398157119750977 C20.45391082763672 8.351871490478516 21.018802642822266 8.317684173583984 21.768306732177734 8.27192497253418"></path></svg>