<svg xmlns="http://www.w3.org/2000/svg" viewBox="0.0 0.0 24.0 24.0" height="200px" width="200px"><path fill="none" stroke="black" stroke-width=".3" stroke-opacity="1.0"  filling="0" d="M7.999924659729004 8.514619827270508 L7.999924659729004 8.514619827270508 C9.226204872131348 8.514619827270508 10.452484130859375 8.514619827270508 11.678764343261719 8.514619827270508 L11.678764343261719 8.514619827270508 C9.84239387512207 9.963627815246582 9.563155174255371 12.280142784118652 9.00403881072998 14.509349822998047 C8.77550220489502 15.420528411865234 8.485979080200195 16.62163734436035 8.829648971557617 17.553913116455078 C9.294535636901855 18.81501579284668 10.496875762939453 18.8714599609375 11.578290939331055 19.23910903930664 L11.578290939331055 19.23910903930664 C10.904804229736328 19.222421646118164 10.211874961853027 19.35056495666504 9.557829856872559 19.18904685974121 C7.850698471069336 18.767467498779297 7.391240119934082 17.53489875793457 7.436381816864014 16.129104614257812 C7.481523513793945 14.723311424255371 8.031265258789062 13.144293785095215 8.342534065246582 12.029816627502441 C8.393207550048828 11.848382949829102 9.026863098144531 9.733498573303223 8.900444030761719 9.377461433410645 C8.761341094970703 8.985701560974121 8.300097465515137 8.802233695983887 7.999924659729004 8.514619827270508 L7.999924659729004 8.514619827270508"></path>
<path fill="none" stroke="black" stroke-width=".3" stroke-opacity="1.0"  filling="0" d="M15.558863639831543 8.56548023223877 L15.558863639831543 8.56548023223877 C16.434940338134766 8.56548023223877 17.311017990112305 8.56548023223877 18.187095642089844 8.56548023223877 L18.187095642089844 8.56548023223877 C16.837324142456055 9.635706901550293 16.128997802734375 11.366093635559082 15.54203987121582 13.207990646362305 C14.955083847045898 15.049887657165527 14.489498138427734 17.0032958984375 13.62520980834961 18.51956558227539 L13.62520980834961 18.51956558227539 C13.509758949279785 18.443222045898438 13.394307136535645 18.366878509521484 13.27885627746582 18.29053497314453 L13.27885627746582 18.29053497314453 C14.000362396240234 16.894683837890625 14.795036315917969 15.23917007446289 15.2969970703125 13.544743537902832 C15.798957824707031 11.850317001342773 16.008207321166992 10.116978645324707 15.558863639831543 8.56548023223877 L15.558863639831543 8.56548023223877"></path></svg>