<svg xmlns="http://www.w3.org/2000/svg" viewBox="0.0 0.0 24.0 24.0" height="200px" width="200px"><path fill="none" stroke="black" stroke-width=".3" stroke-opacity="1.0"  filling="0" d="M4.5572075843811035 8.825080871582031 C5.921267032623291 12.552682876586914 7.264382362365723 16.223270416259766 8.736652374267578 20.246414184570312 C10.020039558410645 16.886489868164062 11.168843269348145 13.87989616394043 12.317258834838867 10.87330436706543 C12.438655853271484 10.870588302612305 12.559663772583008 10.867486000061035 12.681059837341309 10.864770889282227 C13.819780349731445 13.833354949951172 14.958500862121582 16.802326202392578 16.278345108032227 20.243698120117188 C17.739364624023438 16.247318267822266 19.064640045166016 12.622106552124023 20.41124725341797 8.936393737792969 C20.939882278442383 8.936393737792969 21.433223724365234 8.936393737792969 22.104976654052734 8.936393737792969 C20.477182388305664 13.317906379699707 18.892047882080078 17.584228515625 17.275888442993164 21.935100555419922 C16.676664352416992 21.988624572753906 16.11855125427246 22.038265228271484 15.384744644165039 22.10381507873535 C14.48493766784668 19.774789810180664 13.593276977539062 17.46593475341797 12.701616287231445 15.157466888427734 C12.563542366027832 15.168713569641113 12.425468444824219 15.17918586730957 12.287394523620605 15.190045356750488 C11.439172744750977 17.40736961364746 10.590950012207031 19.624691009521484 9.703166961669922 21.945960998535156 C9.102392196655273 21.945960998535156 8.485713958740234 21.945960998535156 7.718939304351807 21.945960998535156 C6.143115520477295 17.709501266479492 4.552941799163818 13.43348503112793 2.9049768447875977 9.003878593444824 C3.5014867782592773 8.939107894897461 3.9696178436279297 8.888689041137695 4.5572075843811035 8.825080871582031"></path>
<path fill="none" stroke="black" stroke-width=".3" stroke-opacity="1.0"  filling="0" d="M19.545570373535156 8.854557991027832 C18.464252471923828 11.967033386230469 17.4484806060791 14.889463424682617 16.281835556030273 18.247447967529297 C15.05313491821289 14.917000770568848 13.993147850036621 12.043050765991211 12.871881484985352 9.002715110778809 C13.481576919555664 9.002715110778809 13.986942291259766 9.002715110778809 14.53768539428711 9.002715110778809 C15.055461883544922 10.356302261352539 15.55888843536377 11.671880722045898 16.206979751586914 13.366386413574219 C16.81900405883789 11.72889518737793 17.315059661865234 10.402069091796875 17.850290298461914 8.9693603515625 C18.312992095947266 8.937944412231445 18.798189163208008 8.905365943908691 19.545570373535156 8.854557991027832"></path>
<path fill="none" stroke="black" stroke-width=".3" stroke-opacity="1.0"  filling="0" d="M5.473303318023682 8.955010414123535 C6.146218299865723 8.955010414123535 6.6360697746276855 8.955010414123535 7.152294635772705 8.955010414123535 C7.678991794586182 10.412927627563477 8.17815113067627 11.794441223144531 8.775823593139648 13.44899845123291 C9.28933334350586 12.09385871887207 9.687652587890625 11.016031265258789 10.105752944946289 9.94596004486084 C10.509502410888672 8.912346839904785 10.51842212677002 8.915837287902832 12.140012741088867 9.004654884338379 C11.044731140136719 11.985650062561035 9.968454360961914 14.915449142456055 8.747122764587402 18.24046516418457 C7.595216751098633 14.974401473999023 6.572074890136719 12.072526931762695 5.473303318023682 8.955010414123535"></path></svg>