<svg xmlns="http://www.w3.org/2000/svg" viewBox="0.0 0.0 24.0 24.0" height="200px" width="200px"><path fill="none" stroke="black" stroke-width=".3" stroke-opacity="1.0"  filling="0" d="M7.813429355621338 10.214107513427734 L7.813429355621338 10.214107513427734 C8.597070693969727 12.355608940124512 9.38070297241211 14.497114181518555 10.164366722106934 16.638607025146484 L10.164366722106934 16.638607025146484 C10.835716247558594 14.881144523620605 11.507108688354492 13.123697280883789 12.178458213806152 11.366233825683594 L12.178458213806152 11.366233825683594 C12.246670722961426 11.364633560180664 12.314884185791016 11.36303424835205 12.383096694946289 11.361433982849121 L12.383096694946289 11.361433982849121 C13.057625770568848 13.119969367980957 13.732109069824219 14.878517150878906 14.40656852722168 16.637081146240234 L14.40656852722168 16.637081146240234 C15.181621551513672 14.517010688781738 15.95659351348877 12.396909713745117 16.731325149536133 10.276721954345703 L16.731325149536133 10.276721954345703 C17.048900604248047 10.276721954345703 17.366474151611328 10.276721954345703 17.684049606323242 10.276721954345703 L17.684049606323242 10.276721954345703 C17.231307983398438 11.495344161987305 16.778564453125 12.713967323303223 16.32583236694336 13.932595252990723 C15.873101234436035 15.151222229003906 15.420381546020508 16.369853973388672 14.967686653137207 17.58849334716797 L14.967686653137207 17.58849334716797 C14.613097190856934 17.620126724243164 14.25850772857666 17.651762008666992 13.903918266296387 17.683395385742188 L13.903918266296387 17.683395385742188 C13.400788307189941 16.380971908569336 12.897721290588379 15.07852554321289 12.394659042358398 13.77607536315918 L12.394659042358398 13.77607536315918 C12.31699275970459 13.782183647155762 12.239325523376465 13.788291931152344 12.161659240722656 13.794400215148926 L12.161659240722656 13.794400215148926 C11.677087783813477 15.061120986938477 11.192538261413574 16.327856063842773 10.70803165435791 17.594602584838867 L10.70803165435791 17.594602584838867 C10.335988998413086 17.594602584838867 9.963946342468262 17.594602584838867 9.591903686523438 17.594602584838867 L9.591903686523438 17.594602584838867 C9.140605926513672 16.38127899169922 8.68931770324707 15.167949676513672 8.238017082214355 13.95462703704834 C7.786715984344482 12.741304397583008 7.33540153503418 11.527986526489258 6.884049892425537 10.314682006835938 L6.884049892425537 10.314682006835938 C7.193842887878418 10.281157493591309 7.503636360168457 10.247632026672363 7.813429355621338 10.214107513427734 L7.813429355621338 10.214107513427734"></path>
<path fill="none" stroke="black" stroke-width=".3" stroke-opacity="1.0"  filling="0" d="M16.244382858276367 10.23068904876709 L16.244382858276367 10.23068904876709 C15.632453918457031 11.991863250732422 15.020469665527344 13.753016471862793 14.408533096313477 15.514188766479492 L14.408533096313477 15.514188766479492 C13.76909351348877 13.780827522277832 13.129732131958008 12.047440528869629 12.490432739257812 10.314027786254883 L12.490432739257812 10.314027786254883 C12.80277156829834 10.314027786254883 13.11510944366455 10.314027786254883 13.427448272705078 10.314027786254883 L13.427448272705078 10.314027786254883 C13.740453720092773 11.132210731506348 14.053444862365723 11.950400352478027 14.366425514221191 12.768592834472656 L14.366425514221191 12.768592834472656 C14.674577713012695 11.944162368774414 14.98270034790039 11.119720458984375 15.290787696838379 10.295265197753906 L15.290787696838379 10.295265197753906 C15.60865306854248 10.2737398147583 15.926517486572266 10.252214431762695 16.244382858276367 10.23068904876709 L16.244382858276367 10.23068904876709"></path>
<path fill="none" stroke="black" stroke-width=".3" stroke-opacity="1.0"  filling="0" d="M8.328733444213867 10.287193298339844 L8.328733444213867 10.287193298339844 C8.64354419708252 10.287193298339844 8.958354949951172 10.287193298339844 9.273165702819824 10.287193298339844 L9.273165702819824 10.287193298339844 C9.295801162719727 10.349847793579102 10.18288516998291 12.805330276489258 10.186400413513184 12.815061569213867 L10.186400413513184 12.815061569213867 C10.726884841918945 11.381659507751465 10.633965492248535 10.983660697937012 12.078757286071777 10.315118789672852 L12.078757286071777 10.315118789672852 C11.442533493041992 12.046810150146484 10.806371688842773 13.778531074523926 10.170256614685059 15.510261535644531 L10.170256614685059 15.510261535644531 C9.556292533874512 13.769283294677734 8.942445755004883 12.028261184692383 8.328733444213867 10.287193298339844 L8.328733444213867 10.287193298339844"></path></svg>