<svg xmlns="http://www.w3.org/2000/svg" viewBox="0.0 0.0 24.0 24.0" height="200px" width="200px"><path fill="none" stroke="black" stroke-width=".3" stroke-opacity="1.0"  filling="0" d="M10.602531433105469 12.301299095153809 C10.036552429199219 14.645116806030273 9.577943801879883 16.546138763427734 9.091867446899414 18.562023162841797 C9.63121223449707 18.606136322021484 10.05819320678711 18.64192771911621 10.497658729553223 18.677715301513672 C8.699844360351562 22.909242630004883 6.903693199157715 27.135772705078125 5.065094470977783 31.463842391967773 C4.314340114593506 31.430551528930664 3.526963233947754 31.395593643188477 2.465752601623535 31.3481502532959 C3.7941389083862305 26.300952911376953 5.136673450469971 21.568370819091797 6.222021579742432 16.77669334411621 C6.452574729919434 15.758764266967773 5.746765613555908 14.528592109680176 5.419662952423096 13.178566932678223 C6.598231315612793 12.978809356689453 8.32779598236084 12.685832023620605 10.602531433105469 12.301299095153809"></path>
<path fill="none" stroke="black" stroke-width=".3" stroke-opacity="1.0"  filling="0" d="M18.69186782836914 12.931367874145508 C19.535009384155273 13.616369247436523 20.070194244384766 15.379226684570312 19.867107391357422 16.520339965820312 C19.26783561706543 19.890411376953125 18.190811157226562 23.17308807373047 17.404266357421875 26.514862060546875 C17.1279354095459 27.69009780883789 17.154571533203125 28.936084747314453 16.980615615844727 30.81879997253418 C16.464574813842773 30.922840118408203 15.190289497375488 31.18085289001465 13.603883743286133 31.501300811767578 C13.32172679901123 24.828577041625977 17.833744049072266 19.581621170043945 15.757101058959961 13.017097473144531 C16.349712371826172 12.974649429321289 17.996877670288086 12.366222381591797 18.69186782836914 12.931367874145508"></path></svg>