<svg xmlns="http://www.w3.org/2000/svg" viewBox="0.0 0.0 24.0 24.0" height="200px" width="200px"><path fill="none" stroke="black" stroke-width=".3" stroke-opacity="1.0"  filling="0" d="M12.230313301086426 9.45908260345459 L12.230313301086426 9.45908260345459 C13.995892524719238 9.745660781860352 15.450128555297852 10.07823657989502 16.596689224243164 11.600228309631348 C17.950775146484375 13.397697448730469 17.86974334716797 15.460176467895508 16.925395965576172 17.06931495666504 C15.981051445007324 18.678455352783203 14.173393249511719 19.83425521850586 12.074233055114746 19.81836700439453 C9.964902877807617 19.80240249633789 8.248703956604004 18.589445114135742 7.3918962478637695 16.9477596282959 C6.535087585449219 15.306076049804688 6.5376691818237305 13.235666275024414 7.865899085998535 11.504801750183105 C9.021929740905762 9.998334884643555 10.468684196472168 9.70344352722168 12.230313301086426 9.45908260345459 L12.230313301086426 9.45908260345459"></path>
<path fill="none" stroke="black" stroke-width=".3" stroke-opacity="1.0"  filling="0" d="M12.15446949005127 10.539345741271973 L12.15446949005127 10.539345741271973 C13.854398727416992 10.839107513427734 15.284414291381836 11.179390907287598 16.006793975830078 12.974386215209961 C16.561199188232422 14.3519926071167 16.369388580322266 15.804290771484375 15.662601470947266 16.916641235351562 C14.955815315246582 18.02899169921875 13.734052658081055 18.8013973236084 12.228556632995605 18.819217681884766 C10.714231491088867 18.837142944335938 9.480133056640625 18.082317352294922 8.758122444152832 16.977758407592773 C8.036111831665039 15.873199462890625 7.826188087463379 14.418904304504395 8.360209465026855 13.037885665893555 C9.057685852050781 11.234159469604492 10.455574989318848 10.867095947265625 12.15446949005127 10.539345741271973 L12.15446949005127 10.539345741271973"></path>
<path fill="none" stroke="black" stroke-width=".3" stroke-opacity="1.0"  filling="0" d="M12.194881439208984 11.085772514343262 L12.194881439208984 11.085772514343262 C13.65902328491211 11.47594165802002 14.39001750946045 11.34827709197998 15.211241722106934 12.820151329040527 C16.51519775390625 15.15722370147705 15.064640045166016 18.20334243774414 12.283023834228516 18.23120880126953 C9.53809642791748 18.25870704650879 7.836211681365967 15.287093162536621 9.106982231140137 12.890149116516113 C9.919761657714844 11.357074737548828 10.697197914123535 11.487850189208984 12.194881439208984 11.085772514343262 L12.194881439208984 11.085772514343262"></path>
<path fill="none" stroke="black" stroke-width=".3" stroke-opacity="1.0"  filling="0" d="M12.29093074798584 12.10395622253418 L12.29093074798584 12.10395622253418 C12.831049919128418 12.388077735900879 13.532742500305176 12.477619171142578 13.91128921508789 12.956321716308594 C15.12585735321045 14.492239952087402 14.262454986572266 17.349388122558594 12.020058631896973 17.179349899291992 C9.865118026733398 17.01594352722168 9.314142227172852 14.111414909362793 10.655160903930664 12.749361991882324 C11.06640338897705 12.331668853759766 11.745674133300781 12.319091796875 12.29093074798584 12.10395622253418 L12.29093074798584 12.10395622253418"></path></svg>