<svg xmlns="http://www.w3.org/2000/svg" viewBox="0.0 0.0 24.0 24.0" height="200px" width="200px"><path fill="none" stroke="black" stroke-width=".3" stroke-opacity="1.0"  filling="0" d="M7.314474582672119 11.631780624389648 C7.7968621253967285 14.905649185180664 8.249865531921387 17.979949951171875 8.784287452697754 21.603364944458008 C10.860756874084473 18.149518966674805 12.747455596923828 15.012165069580078 14.633541107177734 11.875422477722168 C14.812905311584473 11.915212631225586 14.99288272857666 11.955615997314453 15.172246932983398 11.995407104492188 C15.523630142211914 15.339062690734863 15.874402046203613 18.68271827697754 16.27904510498047 22.53569793701172 C17.821704864501953 20.950794219970703 19.007471084594727 19.731969833374023 20.193851470947266 18.513147354125977 L20.134471893310547 18.462337493896484 C19.095623016357422 21.400127410888672 16.785919189453125 23.366409301757812 14.413773536682129 25.575716018676758 C14.071572303771973 22.71261215209961 13.729982376098633 19.848896026611328 13.305139541625977 16.292205810546875 C11.054813385009766 19.7601318359375 9.155872344970703 22.687511444091797 7.256930828094482 25.61489486694336 C7.086136817932129 25.578777313232422 6.914729595184326 25.54204750061035 6.743935585021973 25.50592803955078 C6.5174336433410645 22.53692054748535 6.276852130889893 19.569133758544922 6.0687150955200195 16.598901748657227 C5.937711238861084 14.723834991455078 5.626730442047119 12.998748779296875 3.331716537475586 12.42820930480957 C4.504016876220703 12.19374942779541 5.6769280433654785 11.95928955078125 7.314474582672119 11.631780624389648"></path>
<path fill="none" stroke="black" stroke-width=".3" stroke-opacity="1.0"  filling="0" d="M21.431652069091797 11.918275833129883 C21.928733825683594 12.444127082824707 22.674964904785156 13.334829330444336 22.50661849975586 13.782323837280273 C21.895061492919922 15.409463882446289 20.95232582092285 16.912944793701172 20.134469985961914 18.46295166015625 L20.193241119384766 18.512537002563477 C20.54462432861328 17.38125228881836 20.895395278930664 16.24996566772461 21.275550842285156 15.026247024536133 C20.88315200805664 14.335721969604492 20.446063995361328 13.566841125488281 19.88409423828125 12.578803062438965 C20.515239715576172 12.298430442810059 21.310443878173828 11.78972053527832 21.431652069091797 11.918275833129883"></path></svg>