<svg xmlns="http://www.w3.org/2000/svg" viewBox="0.0 0.0 24.0 24.0" height="200px" width="200px"><path fill="none" stroke="black" stroke-width=".3" stroke-opacity="1.0"  filling="0" d="M11.79128360748291 8.667745590209961 L11.79128360748291 8.667745590209961 C13.393230438232422 8.644468307495117 14.943068504333496 8.83349895477295 16.54274559020996 8.918893814086914 L16.54274559020996 8.918893814086914 C16.62648582458496 9.824945449829102 16.71019744873047 10.730999946594238 16.793893814086914 11.637056350708008 L16.793893814086914 11.637056350708008 C16.731889724731445 11.658872604370117 16.669885635375977 11.680689811706543 16.607881546020508 11.702506065368652 L16.607881546020508 11.702506065368652 C16.021461486816406 10.760467529296875 15.693340301513672 10.021500587463379 14.592472076416016 9.447001457214355 C12.023606300354004 8.106412887573242 10.162692070007324 10.07020378112793 9.574274063110352 12.5421724319458 C8.985856056213379 15.014140129089355 9.669934272766113 17.994285583496094 12.191052436828613 18.6864070892334 C13.407988548278809 19.020492553710938 14.215707778930664 18.711345672607422 15.358089447021484 18.456575393676758 L15.358089447021484 18.456575393676758 C13.775752067565918 19.14581871032715 13.273641586303711 19.669797897338867 11.500638961791992 19.29500389099121 C9.544732093811035 18.881546020507812 8.324031829833984 17.37822151184082 7.879917144775391 15.624442100524902 C7.435803413391113 13.8706636428833 7.768275260925293 11.866430282592773 8.918713569641113 10.451159477233887 C9.92021369934082 9.219112396240234 10.3663969039917 9.24875259399414 11.79128360748291 8.667745590209961 L11.79128360748291 8.667745590209961"></path></svg>