<svg xmlns="http://www.w3.org/2000/svg" viewBox="0.0 0.0 24.0 24.0" height="200px" width="200px"><path fill="none" stroke="black" stroke-width=".3" stroke-opacity="1.0"  filling="0" d="M10.320541381835938 5.997415542602539 C11.687276840209961 5.997415542602539 13.022860527038574 5.997415542602539 14.358445167541504 5.997415542602539 C14.370613098144531 6.141487121582031 14.382295608520508 6.285072326660156 14.394463539123535 6.429144382476807 C13.34069538116455 6.550825119018555 12.286927223205566 6.672994136810303 11.095900535583496 6.810738563537598 C11.095900535583496 12.650514602661133 11.095900535583496 18.426528930664062 11.095900535583496 24.273117065429688 C12.281085968017578 24.416702270507812 13.33874797821045 24.54471206665039 14.39689826965332 24.67272186279297 C14.36477279663086 24.847457885742188 14.333135604858398 25.022193908691406 14.30101203918457 25.19741439819336 C13.029675483703613 25.19741439819336 11.758338928222656 25.19741439819336 10.320541381835938 25.19741439819336 C10.320541381835938 18.808610916137695 10.320541381835938 12.473831176757812 10.320541381835938 5.997415542602539"></path>
<path fill="none" stroke="black" stroke-width=".3" stroke-opacity="1.0"  filling="0" d="M14.367206573486328 7.500919818878174 C14.3915433883667 7.687337398529053 14.41588020324707 7.873754501342773 14.439729690551758 8.059684753417969 C13.963221549987793 8.17552661895752 13.486227035522461 8.290881156921387 12.908966064453125 8.431058883666992 C12.908966064453125 10.33173656463623 12.908966064453125 12.252856254577637 12.908966064453125 14.36915397644043 C13.390340805053711 14.488889694213867 13.912115097045898 14.618358612060547 14.43388843536377 14.748315811157227 C14.409065246582031 14.879244804382324 14.384242057800293 15.009689331054688 14.359418869018555 15.140619277954102 C13.580652236938477 15.141106605529785 12.801885604858398 15.141106605529785 11.98418140411377 15.141106605529785 C11.98418140411377 12.56582260131836 11.98418140411377 10.235363960266113 11.98418140411377 7.636717319488525 C12.801399230957031 7.589991569519043 13.58454704284668 7.545699119567871 14.367206573486328 7.500919818878174"></path>
<path fill="none" stroke="black" stroke-width=".3" stroke-opacity="1.0"  filling="0" d="M12.088828086853027 16.205097198486328 C13.012152671813965 16.25960922241211 13.693086624145508 16.299522399902344 14.37402057647705 16.339920043945312 C14.397871017456055 16.4786376953125 14.42220687866211 16.616870880126953 14.446056365966797 16.75558853149414 C13.999238967895508 16.885543823242188 13.552422523498535 17.015987396240234 12.951798439025879 17.190723419189453 C12.951798439025879 18.962902069091797 12.951798439025879 20.78278350830078 12.951798439025879 22.627483367919922 C13.448748588562012 22.779830932617188 13.927690505981445 22.92682647705078 14.406145095825195 23.073816299438477 C14.399331092834473 23.22226905822754 14.392516136169434 23.3702335357666 14.385702133178711 23.518686294555664 C13.676538467407227 23.55860137939453 12.967373847961426 23.5985107421875 12.088828086853027 23.648157119750977 C12.088828086853027 21.11862564086914 12.088828086853027 18.830026626586914 12.088828086853027 16.205097198486328"></path></svg>