<svg xmlns="http://www.w3.org/2000/svg" viewBox="0.0 0.0 24.0 24.0" height="200px" width="200px"><path fill="none" stroke="black" stroke-width=".3" stroke-opacity="1.0"  filling="0" d="M11.689718246459961 10.991969108581543 L11.689718246459961 10.991969108581543 C14.683306694030762 10.500378608703613 15.67160415649414 12.46988296508789 17.308361053466797 14.748917579650879 L17.308361053466797 14.748917579650879 C15.127583503723145 15.344449996948242 12.9468355178833 15.940074920654297 10.766098022460938 16.535751342773438 L10.766098022460938 16.535751342773438 C10.982122421264648 17.178783416748047 11.067428588867188 17.88181495666504 11.41417121887207 18.464845657348633 C12.59166145324707 20.44473648071289 15.231734275817871 19.12976837158203 16.771432876586914 18.677785873413086 L16.771432876586914 18.677785873413086 C15.992136001586914 19.860185623168945 15.964737892150879 20.213085174560547 14.654568672180176 20.9177188873291 C11.966924667358398 22.36318588256836 9.667130470275879 21.370071411132812 8.4794282913208 19.499839782714844 C7.291726589202881 17.629608154296875 7.216116905212402 14.882257461547852 8.976842880249023 12.81925106048584 C9.931591033935547 11.700592994689941 10.395858764648438 11.635710716247559 11.689718246459961 10.991969108581543 L11.689718246459961 10.991969108581543"></path>
<path fill="none" stroke="black" stroke-width=".3" stroke-opacity="1.0"  filling="0" d="M12.3118314743042 11.741086959838867 L12.3118314743042 11.741086959838867 C12.428816795349121 11.927228927612305 14.027507781982422 14.471336364746094 14.043941497802734 14.497489929199219 L14.043941497802734 14.497489929199219 C13.94662857055664 14.526030540466309 11.323906898498535 15.295269012451172 11.03920841217041 15.378774642944336 L11.03920841217041 15.378774642944336 C10.862125396728516 15.228021621704102 10.685042381286621 15.077269554138184 10.507959365844727 14.92651653289795 L10.507959365844727 14.92651653289795 C10.86646842956543 13.903614044189453 11.224936485290527 12.880696296691895 11.583364486694336 11.857765197753906 L11.583364486694336 11.857765197753906 C11.826187133789062 11.818872451782227 12.069008827209473 11.779979705810547 12.3118314743042 11.741086959838867 L12.3118314743042 11.741086959838867"></path></svg>