<svg xmlns="http://www.w3.org/2000/svg" viewBox="0.0 0.0 24.0 24.0" height="200px" width="200px"><path fill="none" stroke="black" stroke-width=".3" stroke-opacity="1.0"  filling="0" d="M7.505359172821045 8.659684181213379 L7.505359172821045 8.659684181213379 C8.954399108886719 8.659684181213379 10.403436660766602 8.659684181213379 11.852477073669434 8.659684181213379 L11.852477073669434 8.659684181213379 C11.420212745666504 8.960241317749023 10.832660675048828 9.113615989685059 10.555684089660645 9.561355590820312 C10.181055068969727 10.166953086853027 10.334563255310059 12.486648559570312 10.337331771850586 13.032610893249512 C10.346693992614746 14.878654479980469 10.314520835876465 16.677846908569336 10.472723960876465 18.51885223388672 L10.472723960876465 18.51885223388672 C13.220185279846191 19.127344131469727 14.477005004882812 18.974626541137695 16.4376220703125 16.915660858154297 L16.4376220703125 16.915660858154297 C16.227773666381836 17.77533721923828 15.97212028503418 18.62481689453125 15.67779541015625 19.459354400634766 L15.67779541015625 19.459354400634766 C14.323789596557617 19.459487915039062 12.969783782958984 19.45956802368164 11.615777969360352 19.459617614746094 C10.261772155761719 19.459667205810547 8.907766342163086 19.45968246459961 7.553760051727295 19.459684371948242 L7.553760051727295 19.459684371948242 C8.574647903442383 18.67084503173828 8.883959770202637 17.489463806152344 8.9392671585083 16.20584487915039 C8.994574546813965 14.922224044799805 8.795877456665039 13.536365509033203 8.800747871398926 12.33857250213623 C8.802260398864746 11.966652870178223 8.905900955200195 9.882009506225586 8.596821784973145 9.402355194091797 C8.35845947265625 9.032444953918457 7.869180202484131 8.907240867614746 7.505359172821045 8.659684181213379 L7.505359172821045 8.659684181213379"></path></svg>