<svg xmlns="http://www.w3.org/2000/svg" viewBox="0.0 0.0 24.0 24.0" height="200px" width="200px"><path fill="none" stroke="black" stroke-width=".3" stroke-opacity="1.0"  filling="0" d="M6.393411636352539 6.741522789001465 C9.946466445922852 11.059436798095703 13.46382999420166 15.33397388458252 17.423748016357422 20.146053314208984 C17.423748016357422 15.945642471313477 17.51983642578125 12.433767318725586 17.345779418945312 8.93507194519043 C17.309541702270508 8.202058792114258 16.27783203125 7.51846170425415 15.747976303100586 6.8656134605407715 C17.216747283935547 6.8656134605407715 18.96060562133789 6.8656134605407715 20.704463958740234 6.8656134605407715 C18.68222427368164 7.3592305183410645 18.756351470947266 8.955936431884766 18.7618408203125 10.53617000579834 C18.77446937561035 14.378036499023438 18.77556800842285 18.2193546295166 18.764585494995117 22.061222076416016 C18.7618408203125 22.934246063232422 18.691558837890625 23.807275772094727 18.123268127441406 24.94495391845703 C14.309953689575195 20.29210662841797 10.496637344360352 15.639257431030273 6.26273250579834 10.473573684692383 C6.26273250579834 14.8848295211792 6.151819705963135 18.606998443603516 6.343995571136475 22.313243865966797 C6.3890180587768555 23.19396209716797 7.44873046875 24.02306365966797 7.985175132751465 24.794509887695312 C6.56691837310791 24.794509887695312 4.83898401260376 24.794509887695312 2.380232810974121 24.794509887695312 C4.782429218292236 24.065340042114258 5.189842224121094 22.762386322021484 5.131640434265137 21.03939437866211 C5.026218414306641 17.932735443115234 5.104186058044434 14.820039749145508 5.100342273712158 11.709538459777832 C5.096499443054199 8.383800506591797 5.078380584716797 8.361837387084961 1.5039119720458984 6.909538269042969 C2.726149559020996 6.832119941711426 3.4393959045410156 6.76897668838501 4.154838562011719 6.746464252471924 C4.88071346282959 6.723952293395996 5.608236789703369 6.741522789001465 6.393411636352539 6.741522789001465"></path></svg>