<svg xmlns="http://www.w3.org/2000/svg" viewBox="0.0 0.0 24.0 24.0" height="200px" width="200px"><path fill="none" stroke="black" stroke-width=".3" stroke-opacity="1.0"  filling="0" d="M13.31093692779541 8.738313674926758 L13.31093692779541 8.738313674926758 C13.891186714172363 8.80197811126709 14.471437454223633 8.865641593933105 15.051687240600586 8.929306030273438 L15.051687240600586 8.929306030273438 C15.051687240600586 9.330286979675293 15.051687240600586 11.74467945098877 15.051687240600586 11.938775062561035 L15.051687240600586 11.938775062561035 C14.479560852050781 10.719827651977539 11.224760055541992 6.858697891235352 10.249748229980469 10.361289024353027 C9.965049743652344 11.384029388427734 11.08718490600586 12.091132164001465 11.708992958068848 12.507314682006836 C13.024532318115234 13.387819290161133 14.97087574005127 13.95376968383789 15.600948333740234 15.591598510742188 C16.585065841674805 18.149742126464844 13.89023494720459 19.47943878173828 11.84912109375 19.222457885742188 C10.933891296386719 19.107227325439453 10.02283763885498 18.95745277404785 9.105345726013184 18.861892700195312 L9.105345726013184 18.861892700195312 C9.105345726013184 18.054716110229492 9.105345726013184 17.24753761291504 9.105345726013184 16.44036102294922 L9.105345726013184 16.44036102294922 C9.17098331451416 16.428314208984375 9.236621856689453 16.4162654876709 9.30225944519043 16.404218673706055 L9.30225944519043 16.404218673706055 C9.997760772705078 17.860427856445312 13.437850952148438 20.552146911621094 14.294879913330078 17.40093421936035 C14.445341110229492 16.84770393371582 14.028374671936035 16.256900787353516 13.699466705322266 15.787304878234863 C12.743556022644043 14.422510147094727 10.49086856842041 14.27535629272461 9.434688568115234 12.824180603027344 C8.11086368560791 11.005265235900879 9.52486515045166 8.682208061218262 11.617280960083008 8.530887603759766 C12.184569358825684 8.489862442016602 12.746384620666504 8.669171333312988 13.31093692779541 8.738313674926758 L13.31093692779541 8.738313674926758"></path></svg>