<svg xmlns="http://www.w3.org/2000/svg" viewBox="0.0 0.0 24.0 24.0" height="200px" width="200px"><path fill="none" stroke="black" stroke-width=".3" stroke-opacity="1.0"  filling="0" d="M13.353937149047852 6.745621681213379 L13.353937149047852 6.745621681213379 C14.103935241699219 6.676219940185547 14.881460189819336 7.021760940551758 15.50084114074707 7.450342178344727 L15.50084114074707 7.450342178344727 C15.270092010498047 7.862988471984863 15.039341926574707 8.275634765625 14.808592796325684 8.688281059265137 L14.808592796325684 8.688281059265137 C14.703179359436035 8.625131607055664 12.996373176574707 7.602552890777588 12.89898681640625 7.544201374053955 L12.89898681640625 7.544201374053955 C12.391826629638672 8.719870567321777 12.099852561950684 10.017929077148438 12.085439682006836 11.29824161529541 L12.085439682006836 11.29824161529541 C12.721162796020508 11.49777889251709 13.314452171325684 11.91101360321045 13.734048843383789 12.428601264953613 L13.734048843383789 12.428601264953613 C13.16465950012207 12.50655746459961 12.595270156860352 12.584512710571289 12.025880813598633 12.662468910217285 L12.025880813598633 12.662468910217285 C12.002467155456543 14.727001190185547 11.667927742004395 15.841048240661621 13.10915470123291 17.397193908691406 L13.10915470123291 17.397193908691406 C12.850224494934082 17.397193908691406 9.698874473571777 17.397193908691406 9.38442611694336 17.397193908691406 L9.38442611694336 17.397193908691406 C10.252303123474121 15.392632484436035 10.591594696044922 14.338067054748535 9.550939559936523 12.366235733032227 L9.550939559936523 12.366235733032227 C10.490715026855469 9.797433853149414 10.758122444152832 8.115859985351562 13.353937149047852 6.745621681213379 L13.353937149047852 6.745621681213379"></path></svg>