<svg xmlns="http://www.w3.org/2000/svg" viewBox="0.0 0.0 24.0 24.0" height="200px" width="200px"><path fill="none" stroke="black" stroke-width=".3" stroke-opacity="1.0"  filling="0" d="M10.595376014709473 8.26919937133789 L10.595376014709473 8.26919937133789 C10.595376014709473 9.771924018859863 10.595376014709473 11.274648666381836 10.595376014709473 12.777373313903809 L10.595376014709473 12.777373313903809 C11.276156425476074 12.52550220489502 12.526436805725098 12.042926788330078 13.020600318908691 12.076619148254395 C14.48647689819336 12.17656421661377 14.915070533752441 13.390094757080078 15.163599967956543 14.591939926147461 C15.570846557617188 16.561317443847656 14.236183166503906 18.807117462158203 12.15346908569336 19.0505428314209 C9.534664154052734 19.356626510620117 9.417930603027344 17.46453285217285 9.434903144836426 15.520956039428711 C9.452289581298828 13.530020713806152 10.154328346252441 10.459626197814941 8.436267852783203 9.21304702758789 L8.436267852783203 9.21304702758789 C9.155939102172852 8.898359298706055 9.875645637512207 8.583752632141113 10.595376014709473 8.26919937133789 L10.595376014709473 8.26919937133789"></path>
<path fill="none" stroke="black" stroke-width=".3" stroke-opacity="1.0"  filling="0" d="M11.607002258300781 12.94741439819336 L11.607002258300781 12.94741439819336 C13.62474250793457 13.60171127319336 13.495984077453613 13.78178596496582 14.166540145874023 15.631807327270508 L14.166540145874023 15.631807327270508 C14.125836372375488 15.748746871948242 13.504293441772461 17.621902465820312 13.345763206481934 17.749000549316406 C10.761842727661133 19.820613861083984 9.994452476501465 16.171619415283203 10.617374420166016 14.398711204528809 C10.811471939086914 13.846285820007324 11.27712631225586 13.431180000305176 11.607002258300781 12.94741439819336 L11.607002258300781 12.94741439819336"></path></svg>