<svg xmlns="http://www.w3.org/2000/svg" viewBox="0.0 0.0 24.0 24.0" height="200px" width="200px"><path fill="none" stroke="black" stroke-width=".3" stroke-opacity="1.0"  filling="0" d="M13.911321640014648 12.197280883789062 C15.168928146362305 12.387730598449707 16.429750442504883 12.558089256286621 17.796642303466797 12.7533597946167 C17.796642303466797 14.289007186889648 17.796642303466797 16.08019256591797 17.796642303466797 18.100399017333984 C16.65073585510254 16.671628952026367 15.85920524597168 15.25250244140625 14.681154251098633 14.321149826049805 C13.063542366027832 13.04265022277832 10.427790641784668 13.575425148010254 9.761621475219727 15.115893363952637 C8.913037300109863 17.07904624938965 10.278325080871582 18.099597930908203 11.707094192504883 18.921661376953125 C13.091668128967285 19.718814849853516 14.616064071655273 20.27489471435547 15.9885835647583 21.088924407958984 C18.840497970581055 22.782073974609375 19.826496124267578 24.910762786865234 19.032554626464844 27.336780548095703 C18.187185287475586 29.922704696655273 15.82786750793457 31.473621368408203 12.767020225524902 31.28236961364746 C11.085122108459473 31.177099227905273 9.41768741607666 30.834775924682617 7.4336419105529785 30.555932998657227 C7.370962619781494 30.203962326049805 7.170870304107666 29.587614059448242 7.170870304107666 28.9704647064209 C7.170870304107666 27.935447692871094 7.29863977432251 26.898021697998047 7.365336894989014 25.94818878173828 C9.034378051757812 27.276508331298828 10.311270713806152 28.657062530517578 11.885489463806152 29.441364288330078 C13.42435073852539 30.207977294921875 15.211517333984375 29.725027084350586 16.05608367919922 28.10017967224121 C16.940828323364258 26.399803161621094 16.055278778076172 24.986297607421875 14.515615463256836 24.064590454101562 C13.143899917602539 23.243328094482422 11.681379318237305 22.573139190673828 10.301628112792969 21.76473617553711 C7.428016662597656 20.080425262451172 6.5440754890441895 18.123703002929688 7.419981002807617 15.5433988571167 C8.281421661376953 13.004076957702637 10.774134635925293 11.723166465759277 13.911321640014648 12.197280883789062"></path></svg>