<svg xmlns="http://www.w3.org/2000/svg" viewBox="0.0 0.0 24.0 24.0" height="200px" width="200px"><path fill="none" stroke="black" stroke-width=".3" stroke-opacity="1.0"  filling="0" d="M5.449012756347656 9.580180168151855 C7.171266555786133 9.580180168151855 8.898824691772461 9.580180168151855 10.19080924987793 9.580180168151855 C10.141888618469238 10.63463306427002 9.794137954711914 11.732112884521484 10.11005973815918 12.583219528198242 C10.911656379699707 14.741044998168945 12.010904312133789 16.788654327392578 13.25220012664795 18.838619232177734 C14.213526725769043 15.781353950500488 16.717926025390625 13.225675582885742 15.944621086120605 9.609061241149902 C16.66782569885254 9.609061241149902 17.787704467773438 9.609061241149902 18.62643051147461 9.609061241149902 C17.37040138244629 12.602079391479492 16.063091278076172 15.68292236328125 14.785253524780273 18.775550842285156 C13.851629257202148 21.034168243408203 12.97046184539795 23.31399917602539 12.040375709533691 25.573795318603516 C11.366681098937988 27.2111759185791 10.170180320739746 28.39529800415039 8.452642440795898 28.751300811767578 C7.725901126861572 28.901599884033203 6.848270893096924 28.443628311157227 6.08144998550415 28.15069007873535 C5.960621356964111 28.104719161987305 5.993038654327393 27.168148040771484 6.078502655029297 27.146928787231445 C6.775184154510498 26.97599983215332 7.499567985534668 26.878746032714844 8.218647003173828 26.85576057434082 C8.586437225341797 26.8433837890625 8.960123062133789 27.0290470123291 9.528902053833008 27.17698860168457 C11.6890869140625 24.785167694091797 12.524868965148926 22.512405395507812 10.793185234069824 19.633731842041016 C9.590790748596191 17.63445472717285 8.831631660461426 15.37407112121582 7.764212131500244 13.28697395324707 C7.1176300048828125 12.022101402282715 6.261218547821045 10.865091323852539 5.449012756347656 9.580180168151855"></path></svg>