<svg xmlns="http://www.w3.org/2000/svg" viewBox="0.0 0.0 24.0 24.0" height="200px" width="200px"><path fill="none" stroke="black" stroke-width=".3" stroke-opacity="1.0"  filling="0" d="M10.021690368652344 9.533531188964844 L10.021690368652344 9.533531188964844 C11.424407958984375 8.968417167663574 15.00651741027832 8.369380950927734 14.913186073303223 11.08397388458252 C14.87243366241455 12.269277572631836 13.451541900634766 13.149330139160156 12.774676322937012 13.76031494140625 L12.774676322937012 13.76031494140625 C12.96441650390625 13.919960021972656 14.170108795166016 14.911040306091309 14.323373794555664 15.1314115524292 C14.660443305969238 15.616065979003906 15.057891845703125 16.114349365234375 15.150627136230469 16.697362899780273 C15.525009155273438 19.051042556762695 13.320045471191406 19.846302032470703 11.445932388305664 19.501100540161133 C9.571820259094238 19.155899047851562 8.028557777404785 17.67024040222168 9.72634220123291 15.462082862854004 C10.053140640258789 15.0370454788208 10.494749069213867 14.714173316955566 10.878952026367188 14.340218544006348 L10.878952026367188 14.340218544006348 C9.457265853881836 12.316544532775879 8.527900695800781 11.602992057800293 10.021690368652344 9.533531188964844 L10.021690368652344 9.533531188964844"></path>
<path fill="none" stroke="black" stroke-width=".3" stroke-opacity="1.0"  filling="0" d="M11.852325439453125 9.597965240478516 L11.852325439453125 9.597965240478516 C14.565519332885742 9.84572982788086 13.789835929870605 11.927916526794434 12.330835342407227 13.388104438781738 L12.330835342407227 13.388104438781738 C11.635753631591797 12.873034477233887 9.825264930725098 12.011042594909668 10.363482475280762 10.616147994995117 C10.579915046691895 10.055219650268555 11.35604476928711 9.937359809875488 11.852325439453125 9.597965240478516 L11.852325439453125 9.597965240478516"></path>
<path fill="none" stroke="black" stroke-width=".3" stroke-opacity="1.0"  filling="0" d="M11.53113842010498 14.61888599395752 L11.53113842010498 14.61888599395752 C11.764768600463867 14.81105899810791 13.163431167602539 15.946906089782715 13.373222351074219 16.17739486694336 C15.658175468444824 18.687774658203125 10.732569694519043 20.315837860107422 10.255220413208008 17.522979736328125 C10.165631294250488 16.99881362915039 10.170884132385254 16.4197998046875 10.384782791137695 15.93294906616211 C10.6185941696167 15.400774955749512 11.149020195007324 15.056906700134277 11.53113842010498 14.61888599395752 L11.53113842010498 14.61888599395752"></path></svg>