<svg xmlns="http://www.w3.org/2000/svg" viewBox="0.0 0.0 24.0 24.0" height="200px" width="200px"><path fill="none" stroke="black" stroke-width=".3" stroke-opacity="1.0"  filling="0" d="M17.14707374572754 6.96679162979126 L17.14707374572754 6.96679162979126 C17.14707374572754 8.00706672668457 17.14707374572754 9.047342300415039 17.14707374572754 10.087617874145508 L17.14707374572754 10.087617874145508 C17.090389251708984 10.104146957397461 17.033702850341797 10.12067699432373 16.977018356323242 10.137206077575684 L16.977018356323242 10.137206077575684 C16.714284896850586 9.628646850585938 16.366771697998047 8.908402442932129 15.984213829040527 8.552886962890625 C14.986584663391113 7.625777244567871 12.98800277709961 7.50532865524292 11.955094337463379 8.472563743591309 C10.589606285095215 9.751232147216797 10.51932144165039 11.878911972045898 11.282764434814453 13.530452728271484 C12.046207427978516 15.181994438171387 13.643378257751465 16.357398986816406 15.612800598144531 15.73151683807373 C16.081995010375977 15.582406997680664 17.050275802612305 14.592317581176758 17.35890007019043 14.302080154418945 L17.35890007019043 14.302080154418945 C17.323406219482422 14.560959815979004 17.14368438720703 16.103269577026367 16.9851016998291 16.349212646484375 C16.159610748291016 17.629453659057617 14.148783683776855 17.486719131469727 12.860214233398438 17.358562469482422 C10.918037414550781 17.165401458740234 9.08089542388916 16.19852638244629 7.997801780700684 14.7709379196167 C6.914707183837891 13.343350410461426 6.585660934448242 11.455049514770508 7.659674644470215 9.419034004211426 C7.941877365112305 8.884060859680176 8.34628963470459 8.40229606628418 8.81458854675293 8.019503593444824 C9.77112865447998 7.2376179695129395 10.939806938171387 6.882457733154297 12.131301879882812 6.704798221588135 C13.818065643310547 6.453290939331055 15.481650352478027 6.72303581237793 17.14707374572754 6.96679162979126 L17.14707374572754 6.96679162979126"></path></svg>