<svg xmlns="http://www.w3.org/2000/svg" viewBox="0.0 0.0 24.0 24.0" height="200px" width="200px"><path fill="none" stroke="black" stroke-width=".3" stroke-opacity="1.0"  filling="0" d="M7.646555423736572 7.819558143615723 C11.045707702636719 7.819558143615723 14.300252914428711 7.819558143615723 17.554798126220703 7.819558143615723 C17.5629940032959 7.941332817077637 17.570606231689453 8.06310749053955 17.57880210876465 8.185467720031738 C14.600007057189941 8.185467720031738 11.621211051940918 8.185467720031738 8.305778503417969 8.185467720031738 C8.305778503417969 14.609081268310547 8.305778503417969 20.756946563720703 8.305778503417969 26.90481185913086 C8.085647583007812 26.9428653717041 7.866101264953613 26.98150634765625 7.646555423736572 27.01955795288086 C7.646555423736572 20.669124603271484 7.646555423736572 14.319279670715332 7.646555423736572 7.819558143615723"></path>
<path fill="none" stroke="black" stroke-width=".3" stroke-opacity="1.0"  filling="0" d="M9.847867012023926 10.109858512878418 C12.51812744140625 10.109858512878418 15.085932731628418 10.109858512878418 17.65374183654785 10.109858512878418 C17.657838821411133 10.252710342407227 17.661937713623047 10.395561218261719 17.666034698486328 10.538412094116211 C15.38041877746582 10.538412094116211 13.09480094909668 10.538412094116211 10.6077880859375 10.538412094116211 C10.6077880859375 12.298291206359863 10.6077880859375 13.802325248718262 10.6077880859375 15.712079048156738 C12.932044982910156 15.712079048156738 15.28674602508545 15.712079048156738 17.64144515991211 15.712079048156738 C17.6379337310791 15.902936935424805 17.63442039489746 16.093795776367188 17.630908966064453 16.284069061279297 C15.076566696166992 16.284069061279297 12.522226333618164 16.284069061279297 9.847867012023926 16.284069061279297 C9.847867012023926 14.220924377441406 9.847867012023926 12.229206085205078 9.847867012023926 10.109858512878418"></path>
<path fill="none" stroke="black" stroke-width=".3" stroke-opacity="1.0"  filling="0" d="M9.92280387878418 17.805665969848633 C12.392839431762695 17.805665969848633 14.955377578735352 17.805665969848633 17.51849937438965 17.805665969848633 C17.53606414794922 17.975448608398438 17.55421257019043 18.145816802978516 17.571775436401367 18.31618309020996 C15.289087295532227 18.31618309020996 13.006396293640137 18.31618309020996 10.42629623413086 18.31618309020996 C10.42629623413086 21.36874771118164 10.42629623413086 24.129169464111328 10.42629623413086 26.890174865722656 C10.258270263671875 26.887832641601562 10.090829849243164 26.88549041748047 9.92280387878418 26.883148193359375 C9.92280387878418 23.9201602935791 9.92280387878418 20.956584930419922 9.92280387878418 17.805665969848633"></path></svg>