<svg xmlns="http://www.w3.org/2000/svg" viewBox="0.0 0.0 24.0 24.0" height="200px" width="200px"><path fill="none" stroke="black" stroke-width=".3" stroke-opacity="1.0"  filling="0" d="M6.996303081512451 6.912757873535156 L6.996303081512451 6.912757873535156 C8.26089096069336 6.911377906799316 10.1627836227417 6.664889335632324 11.993962287902832 6.678553581237793 C13.825140953063965 6.692217826843262 15.58560562133789 6.96603536605835 16.56733512878418 8.005268096923828 C18.0181884765625 9.54110336303711 17.6395320892334 10.882570266723633 16.58439064025879 11.848342895507812 C15.529250144958496 12.814115524291992 13.797624588012695 13.404195785522461 12.54254150390625 13.437257766723633 L12.54254150390625 13.437257766723633 C13.331572532653809 12.289606094360352 14.597434043884277 9.506175994873047 12.895857810974121 8.371366500854492 C12.515558242797852 8.117738723754883 11.995382308959961 8.21336841583252 11.545144081115723 8.134369850158691 L11.545144081115723 8.134369850158691 C11.543079376220703 10.064783096313477 11.544394493103027 11.995469093322754 11.562768936157227 13.925801277160645 C11.56368637084961 14.02223014831543 11.494311332702637 16.54105567932129 11.803705215454102 16.941110610961914 C12.10718822479248 17.333520889282227 12.653674125671387 17.452877044677734 13.078658103942871 17.708759307861328 L13.078658103942871 17.708759307861328 C11.00607681274414 17.708759307861328 8.93349838256836 17.708759307861328 6.860917568206787 17.708759307861328 L6.860917568206787 17.708759307861328 C8.545385360717773 15.813214302062988 7.874133586883545 12.934260368347168 7.885021209716797 10.509732246398926 C7.892451286315918 8.855175971984863 8.134156227111816 8.103365898132324 6.996303081512451 6.912757873535156 L6.996303081512451 6.912757873535156"></path></svg>