<svg xmlns="http://www.w3.org/2000/svg" viewBox="0.0 0.0 24.0 24.0" height="200px" width="200px"><path fill="none" stroke="black" stroke-width=".3" stroke-opacity="1.0"  filling="0" d="M15.147915840148926 9.834742546081543 L15.147915840148926 9.834742546081543 C15.256887435913086 9.878076553344727 15.365859985351562 9.92141056060791 15.474831581115723 9.964744567871094 L15.474831581115723 9.964744567871094 C14.694750785827637 11.878774642944336 13.914566993713379 13.792764663696289 13.134486198425293 15.706794738769531 L13.134486198425293 15.706794738769531 C13.039215087890625 15.636483192443848 12.943944931030273 15.56617259979248 12.848673820495605 15.495861053466797 L12.848673820495605 15.495861053466797 C13.615015983581543 13.608793258666992 14.381368637084961 11.72172737121582 15.147915840148926 9.834742546081543 L15.147915840148926 9.834742546081543"></path>
<path fill="none" stroke="black" stroke-width=".3" stroke-opacity="1.0"  filling="0" d="M15.8396635055542 11.16757583618164 L15.8396635055542 11.16757583618164 C15.93875789642334 11.206024169921875 16.037851333618164 11.24447250366211 16.136945724487305 11.282920837402344 L16.136945724487305 11.282920837402344 C15.673232078552246 12.441994667053223 15.209517478942871 13.601067543029785 14.745802879333496 14.760141372680664 L14.745802879333496 14.760141372680664 C14.634919166564941 14.704912185668945 14.524035453796387 14.64968204498291 14.413151741027832 14.594452857971191 L14.413151741027832 14.594452857971191 C14.708532333374023 13.884867668151855 15.544282913208008 11.877161026000977 15.8396635055542 11.16757583618164 L15.8396635055542 11.16757583618164"></path>
<path fill="none" stroke="black" stroke-width=".3" stroke-opacity="1.0"  filling="0" d="M13.322478294372559 17.263944625854492 L13.322478294372559 17.263944625854492 C13.421891212463379 17.306428909301758 13.5213041305542 17.348913192749023 13.62071704864502 17.39139747619629 L13.62071704864502 17.39139747619629 C13.592668533325195 17.45819664001465 12.286992073059082 20.567501068115234 12.25888729095459 20.63442611694336 L12.25888729095459 20.63442611694336 C12.1177339553833 20.606386184692383 11.976580619812012 20.578344345092773 11.835427284240723 20.550304412841797 L11.835427284240723 20.550304412841797 C11.531453132629395 19.806194305419922 11.227478981018066 19.06208610534668 10.923504829406738 18.317975997924805 L10.923504829406738 18.317975997924805 C10.99933910369873 18.28388214111328 11.075173377990723 18.249788284301758 11.151007652282715 18.215694427490234 L11.151007652282715 18.215694427490234 C11.460823059082031 18.79602813720703 11.770638465881348 19.376361846923828 12.080453872680664 19.956695556640625 L12.080453872680664 19.956695556640625 C12.49446964263916 19.05911636352539 12.908478736877441 18.161531448364258 13.322478294372559 17.263944625854492 L13.322478294372559 17.263944625854492"></path></svg>