<svg xmlns="http://www.w3.org/2000/svg" viewBox="0.0 0.0 24.0 24.0" height="200px" width="200px"><path fill="none" stroke="black" stroke-width=".3" stroke-opacity="1.0"  filling="0" d="M23.991477966308594 9.837468147277832 C24.145767211914062 9.899681091308594 24.299556732177734 9.962392807006836 24.453845977783203 10.024605751037598 C22.47496795654297 14.999176025390625 20.496585845947266 19.973745346069336 18.517709732055664 24.948318481445312 C18.335548400878906 24.942344665527344 18.15338706970215 24.935874938964844 17.97122573852539 24.928905487060547 C17.226160049438477 23.137664794921875 16.481094360351562 21.346420288085938 15.736028671264648 19.55517578125 C15.880861282348633 19.489477157592773 16.02618980407715 19.424278259277344 16.171024322509766 19.35858154296875 C16.779220581054688 20.70587158203125 17.386920928955078 22.05316162109375 18.249942779541016 23.96485137939453 C20.280582427978516 18.96788215637207 22.136028289794922 14.402924537658691 23.991477966308594 9.837468147277832"></path>
<path fill="none" stroke="black" stroke-width=".3" stroke-opacity="1.0"  filling="0" d="M7.62541389465332 21.80779266357422 C7.745361328125 21.857065200805664 7.864810466766357 21.90633773803711 7.984757423400879 21.95611000061035 C7.582113742828369 22.95600128173828 7.179469585418701 23.956390380859375 6.5538530349731445 25.510723114013672 C5.98198938369751 24.23560333251953 5.617668628692627 23.42334747314453 5.25384521484375 22.611587524414062 C5.360851764678955 22.510055541992188 5.467858791351318 22.40951919555664 5.575363636016846 22.308486938476562 C5.850097179412842 22.69022560119629 6.124830722808838 23.072463989257812 6.552857875823975 23.667221069335938 C6.963963031768799 22.954010009765625 7.294937610626221 22.381149291992188 7.62541389465332 21.80779266357422"></path></svg>