<svg xmlns="http://www.w3.org/2000/svg" viewBox="0.0 0.0 24.0 24.0" height="200px" width="200px"><path fill="none" stroke="black" stroke-width=".3" stroke-opacity="1.0"  filling="0" d="M18.74520492553711 10.783576011657715 L18.74520492553711 10.783576011657715 C18.831899642944336 10.81866455078125 18.91859245300293 10.853752136230469 19.005287170410156 10.888840675354004 L19.005287170410156 10.888840675354004 C18.448753356933594 12.287931442260742 17.892250061035156 13.687032699584961 17.33574867248535 15.08613395690918 C16.779245376586914 16.4852352142334 16.222742080688477 17.88433837890625 15.666211128234863 19.283428192138672 L15.666211128234863 19.283428192138672 C15.563745498657227 19.279788970947266 15.46127986907959 19.27614974975586 15.358814239501953 19.272510528564453 L15.358814239501953 19.272510528564453 C14.939715385437012 18.264936447143555 14.520615577697754 17.257360458374023 14.101516723632812 16.249786376953125 L14.101516723632812 16.249786376953125 C14.183077812194824 16.21292495727539 14.264639854431152 16.176063537597656 14.346200942993164 16.139202117919922 L14.346200942993164 16.139202117919922 C14.415233612060547 16.292163848876953 15.511482238769531 18.721120834350586 15.515592575073242 18.730228424072266 L15.515592575073242 18.730228424072266 C16.0538330078125 17.40577507019043 16.592100143432617 16.08133316040039 17.130373001098633 14.756892204284668 C17.66864776611328 13.432453155517578 18.20693016052246 12.108016967773438 18.74520492553711 10.783576011657715 L18.74520492553711 10.783576011657715"></path>
<path fill="none" stroke="black" stroke-width=".3" stroke-opacity="1.0"  filling="0" d="M9.539295196533203 17.516883850097656 L9.539295196533203 17.516883850097656 C9.606672286987305 17.544692993164062 9.674049377441406 17.57250213623047 9.741426467895508 17.600311279296875 L9.741426467895508 17.600311279296875 C9.68045711517334 17.751750946044922 8.942577362060547 19.584787368774414 8.936542510986328 19.599781036376953 L8.936542510986328 19.599781036376953 C8.692790985107422 19.05619239807129 8.449039459228516 18.512605667114258 8.20528793334961 17.969017028808594 L8.20528793334961 17.969017028808594 C8.265572547912598 17.912185668945312 8.325858116149902 17.85535430908203 8.38614273071289 17.79852294921875 L8.38614273071289 17.79852294921875 C8.569422721862793 18.053285598754883 8.752702713012695 18.30805015563965 8.935982704162598 18.56281280517578 L8.935982704162598 18.56281280517578 C9.137086868286133 18.214170455932617 9.338191032409668 17.86552619934082 9.539295196533203 17.516883850097656 L9.539295196533203 17.516883850097656"></path></svg>