<svg xmlns="http://www.w3.org/2000/svg" viewBox="0.0 0.0 24.0 24.0" height="200px" width="200px"><path fill="none" stroke="black" stroke-width=".3" stroke-opacity="1.0"  filling="0" d="M19.583965301513672 8.33795166015625 C15.855712890625 7.314413547515869 12.152734756469727 6.75841760635376 8.505245208740234 8.78626537322998 C12.057138442993164 6.22494649887085 15.78648853302002 6.367791652679443 19.583965301513672 8.33795166015625"></path>
<path fill="none" stroke="black" stroke-width=".3" stroke-opacity="1.0"  filling="0" d="M9.6710786819458 10.424036026000977 C13.252090454101562 8.160494804382324 16.739152908325195 8.824174880981445 20.169078826904297 10.825100898742676 C16.708934783935547 9.687836647033691 13.249342918395996 8.616498947143555 9.6710786819458 10.424036026000977"></path>
<path fill="none" stroke="black" stroke-width=".3" stroke-opacity="1.0"  filling="0" d="M7.613013744354248 12.5590181350708 C6.432895183563232 15.334604263305664 6.216979503631592 18.089313507080078 7.722344875335693 20.84731674194336 C5.580221652984619 18.262924194335938 5.534071445465088 15.832913398742676 7.613013744354248 12.5590181350708"></path>
<path fill="none" stroke="black" stroke-width=".3" stroke-opacity="1.0"  filling="0" d="M4.842922210693359 13.344663619995117 C4.111116886138916 16.376272201538086 4.416584491729736 19.254596710205078 5.924696922302246 21.99721908569336 C3.846853256225586 19.36172866821289 3.347445487976074 16.48065757751465 4.842922210693359 13.344663619995117"></path>
<path fill="none" stroke="black" stroke-width=".3" stroke-opacity="1.0"  filling="0" d="M20.186660766601562 22.655954360961914 C17.193510055541992 24.031108856201172 14.14542007446289 25.118379592895508 11.113812446594238 23.838817596435547 C13.90917682647705 23.474018096923828 16.96880531311035 23.075149536132812 20.186660766601562 22.655954360961914"></path>
<path fill="none" stroke="black" stroke-width=".3" stroke-opacity="1.0"  filling="0" d="M7.8690361976623535 24.032756805419922 C11.418730735778809 25.789199829101562 15.132148742675781 25.765026092529297 18.9016056060791 25.12442398071289 C15.06896686553955 26.45013427734375 11.344560623168945 26.601219177246094 7.8690361976623535 24.032756805419922"></path></svg>