<svg xmlns="http://www.w3.org/2000/svg" viewBox="0.0 0.0 24.0 24.0" height="200px" width="200px"><path fill="none" stroke="black" stroke-width=".3" stroke-opacity="1.0"  filling="0" d="M18.24038314819336 7.551232814788818 C18.438302993774414 7.558912754058838 18.6362247467041 7.566593647003174 18.834142684936523 7.574865341186523 C18.834142684936523 10.465677261352539 18.834142684936523 13.357078552246094 18.834142684936523 16.414499282836914 C14.696731567382812 16.414499282836914 10.633761405944824 16.414499282836914 6.384687423706055 16.414499282836914 C6.384687423706055 13.465787887573242 6.384687423706055 10.602743148803711 6.384687423706055 7.739109039306641 C6.616875171661377 7.73320198059082 6.84965181350708 7.726702690124512 7.081839084625244 7.720794677734375 C7.081839084625244 10.341608047485352 7.081839084625244 12.962420463562012 7.081839084625244 15.747479438781738 C10.806867599487305 15.747479438781738 14.30207347869873 15.747479438781738 18.24038314819336 15.747479438781738 C18.24038314819336 13.053996086120605 18.24038314819336 10.30261516571045 18.24038314819336 7.551232814788818"></path>
<path fill="none" stroke="black" stroke-width=".3" stroke-opacity="1.0"  filling="0" d="M4.63058614730835 7.612677097320557 C4.63058614730835 13.944931983947754 4.63058614730835 20.276596069335938 4.63058614730835 26.608848571777344 C4.515379428863525 26.61534881591797 4.400763034820557 26.621257781982422 4.285555839538574 26.62775421142578 C4.285555839538574 20.289592742919922 4.285555839538574 13.952020645141602 4.285555839538574 7.6138596534729 C4.400763034820557 7.613858699798584 4.515379428863525 7.6132683753967285 4.63058614730835 7.612677097320557"></path>
<path fill="none" stroke="black" stroke-width=".3" stroke-opacity="1.0"  filling="0" d="M21.03312110900879 7.772193431854248 C21.03312110900879 14.038277626037598 21.03312110900879 20.30377197265625 21.03312110900879 26.569854736328125 C20.903736114501953 26.568675994873047 20.774349212646484 26.568084716796875 20.645553588867188 26.56690216064453 C20.645553588867188 20.30377197265625 20.645553588867188 14.040051460266113 20.645553588867188 7.776920318603516 C20.774940490722656 7.775147438049316 20.904327392578125 7.773966312408447 21.03312110900879 7.772193431854248"></path>
<path fill="none" stroke="black" stroke-width=".3" stroke-opacity="1.0"  filling="0" d="M6.4721269607543945 17.96654510498047 C10.514418601989746 17.96654510498047 14.567344665527344 17.96654510498047 18.805194854736328 17.96654510498047 C18.805194854736328 20.841407775878906 18.805194854736328 23.726900100708008 18.805194854736328 26.61180305480957 C18.665172576904297 26.658477783203125 18.524560928344727 26.704559326171875 18.383949279785156 26.750642776489258 C18.383949279785156 24.135147094726562 18.383949279785156 21.519649505615234 18.383949279785156 18.66487693786621 C14.596885681152344 18.66487693786621 11.036100387573242 18.66487693786621 7.107834339141846 18.66487693786621 C7.107834339141846 21.304004669189453 7.107834339141846 23.969127655029297 7.107834339141846 26.634841918945312 C6.895734786987305 26.634254455566406 6.6842265129089355 26.633663177490234 6.4721269607543945 26.633071899414062 C6.4721269607543945 23.81433868408203 6.4721269607543945 20.99560546875 6.4721269607543945 17.96654510498047"></path></svg>