<svg xmlns="http://www.w3.org/2000/svg" viewBox="0.0 0.0 24.0 24.0" height="200px" width="200px"><path fill="none" stroke="black" stroke-width=".3" stroke-opacity="1.0"  filling="0" d="M3.6144304275512695 3.709064483642578 C7.356455326080322 3.709064483642578 11.099065780639648 3.709064483642578 14.841092109680176 3.709064483642578 C12.876322746276855 4.347774982452393 12.762643814086914 5.941622257232666 12.773778915405273 7.647976398468018 C12.80014705657959 11.534736633300781 12.781982421875 15.422083854675293 12.781982421875 19.152389526367188 C16.959972381591797 20.924373626708984 19.225345611572266 20.23702621459961 21.711040496826172 16.84482765197754 C21.456729888916016 18.38534927368164 21.356529235839844 19.976268768310547 20.87603187561035 21.44295883178711 C20.672698974609375 22.06291961669922 19.67888832092285 22.819995880126953 19.029043197631836 22.834060668945312 C13.889471054077148 22.948326110839844 8.746383666992188 22.89734649658203 4.058011531829834 22.89734649658203 C4.504522800445557 21.567771911621094 5.227027893066406 20.34250259399414 5.27859354019165 19.09027671813965 C5.440908908843994 15.098040580749512 5.3442230224609375 11.095843315124512 5.368834018707275 7.097161769866943 C5.377623081207275 5.676762580871582 5.343636989593506 4.313788414001465 3.6144304275512695 3.709064483642578"></path></svg>