<svg xmlns="http://www.w3.org/2000/svg" viewBox="0.0 0.0 24.0 24.0" height="200px" width="200px"><path fill="none" stroke="black" stroke-width=".3" stroke-opacity="1.0"  filling="0" d="M7.1011128425598145 8.619279861450195 L7.1011128425598145 8.619279861450195 C7.614931583404541 8.619283676147461 8.128750801086426 8.61927604675293 8.642569541931152 8.619292259216309 C9.1563720703125 8.619308471679688 9.670175552368164 8.619324684143066 10.183978080749512 8.619376182556152 C10.996541976928711 8.619458198547363 12.77978801727295 8.529123306274414 14.14427661895752 8.873851776123047 C15.50876522064209 9.21858024597168 16.454496383666992 9.998372077941895 15.592032432556152 11.7387056350708 C15.315168380737305 12.297378540039062 14.656967163085938 12.577557563781738 14.289777755737305 13.081482887268066 L14.289777755737305 13.081482887268066 C15.395964622497559 14.74297046661377 16.274595260620117 15.820310592651367 17.900856018066406 17.000133514404297 L17.900856018066406 17.000133514404297 C16.66533851623535 16.999353408813477 14.742227554321289 17.309185028076172 13.606149673461914 16.6498966217041 C12.592885971069336 16.061880111694336 11.943785667419434 14.500728607177734 11.35008716583252 13.548591613769531 L11.35008716583252 13.548591613769531 C11.237869262695312 14.242510795593262 10.868328094482422 14.94255542755127 11.013434410095215 15.630349159240723 C11.12967586517334 16.181325912475586 11.716312408447266 16.510299682617188 12.06775188446045 16.950275421142578 L12.06775188446045 16.950275421142578 C10.494873046875 16.950275421142578 8.921991348266602 16.950275421142578 7.349112510681152 16.950275421142578 L7.349112510681152 16.950275421142578 C7.816350936889648 15.695841789245605 8.081571578979492 14.197166442871094 8.06637191772461 12.720062255859375 C8.051172256469727 11.242959022521973 7.755553245544434 9.787426948547363 7.1011128425598145 8.619279861450195 L7.1011128425598145 8.619279861450195"></path>
<path fill="none" stroke="black" stroke-width=".3" stroke-opacity="1.0"  filling="0" d="M11.064760208129883 9.702807426452637 L11.064760208129883 9.702807426452637 C11.969396591186523 9.81025505065918 14.189152717590332 10.801712036132812 12.633805274963379 12.345664978027344 C12.262332916259766 12.71441650390625 11.587945938110352 12.391003608703613 11.06501579284668 12.413673400878906 L11.06501579284668 12.413673400878906 C11.064994812011719 11.510051727294922 11.064910888671875 10.606429100036621 11.064760208129883 9.702807426452637 L11.064760208129883 9.702807426452637"></path></svg>