<svg xmlns="http://www.w3.org/2000/svg" viewBox="0.0 0.0 24.0 24.0" height="200px" width="200px"><path fill="none" stroke="black" stroke-width=".3" stroke-opacity="1.0"  filling="0" d="M12.091066360473633 6.641269207000732 C13.433107376098633 8.828298568725586 14.577778816223145 10.693151473999023 15.931429862976074 12.899046897888184 C16.45242691040039 11.240997314453125 16.954559326171875 9.968978881835938 17.215057373046875 8.649069786071777 C17.31374168395996 8.149840354919434 16.855148315429688 7.540679454803467 16.660680770874023 7.008797645568848 C17.9805908203125 7.008797645568848 19.46231460571289 7.008797645568848 20.77460479736328 7.008797645568848 C20.24127197265625 7.9597272872924805 19.610702514648438 8.881994247436523 19.181859970092773 9.889886856079102 C18.12027359008789 12.384217262268066 17.159547805786133 14.92136001586914 16.137868881225586 17.43310546875 C15.895149230957031 18.03029441833496 15.572608947753906 18.595191955566406 15.287075996398926 19.174602508544922 C15.11909294128418 19.20145034790039 14.951475143432617 19.227937698364258 14.783492088317871 19.254785537719727 C13.62757396697998 17.311201095581055 12.472018241882324 15.3676176071167 11.158276557922363 13.158820152282715 C9.970792770385742 15.338231086730957 8.89505672454834 17.31301498413086 7.607437610626221 19.67709732055664 C7.069387912750244 18.665943145751953 6.701496601104736 18.077098846435547 6.430113315582275 17.446531295776367 C5.2629475593566895 14.731246948242188 4.15238094329834 11.991292953491211 2.957278251647949 9.289070129394531 C2.6100683212280273 8.503945350646973 2.04952335357666 7.812788486480713 1.5746030807495117 7.058866024017334 C3.517460823059082 7.058866024017334 5.633741855621338 7.058866024017334 7.715555667877197 7.058866024017334 C7.022222518920898 9.072471618652344 8.579411506652832 10.563628196716309 9.06195068359375 12.778231620788574 C10.146395683288574 10.581405639648438 11.036009788513184 8.778594017028809 12.091066360473633 6.641269207000732"></path></svg>