<svg xmlns="http://www.w3.org/2000/svg" viewBox="0.0 0.0 24.0 24.0" height="200px" width="200px"><path fill="none" stroke="black" stroke-width=".3" stroke-opacity="1.0"  filling="0" d="M18.334447860717773 2.804581642150879 C18.146360397338867 2.945157051086426 17.978357315063477 3.1479368209838867 17.766759872436523 3.2165098190307617 C10.889849662780762 5.448566913604736 10.029255867004395 11.512395858764648 10.881522178649902 17.325931549072266 C10.98193359375 18.01166343688965 11.353697776794434 18.750783920288086 11.819016456604004 19.268020629882812 C12.554218292236328 20.08551025390625 13.424118995666504 19.97677230834961 14.076542854309082 19.063772201538086 C15.82172966003418 16.620609283447266 14.275894165039062 11.918445587158203 11.438924789428711 10.99074935913086 C13.556856155395508 8.884572982788086 16.946331024169922 8.61028003692627 19.12989616394043 10.368692398071289 C21.253704071044922 12.07959270477295 21.675430297851562 15.525395393371582 20.068859100341797 18.16693115234375 C18.84874725341797 20.173187255859375 16.98943328857422 21.221378326416016 14.749540328979492 21.74008560180664 C10.787479400634766 22.657007217407227 6.4957780838012695 21.108722686767578 4.874022006988525 18.13362693786621 C3.064669609069824 14.813705444335938 3.8003625869750977 10.113503456115723 6.6892523765563965 7.308859825134277 C9.923457145690918 4.16820764541626 13.910008430480957 2.757558822631836 18.334447860717773 2.804581642150879"></path></svg>