<svg xmlns="http://www.w3.org/2000/svg" viewBox="0.0 0.0 24.0 24.0" height="200px" width="200px"><path fill="none" stroke="black" stroke-width=".3" stroke-opacity="1.0"  filling="0" d="M4.307761192321777 2.4409608840942383 C7.387994766235352 2.4409608840942383 10.468228340148926 2.438939094543457 13.548966407775879 2.4445009231567383 C13.799795150756836 2.4450063705444336 14.054668426513672 2.47585391998291 14.299934387207031 2.5294580459594727 C16.04561996459961 2.9127817153930664 17.8858699798584 3.2870006561279297 18.495241165161133 5.265814781188965 C19.119277954101562 7.293174743652344 18.220138549804688 8.856301307678223 16.55081558227539 10.035598754882812 C16.435514450073242 10.11701774597168 16.3940486907959 10.302610397338867 16.25548553466797 10.553943634033203 C16.993810653686523 11.027280807495117 17.77916717529297 11.464714050292969 18.491703033447266 11.999746322631836 C21.0535888671875 13.921415328979492 21.29784393310547 17.169034957885742 19.06011199951172 19.443180084228516 C17.558176040649414 20.96938705444336 15.643081665039062 21.562068939208984 13.575263977050781 21.60758399963379 C10.636120796203613 21.670799255371094 7.694450378417969 21.62326431274414 5.061763763427734 21.62326431274414 C5.4572224617004395 20.618938446044922 6.155091762542725 19.635852813720703 6.185434341430664 18.632537841796875 C6.323996543884277 14.095376968383789 6.273931980133057 9.55214786529541 6.291126251220703 5.011446475982666 C6.296183109283447 3.6586923599243164 5.698948383331299 2.7939414978027344 4.307761192321777 2.4409608840942383"></path>
<path fill="none" stroke="black" stroke-width=".3" stroke-opacity="1.0"  filling="0" d="M10.768613815307617 4.179565906524658 C12.207842826843262 3.5590686798095703 13.308756828308105 3.911038398742676 14.074390411376953 5.10955286026001 C14.934083938598633 6.456238269805908 15.125239372253418 7.986493110656738 14.392982482910156 9.403470993041992 C13.693090438842773 10.757741928100586 12.35753059387207 10.593894004821777 10.768613815307617 10.259625434875488 C10.768613815307617 8.155397415161133 10.768613815307617 6.184170246124268 10.768613815307617 4.179565906524658"></path>
<path fill="none" stroke="black" stroke-width=".3" stroke-opacity="1.0"  filling="0" d="M10.782773971557617 12.193937301635742 C14.359606742858887 11.85865592956543 16.738937377929688 14.647099494934082 15.781641960144043 17.83353042602539 C15.310833930969238 19.399690628051758 14.107261657714844 20.242191314697266 12.589649200439453 20.069747924804688 C11.56762409210205 19.95343589782715 10.803507804870605 19.530160903930664 10.789854049682617 18.378170013427734 C10.765074729919434 16.310354232788086 10.782773971557617 14.242537498474121 10.782773971557617 12.193937301635742"></path></svg>