<svg xmlns="http://www.w3.org/2000/svg" viewBox="0.0 0.0 24.0 24.0" height="200px" width="200px"><path fill="none" stroke="black" stroke-width=".3" stroke-opacity="1.0"  filling="0" d="M7.843492031097412 6.808835983276367 L7.843492031097412 6.808835983276367 C9.177994728088379 7.7337141036987305 10.415689468383789 8.803300857543945 11.615484237670898 9.919569969177246 C12.815278053283691 11.035839080810547 13.977170944213867 12.19879150390625 15.16006851196289 13.31040096282959 L15.16006851196289 13.31040096282959 C15.16006851196289 11.450141906738281 15.16006851196289 9.589877128601074 15.16006851196289 7.729616641998291 L15.16006851196289 7.729616641998291 C14.746343612670898 7.524598598480225 14.332618713378906 7.319580078125 13.918893814086914 7.114562034606934 L13.918893814086914 7.114562034606934 C14.066993713378906 7.114562034606934 17.172719955444336 7.114562034606934 17.393310546875 7.114562034606934 L17.393310546875 7.114562034606934 C16.27124786376953 8.157797813415527 16.55031394958496 8.957630157470703 16.511425018310547 10.515247344970703 C16.457752227783203 12.664997100830078 16.428668975830078 14.815547943115234 16.32764434814453 16.96367073059082 L16.32764434814453 16.96367073059082 C16.205060958862305 17.036842346191406 16.08247947692871 17.110013961791992 15.959896087646484 17.183185577392578 L15.959896087646484 17.183185577392578 C14.799724578857422 16.1185245513916 13.639568328857422 15.053847312927246 12.479418754577637 13.989164352416992 C11.319268226623535 12.924480438232422 10.159122467041016 11.859792709350586 8.998970031738281 10.795110702514648 L8.998970031738281 10.795110702514648 C9.007333755493164 12.616679191589355 9.095433235168457 14.423128128051758 9.181427955627441 16.242332458496094 L9.181427955627441 16.242332458496094 C9.57310676574707 16.433368682861328 9.964786529541016 16.624404907226562 10.356465339660645 16.815441131591797 L10.356465339660645 16.815441131591797 C9.102079391479492 16.815441131591797 7.847694396972656 16.815441131591797 6.593308925628662 16.815441131591797 L6.593308925628662 16.815441131591797 C7.957659721374512 15.851664543151855 7.711518287658691 15.311640739440918 7.742861747741699 13.619770050048828 C7.784930229187012 11.348986625671387 7.841644287109375 9.080114364624023 7.843492031097412 6.808835983276367 L7.843492031097412 6.808835983276367"></path></svg>