<svg xmlns="http://www.w3.org/2000/svg" viewBox="0.0 0.0 24.0 24.0" height="200px" width="200px"><path fill="none" stroke="black" stroke-width=".3" stroke-opacity="1.0"  filling="0" d="M11.98892593383789 6.641595363616943 L11.98892593383789 6.641595363616943 C12.922876358032227 6.6724467277526855 13.856217384338379 6.739614009857178 14.785284996032715 6.839849948883057 L14.785284996032715 6.839849948883057 C14.785284996032715 7.64484167098999 14.785284996032715 8.449833869934082 14.785284996032715 9.254825592041016 L14.785284996032715 9.254825592041016 C14.35888671875 8.53918743133545 14.13306713104248 7.924068450927734 13.269307136535645 7.57020378112793 C12.089567184448242 7.086888790130615 10.305686950683594 7.863011360168457 11.13459587097168 9.39716911315918 C12.097221374511719 11.178812026977539 14.52507209777832 11.445316314697266 15.076149940490723 13.620198249816895 C15.556495666503906 15.515932083129883 14.603472709655762 16.518465042114258 13.241985321044922 16.959794998168945 C11.880498886108398 17.401124954223633 10.11054801940918 17.281253814697266 8.957038879394531 16.93218421936035 L8.957038879394531 16.93218421936035 C8.957200050354004 16.0942325592041 8.957286834716797 15.300247192382812 8.95730972290039 14.462108612060547 L8.95730972290039 14.462108612060547 C9.528114318847656 15.417329788208008 9.66740894317627 16.03227424621582 10.823708534240723 16.435197830200195 C11.811657905578613 16.77945899963379 13.591681480407715 16.300575256347656 13.17754077911377 14.859292030334473 C12.813952445983887 13.593938827514648 11.547835350036621 12.918088912963867 10.503438949584961 12.117083549499512 C9.459043502807617 11.316078186035156 8.636367797851562 10.389915466308594 9.15966510772705 8.62393856048584 C9.319477081298828 8.084619522094727 9.695294380187988 7.584722995758057 10.15596866607666 7.261948108673096 C10.684234619140625 6.891814708709717 11.37794017791748 6.848379611968994 11.98892593383789 6.641595363616943 L11.98892593383789 6.641595363616943"></path></svg>