<svg xmlns="http://www.w3.org/2000/svg" viewBox="0.0 0.0 24.0 24.0" height="200px" width="200px"><path fill="none" stroke="black" stroke-width=".3" stroke-opacity="1.0"  filling="0" d="M4.290153980255127 8.180377960205078 C6.214362621307373 7.245682716369629 16.978300094604492 7.053538799285889 20.32836151123047 8.180377960205078 C15.118325233459473 8.180377960205078 9.908843040466309 8.180377960205078 4.290153980255127 8.180377960205078"></path>
<path fill="none" stroke="black" stroke-width=".3" stroke-opacity="1.0"  filling="0" d="M13.50365161895752 9.807232856750488 C15.72022819519043 9.807232856750488 18.053089141845703 9.807232856750488 20.385948181152344 9.807232856750488 C20.408098220825195 9.985532760620117 20.42969512939453 10.163833618164062 20.45184326171875 10.342134475708008 C18.49607276916504 10.480567932128906 16.540300369262695 10.619553565979004 14.170341491699219 10.787333488464355 C14.170341491699219 15.938674926757812 14.170341491699219 20.984806060791016 14.170341491699219 26.03093910217285 C13.948296546936035 26.025955200195312 13.726250648498535 26.020418167114258 13.50365161895752 26.01543426513672 C13.50365161895752 20.683578491210938 13.50365161895752 15.351720809936523 13.50365161895752 9.807232856750488"></path>
<path fill="none" stroke="black" stroke-width=".3" stroke-opacity="1.0"  filling="0" d="M4.672780513763428 9.81719970703125 C6.949160575866699 9.81719970703125 9.226094245910645 9.81719970703125 11.646997451782227 9.81719970703125 C11.646997451782227 15.2631254196167 11.646997451782227 20.64038848876953 11.646997451782227 26.60515785217285 C10.263782501220703 24.570756912231445 10.901124954223633 22.832603454589844 10.79536247253418 21.223464965820312 C10.6868314743042 19.573352813720703 10.771552085876465 17.911060333251953 10.771552085876465 16.253747940063477 C10.770998001098633 14.513376235961914 10.770998001098633 12.77189826965332 10.770998001098633 10.755216598510742 C8.479667663574219 10.629520416259766 6.557120323181152 10.523757934570312 4.634573459625244 10.417996406555176 C4.647308826446533 10.217546463012695 4.6600446701049805 10.01764965057373 4.672780513763428 9.81719970703125"></path></svg>