<svg xmlns="http://www.w3.org/2000/svg" viewBox="0.0 0.0 24.0 24.0" height="200px" width="200px"><path fill="none" stroke="black" stroke-width=".3" stroke-opacity="1.0"  filling="0" d="M7.196810245513916 7.287221908569336 C8.910749435424805 11.244256973266602 10.624133110046387 15.201292037963867 12.571035385131836 19.6958065032959 C14.453039169311523 15.233464241027832 16.119831085205078 11.28141975402832 17.786624908447266 7.328822135925293 C18.071170806884766 7.460834503173828 18.3557186126709 7.5934014320373535 18.6402645111084 7.7254133224487305 C16.716659545898438 12.314776420593262 14.793054580688477 16.90358543395996 12.614300727844238 22.101978302001953 C10.362882614135742 16.91634178161621 8.3566312789917 12.294808387756348 6.350934028625488 7.673274040222168 C6.6327080726623535 7.544589996337891 6.915036678314209 7.415905952453613 7.196810245513916 7.287221908569336"></path>
<path fill="none" stroke="black" stroke-width=".3" stroke-opacity="1.0"  filling="0" d="M20.398021697998047 7.3543381690979 C20.64873504638672 7.468600749969482 20.89889144897461 7.583417892456055 21.14960479736328 7.697680473327637 C18.455005645751953 13.921109199523926 15.761514663696289 20.14398193359375 13.014774322509766 26.487773895263672 C11.305272102355957 25.002918243408203 4.798405170440674 10.682374954223633 4.417344570159912 7.439756870269775 C7.4891228675842285 12.871113777160645 9.610746383666992 18.76950454711914 12.562161445617676 24.925262451171875 C15.544636726379395 18.83772850036621 17.518718719482422 12.878878593444824 20.398021697998047 7.3543381690979"></path></svg>