<svg xmlns="http://www.w3.org/2000/svg" viewBox="0.0 0.0 24.0 24.0" height="200px" width="200px"><path fill="none" stroke="black" stroke-width=".3" stroke-opacity="1.0"  filling="0" d="M2.1180715560913086 5.341681003570557 C3.638077735900879 5.341681003570557 5.236473083496094 5.341681003570557 6.784327507019043 5.341681003570557 C6.680839538574219 5.842962741851807 6.395816802978516 6.374500751495361 6.513745307922363 6.792579650878906 C7.147739887237549 9.03837776184082 7.881784915924072 11.25598430633545 8.706253051757812 13.88032341003418 C9.923701286315918 10.810400009155273 10.985057830810547 8.134145736694336 12.046414375305176 5.45823335647583 C12.18359661102295 5.439667224884033 12.320435523986816 5.421445369720459 12.457616806030273 5.4028801918029785 C13.703258514404297 8.109390258789062 14.948899269104004 10.815557479858398 16.352352142333984 13.865196228027344 C17.174068450927734 11.087514877319336 17.882328033447266 8.693876266479492 18.60811996459961 6.2414445877075195 C18.19898223876953 5.941294193267822 17.861011505126953 5.693403720855713 17.396862030029297 5.352683067321777 C18.892112731933594 5.352683067321777 20.202392578125 5.352683067321777 21.318069458007812 5.352683067321777 C20.8638916015625 6.112514019012451 20.24777603149414 6.878533840179443 19.912555694580078 7.752511024475098 C18.726736068725586 10.84340763092041 17.641315460205078 13.972810745239258 16.506725311279297 17.0839900970459 C16.31521987915039 17.608654022216797 16.07076644897461 18.114404678344727 15.851069450378418 18.62874984741211 C15.715950012207031 18.65728759765625 15.580487251281738 18.68582534790039 15.445367813110352 18.714704513549805 C14.177034378051758 16.04257583618164 12.909045219421387 13.370790481567383 11.555789947509766 10.519877433776855 C10.313587188720703 13.387293815612793 9.166620254516602 16.035356521606445 8.019309997558594 18.68341827392578 C7.874907493591309 18.688232421875 7.730505466461182 18.693044662475586 7.586103439331055 18.697856903076172 C7.3444013595581055 18.172510147094727 7.063504219055176 17.661256790161133 6.866842746734619 17.119747161865234 C5.696841239929199 13.90026569366455 4.573597431182861 10.663591384887695 3.368870735168457 7.457173824310303 C3.0896921157836914 6.714189529418945 2.5554046630859375 6.067129611968994 2.1180715560913086 5.341681003570557"></path></svg>