<svg xmlns="http://www.w3.org/2000/svg" viewBox="0.0 0.0 24.0 24.0" height="200px" width="200px"><path fill="none" stroke="black" stroke-width=".3" stroke-opacity="1.0"  filling="0" d="M13.452418327331543 7.465367794036865 C16.28374481201172 13.693839073181152 19.074417114257812 19.833763122558594 21.865089416503906 25.97313117980957 C21.7236328125 26.110130310058594 21.582178115844727 26.24768829345703 21.440166473388672 26.384685516357422 C21.088756561279297 25.96366310119629 20.62485122680664 25.594989776611328 20.404315948486328 25.114376068115234 C18.279705047607422 20.484233856201172 16.195751190185547 15.835156440734863 14.101216316223145 11.191091537475586 C13.835013389587402 10.600768089294434 13.629514694213867 9.97424602508545 13.2981538772583 9.422904968261719 C12.50344467163086 8.099689483642578 11.561711311340332 8.114726066589355 10.877825736999512 9.519250869750977 C10.149389266967773 11.015108108520508 9.572431564331055 12.584478378295898 8.908039093017578 14.112079620361328 C7.32140588760376 17.761503219604492 5.728088855743408 21.407588958740234 4.121405601501465 25.048660278320312 C3.9136791229248047 25.519248962402344 3.612947463989258 25.948625564575195 3.3556556701660156 26.39749526977539 C3.125652313232422 26.283884048461914 2.895092010498047 26.17027473449707 2.665088653564453 26.057222366333008 C5.2992682456970215 19.978557586669922 7.933448791503906 13.899896621704102 10.643925666809082 7.644692420959473 C11.519943237304688 7.588444709777832 12.405985832214355 7.532196521759033 13.452418327331543 7.465367794036865"></path>
<path fill="none" stroke="black" stroke-width=".3" stroke-opacity="1.0"  filling="0" d="M12.078523635864258 9.471353530883789 C13.634527206420898 12.993246078491211 14.93602466583252 15.938738822937012 16.32718276977539 19.08750343322754 C13.53205680847168 19.08750343322754 11.064949035644531 19.08750343322754 8.179045677185059 19.08750343322754 C9.491681098937988 15.850191116333008 10.657848358154297 12.975425720214844 12.078523635864258 9.471353530883789"></path>
<path fill="none" stroke="black" stroke-width=".3" stroke-opacity="1.0"  filling="0" d="M12.076295852661133 11.736860275268555 C13.102678298950195 14.068081855773926 13.912981986999512 15.908109664916992 14.886459350585938 18.119037628173828 C12.89439582824707 18.119037628173828 11.443647384643555 18.119037628173828 9.626452445983887 18.119037628173828 C10.429515838623047 16.026729583740234 11.142916679382324 14.168882369995117 12.076295852661133 11.736860275268555"></path>
<path fill="none" stroke="black" stroke-width=".3" stroke-opacity="1.0"  filling="0" d="M7.50128698348999 20.431880950927734 C10.591018676757812 20.431880950927734 13.62171745300293 20.431880950927734 16.943124771118164 20.431880950927734 C17.70998764038086 22.215660095214844 18.531429290771484 24.124744415283203 19.352313995361328 26.033828735351562 C19.145700454711914 26.1624755859375 18.93964385986328 26.291122436523438 18.733030319213867 26.41976547241211 C18.30978012084961 25.673507690429688 17.851999282836914 24.94395637512207 17.472187042236328 24.175979614257812 C17.027774810791016 23.275461196899414 16.650190353393555 22.34208106994629 16.220813751220703 21.371944427490234 C13.527044296264648 21.371944427490234 10.958579063415527 21.371944427490234 8.255899429321289 21.371944427490234 C7.5068559646606445 23.117298126220703 6.777305603027344 24.816986083984375 6.047754287719727 26.516115188598633 C5.774868488311768 26.40027618408203 5.501983642578125 26.284439086914062 5.229097843170166 26.169158935546875 C5.973127841949463 24.29070472717285 6.717158794403076 22.411691665649414 7.50128698348999 20.431880950927734"></path></svg>