<svg xmlns="http://www.w3.org/2000/svg" viewBox="0.0 0.0 24.0 24.0" height="200px" width="200px"><path fill="none" stroke="black" stroke-width=".3" stroke-opacity="1.0"  filling="0" d="M4.53117036819458 4.171379089355469 C7.1533918380737305 4.171379089355469 10.144408226013184 4.1121392250061035 13.130778312683105 4.199836730957031 C14.364355087280273 4.236425876617432 15.65600872039795 4.407174587249756 16.804210662841797 4.832887172698975 C19.702302932739258 5.907910346984863 20.202354431152344 8.54465103149414 18.022106170654297 10.760907173156738 C17.621368408203125 11.168033599853516 17.130029678344727 11.485719680786133 16.578289031982422 11.926531791687012 C17.384990692138672 12.397544860839844 18.128971099853516 12.766339302062988 18.80325698852539 13.23560905456543 C22.01671028137207 15.472192764282227 22.143320083618164 19.48421859741211 18.89153480529785 21.66911506652832 C17.594654083251953 22.540864944458008 15.891805648803711 23.11699867248535 14.331830978393555 23.225605010986328 C10.997574806213379 23.45733642578125 7.636021137237549 23.296459197998047 4.676947593688965 23.296459197998047 C5.101497650146484 22.074501037597656 5.80772590637207 20.92862319946289 5.850122928619385 19.758350372314453 C6.001706123352051 15.613324165344238 6.01390266418457 11.456683158874512 5.875095844268799 7.311657905578613 C5.841990947723389 6.292386531829834 5.036449909210205 5.298090934753418 4.53117036819458 4.171379089355469"></path>
<path fill="none" stroke="black" stroke-width=".3" stroke-opacity="1.0"  filling="0" d="M10.91103744506836 6.089113235473633 C13.784736633300781 5.845766067504883 15.053739547729492 6.846449851989746 15.039800643920898 9.170730590820312 C15.027605056762695 11.21798038482666 14.154693603515625 11.76101016998291 10.911038398742676 11.526374816894531 C10.911038398742676 9.602251052856445 10.911038398742676 7.834937572479248 10.91103744506836 6.089113235473633"></path>
<path fill="none" stroke="black" stroke-width=".3" stroke-opacity="1.0"  filling="0" d="M10.789073944091797 13.579431533813477 C14.907964706420898 13.611374855041504 16.88610076904297 16.202232360839844 15.764615058898926 19.570756912231445 C15.273275375366211 21.045936584472656 14.198251724243164 21.665048599243164 12.670801162719727 21.544246673583984 C11.172388076782227 21.425186157226562 10.812886238098145 20.393142700195312 10.795461654663086 19.139236450195312 C10.770489692687988 17.338817596435547 10.789073944091797 15.537820816040039 10.789073944091797 13.579431533813477"></path></svg>