<svg xmlns="http://www.w3.org/2000/svg" viewBox="0.0 0.0 24.0 24.0" height="200px" width="200px"><path fill="none" stroke="black" stroke-width=".3" stroke-opacity="1.0"  filling="0" d="M13.213093757629395 6.7103753089904785 C13.294540405273438 7.123486518859863 13.4456787109375 7.53659725189209 13.447357177734375 7.950128078460693 C13.465829849243164 12.201726913452148 13.457433700561523 16.454166412353516 13.462051391601562 20.706186294555664 C13.464570999145508 23.115158081054688 12.812578201293945 25.11102294921875 10.228955268859863 25.91037368774414 C9.669323921203613 25.91037368774414 9.109273910522461 25.91037368774414 8.549642562866211 25.91037368774414 C8.796501159667969 25.65134048461914 9.003896713256836 25.230255126953125 9.296516418457031 25.158462524414062 C11.91750431060791 24.51738739013672 12.555643081665039 23.882183074951172 12.655141830444336 21.233070373535156 C12.749603271484375 18.727115631103516 12.69124698638916 16.21486473083496 12.6958646774292 13.705552101135254 C12.699224472045898 11.75377082824707 12.68704891204834 9.801989555358887 12.703842163085938 7.850208759307861 C12.70720100402832 7.4774017333984375 12.812997817993164 7.105014324188232 13.213093757629395 6.7103753089904785"></path>
<path fill="none" stroke="black" stroke-width=".3" stroke-opacity="1.0"  filling="0" d="M11.387681007385254 6.745640277862549 C11.446876525878906 6.987881183624268 11.557291030883789 7.230541706085205 11.557291030883789 7.472783088684082 C11.562329292297363 12.089213371276855 11.597594261169434 16.706064224243164 11.53042221069336 21.3216552734375 C11.496416091918945 23.662195205688477 10.566916465759277 24.336021423339844 8.240649223327637 23.969928741455078 C8.288509368896484 23.850276947021484 8.313279151916504 23.64246368408203 8.387588500976562 23.62356948852539 C10.710497856140137 23.019020080566406 10.765914916992188 23.022377014160156 10.796982765197754 20.544971466064453 C10.846101760864258 16.628814697265625 10.813776016235352 12.711397171020508 10.815874099731445 8.794820785522461 C10.816293716430664 8.127293586730957 10.815874099731445 7.459347248077393 10.815874099731445 6.791820526123047 C11.006056785583496 6.776288032531738 11.197078704833984 6.761173725128174 11.387681007385254 6.745640277862549"></path></svg>