<svg xmlns="http://www.w3.org/2000/svg" viewBox="0.0 0.0 24.0 24.0" height="200px" width="200px"><path fill="none" stroke="black" stroke-width=".3" stroke-opacity="1.0"  filling="0" d="M15.797764778137207 7.2334675788879395 C16.010059356689453 7.427836894989014 16.222911834716797 7.622206211090088 16.43520736694336 7.817135810852051 C13.953216552734375 10.719793319702148 11.470664978027344 13.621891021728516 8.877205848693848 16.655061721801758 C11.926061630249023 19.879241943359375 14.88585376739502 23.00931739807129 17.845645904541016 26.13883399963379 C15.386621475219727 25.85708236694336 14.434938430786133 23.791839599609375 12.945520401000977 22.403804779052734 C11.39560604095459 20.958641052246094 9.998050689697266 19.34990882873535 8.533839225769043 17.812877655029297 C8.312582969665527 17.85713005065918 8.090765953063965 17.901382446289062 7.869510173797607 17.945632934570312 C7.869510173797607 20.75194549560547 7.869510173797607 23.558258056640625 7.869510173797607 26.365135192871094 C6.636636734008789 24.065746307373047 6.669125080108643 9.665046691894531 7.799492359161377 7.577955722808838 C7.799492359161377 10.160772323608398 7.799492359161377 12.744148254394531 7.799492359161377 15.32696533203125 C8.001703262329102 15.393061637878418 8.203914642333984 15.459157943725586 8.406126022338867 15.5258150100708 C10.870192527770996 12.761512756347656 13.333699226379395 9.997770309448242 15.797764778137207 7.2334675788879395"></path>
<path fill="none" stroke="black" stroke-width=".3" stroke-opacity="1.0"  filling="0" d="M19.850955963134766 7.543225288391113 C17.063129425048828 10.646413803100586 14.483672142028809 13.517704010009766 11.803390502929688 16.501583099365234 C14.99116039276123 19.799701690673828 18.054019927978516 22.9689884185791 21.402549743652344 26.433467864990234 C19.300334930419922 25.832435607910156 13.495019912719727 20.255657196044922 10.763205528259277 16.524547576904297 C13.13877010345459 12.997332572937012 17.838363647460938 8.234441757202148 19.850955963134766 7.543225288391113"></path>
<path fill="none" stroke="black" stroke-width=".3" stroke-opacity="1.0"  filling="0" d="M5.200431823730469 7.664778232574463 C5.200431823730469 13.827465057373047 5.200431823730469 19.98958969116211 5.200431823730469 26.376893997192383 C4.310925006866455 24.614686965942383 4.095271110534668 11.6445894241333 5.200431823730469 7.664778232574463"></path></svg>