<svg xmlns="http://www.w3.org/2000/svg" viewBox="0.0 0.0 24.0 24.0" height="200px" width="200px"><path fill="none" stroke="black" stroke-width=".3" stroke-opacity="1.0"  filling="0" d="M21.250816345214844 7.701138019561768 C21.250816345214844 13.917963981628418 21.250816345214844 20.253070831298828 21.250816345214844 26.661182403564453 C20.377574920654297 25.554771423339844 20.377574920654297 25.554771423339844 20.377574920654297 20.9486083984375 C20.377574920654297 18.969524383544922 20.377574920654297 16.991004943847656 20.377574920654297 15.011921882629395 C20.377574920654297 12.950777053833008 20.377574920654297 10.889065742492676 20.377574920654297 8.908284187316895 C18.853504180908203 8.104086875915527 18.146648406982422 8.885080337524414 17.417156219482422 9.846609115600586 C15.712550163269043 12.092815399169922 13.947391510009766 14.294313430786133 12.171479225158691 16.55862808227539 C9.73568344116211 13.82911205291748 7.396096706390381 11.183353424072266 5.00501012802124 8.584001541137695 C4.855602264404297 8.421577453613281 4.308341026306152 8.624183654785156 3.5069732666015625 8.697189331054688 C3.5069732666015625 14.689903259277344 3.5069732666015625 20.62828826904297 3.5069732666015625 26.566673278808594 C3.281163215637207 26.56157875061035 3.0553550720214844 26.555919647216797 2.830111503601074 26.550827026367188 C2.8312435150146484 20.30626678466797 2.8312435150146484 14.061712265014648 2.8312435150146484 7.728302478790283 C5.2036542892456055 6.9546661376953125 6.5556793212890625 7.935436248779297 7.737357139587402 9.671732902526855 C8.994871139526367 11.518953323364258 10.47706127166748 13.212804794311523 12.046406745910645 15.209999084472656 C13.601602554321289 13.213371276855469 15.103036880493164 11.530838966369629 16.31357765197754 9.6598482131958 C17.489595413208008 7.842622756958008 18.903308868408203 7.028803825378418 21.250816345214844 7.701138019561768"></path>
<path fill="none" stroke="black" stroke-width=".3" stroke-opacity="1.0"  filling="0" d="M18.83652687072754 10.18730354309082 C18.83652687072754 16.05154800415039 18.83652687072754 21.279115676879883 18.83652687072754 26.507247924804688 C18.618640899658203 26.527620315551758 18.401321411132812 26.547992706298828 18.183435440063477 26.568368911743164 C18.122314453125 25.193140029907227 18.036855697631836 23.819042205810547 18.00686264038086 22.443248748779297 C17.976301193237305 21.030101776123047 18.000072479248047 19.61582374572754 18.000072479248047 18.202112197875977 C18.000072479248047 16.708602905273438 18.000072479248047 15.215658187866211 18.000072479248047 13.722148895263672 C17.845569610595703 13.628202438354492 17.691070556640625 13.534257888793945 17.53600311279297 13.440312385559082 C15.76574993133545 15.64916706085205 13.99549674987793 17.85745620727539 12.05319881439209 20.28080177307129 C10.097318649291992 17.881790161132812 8.344610214233398 15.73236083984375 6.4023118019104 13.349762916564941 C6.117644786834717 18.00063705444336 5.8550496101379395 22.285919189453125 5.581136226654053 26.570064544677734 C5.580568790435791 26.579120635986328 5.404562473297119 26.578554153442383 5.17252779006958 26.588741302490234 C5.17252779006958 21.331180572509766 5.17252779006958 16.07758140563965 5.17252779006958 10.202582359313965 C7.57889461517334 13.256948471069336 9.691539764404297 15.938926696777344 12.038483619689941 18.917455673217773 C14.259222030639648 16.065696716308594 16.35149383544922 13.378625869750977 18.83652687072754 10.18730354309082"></path></svg>