<svg xmlns="http://www.w3.org/2000/svg" viewBox="0.0 0.0 24.0 24.0" height="200px" width="200px"><path fill="none" stroke="black" stroke-width=".3" stroke-opacity="1.0"  filling="0" d="M12.917251586914062 8.715068817138672 L12.917251586914062 8.715068817138672 C13.513700485229492 8.959491729736328 14.171374320983887 9.089132308959961 14.706599235534668 9.448336601257324 C16.455900192260742 10.62234115600586 16.87064552307129 12.246726989746094 16.46802520751953 13.763594627380371 C16.065406799316406 15.280462265014648 14.845419883728027 16.6898136138916 13.32525634765625 17.433748245239258 L13.32525634765625 17.433748245239258 C13.6416654586792 17.530563354492188 15.724066734313965 18.167695999145508 16.110004425048828 18.285768508911133 L16.110004425048828 18.285768508911133 C14.836044311523438 18.20165252685547 13.559678077697754 17.820276260375977 12.42890739440918 17.227479934692383 L12.42890739440918 17.227479934692383 C14.01775074005127 16.691669464111328 15.521116256713867 16.00359535217285 16.004505157470703 14.202938079833984 C16.49705696105957 12.368147850036621 15.696873664855957 10.755850791931152 14.382817268371582 9.844770431518555 C13.068760871887207 8.933690071105957 11.240830421447754 8.723827362060547 9.677887916564941 9.693903923034668 C9.163636207580566 10.013086318969727 8.71837329864502 10.47499942779541 8.415465354919434 10.999002456665039 C7.297964572906494 12.932177543640137 7.8164777755737305 14.512298583984375 8.984797477722168 15.75847053527832 C10.153118133544922 17.004642486572266 11.971244812011719 17.91686248779297 13.452972412109375 18.514238357543945 C14.129748344421387 18.78708839416504 15.1338529586792 18.750410079956055 15.45165729522705 19.407276153564453 L15.45165729522705 19.407276153564453 C14.168478012084961 19.191082000732422 12.52099609375 18.707233428955078 11.05217456817627 17.955495834350586 C9.583353042602539 17.203758239746094 8.293191909790039 16.184131622314453 7.724653720855713 14.896382331848145 C6.88134765625 12.986276626586914 7.347774028778076 11.41329574584961 8.440888404846191 10.331666946411133 C9.534003257751465 9.250039100646973 11.253806114196777 8.65976333618164 12.917251586914062 8.715068817138672 L12.917251586914062 8.715068817138672"></path>
<path fill="none" stroke="black" stroke-width=".3" stroke-opacity="1.0"  filling="0" d="M12.049867630004883 9.630306243896484 L12.049867630004883 9.630306243896484 C13.489044189453125 10.025030136108398 14.252152442932129 9.9076566696167 15.035063743591309 11.374236106872559 C16.30615234375 13.755289077758789 14.695785522460938 16.686138153076172 11.937037467956543 16.60716438293457 C9.266233444213867 16.53070831298828 7.588744163513184 13.595136642456055 8.96239948272705 11.268681526184082 C9.809294700622559 9.834360122680664 10.59254264831543 9.9734525680542 12.049867630004883 9.630306243896484 L12.049867630004883 9.630306243896484"></path>
<path fill="none" stroke="black" stroke-width=".3" stroke-opacity="1.0"  filling="0" d="M11.969526290893555 10.085909843444824 L11.969526290893555 10.085909843444824 C13.233019828796387 10.398124694824219 13.934931755065918 10.27667236328125 14.623451232910156 11.561773300170898 C15.720762252807617 13.609871864318848 14.398491859436035 16.18361473083496 12.004785537719727 16.166166305541992 C9.647651672363281 16.148984909057617 8.164894104003906 13.579952239990234 9.33948040008545 11.521944046020508 C10.045059204101562 10.285690307617188 10.72696304321289 10.395598411560059 11.969526290893555 10.085909843444824 L11.969526290893555 10.085909843444824"></path></svg>