<svg xmlns="http://www.w3.org/2000/svg" viewBox="0.0 0.0 24.0 24.0" height="200px" width="200px"><path fill="none" stroke="black" stroke-width=".3" stroke-opacity="1.0"  filling="0" d="M3.3681640625 4.6502532958984375 C6.220427989959717 4.6502532958984375 9.494372367858887 4.625512599945068 12.767768859863281 4.670045375823975 C13.483034133911133 4.679941654205322 14.215341567993164 4.872913837432861 14.905317306518555 5.090627193450928 C18.318357467651367 6.169297218322754 19.307964324951172 9.437195777893066 17.039567947387695 12.216338157653809 C16.47329330444336 12.910161972045898 15.714594841003418 13.447298049926758 15.011975288391113 14.08669376373291 C17.399673461914062 17.19680404663086 18.942358016967773 20.747840881347656 22.568164825439453 22.73365020751953 C21.567012786865234 22.73365020751953 20.564762115478516 22.707260131835938 19.564159393310547 22.738595962524414 C16.85099220275879 22.823261260986328 14.783265113830566 21.7808780670166 13.450045585632324 19.361291885375977 C12.965139389038086 18.48164176940918 12.345535278320312 17.673465728759766 11.894715309143066 16.77842140197754 C11.342185974121094 15.681607246398926 10.555448532104492 15.3577880859375 9.102927207946777 15.87678050994873 C9.553197860717773 18.155073165893555 7.779055118560791 21.028228759765625 11.518115043640137 22.66107940673828 C8.448688507080078 22.66107940673828 5.739367961883545 22.66107940673828 3.436335563659668 22.66107940673828 C3.806887626647949 21.581857681274414 4.467724323272705 20.49549102783203 4.508958339691162 19.38713264465332 C4.6497039794921875 15.549659729003906 4.662898063659668 11.701743125915527 4.526552677154541 7.8648223876953125 C4.488068103790283 6.779554843902588 3.771702766418457 5.717927932739258 3.3681640625 4.6502532958984375"></path>
<path fill="none" stroke="black" stroke-width=".3" stroke-opacity="1.0"  filling="0" d="M9.200241088867188 6.522807598114014 C11.022214889526367 6.037351131439209 12.302103996276855 6.679495334625244 13.187252044677734 8.118271827697754 C14.037762641906738 9.500421524047852 13.892621040344238 12.519819259643555 12.945348739624023 13.3318452835083 C11.830392837524414 14.287363052368164 10.60438060760498 14.07184886932373 9.200241088867188 13.368680000305176 C9.200241088867188 11.011768341064453 9.200241088867188 8.838484764099121 9.200241088867188 6.522807598114014"></path></svg>