<svg xmlns="http://www.w3.org/2000/svg" viewBox="0.0 0.0 24.0 24.0" height="200px" width="200px"><path fill="none" stroke="black" stroke-width=".3" stroke-opacity="1.0"  filling="0" d="M15.145988464355469 11.372726440429688 L15.145988464355469 11.372726440429688 C16.14037322998047 11.372726440429688 17.13475799560547 11.372726440429688 18.12914276123047 11.372726440429688 L18.12914276123047 11.372726440429688 C17.082035064697266 13.082389831542969 16.03496551513672 14.792076110839844 14.9879150390625 16.501773834228516 C13.940863609313965 18.211469650268555 12.893830299377441 19.92117691040039 11.84679126739502 21.630882263183594 L11.84679126739502 21.630882263183594 C11.023128509521484 21.630882263183594 10.199464797973633 21.630882263183594 9.375802040100098 21.630882263183594 L9.375802040100098 21.630882263183594 C9.034748077392578 19.92224884033203 8.69366455078125 18.213619232177734 8.352554321289062 16.50499725341797 C8.011444091796875 14.79637336730957 7.67030668258667 13.08775520324707 7.329144477844238 11.379143714904785 L7.329144477844238 11.379143714904785 C8.227673530578613 11.379143714904785 9.126203536987305 11.379143714904785 10.02473258972168 11.379143714904785 L10.02473258972168 11.379143714904785 C10.413551330566406 13.58913803100586 10.802163124084473 15.799169540405273 11.190641403198242 18.00922393798828 L11.190641403198242 18.00922393798828 C11.849855422973633 16.903133392333984 12.509049415588379 15.797033309936523 13.168262481689453 14.690943717956543 C13.827474594116211 13.584854125976562 14.486703872680664 12.478774070739746 15.145988464355469 11.372726440429688 L15.145988464355469 11.372726440429688"></path></svg>