<svg xmlns="http://www.w3.org/2000/svg" viewBox="0.0 0.0 24.0 24.0" height="200px" width="200px"><path fill="none" stroke="black" stroke-width=".3" stroke-opacity="1.0"  filling="0" d="M13.471341133117676 6.8151373863220215 L13.471341133117676 6.8151373863220215 C16.23963165283203 8.223014831542969 16.591615676879883 10.775171279907227 15.610228538513184 13.018438339233398 C14.628841400146484 15.26170539855957 12.314083099365234 17.196083068847656 9.748888969421387 17.3684024810791 L9.748888969421387 17.3684024810791 C10.897592544555664 16.557937622070312 11.867170333862305 15.653106689453125 12.548784255981445 14.583897590637207 C13.230398178100586 13.514688491821289 13.624049186706543 12.281099319458008 13.62089729309082 10.813115119934082 C13.619095802307129 9.974165916442871 13.512036323547363 8.469730377197266 12.84691333770752 7.775354862213135 C11.534412384033203 6.405128002166748 10.632718086242676 8.51192855834961 10.582786560058594 9.447339057922363 C10.481683731079102 11.341391563415527 11.483588218688965 11.714143753051758 13.034472465515137 12.206482887268066 L13.034472465515137 12.206482887268066 C11.949663162231445 12.711357116699219 11.425642967224121 13.205231666564941 10.184700012207031 12.883390426635742 C8.661338806152344 12.488304138183594 8.159541130065918 11.27940559387207 8.313481330871582 10.035588264465332 C8.467421531677246 8.791769981384277 9.277098655700684 7.513031959533691 10.376686096191406 6.978263854980469 C11.61114501953125 6.377902984619141 12.172492980957031 6.649738311767578 13.471341133117676 6.8151373863220215 L13.471341133117676 6.8151373863220215"></path></svg>