<svg xmlns="http://www.w3.org/2000/svg" viewBox="0.0 0.0 24.0 24.0" height="200px" width="200px"><path fill="none" stroke="black" stroke-width=".3" stroke-opacity="1.0"  filling="0" d="M10.410745620727539 8.44189739227295 C11.535876274108887 8.44189739227295 12.579686164855957 8.44189739227295 13.900097846984863 8.44189739227295 C16.552690505981445 14.243040084838867 19.24701499938965 20.134599685668945 21.94133949279785 26.026695251464844 C21.67061996459961 26.163124084472656 21.399372100830078 26.300086975097656 21.12865447998047 26.436511993408203 C19.25557518005371 23.99311065673828 18.409183502197266 20.96654510498047 17.052392959594727 18.237979888916016 C15.634073257446289 15.386896133422852 14.372514724731445 12.458235740661621 13.113629341125488 9.717367172241211 C11.516615867614746 9.02452564239502 11.035104751586914 9.914786338806152 10.57659912109375 10.974111557006836 C8.675699234008789 15.37084674835205 6.7544684410095215 19.75955581665039 4.814512729644775 24.139169692993164 C4.455519199371338 24.95024871826172 3.9756126403808594 25.707826614379883 3.551346778869629 26.490550994873047 C3.28116512298584 26.35198211669922 3.010983467102051 26.213951110839844 2.740802764892578 26.075916290283203 C5.06329345703125 20.126575469970703 7.848568439483643 14.368767738342285 10.410745620727539 8.44189739227295"></path>
<path fill="none" stroke="black" stroke-width=".3" stroke-opacity="1.0"  filling="0" d="M12.49247932434082 10.811469078063965 C13.731033325195312 13.569459915161133 14.969587326049805 16.326915740966797 16.32905387878418 19.352947235107422 C13.620820999145508 19.352947235107422 11.132475852966309 19.352947235107422 8.220937728881836 19.352947235107422 C9.415620803833008 16.473506927490234 10.583553314208984 13.658270835876465 11.752020835876465 10.843034744262695 C11.998661994934082 10.832334518432617 12.2453031539917 10.821634292602539 12.49247932434082 10.811469078063965"></path>
<path fill="none" stroke="black" stroke-width=".3" stroke-opacity="1.0"  filling="0" d="M12.119039535522461 12.723605155944824 C13.076711654663086 14.873820304870605 13.7839994430542 16.46066665649414 14.603103637695312 18.29897117614746 C12.961149215698242 18.29897117614746 11.538016319274902 18.29897117614746 9.930837631225586 18.29897117614746 C10.671831130981445 16.410375595092773 11.299936294555664 14.809083938598633 12.119039535522461 12.723605155944824"></path>
<path fill="none" stroke="black" stroke-width=".3" stroke-opacity="1.0"  filling="0" d="M7.485830783843994 20.731670379638672 C10.67664623260498 20.731674194335938 13.674322128295898 20.731674194335938 17.004241943359375 20.731674194335938 C17.737743377685547 22.59298324584961 18.426305770874023 24.340335845947266 19.114864349365234 26.08715057373047 C16.80575180053711 25.459579467773438 17.140668869018555 23.178287506103516 15.840588569641113 21.8177490234375 C13.556619644165039 21.8177490234375 11.17741870880127 21.8177490234375 8.654298782348633 21.8177490234375 C7.89137077331543 23.33397674560547 7.09848165512085 24.910659790039062 6.305058002471924 26.487876892089844 C6.1231536865234375 26.402809143066406 5.941249370574951 26.31720733642578 5.759344577789307 26.232139587402344 C5.654482841491699 24.201763153076172 7.026255130767822 22.634180068969727 7.485830783843994 20.731670379638672"></path></svg>