<svg xmlns="http://www.w3.org/2000/svg" viewBox="0.0 0.0 24.0 24.0" height="200px" width="200px"><path fill="none" stroke="black" stroke-width=".3" stroke-opacity="1.0"  filling="0" d="M7.393346786499023 9.84231948852539 L7.393346786499023 9.84231948852539 C8.584695816040039 9.821775436401367 9.897351264953613 9.704219818115234 11.191793441772461 9.724115371704102 C12.486236572265625 9.744010925292969 13.762466430664062 9.901355743408203 14.880965232849121 10.43061351776123 C16.56406021118164 11.227029800415039 17.49506378173828 12.89203929901123 17.64847755432129 14.639068603515625 C17.801891326904297 16.386096954345703 17.177717208862305 18.215145111083984 15.750457763671875 19.33963966369629 C14.613870620727539 20.235122680664062 13.194003105163574 20.54418182373047 11.723576545715332 20.624055862426758 C10.253150939941406 20.703929901123047 8.732166290283203 20.55461883544922 7.393346786499023 20.533363342285156 L7.393346786499023 20.533363342285156 C7.393346786499023 18.751522064208984 7.393346786499023 16.969682693481445 7.393346786499023 15.187841415405273 C7.393346786499023 13.406000137329102 7.393346786499023 11.624159812927246 7.393346786499023 9.84231948852539 L7.393346786499023 9.84231948852539"></path>
<path fill="none" stroke="black" stroke-width=".3" stroke-opacity="1.0"  filling="0" d="M8.151275634765625 10.508444786071777 L8.151275634765625 10.508444786071777 C10.034327507019043 10.410103797912598 12.137125015258789 10.160928726196289 13.95390510559082 10.855325698852539 C15.507527351379395 11.449140548706055 16.550996780395508 12.86184310913086 16.861745834350586 14.406006813049316 C17.17249298095703 15.950170516967773 16.75052261352539 17.62579345703125 15.37326431274414 18.745450973510742 C13.533716201782227 20.240930557250977 10.352823257446289 19.916263580322266 8.151592254638672 20.054019927978516 L8.151592254638672 20.054019927978516 C8.151590347290039 18.463090896606445 8.151576042175293 16.872161865234375 8.151530265808105 15.281232833862305 C8.151484489440918 13.690303802490234 8.151406288146973 12.099374771118164 8.151275634765625 10.508444786071777 L8.151275634765625 10.508444786071777"></path>
<path fill="none" stroke="black" stroke-width=".3" stroke-opacity="1.0"  filling="0" d="M8.928262710571289 11.16313362121582 L8.928262710571289 11.16313362121582 C10.950572967529297 10.9890718460083 13.514199256896973 10.694073677062988 15.111867904663086 12.304496765136719 C16.028778076171875 13.228727340698242 16.295997619628906 14.55562686920166 16.056467056274414 15.792083740234375 C15.816936492919922 17.028541564941406 15.070658683776855 18.174556732177734 13.960575103759766 18.737014770507812 C12.384653091430664 19.535505294799805 10.613221168518066 19.316679000854492 8.928262710571289 19.22493553161621 L8.928262710571289 19.22493553161621 C8.928262710571289 17.881301879882812 8.928262710571289 16.537668228149414 8.928262710571289 15.194034576416016 C8.928262710571289 13.850400924682617 8.928262710571289 12.506766319274902 8.928262710571289 11.16313362121582 L8.928262710571289 11.16313362121582"></path>
<path fill="none" stroke="black" stroke-width=".3" stroke-opacity="1.0"  filling="0" d="M9.725898742675781 11.757787704467773 L9.725898742675781 11.757787704467773 C11.52863883972168 11.694016456604004 13.316743850708008 11.48160457611084 14.682291030883789 12.967422485351562 C16.221956253051758 14.642694473266602 15.227481842041016 17.450632095336914 13.359604835510254 18.34199333190918 C12.370620727539062 18.813941955566406 10.740155220031738 18.641077041625977 9.725898742675781 18.615036010742188 L9.725898742675781 18.615036010742188 C9.725898742675781 16.329288482666016 9.725898742675781 14.043537139892578 9.725898742675781 11.757787704467773 L9.725898742675781 11.757787704467773"></path></svg>