<svg xmlns="http://www.w3.org/2000/svg" viewBox="0.0 0.0 24.0 24.0" height="200px" width="200px"><path fill="none" stroke="black" stroke-width=".3" stroke-opacity="1.0"  filling="0" d="M4.9195942878723145 3.652057647705078 C5.224809169769287 4.251845359802246 5.555177211761475 4.84050989151001 5.830885887145996 5.453357696533203 C7.710061550140381 9.628175735473633 9.559247970581055 13.816536903381348 11.464544296264648 17.97926139831543 C11.832639694213867 18.784137725830078 12.407759666442871 19.494211196899414 13.018671989440918 20.452905654907227 C12.936443328857422 20.618331909179688 12.732805252075195 21.02899169921875 12.326980590820312 21.847896575927734 C9.875588417053223 16.265026092529297 7.578495502471924 11.032841682434082 5.280918121337891 5.8001708984375 C5.134840965270996 5.822421550750732 4.98876428604126 5.844671726226807 4.843170166015625 5.866921424865723 C4.512319087982178 11.066699981689453 4.1814680099487305 16.266477584838867 3.839008331298828 21.657320022583008 C4.009754180908203 21.610885620117188 3.796442985534668 21.709075927734375 3.5797433853149414 21.716815948486328 C3.359177589416504 21.72455596923828 3.1357078552246094 21.642810821533203 3.073793411254883 21.63071632385254 C3.5652332305908203 15.621706008911133 4.051352500915527 9.681865692138672 4.537954807281494 3.742025375366211 C4.665168762207031 3.7120370864868164 4.792381286621094 3.682046890258789 4.9195942878723145 3.652057647705078"></path>
<path fill="none" stroke="black" stroke-width=".3" stroke-opacity="1.0"  filling="0" d="M19.946712493896484 3.6539926528930664 C20.089405059814453 3.6568946838378906 20.232582092285156 3.659796714782715 20.37527084350586 3.662698745727539 C20.496196746826172 4.716198444366455 20.651948928833008 5.766795635223389 20.731760025024414 6.823196887969971 C21.046165466308594 10.984953880310059 21.314617156982422 15.150097846984863 21.655628204345703 19.3089542388916 C21.717056274414062 20.05675506591797 22.0416202545166 20.782787322998047 22.273311614990234 21.622974395751953 C21.99808692932129 21.635066986083984 21.51342010498047 21.65635108947754 20.94458770751953 21.681018829345703 C20.626312255859375 16.41739273071289 20.3138427734375 11.255826950073242 19.993148803710938 5.958824634552002 C19.458660125732422 6.256300449371338 19.210037231445312 6.395122051239014 18.62186050415039 6.7225871086120605 C19.15151023864746 5.4964070320129395 19.54911231994629 4.574957847595215 19.946712493896484 3.6539926528930664"></path></svg>