<svg xmlns="http://www.w3.org/2000/svg" viewBox="0.0 0.0 24.0 24.0" height="200px" width="200px"><path fill="none" stroke="black" stroke-width=".3" stroke-opacity="1.0"  filling="0" d="M18.337427139282227 7.562990665435791 C19.4637451171875 7.562990665435791 20.56656265258789 7.562990665435791 21.870250701904297 7.562990665435791 C21.870250701904297 13.878875732421875 21.870250701904297 20.133773803710938 21.870250701904297 26.388111114501953 C21.545167922973633 26.395944595336914 21.219524383544922 26.403778076171875 20.893321990966797 26.411609649658203 C20.698610305786133 20.567401885986328 20.9123477935791 14.704170227050781 20.774703979492188 8.954521179199219 C19.237136840820312 8.218189239501953 18.555639266967773 9.09607982635498 17.8405704498291 10.00977897644043 C16.131229400634766 12.19415283203125 14.3877592086792 14.352230072021484 12.429990768432617 16.80629539489746 C11.050768852233887 15.119336128234863 9.913260459899902 13.56666088104248 8.604538917541504 12.175130844116211 C7.36184024810791 10.854658126831055 6.86834192276001 8.531522750854492 3.980088233947754 8.68651008605957 C3.980088233947754 14.63758659362793 3.980088233947754 20.515365600585938 3.980088233947754 26.393146514892578 C3.7892913818359375 26.442384719848633 3.5984935760498047 26.491622924804688 3.4076967239379883 26.540300369262695 C3.162626266479492 26.24822998046875 2.705495834350586 25.957839965820312 2.703258514404297 25.663528442382812 C2.6612977981567383 19.71860694885254 2.6713685989379883 13.772007942199707 2.6713685989379883 7.857298374176025 C5.194813251495361 6.918420791625977 6.887366771697998 7.610549449920654 8.273862838745117 9.673507690429688 C9.44997787475586 11.4242525100708 10.882354736328125 13.002663612365723 12.3829927444458 14.885456085205078 C14.466652870178223 12.322845458984375 16.388051986694336 9.959982872009277 18.337427139282227 7.562990665435791"></path>
<path fill="none" stroke="black" stroke-width=".3" stroke-opacity="1.0"  filling="0" d="M5.520454406738281 10.34213638305664 C7.931994915008545 13.31711483001709 10.060976028442383 15.943511962890625 12.396421432495117 18.82448959350586 C14.580236434936523 16.11920166015625 16.65438461303711 13.549317359924316 18.728532791137695 10.97999095916748 C18.927722930908203 11.015241622924805 19.12691307067871 11.050491333007812 19.326662063598633 11.086299896240234 C19.29756736755371 16.1857852935791 19.576208114624023 21.287506103515625 18.806306838989258 26.397064208984375 C17.67495346069336 24.555116653442383 18.16733169555664 22.546432495117188 18.085641860961914 20.615520477294922 C17.999475479125977 18.583337783813477 18.06661605834961 16.544998168945312 17.63410758972168 14.264944076538086 C15.965612411499023 16.280344009399414 14.297677993774414 18.295183181762695 12.409850120544434 20.575794219970703 C10.60706901550293 18.419397354125977 8.92794418334961 16.411272048950195 6.930449962615967 14.022111892700195 C6.416808128356934 18.52402687072754 7.072568416595459 22.550907135009766 6.500736713409424 26.471477508544922 C6.173416614532471 26.430635452270508 5.847215175628662 26.38922882080078 5.520454406738281 26.348384857177734 C5.520454406738281 21.21364974975586 5.520454406738281 16.078357696533203 5.520454406738281 10.34213638305664"></path></svg>