<svg xmlns="http://www.w3.org/2000/svg" viewBox="0.0 0.0 24.0 24.0" height="200px" width="200px"><path fill="none" stroke="black" stroke-width=".3" stroke-opacity="1.0"  filling="0" d="M4.126078128814697 8.356855392456055 C9.788973808288574 8.356855392456055 15.451295852661133 8.356855392456055 21.271812438964844 8.356855392456055 C20.04075050354004 9.348033905029297 20.04075050354004 9.344583511352539 15.675646781921387 9.326749801635742 C13.761171340942383 9.319271087646484 11.84669303894043 9.33077621459961 9.932214736938477 9.331926345825195 C7.992425918579102 9.333077430725098 6.052636623382568 9.331926345825195 4.1122727394104 9.331926345825195 C4.116873741149902 9.006902694702148 4.121476650238037 8.681879043579102 4.126078128814697 8.356855392456055"></path>
<path fill="none" stroke="black" stroke-width=".3" stroke-opacity="1.0"  filling="0" d="M13.308438301086426 10.66826343536377 C15.971333503723145 10.66826343536377 18.54391098022461 10.66826343536377 21.116493225097656 10.66826343536377 C21.1372013092041 10.913900375366211 21.157909393310547 11.159538269042969 21.17804718017578 11.40575122833252 C19.138160705566406 11.536335945129395 17.09827423095703 11.666921615600586 14.854747772216797 11.810736656188965 C14.27775764465332 17.078426361083984 15.05724048614502 22.364524841308594 14.417547225952148 27.54132080078125 C14.211027145385742 27.545928955078125 14.003931045532227 27.551103591918945 13.796835899353027 27.556856155395508 C13.634037017822266 27.358964920043945 13.330296516418457 27.161075592041016 13.329146385192871 26.962608337402344 C13.30325984954834 21.606327056884766 13.308438301086426 16.24947166442871 13.308438301086426 10.66826343536377"></path>
<path fill="none" stroke="black" stroke-width=".3" stroke-opacity="1.0"  filling="0" d="M4.119750022888184 10.723489761352539 C6.5870561599731445 10.723489761352539 9.053787231445312 10.723489761352539 11.916299819946289 10.723489761352539 C11.927804946899414 16.30124855041504 11.924352645874023 21.91064453125 11.5487060546875 27.536148071289062 C9.782071113586426 26.10086441040039 10.6110258102417 24.25541877746582 10.472387313842773 22.607860565185547 C10.328572273254395 20.898178100585938 10.440173149108887 19.166635513305664 10.440173149108887 17.444293975830078 C10.440173149108887 15.639117240905762 10.440173149108887 13.833940505981445 10.440173149108887 11.655991554260254 C8.19664478302002 11.655991554260254 6.15388298034668 11.655991554260254 4.111122131347656 11.655991554260254 C4.113422870635986 11.34477424621582 4.116298675537109 11.03413200378418 4.119750022888184 10.723489761352539"></path></svg>