<svg xmlns="http://www.w3.org/2000/svg" viewBox="0.0 0.0 24.0 24.0" height="200px" width="200px"><path fill="none" stroke="black" stroke-width=".3" stroke-opacity="1.0"  filling="0" d="M15.613759994506836 6.6391682624816895 L15.613759994506836 6.6391682624816895 C15.80518627166748 6.648373126983643 15.996613502502441 6.657578468322754 16.188039779663086 6.666783332824707 L16.188039779663086 6.666783332824707 C16.077632904052734 8.284399032592773 16.09917449951172 9.848884582519531 16.018741607666016 11.398846626281738 C15.93830680847168 12.948807716369629 15.75589370727539 14.484245300292969 15.237576484680176 16.043766021728516 L15.237576484680176 16.043766021728516 C15.53327751159668 14.469023704528809 15.632122993469238 12.914735794067383 15.654643058776855 11.35570240020752 C15.677163124084473 9.796669006347656 15.623357772827148 8.232890129089355 15.613759994506836 6.6391682624816895 L15.613759994506836 6.6391682624816895"></path>
<path fill="none" stroke="black" stroke-width=".3" stroke-opacity="1.0"  filling="0" d="M8.744107246398926 6.650439739227295 L8.744107246398926 6.650439739227295 C8.72515869140625 8.689043998718262 8.351543426513672 11.28345012664795 8.689262390136719 13.407477378845215 C9.026981353759766 15.531503677368164 10.076033592224121 17.185150146484375 12.902419090270996 17.342233657836914 L12.902419090270996 17.342233657836914 C11.555992126464844 17.359983444213867 10.692076683044434 17.63376808166504 9.564314842224121 16.737417221069336 C8.367841720581055 15.786455154418945 8.046168327331543 13.943841934204102 8.003658294677734 12.003560066223145 C7.961148262023926 10.063278198242188 8.19780158996582 8.025327682495117 8.117980003356934 6.683690547943115 L8.117980003356934 6.683690547943115 C8.326688766479492 6.672606945037842 8.535398483276367 6.661523342132568 8.744107246398926 6.650439739227295 L8.744107246398926 6.650439739227295"></path></svg>