<svg xmlns="http://www.w3.org/2000/svg" viewBox="0.0 0.0 24.0 24.0" height="200px" width="200px"><path fill="none" stroke="black" stroke-width=".3" stroke-opacity="1.0"  filling="0" d="M6.683599948883057 7.78059196472168 L6.683599948883057 7.78059196472168 C6.815834045410156 7.78059196472168 6.948068618774414 7.78059196472168 7.080302715301514 7.78059196472168 L7.080302715301514 7.78059196472168 C7.441057205200195 9.043828010559082 7.801785469055176 10.307072639465332 8.162498474121094 11.570321083068848 C8.523212432861328 12.83357048034668 8.8839111328125 14.096822738647461 9.244606971740723 15.360075950622559 L9.244606971740723 15.360075950622559 C9.31257438659668 15.357810020446777 9.380541801452637 15.355545043945312 9.448509216308594 15.353279113769531 L9.448509216308594 15.353279113769531 C9.652259826660156 14.820793151855469 9.856010437011719 14.288307189941406 10.059761047363281 13.755821228027344 L10.059761047363281 13.755821228027344 C10.128634452819824 13.777495384216309 10.197507858276367 13.799169540405273 10.26638126373291 13.820843696594238 L10.26638126373291 13.820843696594238 C10.266378402709961 13.820854187011719 9.45893383026123 16.296201705932617 9.458930969238281 16.29621124267578 L9.458930969238281 16.29621124267578 C9.373820304870605 16.301572799682617 9.288710594177246 16.306936264038086 9.20359992980957 16.312297821044922 L9.20359992980957 16.312297821044922 C8.783512115478516 14.890373229980469 8.363479614257812 13.46843147277832 7.943485260009766 12.046478271484375 C7.523490905761719 10.624526023864746 7.103534698486328 9.20256233215332 6.683599948883057 7.78059196472168 L6.683599948883057 7.78059196472168"></path>
<path fill="none" stroke="black" stroke-width=".3" stroke-opacity="1.0"  filling="0" d="M16.998313903808594 7.781045436859131 L16.998313903808594 7.781045436859131 C17.15999984741211 7.781045436859131 17.321687698364258 7.781045436859131 17.483373641967773 7.781045436859131 L17.483373641967773 7.781045436859131 C17.009246826171875 9.196722984313965 16.5351505279541 10.612409591674805 16.061052322387695 12.028096199035645 C15.586953163146973 13.443782806396484 15.112852096557617 14.859468460083008 14.638716697692871 16.275142669677734 L14.638716697692871 16.275142669677734 C14.555268287658691 16.29047203063965 14.471818923950195 16.305803298950195 14.388370513916016 16.32113265991211 L14.388370513916016 16.32113265991211 C14.01386547088623 15.071873664855957 13.639307022094727 13.822629928588867 13.264721870422363 12.573394775390625 C12.890137672424316 11.324158668518066 12.515527725219727 10.074930191040039 12.14091968536377 8.825701713562012 L12.14091968536377 8.825701713562012 C11.978251457214355 9.029829978942871 11.815582275390625 9.233959197998047 11.652914047241211 9.438087463378906 L11.652914047241211 9.438087463378906 C11.610396385192871 9.422530174255371 11.567879676818848 9.406973838806152 11.525362014770508 9.391416549682617 L11.525362014770508 9.391416549682617 C11.685613632202148 8.911038398742676 11.845866203308105 8.43066120147705 12.006117820739746 7.950283527374268 L12.006117820739746 7.950283527374268 C12.073707580566406 7.94431734085083 12.14129638671875 7.938351631164551 12.20888614654541 7.932385444641113 L12.20888614654541 7.932385444641113 C12.580557823181152 9.167953491210938 12.952223777770996 10.403523445129395 13.32388973236084 11.639093399047852 C13.695555686950684 12.874663352966309 14.067220687866211 14.110233306884766 14.438892364501953 15.345802307128906 L14.438892364501953 15.345802307128906 C14.516828536987305 15.347463607788086 14.594764709472656 15.349125862121582 14.672700881958008 15.350787162780762 L14.672700881958008 15.350787162780762 C15.094661712646484 14.094228744506836 15.516956329345703 12.84563159942627 15.913315773010254 11.589255332946777 C16.309675216674805 10.332879066467285 16.680099487304688 9.06872272491455 16.998313903808594 7.781045436859131 L16.998313903808594 7.781045436859131"></path></svg>