<svg xmlns="http://www.w3.org/2000/svg" viewBox="0.0 0.0 24.0 24.0" height="200px" width="200px"><path fill="none" stroke="black" stroke-width=".3" stroke-opacity="1.0"  filling="0" d="M6.293274402618408 4.3122382164001465 C6.293274402618408 7.325836181640625 6.293274402618408 9.720837593078613 6.293274402618408 12.253436088562012 C10.521718978881836 12.253436088562012 14.600220680236816 12.253436088562012 18.89628791809082 12.253436088562012 C18.89628791809082 9.85196590423584 18.89628791809082 7.474605083465576 18.89628791809082 4.955531120300293 C19.14501953125 4.955531120300293 19.59426498413086 4.955531120300293 20.034692764282227 4.955531120300293 C20.034692764282227 11.043880462646484 20.034692764282227 17.15692710876465 20.034692764282227 23.40110206604004 C19.721866607666016 23.4263858795166 19.36199951171875 23.4552001953125 18.92392349243164 23.490482330322266 C18.92392349243164 20.06644630432129 18.92392349243164 16.718265533447266 18.92392349243164 13.1972074508667 C14.723115921020508 13.1972074508667 10.65931510925293 13.1972074508667 6.367364406585693 13.1972074508667 C6.367364406585693 16.6153621673584 6.367364406585693 19.982946395874023 6.367364406585693 23.432268142700195 C5.946930408477783 23.458139419555664 5.575891017913818 23.480485916137695 5.057257652282715 23.512239456176758 C5.057257652282715 17.48269271850586 5.043145656585693 11.546638488769531 5.095478534698486 5.6111741065979 C5.098419666290283 5.293641567230225 5.657037734985352 4.980815887451172 6.293274402618408 4.3122382164001465"></path></svg>