<svg xmlns="http://www.w3.org/2000/svg" viewBox="0.0 0.0 24.0 24.0" height="200px" width="200px"><path fill="none" stroke="black" stroke-width=".3" stroke-opacity="1.0"  filling="0" d="M10.059989929199219 7.437209129333496 C11.873011589050293 9.326643943786621 11.020374298095703 11.093488693237305 11.157808303833008 12.63988971710205 C11.311182975769043 14.365504264831543 11.192991256713867 16.115306854248047 11.192991256713867 17.854663848876953 C11.192991256713867 19.5676326751709 11.192991256713867 21.28115463256836 11.192991256713867 23.314067840576172 C13.99663257598877 23.314067840576172 16.498470306396484 23.314067840576172 19.456586837768555 23.314067840576172 C17.681499481201172 24.53447914123535 14.640920639038086 24.718639373779297 10.059989929199219 24.161209106445312 C10.059989929199219 18.650127410888672 10.059989929199219 13.338051795959473 10.059989929199219 7.437209129333496"></path>
<path fill="none" stroke="black" stroke-width=".3" stroke-opacity="1.0"  filling="0" d="M7.7527570724487305 7.947912693023682 C8.934684753417969 9.631197929382324 8.44817066192627 11.507989883422852 8.527881622314453 13.291874885559082 C8.617488861083984 15.298402786254883 8.548221588134766 17.311527252197266 8.548221588134766 19.321903228759766 C8.548221588134766 21.23497772216797 8.548221588134766 23.148052215576172 8.548221588134766 25.51630401611328 C12.114344596862793 25.51630401611328 15.55457878112793 25.51630401611328 18.99481201171875 25.51630401611328 C18.998661041259766 25.766433715820312 19.00250816345215 26.016010284423828 19.006357192993164 26.26613998413086 C17.170246124267578 26.909326553344727 15.2159423828125 26.50582504272461 13.32210922241211 26.573991775512695 C11.410684585571289 26.64270782470703 9.495412826538086 26.58883285522461 7.154646396636963 26.58883285522461 C7.247002124786377 20.144855499267578 6.9644389152526855 14.048858642578125 7.7527570724487305 7.947912693023682"></path></svg>