<svg xmlns="http://www.w3.org/2000/svg" viewBox="0.0 0.0 24.0 24.0" height="200px" width="200px"><path fill="none" stroke="black" stroke-width=".3" stroke-opacity="1.0"  filling="0" d="M15.564802169799805 9.504182815551758 L15.564802169799805 9.504182815551758 C16.22720718383789 9.504182815551758 16.889610290527344 9.504182815551758 17.55201530456543 9.504182815551758 L17.55201530456543 9.504182815551758 C17.55201530456543 11.269037246704102 17.55201530456543 13.033891677856445 17.55201530456543 14.798746109008789 C17.55201530456543 16.563600540161133 17.55201530456543 18.32845687866211 17.55201530456543 20.093311309814453 L17.55201530456543 20.093311309814453 C17.36884117126465 20.09771728515625 17.1856689453125 20.102123260498047 17.00249481201172 20.106529235839844 L17.00249481201172 20.106529235839844 C16.968017578125 18.46991539001465 16.96232795715332 16.83338737487793 16.959762573242188 15.19682502746582 C16.957195281982422 13.560262680053711 16.957752227783203 11.923666954040527 16.935771942138672 10.286918640136719 L16.935771942138672 10.286918640136719 C14.654899597167969 11.107231140136719 13.732545852661133 12.839347839355469 12.241869926452637 14.703540802001953 L12.241869926452637 14.703540802001953 C10.758456230163574 12.847427368164062 9.703676223754883 11.036697387695312 7.488799571990967 10.136161804199219 L7.488799571990967 10.136161804199219 C7.488799571990967 11.796158790588379 7.488799571990967 13.456155776977539 7.488799571990967 15.116153717041016 C7.488799571990967 16.776151657104492 7.488799571990967 18.43614959716797 7.488799571990967 20.096145629882812 L7.488799571990967 20.096145629882812 C7.381476402282715 20.123737335205078 7.274153232574463 20.15132713317871 7.166830062866211 20.178918838500977 L7.166830062866211 20.178918838500977 C6.380239009857178 19.19989585876465 6.758439540863037 17.549663543701172 6.755442142486572 16.34210205078125 C6.749921798706055 14.117985725402832 6.752230167388916 11.893852233886719 6.752645015716553 9.669731140136719 L6.752645015716553 9.669731140136719 C7.357820510864258 9.628933906555176 7.991183280944824 9.360292434692383 8.568171501159668 9.54733943939209 C9.969490051269531 10.001616477966309 11.345219612121582 12.561227798461914 12.215433120727539 13.623068809509277 L12.215433120727539 13.623068809509277 C13.331847190856934 12.250072479248047 14.4483003616333 10.877107620239258 15.564802169799805 9.504182815551758 L15.564802169799805 9.504182815551758"></path>
<path fill="none" stroke="black" stroke-width=".3" stroke-opacity="1.0"  filling="0" d="M8.355255126953125 11.067451477050781 L8.355255126953125 11.067451477050781 C9.644489288330078 12.657902717590332 10.933727264404297 14.248345375061035 12.222987174987793 15.838775634765625 L12.222987174987793 15.838775634765625 C13.410259246826172 14.36793327331543 14.597509384155273 12.89707088470459 15.784799575805664 11.426244735717773 L15.784799575805664 11.426244735717773 C15.89694881439209 11.44617748260498 16.009098052978516 11.466111183166504 16.121246337890625 11.486043930053711 L16.121246337890625 11.486043930053711 C16.125316619873047 12.93065357208252 16.13351058959961 14.364988327026367 16.100000381469727 15.797540664672852 C16.066492080688477 17.23009490966797 15.991281509399414 18.660865783691406 15.828547477722168 20.098346710205078 L15.828547477722168 20.098346710205078 C15.238405227661133 17.861778259277344 15.419899940490723 15.577999114990234 15.169185638427734 13.274031639099121 L15.169185638427734 13.274031639099121 C14.18961238861084 14.457295417785645 13.210067749023438 15.640579223632812 12.230541229248047 16.823884963989258 L12.230541229248047 16.823884963989258 C11.203170776367188 15.595052719116211 10.175772666931152 14.366251945495605 9.148378372192383 13.13743782043457 L9.148378372192383 13.13743782043457 C9.003976821899414 15.475112915039062 9.092546463012695 17.805511474609375 8.90666389465332 20.14020538330078 L8.90666389465332 20.14020538330078 C8.722861289978027 20.11712646484375 8.539057731628418 20.094045639038086 8.355255126953125 20.070966720581055 L8.355255126953125 20.070966720581055 C8.355255126953125 18.57038116455078 8.355255126953125 17.069795608520508 8.355255126953125 15.569209098815918 C8.355255126953125 14.068622589111328 8.355255126953125 12.568037033081055 8.355255126953125 11.067451477050781 L8.355255126953125 11.067451477050781"></path></svg>