<svg xmlns="http://www.w3.org/2000/svg" viewBox="0.0 0.0 24.0 24.0" height="200px" width="200px"><path fill="none" stroke="black" stroke-width=".3" stroke-opacity="1.0"  filling="0" d="M11.273247718811035 7.762803077697754 L11.273247718811035 7.762803077697754 C11.8753662109375 7.839698314666748 12.492067337036133 7.840975761413574 13.079604148864746 7.993488311767578 C14.946521759033203 8.47810173034668 15.931235313415527 9.533723831176758 16.414392471313477 10.87159538269043 C16.897550582885742 12.209466934204102 16.879150390625 13.829587936401367 16.739845275878906 15.443198204040527 L16.739845275878906 15.443198204040527 C17.204145431518555 13.945201873779297 17.361162185668945 12.216943740844727 16.92169761657715 10.768643379211426 C16.48223114013672 9.320343017578125 15.446283340454102 8.151999473571777 13.52465534210205 7.773829460144043 C12.788300514221191 7.628917217254639 12.023716926574707 7.766478538513184 11.273247718811035 7.762803077697754 L11.273247718811035 7.762803077697754"></path>
<path fill="none" stroke="black" stroke-width=".3" stroke-opacity="1.0"  filling="0" d="M7.277976989746094 11.146856307983398 L7.277976989746094 11.146856307983398 C6.924497127532959 12.705480575561523 6.8647308349609375 14.330681800842285 7.366250038146973 15.653911590576172 C7.867769241333008 16.977142333984375 8.930574417114258 17.99839973449707 10.82223892211914 18.349138259887695 C11.50147533416748 18.47507667541504 12.203397750854492 18.385066986083984 12.893977165222168 18.403030395507812 L12.893977165222168 18.403030395507812 C10.682052612304688 18.10283851623535 9.257393836975098 17.35565757751465 8.396044731140137 16.15009307861328 C7.534696102142334 14.944528579711914 7.236658096313477 13.2805814743042 7.277976989746094 11.146856307983398 L7.277976989746094 11.146856307983398"></path></svg>