<svg xmlns="http://www.w3.org/2000/svg" viewBox="0.0 0.0 24.0 24.0" height="200px" width="200px"><path fill="none" stroke="black" stroke-width=".3" stroke-opacity="1.0"  filling="0" d="M8.499749183654785 9.594703674316406 L8.499749183654785 9.594703674316406 C10.426546096801758 9.558734893798828 13.377683639526367 8.995388984680176 15.09146499633789 10.158407211303711 C16.780515670776367 11.304642677307129 16.73886489868164 14.258808135986328 15.226140975952148 15.516218185424805 C14.05366325378418 16.490806579589844 12.354867935180664 16.46646499633789 10.937409400939941 16.61688804626465 L10.937409400939941 16.61688804626465 C10.874403953552246 17.851289749145508 10.811376571655273 19.085691452026367 10.748327255249023 20.320091247558594 L10.748327255249023 20.320091247558594 C10.566473007202148 20.317859649658203 10.384617805480957 20.315628051757812 10.202763557434082 20.313396453857422 L10.202763557434082 20.313396453857422 C10.038887023925781 18.777889251708984 10.060967445373535 17.33442497253418 10.132933616638184 15.79232406616211 L10.132933616638184 15.79232406616211 C11.437580108642578 15.815945625305176 13.00767993927002 16.021223068237305 14.21700668334961 15.371160507202148 C15.701400756835938 14.57323932647705 16.15041160583496 11.8416166305542 14.684165954589844 10.790912628173828 C13.30785846710205 9.804657936096191 10.906730651855469 10.125804901123047 9.326544761657715 10.081916809082031 L9.326544761657715 10.081916809082031 C9.326544761657715 11.772804260253906 9.412935256958008 13.508910179138184 9.408501625061035 15.236045837402344 C9.404067039489746 16.96318244934082 9.308809280395508 18.681346893310547 8.945510864257812 20.336353302001953 L8.945510864257812 20.336353302001953 C8.706280708312988 18.548011779785156 8.612922668457031 16.76243782043457 8.570331573486328 14.974028587341309 C8.527739524841309 13.185619354248047 8.535914421081543 11.394377708435059 8.499749183654785 9.594703674316406 L8.499749183654785 9.594703674316406"></path>
<path fill="none" stroke="black" stroke-width=".3" stroke-opacity="1.0"  filling="0" d="M10.158442497253418 10.797430992126465 L10.158442497253418 10.797430992126465 C11.852673530578613 10.761062622070312 14.877847671508789 10.353618621826172 14.763372421264648 12.987021446228027 C14.742823600769043 13.459728240966797 14.573010444641113 13.977116584777832 14.229127883911133 14.302106857299805 C13.26930046081543 15.209203720092773 11.319906234741211 14.888164520263672 10.158442497253418 14.870827674865723 L10.158442497253418 14.870827674865723 C10.158442497253418 13.513028144836426 10.158442497253418 12.155229568481445 10.158442497253418 10.797430992126465 L10.158442497253418 10.797430992126465"></path>
<path fill="none" stroke="black" stroke-width=".3" stroke-opacity="1.0"  filling="0" d="M10.945381164550781 11.552165985107422 L10.945381164550781 11.552165985107422 C11.78731632232666 11.45324993133545 13.026511192321777 11.035712242126465 13.683404922485352 12.0164213180542 C14.453186988830566 13.165666580200195 13.582574844360352 13.959711074829102 12.589406967163086 14.246944427490234 C12.062779426574707 14.399250030517578 11.49317741394043 14.267271995544434 10.945062637329102 14.277435302734375 L10.945062637329102 14.277435302734375 C10.945097923278809 13.043924331665039 10.945124626159668 12.764908790588379 10.945381164550781 11.552165985107422 L10.945381164550781 11.552165985107422"></path></svg>