<svg xmlns="http://www.w3.org/2000/svg" viewBox="0.0 0.0 24.0 24.0" height="200px" width="200px"><path fill="none" stroke="black" stroke-width=".3" stroke-opacity="1.0"  filling="0" d="M12.25595760345459 8.709407806396484 L12.25595760345459 8.709407806396484 C12.831351280212402 8.613750457763672 13.404465675354004 8.341675758361816 13.982138633728027 8.42243480682373 C16.20672607421875 8.733434677124023 16.7530574798584 10.804533958435059 16.462804794311523 13.017021179199219 C16.17255401611328 15.229507446289062 15.0457181930542 17.58338165283203 13.923971176147461 18.459932327270508 C12.553458213806152 19.530872344970703 11.292374610900879 19.39252281188965 10.370735168457031 18.645771026611328 C9.4490966796875 17.89902114868164 8.866903305053711 16.543867111206055 8.854170799255371 15.181196212768555 C8.841741561889648 13.85103702545166 9.160394668579102 12.600452423095703 9.748052597045898 11.498725891113281 C10.335709571838379 10.39699935913086 11.192370414733887 9.444131851196289 12.25595760345459 8.709407806396484 L12.25595760345459 8.709407806396484"></path>
<path fill="none" stroke="black" stroke-width=".3" stroke-opacity="1.0"  filling="0" d="M13.569018363952637 10.260743141174316 L13.569018363952637 10.260743141174316 C15.280999183654785 11.741230010986328 14.140523910522461 14.438782691955566 13.312460899353027 16.281455993652344 C13.168463706970215 16.601890563964844 12.44918155670166 17.903358459472656 11.716167449951172 17.318777084350586 C10.405549049377441 16.273555755615234 11.235273361206055 12.40603256225586 12.107298851013184 11.2662935256958 C12.466663360595703 10.79660415649414 13.081778526306152 10.595926284790039 13.569018363952637 10.260743141174316 L13.569018363952637 10.260743141174316"></path></svg>