<svg xmlns="http://www.w3.org/2000/svg" viewBox="0.0 0.0 24.0 24.0" height="200px" width="200px"><path fill="none" stroke="black" stroke-width=".3" stroke-opacity="1.0"  filling="0" d="M15.83738899230957 8.270130157470703 L15.83738899230957 8.270130157470703 C15.462884902954102 10.070135116577148 15.088356018066406 11.870134353637695 14.713823318481445 13.67013168334961 C14.3392915725708 15.470130920410156 13.96475601196289 17.27012825012207 13.590238571166992 19.070131301879883 L13.590238571166992 19.070131301879883 C12.895346641540527 19.070131301879883 12.200453758239746 19.070131301879883 11.505561828613281 19.070131301879883 L11.505561828613281 19.070131301879883 C11.991069793701172 16.660520553588867 12.476446151733398 14.25089168548584 12.961848258972168 11.841259956359863 L12.961848258972168 11.841259956359863 C11.985125541687012 12.1912202835083 11.008393287658691 12.541154861450195 10.031652450561523 12.891064643859863 L10.031652450561523 12.891064643859863 C10.145343780517578 12.277807235717773 10.25903606414795 11.664549827575684 10.372727394104004 11.051292419433594 L10.372727394104004 11.051292419433594 C12.30859375 10.24499797821045 13.843998908996582 8.970824241638184 15.83738899230957 8.270130157470703 L15.83738899230957 8.270130157470703"></path></svg>