<svg xmlns="http://www.w3.org/2000/svg" viewBox="0.0 0.0 24.0 24.0" height="200px" width="200px"><path fill="none" stroke="black" stroke-width=".3" stroke-opacity="1.0"  filling="0" d="M16.314598083496094 9.75908088684082 L16.314598083496094 9.75908088684082 C15.477363586425781 11.56442642211914 14.643383979797363 13.364788055419922 13.77001953125 15.145156860351562 C12.896656036376953 16.925525665283203 11.983908653259277 18.685897827148438 10.98913860321045 20.411266326904297 L10.98913860321045 20.411266326904297 C11.574798583984375 18.669879913330078 12.280467987060547 16.983169555664062 13.019875526428223 15.310043334960938 C13.759283065795898 13.636918067932129 14.532430648803711 11.977376937866211 15.253044128417969 10.290331840515137 L15.253044128417969 10.290331840515137 C13.062450408935547 10.290331840515137 10.871853828430176 10.290331840515137 8.681260108947754 10.290331840515137 L8.681260108947754 10.290331840515137 C8.67978572845459 10.15788745880127 8.678312301635742 10.025443077087402 8.676837921142578 9.892998695373535 L8.676837921142578 9.892998695373535 C9.945497512817383 9.781813621520996 11.218085289001465 9.74594497680664 12.491933822631836 9.739066123962402 C13.765783309936523 9.73218822479248 15.0408935546875 9.754301071166992 16.314598083496094 9.75908088684082 L16.314598083496094 9.75908088684082"></path>
<path fill="none" stroke="black" stroke-width=".3" stroke-opacity="1.0"  filling="0" d="M14.033567428588867 11.10300064086914 L14.033567428588867 11.10300064086914 C13.316503524780273 12.68389892578125 12.606681823730469 14.266807556152344 11.880439758300781 15.841967582702637 C11.15419864654541 17.41712760925293 10.411537170410156 18.984539031982422 9.628793716430664 20.53444480895996 L9.628793716430664 20.53444480895996 C9.448552131652832 20.451904296875 9.268309593200684 20.36936378479004 9.088068008422852 20.286823272705078 L9.088068008422852 20.286823272705078 C9.746456146240234 18.843257904052734 10.404841423034668 17.39969253540039 11.063220977783203 15.956123352050781 C11.721601486206055 14.512554168701172 12.379975318908691 13.06898307800293 13.03834056854248 11.625408172607422 L13.03834056854248 11.625408172607422 C11.5028076171875 11.625408172607422 9.967275619506836 11.625408172607422 8.431742668151855 11.625408172607422 L8.431742668151855 11.625408172607422 C10.311938285827637 10.748886108398438 11.953169822692871 11.012907028198242 14.033567428588867 11.10300064086914 L14.033567428588867 11.10300064086914"></path></svg>