<svg xmlns="http://www.w3.org/2000/svg" viewBox="0.0 0.0 24.0 24.0" height="200px" width="200px"><path fill="none" stroke="black" stroke-width=".3" stroke-opacity="1.0"  filling="0" d="M11.243894577026367 9.640738487243652 L11.243894577026367 9.640738487243652 C13.515716552734375 9.233898162841797 15.184122085571289 9.20057201385498 16.876693725585938 10.897037506103516 L16.876693725585938 10.897037506103516 C15.037702560424805 10.454800605773926 12.959693908691406 9.822847366333008 11.112798690795898 10.610052108764648 C9.406516075134277 11.337323188781738 8.520308494567871 13.008834838867188 8.489137649536133 14.689756393432617 C8.457967758178711 16.370677947998047 9.281834602355957 18.06100845336914 10.99570083618164 18.825918197631836 C12.830548286437988 19.64482307434082 14.911811828613281 19.004194259643555 16.7718505859375 18.679563522338867 L16.7718505859375 18.679563522338867 C16.00955581665039 19.7744140625 14.679169654846191 20.211185455322266 13.296751022338867 20.19083595275879 C11.91433334350586 20.170486450195312 10.47988224029541 19.693016052246094 9.509458541870117 18.959383010864258 C8.445988655090332 18.155406951904297 7.792599678039551 16.986005783081055 7.573720932006836 15.734579086303711 C7.354841232299805 14.483154296875 7.57047176361084 13.149704933166504 8.245039939880371 12.017637252807617 C9.147271156311035 10.50350284576416 9.753416061401367 10.442410469055176 11.243894577026367 9.640738487243652 L11.243894577026367 9.640738487243652"></path>
<path fill="none" stroke="black" stroke-width=".3" stroke-opacity="1.0"  filling="0" d="M12.256063461303711 10.953840255737305 L12.256063461303711 10.953840255737305 C13.989182472229004 10.810090065002441 15.90562915802002 10.773398399353027 16.92292022705078 12.396257400512695 L16.92292022705078 12.396257400512695 C15.337915420532227 12.04078197479248 13.290392875671387 11.272902488708496 11.68820858001709 12.050933837890625 C9.671066284179688 13.030471801757812 9.700359344482422 16.50282859802246 11.728180885314941 17.45015525817871 C13.364200592041016 18.214447021484375 15.422557830810547 17.36922836303711 17.012657165527344 16.96703338623047 L17.012657165527344 16.96703338623047 C15.849662780761719 18.873811721801758 13.455883979797363 19.074304580688477 11.614514350891113 18.211200714111328 C9.773144721984863 17.348098754882812 8.484184265136719 15.421398162841797 9.530826568603516 13.073789596557617 C10.187165260314941 11.601628303527832 10.900667190551758 11.581029891967773 12.256063461303711 10.953840255737305 L12.256063461303711 10.953840255737305"></path></svg>