<svg xmlns="http://www.w3.org/2000/svg" viewBox="0.0 0.0 24.0 24.0" height="200px" width="200px"><path fill="none" stroke="black" stroke-width=".3" stroke-opacity="1.0"  filling="0" d="M10.098212242126465 6.642218112945557 L10.098212242126465 6.642218112945557 C11.680230140686035 6.642218112945557 13.262248992919922 6.642218112945557 14.844267845153809 6.642218112945557 L14.844267845153809 6.642218112945557 C14.819830894470215 6.9731125831604 14.795393943786621 7.304007053375244 14.770956993103027 7.634901523590088 L14.770956993103027 7.634901523590088 C13.729429244995117 7.211539268493652 12.587936401367188 6.985482692718506 11.463723182678223 6.972826957702637 L11.463723182678223 6.972826957702637 C11.463723182678223 8.435419082641602 11.463723182678223 9.898012161254883 11.463723182678223 11.360603332519531 L11.463723182678223 11.360603332519531 C12.53494644165039 11.360603332519531 13.606170654296875 11.360603332519531 14.677393913269043 11.360603332519531 L14.677393913269043 11.360603332519531 C14.635271072387695 11.593750953674316 14.593149185180664 11.826897621154785 14.551026344299316 12.06004524230957 L14.551026344299316 12.06004524230957 C13.526302337646484 11.970725059509277 12.501575469970703 11.881442070007324 11.476844787597656 11.792192459106445 L11.476844787597656 11.792192459106445 C11.476844787597656 13.469579696655273 11.476844787597656 15.146971702575684 11.476844787597656 16.824357986450195 L11.476844787597656 16.824357986450195 C12.752405166625977 16.824357986450195 14.027965545654297 16.824357986450195 15.303525924682617 16.824357986450195 L15.303525924682617 16.824357986450195 C13.753708839416504 17.798433303833008 11.877726554870605 17.441030502319336 10.081381797790527 17.43480110168457 L10.081381797790527 17.43480110168457 C10.445928573608398 15.728954315185547 10.645798683166504 13.882575988769531 10.65670108795166 12.036775588989258 C10.667603492736816 10.190975189208984 10.489538192749023 8.345752716064453 10.098212242126465 6.642218112945557 L10.098212242126465 6.642218112945557"></path></svg>