<svg xmlns="http://www.w3.org/2000/svg" viewBox="0.0 0.0 24.0 24.0" height="200px" width="200px"><path fill="none" stroke="black" stroke-width=".3" stroke-opacity="1.0"  filling="0" d="M12.804924964904785 8.924168586730957 L12.804924964904785 8.924168586730957 C13.299864768981934 9.63382339477539 13.224942207336426 10.619512557983398 13.230199813842773 11.484698295593262 C13.236629486083984 12.54269027709961 13.477925300598145 14.996971130371094 13.181380271911621 16.948312759399414 C12.884836196899414 18.899656295776367 12.050451278686523 20.348060607910156 9.905519485473633 19.394298553466797 L9.905519485473633 19.394298553466797 C10.353543281555176 18.889699935913086 11.219341278076172 19.005603790283203 11.780285835266113 18.630523681640625 C12.556892395019531 18.11124038696289 12.435013771057129 16.88456916809082 12.458538055419922 16.1702880859375 C12.535613059997559 13.830042839050293 12.473472595214844 11.479768753051758 12.46811294555664 9.138655662536621 L12.46811294555664 9.138655662536621 C12.58038330078125 9.067159652709961 12.692654609680176 8.995664596557617 12.804924964904785 8.924168586730957 L12.804924964904785 8.924168586730957"></path>
<path fill="none" stroke="black" stroke-width=".3" stroke-opacity="1.0"  filling="0" d="M11.747570991516113 9.042184829711914 L11.747570991516113 9.042184829711914 C11.991670608520508 10.094095230102539 12.11162281036377 11.546304702758789 12.12122631072998 13.002511024475098 C12.130829811096191 14.458717346191406 12.030084609985352 15.918922424316406 11.832791328430176 16.98682403564453 C11.620838165283203 18.13407325744629 10.48898696899414 19.314422607421875 9.51747989654541 18.109291076660156 L9.51747989654541 18.109291076660156 C11.252084732055664 17.421401977539062 11.340641975402832 15.765254020690918 11.230031967163086 13.975764274597168 C11.119421005249023 12.186274528503418 10.809640884399414 10.263442993164062 11.747570991516113 9.042184829711914 L11.747570991516113 9.042184829711914"></path></svg>