<svg xmlns="http://www.w3.org/2000/svg" viewBox="0.0 0.0 24.0 24.0" height="200px" width="200px"><path fill="none" stroke="black" stroke-width=".3" stroke-opacity="1.0"  filling="0" d="M8.066357612609863 2.9428329467773438 C7.471922397613525 8.806745529174805 7.854889869689941 14.533052444458008 7.867031574249268 20.24671173095703 C7.868043422698975 20.82900619506836 8.317790985107422 21.410287857055664 8.561129570007324 21.997133255004883 C7.686424732208252 21.997133255004883 6.635160446166992 21.997133255004883 5.5343170166015625 21.997133255004883 C6.688279628753662 19.555648803710938 6.649325370788574 5.042832851409912 5.4493255615234375 3.0581789016723633 C5.955227375030518 3.015683174133301 6.389797210693359 2.9630699157714844 6.82588529586792 2.946880340576172 C7.317622184753418 2.9286680221557617 7.810370922088623 2.9428329467773438 8.066357612609863 2.9428329467773438"></path>
<path fill="none" stroke="black" stroke-width=".3" stroke-opacity="1.0"  filling="0" d="M16.240219116210938 2.996964454650879 C16.78811264038086 2.996964454650879 17.778667449951172 2.996964454650879 18.396881103515625 2.996964454650879 C15.544604301452637 5.721248149871826 12.536003112792969 8.595784187316895 9.295700073242188 11.691905975341797 C13.240724563598633 15.292411804199219 16.090473175048828 19.649242401123047 20.83330535888672 21.99258041381836 C19.246795654296875 22.338619232177734 17.74376106262207 22.09173583984375 16.5877742767334 20.967622756958008 C13.702108383178711 18.160371780395508 10.902444839477539 15.26458740234375 8.013237953186035 12.34907341003418 C10.671247482299805 8.84266471862793 14.127065658569336 6.690556049346924 16.240219116210938 2.996964454650879"></path></svg>