<svg xmlns="http://www.w3.org/2000/svg" viewBox="0.0 0.0 24.0 24.0" height="200px" width="200px"><path fill="none" stroke="black" stroke-width=".3" stroke-opacity="1.0"  filling="0" d="M9.652384757995605 6.906694412231445 L9.652384757995605 6.906694412231445 C10.6613187789917 6.8957037925720215 12.50471305847168 6.844577789306641 13.893697738647461 7.271337032318115 C15.282682418823242 7.69809627532959 16.217256546020508 8.602741241455078 15.408553123474121 10.503292083740234 C15.129764556884766 11.158479690551758 14.501176834106445 11.60085391998291 14.04748821258545 12.149635314941406 L14.04748821258545 12.149635314941406 C14.795766830444336 10.393378257751465 15.340434074401855 7.894540309906006 12.71733570098877 7.278212547302246 C12.180482864379883 7.152072429656982 11.615633010864258 7.330565929412842 11.064781188964844 7.3567423820495605 L11.064781188964844 7.3567423820495605 C11.064281463623047 8.64548110961914 11.062579154968262 9.934236526489258 11.062829971313477 11.222990036010742 C11.063080787658691 12.51174259185791 11.065286636352539 13.800492286682129 11.072603225708008 15.089218139648438 C11.077637672424316 15.975872039794922 11.078813552856445 17.005096435546875 11.64590072631836 17.68670654296875 L11.64590072631836 17.68670654296875 C11.063161849975586 17.68670654296875 10.480422973632812 17.68670654296875 9.897684097290039 17.68670654296875 L9.897684097290039 17.68670654296875 C10.150107383728027 15.952896118164062 10.306717872619629 14.111702919006348 10.291254997253418 12.277057647705078 C10.275792121887207 10.442411422729492 10.088254928588867 8.614313125610352 9.652384757995605 6.906694412231445 L9.652384757995605 6.906694412231445"></path></svg>