<svg xmlns="http://www.w3.org/2000/svg" viewBox="0.0 0.0 24.0 24.0" height="200px" width="200px"><path fill="none" stroke="black" stroke-width=".3" stroke-opacity="1.0"  filling="0" d="M8.140613555908203 6.791568756103516 L8.140613555908203 6.791568756103516 C9.533707618713379 6.791568756103516 10.926800727844238 6.791568756103516 12.319893836975098 6.791568756103516 C13.712987899780273 6.791568756103516 15.106081008911133 6.791568756103516 16.499174118041992 6.791568756103516 L16.499174118041992 6.791568756103516 C16.499174118041992 7.162538528442383 16.499174118041992 7.533507823944092 16.499174118041992 7.904477596282959 L16.499174118041992 7.904477596282959 C15.342832565307617 7.529141902923584 14.112730979919434 7.329492092132568 12.897005081176758 7.333167552947998 L12.897005081176758 7.333167552947998 C12.674837112426758 8.975153923034668 12.508039474487305 10.749044418334961 12.540596008300781 12.507793426513672 C12.573152542114258 14.266542434692383 12.805063247680664 16.010149002075195 13.3803129196167 17.591567993164062 L13.3803129196167 17.591567993164062 C12.813058853149414 17.591567993164062 12.245803833007812 17.591567993164062 11.678549766540527 17.591567993164062 L11.678549766540527 17.591567993164062 C11.853096961975098 15.870930671691895 11.895750045776367 14.151593208312988 11.905662536621094 12.43090534210205 C11.91557502746582 10.71021842956543 11.892746925354004 8.988180160522461 11.936332702636719 7.262142658233643 L11.936332702636719 7.262142658233643 C11.43130874633789 7.290133953094482 8.646429061889648 7.444427967071533 8.10580825805664 7.474368095397949 L8.10580825805664 7.474368095397949 C8.117409706115723 7.246768474578857 8.129012107849121 7.019168376922607 8.140613555908203 6.791568756103516 L8.140613555908203 6.791568756103516"></path></svg>