<svg xmlns="http://www.w3.org/2000/svg" viewBox="0.0 0.0 24.0 24.0" height="200px" width="200px"><path fill="none" stroke="black" stroke-width=".3" stroke-opacity="1.0"  filling="0" d="M14.685101509094238 7.326732158660889 L14.685101509094238 7.326732158660889 C14.685101509094238 9.355070114135742 14.685101509094238 11.383410453796387 14.685101509094238 13.411746978759766 L14.685101509094238 13.411746978759766 C15.209981918334961 13.505775451660156 15.734862327575684 13.59980297088623 16.259742736816406 13.693831443786621 L16.259742736816406 13.693831443786621 C15.922609329223633 14.285578727722168 15.33795166015625 14.767194747924805 14.705628395080566 15.020159721374512 L14.705628395080566 15.020159721374512 C14.705628395080566 16.055683135986328 14.705628395080566 17.09120750427246 14.705628395080566 18.126731872558594 L14.705628395080566 18.126731872558594 C14.004389762878418 18.126731872558594 13.303152084350586 18.126731872558594 12.601913452148438 18.126731872558594 L12.601913452148438 18.126731872558594 C12.601913452148438 18.03263282775879 12.601913452148438 14.943020820617676 12.601913452148438 14.882428169250488 L12.601913452148438 14.882428169250488 C11.149223327636719 14.882428169250488 9.696529388427734 14.882428169250488 8.2438383102417 14.882428169250488 L8.2438383102417 14.882428169250488 C8.850215911865234 13.336331367492676 9.703231811523438 11.819396018981934 10.783303260803223 10.502989768981934 C11.863373756408691 9.18658447265625 13.170500755310059 8.070709228515625 14.685101509094238 7.326732158660889 L14.685101509094238 7.326732158660889"></path>
<path fill="none" stroke="black" stroke-width=".3" stroke-opacity="1.0"  filling="0" d="M12.492323875427246 9.51917839050293 L12.492323875427246 9.51917839050293 C12.623543739318848 9.548314094543457 12.754764556884766 9.577448844909668 12.885984420776367 9.606584548950195 L12.885984420776367 9.606584548950195 C12.794651985168457 10.982129096984863 12.703370094299316 12.357678413391113 12.612176895141602 13.733231544494629 L12.612176895141602 13.733231544494629 C11.59486198425293 13.733231544494629 10.577548027038574 13.733231544494629 9.560233116149902 13.733231544494629 L9.560233116149902 13.733231544494629 C10.537403106689453 12.328411102294922 11.514753341674805 10.92371940612793 12.492323875427246 9.51917839050293 L12.492323875427246 9.51917839050293"></path></svg>