<svg xmlns="http://www.w3.org/2000/svg" viewBox="0.0 0.0 24.0 24.0" height="200px" width="200px"><path fill="none" stroke="black" stroke-width=".3" stroke-opacity="1.0"  filling="0" d="M16.50792694091797 8.581676483154297 L16.50792694091797 8.581676483154297 C16.061643600463867 10.79996109008789 15.61536979675293 13.0182523727417 15.169137001037598 15.236546516418457 L15.169137001037598 15.236546516418457 C15.562381744384766 15.327536582946777 15.955626487731934 15.418525695800781 16.3488712310791 15.509515762329102 L16.3488712310791 15.509515762329102 C16.283937454223633 16.01455307006836 16.21900177001953 16.51959228515625 16.154067993164062 17.024629592895508 L16.154067993164062 17.024629592895508 C15.682658195495605 17.126222610473633 15.211249351501465 17.22781753540039 14.739839553833008 17.329410552978516 L14.739839553833008 17.329410552978516 C14.586641311645508 17.963409423828125 14.433443069458008 18.597408294677734 14.280244827270508 19.231407165527344 L14.280244827270508 19.231407165527344 C13.639985084533691 19.231407165527344 12.999724388122559 19.231407165527344 12.359464645385742 19.231407165527344 L12.359464645385742 19.231407165527344 C12.464812278747559 18.563968658447266 12.570247650146484 17.896543502807617 12.67575740814209 17.229129791259766 L12.67575740814209 17.229129791259766 C12.655755043029785 17.229129791259766 8.781784057617188 17.229129791259766 8.719371795654297 17.229129791259766 L8.719371795654297 17.229129791259766 C8.805704116821289 15.87680435180664 9.403167724609375 14.756338119506836 10.188572883605957 13.722702980041504 C10.973978042602539 12.689068794250488 11.947325706481934 11.742266654968262 12.785425186157227 10.737268447875977 C12.990574836730957 10.491265296936035 14.442109107971191 8.636788368225098 14.917413711547852 8.48287296295166 C15.422770500183105 8.319226264953613 15.977755546569824 8.548742294311523 16.50792694091797 8.581676483154297 L16.50792694091797 8.581676483154297"></path>
<path fill="none" stroke="black" stroke-width=".3" stroke-opacity="1.0"  filling="0" d="M13.381356239318848 12.316898345947266 L13.381356239318848 12.316898345947266 C13.476183891296387 12.353657722473145 13.57101058959961 12.390417098999023 13.665838241577148 12.427176475524902 L13.665838241577148 12.427176475524902 C13.483083724975586 13.379816055297852 13.300189018249512 14.332429885864258 13.117173194885254 15.285019874572754 L13.117173194885254 15.285019874572754 C12.450959205627441 15.285019874572754 11.784745216369629 15.285019874572754 11.118531227111816 15.285019874572754 L11.118531227111816 15.285019874572754 C11.171158790588379 15.215991973876953 13.299257278442383 12.424592018127441 13.381356239318848 12.316898345947266 L13.381356239318848 12.316898345947266"></path></svg>