<svg xmlns="http://www.w3.org/2000/svg" viewBox="0.0 0.0 24.0 24.0" height="200px" width="200px"><path fill="none" stroke="black" stroke-width=".3" stroke-opacity="1.0"  filling="0" d="M17.382335662841797 9.822004318237305 L17.382335662841797 9.822004318237305 C16.115144729614258 11.320808410644531 14.84801197052002 12.819657325744629 13.580848693847656 14.318485260009766 L13.580848693847656 14.318485260009766 C14.877422332763672 15.857908248901367 16.17406463623047 17.397279739379883 17.470659255981445 18.93668556213379 L17.470659255981445 18.93668556213379 C17.436893463134766 19.021881103515625 17.40312957763672 19.10707664489746 17.36936378479004 19.192272186279297 L17.36936378479004 19.192272186279297 C15.375123023986816 18.47351837158203 13.975894927978516 15.996710777282715 12.628061294555664 14.400735855102539 L12.628061294555664 14.400735855102539 C13.982206344604492 12.552346229553223 15.189292907714844 10.683723449707031 17.382335662841797 9.822004318237305 L17.382335662841797 9.822004318237305"></path>
<path fill="none" stroke="black" stroke-width=".3" stroke-opacity="1.0"  filling="0" d="M7.066457271575928 9.907843589782715 L7.066457271575928 9.907843589782715 C9.245951652526855 10.511478424072266 10.487504959106445 12.691149711608887 11.793130874633789 14.388315200805664 L11.793130874633789 14.388315200805664 C10.455323219299316 15.911287307739258 8.713846206665039 18.940067291259766 6.670658588409424 19.20966148376465 L6.670658588409424 19.20966148376465 C8.045150756835938 17.58080291748047 9.419668197631836 15.951961517333984 10.794249534606934 14.323177337646484 L10.794249534606934 14.323177337646484 C9.551708221435547 12.851354598999023 8.30909252166748 11.37958812713623 7.066457271575928 9.907843589782715 L7.066457271575928 9.907843589782715"></path>
<path fill="none" stroke="black" stroke-width=".3" stroke-opacity="1.0"  filling="0" d="M8.81580924987793 9.961389541625977 L8.81580924987793 9.961389541625977 C10.396220207214355 10.6088228225708 10.995906829833984 11.462061882019043 12.198589324951172 12.641448020935059 L12.198589324951172 12.641448020935059 C13.416086196899414 11.460256576538086 13.970101356506348 10.609945297241211 15.571433067321777 9.965806007385254 L15.571433067321777 9.965806007385254 C14.442546844482422 11.283473014831543 13.313638687133789 12.601123809814453 12.184788703918457 13.918822288513184 L12.184788703918457 13.918822288513184 C11.061760902404785 12.599708557128906 9.938733100891113 11.280591011047363 8.81580924987793 9.961389541625977 L8.81580924987793 9.961389541625977"></path>
<path fill="none" stroke="black" stroke-width=".3" stroke-opacity="1.0"  filling="0" d="M12.184236526489258 14.77334976196289 L12.184236526489258 14.77334976196289 C13.38979434967041 16.167814254760742 14.59534740447998 17.56227684020996 15.800797462463379 18.95683479309082 L15.800797462463379 18.95683479309082 C14.183934211730957 18.916805267333984 13.292195320129395 17.155487060546875 12.2954683303833 15.988622665405273 L12.2954683303833 15.988622665405273 C11.059564590454102 17.13364028930664 10.213866233825684 18.292879104614258 8.804767608642578 19.229534149169922 L8.804767608642578 19.229534149169922 C8.719573020935059 19.143787384033203 8.634377479553223 19.05803871154785 8.549182891845703 18.972291946411133 L8.549182891845703 18.972291946411133 C9.760942459106445 17.572708129882812 10.972594261169434 16.17303466796875 12.184236526489258 14.77334976196289 L12.184236526489258 14.77334976196289"></path></svg>