<svg xmlns="http://www.w3.org/2000/svg" viewBox="0.0 0.0 24.0 24.0" height="200px" width="200px"><path fill="none" stroke="black" stroke-width=".3" stroke-opacity="1.0"  filling="0" d="M11.452207565307617 7.587181091308594 L11.452207565307617 7.587181091308594 C12.193163871765137 9.391487121582031 12.85875415802002 11.257614135742188 13.59438419342041 13.089476585388184 C14.3300142288208 14.921339988708496 15.1356840133667 16.71893882751465 16.15679931640625 18.38619041442871 L16.15679931640625 18.38619041442871 C15.67968463897705 18.386409759521484 15.202569007873535 18.38663101196289 14.725454330444336 18.386850357055664 L14.725454330444336 18.386850357055664 C14.19450569152832 16.99590492248535 13.663891792297363 15.604828834533691 13.133312225341797 14.213741302490234 L13.133312225341797 14.213741302490234 C13.029228210449219 14.213741302490234 9.55254077911377 14.213741302490234 9.463020324707031 14.213741302490234 L9.463020324707031 14.213741302490234 C9.045127868652344 15.602993965148926 8.627330780029297 16.99227523803711 8.209604263305664 18.38157844543457 L8.209604263305664 18.38157844543457 C7.81804895401001 18.38157844543457 7.426494121551514 18.38157844543457 7.034938812255859 18.38157844543457 L7.034938812255859 18.38157844543457 C7.932557582855225 16.646240234375 8.644807815551758 14.840534210205078 9.328685760498047 13.022215843200684 C10.012564659118652 11.203898429870605 10.668072700500488 9.372968673706055 11.452207565307617 7.587181091308594 L11.452207565307617 7.587181091308594"></path>
<path fill="none" stroke="black" stroke-width=".3" stroke-opacity="1.0"  filling="0" d="M11.258131980895996 9.238960266113281 L11.258131980895996 9.238960266113281 C11.796730995178223 10.685361862182617 12.33537483215332 12.131745338439941 12.87399673461914 13.578137397766113 L12.87399673461914 13.578137397766113 C11.822344779968262 13.578137397766113 10.770692825317383 13.578137397766113 9.719040870666504 13.578137397766113 L9.719040870666504 13.578137397766113 C10.231974601745605 12.131709098815918 10.744989395141602 10.685314178466797 11.258131980895996 9.238960266113281 L11.258131980895996 9.238960266113281"></path></svg>