<svg xmlns="http://www.w3.org/2000/svg" viewBox="0.0 0.0 24.0 24.0" height="200px" width="200px"><path fill="none" stroke="black" stroke-width=".3" stroke-opacity="1.0"  filling="0" d="M8.550613403320312 8.368860244750977 L8.550613403320312 8.368860244750977 C9.208002090454102 9.699262619018555 9.865423202514648 11.029648780822754 10.522851943969727 12.360031127929688 C11.180280685424805 13.690413475036621 11.837717056274414 15.020792007446289 12.495136260986328 16.351179122924805 L12.495136260986328 16.351179122924805 C13.134634017944336 15.036142349243164 13.774127006530762 13.72110366821289 14.413625717163086 12.406067848205566 C15.053123474121094 11.091032028198242 15.692626953125 9.77599811553955 16.33214569091797 8.46097183227539 L16.33214569091797 8.46097183227539 C16.41563606262207 8.474628448486328 16.499128341674805 8.488286018371582 16.582618713378906 8.50194263458252 L16.582618713378906 8.50194263458252 C16.86573028564453 10.03231430053711 16.931488037109375 11.584184646606445 17.078611373901367 13.115663528442383 C17.22573471069336 14.64714241027832 17.4542236328125 16.158227920532227 18.06279754638672 17.607032775878906 L18.06279754638672 17.607032775878906 C17.601852416992188 17.607032775878906 17.140907287597656 17.607032775878906 16.679962158203125 17.607032775878906 L16.679962158203125 17.607032775878906 C16.493070602416992 15.250688552856445 16.306312561035156 12.894330978393555 16.119447708129883 10.537984848022461 L16.119447708129883 10.537984848022461 C16.04079818725586 10.517257690429688 15.962150573730469 10.496529579162598 15.883502006530762 10.475802421569824 L15.883502006530762 10.475802421569824 C15.287336349487305 11.708165168762207 14.69117259979248 12.940528869628906 14.095014572143555 14.172895431518555 C13.498855590820312 15.405261993408203 12.902702331542969 16.637630462646484 12.306553840637207 17.87000274658203 L12.306553840637207 17.87000274658203 C11.724621772766113 16.6555118560791 11.142705917358398 15.44101333618164 10.560791015625 14.22651481628418 C9.978876113891602 13.012015342712402 9.396963119506836 11.797515869140625 8.815034866333008 10.583023071289062 L8.815034866333008 10.583023071289062 C8.247624397277832 12.965086936950684 7.910744667053223 15.239015579223633 8.526495933532715 17.64073944091797 L8.526495933532715 17.64073944091797 C8.10506820678711 17.64073944091797 7.68364143371582 17.64073944091797 7.262214183807373 17.64073944091797 L7.262214183807373 17.64073944091797 C7.435572624206543 16.108366012573242 7.608879566192627 14.5759859085083 7.78215217590332 13.04360294342041 C7.955424785614014 11.51121997833252 8.128663063049316 9.978832244873047 8.301883697509766 8.446443557739258 L8.301883697509766 8.446443557739258 C8.384793281555176 8.42058277130127 8.467703819274902 8.394721031188965 8.550613403320312 8.368860244750977 L8.550613403320312 8.368860244750977"></path></svg>