<svg xmlns="http://www.w3.org/2000/svg" viewBox="0.0 0.0 24.0 24.0" height="200px" width="200px"><path fill="none" stroke="black" stroke-width=".3" stroke-opacity="1.0"  filling="0" d="M8.165996551513672 7.976629734039307 L8.165996551513672 7.976629734039307 C9.563589096069336 7.96990966796875 11.747628211975098 7.615931987762451 13.035599708557129 8.331523895263672 C15.57077693939209 9.740058898925781 14.142232894897461 12.288520812988281 12.790945053100586 13.83652114868164 L12.790945053100586 13.83652114868164 C14.24689769744873 15.741218566894531 15.478456497192383 17.352249145507812 17.505842208862305 18.67247772216797 L17.505842208862305 18.67247772216797 C16.938249588012695 18.631364822387695 16.33116912841797 18.76116371154785 15.803061485290527 18.549137115478516 C13.845846176147461 17.763343811035156 13.478874206542969 14.902551651000977 11.599116325378418 14.183130264282227 C11.012066841125488 13.958454132080078 10.342193603515625 14.207026481628418 9.71373176574707 14.218974113464355 L9.71373176574707 14.218974113464355 C9.56201457977295 15.815923690795898 9.597129821777344 17.119831085205078 9.88923454284668 18.6988525390625 L9.88923454284668 18.6988525390625 C9.383354187011719 18.6988525390625 8.877474784851074 18.6988525390625 8.371594429016113 18.6988525390625 L8.371594429016113 18.6988525390625 C8.638145446777344 16.96651840209961 8.791340827941895 15.142068862915039 8.775601387023926 13.322650909423828 C8.75986099243164 11.5032320022583 8.575186729431152 9.688843727111816 8.165996551513672 7.976629734039307 L8.165996551513672 7.976629734039307"></path>
<path fill="none" stroke="black" stroke-width=".3" stroke-opacity="1.0"  filling="0" d="M9.69919204711914 8.4784517288208 L9.69919204711914 8.4784517288208 C10.332444190979004 8.465700149536133 10.992786407470703 8.256514549255371 11.598947525024414 8.440197944641113 C13.322746276855469 8.962555885314941 14.189486503601074 11.382479667663574 13.037460327148438 12.852827072143555 C12.05892276763916 14.1017484664917 10.973627090454102 13.64750862121582 9.69919204711914 13.52677059173584 L9.69919204711914 13.52677059173584 C9.69919204711914 11.843997955322266 9.69919204711914 10.161224365234375 9.69919204711914 8.4784517288208 L9.69919204711914 8.4784517288208"></path></svg>