<svg xmlns="http://www.w3.org/2000/svg" viewBox="0.0 0.0 24.0 24.0" height="200px" width="200px"><path fill="none" stroke="black" stroke-width=".3" stroke-opacity="1.0"  filling="0" d="M18.73860740661621 7.50089693069458 C16.595355987548828 12.33926010131836 14.580999374389648 16.88690757751465 12.323357582092285 21.98362159729004 C9.998197555541992 16.937686920166016 7.93027400970459 12.450301170349121 5.852305889129639 7.941154956817627 C7.52126407623291 7.615286350250244 7.573715686798096 7.591292858123779 8.089302062988281 8.723462104797363 C9.201382637023926 11.161893844604492 10.252084732055664 13.628225326538086 11.33236026763916 16.081165313720703 C11.580667495727539 16.644739151000977 11.849061965942383 17.199382781982422 12.199482917785645 17.955463409423828 C13.92758846282959 14.36198616027832 15.540189743041992 10.97887134552002 17.2108211517334 7.624771595001221 C17.29061508178711 7.464069366455078 17.88320541381836 7.5589280128479 18.73860740661621 7.50089693069458"></path>
<path fill="none" stroke="black" stroke-width=".3" stroke-opacity="1.0"  filling="0" d="M21.82152557373047 7.768734931945801 C19.51868438720703 12.820809364318848 17.225330352783203 17.852794647216797 14.931977272033691 22.884780883789062 C14.508459091186523 23.813838958740234 14.156366348266602 24.784189224243164 13.64635944366455 25.663028717041016 C12.97844123840332 26.814170837402344 11.769268989562988 26.834259033203125 10.983613967895508 25.789695739746094 C10.928373336791992 25.716598510742188 10.890429496765137 25.62899398803711 10.851369857788086 25.54529571533203 C8.123339653015137 19.65790367126465 5.395866870880127 13.770513534545898 2.6215219497680664 7.782126426696777 C4.543810844421387 7.0874247550964355 4.743014335632324 8.333982467651367 5.145327568054199 9.200547218322754 C7.44872522354126 14.16501522064209 9.723108291625977 19.143436431884766 12.189437866210938 24.514123916625977 C12.724554061889648 23.562744140625 13.151418685913086 22.92160987854004 13.463895797729492 22.229137420654297 C15.448678970336914 17.829917907714844 17.421743392944336 13.425115585327148 19.365234375 9.007481575012207 C19.81218910217285 7.990816593170166 20.254676818847656 7.129274845123291 21.82152557373047 7.768734931945801"></path></svg>