<svg xmlns="http://www.w3.org/2000/svg" viewBox="0.0 0.0 24.0 24.0" height="200px" width="200px"><path fill="none" stroke="black" stroke-width=".3" stroke-opacity="1.0"  filling="0" d="M15.918802261352539 8.625067710876465 C18.03651237487793 10.386920928955078 17.980382919311523 13.336785316467285 15.696456909179688 16.457767486572266 C17.94822883605957 18.365123748779297 18.619619369506836 20.755313873291016 17.354223251342773 23.48283576965332 C16.2593994140625 25.843055725097656 14.142778396606445 26.548229217529297 11.71880054473877 26.493188858032227 C9.951498031616211 26.452861785888672 8.152042388916016 26.387466430664062 6.88010835647583 25.110628128051758 C6.956402778625488 24.925888061523438 7.032696723937988 24.74114418029785 7.1089911460876465 24.556406021118164 C8.769481658935547 24.79073715209961 10.426702499389648 25.180383682250977 12.091552734375 25.21744155883789 C13.853950500488281 25.256677627563477 15.25231647491455 24.334609985351562 15.912261962890625 22.650684356689453 C16.540599822998047 21.047958374023438 16.50027084350586 19.41853141784668 15.283923149108887 18.059404373168945 C14.767847061157227 17.48174476623535 14.058855056762695 17.07575035095215 13.728065490722656 16.818531036376953 C14.478473663330078 15.398366928100586 15.486648559570312 14.18801212310791 15.750409126281738 12.832152366638184 C16.186922073364258 10.591825485229492 15.026158332824707 9.154223442077637 12.726975440979004 8.868120193481445 C10.987465858459473 8.65177059173584 9.199454307556152 8.825067520141602 7.49972677230835 8.825067520141602 C9.13133430480957 6.898637294769287 13.663215637207031 6.748228549957275 15.918802261352539 8.625067710876465"></path>
<path fill="none" stroke="black" stroke-width=".3" stroke-opacity="1.0"  filling="0" d="M10.936784744262695 9.508993148803711 C12.846866607666016 9.53406047821045 14.222343444824219 10.361310005187988 14.554224014282227 11.758584976196289 C15.262670516967773 14.738421440124512 13.005449295043945 15.568392753601074 10.447957038879395 16.56948471069336 C12.98310661315918 17.681201934814453 15.492643356323242 18.34877586364746 14.98310661315918 21.46267318725586 C14.705721855163574 23.158042907714844 13.529154777526855 23.876842498779297 11.97874641418457 24.131881713867188 C9.97275161743164 24.460491180419922 7.839781284332275 23.60000228881836 6.812533378601074 21.83324432373047 C8.311716079711914 22.247413635253906 9.411443710327148 22.66757583618164 10.548773765563965 22.834335327148438 C11.797820091247559 23.017440795898438 12.974931716918945 22.663217544555664 13.284468650817871 21.238147735595703 C13.580381393432617 19.87466049194336 12.859400749206543 19.011444091796875 11.563488006591797 18.602725982666016 C10.965667724609375 18.414169311523438 10.368392944335938 18.223434448242188 9.588010787963867 17.976022720336914 C9.526975631713867 17.170028686523438 9.461034774780273 16.299182891845703 9.383650779724121 15.285014152526855 C10.268119812011719 15.002725601196289 11.209264755249023 14.902453422546387 11.883378982543945 14.425614356994629 C12.44741153717041 14.026704788208008 13.063215255737305 13.141145706176758 12.988555908203125 12.555859565734863 C12.913896560668945 11.969483375549316 12.05940055847168 11.110628128051758 11.464849472045898 11.037603378295898 C10.178746223449707 10.880109786987305 8.840326309204102 11.148775100708008 7.543323993682861 11.241963386535645 C7.932969570159912 10.026704788208008 8.97111701965332 9.483380317687988 10.936784744262695 9.508993148803711"></path></svg>