<svg xmlns="http://www.w3.org/2000/svg" viewBox="0.0 0.0 24.0 24.0" height="200px" width="200px"><path fill="none" stroke="black" stroke-width=".3" stroke-opacity="1.0"  filling="0" d="M16.59529685974121 4.670383930206299 C18.623071670532227 6.196609973907471 18.821941375732422 8.49323844909668 17.05777359008789 10.378129959106445 C16.598796844482422 10.868597984313965 16.048259735107422 11.272753715515137 15.361836433410645 11.871697425842285 C16.057004928588867 12.486387252807617 16.59412956237793 12.961108207702637 17.131254196166992 13.43641471862793 C19.69732093811035 15.707380294799805 19.70081901550293 19.14999008178711 17.012866973876953 21.15793800354004 C14.892946243286133 22.741899490356445 12.501839637756348 23.26444435119629 9.886202812194824 22.40481185913086 C7.9674859046936035 21.774959564208984 6.735774993896484 20.538002014160156 6.335118770599365 18.569711685180664 C5.970621109008789 16.77754783630371 7.087441921234131 15.679388046264648 8.348896980285645 14.69320297241211 C8.727974891662598 14.397521018981934 9.111135482788086 14.10650634765625 9.68558406829834 13.66502571105957 C9.351995468139648 13.232294082641602 9.19978141784668 12.996683120727539 9.010242462158203 12.795480728149414 C6.658792972564697 10.291234016418457 6.377109050750732 7.940951347351074 8.18735122680664 5.874685764312744 C10.327099800109863 3.432840347290039 14.211772918701172 2.876471519470215 16.59529685974121 4.670383930206299"></path>
<path fill="none" stroke="black" stroke-width=".3" stroke-opacity="1.0"  filling="0" d="M12.732786178588867 5.017969608306885 C13.682229995727539 5.317732810974121 14.690577507019043 6.221687316894531 15.137306213378906 7.132640361785889 C15.77940559387207 8.442500114440918 15.7123384475708 9.947147369384766 14.04614543914795 11.543356895446777 C12.974813461303711 10.914087295532227 11.608383178710938 10.529760360717773 10.991944313049316 9.630472183227539 C10.389501571655273 8.750428199768066 10.260615348815918 7.283105373382568 10.496809959411621 6.198359489440918 C10.621030807495117 5.629159927368164 12.129761695861816 4.827847003936768 12.732786178588867 5.017969608306885"></path>
<path fill="none" stroke="black" stroke-width=".3" stroke-opacity="1.0"  filling="0" d="M11.08525562286377 14.31412410736084 C13.246582984924316 14.240057945251465 16.012683868408203 16.973501205444336 15.91179084777832 18.857227325439453 C15.843557357788086 20.133262634277344 15.209622383117676 21.09378433227539 13.884016036987305 21.31131935119629 C12.153672218322754 21.595333099365234 10.889884948730469 20.756114959716797 10.075159072875977 19.307453155517578 C9.270931243896484 17.877456665039062 9.195698738098145 16.366392135620117 10.175469398498535 14.964388847351074 C10.420994758605957 14.61330509185791 10.910296440124512 14.433679580688477 11.08525562286377 14.31412410736084"></path></svg>