<svg xmlns="http://www.w3.org/2000/svg" viewBox="0.0 0.0 24.0 24.0" height="200px" width="200px"><path fill="none" stroke="black" stroke-width=".3" stroke-opacity="1.0"  filling="0" d="M9.855316162109375 7.25467586517334 C15.03887939453125 5.503936767578125 19.493244171142578 8.654935836791992 19.486045837402344 14.066615104675293 C19.479955673217773 18.917415618896484 15.842269897460938 24.21060562133789 11.30097770690918 25.882171630859375 C10.810969352722168 26.062671661376953 10.196937561035156 25.906532287597656 9.640488624572754 25.906532287597656 C9.629414558410645 25.717727661132812 9.618341445922852 25.529476165771484 9.607267379760742 25.341224670410156 C11.040746688842773 24.35401153564453 12.572229385375977 23.48196029663086 13.887776374816895 22.356882095336914 C16.819517135620117 19.849262237548828 18.095197677612305 16.578113555908203 17.641735076904297 12.746085166931152 C17.41140365600586 10.79768180847168 16.385433197021484 9.200864791870117 14.381659507751465 8.68871021270752 C12.27047348022461 8.149425506591797 10.104472160339355 8.119525909423828 8.49990463256836 9.955533027648926 C7.186573505401611 11.458223342895508 6.907517433166504 13.226126670837402 7.682117462158203 15.115287780761719 C8.568007469177246 17.275197982788086 10.863016128540039 18.37757682800293 13.395553588867188 17.776832580566406 C14.1790132522583 17.590795516967773 14.918729782104492 17.21816635131836 15.708833694458008 16.919734954833984 C14.792490005493164 21.107776641845703 10.173683166503906 24.989635467529297 7.7352705001831055 23.630905151367188 C9.393545150756836 22.384014129638672 11.046284675598145 21.140445709228516 12.699575424194336 19.897432327270508 C12.639778137207031 19.717485427856445 12.579426765441895 19.536983489990234 12.51962947845459 19.357040405273438 C12.144787788391113 19.319387435913086 11.770498275756836 19.26955795288086 11.394549369812012 19.24574851989746 C8.008235931396484 19.030920028686523 5.905354976654053 17.185501098632812 5.5709309577941895 14.129182815551758 C5.211039066314697 10.843637466430664 6.806747913360596 8.28396987915039 9.855316162109375 7.25467586517334"></path>
<path fill="none" stroke="black" stroke-width=".3" stroke-opacity="1.0"  filling="0" d="M12.429933547973633 9.384687423706055 C14.749303817749023 9.394100189208984 16.341136932373047 10.861908912658691 16.389860153198242 13.036214828491211 C16.436368942260742 15.118608474731445 14.767021179199219 16.715425491333008 12.484746932983398 16.770793914794922 C10.271130561828613 16.824499130249023 8.523713111877441 15.200551986694336 8.52924919128418 13.094350814819336 C8.534233093261719 10.941638946533203 10.181434631347656 9.375274658203125 12.429933547973633 9.384687423706055"></path>
<path fill="none" stroke="black" stroke-width=".3" stroke-opacity="1.0"  filling="0" d="M12.375673294067383 10.742868423461914 C13.729976654052734 10.670888900756836 14.860040664672852 11.761640548706055 14.827372550964355 13.109854698181152 C14.797473907470703 14.353422164916992 13.764859199523926 15.365551948547363 12.528489112854004 15.363336563110352 C11.252253532409668 15.361122131347656 10.296046257019043 14.422632217407227 10.237910270690918 13.11428451538086 C10.180327415466309 11.831957817077637 11.100545883178711 10.8109712600708 12.375673294067383 10.742868423461914"></path></svg>