<svg xmlns="http://www.w3.org/2000/svg" viewBox="0.0 0.0 24.0 24.0" height="200px" width="200px"><path fill="none" stroke="black" stroke-width=".3" stroke-opacity="1.0"  filling="0" d="M4.375148773193359 2.410861015319824 C6.917342185974121 2.410861015319824 9.456572532653809 2.3985185623168945 11.995309829711914 2.419748306274414 C12.64850902557373 2.4251794815063477 13.305658340454102 2.5041751861572266 13.951944351196289 2.6053895950317383 C19.260976791381836 3.438797950744629 22.380334854125977 6.994116306304932 22.148284912109375 11.928409576416016 C21.878707885742188 17.652664184570312 18.27105712890625 21.489898681640625 12.762066841125488 21.602466583251953 C10.076199531555176 21.657272338867188 7.381445407867432 21.25784683227539 5.004650115966797 21.08652687072754 C6.077515125274658 15.520757675170898 5.382349491119385 9.902653694152832 5.45542049407959 4.326023101806641 C5.462826251983643 3.743427276611328 4.8111090660095215 3.151449203491211 4.375148773193359 2.410861015319824"></path>
<path fill="none" stroke="black" stroke-width=".3" stroke-opacity="1.0"  filling="0" d="M7.649043560028076 3.2556257247924805 C9.62641429901123 3.3583202362060547 11.286319732666016 3.255131721496582 12.867228507995605 3.5602540969848633 C19.07928466796875 4.759513854980469 22.11618995666504 12.540136337280273 18.48335838317871 17.76869010925293 C16.654104232788086 20.401729583740234 11.741534233093262 21.801441192626953 8.911993026733398 20.35038185119629 C8.32248592376709 20.048221588134766 7.717177867889404 19.11211585998535 7.703847408294678 18.455955505371094 C7.6031270027160645 13.545360565185547 7.649043560028076 8.63229751586914 7.649043560028076 3.2556257247924805"></path></svg>