<svg xmlns="http://www.w3.org/2000/svg" viewBox="0.0 0.0 24.0 24.0" height="200px" width="200px"><path fill="none" stroke="black" stroke-width=".3" stroke-opacity="1.0"  filling="0" d="M8.089502334594727 2.4479150772094727 C10.845685958862305 2.4479150772094727 13.993351936340332 2.4479150772094727 17.19097328186035 2.4479150772094727 C17.19097328186035 3.2466840744018555 17.19097328186035 4.072468280792236 17.19097328186035 5.116932392120361 C15.669897079467773 2.531513214111328 13.419890403747559 3.685572624206543 11.30241584777832 3.3256940841674805 C11.30241584777832 5.976870059967041 11.30241584777832 8.380311012268066 11.30241584777832 10.925460815429688 C13.121180534362793 10.925460815429688 14.864503860473633 10.925460815429688 16.7576904296875 10.925460815429688 C16.7576904296875 11.536643028259277 16.7576904296875 12.252323150634766 16.7576904296875 13.19330883026123 C15.066362380981445 11.588127136230469 13.2190523147583 12.096341133117676 11.170392036437988 12.149864196777344 C11.170392036437988 14.450845718383789 11.138278007507324 16.631528854370117 11.183135032653809 18.810684204101562 C11.207603454589844 20.00705337524414 11.886581420898438 20.71916389465332 13.108437538146973 20.715084075927734 C14.814549446105957 20.708969116210938 16.68887710571289 21.21616554260254 18.00758171081543 19.39535903930664 C17.861286163330078 20.113588333129883 17.715499877929688 20.831817626953125 17.5493221282959 21.64791488647461 C14.334879875183105 21.64740753173828 11.219327926635742 21.64740753173828 8.360685348510742 21.64740753173828 C8.578346252441406 20.62689971923828 8.975946426391602 19.58702278137207 8.99378776550293 18.540517807006836 C9.069229125976562 14.134296417236328 9.084521293640137 9.725014686584473 8.993277549743652 5.3198113441467285 C8.973907470703125 4.3767852783203125 8.417777061462402 3.4444637298583984 8.089502334594727 2.4479150772094727"></path></svg>