<svg xmlns="http://www.w3.org/2000/svg" viewBox="0.0 0.0 24.0 24.0" height="200px" width="200px"><path fill="none" stroke="black" stroke-width=".3" stroke-opacity="1.0"  filling="0" d="M4.776508331298828 2.7695655822753906 C9.803672790527344 7.408274173736572 13.951241493225098 12.77013111114502 19.0694637298584 18.003149032592773 C19.0694637298584 16.40379524230957 19.081575393676758 15.326095581054688 19.06704330444336 14.248880386352539 C19.02829360961914 11.428940773010254 19.057353973388672 8.604157447814941 18.8892822265625 5.791483402252197 C18.831157684326172 4.821311950683594 18.270755767822266 3.880685806274414 17.953500747680664 2.966700553894043 C18.74349021911621 2.966700553894043 19.935014724731445 2.966700553894043 20.9855899810791 2.966700553894043 C20.78554916381836 3.9886980056762695 20.415985107421875 5.034914493560791 20.402904510498047 6.085005283355713 C20.34090805053711 11.155279159545898 20.374813079833984 16.22700309753418 20.374813079833984 21.969568252563477 C18.186477661132812 20.304824829101562 16.800241470336914 18.584381103515625 15.31519603729248 16.988901138305664 C13.77880859375 15.338203430175781 12.303450584411621 13.630352973937988 10.787406921386719 11.959798812866211 C9.283472061157227 10.301836013793945 7.7616143226623535 8.658889770507812 5.9937028884887695 6.732593059539795 C5.9937028884887695 10.982845306396484 5.921533584594727 14.843189239501953 6.049888610839844 18.697235107421875 C6.078465461730957 19.546316146850586 6.819535732269287 20.371665954589844 7.212835788726807 21.168437957763672 C6.2964277267456055 21.168437957763672 4.98526668548584 21.168437957763672 3.888193130493164 21.168437957763672 C4.081936359405518 20.168720245361328 4.445690631866455 19.114755630493164 4.46458101272583 18.054006576538086 C4.541109561920166 13.783895492553711 4.511563777923584 9.511846542358398 4.520766258239746 5.241251468658447 C4.522219657897949 4.457073211669922 4.520766258239746 3.6724109649658203 4.776508331298828 2.7695655822753906"></path></svg>