<svg xmlns="http://www.w3.org/2000/svg" viewBox="0.0 0.0 24.0 24.0" height="200px" width="200px"><path fill="none" stroke="black" stroke-width=".3" stroke-opacity="1.0"  filling="0" d="M7.763400077819824 4.505850315093994 C12.482999801635742 4.535850524902344 15.185699462890625 9.173250198364258 12.847200393676758 13.288649559020996 C12.410699844360352 14.056950569152832 11.783700942993164 14.717249870300293 11.209200859069824 15.474451065063477 C13.682700157165527 16.8304500579834 16.09800148010254 18.3481502532959 18.96390151977539 18.734249114990234 C19.919401168823242 18.86294937133789 20.919902801513672 18.65625 21.90000343322754 18.60284996032715 C21.900001525878906 18.80295181274414 21.900001525878906 19.002750396728516 21.900001525878906 19.202850341796875 C21.603302001953125 19.216350555419922 21.294601440429688 19.181550979614258 21.011402130126953 19.250850677490234 C18.775501251220703 19.799850463867188 16.659900665283203 19.400249481201172 14.614801406860352 18.459148406982422 C13.982701301574707 18.168148040771484 13.3548002243042 17.856151580810547 12.761700630187988 17.493749618530273 C11.307900428771973 16.60634994506836 9.92400074005127 15.949650764465332 8.046900749206543 16.407751083374023 C6.338400363922119 16.824748992919922 4.728600025177002 16.036951065063477 3.4551010131835938 14.75355052947998 C3.2216997146606445 14.518651008605957 2.95259952545166 14.31885051727295 2.6999998092651367 14.102849960327148 C2.6999998092651367 11.802750587463379 2.6999998092651367 9.502950668334961 2.6999998092651367 7.202850341796875 C4.000499725341797 5.577149868011475 5.585999965667725 4.492350101470947 7.763400077819824 4.505850315093994"></path>
<path fill="none" stroke="black" stroke-width=".3" stroke-opacity="1.0"  filling="0" d="M7.580100059509277 5.057250022888184 C9.55679988861084 5.0590500831604 10.884300231933594 6.067349910736084 11.645100593566895 7.816050052642822 C12.345000267028809 9.423149108886719 12.413701057434082 11.109148979187012 11.937299728393555 12.799650192260742 C11.498700141906738 14.355449676513672 10.547700881958008 15.480450630187988 8.936699867248535 15.822149276733398 C7.304100036621094 16.168350219726562 5.870699882507324 15.648750305175781 4.74899959564209 14.402850151062012 C3.1634998321533203 12.641250610351562 2.7908992767333984 9.127950668334961 3.9807004928588867 7.074749946594238 C4.772100925445557 5.7091498374938965 5.997900009155273 5.049749851226807 7.580100059509277 5.057250022888184"></path></svg>