<svg xmlns="http://www.w3.org/2000/svg" viewBox="0.0 0.0 24.0 24.0" height="200px" width="200px"><path fill="none" stroke="black" stroke-width=".3" stroke-opacity="1.0"  filling="0" d="M8.096872329711914 6.902274131774902 L8.096872329711914 6.902274131774902 C9.143194198608398 6.88886022567749 10.828372955322266 6.752500534057617 12.205653190612793 7.052196025848389 C13.58293342590332 7.351891040802002 14.652315139770508 8.087640762329102 14.467042922973633 9.818445205688477 C14.405712127685547 10.391388893127441 14.158617973327637 10.938387870788574 13.888720512390137 11.447486877441406 C13.607301712036133 11.978317260742188 13.182938575744629 12.419999122619629 12.830047607421875 12.906254768371582 L12.830047607421875 12.906254768371582 C14.36247730255127 14.751791954040527 15.452515602111816 16.375768661499023 17.599620819091797 17.53108787536621 L17.599620819091797 17.53108787536621 C16.028263092041016 17.670310974121094 14.99799919128418 17.15825843811035 14.14223575592041 16.32238006591797 C13.28647232055664 15.486499786376953 12.605208396911621 14.32679271697998 11.73184871673584 13.170709609985352 L11.73184871673584 13.170709609985352 C11.087677955627441 13.170709609985352 10.44350814819336 13.170709609985352 9.799337387084961 13.170709609985352 L9.799337387084961 13.170709609985352 C9.789763450622559 14.994125366210938 9.670265197753906 15.989398002624512 10.519620895385742 17.631752014160156 L10.519620895385742 17.631752014160156 C9.829479217529297 17.787031173706055 8.942879676818848 17.678443908691406 8.23592472076416 17.678104400634766 L8.23592472076416 17.678104400634766 C8.568622589111328 16.007434844970703 8.798609733581543 14.128244400024414 8.8130464553833 12.25933837890625 C8.827484130859375 10.390432357788086 8.626371383666992 8.531810760498047 8.096872329711914 6.902274131774902 L8.096872329711914 6.902274131774902"></path>
<path fill="none" stroke="black" stroke-width=".3" stroke-opacity="1.0"  filling="0" d="M9.864740371704102 7.5545973777771 L9.864740371704102 7.5545973777771 C10.973438262939453 7.447860240936279 11.82260799407959 7.067399978637695 12.657441139221191 8.180474281311035 C13.449518203735352 9.236543655395508 13.781938552856445 12.192849159240723 11.94710922241211 12.587203979492188 C11.267082214355469 12.733360290527344 10.558672904968262 12.500947952270508 9.864455223083496 12.457819938659668 L9.864455223083496 12.457819938659668 C9.864465713500977 10.823410034179688 9.864541053771973 9.189005851745605 9.864740371704102 7.5545973777771 L9.864740371704102 7.5545973777771"></path></svg>