<svg xmlns="http://www.w3.org/2000/svg" viewBox="0.0 0.0 24.0 24.0" height="200px" width="200px"><path fill="none" stroke="black" stroke-width=".3" stroke-opacity="1.0"  filling="0" d="M16.672250747680664 6.627956867218018 C17.758691787719727 7.530135154724121 18.697118759155273 8.308969497680664 19.77802085876465 9.206113815307617 C18.003870010375977 11.496803283691406 16.327890396118164 13.661127090454102 14.542664527893066 15.966415405273438 C16.921457290649414 19.038959503173828 19.2569522857666 22.056123733520508 21.625171661376953 25.115074157714844 C18.981061935424805 25.893909454345703 17.14045524597168 24.764171600341797 16.470870971679688 22.167888641357422 C16.35407066345215 21.714282989501953 15.951815605163574 21.323101043701172 15.646222114562988 20.930917739868164 C14.004981994628906 18.823986053466797 12.353168487548828 16.726118087768555 10.52867317199707 14.400691986083984 C12.622513771057129 11.751548767089844 14.580424308776855 9.27458381652832 16.672250747680664 6.627956867218018"></path>
<path fill="none" stroke="black" stroke-width=".3" stroke-opacity="1.0"  filling="0" d="M5.90701961517334 7.292508125305176 C7.652977466583252 8.59190845489502 9.399438858032227 9.891307830810547 11.26823902130127 11.281831741333008 C10.667625427246094 12.158333778381348 10.31470775604248 12.673361778259277 9.79817008972168 13.427022933959961 C8.229425430297852 11.456023216247559 6.801143646240234 9.661734580993652 5.372861385345459 7.867445468902588 C5.551081657409668 7.675632476806641 5.729301929473877 7.483818531036377 5.90701961517334 7.292508125305176"></path>
<path fill="none" stroke="black" stroke-width=".3" stroke-opacity="1.0"  filling="0" d="M9.802197456359863 15.419168472290039 C10.69883918762207 16.574581146240234 11.458542823791504 17.55328369140625 12.35216236114502 18.704669952392578 C10.526156425476074 21.032615661621094 8.742942810058594 23.305683135986328 6.764895439147949 25.827959060668945 C5.485633850097656 24.799415588378906 4.3473381996154785 23.88465118408203 3.4612693786621094 23.171764373779297 C5.553095817565918 20.61425018310547 7.574439525604248 18.142822265625 9.802197456359863 15.419168472290039"></path></svg>