<svg xmlns="http://www.w3.org/2000/svg" viewBox="0.0 0.0 24.0 24.0" height="200px" width="200px"><path fill="none" stroke="black" stroke-width=".3" stroke-opacity="1.0"  filling="0" d="M17.3002872467041 7.168050289154053 C18.49614906311035 8.16015338897705 19.403566360473633 8.913084983825684 20.47779083251953 9.80459213256836 C19.05609703063965 11.732342720031738 17.758100509643555 13.601068496704102 16.341543197631836 15.374844551086426 C15.439770698547363 16.503986358642578 15.069720268249512 17.678804397583008 15.128744125366211 19.123077392578125 C15.225234985351562 21.49478530883789 15.15492057800293 23.872650146484375 15.15492057800293 26.3100528717041 C12.880216598510742 26.73194122314453 12.178096771240234 24.74773597717285 11.214221954345703 24.258609771728516 C11.214221954345703 21.696487426757812 11.277351379394531 19.438209533691406 11.18958568572998 17.18557357788086 C11.140314102172852 15.916830062866211 11.4754638671875 14.89188003540039 12.250978469848633 13.899263381958008 C13.915432929992676 11.766217231750488 15.502901077270508 9.57414436340332 17.3002872467041 7.168050289154053"></path>
<path fill="none" stroke="black" stroke-width=".3" stroke-opacity="1.0"  filling="0" d="M6.815707206726074 7.952289581298828 C8.735245704650879 9.060386657714844 10.654783248901367 10.168996810913086 12.704172134399414 11.352027893066406 C11.973310470581055 12.298452377319336 11.338939666748047 13.120157241821289 10.56599235534668 14.120473861694336 C9.018043518066406 11.992044448852539 7.715426921844482 10.200818061828613 6.4128098487854 8.409591674804688 C6.5472798347473145 8.257157325744629 6.681750297546387 8.104723930358887 6.815707206726074 7.952289581298828"></path></svg>