<svg xmlns="http://www.w3.org/2000/svg" viewBox="0.0 0.0 24.0 24.0" height="200px" width="200px"><path fill="none" stroke="black" stroke-width=".3" stroke-opacity="1.0"  filling="0" d="M14.019862174987793 6.766289234161377 C15.102625846862793 7.708120822906494 16.29792594909668 8.748289108276367 18.011207580566406 10.238601684570312 C15.539097785949707 10.332732200622559 13.709074020385742 10.435802459716797 13.488734245300293 13.186097145080566 C14.278063774108887 13.767181396484375 15.248817443847656 14.48183822631836 16.220096588134766 15.197019577026367 C16.145950317382812 15.385279655456543 16.072328567504883 15.573541641235352 15.998181343078613 15.7623291015625 C15.230938911437988 15.938494682312012 14.463695526123047 16.114660263061523 13.462966918945312 16.344465255737305 C13.462966918945312 19.49126434326172 13.462966918945312 22.696435928344727 13.462966918945312 25.955772399902344 C11.162817001342773 26.1287841796875 10.406091690063477 24.1904296875 9.305447578430176 23.693485260009766 C9.305447578430176 19.988210678100586 9.305447578430176 16.625804901123047 9.305447578430176 13.166114807128906 C10.330892562866211 12.994681358337402 11.0718412399292 12.870576858520508 11.812264442443848 12.74699592590332 C11.847497940063477 12.599752426147461 11.88220500946045 12.452509880065918 11.917438507080078 12.304740905761719 C11.19594669342041 12.10123062133789 10.474980354309082 11.89824390411377 9.74297046661377 11.691577911376953 C9.203954696655273 8.267645835876465 9.494760513305664 7.915838718414307 14.019862174987793 6.766289234161377"></path></svg>