<svg xmlns="http://www.w3.org/2000/svg" viewBox="0.0 0.0 24.0 24.0" height="200px" width="200px"><path fill="none" stroke="black" stroke-width=".3" stroke-opacity="1.0"  filling="0" d="M16.06064224243164 4.9029541015625 C17.076107025146484 4.9029541015625 18.375391006469727 4.9029541015625 19.49494171142578 4.9029541015625 C16.54477310180664 7.534201622009277 13.500804901123047 10.248961448669434 10.19903564453125 13.193684577941895 C14.138039588928223 17.113929748535156 17.472488403320312 21.233272552490234 22.149789810180664 23.825790405273438 C19.094928741455078 24.426111221313477 17.933015823364258 24.15439224243164 15.610400199890137 22.013931274414062 C13.247845649719238 19.83595085144043 10.954883575439453 17.582324981689453 8.300034523010254 15.044878005981445 C8.715782165527344 18.185672760009766 7.130859851837158 21.362171173095703 9.742742538452148 24.077537536621094 C8.185053825378418 24.077537536621094 6.495439052581787 24.077537536621094 5.1574249267578125 24.077537536621094 C6.262451648712158 17.703357696533203 6.004652500152588 11.425397872924805 5.3783087730407715 4.993122577667236 C6.223115921020508 4.993122577667236 7.658562183380127 4.993122577667236 9.068591117858887 4.993122577667236 C7.532688140869141 7.481551647186279 8.632268905639648 10.220518112182617 8.551177978515625 12.981271743774414 C11.281671524047852 10.495264053344727 14.47572135925293 8.580528259277344 16.06064224243164 4.9029541015625"></path></svg>