<svg xmlns="http://www.w3.org/2000/svg" viewBox="0.0 0.0 24.0 24.0" height="200px" width="200px"><path fill="none" stroke="black" stroke-width=".3" stroke-opacity="1.0"  filling="0" d="M7.294802665710449 13.689257621765137 C9.130422592163086 14.023561477661133 9.191961288452148 15.430630683898926 9.322799682617188 17.028411865234375 C7.435620307922363 18.20318603515625 7.166182041168213 20.10367202758789 7.318087577819824 22.23534393310547 C7.441164493560791 23.96340560913086 7.3430352210998535 25.70699691772461 7.3430352210998535 27.443933486938477 C7.1112961769104 27.564239501953125 6.880111217498779 27.684547424316406 6.64948034286499 27.805404663085938 C5.3422040939331055 26.864030838012695 4.035481929779053 25.92266082763672 3.0957727432250977 25.246292114257812 C3.0957727432250977 22.521411895751953 3.046985626220703 20.16632080078125 3.120720863342285 17.815662384033203 C3.1484413146972656 16.926403045654297 3.2327089309692383 15.897436141967773 3.692861557006836 15.19445514678955 C4.485655307769775 13.983644485473633 5.74636173248291 13.407622337341309 7.294802665710449 13.689257621765137"></path>
<path fill="none" stroke="black" stroke-width=".3" stroke-opacity="1.0"  filling="0" d="M14.549687385559082 13.775744438171387 C15.309216499328613 13.984199523925781 16.060983657836914 14.725988388061523 16.512821197509766 15.421760559082031 C17.03839111328125 16.23063087463379 16.933055877685547 17.128206253051758 15.981149673461914 17.812335968017578 C14.823562622070312 18.644489288330078 14.655023574829102 19.894664764404297 14.7021484375 21.25405502319336 C14.77422046661377 23.324739456176758 14.720998764038086 25.399860382080078 14.720998764038086 27.47276496887207 C14.503118515014648 27.595287322998047 14.284685134887695 27.717256546020508 14.066805839538574 27.83977699279785 C12.732917785644531 26.837976455688477 11.399030685424805 25.835063934326172 10.321828842163086 25.026195526123047 C10.472071647644043 23.70783233642578 10.619542121887207 22.9344425201416 10.636728286743164 22.158279418945312 C10.677200317382812 20.322107315063477 10.575189590454102 18.479278564453125 10.682188987731934 16.648094177246094 C10.794733047485352 14.726541519165039 12.69743537902832 13.267359733581543 14.549687385559082 13.775744438171387"></path>
<path fill="none" stroke="black" stroke-width=".3" stroke-opacity="1.0"  filling="0" d="M17.81455421447754 14.45599365234375 C21.215801239013672 16.047122955322266 22.49868392944336 18.583505630493164 22.249757766723633 22.061260223388672 C22.121692657470703 23.848648071289062 22.227027893066406 25.652667999267578 22.227027893066406 27.449478149414062 C22.01413917541504 27.581979751586914 21.801803588867188 27.714481353759766 21.588912963867188 27.847537994384766 C20.249481201171875 26.86957550048828 18.909494400024414 25.891613006591797 17.81399917602539 25.091609954833984 C17.81455421447754 21.425363540649414 17.81455421447754 18.065141677856445 17.81455421447754 14.45599365234375"></path></svg>