<svg xmlns="http://www.w3.org/2000/svg" viewBox="0.0 0.0 24.0 24.0" height="200px" width="200px"><path fill="none" stroke="black" stroke-width=".3" stroke-opacity="1.0"  filling="0" d="M4.5293731689453125 4.820817470550537 C6.7081685066223145 4.820817470550537 8.796504974365234 4.7651047706604 10.880648612976074 4.835793972015381 C13.133130073547363 4.912474632263184 15.345474243164062 5.288687229156494 16.393835067749023 7.648998737335205 C17.4517822265625 10.030278205871582 16.61069679260254 12.09465217590332 15.001011848449707 13.939170837402344 C14.674520492553711 14.312986373901367 14.355819702148438 14.693392753601074 13.847213745117188 15.288263320922852 C16.553783416748047 18.32132339477539 18.49834632873535 22.07745361328125 22.606128692626953 23.765018463134766 C19.619792938232422 24.466522216796875 17.319387435913086 23.599079132080078 15.621042251586914 21.064437866210938 C14.902765274047852 19.992115020751953 13.964631080627441 19.065959930419922 13.262527465820312 17.984651565551758 C12.163844108581543 16.295886993408203 10.756643295288086 15.486552238464355 8.291494369506836 16.11856460571289 C8.450246810913086 18.7442626953125 7.419857025146484 21.422077178955078 9.462065696716309 23.82492446899414 C7.9650044441223145 23.82492446899414 6.4403862953186035 23.82492446899414 4.888211727142334 23.82492446899414 C6.485915660858154 20.71158790588379 6.275045394897461 7.022976398468018 4.5293731689453125 4.820817470550537"></path>
<path fill="none" stroke="black" stroke-width=".3" stroke-opacity="1.0"  filling="0" d="M8.368773460388184 6.029728412628174 C10.404393196105957 5.667294502258301 12.194994926452637 5.577434539794922 13.491968154907227 7.4513068199157715 C14.627195358276367 9.092143058776855 14.712861061096191 12.261791229248047 13.67528247833252 13.697747230529785 C12.672449111938477 15.085179328918457 11.3976411819458 15.268491744995117 8.36817455291748 14.37948226928711 C8.36817455291748 11.698671340942383 8.36817455291748 8.963345527648926 8.368773460388184 6.029728412628174"></path></svg>