<svg xmlns="http://www.w3.org/2000/svg" viewBox="0.0 0.0 24.0 24.0" height="200px" width="200px"><path fill="none" stroke="black" stroke-width=".3" stroke-opacity="1.0"  filling="0" d="M7.772569179534912 7.832692623138428 L7.772569179534912 7.832692623138428 C9.255159378051758 7.832692623138428 10.737749099731445 7.832692623138428 12.22033977508545 7.832692623138428 C13.702930450439453 7.832692623138428 15.18552017211914 7.832692623138428 16.668109893798828 7.832692623138428 L16.668109893798828 7.832692623138428 C16.668109893798828 8.322746276855469 16.668109893798828 8.812800407409668 16.668109893798828 9.302854537963867 L16.668109893798828 9.302854537963867 C15.555890083312988 8.835061073303223 14.31283950805664 8.59869384765625 13.107407569885254 8.65157699584961 L13.107407569885254 8.65157699584961 C12.873384475708008 10.24746322631836 12.680891990661621 11.987405776977539 12.71511459350586 13.706045150756836 C12.749337196350098 15.424683570861816 13.010274887084961 17.122018814086914 13.683112144470215 18.6326904296875 L13.683112144470215 18.6326904296875 C12.881134033203125 18.632692337036133 12.079156875610352 18.632694244384766 11.277178764343262 18.632694244384766 L11.277178764343262 18.632694244384766 C11.411333084106445 16.97763442993164 11.450641632080078 15.325422286987305 11.462409973144531 13.672327995300293 C11.4741792678833 12.019232749938965 11.45840835571289 10.365255355834961 11.482402801513672 8.70666217803955 L11.482402801513672 8.70666217803955 C9.656440734863281 8.544713973999023 8.910163879394531 8.561619758605957 7.331218242645264 9.536630630493164 L7.331218242645264 9.536630630493164 C7.478335380554199 8.968650817871094 7.625452041625977 8.40067195892334 7.772569179534912 7.832692623138428 L7.772569179534912 7.832692623138428"></path></svg>