<svg xmlns="http://www.w3.org/2000/svg" viewBox="0.0 0.0 24.0 24.0" height="200px" width="200px"><path fill="none" stroke="black" stroke-width=".3" stroke-opacity="1.0"  filling="0" d="M13.804180145263672 10.61872386932373 L13.804180145263672 10.61872386932373 C13.913475036621094 10.705451011657715 15.531132698059082 11.989274024963379 15.647686004638672 12.081788063049316 L15.647686004638672 12.081788063049316 C14.891271591186523 13.637947082519531 14.134836196899414 15.19409465789795 13.378406524658203 16.750246047973633 C12.621977806091309 18.306396484375 11.865555763244629 19.862552642822266 11.109167098999023 21.418724060058594 L11.109167098999023 21.418724060058594 C11.014175415039062 21.418724060058594 10.919182777404785 21.418724060058594 10.824191093444824 21.418724060058594 L10.824191093444824 21.418724060058594 C10.768508911132812 21.361299514770508 9.372090339660645 19.921096801757812 9.306411743164062 19.85335350036621 L9.306411743164062 19.85335350036621 C10.056058883666992 18.314258575439453 10.80569076538086 16.77515411376953 11.555315971374512 15.236048698425293 C12.304941177368164 13.696941375732422 13.054559707641602 12.157831192016602 13.804180145263672 10.61872386932373 L13.804180145263672 10.61872386932373"></path>
<path fill="none" stroke="black" stroke-width=".3" stroke-opacity="1.0"  filling="0" d="M9.323795318603516 10.947870254516602 L9.323795318603516 10.947870254516602 C11.337455749511719 12.072141647338867 11.678244590759277 12.376579284667969 11.163026809692383 14.642007827758789 L11.163026809692383 14.642007827758789 C10.549932479858398 13.410637855529785 9.936840057373047 12.179265975952148 9.323795318603516 10.947870254516602 L9.323795318603516 10.947870254516602"></path></svg>