<svg xmlns="http://www.w3.org/2000/svg" viewBox="0.0 0.0 24.0 24.0" height="200px" width="200px"><path fill="none" stroke="black" stroke-width=".3" stroke-opacity="1.0"  filling="0" d="M15.46021556854248 12.246278762817383 C17.122692108154297 13.626290321350098 18.355148315429688 14.64935302734375 19.829315185546875 15.872673034667969 C17.635631561279297 19.06342124938965 15.496050834655762 22.17477035522461 13.277775764465332 25.402055740356445 C11.140304565429688 25.402055740356445 9.0049409866333 25.402055740356445 6.346803665161133 25.402055740356445 C9.444801330566406 20.928966522216797 12.316545486450195 16.78331184387207 15.46021556854248 12.246278762817383"></path>
<path fill="none" stroke="black" stroke-width=".3" stroke-opacity="1.0"  filling="0" d="M4.371644496917725 13.839897155761719 C7.287655353546143 13.839897155761719 9.631004333496094 13.839897155761719 12.583553314208984 13.839897155761719 C11.556976318359375 15.318982124328613 10.699037551879883 16.554244995117188 9.59376335144043 18.145755767822266 C7.764054775238037 16.637161254882812 6.289185523986816 15.420867919921875 4.371644496917725 13.839897155761719"></path>
<path fill="none" stroke="black" stroke-width=".3" stroke-opacity="1.0"  filling="0" d="M4.7826972007751465 26.668235778808594 C8.532054901123047 26.668235778808594 12.28211498260498 26.668235778808594 16.96319007873535 26.668235778808594 C17.80777931213379 27.41796875 19.400691986083984 28.833112716674805 21.14959716796875 30.386676788330078 C19.177953720092773 31.151166915893555 11.367259979248047 31.8868408203125 9.55230712890625 31.123762130737305 C7.713463306427002 30.35013771057129 6.148654937744141 28.925159454345703 4.4636921882629395 27.78545379638672 C4.569793701171875 27.413049697875977 4.675894260406494 27.0406436920166 4.7826972007751465 26.668235778808594"></path></svg>