<svg xmlns="http://www.w3.org/2000/svg" viewBox="0.0 0.0 24.0 24.0" height="200px" width="200px"><path fill="none" stroke="black" stroke-width=".3" stroke-opacity="1.0"  filling="0" d="M6.220809459686279 4.806961536407471 C10.896707534790039 4.806961536407471 15.344381332397461 4.806961536407471 20.421037673950195 4.806961536407471 C16.266971588134766 11.071357727050781 12.468255996704102 16.799394607543945 8.419523239135742 22.90578842163086 C11.647976875305176 22.90578842163086 14.436322212219238 23.095874786376953 17.177448272705078 22.81679916381836 C18.350055694580078 22.696937561035156 19.423381805419922 21.599395751953125 20.464624404907227 20.990997314453125 C20.298145294189453 21.72591781616211 20.05841827392578 22.781686782836914 19.78055191040039 24.006961822509766 C15.0423002243042 24.006961822509766 10.34642505645752 24.006961822509766 5.0488080978393555 24.006961822509766 C9.02126407623291 17.962921142578125 12.790918350219727 12.228832244873047 16.84994125366211 6.054030418395996 C13.580930709838867 6.054030418395996 10.897918701171875 5.907529830932617 8.246991157531738 6.135756015777588 C7.353462219238281 6.212637424468994 6.541656970977783 7.239954471588135 5.623306751251221 7.881044387817383 C5.831554889678955 6.809535026550293 6.053726673126221 5.667196273803711 6.220809459686279 4.806961536407471"></path></svg>