<svg xmlns="http://www.w3.org/2000/svg" viewBox="0.0 0.0 24.0 24.0" height="200px" width="200px"><path fill="none" stroke="black" stroke-width=".3" stroke-opacity="1.0"  filling="0" d="M8.776081085205078 2.5920257568359375 C11.605948448181152 2.5920257568359375 14.299798965454102 2.5920257568359375 17.230182647705078 2.5920257568359375 C17.14566993713379 3.417633056640625 17.066659927368164 4.194233417510986 16.978649139404297 5.056845664978027 C14.72535514831543 3.4566383361816406 12.361547470092773 4.179731845855713 9.784212112426758 4.075718402862549 C9.60818862915039 5.338382720947266 9.443166732788086 6.5235371589660645 9.267145156860352 7.787201404571533 C10.724333763122559 8.379778861999512 12.060507774353027 8.81733512878418 13.29966926574707 9.445917129516602 C16.856632232666016 11.250652313232422 18.02178382873535 14.618090629577637 16.341564178466797 18.00303077697754 C14.658346176147461 21.39347267150879 10.448297500610352 22.786651611328125 6.941841125488281 21.02942657470703 C6.941841125488281 20.014793395996094 6.941841125488281 18.949153900146484 6.941841125488281 18.060537338256836 C7.6434326171875 18.828638076782227 8.272014617919922 20.05929946899414 9.226638793945312 20.415843963623047 C10.26477336883545 20.803394317626953 11.737465858459473 20.688379287719727 12.788601875305176 20.243820190429688 C15.133907318115234 19.2521915435791 15.994519233703613 15.692728042602539 14.407312393188477 13.320919036865234 C13.620210647583008 12.144266128540039 12.282535552978516 11.287155151367188 11.073878288269043 10.460046768188477 C10.347284317016602 9.963484764099121 9.389660835266113 9.802464485168457 8.213006973266602 9.372407913208008 C8.40503215789795 7.0586066246032715 8.58305549621582 4.917327880859375 8.776081085205078 2.5920257568359375"></path></svg>