<svg xmlns="http://www.w3.org/2000/svg" viewBox="0.0 0.0 24.0 24.0" height="200px" width="200px"><path fill="none" stroke="black" stroke-width=".3" stroke-opacity="1.0"  filling="0" d="M15.003993034362793 5.9599480628967285 C15.979446411132812 6.698168754577637 16.96550941467285 7.252677917480469 17.680103302001953 8.050689697265625 C18.172893524169922 8.600858688354492 18.290063858032227 9.487109184265137 18.69509506225586 10.53296184539795 C16.078777313232422 10.53296184539795 13.949943542480469 10.53296184539795 11.668741226196289 10.53296184539795 C11.522157669067383 11.267324447631836 11.404505729675293 11.855104446411133 11.251172065734863 12.623220443725586 C10.230392456054688 12.623220443725586 9.171038627624512 12.623220443725586 7.9872822761535645 12.623220443725586 C7.9872822761535645 11.032983779907227 7.9872822761535645 9.539667129516602 7.9872822761535645 7.814901828765869 C10.18603229522705 7.814901828765869 12.384781837463379 7.814901828765869 14.561349868774414 7.814901828765869 C14.72239875793457 7.139365196228027 14.830408096313477 6.686596393585205 15.003993034362793 5.9599480628967285"></path>
<path fill="none" stroke="black" stroke-width=".3" stroke-opacity="1.0"  filling="0" d="M14.941791534423828 13.149762153625488 C16.2364501953125 14.538446426391602 18.66134262084961 14.910690307617188 18.013290405273438 17.73048973083496 C16.003555297851562 17.730972290039062 13.949461936950684 17.730972290039062 11.639328002929688 17.730972290039062 C11.473939895629883 18.64133071899414 11.36496639251709 19.243576049804688 11.234777450561523 19.960098266601562 C10.187960624694824 19.960098266601562 9.187433242797852 19.960098266601562 8.024410247802734 19.960098266601562 C8.024410247802734 18.294160842895508 8.024410247802734 16.741052627563477 8.024410247802734 15.029789924621582 C10.084773063659668 15.029789924621582 12.06943416595459 15.029789924621582 14.1519775390625 15.029789924621582 C14.42007064819336 14.391380310058594 14.647178649902344 13.850854873657227 14.941791534423828 13.149762153625488"></path>
<path fill="none" stroke="black" stroke-width=".3" stroke-opacity="1.0"  filling="0" d="M15.37864875793457 20.289432525634766 C16.64919662475586 21.848804473876953 19.242372512817383 22.172351837158203 18.432788848876953 25.080387115478516 C15.47990608215332 25.080387115478516 12.514005661010742 25.317623138427734 9.617539405822754 24.972862243652344 C8.313719749450684 24.81760025024414 7.148285388946533 23.501726150512695 5.920168399810791 22.71239471435547 C5.982851982116699 22.563400268554688 6.045536041259766 22.414886474609375 6.108219623565674 22.265893936157227 C8.930429458618164 22.265893936157227 11.752641677856445 22.265893936157227 14.701665878295898 22.265893936157227 C14.925397872924805 21.613018035888672 15.110074043273926 21.07394027709961 15.37864875793457 20.289432525634766"></path></svg>