<svg xmlns="http://www.w3.org/2000/svg" viewBox="0.0 0.0 24.0 24.0" height="200px" width="200px"><path fill="none" stroke="black" stroke-width=".3" stroke-opacity="1.0"  filling="0" d="M15.314702987670898 7.835130214691162 L15.314702987670898 7.835130214691162 C15.652015686035156 9.029031753540039 15.669973373413086 10.824383735656738 15.877817153930664 12.4942626953125 C16.085660934448242 14.164142608642578 16.48339080810547 15.708549499511719 17.580245971679688 16.400562286376953 L17.580245971679688 16.400562286376953 C16.813243865966797 16.400562286376953 16.046239852905273 16.400562286376953 15.279236793518066 16.400562286376953 L15.279236793518066 16.400562286376953 C15.043911933898926 14.645745277404785 14.808512687683105 12.89094066619873 14.573063850402832 11.136140823364258 L14.573063850402832 11.136140823364258 C14.490310668945312 11.12424373626709 14.407557487487793 11.112346649169922 14.324804306030273 11.100449562072754 L14.324804306030273 11.100449562072754 C13.46794605255127 12.8540620803833 12.611066818237305 14.607666015625 11.754209518432617 16.36128044128418 L11.754209518432617 16.36128044128418 C11.662551879882812 16.38193130493164 11.570894241333008 16.4025821685791 11.479236602783203 16.423233032226562 L11.479236602783203 16.423233032226562 C10.610611915588379 14.676214218139648 9.742025375366211 12.92917251586914 8.873400688171387 11.182154655456543 L8.873400688171387 11.182154655456543 C8.808304786682129 11.191882133483887 8.743209838867188 11.201608657836914 8.67811393737793 11.211336135864258 L8.67811393737793 11.211336135864258 C8.438961029052734 13.004103660583496 7.92374324798584 14.720633506774902 8.60763168334961 16.42749786376953 L8.60763168334961 16.42749786376953 C7.998428821563721 16.42749786376953 7.389225482940674 16.42749786376953 6.780022621154785 16.42749786376953 L6.780022621154785 16.42749786376953 C7.332781791687012 15.066802978515625 7.504281997680664 13.596328735351562 7.67925500869751 12.132522583007812 C7.8542280197143555 10.668716430664062 8.032674789428711 9.211578369140625 8.599327087402344 7.877554416656494 L8.599327087402344 7.877554416656494 C9.839569091796875 9.98218059539795 10.86469841003418 12.181719779968262 11.974860191345215 14.356117248535156 L11.974860191345215 14.356117248535156 C13.015484809875488 12.186419486999512 14.056135177612305 10.016731262207031 15.096745491027832 7.847026824951172 L15.096745491027832 7.847026824951172 C15.169398307800293 7.843061447143555 15.242050170898438 7.839095592498779 15.314702987670898 7.835130214691162 L15.314702987670898 7.835130214691162"></path></svg>