<svg xmlns="http://www.w3.org/2000/svg" viewBox="0.0 0.0 24.0 24.0" height="200px" width="200px"><path fill="none" stroke="black" stroke-width=".3" stroke-opacity="1.0"  filling="0" d="M7.43460750579834 6.8968186378479 L7.43460750579834 6.8968186378479 C8.616271018981934 6.889711856842041 10.679462432861328 6.672699928283691 12.33592700958252 6.980775356292725 C13.992391586303711 7.288851261138916 15.242128372192383 8.122014999389648 14.796884536743164 10.21526050567627 C14.670823097229004 10.8079195022583 14.252415657043457 11.30257797241211 13.906216621398926 11.79985237121582 C13.669696807861328 12.139586448669434 13.342440605163574 12.406152725219727 13.060552597045898 12.70930290222168 L13.060552597045898 12.70930290222168 C14.61373519897461 14.608359336853027 15.823805809020996 16.266979217529297 17.952247619628906 17.546566009521484 L17.952247619628906 17.546566009521484 C16.616180419921875 17.62068748474121 15.869959831237793 17.902292251586914 14.694812774658203 17.092029571533203 C12.83475112915039 15.809518814086914 12.731813430786133 12.904061317443848 10.101155281066895 13.459996223449707 L10.101155281066895 13.459996223449707 C10.183748245239258 15.318565368652344 9.980116844177246 16.085941314697266 11.154903411865234 17.59050750732422 L11.154903411865234 17.59050750732422 C11.154151916503906 17.59050750732422 7.857873439788818 17.59050750732422 7.849076271057129 17.59050750732422 L7.849076271057129 17.59050750732422 C8.748649597167969 15.232370376586914 8.441017150878906 12.767938613891602 8.455138206481934 10.265000343322754 C8.458793640136719 9.617006301879883 8.663219451904297 8.941255569458008 8.47531509399414 8.321093559265137 C8.30481243133545 7.758363246917725 7.781509876251221 7.37157678604126 7.43460750579834 6.8968186378479 L7.43460750579834 6.8968186378479"></path>
<path fill="none" stroke="black" stroke-width=".3" stroke-opacity="1.0"  filling="0" d="M10.235815048217773 7.705911159515381 L10.235815048217773 7.705911159515381 C10.725067138671875 7.699071884155273 11.239297866821289 7.530911445617676 11.703571319580078 7.685393333435059 C13.363373756408691 8.237675666809082 13.614450454711914 10.640824317932129 12.714122772216797 11.903328895568848 C11.990730285644531 12.917720794677734 11.180020332336426 12.502100944519043 10.235815048217773 12.35465145111084 L10.235815048217773 12.35465145111084 C10.235815048217773 10.805071830749512 10.235815048217773 9.25549030303955 10.235815048217773 7.705911159515381 L10.235815048217773 7.705911159515381"></path></svg>