<svg xmlns="http://www.w3.org/2000/svg" viewBox="0.0 0.0 24.0 24.0" height="200px" width="200px"><path fill="none" stroke="black" stroke-width=".3" stroke-opacity="1.0"  filling="0" d="M6.4769487380981445 7.423945426940918 C8.103483200073242 6.973398685455322 9.711442947387695 6.925106525421143 10.958009719848633 8.344144821166992 C12.508126258850098 10.109718322753906 9.198275566101074 10.740696907043457 10.349320411682129 12.590646743774414 C8.709519386291504 12.725969314575195 7.6991047859191895 12.809286117553711 6.4769487380981445 12.910115242004395 C6.4769487380981445 10.977909088134766 6.4769487380981445 9.275487899780273 6.4769487380981445 7.423945426940918"></path>
<path fill="none" stroke="black" stroke-width=".3" stroke-opacity="1.0"  filling="0" d="M13.878341674804688 7.908988952636719 C17.991641998291016 9.558341979980469 18.62261962890625 12.923383712768555 15.496914863586426 16.915157318115234 C17.41320037841797 19.84769630432129 19.37034797668457 22.8417911529541 21.356151580810547 25.88046646118164 C18.358341217041016 26.609088897705078 17.906734466552734 26.410614013671875 15.12437915802002 23.221759796142578 C15.849818229675293 23.133663177490234 16.53492546081543 23.050880432128906 17.568689346313477 22.925640106201172 C15.491609573364258 19.911376953125 13.55674934387207 17.103017807006836 11.577313423156738 14.230447769165039 C14.082122802734375 12.912240028381348 14.270513534545898 10.52311897277832 13.878341674804688 7.908988952636719"></path>
<path fill="none" stroke="black" stroke-width=".3" stroke-opacity="1.0"  filling="0" d="M6.263084888458252 15.219103813171387 C9.112305641174316 15.367162704467773 9.245506286621094 15.4430513381958 10.963316917419434 17.64059829711914 C9.35004997253418 20.264278411865234 10.684710502624512 23.191509246826172 10.036749839782715 26.004112243652344 C7.296319007873535 27.260765075683594 6.104411602020264 24.706600189208984 3.901028633117676 23.449951171875 C4.823349475860596 23.205307006835938 5.407098293304443 23.050350189208984 6.262554168701172 22.823219299316406 C6.263084888458252 20.405441284179688 6.263084888458252 17.90593719482422 6.263084888458252 15.219103813171387"></path></svg>