<svg xmlns="http://www.w3.org/2000/svg" viewBox="0.0 0.0 24.0 24.0" height="200px" width="200px"><path fill="none" stroke="black" stroke-width=".3" stroke-opacity="1.0"  filling="0" d="M13.757246017456055 8.96476936340332 L13.757246017456055 8.96476936340332 C14.561141967773438 9.590800285339355 15.17774486541748 10.561957359313965 15.367307662963867 11.563071250915527 L15.367307662963867 11.563071250915527 C13.536517143249512 10.98698616027832 12.431320190429688 10.39856243133545 11.79898738861084 12.562525749206543 L11.79898738861084 12.562525749206543 C11.358367919921875 12.201712608337402 10.805737495422363 11.945219039916992 10.477128028869629 11.480087280273438 C8.707722663879395 8.975574493408203 12.621587753295898 9.728938102722168 13.590436935424805 10.022537231445312 L13.590436935424805 10.022537231445312 C13.646039962768555 9.669947624206543 13.701642990112305 9.31735897064209 13.757246017456055 8.96476936340332 L13.757246017456055 8.96476936340332"></path>
<path fill="none" stroke="black" stroke-width=".3" stroke-opacity="1.0"  filling="0" d="M9.560657501220703 12.637380599975586 L9.560657501220703 12.637380599975586 C10.972108840942383 13.588018417358398 11.795177459716797 14.027517318725586 12.552013397216797 15.57014274597168 L12.552013397216797 15.57014274597168 C10.922892570495605 14.790215492248535 10.375678062438965 14.25866985321045 9.560657501220703 12.637380599975586 L9.560657501220703 12.637380599975586"></path>
<path fill="none" stroke="black" stroke-width=".3" stroke-opacity="1.0"  filling="0" d="M13.982930183410645 14.194735527038574 L13.982930183410645 14.194735527038574 C15.101397514343262 15.1842679977417 15.888736724853516 15.428333282470703 15.831571578979492 17.13478660583496 C15.769613265991211 18.984298706054688 13.953758239746094 20.03379249572754 12.276084899902344 19.67536735534668 C11.274833679199219 19.461456298828125 10.34107780456543 18.50937271118164 9.614484786987305 17.899307250976562 L9.614484786987305 17.899307250976562 C11.300131797790527 17.953636169433594 13.38608455657959 18.29489517211914 13.910415649414062 16.1263484954834 C14.061842918395996 15.500070571899414 13.958758354187012 14.838606834411621 13.982930183410645 14.194735527038574 L13.982930183410645 14.194735527038574"></path></svg>