<svg xmlns="http://www.w3.org/2000/svg" viewBox="0.0 0.0 24.0 24.0" height="200px" width="200px"><path fill="none" stroke="black" stroke-width=".3" stroke-opacity="1.0"  filling="0" d="M14.952726364135742 8.85163688659668 L14.952726364135742 8.85163688659668 C15.455838203430176 9.271273612976074 15.958949089050293 9.690909385681152 16.462060928344727 10.110546112060547 L16.462060928344727 10.110546112060547 C15.494963645935059 11.303445816040039 14.527848243713379 12.496333122253418 13.5607271194458 13.689212799072266 L13.5607271194458 13.689212799072266 C14.879640579223633 15.257256507873535 16.198501586914062 16.82534408569336 17.517333984375 18.393455505371094 L17.517333984375 18.393455505371094 C16.854597091674805 18.3901424407959 16.15494728088379 18.60162925720215 15.529121398925781 18.383516311645508 C14.917618751525879 18.170394897460938 14.516980171203613 17.575435638427734 14.010909080505371 17.17139434814453 L14.010909080505371 17.17139434814453 C14.372525215148926 17.110061645507812 14.73414134979248 17.04872703552246 15.095757484436035 16.987394332885742 L15.095757484436035 16.987394332885742 C13.955076217651367 15.607833862304688 12.814400672912598 14.22826862335205 11.673696517944336 12.84872817993164 L11.673696517944336 12.84872817993164 C12.766680717468262 11.516340255737305 13.859697341918945 10.18398666381836 14.952726364135742 8.85163688659668 L14.952726364135742 8.85163688659668"></path>
<path fill="none" stroke="black" stroke-width=".3" stroke-opacity="1.0"  filling="0" d="M8.554182052612305 9.060606002807617 L8.554182052612305 9.060606002807617 C9.681037902832031 9.520401000976562 10.739238739013672 10.263838768005371 11.506909370422363 11.208242416381836 L11.506909370422363 11.208242416381836 C11.317414283752441 11.479352951049805 11.127920150756836 11.75046443939209 10.938425064086914 12.021574974060059 L10.938425064086914 12.021574974060059 C10.893170356750488 11.965375900268555 8.582988739013672 9.096382141113281 8.554182052612305 9.060606002807617 L8.554182052612305 9.060606002807617"></path>
<path fill="none" stroke="black" stroke-width=".3" stroke-opacity="1.0"  filling="0" d="M10.94981861114502 13.718302726745605 L10.94981861114502 13.718302726745605 C11.370828628540039 14.227231979370117 11.791838645935059 14.736161231994629 12.212848663330078 15.24509048461914 L12.212848663330078 15.24509048461914 C11.263982772827148 16.389455795288086 10.100915908813477 18.892465591430664 8.169696807861328 18.294788360595703 C7.572582244873047 18.10999298095703 7.201616287231445 17.50383758544922 6.717576026916504 17.108362197875977 L6.717576026916504 17.108362197875977 C8.858808517456055 16.640979766845703 9.574227333068848 15.336946487426758 10.94981861114502 13.718302726745605 L10.94981861114502 13.718302726745605"></path></svg>