<svg xmlns="http://www.w3.org/2000/svg" viewBox="0.0 0.0 24.0 24.0" height="200px" width="200px"><path fill="none" stroke="black" stroke-width=".3" stroke-opacity="1.0"  filling="0" d="M17.320804595947266 5.812873363494873 C18.341732025146484 6.612593173980713 19.254940032958984 7.327676296234131 20.352813720703125 8.187507629394531 C19.073165893554688 9.84850025177002 17.984432220458984 11.509012222290039 16.645153045654297 12.933406829833984 C15.212102890014648 14.457345962524414 14.785552978515625 16.140941619873047 14.891830444335938 18.1549072265625 C15.008686065673828 20.36699867248535 14.918279647827148 22.590633392333984 14.918279647827148 24.6993350982666 C12.216160774230957 25.82365608215332 11.148584365844727 23.650516510009766 9.210599899291992 22.496379852294922 C10.022822380065918 22.227561950683594 10.533527374267578 22.05828857421875 11.239953994750977 21.824092864990234 C11.239953994750977 19.66153335571289 11.130792617797852 17.428281784057617 11.288043022155762 15.21330451965332 C11.36161994934082 14.177468299865723 11.749696731567383 13.03727912902832 12.345038414001465 12.190912246704102 C13.852627754211426 10.04806900024414 15.55882453918457 8.044200897216797 17.320804595947266 5.812873363494873"></path>
<path fill="none" stroke="black" stroke-width=".3" stroke-opacity="1.0"  filling="0" d="M6.079527378082275 6.264909744262695 C8.747503280639648 6.349065780639648 10.028593063354492 7.763362407684326 11.252457618713379 9.688844680786133 C10.884096145629883 10.191373825073242 10.570075035095215 10.619847297668457 10.040616035461426 11.342623710632324 C8.704222679138184 9.629213333129883 7.497190475463867 8.082191467285156 6.079527378082275 6.264909744262695"></path></svg>