<svg xmlns="http://www.w3.org/2000/svg" viewBox="0.0 0.0 24.0 24.0" height="200px" width="200px"><path fill="none" stroke="black" stroke-width=".3" stroke-opacity="1.0"  filling="0" d="M6.856590747833252 4.181180477142334 C10.762815475463867 4.181180477142334 14.668436050415039 4.181180477142334 18.759632110595703 4.181180477142334 C18.759632110595703 5.092693328857422 18.759632110595703 6.235269069671631 18.759632110595703 7.63862419128418 C17.1197566986084 5.093906879425049 14.834000587463379 5.8246941566467285 12.490022659301758 5.6372971534729 C12.490022659301758 7.984914302825928 12.490022659301758 10.039003372192383 12.490022659301758 12.307779312133789 C14.536832809448242 12.307779312133789 16.495708465576172 12.307779312133789 18.63955307006836 12.307779312133789 C18.51462173461914 13.338159561157227 18.398788452148438 14.293944358825684 18.247173309326172 15.544469833374023 C16.620033264160156 13.344830513000488 14.610822677612305 13.982829093933105 12.58281135559082 14.054391860961914 C12.58281135559082 16.603961944580078 12.58281135559082 19.04861068725586 12.58281135559082 21.496898651123047 C15.254280090332031 22.235572814941406 17.549739837646484 22.563060760498047 19.7669677734375 20.21908187866211 C19.61050033569336 21.415634155273438 19.497697830200195 22.279842376708984 19.353965759277344 23.381179809570312 C15.410139083862305 23.381786346435547 11.520288467407227 23.381786346435547 7.797820568084717 23.381786346435547 C8.064057350158691 22.441165924072266 8.570453643798828 21.44717025756836 8.592286109924316 20.44165802001953 C8.686287879943848 16.09877586364746 8.638984680175781 11.752866744995117 8.643229484558105 7.407561302185059 C8.644442558288574 6.053330421447754 8.674765586853027 4.682724475860596 6.856590747833252 4.181180477142334"></path></svg>