<svg xmlns="http://www.w3.org/2000/svg" viewBox="0.0 0.0 24.0 24.0" height="200px" width="200px"><path fill="none" stroke="black" stroke-width=".3" stroke-opacity="1.0"  filling="0" d="M9.277275085449219 7.9132843017578125 L9.277275085449219 7.9132843017578125 C11.503730773925781 7.9132843017578125 13.730186462402344 7.9132843017578125 15.956642150878906 7.9132843017578125 L15.956642150878906 7.9132843017578125 C15.956642150878906 8.310684204101562 15.956642150878906 8.708084106445312 15.956642150878906 9.105484008789062 L15.956642150878906 9.105484008789062 C14.7059965133667 8.961411476135254 13.45534610748291 8.817376136779785 12.204691886901855 8.673375129699707 L12.204691886901855 8.673375129699707 C12.204691886901855 9.946975708007812 12.204691886901855 11.220577239990234 12.204691886901855 12.49417781829834 L12.204691886901855 12.49417781829834 C13.360147476196289 12.49417781829834 14.515602111816406 12.49417781829834 15.67105770111084 12.49417781829834 L15.67105770111084 12.49417781829834 C15.625268936157227 12.90921401977539 15.579479217529297 13.324251174926758 15.533690452575684 13.739287376403809 L15.533690452575684 13.739287376403809 C15.395597457885742 13.721095085144043 12.075549125671387 13.283853530883789 12.020858764648438 13.276653289794922 L12.020858764648438 13.276653289794922 C12.083251953125 15.544024467468262 11.888367652893066 16.7496337890625 13.080101013183594 18.71328353881836 L13.080101013183594 18.71328353881836 C12.97679615020752 18.71328353881836 9.595000267028809 18.713285446166992 9.566930770874023 18.713285446166992 L9.566930770874023 18.713285446166992 C10.036367416381836 17.137014389038086 10.299103736877441 15.187660217285156 10.27690601348877 13.257049560546875 C10.254707336425781 11.32643985748291 9.947575569152832 9.41457462310791 9.277275085449219 7.9132843017578125 L9.277275085449219 7.9132843017578125"></path></svg>