<svg xmlns="http://www.w3.org/2000/svg" viewBox="0.0 0.0 24.0 24.0" height="200px" width="200px"><path fill="none" stroke="black" stroke-width=".3" stroke-opacity="1.0"  filling="0" d="M8.193655967712402 6.16182804107666 C10.019292831420898 7.552090167999268 12.278346061706543 8.213467597961426 11.522066116333008 11.012580871582031 C10.47227668762207 11.445999145507812 9.445967674255371 11.86963176727295 8.193655967712402 12.386210441589355 C8.193655967712402 10.286630630493164 8.193655967712402 8.386638641357422 8.193655967712402 6.16182804107666"></path>
<path fill="none" stroke="black" stroke-width=".3" stroke-opacity="1.0"  filling="0" d="M14.900863647460938 13.159123420715332 C17.38543128967285 14.465245246887207 18.94984245300293 16.310937881469727 18.816295623779297 19.351709365844727 C18.731176376342773 21.282028198242188 18.800151824951172 23.219690322875977 18.800151824951172 25.142183303833008 C16.0954532623291 26.055002212524414 15.060338020324707 23.907482147216797 13.19605541229248 22.733440399169922 C13.984621047973633 22.520645141601562 14.468424797058105 22.389545440673828 14.900863647460938 22.272628784179688 C14.900863647460938 19.21816062927246 14.900863647460938 16.24489974975586 14.900863647460938 13.159123420715332"></path>
<path fill="none" stroke="black" stroke-width=".3" stroke-opacity="1.0"  filling="0" d="M10.165558815002441 13.252066612243652 C10.870473861694336 13.166460037231445 12.01271915435791 13.418389320373535 12.296934127807617 13.904638290405273 C12.716654777526855 14.622761726379395 12.96467113494873 16.040416717529297 12.547396659851074 16.529111862182617 C11.553863525390625 17.691415786743164 11.673224449157715 18.90703773498535 11.66246223449707 20.18038558959961 C11.647298812866211 21.868072509765625 11.658549308776855 23.55575942993164 11.658549308776855 25.215072631835938 C9.232194900512695 25.423954010009766 9.232194900512695 25.423954010009766 6.3249711990356445 22.693328857421875 C6.672781467437744 22.586685180664062 6.892425537109375 22.511348724365234 7.115983009338379 22.452159881591797 C7.3468780517578125 22.391014099121094 7.581686496734619 22.34600830078125 8.070381164550781 22.23642921447754 C8.070381164550781 20.097713470458984 8.098753929138184 17.927204132080078 8.060598373413086 15.758158683776855 C8.03467082977295 14.272994995117188 8.82812786102295 13.41496467590332 10.165558815002441 13.252066612243652"></path></svg>