<svg xmlns="http://www.w3.org/2000/svg" viewBox="0.0 0.0 24.0 24.0" height="200px" width="200px"><path fill="none" stroke="black" stroke-width=".3" stroke-opacity="1.0"  filling="0" d="M13.834333419799805 8.023008346557617 L13.834333419799805 8.023008346557617 C14.745448112487793 8.023008346557617 15.656561851501465 8.023008346557617 16.567676544189453 8.023008346557617 L16.567676544189453 8.023008346557617 C14.914924621582031 9.509157180786133 13.262207984924316 10.995346069335938 11.60937786102295 12.481406211853027 L11.60937786102295 12.481406211853027 C12.62784194946289 13.616731643676758 13.599672317504883 14.730002403259277 14.640130996704102 15.766999244689941 C15.68058967590332 16.80399513244629 16.789676666259766 17.76471710205078 18.082656860351562 18.594947814941406 L18.082656860351562 18.594947814941406 C16.124591827392578 18.833223342895508 14.773822784423828 18.26378631591797 13.5933256149292 17.319435119628906 C12.41282844543457 16.37508773803711 11.40260124206543 15.055826187133789 10.12562084197998 13.794456481933594 L10.12562084197998 13.794456481933594 C10.021269798278809 16.061063766479492 9.781834602355957 16.875581741333008 11.126103401184082 18.782283782958984 L11.126103401184082 18.782283782958984 C11.115063667297363 18.782283782958984 7.554051399230957 18.782283782958984 7.420783996582031 18.782283782958984 L7.420783996582031 18.782283782958984 C7.896969318389893 17.144241333007812 8.173497200012207 15.258770942687988 8.175830841064453 13.383606910705566 C8.1781644821167 11.508441925048828 7.906304359436035 9.643583297729492 7.285711765289307 8.046765327453613 L7.285711765289307 8.046765327453613 C8.42319107055664 8.046765327453613 9.560670852661133 8.046765327453613 10.698149681091309 8.046765327453613 L10.698149681091309 8.046765327453613 C9.896636009216309 9.69164752960205 10.002440452575684 10.802506446838379 9.954574584960938 12.612067222595215 L9.954574584960938 12.612067222595215 C11.769166946411133 11.362536430358887 13.126153945922852 10.150507926940918 13.834333419799805 8.023008346557617 L13.834333419799805 8.023008346557617"></path></svg>