<svg xmlns="http://www.w3.org/2000/svg" viewBox="0.0 0.0 24.0 24.0" height="200px" width="200px"><path fill="none" stroke="black" stroke-width=".3" stroke-opacity="1.0"  filling="0" d="M16.75322914123535 4.207694053649902 C16.75322914123535 5.786797046661377 16.75322914123535 6.879715442657471 16.75322914123535 8.39683723449707 C16.169809341430664 7.493274688720703 15.861607551574707 6.820009231567383 15.380541801452637 6.309373378753662 C14.204033851623535 5.060080051422119 11.910155296325684 4.975922107696533 10.729097366333008 6.058036804199219 C9.570218086242676 7.119111061096191 9.749338150024414 8.844354629516602 11.288636207580566 10.242630004882812 C12.334357261657715 11.192252159118652 13.54214096069336 11.961048126220703 14.621981620788574 12.875984191894531 C17.184255599975586 15.047605514526367 17.98830795288086 17.38981819152832 17.076213836669922 19.83495330810547 C16.1715145111084 22.260753631591797 14.003305435180664 23.51630401611328 10.638116836547852 23.40030288696289 C9.438862800598145 23.35936164855957 8.249275207519531 23.025569915771484 6.864077568054199 22.793567657470703 C6.864077568054199 21.217876434326172 6.864077568054199 20.039661407470703 6.864077568054199 18.86087989807129 C6.976667881011963 18.823917388916016 7.08868932723999 18.786956787109375 7.201279163360596 18.7499942779541 C7.528813362121582 19.372650146484375 7.794366359710693 20.039661407470703 8.195823669433594 20.610004425048828 C9.391097068786621 22.30908966064453 11.92778205871582 22.729881286621094 13.475042343139648 21.53460693359375 C15.02059555053711 20.341041564941406 14.963163375854492 18.345125198364258 13.236215591430664 16.613059997558594 C12.44012451171875 15.814695358276367 11.434775352478027 15.226156234741211 10.623900413513184 14.439732551574707 C9.682238578796387 13.525934219360352 8.649595260620117 12.613842010498047 8.008742332458496 11.49931526184082 C6.303402423858643 8.53274154663086 7.477067470550537 5.4416351318359375 10.788236618041992 4.569347381591797 C12.622087478637695 4.086574554443359 14.642452239990234 4.310617923736572 16.75322914123535 4.207694053649902"></path></svg>