<svg xmlns="http://www.w3.org/2000/svg" viewBox="0.0 0.0 24.0 24.0" height="200px" width="200px"><path fill="none" stroke="black" stroke-width=".3" stroke-opacity="1.0"  filling="0" d="M16.960025787353516 5.128532886505127 C19.96607208251953 5.630384922027588 20.22180938720703 6.11096715927124 19.778194427490234 10.432662963867188 C19.144676208496094 10.25339412689209 18.5471134185791 10.078176498413086 17.945499420166016 9.916126251220703 C16.892168045043945 9.632536888122559 15.851496696472168 9.259313583374023 14.779428482055664 9.097262382507324 C11.771356582641602 8.642507553100586 9.291471481323242 9.829023361206055 8.523248672485352 12.136224746704102 C7.690711975097656 14.636366844177246 8.146480560302734 17.989809036254883 11.131256103515625 19.238107681274414 C11.276089668273926 19.298368453979492 11.380915641784668 19.454341888427734 11.503973007202148 19.565753936767578 L11.561197280883789 19.502452850341797 C7.913531303405762 19.17075538635254 5.656971454620361 15.068333625793457 7.1534104347229 11.379142761230469 C8.12267780303955 8.9888916015625 9.939674377441406 7.558790683746338 12.54008674621582 7.4742207527160645 C14.285171508789062 7.417502403259277 16.041400909423828 7.690457344055176 17.955120086669922 7.827694416046143 C18.51926040649414 6.748535633087158 18.5304012298584 5.740781784057617 16.960025787353516 5.128532886505127"></path>
<path fill="none" stroke="black" stroke-width=".3" stroke-opacity="1.0"  filling="0" d="M4.109384059906006 11.763505935668945 C4.317519187927246 20.715808868408203 10.466846466064453 24.94027328491211 18.431650161743164 21.512897491455078 C18.431650161743164 19.130748748779297 18.431650161743164 16.71365737915039 18.431650161743164 14.146669387817383 C16.767589569091797 14.146669387817383 15.211393356323242 14.146669387817383 13.50175666809082 14.146669387817383 C13.50175666809082 14.755373001098633 13.50175666809082 15.288114547729492 13.50175666809082 15.960119247436523 C14.272005081176758 16.04013442993164 14.998701095581055 16.1160945892334 15.862129211425781 16.20572853088379 C15.862129211425781 17.415538787841797 15.862129211425781 18.544326782226562 15.862129211425781 19.81490707397461 C14.314542770385742 19.934419631958008 12.896596908569336 20.715301513671875 11.561196327209473 19.50194549560547 L11.50447940826416 19.565753936767578 C12.751764297485352 19.565753936767578 13.999557495117188 19.565753936767578 15.389650344848633 19.565753936767578 C15.4559907913208 18.99806785583496 15.511187553405762 18.523056030273438 15.564361572265625 18.06728744506836 C12.927488327026367 16.93343734741211 12.927488327026367 16.93343734741211 13.237916946411133 13.589618682861328 C14.800189018249512 13.589618682861328 16.38727569580078 13.55670166015625 17.972335815429688 13.59924030303955 C19.36344337463379 13.636713981628418 20.153945922851562 14.334546089172363 20.147872924804688 15.803133010864258 C20.138248443603516 18.075897216796875 20.145339965820312 20.34916877746582 20.145339965820312 22.79816436767578 C16.036840438842773 24.500205993652344 11.9556884765625 25.1524600982666 8.007216453552246 22.792085647583008 C3.7721147537231445 20.26054573059082 3.4302892684936523 16.142425537109375 4.109384059906006 11.763505935668945"></path></svg>