<svg xmlns="http://www.w3.org/2000/svg" viewBox="0.0 0.0 24.0 24.0" height="200px" width="200px"><path fill="none" stroke="black" stroke-width=".3" stroke-opacity="1.0"  filling="0" d="M7.162398338317871 8.08101749420166 L7.162398338317871 8.08101749420166 C7.212764739990234 8.08101749420166 9.420426368713379 8.08101749420166 9.479130744934082 8.08101749420166 L9.479130744934082 8.08101749420166 C10.422868728637695 9.02322006225586 11.366622924804688 9.96540641784668 12.310388565063477 10.907581329345703 C13.25415325164795 11.849756240844727 14.197929382324219 12.791921615600586 15.141709327697754 13.73408317565918 L15.141709327697754 13.73408317565918 C15.223073959350586 13.680262565612793 15.304439544677734 13.626441955566406 15.385804176330566 13.57262134552002 L15.385804176330566 13.57262134552002 C15.385804176330566 12.053138732910156 15.385804176330566 10.533661842346191 15.385804176330566 9.014179229736328 L15.385804176330566 9.014179229736328 C14.986045837402344 8.790923118591309 14.586288452148438 8.567667961120605 14.186530113220215 8.344411849975586 L14.186530113220215 8.344411849975586 C15.36805534362793 8.078017234802246 16.601882934570312 8.008386611938477 17.810720443725586 8.083736419677734 L17.810720443725586 8.083736419677734 C16.46947479248047 9.33980941772461 16.338064193725586 10.854936599731445 16.34621238708496 12.430957794189453 C16.354358673095703 14.006978988647461 16.50206756591797 15.643892288208008 15.719057083129883 17.143535614013672 L15.719057083129883 17.143535614013672 C14.681543350219727 16.057170867919922 13.644082069396973 14.970757484436035 12.60664176940918 13.884324073791504 C11.569201469421387 12.797890663146973 10.531782150268555 11.711437225341797 9.494352340698242 10.624992370605469 L9.494352340698242 10.624992370605469 C9.371670722961426 10.692131996154785 9.248988151550293 10.759272575378418 9.126306533813477 10.826412200927734 L9.126306533813477 10.826412200927734 C9.111410140991211 13.214339256286621 8.641958236694336 15.177969932556152 10.621322631835938 16.82904052734375 L10.621322631835938 16.82904052734375 C9.418243408203125 16.895870208740234 8.201825141906738 16.84076690673828 7.01045036315918 16.660511016845703 L7.01045036315918 16.660511016845703 C7.941493511199951 15.611478805541992 8.422784805297852 14.008366584777832 8.449662208557129 12.396632194519043 C8.476540565490723 10.784897804260254 8.049005508422852 9.16454029083252 7.162398338317871 8.08101749420166 L7.162398338317871 8.08101749420166"></path></svg>