<svg xmlns="http://www.w3.org/2000/svg" viewBox="0.0 0.0 24.0 24.0" height="200px" width="200px"><path fill="none" stroke="black" stroke-width=".3" stroke-opacity="1.0"  filling="0" d="M15.93537712097168 8.174560546875 L15.93537712097168 8.174560546875 C16.22475242614746 8.414979934692383 16.69855499267578 8.534536361694336 16.80350112915039 8.895819664001465 C16.9846248626709 9.5193452835083 16.741212844848633 10.192924499511719 16.710067749023438 10.841476440429688 L16.710067749023438 10.841476440429688 C15.187520980834961 10.47426700592041 13.334684371948242 9.744022369384766 11.771733283996582 10.3947114944458 C9.697675704956055 11.258184432983398 9.459369659423828 14.38339614868164 11.20913314819336 15.716379165649414 C11.974903106689453 16.29974937438965 13.068690299987793 16.302331924438477 13.968494415283203 16.381132125854492 L13.968494415283203 16.381132125854492 C12.874303817749023 16.438575744628906 12.023364067077637 16.65470314025879 11.011001586914062 16.0567569732666 C9.778206825256348 15.328614234924316 9.19094467163086 14.087499618530273 9.210714340209961 12.847273826599121 C9.230484008789062 11.607048034667969 9.857284545898438 10.367709159851074 11.052616119384766 9.643117904663086 C12.472301483154297 8.782526969909668 14.324394226074219 9.306267738342285 15.8103609085083 9.562914848327637 L15.8103609085083 9.562914848327637 C15.852032661437988 9.100130081176758 15.893705368041992 8.637345314025879 15.93537712097168 8.174560546875 L15.93537712097168 8.174560546875"></path>
<path fill="none" stroke="black" stroke-width=".3" stroke-opacity="1.0"  filling="0" d="M7.7209014892578125 14.147527694702148 L7.7209014892578125 14.147527694702148 C8.871959686279297 15.88121509552002 9.934839248657227 16.97182273864746 11.215973854064941 17.489971160888672 C12.497108459472656 18.008121490478516 13.996498107910156 17.95380973815918 16.02057647705078 17.397659301757812 L16.02057647705078 17.397659301757812 C15.993054389953613 16.888614654541016 15.965533256530762 16.37957191467285 15.938011169433594 15.870527267456055 L15.938011169433594 15.870527267456055 C16.258407592773438 16.07162857055664 16.743194580078125 16.129220962524414 16.899202346801758 16.473833084106445 C17.111976623535156 16.943843841552734 16.907594680786133 17.505657196044922 16.91179084777832 18.021568298339844 L16.91179084777832 18.021568298339844 C14.860517501831055 18.81929588317871 12.782751083374023 19.069284439086914 11.10782527923584 18.510591506958008 C9.432899475097656 17.9518985748291 8.16081428527832 16.58452606201172 7.7209014892578125 14.147527694702148 L7.7209014892578125 14.147527694702148"></path></svg>