<svg xmlns="http://www.w3.org/2000/svg" viewBox="0.0 0.0 24.0 24.0" height="200px" width="200px"><path fill="none" stroke="black" stroke-width=".3" stroke-opacity="1.0"  filling="0" d="M15.211102485656738 5.425779819488525 C15.289739608764648 5.453327178955078 15.369878768920898 5.477369785308838 15.447515487670898 5.50742244720459 C20.15122413635254 7.316077709197998 22.220834732055664 13.905074119567871 19.764047622680664 19.24989891052246 C17.791606903076172 23.541385650634766 12.164288520812988 25.313980102539062 7.775129795074463 22.981409072875977 C4.322605133056641 21.14620590209961 3.381463050842285 17.963153839111328 3.29531192779541 14.726507186889648 C3.363430976867676 7.285023212432861 8.828466415405273 3.1878747940063477 15.211102485656738 5.425779819488525"></path>
<path fill="none" stroke="black" stroke-width=".3" stroke-opacity="1.0"  filling="0" d="M12.144752502441406 7.931150913238525 C14.429237365722656 7.983742713928223 16.18931007385254 9.461820602416992 16.69268798828125 11.836464881896973 C16.864486694335938 12.647378921508789 16.870498657226562 13.492854118347168 16.999723434448242 14.801637649536133 C16.80788803100586 15.65312385559082 16.69669532775879 17.018505096435547 16.18480110168457 18.213088989257812 C15.443509101867676 19.9436092376709 13.984461784362793 20.928829193115234 12.036563873291016 20.91230010986328 C9.998006820678711 20.89527130126953 8.522933006286621 19.87699317932129 7.749083042144775 18.017749786376953 C6.851517200469971 15.86198902130127 6.899600982666016 13.596535682678223 7.513171195983887 11.390687942504883 C8.139764785766602 9.138757705688477 9.946416854858398 7.8805623054504395 12.144752502441406 7.931150913238525"></path></svg>