<svg xmlns="http://www.w3.org/2000/svg" viewBox="0.0 0.0 24.0 24.0" height="200px" width="200px"><path fill="none" stroke="black" stroke-width=".3" stroke-opacity="1.0"  filling="0" d="M5.216898441314697 3.5965442657470703 C6.154701232910156 3.5965442657470703 7.017351150512695 3.5965442657470703 8.159141540527344 3.5965442657470703 C11.137350082397461 8.5255126953125 14.202522277832031 13.598344802856445 17.268230438232422 18.671178817749023 C17.44698715209961 18.623939514160156 17.626279830932617 18.57670021057129 17.805038452148438 18.529998779296875 C17.805038452148438 13.60800838470459 17.805038452148438 8.686555862426758 17.805038452148438 3.6292905807495117 C18.688085556030273 3.6292905807495117 19.274280548095703 3.6292905807495117 20.061777114868164 3.6292905807495117 C20.061777114868164 9.89222526550293 20.061777114868164 16.182537078857422 20.061777114868164 22.717098236083984 C19.078344345092773 22.717098236083984 18.2860164642334 22.717098236083984 17.346603393554688 22.717098236083984 C14.266939163208008 17.6378231048584 11.179221153259277 12.546201705932617 8.092040061950684 7.454581260681152 C7.938513278961182 7.483569145202637 7.784449100494385 7.513092994689941 7.630922317504883 7.542081356048584 C7.630922317504883 12.480175018310547 7.630922317504883 17.418806076049805 7.630922317504883 22.530288696289062 C6.7081499099731445 22.632282257080078 6.058075904846191 22.703678131103516 5.216898441314697 22.79654312133789 C5.216898441314697 16.311908721923828 5.216898441314697 10.018373489379883 5.216898441314697 3.5965442657470703"></path></svg>