<svg xmlns="http://www.w3.org/2000/svg" viewBox="0.0 0.0 24.0 24.0" height="200px" width="200px"><path fill="none" stroke="black" stroke-width=".3" stroke-opacity="1.0"  filling="0" d="M12.388165473937988 7.154288291931152 L12.388165473937988 7.154288291931152 C14.773897171020508 7.624146461486816 16.075855255126953 8.92923355102539 16.513370513916016 10.591858863830566 C16.950885772705078 12.254484176635742 16.52396011352539 14.27464771270752 15.451925277709961 16.174659729003906 L15.451925277709961 16.174659729003906 C15.843144416809082 16.52422332763672 16.234363555908203 16.87378692626953 16.62558364868164 17.223350524902344 L16.62558364868164 17.223350524902344 C16.442005157470703 17.463897705078125 16.2584285736084 17.704442977905273 16.07485008239746 17.944990158081055 L16.07485008239746 17.944990158081055 C15.58218002319336 17.6284236907959 15.089509963989258 17.311857223510742 14.596839904785156 16.995290756225586 L14.596839904785156 16.995290756225586 C12.789878845214844 17.46845817565918 10.810760498046875 17.973865509033203 9.132237434387207 16.760908126831055 C7.853522777557373 15.836865425109863 7.236820697784424 14.095376968383789 7.255758285522461 12.356224060058594 C7.27469539642334 10.617071151733398 7.929272174835205 8.880253791809082 9.193115234375 7.965553283691406 C10.337475776672363 7.137328147888184 11.028444290161133 7.2743964195251465 12.388165473937988 7.154288291931152 L12.388165473937988 7.154288291931152"></path>
<path fill="none" stroke="black" stroke-width=".3" stroke-opacity="1.0"  filling="0" d="M12.347695350646973 8.263684272766113 L12.347695350646973 8.263684272766113 C12.90516185760498 8.453095436096191 13.542357444763184 8.487807273864746 14.020094871520996 8.831918716430664 C16.2936954498291 10.469578742980957 15.373403549194336 13.434527397155762 14.436050415039062 15.425948143005371 L14.436050415039062 15.425948143005371 C14.012472152709961 15.126426696777344 13.588894844055176 14.826905250549316 13.165316581726074 14.527383804321289 L13.165316581726074 14.527383804321289 C12.949015617370605 14.754166603088379 12.732715606689453 14.980950355529785 12.516414642333984 15.207733154296875 L12.516414642333984 15.207733154296875 C12.767991065979004 15.484192848205566 13.019566535949707 15.760653495788574 13.271142959594727 16.037113189697266 L13.271142959594727 16.037113189697266 C12.061579704284668 16.35393714904785 11.56574535369873 16.738117218017578 10.358795166015625 16.05520248413086 C9.121219635009766 15.354960441589355 8.506765365600586 13.791666030883789 8.529151916503906 12.244513511657715 C8.551538467407227 10.69736099243164 9.210765838623047 9.166351318359375 10.520554542541504 8.530675888061523 C11.074299812316895 8.26192855834961 11.738648414611816 8.352681159973145 12.347695350646973 8.263684272766113 L12.347695350646973 8.263684272766113"></path></svg>