<svg xmlns="http://www.w3.org/2000/svg" viewBox="0.0 0.0 24.0 24.0" height="200px" width="200px"><path fill="none" stroke="black" stroke-width=".3" stroke-opacity="1.0"  filling="0" d="M5.389733791351318 3.6205968856811523 C9.081730842590332 3.6205968856811523 12.64319896697998 3.483597755432129 16.187408447265625 3.6750736236572266 C18.140470504760742 3.7802515029907227 19.786632537841797 4.78510046005249 20.385873794555664 6.906446933746338 C21.073036193847656 9.338472366333008 20.43064308166504 11.328752517700195 18.283945083618164 12.964126586914062 C21.78446388244629 15.458719253540039 19.13884925842285 19.671207427978516 21.358898162841797 22.772592544555664 C20.012630462646484 22.772592544555664 19.141006469726562 22.772592544555664 18.089771270751953 22.772592544555664 C17.922025680541992 20.99266815185547 17.76021385192871 19.310909271240234 17.604875564575195 17.628070831298828 C17.367013931274414 15.046098709106445 16.675539016723633 14.355704307556152 14.056351661682129 14.280732154846191 C12.101130485534668 14.225175857543945 10.142672538757324 14.269944190979004 7.957140922546387 14.269944190979004 C7.957140922546387 17.182010650634766 7.957140922546387 19.843807220458984 7.957140922546387 22.697620391845703 C6.994363307952881 22.697620391845703 6.266211986541748 22.697620391845703 5.389733791351318 22.697620391845703 C5.389733791351318 16.33627700805664 5.389733791351318 10.082265853881836 5.389733791351318 3.6205968856811523"></path>
<path fill="none" stroke="black" stroke-width=".3" stroke-opacity="1.0"  filling="0" d="M8.017012596130371 5.656723499298096 C10.493805885314941 5.656723499298096 12.728960037231445 5.563412189483643 14.952249526977539 5.6847710609436035 C16.895065307617188 5.791027545928955 17.975963592529297 7.016478538513184 17.985673904418945 8.778604507446289 C17.99538230895996 10.545585632324219 16.975971221923828 11.856257438659668 15.066057205200195 11.999731063842773 C12.77480697631836 12.17125129699707 10.46036434173584 12.040184020996094 8.017012596130371 12.040184020996094 C8.017012596130371 9.883776664733887 8.017012596130371 7.953906059265137 8.017012596130371 5.656723499298096"></path></svg>