<svg xmlns="http://www.w3.org/2000/svg" viewBox="0.0 0.0 24.0 24.0" height="200px" width="200px"><path fill="none" stroke="black" stroke-width=".3" stroke-opacity="1.0"  filling="0" d="M9.691279411315918 7.18942928314209 L9.691279411315918 7.18942928314209 C10.614418983459473 8.556379318237305 11.537579536437988 9.923311233520508 12.460724830627441 11.290258407592773 L12.460724830627441 11.290258407592773 C13.358222007751465 9.94729995727539 14.255693435668945 8.604325294494629 15.153158187866211 7.261346817016602 L15.153158187866211 7.261346817016602 C15.718514442443848 7.261346817016602 16.283870697021484 7.261346817016602 16.849227905273438 7.261346817016602 L16.849227905273438 7.261346817016602 C15.677359580993652 8.990875244140625 14.5055513381958 10.72044563293457 13.333630561828613 12.44993782043457 L13.333630561828613 12.44993782043457 C14.558335304260254 14.267772674560547 15.783004760742188 16.085617065429688 17.007747650146484 17.903427124023438 L17.007747650146484 17.903427124023438 C16.440492630004883 17.93209457397461 15.873238563537598 17.96076202392578 15.305984497070312 17.989429473876953 L15.305984497070312 17.989429473876953 C14.333854675292969 16.524356842041016 13.361645698547363 15.059334754943848 12.389405250549316 13.59433364868164 L12.389405250549316 13.59433364868164 C11.402403831481934 15.040938377380371 10.41530990600586 16.487476348876953 9.428178787231445 17.933992385864258 L9.428178787231445 17.933992385864258 C8.854132652282715 17.933992385864258 8.280086517333984 17.933992385864258 7.706040382385254 17.933992385864258 L7.706040382385254 17.933992385864258 C8.964156150817871 16.111433029174805 10.222320556640625 14.288905143737793 11.480541229248047 12.466418266296387 L11.480541229248047 12.466418266296387 C10.31107234954834 10.738487243652344 9.141595840454102 9.0105619430542 7.972137451171875 7.282622814178467 L7.972137451171875 7.282622814178467 C8.545185089111328 7.251558303833008 9.118231773376465 7.220493793487549 9.691279411315918 7.18942928314209 L9.691279411315918 7.18942928314209"></path></svg>