<svg xmlns="http://www.w3.org/2000/svg" viewBox="0.0 0.0 24.0 24.0" height="200px" width="200px"><path fill="none" stroke="black" stroke-width=".3" stroke-opacity="1.0"  filling="0" d="M10.152297019958496 7.199885845184326 L10.152297019958496 7.199885845184326 C10.152297019958496 8.212644577026367 10.152297019958496 9.22540283203125 10.152297019958496 10.23816204071045 L10.152297019958496 10.23816204071045 C11.606876373291016 10.220906257629395 12.38321304321289 9.114114761352539 13.9065523147583 9.841109275817871 C15.190877914428711 10.4540376663208 15.737187385559082 11.984090805053711 15.712039947509766 13.554010391235352 C15.686891555786133 15.123929023742676 15.090286254882812 16.733713150024414 14.08877944946289 17.506103515625 C12.71470832824707 18.565826416015625 11.84839153289795 17.765724182128906 10.535476684570312 17.234403610229492 L10.535476684570312 17.234403610229492 C10.048616409301758 17.437578201293945 9.561756134033203 17.64075469970703 9.074895858764648 17.843929290771484 L9.074895858764648 17.843929290771484 C9.074895858764648 16.079219818115234 9.074895858764648 14.314509391784668 9.074895858764648 12.549798965454102 C9.074895858764648 10.785089492797852 9.074895858764648 9.020379066467285 9.074895858764648 7.255669116973877 L9.074895858764648 7.255669116973877 C9.434029579162598 7.237074851989746 9.793163299560547 7.218480110168457 10.152297019958496 7.199885845184326 L10.152297019958496 7.199885845184326"></path>
<path fill="none" stroke="black" stroke-width=".3" stroke-opacity="1.0"  filling="0" d="M12.387998580932617 10.701950073242188 L12.387998580932617 10.701950073242188 C13.615274429321289 11.105768203735352 14.355664253234863 12.64798355102539 14.397428512573242 14.081831932067871 C14.439191818237305 15.515680313110352 13.782329559326172 16.84115982055664 12.215100288391113 16.811504364013672 C10.603991508483887 16.78101921081543 9.964981079101562 15.41401481628418 10.069866180419922 13.974440574645996 C10.174750328063965 12.534865379333496 11.023529052734375 11.022719383239746 12.387998580932617 10.701950073242188 L12.387998580932617 10.701950073242188"></path></svg>