<svg xmlns="http://www.w3.org/2000/svg" viewBox="0.0 0.0 24.0 24.0" height="200px" width="200px"><path fill="none" stroke="black" stroke-width=".3" stroke-opacity="1.0"  filling="0" d="M22.180755615234375 4.197157859802246 C19.621450424194336 5.972883701324463 20.19070816040039 8.280229568481445 20.04068374633789 10.406708717346191 C19.912090301513672 12.227911949157715 19.874975204467773 14.065320014953613 19.596881866455078 15.864568710327148 C19.141582489013672 18.8122615814209 17.345993041992188 20.693058013916016 14.497617721557617 21.512184143066406 C11.648197174072266 22.33130645751953 8.898618698120117 22.014528274536133 6.694252014160156 19.972732543945312 C5.817627906799316 19.16092872619629 5.148006439208984 17.78143310546875 5.010527610778809 16.58855628967285 C4.735046863555908 14.189209938049316 4.879322052001953 11.74072551727295 4.8704352378845215 9.312106132507324 C4.863120079040527 7.611652851104736 5.337762355804443 5.773722171783447 2.979710578918457 4.8003926277160645 C3.1626672744750977 4.626844882965088 3.3456249237060547 4.452774524688721 3.5285816192626953 4.278704643249512 C5.905450344085693 4.278704643249512 8.282320022583008 4.278704643249512 10.659189224243164 4.278704643249512 C10.735507011413574 4.413046836853027 10.811304092407227 4.546866416931152 10.887622833251953 4.681209564208984 C10.187159538269043 5.160033226013184 9.48669719696045 5.638857364654541 8.574004173278809 6.263000965118408 C8.478866577148438 8.963964462280273 8.2457275390625 11.826974868774414 8.312637329101562 14.682146072387695 C8.389479637145996 17.948707580566406 10.243616104125977 19.63347816467285 13.430197715759277 19.68418312072754 C16.144229888916016 19.727569580078125 17.922569274902344 18.014049530029297 18.09507179260254 14.825374603271484 C18.253982543945312 11.893885612487793 18.12904930114746 8.947237014770508 18.12904930114746 6.052862167358398 C17.09769630432129 5.593379020690918 16.35541343688965 5.262489318847656 15.196514129638672 4.745506286621094 C17.583837509155273 3.7146759033203125 19.613611221313477 4.27295446395874 22.180755615234375 4.197157859802246"></path></svg>