<svg xmlns="http://www.w3.org/2000/svg" viewBox="0.0 0.0 24.0 24.0" height="200px" width="200px"><path fill="none" stroke="black" stroke-width=".3" stroke-opacity="1.0"  filling="0" d="M11.50534725189209 7.284671306610107 L11.50534725189209 7.284671306610107 C11.844200134277344 7.290424823760986 12.263858795166016 7.082237243652344 12.521906852722168 7.301931858062744 C12.778956413269043 7.520777225494385 12.6387939453125 7.966919898986816 12.697237968444824 8.299413681030273 L12.697237968444824 8.299413681030273 C12.299941062927246 8.3410005569458 11.902644157409668 8.382588386535645 11.50534725189209 8.424175262451172 L11.50534725189209 8.424175262451172 C11.50534725189209 8.044340133666992 11.50534725189209 7.664505958557129 11.50534725189209 7.284671306610107 L11.50534725189209 7.284671306610107"></path>
<path fill="none" stroke="black" stroke-width=".3" stroke-opacity="1.0"  filling="0" d="M12.704202651977539 9.946137428283691 L12.704202651977539 9.946137428283691 C12.704202651977539 11.291001319885254 12.704202651977539 12.635866165161133 12.704202651977539 13.980731964111328 C12.704202651977539 15.325596809387207 12.704202651977539 16.670461654663086 12.704202651977539 18.01532554626465 L12.704202651977539 18.01532554626465 C12.288535118103027 18.01532554626465 11.8728666305542 18.01532554626465 11.457199096679688 18.01532554626465 L11.457199096679688 18.01532554626465 C11.457199096679688 16.682926177978516 11.457199096679688 15.350526809692383 11.457199096679688 14.018129348754883 C11.457199096679688 12.685730934143066 11.457199096679688 11.35333251953125 11.457199096679688 10.020933151245117 L11.457199096679688 10.020933151245117 C11.8728666305542 9.996001243591309 12.288535118103027 9.9710693359375 12.704202651977539 9.946137428283691 L12.704202651977539 9.946137428283691"></path></svg>