<svg xmlns="http://www.w3.org/2000/svg" viewBox="0.0 0.0 24.0 24.0" height="200px" width="200px"><path fill="none" stroke="black" stroke-width=".3" stroke-opacity="1.0"  filling="0" d="M17.80634117126465 7.4694504737854 L17.80634117126465 7.4694504737854 C16.547943115234375 8.994246482849121 15.657444953918457 10.662335395812988 14.850171089172363 12.378273010253906 C14.042896270751953 14.094209671020508 13.318845748901367 15.857995986938477 12.39334487915039 17.574188232421875 L12.39334487915039 17.574188232421875 C11.071309089660645 16.4965763092041 10.159823417663574 14.755577087402344 9.361176490783691 12.909650802612305 C8.562529563903809 11.063724517822266 7.87672233581543 9.112871170043945 7.006042003631592 7.61555290222168 L7.006042003631592 7.61555290222168 C8.316092491149902 7.61555290222168 9.626143455505371 7.61555290222168 10.93619441986084 7.61555290222168 L10.93619441986084 7.61555290222168 C10.680438995361328 7.995302200317383 10.4246826171875 8.375051498413086 10.168927192687988 8.754800796508789 L10.168927192687988 8.754800796508789 C10.97559642791748 10.697543144226074 11.782159805297852 12.640324592590332 12.588746070861816 14.583102226257324 L12.588746070861816 14.583102226257324 C12.698099136352539 14.604116439819336 12.807453155517578 14.625130653381348 12.9168062210083 14.64614486694336 L12.9168062210083 14.64614486694336 C13.747661590576172 12.660074234008789 14.57837963104248 10.67394733428955 15.409229278564453 8.687874794006348 L15.409229278564453 8.687874794006348 C15.062644958496094 8.416184425354004 14.716059684753418 8.14449405670166 14.369475364685059 7.872803211212158 L14.369475364685059 7.872803211212158 C15.498547554016113 7.636746883392334 16.65336799621582 7.503769397735596 17.80634117126465 7.4694504737854 L17.80634117126465 7.4694504737854"></path></svg>