<svg xmlns="http://www.w3.org/2000/svg" viewBox="0.0 0.0 24.0 24.0" height="200px" width="200px"><path fill="none" stroke="black" stroke-width=".3" stroke-opacity="1.0"  filling="0" d="M9.80511474609375 9.28319263458252 L9.80511474609375 9.28319263458252 C9.804048538208008 11.116278648376465 9.798029899597168 12.949601173400879 9.813615798950195 14.7826509475708 C9.818268775939941 15.329957008361816 9.731316566467285 17.11516761779785 10.125962257385254 17.69818115234375 C11.099310874938965 19.136117935180664 13.021774291992188 18.548171997070312 13.796478271484375 17.316631317138672 C14.441143989562988 16.29180908203125 14.613775253295898 14.893434524536133 14.622821807861328 13.467403411865234 C14.631868362426758 12.041372299194336 14.477331161499023 10.587684631347656 14.467659950256348 9.452237129211426 L14.467659950256348 9.452237129211426 C14.980683326721191 9.408439636230469 15.493707656860352 9.364641189575195 16.006731033325195 9.320843696594238 L16.006731033325195 9.320843696594238 C16.006731033325195 11.016151428222656 16.006731033325195 12.711459159851074 16.006731033325195 14.406766891479492 C16.006731033325195 16.102073669433594 16.006731033325195 17.797382354736328 16.006731033325195 19.492691040039062 L16.006731033325195 19.492691040039062 C15.673973083496094 19.545101165771484 15.308095932006836 19.8038387298584 15.00845718383789 19.649919509887695 C14.663490295410156 19.47271728515625 14.597468376159668 18.99212074279785 14.391974449157715 18.66322135925293 L14.391974449157715 18.66322135925293 C14.038646697998047 18.942655563354492 13.736481666564941 19.303255081176758 13.331990242004395 19.50152587890625 C12.758993148803711 19.782392501831055 12.142936706542969 20.033300399780273 11.506349563598633 20.077674865722656 C9.049375534057617 20.248943328857422 8.176376342773438 18.303815841674805 7.920412540435791 15.956892967224121 C7.664448261260986 13.609971046447754 8.025518417358398 10.86125373840332 8.03668212890625 9.425342559814453 L8.03668212890625 9.425342559814453 C8.62615966796875 9.377959251403809 9.21563720703125 9.330575942993164 9.80511474609375 9.28319263458252 L9.80511474609375 9.28319263458252"></path></svg>