<svg xmlns="http://www.w3.org/2000/svg" viewBox="0.0 0.0 24.0 24.0" height="200px" width="200px"><path fill="none" stroke="black" stroke-width=".3" stroke-opacity="1.0"  filling="0" d="M4.900360107421875 6.17353630065918 C8.215031623840332 6.234682559967041 11.448351860046387 5.731686592102051 14.6641263961792 6.58295202255249 C17.717729568481445 7.391680717468262 19.62337303161621 9.39834976196289 20.090744018554688 12.450888633728027 C20.394351959228516 14.433629989624023 20.400733947753906 16.54770278930664 20.069477081298828 18.524066925048828 C19.37293815612793 22.672454833984375 16.619218826293945 24.97953987121582 12.349065780639648 25.215618133544922 C9.971796989440918 25.347484588623047 7.581766605377197 25.239547729492188 4.900360107421875 25.239547729492188 C4.900360107421875 18.78513526916504 4.900360107421875 12.61784553527832 4.900360107421875 6.17353630065918"></path>
<path fill="none" stroke="black" stroke-width=".3" stroke-opacity="1.0"  filling="0" d="M7.464789867401123 8.285483360290527 C10.752345085144043 8.443400382995605 14.346163749694824 7.183782577514648 16.534677505493164 10.523445129394531 C18.55782699584961 13.61054515838623 18.455739974975586 17.179372787475586 16.690998077392578 20.36377716064453 C14.661467552185059 24.02724838256836 10.986297607421875 23.06591796875 7.4647908210754395 23.07176971435547 C7.4647908210754395 18.031171798706055 7.4647908210754395 13.288862228393555 7.464789867401123 8.285483360290527"></path></svg>