<svg xmlns="http://www.w3.org/2000/svg" viewBox="0.0 0.0 24.0 24.0" height="200px" width="200px"><path fill="none" stroke="black" stroke-width=".3" stroke-opacity="1.0"  filling="0" d="M10.475252151489258 5.66010046005249 C14.318687438964844 4.767172336578369 18.935352325439453 6.486363410949707 18.921716690063477 10.970706939697266 C18.190908432006836 10.970706939697266 17.625757217407227 10.970706939697266 17.067676544189453 10.970706939697266 C15.474746704101562 7.912121295928955 13.418686866760254 6.842423915863037 10.693939208984375 7.651514530181885 C9.380807876586914 8.041414260864258 8.447474479675293 8.76919174194336 8.351009368896484 10.264141082763672 C8.250504493713379 11.820201873779297 9.18232250213623 12.57575798034668 10.493433952331543 12.965150833129883 C12.263131141662598 13.4909086227417 14.07575798034668 13.875757217407227 15.834342956542969 14.434847831726074 C18.63131332397461 15.323736190795898 19.845455169677734 16.857070922851562 19.827274322509766 19.2757568359375 C19.80959701538086 21.568687438964844 18.152524948120117 23.42828369140625 15.508081436157227 24.215656280517578 C13.321211814880371 24.867172241210938 11.172222137451172 24.741416931152344 9.080302238464355 23.925758361816406 C6.626767635345459 22.969192504882812 5.465656280517578 21.08535385131836 5.609090805053711 18.37525177001953 C6.158585548400879 18.37525177001953 6.714645862579346 18.37525177001953 7.242928504943848 18.37525177001953 C8.987373352050781 22.184341430664062 11.887372970581055 23.502525329589844 15.291414260864258 22.171213150024414 C16.6398983001709 21.643939971923828 17.365150451660156 20.71666717529297 17.3858585357666 19.33434295654297 C17.40606117248535 18.009090423583984 16.606060028076172 17.095455169677734 15.392929077148438 16.70404052734375 C13.63787841796875 16.13787841796875 11.828282356262207 15.741918563842773 10.058585166931152 15.218182563781738 C7.047979354858398 14.326767921447754 5.856564998626709 12.980807304382324 5.893433570861816 10.606060981750488 C5.931312561035156 8.173737525939941 7.635858058929443 6.3191914558410645 10.475252151489258 5.66010046005249"></path></svg>