<svg xmlns="http://www.w3.org/2000/svg" viewBox="0.0 0.0 24.0 24.0" height="200px" width="200px"><path fill="none" stroke="black" stroke-width=".3" stroke-opacity="1.0"  filling="0" d="M18.331836700439453 10.73011302947998 C20.31865119934082 11.064447402954102 21.446430206298828 12.073851585388184 21.681053161621094 13.954553604125977 C21.82342529296875 15.094598770141602 21.79623031616211 16.258638381958008 21.803695678710938 17.412548065185547 C21.819690704345703 19.87820053100586 21.808494567871094 22.344390869140625 21.808494567871094 24.928955078125 C20.951595306396484 24.928955078125 20.378372192382812 24.928955078125 19.7838191986084 24.928955078125 C19.68623924255371 24.5972843170166 19.552932739257812 24.350933074951172 19.550800323486328 24.103515625 C19.52840232849121 21.438430786132812 19.557199478149414 18.772815704345703 19.509740829467773 16.10826873779297 C19.469213485717773 13.85590648651123 18.84960174560547 13.032066345214844 17.208322525024414 12.84223747253418 C15.282297134399414 12.619346618652344 13.671409606933594 13.725797653198242 13.440521240234375 15.73980712890625 C13.219229698181152 17.670631408691406 13.310413360595703 19.638248443603516 13.278952598571777 21.589868545532227 C13.261889457702637 22.640331268310547 13.275753021240234 23.691326141357422 13.275753021240234 24.91295623779297 C12.486039161682129 24.952415466308594 11.909086227416992 24.98120880126953 10.9753999710083 25.027599334716797 C10.9753999710083 21.82715606689453 11.05005168914795 18.74295425415039 10.951404571533203 15.664087295532227 C10.873552322387695 13.235758781433105 9.0451078414917 12.146370887756348 6.951649188995361 13.151509284973145 C5.636704921722412 13.782853126525879 4.934441089630127 14.888771057128906 4.831528186798096 16.31302833557129 C4.736080169677734 17.63970375061035 4.757408618927002 18.974910736083984 4.746744632720947 20.30691909790039 C4.734480857849121 21.798892974853516 4.744078636169434 23.29033851623535 4.744078636169434 24.91562271118164 C3.913839340209961 24.91562271118164 3.3395509719848633 24.91562271118164 2.611692428588867 24.91562271118164 C2.6122255325317383 20.37250518798828 2.6122255325317383 15.881645202636719 2.6122255325317383 10.88421630859375 C3.5405778884887695 11.29853630065918 4.2204461097717285 11.601410865783691 5.151998996734619 12.016796112060547 C6.137939929962158 11.683526992797852 7.589391231536865 10.829827308654785 9.0552396774292 10.804765701293945 C10.389913558959961 10.782369613647461 11.739518165588379 11.65953254699707 13.435721397399902 12.266880989074707 C14.540040969848633 11.262276649475098 16.2255802154541 10.37604808807373 18.331836700439453 10.73011302947998"></path></svg>