<svg xmlns="http://www.w3.org/2000/svg" viewBox="0.0 0.0 24.0 24.0" height="200px" width="200px"><path fill="none" stroke="black" stroke-width=".3" stroke-opacity="1.0"  filling="0" d="M13.976027488708496 10.031156539916992 C17.155048370361328 10.5059232711792 18.402851104736328 11.735939025878906 19.015804290771484 15.062041282653809 C17.781002044677734 15.571698188781738 16.789737701416016 15.698939323425293 15.9127197265625 14.264378547668457 C14.881779670715332 12.577383041381836 13.021021842956543 12.437826156616211 11.338815689086914 12.787402153015137 C10.384493827819824 12.98579216003418 9.146269798278809 13.762247085571289 8.814480781555176 14.590694427490234 C8.222047805786133 16.06903839111328 9.579305648803711 16.847545623779297 10.787429809570312 17.247060775756836 C12.72480583190918 17.887380599975586 14.769586563110352 18.21438217163086 16.68507194519043 18.90806007385254 C19.527515411376953 19.936948776245117 20.63986587524414 22.409976959228516 19.70401382446289 25.208637237548828 C19.56240463256836 25.632095336914062 19.36538314819336 26.06513214111328 19.0910587310791 26.411972045898438 C16.790424346923828 29.320770263671875 13.590880393981934 29.350873947143555 10.38517951965332 28.870634078979492 C7.1897382736206055 28.39039421081543 5.88310432434082 26.81490707397461 5.829744338989258 22.66583251953125 C6.634932041168213 23.139230728149414 7.642613887786865 23.44228744506836 8.208366394042969 24.11681365966797 C10.026708602905273 26.282676696777344 13.098325729370117 27.048187255859375 15.500207901000977 25.734027862548828 C17.335651397705078 24.730449676513672 17.528568267822266 22.766395568847656 15.742378234863281 21.72382354736328 C14.593088150024414 21.052719116210938 13.194099426269531 20.810548782348633 11.911408424377441 20.364513397216797 C10.420066833496094 19.845966339111328 8.826108932495117 19.506649017333984 7.468851566314697 18.745929718017578 C5.3823418617248535 17.575429916381836 4.869948387145996 15.276165962219238 5.929622173309326 13.130138397216797 C7.130221366882324 10.699525833129883 10.293508529663086 9.48114013671875 13.976027488708496 10.031156539916992"></path></svg>