<svg xmlns="http://www.w3.org/2000/svg" viewBox="0.0 0.0 24.0 24.0" height="200px" width="200px"><path fill="none" stroke="black" stroke-width=".3" stroke-opacity="1.0"  filling="0" d="M11.076130867004395 7.069307804107666 C11.837129592895508 7.069307804107666 12.440058708190918 7.069307804107666 13.254125595092773 7.069307804107666 C13.254125595092773 8.443398475646973 13.254125595092773 9.726597785949707 13.254125595092773 11.154318809509277 C14.226263046264648 11.323116302490234 15.019441604614258 11.460298538208008 15.976336479187012 11.626274108886719 C15.976336479187012 12.19250774383545 15.976336479187012 12.785274505615234 15.976336479187012 13.543451309204102 C15.190496444702148 13.636035919189453 14.387721061706543 13.730314254760742 13.490667343139648 13.835882186889648 C13.490667343139648 17.094972610473633 13.490667343139648 20.234943389892578 13.490667343139648 23.518869400024414 C14.419336318969727 23.727184295654297 15.201787948608398 23.9033203125 16.067790985107422 24.09752655029297 C16.067790985107422 24.689163208007812 16.067790985107422 25.226604461669922 16.067790985107422 25.74711036682129 C14.303606033325195 27.03030776977539 11.21444320678711 25.796791076660156 11.051290512084961 23.66960334777832 C10.893219947814941 21.615806579589844 10.98749828338623 19.542816162109375 10.976207733154297 17.478296279907227 C10.971125602722168 16.361637115478516 10.975642204284668 15.244412422180176 10.975642204284668 13.938630104064941 C9.646150588989258 13.560953140258789 7.917530059814453 13.984922409057617 8.638446807861328 11.704745292663574 C9.291620254516602 11.549497604370117 10.05826473236084 11.366585731506348 10.887009620666504 11.169561386108398 C10.951931953430176 9.759905815124512 11.011208534240723 8.476141929626465 11.076130867004395 7.069307804107666"></path></svg>