<svg xmlns="http://www.w3.org/2000/svg" viewBox="0.0 0.0 24.0 24.0" height="200px" width="200px"><path fill="none" stroke="black" stroke-width=".3" stroke-opacity="1.0"  filling="0" d="M16.889938354492188 8.078554153442383 L16.889938354492188 8.078554153442383 C16.878475189208984 8.123865127563477 16.412750244140625 9.964774131774902 16.388988494873047 10.058698654174805 L16.388988494873047 10.058698654174805 C15.17796516418457 10.11378288269043 13.497757911682129 9.984817504882812 12.341266632080078 10.659231185913086 C10.816804885864258 11.54822826385498 10.828882217407227 14.483759880065918 12.353415489196777 15.368865966796875 C13.468287467956543 16.016132354736328 15.122562408447266 15.892611503601074 16.282852172851562 15.944782257080078 L16.282852172851562 15.944782257080078 C16.465118408203125 16.5709228515625 16.590091705322266 17.219520568847656 16.62747573852539 17.87057876586914 L16.62747573852539 17.87057876586914 C15.376228332519531 18.191261291503906 14.05290699005127 18.421863555908203 12.803179740905762 18.297067642211914 C11.553451538085938 18.172273635864258 10.377317428588867 17.69208526611328 9.420443534851074 16.591190338134766 C8.24758243560791 15.241799354553223 7.981385231018066 13.438846588134766 8.408717155456543 11.811136245727539 C8.836050033569336 10.183425903320312 9.956911087036133 8.730958938598633 11.55816650390625 8.082536697387695 C13.37996768951416 7.344805717468262 15.050333976745605 7.6832098960876465 16.889938354492188 8.078554153442383 L16.889938354492188 8.078554153442383"></path></svg>