<svg xmlns="http://www.w3.org/2000/svg" viewBox="0.0 0.0 24.0 24.0" height="200px" width="200px"><path fill="none" stroke="black" stroke-width=".3" stroke-opacity="1.0"  filling="0" d="M6.603045463562012 4.291917324066162 C10.720749855041504 4.291917324066162 14.700639724731445 4.291917324066162 18.8638973236084 4.291917324066162 C18.8638973236084 5.5662665367126465 18.8638973236084 6.751237392425537 18.8638973236084 8.277573585510254 C16.511829376220703 8.277573585510254 14.253751754760742 8.277573585510254 11.838254928588867 8.277573585510254 C11.838254928588867 9.625731468200684 11.838254928588867 10.636560440063477 11.838254928588867 11.922443389892578 C13.945256233215332 11.922443389892578 16.01823616027832 11.922443389892578 18.324748992919922 11.922443389892578 C18.324748992919922 13.447050094604492 18.324748992919922 14.705828666687012 18.324748992919922 16.21486473083496 C16.198719024658203 16.21486473083496 14.12228012084961 16.21486473083496 11.811729431152344 16.21486473083496 C11.811729431152344 18.710514068603516 11.811729431152344 20.980701446533203 11.811729431152344 23.49191665649414 C10.013226509094238 23.49191665649414 8.448833465576172 23.49191665649414 6.603045463562012 23.49191665649414 C6.603045463562012 17.044633865356445 6.603045463562012 10.749003410339355 6.603045463562012 4.291917324066162"></path></svg>