<svg xmlns="http://www.w3.org/2000/svg" viewBox="0.0 0.0 24.0 24.0" height="200px" width="200px"><path fill="none" stroke="black" stroke-width=".3" stroke-opacity="1.0"  filling="0" d="M12.228750228881836 9.551351547241211 C16.45438575744629 9.51008415222168 19.522403717041016 11.799711227416992 20.519222259521484 15.83537483215332 C20.825881958007812 17.076242446899414 20.9283390045166 18.368335723876953 21.184478759765625 20.028282165527344 C17.076242446899414 20.028282165527344 13.231261253356934 20.028282165527344 9.183501243591309 20.028282165527344 C8.825613021850586 22.48297882080078 9.599733352661133 24.002044677734375 11.52649211883545 24.84375762939453 C13.829638481140137 25.849117279052734 14.97160530090332 24.241823196411133 16.219589233398438 22.291584014892578 C17.759288787841797 22.60393524169922 19.099767684936523 22.87644386291504 20.4964542388916 23.16033363342285 C18.647247314453125 27.48415756225586 15.926447868347168 29.099279403686523 11.520089149475098 28.689451217651367 C7.511462211608887 28.316619873046875 4.7365875244140625 25.86263656616211 4.1360764503479 21.79210662841797 C3.8649911880493164 19.954998016357422 3.872818946838379 17.991241455078125 4.205092430114746 16.16693687438965 C4.945059299468994 12.112773895263672 8.170316696166992 9.591196060180664 12.228750228881836 9.551351547241211"></path>
<path fill="none" stroke="black" stroke-width=".3" stroke-opacity="1.0"  filling="0" d="M12.376030921936035 13.1544189453125 C14.636487007141113 13.031328201293945 15.717976570129395 14.525491714477539 16.16693687438965 16.989437103271484 C13.857386589050293 16.989437103271484 11.637487411499023 16.989437103271484 9.103813171386719 16.989437103271484 C9.049738883972168 14.657832145690918 10.171072006225586 13.274663925170898 12.376030921936035 13.1544189453125"></path></svg>