<svg xmlns="http://www.w3.org/2000/svg" viewBox="0.0 0.0 24.0 24.0" height="200px" width="200px"><path fill="none" stroke="black" stroke-width=".3" stroke-opacity="1.0"  filling="0" d="M7.867916107177734 7.63946533203125 L7.867916107177734 7.63946533203125 C8.76646614074707 7.63946533203125 9.665016174316406 7.63946533203125 10.563566207885742 7.63946533203125 L10.563566207885742 7.63946533203125 C10.563566207885742 8.983746528625488 10.563566207885742 10.328025817871094 10.563566207885742 11.672307014465332 L10.563566207885742 11.672307014465332 C10.66409683227539 11.713013648986816 10.764628410339355 11.7537202835083 10.865159034729004 11.794426918029785 L10.865159034729004 11.794426918029785 C11.718673706054688 10.411029815673828 12.572214126586914 9.027649879455566 13.425801277160645 7.644298553466797 L13.425801277160645 7.644298553466797 C13.604793548583984 7.644298553466797 16.859375 7.644298553466797 16.89670181274414 7.644298553466797 L16.89670181274414 7.644298553466797 C15.801533699035645 9.175954818725586 14.706426620483398 10.707649230957031 13.611396789550781 12.239404678344727 L13.611396789550781 12.239404678344727 C14.767574310302734 14.306005477905273 15.923831939697266 16.37255859375 17.080039978027344 18.43914222717285 L17.080039978027344 18.43914222717285 C15.982684135437012 18.43914222717285 14.885327339172363 18.43914222717285 13.787971496582031 18.43914222717285 L13.787971496582031 18.43914222717285 C13.036895751953125 17.04324722290039 12.285688400268555 15.647415161132812 11.53439998626709 14.251635551452637 L11.53439998626709 14.251635551452637 C10.533449172973633 15.76047420501709 10.65616512298584 16.655094146728516 10.474635124206543 18.42013168334961 L10.474635124206543 18.42013168334961 C9.605729103088379 18.42013168334961 8.736823081970215 18.42013168334961 7.867916584014893 18.42013168334961 L7.867916584014893 18.42013168334961 C7.867916584014893 16.623353958129883 7.867916584014893 14.826576232910156 7.867916107177734 13.02979850769043 C7.867916107177734 11.233020782470703 7.867916107177734 9.436243057250977 7.867916107177734 7.63946533203125 L7.867916107177734 7.63946533203125"></path></svg>