<svg xmlns="http://www.w3.org/2000/svg" viewBox="0.0 0.0 24.0 24.0" height="200px" width="200px"><path fill="none" stroke="black" stroke-width=".3" stroke-opacity="1.0"  filling="0" d="M8.214313507080078 7.860674858093262 L8.214313507080078 7.860674858093262 C9.3859224319458 7.673868179321289 11.516393661499023 7.393695831298828 13.299493789672852 7.677814960479736 C15.082592964172363 7.9619340896606445 16.518320083618164 8.810344696044922 16.300439834594727 10.880704879760742 C16.238670349121094 11.467652320861816 15.941494941711426 12.021810531616211 15.61396598815918 12.512776374816895 C15.36444091796875 12.886813163757324 14.94491958618164 13.113643646240234 14.610396385192871 13.414077758789062 L14.610396385192871 13.414077758789062 C15.75999927520752 15.028886795043945 16.13371467590332 16.397480010986328 16.653535842895508 18.300344467163086 L16.653535842895508 18.300344467163086 C15.673967361450195 18.300344467163086 14.694398880004883 18.300344467163086 13.71483039855957 18.300344467163086 L13.71483039855957 18.300344467163086 C13.119446754455566 16.411773681640625 13.215471267700195 14.7390718460083 11.004873275756836 14.531702995300293 L11.004873275756836 14.531702995300293 C11.004873275756836 15.775598526000977 11.004873275756836 17.019495010375977 11.004873275756836 18.263389587402344 L11.004873275756836 18.263389587402344 C11.002042770385742 18.263389587402344 8.215079307556152 18.263389587402344 8.214313507080078 18.263389587402344 L8.214313507080078 18.263389587402344 C8.214313507080078 16.529603958129883 8.214313507080078 14.795818328857422 8.214313507080078 13.062032699584961 C8.214313507080078 11.3282470703125 8.214313507080078 9.594461441040039 8.214313507080078 7.860674858093262 L8.214313507080078 7.860674858093262"></path>
<path fill="none" stroke="black" stroke-width=".3" stroke-opacity="1.0"  filling="0" d="M11.04883861541748 9.838502883911133 L11.04883861541748 9.838502883911133 C11.450704574584961 9.799382209777832 11.861374855041504 9.62878704071045 12.254436492919922 9.72114086151123 C13.184064865112305 9.939566612243652 13.604103088378906 10.709403991699219 13.161750793457031 11.633458137512207 C12.73449993133545 12.52596664428711 11.755002975463867 12.27914047241211 11.04883861541748 12.271920204162598 L11.04883861541748 12.271920204162598 C11.04883861541748 11.46078109741211 11.04883861541748 10.649641990661621 11.04883861541748 9.838502883911133 L11.04883861541748 9.838502883911133"></path></svg>