<svg xmlns="http://www.w3.org/2000/svg" viewBox="0.0 0.0 24.0 24.0" height="200px" width="200px"><path fill="none" stroke="black" stroke-width=".3" stroke-opacity="1.0"  filling="0" d="M7.904420375823975 7.591583251953125 L7.904420375823975 7.591583251953125 C8.79730224609375 7.591583251953125 9.690183639526367 7.591583251953125 10.5830659866333 7.591583251953125 L10.5830659866333 7.591583251953125 C10.578686714172363 9.648772239685059 10.439178466796875 11.765730857849121 10.644979476928711 13.815751075744629 C10.703211784362793 14.3958101272583 10.781539916992188 15.297245979309082 11.273723602294922 15.735329627990723 C12.228276252746582 16.584957122802734 13.526866912841797 15.910040855407715 13.814395904541016 14.81251335144043 C14.393078804016113 12.603621482849121 14.022313117980957 9.901749610900879 14.018067359924316 7.639393329620361 L14.018067359924316 7.639393329620361 C14.347272872924805 7.639393329620361 16.58572006225586 7.639393329620361 16.88508415222168 7.639393329620361 L16.88508415222168 7.639393329620361 C16.885150909423828 9.017775535583496 17.11065673828125 10.852554321289062 17.065717697143555 12.618451118469238 C17.020780563354492 14.384347915649414 16.705400466918945 16.081361770629883 15.623699188232422 17.184215545654297 C14.80482292175293 18.01910400390625 13.481014251708984 18.452430725097656 12.17060375213623 18.444618225097656 C10.860193252563477 18.436805725097656 9.563179969787598 17.98785400390625 8.797893524169922 17.058185577392578 C8.017327308654785 16.109954833984375 7.740850448608398 14.83156967163086 7.662127494812012 13.510744094848633 C7.583404541015625 12.18991756439209 7.702435493469238 10.826652526855469 7.712884902954102 9.708664894104004 C7.719507217407227 9.000120162963867 7.6364006996154785 8.247514724731445 7.904420375823975 7.591583251953125 L7.904420375823975 7.591583251953125"></path></svg>