<svg xmlns="http://www.w3.org/2000/svg" viewBox="0.0 0.0 24.0 24.0" height="200px" width="200px"><path fill="none" stroke="black" stroke-width=".3" stroke-opacity="1.0"  filling="0" d="M10.481059074401855 6.056556224822998 C11.850506782531738 6.056556224822998 13.14289379119873 6.056556224822998 14.720621109008789 6.056556224822998 C15.211596488952637 9.146838188171387 15.711817741394043 12.297006607055664 16.212039947509766 15.447175979614258 C16.28557777404785 15.463908195495605 16.358673095703125 15.480201721191406 16.432209014892578 15.49693489074707 C16.944761276245117 12.393001556396484 17.456872940063477 9.289068222045898 17.988798141479492 6.0658040046691895 C19.261371612548828 6.0658040046691895 20.470096588134766 6.0658040046691895 21.965919494628906 6.0658040046691895 C20.747507095336914 11.074633598327637 19.56256103515625 15.944757461547852 18.372331619262695 20.838218688964844 C16.876068115234375 20.838218688964844 15.567827224731445 20.838218688964844 14.043380737304688 20.838218688964844 C13.517179489135742 17.819271087646484 12.994499206542969 14.819257736206055 12.471379280090332 11.819242477416992 C12.398725509643555 11.810434341430664 12.325189590454102 11.801187515258789 12.252092361450195 11.791940689086914 C11.702993392944336 14.732950210571289 11.15345287322998 17.67439842224121 10.579254150390625 20.75058937072754 C9.093557357788086 20.75058937072754 7.670830249786377 20.75058937072754 6.116001605987549 20.75058937072754 C5.005912780761719 15.883108139038086 3.9041900634765625 11.051294326782227 2.7659196853637695 6.060959339141846 C4.2111053466796875 6.060959339141846 5.497768402099609 6.060959339141846 6.979501724243164 6.060959339141846 C7.481485843658447 9.18250560760498 7.987432479858398 12.330912590026855 8.493819236755371 15.479321479797363 C8.60478401184082 15.476237297058105 8.71574878692627 15.47315502166748 8.826713562011719 15.470072746276855 C9.371850967407227 12.368782997131348 9.916987419128418 9.267491340637207 10.481059074401855 6.056556224822998"></path></svg>