<svg xmlns="http://www.w3.org/2000/svg" viewBox="0.0 0.0 24.0 24.0" height="200px" width="200px"><path fill="none" stroke="black" stroke-width=".3" stroke-opacity="1.0"  filling="0" d="M12.879446029663086 7.689389705657959 L12.879446029663086 7.689389705657959 C13.426673889160156 7.912988185882568 14.037308692932129 8.02052116394043 14.521129608154297 8.360184669494629 C16.202722549438477 9.54073715209961 16.153310775756836 11.026352882385254 15.448031425476074 12.436087608337402 C14.742751121520996 13.845821380615234 13.381603240966797 15.179673194885254 12.439723014831543 16.05669593811035 L12.439723014831543 16.05669593811035 C13.600525856018066 16.05669593811035 14.761329650878906 16.05669593811035 15.92213249206543 16.05669593811035 L15.92213249206543 16.05669593811035 C15.92213249206543 16.833209991455078 15.92213249206543 17.609722137451172 15.92213249206543 18.3862361907959 L15.92213249206543 18.3862361907959 C14.63751220703125 18.386363983154297 13.352892875671387 18.386445999145508 12.068272590637207 18.38649559020996 C10.783653259277344 18.38654327392578 9.499032974243164 18.38656234741211 8.214412689208984 18.386566162109375 L8.214412689208984 18.386566162109375 C8.214096069335938 17.878694534301758 8.043002128601074 17.34136199951172 8.213461875915527 16.862951278686523 C8.943652153015137 14.813608169555664 12.192886352539062 14.162715911865234 12.752820014953613 11.939579010009766 C13.432801246643066 9.2398099899292 10.233709335327148 10.18245792388916 8.989383697509766 10.721827507019043 L8.989383697509766 10.721827507019043 C8.742045402526855 10.064087867736816 8.494632720947266 9.406376838684082 8.24714469909668 8.748693466186523 L8.24714469909668 8.748693466186523 C9.9541597366333 7.842031002044678 10.951606750488281 7.587854862213135 12.879446029663086 7.689389705657959 L12.879446029663086 7.689389705657959"></path></svg>