<svg xmlns="http://www.w3.org/2000/svg" viewBox="0.0 0.0 24.0 24.0" height="200px" width="200px"><path fill="none" stroke="black" stroke-width=".3" stroke-opacity="1.0"  filling="0" d="M10.97911262512207 8.049473762512207 L10.97911262512207 8.049473762512207 C11.456997871398926 8.049473762512207 11.934884071350098 8.049473762512207 12.412769317626953 8.049473762512207 L12.412769317626953 8.049473762512207 C12.412769317626953 8.48675537109375 12.412769317626953 8.92403793334961 12.412769317626953 9.361319541931152 L12.412769317626953 9.361319541931152 C11.934884071350098 9.361319541931152 11.456997871398926 9.361319541931152 10.97911262512207 9.361319541931152 L10.97911262512207 9.361319541931152 C10.97911262512207 8.92403793334961 10.97911262512207 8.48675537109375 10.97911262512207 8.049473762512207 L10.97911262512207 8.049473762512207"></path>
<path fill="none" stroke="black" stroke-width=".3" stroke-opacity="1.0"  filling="0" d="M10.850217819213867 10.45952033996582 L10.850217819213867 10.45952033996582 C11.400498390197754 10.45952033996582 11.950779914855957 10.45952033996582 12.501060485839844 10.45952033996582 L12.501060485839844 10.45952033996582 C12.500773429870605 12.51246166229248 12.711812973022461 14.706836700439453 12.48099422454834 16.74773597717285 C12.381152153015137 17.630537033081055 12.35647964477539 18.623010635375977 11.242076873779297 18.820016860961914 C10.708532333374023 18.914337158203125 10.164189338684082 18.70855712890625 9.625246047973633 18.652828216552734 L9.625246047973633 18.652828216552734 C9.675372123718262 18.302734375 9.725497245788574 17.9526424407959 9.775623321533203 17.602548599243164 L9.775623321533203 17.602548599243164 C10.133821487426758 17.47963523864746 10.492019653320312 17.356719970703125 10.850217819213867 17.233806610107422 L10.850217819213867 17.233806610107422 C10.850217819213867 14.975711822509766 10.850217819213867 12.717613220214844 10.850217819213867 10.45952033996582 L10.850217819213867 10.45952033996582"></path></svg>