<svg xmlns="http://www.w3.org/2000/svg" viewBox="0.0 0.0 24.0 24.0" height="200px" width="200px"><path fill="none" stroke="black" stroke-width=".3" stroke-opacity="1.0"  filling="0" d="M12.611041069030762 7.9310736656188965 L12.611041069030762 7.9310736656188965 C14.32776165008545 8.328290939331055 16.515548706054688 9.036540985107422 15.79142951965332 11.429505348205566 C15.616567611694336 12.007363319396973 15.079582214355469 12.404831886291504 14.723658561706543 12.892495155334473 L14.723658561706543 12.892495155334473 C15.48390007019043 13.533721923828125 16.05081558227539 13.870585441589355 16.31158447265625 15.033188819885254 C16.848905563354492 17.428760528564453 14.560266494750977 18.65387535095215 12.254231452941895 18.706260681152344 C9.948196411132812 18.758644104003906 7.624765396118164 17.63829803466797 8.092500686645508 15.342942237854004 C8.324848175048828 14.202726364135742 8.876883506774902 13.816071510314941 9.583738327026367 13.18292236328125 L9.583738327026367 13.18292236328125 C9.231212615966797 12.649520874023438 8.727170944213867 12.189666748046875 8.52616024017334 11.582718849182129 C7.636911869049072 8.897653579711914 10.718290328979492 8.061636924743652 12.611041069030762 7.9310736656188965 L12.611041069030762 7.9310736656188965"></path>
<path fill="none" stroke="black" stroke-width=".3" stroke-opacity="1.0"  filling="0" d="M12.222063064575195 9.940572738647461 L12.222063064575195 9.940572738647461 C12.52358627319336 10.282450675964355 13.109842300415039 10.510669708251953 13.126631736755371 10.966207504272461 C13.146432876586914 11.503442764282227 12.582977294921875 11.89383602142334 12.311149597167969 12.357649803161621 L12.311149597167969 12.357649803161621 C11.94360065460205 11.837272644042969 11.23196792602539 11.433177947998047 11.208502769470215 10.79651927947998 C11.192214965820312 10.354609489440918 11.884209632873535 10.2258882522583 12.222063064575195 9.940572738647461 L12.222063064575195 9.940572738647461"></path>
<path fill="none" stroke="black" stroke-width=".3" stroke-opacity="1.0"  filling="0" d="M12.072607040405273 14.33778190612793 L12.072607040405273 14.33778190612793 C12.68121337890625 14.672085762023926 13.247406005859375 15.083791732788086 13.788415908813477 15.519071578979492 L13.788415908813477 15.519071578979492 C13.30415153503418 15.8893404006958 12.945182800292969 16.636817932128906 12.335623741149902 16.6298770904541 C9.417806625366211 16.596656799316406 11.826375961303711 14.619040489196777 12.072607040405273 14.33778190612793 L12.072607040405273 14.33778190612793"></path></svg>