<svg xmlns="http://www.w3.org/2000/svg" viewBox="0.0 0.0 24.0 24.0" height="200px" width="200px"><path fill="none" stroke="black" stroke-width=".3" stroke-opacity="1.0"  filling="0" d="M9.807868003845215 7.701258659362793 L9.807868003845215 7.701258659362793 C11.420323371887207 7.701258659362793 13.032773971557617 7.701258659362793 14.64522933959961 7.701258659362793 L14.64522933959961 7.701258659362793 C14.64522933959961 8.35926628112793 14.64522933959961 9.017273902893066 14.64522933959961 9.675281524658203 L14.64522933959961 9.675281524658203 C14.086697578430176 9.723583221435547 12.962019920349121 9.820963859558105 12.407333374023438 9.869048118591309 L12.407333374023438 9.869048118591309 C12.407333374023438 10.477721214294434 12.407333374023438 11.086394309997559 12.407333374023438 11.695067405700684 L12.407333374023438 11.695067405700684 C12.53182315826416 11.705406188964844 14.475213050842285 11.866917610168457 14.555323600769043 11.873579978942871 L14.555323600769043 11.873579978942871 C14.555323600769043 12.488419532775879 14.555323600769043 13.103260040283203 14.555323600769043 13.718099594116211 L14.555323600769043 13.718099594116211 C13.844310760498047 13.801466941833496 13.13329029083252 13.884767532348633 12.422263145446777 13.968016624450684 L12.422263145446777 13.968016624450684 C12.422263145446777 14.091653823852539 12.422263145446777 16.254423141479492 12.422263145446777 16.319835662841797 L12.422263145446777 16.319835662841797 C13.23162841796875 16.376405715942383 14.04099178314209 16.4329891204834 14.85035514831543 16.489585876464844 L14.85035514831543 16.489585876464844 C14.85035514831543 17.160036087036133 14.85035514831543 17.83048439025879 14.85035514831543 18.500934600830078 L14.85035514831543 18.500934600830078 C13.169524192810059 18.501171112060547 11.488698959350586 18.50124740600586 9.807868003845215 18.501258850097656 L9.807868003845215 18.501258850097656 C9.807868003845215 16.70125961303711 9.807868003845215 14.90125846862793 9.807868003845215 13.101259231567383 C9.807868003845215 11.30125904083252 9.807868003845215 9.501258850097656 9.807868003845215 7.701258659362793 L9.807868003845215 7.701258659362793"></path></svg>