<svg xmlns="http://www.w3.org/2000/svg" viewBox="0.0 0.0 24.0 24.0" height="200px" width="200px"><path fill="none" stroke="black" stroke-width=".3" stroke-opacity="1.0"  filling="0" d="M13.433633804321289 7.720106601715088 L13.433633804321289 7.720106601715088 C14.013195991516113 8.03590202331543 14.734346389770508 8.173734664916992 15.172321319580078 8.66749382019043 C16.49925994873047 10.163442611694336 16.293750762939453 11.525591850280762 15.446648597717285 12.594083786010742 C14.599544525146484 13.662575721740723 13.110847473144531 14.437410354614258 11.871406555175781 14.758727073669434 L11.871406555175781 14.758727073669434 C11.871216773986816 15.94705581665039 11.871112823486328 17.135385513305664 11.871087074279785 18.323713302612305 L11.871087074279785 18.323713302612305 C11.097930908203125 18.323713302612305 10.324774742126465 18.323713302612305 9.551618576049805 18.323713302612305 L9.551618576049805 18.323713302612305 C9.551618576049805 16.57448387145996 9.551618576049805 14.825252532958984 9.551618576049805 13.076021194458008 C9.551618576049805 11.326790809631348 9.551618576049805 9.577559471130371 9.551618576049805 7.828329563140869 L9.551618576049805 7.828329563140869 C10.830652236938477 7.62877082824707 12.145547866821289 7.5913190841674805 13.433633804321289 7.720106601715088 L13.433633804321289 7.720106601715088"></path>
<path fill="none" stroke="black" stroke-width=".3" stroke-opacity="1.0"  filling="0" d="M12.025146484375 9.622281074523926 L12.025146484375 9.622281074523926 C14.027595520019531 10.206687927246094 13.696044921875 11.722710609436035 12.025146484375 12.556074142456055 L12.025146484375 12.556074142456055 C12.025146484375 11.578143119812012 12.025146484375 10.600212097167969 12.025146484375 9.622281074523926 L12.025146484375 9.622281074523926"></path></svg>