<svg xmlns="http://www.w3.org/2000/svg" viewBox="0.0 0.0 24.0 24.0" height="200px" width="200px"><path fill="none" stroke="black" stroke-width=".3" stroke-opacity="1.0"  filling="0" d="M11.800000190734863 7.3648295402526855 L11.800000190734863 7.3648295402526855 C12.088462829589844 7.710093021392822 12.679028511047363 7.950918197631836 12.665387153625488 8.400619506835938 C12.659863471984863 8.582720756530762 10.747788429260254 10.778718948364258 10.824644088745117 8.245077133178711 C10.837923049926758 7.8073344230651855 11.474881172180176 7.65824556350708 11.800000190734863 7.3648295402526855 L11.800000190734863 7.3648295402526855"></path>
<path fill="none" stroke="black" stroke-width=".3" stroke-opacity="1.0"  filling="0" d="M10.783281326293945 9.882229804992676 L10.783281326293945 9.882229804992676 C11.410567283630371 9.882229804992676 12.037853240966797 9.882229804992676 12.665139198303223 9.882229804992676 L12.665139198303223 9.882229804992676 C12.681761741638184 11.80792236328125 13.104366302490234 14.296768188476562 12.630464553833008 16.172260284423828 C12.493664741516113 16.713653564453125 12.36771297454834 17.359560012817383 11.915603637695312 17.687307357788086 C11.35169792175293 18.096099853515625 10.559525489807129 18.005821228027344 9.881485939025879 18.165077209472656 L9.881485939025879 18.165077209472656 C9.836738586425781 17.7517032623291 9.7919921875 17.338327407836914 9.747244834899902 16.92495346069336 L9.747244834899902 16.92495346069336 C11.559598922729492 15.367034912109375 10.775672912597656 12.12386417388916 10.783281326293945 9.882229804992676 L10.783281326293945 9.882229804992676"></path></svg>