<svg xmlns="http://www.w3.org/2000/svg" viewBox="0.0 0.0 24.0 24.0" height="200px" width="200px"><path fill="none" stroke="black" stroke-width=".3" stroke-opacity="1.0"  filling="0" d="M5.2875657081604 8.983247756958008 C7.325563907623291 9.064541816711426 9.629981994628906 7.767048358917236 10.9975004196167 10.608332633972168 C11.61324691772461 10.262228012084961 12.16701602935791 9.874267578125 12.777127265930176 9.620725631713867 C16.98432159423828 7.871684551239014 20.239322662353516 9.337401390075684 20.710186004638672 13.824698448181152 C21.193126678466797 18.423877716064453 20.81723976135254 23.113204956054688 20.81723976135254 27.95626449584961 C18.798559188842773 27.956268310546875 16.990760803222656 27.956268310546875 14.35311508178711 27.956268310546875 C14.35311508178711 23.026275634765625 14.35311508178711 18.567955017089844 14.35311508178711 13.983263969421387 C11.443414688110352 13.960726737976074 11.363729476928711 15.570520401000977 11.359704971313477 17.218948364257812 C11.350851058959961 20.683223724365234 11.357290267944336 24.148303985595703 11.357290267944336 27.88543701171875 C9.239606857299805 27.88543701171875 7.430200099945068 27.88543701171875 5.2875657081604 27.88543701171875 C5.2875657081604 21.73522186279297 5.2875657081604 15.519006729125977 5.2875657081604 8.983247756958008"></path></svg>