<svg xmlns="http://www.w3.org/2000/svg" viewBox="0.0 0.0 24.0 24.0" height="200px" width="200px"><path fill="none" stroke="black" stroke-width=".3" stroke-opacity="1.0"  filling="0" d="M15.330039978027344 8.9420804977417 C16.09662628173828 9.058473587036133 16.827091217041016 9.418889999389648 17.806396484375 9.744790077209473 C17.75341796875 10.410235404968262 17.7686710357666 11.046783447265625 17.63622283935547 11.651224136352539 C17.496551513671875 12.283758163452148 17.213998794555664 12.884987831115723 16.991647720336914 13.507087707519531 C15.59814453125 13.606622695922852 14.319428443908691 13.6973295211792 13.039910316467285 13.788838386535645 C12.893014907836914 14.031255722045898 12.745315551757812 14.272871017456055 12.598420143127441 14.515290260314941 C13.351360321044922 15.205619812011719 14.03607177734375 15.99548625946045 14.869283676147461 16.56781768798828 C18.3418025970459 18.951862335205078 19.343582153320312 20.892013549804688 18.446155548095703 23.736011505126953 C17.602508544921875 26.40903091430664 14.627667427062988 28.22235107421875 11.079692840576172 28.025686264038086 C9.666926383972168 27.948625564575195 8.276634216308594 27.483858108520508 6.550006866455078 27.128257751464844 C6.9545722007751465 25.573410034179688 7.274050235748291 24.34446144104004 7.59112024307251 23.124343872070312 C9.500764846801758 23.124343872070312 11.165583610534668 23.124343872070312 12.830403327941895 23.124343872070312 C12.968469619750977 22.884334564208984 13.105732917785645 22.644325256347656 13.243799209594727 22.404315948486328 C12.441089630126953 21.715591430664062 11.7009916305542 20.931344985961914 10.823630332946777 20.354999542236328 C7.09584903717041 17.90513038635254 6.177549839019775 15.964181900024414 7.411314010620117 12.900239944458008 C8.564003944396973 10.037778854370117 11.774840354919434 8.403463363647461 15.330039978027344 8.9420804977417"></path></svg>