<svg xmlns="http://www.w3.org/2000/svg" viewBox="0.0 0.0 24.0 24.0" height="200px" width="200px"><path fill="none" stroke="black" stroke-width=".3" stroke-opacity="1.0"  filling="0" d="M16.5987491607666 5.515732288360596 C18.615909576416016 7.3016438484191895 18.465045928955078 9.739359855651855 16.137418746948242 12.975085258483887 C18.890262603759766 16.140911102294922 19.19723129272461 19.501873016357422 16.93368148803711 21.697856903076172 C14.768569946289062 23.798309326171875 10.648042678833008 23.93694496154785 8.355366706848145 21.986186981201172 C5.953182220458984 19.942819595336914 6.163460731506348 16.850383758544922 8.947175979614258 13.277979850769043 C6.691195487976074 10.001480102539062 6.64401388168335 7.3866868019104 8.80854320526123 5.557672023773193 C10.985886573791504 3.718754768371582 14.54664134979248 3.698948860168457 16.5987491607666 5.515732288360596"></path>
<path fill="none" stroke="black" stroke-width=".3" stroke-opacity="1.0"  filling="0" d="M12.786359786987305 7.112917423248291 C10.816965103149414 8.823687553405762 10.837934494018555 9.478404998779297 13.090418815612793 11.601576805114746 C14.073659896850586 9.796443939208984 14.45810317993164 8.383325576782227 12.786359786987305 7.112917423248291"></path>
<path fill="none" stroke="black" stroke-width=".3" stroke-opacity="1.0"  filling="0" d="M12.345415115356445 14.991662979125977 C10.247873306274414 17.64606475830078 10.540864944458008 19.36382484436035 13.123038291931152 20.209598541259766 C14.698671340942383 17.837121963500977 14.62469482421875 17.204538345336914 12.345415115356445 14.991662979125977"></path></svg>