<svg xmlns="http://www.w3.org/2000/svg" viewBox="0.0 0.0 24.0 24.0" height="200px" width="200px"><path fill="none" stroke="black" stroke-width=".3" stroke-opacity="1.0"  filling="0" d="M14.586795806884766 8.35260009765625 L14.586795806884766 8.35260009765625 C15.724466323852539 10.118311882019043 15.31148910522461 10.721120834350586 14.327298164367676 12.54848575592041 L14.327298164367676 12.54848575592041 C15.056989669799805 13.749135971069336 15.880130767822266 14.513002395629883 15.569067001342773 16.029705047607422 C15.26662826538086 17.504356384277344 13.835155487060547 18.32122039794922 12.384857177734375 18.39265251159668 C10.934557914733887 18.464082717895508 9.465433120727539 17.790077209472656 9.087688446044922 16.282991409301758 C8.722566604614258 14.826262474060059 9.6237154006958 13.88029956817627 10.28278636932373 12.718863487243652 L10.28278636932373 12.718863487243652 C9.755485534667969 11.660055160522461 9.027742385864258 10.814740180969238 9.401893615722656 9.549760818481445 C10.133077621459961 7.0776801109313965 12.906957626342773 7.525516033172607 14.586795806884766 8.35260009765625 L14.586795806884766 8.35260009765625"></path>
<path fill="none" stroke="black" stroke-width=".3" stroke-opacity="1.0"  filling="0" d="M12.442327499389648 9.251016616821289 L12.442327499389648 9.251016616821289 C12.173981666564941 9.642831802368164 11.605195045471191 9.952649116516113 11.637290954589844 10.426461219787598 C11.674810409545898 10.98033618927002 12.288003921508789 11.326078414916992 12.613360404968262 11.775887489318848 L12.613360404968262 11.775887489318848 C12.888507843017578 10.978469848632812 12.85534381866455 9.986542701721191 12.442327499389648 9.251016616821289 L12.442327499389648 9.251016616821289"></path>
<path fill="none" stroke="black" stroke-width=".3" stroke-opacity="1.0"  filling="0" d="M12.194295883178711 13.682809829711914 L12.194295883178711 13.682809829711914 C11.938155174255371 14.299160957336426 11.32749080657959 14.871698379516602 11.425874710083008 15.531862258911133 C11.505609512329102 16.066890716552734 12.229763984680176 16.25588607788086 12.631709098815918 16.61789894104004 L12.631709098815918 16.61789894104004 C12.829855918884277 16.117494583129883 13.30548095703125 15.649015426635742 13.22614860534668 15.11668872833252 C13.139350891113281 14.534268379211426 12.538247108459473 14.16076946258545 12.194295883178711 13.682809829711914 L12.194295883178711 13.682809829711914"></path></svg>