<svg xmlns="http://www.w3.org/2000/svg" viewBox="0.0 0.0 24.0 24.0" height="200px" width="200px"><path fill="none" stroke="black" stroke-width=".3" stroke-opacity="1.0"  filling="0" d="M11.809676170349121 8.068429946899414 C12.090414047241211 9.564598083496094 12.297664642333984 10.66690731048584 12.511521339416504 11.803895950317383 C15.01091480255127 11.444716453552246 16.655710220336914 6.859604835510254 19.569604873657227 10.368829727172852 C21.121095657348633 12.237388610839844 19.3706111907959 13.562637329101562 17.9916934967041 14.947336196899414 C17.337738037109375 14.738433837890625 16.725069046020508 14.537788391113281 16.109922409057617 14.346226692199707 C13.459425926208496 13.522177696228027 12.457853317260742 14.02090072631836 12.238215446472168 16.67965316772461 C12.03757095336914 19.112993240356445 12.195280075073242 21.576881408691406 12.195280075073242 24.241413116455078 C13.557683944702148 24.68811798095703 14.731829643249512 25.072893142700195 15.906801223754883 25.457672119140625 C15.896891593933105 25.79372787475586 15.88615894317627 26.130615234375 15.876249313354492 26.4666748046875 C12.620512962341309 27.9966983795166 9.069177627563477 26.784568786621094 5.546741962432861 27.216411590576172 C7.506953239440918 21.9542236328125 8.356598854064941 17.082595825195312 5.05792760848999 11.694903373718262 C7.277409076690674 10.502592086791992 9.387898445129395 9.36890697479248 11.809676170349121 8.068429946899414"></path></svg>