<svg xmlns="http://www.w3.org/2000/svg" viewBox="0.0 0.0 24.0 24.0" height="200px" width="200px"><path fill="none" stroke="black" stroke-width=".3" stroke-opacity="1.0"  filling="0" d="M11.919638633728027 7.706502437591553 L11.919638633728027 7.706502437591553 C12.615884780883789 7.706502437591553 13.312129974365234 7.706502437591553 14.008376121520996 7.706502437591553 L14.008376121520996 7.706502437591553 C13.897665023803711 9.92214298248291 13.7870512008667 12.137788772583008 13.676473617553711 14.353436470031738 L13.676473617553711 14.353436470031738 C13.713140487670898 14.365165710449219 13.749807357788086 14.376893997192383 13.786474227905273 14.388623237609863 L13.786474227905273 14.388623237609863 C14.433920860290527 12.165060043334961 15.081268310546875 9.94146728515625 15.728754043579102 7.717914581298828 L15.728754043579102 7.717914581298828 C16.069150924682617 7.717914581298828 17.673137664794922 7.717914581298828 17.971874237060547 7.717914581298828 L17.971874237060547 7.717914581298828 C17.36724853515625 9.486322402954102 16.762632369995117 11.254732131958008 16.158004760742188 13.023139953613281 C15.553378105163574 14.791547775268555 14.948741912841797 16.559951782226562 14.34408187866211 18.328346252441406 L14.34408187866211 18.328346252441406 C14.33228874206543 18.328346252441406 11.89696216583252 18.328346252441406 11.896180152893066 18.328346252441406 L11.896180152893066 18.328346252441406 C11.896180152893066 16.474407196044922 11.896180152893066 14.620455741882324 11.896180152893066 12.766515731811523 L11.896180152893066 12.766515731811523 C11.11872386932373 14.626625061035156 10.34141731262207 16.48679542541504 9.564302444458008 18.347047805786133 L9.564302444458008 18.347047805786133 C8.76672077178955 18.347047805786133 7.969139575958252 18.347047805786133 7.171557903289795 18.347047805786133 L7.171557903289795 18.347047805786133 C7.245647430419922 16.57436180114746 7.319783687591553 14.801677703857422 7.393923759460449 13.028993606567383 C7.468064308166504 11.256309509277344 7.542208671569824 9.483625411987305 7.616313934326172 7.710940361022949 L7.616313934326172 7.710940361022949 C8.419495582580566 7.710940361022949 9.222677230834961 7.710940361022949 10.025858879089355 7.710940361022949 L10.025858879089355 7.710940361022949 C9.825428009033203 9.760159492492676 9.624902725219727 11.809370994567871 9.424503326416016 13.858592987060547 L9.424503326416016 13.858592987060547 C9.50364875793457 13.88162899017334 9.582793235778809 13.904664039611816 9.661938667297363 13.92770004272461 L9.661938667297363 13.92770004272461 C10.414541244506836 11.853981018066406 11.167091369628906 9.780241012573242 11.919638633728027 7.706502437591553 L11.919638633728027 7.706502437591553"></path></svg>