<svg xmlns="http://www.w3.org/2000/svg" viewBox="0.0 0.0 24.0 24.0" height="200px" width="200px"><path fill="none" stroke="black" stroke-width=".3" stroke-opacity="1.0"  filling="0" d="M3.8431568145751953 10.76978588104248 C5.573599815368652 10.76978588104248 6.903561115264893 10.76978588104248 8.758781433105469 10.76978588104248 C8.758781433105469 13.709895133972168 8.75056266784668 16.52149200439453 8.762516975402832 19.33308982849121 C8.767000198364258 20.448612213134766 8.761022567749023 21.569366455078125 8.858154296875 22.678913116455078 C9.022531509399414 24.55356216430664 9.667338371276855 26.098703384399414 11.870739936828613 26.27130126953125 C13.805906295776367 26.422229766845703 15.735844612121582 24.916683197021484 15.942062377929688 22.73196029663086 C16.186386108398438 20.146011352539062 16.085519790649414 17.526437759399414 16.121383666992188 14.92105770111084 C16.138568878173828 13.691217422485352 16.124370574951172 12.46137809753418 16.124370574951172 10.925945281982422 C17.807743072509766 10.925945281982422 19.322254180908203 10.925945281982422 21.0728702545166 10.925945281982422 C21.0728702545166 17.154346466064453 21.0728702545166 23.41263198852539 21.0728702545166 29.856964111328125 C19.631580352783203 29.856964111328125 18.312828063964844 29.856964111328125 16.967178344726562 29.856964111328125 C16.75199317932129 29.30181884765625 16.537555694580078 28.749662399291992 16.29397964477539 28.122039794921875 C15.936083793640137 28.244577407836914 15.604341506958008 28.370847702026367 15.264379501342773 28.472463607788086 C13.510026931762695 28.9954833984375 11.772858619689941 29.859210968017578 9.993849754333496 29.957834243774414 C6.568827152252197 30.146869659423828 4.1338043212890625 28.1668701171875 3.914883613586426 24.769493103027344 C3.621994972229004 20.220726013183594 3.8431568145751953 15.63908576965332 3.8431568145751953 10.76978588104248"></path></svg>