<svg xmlns="http://www.w3.org/2000/svg" viewBox="0.0 0.0 24.0 24.0" height="200px" width="200px"><path fill="none" stroke="black" stroke-width=".3" stroke-opacity="1.0"  filling="0" d="M12.965818405151367 9.096452713012695 L12.965818405151367 9.096452713012695 C13.71291732788086 9.096452713012695 14.460017204284668 9.096452713012695 15.20711612701416 9.096452713012695 L15.20711612701416 9.096452713012695 C14.305437088012695 11.074504852294922 13.58178424835205 13.019508361816406 12.672029495239258 14.847497940063477 C11.762275695800781 16.675487518310547 10.66641902923584 18.386459350585938 9.020332336425781 19.896451950073242 L9.020332336425781 19.896451950073242 C8.716296195983887 19.302690505981445 8.412226676940918 18.708946228027344 8.108102798461914 18.1152286529541 L8.108102798461914 18.1152286529541 C8.493796348571777 17.759685516357422 9.666287422180176 16.697608947753906 9.764602661132812 16.467140197753906 C10.522671699523926 14.690093994140625 9.355010032653809 11.020092964172363 9.158872604370117 9.149433135986328 L9.158872604370117 9.149433135986328 C9.909727096557617 9.149433135986328 10.6605806350708 9.149433135986328 11.4114351272583 9.149433135986328 L11.4114351272583 9.149433135986328 C11.4114351272583 9.243597030639648 11.4114351272583 13.036688804626465 11.4114351272583 13.099790573120117 L11.4114351272583 13.099790573120117 C11.501358985900879 13.11400032043457 11.591282844543457 13.128209114074707 11.681206703186035 13.14241886138916 L11.681206703186035 13.14241886138916 C12.109489440917969 11.793787002563477 12.537665367126465 10.445124626159668 12.965818405151367 9.096452713012695 L12.965818405151367 9.096452713012695"></path></svg>