<svg xmlns="http://www.w3.org/2000/svg" viewBox="0.0 0.0 24.0 24.0" height="200px" width="200px"><path fill="none" stroke="black" stroke-width=".3" stroke-opacity="1.0"  filling="0" d="M11.241636276245117 7.675551891326904 L11.241636276245117 7.675551891326904 C12.753271102905273 7.675551891326904 14.264911651611328 7.675551891326904 15.7765474319458 7.675551891326904 L15.7765474319458 7.675551891326904 C15.762932777404785 7.748698711395264 15.414911270141602 9.61893081665039 15.405415534973145 9.66996955871582 L15.405415534973145 9.66996955871582 C14.592225074768066 9.738700866699219 13.779032707214355 9.807415962219238 12.965839385986328 9.876117706298828 L12.965839385986328 9.876117706298828 C12.817895889282227 10.286531448364258 12.669951438903809 10.696945190429688 12.522007942199707 11.107358932495117 L12.522007942199707 11.107358932495117 C13.396880149841309 12.133917808532715 14.57406997680664 12.202140808105469 14.803203582763672 13.755972862243652 C15.088577270507812 15.691186904907227 14.284565925598145 16.912151336669922 13.048418045043945 17.585996627807617 C11.812270164489746 18.259841918945312 10.143985748291016 18.386566162109375 8.700811386108398 18.13330078125 L8.700811386108398 18.13330078125 C8.86048412322998 17.53300666809082 9.020157814025879 16.932710647583008 9.179830551147461 16.332416534423828 L9.179830551147461 16.332416534423828 C9.512155532836914 16.300338745117188 14.43604564666748 15.670052528381348 11.9568452835083 13.772958755493164 C11.398294448852539 13.345553398132324 10.6240234375 13.323290824890137 9.957612991333008 13.098457336425781 L9.957612991333008 13.098457336425781 C10.38576602935791 11.290858268737793 10.813760757446289 9.483217239379883 11.241636276245117 7.675551891326904 L11.241636276245117 7.675551891326904"></path></svg>