<svg xmlns="http://www.w3.org/2000/svg" viewBox="0.0 0.0 24.0 24.0" height="200px" width="200px"><path fill="none" stroke="black" stroke-width=".3" stroke-opacity="1.0"  filling="0" d="M18.633148193359375 4.263423919677734 C18.532516479492188 5.401956081390381 18.450023651123047 6.331620693206787 18.3640193939209 7.298729419708252 C17.275802612304688 7.7357707023620605 16.22970962524414 8.008410453796387 15.351531982421875 8.550763130187988 C14.471597671508789 9.09428596496582 13.758406639099121 9.908108711242676 13.203767776489258 10.399560928344727 C14.650627136230469 10.832507133483887 16.327417373657227 10.919681549072266 17.422653198242188 11.762757301330566 C18.911052703857422 12.908309936523438 18.795795440673828 14.915074348449707 18.486297607421875 16.653879165649414 C17.969688415527344 19.55462074279785 16.705368041992188 22.016563415527344 13.72330379486084 23.12116241455078 C10.850646018981934 24.18480682373047 8.037665367126465 22.6964054107666 7.514034748077393 19.710247039794922 C6.109882354736328 11.711271286010742 11.338586807250977 4.460590362548828 18.633148193359375 4.263423919677734"></path>
<path fill="none" stroke="black" stroke-width=".3" stroke-opacity="1.0"  filling="0" d="M13.479330062866211 13.888290405273438 C11.087594985961914 15.192977905273438 10.623055458068848 17.096773147583008 12.049437522888184 20.316957473754883 C14.459310531616211 18.55240821838379 14.92326545715332 16.203380584716797 13.479330062866211 13.888290405273438"></path></svg>