<svg xmlns="http://www.w3.org/2000/svg" viewBox="0.0 0.0 24.0 24.0" height="200px" width="200px"><path fill="none" stroke="black" stroke-width=".3" stroke-opacity="1.0"  filling="0" d="M11.163599014282227 8.482964515686035 L11.163599014282227 8.482964515686035 C13.10878849029541 7.786201477050781 17.35249137878418 8.289215087890625 15.461284637451172 11.492958068847656 C15.123443603515625 12.065268516540527 14.590798377990723 12.497426986694336 14.155555725097656 12.999661445617676 L14.155555725097656 12.999661445617676 C14.42875862121582 13.481256484985352 14.834172248840332 13.909008026123047 14.975163459777832 14.444446563720703 C15.687889099121094 17.151138305664062 13.542023658752441 18.470863342285156 11.548410415649414 18.486452102661133 C9.554798126220703 18.50204086303711 7.713437080383301 17.21349334716797 9.035171508789062 14.703634262084961 C9.387833595275879 14.03395938873291 9.952958106994629 13.499886512756348 10.411850929260254 12.898012161254883 L10.411850929260254 12.898012161254883 C9.746410369873047 10.739824295043945 9.583984375 10.117781639099121 11.163599014282227 8.482964515686035 L11.163599014282227 8.482964515686035"></path>
<path fill="none" stroke="black" stroke-width=".3" stroke-opacity="1.0"  filling="0" d="M13.195279121398926 9.625621795654297 L13.195279121398926 9.625621795654297 C13.811745643615723 10.597723007202148 13.260774612426758 11.311558723449707 12.90013599395752 12.359042167663574 L12.90013599395752 12.359042167663574 C12.069097518920898 11.113224029541016 11.436198234558105 10.169767379760742 13.195279121398926 9.625621795654297 L13.195279121398926 9.625621795654297"></path>
<path fill="none" stroke="black" stroke-width=".3" stroke-opacity="1.0"  filling="0" d="M12.055563926696777 14.047532081604004 L12.055563926696777 14.047532081604004 C13.155784606933594 15.614328384399414 12.92155647277832 16.004274368286133 11.297606468200684 16.972484588623047 L11.297606468200684 16.972484588623047 C11.19689655303955 16.416967391967773 10.85385513305664 15.852453231811523 10.995477676391602 15.305932998657227 C11.133060455322266 14.775001525878906 11.702201843261719 14.466999053955078 12.055563926696777 14.047532081604004 L12.055563926696777 14.047532081604004"></path></svg>