<svg xmlns="http://www.w3.org/2000/svg" viewBox="0.0 0.0 24.0 24.0" height="200px" width="200px"><path fill="none" stroke="black" stroke-width=".3" stroke-opacity="1.0"  filling="0" d="M13.802441596984863 7.605710506439209 L13.802441596984863 7.605710506439209 C15.043956756591797 7.643351078033447 16.28452491760254 7.723684310913086 17.521690368652344 7.834122180938721 L17.521690368652344 7.834122180938721 C17.2513370513916 8.610997200012207 16.980981826782227 9.387871742248535 16.71062469482422 10.164745330810547 L16.71062469482422 10.164745330810547 C14.899456977844238 9.923234939575195 12.868724822998047 9.51920223236084 11.43213939666748 11.034770965576172 C10.341070175170898 12.185827255249023 9.62345027923584 14.939416885375977 11.598630905151367 15.743849754333496 C12.272248268127441 16.0181941986084 13.049785614013672 15.84510612487793 13.775362968444824 15.895734786987305 L13.775362968444824 15.895734786987305 C13.897161483764648 15.38772964477539 14.018959045410156 14.87972354888916 14.14075756072998 14.371718406677246 L14.14075756072998 14.371718406677246 C13.70018196105957 14.267653465270996 13.259605407714844 14.163589477539062 12.819029808044434 14.059524536132812 L12.819029808044434 14.059524536132812 C12.928403854370117 13.41028881072998 13.0377779006958 12.761052131652832 13.147151947021484 12.11181640625 L13.147151947021484 12.11181640625 C14.49521255493164 12.11181640625 15.843276977539062 12.11181640625 17.19133758544922 12.11181640625 L17.19133758544922 12.11181640625 C16.845542907714844 13.974691390991211 16.49964141845703 15.837545394897461 16.153770446777344 17.700407028198242 L16.153770446777344 17.700407028198242 C14.294147491455078 18.212873458862305 12.428457260131836 18.74769401550293 10.504972457885742 18.089374542236328 C8.755696296691895 17.490678787231445 7.784924507141113 16.16766357421875 7.50996732711792 14.65477180480957 C7.235010147094727 13.141879081726074 7.655868053436279 11.439108848571777 8.689851760864258 10.080901145935059 C10.021381378173828 8.331847190856934 11.774199485778809 7.975314140319824 13.802441596984863 7.605710506439209 L13.802441596984863 7.605710506439209"></path></svg>