<svg xmlns="http://www.w3.org/2000/svg" viewBox="0.0 0.0 24.0 24.0" height="200px" width="200px"><path fill="none" stroke="black" stroke-width=".3" stroke-opacity="1.0"  filling="0" d="M16.237760543823242 5.750651836395264 C18.013355255126953 5.750651836395264 19.67935562133789 5.750651836395264 21.59079360961914 5.750651836395264 C20.887184143066406 10.922256469726562 20.200153350830078 15.967691421508789 19.49102210998535 21.181198120117188 C18.088411331176758 21.181198120117188 16.972679138183594 21.181198120117188 15.701306343078613 21.181198120117188 C16.217498779296875 17.762165069580078 16.711589813232422 14.490484237670898 17.205219268798828 11.218803405761719 C17.08411407470703 11.18795108795166 16.962549209594727 11.157560348510742 16.841442108154297 11.126708030700684 C15.337068557739258 14.358327865600586 13.832693099975586 17.589946746826172 12.314504623413086 20.851497650146484 C11.308364868164062 20.851497650146484 10.41227912902832 20.851497650146484 9.206293106079102 20.851497650146484 C9.021641731262207 17.398387908935547 8.840214729309082 13.999616622924805 8.65878677368164 10.600845336914062 C8.574979782104492 10.580123901367188 8.490713119506836 10.558941841125488 8.406906127929688 10.538220405578613 C7.589101314544678 14.070530891418457 6.770836353302002 17.602840423583984 5.936453342437744 21.206064224243164 C4.7746734619140625 21.206064224243164 3.7257089614868164 21.206064224243164 2.3907899856567383 21.206064224243164 C3.6594018936157227 16.030315399169922 4.902225494384766 10.959094047546387 6.171757221221924 5.780582904815674 C7.897621154785156 5.780582904815674 9.558096885681152 5.780582904815674 11.445588111877441 5.780582904815674 C11.600308418273926 8.708288192749023 11.755027770996094 11.644282341003418 11.910207748413086 14.58073616027832 C12.039602279663086 14.597774505615234 12.16899585723877 14.614811897277832 12.298389434814453 14.632309913635254 C13.61304759979248 11.66822624206543 14.927705764770508 8.704144477844238 16.237760543823242 5.750651836395264"></path></svg>