<svg xmlns="http://www.w3.org/2000/svg" viewBox="0.0 0.0 24.0 24.0" height="200px" width="200px"><path fill="none" stroke="black" stroke-width=".3" stroke-opacity="1.0"  filling="0" d="M14.383740425109863 8.4847412109375 L14.383740425109863 8.4847412109375 C15.387434005737305 8.4847412109375 16.391128540039062 8.4847412109375 17.394821166992188 8.4847412109375 L17.394821166992188 8.4847412109375 C17.197978973388672 9.931356430053711 17.0010986328125 11.377965927124023 16.804231643676758 12.824578285217285 C16.607362747192383 14.271190643310547 16.410503387451172 15.717803955078125 16.213699340820312 17.164424896240234 L16.213699340820312 17.164424896240234 C15.503128051757812 17.164424896240234 14.792555809020996 17.164424896240234 14.081984519958496 17.164424896240234 L14.081984519958496 17.164424896240234 C14.364013671875 15.296481132507324 14.646023750305176 13.42853832244873 14.927935600280762 11.560577392578125 L14.927935600280762 11.560577392578125 C14.85972785949707 11.543309211730957 14.791519165039062 11.526041984558105 14.723311424255371 11.508773803710938 L14.723311424255371 11.508773803710938 C13.874493598937988 13.33216381072998 13.02568531036377 15.155559539794922 12.176908493041992 16.978967666625977 L12.176908493041992 16.978967666625977 C11.59411907196045 16.978967666625977 11.01132869720459 16.978967666625977 10.428539276123047 16.978967666625977 L10.428539276123047 16.978967666625977 C10.32581615447998 15.056973457336426 10.22317123413086 13.13497543334961 10.120567321777344 11.21297550201416 L10.120567321777344 11.21297550201416 C10.073339462280273 11.20123291015625 10.02611255645752 11.189491271972656 9.97888469696045 11.177748680114746 L9.97888469696045 11.177748680114746 C9.515731811523438 13.17798137664795 9.052470207214355 15.178193092346191 8.589255332946777 17.17841148376465 L8.589255332946777 17.17841148376465 C7.92444372177124 17.17841148376465 7.259631633758545 17.17841148376465 6.594820022583008 17.17841148376465 L6.594820022583008 17.17841148376465 C6.9492716789245605 15.732269287109375 7.303718090057373 14.286126136779785 7.658177375793457 12.839985847473145 C8.0126371383667 11.393845558166504 8.367109298706055 9.947708129882812 8.721613883972168 8.501578330993652 L8.721613883972168 8.501578330993652 C9.710456848144531 8.501578330993652 10.699299812316895 8.501578330993652 11.688142776489258 8.501578330993652 L11.688142776489258 8.501578330993652 C11.775278091430664 10.151607513427734 11.862358093261719 11.801633834838867 11.949492454528809 13.451663970947266 L11.949492454528809 13.451663970947266 C12.022275924682617 13.461334228515625 12.095060348510742 13.471003532409668 12.16784381866455 13.480673789978027 L12.16784381866455 13.480673789978027 C12.906462669372559 11.815357208251953 13.645092010498047 10.150044441223145 14.383740425109863 8.4847412109375 L14.383740425109863 8.4847412109375"></path></svg>