<svg xmlns="http://www.w3.org/2000/svg" viewBox="0.0 0.0 24.0 24.0" height="200px" width="200px"><path fill="none" stroke="black" stroke-width=".3" stroke-opacity="1.0"  filling="0" d="M14.178696632385254 11.310302734375 L14.178696632385254 11.310302734375 C15.235590934753418 11.310302734375 16.2924861907959 11.310302734375 17.349380493164062 11.310302734375 L17.349380493164062 11.310302734375 C16.194644927978516 12.968374252319336 15.039923667907715 14.626458168029785 13.885183334350586 16.28452491760254 L13.885183334350586 16.28452491760254 C15.129158020019531 18.101686477661133 16.37314796447754 19.91883659362793 17.617176055908203 21.735960006713867 L17.617176055908203 21.735960006713867 C16.514968872070312 21.735960006713867 15.412760734558105 21.735960006713867 14.310553550720215 21.735960006713867 L14.310553550720215 21.735960006713867 C13.589498519897461 20.714305877685547 12.868435859680176 19.692655563354492 12.147369384765625 18.671009063720703 L12.147369384765625 18.671009063720703 C11.436372756958008 19.7102108001709 10.725380897521973 20.74941635131836 10.01439380645752 21.788623809814453 L10.01439380645752 21.788623809814453 C8.948654174804688 21.788883209228516 7.882915019989014 21.788999557495117 6.817175388336182 21.789031982421875 L6.817175388336182 21.789031982421875 C8.040955543518066 19.997642517089844 9.264564514160156 18.206138610839844 10.488343238830566 16.41474723815918 L10.488343238830566 16.41474723815918 C9.323847770690918 14.727530479431152 8.159280776977539 13.040360450744629 6.994753360748291 11.353166580200195 L6.994753360748291 11.353166580200195 C8.090837478637695 11.353166580200195 9.186922073364258 11.353166580200195 10.283005714416504 11.353166580200195 L10.283005714416504 11.353166580200195 C10.909564971923828 12.24300765991211 11.536194801330566 13.132798194885254 12.162881851196289 14.022549629211426 L12.162881851196289 14.022549629211426 C12.834856033325195 13.118494033813477 13.506795883178711 12.214412689208984 14.178696632385254 11.310302734375 L14.178696632385254 11.310302734375"></path></svg>