<svg xmlns="http://www.w3.org/2000/svg" viewBox="0.0 0.0 24.0 24.0" height="200px" width="200px"><path fill="none" stroke="black" stroke-width=".3" stroke-opacity="1.0"  filling="0" d="M9.822979927062988 7.270156383514404 L9.822979927062988 7.270156383514404 C9.873306274414062 7.270156383514404 12.340996742248535 7.270156383514404 12.350729942321777 7.270156383514404 L12.350729942321777 7.270156383514404 C12.143777847290039 8.70195484161377 11.936789512634277 10.133743286132812 11.729809761047363 11.56553840637207 L11.729809761047363 11.56553840637207 C12.10698127746582 11.410029411315918 12.46297550201416 11.18709659576416 12.86132526397705 11.09901237487793 C15.096635818481445 10.604734420776367 15.725552558898926 11.75072956085205 15.735569953918457 13.317663192749023 C15.745586395263672 14.884596824645996 15.136703491210938 16.87247085571289 14.896411895751953 18.06195068359375 L14.896411895751953 18.06195068359375 C14.892847061157227 18.06195068359375 12.426271438598633 18.06195068359375 12.401789665222168 18.06195068359375 L12.401789665222168 18.06195068359375 C12.637412071228027 16.312480926513672 12.98893928527832 14.765957832336426 12.959492683410645 12.994900703430176 L12.959492683410645 12.994900703430176 C10.765880584716797 14.051910400390625 10.845130920410156 15.809073448181152 10.384330749511719 18.07015609741211 L10.384330749511719 18.07015609741211 C10.245861053466797 18.07015609741211 7.899433612823486 18.07015609741211 7.827707767486572 18.07015609741211 L7.827707767486572 18.07015609741211 C8.160229682922363 16.270151138305664 8.492743492126465 14.470146179199219 8.825279235839844 12.670144081115723 C9.157814025878906 10.870142936706543 9.490371704101562 9.070145606994629 9.822979927062988 7.270156383514404 L9.822979927062988 7.270156383514404"></path></svg>