<svg xmlns="http://www.w3.org/2000/svg" viewBox="0.0 0.0 24.0 24.0" height="200px" width="200px"><path fill="none" stroke="black" stroke-width=".3" stroke-opacity="1.0"  filling="0" d="M14.265922546386719 10.517903327941895 L14.265922546386719 10.517903327941895 C15.413178443908691 10.517903327941895 16.560434341430664 10.517903327941895 17.70768928527832 10.517903327941895 L17.70768928527832 10.517903327941895 C17.413658142089844 12.087125778198242 17.119644165039062 13.656352043151855 16.825660705566406 15.22558307647705 C16.53167724609375 16.794815063476562 16.23772621154785 18.364051818847656 15.943819046020508 19.933298110961914 L15.943819046020508 19.933298110961914 C15.184432983398438 20.046419143676758 14.411574363708496 20.45452880859375 13.66565990447998 20.272663116455078 C13.147860527038574 20.14641571044922 12.933799743652344 19.497678756713867 12.567869186401367 19.110187530517578 L12.567869186401367 19.110187530517578 C12.056794166564941 19.390880584716797 11.579489707946777 19.74458885192871 11.034645080566406 19.952266693115234 C9.415345191955566 20.56949234008789 7.549004554748535 20.232213973999023 6.982053279876709 18.346006393432617 C6.664928436279297 17.29095458984375 6.865338325500488 15.861832618713379 7.196366310119629 14.432931900024414 C7.527395248413086 13.004032135009766 7.989042282104492 11.57535457611084 8.1943941116333 10.521195411682129 L8.1943941116333 10.521195411682129 C9.320122718811035 10.521195411682129 10.445850372314453 10.521195411682129 11.571578979492188 10.521195411682129 L11.571578979492188 10.521195411682129 C11.2283935546875 12.81049633026123 10.885150909423828 15.099797248840332 10.541969299316406 17.389097213745117 L10.541969299316406 17.389097213745117 C11.168404579162598 17.260549545288086 11.896053314208984 17.368268966674805 12.421274185180664 17.003456115722656 C12.85084342956543 16.705081939697266 12.940671920776367 16.0898494720459 13.119901657104492 15.598489761352539 C13.701252937316895 14.00471019744873 13.916275978088379 12.173041343688965 14.265922546386719 10.517903327941895 L14.265922546386719 10.517903327941895"></path></svg>