<svg xmlns="http://www.w3.org/2000/svg" viewBox="0.0 0.0 24.0 24.0" height="200px" width="200px"><path fill="none" stroke="black" stroke-width=".3" stroke-opacity="1.0"  filling="0" d="M7.466383457183838 10.640668869018555 L7.466383457183838 10.640668869018555 C7.542510509490967 10.640668869018555 10.530107498168945 10.640668869018555 10.674943923950195 10.640668869018555 L10.674943923950195 10.640668869018555 C11.020994186401367 11.42267894744873 11.366964340209961 12.204724311828613 11.712881088256836 12.986793518066406 L11.712881088256836 12.986793518066406 C11.88077163696289 12.744741439819336 13.146880149841309 10.919589042663574 13.333670616149902 10.650359153747559 L13.333670616149902 10.650359153747559 C14.055952072143555 10.650359153747559 16.049402236938477 10.650359153747559 16.705171585083008 10.650359153747559 L16.705171585083008 10.650359153747559 C15.530903816223145 12.020917892456055 14.356569290161133 13.391424179077148 13.182215690612793 14.761909484863281 L13.182215690612793 14.761909484863281 C13.81387996673584 16.208629608154297 14.445505142211914 17.65537452697754 15.077203750610352 19.102079391479492 L15.077203750610352 19.102079391479492 C13.99237060546875 19.102079391479492 12.907537460327148 19.102079391479492 11.822704315185547 19.102079391479492 L11.822704315185547 19.102079391479492 C11.463088989257812 18.23330307006836 11.103471755981445 17.364526748657227 10.743853569030762 16.495752334594727 L10.743853569030762 16.495752334594727 C9.49122428894043 18.86834144592285 8.566526412963867 19.440305709838867 5.905170917510986 18.942729949951172 L5.905170917510986 18.942729949951172 C7.070697784423828 17.535076141357422 8.236299514770508 16.127487182617188 9.401927947998047 14.719919204711914 L9.401927947998047 14.719919204711914 C8.756734848022461 13.360177993774414 8.111526489257812 12.000433921813965 7.466383457183838 10.640668869018555 L7.466383457183838 10.640668869018555"></path></svg>