<svg xmlns="http://www.w3.org/2000/svg" viewBox="0.0 0.0 24.0 24.0" height="200px" width="200px"><path fill="none" stroke="black" stroke-width=".3" stroke-opacity="1.0"  filling="0" d="M15.216180801391602 8.40467643737793 L15.216180801391602 8.40467643737793 C16.402114868164062 9.574732780456543 16.850576400756836 11.316458702087402 16.682056427001953 13.04256820678711 C16.513534545898438 14.7686767578125 15.72803020477295 16.479169845581055 14.446027755737305 17.58675765991211 C13.109586715698242 18.741376876831055 10.717283248901367 19.22922134399414 9.348265647888184 17.805377960205078 C8.451010704040527 16.872190475463867 8.320291519165039 15.41409969329834 8.354515075683594 14.222575187683105 C8.409332275390625 12.314062118530273 9.151947021484375 10.49535846710205 10.367258071899414 9.335897445678711 C11.582569122314453 8.176435470581055 13.270576477050781 7.676217555999756 15.216180801391602 8.40467643737793 L15.216180801391602 8.40467643737793"></path>
<path fill="none" stroke="black" stroke-width=".3" stroke-opacity="1.0"  filling="0" d="M13.270875930786133 10.286356925964355 L13.270875930786133 10.286356925964355 C13.54680347442627 10.768278121948242 13.82273006439209 11.250200271606445 14.098657608032227 11.732121467590332 L14.098657608032227 11.732121467590332 C13.587301254272461 13.862943649291992 13.47302532196045 14.89487075805664 11.830657958984375 16.385908126831055 L11.830657958984375 16.385908126831055 C11.019447326660156 14.540925025939941 10.80388355255127 10.897658348083496 13.270875930786133 10.286356925964355 L13.270875930786133 10.286356925964355"></path></svg>