<svg xmlns="http://www.w3.org/2000/svg" viewBox="0.0 0.0 24.0 24.0" height="200px" width="200px"><path fill="none" stroke="black" stroke-width=".3" stroke-opacity="1.0"  filling="0" d="M17.135684967041016 4.832114219665527 C20.727191925048828 5.836645126342773 21.3751220703125 9.674983024597168 18.634469985961914 12.256620407104492 C18.28083610534668 12.589487075805664 17.857784271240234 12.847590446472168 17.28223991394043 13.278950691223145 C19.01717758178711 14.948025703430176 20.22997283935547 16.734582901000977 19.23434066772461 19.234338760375977 C18.149709701538086 21.957786560058594 15.897377014160156 23.107685089111328 13.292006492614746 23.534297943115234 C11.787287712097168 23.781129837036133 10.157966613769531 23.55031967163086 8.627140998840332 23.28746795654297 C6.624013900756836 22.943923950195312 5.202362537384033 21.732315063476562 4.790582180023193 19.66748046875 C4.387108325958252 17.643585205078125 5.123447895050049 15.978070259094238 6.737342357635498 14.708314895629883 C7.19658899307251 14.346969604492188 7.690250396728516 14.029531478881836 8.363101959228516 13.554262161254883 C5.77256441116333 9.641756057739258 6.844736099243164 6.027108192443848 11.089513778686523 4.838048458099365 C12.975159645080566 4.309972286224365 15.251225471496582 4.305225849151611 17.135684967041016 4.832114219665527"></path>
<path fill="none" stroke="black" stroke-width=".3" stroke-opacity="1.0"  filling="0" d="M13.718618392944336 7.936487674713135 C14.804437637329102 7.691437244415283 15.663599014282227 8.569584846496582 15.37048625946045 9.709991455078125 C15.164596557617188 10.512784957885742 14.37663745880127 11.166055679321289 13.51984977722168 12.333755493164062 C12.737229347229004 11.15122127532959 11.803306579589844 10.359701156616211 11.890527725219727 9.703463554382324 C11.98130989074707 9.018152236938477 12.974566459655762 8.104403495788574 13.718618392944336 7.936487674713135"></path>
<path fill="none" stroke="black" stroke-width=".3" stroke-opacity="1.0"  filling="0" d="M12.160499572753906 15.471948623657227 C13.606477737426758 15.987564086914062 14.651354789733887 16.923267364501953 14.050297737121582 18.487913131713867 C13.777953147888184 19.19696044921875 12.699849128723145 19.823528289794922 11.87984848022461 20.007465362548828 C11.414073944091797 20.111896514892578 10.378689765930176 19.353008270263672 10.211366653442383 18.798233032226562 C9.715331077575684 17.15704345703125 10.49083137512207 16.009517669677734 12.160499572753906 15.471948623657227"></path></svg>