<svg xmlns="http://www.w3.org/2000/svg" viewBox="0.0 0.0 24.0 24.0" height="200px" width="200px"><path fill="none" stroke="black" stroke-width=".3" stroke-opacity="1.0"  filling="0" d="M16.131641387939453 8.080363273620605 L16.131641387939453 8.080363273620605 C15.961408615112305 8.74726676940918 15.791163444519043 9.414166450500488 15.620906829833984 10.081063270568848 L15.620906829833984 10.081063270568848 C13.977067947387695 9.902227401733398 13.404863357543945 9.488822937011719 12.024641036987305 10.675641059875488 C10.868618965148926 11.669675827026367 10.866754531860352 14.623403549194336 12.144603729248047 15.488982200622559 C13.15042495727539 16.170297622680664 14.543672561645508 15.97769832611084 15.634987831115723 15.995798110961914 L15.634987831115723 15.995798110961914 C15.726297378540039 16.637737274169922 15.817606925964355 17.27967643737793 15.908916473388672 17.921615600585938 L15.908916473388672 17.921615600585938 C13.574158668518066 18.501373291015625 10.954195022583008 18.763896942138672 9.291120529174805 16.55357551574707 C8.14987564086914 15.036795616149902 7.956682205200195 13.061234474182129 8.517308235168457 11.355546951293945 C9.077933311462402 9.649858474731445 10.392377853393555 8.214043617248535 12.26640796661377 7.776755332946777 C13.932586669921875 7.387967586517334 14.492658615112305 7.714496612548828 16.131641387939453 8.080363273620605 L16.131641387939453 8.080363273620605"></path></svg>