<svg xmlns="http://www.w3.org/2000/svg" viewBox="0.0 0.0 24.0 24.0" height="200px" width="200px"><path fill="none" stroke="black" stroke-width=".3" stroke-opacity="1.0"  filling="0" d="M19.726642608642578 5.108325004577637 C19.417394638061523 6.333965301513672 19.14729881286621 7.40640115737915 18.838619232177734 8.631474494934082 C17.45693588256836 8.494157791137695 16.16774559020996 8.23314094543457 14.886495590209961 8.264917373657227 C11.471725463867188 8.34946346282959 9.749019622802734 10.400141716003418 9.707597732543945 14.000460624694824 C9.673551559448242 16.972637176513672 11.666353225708008 19.91190528869629 15.476618766784668 19.220783233642578 C15.526552200317383 18.327653884887695 15.581591606140137 17.351112365722656 15.641740798950195 16.284351348876953 C14.921109199523926 16.074403762817383 14.323041915893555 15.899637222290039 13.563258171081543 15.678339958190918 C13.563258171081543 14.601365089416504 13.563258171081543 13.515311241149902 13.563258171081543 12.042840957641602 C14.722509384155273 12.042840957641602 15.818209648132324 12.042840957641602 16.914478302001953 12.042840957641602 C17.929601669311523 12.042840957641602 18.945295333862305 12.042840957641602 20.110788345336914 12.042840957641602 C20.110788345336914 15.669828414916992 20.110788345336914 19.013103485107422 20.110788345336914 22.299636840820312 C14.185158729553223 24.38265609741211 8.76964282989502 23.38058090209961 6.243462085723877 19.819982528686523 C4.000426292419434 16.659420013427734 4.033336639404297 11.157655715942383 6.313255310058594 8.044755935668945 C9.005125045776367 4.370670795440674 14.260625839233398 3.1370859146118164 19.726642608642578 5.108325004577637"></path></svg>