<svg xmlns="http://www.w3.org/2000/svg" viewBox="0.0 0.0 24.0 24.0" height="200px" width="200px"><path fill="none" stroke="black" stroke-width=".3" stroke-opacity="1.0"  filling="0" d="M13.190958023071289 8.446307182312012 L13.190958023071289 8.446307182312012 C13.736108779907227 8.723877906799316 14.408702850341797 8.83207893371582 14.826409339904785 9.279019355773926 C15.28313159942627 9.767706871032715 15.389193534851074 10.492656707763672 15.670585632324219 11.099475860595703 L15.670585632324219 11.099475860595703 C15.120689392089844 11.203280448913574 14.570794105529785 11.307085037231445 14.02089786529541 11.410889625549316 L14.02089786529541 11.410889625549316 C12.189983367919922 9.333621978759766 11.23846435546875 10.792364120483398 10.896862030029297 12.990741729736328 L10.896862030029297 12.990741729736328 C11.864453315734863 12.555490493774414 12.396825790405273 12.099363327026367 13.496634483337402 12.371153831481934 C15.56294059753418 12.881790161132812 16.18123435974121 14.771343231201172 15.754130363464355 16.43424415588379 C15.327027320861816 18.097145080566406 13.85452651977539 19.533397674560547 11.739245414733887 19.13743019104004 C9.624971389770508 18.74165153503418 8.877853393554688 16.552692413330078 8.73497486114502 14.680978775024414 C8.608695983886719 13.026734352111816 8.823211669921875 11.47761058807373 9.519037246704102 10.337275505065918 C10.214862823486328 9.196941375732422 11.391998291015625 8.465394973754883 13.190958023071289 8.446307182312012 L13.190958023071289 8.446307182312012"></path>
<path fill="none" stroke="black" stroke-width=".3" stroke-opacity="1.0"  filling="0" d="M12.411672592163086 14.105719566345215 L12.411672592163086 14.105719566345215 C12.76406192779541 14.24838924407959 13.224048614501953 14.242850303649902 13.468840599060059 14.533727645874023 C14.17648696899414 15.37459659576416 13.942777633666992 17.489517211914062 12.476713180541992 17.378719329833984 C10.262282371520996 17.211362838745117 11.060898780822754 14.682265281677246 12.411672592163086 14.105719566345215 L12.411672592163086 14.105719566345215"></path></svg>