<svg xmlns="http://www.w3.org/2000/svg" viewBox="0.0 0.0 24.0 24.0" height="200px" width="200px"><path fill="none" stroke="black" stroke-width=".3" stroke-opacity="1.0"  filling="0" d="M11.221892356872559 10.892495155334473 L11.221892356872559 10.892495155334473 C11.877854347229004 10.892495155334473 12.53381633758545 10.892495155334473 13.189778327941895 10.892495155334473 L13.189778327941895 10.892495155334473 C13.494841575622559 12.254828453063965 13.799951553344727 13.617145538330078 14.105110168457031 14.97945785522461 L14.105110168457031 14.97945785522461 C14.184246063232422 14.980671882629395 14.263382911682129 14.981886863708496 14.34251880645752 14.983100891113281 L14.34251880645752 14.983100891113281 C14.562267303466797 13.627142906188965 14.782096862792969 12.271209716796875 15.001922607421875 10.915264129638672 L15.001922607421875 10.915264129638672 C15.14665699005127 10.915264129638672 17.396360397338867 10.915264129638672 17.532365798950195 10.915264129638672 L17.532365798950195 10.915264129638672 C16.827720642089844 13.301094055175781 16.123130798339844 15.686941146850586 15.418451309204102 18.07276153564453 L15.418451309204102 18.07276153564453 C15.390609741210938 18.07276153564453 13.042792320251465 18.07276153564453 13.041625022888184 18.07276153564453 L13.041625022888184 18.07276153564453 C13.016569137573242 17.967092514038086 12.251269340515137 14.73913288116455 12.230730056762695 14.652488708496094 L12.230730056762695 14.652488708496094 C12.169100761413574 14.633159637451172 12.107471466064453 14.61383056640625 12.045842170715332 14.594501495361328 L12.045842170715332 14.594501495361328 C11.738554000854492 15.75352954864502 11.431217193603516 16.91254425048828 11.123831748962402 18.07154655456543 L11.123831748962402 18.07154655456543 C10.32386589050293 18.07154655456543 9.52389907836914 18.07154655456543 8.723933219909668 18.07154655456543 L8.723933219909668 18.07154655456543 C8.05999755859375 15.69785213470459 7.395980358123779 13.324180603027344 6.732062816619873 10.950481414794922 L6.732062816619873 10.950481414794922 C7.613998889923096 10.950481414794922 8.495935440063477 10.950481414794922 9.3778715133667 10.950481414794922 L9.3778715133667 10.950481414794922 C9.586809158325195 12.344870567321777 9.79566764831543 13.739274978637695 10.004486083984375 15.133682250976562 L10.004486083984375 15.133682250976562 C10.067228317260742 15.146331787109375 10.129971504211426 15.158982276916504 10.192713737487793 15.171631813049316 L10.192713737487793 15.171631813049316 C10.535842895507812 13.745271682739258 10.878908157348633 12.318889617919922 11.221892356872559 10.892495155334473 L11.221892356872559 10.892495155334473"></path></svg>