<svg xmlns="http://www.w3.org/2000/svg" viewBox="0.0 0.0 24.0 24.0" height="200px" width="200px"><path fill="none" stroke="black" stroke-width=".3" stroke-opacity="1.0"  filling="0" d="M7.979741096496582 10.408666610717773 L7.979741096496582 10.408666610717773 C9.403525352478027 10.408666610717773 10.827309608459473 10.408666610717773 12.251092910766602 10.408666610717773 C13.674877166748047 10.408666610717773 15.098661422729492 10.408666610717773 16.522445678710938 10.408666610717773 L16.522445678710938 10.408666610717773 C16.534822463989258 12.125089645385742 16.007158279418945 13.350234031677246 15.264089584350586 14.490659713745117 C14.521021842956543 15.631086349487305 13.562551498413086 16.68679428100586 12.713315963745117 18.06434440612793 L12.713315963745117 18.06434440612793 C14.023524284362793 18.135223388671875 15.333734512329102 18.2060604095459 16.64394760131836 18.276859283447266 L16.64394760131836 18.276859283447266 C16.64394760131836 18.33258056640625 16.64394760131836 21.19641876220703 16.64394760131836 21.208663940429688 L16.64394760131836 21.208663940429688 C15.127225875854492 21.208663940429688 13.610504150390625 21.208663940429688 12.093783378601074 21.208663940429688 C10.577062606811523 21.208663940429688 9.060340881347656 21.208663940429688 7.5436201095581055 21.208663940429688 L7.5436201095581055 21.208663940429688 C7.589211940765381 19.52695655822754 8.16086196899414 18.3138484954834 8.923614501953125 17.1780948638916 C9.686367988586426 16.042343139648438 10.64022445678711 14.983945846557617 11.450228691101074 13.611660957336426 L11.450228691101074 13.611660957336426 C10.29339599609375 13.548425674438477 9.136567115783691 13.485130310058594 7.979741096496582 13.421781539916992 L7.979741096496582 13.421781539916992 C7.979741096496582 12.417409896850586 7.979741096496582 11.41303825378418 7.979741096496582 10.408666610717773 L7.979741096496582 10.408666610717773"></path></svg>