<svg xmlns="http://www.w3.org/2000/svg" viewBox="0.0 0.0 24.0 24.0" height="200px" width="200px"><path fill="none" stroke="black" stroke-width=".3" stroke-opacity="1.0"  filling="0" d="M13.9987154006958 7.697146415710449 L13.9987154006958 7.697146415710449 C13.9987154006958 9.47677230834961 13.9987154006958 11.256400108337402 13.9987154006958 13.036026954650879 C13.9987154006958 14.815654754638672 13.9987154006958 16.59528160095215 13.9987154006958 18.374908447265625 L13.9987154006958 18.374908447265625 C13.145930290222168 18.374908447265625 12.293145179748535 18.374908447265625 11.440360069274902 18.374908447265625 L11.440360069274902 18.374908447265625 C11.440360069274902 17.027400970458984 11.440360069274902 15.679891586303711 11.440360069274902 14.33238410949707 C11.440360069274902 12.984875679016113 11.440360069274902 11.637367248535156 11.440360069274902 10.2898588180542 L11.440360069274902 10.2898588180542 C11.412165641784668 10.29920768737793 9.353062629699707 10.982007026672363 9.343195915222168 10.985279083251953 L9.343195915222168 10.985279083251953 C9.19992733001709 10.33985424041748 9.056657791137695 9.694428443908691 8.913389205932617 9.049003601074219 L8.913389205932617 9.049003601074219 C10.78801155090332 7.990970611572266 11.835762977600098 7.625946521759033 13.9987154006958 7.697146415710449 L13.9987154006958 7.697146415710449"></path></svg>