<svg xmlns="http://www.w3.org/2000/svg" viewBox="0.0 0.0 24.0 24.0" height="200px" width="200px"><path fill="none" stroke="black" stroke-width=".3" stroke-opacity="1.0"  filling="0" d="M9.13222599029541 7.64496374130249 L9.13222599029541 7.64496374130249 C9.15058422088623 7.64496374130249 11.72900104522705 7.64496374130249 11.735458374023438 7.64496374130249 L11.735458374023438 7.64496374130249 C11.503263473510742 8.968278884887695 11.270981788635254 10.29157829284668 11.03860092163086 11.614860534667969 L11.03860092163086 11.614860534667969 C12.014652252197266 11.614860534667969 12.990703582763672 11.614860534667969 13.966754913330078 11.614860534667969 L13.966754913330078 11.614860534667969 C14.241900444030762 10.302067756652832 14.51708984375 8.989275932312012 14.792420387268066 7.676522254943848 L14.792420387268066 7.676522254943848 C14.84971809387207 7.676522254943848 17.35447120666504 7.676522254943848 17.385025024414062 7.676522254943848 L17.385025024414062 7.676522254943848 C17.048797607421875 9.47126579284668 16.71256446838379 11.266008377075195 16.376319885253906 13.060749053955078 C16.040075302124023 14.855489730834961 15.703821182250977 16.65022850036621 15.3675537109375 18.444963455200195 L15.3675537109375 18.444963455200195 C14.730169296264648 18.445104598999023 13.405861854553223 18.445266723632812 12.774303436279297 18.44528579711914 L12.774303436279297 18.44528579711914 C12.995826721191406 17.033103942871094 13.217388153076172 15.620929718017578 13.438959121704102 14.208754539489746 L13.438959121704102 14.208754539489746 C12.481585502624512 14.208754539489746 11.524210929870605 14.208754539489746 10.566837310791016 14.208754539489746 L10.566837310791016 14.208754539489746 C10.27462387084961 15.617276191711426 9.98241901397705 17.025798797607422 9.690291404724121 18.434337615966797 L9.690291404724121 18.434337615966797 C9.61154842376709 18.434337615966797 7.133429527282715 18.434337615966797 7.097686290740967 18.434337615966797 L7.097686290740967 18.434337615966797 C7.436759948730469 16.636104583740234 7.775827407836914 14.837871551513672 8.114910125732422 13.039642333984375 C8.45399284362793 11.241412162780762 8.7930908203125 9.443184852600098 9.13222599029541 7.64496374130249 L9.13222599029541 7.64496374130249"></path></svg>