<svg xmlns="http://www.w3.org/2000/svg" viewBox="0.0 0.0 24.0 24.0" height="200px" width="200px"><path fill="none" stroke="black" stroke-width=".3" stroke-opacity="1.0"  filling="0" d="M11.362849235534668 5.337674617767334 C12.675468444824219 5.337674617767334 13.965490341186523 5.337674617767334 15.649984359741211 5.337674617767334 C15.479520797729492 8.810809135437012 15.310040473937988 12.273137092590332 15.140068054199219 15.735956192016602 C15.266809463500977 15.7678861618042 15.393552780151367 15.800308227539062 15.520294189453125 15.832239151000977 C16.656063079833984 12.380228042602539 17.79134178161621 8.928216934204102 18.962482452392578 5.36960506439209 C20.29819107055664 5.36960506439209 21.570526123046875 5.36960506439209 23.045257568359375 5.36960506439209 C20.83365249633789 10.901567459106445 18.661346435546875 16.335769653320312 16.473318099975586 21.80878448486328 C15.054590225219727 21.80878448486328 13.694320678710938 21.80878448486328 12.203868865966797 21.80878448486328 C12.203868865966797 18.544918060302734 12.203868865966797 15.39600944519043 12.203868865966797 12.247098922729492 C12.106110572814941 12.225484848022461 12.00835132598877 12.203378677368164 11.910593032836914 12.181763648986816 C10.690328598022461 15.347867012023926 9.469082832336426 18.513477325439453 8.188394546508789 21.83481788635254 C6.693521976470947 21.83481788635254 5.407430171966553 21.83481788635254 3.8452577590942383 21.83481788635254 C3.8452577590942383 16.32545280456543 3.8452577590942383 10.903039932250977 3.8452577590942383 5.34946346282959 C4.994289398193359 5.34946346282959 6.183605194091797 5.34946346282959 7.458889007568359 5.34946346282959 C7.458889007568359 8.88695240020752 7.458889007568359 12.355666160583496 7.458889007568359 16.3028564453125 C8.845685958862305 12.407737731933594 10.087565422058105 8.9183931350708 11.362849235534668 5.337674617767334"></path></svg>