<svg xmlns="http://www.w3.org/2000/svg" viewBox="0.0 0.0 24.0 24.0" height="200px" width="200px"><path fill="none" stroke="black" stroke-width=".3" stroke-opacity="1.0"  filling="0" d="M5.259361743927002 4.239733695983887 C6.8521199226379395 4.239733695983887 8.260791778564453 4.239733695983887 9.949023246765137 4.239733695983887 C10.403525352478027 6.042305946350098 10.879180908203125 7.929490089416504 11.504049301147461 10.408956527709961 C12.687471389770508 8.063268661499023 13.630777359008789 6.192091941833496 14.613531112670898 4.243735313415527 C16.262887954711914 4.243735313415527 17.84992790222168 4.243735313415527 19.821725845336914 4.243735313415527 C18.2066707611084 6.734635829925537 16.856313705444336 9.117485046386719 15.206384658813477 11.271081924438477 C13.836018562316895 13.059362411499023 13.655932426452637 14.706432342529297 14.479753494262695 16.761123657226562 C15.319009780883789 18.85526466369629 15.837542533874512 21.07803726196289 16.549882888793945 23.42086410522461 C14.858220100402832 23.42086410522461 13.374083518981934 23.42086410522461 11.769891738891602 23.42086410522461 C11.228490829467773 21.36731719970703 10.703669548034668 19.37550926208496 10.057075500488281 16.92234230041504 C8.807337760925293 19.336633682250977 7.768557071685791 21.343303680419922 6.682897090911865 23.43973159790039 C5.086136341094971 23.43973159790039 3.492234230041504 23.43973159790039 1.4261083602905273 23.43973159790039 C3.139495849609375 20.825916290283203 4.465270042419434 18.518531799316406 6.075750827789307 16.43125343322754 C7.558170795440674 14.509195327758789 7.869176864624023 12.671748161315918 6.988185405731201 10.401524543762207 C6.239829063415527 8.473749160766602 5.851072788238525 6.40590763092041 5.259361743927002 4.239733695983887"></path></svg>