<svg xmlns="http://www.w3.org/2000/svg" viewBox="0.0 0.0 24.0 24.0" height="200px" width="200px"><path fill="none" stroke="black" stroke-width=".3" stroke-opacity="1.0"  filling="0" d="M9.066664695739746 7.648393154144287 L9.066664695739746 7.648393154144287 C11.492878913879395 7.648393154144287 13.91909122467041 7.648393154144287 16.345304489135742 7.648393154144287 L16.345304489135742 7.648393154144287 C15.62498664855957 9.275616645812988 14.659687995910645 10.70073413848877 13.634692192077637 12.08861255645752 C12.609695434570312 13.476490020751953 11.525001525878906 14.827128410339355 10.565892219543457 16.305391311645508 L10.565892219543457 16.305391311645508 C10.5703706741333 16.305391311645508 14.47410774230957 16.305391311645508 14.538086891174316 16.305391311645508 L14.538086891174316 16.305391311645508 C14.532875061035156 16.331140518188477 14.114880561828613 18.396818161010742 14.104381561279297 18.448715209960938 L14.104381561279297 18.448715209960938 C12.828954696655273 18.448585510253906 11.55352783203125 18.44850730895996 10.278101921081543 18.44845962524414 C9.002676010131836 18.44841194152832 7.727250099182129 18.448396682739258 6.451822757720947 18.448392868041992 L6.451822757720947 18.448392868041992 C7.098126411437988 16.819368362426758 8.053823471069336 15.386127471923828 9.095995903015137 14.0039701461792 C10.138169288635254 12.62181282043457 11.26681900024414 11.290739059448242 12.259028434753418 9.866047859191895 L12.259028434753418 9.866047859191895 C11.907833099365234 9.866047859191895 8.956716537475586 9.866047859191895 8.587390899658203 9.866047859191895 L8.587390899658203 9.866047859191895 C8.747271537780762 9.126855850219727 8.90704345703125 8.387640953063965 9.066664695739746 7.648393154144287 L9.066664695739746 7.648393154144287"></path></svg>