<svg xmlns="http://www.w3.org/2000/svg" viewBox="0.0 0.0 24.0 24.0" height="200px" width="200px"><path fill="none" stroke="black" stroke-width=".3" stroke-opacity="1.0"  filling="0" d="M17.103660583496094 10.642562866210938 L17.103660583496094 10.642562866210938 C16.872379302978516 11.461478233337402 16.64110565185547 12.280394554138184 16.40983772277832 13.099313735961914 L16.40983772277832 13.099313735961914 C15.198617935180664 13.368821144104004 13.95924186706543 13.471681594848633 12.93083381652832 14.251543998718262 C11.676373481750488 15.202826499938965 11.416316986083984 17.615493774414062 13.254436492919922 18.041767120361328 C13.977248191833496 18.209392547607422 14.731036186218262 18.189666748046875 15.469335556030273 18.26361656188965 L15.469335556030273 18.26361656188965 C15.42319393157959 18.855493545532227 15.334832191467285 19.987319946289062 15.286725997924805 20.60228729248047 L15.286725997924805 20.60228729248047 C13.489889144897461 21.066490173339844 11.800775527954102 21.531471252441406 10.045193672180176 20.57769012451172 C8.224386215209961 19.58847427368164 7.7609429359436035 17.84871482849121 8.07702922821045 16.109704971313477 C8.393115997314453 14.370697021484375 9.488731384277344 12.632438659667969 10.786040306091309 11.646224021911621 C12.715914726257324 10.179134368896484 14.851200103759766 10.315808296203613 17.103660583496094 10.642562866210938 L17.103660583496094 10.642562866210938"></path></svg>