<svg xmlns="http://www.w3.org/2000/svg" viewBox="0.0 0.0 24.0 24.0" height="200px" width="200px"><path fill="none" stroke="black" stroke-width=".3" stroke-opacity="1.0"  filling="0" d="M8.378021240234375 3.632391929626465 C9.831140518188477 3.632391929626465 11.143600463867188 3.632391929626465 12.732510566711426 3.632391929626465 C12.375992774963379 6.087979316711426 12.024885177612305 8.506237983703613 11.664039611816406 10.991039276123047 C12.089804649353027 10.930447578430176 12.277530670166016 10.940185546875 12.435502052307129 10.876348495483398 C16.923076629638672 9.068875312805176 18.84199333190918 10.460321426391602 18.19766616821289 15.219474792480469 C17.851428985595703 17.778392791748047 17.191951751708984 20.295114517211914 16.674217224121094 22.829689025878906 C15.109652519226074 22.829689025878906 13.786373138427734 22.829689025878906 12.465256690979004 22.829689025878906 C12.387894630432129 19.717329025268555 14.166693687438965 16.912797927856445 13.578088760375977 13.736600875854492 C11.55692195892334 13.627861022949219 11.006185531616211 14.882433891296387 10.665899276733398 16.18407440185547 C10.100557327270508 18.347522735595703 9.675873756408691 20.547760009765625 9.169500350952148 22.8323917388916 C7.740185260772705 22.831850051879883 6.426102638244629 22.831850051879883 4.800405979156494 22.831850051879883 C6.019813537597656 16.289569854736328 7.187827110290527 10.019948959350586 8.378021240234375 3.632391929626465"></path></svg>