<svg xmlns="http://www.w3.org/2000/svg" viewBox="0.0 0.0 24.0 24.0" height="200px" width="200px"><path fill="none" stroke="black" stroke-width=".3" stroke-opacity="1.0"  filling="0" d="M12.491327285766602 7.087550640106201 L12.491327285766602 7.087550640106201 C12.794088363647461 7.3810248374938965 13.426911354064941 7.547205448150635 13.39961051940918 7.967973709106445 C13.367901802062988 8.456670761108398 12.85378646850586 8.96438980102539 12.366429328918457 9.012487411499023 C11.951817512512207 9.05340576171875 11.425268173217773 8.575912475585938 11.45224380493164 8.160160064697266 C11.484475135803223 7.6634111404418945 12.144966125488281 7.44508695602417 12.491327285766602 7.087550640106201 L12.491327285766602 7.087550640106201"></path>
<path fill="none" stroke="black" stroke-width=".3" stroke-opacity="1.0"  filling="0" d="M11.207879066467285 9.992545127868652 L11.207879066467285 9.992545127868652 C11.84842300415039 9.992545127868652 12.488966941833496 9.992545127868652 13.129510879516602 9.992545127868652 L13.129510879516602 9.992545127868652 C12.931730270385742 10.989763259887695 12.823881149291992 12.424250602722168 12.58741569519043 13.805387496948242 C12.350950241088867 15.1865234375 11.98586654663086 16.51430892944336 11.273619651794434 17.298126220703125 C10.546952247619629 18.097810745239258 9.711487770080566 17.822662353515625 8.776031494140625 17.793819427490234 L8.776031494140625 17.793819427490234 C8.84426498413086 17.36324691772461 8.912498474121094 16.932676315307617 8.980731964111328 16.502103805541992 L8.980731964111328 16.502103805541992 C10.943361282348633 15.489914894104004 10.806085586547852 11.995514869689941 11.207879066467285 9.992545127868652 L11.207879066467285 9.992545127868652"></path></svg>