<svg xmlns="http://www.w3.org/2000/svg" viewBox="0.0 0.0 24.0 24.0" height="200px" width="200px"><path fill="none" stroke="black" stroke-width=".3" stroke-opacity="1.0"  filling="0" d="M14.81507682800293 8.222854614257812 L14.81507682800293 8.222854614257812 C15.880205154418945 8.864280700683594 16.746334075927734 9.914841651916504 17.24268341064453 11.054825782775879 L17.24268341064453 11.054825782775879 C16.887727737426758 11.173995971679688 16.532773971557617 11.293166160583496 16.177818298339844 11.412336349487305 L16.177818298339844 11.412336349487305 C15.921968460083008 10.965597152709961 15.25516414642334 9.780149459838867 15.065900802612305 9.63469123840332 C13.520177841186523 8.446727752685547 12.10030746459961 9.080987930297852 11.086979866027832 10.318459510803223 C10.073653221130371 11.555930137634277 9.46687126159668 13.396612167358398 9.547324180603027 14.621492385864258 C9.664536476135254 16.406023025512695 11.001180648803711 18.141178131103516 13.01126480102539 17.577919006347656 C13.605021476745605 17.41153907775879 14.138337135314941 17.019235610961914 14.56518840789795 16.57423210144043 C15.018264770507812 16.10188865661621 15.244430541992188 15.455225944519043 15.584051132202148 14.895722389221191 L15.584051132202148 14.895722389221191 C15.95916748046875 14.98024845123291 16.33428382873535 15.064775466918945 16.709400177001953 15.149301528930664 L16.709400177001953 15.149301528930664 C16.352741241455078 16.66747283935547 15.057873725891113 17.981977462768555 13.560142517089844 18.56348991394043 C12.062410354614258 19.145000457763672 10.36181640625 18.993518829345703 9.193704605102539 17.5797176361084 C7.780523777008057 15.869300842285156 7.941722869873047 12.789178848266602 8.961613655090332 10.95112133026123 C9.526308059692383 9.933423042297363 10.442413330078125 8.929444313049316 11.5156888961792 8.421503067016602 C12.866795539855957 7.782073974609375 13.39057445526123 8.054071426391602 14.81507682800293 8.222854614257812 L14.81507682800293 8.222854614257812"></path></svg>