<svg xmlns="http://www.w3.org/2000/svg" viewBox="0.0 0.0 24.0 24.0" height="200px" width="200px"><path fill="none" stroke="black" stroke-width=".3" stroke-opacity="1.0"  filling="0" d="M16.26498794555664 10.809348106384277 L16.26498794555664 10.809348106384277 C16.048452377319336 11.559004783630371 15.831873893737793 12.308649063110352 15.615257263183594 13.058281898498535 L15.615257263183594 13.058281898498535 C14.606108665466309 13.058281898498535 13.596959114074707 13.058281898498535 12.587810516357422 13.058281898498535 L12.587810516357422 13.058281898498535 C12.510931968688965 13.212489128112793 12.434052467346191 13.366695404052734 12.357173919677734 13.520902633666992 L12.357173919677734 13.520902633666992 C12.44964599609375 13.593894958496094 15.11626148223877 15.671887397766113 15.24277114868164 15.87169361114502 C16.47699546813965 17.82100486755371 15.066190719604492 19.776649475097656 13.248311996459961 20.484880447387695 C11.198862075805664 21.283329010009766 9.407219886779785 20.915666580200195 7.44020938873291 20.147449493408203 L7.44020938873291 20.147449493408203 C7.466399669647217 20.06647300720215 8.13673210144043 17.993602752685547 8.169363021850586 17.892683029174805 L8.169363021850586 17.892683029174805 C9.88980484008789 18.149751663208008 10.550431251525879 18.343692779541016 12.151663780212402 17.563777923583984 L12.151663780212402 17.563777923583984 C11.043075561523438 16.79047966003418 9.379135131835938 15.940251350402832 8.818081855773926 14.629880905151367 C8.221189498901367 13.235804557800293 8.990264892578125 12.222786903381348 9.977215766906738 11.339274406433105 C11.816247940063477 9.692984580993652 14.174270629882812 10.166061401367188 16.26498794555664 10.809348106384277 L16.26498794555664 10.809348106384277"></path></svg>