<svg xmlns="http://www.w3.org/2000/svg" viewBox="0.0 0.0 24.0 24.0" height="200px" width="200px"><path fill="none" stroke="black" stroke-width=".3" stroke-opacity="1.0"  filling="0" d="M7.9370293617248535 7.887825012207031 L7.9370293617248535 7.887825012207031 C10.141000747680664 7.5305304527282715 12.581418991088867 7.170004367828369 14.751806259155273 7.962576866149902 C16.15814971923828 8.476139068603516 16.966957092285156 9.955989837646484 16.12380599975586 11.380138397216797 C15.8513765335083 11.840292930603027 15.316800117492676 12.08198070526123 14.913297653198242 12.432901382446289 L14.913297653198242 12.432901382446289 C16.93580436706543 13.749229431152344 17.604164123535156 15.705650329589844 15.464635848999023 17.364673614501953 C14.521245956420898 18.09619140625 13.173784255981445 18.337100982666016 11.794949531555176 18.35916519165039 C10.416114807128906 18.3812313079834 9.005908012390137 18.184452056884766 7.9370293617248535 18.040599822998047 L7.9370293617248535 18.040599822998047 C7.9370293617248535 16.348468780517578 7.9370293617248535 14.656340599060059 7.9370293617248535 12.964212417602539 C7.9370293617248535 11.272083282470703 7.9370293617248535 9.579954147338867 7.9370293617248535 7.887825012207031 L7.9370293617248535 7.887825012207031"></path>
<path fill="none" stroke="black" stroke-width=".3" stroke-opacity="1.0"  filling="0" d="M10.950784683227539 9.761367797851562 L10.950784683227539 9.761367797851562 C11.822661399841309 9.777946472167969 12.763556480407715 9.966416358947754 13.464927673339844 10.484606742858887 L13.464927673339844 10.484606742858887 C12.854011535644531 11.183219909667969 11.86997127532959 11.554344177246094 10.950469017028809 11.680015563964844 L10.950469017028809 11.680015563964844 C10.950573921203613 11.04046630859375 10.950679779052734 10.400917053222656 10.950784683227539 9.761367797851562 L10.950784683227539 9.761367797851562"></path>
<path fill="none" stroke="black" stroke-width=".3" stroke-opacity="1.0"  filling="0" d="M11.002196311950684 13.781285285949707 L11.002196311950684 13.781285285949707 C11.212797164916992 13.800219535827637 15.675553321838379 14.42852783203125 12.946706771850586 15.850067138671875 C12.365382194519043 16.152896881103516 11.65036678314209 16.045202255249023 11.002196311950684 16.14276885986328 L11.002196311950684 16.14276885986328 C11.002196311950684 16.10668182373047 11.002196311950684 13.811177253723145 11.002196311950684 13.781285285949707 L11.002196311950684 13.781285285949707"></path></svg>