<svg xmlns="http://www.w3.org/2000/svg" viewBox="0.0 0.0 24.0 24.0" height="200px" width="200px"><path fill="none" stroke="black" stroke-width=".3" stroke-opacity="1.0"  filling="0" d="M21.30994415283203 5.062880516052246 C20.933155059814453 6.513721942901611 20.61380958557129 7.74209451675415 20.29446792602539 8.973281860351562 C18.457260131835938 8.785168647766113 16.801971435546875 8.495112419128418 15.142175674438477 8.46920394897461 C11.071256637573242 8.406124114990234 8.80600643157959 10.27318286895752 8.787983894348145 13.547151565551758 C8.769397735595703 16.907855987548828 11.258809089660645 19.021038055419922 15.226095199584961 18.980487823486328 C15.677793502807617 18.975980758666992 16.1278018951416 18.81321144104004 16.69383430480957 18.70113182067871 C16.69383430480957 17.832653045654297 16.69383430480957 17.030635833740234 16.69383430480957 16.100204467773438 C15.81183910369873 15.984745979309082 15.009820938110352 15.879425048828125 14.0726318359375 15.756080627441406 C14.0726318359375 14.561500549316406 14.0726318359375 13.469990730285645 14.0726318359375 12.123907089233398 C16.60371971130371 12.123907089233398 19.161840438842773 12.123907089233398 21.929481506347656 12.123907089233398 C21.929481506347656 15.329164505004883 21.929481506347656 18.559200286865234 21.929481506347656 21.961021423339844 C17.609622955322266 23.46424102783203 13.232314109802246 23.850608825683594 8.840364456176758 22.20771026611328 C5.592303276062012 20.992290496826172 3.6019020080566406 18.589052200317383 3.235811233520508 15.120210647583008 C2.843250274658203 11.404118537902832 4.040645599365234 8.24560832977295 7.330385208129883 6.208459377288818 C11.690231323242188 3.5084075927734375 16.313098907470703 3.666670799255371 21.30994415283203 5.062880516052246"></path></svg>