<svg xmlns="http://www.w3.org/2000/svg" viewBox="0.0 0.0 24.0 24.0" height="200px" width="200px"><path fill="none" stroke="black" stroke-width=".3" stroke-opacity="1.0"  filling="0" d="M7.3777360916137695 7.71587610244751 L7.3777360916137695 7.71587610244751 C8.92563247680664 7.71587610244751 10.473529815673828 7.71587610244751 12.021427154541016 7.71587610244751 C13.569324493408203 7.71587610244751 15.11722183227539 7.71587610244751 16.665119171142578 7.71587610244751 L16.665119171142578 7.71587610244751 C16.665119171142578 8.483818054199219 16.665119171142578 9.251760482788086 16.665119171142578 10.019702911376953 L16.665119171142578 10.019702911376953 C15.641772270202637 10.07617473602295 14.618426322937012 10.132667541503906 13.595081329345703 10.189178466796875 L13.595081329345703 10.189178466796875 C13.595081329345703 11.576960563659668 13.595081329345703 12.964744567871094 13.595081329345703 14.352527618408203 C13.595081329345703 15.740310668945312 13.595081329345703 17.128093719482422 13.595081329345703 18.51587677001953 L13.595081329345703 18.51587677001953 C12.568596839904785 18.515684127807617 11.542113304138184 18.515579223632812 10.515628814697266 18.515552520751953 L10.515628814697266 18.515552520751953 C10.515628814697266 17.126361846923828 10.515628814697266 15.73717212677002 10.515628814697266 14.347982406616211 C10.515628814697266 12.958792686462402 10.515628814697266 11.569602966308594 10.515628814697266 10.180412292480469 L10.515628814697266 10.180412292480469 C9.513713836669922 10.133809089660645 8.511795997619629 10.087276458740234 7.5098748207092285 10.04080581665039 L7.5098748207092285 10.04080581665039 C7.495758056640625 9.792125701904297 7.389067649841309 7.915032386779785 7.3777360916137695 7.71587610244751 L7.3777360916137695 7.71587610244751"></path></svg>