<svg xmlns="http://www.w3.org/2000/svg" viewBox="0.0 0.0 24.0 24.0" height="200px" width="200px"><path fill="none" stroke="black" stroke-width=".3" stroke-opacity="1.0"  filling="0" d="M20.24233627319336 5.827179431915283 C21.021316528320312 5.827179431915283 21.765647888183594 5.827179431915283 22.763866424560547 5.827179431915283 C21.426773071289062 12.286907196044922 20.121620178222656 18.593978881835938 18.796977996826172 24.994699478149414 C17.968738555908203 24.994699478149414 17.293155670166016 24.994699478149414 16.30143165588379 24.994699478149414 C16.877408981323242 21.956199645996094 17.4219913482666 19.086048126220703 17.995264053344727 16.064868927001953 C14.653614044189453 16.064868927001953 11.446756362915039 16.064868927001953 8.08291244506836 16.064868927001953 C7.415991306304932 19.08442497253418 6.764767646789551 22.034690856933594 6.10434103012085 25.02663803100586 C5.262568473815918 25.02663803100586 4.573992729187012 25.02663803100586 3.5882253646850586 25.02663803100586 C4.920445919036865 18.58315086364746 6.220727920532227 12.296650886535645 7.555113792419434 5.842878818511963 C8.350873947143555 5.842878818511963 9.09304141998291 5.842878818511963 10.069064140319824 5.842878818511963 C9.573203086853027 8.476463317871094 9.098454475402832 10.998534202575684 8.598262786865234 13.655938148498535 C11.961023330688477 13.655938148498535 15.173835754394531 13.655938148498535 18.50736427307129 13.655938148498535 C19.086589813232422 11.04238224029541 19.646869659423828 8.513273239135742 20.24233627319336 5.827179431915283"></path></svg>