<svg xmlns="http://www.w3.org/2000/svg" viewBox="0.0 0.0 24.0 24.0" height="200px" width="200px"><path fill="none" stroke="black" stroke-width=".3" stroke-opacity="1.0"  filling="0" d="M12.110199928283691 3.26645565032959 C13.229863166809082 3.2622499465942383 14.070662498474121 3.9823341369628906 14.117349624633789 4.9854888916015625 C14.164458274841309 5.997476100921631 13.375814437866211 6.805888652801514 12.27381706237793 6.874868392944336 C11.192008018493652 6.942586898803711 10.268348693847656 6.227970600128174 10.177496910095215 5.25299596786499 C10.073185920715332 4.135436058044434 10.914405822753906 3.271082878112793 12.110199928283691 3.26645565032959"></path>
<path fill="none" stroke="black" stroke-width=".3" stroke-opacity="1.0"  filling="0" d="M10.15772819519043 8.426498413085938 C11.501577377319336 8.426498413085938 12.661619186401367 8.426498413085938 14.156045913696289 8.426498413085938 C14.016404151916504 11.831335067749023 14.522397994995117 15.30683422088623 13.830493927001953 18.739431381225586 C13.290431022644043 21.419137954711914 11.429232597351074 22.518192291259766 7.924710273742676 22.46435546875 C7.793900966644287 21.52260971069336 7.680756568908691 20.709148406982422 7.548264980316162 19.757308959960938 C9.977707862854004 19.474658966064453 10.14721393585205 17.72492027282715 10.155204772949219 15.889379501342773 C10.165719985961914 13.447738647460938 10.15772819519043 11.006097793579102 10.15772819519043 8.426498413085938"></path></svg>