<svg xmlns="http://www.w3.org/2000/svg" viewBox="0.0 0.0 24.0 24.0" height="200px" width="200px"><path fill="none" stroke="black" stroke-width=".3" stroke-opacity="1.0"  filling="0" d="M8.271552085876465 7.335152626037598 L8.271552085876465 7.335152626037598 C9.220511436462402 7.335152626037598 10.169469833374023 7.335152626037598 11.118429183959961 7.335152626037598 L11.118429183959961 7.335152626037598 C11.118429183959961 9.291577339172363 11.118429183959961 11.248000144958496 11.118429183959961 13.204424858093262 L11.118429183959961 13.204424858093262 C11.22584342956543 13.234953880310059 11.333257675170898 13.265483856201172 11.440671920776367 13.296012878417969 L11.440671920776367 13.296012878417969 C11.481060981750488 13.239079475402832 13.082111358642578 10.982056617736816 13.099665641784668 10.957308769226074 L13.099665641784668 10.957308769226074 C14.229656219482422 10.957308769226074 15.359646797180176 10.957308769226074 16.48963737487793 10.957308769226074 L16.48963737487793 10.957308769226074 C15.890095710754395 11.601683616638184 14.416749954223633 13.185065269470215 13.807250022888184 13.840024948120117 L13.807250022888184 13.840024948120117 C14.874860763549805 15.271909713745117 15.942554473876953 16.7037296295166 17.0103702545166 18.135459899902344 L17.0103702545166 18.135459899902344 C15.832084655761719 18.135459899902344 14.65379810333252 18.135459899902344 13.475512504577637 18.135459899902344 L13.475512504577637 18.135459899902344 C13.229988098144531 17.762937545776367 12.03192138671875 15.944795608520508 11.800590515136719 15.593669891357422 L11.800590515136719 15.593669891357422 C11.352507591247559 16.35652732849121 11.0726957321167 17.239988327026367 10.989166259765625 18.120756149291992 L10.989166259765625 18.120756149291992 C9.821633338928223 18.120512008666992 9.467293739318848 18.120481491088867 8.271552085876465 18.12044906616211 L8.271552085876465 18.12044906616211 C8.271552085876465 16.322898864746094 8.271552085876465 14.525350570678711 8.271552085876465 12.727800369262695 C8.271552085876465 10.930251121520996 8.271552085876465 9.132701873779297 8.271552085876465 7.335152626037598 L8.271552085876465 7.335152626037598"></path></svg>