<svg xmlns="http://www.w3.org/2000/svg" viewBox="0.0 0.0 24.0 24.0" height="200px" width="200px"><path fill="none" stroke="black" stroke-width=".3" stroke-opacity="1.0"  filling="0" d="M12.536697387695312 8.636094093322754 C15.62566089630127 9.161630630493164 18.27295684814453 9.983414649963379 20.24591827392578 12.24924087524414 C23.114383697509766 15.545171737670898 22.455604553222656 20.589509963989258 18.88100814819336 23.297677993774414 C15.452509880065918 25.89492416381836 9.710840225219727 25.9733829498291 6.154507637023926 23.47150421142578 C1.704019546508789 20.340606689453125 1.7019901275634766 13.835318565368652 6.343890190124512 10.963468551635742 C8.183605194091797 9.82514476776123 10.459577560424805 9.390917778015137 12.536697387695312 8.636094093322754"></path>
<path fill="none" stroke="black" stroke-width=".3" stroke-opacity="1.0"  filling="0" d="M12.368958473205566 13.686518669128418 C14.29389476776123 13.647289276123047 15.338205337524414 14.932384490966797 15.309796333312988 17.30575180053711 C15.282742500305176 19.54993438720703 14.353415489196777 20.690963745117188 12.531962394714355 20.71666717529297 C10.638137817382812 20.74372100830078 9.496432304382324 19.374080657958984 9.520105361938477 17.10284423828125 C9.541748046875 15.006784439086914 10.613112449645996 13.722366333007812 12.368958473205566 13.686518669128418"></path></svg>