<svg xmlns="http://www.w3.org/2000/svg" viewBox="0.0 0.0 24.0 24.0" height="200px" width="200px"><path fill="none" stroke="black" stroke-width=".3" stroke-opacity="1.0"  filling="0" d="M17.536754608154297 10.277166366577148 C18.938613891601562 10.277166366577148 20.290752410888672 10.277166366577148 21.902694702148438 10.277166366577148 C20.681678771972656 14.13373851776123 19.496238708496094 17.87576675415039 18.267906188964844 21.7542724609375 C16.658401489257812 21.7542724609375 15.29992389678955 21.7542724609375 13.819589614868164 21.7542724609375 C13.33556842803955 19.82939910888672 12.869582176208496 17.977638244628906 12.283686637878418 15.64721965789795 C11.670007705688477 17.928895950317383 11.171850204467773 19.782604217529297 10.644935607910156 21.741600036621094 C9.257699966430664 21.741600036621094 7.9026360511779785 21.741600036621094 6.242437839508057 21.741600036621094 C5.109154224395752 18.095598220825195 3.944188117980957 14.345773696899414 2.703183174133301 10.353205680847168 C4.2395734786987305 10.353205680847168 5.558567523956299 10.353205680847168 7.180258750915527 10.353205680847168 C7.611149787902832 12.348271369934082 8.07811164855957 14.509551048278809 8.544585227966309 16.67083168029785 C8.684477806091309 16.694713592529297 8.823884963989258 16.71811294555664 8.963777542114258 16.741994857788086 C9.503853797912598 14.636770248413086 10.043930053710938 12.531059265136719 10.613739967346191 10.308850288391113 C11.772855758666992 10.308850288391113 12.872018814086914 10.308850288391113 14.187112808227539 10.308850288391113 C14.706230163574219 12.44819450378418 15.236557006835938 14.634333610534668 15.767372131347656 16.81998634338379 C15.882406234741211 16.853618621826172 15.99792766571045 16.886762619018555 16.11296272277832 16.92039680480957 C16.58041000366211 14.740593910217285 17.047372817993164 12.560304641723633 17.536754608154297 10.277166366577148"></path></svg>