<svg xmlns="http://www.w3.org/2000/svg" viewBox="0.0 0.0 24.0 24.0" height="200px" width="200px"><path fill="none" stroke="black" stroke-width=".3" stroke-opacity="1.0"  filling="0" d="M10.927621841430664 4.3072381019592285 C13.435745239257812 4.3072381019592285 15.768389701843262 4.3072381019592285 18.35332489013672 4.3072381019592285 C18.35332489013672 7.9361891746521 18.35332489013672 11.438699722290039 18.35332489013672 15.033974647521973 C19.181095123291016 15.276809692382812 19.802658081054688 15.45879077911377 20.49335479736328 15.660858154296875 C20.49335479736328 16.79941177368164 20.49335479736328 17.952144622802734 20.49335479736328 19.191139221191406 C19.802658081054688 19.402070999145508 19.190547943115234 19.589366912841797 18.5506649017334 19.784934997558594 C18.481536865234375 21.05997085571289 18.419498443603516 22.211524963378906 18.34918785095215 23.507240295410156 C16.64165496826172 23.507240295410156 15.110193252563477 23.507240295410156 13.350074768066406 23.507240295410156 C13.213589668273926 22.322010040283203 13.072969436645508 21.108421325683594 12.877991676330566 19.421566009521484 C9.933825492858887 19.421566009521484 7.213589191436768 19.421566009521484 4.062038421630859 19.421566009521484 C4.320827484130859 17.709896087646484 4.190250873565674 16.129985809326172 4.80945348739624 14.940030097961426 C6.707828521728516 11.291581153869629 8.894535064697266 7.793205738067627 10.927621841430664 4.3072381019592285"></path>
<path fill="none" stroke="black" stroke-width=".3" stroke-opacity="1.0"  filling="0" d="M12.606794357299805 8.570161819458008 C12.717283248901367 8.592023849487305 12.828360557556152 8.614476203918457 12.938848495483398 8.636337280273438 C12.938848495483398 10.8224515914917 12.938848495483398 13.007975578308105 12.938848495483398 15.294534683227539 C11.762481689453125 15.294534683227539 10.807089805603027 15.294534683227539 9.477105140686035 15.294534683227539 C10.588479042053223 12.907533645629883 11.597636222839355 10.73855209350586 12.606794357299805 8.570161819458008"></path></svg>