<svg xmlns="http://www.w3.org/2000/svg" viewBox="0.0 0.0 24.0 24.0" height="200px" width="200px"><path fill="none" stroke="black" stroke-width=".3" stroke-opacity="1.0"  filling="0" d="M14.16732120513916 4.863893985748291 C16.32301139831543 5.177914142608643 18.325761795043945 5.92109489440918 19.241653442382812 8.198322296142578 C20.15289306640625 10.463336944580078 19.067195892333984 12.104964256286621 17.265071868896484 13.627961158752441 C17.85996437072754 14.052469253540039 18.343788146972656 14.3217134475708 18.73573112487793 14.688650131225586 C21.427581787109375 17.209535598754883 20.78558349609375 21.103965759277344 17.3278751373291 22.804325103759766 C14.612764358520508 24.13949203491211 11.74936580657959 24.2866153717041 8.850496292114258 23.398635864257812 C6.8018059730529785 22.77059555053711 5.097373962402344 21.701766967773438 4.6740288734436035 19.426864624023438 C4.246612548828125 17.12637710571289 5.31020975112915 15.5033597946167 7.543241500854492 14.387425422668457 C3.7017288208007812 10.099306106567383 5.002005100250244 6.079268455505371 10.422922134399414 4.983105182647705 C11.634225845336914 4.73828649520874 12.947294235229492 4.686531066894531 14.16732120513916 4.863893985748291"></path>
<path fill="none" stroke="black" stroke-width=".3" stroke-opacity="1.0"  filling="0" d="M12.387872695922852 8.509434700012207 C13.182809829711914 8.639694213867188 13.878305435180664 9.379968643188477 15.066929817199707 10.13477897644043 C14.002168655395508 10.938437461853027 13.251428604125977 11.896199226379395 12.782724380493164 11.774080276489258 C11.919751167297363 11.54845142364502 10.791604995727539 10.822715759277344 10.553763389587402 10.062089920043945 C10.178102493286133 8.860090255737305 11.438835144042969 8.354168891906738 12.387872695922852 8.509434700012207"></path>
<path fill="none" stroke="black" stroke-width=".3" stroke-opacity="1.0"  filling="0" d="M12.096532821655273 15.475446701049805 C13.18920612335205 16.64837074279785 14.246988296508789 17.30257797241211 14.530187606811523 18.20102310180664 C14.945392608642578 19.51874542236328 13.796893119812012 20.054325103759766 12.637345314025879 20.0618839263916 C11.378938674926758 20.070026397705078 10.214157104492188 19.571081161499023 10.381052017211914 18.105073928833008 C10.465372085571289 17.360729217529297 11.264379501342773 16.698381423950195 12.096532821655273 15.475446701049805"></path></svg>