<svg xmlns="http://www.w3.org/2000/svg" viewBox="0.0 0.0 24.0 24.0" height="200px" width="200px"><path fill="none" stroke="black" stroke-width=".3" stroke-opacity="1.0"  filling="0" d="M10.029857635498047 8.325712203979492 L10.029857635498047 8.325712203979492 C11.703798294067383 7.955972671508789 12.310152053833008 7.531271934509277 13.95797061920166 8.242894172668457 C15.514856338500977 8.915246963500977 16.35287094116211 10.319378852844238 16.570993423461914 11.862667083740234 C16.78911590576172 13.405954360961914 16.387346267700195 15.088397979736328 15.464661598205566 16.31737518310547 C13.862064361572266 18.451967239379883 11.228738784790039 18.693161010742188 8.784507751464844 18.64600372314453 L8.784507751464844 18.64600372314453 C8.78433609008789 18.005340576171875 8.784204483032227 17.062297821044922 8.784181594848633 16.42947006225586 L8.784181594848633 16.42947006225586 C10.782482147216797 16.2608699798584 11.695391654968262 16.002666473388672 13.311358451843262 14.779897689819336 L13.311358451843262 14.779897689819336 C12.13794994354248 14.917763710021973 11.097692489624023 15.164350509643555 9.91893482208252 14.768507957458496 C8.081506729125977 14.151474952697754 7.556393623352051 12.932572364807129 7.767059803009033 11.672030448913574 C7.977725982666016 10.411487579345703 8.92417049407959 9.109305381774902 10.029857635498047 8.325712203979492 L10.029857635498047 8.325712203979492"></path>
<path fill="none" stroke="black" stroke-width=".3" stroke-opacity="1.0"  filling="0" d="M12.006209373474121 10.189652442932129 L12.006209373474121 10.189652442932129 C13.250086784362793 10.69365406036377 14.290689468383789 12.797738075256348 12.074504852294922 12.796357154846191 C10.04825210571289 12.79509449005127 10.800457000732422 10.711653709411621 12.006209373474121 10.189652442932129 L12.006209373474121 10.189652442932129"></path></svg>