<svg xmlns="http://www.w3.org/2000/svg" viewBox="0.0 0.0 24.0 24.0" height="200px" width="200px"><path fill="none" stroke="black" stroke-width=".3" stroke-opacity="1.0"  filling="0" d="M9.513357162475586 7.630367755889893 L9.513357162475586 7.630367755889893 C11.998442649841309 7.630367755889893 14.483528137207031 7.630367755889893 16.968612670898438 7.630367755889893 L16.968612670898438 7.630367755889893 C16.91007423400879 7.929320812225342 16.559757232666016 9.718232154846191 16.505802154541016 9.993734359741211 L16.505802154541016 9.993734359741211 C14.995006561279297 9.993734359741211 13.48420524597168 9.993734359741211 11.973410606384277 9.993734359741211 L11.973410606384277 9.993734359741211 C11.871028900146484 10.569347381591797 11.768648147583008 11.144960403442383 11.666266441345215 11.720573425292969 L11.666266441345215 11.720573425292969 C13.093912124633789 11.720573425292969 14.521557807922363 11.720573425292969 15.949203491210938 11.720573425292969 L15.949203491210938 11.720573425292969 C15.794800758361816 12.519207954406738 15.640422821044922 13.317848205566406 15.486069679260254 14.11649227142334 L15.486069679260254 14.11649227142334 C14.085711479187012 14.11649227142334 12.685354232788086 14.11649227142334 11.284996032714844 14.11649227142334 L11.284996032714844 14.11649227142334 C11.11664867401123 14.767843246459961 10.948304176330566 15.419194221496582 10.779964447021484 16.070547103881836 L10.779964447021484 16.070547103881836 C12.38959789276123 16.070547103881836 13.999229431152344 16.070547103881836 15.60886287689209 16.070547103881836 L15.60886287689209 16.070547103881836 C15.474137306213379 16.857152938842773 15.339418411254883 17.643760681152344 15.20470905303955 18.430368423461914 L15.20470905303955 18.430368423461914 C13.919624328613281 18.430368423461914 12.634538650512695 18.430368423461914 11.349453926086426 18.430368423461914 C10.064369201660156 18.430368423461914 8.77928352355957 18.430368423461914 7.494198799133301 18.430368423461914 L7.494198799133301 18.430368423461914 C7.830680847167969 16.630361557006836 8.167213439941406 14.830362319946289 8.503753662109375 13.030364036560059 C8.840293884277344 11.230365753173828 9.17684268951416 9.43036937713623 9.513357162475586 7.630367755889893 L9.513357162475586 7.630367755889893"></path></svg>