<svg xmlns="http://www.w3.org/2000/svg" viewBox="0.0 0.0 24.0 24.0" height="200px" width="200px"><path fill="none" stroke="black" stroke-width=".3" stroke-opacity="1.0"  filling="0" d="M8.668450355529785 8.001341819763184 L8.668450355529785 8.001341819763184 C9.531413078308105 8.001341819763184 10.394376754760742 8.001341819763184 11.257339477539062 8.001341819763184 L11.257339477539062 8.001341819763184 C11.217034339904785 8.262398719787598 10.724390029907227 11.451839447021484 10.685447692871094 11.703852653503418 L10.685447692871094 11.703852653503418 C11.88354206085205 11.703852653503418 13.081636428833008 11.703852653503418 14.279730796813965 11.703852653503418 L14.279730796813965 11.703852653503418 C14.302678108215332 11.590118408203125 15.006573677062988 8.101180076599121 15.022539138793945 8.022041320800781 L15.022539138793945 8.022041320800781 C15.346822738647461 8.022041320800781 17.358522415161133 8.022041320800781 17.630945205688477 8.022041320800781 L17.630945205688477 8.022041320800781 C17.32318115234375 9.672417640686035 17.015422821044922 11.322795867919922 16.707651138305664 12.973170280456543 C16.399877548217773 14.62354564666748 16.092090606689453 16.27391815185547 15.784273147583008 17.924283981323242 L15.784273147583008 17.924283981323242 C15.772459030151367 17.924283981323242 13.210826873779297 17.924283981323242 13.210465431213379 17.924283981323242 L13.210465431213379 17.924283981323242 C13.216391563415527 17.88741683959961 13.805511474609375 14.221902847290039 13.807195663452148 14.211423873901367 L13.807195663452148 14.211423873901367 C13.672426223754883 14.211423873901367 10.310535430908203 14.211423873901367 10.203154563903809 14.211423873901367 L10.203154563903809 14.211423873901367 C9.936790466308594 15.449846267700195 9.67035961151123 16.688255310058594 9.403865814208984 17.92664909362793 L9.403865814208984 17.92664909362793 C8.546225547790527 17.92664909362793 7.68858528137207 17.92664909362793 6.830945014953613 17.92664909362793 L6.830945014953613 17.92664909362793 C7.137223720550537 16.272438049316406 7.443493843078613 14.618223190307617 7.749747276306152 12.964004516601562 C8.056000709533691 11.309786796569824 8.362237930297852 9.65556526184082 8.668450355529785 8.001341819763184 L8.668450355529785 8.001341819763184"></path></svg>