<svg xmlns="http://www.w3.org/2000/svg" viewBox="0.0 0.0 24.0 24.0" height="200px" width="200px"><path fill="none" stroke="black" stroke-width=".3" stroke-opacity="1.0"  filling="0" d="M15.219247817993164 7.91887903213501 L15.219247817993164 7.91887903213501 C16.6502685546875 9.259172439575195 17.158817291259766 10.64904499053955 16.966896057128906 12.003443717956543 C16.774972915649414 13.357843399047852 15.882577896118164 14.67676830291748 14.511709213256836 15.875167846679688 L14.511709213256836 15.875167846679688 C15.107320785522461 16.046274185180664 15.702932357788086 16.21738052368164 16.29854393005371 16.388486862182617 L16.29854393005371 16.388486862182617 C16.069475173950195 16.982881546020508 15.840407371520996 17.5772762298584 15.611339569091797 18.17167091369629 L15.611339569091797 18.17167091369629 C14.590545654296875 17.782913208007812 13.06882095336914 17.417991638183594 11.653698921203613 16.902179718017578 C10.238576889038086 16.386367797851562 8.930057525634766 15.719663619995117 8.335671424865723 14.727341651916504 C7.484671115875244 13.30660343170166 7.570455551147461 11.696942329406738 8.242298126220703 10.34863567352295 C8.914140701293945 9.00032901763916 10.172042846679688 7.9133758544921875 11.665275573730469 7.538053512573242 C13.321276664733887 7.121819972991943 13.652644157409668 7.450550079345703 15.219247817993164 7.91887903213501 L15.219247817993164 7.91887903213501"></path>
<path fill="none" stroke="black" stroke-width=".3" stroke-opacity="1.0"  filling="0" d="M13.495763778686523 9.453096389770508 L13.495763778686523 9.453096389770508 C15.130114555358887 11.008071899414062 14.69410228729248 15.299519538879395 11.65209674835205 14.493461608886719 C10.294590950012207 14.133755683898926 10.044858932495117 12.474052429199219 10.406506538391113 11.313904762268066 C10.935120582580566 9.618136405944824 12.00025463104248 9.290876388549805 13.495763778686523 9.453096389770508 L13.495763778686523 9.453096389770508"></path></svg>