<svg xmlns="http://www.w3.org/2000/svg" viewBox="0.0 0.0 24.0 24.0" height="200px" width="200px"><path fill="none" stroke="black" stroke-width=".3" stroke-opacity="1.0"  filling="0" d="M9.664129257202148 6.263887882232666 C14.964312553405762 3.005260467529297 21.327356338500977 5.841566562652588 21.838878631591797 11.960186958312988 C22.149826049804688 15.680444717407227 21.15399169921875 18.914377212524414 18.467363357543945 21.532974243164062 C15.900677680969238 24.035152435302734 12.171852111816406 24.805208206176758 9.206026077270508 23.405197143554688 C5.943871021270752 21.86508560180664 4.757541656494141 19.067584991455078 4.827087879180908 14.482523918151855 C4.882019519805908 11.69510269165039 6.217019557952881 8.38355827331543 9.664129257202148 6.263887882232666"></path>
<path fill="none" stroke="black" stroke-width=".3" stroke-opacity="1.0"  filling="0" d="M16.048843383789062 7.303564548492432 C18.274343490600586 8.161813735961914 19.517120361328125 10.250741958618164 19.536773681640625 13.56480598449707 C19.36643409729004 15.727816581726074 18.713298797607422 18.13071632385254 16.8682861328125 20.02007484436035 C15.251068115234375 21.675090789794922 13.317864418029785 22.514694213867188 10.956795692443848 21.78948974609375 C8.569520950317383 21.056224822998047 7.4361066818237305 19.248506546020508 7.190676689147949 16.940858840942383 C6.898378372192383 14.193249702453613 7.498598575592041 11.597837448120117 9.335545539855957 9.421722412109375 C11.21432113647461 7.1962199211120605 13.749258041381836 6.417092323303223 16.048843383789062 7.303564548492432"></path></svg>