<svg xmlns="http://www.w3.org/2000/svg" viewBox="0.0 0.0 24.0 24.0" height="200px" width="200px"><path fill="none" stroke="black" stroke-width=".3" stroke-opacity="1.0"  filling="0" d="M14.628296852111816 6.32470703125 C16.214948654174805 6.32470703125 17.78278923034668 6.32470703125 19.668819427490234 6.32470703125 C16.789520263671875 11.505514144897461 14.633134841918945 16.91313934326172 10.9825439453125 21.480140686035156 C9.115324020385742 23.815509796142578 7.70711612701416 24.628183364868164 4.410189628601074 25.52470588684082 C4.1323113441467285 24.13907241821289 3.8920555114746094 22.939407348632812 3.6636247634887695 21.79833221435547 C3.8393821716308594 21.58602523803711 3.921616554260254 21.39844512939453 4.061362266540527 21.330720901489258 C8.281148910522461 19.292043685913086 8.350484848022461 19.16788673400879 7.221230983734131 14.59443473815918 C6.5595879554748535 11.915077209472656 5.859247207641602 9.244857788085938 5.121281147003174 6.354269027709961 C6.7993059158325195 6.354269027709961 8.34188461303711 6.354269027709961 10.054845809936523 6.354269027709961 C10.47730827331543 8.535378456115723 10.905683517456055 10.748736381530762 11.334595680236816 12.962095260620117 C11.494766235351562 12.972845077514648 11.654935836791992 12.983057022094727 11.815106391906738 12.993806838989258 C12.735279083251953 10.812697410583496 13.655450820922852 8.631587982177734 14.628296852111816 6.32470703125"></path></svg>