<svg xmlns="http://www.w3.org/2000/svg" viewBox="0.0 0.0 24.0 24.0" height="200px" width="200px"><path fill="none" stroke="black" stroke-width=".3" stroke-opacity="1.0"  filling="0" d="M16.793899536132812 5.236483097076416 C18.585147857666016 5.749513626098633 19.924373626708984 6.729673862457275 20.213134765625 8.712655067443848 C20.525135040283203 10.859479904174805 19.42877197265625 12.1824369430542 17.606731414794922 13.063244819641113 C17.261611938476562 13.229994773864746 16.925207138061523 13.415336608886719 16.373830795288086 13.701772689819336 C18.352745056152344 14.748749732971191 19.7634334564209 16.129806518554688 19.434581756591797 18.412006378173828 C19.097599029541016 20.752307891845703 17.512027740478516 22.147308349609375 15.408775329589844 22.95026397705078 C11.72808837890625 24.355140686035156 8.084004402160645 24.289485931396484 4.101773738861084 22.42038345336914 C4.619451999664307 21.021896362304688 5.041845798492432 19.881378173828125 5.501422882080078 18.64092445373535 C6.827864170074463 18.929683685302734 7.9282941818237305 19.24924087524414 9.050802230834961 19.388681411743164 C9.994939804077148 19.506046295166016 11.037850379943848 19.634449005126953 11.901808738708496 19.348590850830078 C12.669901847839355 19.0941104888916 13.25207233428955 18.27779197692871 13.916165351867676 17.70956802368164 C13.334576606750488 17.153541564941406 12.837814331054688 16.423795700073242 12.149319648742676 16.08797264099121 C11.406209945678711 15.726003646850586 10.48356819152832 15.73181438446045 9.427295684814453 15.538339614868164 C9.598692893981934 14.411764144897461 9.765442848205566 13.320049285888672 9.916504859924316 12.329431533813477 C11.556109428405762 11.315572738647461 13.938243865966797 12.371845245361328 14.8219575881958 9.97867202758789 C12.718707084655762 7.925970077514648 10.445802688598633 9.571966171264648 7.961411952972412 9.571966171264648 C7.72726583480835 8.614465713500977 7.464649677276611 7.540180683135986 7.175888538360596 6.357828617095947 C10.360395431518555 4.639787197113037 13.497838973999023 4.292925834655762 16.793899536132812 5.236483097076416"></path></svg>