<svg xmlns="http://www.w3.org/2000/svg" viewBox="0.0 0.0 24.0 24.0" height="200px" width="200px"><path fill="none" stroke="black" stroke-width=".3" stroke-opacity="1.0"  filling="0" d="M8.145387649536133 7.627574920654297 L8.145387649536133 7.627574920654297 C8.927580833435059 7.627574920654297 9.709774017333984 7.627574920654297 10.49196720123291 7.627574920654297 L10.49196720123291 7.627574920654297 C10.49196720123291 8.975991249084473 10.49196720123291 10.324407577514648 10.49196720123291 11.672825813293457 L10.49196720123291 11.672825813293457 C11.818808555603027 11.672825813293457 13.145649909973145 11.672825813293457 14.472491264343262 11.672825813293457 L14.472491264343262 11.672825813293457 C14.472491264343262 10.339008331298828 14.472491264343262 9.005188941955566 14.472491264343262 7.671370029449463 L14.472491264343262 7.671370029449463 C15.277118682861328 7.671370029449463 16.081745147705078 7.671370029449463 16.88637351989746 7.671370029449463 L16.88637351989746 7.671370029449463 C16.88637351989746 9.464070320129395 16.88637351989746 11.256771087646484 16.88637351989746 13.049471855163574 C16.88637351989746 14.842172622680664 16.88637351989746 16.634872436523438 16.88637351989746 18.427574157714844 L16.88637351989746 18.427574157714844 C16.857215881347656 18.427574157714844 14.587700843811035 18.427574157714844 14.583589553833008 18.427574157714844 L14.583589553833008 18.427574157714844 C14.583589553833008 16.977184295654297 14.583589553833008 15.5267915725708 14.583589553833008 14.07640266418457 L14.583589553833008 14.07640266418457 C14.111211776733398 14.07640266418457 11.036087036132812 14.07640266418457 10.589862823486328 14.07640266418457 L10.589862823486328 14.07640266418457 C10.589862823486328 15.513912200927734 10.589862823486328 16.9514217376709 10.589862823486328 18.388931274414062 L10.589862823486328 18.388931274414062 C10.552857398986816 18.388931274414062 8.193968772888184 18.388931274414062 8.145065307617188 18.388931274414062 L8.145065307617188 18.388931274414062 C8.145203590393066 16.59537124633789 8.145282745361328 14.801813125610352 8.145328521728516 13.00825309753418 C8.145374298095703 11.214693069458008 8.1453857421875 9.421133995056152 8.145387649536133 7.627574920654297 L8.145387649536133 7.627574920654297"></path></svg>