<svg xmlns="http://www.w3.org/2000/svg" viewBox="0.0 0.0 24.0 24.0" height="200px" width="200px"><path fill="none" stroke="black" stroke-width=".3" stroke-opacity="1.0"  filling="0" d="M16.297908782958984 5.015023708343506 C18.103626251220703 5.015023708343506 19.708248138427734 5.015023708343506 21.502046585083008 5.015023708343506 C21.822349548339844 10.7929048538208 22.135395050048828 16.450542449951172 22.459842681884766 22.308761596679688 C21.21439552307129 22.308761596679688 20.059648513793945 22.308761596679688 18.53017807006836 22.308761596679688 C18.53017807006836 18.29720687866211 18.53017807006836 14.27476978302002 18.53017807006836 10.251812934875488 C18.273624420166016 10.231599807739258 18.016035079956055 10.211904525756836 17.75896453857422 10.192209243774414 C16.55135154724121 14.101659774780273 15.344258308410645 18.011112213134766 14.108657836914062 22.01177978515625 C13.006776809692383 22.01177978515625 12.017362594604492 22.01177978515625 10.913408279418945 22.01177978515625 C9.864391326904297 18.09351921081543 8.848546028137207 14.299646377563477 7.832181930541992 10.505254745483398 C7.696908950805664 10.501626968383789 7.562153339385986 10.49799919128418 7.426880359649658 10.49437141418457 C7.235113620758057 14.40693187713623 7.043346881866455 18.31949234008789 6.84536075592041 22.359554290771484 C5.661071300506592 22.359554290771484 4.664920806884766 22.359554290771484 3.2598400115966797 22.359554290771484 C3.6013927459716797 16.59773826599121 3.9398345947265625 10.886716842651367 4.2865705490112305 5.034201145172119 C6.085031986236572 5.034201145172119 7.68757963180542 5.034201145172119 9.607839584350586 5.034201145172119 C10.613838195800781 8.597953796386719 11.648341178894043 12.264327049255371 12.826930046081543 16.440696716308594 C14.090517044067383 12.2814302444458 15.196545600891113 8.639934539794922 16.297908782958984 5.015023708343506"></path></svg>