<svg xmlns="http://www.w3.org/2000/svg" viewBox="0.0 0.0 24.0 24.0" height="200px" width="200px"><path fill="none" stroke="black" stroke-width=".3" stroke-opacity="1.0"  filling="0" d="M7.204922676086426 7.630382061004639 L7.204922676086426 7.630382061004639 C8.094289779663086 7.630382061004639 8.983657836914062 7.630382061004639 9.873024940490723 7.630382061004639 L9.873024940490723 7.630382061004639 C10.256205558776855 8.991487503051758 10.639348030090332 10.3526029586792 11.022482872009277 11.71372127532959 C11.405616760253906 13.07483959197998 11.78874397277832 14.43596076965332 12.171891212463379 15.797075271606445 L12.171891212463379 15.797075271606445 C12.566801071166992 14.438039779663086 12.961743354797363 13.07901382446289 13.356705665588379 11.71999454498291 C13.751667976379395 10.360974311828613 14.146650314331055 9.001959800720215 14.541640281677246 7.642947673797607 L14.541640281677246 7.642947673797607 C14.58708381652832 7.642947673797607 17.068973541259766 7.642947673797607 17.144981384277344 7.642947673797607 L17.144981384277344 7.642947673797607 C16.54535675048828 9.440865516662598 15.945722579956055 11.238779067993164 15.346065521240234 13.036685943603516 C14.74640941619873 14.834592819213867 14.146732330322266 16.632492065429688 13.547022819519043 18.430381774902344 L13.547022819519043 18.430381774902344 C12.575065612792969 18.430381774902344 11.603108406066895 18.430381774902344 10.63115119934082 18.430381774902344 L10.63115119934082 18.430381774902344 C10.060199737548828 16.630353927612305 9.489192962646484 14.830344200134277 8.918149948120117 13.030345916748047 C8.347105979919434 11.230348587036133 7.776024341583252 9.430362701416016 7.204922676086426 7.630382061004639 L7.204922676086426 7.630382061004639"></path></svg>