<svg xmlns="http://www.w3.org/2000/svg" viewBox="0.0 0.0 24.0 24.0" height="200px" width="200px"><path fill="none" stroke="black" stroke-width=".3" stroke-opacity="1.0"  filling="0" d="M8.627510070800781 7.321927070617676 L8.627510070800781 7.321927070617676 C9.35511589050293 7.321927070617676 10.082721710205078 7.321927070617676 10.810327529907227 7.321927070617676 L10.810327529907227 7.321927070617676 C10.810327529907227 7.372217655181885 10.810327529907227 11.162617683410645 10.810327529907227 11.27624797821045 L10.810327529907227 11.27624797821045 C12.102910995483398 11.12292194366455 13.717923164367676 10.640426635742188 14.867969512939453 11.512935638427734 C15.928842544555664 12.317790985107422 16.334501266479492 13.736306190490723 16.143245697021484 15.054957389831543 C15.951991081237793 16.373607635498047 15.163822174072266 17.592395782470703 13.837042808532715 17.997791290283203 C12.545320510864258 18.39247703552246 11.821550369262695 17.815963745117188 10.66156005859375 17.332462310791016 L10.66156005859375 17.332462310791016 C10.516343116760254 17.595617294311523 10.371127128601074 17.85877227783203 10.225910186767578 18.12192726135254 L10.225910186767578 18.12192726135254 C9.693110466003418 18.12192726135254 9.160309791564941 18.12192726135254 8.627510070800781 18.12192726135254 L8.627510070800781 18.12192726135254 C8.627510070800781 16.321928024291992 8.627510070800781 14.521927833557129 8.627510070800781 12.721927642822266 C8.627510070800781 10.921927452087402 8.627510070800781 9.121927261352539 8.627510070800781 7.321927070617676 L8.627510070800781 7.321927070617676"></path>
<path fill="none" stroke="black" stroke-width=".3" stroke-opacity="1.0"  filling="0" d="M12.290078163146973 12.680551528930664 L12.290078163146973 12.680551528930664 C12.654121398925781 12.85938549041748 13.130471229553223 12.899031639099121 13.382208824157715 13.217053413391113 C14.164945602416992 14.205889701843262 13.859384536743164 16.30272102355957 12.300422668457031 16.321216583251953 C10.712908744812012 16.340049743652344 10.482072830200195 14.085526466369629 11.253202438354492 13.131604194641113 C11.490151405334473 12.83848762512207 11.944453239440918 12.830902099609375 12.290078163146973 12.680551528930664 L12.290078163146973 12.680551528930664"></path></svg>