<svg xmlns="http://www.w3.org/2000/svg" viewBox="0.0 0.0 24.0 24.0" height="200px" width="200px"><path fill="none" stroke="black" stroke-width=".3" stroke-opacity="1.0"  filling="0" d="M16.781898498535156 10.770414352416992 L16.781898498535156 10.770414352416992 C16.680896759033203 11.332767486572266 16.57989501953125 11.895119667053223 16.478893280029297 12.457472801208496 L16.478893280029297 12.457472801208496 C15.182153701782227 12.88443660736084 13.219669342041016 13.21875 12.103130340576172 14.05280876159668 C10.901962280273438 14.950085639953613 11.43075942993164 17.218353271484375 12.605438232421875 17.83368682861328 C13.749120712280273 18.432783126831055 15.273815155029297 18.413406372070312 16.48072052001953 18.524856567382812 L16.48072052001953 18.524856567382812 C16.57682228088379 19.193843841552734 16.672956466674805 19.862825393676758 16.769121170043945 20.531803131103516 L16.769121170043945 20.531803131103516 C14.495372772216797 21.142297744750977 12.130263328552246 21.597089767456055 10.033578872680664 20.14305305480957 C8.339561462402344 18.96826171875 7.7290849685668945 17.031661987304688 7.997065544128418 15.197714805603027 C8.265046119689941 13.36376667022705 9.411483764648438 11.632471084594727 11.231292724609375 10.868291854858398 C13.107995986938477 10.080221176147461 14.866146087646484 10.406635284423828 16.781898498535156 10.770414352416992 L16.781898498535156 10.770414352416992"></path></svg>