<svg xmlns="http://www.w3.org/2000/svg" viewBox="0.0 0.0 24.0 24.0" height="200px" width="200px"><path fill="none" stroke="black" stroke-width=".3" stroke-opacity="1.0"  filling="0" d="M15.961122512817383 6.937995433807373 L15.961122512817383 6.937995433807373 C15.3914794921875 8.750885009765625 14.457901954650879 10.386488914489746 13.43576717376709 11.97964859008789 C12.413633346557617 13.572807312011719 11.302942276000977 15.12352180480957 10.379074096679688 16.766630172729492 L10.379074096679688 16.766630172729492 C12.193416595458984 16.87373924255371 13.969314575195312 16.840208053588867 15.776100158691406 17.041519165039062 L15.776100158691406 17.041519165039062 C15.742400169372559 17.272136688232422 15.708699226379395 17.50275421142578 15.674999237060547 17.73337173461914 L15.674999237060547 17.73337173461914 C13.406717300415039 17.73309898376465 11.138437271118164 17.733047485351562 8.87015438079834 17.73303985595703 L8.87015438079834 17.73303985595703 C9.58065414428711 15.971306800842285 10.545370101928711 14.338323593139648 11.57086181640625 12.736989974975586 C12.596354484558105 11.135655403137207 13.682623863220215 9.565971374511719 14.636232376098633 7.930837154388428 L14.636232376098633 7.930837154388428 C12.8867826461792 7.930837154388428 11.137334823608398 7.930837154388428 9.387885093688965 7.930837154388428 L9.387885093688965 7.930837154388428 C9.319162368774414 7.812445163726807 9.25044059753418 7.694052696228027 9.181717872619629 7.575660705566406 L9.181717872619629 7.575660705566406 C10.664839744567871 6.262628555297852 14.02717113494873 6.934886455535889 15.961122512817383 6.937995433807373 L15.961122512817383 6.937995433807373"></path></svg>