<svg xmlns="http://www.w3.org/2000/svg" viewBox="0.0 0.0 24.0 24.0" height="200px" width="200px"><path fill="none" stroke="black" stroke-width=".3" stroke-opacity="1.0"  filling="0" d="M10.951271057128906 10.924283027648926 L10.951271057128906 10.924283027648926 C11.624884605407715 11.140628814697266 12.274988174438477 11.433743476867676 12.900293350219727 11.764732360839844 L12.900293350219727 11.764732360839844 C15.26464557647705 10.122076988220215 16.40617561340332 10.912117004394531 16.95128631591797 12.471895217895508 C17.496397018432617 14.031673431396484 17.445087432861328 16.361190795898438 17.42376136779785 17.797489166259766 L17.42376136779785 17.797489166259766 C17.356983184814453 17.797489166259766 15.312630653381348 17.797489166259766 15.305769920349121 17.797489166259766 L15.305769920349121 17.797489166259766 C15.308732032775879 16.721817016601562 15.623430252075195 14.757554054260254 15.206323623657227 13.760690689086914 C15.019691467285156 13.31464958190918 14.722773551940918 12.666266441345215 14.239439964294434 12.679399490356445 C12.433844566345215 12.728459358215332 13.088814735412598 16.7958927154541 13.089505195617676 17.808635711669922 L13.089505195617676 17.808635711669922 C12.381845474243164 17.808635711669922 11.674185752868652 17.808635711669922 10.96652603149414 17.808635711669922 L10.96652603149414 17.808635711669922 C10.96690559387207 16.8787841796875 11.326699256896973 14.841691017150879 10.941884994506836 13.98569107055664 C10.710161209106445 13.470232963562012 10.419750213623047 12.672744750976562 9.854726791381836 12.684680938720703 C8.132293701171875 12.721068382263184 8.771201133728027 16.99452781677246 8.77578353881836 17.78165054321289 L8.77578353881836 17.78165054321289 C8.07203483581543 17.781475067138672 7.368285655975342 17.78137969970703 6.664536952972412 17.781356811523438 L6.664536952972412 17.781356811523438 C6.664536952972412 15.501140594482422 6.664536952972412 13.220926284790039 6.664536952972412 10.940710067749023 L6.664536952972412 10.940710067749023 C7.3282389640808105 10.863099098205566 8.085429191589355 11.05899715423584 8.590677261352539 11.496315956115723 L8.590677261352539 11.496315956115723 C9.363885879516602 11.256186485290527 10.153340339660645 11.06147289276123 10.951271057128906 10.924283027648926 L10.951271057128906 10.924283027648926"></path></svg>