<svg xmlns="http://www.w3.org/2000/svg" viewBox="0.0 0.0 24.0 24.0" height="200px" width="200px"><path fill="none" stroke="black" stroke-width=".3" stroke-opacity="1.0"  filling="0" d="M9.884052276611328 8.389167785644531 L9.884052276611328 8.389167785644531 C10.180086135864258 9.905126571655273 10.476179122924805 11.421072959899902 10.772282600402832 12.937018394470215 C11.068387031555176 14.452962875366211 11.364501953125 15.96890640258789 11.660581588745117 17.48485565185547 L11.660581588745117 17.48485565185547 C12.470237731933594 15.984993934631348 13.279901504516602 14.485135078430176 14.089577674865723 12.985283851623535 C14.89925479888916 11.485433578491211 15.708944320678711 9.985589981079102 16.51865577697754 8.485757827758789 L16.51865577697754 8.485757827758789 C17.021665573120117 8.45967960357666 17.524673461914062 8.433600425720215 18.02768325805664 8.407522201538086 L18.02768325805664 8.407522201538086 C17.051074981689453 10.204475402832031 16.074451446533203 12.001419067382812 15.097820281982422 13.798358917236328 C14.12118911743164 15.595297813415527 13.144548416137695 17.39223289489746 12.167903900146484 19.189167022705078 L12.167903900146484 19.189167022705078 C11.64543628692627 19.189167022705078 11.122969627380371 19.189167022705078 10.600502014160156 19.189167022705078 L10.600502014160156 19.189167022705078 C10.257402420043945 17.410083770751953 9.91430377960205 15.630999565124512 9.571219444274902 13.851913452148438 C9.22813606262207 12.072827339172363 8.885066986083984 10.29373836517334 8.542025566101074 8.514643669128418 L8.542025566101074 8.514643669128418 C8.989367485046387 8.472818374633789 9.436710357666016 8.43099308013916 9.884052276611328 8.389167785644531 L9.884052276611328 8.389167785644531"></path></svg>