<svg xmlns="http://www.w3.org/2000/svg" viewBox="0.0 0.0 24.0 24.0" height="200px" width="200px"><path fill="none" stroke="black" stroke-width=".3" stroke-opacity="1.0"  filling="0" d="M15.40614128112793 7.313167095184326 L15.40614128112793 7.313167095184326 C16.04392433166504 7.313167095184326 16.68170928955078 7.313167095184326 17.31949234008789 7.313167095184326 L17.31949234008789 7.313167095184326 C16.373777389526367 9.216265678405762 15.427985191345215 11.11932373046875 14.4823637008667 13.022470474243164 L14.4823637008667 13.022470474243164 C14.427478790283203 13.00450611114502 14.372594833374023 12.986541748046875 14.317709922790527 12.96857738494873 L14.317709922790527 12.96857738494873 C14.950469017028809 11.193387985229492 16.441808700561523 9.05141544342041 15.40614128112793 7.313167095184326 L15.40614128112793 7.313167095184326"></path>
<path fill="none" stroke="black" stroke-width=".3" stroke-opacity="1.0"  filling="0" d="M7.416489124298096 7.621644020080566 L7.416489124298096 7.621644020080566 C8.134394645690918 7.621644020080566 8.852300643920898 7.621644020080566 9.570206642150879 7.621644020080566 L9.570206642150879 7.621644020080566 C10.106487274169922 8.957134246826172 10.642791748046875 10.292611122131348 11.179126739501953 11.628076553344727 C11.715460777282715 12.963541984558105 12.251824378967285 14.298995971679688 12.788220405578613 15.634440422058105 L12.788220405578613 15.634440422058105 C13.035090446472168 15.43848705291748 13.281959533691406 15.242534637451172 13.528829574584961 15.046581268310547 L13.528829574584961 15.046581268310547 C13.606307029724121 15.085265159606934 13.683783531188965 15.123948097229004 13.761260986328125 15.16263198852539 L13.761260986328125 15.16263198852539 C13.558300018310547 15.564835548400879 12.484326362609863 17.6931095123291 12.281365394592285 18.095312118530273 L12.281365394592285 18.095312118530273 C12.131369590759277 18.10126304626465 11.981374740600586 18.107215881347656 11.831378936767578 18.11316680908203 L11.831378936767578 18.11316680908203 C11.095643997192383 16.364545822143555 10.359870910644531 14.615942001342773 9.624056816101074 12.867353439331055 C8.888243675231934 11.118766784667969 8.152388572692871 9.370195388793945 7.416489124298096 7.621644020080566 L7.416489124298096 7.621644020080566"></path></svg>