<svg xmlns="http://www.w3.org/2000/svg" viewBox="0.0 0.0 24.0 24.0" height="200px" width="200px"><path fill="none" stroke="black" stroke-width=".3" stroke-opacity="1.0"  filling="0" d="M10.894121170043945 10.095865249633789 C11.937690734863281 10.095865249633789 12.873395919799805 10.095865249633789 13.968801498413086 10.095865249633789 C14.695058822631836 12.878890991210938 15.411367416381836 15.622645378112793 16.241300582885742 18.80414390563965 C16.923051834106445 15.606412887573242 17.50112533569336 12.89669418334961 18.095430374145508 10.108431816101074 C19.335355758666992 10.108431816101074 20.44333267211914 10.108431816101074 21.93773651123047 10.108431816101074 C20.64596939086914 14.284804344177246 19.405521392822266 18.295711517333984 18.1158504486084 22.46527862548828 C16.719886779785156 22.46527862548828 15.607722282409668 22.46527862548828 14.3541841506958 22.46527862548828 C13.71589469909668 20.181781768798828 13.091742515563965 17.95169448852539 12.295320510864258 15.102170944213867 C11.466434478759766 17.936511993408203 10.81086540222168 20.17864227294922 10.138541221618652 22.476272583007812 C8.922178268432617 22.476272583007812 7.805302619934082 22.476272583007812 6.400960445404053 22.476272583007812 C5.2123494148254395 18.484214782714844 4.009077548980713 14.443460464477539 2.7382583618164062 10.17650318145752 C4.140505313873291 10.17650318145752 5.308695316314697 10.17650318145752 6.723509311676025 10.17650318145752 C7.26021671295166 12.801396369934082 7.812633514404297 15.504308700561523 8.482339859008789 18.782154083251953 C9.372489929199219 15.576044082641602 10.12545108795166 12.864230155944824 10.894121170043945 10.095865249633789"></path></svg>