<svg xmlns="http://www.w3.org/2000/svg" viewBox="0.0 0.0 24.0 24.0" height="200px" width="200px"><path fill="none" stroke="black" stroke-width=".3" stroke-opacity="1.0"  filling="0" d="M9.295721054077148 7.86956262588501 L9.295721054077148 7.86956262588501 C11.09482192993164 7.5744500160217285 12.954692840576172 7.150060176849365 14.365160942077637 8.707393646240234 C15.247922897338867 9.682073593139648 15.690269470214844 11.384066581726074 15.655522346496582 13.0669584274292 C15.62077522277832 14.74985122680664 15.108935356140137 16.41364097595215 14.08332633972168 17.31191635131836 C12.756315231323242 18.474172592163086 10.917774200439453 18.322851181030273 9.295721054077148 18.324674606323242 L9.295721054077148 18.324674606323242 C9.295721054077148 16.582155227661133 9.295721054077148 14.83963680267334 9.295721054077148 13.097118377685547 C9.295721054077148 11.354599952697754 9.295721054077148 9.612081527709961 9.295721054077148 7.86956262588501 L9.295721054077148 7.86956262588501"></path>
<path fill="none" stroke="black" stroke-width=".3" stroke-opacity="1.0"  filling="0" d="M11.296588897705078 9.362606048583984 L11.296588897705078 9.362606048583984 C12.921951293945312 9.595977783203125 13.653239250183105 11.19149398803711 13.612503051757812 12.832758903503418 C13.571767807006836 14.474023818969727 12.759007453918457 16.161035537719727 11.296272277832031 16.57740020751953 L11.296272277832031 16.57740020751953 C11.296278953552246 14.172469139099121 11.296341896057129 11.767536163330078 11.296588897705078 9.362606048583984 L11.296588897705078 9.362606048583984"></path></svg>