<svg xmlns="http://www.w3.org/2000/svg" viewBox="0.0 0.0 24.0 24.0" height="200px" width="200px"><path fill="none" stroke="black" stroke-width=".3" stroke-opacity="1.0"  filling="0" d="M9.6279935836792 7.858564376831055 L9.6279935836792 7.858564376831055 C10.984796524047852 7.570112705230713 12.883402824401855 7.620296955108643 14.167372703552246 8.244420051574707 C15.45134162902832 8.86854362487793 16.120676040649414 10.066606521606445 15.018933296203613 12.073911666870117 C14.786887168884277 12.496685028076172 14.378471374511719 12.795119285583496 14.05824089050293 13.155723571777344 L14.05824089050293 13.155723571777344 C15.088834762573242 14.880784034729004 15.354927062988281 16.35687828063965 15.780303001403809 18.311737060546875 L15.780303001403809 18.311737060546875 C15.122357368469238 18.311737060546875 14.464410781860352 18.311737060546875 13.806465148925781 18.311737060546875 L13.806465148925781 18.311737060546875 C13.134167671203613 16.374011993408203 13.113727569580078 15.30046558380127 11.712141990661621 13.725080490112305 L11.712141990661621 13.725080490112305 C11.712141990661621 15.228426933288574 11.712141990661621 16.731775283813477 11.712141990661621 18.235122680664062 L11.712141990661621 18.235122680664062 C11.017425537109375 18.235122680664062 10.322710037231445 18.235122680664062 9.6279935836792 18.235122680664062 L9.6279935836792 18.235122680664062 C9.6279935836792 16.505695343017578 9.6279935836792 14.776269912719727 9.6279935836792 13.046843528747559 C9.6279935836792 11.31741714477539 9.6279935836792 9.587990760803223 9.6279935836792 7.858564376831055 L9.6279935836792 7.858564376831055"></path>
<path fill="none" stroke="black" stroke-width=".3" stroke-opacity="1.0"  filling="0" d="M11.665410995483398 9.40037727355957 L11.665410995483398 9.40037727355957 C12.581147193908691 9.508137702941895 14.412264823913574 10.187692642211914 13.090554237365723 11.625871658325195 C12.738058090209961 12.009428977966309 12.140459060668945 12.053420066833496 11.665410995483398 12.267194747924805 L11.665410995483398 12.267194747924805 C11.665410995483398 11.311589241027832 11.665410995483398 10.355982780456543 11.665410995483398 9.40037727355957 L11.665410995483398 9.40037727355957"></path></svg>