<svg xmlns="http://www.w3.org/2000/svg" viewBox="0.0 0.0 24.0 24.0" height="200px" width="200px"><path fill="none" stroke="black" stroke-width=".3" stroke-opacity="1.0"  filling="0" d="M7.997806549072266 7.023698329925537 L7.997806549072266 7.023698329925537 C9.303903579711914 7.550328254699707 10.757168769836426 7.697212219238281 12.234010696411133 7.709860324859619 C13.710851669311523 7.722508430480957 15.21126937866211 7.600921154022217 16.611671447753906 7.590607643127441 L16.611671447753906 7.590607643127441 C15.510709762573242 9.170967102050781 14.40974235534668 10.751321792602539 13.308759689331055 12.331665992736816 C12.207776069641113 13.912009239196777 11.10677719116211 15.492341995239258 10.00575065612793 17.072656631469727 L10.00575065612793 17.072656631469727 C10.060637474060059 17.191120147705078 10.115525245666504 17.30958366394043 10.170412063598633 17.42804718017578 L10.170412063598633 17.42804718017578 C12.893753051757812 17.456605911254883 14.627748489379883 17.61435317993164 16.971683502197266 16.073139190673828 L16.971683502197266 16.073139190673828 C16.84210968017578 16.656658172607422 16.71253776550293 17.24017906188965 16.582963943481445 17.823698043823242 L16.582963943481445 17.823698043823242 C14.977048873901367 17.82383155822754 13.371133804321289 17.82391357421875 11.765217781066895 17.82396125793457 C10.159302711486816 17.824010848999023 8.553386688232422 17.824026107788086 6.947472095489502 17.82402801513672 L6.947472095489502 17.82402801513672 C8.140290260314941 16.203638076782227 9.333101272583008 14.583244323730469 10.52592658996582 12.962860107421875 C11.718751907348633 11.342475891113281 12.911590576171875 9.722101211547852 14.104463577270508 8.101751327514648 L14.104463577270508 8.101751327514648 C11.328465461730957 7.91270112991333 9.559428215026855 7.695837020874023 7.222017288208008 9.348424911499023 L7.222017288208008 9.348424911499023 C7.480617523193359 8.573516845703125 7.739213943481445 7.798608303070068 7.997806549072266 7.023698329925537 L7.997806549072266 7.023698329925537"></path></svg>