<svg xmlns="http://www.w3.org/2000/svg" viewBox="0.0 0.0 24.0 24.0" height="200px" width="200px"><path fill="none" stroke="black" stroke-width=".3" stroke-opacity="1.0"  filling="0" d="M19.71087646484375 11.028915405273438 C20.422189712524414 11.732068061828613 20.908411026000977 12.987405776977539 20.924732208251953 13.99657154083252 C20.951251983642578 15.661288261413574 20.513992309570312 17.334163665771484 20.26578140258789 19.002960205078125 C19.854360580444336 21.767288208007812 19.43682098388672 24.530254364013672 19.00568199157715 27.40338897705078 C17.668060302734375 27.843368530273438 16.348800659179688 27.761085510253906 16.004024505615234 25.738670349121094 C14.865652084350586 26.437740325927734 14.038054466247559 27.040252685546875 13.132253646850586 27.482948303222656 C10.94731330871582 28.55059814453125 8.735851287841797 28.645124435424805 6.743359565734863 27.090572357177734 C4.9936394691467285 25.725749969482422 4.345569610595703 23.85294532775879 4.888914585113525 21.66460418701172 C5.496181964874268 19.218530654907227 7.116016864776611 17.762584686279297 9.563448905944824 17.35184669494629 C11.450536727905273 17.03495216369629 13.368224143981934 16.873783111572266 15.2791109085083 16.729616165161133 C16.724857330322266 16.620811462402344 18.061119079589844 16.46644401550293 18.09511947631836 14.584798812866211 C18.126401901245117 12.828277587890625 16.862224578857422 12.269292831420898 15.47156047821045 12.027200698852539 C13.623915672302246 11.706226348876953 11.681747436523438 11.836792945861816 10.470611572265625 13.377063751220703 C9.413843154907227 14.720805168151855 8.284311294555664 14.706524848937988 6.88344669342041 14.539236068725586 C8.600525856018066 9.237713813781738 15.881619453430176 7.24658203125 19.71087646484375 11.028915405273438"></path>
<path fill="none" stroke="black" stroke-width=".3" stroke-opacity="1.0"  filling="0" d="M16.977828979492188 18.96963882446289 C16.387561798095703 23.064788818359375 14.474634170532227 25.3143310546875 11.53689956665039 25.485698699951172 C9.877622604370117 25.58158302307129 8.269349098205566 25.259929656982422 7.904852390289307 23.29667854309082 C7.559396743774414 21.433391571044922 8.560402870178223 20.248779296875 10.359085083007812 19.91216278076172 C12.442700386047363 19.522502899169922 14.557597160339355 19.30557632446289 16.977828979492188 18.96963882446289"></path></svg>