<svg xmlns="http://www.w3.org/2000/svg" viewBox="0.0 0.0 24.0 24.0" height="200px" width="200px"><path fill="none" stroke="black" stroke-width=".3" stroke-opacity="1.0"  filling="0" d="M16.959884643554688 4.5567450523376465 C16.9090633392334 5.3236260414123535 16.855388641357422 6.125339031219482 16.805139541625977 6.883083343505859 C14.507922172546387 7.488935947418213 14.507922172546387 7.488935947418213 13.948322296142578 9.565738677978516 C14.642683029174805 9.715917587280273 15.329620361328125 9.864953994750977 16.123910903930664 10.036829948425293 C16.123910903930664 10.790006637573242 16.123910903930664 11.501498222351074 16.123910903930664 12.259814262390137 C15.376444816589355 12.43968677520752 14.750605583190918 12.5910062789917 13.889506340026855 12.798287391662598 C13.889507293701172 16.261526107788086 13.889507293701172 19.742469787597656 13.889507293701172 23.451820373535156 C12.510492324829102 23.451820373535156 11.570592880249023 23.451820373535156 10.34346866607666 23.451820373535156 C10.34346866607666 20.03369140625 10.34346866607666 16.66695213317871 10.34346866607666 13.526338577270508 C7.555174350738525 11.359314918518066 7.542612075805664 10.555317878723145 9.99571704864502 9.46124267578125 C11.011563301086426 4.787437438964844 12.61955738067627 3.6048526763916016 16.959884643554688 4.5567450523376465"></path></svg>