<svg xmlns="http://www.w3.org/2000/svg" viewBox="0.0 0.0 24.0 24.0" height="200px" width="200px"><path fill="none" stroke="black" stroke-width=".3" stroke-opacity="1.0"  filling="0" d="M9.295425415039062 7.685488224029541 L9.295425415039062 7.685488224029541 C9.964949607849121 7.685488224029541 10.634472846984863 7.685488224029541 11.303997039794922 7.685488224029541 L11.303997039794922 7.685488224029541 C11.303997039794922 8.905887603759766 11.303997039794922 10.126286506652832 11.303997039794922 11.346685409545898 L11.303997039794922 11.346685409545898 C11.86528205871582 11.18210506439209 13.090420722961426 10.806459426879883 13.463098526000977 10.83604907989502 C14.605420112609863 10.92674732208252 14.791961669921875 11.884017944335938 14.942084312438965 12.801919937133789 C15.23383617401123 14.585796356201172 14.996759414672852 16.597335815429688 14.973859786987305 18.395620346069336 L14.973859786987305 18.395620346069336 C14.314499855041504 18.42557716369629 13.655139923095703 18.45553207397461 12.995779991149902 18.485488891601562 L12.995779991149902 18.485488891601562 C13.000226974487305 17.081172943115234 13.013799667358398 15.676745414733887 12.986151695251465 14.272561073303223 C12.97579574584961 13.746604919433594 13.216047286987305 12.65674877166748 12.165776252746582 12.687336921691895 C11.158204078674316 12.716681480407715 11.380997657775879 13.797350883483887 11.369473457336426 14.325519561767578 C11.33987045288086 15.682235717773438 11.355850219726562 17.039710998535156 11.3601655960083 18.396583557128906 L11.3601655960083 18.396583557128906 C10.671918869018555 18.396583557128906 9.983672142028809 18.396583557128906 9.295425415039062 18.396583557128906 L9.295425415039062 18.396583557128906 C9.295425415039062 16.611400604248047 9.295425415039062 14.826217651367188 9.295425415039062 13.041035652160645 C9.295425415039062 11.255853652954102 9.295425415039062 9.470670700073242 9.295425415039062 7.685488224029541 L9.295425415039062 7.685488224029541"></path></svg>