<svg xmlns="http://www.w3.org/2000/svg" viewBox="0.0 0.0 24.0 24.0" height="200px" width="200px"><path fill="none" stroke="black" stroke-width=".3" stroke-opacity="1.0"  filling="0" d="M10.610548973083496 4.258481502532959 C14.620400428771973 3.6950559616088867 17.229921340942383 6.204594612121582 16.972909927368164 10.239147186279297 C16.802942276000977 12.903363227844238 15.472597122192383 15.052380561828613 13.966991424560547 17.124351501464844 C13.352398872375488 17.97007942199707 12.688403129577637 18.779340744018555 11.755044937133789 19.9820613861084 C13.77349853515625 20.084396362304688 15.3661470413208 20.165557861328125 17.14346694946289 20.255542755126953 C17.211101531982422 21.30535125732422 17.27109146118164 22.241058349609375 17.344606399536133 23.379085540771484 C13.827016830444336 23.379085540771484 10.461164474487305 23.379085540771484 7.094725131988525 23.379085540771484 C6.391913414001465 21.835840225219727 7.038265228271484 20.715457916259766 7.90986967086792 19.580371856689453 C9.277853012084961 17.798934936523438 10.596434593200684 15.977505683898926 11.867965698242188 14.126080513000488 C12.303768157958984 13.491491317749023 12.768976211547852 12.728691101074219 12.807205200195312 12.002941131591797 C12.874838829040527 10.716707229614258 13.04304313659668 9.090536117553711 12.371991157531738 8.225988388061523 C11.874435424804688 7.584929466247559 10.113582611083984 7.908987998962402 8.913803100585938 7.843117713928223 C8.6597318649292 7.8290019035339355 8.39625072479248 7.988384246826172 8.001029968261719 8.109539031982422 C7.75754451751709 7.235581874847412 7.529939651489258 6.418084621429443 7.2152910232543945 5.288291931152344 C8.449769973754883 4.903069019317627 9.506634712219238 4.413158893585205 10.610548973083496 4.258481502532959"></path></svg>