<svg xmlns="http://www.w3.org/2000/svg" viewBox="0.0 0.0 24.0 24.0" height="200px" width="200px"><path fill="none" stroke="black" stroke-width=".3" stroke-opacity="1.0"  filling="0" d="M12.28225040435791 7.642602920532227 L12.28225040435791 7.642602920532227 C12.92713451385498 7.642602920532227 13.572017669677734 7.642602920532227 14.216901779174805 7.642602920532227 L14.216901779174805 7.642602920532227 C13.793591499328613 9.851654052734375 13.401628494262695 12.068090438842773 12.936169624328613 14.268817901611328 C12.742817878723145 15.183000564575195 12.481802940368652 16.792537689208984 11.848865509033203 17.542781829833984 C10.907176971435547 18.659000396728516 9.671117782592773 18.352413177490234 8.403923034667969 18.389087677001953 L8.403923034667969 18.389087677001953 C8.539217948913574 17.81072235107422 8.674513816833496 17.232358932495117 8.809808731079102 16.653993606567383 L8.809808731079102 16.653993606567383 C9.288796424865723 16.52435302734375 9.877226829528809 16.596240997314453 10.246772766113281 16.265073776245117 C10.72181510925293 15.839365005493164 10.980087280273438 13.842909812927246 11.07650375366211 13.334076881408691 C11.437295913696289 11.430014610290527 11.788208961486816 9.516711235046387 12.28225040435791 7.642602920532227 L12.28225040435791 7.642602920532227"></path></svg>