<svg xmlns="http://www.w3.org/2000/svg" viewBox="0.0 0.0 24.0 24.0" height="200px" width="200px"><path fill="none" stroke="black" stroke-width=".3" stroke-opacity="1.0"  filling="0" d="M14.47119140625 7.633697509765625 L14.47119140625 7.633697509765625 C15.141533851623535 7.633697509765625 15.811877250671387 7.633697509765625 16.482219696044922 7.633697509765625 L16.482219696044922 7.633697509765625 C16.19210433959961 8.991861343383789 16.018184661865234 10.827312469482422 15.68700885772705 12.596235275268555 C15.355831146240234 14.365158081054688 14.86739730834961 16.067554473876953 13.948253631591797 17.15960693359375 C12.74885082244873 18.58464241027832 10.025858879089355 19.106632232666016 9.182307243347168 16.97215461730957 C8.690117835998535 15.726744651794434 8.868717193603516 14.020915031433105 9.229506492614746 12.312165260314941 C9.590295791625977 10.603415489196777 10.13327407836914 8.891744613647461 10.369841575622559 7.634652614593506 L10.369841575622559 7.634652614593506 C11.007596015930176 7.634652614593506 11.645349502563477 7.634652614593506 12.283103942871094 7.634652614593506 L12.283103942871094 7.634652614593506 C12.099876403808594 9.105379104614258 11.810257911682129 10.546971321105957 11.552785873413086 11.99229907989502 C11.295312881469727 13.437625885009766 11.069986343383789 14.886688232421875 11.015344619750977 16.372352600097656 L11.015344619750977 16.372352600097656 C11.49328899383545 16.311965942382812 12.053914070129395 16.46659278869629 12.449176788330078 16.191194534301758 C12.954054832458496 15.839423179626465 13.266018867492676 13.712949752807617 13.337783813476562 13.355175018310547 C13.720100402832031 11.449186325073242 14.04063606262207 9.529487609863281 14.47119140625 7.633697509765625 L14.47119140625 7.633697509765625"></path></svg>