<svg xmlns="http://www.w3.org/2000/svg" viewBox="0.0 0.0 24.0 24.0" height="200px" width="200px"><path fill="none" stroke="black" stroke-width=".3" stroke-opacity="1.0"  filling="0" d="M8.138287544250488 10.757193565368652 L8.138287544250488 10.757193565368652 C8.84604263305664 10.675177574157715 9.65614128112793 10.959233283996582 10.153676986694336 11.469236373901367 L10.153676986694336 11.469236373901367 C11.9522066116333 10.550677299499512 12.119223594665527 10.387242317199707 13.682587623596191 11.632970809936523 L13.682587623596191 11.632970809936523 C14.053285598754883 11.401815414428711 14.370338439941406 11.043346405029297 14.794681549072266 10.93950366973877 C16.985084533691406 10.403482437133789 17.467731475830078 11.829047203063965 17.35094451904297 13.662633895874023 C17.23415756225586 15.496219635009766 16.5179386138916 17.73782730102539 16.310609817504883 18.83388900756836 L16.310609817504883 18.83388900756836 C15.623104095458984 18.83388900756836 14.935599327087402 18.83388900756836 14.248093605041504 18.83388900756836 L14.248093605041504 18.83388900756836 C14.60244369506836 16.73444366455078 14.956878662109375 14.635005950927734 15.311341285705566 12.535579681396484 L15.311341285705566 12.535579681396484 C15.14496898651123 12.465521812438965 14.978596687316895 12.395464897155762 14.812224388122559 12.325407028198242 L14.812224388122559 12.325407028198242 C12.998394966125488 14.114706039428711 12.904735565185547 16.348060607910156 12.422581672668457 18.805681228637695 L12.422581672668457 18.805681228637695 C11.778304100036621 18.805681228637695 11.134025573730469 18.805681228637695 10.489748001098633 18.805681228637695 L10.489748001098633 18.805681228637695 C10.78946590423584 16.499311447143555 11.317686080932617 14.35629653930664 11.291913986206055 12.01754379272461 L11.291913986206055 12.01754379272461 C9.460826873779297 14.162379264831543 9.380143165588379 16.17840003967285 8.573424339294434 18.79261016845703 L8.573424339294434 18.79261016845703 C7.922152042388916 18.79261016845703 7.270880222320557 18.79261016845703 6.619607925415039 18.79261016845703 L6.619607925415039 18.79261016845703 C6.872706413269043 17.453371047973633 7.125792503356934 16.1141300201416 7.378896236419678 14.77489185333252 C7.631999969482422 13.435653686523438 7.885120391845703 12.096419334411621 8.138287544250488 10.757193565368652 L8.138287544250488 10.757193565368652"></path></svg>