<svg xmlns="http://www.w3.org/2000/svg" viewBox="0.0 0.0 24.0 24.0" height="200px" width="200px"><path fill="none" stroke="black" stroke-width=".3" stroke-opacity="1.0"  filling="0" d="M15.533501625061035 9.665233612060547 L15.533501625061035 9.665233612060547 C15.198490142822266 11.384771347045898 14.863502502441406 13.104313850402832 14.528548240661621 14.82386302947998 C14.193593978881836 16.543411254882812 13.858673095703125 18.26296615600586 13.523797035217285 19.98253059387207 L13.523797035217285 19.98253059387207 C12.879125595092773 19.98253059387207 12.234455108642578 19.98253059387207 11.589783668518066 19.98253059387207 L11.589783668518066 19.98253059387207 C11.827917098999023 18.674381256103516 12.066004753112793 17.366222381591797 12.30405330657959 16.05805778503418 L12.30405330657959 16.05805778503418 C10.218017578125 17.375051498413086 9.310819625854492 16.4036865234375 9.185447692871094 14.8602933883667 C9.060075759887695 13.316900253295898 9.716531753540039 11.201478958129883 10.757805824279785 10.230362892150879 C12.273433685302734 8.816852569580078 13.746469497680664 9.199491500854492 15.533501625061035 9.665233612060547 L15.533501625061035 9.665233612060547"></path>
<path fill="none" stroke="black" stroke-width=".3" stroke-opacity="1.0"  filling="0" d="M13.307943344116211 10.797737121582031 L13.307943344116211 10.797737121582031 C12.98254108428955 12.6754150390625 12.773815155029297 13.777591705322266 11.640138626098633 15.329355239868164 L11.640138626098633 15.329355239868164 C10.668863296508789 13.208127975463867 11.07065200805664 11.634243965148926 13.307943344116211 10.797737121582031 L13.307943344116211 10.797737121582031"></path></svg>