<svg xmlns="http://www.w3.org/2000/svg" viewBox="0.0 0.0 24.0 24.0" height="200px" width="200px"><path fill="none" stroke="black" stroke-width=".3" stroke-opacity="1.0"  filling="0" d="M12.9375581741333 8.220226287841797 L12.9375581741333 8.220226287841797 C13.312884330749512 8.51374626159668 13.688209533691406 8.807266235351562 14.063535690307617 9.100786209106445 L14.063535690307617 9.100786209106445 C13.610947608947754 9.368425369262695 13.230549812316895 9.936494827270508 12.705772399902344 9.903702735900879 C12.342490196228027 9.881001472473145 12.07438850402832 9.340179443359375 12.124035835266113 8.97959041595459 C12.17463207244873 8.612104415893555 12.666383743286133 8.473347663879395 12.9375581741333 8.220226287841797 L12.9375581741333 8.220226287841797"></path>
<path fill="none" stroke="black" stroke-width=".3" stroke-opacity="1.0"  filling="0" d="M13.459453582763672 12.034843444824219 L13.459453582763672 12.034843444824219 C13.556686401367188 14.48379898071289 13.211999893188477 16.63899803161621 13.91848087310791 19.01909065246582 L13.91848087310791 19.01909065246582 C13.070115089416504 19.01909065246582 12.221749305725098 19.01909065246582 11.373383522033691 19.01909065246582 L11.373383522033691 19.01909065246582 C11.373383522033691 16.911558151245117 11.373383522033691 14.80402660369873 11.373383522033691 12.696493148803711 L11.373383522033691 12.696493148803711 C12.068748474121094 12.475969314575195 12.764103889465332 12.255414962768555 13.459453582763672 12.034843444824219 L13.459453582763672 12.034843444824219"></path></svg>