<svg xmlns="http://www.w3.org/2000/svg" viewBox="0.0 0.0 24.0 24.0" height="200px" width="200px"><path fill="none" stroke="black" stroke-width=".3" stroke-opacity="1.0"  filling="0" d="M13.205245018005371 10.340841293334961 L13.205245018005371 10.340841293334961 C14.144235610961914 10.340841293334961 15.083226203918457 10.340841293334961 16.022216796875 10.340841293334961 L16.022216796875 10.340841293334961 C15.043449401855469 11.859699249267578 12.975610733032227 13.995036125183105 12.677433967590332 15.805341720581055 C12.419900894165039 17.368892669677734 13.443489074707031 19.633249282836914 13.80649185180664 21.130756378173828 L13.80649185180664 21.130756378173828 C12.872389793395996 21.130756378173828 11.938286781311035 21.130756378173828 11.00418472290039 21.130756378173828 L11.00418472290039 21.130756378173828 C10.957480430603027 20.92360496520996 10.280694007873535 17.9223575592041 10.254457473754883 17.806026458740234 L10.254457473754883 17.806026458740234 C9.688453674316406 18.81801414489746 8.957674980163574 20.124309539794922 8.388849258422852 21.14084243774414 L8.388849258422852 21.14084243774414 C7.448789119720459 21.14084243774414 6.508728504180908 21.14084243774414 5.568668365478516 21.14084243774414 L5.568668365478516 21.14084243774414 C6.533341407775879 19.637746810913086 8.635169982910156 17.4527530670166 8.919408798217773 15.654743194580078 C9.16373348236084 14.109219551086426 8.103404998779297 11.86728286743164 7.763313293457031 10.38346004486084 L7.763313293457031 10.38346004486084 C8.718648910522461 10.38346004486084 9.673985481262207 10.38346004486084 10.629321098327637 10.38346004486084 L10.629321098327637 10.38346004486084 C10.829277038574219 11.466347694396973 11.029234886169434 12.549234390258789 11.229193687438965 13.632121086120605 L11.229193687438965 13.632121086120605 C11.88785457611084 12.535014152526855 12.546533584594727 11.437917709350586 13.205245018005371 10.340841293334961 L13.205245018005371 10.340841293334961"></path></svg>