<svg xmlns="http://www.w3.org/2000/svg" viewBox="0.0 0.0 24.0 24.0" height="200px" width="200px"><path fill="none" stroke="black" stroke-width=".3" stroke-opacity="1.0"  filling="0" d="M13.154498100280762 4.413585662841797 C15.54931640625 3.6341896057128906 17.766071319580078 4.704910755157471 18.586917877197266 6.979462623596191 C20.811260223388672 13.143404960632324 15.568582534790039 22.213592529296875 9.116817474365234 23.33977508544922 C8.7554349899292 23.402828216552734 8.366612434387207 23.307666778564453 7.74251127243042 23.272052764892578 C7.889050483703613 22.255624771118164 8.019824981689453 21.347206115722656 8.16052532196045 20.368144989013672 C10.761431694030762 19.93203353881836 12.821138381958008 18.859561920166016 13.890691757202148 16.31061363220215 C9.018153190612793 16.540054321289062 7.180880069732666 14.067588806152344 8.6480131149292 9.38770866394043 C9.381871223449707 7.047185897827148 10.718812942504883 5.206409454345703 13.154498100280762 4.413585662841797"></path>
<path fill="none" stroke="black" stroke-width=".3" stroke-opacity="1.0"  filling="0" d="M14.588937759399414 7.04543399810791 C14.986516952514648 7.7419281005859375 15.3840970993042 8.437838554382324 15.778757095336914 9.128494262695312 C15.376507759094238 10.495210647583008 15.149986267089844 11.732319831848145 14.625134468078613 12.82639217376709 C14.40678596496582 13.281187057495117 13.489026069641113 13.73072624206543 13.003873825073242 13.630309104919434 C12.549663543701172 13.535730361938477 11.936071395874023 12.70904541015625 11.939574241638184 12.2081298828125 C11.947748184204102 10.990287780761719 12.068014144897461 9.68428897857666 12.54791259765625 8.59196662902832 C12.847993850708008 7.909483909606934 13.883686065673828 7.54985237121582 14.588937759399414 7.04543399810791"></path></svg>