<svg xmlns="http://www.w3.org/2000/svg" viewBox="0.0 0.0 24.0 24.0" height="200px" width="200px"><path fill="none" stroke="black" stroke-width=".3" stroke-opacity="1.0"  filling="0" d="M10.121346473693848 5.792357444763184 C10.863103866577148 5.792357444763184 11.525619506835938 5.792357444763184 12.434488296508789 5.792357444763184 C11.680331230163574 9.572305679321289 10.95151138305664 13.223955154418945 10.092775344848633 17.526798248291016 C12.232877731323242 15.511761665344238 13.934176445007324 13.895634651184082 15.65110969543457 12.296218872070312 C17.079639434814453 10.965797424316406 17.087726593017578 10.9744234085083 19.755035400390625 11.273606300354004 C17.81924057006836 13.006711959838867 16.043550491333008 14.595884323120117 14.204248428344727 16.242740631103516 C15.361627578735352 19.1612548828125 16.47049331665039 21.958480834960938 17.646739959716797 24.9244384765625 C16.72547149658203 24.9244384765625 16.03061294555664 24.9244384765625 15.15192985534668 24.9244384765625 C14.274868965148926 22.734201431274414 13.38432788848877 20.509464263916016 12.468450546264648 18.222196578979492 C9.217866897583008 19.427555084228516 9.026498794555664 22.155778884887695 8.550500869750977 24.853816986083984 C7.809820652008057 24.89640235900879 7.157008647918701 24.93413734436035 6.142481803894043 24.99235725402832 C7.495543479919434 18.463699340820312 8.795238494873047 12.192716598510742 10.121346473693848 5.792357444763184"></path></svg>