<svg xmlns="http://www.w3.org/2000/svg" viewBox="0.0 0.0 24.0 24.0" height="200px" width="200px"><path fill="none" stroke="black" stroke-width=".3" stroke-opacity="1.0"  filling="0" d="M12.906506538391113 9.47956371307373 C16.17767906188965 8.661200523376465 19.361469268798828 8.830648422241211 22.56729507446289 9.985627174377441 C21.573406219482422 15.726325988769531 20.61370849609375 21.270984649658203 19.61905860900879 27.01852035522461 C18.385055541992188 27.01852035522461 17.034034729003906 27.01852035522461 15.42390251159668 27.01852035522461 C15.31372356414795 26.108978271484375 15.199747085571289 25.16751480102539 15.072092056274414 24.11435890197754 C14.733956336975098 24.295963287353516 14.404179573059082 24.419822692871094 14.13899040222168 24.626502990722656 C13.446003913879395 25.16675567626953 12.842679023742676 25.85062599182129 12.092702865600586 26.28374481201172 C10.089727401733398 27.43947982788086 8.025961875915527 27.5975284576416 6.021466255187988 26.250307083129883 C3.9219894409179688 24.83926010131836 3.189488410949707 22.7861328125 3.403008460998535 20.350799560546875 C3.8855152130126953 14.842615127563477 7.399841785430908 10.857179641723633 12.906506538391113 9.47956371307373"></path>
<path fill="none" stroke="black" stroke-width=".3" stroke-opacity="1.0"  filling="0" d="M16.85470962524414 13.48399543762207 C15.887414932250977 16.227069854736328 15.239259719848633 18.602375030517578 14.20661735534668 20.79759407043457 C13.550863265991211 22.191925048828125 12.129176139831543 23.17137908935547 10.465094566345215 22.470794677734375 C8.671079635620117 21.716257095336914 9.046446800231934 19.979228973388672 9.304797172546387 18.535507202148438 C9.886086463928223 15.284090042114258 12.401204109191895 13.427006721496582 16.85470962524414 13.48399543762207"></path></svg>