<svg xmlns="http://www.w3.org/2000/svg" viewBox="0.0 0.0 24.0 24.0" height="200px" width="200px"><path fill="none" stroke="black" stroke-width=".3" stroke-opacity="1.0"  filling="0" d="M15.671429634094238 3.775435447692871 C18.519878387451172 4.498795032501221 20.306659698486328 7.133974552154541 20.04898452758789 10.510626792907715 C19.56576919555664 16.842655181884766 15.153742790222168 23.47150421142578 6.035788536071777 22.69906234741211 C6.104735851287842 21.70517349243164 6.174266815185547 20.703689575195312 6.261327266693115 19.45095443725586 C9.73088264465332 19.45504379272461 12.322824478149414 18.428434371948242 14.476542472839355 15.570053100585938 C13.248934745788574 15.731904983520508 12.381837844848633 15.914789199829102 11.50831413269043 15.948678970336914 C8.0662202835083 16.083066940307617 5.783371448516846 13.583444595336914 6.220426082611084 10.20796012878418 C6.786025524139404 5.838588237762451 11.407814979553223 2.692732810974121 15.671429634094238 3.775435447692871"></path>
<path fill="none" stroke="black" stroke-width=".3" stroke-opacity="1.0"  filling="0" d="M13.534655570983887 6.948751926422119 C15.005915641784668 6.966281414031982 15.871258735656738 8.019185066223145 15.807571411132812 9.713645935058594 C15.738622665405273 11.562360763549805 14.358514785766602 12.965843200683594 12.699110984802246 12.875277519226074 C11.358149528503418 12.801655769348145 10.478782653808594 11.754594802856445 10.538381576538086 10.301448822021484 C10.611417770385742 8.50940990447998 12.021910667419434 6.930638790130615 13.534655570983887 6.948751926422119"></path></svg>