<svg xmlns="http://www.w3.org/2000/svg" viewBox="0.0 0.0 24.0 24.0" height="200px" width="200px"><path fill="none" stroke="black" stroke-width=".3" stroke-opacity="1.0"  filling="0" d="M8.422280311584473 7.8652215003967285 L8.422280311584473 7.8652215003967285 C10.618823051452637 7.492730617523193 12.80936050415039 7.20355749130249 14.820613861083984 8.44239616394043 C16.267993927001953 9.333915710449219 16.978750228881836 10.952613830566406 17.012893676757812 12.604762077331543 C17.04703712463379 14.256911277770996 16.404569625854492 15.942509651184082 15.145501136779785 16.96782875061035 C13.215119361877441 18.539831161499023 10.736063003540039 18.314916610717773 8.422280311584473 18.283817291259766 L8.422280311584473 18.283817291259766 C8.422280311584473 16.547386169433594 8.422280311584473 14.810952186584473 8.422280311584473 13.074519157409668 C8.422280311584473 11.33808708190918 8.422280311584473 9.601654052734375 8.422280311584473 7.8652215003967285 L8.422280311584473 7.8652215003967285"></path>
<path fill="none" stroke="black" stroke-width=".3" stroke-opacity="1.0"  filling="0" d="M10.827595710754395 9.504244804382324 L10.827595710754395 9.504244804382324 C12.402504920959473 9.513531684875488 12.900761604309082 9.138053894042969 13.928876876831055 10.586050987243652 C15.045156478881836 12.158218383789062 14.653617858886719 15.484617233276367 12.672801971435547 16.271310806274414 C12.100529670715332 16.498592376708984 11.44266414642334 16.329387664794922 10.827595710754395 16.35842514038086 L10.827595710754395 16.35842514038086 C10.827595710754395 14.073698997497559 10.827595710754395 11.788970947265625 10.827595710754395 9.504244804382324 L10.827595710754395 9.504244804382324"></path></svg>