<svg xmlns="http://www.w3.org/2000/svg" viewBox="0.0 0.0 24.0 24.0" height="200px" width="200px"><path fill="none" stroke="black" stroke-width=".3" stroke-opacity="1.0"  filling="0" d="M10.617097854614258 9.151086807250977 C17.269092559814453 7.380204677581787 22.572147369384766 12.550603866577148 20.730941772460938 20.07205581665039 C17.066112518310547 20.07205581665039 13.546724319458008 20.07205581665039 9.50230598449707 20.07205581665039 C11.830984115600586 25.07223892211914 15.782702445983887 23.044036865234375 19.274120330810547 23.30215835571289 C19.583383560180664 24.313861846923828 19.913427352905273 25.391094207763672 20.261051177978516 26.52666473388672 C17.178791046142578 28.088972091674805 14.172447204589844 28.293548583984375 11.140531539916992 27.683809280395508 C6.638208866119385 26.779190063476562 4.160093784332275 23.6146183013916 4.021043300628662 18.89013671875 C3.8787975311279297 14.05137825012207 6.3537163734436035 10.286657333374023 10.617097854614258 9.151086807250977"></path>
<path fill="none" stroke="black" stroke-width=".3" stroke-opacity="1.0"  filling="0" d="M13.244651794433594 12.993325233459473 C14.206010818481445 13.190710067749023 14.97158145904541 14.341464042663574 15.825056076049805 15.063082695007324 C15.684408187866211 15.299626350402832 15.544560432434082 15.536969184875488 15.404711723327637 15.773513793945312 C13.637826919555664 15.773513793945312 11.870939254760742 15.773513793945312 9.747639656066895 15.773513793945312 C10.256689071655273 13.47280502319336 11.600831985473633 12.656088829040527 13.244651794433594 12.993325233459473"></path></svg>