<svg xmlns="http://www.w3.org/2000/svg" viewBox="0.0 0.0 24.0 24.0" height="200px" width="200px"><path fill="none" stroke="black" stroke-width=".3" stroke-opacity="1.0"  filling="0" d="M2.98697566986084 9.914690971374512 C4.292925834655762 10.069158554077148 5.952747821807861 8.717710494995117 6.512199401855469 11.34646224975586 C9.08028793334961 9.647321701049805 11.620291709899902 8.819376945495605 13.895174026489258 11.7576265335083 C14.518096923828125 11.306581497192383 15.07642650604248 10.804422378540039 15.717885971069336 10.454484939575195 C18.6112003326416 8.877233505249023 21.683130264282227 10.202842712402344 22.02127456665039 13.471931457519531 C22.34649658203125 16.610706329345703 22.091487884521484 19.81014633178711 22.091487884521484 23.124170303344727 C21.003475189208984 23.124170303344727 19.82110023498535 23.124170303344727 18.31686782836914 23.124170303344727 C18.31686782836914 21.102054595947266 18.335966110229492 19.158010482788086 18.312374114990234 17.21453285217285 C18.27586555480957 14.176301956176758 17.719783782958984 12.968088150024414 16.393611907958984 13.243882179260254 C14.153554916381836 13.7095308303833 14.73154354095459 15.623239517211914 14.679866790771484 17.12466049194336 C14.613024711608887 19.0670166015625 14.66357707977295 21.0133056640625 14.66357707977295 23.105632781982422 C13.2183256149292 23.105632781982422 12.061225891113281 23.105632781982422 10.640127182006836 23.105632781982422 C10.640127182006836 21.7744083404541 10.639564514160156 20.582481384277344 10.640127182006836 19.390554428100586 C10.640687942504883 18.360960006713867 10.704160690307617 17.326871871948242 10.630016326904297 16.302894592285156 C10.537897109985352 15.023905754089355 10.655854225158691 13.51742935180664 8.894365310668945 13.219728469848633 C7.718167781829834 13.02088737487793 6.915499687194824 14.280777931213379 6.884044170379639 16.318622589111328 C6.849781036376953 18.541828155517578 6.876180648803711 20.766155242919922 6.876180648803711 23.120800018310547 C5.509566307067871 23.119678497314453 4.4187469482421875 23.119678497314453 2.98697566986084 23.119678497314453 C2.98697566986084 18.678321838378906 2.98697566986084 14.408285140991211 2.98697566986084 9.914690971374512"></path></svg>