<svg xmlns="http://www.w3.org/2000/svg" viewBox="0.0 0.0 24.0 24.0" height="200px" width="200px"><path fill="none" stroke="black" stroke-width=".3" stroke-opacity="1.0"  filling="0" d="M17.482242584228516 4.2233123779296875 C18.777496337890625 4.2233123779296875 19.89253807067871 4.2233123779296875 21.323387145996094 4.2233123779296875 C20.12195587158203 10.672704696655273 18.94913101196289 16.964195251464844 17.75113296508789 23.395280838012695 C16.51651954650879 23.395280838012695 15.421503067016602 23.395280838012695 13.916854858398438 23.395280838012695 C14.315614700317383 20.888866424560547 14.70750904083252 18.427080154418945 15.1474609375 15.663217544555664 C13.115899085998535 15.663217544555664 11.326340675354004 15.663217544555664 9.278759956359863 15.663217544555664 C8.735827445983887 18.192514419555664 8.187174797058105 20.74927520751953 7.612776279449463 23.42331314086914 C6.342121124267578 23.42331314086914 5.1515607833862305 23.42331314086914 3.748175621032715 23.42331314086914 C4.973635196685791 16.947032928466797 6.167055606842041 10.64352798461914 7.3776397705078125 4.247913360595703 C8.678045272827148 4.247913360595703 9.785649299621582 4.247913360595703 11.194183349609375 4.247913360595703 C10.79942798614502 6.780071258544922 10.41611385345459 9.239570617675781 10.001334190368652 11.898163795471191 C12.011728286743164 11.898163795471191 13.780691146850586 11.898163795471191 15.837425231933594 11.898163795471191 C16.377498626708984 9.377448081970215 16.924434661865234 6.826411724090576 17.482242584228516 4.2233123779296875"></path></svg>