<svg xmlns="http://www.w3.org/2000/svg" viewBox="0.0 0.0 24.0 24.0" height="200px" width="200px"><path fill="none" stroke="black" stroke-width=".3" stroke-opacity="1.0"  filling="0" d="M10.11038875579834 7.7301344871521 L10.11038875579834 7.7301344871521 C11.667470932006836 7.706419944763184 14.39322280883789 7.201244354248047 15.69705581665039 8.338129043579102 C17.495201110839844 9.906031608581543 16.259557723999023 12.076179504394531 14.698701858520508 13.084086418151855 L14.698701858520508 13.084086418151855 C14.976104736328125 14.887018203735352 15.253626823425293 16.689926147460938 15.531143188476562 18.492843627929688 L15.531143188476562 18.492843627929688 C14.760641098022461 18.492843627929688 13.99013900756836 18.492843627929688 13.219636917114258 18.492843627929688 L13.219636917114258 18.492843627929688 C13.130672454833984 17.586044311523438 13.321325302124023 15.100678443908691 12.476131439208984 14.44884204864502 C12.109291076660156 14.165925025939941 11.564620018005371 14.282699584960938 11.108863830566406 14.199628829956055 L11.108863830566406 14.199628829956055 C10.81679916381836 15.62895393371582 10.524836540222168 17.058290481567383 10.2329683303833 18.487655639648438 L10.2329683303833 18.487655639648438 C9.930610656738281 18.487655639648438 8.323651313781738 18.487655639648438 8.070632934570312 18.487655639648438 L8.070632934570312 18.487655639648438 C8.410451889038086 16.6947078704834 8.75033950805664 14.901774406433105 9.090298652648926 13.108855247497559 C9.430256843566895 11.315935134887695 9.770286560058594 9.523028373718262 10.11038875579834 7.7301344871521 L10.11038875579834 7.7301344871521"></path>
<path fill="none" stroke="black" stroke-width=".3" stroke-opacity="1.0"  filling="0" d="M12.001945495605469 9.552618026733398 L12.001945495605469 9.552618026733398 C12.391722679138184 9.486071586608887 12.784017562866211 9.273077011108398 13.17127799987793 9.35297966003418 C14.84641170501709 9.6986083984375 14.13620376586914 11.875105857849121 12.938401222229004 12.302517890930176 C12.463898658752441 12.471834182739258 11.931224822998047 12.332162857055664 11.42763614654541 12.34698486328125 L11.42763614654541 12.34698486328125 C11.619063377380371 11.41552734375 11.810498237609863 10.484071731567383 12.001945495605469 9.552618026733398 L12.001945495605469 9.552618026733398"></path></svg>