<svg xmlns="http://www.w3.org/2000/svg" viewBox="0.0 0.0 24.0 24.0" height="200px" width="200px"><path fill="none" stroke="black" stroke-width=".3" stroke-opacity="1.0"  filling="0" d="M14.28677749633789 7.307949066162109 L14.28677749633789 7.307949066162109 C14.958863258361816 7.307949066162109 15.630925178527832 7.307949066162109 16.303010940551758 7.307949066162109 L16.303010940551758 7.307949066162109 C15.991636276245117 9.087297439575195 15.680244445800781 10.866643905639648 15.368839263916016 12.645987510681152 C15.057435035705566 14.425331115722656 14.746018409729004 16.204673767089844 14.43459415435791 17.984012603759766 L14.43459415435791 17.984012603759766 C13.748297691345215 18.058122634887695 12.978080749511719 17.737224578857422 12.503604888916016 17.235858917236328 L12.503604888916016 17.235858917236328 C11.0466890335083 18.12963104248047 9.794071197509766 17.996604919433594 9.072945594787598 17.25221824645996 C8.35181999206543 16.507829666137695 8.162187576293945 15.152080535888672 8.831242561340332 13.600409507751465 C9.770499229431152 11.422087669372559 11.512264251708984 10.953596115112305 13.660445213317871 10.803862571716309 L13.660445213317871 10.803862571716309 C13.74471378326416 10.33362102508545 14.205982208251953 7.7590131759643555 14.28677749633789 7.307949066162109 L14.28677749633789 7.307949066162109"></path>
<path fill="none" stroke="black" stroke-width=".3" stroke-opacity="1.0"  filling="0" d="M13.473936080932617 12.371506690979004 L13.473936080932617 12.371506690979004 C12.954573631286621 14.372440338134766 13.016178131103516 15.413771629333496 11.201668739318848 16.471988677978516 L11.201668739318848 16.471988677978516 C10.197473526000977 14.127152442932129 11.143875122070312 13.01157283782959 13.473936080932617 12.371506690979004 L13.473936080932617 12.371506690979004"></path></svg>