<svg xmlns="http://www.w3.org/2000/svg" viewBox="0.0 0.0 24.0 24.0" height="200px" width="200px"><path fill="none" stroke="black" stroke-width=".3" stroke-opacity="1.0"  filling="0" d="M13.270410537719727 7.529413223266602 L13.270410537719727 7.529413223266602 C13.584040641784668 7.753024578094482 13.89767074584961 7.9766364097595215 14.21130084991455 8.200247764587402 L14.21130084991455 8.200247764587402 C14.107837677001953 8.58309268951416 14.135409355163574 9.028960227966309 13.900912284851074 9.348782539367676 C13.038228034973145 10.525368690490723 11.198269844055176 8.824795722961426 12.327805519104004 7.810508728027344 C12.571759223937988 7.5914459228515625 12.956209182739258 7.623111724853516 13.270410537719727 7.529413223266602 L13.270410537719727 7.529413223266602"></path>
<path fill="none" stroke="black" stroke-width=".3" stroke-opacity="1.0"  filling="0" d="M11.577380180358887 10.839269638061523 L11.577380180358887 10.839269638061523 C12.310919761657715 10.839269638061523 13.04446029663086 10.839269638061523 13.777999877929688 10.839269638061523 L13.777999877929688 10.839269638061523 C13.534735679626465 12.083748817443848 13.291471481323242 13.328228950500488 13.048200607299805 14.572707176208496 C12.804929733276367 15.81718635559082 12.561651229858398 17.061662673950195 12.318359375 18.306137084960938 L12.318359375 18.306137084960938 C11.596616744995117 18.306137084960938 10.874873161315918 18.306137084960938 10.153130531311035 18.306137084960938 L10.153130531311035 18.306137084960938 C10.390405654907227 17.0616397857666 10.627745628356934 15.817154884338379 10.865127563476562 14.57267951965332 C11.102510452270508 13.328203201293945 11.339935302734375 12.083734512329102 11.577380180358887 10.839269638061523 L11.577380180358887 10.839269638061523"></path></svg>