<svg xmlns="http://www.w3.org/2000/svg" viewBox="0.0 0.0 24.0 24.0" height="200px" width="200px"><path fill="none" stroke="black" stroke-width=".3" stroke-opacity="1.0"  filling="0" d="M19.047176361083984 9.90354061126709 C19.07760238647461 10.243810653686523 19.22011375427246 10.655336380004883 19.124038696289062 10.998807907104492 C18.91347312927246 11.746599197387695 18.58121109008789 12.45996379852295 18.357831954956055 13.033217430114746 C16.318618774414062 13.166923522949219 14.471555709838867 13.288619995117188 12.624494552612305 13.409515380859375 C12.500395774841309 13.79301929473877 12.377098083496094 14.176523208618164 12.253000259399414 14.560026168823242 C13.246586799621582 15.43351936340332 14.165714263916016 16.415897369384766 15.250574111938477 17.155681610107422 C17.122455596923828 18.43349266052246 18.575605392456055 19.89865493774414 18.246545791625977 22.364604949951172 C17.911882400512695 24.872188568115234 16.315418243408203 26.3909912109375 14.045620918273926 27.247669219970703 C10.904733657836914 28.43501091003418 7.828697681427002 28.322919845581055 4.530887603759766 26.657602310180664 C4.980042934417725 25.44144058227539 5.375555515289307 24.372596740722656 5.74785041809082 23.36379623413086 C8.22100830078125 23.085975646972656 10.945566177368164 25.479068756103516 12.937541961669922 21.805763244628906 C11.755005836486816 20.940279006958008 10.62611198425293 20.11001968383789 9.49401569366455 19.28456687927246 C5.8823561668396 16.651281356811523 6.064100742340088 12.538427352905273 9.895933151245117 10.200575828552246 C12.697351455688477 8.491222381591797 15.471548080444336 8.389541625976562 19.047176361083984 9.90354061126709"></path></svg>