<svg xmlns="http://www.w3.org/2000/svg" viewBox="0.0 0.0 24.0 24.0" height="200px" width="200px"><path fill="none" stroke="black" stroke-width=".3" stroke-opacity="1.0"  filling="0" d="M14.958935737609863 7.729002952575684 L14.958935737609863 7.729002952575684 C14.630634307861328 9.507972717285156 14.302277565002441 11.286932945251465 13.973925590515137 13.065893173217773 C13.645573616027832 14.844854354858398 13.317227363586426 16.623817443847656 12.988947868347168 18.402790069580078 L12.988947868347168 18.402790069580078 C12.266817092895508 18.402790069580078 11.544685363769531 18.402790069580078 10.822554588317871 18.402790069580078 L10.822554588317871 18.402790069580078 C11.075326919555664 16.97752571105957 11.328118324279785 15.552263259887695 11.58092975616455 14.12700366973877 C11.833741188049316 12.701744079589844 12.086572647094727 11.276487350463867 12.339426040649414 9.851237297058105 L12.339426040649414 9.851237297058105 C11.706167221069336 10.095771789550781 11.07290267944336 10.340291023254395 10.439630508422852 10.584793090820312 L10.439630508422852 10.584793090820312 C10.39085865020752 10.04830265045166 10.342086791992188 9.511811256408691 10.293314933776855 8.975320816040039 L10.293314933776855 8.975320816040039 C12.026533126831055 8.031061172485352 12.969215393066406 7.6620354652404785 14.958935737609863 7.729002952575684 L14.958935737609863 7.729002952575684"></path></svg>