<svg xmlns="http://www.w3.org/2000/svg" viewBox="0.0 0.0 24.0 24.0" height="200px" width="200px"><path fill="none" stroke="black" stroke-width=".3" stroke-opacity="1.0"  filling="0" d="M9.995935440063477 4.556574821472168 C12.792435646057129 3.7435598373413086 15.51225757598877 3.9521703720092773 18.37923240661621 5.219051837921143 C18.065753936767578 6.295366287231445 17.786666870117188 7.253843784332275 17.4545841217041 8.394432067871094 C16.59195327758789 8.243330955505371 15.811078071594238 8.062348365783691 15.019487380981445 7.979467868804932 C14.092582702636719 7.881927967071533 13.100839614868164 7.657532215118408 12.241593360900879 7.884183883666992 C11.462407112121582 8.089410781860352 10.82304573059082 8.826875686645508 10.12222957611084 9.329229354858398 C10.638680458068848 9.921231269836426 11.044623374938965 10.731427192687988 11.694132804870605 11.061254501342773 C13.105350494384766 11.777857780456543 14.689658164978027 12.149409294128418 16.114971160888672 12.844023704528809 C18.466623306274414 13.989686965942383 19.416645050048828 15.672660827636719 19.147144317626953 18.02713394165039 C18.869747161865234 20.45433807373047 17.324909210205078 21.890361785888672 15.131120681762695 22.61203956604004 C11.882445335388184 23.68158721923828 8.677183151245117 23.463958740234375 5.234557151794434 21.88528823852539 C5.560439109802246 20.732860565185547 5.835015296936035 19.763105392456055 6.142855167388916 18.67551612854004 C7.574934005737305 18.961931228637695 8.824901580810547 19.30923843383789 10.096857070922852 19.435531616210938 C11.101568222045898 19.53532600402832 12.185212135314941 19.53476333618164 13.134103775024414 19.24778175354004 C13.705808639526367 19.07469367980957 14.340095520019531 18.32313346862793 14.46751594543457 17.728878021240234 C14.559980392456055 17.29643440246582 13.98884105682373 16.464250564575195 13.505091667175293 16.216739654541016 C12.26245403289795 15.58076000213623 10.900288581848145 15.178762435913086 9.591684341430664 14.668514251708984 C6.659306049346924 13.525671005249023 5.4380927085876465 12.012967109680176 5.494473934173584 9.613954544067383 C5.5519819259643555 7.170963764190674 7.110353946685791 5.396088123321533 9.995935440063477 4.556574821472168"></path></svg>