<svg xmlns="http://www.w3.org/2000/svg" viewBox="0.0 0.0 24.0 24.0" height="200px" width="200px"><path fill="none" stroke="black" stroke-width=".3" stroke-opacity="1.0"  filling="0" d="M16.010910034179688 9.210593223571777 L16.010910034179688 9.210593223571777 C16.021591186523438 11.116716384887695 16.405771255493164 13.628806114196777 16.127399444580078 15.739701271057129 C15.84902572631836 17.850597381591797 14.908097267150879 19.560298919677734 12.268558502197266 19.86164665222168 C11.657759666442871 19.931379318237305 11.030125617980957 19.909711837768555 10.425302505493164 19.799589157104492 C9.780501365661621 19.682188034057617 9.179976463317871 19.39048194885254 8.557312965393066 19.185928344726562 L8.557312965393066 19.185928344726562 C8.702345848083496 18.652700424194336 8.847378730773926 18.119470596313477 8.992411613464355 17.58624267578125 L8.992411613464355 17.58624267578125 C9.903754234313965 17.75163459777832 12.151885986328125 18.275480270385742 13.0158109664917 17.45691680908203 C13.455795288085938 17.040035247802734 13.58666706085205 16.387510299682617 13.872095108032227 15.852806091308594 L13.872095108032227 15.852806091308594 C12.446173667907715 16.24540901184082 11.221761703491211 16.91457748413086 9.743903160095215 16.265724182128906 C8.268869400024414 15.618110656738281 7.705169677734375 14.146894454956055 7.856472492218018 12.710247993469238 C8.007776260375977 11.273600578308105 8.874082565307617 9.871521949768066 10.259060859680176 9.362184524536133 C11.713249206542969 8.827394485473633 12.413804054260254 9.405726432800293 13.756363868713379 9.920790672302246 L13.756363868713379 9.920790672302246 C14.3598051071167 9.414158821105957 15.224613189697266 9.16004753112793 16.010910034179688 9.210593223571777 L16.010910034179688 9.210593223571777"></path>
<path fill="none" stroke="black" stroke-width=".3" stroke-opacity="1.0"  filling="0" d="M12.080157279968262 11.015810012817383 L12.080157279968262 11.015810012817383 C12.469419479370117 11.166679382324219 12.98199462890625 11.146615028381348 13.247943878173828 11.468419075012207 C14.07620620727539 12.470635414123535 13.725173950195312 14.862305641174316 12.075098037719727 14.803319931030273 C10.491382598876953 14.746706008911133 9.921215057373047 12.629834175109863 10.87474250793457 11.555217742919922 C11.166906356811523 11.225951194763184 11.678352355957031 11.195612907409668 12.080157279968262 11.015810012817383 L12.080157279968262 11.015810012817383"></path></svg>