<svg xmlns="http://www.w3.org/2000/svg" viewBox="0.0 0.0 24.0 24.0" height="200px" width="200px"><path fill="none" stroke="black" stroke-width=".3" stroke-opacity="1.0"  filling="0" d="M8.369010925292969 7.310779571533203 L8.369010925292969 7.310779571533203 C8.422514915466309 7.310779571533203 10.647738456726074 7.310779571533203 10.654923439025879 7.310779571533203 L10.654923439025879 7.310779571533203 C10.654923439025879 8.742414474487305 10.654923439025879 10.174046516418457 10.654923439025879 11.605682373046875 L10.654923439025879 11.605682373046875 C11.464386940002441 11.596339225769043 12.185396194458008 11.030344009399414 12.989453315734863 10.936478614807129 C14.82318115234375 10.72240924835205 15.550349235534668 11.97393798828125 15.817980766296387 13.545695304870605 C16.08561134338379 15.117451667785645 15.893707275390625 17.009437561035156 15.889288902282715 18.076278686523438 L15.889288902282715 18.076278686523438 C15.079790115356445 18.076278686523438 14.27029037475586 18.076278686523438 13.46079158782959 18.076278686523438 L13.46079158782959 18.076278686523438 C13.461732864379883 16.773231506347656 13.963605880737305 14.228614807128906 13.014493942260742 13.190814971923828 C12.541790962219238 12.673940658569336 11.569855690002441 12.73333740234375 11.129768371582031 13.250885963439941 C10.263303756713867 14.269857406616211 10.726062774658203 16.925107955932617 10.726062774658203 18.111083984375 L10.726062774658203 18.111083984375 C10.311609268188477 18.11098861694336 8.76920223236084 18.11079216003418 8.369010925292969 18.11077880859375 L8.369010925292969 18.11077880859375 C8.369010925292969 16.310779571533203 8.369010925292969 14.51077938079834 8.369010925292969 12.710779190063477 C8.369010925292969 10.91077995300293 8.369010925292969 9.110779762268066 8.369010925292969 7.310779571533203 L8.369010925292969 7.310779571533203"></path></svg>