<svg xmlns="http://www.w3.org/2000/svg" viewBox="0.0 0.0 24.0 24.0" height="200px" width="200px"><path fill="none" stroke="black" stroke-width=".3" stroke-opacity="1.0"  filling="0" d="M5.544907093048096 3.663607597351074 C6.881248950958252 3.663607597351074 8.10089111328125 3.663607597351074 9.608752250671387 3.663607597351074 C9.608752250671387 6.166397571563721 9.608752250671387 8.729979515075684 9.608752250671387 11.298990249633789 C10.066322326660156 11.298990249633789 10.27638053894043 11.364126205444336 10.40827751159668 11.289762496948242 C15.2450532913208 8.562259674072266 18.781307220458984 10.544516563415527 18.90614891052246 16.08962631225586 C18.954998016357422 18.252090454101562 18.914291381835938 20.416183471679688 18.914291381835938 22.80227279663086 C17.523670196533203 22.80227279663086 16.237266540527344 22.80227279663086 14.596963882446289 22.80227279663086 C14.596963882446289 21.495243072509766 14.60130500793457 20.171382904052734 14.595335006713867 18.8475284576416 C14.59099292755127 17.945415496826172 14.62681770324707 17.03841781616211 14.54865550994873 16.141735076904297 C14.391246795654297 14.338054656982422 13.530386924743652 13.433229446411133 12.114798545837402 13.480451583862305 C10.727436065673828 13.52658748626709 9.857891082763672 14.490577697753906 9.752591133117676 16.258434295654297 C9.67768669128418 17.5177001953125 9.735764503479004 18.785106658935547 9.735221862792969 20.04871368408203 C9.734678268432617 20.935626983642578 9.735221862792969 21.82254409790039 9.735221862792969 22.864151000976562 C8.305521965026855 22.863609313964844 7.079908847808838 22.863609313964844 5.544907093048096 22.863609313964844 C5.544907093048096 16.398473739624023 5.544907093048096 10.118971824645996 5.544907093048096 3.663607597351074"></path></svg>