<svg xmlns="http://www.w3.org/2000/svg" viewBox="0.0 0.0 24.0 24.0" height="200px" width="200px"><path fill="none" stroke="black" stroke-width=".3" stroke-opacity="1.0"  filling="0" d="M16.62710952758789 5.878576755523682 C18.512954711914062 6.524925231933594 19.30559730529785 8.032539367675781 19.576370239257812 10.713687896728516 C18.506572723388672 10.220016479492188 17.6953125 10.10085391998291 17.329313278198242 9.633780479431152 C15.419527053833008 7.193084716796875 13.549107551574707 7.13297176361084 11.725500106811523 9.678998947143555 C11.08340835571289 10.575906753540039 10.7025146484375 11.660070419311523 9.90827751159668 13.245351791381836 C10.94403076171875 12.836263656616211 11.373865127563477 12.665499687194824 11.804764747619629 12.496864318847656 C15.112578392028809 11.203104019165039 18.134721755981445 12.88892936706543 18.72787094116211 16.357398986816406 C19.238033294677734 19.339645385742188 17.46230697631836 22.858118057250977 14.804033279418945 24.132728576660156 C11.620701789855957 25.65949249267578 8.015515327453613 24.250293731689453 7.190423965454102 20.8387451171875 C5.964756488800049 15.773821830749512 7.306395053863525 11.178632736206055 10.780183792114258 7.345228672027588 C12.282477378845215 5.687066078186035 14.402925491333008 5.116258144378662 16.62710952758789 5.878576755523682"></path>
<path fill="none" stroke="black" stroke-width=".3" stroke-opacity="1.0"  filling="0" d="M13.34163761138916 14.133214950561523 C15.164712905883789 14.184285163879395 16.531352996826172 15.696154594421387 16.536672592163086 17.66924476623535 C16.54412078857422 20.09238624572754 14.327384948730469 22.633625030517578 12.239388465881348 22.596385955810547 C10.409930229187012 22.56393814086914 9.062440872192383 20.888221740722656 9.131596565246582 18.730533599853516 C9.211393356323242 16.235042572021484 11.19193172454834 14.072569847106934 13.34163761138916 14.133214950561523"></path></svg>