<svg xmlns="http://www.w3.org/2000/svg" viewBox="0.0 0.0 24.0 24.0" height="200px" width="200px"><path fill="none" stroke="black" stroke-width=".3" stroke-opacity="1.0"  filling="0" d="M14.969451904296875 5.195598602294922 C16.898971557617188 5.754021167755127 18.23756217956543 6.942846775054932 18.55914878845215 8.933317184448242 C18.869125366210938 10.852388381958008 17.879985809326172 12.260055541992188 16.293529510498047 13.276477813720703 C16.067142486572266 13.421598434448242 15.84539794921875 13.574845314025879 15.506396293640137 13.801233291625977 C15.998644828796387 14.094375610351562 16.41775131225586 14.320764541625977 16.811899185180664 14.582560539245605 C20.338905334472656 16.92596435546875 20.127029418945312 20.87149429321289 16.249412536621094 22.739486694335938 C12.552907943725586 24.519821166992188 8.816350936889648 24.219131469726562 4.976467132568359 22.402225494384766 C5.2968926429748535 21.288280487060547 5.57726526260376 20.3148136138916 5.877373695373535 19.27168846130371 C7.254856109619141 19.599660873413086 8.353706359863281 20.004837036132812 9.475777626037598 20.089008331298828 C10.598428726196289 20.172595977783203 11.819181442260742 20.138927459716797 12.854759216308594 19.764516830444336 C13.505478858947754 19.52884292602539 14.195671081542969 18.615163803100586 14.299576759338379 17.92032814025879 C14.375039100646973 17.414148330688477 13.634345054626465 16.451709747314453 13.060830116271973 16.249704360961914 C11.728044509887695 15.7800931930542 10.276841163635254 15.646583557128906 8.495924949645996 15.304679870605469 C8.459354400634766 14.516386032104492 8.414657592773438 13.541177749633789 8.369379997253418 12.563066482543945 C9.933197021484375 12.286176681518555 11.288619995117188 12.19852352142334 12.520401954650879 11.760841369628906 C13.086371421813965 11.559995651245117 13.775402069091797 10.648058891296387 13.738252639770508 10.104728698730469 C13.701101303100586 9.559656143188477 12.844310760498047 8.652944564819336 12.320136070251465 8.634368896484375 C10.45330810546875 8.567033767700195 8.575450897216797 8.81025505065918 6.4230265617370605 8.954794883728027 C6.206506729125977 8.347612380981445 5.896529674530029 7.478050708770752 5.467554569244385 6.275293350219727 C8.608538627624512 4.835118770599365 11.668835639953613 4.240126132965088 14.969451904296875 5.195598602294922"></path></svg>