<svg xmlns="http://www.w3.org/2000/svg" viewBox="0.0 0.0 24.0 24.0" height="200px" width="200px"><path fill="none" stroke="black" stroke-width=".3" stroke-opacity="1.0"  filling="0" d="M13.670316696166992 8.172524452209473 L13.670316696166992 8.172524452209473 C16.030221939086914 9.483304977416992 16.352434158325195 11.426470756530762 13.9723482131958 13.013193130493164 L13.9723482131958 13.013193130493164 C16.225061416625977 14.361416816711426 16.94150733947754 16.454933166503906 14.390295028686523 18.04096031188965 C12.402843475341797 19.276512145996094 10.025187492370605 18.589799880981445 8.049263000488281 17.85125160217285 L8.049263000488281 17.85125160217285 C8.218182563781738 17.2642765045166 8.387103080749512 16.67729949951172 8.556022644042969 16.09032440185547 L8.556022644042969 16.09032440185547 C9.755145072937012 16.40677261352539 11.253814697265625 16.91916847229004 12.480802536010742 16.36754035949707 C14.677520751953125 15.379941940307617 12.251516342163086 14.27248764038086 11.407364845275879 14.097732543945312 C10.95073127746582 14.00320053100586 10.48842716217041 13.938499450683594 10.028958320617676 13.858882904052734 L10.028958320617676 13.858882904052734 C10.005230903625488 13.344830513000488 9.9815034866333 12.830777168273926 9.957776069641113 12.31672477722168 L9.957776069641113 12.31672477722168 C10.162402153015137 12.285025596618652 12.053736686706543 12.025172233581543 12.292725563049316 11.865472793579102 C13.072922706604004 11.344120979309082 13.376275062561035 10.497068405151367 12.180076599121094 10.106832504272461 C11.911545753479004 10.019229888916016 9.059856414794922 10.271628379821777 8.86295223236084 10.28707218170166 L8.86295223236084 10.28707218170166 C8.683801651000977 9.784666061401367 8.504650115966797 9.282258987426758 8.325499534606934 8.779852867126465 L8.325499534606934 8.779852867126465 C10.332130432128906 8.05298900604248 11.555395126342773 7.868429183959961 13.670316696166992 8.172524452209473 L13.670316696166992 8.172524452209473"></path></svg>