<svg xmlns="http://www.w3.org/2000/svg" viewBox="0.0 0.0 24.0 24.0" height="200px" width="200px"><path fill="none" stroke="black" stroke-width=".3" stroke-opacity="1.0"  filling="0" d="M11.581897735595703 8.166424751281738 L11.581897735595703 8.166424751281738 C12.112457275390625 8.013323783874512 12.625553131103516 7.63926362991333 13.173575401306152 7.7071213722229 C16.359331130981445 8.101591110229492 14.628722190856934 11.116579055786133 13.627134323120117 12.366310119628906 L13.627134323120117 12.366310119628906 C15.556818008422852 14.278353691101074 16.39361000061035 15.975725173950195 13.976981163024902 17.9045352935791 L13.976981163024902 17.9045352935791 C13.88154411315918 15.125038146972656 13.770039558410645 14.64293384552002 11.084908485412598 13.874427795410156 L11.084908485412598 13.874427795410156 C9.999714851379395 16.516483306884766 10.334501266479492 16.853269577026367 12.802591323852539 18.242034912109375 L12.802591323852539 18.242034912109375 C12.13123607635498 18.294368743896484 11.438579559326172 18.574779510498047 10.788524627685547 18.399036407470703 C7.327123641967773 17.463239669799805 9.613682746887207 14.777389526367188 10.868483543395996 13.389100074768066 L10.868483543395996 13.389100074768066 C9.082347869873047 11.63740348815918 8.504338264465332 9.5588960647583 11.053010940551758 8.254230499267578 L11.053010940551758 8.254230499267578 C10.707056045532227 10.822280883789062 10.809322357177734 11.199063301086426 13.250876426696777 12.092263221740723 L13.250876426696777 12.092263221740723 C14.080437660217285 9.652772903442383 14.007207870483398 9.120218276977539 11.581897735595703 8.166424751281738 L11.581897735595703 8.166424751281738"></path></svg>