<svg xmlns="http://www.w3.org/2000/svg" viewBox="0.0 0.0 24.0 24.0" height="200px" width="200px"><path fill="none" stroke="black" stroke-width=".3" stroke-opacity="1.0"  filling="0" d="M22.21749496459961 5.1680145263671875 C21.79755401611328 6.306490421295166 21.44985580444336 7.249105930328369 21.165382385253906 8.020132064819336 C18.528316497802734 8.020132064819336 16.083160400390625 7.763875961303711 13.719284057617188 8.091251373291016 C11.291061401367188 8.427658081054688 9.393977165222168 9.871496200561523 8.59585952758789 12.380998611450195 C7.926998138427734 14.48466682434082 7.976667881011963 16.564064025878906 9.62822151184082 18.155786514282227 C11.492002487182617 19.952964782714844 13.790403366088867 20.069805145263672 16.381183624267578 19.20169448852539 C16.574787139892578 18.03838348388672 16.769519805908203 16.865476608276367 16.99190902709961 15.528882026672363 C15.944872856140137 15.431234359741211 15.03838062286377 15.347131729125977 13.825963020324707 15.234245300292969 C14.044965744018555 14.129634857177734 14.23518180847168 13.168394088745117 14.442331314086914 12.121920585632324 C16.886356353759766 12.121920585632324 19.209028244018555 12.121920585632324 21.872058868408203 12.121920585632324 C21.268672943115234 15.47131061553955 20.694637298583984 18.656444549560547 20.104232788085938 21.932458877563477 C17.029163360595703 23.183258056640625 13.892566680908203 23.65117835998535 10.709123611450195 23.07488441467285 C4.17911434173584 21.89238166809082 1.4015045166015625 15.285041809082031 4.978362083435059 9.651928901672363 C6.338663578033447 7.509313106536865 8.309123992919922 6.110065937042236 10.63913345336914 5.189463138580322 C14.192285537719727 3.785700798034668 18.042333602905273 3.7467546463012695 22.21749496459961 5.1680145263671875"></path></svg>