<svg xmlns="http://www.w3.org/2000/svg" viewBox="0.0 0.0 24.0 24.0" height="200px" width="200px"><path fill="none" stroke="black" stroke-width=".3" stroke-opacity="1.0"  filling="0" d="M8.409592628479004 7.628965377807617 L8.409592628479004 7.628965377807617 C9.216611862182617 7.628965377807617 10.023630142211914 7.628965377807617 10.830649375915527 7.628965377807617 L10.830649375915527 7.628965377807617 C10.48762035369873 9.454071998596191 10.111369132995605 11.277632713317871 9.804863929748535 13.109253883361816 C9.70022964477539 13.734528541564941 9.491354942321777 14.82825756072998 9.82199478149414 15.435673713684082 C10.619819641113281 16.90135383605957 12.389595031738281 16.48432731628418 13.289862632751465 15.460674285888672 C14.06300163269043 14.581573486328125 14.452888488769531 13.167559623718262 14.703003883361816 11.702118873596191 C14.953119277954102 10.236679077148438 15.063465118408203 8.719812393188477 15.277521133422852 7.635006904602051 L15.277521133422852 7.635006904602051 C16.084753036499023 7.635006904602051 16.891983032226562 7.635006904602051 17.699214935302734 7.635006904602051 L17.699214935302734 7.635006904602051 C17.415300369262695 8.996184349060059 17.236740112304688 10.639030456542969 16.915481567382812 12.229080200195312 C16.59422492980957 13.819129943847656 16.130271911621094 15.356382369995117 15.275575637817383 16.506372451782227 C14.40776538848877 17.67400550842285 12.672138214111328 18.41053581237793 11.03685188293457 18.422317504882812 C9.401565551757812 18.434101104736328 7.866621017456055 17.72113800048828 7.400176525115967 15.98978328704834 C7.069028377532959 14.760623931884766 7.216132164001465 13.28095817565918 7.498648643493652 11.803313255310059 C7.781164646148682 10.325668334960938 8.199092864990234 8.850043296813965 8.409592628479004 7.628965377807617 L8.409592628479004 7.628965377807617"></path></svg>