<svg xmlns="http://www.w3.org/2000/svg" viewBox="0.0 0.0 24.0 24.0" height="200px" width="200px"><path fill="none" stroke="black" stroke-width=".3" stroke-opacity="1.0"  filling="0" d="M15.220976829528809 7.630661964416504 L15.220976829528809 7.630661964416504 C16.066925048828125 7.630661964416504 16.912874221801758 7.630661964416504 17.75882339477539 7.630661964416504 L17.75882339477539 7.630661964416504 C17.221752166748047 8.946577072143555 16.558353424072266 10.210516929626465 15.864338874816895 11.460051536560059 C15.170324325561523 12.709586143493652 14.445695877075195 13.94471549987793 13.786170959472656 15.203008651733398 C13.429933547973633 15.882665634155273 12.647924423217773 17.712665557861328 11.87255859375 18.15427017211914 C11.223628044128418 18.52386474609375 9.987480163574219 18.352741241455078 9.242820739746094 18.292922973632812 L9.242820739746094 18.292922973632812 C8.968570709228516 16.521541595458984 8.694279670715332 14.750168800354004 8.419961929321289 12.978798866271973 C8.145644187927246 11.207428932189941 7.8712992668151855 9.436063766479492 7.596942901611328 7.664699554443359 L7.596942901611328 7.664699554443359 C8.390403747558594 7.664699554443359 9.183865547180176 7.664699554443359 9.977326393127441 7.664699554443359 L9.977326393127441 7.664699554443359 C10.169183731079102 9.016801834106445 10.361026763916016 10.368905067443848 10.552847862243652 11.721012115478516 C10.744668960571289 13.073118209838867 10.936466217041016 14.425228118896484 11.1282320022583 15.77734375 L11.1282320022583 15.77734375 C11.810382843017578 14.419576644897461 12.492530822753906 13.061808586120605 13.174659729003906 11.704030990600586 C13.856788635253906 10.34625244140625 14.538900375366211 8.988466262817383 15.220976829528809 7.630661964416504 L15.220976829528809 7.630661964416504"></path></svg>