<svg xmlns="http://www.w3.org/2000/svg" viewBox="0.0 0.0 24.0 24.0" height="200px" width="200px"><path fill="none" stroke="black" stroke-width=".3" stroke-opacity="1.0"  filling="0" d="M10.015799522399902 7.322528839111328 L10.015799522399902 7.322528839111328 C10.079394340515137 7.322528839111328 12.269477844238281 7.322528839111328 12.273625373840332 7.322528839111328 L12.273625373840332 7.322528839111328 C11.935629844665527 9.289857864379883 11.597648620605469 11.257190704345703 11.259576797485352 13.224505424499512 L11.259576797485352 13.224505424499512 C11.342270851135254 13.26590347290039 11.424964904785156 13.30730152130127 11.507658958435059 13.348699569702148 L11.507658958435059 13.348699569702148 C13.316551208496094 11.615941047668457 13.946248054504395 10.757430076599121 16.584325790405273 11.036730766296387 L16.584325790405273 11.036730766296387 C15.54454517364502 11.97232723236084 14.504823684692383 12.90798568725586 13.465093612670898 13.84364128112793 L13.465093612670898 13.84364128112793 C14.21915054321289 15.269927024841309 14.973172187805176 16.69622802734375 15.727201461791992 18.122528076171875 L15.727201461791992 18.122528076171875 C15.725521087646484 18.122528076171875 13.22208309173584 18.122528076171875 13.183669090270996 18.122528076171875 L13.183669090270996 18.122528076171875 C13.100327491760254 17.963478088378906 11.740253448486328 15.368144035339355 11.663666725158691 15.222012519836426 L11.663666725158691 15.222012519836426 C10.978572845458984 16.052194595336914 10.476061820983887 17.068065643310547 10.23206901550293 18.116409301757812 L10.23206901550293 18.116409301757812 C10.053826332092285 18.116409301757812 8.124857902526855 18.116409301757812 7.986783981323242 18.116409301757812 L7.986783981323242 18.116409301757812 C8.324893951416016 16.31741714477539 8.663058280944824 14.518436431884766 9.001239776611328 12.719459533691406 C9.339420318603516 10.920480728149414 9.677619934082031 9.121506690979004 10.015799522399902 7.322528839111328 L10.015799522399902 7.322528839111328"></path></svg>