<svg xmlns="http://www.w3.org/2000/svg" viewBox="0.0 0.0 24.0 24.0" height="200px" width="200px"><path fill="none" stroke="black" stroke-width=".3" stroke-opacity="1.0"  filling="0" d="M16.883808135986328 9.70067310333252 L16.883808135986328 9.70067310333252 C16.556846618652344 11.411125183105469 16.229862213134766 13.121572494506836 15.902864456176758 14.832016944885254 C15.575865745544434 16.542461395263672 15.248852729797363 18.25290298461914 14.921831130981445 19.96334457397461 L14.921831130981445 19.96334457397461 C14.133773803710938 19.96334457397461 13.345717430114746 19.96334457397461 12.557660102844238 19.96334457397461 L12.557660102844238 19.96334457397461 C12.81700325012207 18.615325927734375 13.076384544372559 17.267316818237305 13.335790634155273 15.919310569763184 L13.335790634155273 15.919310569763184 C12.28599739074707 16.42654800415039 11.455482482910156 17.045076370239258 10.190975189208984 16.77235984802246 C7.5067458152771 16.193450927734375 7.872494697570801 12.51663875579834 9.275102615356445 10.954540252685547 C10.280792236328125 9.834493637084961 11.536596298217773 9.358686447143555 12.864164352416992 9.244060516357422 C14.191732406616211 9.129434585571289 15.591064453125 9.37598991394043 16.883808135986328 9.70067310333252 L16.883808135986328 9.70067310333252"></path>
<path fill="none" stroke="black" stroke-width=".3" stroke-opacity="1.0"  filling="0" d="M14.244889259338379 11.309769630432129 L14.244889259338379 11.309769630432129 C14.13179874420166 11.700922966003418 13.6650390625 13.438827514648438 13.420968055725098 13.796903610229492 C11.291685104370117 16.920772552490234 9.332315444946289 12.245683670043945 12.197494506835938 11.266620635986328 C12.843439102172852 11.045893669128418 13.562424659729004 11.29538631439209 14.244889259338379 11.309769630432129 L14.244889259338379 11.309769630432129"></path></svg>