<svg xmlns="http://www.w3.org/2000/svg" viewBox="0.0 0.0 24.0 24.0" height="200px" width="200px"><path fill="none" stroke="black" stroke-width=".3" stroke-opacity="1.0"  filling="0" d="M15.3645658493042 4.97882604598999 C15.2124662399292 6.378261566162109 15.084678649902344 7.553287982940674 14.933202743530273 8.949605941772461 C15.876340866088867 9.126016616821289 16.82883071899414 9.304296493530273 18.07741355895996 9.537431716918945 C17.82744789123535 10.627681732177734 17.588703155517578 11.673049926757812 17.344970703125 12.737119674682617 C16.15685272216797 12.884232521057129 15.153249740600586 13.008279800415039 13.908406257629395 13.161625862121582 C13.54062557220459 15.306594848632812 13.181571960449219 17.402942657470703 12.808181762695312 19.58531379699707 C13.820512771606445 19.988624572753906 14.55171012878418 20.279109954833984 15.418174743652344 20.623825073242188 C15.210597038269043 21.689762115478516 15.018603324890137 22.68027687072754 14.7705078125 23.963144302368164 C13.678387641906738 24.054153442382812 12.860544204711914 24.20874786376953 12.050803184509277 24.173213958740234 C9.056822776794434 24.04355812072754 7.6954121589660645 22.456491470336914 8.143606185913086 19.504899978637695 C8.452167510986328 17.471511840820312 8.955215454101562 15.46742057800293 9.385954856872559 13.379176139831543 C8.759481430053711 13.049421310424805 8.244589805603027 12.778884887695312 7.643673419952393 12.46284294128418 C7.808239459991455 11.550249099731445 7.972182273864746 10.640771865844727 8.173526763916016 9.524965286254883 C10.405766487121582 9.657739639282227 10.598382949829102 7.936029434204102 10.80471420288086 6.118321895599365 C12.244667053222656 5.7586445808410645 13.630388259887695 5.4120588302612305 15.3645658493042 4.97882604598999"></path></svg>