<svg xmlns="http://www.w3.org/2000/svg" viewBox="0.0 0.0 24.0 24.0" height="200px" width="200px"><path fill="none" stroke="black" stroke-width=".3" stroke-opacity="1.0"  filling="0" d="M8.764184951782227 5.607820510864258 C10.792534828186035 5.607820510864258 12.471094131469727 5.5688958168029785 14.146989822387695 5.61635160446167 C17.240703582763672 5.704331874847412 19.17947006225586 7.172272682189941 19.93770408630371 10.112419128417969 C20.962543487548828 14.087002754211426 20.34241485595703 17.860563278198242 18.213287353515625 21.355789184570312 C16.9831600189209 23.375072479248047 15.10677719116211 24.562541961669922 12.764364242553711 24.71664047241211 C10.47953987121582 24.866474151611328 8.177117347717285 24.749168395996094 5.506777286529541 24.749168395996094 C6.600399494171143 18.322328567504883 7.660430908203125 12.092779159545898 8.764184951782227 5.607820510864258"></path>
<path fill="none" stroke="black" stroke-width=".3" stroke-opacity="1.0"  filling="0" d="M11.450522422790527 9.039057731628418 C15.924728393554688 8.51170825958252 17.45558738708496 9.920995712280273 17.159122467041016 14.075272560119629 C17.10260009765625 14.867095947265625 16.971961975097656 15.66051959991455 16.802400588989258 16.436880111694336 C15.90553092956543 20.54956817626953 13.923038482666016 21.895401000976562 9.26594066619873 21.341392517089844 C10.018839836120605 17.098600387573242 10.740812301635742 13.0328369140625 11.450522422790527 9.039057731628418"></path></svg>