<svg xmlns="http://www.w3.org/2000/svg" viewBox="0.0 0.0 24.0 24.0" height="200px" width="200px"><path fill="none" stroke="black" stroke-width=".3" stroke-opacity="1.0"  filling="0" d="M3.5268239974975586 9.582010269165039 C5.4486470222473145 9.582010269165039 6.9839677810668945 9.582010269165039 8.618585586547852 9.582010269165039 C9.361421585083008 10.928793907165527 10.10551643371582 12.276835441589355 11.046316146850586 13.98121166229248 C13.184328079223633 10.965873718261719 15.256352424621582 8.030977249145508 19.713998794555664 9.884927749633789 C17.587299346923828 12.149258613586426 15.482595443725586 14.390966415405273 13.293050765991211 16.72254180908203 C14.582645416259766 19.285390853881836 15.787397384643555 21.67855453491211 17.139209747314453 24.365211486816406 C15.246923446655273 24.365211486816406 13.740510940551758 24.365211486816406 12.05310344696045 24.365211486816406 C11.332891464233398 22.96563720703125 10.577486038208008 21.497562408447266 9.68696117401123 19.76741600036621 C8.402395248413086 21.3913516998291 7.217123985290527 22.888965606689453 5.99477481842041 24.434341430664062 C4.350731372833252 24.433712005615234 2.7129716873168945 24.433712005615234 0.513371467590332 24.433712005615234 C3.1063852310180664 21.53527069091797 5.255709648132324 19.133304595947266 7.449026584625244 16.682321548461914 C6.155032634735107 14.339433670043945 4.909430503845215 12.085156440734863 3.5268239974975586 9.582010269165039"></path></svg>