<svg xmlns="http://www.w3.org/2000/svg" viewBox="0.0 0.0 24.0 24.0" height="200px" width="200px"><path fill="none" stroke="black" stroke-width=".3" stroke-opacity="1.0"  filling="0" d="M13.657252311706543 9.120916366577148 L13.657252311706543 9.120916366577148 C13.748910903930664 9.120916366577148 16.11328887939453 9.120916366577148 16.114351272583008 9.120916366577148 L16.114351272583008 9.120916366577148 C15.045439720153809 11.07558822631836 14.09606647491455 13.427058219909668 12.832195281982422 15.464125633239746 C11.568324089050293 17.50119400024414 9.98995590209961 19.223857879638672 7.663053035736084 19.920917510986328 L7.663053035736084 19.920917510986328 C7.51638650894165 19.325191497802734 7.369719982147217 18.72946548461914 7.223053455352783 18.133739471435547 L7.223053455352783 18.133739471435547 C7.973372459411621 17.7362117767334 9.332380294799805 17.170337677001953 9.679275512695312 16.282405853271484 C10.362393379211426 14.533860206604004 8.666886329650879 10.863748550415039 8.22824478149414 9.147787094116211 L8.22824478149414 9.147787094116211 C9.016031265258789 9.147787094116211 9.803816795349121 9.147787094116211 10.59160327911377 9.147787094116211 L10.59160327911377 9.147787094116211 C10.916057586669922 10.697288513183594 11.24043083190918 12.246803283691406 11.564733505249023 13.79633617401123 L11.564733505249023 13.79633617401123 C12.262208938598633 12.237850189208984 12.95970344543457 10.679369926452637 13.657252311706543 9.120916366577148 L13.657252311706543 9.120916366577148"></path></svg>