<svg xmlns="http://www.w3.org/2000/svg" viewBox="0.0 0.0 24.0 24.0" height="200px" width="200px"><path fill="none" stroke="black" stroke-width=".3" stroke-opacity="1.0"  filling="0" d="M8.334306716918945 10.634183883666992 L8.334306716918945 10.634183883666992 C9.74850082397461 10.634183883666992 11.162694931030273 10.634183883666992 12.576889038085938 10.634183883666992 C13.991083145141602 10.634183883666992 15.405277252197266 10.634183883666992 16.81947135925293 10.634183883666992 L16.81947135925293 10.634183883666992 C16.184593200683594 12.187055587768555 15.25110912322998 13.352251052856445 14.199689865112305 14.429753303527832 C13.148271560668945 15.507255554199219 11.97891616821289 16.49706268310547 10.872297286987305 17.69915771484375 L10.872297286987305 17.69915771484375 C12.425625801086426 17.69915771484375 13.978957176208496 17.69915771484375 15.532285690307617 17.69915771484375 L15.532285690307617 17.69915771484375 C15.387592315673828 18.497568130493164 15.242990493774414 19.29599380493164 15.098506927490234 20.094440460205078 L15.098506927490234 20.094440460205078 C13.585333824157715 20.094440460205078 12.072161674499512 20.094440460205078 10.558989524841309 20.094440460205078 C9.045816421508789 20.094440460205078 7.532644748687744 20.094440460205078 6.019472122192383 20.094440460205078 L6.019472122192383 20.094440460205078 C6.748770713806152 18.574954986572266 7.726593971252441 17.395357131958008 8.809576034545898 16.299278259277344 C9.892559051513672 15.203197479248047 11.080699920654297 14.190632820129395 12.230634689331055 13.005210876464844 L12.230634689331055 13.005210876464844 C10.79481315612793 13.005210876464844 9.358988761901855 13.005210876464844 7.9231672286987305 13.005210876464844 L7.9231672286987305 13.005210876464844 C8.060256004333496 12.214876174926758 8.197306632995605 11.42453384399414 8.334306716918945 10.634183883666992 L8.334306716918945 10.634183883666992"></path></svg>