<svg xmlns="http://www.w3.org/2000/svg" viewBox="0.0 0.0 24.0 24.0" height="200px" width="200px"><path fill="none" stroke="black" stroke-width=".3" stroke-opacity="1.0"  filling="0" d="M8.764840126037598 5.833374500274658 C12.647249221801758 5.833374500274658 16.38702964782715 5.833374500274658 20.38711929321289 5.833374500274658 C20.284624099731445 6.81441593170166 20.188091278076172 7.736888408660889 20.070953369140625 8.85947322845459 C17.186397552490234 8.85947322845459 14.504124641418457 8.85947322845459 11.600587844848633 8.85947322845459 C11.340819358825684 10.325883865356445 11.112506866455078 11.617127418518066 10.8353853225708 13.182781219482422 C13.571889877319336 13.182781219482422 16.06869125366211 13.182781219482422 18.80736541748047 13.182781219482422 C18.701072692871094 14.366105079650879 18.617557525634766 15.293458938598633 18.5085506439209 16.502269744873047 C15.691784858703613 16.502269744873047 13.021985054016113 16.502269744873047 10.262702941894531 16.502269744873047 C9.937315940856934 18.34775733947754 9.659652709960938 19.923171997070312 9.328300476074219 21.803909301757812 C12.343010902404785 21.803909301757812 15.176589012145996 21.803909301757812 18.266681671142578 21.803909301757812 C18.160930633544922 23.027904510498047 18.080669403076172 23.95580291748047 17.98739242553711 25.033374786376953 C13.661371231079102 25.033374786376953 9.717681884765625 25.033374786376953 5.510970115661621 25.033374786376953 C6.608608722686768 18.557632446289062 7.674251079559326 12.27115535736084 8.764840126037598 5.833374500274658"></path></svg>