<svg xmlns="http://www.w3.org/2000/svg" viewBox="0.0 0.0 24.0 24.0" height="200px" width="200px"><path fill="none" stroke="black" stroke-width=".3" stroke-opacity="1.0"  filling="0" d="M11.505322456359863 4.278862476348877 C12.36458969116211 4.278862476348877 13.076651573181152 4.278862476348877 13.985557556152344 4.278862476348877 C15.376019477844238 10.588142395019531 16.755640029907227 16.84835433959961 18.142675399780273 23.142230987548828 C16.14798927307129 23.309404373168945 16.14798927307129 23.309404373168945 14.75239372253418 18.006027221679688 C13.522260665893555 18.006027221679688 12.232219696044922 18.006027221679688 10.661460876464844 18.006027221679688 C10.454347610473633 18.706106185913086 10.179906845092773 19.57564353942871 9.943122863769531 20.454879760742188 C9.697209358215332 21.364356994628906 9.488383293151855 22.28467559814453 9.195115089416504 23.478862762451172 C8.455095291137695 23.437782287597656 7.9147725105285645 23.408111572265625 7.174753189086914 23.36703109741211 C8.639957427978516 16.909975051879883 10.059516906738281 10.652046203613281 11.505322456359863 4.278862476348877"></path>
<path fill="none" stroke="black" stroke-width=".3" stroke-opacity="1.0"  filling="0" d="M12.372576713562012 8.09022045135498 C12.553445816040039 8.102202415466309 12.734884262084961 8.11418342590332 12.916322708129883 8.126165390014648 C13.416707038879395 10.656610488891602 13.917089462280273 13.18762493133545 14.456271171569824 15.915484428405762 C13.235267639160156 15.915484428405762 12.24876594543457 15.915484428405762 10.959864616394043 15.915484428405762 C11.451688766479492 13.190478324890137 11.91213321685791 10.640634536743164 12.372576713562012 8.09022045135498"></path></svg>