<svg xmlns="http://www.w3.org/2000/svg" viewBox="0.0 0.0 24.0 24.0" height="200px" width="200px"><path fill="none" stroke="black" stroke-width=".3" stroke-opacity="1.0"  filling="0" d="M8.510345458984375 5.758362293243408 C12.207630157470703 5.758362293243408 15.69214153289795 5.758362293243408 19.49066925048828 5.758362293243408 C19.3704776763916 6.744809627532959 19.260028839111328 7.654919147491455 19.120346069335938 8.804330825805664 C16.496675491333008 8.804330825805664 14.0164794921875 8.804330825805664 11.347331047058105 8.804330825805664 C11.044683456420898 10.492986679077148 10.7815580368042 11.963455200195312 10.458878517150879 13.764723777770996 C13.037069320678711 13.764723777770996 15.423602104187012 13.764723777770996 18.00937271118164 13.764723777770996 C17.855072021484375 14.952576637268066 17.743541717529297 15.816123962402344 17.596820831298828 16.945505142211914 C15.011049270629883 16.945505142211914 12.534642219543457 16.945505142211914 9.959699630737305 16.945505142211914 C9.436698913574219 19.73213768005371 8.96134090423584 22.263771057128906 8.455122947692871 24.958904266357422 C7.4767961502075195 24.958904266357422 6.546655178070068 24.958904266357422 5.260265827178955 24.958904266357422 C6.354995250701904 18.49285316467285 7.425902843475342 12.163776397705078 8.510345458984375 5.758362293243408"></path></svg>