<svg xmlns="http://www.w3.org/2000/svg" viewBox="0.0 0.0 24.0 24.0" height="200px" width="200px"><path fill="none" stroke="black" stroke-width=".3" stroke-opacity="1.0"  filling="0" d="M8.07711410522461 8.255066871643066 L8.07711410522461 8.255066871643066 C9.317943572998047 8.255066871643066 10.558773040771484 8.255066871643066 11.799602508544922 8.255066871643066 L11.799602508544922 8.255066871643066 C10.48808765411377 9.487985610961914 10.413543701171875 10.045100212097168 10.307435035705566 11.807666778564453 L10.307435035705566 11.807666778564453 C11.676219940185547 11.807666778564453 13.045000076293945 11.807666778564453 14.413784980773926 11.807666778564453 L14.413784980773926 11.807666778564453 C14.496768951416016 11.204612731933594 14.784049987792969 10.595030784606934 14.662736892700195 9.998504638671875 C14.532604217529297 9.358609199523926 14.020256996154785 8.861480712890625 13.699017524719238 8.29296875 L13.699017524719238 8.29296875 C15.00857162475586 8.29296875 16.318126678466797 8.29296875 17.627681732177734 8.29296875 L17.627681732177734 8.29296875 C15.833491325378418 9.711320877075195 16.067920684814453 11.380617141723633 15.780218124389648 13.516843795776367 C15.694676399230957 14.15200424194336 15.366351127624512 14.79665756225586 15.512144088745117 15.42074966430664 C15.644343376159668 15.986651420593262 16.2053165435791 16.353700637817383 16.551902770996094 16.82017707824707 L16.551902770996094 16.82017707824707 C15.02537727355957 16.99312973022461 13.858685493469238 16.944021224975586 12.348243713378906 16.63765525817871 L12.348243713378906 16.63765525817871 C14.086167335510254 15.292935371398926 13.988441467285156 14.686748504638672 14.287174224853516 12.582379341125488 L14.287174224853516 12.582379341125488 C12.892942428588867 12.582379341125488 11.498714447021484 12.582379341125488 10.104482650756836 12.582379341125488 L10.104482650756836 12.582379341125488 C9.80041790008545 14.419454574584961 9.559881210327148 15.034455299377441 10.571674346923828 16.654319763183594 L10.571674346923828 16.654319763183594 C10.442168235778809 16.654319763183594 6.981579780578613 16.654319763183594 6.827414035797119 16.654319763183594 L6.827414035797119 16.654319763183594 C7.866619110107422 15.773613929748535 8.331246376037598 14.478058815002441 8.5875883102417 13.077329635620117 C8.843931198120117 11.67660140991211 8.891988754272461 10.170699119567871 9.09805679321289 8.869298934936523 L9.09805679321289 8.869298934936523 C8.74734878540039 8.725933074951172 8.396639823913574 8.582568168640137 8.045931816101074 8.439202308654785 L8.045931816101074 8.439202308654785 C8.056325912475586 8.377823829650879 8.066720008850098 8.316445350646973 8.07711410522461 8.255066871643066 L8.07711410522461 8.255066871643066"></path></svg>