<svg xmlns="http://www.w3.org/2000/svg" viewBox="0.0 0.0 24.0 24.0" height="200px" width="200px"><path fill="none" stroke="black" stroke-width=".3" stroke-opacity="1.0"  filling="0" d="M10.043424606323242 7.645690441131592 L10.043424606323242 7.645690441131592 C10.413599014282227 7.645690441131592 10.783773422241211 7.645690441131592 11.153947830200195 7.645690441131592 L11.153947830200195 7.645690441131592 C11.153947830200195 8.889411926269531 11.153947830200195 10.133133888244629 11.153947830200195 11.376855850219727 L11.153947830200195 11.376855850219727 C11.881999015808105 11.076593399047852 12.89917278289795 10.54786205291748 13.70185375213623 10.980871200561523 C14.189618110656738 11.243997573852539 14.380349159240723 11.891115188598633 14.522749900817871 12.426718711853027 C14.98655891418457 14.17121696472168 14.587525367736816 16.602060317993164 14.564153671264648 18.39208984375 L14.564153671264648 18.39208984375 C14.267051696777344 18.405141830444336 13.969948768615723 18.418195724487305 13.672846794128418 18.43124771118164 L13.672846794128418 18.43124771118164 C13.161260604858398 16.72418975830078 14.134490013122559 14.414813041687012 13.313050270080566 12.810588836669922 C12.8020601272583 11.812655448913574 12.005212783813477 11.499517440795898 11.384397506713867 12.726496696472168 C10.696924209594727 14.085220336914062 11.190325736999512 16.875675201416016 11.193426132202148 18.368337631225586 L11.193426132202148 18.368337631225586 C10.810091972351074 18.394121170043945 10.426758766174316 18.419906616210938 10.043424606323242 18.445690155029297 L10.043424606323242 18.445690155029297 C10.043424606323242 16.64569091796875 10.043424606323242 14.84568977355957 10.043424606323242 13.045690536499023 C10.043424606323242 11.24569034576416 10.043424606323242 9.445690155029297 10.043424606323242 7.645690441131592 L10.043424606323242 7.645690441131592"></path></svg>