<svg xmlns="http://www.w3.org/2000/svg" viewBox="0.0 0.0 24.0 24.0" height="200px" width="200px"><path fill="none" stroke="black" stroke-width=".3" stroke-opacity="1.0"  filling="0" d="M8.705061912536621 6.6598896980285645 C9.594194412231445 7.098580837249756 10.224812507629395 7.409693241119385 10.900754928588867 7.743747711181641 C11.960551261901855 7.580916881561279 13.364473342895508 6.995063304901123 14.579267501831055 7.2636494636535645 C16.43642807006836 7.674362659454346 17.029556274414062 9.534322738647461 17.153217315673828 11.203474044799805 C17.295345306396484 13.121068000793457 17.30261993408203 15.146096229553223 16.83483123779297 16.989269256591797 C16.059289932250977 20.0472354888916 14.053285598754883 20.8177433013916 10.782689094543457 19.412139892578125 C10.782689094543457 21.660432815551758 10.782689094543457 23.59872817993164 10.782689094543457 25.514644622802734 C9.41234016418457 26.16204833984375 8.700586318969727 25.95221710205078 8.702264785766602 24.43973731994629 C8.708978652954102 18.68807601928711 8.705061912536621 12.93641471862793 8.705061912536621 6.6598896980285645"></path>
<path fill="none" stroke="black" stroke-width=".3" stroke-opacity="1.0"  filling="0" d="M12.83289623260498 8.912096977233887 C13.382379531860352 8.889155387878418 14.239057540893555 9.514177322387695 14.472392082214355 10.062541007995605 C14.93122673034668 11.140243530273438 15.051530838012695 12.362310409545898 15.338582992553711 13.642572402954102 C15.062723159790039 14.851211547851562 14.884223937988281 16.140424728393555 14.441057205200195 17.331157684326172 C14.258082389831543 17.822446823120117 13.467432022094727 18.44746971130371 13.024824142456055 18.3959903717041 C12.403158187866211 18.323806762695312 11.380292892456055 17.71613121032715 11.343362808227539 17.270166397094727 C11.14695930480957 14.906606674194336 11.116183280944824 12.516189575195312 11.251595497131348 10.148153305053711 C11.279013633728027 9.677008628845215 12.264389991760254 8.936159133911133 12.83289623260498 8.912096977233887"></path></svg>