<svg xmlns="http://www.w3.org/2000/svg" viewBox="0.0 0.0 24.0 24.0" height="200px" width="200px"><path fill="none" stroke="black" stroke-width=".3" stroke-opacity="1.0"  filling="0" d="M10.036316871643066 7.178585052490234 L10.036316871643066 7.178585052490234 C11.214341163635254 7.146247863769531 12.394643783569336 7.165289878845215 13.571352005004883 7.229659557342529 L13.571352005004883 7.229659557342529 C12.331070899963379 8.47407341003418 12.18666934967041 10.150778770446777 12.073969841003418 11.843901634216309 C11.961270332336426 13.53702449798584 11.880271911621094 15.246564865112305 10.76679801940918 16.556652069091797 C9.844085693359375 17.642292022705078 6.359624862670898 19.007516860961914 7.4124836921691895 16.41002655029297 L7.4124836921691895 16.41002655029297 C8.131346702575684 16.833541870117188 8.85084342956543 17.623449325561523 9.660249710083008 16.447126388549805 C9.980802536010742 15.981261253356934 9.853057861328125 15.332682609558105 9.94570541381836 14.774828910827637 C10.22370433807373 13.100932121276855 10.476505279541016 11.423009872436523 10.733037948608398 9.745739936828613 C10.833576202392578 9.088399887084961 11.096314430236816 8.387520790100098 10.886026382446289 7.756662368774414 L10.886026382446289 7.756662368774414 C10.600333213806152 7.656970500946045 10.314640998840332 7.557278633117676 10.028947830200195 7.457586765289307 L10.028947830200195 7.457586765289307 C10.031404495239258 7.364586353302002 10.033860206604004 7.271585464477539 10.036316871643066 7.178585052490234 L10.036316871643066 7.178585052490234"></path></svg>