<svg xmlns="http://www.w3.org/2000/svg" viewBox="0.0 0.0 24.0 24.0" height="200px" width="200px"><path fill="none" stroke="black" stroke-width=".3" stroke-opacity="1.0"  filling="0" d="M5.388569355010986 4.225874423980713 C6.081766605377197 4.225874423980713 6.614691257476807 4.225874423980713 7.225770473480225 4.225874423980713 C7.225770473480225 8.94007396697998 7.225770473480225 13.542704582214355 7.225770473480225 18.632387161254883 C7.656187534332275 17.709821701049805 7.9540815353393555 17.166135787963867 8.170422554016113 16.592435836791992 C9.53303337097168 12.984861373901367 10.883749008178711 9.372190475463867 12.225971221923828 5.756119728088379 C12.641097068786621 4.637601375579834 13.033570289611816 3.5326757431030273 14.70766544342041 4.447878837585449 C14.707097053527832 9.167176246643066 14.707097053527832 13.955565452575684 14.707097053527832 19.288772583007812 C16.052715301513672 15.554338455200195 17.228435516357422 12.293929100036621 18.402454376220703 9.032953262329102 C18.84872817993164 7.793239116668701 19.309162139892578 6.558055400848389 19.732215881347656 5.310412406921387 C20.102035522460938 4.220211029052734 20.723308563232422 3.760910987854004 22.060434341430664 4.451843738555908 C21.260765075683594 6.607893466949463 20.456565856933594 8.787729263305664 19.64443588256836 10.964166641235352 C18.294851303100586 14.579103469848633 16.90279197692871 18.179317474365234 15.605311393737793 21.812942504882812 C15.144311904907227 23.103626251220703 14.542293548583984 23.767940521240234 12.871596336364746 22.947885513305664 C12.871596336364746 18.782466888427734 12.871596336364746 14.499252319335938 12.871596336364746 10.215468406677246 C12.701695442199707 10.186018943786621 12.531793594360352 10.156003952026367 12.361891746520996 10.126553535461426 C10.853734016418457 13.936878204345703 9.358600616455078 17.752864837646484 7.831752300262451 21.55582618713379 C7.2252044677734375 23.06624984741211 7.1934895515441895 23.053226470947266 5.388569355010986 23.146102905273438 C5.388569355010986 16.8597469329834 5.388569355010986 10.580755233764648 5.388569355010986 4.225874423980713"></path></svg>