<svg xmlns="http://www.w3.org/2000/svg" viewBox="0.0 0.0 24.0 24.0" height="200px" width="200px"><path fill="none" stroke="black" stroke-width=".3" stroke-opacity="1.0"  filling="0" d="M8.389232635498047 5.694750785827637 C9.599462509155273 5.694750785827637 10.394078254699707 5.694750785827637 11.401346206665039 5.694750785827637 C12.729475021362305 9.627994537353516 14.061910629272461 13.574158668518066 15.394346237182617 17.51978302001953 C15.545086860656738 17.517629623413086 15.695826530456543 17.514938354492188 15.847105026245117 17.51278305053711 C16.530282974243164 13.645758628845215 17.213459014892578 9.779272079467773 17.918169021606445 5.788962364196777 C18.892059326171875 5.788962364196777 19.740510940551758 5.788962364196777 20.912517547607422 5.788962364196777 C19.821802139282227 12.205650329589844 18.750469207763672 18.50928497314453 17.665142059326172 24.89474868774414 C16.613189697265625 24.89474868774414 15.736204147338867 24.89474868774414 14.622880935668945 24.89474868774414 C13.318438529968262 21.012649536132812 11.993539810180664 17.070253372192383 10.669179916381836 13.1273193359375 C10.512516975402832 13.13162612915039 10.356393814086914 13.13647174835205 10.199731826782227 13.140778541564941 C9.511709213256836 17.002960205078125 8.82530403137207 20.865678787231445 8.11628532409668 24.852760314941406 C7.161777019500732 24.852760314941406 6.312248229980469 24.852760314941406 5.13970422744751 24.852760314941406 C6.22557258605957 18.4500675201416 7.293674945831299 12.15235424041748 8.389232635498047 5.694750785827637"></path></svg>