<svg xmlns="http://www.w3.org/2000/svg" viewBox="0.0 0.0 24.0 24.0" height="200px" width="200px"><path fill="none" stroke="black" stroke-width=".3" stroke-opacity="1.0"  filling="0" d="M17.01805877685547 7.284743785858154 C17.076168060302734 8.032211303710938 17.215749740600586 8.503936767578125 17.129722595214844 8.930084228515625 C16.229572296142578 13.374439239501953 15.440515518188477 17.849557876586914 14.317605018615723 22.238651275634766 C13.506898880004883 25.407411575317383 10.857149124145508 26.897220611572266 8.11282730102539 26.190200805664062 C7.193305492401123 25.95206069946289 6.450965881347656 25.604534149169922 7.249138355255127 24.272537231445312 C11.267914772033691 24.949928283691406 12.217061996459961 24.12554931640625 13.023210525512695 19.17642593383789 C12.407917022705078 19.57181167602539 11.942459106445312 19.943836212158203 11.418889999389648 20.193939208984375 C9.83508014678955 20.950523376464844 8.669440269470215 20.542606353759766 7.906590461730957 19.01975440979004 C6.095463275909424 15.405476570129395 8.907011985778809 8.472600936889648 12.802729606628418 7.34228515625 C14.066929817199707 6.975388050079346 15.527682304382324 7.284743785858154 17.01805877685547 7.284743785858154"></path>
<path fill="none" stroke="black" stroke-width=".3" stroke-opacity="1.0"  filling="0" d="M15.294097900390625 8.99560260772705 C14.47712516784668 11.873238563537598 13.84644889831543 14.59021282196045 12.879071235656738 17.182422637939453 C12.613584518432617 17.894567489624023 11.340838432312012 18.23126792907715 10.530132293701172 18.74002456665039 C10.202545166015625 17.913936614990234 9.516037940979004 17.0394229888916 9.619726181030273 16.272014617919922 C9.866983413696289 14.44037914276123 10.295409202575684 12.577406883239746 11.018379211425781 10.884210586547852 C11.60803508758545 9.504358291625977 12.766837120056152 8.418479919433594 15.294097900390625 8.99560260772705"></path></svg>