<svg xmlns="http://www.w3.org/2000/svg" viewBox="0.0 0.0 24.0 24.0" height="200px" width="200px"><path fill="none" stroke="black" stroke-width=".3" stroke-opacity="1.0"  filling="0" d="M10.06605052947998 10.485877990722656 L10.06605052947998 10.485877990722656 C10.451735496520996 10.439373970031738 10.910318374633789 10.115976333618164 11.223104476928711 10.346366882324219 C11.549774169921875 10.586983680725098 11.400467872619629 11.138188362121582 11.48914909362793 11.534098625183105 L11.48914909362793 11.534098625183105 C11.906596183776855 11.262049674987793 12.302674293518066 10.953988075256348 12.741490364074707 10.717950820922852 C14.047616958618164 10.015390396118164 15.491595268249512 10.077132225036621 16.06175422668457 11.730827331542969 C16.308340072631836 12.446028709411621 15.978075981140137 13.664695739746094 15.851491928100586 14.341191291809082 C15.447340965270996 16.501068115234375 15.044957160949707 18.66126823425293 14.64055347442627 20.821102142333984 L14.64055347442627 20.821102142333984 C14.147758483886719 20.821102142333984 13.654962539672852 20.821102142333984 13.1621675491333 20.821102142333984 L13.1621675491333 20.821102142333984 C13.477726936340332 18.564559936523438 13.796890258789062 16.30847930908203 14.101473808288574 14.050421714782715 C14.204720497131348 13.284996032714844 14.347488403320312 12.426386833190918 14.00227165222168 11.735472679138184 L14.00227165222168 11.735472679138184 C13.467467308044434 11.864102363586426 12.846696853637695 11.803391456604004 12.397858619689941 12.121362686157227 C11.71726131439209 12.603520393371582 11.290048599243164 14.23920726776123 11.084404945373535 14.94894027709961 C10.50892162322998 16.935091018676758 10.099353790283203 18.96310043334961 9.715444564819336 20.992809295654297 L9.715444564819336 20.992809295654297 C9.219202995300293 20.95310401916504 8.72296142578125 20.91339683532715 8.226719856262207 20.87369155883789 L8.226719856262207 20.87369155883789 C8.533251762390137 19.142383575439453 8.83984088897705 17.411088943481445 9.146419525146484 15.679791450500488 C9.452997207641602 13.948493957519531 9.759563446044922 12.217193603515625 10.06605052947998 10.485877990722656 L10.06605052947998 10.485877990722656"></path></svg>