<svg xmlns="http://www.w3.org/2000/svg" viewBox="0.0 0.0 24.0 24.0" height="200px" width="200px"><path fill="none" stroke="black" stroke-width=".3" stroke-opacity="1.0"  filling="0" d="M8.561867713928223 9.308228492736816 C10.569209098815918 8.14633560180664 11.196503639221191 9.1875638961792 11.091821670532227 11.171731948852539 C13.429192543029785 9.814858436584473 15.314271926879883 7.629316806793213 17.8210506439209 9.533575057983398 C20.156024932861328 11.306779861450195 19.279409408569336 13.827943801879883 18.847097396850586 16.162118911743164 C18.148681640625 19.928279876708984 17.440677642822266 23.692047119140625 16.694316864013672 27.681957244873047 C15.747385025024414 27.681957244873047 14.925908088684082 27.681957244873047 14.066075325012207 27.681957244873047 C14.779672622680664 22.566913604736328 15.482083320617676 17.62447166442871 16.131752014160156 12.674840927124023 C16.17330551147461 12.359994888305664 15.801722526550293 11.991609573364258 15.559595108032227 11.529728889465332 C13.082383155822754 11.108602523803711 11.880534172058105 12.753152847290039 11.210088729858398 14.611063003540039 C10.273542404174805 17.20574378967285 9.679011344909668 19.929080963134766 9.014158248901367 22.61725616455078 C8.604219436645508 24.276187896728516 8.33652114868164 25.969486236572266 7.938568592071533 27.987215042114258 C6.893344879150391 27.903308868408203 6.270045757293701 27.853763580322266 5.291945457458496 27.775453567504883 C6.415482044219971 21.428993225097656 7.494268894195557 15.33984375 8.561867713928223 9.308228492736816"></path></svg>