<svg xmlns="http://www.w3.org/2000/svg" viewBox="0.0 0.0 24.0 24.0" height="200px" width="200px"><path fill="none" stroke="black" stroke-width=".3" stroke-opacity="1.0"  filling="0" d="M15.274640083312988 8.986931800842285 C15.869081497192383 9.15356731414795 16.3153133392334 9.85135555267334 17.362398147583008 10.77586555480957 C10.027205467224121 11.802921295166016 9.680314064025879 12.829976081848145 13.920721054077148 18.319353103637695 C15.741701126098633 20.676292419433594 15.95319938659668 23.139781951904297 14.523174285888672 25.311656951904297 C13.108369827270508 27.46030044555664 9.984745025634766 28.61073112487793 7.481197834014893 27.711055755615234 C6.808244705200195 27.469112396240234 6.3588080406188965 26.607093811035156 5.7259111404418945 25.945354461669922 C6.437319278717041 25.45425796508789 6.546273708343506 25.314861297607422 6.641608715057373 25.323673248291016 C8.694917678833008 25.514345169067383 11.01740837097168 26.430843353271484 12.241541862487793 23.853591918945312 C13.420011520385742 21.37167739868164 11.383526802062988 19.972095489501953 10.07206916809082 18.36581802368164 C7.863339424133301 15.662788391113281 7.604572772979736 13.83940601348877 9.07866096496582 11.532136917114258 C10.346858024597168 9.546124458312988 13.046683311462402 8.362847328186035 15.274640083312988 8.986931800842285"></path></svg>