<svg xmlns="http://www.w3.org/2000/svg" viewBox="0.0 0.0 24.0 24.0" height="200px" width="200px"><path fill="none" stroke="black" stroke-width=".3" stroke-opacity="1.0"  filling="0" d="M8.078259468078613 5.672820568084717 C10.939423561096191 5.672820568084717 13.616255760192871 5.567488670349121 16.279653549194336 5.706140041351318 C18.4029541015625 5.816308975219727 19.638996124267578 7.162517070770264 19.972726821899414 9.27883243560791 C20.55581283569336 12.974591255187988 19.389636993408203 15.053288459777832 15.706774711608887 16.721405029296875 C16.74504852294922 19.323001861572266 17.788158416748047 21.935882568359375 18.930150985717773 24.797584533691406 C17.62639808654785 24.797584533691406 16.610158920288086 24.797584533691406 15.426785469055176 24.797584533691406 C14.806615829467773 23.044017791748047 14.21385383605957 21.19049835205078 13.49641227722168 19.386951446533203 C12.596254348754883 17.120698928833008 12.26198673248291 16.96055030822754 9.404047012329102 17.04438591003418 C8.921453475952148 19.70563316345215 8.464118957519531 22.228229522705078 7.991736888885498 24.83466339111328 C6.9346537590026855 24.83466339111328 5.996338367462158 24.83466339111328 4.809739589691162 24.83466339111328 C5.912502288818359 18.370174407958984 6.986245632171631 12.076581954956055 8.078259468078613 5.672820568084717"></path>
<path fill="none" stroke="black" stroke-width=".3" stroke-opacity="1.0"  filling="0" d="M10.803459167480469 8.849441528320312 C11.900846481323242 8.849441528320312 12.9380464553833 8.83923053741455 13.974706649780273 8.852128982543945 C15.233856201171875 8.868250846862793 16.554269790649414 8.784415245056152 16.78266716003418 10.542279243469238 C16.975061416625977 12.022302627563477 16.24042320251465 13.489965438842773 14.732992172241211 13.862390518188477 C13.305634498596191 14.21546745300293 11.781542778015137 14.176774978637695 9.911360740661621 14.34552001953125 C10.24455451965332 12.292619705200195 10.499285697937012 10.722311019897461 10.803459167480469 8.849441528320312"></path></svg>