<svg xmlns="http://www.w3.org/2000/svg" viewBox="0.0 0.0 24.0 24.0" height="200px" width="200px"><path fill="none" stroke="black" stroke-width=".3" stroke-opacity="1.0"  filling="0" d="M8.763570785522461 4.253918170928955 C9.52348518371582 4.253918170928955 10.14183521270752 4.253918170928955 11.056902885437012 4.253918170928955 C10.539912223815918 7.162768840789795 10.039909362792969 9.975921630859375 9.441944122314453 13.340608596801758 C12.135618209838867 10.4685640335083 14.528043746948242 8.010452270507812 16.80438804626465 5.449282646179199 C17.83780288696289 4.286195278167725 18.883676528930664 3.703518867492676 20.62887191772461 4.431156635284424 C18.100543975830078 7.077264785766602 15.6492280960083 9.642965316772461 13.038228034973145 12.375709533691406 C14.59769344329834 15.915369033813477 16.140737533569336 19.418787002563477 17.797597885131836 23.17984962463379 C16.90121841430664 23.227981567382812 16.150930404663086 23.2681827545166 15.361004829406738 23.31008529663086 C13.964620590209961 20.214374542236328 12.628826141357422 17.253427505493164 11.233007431030273 14.15771198272705 C7.491762638092041 16.29249382019043 8.763004302978516 20.191722869873047 7.264694690704346 23.229679107666016 C6.697307586669922 23.229679107666016 6.161064147949219 23.229679107666016 5.22787618637085 23.229679107666016 C6.420975208282471 16.827604293823242 7.581797122955322 10.59597110748291 8.763570785522461 4.253918170928955"></path></svg>