<svg xmlns="http://www.w3.org/2000/svg" viewBox="0.0 0.0 24.0 24.0" height="200px" width="200px"><path fill="none" stroke="black" stroke-width=".3" stroke-opacity="1.0"  filling="0" d="M12.210262298583984 4.362448215484619 C16.86542320251465 3.240483283996582 20.53710174560547 5.648891448974609 21.301279067993164 10.324966430664062 C22.225982666015625 15.98339557647705 18.598957061767578 21.860000610351562 13.426618576049805 23.055442810058594 C12.789048194885254 23.202966690063477 12.128870010375977 23.252140045166016 11.871694564819336 23.289445877075195 C7.695274829864502 23.329010009765625 5.053431034088135 21.115039825439453 4.403426170349121 17.371013641357422 C3.3950719833374023 11.567888259887695 6.960487365722656 5.627978324890137 12.210262298583984 4.362448215484619"></path>
<path fill="none" stroke="black" stroke-width=".3" stroke-opacity="1.0"  filling="0" d="M15.707852363586426 6.401200771331787 C17.795780181884766 6.9002909660339355 18.827871322631836 8.77569580078125 18.863483428955078 11.76515007019043 C18.795089721679688 14.455602645874023 18.191997528076172 16.973098754882812 16.402507781982422 19.077417373657227 C14.774670600891113 20.9918212890625 11.992086410522461 21.777477264404297 9.783767700195312 20.99068832397461 C7.762536525726318 20.270599365234375 6.6937031745910645 18.357891082763672 6.718573093414307 15.50578498840332 C6.7417473793029785 12.891071319580078 7.488404273986816 10.517141342163086 9.131502151489258 8.464258193969727 C10.853731155395508 6.313026428222656 13.147398948669434 5.789066314697266 15.707852363586426 6.401200771331787"></path></svg>