<svg xmlns="http://www.w3.org/2000/svg" viewBox="0.0 0.0 24.0 24.0" height="200px" width="200px"><path fill="none" stroke="black" stroke-width=".3" stroke-opacity="1.0"  filling="0" d="M13.72913932800293 4.135093688964844 C17.008808135986328 4.135093688964844 19.08298110961914 5.488012790679932 19.65737533569336 7.889358997344971 C20.31512451171875 10.638291358947754 18.669620513916016 13.9105863571167 15.92125415802002 15.1143798828125 C14.984530448913574 15.524337768554688 13.951980590820312 15.778364181518555 12.937005996704102 15.926358222961426 C12.015592575073242 16.061309814453125 11.057889938354492 15.955276489257812 9.812138557434082 15.955276489257812 C9.2706298828125 18.482501983642578 8.78242301940918 20.761940002441406 8.259626388549805 23.20354461669922 C7.616621494293213 23.240966796875 7.015575885772705 23.276123046875 6.00627326965332 23.33565902709961 C7.232178688049316 16.903907775878906 8.404217720031738 10.75566577911377 9.607442855834961 4.442420959472656 C11.132737159729004 4.322778224945068 12.430654525756836 4.135660648345947 13.72913932800293 4.135093688964844"></path>
<path fill="none" stroke="black" stroke-width=".3" stroke-opacity="1.0"  filling="0" d="M11.516045570373535 6.487677097320557 C13.459802627563477 5.812351703643799 15.295260429382324 5.74657678604126 16.702045440673828 7.379038333892822 C17.925683975219727 8.799433708190918 17.442012786865234 10.40070915222168 16.60451889038086 11.825640678405762 C15.468770027160645 13.757491111755371 13.337326049804688 14.33812427520752 10.167661666870117 13.59418773651123 C10.642261505126953 11.093611717224121 11.075468063354492 8.808505058288574 11.516045570373535 6.487677097320557"></path></svg>