<svg xmlns="http://www.w3.org/2000/svg" viewBox="0.0 0.0 24.0 24.0" height="200px" width="200px"><path fill="none" stroke="black" stroke-width=".3" stroke-opacity="1.0"  filling="0" d="M13.903911590576172 7.649752140045166 L13.903911590576172 7.649752140045166 C14.391894340515137 7.823541164398193 14.958918571472168 7.85316276550293 15.367860794067383 8.17111873626709 C17.60894012451172 9.91357421875 15.704690933227539 12.106281280517578 14.098227500915527 13.206098556518555 L14.098227500915527 13.206098556518555 C14.984578132629395 14.977716445922852 15.104520797729492 16.30372428894043 15.24338150024414 18.26947593688965 L15.24338150024414 18.26947593688965 C14.837201118469238 18.31510353088379 14.431020736694336 18.360733032226562 14.024840354919434 18.406360626220703 L14.024840354919434 18.406360626220703 C13.865736961364746 17.202539443969727 14.043216705322266 14.155181884765625 12.46701717376709 13.787178993225098 C11.94649600982666 13.665650367736816 11.397979736328125 13.788848876953125 10.863460540771484 13.78968334197998 L10.863460540771484 13.78968334197998 C10.556045532226562 15.305508613586426 10.248525619506836 16.82131576538086 9.941018104553223 18.337120056152344 L9.941018104553223 18.337120056152344 C9.518139839172363 18.337120056152344 9.095260620117188 18.337120056152344 8.672382354736328 18.337120056152344 L8.672382354736328 18.337120056152344 C9.008539199829102 16.564359664916992 9.344647407531738 14.791590690612793 9.680729866027832 13.018816947937012 C10.016813278198242 11.24604320526123 10.35287094116211 9.47326374053955 10.688926696777344 7.700484752655029 L10.688926696777344 7.700484752655029 C11.759535789489746 7.650075435638428 12.832274436950684 7.631326198577881 13.903911590576172 7.649752140045166 L13.903911590576172 7.649752140045166"></path>
<path fill="none" stroke="black" stroke-width=".3" stroke-opacity="1.0"  filling="0" d="M12.386716842651367 8.669510841369629 L12.386716842651367 8.669510841369629 C12.970873832702637 8.749824523925781 13.618183135986328 8.634328842163086 14.139187812805176 8.910451889038086 C15.147039413452148 9.444594383239746 15.087393760681152 10.882865905761719 14.48841381072998 11.652928352355957 C13.532299041748047 12.882132530212402 12.365911483764648 12.59626579284668 11.07787799835205 12.608154296875 L11.07787799835205 12.608154296875 C11.081334114074707 12.589730262756348 11.766894340515137 8.934965133666992 11.777605056762695 8.8778657913208 L11.777605056762695 8.8778657913208 C11.980642318725586 8.808414459228516 12.183679580688477 8.738962173461914 12.386716842651367 8.669510841369629 L12.386716842651367 8.669510841369629"></path></svg>