<svg xmlns="http://www.w3.org/2000/svg" viewBox="0.0 0.0 24.0 24.0" height="200px" width="200px"><path fill="none" stroke="black" stroke-width=".3" stroke-opacity="1.0"  filling="0" d="M4.6559014320373535 3.898736000061035 C10.685500144958496 3.898736000061035 16.30735206604004 3.898736000061035 22.423004150390625 3.898736000061035 C21.895126342773438 5.4979658126831055 21.42038345336914 6.936637878417969 20.946216583251953 8.37473201751709 C20.029071807861328 5.02091121673584 17.809553146362305 4.836096286773682 14.788978576660156 5.564961910247803 C14.045674324035645 10.784839630126953 13.284466743469238 16.13408660888672 12.504777908325195 21.609241485595703 C13.708386421203613 21.940757751464844 14.564889907836914 22.176393508911133 15.661653518676758 22.478450775146484 C13.23017692565918 23.45508575439453 7.746937274932861 23.26738166809082 5.513559818267822 21.993310928344727 C8.533557891845703 21.784814834594727 9.048151969909668 19.675609588623047 9.421826362609863 17.422595977783203 C9.939309120178223 14.302105903625488 10.509925842285156 11.190278053283691 11.011237144470215 8.067476272583008 C11.141763687133789 7.252556324005127 11.098447799682617 6.409914493560791 11.134832382202148 5.578823089599609 C8.003946304321289 4.7182769775390625 5.710503101348877 5.614053249359131 4.022331237792969 8.228611946105957 C3.8398256301879883 8.117146492004395 3.656743049621582 8.0056791305542 3.473660469055176 7.894212245941162 C3.8894948959350586 6.489038467407227 4.3053297996521 5.083864688873291 4.6559014320373535 3.898736000061035"></path></svg>