<svg xmlns="http://www.w3.org/2000/svg" viewBox="0.0 0.0 24.0 24.0" height="200px" width="200px"><path fill="none" stroke="black" stroke-width=".3" stroke-opacity="1.0"  filling="0" d="M12.186657905578613 7.42258882522583 L12.186657905578613 7.42258882522583 C12.503938674926758 7.585878372192383 12.821219444274902 7.749167442321777 13.138500213623047 7.91245698928833 L13.138500213623047 7.91245698928833 C12.240970611572266 8.619441986083984 11.217673301696777 8.670559883117676 12.186657905578613 7.42258882522583 L12.186657905578613 7.42258882522583"></path>
<path fill="none" stroke="black" stroke-width=".3" stroke-opacity="1.0"  filling="0" d="M11.459451675415039 9.902311325073242 L11.459451675415039 9.902311325073242 C11.785780906677246 9.902311325073242 12.11211109161377 9.902311325073242 12.438440322875977 9.902311325073242 L12.438440322875977 9.902311325073242 C12.073609352111816 11.838584899902344 11.759479522705078 13.794601440429688 11.331475257873535 15.718056678771973 C11.168046951293945 16.452503204345703 10.958163261413574 17.576860427856445 10.20097541809082 17.986122131347656 C9.672508239746094 18.271759033203125 9.006274223327637 18.113218307495117 8.408924102783203 18.17676544189453 L8.408924102783203 18.17676544189453 C8.838945388793945 17.69805908203125 9.4968900680542 17.453594207763672 9.903368949890137 16.954742431640625 C10.2219877243042 16.563716888427734 10.580870628356934 14.298833847045898 10.598003387451172 14.21189022064209 C10.881231307983398 12.774596214294434 11.148107528686523 11.333833694458008 11.459451675415039 9.902311325073242 L11.459451675415039 9.902311325073242"></path></svg>