<svg xmlns="http://www.w3.org/2000/svg" viewBox="0.0 0.0 24.0 24.0" height="200px" width="200px"><path fill="none" stroke="black" stroke-width=".3" stroke-opacity="1.0"  filling="0" d="M8.558565139770508 10.626928329467773 L8.558565139770508 10.626928329467773 C8.701974868774414 12.62679386138916 8.845318794250488 14.626664161682129 8.988683700561523 16.62653350830078 L8.988683700561523 16.62653350830078 C9.58899211883545 15.508672714233398 10.05698299407959 14.26733112335205 10.68009090423584 13.189149856567383 C11.303197860717773 12.110969543457031 12.081422805786133 11.195947647094727 13.302196502685547 10.730728149414062 L13.302196502685547 10.730728149414062 C13.509639739990234 12.527541160583496 13.71713638305664 14.324358940124512 13.924668312072754 16.12116050720215 L13.924668312072754 16.12116050720215 C14.014627456665039 16.147109985351562 14.10458755493164 16.173059463500977 14.194546699523926 16.19900894165039 L14.194546699523926 16.19900894165039 C15.051746368408203 14.384651184082031 15.774487495422363 10.619440078735352 18.064966201782227 10.810200691223145 L18.064966201782227 10.810200691223145 C17.419157028198242 12.128568649291992 16.8475284576416 13.737204551696777 16.103330612182617 15.185293197631836 C15.359132766723633 16.63338279724121 14.442363739013672 17.920923233032227 13.106274604797363 18.59709930419922 L13.106274604797363 18.59709930419922 C12.850300788879395 16.555377960205078 12.594202995300293 14.513673782348633 12.338159561157227 12.471962928771973 L12.338159561157227 12.471962928771973 C11.839725494384766 13.42544937133789 11.357409477233887 14.86915111541748 10.698589324951172 16.07050895690918 C10.03976821899414 17.271867752075195 9.20444393157959 18.230880737304688 7.999993801116943 18.214988708496094 L7.999993801116943 18.214988708496094 C7.877622604370117 16.962581634521484 7.755233287811279 15.710176467895508 7.632833957672119 14.457772254943848 C7.510434150695801 13.205368041992188 7.388024806976318 11.952964782714844 7.265613555908203 10.7005615234375 L7.265613555908203 10.7005615234375 C7.696597576141357 10.676016807556152 8.127581596374512 10.651473045349121 8.558565139770508 10.626928329467773 L8.558565139770508 10.626928329467773"></path></svg>