<svg xmlns="http://www.w3.org/2000/svg" viewBox="0.0 0.0 24.0 24.0" height="200px" width="200px"><path fill="none" stroke="black" stroke-width=".3" stroke-opacity="1.0"  filling="0" d="M10.607677459716797 4.688197135925293 C13.46690559387207 3.60207462310791 16.5388126373291 4.233121395111084 17.7135009765625 6.201425075531006 C19.04085350036621 8.424944877624512 18.103317260742188 10.566307067871094 14.701028823852539 13.07942008972168 C18.553150177001953 16.285926818847656 17.817218780517578 20.85999298095703 13.146429061889648 22.74380874633789 C10.749853134155273 23.711063385009766 8.545561790466309 23.565391540527344 5.620490550994873 22.12441635131836 C5.900761127471924 21.537071228027344 6.102952480316162 21.112878799438477 6.295820713043213 20.70791244506836 C7.766513824462891 20.873394012451172 9.190009117126465 21.20494270324707 10.600685119628906 21.154830932617188 C13.033388137817383 21.06859588623047 14.561184883117676 19.540796279907227 14.645090103149414 17.419830322265625 C14.717926025390625 15.581463813781738 13.596843719482422 14.548365592956543 11.0178861618042 14.073478698730469 C10.6490478515625 14.005304336547852 10.282540321350098 13.925477981567383 9.154464721679688 13.697648048400879 C10.235925674438477 12.944238662719727 10.778403282165527 12.461775779724121 11.405954360961914 12.1529541015625 C12.435555458068848 11.646601676940918 13.787962913513184 11.503844261169434 14.505247116088867 10.739362716674805 C15.173002243041992 10.027323722839355 15.598361015319824 8.595088958740234 15.354799270629883 7.6878509521484375 C15.18232536315918 7.0451507568359375 13.75125503540039 6.48927116394043 12.820709228515625 6.369821071624756 C11.819659233093262 6.241630554199219 10.7481050491333 6.669320106506348 9.593809127807617 6.874424934387207 C8.65743637084961 5.570962429046631 9.484264373779297 5.114720821380615 10.607677459716797 4.688197135925293"></path></svg>