<svg xmlns="http://www.w3.org/2000/svg" viewBox="0.0 0.0 24.0 24.0" height="200px" width="200px"><path fill="none" stroke="black" stroke-width=".3" stroke-opacity="1.0"  filling="0" d="M8.749276161193848 8.48724365234375 L8.749276161193848 8.48724365234375 C9.3777494430542 8.48724365234375 10.006221771240234 8.48724365234375 10.634695053100586 8.48724365234375 L10.634695053100586 8.48724365234375 C11.186784744262695 9.978031158447266 11.738909721374512 11.468799591064453 12.291046142578125 12.95957088470459 L12.291046142578125 12.95957088470459 C13.168977737426758 11.471246719360352 14.046818733215332 9.982866287231445 14.924739837646484 8.494534492492676 L14.924739837646484 8.494534492492676 C15.612151145935059 8.494534492492676 16.299562454223633 8.494534492492676 16.986974716186523 8.494534492492676 L16.986974716186523 8.494534492492676 C15.931732177734375 10.312552452087402 14.94001293182373 11.965584754943848 14.11482048034668 13.686685562133789 C13.289628028869629 15.407785415649414 12.630962371826172 17.19695281982422 12.241828918457031 19.287242889404297 L12.241828918457031 19.287242889404297 C11.670370101928711 19.287242889404297 11.098910331726074 19.287242889404297 10.527451515197754 19.287242889404297 L10.527451515197754 19.287242889404297 C10.68919563293457 17.94944953918457 11.176194190979004 16.388835906982422 11.03188419342041 15.03566837310791 C10.80211067199707 12.88111686706543 9.477822303771973 10.516441345214844 8.749276161193848 8.48724365234375 L8.749276161193848 8.48724365234375"></path></svg>