<svg xmlns="http://www.w3.org/2000/svg" viewBox="0.0 0.0 24.0 24.0" height="200px" width="200px"><path fill="none" stroke="black" stroke-width=".3" stroke-opacity="1.0"  filling="0" d="M4.521261692047119 2.9849328994750977 C7.174600124359131 3.1147212982177734 9.396286964416504 3.223369598388672 11.691970825195312 3.3361263275146484 C10.811635971069336 6.690680027008057 12.703856468200684 9.003395080566406 13.20069694519043 11.644400596618652 C13.405659675598145 11.715461730957031 13.61003303527832 11.78652286529541 13.814993858337402 11.857583999633789 C15.266754150390625 9.792701721191406 16.719100952148438 7.727819919586182 18.3223819732666 5.447404384613037 C17.366287231445312 4.905344486236572 16.69443702697754 4.524784564971924 15.468191146850586 3.830031394958496 C18.338237762451172 3.830031394958496 20.531734466552734 3.830031394958496 22.96778106689453 3.830031394958496 C17.18070411682129 8.170629501342773 12.783140182495117 12.900595664978027 13.269996643066406 20.601036071777344 C14.160902976989746 20.998035430908203 14.980161666870117 21.36273956298828 15.79883098602295 21.727439880371094 C15.779451370239258 21.880130767822266 15.76007080078125 22.032238006591797 15.740690231323242 22.1849308013916 C12.718538284301758 22.1849308013916 9.69580078125 22.1849308013916 6.673649311065674 22.1849308013916 C8.941730499267578 22.043983459472656 9.31641674041748 20.306804656982422 9.840271949768066 18.451580047607422 C11.145798683166504 13.832612037658691 9.5078706741333 9.793875694274902 7.53108024597168 5.84792947769165 C7.037763595581055 4.862471580505371 5.857326984405518 4.220573425292969 4.521261692047119 2.9849328994750977"></path></svg>