<svg xmlns="http://www.w3.org/2000/svg" viewBox="0.0 0.0 24.0 24.0" height="200px" width="200px"><path fill="none" stroke="black" stroke-width=".3" stroke-opacity="1.0"  filling="0" d="M18.71728515625 4.136704921722412 C18.844650268554688 4.514840602874756 19.08070182800293 4.8924102783203125 19.081832885742188 5.271111011505127 C19.09145736694336 9.135112762451172 19.202972412109375 13.00590705871582 19.006546020507812 16.860851287841797 C18.800495147705078 20.912790298461914 16.03750228881836 23.4136905670166 12.258413314819336 23.335006713867188 C9.475606918334961 23.276702880859375 7.3381218910217285 21.764728546142578 6.602795600891113 19.087209701538086 C6.234283447265625 17.74392318725586 6.0967278480529785 16.30893325805664 6.0593671798706055 14.909605026245117 C5.981814384460449 11.989810943603516 6.020308017730713 9.066619873046875 6.05370569229126 6.14456033706665 C6.061064720153809 5.487350940704346 6.245604038238525 4.831840991973877 6.348628997802734 4.175765037536621 C6.585812568664551 4.171236515045166 6.822430610656738 4.166141510009766 7.0584821701049805 4.161047458648682 C7.162073612213135 4.905996799468994 7.345480442047119 5.649814128875732 7.355103492736816 6.395895957946777 C7.387935638427734 8.940385818481445 7.308119297027588 11.486574172973633 7.373783588409424 14.029932022094727 C7.412276268005371 15.530584335327148 7.485865592956543 17.062938690185547 7.82381010055542 18.51604652404785 C8.345727920532227 20.76165008544922 10.100547790527344 22.08285903930664 12.281620979309082 22.181922912597656 C14.607606887817383 22.28721046447754 16.56451416015625 21.054874420166016 17.257953643798828 18.793420791625977 C17.63835334777832 17.553157806396484 17.78439712524414 16.20760726928711 17.82119369506836 14.902812004089355 C17.903274536132812 11.983016014099121 17.832515716552734 9.059259414672852 17.867610931396484 6.137766361236572 C17.875537872314453 5.476595401763916 18.0617733001709 4.818253993988037 18.71728515625 4.136704921722412"></path></svg>