<svg xmlns="http://www.w3.org/2000/svg" viewBox="0.0 0.0 24.0 24.0" height="200px" width="200px"><path fill="none" stroke="black" stroke-width=".3" stroke-opacity="1.0"  filling="0" d="M8.727834701538086 7.507486820220947 L8.727834701538086 7.507486820220947 C9.656129837036133 8.837169647216797 10.281307220458984 10.492071151733398 10.7957763671875 12.200970649719238 C11.3102445602417 13.909870147705078 11.714004516601562 15.672767639160156 12.199464797973633 17.218441009521484 L12.199464797973633 17.218441009521484 C12.72001838684082 15.753758430480957 13.161043167114258 13.8641357421875 13.774227142333984 12.091493606567383 C14.387411117553711 10.318851470947266 15.172754287719727 8.663190841674805 16.38194465637207 7.666430473327637 L16.38194465637207 7.666430473327637 C15.736614227294922 9.447322845458984 15.099600791931152 11.230060577392578 14.4454927444458 13.006339073181152 C13.791383743286133 14.782617568969727 13.120180130004883 16.55243492126465 12.406468391418457 18.307485580444336 L12.406468391418457 18.307485580444336 C12.223128318786621 18.293455123901367 12.039788246154785 18.2794246673584 11.85644817352295 18.26539421081543 L11.85644817352295 18.26539421081543 C11.274538040161133 16.508989334106445 10.692619323730469 14.75258731842041 10.11067008972168 12.996194839477539 C9.52872085571289 11.239803314208984 8.946741104125977 9.483421325683594 8.364713668823242 7.727055549621582 L8.364713668823242 7.727055549621582 C8.485754013061523 7.653865814208984 8.606794357299805 7.580676555633545 8.727834701538086 7.507486820220947 L8.727834701538086 7.507486820220947"></path></svg>