<svg xmlns="http://www.w3.org/2000/svg" viewBox="0.0 0.0 24.0 24.0" height="200px" width="200px"><path fill="none" stroke="black" stroke-width=".3" stroke-opacity="1.0"  filling="0" d="M16.01096534729004 10.090132713317871 L16.01096534729004 10.090132713317871 C16.211599349975586 10.1826753616333 16.4122314453125 10.275218963623047 16.612865447998047 10.367761611938477 L16.612865447998047 10.367761611938477 C15.894139289855957 12.121490478515625 15.175413131713867 13.875219345092773 14.456686019897461 15.628947257995605 C13.737958908081055 17.382675170898438 13.019232749938965 19.136404037475586 12.300506591796875 20.890132904052734 L12.300506591796875 20.890132904052734 C12.028059959411621 20.885099411010742 11.75561237335205 20.880064010620117 11.483165740966797 20.875030517578125 L11.483165740966797 20.875030517578125 C10.797754287719727 19.12729835510254 10.112342834472656 17.379566192626953 9.426932334899902 15.631834983825684 C8.741521835327148 13.884103775024414 8.056110382080078 12.136371612548828 7.370699405670166 10.388640403747559 L7.370699405670166 10.388640403747559 C7.569555759429932 10.298762321472168 7.7684125900268555 10.208884239196777 7.967268943786621 10.119006156921387 L7.967268943786621 10.119006156921387 C8.874908447265625 11.550752639770508 9.51479721069336 13.087818145751953 10.115670204162598 14.644577980041504 C10.716543197631836 16.201339721679688 11.278402328491211 17.777793884277344 12.029984474182129 19.2883243560791 L12.029984474182129 19.2883243560791 C12.63438606262207 17.770732879638672 13.165180206298828 16.142133712768555 13.777099609375 14.55745792388916 C14.389018058776855 12.97278118133545 15.082062721252441 11.432028770446777 16.01096534729004 10.090132713317871 L16.01096534729004 10.090132713317871"></path></svg>