<svg xmlns="http://www.w3.org/2000/svg" viewBox="0.0 0.0 24.0 24.0" height="200px" width="200px"><path fill="none" stroke="black" stroke-width=".3" stroke-opacity="1.0"  filling="0" d="M12.177482604980469 10.305495262145996 L12.177482604980469 10.305495262145996 C13.801251411437988 12.075263977050781 14.04397964477539 14.749957084655762 15.01496410369873 16.923505783081055 L15.01496410369873 16.923505783081055 C15.82523250579834 14.777803421020508 16.35179901123047 12.589040756225586 17.351261138916016 10.519051551818848 L17.351261138916016 10.519051551818848 C17.509450912475586 10.578907012939453 17.667640686035156 10.638763427734375 17.825830459594727 10.69861888885498 L17.825830459594727 10.69861888885498 C17.401100158691406 11.967890739440918 16.976322174072266 13.237147331237793 16.551544189453125 14.506404876708984 C16.126768112182617 15.77566146850586 15.701991081237793 17.044918060302734 15.277259826660156 18.314189910888672 L15.277259826660156 18.314189910888672 C15.12708568572998 18.306386947631836 14.976912498474121 18.298582077026367 14.826738357543945 18.29077911376953 L14.826738357543945 18.29077911376953 C13.856143951416016 16.150066375732422 13.209946632385254 13.91042423248291 12.370516777038574 11.717020988464355 L12.370516777038574 11.717020988464355 C11.50263500213623 13.924756050109863 10.839310646057129 16.17508888244629 9.808799743652344 18.31515121459961 L9.808799743652344 18.31515121459961 C9.658626556396484 18.30745506286621 9.508452415466309 18.299760818481445 9.35827922821045 18.292064666748047 L9.35827922821045 18.292064666748047 C8.969491958618164 17.030298233032227 8.580718994140625 15.76852798461914 8.191972732543945 14.506749153137207 C7.803226470947266 13.24497127532959 7.414507865905762 11.983184814453125 7.0258307456970215 10.72138500213623 L7.0258307456970215 10.72138500213623 C7.180066108703613 10.660353660583496 7.334300994873047 10.599323272705078 7.488536357879639 10.538291931152344 L7.488536357879639 10.538291931152344 C8.507781982421875 12.627449035644531 9.032724380493164 14.911470413208008 9.694967269897461 17.140588760375977 L9.694967269897461 17.140588760375977 C10.52244758605957 14.862214088439941 11.349953651428223 12.583850860595703 12.177482604980469 10.305495262145996 L12.177482604980469 10.305495262145996"></path></svg>