<svg xmlns="http://www.w3.org/2000/svg" viewBox="0.0 0.0 24.0 24.0" height="200px" width="200px"><path fill="none" stroke="black" stroke-width=".3" stroke-opacity="1.0"  filling="0" d="M10.794820785522461 7.670224189758301 L10.794820785522461 7.670224189758301 C12.020516395568848 7.670224189758301 13.246212005615234 7.670224189758301 14.471907615661621 7.670224189758301 L14.471907615661621 7.670224189758301 C14.486307144165039 7.795706272125244 14.500707626342773 7.921188831329346 14.515107154846191 8.046670913696289 L14.515107154846191 8.046670913696289 C14.314684867858887 8.06505012512207 11.667963027954102 8.307943344116211 11.499642372131348 8.323400497436523 L11.499642372131348 8.323400497436523 C11.499642372131348 9.667215347290039 11.499642372131348 11.011033058166504 11.499642372131348 12.354846954345703 L11.499642372131348 12.354846954345703 C12.407564163208008 12.426626205444336 13.315494537353516 12.498298645019531 14.223433494567871 12.569866180419922 L14.223433494567871 12.569866180419922 C14.22982120513916 12.707365989685059 14.236209869384766 12.844864845275879 14.242597579956055 12.982364654541016 L14.242597579956055 12.982364654541016 C13.329472541809082 13.049306869506836 12.41634464263916 13.116214752197266 11.503214836120605 13.183093070983887 L11.503214836120605 13.183093070983887 C11.503214836120605 14.753294944763184 11.503214836120605 16.32349967956543 11.503214836120605 17.893699645996094 L11.503214836120605 17.893699645996094 C11.731425285339355 17.90723991394043 14.441915512084961 18.06792640686035 14.664514541625977 18.081111907958984 L14.664514541625977 18.081111907958984 C14.656935691833496 18.210817337036133 14.649357795715332 18.34052085876465 14.641778945922852 18.470226287841797 L14.641778945922852 18.470226287841797 C13.35945987701416 18.470224380493164 12.077139854431152 18.470224380493164 10.794820785522461 18.470224380493164 L10.794820785522461 18.470224380493164 C10.794820785522461 16.670223236083984 10.794820785522461 14.870223999023438 10.794820785522461 13.070223808288574 C10.794820785522461 11.270223617553711 10.794820785522461 9.470224380493164 10.794820785522461 7.670224189758301 L10.794820785522461 7.670224189758301"></path></svg>