<svg xmlns="http://www.w3.org/2000/svg" viewBox="0.0 0.0 24.0 24.0" height="200px" width="200px"><path fill="none" stroke="black" stroke-width=".3" stroke-opacity="1.0"  filling="0" d="M9.147981643676758 4.25590181350708 C9.147981643676758 6.923475742340088 9.147981643676758 9.590476036071777 9.147981643676758 12.504931449890137 C11.435209274291992 12.504931449890137 13.364432334899902 12.504931449890137 15.759921073913574 12.504931449890137 C15.759921073913574 9.797261238098145 15.759921073913574 7.055222511291504 15.759921073913574 4.312610626220703 C16.024559020996094 4.309173583984375 16.288623809814453 4.305164337158203 16.55326271057129 4.301727294921875 C17.31509780883789 6.292812824249268 16.8201904296875 8.432255744934082 16.897520065307617 10.494943618774414 C16.980005264282227 12.686511993408203 16.929597854614258 14.8832368850708 16.916996002197266 17.07767105102539 C16.90553855895996 19.182743072509766 16.868881225585938 21.287818908691406 16.843103408813477 23.39346694946289 C16.517175674438477 23.402629852294922 16.19182014465332 23.41179847717285 15.865890502929688 23.420963287353516 C15.865890502929688 20.314617156982422 15.865890502929688 17.207698822021484 15.865890502929688 13.989081382751465 C13.5030517578125 13.989081382751465 11.629392623901367 13.989081382751465 9.300349235534668 13.989081382751465 C9.300349235534668 17.17275619506836 9.300349235534668 20.315189361572266 9.300349235534668 23.457050323486328 C7.99205207824707 21.940820693969727 7.738297462463379 7.99978494644165 8.496697425842285 4.2736592292785645 C8.713791847229004 4.2679314613342285 8.930887222290039 4.261630058288574 9.147981643676758 4.25590181350708"></path></svg>