<svg xmlns="http://www.w3.org/2000/svg" viewBox="0.0 0.0 24.0 24.0" height="200px" width="200px"><path fill="none" stroke="black" stroke-width=".3" stroke-opacity="1.0"  filling="0" d="M16.2463321685791 6.642413139343262 C16.2463321685791 13.292593002319336 16.2463321685791 19.517410278320312 16.2463321685791 25.74279022216797 C15.992793083190918 25.77581024169922 15.739816665649414 25.808834075927734 15.486279487609863 25.84241485595703 C15.378819465637207 24.889270782470703 15.223787307739258 23.93780517578125 15.176773071289062 22.981304168701172 C15.122483253479004 21.87872314453125 15.164459228515625 20.771106719970703 15.164459228515625 19.825239181518555 C13.618049621582031 19.825239181518555 11.92500114440918 20.331195831298828 11.114017486572266 19.701549530029297 C10.008639335632324 18.843551635742188 9.192618370056152 17.18352508544922 8.952512741088867 15.749610900878906 C8.65476131439209 13.970932006835938 8.782928466796875 11.996362686157227 9.243550300598145 10.24174976348877 C10.103227615356445 6.964792251586914 12.135443687438965 6.271902084350586 15.081067085266113 7.927450656890869 C15.4890775680542 7.477463722229004 15.7459716796875 7.194262981414795 16.2463321685791 6.642413139343262"></path>
<path fill="none" stroke="black" stroke-width=".3" stroke-opacity="1.0"  filling="0" d="M12.551290512084961 8.13733196258545 C13.354998588562012 8.220166206359863 14.41560173034668 9.044023513793945 14.736860275268555 9.813030242919922 C15.215951919555664 10.958704948425293 15.145990371704102 12.33441162109375 15.2881498336792 13.444267272949219 C15.141512870788574 14.831727027893066 15.243936538696289 16.116764068603516 14.81353759765625 17.188560485839844 C14.491719245910645 17.990589141845703 13.507792472839355 18.993545532226562 12.77404499053955 19.03048324584961 C12.063804626464844 19.066864013671875 10.930441856384277 18.130512237548828 10.622056007385254 17.364301681518555 C9.625816345214844 14.889932632446289 9.631972312927246 12.265010833740234 10.651159286499023 9.785604476928711 C10.95171070098877 9.055215835571289 11.961942672729492 8.076886177062988 12.551290512084961 8.13733196258545"></path></svg>