<svg xmlns="http://www.w3.org/2000/svg" viewBox="0.0 0.0 24.0 24.0" height="200px" width="200px"><path fill="none" stroke="black" stroke-width=".3" stroke-opacity="1.0"  filling="0" d="M5.755685806274414 10.481992721557617 C7.0434184074401855 10.65399169921875 7.956033229827881 10.775636672973633 8.868083000183105 10.8972806930542 C12.62038516998291 9.460180282592773 13.186172485351562 9.511100769042969 15.409716606140137 12.060539245605469 C16.05584716796875 11.59998893737793 16.681041717529297 11.065319061279297 17.383750915527344 10.668136596679688 C20.02484893798828 9.175588607788086 22.442455291748047 10.45653247833252 22.492813110351562 13.485193252563477 C22.519405364990234 15.067133903503418 22.16408920288086 16.66322135925293 21.90665626525879 18.24063491821289 C21.530406951904297 20.546220779418945 21.0873966217041 22.841053009033203 20.661922454833984 25.200387954711914 C19.62540054321289 25.200387954711914 18.799917221069336 25.200387954711914 17.600448608398438 25.200387954711914 C17.89918327331543 23.09961700439453 18.167367935180664 21.099557876586914 18.472890853881836 19.10459327697754 C18.65790367126465 17.894939422607422 18.997377395629883 16.701128005981445 19.08450698852539 15.486948013305664 C19.144481658935547 14.649017333984375 18.8927059173584 13.788454055786133 18.776153564453125 12.90865421295166 C16.35515022277832 13.008233070373535 15.713546752929688 14.50870132446289 15.3491792678833 16.081024169921875 C14.671365737915039 19.007278442382812 14.149709701538086 21.969741821289062 13.523948669433594 25.110992431640625 C12.5858736038208 25.110992431640625 11.608192443847656 25.110992431640625 10.397407531738281 25.110992431640625 C10.763471603393555 22.903289794921875 11.220627784729004 20.809310913085938 11.428837776184082 18.691001892089844 C11.616113662719727 16.78146743774414 12.924214363098145 14.75029182434082 11.188943862915039 12.844718933105469 C9.041213989257812 13.266797065734863 8.380940437316895 14.792159080505371 8.036375999450684 16.50253677368164 C7.461536407470703 19.356369018554688 6.971563816070557 22.227737426757812 6.436329364776611 25.144939422607422 C5.403201103210449 25.144939422607422 4.506427764892578 25.144939422607422 3.293379783630371 25.144939422607422 C4.1171650886535645 20.241260528564453 4.905872821807861 15.541830062866211 5.755685806274414 10.481992721557617"></path></svg>