<svg xmlns="http://www.w3.org/2000/svg" viewBox="0.0 0.0 24.0 24.0" height="200px" width="200px"><path fill="none" stroke="black" stroke-width=".3" stroke-opacity="1.0"  filling="0" d="M8.652156829833984 3.5304765701293945 C8.652156829833984 5.751406192779541 8.652156829833984 7.734399795532227 8.652156829833984 10.098969459533691 C9.34294319152832 9.593489646911621 9.743707656860352 9.294149398803711 10.150504112243652 9.003032684326172 C13.654321670532227 6.4953718185424805 17.465702056884766 8.169156074523926 17.80725860595703 12.535907745361328 C18.04738998413086 15.60442066192627 17.853858947753906 18.707473754882812 17.853858947753906 21.800655364990234 C16.461322784423828 22.428394317626953 16.164724349975586 21.789146423339844 16.165821075439453 20.676761627197266 C16.168560028076172 18.122499465942383 16.178977966308594 15.56714153289795 16.126895904541016 13.013426780700684 C16.0972900390625 11.563873291015625 15.637863159179688 10.274955749511719 14.113748550415039 9.756319046020508 C12.496434211730957 9.205883026123047 10.908174514770508 9.534280776977539 9.887347221374512 10.838000297546387 C9.213557243347168 11.69874095916748 8.84294605255127 12.962987899780273 8.753034591674805 14.080306053161621 C8.577596664428711 16.25628089904785 8.733297348022461 18.456926345825195 8.663670539855957 20.644412994384766 C8.646126747131348 21.18717384338379 8.29031753540039 21.71951675415039 7.929025650024414 22.686614990234375 C6.964666843414307 20.749675750732422 6.511270046234131 8.56937313079834 7.012363910675049 4.655470371246338 C7.062253952026367 4.2651214599609375 7.288678169250488 3.8561325073242188 7.547448635101318 3.553502082824707 C7.662031650543213 3.4197311401367188 8.061700820922852 3.5304765701293945 8.652156829833984 3.5304765701293945"></path></svg>