<svg xmlns="http://www.w3.org/2000/svg" viewBox="0.0 0.0 24.0 24.0" height="200px" width="200px"><path fill="none" stroke="black" stroke-width=".3" stroke-opacity="1.0"  filling="0" d="M15.074703216552734 10.346121788024902 L15.074703216552734 10.346121788024902 C15.207637786865234 10.436917304992676 15.340572357177734 10.527713775634766 15.473506927490234 10.618509292602539 L15.473506927490234 10.618509292602539 C15.16040325164795 10.764930725097656 13.139985084533691 11.701786041259766 12.996919631958008 11.807828903198242 C12.032293319702148 12.522828102111816 11.093391418457031 13.871101379394531 10.611990928649902 15.316696166992188 C10.130590438842773 16.76228904724121 10.106690406799316 18.30520248413086 10.972067832946777 19.409482955932617 C11.423787117004395 19.98590660095215 12.912285804748535 20.404813766479492 13.491764068603516 20.613170623779297 L13.491764068603516 20.613170623779297 C12.870024681091309 20.77852439880371 12.265027046203613 21.18825340270996 11.626546859741211 21.10923194885254 C9.020954132080078 20.786752700805664 9.33582592010498 16.655792236328125 9.836234092712402 15.021739959716797 C10.284547805786133 13.557802200317383 10.844063758850098 12.481470108032227 11.666552543640137 11.724836349487305 C12.489041328430176 10.968202590942383 13.574501991271973 10.531267166137695 15.074703216552734 10.346121788024902 L15.074703216552734 10.346121788024902"></path></svg>