<svg xmlns="http://www.w3.org/2000/svg" viewBox="0.0 0.0 24.0 24.0" height="200px" width="200px"><path fill="none" stroke="black" stroke-width=".3" stroke-opacity="1.0"  filling="0" d="M13.09496021270752 5.726667881011963 C13.09496021270752 6.995306491851807 13.09496021270752 8.070026397705078 13.09496021270752 9.305366516113281 C13.91111946105957 9.479698181152344 14.72075080871582 9.65272331237793 15.529728889465332 9.825750350952148 C15.572168350219727 9.996816635131836 15.614608764648438 10.16788387298584 15.657049179077148 10.338951110839844 C14.735115051269531 10.575963973999023 13.813833236694336 10.812976837158203 12.540624618530273 11.1407470703125 C11.906630516052246 14.50267219543457 11.11528205871582 18.06831169128418 10.632768630981445 21.675086975097656 C10.502836227416992 22.644685745239258 11.311813354492188 23.740297317504883 11.688552856445312 24.773883819580078 C9.565231323242188 25.210689544677734 8.915567398071289 24.79869270324707 9.219179153442383 22.318218231201172 C9.611589431762695 19.111690521240234 10.337644577026367 15.945642471313477 10.920709609985352 12.76196575164795 C10.998408317565918 12.338869094848633 11.08198356628418 11.916425704956055 11.200162887573242 11.299407958984375 C10.545275688171387 10.856069564819336 10.06602668762207 10.531564712524414 8.805875778198242 9.677535057067871 C12.769801139831543 10.239706039428711 11.193634033203125 6.8549275398254395 13.09496021270752 5.726667881011963"></path></svg>