<svg xmlns="http://www.w3.org/2000/svg" viewBox="0.0 0.0 24.0 24.0" height="200px" width="200px"><path fill="none" stroke="black" stroke-width=".3" stroke-opacity="1.0"  filling="0" d="M15.526848793029785 10.317766189575195 L15.526848793029785 10.317766189575195 C14.435707092285156 11.941620826721191 13.344513893127441 13.56544303894043 12.253289222717285 15.18924331665039 C11.162063598632812 16.81304359436035 10.070808410644531 18.436824798583984 8.979541778564453 20.06059455871582 L8.979541778564453 20.06059455871582 C10.398475646972656 20.197723388671875 11.817398071289062 20.334970474243164 13.236310005187988 20.472320556640625 L13.236310005187988 20.472320556640625 C13.214266777038574 20.644590377807617 13.192224502563477 20.81686019897461 13.170181274414062 20.9891300201416 L13.170181274414062 20.9891300201416 C11.242149353027344 20.9891300201416 9.314116477966309 20.9891300201416 7.38608455657959 20.9891300201416 L7.38608455657959 20.9891300201416 C8.46946907043457 19.362415313720703 9.552962303161621 17.73577880859375 10.636445045471191 16.109132766723633 C11.719927787780762 14.482486724853516 12.803400039672852 12.855833053588867 13.886738777160645 11.229089736938477 L13.886738777160645 11.229089736938477 C13.693782806396484 11.213672637939453 10.557700157165527 10.963220596313477 10.268168449401855 10.94011116027832 L10.268168449401855 10.94011116027832 C10.266658782958984 10.781882286071777 10.265148162841797 10.62365436553955 10.263638496398926 10.465425491333008 L10.263638496398926 10.465425491333008 C12.07011604309082 10.163043975830078 13.69735050201416 10.237455368041992 15.526848793029785 10.317766189575195 L15.526848793029785 10.317766189575195"></path></svg>