<svg xmlns="http://www.w3.org/2000/svg" viewBox="0.0 0.0 24.0 24.0" height="200px" width="200px"><path fill="none" stroke="black" stroke-width=".3" stroke-opacity="1.0"  filling="0" d="M12.130470275878906 4.9004292488098145 C14.272769927978516 3.4773340225219727 16.3720703125 4.222456455230713 17.212614059448242 6.704037189483643 C19.086315155029297 12.238555908203125 14.387041091918945 21.564659118652344 8.798331260681152 23.375335693359375 C8.65990924835205 23.42068862915039 8.464351654052734 23.28874969482422 7.488329887390137 23.002479553222656 C11.497852325439453 21.291351318359375 14.058951377868652 18.962915420532227 15.164560317993164 14.78551959991455 C14.317535400390625 15.210209846496582 13.790353775024414 15.575996398925781 13.206037521362305 15.747993469238281 C11.49490737915039 16.252792358398438 10.098318099975586 15.541244506835938 9.408565521240234 13.89726448059082 C8.274683952331543 11.194208145141602 9.687765121459961 6.523205280303955 12.130470275878906 4.9004292488098145"></path>
<path fill="none" stroke="black" stroke-width=".3" stroke-opacity="1.0"  filling="0" d="M14.334617614746094 5.507129669189453 C15.071493148803711 5.63730525970459 16.084623336791992 6.9037184715271 16.126445770263672 7.713634014129639 C16.214799880981445 9.414751052856445 16.01629638671875 11.246631622314453 15.422555923461914 12.832298278808594 C14.902441024780273 14.220640182495117 13.429868698120117 15.336262702941895 11.872474670410156 14.580537796020508 C10.965959548950195 14.141120910644531 10.524776458740234 12.743354797363281 9.860940933227539 11.757319450378418 C10.54480266571045 9.869481086730957 10.902933120727539 8.209596633911133 11.738176345825195 6.841280937194824 C12.194085121154785 6.094980716705322 13.543550491333008 5.366940975189209 14.334617614746094 5.507129669189453"></path></svg>