<svg xmlns="http://www.w3.org/2000/svg" viewBox="0.0 0.0 24.0 24.0" height="200px" width="200px"><path fill="none" stroke="black" stroke-width=".3" stroke-opacity="1.0"  filling="0" d="M19.054706573486328 3.8830575942993164 C19.234302520751953 4.063769340515137 19.413898468017578 4.243922233581543 19.593494415283203 4.424633502960205 C18.379268646240234 5.676225662231445 17.202417373657227 6.966860294342041 15.94078540802002 8.168254852294922 C14.599394798278809 9.445503234863281 13.177689552307129 10.637415885925293 11.817336082458496 11.843829154968262 C13.631698608398438 15.758122444152832 15.248617172241211 19.246850967407227 16.866092681884766 22.735580444335938 C16.68817138671875 22.851593017578125 16.50969123840332 22.96704864501953 16.331768035888672 23.08306121826172 C14.673576354980469 22.129863739013672 14.453822135925293 20.098535537719727 13.603811264038086 18.56528091430664 C12.711410522460938 16.9561710357666 11.98410415649414 15.255589485168457 11.103974342346191 13.427841186523438 C9.096631050109863 14.352033615112305 8.345897674560547 15.710713386535645 8.125028610229492 17.492168426513672 C7.954357624053955 18.86981201171875 7.6922149658203125 20.24131965637207 7.373738765716553 21.592750549316406 C7.249361038208008 22.119823455810547 6.860050678253174 22.583871841430664 6.240390300750732 22.96035385131836 C7.11773157119751 16.593074798583984 8.06032943725586 10.284917831420898 9.58354663848877 4.092215061187744 C9.898117065429688 4.141854763031006 10.212688446044922 4.192051410675049 10.52781867980957 4.241691589355469 C10.06934642791748 7.055542469024658 9.610876083374023 9.869394302368164 9.077108383178711 13.145061492919922 C12.955147743225098 10.236393928527832 15.429885864257812 6.384568691253662 19.054706573486328 3.8830575942993164"></path></svg>