<svg xmlns="http://www.w3.org/2000/svg" viewBox="0.0 0.0 24.0 24.0" height="200px" width="200px"><path fill="none" stroke="black" stroke-width=".3" stroke-opacity="1.0"  filling="0" d="M11.48653793334961 7.571830749511719 L11.48653793334961 7.571830749511719 C11.659293174743652 7.596494674682617 11.832049369812012 7.621158599853516 12.004804611206055 7.645822525024414 L12.004804611206055 7.645822525024414 C11.906415939331055 9.315534591674805 11.64350700378418 10.98856258392334 11.323441505432129 12.65434741973877 C11.003376007080078 14.320133209228516 10.626153945922852 15.97867488861084 10.299137115478516 17.619415283203125 L10.299137115478516 17.619415283203125 C11.744426727294922 17.82122039794922 13.127863883972168 17.778167724609375 14.56698989868164 18.015321731567383 L14.56698989868164 18.015321731567383 C14.552362442016602 18.134157180786133 14.537734985351562 18.252994537353516 14.523107528686523 18.371829986572266 L14.523107528686523 18.371829986572266 C12.826834678649902 18.371829986572266 11.13056468963623 18.371829986572266 9.434290885925293 18.371829986572266 L9.434290885925293 18.371829986572266 C9.776357650756836 16.571834564208984 10.118402481079102 14.771835327148438 10.460439682006836 12.971835136413574 C10.802475929260254 11.171833992004395 11.14450454711914 9.371831893920898 11.48653793334961 7.571830749511719 L11.48653793334961 7.571830749511719"></path></svg>