<svg xmlns="http://www.w3.org/2000/svg" viewBox="0.0 0.0 24.0 24.0" height="200px" width="200px"><path fill="none" stroke="black" stroke-width=".3" stroke-opacity="1.0"  filling="0" d="M16.389995574951172 7.611108779907227 L16.389995574951172 7.611108779907227 C15.581076622009277 9.458250999450684 14.707164764404297 11.269254684448242 13.798246383666992 13.062971115112305 C12.889328956604004 14.856687545776367 11.945405960083008 16.63311767578125 10.996463775634766 18.411109924316406 L10.996463775634766 18.411109924316406 C10.790918350219727 18.330848693847656 10.585371971130371 18.250587463378906 10.379826545715332 18.170326232910156 L10.379826545715332 18.170326232910156 C10.168283462524414 16.413869857788086 9.956695556640625 14.657417297363281 9.745092391967773 12.900968551635742 C9.533488273620605 11.144518852233887 9.321868896484375 9.388071060180664 9.110259056091309 7.631621837615967 L9.110259056091309 7.631621837615967 C10.019229888916016 8.747323989868164 10.393240928649902 10.420719146728516 10.58163833618164 12.169440269470215 C10.770036697387695 13.918161392211914 10.772822380065918 15.742208480834961 10.93934440612793 17.15921401977539 L10.93934440612793 17.15921401977539 C11.836448669433594 15.554824829101562 12.677133560180664 13.926467895507812 13.554530143737793 12.319872856140137 C14.431927680969238 10.713277816772461 15.346037864685059 9.128446578979492 16.389995574951172 7.611108779907227 L16.389995574951172 7.611108779907227"></path></svg>