<svg xmlns="http://www.w3.org/2000/svg" viewBox="0.0 0.0 24.0 24.0" height="200px" width="200px"><path fill="none" stroke="black" stroke-width=".3" stroke-opacity="1.0"  filling="0" d="M19.12049102783203 3.9256820678710938 C16.385778427124023 7.350714206695557 14.029167175292969 10.301877975463867 11.650964736938477 13.280720710754395 C12.889886856079102 16.439477920532227 14.08729362487793 19.49139404296875 15.335627555847168 22.675064086914062 C13.92287826538086 22.294750213623047 13.930074691772461 22.291980743408203 12.732115745544434 19.338603973388672 C12.145315170288086 17.891530990600586 11.525300025939941 16.45719337463379 10.739763259887695 14.585519790649414 C8.081445693969727 17.312480926513672 6.399653434753418 20.68215560913086 3.7629261016845703 23.12512969970703 C3.536510467529297 22.93524932861328 3.3095407485961914 22.745922088623047 3.083123207092285 22.556041717529297 C4.038058280944824 21.322654724121094 4.994100093841553 20.089820861816406 5.947927951812744 18.85532569885254 C6.905630588531494 17.615848541259766 7.776974201202393 16.29554557800293 8.840411186218262 15.154606819152832 C9.993529319763184 13.917343139648438 10.196142196655273 12.760350227355957 9.465963363647461 11.193703651428223 C8.43574047088623 8.983790397644043 7.647988796234131 6.660946846008301 6.756163120269775 4.386264801025391 C7.025758743286133 4.245100498199463 7.29535436630249 4.103935718536377 7.564950942993164 3.962771415710449 C9.224599838256836 6.279526233673096 9.613216400146484 9.248404502868652 11.219167709350586 12.068368911743164 C12.45034122467041 10.5083646774292 13.467277526855469 9.015345573425293 14.694022178649902 7.722169876098633 C15.876480102539062 6.476049423217773 16.36695671081543 4.437193870544434 19.12049102783203 3.9256820678710938"></path></svg>