<svg xmlns="http://www.w3.org/2000/svg" viewBox="0.0 0.0 24.0 24.0" height="200px" width="200px"><path fill="none" stroke="black" stroke-width=".3" stroke-opacity="1.0"  filling="0" d="M17.26654624938965 10.76514720916748 L17.26654624938965 10.76514720916748 C16.986690521240234 12.487809181213379 16.706815719604492 14.210467338562012 16.426963806152344 15.933130264282227 C16.147113800048828 17.655792236328125 15.867286682128906 19.37845802307129 15.587530136108398 21.10113525390625 L15.587530136108398 21.10113525390625 C15.437421798706055 21.128662109375 15.287314414978027 21.15618896484375 15.137206077575684 21.1837158203125 L15.137206077575684 21.1837158203125 C15.021347045898438 20.405189514160156 14.905455589294434 19.62666893005371 14.789541244506836 18.8481502532959 L14.789541244506836 18.8481502532959 C13.855141639709473 19.68449592590332 13.238818168640137 20.4031982421875 12.067915916442871 20.87805938720703 C9.208514213562012 22.03769302368164 7.202437877655029 19.597087860107422 7.625889301300049 16.871200561523438 C8.010924339294434 14.392611503601074 9.449786186218262 12.220724105834961 11.746806144714355 11.125986099243164 C13.636181831359863 10.2255277633667 15.287537574768066 10.409995079040527 17.26654624938965 10.76514720916748 L17.26654624938965 10.76514720916748"></path>
<path fill="none" stroke="black" stroke-width=".3" stroke-opacity="1.0"  filling="0" d="M16.18978500366211 11.48283576965332 L16.18978500366211 11.48283576965332 C15.915202140808105 13.153432846069336 15.738776206970215 14.937976837158203 15.040985107421875 16.50316047668457 C14.653448104858398 17.372425079345703 13.496967315673828 18.890214920043945 12.239852905273438 19.748180389404297 C10.982736587524414 20.60614585876465 9.62498664855957 20.80428695678711 8.834912300109863 19.034252166748047 C7.793320655822754 16.700735092163086 8.682265281677246 14.659151077270508 10.306493759155273 13.277811050415039 C11.930723190307617 11.89647102355957 14.290237426757812 11.175374984741211 16.18978500366211 11.48283576965332 L16.18978500366211 11.48283576965332"></path></svg>