<svg xmlns="http://www.w3.org/2000/svg" viewBox="0.0 0.0 24.0 24.0" height="200px" width="200px"><path fill="none" stroke="black" stroke-width=".3" stroke-opacity="1.0"  filling="0" d="M14.805364608764648 6.5029096603393555 C14.649886131286621 8.052838325500488 14.515461921691895 9.393301963806152 14.378877639770508 10.753201484680176 C14.988375663757324 10.968064308166504 15.470468521118164 11.138118743896484 15.939602851867676 11.303854942321777 C16.090763092041016 12.953657150268555 15.407844543457031 13.875192642211914 13.68138313293457 13.920540809631348 C13.312121391296387 16.151227951049805 12.948258399963379 18.26422691345215 12.616246223449707 20.382083892822266 C12.30906867980957 22.3433837890625 12.324183464050293 22.345542907714844 14.434483528137207 23.311885833740234 C14.262809753417969 23.971050262451172 14.086276054382324 24.648571014404297 13.810949325561523 25.702911376953125 C12.654576301574707 25.501007080078125 11.292518615722656 25.639747619628906 10.546976089477539 25.028091430664062 C9.804133415222168 24.418590545654297 9.295048713684082 23.030620574951172 9.359830856323242 22.028108596801758 C9.527727127075195 19.445972442626953 10.06920337677002 16.888132095336914 10.494609832763672 14.100313186645508 C10.024934768676758 13.842802047729492 9.647574424743652 13.636035919189453 8.994888305664062 13.27811050415039 C10.45250129699707 10.695436477661133 11.730881690979004 8.07983112335205 14.805364608764648 6.5029096603393555"></path></svg>