<svg xmlns="http://www.w3.org/2000/svg" viewBox="0.0 0.0 24.0 24.0" height="200px" width="200px"><path fill="none" stroke="black" stroke-width=".3" stroke-opacity="1.0"  filling="0" d="M11.657733917236328 9.170205116271973 L11.657733917236328 9.170205116271973 C11.812064170837402 9.216118812561035 11.966394424438477 9.262033462524414 12.12072467803955 9.307947158813477 L12.12072467803955 9.307947158813477 C11.865785598754883 10.63641357421875 11.634232521057129 11.975234985351562 11.388311386108398 13.31100845336914 C11.142389297485352 14.646780967712402 10.882101058959961 15.979503631591797 10.56969165802002 17.2957706451416 C10.375368118286133 18.1145076751709 10.133792877197266 19.275785446166992 9.287036895751953 19.73630142211914 C8.768667221069336 20.018220901489258 8.113748550415039 19.863340377807617 7.527104377746582 19.92685890197754 L7.527104377746582 19.92685890197754 C7.69331169128418 19.23641014099121 8.841032028198242 19.293779373168945 9.309953689575195 18.760435104370117 C9.735284805297852 18.276668548583984 9.79690170288086 17.564468383789062 9.967916488647461 16.943429946899414 C10.315309524536133 15.681877136230469 10.461987495422363 14.336174011230469 10.659706115722656 13.007058143615723 C10.857423782348633 11.67794132232666 11.106182098388672 10.365411758422852 11.657733917236328 9.170205116271973 L11.657733917236328 9.170205116271973"></path></svg>