<svg xmlns="http://www.w3.org/2000/svg" viewBox="0.0 0.0 24.0 24.0" height="200px" width="200px"><path fill="none" stroke="black" stroke-width=".3" stroke-opacity="1.0"  filling="0" d="M13.557254791259766 11.21102237701416 L13.557254791259766 11.21102237701416 C13.150328636169434 11.375260353088379 12.716459274291992 11.484245300292969 12.33647632598877 11.7037353515625 C10.648843765258789 12.678566932678223 11.10997486114502 13.638968467712402 12.02811050415039 14.6096830368042 C12.946245193481445 15.58039665222168 14.321385383605957 16.56142234802246 14.461771011352539 17.577503204345703 C14.702964782714844 19.323209762573242 13.81788444519043 20.241943359375 12.591421127319336 20.645092010498047 C11.364957809448242 21.048240661621094 9.797111511230469 20.935802459716797 8.672776222229004 20.61916160583496 L8.672776222229004 20.61916160583496 C8.709479331970215 20.397422790527344 8.746183395385742 20.175682067871094 8.782886505126953 19.953943252563477 L8.782886505126953 19.953943252563477 C10.442424774169922 20.192123413085938 14.402377128601074 20.38124656677246 13.248875617980957 17.246776580810547 C12.71189022064209 15.78759765625 10.819618225097656 15.5610990524292 10.231050491333008 14.042399406433105 C9.447709083557129 12.021120071411133 11.807576179504395 9.890986442565918 13.76586627960205 10.407011032104492 C14.39403247833252 10.572537422180176 14.906266212463379 11.02946949005127 15.476466178894043 11.3406982421875 L15.476466178894043 11.3406982421875 C14.836729049682617 11.297472953796387 14.196991920471191 11.254247665405273 13.557254791259766 11.21102237701416 L13.557254791259766 11.21102237701416"></path></svg>