<svg xmlns="http://www.w3.org/2000/svg" viewBox="0.0 0.0 24.0 24.0" height="200px" width="200px"><path fill="none" stroke="black" stroke-width=".3" stroke-opacity="1.0"  filling="0" d="M12.695680618286133 8.41773509979248 L12.695680618286133 8.41773509979248 C12.826993942260742 8.453691482543945 12.958307266235352 8.48964786529541 13.089620590209961 8.525604248046875 L13.089620590209961 8.525604248046875 C13.089620590209961 9.179133415222168 13.089620590209961 9.832663536071777 13.089620590209961 10.48619270324707 L13.089620590209961 10.48619270324707 C13.717154502868652 10.561385154724121 14.34468936920166 10.636577606201172 14.972223281860352 10.711770057678223 L14.972223281860352 10.711770057678223 C14.990930557250977 10.840775489807129 15.009636878967285 10.969779968261719 15.02834415435791 11.098785400390625 L15.02834415435791 11.098785400390625 C14.4892578125 11.182709693908691 13.26856517791748 11.37283706665039 12.758726119995117 11.452274322509766 L12.758726119995117 11.452274322509766 C12.450387001037598 13.062098503112793 12.022571563720703 14.707396507263184 11.838561058044434 16.336254119873047 C11.773137092590332 16.915388107299805 11.499624252319336 17.559757232666016 11.75674819946289 18.08279037475586 C11.999472618103027 18.57653045654297 12.67885684967041 18.683204650878906 13.139910697937012 18.98341178894043 L13.139910697937012 18.98341178894043 C12.547968864440918 19.00946807861328 11.866812705993652 19.37516975402832 11.364084243774414 19.06157875061035 C10.91862678527832 18.78371238708496 10.924019813537598 18.088607788085938 10.868471145629883 17.566539764404297 C10.673582077026367 15.734874725341797 11.513855934143066 13.36968994140625 11.832365989685059 11.56706714630127 L11.832365989685059 11.56706714630127 C11.406356811523438 11.357281684875488 10.980348587036133 11.147496223449707 10.554339408874512 10.937710762023926 L10.554339408874512 10.937710762023926 C11.039141654968262 10.771291732788086 11.523943901062012 10.604872703552246 12.008746147155762 10.438453674316406 L12.008746147155762 10.438453674316406 C12.237699508666992 9.764872550964355 12.46667766571045 9.091300010681152 12.695680618286133 8.41773509979248 L12.695680618286133 8.41773509979248"></path></svg>