<svg xmlns="http://www.w3.org/2000/svg" viewBox="0.0 0.0 24.0 24.0" height="200px" width="200px"><path fill="none" stroke="black" stroke-width=".3" stroke-opacity="1.0"  filling="0" d="M12.806166648864746 4.158653259277344 C15.590181350708008 4.339565753936768 17.582490921020508 5.797642707824707 18.669668197631836 8.387700080871582 C20.170846939086914 11.963419914245605 20.144760131835938 15.569198608398438 18.57779312133789 19.097280502319336 C17.35904312133789 21.841594696044922 15.159733772277832 23.35071563720703 12.122781753540039 23.34164047241211 C9.165227890014648 23.332569122314453 7.082179546356201 21.776947021484375 6.008045673370361 19.101818084716797 C5.354151248931885 17.46963119506836 5.098377704620361 15.677518844604492 4.616888999938965 13.774249076843262 C5.17153787612915 11.81937026977539 5.47891902923584 9.726114273071289 6.3517231941223145 7.903943061828613 C7.586920261383057 5.326362609863281 9.871865272521973 3.9680986404418945 12.806166648864746 4.158653259277344"></path>
<path fill="none" stroke="black" stroke-width=".3" stroke-opacity="1.0"  filling="0" d="M8.066707611083984 7.466690540313721 C10.414036750793457 4.4042181968688965 14.60905647277832 4.400814533233643 16.62688636779785 7.7020463943481445 C17.670394897460938 9.409090995788574 18.04866600036621 11.522764205932617 18.783092498779297 13.611483573913574 C18.066814422607422 15.730260848999023 17.69704818725586 17.93694305419922 16.63312339782715 19.732458114624023 C14.644218444824219 23.087566375732422 10.492867469787598 23.108551025390625 8.112645149230957 20.03190040588379 C5.689888954162598 16.900239944458008 5.666637420654297 10.597784042358398 8.066707611083984 7.466690540313721"></path></svg>