<svg xmlns="http://www.w3.org/2000/svg" viewBox="0.0 0.0 24.0 24.0" height="200px" width="200px"><path fill="none" stroke="black" stroke-width=".3" stroke-opacity="1.0"  filling="0" d="M13.23852252960205 10.310925483703613 L13.23852252960205 10.310925483703613 C13.726381301879883 10.637146949768066 14.343477249145508 10.825028419494629 14.702098846435547 11.289588928222656 C15.4396390914917 12.245002746582031 15.277073860168457 13.781911849975586 15.285467147827148 14.847902297973633 C15.301406860351562 16.872472763061523 15.280693054199219 18.89763832092285 15.275399208068848 20.922218322753906 L15.275399208068848 20.922218322753906 C14.897397994995117 20.487207412719727 14.51939582824707 20.052196502685547 14.14139461517334 19.617185592651367 L14.14139461517334 19.617185592651367 C13.149947166442871 20.243213653564453 12.700149536132812 20.693279266357422 11.382575988769531 20.68982696533203 C9.047202110290527 20.683706283569336 7.775899887084961 18.049654006958008 9.072731018066406 16.148963928222656 C10.160650253295898 14.554464340209961 12.579205513000488 14.29850959777832 14.27441692352295 13.832261085510254 L14.27441692352295 13.832261085510254 C13.734611511230469 10.776123046875 12.630687713623047 10.993783950805664 9.70260238647461 11.287158966064453 L9.70260238647461 11.287158966064453 C10.728550910949707 10.621940612792969 12.016813278198242 10.260807037353516 13.23852252960205 10.310925483703613 L13.23852252960205 10.310925483703613"></path>
<path fill="none" stroke="black" stroke-width=".3" stroke-opacity="1.0"  filling="0" d="M14.365013122558594 14.823963165283203 L14.365013122558594 14.823963165283203 C14.435893058776855 16.621442794799805 14.207511901855469 20.270456314086914 11.358421325683594 19.883838653564453 C8.909092903137207 19.551467895507812 9.512188911437988 16.61941146850586 10.983329772949219 15.626516342163086 C11.369002342224121 15.366220474243164 14.043380737304688 14.887646675109863 14.365013122558594 14.823963165283203 L14.365013122558594 14.823963165283203"></path></svg>