<svg xmlns="http://www.w3.org/2000/svg" viewBox="0.0 0.0 24.0 24.0" height="200px" width="200px"><path fill="none" stroke="black" stroke-width=".3" stroke-opacity="1.0"  filling="0" d="M9.086923599243164 10.02694034576416 L9.086923599243164 10.02694034576416 C9.314765930175781 10.503741264343262 9.542608261108398 10.980541229248047 9.770450592041016 11.457342147827148 L9.770450592041016 11.457342147827148 C10.313994407653809 11.134848594665527 10.806581497192383 10.704361915588379 11.401082992553711 10.489860534667969 C13.39858341217041 9.769144058227539 14.533279418945312 10.325493812561035 15.177074432373047 11.42837142944336 C15.820869445800781 12.53125 15.97376537322998 14.180656433105469 16.007665634155273 15.646055221557617 C16.03820037841797 16.965940475463867 16.620771408081055 20.229875564575195 15.378211975097656 20.826942443847656 L15.378211975097656 20.826942443847656 C15.180708885192871 19.5325927734375 15.288788795471191 18.00632095336914 15.302495956420898 16.505247116088867 C15.316202163696289 15.004173278808594 15.235536575317383 13.52829647064209 14.660541534423828 12.334733963012695 C13.748981475830078 10.442537307739258 11.190990447998047 10.84919548034668 10.198687553405762 12.423757553100586 C9.546213150024414 13.459089279174805 9.404550552368164 14.932178497314453 9.426309585571289 16.43974494934082 C9.448067665100098 17.947311401367188 9.633247375488281 19.489355087280273 9.634454727172852 20.662593841552734 L9.634454727172852 20.662593841552734 C9.465677261352539 20.663923263549805 9.29689884185791 20.665250778198242 9.128121376037598 20.666580200195312 L9.128121376037598 20.666580200195312 C8.734090805053711 18.953147888183594 8.561019897460938 17.153635025024414 8.567843437194824 15.352280616760254 C8.574666023254395 13.55092716217041 8.761382102966309 11.747734069824219 9.086923599243164 10.02694034576416 L9.086923599243164 10.02694034576416"></path></svg>