<svg xmlns="http://www.w3.org/2000/svg" viewBox="0.0 0.0 24.0 24.0" height="200px" width="200px"><path fill="none" stroke="black" stroke-width=".3" stroke-opacity="1.0"  filling="0" d="M13.194639205932617 7.303983211517334 L13.194639205932617 7.303983211517334 C13.755939483642578 7.387359142303467 14.380853652954102 7.281497478485107 14.878539085388184 7.554111003875732 C15.941588401794434 8.136409759521484 16.084157943725586 9.093058586120605 16.311655044555664 10.106627464294434 C16.588895797729492 11.341815948486328 16.479705810546875 13.087867736816406 15.946809768676758 14.625182151794434 C15.41391372680664 16.16249656677246 14.457311630249023 17.491073608398438 13.039730072021484 17.891311645507812 C10.282988548278809 18.669647216796875 9.097383499145508 16.44367027282715 9.02076530456543 14.065982818603516 C8.96981430053711 12.48483943939209 9.266253471374512 11.053971290588379 9.948944091796875 9.888572692871094 C10.631635665893555 8.723174095153809 11.700578689575195 7.823246002197266 13.194639205932617 7.303983211517334 L13.194639205932617 7.303983211517334"></path>
<path fill="none" stroke="black" stroke-width=".3" stroke-opacity="1.0"  filling="0" d="M13.296380043029785 7.949220180511475 L13.296380043029785 7.949220180511475 C13.921659469604492 8.761468887329102 14.39159107208252 9.774578094482422 14.455245971679688 10.797647476196289 L14.455245971679688 10.797647476196289 C14.505023002624512 10.808259010314941 14.55479907989502 10.81887149810791 14.604576110839844 10.829483032226562 L14.604576110839844 10.829483032226562 C14.517657279968262 11.294290542602539 14.036154747009277 13.876893043518066 13.943658828735352 14.340686798095703 C13.693714141845703 15.593955993652344 12.53762435913086 19.640993118286133 11.193617820739746 15.91227912902832 C10.734519004821777 14.638589859008789 10.797122955322266 13.072183609008789 11.206045150756836 11.612020492553711 C11.614967346191406 10.151857376098633 12.370206832885742 8.797937393188477 13.296380043029785 7.949220180511475 L13.296380043029785 7.949220180511475"></path></svg>