<svg xmlns="http://www.w3.org/2000/svg" viewBox="0.0 0.0 24.0 24.0" height="200px" width="200px"><path fill="none" stroke="black" stroke-width=".3" stroke-opacity="1.0"  filling="0" d="M12.740029335021973 5.321688175201416 C14.643377304077148 5.355458736419678 15.956913948059082 6.7202324867248535 15.948762893676758 8.6561861038208 C15.941192626953125 10.522852897644043 14.226491928100586 12.552546501159668 12.706841468811035 12.494321823120117 C10.990392684936523 12.42911148071289 9.183697700500488 10.296360969543457 9.281514167785645 8.45181941986084 C9.381077766418457 6.570596694946289 10.799417495727539 5.2873358726501465 12.740029335021973 5.321688175201416"></path>
<path fill="none" stroke="black" stroke-width=".3" stroke-opacity="1.0"  filling="0" d="M16.102474212646484 5.5091705322265625 C18.085006713867188 7.508587837219238 17.54468536376953 10.393594741821289 14.490246772766113 13.18427848815918 C16.40058135986328 14.417466163635254 18.162445068359375 15.909749984741211 17.899272918701172 18.373214721679688 C17.77467155456543 19.538862228393555 17.211063385009766 20.85472869873047 16.42270851135254 21.71411895751953 C14.302766799926758 24.025033950805664 10.405241012573242 23.85094451904297 8.367977142333984 21.563316345214844 C6.200291156768799 19.130130767822266 6.988064289093018 16.12459945678711 10.634061813354492 13.172635078430176 C7.446870803833008 10.155458450317383 7.055604457855225 7.730421543121338 9.262300491333008 5.566812038421631 C11.144686698913574 3.7216882705688477 14.30334758758545 3.6949052810668945 16.102474212646484 5.5091705322265625"></path>
<path fill="none" stroke="black" stroke-width=".3" stroke-opacity="1.0"  filling="0" d="M12.29577922821045 13.836971282958984 C14.249781608581543 13.789810180664062 16.521106719970703 16.149051666259766 16.556041717529297 18.262590408325195 C16.595050811767578 20.61368179321289 14.961280822753906 22.192720413208008 12.494322776794434 22.188064575195312 C10.293450355529785 22.18398666381836 8.523435592651367 20.492576599121094 8.533333778381348 18.401744842529297 C8.542649269104004 16.343521118164062 10.575254440307617 13.877728462219238 12.29577922821045 13.836971282958984"></path></svg>