<svg xmlns="http://www.w3.org/2000/svg" viewBox="0.0 0.0 24.0 24.0" height="200px" width="200px"><path fill="none" stroke="black" stroke-width=".3" stroke-opacity="1.0"  filling="0" d="M12.541403770446777 8.801387786865234 L12.541403770446777 8.801387786865234 C13.044615745544434 8.859136581420898 13.58825969696045 8.768742561340332 14.051040649414062 8.97463321685791 C16.551525115966797 10.087095260620117 15.329736709594727 12.459883689880371 14.251195907592773 13.973322868347168 L14.251195907592773 13.973322868347168 C14.855405807495117 15.032438278198242 15.316987991333008 15.382598876953125 15.078357696533203 16.663908004760742 C14.684830665588379 18.77692413330078 12.219564437866211 20.514375686645508 10.278985977172852 18.969741821289062 C9.461281776428223 18.318878173828125 9.412232398986816 17.48777198791504 9.156669616699219 16.555898666381836 L9.156669616699219 16.555898666381836 C9.651041030883789 16.433975219726562 10.14541244506836 16.312053680419922 10.63978385925293 16.19013023376465 L10.63978385925293 16.19013023376465 C10.973747253417969 16.670757293701172 10.979850769042969 18.141624450683594 11.961295127868652 17.941556930541992 C14.347372055053711 17.45515251159668 13.210245132446289 15.137557983398438 11.947725296020508 14.418350219726562 L11.947725296020508 14.418350219726562 C12.543058395385742 13.493468284606934 13.626453399658203 12.723917961120605 13.707478523254395 11.626984596252441 C13.909872055053711 8.886947631835938 11.910244941711426 11.425776481628418 11.65073299407959 12.127524375915527 L11.65073299407959 12.127524375915527 C11.206939697265625 12.023591995239258 10.763145446777344 11.919660568237305 10.319352149963379 11.815728187561035 L10.319352149963379 11.815728187561035 C10.771197319030762 10.164660453796387 10.997207641601562 9.552206993103027 12.541403770446777 8.801387786865234 L12.541403770446777 8.801387786865234"></path></svg>