<svg xmlns="http://www.w3.org/2000/svg" viewBox="0.0 0.0 24.0 24.0" height="200px" width="200px"><path fill="none" stroke="black" stroke-width=".3" stroke-opacity="1.0"  filling="0" d="M11.542140007019043 9.175342559814453 L11.542140007019043 9.175342559814453 C11.659058570861816 9.194649696350098 11.775978088378906 9.213955879211426 11.89289665222168 9.23326301574707 L11.89289665222168 9.23326301574707 C12.231551170349121 11.423940658569336 11.170889854431152 14.296063423156738 10.718443870544434 16.46424674987793 C10.545172691345215 17.294588088989258 10.297269821166992 19.188358306884766 9.45268726348877 19.723520278930664 C8.917799949645996 20.06244659423828 8.190389633178711 19.826040267944336 7.55924129486084 19.877300262451172 L7.55924129486084 19.877300262451172 C8.046255111694336 19.684532165527344 8.612523078918457 19.627742767333984 9.020282745361328 19.298995971679688 C9.692493438720703 18.757041931152344 9.857685089111328 17.502452850341797 10.00903606414795 16.766115188598633 C10.269376754760742 15.499537467956543 10.495561599731445 14.229395866394043 10.735206604003906 12.962122917175293 C10.974851608276367 11.69485092163086 11.227957725524902 10.43044662475586 11.542140007019043 9.175342559814453 L11.542140007019043 9.175342559814453"></path></svg>