<svg xmlns="http://www.w3.org/2000/svg" viewBox="0.0 0.0 24.0 24.0" height="200px" width="200px"><path fill="none" stroke="black" stroke-width=".3" stroke-opacity="1.0"  filling="0" d="M4.15777063369751 4.373465538024902 C5.859464645385742 3.9137582778930664 6.0110344886779785 5.111328601837158 6.368584632873535 6.015198230743408 C8.032525062561035 10.216412544250488 9.677589416503906 14.425398826599121 11.331536293029785 18.63050079345703 C11.593036651611328 19.29507827758789 11.868971824645996 19.954103469848633 12.314244270324707 21.048959732055664 C12.816701889038086 19.98019790649414 13.170920372009277 19.295631408691406 13.46684455871582 18.586639404296875 C15.240715026855469 14.331015586853027 17.003482818603516 10.070394515991211 18.76569175720215 5.809772968292236 C19.157665252685547 4.8620429039001465 19.436376571655273 3.7583017349243164 21.077556610107422 4.530587673187256 C21.49395751953125 10.591729164123535 21.91757583618164 16.754472732543945 22.341196060180664 22.916664123535156 C22.101905822753906 22.944421768188477 21.86316680908203 22.972740173339844 21.62387466430664 23.000497817993164 C20.27640151977539 21.571964263916016 20.96096420288086 19.662622451782227 20.740549087524414 17.983135223388672 C20.500701904296875 16.155410766601562 20.41964340209961 14.304923057556152 20.307491302490234 12.462206840515137 C20.197006225585938 10.648362159729004 20.134822845458984 8.831740379333496 19.647912979125977 6.892974853515625 C17.348819732666016 12.318964958190918 15.049728393554688 17.74551010131836 12.750636100769043 23.17150115966797 C12.495798110961914 23.179828643798828 12.24151611328125 23.18760108947754 11.986678123474121 23.195926666259766 C9.591532707214355 18.01700210571289 7.739933967590332 12.595453262329102 5.356451511383057 7.394320487976074 C4.378185272216797 12.626545906066895 4.754611968994141 17.919286727905273 3.225029945373535 22.98050880432129 C2.894129753112793 16.705059051513672 3.6158924102783203 10.509004592895508 4.15777063369751 4.373465538024902"></path></svg>