<svg xmlns="http://www.w3.org/2000/svg" viewBox="0.0 0.0 24.0 24.0" height="200px" width="200px"><path fill="none" stroke="black" stroke-width=".3" stroke-opacity="1.0"  filling="0" d="M15.13829231262207 9.615392684936523 C18.188220977783203 10.897258758544922 18.677616119384766 13.744073867797852 18.75198745727539 16.612476348876953 C18.848745346069336 20.35251808166504 18.775976181030273 24.09735870361328 18.775976181030273 27.840599060058594 C18.47530174255371 27.888580322265625 18.174625396728516 27.936561584472656 17.873952865600586 27.984539031982422 C17.50050926208496 27.162479400634766 17.127063751220703 26.339624404907227 16.72083282470703 25.44559669494629 C16.368179321289062 25.592737197875977 16.0211238861084 25.764665603637695 15.657275199890137 25.885414123535156 C13.556550979614258 26.581924438476562 11.487813949584961 27.65267562866211 9.338308334350586 27.855792999267578 C6.752985954284668 28.101287841796875 4.460341453552246 26.134109497070312 3.898975372314453 23.991004943847656 C3.34720516204834 21.88787841796875 4.467538356781006 19.070653915405273 6.923315048217773 18.0606746673584 C9.816510200500488 16.870769500732422 12.959199905395508 16.28701400756836 16.39936637878418 15.327413558959961 C16.11548614501953 12.240700721740723 15.1710786819458 10.749320983886719 12.534577369689941 10.596585273742676 C10.249929428100586 10.464639663696289 7.927696704864502 10.973227500915527 4.816193103790283 11.277101516723633 C8.498659133911133 8.498258590698242 11.759698867797852 8.195984840393066 15.13829231262207 9.615392684936523"></path>
<path fill="none" stroke="black" stroke-width=".3" stroke-opacity="1.0"  filling="0" d="M16.185054779052734 17.370563507080078 C17.03750228881836 23.100173950195312 15.216659545898438 25.877418518066406 10.904855728149414 26.30603790283203 C8.505855560302734 26.543540954589844 6.653027534484863 25.515169143676758 6.118050575256348 23.648746490478516 C5.50150728225708 21.497642517089844 6.509887218475342 19.411312103271484 8.96566390991211 18.678817749023438 C11.207929611206055 18.009496688842773 13.59333610534668 17.818374633789062 16.185054779052734 17.370563507080078"></path></svg>