<svg xmlns="http://www.w3.org/2000/svg" viewBox="0.0 0.0 24.0 24.0" height="200px" width="200px"><path fill="none" stroke="black" stroke-width=".3" stroke-opacity="1.0"  filling="0" d="M13.730831146240234 8.919571876525879 C15.304021835327148 8.975068092346191 16.857105255126953 9.599196434020996 18.419034957885742 9.967560768127441 C18.336193084716797 10.335121154785156 18.25335121154785 10.701876640319824 18.171314239501953 11.069437026977539 C17.116891860961914 10.906970977783203 16.067293167114258 10.703485488891602 15.00804328918457 10.589276313781738 C12.910456657409668 10.36327075958252 10.744504928588867 10.45817756652832 9.991689682006836 12.818767547607422 C9.18016242980957 15.364343643188477 11.083110809326172 16.339143753051758 13.101072311401367 17.10563087463379 C14.472387313842773 17.626005172729492 15.89276123046875 18.143163681030273 17.099197387695312 18.949865341186523 C20.379894256591797 21.14316177368164 20.112869262695312 25.16863441467285 16.655229568481445 27.075603485107422 C13.545845031738281 28.791955947875977 10.230563163757324 28.4276123046875 7.1670241355896 25.661663055419922 C8.522252082824707 25.862735748291016 9.353082656860352 26.05013656616211 10.191957473754883 26.095979690551758 C11.638069152832031 26.1747989654541 13.24825668334961 26.569705963134766 14.490079879760742 26.07587432861328 C15.631367683410645 25.622255325317383 16.898122787475586 24.279090881347656 17.130563735961914 23.1297607421875 C17.313940048217773 22.221717834472656 16.22252082824707 20.760324478149414 15.314477920532227 20.005096435546875 C14.333243370056152 19.190349578857422 12.89356517791748 18.942630767822266 11.678284645080566 18.39168930053711 C8.630026817321777 17.00992202758789 7.437265872955322 15.245309829711914 7.9745306968688965 12.987668991088867 C8.541555404663086 10.60214614868164 10.842626571655273 8.818231582641602 13.730831146240234 8.919571876525879"></path></svg>