<svg xmlns="http://www.w3.org/2000/svg" viewBox="0.0 0.0 24.0 24.0" height="200px" width="200px"><path fill="none" stroke="black" stroke-width=".3" stroke-opacity="1.0"  filling="0" d="M11.710615158081055 4.7945661544799805 C11.856550216674805 6.374383926391602 11.973297119140625 7.642460823059082 12.104948043823242 9.068270683288574 C13.545042037963867 9.188745498657227 14.930486679077148 9.30487060546875 16.315933227539062 9.420376777648926 C16.3438777923584 9.656976699829102 16.371822357177734 9.893576622009277 16.399768829345703 10.129556655883789 C15.028604507446289 10.310266494750977 13.657442092895508 10.491598129272461 11.978265762329102 10.712672233581543 C11.978265762329102 13.877897262573242 11.947836875915527 17.051193237304688 11.99130630493164 20.223247528076172 C12.013040542602539 21.79747772216797 12.864428520202637 22.69916534423828 14.47281265258789 22.834543228149414 C15.041025161743164 22.88298225402832 15.605511665344238 22.975509643554688 16.406597137451172 23.07797622680664 C13.574228286743164 24.82111358642578 11.169726371765137 24.01630401611328 10.667340278625488 21.19573211669922 C10.308403015136719 19.180593490600586 10.39348030090332 17.08286476135254 10.324548721313477 15.01991081237793 C10.279836654663086 13.68104076385498 10.316476821899414 12.339685440063477 10.316476821899414 10.836872100830078 C9.407957077026367 10.60151481628418 8.585135459899902 10.38789176940918 7.76293420791626 10.174267768859863 C7.739957332611084 10.012807846069336 7.717601776123047 9.851348876953125 7.694624423980713 9.689889907836914 C8.462177276611328 9.44583797454834 9.229108810424805 9.20178508758545 9.996663093566895 8.958975791931152 C10.880341529846191 7.834969997406006 9.577488899230957 5.840326309204102 11.710615158081055 4.7945661544799805"></path></svg>