<svg xmlns="http://www.w3.org/2000/svg" viewBox="0.0 0.0 24.0 24.0" height="200px" width="200px"><path fill="none" stroke="black" stroke-width=".3" stroke-opacity="1.0"  filling="0" d="M19.85625648498535 3.7702951431274414 C19.85625648498535 5.17352294921875 19.85625648498535 6.576751232147217 19.85625648498535 7.979979991912842 C19.680999755859375 8.00291633605957 19.50515365600586 8.02585220336914 19.329898834228516 8.048788070678711 C18.902929306030273 7.234257221221924 18.476551055908203 6.4197258949279785 17.97018814086914 5.454639434814453 C16.245853424072266 5.454639434814453 14.524456977844238 5.454639434814453 12.519594192504883 5.454639434814453 C12.213777542114258 7.652403354644775 11.912665367126465 9.819584846496582 11.591557502746582 12.127325057983398 C14.14512825012207 12.544881820678711 16.319368362426758 12.861873626708984 18.32599449157715 10.31712532043457 C18.32599449157715 12.483131408691406 18.32599449157715 14.060440063476562 18.32599449157715 15.637161254882812 C16.30995750427246 13.302955627441406 13.964577674865723 13.84166431427002 11.356313705444336 14.008097648620605 C11.06225872039795 16.338186264038086 10.777613639831543 18.59299659729004 10.478266716003418 20.96660614013672 C14.280980110168457 21.761730194091797 17.460886001586914 21.810543060302734 19.682174682617188 18.400096893310547 C20.691959381103516 20.326156616210938 19.593372344970703 22.64389419555664 17.576156616210938 22.922069549560547 C16.716928482055664 23.04086685180664 15.820062637329102 22.90677833557129 14.941427230834961 22.865610122680664 C11.816803932189941 22.71799659729004 8.691591262817383 22.568614959716797 5.56814432144165 22.402183532714844 C4.9423956871032715 22.36865997314453 4.321352481842041 22.258684158325195 3.6979570388793945 22.18340492248535 C3.5950374603271484 21.932283401489258 3.4921188354492188 21.680572509765625 3.3886117935180664 21.42885971069336 C6.641443729400635 21.302417755126953 6.840811729431152 18.998205184936523 7.172505855560303 16.788677215576172 C7.7335615158081055 13.04771614074707 8.295206069946289 9.30616569519043 8.861555099487305 5.530505180358887 C7.664165019989014 5.067662715911865 6.816699504852295 4.7406744956970215 5.954531669616699 4.407216548919678 C6.118614673614502 4.0919904708862305 6.201537132263184 3.7908782958984375 6.285637378692627 3.7902908325195312 C10.765851974487305 3.767941474914551 15.24548053741455 3.7702951431274414 19.85625648498535 3.7702951431274414"></path></svg>