<svg xmlns="http://www.w3.org/2000/svg" viewBox="0.0 0.0 24.0 24.0" height="200px" width="200px"><path fill="none" stroke="black" stroke-width=".3" stroke-opacity="1.0"  filling="0" d="M12.22769832611084 4.184150695800781 C17.469377517700195 2.942066192626953 21.690515518188477 6.451902866363525 21.31717300415039 11.803841590881348 C21.051013946533203 15.619840621948242 19.42020034790039 18.653255462646484 15.970876693725586 20.551767349243164 C15.625226020812988 20.742029190063477 15.299062728881836 20.967676162719727 14.563657760620117 21.42717742919922 C16.397554397583008 21.804622650146484 17.818103790283203 22.096935272216797 19.238142013549805 22.38874053955078 C19.23455238342285 22.549257278442383 19.2309627532959 22.709774017333984 19.22686004638672 22.870803833007812 C18.80787467956543 22.960037231445312 18.353504180908203 23.20209503173828 17.975032806396484 23.114913940429688 C14.998540878295898 22.430278778076172 12.01025676727295 21.7728271484375 9.07735824584961 20.92818832397461 C6.319335460662842 20.134319305419922 4.734677791595459 17.947595596313477 4.5474934577941895 15.089570999145508 C4.201330661773682 9.809942245483398 7.349106788635254 5.340078830718994 12.22769832611084 4.184150695800781"></path>
<path fill="none" stroke="black" stroke-width=".3" stroke-opacity="1.0"  filling="0" d="M12.111285209655762 5.252896785736084 C16.671920776367188 4.036454677581787 20.12124252319336 6.725756645202637 20.06585693359375 11.45408821105957 C20.007394790649414 16.444477081298828 16.388835906982422 20.327144622802734 11.77845573425293 20.346633911132812 C8.501957893371582 20.359966278076172 6.477288722991943 18.741973876953125 5.80342435836792 15.570608139038086 C4.884937763214111 11.246903419494629 7.855273723602295 6.388311862945557 12.111285209655762 5.252896785736084"></path></svg>